<svg xmlns="http://www.w3.org/2000/svg" xmlns:svg="http://www.w3.org/2000/svg" id="Ebene_2" viewBox="0 0 964.05003 1104.09" version="1.1" width="964.04999" height="1104.09">
  <defs id="defs4">
    <style id="style2">.cls-1,.cls-2{fill:#0057b7;}.cls-3{fill:#fff;}.cls-2{fill-rule:evenodd;}</style>
  </defs>
  <g id="Ebene_1-2" transform="translate(321.35,368.03)">
    <path class="cls-3" d="m -321.35,-368.03 0.09,620.43 c -0.06,129.12 50.16,250.56 141.36,342 91.11,91.35 212.07,141.66 340.56,141.66 265.8,0 482.04,-217.02 482.04,-483.78 v -620.31 z" id="path6" style="stroke-width:3"/>
    <path class="cls-2" d="M 163.03,-333.77 H -287.6 l 0.09,582.72 c -0.09,248.46 201.27,449.85 448.2,449.85 h 2.25 L 163,-91.88 H 142.51 V 17.89 H 58.24 v -268.32 c 36.29487,-0.2292 70.03659,0.20682 104.76,0.18 v 36.42 l 91.53,-0.42 v -36 H 163 c 0.0598,-27.8124 0.03,-55.68558 0.03,-83.52 z M -23.69,-40.04 c 20.19,0 36.66,16.47 36.66,36.66 0,20.19 -16.47,36.66 -36.66,36.66 -20.19,0 -36.63,-16.47 -36.63,-36.66 0,-20.19 16.47,-36.66 36.63,-36.66 z m -210.87,-195 146.28,-15.57 c -1.018161,92.22115 -0.608115,189.23019 -0.6,269.07 h -84.27 V -207.8 l -61.44,6.99 v -34.23 z m 67.77,484.17 -1.2,-0.54 -81.36,-39.3 81.42,-38.55 c 0.72,-0.3 1.92,-0.84 3.57,-1.62 8.22,-3.96 15.18,-6.9 21.03,-8.79 -6.72,0.99 -12.72,1.71 -17.94,2.22 -5.22,0.51 -9.36,0.78 -12.42,0.75 l -72.9,-0.12 0.06,-33.12 143.52,0.24 -0.09,44.28 -78.75,34.98 78.63,37.17 -0.09,42.66 -143.52,-0.24 0.06,-33.12 72.9,0.12 c 3.45,0 7.77,0.27 13.08,0.75 5.28,0.51 11.04,1.23 17.28,2.16 -6.12,-2.04 -13.89,-5.34 -23.28,-9.96 z m -24.39,220.35 -13.68,-35.61 17.34,-12.93 -19.77,-51.54 -21.51,2.07 -13.59,-35.46 151.62,-5.46 15.93,41.52 -116.34,97.38 z M 2.83,544.93 c -1.17,1.62 -2.1,2.82 -2.76,3.6 -4.86,5.61 -10.32,10.47 -16.41,14.67 -6.06,4.2 -11.67,7.02 -16.77,8.52 -14.01,4.08 -27,4.89 -38.97,2.37 -11.94,-2.46 -23.28,-8.37 -34.02,-17.7 -7.95,-6.93 -14.22,-14.76 -18.72,-23.46 -4.53,-8.7 -7.14,-17.97 -7.86,-27.84 -0.78,-9.72 0.45,-19.2 3.66,-28.41 3.21,-9.18 8.28,-17.76 15.21,-25.74 6.99,-8.04 14.79,-14.25 23.46,-18.72 8.67,-4.5 17.91,-7.05 27.75,-7.74 9.75,-0.69 19.2,0.6 28.38,3.9 9.18,3.27 17.82,8.46 25.92,15.48 8.82,7.68 15.48,16.23 19.95,25.71 4.5,9.51 6.78,19.89 6.93,31.14 l -35.16,0.09 c 0.78,-6.36 0.12,-12.33 -2.04,-17.91 -2.16,-5.58 -5.76,-10.5 -10.74,-14.85 -8.52,-7.41 -18.09,-10.47 -28.74,-9.21 -10.62,1.26 -19.98,6.57 -28.2,16.02 -8.19,9.42 -12.15,19.47 -11.94,30.15 0.24,10.71 4.59,19.77 13.14,27.18 6.6,5.76 13.74,9.12 21.45,10.14 7.71,1.02 15.3,-0.48 22.8,-4.41 L -68.9,513.52 -50.93,492.82 5.2,541.6 c -0.48,0.54 -1.29,1.65 -2.46,3.27 z m 88.5,-43.05 c 9.66,2.88 17.67,6.06 23.94,9.54 6.33,3.48 11.46,7.5 15.54,12.12 8.31,9.57 13.59,20.22 15.87,31.92 2.28,11.73 1.41,24.15 -2.52,37.32 -3.81,12.72 -9.9,23.31 -18.33,31.77 -8.37,8.46 -18.93,14.58 -31.59,18.39 -5.49,1.62 -11.91,2.19 -19.32,1.65 -7.38,-0.51 -15.66,-2.13 -24.81,-4.86 L 7.87,627.1 49.09,489.25 Z" id="path8" style="stroke-width:3"/>
    <polygon class="cls-2" points="47.42,245.15 52.04,257.19 70.42,243.23 " id="polygon10" transform="matrix(3,0,0,3,-321.35,-368.03)"/>
    <rect class="cls-1" x="142.50998" y="-213.83" width="20.49" height="85.470001" id="rect12" style="stroke-width:3"/>
    <path class="cls-2" d="m 90.67,609.46 c 8.64,-5.46 14.85,-14.49 18.6,-27.06 3.87,-12.96 3.63,-23.97 -0.69,-33.12 -4.32,-9.15 -12.24,-15.42 -23.79,-18.9 l -9.57,-2.85 -24.54,82.05 10.47,3.15 c 11.01,3.3 20.85,2.19 29.49,-3.24 z" id="path14" style="stroke-width:3"/>
    <path id="polygon1955" class="cls-2" style="fill:#0057b7;fill-rule:evenodd;stroke-width:3.01997" d="m 163,-91.88002 c 0.71192,-0.02681 73.51383,0.09417 91.53,0 v -36.48054 H 163 Z"/>
    <path class="cls-2" d="m 469.6,313.39 c 6.09,1.29 10.41,4.05 12.9,8.28 2.55,4.26 3.09,9.6 1.71,16.11 l -2.16,10.11 -37.32,-7.92 1.95,-9.24 c 1.53,-7.17 4.17,-12.18 7.95,-15.06 3.75,-2.85 8.73,-3.6 14.94,-2.28 M 327.49,527.77 c 1.29,-3.96 0.6,-8.31 -2.07,-12.9 -2.94,-5.1 -6.42,-7.92 -10.47,-8.52 -4.02,-0.6 -9.36,1.02 -16.05,4.89 l -4.65,2.7 16.44,28.47 7.17,-4.14 c 5.16,-2.97 8.37,-6.45 9.66,-10.47 m 15.66,24.24 c -4.44,-0.81 -9.51,0.45 -15.21,3.75 l -7.17,4.14 17.25,29.88 9.69,-5.61 c 4.59,-2.64 7.44,-6.12 8.61,-10.35 1.11,-4.26 0.36,-8.73 -2.31,-13.32 -2.79,-4.86 -6.39,-7.68 -10.86,-8.46 m 80.88,-802.29 c -74.13,0 -134.55,60.27 -134.55,134.19 0,73.92 60.45,134.19 134.55,134.19 63.12,0 116.31,-43.71 130.71,-102.33 l -78.99,0.3 c -2.58,44.19 -14.19,73.11 -52.83,73.5 -46.11,0.48 -56.07,-46.8 -56.07,-105 0,-58.2 12.78,-106.98 56.07,-106.35 40.71,0.57 46.65,23.31 52.44,59.7 l 76.35,-0.39 c -18.9,-51.33 -69.81,-87.81 -127.71,-87.81 m -155.46,899.1 -4.86,-27.54 -42.03,7.41 -4.92,-27.96 42.03,-7.41 -4.65,-26.31 -42.03,7.41 -4.89,-27.75 42.03,-7.41 -4.65,-26.31 -76.14,13.44 23.97,135.9 76.14,-13.41 z m 121.17,-70.8 c 3.48,-9.93 1.89,-20.64 -4.74,-32.1 -3.87,-6.72 -8.73,-11.46 -14.55,-14.19 -5.82,-2.76 -12.24,-3.33 -19.2,-1.77 3.72,-5.46 5.61,-11.16 5.73,-17.07 0.15,-5.94 -1.5,-11.88 -4.92,-17.79 -5.67,-9.84 -13.38,-15.78 -23.1,-17.88 -9.72,-2.07 -20.07,0.03 -31.02,6.36 l -43.65,25.2 69,119.52 41.43,-23.94 c 13.2,-7.62 21.54,-16.38 24.99,-26.34 m 93.33,-70.86 c 10.83,-13.86 15.66,-27.51 14.49,-41.04 -1.17,-13.53 -8.19,-25.32 -21.06,-35.37 l -69.75,-54.48 -21.33,27.3 60.24,47.07 c 9.42,7.38 15.21,14.01 17.28,19.92 2.04,5.91 0.75,11.85 -3.93,17.82 -4.62,5.94 -10.08,8.58 -16.32,7.98 -6.21,-0.6 -14.04,-4.62 -23.43,-11.94 l -60.24,-47.07 -21.45,27.45 69.75,54.48 c 12.84,10.02 25.98,13.98 39.36,11.85 13.41,-2.13 25.53,-10.11 36.36,-23.94 m 85.23,-214.41 -62.79,23.55 c 1.11,-9.39 -1.02,-17.46 -6.39,-24.18 -5.34,-6.72 -13.26,-11.19 -23.64,-13.41 -13.23,-2.82 -24.69,-0.63 -34.41,6.57 -9.69,7.2 -16.14,18.36 -19.35,33.48 l -10.53,49.5 134.97,28.68 7.2,-33.87 -57.42,-12.21 63.72,-17.31 8.67,-40.8 z m 3.66,-62.7 c 3.45,-8.76 5.22,-18.24 5.22,-28.38 0,-13.65 -2.85,-25.62 -8.61,-35.85 -5.7,-10.26 -14.49,-19.2 -26.31,-26.79 -4.32,-2.73 -9.9,-5.04 -16.77,-6.78 -6.9,-1.77 -13.86,-2.54 -21,-2.54 -0.99,0 -2.16206,-0.01 -4.38,0.17 -1.89,0.18 -3.21,0.27 -3.9,0.27 v 71.52 h 26.37 v -35.73 c 7.59,2.94 13.44,7.53 17.58,13.74 4.14,6.24 6.18,13.53 6.18,21.96 0,10.86 -3.84,19.74 -11.43,26.67 -7.62,6.9 -17.4,10.35 -29.4,10.35 -12,0 -21.78,-3.48 -29.4,-10.35 -7.62,-6.93 -11.43,-15.81 -11.43,-26.67 0,-6.36 1.35,-12.09 4.02,-17.16 2.67,-5.07 6.6,-9.33 11.7,-12.75 l -22.26,-25.47 c -8.1,7.23 -14.16,15.42 -18.24,24.69 -4.08,9.24 -6.09,19.44 -6.09,30.69 0,10.32 1.71,19.86 5.13,28.59 3.39,8.73 8.43,16.44 15.09,23.07 6.72,6.72 14.37,11.79 23.1,15.27 8.7,3.45 18.15,5.19 28.38,5.19 10.23,0 19.59,-1.74 28.29,-5.19 8.73,-3.45 16.38,-8.55 22.95,-15.27 6.72,-6.75 11.79,-14.52 15.27,-23.25" id="path18" style="stroke-width:3"/>
    <path class="cls-1" d="m -321.35,-368.03 0.09,620.43 c -0.06,129.12 50.16,250.56 141.36,342 91.11,91.35 212.07,141.66 340.56,141.66 265.8,0 482.04,-217.02 482.04,-483.78 v -620.31 z m 947.58,620.31 c 0,257.64 -208.83,467.28 -465.54,467.28 -124.08,0 -240.9,-48.6 -328.89,-136.8 -88.11,-88.32 -136.59,-205.65 -136.53,-330.36 l -0.09,-603.93 h 931.08 v 603.81 z" id="path20" style="stroke-width:3"/>
  </g>
</svg>