<svg xmlns:dc="http://purl.org/dc/elements/1.1/" xmlns:cc="http://creativecommons.org/ns#" xmlns:rdf="http://www.w3.org/1999/02/22-rdf-syntax-ns#" xmlns:svg="http://www.w3.org/2000/svg" xmlns="http://www.w3.org/2000/svg" version="1.1" id="Ebene_1" x="0px" y="0px" width="53.599998" height="53.596001" viewBox="0 0 53.599997 53.596003" xml:space="preserve"><metadata id="metadata69"><rdf:RDF><cc:Work rdf:about=""><dc:format>image/svg+xml</dc:format><dc:type rdf:resource="http://purl.org/dc/dcmitype/StillImage"/><dc:title/></cc:Work></rdf:RDF></metadata><defs id="defs67">
	
	
	
	
	
	
	
	
	
	
	
	
	
	
	
	
	
	
	
	
	
	
	
	
	
	
	
	
	
	
</defs>
<path style="fill:#e20613" d="M 0,26.8 C 0,11.999 12.003,0 26.791,0 41.596,0 53.6,12 53.6,26.8 53.6,41.602 41.597,53.596 26.791,53.596 12.003,53.596 0,41.602 0,26.8" id="path6"/><path style="fill:#ffffff" d="m 3.245,26.8 c 0,-13.015 10.56,-23.566 23.577,-23.566 13.01,0 23.569,10.551 23.569,23.566 0,13.013 -10.56,23.558 -23.569,23.558 C 13.805,50.358 3.245,39.813 3.245,26.8" id="path8"/><path style="fill:#e20613" d="m 4.994,26.798 c 0,-12.054 9.776,-21.827 21.828,-21.827 12.046,0 21.821,9.773 21.821,21.827 0,12.055 -9.775,21.823 -21.821,21.823 -12.052,0 -21.828,-9.768 -21.828,-21.823" id="path10"/><path style="fill:#ffffff" d="m 29.123,13.527 -0.053,0.236 c 0,0 -1.248,-1.859 -1.51,-2.25 -0.044,0.545 -0.636,7.86 -0.636,7.86 h -0.203 c 0,0 -0.576,-7.313 -0.619,-7.86 -0.262,0.391 -1.514,2.25 -1.514,2.25 0,0 -2.587,-11.912 -2.773,-12.772 -0.188,0.86 -2.775,12.772 -2.775,12.772 0,0 -1.251,-1.861 -1.514,-2.25 -0.046,0.575 -2.66,33.409 -2.66,33.409 0,0 0,0.022 -10e-4,0.04 3.55,2.342 7.679,3.581 11.946,3.581 h 0.031 c 4.272,0 8.403,-1.239 11.948,-3.583 v -0.045 c 0,0 -2.391,-30.124 -2.65,-33.402 -0.264,0.391 -1.514,2.25 -1.514,2.25 0,0 -2.594,-11.915 -2.781,-12.773 -0.186,0.859 -2.722,12.537 -2.722,12.537" id="path40"/><path style="fill:#1d1d1b" d="m 38.893,44.916 -2.676,-33.705 -1.541,2.294 -2.832,-12.999 -2.822,12.999 -1.54,-2.294 -0.66,8.154 -0.641,-8.154 -1.542,2.294 -2.825,-12.999 -2.825,12.999 -1.542,-2.294 -2.685,33.705 v 0.104 c 3.449,2.288 7.602,3.625 12.049,3.625 h 0.031 c 4.461,0 8.606,-1.337 12.051,-3.625 z" id="path42"/><polygon style="fill:#ffffff" points="4.768,70.224 7.395,82.341 50.664,70.182 47.224,58.283 " id="polygon44" transform="translate(-1.069,-44.578)"/><polygon style="fill:#e20613" points="14.115,72.232 12.444,72.812 12.755,69.518 18.322,67.788 17.341,78.27 13.451,79.355 " id="polygon46" transform="translate(-1.069,-44.578)"/><path style="fill:#e20613" d="m 22.066,30.544 c -0.1,1.087 -1.252,2.012 -2.291,2.329 -1.059,0.274 -2.079,-0.028 -1.977,-1.125 0.104,-1.139 1.257,-2.097 2.303,-2.369 1.038,-0.298 2.065,0.041 1.965,1.165" id="path48"/><polygon style="fill:#e20613" points="25.699,65.717 32.913,63.674 32.646,66.699 29.358,67.599 29.264,68.702 32.148,67.901 31.884,70.6 29.008,71.416 28.658,75.083 24.706,76.196 " id="polygon50" transform="translate(-1.069,-44.578)"/><path style="fill:#e20613" d="m 41.137,20.645 c -0.576,-0.387 -1.324,-0.641 -2.213,-0.396 -1.176,0.332 -2.223,1.494 -2.334,2.639 -0.105,1.143 0.83,1.751 2,1.42 0.904,-0.249 1.654,-0.822 2.34,-1.604 l -0.486,3.952 c -0.651,0.469 -2.123,1 -2.823,1.197 -3.082,0.862 -5.271,-0.78 -4.99,-3.758 0.283,-3.059 2.998,-6.199 6.168,-7.097 0.881,-0.249 1.777,-0.359 2.588,-0.293 z" id="path52"/><path style="fill:#ffffff" d="m 24.139,34.594 c -0.04,0.417 -0.335,0.82 -0.657,0.941 -0.308,0.074 -0.529,-0.205 -0.498,-0.626 0.02,-0.427 0.313,-0.829 0.631,-0.894 0.324,-0.127 0.559,0.162 0.524,0.579 m 1.675,-0.484 c -0.029,0.425 -0.32,0.829 -0.642,0.938 -0.322,0.104 -0.534,-0.189 -0.504,-0.594 0.042,-0.42 0.312,-0.823 0.637,-0.923 0.316,-0.108 0.552,0.166 0.509,0.579 m 1.104,4.412 c -0.184,2.219 -1.594,3.932 -3.198,4.369 -1.603,0.452 -2.796,-0.54 -2.607,-2.756 0.179,-2.166 1.602,-3.935 3.202,-4.385 1.586,-0.449 2.777,0.609 2.603,2.772 m -3.892,1.115 c -0.069,0.801 0.3,1.221 0.867,1.076 0.574,-0.162 1.029,-0.824 1.098,-1.596 0.06,-0.759 -0.267,-1.266 -0.867,-1.088 -0.596,0.167 -1.03,0.89 -1.098,1.608" id="path54"/><polygon style="fill:#ffffff" points="31.866,85.393 28.364,86.347 28.942,79.443 30.845,78.93 30.456,83.611 32.05,83.166 " id="polygon56" transform="translate(-1.069,-44.578)"/><path style="fill:#ffffff" d="m 31.869,33.748 1.832,-0.486 1.391,3.355 h 0.043 C 35.117,36.039 35.08,35.474 35.127,34.875 l 0.183,-2.066 1.819,-0.503 -0.576,6.897 -1.825,0.502 -1.365,-3.154 -0.074,0.014 c 0.023,0.465 0.043,0.888 0,1.359 l -0.186,2.252 -1.804,0.49 z" id="path58"/><path style="fill:#ffffff" d="m 16.467,38.044 1.848,-0.516 -0.303,3.014 0.044,-0.013 c 0.075,-0.295 0.208,-0.576 0.335,-0.861 l 1.101,-2.472 2.079,-0.573 -1.922,3.813 1.525,3.054 -2.205,0.617 -0.744,-1.854 C 18.137,42.026 17.996,41.815 17.991,41.55 l -0.052,0.013 -0.206,2.889 -1.848,0.502 z" id="path60"/>
</svg>