<svg xmlns:svg="http://www.w3.org/2000/svg" xmlns="http://www.w3.org/2000/svg" version="1.0" width="695" height="768" viewBox="-19.131006 -19.131006 675.962212 746.924122" id="svg2591">
  <defs id="defs2593"/>
  <path d="M 71.411128,133.49609 L 566.49415,133.49609 L 566.49415,32.09473 L 71.411128,32.09473 L 71.411128,133.49609 z" id="path2473" style="fill:#f89419;fill-opacity:1;fill-rule:evenodd;stroke:none"/>
  <path d="M 318.84766,59.53613 C 478.58887,59.53613 608.13477,189.08203 608.13477,348.82324 C 608.13477,508.56446 478.58887,638.11034 318.84766,638.11034 C 159.10645,638.11034 29.56543,508.56446 29.56543,348.82324 C 29.56543,189.08203 159.10645,59.53613 318.84766,59.53613" id="path2475" style="fill:#f37d1c;fill-opacity:1;fill-rule:evenodd;stroke:none"/>
  <path d="M 318.84766,76.92871 C 468.98437,76.92871 590.74707,198.68652 590.74707,348.82324 C 590.74707,498.96484 468.98437,620.71777 318.84766,620.71777 C 168.71094,620.71777 46.953128,498.96484 46.953128,348.82324 C 46.953128,198.68652 168.71094,76.92871 318.84766,76.92871" id="path2477" style="fill:#f89419;fill-opacity:1;fill-rule:evenodd;stroke:none"/>
  <path d="M 421.75293,46.95312 C 467.49512,62.55371 508.56446,88.26659 542.29492,121.42089 L 553.65235,121.45508 L 553.65235,46.95312 L 421.75293,46.95312 z M 570.4004,152.91992 C 612.5586,206.97753 637.7002,274.97071 637.7002,348.82324 C 637.7002,497.37793 536.04492,622.24121 398.5254,657.63183 C 373.05665,664.18457 338.9209,683.35449 318.85742,708.66211 C 305.37599,689.31152 267.31446,664.52637 243.00293,658.59374 C 103.54005,624.55078 0,498.75488 0,348.82324 C 0,275.12696 25.029297,207.27051 67.031248,153.26659 L 32.788085,134.13086 L 32.788085,-5.6843419e-14 L 600.60547,-5.6843419e-14 L 600.60547,134.13086 L 570.4004,152.91992 z M 96.806648,120.04883 C 130.27343,87.55859 170.83496,62.33887 215.94727,46.95312 L 79.741208,46.95312 L 79.741208,119.99512 L 96.806648,120.04883 z M 318.84766,76.92871 C 468.98437,76.92871 590.74707,198.68652 590.74707,348.82324 C 590.74707,498.96484 468.98437,620.71777 318.84766,620.71777 C 168.71094,620.71777 46.953128,498.96484 46.953128,348.82324 C 46.953128,198.68652 168.71094,76.92871 318.84766,76.92871" id="path2479" style="fill:#007dc4;fill-opacity:1;fill-rule:evenodd;stroke:none"/>
  <path d="M 193.33985,611.04492 C 234.07715,586.70409 269.34571,546.83593 269.34571,482.12402 L 269.34571,258.65234 C 269.34571,226.51856 263.05176,160.13183 220.16602,126.68457 C 260.86426,111.09374 313.32031,106.50391 359.2627,113.14941 C 398.54981,118.82812 431.87988,132.72949 462.34863,154.99023 L 462.34375,206.41113 C 432.49023,177.66602 384.44825,144.69238 309.58008,145.30762 L 309.58008,264.64356 C 333.66211,265.70801 359.2334,267.51953 384.05762,272.29981 L 384.05762,331.84571 C 360.91308,313.30566 329.54102,307.27539 309.58008,306.01074 L 309.58008,499.06249 C 309.58008,559.53613 329.73145,597.72461 371.42578,640.85449 C 314.79492,630.41992 249.97558,621.47461 193.33985,611.04492" id="path2481" style="fill:#007dc4;fill-opacity:1;fill-rule:evenodd;stroke:none"/>
  <path d="M 244.25781,170.68847 C 204.88281,177.88574 164.44336,195.11718 126.52832,226.15722 C 152.59766,323.43749 136.44043,407.48047 69.218748,476.98242 C 79.887698,495.83984 90.556648,514.69727 101.22558,533.54981 C 132.26075,494.54589 150.7666,443.91602 159.0918,383.97949 C 160.03906,377.14356 160.84961,370.18066 161.53321,363.10547 L 199.4629,363.10547 C 198.14941,442.98828 203.39356,515.77637 212.12402,587.14356 C 232.74415,568.78418 252.7295,543.48633 258.27148,512.70996 C 242.82227,458.50097 230.80566,402.25097 229.01856,346.50878 C 227.25586,291.64062 231.78711,240.13183 250.50293,185.19531 C 249.41406,180.72266 246.84571,175.49317 244.25781,170.68847 z M 163.44238,337.05566 C 165.05371,306.21582 164.62402,273.38378 163.00293,238.80859 C 177.39746,226.10352 194.76075,220.59571 209.1504,214.24804 C 204.33594,257.36328 201.44531,298.09082 200.12207,337.05566 L 163.44238,337.05566" id="path2483" style="fill:#007dc4;fill-opacity:1;fill-rule:evenodd;stroke:none"/>
  <path d="M 367.71485,175.86426 C 399.1504,224.50683 411.28906,278.54981 408.70117,331.04492 C 405.26367,400.71289 372.14843,478.47656 318.75488,534.71192 L 324.11134,550.62499 L 435.52246,475.03906 L 436.74316,370.33203 C 444.28222,360.49316 451.95312,346.79199 459.84863,336.73828 C 469.53125,404.99023 491.60645,467.03613 551.52832,517.91992 L 575.34668,476.98242 C 528.91602,426.25488 494.40918,379.37012 481.9336,312.99804 C 502.94433,287.56836 527.39258,258.30078 553.75977,233.59863 L 515.80079,220.94727 L 438.81349,312.73926 L 442.96387,208.65234 C 428.37402,193.77929 392.94433,175.26856 370.77637,171.97266 L 367.71485,175.86426" id="path2485" style="fill:#007dc4;fill-opacity:1;fill-rule:evenodd;stroke:none"/>
  <path d="M 547.86621,340.13183 L 89.848628,340.13183 C 89.721678,336.14746 89.257808,332.25097 88.476558,328.46192 C 163.57911,303.27148 240.90821,290.01953 320.25391,291.02539 C 399.33593,292.02637 474.02832,303.83789 549.62402,326.69433 C 548.61329,331.03027 548.0127,335.52246 547.86621,340.13183 z M 571.7041,394.36523 C 544.22363,440.29784 505.16602,480.04883 459.8291,508.44727 C 418.54492,534.30176 369.4629,552.15821 320.32227,552.04102 C 271.9629,551.92383 224.23828,534.55567 183.39356,509.47266 C 136.48926,480.66406 96.157228,440.43457 65.332028,394.94629 C 68.374018,392.39258 71.191408,389.58496 73.754878,386.54784 C 137.31933,447.25586 230.19043,490.22949 318.87696,489.10156 C 418.87207,487.83203 491.21582,454.03321 564.58008,387.26562 C 566.78222,389.80468 569.15527,392.17284 571.7041,394.36523 z M 58.325198,400.09766 C 89.814458,446.49414 130.98145,487.48534 178.84277,516.87988 C 221.07422,542.81738 270.3125,560.61523 320.30273,560.73731 C 371.1084,560.85937 421.74805,542.55371 464.43849,515.81543 C 510.6836,486.85547 550.51758,446.40624 578.68165,399.63867 C 586.90918,405.06836 596.37696,408.77442 606.56738,410.24414 L 606.56738,401.44043 C 578.17871,396.74804 556.51856,372.08496 556.51856,342.36816 C 556.51856,312.65137 578.17871,287.98828 606.56738,283.29589 L 606.56738,274.49707 C 595.60547,276.06933 585.4834,280.23926 576.83593,286.36231 C 568.9795,273.52051 560.32715,261.16211 550.9961,249.36034 C 497.45117,181.63086 409.62402,119.62402 320.36621,118.48144 C 205.62012,117.01172 120.86426,196.42578 62.924808,287.86133 C 55.043948,281.83593 45.815428,277.48047 35.766602,275.32227 L 35.766602,284.24804 C 61.850588,290.71777 81.191408,314.28711 81.191408,342.36816 C 81.191408,370.45409 61.850588,394.01856 35.766602,400.48828 L 35.766602,409.41406 C 43.920898,407.66113 51.533198,404.46289 58.325198,400.09766 z M 558.74023,380.82031 C 486.95312,446.16211 416.6211,479.16503 318.76465,480.40527 C 232.00683,481.50878 140.89356,439.02343 78.964848,379.50683 C 80.859368,376.57714 82.529298,373.49609 83.964848,370.28321 C 159.00391,398.65722 239.42871,412.47558 319.61915,411.45996 C 397.64648,410.47363 481.17187,399.28711 554.94141,372.79784 C 556.23536,375.40527 557.69043,377.91503 559.28711,380.32227 L 558.74023,380.82031 z M 551.57715,364.77051 C 478.83301,390.81543 396.40625,401.79199 319.50684,402.76856 C 240.38575,403.76464 161.03027,390.13672 86.992178,362.13378 C 88.276368,357.86133 89.155268,353.41308 89.584958,348.82812 L 548.12988,348.82812 C 548.65235,354.36034 549.81933,359.69727 551.57715,364.77051 z M 86.176758,320.06836 C 84.873048,316.26953 83.237308,312.62207 81.318358,309.16016 C 144.375,247.43652 230.4834,212.49512 318.76465,213.61816 C 417.19727,214.87304 481.87012,245.46387 557.30468,307.56836 C 555.28808,310.98633 553.54981,314.59961 552.14356,318.36914 C 475.76172,295.27832 400.25878,283.34472 320.36621,282.32909 C 240.20508,281.31348 162.05566,294.66308 86.176758,320.06836 z M 76.523428,301.69922 C 74.409178,298.83789 72.075198,296.14258 69.555668,293.64746 C 125.7959,204.44336 208.27148,125.74218 320.25391,127.17773 C 406.78711,128.28124 492.31446,189.15527 544.17481,254.75097 C 553.53027,266.58203 562.17773,278.97949 570.00977,291.87499 C 567.18262,294.46777 564.5752,297.30957 562.21191,300.34179 C 485.49316,237.31446 419.05273,206.19628 318.87696,204.92187 C 228.88183,203.77929 141.1084,239.14062 76.523428,301.69922" id="path2487" style="fill:#007dc4;fill-opacity:1;fill-rule:evenodd;stroke:none"/>
</svg>