<svg xmlns:dc="http://purl.org/dc/elements/1.1/" xmlns:cc="http://creativecommons.org/ns#" xmlns:rdf="http://www.w3.org/1999/02/22-rdf-syntax-ns#" xmlns:svg="http://www.w3.org/2000/svg" xmlns="http://www.w3.org/2000/svg" xmlns:sodipodi="http://sodipodi.sourceforge.net/DTD/sodipodi-0.dtd" xmlns:inkscape="http://www.inkscape.org/namespaces/inkscape" id="svg2" sodipodi:version="0.32" inkscape:version="0.46" width="384" height="256" version="1.0" sodipodi:docname="Flag_of_Aberdeen.svg" inkscape:output_extension="org.inkscape.output.svg.inkscape">
  <metadata id="metadata7">
    <rdf:RDF>
      <cc:Work rdf:about="">
        <dc:format>image/svg+xml</dc:format>
        <dc:type rdf:resource="http://purl.org/dc/dcmitype/StillImage"/>
      </cc:Work>
    </rdf:RDF>
  </metadata>
  <defs id="defs5">
    <inkscape:perspective sodipodi:type="inkscape:persp3d" inkscape:vp_x="0 : 526.18109 : 1" inkscape:vp_y="0 : 1000 : 0" inkscape:vp_z="744.09448 : 526.18109 : 1" inkscape:persp3d-origin="372.04724 : 350.78739 : 1" id="perspective9"/>
    <inkscape:perspective id="perspective2433" inkscape:persp3d-origin="372.04724 : 350.78739 : 1" inkscape:vp_z="744.09448 : 526.18109 : 1" inkscape:vp_y="0 : 1000 : 0" inkscape:vp_x="0 : 526.18109 : 1" sodipodi:type="inkscape:persp3d"/>
    <inkscape:perspective id="perspective3930" inkscape:persp3d-origin="196.05798 : 78.071431 : 1" inkscape:vp_z="392.11597 : 117.10715 : 1" inkscape:vp_y="0 : 1000 : 0" inkscape:vp_x="0 : 117.10715 : 1" sodipodi:type="inkscape:persp3d"/>
    <inkscape:perspective id="perspective4289" inkscape:persp3d-origin="196.05798 : 78.071431 : 1" inkscape:vp_z="392.11597 : 117.10715 : 1" inkscape:vp_y="0 : 1000 : 0" inkscape:vp_x="0 : 117.10715 : 1" sodipodi:type="inkscape:persp3d"/>
  </defs>
  <sodipodi:namedview inkscape:window-height="712" inkscape:window-width="1024" inkscape:pageshadow="2" inkscape:pageopacity="0.0" guidetolerance="10.0" gridtolerance="10.0" objecttolerance="10.0" borderopacity="1.0" bordercolor="#666666" pagecolor="#ffffff" id="base" showgrid="false" inkscape:zoom="1.8777778" inkscape:cx="225" inkscape:cy="135" inkscape:window-x="0" inkscape:window-y="22" inkscape:current-layer="svg2"/>
  <g id="g5405" transform="matrix(0.981806,0,0,1.0977029,37.371669,-61.395395)">
    <rect y="55.930794" x="-38.064209" height="233.21429" width="391.11597" id="rect5773" style="fill:#ff0000;fill-opacity:1;fill-rule:nonzero"/>
    <g id="g5149">
      <path style="fill:#ffffff;fill-opacity:1;fill-rule:evenodd;stroke:#000000;stroke-width:0.86644745;stroke-linecap:butt;stroke-linejoin:miter;stroke-miterlimit:4;stroke-dasharray:none;stroke-opacity:1" d="M -7.973531,84.58186 L -7.973531,260.494 L 322.96113,260.494 L 322.96113,84.58186 L -7.973531,84.58186 z M -0.293503,89.01429 L 9.224184,89.01429 C 7.608575,93.44952 3.76869,94.17629 -0.293503,89.01429 z M 9.986986,89.01429 L 155.26607,89.01429 C 154.84751,94.04552 150.87399,95.29646 147.46469,94.36438 C 148.78165,97.31239 151.59597,98.15848 155.09271,96.68448 C 154.36611,99.31501 155.40339,102.76559 157.57181,104.57975 C 159.74025,102.76559 160.79486,99.31501 160.06826,96.68448 C 163.565,98.15848 166.37932,97.3124 167.69628,94.36438 C 164.28661,95.29655 160.29542,94.04684 159.87756,89.01429 L 305.00061,89.01429 C 303.90637,91.90238 302.92512,95.42113 308.06916,96.04385 C 305.69292,97.3908 304.00555,100.55287 304.20314,103.31581 C 306.96964,103.51314 310.13576,101.82794 311.48443,99.45475 C 312.10795,104.5922 315.63122,103.6122 318.52301,102.51936 L 318.52301,156.29722 C 311.17138,151.94099 300.15988,154.58961 307.11565,168.60761 C 301.84939,167.26067 298.16454,166.14358 290.92345,172.53793 C 298.16455,178.93228 301.84938,177.8152 307.11565,176.46825 C 300.1599,190.48626 311.17139,193.13487 318.52301,188.77864 L 318.52301,242.55651 C 315.63121,241.46367 312.10795,240.48366 311.48443,245.62112 C 310.13575,243.24792 306.96964,241.56272 304.20314,241.76005 C 304.00554,244.523 305.69292,247.68506 308.06916,249.03201 C 302.9251,249.65473 303.90637,253.17348 305.00061,256.06157 L 159.72153,256.06157 C 160.14009,251.03035 164.1136,249.77941 167.52291,250.71149 C 166.20595,247.76347 163.39164,246.91737 159.89489,248.39139 C 160.62149,245.76085 159.58422,242.31027 157.41579,240.49612 C 155.24735,242.31028 154.19275,245.76083 154.91934,248.39139 C 151.4226,246.91738 148.60829,247.76348 147.29133,250.71149 C 150.70099,249.77931 154.69218,251.02903 155.11004,256.06157 L 9.986986,256.06157 C 11.081226,253.17348 12.062489,249.65473 6.918442,249.03201 C 9.294683,247.68506 10.982046,244.523 10.78446,241.76005 C 8.017958,241.56272 4.851847,243.24792 3.50317,245.62112 C 2.87965,240.48366 -0.643616,241.46367 -3.535411,242.55651 L -3.535411,188.77864 C 3.816217,193.13487 14.827699,190.48626 7.871944,176.46825 C 13.138206,177.8152 16.823044,178.93228 24.064148,172.53793 C 16.823044,166.14358 13.138206,167.26067 7.871944,168.60761 C 14.827704,154.58961 3.816218,151.94099 -3.535411,156.29722 L -3.535411,102.51936 C -0.643616,103.6122 2.87965,104.5922 3.50317,99.45475 C 4.851847,101.82794 8.017958,103.51314 10.78446,103.31581 C 10.982046,100.55287 9.294683,97.3908 6.918442,96.04385 C 12.062489,95.42113 11.081226,91.90238 9.986986,89.01429 z M 305.76341,89.01429 L 315.2811,89.01429 C 311.21891,94.17629 307.37902,93.44952 305.76341,89.01429 z M -3.535411,92.25204 C 1.633208,96.30903 0.9055,100.144 -3.535411,101.75753 L -3.535411,92.25204 z M 318.52301,92.25204 L 318.52301,101.75753 C 314.0821,100.144 313.35439,96.30903 318.52301,92.25204 z M -0.952287,161.66462 C 3.787938,161.53382 5.734729,169.28828 -3.535411,169.88886 L -3.535411,162.46108 C -2.625383,161.92484 -1.746415,161.68654 -0.952287,161.66462 z M 315.93989,161.66462 C 316.73401,161.68654 317.61298,161.92484 318.52301,162.46108 L 318.52301,169.88886 C 309.25287,169.28828 311.19966,161.53382 315.93989,161.66462 z M -3.535411,175.187 C 7.287749,175.88819 2.806657,186.35186 -3.535411,182.61479 L -3.535411,175.187 z M 318.52301,175.187 L 318.52301,182.61479 C 312.18094,186.35186 307.69986,175.88819 318.52301,175.187 z M -3.535411,243.31833 C 0.9055,244.93187 1.633208,248.76683 -3.535411,252.82382 L -3.535411,243.31833 z M 318.52301,243.31833 L 318.52301,252.82382 C 313.35438,248.76683 314.0821,244.93187 318.52301,243.31833 z M 5.184801,252.44291 C 6.9437,252.44449 8.384664,253.75689 9.224184,256.06157 L -0.293503,256.06157 C 1.657845,253.58192 3.558807,252.44144 5.184801,252.44291 z M 309.8028,252.44291 C 311.42879,252.44144 313.32975,253.58192 315.2811,256.06157 L 305.76341,256.06157 C 306.60294,253.75689 308.0439,252.44449 309.8028,252.44291 z" id="path5630" sodipodi:nodetypes="cccccccccccccccccccccccccccccccccccccccccccccccccccccccccccccccccccccccccccccccccccccccccc"/>
      <path style="opacity:0.95999995;fill:#ffffff;fill-opacity:1;fill-rule:evenodd;stroke:#000000;stroke-width:0.86644745;stroke-linecap:butt;stroke-linejoin:miter;stroke-miterlimit:4;stroke-dasharray:none;stroke-opacity:1" d="M 157.50247,59.8572 C 155.97201,61.05766 153.88042,61.91972 154.13921,65.32848 C 143.17035,61.5931 140.30918,69.665 143.66802,74.60889 L -12.012914,74.60889 C -11.905977,68.5307 -4.319761,67.03863 -3.968821,74.57426 C 2.116431,61.33088 -14.475904,57.95645 -17.109817,70.02063 C -19.87997,65.34916 -22.307316,63.0603 -31.273661,61.31159 C -29.522707,70.26645 -27.230911,72.69068 -22.553449,75.45728 C -34.633113,78.08783 -31.254355,94.65889 -17.993974,88.58144 C -25.539273,88.23095 -24.045291,80.65445 -17.959301,80.54765 L -17.959301,170.062 C -22.029698,169.17028 -23.029296,165.57132 -22.172048,162.44376 C -25.123846,163.75904 -25.953687,166.56974 -24.47779,170.062 C -27.111703,169.33634 -30.566702,170.37228 -32.383191,172.53793 C -30.566702,174.70359 -27.111703,175.73953 -24.47779,175.01386 C -25.953687,178.50612 -25.123847,181.31683 -22.172048,182.6321 C -23.029296,179.50454 -22.029699,175.90559 -17.959301,175.01386 L -17.959301,264.52821 C -24.045291,264.42141 -25.539273,256.84492 -17.993974,256.49443 C -31.254355,250.41698 -34.633112,266.98804 -22.553449,269.61858 C -27.230911,272.38518 -29.522706,274.80942 -31.273661,283.76427 C -22.307316,282.01556 -19.879969,279.72671 -17.109817,275.05524 C -14.475904,287.11942 2.116432,283.745 -3.968821,270.50161 C -4.319761,278.03723 -11.905981,276.54516 -12.012914,270.46698 L 143.66802,270.46698 C 140.30918,275.41087 143.17034,283.48277 154.13921,279.74738 C 153.88042,283.15614 155.95467,284.01821 157.48513,285.21866 C 159.0156,284.01821 161.10718,283.15615 160.84839,279.74738 C 171.81726,283.48277 174.67842,275.41087 171.31958,270.46698 L 327.00051,270.46698 C 326.89358,276.54516 319.30736,278.03723 318.95642,270.50161 C 312.87116,283.745 329.4635,287.11942 332.09742,275.05524 C 334.86756,279.72671 337.29491,282.01556 346.26126,283.76427 C 344.5103,274.80942 342.21851,272.38518 337.54105,269.61858 C 349.62071,266.98804 346.24195,250.41698 332.98157,256.49443 C 340.52688,256.84492 339.03289,264.42141 332.9469,264.52821 L 332.9469,175.01386 C 337.01729,175.90559 338.01689,179.50454 337.15965,182.6321 C 340.11145,181.31683 340.9413,178.50612 339.46539,175.01386 C 342.0993,175.73953 345.55431,174.70359 347.37079,172.53793 C 345.5543,170.37228 342.09932,169.33634 339.46539,170.062 C 340.94129,166.56974 340.11143,163.75904 337.15965,162.44376 C 338.0169,165.57132 337.0173,169.17028 332.9469,170.062 L 332.9469,80.54765 C 339.03289,80.65445 340.52686,88.23095 332.98157,88.58144 C 346.24195,94.65889 349.62072,78.08783 337.54105,75.45728 C 342.21851,72.69068 344.51031,70.26645 346.26126,61.31159 C 337.29491,63.0603 334.86757,65.34916 332.09742,70.02063 C 329.4635,57.95645 312.87117,61.33088 318.95642,74.57426 C 319.30736,67.03863 326.89359,68.5307 327.00051,74.60889 L 171.31958,74.60889 C 174.67842,69.665 171.81726,61.59309 160.84839,65.32848 C 161.10717,61.91972 159.03293,61.05765 157.50247,59.8572 z M 149.87445,71.19799 C 151.77031,71.07918 153.83665,71.99443 154.34724,74.60889 L 146.61521,74.60889 C 145.76868,72.81078 147.7024,71.33412 149.87445,71.19799 z M 164.59306,71.19799 C 166.95349,71.11286 169.28466,72.67114 168.3724,74.60889 L 160.64036,74.60889 C 161.10552,72.22705 162.85134,71.26081 164.59306,71.19799 z M -12.411651,80.14943 L 327.39925,80.14943 L 327.39925,264.92644 L -12.411651,264.92644 L -12.411651,80.14943 z M 146.61521,270.46698 L 154.34724,270.46698 C 153.25169,276.07675 145.0298,273.83455 146.61521,270.46698 z M 160.64036,270.46698 L 168.3724,270.46698 C 169.95779,273.83454 161.73591,276.07675 160.64036,270.46698 z" id="path5634" sodipodi:nodetypes="cccccccccccccccccccccccccccccccccccccccccccccccccccccccccccccccccccccccc"/>
    </g>
    <g transform="translate(-4.0397005e-8,1.8399514)" id="g5372">
      <g transform="matrix(1.0566266,0,0,1.0948235,86.812209,56.438285)" id="g5204">
        <path id="path5206" d="M 49.514038,144.01701 L 49.514038,127.27406 L 49.068406,127.27406 C 48.643997,127.27406 48.622779,127.25284 48.622779,126.82843 C 48.622779,126.39341 48.610651,126.3828 48.113487,126.3828 C 47.616319,126.3828 47.604195,126.37219 47.604195,125.93717 C 47.604195,125.50215 47.592067,125.49154 47.094904,125.49154 L 46.585612,125.49154 L 46.585612,121.03524 L 46.585612,116.57894 L 47.094904,116.57894 C 47.592067,116.57894 47.604195,116.56833 47.604195,116.13331 C 47.604195,115.69829 47.616319,115.68768 48.113487,115.68768 C 48.594482,115.68768 48.622779,115.66646 48.622779,115.30571 C 48.622779,114.95406 48.658146,114.92374 49.068406,114.92374 C 49.492815,114.92374 49.514038,114.90252 49.514038,114.47811 C 49.514038,114.04309 49.526162,114.03248 50.02333,114.03248 L 50.532622,114.03248 L 50.532622,113.14122 L 50.532622,112.24996 L 51.487541,112.24996 L 52.442464,112.24996 L 52.442464,113.14122 L 52.442464,114.03248 L 52.888092,114.03248 C 53.312501,114.03248 53.333724,114.0537 53.333724,114.47811 C 53.333724,114.91313 53.345847,114.92374 53.843015,114.92374 C 54.32401,114.92374 54.352307,114.94496 54.352307,115.30571 C 54.352307,115.66646 54.3806,115.68768 54.861599,115.68768 C 55.358763,115.68768 55.370891,115.69829 55.370891,116.13331 C 55.370891,116.55772 55.392109,116.57894 55.816518,116.57894 L 56.26215,116.57894 L 56.26215,118.36146 L 56.26215,120.14398 L 59.190576,120.14398 L 62.118998,120.14398 L 62.118998,118.36146 L 62.118998,116.57894 L 62.56463,116.57894 C 62.989039,116.57894 63.010262,116.55772 63.010262,116.13331 C 63.010262,115.69829 63.022386,115.68768 63.519549,115.68768 C 64.000548,115.68768 64.028841,115.66646 64.028841,115.30571 C 64.028841,114.94496 64.057138,114.92374 64.538133,114.92374 C 65.035301,114.92374 65.047424,114.91313 65.047424,114.47811 C 65.047424,114.0537 65.068647,114.03248 65.493056,114.03248 C 65.917465,114.03248 65.938684,114.01126 65.938684,113.58685 C 65.938684,113.15183 65.950812,113.14122 66.447976,113.14122 C 66.945144,113.14122 66.957267,113.13061 66.957267,112.69559 C 66.957267,112.27118 66.97849,112.24996 67.402899,112.24996 C 67.827308,112.24996 67.848527,112.27118 67.848527,112.69559 C 67.848527,113.13061 67.860655,113.14122 68.357818,113.14122 C 68.854986,113.14122 68.86711,113.15183 68.86711,113.58685 C 68.86711,114.01126 68.888333,114.03248 69.312742,114.03248 C 69.737151,114.03248 69.75837,114.0537 69.75837,114.47811 C 69.75837,114.91313 69.770497,114.92374 70.267661,114.92374 C 70.74866,114.92374 70.776953,114.94496 70.776953,115.30571 C 70.776953,115.66646 70.805246,115.68768 71.286245,115.68768 C 71.783408,115.68768 71.795536,115.69829 71.795536,116.13331 C 71.795536,116.55772 71.816759,116.57894 72.241168,116.57894 L 72.686796,116.57894 L 72.686796,118.36146 L 72.686796,120.14398 L 75.615222,120.14398 L 78.543648,120.14398 L 78.543648,118.36146 L 78.543648,116.57894 L 78.989276,116.57894 C 79.413685,116.57894 79.434908,116.55772 79.434908,116.13331 C 79.434908,115.69829 79.447035,115.68768 79.944199,115.68768 C 80.425198,115.68768 80.453491,115.66646 80.453491,115.30571 C 80.453491,114.94496 80.481784,114.92374 80.962783,114.92374 C 81.459947,114.92374 81.472074,114.91313 81.472074,114.47811 C 81.472074,114.0537 81.493293,114.03248 81.917702,114.03248 L 82.363334,114.03248 L 82.363334,113.14122 L 82.363334,112.24996 L 82.872626,112.24996 L 83.381917,112.24996 L 83.381917,113.14122 L 83.381917,114.03248 L 83.827545,114.03248 C 84.251954,114.03248 84.273177,114.0537 84.273177,114.47811 C 84.273177,114.91313 84.2853,114.92374 84.782468,114.92374 C 85.263467,114.92374 85.29176,114.94496 85.29176,115.30571 C 85.29176,115.65737 85.327127,115.68768 85.737388,115.68768 C 86.161797,115.68768 86.183019,115.7089 86.183019,116.13331 C 86.183019,116.56833 86.195143,116.57894 86.692311,116.57894 L 87.201603,116.57894 L 87.201603,121.03524 L 87.201603,125.49154 L 86.692311,125.49154 C 86.195143,125.49154 86.183019,125.50215 86.183019,125.93717 C 86.183019,126.36158 86.161797,126.3828 85.737388,126.3828 C 85.312979,126.3828 85.29176,126.40402 85.29176,126.82843 C 85.29176,127.26345 85.279632,127.27406 84.782468,127.27406 L 84.273177,127.27406 L 84.273177,144.01701 L 84.273177,160.75997 L 66.893607,160.75997 L 49.514038,160.75997 L 49.514038,144.01701 z M 61.100419,156.36733 L 61.100419,152.86596 L 61.609707,152.86596 L 62.118998,152.86596 L 62.118998,151.52906 L 62.118998,150.19217 L 62.56463,150.19217 L 63.010262,150.19217 L 63.010262,149.30091 L 63.010262,148.40965 L 63.519549,148.40965 C 64.016717,148.40965 64.028841,148.39905 64.028841,147.96402 C 64.028841,147.529 64.040969,147.5184 64.538133,147.5184 C 65.035301,147.5184 65.047424,147.50779 65.047424,147.07276 L 65.047424,146.62714 L 66.447976,146.62714 L 67.848527,146.62714 L 67.848527,147.07276 C 67.848527,147.50779 67.860655,147.5184 68.357818,147.5184 L 68.86711,147.5184 L 68.86711,148.40965 L 68.86711,149.30091 L 69.312742,149.30091 C 69.737151,149.30091 69.75837,149.32214 69.75837,149.74655 C 69.75837,150.18156 69.770497,150.19217 70.267661,150.19217 L 70.776953,150.19217 L 70.776953,151.52906 L 70.776953,152.86596 L 71.286245,152.86596 L 71.795536,152.86596 L 71.795536,156.36733 L 71.795536,159.86871 L 77.588725,159.86871 L 83.381917,159.86871 L 83.381917,144.01701 L 83.381917,128.16532 L 66.957267,128.16532 L 50.532622,128.16532 L 50.532622,144.01701 L 50.532622,159.86871 L 55.816518,159.86871 L 61.100419,159.86871 L 61.100419,156.36733 z M 65.938684,154.13918 L 65.938684,148.40965 L 65.493056,148.40965 C 65.068647,148.40965 65.047424,148.43087 65.047424,148.85528 C 65.047424,149.2903 65.035301,149.30091 64.538133,149.30091 L 64.028841,149.30091 L 64.028841,150.19217 L 64.028841,151.08344 L 63.519549,151.08344 L 63.010262,151.08344 L 63.010262,152.42032 L 63.010262,153.75722 L 62.56463,153.75722 L 62.118998,153.75722 L 62.118998,156.81297 L 62.118998,159.86871 L 64.028841,159.86871 L 65.938684,159.86871 L 65.938684,154.13918 z M 70.776953,156.81297 L 70.776953,153.75722 L 70.267661,153.75722 L 69.75837,153.75722 L 69.75837,152.42032 L 69.75837,151.08344 L 69.312742,151.08344 C 68.888333,151.08344 68.86711,151.06221 68.86711,150.63781 C 68.86711,150.20278 68.854986,150.19217 68.357818,150.19217 L 67.848527,150.19217 L 67.848527,149.30091 L 67.848527,148.40965 L 67.402899,148.40965 L 66.957267,148.40965 L 66.957267,154.13918 L 66.957267,159.86871 L 68.86711,159.86871 L 70.776953,159.86871 L 70.776953,156.81297 z M 84.273177,126.82843 C 84.273177,126.39341 84.2853,126.3828 84.782468,126.3828 C 85.279632,126.3828 85.29176,126.37219 85.29176,125.93717 C 85.29176,125.51276 85.312979,125.49154 85.737388,125.49154 C 86.161797,125.49154 86.183019,125.47032 86.183019,125.04591 L 86.183019,124.60028 L 66.893607,124.60028 L 47.604195,124.60028 L 47.604195,125.04591 C 47.604195,125.48093 47.616319,125.49154 48.113487,125.49154 C 48.610651,125.49154 48.622779,125.50215 48.622779,125.93717 C 48.622779,126.36158 48.643997,126.3828 49.068406,126.3828 C 49.492815,126.3828 49.514038,126.40402 49.514038,126.82843 L 49.514038,127.27406 L 66.893607,127.27406 L 84.273177,127.27406 L 84.273177,126.82843 z M 86.183019,121.03524 L 86.183019,118.36146 L 82.808961,118.36146 L 79.434908,118.36146 L 79.434908,119.69835 L 79.434908,121.03524 L 75.615222,121.03524 L 71.795536,121.03524 L 71.795536,119.69835 L 71.795536,118.36146 L 67.402899,118.36146 L 63.010262,118.36146 L 63.010262,119.69835 L 63.010262,121.03524 L 59.190576,121.03524 L 55.370891,121.03524 L 55.370891,119.69835 L 55.370891,118.36146 L 51.487541,118.36146 L 47.604195,118.36146 L 47.604195,121.03524 L 47.604195,123.70902 L 66.893607,123.70902 L 86.183019,123.70902 L 86.183019,121.03524 z M 55.370891,117.02457 C 55.370891,116.58955 55.358763,116.57894 54.861599,116.57894 C 54.364431,116.57894 54.352307,116.56833 54.352307,116.13331 C 54.352307,115.69829 54.340179,115.68768 53.843015,115.68768 C 53.362017,115.68768 53.333724,115.66646 53.333724,115.30571 C 53.333724,114.95406 53.298357,114.92374 52.888092,114.92374 C 52.463683,114.92374 52.442464,114.90252 52.442464,114.47811 L 52.442464,114.03248 L 51.487541,114.03248 L 50.532622,114.03248 L 50.532622,114.47811 C 50.532622,114.91313 50.520494,114.92374 50.02333,114.92374 C 49.542331,114.92374 49.514038,114.94496 49.514038,115.30571 C 49.514038,115.65737 49.478671,115.68768 49.068406,115.68768 C 48.643997,115.68768 48.622779,115.7089 48.622779,116.13331 C 48.622779,116.56833 48.610651,116.57894 48.113487,116.57894 C 47.616319,116.57894 47.604195,116.58955 47.604195,117.02457 L 47.604195,117.4702 L 51.487541,117.4702 L 55.370891,117.4702 L 55.370891,117.02457 z M 71.795536,117.02457 C 71.795536,116.58955 71.783408,116.57894 71.286245,116.57894 C 70.789081,116.57894 70.776953,116.56833 70.776953,116.13331 C 70.776953,115.69829 70.764829,115.68768 70.267661,115.68768 C 69.786667,115.68768 69.75837,115.66646 69.75837,115.30571 C 69.75837,114.95406 69.723002,114.92374 69.312742,114.92374 C 68.888333,114.92374 68.86711,114.90252 68.86711,114.47811 L 68.86711,114.03248 L 67.402899,114.03248 L 65.938684,114.03248 L 65.938684,114.47811 C 65.938684,114.90252 65.917465,114.92374 65.493056,114.92374 C 65.082792,114.92374 65.047424,114.95406 65.047424,115.30571 C 65.047424,115.66646 65.019132,115.68768 64.538133,115.68768 C 64.040969,115.68768 64.028841,115.69829 64.028841,116.13331 C 64.028841,116.56833 64.016717,116.57894 63.519549,116.57894 C 63.022386,116.57894 63.010262,116.58955 63.010262,117.02457 L 63.010262,117.4702 L 67.402899,117.4702 L 71.795536,117.4702 L 71.795536,117.02457 z M 86.183019,117.02457 C 86.183019,116.60016 86.161797,116.57894 85.737388,116.57894 C 85.312979,116.57894 85.29176,116.55772 85.29176,116.13331 C 85.29176,115.69829 85.279632,115.68768 84.782468,115.68768 C 84.301469,115.68768 84.273177,115.66646 84.273177,115.30571 C 84.273177,114.95406 84.23781,114.92374 83.827545,114.92374 C 83.403136,114.92374 83.381917,114.90252 83.381917,114.47811 C 83.381917,114.04309 83.369789,114.03248 82.872626,114.03248 C 82.375462,114.03248 82.363334,114.04309 82.363334,114.47811 C 82.363334,114.90252 82.342111,114.92374 81.917702,114.92374 C 81.507441,114.92374 81.472074,114.95406 81.472074,115.30571 C 81.472074,115.66646 81.443782,115.68768 80.962783,115.68768 C 80.465619,115.68768 80.453491,115.69829 80.453491,116.13331 C 80.453491,116.56833 80.441363,116.57894 79.944199,116.57894 C 79.447035,116.57894 79.434908,116.58955 79.434908,117.02457 L 79.434908,117.4702 L 82.808961,117.4702 L 86.183019,117.4702 L 86.183019,117.02457 z" style="fill:#000000"/>
        <path id="path5208" d="M 62.117057,156.83034 L 62.117057,153.83325 L 62.616568,153.83325 L 63.116083,153.83325 L 63.116083,152.45959 L 63.116083,151.08592 L 63.615598,151.08592 L 64.115113,151.08592 L 64.115113,150.21931 L 64.115113,149.3527 L 64.58341,149.31394 C 65.01094,149.27855 65.05511,149.23985 65.090836,148.86933 C 65.125245,148.51246 65.17423,148.46347 65.496692,148.46347 L 65.863415,148.46347 L 65.863415,154.14545 L 65.863415,159.82743 L 63.990236,159.82743 L 62.117057,159.82743 L 62.117057,156.83034 z" style="fill:#ffffff;fill-opacity:1"/>
        <path id="path5210" d="M 66.987326,154.14545 L 66.987326,148.46347 L 67.36196,148.46347 L 67.736598,148.46347 L 67.736598,149.33762 L 67.736598,150.21177 L 68.222751,150.21177 C 68.721663,150.21177 68.860504,150.34992 68.860504,150.84638 C 68.860504,151.03689 68.949968,151.08592 69.297581,151.08592 L 69.734653,151.08592 L 69.734653,152.45959 L 69.734653,153.83325 L 70.234168,153.83325 L 70.733683,153.83325 L 70.733683,156.83034 L 70.733683,159.82743 L 68.860504,159.82743 L 66.987326,159.82743 L 66.987326,154.14545 z" style="fill:#ffffff;fill-opacity:1"/>
        <path id="path5212" d="M 50.52525,144.00625 L 50.52525,128.17858 L 66.9476,128.17858 L 83.369948,128.17858 L 83.369948,144.00625 L 83.369948,159.83391 L 77.575172,159.83391 L 71.780397,159.83391 L 71.780397,156.33444 L 71.780397,152.83497 L 71.276503,152.83497 L 70.77261,152.83497 L 70.77261,151.50838 L 70.77261,150.18178 L 70.346183,150.18178 C 70.074716,150.18178 69.893095,150.161 69.846383,150.1246 C 69.794539,150.0842 69.76802,149.97035 69.756012,149.73661 C 69.746666,149.55466 69.715868,149.38268 69.687573,149.35443 C 69.659276,149.32617 69.458944,149.29201 69.242389,149.27852 L 68.848652,149.25399 L 68.848652,148.36842 L 68.848652,147.48284 L 68.392178,147.48284 C 67.847125,147.48284 67.840865,147.4769 67.840865,146.95979 L 67.840865,146.61369 L 66.420802,146.61369 L 65.000738,146.61369 L 65.000738,146.99692 C 65.000738,147.24896 64.981136,147.39559 64.943477,147.42524 C 64.911984,147.45004 64.713657,147.48299 64.502751,147.49846 C 64.291845,147.51393 64.093078,147.5483 64.061047,147.57484 C 64.026905,147.60314 63.995729,147.76315 63.985694,147.9616 C 63.976279,148.14777 63.951773,148.31692 63.931235,148.33748 C 63.910698,148.35804 63.689429,148.38194 63.439528,148.39059 L 62.985164,148.40631 L 62.985164,149.29405 L 62.985164,150.18178 L 62.527079,150.18178 L 62.068994,150.18178 L 62.068994,151.50838 L 62.068994,152.83497 L 61.5651,152.83497 L 61.061206,152.83497 L 61.061206,156.33444 L 61.061206,159.83391 L 55.793228,159.83391 L 50.52525,159.83391 L 50.52525,144.00625 z" style="fill:#ffffff;fill-opacity:1"/>
        <path id="path5214" d="M 49.518867,126.88046 C 49.518867,126.60978 49.500262,126.48179 49.455518,126.44465 C 49.420675,126.41574 49.250849,126.37952 49.078124,126.36417 C 48.905399,126.34882 48.738348,126.31598 48.706898,126.29118 C 48.67223,126.26385 48.649717,126.13525 48.649717,125.96454 C 48.649717,125.53965 48.589579,125.47964 48.163797,125.47964 C 47.660375,125.47964 47.643334,125.46386 47.643334,124.99771 L 47.643334,124.61049 L 66.901855,124.61049 L 86.160375,124.61049 L 86.160375,124.97318 C 86.160375,125.43324 86.121062,125.47964 85.731276,125.47964 C 85.571883,125.47964 85.414188,125.50488 85.373987,125.53682 C 85.325695,125.5752 85.293609,125.70309 85.276414,125.92572 C 85.262324,126.10817 85.238089,126.278 85.222563,126.30312 C 85.207037,126.32824 85.066894,126.34891 84.911133,126.34905 C 84.755368,126.34919 84.553387,126.37001 84.462286,126.39531 C 84.318236,126.43532 84.292958,126.46361 84.268374,126.61234 C 84.252826,126.70641 84.23988,126.89144 84.239601,127.02353 L 84.239098,127.26368 L 66.878982,127.26368 L 49.518867,127.26368 L 49.518867,126.88046 z" style="fill:#ffffff;fill-opacity:1"/>
        <path id="path5216" d="M 47.643334,121.0424 L 47.643334,118.38921 L 51.508761,118.38921 L 55.374189,118.38921 L 55.374189,119.71581 L 55.374189,121.0424 L 59.193872,121.0424 L 63.013555,121.0424 L 63.013555,119.71581 L 63.013555,118.38921 L 67.405046,118.38921 L 71.796538,118.38921 L 71.796538,119.71581 L 71.796538,121.0424 L 75.616221,121.0424 L 79.435904,121.0424 L 79.435904,119.71581 L 79.435904,118.38921 L 82.79814,118.38921 L 86.160375,118.38921 L 86.160375,121.0424 L 86.160375,123.6956 L 66.901855,123.6956 L 47.643334,123.6956 L 47.643334,121.0424 z" style="fill:#ffffff;fill-opacity:1"/>
        <path id="path5218" d="M 47.643334,117.09135 C 47.643334,116.83987 47.663018,116.69184 47.700515,116.66133 C 47.731964,116.63574 47.926604,116.60737 48.133049,116.5983 C 48.342883,116.58908 48.5327,116.5575 48.563504,116.5267 C 48.59381,116.4964 48.631198,116.31766 48.646588,116.1295 C 48.661977,115.94135 48.688409,115.77357 48.705326,115.75665 C 48.722242,115.73974 48.876185,115.71518 49.047421,115.70208 C 49.481865,115.66884 49.504059,115.65149 49.527554,115.32667 C 49.538489,115.17548 49.562861,115.03635 49.581712,115.0175 C 49.600562,114.99865 49.791895,114.96955 50.006894,114.95283 C 50.237835,114.93487 50.423104,114.89703 50.459633,114.86034 C 50.495114,114.82471 50.53482,114.63743 50.552806,114.42086 L 50.584148,114.04347 L 51.515338,114.04347 L 52.446528,114.04347 L 52.446528,114.42669 C 52.446528,114.88926 52.467994,114.91431 52.892094,114.94667 C 53.062166,114.95965 53.227047,114.99069 53.258496,115.01566 C 53.291353,115.04174 53.315677,115.1643 53.315677,115.30378 C 53.315677,115.63717 53.378574,115.69027 53.773414,115.69027 C 54.279786,115.69027 54.308566,115.71254 54.329155,116.12028 C 54.338731,116.3099 54.371994,116.49042 54.40309,116.52152 C 54.434972,116.5534 54.637399,116.58894 54.867394,116.60304 C 55.091672,116.61679 55.287566,116.64046 55.302714,116.65563 C 55.317861,116.67081 55.334994,116.85607 55.340786,117.06733 L 55.351317,117.45145 L 51.497325,117.46314 L 47.643334,117.47484 L 47.643334,117.09135 z" style="fill:#ffffff;fill-opacity:1"/>
        <path id="path5220" d="M 63.020287,117.08404 C 63.032026,116.79985 63.055137,116.68148 63.105044,116.64994 C 63.142784,116.62609 63.311271,116.60625 63.47946,116.60587 C 63.981403,116.60472 64.00756,116.5835 64.045668,116.14664 C 64.083748,115.71008 64.107499,115.69072 64.606161,115.68957 C 64.774349,115.68919 64.940987,115.6705 64.976464,115.64804 C 65.015171,115.62354 65.049425,115.50033 65.062113,115.33996 C 65.073743,115.19298 65.101371,115.04997 65.123509,115.02217 C 65.145646,114.99436 65.309583,114.95939 65.487811,114.94444 C 65.666038,114.9295 65.840967,114.89312 65.876539,114.8636 C 65.92286,114.82516 65.941216,114.70116 65.941216,114.42669 L 65.941216,114.04347 L 67.405046,114.04347 L 68.868877,114.04347 L 68.868877,114.42669 C 68.868877,114.88926 68.890343,114.91431 69.314443,114.94667 C 69.484513,114.95965 69.649396,114.99069 69.680845,115.01566 C 69.713702,115.04174 69.738026,115.1643 69.738026,115.30378 C 69.738026,115.63717 69.800923,115.69027 70.195763,115.69027 C 70.700507,115.69027 70.72787,115.71151 70.754328,116.12378 C 70.766647,116.31574 70.800405,116.49648 70.829346,116.52542 C 70.858287,116.55437 71.065466,116.58929 71.289743,116.60304 C 71.51402,116.61679 71.711117,116.64166 71.727734,116.6583 C 71.744352,116.67495 71.761485,116.86021 71.765807,117.07001 L 71.773666,117.45145 L 67.388906,117.46311 L 63.004148,117.47478 L 63.020287,117.08404 z" style="fill:#ffffff;fill-opacity:1"/>
        <path id="path5222" d="M 79.444806,117.0861 C 79.456013,116.87257 79.480875,116.68216 79.500052,116.66296 C 79.519232,116.64375 79.718423,116.61679 79.9427,116.60304 C 80.166973,116.58929 80.372513,116.55601 80.399447,116.52907 C 80.426386,116.50214 80.460434,116.32128 80.475114,116.12718 C 80.5066,115.7108 80.532981,115.69027 81.03668,115.69027 C 81.431521,115.69027 81.494415,115.63717 81.494415,115.30378 C 81.494415,115.1643 81.518738,115.04174 81.551596,115.01566 C 81.583046,114.99069 81.747928,114.95965 81.917998,114.94667 C 82.088077,114.9337 82.254917,114.90009 82.288768,114.872 C 82.324147,114.84264 82.362106,114.68025 82.378052,114.49005 C 82.398308,114.24841 82.427854,114.14265 82.487602,114.09792 C 82.603235,114.01136 83.265751,114.04098 83.325434,114.13538 C 83.349148,114.17289 83.368864,114.34 83.369248,114.50675 C 83.369697,114.70082 83.391608,114.8279 83.430144,114.85988 C 83.463249,114.88736 83.612491,114.92205 83.761793,114.93699 C 84.245873,114.98541 84.223247,114.96943 84.251691,115.28312 C 84.26568,115.4374 84.300428,115.58692 84.328908,115.6154 C 84.357389,115.64388 84.554878,115.67875 84.767774,115.69289 C 84.98067,115.70702 85.176658,115.74039 85.2033,115.76703 C 85.229937,115.79367 85.266666,115.97174 85.284909,116.16275 C 85.303152,116.35376 85.333727,116.52569 85.352853,116.54481 C 85.371979,116.56394 85.535763,116.58763 85.716821,116.59747 C 85.897879,116.60731 86.071745,116.63617 86.103194,116.66161 C 86.14071,116.69195 86.160375,116.83967 86.160375,117.09109 L 86.160375,117.47432 L 82.792403,117.47432 L 79.424431,117.47432 L 79.444806,117.0861 z" style="fill:#ffffff;fill-opacity:1"/>
      </g>
      <g id="g5350" transform="translate(-3.2199231,0)">
        <g transform="matrix(1.0566266,0,0,1.0948235,166.16027,-13.939993)" id="g5310">
          <path id="path5312" d="M 49.514038,144.01701 L 49.514038,127.27406 L 49.068406,127.27406 C 48.643997,127.27406 48.622779,127.25284 48.622779,126.82843 C 48.622779,126.39341 48.610651,126.3828 48.113487,126.3828 C 47.616319,126.3828 47.604195,126.37219 47.604195,125.93717 C 47.604195,125.50215 47.592067,125.49154 47.094904,125.49154 L 46.585612,125.49154 L 46.585612,121.03524 L 46.585612,116.57894 L 47.094904,116.57894 C 47.592067,116.57894 47.604195,116.56833 47.604195,116.13331 C 47.604195,115.69829 47.616319,115.68768 48.113487,115.68768 C 48.594482,115.68768 48.622779,115.66646 48.622779,115.30571 C 48.622779,114.95406 48.658146,114.92374 49.068406,114.92374 C 49.492815,114.92374 49.514038,114.90252 49.514038,114.47811 C 49.514038,114.04309 49.526162,114.03248 50.02333,114.03248 L 50.532622,114.03248 L 50.532622,113.14122 L 50.532622,112.24996 L 51.487541,112.24996 L 52.442464,112.24996 L 52.442464,113.14122 L 52.442464,114.03248 L 52.888092,114.03248 C 53.312501,114.03248 53.333724,114.0537 53.333724,114.47811 C 53.333724,114.91313 53.345847,114.92374 53.843015,114.92374 C 54.32401,114.92374 54.352307,114.94496 54.352307,115.30571 C 54.352307,115.66646 54.3806,115.68768 54.861599,115.68768 C 55.358763,115.68768 55.370891,115.69829 55.370891,116.13331 C 55.370891,116.55772 55.392109,116.57894 55.816518,116.57894 L 56.26215,116.57894 L 56.26215,118.36146 L 56.26215,120.14398 L 59.190576,120.14398 L 62.118998,120.14398 L 62.118998,118.36146 L 62.118998,116.57894 L 62.56463,116.57894 C 62.989039,116.57894 63.010262,116.55772 63.010262,116.13331 C 63.010262,115.69829 63.022386,115.68768 63.519549,115.68768 C 64.000548,115.68768 64.028841,115.66646 64.028841,115.30571 C 64.028841,114.94496 64.057138,114.92374 64.538133,114.92374 C 65.035301,114.92374 65.047424,114.91313 65.047424,114.47811 C 65.047424,114.0537 65.068647,114.03248 65.493056,114.03248 C 65.917465,114.03248 65.938684,114.01126 65.938684,113.58685 C 65.938684,113.15183 65.950812,113.14122 66.447976,113.14122 C 66.945144,113.14122 66.957267,113.13061 66.957267,112.69559 C 66.957267,112.27118 66.97849,112.24996 67.402899,112.24996 C 67.827308,112.24996 67.848527,112.27118 67.848527,112.69559 C 67.848527,113.13061 67.860655,113.14122 68.357818,113.14122 C 68.854986,113.14122 68.86711,113.15183 68.86711,113.58685 C 68.86711,114.01126 68.888333,114.03248 69.312742,114.03248 C 69.737151,114.03248 69.75837,114.0537 69.75837,114.47811 C 69.75837,114.91313 69.770497,114.92374 70.267661,114.92374 C 70.74866,114.92374 70.776953,114.94496 70.776953,115.30571 C 70.776953,115.66646 70.805246,115.68768 71.286245,115.68768 C 71.783408,115.68768 71.795536,115.69829 71.795536,116.13331 C 71.795536,116.55772 71.816759,116.57894 72.241168,116.57894 L 72.686796,116.57894 L 72.686796,118.36146 L 72.686796,120.14398 L 75.615222,120.14398 L 78.543648,120.14398 L 78.543648,118.36146 L 78.543648,116.57894 L 78.989276,116.57894 C 79.413685,116.57894 79.434908,116.55772 79.434908,116.13331 C 79.434908,115.69829 79.447035,115.68768 79.944199,115.68768 C 80.425198,115.68768 80.453491,115.66646 80.453491,115.30571 C 80.453491,114.94496 80.481784,114.92374 80.962783,114.92374 C 81.459947,114.92374 81.472074,114.91313 81.472074,114.47811 C 81.472074,114.0537 81.493293,114.03248 81.917702,114.03248 L 82.363334,114.03248 L 82.363334,113.14122 L 82.363334,112.24996 L 82.872626,112.24996 L 83.381917,112.24996 L 83.381917,113.14122 L 83.381917,114.03248 L 83.827545,114.03248 C 84.251954,114.03248 84.273177,114.0537 84.273177,114.47811 C 84.273177,114.91313 84.2853,114.92374 84.782468,114.92374 C 85.263467,114.92374 85.29176,114.94496 85.29176,115.30571 C 85.29176,115.65737 85.327127,115.68768 85.737388,115.68768 C 86.161797,115.68768 86.183019,115.7089 86.183019,116.13331 C 86.183019,116.56833 86.195143,116.57894 86.692311,116.57894 L 87.201603,116.57894 L 87.201603,121.03524 L 87.201603,125.49154 L 86.692311,125.49154 C 86.195143,125.49154 86.183019,125.50215 86.183019,125.93717 C 86.183019,126.36158 86.161797,126.3828 85.737388,126.3828 C 85.312979,126.3828 85.29176,126.40402 85.29176,126.82843 C 85.29176,127.26345 85.279632,127.27406 84.782468,127.27406 L 84.273177,127.27406 L 84.273177,144.01701 L 84.273177,160.75997 L 66.893607,160.75997 L 49.514038,160.75997 L 49.514038,144.01701 z M 61.100419,156.36733 L 61.100419,152.86596 L 61.609707,152.86596 L 62.118998,152.86596 L 62.118998,151.52906 L 62.118998,150.19217 L 62.56463,150.19217 L 63.010262,150.19217 L 63.010262,149.30091 L 63.010262,148.40965 L 63.519549,148.40965 C 64.016717,148.40965 64.028841,148.39905 64.028841,147.96402 C 64.028841,147.529 64.040969,147.5184 64.538133,147.5184 C 65.035301,147.5184 65.047424,147.50779 65.047424,147.07276 L 65.047424,146.62714 L 66.447976,146.62714 L 67.848527,146.62714 L 67.848527,147.07276 C 67.848527,147.50779 67.860655,147.5184 68.357818,147.5184 L 68.86711,147.5184 L 68.86711,148.40965 L 68.86711,149.30091 L 69.312742,149.30091 C 69.737151,149.30091 69.75837,149.32214 69.75837,149.74655 C 69.75837,150.18156 69.770497,150.19217 70.267661,150.19217 L 70.776953,150.19217 L 70.776953,151.52906 L 70.776953,152.86596 L 71.286245,152.86596 L 71.795536,152.86596 L 71.795536,156.36733 L 71.795536,159.86871 L 77.588725,159.86871 L 83.381917,159.86871 L 83.381917,144.01701 L 83.381917,128.16532 L 66.957267,128.16532 L 50.532622,128.16532 L 50.532622,144.01701 L 50.532622,159.86871 L 55.816518,159.86871 L 61.100419,159.86871 L 61.100419,156.36733 z M 65.938684,154.13918 L 65.938684,148.40965 L 65.493056,148.40965 C 65.068647,148.40965 65.047424,148.43087 65.047424,148.85528 C 65.047424,149.2903 65.035301,149.30091 64.538133,149.30091 L 64.028841,149.30091 L 64.028841,150.19217 L 64.028841,151.08344 L 63.519549,151.08344 L 63.010262,151.08344 L 63.010262,152.42032 L 63.010262,153.75722 L 62.56463,153.75722 L 62.118998,153.75722 L 62.118998,156.81297 L 62.118998,159.86871 L 64.028841,159.86871 L 65.938684,159.86871 L 65.938684,154.13918 z M 70.776953,156.81297 L 70.776953,153.75722 L 70.267661,153.75722 L 69.75837,153.75722 L 69.75837,152.42032 L 69.75837,151.08344 L 69.312742,151.08344 C 68.888333,151.08344 68.86711,151.06221 68.86711,150.63781 C 68.86711,150.20278 68.854986,150.19217 68.357818,150.19217 L 67.848527,150.19217 L 67.848527,149.30091 L 67.848527,148.40965 L 67.402899,148.40965 L 66.957267,148.40965 L 66.957267,154.13918 L 66.957267,159.86871 L 68.86711,159.86871 L 70.776953,159.86871 L 70.776953,156.81297 z M 84.273177,126.82843 C 84.273177,126.39341 84.2853,126.3828 84.782468,126.3828 C 85.279632,126.3828 85.29176,126.37219 85.29176,125.93717 C 85.29176,125.51276 85.312979,125.49154 85.737388,125.49154 C 86.161797,125.49154 86.183019,125.47032 86.183019,125.04591 L 86.183019,124.60028 L 66.893607,124.60028 L 47.604195,124.60028 L 47.604195,125.04591 C 47.604195,125.48093 47.616319,125.49154 48.113487,125.49154 C 48.610651,125.49154 48.622779,125.50215 48.622779,125.93717 C 48.622779,126.36158 48.643997,126.3828 49.068406,126.3828 C 49.492815,126.3828 49.514038,126.40402 49.514038,126.82843 L 49.514038,127.27406 L 66.893607,127.27406 L 84.273177,127.27406 L 84.273177,126.82843 z M 86.183019,121.03524 L 86.183019,118.36146 L 82.808961,118.36146 L 79.434908,118.36146 L 79.434908,119.69835 L 79.434908,121.03524 L 75.615222,121.03524 L 71.795536,121.03524 L 71.795536,119.69835 L 71.795536,118.36146 L 67.402899,118.36146 L 63.010262,118.36146 L 63.010262,119.69835 L 63.010262,121.03524 L 59.190576,121.03524 L 55.370891,121.03524 L 55.370891,119.69835 L 55.370891,118.36146 L 51.487541,118.36146 L 47.604195,118.36146 L 47.604195,121.03524 L 47.604195,123.70902 L 66.893607,123.70902 L 86.183019,123.70902 L 86.183019,121.03524 z M 55.370891,117.02457 C 55.370891,116.58955 55.358763,116.57894 54.861599,116.57894 C 54.364431,116.57894 54.352307,116.56833 54.352307,116.13331 C 54.352307,115.69829 54.340179,115.68768 53.843015,115.68768 C 53.362017,115.68768 53.333724,115.66646 53.333724,115.30571 C 53.333724,114.95406 53.298357,114.92374 52.888092,114.92374 C 52.463683,114.92374 52.442464,114.90252 52.442464,114.47811 L 52.442464,114.03248 L 51.487541,114.03248 L 50.532622,114.03248 L 50.532622,114.47811 C 50.532622,114.91313 50.520494,114.92374 50.02333,114.92374 C 49.542331,114.92374 49.514038,114.94496 49.514038,115.30571 C 49.514038,115.65737 49.478671,115.68768 49.068406,115.68768 C 48.643997,115.68768 48.622779,115.7089 48.622779,116.13331 C 48.622779,116.56833 48.610651,116.57894 48.113487,116.57894 C 47.616319,116.57894 47.604195,116.58955 47.604195,117.02457 L 47.604195,117.4702 L 51.487541,117.4702 L 55.370891,117.4702 L 55.370891,117.02457 z M 71.795536,117.02457 C 71.795536,116.58955 71.783408,116.57894 71.286245,116.57894 C 70.789081,116.57894 70.776953,116.56833 70.776953,116.13331 C 70.776953,115.69829 70.764829,115.68768 70.267661,115.68768 C 69.786667,115.68768 69.75837,115.66646 69.75837,115.30571 C 69.75837,114.95406 69.723002,114.92374 69.312742,114.92374 C 68.888333,114.92374 68.86711,114.90252 68.86711,114.47811 L 68.86711,114.03248 L 67.402899,114.03248 L 65.938684,114.03248 L 65.938684,114.47811 C 65.938684,114.90252 65.917465,114.92374 65.493056,114.92374 C 65.082792,114.92374 65.047424,114.95406 65.047424,115.30571 C 65.047424,115.66646 65.019132,115.68768 64.538133,115.68768 C 64.040969,115.68768 64.028841,115.69829 64.028841,116.13331 C 64.028841,116.56833 64.016717,116.57894 63.519549,116.57894 C 63.022386,116.57894 63.010262,116.58955 63.010262,117.02457 L 63.010262,117.4702 L 67.402899,117.4702 L 71.795536,117.4702 L 71.795536,117.02457 z M 86.183019,117.02457 C 86.183019,116.60016 86.161797,116.57894 85.737388,116.57894 C 85.312979,116.57894 85.29176,116.55772 85.29176,116.13331 C 85.29176,115.69829 85.279632,115.68768 84.782468,115.68768 C 84.301469,115.68768 84.273177,115.66646 84.273177,115.30571 C 84.273177,114.95406 84.23781,114.92374 83.827545,114.92374 C 83.403136,114.92374 83.381917,114.90252 83.381917,114.47811 C 83.381917,114.04309 83.369789,114.03248 82.872626,114.03248 C 82.375462,114.03248 82.363334,114.04309 82.363334,114.47811 C 82.363334,114.90252 82.342111,114.92374 81.917702,114.92374 C 81.507441,114.92374 81.472074,114.95406 81.472074,115.30571 C 81.472074,115.66646 81.443782,115.68768 80.962783,115.68768 C 80.465619,115.68768 80.453491,115.69829 80.453491,116.13331 C 80.453491,116.56833 80.441363,116.57894 79.944199,116.57894 C 79.447035,116.57894 79.434908,116.58955 79.434908,117.02457 L 79.434908,117.4702 L 82.808961,117.4702 L 86.183019,117.4702 L 86.183019,117.02457 z" style="fill:#000000"/>
          <path id="path5314" d="M 62.117057,156.83034 L 62.117057,153.83325 L 62.616568,153.83325 L 63.116083,153.83325 L 63.116083,152.45959 L 63.116083,151.08592 L 63.615598,151.08592 L 64.115113,151.08592 L 64.115113,150.21931 L 64.115113,149.3527 L 64.58341,149.31394 C 65.01094,149.27855 65.05511,149.23985 65.090836,148.86933 C 65.125245,148.51246 65.17423,148.46347 65.496692,148.46347 L 65.863415,148.46347 L 65.863415,154.14545 L 65.863415,159.82743 L 63.990236,159.82743 L 62.117057,159.82743 L 62.117057,156.83034 z" style="fill:#ffffff;fill-opacity:1"/>
          <path id="path5316" d="M 66.987326,154.14545 L 66.987326,148.46347 L 67.36196,148.46347 L 67.736598,148.46347 L 67.736598,149.33762 L 67.736598,150.21177 L 68.222751,150.21177 C 68.721663,150.21177 68.860504,150.34992 68.860504,150.84638 C 68.860504,151.03689 68.949968,151.08592 69.297581,151.08592 L 69.734653,151.08592 L 69.734653,152.45959 L 69.734653,153.83325 L 70.234168,153.83325 L 70.733683,153.83325 L 70.733683,156.83034 L 70.733683,159.82743 L 68.860504,159.82743 L 66.987326,159.82743 L 66.987326,154.14545 z" style="fill:#ffffff;fill-opacity:1"/>
          <path id="path5318" d="M 50.52525,144.00625 L 50.52525,128.17858 L 66.9476,128.17858 L 83.369948,128.17858 L 83.369948,144.00625 L 83.369948,159.83391 L 77.575172,159.83391 L 71.780397,159.83391 L 71.780397,156.33444 L 71.780397,152.83497 L 71.276503,152.83497 L 70.77261,152.83497 L 70.77261,151.50838 L 70.77261,150.18178 L 70.346183,150.18178 C 70.074716,150.18178 69.893095,150.161 69.846383,150.1246 C 69.794539,150.0842 69.76802,149.97035 69.756012,149.73661 C 69.746666,149.55466 69.715868,149.38268 69.687573,149.35443 C 69.659276,149.32617 69.458944,149.29201 69.242389,149.27852 L 68.848652,149.25399 L 68.848652,148.36842 L 68.848652,147.48284 L 68.392178,147.48284 C 67.847125,147.48284 67.840865,147.4769 67.840865,146.95979 L 67.840865,146.61369 L 66.420802,146.61369 L 65.000738,146.61369 L 65.000738,146.99692 C 65.000738,147.24896 64.981136,147.39559 64.943477,147.42524 C 64.911984,147.45004 64.713657,147.48299 64.502751,147.49846 C 64.291845,147.51393 64.093078,147.5483 64.061047,147.57484 C 64.026905,147.60314 63.995729,147.76315 63.985694,147.9616 C 63.976279,148.14777 63.951773,148.31692 63.931235,148.33748 C 63.910698,148.35804 63.689429,148.38194 63.439528,148.39059 L 62.985164,148.40631 L 62.985164,149.29405 L 62.985164,150.18178 L 62.527079,150.18178 L 62.068994,150.18178 L 62.068994,151.50838 L 62.068994,152.83497 L 61.5651,152.83497 L 61.061206,152.83497 L 61.061206,156.33444 L 61.061206,159.83391 L 55.793228,159.83391 L 50.52525,159.83391 L 50.52525,144.00625 z" style="fill:#ffffff;fill-opacity:1"/>
          <path id="path5320" d="M 49.518867,126.88046 C 49.518867,126.60978 49.500262,126.48179 49.455518,126.44465 C 49.420675,126.41574 49.250849,126.37952 49.078124,126.36417 C 48.905399,126.34882 48.738348,126.31598 48.706898,126.29118 C 48.67223,126.26385 48.649717,126.13525 48.649717,125.96454 C 48.649717,125.53965 48.589579,125.47964 48.163797,125.47964 C 47.660375,125.47964 47.643334,125.46386 47.643334,124.99771 L 47.643334,124.61049 L 66.901855,124.61049 L 86.160375,124.61049 L 86.160375,124.97318 C 86.160375,125.43324 86.121062,125.47964 85.731276,125.47964 C 85.571883,125.47964 85.414188,125.50488 85.373987,125.53682 C 85.325695,125.5752 85.293609,125.70309 85.276414,125.92572 C 85.262324,126.10817 85.238089,126.278 85.222563,126.30312 C 85.207037,126.32824 85.066894,126.34891 84.911133,126.34905 C 84.755368,126.34919 84.553387,126.37001 84.462286,126.39531 C 84.318236,126.43532 84.292958,126.46361 84.268374,126.61234 C 84.252826,126.70641 84.23988,126.89144 84.239601,127.02353 L 84.239098,127.26368 L 66.878982,127.26368 L 49.518867,127.26368 L 49.518867,126.88046 z" style="fill:#ffffff;fill-opacity:1"/>
          <path id="path5322" d="M 47.643334,121.0424 L 47.643334,118.38921 L 51.508761,118.38921 L 55.374189,118.38921 L 55.374189,119.71581 L 55.374189,121.0424 L 59.193872,121.0424 L 63.013555,121.0424 L 63.013555,119.71581 L 63.013555,118.38921 L 67.405046,118.38921 L 71.796538,118.38921 L 71.796538,119.71581 L 71.796538,121.0424 L 75.616221,121.0424 L 79.435904,121.0424 L 79.435904,119.71581 L 79.435904,118.38921 L 82.79814,118.38921 L 86.160375,118.38921 L 86.160375,121.0424 L 86.160375,123.6956 L 66.901855,123.6956 L 47.643334,123.6956 L 47.643334,121.0424 z" style="fill:#ffffff;fill-opacity:1"/>
          <path id="path5324" d="M 47.643334,117.09135 C 47.643334,116.83987 47.663018,116.69184 47.700515,116.66133 C 47.731964,116.63574 47.926604,116.60737 48.133049,116.5983 C 48.342883,116.58908 48.5327,116.5575 48.563504,116.5267 C 48.59381,116.4964 48.631198,116.31766 48.646588,116.1295 C 48.661977,115.94135 48.688409,115.77357 48.705326,115.75665 C 48.722242,115.73974 48.876185,115.71518 49.047421,115.70208 C 49.481865,115.66884 49.504059,115.65149 49.527554,115.32667 C 49.538489,115.17548 49.562861,115.03635 49.581712,115.0175 C 49.600562,114.99865 49.791895,114.96955 50.006894,114.95283 C 50.237835,114.93487 50.423104,114.89703 50.459633,114.86034 C 50.495114,114.82471 50.53482,114.63743 50.552806,114.42086 L 50.584148,114.04347 L 51.515338,114.04347 L 52.446528,114.04347 L 52.446528,114.42669 C 52.446528,114.88926 52.467994,114.91431 52.892094,114.94667 C 53.062166,114.95965 53.227047,114.99069 53.258496,115.01566 C 53.291353,115.04174 53.315677,115.1643 53.315677,115.30378 C 53.315677,115.63717 53.378574,115.69027 53.773414,115.69027 C 54.279786,115.69027 54.308566,115.71254 54.329155,116.12028 C 54.338731,116.3099 54.371994,116.49042 54.40309,116.52152 C 54.434972,116.5534 54.637399,116.58894 54.867394,116.60304 C 55.091672,116.61679 55.287566,116.64046 55.302714,116.65563 C 55.317861,116.67081 55.334994,116.85607 55.340786,117.06733 L 55.351317,117.45145 L 51.497325,117.46314 L 47.643334,117.47484 L 47.643334,117.09135 z" style="fill:#ffffff;fill-opacity:1"/>
          <path id="path5326" d="M 63.020287,117.08404 C 63.032026,116.79985 63.055137,116.68148 63.105044,116.64994 C 63.142784,116.62609 63.311271,116.60625 63.47946,116.60587 C 63.981403,116.60472 64.00756,116.5835 64.045668,116.14664 C 64.083748,115.71008 64.107499,115.69072 64.606161,115.68957 C 64.774349,115.68919 64.940987,115.6705 64.976464,115.64804 C 65.015171,115.62354 65.049425,115.50033 65.062113,115.33996 C 65.073743,115.19298 65.101371,115.04997 65.123509,115.02217 C 65.145646,114.99436 65.309583,114.95939 65.487811,114.94444 C 65.666038,114.9295 65.840967,114.89312 65.876539,114.8636 C 65.92286,114.82516 65.941216,114.70116 65.941216,114.42669 L 65.941216,114.04347 L 67.405046,114.04347 L 68.868877,114.04347 L 68.868877,114.42669 C 68.868877,114.88926 68.890343,114.91431 69.314443,114.94667 C 69.484513,114.95965 69.649396,114.99069 69.680845,115.01566 C 69.713702,115.04174 69.738026,115.1643 69.738026,115.30378 C 69.738026,115.63717 69.800923,115.69027 70.195763,115.69027 C 70.700507,115.69027 70.72787,115.71151 70.754328,116.12378 C 70.766647,116.31574 70.800405,116.49648 70.829346,116.52542 C 70.858287,116.55437 71.065466,116.58929 71.289743,116.60304 C 71.51402,116.61679 71.711117,116.64166 71.727734,116.6583 C 71.744352,116.67495 71.761485,116.86021 71.765807,117.07001 L 71.773666,117.45145 L 67.388906,117.46311 L 63.004148,117.47478 L 63.020287,117.08404 z" style="fill:#ffffff;fill-opacity:1"/>
          <path id="path5328" d="M 79.444806,117.0861 C 79.456013,116.87257 79.480875,116.68216 79.500052,116.66296 C 79.519232,116.64375 79.718423,116.61679 79.9427,116.60304 C 80.166973,116.58929 80.372513,116.55601 80.399447,116.52907 C 80.426386,116.50214 80.460434,116.32128 80.475114,116.12718 C 80.5066,115.7108 80.532981,115.69027 81.03668,115.69027 C 81.431521,115.69027 81.494415,115.63717 81.494415,115.30378 C 81.494415,115.1643 81.518738,115.04174 81.551596,115.01566 C 81.583046,114.99069 81.747928,114.95965 81.917998,114.94667 C 82.088077,114.9337 82.254917,114.90009 82.288768,114.872 C 82.324147,114.84264 82.362106,114.68025 82.378052,114.49005 C 82.398308,114.24841 82.427854,114.14265 82.487602,114.09792 C 82.603235,114.01136 83.265751,114.04098 83.325434,114.13538 C 83.349148,114.17289 83.368864,114.34 83.369248,114.50675 C 83.369697,114.70082 83.391608,114.8279 83.430144,114.85988 C 83.463249,114.88736 83.612491,114.92205 83.761793,114.93699 C 84.245873,114.98541 84.223247,114.96943 84.251691,115.28312 C 84.26568,115.4374 84.300428,115.58692 84.328908,115.6154 C 84.357389,115.64388 84.554878,115.67875 84.767774,115.69289 C 84.98067,115.70702 85.176658,115.74039 85.2033,115.76703 C 85.229937,115.79367 85.266666,115.97174 85.284909,116.16275 C 85.303152,116.35376 85.333727,116.52569 85.352853,116.54481 C 85.371979,116.56394 85.535763,116.58763 85.716821,116.59747 C 85.897879,116.60731 86.071745,116.63617 86.103194,116.66161 C 86.14071,116.69195 86.160375,116.83967 86.160375,117.09109 L 86.160375,117.47432 L 82.792403,117.47432 L 79.424431,117.47432 L 79.444806,117.0861 z" style="fill:#ffffff;fill-opacity:1"/>
        </g>
        <g id="g5330" transform="matrix(1.0566266,0,0,1.0948235,13.903995,-13.939993)">
          <path style="fill:#000000" d="M 49.514038,144.01701 L 49.514038,127.27406 L 49.068406,127.27406 C 48.643997,127.27406 48.622779,127.25284 48.622779,126.82843 C 48.622779,126.39341 48.610651,126.3828 48.113487,126.3828 C 47.616319,126.3828 47.604195,126.37219 47.604195,125.93717 C 47.604195,125.50215 47.592067,125.49154 47.094904,125.49154 L 46.585612,125.49154 L 46.585612,121.03524 L 46.585612,116.57894 L 47.094904,116.57894 C 47.592067,116.57894 47.604195,116.56833 47.604195,116.13331 C 47.604195,115.69829 47.616319,115.68768 48.113487,115.68768 C 48.594482,115.68768 48.622779,115.66646 48.622779,115.30571 C 48.622779,114.95406 48.658146,114.92374 49.068406,114.92374 C 49.492815,114.92374 49.514038,114.90252 49.514038,114.47811 C 49.514038,114.04309 49.526162,114.03248 50.02333,114.03248 L 50.532622,114.03248 L 50.532622,113.14122 L 50.532622,112.24996 L 51.487541,112.24996 L 52.442464,112.24996 L 52.442464,113.14122 L 52.442464,114.03248 L 52.888092,114.03248 C 53.312501,114.03248 53.333724,114.0537 53.333724,114.47811 C 53.333724,114.91313 53.345847,114.92374 53.843015,114.92374 C 54.32401,114.92374 54.352307,114.94496 54.352307,115.30571 C 54.352307,115.66646 54.3806,115.68768 54.861599,115.68768 C 55.358763,115.68768 55.370891,115.69829 55.370891,116.13331 C 55.370891,116.55772 55.392109,116.57894 55.816518,116.57894 L 56.26215,116.57894 L 56.26215,118.36146 L 56.26215,120.14398 L 59.190576,120.14398 L 62.118998,120.14398 L 62.118998,118.36146 L 62.118998,116.57894 L 62.56463,116.57894 C 62.989039,116.57894 63.010262,116.55772 63.010262,116.13331 C 63.010262,115.69829 63.022386,115.68768 63.519549,115.68768 C 64.000548,115.68768 64.028841,115.66646 64.028841,115.30571 C 64.028841,114.94496 64.057138,114.92374 64.538133,114.92374 C 65.035301,114.92374 65.047424,114.91313 65.047424,114.47811 C 65.047424,114.0537 65.068647,114.03248 65.493056,114.03248 C 65.917465,114.03248 65.938684,114.01126 65.938684,113.58685 C 65.938684,113.15183 65.950812,113.14122 66.447976,113.14122 C 66.945144,113.14122 66.957267,113.13061 66.957267,112.69559 C 66.957267,112.27118 66.97849,112.24996 67.402899,112.24996 C 67.827308,112.24996 67.848527,112.27118 67.848527,112.69559 C 67.848527,113.13061 67.860655,113.14122 68.357818,113.14122 C 68.854986,113.14122 68.86711,113.15183 68.86711,113.58685 C 68.86711,114.01126 68.888333,114.03248 69.312742,114.03248 C 69.737151,114.03248 69.75837,114.0537 69.75837,114.47811 C 69.75837,114.91313 69.770497,114.92374 70.267661,114.92374 C 70.74866,114.92374 70.776953,114.94496 70.776953,115.30571 C 70.776953,115.66646 70.805246,115.68768 71.286245,115.68768 C 71.783408,115.68768 71.795536,115.69829 71.795536,116.13331 C 71.795536,116.55772 71.816759,116.57894 72.241168,116.57894 L 72.686796,116.57894 L 72.686796,118.36146 L 72.686796,120.14398 L 75.615222,120.14398 L 78.543648,120.14398 L 78.543648,118.36146 L 78.543648,116.57894 L 78.989276,116.57894 C 79.413685,116.57894 79.434908,116.55772 79.434908,116.13331 C 79.434908,115.69829 79.447035,115.68768 79.944199,115.68768 C 80.425198,115.68768 80.453491,115.66646 80.453491,115.30571 C 80.453491,114.94496 80.481784,114.92374 80.962783,114.92374 C 81.459947,114.92374 81.472074,114.91313 81.472074,114.47811 C 81.472074,114.0537 81.493293,114.03248 81.917702,114.03248 L 82.363334,114.03248 L 82.363334,113.14122 L 82.363334,112.24996 L 82.872626,112.24996 L 83.381917,112.24996 L 83.381917,113.14122 L 83.381917,114.03248 L 83.827545,114.03248 C 84.251954,114.03248 84.273177,114.0537 84.273177,114.47811 C 84.273177,114.91313 84.2853,114.92374 84.782468,114.92374 C 85.263467,114.92374 85.29176,114.94496 85.29176,115.30571 C 85.29176,115.65737 85.327127,115.68768 85.737388,115.68768 C 86.161797,115.68768 86.183019,115.7089 86.183019,116.13331 C 86.183019,116.56833 86.195143,116.57894 86.692311,116.57894 L 87.201603,116.57894 L 87.201603,121.03524 L 87.201603,125.49154 L 86.692311,125.49154 C 86.195143,125.49154 86.183019,125.50215 86.183019,125.93717 C 86.183019,126.36158 86.161797,126.3828 85.737388,126.3828 C 85.312979,126.3828 85.29176,126.40402 85.29176,126.82843 C 85.29176,127.26345 85.279632,127.27406 84.782468,127.27406 L 84.273177,127.27406 L 84.273177,144.01701 L 84.273177,160.75997 L 66.893607,160.75997 L 49.514038,160.75997 L 49.514038,144.01701 z M 61.100419,156.36733 L 61.100419,152.86596 L 61.609707,152.86596 L 62.118998,152.86596 L 62.118998,151.52906 L 62.118998,150.19217 L 62.56463,150.19217 L 63.010262,150.19217 L 63.010262,149.30091 L 63.010262,148.40965 L 63.519549,148.40965 C 64.016717,148.40965 64.028841,148.39905 64.028841,147.96402 C 64.028841,147.529 64.040969,147.5184 64.538133,147.5184 C 65.035301,147.5184 65.047424,147.50779 65.047424,147.07276 L 65.047424,146.62714 L 66.447976,146.62714 L 67.848527,146.62714 L 67.848527,147.07276 C 67.848527,147.50779 67.860655,147.5184 68.357818,147.5184 L 68.86711,147.5184 L 68.86711,148.40965 L 68.86711,149.30091 L 69.312742,149.30091 C 69.737151,149.30091 69.75837,149.32214 69.75837,149.74655 C 69.75837,150.18156 69.770497,150.19217 70.267661,150.19217 L 70.776953,150.19217 L 70.776953,151.52906 L 70.776953,152.86596 L 71.286245,152.86596 L 71.795536,152.86596 L 71.795536,156.36733 L 71.795536,159.86871 L 77.588725,159.86871 L 83.381917,159.86871 L 83.381917,144.01701 L 83.381917,128.16532 L 66.957267,128.16532 L 50.532622,128.16532 L 50.532622,144.01701 L 50.532622,159.86871 L 55.816518,159.86871 L 61.100419,159.86871 L 61.100419,156.36733 z M 65.938684,154.13918 L 65.938684,148.40965 L 65.493056,148.40965 C 65.068647,148.40965 65.047424,148.43087 65.047424,148.85528 C 65.047424,149.2903 65.035301,149.30091 64.538133,149.30091 L 64.028841,149.30091 L 64.028841,150.19217 L 64.028841,151.08344 L 63.519549,151.08344 L 63.010262,151.08344 L 63.010262,152.42032 L 63.010262,153.75722 L 62.56463,153.75722 L 62.118998,153.75722 L 62.118998,156.81297 L 62.118998,159.86871 L 64.028841,159.86871 L 65.938684,159.86871 L 65.938684,154.13918 z M 70.776953,156.81297 L 70.776953,153.75722 L 70.267661,153.75722 L 69.75837,153.75722 L 69.75837,152.42032 L 69.75837,151.08344 L 69.312742,151.08344 C 68.888333,151.08344 68.86711,151.06221 68.86711,150.63781 C 68.86711,150.20278 68.854986,150.19217 68.357818,150.19217 L 67.848527,150.19217 L 67.848527,149.30091 L 67.848527,148.40965 L 67.402899,148.40965 L 66.957267,148.40965 L 66.957267,154.13918 L 66.957267,159.86871 L 68.86711,159.86871 L 70.776953,159.86871 L 70.776953,156.81297 z M 84.273177,126.82843 C 84.273177,126.39341 84.2853,126.3828 84.782468,126.3828 C 85.279632,126.3828 85.29176,126.37219 85.29176,125.93717 C 85.29176,125.51276 85.312979,125.49154 85.737388,125.49154 C 86.161797,125.49154 86.183019,125.47032 86.183019,125.04591 L 86.183019,124.60028 L 66.893607,124.60028 L 47.604195,124.60028 L 47.604195,125.04591 C 47.604195,125.48093 47.616319,125.49154 48.113487,125.49154 C 48.610651,125.49154 48.622779,125.50215 48.622779,125.93717 C 48.622779,126.36158 48.643997,126.3828 49.068406,126.3828 C 49.492815,126.3828 49.514038,126.40402 49.514038,126.82843 L 49.514038,127.27406 L 66.893607,127.27406 L 84.273177,127.27406 L 84.273177,126.82843 z M 86.183019,121.03524 L 86.183019,118.36146 L 82.808961,118.36146 L 79.434908,118.36146 L 79.434908,119.69835 L 79.434908,121.03524 L 75.615222,121.03524 L 71.795536,121.03524 L 71.795536,119.69835 L 71.795536,118.36146 L 67.402899,118.36146 L 63.010262,118.36146 L 63.010262,119.69835 L 63.010262,121.03524 L 59.190576,121.03524 L 55.370891,121.03524 L 55.370891,119.69835 L 55.370891,118.36146 L 51.487541,118.36146 L 47.604195,118.36146 L 47.604195,121.03524 L 47.604195,123.70902 L 66.893607,123.70902 L 86.183019,123.70902 L 86.183019,121.03524 z M 55.370891,117.02457 C 55.370891,116.58955 55.358763,116.57894 54.861599,116.57894 C 54.364431,116.57894 54.352307,116.56833 54.352307,116.13331 C 54.352307,115.69829 54.340179,115.68768 53.843015,115.68768 C 53.362017,115.68768 53.333724,115.66646 53.333724,115.30571 C 53.333724,114.95406 53.298357,114.92374 52.888092,114.92374 C 52.463683,114.92374 52.442464,114.90252 52.442464,114.47811 L 52.442464,114.03248 L 51.487541,114.03248 L 50.532622,114.03248 L 50.532622,114.47811 C 50.532622,114.91313 50.520494,114.92374 50.02333,114.92374 C 49.542331,114.92374 49.514038,114.94496 49.514038,115.30571 C 49.514038,115.65737 49.478671,115.68768 49.068406,115.68768 C 48.643997,115.68768 48.622779,115.7089 48.622779,116.13331 C 48.622779,116.56833 48.610651,116.57894 48.113487,116.57894 C 47.616319,116.57894 47.604195,116.58955 47.604195,117.02457 L 47.604195,117.4702 L 51.487541,117.4702 L 55.370891,117.4702 L 55.370891,117.02457 z M 71.795536,117.02457 C 71.795536,116.58955 71.783408,116.57894 71.286245,116.57894 C 70.789081,116.57894 70.776953,116.56833 70.776953,116.13331 C 70.776953,115.69829 70.764829,115.68768 70.267661,115.68768 C 69.786667,115.68768 69.75837,115.66646 69.75837,115.30571 C 69.75837,114.95406 69.723002,114.92374 69.312742,114.92374 C 68.888333,114.92374 68.86711,114.90252 68.86711,114.47811 L 68.86711,114.03248 L 67.402899,114.03248 L 65.938684,114.03248 L 65.938684,114.47811 C 65.938684,114.90252 65.917465,114.92374 65.493056,114.92374 C 65.082792,114.92374 65.047424,114.95406 65.047424,115.30571 C 65.047424,115.66646 65.019132,115.68768 64.538133,115.68768 C 64.040969,115.68768 64.028841,115.69829 64.028841,116.13331 C 64.028841,116.56833 64.016717,116.57894 63.519549,116.57894 C 63.022386,116.57894 63.010262,116.58955 63.010262,117.02457 L 63.010262,117.4702 L 67.402899,117.4702 L 71.795536,117.4702 L 71.795536,117.02457 z M 86.183019,117.02457 C 86.183019,116.60016 86.161797,116.57894 85.737388,116.57894 C 85.312979,116.57894 85.29176,116.55772 85.29176,116.13331 C 85.29176,115.69829 85.279632,115.68768 84.782468,115.68768 C 84.301469,115.68768 84.273177,115.66646 84.273177,115.30571 C 84.273177,114.95406 84.23781,114.92374 83.827545,114.92374 C 83.403136,114.92374 83.381917,114.90252 83.381917,114.47811 C 83.381917,114.04309 83.369789,114.03248 82.872626,114.03248 C 82.375462,114.03248 82.363334,114.04309 82.363334,114.47811 C 82.363334,114.90252 82.342111,114.92374 81.917702,114.92374 C 81.507441,114.92374 81.472074,114.95406 81.472074,115.30571 C 81.472074,115.66646 81.443782,115.68768 80.962783,115.68768 C 80.465619,115.68768 80.453491,115.69829 80.453491,116.13331 C 80.453491,116.56833 80.441363,116.57894 79.944199,116.57894 C 79.447035,116.57894 79.434908,116.58955 79.434908,117.02457 L 79.434908,117.4702 L 82.808961,117.4702 L 86.183019,117.4702 L 86.183019,117.02457 z" id="path5332"/>
          <path style="fill:#ffffff;fill-opacity:1" d="M 62.117057,156.83034 L 62.117057,153.83325 L 62.616568,153.83325 L 63.116083,153.83325 L 63.116083,152.45959 L 63.116083,151.08592 L 63.615598,151.08592 L 64.115113,151.08592 L 64.115113,150.21931 L 64.115113,149.3527 L 64.58341,149.31394 C 65.01094,149.27855 65.05511,149.23985 65.090836,148.86933 C 65.125245,148.51246 65.17423,148.46347 65.496692,148.46347 L 65.863415,148.46347 L 65.863415,154.14545 L 65.863415,159.82743 L 63.990236,159.82743 L 62.117057,159.82743 L 62.117057,156.83034 z" id="path5334"/>
          <path style="fill:#ffffff;fill-opacity:1" d="M 66.987326,154.14545 L 66.987326,148.46347 L 67.36196,148.46347 L 67.736598,148.46347 L 67.736598,149.33762 L 67.736598,150.21177 L 68.222751,150.21177 C 68.721663,150.21177 68.860504,150.34992 68.860504,150.84638 C 68.860504,151.03689 68.949968,151.08592 69.297581,151.08592 L 69.734653,151.08592 L 69.734653,152.45959 L 69.734653,153.83325 L 70.234168,153.83325 L 70.733683,153.83325 L 70.733683,156.83034 L 70.733683,159.82743 L 68.860504,159.82743 L 66.987326,159.82743 L 66.987326,154.14545 z" id="path5336"/>
          <path style="fill:#ffffff;fill-opacity:1" d="M 50.52525,144.00625 L 50.52525,128.17858 L 66.9476,128.17858 L 83.369948,128.17858 L 83.369948,144.00625 L 83.369948,159.83391 L 77.575172,159.83391 L 71.780397,159.83391 L 71.780397,156.33444 L 71.780397,152.83497 L 71.276503,152.83497 L 70.77261,152.83497 L 70.77261,151.50838 L 70.77261,150.18178 L 70.346183,150.18178 C 70.074716,150.18178 69.893095,150.161 69.846383,150.1246 C 69.794539,150.0842 69.76802,149.97035 69.756012,149.73661 C 69.746666,149.55466 69.715868,149.38268 69.687573,149.35443 C 69.659276,149.32617 69.458944,149.29201 69.242389,149.27852 L 68.848652,149.25399 L 68.848652,148.36842 L 68.848652,147.48284 L 68.392178,147.48284 C 67.847125,147.48284 67.840865,147.4769 67.840865,146.95979 L 67.840865,146.61369 L 66.420802,146.61369 L 65.000738,146.61369 L 65.000738,146.99692 C 65.000738,147.24896 64.981136,147.39559 64.943477,147.42524 C 64.911984,147.45004 64.713657,147.48299 64.502751,147.49846 C 64.291845,147.51393 64.093078,147.5483 64.061047,147.57484 C 64.026905,147.60314 63.995729,147.76315 63.985694,147.9616 C 63.976279,148.14777 63.951773,148.31692 63.931235,148.33748 C 63.910698,148.35804 63.689429,148.38194 63.439528,148.39059 L 62.985164,148.40631 L 62.985164,149.29405 L 62.985164,150.18178 L 62.527079,150.18178 L 62.068994,150.18178 L 62.068994,151.50838 L 62.068994,152.83497 L 61.5651,152.83497 L 61.061206,152.83497 L 61.061206,156.33444 L 61.061206,159.83391 L 55.793228,159.83391 L 50.52525,159.83391 L 50.52525,144.00625 z" id="path5338"/>
          <path style="fill:#ffffff;fill-opacity:1" d="M 49.518867,126.88046 C 49.518867,126.60978 49.500262,126.48179 49.455518,126.44465 C 49.420675,126.41574 49.250849,126.37952 49.078124,126.36417 C 48.905399,126.34882 48.738348,126.31598 48.706898,126.29118 C 48.67223,126.26385 48.649717,126.13525 48.649717,125.96454 C 48.649717,125.53965 48.589579,125.47964 48.163797,125.47964 C 47.660375,125.47964 47.643334,125.46386 47.643334,124.99771 L 47.643334,124.61049 L 66.901855,124.61049 L 86.160375,124.61049 L 86.160375,124.97318 C 86.160375,125.43324 86.121062,125.47964 85.731276,125.47964 C 85.571883,125.47964 85.414188,125.50488 85.373987,125.53682 C 85.325695,125.5752 85.293609,125.70309 85.276414,125.92572 C 85.262324,126.10817 85.238089,126.278 85.222563,126.30312 C 85.207037,126.32824 85.066894,126.34891 84.911133,126.34905 C 84.755368,126.34919 84.553387,126.37001 84.462286,126.39531 C 84.318236,126.43532 84.292958,126.46361 84.268374,126.61234 C 84.252826,126.70641 84.23988,126.89144 84.239601,127.02353 L 84.239098,127.26368 L 66.878982,127.26368 L 49.518867,127.26368 L 49.518867,126.88046 z" id="path5340"/>
          <path style="fill:#ffffff;fill-opacity:1" d="M 47.643334,121.0424 L 47.643334,118.38921 L 51.508761,118.38921 L 55.374189,118.38921 L 55.374189,119.71581 L 55.374189,121.0424 L 59.193872,121.0424 L 63.013555,121.0424 L 63.013555,119.71581 L 63.013555,118.38921 L 67.405046,118.38921 L 71.796538,118.38921 L 71.796538,119.71581 L 71.796538,121.0424 L 75.616221,121.0424 L 79.435904,121.0424 L 79.435904,119.71581 L 79.435904,118.38921 L 82.79814,118.38921 L 86.160375,118.38921 L 86.160375,121.0424 L 86.160375,123.6956 L 66.901855,123.6956 L 47.643334,123.6956 L 47.643334,121.0424 z" id="path5342"/>
          <path style="fill:#ffffff;fill-opacity:1" d="M 47.643334,117.09135 C 47.643334,116.83987 47.663018,116.69184 47.700515,116.66133 C 47.731964,116.63574 47.926604,116.60737 48.133049,116.5983 C 48.342883,116.58908 48.5327,116.5575 48.563504,116.5267 C 48.59381,116.4964 48.631198,116.31766 48.646588,116.1295 C 48.661977,115.94135 48.688409,115.77357 48.705326,115.75665 C 48.722242,115.73974 48.876185,115.71518 49.047421,115.70208 C 49.481865,115.66884 49.504059,115.65149 49.527554,115.32667 C 49.538489,115.17548 49.562861,115.03635 49.581712,115.0175 C 49.600562,114.99865 49.791895,114.96955 50.006894,114.95283 C 50.237835,114.93487 50.423104,114.89703 50.459633,114.86034 C 50.495114,114.82471 50.53482,114.63743 50.552806,114.42086 L 50.584148,114.04347 L 51.515338,114.04347 L 52.446528,114.04347 L 52.446528,114.42669 C 52.446528,114.88926 52.467994,114.91431 52.892094,114.94667 C 53.062166,114.95965 53.227047,114.99069 53.258496,115.01566 C 53.291353,115.04174 53.315677,115.1643 53.315677,115.30378 C 53.315677,115.63717 53.378574,115.69027 53.773414,115.69027 C 54.279786,115.69027 54.308566,115.71254 54.329155,116.12028 C 54.338731,116.3099 54.371994,116.49042 54.40309,116.52152 C 54.434972,116.5534 54.637399,116.58894 54.867394,116.60304 C 55.091672,116.61679 55.287566,116.64046 55.302714,116.65563 C 55.317861,116.67081 55.334994,116.85607 55.340786,117.06733 L 55.351317,117.45145 L 51.497325,117.46314 L 47.643334,117.47484 L 47.643334,117.09135 z" id="path5344"/>
          <path style="fill:#ffffff;fill-opacity:1" d="M 63.020287,117.08404 C 63.032026,116.79985 63.055137,116.68148 63.105044,116.64994 C 63.142784,116.62609 63.311271,116.60625 63.47946,116.60587 C 63.981403,116.60472 64.00756,116.5835 64.045668,116.14664 C 64.083748,115.71008 64.107499,115.69072 64.606161,115.68957 C 64.774349,115.68919 64.940987,115.6705 64.976464,115.64804 C 65.015171,115.62354 65.049425,115.50033 65.062113,115.33996 C 65.073743,115.19298 65.101371,115.04997 65.123509,115.02217 C 65.145646,114.99436 65.309583,114.95939 65.487811,114.94444 C 65.666038,114.9295 65.840967,114.89312 65.876539,114.8636 C 65.92286,114.82516 65.941216,114.70116 65.941216,114.42669 L 65.941216,114.04347 L 67.405046,114.04347 L 68.868877,114.04347 L 68.868877,114.42669 C 68.868877,114.88926 68.890343,114.91431 69.314443,114.94667 C 69.484513,114.95965 69.649396,114.99069 69.680845,115.01566 C 69.713702,115.04174 69.738026,115.1643 69.738026,115.30378 C 69.738026,115.63717 69.800923,115.69027 70.195763,115.69027 C 70.700507,115.69027 70.72787,115.71151 70.754328,116.12378 C 70.766647,116.31574 70.800405,116.49648 70.829346,116.52542 C 70.858287,116.55437 71.065466,116.58929 71.289743,116.60304 C 71.51402,116.61679 71.711117,116.64166 71.727734,116.6583 C 71.744352,116.67495 71.761485,116.86021 71.765807,117.07001 L 71.773666,117.45145 L 67.388906,117.46311 L 63.004148,117.47478 L 63.020287,117.08404 z" id="path5346"/>
          <path style="fill:#ffffff;fill-opacity:1" d="M 79.444806,117.0861 C 79.456013,116.87257 79.480875,116.68216 79.500052,116.66296 C 79.519232,116.64375 79.718423,116.61679 79.9427,116.60304 C 80.166973,116.58929 80.372513,116.55601 80.399447,116.52907 C 80.426386,116.50214 80.460434,116.32128 80.475114,116.12718 C 80.5066,115.7108 80.532981,115.69027 81.03668,115.69027 C 81.431521,115.69027 81.494415,115.63717 81.494415,115.30378 C 81.494415,115.1643 81.518738,115.04174 81.551596,115.01566 C 81.583046,114.99069 81.747928,114.95965 81.917998,114.94667 C 82.088077,114.9337 82.254917,114.90009 82.288768,114.872 C 82.324147,114.84264 82.362106,114.68025 82.378052,114.49005 C 82.398308,114.24841 82.427854,114.14265 82.487602,114.09792 C 82.603235,114.01136 83.265751,114.04098 83.325434,114.13538 C 83.349148,114.17289 83.368864,114.34 83.369248,114.50675 C 83.369697,114.70082 83.391608,114.8279 83.430144,114.85988 C 83.463249,114.88736 83.612491,114.92205 83.761793,114.93699 C 84.245873,114.98541 84.223247,114.96943 84.251691,115.28312 C 84.26568,115.4374 84.300428,115.58692 84.328908,115.6154 C 84.357389,115.64388 84.554878,115.67875 84.767774,115.69289 C 84.98067,115.70702 85.176658,115.74039 85.2033,115.76703 C 85.229937,115.79367 85.266666,115.97174 85.284909,116.16275 C 85.303152,116.35376 85.333727,116.52569 85.352853,116.54481 C 85.371979,116.56394 85.535763,116.58763 85.716821,116.59747 C 85.897879,116.60731 86.071745,116.63617 86.103194,116.66161 C 86.14071,116.69195 86.160375,116.83967 86.160375,117.09109 L 86.160375,117.47432 L 82.792403,117.47432 L 79.424431,117.47432 L 79.444806,117.0861 z" id="path5348"/>
        </g>
      </g>
    </g>
  </g>
</svg>