<svg xmlns:inkscape="http://www.inkscape.org/namespaces/inkscape" xmlns:sodipodi="http://sodipodi.sourceforge.net/DTD/sodipodi-0.dtd" xmlns="http://www.w3.org/2000/svg" xmlns:svg="http://www.w3.org/2000/svg" version="1.1" id="svg132" width="602.53271" height="800" viewBox="0 0 602.53271 799.99999" sodipodi:docname="Logo AC Ajaccio - 2015.svg" inkscape:version="1.2 (dc2aeda, 2022-05-15)">
  <defs id="defs136"/>
  <sodipodi:namedview id="namedview134" pagecolor="#ffffff" bordercolor="#666666" borderopacity="1.0" inkscape:showpageshadow="2" inkscape:pageopacity="0.0" inkscape:pagecheckerboard="0" inkscape:deskcolor="#d1d1d1" showgrid="false" inkscape:zoom="0.59465201" inkscape:cx="301.85721" inkscape:cy="295.97142" inkscape:window-width="1440" inkscape:window-height="900" inkscape:window-x="0" inkscape:window-y="0" inkscape:window-maximized="0" inkscape:current-layer="g140">
    <inkscape:page x="0" y="0" id="page138" width="602.53271" height="800"/>
  </sodipodi:namedview>
  <g id="g140" inkscape:groupmode="layer" inkscape:label="Page 1" transform="matrix(1.3333333,0,0,-1.3333333,-436.15357,557.24356)">
    <path id="path5882" style="fill:#ffffff;fill-opacity:1;fill-rule:nonzero;stroke:none;stroke-width:26.9592" d="m 553.06496,411.95002 -219.78871,-90.6916 c -14.28836,-380.987036 219.78871,-496.93857 219.78871,-496.93857 0,0 234.07709,115.951534 219.78872,496.93857 z"/>
    <g id="g58242" transform="matrix(1.0042194,0,0,1.0042194,-1.3802255,-1.7634196)">
      <path d="m 709.35601,280.13434 c 0.13424,0.0269 0.26847,0.0269 0.32216,0.10739 1.02013,0.99329 2.06713,1.98659 3.06043,3.00674 0.2953,0.32215 0.51007,0.77853 0.53692,1.20807 0.13422,0.9396 0.16107,1.90606 0.21476,2.87251 0,2.04029 -0.88591,2.81882 -2.89936,2.65775 -0.42953,-0.0269 -0.80537,-0.13424 -1.23491,-0.18793 z m -27.22177,6.71148 c 3.40944,2.44298 5.79872,8.69808 4.21481,11.19475 -1.9329,-1.36914 -3.86581,-2.76513 -5.77187,-4.16112 -0.16108,-0.10738 -0.32215,-0.48322 -0.24162,-0.67114 0.56377,-2.12083 1.18123,-4.24166 1.79868,-6.36249 m -9.02023,-48.43004 c -0.10738,0.0269 -0.16107,0.0537 -0.21477,0.10738 -0.26845,-0.32216 -0.61745,-0.61746 -0.77853,-0.96646 -0.88591,-1.82552 -1.77183,-3.59736 -2.52351,-5.44972 -0.56377,-1.55707 -0.48324,-1.6376 1.12752,-2.2819 4.80543,-1.85238 9.90615,-2.57721 14.98003,-3.35575 0.18792,-0.0269 0.56376,0.16108 0.61745,0.2953 0.59062,1.66446 1.10069,3.32891 1.61076,5.0202 -0.0537,0.0269 -0.16108,0.0537 -0.21477,0.0806 -0.53691,-0.56377 -0.96644,-1.20807 -1.55706,-1.6913 -0.45638,-0.34899 -1.07383,-0.72484 -1.61076,-0.75169 -1.50337,-0.13423 -3.06043,-0.0806 -4.61749,-0.0269 -0.40269,0.0269 -1.02015,0.16107 -1.28861,0.48323 -0.88592,1.2349 -2.04028,1.47653 -3.46312,1.10068 -0.24162,-0.0806 -0.51008,-0.0269 -0.80538,-0.0269 -1.20807,-0.0537 -1.6376,0.51008 -1.58391,1.69129 0.13423,1.90607 0.21477,3.83897 0.32215,5.77189 m 19.78545,53.34285 c 0.18792,0.26846 0.32215,0.40269 0.40269,0.51007 0.77853,1.02015 1.53021,2.04029 2.30875,3.00674 0.21477,0.26846 0.56376,0.34901 0.85906,0.53693 0.13424,-0.34901 0.32216,-0.67116 0.37585,-0.99331 0.0806,-0.48322 0,-0.96645 0,-1.6376 0.85907,0.67115 1.50337,1.18123 2.17452,1.71814 0.21476,0.10738 0.64431,0.32215 0.77853,0.21477 0.21477,-0.16108 0.32215,-0.51007 0.349,-0.80538 0.0537,-0.32215 0.0269,-0.6443 0.0269,-1.12753 0.83223,0.6443 1.47653,1.18123 2.14768,1.66445 0.24162,0.16107 0.69799,0.32215 0.85907,0.24161 0.21476,-0.13423 0.32215,-0.56376 0.34899,-0.83222 0.0269,-0.53692 0,-1.07384 0,-1.6913 0.45639,0 0.77854,-0.0269 1.10069,0 0.83223,0.10738 1.15437,-0.24161 1.12753,-1.10067 -0.0806,-0.88592 -0.0537,-1.82553 -0.0537,-2.95306 1.2886,1.18122 2.38929,2.22821 3.51681,3.24836 0.72484,0.67114 0.80538,1.04699 0.0269,1.69129 -0.80537,0.67114 -1.69129,1.31545 -2.65773,1.77183 -3.22152,1.50337 -6.71149,2.20137 -10.22831,2.89936 -1.12752,0.18792 -2.25505,0.37585 -3.46312,0.56377 z m 23.91972,-87.49087 c -1.93291,-0.93962 -7.32893,-3.73159 -8.08062,-4.3222 3.78527,-0.64431 7.38262,-1.47652 10.63098,-3.35575 0.96645,-0.53691 1.87922,-1.20806 2.76513,-1.79867 0,-0.0806 -0.0269,-0.18792 -0.0537,-0.2953 -1.10068,-0.0806 -2.22821,-0.24161 -3.32889,-0.24161 -2.73829,0.0269 -5.47657,0.13422 -8.21486,0.18792 -7.67793,0.16107 -15.35586,-0.13423 -22.81904,-2.25507 -5.63764,-1.61075 -10.87259,-4.08058 -15.75856,-7.38263 0.37585,0.48323 0.72485,0.99331 1.12753,1.47653 0.40269,0.53692 0.83223,1.02015 1.26176,1.53022 5.20812,6.41618 11.54375,11.43636 18.52369,15.75856 3.48997,2.17452 6.84572,4.5638 9.55716,7.75848 3.19466,3.83896 5.34233,8.26853 6.81885,12.96658 1.3423,4.18796 2.36245,8.48331 3.48998,12.69812 0.10738,0.26846 0.16108,0.56376 0.26846,0.91276 4.24165,-11.19476 3.6242,-27.19493 -12.32229,-37.69168 0.26847,-0.0806 0.45639,-0.10738 0.61747,-0.10738 2.12082,-0.0537 4.29534,-0.13423 6.41617,-0.18792 0.48323,0 0.72484,0.13422 1.10068,0.51007 1.15438,1.20806 12.10752,12.05381 13.87935,18.121 1.6376,5.74503 2.22821,11.67798 2.12082,17.66462 -0.0269,2.25506 -0.13423,4.51011 -0.21476,6.76517 0,0.37584 -0.0806,0.75168 -0.13423,1.26176 -1.10069,-1.42283 -2.09398,-2.65775 -3.08728,-3.91951 -0.21477,-0.24161 -0.40269,-0.45637 -0.61746,-0.67115 -0.51007,-0.56376 -1.12752,-0.69799 -1.77183,-0.21477 -0.61745,0.48324 -0.61745,1.12753 -0.29531,1.77183 0.48323,0.88592 1.02015,1.71815 1.42284,2.63091 1.58391,3.57051 1.90606,7.35578 1.58391,11.19475 -0.48323,5.2618 -2.06713,10.22829 -4.26851,14.98003 -0.0806,0.24161 -0.24161,0.42953 -0.40268,0.75168 -0.21477,-0.26846 -0.32215,-0.42953 -0.42953,-0.61745 -0.80539,-1.50337 -2.22822,-2.44298 -3.3289,-3.70474 -0.91276,-1.02015 -1.82552,-2.12083 -2.76514,-3.19467 -0.85906,-1.02014 -1.74498,-2.01345 -2.6309,-2.97989 -0.42953,-0.48324 -0.96644,-0.85908 -1.31544,-1.36915 -5.71818,-8.18801 -10.04038,-17.07401 -12.93975,-26.63116 -1.53021,-5.07387 -2.84566,-10.14776 -4.34904,-15.24848 -0.37584,-1.26176 -0.83221,-2.46983 -1.36914,-3.70474 -1.42283,-3.06043 -3.62419,-4.18797 -6.79201,-3.11413 -2.20137,0.72484 -4.32219,1.82552 -6.33564,3.03359 -3.57051,2.20136 -6.79202,4.93965 -9.77192,7.91955 -0.32215,0.32215 -0.61746,0.85907 -0.61746,1.31545 -0.24161,3.40944 -0.42953,6.81886 -0.51006,10.25515 -0.16108,6.04033 -0.4027,12.08066 -0.37585,18.12099 0.0806,6.09403 0.21477,12.2149 0.61746,18.30893 0.6443,8.61754 4.37588,15.97332 10.14776,22.3895 5.50341,6.09403 12.18804,10.33568 20.1076,12.59073 2.89935,0.80539 5.82556,1.42284 8.85915,1.39599 4.83227,-0.10738 8.51016,-2.25505 11.16791,-6.22825 2.38929,-3.54366 3.48996,-7.57055 4.13427,-11.73167 0.34899,-2.57721 0.53692,-5.18126 0.80537,-7.94639 0.48324,0.72484 0.91277,1.34229 1.26176,2.01345 3.06044,5.47657 4.88597,11.40951 5.69134,17.63777 0.29531,2.30875 0.40269,4.64434 0.56377,6.97994 0,0.2953 -0.24161,0.77852 -0.48323,0.91276 -5.36918,2.65774 -8.13431,7.27525 -9.63768,12.8592 -0.13423,0.53692 -0.26847,1.07383 -0.34901,1.66445 -0.10738,0.51007 -0.16107,1.02014 -0.2953,1.71814 -0.29531,-0.16108 -0.56376,-0.29531 -0.77853,-0.45638 -2.89936,-1.79869 -5.79872,-3.62421 -9.12762,-4.48328 -1.04698,-0.26846 -2.20136,-0.37584 -3.2752,-0.21477 -2.20137,0.26847 -3.6779,2.20137 -3.54367,4.59066 0.1074,1.85237 0.34901,3.67789 0.53693,5.47657 -12.18806,-5.02019 -22.33582,-12.72497 -29.66475,-24.05395 -7.27525,-11.38267 -10.28199,-23.70495 -8.99339,-37.18161 -0.10738,0.26846 -0.24161,0.53692 -0.37584,0.80538 -4.37588,11.08737 -4.08058,21.93312 1.2886,32.59095 3.16783,6.2551 7.73163,11.38268 13.04713,15.86595 0.26845,0.18792 0.51007,0.45637 0.9396,0.77853 -1.39599,0 -2.55037,0.0269 -3.70473,0 -5.77188,-0.24162 -11.51691,-0.61746 -17.15455,-1.87922 -4.53696,-1.02014 -8.91286,-2.38928 -12.48336,-5.50342 -1.10068,-0.96644 -1.95975,-2.17451 -3.03359,-3.32889 -2.55036,1.39599 -5.34234,2.38929 -8.34908,2.9799 -6.20141,1.15438 -12.29544,0.42953 -18.28208,-1.44968 -4.10743,-1.28861 -7.94639,-3.11413 -11.65113,-5.26181 -0.21477,-0.13422 -0.42953,-0.26845 -0.80537,-0.18792 1.34228,1.15438 2.5772,2.3893 3.94634,3.46314 4.2685,3.51681 8.91285,6.38932 14.33572,7.94638 4.51012,1.23492 8.9934,1.18123 13.34244,-0.53691 1.79867,-0.698 3.40943,-1.85237 5.18125,-2.84567 0.48324,0.56376 1.02015,1.28861 1.6376,1.9329 3.6779,3.81213 8.32224,5.90611 13.47667,6.9531 3.65104,0.72485 7.40947,1.15438 11.11421,0.61746 4.02688,-0.59061 7.97324,-1.58392 11.97328,-2.41613 0.59061,-0.13423 0.9933,-0.10739 1.47653,0.26845 7.57054,5.79872 15.7854,10.5236 24.59086,14.22834 0.85908,0.349 1.85237,0.40269 2.81883,0.42954 3.75843,0.21476 7.51685,0.10738 11.19475,-0.88591 7.00679,-1.95976 11.35583,-6.38934 12.69812,-13.66458 0.72484,-4.02689 1.12753,-8.08062 1.02015,-12.18805 -0.16108,-7.46317 -1.61076,-14.68473 -4.6712,-21.47674 -1.26176,-2.73829 -2.9262,-5.28865 -4.45642,-7.91955 -0.51007,-0.93961 -1.47653,-1.79868 -1.55706,-2.76513 -0.0806,-0.91276 0.83223,-1.85237 1.18122,-2.81883 0.80537,-2.30874 2.30875,-4.16112 3.59735,-6.17456 1.6913,-2.68459 3.14098,-5.50341 4.29535,-8.40277 2.44298,-6.06718 3.11413,-12.45652 2.9262,-18.92638 -0.0537,-1.95976 1.31545,-21.18144 -13.98672,-33.04733" style="fill:#000000;fill-opacity:1;fill-rule:evenodd;stroke:none;stroke-width:26.8459" id="path5908"/>
      <path d="m 598.98973,212.82892 c 6.12086,-2.84567 12.37596,-4.51012 19.0606,-4.93965 -0.40269,-0.21477 -0.83223,-0.51008 -1.23491,-0.72484 -4.51012,-2.25506 -9.31553,-3.70475 -14.17465,-4.9128 -6.84572,-1.6376 -13.74511,-2.79198 -20.67136,-3.57052 -5.85241,-0.64429 -11.70482,-1.12753 -17.58408,-1.66444 -0.83223,-0.10739 -1.6913,-0.13423 -2.71144,-0.24161 0,1.39598 -0.0269,2.68459 0.0537,3.9732 0,0.21476 0.40269,0.51006 0.69799,0.67114 4.13427,2.36244 8.32224,4.53696 12.40282,7.00679 10.41622,6.2014 20.18814,13.31557 29.10098,21.63781 8.69808,8.16117 16.26864,17.20824 21.82574,27.81239 0.0806,0.10738 0.16108,0.21476 0.29531,0.32215 -2.30875,-8.67124 -5.47657,-16.99348 -9.93299,-24.80565 -4.45643,-7.839 -9.77192,-14.95317 -17.1277,-20.56397" style="fill:#000000;fill-opacity:1;fill-rule:evenodd;stroke:none;stroke-width:26.8459" id="path5910"/>
      <path d="m 561.68193,228.25727 c 0,2.06713 -0.0269,4.16112 0.0269,6.22825 0,0.42955 0.32216,0.96646 0.59062,1.3423 5.66449,8.21486 13.02027,14.60419 21.58412,19.62438 8.45647,4.88595 17.55723,8.21485 27.0607,10.36252 2.87251,0.64431 5.77187,1.20807 8.67123,1.71814 0.75168,0.13424 1.61075,0.0269 2.44298,0.0269 0.0269,-0.13424 0.0537,-0.21477 0.0806,-0.32216 -0.59062,-0.9396 -1.20807,-1.82552 -1.85238,-2.73828 -4.45642,-6.33564 -9.15445,-12.5102 -14.46995,-18.17469 -5.66449,-6.04034 -11.75851,-11.62428 -19.00691,-15.7854 -4.45643,-2.55037 -9.12762,-4.48328 -14.28204,-4.91281 -1.2886,-0.13423 -2.60405,-0.0537 -3.94635,0.0806 11.67798,3.70474 20.37607,10.97998 26.73855,21.50358 -1.90606,0.34901 -3.62421,0.18792 -5.3155,-0.13423 -5.02018,-0.9396 -9.44976,-3.35573 -13.61088,-6.2014 -5.10073,-3.48998 -9.61085,-7.65109 -13.90619,-12.10752 -0.21477,-0.21477 -0.32215,-0.48322 -0.48323,-0.72483 -0.13423,0.0537 -0.21476,0.16107 -0.32216,0.21476" style="fill:#000000;fill-opacity:1;fill-rule:evenodd;stroke:none;stroke-width:26.8459" id="path5912"/>
      <path d="m 632.45049,175.8406 c -1.44969,-3.08728 -3.40944,-5.69134 -5.77188,-8.02693 -4.02688,-4.00004 -8.85916,-6.76518 -14.09411,-8.83231 -7.2484,-2.89936 -14.81895,-4.40273 -22.55058,-5.31549 -7.49001,-0.85908 -14.98003,-1.15438 -22.49689,-0.99331 -1.90605,0.0806 -3.83897,0.16108 -5.74502,0.24162 -0.26846,1.44968 -0.24162,1.44968 1.20806,1.55706 9.36924,0.75169 18.71161,1.82553 27.78553,4.45643 4.13428,1.18121 8.16117,2.71143 11.59744,5.36918 0.53693,0.42954 1.02015,0.88592 1.6913,1.53022 -0.91276,0.48323 -1.61075,0.96645 -2.41613,1.26176 -2.81882,1.02014 -5.77188,1.34229 -8.72493,1.61075 -7.38263,0.67115 -14.7921,0.56377 -22.17474,0.51008 -2.55035,-0.0269 -5.04703,-0.16108 -7.57055,-0.26846 -0.18792,0 -0.42953,0.0269 -0.67114,0.26846 1.31545,0.53691 2.60405,1.15438 3.9195,1.66444 5.18127,2.04029 10.60415,3.19467 16.13441,3.83898 8.02692,0.91275 16.05386,0.75168 24.08079,0.67114 6.04034,-0.0269 12.13436,0.0269 18.20154,0.10738 2.49667,0.0269 4.99334,0.21477 7.5974,0.349" style="fill:#000000;fill-opacity:1;fill-rule:evenodd;stroke:none;stroke-width:26.8459" id="path5914"/>
      <path d="m 711.85,158.36122 c 5.04703,1.10068 9.61084,3.08728 13.95988,5.50341 4.37588,2.44298 8.40277,5.39603 12.32228,8.56385 -0.2953,-0.59061 -0.53691,-1.18121 -0.85907,-1.77183 -2.22821,-4.05374 -5.50341,-7.14102 -9.31553,-9.74507 -6.28196,-4.3222 -13.26189,-7.08733 -20.48344,-9.36923 -10.09407,-3.16781 -20.42976,-5.10073 -30.89967,-6.44302 -2.28191,-0.32215 -4.5638,-0.53692 -6.8994,-0.75168 -0.29531,-0.0269 -0.61746,-0.0269 -1.15438,-0.0269 2.46983,0.96645 4.72489,1.79867 6.9531,2.71144 11.11421,4.56381 21.42305,10.46991 30.71174,18.14784 8.85916,7.32894 16.1344,15.94648 20.93982,26.52378 1.90607,4.13427 3.30205,8.42962 4.21481,12.88604 0.0537,0.26846 0.16107,0.48323 0.32215,0.69799 3.22152,-19.7049 -4.88596,-34.65809 -19.81229,-46.92667" style="fill:#000000;fill-opacity:1;fill-rule:evenodd;stroke:none;stroke-width:26.8459" id="path5916"/>
      <path d="m 603.67165,197.14284 c 7.19471,-0.0537 13.26189,2.38929 18.33577,7.19471 3.14097,-8.83231 9.63769,-14.46995 17.77201,-18.47 5.42287,-2.63089 11.19474,-4.08057 17.18139,-4.72488 1.3423,-0.13423 2.73829,-0.26846 4.2685,-0.42953 -0.32216,-0.16108 -0.48323,-0.26846 -0.67115,-0.32215 -7.75847,-2.76513 -15.75856,-4.00005 -24.00026,-3.3289 -9.02023,0.77853 -17.10086,4.00004 -24.0271,9.95984 -3.22152,2.76513 -5.98665,5.93295 -8.40277,9.36923 -0.13423,0.21477 -0.26846,0.42953 -0.45639,0.75168" style="fill:#000000;fill-opacity:1;fill-rule:evenodd;stroke:none;stroke-width:26.8459" id="path5918"/>
      <path d="m 656.13396,173.26607 c 0.18792,-2.87251 0.48323,-5.50341 0.53692,-8.18801 0.0806,-3.03358 0.0806,-6.04033 -0.10738,-9.07392 -0.40269,-6.28194 -1.58392,-12.40282 -4.88596,-17.90622 -3.46312,-5.87927 -8.5907,-9.2887 -15.46326,-9.87931 -1.85236,-0.16107 -3.73158,-0.0269 -5.63764,0.13423 11.8659,5.42288 16.24179,15.30217 16.96662,27.705 -11.1679,-7.54371 -23.51702,-9.02023 -36.40307,-8.53701 1.71814,0.56377 3.46312,1.10069 5.18126,1.69129 9.74507,3.30206 19.32907,7.08733 28.10769,12.61759 3.70474,2.36244 7.19471,5.02019 9.8793,8.5907 0.6443,0.85907 1.12753,1.74498 1.82552,2.84566" style="fill:#000000;fill-opacity:1;fill-rule:evenodd;stroke:none;stroke-width:26.8459" id="path5920"/>
      <path d="m 677.95165,161.70085 c 6.12087,2.95305 12.59074,4.18796 19.35591,4.51011 -0.53692,-0.37584 -1.04699,-0.80537 -1.61076,-1.15436 -5.93294,-3.9732 -12.29542,-7.06048 -18.73845,-9.98669 -3.46312,-1.58391 -6.9531,-3.06043 -10.41622,-4.53697 -0.18792,-0.10738 -0.37585,-0.16107 -0.72484,-0.2953 0,0.85907 -0.0806,1.66444 0,2.44298 0.53692,7.14102 2.89936,13.58403 7.46316,19.16799 4.02689,4.85912 9.20816,8.21485 15.14111,10.36253 5.12757,1.90606 10.44306,2.95305 15.89279,3.2752 3.54366,0.18792 7.08732,0.24161 10.65783,0.21477 -15.32902,-3.48997 -28.32245,-10.41622 -37.02053,-24.00026" style="fill:#000000;fill-opacity:1;fill-rule:evenodd;stroke:none;stroke-width:26.8459" id="path5922"/>
      <path d="m 681.42819,198.48783 c -0.93961,-0.51008 -1.82552,-1.10069 -2.79197,-1.50338 -4.51012,-1.90606 -9.18131,-3.16781 -14.06727,-3.46313 -7.03363,-0.40268 -13.39611,1.42284 -18.38945,6.73833 -3.0336,3.24836 -4.88597,7.14102 -6.17457,11.38268 -1.47653,4.77857 -1.95975,9.69138 -2.36244,14.65787 -0.51008,6.46987 0.26846,12.88605 0.88591,19.32907 0.16108,1.61076 0.349,3.22151 0.59062,4.83227 0.0806,0.51008 0.2953,0.9933 0.42953,1.50337 h 0.349 c 0.13422,-0.77853 0.2953,-1.50337 0.32214,-2.2819 0.13423,-3.22152 0.10739,-6.44303 0.4027,-9.63769 0.56376,-7.06048 1.77183,-14.01358 4.29535,-20.64452 2.01344,-5.28864 4.64434,-10.17461 8.80546,-14.12095 4.77857,-4.53697 10.5236,-6.84572 17.10086,-6.97994 2.73828,-0.0806 5.50341,0.32214 8.24169,0.48322 0.75169,0.0269 1.50338,0 2.22821,0 0.0269,-0.10738 0.10739,-0.18792 0.13423,-0.2953" style="fill:#000000;fill-opacity:1;fill-rule:evenodd;stroke:none;stroke-width:26.8459" id="path5924"/>
      <path d="m 561.68193,246.90446 v 1.12752 c 0,6.55041 -0.0269,13.07397 0.0269,19.65122 0,0.59061 0.26847,1.2886 0.64431,1.77183 2.20136,2.84567 4.69803,5.36918 7.91954,7.11417 0.72485,0.349 1.53023,0.64431 2.49667,1.04699 -0.61745,-1.58391 -1.20806,-2.89936 -1.5839,-4.2685 -0.48323,-1.66445 -0.85908,-3.38258 -1.15438,-5.07388 -0.18792,-1.12753 0,-1.20806 1.12753,-1.20806 4.75173,0 9.55715,0.0269 14.33572,-0.0269 5.47658,-0.0269 10.9263,-0.16107 16.40287,-0.26846 0.32215,0 0.6443,-0.0269 0.96645,-0.10739 -14.81895,-4.13426 -28.77883,-10.09407 -41.18166,-19.75859" style="fill:#000000;fill-opacity:1;fill-rule:evenodd;stroke:none;stroke-width:26.8459" id="path5926"/>
      <path d="m 605.43274,284.04311 c 5.04704,2.76513 10.14776,5.42288 15.94648,6.25509 -12.10751,-5.95979 -22.57741,-14.28203 -32.85941,-22.87272 -0.10739,0.0269 -0.16108,0.0806 -0.26846,0.13423 0.53693,1.20806 0.96646,2.44298 1.55706,3.59735 2.09399,4.21481 4.99335,7.91956 8.08063,11.43637 2.09398,2.41613 4.34904,4.67119 6.55041,6.97994 0.18792,0.21477 0.40269,0.40269 0.69799,0.56376 -1.50337,-2.89936 -3.22151,-5.71818 -4.00004,-8.99338 1.26175,1.07384 2.97989,1.42283 3.81212,3.08728 2.44298,5.12757 5.9061,9.47661 10.49675,12.88604 0.16108,0.10739 0.349,0.16108 0.45639,0.349 -2.04029,0.59061 -3.9732,0.48323 -5.90611,0.21477 -6.44302,-1.02015 -11.94643,-4.02689 -16.96662,-8.02693 -6.25511,-4.9665 -11.16791,-11.08737 -15.59748,-17.66462 -0.48324,-0.698 -0.93961,-1.44968 -1.42284,-2.17452 -0.0269,-0.0537 -0.0805,-0.0806 -0.16107,-0.16108 0,0.10738 -0.0269,0.18792 -0.0269,0.24161 3.46312,6.9531 7.27525,13.63774 12.37597,19.517 3.89266,4.48326 8.34908,8.32223 13.8525,10.76521 7.2484,3.22152 16.21494,2.55036 22.65796,-1.90606 -7.81217,-2.92621 -13.98673,-7.97325 -19.27538,-14.22834" style="fill:#000000;fill-opacity:1;fill-rule:evenodd;stroke:none;stroke-width:26.8459" id="path5928"/>
      <path d="m 561.68193,180.43394 c 0,1.82552 -0.0269,3.57051 0.0269,5.31549 0,0.26846 0.24162,0.51007 0.45639,0.69799 0.34899,0.32216 0.80537,0.61746 1.2886,1.02015 -1.77184,0.42953 -1.77184,0.42953 -1.77184,2.28191 v 3.35574 c 12.91289,-0.40269 25.79894,-0.77853 38.79238,-1.18123 -1.39599,-0.83222 -2.71144,-1.69129 -4.13428,-2.44297 -5.44972,-2.81882 -11.27529,-4.64435 -17.23508,-5.93296 -5.53026,-1.20806 -11.11422,-2.09398 -16.67133,-3.11412 -0.21476,-0.0269 -0.42953,0 -0.75169,0" style="fill:#000000;fill-opacity:1;fill-rule:evenodd;stroke:none;stroke-width:26.8459" id="path5930"/>
      <path d="m 599.35214,301.02584 c -2.95305,0.85907 -6.12087,1.95975 -9.34238,2.73828 -3.40943,0.85908 -6.92624,1.07384 -10.44307,0.34901 -5.28865,-1.047 -8.537,-4.37589 -10.14776,-9.39608 -0.9933,-3.22151 -1.26176,-6.5504 -1.10068,-9.90615 0.13423,-2.65775 0.4027,-5.3155 0.64431,-8.13432 -0.698,1.6913 -1.3423,3.27521 -1.93292,4.85912 -1.34229,3.67789 -2.33559,7.43632 -2.76513,11.32898 -0.34899,3.03359 -0.32215,6.06718 0.61746,9.02023 1.82552,5.9061 6.63095,9.235 12.77867,8.69808 4.61749,-0.37584 8.99338,-1.39599 12.93973,-4.05374 2.76513,-1.82552 5.63765,-3.54366 8.45647,-5.28864 0.18792,-0.10738 0.32215,-0.24162 0.2953,-0.21477" style="fill:#000000;fill-opacity:1;fill-rule:evenodd;stroke:none;stroke-width:26.8459" id="path5932"/>
      <path d="m 642.05865,113.48825 c 0.77852,0.80538 1.55706,1.6376 2.36243,2.44298 5.47657,5.50342 11.43637,10.44306 18.14785,14.41626 5.69134,3.32889 11.70482,5.82557 18.25523,7.00679 1.12754,0.24161 2.2819,0.349 3.46312,0.40269 -0.13422,-0.10739 -0.21476,-0.24161 -0.37584,-0.29531 -5.71818,-2.57721 -10.73837,-6.22825 -15.43641,-10.30883 -4.69803,-4.05374 -8.99338,-8.537 -13.02027,-13.23505 -0.37584,-0.45638 -0.77854,-0.6443 -1.36914,-0.6443 -3.9732,0.0269 -7.9464,0.0269 -11.89274,0.0269 -0.0269,0.0537 -0.10739,0.13423 -0.13423,0.18792" style="fill:#000000;fill-opacity:1;fill-rule:evenodd;stroke:none;stroke-width:26.8459" id="path5934"/>
      <path d="m 635.18072,252.12867 c 1.10068,2.84567 2.55036,5.10072 4.16112,7.2484 4.40273,5.95979 9.55714,11.2216 14.87264,16.29547 0.83223,0.77854 1.69129,1.53022 2.65775,2.44299 -1.07384,-2.49668 -2.09399,-4.83227 -3.00674,-7.14102 -2.95306,-7.43632 -5.10074,-15.1411 -5.98665,-23.14119 -0.6443,-5.42288 -0.6443,-10.89945 0.40269,-16.32232 0.0537,-0.16108 0.0537,-0.349 0.0806,-0.59061 -0.9933,1.07384 -3.38259,8.21485 -4.13428,12.34913 -0.77853,4.29535 -0.80538,5.79872 -0.0806,13.20819 -3.22151,-0.80538 -6.12087,-2.22822 -8.96654,-4.34904" style="fill:#000000;fill-opacity:1;fill-rule:evenodd;stroke:none;stroke-width:26.8459" id="path5936"/>
      <path d="m 619.57787,113.28691 h -8.72494 -17.58408 c -0.61745,0 -1.26175,0.13422 -1.87921,0.2953 -6.33564,1.77184 -12.69812,3.57051 -19.03377,5.36919 -0.18792,0.0269 -0.42953,0.10738 -0.5906,0.26845 16.61763,3.6779 32.51042,1.18123 47.83944,-5.71818 0,-0.0537 -0.0269,-0.10738 -0.0269,-0.21476" style="fill:#000000;fill-opacity:1;fill-rule:evenodd;stroke:none;stroke-width:26.8459" id="path5938"/>
      <path d="m 561.68193,141.29526 c 18.04047,-6.73832 36.67154,-7.70478 55.51738,-6.8994 -1.87921,-0.29531 -3.78527,-0.67115 -5.63764,-0.85907 -5.04703,-0.59061 -10.04038,-1.15438 -15.06056,-1.61076 -7.38263,-0.61746 -14.79211,-0.61746 -22.12105,0.16108 -3.97319,0.45638 -7.86585,1.2886 -11.83905,1.90606 -0.69799,0.0806 -0.88592,0.40269 -0.88592,1.12753 0.0537,1.9866 0.0269,4.02689 0.0269,6.17456" style="fill:#000000;fill-opacity:1;fill-rule:evenodd;stroke:none;stroke-width:26.8459" id="path5940"/>
      <path d="m 632.71626,300.62315 c -3.65104,2.44298 -7.43632,4.05374 -12.02697,3.91951 1.85236,1.36914 3.70473,1.77183 5.74503,1.61075 3.08728,-0.26846 5.93295,-1.44968 8.48331,-3.14097 2.60405,-1.74498 5.04703,-3.73159 7.57055,-5.63764 0.10738,-0.10739 0.21476,-0.26846 0.37584,-0.45638 -7.83901,-0.83223 -15.24848,-2.36245 -20.42975,-9.04709 0.26846,0.77854 0.45638,1.58391 0.80537,2.30876 1.42284,3.06043 3.70475,5.39603 6.14773,7.59739 1.04699,0.96646 2.14767,1.85238 3.32889,2.84567" style="fill:#000000;fill-opacity:1;fill-rule:evenodd;stroke:none;stroke-width:26.8459" id="path5942"/>
      <path d="m 651.14868,294.38415 c 0.16107,1.50339 0.34899,3.00676 0.51007,4.51013 0.0805,0.48322 0.0269,1.02014 0.18792,1.47652 0.26845,0.72484 0.5906,1.42284 1.04699,2.04029 0.83222,1.10069 1.77183,2.12083 2.65775,3.22151 -0.16107,0.24161 -0.34901,0.51008 -0.64431,0.88592 -1.07384,-0.91277 -2.20136,-1.82552 -3.2752,-2.79198 -0.53691,-0.48322 -1.10068,-0.77854 -1.77183,-0.32215 -0.6443,0.42953 -0.6443,0.96645 -0.48323,1.74499 0.13423,0.61745 0.45639,0.88591 0.91276,1.15437 2.36245,1.50337 4.69804,3.19467 7.19471,4.51012 2.52352,1.2886 5.26181,1.61075 8.05378,0.91276 0.69799,-0.16108 1.23492,-0.42954 1.3423,-1.18122 0.10738,-0.72485 -0.37585,-1.12753 -0.91276,-1.50337 -2.63091,-1.79869 -5.3155,-3.57052 -7.91956,-5.44973 -3.24835,-2.30875 -5.6108,-5.28865 -6.52355,-9.26185 -0.10738,0.0269 -0.24161,0.0269 -0.37584,0.0537" style="fill:#000000;fill-opacity:1;fill-rule:evenodd;stroke:none;stroke-width:26.8459" id="path5944"/>
      <path d="m 674.00261,207.11342 c -4.64434,-0.698 -15.24848,5.74503 -19.65121,11.54375 -5.82557,7.5974 -6.22826,19.35591 -4.48328,23.89287 0.10739,-0.91276 0.24162,-1.79868 0.26847,-2.71143 0.45637,-9.31554 3.67788,-17.44986 10.38937,-24.05395 3.06043,-3.00675 6.65779,-5.3155 10.55044,-7.11417 0.93961,-0.45639 1.82553,-0.96646 2.92621,-1.55707" style="fill:#000000;fill-opacity:1;fill-rule:evenodd;stroke:none;stroke-width:26.8459" id="path5946"/>
      <path d="m 561.68193,209.59399 c 0,1.61075 -0.0269,3.16781 0.0269,4.67118 0,0.21477 0.18793,0.53692 0.349,0.61746 4.40274,1.66445 8.80547,3.30205 13.12766,4.9665 -1.2886,-2.36245 -9.82561,-8.77862 -13.50351,-10.25514" style="fill:#000000;fill-opacity:1;fill-rule:evenodd;stroke:none;stroke-width:26.8459" id="path5948"/>
      <path d="m 705.91437,256.77838 c -4.48327,-11.24843 -9.07392,-22.76535 -13.69143,-34.30909 2.14768,12.53705 7.30209,23.83918 13.69143,34.30909" style="fill:#000000;fill-opacity:1;fill-rule:evenodd;stroke:none;stroke-width:26.8459" id="path5950"/>
      <path d="m 658.64406,269.44698 c 2.22821,-5.63764 -0.0537,-15.1948 -4.67119,-17.85255 3.5705,5.42288 4.00004,11.67798 4.67119,17.85255" style="fill:#000000;fill-opacity:1;fill-rule:evenodd;stroke:none;stroke-width:26.8459" id="path5952"/>
      <path d="m 566.79878,161.93978 c -1.66446,-0.26846 -3.32891,-0.48322 -5.04704,-0.75169 v 1.42283 c 1.69129,-0.16107 3.38258,-0.2953 5.04704,-0.45637 z" style="fill:#000000;fill-opacity:1;fill-rule:evenodd;stroke:none;stroke-width:26.8459" id="path5954"/>
    </g>
    <g id="g57931" transform="matrix(0.99996336,0,0,0.99996336,0.01198503,0.01531014)">
      <path d="m 513.03311,-68.931451 c 4.39451,0 5.39204,2.129855 6.28172,4.556272 h 3.80139 v -36.261451 h -5.6886 v 27.661151 h -4.39451 z" style="fill:#1d1d1b;fill-opacity:1;fill-rule:nonzero;stroke:none;stroke-width:26.9602" id="path5970"/>
      <path d="m 541.0717,-79.241027 v 6.524366 c 0,2.588178 -1.13232,3.531784 -2.93866,3.531784 -1.80633,0 -2.99258,-0.943606 -2.99258,-3.531784 v -6.524366 c 0,-2.588178 1.18625,-3.585705 2.99258,-3.585705 1.80634,0 2.93866,0.997527 2.93866,3.585705 m 5.6886,-12.401686 c 0,-6.093002 -2.7769,-9.409107 -8.70814,-9.409107 -5.58076,0 -8.49246,3.316105 -8.49246,9.139505 v 0.889686 h 5.39204 v -1.294089 c 0,-2.588178 1.13233,-3.558744 2.93866,-3.558744 2.04898,0 3.1813,0.970566 3.1813,4.475391 v 6.632206 c -0.97056,-2.075935 -2.74994,-3.235223 -5.28419,-3.235223 -4.20579,0 -6.33565,2.965621 -6.33565,8.303738 v 6.632206 c 0,5.796441 3.07346,9.139504 8.68118,9.139504 5.58076,0 8.62726,-3.343063 8.62726,-9.139504 z" style="fill:#1d1d1b;fill-opacity:1;fill-rule:nonzero;stroke:none;stroke-width:26.9602" id="path5972"/>
      <path d="m 554.08269,-68.931451 c 4.39451,0 5.39204,2.129855 6.28172,4.556272 h 3.80139 v -36.261451 h -5.6886 v 27.661151 h -4.39451 z" style="fill:#1d1d1b;fill-opacity:1;fill-rule:nonzero;stroke:none;stroke-width:26.9602" id="path5974"/>
      <path d="m 576.31676,-92.297846 c 0,-2.588178 1.13233,-3.585704 2.93866,-3.585704 1.80633,0 2.99258,0.997526 2.99258,3.585704 v 19.573097 c 0,2.615138 -1.18625,3.585705 -2.99258,3.585705 -1.80633,0 -2.93866,-0.970567 -2.93866,-3.585705 z m -5.6886,19.222614 c 0,5.823401 3.0465,9.112544 8.62726,9.112544 5.60772,0 8.68118,-3.289143 8.68118,-9.112544 v -18.872131 c 0,-5.79644 -3.07346,-9.112547 -8.68118,-9.112547 -5.58076,0 -8.62726,3.316107 -8.62726,9.112547 z" style="fill:#1d1d1b;fill-opacity:1;fill-rule:nonzero;stroke:none;stroke-width:26.9602" id="path5976"/>
    </g>
    <path id="path5978" style="fill:#000000;fill-opacity:1;fill-rule:nonzero;stroke:none;stroke-width:26.9592" d="M 549.70074,11.775453 V 4.5762589 h -7.43898 v -5.7414088 h 7.43898 v -3.2083044 l -3.72758,-7.2639197 c -6.24787,1.489332 -10.8708,1.491839 -14.24835,0.470728 l -0.003,0.141219 c 0,0 -43.26859,-2.747528 -4.26598,-36.875643 -0.009,-0.002 -0.11621,-0.02501 -0.11621,-0.02501 v -7.764068 h 51.45055 v 7.764068 c 0,0 -0.10717,0.023 -0.11621,0.02501 39.00262,34.128115 -4.26597,36.875643 -4.26597,36.875643 l -0.003,-0.141219 c -3.37754,1.021111 -8.00048,1.018604 -14.24834,-0.470728 l -3.72758,7.2639197 v 3.2083044 h 7.43897 v 5.7414088 h -7.43882 v 7.1991941 z m -23.50256,-26.63437 c -6.80845,-8.915861 1.40367,-28.51653 3.11857,-32.356656 -3.38375,3.284931 -25.78443,26.060731 -3.11857,32.356656 z m 53.73358,0 c 22.66585,-6.295925 0.26517,-29.071725 -3.11857,-32.356656 1.7149,3.840126 9.92701,23.440795 3.11857,32.356656 z m -37.87741,-0.589881 c 0.35434,0.0095 0.67189,0.0056 0.94146,-0.0029 0.61695,-0.01969 0.98558,-0.06914 0.98558,-0.06914 0,0 0.006,0.01022 0.006,0.01029 l 0.55311,-30.220728 c -3.8143,-0.221952 -7.12276,-0.578814 -9.82644,-0.942926 -11.69897,28.15319 2.02536,31.082665 7.34041,31.225437 z m 22.02124,0 c 5.31505,-0.142772 19.03936,-3.072247 7.34041,-31.225437 -2.70369,0.364111 -6.01214,0.720974 -9.82645,0.942926 l 0.55311,30.220728 c 0,-7.1e-5 0.006,-0.01029 0.006,-0.01029 0,0 0.36864,0.04945 0.98559,0.06914 0.26955,0.0086 0.58712,0.01246 0.94146,0.0029 z" sodipodi:nodetypes="cccccccccccccccccccccccccccccccssccccssccccss"/>
    <g id="g58865" transform="matrix(1.0042194,0,0,1.0042194,-1.3802255,-1.7634196)">
      <g id="g58567">
        <path style="fill:#000000;fill-opacity:1;fill-rule:nonzero;stroke:none;stroke-width:26.8459" d="m 377.53231,218.82101 v 1.93292 c 0.51007,1.44968 0.9396,2.9262 1.55706,4.34904 2.20136,5.10072 4.53696,10.14776 6.76518,15.24848 0.85906,1.95976 1.69129,3.9195 2.30874,5.9598 0.85907,2.76513 0.34899,5.6108 -0.21477,8.37593 -0.5906,2.89936 -0.53691,5.69133 0.75169,8.40277 0.29531,0.53692 0.42954,1.15437 0.61746,1.74499 -0.0806,-0.0269 -0.18792,-0.0806 -0.24161,-0.10738 -0.32215,0.48322 -0.80539,0.91275 -0.88592,1.42283 -0.349,1.87921 -0.69799,3.81212 -0.80538,5.69133 -0.24162,4.13427 0.29531,8.18801 0.9396,12.2149 1.18123,7.86586 4.16112,15.06057 8.48332,21.69151 0.75169,1.15437 1.39599,2.41613 1.93291,3.70474 0.88591,2.25505 1.69129,4.53696 2.52351,6.81887 1.20807,3.30204 3.16783,5.93295 6.12088,7.839 1.18121,0.77854 2.33559,1.50337 3.48997,2.28191 2.2819,1.50337 4.5638,3.03359 6.81886,4.53696 0.37584,0.24161 0.69799,0.51007 1.02014,0.80537 0.34901,-0.45638 0.64431,-0.83222 0.91277,-1.18121 1.53021,-1.74499 2.73828,-2.0403 4.80541,-0.9933 1.15438,0.56376 2.22822,1.34229 3.3826,1.9329 2.2282,1.15438 4.37588,2.36245 6.68464,3.30206 2.46981,0.96644 5.04702,1.31544 7.65108,0.0269 2.22821,-1.12753 2.49668,-0.91276 3.78528,1.23491 0.51007,0.85907 1.07383,1.79868 2.12082,2.04029 1.6376,0.40269 3.35574,0.69799 5.0202,0.91276 0.85906,0.13424 1.58391,-0.24161 2.12082,-1.02014 0.67114,-0.9933 1.69129,-1.50337 2.87251,-1.58391 0.69799,-0.0537 1.47653,-0.0269 2.22822,0.0806 2.09398,0.32215 4.16111,0.26846 6.20141,-0.42954 1.44968,-0.51007 2.95305,-0.96645 4.42957,-1.39599 1.53022,-0.40269 3.14098,-0.80537 4.72488,-0.24161 2.20137,0.77853 4.21481,0.40269 6.14773,-0.6443 2.01344,-1.10069 3.97319,-2.36245 5.87925,-3.6779 1.15438,-0.77852 2.41613,-1.10068 3.75843,-0.99329 0.77853,0.0537 1.55706,0.24161 2.3356,0.21477 0.83223,-0.0269 1.66444,-0.21477 2.46983,-0.45639 0.61745,-0.16108 0.77852,-0.69799 0.5906,-1.28861 -0.16107,-0.53691 -0.32215,-1.04698 -0.53691,-1.61075 -0.26846,-0.80537 -0.16108,-1.47653 0.5906,-1.9329 2.73829,-1.82553 4.85912,-4.34904 7.11417,-6.6578 1.79868,-1.87921 3.81213,-3.40943 6.22826,-4.37588 1.47653,-0.61746 2.89936,-1.31545 4.37589,-1.95975 1.39599,-0.61746 1.42284,-0.698 0.77853,-2.0403 -0.29531,-0.61745 -0.59061,-1.2349 -0.75168,-1.87921 -0.32216,-1.15438 0.34899,-1.71814 1.47652,-1.36914 0.37584,0.13423 0.69799,0.32215 1.04699,0.51008 1.2886,0.75168 1.95976,0.37584 1.9866,-1.12754 0,-1.12753 0.0269,-2.36244 -0.29531,-3.40943 -0.56376,-1.93291 -0.16108,-3.6242 1.04699,-5.10072 1.20807,-1.53022 2.60406,-2.9799 3.91951,-4.48327 0.59061,-0.67116 1.23491,-1.31545 1.74498,-2.01345 0.67116,-1.04699 0.59062,-2.04029 -0.2953,-2.89936 -0.48322,-0.51007 -0.9933,-0.9396 -1.53022,-1.36915 -1.71814,-1.39598 -1.82552,-2.09397 -0.48322,-3.8658 0.48322,-0.59062 0.99329,-1.15438 1.50337,-1.71815 0.61745,-0.69799 1.2349,-1.36914 1.90606,-2.06713 -1.74499,-1.42284 -3.40943,-2.81882 -5.12758,-4.21481 1.15438,-1.26176 2.25506,-2.49668 3.38259,-3.75844 -0.42954,-0.24161 -0.75169,-0.42953 -1.07383,-0.67114 -0.91277,-0.56376 -1.87922,-1.12753 -2.73829,-1.79867 -1.07384,-0.85908 -1.15438,-1.61076 -0.51007,-2.79198 0.59061,-1.02015 1.12753,-2.01345 1.74498,-3.06044 -0.48322,-0.13423 -0.91276,-0.21477 -1.26176,-0.37585 -1.26176,-0.42953 -2.55036,-0.83221 -3.70474,-1.44968 -1.18121,-0.64429 -1.26175,-1.61075 -0.37584,-2.65774 2.22822,-2.60405 5.71818,-2.9799 8.42962,-0.91276 1.77183,1.31545 2.89936,3.14097 3.86582,5.07388 4.64434,9.18131 5.2618,18.7653 2.76513,28.61775 -2.41614,9.50347 -6.6041,18.25524 -11.35583,26.73855 -0.6443,1.18122 -1.26176,2.36244 -1.77183,3.59736 -0.48323,1.15437 -0.45638,2.36243 0.13423,3.54366 0.48323,0.96645 0.96645,1.95975 1.50338,2.89936 1.23491,1.9329 2.73828,3.57051 4.48326,5.02019 3.94636,3.35574 8.34909,3.73158 13.07397,2.06713 1.66444,-0.5906 1.66444,-0.56376 1.66444,-2.3356 v -9.85245 c -1.9329,-0.85907 -3.75842,-1.58391 -5.50341,-2.52351 -3.14097,-1.71814 -5.71818,-4.21481 -8.21485,-6.76518 -0.40269,-0.42953 -0.40269,-0.75169 -0.16108,-1.31545 1.55707,-3.19466 3.16782,-6.33564 4.53697,-9.63769 3.46312,-8.00008 5.93295,-16.29547 6.22825,-25.07409 0.13423,-3.94636 -0.18792,-7.73163 -2.06713,-11.35583 -0.85908,-1.61075 -1.28861,-3.46313 -1.82553,-5.23496 -0.26846,-0.96644 -0.18792,-1.98659 0.37584,-2.84567 0.56377,-0.91275 1.31545,-1.02014 2.04029,-0.26845 0.45638,0.53691 0.83223,1.10068 1.10069,1.71813 1.02014,2.41614 1.98659,4.83228 2.9799,7.22156 0.10738,0.24161 0.26845,0.48323 0.34899,0.72484 0.16107,-2.41613 0.21477,-4.77858 0.13423,-7.16786 0,-0.59062 -0.18792,-1.23491 -0.40269,-1.74498 -1.02015,-2.09399 -2.04029,-4.16112 -3.03359,-6.25511 -0.13422,-0.21477 -0.16107,-0.61745 -0.0805,-0.80537 0.61745,-1.10069 2.20136,-1.3423 3.16781,-0.56377 0.0537,0.0537 0.16108,0.10738 0.29531,0.18792 0.34899,-1.71814 0.24161,-3.16782 -1.58391,-3.89266 -0.18792,-0.0806 -0.349,-0.21477 -0.51007,-0.32215 -0.77854,-0.61746 -1.53022,-1.23491 -2.25506,-1.85237 0.0269,-0.0537 0.0806,-0.16107 0.13423,-0.21477 1.39598,0.349 2.81882,0.69799 4.2685,1.047 v -2.57721 c -0.32215,-0.0537 -0.61745,-0.18792 -0.88592,-0.21477 -2.04029,-0.18792 -4.08057,-0.45639 -6.09402,-0.51008 -2.92621,-0.13423 -5.28864,-0.99329 -6.5504,-3.8658 -0.93961,-2.09399 -0.72485,-4.05374 0.9396,-5.63765 0.9933,-0.96646 2.22821,-1.77183 3.43628,-2.44298 2.6309,-1.39599 5.44973,-2.09398 8.37593,-2.52352 0.29531,-0.0537 0.77853,-0.37584 0.77853,-0.59061 0.0806,-1.69129 0.0269,-3.40944 0.0269,-5.18127 -0.21476,0.0269 -0.37584,0.0806 -0.51006,0.10739 -5.20812,1.31545 -10.44308,2.60405 -15.65118,3.94635 -0.53693,0.13423 -0.80538,0 -1.12753,-0.37584 -1.50337,-1.82552 -3.08728,-3.6779 -4.67119,-5.50342 -0.18792,-0.24161 -0.349,-0.45637 -0.61746,-0.80538 0.40269,-0.0806 0.64431,-0.10738 0.83223,-0.13423 1.9329,-0.51007 4.10742,-0.61745 5.69133,-1.61075 1.95975,-1.23491 3.57051,-3.08728 5.10072,-4.85911 1.20807,-1.39599 0.77854,-2.65775 -0.88591,-3.46313 -0.6443,-0.26846 -1.36914,-0.51007 -2.04029,-0.75168 4.48328,-1.87921 8.83232,-4.00005 13.8525,-3.6779 v -2.52352 c -1.18122,0.48324 -2.3356,1.10069 -3.54366,1.39599 -2.22822,0.51008 -4.48327,0.96646 -6.73833,1.20807 -5.71818,0.72485 -9.55715,3.78528 -11.65113,9.12762 -1.42283,3.67789 -1.93291,7.51686 -2.22822,11.40952 -0.21476,3.11413 -0.34899,6.28194 -0.56376,9.39607 -0.13423,1.95976 -0.96645,3.54367 -2.68459,4.69804 -0.59061,-0.6443 -1.15438,-1.18122 -1.6376,-1.82553 -0.32215,-0.42953 -0.72485,-0.9396 -0.75169,-1.42283 -0.0806,-1.18122 -0.13423,-2.38928 0,-3.5705 0.18792,-1.58391 0.83223,-2.95306 2.49667,-3.59736 0.21477,-0.10739 0.51007,-0.40269 0.56376,-0.6443 0.18793,-1.04699 0.29532,-2.14768 0.45639,-3.3289 -0.51008,0.13424 -0.77854,0.18793 -1.07384,0.26847 -2.01344,0.42953 -4.02689,0.96644 -6.04033,1.34229 -0.51008,0.10738 -1.12753,-0.18793 -1.69129,-0.29531 0.16107,-0.51007 0.24161,-1.10068 0.53691,-1.50337 0.85908,-1.31545 1.85237,-2.60405 2.76513,-3.94635 0.29531,-0.42954 0.48323,-0.9933 0.77853,-1.61076 -2.95305,0.56377 -5.10072,-0.40269 -6.20141,-2.52351 1.28861,-0.42954 2.6846,-0.75169 3.89267,-1.28861 1.12753,-0.53692 1.23491,-1.36914 0.45637,-2.33559 -0.37584,-0.48323 -0.83221,-0.93962 -1.2886,-1.3423 -0.9396,-0.83222 -1.95975,-1.6376 -2.81882,-2.57721 -0.42954,-0.45638 -0.80538,-1.10068 -0.85907,-1.69129 -0.10738,-1.28861 -0.10738,-2.63091 0.0537,-3.89266 0.88591,-6.09403 3.78527,-11.11421 8.21485,-15.30218 3.14098,-3.03359 6.79202,-5.39603 10.49676,-7.73163 1.15438,-0.69799 2.2819,-1.53022 3.24836,-2.46982 1.07384,-0.9933 0.77853,-1.90607 -0.6443,-2.3356 -1.02015,-0.26846 -2.09399,-0.42953 -3.08729,-0.83223 -4.75173,-1.95974 -8.886,-4.83226 -12.64442,-8.34907 -4.29535,-4.10743 -7.40949,-9.04708 -9.98669,-14.38942 -4.72489,-9.93299 -11.5169,-18.20154 -20.32237,-24.80564 -5.39603,-4.02689 -11.32897,-6.97994 -18.17469,-7.78531 -2.41613,-0.29531 -3.73159,0.53691 -4.24165,2.9262 -0.42955,1.9866 -0.64431,4.05374 -1.07384,6.04033 -1.23492,5.6108 -3.11413,10.95314 -6.17456,15.89279 -1.745,2.84567 -4.00005,4.85912 -7.30209,5.63765 -3.35575,0.75169 -5.87927,2.76513 -7.89271,5.42288 -1.50337,1.87921 -2.95305,3.78527 -4.34904,5.74502 -3.2752,4.42958 -7.62424,6.60411 -13.12766,6.28195 -2.60405,-0.16108 -5.20811,-0.37584 -7.78532,-0.59061 -4.69804,-0.42953 -9.12761,0.42953 -13.04712,3.11413 -1.77183,1.23491 -3.08728,2.76513 -3.46312,4.99334 -0.21477,1.39599 0.13423,2.71143 0.72483,3.97319 0.698,1.50337 1.50337,3.00675 2.12084,4.56382 0.9933,2.68458 0.48322,4.13426 -1.90606,5.69133 -0.88592,0.59061 -1.82553,1.07383 -2.73829,1.6913 -1.34229,0.9396 -1.74499,1.98659 -1.36914,3.59735 0.16108,0.6443 0.32215,1.2886 0.40269,1.93291 0.2953,1.6376 -0.24161,3.14097 -1.10069,4.53696 -1.3423,2.33559 -1.12753,4.5638 0.53693,6.65778 0.64429,0.83223 1.36913,1.61077 2.04028,2.41614 0.40269,0.48322 0.80538,0.96645 1.12753,1.47652 0.48323,0.83223 0.32215,1.47653 -0.53692,1.93291 -0.51007,0.32216 -1.10068,0.56377 -1.71814,0.698 -1.55706,0.32215 -3.16782,0.5906 -4.77857,0.91276 -2.55037,0.51007 -5.04704,1.12752 -5.9061,4.08057" id="path58365"/>
        <path d="m 525.92316,116.74735 c -0.6443,0.16107 -1.31544,0.2953 -1.95975,0.48322 -4.16112,1.10069 -7.2484,3.6779 -9.63769,7.14102 -2.12082,3.16781 -3.54366,6.65779 -4.18796,10.38937 -0.26846,1.44968 0.0269,2.76513 1.2886,3.6242 5.3155,3.75844 9.71823,8.51016 14.60419,12.77867 2.14767,1.85236 4.24165,3.81212 6.33564,5.74502 1.55706,1.42284 1.79867,2.57721 0.91276,4.51012 -0.45638,1.02015 -1.10068,1.90605 -1.55707,2.89936 -0.67114,1.42283 -1.34229,2.84567 -1.87921,4.32219 -0.53692,1.53022 -0.21477,3.00674 0.85907,4.21481 1.18122,1.39599 2.46983,2.73829 3.73158,4.08058 1.74499,1.85237 3.51682,3.70475 5.3155,5.58396 0,-0.18792 0.0537,-0.40269 0.0537,-0.64431 0,-2.46982 0.0269,-4.93965 -0.0269,-7.46316 0,-0.42954 -0.26846,-1.02015 -0.5906,-1.26176 -1.71814,-1.26176 -3.48998,-2.49667 -5.36919,-3.57051 -2.20137,-1.26176 -2.71144,-2.52352 -1.26176,-4.6175 1.12753,-1.61076 2.52352,-3.00675 3.83897,-4.51012 0.6443,-0.69799 1.2886,-1.39599 2.04028,-1.98659 1.15438,-0.91277 1.53022,-1.9866 1.36915,-3.40943 -0.0806,-1.23492 0,-2.49668 0,-3.83897 -0.67115,0.34899 -1.28861,0.67114 -1.85237,0.9933 -0.75169,0.45638 -1.53022,0.48322 -2.25506,0.0806 -0.88591,-0.48324 -1.74498,-0.96646 -2.46982,-1.61076 -5.15442,-4.51012 -10.22831,-9.07393 -15.32903,-13.58404 -1.26176,-1.07384 -2.46982,-2.20136 -3.75843,-3.2752 -0.83222,-0.67116 -1.10068,-1.50337 -0.99329,-2.52352 0.0269,-0.18792 0.0537,-0.40269 0.10738,-0.59061 1.61076,-4.83227 4.2685,-8.9397 8.75177,-11.57059 0.69799,-0.45639 1.66445,-0.61746 2.52351,-0.61746 1.55707,0.0269 2.22822,1.34229 1.28861,2.60405 -0.6443,0.91277 -1.50337,1.71814 -2.33559,2.52352 -0.77854,0.80537 -1.69129,1.50337 -2.41614,2.33559 -0.91276,1.07384 -0.67114,1.82553 0.6443,2.17453 0.9933,0.24161 2.06714,0.21476 3.06044,0.51007 0.83222,0.21476 1.6913,0.53692 2.30875,1.12753 0.88592,0.77853 1.55706,1.79867 2.22821,2.76513 1.15438,1.74498 2.52352,3.22151 4.24166,4.34904 2.33559,1.55706 4.40273,3.38258 5.93295,5.71818 0.0806,0.0537 0.13423,0.0806 0.32215,0.21477 v -0.96646 -12.99343 c 0,-5.98664 -4.34904,-11.03367 -10.28199,-11.94643 -0.18792,-0.0269 -0.37584,-0.13423 -0.56376,-0.18792 z" style="fill:#000000;fill-opacity:1;fill-rule:evenodd;stroke:none;stroke-width:26.8459" id="path5890"/>
        <g id="g58480">
          <path d="m 405.89234,247.01721 c -0.26846,-0.96646 -0.51007,-1.79868 -0.80538,-2.87252 1.23491,0.42953 2.28191,0.75168 3.3289,1.10069 0,0.0537 0.0269,0.16107 0.0269,0.26845 -0.80538,0.48323 -1.61076,0.96646 -2.55037,1.50338 m -1.07384,0.42953 c -1.34229,0.18792 -2.49667,0.37585 -3.65104,0.53692 -0.10738,-0.0537 -0.21477,-0.13423 -0.26847,-0.21477 0.37586,-1.23491 0.7517,-2.49667 1.23492,-3.70474 0.0806,-0.2953 0.59061,-0.6443 0.83223,-0.61746 0.32215,0.0537 0.69799,0.45639 0.83221,0.77854 0.37585,0.96646 0.64431,1.98659 1.02015,3.22151 m -2.89936,-4.96649 c -1.36914,1.26176 -1.6376,2.89936 -1.95975,4.53696 -0.0537,0.45637 -0.37584,0.85907 -0.51008,1.31545 -0.13422,0.40268 -0.2953,0.83222 -0.16107,1.12753 0.10738,0.32215 0.59062,0.67114 0.91277,0.67114 3.9195,0.13423 7.49001,-0.85906 10.38937,-3.62419 1.23491,-1.15438 1.10068,-2.22822 -0.45638,-2.89936 -1.44968,-0.64431 -2.9799,-1.07384 -4.45642,-1.63761 -0.80539,-0.32215 -1.55707,-0.80537 -2.30876,-1.2886 -0.51007,-0.40269 -1.02015,-0.48323 -1.50337,-0.0806 -0.67114,0.59062 -0.45638,1.23492 0.0537,1.87923" style="fill:#ffffff;fill-opacity:1;fill-rule:evenodd;stroke:none;stroke-width:26.8459" id="path5896"/>
          <path d="m 414.05887,250.80249 c 0.0269,-0.99331 -0.85907,-1.58392 -1.61075,-1.18123 -0.13423,0.0537 -0.26846,0.16108 -0.349,0.24161 -3.51682,4.00005 -8.16116,5.02019 -13.18135,4.9665 -0.77853,0 -1.55707,-0.10739 -2.30875,-0.16108 -0.72484,-0.0537 -1.20806,0.21477 -1.39598,0.91277 -0.16108,0.5906 0.2953,1.23491 0.99329,1.31545 5.66449,0.61745 11.03368,0 15.65117,-3.65105 0.64431,-0.51007 1.23492,-1.15438 1.77184,-1.74499 0.24161,-0.21476 0.32215,-0.53691 0.42953,-0.69798" style="fill:#ffffff;fill-opacity:1;fill-rule:evenodd;stroke:none;stroke-width:26.8459" id="path5898"/>
        </g>
        <path d="m 462.74127,217.02225 c -4.16112,0 -7.27524,3.16782 -6.97994,7.14102 0.0806,1.82552 0.96646,3.35574 2.30875,4.45642 1.3423,1.10068 2.89936,1.90607 4.40274,2.76513 0.24161,0.16107 0.698,-0.0806 1.04699,-0.18792 -0.18792,-0.2953 -0.34899,-0.69799 -0.67115,-0.83222 -1.6913,-0.75169 -3.2752,-1.6913 -4.48327,-3.08729 -1.39599,-1.58391 -1.95975,-3.38258 -1.20807,-5.42287 0.75169,-2.09398 2.41614,-3.08729 4.45642,-3.57051 1.63761,-0.40269 3.24837,0.0269 4.69805,0.80538 0.88591,0.48323 1.6376,1.12752 2.52352,1.6376 0.24161,0.16108 0.64429,0.10739 0.96644,0.13423 -0.0806,-0.32215 0,-0.72484 -0.18792,-0.91276 -1.55706,-1.66445 -4.59065,-2.92621 -6.87256,-2.92621" style="fill:#ffffff;fill-opacity:1;fill-rule:evenodd;stroke:none;stroke-width:26.8459" id="path5900"/>
        <g id="g58556">
          <path id="path58363" style="fill:#ffffff;fill-opacity:1;fill-rule:nonzero;stroke:none;stroke-width:26.8459" d="m 399.73376,308.24518 c -3.65103,-6.44303 -6.76542,-13.04693 -8.93994,-20.05371 -0.18792,-0.56376 0.16176,-0.67144 0.5376,-0.80567 1.6913,-0.5906 3.38245,-1.26239 5.10059,-1.77246 7.62423,-2.2282 15.24832,-4.34847 22.8457,-6.60351 5.61079,-1.6913 11.06043,-3.732 16.18799,-6.63135 1.39599,-0.85907 2.14817,-2.17482 2.76562,-3.59766 0.29531,-0.69798 -0.10767,-1.07365 -0.80566,-0.83203 -0.80538,0.26845 -1.69117,0.61785 -2.38916,1.12793 -1.23491,0.88591 -2.55081,1.58416 -4.00049,2.04053 -5.79871,1.85237 -11.51729,3.99942 -17.55762,5.12695 -0.53692,0.10738 -1.17991,-0.10644 -1.79736,-0.1333 0.37584,-0.51007 0.67108,-1.12756 1.1543,-1.47656 1.77184,-1.36915 3.86452,-2.01338 5.98535,-2.5503 2.17452,-0.56377 4.34942,-0.99333 6.55078,-1.47656 -0.37584,-0.32215 -0.80484,-0.64453 -1.26123,-0.64453 -1.90605,0 -3.86637,-0.24206 -5.71875,0.10693 -7.94638,1.42283 -15.14106,4.64367 -21.85254,9.07325 -2.55036,1.69128 -4.88577,3.62511 -6.33545,6.68554 -0.1074,-0.2953 -0.16164,-0.40336 -0.21533,-0.53759 -0.42953,-2.41613 -0.96545,-4.80506 -1.2876,-7.24805 -0.51007,-3.73158 -0.40255,-7.51695 0.40283,-11.24854 0.13423,-0.51007 0.34881,-0.67039 0.83203,-0.6167 0.698,0.10738 1.42262,0.1343 2.14746,0.16114 7.57055,0.32215 15.06024,-0.35022 22.44288,-2.06836 8.05376,-1.87921 16.02727,-4.07986 24.0542,-6.20069 5.79871,-1.5302 11.54413,-3.35522 17.55761,-4.05322 1.95975,-0.24161 3.99918,-0.40342 5.79786,0.69727 3.2215,1.95974 6.71176,3.11392 10.4165,3.54345 4.34904,0.48323 8.00063,-1.61031 9.74561,-5.61035 1.44967,-3.30204 1.61074,-6.81963 1.31543,-10.39014 -0.0806,-1.42282 -0.64487,-2.65762 -1.53077,-3.78515 -0.4027,-0.48323 -0.72419,-1.01926 -0.93896,-1.60986 -0.2953,-0.83223 0.10626,-1.50342 0.96533,-1.47657 1.39599,0.0537 2.792,0.32137 4.18799,0.53614 0.16107,0.0537 0.34961,0.26812 0.37646,0.42919 0.37584,1.61076 1.58352,2.22914 2.9795,2.57813 1.9329,0.48324 3.91962,0.48277 5.82568,0.10693 3.86582,-0.80539 7.67862,-1.77179 11.54443,-2.63086 0.51007,-0.0805 1.20718,5.9e-4 1.60987,0.2959 0.91277,0.67114 1.77272,1.53008 2.49756,2.38916 0.72484,0.80537 1.28887,1.71818 2.12109,2.87256 -3.32889,0.85907 -6.38979,1.69072 -9.50391,2.4961 -0.349,0.0805 -0.72474,0 -1.07373,0 -0.0537,-0.0806 -0.0537,-0.18801 -0.0806,-0.2417 2.01343,-2.09397 4.85882,-2.06674 7.40918,-2.9795 -0.9396,-0.18792 -1.90608,-0.37592 -2.792,-0.2417 -4.77856,0.72484 -9.15422,2.5498 -13.07373,5.28809 -1.10068,0.72483 -2.013,1.71911 -2.89892,2.73926 -0.42953,0.48322 -0.72546,1.12671 -0.37647,1.85156 7.57054,-2.89936 15.5974,-4.10767 23.08741,-7.54394 2.41612,6.68462 2.76458,13.15496 -1.53077,19.11474 -2.60405,3.65104 -5.66363,6.98023 -8.58984,10.41651 -1.12753,1.28859 -2.44283,2.41544 -3.70459,3.56982 -0.72483,0.6443 -1.55699,0.94088 -2.55029,0.8335 -1.07383,-0.10738 -2.12099,-0.13473 -3.19483,-0.0542 -7.7853,0.37585 -15.59799,0.83217 -23.3833,1.23486 -0.61746,0.0537 -0.85874,0.48258 -0.4292,0.93897 0.56376,0.56375 1.20776,1.1012 1.90576,1.45019 1.23491,0.6443 2.5234,1.15403 3.78516,1.74463 0.21477,0.10739 0.40292,0.21587 0.64453,0.3501 -4.18796,1.47652 -8.29542,2.97852 -12.40283,4.34765 -0.85907,0.2953 -1.74495,0.34965 -2.63086,0.45704 -0.26846,0.0269 -0.59092,-0.13479 -0.88623,-0.21534 0.13423,-0.32215 0.21542,-0.69783 0.45703,-0.91259 1.15438,-1.23492 2.68417,-1.63778 4.29492,-1.8794 1.53022,-0.24162 3.03424,-0.37458 4.56446,-0.5625 0.0269,-0.0806 0.0537,-0.13527 0.0806,-0.18896 -0.48322,-0.2953 -0.96648,-0.75102 -1.47656,-0.8584 -1.10068,-0.18792 -2.25527,-0.37545 -3.35596,-0.26807 -5.07386,0.42953 -9.69196,2.3076 -14.01416,4.99219 -2.12082,1.31545 -4.0527,2.84554 -5.31445,5.10058 -0.13424,0.26846 -0.51037,0.40287 -0.80567,0.4834 -4.37588,1.10068 -8.77945,2.20124 -13.34326,2.38916 -3.06042,0.16108 -6.06734,0.2683 -8.69824,-1.79882 -0.10738,-0.10738 -0.59036,-0.0528 -0.6709,0.0278 -0.0806,0.24162 -0.13423,0.5899 0,0.77783 0.80538,1.23491 1.63849,2.39007 2.49756,3.57129 0.16108,0.18792 0.26812,0.42979 0.4292,0.7251 -4.75173,0.10738 -9.3419,0.66995 -13.74463,2.11963 -4.48328,1.44967 -8.56467,3.57154 -11.94727,7.00781 z m 55.15284,-34.73877 c 6.44301,0 12.67108,-0.99355 18.65771,-3.43653 5.18127,-2.14766 10.41652,-4.1347 15.91993,-5.31591 0.61745,-0.13423 1.28781,0.0537 1.93212,0.0806 -0.32216,0.59061 -0.50943,1.28826 -0.93896,1.74463 -1.71814,1.6376 -3.89338,2.28242 -6.12158,2.84619 -1.55706,0.349 -3.11437,0.64515 -4.83252,1.021 1.02015,0.91276 2.09512,1.18069 3.22265,1.26123 2.76513,0.16108 5.36811,-0.64437 7.94532,-1.55713 5.23495,-1.85237 10.0415,-4.51012 14.14892,-8.21484 1.61075,-1.44968 2.97996,-3.22231 4.26856,-4.96729 0.85908,-1.15438 1.15325,-2.57718 0.96533,-4.02685 -4.91281,2.20136 -10.0941,3.46347 -15.19483,5.07421 -11.67796,3.6242 -23.40934,7.14123 -34.8457,11.57081 -1.87922,0.72482 -3.67837,1.638 -5.47705,2.52392 -0.37584,0.21476 -0.61729,0.64369 -0.9126,1.01953 0.42954,0.10739 0.86001,0.37647 1.2627,0.37647 z"/>
          <path d="m 522.36608,251.79041 c 0.6443,-2.87251 1.3423,-5.6108 1.82552,-8.37593 0.32215,-1.77183 0.48323,-3.65104 0.45639,-5.47657 -0.0269,-2.95305 -1.6913,-4.29535 -4.64436,-3.81212 -0.0806,0.0537 -0.18792,0.0537 -0.24161,0.0806 -3.40943,0.77853 -4.96649,1.74498 -4.48327,6.73832 0.32215,3.08729 1.55707,5.87927 3.48997,8.32224 0.96646,1.18122 2.0403,2.20137 3.59736,2.52352" style="fill:#ffffff;fill-opacity:1;fill-rule:evenodd;stroke:none;stroke-width:26.8459" id="path5894"/>
        </g>
      </g>
    </g>
    <g id="g58789" transform="matrix(1.0042194,0,0,1.0042194,-1.3802255,-1.7634196)">
      <path id="path5956" style="fill:#e30813;fill-opacity:1;fill-rule:nonzero;stroke:none;stroke-width:26.8459" d="m 539.25281,-105.13227 v -59.16797 l 12.86279,-8.88575 12.8628,8.88575 v 59.16797 z" sodipodi:nodetypes="cccccc"/>
      <path id="path5958" style="fill:#e30813;fill-opacity:1;fill-rule:nonzero;stroke:none;stroke-width:26.8459" d="M 539.28504,408.12702 V 112.9859 l -186.74122,-0.10694 17.82569,-54.766113 41.02148,-0.161133 -0.0278,-86.084474 23.67773,-36.698732 V 57.790582 l 45.82618,-0.08057 -0.0527,-174.726562 23.65137,-22.71094 V 57.790582 h 34.79151 V 17.898491 H 564.974 v 39.892091 h 34.79151 V -139.72749 l 23.65137,22.71094 -0.0527,174.726565 45.82617,0.08057 V -64.831492 l 23.67774,36.698732 -0.0278,86.084474 41.02148,0.161133 17.82569,54.766113 -186.74122,0.10694 v 295.14112 z" sodipodi:nodetypes="ccccccccccccccccccccccccccccc"/>
    </g>
    <path id="path5960" style="color:#000000;fill:#1d1d1b;stroke-width:26.9592;stroke-miterlimit:10" d="m 553.06496,417.93268 -221.89521,-91.56686 -3.26421,-1.36806 -0.15887,-3.52899 C 320.5595,129.82894 375.9102,4.1987973 433.26768,-73.335084 490.62513,-150.86894 550.37152,-180.64632 550.37152,-180.64632 l 2.69344,-1.42102 2.69345,1.42102 c 0,0 59.74639,29.77738 117.10385,107.311236 57.35747,77.5338813 112.70817,203.164024 105.521,394.803854 l -0.15886,3.52899 -3.26421,1.36806 z m 0,-11.95208 214.10175,-88.35561 C 773.41761,130.39656 719.64022,8.3828887 664.017,-66.806677 610.29627,-139.42452 557.42258,-166.6222 553.06496,-168.85165 548.70735,-166.6222 495.83367,-139.42452 442.11294,-66.806677 386.48972,8.3828887 332.71233,130.39656 338.96323,317.62499 Z"/>
    <g id="g57936" transform="matrix(0.99996336,0,0,0.99996336,0.01198503,0.01531014)">
      <path d="m 420.19031,79.203996 5.49988,10.972797 5.49988,-10.972797 z M 410.6464,101.50007 383.17397,67.611116 h 28.49692 l 3.77443,3.639625 h 21.40639 l 2.74994,-2.669059 h 29.71012 l -26.77146,32.918388 z" style="fill:#ffffff;fill-opacity:1;fill-rule:nonzero;stroke:none;stroke-width:26.9602" id="path5964"/>
      <path d="m 671.52666,79.203996 5.49988,10.972797 5.49988,-10.972797 z m 22.35,22.296074 H 662.00971 L 634.51032,67.611116 h 28.49692 l 3.77443,3.639625 h 21.40639 l 2.74994,-2.669059 h 29.6562 z" style="fill:#ffffff;fill-opacity:1;fill-rule:nonzero;stroke:none;stroke-width:26.9602" id="path5966"/>
      <path d="m 520.94323,85.577385 c 0,-22.296076 61.92755,-16.283954 61.92755,-16.283954 v 10.972797 c 0,0 -32.27135,-7.09053 -32.27135,5.311157 0,12.401686 32.27135,5.311157 32.27135,5.311157 v 10.972798 c 0,0 -61.92755,6.01212 -61.92755,-16.283955" style="fill:#ffffff;fill-opacity:1;fill-rule:nonzero;stroke:none;stroke-width:26.9602" id="path5968"/>
    </g>
  </g>
</svg>