<svg xmlns="http://www.w3.org/2000/svg" xmlns:xlink="http://www.w3.org/1999/xlink" width="515.11pt" height="405.82pt" viewBox="0 0 515.11 405.82" version="1.1">
<defs>
<clipPath id="clip1">
  <path d="M 52 0 L 459 0 L 459 405.820313 L 52 405.820313 Z M 52 0 "/>
</clipPath>
<clipPath id="clip2">
  <path d="M 0 146 L 515.109375 146 L 515.109375 270 L 0 270 Z M 0 146 "/>
</clipPath>
</defs>
<g id="surface1">
<g clip-path="url(#clip1)" clip-rule="nonzero">
<path style=" stroke:none;fill-rule:evenodd;fill:rgb(0.39978%,0%,39.99939%);fill-opacity:1;" d="M 255.585938 0 C 367.652344 0 458.492188 90.84375 458.492188 202.910156 C 458.492188 314.976563 367.652344 405.820313 255.585938 405.820313 C 143.515625 405.820313 52.675781 314.976563 52.675781 202.910156 C 52.675781 90.84375 143.515625 0 255.585938 0 "/>
</g>
<path style=" stroke:none;fill-rule:evenodd;fill:rgb(60.398865%,80.799866%,99.198914%);fill-opacity:1;" d="M 256.628906 92.335938 C 317.554688 92.335938 366.945313 141.726563 366.945313 202.644531 C 366.945313 263.570313 317.554688 312.957031 256.628906 312.957031 C 195.710938 312.957031 146.324219 263.570313 146.324219 202.644531 C 146.324219 141.726563 195.710938 92.335938 256.628906 92.335938 "/>
<path style=" stroke:none;fill-rule:evenodd;fill:rgb(100%,100%,100%);fill-opacity:1;" d="M 317.691406 78.390625 L 326.742188 84.066406 L 332.472656 77.40625 L 339.480469 81.800781 L 336.039063 89.886719 L 345.019531 95.5 L 360.746094 51.894531 L 350.117188 45.207031 Z M 337.703125 71.03125 L 342.859375 74.308594 L 350.789063 55.894531 Z M 281.996094 67.46875 L 294.007813 23.824219 L 304.664063 26.722656 L 305.714844 56.078125 C 306.605469 51.394531 307.410156 47.414063 308.15625 44.058594 C 308.925781 40.738281 309.617188 37.933594 310.246094 35.691406 L 312.128906 28.8125 L 321.230469 31.289063 L 309.238281 75.019531 L 298.539063 72.023438 L 297.683594 41.917969 C 297.070313 45.691406 296.390625 49.21875 295.636719 52.671875 C 294.894531 56.140625 294.058594 59.460938 293.195313 62.625 L 291.152344 69.996094 Z M 240.613281 66.734375 L 249.613281 21.253906 L 262.175781 20.953125 L 272.859375 66.070313 L 262.265625 66.285156 L 260.777344 57.660156 L 252.453125 57.8125 L 251.316406 66.492188 Z M 253.367188 49.570313 L 259.441406 49.503906 L 256.03125 29.753906 Z M 205.191406 76.96875 L 216.335938 73.40625 C 220.441406 72.136719 223.296875 70.773438 225.074219 69.488281 C 226.835938 68.15625 227.984375 66.46875 228.566406 64.378906 C 229.078125 62.777344 229.183594 60.859375 228.855469 58.597656 C 228.566406 56.433594 227.515625 52.445313 225.6875 46.671875 C 223.820313 40.933594 222.425781 37.027344 221.378906 35.09375 C 220.339844 33.101563 219.1875 31.582031 217.851563 30.546875 C 216.160156 29.234375 214.203125 28.484375 212.035156 28.441406 C 209.808594 28.328125 206.695313 28.941406 202.65625 30.246094 L 191.484375 33.773438 Z M 204.210938 38.613281 L 212.871094 65.828125 C 213.078125 65.808594 213.285156 65.757813 213.476563 65.726563 C 213.632813 65.671875 213.96875 65.570313 214.332031 65.457031 C 215.382813 65.128906 216.289063 64.648438 216.859375 64.136719 C 217.542969 63.585938 217.9375 62.953125 218.195313 62.179688 C 218.394531 61.519531 218.339844 60.421875 218.023438 58.890625 C 217.644531 57.355469 216.84375 54.378906 215.382813 50.011719 L 214.824219 48.078125 C 213.632813 44.472656 212.820313 42.082031 212.277344 40.824219 C 211.761719 39.640625 211.234375 38.855469 210.75 38.476563 C 210.140625 38 209.414063 37.710938 208.578125 37.675781 C 207.703125 37.605469 206.695313 37.761719 205.550781 38.121094 C 205.179688 38.234375 204.867188 38.347656 204.714844 38.390625 C 204.496094 38.476563 204.339844 38.527344 204.210938 38.613281 M 170.136719 98.78125 L 152.871094 55.769531 L 163.285156 48.710938 L 196.847656 80.675781 L 187.988281 86.648438 L 182.070313 80.167969 L 175.140625 84.898438 L 178.964844 92.800781 Z M 171.457031 77.511719 L 176.554688 74.109375 L 162.90625 59.460938 "/>
<path style=" stroke:none;fill-rule:evenodd;fill:rgb(100%,100%,100%);fill-opacity:1;" d="M 221.785156 329.28125 L 223.5625 321.355469 L 231.863281 323.113281 L 233.910156 323.503906 L 232.089844 331.542969 Z M 406.816406 306.289063 L 368.4375 282.230469 L 374.769531 272.144531 C 376.832031 268.824219 378.472656 266.503906 379.746094 265.164063 C 381 263.863281 382.292969 263.023438 383.597656 262.539063 C 385.203125 262 386.824219 261.894531 388.4375 262.199219 C 390.117188 262.457031 391.84375 263.148438 393.660156 264.308594 C 395.917969 265.664063 397.472656 267.183594 398.53125 268.910156 C 399.5 270.667969 399.957031 272.628906 399.921875 274.855469 C 402.863281 272.871094 406.730469 273.207031 411.441406 275.949219 C 411.476563 275.992188 411.511719 276.039063 411.511719 276.039063 C 412.046875 276.304688 412.769531 276.734375 413.652344 277.28125 C 418.015625 279.921875 421.203125 280.886719 423.132813 280.21875 L 416.59375 290.75 C 415.601563 290.472656 414.675781 290.109375 413.738281 289.667969 C 412.769531 289.238281 411.847656 288.726563 410.855469 288.074219 C 410.242188 287.675781 409.449219 287.253906 408.609375 286.640625 C 407.742188 286.054688 407.230469 285.683594 406.9375 285.511719 C 404.617188 284.035156 402.796875 283.371094 401.589844 283.421875 C 400.339844 283.507813 399.191406 284.34375 398.199219 285.898438 L 397.058594 287.761719 L 412.398438 297.386719 Z M 389.964844 283.300781 C 390.050781 283.175781 390.164063 283 390.386719 282.773438 C 390.5625 282.550781 390.683594 282.414063 390.683594 282.273438 C 391.894531 280.410156 392.339844 278.851563 392.070313 277.574219 C 391.792969 276.371094 390.785156 275.226563 389.019531 274.058594 C 387.378906 273.066406 385.960938 272.671875 384.78125 273.066406 C 383.597656 273.363281 382.449219 274.476563 381.269531 276.320313 C 381.183594 276.460938 381.113281 276.648438 380.984375 276.867188 C 380.84375 277.140625 380.714844 277.332031 380.65625 277.503906 Z M 356.898438 325.558594 C 353.1875 321.550781 350.566406 318.523438 349.210938 316.433594 C 347.789063 314.292969 346.890625 312.464844 346.5625 310.808594 C 346.183594 308.480469 346.355469 306.203125 347.234375 304.0625 C 348.101563 301.9375 349.695313 299.816406 351.800781 297.851563 C 353.957031 295.816406 356.132813 294.398438 358.289063 293.726563 C 360.507813 293.058594 362.769531 293.007813 365.027344 293.542969 C 366.71875 293.964844 368.582031 294.976563 370.566406 296.488281 C 372.527344 298.0625 375.402344 300.894531 379.128906 304.832031 C 382.742188 308.78125 385.359375 311.800781 386.78125 313.90625 C 388.203125 316.082031 389.085938 317.972656 389.371094 319.664063 C 389.765625 321.949219 389.550781 324.207031 388.660156 326.324219 C 387.835938 328.496094 386.3125 330.5625 384.191406 332.605469 C 382.078125 334.554688 379.859375 335.960938 377.660156 336.660156 C 375.453125 337.386719 373.183594 337.410156 370.878906 336.886719 C 369.273438 336.46875 367.445313 335.460938 365.492188 333.941406 C 363.453125 332.339844 360.644531 329.578125 356.898438 325.558594 M 373.949219 315.273438 L 368.394531 309.230469 C 364.992188 305.554688 362.640625 303.535156 361.363281 303.105469 C 360.039063 302.640625 358.835938 302.992188 357.582031 304.117188 C 356.425781 305.226563 356.011719 306.460938 356.371094 307.738281 C 356.726563 309.09375 358.609375 311.578125 362.019531 315.183594 L 367.539063 321.179688 C 370.878906 324.78125 373.226563 326.773438 374.5625 327.296875 C 375.867188 327.765625 377.144531 327.417969 378.328125 326.324219 C 379.527344 325.246094 379.945313 323.949219 379.636719 322.632813 C 379.269531 321.355469 377.351563 318.851563 373.949219 315.273438 M 332.585938 366.03125 L 341.964844 361 L 333.773438 345.667969 L 337.046875 343.917969 C 341.1875 341.757813 343.769531 338.992188 344.804688 335.753906 C 345.761719 332.519531 345.199219 328.910156 343.046875 324.839844 C 341.746094 322.429688 340.230469 320.472656 338.539063 319.136719 C 336.742188 317.730469 334.941406 317.03125 332.976563 316.9375 C 331.507813 316.78125 329.910156 317.03125 328.097656 317.617188 C 326.371094 318.210938 323.785156 319.359375 320.375 321.179688 L 311.203125 326.097656 Z M 329.753906 338.265625 C 329.945313 338.203125 330.101563 338.179688 330.324219 338.035156 C 330.496094 337.984375 330.785156 337.828125 331.066406 337.71875 C 332.9375 336.714844 334.050781 335.566406 334.363281 334.203125 C 334.757813 332.847656 334.476563 331.308594 333.421875 329.324219 C 332.542969 327.695313 331.507813 326.773438 330.1875 326.566406 C 328.9375 326.273438 327.296875 326.738281 325.207031 327.851563 L 324.429688 328.316406 Z M 284.921875 364.488281 L 294.316406 362.148438 L 294.671875 363.425781 C 295.242188 365.878906 295.9375 367.464844 296.734375 368.300781 C 297.550781 369.214844 298.695313 369.464844 300.011719 369.09375 C 301.09375 368.820313 301.851563 368.277344 302.359375 367.328125 C 302.773438 366.472656 302.800781 365.378906 302.488281 364.039063 C 301.964844 361.890625 299.898438 360.234375 296.40625 359.011719 C 295.785156 358.808594 295.398438 358.640625 295.035156 358.585938 C 294.984375 358.570313 294.757813 358.433594 294.449219 358.371094 C 289.660156 356.613281 286.589844 355.144531 285.183594 353.980469 C 284.230469 353.097656 283.359375 352.046875 282.675781 350.785156 C 281.925781 349.5625 281.425781 348.179688 281.03125 346.546875 C 280.078125 342.726563 280.460938 339.457031 282.152344 336.714844 C 283.84375 333.941406 286.589844 332.113281 290.496094 331.101563 C 294.757813 330.078125 298.253906 330.335938 301.039063 331.976563 C 303.785156 333.53125 305.699219 336.417969 306.691406 340.484375 C 306.792969 340.664063 306.84375 340.90625 306.84375 341.21875 C 306.882813 341.542969 306.949219 341.757813 307.019531 341.898438 L 297.796875 344.191406 L 297.613281 343.652344 C 297.140625 341.675781 296.476563 340.328125 295.59375 339.5 C 294.84375 338.660156 293.765625 338.351563 292.714844 338.644531 C 291.703125 338.867188 290.996094 339.414063 290.609375 340.242188 C 290.191406 341.128906 290.125 342.140625 290.410156 343.25 C 290.824219 345.082031 293.015625 346.636719 296.847656 347.941406 C 297.550781 348.179688 298.125 348.394531 298.492188 348.507813 C 298.847656 348.574219 299.265625 348.765625 299.8125 348.964844 C 303.964844 350.355469 306.792969 351.734375 308.15625 353.011719 C 309.039063 353.882813 309.808594 354.917969 310.4375 356.101563 C 311.101563 357.289063 311.566406 358.671875 311.9375 360.148438 C 313.050781 364.59375 312.765625 368.207031 311.015625 371.148438 C 309.339844 374.117188 306.398438 376.164063 302.152344 377.1875 C 297.640625 378.265625 294.058594 377.921875 291.222656 376.207031 C 288.503906 374.511719 286.5 371.460938 285.378906 366.941406 C 285.351563 366.644531 285.183594 366.320313 285.15625 366.015625 C 285.136719 365.6875 285.007813 365.175781 284.921875 364.488281 M 241.710938 381.449219 L 241.996094 336.132813 L 253.910156 336.175781 C 257.8125 336.21875 260.640625 336.417969 262.382813 336.835938 C 264.195313 337.1875 265.5625 337.789063 266.664063 338.730469 C 267.941406 339.785156 268.953125 341.078125 269.574219 342.640625 C 270.203125 344.191406 270.515625 346.039063 270.515625 348.179688 C 270.460938 350.785156 269.984375 352.96875 269.121094 354.703125 C 268.15625 356.460938 266.710938 357.886719 264.773438 359.050781 C 268.046875 360.519531 269.761719 363.96875 269.890625 369.421875 L 269.890625 369.550781 C 269.933594 370.175781 269.933594 370.976563 269.933594 372.054688 C 269.984375 377.128906 270.785156 380.339844 272.445313 381.675781 L 260.054688 381.589844 C 259.769531 380.597656 259.589844 379.585938 259.441406 378.578125 C 259.355469 377.570313 259.234375 376.445313 259.320313 375.28125 C 259.234375 374.511719 259.355469 373.644531 259.40625 372.652344 C 259.441406 371.640625 259.441406 370.941406 259.441406 370.605469 C 259.441406 367.894531 259.113281 365.949219 258.378906 364.9375 C 257.699219 363.96875 256.335938 363.425781 254.449219 363.375 L 252.296875 363.375 L 252.203125 381.546875 Z M 252.410156 355.054688 C 252.539063 355.09375 252.765625 355.09375 253.058594 355.144531 C 253.351563 355.09375 253.550781 355.144531 253.675781 355.144531 C 255.878906 355.144531 257.414063 354.703125 258.378906 353.824219 C 259.234375 352.96875 259.769531 351.433594 259.769531 349.359375 C 259.769531 347.445313 259.320313 346.039063 258.421875 345.253906 C 257.457031 344.402344 255.949219 344.035156 253.789063 343.984375 L 253.105469 343.984375 C 252.847656 344.035156 252.640625 344.035156 252.425781 344.035156 Z M 211.328125 375.957031 L 221.191406 331.699219 L 231.511719 334.097656 L 221.660156 378.234375 Z M 155.132813 352.425781 L 164.140625 356.921875 L 179.058594 325.28125 L 169.644531 359.800781 L 176.902344 363.425781 L 199.109375 335.460938 L 182.46875 366.257813 L 191.398438 370.804688 L 211.898438 330.335938 L 198.742188 323.707031 L 186.5625 338.957031 C 186.367188 339.164063 185.515625 340.328125 184.046875 342.535156 C 182.527344 344.617188 181.234375 346.351563 180.242188 347.828125 C 181.007813 345.625 181.757813 343.425781 182.570313 341.167969 C 183.355469 338.957031 183.761719 337.789063 183.761719 337.71875 L 188.878906 318.714844 L 175.605469 312.042969 Z M 121.652344 323.503906 L 152.558594 290.351563 L 170.601563 307.175781 L 164.578125 313.648438 L 154.277344 304.003906 L 148.539063 310.03125 L 158.074219 319.023438 L 151.859375 325.574219 L 142.394531 316.738281 L 135.605469 323.949219 L 145.910156 333.5625 L 139.644531 340.328125 Z M 93.386719 284.675781 L 131.496094 260.152344 L 137.847656 269.953125 C 140.109375 273.570313 141.488281 276.40625 142.042969 278.539063 C 142.457031 280.644531 142.34375 282.707031 141.488281 284.691406 C 140.824219 286.269531 139.710938 287.804688 138.035156 289.324219 C 136.398438 290.816406 133.007813 293.234375 127.960938 296.445313 C 122.859375 299.765625 119.28125 301.800781 117.257813 302.683594 C 115.15625 303.5625 113.285156 303.960938 111.660156 303.941406 C 109.460938 303.890625 107.507813 303.191406 105.792969 301.871094 C 104.105469 300.507813 102.015625 298.0625 99.710938 294.492188 Z M 130.175781 273.664063 L 106.089844 289.128906 C 106.171875 289.324219 106.300781 289.5 106.390625 289.667969 C 106.476563 289.894531 106.671875 290.109375 106.855469 290.402344 C 107.507813 291.394531 108.140625 292.066406 108.808594 292.59375 C 109.460938 293.058594 110.214844 293.304688 111.050781 293.34375 C 111.730469 293.34375 112.808594 293.007813 114.164063 292.269531 C 115.589844 291.566406 118.183594 289.914063 122.050781 287.476563 L 123.78125 286.339844 C 126.933594 284.292969 129.054688 282.863281 130.09375 282.035156 C 131.1875 281.199219 131.800781 280.515625 131.953125 279.960938 C 132.285156 279.214844 132.367188 278.425781 132.179688 277.617188 C 132.066406 276.761719 131.617188 275.863281 130.921875 274.785156 C 130.746094 274.527344 130.574219 274.285156 130.488281 274.105469 C 130.367188 273.90625 130.265625 273.796875 130.175781 273.664063 "/>
<g clip-path="url(#clip2)" clip-rule="nonzero">
<path style=" stroke:none;fill-rule:evenodd;fill:rgb(0.39978%,0%,39.99939%);fill-opacity:1;" d="M 252.726563 171.511719 L 271.082031 183.246094 L 274.414063 185.367188 L 274.414063 200.242188 L 299.574219 150.464844 L 301.589844 146.472656 L 306.054688 146.488281 L 500.066406 147.109375 L 515.113281 147.15625 L 505.714844 158.894531 L 497.984375 168.550781 L 495.800781 171.269531 L 492.335938 171.269531 L 470.121094 171.253906 L 451.46875 197.414063 L 447.628906 197.414063 L 374.917969 197.300781 L 374.355469 198.484375 L 372.8125 201.703125 L 371.238281 204.929688 L 369.273438 209.039063 L 366.398438 209.039063 L 366.160156 209.535156 L 360.878906 220.261719 L 358.886719 224.316406 L 354.378906 224.316406 L 274.414063 224.230469 L 274.414063 252.152344 L 270.597656 254.199219 L 252.777344 263.714844 L 242.191406 269.382813 L 242.105469 257.382813 L 241.882813 224.230469 L 241.046875 224.230469 L 160.730469 224.316406 L 156.226563 224.316406 L 147.554688 209.050781 L 145.839844 209.039063 L 143.835938 204.929688 L 142.300781 201.703125 L 140.753906 198.484375 L 140.195313 197.300781 L 67.480469 197.414063 L 61.441406 197.390625 L 42.8125 171.234375 L 22.777344 171.269531 L 19.308594 171.269531 L 17.125 168.550781 L 9.394531 158.894531 L 0 147.15625 L 15.046875 147.109375 L 209.058594 146.488281 L 213.519531 146.472656 L 215.539063 150.464844 L 241.726563 202.261719 L 241.554688 177.664063 L 241.46875 164.308594 "/>
</g>
<path style=" stroke:none;fill-rule:evenodd;fill:rgb(100%,100%,100%);fill-opacity:1;" d="M 309.148438 195.34375 L 305.855469 201.761719 L 364.726563 201.761719 L 366.265625 198.550781 L 367.816406 195.34375 Z M 320.980469 169.972656 L 317.691406 176.386719 L 459.320313 176.386719 L 462.609375 169.972656 Z M 500.039063 154.355469 L 492.335938 163.996094 L 315.933594 163.851563 L 307.648438 180.855469 L 453.523438 181.46875 L 447.648438 190.148438 L 304.1875 189.941406 L 295.257813 206.300781 L 359.617188 206.335938 L 354.378906 217.070313 L 274.066406 216.980469 L 306.027344 153.742188 Z M 205.964844 195.34375 L 147.296875 195.34375 L 148.851563 198.550781 L 150.386719 201.761719 L 209.257813 201.761719 Z M 194.132813 169.972656 L 50.640625 169.863281 L 54.765625 176.386719 L 197.417969 176.386719 Z M 15.074219 154.355469 L 209.085938 153.742188 L 241.046875 216.980469 L 160.730469 217.070313 L 155.492188 206.335938 L 219.851563 206.300781 L 210.925781 189.941406 L 64.53125 189.996094 L 57.566406 180.855469 L 207.464844 180.855469 L 199.179688 163.851563 L 22.777344 163.996094 Z M 248.828125 177.621094 L 267.175781 189.355469 L 267.175781 247.804688 L 249.371094 257.320313 Z M 248.828125 177.621094 "/>
<path style=" stroke:none;fill-rule:evenodd;fill:rgb(0.39978%,0%,39.99939%);fill-opacity:1;" d="M 230.65625 274.941406 L 230.65625 297.625 L 224.703125 297.625 L 224.703125 282.757813 C 223.738281 283.523438 222.8125 284.148438 221.914063 284.605469 C 221.019531 285.105469 219.890625 285.5625 218.535156 285.984375 L 218.535156 280.910156 C 220.527344 280.21875 222.097656 279.421875 223.191406 278.441406 C 224.304688 277.503906 225.160156 276.339844 225.808594 274.941406 "/>
<path style=" stroke:none;fill-rule:evenodd;fill:rgb(0.39978%,0%,39.99939%);fill-opacity:1;" d="M 248.144531 282.671875 C 248.144531 281.457031 247.855469 280.515625 247.285156 279.808594 C 246.6875 279.125 245.992188 278.800781 245.152344 278.800781 C 244.382813 278.800781 243.746094 279.109375 243.222656 279.722656 C 242.71875 280.34375 242.460938 281.28125 242.460938 282.515625 C 242.460938 283.753906 242.71875 284.707031 243.246094 285.375 C 243.800781 286.027344 244.445313 286.367188 245.265625 286.367188 C 246.101563 286.367188 246.777344 286.027344 247.308594 285.390625 C 247.855469 284.757813 248.144531 283.855469 248.144531 282.671875 M 237.308594 292.621094 L 243.160156 291.828125 C 243.316406 292.714844 243.574219 293.304688 243.945313 293.65625 C 244.324219 294.035156 244.753906 294.207031 245.265625 294.207031 C 246.230469 294.207031 246.957031 293.699219 247.484375 292.683594 C 247.871094 291.964844 248.164063 290.386719 248.363281 287.988281 C 247.660156 288.746094 246.933594 289.308594 246.1875 289.652344 C 245.457031 290.007813 244.585938 290.179688 243.625 290.179688 C 241.726563 290.179688 240.121094 289.480469 238.828125 288.074219 C 237.515625 286.640625 236.851563 284.847656 236.851563 282.671875 C 236.851563 281.195313 237.207031 279.835938 237.859375 278.625 C 238.527344 277.417969 239.449219 276.496094 240.617188 275.863281 C 241.777344 275.242188 243.246094 274.941406 245 274.941406 C 247.109375 274.941406 248.828125 275.3125 250.078125 276.082031 C 251.371094 276.847656 252.410156 278.082031 253.148438 279.722656 C 253.910156 281.386719 254.292969 283.597656 254.292969 286.339844 C 254.292969 290.351563 253.507813 293.328125 251.910156 295.195313 C 250.304688 297.058594 248.0625 298.007813 245.195313 298.007813 C 243.53125 298.007813 242.191406 297.800781 241.226563 297.367188 C 240.257813 296.96875 239.449219 296.375 238.800781 295.589844 C 238.148438 294.804688 237.664063 293.8125 237.308594 292.621094 "/>
<path style=" stroke:none;fill-rule:evenodd;fill:rgb(0.39978%,0%,39.99939%);fill-opacity:1;" d="M 267.476563 288.644531 L 267.476563 281.636719 L 261.804688 288.644531 Z M 267.476563 293.457031 L 256.777344 293.457031 L 256.777344 288.351563 L 267.476563 274.941406 L 272.617188 274.941406 L 272.617188 288.644531 L 275.269531 288.644531 L 275.269531 293.457031 L 272.617188 293.457031 L 272.617188 297.625 L 267.476563 297.625 "/>
<path style=" stroke:none;fill-rule:evenodd;fill:rgb(0.39978%,0%,39.99939%);fill-opacity:1;" d="M 283.789063 286.382813 C 283.789063 289.238281 284.035156 291.171875 284.523438 292.207031 C 284.980469 293.261719 285.691406 293.761719 286.589844 293.761719 C 287.199219 293.761719 287.707031 293.542969 288.140625 293.105469 C 288.589844 292.664063 288.917969 291.964844 289.113281 291.015625 C 289.339844 290.050781 289.425781 288.574219 289.425781 286.554688 C 289.425781 283.597656 289.183594 281.59375 288.71875 280.582031 C 288.234375 279.566406 287.535156 279.058594 286.5625 279.058594 C 285.601563 279.058594 284.886719 279.566406 284.453125 280.601563 C 284.035156 281.664063 283.789063 283.578125 283.789063 286.382813 M 277.976563 286.382813 C 277.976563 282.136719 278.710938 279.144531 280.148438 277.488281 C 281.597656 275.777344 283.789063 274.941406 286.769531 274.941406 C 288.191406 274.941406 289.359375 275.113281 290.28125 275.484375 C 291.179688 275.835938 291.917969 276.339844 292.496094 276.917969 C 293.085938 277.527344 293.550781 278.148438 293.871094 278.796875 C 294.207031 279.453125 294.472656 280.203125 294.671875 281.09375 C 295.070313 282.757813 295.285156 284.5 295.285156 286.296875 C 295.285156 290.351563 294.621094 293.304688 293.308594 295.195313 C 292.007813 297.054688 289.796875 298.007813 286.613281 298.007813 C 284.824219 298.007813 283.394531 297.695313 282.28125 297.097656 C 281.203125 296.488281 280.304688 295.632813 279.601563 294.492188 C 279.074219 293.65625 278.675781 292.53125 278.414063 291.101563 C 278.113281 289.652344 277.976563 288.089844 277.976563 286.382813 "/>
</g>
</svg>