<svg xmlns:inkscape="http://www.inkscape.org/namespaces/inkscape" xmlns:sodipodi="http://sodipodi.sourceforge.net/DTD/sodipodi-0.dtd" xmlns="http://www.w3.org/2000/svg" xmlns:svg="http://www.w3.org/2000/svg" width="118.86124" height="160.53758" viewBox="0 0 31.448702 42.475571" version="1.1" id="svg3406" inkscape:version="1.1 (c68e22c387, 2021-05-23)" sodipodi:docname="Al Ahli Saudi FC.svg">
  <sodipodi:namedview id="namedview3408" pagecolor="#ffffff" bordercolor="#666666" borderopacity="1.0" inkscape:pageshadow="2" inkscape:pageopacity="0.0" inkscape:pagecheckerboard="0" inkscape:document-units="mm" showgrid="false" fit-margin-top="0" fit-margin-left="0" fit-margin-right="0" fit-margin-bottom="0" units="px" inkscape:zoom="2.8220782" inkscape:cx="39.155541" inkscape:cy="63.251258" inkscape:window-width="1366" inkscape:window-height="745" inkscape:window-x="-8" inkscape:window-y="-8" inkscape:window-maximized="1" inkscape:current-layer="layer1"/>
  <defs id="defs3403">
    <clipPath clipPathUnits="userSpaceOnUse" id="clipPath2977">
      <path d="m 36.092,603.148 h 89.146 V 723.552 H 36.092 Z" id="path2975"/>
    </clipPath>
    <clipPath clipPathUnits="userSpaceOnUse" id="clipPath3069">
      <path d="m 36.092,603.148 h 89.146 V 723.552 H 36.092 Z" id="path3067"/>
    </clipPath>
  </defs>
  <g inkscape:label="Layer 1" inkscape:groupmode="layer" id="layer1" transform="translate(-112.62208,-135.21757)">
    <g id="g2971" transform="matrix(0.35277777,0,0,-0.35277777,99.889597,390.47063)">
      <g id="g2973" clip-path="url(#clipPath2977)">
        <g id="g2979" transform="translate(107.7315,620.0578)">
          <path d="m 0,0 c -6.098,-9.884 -15.746,-16.909 -27.208,-16.909 -11.029,0 -20.759,6.249 -26.544,15.77 0,0 -13.749,16.179 -11.845,45.825 H 11.435 C 11.435,44.686 13.801,18.139 0,0" style="fill:#193b67;fill-opacity:1;fill-rule:nonzero;stroke:none" id="path2981"/>
        </g>
        <g id="g2983" transform="translate(106.0397,620.6943)">
          <path d="m 0,0 c -5.719,-8.723 -14.767,-14.923 -25.516,-14.923 -10.343,0 -19.468,5.515 -24.894,13.918 0,0 -11.823,15.408 -11.108,40.443 H 10.724 C 10.724,39.438 10.962,14.642 0,0" style="fill:#078543;fill-opacity:1;fill-rule:nonzero;stroke:none" id="path2985"/>
        </g>
        <g id="g2987" transform="translate(51.9127,645.5881)">
          <path d="m 0,0 c 0,0 -17.166,18.359 -15.736,65.805 0,0 20.028,-3.815 28.849,12.159 0,0 15.975,-14.067 30.757,0 0,0 9.298,-15.974 29.326,-12.159 0,0 2.622,-40.055 -15.736,-65.09 z" style="fill:#193b67;fill-opacity:1;fill-rule:nonzero;stroke:none" id="path2989"/>
        </g>
        <g id="g2991" transform="translate(38.561,709.2469)">
          <path d="m 0,0 c 0,0 17.643,-3.338 26.942,10.967 0,0 12.636,-11.444 30.041,0 0,0 8.583,-13.351 26.942,-11.205 0,0 2.384,-37.194 -14.067,-60.56 H 14.305 c 0,0 -15.736,17.644 -14.305,60.798" style="fill:#078543;fill-opacity:1;fill-rule:nonzero;stroke:none" id="path2993"/>
        </g>
        <g id="g2995" transform="translate(91.4445,696.3447)">
          <path d="m 0,0 c -0.888,4.05 -3.354,7.505 -6.722,9.694 2.621,-0.131 5.069,-0.913 7.19,-2.185 -1.955,2.556 -4.745,4.437 -7.967,5.234 0.621,0.723 1.311,1.383 2.063,1.971 -1.522,-0.26 -2.939,-0.817 -4.192,-1.612 -0.04,0.004 -0.081,0.005 -0.12,0.009 -0.29,0.938 -0.706,1.819 -1.213,2.638 v 0.005 c 0,-10e-4 0,-0.002 -10e-4,-0.003 0,0.001 0,0.002 -10e-4,0.003 v -0.005 c -0.507,-0.819 -0.923,-1.7 -1.213,-2.638 -0.04,-0.004 -0.079,-0.005 -0.119,-0.009 -1.255,0.795 -2.671,1.352 -4.193,1.612 0.751,-0.588 1.443,-1.248 2.062,-1.971 -3.221,-0.797 -6.011,-2.678 -7.965,-5.234 2.12,1.272 4.568,2.054 7.189,2.185 C -18.57,7.505 -21.036,4.05 -21.924,0 c 1.47,2.81 3.642,5.192 6.286,6.915 -1.713,-2.473 -2.838,-5.383 -3.167,-8.532 -0.066,-0.638 -0.103,-1.284 -0.103,-1.938 0,-0.803 0.058,-1.592 0.158,-2.368 0.252,1.604 0.688,3.146 1.278,4.608 0.778,1.93 1.831,3.718 3.11,5.319 -0.392,-1.388 -0.647,-2.832 -0.748,-4.319 -0.034,-0.489 -0.057,-0.981 -0.057,-1.478 0,-1.539 0.166,-3.038 0.476,-4.485 0.08,-0.373 0.172,-0.742 0.271,-1.107 0.007,-0.024 0.013,-0.047 0.02,-0.071 -10e-4,0.026 -10e-4,0.052 -10e-4,0.077 -0.003,0.136 -0.011,0.271 -0.011,0.408 0,0.35 0.012,0.697 0.026,1.044 0.092,2.412 0.494,4.746 1.178,6.956 0.282,0.914 0.614,1.807 0.989,2.676 v -4.061 l -0.372,0.288 0.372,-2.014 v -2.589 l -0.37,0.287 0.37,-1.725 v -2.589 l -0.37,0.287 0.37,-1.726 v -3.165 l -0.612,-0.287 v -0.287 h 3.737 v 0.287 l -0.61,0.287 v 3.165 l 0.371,1.726 -0.371,-0.287 v 2.589 l 0.371,1.725 -0.371,-0.287 v 2.589 l 0.371,2.014 -0.371,-0.288 v 4.061 c 0.375,-0.869 0.707,-1.762 0.989,-2.676 0.683,-2.21 1.085,-4.544 1.177,-6.956 0.013,-0.347 0.026,-0.694 0.026,-1.044 0,-0.137 -0.008,-0.272 -0.01,-0.408 0,-0.025 -10e-4,-0.051 -10e-4,-0.077 0.006,0.024 0.013,0.047 0.02,0.071 0.099,0.365 0.188,0.734 0.27,1.107 0.31,1.447 0.476,2.946 0.476,4.485 0,0.497 -0.023,0.989 -0.056,1.478 -0.102,1.487 -0.357,2.931 -0.749,4.319 1.28,-1.601 2.332,-3.389 3.111,-5.319 0.589,-1.462 1.024,-3.004 1.278,-4.608 0.099,0.776 0.158,1.565 0.158,2.368 0,0.654 -0.037,1.3 -0.104,1.938 C -3.447,1.532 -4.574,4.442 -6.285,6.915 -3.643,5.192 -1.468,2.81 0,0" style="fill:#ffffff;fill-opacity:1;fill-rule:evenodd;stroke:none" id="path2997"/>
        </g>
        <g id="g2999" transform="translate(89.4417,671.9625)">
          <path d="m 0,0 c -1.511,-1.134 -2.286,-0.539 -3.006,0.731 l 1.115,1.099 c 0.57,0.564 -0.038,1.351 -0.75,0.722 L -4.005,1.429 c -1.323,1.287 -3.917,3.736 -3.917,3.736 6.844,6.506 12.123,8.5 16.87,8.644 -9.052,1.215 -11.721,-1.72 -18.105,-7.443 -6.384,5.723 -9.051,8.658 -18.104,7.443 4.746,-0.144 10.026,-2.138 16.87,-8.644 0,0 -2.595,-2.449 -3.918,-3.736 l -1.364,1.123 c -0.711,0.629 -1.32,-0.158 -0.749,-0.722 l 1.114,-1.099 c -0.719,-1.27 -1.494,-1.865 -3.006,-0.731 -1.155,1.351 -4.226,0.541 -2.278,-1.52 1.302,-1.174 4.956,-1.417 6.672,0.884 l 0.899,-0.885 c 0.691,-0.879 2.075,-0.783 0.749,0.734 l -0.902,0.886 c 1.366,1.554 2.708,2.648 4.017,3.881 h 10e-4 c 1.308,-1.233 2.65,-2.327 4.017,-3.881 l -0.902,-0.886 c -1.326,-1.517 0.058,-1.613 0.75,-0.734 l 0.898,0.885 C -2.677,-2.937 0.976,-2.694 2.279,-1.52 4.227,0.541 1.156,1.351 0,0" style="fill:#ffffff;fill-opacity:1;fill-rule:evenodd;stroke:none" id="path3001"/>
        </g>
        <g id="g3003" transform="translate(110.5647,637.9586)">
          <path d="m 0,0 c 0,-16.459 -13.343,-29.803 -29.803,-29.803 -16.459,0 -29.803,13.344 -29.803,29.803 0,16.46 13.344,29.803 29.803,29.803 C -13.343,29.803 0,16.46 0,0" style="fill:#193b67;fill-opacity:1;fill-rule:evenodd;stroke:none" id="path3005"/>
        </g>
      </g>
    </g>
    <text transform="rotate(-68.017712)" style="font-variant:normal;font-weight:bold;font-stretch:normal;font-size:2.52331px;font-family:'WZMMWA +ArialRoundedMTBold';-inkscape-font-specification:ArialRoundedMTBold;writing-mode:lr-tb;fill:#ffffff;fill-opacity:1;fill-rule:nonzero;stroke:none;stroke-width:0.352778" id="text3009" x="-106.32685" y="173.35287"><tspan x="-106.32685" y="173.35287" id="tspan3007" style="stroke-width:0.352778">A</tspan></text>
    <text transform="rotate(-58.565308)" style="font-variant:normal;font-weight:bold;font-stretch:normal;font-size:2.5233px;font-family:'WZMMWA +ArialRoundedMTBold';-inkscape-font-specification:ArialRoundedMTBold;writing-mode:lr-tb;fill:#ffffff;fill-opacity:1;fill-rule:nonzero;stroke:none;stroke-width:0.352778" id="text3013" x="-74.617592" y="188.20934"><tspan x="-74.617592" y="188.20934" id="tspan3011" style="stroke-width:0.352778">l</tspan></text>
    <text transform="rotate(-52.823304)" style="font-variant:normal;font-weight:bold;font-stretch:normal;font-size:2.52331px;font-family:'WZMMWA +ArialRoundedMTBold';-inkscape-font-specification:ArialRoundedMTBold;writing-mode:lr-tb;fill:#ffffff;fill-opacity:1;fill-rule:nonzero;stroke:none;stroke-width:0.352778" id="text3017" x="-54.731373" y="194.6581"><tspan x="-54.731373" y="194.6581" id="tspan3015" style="stroke-width:0.352778">-</tspan></text>
    <text transform="rotate(-42.864103)" style="font-variant:normal;font-weight:bold;font-stretch:normal;font-size:2.52331px;font-family:'WZMMWA +ArialRoundedMTBold';-inkscape-font-specification:ArialRoundedMTBold;writing-mode:lr-tb;fill:#ffffff;fill-opacity:1;fill-rule:nonzero;stroke:none;stroke-width:0.352778" id="text3021" x="-19.413801" y="201.00275"><tspan x="-19.413801" y="201.00275" id="tspan3019" style="stroke-width:0.352778">A</tspan></text>
    <text transform="rotate(-30.310926)" style="font-variant:normal;font-weight:bold;font-stretch:normal;font-size:2.52331px;font-family:'WZMMWA +ArialRoundedMTBold';-inkscape-font-specification:ArialRoundedMTBold;writing-mode:lr-tb;fill:#ffffff;fill-opacity:1;fill-rule:nonzero;stroke:none;stroke-width:0.352778" id="text3025" x="26.517525" y="200.03758"><tspan x="26.517525" y="200.03758" id="tspan3023" style="stroke-width:0.352778">h</tspan></text>
    <text transform="rotate(-21.959977)" style="font-variant:normal;font-weight:bold;font-stretch:normal;font-size:2.5233px;font-family:'WZMMWA +ArialRoundedMTBold';-inkscape-font-specification:ArialRoundedMTBold;writing-mode:lr-tb;fill:#ffffff;fill-opacity:1;fill-rule:nonzero;stroke:none;stroke-width:0.352778" id="text3029" x="56.799828" y="193.8743"><tspan x="56.799828" y="193.8743" id="tspan3027" style="stroke-width:0.352778">l</tspan></text>
    <text transform="rotate(-16.756022)" style="font-variant:normal;font-weight:bold;font-stretch:normal;font-size:2.52331px;font-family:'WZMMWA +ArialRoundedMTBold';-inkscape-font-specification:ArialRoundedMTBold;writing-mode:lr-tb;fill:#ffffff;fill-opacity:1;fill-rule:nonzero;stroke:none;stroke-width:0.352778" id="text3033" x="74.83271" y="187.86122"><tspan x="74.83271" y="187.86122" id="tspan3031" style="stroke-width:0.352778">i</tspan></text>
    <text transform="rotate(-3.0381743)" style="font-variant:normal;font-weight:bold;font-stretch:normal;font-size:2.5233px;font-family:'WZMMWA +ArialRoundedMTBold';-inkscape-font-specification:ArialRoundedMTBold;writing-mode:lr-tb;fill:#ffffff;fill-opacity:1;fill-rule:nonzero;stroke:none;stroke-width:0.352778" id="text3037" x="118.5363" y="164.46004"><tspan x="118.5363" y="164.46004" id="tspan3035" style="stroke-width:0.352778">S</tspan></text>
    <text transform="rotate(8.844945)" style="font-variant:normal;font-weight:bold;font-stretch:normal;font-size:2.5233px;font-family:'WZMMWA +ArialRoundedMTBold';-inkscape-font-specification:ArialRoundedMTBold;writing-mode:lr-tb;fill:#ffffff;fill-opacity:1;fill-rule:nonzero;stroke:none;stroke-width:0.352778" id="text3041" x="151.5146" y="136.18877"><tspan x="151.5146" y="136.18877" id="tspan3039" style="stroke-width:0.352778">a</tspan></text>
    <text transform="rotate(20.307501)" style="font-variant:normal;font-weight:bold;font-stretch:normal;font-size:2.52331px;font-family:'WZMMWA +ArialRoundedMTBold';-inkscape-font-specification:ArialRoundedMTBold;writing-mode:lr-tb;fill:#ffffff;fill-opacity:1;fill-rule:nonzero;stroke:none;stroke-width:0.352778" id="text3045" x="177.02951" y="103.0627"><tspan x="177.02951" y="103.0627" id="tspan3043" style="stroke-width:0.352778">u</tspan></text>
    <text transform="rotate(32.060236)" style="font-variant:normal;font-weight:bold;font-stretch:normal;font-size:2.5233px;font-family:'WZMMWA +ArialRoundedMTBold';-inkscape-font-specification:ArialRoundedMTBold;writing-mode:lr-tb;fill:#ffffff;fill-opacity:1;fill-rule:nonzero;stroke:none;stroke-width:0.352778" id="text3049" x="195.80969" y="64.529549"><tspan x="195.80969" y="64.529549" id="tspan3047" style="stroke-width:0.352778">d</tspan></text>
    <text transform="rotate(40.55707)" style="font-variant:normal;font-weight:bold;font-stretch:normal;font-size:2.5233px;font-family:'WZMMWA +ArialRoundedMTBold';-inkscape-font-specification:ArialRoundedMTBold;writing-mode:lr-tb;fill:#ffffff;fill-opacity:1;fill-rule:nonzero;stroke:none;stroke-width:0.352778" id="text3053" x="204.75917" y="34.689362"><tspan x="204.75917" y="34.689362" id="tspan3051" style="stroke-width:0.352778">i</tspan></text>
    <text transform="rotate(53.573086)" style="font-variant:normal;font-weight:bold;font-stretch:normal;font-size:2.52328px;font-family:'WZMMWA +ArialRoundedMTBold';-inkscape-font-specification:ArialRoundedMTBold;writing-mode:lr-tb;fill:#ffffff;fill-opacity:1;fill-rule:nonzero;stroke:none;stroke-width:0.352778" id="text3057" x="208.60243" y="-12.59181"><tspan x="208.60243" y="-12.59181" id="tspan3055" style="stroke-width:0.352778">F</tspan></text>
    <text transform="rotate(66.371632)" style="font-variant:normal;font-weight:bold;font-stretch:normal;font-size:2.5233px;font-family:'WZMMWA +ArialRoundedMTBold';-inkscape-font-specification:ArialRoundedMTBold;writing-mode:lr-tb;fill:#ffffff;fill-opacity:1;fill-rule:nonzero;stroke:none;stroke-width:0.352778" id="text3061" x="202.12029" y="-58.846931"><tspan x="202.12029" y="-58.846931" id="tspan3059" style="stroke-width:0.352778">C</tspan></text>
    <g id="g3063" transform="matrix(0.35277777,0,0,-0.35277777,99.889597,390.47063)">
      <g id="g3065" clip-path="url(#clipPath3069)">
        <g id="g3071" transform="translate(80.7618,665.8738)">
          <path d="m 0,0 c -15.393,0 -27.915,-12.523 -27.915,-27.915 0,-15.393 12.522,-27.915 27.915,-27.915 15.393,0 27.915,12.522 27.915,27.915 C 27.915,-12.523 15.393,0 0,0 m 0,-56.546 c -15.787,0 -28.63,12.844 -28.63,28.631 0,15.787 12.843,28.63 28.63,28.63 15.787,0 28.63,-12.843 28.63,-28.63 0,-15.787 -12.843,-28.631 -28.63,-28.631" style="fill:#078543;fill-opacity:1;fill-rule:nonzero;stroke:none" id="path3073"/>
        </g>
        <g id="g3075" transform="translate(100.9262,637.9586)">
          <path d="m 0,0 c 0,-11.136 -9.028,-20.164 -20.164,-20.164 -11.137,0 -20.165,9.028 -20.165,20.164 0,11.136 9.028,20.164 20.165,20.164 C -9.028,20.164 0,11.136 0,0" style="fill:#078543;fill-opacity:1;fill-rule:evenodd;stroke:none" id="path3077"/>
        </g>
        <g id="g3079" transform="translate(60.8223,638.0224)">
          <path d="m 0,0 c 0,-11.087 9.019,-20.105 20.104,-20.105 11.084,0 20.102,9.018 20.102,20.105 0,11.084 -9.018,20.102 -20.102,20.102 C 9.019,20.102 0,11.084 0,0" style="fill:#268951;fill-opacity:1;fill-rule:evenodd;stroke:none" id="path3081"/>
        </g>
        <g id="g3083" transform="translate(61.4095,638.0224)">
          <path d="m 0,0 c 0,10.761 8.755,19.515 19.517,19.515 10.76,0 19.516,-8.754 19.516,-19.515 0,-10.763 -8.756,-19.517 -19.516,-19.517 C 8.755,-19.517 0,-10.763 0,0" style="fill:#ffffff;fill-opacity:1;fill-rule:evenodd;stroke:none" id="path3085"/>
        </g>
        <g id="g3087" transform="translate(74.5484,653.2956)">
          <path d="m 0,0 c -4.075,-1.695 -7.245,-4.875 -8.928,-8.956 -3.476,-8.43 0.559,-18.129 8.995,-21.615 4.082,-1.688 8.581,-1.681 12.669,0.017 4.081,1.697 7.256,4.875 8.937,8.952 1.681,4.078 1.675,8.572 -0.019,12.651 -1.696,4.092 -4.885,7.273 -8.976,8.965 C 8.585,1.705 4.083,1.7 0,0" style="fill:#268951;fill-opacity:1;fill-rule:evenodd;stroke:none" id="path3089"/>
        </g>
        <g id="g3091" transform="translate(74.8404,623.2667)">
          <path d="m 0,0 c -8.138,3.364 -12.031,12.716 -8.676,20.849 1.622,3.936 4.679,7.002 8.61,8.638 3.938,1.64 8.28,1.645 12.228,0.013 3.946,-1.63 7.021,-4.702 8.658,-8.647 1.635,-3.934 1.641,-8.268 0.017,-12.202 C 19.217,4.719 16.156,1.653 12.219,0.017 8.277,-1.621 3.937,-1.628 0,0" style="fill:#ffffff;fill-opacity:1;fill-rule:evenodd;stroke:none" id="path3093"/>
        </g>
        <g id="g3095" transform="translate(80.6908,654.2828)">
          <path d="M 0,0 H 0.469 L 0.47,3.549 H 0 Z" style="fill:#268951;fill-opacity:1;fill-rule:evenodd;stroke:none" id="path3097"/>
        </g>
        <g id="g3099" transform="translate(97.0053,637.5753)">
          <path d="m 0,0 c 2.701,1.536 3.434,3.327 3.434,3.327 -0.666,4.291 -1.257,5.605 -3.562,8.878 0,0 -2.359,0.73 -4.573,-0.14 0,0 -0.729,-2.742 -0.323,-6.906 l -5.083,-1.786 c -2.748,2.516 -5.972,3.916 -5.972,3.916 0,0 -3.224,-1.4 -5.972,-3.916 l -5.084,1.785 c 0.409,4.165 -0.323,6.907 -0.323,6.907 -2.213,0.87 -4.57,0.14 -4.57,0.14 -2.308,-3.273 -2.898,-4.587 -3.565,-8.878 0,0 0.734,-1.791 3.434,-3.327 0,0 2.201,1.182 4.853,4.721 l 5.09,-1.788 c -0.072,-3.683 1.529,-6.948 1.892,-7.637 l -3.67,-3.937 c -3.765,1.708 -6.554,1.906 -6.554,1.906 -1.545,-1.81 -1.623,-4.301 -1.623,-4.301 2.181,-3.158 3.833,-4.314 7.234,-6.238 0,0 1.934,0.112 4.264,2.164 0,0 -0.405,2.498 -2.93,6.199 l 3.724,3.999 c 0.66,-0.124 2.127,-0.363 3.8,-0.41 1.673,0.049 3.141,0.287 3.8,0.41 l 3.724,-3.999 c -2.524,-3.701 -2.928,-6.199 -2.928,-6.199 2.329,-2.052 4.263,-2.164 4.263,-2.164 3.402,1.924 5.053,3.08 7.234,6.238 0,0 -0.078,2.491 -1.622,4.301 0,0 -2.792,-0.198 -6.555,-1.906 l -3.671,3.939 c 0.364,0.692 1.962,3.955 1.889,7.635 l 5.092,1.788 C -2.199,1.182 0,0 0,0" style="fill:#268951;fill-opacity:1;fill-rule:evenodd;stroke:none" id="path3101"/>
        </g>
        <g id="g3103" transform="translate(79.2377,630.319)">
          <path d="m 0,0 h -2.981 l -0.541,-0.791 v -9.775 H 0.293 V 0 Z" style="fill:#193b67;fill-opacity:1;fill-rule:evenodd;stroke:none" id="path3105"/>
        </g>
        <g id="g3107" transform="translate(78.945,629.7318)">
          <path d="m 0,0 v -9.391 h -2.642 v 9.006 c 0.06,0.087 0.173,0.255 0.263,0.385 z" style="fill:#268951;fill-opacity:1;fill-rule:evenodd;stroke:none" id="path3109"/>
        </g>
        <g id="g3111" transform="translate(85.4402,630.319)">
          <path d="m 0,0 h -3.12 v -10.566 h 3.814 v 9.775 L 0.154,0 Z" style="fill:#193b67;fill-opacity:1;fill-rule:evenodd;stroke:none" id="path3113"/>
        </g>
        <g id="g3115" transform="translate(85.2845,629.7318)">
          <path d="M 0,0 C 0.09,-0.13 0.205,-0.298 0.262,-0.385 V -9.391 H -2.377 V 0 Z" style="fill:#268951;fill-opacity:1;fill-rule:evenodd;stroke:none" id="path3117"/>
        </g>
        <g id="g3119" transform="translate(82.6123,630.319)">
          <path d="M 0,0 H -3.667 V -10.566 H 0.295 V 0 Z" style="fill:#193b67;fill-opacity:1;fill-rule:evenodd;stroke:none" id="path3121"/>
        </g>
        <path d="m 82.32,620.34 h -2.788 v 9.391 h 2.788 z" style="fill:#268951;fill-opacity:1;fill-rule:evenodd;stroke:none" id="path3123"/>
        <g id="g3125" transform="translate(82.9797,633.8551)">
          <path d="M 0,0 H -4.232 L -7.013,-4.064 H 2.906 L 0.124,0 Z" style="fill:#193b67;fill-opacity:1;fill-rule:evenodd;stroke:none" id="path3127"/>
        </g>
        <g id="g3129" transform="translate(82.8562,633.3859)">
          <path d="m 0,0 c 0.118,-0.173 1.746,-2.552 2.139,-3.126 h -8.138 c 0.391,0.574 2.02,2.953 2.138,3.126 z" style="fill:#268951;fill-opacity:1;fill-rule:evenodd;stroke:none" id="path3131"/>
        </g>
        <g id="g3133" transform="translate(88.2628,655.7914)">
          <path d="m 0,0 h -14.972 l 5.395,-22.406 h 4.479 L 0.298,0 Z" style="fill:#193b67;fill-opacity:1;fill-rule:evenodd;stroke:none" id="path3135"/>
        </g>
        <g id="g3137" transform="translate(87.9648,655.3222)">
          <path d="M 0,0 C -0.135,-0.56 -5.085,-21.118 -5.17,-21.467 H -8.908 C -8.993,-21.118 -13.943,-0.56 -14.078,0 Z" style="fill:#268951;fill-opacity:1;fill-rule:evenodd;stroke:none" id="path3139"/>
        </g>
      </g>
    </g>
    <text style="font-variant:normal;font-weight:bold;font-stretch:normal;font-size:2.52331px;font-family:'WZMMWA +ArialRoundedMTBold';-inkscape-font-specification:ArialRoundedMTBold;writing-mode:lr-tb;fill:#ffffff;fill-opacity:1;fill-rule:nonzero;stroke:none;stroke-width:0.352778" id="text3143" x="125.34735" y="174.65654"><tspan x="125.34735 126.8462 128.34505 129.84389" y="174.65654" sodipodi:role="line" id="tspan3141" style="stroke-width:0.352778">1937</tspan></text>
  </g>
</svg>