<svg xmlns="http://www.w3.org/2000/svg" width="270pt" height="369pt" viewBox="0 0 270 369" version="1.1">
<path fill="#22558e" stroke="#22558e" stroke-width="0.09375" opacity="1.00" d=" M 130.55 8.99 C 132.10 6.00 133.62 3.00 135.17 0.01 C 136.90 2.93 138.48 5.95 140.00 8.99 C 138.89 11.17 137.81 13.37 136.72 15.57 C 137.80 17.57 138.86 19.58 139.93 21.60 C 147.19 18.92 155.47 17.11 162.92 20.16 C 166.03 21.25 168.37 23.67 170.47 26.11 C 171.73 25.83 173.00 25.49 174.30 25.69 C 178.22 26.06 182.22 25.26 186.08 26.28 C 193.29 28.08 200.33 32.84 202.74 40.16 C 205.11 46.56 203.72 53.80 199.86 59.31 C 200.91 60.62 201.95 61.92 203.01 63.22 C 199.78 63.11 196.36 63.50 194.48 66.47 C 194.67 68.17 195.90 70.14 194.48 71.63 C 193.72 72.68 192.11 72.41 191.03 72.88 C 188.68 75.15 186.04 77.10 183.02 78.36 C 183.22 80.84 181.25 81.59 179.21 82.07 C 180.17 83.41 181.21 84.71 182.04 86.14 C 180.24 86.80 178.41 87.33 176.58 87.89 C 177.09 88.57 178.11 89.92 178.63 90.59 C 176.53 92.55 173.60 91.60 171.09 91.36 C 151.19 88.12 130.88 88.06 110.84 89.80 C 104.82 90.27 98.92 91.87 92.87 91.81 C 92.04 90.33 93.09 89.00 93.72 87.70 C 91.84 87.18 89.96 86.66 88.08 86.13 C 89.28 84.72 90.49 83.31 91.67 81.88 C 90.38 81.64 89.09 81.41 87.80 81.18 C 87.76 80.45 87.70 79.00 87.66 78.27 C 85.13 77.41 82.91 75.91 80.90 74.17 C 79.32 72.76 77.08 72.47 75.53 71.04 C 75.16 68.90 76.53 66.09 74.34 64.61 C 72.46 62.98 69.78 63.52 67.50 63.24 C 68.56 61.88 69.63 60.52 70.72 59.19 C 67.00 53.80 65.29 46.79 67.71 40.51 C 71.24 29.50 84.15 24.17 94.96 25.99 C 96.64 25.40 98.38 25.57 100.04 26.12 C 102.39 23.36 105.15 20.79 108.70 19.73 C 115.98 17.18 123.71 19.23 130.76 21.52 C 131.75 19.45 132.78 17.40 133.81 15.34 C 132.70 13.23 131.62 11.11 130.55 8.99 M 110.97 22.93 C 105.92 24.50 102.77 29.86 102.84 34.98 C 103.01 38.71 104.87 42.00 106.87 45.04 C 105.92 46.82 105.03 48.68 105.07 50.75 C 106.50 50.05 107.94 49.36 109.38 48.68 C 109.09 50.63 108.79 52.58 108.54 54.54 C 109.88 53.78 111.17 52.93 112.54 52.23 C 112.71 53.66 112.84 55.09 112.92 56.53 C 114.52 57.09 116.13 57.61 117.74 58.13 C 116.48 59.49 115.17 60.80 113.79 62.04 C 113.90 62.68 114.12 63.97 114.23 64.61 C 111.74 64.41 109.24 64.61 106.77 64.94 C 108.00 67.08 109.19 69.79 111.91 70.29 C 114.17 70.53 115.84 68.71 117.59 67.61 C 116.78 66.19 115.51 64.77 115.84 62.99 C 115.89 60.35 119.99 59.19 121.49 61.41 C 122.89 62.64 121.72 64.79 121.85 66.37 C 123.43 67.56 124.96 69.08 127.01 69.40 C 130.81 68.79 132.72 65.05 133.17 61.57 C 131.12 61.64 129.07 61.73 127.02 61.84 C 125.93 62.81 124.83 63.78 123.72 64.73 C 123.82 63.77 124.04 61.86 124.15 60.90 C 122.75 59.92 121.38 58.91 120.04 57.87 C 121.31 56.90 122.59 55.95 123.87 55.00 C 123.31 53.41 122.77 51.81 122.26 50.20 C 124.16 50.24 126.08 50.35 127.99 50.23 C 128.03 49.36 128.11 47.60 128.16 46.73 C 128.62 46.59 129.55 46.33 130.01 46.19 C 128.96 44.52 127.92 42.85 126.89 41.17 C 129.96 36.24 128.10 30.25 129.23 24.84 C 123.46 22.74 117.02 20.96 110.97 22.93 M 141.39 24.91 C 142.24 30.35 140.57 36.33 143.65 41.26 C 142.74 42.74 141.83 44.22 140.95 45.71 C 142.01 47.14 142.43 48.86 142.81 50.57 C 144.64 50.45 146.47 50.31 148.31 50.18 C 147.77 51.87 147.20 53.55 146.58 55.20 C 147.84 56.01 149.10 56.81 150.37 57.61 C 149.19 58.94 147.85 60.10 146.39 61.12 C 146.53 61.98 146.82 63.70 146.97 64.56 C 144.31 62.17 140.91 61.37 137.40 61.55 C 137.87 64.56 138.91 68.03 142.08 69.19 C 144.61 70.44 146.70 67.90 148.57 66.58 C 148.63 64.87 147.62 62.57 149.27 61.30 C 150.73 59.70 153.48 60.20 154.39 62.15 C 155.79 64.07 153.64 66.12 152.96 67.91 C 154.84 69.02 156.69 70.83 159.07 70.37 C 161.58 69.64 162.60 66.99 163.71 64.90 C 161.18 64.70 158.61 64.42 156.11 65.07 C 156.28 64.07 156.45 63.08 156.62 62.09 C 155.27 60.82 153.98 59.50 152.72 58.15 C 154.32 57.72 155.93 57.30 157.53 56.84 C 157.66 55.30 157.80 53.76 157.98 52.22 C 159.26 53.08 160.55 53.93 161.85 54.75 C 161.67 52.75 161.43 50.75 161.21 48.74 C 162.53 49.42 163.83 50.11 165.14 50.82 C 165.29 50.37 165.59 49.46 165.74 49.01 C 165.02 47.76 164.29 46.52 163.57 45.27 C 165.42 42.44 167.36 39.44 167.58 35.96 C 168.20 30.39 164.64 24.49 159.17 22.93 C 153.23 21.30 147.01 22.86 141.39 24.91 M 132.97 28.14 C 134.16 28.52 135.38 28.69 136.62 28.66 C 136.65 27.68 136.40 26.78 135.88 25.94 C 134.84 26.58 133.87 27.31 132.97 28.14 M 81.49 31.38 C 76.28 33.09 72.46 38.52 73.08 44.06 C 72.97 46.97 74.80 49.38 75.65 52.04 C 75.33 54.60 74.62 57.10 74.36 59.68 C 74.97 59.11 76.18 57.96 76.79 57.39 C 77.95 58.94 79.09 60.52 80.18 62.12 C 82.38 61.38 84.66 60.72 86.54 59.30 C 86.65 60.23 86.75 61.17 86.84 62.11 C 88.11 62.73 89.38 63.35 90.65 63.97 C 89.43 65.03 88.20 66.09 86.95 67.12 C 87.46 67.57 88.48 68.46 89.00 68.91 C 87.50 70.07 85.72 70.70 83.96 71.30 C 86.16 72.90 88.75 74.70 91.46 73.07 C 89.02 71.21 87.96 66.79 91.50 65.48 C 94.88 64.40 96.27 68.35 95.75 71.01 C 96.93 71.55 98.10 72.09 99.28 72.63 C 101.82 71.28 103.03 68.74 103.70 66.08 C 101.10 65.95 98.73 66.75 96.92 68.65 C 96.91 67.28 96.90 65.91 96.90 64.54 C 95.37 64.04 93.85 63.53 92.34 63.01 C 94.12 61.16 97.77 59.48 95.60 56.46 C 97.00 56.44 98.40 56.41 99.81 56.36 C 98.57 54.83 97.29 53.35 96.00 51.87 C 97.62 51.75 99.24 51.67 100.86 51.62 C 101.35 49.75 102.36 47.70 100.87 45.98 C 98.35 41.92 97.19 37.20 97.47 32.42 C 92.39 30.62 86.72 29.53 81.49 31.38 M 172.96 32.68 C 173.45 38.20 171.79 43.59 168.56 48.04 C 169.04 49.31 169.52 50.58 169.98 51.86 C 171.50 51.87 173.01 51.89 174.53 51.93 C 173.30 53.45 172.06 54.97 170.87 56.53 C 172.29 56.58 173.71 56.62 175.13 56.66 C 174.86 57.30 174.32 58.59 174.05 59.24 C 175.38 60.56 176.73 61.87 178.09 63.17 C 176.48 63.77 174.86 64.34 173.24 64.88 C 173.69 66.22 174.18 67.55 174.71 68.86 C 174.83 65.88 178.52 64.12 180.51 66.52 C 182.62 68.59 180.47 71.22 179.02 72.92 C 179.57 73.33 180.65 74.14 181.20 74.55 C 183.11 73.61 184.96 72.53 186.77 71.40 C 184.79 70.75 182.89 69.87 181.48 68.29 C 182.10 68.12 183.33 67.78 183.95 67.61 C 182.67 66.50 181.41 65.37 180.17 64.22 C 181.98 63.10 184.24 62.17 184.08 59.61 C 186.05 60.71 188.16 61.50 190.26 62.29 C 191.41 60.63 192.60 59.00 193.85 57.42 C 194.47 58.05 195.69 59.31 196.31 59.94 C 195.89 57.28 195.36 54.63 194.72 52.01 C 196.23 49.24 197.80 46.27 197.56 43.00 C 197.50 37.68 193.57 32.77 188.48 31.36 C 183.34 29.69 177.91 31.01 172.96 32.68 M 133.10 38.81 C 133.91 39.26 135.54 40.15 136.35 40.59 C 136.41 39.57 136.42 38.55 136.37 37.54 C 135.04 36.92 134.08 38.16 133.10 38.81 M 132.88 56.06 C 133.81 56.71 134.74 57.37 135.74 57.92 C 136.05 57.44 136.67 56.47 136.98 55.99 C 136.24 53.52 134.06 54.80 132.88 56.06 M 103.63 58.74 C 101.78 59.41 103.28 62.02 104.76 61.48 C 107.21 61.30 105.31 56.48 103.63 58.74 M 165.34 58.43 C 163.10 59.66 165.34 62.58 167.26 61.25 C 168.10 59.81 167.22 57.74 165.34 58.43 M 166.93 66.31 C 167.60 68.11 167.82 70.31 169.47 71.54 C 171.17 73.56 173.55 71.44 175.50 70.98 C 174.04 69.50 172.51 68.08 171.06 66.58 C 169.68 66.48 168.31 66.39 166.93 66.31 M 77.16 67.73 C 77.16 69.73 77.68 71.51 80.06 70.61 C 79.13 69.61 78.17 68.65 77.16 67.73 M 192.07 68.30 C 190.44 68.71 190.81 71.81 192.65 71.09 C 194.20 70.62 193.91 67.65 192.07 68.30 M 130.29 72.98 C 133.54 72.82 136.79 72.75 140.05 72.79 C 138.40 71.63 136.79 70.42 135.23 69.15 C 133.63 70.49 131.99 71.78 130.29 72.98 M 116.09 73.54 C 118.50 73.43 120.90 73.30 123.31 73.18 C 122.21 72.46 121.11 71.74 120.01 71.03 C 118.71 71.87 117.40 72.70 116.09 73.54 M 147.05 73.14 C 149.53 73.26 152.01 73.41 154.49 73.57 C 153.22 72.73 151.95 71.88 150.69 71.02 C 149.47 71.73 148.26 72.44 147.05 73.14 M 105.66 72.34 C 104.75 73.33 103.84 74.31 102.91 75.28 C 105.00 74.87 107.10 74.55 109.21 74.24 C 108.02 73.62 106.84 72.98 105.66 72.34 M 161.09 74.31 C 163.17 74.51 165.25 74.71 167.34 74.93 C 166.53 74.05 165.74 73.17 164.95 72.28 C 163.66 72.97 162.38 73.64 161.09 74.31 M 123.00 82.54 C 125.80 81.74 124.73 79.08 122.97 77.83 C 121.93 79.36 120.89 81.28 123.00 82.54 M 146.64 78.70 C 144.47 79.52 146.20 83.65 147.95 81.97 C 150.01 81.21 148.30 77.56 146.64 78.70 M 130.27 79.55 C 130.25 79.97 130.20 80.80 130.18 81.22 C 133.57 81.24 136.96 81.25 140.35 81.26 C 140.38 80.85 140.42 80.02 140.44 79.61 C 137.05 79.55 133.66 79.53 130.27 79.55 M 108.39 82.83 C 111.78 82.92 115.20 82.50 118.38 81.26 C 115.17 79.98 111.07 80.65 108.39 82.83 M 153.26 80.32 C 153.24 80.74 153.19 81.59 153.16 82.02 C 156.19 82.45 159.24 82.91 162.31 82.78 C 159.76 80.73 156.33 80.84 153.26 80.32 M 101.15 82.07 C 101.09 83.17 101.44 84.11 102.17 84.92 C 104.06 84.89 104.32 82.92 104.74 81.52 C 103.53 81.55 102.11 81.07 101.15 82.07 M 166.21 82.25 C 166.02 83.18 166.63 85.62 167.95 84.66 C 169.48 84.41 169.25 82.61 169.71 81.52 C 168.52 81.59 166.91 80.85 166.21 82.25 M 92.24 84.08 C 91.80 86.73 94.70 84.93 96.04 84.97 C 94.94 83.94 93.65 83.09 92.24 84.08 M 174.78 83.31 C 175.50 85.41 177.22 85.91 179.27 85.27 C 178.02 84.13 176.44 83.55 174.78 83.31 Z"/>
<path fill="#22558e" stroke="#22558e" stroke-width="0.09375" opacity="1.00" d=" M 115.98 93.58 C 139.54 90.01 163.92 93.34 186.02 102.08 C 216.69 114.44 242.26 138.59 256.68 168.31 C 264.24 183.81 268.23 200.83 270.00 217.92 L 270.00 234.70 C 269.27 247.02 266.64 259.17 262.90 270.91 C 252.14 303.12 228.49 330.57 198.63 346.61 C 169.87 361.60 135.56 366.54 104.01 358.46 C 71.52 351.25 42.36 330.79 23.79 303.26 C 8.70 281.62 0.90 255.25 0.31 228.97 C 0.05 214.38 2.66 199.88 6.84 185.94 C 17.63 151.28 43.43 121.80 75.97 105.87 C 88.52 99.60 102.18 95.85 115.98 93.58 M 120.60 100.80 C 104.74 102.70 89.22 107.53 75.18 115.16 C 49.66 128.74 29.13 151.39 18.11 178.12 C 7.11 204.14 5.30 233.87 12.87 261.07 C 19.90 286.55 35.02 309.77 55.70 326.26 C 76.93 343.31 103.73 353.43 130.98 354.21 C 154.45 355.06 178.08 349.14 198.42 337.41 C 223.90 322.96 243.86 299.28 254.09 271.86 C 264.73 243.90 264.93 212.18 254.69 184.07 C 244.11 154.23 221.89 128.74 193.70 114.29 C 171.42 102.54 145.60 97.99 120.60 100.80 Z"/>
<path fill="#ffd02d" stroke="#ffd02d" stroke-width="0.09375" opacity="1.00" d=" M 120.60 100.80 C 145.60 97.99 171.42 102.54 193.70 114.29 C 221.89 128.74 244.11 154.23 254.69 184.07 C 264.93 212.18 264.73 243.90 254.09 271.86 C 243.86 299.28 223.90 322.96 198.42 337.41 C 178.08 349.14 154.45 355.06 130.98 354.21 C 103.73 353.43 76.93 343.31 55.70 326.26 C 35.02 309.77 19.90 286.55 12.87 261.07 C 5.30 233.87 7.11 204.14 18.11 178.12 C 29.13 151.39 49.66 128.74 75.18 115.16 C 89.22 107.53 104.74 102.70 120.60 100.80 M 125.17 112.18 C 89.20 114.93 55.48 136.16 36.89 166.98 C 22.59 190.06 17.24 218.29 21.40 245.07 C 25.55 272.15 39.82 297.54 60.81 315.14 C 81.74 333.13 109.40 343.05 136.99 342.49 C 161.63 342.24 186.11 333.69 205.56 318.55 C 227.52 301.72 242.96 276.75 248.38 249.64 C 251.71 231.81 251.15 213.19 246.15 195.72 C 238.56 168.50 220.49 144.43 196.56 129.43 C 175.52 115.99 150.01 109.99 125.17 112.18 Z"/>
<path fill="#22558e" stroke="#22558e" stroke-width="0.09375" opacity="1.00" d=" M 125.17 112.18 C 150.01 109.99 175.52 115.99 196.56 129.43 C 220.49 144.43 238.56 168.50 246.15 195.72 C 251.15 213.19 251.71 231.81 248.38 249.64 C 242.96 276.75 227.52 301.72 205.56 318.55 C 186.11 333.69 161.63 342.24 136.99 342.49 C 109.40 343.05 81.74 333.13 60.81 315.14 C 39.82 297.54 25.55 272.15 21.40 245.07 C 17.24 218.29 22.59 190.06 36.89 166.98 C 55.48 136.16 89.20 114.93 125.17 112.18 M 116.70 120.10 L 116.85 121.01 C 118.19 121.58 120.30 121.35 120.93 122.98 C 122.12 126.41 122.56 130.05 123.34 133.59 C 118.37 129.95 113.85 125.71 108.77 122.24 C 105.63 122.00 102.62 123.24 99.66 124.13 C 101.27 125.13 104.14 125.00 104.64 127.24 C 105.98 132.04 107.15 136.96 107.68 141.92 C 106.81 143.31 105.55 144.40 104.54 145.69 C 108.14 145.34 111.72 144.58 115.07 143.19 C 113.58 142.34 110.98 142.73 110.20 140.84 C 108.73 136.86 108.25 132.59 107.51 128.44 C 113.23 132.57 118.61 137.14 124.15 141.51 C 124.90 141.39 126.40 141.15 127.14 141.03 C 126.10 134.66 124.17 128.45 123.31 122.05 C 124.21 120.50 125.57 119.31 126.68 117.92 C 123.34 118.60 120.03 119.39 116.70 120.10 M 143.67 119.57 C 140.41 125.16 137.78 131.11 134.63 136.77 C 133.85 138.80 131.31 138.64 129.65 139.48 C 133.11 140.98 136.95 140.89 140.64 141.03 C 139.36 139.77 137.72 139.02 136.11 138.27 C 136.94 136.63 137.78 134.99 138.61 133.36 C 141.14 133.66 143.67 133.96 146.21 134.25 C 146.69 136.13 147.17 138.01 147.62 139.91 C 146.59 140.05 144.53 140.34 143.51 140.48 C 145.30 142.10 147.83 142.02 150.08 142.29 C 153.30 142.48 156.47 143.04 159.62 143.71 C 162.60 146.07 166.00 148.46 169.98 148.35 C 173.83 148.40 177.90 145.06 177.27 140.96 C 176.22 136.42 171.30 134.60 168.93 130.93 C 167.30 128.23 171.57 125.20 173.89 126.98 C 177.08 128.72 176.73 132.75 177.47 135.79 C 177.74 135.80 178.28 135.82 178.54 135.83 C 179.75 133.54 180.58 131.08 181.54 128.69 C 180.84 128.63 179.45 128.52 178.76 128.46 C 176.06 126.12 172.75 123.88 168.99 124.40 C 165.30 124.64 161.90 128.26 162.80 132.03 C 163.97 136.90 170.24 138.19 171.36 143.07 C 170.76 145.29 168.31 147.04 166.07 145.84 C 161.68 144.39 161.45 139.11 160.70 135.32 C 159.12 137.29 158.15 139.62 157.29 141.96 C 155.90 141.00 153.85 140.53 153.39 138.69 C 151.29 132.11 149.65 125.38 147.73 118.75 C 146.41 118.89 144.35 117.93 143.67 119.57 M 184.73 141.97 C 184.56 147.02 190.58 149.92 190.27 154.98 C 189.19 157.02 186.55 157.88 184.67 156.35 C 180.56 153.87 181.78 148.50 181.78 144.51 C 179.73 146.50 178.03 148.80 176.35 151.10 C 180.53 153.50 182.76 158.79 187.87 159.62 C 191.66 160.63 196.44 158.19 196.62 153.97 C 196.66 149.61 192.65 146.79 191.22 142.94 C 189.93 140.05 194.22 137.57 196.36 139.58 C 199.69 142.21 197.88 146.85 198.52 150.45 C 200.36 148.29 201.97 145.94 203.48 143.54 C 199.50 141.81 197.69 136.80 193.08 136.26 C 189.30 135.34 185.08 138.01 184.73 141.97 M 66.65 145.00 C 67.87 144.53 69.09 144.04 70.30 143.54 C 74.15 148.66 78.25 153.65 81.39 159.26 L 79.37 159.87 C 79.94 160.42 80.52 160.97 81.11 161.52 C 86.18 157.39 91.65 153.79 96.88 149.87 C 95.41 147.62 93.83 145.45 92.04 143.46 C 92.14 145.63 92.55 147.81 92.33 150.00 C 91.25 152.60 88.45 153.76 86.29 155.31 C 82.62 150.34 78.92 145.41 75.46 140.30 C 76.24 138.97 76.99 137.61 77.70 136.24 C 73.81 138.80 69.08 140.84 66.65 145.00 M 124.47 149.64 C 98.58 153.17 75.17 170.52 64.37 194.32 C 55.84 212.59 54.82 234.21 61.65 253.19 C 67.62 270.41 79.95 285.27 95.65 294.49 C 107.77 301.78 121.94 305.32 136.03 305.46 C 153.12 305.06 170.17 299.25 183.53 288.51 C 197.63 277.47 207.73 261.42 211.51 243.91 C 215.41 226.56 213.05 207.85 204.95 192.02 C 198.07 178.05 186.77 166.33 173.12 158.83 C 158.50 150.48 141.11 147.50 124.47 149.64 M 209.81 150.43 C 210.31 151.71 210.83 152.99 211.37 154.26 C 206.54 158.15 201.54 161.82 196.50 165.43 C 195.61 164.81 193.83 163.58 192.93 162.96 C 195.02 167.14 197.91 170.88 201.22 174.17 C 200.89 172.78 200.54 171.41 200.19 170.04 C 202.40 168.33 204.63 166.63 206.95 165.07 C 206.32 169.51 204.76 173.73 203.41 177.98 C 205.26 180.45 207.13 182.91 209.18 185.22 C 208.54 180.13 210.32 175.29 211.59 170.46 C 214.68 171.95 219.27 172.67 221.20 169.04 C 223.09 164.53 218.83 160.86 216.56 157.45 C 214.38 155.09 213.21 151.28 209.81 150.43 M 51.98 159.17 C 55.19 164.86 58.63 170.41 61.78 176.14 C 63.14 178.19 62.49 180.71 62.63 183.01 C 64.90 180.25 68.03 177.76 68.63 174.03 C 67.31 174.99 66.02 176.01 64.76 177.04 C 63.75 175.43 62.75 173.82 61.77 172.20 C 63.40 170.13 65.04 168.08 66.74 166.06 C 68.50 166.68 70.25 167.31 71.99 167.97 C 71.54 169.23 71.10 170.50 70.67 171.77 C 74.52 169.91 76.04 165.50 79.30 162.90 C 78.88 162.46 78.45 162.04 78.02 161.62 C 76.51 162.49 74.77 163.15 73.07 162.39 C 67.35 160.81 61.78 158.74 56.05 157.21 C 54.24 156.24 53.21 158.25 51.98 159.17 M 206.56 279.08 C 207.25 278.71 208.61 277.99 209.29 277.63 C 212.57 280.08 218.21 280.74 219.01 285.38 C 221.10 282.01 223.03 278.52 224.61 274.87 C 223.75 273.68 223.22 272.15 221.90 271.38 C 220.43 270.80 218.98 271.70 217.59 272.08 C 216.96 270.09 215.48 267.70 213.02 268.70 C 209.90 271.44 208.42 275.47 206.56 279.08 M 58.53 269.23 C 58.05 270.67 57.78 272.43 56.21 273.13 C 53.16 275.05 49.98 277.61 46.11 276.67 C 47.56 278.91 48.95 281.19 50.49 283.37 C 50.58 282.60 50.77 281.05 50.86 280.28 C 52.27 279.87 53.64 277.87 55.16 278.60 C 56.65 279.86 55.00 281.71 54.87 283.22 C 56.72 282.11 58.57 281.00 60.44 279.92 C 58.81 279.85 57.54 279.22 56.63 278.02 C 56.91 276.16 59.03 275.75 60.28 274.72 C 61.03 276.03 61.78 277.36 62.51 278.69 C 61.97 279.84 61.44 280.99 60.92 282.15 C 62.33 281.52 63.73 280.87 65.13 280.21 C 63.00 276.50 60.83 272.83 58.53 269.23 M 201.72 285.31 C 202.79 285.01 203.86 284.72 204.93 284.42 C 207.22 286.32 209.76 288.00 211.69 290.29 C 213.15 292.42 211.24 295.12 209.01 295.62 C 205.88 294.22 203.45 291.71 200.73 289.69 C 200.72 288.96 200.69 287.51 200.68 286.79 C 198.98 288.66 197.31 290.57 195.62 292.45 C 200.05 292.16 202.35 296.53 205.98 298.23 C 210.75 299.52 216.37 292.54 212.42 288.62 C 210.07 285.84 204.76 284.42 206.23 279.82 C 204.67 281.60 203.14 283.41 201.72 285.31 M 62.41 285.47 C 59.98 286.72 57.73 289.07 57.77 291.96 C 57.59 297.12 63.41 301.43 68.26 299.38 C 70.81 297.88 73.09 295.17 72.80 292.04 C 72.84 287.15 66.82 283.05 62.41 285.47 M 184.72 302.10 C 187.62 301.80 189.16 304.30 190.83 306.15 C 192.50 308.08 194.52 310.13 193.94 312.96 C 197.18 310.13 200.46 307.34 203.69 304.51 C 202.54 303.24 201.39 301.97 200.22 300.73 C 200.40 302.15 200.52 303.58 200.59 305.02 C 199.71 306.27 198.54 307.28 197.45 308.34 C 195.00 305.50 192.56 302.66 190.09 299.84 C 190.41 298.89 190.72 297.94 191.04 296.99 C 188.87 298.62 186.79 300.35 184.72 302.10 M 75.35 298.49 C 70.86 300.61 69.69 307.26 73.48 310.58 C 76.95 314.08 83.55 313.18 85.44 308.42 C 88.91 302.50 81.20 295.12 75.35 298.49 M 174.53 309.44 C 172.10 314.27 176.57 320.75 181.98 319.95 C 186.02 320.15 188.84 315.87 188.14 312.13 C 186.72 314.30 185.76 319.04 182.13 317.73 C 178.15 315.83 176.27 310.97 177.62 306.81 C 180.46 306.38 183.03 307.54 185.46 308.87 C 184.45 307.28 183.43 305.70 182.40 304.12 C 179.55 305.40 175.57 305.99 174.53 309.44 M 90.53 305.28 C 89.80 306.59 89.07 307.90 88.35 309.22 C 90.17 308.62 92.00 307.99 93.92 307.76 C 93.53 311.73 90.57 314.81 88.93 318.32 C 88.16 318.41 86.61 318.58 85.84 318.67 C 88.24 320.21 90.74 321.56 93.24 322.92 C 91.48 318.03 96.06 313.97 98.07 309.88 C 99.02 311.50 99.64 313.29 100.08 315.13 C 100.89 314.09 101.71 313.05 102.53 312.02 C 98.55 309.74 94.53 307.53 90.53 305.28 M 103.64 312.46 C 104.08 313.06 104.95 314.26 105.39 314.86 C 103.77 318.65 103.95 324.04 99.69 325.99 C 103.79 326.77 107.97 329.88 112.18 328.21 C 114.84 327.02 114.09 323.90 112.88 321.92 C 114.50 320.68 116.99 318.20 114.56 316.42 C 111.31 314.24 107.36 313.45 103.64 312.46 M 149.66 317.26 C 150.36 317.54 151.77 318.08 152.47 318.35 C 153.41 321.76 154.29 325.19 155.08 328.64 C 154.64 329.21 153.78 330.36 153.35 330.94 C 157.71 329.85 162.08 328.75 166.38 327.44 C 165.93 325.85 165.48 324.27 165.02 322.69 C 164.43 324.07 163.88 325.47 163.34 326.89 C 161.92 327.23 159.31 329.19 158.61 327.00 C 157.99 323.15 154.78 318.60 157.90 315.14 C 155.16 315.89 152.41 316.57 149.66 317.26 M 125.04 317.68 C 122.33 321.95 121.08 327.49 116.75 330.49 L 116.61 331.18 C 118.81 331.25 121.00 331.32 123.20 331.33 C 122.45 330.87 120.96 329.96 120.21 329.50 C 120.78 328.57 121.35 327.63 121.92 326.71 C 123.42 326.91 124.93 327.13 126.43 327.35 C 126.56 328.36 126.69 329.38 126.82 330.40 C 126.29 330.78 125.23 331.54 124.70 331.92 C 127.46 332.18 130.22 332.43 132.98 332.73 C 129.21 328.77 129.09 323.05 127.51 318.10 C 126.89 318.00 125.66 317.79 125.04 317.68 M 135.82 318.23 C 136.53 319.40 137.82 320.35 137.74 321.86 C 137.89 325.45 139.48 329.77 136.39 332.56 C 140.71 332.22 145.04 331.89 149.36 331.50 C 149.26 329.85 149.15 328.19 149.02 326.55 C 148.15 327.66 147.44 328.86 146.78 330.11 C 145.27 330.43 143.75 330.72 142.23 330.98 C 141.80 327.24 141.60 323.48 141.42 319.73 C 142.03 319.27 143.24 318.36 143.85 317.90 C 141.17 318.04 138.50 318.17 135.82 318.23 Z"/>
<path fill="#ffd02d" stroke="#ffd02d" stroke-width="0.09375" opacity="1.00" d=" M 116.70 120.10 C 120.03 119.39 123.34 118.60 126.68 117.92 C 125.57 119.31 124.21 120.50 123.31 122.05 C 124.17 128.45 126.10 134.66 127.14 141.03 C 126.40 141.15 124.90 141.39 124.15 141.51 C 118.61 137.14 113.23 132.57 107.51 128.44 C 108.25 132.59 108.73 136.86 110.20 140.84 C 110.98 142.73 113.58 142.34 115.07 143.19 C 111.72 144.58 108.14 145.34 104.54 145.69 C 105.55 144.40 106.81 143.31 107.68 141.92 C 107.15 136.96 105.98 132.04 104.64 127.24 C 104.14 125.00 101.27 125.13 99.66 124.13 C 102.62 123.24 105.63 122.00 108.77 122.24 C 113.85 125.71 118.37 129.95 123.34 133.59 C 122.56 130.05 122.12 126.41 120.93 122.98 C 120.30 121.35 118.19 121.58 116.85 121.01 L 116.70 120.10 Z"/>
<path fill="#ffd02d" stroke="#ffd02d" stroke-width="0.09375" opacity="1.00" d=" M 143.67 119.57 C 144.35 117.93 146.41 118.89 147.73 118.75 C 149.65 125.38 151.29 132.11 153.39 138.69 C 153.85 140.53 155.90 141.00 157.29 141.96 C 158.15 139.62 159.12 137.29 160.70 135.32 C 161.45 139.11 161.68 144.39 166.07 145.84 C 168.31 147.04 170.76 145.29 171.36 143.07 C 170.24 138.19 163.97 136.90 162.80 132.03 C 161.90 128.26 165.30 124.64 168.99 124.40 C 172.75 123.88 176.06 126.12 178.76 128.46 C 179.45 128.52 180.84 128.63 181.54 128.69 C 180.58 131.08 179.75 133.54 178.54 135.83 C 178.28 135.82 177.74 135.80 177.47 135.79 C 176.73 132.75 177.08 128.72 173.89 126.98 C 171.57 125.20 167.30 128.23 168.93 130.93 C 171.30 134.60 176.22 136.42 177.27 140.96 C 177.90 145.06 173.83 148.40 169.98 148.35 C 166.00 148.46 162.60 146.07 159.62 143.71 C 156.47 143.04 153.30 142.48 150.08 142.29 C 147.83 142.02 145.30 142.10 143.51 140.48 C 144.53 140.34 146.59 140.05 147.62 139.91 C 147.17 138.01 146.69 136.13 146.21 134.25 C 143.67 133.96 141.14 133.66 138.61 133.36 C 137.78 134.99 136.94 136.63 136.11 138.27 C 137.72 139.02 139.36 139.77 140.64 141.03 C 136.95 140.89 133.11 140.98 129.65 139.48 C 131.31 138.64 133.85 138.80 134.63 136.77 C 137.78 131.11 140.41 125.16 143.67 119.57 M 139.46 131.82 C 141.56 132.04 143.65 132.26 145.76 132.46 C 144.90 129.85 144.05 127.24 143.15 124.64 C 141.87 127.01 140.66 129.41 139.46 131.82 Z"/>
<path fill="#22558e" stroke="#22558e" stroke-width="0.09375" opacity="1.00" d=" M 139.46 131.82 C 140.66 129.41 141.87 127.01 143.15 124.64 C 144.05 127.24 144.90 129.85 145.76 132.46 C 143.65 132.26 141.56 132.04 139.46 131.82 Z"/>
<path fill="#ffd02d" stroke="#ffd02d" stroke-width="0.09375" opacity="1.00" d=" M 184.73 141.97 C 185.08 138.01 189.30 135.34 193.08 136.26 C 197.69 136.80 199.50 141.81 203.48 143.54 C 201.97 145.94 200.36 148.29 198.52 150.45 C 197.88 146.85 199.69 142.21 196.36 139.58 C 194.22 137.57 189.93 140.05 191.22 142.94 C 192.65 146.79 196.66 149.61 196.62 153.97 C 196.44 158.19 191.66 160.63 187.87 159.62 C 182.76 158.79 180.53 153.50 176.35 151.10 C 178.03 148.80 179.73 146.50 181.78 144.51 C 181.78 148.50 180.56 153.87 184.67 156.35 C 186.55 157.88 189.19 157.02 190.27 154.98 C 190.58 149.92 184.56 147.02 184.73 141.97 Z"/>
<path fill="#ffd02d" stroke="#ffd02d" stroke-width="0.09375" opacity="1.00" d=" M 66.65 145.00 C 69.08 140.84 73.81 138.80 77.70 136.24 C 76.99 137.61 76.24 138.97 75.46 140.30 C 78.92 145.41 82.62 150.34 86.29 155.31 C 88.45 153.76 91.25 152.60 92.33 150.00 C 92.55 147.81 92.14 145.63 92.04 143.46 C 93.83 145.45 95.41 147.62 96.88 149.87 C 91.65 153.79 86.18 157.39 81.11 161.52 C 80.52 160.97 79.94 160.42 79.37 159.87 L 81.39 159.26 C 78.25 153.65 74.15 148.66 70.30 143.54 C 69.09 144.04 67.87 144.53 66.65 145.00 Z"/>
<path fill="#ffd02d" stroke="#ffd02d" stroke-width="0.09375" opacity="1.00" d=" M 124.47 149.64 C 141.11 147.50 158.50 150.48 173.12 158.83 C 186.77 166.33 198.07 178.05 204.95 192.02 C 213.05 207.85 215.41 226.56 211.51 243.91 C 207.73 261.42 197.63 277.47 183.53 288.51 C 170.17 299.25 153.12 305.06 136.03 305.46 C 121.94 305.32 107.77 301.78 95.65 294.49 C 79.95 285.27 67.62 270.41 61.65 253.19 C 54.82 234.21 55.84 212.59 64.37 194.32 C 75.17 170.52 98.58 153.17 124.47 149.64 M 139.66 182.48 C 139.67 183.43 139.70 185.33 139.72 186.28 C 138.42 186.40 137.13 186.52 135.83 186.64 C 136.56 187.47 137.29 188.29 138.03 189.12 C 138.14 189.77 138.37 191.07 138.49 191.72 C 138.93 191.98 139.82 192.48 140.27 192.73 C 142.71 197.00 147.76 199.74 148.01 205.11 C 149.47 205.21 151.10 204.71 152.47 205.38 C 153.35 207.35 153.96 209.43 154.70 211.46 C 158.05 211.03 161.60 211.14 164.75 209.78 C 165.95 206.93 166.90 203.92 169.89 202.37 C 170.99 203.14 172.15 203.86 173.16 204.77 C 174.21 206.64 173.99 209.63 176.47 210.32 C 181.22 211.75 186.79 211.59 190.39 215.57 C 190.35 219.05 190.36 222.52 190.33 226.00 C 188.00 226.37 185.67 226.74 183.35 227.16 C 182.95 230.42 182.58 233.68 182.16 236.93 C 179.38 240.06 175.59 242.14 173.23 245.64 C 172.80 245.70 171.94 245.83 171.51 245.90 C 171.22 250.57 165.50 250.86 162.02 252.06 C 161.34 253.60 160.94 255.42 159.48 256.46 C 154.46 260.14 148.98 263.20 143.12 265.31 C 138.81 267.49 134.87 270.54 129.92 271.16 C 129.70 271.65 129.26 272.63 129.04 273.12 C 126.42 273.34 123.80 273.60 121.19 273.90 C 118.33 270.58 118.61 265.32 114.65 262.94 C 114.52 259.59 114.95 256.18 114.34 252.87 C 112.71 251.26 110.57 250.35 108.55 249.34 C 107.24 245.53 105.92 241.65 103.45 238.40 C 103.41 237.34 103.36 236.29 103.32 235.24 C 100.94 234.25 96.58 233.52 97.15 230.03 C 98.11 227.42 99.21 224.84 99.33 222.02 C 94.42 218.59 89.16 214.99 86.59 209.37 C 84.85 205.64 81.28 203.16 79.64 199.38 C 78.83 197.52 78.33 195.54 77.74 193.60 C 76.94 194.56 76.13 195.52 75.34 196.49 C 74.30 195.98 73.27 195.49 72.23 195.00 C 74.28 198.13 75.59 201.62 74.32 205.36 C 76.01 206.54 77.70 207.70 79.39 208.87 C 79.77 212.73 79.83 216.66 80.70 220.45 C 82.09 222.96 84.76 224.35 86.63 226.45 C 89.45 230.65 88.95 235.96 90.40 240.63 C 91.85 244.32 95.59 246.21 98.78 248.15 C 98.95 251.24 98.58 254.48 99.56 257.46 C 102.14 261.64 106.72 264.17 111.25 265.72 C 112.34 268.66 114.56 270.84 116.79 272.94 C 116.79 274.65 116.59 276.36 116.47 278.07 C 118.79 278.67 121.12 279.23 123.46 279.74 C 123.47 281.49 123.49 283.24 123.52 285.00 C 129.00 282.99 134.81 281.83 139.95 278.99 C 143.98 276.89 148.63 276.56 153.09 276.48 C 154.63 276.51 156.63 276.21 157.14 278.12 C 157.50 281.33 157.28 284.57 157.38 287.80 C 174.16 280.01 188.27 266.00 194.45 248.39 C 200.69 230.75 200.16 210.56 191.68 193.74 C 191.26 195.68 190.86 197.64 190.48 199.60 C 187.07 200.30 183.61 202.00 180.08 201.13 C 177.22 200.33 176.39 196.99 174.01 195.56 C 170.93 195.87 168.25 198.44 164.92 197.68 C 160.67 198.03 157.16 195.51 153.50 193.82 C 151.72 192.44 149.70 191.33 148.12 189.71 C 146.78 187.73 146.35 185.33 145.65 183.09 C 143.65 182.88 141.65 182.68 139.66 182.48 M 99.19 197.80 C 101.65 200.35 105.28 199.31 108.20 198.34 C 119.87 214.97 131.62 231.54 143.20 248.23 C 147.46 245.30 151.75 242.42 155.82 239.23 C 154.10 238.92 152.38 238.62 150.66 238.32 C 148.50 239.78 146.34 241.25 144.16 242.70 C 142.99 240.97 141.82 239.25 140.66 237.52 C 142.97 234.90 145.03 231.23 143.26 227.74 C 140.22 222.53 136.44 217.78 132.99 212.84 C 133.98 212.13 135.00 211.48 136.00 210.78 C 134.22 210.41 132.43 210.06 130.66 209.66 C 128.46 211.14 126.29 212.64 124.10 214.14 C 119.78 207.99 115.44 201.86 111.10 195.72 C 112.61 194.65 114.12 193.58 115.63 192.52 C 113.81 192.17 111.99 191.83 110.17 191.49 C 107.83 193.18 105.60 195.08 102.99 196.36 C 99.68 197.07 99.07 192.76 97.80 190.79 C 97.49 193.17 96.86 196.19 99.19 197.80 M 157.73 232.67 C 157.12 234.49 159.04 235.59 159.99 236.79 C 160.95 235.67 163.38 234.39 162.33 232.60 C 161.50 230.61 158.56 230.73 157.73 232.67 Z"/>
<path fill="#ffd02d" stroke="#ffd02d" stroke-width="0.09375" opacity="1.00" d=" M 209.81 150.43 C 213.21 151.28 214.38 155.09 216.56 157.45 C 218.83 160.86 223.09 164.53 221.20 169.04 C 219.27 172.67 214.68 171.95 211.59 170.46 C 210.32 175.29 208.54 180.13 209.18 185.22 C 207.13 182.91 205.26 180.45 203.41 177.98 C 204.76 173.73 206.32 169.51 206.95 165.07 C 204.63 166.63 202.40 168.33 200.19 170.04 C 200.54 171.41 200.89 172.78 201.22 174.17 C 197.91 170.88 195.02 167.14 192.93 162.96 C 193.83 163.58 195.61 164.81 196.50 165.43 C 201.54 161.82 206.54 158.15 211.37 154.26 C 210.83 152.99 210.31 151.71 209.81 150.43 M 207.80 164.24 C 208.81 165.34 209.76 166.54 210.99 167.42 C 213.81 167.69 216.73 165.79 217.48 163.03 C 217.40 161.34 216.05 160.10 215.29 158.69 C 212.79 160.54 210.30 162.40 207.80 164.24 Z"/>
<path fill="#ffd02d" stroke="#ffd02d" stroke-width="0.09375" opacity="1.00" d=" M 51.98 159.17 C 53.21 158.25 54.24 156.24 56.05 157.21 C 61.78 158.74 67.35 160.81 73.07 162.39 C 74.77 163.15 76.51 162.49 78.02 161.62 C 78.45 162.04 78.88 162.46 79.30 162.90 C 76.04 165.50 74.52 169.91 70.67 171.77 C 71.10 170.50 71.54 169.23 71.99 167.97 C 70.25 167.31 68.50 166.68 66.74 166.06 C 65.04 168.08 63.40 170.13 61.77 172.20 C 62.75 173.82 63.75 175.43 64.76 177.04 C 66.02 176.01 67.31 174.99 68.63 174.03 C 68.03 177.76 64.90 180.25 62.63 183.01 C 62.49 180.71 63.14 178.19 61.78 176.14 C 58.63 170.41 55.19 164.86 51.98 159.17 M 56.87 163.33 C 58.01 165.77 59.32 168.13 60.70 170.44 C 61.82 168.91 62.90 167.35 63.98 165.78 C 61.64 164.89 59.26 164.08 56.87 163.33 Z"/>
<path fill="#22558e" stroke="#22558e" stroke-width="0.09375" opacity="1.00" d=" M 207.80 164.24 C 210.30 162.40 212.79 160.54 215.29 158.69 C 216.05 160.10 217.40 161.34 217.48 163.03 C 216.73 165.79 213.81 167.69 210.99 167.42 C 209.76 166.54 208.81 165.34 207.80 164.24 Z"/>
<path fill="#22558e" stroke="#22558e" stroke-width="0.09375" opacity="1.00" d=" M 56.87 163.33 C 59.26 164.08 61.64 164.89 63.98 165.78 C 62.90 167.35 61.82 168.91 60.70 170.44 C 59.32 168.13 58.01 165.77 56.87 163.33 Z"/>
<path fill="#22558e" stroke="#22558e" stroke-width="0.09375" opacity="1.00" d=" M 139.66 182.48 C 141.65 182.68 143.65 182.88 145.65 183.09 C 146.35 185.33 146.78 187.73 148.12 189.71 C 149.70 191.33 151.72 192.44 153.50 193.82 C 157.16 195.51 160.67 198.03 164.92 197.68 C 168.25 198.44 170.93 195.87 174.01 195.56 C 176.39 196.99 177.22 200.33 180.08 201.13 C 183.61 202.00 187.07 200.30 190.48 199.60 C 190.86 197.64 191.26 195.68 191.68 193.74 C 200.16 210.56 200.69 230.75 194.45 248.39 C 188.27 266.00 174.16 280.01 157.38 287.80 C 157.28 284.57 157.50 281.33 157.14 278.12 C 156.63 276.21 154.63 276.51 153.09 276.48 C 148.63 276.56 143.98 276.89 139.95 278.99 C 134.81 281.83 129.00 282.99 123.52 285.00 C 123.49 283.24 123.47 281.49 123.46 279.74 C 121.12 279.23 118.79 278.67 116.47 278.07 C 116.59 276.36 116.79 274.65 116.79 272.94 C 114.56 270.84 112.34 268.66 111.25 265.72 C 106.72 264.17 102.14 261.64 99.56 257.46 C 98.58 254.48 98.95 251.24 98.78 248.15 C 95.59 246.21 91.85 244.32 90.40 240.63 C 88.95 235.96 89.45 230.65 86.63 226.45 C 84.76 224.35 82.09 222.96 80.70 220.45 C 79.83 216.66 79.77 212.73 79.39 208.87 C 77.70 207.70 76.01 206.54 74.32 205.36 C 75.59 201.62 74.28 198.13 72.23 195.00 C 73.27 195.49 74.30 195.98 75.34 196.49 C 76.13 195.52 76.94 194.56 77.74 193.60 C 78.33 195.54 78.83 197.52 79.64 199.38 C 81.28 203.16 84.85 205.64 86.59 209.37 C 89.16 214.99 94.42 218.59 99.33 222.02 C 99.21 224.84 98.11 227.42 97.15 230.03 C 96.58 233.52 100.94 234.25 103.32 235.24 C 103.36 236.29 103.41 237.34 103.45 238.40 C 105.92 241.65 107.24 245.53 108.55 249.34 C 110.57 250.35 112.71 251.26 114.34 252.87 C 114.95 256.18 114.52 259.59 114.65 262.94 C 118.61 265.32 118.33 270.58 121.19 273.90 C 123.80 273.60 126.42 273.34 129.04 273.12 C 129.26 272.63 129.70 271.65 129.92 271.16 C 134.87 270.54 138.81 267.49 143.12 265.31 C 148.98 263.20 154.46 260.14 159.48 256.46 C 160.94 255.42 161.34 253.60 162.02 252.06 C 165.50 250.86 171.22 250.57 171.51 245.90 C 171.94 245.83 172.80 245.70 173.23 245.64 C 175.59 242.14 179.38 240.06 182.16 236.93 C 182.58 233.68 182.95 230.42 183.35 227.16 C 185.67 226.74 188.00 226.37 190.33 226.00 C 190.36 222.52 190.35 219.05 190.39 215.57 C 186.79 211.59 181.22 211.75 176.47 210.32 C 173.99 209.63 174.21 206.64 173.16 204.77 C 172.15 203.86 170.99 203.14 169.89 202.37 C 166.90 203.92 165.95 206.93 164.75 209.78 C 161.60 211.14 158.05 211.03 154.70 211.46 C 153.96 209.43 153.35 207.35 152.47 205.38 C 151.10 204.71 149.47 205.21 148.01 205.11 C 147.76 199.74 142.71 197.00 140.27 192.73 C 139.82 192.48 138.93 191.98 138.49 191.72 C 138.37 191.07 138.14 189.77 138.03 189.12 C 137.29 188.29 136.56 187.47 135.83 186.64 C 137.13 186.52 138.42 186.40 139.72 186.28 C 139.70 185.33 139.67 183.43 139.66 182.48 Z"/>
<path fill="#22558e" stroke="#22558e" stroke-width="0.09375" opacity="1.00" d=" M 99.19 197.80 C 96.86 196.19 97.49 193.17 97.80 190.79 C 99.07 192.76 99.68 197.07 102.99 196.36 C 105.60 195.08 107.83 193.18 110.17 191.49 C 111.99 191.83 113.81 192.17 115.63 192.52 C 114.12 193.58 112.61 194.65 111.10 195.72 C 115.44 201.86 119.78 207.99 124.10 214.14 C 126.29 212.64 128.46 211.14 130.66 209.66 C 132.43 210.06 134.22 210.41 136.00 210.78 C 135.00 211.48 133.98 212.13 132.99 212.84 C 136.44 217.78 140.22 222.53 143.26 227.74 C 145.03 231.23 142.97 234.90 140.66 237.52 C 141.82 239.25 142.99 240.97 144.16 242.70 C 146.34 241.25 148.50 239.78 150.66 238.32 C 152.38 238.62 154.10 238.92 155.82 239.23 C 151.75 242.42 147.46 245.30 143.20 248.23 C 131.62 231.54 119.87 214.97 108.20 198.34 C 105.28 199.31 101.65 200.35 99.19 197.80 M 126.79 217.49 C 130.62 222.98 134.39 228.52 138.38 233.90 C 139.11 232.39 140.57 230.55 139.12 228.96 C 135.92 224.40 132.83 219.76 129.46 215.31 C 128.80 215.86 127.46 216.94 126.79 217.49 Z"/>
<path fill="#ffd02d" stroke="#ffd02d" stroke-width="0.09375" opacity="1.00" d=" M 126.79 217.49 C 127.46 216.94 128.80 215.86 129.46 215.31 C 132.83 219.76 135.92 224.40 139.12 228.96 C 140.57 230.55 139.11 232.39 138.38 233.90 C 134.39 228.52 130.62 222.98 126.79 217.49 Z"/>
<path fill="#22558e" stroke="#22558e" stroke-width="0.09375" opacity="1.00" d=" M 157.73 232.67 C 158.56 230.73 161.50 230.61 162.33 232.60 C 163.38 234.39 160.95 235.67 159.99 236.79 C 159.04 235.59 157.12 234.49 157.73 232.67 Z"/>
<path fill="#ffd02d" stroke="#ffd02d" stroke-width="0.09375" opacity="1.00" d=" M 206.56 279.08 C 208.42 275.47 209.90 271.44 213.02 268.70 C 215.48 267.70 216.96 270.09 217.59 272.08 C 218.98 271.70 220.43 270.80 221.90 271.38 C 223.22 272.15 223.75 273.68 224.61 274.87 C 223.03 278.52 221.10 282.01 219.01 285.38 C 218.21 280.74 212.57 280.08 209.29 277.63 C 208.61 277.99 207.25 278.71 206.56 279.08 M 210.03 273.96 C 211.79 274.95 213.57 275.92 215.38 276.85 C 215.21 274.97 215.25 272.68 213.10 271.97 C 212.04 272.58 211.02 273.24 210.03 273.96 M 216.05 277.27 C 217.79 277.86 219.54 279.30 221.45 278.57 C 221.49 276.95 220.99 275.05 219.10 274.78 C 217.46 274.37 217.01 276.40 216.05 277.27 Z"/>
<path fill="#ffd02d" stroke="#ffd02d" stroke-width="0.09375" opacity="1.00" d=" M 58.53 269.23 C 60.83 272.83 63.00 276.50 65.13 280.21 C 63.73 280.87 62.33 281.52 60.92 282.15 C 61.44 280.99 61.97 279.84 62.51 278.69 C 61.78 277.36 61.03 276.03 60.28 274.72 C 59.03 275.75 56.91 276.16 56.63 278.02 C 57.54 279.22 58.81 279.85 60.44 279.92 C 58.57 281.00 56.72 282.11 54.87 283.22 C 55.00 281.71 56.65 279.86 55.16 278.60 C 53.64 277.87 52.27 279.87 50.86 280.28 C 50.77 281.05 50.58 282.60 50.49 283.37 C 48.95 281.19 47.56 278.91 46.11 276.67 C 49.98 277.61 53.16 275.05 56.21 273.13 C 57.78 272.43 58.05 270.67 58.53 269.23 Z"/>
<path fill="#22558e" stroke="#22558e" stroke-width="0.09375" opacity="1.00" d=" M 210.03 273.96 C 211.02 273.24 212.04 272.58 213.10 271.97 C 215.25 272.68 215.21 274.97 215.38 276.85 C 213.57 275.92 211.79 274.95 210.03 273.96 Z"/>
<path fill="#22558e" stroke="#22558e" stroke-width="0.09375" opacity="1.00" d=" M 216.05 277.27 C 217.01 276.40 217.46 274.37 219.10 274.78 C 220.99 275.05 221.49 276.95 221.45 278.57 C 219.54 279.30 217.79 277.86 216.05 277.27 Z"/>
<path fill="#ffd02d" stroke="#ffd02d" stroke-width="0.09375" opacity="1.00" d=" M 201.72 285.31 C 203.14 283.41 204.67 281.60 206.23 279.82 C 204.76 284.42 210.07 285.84 212.42 288.62 C 216.37 292.54 210.75 299.52 205.98 298.23 C 202.35 296.53 200.05 292.16 195.62 292.45 C 197.31 290.57 198.98 288.66 200.68 286.79 C 200.69 287.51 200.72 288.96 200.73 289.69 C 203.45 291.71 205.88 294.22 209.01 295.62 C 211.24 295.12 213.15 292.42 211.69 290.29 C 209.76 288.00 207.22 286.32 204.93 284.42 C 203.86 284.72 202.79 285.01 201.72 285.31 Z"/>
<path fill="#ffd02d" stroke="#ffd02d" stroke-width="0.09375" opacity="1.00" d=" M 62.41 285.47 C 66.82 283.05 72.84 287.15 72.80 292.04 C 73.09 295.17 70.81 297.88 68.26 299.38 C 63.41 301.43 57.59 297.12 57.77 291.96 C 57.73 289.07 59.98 286.72 62.41 285.47 M 59.09 295.25 C 60.38 295.99 61.47 297.36 63.06 297.43 C 66.44 296.11 70.12 293.80 70.82 289.95 C 70.07 288.60 68.89 286.75 67.08 287.43 C 63.29 288.44 60.49 291.68 59.09 295.25 Z"/>
<path fill="#22558e" stroke="#22558e" stroke-width="0.09375" opacity="1.00" d=" M 59.09 295.25 C 60.49 291.68 63.29 288.44 67.08 287.43 C 68.89 286.75 70.07 288.60 70.82 289.95 C 70.12 293.80 66.44 296.11 63.06 297.43 C 61.47 297.36 60.38 295.99 59.09 295.25 Z"/>
<path fill="#ffd02d" stroke="#ffd02d" stroke-width="0.09375" opacity="1.00" d=" M 184.72 302.10 C 186.79 300.35 188.87 298.62 191.04 296.99 C 190.72 297.94 190.41 298.89 190.09 299.84 C 192.56 302.66 195.00 305.50 197.45 308.34 C 198.54 307.28 199.71 306.27 200.59 305.02 C 200.52 303.58 200.40 302.15 200.22 300.73 C 201.39 301.97 202.54 303.24 203.69 304.51 C 200.46 307.34 197.18 310.13 193.94 312.96 C 194.52 310.13 192.50 308.08 190.83 306.15 C 189.16 304.30 187.62 301.80 184.72 302.10 Z"/>
<path fill="#ffd02d" stroke="#ffd02d" stroke-width="0.09375" opacity="1.00" d=" M 75.35 298.49 C 81.20 295.12 88.91 302.50 85.44 308.42 C 83.55 313.18 76.95 314.08 73.48 310.58 C 69.69 307.26 70.86 300.61 75.35 298.49 M 73.15 309.27 C 74.52 309.74 75.86 311.32 77.42 310.56 C 81.41 309.04 83.78 304.81 83.87 300.66 C 78.32 297.75 73.85 304.48 73.15 309.27 Z"/>
<path fill="#22558e" stroke="#22558e" stroke-width="0.09375" opacity="1.00" d=" M 73.15 309.27 C 73.85 304.48 78.32 297.75 83.87 300.66 C 83.78 304.81 81.41 309.04 77.42 310.56 C 75.86 311.32 74.52 309.74 73.15 309.27 Z"/>
<path fill="#ffd02d" stroke="#ffd02d" stroke-width="0.09375" opacity="1.00" d=" M 174.53 309.44 C 175.57 305.99 179.55 305.40 182.40 304.12 C 183.43 305.70 184.45 307.28 185.46 308.87 C 183.03 307.54 180.46 306.38 177.62 306.81 C 176.27 310.97 178.15 315.83 182.13 317.73 C 185.76 319.04 186.72 314.30 188.14 312.13 C 188.84 315.87 186.02 320.15 181.98 319.95 C 176.57 320.75 172.10 314.27 174.53 309.44 Z"/>
<path fill="#ffd02d" stroke="#ffd02d" stroke-width="0.09375" opacity="1.00" d=" M 90.53 305.28 C 94.53 307.53 98.55 309.74 102.53 312.02 C 101.71 313.05 100.89 314.09 100.08 315.13 C 99.64 313.29 99.02 311.50 98.07 309.88 C 96.06 313.97 91.48 318.03 93.24 322.92 C 90.74 321.56 88.24 320.21 85.84 318.67 C 86.61 318.58 88.16 318.41 88.93 318.32 C 90.57 314.81 93.53 311.73 93.92 307.76 C 92.00 307.99 90.17 308.62 88.35 309.22 C 89.07 307.90 89.80 306.59 90.53 305.28 Z"/>
<path fill="#ffd02d" stroke="#ffd02d" stroke-width="0.09375" opacity="1.00" d=" M 103.64 312.46 C 107.36 313.45 111.31 314.24 114.56 316.42 C 116.99 318.20 114.50 320.68 112.88 321.92 C 114.09 323.90 114.84 327.02 112.18 328.21 C 107.97 329.88 103.79 326.77 99.69 325.99 C 103.95 324.04 103.77 318.65 105.39 314.86 C 104.95 314.26 104.08 313.06 103.64 312.46 M 107.50 320.50 C 108.91 320.29 110.22 319.84 111.45 319.17 C 111.80 317.45 111.30 316.11 109.93 315.15 C 108.25 316.27 108.34 318.80 107.50 320.50 M 107.44 320.69 C 106.70 322.82 106.06 324.98 105.50 327.17 C 106.43 327.16 108.29 327.12 109.22 327.10 C 109.58 325.75 110.96 324.34 110.20 322.91 C 109.35 322.08 108.38 321.39 107.44 320.69 Z"/>
<path fill="#22558e" stroke="#22558e" stroke-width="0.09375" opacity="1.00" d=" M 107.50 320.50 C 108.34 318.80 108.25 316.27 109.93 315.15 C 111.30 316.11 111.80 317.45 111.45 319.17 C 110.22 319.84 108.91 320.29 107.50 320.50 Z"/>
<path fill="#ffd02d" stroke="#ffd02d" stroke-width="0.09375" opacity="1.00" d=" M 149.66 317.26 C 152.41 316.57 155.16 315.89 157.90 315.14 C 154.78 318.60 157.99 323.15 158.61 327.00 C 159.31 329.19 161.92 327.23 163.34 326.89 C 163.88 325.47 164.43 324.07 165.02 322.69 C 165.48 324.27 165.93 325.85 166.38 327.44 C 162.08 328.75 157.71 329.85 153.35 330.94 C 153.78 330.36 154.64 329.21 155.08 328.64 C 154.29 325.19 153.41 321.76 152.47 318.35 C 151.77 318.08 150.36 317.54 149.66 317.26 Z"/>
<path fill="#ffd02d" stroke="#ffd02d" stroke-width="0.09375" opacity="1.00" d=" M 125.04 317.68 C 125.66 317.79 126.89 318.00 127.51 318.10 C 129.09 323.05 129.21 328.77 132.98 332.73 C 130.22 332.43 127.46 332.18 124.70 331.92 C 125.23 331.54 126.29 330.78 126.82 330.40 C 126.69 329.38 126.56 328.36 126.43 327.35 C 124.93 327.13 123.42 326.91 121.92 326.71 C 121.35 327.63 120.78 328.57 120.21 329.50 C 120.96 329.96 122.45 330.87 123.20 331.33 C 121.00 331.32 118.81 331.25 116.61 331.18 L 116.75 330.49 C 121.08 327.49 122.33 321.95 125.04 317.68 M 122.31 325.51 C 123.52 325.71 124.73 325.91 125.95 326.12 C 125.55 324.58 125.14 323.04 124.73 321.51 C 123.92 322.84 123.11 324.17 122.31 325.51 Z"/>
<path fill="#ffd02d" stroke="#ffd02d" stroke-width="0.09375" opacity="1.00" d=" M 135.82 318.23 C 138.50 318.17 141.17 318.04 143.85 317.90 C 143.24 318.36 142.03 319.27 141.42 319.73 C 141.60 323.48 141.80 327.24 142.23 330.98 C 143.75 330.72 145.27 330.43 146.78 330.11 C 147.44 328.86 148.15 327.66 149.02 326.55 C 149.15 328.19 149.26 329.85 149.36 331.50 C 145.04 331.89 140.71 332.22 136.39 332.56 C 139.48 329.77 137.89 325.45 137.74 321.86 C 137.82 320.35 136.53 319.40 135.82 318.23 Z"/>
<path fill="#22558e" stroke="#22558e" stroke-width="0.09375" opacity="1.00" d=" M 107.44 320.69 C 108.38 321.39 109.35 322.08 110.20 322.91 C 110.96 324.34 109.58 325.75 109.22 327.10 C 108.29 327.12 106.43 327.16 105.50 327.17 C 106.06 324.98 106.70 322.82 107.44 320.69 Z"/>
<path fill="#22558e" stroke="#22558e" stroke-width="0.09375" opacity="1.00" d=" M 122.31 325.51 C 123.11 324.17 123.92 322.84 124.73 321.51 C 125.14 323.04 125.55 324.58 125.95 326.12 C 124.73 325.91 123.52 325.71 122.31 325.51 Z"/>
</svg>