<svg xmlns:inkscape="http://www.inkscape.org/namespaces/inkscape" xmlns:sodipodi="http://sodipodi.sourceforge.net/DTD/sodipodi-0.dtd" xmlns="http://www.w3.org/2000/svg" xmlns:svg="http://www.w3.org/2000/svg" width="600" height="470.07172" viewBox="0 0 600 470.07172" version="1.1" id="svg36" sodipodi:docname="63e288c71454d8633773ce45_AlbaladLogoWhite.svg" inkscape:version="1.3.2 (091e20e, 2023-11-25, custom)">
  <sodipodi:namedview id="namedview36" pagecolor="#ffffff" bordercolor="#999999" borderopacity="1" inkscape:showpageshadow="2" inkscape:pageopacity="0" inkscape:pagecheckerboard="0" inkscape:deskcolor="#d1d1d1" inkscape:zoom="0.73149742" inkscape:cx="159.94588" inkscape:cy="103.89647" inkscape:window-width="1500" inkscape:window-height="912" inkscape:window-x="-8" inkscape:window-y="-8" inkscape:window-maximized="1" inkscape:current-layer="a"/>
  <defs id="defs1">
    <clipPath id="b">
      <rect width="127.82" height="100" id="rect1" x="0" y="0"/>
    </clipPath>
  </defs>
  <g id="a" clip-path="url(#b)" transform="matrix(4.7007172,0,0,4.7007172,-0.84566843,0)">
    <g transform="translate(-1245.021,-100)" id="g36">
      <g id="g37" inkscape:label="MAIN LOGO">
        <path d="m 435.213,329.411 h 4.3 a 1.658,1.658 0 0 0 1.3,-0.639 l 6.272,-8.1 a 1.655,1.655 0 0 0 0.344,-1.007 V 274.9 a 2.311,2.311 0 0 0 -4.131,-1.426 l -8.369,10.678 a 10.76,10.76 0 0 0 -1.369,2.255 v 41.312 a 1.647,1.647 0 0 0 1.645,1.686 z" transform="translate(925.368,-172.589)" fill="#fff" id="path1" style="display:inline;fill:#414141;fill-opacity:1"/>
        <path d="m 367.454,302.392 h 2.013 a 0.365,0.365 0 0 0 0.286,-0.138 l 12.476,-15.8 a 0.246,0.246 0 0 0 -0.193,-0.4 h -2.26 a 0.365,0.365 0 0 0 -0.286,0.138 L 367.168,301.8 a 0.365,0.365 0 0 0 0.286,0.592 z" transform="translate(952.938,-178.22)" fill="#fff" id="path2" style="display:inline;fill:#414141;fill-opacity:1"/>
        <path d="m 240.692,329.362 65.19,0.049 a 1.165,1.165 0 0 0 0.91,-0.436 l 8.57,-10.715 v 0 l 2.162,-2.7 v 12.7 a 1.159,1.159 0 0 0 1.162,1.156 h 22.489 a 1.65,1.65 0 0 0 1.31,-0.639 l 6.31,-8.1 a 1.649,1.649 0 0 0 0.347,-1.008 V 274.9 a 2.328,2.328 0 0 0 -4.156,-1.426 l -8.422,10.678 a 1.653,1.653 0 0 0 -0.351,0.976 v 31.251 h -7.787 v -14.85 a 1.163,1.163 0 0 0 -2.072,-0.719 v 0 l -12.463,15.575 h -6.269 V 274.9 a 2.328,2.328 0 0 0 -4.156,-1.426 l -8.421,10.678 a 1.658,1.658 0 0 0 -0.352,0.976 v 31.251 h -7.733 l -0.022,-3.758 V 304.2 a 2.949,2.949 0 0 0 -2.955,-2.937 H 251 l 2.494,-3.146 a 0.246,0.246 0 0 0 -0.194,-0.4 h -2.332 a 0.247,0.247 0 0 0 -0.194,0.094 l -4.617,5.827 -6.19,7.682 a 1.333,1.333 0 0 0 -0.166,1.43 1.35,1.35 0 0 0 1.227,0.767 H 277.2 a 0.29,0.29 0 0 1 0.275,0.172 0.286,0.286 0 0 1 -0.035,0.321 l -1.922,2.423 h -34.826 a 1.292,1.292 0 0 0 -1.3,1.286 v 10.355 a 1.292,1.292 0 0 0 1.3,1.288 z" transform="translate(1005.879,-172.589)" fill="#fff" id="path3" style="display:inline;fill:#414141;fill-opacity:1"/>
        <path d="m 361.917,385.974 a 1,1 0 0 0 0.1,-0.005 1.018,1.018 0 0 0 0.686,-0.368 l 4.639,-5.681 a 1.017,1.017 0 0 0 -0.144,-1.431 l -5.68,-4.639 a 1.017,1.017 0 0 0 -1.431,0.144 l -4.64,5.681 a 1.018,1.018 0 0 0 0.144,1.431 l 5.681,4.64 a 1.019,1.019 0 0 0 0.645,0.228 z" transform="translate(957.849,-214.475)" fill="#fff" id="path4" style="display:inline;fill:#414141;fill-opacity:1"/>
      </g>
      <g transform="translate(1245.197,174.655)" id="g35" inkscape:label="TEXT">
        <g transform="translate(0.021,17.013)" id="g22" inkscape:label="ENGLISH TEXT">
          <rect width="1.63" height="8.0690002" transform="translate(92.799,0.13)" fill="#ffffff" id="rect4" x="0" y="0" style="fill:#414141;fill-opacity:1"/>
          <path d="m 406.117,432.932 c -1.221,-1.046 -1.278,-1.321 -1.278,-1.756 0,-0.5 0.169,-0.687 0.624,-0.687 0.4,0 0.573,0.165 0.573,0.537 v 0.772 h 1.55 v -0.89 a 1.3,1.3 0 0 0 -0.442,-1.116 2.731,2.731 0 0 0 -1.627,-0.461 c -1.552,0 -2.307,0.646 -2.307,1.974 0,1.094 0.689,1.746 1.59,2.485 1.341,1.09 1.341,1.266 1.341,1.85 0,0.525 -0.2,0.73 -0.7,0.73 -0.257,0 -0.6,-0.07 -0.6,-0.676 V 434.9 h -1.629 v 1.083 c 0,1 0.777,1.545 2.188,1.545 1.543,0 2.293,-0.677 2.293,-2.071 -0.003,-0.983 -0.267,-1.408 -1.576,-2.525 z" transform="translate(-307.305,-429.265)" fill="#ffffff" id="path5" style="fill:#414141;fill-opacity:1"/>
          <path d="m 412.769,430.664 h 1.57 v 6.847 h 1.629 v -6.847 h 1.57 v -1.222 h -4.769 z" transform="translate(-311.27,-429.311)" fill="#ffffff" id="path6" style="fill:#414141;fill-opacity:1"/>
          <path d="m 449.205,429.442 v 1.222 h 1.57 v 6.847 h 1.625 v -6.847 h 1.57 v -1.222 z" transform="translate(-326.388,-429.312)" fill="#ffffff" id="path7" style="fill:#414141;fill-opacity:1"/>
          <path d="m 427.854,436.357 v -1.685 a 1.137,1.137 0 0 0 -0.772,-1.229 c 0.691,-0.319 0.824,-0.84 0.824,-1.733 0,-1.79 -0.282,-2.274 -2.267,-2.274 h -2.189 v 8.064 h 1.63 v -3.37 h 0.285 c 0.785,0 0.859,0.134 0.859,0.762 v 1.749 a 1.28,1.28 0 0 0 0.184,0.787 l 0.048,0.071 h 1.52 l -0.048,-0.2 a 4.248,4.248 0 0 1 -0.074,-0.942 z m -2.594,-3.445 h -0.179 v -2.254 h 0.467 c 0.688,0 0.73,0 0.73,1.1 0,1.067 -0.078,1.154 -1.018,1.154 z" transform="translate(-315.619,-429.309)" fill="#ffffff" id="path8" style="fill:#414141;fill-opacity:1"/>
          <rect width="1.63" height="8.0690002" transform="translate(113.865,0.127)" fill="#ffffff" id="rect8" x="0" y="0" style="fill:#414141;fill-opacity:1"/>
          <path d="m 441.478,429.325 c -1.574,0 -2.372,0.74 -2.372,2.2 v 3.918 c 0,1.42 0.745,2.081 2.346,2.081 1.4,0 2.084,-0.523 2.084,-1.6 v -1.019 h -1.551 v 0.7 c 0,0.513 -0.209,0.762 -0.638,0.762 -0.31,0 -0.612,-0.07 -0.612,-0.912 v -3.8 c 0,-1 0.162,-1.17 0.651,-1.17 0.419,0 0.6,0.193 0.6,0.645 v 0.7 h 1.551 v -0.933 c -10e-4,-0.591 -0.268,-1.572 -2.059,-1.572 z" transform="translate(-322.165,-429.263)" fill="#ffffff" id="path9" style="fill:#414141;fill-opacity:1"/>
          <g transform="translate(0,0.066)" id="g15">
            <path d="m 241.6,435.8 c 0,0.477 -0.089,0.623 -0.382,0.623 -0.178,0 -0.343,-0.07 -0.343,-0.578 V 434.9 H 239.3 v 1.178 c 0,1.335 0.969,1.515 1.918,1.515 1.684,0 2.038,-0.913 2.038,-1.679 v -6.588 H 241.6 Z" transform="translate(-239.296,-429.331)" fill="#ffffff" id="path10" style="fill:#414141;fill-opacity:1"/>
            <path d="m 248.874,437.532 h 3.943 v -1.243 h -2.287 v -2.335 h 2.155 v -1.242 h -2.155 v -2.139 h 2.287 v -1.242 h -3.943 z" transform="translate(-243.301,-429.331)" fill="#ffffff" id="path11" style="fill:#414141;fill-opacity:1"/>
            <path d="m 260.093,429.331 h -2.3 v 8.2 h 2.092 c 2.1,0 2.7,-0.631 2.7,-2.813 v -2.345 c -0.002,-2.299 -0.195,-3.042 -2.492,-3.042 z m -0.173,6.958 h -0.475 v -5.716 h 0.369 c 1,0 1.114,0.283 1.114,1.4 v 2.7 c -10e-4,1.345 -0.17,1.617 -1.008,1.617 z" transform="translate(-247.028,-429.331)" fill="#ffffff" id="path12" style="fill:#414141;fill-opacity:1"/>
            <path d="m 271.112,429.331 h -2.3 v 8.2 h 2.088 c 2.1,0 2.7,-0.631 2.7,-2.813 v -2.345 c 0,-2.299 -0.191,-3.042 -2.488,-3.042 z m 0.834,2.639 v 2.7 c 0,1.343 -0.17,1.615 -1.007,1.615 h -0.475 v -5.716 h 0.369 c 1.004,0.004 1.113,0.287 1.113,1.401 z" transform="translate(-251.636,-429.331)" fill="#ffffff" id="path13" style="fill:#414141;fill-opacity:1"/>
            <path d="m 280.938,429.331 -2.2,8.2 h 1.674 l 0.439,-2.006 h 1.812 l 0.439,2.006 h 1.67 l -2.035,-8.2 z m 1.466,4.952 h -1.284 l 0.647,-2.93 z" transform="translate(-255.788,-429.331)" fill="#ffffff" id="path14" style="fill:#414141;fill-opacity:1"/>
            <path d="m 294.378,432.712 h -1.443 v -3.381 h -1.656 v 8.2 h 1.656 v -3.578 h 1.443 v 3.578 h 1.655 v -8.2 h -1.655 z" transform="translate(-261.032,-429.331)" fill="#ffffff" id="path15" style="fill:#414141;fill-opacity:1"/>
          </g>
          <path d="m 311.053,432.712 h -1.442 v -3.381 h -1.656 v 8.2 h 1.656 v -3.578 h 1.442 v 3.578 h 1.657 v -8.2 h -1.657 z" transform="translate(-267.783,-429.265)" fill="#ffffff" id="path16" style="fill:#414141;fill-opacity:1"/>
          <rect width="1.656" height="8.2010002" transform="translate(46.573,0.066)" fill="#ffffff" id="rect16" x="0" y="0" style="fill:#414141;fill-opacity:1"/>
          <path d="m 327.233,432.879 c -1.241,-1.063 -1.3,-1.343 -1.3,-1.785 0,-0.509 0.172,-0.7 0.635,-0.7 0.4,0 0.582,0.168 0.582,0.546 v 0.785 h 1.576 v -0.9 a 1.315,1.315 0 0 0 -0.45,-1.134 2.776,2.776 0 0 0 -1.654,-0.469 c -1.577,0 -2.344,0.656 -2.344,2.007 0,1.111 0.7,1.774 1.616,2.526 1.363,1.107 1.363,1.287 1.363,1.88 0,0.534 -0.2,0.742 -0.715,0.742 -0.261,0 -0.609,-0.072 -0.609,-0.687 v -0.807 h -1.655 v 1.1 c 0,1.012 0.79,1.57 2.224,1.57 1.568,0 2.331,-0.688 2.331,-2.1 0,-1.008 -0.27,-1.439 -1.6,-2.574 z" transform="translate(-274.556,-429.218)" fill="#ffffff" id="path17" style="fill:#414141;fill-opacity:1"/>
          <path d="m 333.994,430.573 h 1.6 v 6.959 h 1.656 v -6.959 h 1.6 v -1.242 h -4.847 z" transform="translate(-278.586,-429.265)" fill="#ffffff" id="path18" style="fill:#414141;fill-opacity:1"/>
          <path d="m 346.531,429.219 c -1.6,0 -2.411,0.752 -2.411,2.235 v 3.982 c 0,1.443 0.766,2.115 2.411,2.115 1.608,0 2.423,-0.752 2.423,-2.235 v -3.982 c 0,-1.443 -0.77,-2.115 -2.423,-2.115 z m 0.767,6.282 c 0,0.563 -0.273,0.873 -0.767,0.873 -0.494,0 -0.755,-0.318 -0.755,-0.873 v -4.134 c 0,-0.861 0.4,-0.971 0.755,-0.971 0.355,0 0.767,0.111 0.767,0.971 z" transform="translate(-282.788,-429.219)" fill="#ffffff" id="path19" style="fill:#414141;fill-opacity:1"/>
          <path d="m 359.683,436.366 v -1.712 a 1.156,1.156 0 0 0 -0.784,-1.25 c 0.7,-0.325 0.837,-0.854 0.837,-1.761 0,-1.819 -0.287,-2.311 -2.3,-2.311 h -2.224 v 8.2 h 1.656 v -3.424 h 0.289 c 0.8,0 0.874,0.137 0.874,0.775 v 1.777 a 1.3,1.3 0 0 0 0.187,0.8 l 0.049,0.072 h 1.545 l -0.049,-0.2 a 4.317,4.317 0 0 1 -0.08,-0.966 z m -1.6,-4.679 c 0,1.09 -0.077,1.178 -1.034,1.178 h -0.183 v -2.291 h 0.475 c 0.697,-0.001 0.739,-0.001 0.739,1.112 z" transform="translate(-287.388,-429.265)" fill="#ffffff" id="path20" style="fill:#414141;fill-opacity:1"/>
          <rect width="1.656" height="8.2010002" transform="translate(73.975,0.066)" fill="#ffffff" id="rect20" x="0" y="0" style="fill:#414141;fill-opacity:1"/>
          <path d="m 373.529,429.219 c -1.6,0 -2.411,0.752 -2.411,2.235 v 3.982 c 0,1.443 0.758,2.115 2.384,2.115 1.425,0 2.118,-0.531 2.118,-1.625 v -1.036 h -1.577 v 0.708 c 0,0.521 -0.212,0.775 -0.648,0.775 -0.314,0 -0.621,-0.072 -0.621,-0.928 v -3.861 c 0,-1.018 0.165,-1.189 0.661,-1.189 0.426,0 0.608,0.2 0.608,0.655 v 0.708 h 1.577 v -0.948 c 0,-0.594 -0.271,-1.591 -2.091,-1.591 z" transform="translate(-293.99,-429.219)" fill="#ffffff" id="path21" style="fill:#414141;fill-opacity:1"/>
          <path d="m 389.6,429.436 h -2.267 v 8.069 h 2.058 c 2.063,0 2.66,-0.621 2.66,-2.768 v -2.307 c -0.004,-2.262 -0.194,-2.994 -2.451,-2.994 z m 0.821,5.258 c 0,1.321 -0.166,1.589 -0.991,1.589 h -0.467 v -5.624 h 0.363 c 0.987,0 1.095,0.278 1.095,1.374 z" transform="translate(-300.716,-429.309)" fill="#ffffff" id="path22" style="fill:#414141;fill-opacity:1"/>
        </g>
        <g id="g38" inkscape:label="ARABIC TEXT">
          <path d="m 435.847,408.621 h -6.932 a 0.129,0.129 0 0 0 -0.1,0.048 l -1.415,1.771 a 0.172,0.172 0 0 0 0.135,0.28 h 5.956 a 0.128,0.128 0 0 1 0.118,0.074 0.129,0.129 0 0 1 -0.014,0.14 l -0.374,0.474 h -18.246 v -2.323 a 0.464,0.464 0 0 0 -0.463,-0.464 h -6.182 l 0.513,-0.651 H 408.5 l -1.964,2.47 a 0.172,0.172 0 0 0 0.135,0.28 h 6.6 a 0.13,0.13 0 0 1 0.119,0.074 0.128,0.128 0 0 1 -0.016,0.139 L 413,411.407 h -6.393 a 0.161,0.161 0 0 0 -0.161,0.161 v 1.9 a 0.161,0.161 0 0 0 0.161,0.161 h 29.578 a 0.128,0.128 0 0 0 0.127,-0.128 v -4.418 a 0.465,0.465 0 0 0 -0.465,-0.462 z" transform="translate(-308.487,-403.32)" fill="#fff" id="path23" style="display:inline;fill:#414141;fill-opacity:1"/>
          <path d="m 396.586,405.609 a 0.209,0.209 0 0 0 0.133,0.047 h 0.021 a 0.207,0.207 0 0 0 0.141,-0.076 l 0.941,-1.153 a 0.214,0.214 0 0 0 0.056,0.073 l 1.17,0.955 a 0.209,0.209 0 0 0 0.133,0.048 h 0.021 a 0.212,0.212 0 0 0 0.141,-0.076 l 0.956,-1.17 a 0.209,0.209 0 0 0 -0.03,-0.294 l -1.169,-0.955 a 0.21,0.21 0 0 0 -0.3,0.03 l -0.942,1.153 a 0.21,0.21 0 0 0 -0.056,-0.073 l -1.17,-0.955 a 0.21,0.21 0 0 0 -0.295,0.03 l -0.955,1.17 a 0.21,0.21 0 0 0 0.03,0.3 z" transform="translate(-304.018,-401.225)" fill="#fff" id="path24" style="display:inline;fill:#414141;fill-opacity:1"/>
          <path d="m 384.671,400 a 0.349,0.349 0 0 0 -0.116,-0.019 0.344,0.344 0 0 0 -0.272,0.134 l -1.537,1.961 a 0.237,0.237 0 0 0 -0.048,0.139 v 7.913 a 0.136,0.136 0 0 0 0.136,0.137 h 0.694 a 0.224,0.224 0 0 0 0.179,-0.088 l 1.152,-1.487 a 0.228,0.228 0 0 0 0.047,-0.139 v -8.22 A 0.345,0.345 0 0 0 384.671,400 Z" transform="translate(-298.783,-399.98)" fill="#fff" id="path25" style="display:inline;fill:#414141;fill-opacity:1"/>
          <path d="m 357.717,400 v 0 a 0.345,0.345 0 0 0 -0.389,0.115 l -1.537,1.961 a 0.235,0.235 0 0 0 -0.048,0.14 v 5.809 h -9.776 v -2.8 a 0.136,0.136 0 0 0 -0.092,-0.129 0.138,0.138 0 0 0 -0.151,0.044 v 0 l -2.3,2.886 h -15.149 v -7.694 a 0.349,0.349 0 0 0 -0.623,-0.215 l -1.536,1.961 a 0.227,0.227 0 0 0 -0.049,0.139 v 7.816 c 0,0.032 0,0.032 0,0.038 0,0.006 0,0.014 0,0.059 a 0.136,0.136 0 0 0 0.136,0.137 h 15.726 a 0.135,0.135 0 0 0 0.107,-0.052 l 2.094,-2.635 v 2.55 a 0.136,0.136 0 0 0 0.136,0.137 h 12.307 a 0.228,0.228 0 0 0 0.179,-0.088 l 1.152,-1.487 a 0.231,0.231 0 0 0 0.047,-0.139 v -8.22 A 0.345,0.345 0 0 0 357.717,400 Z" transform="translate(-275.197,-399.979)" fill="#fff" id="path26" style="display:inline;fill:#414141;fill-opacity:1"/>
          <path d="m 240.507,405.515 a 0.21,0.21 0 0 0 0.133,0.048 h 0.021 a 0.211,0.211 0 0 0 0.141,-0.076 l 0.942,-1.153 a 0.2,0.2 0 0 0 0.056,0.073 l 1.17,0.956 a 0.21,0.21 0 0 0 0.3,-0.03 l 0.956,-1.17 a 0.21,0.21 0 0 0 -0.03,-0.3 l -1.17,-0.955 a 0.21,0.21 0 0 0 -0.295,0.03 l -0.942,1.153 a 0.211,0.211 0 0 0 -0.056,-0.073 l -1.17,-0.956 a 0.21,0.21 0 0 0 -0.294,0.03 l -0.956,1.169 a 0.211,0.211 0 0 0 0.03,0.3 z" transform="translate(-239.26,-401.185)" fill="#fff" id="path27" style="display:inline;fill:#414141;fill-opacity:1"/>
          <path d="m 291.372,403.382 -0.955,1.17 a 0.21,0.21 0 0 0 0.03,0.295 l 1.17,0.955 a 0.207,0.207 0 0 0 0.132,0.047 0.21,0.21 0 0 0 0.163,-0.077 l 0.955,-1.17 a 0.209,0.209 0 0 0 -0.03,-0.294 l -1.17,-0.956 a 0.21,0.21 0 0 0 -0.295,0.03 z" transform="translate(-260.469,-401.37)" fill="#fff" id="path28" style="display:inline;fill:#414141;fill-opacity:1"/>
          <path d="m 355.648,402.941 -0.942,1.153 a 0.21,0.21 0 0 0 -0.056,-0.073 l -1.17,-0.956 a 0.21,0.21 0 0 0 -0.3,0.03 l -0.955,1.169 a 0.21,0.21 0 0 0 0.03,0.3 l 1.17,0.955 a 0.209,0.209 0 0 0 0.133,0.048 h 0.021 a 0.211,0.211 0 0 0 0.141,-0.076 l 0.941,-1.153 a 0.205,0.205 0 0 0 0.056,0.073 l 1.17,0.956 a 0.21,0.21 0 0 0 0.295,-0.03 l 0.956,-1.17 a 0.21,0.21 0 0 0 -0.03,-0.3 l -1.17,-0.955 a 0.21,0.21 0 0 0 -0.29,0.029 z" transform="translate(-286.112,-401.185)" fill="#fff" id="path29" style="display:inline;fill:#414141;fill-opacity:1"/>
          <path d="m 270.578,419.539 a 0.21,0.21 0 0 0 -0.3,0.03 l -0.942,1.153 a 0.216,0.216 0 0 0 -0.056,-0.073 l -1.171,-0.955 a 0.21,0.21 0 0 0 -0.295,0.03 l -0.955,1.17 a 0.21,0.21 0 0 0 0.03,0.294 l 1.17,0.955 a 0.211,0.211 0 0 0 0.133,0.048 h 0.021 a 0.211,0.211 0 0 0 0.141,-0.076 l 0.942,-1.153 a 0.211,0.211 0 0 0 0.056,0.073 l 1.17,0.955 a 0.21,0.21 0 0 0 0.3,-0.03 l 0.956,-1.17 a 0.21,0.21 0 0 0 -0.03,-0.295 z" transform="translate(-250.783,-408.138)" fill="#fff" id="path30" style="display:inline;fill:#414141;fill-opacity:1"/>
          <path d="m 311.3,422.191 h 0.021 a 0.211,0.211 0 0 0 0.141,-0.076 l 0.941,-1.153 a 0.211,0.211 0 0 0 0.056,0.073 l 1.17,0.955 a 0.207,0.207 0 0 0 0.133,0.047 0.209,0.209 0 0 0 0.162,-0.077 l 0.956,-1.17 a 0.21,0.21 0 0 0 -0.03,-0.295 l -1.17,-0.955 a 0.209,0.209 0 0 0 -0.294,0.03 l -0.942,1.153 a 0.211,0.211 0 0 0 -0.056,-0.073 l -1.17,-0.955 a 0.209,0.209 0 0 0 -0.294,0.03 l -0.956,1.17 a 0.209,0.209 0 0 0 0.03,0.294 l 1.169,0.956 a 0.213,0.213 0 0 0 0.133,0.046 z" transform="translate(-268.577,-408.138)" fill="#fff" id="path31" inkscape:label="path31" style="display:inline;fill:#414141;fill-opacity:1"/>
          <path d="m 448.332,419.8 a 0.21,0.21 0 0 0 -0.295,0.03 l -0.955,1.17 a 0.21,0.21 0 0 0 0.03,0.3 l 1.17,0.955 a 0.209,0.209 0 0 0 0.295,-0.03 l 0.955,-1.17 a 0.21,0.21 0 0 0 -0.03,-0.295 z" transform="translate(-325.46,-408.249)" fill="#fff" id="path32" style="display:inline;fill:#414141;fill-opacity:1"/>
          <path d="m 320.651,404.355 a 0.351,0.351 0 0 0 -0.116,-0.02 0.343,0.343 0 0 0 -0.272,0.134 l -1.537,1.96 a 0.234,0.234 0 0 0 -0.049,0.14 v 8.061 0 l -2.557,3.209 h 0.634 l 3.31,-4.174 0.767,-1 v -0.016 l 0.015,-0.02 a 0.226,0.226 0 0 0 0.043,-0.131 v -7.814 a 0.344,0.344 0 0 0 -0.238,-0.329 z" transform="translate(-271.149,-401.801)" fill="#fff" id="path33" style="display:inline;fill:#414141;fill-opacity:1"/>
          <path d="m 285.328,406.911 a 0.137,0.137 0 0 0 -0.152,0.045 l -1.566,2.016 a 0.137,0.137 0 0 0 -0.029,0.084 v 0.788 h -9.056 v -2.317 a 0.464,0.464 0 0 0 -0.464,-0.464 h -7.067 a 0.127,0.127 0 0 0 -0.1,0.048 l -1.419,1.771 a 0.172,0.172 0 0 0 0.134,0.281 h 6.091 a 0.128,0.128 0 0 1 0.118,0.074 0.13,0.13 0 0 1 -0.015,0.14 l -0.374,0.474 -11.058,-0.005 v -2.8 a 0.136,0.136 0 0 0 -0.243,-0.084 l -2.3,2.889 h -9.912 v -5.165 a 0.343,0.343 0 0 0 -0.613,-0.212 l -1.519,1.937 a 0.231,0.231 0 0 0 -0.047,0.137 v 0.584 h -5.973 a 0.457,0.457 0 0 0 -0.457,0.457 l -0.017,4.362 a 0.124,0.124 0 0 0 0.125,0.126 l 16.915,0.016 a 0.135,0.135 0 0 0 0.106,-0.052 l 2.094,-2.634 v 2.549 a 0.136,0.136 0 0 0 0.136,0.137 h 26.611 a 0.136,0.136 0 0 0 0.136,-0.137 v -4.909 a 0.137,0.137 0 0 0 -0.085,-0.136 z m -39.585,2.966 h -4.827 V 409.2 h 4.827 z" transform="translate(-239.276,-401.8)" fill="#fff" id="path34" style="display:inline;fill:#414141;fill-opacity:1"/>
          <path d="m 398.045,408.777 a 2.67,2.67 0 1 0 2.67,2.67 2.673,2.673 0 0 0 -2.67,-2.67 z m 0,3.1 a 0.43,0.43 0 1 1 0.431,-0.431 0.431,0.431 0 0 1 -0.431,0.431 z" transform="translate(-304.031,-403.658)" fill="#fff" id="path35" style="display:inline;fill:#414141;fill-opacity:1"/>
        </g>
      </g>
    </g>
  </g>
</svg>