<svg xmlns="http://www.w3.org/2000/svg" xmlns:xlink="http://www.w3.org/1999/xlink" height="316.227766" viewBox="0 0 199.91353 199.91376" width="316.227766"><clipPath id="a"><path d="m0 1000h1000v-1000h-1000z"/></clipPath><clipPath id="b"><path d="m342.64 872.496c-48.141-20.363-91.374-49.511-128.499-86.637-37.126-37.125-66.275-80.359-86.637-128.499-21.082-49.843-31.771-102.786-31.771-157.36 0-54.574 10.689-107.517 31.771-157.361 20.362-48.14 49.511-91.373 86.637-128.499 37.125-37.125 80.358-66.275 128.499-86.635 49.843-21.083 102.786-31.772 157.36-31.772 54.574 0 107.517 10.689 157.36 31.772 48.141 20.36 91.374 49.51 128.5 86.635 37.125 37.126 66.274 80.359 86.636 128.499 21.082 49.844 31.771 102.787 31.771 157.361 0 54.574-10.689 107.517-31.771 157.36-20.362 48.14-49.511 91.374-86.636 128.499-37.126 37.126-80.359 66.274-128.5 86.637-49.843 21.082-102.786 31.771-157.36 31.771-54.574 0-107.517-10.689-157.36-31.771m-237.527-372.496c0 217.742 177.146 394.887 394.887 394.887 217.742 0 394.887-177.145 394.887-394.887 0-217.741-177.145-394.887-394.887-394.887-217.741 0-394.887 177.146-394.887 394.887"/></clipPath><linearGradient id="c"><stop offset="0" stop-color="#934530"/><stop offset=".1" stop-color="#934530"/><stop offset=".5" stop-color="#ec7762"/><stop offset=".9" stop-color="#8f412b"/><stop offset="1" stop-color="#8f412b"/></linearGradient><linearGradient id="d" gradientTransform="matrix(808.53375 0 0 -808.53375 95.7332 499.99988)" gradientUnits="userSpaceOnUse" spreadMethod="pad" x1="0" x2="1" xlink:href="#c" y1="0" y2="0"/><clipPath id="e"><path d="m391.739 756.259c-33.12-14.008-62.862-34.06-88.399-59.599-25.539-25.538-45.591-55.28-59.599-88.4-14.506-34.295-21.861-70.72-21.861-108.26 0-37.54 7.355-73.965 21.861-108.262 14.008-33.119 34.06-62.86 59.599-88.398 25.537-25.539 55.279-45.591 88.399-59.599 34.297-14.507 70.721-21.861 108.261-21.861 37.54 0 73.965 7.354 108.26 21.861 33.12 14.008 62.863 34.06 88.4 59.599 25.539 25.538 45.591 55.279 59.599 88.398 14.506 34.297 21.861 70.722 21.861 108.262 0 37.54-7.355 73.965-21.861 108.26-14.008 33.12-34.06 62.862-59.599 88.4-25.537 25.539-55.28 45.591-88.4 59.599-34.295 14.505-70.72 21.861-108.26 21.861-37.54 0-73.964-7.356-108.261-21.861m-145.137-256.259c0 139.724 113.673 253.398 253.398 253.398 139.724 0 253.399-113.674 253.399-253.398 0-139.725-113.675-253.398-253.399-253.398-139.725 0-253.398 113.673-253.398 253.398"/></clipPath><linearGradient id="f" gradientTransform="matrix(556.24036 0 0 -556.24036 221.8799 499.99988)" gradientUnits="userSpaceOnUse" spreadMethod="pad" x1="0" x2="1" xlink:href="#c" y1="0" y2="0"/><g clip-path="url(#a)" transform="matrix(.22610150349 0 0 -.22610151631 -13.09401329417 213.00761553866)"><path d="m0 0c-58.327 0-114.915 11.426-168.191 33.96-51.455 21.763-97.663 52.917-137.342 92.596-39.679 39.678-70.832 85.887-92.596 137.34-22.534 53.277-33.959 109.865-33.959 168.192s11.425 114.915 33.959 168.191c21.764 51.454 52.917 97.663 92.596 137.342s85.887 70.833 137.342 92.596c53.276 22.534 109.864 33.96 168.191 33.96s114.915-11.426 168.191-33.96c51.454-21.763 97.663-52.917 137.342-92.596 39.678-39.679 70.833-85.888 92.595-137.342 22.535-53.276 33.96-109.864 33.96-168.191s-11.425-114.915-33.96-168.192c-21.762-51.453-52.917-97.662-92.595-137.34-39.68-39.679-85.888-70.833-137.342-92.596-53.276-22.534-109.864-33.96-168.191-33.96" fill="#fff" transform="translate(500.0002 67.9117)"/><g fill="#2b2b2b"><path d="m0 0c-59.673 0-117.571-11.692-172.087-34.75-52.646-22.267-99.923-54.141-140.517-94.735s-72.467-87.871-94.735-140.517c-23.058-54.515-34.749-112.414-34.749-172.086 0-59.673 11.691-117.572 34.749-172.087 22.268-52.646 54.141-99.923 94.735-140.517s87.871-72.468 140.517-94.735c54.516-23.058 112.414-34.75 172.087-34.75s117.571 11.692 172.087 34.75c52.646 22.267 99.923 54.141 140.517 94.735s72.467 87.871 94.735 140.517c23.058 54.515 34.749 112.414 34.749 172.087 0 59.672-11.691 117.571-34.749 172.086-22.268 52.646-54.141 99.923-94.735 140.517s-87.871 72.468-140.517 94.735c-54.516 23.058-112.414 34.75-172.087 34.75m0-20c233.113 0 422.088-188.976 422.088-422.088 0-233.113-188.975-422.089-422.088-422.089s-422.088 188.976-422.088 422.089c0 233.112 188.975 422.088 422.088 422.088" transform="translate(500.0001 942.0884)"/><path d="m0 0c68.583-20.261 114.338-88.657 102.613-164.301 23.773-20.166 51.171-32.168 82.497-35.016 31.291-2.846 60.474 3.932 87.747 19.4-42.243-42.485-126.134-59.412-192.402-6.619-48.084-14.607-99.37-66.519-98.788-139.777-5.483 8.479-5.423 47.396.141 69.23 5.915 23.213 16.869 43.767 32.818 61.626 15.954 17.864 35.203 30.996 57.49 39.521 11.134 49.694-8.575 120.013-72.116 155.936" transform="translate(414.6753 671.2856)"/><path d="m0 0c-16.878 73.179 24.476 145.347 91.446 169.957 2.582-9.953 5.158-19.88 7.704-29.69-62.935-25.8-95.764-72.544-99.15-140.267" transform="translate(360.0146 424.4096)"/><path d="m0 0c-10.422 2.897-20.283 5.637-29.749 8.268 9.062 67.862-15.269 119.624-72.737 156.446 34.3-10.951 61.55-30.935 80.946-61.09 20.305-31.566 26.975-66.129 21.54-103.624" transform="translate(603.6556 498.1496)"/><path d="m0 0c7.251 7.493 14.392 14.874 21.264 21.976 53.806-41.498 110.643-46.618 170.561-15.797-50.615-49.116-136.044-52.963-191.825-6.179" transform="translate(444.9188 414.1202)"/><path d="m0 0c3.523 9.556 6.961 18.88 10.451 28.344 2.84-1.035 5.445-1.985 8.504-3.1-3.411-9.394-6.781-18.673-10.325-28.432 7.283-2.18 14.27-4.272 21.593-6.465 1.967 9.763 3.844 19.084 5.772 28.651 3.178-.631 6.075-1.206 9.214-1.829-1.325-6.775-2.596-13.267-3.863-19.76-.2-1.019-.45-2.035-.56-3.065-.426-3.988 1.858-7.2 5.508-7.816 3.442-.58 6.993 1.966 7.765 5.714 1.318 6.407 2.542 12.833 3.815 19.248.18.91.409 1.809.681 3.006 2.908-.562 5.706-1.102 8.885-1.717-.759-4.059-1.459-7.907-2.205-11.746-.673-3.467-1.415-6.921-2.096-10.386-.761-3.876 1.761-7.821 5.435-8.551 3.596-.715 7.195 1.729 8.049 5.698 1.332 6.193 2.505 12.421 3.757 18.633.224 1.109.502 2.207.815 3.573 2.91-.565 5.697-1.106 8.792-1.707-1.888-9.657-3.712-18.989-5.674-29.027 7.098-.438 13.774-.851 20.848-1.288.777 15.635 1.523 30.63 2.282 45.879 3.108-.191 5.881-.361 9.154-.561-.85-17.844-1.697-35.624-2.546-53.461-8.065 0-15.839-.013-23.613.014-1.139.004-2.276.266-3.417.301-3.542.109-6.878.66-9.055 4.109-8.531-3.659-15.913-2.583-21.658 5.047-8.04-4.611-15.978-3.007-21.604 3.344-3.486-2.122-7.035-1.152-10.699-.087-27.665 8.032-54.002 19.186-79.058 33.383-1.176.666-2.326 1.377-3.477 2.086-.165.102-.263.312-.642.781 8.745 15.494 17.561 31.112 26.5 46.951 2.689-1.516 5.184-2.922 7.948-4.481-7.269-12.895-14.445-25.624-21.829-38.722 14.587-9.415 30.24-16.379 46.553-22.561" transform="translate(375.7278 166.974)"/><path d="m0 0c4.822 0 9.182-.373 13.441.116 3.493.402 5.079 2.815 5.147 6.019.069 3.205-1.446 5.536-4.944 6.219-4.103.8-8.326.98-12.742 1.456-.314-4.806-.589-9.013-.902-13.81m-1.141-23.511c1.147-.175 2.244-.503 3.334-.48 4.221.088 8.516-.149 12.634.581 3.452.613 4.868 3.545 4.745 7.411-.104 3.304-1.521 5.44-5.088 6.094-4.826.884-9.759 1.19-14.931 1.776-.302-5.103-.567-9.529-.816-13.955-.022-.394.064-.794.122-1.427m-10.612-8.132c1.099 18.271 2.172 36.105 3.27 54.359 3.718-.223 7.307-.389 10.889-.663 4.969-.38 10.004-.454 14.883-1.353 8.124-1.498 12.301-7.755 11.056-15.675-.676-4.299-3.052-6.854-8.988-9.587.535-.27.975-.549 1.453-.724 5.669-2.072 8.472-6.376 8.608-12.152.14-5.96-2.327-10.897-8.098-13.211-3.117-1.25-6.626-2.126-9.955-2.117-7.563.021-15.124.693-23.118 1.123" transform="translate(510.3173 840.4318)"/><path d="m0 0c3.527-2.84 6.731-5.803 10.317-8.189 2.924-1.946 5.982-1.146 8.082 1.331 2.08 2.454 2.303 5.161.033 7.947-2.667 3.272-5.719 6.23-8.76 9.491-3.478-3.805-6.398-6.999-9.672-10.58m-15.929-17.664c3.419-2.927 6.581-5.748 9.883-8.396 1.011-.812 2.356-1.312 3.628-1.672 3.007-.853 5.527.305 7.723 3.272 1.75 2.365 2.05 4.976.162 7.153-3.409 3.931-7.16 7.564-10.856 11.413-3.482-3.811-6.488-7.096-9.485-10.389-.273-.299-.496-.644-1.055-1.381m23.658 40.818c5.7-5.211 11.248-10.094 16.551-15.232 1.826-1.769 3.351-4.02 4.467-6.316 2.286-4.703 1.723-9.307-1.547-13.46-3.222-4.092-7.437-5.465-12.49-4.368-.686.148-1.359.351-2.316.601.738-1.829 1.58-3.35 1.972-4.98 2.426-10.081-7.113-19.306-17.203-16.516-2.648.732-5.411 1.89-7.51 3.602-6.353 5.18-12.406 10.728-18.784 16.315 12.394 13.569 24.516 26.841 36.86 40.354" transform="translate(723.0856 756.8088)"/><path d="m0 0c1.317-4.735 2.472-8.888 3.72-13.375 4.175 1.339 8.107 2.309 11.79 3.865 3.561 1.505 4.817 4.633 3.834 7.88-.955 3.156-3.515 4.883-7.317 4.296-3.965-.613-7.855-1.719-12.027-2.666m5.844-21.122c1.34-5.003 2.481-9.294 3.647-13.579.13-.476.399-.915.698-1.583 3.87 1.136 7.644 2.154 11.351 3.379 1.345.444 2.638 1.238 3.762 2.119 2.768 2.17 3.391 4.868 2.141 8.346-1.107 3.079-3.203 4.79-6.68 4.321-4.878-.656-9.675-1.916-14.919-3.003m-3.136-26.063c-4.82 17.583-9.561 34.882-14.387 52.492 1.794.552 3.42 1.11 5.076 1.552 6.024 1.608 12.027 3.316 18.105 4.689 2.175.491 4.602.485 6.809.102 5.131-.89 8.636-3.89 10.111-9.017 1.392-4.84.358-9.03-3.372-12.491-.38-.352-.746-.72-1.108-1.091-.067-.069-.084-.188-.238-.557.492-.087.924-.221 1.359-.231 5.728-.128 9.691-2.947 11.806-8.152 2.219-5.462 1.772-10.804-2.613-14.992-2.419-2.311-5.404-4.438-8.525-5.522-7.436-2.584-15.104-4.498-23.023-6.782" transform="translate(395.4267 839.3271)"/><path d="m0 0c.569-2.033 1.065-3.719 1.508-5.418.259-.992.434-2.005.672-3.126-4.046-2.28-6.438-5.55-6.28-10.326.173-5.275 5.504-10.478 10.674-9.514 7.41 1.38 14.673 3.547 22.242 5.438-1.114 4.387-1.953 8.447-3.183 12.385-2.825 9.039 2.921 18.223 11.779 20.027 3.723.757 7.386 1.81 11.259 2.774 3.214-12.503 6.331-24.625 9.531-37.074-3.081-.789-5.839-1.496-8.892-2.278-2.474 9.51-4.867 18.711-7.247 27.861-6.37-.269-8.942-3.617-7.46-9.356 1.61-6.234 3.186-12.476 4.762-18.718.171-.678.244-1.381.414-2.376-10.595-2.638-20.968-5.649-31.526-7.721-9.513-1.867-18.311 4.522-20.93 14.161-2.638 9.707 1.721 18.989 10.63 22.613.569.231 1.172.374 2.047.648" transform="translate(565.8125 181.3767)"/><path d="m0 0c-9.829 15.202-19.463 30.102-29.173 45.121 2.661 1.702 5.091 3.257 7.688 4.918 8.085-12.486 16.038-24.768 24.135-37.274 14.677 9.11 28.104 19.521 40.874 31.298-6.526 7.296-12.958 14.486-19.532 21.834 2.203 1.989 4.353 3.93 6.767 6.108 8.572-9.546 17.031-18.966 25.72-28.641-17.389-16.283-36.039-30.579-56.479-43.364" transform="translate(692.8618 191.7481)"/><path d="m0 0c2.931 2.013 5.473 3.759 8.143 5.593 4.139-5.922 8.118-11.614 12.345-17.66 6.909 4.808 13.678 9.518 20.576 14.317-4.162 6.015-8.163 11.796-12.279 17.744 2.738 1.906 5.274 3.673 8.089 5.634 10.373-14.896 20.629-29.622 31.104-44.665-2.618-1.846-5.137-3.622-8.053-5.677-4.521 6.449-9.018 12.863-13.717 19.565-6.784-4.711-13.493-9.37-20.566-14.281 4.511-6.526 8.959-12.96 13.582-19.648-2.628-1.839-5.164-3.614-8.078-5.653-10.328 14.834-20.628 29.626-31.146 44.731" transform="translate(271.7834 784.6437)"/><path d="m0 0c4.836 2.234 9.535 4.405 13.542 6.257-5.111 5.329-10.169 10.603-15.374 16.031.433-7.076.85-13.983 1.295-20.888.024-.377.276-.739.537-1.4m.166-9.318c.198-4.521.384-8.766.586-13.36-3.082-1.428-6.223-2.884-9.92-4.597-.436 20.008-.862 39.51-1.296 59.376 2.48 1.142 4.991 2.298 7.697 3.545 14.682-13.174 29.288-26.279 44.123-39.59-3.611-1.675-6.887-3.194-10.216-4.738-3.306 3.055-6.5 6.007-9.846 9.099-7.033-3.241-13.995-6.448-21.128-9.735" transform="translate(352.4066 795.3979)"/><path d="m0 0c-1.741-6.323-3.36-12.177-4.958-18.036-.32-1.173-.56-2.367-.949-4.034 5.526.553 10.714 1.072 16.253 1.626-3.031 6.097-5.882 11.844-8.748 17.584-.409.818-.891 1.6-1.598 2.86m-8.505-30.914c-1.283-4.459-2.454-8.53-3.678-12.788-3.443-.377-6.815-.746-10.943-1.198 6.081 19.144 12.019 37.838 17.97 56.574 2.907.305 5.575.586 8.477.89 9.555-17.115 19.106-34.224 28.874-51.721-3.967-.417-7.518-.79-11.18-1.174-2.141 3.966-4.202 7.784-6.361 11.785-7.689-.786-15.315-1.566-23.159-2.368" transform="translate(461.9138 848.6515)"/><path d="m0 0c2.948-1.93 5.533-3.622 8.309-5.439-5.023-7.734-9.883-15.216-14.742-22.7-1.303-2.006-2.642-3.99-3.894-6.028-3.982-6.485-2.641-12.808 3.52-16.773 6.102-3.927 12.45-2.584 16.738 3.77 4.422 6.551 8.651 13.232 12.963 19.856 1.81 2.781 3.618 5.563 5.666 8.714 2.768-1.798 5.413-3.516 8.283-5.38-5.264-8.103-10.389-16.022-15.551-23.918-1.706-2.611-3.275-5.36-5.305-7.701-7.992-9.215-20.788-9.669-30.674-1.252-8.033 6.839-10.409 17.058-5.193 25.808 6.219 10.435 13.08 20.488 19.88 31.043" transform="translate(678.9024 815.9042)"/><path d="m0 0c6.167 7.758 12.111 15.235 18.155 22.837 2.422-1.934 4.661-3.721 7.12-5.684-7.972-10.061-15.772-19.906-23.724-29.944-.555.304-1.092.534-1.56.863-13.202 9.285-25.982 19.097-37.812 30.111-5.627 5.239-7.748 11.6-5.759 18.935 2.006 7.397 6.694 12.663 14.345 14.624 5.523 1.416 10.648.213 15.488-3.301-1.82-2.32-3.535-4.505-5.196-6.622-2.123.349-4.136.999-6.129.942-4.189-.122-7.313-2.221-8.972-6.132-1.643-3.87-1.356-7.692 1.699-10.69 9.823-9.64 20.699-17.989 32.345-25.939" transform="translate(299.2794 206.9036)"/><path d="m0 0v9.805c1.267 0 2.268-.055 3.261.009 5.385.346 9.195 3.02 11.313 7.959 1.047 2.443.938 4.881-.897 7.017-1.794 2.087-3.991 3.008-6.678 1.996-2.904-1.094-5.741-2.369-8.651-3.446-2.807-1.039-5.605-2.319-8.522-2.808-9.033-1.515-17.628 7.34-16.036 17.753 1.276 8.349 10.925 18.005 19.361 19.013.902.107 1.829.014 2.952.014v-9.928c-4.353.217-7.833-1.584-10.581-4.828-.727-.858-1.338-1.857-1.807-2.882-1.088-2.381-.794-4.625.884-6.696 1.676-2.069 3.901-2.5 6.19-1.692 3.222 1.136 6.273 2.748 9.478 3.937 2.801 1.039 5.668 2.284 8.586 2.55 8.249.751 16.088-7.137 16.146-15.921.083-12.651-15.311-24.131-24.999-21.852" transform="translate(265.3097 712.6205)"/><path d="m0 0c-2.793-1.041-5.583-2.081-8.27-3.083-.337.199-.593.259-.677.413-3.632 6.651-9.425 9.172-16.696 8.394-7.622-.817-12.41-5.427-15.087-12.341-4.541-11.732.75-23.067 12.05-26.113 4.338-1.169 8.208-.037 11.883 2.234.341.211.718.363 1.312.659 1.964-2.446 3.897-4.855 5.82-7.25-4.345-5.452-15.822-7.211-26.198-2.681-12.12 5.292-18.527 16.721-16.515 29.791 2.059 13.373 11.887 23.597 23.941 24.906 12.754 1.385 24.379-4.637 28.437-14.929" transform="translate(621.728 834.384)"/><path d="m0 0c-12.522-6.191-24.693-12.207-37.206-18.393-1.356 2.666-2.644 5.199-4.12 8.1 9.502 4.727 18.811 9.358 28.351 14.104-3.699 6.614-8.416 11.542-16.004 12.402-7.413.84-13.074-3.219-18.599-7.807-1.333 2.636-2.589 5.121-3.828 7.572 6.498 8.072 21.12 14.825 34.952 4.916 7.389-5.293 12.248-12.57 16.454-20.894" transform="translate(679.6216 183.1894)"/><path d="m0 0c5.128-.036 8.626 3.271 8.642 8.171.017 4.892-3.499 8.318-8.534 8.318-5.019-.001-8.529-3.465-8.483-8.369.046-4.804 3.43-8.085 8.375-8.12m-.138-24.257h-9.06c3.753 5.881 7.296 11.434 11.069 17.348-1.36 0-2.253.001-3.146 0-8.444-.001-14.011 5.248-14.869 14.024-.744 7.606 4.622 14.707 12.295 16 5.527.931 10.877.358 15.271-3.524 5.567-4.919 5.814-11.203 3.881-17.772-.634-2.156-1.779-4.212-2.964-6.147-4.072-6.648-8.264-13.221-12.477-19.929" transform="translate(180.3455 504.7487)"/><path d="m0 0c3.118-1.439 5.84-2.695 8.958-4.134-6.264-13.791-12.467-27.446-18.79-41.367 7.02-3.225 13.865-6.37 20.925-9.613-1.239-2.716-2.386-5.23-3.701-8.111-10.016 4.557-19.874 9.043-29.969 13.635 7.579 16.647 15.011 32.971 22.577 49.59" transform="translate(637.0363 835.8248)"/><path d="m0 0c-.175.039-.351.078-.526.118-3.38-5.548-6.759-11.095-10.381-17.04h10.907zm.14-34.556v10.118h-18.88c-.438 4.083-.431 7.53 1.865 11.004 5.561 8.415 10.717 17.097 16.106 25.784h8.451v-29.344c2.269-.114 4.119-.207 6.255-.315v-6.987h-6.153v-10.26z" transform="translate(818.6603 508.5775)"/><path d="m0 0c.32-3.042.462-5.91-.883-8.837-5.337-11.613-10.509-23.302-15.75-34.959-.462-1.027-.986-2.027-1.511-3.1h-8.544c6.058 13.308 11.991 26.341 18.151 39.871h-20.822v7.025z" transform="translate(870.1749 520.8619)"/><path d="m0 0h9.063c.401-17.612.804-35.331 1.213-53.316h-9.062c-.402 17.657-.806 35.379-1.214 53.316" transform="translate(502.5437 190.109)"/><path d="m0 0v-47.104h-7.54v36.346c-2.708-2.22-4.842-3.969-7.201-5.903-1.539 1.9-3.001 3.705-4.652 5.743 4.322 3.499 8.246 7.088 12.62 10.005 1.646 1.098 4.332.637 6.773.913" transform="translate(149.857 527.6415)"/><path d="m0 0c.082-2.773-2.247-5.179-5.032-5.199-2.654-.019-4.9 2.204-4.957 4.907-.061 2.846 1.891 4.973 4.678 5.099 2.952.134 5.225-1.923 5.311-4.807" transform="translate(718.0996 269.3562)"/><path d="m0 0c2.634.041 4.936-2.255 4.994-4.983.06-2.804-2.006-4.953-4.824-5.017-2.845-.064-5.056 1.94-5.18 4.693-.127 2.81 2.188 5.263 5.01 5.307" transform="translate(271.3399 210.822)"/><path d="m0 0c2.854-.017 4.959-2.088 4.948-4.869-.011-2.698-2.345-5.118-4.897-5.077-2.933.048-5.161 2.318-5.092 5.188.067 2.839 2.119 4.775 5.041 4.758" transform="translate(374.2292 154.1115)"/><path d="m0 0c2.338-.089 4.263-2.244 4.111-4.603-.137-2.136-2.276-4.058-4.444-3.994-2.18.064-4.127 2.095-4.135 4.311-.007 2.283 2.172 4.373 4.468 4.286" transform="translate(603.8569 147.7455)"/><path d="m0 0c.026-2.291-2.106-4.325-4.467-4.261-2.166.059-4.182 2.149-4.144 4.298.038 2.188 2.004 4.183 4.192 4.256 2.348.079 4.392-1.907 4.419-4.293" transform="translate(598.0191 140.95)"/><path d="m0 0c-.095-2.457-1.766-4.078-4.174-4.051-2.388.028-4.239 2.035-4.129 4.478.098 2.184 2.112 4.131 4.254 4.111 2.384-.022 4.148-1.998 4.049-4.538" transform="translate(446.1853 197.509)"/><path d="m0 0c2.345.031 4.153-1.683 4.245-4.023.098-2.486-1.729-4.464-4.144-4.485-2.219-.021-4.185 1.855-4.27 4.072-.092 2.433 1.76 4.405 4.169 4.436" transform="translate(435.1769 194.5828)"/><path d="m0 0c-2.574-.052-4.365 1.668-4.34 4.168.024 2.418 1.648 4.041 4.091 4.09 2.457.048 4.243-1.522 4.36-3.835.127-2.497-1.616-4.372-4.111-4.423" transform="translate(445.3701 183.9962)"/></g></g><g clip-path="url(#b)" transform="matrix(.22610150349 0 0 -.22610151631 -13.09401329417 213.00761553866)"><path d="m342.64 872.496c-48.141-20.363-91.374-49.511-128.499-86.637-37.126-37.125-66.275-80.359-86.637-128.499-21.082-49.843-31.771-102.786-31.771-157.36 0-54.574 10.689-107.517 31.771-157.361 20.362-48.14 49.511-91.373 86.637-128.499 37.125-37.125 80.358-66.275 128.499-86.635 49.843-21.083 102.786-31.772 157.36-31.772 54.574 0 107.517 10.689 157.36 31.772 48.141 20.36 91.374 49.51 128.5 86.635 37.125 37.126 66.274 80.359 86.636 128.499 21.082 49.844 31.771 102.787 31.771 157.361 0 54.574-10.689 107.517-31.771 157.36-20.362 48.14-49.511 91.374-86.636 128.499-37.126 37.126-80.359 66.274-128.5 86.637-49.843 21.082-102.786 31.771-157.36 31.771-54.574 0-107.517-10.689-157.36-31.771m-237.527-372.496c0 217.742 177.146 394.887 394.887 394.887 217.742 0 394.887-177.145 394.887-394.887 0-217.741-177.145-394.887-394.887-394.887-217.741 0-394.887 177.146-394.887 394.887" fill="url(#d)"/></g><g clip-path="url(#e)" transform="matrix(.22610150349 0 0 -.22610151631 -13.09401329417 213.00761553866)"><path d="m391.739 756.259c-33.12-14.008-62.862-34.06-88.399-59.599-25.539-25.538-45.591-55.28-59.599-88.4-14.506-34.295-21.861-70.72-21.861-108.26 0-37.54 7.355-73.965 21.861-108.262 14.008-33.119 34.06-62.86 59.599-88.398 25.537-25.539 55.279-45.591 88.399-59.599 34.297-14.507 70.721-21.861 108.261-21.861 37.54 0 73.965 7.354 108.26 21.861 33.12 14.008 62.863 34.06 88.4 59.599 25.539 25.538 45.591 55.279 59.599 88.398 14.506 34.297 21.861 70.722 21.861 108.262 0 37.54-7.355 73.965-21.861 108.26-14.008 33.12-34.06 62.862-59.599 88.4-25.537 25.539-55.28 45.591-88.4 59.599-34.295 14.505-70.72 21.861-108.26 21.861-37.54 0-73.964-7.356-108.261-21.861m-145.137-256.259c0 139.724 113.673 253.398 253.398 253.398 139.724 0 253.399-113.674 253.399-253.398 0-139.725-113.675-253.398-253.399-253.398-139.725 0-253.398 113.673-253.398 253.398" fill="url(#f)"/></g></svg>