<?xml version="1.0" encoding="utf-8"?>
<!-- Generator: Adobe Illustrator 25.0.1, SVG Export Plug-In . SVG Version: 6.00 Build 0)  -->
<svg version="1.0" id="katman_1" xmlns="http://www.w3.org/2000/svg" xmlns:xlink="http://www.w3.org/1999/xlink" x="0px" y="0px"
	 viewBox="0 0 239.6 164.9" style="enable-background:new 0 0 239.6 164.9;" xml:space="preserve">
<style type="text/css">
	.st0{clip-path:url(#SVGID_2_);}
	.st1{fill:url(#SVGID_3_);}
	.st2{fill:#FFFFFF;}
	.st3{fill:url(#SVGID_4_);}
	.st4{fill:url(#SVGID_5_);}
	.st5{fill:url(#SVGID_6_);}
</style>
<g>
	<g>
		<defs>
			<rect id="SVGID_1_" x="70.8" y="4.5" width="98" height="156"/>
		</defs>
		<clipPath id="SVGID_2_">
			<use xlink:href="#SVGID_1_"  style="overflow:visible;"/>
		</clipPath>
		<g class="st0">
			
				<radialGradient id="SVGID_3_" cx="-414.8257" cy="619.3433" r="1" gradientTransform="matrix(112.399 0 0 -112.409 46792.5117 69625.4844)" gradientUnits="userSpaceOnUse">
				<stop  offset="0.3825" style="stop-color:#1F191A"/>
				<stop  offset="1" style="stop-color:#070606"/>
			</radialGradient>
			<path class="st1" d="M82.2,110.3c0,22.4,25.1,36.6,42.5,48.3c17.4-11.6,42.5-25.8,42.5-48.3c0-27.1,0-103.5,0-103.5l-85,34
				C82.2,40.8,82.2,90.2,82.2,110.3z"/>
			<path class="st2" d="M124.7,160.4l-0.9-0.6c-1.6-1.1-3.3-2.2-5.1-3.3c-17-11.2-38.2-25.1-38.2-46.3c0-20.1,0-69.4,0-69.4v-1.1
				l88.2-35.3v105.8c0,21.4-21.4,35.3-38.6,46.5c-1.6,1.1-3.1,2.1-4.7,3L124.7,160.4z M83.8,41.9c0,7.3,0,50.1,0,68.4
				c0,19.4,20.4,32.8,36.8,43.6c1.5,1,2.8,1.9,4.2,2.8c1.2-0.8,2.5-1.6,3.8-2.5c16.5-10.8,37.1-24.2,37.1-43.9V9.1L83.8,41.9z"/>
			
				<linearGradient id="SVGID_4_" gradientUnits="userSpaceOnUse" x1="139.3986" y1="112.6475" x2="164.1886" y2="132.4778" gradientTransform="matrix(1 0 0 -1 0 166.8889)">
				<stop  offset="0.1676" style="stop-color:#E17263"/>
				<stop  offset="0.6307" style="stop-color:#FCC9BF"/>
			</linearGradient>
			<path class="st3" d="M156.7,55.1c-0.1-1.8-0.6-3.6-1.7-5.1c0,0,0,0,0,0c-1.9-2.6-3-3.7-4.3-6.7c-0.1-0.1,0-0.3,0.1-0.4
				c1.1-0.7,2.4-1.4,3.5-2.2c0.4-0.3,0.8-0.7,1.2-1.1c-0.5-1.1-1.1-2.3-1.1-3.5c0.1-0.3,0.5-0.7,0.3-1.1c-0.9-1.1-1.7-2.2-2.2-3.4
				c-0.1-0.6-0.2-1.5-0.2-1.7c-0.7-2-2.3-3.1-4.1-3.6c-2.2-0.6-4.9-0.2-6.9,0.9c-5,3-3.8,5.8-11.3,8.2c11.9,7.3,21.1,18.8,25.6,32.4
				c0.3-0.9,0.6-1.9,0.8-2.6C156.8,61.6,156.9,58.7,156.7,55.1z"/>
			
				<linearGradient id="SVGID_5_" gradientUnits="userSpaceOnUse" x1="146.6231" y1="74.1512" x2="105.7071" y2="103.1359" gradientTransform="matrix(1 0 0 -1 0 166.8889)">
				<stop  offset="9.199121e-02" style="stop-color:#E17263"/>
				<stop  offset="1" style="stop-color:#FCC9BF"/>
			</linearGradient>
			<path class="st4" d="M156.4,65.1c0,0.3-0.1,0.6-0.1,0.9c-2.6,18.8-14.7,35.7-31.6,44.3c-5.6-2.4-10.7-5.7-15.2-9.6
				c6-1,10-4.1,10.2-4.2c-5,2-9.1,2.5-12.5,2c-2.6-2.5-4.9-5.2-7-8.1c5.9,2.7,12,0.3,12,0.3c-7.5-0.3-12.2-1.4-15.6-6
				c-1.1-2-2.1-4-2.9-6c6.1,3.3,12.9,3.7,12.9,3.7c-10.4-1.6-14.9-8.3-16.1-14.2c6.1,5.6,12.3,6.1,12.3,6.1
				c-9.3-3.6-13.3-10-13.6-15.5c0,0,0,0,0,0C107.8,74.7,135.1,77,156.4,65.1z"/>
			
				<linearGradient id="SVGID_6_" gradientUnits="userSpaceOnUse" x1="167.0298" y1="69.2923" x2="115.6451" y2="103.3952" gradientTransform="matrix(1 0 0 -1 0 166.8889)">
				<stop  offset="0" style="stop-color:#E17263"/>
				<stop  offset="1" style="stop-color:#FCC9BF"/>
			</linearGradient>
			<path class="st5" d="M156.3,65.4c-0.1,0.4,0,0.2-0.1,0.6c-1.9,13.4-8.6,26-18.5,35.2c-3.9,3.6-8.4,6.7-13,9.1
				c1.9-4.8,2.9-9.9,3.3-15.1c4.6-5.2,13.3-7.9,13.3-7.9c-4.2,0.2-9,2.3-13.1,4.7c0.1-4.7-0.4-9.7-1.5-14.2
				c5.6-2.8,12.8-3.3,12.8-3.3c-4-0.8-8.9,0-13.3,1.1c-1.4-5.4-3.6-10.6-6.5-15.3c6.6-1.1,14.7,1.6,14.9,1.7
				c-4.4-2.9-11.1-4.1-16.7-4.5c-2.8-4.2-6.2-7.9-9.9-11.2c8.2-1.4,19,2.4,19.3,2.6c-8.1-4.1-14.7-5.2-23.7-6.1
				c-3.1-2.2-6.4-4.2-9.8-5.8c7.2-1.6,14.3,0.4,14.8,0.6c-10.1-4.2-27.2-5.2-37.6-6c7.8-5.4,30.4-1.9,31-1.9
				c-3.7-1.9-12.1-2.5-20.3-2.6c8.5-2.8,18.1-3.8,26.9-2.5C130.7,27.7,149.3,44,156.3,65.4z"/>
			<path class="st2" d="M102.7,125.2h-1.6l3.9-9.3l3.9,9.3h-1.6l-2.3-5.8L102.7,125.2z"/>
			<path class="st2" d="M113.5,118.8l5.3,6.4l0.3,0.4v-0.4v-8.9h-1.4v5.3l-4.3-5.3l-0.1,0h-1.3v9h1.4V118.8z"/>
			<path class="st2" d="M125.3,125.2c0.4,0.1,0.9,0.2,1.4,0.2c0.5,0,1-0.1,1.5-0.2c1.9-0.6,3.1-2.3,3.1-4.4c0-0.3,0-0.5-0.1-0.7
				l0-0.1h-4.8v1.4h3.2c-0.1,1.5-1.3,2.6-3,2.6c-1.7,0-3-1.4-3-3.2c0-1.8,1.3-3.2,3-3.2c0.5,0,1,0.2,1.5,0.4v-1.6
				c-0.5-0.2-1-0.2-1.5-0.2c-2.5,0-4.6,2.1-4.6,4.7C122.1,122.8,123.5,124.6,125.3,125.2z"/>
			<path class="st2" d="M139.7,125.2v-1.5h-3.9v-2.3h3.5v-1.4h-3.5v-2.4h3.8v-1.4h-5.3v9H139.7z"/>
			<path class="st2" d="M148.6,123.8H145v-7.5h-1.5v9h5.1V123.8z"/>
			<path class="st2" d="M114.9,138.1c0.6,0,1.1-0.1,1.6-0.3l0.1,0v-1.7l-0.2,0.1c-0.4,0.3-1,0.4-1.5,0.4c-1.7,0-3-1.4-3-3.2
				c0-1.8,1.3-3.2,3-3.2c0.5,0,1,0.2,1.5,0.4l0.2,0.1v-1.7l-0.1,0c-0.5-0.2-1.1-0.3-1.6-0.3c-2.5,0-4.6,2.1-4.6,4.7
				S112.3,138.1,114.9,138.1z"/>
			<path class="st2" d="M121.3,128.9h-1.5v9h1.5V128.9z"/>
			<path class="st2" d="M126.7,138h1.5v-7.6h2.2v-1.5h-5.8v1.5h2.2V138z"/>
			<path class="st2" d="M137.9,128.9l-1.9,3.7l-1.9-3.7h-1.7l2.8,5.2v3.8h1.5v-3.8l2.8-5.2H137.9z"/>
			<path class="st2" d="M120.2,147.4h1v-2.5h2.3V144h-2.3v-1.3h2.4v-0.9h-3.4V147.4z"/>
			<path class="st2" d="M128.5,141.6c-1.6,0-2.9,1.3-2.9,2.9s1.3,2.9,2.9,2.9c0.3,0,0.7-0.1,1-0.2l0.1,0v-1.1l-0.1,0.1
				c-0.3,0.2-0.6,0.3-1,0.3c-1.1,0-1.9-0.9-1.9-2c0-1.1,0.8-2,1.9-2c0.3,0,0.7,0.1,1,0.3l0.1,0.1v-1.1l-0.1,0
				C129.2,141.7,128.8,141.6,128.5,141.6z"/>
		</g>
	</g>
</g>
</svg>
