<svg xmlns="http://www.w3.org/2000/svg" xmlns:xlink="http://www.w3.org/1999/xlink" version="1.1" id="Capa_1" x="0px" y="0px" width="612px" height="613px" viewBox="0 80.5 612 613" enable-background="new 0 80.5 612 613" xml:space="preserve">
<g>
	<path fill="#0D3E8A" d="M10.931,384.112v9.608c0,86.588,40.875,158.987,84.275,202.388   c42.514,42.514,114.965,88.278,199.184,88.278h28.025c36.762,0,87.29-16.381,112.106-28.819   c33.193-16.64,57.24-34.429,82.271-59.459c41.78-41.781,84.274-116.039,84.274-199.185v-12.813   c0-42.57-12.545-88.662-26.705-117.426c-9.053-18.391-15.451-29.812-26.143-45.923c-4.92-7.416-10.246-13.375-15.533-20.5   c-5.057-6.814-12.412-12.651-17.311-18.723c-16.623-20.609-58.201-47.091-84.605-59.526   c-28.848-13.586-74.606-27.767-116.365-27.767h-12.811C145.328,94.247,10.931,227.828,10.931,384.112z"/>
	<path fill="#FDFDFD" d="M88.601,384.112v16.015c0,57.858,33.353,113.026,62.656,142.331c18.281,18.281,35.162,30.68,59.586,42.908   c18.576,9.301,54.012,21.35,81.145,21.35h21.619c61.291,0,114.666-31.787,145.535-62.656   c16.912-16.911,32.926-37.938,43.301-60.793c9.355-20.606,20.957-53.776,20.957-83.14v-20.82   c0-56.623-36.143-120.829-66.967-146.829c-22.851-19.274-34.84-29.287-63.672-42.825c-22.531-10.579-56.434-17.735-89.563-17.735   h-4.805c-32.942,0-60.778,10.782-84.559,20.338c-20.739,8.334-47.422,28.835-62.176,43.521   C120.296,267.001,88.601,321.788,88.601,384.112z"/>
	<rect x="153.46" y="278.415" fill="#FB0B0E" width="304.278" height="211.395"/>
	<path fill="#FDFDFD" d="M161.468,317.651c4.271,1.141,56.809,35.735,64.699,40.998c21.344,14.232,43.092,27.025,64.379,41.317   c12.905,8.664,124.799,81.835,129.559,81.835h29.627v-29.627c0-3.623-55.655-37.812-62.776-42.118   c-21.994-13.3-42.783-27.671-64.527-41.169c-12.432-7.717-127.063-82.464-128.93-82.464h-32.029L161.468,317.651L161.468,317.651z"/>
	<path fill="#FDFDFD" d="M40.558,393.721v2.402c0,4.429,4.617,8.007,8.809,8.007h3.202c2.827,0,7.206-4.963,7.206-8.808v-0.801   c0-4.812-4.798-9.609-9.607-9.609C45.522,384.913,40.558,388.956,40.558,393.721z"/>
	<path fill="#FDFDFD" d="M555.429,393.721c0,4.046,2.889,8.007,7.207,8.007h2.401c4.131,0,6.404-3.334,6.404-7.206v-1.603   c0-3.397-2.982-6.406-5.604-6.406h-4.005C559.065,386.514,555.429,390.862,555.429,393.721z"/>
	<path fill="#FFFFFF" d="M70.757,328.375l-2.951,12.779l5.587,3.142l-2.646,11.461l-33.154-22.021l2.824-12.23l39.454-5.27   l-2.71,11.74L70.757,328.375L70.757,328.375z M62.361,328.912l-13.978,1.002l12.129,7.003L62.361,328.912L62.361,328.912z    M69.758,309.961l3.469-10.415c1.737,0.449,3.173,0.505,4.315,0.181c1.841-0.528,3.17-1.826,3.995-3.868   c0.613-1.52,0.734-2.837,0.353-3.955c-0.383-1.11-1.047-1.854-1.986-2.235c-0.894-0.361-1.854-0.299-2.88,0.203   c-1.025,0.502-2.429,2.05-4.213,4.66c-2.943,4.255-5.685,7.031-8.234,8.32c-2.56,1.305-5.186,1.414-7.888,0.322   c-1.776-0.718-3.25-1.912-4.41-3.578c-1.16-1.667-1.774-3.711-1.85-6.146c-0.065-2.431,0.628-5.444,2.08-9.039   c1.784-4.416,3.966-7.454,6.543-9.108c2.576-1.653,5.746-1.973,9.504-0.969l-3.479,10.299c-1.659-0.361-3.021-0.257-4.076,0.318   c-1.044,0.569-1.876,1.609-2.483,3.113c-0.504,1.247-0.623,2.284-0.346,3.126c0.27,0.838,0.786,1.412,1.542,1.717   c0.547,0.221,1.141,0.162,1.792-0.174c0.663-0.321,1.562-1.343,2.72-3.074c2.892-4.259,5.26-7.183,7.105-8.787   c1.846-1.603,3.711-2.561,5.608-2.861c1.892-0.302,3.784-0.08,5.674,0.684c2.214,0.894,4.006,2.338,5.378,4.315   c1.38,1.979,2.104,4.265,2.178,6.858c0.078,2.586-0.562,5.556-1.912,8.902c-2.372,5.871-5.144,9.486-8.324,10.83   C76.757,310.955,73.368,311.074,69.758,309.961L69.758,309.961z M80.147,269.519c-5.155-3.222-8.272-7.174-9.349-11.836   c-1.079-4.674-0.013-9.572,3.189-14.7c3.287-5.26,7.232-8.431,11.837-9.512c4.592-1.079,9.44-0.033,14.524,3.144   c3.693,2.308,6.332,4.826,7.918,7.545c1.584,2.719,2.302,5.663,2.152,8.833c-0.154,3.177-1.324,6.506-3.519,10.015   c-2.225,3.561-4.635,6.156-7.229,7.788c-2.598,1.619-5.574,2.389-8.941,2.31C87.37,273.02,83.841,271.826,80.147,269.519   L80.147,269.519z M86.296,259.777c3.192,1.995,5.849,2.836,7.985,2.525c2.132-0.315,3.842-1.497,5.113-3.535   c1.312-2.096,1.644-4.15,0.999-6.147c-0.65-2.002-2.738-4.115-6.27-6.321c-2.979-1.862-5.526-2.615-7.651-2.275   c-2.117,0.344-3.817,1.542-5.104,3.602c-1.229,1.964-1.524,3.978-0.871,6.043C81.144,255.729,83.081,257.768,86.296,259.777   L86.296,259.777z M126.638,213.634c1.377,1.983,2.133,3.804,2.266,5.469c0.139,1.671-0.548,3.309-2.051,4.92   c-1.544,1.656-3.303,2.423-5.283,2.296c-1.976-0.134-4.476-1.599-7.502-4.421c-2.441-2.277-3.871-4.333-4.297-6.166   c-0.588-2.447,0.01-4.628,1.785-6.531c0.787-0.844,1.668-1.445,2.656-1.805c0.981-0.354,2.016-0.469,3.094-0.341   c0.653,0.075,1.516,0.371,2.59,0.886l5.278-8.98c-3.762-1.728-7.254-2.257-10.479-1.585c-3.223,0.671-6.43,2.722-9.63,6.155   c-4.087,4.384-6.041,8.908-5.854,13.566c0.182,4.652,2.533,9.087,7.045,13.293c3.381,3.153,6.793,5.053,10.229,5.719   c3.441,0.66,6.473,0.45,9.086-0.624c2.603-1.073,5.294-3.094,8.058-6.057c2.271-2.436,3.797-4.772,4.561-7.015   c0.77-2.236,0.958-4.539,0.563-6.9c-0.396-2.361-1.394-4.75-3-7.174L126.638,213.634L126.638,213.634z M125.025,184.881   l8.708-7.569l24.443,28.119L149.469,213L125.025,184.881L125.025,184.881z M180.544,182.219l4.956,4.075l9.988-6.738   l-32.447-23.054l-10.407,7.019l9.228,38.717l9.751-6.578l-1.941-6.108L180.544,182.219L180.544,182.219z M174.038,176.886   l-6.812,4.594l-4.096-13.394L174.038,176.886L174.038,176.886z M214.103,155.036l10.435-1.496c0.582,2.849,0.61,5.438,0.094,7.775   c-0.519,2.338-1.558,4.401-3.107,6.187c-1.547,1.794-3.837,3.389-6.854,4.796c-3.672,1.712-6.924,2.578-9.738,2.598   c-2.826,0.016-5.715-0.924-8.659-2.825c-2.937-1.904-5.388-4.944-7.341-9.134c-2.606-5.59-3.127-10.583-1.552-14.964   c1.571-4.389,5.077-7.852,10.511-10.385c4.252-1.983,7.994-2.685,11.234-2.099c3.238,0.585,6.278,2.383,9.119,5.395l-8.258,6.348   c-0.804-0.88-1.492-1.477-2.069-1.791c-0.952-0.522-1.954-0.803-2.997-0.843c-1.05-0.036-2.092,0.191-3.14,0.679   c-2.356,1.1-3.729,2.898-4.102,5.387c-0.291,1.859,0.264,4.299,1.675,7.327c1.749,3.75,3.519,6.045,5.299,6.909   c1.789,0.86,3.708,0.808,5.76-0.149c1.997-0.932,3.245-2.194,3.743-3.794C214.655,159.362,214.636,157.391,214.103,155.036   L214.103,155.036z M225.149,128.436l11.033-3.373l10.894,35.629l-11.033,3.374L225.149,128.436L225.149,128.436z M251.116,140.32   c-0.952-6.006-0.015-10.95,2.799-14.82c2.818-3.881,7.215-6.29,13.188-7.235c6.126-0.97,11.107-0.073,14.943,2.692   c3.828,2.757,6.22,7.104,7.157,13.024c0.682,4.301,0.513,7.946-0.5,10.926c-1.014,2.979-2.765,5.453-5.254,7.42   c-2.499,1.968-5.78,3.269-9.866,3.916c-4.146,0.657-7.688,0.542-10.621-0.347c-2.926-0.898-5.459-2.64-7.608-5.232   C253.212,148.068,251.797,144.622,251.116,140.32L251.116,140.32z M262.501,138.57c0.59,3.719,1.696,6.275,3.334,7.684   c1.637,1.4,3.649,1.916,6.022,1.54c2.441-0.386,4.209-1.483,5.295-3.28c1.084-1.805,1.31-4.765,0.658-8.878   c-0.551-3.47-1.651-5.886-3.303-7.267c-1.65-1.373-3.67-1.869-6.068-1.489c-2.287,0.362-4.002,1.459-5.133,3.307   C262.177,132.026,261.909,134.826,262.501,138.57L262.501,138.57z M299.067,116.159l10.754,0.188l13.666,20.853l0.359-20.608   l10.85,0.189l-0.649,37.252l-10.851-0.19l-13.598-20.695l-0.356,20.452l-10.824-0.189L299.067,116.159L299.067,116.159z    M382.089,159.962l-12.543-3.834l-3.523,5.354l-11.248-3.439l24.281-31.536l12.004,3.67l2.504,39.726l-11.521-3.523   L382.089,159.962L382.089,159.962z M382.14,151.55l-0.025-14.014l-7.829,11.612L382.14,151.55L382.14,151.55z M408.567,135.783   l31.178,15.887l-4.178,8.201l-10.465-5.333l-12.736,24.996l-10.256-5.226l12.736-24.996l-10.459-5.329L408.567,135.783   L408.567,135.783z M450.989,157.036l-22.938,29.359l23.233,18.152l5.65-7.232l-14.156-11.06l17.287-22.128L450.989,157.036   L450.989,157.036z M483.474,180.154l21.43,22.189l-5.723,5.526l-13.414-13.89l-4.262,4.116l12.442,12.886l-5.467,5.278   l-12.443-12.886l-5.278,5.098l13.807,14.296l-6.072,5.863l-21.819-22.595L483.474,180.154L483.474,180.154z M510.272,207.858   l-7.252,5.667l7.225,9.249l-22.104,17.271l7.086,9.07l22.106-17.271l7.23,9.256l7.254-5.667L510.272,207.858L510.272,207.858z    M535.115,242.687l6.619,9.451l-30.52,21.37l-6.619-9.451L535.115,242.687L535.115,242.687z M539.185,295.385   c-2.313,0.696-4.277,0.854-5.902,0.464c-1.631-0.385-2.977-1.543-4.045-3.47c-1.098-1.98-1.285-3.891-0.551-5.735   c0.736-1.837,2.902-3.762,6.521-5.768c2.923-1.619,5.318-2.342,7.191-2.181c2.51,0.196,4.398,1.439,5.66,3.716   c0.561,1.009,0.859,2.033,0.896,3.084c0.033,1.043-0.176,2.062-0.631,3.047c-0.272,0.598-0.821,1.328-1.643,2.19l6.908,7.794   c2.807-3.043,4.389-6.201,4.745-9.474c0.357-3.273-0.602-6.956-2.877-11.06c-2.905-5.243-6.604-8.499-11.094-9.76   c-4.479-1.265-9.426-0.399-14.817,2.591c-4.046,2.242-6.906,4.898-8.603,7.96c-1.688,3.07-2.426,6.017-2.213,8.834   c0.217,2.806,1.307,5.99,3.27,9.534c1.615,2.913,3.367,5.087,5.265,6.505c1.889,1.422,4.02,2.314,6.387,2.667   c2.369,0.354,4.949,0.143,7.752-0.636L539.185,295.385L539.185,295.385z M542.194,338.522l-2.727-12.83l-6.394-0.486L530.63,313.7   l39.354,5.949l2.609,12.276l-33.531,21.45l-2.506-11.786L542.194,338.522L542.194,338.522z M549.574,334.487l12.244-6.814   l-13.951-1.221L549.574,334.487z"/>
	<path fill="#FFFFFF" d="M63.374,510.067l-5.543-11.888l-6.336,0.965l-4.972-10.661l39.685-3.058l5.305,11.377l-27.846,28.441   l-5.093-10.92L63.374,510.067L63.374,510.067z M69.659,504.476l10.396-9.395l-13.869,1.949L69.659,504.476L69.659,504.476z    M66.302,528.677l6.467,9.586l12.534-8.453l0.567,0.841c0.588,0.871,0.879,1.813,0.864,2.817c-0.021,0.758-0.433,1.871-1.211,3.338   l-6.004,11.47l7.275,10.787l5.84-10.656c0.303-0.529,0.635-1.402,1.018-2.633c0.377-1.228,0.571-2.103,0.591-2.615   c0.026-0.783-0.148-1.867-0.534-3.26c1.271,1.202,2.434,2.041,3.476,2.53c1.635,0.748,3.321,1.076,5.062,0.972   c1.732-0.113,3.455-0.74,5.174-1.9c1.964-1.324,3.313-2.924,4.033-4.801c0.729-1.885,0.813-3.773,0.266-5.674   c-0.537-1.896-1.809-4.324-3.798-7.273L97.19,507.843L66.302,528.677L66.302,528.677z M111.054,565.903l5.756-5.185l11.899,13.215   l-11.805,10.63c-3.995-0.978-7.188-2.152-9.563-3.541c-2.377-1.386-4.766-3.414-7.168-6.082c-2.961-3.289-4.81-6.47-5.551-9.55   c-0.753-3.08-0.529-6.188,0.668-9.317c1.188-3.14,3.213-5.998,6.082-8.582c3.022-2.724,6.216-4.465,9.572-5.234   c3.356-0.758,6.694-0.461,10.021,0.898c2.585,1.069,5.305,3.197,8.16,6.367c2.752,3.057,4.535,5.594,5.351,7.614   c0.811,2.015,1.084,4.043,0.823,6.101c-0.262,2.043-1.059,4.127-2.398,6.244l-8.897-6.929c0.736-1.282,1.014-2.584,0.836-3.895   c-0.17-1.305-0.828-2.592-1.96-3.85c-1.688-1.875-3.688-2.785-5.993-2.729c-2.313,0.064-4.874,1.354-7.697,3.896   c-2.998,2.699-4.627,5.193-4.895,7.478c-0.273,2.277,0.499,4.432,2.314,6.449c0.858,0.953,1.825,1.739,2.881,2.354   c1.061,0.621,2.432,1.195,4.1,1.713l2.611-2.35L111.054,565.903L111.054,565.903z M141.632,563.36l-23.446,28.955l24.411,19.768   l5.313-6.561l-15.444-12.507l4.618-5.702l13.921,11.272l4.782-5.906l-13.922-11.272l3.729-4.604l15.006,12.152l5.006-6.184   L141.632,563.36L141.632,563.36z M167.538,584.335l9.122,5.699l0.974,24.912l10.922-17.479l9.203,5.752l-19.744,31.597   l-9.203-5.753l-0.996-24.741l-10.84,17.346l-9.182-5.736L167.538,584.335L167.538,584.335z M197.856,603.224l-3.744,8.408   l10.724,4.773l-11.41,25.629l10.516,4.682l11.41-25.629l10.73,4.777l3.744-8.408L197.856,603.224L197.856,603.224z    M230.445,617.229l11.092,3.181l-10.271,35.813l-11.091-3.182L230.445,617.229L230.445,617.229z M245.585,622.095l-6.472,36.691   l10.662,1.881l3.553-20.146l10.192,22.568l10.688,1.885l6.471-36.69l-10.688-1.886l-3.58,20.298l-10.234-22.732L245.585,622.095   L245.585,622.095z M280.481,646.792c0-6.08,1.701-10.818,5.084-14.201c3.393-3.391,8.111-5.082,14.156-5.082   c6.203,0,10.982,1.664,14.34,4.996c3.349,3.322,5.031,7.988,5.031,13.982c0,4.354-0.736,7.93-2.203,10.715   c-1.467,2.783-3.582,4.953-6.35,6.506c-2.775,1.553-6.222,2.324-10.357,2.324c-4.199,0-7.678-0.668-10.436-2.004   c-2.75-1.345-4.979-3.461-6.697-6.359C281.341,654.771,280.481,651.146,280.481,646.792L280.481,646.792z M292.002,646.845   c0,3.765,0.693,6.461,2.091,8.109c1.396,1.641,3.305,2.465,5.707,2.465c2.473,0,4.391-0.807,5.743-2.412   c1.353-1.612,2.038-4.502,2.038-8.666c0-3.514-0.711-6.072-2.125-7.694c-1.414-1.613-3.331-2.421-5.761-2.421   c-2.315,0-4.182,0.816-5.586,2.466C292.704,640.329,292.002,643.054,292.002,646.845L292.002,646.845z M321.983,653.472   l10.826-1.825c0.418,1.743,1.043,3.038,1.865,3.895c1.33,1.377,3.1,1.941,5.291,1.711c1.631-0.172,2.85-0.684,3.658-1.545   c0.799-0.859,1.146-1.795,1.039-2.805c-0.101-0.957-0.605-1.775-1.529-2.447c-0.926-0.67-2.951-1.18-6.094-1.531   c-5.14-0.602-8.877-1.719-11.214-3.365c-2.354-1.645-3.682-3.914-3.985-6.813c-0.201-1.906,0.162-3.768,1.088-5.574   c0.928-1.807,2.443-3.309,4.559-4.518c2.115-1.199,5.103-2.002,8.959-2.406c4.736-0.498,8.443,0.002,11.113,1.5   c2.668,1.5,4.439,4.148,5.316,7.938l-10.728,1.765c-0.459-1.635-1.19-2.787-2.192-3.449c-0.994-0.654-2.304-0.9-3.916-0.731   c-1.336,0.141-2.31,0.522-2.922,1.161c-0.613,0.632-0.878,1.357-0.793,2.168c0.063,0.587,0.395,1.084,0.995,1.5   c0.597,0.437,1.921,0.75,3.99,0.959c5.117,0.554,8.813,1.271,11.094,2.148c2.283,0.877,4.005,2.074,5.16,3.609   c1.154,1.526,1.849,3.305,2.062,5.332c0.25,2.372-0.187,4.633-1.285,6.772c-1.103,2.146-2.779,3.859-5.033,5.144   c-2.246,1.282-5.168,2.112-8.758,2.489c-6.297,0.662-10.789-0.088-13.471-2.266C324.392,660.118,322.696,657.183,321.983,653.472   L321.983,653.472z M382.964,615.794l11.033-3.373l5.921,19.369c1.242,4.066,1.824,7.271,1.753,9.615   c-0.072,2.346-0.968,4.586-2.697,6.729c-1.732,2.135-4.293,3.726-7.695,4.767c-3.6,1.1-6.534,1.471-8.809,1.096   c-2.279-0.365-4.238-1.316-5.883-2.863c-1.648-1.537-2.994-3.655-4.027-6.352l10.08-4.652c0.496,1.563,0.994,2.689,1.484,3.375   c0.489,0.685,1.119,1.164,1.875,1.439c0.52,0.188,1.162,0.153,1.94-0.086c1.229-0.375,1.992-1.107,2.295-2.197   c0.291-1.096,0.109-2.728-0.553-4.894L382.964,615.794L382.964,615.794z M417.938,601.396l9.971,20.443   c0.906,1.855,1.104,3.545,0.588,5.041c-0.52,1.508-1.676,2.699-3.452,3.566c-1.802,0.879-3.455,1.049-4.972,0.514   c-1.504-0.531-2.707-1.711-3.602-3.543l-9.971-20.443l-10.33,5.039l9.737,19.967c0.804,1.646,2.043,3.377,3.722,5.193   c1.043,1.131,2.403,2.061,4.088,2.783c1.686,0.723,3.342,1.111,4.967,1.158s3.451-0.283,5.488-0.996   c2.039-0.707,3.869-1.465,5.5-2.258c2.821-1.377,5.049-2.929,6.699-4.648c1.188-1.246,2.118-2.838,2.793-4.799   c0.676-1.961,0.889-3.978,0.649-6.031c-0.244-2.063-0.842-4.078-1.807-6.057l-9.738-19.969L417.938,601.396L417.938,601.396z    M430.115,594.343l8.918-6.014l23.154,9.242l-11.525-17.086l8.996-6.068l20.834,30.887l-8.996,6.068l-23.01-9.152l11.439,16.957   l-8.978,6.056L430.115,594.343L430.115,594.343z M461.533,570.981l24.443,28.118l8.707-7.567l-24.441-28.119L461.533,570.981   L461.533,570.981z M486.078,574.685c3.236,2.914,6.507,4.701,9.804,5.371c3.301,0.662,6.366,0.422,9.205-0.723   c2.84-1.156,5.661-3.293,8.473-6.414c2.768-3.074,4.5-6.15,5.203-9.252c0.697-3.096,0.502-6.121-0.586-9.072   c-1.09-2.953-3.252-5.893-6.488-8.807c-4.455-4.01-9.049-5.883-13.758-5.617c-4.722,0.266-9.158,2.703-13.31,7.313   c-4.045,4.491-5.944,9.131-5.694,13.922C479.179,566.183,481.56,570.616,486.078,574.685L486.078,574.685z M493.824,566.159   c-2.815-2.537-4.371-4.881-4.647-7.023c-0.285-2.146,0.356-4.078,1.905-5.801c1.628-1.805,3.509-2.689,5.654-2.66   c2.15,0.035,4.529,1.219,7.139,3.57c3.097,2.785,4.783,5.227,5.076,7.313c0.289,2.08-0.395,4.043-2.049,5.882   c-1.609,1.786-3.498,2.651-5.649,2.594C499.093,569.968,496.623,568.679,493.824,566.159L493.824,566.159z M528.806,552.813   l-30.887-20.834l10.729-15.908c1.988-2.947,3.764-5.037,5.322-6.246c1.555-1.222,3.34-1.849,5.356-1.879   c2.013-0.033,4,0.617,5.964,1.94c1.719,1.158,2.946,2.521,3.7,4.086c0.748,1.572,1.076,3.259,0.994,5.056   c-0.063,1.149-0.405,2.541-1.045,4.172c1.148-0.879,2.088-1.449,2.822-1.717c0.484-0.177,1.369-0.322,2.646-0.435   c1.285-0.104,2.22-0.125,2.822-0.043l12.068,1.422l-7.277,10.789l-12.881-1.271c-1.652-0.172-2.838-0.136-3.551,0.127   c-0.935,0.362-1.701,0.987-2.287,1.856l-0.568,0.843l12.535,8.454L528.806,552.813L528.806,552.813z M516.897,530.831l2.717-4.027   c0.291-0.43,0.724-1.362,1.285-2.805c0.299-0.721,0.324-1.457,0.078-2.209c-0.252-0.744-0.713-1.348-1.389-1.805   c-1-0.675-1.976-0.871-2.937-0.599c-0.965,0.271-2.031,1.277-3.205,3.019l-2.828,4.19L516.897,530.831L516.897,530.831z    M538.569,515.243c3.525,1.36,6.912,1.479,10.176,0.35c3.269-1.119,6.283-4.531,9.06-10.223c1.582-3.244,2.426-6.162,2.528-8.748   c0.105-2.592-0.456-4.922-1.694-6.992c-1.23-2.068-2.918-3.635-5.063-4.68c-1.832-0.896-3.705-1.248-5.612-1.078   c-1.914,0.166-3.843,0.992-5.795,2.463c-1.951,1.471-4.521,4.223-7.699,8.271c-1.277,1.646-2.244,2.602-2.928,2.877   c-0.675,0.289-1.271,0.307-1.802,0.049c-0.731-0.357-1.209-0.967-1.418-1.82c-0.219-0.859-0.026-1.887,0.563-3.094   c0.711-1.459,1.612-2.438,2.694-2.935c1.093-0.5,2.457-0.51,4.089-0.032l4.188-10.031c-3.678-1.262-6.861-1.166-9.547,0.305   c-2.688,1.469-5.074,4.349-7.162,8.629c-1.701,3.484-2.602,6.441-2.707,8.871c-0.096,2.435,0.375,4.519,1.416,6.26   c1.041,1.744,2.428,3.037,4.15,3.88c2.619,1.276,5.248,1.352,7.891,0.229c2.635-1.109,5.562-3.688,8.795-7.727   c1.963-2.479,3.469-3.927,4.527-4.355c1.059-0.428,2.021-0.422,2.887,0c0.912,0.443,1.521,1.234,1.828,2.367   c0.303,1.143,0.09,2.447-0.629,3.92c-0.967,1.979-2.383,3.182-4.256,3.58c-1.162,0.246-2.59,0.088-4.291-0.48L538.569,515.243z"/>
	<g id="XMLID_1_">
		<g>
			<path fill="#0D3E8A" d="M99.711,526.028c1.17,1.739,1.71,3.108,1.601,4.108c-0.11,0.99-0.66,1.82-1.66,2.49     c-0.67,0.46-1.409,0.66-2.189,0.61c-0.79-0.05-1.46-0.352-2.021-0.892c-1.119-1.068-1.83-1.818-2.119-2.25l-2.721-4.02l6.28-4.24     L99.711,526.028z"/>
		</g>
	</g>
	<path fill="#0D3E8A" d="M208.429,240.276h8.756l3.38,13.104l3.364-13.104h8.727v21.538h-5.437v-16.423l-4.218,16.423h-4.919   l-4.202-16.423v16.423h-5.451V240.276L208.429,240.276z M236.888,240.276h17.832v4.598h-11.162v3.425h10.354v4.393h-10.354v4.242   h11.488v4.879h-18.158V240.276L236.888,240.276z M258.671,240.276h6.219l8.108,11.915v-11.915h6.272v21.538h-6.272l-8.069-11.825   v11.825h-6.258V240.276L258.671,240.276z M282.53,254.689l6.334-0.397c0.138,1.028,0.416,1.811,0.839,2.353   c0.682,0.873,1.665,1.304,2.938,1.304c0.948,0,1.681-0.221,2.196-0.667c0.512-0.447,0.768-0.963,0.768-1.55   c0-0.557-0.239-1.058-0.731-1.5c-0.491-0.441-1.625-0.857-3.41-1.249c-2.918-0.657-5-1.524-6.243-2.613   c-1.253-1.088-1.88-2.472-1.88-4.157c0-1.108,0.32-2.156,0.963-3.139c0.641-0.983,1.604-1.755,2.893-2.322   c1.289-0.562,3.056-0.843,5.297-0.843c2.753,0,4.854,0.512,6.298,1.535s2.303,2.653,2.578,4.884l-6.273,0.366   c-0.165-0.968-0.517-1.675-1.053-2.116c-0.531-0.437-1.271-0.657-2.207-0.657c-0.777,0-1.359,0.16-1.75,0.491   c-0.392,0.326-0.586,0.727-0.586,1.198c0,0.341,0.16,0.647,0.479,0.923c0.316,0.286,1.06,0.546,2.236,0.792   c2.908,0.626,4.99,1.264,6.248,1.905c1.26,0.642,2.178,1.434,2.749,2.387c0.571,0.948,0.861,2.011,0.861,3.189   c0,1.378-0.386,2.652-1.147,3.816c-0.762,1.168-1.83,2.051-3.204,2.652c-1.369,0.602-3.099,0.903-5.186,0.903   c-3.661,0-6.198-0.702-7.606-2.117C283.515,258.655,282.717,256.865,282.53,254.689L282.53,254.689z M314.294,254.689l6.334-0.397   c0.135,1.028,0.416,1.811,0.838,2.353c0.682,0.873,1.664,1.304,2.938,1.304c0.947,0,1.681-0.221,2.197-0.667   c0.512-0.447,0.769-0.963,0.769-1.55c0-0.557-0.242-1.058-0.732-1.5c-0.492-0.441-1.625-0.857-3.41-1.249   c-2.92-0.657-5-1.524-6.244-2.613c-1.254-1.088-1.881-2.472-1.881-4.157c0-1.108,0.322-2.156,0.963-3.139   c0.644-0.983,1.605-1.755,2.896-2.322c1.289-0.562,3.053-0.843,5.295-0.843c2.754,0,4.854,0.512,6.299,1.535   s2.301,2.653,2.578,4.884l-6.273,0.366c-0.166-0.968-0.518-1.675-1.055-2.116c-0.531-0.437-1.268-0.657-2.205-0.657   c-0.777,0-1.358,0.16-1.75,0.491c-0.393,0.326-0.588,0.727-0.588,1.198c0,0.341,0.162,0.647,0.482,0.923   c0.315,0.286,1.059,0.546,2.235,0.792c2.908,0.626,4.99,1.264,6.248,1.905c1.26,0.642,2.176,1.434,2.748,2.387   c0.572,0.948,0.863,2.011,0.863,3.189c0,1.378-0.387,2.652-1.148,3.816c-0.762,1.168-1.83,2.051-3.205,2.652   c-1.368,0.602-3.1,0.903-5.186,0.903c-3.66,0-6.197-0.702-7.607-2.117C315.276,258.655,314.479,256.865,314.294,254.689   L314.294,254.689z M350.435,258.259h-7.582l-1.043,3.556h-6.799l8.094-21.538h7.256l8.099,21.538h-6.965L350.435,258.259   L350.435,258.259z M349.04,253.6l-2.381-7.742l-2.367,7.742H349.04L349.04,253.6z M360.63,240.276h6.219l8.107,11.915v-11.915   h6.272v21.538h-6.272l-8.068-11.825v11.825h-6.258V240.276L360.63,240.276z M398.606,258.259h-7.582l-1.043,3.556h-6.801   l8.094-21.538h7.256l8.101,21.538h-6.966L398.606,258.259L398.606,258.259z M397.212,253.6l-2.381-7.742l-2.367,7.742H397.212z"/>
	<path fill="#0D3E8A" d="M288.387,507.706h6.67v21.537h-6.67V507.706L288.387,507.706z M299.876,507.706h6.218l8.108,11.914v-11.914   h6.272v21.537h-6.272l-8.068-11.824v11.824h-6.258V507.706z"/>
	<path fill="#0D3E8A" d="M199.638,547.896l3.848,4.726c-1.237,1.137-2.513,1.924-3.825,2.363c-1.313,0.438-2.644,0.538-3.99,0.303   c-1.35-0.234-2.82-0.896-4.418-1.972c-1.941-1.309-3.338-2.661-4.187-4.051c-0.85-1.396-1.244-3.106-1.179-5.133   c0.069-2.021,0.846-4.141,2.341-6.357c1.993-2.954,4.313-4.698,6.953-5.225c2.644-0.527,5.402,0.18,8.275,2.117   c2.248,1.516,3.71,3.162,4.385,4.941c0.674,1.778,0.688,3.821,0.042,6.125l-5.604-2.201c0.197-0.66,0.287-1.181,0.271-1.56   c-0.025-0.627-0.185-1.207-0.475-1.735c-0.296-0.531-0.72-0.98-1.271-1.354c-1.246-0.84-2.547-0.984-3.891-0.428   c-1.009,0.408-2.053,1.41-3.132,3.01c-1.338,1.984-1.948,3.543-1.847,4.685c0.106,1.143,0.704,2.077,1.789,2.809   c1.056,0.713,2.054,0.957,2.995,0.727C197.656,549.46,198.63,548.864,199.638,547.896L199.638,547.896z M206.747,550.325   c-1.183,2.223-1.729,4.307-1.643,6.25c0.091,1.942,0.653,3.629,1.692,5.063c1.045,1.431,2.64,2.716,4.783,3.855   c2.11,1.123,4.078,1.662,5.917,1.623c1.834-0.041,3.503-0.574,5.007-1.599c1.504-1.023,2.85-2.646,4.032-4.869   c1.626-3.061,2.033-5.897,1.228-8.504c-0.811-2.61-2.798-4.758-5.963-6.44c-3.086-1.642-5.955-2.06-8.606-1.248   C210.551,545.265,208.397,547.222,206.747,550.325L206.747,550.325z M212.612,553.479c1.029-1.935,2.127-3.136,3.289-3.591   c1.165-0.459,2.338-0.369,3.521,0.261c1.239,0.657,1.999,1.59,2.283,2.799c0.281,1.211-0.051,2.711-1.003,4.504   c-1.132,2.125-2.266,3.414-3.394,3.869c-1.127,0.453-2.324,0.344-3.586-0.328c-1.227-0.652-1.977-1.59-2.245-2.805   C211.214,556.966,211.591,555.399,212.612,553.479L212.612,553.479z M224.687,572.038l7.719-20.107l10.355,3.978   c1.92,0.736,3.327,1.465,4.211,2.186c0.891,0.717,1.476,1.642,1.755,2.773c0.281,1.129,0.173,2.332-0.316,3.611   c-0.431,1.118-1.037,1.985-1.82,2.614c-0.789,0.627-1.695,1.031-2.719,1.22c-0.655,0.112-1.483,0.102-2.484-0.048   c0.645,0.531,1.088,0.986,1.334,1.365c0.162,0.25,0.359,0.729,0.588,1.437c0.228,0.709,0.359,1.231,0.392,1.584l0.769,6.981   l-7.022-2.695l-0.96-7.422c-0.116-0.953-0.292-1.614-0.532-1.981c-0.326-0.48-0.777-0.83-1.344-1.047l-0.549-0.211l-3.133,8.159   L224.687,572.038L224.687,572.038z M235.519,562.474l2.622,1.007c0.281,0.106,0.862,0.229,1.747,0.358   c0.445,0.074,0.863-0.008,1.255-0.244c0.386-0.237,0.667-0.576,0.835-1.018c0.25-0.65,0.234-1.226-0.044-1.73   c-0.277-0.508-0.982-0.979-2.116-1.414l-2.729-1.047L235.519,562.474L235.519,562.474z M252.476,559.237l-5.938,20.703l6.426,1.844   l2.203-7.685l3.5,1.002c2.579,0.74,4.666,0.703,6.262-0.112c1.596-0.814,2.691-2.271,3.291-4.361   c0.582-2.029,0.454-3.768-0.383-5.197c-0.836-1.434-2.414-2.479-4.729-3.145L252.476,559.237L252.476,559.237z M256.37,569.905   l1.323-4.617l1.822,0.522c1.195,0.343,1.945,0.804,2.244,1.38c0.305,0.571,0.363,1.188,0.177,1.84   c-0.189,0.664-0.599,1.143-1.219,1.43c-0.624,0.285-1.548,0.25-2.782-0.104L256.37,569.905L256.37,569.905z M267.938,575.45   c0.43-3.488,1.737-6.086,3.917-7.789c2.187-1.707,5.013-2.346,8.481-1.92c3.56,0.438,6.184,1.729,7.876,3.877   c1.687,2.143,2.323,4.938,1.9,8.379c-0.308,2.498-0.98,4.496-2.02,5.99c-1.037,1.496-2.404,2.59-4.102,3.287   c-1.702,0.694-3.732,0.895-6.106,0.604c-2.409-0.295-4.357-0.924-5.847-1.885c-1.483-0.965-2.613-2.336-3.396-4.121   C267.868,580.091,267.631,577.948,267.938,575.45L267.938,575.45z M274.544,576.292c-0.267,2.16-0.058,3.758,0.628,4.801   c0.687,1.039,1.723,1.646,3.103,1.816c1.418,0.174,2.574-0.154,3.464-0.98c0.891-0.83,1.487-2.438,1.78-4.828   c0.248-2.016,0.021-3.532-0.678-4.563c-0.697-1.025-1.74-1.623-3.135-1.795c-1.328-0.162-2.455,0.174-3.378,1.02   C275.405,572.604,274.812,574.116,274.544,576.292L274.544,576.292z M292.327,588.669V567.13h11.093   c2.056,0,3.63,0.176,4.714,0.533c1.088,0.35,1.965,1.002,2.633,1.959c0.666,0.953,0.998,2.117,0.998,3.486   c0,1.196-0.256,2.227-0.764,3.094c-0.511,0.867-1.213,1.57-2.101,2.111c-0.571,0.342-1.35,0.627-2.338,0.848   c0.793,0.266,1.369,0.531,1.734,0.797c0.242,0.176,0.598,0.551,1.063,1.129c0.468,0.582,0.777,1.023,0.933,1.338l3.221,6.244   h-7.522l-3.556-6.584c-0.451-0.848-0.852-1.403-1.209-1.66c-0.476-0.332-1.021-0.495-1.629-0.495h-0.587v8.739H292.327   L292.327,588.669z M299.012,575.856h2.808c0.303,0,0.89-0.097,1.763-0.291c0.439-0.091,0.801-0.316,1.082-0.679   c0.274-0.36,0.416-0.776,0.416-1.248c0-0.696-0.222-1.229-0.662-1.6c-0.441-0.377-1.269-0.563-2.482-0.563h-2.923L299.012,575.856   L299.012,575.856z M314.122,567.331l17.789-1.244l0.319,4.588l-11.135,0.777l0.238,3.418l10.33-0.724l0.307,4.384l-10.33,0.723   l0.297,4.23l11.461-0.802l0.34,4.867l-18.114,1.269L314.122,567.331L314.122,567.331z M344.489,578.493l6.052-1.916   c0.381,0.965,0.842,1.656,1.381,2.078c0.873,0.684,1.932,0.862,3.168,0.555c0.92-0.229,1.576-0.619,1.969-1.178   c0.389-0.558,0.512-1.119,0.369-1.689c-0.135-0.539-0.488-0.969-1.072-1.276c-0.584-0.312-1.783-0.439-3.61-0.388   c-2.99,0.068-5.22-0.27-6.689-1.024c-1.479-0.752-2.422-1.943-2.83-3.578c-0.268-1.076-0.211-2.17,0.174-3.279   c0.386-1.109,1.134-2.092,2.246-2.953c1.115-0.854,2.76-1.557,4.935-2.098c2.672-0.666,4.836-0.678,6.483-0.035   c1.648,0.643,2.875,2.018,3.683,4.115l-5.998,1.873c-0.396-0.898-0.906-1.5-1.533-1.799c-0.621-0.296-1.391-0.33-2.301-0.104   c-0.754,0.189-1.279,0.484-1.578,0.9c-0.303,0.411-0.396,0.848-0.279,1.305c0.082,0.332,0.312,0.59,0.689,0.779   c0.375,0.2,1.157,0.272,2.36,0.227c2.976-0.094,5.148,0.021,6.523,0.338c1.377,0.318,2.459,0.865,3.244,1.652   c0.785,0.781,1.324,1.742,1.608,2.885c0.334,1.338,0.269,2.668-0.19,3.982c-0.457,1.315-1.279,2.432-2.467,3.348   c-1.185,0.916-2.789,1.625-4.814,2.131c-3.551,0.885-6.184,0.818-7.893-0.213C346.403,582.104,345.196,580.56,344.489,578.493   L344.489,578.493z M379.327,571.458l-7.029,2.842l0.363,3.687l-6.306,2.549l-0.563-23.002l6.729-2.719l15.578,16.936l-6.459,2.609   L379.327,571.458L379.327,571.458z M376.29,567.661l-5.109-6.285l0.705,8.064L376.29,567.661L376.29,567.661z M379.8,551.747   l10.111,19.018l5.524-2.938l-5.551-10.441l12.676,6.652l5.539-2.945l-10.111-19.016l-5.541,2.942l5.597,10.521l-12.754-6.713   L379.8,551.747L379.8,551.747z M405.099,550.104c-1.967-2.916-2.685-5.733-2.154-8.448c0.527-2.724,2.244-5.06,5.142-7.015   c2.973-2.004,5.801-2.752,8.487-2.239c2.679,0.51,4.992,2.203,6.931,5.075c1.407,2.087,2.211,4.037,2.407,5.847   c0.197,1.809-0.114,3.531-0.938,5.17c-0.828,1.643-2.23,3.125-4.213,4.463c-2.013,1.357-3.896,2.162-5.648,2.414   c-1.754,0.244-3.506-0.049-5.266-0.883C408.089,553.651,406.505,552.19,405.099,550.104L405.099,550.104z M410.636,546.405   c1.217,1.803,2.422,2.873,3.623,3.211c1.198,0.334,2.381,0.11,3.532-0.664c1.185-0.799,1.843-1.808,1.974-3.012   c0.127-1.212-0.479-2.818-1.826-4.813c-1.135-1.684-2.303-2.682-3.504-3.002c-1.201-0.314-2.379-0.082-3.543,0.703   c-1.111,0.748-1.74,1.742-1.881,2.986C408.865,543.056,409.408,544.589,410.636,546.405z"/>
</g>
</svg>