<svg xmlns:svg="http://www.w3.org/2000/svg" xmlns="http://www.w3.org/2000/svg" version="1.0" width="768" height="768" id="svg2">
  <defs id="defs4"/>
  <g id="layer1">
    <g transform="translate(-128,7.840496e-5)" id="g2534">
      <g transform="matrix(2.975243,0,0,2.975243,-616.425,-1551.682)" id="g1875">
        <path d="M 267.51453,620.11218 C 260.55671,593.52034 274.17211,574.42484 291.53845,556.89132 C 293.99318,571.39821 293.8927,584.63467 279.07491,591.21121 L 286.48078,571.16117 L 286.48078,571.16117 C 283.46834,575.52855 280.35979,579.83048 278.12608,584.28282 C 275.48182,589.55351 273.65168,595.63699 272.61466,601.07096 C 271.21558,608.40213 270.52442,615.47489 267.51453,620.11218 z " style="fill:#039;fill-opacity:1;fill-rule:evenodd;stroke:none;stroke-width:1px;stroke-linecap:butt;stroke-linejoin:miter;stroke-opacity:1" id="path1933"/>
        <path d="M 269.11744,617.32943 C 271.38842,604.52797 279.24104,592.55581 288.20184,585.8686 C 296.5566,579.63367 303.44394,575.46573 316.50357,575.05232 C 288.30748,591.66711 279.61981,598.58851 276.9087,612.47586" style="fill:#039;fill-opacity:1;fill-rule:evenodd;stroke:none;stroke-width:1px;stroke-linecap:butt;stroke-linejoin:miter;stroke-opacity:1" id="path1939"/>
        <path d="M 302.45377,585.39808 C 299.11044,591.6798 294.17077,595.82729 289.60144,599.87707 C 285.07741,603.88672 280.49901,607.48595 276.86564,612.28392 L 267.52088,617.32943 L 267.20156,620.9696 L 273.97101,622.88549 C 277.01314,620.62511 278.37463,617.29687 281.19776,614.78696 C 287.87337,608.852 295.68436,603.09434 302.5817,595.20537 C 305.14106,592.27805 307.52188,586.84981 310.48211,582.23411 C 312.26219,579.45857 314.78179,577.303 316.18427,575.2439 L 302.51764,583.09902" style="fill:#039;fill-opacity:1;fill-rule:evenodd;stroke:none;stroke-width:1px;stroke-linecap:butt;stroke-linejoin:miter;stroke-opacity:1" id="path1941"/>
        <path d="M 267.45702,637.70163 L 271.16105,644.27949 L 271.4165,633.16738 L 267.52087,630.48514 L 267.45702,637.70163 z " style="fill:#039;fill-opacity:1;fill-rule:evenodd;stroke:none;stroke-width:1px;stroke-linecap:butt;stroke-linejoin:miter;stroke-opacity:1" id="path4600"/>
        <path d="M 267.46937,630.72425 C 265.42896,629.88442 263.83676,628.55156 262.99875,626.3891 C 262.82752,623.69153 263.23488,621.31729 267.10811,620.87986 L 274.0624,622.77648 C 275.87731,624.56555 277.72567,626.54281 277.17829,629.68562 C 276.65738,631.99036 275.37528,634.21097 272.52704,633.97561 L 267.46937,630.72425 z " style="fill:#039;fill-opacity:1;fill-rule:evenodd;stroke:none;stroke-width:1px;stroke-linecap:butt;stroke-linejoin:miter;stroke-opacity:1" id="path5489"/>
      </g>
      <g transform="matrix(-2.975243,0,0,2.975243,1641.291,-1552.377)" id="g1882">
        <path d="M 267.51453,620.11218 C 260.55671,593.52034 274.17211,574.42484 291.53845,556.89132 C 293.99318,571.39821 293.8927,584.63467 279.07491,591.21121 L 286.48078,571.16117 L 286.48078,571.16117 C 283.46834,575.52855 280.35979,579.83048 278.12608,584.28282 C 275.48182,589.55351 273.74403,595.65543 272.61466,601.07096 C 271.17459,607.97637 270.86831,614.23442 267.51453,620.11218 z " style="fill:#039;fill-opacity:1;fill-rule:evenodd;stroke:none;stroke-width:1px;stroke-linecap:butt;stroke-linejoin:miter;stroke-opacity:1" id="path1884"/>
        <path d="M 269.11744,617.32943 C 271.38842,604.52797 279.24104,592.55581 288.20184,585.8686 C 296.5566,579.63367 303.44394,575.46573 316.50357,575.05232 C 288.30748,591.66711 279.61981,598.58851 276.9087,612.47586" style="fill:#039;fill-opacity:1;fill-rule:evenodd;stroke:none;stroke-width:1px;stroke-linecap:butt;stroke-linejoin:miter;stroke-opacity:1" id="path1886"/>
        <path d="M 302.45377,585.39808 C 299.11044,591.6798 294.17077,595.82729 289.60144,599.87707 C 285.07741,603.88672 280.32246,607.50423 276.68909,612.3022 L 267.52088,617.32943 L 267.20156,620.9696 L 273.97101,622.88549 C 277.01314,620.62511 278.37463,617.29687 281.19776,614.78696 C 287.87337,608.852 295.68436,603.09434 302.5817,595.20537 C 305.14106,592.27805 307.52188,586.84981 310.48211,582.23411 C 312.26219,579.45857 314.78179,577.303 316.18427,575.2439 L 302.51764,583.09902" style="fill:#039;fill-opacity:1;fill-rule:evenodd;stroke:none;stroke-width:1px;stroke-linecap:butt;stroke-linejoin:miter;stroke-opacity:1" id="path1888"/>
        <path d="M 267.45702,637.70163 L 271.16105,644.27949 L 271.4165,633.16738 L 267.52087,630.48514 L 267.45702,637.70163 z " style="fill:#039;fill-opacity:1;fill-rule:evenodd;stroke:none;stroke-width:1px;stroke-linecap:butt;stroke-linejoin:miter;stroke-opacity:1" id="path1890"/>
        <path d="M 267.46937,630.72425 C 265.42896,629.88442 263.83676,628.55156 262.99875,626.3891 C 262.82752,623.69153 263.23488,621.31729 267.10811,620.87986 L 274.0624,622.77648 C 275.87731,624.56555 277.72567,626.54281 277.17829,629.68562 C 276.65738,631.99036 275.37528,634.21097 272.52704,633.97561 L 267.46937,630.72425 z " style="fill:#039;fill-opacity:1;fill-rule:evenodd;stroke:none;stroke-width:1px;stroke-linecap:butt;stroke-linejoin:miter;stroke-opacity:1" id="path1892"/>
      </g>
      <path d="M 136.52489,293.92577 C 135.29466,304.88662 141.33839,321.34739 139.62498,331.60216 C 136.83893,348.27664 140.61314,379.9952 142.77287,394.68439 C 145.54348,413.52836 152.59278,426.58837 160.07656,439.36686 C 169.81649,455.99767 181.34315,471.45108 195.88882,491.38583 C 188.76299,476.7072 189.68609,458.36489 184.01171,445.9769 C 175.81902,428.09117 161.81282,416.32075 156.61701,393.05345 C 153.01464,376.92172 158.0414,354.79802 154.59658,334.61239 C 152.00481,319.42559 142.3475,304.46741 136.52489,293.92577 z " style="fill:#039;fill-opacity:1;fill-rule:evenodd;stroke:none;stroke-width:1px;stroke-linecap:butt;stroke-linejoin:miter;stroke-opacity:1" id="path1896"/>
      <path d="M 136.13731,293.31635 C 157.441,315.17334 177.81177,323.55419 189.7566,399.13759 C 191.56787,363.74201 205.95647,337.75853 217.83962,314.9843 C 220.3429,310.18672 222.12909,306.4737 225.5405,302.95372 C 229.15182,299.22747 234.74766,296.58849 237.7919,292.47245 C 238.15122,303.56529 231.77173,315.4806 234.86295,326.15214 C 243.9555,378.70633 233.59592,435.82992 209.64616,483.68679 C 190.51847,447.76219 216.92366,392.8656 220.75298,347.37559 C 213.68499,364.18902 208.04497,397.40159 199.54905,417.67683 L 199.55396,458.30407 L 203.46167,491.13341 L 194.87911,490.88099 C 188.50034,475.80665 181.45056,458.7088 182.1315,443.29829 L 182.00529,418.56033 C 179.40883,406.8244 172.65803,397.24504 170.57747,385.39973 C 165.20531,354.81397 149.58216,323.13048 136.13731,293.31635 z " style="fill:#039;fill-opacity:1;fill-rule:evenodd;stroke:none;stroke-width:1px;stroke-linecap:butt;stroke-linejoin:miter;stroke-opacity:1" id="path2785"/>
      <g transform="matrix(-2.975243,0,0,2.975243,1640.425,-1552.178)" id="g4655">
        <path d="M 253.07173,620.32169 C 252.65824,624.00571 254.68958,629.53829 254.11369,632.98499 C 253.17728,638.5894 254.44582,649.25023 255.17172,654.18737 C 256.10294,660.52096 258.47226,664.91052 260.98761,669.20546 C 264.26127,674.79519 268.13546,679.98919 273.02436,686.6894 C 270.62932,681.75581 270.93958,675.59083 269.03238,671.42714 C 266.27876,665.41562 261.57118,661.4595 259.82483,653.6392 C 258.61405,648.21721 260.30358,640.78128 259.14575,633.99675 C 258.27464,628.89236 255.02875,623.86481 253.07173,620.32169 z " style="fill:#039;fill-opacity:1;fill-rule:evenodd;stroke:none;stroke-width:1px;stroke-linecap:butt;stroke-linejoin:miter;stroke-opacity:1" id="path4657"/>
        <path d="M 252.94146,620.11686 C 260.10178,627.46315 266.94854,630.28001 270.96328,655.68412 C 271.57206,643.78742 276.40817,635.05419 280.40218,627.39961 C 281.24355,625.78711 281.8439,624.53914 282.9905,623.35605 C 284.20429,622.10363 286.08509,621.21665 287.10828,619.83322 C 287.22905,623.5616 285.08486,627.56642 286.12384,631.1532 C 289.17991,648.81703 285.69798,668.01667 277.6483,684.1017 C 271.21935,672.02719 280.09432,653.57606 281.38138,638.28655 C 279.00578,643.93766 277.11013,655.10064 274.25459,661.91529 L 274.25624,675.57039 L 275.56965,686.60456 L 272.68499,686.51972 C 270.54104,681.45313 268.17156,675.70642 268.40043,670.52684 L 268.35801,662.21224 C 267.48532,658.26771 265.21633,655.04802 264.51704,651.06673 C 262.71142,640.78664 257.46037,630.1376 252.94146,620.11686 z " style="fill:#039;fill-opacity:1;fill-rule:evenodd;stroke:none;stroke-width:1px;stroke-linecap:butt;stroke-linejoin:miter;stroke-opacity:1" id="path4659"/>
        <path d="M 282.86686,702.66316 C 281.36157,701.75146 279.58196,701.25124 278.36739,699.90348 L 278.12741,695.70397 C 274.025,694.66467 271.43494,693.3229 269.7284,691.80443 C 268.52672,690.35882 269.37725,689.28633 269.84838,688.14486 L 272.66805,686.16509 L 275.78769,685.92512 C 278.31051,685.79891 280.53545,686.26844 281.78698,688.68479 C 282.88502,691.62344 282.11386,692.60744 281.12706,695.28402 L 283.46679,700.50341 L 282.98684,702.66315" style="fill:#039;fill-opacity:1;fill-rule:evenodd;stroke:none;stroke-width:1px;stroke-linecap:butt;stroke-linejoin:miter;stroke-opacity:1" id="path4661"/>
      </g>
      <g transform="matrix(2.975243,0,0,2.975243,-616.425,-1551.682)" id="g9104">
        <path d="M 282.86686,702.66316 C 281.36157,701.75146 279.58196,701.25124 278.36739,699.90348 L 278.12741,695.70397 C 274.025,694.66467 271.43494,693.3229 269.7284,691.80443 C 268.52672,690.35882 269.37725,689.28633 269.84838,688.14486 L 272.66805,686.16509 L 275.78769,685.92512 C 278.31051,685.79891 280.53545,686.26844 281.78698,688.68479 C 282.88502,691.62344 282.11386,692.60744 281.12706,695.28402 L 283.46679,700.50341 L 282.98684,702.66315" style="fill:#039;fill-opacity:1;fill-rule:evenodd;stroke:none;stroke-width:1px;stroke-linecap:butt;stroke-linejoin:miter;stroke-opacity:1" id="path3674"/>
        <path d="M 256.91835,689.22672 C 263.69777,701.72769 271.35917,714.18685 282.94305,725.08634 C 291.62584,731.77912 300.9422,736.44445 310.63213,739.91437 L 312.44781,735.8291 C 302.92164,730.67241 293.73919,724.82827 285.21265,717.67232 C 276.25602,706.88473 266.67601,697.81146 256.91835,689.22672 z " style="fill:#039;fill-opacity:1;fill-rule:evenodd;stroke:none;stroke-width:1px;stroke-linecap:butt;stroke-linejoin:miter;stroke-opacity:1" id="path4665"/>
        <path d="M 257.37226,689.75629 C 260.51942,692.24669 262.62384,696.04743 266.24766,697.76561 C 275.95027,702.36596 287.38166,714.25884 289.44923,717.59668 C 290.6393,708.0507 269.79238,691.97728 257.37226,689.75629 z " style="fill:#039;fill-opacity:1;fill-rule:evenodd;stroke:none;stroke-width:1px;stroke-linecap:butt;stroke-linejoin:miter;stroke-opacity:1" id="path5552"/>
        <path d="M 285.89353,675.23086 C 285.01356,678.38887 283.4183,681.23335 283.41099,684.38002 C 283.37879,698.24127 288.3907,717.12158 304.88249,732.19774 L 311.99389,736.28302 L 313.58261,733.48385 C 295.69834,717.02696 288.50297,696.91335 285.89353,675.23086 z " style="fill:#039;fill-opacity:1;fill-rule:evenodd;stroke:none;stroke-width:1px;stroke-linecap:butt;stroke-linejoin:miter;stroke-opacity:1" id="path6442"/>
        <path d="M 308.7408,728.26378 C 300.79762,713.05748 293.87809,697.85118 284.91003,682.64488 L 285.89353,679.92137 C 303.8539,694.16838 309.48777,718.98148 308.7408,728.26378 z " style="fill:#039;fill-opacity:1;fill-rule:evenodd;stroke:none;stroke-width:1px;stroke-linecap:butt;stroke-linejoin:miter;stroke-opacity:1" id="path7329"/>
        <path d="M 329.09152,746.87447 C 326.176,746.00647 323.66145,745.7399 320.01313,743.77269 C 317.81919,744.70112 315.62524,745.16061 313.4313,744.68053 C 311.2523,744.21474 310.11287,742.39753 309.95125,739.30915 L 312.67477,733.02993 C 314.84559,732.71478 317.0517,732.18786 319.02964,733.02993 C 320.9213,734.5535 322.97932,735.92259 322.13142,739.99003 C 324.92629,741.45696 327.53058,743.34143 329.9237,745.2101 L 329.09152,746.87447 z " style="fill:#039;fill-opacity:1;fill-rule:evenodd;stroke:none;stroke-width:1px;stroke-linecap:butt;stroke-linejoin:miter;stroke-opacity:1" id="path8216"/>
      </g>
      <g transform="matrix(-2.975243,0,0,2.975243,1642.34,-1551.906)" id="g9112">
        <path d="M 282.86686,702.66316 C 281.36157,701.75146 279.58196,701.25124 278.36739,699.90348 L 278.12741,695.70397 C 274.025,694.66467 271.43494,693.3229 269.7284,691.80443 C 268.52672,690.35882 269.37725,689.28633 269.84838,688.14486 L 272.66805,686.16509 L 275.78769,685.92512 C 278.31051,685.79891 280.53545,686.26844 281.78698,688.68479 C 282.88502,691.62344 282.11386,692.60744 281.12706,695.28402 L 283.46679,700.50341 L 282.98684,702.66315" style="fill:#039;fill-opacity:1;fill-rule:evenodd;stroke:none;stroke-width:1px;stroke-linecap:butt;stroke-linejoin:miter;stroke-opacity:1" id="path9114"/>
        <path d="M 256.91835,689.22672 C 263.69777,701.72769 271.35917,714.18685 282.94305,725.08634 C 291.62584,731.77912 300.9422,736.44445 310.63213,739.91437 L 312.44781,735.8291 C 302.92164,730.67241 293.73919,724.82827 285.21265,717.67232 C 276.25602,706.88473 266.67601,697.81146 256.91835,689.22672 z " style="fill:#039;fill-opacity:1;fill-rule:evenodd;stroke:none;stroke-width:1px;stroke-linecap:butt;stroke-linejoin:miter;stroke-opacity:1" id="path9116"/>
        <path d="M 257.37226,689.75629 C 260.51942,692.24669 262.62384,696.04743 266.24766,697.76561 C 275.95027,702.36596 287.38166,714.25884 289.44923,717.59668 C 290.6393,708.0507 269.79238,691.97728 257.37226,689.75629 z " style="fill:#039;fill-opacity:1;fill-rule:evenodd;stroke:none;stroke-width:1px;stroke-linecap:butt;stroke-linejoin:miter;stroke-opacity:1" id="path9118"/>
        <path d="M 285.89353,675.23086 C 285.01356,678.38887 283.4183,681.23335 283.41099,684.38002 C 283.37879,698.24127 288.3907,717.12158 304.88249,732.19774 L 311.99389,736.28302 L 313.58261,733.48385 C 295.69834,717.02696 288.50297,696.91335 285.89353,675.23086 z " style="fill:#039;fill-opacity:1;fill-rule:evenodd;stroke:none;stroke-width:1px;stroke-linecap:butt;stroke-linejoin:miter;stroke-opacity:1" id="path9120"/>
        <path d="M 308.7408,728.26378 C 300.79762,713.05748 293.87809,697.85118 284.91003,682.64488 L 285.89353,679.92137 C 303.8539,694.16838 309.48777,718.98148 308.7408,728.26378 z " style="fill:#039;fill-opacity:1;fill-rule:evenodd;stroke:none;stroke-width:1px;stroke-linecap:butt;stroke-linejoin:miter;stroke-opacity:1" id="path9122"/>
        <path d="M 329.09152,746.87447 C 326.176,746.00647 323.66145,745.7399 320.01313,743.77269 C 317.81919,744.70112 315.62524,745.16061 313.4313,744.68053 C 311.2523,744.21474 310.11287,742.39753 309.95125,739.30915 L 312.67477,733.02993 C 314.84559,732.71478 317.0517,732.18786 319.02964,733.02993 C 320.9213,734.5535 322.97932,735.92259 322.13142,739.99003 C 324.92629,741.45696 327.53058,743.34143 329.9237,745.2101 L 329.09152,746.87447 z " style="fill:#039;fill-opacity:1;fill-rule:evenodd;stroke:none;stroke-width:1px;stroke-linecap:butt;stroke-linejoin:miter;stroke-opacity:1" id="path9124"/>
      </g>
      <g transform="matrix(2.975243,0,0,2.975243,-616.425,-1551.682)" id="g6355">
        <path d="M 316.66305,724.31004 C 323.70176,735.46682 330.42655,747.77636 340.8264,746.87622 C 332.22835,740.62255 324.70494,731.86139 316.66305,724.31004 z " style="fill:#039;fill-opacity:1;fill-rule:evenodd;stroke:none;stroke-width:1px;stroke-linecap:butt;stroke-linejoin:miter;stroke-opacity:1" id="path1904"/>
        <path d="M 367.2214,756.63045 C 357.19038,748.62819 342.07773,743.80196 329.12949,737.62297 L 317.43258,725.31043 C 324.15988,728.71614 332.74324,734.48942 337.46986,735.49765 C 351.11226,738.40771 361.31485,745.15747 368.5296,752.78278 L 367.2214,756.63045 z " style="fill:#039;fill-opacity:1;fill-rule:evenodd;stroke:none;stroke-width:1px;stroke-linecap:butt;stroke-linejoin:miter;stroke-opacity:1" id="path2793"/>
        <path d="M 293.19228,741.62455 C 300.58324,751.72371 309.8858,758.70854 321.36859,762.2315 C 334.23528,766.17905 350.0292,765.43455 367.91398,760.47812 L 367.47962,758.95835 C 363.52398,759.37785 360.65839,758.70066 356.83238,759.2221 C 334.59831,762.25232 313.14008,754.71188 293.19228,741.62455 z " style="fill:#039;fill-opacity:1;fill-rule:evenodd;stroke:none;stroke-width:1px;stroke-linecap:butt;stroke-linejoin:miter;stroke-opacity:1" id="path3680"/>
        <path d="M 296.96298,744.70268 C 318.32888,747.3096 345.40828,747.53453 367.2214,756.16873 L 367.38013,759.64314 L 362.68115,759.86249 C 343.01513,752.61013 325.81974,751.2987 304.73528,750.9359 L 296.96298,744.70268 z " style="fill:#039;fill-opacity:1;fill-rule:evenodd;stroke:none;stroke-width:1px;stroke-linecap:butt;stroke-linejoin:miter;stroke-opacity:1" id="path4567"/>
        <path d="M 391.56005,776.33524 C 387.97278,767.54368 378.91884,765.18381 371.88972,760.59897 C 370.01635,761.1911 368.30356,760.91315 366.43019,759.79609 L 367.15278,752.57026 C 369.05291,750.55581 370.95303,749.79571 372.85316,749.92078 C 376.09262,750.0178 377.38471,751.8999 378.07182,754.33657 C 377.62734,755.70843 377.62566,757.3755 375.98436,757.94949 C 384.03235,763.10877 394.01033,768.39673 399.18732,773.36461 C 397.03182,774.90007 394.14344,776.08347 391.56005,776.33524 z " style="fill:#039;fill-opacity:1;fill-rule:evenodd;stroke:none;stroke-width:1px;stroke-linecap:butt;stroke-linejoin:miter;stroke-opacity:1" id="path5468"/>
      </g>
      <g transform="matrix(-2.975243,0,0,2.975243,1641.384,-1551.729)" id="g6362">
        <path d="M 316.66305,724.31004 C 323.70176,735.46682 330.42655,747.77636 340.8264,746.87622 C 332.22835,740.62255 324.70494,731.86139 316.66305,724.31004 z " style="fill:#039;fill-opacity:1;fill-rule:evenodd;stroke:none;stroke-width:1px;stroke-linecap:butt;stroke-linejoin:miter;stroke-opacity:1" id="path6364"/>
        <path d="M 367.2214,756.63045 C 357.19038,748.62819 342.07773,743.80196 329.12949,737.62297 L 317.43258,725.31043 C 324.15988,728.71614 332.74324,734.48942 337.46986,735.49765 C 351.11226,738.40771 361.31485,745.15747 368.5296,752.78278 L 367.2214,756.63045 z " style="fill:#039;fill-opacity:1;fill-rule:evenodd;stroke:none;stroke-width:1px;stroke-linecap:butt;stroke-linejoin:miter;stroke-opacity:1" id="path6366"/>
        <path d="M 293.19228,741.62455 C 300.58324,751.72371 309.8858,758.70854 321.36859,762.2315 C 334.23528,766.17905 350.0292,765.43455 367.91398,760.47812 L 367.47962,758.95835 C 363.52398,759.37785 360.65839,758.70066 356.83238,759.2221 C 334.59831,762.25232 313.14008,754.71188 293.19228,741.62455 z " style="fill:#039;fill-opacity:1;fill-rule:evenodd;stroke:none;stroke-width:1px;stroke-linecap:butt;stroke-linejoin:miter;stroke-opacity:1" id="path6368"/>
        <path d="M 296.96298,744.70268 C 318.32888,747.3096 345.40828,747.53453 367.2214,756.16873 L 367.38013,759.64314 L 362.68115,759.86249 C 343.01513,752.61013 325.81974,751.2987 304.73528,750.9359 L 296.96298,744.70268 z " style="fill:#039;fill-opacity:1;fill-rule:evenodd;stroke:none;stroke-width:1px;stroke-linecap:butt;stroke-linejoin:miter;stroke-opacity:1" id="path6370"/>
        <path d="M 391.56005,776.33524 C 387.97278,767.54368 378.91884,765.18381 371.88972,760.59897 C 370.01635,761.1911 368.30356,760.91315 366.43019,759.79609 L 367.15278,752.57026 C 369.05291,750.55581 370.95303,749.79571 372.85316,749.92078 C 376.09262,750.0178 377.38471,751.8999 378.07182,754.33657 C 377.62734,755.70843 377.62566,757.3755 375.98436,757.94949 C 384.03235,763.10877 394.01033,768.39673 399.18732,773.36461 C 397.03182,774.90007 394.14344,776.08347 391.56005,776.33524 z " style="fill:#039;fill-opacity:1;fill-rule:evenodd;stroke:none;stroke-width:1px;stroke-linecap:butt;stroke-linejoin:miter;stroke-opacity:1" id="path6372"/>
      </g>
      <g transform="matrix(2.975243,0,0,2.975243,-616.425,-1551.682)" id="g5473">
        <path d="M 371.94536,553.36036 C 368.68953,554.89181 365.99009,555.87862 363.62564,556.3446 C 355.04117,562.57716 347.39325,565.01493 339.4804,567.4677 C 328.63877,568.56935 318.50792,568.0125 308.37191,567.4677 L 317.05335,562.76525 L 339.4804,562.76525 L 353.22601,557.15849 C 348.9891,557.31646 345.25856,557.64412 341.02208,557.63426 C 337.94906,557.6271 334.43459,557.72038 330.79896,557.70108 L 317.41508,562.40352 L 316.14904,558.60539 L 331.88414,553.1795 L 349.06615,552.18475 L 341.10818,551.37086 C 345.26851,547.4823 358.74079,543.86503 367.60464,539.97647 C 361.93759,538.9811 355.90881,541.55246 350.24176,542.50856 C 353.24417,540.30112 356.1022,538.13116 358.38061,534.27928 C 365.0741,534.39566 374.98298,534.13912 380.72766,537.47468 C 374.33655,542.37601 362.56453,546.78139 357.56673,551.19 C 362.0433,551.58444 370.63264,550.21957 371.94536,553.36036 z " style="fill:#039;fill-opacity:1;fill-rule:evenodd;stroke:none;stroke-width:1px;stroke-linecap:butt;stroke-linejoin:miter;stroke-opacity:1" id="path1915"/>
        <path d="M 363.95846,525.07311 C 351.66447,544.78585 333.35771,552.23618 317.29425,558.46141 L 316.27113,552.95306 C 333.00271,547.75929 348.10178,535.07886 363.95846,525.07311 z " style="fill:#039;fill-opacity:1;fill-rule:evenodd;stroke:none;stroke-width:1px;stroke-linecap:butt;stroke-linejoin:miter;stroke-opacity:1" id="path2804"/>
        <path d="M 363.71608,524.87439 L 348.79486,530.84288 C 326.07964,531.92178 309.97758,542.42616 304.39292,562.0418 L 309.36666,567.55813 L 317.23422,563.85043 L 317.41508,559.05755 L 317.05335,553.26993 L 314.43083,553.1795 C 318.64205,548.42839 322.87655,543.70987 328.26688,540.6095 L 350.42263,534.9123 L 363.71608,524.87439 z " style="fill:#039;fill-opacity:1;fill-rule:evenodd;stroke:none;stroke-width:1px;stroke-linecap:butt;stroke-linejoin:miter;stroke-opacity:1" id="path3691"/>
        <path d="M 304.48335,561.95136 C 302.25451,561.35931 300.05376,560.93583 298.06271,561.7705 C 295.80891,562.50633 295.97578,564.04906 295.80192,565.4782 C 296.57664,567.12727 296.21858,568.92737 298.6053,570.36151 C 295.15988,572.83992 293.65851,576.05892 292.72724,579.4951 C 293.59521,580.11748 294.54236,580.10636 295.53062,579.7664 C 296.89178,577.28867 298.39816,574.89391 300.59479,572.89359 L 304.12163,575.33525 C 307.75646,575.63321 309.27288,572.48874 309.05015,566.51816 L 304.48335,561.95136 z " style="opacity:1;fill:#039;fill-opacity:1;fill-rule:evenodd;stroke:none;stroke-width:1px;stroke-linecap:butt;stroke-linejoin:miter;stroke-opacity:1" id="path4578"/>
      </g>
      <g transform="matrix(-2.975243,0,0,2.975243,1639.762,-1551.733)" id="g5479">
        <path d="M 371.94536,553.36036 C 368.68953,554.89181 365.99009,555.87862 363.62564,556.3446 C 355.04117,562.57716 347.39325,565.01493 339.4804,567.4677 C 328.63877,568.56935 318.50792,568.0125 308.37191,567.4677 L 317.05335,562.76525 L 339.4804,562.76525 L 353.22601,557.15849 C 348.9891,557.31646 345.25856,557.64412 341.02208,557.63426 C 337.94906,557.6271 334.43459,557.72038 330.79896,557.70108 L 317.41508,562.40352 L 316.14904,558.60539 L 331.88414,553.1795 L 349.06615,552.18475 L 341.10818,551.37086 C 345.26851,547.4823 358.74079,543.86503 367.60464,539.97647 C 361.93759,538.9811 355.90881,541.55246 350.24176,542.50856 C 353.24417,540.30112 356.1022,538.13116 358.38061,534.27928 C 365.0741,534.39566 374.42411,534.09254 380.16879,537.4281 C 373.77768,542.32943 362.56453,546.78139 357.56673,551.19 C 362.0433,551.58444 370.63264,550.21957 371.94536,553.36036 z " style="fill:#039;fill-opacity:1;fill-rule:evenodd;stroke:none;stroke-width:1px;stroke-linecap:butt;stroke-linejoin:miter;stroke-opacity:1" id="path5481"/>
        <path d="M 363.95846,525.07311 C 351.66447,544.78585 333.35771,552.23618 317.29425,558.46141 L 316.27113,552.95306 C 333.00271,547.75929 348.10178,535.07886 363.95846,525.07311 z " style="fill:#039;fill-opacity:1;fill-rule:evenodd;stroke:none;stroke-width:1px;stroke-linecap:butt;stroke-linejoin:miter;stroke-opacity:1" id="path5483"/>
        <path d="M 363.71608,524.87439 L 348.79486,530.84288 C 326.07964,531.92178 309.97758,542.42616 304.39292,562.0418 L 309.36666,567.55813 L 317.23422,563.85043 L 317.41508,559.05755 L 317.05335,553.26993 L 314.43083,553.1795 C 318.64205,548.42839 322.87655,543.70987 328.26688,540.6095 L 350.42263,534.9123 L 363.71608,524.87439 z " style="fill:#039;fill-opacity:1;fill-rule:evenodd;stroke:none;stroke-width:1px;stroke-linecap:butt;stroke-linejoin:miter;stroke-opacity:1" id="path5485"/>
        <path d="M 304.48335,561.95136 C 302.25451,561.35931 300.05376,560.93583 298.06271,561.7705 C 295.80891,562.50633 295.97578,564.04906 295.80192,565.4782 C 296.57664,567.12727 296.21858,568.92737 298.6053,570.36151 C 295.15988,572.83992 293.65851,576.05892 292.72724,579.4951 C 293.59521,580.11748 294.54236,580.10636 295.53062,579.7664 C 296.89178,577.28867 298.39816,574.89391 300.59479,572.89359 L 304.12163,575.33525 C 307.75646,575.63321 309.27288,572.48874 309.05015,566.51816 L 304.48335,561.95136 z " style="opacity:1;fill:#039;fill-opacity:1;fill-rule:evenodd;stroke:none;stroke-width:1px;stroke-linecap:butt;stroke-linejoin:miter;stroke-opacity:1" id="path5487"/>
      </g>
      <path d="M 399.40002 672.45795 A 100.64037 100.64037 0 1 1  198.11927,672.45795 A 100.64037 100.64037 0 1 1  399.40002 672.45795 z" transform="matrix(2.605066,0,0,2.605063,-264.263,-1368.133)" style="fill:white;fill-opacity:1;fill-rule:nonzero;stroke:black;stroke-width:2.85524869;stroke-linecap:round;stroke-linejoin:round;stroke-miterlimit:4;stroke-dasharray:none;stroke-opacity:1" id="path1926"/>
      <path d="M 508.94808,456.04911 C 524.37903,458.44117 546.87323,460.56124 564.2995,447.61584 C 581.70054,434.68918 601.83225,432.5809 621.02388,430.56127 C 618.94659,393.10716 614.72978,354.93991 605.64833,315.15109 C 591.82008,303.99482 561.64779,298.22324 549.23879,301.21297 C 531.50372,305.48589 509.73226,305.73953 490.30922,301.13945 L 492.45107,284.00372 C 510.63826,290.83913 531.33934,295.78318 552.17396,292.58982 C 580.03883,288.31895 606.73902,294.1839 627.14229,317.33385 C 630.34665,320.96959 638.90015,316.19031 642.86362,319.70726 C 667.40595,309.54148 683.0673,297.74988 701.69256,303.93056 C 716.87326,308.96821 730.73108,323.30739 754.85974,324.04162 C 770.744,353.09186 746.98876,377.55509 697.52038,392.9993 C 680.30286,415.04059 670.68181,435.44864 643.02657,444.81554 L 597.58622,446.1084 C 577.33231,448.85366 562.00214,459.47686 545.39742,468.06082 C 530.6725,472.184 516.6963,469.56882 502.73512,466.81824 L 508.94808,456.04911 z " style="fill:#039;fill-opacity:1;fill-rule:evenodd;stroke:#039;stroke-width:2.97524309px;stroke-linecap:butt;stroke-linejoin:miter;stroke-opacity:1" id="path10787"/>
      <path d="M 344.66798,534.56446 C 337.94069,535.25609 318.36594,560.48781 322.49743,521.81638 C 363.53641,487.86606 384.97667,425.39652 366.14564,322.15088 C 362.69489,303.23137 339.6802,291.58705 327.48581,276.83192 C 400.04124,221.54504 453.81269,235.59422 490.99356,283.48308 L 507.62145,467.49856 C 421.68191,457.00949 378.87498,484.38856 344.66798,534.56446 z " style="fill:black;fill-opacity:1;fill-rule:evenodd;stroke:black;stroke-width:2.97524309px;stroke-linecap:butt;stroke-linejoin:miter;stroke-opacity:1" id="path9015"/>
      <path d="M 346.13912,586.21706 L 316.54313,257.55556 L 331.24604,257.78516 L 363.38375,597.97477 L 346.13912,586.21706 z " style="fill:white;fill-opacity:1;fill-rule:evenodd;stroke:black;stroke-width:5.95048618;stroke-linecap:butt;stroke-linejoin:miter;stroke-miterlimit:4;stroke-dasharray:none;stroke-opacity:1" id="path7241"/>
      <path d="M 322.2849 604.4234 A 5.3093181 3.6326911 0 1 1  311.66627,604.4234 A 5.3093181 3.6326911 0 1 1  322.2849 604.4234 z" transform="matrix(2.975243,0,0,2.975243,-619.7506,-1551.128)" style="opacity:0.5;fill:none;fill-opacity:1;fill-rule:nonzero;stroke:black;stroke-width:2;stroke-linecap:round;stroke-linejoin:round;stroke-miterlimit:4;stroke-dasharray:none;stroke-opacity:1" id="path8128"/>
      <path d="M 514.9761,428.91284 C 520.39619,392.59553 523.08123,356.27823 531.96322,319.96093 L 577.35984,319.37516 C 590.20119,353.3494 598.0245,387.32367 607.23374,421.29791 C 608.32676,425.66994 582.44286,426.10718 582.04596,423.34809 C 581.87914,422.18849 576.48122,398.16028 576.48122,398.16028 C 565.06051,396.9343 555.35574,396.05256 545.43578,399.33181 C 545.43578,399.33181 539.16307,427.20927 537.52797,428.91284 C 534.82433,431.72968 514.26371,431.84949 514.9761,428.91284 z " style="fill:black;fill-opacity:1;fill-rule:evenodd;stroke:black;stroke-width:2.97524309px;stroke-linecap:butt;stroke-linejoin:miter;stroke-opacity:1" id="path11674"/>
      <path d="M 545.43578,372.09382 C 546.09173,362.72163 546.44867,353.3494 550.12187,343.97721 C 553.8317,342.41521 557.54153,342.41515 561.25136,343.97721 C 565.64139,352.9589 566.88011,361.94059 567.40188,370.92229 C 560.07983,370.55244 552.75782,370.90188 545.43578,372.09382 z " style="fill:white;fill-opacity:1;fill-rule:evenodd;stroke:black;stroke-width:2.97524309px;stroke-linecap:butt;stroke-linejoin:miter;stroke-opacity:1" id="path11676"/>
    </g>
  </g>
</svg>