<svg xmlns="http://www.w3.org/2000/svg" xmlns:xlink="http://www.w3.org/1999/xlink" version="1.0" id="Ebene_1" x="0px" y="0px" width="273.719px" height="501.794px" viewBox="0 0 273.719 501.794" enable-background="new 0 0 273.719 501.794" xml:space="preserve">
<path fill-rule="evenodd" clip-rule="evenodd" d="M148.377,0.637c0.476,0.16,0.157,0.638,0,0.956  c-3.336,3.661-5.084,8.277-7.466,12.574l0.16,0.795c5.876-0.795,11.437-3.501,16.838-6.366c0.636,0.955,0.16,2.387-0.319,3.343  c-0.157,7.639-1.587,16.553,1.59,23.875v1.273c-4.291-1.591-8.421-4.138-12.868-5.251l-3.97-1.115  c4.446,3.024,8.417,7.799,7.625,13.848c0.316,4.775-3.655,7.163-6.039,10.505c0.479,0,0.955,0.318,1.113,0  c4.131,0.318,9.056-0.478,13.184-0.955c12.551-2.387,25.577-10.666,38.604-3.662c3.654,0.637,6.035,3.662,8.896,5.731l-0.16,0.159  c2.544,1.751,3.654,4.935,4.925,7.482c6.991-1.433,15.093-1.433,21.924-1.274c7.944,0.796,15.251,3.342,21.446,8.595  c0.159,1.751,1.906,2.229,2.86,3.82c2.382,4.775,5.081,9.868,3.971,16.076c-0.636,6.686-3.177,12.894-6.355,18.305  c-7.782,11.302-20.649,17.032-30.975,24.831l-10.17,7.959c-3.017,4.935-9.056,8.436-7.308,14.325c2.226,4.298,0,8.913-1.905,12.257  c-2.065,2.386-4.926,3.182-7.149,5.251c0,0.637,0.478,1.593,0.795,2.388h76.094l-0.316,113.169  c-5.403,86.751-55.285,168.247-134.398,211.858c-1.907,1.11-3.973-0.319-5.719-1.116C64.498,461.119,14.933,389.329,3.335,313.087  c-1.429-9.073-2.54-18.46-3.335-27.696V176.679l76.412-0.318c0.636-0.477,0.953-1.272,0.477-1.909  c-5.561-3.662-9.69-9.073-10.009-15.759l2.225-4.138c-2.225-11.301-14.298-15.599-22.242-22.125  c-10.166-6.208-22.716-12.894-28.436-24.194c-4.29-8.595-8.259-19.578-3.812-29.288c3.336-8.275,11.12-13.052,19.221-15.279  c9.849-2.069,20.335-0.637,30.026,0.796h0.476c1.907-7.64,9.373-14.326,17.158-15.917c6.672-0.318,13.82-1.751,20.016-0.16  c9.691,2.069,18.588,7.004,28.914,6.686c-3.973-1.115-6.355-5.093-7.308-8.595c-1.429-6.048,1.907-11.621,6.036-14.643l2.702-1.274  c-2.225-0.795-4.449,0.636-6.673,1.274c-3.018,1.591-6.353,2.706-9.214,4.775l-0.952-0.16c1.588-5.89,1.111-12.894,0.952-18.941  c0-3.183-0.952-5.57-1.43-8.276c0.955-0.479,1.749,0,2.701,0.477c3.495,2.388,7.943,3.024,11.915,4.935l2.384,0.158  c-2.384-4.933-4.767-9.55-7.626-14.166L124.071,0C131.856,1.114,140.592,0.478,148.377,0.637L148.377,0.637z"/>
<path fill-rule="evenodd" clip-rule="evenodd" fill="#FFDD00" stroke="#FFDD00" stroke-width="0.3297" stroke-miterlimit="2.6131" d="  M142.182,4.457c-2.065,3.025-3.97,6.844-5.084,9.71l0.16,0.636c-0.794,0.637-1.112-0.477-1.906-0.477  c-1.749-3.025-2.859-6.844-5.243-9.711V3.98C133.285,4.139,138.687,4.139,142.182,4.457L142.182,4.457z"/>
<path fill-rule="evenodd" clip-rule="evenodd" fill="#FFDD00" stroke="#FFDD00" stroke-width="0.3297" stroke-miterlimit="2.6131" d="  M126.931,17.19c4.13,1.592,9.214,1.114,13.502,1.592c1.748-0.956,4.449-0.16,6.195-1.114c2.224-0.478,5.085-0.16,6.831-1.591  c-0.635,4.457-0.635,10.027,0.478,14.643c-1.589,0-3.019-1.114-4.29-1.591c-6.355-1.751-12.71-3.662-19.541-1.911  c-3.812,0-7.308,1.273-10.167,3.502c0.16-5.093,0.318-10.346-0.318-15.917C121.848,16.394,124.547,16.077,126.931,17.19  L126.931,17.19z"/>
<path fill-rule="evenodd" clip-rule="evenodd" fill="#FFDD00" stroke="#FFDD00" stroke-width="0.3297" stroke-miterlimit="2.6131" d="  M145.199,39.156c1.749,2.865,0.795,7.004-0.635,9.709c-2.541,2.706-5.559,5.093-9.212,3.979c-4.29-0.477-6.831-4.297-8.261-7.799  c-1.272-2.547-0.159-5.729,1.589-7.64c2.859-3.342,7.308-4.297,11.279-2.864C142.342,34.857,143.772,37.405,145.199,39.156  L145.199,39.156z"/>
<path fill-rule="evenodd" clip-rule="evenodd" fill="#FFDD00" stroke="#FFDD00" stroke-width="0.3297" stroke-miterlimit="2.6131" d="  M131.378,59.848l-3.178,7.799c-5.401-0.636-9.371-6.048-15.409-5.251c-8.419-3.344-17.632-0.478-23.987,5.411  c-10.645,12.256-1.749,28.173,3.336,40.271c2.858,8.437,10.166,14.324,13.026,22.762c1.271,4.139,2.382,8.595,3.653,12.892  l-3.973,0.637c-1.906-10.187-6.195-17.668-12.074-26.264c-8.894-13.369-23.668-23.078-24.94-39.632  c-1.749-7.799,0.635-15.439,5.877-21.487c9.532-7.004,23.035-4.14,34.314-1.751C115.652,56.984,122.959,60.326,131.378,59.848  L131.378,59.848z"/>
<path fill-rule="evenodd" clip-rule="evenodd" fill="#FFDD00" stroke="#FFDD00" stroke-width="0.3297" stroke-miterlimit="2.6131" d="  M191.429,53.322c3.971,1.273,8.261,2.387,11.437,5.729c2.701,3.662,4.45,7.959,3.975,12.575c-0.479,5.253-2.384,9.55-3.495,14.803  c-5.72,17.667-23.036,29.128-33.52,44.728c-1.59,3.82-3.656,8.117-2.544,12.573l-3.495-0.318  c-1.906-11.46,6.831-19.577,11.916-28.649c4.607-6.686,7.466-12.417,10.802-19.737c0.478-2.229,1.589-4.617,2.225-7.323  c1.271-5.093,1.271-11.301-0.477-16.712c-5.72-10.028-18.111-9.71-28.278-8.437l-0.318-0.158  c-5.083,0.795-10.007,2.546-14.614,5.251l-5.083-8.436c15.41,2.228,28.277-4.616,42.415-6.367  C185.393,52.527,188.252,53.322,191.429,53.322L191.429,53.322z"/>
<path fill-rule="evenodd" clip-rule="evenodd" fill="#FFDD00" stroke="#FFDD00" stroke-width="0.3297" stroke-miterlimit="2.6131" d="  M138.687,63.828c3.017,7.163,7.307,13.528,7.942,21.487c-0.317,3.342,1.113,6.208,0.318,9.231c0.476,5.411-1.271,10.188-1.749,15.6  c-1.111,5.89-0.792,11.938-3.176,17.349c-1.431,4.935-2.542,9.71-4.766,14.166c-0.318,0.318-1.271,0.318-1.906,0.318  c-4.925-17.986-10.168-35.812-7.944-55.55c0.159-6.686,2.384-12.575,5.242-18.145c1.112-2.389,2.86-4.457,4.29-6.686  C137.574,62.554,137.732,63.19,138.687,63.828L138.687,63.828z"/>
<path fill-rule="evenodd" clip-rule="evenodd" fill="#FFFFFF" d="M110.25,66.374c-3.178,0.796-6.672,1.911-10.167,1.433  c-1.111,0.478-2.861,0.955-3.972,0.318C100.083,64.941,105.167,64.941,110.25,66.374L110.25,66.374z"/>
<path fill-rule="evenodd" clip-rule="evenodd" fill="#FFFFFF" d="M181.422,69.558c-6.356,0.955-13.027-0.318-18.587-3.024  c3.335-0.955,7.782,0.159,11.596,0C176.972,66.692,179.196,68.125,181.422,69.558L181.422,69.558z"/>
<path fill-rule="evenodd" clip-rule="evenodd" fill="#FFDD00" stroke="#FFDD00" stroke-width="0.3297" stroke-miterlimit="2.6131" d="  M255.291,81.337c0.319,2.387,1.906,5.093,1.111,7.799c-0.156,9.072-3.972,16.235-10.167,22.92  c-6.831,7.48-16.043,12.575-24.464,18.146c-5.72,5.093-12.71,8.118-16.998,14.644l-3.494,6.526c-1.906-0.637-4.13-0.796-5.88-1.751  c4.609-6.366,8.58-13.53,14.141-19.26c4.29-6.844,11.913-12.097,14.454-19.578c3.498-5.411,6.675-12.415,3.974-18.623  c-2.226-4.616-6.515-8.435-11.28-9.709c-2.382-0.477-5.241-0.477-7.467,0.478c1.749-4.616,2.701-9.709,2.226-15.121  c10.166-1.433,22.082-1.911,31.613,1.433C248.779,70.991,252.91,76.402,255.291,81.337L255.291,81.337z"/>
<path fill-rule="evenodd" clip-rule="evenodd" fill="#FFDD00" stroke="#FFDD00" stroke-width="0.3297" stroke-miterlimit="2.6131" d="  M57.667,68.921c2.223,0,3.495,0,5.56,0.318c-0.477,5.252-0.317,10.983,1.271,15.917c-0.952-0.318-1.907,0-2.382-0.955  c-6.514-0.636-12.232,1.593-15.728,6.686c-5.242,6.525-1.588,15.439,2.065,21.647c7.942,13.052,19.857,22.76,29.071,35.335  c0.16,0.477,1.112,1.114,1.271,2.069c-1.747,0.796-3.653,0.796-5.4,1.433c-3.973-10.346-14.616-15.281-22.718-21.329  c-10.166-6.684-21.445-13.052-27.801-23.716c-5.4-7.799-7.783-19.896-2.223-28.491c0.317-2.229,2.858-3.502,4.606-4.935  c5.72-3.979,13.186-4.457,20.334-5.253C49.564,68.125,53.854,67.647,57.667,68.921L57.667,68.921z"/>
<path fill-rule="evenodd" clip-rule="evenodd" fill="#FFDD00" stroke="#FFDD00" stroke-width="0.3297" stroke-miterlimit="2.6131" d="  M126.137,71.786v0.956c-4.925,2.387-9.056,4.775-14.617,5.57c-3.813,0.636-7.783,1.751-11.913,1.433  c-3.178,0-6.674,0.318-9.533-0.637c-0.476,0-0.794,0.479-1.111,0c-0.159-1.911,1.111-4.138,1.748-6.366  c8.578,1.113,18.745,0,26.053-4.935C120.259,68.285,122.483,71.627,126.137,71.786L126.137,71.786z"/>
<path fill-rule="evenodd" clip-rule="evenodd" fill="#FFDD00" stroke="#FFDD00" stroke-width="0.3297" stroke-miterlimit="2.6131" d="  M166.805,72.423c5.561,1.591,11.757,2.546,17.953,1.431c-0.16,2.229,0.951,3.98,0.635,5.89c-4.131,1.115-8.736-0.158-13.662,0  c-8.102-2.228-16.363-3.342-23.831-7.321c-0.158,0.318-0.633,0-0.633-0.16c0-0.478,0.633-0.478,0.792-0.637  c1.909-2.388,4.45-2.229,6.675-3.502C158.226,70.991,162.675,71.149,166.805,72.423L166.805,72.423z"/>
<path fill-rule="evenodd" clip-rule="evenodd" fill="#FFFFFF" d="M185.393,85.156c-1.59,4.617-3.02,8.595-5.084,13.052l-0.636,0.159  c-9.056-1.751-18.588-3.342-27.801-4.139c-1.113-5.093-1.113-11.301-2.7-16.235C160.293,82.61,172.842,84.837,185.393,85.156  L185.393,85.156z"/>
<path fill-rule="evenodd" clip-rule="evenodd" fill="#FFFFFF" d="M124.071,79.107c-1.588,5.093-1.111,9.232-1.747,14.803  c-9.69,1.751-20.493,1.751-29.866,4.617c-1.747-4.299-3.019-9.073-3.653-13.849c1.111-0.318,2.382,0.477,3.494,0.477  C103.737,85.793,114.38,83.088,124.071,79.107L124.071,79.107z"/>
<path fill-rule="evenodd" clip-rule="evenodd" fill="#FFFFFF" d="M223.362,93.433c3.016,4.298,0,9.71-2.386,13.53  c-1.11,1.591-0.951,3.342-2.541,4.616l-2.384-1.433c-5.718-2.069-11.596-4.299-17.156-6.686c4.13-4.615,5.72-10.187,8.579-15.758  c4.13,0,9.69-1.114,13.187,2.229L223.362,93.433L223.362,93.433z"/>
<path fill-rule="evenodd" clip-rule="evenodd" fill="#FFFFFF" d="M65.452,89.454c2.382,4.935,5.241,9.709,9.372,14.007  c-7.308,2.707-14.297,5.57-21.287,8.595c-2.86-5.093-7.309-10.664-4.448-17.19C52.424,89.454,59.254,86.907,65.452,89.454  L65.452,89.454z"/>
<path fill-rule="evenodd" clip-rule="evenodd" fill="#E2001A" stroke="#E2001A" stroke-width="0.3297" stroke-miterlimit="2.6131" d="  M122.165,98.527c0,8.753,2.066,16.554,3.178,24.989c1.429,6.207,3.653,12.415,5.083,18.463c-5.878,0-12.231,0.797-18.11,1.274  c-0.317-10.666-4.766-19.896-11.121-28.333c-3.177-3.502-4.765-7.958-6.672-12.097C103.261,100.278,112.634,99.163,122.165,98.527  L122.165,98.527z"/>
<path fill-rule="evenodd" clip-rule="evenodd" fill="#E2001A" stroke="#E2001A" stroke-width="0.3297" stroke-miterlimit="2.6131" d="  M178.402,102.824c-4.447,9.231-13.027,17.031-16.998,26.422c-1.589,4.298-2.224,9.392-1.749,13.53  c-5.718-0.637-11.914-0.637-17.633-0.797c4.765-10.822,6.036-22.92,8.261-34.539c0.476-2.865,0.635-6.367,1.43-8.913  C161.085,99.163,169.825,100.278,178.402,102.824L178.402,102.824z"/>
<path fill-rule="evenodd" clip-rule="evenodd" fill="#E2001A" stroke="#E2001A" stroke-width="0.3297" stroke-miterlimit="2.6131" d="  M81.496,111.419c6.354,6.368,12.868,14.167,15.41,22.762c2.066,3.343,3.494,6.845,3.812,10.823  c-5.719,1.114-11.755,2.229-17.315,3.82c-1.271-5.57-6.355-9.55-10.008-13.847c-6.196-6.368-11.756-12.256-17.475-19.102  c6.991-3.66,14.297-6.686,22.082-8.436L81.496,111.419L81.496,111.419z"/>
<path fill-rule="evenodd" clip-rule="evenodd" fill="#E2001A" stroke="#E2001A" stroke-width="0.3297" stroke-miterlimit="2.6131" d="  M215.893,114.921c-1.587,3.502-4.606,6.208-6.831,9.232c-7.147,7.64-12.39,16.235-18.108,24.353l-18.271-3.979  c-2.065-2.866-0.951-5.89-0.476-9.073c1.905-5.094,6.514-8.596,9.85-13.053c4.447-5.093,9.372-9.709,13.502-14.961  C202.55,109.19,209.221,111.896,215.893,114.921L215.893,114.921z"/>
<path fill-rule="evenodd" clip-rule="evenodd" fill="#FFDD00" stroke="#FFDD00" stroke-width="0.3297" stroke-miterlimit="2.6131" d="  M201.119,156.782c2.226,2.069,1.746,5.253,0.795,7.959c-1.271,1.911-3.336,3.66-5.242,4.616l-1.589-1.114  c-36.222-11.143-80.703-11.778-116.604,0.637c-3.02-1.593-5.563-4.457-6.515-7.799c-0.795-2.389,2.066-2.389,2.542-4.299  c4.606-2.228,9.374-3.66,14.298-4.774c21.604-5.411,42.574-7.004,65.928-5.252C170.46,148.346,186.504,151.211,201.119,156.782  L201.119,156.782z"/>
<path fill-rule="evenodd" clip-rule="evenodd" fill="#E2001A" stroke="#E2001A" stroke-width="0.3297" stroke-miterlimit="2.6131" d="  M192.064,173.337c-0.317,1.114,0,2.229,0.794,3.023H80.861c0-0.795,0.793-1.433,0.158-2.388  C116.127,161.876,156.479,161.876,192.064,173.337L192.064,173.337z"/>
<path fill-rule="evenodd" clip-rule="evenodd" fill="#FFDD00" stroke="#FFDD00" stroke-width="0.3297" stroke-miterlimit="2.6131" d="  M269.272,278.55c-2.225,74.969-33.839,141.98-92.46,191.16l-0.156-0.157l-0.319,0.797c-12.551,10.184-25.102,18.78-38.763,26.423  C76.889,464.938,30.818,404.61,13.503,340.145c-5.561-20.692-8.579-42.814-9.055-64.78L4.29,183.683v-2.706h265.139L269.272,278.55  L269.272,278.55z"/>
<polygon fill-rule="evenodd" clip-rule="evenodd" points="14.138,193.393 259.262,193.393 259.262,257.38 14.138,257.38   14.138,193.393 "/>
<polygon fill-rule="evenodd" clip-rule="evenodd" fill="#FFFFFF" points="254.973,252.603 18.904,252.603 18.904,197.849   156.319,197.689 254.973,197.849 254.973,252.603 "/>
<path fill-rule="evenodd" clip-rule="evenodd" d="M259.581,267.407c0.636,88.657-44.164,172.223-122.484,218.223  c-77.523-46-124.071-129.728-122.959-218.223H259.581L259.581,267.407z"/>
<path fill-rule="evenodd" clip-rule="evenodd" fill="#FFFFFF" d="M254.973,272.342c0.159,84.199-44.003,163.784-117.398,207.877  c-7.308-3.981-13.979-8.916-20.97-13.374c-61.797-46.157-97.065-117.146-97.7-194.503H254.973L254.973,272.342z"/>
<path fill-rule="evenodd" clip-rule="evenodd" fill="#E2001A" d="M145.199,206.284c2.068,2.548,3.814,5.731,3.335,9.073h-8.101  c-0.317-2.069-1.429-4.297-3.495-5.412c-3.653-1.91-9.054-1.751-12.232,0.956c-1.27,1.114-1.747,2.865-1.27,4.456  c4.448,5.412,12.073,4.139,17.791,6.845c4.291,1.272,8.421,5.253,8.74,9.709c0.635,5.254-1.59,10.823-6.674,13.371  c-7.784,3.66-17.632,3.819-24.782-1.273c-3.495-2.388-5.084-6.367-5.4-10.664l8.259-0.32c0.795,2.229,1.59,5.412,4.448,6.527  c4.29,1.75,10.009,1.75,13.504-1.433c0.794-1.114,1.749-2.229,1.27-3.82c-0.158-3.979-4.765-4.616-7.624-5.571  c-7.15-1.909-17-2.547-18.43-11.619c-0.635-4.297,0.635-8.276,3.656-11.143C125.342,199.76,138.687,199.76,145.199,206.284  L145.199,206.284z"/>
<path fill-rule="evenodd" clip-rule="evenodd" fill="#E2001A" d="M189.204,203.101c3.019,11.143,6.515,22.125,9.215,33.426  c0.954-1.591,0.635-3.818,1.271-5.251l7.785-28.175h12.867v43.296h-7.942c0-10.824,0-22.125,0-32.153  c-3.338,10.505-6.515,21.329-9.534,32.153h-8.577c-3.179-10.824-6.512-21.329-9.374-32.153l-0.316,0.16l0.16,31.993h-7.945v-43.296  H189.204L189.204,203.101z"/>
<path fill-rule="evenodd" clip-rule="evenodd" fill="#E2001A" d="M78.479,203.42c4.924,14.485,10.006,29.128,14.932,43.931h-8.896  c-1.112-3.184-1.907-6.367-3.178-9.231H65.769l-0.635,0.637l-2.383,8.436c-2.701,0.318-6.036,0-8.896,0.159  c4.448-14.803,10.167-29.445,14.774-43.931H78.479L78.479,203.42z"/>
<path fill-rule="evenodd" clip-rule="evenodd" fill="#FFFFFF" d="M79.112,230.797c-3.653,0.16-7.624,0.16-11.278,0.16l5.72-19.261  L79.112,230.797L79.112,230.797z"/>
<path fill-rule="evenodd" clip-rule="evenodd" fill="#E2001A" d="M80.384,436.126c-2.7-1.116-3.812-3.5-5.719-5.569  c-11.12-12.577-20.493-25.784-28.437-39.954V270.11h34.156V436.126L80.384,436.126z"/>
<path fill-rule="evenodd" clip-rule="evenodd" fill="#E2001A" d="M153.938,471.303c-5.561,3.981-11.121,7.957-17,10.823  l-17.316-10.661V270.11h34.316V471.303L153.938,471.303z"/>
<path fill-rule="evenodd" clip-rule="evenodd" fill="#E2001A" d="M226.856,388.376c-7.626,15.438-18.431,30.085-30.026,43.773  c-1.271,1.273-2.382,2.86-3.972,3.499V270.11h33.998V388.376L226.856,388.376z"/>
<path fill-rule="evenodd" clip-rule="evenodd" d="M254.973,272.342c0.159,84.199-44.003,163.784-117.398,207.877  c-7.308-3.981-13.979-8.916-20.97-13.374c-61.797-46.157-97.065-117.146-97.7-194.503H254.973L254.973,272.342z M259.581,267.407  c0.636,88.657-44.164,172.223-122.484,218.223c-77.523-46-124.071-129.728-122.959-218.223H259.581L259.581,267.407z"/>
</svg>