<svg xmlns="http://www.w3.org/2000/svg" xmlns:xlink="http://www.w3.org/1999/xlink" width="261.81" height="300" viewBox="0 0 261.811 300">
<title>Club Atlético Nacional Potosí</title>
<defs><rect id="X1" x="0.002" height="300" width="261.81"/></defs>
<clipPath id="X3"><use xlink:href="#X1"/></clipPath>
<path clip-path="url(#X3)" fill="#CCC" d="M49.55,5.958s29.771,26.799,84.119-5.958c-0.746,0.747,21.585,29.681,79.65,8.14,0-1.438,48.487,48.076,48.487,48.076s-46.252,30.882-23.736,89.692c3.539,13.957,23.572,49.54,1.304,88.583-17.928,27.917-25.099,29.402-85.018,51.18,0,0-14.736,6.14-20.688,14.33-0.746-0.747-23.078-13.399-27.544-14.888-4.466-1.493-59.833-16.473-78.906-42.432-14.818-20.167-15.821-65.472,3.16-110.28,2.963-9.786,8.698-29.244-8.427-55.299,0.005-0.747-21.947-19.813-21.947-19.813l49.55-51.33z"/>
<path clip-path="url(#X3)" fill="#FFF" d="M52.53,11.602s28.553,25.699,80.666-5.712c-0.713,0.713,20.704,28.46,76.383,7.805,0-1.38,43.547,42.163,43.547,42.163s-41.403,33.553-19.811,89.95c3.393,13.382,22.604,47.51,1.25,84.947-17.194,26.769-24.067,28.198-81.529,49.078,0,0-14.128,5.893-19.84,13.743-0.713-0.717-22.13-12.85-26.412-14.279-4.282-1.426-57.377-15.794-75.668-40.688-14.21-19.341-15.171-62.783,3.032-105.76,2.841-9.385,10.532-30.59-5.886-55.576,0-0.713-19.991-21.417-19.991-21.417l44.253-44.255z"/>
<path clip-path="url(#X3)" stroke="#000" stroke-width="0.4987" fill="none" d="M52.53,11.602s28.553,25.699,80.666-5.712c-0.713,0.713,20.704,28.46,76.383,7.805,0-1.38,43.547,42.163,43.547,42.163s-41.403,33.553-19.811,89.95c3.393,13.382,22.604,47.51,1.25,84.947-17.194,26.769-24.067,28.198-81.529,49.078,0,0-14.128,5.893-19.84,13.743-0.713-0.717-22.13-12.85-26.412-14.279-4.282-1.426-57.377-15.794-75.668-40.688-14.21-19.341-15.171-62.783,3.032-105.76,2.841-9.385,10.532-30.59-5.886-55.576,0-0.713-19.991-21.417-19.991-21.417l44.253-44.255z"/>
<path clip-path="url(#X3)" fill="#f20706" d="M24.774,222.42,183.73,19.884s13.357-0.082,24.692-6.133c2.06-0.743,37.915,33.761,37.915,33.761l-172.59,218.97s-48.5-18.493-48.976-44.055"/>
<path clip-path="url(#X3)" stroke="#000" stroke-width="0.2493" fill="none" d="M24.674,222.42,183.73,19.884s13.357-0.082,24.692-6.133c2.06-0.743,37.249,34.592,37.249,34.592l-171.92,218.54s-47.869-18.162-49.076-44.455z"/>
<path clip-path="url(#X3)" fill="#FFF" d="M216.4,144.95c0,44.215-36.191,80.059-80.842,80.059s-80.845-35.844-80.845-80.059c0-44.216,36.194-80.057,80.845-80.057,44.65,0,80.84,35.837,80.84,80.057"/>
<ellipse clip-path="url(#X3)" stroke="#000" stroke-width="0.4987" fill="none" rx="80.844" cy="144.95" ry="80.059" cx="135.55"/>
<path clip-path="url(#X3)" d="M118.9,74.813v13.921s-49.969,13.923-44.971,60.678c4.999,46.757,44.971,52.826,44.971,52.826v12.85s-52.823-12.137-55.679-65.675c-2.851-53.548,55.679-74.607,55.679-74.607"/>
<path clip-path="url(#X3)" stroke="#000" stroke-width="0.4987" fill="none" d="M118.9,74.813v13.921s-49.969,13.923-44.971,60.678c4.999,46.757,44.971,52.826,44.971,52.826v12.85s-52.823-12.137-55.679-65.675c-2.851-53.548,55.679-74.607,55.679-74.607z"/>
<path clip-path="url(#X3)" d="M118.9,95.874v97.439h-11.151v-43.63l-13.921-0.268s0,19.276,9.371,21.952c0,0.269-4.018,11.78-4.018,11.78s-22.218-20.885-17.668-44.438c4.555-23.55,26.056-41.22,37.386-42.826"/>
<path clip-path="url(#X3)" stroke="#000" stroke-width="0.4987" fill="none" d="M118.9,95.874v97.439h-11.151v-43.63l-13.921-0.268s0,19.276,9.371,21.952c0,0.269-4.018,11.78-4.018,11.78s-22.218-20.885-17.668-44.438c4.555-23.55,26.056-41.22,37.386-42.826z"/>
<path clip-path="url(#X3)" fill="#FFF" d="M107.75,115.68v23.023h-13.919c0,0.01-0.535-16.86,13.919-23.02"/>
<path clip-path="url(#X3)" d="M170.93,84.362v118.86l11.508-8.031v-12.581s21.148-10.706,20.079-43.901c-1.07-33.2-31.59-54.348-31.59-54.348"/>
<path clip-path="url(#X3)" fill="#FFF" d="M182.7,115.68v52.469s9.906-5.624,9.906-26.234c0-20.62-9.91-26.24-9.91-26.24"/>
<path clip-path="url(#X3)" d="M127.03,74.813v140.27h11.512v-64.336h2.81s7.633,63.086,7.9,63.086l13.11-5.84v-124.71l-9.906-6.156,1.338,89.68h-4.013l-9.935-92.001h-12.814z"/>
<path clip-path="url(#X3)" stroke="#000" stroke-width="0.4987" fill="none" d="M127.03,74.813v140.27h11.512v-64.336h2.81s7.633,63.086,7.9,63.086l13.11-5.84v-124.71l-9.906-6.156,1.338,89.68h-4.013l-9.935-92.001h-12.814z"/>
</svg>