<svg xmlns="http://www.w3.org/2000/svg" id="Layer_1" data-name="Layer 1" width="1120.5938" height="132" viewBox="0 0 1120.5938 132">
  <title>Atlanta United wordmark black</title>
  <g>
    <path d="M12.4063,120l25.498-97.1611L34.459,12H69.9272L98.5444,120H74.9194l-3.7266-16.1016H39.5522L35.7139,120ZM44.9521,81.2578H65.7964L55.46,37.1772Z" style="fill: #231f20"/>
    <path d="M98.8906,12h83.7422l-6.8906,22.6406H152.2578V120H129.125V34.6406H105.9219Z" style="fill: #231f20"/>
    <path d="M185.5859,12h26.3672V97.3594h43.5234L248.375,120H188.82V22.8281Z" style="fill: #231f20"/>
    <path d="M257.5859,120l25.498-97.1611L279.6387,12h41.5151L317.99,22.8281,343.7241,120h-23.625l-3.7266-16.1016H284.7319L280.8936,120Zm32.5459-38.7422h20.8442L300.64,37.1772Z" style="fill: #231f20"/>
    <path d="M349.9063,12h23.9063l34.1719,60.4688V12H429.43V120H408.6875L374.5859,57.6328V120H353.1406V22.8281Z" style="fill: #231f20"/>
    <path d="M435.6172,12h83.7422l-6.8906,22.6406H488.9844V120H465.8516V34.6406H442.6484Z" style="fill: #231f20"/>
    <path d="M519.6406,120l25.498-97.1611L541.6934,12h41.5151l-3.1641,10.8281L605.7788,120h-23.625l-3.7266-16.1016H546.7866L542.9482,120Zm32.5459-38.7422h20.8442L562.6948,37.1772Z" style="fill: #231f20"/>
    <path d="M647.2578,12H673.625V93.07a4.7385,4.7385,0,0,0,1.5469,3.6211,5.5439,5.5439,0,0,0,3.9375,1.4414h18a5.5773,5.5773,0,0,0,3.832-1.4766,4.6379,4.6379,0,0,0,1.6523-3.5859V12h23.1328V93.07a27.6072,27.6072,0,0,1-27.6328,27.6328H678.125A27.6672,27.6672,0,0,1,650.4219,93.07V22.8281Z" style="fill: #231f20"/>
    <path d="M737.0469,12h23.9063L795.125,72.4688V12H816.57V120H795.8281L761.7266,57.6328V120H740.2813V22.8281Z" style="fill: #231f20"/>
    <path d="M830.07,12h26.3672V120H833.2344V22.8281Z" style="fill: #231f20"/>
    <path d="M864.0313,12h83.7422l-6.8906,22.6406H917.3984V120H894.2656V34.6406H871.0625Z" style="fill: #231f20"/>
    <path d="M950.7266,12h65.6719L1023.5,34.6406H977.0938V53.3438h36.5625v22.57H977.0938V97.3594H1023.5L1016.3984,120H953.9609V22.8281Z" style="fill: #231f20"/>
    <path d="M1032.6406,12h48.7266a26.6349,26.6349,0,0,1,19.5469,8.0859A26.6357,26.6357,0,0,1,1109,39.6328V92.3672A27.6072,27.6072,0,0,1,1081.3672,120H1035.875V22.8281Zm26.3672,85.3594h21.3047a5.652,5.652,0,0,0,3.832-1.4414,4.5324,4.5324,0,0,0,1.6523-3.5508V39.6328a4.5345,4.5345,0,0,0-1.6523-3.5508,5.6591,5.6591,0,0,0-3.832-1.4414h-21.3047Z" style="fill: #231f20"/>
  </g>
</svg>