<svg xmlns="http://www.w3.org/2000/svg" xmlns:xlink="http://www.w3.org/1999/xlink" version="1.1" id="Capa_1" x="0px" y="0px" width="612px" height="718px" viewBox="0 0 612 718" enable-background="new 0 0 612 718" xml:space="preserve">
<g>
	<g>
		<path fill="#FAFDFA" d="M25.78,256.085c186.774-75.676,373.789-150.708,560.884-225.619c0.726,74.951,0.566,149.943,0.082,224.853    c-5.682,2.619-11.406,5.239-17.167,7.697C408.717,327.651,247.854,392.327,87.03,457.082    c-14.629,5.965-29.254,12.009-44.246,16.966c-13.539-37.557-18.495-77.853-17.77-117.665    C25.579,322.937,24.127,289.49,25.78,256.085L25.78,256.085z M373.497,163.645L373.497,163.645    c-0.847,14.789-0.283,29.577,0.886,44.326c5.48-0.12,11.002-0.443,16.521-0.806c1.33-12.895,4.433-26.192,14.95-34.855    c5.277,5.479,8.987,12.169,11.525,19.301c6.932,18.577,15.311,36.588,21.236,55.528c-3.021,4.353-6.044,8.665-9.027,13.017    c1.452,3.788,2.942,7.616,4.474,11.403c18.213-5.601,35.864-12.854,53.07-20.993c-1.57-4.515-3.185-8.987-4.835-13.419    c-4.796,0-9.55,0-14.307,0c-11.162-25.508-23.05-50.975-30.101-77.974c14.83-1.371,27.039,7.415,38.968,14.748    c3.103-3.626,6.245-7.213,9.389-10.84c-9.027-11.121-17.126-23.492-28.976-31.794    C430.958,145.511,403.639,159.938,373.497,163.645L373.497,163.645z M523.723,203.699L523.723,203.699    c-8.099,5.441-7.9,17.529-2.621,24.863c8.948,7.172,26.638,3.989,26.839-9.39C550.762,205.594,534.604,197.091,523.723,203.699    L523.723,203.699z M249.626,227.595L249.626,227.595c-0.523,28.166,1.128,56.375,0.363,84.582    c-0.162,11.768-9.067,23.735-1.975,34.978c13.66-4.917,27.159-10.396,40.498-16.159c-0.443-4.109-0.928-8.18-1.492-12.29    c-4.956-1.33-9.912-2.579-14.909-3.789c0.402-5.762-3.588-12.894,0.925-17.65c9.511-6.286,20.673-9.227,31.271-13.136    c3.547,4.15,7.172,8.221,10.88,12.169c-4.876,7.415-9.308,16.563-2.779,24.541c18.012-6.045,35.823-12.854,52.787-21.518    c-5.078-12.372-19.504-14.587-27.884-23.816c-20.874-22.083-41.627-44.285-62.098-66.731    C265.584,212.766,247.813,213.331,249.626,227.595L249.626,227.595z M81.469,290.417L81.469,290.417    c-30.464,31.674-10.919,90.587,30.908,100.942c37.516,10.355,76.846-20.389,79.625-58.429c-3.223-0.645-9.67-2.015-12.895-2.659    c-8.704,15.15-15.837,35.983-35.863,38.643c-26.435,3.225-45.818-24.821-46.06-48.797c-1.651-16.482,13.138-32.197,29.659-31.229    c12.491,0.725,22.043,9.913,33.002,14.789c5.119-0.725,8.382-5.4,12.452-8.099c-7.857-12.17-16.763-23.614-25.991-34.776    C125.836,273.614,97.507,270.189,81.469,290.417L81.469,290.417z M370.999,265.313L370.999,265.313    c-9.631,5.319-9.994,23.493,1.41,27.765c10.559,6.005,25.71-4.957,21.841-17.045C393.604,264.507,380.025,260.881,370.999,265.313    L370.999,265.313z M213.681,328.981L213.681,328.981c-8.34,4.996-7.938,17.208-2.659,24.339    c8.946,7.695,26.515,4.149,26.797-9.269C240.842,330.632,224.199,321.566,213.681,328.981z"/>
	</g>
	<path fill="#FAFDFA" d="M365.962,356.301c38.039-17.247,77.25-31.833,116.053-47.227c-1.207,94.978-0.079,189.957-0.524,284.936   c-4.673,6.165-11.685,9.911-17.891,14.305c-31.068,20.309-61.975,41.787-96.752,55.407   C365.881,561.249,367.533,458.776,365.962,356.301z"/>
	<path fill="#FAFDFA" d="M135.466,448.861c36.953-16.118,74.306-31.632,112.387-44.97c1.693,87.524,0.564,175.086,0.564,262.652   c-39.572-17.448-76.685-40.258-111.622-65.604l-0.765-2.78C135.99,548.396,137.199,498.629,135.466,448.861z"/>
	<g>
		<g>
			<path fill="#C1A15E" d="M7.083,6.972c199.709,0.323,399.416,0.323,599.166,0c1.774,115.127,0.08,230.295,1.331,345.42     c1.208,49.364-7.938,98.808-24.902,145.069c-17.692,46.178-45.376,90.344-86.236,119.316     c-55.77,37.354-115.73,69.068-179.438,90.547c-6.689,2.657-14.022,2.657-20.712-0.041c-63.709-21.52-123.67-53.151-179.4-90.586     c-45.092-32.239-73.944-82.325-91.393-133.986c-12.249-39.53-20.188-80.794-19.423-122.299     C6.76,242.584,5.552,124.758,7.083,6.972L7.083,6.972z M26.183,30.224L26.183,30.224c-1.45,71.163-1.491,142.487-0.242,213.65     c22.083-6.81,43.078-16.601,64.636-24.902C240.076,158.97,389.493,98.606,539.074,38.726c5.602-2.417,11.041-5.158,16.441-8.019     c-11.081-0.765-22.202-1.088-33.286-1.008C356.896,30.183,191.52,29.175,26.183,30.224L26.183,30.224z M25.78,256.085     L25.78,256.085c-1.652,33.405-0.201,66.852-0.765,100.298c-0.726,39.812,4.23,80.108,17.77,117.665     c14.992-4.957,29.617-11.001,44.246-16.966c160.823-64.755,321.687-129.431,482.549-194.066     c5.761-2.458,11.485-5.079,17.167-7.697c0.484-74.91,0.644-149.902-0.082-224.853C399.568,105.377,212.554,180.409,25.78,256.085     L25.78,256.085z M482.015,309.075L482.015,309.075c-38.803,15.393-78.014,29.979-116.053,47.227     c-39.612,15.191-79.222,30.625-118.108,47.59c-38.081,13.338-75.435,28.852-112.387,44.97     c-29.215,11.647-59.195,21.722-87.241,35.985c17.166,45.013,45.575,88.45,87.806,113.313l0.765,2.78     c34.938,25.346,72.05,48.155,111.622,65.604c18.213,8.261,36.549,17.047,56.253,21.196c21.759-4.433,42.673-13.42,62.176-24.018     c34.777-13.62,65.684-35.099,96.752-55.407c6.206-4.394,13.218-8.14,17.891-14.305c56.457-38.765,86.114-105.457,99.253-170.695     c10.637-51.218,6.404-103.844,5.921-155.746C551.405,280.423,516.872,295.253,482.015,309.075z"/>
		</g>
		<path fill="#C1A15E" d="M370.999,265.313c9.026-4.432,22.605-0.805,23.251,10.719c3.869,12.088-11.282,23.05-21.841,17.045    C361.005,288.805,361.368,270.632,370.999,265.313z"/>
		<path fill="#C1A15E" d="M213.681,328.981c10.518-7.415,27.161,1.651,24.138,15.071c-0.282,13.418-17.851,16.964-26.797,9.269    C205.744,346.188,205.341,333.977,213.681,328.981z"/>
	</g>
	<g>
		<path fill="#62BCF1" d="M26.183,30.224c165.336-1.049,330.712-0.041,496.046-0.525c11.084-0.081,22.205,0.243,33.286,1.008    c-5.4,2.861-10.84,5.602-16.441,8.019C389.493,98.606,240.076,158.97,90.577,218.972c-21.559,8.301-42.554,18.093-64.636,24.902    C24.692,172.711,24.733,101.387,26.183,30.224z"/>
		<path fill="#62BCF1" d="M482.015,309.075c34.857-13.821,69.391-28.651,104.649-41.505c0.483,51.901,4.716,104.528-5.921,155.746    c-13.139,65.238-42.796,131.931-99.253,170.695C481.936,499.031,480.808,404.053,482.015,309.075z"/>
		<path fill="#62BCF1" d="M247.854,403.892c38.886-16.965,78.496-32.399,118.108-47.59c1.571,102.475-0.081,204.948,0.886,307.421    c-19.503,10.598-40.417,19.585-62.176,24.018c-19.705-4.149-38.041-12.936-56.253-21.196    C248.418,578.978,249.546,491.416,247.854,403.892z"/>
		<path fill="#62BCF1" d="M48.225,484.847c28.046-14.264,58.026-24.338,87.241-35.985c1.733,49.768,0.524,99.535,0.565,149.299    C93.8,573.297,65.391,529.859,48.225,484.847z"/>
	</g>
	<g>
		<path fill="#C2A15E" d="M373.497,163.645c30.142-3.707,57.461-18.134,83.774-32.358c11.85,8.302,19.948,20.673,28.976,31.794    c-3.144,3.626-6.286,7.214-9.389,10.84c-11.929-7.333-24.138-16.118-38.968-14.748c7.051,26.999,18.938,52.466,30.101,77.974    c4.757,0,9.511,0,14.307,0c1.65,4.433,3.265,8.905,4.835,13.419c-17.206,8.139-34.857,15.392-53.07,20.993    c-1.531-3.787-3.021-7.615-4.474-11.403c2.983-4.352,6.006-8.664,9.027-13.017c-5.926-18.94-14.305-36.952-21.236-55.528    c-2.538-7.132-6.248-13.822-11.525-19.301c-10.518,8.664-13.62,21.96-14.95,34.855c-5.52,0.363-11.041,0.686-16.521,0.806    C373.214,193.222,372.65,178.433,373.497,163.645z"/>
		<path fill="#C2A15E" d="M523.723,203.699c10.881-6.608,27.039,1.895,24.218,15.474c-0.201,13.379-17.891,16.562-26.839,9.39    C515.822,221.228,515.624,209.141,523.723,203.699z"/>
		<g>
			<path fill="#C2A15E" d="M249.626,227.595c-1.813-14.265,15.958-14.83,25.588-18.819c20.471,22.446,41.224,44.648,62.098,66.731     c8.38,9.229,22.806,11.444,27.884,23.816c-16.964,8.664-34.775,15.473-52.787,21.518c-6.528-7.979-2.097-17.126,2.779-24.541     c-3.708-3.949-7.333-8.019-10.88-12.169c-10.598,3.909-21.76,6.851-31.271,13.136c-4.513,4.756-0.523,11.888-0.925,17.65     c4.997,1.209,9.953,2.458,14.909,3.789c0.564,4.11,1.048,8.181,1.492,12.29c-13.338,5.763-26.838,11.243-40.498,16.159     c-7.092-11.243,1.813-23.21,1.975-34.978C250.754,283.97,249.103,255.761,249.626,227.595L249.626,227.595z M269.372,247.058     L269.372,247.058c-0.201,10.478,0.403,20.955,1.854,31.311c6.971-2.58,13.942-5.117,20.914-7.575     C285.41,262.089,277.996,253.91,269.372,247.058z"/>
		</g>
		<path fill="#C2A15E" d="M81.469,290.417c16.038-20.228,44.367-16.803,64.837-29.617c9.229,11.162,18.134,22.606,25.991,34.776    c-4.07,2.699-7.333,7.374-12.452,8.099c-10.959-4.876-20.511-14.063-33.002-14.789c-16.521-0.968-31.31,14.748-29.659,31.229    c0.242,23.976,19.625,52.022,46.06,48.797c20.026-2.659,27.159-23.492,35.863-38.643c3.224,0.644,9.671,2.014,12.895,2.659    c-2.78,38.04-42.109,68.785-79.625,58.429C70.55,381.004,51.005,322.091,81.469,290.417z"/>
	</g>
	<g>
		<path fill="#FAFBFA" d="M269.372,247.058c8.625,6.852,16.039,15.031,22.768,23.735c-6.972,2.458-13.943,4.996-20.914,7.575    C269.774,268.013,269.17,257.536,269.372,247.058z"/>
	</g>
</g>
</svg>