<svg xmlns:dc="http://purl.org/dc/elements/1.1/" xmlns:cc="http://creativecommons.org/ns#" xmlns:rdf="http://www.w3.org/1999/02/22-rdf-syntax-ns#" xmlns:svg="http://www.w3.org/2000/svg" xmlns:sodipodi="http://sodipodi.sourceforge.net/DTD/sodipodi-0.dtd" xmlns:inkscape="http://www.inkscape.org/namespaces/inkscape" xmlns="http://www.w3.org/2000/svg" xmlns:xlink="http://www.w3.org/1999/xlink" version="1.1" id="svg18516" inkscape:version="0.91 r13725" sodipodi:docname="Logo PSG.svg" x="0px" y="0px" width="510px" height="509.964px" viewBox="0 0 510 509.964" enable-background="new 0 0 510 509.964" xml:space="preserve">
<path fill="#CC2730" d="M249.873,4.826c1.43-0.688,3.286-2.584,4.867-1.141c21.269,14.298,44.518,25.366,67.958,35.582  c44.546,19.041,91.332,32.831,139.189,40.448c6.641,28.157,9.679,57.083,10.215,85.982c1.196,57.717-8.729,116.215-33.064,168.802  c-18.561,40.447-45.989,76.704-79.59,105.85c-30.632,26.618-65.979,47.542-103.307,63.326c-2.212,1.375-4.702,0.523-6.874-0.427  c-47.309-20.169-91.633-48.654-126.678-86.586c-38.688-41.055-64.92-93.038-77.706-147.825  c-13.418-57.66-13.886-118.125-3.135-176.254c1.1-4.303,1.155-9.143,3.616-12.923c48.875-8.07,96.775-22.135,142.145-42.057  C208.985,28.088,230.35,17.957,249.873,4.826z"/>
<path fill="#FDD839" d="M61.74,97.422C128.914,84.705,194.344,61.47,253.559,27.14c21.57,13.391,44.683,24.101,68.108,33.793  c39.624,16.375,80.966,28.611,123.117,36.475c6.339,32.446,7.976,65.676,6.559,98.658C448.524,251.02,434.487,306.094,406,353.486  c-20.456,34.632-48.45,64.577-80.883,88.267c-20.58,15.094-42.854,27.811-66.02,38.466c-2.405,0.841-4.921,2.723-7.548,1.582  c-6.654-2.213-12.771-5.733-19.054-8.8c-34.675-17.473-66.874-40.255-93.546-68.589c-35.099-36.901-59.791-83.261-72.302-132.549  c-8.056-30.563-11.824-62.198-11.906-93.792C54.494,151.055,56.336,123.929,61.74,97.422z"/>
<path fill="#CC2730" d="M262.426,64.233c4.056-4.427,7.244-9.638,11.851-13.598c4.358,5.802,7.987,12.085,11.948,18.135  c4.839,8.084,15.315,10.242,20.237,18.244c6.296,11.041,9.871,23.482,16.663,34.234c5.691,8.826,18.45,5.733,25.201,13.322  c6.641,5.307,6.668,14.354,10.283,21.365c5.624,5.706,14.711,3.809,21.502,7.231c8.923,3.561,11.439,14.506,20.212,18.313  c7.615,4.208,16.456,2.116,24.567,0.935c-5.788,9.994-16.484,16.622-27.964,17.679c-10.601,1.528-20.98-1.608-31.21-3.944  c4.111,6.187,9.624,11.879,16.842,14.229c5.734,1.775,11.481-0.811,16.897-2.446c-3.354,9.788-11.878,17.323-22.066,19.248  c-8.908,2.502-17.982-0.124-26.327-3.26c-9.116-3.312-20.939-1.772-26.535,6.903c-3.781,4.55-3.945,12.265-10.037,14.601  c-6.145,2.393-12.552,4.056-18.684,6.503c3.589,13.775,8.908,27.07,11.769,41.025c-5.733,0.344-11.837,1.099-17.213-1.458  c-5.308-2.489-10.188-6.104-16.086-7.161c-12.772-2.572-25.806,0.975-37.67,5.636c-13.653,4.853-28.611,8.978-43.034,4.989  c0.027-12.47,2.393-24.773,2.792-37.216c0.289-5.748-3.602-11.164-8.923-13.129c-5.567-2.118-11.618-1.225-17.419-1.307  c-9.857,0.206-19.523-4.29-26.217-11.453c-4.922-5.155-8.951-11.301-15.028-15.232c-5.967-4.167-13.653-6.765-20.856-4.551  c-6.819,2.007-11.549,7.602-16.787,12.03c0.247-12.814,5.925-27.003,18.312-32.474c13.13-6.489,28.019-2.214,41.687-0.151  c-4.992-4.894-10.765-9.28-17.613-11.123c-8.084-2.502-16.705-0.632-24.871-2.653c-7.246-1.719-14.175-5.583-18.629-11.646  c-4.386-5.774-6.723-12.758-8.4-19.742c6.792,5.349,14.229,11.714,23.523,10.765c9.968-0.26,15.646-10.435,25.16-11.933  c6.847-1.334,13.721,0.701,20.595,0.33c9.088-0.578,17.529-7.053,20.279-15.77c1.677-5.403,2.214-11.109,4.083-16.471  c5.692-17.502,18.657-32.625,35.512-40.201c13.433-6.366,28.528-8.249,43.254-7.396C256.803,65.389,260.322,66.68,262.426,64.233z"/>
<path fill="#FDD839" d="M259.676,83.398c5.692-6.324,9.363-14.188,14.643-20.856c4.055,6.255,7.615,12.814,11.492,19.193  c2.71,4.606,8.883,4.455,12.883,7.438c2.875,5.76,4.634,12.03,8.112,17.515c-15.042-2.804-30.467-5.142-45.7-2.489  c-17.778,2.942-34.633,11.329-47.681,23.771c-4.769,4.523-8.62,9.899-13.348,14.463c0.522-8.647,7.782-14.312,13.638-19.729  c8.125-7.382,17.803-12.662,26.686-19.014c-15.467,4.097-27.938,14.519-40.833,23.414c9.375-13.24,24.031-21.062,36.996-30.219  c-14.283,3.685-25.832,13.199-38.275,20.554c2.736-6.338,8.854-9.927,14.244-13.721c11.04-7.631,23.083-14.134,36.2-17.31  C252.375,85.378,256.225,84.994,259.676,83.398z"/>
<path fill="#CC2730" d="M271.142,81.103c6.008-3.753,13.308,2.571,12.677,9.005c0.371,5.734-6.243,10.642-11.535,7.988  C265.463,95.456,264.652,84.595,271.142,81.103z"/>
<path fill="#FDD839" d="M272.393,84.76c1.679,0.357,3.41,0.632,5.019,1.306c1.926,2.008,0.675,5.073,0.935,7.548  c-2.007-0.055-4.014-0.096-6.008-0.138C272.324,90.576,272.324,87.661,272.393,84.76z"/>
<path fill="#FDD839" d="M229.112,124.369c21.133-16.251,49.824-18.876,75.149-13.006c8.249,1.361,9.418,11.108,13.089,17.145  c-3.973,2.942-7.548,7.245-12.718,7.905c-4.289,0.233-5.829-4.798-8.139-7.507c-1.21,4.221-3.271,8.552-2.159,13.021  c2.558,11.768,8.154,23.316,6.379,35.636c-8.963-0.249-17.749,1.512-26.506,3.079c-0.771-2.364-1.54-4.73-2.365-7.066  c-0.688,3.574-1.031,7.191-1.127,10.819c8.015,2.531,16.168-0.673,24.321,0.015c-1.211,1.732-2.434,3.451-3.644,5.184  c5.939-1.074,12.03-2.792,16.69-6.82c2.53-1.979,1.801-5.596,1.663-8.386c-1.566-9.967-5.967-19.165-9.61-28.473  c5.266,0.591,12.043-1.87,15.881,3.052c3.973,5.018,7.533,11.274,6.42,17.928c-2.199,15.028-6.256,29.738-8.812,44.711  c-1.238,7.575,1.566,15.11,0.701,22.685c-0.179,2.941-2.653,5.375-5.637,5.389c-6.49,0.287-12.497-2.97-18.961-3.121  c-15.053-0.825-29.062,6.337-44.035,6.531c-8.125,0.054-16.869,0.301-24.197-3.741c-4.84-2.584-7.164-7.768-9.075-12.621  c7.081-5.032,12.442-12.03,15.742-20.032c5.98,0.701,11.823,2.186,17.461,4.29c-2.626-8.511-6.297-16.747-11.686-23.868  c-5.995-8.676-14.408-16.003-17.626-26.342C212.037,147.521,217.936,132.315,229.112,124.369z"/>
<path fill="#CC2730" d="M283.365,136.042c1.443-3.603,3.023-7.163,4.014-10.917c1.113,6.984,1.815,15.536-3.493,21.062  c-4.288,4.083-10.517,1.856-15.657,1.279c-9.17-1.649-18.287,0.757-27.168,2.833c5.625-6.119,13.53-8.937,21.215-11.411  c-6.711-1.76-13.722-3.74-20.707-2.324c-5.306,0.935-9.541,4.482-14.052,7.177c0.661-4.922,3.437-9.583,8.442-11.04  c13.24-4.62,26.273,2.75,39.197,4.881C277.852,137.829,281.494,138.502,283.365,136.042z"/>
<path fill="#FDD839" d="M310.628,139.534c2.406-1.87,4.853-3.671,7.354-5.403c0.166,3.162,0,6.42-1.471,9.293  C314.56,142.104,312.607,140.798,310.628,139.534z"/>
<path fill="#FDD839" d="M194.082,165.036c5.981-1.195,11.975,1.748,15.963,6.078c8.496,9.075,11.369,22.63,8.249,34.537  c-1.732,5.733-5.528,11.534-11.536,13.335c-5.843,1.925-12.263-0.521-16.457-4.729c-9.418-9.417-12.882-24.335-8.593-36.942  C183.632,171.663,187.963,166.22,194.082,165.036z"/>
<path fill="#FDD839" d="M331.595,166.935c8.235,11.095,10.627,27.51,2.831,39.43c-2.571,4.276-7.466,6.008-11.961,7.451  c0.303-4.441,1.512-8.771,4.757-11.973c4.84-5.102,4.056-12.554,3.08-18.919C329.271,177.562,330.33,172.145,331.595,166.935z"/>
<path fill="#CC2730" d="M195.208,176.585c1.542-1.648,3.934,0.22,5.419,1.088c5.319,4.358,7.67,11.506,7.642,18.23  c-0.04,3.986-0.534,8.51-3.532,11.453c-1.939,1.869-4.867,0.507-6.502-1.044c-5.472-4.95-7.548-12.761-7.067-19.936  C191.387,182.829,192.185,178.827,195.208,176.585z"/>
<path fill="#CC2730" d="M276.478,197.895c5.539-3.244,11.532,1.225,17.309,1.278c3.45-0.562,6.612-2.172,10.008-2.94  c2.819-1.046,3.864,2.516,5.526,4.055c-6.502,0.963-12.647,4.634-19.356,3.658c-4.387-0.414-8.868-1.54-13.213-0.304  c-5.239,1.458-10.118,3.877-15.315,5.432C265.794,204.563,270.908,200.782,276.478,197.895z"/>
<path fill="#CC2730" d="M269.863,211.604c4.675,2.212,9.541,5.237,14.945,4.125c8.139-1.705,16.883-0.537,24.526-4.291  c-3.382,6.01-1.403,12.554-0.151,18.823c-2.543-3.41-4.688-7.714-8.937-9.267c-8.098-2.901-16.552,2.817-24.61,0  C271.555,219.715,270.867,215.137,269.863,211.604z"/>
<path fill="#FDD839" d="M205.836,228.953c2.957,7.919,9.914,13.268,13.391,20.803c3.616,11.396,6.517,23.028,9.584,34.604  c-8.718,4.262-18.437,5.72-28.047,4.646C202.125,268.974,203.734,248.931,205.836,228.953z"/>
<path fill="#FDD839" d="M278.689,277.65c1.829-8.016,5.183-15.674,10.766-21.777c3.711,10.352,7.176,20.829,9.912,31.484  C291.421,286.656,285.633,280.839,278.689,277.65z"/>
<path fill="#CC2730" d="M253.405,319.088c10.396-6.337,22.879-2.517,34.234-2.666c-0.097,5.649-0.11,11.299,0.137,16.965  c-2.006-3.233-3.821-6.697-6.708-9.227c-4.825-4.385-13.268-4.055-17.447,1.074c-5.443,6.378-6.297,15.341-5.857,23.386  c0.592,6.543,1.5,13.762,6.243,18.75c5.553,6.641,17.666,5.747,21.956-1.896c4.18-6.997,6.242-15,9.156-22.561  c2.846-8.553,7.644-17.049,6.105-26.369c6.42,0.301,13.335-1.265,19.453,0.838c7.63,15.33,12.979,31.771,20.334,47.252  c3.41,7.671,13.308,8.154,20.279,5.939c4.661-1.306,7.616-7.271,4.441-11.383c-5.486-7.148-14.685-9.94-20.94-16.251  c-4.784-5.278-6.228-13.858-2.309-20.018c2.927-4.426,8.275-6.421,13.308-7.285c8.895-1.608,17.79,0.824,26.699,0.864  c-0.097,5.129-0.097,10.258,0.179,15.387c-2.487-3.604-4.922-7.549-8.908-9.653c-4.248-2.296-9.914-2.693-13.995,0.14  c-2.723,2.446-1.954,6.914,0.41,9.347c5.816,6.338,14.437,9.13,20.431,15.273c6.407,6.56,6.462,18.453-0.438,24.68  c-5.762,5.473-14.148,6.461-21.751,6.447c-8.057-0.109-16.277,0.537-24.17-1.484c-3.877-0.948-7.341-3.424-9.267-6.941  c-3.286-5.79-5.829-11.963-8.455-18.066c-5.267-0.11-10.546-0.137-15.812-0.207c-3.684,8.166-5.595,18.177-13.555,23.456  c-6.724,4.825-15.522,4.742-23.358,3.63c-13.227-1.774-24.239-13.818-24.514-27.223C238.187,339.174,242.38,325.509,253.405,319.088  z"/>
<path fill="#CC2730" d="M141.893,316.765c6.875-0.069,13.735-0.056,20.596,0.454c5.98,15.961,12.799,31.579,19.027,47.445  c1.759,4.672,4.385,8.963,7.452,12.881c-5.693,0.027-11.466,0.523-17.104-0.537c-3.574-0.48-5.637-3.765-7.026-6.748  c-2.68-5.886-4.838-11.976-7.245-17.956c-5.334-0.043-10.655,0.026-15.989,0.164c-2.421,8.195-6.97,16.308-5.17,25.117  c-4.784,0-9.582-0.013-14.367-0.066c6.572-9.638,9.143-21.188,13.336-31.911C138.359,336.217,144.092,326.967,141.893,316.765z"/>
<path fill="#CC2730" d="M181.598,316.476c7.094-0.054,14.202-0.07,21.296,0.026c-1.8,10.134-1.293,20.445-1.361,30.687  c0.11,4.618-0.124,9.431,1.567,13.831c2.668,7.396,13.625,9.24,19.042,3.821c4.563-4.041,4.481-10.654,4.633-16.264  c-0.165-10.709,0.632-21.544-1.485-32.115c3.891,0,7.782,0.026,11.686,0c-3.574,13.611-0.385,27.827-2.242,41.629  c-1.003,7.121-5.416,13.858-12.001,16.951c-8.084,3.918-17.735,3.384-26.067,0.537c-5.513-1.814-9.858-6.38-11.356-11.976  C180.855,348.234,186.382,331.779,181.598,316.476z"/>
<path fill="#FDD839" d="M148.835,330.528c2.421,5.086,4.373,10.378,6.132,15.74c-3.698-0.013-7.396-0.04-11.096-0.083  C145.37,340.906,147.008,335.683,148.835,330.528z"/>
<path fill="#FDD839" d="M303.066,345.347c1.195-5.099,2.693-10.131,4.879-14.903c2.062,4.866,3.891,9.817,5.404,14.877  C309.928,345.347,306.49,345.347,303.066,345.347z"/>
</svg>