<svg xmlns="http://www.w3.org/2000/svg" viewBox="0 0 1000 187.87">
  <title>Austin FC wordmark green</title>
  <path d="M92.84912,25.0029h-45.635a22.23894,22.23894,0,0,0-22.214,22.214v115.648h24.142v-45.213h41.577v45.213h24.138V47.21691a21.87489,21.87489,0,0,0-22.008-22.214m-2.13,68.51h-41.577V52.4879a5.41661,5.41661,0,0,1,5.577-5.37h30.423a5.41844,5.41844,0,0,1,5.577,5.37Zm281.91,13.942v33.195a21.87843,21.87843,0,0,1-22.006,22.218h-45.649a22.24088,22.24088,0,0,1-22.21-22.218v-16.549h24.138v11.279a5.42222,5.42222,0,0,0,5.579,5.374h30.433a5.41973,5.41973,0,0,0,5.579-5.374v-22.448c0-1.641-.722-4.571-5.516-5.768-6.239-1.726-11.201-3.011-16.159-4.297-6.768-1.761-13.168-3.427-22.008-6.055-9.291-2.831-21.642-8.172-21.642-21.809v-27.79a21.87484,21.87484,0,0,1,22.00806-22.211h44.837a22.23749,22.23749,0,0,1,22.21,22.211v16.816h-24.139V52.4869a5.42061,5.42061,0,0,0-5.575-5.374H312.88715a5.42235,5.42235,0,0,0-5.577,5.374v16.837c0,3.324,2.87,5.263,5.516,5.967,5.772,1.661,11.407,3.103,17.377,4.627,6.694,1.715,13.613,3.484,21.408,5.728,13.947,3.914,21.01794,11.255,21.01794,21.809m26.699-82.451h93.814v22.111h-34.839v115.751h-24.139V47.11491h-34.836Zm-179.732,0h24.138v115.648a22.23575,22.23575,0,0,1-22.211,22.214h-45.634a21.87177,21.87177,0,0,1-22.005-22.214V25.00391h24.139v110.378a5.4188,5.4188,0,0,0,5.576,5.37h30.424a5.41621,5.41621,0,0,0,5.573-5.37Zm304.679-.002h24.143v137.863h-24.143Zm137.805.001h23.332v137.862h-23.332v-25.748l-51.308-66.656v92.404h-23.333V25.0029h23.383l51.258,66.851Zm130.084,0h63.74005v22.143h-58.189a1.9278,1.9278,0,0,0-2.049,1.884v38.935h60.238v24.5h-60.238v50.403h-23.975V45.47591a20.49537,20.49537,0,0,1,20.473-20.473m122.20606,24.027v89.927a1.929,1.929,0,0,0,2.04895,1.888h58.581v22.023h-63.751a20.49431,20.49431,0,0,1-20.473-20.468v-96.924a20.49538,20.49538,0,0,1,20.473-20.473h63.751v22.143h-58.581a1.92775,1.92775,0,0,0-2.04895,1.884" style="fill: #00b156"/>
</svg>