<svg xmlns="http://www.w3.org/2000/svg" width="183.73" height="300.67" viewBox="0 0 183.731 300.667">
<title>CA Banfield</title>
<g fill="#B4975A">
<polygon points="71.447,10.928,83.3,12.219,74.495,20.291,76.84,32.068,66.515,26.051,55.818,31.876,58.504,20.291,49.703,12.275,61.56,10.928,66.515,0"/>
<polygon points="124.03,10.928,135.88,12.219,127.06,20.291,129.42,32.068,119.1,26.051,108.4,31.876,111.07,20.291,102.28,12.275,114.13,10.928,119.1,0"/>
<path d="M183.18,55.242l-3.876,4.592c-5.592,6.612-10.749,9.807-15.813,9.807-5.595,0-11.748-3.855-18.826-11.79l-1.506-1.706-1.662,1.59c-8.214,7.885-15.91,11.724-23.523,11.724-7.595,0-15.393-3.839-23.871-11.75l-1.502-1.391-1.502,1.398c-8.465,7.904-16.375,11.743-24.135,11.743-7.786,0-15.575-3.839-23.814-11.724l-1.637-1.59-1.517,1.706c-7.075,7.934-13.386,11.79-19.291,11.79-5.349,0-10.666-3.195-16.27-9.807l-3.86-4.592v6.011l-0.071,156.71v0.997l0.745,0.653,89.901,79.097,1.46,1.288,1.457-1.288,88.43-79.114,0.738-0.647v-0.985l-0.057-156.71v-6.008zm-40.16,4.077c7.592,8.522,14.209,12.537,20.463,12.537,5.981,0,11.633-3.678,17.479-10.602l0.071,156.71-88.44,79.098-89.888-79.1,0.064-156.71c5.854,6.924,11.733,10.602,17.936,10.602,6.513,0,13.358-4.015,20.931-12.537,8.813,8.445,17.176,12.35,25.328,12.35,8.67,0,17.119-4.398,25.636-12.35,8.535,7.951,16.838,12.35,25.373,12.35,8.02,0,16.23-3.904,25.05-12.349" fill="none"/>
<path d="M183.18,55.242l-3.876,4.592c-5.592,6.612-10.749,9.807-15.813,9.807-5.595,0-11.748-3.855-18.826-11.79l-1.506-1.706-1.662,1.59c-8.214,7.885-15.91,11.724-23.523,11.724-7.595,0-15.393-3.839-23.871-11.75l-1.502-1.391-1.502,1.398c-8.465,7.904-16.375,11.743-24.135,11.743-7.786,0-15.575-3.839-23.814-11.724l-1.637-1.59-1.517,1.706c-7.075,7.934-13.386,11.79-19.291,11.79-5.349,0-10.666-3.195-16.27-9.807l-3.86-4.592v6.011l-0.071,156.71v0.997l0.745,0.653,89.901,79.097,1.46,1.288,1.457-1.288,88.43-79.114,0.738-0.647v-0.985l-0.057-156.71v-6.008zm-40.16,4.077c7.592,8.522,14.209,12.537,20.463,12.537,5.981,0,11.633-3.678,17.479-10.602l0.071,156.71-88.44,79.098-89.888-79.1,0.064-156.71c5.854,6.924,11.733,10.602,17.936,10.602,6.513,0,13.358-4.015,20.931-12.537,8.813,8.445,17.176,12.35,25.328,12.35,8.67,0,17.119-4.398,25.636-12.35,8.535,7.951,16.838,12.35,25.373,12.35,8.02,0,16.23-3.904,25.05-12.349"/>
</g>
<path d="M92.596,297.06l-89.894-79.1,0.06-156.71c11.984,14.181,24.055,14.71,38.87-1.933,18.183,17.452,34.44,15.413,50.964,0,16.542,15.413,32.249,17.452,50.428,0,14.831,16.643,25.957,16.113,37.945,1.933l0.067,156.71-88.434,79.1z" fill="#FFF"/>
<path d="M48.238,163.25v3.16c-1.149,0.614-2.329,1.069-3.513,1.384-1.194,0.318-2.378,0.472-3.554,0.472-1.124,0-2.173-0.153-3.198-0.439-1.016-0.314-1.975-0.746-2.899-1.328-1.46-0.951-2.58-2.174-3.393-3.647-0.806-1.487-1.225-3.082-1.225-4.823,0-1.328,0.288-2.609,0.801-3.84,0.543-1.246,1.308-2.323,2.292-3.264,1.03-0.973,2.218-1.733,3.506-2.209,1.304-0.498,2.737-0.744,4.329-0.744,1.094,0,2.18,0.124,3.288,0.376,1.071,0.253,2.202,0.652,3.401,1.2v3.049c-1.251-0.679-2.435-1.186-3.514-1.508-1.101-0.321-2.149-0.479-3.176-0.479-2.311,0-4.19,0.714-5.685,2.148-1.514,1.43-2.236,3.205-2.236,5.35,0,2.121,0.723,3.908,2.191,5.316,1.479,1.449,3.333,2.146,5.558,2.146,1.135,0,2.296-0.187,3.46-0.56,1.171-0.41,2.369-0.99,3.567-1.77"/>
<path d="M89.431,159.6h6.127l-3.097-7.086-3.03,7.09zm-6.45,8.3l8.49-19.626h2.038l8.609,19.626h-2.898l-2.509-5.782h-8.375l-2.494,5.782h-2.863z"/>
<path d="M141.69,159.28v6.08h3.719c1.378,0,2.378-0.25,3.015-0.73,0.633-0.479,0.94-1.244,0.94-2.258,0-1.069-0.367-1.859-1.075-2.365-0.692-0.492-1.802-0.727-3.333-0.727h-3.26zm0-2.58h1.888c1.434,0,2.494-0.26,3.187-0.77,0.7-0.512,1.037-1.305,1.037-2.359,0-0.967-0.27-1.661-0.819-2.105-0.528-0.441-1.428-0.656-2.614-0.656h-2.678v5.899zm-2.77,11.2v-19.626h5.733c1.974,0,3.453,0.451,4.514,1.335,1.06,0.894,1.603,2.15,1.603,3.781,0,1.017-0.239,1.855-0.727,2.535-0.461,0.67-1.21,1.196-2.165,1.549,1.42,0.348,2.532,0.951,3.3,1.837,0.768,0.9,1.188,1.979,1.188,3.26,0,1.606-0.61,2.917-1.794,3.88-1.195,0.963-2.798,1.449-4.851,1.449h-6.795z"/>
<g fill="#B4975A">
<path d="M25.873,71.019v167.33l0.958,0.861v-168.52c-0.329,0.127-0.633,0.23-0.958,0.341"/>
<path fill="#03953f" d="M2.766,61.151,2.702,218.04,25.869,238.44v-167.51c-8.161,2.5859-15.658-0.94105-23.103-9.7811"/>
<path fill="#03953f" d="M52.767,67.342v195.08l27.141,23.983v-218.38c-8.832,4.4011-17.779,4.4651-27.141-0.67888"/>
<path d="M52.767,67.742c-0.33-0.191-0.667-0.356-0.974-0.55v193.98l0.974,0.856v-194.29z"/>
<path d="M79.907,68.416v217.49l0.996,0.865v-218.86c-0.337,0.165-0.677,0.349-0.996,0.495"/>
<path d="M104.86,68.27c-0.326-0.183-0.648-0.352-0.963-0.528v219.23l0.963-0.859v-217.84z"/>
<path d="M132,67.701v194.09l0.993-0.845v-193.78c-0.31,0.184-0.67,0.367-0.99,0.544"/>
<path fill="#03953f" d="M104.86,67.972v218.44l27.147-24.383v-194.63c-9.4,5.2654-18.26,5.115-27.15,0.56956"/>
<path d="M158.2,70.906c-0.345-0.099-0.663-0.229-0.993-0.367v168.73l0.993-0.882v-167.48z"/>
<path fill="#03953f" d="M181.04,218.1,180.96,60.95c-7.535,8.9572-14.759,12.484-22.77,9.6802v167.95l22.85-20.478z"/>
</g>
</svg>