<svg xmlns="http://www.w3.org/2000/svg" xmlns:ooo="http://xml.openoffice.org/svg/export" xmlns:xlink="http://www.w3.org/1999/xlink" xmlns:presentation="http://sun.com/xmlns/staroffice/presentation" xmlns:smil="http://www.w3.org/2001/SMIL20/" xmlns:anim="urn:oasis:names:tc:opendocument:xmlns:animation:1.0" version="1.2" width="215.9mm" height="279.4mm" viewBox="0 0 21590 27940" preserveAspectRatio="xMidYMid" fill-rule="evenodd" stroke-width="28.222" stroke-linejoin="round" xml:space="preserve">
 <defs class="ClipPathGroup">
  <clipPath id="presentation_clip_path" clipPathUnits="userSpaceOnUse">
   <rect x="0" y="0" width="21590" height="27940"/>
  </clipPath>
  <clipPath id="presentation_clip_path_shrink" clipPathUnits="userSpaceOnUse">
   <rect x="21" y="27" width="21547" height="27885"/>
  </clipPath>
 </defs>
 <defs class="TextShapeIndex">
  <g ooo:slide="id1" ooo:id-list="id3 id4 id5 id6 id7 id8 id9 id10 id11 id12 id13 id14 id15 id16 id17 id18 id19 id20 id21 id22 id23 id24 id25 id26 id27 id28"/>
 </defs>
 <defs class="EmbeddedBulletChars">
  <g id="bullet-char-template-57356" transform="scale(0.00048828125,-0.00048828125)">
   <path d="M 580,1141 L 1163,571 580,0 -4,571 580,1141 Z"/>
  </g>
  <g id="bullet-char-template-57354" transform="scale(0.00048828125,-0.00048828125)">
   <path d="M 8,1128 L 1137,1128 1137,0 8,0 8,1128 Z"/>
  </g>
  <g id="bullet-char-template-10146" transform="scale(0.00048828125,-0.00048828125)">
   <path d="M 174,0 L 602,739 174,1481 1456,739 174,0 Z M 1358,739 L 309,1346 659,739 1358,739 Z"/>
  </g>
  <g id="bullet-char-template-10132" transform="scale(0.00048828125,-0.00048828125)">
   <path d="M 2015,739 L 1276,0 717,0 1260,543 174,543 174,936 1260,936 717,1481 1274,1481 2015,739 Z"/>
  </g>
  <g id="bullet-char-template-10007" transform="scale(0.00048828125,-0.00048828125)">
   <path d="M 0,-2 C -7,14 -16,27 -25,37 L 356,567 C 262,823 215,952 215,954 215,979 228,992 255,992 264,992 276,990 289,987 310,991 331,999 354,1012 L 381,999 492,748 772,1049 836,1024 860,1049 C 881,1039 901,1025 922,1006 886,937 835,863 770,784 769,783 710,716 594,584 L 774,223 C 774,196 753,168 711,139 L 727,119 C 717,90 699,76 672,76 641,76 570,178 457,381 L 164,-76 C 142,-110 111,-127 72,-127 30,-127 9,-110 8,-76 1,-67 -2,-52 -2,-32 -2,-23 -1,-13 0,-2 Z"/>
  </g>
  <g id="bullet-char-template-10004" transform="scale(0.00048828125,-0.00048828125)">
   <path d="M 285,-33 C 182,-33 111,30 74,156 52,228 41,333 41,471 41,549 55,616 82,672 116,743 169,778 240,778 293,778 328,747 346,684 L 369,508 C 377,444 397,411 428,410 L 1163,1116 C 1174,1127 1196,1133 1229,1133 1271,1133 1292,1118 1292,1087 L 1292,965 C 1292,929 1282,901 1262,881 L 442,47 C 390,-6 338,-33 285,-33 Z"/>
  </g>
  <g id="bullet-char-template-9679" transform="scale(0.00048828125,-0.00048828125)">
   <path d="M 813,0 C 632,0 489,54 383,161 276,268 223,411 223,592 223,773 276,916 383,1023 489,1130 632,1184 813,1184 992,1184 1136,1130 1245,1023 1353,916 1407,772 1407,592 1407,412 1353,268 1245,161 1136,54 992,0 813,0 Z"/>
  </g>
  <g id="bullet-char-template-8226" transform="scale(0.00048828125,-0.00048828125)">
   <path d="M 346,457 C 273,457 209,483 155,535 101,586 74,649 74,723 74,796 101,859 155,911 209,963 273,989 346,989 419,989 480,963 531,910 582,859 608,796 608,723 608,648 583,586 532,535 482,483 420,457 346,457 Z"/>
  </g>
  <g id="bullet-char-template-8211" transform="scale(0.00048828125,-0.00048828125)">
   <path d="M -4,459 L 1135,459 1135,606 -4,606 -4,459 Z"/>
  </g>
  <g id="bullet-char-template-61548" transform="scale(0.00048828125,-0.00048828125)">
   <path d="M 173,740 C 173,903 231,1043 346,1159 462,1274 601,1332 765,1332 928,1332 1067,1274 1183,1159 1299,1043 1357,903 1357,740 1357,577 1299,437 1183,322 1067,206 928,148 765,148 601,148 462,206 346,322 231,437 173,577 173,740 Z"/>
  </g>
 </defs>
 <g>
  <g id="id2" class="Master_Slide">
   <g id="bg-id2" class="Background"/>
   <g id="bo-id2" class="BackgroundObjects"/>
  </g>
 </g>
 <g class="SlideGroup">
  <g>
   <g id="container-id1">
    <g id="id1" class="Slide" clip-path="url(#presentation_clip_path)">
     <g class="Page">
      <g class="Group">
       <g class="com.sun.star.drawing.ClosedBezierShape">
        <g id="id3">
         <rect class="BoundingBox" stroke="none" fill="none" x="2798" y="7109" width="15997" height="18539"/>
         <path fill="rgb(227,0,22)" stroke="none" d="M 2798,10240 L 2798,10268 C 2849,10298 2943,10406 2995,10456 3054,10514 3113,10593 3168,10666 3801,11502 3912,12781 3718,13790 3676,14006 3616,14199 3567,14406 3517,14616 3469,14826 3421,15039 3018,16792 2882,18584 3757,20216 3937,20551 4130,20883 4346,21159 L 4865,21789 C 4924,21863 4993,21914 5052,21986 5169,22130 5244,22174 5341,22271 5494,22423 5678,22589 5845,22725 6165,22986 6362,23146 6717,23399 7620,24042 8608,24603 9624,25104 9955,25267 10320,25449 10675,25599 10841,25669 10776,25658 10943,25585 11034,25545 11118,25505 11205,25463 12126,25023 12825,24645 13690,24117 14229,23788 15092,23176 15580,22737 15794,22545 15858,22493 16076,22275 16697,21655 17155,21107 17580,20305 18450,18666 18405,17028 18038,15103 17854,14138 17663,13396 17792,12349 17879,11637 18106,10966 18584,10459 18614,10427 18759,10288 18793,10273 L 18793,10242 C 18762,10216 17855,8755 17810,8682 17648,8419 17487,8156 17321,7899 17155,7642 17001,7368 16831,7112 L 16217,7111 15742,7114 15684,7111 15601,7113 15570,7112 15234,7109 14652,7112 14369,7115 C 14017,7133 13622,7117 13265,7117 L 11623,7117 C 11501,7116 11483,7099 11419,7180 11352,7265 10837,7876 10790,7914 10758,7868 10710,7818 10665,7768 L 10289,7323 C 10082,7096 10180,7116 9954,7117 9062,7119 8093,7135 7219,7116 L 6938,7117 6327,7109 C 6249,7126 6074,7123 5993,7112 L 5962,7113 5877,7112 5819,7113 5344,7112 4781,7112 C 4727,7123 4299,7850 4274,7889 3864,8531 3453,9226 3042,9859 2997,9929 2845,10198 2798,10240 Z"/>
        </g>
       </g>
       <g class="com.sun.star.drawing.ClosedBezierShape">
        <g id="id4">
         <rect class="BoundingBox" stroke="none" fill="none" x="9926" y="7397" width="1740" height="17938"/>
         <path fill="rgb(255,255,255)" stroke="none" d="M 9926,24938 C 10026,24987 10745,25337 10801,25333 10853,25329 11570,24973 11665,24923 L 11664,7397 C 11565,7397 11533,7491 11426,7609 11382,7657 11370,7675 11325,7726 11246,7816 10838,8295 10809,8346 10748,8316 10264,7718 10173,7615 10131,7567 10102,7539 10064,7491 10023,7440 10018,7397 9927,7397 L 9926,24938 Z"/>
        </g>
       </g>
       <g class="com.sun.star.drawing.ClosedBezierShape">
        <g id="id5">
         <rect class="BoundingBox" stroke="none" fill="none" x="8188" y="7397" width="1741" height="17541"/>
         <path fill="rgb(227,0,22)" stroke="none" d="M 8189,24007 C 8242,24059 8512,24200 8601,24250 8746,24331 8890,24406 9036,24486 9309,24637 9638,24809 9927,24937 L 9928,7397 8188,7397 8189,24007 Z"/>
        </g>
       </g>
       <g class="com.sun.star.drawing.ClosedBezierShape">
        <g id="id6">
         <rect class="BoundingBox" stroke="none" fill="none" x="11662" y="7397" width="1741" height="17526"/>
         <path fill="rgb(227,0,22)" stroke="none" d="M 11663,24922 C 11965,24782 12261,24610 12551,24456 12696,24378 12831,24298 12979,24213 13091,24149 13321,24027 13402,23956 L 13401,7397 11662,7397 11663,24922 Z"/>
        </g>
       </g>
       <g class="com.sun.star.drawing.ClosedBezierShape">
        <g id="id7">
         <rect class="BoundingBox" stroke="none" fill="none" x="6453" y="7397" width="1739" height="16611"/>
         <path fill="rgb(255,255,255)" stroke="none" d="M 6453,22844 C 6556,22946 6734,23061 6864,23156 7005,23258 7145,23353 7293,23452 7435,23547 7581,23643 7734,23737 7831,23796 8112,23974 8191,24007 L 8190,7397 6453,7397 6453,22844 Z"/>
        </g>
       </g>
       <g class="com.sun.star.drawing.ClosedBezierShape">
        <g id="id8">
         <rect class="BoundingBox" stroke="none" fill="none" x="13401" y="7397" width="1738" height="16560"/>
         <path fill="rgb(255,255,255)" stroke="none" d="M 13401,23956 C 13474,23923 13570,23857 13634,23815 13711,23765 13785,23720 13859,23671 14051,23547 15052,22856 15136,22732 L 15137,7397 13401,7397 13401,23956 Z"/>
        </g>
       </g>
       <g class="com.sun.star.drawing.ClosedBezierShape">
        <g id="id9">
         <rect class="BoundingBox" stroke="none" fill="none" x="4712" y="7395" width="1744" height="15450"/>
         <path fill="rgb(227,0,22)" stroke="none" d="M 4712,7734 L 4712,21161 C 4787,21319 5374,21914 5528,22056 L 5747,22262 C 5836,22354 6388,22817 6454,22844 L 6453,7397 4932,7396 C 4894,7417 4726,7688 4712,7734 Z"/>
        </g>
       </g>
       <g class="com.sun.star.drawing.ClosedBezierShape">
        <g id="id10">
         <rect class="BoundingBox" stroke="none" fill="none" x="15134" y="7396" width="1745" height="15337"/>
         <path fill="rgb(227,0,22)" stroke="none" d="M 15135,22732 C 15267,22671 15979,21984 16070,21887 16210,21738 16352,21582 16490,21416 16563,21328 16845,20986 16878,20900 L 16878,7735 C 16849,7645 16724,7490 16678,7396 L 15136,7397 15135,22732 Z"/>
        </g>
       </g>
       <g class="com.sun.star.drawing.ClosedBezierShape">
        <g id="id11">
         <rect class="BoundingBox" stroke="none" fill="none" x="7215" y="3306" width="7160" height="4610"/>
         <path fill="rgb(255,255,255)" stroke="none" d="M 7219,7117 C 8093,7136 9061,7120 9953,7118 10179,7117 10082,7096 10288,7324 L 10664,7769 C 10709,7819 10757,7869 10790,7915 10837,7877 11352,7266 11419,7180 11483,7099 11501,7117 11623,7118 L 13265,7118 C 13623,7118 14017,7134 14370,7116 14390,6521 14319,6035 14114,5536 13933,5093 13659,4681 13387,4417 13212,4248 13118,4141 12901,3986 12728,3861 12535,3741 12316,3641 10831,2963 9164,3362 8208,4408 7884,4763 7676,5048 7478,5525 7276,6013 7195,6531 7219,7117 Z"/>
        </g>
       </g>
       <g class="com.sun.star.drawing.ClosedBezierShape">
        <g id="id12">
         <rect class="BoundingBox" stroke="none" fill="none" x="3160" y="7735" width="1555" height="13428"/>
         <path fill="rgb(255,255,255)" stroke="none" d="M 4714,21162 L 4713,7735 C 4665,7784 3997,8873 3933,8971 L 3350,9906 C 3293,9998 3200,10125 3160,10214 3211,10292 3354,10409 3533,10699 4165,11729 4225,13163 3887,14301 3799,14599 3629,15397 3567,15720 3182,17739 3363,19293 4522,20916 4577,20992 4652,21103 4714,21162 Z"/>
        </g>
       </g>
       <g class="com.sun.star.drawing.ClosedBezierShape">
        <g id="id13">
         <rect class="BoundingBox" stroke="none" fill="none" x="16877" y="7736" width="1550" height="13166"/>
         <path fill="rgb(255,255,255)" stroke="none" d="M 16877,20901 C 17035,20738 17383,20089 17484,19853 18111,18391 18106,17129 17833,15555 17656,14534 17403,13706 17483,12596 17518,12099 17611,11655 17778,11225 17894,10923 18038,10675 18230,10433 18278,10372 18400,10252 18426,10202 L 16877,7736 16877,20901 Z"/>
        </g>
       </g>
       <g class="com.sun.star.drawing.ClosedBezierShape">
        <g id="id14">
         <rect class="BoundingBox" stroke="none" fill="none" x="12387" y="2295" width="3849" height="4820"/>
         <path fill="rgb(0,153,54)" stroke="none" d="M 15602,7114 L 15685,7112 15737,6688 C 15750,6624 15715,6698 15852,6618 15978,6545 16082,6450 16151,6301 16222,6147 16275,5772 16194,5606 16054,5654 15874,5844 15800,5978 15771,6030 15748,6099 15723,6147 L 15649,5660 C 16184,5235 15848,4551 15762,4504 15650,4691 15496,4812 15491,5153 15421,5017 15361,4870 15286,4731 15387,4568 15510,4464 15478,4148 15455,3924 15350,3732 15253,3595 15177,3657 15104,3820 15074,3911 15020,4073 15024,4171 15045,4346 L 14722,3964 C 14855,3648 14907,3442 14671,3078 14632,3018 14540,2897 14498,2872 14443,2952 14384,3131 14370,3250 14345,3454 14385,3521 14428,3695 14349,3638 14285,3586 14205,3530 14127,3475 14048,3432 13972,3375 14053,3141 14104,2990 13997,2740 13958,2648 13907,2563 13856,2498 13813,2445 13706,2351 13665,2295 L 13648,2295 C 13586,2473 13539,2621 13567,2827 13596,3043 13672,3122 13757,3261 13552,3176 13635,3206 13550,3104 13525,3074 13516,3064 13494,3038 13220,2713 12554,2734 12387,2855 12497,3054 12791,3302 13128,3336 13430,3366 13536,3257 13633,3294 13745,3338 13942,3449 14021,3513 13797,3507 13517,3529 13358,3649 13417,3764 13687,3908 13845,3945 14143,4014 14276,3914 14470,3846 14503,3883 14538,3905 14574,3941 14635,4001 14844,4210 14865,4266 14730,4201 14635,4158 14456,4153 14331,4149 14123,4175 14022,4225 14045,4283 14158,4399 14204,4434 14560,4703 14707,4668 15102,4582 15171,4700 15300,4897 15347,5047 15317,5031 15284,5002 15256,4984 15223,4961 15206,4949 15171,4932 14982,4839 14581,4805 14475,4881 14525,5024 14701,5191 14842,5275 15070,5412 15204,5382 15469,5365 15532,5460 15615,5913 15630,6047 15539,5861 15475,5765 15315,5664 15183,5581 14974,5504 14788,5503 14770,5669 14985,5968 15057,6031 15189,6149 15401,6251 15648,6253 15686,6538 15638,6839 15602,7114 Z"/>
        </g>
       </g>
       <g class="com.sun.star.drawing.ClosedBezierShape">
        <g id="id15">
         <rect class="BoundingBox" stroke="none" fill="none" x="5329" y="2295" width="3848" height="4820"/>
         <path fill="rgb(0,153,54)" stroke="none" d="M 5877,7113 L 5962,7114 C 5925,6891 5874,6481 5916,6253 6182,6251 6358,6154 6506,6030 6580,5968 6790,5672 6776,5503 6372,5506 6034,5750 5935,6053 5936,5921 6033,5455 6095,5364 6339,5392 6526,5397 6724,5276 6859,5194 7028,5032 7089,4881 7004,4820 6695,4843 6587,4866 6374,4912 6342,4968 6210,5056 6246,4950 6397,4663 6465,4584 6588,4605 6637,4642 6793,4643 7057,4644 7179,4567 7366,4426 7419,4387 7506,4287 7541,4225 7312,4105 6878,4142 6690,4271 6753,4149 7010,3934 7095,3846 7296,3937 7470,4007 7730,3942 7870,3907 8160,3752 8202,3649 8024,3530 7783,3505 7542,3513 7599,3459 7899,3301 7940,3289 8029,3263 8148,3368 8449,3334 8731,3303 9069,3073 9176,2855 9007,2738 8542,2766 8345,2846 8224,2895 8119,2978 8056,3051 7968,3151 7962,3217 7798,3262 7872,3193 7974,2989 7995,2837 8025,2618 7974,2476 7915,2295 L 7899,2295 C 7811,2421 7693,2446 7567,2740 7440,3037 7541,3199 7589,3375 7551,3412 7412,3494 7359,3530 7275,3587 7215,3641 7132,3694 7244,3332 7215,3189 7066,2872 7014,2901 6931,3017 6886,3084 6654,3430 6711,3665 6841,3964 L 6522,4343 C 6526,4163 6549,4094 6489,3912 6451,3797 6386,3663 6315,3599 6215,3686 6100,3974 6084,4145 6068,4324 6106,4475 6194,4617 6221,4659 6253,4687 6274,4731 6220,4862 6125,5010 6075,5152 6047,4887 5998,4765 5838,4563 5806,4523 5812,4525 5780,4508 5677,4641 5599,4952 5622,5152 5635,5266 5670,5371 5725,5456 5798,5569 5821,5586 5916,5661 5906,5741 5852,6086 5835,6139 5803,6087 5783,6017 5753,5962 5683,5836 5493,5645 5361,5604 5311,5841 5315,6078 5408,6293 5471,6439 5653,6634 5824,6665 L 5877,7113 Z"/>
        </g>
       </g>
       <g class="com.sun.star.drawing.ClosedBezierShape">
        <g id="id16">
         <rect class="BoundingBox" stroke="none" fill="none" x="5994" y="6328" width="730" height="795"/>
         <path fill="rgb(0,153,54)" stroke="none" d="M 5994,7113 C 6074,7124 6250,7127 6328,7110 6565,6922 6701,6752 6723,6328 6553,6330 6308,6511 6227,6585 6110,6693 5999,6875 5994,7113 Z"/>
        </g>
       </g>
       <g class="com.sun.star.drawing.ClosedBezierShape">
        <g id="id17">
         <rect class="BoundingBox" stroke="none" fill="none" x="14839" y="6327" width="731" height="787"/>
         <path fill="rgb(0,153,54)" stroke="none" d="M 15233,7110 L 15569,7113 C 15544,6874 15465,6699 15335,6586 15248,6510 15014,6337 14840,6327 14845,6880 15141,7006 15233,7110 Z"/>
        </g>
       </g>
       <g class="com.sun.star.drawing.ClosedBezierShape">
        <g id="id18">
         <rect class="BoundingBox" stroke="none" fill="none" x="5307" y="6758" width="516" height="359"/>
         <path fill="rgb(0,153,54)" stroke="none" d="M 5345,7114 L 5821,7115 C 5791,7036 5674,6940 5603,6893 5542,6852 5396,6755 5307,6759 5305,6894 5325,6988 5345,7114 Z"/>
        </g>
       </g>
       <g class="com.sun.star.drawing.ClosedBezierShape">
        <g id="id19">
         <rect class="BoundingBox" stroke="none" fill="none" x="15741" y="6753" width="512" height="363"/>
         <path fill="rgb(0,153,54)" stroke="none" d="M 15741,7115 L 16217,7112 C 16240,6974 16254,6905 16251,6753 16063,6791 15789,6995 15741,7115 Z"/>
        </g>
       </g>
       <g class="Group">
        <g class="com.sun.star.drawing.ClosedBezierShape">
         <g id="id20">
          <rect class="BoundingBox" stroke="none" fill="none" x="6925" y="3018" width="7729" height="4102"/>
          <path fill="rgb(227,0,22)" stroke="none" d="M 6938,7118 L 7219,7118 C 7194,6532 7276,6013 7478,5526 7676,5049 7884,4764 8208,4409 9164,3362 10831,2963 12316,3641 12535,3741 12728,3861 12901,3986 13118,4142 13212,4249 13387,4418 13659,4682 13933,5094 14114,5537 14318,6035 14390,6522 14370,7117 L 14652,7114 C 14652,6777 14657,6517 14596,6191 14449,5402 14099,4747 13588,4216 12441,3023 10683,2678 9163,3379 8772,3560 8294,3887 8008,4209 7970,4252 7918,4293 7881,4341 7746,4517 7717,4538 7563,4763 7143,5378 6860,6344 6938,7118 Z"/>
         </g>
        </g>
        <g class="com.sun.star.drawing.PolyPolygonShape">
         <g id="id21">
          <rect class="BoundingBox" stroke="none" fill="none" x="8517" y="4086" width="4664" height="2964"/>
          <path fill="rgb(227,0,22)" stroke="none" d="M 10700,5475 L 8517,5477 8517,5663 10699,5665 10700,7047 10887,7049 10888,5668 13179,5664 13180,5481 10893,5477 10887,4086 10701,4086 10700,5475 Z"/>
         </g>
        </g>
        <g class="com.sun.star.drawing.ClosedBezierShape">
         <g id="id22">
          <rect class="BoundingBox" stroke="none" fill="none" x="9331" y="5777" width="970" height="1176"/>
          <path fill="rgb(227,0,22)" stroke="none" d="M 9331,6941 C 9706,6941 10334,7047 10298,6578 10287,6436 10204,6370 10091,6331 10159,6268 10238,6226 10242,6085 10254,5697 9696,5786 9334,5786 L 9331,6941 Z"/>
         </g>
        </g>
        <g class="com.sun.star.drawing.ClosedBezierShape">
         <g id="id23">
          <rect class="BoundingBox" stroke="none" fill="none" x="11271" y="4190" width="1153" height="1156"/>
          <path fill="rgb(227,0,22)" stroke="none" d="M 11271,5340 L 11510,5345 11613,5083 12067,5082 12175,5343 12423,5344 C 12404,5247 11984,4228 11962,4190 L 11721,4190 11271,5340 Z"/>
         </g>
        </g>
        <g class="com.sun.star.drawing.ClosedBezierShape">
         <g id="id24">
          <rect class="BoundingBox" stroke="none" fill="none" x="11344" y="5803" width="1005" height="1204"/>
          <path fill="rgb(227,0,22)" stroke="none" d="M 12347,6628 L 12130,6560 C 12094,6622 12042,6859 11791,6791 11514,6717 11513,6129 11758,6028 11931,5958 12083,6050 12112,6198 L 12341,6145 C 12251,5663 11334,5635 11344,6427 11353,7145 12231,7175 12347,6628 Z"/>
         </g>
        </g>
        <g class="com.sun.star.drawing.ClosedBezierShape">
         <g id="id25">
          <rect class="BoundingBox" stroke="none" fill="none" x="9220" y="4203" width="1002" height="1203"/>
          <path fill="rgb(227,0,22)" stroke="none" d="M 10220,5034 C 10163,4998 10081,4980 10008,4962 L 9998,4981 C 9965,5050 9971,5079 9899,5144 9789,5243 9473,5264 9461,4829 9449,4423 9706,4351 9869,4433 9953,4476 9950,4511 9995,4593 L 10219,4547 C 10123,4054 9208,4044 9220,4829 9232,5554 10121,5562 10220,5034 Z"/>
         </g>
        </g>
        <g class="com.sun.star.drawing.ClosedBezierShape">
         <g id="id26">
          <rect class="BoundingBox" stroke="none" fill="none" x="9564" y="6437" width="495" height="311"/>
          <path fill="rgb(255,255,255)" stroke="none" d="M 9564,6746 L 9776,6746 C 9920,6746 10071,6745 10056,6577 10043,6424 9873,6437 9735,6437 L 9564,6437 9564,6746 Z"/>
         </g>
        </g>
        <g class="com.sun.star.drawing.ClosedBezierShape">
         <g id="id27">
          <rect class="BoundingBox" stroke="none" fill="none" x="9564" y="5976" width="452" height="282"/>
          <path fill="rgb(255,255,255)" stroke="none" d="M 9565,6241 C 9709,6267 10011,6277 10014,6113 10015,6011 9953,5984 9856,5979 9783,5976 9630,5972 9566,5984 L 9565,6241 Z"/>
         </g>
        </g>
        <g class="com.sun.star.drawing.PolyPolygonShape">
         <g id="id28">
          <rect class="BoundingBox" stroke="none" fill="none" x="11632" y="4541" width="311" height="415"/>
          <path fill="rgb(255,255,255)" stroke="none" d="M 11632,4952 L 11942,4954 11792,4541 11632,4952 Z"/>
         </g>
        </g>
       </g>
      </g>
     </g>
    </g>
   </g>
  </g>
 </g>
</svg>