<svg xmlns:dc="http://purl.org/dc/elements/1.1/" xmlns:cc="http://creativecommons.org/ns#" xmlns:rdf="http://www.w3.org/1999/02/22-rdf-syntax-ns#" xmlns:svg="http://www.w3.org/2000/svg" xmlns="http://www.w3.org/2000/svg" xmlns:sodipodi="http://sodipodi.sourceforge.net/DTD/sodipodi-0.dtd" xmlns:inkscape="http://www.inkscape.org/namespaces/inkscape" viewBox="0 0 197.28054 254.00002" height="254.00002" width="197.28053" xml:space="preserve" id="svg2" version="1.1" sodipodi:docname="medipol-istanbul-basaksehir-fk-seeklogo.com.svg" inkscape:version="0.92.4 (5da689c313, 2019-01-14)"><sodipodi:namedview pagecolor="#ffffff" bordercolor="#666666" borderopacity="1" objecttolerance="10" gridtolerance="10" guidetolerance="10" inkscape:pageopacity="0" inkscape:pageshadow="2" inkscape:window-width="1366" inkscape:window-height="705" id="namedview132" showgrid="false" fit-margin-top="2" fit-margin-right="2" fit-margin-bottom="2" fit-margin-left="2" inkscape:zoom="1.41343" inkscape:cx="94.897376" inkscape:cy="123.23085" inkscape:window-x="-8" inkscape:window-y="-8" inkscape:window-maximized="1" inkscape:current-layer="svg2"/><metadata id="metadata8"><rdf:RDF><cc:Work rdf:about=""><dc:format>image/svg+xml</dc:format><dc:type rdf:resource="http://purl.org/dc/dcmitype/StillImage"/><dc:title/></cc:Work></rdf:RDF></metadata><defs id="defs6"><clipPath id="clipPath20" clipPathUnits="userSpaceOnUse"><path id="path18" d="M 0,0 H 11340 V 14667.8 H 0 Z" inkscape:connector-curvature="0"/></clipPath><clipPath id="clipPath32" clipPathUnits="userSpaceOnUse"><path id="path30" d="m 5691.17,326.738 c 0,0 6759.23,872.902 5060.03,8518.172 -518.5,2332.69 269.6,5036.69 269.6,5036.69 0,0 -4497,-679.3 -5311.41,472 h -70.34 c -813.82,-1151.3 -5324.573,-490.8 -5324.573,-490.8 0,0 854.643,-2689 335.57,-5021.67 C -1049.18,1195.24 5718.82,180.969 5691.17,326.738 Z m -22,356.344 C 5219.86,759.746 2913.59,1242.34 1630.38,3219.95 719.172,4623.23 512.43,6481.46 1015.16,8743.09 1392.21,10436 1140.84,12249 961.109,13179.1 l -34.558,177.2 178.469,-20.8 c 680.84,-82 1364.14,-125.3 2049.88,-130 1177.03,0 1982.64,160.2 2464.01,489.5 l 73.5,50.3 73.56,-50.3 c 481.98,-329.3 1288.26,-489.5 2463.98,-489.5 686.19,4.6 1369.89,48 2051.15,130 l 178.5,20.8 -34.6,-177.2 C 10243.4,12249 9992.01,10436 10369.1,8743.09 10871.8,6480.79 10665,4624.47 9753.89,3221.24 8469.41,1242.34 6161.25,759.074 5711.31,683.082 l -22,-3.777 -22,3.777 z" inkscape:connector-curvature="0"/></clipPath><linearGradient id="linearGradient40" spreadMethod="pad" gradientTransform="matrix(-13196.71,10840.136,-10840.136,-13196.71,13802.871,2004.783)" gradientUnits="userSpaceOnUse" y2="0" x2="1" y1="0" x1="0"><stop id="stop34" offset="0" style="stop-opacity:1;stop-color:#246598"/><stop id="stop36" offset="0.5" style="stop-opacity:1;stop-color:#1db0ed"/><stop id="stop38" offset="1" style="stop-opacity:1;stop-color:#246598"/></linearGradient><clipPath id="clipPath50" clipPathUnits="userSpaceOnUse"><path id="path48" d="M 0,0 V 14668 H 11340 V 0 Z" inkscape:connector-curvature="0"/></clipPath><linearGradient id="linearGradient72" spreadMethod="pad" gradientTransform="matrix(2188.7588,0,0,2188.7588,2366.2589,9551.5651)" gradientUnits="userSpaceOnUse" y2="0" x2="1" y1="0" x1="0"><stop id="stop66" offset="0" style="stop-opacity:1;stop-color:#246598"/><stop id="stop68" offset="0.5" style="stop-opacity:1;stop-color:#1db0ed"/><stop id="stop70" offset="1" style="stop-opacity:1;stop-color:#246598"/></linearGradient><linearGradient id="linearGradient82" spreadMethod="pad" gradientTransform="matrix(1320.2973,0,0,1320.2973,4380.9445,11455.666)" gradientUnits="userSpaceOnUse" y2="0" x2="1" y1="0" x1="0"><stop id="stop76" offset="0" style="stop-opacity:1;stop-color:#246598"/><stop id="stop78" offset="0.5" style="stop-opacity:1;stop-color:#1db0ed"/><stop id="stop80" offset="1" style="stop-opacity:1;stop-color:#246598"/></linearGradient><linearGradient id="linearGradient94" spreadMethod="pad" gradientTransform="matrix(638.46198,0,0,638.46198,5097.3429,9380.9497)" gradientUnits="userSpaceOnUse" y2="0" x2="1" y1="0" x1="0"><stop id="stop88" offset="0" style="stop-opacity:1;stop-color:#246598"/><stop id="stop90" offset="0.5" style="stop-opacity:1;stop-color:#1db0ed"/><stop id="stop92" offset="1" style="stop-opacity:1;stop-color:#246598"/></linearGradient><linearGradient id="linearGradient104" spreadMethod="pad" gradientTransform="matrix(-4273.2228,2576.5,-2576.5,-4273.2228,8569.957,6538.5671)" gradientUnits="userSpaceOnUse" y2="0" x2="1" y1="0" x1="0"><stop id="stop98" offset="0" style="stop-opacity:1;stop-color:#246598"/><stop id="stop100" offset="0.5" style="stop-opacity:1;stop-color:#1db0ed"/><stop id="stop102" offset="1" style="stop-opacity:1;stop-color:#246598"/></linearGradient><linearGradient id="linearGradient114" spreadMethod="pad" gradientTransform="matrix(-1790.9702,-1822.3912,1822.3912,-1790.9702,9926.184,9610.9389)" gradientUnits="userSpaceOnUse" y2="0" x2="1" y1="0" x1="0"><stop id="stop108" offset="0" style="stop-opacity:1;stop-color:#246598"/><stop id="stop110" offset="0.5" style="stop-opacity:1;stop-color:#1db0ed"/><stop id="stop112" offset="1" style="stop-opacity:1;stop-color:#246598"/></linearGradient><linearGradient id="linearGradient128" spreadMethod="pad" gradientTransform="matrix(1658.3757,0,0,1658.3757,5546.0367,3374.8829)" gradientUnits="userSpaceOnUse" y2="0" x2="1" y1="0" x1="0"><stop id="stop122" offset="0" style="stop-opacity:1;stop-color:#246598"/><stop id="stop124" offset="0.5" style="stop-opacity:1;stop-color:#1db0ed"/><stop id="stop126" offset="1" style="stop-opacity:1;stop-color:#246598"/></linearGradient><linearGradient id="linearGradient138" spreadMethod="pad" gradientTransform="matrix(2230.9158,1633.9119,-1633.9119,2230.9158,3520.8067,5623.4244)" gradientUnits="userSpaceOnUse" y2="0" x2="1" y1="0" x1="0"><stop id="stop132" offset="0" style="stop-opacity:1;stop-color:#246598"/><stop id="stop134" offset="0.5" style="stop-opacity:1;stop-color:#1db0ed"/><stop id="stop136" offset="1" style="stop-opacity:1;stop-color:#246598"/></linearGradient><clipPath id="clipPath150" clipPathUnits="userSpaceOnUse"><path id="path148" d="m 1500.29,8021.03 -9.43,-54.66 220.58,-71.64 -130.7,-311.05 531.62,221.8 573.11,-86.7 -221.19,263.95 280.27,179.72 -460.62,-31.42 -251.38,157.73 -193.54,-210.53 -337.47,-57.2 z" inkscape:connector-curvature="0"/></clipPath><linearGradient id="linearGradient158" spreadMethod="pad" gradientTransform="matrix(1398.2183,2152.3167,-2152.3167,1398.2183,1274.1183,6609.5878)" gradientUnits="userSpaceOnUse" y2="0" x2="1" y1="0" x1="0"><stop id="stop152" offset="0" style="stop-opacity:1;stop-color:#246598"/><stop id="stop154" offset="0.5" style="stop-opacity:1;stop-color:#1db0ed"/><stop id="stop156" offset="1" style="stop-opacity:1;stop-color:#246598"/></linearGradient><clipPath id="clipPath168" clipPathUnits="userSpaceOnUse"><path id="path166" d="M 0,0 V 14668 H 11340 V 0 Z" inkscape:connector-curvature="0"/></clipPath><clipPath id="clipPath178" clipPathUnits="userSpaceOnUse"><path id="path176" d="m 2330.43,3339.37 c 216.07,-277.15 458.82,-528.52 728.28,-754.1 269.44,-225.64 559.58,-420.43 870.4,-584.43 l -11.31,244.49 664.23,251.37 -772.32,368.19 -201.08,654.82 -477.61,-402.16 -800.59,219.28 z" inkscape:connector-curvature="0"/></clipPath><linearGradient id="linearGradient186" spreadMethod="pad" gradientTransform="matrix(2251.606,0,0,2251.606,2330.4328,2760.2843)" gradientUnits="userSpaceOnUse" y2="0" x2="1" y1="0" x1="0"><stop id="stop180" offset="0" style="stop-opacity:1;stop-color:#246598"/><stop id="stop182" offset="0.5" style="stop-opacity:1;stop-color:#1db0ed"/><stop id="stop184" offset="1" style="stop-opacity:1;stop-color:#246598"/></linearGradient><clipPath id="clipPath196" clipPathUnits="userSpaceOnUse"><path id="path194" d="m 9765.18,4721.27 c 84.48,269.02 147.32,543 188.52,821.96 l -200.43,304.12 9.43,-583.13 -463.19,-251.36 466.91,-289.11 z" inkscape:connector-curvature="0"/></clipPath><linearGradient id="linearGradient204" spreadMethod="pad" gradientTransform="matrix(-1665.2915,1790.9754,-1790.9754,-1665.2915,10797.845,4062.7281)" gradientUnits="userSpaceOnUse" y2="0" x2="1" y1="0" x1="0"><stop id="stop198" offset="0" style="stop-opacity:1;stop-color:#246598"/><stop id="stop200" offset="0.5" style="stop-opacity:1;stop-color:#1db0ed"/><stop id="stop202" offset="1" style="stop-opacity:1;stop-color:#246598"/></linearGradient><clipPath id="clipPath214" clipPathUnits="userSpaceOnUse"><path id="path212" d="M 0,0 V 14668 H 11340 V 0 Z" inkscape:connector-curvature="0"/></clipPath></defs><g transform="matrix(0.08822794,0,0,-0.08822794,2,252.00001)" id="g10"><g transform="scale(0.193183)" id="g12"><g id="g14"><g clip-path="url(#clipPath20)" id="g16"><path id="path22" style="fill:#ffffff;fill-opacity:1;fill-rule:nonzero;stroke:none" d="M 5634.59,0 C 5271.42,0 2951.29,432.957 1417.34,2345.23 101.441,3984.76 -259.898,6194.89 343.375,8909 836.688,11129.2 23.5156,13741.5 14.7266,13767.9 c -4.0235,12.6 -7.21488,25.5 -9.6016,38.5 -2.39062,13.1 -3.94141,26.2 -4.660156,39.5 -0.71875,13.2 -0.609375,26.4 0.347656,39.7 0.96094,13.2 2.73438,26.3 5.35938,39.3 2.61328,13 6.03512,25.8 10.26952,38.4 4.2383,12.6 9.2578,24.8 15.0352,36.7 5.7812,12 12.3086,23.5 19.5586,34.6 7.2304,11.1 15.1523,21.7 23.7461,31.8 8.5859,10.1 17.7773,19.7 27.5737,28.6 9.801,8.9 20.122,17.2 30.961,24.9 10.844,7.6 22.133,14.5 33.86,20.7 11.715,6.2 23.773,11.7 36.195,16.4 12.41,4.6 25.07,8.5 37.961,11.6 12.906,3.1 25.953,5.3 39.145,6.7 13.175,1.5 26.402,2 39.664,1.8 13.265,-0.3 26.453,-1.3 39.582,-3.3 851.367,-115.8 1706.647,-177.6 2565.807,-185.3 1868.28,0 2340.19,382 2456.45,546.7 14.55,20.5 31.32,39 50.32,55.5 19,16.5 39.7,30.6 62.07,42.1 22.36,11.5 45.76,20.3 70.19,26.2 24.48,5.9 49.28,8.8 74.49,8.8 h 70.34 c 25.11,0 49.85,-3 74.29,-8.9 24.38,-6 47.72,-14.7 70.03,-26.2 22.31,-11.6 42.97,-25.6 61.92,-42.1 18.89,-16.4 35.66,-34.9 50.15,-55.4 343.77,-485.8 1792.24,-538.6 2399.28,-538.6 873.78,8.7 1743.24,73.9 2608.54,195.5 15.6,2.4 31.4,3.7 47.2,3.7 12.1,0 24.2,-0.7 36.3,-2.1 12.1,-1.4 24,-3.5 35.8,-6.3 11.9,-2.8 23.5,-6.2 34.9,-10.4 11.5,-4.1 22.6,-8.9 33.5,-14.3 10.8,-5.5 21.4,-11.5 31.5,-18.2 10.2,-6.6 20,-13.9 29.3,-21.6 9.3,-7.8 18.2,-16.1 26.5,-24.9 8.4,-8.9 16.2,-18.1 23.5,-27.9 7.3,-9.7 14,-19.8 20.1,-30.3 6.1,-10.5 11.6,-21.3 16.5,-32.4 4.9,-11.2 9.1,-22.6 12.6,-34.2 3.6,-11.6 6.4,-23.4 8.6,-35.4 2.2,-11.9 3.6,-24 4.4,-36.1 0.8,-12.1 0.8,-24.3 0.2,-36.4 -0.6,-12.1 -1.9,-24.2 -4,-36.2 -2,-12 -4.7,-23.8 -8.1,-35.5 -7.6,-26.3 -759.1,-2656.3 -264.6,-4880.2 562.5,-2528.74 283.4,-4615.1 -828.9,-6199.92 C 8722.64,566.82 6216.53,88.5703 5789.84,25.7266 5739.93,8.69922 5688.59,0.726563 5635.89,1.86328 L 5634.59,0" inkscape:connector-curvature="0"/><path id="path24" style="fill:#ffffff;fill-opacity:1;fill-rule:nonzero;stroke:none" d="M 679.586,13536.6 907.066,12228.3 1037.16,10601.9 858.68,9182.98 679.586,8289.38 549.504,6830.2 663.25,5367.29 972.43,4006.14 1554.97,2981.83 2267.59,2016.58 3121.6,1451 4110.09,918.094 c 0,0 764.16,-326.789 813.18,-326.789 49.01,0 803.1,-113.727 803.1,-113.727 l 699.44,194.789 1206.52,446.833 1244.88,879.73 578.78,506.57 565.61,785.46 462.5,942.63 227.5,828.91 130.1,1024.31 v 1016.75 l -195.5,955.83 -162.7,1123.59 -70.4,1019.92 v 1836.9 l 184.1,845.2 130.1,731.4 -706.4,-79.8 -811.26,-78.5 H 7392.3 l -808.76,159.6 -591.36,194.8 -290.34,130.1 -395.89,-227.5 -754.08,-257 -1440.32,-100.6 -1197.14,100.6 -845.84,78.5 H 679.586" inkscape:connector-curvature="0"/></g></g><g id="g26"><g clip-path="url(#clipPath32)" id="g28"><path id="path42" style="fill:url(#linearGradient40);fill-opacity:1;fill-rule:nonzero;stroke:none" d="m 5691.17,326.738 c 0,0 6759.23,872.902 5060.03,8518.172 -518.5,2332.69 269.6,5036.69 269.6,5036.69 0,0 -4497,-679.3 -5311.41,472 h -70.34 c -813.82,-1151.3 -5324.573,-490.8 -5324.573,-490.8 0,0 854.643,-2689 335.57,-5021.67 C -1049.18,1195.24 5718.82,180.969 5691.17,326.738 Z m -22,356.344 C 5219.86,759.746 2913.59,1242.34 1630.38,3219.95 719.172,4623.23 512.43,6481.46 1015.16,8743.09 1392.21,10436 1140.84,12249 961.109,13179.1 l -34.558,177.2 178.469,-20.8 c 680.84,-82 1364.14,-125.3 2049.88,-130 1177.03,0 1982.64,160.2 2464.01,489.5 l 73.5,50.3 73.56,-50.3 c 481.98,-329.3 1288.26,-489.5 2463.98,-489.5 686.19,4.6 1369.89,48 2051.15,130 l 178.5,20.8 -34.6,-177.2 C 10243.4,12249 9992.01,10436 10369.1,8743.09 10871.8,6480.79 10665,4624.47 9753.89,3221.24 8469.41,1242.34 6161.25,759.074 5711.31,683.082 l -22,-3.777 -22,3.777 h 1.86" inkscape:connector-curvature="0"/></g></g><g id="g44"><g clip-path="url(#clipPath50)" id="g46"><path id="path52" style="fill:#ed5e27;fill-opacity:1;fill-rule:nonzero;stroke:none" d="M 5655.97,930.051 C 5053.34,1041.86 2993.41,1549 1816.39,3357.59 1257.1,4219.15 973.688,5274.26 974.313,6493.36 c 7.078,741.06 94.217,1472.49 261.427,2194.45 139.23,655.65 206.25,1318.59 201.08,1988.89 -2.98,715.1 -62.89,1425.5 -179.72,2131 l -44,272.7 267.08,-26.4 c 586.94,-58.4 1166.34,-89.2 1675.35,-89.2 1098.47,0 1919.17,147 2439.52,439.9 l 97.36,55.3 99.34,-55.3 c 520.29,-290.4 1339.77,-439.9 2435.72,-439.9 512.78,0 1092.17,30.8 1679.13,89.2 l 267,26.4 -43.9,-272.7 c -117.2,-704.7 -176.93,-1414.1 -179.15,-2128.5 -5.28,-671.1 61.95,-1334.92 201.75,-1991.39 166.8,-721.8 253.7,-1453.02 260.8,-2193.77 0,-1218.53 -282.8,-2273.65 -842.09,-3135.21 C 8392.7,1549 6331.55,1041.86 5727.61,929.375 l -37.68,-6.883 -35.82,6.883 1.86,0.676" inkscape:connector-curvature="0"/><path id="path54" style="fill:#1d4a70;fill-opacity:1;fill-rule:nonzero;stroke:none" d="m 1815.75,10589.4 c 4.86,-675.42 -63,-1343.42 -203.6,-2004.03 -158.46,-682.21 -241.01,-1373.46 -247.6,-2073.78 0,-1139.91 257.44,-2106.45 772.33,-2899.48 1085.89,-1677.26 3040.27,-2149.2 3553.05,-2243.41 512.78,94.83 2469,565.53 3556.21,2245.28 515.31,791.84 773.56,1757.45 774.76,2896.98 -6.7,700.33 -89.25,1391.58 -247.54,2073.79 -141.01,661.18 -209.03,1329.83 -204.21,2005.85 2.53,678.5 56.78,1352.8 162.74,2022.9 -453.71,-42.7 -1005.46,-79.2 -1564.78,-79.2 -1100.97,0 -1912.27,142 -2474.7,439.9 -561.15,-299.8 -1373.06,-439.9 -2474.66,-439.9 -560.55,0 -1112.29,36.5 -1565.38,79.2 105.92,-670.6 160.38,-1345.3 163.38,-2024.1" inkscape:connector-curvature="0"/><path id="path56" style="fill:#ffffff;fill-opacity:1;fill-rule:nonzero;stroke:none" d="m 6398.79,11246.7 h 25.11 c 7.76,-0.1 15.27,-1.4 22.62,-3.8 7.55,-2.4 14.44,-5.9 20.75,-10.7 6.06,-4.6 10.87,-10.2 14.45,-16.9 3.83,-7.1 5.74,-14.6 5.64,-22.6 0.46,-10 -1.45,-19.4 -5.85,-28.3 -4.35,-8.9 -10.56,-16.3 -18.63,-22 -21.8,-13.5 -45.45,-19.4 -71.02,-17.6 -15.43,-0.1 -30.7,1.4 -45.87,4.4 -10.51,1.8 -20.55,4.9 -30.18,9.4 l 14.44,33.3 c 7.46,-3.5 15.22,-6 23.3,-7.5 9.68,-2.1 19.51,-3.2 29.5,-3.2 9.79,-0.2 18.79,2.3 27.02,7.6 7.2,3.6 10.98,9.5 11.34,17.6 0.11,7.4 -2.84,13.2 -8.8,17.6 -7.4,5 -15.58,7.3 -24.54,6.9 h -13.82 l -11.95,-3.2 -15.07,16.4 42.14,62.8 h 40.84 l -28.93,-42.1 z m -67.91,193.5 c -1.09,-11.1 -1.09,-22.2 0,-33.3 1.6,-9.3 5.43,-17.7 11.49,-25 6.06,-7.3 13.56,-12.6 22.46,-15.8 11.6,-4.2 23.51,-6.1 35.83,-5.7 16.92,0 31.98,5.3 45.23,15.7 7.1,6 12.38,13.3 15.95,21.8 3.52,8.5 4.92,17.4 4.19,26.6 0.16,10.4 -1.55,20.5 -5.07,30.2 -3.57,8.9 -9.06,16.4 -16.31,22.6 -9.11,7.6 -19.15,13.7 -30.17,18.2 -14.96,6.5 -30.29,12.2 -45.87,17 -21.69,6.6 -42.6,15 -62.84,25.1 -16.62,8.3 -31.47,19 -44.62,32.1 -12.01,12.3 -20.81,26.5 -26.4,42.7 -5.9,18.4 -8.59,37.3 -8.18,56.6 -1.66,21.6 1.5,42.5 9.42,62.7 7.92,20.2 19.88,37.6 35.82,52.3 18.02,13.6 37.84,23.6 59.48,30.1 21.64,6.5 43.69,9 66.21,7.6 22.72,0.2 45.14,-2.3 67.24,-7.5 19.51,-4.5 37.32,-12.7 53.42,-24.6 15.32,-11.5 27.07,-26 35.2,-43.3 8.85,-20 13.04,-41 12.58,-62.9 v -14.4 h -105.6 c 1.24,20.5 -3.37,39.5 -13.82,57.2 -5.39,7.1 -12.17,12.4 -20.29,16 -8.18,3.5 -16.67,4.9 -25.57,4.1 -10.62,0.4 -20.87,-1.3 -30.8,-5 -7.51,-2.9 -14.03,-7.3 -19.47,-13.2 -4.97,-5.7 -8.33,-12.2 -10.09,-19.5 -0.88,-7.6 -0.88,-15.1 0,-22.7 -0.42,-14.4 3.1,-27.8 10.71,-40.2 12.27,-14.6 27.54,-24.7 45.87,-30.1 l 84.84,-34.6 c 17.96,-7.1 34.94,-16.1 50.93,-27 12.06,-8.4 22.57,-18.4 31.37,-30.2 7.87,-10.8 13.36,-22.8 16.36,-35.8 3.1,-14.3 4.61,-28.7 4.4,-43.4 1.92,-22.8 -1.55,-44.7 -10.46,-65.8 -8.85,-21.2 -22.15,-39 -39.8,-53.6 -20.66,-13.5 -42.86,-23.5 -66.78,-29.8 -23.86,-6.4 -48.09,-8.8 -72.73,-7.2 -23.86,-2.3 -47.26,-0.2 -70.3,6.4 -22.98,6.7 -43.94,17.3 -62.94,31.9 -13.82,14.5 -24.22,31.1 -31.21,49.9 -7.04,18.8 -9.99,38.2 -9.01,58.2 v 20.7 h 110 v -15.1 h -0.67" inkscape:connector-curvature="0"/><path id="path58" style="fill:#ffffff;fill-opacity:1;fill-rule:nonzero;stroke:none" d="m 7628.55,11246.7 h 25.16 c 7.72,-0.1 15.27,-1.4 22.62,-3.8 7.51,-2.4 14.45,-5.9 20.71,-10.7 6.11,-4.6 10.92,-10.2 14.5,-16.9 3.82,-7.1 5.74,-14.6 5.64,-22.6 0.46,-10 -1.5,-19.4 -5.86,-28.3 -4.34,-8.9 -10.55,-16.3 -18.68,-22 -21.74,-13.5 -45.45,-19.4 -70.97,-17.6 -15.48,-0.1 -30.75,1.4 -45.86,4.4 -10.51,1.7 -20.55,4.9 -30.18,9.4 l 14.44,33.3 c 7.45,-3.5 15.17,-6 23.24,-7.5 9.73,-2.1 19.57,-3.2 29.51,-3.2 9.78,-0.2 18.84,2.3 27.07,7.6 7.2,3.6 10.98,9.5 11.34,17.6 -0.1,7.5 -3.21,13.4 -9.48,17.6 -7.34,5 -15.52,7.3 -24.48,6.9 l -13.2,0.6 -11.96,-3.1 -16.92,14.4 42.08,62.9 h 41.46 l -28.88,-42.1 z m -67.86,193.5 c -1.14,-11.1 -1.14,-22.2 0,-33.3 1.66,-9.3 5.44,-17.7 11.34,-25.1 6.16,-7.2 13.72,-12.4 22.62,-15.7 11.33,-4.2 23.09,-6 35.2,-5.7 16.87,0 31.99,5.2 45.24,15.7 7.04,6 12.37,13.3 15.89,21.8 3.57,8.5 4.97,17.4 4.2,26.6 0.15,10.4 -1.5,20.5 -5.02,30.2 -3.58,8.9 -9.06,16.4 -16.31,22.6 -9.16,7.6 -19.21,13.7 -30.18,18.2 -15.01,6.5 -30.28,12.2 -45.86,17 -21.69,6.6 -42.66,14.9 -62.85,25.1 -16.61,8.3 -31.52,19 -44.62,32.1 -12,12.3 -20.8,26.5 -26.39,42.7 -5.91,18.4 -8.65,37.3 -8.18,56.6 -1.66,21.6 1.44,42.5 9.37,62.7 7.97,20.2 19.93,37.6 35.87,52.3 18.01,13.6 37.84,23.6 59.42,30.1 21.69,6.5 43.75,9 66.26,7.6 22.73,0.2 45.14,-2.4 67.24,-7.5 19.47,-4.6 37.27,-12.7 53.43,-24.6 15.27,-11.5 26.96,-26 35.19,-43.3 8.86,-20 13.05,-41 12.58,-62.9 v -14.4 h -104.97 c 1.29,20.5 -3.32,39.5 -13.83,57.2 -5.38,7.1 -12.16,12.4 -20.34,16 -8.18,3.5 -16.67,4.9 -25.52,4.1 -10.61,0.4 -20.86,-1.3 -30.8,-5 -7.51,-3 -13.97,-7.4 -19.51,-13.2 -4.92,-5.7 -8.28,-12.2 -10.05,-19.5 -0.88,-7.6 -0.88,-15.1 0,-22.7 -0.46,-14.4 3.11,-27.8 10.72,-40.2 12.27,-14.6 27.59,-24.6 45.86,-30.1 l 84.85,-34.6 c 18.16,-7.1 35.35,-16.1 51.5,-27 12.16,-8.4 22.62,-18.4 31.42,-30.2 7.87,-10.8 13.3,-22.8 16.36,-35.8 3.1,-14.3 4.55,-28.7 4.4,-43.4 1.91,-22.8 -1.56,-44.7 -10.46,-65.8 -8.85,-21.2 -22.15,-39 -39.81,-53.6 -20.65,-13.5 -42.86,-23.5 -66.77,-29.8 -23.86,-6.4 -48.09,-8.8 -72.73,-7.2 -23.86,-2.3 -47.26,-0.2 -70.24,6.4 -23.04,6.7 -44.06,17.3 -63,31.9 -14.19,14.8 -24.75,31.8 -31.78,51.1 -6.99,19.2 -9.79,39.1 -8.44,59.5 v 20.7 h 109.99 v -15 l -1.29,-2.6" inkscape:connector-curvature="0"/><path id="path60" style="fill:#ffffff;fill-opacity:1;fill-rule:nonzero;stroke:none" d="m 5290.88,5438.88 v 745.35 c 358.83,-11.96 508.38,-88.62 565.58,-133.24 22.93,-17.29 43.48,-37.07 61.49,-59.48 18.01,-22.36 32.98,-46.59 44.93,-72.73 12.01,-26.09 20.55,-53.26 25.73,-81.58 5.18,-28.26 6.78,-56.68 4.82,-85.36 0,-125.68 -43.95,-178.48 -91.11,-213.01 -22,-16.36 -152.71,-94.26 -612.06,-100.58 z m 0,2283.06 v 502.73 c 88.88,2.96 172.69,-16.3 251.37,-57.82 6.36,-3.98 12.47,-8.39 18.22,-13.2 12.68,-10.82 23.55,-23.19 32.66,-37.06 15.43,-25.16 24.43,-52.39 27.02,-81.74 0.88,-14.23 0.88,-28.47 0,-42.7 1.87,-17.45 1.66,-34.89 -0.67,-52.28 -2.28,-17.4 -6.52,-34.27 -12.84,-50.68 -6.26,-16.36 -14.39,-31.78 -24.28,-46.23 -9.93,-14.49 -21.43,-27.59 -34.47,-39.34 -29.51,-25.78 -100.53,-66 -258.87,-77.28 z M 7068.05,4894.05 C 6996.36,4775.46 6909.7,4669.04 6808.14,4574.72 6706.58,4480.41 6593.99,4401.88 6470.38,4339.2 6226.57,4216.82 5889.74,4155.69 5459.94,4155.69 H 3968.07 v 3251.42 h 1234.19 c 246.76,0 430.26,52.12 550.51,156.48 29.92,26.45 56.53,55.91 79.82,88.36 23.35,32.51 42.76,67.14 58.34,103.94 15.53,36.81 26.82,74.86 33.86,114.2 6.98,39.39 9.57,78.99 7.71,118.9 0,27.12 -1.71,54.15 -5.02,81.06 -8.34,77.34 -33.5,148.77 -75.43,214.31 -25.25,38.61 -55.43,72.98 -90.48,103.06 -16.87,14.44 -34.68,27.64 -53.42,39.6 -70.92,39.65 -145.97,68.69 -225.17,87.07 -79.15,18.37 -159.34,25.36 -240.5,21.02 h -261.41 v -810.07 h -1013 v 1779.7 h 836.42 c 485.15,0 839.99,-31.41 1064.49,-94.25 74.03,-17.81 146.13,-41.41 216.32,-70.76 70.2,-29.35 137.65,-64.09 202.3,-104.26 64.65,-40.11 125.69,-85.15 183.14,-135.05 57.41,-49.9 110.52,-104.1 159.28,-162.54 46.75,-57.04 88.11,-117.71 124.03,-182.11 35.97,-64.39 66,-131.43 90.07,-201.1 24.07,-69.72 41.83,-141.01 53.26,-213.84 11.44,-72.83 16.36,-146.13 14.81,-219.84 1.65,-96.13 -8.13,-191.01 -29.4,-284.76 -21.23,-93.69 -53.32,-183.55 -96.29,-269.53 -51.19,-92.66 -112.06,-178.43 -182.57,-257.32 -70.55,-78.94 -148.97,-148.98 -235.32,-210.22 -57.87,-40.68 -118.43,-76.92 -181.59,-108.7 -243.86,-122.32 -580.69,-183.51 -1010.49,-183.51 H 4981.07 V 5126.58 h 251.37 c 418.93,0 702.54,53.42 850.85,160.26 36.18,26.56 68.53,57.2 97.05,91.83 28.58,34.63 52.39,72.26 71.54,112.9 19.16,40.58 33.03,82.93 41.62,126.98 8.59,44.05 11.6,88.46 9.11,133.29 2.02,52.49 -2.22,104.41 -12.73,155.86 -10.51,51.46 -26.97,100.94 -49.38,148.36 -22.42,47.52 -50.16,91.62 -83.24,132.41 -33.03,40.79 -70.51,77.08 -112.28,108.81 -157.52,123.61 -412.87,190.65 -766.06,201.16 434.25,9.37 777.35,80.39 1046.99,215.54 121.13,60.98 233.61,135.11 337.39,222.43 50.79,-32.14 99.29,-67.5 145.41,-105.96 46.13,-38.51 89.56,-79.87 130.29,-124.07 40.69,-44.21 78.32,-90.9 112.9,-140.03 34.58,-49.17 65.8,-100.37 93.64,-153.64 27.85,-53.26 52.08,-108.08 72.73,-164.5 20.66,-56.48 37.53,-113.99 50.63,-172.64 13.04,-58.69 22.26,-117.96 27.54,-177.8 5.33,-59.89 6.67,-119.79 4.08,-179.83 0.73,-72.27 -3.67,-144.22 -13.2,-215.86 -9.57,-71.64 -24.17,-142.2 -43.79,-211.77 -19.62,-69.57 -44.1,-137.33 -73.35,-203.43 -29.3,-66.06 -63.15,-129.72 -101.56,-190.91 z m 267.05,1805.44 c -108.49,163.11 -241.12,303.44 -397.8,421.05 l -54.62,40.22 c 69.42,81.37 128.69,169.53 177.81,264.57 54.92,108.08 96.18,221.13 123.77,339.21 27.64,118.07 40.85,237.7 39.6,358.93 1.45,91.63 -5.12,182.68 -19.72,273.16 -14.65,90.49 -37.06,178.95 -67.29,265.5 -30.23,86.5 -67.81,169.69 -112.75,249.61 -44.88,79.87 -96.43,155.19 -154.62,226 -58.91,70.82 -122.94,136.56 -192.25,197.12 -69.36,60.67 -142.97,115.44 -221.03,164.29 -78.01,48.9 -159.43,91.3 -244.23,127.22 -84.79,35.94 -171.85,64.93 -261.25,87 -251.37,71 -628.42,105.57 -1146.23,105.57 H 3657.64 V 3845.88 h 1802.3 c 483.22,0 859.03,70.97 1149.33,216.79 74.17,37.63 145.3,80.18 213.52,127.7 68.23,47.47 132.83,99.44 193.86,155.97 60.98,56.42 117.76,116.88 170.36,181.22 52.59,64.4 100.52,132.11 143.69,203.13 46.07,73.61 86.66,150.17 121.85,229.57 35.15,79.36 64.56,160.88 88.16,244.43 23.61,83.6 41.15,168.44 52.75,254.48 11.54,86.08 16.98,172.53 16.25,259.39 1.76,86.44 -2.79,172.58 -13.71,258.4 -10.93,85.83 -28.01,170.36 -51.36,253.6 -23.29,83.34 -52.53,164.45 -87.79,243.44 -35.2,79 -75.99,154.99 -122.37,228.03" inkscape:connector-curvature="0"/><path id="path62" style="fill:#ffffff;fill-opacity:1;fill-rule:nonzero;stroke:none" d="m 6398.79,11246.7 h 25.11 c 7.76,-0.1 15.27,-1.4 22.62,-3.8 7.55,-2.4 14.44,-5.9 20.75,-10.7 6.06,-4.6 10.87,-10.2 14.45,-16.9 3.83,-7.1 5.74,-14.6 5.64,-22.6 0.46,-10 -1.45,-19.4 -5.85,-28.3 -4.35,-8.9 -10.56,-16.3 -18.63,-22 -21.8,-13.5 -45.45,-19.4 -71.02,-17.6 -15.43,-0.1 -30.7,1.4 -45.87,4.4 -10.51,1.8 -20.55,4.9 -30.18,9.4 l 14.44,33.3 c 7.46,-3.5 15.22,-6 23.3,-7.5 9.68,-2.1 19.51,-3.2 29.5,-3.2 9.79,-0.2 18.79,2.3 27.02,7.6 7.2,3.6 10.98,9.5 11.34,17.6 -0.05,7.5 -3.21,13.4 -9.47,17.6 -7.35,5 -15.53,7.3 -24.49,6.9 h -14.44 l -11.96,-3.2 -13.82,16.4 42.14,62.8 h 40.84 l -28.93,-42.1 z m -67.91,193.5 c -1.09,-11.1 -1.09,-22.2 0,-33.3 1.6,-9.3 5.43,-17.7 11.49,-25 6.06,-7.3 13.56,-12.6 22.46,-15.8 11.6,-4.2 23.51,-6.1 35.83,-5.7 16.92,0 31.98,5.3 45.23,15.7 7.1,6 12.38,13.3 15.95,21.8 3.52,8.5 4.92,17.4 4.19,26.6 0.16,10.4 -1.55,20.5 -5.07,30.2 -3.57,8.9 -9.06,16.4 -16.31,22.6 -9.11,7.6 -19.15,13.7 -30.17,18.2 -14.96,6.5 -30.29,12.2 -45.87,17 -21.69,6.6 -42.6,15 -62.84,25.1 -16.62,8.3 -31.47,19 -44.62,32.1 -12.01,12.3 -20.81,26.5 -26.4,42.7 -5.9,18.4 -8.59,37.3 -8.18,56.6 -1.66,21.6 1.5,42.5 9.42,62.7 7.92,20.2 19.88,37.6 35.82,52.3 18.02,13.6 37.84,23.6 59.48,30.1 21.64,6.5 43.69,9 66.21,7.6 22.72,0.2 45.14,-2.3 67.24,-7.5 19.51,-4.5 37.32,-12.7 53.42,-24.6 15.27,-11.5 27.02,-26 35.2,-43.3 8.85,-20 13.04,-41 12.58,-62.9 v -14.4 h -105.6 c 1.24,20.5 -3.37,39.5 -13.82,57.2 -5.39,7.1 -12.17,12.4 -20.29,16 -8.18,3.5 -16.67,4.9 -25.57,4.1 -10.62,0.4 -20.87,-1.3 -30.8,-5 -7.51,-2.9 -14.03,-7.3 -19.47,-13.2 -4.97,-5.7 -8.33,-12.2 -10.09,-19.5 -0.88,-7.6 -0.88,-15.1 0,-22.7 -0.42,-14.4 3.1,-27.8 10.71,-40.2 12.27,-14.6 27.54,-24.7 45.87,-30.1 l 84.84,-34.6 c 17.96,-7.1 34.94,-16.1 50.93,-27 12.06,-8.4 22.57,-18.4 31.37,-30.2 7.82,-10.8 13.3,-22.8 16.36,-35.8 3.1,-14.3 4.61,-28.7 4.4,-43.4 1.92,-22.8 -1.55,-44.7 -10.46,-65.8 -8.85,-21.2 -22.15,-39 -39.8,-53.6 -20.66,-13.5 -42.86,-23.5 -66.78,-29.8 -23.86,-6.4 -48.09,-8.8 -72.73,-7.2 -23.86,-2.3 -47.26,-0.2 -70.3,6.4 -22.98,6.7 -43.94,17.3 -62.94,31.9 -13.82,14.5 -24.22,31.1 -31.21,49.9 -7.04,18.8 -9.99,38.2 -9.01,58.2 v 20.7 h 110 v -15.1 h -0.67" inkscape:connector-curvature="0"/><path id="path64" style="fill:#1e3a58;fill-opacity:1;fill-rule:evenodd;stroke:none" d="m 2379.45,5369.77 -81.7,588.82 -683.09,-23.24 674.92,664.24 76.03,925.64 468.8,-473.85 550.5,367.63 -299.12,-731.43 220.57,-463.8 -534.78,-175.33 -392.13,-678.68" inkscape:connector-curvature="0"/><path id="path74" style="fill:url(#linearGradient72);fill-opacity:1;fill-rule:evenodd;stroke:none" d="m 2582.42,8551.41 245.72,776.1 -461.89,280.92 717.01,307.28 349.4,635.99 309.18,-415.4 813.16,196 -597.62,-642.82 222.47,-759.1 -825.11,194.78 -16.34,3.79 -755.98,-577.54" inkscape:connector-curvature="0"/><path id="path84" style="fill:url(#linearGradient82);fill-opacity:1;fill-rule:evenodd;stroke:none" d="m 5001.18,10683.6 -201.72,510.9 -418.52,250.8 272.11,220.5 -125.06,561.9 412.24,-411 502.11,160.8 -128.84,-602.6 387.71,-543.6 -516.55,179.7 -183.48,-327.4" inkscape:connector-curvature="0"/><path id="path86" style="fill:#1e3a58;fill-opacity:1;fill-rule:evenodd;stroke:none" d="m 7176.76,9409.2 -129.47,811.3 -622.1,380.8 578.1,332.5 32.1,858.4 538.5,-631.6 840.81,206.7 -409.09,-844.5 444.29,-833.94 -813.17,260.16 -459.97,-539.82" inkscape:connector-curvature="0"/><path id="path96" style="fill:url(#linearGradient94);fill-opacity:1;fill-rule:evenodd;stroke:none" d="m 5318.52,9169.16 -201.71,-96.17 84.83,256.44 -104.3,187.87 194.78,21.99 133.86,247.6 53.43,-255.76 256.38,-48.38 -233.14,-193.54 -0.62,-314.21 -183.51,194.16" inkscape:connector-curvature="0"/><path id="path106" style="fill:url(#linearGradient104);fill-opacity:1;fill-rule:evenodd;stroke:none" d="m 5004.95,7180.23 153.96,690.01 -948.91,467.54 1222.92,194.17 572.46,974.67 510.3,-894.23 1140.57,-15.07 -916.85,-591.97 109.95,-666.72 -910.59,242.51 -933.81,-400.91" inkscape:connector-curvature="0"/><path id="path116" style="fill:url(#linearGradient114);fill-opacity:1;fill-rule:evenodd;stroke:none" d="m 9450.97,8946.68 -391.49,-45.86 -294.08,282.16 15.69,-348.16 -272.13,-104.3 316.75,-150.8 82.3,-268.34 196.09,164.66 351.89,-96.8 -190.39,280.93 185.37,286.51" inkscape:connector-curvature="0"/><path id="path118" style="fill:#1e3a58;fill-opacity:1;fill-rule:evenodd;stroke:none" d="m 8975.88,7668.52 -507.71,390.25 52.75,-371.41 -383.31,-20.76 466.29,-213.01 148.3,-281.54 316.69,96.79 485.76,-165.28 -250.07,272.75 312.3,220.57 -641,71.64" inkscape:connector-curvature="0"/><path id="path120" style="fill:#1e3a58;fill-opacity:1;fill-rule:evenodd;stroke:none" d="m 5929.34,4530.2 236.3,1008.01 -710.72,523.44 979.64,202.35 397.81,766.68 461.27,-674.96 1029.33,9.48 -696.28,-679.31 334.35,-987.25 -1055.16,430.43 -976.54,-598.87" inkscape:connector-curvature="0"/><path id="path130" style="fill:url(#linearGradient128);fill-opacity:1;fill-rule:evenodd;stroke:none" d="m 6154.93,2149.15 312.34,849.61 737.13,295.37 -512.16,492.07 165.91,814.4 -514.7,-582.55 -409.71,159.64 11.96,-689.4 -399.67,-621.48 461.27,20.08 147.63,-737.74" inkscape:connector-curvature="0"/><path id="path140" style="fill:url(#linearGradient138);fill-opacity:1;fill-rule:evenodd;stroke:none" d="m 4098.78,5833.52 153.33,317.37 -319.22,121.91 535.4,235.68 339.97,483.22 37.08,-348.74 328.03,80.39 -346.26,-317.31 -62.84,-297.23 -289.69,5.64 -375.8,-280.93" inkscape:connector-curvature="0"/><path id="path142" style="fill:#1e3a58;fill-opacity:1;fill-rule:evenodd;stroke:none" d="m 4396.65,5044.89 -521.59,590.69 -1.26,-877.87 -526.6,-396.52 591.97,-354.43 149.56,-852.76 416,607.04 817.57,-229.99 -485.14,879.74 354.44,931.34 -794.95,-297.24" inkscape:connector-curvature="0"/></g></g><g id="g144"><g clip-path="url(#clipPath150)" id="g146"><path id="path160" style="fill:url(#linearGradient158);fill-opacity:1;fill-rule:nonzero;stroke:none" d="m 1500.29,8021.03 -9.43,-54.66 220.58,-71.64 -130.7,-311.05 531.62,221.8 573.11,-86.7 -221.19,263.95 280.27,179.72 -460.62,-31.42 -251.38,157.73 -193.54,-210.53 -337.47,-57.2 h -1.25" inkscape:connector-curvature="0"/></g></g><g id="g162"><g clip-path="url(#clipPath168)" id="g164"><path id="path170" style="fill:#1e3a58;fill-opacity:1;fill-rule:nonzero;stroke:none" d="m 8411.59,2658.2 c 293.87,253.23 550.93,539.54 771.04,859.03 l -20.71,28.26 156.48,715.13 -638.51,-188.53 -635.93,569.98 81.07,-828.23 -730.24,-466.91 889.88,-287.82 130.03,-400.91 h -3.11" inkscape:connector-curvature="0"/></g></g><g id="g172"><g clip-path="url(#clipPath178)" id="g174"><path id="path188" style="fill:url(#linearGradient186);fill-opacity:1;fill-rule:nonzero;stroke:none" d="m 2330.43,3339.37 c 216.07,-277.15 458.82,-528.52 728.28,-754.1 269.44,-225.64 559.58,-420.43 870.4,-584.43 l -11.31,244.49 664.23,251.37 -772.32,368.19 -201.08,654.82 -477.61,-402.16 -800.59,219.28 v 2.54" inkscape:connector-curvature="0"/></g></g><g id="g190"><g clip-path="url(#clipPath196)" id="g192"><path id="path206" style="fill:url(#linearGradient204);fill-opacity:1;fill-rule:nonzero;stroke:none" d="m 9765.18,4721.27 c 84.48,269.02 147.32,543 188.52,821.96 l -200.43,304.12 9.43,-583.13 -463.19,-251.36 466.91,-289.11 -1.24,-2.48" inkscape:connector-curvature="0"/></g></g><g id="g208"><g clip-path="url(#clipPath214)" id="g210"><path id="path216" style="fill:#1e3a58;fill-opacity:1;fill-rule:nonzero;stroke:none" d="m 9636.96,9396.67 c -38.93,331.14 -59.69,660.43 -62.79,980.93 l -363.85,17 377.05,-502.76 -120.04,-548.59 168.38,50.26 1.25,3.16" inkscape:connector-curvature="0"/><path id="path218" style="fill:#1e3a58;fill-opacity:1;fill-rule:nonzero;stroke:none" d="m 1554.97,4944.37 c 98.71,-378.71 242.83,-739.19 432.34,-1081.51 l 86.73,-66.62 -71.02,498.33 514.04,27.64 -628.42,285.9 -199.2,377.05 -137.62,-42.09 3.15,1.3" inkscape:connector-curvature="0"/><path id="path220" style="fill:#ffffff;fill-opacity:1;fill-rule:nonzero;stroke:none" d="m 2320.38,11293.8 h -104.95 v 390.9 h 104.95 z m 0,439.9 h -104.95 v 84.2 h 104.95 v -85.4 1.2" inkscape:connector-curvature="0"/><path id="path222" style="fill:#ffffff;fill-opacity:1;fill-rule:nonzero;stroke:none" d="m 2486.27,11440.2 c -1.08,-10.8 -1.08,-21.7 0,-32.6 1.59,-9.4 5.37,-17.8 11.32,-25.2 6.21,-7.1 13.75,-12.4 22.61,-15.7 11.37,-4.1 23.1,-6 35.2,-5.6 16.91,-0.1 32,5.1 45.24,15.7 7.08,5.9 12.38,13.2 15.93,21.7 3.55,8.6 4.95,17.4 4.18,26.7 0.17,10.3 -1.5,20.4 -5.03,30.1 -3.72,8.8 -9.17,16.3 -16.33,22.7 -9.14,7.5 -19.2,13.6 -30.16,18.2 -15,6.4 -30.29,12.1 -45.87,16.9 -21.66,6.7 -42.61,15.1 -62.84,25.2 -16.61,8.2 -31.48,18.9 -44.63,32 -12,12.3 -20.8,26.5 -26.39,42.8 -5.85,18.1 -8.58,36.8 -8.18,55.9 -1.68,21.6 1.46,42.5 9.4,62.7 7.94,20.2 19.9,37.6 35.85,52.3 18.02,13.6 37.84,23.6 59.46,30.1 21.63,6.5 43.7,9 66.23,7.6 22.7,0.2 45.12,-2.4 67.24,-7.5 19.48,-4.6 37.29,-12.7 53.41,-24.6 15.31,-11.5 27.04,-26 35.2,-43.3 8.84,-20 13.03,-41 12.55,-62.9 v -14.4 h -104.94 c 1.27,20.5 -3.34,39.5 -13.83,57.2 -5.38,7.1 -12.16,12.4 -20.33,16 -8.15,3.5 -16.67,4.9 -25.53,4.1 -10.6,0.4 -20.86,-1.3 -30.79,-5 -7.53,-2.9 -14.03,-7.3 -19.49,-13.2 -4.93,-5.7 -8.27,-12.2 -10.05,-19.5 -0.9,-7.6 -0.9,-15.1 0,-22.7 -0.47,-14.4 3.09,-27.8 10.68,-40.2 12.28,-14.6 27.57,-24.7 45.88,-30.1 l 84.83,-34.6 c 17.96,-7.1 34.93,-16.1 50.9,-27 12.35,-8.3 23.03,-18.4 32.05,-30.2 7.81,-10.8 13.25,-22.8 16.34,-35.8 3.1,-14.3 4.58,-28.7 4.4,-43.4 1.93,-22.8 -1.55,-44.7 -10.44,-65.8 -8.89,-21.2 -22.17,-39 -39.84,-53.6 -20.62,-13.5 -42.86,-23.5 -66.73,-29.8 -23.87,-6.4 -48.13,-8.8 -72.77,-7.2 -23.83,-2.3 -47.25,-0.2 -70.27,6.4 -23,6.7 -43.99,17.3 -62.95,31.9 -14.18,14.8 -24.76,31.8 -31.77,51.1 -6.99,19.2 -9.82,39.1 -8.45,59.5 v 20.7 h 109.97 v -15 l -1.26,-2.6" inkscape:connector-curvature="0"/><path id="path224" style="fill:#ffffff;fill-opacity:1;fill-rule:nonzero;stroke:none" d="m 3112.8,11726.8 h -119.39 v -433 h -109.36 v 433 h -119.38 v 85.5 h 348.13 v -85.5" inkscape:connector-curvature="0"/><path id="path226" style="fill:#ffffff;fill-opacity:1;fill-rule:nonzero;stroke:none" d="m 3387.41,11489.3 -52.78,233.1 -52.79,-233.1 z m 14.46,323 144.54,-518.5 h -114.37 l -25.15,110 h -145.16 l -25.12,-110 H 3121.6 l 146.42,518.5 h 133.85" inkscape:connector-curvature="0"/><path id="path228" style="fill:#ffffff;fill-opacity:1;fill-rule:nonzero;stroke:none" d="m 3843.63,11457.2 h 1.9 v 355.1 h 100.54 v -518.5 h -125.05 l -134.47,363.3 h -1.27 v -363.3 h -101.17 v 518.5 h 126.93 l 132.59,-355.1" inkscape:connector-curvature="0"/><path id="path230" style="fill:#ffffff;fill-opacity:1;fill-rule:nonzero;stroke:none" d="m 4174.82,11371.1 c 22.67,-0.7 43.62,5 62.84,17 9.22,7.7 16,17.1 20.35,28.3 4.37,11.1 5.75,22.7 4.16,34.5 0.52,13 -1.56,25.6 -6.28,37.7 -3.93,9.4 -9.81,17.4 -17.6,23.9 -8.11,6.7 -17.33,11.1 -27.65,13.2 -10.48,1.1 -20.96,1.1 -31.43,0 h -47.12 v -155.8 z m -11.31,228.8 c 23.86,-1.8 46.06,3.4 66.61,15.7 7.45,6.6 13.02,14.6 16.67,23.9 3.64,9.3 5,18.9 4.06,28.9 1.08,9.7 -0.05,19.1 -3.36,28.2 -3.3,9.2 -8.46,17.2 -15.48,23.9 -19.15,12.5 -40.11,17.6 -62.85,15.1 h -39.58 v -135.7 z m 42.74,213 c 21.18,0.3 42.13,-1.8 62.83,-6.3 17.88,-3.9 34.22,-11.2 49.01,-22 14.35,-10.7 25.04,-24.3 32.05,-40.8 8.24,-20.2 12,-41.1 11.32,-62.9 0.63,-26.2 -6.28,-50.3 -20.73,-72.2 -15.68,-21.8 -36.63,-35.4 -62.85,-40.9 29,-2.8 53.09,-15.1 72.26,-37.1 19.17,-24.6 27.97,-52.4 26.4,-83.5 0.15,-19.7 -2.57,-39 -8.17,-57.9 -5.61,-18.5 -15.24,-34.6 -28.91,-48.4 -15.12,-15 -32.73,-26 -52.79,-33.2 -26.04,-9.1 -52.85,-13.3 -80.42,-12.6 h -184.13 v 517.2 l 184.13,0.6" inkscape:connector-curvature="0"/><path id="path232" style="fill:#ffffff;fill-opacity:1;fill-rule:nonzero;stroke:none" d="m 4549.35,11450.9 c -0.89,-11.9 -0.89,-23.8 0,-35.8 1.57,-10.1 4.93,-19.5 10.06,-28.3 5,-8.1 11.71,-14.4 20.11,-18.8 9.86,-5.1 20.34,-7.4 31.42,-6.9 11.29,-0.6 21.99,1.7 32.05,6.9 8.14,4.6 14.64,10.8 19.47,18.8 5.16,8.8 8.52,18.2 10.06,28.3 0.94,12 0.94,23.9 0,35.8 v 361.4 h 109.97 v -361.4 c 0.89,-28.2 -3.93,-55.5 -14.45,-81.7 -8.69,-20.2 -21.68,-37.2 -38.96,-50.9 -16.69,-12.7 -35.32,-21.1 -55.94,-25.1 -20.72,-4.2 -41.67,-6.3 -62.83,-6.3 -21.11,0 -42.06,1.9 -62.83,5.7 -20.45,3.4 -39.1,11.1 -55.94,23.2 -17.51,13.3 -30.5,30 -38.96,50.3 -10.7,27.3 -15.52,55.5 -14.46,84.8 v 361.4 h 109.98 v -361.4 h 1.25" inkscape:connector-curvature="0"/><path id="path234" style="fill:#ffffff;fill-opacity:1;fill-rule:nonzero;stroke:none" d="m 4857.28,11812.3 h 109.97 v -433 h 194.18 v -85.5 h -304.15 v 518.5" inkscape:connector-curvature="0"/><path id="path236" style="fill:#ffffff;fill-opacity:1;fill-rule:nonzero;stroke:none" d="m 5546.03,11371.1 c 22.67,-0.7 43.63,4.9 62.84,17 9.26,7.6 16.04,17 20.45,28.2 4.34,11.2 5.69,22.7 4.03,34.6 0.47,13 -1.6,25.6 -6.26,37.7 -3.93,9.4 -9.79,17.4 -17.6,23.9 -7.82,6.3 -16.56,10.5 -26.4,12.6 -10.92,2.5 -22.05,3.8 -33.29,3.7 h -47.15 V 11373 Z m -11.34,228.8 c 23.86,-1.9 46.07,3.4 66.62,15.7 7.56,6.6 13.25,14.5 17.03,23.8 3.73,9.3 5.18,19 4.35,29 1.09,9.7 -0.05,19.1 -3.37,28.2 -3.31,9.2 -8.48,17.2 -15.47,23.9 -19.15,12.5 -40.12,17.6 -62.85,15.1 h -39.59 v -135.7 z m 42.76,213 c 21.17,0.3 42.13,-1.8 62.84,-6.3 17.86,-3.9 34.21,-11.2 49.02,-22 14.29,-10.7 25,-24.4 32.04,-40.8 8.23,-20.2 12.01,-41.1 11.29,-62.9 0.67,-26.2 -6.27,-50.3 -20.71,-72.2 -15.73,-21.7 -36.65,-35.3 -62.84,-40.9 28.99,-2.7 53.11,-15.1 72.26,-37.1 19.15,-24.6 27.95,-52.4 26.4,-83.5 0.16,-19.7 -2.54,-39 -8.18,-57.9 -5.43,-18.4 -14.86,-34.6 -28.26,-48.4 -15.11,-15 -32.72,-26.1 -52.8,-33.2 -26.04,-9.1 -52.85,-13.3 -80.44,-12.6 h -188.53 v 517.2 l 187.91,0.6" inkscape:connector-curvature="0"/><path id="path238" style="fill:#ffffff;fill-opacity:1;fill-rule:nonzero;stroke:none" d="m 6044.98,11489.3 -52.8,233.1 -52.8,-233.1 z m 14.45,323 144.52,-518.5 H 6089.6 l -25.15,110 H 5919.3 l -25.16,-110 h -112.48 l 144.52,518.5 h 133.25" inkscape:connector-curvature="0"/><path id="path240" style="fill:#ffffff;fill-opacity:1;fill-rule:nonzero;stroke:none" d="m 6865.7,11489.3 -52.79,233.1 -52.8,-233.1 z m 14.45,323 144.52,-518.5 h -111.86 l -25.16,110 h -145.14 l -25.16,-110 H 6598.6 l 144.53,518.5 h 137.02" inkscape:connector-curvature="0"/><path id="path242" style="fill:#ffffff;fill-opacity:1;fill-rule:nonzero;stroke:none" d="m 7172.36,11604.9 h 1.24 l 138.88,207.4 h 119.37 l -148.25,-221.9 165.23,-296.6 h -123.77 l -112.48,213.1 -40.22,-59.1 v -154 h -110 v 518.5 h 110 v -207.4" inkscape:connector-curvature="0"/><path id="path244" style="fill:#ffffff;fill-opacity:1;fill-rule:nonzero;stroke:none" d="m 8172.75,11726.8 h -194.79 v -121.9 h 183.51 v -86.1 h -183.51 v -139.5 h 202.35 v -85.5 h -312.29 v 518.5 h 304.73 v -85.5" inkscape:connector-curvature="0"/><path id="path246" style="fill:#ffffff;fill-opacity:1;fill-rule:nonzero;stroke:none" d="m 8344.97,11812.3 v -198 h 128.17 v 198 h 110 v -518.5 h -110 v 230 h -128.17 v -230 h -109.94 v 518.5 h 109.94" inkscape:connector-curvature="0"/><path id="path248" style="fill:#ffffff;fill-opacity:1;fill-rule:nonzero;stroke:none" d="m 8765.4,11293.8 h -105.6 v 390.9 h 105.6 z m 0,439.9 h -105.6 v 84.2 h 105.6 v -85.4 1.2" inkscape:connector-curvature="0"/><path id="path250" style="fill:#ffffff;fill-opacity:1;fill-rule:nonzero;stroke:none" d="m 8998.5,11588.6 c 23.19,-2 44.1,3.8 62.84,17.5 8.33,8.2 14.39,17.9 18.17,28.9 3.72,11.1 4.81,22.4 3.21,34 0,47.8 -25.58,71.6 -76.67,71.6 h -52.17 v -152 z m 47.16,226.8 c 19.25,1.1 38.04,-1.1 56.47,-6.9 18.38,-5.7 35.15,-14.5 50.37,-26.4 13.61,-13 23.75,-28.4 30.43,-46 6.73,-17.6 9.37,-35.8 7.87,-54.5 1.4,-30.8 -5.95,-59.3 -22,-85.5 -8.02,-11.5 -17.96,-20.9 -29.87,-28.4 -11.9,-7.4 -24.74,-12.2 -38.61,-14.3 23.91,-1 44.88,-9.4 62.84,-25.2 15.01,-18.2 23.04,-39.2 23.86,-62.8 0,-9.4 0,-20.1 0,-31.4 0,-11.4 0,-23.9 0,-38.4 0,-27.6 0,-48.4 4.4,-62.8 1.71,-13 8.18,-22.9 19.52,-29.6 v -4.3 h -118.75 c -5.74,7.4 -9.31,15.8 -10.71,25.1 -0.52,9.8 -0.52,19.7 0,29.5 v 99.3 c 0.1,17.7 -5.13,33.6 -15.74,47.8 -13.67,13.3 -29.97,19.1 -49.02,17.6 h -59.06 v -219.3 h -109.95 v 513.4 l 197.95,3.1" inkscape:connector-curvature="0"/><path id="path252" style="fill:#ffffff;fill-opacity:1;fill-rule:nonzero;stroke:none" d="m 5290.88,5438.88 v 745.35 c 358.83,-11.96 508.38,-88.62 565.58,-133.24 22.93,-17.29 43.48,-37.07 61.49,-59.48 18.01,-22.36 32.98,-46.59 44.93,-72.73 12.01,-26.09 20.55,-53.26 25.73,-81.58 5.18,-28.26 6.78,-56.68 4.82,-85.36 0,-125.68 -43.95,-178.48 -91.11,-213.01 -22,-16.36 -152.71,-94.26 -612.06,-100.58 z m 0,2283.06 v 502.73 c 88.88,2.96 172.69,-16.3 251.37,-57.82 6.36,-3.98 12.47,-8.39 18.22,-13.2 12.68,-10.82 23.55,-23.19 32.66,-37.06 15.43,-25.16 24.43,-52.39 27.02,-81.74 0.88,-14.23 0.88,-28.47 0,-42.7 1.87,-17.45 1.66,-34.89 -0.67,-52.28 -2.28,-17.4 -6.52,-34.27 -12.84,-50.68 -6.26,-16.36 -14.39,-31.78 -24.28,-46.23 -9.93,-14.49 -21.43,-27.59 -34.47,-39.34 -29.51,-25.78 -100.53,-66 -258.87,-77.28 z M 7068.05,4894.05 C 6996.36,4775.46 6909.7,4669.04 6808.14,4574.72 6706.58,4480.41 6593.99,4401.88 6470.38,4339.2 6226.57,4216.82 5889.74,4155.69 5459.94,4155.69 H 3968.07 v 3251.42 h 1234.19 c 246.76,0 430.26,52.12 550.51,156.48 29.92,26.45 56.53,55.91 79.82,88.36 23.35,32.51 42.76,67.14 58.34,103.94 15.53,36.81 26.82,74.86 33.86,114.2 6.98,39.39 9.57,78.99 7.71,118.9 0,27.12 -1.71,54.15 -5.02,81.06 -8.34,77.34 -33.5,148.77 -75.43,214.31 -25.25,38.61 -55.43,72.98 -90.48,103.06 -16.87,14.44 -34.68,27.64 -53.42,39.6 -70.92,39.65 -145.97,68.69 -225.17,87.07 -79.15,18.37 -159.34,25.36 -240.5,21.02 h -261.41 v -810.07 h -1013 v 1779.7 h 836.42 c 485.15,0 839.99,-31.41 1064.49,-94.25 74.03,-17.81 146.13,-41.41 216.32,-70.76 70.2,-29.35 137.65,-64.09 202.3,-104.26 64.65,-40.11 125.69,-85.15 183.14,-135.05 57.41,-49.9 110.52,-104.1 159.28,-162.54 46.75,-57.04 88.11,-117.71 124.03,-182.11 35.97,-64.39 66,-131.43 90.07,-201.1 24.07,-69.72 41.83,-141.01 53.26,-213.84 11.44,-72.83 16.36,-146.13 14.81,-219.84 1.65,-96.13 -8.13,-191.01 -29.4,-284.76 -21.23,-93.69 -53.32,-183.55 -96.29,-269.53 -51.19,-92.66 -112.06,-178.43 -182.57,-257.32 -70.55,-78.94 -148.97,-148.98 -235.32,-210.22 -57.87,-40.68 -118.43,-76.92 -181.59,-108.7 -243.86,-122.32 -580.69,-183.51 -1010.49,-183.51 H 4981.07 V 5126.58 h 251.37 c 418.93,0 702.54,53.42 850.85,160.26 36.18,26.56 68.53,57.2 97.05,91.83 28.58,34.63 52.39,72.26 71.54,112.9 19.16,40.58 33.03,82.93 41.62,126.98 8.59,44.05 11.6,88.46 9.11,133.29 2.02,52.49 -2.22,104.41 -12.73,155.86 -10.51,51.46 -26.97,100.94 -49.38,148.36 -22.42,47.52 -50.16,91.62 -83.24,132.41 -33.03,40.79 -70.51,77.08 -112.28,108.81 -157.52,123.61 -412.87,190.65 -766.06,201.16 434.25,9.37 777.35,80.39 1046.99,215.54 121.13,60.98 233.61,135.11 337.39,222.43 50.79,-32.14 99.29,-67.5 145.41,-105.96 46.13,-38.51 89.56,-79.87 130.29,-124.07 40.69,-44.21 78.32,-90.9 112.9,-140.03 34.58,-49.17 65.8,-100.37 93.64,-153.64 27.85,-53.26 52.08,-108.08 72.73,-164.5 20.66,-56.48 37.53,-113.99 50.63,-172.64 13.04,-58.69 22.26,-117.96 27.54,-177.8 5.33,-59.89 6.67,-119.79 4.08,-179.83 0.73,-72.27 -3.67,-144.22 -13.2,-215.86 -9.57,-71.64 -24.17,-142.2 -43.79,-211.77 -19.62,-69.57 -44.1,-137.33 -73.35,-203.43 -29.3,-66.06 -63.15,-129.72 -101.56,-190.91 z m 267.05,1805.44 c -108.49,163.11 -241.12,303.44 -397.8,421.05 l -54.62,40.22 c 69.42,81.37 128.69,169.53 177.81,264.57 54.92,108.08 96.18,221.13 123.77,339.21 27.64,118.07 40.85,237.7 39.6,358.93 1.45,91.63 -5.12,182.68 -19.72,273.16 -14.65,90.49 -37.06,178.95 -67.29,265.5 -30.23,86.5 -67.81,169.69 -112.75,249.61 -44.88,79.87 -96.43,155.19 -154.62,226 -58.91,70.82 -122.94,136.56 -192.25,197.12 -69.36,60.67 -142.97,115.44 -221.03,164.29 -78.01,48.9 -159.43,91.3 -244.23,127.22 -84.79,35.94 -171.85,64.93 -261.25,87 -251.37,71 -628.42,105.57 -1146.23,105.57 H 3657.64 V 3845.88 h 1802.3 c 483.22,0 859.03,70.97 1149.33,216.79 74.17,37.63 145.3,80.18 213.52,127.7 68.23,47.47 132.83,99.44 193.86,155.97 60.98,56.42 117.76,116.88 170.36,181.22 52.59,64.4 100.52,132.11 143.69,203.13 46.07,73.61 86.66,150.17 121.85,229.57 35.15,79.36 64.56,160.88 88.16,244.43 23.61,83.6 41.15,168.44 52.75,254.48 11.54,86.08 16.98,172.53 16.25,259.39 1.76,86.44 -2.79,172.58 -13.71,258.4 -10.93,85.83 -28.01,170.36 -51.36,253.6 -23.29,83.34 -52.53,164.45 -87.79,243.44 -35.2,79 -75.99,154.99 -122.37,228.03" inkscape:connector-curvature="0"/><path id="path254" style="fill:#ffffff;fill-opacity:1;fill-rule:nonzero;stroke:none" d="m 5027.57,2638.06 c 5.54,18.95 14.76,35.93 27.65,50.89 13.16,14.85 28.87,26.19 47.14,33.96 20.14,8.23 41.07,12.21 62.84,11.95 17.34,0.26 34.26,-2.02 50.88,-6.93 16.77,-5.39 31.83,-13.77 45.24,-25.16 13.1,-11.34 23.19,-24.95 30.18,-40.84 7.92,-18.02 11.7,-36.86 11.34,-56.53 0.31,-18.43 -2.85,-36.24 -9.48,-53.42 -5.95,-15.12 -14.07,-28.99 -24.48,-41.46 -10.46,-12.43 -22.21,-23.56 -35.2,-33.34 -12.94,-9.63 -26.61,-19.05 -40.84,-28.26 l -42.1,-25.16 c -13.41,-7.87 -26.18,-16.67 -38.33,-26.4 -11.31,-9.01 -21.36,-19.25 -30.16,-30.75 -8.54,-11.23 -13.98,-23.81 -16.34,-37.73 h 232.53 v -48.4 h -295.37 c 1.41,23.76 6.22,46.79 14.45,69.15 6.89,17.97 16.31,34.53 28.28,49.64 11.45,13.98 24.43,26.3 38.95,37.07 14.46,10.71 29.55,20.76 45.26,30.18 l 50.3,32.66 c 12.99,9.01 24.95,19.26 35.77,30.8 9.68,9.99 17.03,21.48 22.05,34.48 5.02,12.94 7.3,26.4 6.89,40.27 0.31,11.85 -2.02,23.19 -6.94,33.95 -4.56,10.05 -10.82,18.85 -18.84,26.41 -8.13,7.29 -17.34,12.73 -27.64,16.35 -10.98,3.88 -22.3,5.75 -33.94,5.65 -14.57,0.51 -28.19,-2.85 -40.85,-10.1 -11.18,-6.47 -20.39,-15.01 -27.65,-25.72 -7.48,-11.19 -12.72,-23.35 -15.71,-36.45 -3.31,-13.41 -4.78,-27.07 -4.4,-40.84 h -54.04 c -1.26,21.33 1.05,42.29 6.91,62.84" inkscape:connector-curvature="0"/><path id="path256" style="fill:#ffffff;fill-opacity:1;fill-rule:nonzero;stroke:none" d="m 5415.94,2446.38 c 0.88,-20.29 4.25,-40.22 10.04,-59.68 5.34,-18.02 14.55,-33.7 27.65,-47.11 7.55,-6.31 15.94,-11.08 25.16,-14.39 9.26,-3.36 18.78,-4.97 28.57,-4.97 9.83,0 19.36,1.61 28.57,4.97 9.21,3.31 17.6,8.08 25.16,14.39 13.2,13.36 22.41,29.04 27.64,47.11 5.9,19.46 9.27,39.34 10.09,59.68 -0.05,21.38 -0.05,40.22 -0.05,57.87 0,17.55 0,23.2 0,37.07 -0.31,27.07 -4.09,53.68 -11.28,79.77 -3.16,12.26 -8.38,23.6 -15.69,33.95 -7.14,9.63 -15.94,17.39 -26.39,23.25 -12.32,5.84 -25.32,8.8 -38.98,8.8 -13.67,0 -26.66,-2.96 -38.98,-8.8 -10.46,-5.86 -19.26,-13.57 -26.4,-23.25 -7.25,-10.35 -12.48,-21.69 -15.69,-33.95 -3.57,-13.05 -6.31,-26.2 -8.18,-39.61 -0.82,-13.4 -0.82,-26.81 0,-40.16 0,-13.25 0,-25.78 0,-37.07 0,-11.33 0,-36.49 0,-57.87 z m -57.82,108.76 c 0.78,17.7 2.85,35.3 6.27,52.75 3.2,16.82 8.02,33.13 14.49,49.02 6.32,15.01 15.12,28.41 26.35,40.22 11.9,12.16 25.72,21.38 41.51,27.64 40.22,14.18 80.44,14.18 120.67,0 15.78,-6.21 29.61,-15.48 41.46,-27.64 11.28,-11.75 20.08,-25.16 26.4,-40.22 6.47,-15.84 11.28,-32.2 14.44,-49.02 3.42,-17.45 5.49,-35.05 6.26,-52.75 0,-18.07 0,-35.46 0,-52.18 0,-16.77 0,-34.16 0,-52.18 -0.72,-17.75 -2.84,-35.35 -6.26,-52.75 -3.21,-16.61 -8.02,-32.76 -14.44,-48.4 -6.32,-15.06 -15.12,-28.47 -26.4,-40.22 -11.8,-12.11 -25.68,-21.12 -41.46,-27.02 -40.48,-13.77 -80.86,-13.77 -121.29,0 -15.84,5.95 -29.66,14.96 -41.51,27.02 -11.23,11.8 -20.04,25.21 -26.4,40.22 -6.37,15.64 -11.19,31.79 -14.44,48.4 -3.42,17.4 -5.49,35 -6.27,52.75 0,17.6 0,35.2 0,52.18 0,16.98 0,33.96 0,52.18" inkscape:connector-curvature="0"/><path id="path258" style="fill:#ffffff;fill-opacity:1;fill-rule:nonzero;stroke:none" d="m 5844.5,2279.86 v 326.16 h -118.75 v 43.38 c 14.96,0.1 29.82,1.4 44.62,3.73 13.72,2.17 26.71,6.57 38.93,13.2 11.91,6.52 21.74,15.32 29.56,26.4 8.69,12.78 14.13,26.81 16.35,42.13 h 41.47 v -455 h -52.18" inkscape:connector-curvature="0"/><path id="path260" style="fill:#ffffff;fill-opacity:1;fill-rule:nonzero;stroke:none" d="M 6227.24,2657.53 6076.4,2435.1 h 152.09 v 222.43 z m 112.44,-222.43 v -48.4 h -62.84 v -106.84 h -50.89 v 106.84 h -197.32 v 52.8 l 206.12,295.98 h 43.38 V 2435.1 h 61.55" inkscape:connector-curvature="0"/><path id="path262" style="fill:#ffffff;fill-opacity:1;fill-rule:nonzero;stroke:none" d="m 7628.55,11246.7 h 25.16 c 7.72,-0.1 15.27,-1.4 22.62,-3.8 7.51,-2.4 14.45,-5.9 20.71,-10.7 6.11,-4.6 10.92,-10.2 14.5,-16.9 3.82,-7.1 5.74,-14.6 5.64,-22.6 0.46,-10 -1.5,-19.4 -5.86,-28.3 -4.34,-8.9 -10.55,-16.3 -18.68,-22 -21.74,-13.5 -45.45,-19.4 -70.97,-17.6 -15.48,-0.1 -30.75,1.4 -45.86,4.4 -10.51,1.7 -20.55,4.9 -30.18,9.4 l 14.44,33.3 c 7.45,-3.5 15.17,-6 23.24,-7.5 9.73,-2.1 19.57,-3.2 29.51,-3.2 9.78,-0.2 18.84,2.3 27.07,7.6 7.2,3.6 10.98,9.5 11.34,17.6 -0.1,7.5 -3.21,13.4 -9.48,17.6 -7.34,5 -15.52,7.3 -24.48,6.9 l -13.2,0.6 -11.96,-3.1 -16.92,14.4 42.08,62.9 h 41.46 l -28.88,-42.1 z m -67.86,193.5 c -1.14,-11.1 -1.14,-22.2 0,-33.3 1.66,-9.3 5.44,-17.7 11.34,-25.1 6.16,-7.2 13.72,-12.4 22.62,-15.7 11.33,-4.2 23.09,-6 35.2,-5.7 16.87,0 31.99,5.2 45.24,15.7 7.04,6 12.37,13.3 15.89,21.8 3.57,8.5 4.97,17.4 4.2,26.6 0.15,10.4 -1.5,20.5 -5.02,30.2 -3.58,8.9 -9.06,16.4 -16.31,22.6 -9.16,7.6 -19.21,13.7 -30.18,18.2 -15.01,6.5 -30.28,12.2 -45.86,17 -21.69,6.6 -42.66,14.9 -62.85,25.1 -16.61,8.3 -31.52,19 -44.62,32.1 -12,12.3 -20.8,26.5 -26.39,42.7 -5.91,18.4 -8.65,37.3 -8.18,56.6 -1.66,21.6 1.44,42.5 9.37,62.7 7.97,20.2 19.93,37.6 35.87,52.3 18.01,13.6 37.84,23.6 59.42,30.1 21.69,6.5 43.75,9 66.26,7.6 22.73,0.2 45.14,-2.4 67.24,-7.5 19.47,-4.6 37.27,-12.7 53.43,-24.6 15.27,-11.5 26.96,-26 35.19,-43.3 8.86,-20 13.05,-41 12.58,-62.9 v -14.4 h -104.97 c 1.29,20.5 -3.32,39.5 -13.83,57.2 -5.38,7.1 -12.16,12.4 -20.34,16 -8.18,3.5 -16.67,4.9 -25.52,4.1 -10.61,0.4 -20.86,-1.3 -30.8,-5 -7.51,-3 -13.97,-7.4 -19.51,-13.2 -4.92,-5.7 -8.28,-12.2 -10.05,-19.5 -0.88,-7.6 -0.88,-15.1 0,-22.7 -0.46,-14.4 3.11,-27.8 10.72,-40.2 12.27,-14.6 27.59,-24.6 45.86,-30.1 l 84.85,-34.6 c 18.16,-7.1 35.35,-16.1 51.5,-27 12.16,-8.4 22.62,-18.4 31.42,-30.2 7.87,-10.8 13.3,-22.8 16.36,-35.8 3.1,-14.3 4.55,-28.7 4.4,-43.4 1.91,-22.8 -1.56,-44.7 -10.46,-65.8 -8.85,-21.2 -22.15,-39 -39.81,-53.6 -20.65,-13.5 -42.86,-23.5 -66.77,-29.8 -23.86,-6.4 -48.09,-8.8 -72.73,-7.2 -23.86,-2.3 -47.26,-0.2 -70.24,6.4 -23.04,6.7 -44.06,17.3 -63,31.9 -14.19,14.8 -24.75,31.8 -31.78,51.1 -6.99,19.2 -9.79,39.1 -8.44,59.5 v 20.7 h 109.99 v -15 l -1.29,-2.6" inkscape:connector-curvature="0"/></g></g></g></g></svg>