<svg xmlns="http://www.w3.org/2000/svg" xmlns:xlink="http://www.w3.org/1999/xlink" xml:space="preserve" width="2080px" height="2251px" style="shape-rendering:geometricPrecision; text-rendering:geometricPrecision; image-rendering:optimizeQuality; fill-rule:evenodd; clip-rule:evenodd" viewBox="0 0 2127.77 2302.52">
 <defs>
  <style type="text/css">
   <![CDATA[
    .str0 {stroke:#1F1A17;stroke-width:40.457}
    .fil2 {fill:#007D3C}
    .fil4 {fill:#00923F}
    .fil0 {fill:#1F1A17}
    .fil3 {fill:#FFF500}
    .fil1 {fill:white}
   ]]>
  </style>
 </defs>
 <g id="Ebene_x0020_1">
  <metadata id="CorelCorpID_0Corel-Layer"/>
  <path class="fil0" d="M2127.77 1652.79c-82.6647,-35.547 -165.752,-68.1025 -251.841,-95.51 -71.0952,-22.2703 -138.764,-40.2601 -205.155,-55.68l-20.9824 -4.70827 -3.4276 20.986 -39.4035 228.71 -2.99628 16.7055 15.4151 5.56245c103.221,39.8372 203.443,86.5188 302.377,135.347l206.014 -251.413z"/>
  <path class="fil0" d="M0 1652.79c82.6611,-35.547 165.752,-68.1025 251.837,-95.51 71.0988,-22.2703 139.198,-40.2601 205.585,-55.68l20.5559 -4.70827 3.85529 20.986 39.4023 228.71 2.57342 16.7055 -15.4224 5.56245c-103.217,39.8372 -203.439,86.5188 -302.378,135.347l-206.009 -251.413z"/>
  <path class="fil0" d="M1064.31 2302.52l-24.8377 -14.9886c-316.511,-193.167 -556.359,-408.171 -717.825,-669.432 -161.897,-262.116 -243.7,-568.345 -243.7,-944.817l0 -291.243 986.363 -382.04 985.509 382.04 0 291.243c0,376.473 -81.8069,682.701 -243.7,944.817 -161.469,261.261 -401.311,476.265 -717.395,669.432l-24.4136 14.9886z"/>
  <path class="fil1" d="M1064.31 2247.27c-621.027,-379.043 -939.25,-839.888 -939.25,-1573.99l0 -259.119 939.25 -363.624 938.396 363.624 0 259.119c0,734.099 -318.223,1194.95 -938.396,1573.99z"/>
  <path class="fil2" d="M1064.31 2186.02c289.528,-180.744 509.671,-380.328 657.433,-619.746 152.044,-245.842 228.71,-535.369 228.71,-892.995l0 -223.571 -886.143 -343.496 -886.998 343.496 0 223.571c0,357.626 77.0902,647.153 228.707,892.995 148.194,239.418 367.906,439.002 658.291,619.746z"/>
  <path class="fil3" d="M1064.31 310.945c430.007,0 781.642,351.201 781.642,782.069 0,302.378 -173.892,565.778 -426.587,695.978 -107.073,54.8222 -227.849,68.5302 -355.055,68.5302 -148.189,0 -286.958,-24.4136 -405.166,-96.3678 -225.71,-137.483 -376.9,-385.899 -376.9,-668.14 0,-430.867 351.205,-782.069 782.066,-782.069z"/>
  <path class="fil2" d="M65.1026 1668.64l151.617 185.026c72.8084,-35.547 140.911,-66.3869 204.297,-92.9402 -35.9783,-46.2538 -68.9567,-93.3703 -99.3641,-142.625 -6.85157,-11.1346 -13.2767,-22.2715 -20.1331,-33.8326 -12.4176,3.85046 -24.8365,7.70575 -37.6867,11.561 -62.5316,20.1319 -128.492,43.6877 -198.729,72.8108z"/>
  <path class="fil2" d="M1064.31 352.917c406.881,0 739.239,332.357 739.239,740.097 0,406.878 -332.357,739.235 -739.239,739.235 -407.736,0 -740.093,-332.357 -740.093,-739.235 0,-407.739 332.357,-740.097 740.093,-740.097z"/>
  <path class="fil3" d="M1656.65 1368.83c-5.5709,7.27927 -10.2792,11.9924 -14.5646,14.1357 -5.99497,2.99628 -11.9887,2.99628 -17.9861,0.426486 -6.42509,-2.99749 -10.7069,-8.1407 -12.849,-14.9886 -2.14331,-8.9985 -0.431319,-19.274 4.71189,-31.6965l19.7017 -43.6853 2.14331 0.857806c-1.71682,4.28178 -2.57463,6.85157 -2.14331,8.99125 0,1.71561 0.426486,2.99749 1.28067,4.2854 0.862638,0.857806 3.85529,2.56979 8.56839,4.7131l56.1065 24.8377c4.7131,2.1421 7.71059,2.9999 8.99488,2.9999 1.71199,0 2.99749,-0.430111 4.28178,-1.71199 1.2855,-1.28792 2.99749,-3.4276 4.7131,-7.70938l2.56979 1.2855 -18.4162 41.1143c-4.7131,10.2804 -8.56718,16.7006 -12.4225,20.1282 -3.4276,3.4276 -7.28289,5.14442 -11.9912,5.99497 -4.7131,0.857806 -8.99488,0.430111 -12.8502,-1.28188 -4.28178,-1.71561 -7.27927,-5.13959 -8.99125,-9.42136 -2.1421,-4.7131 -2.1421,-11.1382 -0.857806,-19.2753z"/>
  <path class="fil2" d="M1663.93 1343.99l-27.8424 -12.4189 -2.99628 -1.2855c-2.56979,-0.857806 -4.2854,-1.28912 -5.99739,-0.430111 -1.71199,0.430111 -2.99749,2.13847 -4.28178,4.2854 -1.28912,3.42397 -2.14331,6.85157 -1.71682,10.2792 0,3.42397 1.2855,6.85157 3.42881,9.42136 2.1421,2.99749 5.13959,5.13717 8.56718,6.85278 4.28178,1.71199 8.13707,2.13847 12.4189,1.71199 3.85408,-0.427695 7.28289,-1.71199 9.85268,-4.70947 2.99628,-2.57342 5.56607,-7.28289 8.56718,-13.7068z"/>
  <path class="fil2" d="M1668.64 1346.13c-2.56979,6.00102 -3.85529,10.7105 -3.85529,14.5658 0.427695,3.42397 1.2855,6.42388 2.99749,8.99005 1.71561,2.571 4.71189,4.71672 8.56718,6.42509 3.4276,1.71561 6.85157,2.56979 10.2792,2.14693 2.99749,-0.431319 5.99497,-1.71561 8.13707,-4.2854 2.56979,-2.13968 5.13959,-6.42509 8.13707,-12.4189l-34.2627 -15.4236z"/>
  <path class="fil3" d="M1752.59 1212.08l-10.2804 47.5357 -2.56979 -0.422862 0.857806 -2.57463c0.427695,-3.4276 0.854181,-5.99377 0.427695,-7.70575 -0.427695,-1.28792 -1.2855,-2.57342 -2.56979,-3.4276 -1.28188,-0.857806 -4.7131,-1.71561 -9.85268,-3.00111l-45.3973 -9.42136c-8.1407,-1.71199 -13.7031,-2.56979 -16.7043,-1.71199 -2.99749,0.431319 -5.56728,2.13847 -8.13707,4.70947 -2.1421,2.56979 -3.85408,5.99739 -4.70827,10.2792 -1.28912,5.14321 -0.857806,9.42136 0.426486,13.2767 1.71199,4.2854 4.28178,7.713 7.70575,10.2792 3.85529,2.56979 10.2804,4.7131 20.1331,6.8564l37.6903 8.13586c4.28178,0.854181 7.28289,0.854181 9.42136,0.427695 1.71682,-0.427695 2.99749,-1.2855 4.28661,-2.56617 1.28067,-1.71561 2.56617,-4.28903 3.42397,-8.1407l2.56979 0.431319 -6.85157 32.1194 -2.571 -0.857806 0.427695 -1.71199c0.431319,-2.57342 0.431319,-4.7131 -0.427695,-6.85157 -0.430111,-1.71561 -1.71561,-3.4276 -3.85408,-4.7131 -1.2855,-0.857806 -3.85529,-1.71199 -7.70938,-2.56979l-35.1217 -7.28289c-10.7069,-2.56617 -18.4162,-4.71189 -23.1257,-7.27806 -4.2854,-2.571 -8.13949,-6.85278 -10.7105,-13.2803 -2.99628,-6.42146 -3.42397,-14.5585 -1.28429,-23.9835 1.71561,-8.13707 3.85529,-14.1308 6.85157,-17.5584 4.2854,-5.13717 8.9985,-8.56477 14.1345,-10.2768 5.13959,-1.28429 11.1382,-1.28429 18.8439,0.427695l45.4045 9.42136c5.56607,0.857806 8.56356,1.2855 10.2755,0.857806 1.28429,-0.430111 2.56979,-0.857806 3.4276,-2.1421 1.2855,-1.2855 2.13968,-3.85529 2.99749,-7.71059l2.56979 0.431319z"/>
  <path class="fil3" d="M1695.19 1187.24l-32.9784 -5.5709 5.99377 -83.9417 2.56979 0 -0.426486 3.42397c0,2.56979 0.426486,4.7131 1.28429,6.42146 0.427695,1.28792 1.2855,2.57342 2.99749,3.4276 1.28429,0.431319 3.85529,0.857806 8.56718,1.2855l62.1015 4.28178c4.7131,0.426486 8.13707,0.426486 8.9985,0 1.28067,-0.42407 2.56979,-1.71199 3.42397,-2.99386 1.28429,-1.71561 1.71199,-3.4276 2.14331,-6.42871l0 -2.99628 2.56979 0 -3.42881 50.5405 -2.56979 -0.431319 0.431319 -3.85529c0,-2.99265 -0.431319,-5.13959 -1.28912,-6.84795 -0.426486,-1.28792 -1.71199,-2.14572 -2.99628,-3.00353 -1.2855,-0.427695 -3.85529,-0.850557 -8.56839,-1.28188l-60.3847 -4.28178c-4.7131,-0.431319 -7.71421,-0.431319 -8.9985,0 -1.71199,0.854181 -2.56979,1.70836 -3.42397,3.42397 -0.431319,0.857806 -0.857806,3.85529 -1.2855,8.1407l-0.426486 7.70575c-0.431319,5.14321 0.426486,9.4262 1.71199,12.8538 1.71199,3.42035 4.28178,6.42025 7.70938,9.42136 3.85529,2.56979 8.99125,5.13596 16.2741,8.13345l0 2.57342z"/>
  <path class="fil3" d="M1765.44 1078.88l-32.5507 2.99749 0 -2.99749c8.13707,-2.56979 14.1345,-6.85157 18.4162,-12.849 3.85529,-5.99377 5.5709,-12.4225 5.13959,-19.7017 -0.426486,-5.99377 -2.56979,-11.137 -6.42388,-15.8464 -3.85529,-4.28178 -8.56839,-7.70938 -14.1345,-9.42499 -7.28289,-2.13968 -15.4163,-2.99749 -23.9835,-2.13968 -8.13707,0.427695 -15.8464,2.13968 -22.6992,5.13596 -6.8552,2.57342 -11.5635,6.42871 -14.5646,11.1382 -3.42397,5.14321 -4.70947,11.137 -3.85529,18.4162 0.431319,5.5709 2.14331,11.137 5.13959,15.8501 3.00111,4.7131 8.13707,9.42136 14.9935,14.1345l-8.13707 0.854181c-5.9986,-4.70947 -10.7105,-9.85268 -13.708,-15.42 -2.99628,-5.5697 -4.7131,-11.9912 -5.13596,-19.7005 -1.28912,-9.84906 0,-19.2704 3.42397,-27.4111 3.42397,-8.13707 8.56356,-14.5622 15.8464,-19.2704 7.27927,-5.14442 14.9886,-7.71421 23.557,-8.56839 8.99367,-0.854181 17.5584,0.854181 26.1256,4.7131 8.56356,3.85529 15.42,9.84906 20.5559,17.5584 5.13959,7.27927 8.1407,15.8464 8.56718,24.8413 0.857806,6.42509 0,13.7031 -2.13847,21.4174 -1.28912,4.28178 -2.14331,6.85157 -1.71682,8.13345 0,1.28792 0.427695,2.56979 1.71682,3.85408 1.28067,0.857806 2.99628,1.28912 5.56607,1.71561l0 2.56979z"/>
  <path class="fil3" d="M1678.49 921.265l-32.5483 7.28168 -27.4147 -79.2359 2.56979 -0.854181 0.857806 2.99749c0.859014,2.56617 2.14331,4.28178 3.85529,5.5697 0.857806,0.854181 2.14331,1.70836 3.85529,1.70836 1.28429,0 4.2854,-0.854181 8.56356,-2.13847l58.6812 -20.1294c4.70827,-1.71561 7.70575,-2.99628 8.56356,-3.85408 0.857806,-0.857806 1.71561,-2.14693 2.13968,-3.85892 0,-1.70836 0,-3.85529 -0.854181,-6.42146l-1.2855 -2.9999 2.56979 -0.854181 16.2741 47.5393 -2.13968 0.857806 -1.28429 -3.85529c-1.2855,-2.56979 -2.14331,-4.2854 -3.85529,-5.5697 -0.857806,-1.28188 -2.14331,-1.71199 -3.85529,-1.71199 -1.28429,0 -4.28178,0.430111 -8.56718,2.1421l-56.9619 19.6981c-4.71189,1.28912 -7.70938,2.57342 -8.56718,3.4276 -0.857806,1.2855 -1.71199,2.57342 -1.71199,4.2854 0,1.2855 0.854181,3.85529 2.14331,8.13345l2.56617 7.28289c1.71561,4.71189 3.85771,8.56718 6.42388,11.137 3.00111,2.56979 6.42509,4.2854 10.7105,5.56728 4.7131,0.857806 10.7069,1.28429 18.4175,0.857806l0.854181 2.99749z"/>
  <path class="fil3" d="M1645.08 825.327l-30.8351 13.708 -41.9757 -72.812 2.56979 -1.2855 1.28429 2.56617c1.2855,2.57463 2.99749,4.28661 4.7131,5.14442 1.2855,0.857806 2.56979,0.857806 4.28178,0.857806 1.2855,-0.431319 3.85529,-1.28912 8.13707,-3.85529l53.5367 -31.27c4.28178,-2.13847 6.8564,-3.85408 7.71059,-5.13596 0.857806,-0.857806 1.28429,-2.1421 1.28429,-4.2854 0,-1.71561 -0.857806,-3.85529 -2.13847,-5.99377l-1.71561 -2.56979 2.56979 -1.2855 24.8413 43.6853 -2.13968 1.28792 -2.14693 -3.85408c-1.28067,-2.14693 -2.56617,-3.85892 -4.28178,-4.7131 -1.28067,-0.857806 -2.56979,-1.2855 -4.28178,-0.857806 -1.28429,0 -3.85529,1.2855 -8.13707,3.42397l-52.2524 30.4122c-4.28178,2.13847 -6.85157,3.85408 -7.70938,5.13959 -0.857806,1.28429 -0.857806,2.56979 -0.857806,4.28178 0.431319,1.2855 1.71561,3.85529 3.85529,7.70938l3.85408 6.85278c2.56979,4.2854 5.56728,7.70575 8.56839,9.42136 3.42397,2.13847 7.27806,3.4276 11.5647,3.4276 4.71189,0 10.7057,-0.431319 17.9885,-2.56979l1.71199 2.56979z"/>
  <path class="fil3" d="M1566.28 711.828l-20.9897 -26.1256 -9.84906 2.99628c-2.99628,0.859014 -5.56607,1.71682 -6.85157,3.00111 -2.14331,1.71199 -3.00111,3.85529 -2.56979,6.42146 0,1.28792 1.71199,3.85892 4.28178,8.1407l-1.71199 1.71199 -19.7017 -24.4112 1.71199 -1.71561c2.56979,2.13968 5.56728,3.4276 8.56839,3.85529 3.42397,0 8.56356,-0.857806 16.2729,-2.56617l80.0913 -21.4174 0.430111 0.857806 -38.5481 75.3818c-3.85529,7.27927 -5.56728,12.4189 -5.99739,14.9886 0,2.13847 0.857806,4.27815 2.56979,6.85157l-2.13968 1.71199 -28.6954 -35.5482 2.13847 -1.71199 0.857806 1.2855c2.56979,2.99628 4.2854,4.7131 5.99739,5.13959 1.2855,0.427695 2.571,0 3.85529,-0.857806 0.427695,-0.426486 0.857806,-0.857806 1.71199,-1.71561 0,-0.427695 0.857806,-2.13968 2.56979,-5.13596l5.99739 -11.1382z"/>
  <polygon class="fil2" points="1568.84,706.692 1585.12,675.423 1550.86,684.42 "/>
  <path class="fil3" d="M1519.17 623.601c5.13596,7.70575 8.13586,13.708 8.56356,18.4162 0.857806,6.42509 -0.854181,12.4189 -5.56728,17.132 -4.70827,5.5709 -10.7069,7.70938 -18.4162,7.28289 -8.56718,-0.857806 -17.9898,-5.56728 -27.8376,-14.5658l-35.1217 -32.9784 1.71199 -1.71199c2.99749,3.00111 5.5709,4.70947 7.28289,5.14079 1.71199,0.426486 2.99749,0.426486 4.70947,-0.431319 1.28429,-0.426486 3.4276,-2.56979 7.28289,-5.99377l41.5456 -44.9732c3.42397,-3.85529 5.56607,-6.42509 5.99377,-7.70696 0.426486,-1.28429 0.426486,-2.99628 -0.427695,-4.71189 -0.430111,-1.71199 -2.1421,-3.85529 -5.56607,-6.8564l1.71199 -1.70836 33.4049 30.8363c7.70938,7.27806 12.849,13.2803 14.5646,17.5584 2.13968,4.71189 2.56617,8.9985 2.13968,13.7068 -0.857806,4.7131 -2.56979,8.56356 -5.56728,11.5647 -2.99628,3.4276 -7.28168,5.13959 -11.9912,5.56728 -4.7131,0.430111 -11.1382,-1.2855 -18.4162,-5.56728z"/>
  <path class="fil2" d="M1498.18 608.608l-20.5547 22.2752 -2.56979 2.56979c-1.71199,1.70836 -2.571,3.85529 -2.571,5.56728 0,1.70836 0.859014,3.42397 2.99749,5.13596 2.56979,2.57342 5.56728,4.2854 8.99488,5.13959 3.4276,0.857806 6.85157,0.857806 10.2792,0 3.42397,-1.28429 6.42509,-3.42397 8.99488,-5.99377 2.99749,-3.4276 5.13959,-6.85157 5.99377,-11.1382 0.857806,-3.85408 0.431319,-7.27806 -1.28429,-11.137 -1.71199,-3.42035 -5.13596,-7.27564 -10.2804,-12.4189z"/>
  <path class="fil2" d="M1502.03 604.753c4.7131,4.7131 8.56718,7.28289 11.996,8.56839 3.4276,0.854181 6.42025,0.854181 9.42136,0 2.99628,-0.857806 5.99739,-2.57342 8.99488,-5.56728 2.99628,-3.00111 4.71189,-6.42871 5.13959,-9.42499 0.854181,-2.99749 0.426486,-5.99497 -0.857806,-8.99125 -1.2855,-3.4276 -4.7131,-7.28289 -9.42257,-11.5683l-25.2714 26.9834z"/>
  <path class="fil3" d="M1484.04 533.23l-13.7031 21.4137 -2.14331 -1.28429c2.14331,-5.5709 2.99749,-10.2804 2.56617,-13.2767 0,-3.42518 -1.28067,-6.42871 -2.99265,-9.42257 -0.857806,-1.71561 -3.4276,-3.4276 -7.28289,-5.99739l-5.99739 -3.4276 -38.5457 61.6774c-2.56979,4.27815 -3.85408,6.85157 -4.2854,8.13345 0,1.28792 0.431319,2.57342 1.2855,4.2854 0.857806,1.71561 2.1421,2.99749 4.71189,4.7131l2.571 1.71199 -1.2855 2.1421 -41.9733 -26.5533 1.2855 -2.1421 2.56979 1.71199c2.56979,1.71199 4.70947,2.14331 6.42509,2.56979 1.28429,0 2.99628,-0.426486 4.28178,-1.71561 0.857806,-0.42407 2.56979,-2.99749 5.13959,-6.85157l38.5457 -61.675 -5.56728 -3.85408c-5.56728,-3.42397 -9.84906,-4.70947 -14.1345,-3.85529 -5.13596,0.857806 -10.2804,4.2854 -14.9886,9.4262l-2.14331 -1.2855 13.708 -21.8438 71.953 45.3997z"/>
  <path class="fil3" d="M1345.71 453.14c14.1345,5.56366 23.5558,14.5609 28.2689,26.9798 4.70947,12.4225 4.28178,24.8413 -1.2855,37.6915 -5.13959,11.1334 -12.4225,19.274 -22.7016,24.8413 -13.2767,7.28168 -27.8388,7.28168 -43.2576,0.426486 -15.42,-6.85157 -25.269,-17.5584 -29.1231,-31.6929 -2.99749,-11.5647 -1.71199,-22.7016 3.42397,-34.2627 5.5709,-12.8502 14.5646,-21.4174 27.4111,-26.1305 12.4225,-4.70827 24.845,-3.85046 37.2638,2.14693z"/>
  <path class="fil2" d="M1344.85 457.422c-8.13707,-3.4276 -15.8464,-2.14331 -23.5534,4.28178 -6.4275,5.13959 -11.9948,13.7044 -17.5621,26.1268 -6.85157,14.9886 -8.99488,26.9834 -6.85157,36.4012 1.2855,6.42871 5.56728,11.1382 11.9912,14.1345 4.28299,1.71682 8.56839,2.571 12.4225,1.71682 4.70947,-1.2855 9.41895,-4.28299 14.1308,-9.42257 5.14079,-4.71189 9.42257,-11.9948 13.708,-21.8438 5.13596,-11.561 7.70938,-20.5595 8.13707,-26.9846 0.430111,-6.42388 -0.427695,-11.9912 -2.56979,-15.8464 -2.56979,-3.42397 -5.56728,-6.42025 -9.85268,-8.56356z"/>
  <path class="fil3" d="M1221.93 411.591c14.9923,2.57342 26.1292,9.42136 33.4085,20.5595 7.27927,11.137 9.42136,23.5558 6.42509,37.2626 -2.56979,11.9924 -8.13707,21.4174 -16.7043,28.693 -11.5647,10.2828 -25.6991,13.2803 -42.3998,9.85268 -16.7055,-3.85167 -28.2689,-11.9924 -35.1217,-25.269 -5.13959,-10.2792 -6.42388,-21.8402 -3.85408,-33.835 2.99628,-13.708 9.85268,-24.4148 21.4161,-31.2628 11.1346,-7.28289 23.5534,-9.42499 36.8301,-6.00102z"/>
  <path class="fil2" d="M1221.93 416.303c-8.13707,-1.71199 -15.8464,1.28912 -21.8414,8.99488 -5.13959,5.99497 -8.99367,15.8501 -11.9948,29.1231 -3.42397,15.8513 -2.99386,28.2689 0.857806,36.8373 2.57342,5.99739 7.70938,9.84906 14.5658,11.561 4.70827,0.857806 8.99005,0.430111 12.4189,-0.854181 4.71189,-2.14331 8.56718,-6.42509 12.4176,-11.9924 3.42881,-6.00102 6.42871,-14.1345 8.56839,-24.4136 2.56979,-12.4189 3.4276,-21.8402 2.56979,-28.2653 -1.2855,-6.42871 -2.99749,-11.5683 -5.99739,-14.5658 -2.99749,-3.42397 -6.85278,-5.5709 -11.5647,-6.42509z"/>
  <path class="fil3" d="M1106.72 400.884l-2.56979 38.5481 2.56979 0.427695c4.28178,0 7.70938,-0.427695 10.7069,-1.2855 2.56979,-0.854181 4.7131,-2.99628 6.85157,-5.99377 2.14331,-2.56979 3.4276,-6.42509 4.7131,-11.5683l2.13847 0 -3.42397 47.543 -2.1421 -0.426486c-0.427695,-8.99488 -2.14331,-14.9886 -5.99377,-17.9898 -3.85529,-2.99628 -8.1407,-5.13959 -12.8502,-5.13959l-3.00111 -0.431319 -2.13847 29.1316c0,4.70827 0,7.70575 0.426486,8.99005 0.431319,1.28188 1.28912,2.13968 3.00111,3.42881 1.28188,0.857806 3.42397,1.71199 5.99377,1.71199l2.99749 0.426486 0 2.14331 -49.2513 -3.42397 0 -2.57463 3.42397 0.427695c2.56979,0 4.71189,0 6.42388,-0.857806 1.28912,-0.850557 2.56979,-1.70836 2.99749,-3.42035 0.857806,-0.857806 1.28912,-3.85529 1.71561,-8.56718l4.2854 -62.1051c0,-4.7131 0,-7.71059 -0.430111,-8.99488 -0.427695,-1.28188 -1.2855,-2.56979 -2.56979,-3.4276 -1.71199,-0.854181 -3.85529,-1.71199 -6.42509,-1.71199l-2.99749 -0.427695 0 -2.56979 79.2335 5.56728 -1.71561 26.9834 -2.571 0c0,-6.42388 -1.70836,-11.1334 -3.85408,-14.5609 -2.56979,-2.99749 -6.42146,-5.5709 -11.1346,-7.27927 -2.99628,-0.857806 -8.13224,-1.71199 -15.4151,-2.14331l-8.99488 -0.430111z"/>
  <path class="fil3" d="M915.698 409.451l55.2499 50.5405 -5.9986 -40.2601c-0.854181,-5.56728 -2.56617,-8.99488 -4.28178,-10.7069 -2.56979,-2.56979 -6.42509,-2.99749 -11.9912,-2.14331l0 -2.56617 30.8387 -5.14321 0 2.57342c-3.85529,1.28188 -5.99739,2.56979 -7.28289,3.42035 -1.28429,0.86143 -2.1421,2.57342 -2.56979,4.2854 -0.426486,2.13968 -0.426486,5.13959 0.427695,9.42257l11.9948 77.9504 -2.14331 0.431319 -75.3806 -67.6712 9.42136 59.1004c0.857806,5.56607 2.56979,8.99367 5.14321,10.2792 2.99749,1.71561 5.99377,2.14331 8.99125,1.71561l2.14331 -0.426486 0.426486 2.56617 -32.9784 5.13959 -0.426486 -2.56979c5.13959,-0.857806 8.56718,-2.56979 10.2792,-4.70947 1.71199,-2.57342 2.14331,-5.99377 1.2855,-11.137l-10.7105 -65.9568 -2.13968 -2.13847c-2.56979,-2.14331 -4.28178,-3.4276 -5.99377,-3.85529 -1.71561,-0.434944 -3.85408,-0.857806 -6.8552,-0.434944l-0.427695 -2.56617 32.9784 -5.13959z"/>
  <path class="fil3" d="M845.456 500.679l-31.2652 11.9924 -0.427695 9.85148c0,3.42518 0.427695,5.99497 0.857806,7.71059 1.2855,2.56617 2.56617,3.85408 5.14079,4.28178 1.71199,0.426486 4.70827,-0.427695 9.42136,-1.71561l0.857806 2.56979 -29.5544 11.137 -0.857806 -2.56979c3.00111,-1.71561 5.13959,-3.85408 6.42509,-6.85157 1.2855,-2.99749 2.14331,-8.1407 2.56979,-16.2741l4.2854 -82.237 1.28188 -0.426486 59.5353 59.9582c5.99739,5.5709 9.85148,8.9985 12.4225,10.2828 2.13847,0.427695 4.70827,0.427695 7.27806,-0.430111l0.854181 2.57342 -42.3998 16.2741 -1.28429 -2.14331 2.1421 -0.854181c2.99749,-1.2855 5.56728,-2.57342 6.42509,-4.2854 0.857806,-0.857806 0.857806,-2.14331 0.426486,-3.42397 -0.426486,-0.857806 -0.857806,-1.71199 -1.28429,-2.14693 -0.427695,-0.422862 -1.71199,-1.71199 -3.85529,-4.27815l-8.99488 -8.99488z"/>
  <polygon class="fil2" points="841.174,496.398 816.764,471.13 814.621,506.677 "/>
  <path class="fil3" d="M704.546 492.112c12.849,-7.71059 25.6991,-9.84906 38.5481,-6.42509 12.8502,3.85529 22.6992,11.5683 29.5544,23.9871 5.56728,10.2792 7.70575,21.4137 5.99377,32.5471 -2.13968,15.4236 -10.7069,26.9846 -25.6955,35.1241 -14.9923,8.13707 -29.1231,9.42257 -42.8299,3.85167 -11.1382,-4.28178 -19.2753,-11.9912 -25.2726,-22.698 -6.85157,-12.4189 -8.56356,-24.845 -4.70947,-37.6879 3.85529,-12.8526 11.9924,-22.7053 24.4112,-28.699z"/>
  <path class="fil2" d="M707.546 495.54c-7.70938,4.28178 -11.1334,11.137 -10.7057,20.986 0,8.13707 3.4276,18.4162 10.2755,29.9809 7.70938,14.1345 15.8501,23.1293 24.8413,27.4111 5.99739,2.56979 11.9948,2.14331 18.4162,-1.28429 3.85529,-2.14331 6.8552,-5.14321 8.56718,-8.56356 2.14331,-4.7131 2.56979,-10.2804 1.2855,-17.1356 -0.854181,-6.85157 -4.28178,-14.9886 -8.99488,-23.9835 -6.42509,-11.137 -11.9912,-18.8439 -16.7043,-23.1293 -5.13596,-4.28178 -9.84906,-6.42509 -14.1308,-6.85157 -4.7131,-0.427695 -8.99488,0.426486 -12.8502,2.56979z"/>
  <path class="fil3" d="M567.494 600.471l36.8325 -32.123 1.71199 2.1421 -2.1421 1.2855c-2.56617,2.56979 -4.28299,4.71189 -4.70947,5.99377 -0.427695,1.71561 -0.857806,3.00111 0,4.2854 0.426486,1.2855 2.14331,4.28178 5.56728,8.1407l30.4074 35.1169c5.5709,6.42509 9.85268,10.2804 12.8502,11.5647 2.57342,0.854181 5.56607,1.2855 8.9985,0.854181 3.42397,-0.422862 6.84795,-2.13847 10.2755,-5.13596 3.85529,-3.4276 6.42509,-7.28289 7.70938,-11.137 0.857806,-4.28299 0.857806,-8.56477 -0.430111,-12.8502 -1.28188,-3.85529 -5.13596,-9.84906 -11.561,-17.5621l-25.2726 -29.1195c-2.99628,-3.00111 -5.13596,-5.13959 -7.27806,-5.99739 -1.71199,-0.857806 -3.42397,-0.857806 -4.7131,-0.427695 -2.56617,0.427695 -5.13596,2.14331 -7.70938,4.28178l-1.71199 -1.71561 24.4136 -21.4101 1.71199 1.70836 -1.2855 1.28912c-2.1421,1.71199 -3.4276,3.85529 -3.85408,5.56728 -0.854181,2.13847 -0.854181,4.28178 0,6.42025 0.426486,1.28912 2.1421,3.42881 4.7131,6.42509l23.5558 26.9846c7.28289,8.56718 11.9912,14.9923 14.1345,19.7005 2.13847,4.7131 2.13847,10.7105 0.857806,17.5633 -1.71561,6.85157 -6.00102,13.2767 -13.708,19.7005 -5.99739,5.56728 -11.5647,8.56839 -16.2729,9.84906 -6.42871,1.71561 -12.4225,1.71561 -17.132,0 -5.14321,-1.71199 -10.2792,-5.56728 -15.4224,-11.561l-30.405 -35.1241c-3.43122,-3.85529 -6.00102,-6.42146 -7.28652,-6.85157 -1.28067,-0.854181 -2.56617,-0.854181 -4.28178,-0.427695 -1.71199,0.427695 -3.85529,1.71561 -6.85157,4.28178l-1.71199 -1.71199z"/>
  <path class="fil3" d="M543.937 622.316l26.1268 20.986 -1.71561 1.71199c-8.99125,-2.99749 -17.5584,-3.85167 -24.8377,-2.13968 -7.70938,2.13968 -13.708,5.99497 -18.4199,11.561 -4.70947,5.5709 -6.85278,11.1382 -6.42509,17.5621 0,5.99497 2.14331,11.9887 6.42509,17.9898 4.2854,5.99377 9.42136,11.561 15.4188,16.2741 6.8564,5.56607 13.708,9.85268 20.5595,12.4189 6.42509,2.56979 12.4225,2.99628 17.9898,1.28792 5.56607,-1.71561 10.2792,-5.14321 14.5609,-9.85268 1.2855,-2.1421 2.56979,-3.85408 3.85529,-5.99377 0.854181,-2.1421 2.13847,-4.7131 2.99628,-7.28289l-15.4188 -12.4189c-2.99749,-2.1421 -4.7131,-3.4276 -5.99377,-3.85408 -1.2855,0 -2.56979,0 -4.2854,0.854181 -1.7132,0.426486 -3.42518,1.71561 -4.70947,3.42397l-1.71561 2.14693 -1.71199 -1.71682 28.6954 -35.9783 2.14331 1.71561c-2.14331,2.99386 -3.4276,5.13959 -3.4276,6.85157 -0.427695,1.2855 0,3.00111 0.426486,4.7131 0.431319,0.854181 2.14331,2.14331 4.7131,4.28178l15.42 12.4189c-1.7132,6.42509 -3.85529,12.4225 -7.27927,18.4162 -3.00111,5.99497 -6.42509,11.996 -11.1382,17.132 -5.5697,7.28289 -11.137,11.9948 -16.7043,14.9923 -5.56607,3.4276 -11.5647,5.13959 -17.5621,6.42509 -5.99377,0.854181 -11.561,0.854181 -17.132,-0.427695 -6.84795,-1.28792 -13.7031,-4.71189 -19.7005,-9.85268 -11.1346,-8.56718 -17.132,-20.1282 -18.4126,-34.2627 -1.28912,-13.7068 2.56617,-26.5569 11.9875,-38.5445 3.00111,-3.4276 5.99739,-6.42509 8.99488,-8.9985 1.71561,-1.28188 4.71189,-3.4276 8.56718,-5.56728 4.28178,-2.56979 6.85157,-4.28178 7.28289,-4.70827 0.854181,-1.2855 1.28067,-2.57463 1.28067,-3.85529 0,-1.2855 -0.854181,-3.4276 -2.13847,-5.5709l1.28429 -2.13847z"/>
  <path class="fil3" d="M431.723 786.352l30.8387 12.4225 -0.857806 2.56617c-9.85268,-0.857806 -17.9849,0.857806 -24.8413,5.14321 -6.42388,3.85167 -11.137,9.42257 -14.1345,16.2741 -2.56979,6.42509 -2.99628,12.4189 -0.857806,18.4162 1.71561,5.99739 5.5709,11.1382 11.5683,15.42 5.56366,4.70827 11.9887,8.13586 19.2716,11.1334 8.13949,3.4276 15.8464,5.13959 23.1281,5.99377 7.27927,0.434944 13.2767,-0.854181 17.9898,-4.27815 4.70947,-2.99628 8.13707,-7.70938 10.7069,-13.7068 0.854181,-2.14331 1.2855,-4.28178 1.71199,-6.85278 0.857806,-2.56979 0.857806,-5.13959 0.857806,-7.70938l-17.9898 -7.28289c-3.4276,-1.28067 -5.99739,-2.13847 -7.28168,-2.13847 -0.854181,0.426486 -2.13968,0.857806 -3.85529,2.13847 -1.28188,0.857806 -2.56979,2.57342 -3.42397,4.7131l-0.857806 2.14331 -2.14331 -0.857806 17.132 -42.3998 2.14693 0.854181c-0.859014,3.4276 -1.28912,5.56607 -1.28912,7.28168 0,1.71561 0.857806,2.99749 2.1421,4.28178 0.854181,0.854181 2.571,1.7132 5.99497,3.00111l17.9885 7.27564c0.431319,6.85882 0,13.2839 -1.28067,19.7054 -1.28912,6.8552 -3.00111,13.2803 -5.5709,19.7005 -3.4276,8.56477 -7.70938,14.9886 -11.9912,19.2753 -4.28661,4.71189 -9.4262,8.56356 -14.5622,11.137 -5.56728,2.56979 -11.137,4.28178 -16.7043,4.70947 -7.28289,0.857806 -14.5609,-0.427695 -21.8402,-3.42881 -13.2803,-5.56607 -22.2715,-14.5573 -27.8424,-27.4111 -5.13959,-12.8453 -5.13959,-26.5533 0.857806,-40.6829 1.71199,-4.28661 3.42397,-8.1407 5.56728,-11.1382 1.28429,-1.71561 3.42397,-4.2854 6.85157,-8.1407 2.99749,-3.4276 5.13959,-5.56607 5.13959,-6.42025 0.427695,-1.2855 0.857806,-2.571 0,-3.85529 -0.426486,-1.2855 -1.71199,-3.00111 -3.85408,-5.13959l1.28429 -2.14331z"/>
  <path class="fil3" d="M378.612 959.387l67.6724 -32.5555 -39.83 -8.99488c-5.5709,-1.28067 -9.42136,-1.28067 -11.5647,0 -3.42397,1.28912 -5.56728,4.7131 -6.42509,9.85631l-2.56979 -0.433736 6.85157 -30.405 2.56979 0.427695c-0.426486,3.85408 -0.426486,6.8552 0.427695,8.13586 0.430111,1.7132 1.28912,2.99749 3.00111,4.28661 1.71199,0.854181 4.71189,2.13847 8.99367,2.99628l76.6673 17.9861 -0.431319 2.1421 -91.2282 44.5467 58.6775 13.7007c5.13959,1.28792 8.99488,0.857806 11.5647,-1.28188 2.13847,-2.1421 3.85529,-4.7131 4.70947,-7.70938l0.430111 -2.14331 2.56979 0.427695 -7.70938 32.9808 -2.56979 -0.857806c1.28429,-5.13959 0.854181,-8.56718 -0.427695,-11.137 -1.71561,-2.56617 -5.13959,-4.27815 -9.85268,-5.56728l-65.1014 -14.9923 -2.99749 1.71561c-2.56979,1.2855 -4.70827,2.56979 -5.99739,3.85529 -0.854181,1.2855 -1.70836,3.4276 -2.56617,5.99739l-2.57342 -0.430111 7.70938 -32.5471z"/>
  <path class="fil3" d="M461.704 1018.49l2.56979 0.426486 -4.28178 49.2513 -2.56979 -0.426486 0.427695 -2.99749c0,-2.99628 0,-5.14321 -0.854181,-6.85157 -0.431319,-1.28429 -1.71561,-2.1421 -3.00111,-3.00111 -1.28429,-0.426486 -4.28178,-1.28429 -8.99125,-1.71199l-61.6774 -5.13959c-4.7131,-0.426486 -8.13707,-0.426486 -9.42136,0 -0.857806,0.427695 -2.14331,1.2855 -3.00111,2.57342 -1.28067,1.71199 -1.71199,3.42035 -2.13968,6.42146l-0.430111 3.00111 -2.56617 -0.434944 4.28178 -49.2477 2.56979 0.422862 0 3.00111c-0.430111,3.00111 0,5.13959 0.857806,6.8552 0.427695,1.28188 1.71199,2.13968 2.99749,2.99386 1.28429,0.857806 3.85408,1.28429 8.56356,1.71561l62.1051 5.13959c4.70827,0.427695 7.70938,0.427695 8.99488,0.427695 1.28429,-0.854181 2.56979,-1.71199 3.42397,-2.99749 1.28792,-1.71199 1.71199,-3.4276 2.1421,-6.42509l0 -2.99628z"/>
  <path class="fil3" d="M369.191 1123.42l-2.56979 0 -1.2855 -50.1128 2.99749 0 0 2.9999c0,2.99749 0.430111,5.13959 1.28912,6.85278 0.857806,0.857806 1.71199,2.1421 3.42397,2.56979 1.28792,0.430111 4.2854,0.857806 8.99367,0.857806l46.2551 -0.857806c8.9985,-0.427695 15.4236,0.430111 19.7017,2.13847 4.2854,1.71561 7.70938,5.14321 10.7105,9.42136 2.56617,4.7131 4.28178,10.2804 4.28178,16.7091 0,8.13586 -1.71561,14.5609 -5.99377,19.274 -4.2854,5.13596 -8.56839,7.70575 -13.708,7.70575 -3.4276,0 -5.99377,-0.857806 -8.13707,-2.99628 -1.71199,-1.7132 -2.9999,-4.28299 -2.9999,-7.28289 0,-2.56979 0.857806,-5.13596 2.56979,-6.84795 1.71561,-2.14693 3.85529,-3.00111 6.85157,-3.00111 1.28912,0 2.14693,0 3.43122,0.426486 0.42407,0 1.28188,0.857806 3.42397,2.14331 1.71199,1.2855 2.99749,1.71199 3.85529,1.71199 1.2855,0 2.56979,-0.857806 3.42397,-1.71199 1.28912,-2.14331 1.71561,-4.28178 1.71561,-7.27927 0,-1.71561 -0.857806,-3.4276 -1.71561,-4.71189 -0.854181,-1.2855 -2.56617,-2.14331 -4.70827,-2.571 -2.14331,-0.857806 -8.13707,-0.857806 -17.9898,-0.430111l-50.5405 0.857806c-5.13596,0 -8.13345,0.431319 -8.99125,0.857806 -1.28792,0.427695 -2.57342,1.71199 -3.4276,2.99386 -0.857806,1.71561 -1.2855,3.85408 -1.2855,6.4275l0.427695 3.85529z"/>
  <path class="fil3" d="M459.562 1146.55l2.56979 -0.431319 5.99739 48.8249 -2.56979 0.431319 -0.431319 -2.99749c0,-3.00111 -0.854181,-5.13959 -2.13847,-6.42509 -0.857806,-1.28792 -2.13968,-2.1421 -3.85529,-2.56979 -0.857806,-0.426486 -3.85408,0 -8.56356,0.427695l-61.6774 7.70938c-4.70947,0.427695 -7.71059,1.2855 -8.99125,1.71561 -1.28912,0.850557 -2.14331,1.70836 -2.56979,3.42397 -0.857806,1.71199 -1.28912,3.85167 -0.857806,6.42509l0.426486 2.99749 -2.56617 0.430111 -6.00102 -48.8285 2.56979 -0.426486 0.431319 2.99628c0.426486,3.00111 0.854181,5.14079 2.1421,6.42146 0.857806,1.28912 2.13968,2.14693 3.85529,2.57342 0.854181,0.431319 3.85046,0 8.56356,-0.426486l61.6738 -7.71421c5.14079,-0.426486 8.13707,-0.854181 8.99488,-1.70836 1.2855,-0.857806 2.14331,-1.71561 2.99749,-3.4276 0.430111,-1.71561 0.857806,-3.85408 0.430111,-6.42509l-0.430111 -2.99628z"/>
  <path class="fil3" d="M395.317 1275.89l37.2638 -10.2804 -0.857806 -2.1421c-1.28429,-5.56728 -4.28178,-9.42257 -8.99488,-10.7069 -4.28178,-1.71199 -9.84785,-1.71199 -17.1307,-0.431319l-0.857806 -2.56617 47.543 -13.7068 0.857806 2.56979c-5.14321,2.1421 -8.9985,4.28178 -11.9912,6.8552 -2.57342,2.99265 -4.28661,5.56728 -4.7131,8.13707 -0.431319,2.56979 0,5.99377 0.857806,10.2792l25.6955 -7.28289c5.13959,-1.28067 8.13707,-2.56979 8.99488,-3.4276 1.28429,-0.426486 1.71199,-1.70836 2.13847,-2.99628 0.431319,-1.28188 0,-3.42397 -0.426486,-5.99497l-1.71199 -5.5697c-2.56979,-8.13707 -6.42509,-14.5622 -11.5647,-17.9861 -5.56728,-4.28178 -12.4225,-5.99739 -21.4174,-5.99739l-0.426486 -2.56617 29.9809 -4.2854 22.2752 78.3781 -2.14693 0.854181 -0.854181 -3.42397c-0.854181,-2.56979 -2.14331,-4.2854 -3.42397,-5.56728 -0.857806,-1.28429 -2.14331,-1.71561 -3.85529,-2.1421 -1.28912,0 -4.2854,0.426486 -8.56718,1.71199l-59.9618 17.1344c-4.28299,1.28188 -6.42509,2.13968 -7.28289,2.56617 -1.71199,0.857806 -2.56979,2.14331 -2.99749,3.4276 -0.857806,2.13968 -0.857806,4.70947 0,7.71059l0.857806 2.99628 -2.56979 0.854181 -21.8438 -76.2348 26.9834 -7.71059 0.854181 2.57342c-6.42025,3.42518 -10.2792,6.42509 -12.8453,9.42257 -2.14331,3.42397 -2.99749,7.27927 -3.4276,11.9875 0,2.57342 0.854181,7.28289 2.99628,14.1381l2.56979 9.42257z"/>
  <path class="fil3" d="M457.85 1339.71c-1.71199,-8.99367 -2.14331,-15.8464 -0.854181,-20.1319 1.71199,-6.85157 5.56607,-11.1334 11.9875,-14.1345 6.42509,-2.56979 12.8502,-2.56979 19.274,0.857806 8.1407,3.85529 14.9923,12.4225 20.1294,24.4148l19.7042 44.1118 -2.1421 0.86143c-2.13968,-3.85529 -3.4276,-6.42871 -4.7131,-7.70938 -1.71199,-0.859014 -2.99749,-1.71682 -4.28178,-1.71682 -1.71199,0 -4.70947,0.857806 -9.42136,2.99749l-56.1077 25.2714c-4.28178,1.71199 -7.28289,3.42881 -8.13707,4.70947 -1.28429,0.857806 -1.71561,2.57342 -1.71561,4.28178 0,1.71561 0.857806,4.7131 2.56979,8.56839l-2.56979 0.854181 -18.4126 -41.1118c-4.2854,-9.85268 -6.42509,-17.5621 -6.42509,-22.2752 0,-5.13596 0.857806,-9.42136 3.42397,-13.2767 2.56979,-3.85408 5.56728,-6.85157 9.42257,-8.56356 4.2854,-1.71561 8.56718,-2.14331 13.2803,-0.431319 4.70827,1.71199 9.42136,5.56728 14.9886,12.4225z"/>
  <path class="fil4" d="M471.126 1361.56l27.8376 -12.4225 3.4276 -1.2855c2.14331,-1.28429 3.42881,-2.57342 4.28661,-4.28178 0.426486,-1.71199 0.426486,-3.4276 -0.431319,-5.99739 -1.71199,-2.99749 -3.85529,-5.99377 -6.42509,-8.13707 -2.99628,-2.14331 -5.99377,-3.4276 -9.84906,-3.85529 -3.4276,0 -6.8552,0.427695 -10.2792,2.14331 -4.2854,1.71199 -7.28289,4.27815 -9.85268,7.70575 -2.1421,3.00111 -3.42397,6.8564 -2.99628,10.7069 0,3.85529 1.71199,8.99488 4.28178,15.4236z"/>
  <path class="fil4" d="M466.417 1363.69c-2.57342,-5.99377 -5.56728,-10.2792 -8.1407,-12.4189 -2.56979,-2.1421 -5.56607,-3.4276 -8.56356,-3.85408 -2.99749,-0.431319 -6.85157,0 -10.2792,1.71199 -3.85529,1.71199 -6.85278,3.85408 -8.56477,6.42025 -1.71561,2.57463 -2.57342,5.5709 -2.57342,8.9985 0,3.42881 1.2855,8.13707 3.85529,14.1308l34.2663 -14.9886z"/>
  <path class="fil3" d="M1063.89 525.948c312.226,0 566.636,254.832 566.636,567.065 0,311.799 -254.411,566.633 -566.636,566.633 -312.229,0 -567.062,-254.834 -567.062,-566.633 0,-312.233 254.832,-567.065 567.062,-567.065z"/>
  <path class="fil2" d="M1063.89 559.783c293.383,0 533.228,239.418 533.228,533.23 0,293.379 -239.845,532.796 -533.228,532.796 -293.382,0 -533.227,-239.417 -533.227,-532.796 0,-293.812 239.845,-533.23 533.227,-533.23z"/>
  <path class="fil3" d="M796.204 1519.17c-141.341,-89.5163 -235.99,-247.555 -235.99,-426.153 0,-179.455 94.6486,-337.069 235.99,-426.582l0 388.46 -65.5327 0 0 -30.8387c0,-19.2704 -15.8464,-35.1169 -35.1169,-35.1169 -19.274,0 -35.1205,15.8464 -35.1205,35.1169l0 131.92c0,18.8439 15.8464,34.694 35.1205,34.694 19.2704,0 35.1169,-15.8501 35.1169,-34.694l0 -31.2652 65.5327 0 0 394.459z"/>
  <path class="fil3" d="M839.462 723.824l0 827.466 109.214 19.7017 0 -740.528c0,-6.84795 -17.132,-23.1221 -23.557,-29.546 -27.4111,-26.9846 -59.104,-54.8222 -85.6573,-77.0938z"/>
  <path class="fil3" d="M991.934 1591.12l0 -752.942c0,-41.5504 -83.0875,-111.358 -145.189,-164.468 -7.713,-6.85157 -7.28289,-5.13959 -7.28289,-15.4188l0 -16.2741c67.6688,-33.835 143.904,-53.1103 224.425,-53.1103 0,0 0.427695,0 0,0 80.5214,0 156.327,19.2753 223.998,53.1103l0 16.2741c0,10.2792 0.854181,8.56718 -6.8552,15.4188 -62.1015,53.1103 -144.758,122.918 -144.758,164.468l0 752.942c-47.9707,6.85157 -96.3678,6.85157 -144.338,0z"/>
  <path class="fil3" d="M1287.89 723.824l0 827.466 -108.787 19.7017 0 -740.528c0,-6.84795 17.132,-23.1221 23.557,-29.546 27.4111,-26.9846 59.104,-54.8222 85.2296,-77.0938z"/>
  <path class="fil3" d="M1331.14 666.432c131.916,83.0875 222.713,224.851 234.705,388.46l-42.8275 0 0 -30.8387c0,-19.2704 -15.8464,-35.1169 -35.1205,-35.1169 -18.8476,0 -34.694,15.8464 -34.694,35.1169l0 131.92c0,18.8439 15.8464,34.694 34.694,34.694 19.274,0 35.1205,-15.8501 35.1205,-34.694l0 -31.2652 43.2576 0c-10.2792,165.747 -101.934,310.512 -235.135,394.459l0 -852.735z"/>
  <path class="fil2" d="M2062.67 1668.64l-151.617 185.026c-72.812,-35.547 -140.481,-66.3869 -204.297,-92.9402 35.9783,-46.2538 68.9567,-93.3703 99.3641,-142.625 6.85157,-11.1346 13.708,-22.2715 20.1282,-33.8326 12.4225,3.85046 24.8413,7.70575 37.6915,11.561 62.9593,20.1319 128.488,43.6877 198.729,72.8108z"/>
  <path class="fil2 str0" d="M1064.31 1846.81c214.576,0 446.284,40.6914 709.258,139.199l135.771 -314.372c-281.822,-117.778 -563.639,-167.891 -845.029,-167.891 -281.817,0 -564.062,50.1128 -845.883,167.891l136.198 314.372c262.548,-98.5075 494.682,-139.199 709.686,-139.199z"/>
  <path class="fil3" d="M1064.31 1380.4c116.496,0 212.006,95.0799 212.006,212.434 0,116.927 -95.51,212.434 -212.006,212.434 -117.35,0 -212.434,-95.5064 -212.434,-212.434 0,-117.354 95.0835,-212.434 212.434,-212.434z"/>
  <polygon class="fil3" points="1507.17,1830.11 1572.7,1628.38 1603.11,1638.23 1603.54,1639.52 1687.06,1806.55 1727.32,1682.34 1728.6,1678.92 1768.43,1692.2 1702.9,1893.5 1672.92,1883.65 1672.5,1882.36 1588.98,1714.89 1548.29,1839.96 1547.44,1842.96 "/>
  <path class="fil3" d="M666.858 1604.39l27.4111 157.191c0.427695,1.7132 1.71199,2.99749 3.42518,4.27936 1.28429,0.857806 3.4276,1.71561 4.71189,1.28792l89.9439 -15.8464c1.28067,0 2.99628,-1.71561 4.28178,-3.4276 0.854181,-1.71561 1.71199,-4.28178 1.28429,-5.99739l-27.4111 -155.9 45.4009 -7.70938 27.8376 157.61c1.71199,9.42257 2.14331,17.5633 2.14331,24.4148 -0.431319,6.8552 -2.14331,12.4225 -4.2854,17.1356 -2.99749,4.27815 -6.85157,7.70938 -12.8502,10.702 -5.56245,3.00111 -12.4189,5.14079 -20.5547,6.42871l-105.363 18.8439c-8.56477,1.28429 -15.8464,1.71199 -21.845,0.857806 -6.42388,-0.857806 -11.5598,-2.57342 -15.4151,-6.00102 -3.85529,-2.99749 -7.28289,-8.13345 -10.2804,-14.5585 -2.56979,-6.42509 -4.70827,-14.1345 -6.42388,-23.5558l-27.8388 -157.615 45.8274 -8.1407z"/>
  <path class="fil3" d="M573.491 1663.07l-148.62 48.3935c-1.2855,0.434944 -2.56979,1.28912 -3.00111,2.14693 -0.422862,1.28067 -0.422862,2.56617 0,4.28178l35.1253 107.929c0.426486,0.857806 1.28067,1.71199 2.56617,2.57342 0.857806,0.422862 1.71199,0.854181 2.1421,0.422862l103.221 -33.4049c0.857806,-0.426486 1.28429,-1.28429 2.1421,-2.1421 0.427695,-1.2855 0.854181,-2.99749 0.427695,-3.85529l-9.4262 -28.2653c0,-0.857806 -0.854181,-1.71561 -2.13847,-2.14331 -0.857806,-0.857806 -1.71199,-0.857806 -2.56979,-0.857806l-57.8197 18.8476 -12.849 -39.4023 104.077 -33.8362 23.1257 70.241c2.9999,8.99125 4.7131,17.132 5.13959,23.9799 0.857806,6.86003 0,12.8538 -1.71199,17.5621 -2.13968,4.7131 -5.5709,8.9985 -10.7069,12.4189 -5.13959,3.4276 -11.5647,6.86003 -19.7017,9.4262l-111.36 35.9783c-8.13345,2.56617 -14.9886,3.85529 -21.4137,4.28178 -6.42025,0 -11.5635,-1.28429 -16.2729,-3.85408 -4.2854,-2.57463 -8.1407,-7.28289 -11.5647,-13.2767 -3.4276,-5.99497 -6.8552,-13.2767 -9.85268,-22.2752l-33.4049 -102.786c-3.00111,-9.42499 -4.70947,-17.1356 -5.13959,-23.9908 -0.857806,-6.84795 0,-12.8453 1.71199,-17.5548 1.71561,-4.7131 5.56607,-8.9985 10.7069,-12.8502 5.14321,-3.43122 11.5683,-6.42388 19.7005,-8.99729l154.191 -50.1104 13.2767 41.1191z"/>
  <path class="fil3" d="M1328.57 1792.85l10.2804 -58.2498 104.074 18.4199 -10.2804 58.2498 45.4009 7.70696 27.8388 -157.615c1.71561,-9.42257 2.1421,-17.5584 1.71561,-23.9835 0,-7.27927 -1.71561,-12.8465 -4.28178,-17.132 -2.57463,-4.71189 -6.42509,-8.13707 -12.4225,-11.137 -5.56728,-2.99749 -12.4225,-5.13596 -20.9872,-6.42146l-105.363 -18.4162c-8.13586,-1.71561 -15.4151,-2.14331 -21.4125,-1.2855 -6.42509,0.854181 -11.561,2.99749 -15.4163,5.99497 -4.2854,3.4276 -7.28289,8.13949 -10.2792,14.5609 -2.57342,6.42509 -4.7131,14.1345 -6.42871,23.5558l-27.8388 157.612 45.4009 8.1407z"/>
  <path class="fil2" d="M1346.56 1691.34l9.84906 -55.6764c0.430111,-1.2855 1.71199,-3.00111 2.99628,-4.28178 1.71561,-0.857806 3.4276,-1.71561 5.13959,-1.2855l89.9439 15.8464c1.28429,0.427695 2.9999,1.71199 3.85408,3.42397 1.2855,1.71561 2.14331,4.2854 1.71682,5.9986l-9.42257 54.3945 -104.077 -18.4199z"/>
  <path class="fil1" d="M1258.34 1938.89c-0.431319,4.7131 -1.71561,9.42136 -3.85529,13.7068 -1.71561,3.85529 -4.7131,7.71059 -8.1407,10.7105 -5.99377,5.56366 -11.9912,11.1309 -18.8439,17.5584 -6.42388,5.56728 -12.4176,11.1346 -18.4199,16.7018l43.6889 3.85408 -1.71199 18.4199 -72.812 -6.42388 1.2855 -17.132c8.99488,-7.28289 17.5621,-14.9923 26.1256,-23.1293 5.5709,-5.13959 10.2804,-9.42136 14.5622,-12.849 3.85408,-3.85529 7.70938,-7.28289 10.7105,-9.42257 3.85408,-3.85408 5.99377,-8.56718 6.42025,-13.7031 0.427695,-4.7131 -0.426486,-9.42136 -3.42397,-13.2767 -1.28792,-1.71561 -2.56979,-3.00474 -4.2854,-3.85892 -3.42397,-2.13847 -8.13707,-2.56617 -11.9912,-0.854181 -8.13707,2.99749 -10.2768,11.9924 -10.2768,20.1282l-21.4174 -5.13959c0.427695,-5.56607 1.71682,-11.1334 4.28299,-16.2729 6.8552,-11.996 21.4125,-19.2753 35.1205,-17.9898 5.13959,0.426486 9.42499,1.71561 13.7031,3.85529 4.28661,2.13847 7.71059,5.13959 11.1382,8.99367 2.99628,3.42518 5.13959,7.71059 6.8552,11.9887 1.2855,4.2854 1.70836,8.9985 1.2855,14.1345z"/>
  <path class="fil1" d="M1148.26 1948.75c0,8.1407 -1.28429,15.8501 -2.99749,22.698 -1.71199,6.42509 -4.28178,12.4225 -7.70938,17.9898 -3.85408,6.42388 -8.99125,11.137 -14.9886,14.5646 -5.99739,2.99749 -12.4225,4.70947 -20.1282,4.27815 -2.99749,0 -5.99739,-0.422862 -8.99488,-0.854181 -5.5709,-1.28429 -11.5647,-3.85408 -16.2778,-6.85157 -2.99628,-2.13847 -5.13959,-4.28178 -7.27806,-6.85157l9.42136 -15.8501c1.71199,1.71561 3.4276,3.85408 5.56728,5.5709 2.99628,2.13847 6.85157,4.27815 10.2792,5.56607 1.71199,0.427695 3.4276,0.857806 4.70947,0.857806 3.85408,0 7.28652,-0.857806 10.7105,-2.14572 2.99628,-1.70836 5.56607,-4.27815 8.13707,-8.13345 2.1421,-2.99749 3.85408,-5.99739 5.13959,-9.85268 0.857806,-2.13847 1.28429,-4.70947 1.71199,-7.27927 -1.71199,0.857806 -3.85529,1.70836 -5.99377,2.14331 -4.28299,0.854181 -8.99488,1.28067 -13.7044,1.28067 -4.7131,-0.426486 -9.42499,-1.28067 -13.2803,-2.99628 -3.85529,-1.2855 -7.70938,-3.85529 -11.137,-6.85157 -3.42397,-3.85529 -6.42146,-7.71421 -8.13345,-12.4225 -1.71561,-4.7131 -2.57342,-9.84906 -2.57342,-15.42 0.430111,-6.42146 1.71561,-11.561 3.4276,-16.2741 2.13847,-5.13959 5.13959,-8.99367 8.99488,-12.4225 3.42397,-2.99628 7.27806,-5.13596 11.5647,-6.42025 4.28178,-1.28912 8.99005,-2.14693 14.1345,-1.71199 13.7031,0.422862 23.9835,5.56607 30.8315,15.4151 6.42388,9.42257 8.99488,23.557 8.56718,41.9733z"/>
  <path class="fil2" d="M1127.7 1941.04c0,0 -0.430111,0.426486 -0.430111,0 0,-0.431319 0.430111,-1.28912 0.430111,-2.14693 0,-3.42397 -0.430111,-6.42146 -0.854181,-9.42136 -0.430111,-2.99749 -1.28792,-5.99497 -2.57342,-8.99125l0 0.422862c-1.71199,-3.85046 -3.85408,-6.42025 -5.99377,-8.56356 -2.56979,-1.71199 -5.13959,-2.56617 -8.56718,-2.56617 -2.56617,0 -4.70947,0.426486 -6.42146,1.28429 -2.14331,0.854181 -4.2854,2.13968 -5.99739,4.27936 -1.71199,1.71561 -3.00111,3.4276 -3.85529,5.56607 -0.857806,2.14693 -1.28429,4.28903 -1.28429,6.42871 0,3.4276 0.426486,6.42509 1.28429,8.99488 1.2855,2.56617 2.56979,4.7131 4.70947,6.42509 1.71199,1.70836 2.9999,2.56617 4.71189,3.42397 1.2855,0.857806 2.571,1.28792 3.85529,1.28792 4.70947,0 8.99488,-0.430111 12.4225,-1.28792 3.42397,-1.28188 5.99377,-2.99749 8.56356,-5.13596z"/>
  <path class="fil1" d="M1033.48 1945.75c0.430111,8.13707 0,15.42 -1.2855,22.2715 -1.28429,7.27927 -2.99628,13.2767 -5.99377,18.8476 -3.4276,6.85157 -8.1407,12.4189 -13.7068,15.8428 -5.5709,3.85408 -12.4189,5.99739 -19.7017,6.42388 -3.00111,0 -5.99377,0 -8.99488,-0.426486 -2.99749,-0.431319 -5.99739,-1.2855 -8.99488,-2.14331 -5.99377,-1.71199 -11.137,-4.71189 -15.8464,-9.42136l8.13707 -16.7006c3.4276,3.42397 6.85157,5.56728 11.137,7.70575 2.99749,1.2855 6.85278,2.57342 10.2804,2.57342 3.85408,-0.430111 7.27806,-1.28792 10.2792,-3.4276 2.99749,-1.71561 5.56728,-4.71189 7.70938,-8.1407 1.71199,-3.42397 2.99386,-6.85157 4.27936,-10.7069 0.430111,-2.13847 0.857806,-4.70827 0.857806,-7.27806 -1.71199,1.28429 -3.85529,2.1421 -5.99497,2.56979 -3.85408,1.28429 -8.13949,2.13847 -13.2767,2.56979 -4.71189,0 -9.42136,-0.431319 -13.2803,-1.71199 -4.28178,-1.2855 -8.13586,-3.4276 -11.5647,-6.00102 -4.27815,-3.42035 -7.27806,-7.27564 -9.42136,-11.561 -2.13847,-4.7131 -3.42397,-9.84906 -3.85529,-15.4163 -0.426486,-6.00102 0.431319,-11.5683 2.14331,-16.2802 1.2855,-5.13717 3.85529,-9.42257 7.70938,-13.2767 2.99749,-2.99749 6.85278,-5.56728 11.1346,-7.28289 3.85408,-1.70836 8.56718,-2.99749 13.7068,-2.99749 13.708,-0.857806 24.4112,3.4276 32.1206,12.8502 7.28289,8.9985 11.137,22.7016 12.4225,41.1179z"/>
  <path class="fil2" d="M1012.07 1939.75c0,0 -0.430111,0.430111 -0.430111,0 0,-0.427695 0,-1.2855 0,-2.56617 0,-3.00111 -0.427695,-5.99739 -1.28188,-8.9985 -0.86143,-2.99386 -2.14331,-5.99377 -3.43122,-8.56356 -2.13968,-3.4276 -4.27815,-5.99377 -6.84795,-7.71059 -2.57342,-1.28429 -5.5709,-2.13847 -8.56839,-1.71199 -2.56979,0 -4.70827,0.427695 -6.42388,1.71199 -2.13968,0.857806 -3.85529,2.571 -5.56728,4.7131 -1.2855,1.71199 -2.56979,3.85529 -3.4276,5.99377 -0.427695,2.13968 -0.857806,4.28661 -0.427695,6.42509 0,3.4276 0.857806,6.42509 1.71199,8.99488 1.2855,2.1421 3.00111,4.28178 5.5709,5.99739 1.70836,1.28188 2.99749,2.56979 4.70947,2.99749 1.28429,0.430111 2.99628,0.854181 4.28178,0.854181 4.2854,-0.42407 8.56718,-1.28188 11.9912,-2.56979 2.99749,-1.28188 5.9986,-2.99749 8.1407,-5.56728z"/>
  <path class="fil1" d="M891.714 2021.13l-9.42499 -86.9428 -11.9887 1.2855 -1.71561 -14.9886c8.13707,-0.857806 11.5647,-8.1407 13.2767,-16.7043l18.4162 -1.71561 12.4225 116.5 -20.986 2.56617z"/>
  <path class="fil0" d="M1055.75 1406.52c51.8211,-2.14331 95.9365,14.5609 134.054,48.8249 38.118,34.6928 57.8197,77.9516 60.8196,129.341 2.56617,52.2561 -14.1345,96.7955 -48.8273,134.917 -34.6904,38.5445 -77.5215,58.6727 -129.343,60.8196 -51.826,2.13968 -96.3678,-14.1345 -134.486,-48.8249 -38.118,-34.6928 -58.2462,-77.9516 -60.8196,-129.776 -2.56979,-51.8248 13.7068,-96.3678 48.8273,-134.912 34.6904,-38.1216 77.948,-58.251 129.774,-60.3895z"/>
  <path class="fil1" d="M1025.34 1747.02l-0.430111 0.430111c-8.13707,4.70947 -15.42,8.13345 -22.2679,10.2804l-0.431319 0.422862c-27.8376,-10.7032 -51.8248,-27.8376 -71.5265,-51.3946 -2.13847,-6.42025 -2.56979,-15.8464 -1.71199,-27.4111l0.431319 -5.99377 0.426486 -0.430111c10.2755,-7.71059 18.8439,-12.8465 26.5533,-14.1308l0.857806 0 0.427695 0.426486c17.9885,21.8438 38.9758,38.9758 63.3858,52.2488l0.430111 -0.422862 0 0.857806c2.571,13.6995 3.42518,25.6955 3.42518,34.6892l0.430111 0.427695z"/>
  <path class="fil1" d="M894.281 1592.41l-0.422862 0.426486 -4.7131 0.431319 -0.430111 -1.28912c0,-50.9633 19.274,-93.7944 57.8221,-128.915l0.427695 0 0.426486 0c3.4276,0.426486 7.28289,1.71561 10.2804,4.28178l0.857806 0.854181 -0.431319 0c-14.1345,20.9897 -23.9835,43.2576 -30.8351,67.6724l-21.8438 33.4085 -11.1382 23.1293z"/>
  <path class="fil1" d="M1117 1756.44l0.854181 -0.857806c13.2767,-11.1334 24.8413,-24.4136 33.4097,-38.1144l0.426486 -0.430111c22.6992,-7.71059 41.9733,-18.8439 57.8197,-34.2627l0.426486 -0.431319 0 0.431319c2.14331,0.426486 3.00111,0.857806 3.4276,1.28429l1.2855 0.431319 -0.857806 0.850557c-22.698,36.4084 -53.9644,61.6774 -93.7944,74.9541l-0.854181 0.430111 -2.14331 -4.2854z"/>
  <path class="fil1" d="M1176.1 1556.43l-0.427695 -0.857806c-3.85529,-19.7005 -10.7069,-40.2601 -20.1282,-61.6702l0 -0.857806 15.8464 -19.274 0.426486 0.430111c11.5647,2.99749 23.557,8.99125 35.1217,17.1283l0.430111 0.426486c16.2741,22.7065 26.5533,47.9743 30.8351,75.8131l-0.430111 0 0.430111 0.430111c-4.71189,11.561 -10.2792,19.2716 -17.5584,23.1257l-0.430111 0.431319 -0.427695 -0.857806c-11.9912,-14.5658 -26.5569,-26.1305 -43.6877,-34.2675z"/>
  <path class="fil1" d="M1159.82 1463.92l0 0.426486 -16.2741 20.9872 -0.430111 -0.427695c-24.8377,-3.4276 -47.967,-4.28178 -68.9531,-2.1421l-0.427695 0.426486 0 -0.426486c-13.2803,-14.9886 -26.1256,-26.5533 -38.118,-35.9759l-0.430111 0 0.430111 -0.857806c9.84906,-11.9912 19.2716,-21.4125 29.5508,-28.2689l0.431319 0c23.5558,0 46.2538,4.7131 68.0953,13.708 10.7093,10.7069 19.274,20.9824 26.1256,32.5507z"/>
  <path class="fil1" d="M1105.01 1764.58l-1.28912 0c-12.4189,2.99749 -23.1245,4.27815 -31.2616,4.70947 -14.5658,0.426486 -29.1267,-0.431319 -44.9732,-3.4276l-2.13968 -1.28188 10.2792 -5.5709c22.2679,4.28661 44.9708,4.7131 67.6724,3.4276l0.422862 0 0.431319 0.427695 0.857806 1.71561z"/>
  <path class="fil1" d="M1210.79 1603.54l-0.857806 17.9898 -7.70938 47.5393 -0.426486 0.431319c-17.132,16.2729 -35.9795,27.8376 -56.1077,34.2627l-0.427695 0.430111 -0.430111 -0.430111c-14.1308,-3.85529 -27.4075,-12.8502 -39.8263,-27.4111l-0.431319 -0.431319 0.431319 -0.426486c4.70947,-15.8464 7.70938,-31.6929 8.56356,-47.967l0.427695 -24.8413 -0.427695 -0.430111 0.857806 0c19.7017,-12.8502 37.2602,-23.9835 54.8186,-32.9784l0 0.426486 0.427695 0c16.7043,8.99488 30.8387,20.5595 41.1179,33.4097l0 0.426486z"/>
  <path class="fil1" d="M1090.01 1673.78l-0.427695 0.857806c-18.4162,12.4189 -38.1168,20.5547 -59.5305,25.2678l-0.431319 -0.426486c-24.4136,-12.4225 -44.9732,-29.9809 -63.3858,-51.826l-0.431319 -0.426486c0.431319,-1.71561 0.431319,-5.99377 1.2855,-12.8502l5.5709 -46.2587 0.854181 -0.852973 74.0963 -26.1268 0.426486 -0.426486 0.427695 0.426486 15.4188 8.56356c13.2767,8.56839 25.2726,18.4162 35.1217,29.9809l0.430111 0.431319 0 26.9798c-1.28792,14.9935 -4.2854,30.8363 -9.42499,46.6864z"/>
  <path class="fil1" d="M969.236 1573.56l-5.5709 -7.27927 -0.42407 0.427695c0,-1.28188 -0.857806,-2.14331 -1.71561,-3.42397l-19.7005 -26.5569 0.426486 -0.427695c5.56728,-22.2715 15.8464,-43.6889 30.4122,-63.8135l0 -0.86143 0.426486 0.427695c16.7006,-8.99125 32.9784,-14.5585 48.8249,-16.7006l0.857806 0 0 0.426486c16.2741,12.4189 28.6966,23.9871 39.4023,35.9747l0.427695 0 -0.427695 0.434944c-7.70938,15.4163 -13.7068,33.8326 -19.274,54.8186l0 0.431319 -0.426486 0 -72.812 25.6943 -0.426486 0.427695z"/>
  <path class="fil1" d="M893.426 1608.68l0 0.427695 7.71059 29.5568 14.1345 31.6941 0 0.426486 -1.28912 14.1308c0,-0.854181 -0.854181,-1.71199 -1.71199,-2.99265 -13.2767,-22.7029 -20.5559,-46.69 -22.698,-72.3855l-0.427695 -0.857806 4.28178 0z"/>
 </g>
</svg>