<svg xmlns="http://www.w3.org/2000/svg" xmlns:xlink="http://www.w3.org/1999/xlink" xml:space="preserve" width="119.786mm" height="119.786mm" version="1.1" style="shape-rendering:geometricPrecision; text-rendering:geometricPrecision; image-rendering:optimizeQuality; fill-rule:evenodd; clip-rule:evenodd" viewBox="0 0 11979 11979">
 <defs>
  <style type="text/css">
   <![CDATA[
    .fil0 {fill:#373435}
    .fil1 {fill:#FEFEFE}
    .fil2 {fill:#00BBF1}
    .fil3 {fill:#373435;fill-rule:nonzero}
   ]]>
  </style>
 </defs>
 <g id="Layer_x0020_1">
  <metadata id="CorelCorpID_0Corel-Layer"/>
  <path class="fil0" d="M5989 0c3308,0 5989,2682 5989,5989 0,3308 -2682,5989 -5989,5989 -3308,0 -5989,-2682 -5989,-5989 0,-3308 2682,-5989 5989,-5989zm0 374c3101,0 5615,2514 5615,5615 0,3101 -2514,5615 -5615,5615 -3101,0 -5615,-2514 -5615,-5615 0,-3101 2514,-5615 5615,-5615z"/>
  <path class="fil1" d="M5989 374c3101,0 5615,2514 5615,5615 0,3101 -2514,5615 -5615,5615 -3101,0 -5615,-2514 -5615,-5615 0,-3101 2514,-5615 5615,-5615zm0 1588c2235,0 4046,1811 4046,4046 0,2235 -1811,4046 -4046,4046 -2235,0 -4046,-1811 -4046,-4046 0,-2235 1811,-4046 4046,-4046z"/>
  <path class="fil2" d="M5989 1962c2235,0 4046,1811 4046,4046 0,2235 -1811,4046 -4046,4046 -2235,0 -4046,-1811 -4046,-4046 0,-2235 1811,-4046 4046,-4046zm-1844 5621c-362,-424 -581,-974 -581,-1575 0,-1289 1006,-2343 2275,-2420 0,1317 0,2633 0,3950l-750 0 0 -1230 -748 0c54,297 186,567 375,788l-570 487zm944 -1875l0 -1113c-386,246 -664,646 -748,1113l748 0zm3551 1278c16,-50 25,-104 25,-159 0,-287 -232,-519 -518,-519l-1257 0 0 2378c810,-272 1456,-901 1751,-1700zm-2501 -4550c1314,54 2445,818 3020,1917 88,168 209,435 239,625 84,540 -294,1029 -730,1029 448,0 812,489 730,1029 -23,145 -105,347 -168,482 -549,1176 -1721,2004 -3091,2061 0,-2381 0,-4762 0,-7143zm750 893l0 2378 1256 0c287,0 519,-232 519,-519 0,-55 -9,-109 -25,-159 -295,-799 -941,-1428 -1751,-1700zm-1050 6250c-1905,-79 -3425,-1647 -3425,-3572 0,-1924 1520,-3493 3425,-3572l0 751c-1490,78 -2675,1311 -2675,2821 0,1510 1185,2743 2675,2821l0 751z"/>
  <g id="_565687440">
   <path class="fil3" d="M3421 10390l-91 76c-80,-12 -163,-49 -247,-111 -40,-29 -83,-68 -131,-118 -28,-31 -55,-78 -79,-139 -15,-42 -22,-86 -23,-133 -1,-94 28,-182 88,-264 48,-66 99,-117 154,-153 55,-36 120,-58 194,-64 123,-10 249,31 377,124 82,59 142,130 182,212 -12,10 -28,24 -48,42 -20,18 -39,35 -56,50l-15 -11c1,-44 -9,-86 -29,-127 -20,-41 -47,-74 -82,-99 -57,-41 -115,-60 -176,-57 -61,4 -118,24 -172,60 -54,36 -101,82 -141,137 -65,89 -97,178 -96,266 2,46 14,90 38,131 23,41 53,75 90,102 33,24 73,41 120,53 47,11 91,14 133,9l10 15zm930 476c-123,39 -253,29 -388,-29 -141,-60 -236,-149 -283,-265 -48,-112 -43,-235 13,-367 58,-136 153,-225 286,-268 124,-37 253,-27 387,30 113,48 197,116 251,205 45,74 67,145 65,215 0,70 -15,141 -45,211 -27,63 -65,118 -114,165 -50,47 -107,81 -171,103zm-70 -146c63,-51 117,-128 161,-231 24,-56 38,-115 42,-175 4,-60 -6,-116 -31,-166 -25,-50 -67,-88 -125,-112 -54,-23 -106,-29 -156,-17 -50,11 -93,33 -131,65 -59,51 -112,132 -159,244 -24,57 -38,114 -41,171 -3,58 8,110 33,158 26,48 67,84 126,109 94,40 187,24 281,-46zm740 63c-13,-40 -22,-65 -25,-74 -2,-6 -5,-9 -9,-10 -4,-1 -7,2 -8,7 -5,26 -12,64 -21,117 -9,52 -16,91 -21,117l-7 36c-6,36 -11,82 -16,140 -12,-3 -30,-8 -53,-14 -23,-6 -41,-11 -53,-13 -11,-2 -30,-5 -54,-8 -25,-3 -43,-5 -54,-7l7 -24c2,-10 5,-21 8,-32 3,-11 5,-20 7,-26 2,-6 4,-15 8,-28 15,-55 34,-142 56,-257 5,-26 12,-66 22,-119 10,-54 17,-93 22,-120 12,-62 28,-159 49,-292l90 22c21,4 52,9 94,16 42,7 73,12 95,16 105,20 174,43 207,68 68,59 94,131 78,214 -12,62 -40,110 -85,144 -45,34 -100,51 -165,52 22,67 75,205 161,414l32 84c-13,-3 -32,-8 -59,-15 -27,-7 -46,-12 -59,-14 -39,-8 -79,-13 -120,-17l-99 -298 -27 -79zm13 -339l-20 103c-8,42 -15,73 -21,95 71,14 126,8 165,-16 38,-25 64,-69 76,-132 5,-26 7,-48 7,-67 0,-27 -6,-48 -15,-65 -10,-16 -22,-29 -39,-37 -16,-9 -35,-16 -57,-21 -22,-5 -45,-10 -66,-15l-30 156zm709 -125c15,-1 37,-2 68,-4 31,-2 55,-4 71,-5 64,-2 113,-3 146,-1 78,4 140,14 187,31 52,19 95,47 128,84 76,78 116,179 120,301 3,76 -8,143 -31,203 -23,59 -62,116 -117,168 -46,45 -97,76 -150,95 -53,19 -116,29 -189,32 -96,3 -168,5 -216,5 -7,-1 -18,-1 -33,-1 -26,1 -65,4 -117,8 3,-156 1,-312 -4,-467l-5 -136c-1,-22 -3,-54 -6,-97 -3,-43 -5,-76 -7,-98 -2,-20 -3,-39 -5,-59 -2,-20 -3,-39 -5,-58 74,0 129,0 165,-2zm171 828c66,-2 119,-12 161,-30 41,-18 77,-51 109,-100 46,-74 68,-170 64,-287 -2,-48 -11,-96 -27,-144 -16,-48 -39,-88 -69,-118 -33,-35 -70,-58 -110,-68 -41,-11 -90,-15 -148,-13 -10,0 -25,2 -46,4 -21,2 -37,4 -48,5 0,150 5,373 15,669l3 84c22,1 54,0 97,-1zm1605 -252c-77,104 -188,172 -331,205 -150,35 -278,18 -385,-48 -105,-63 -173,-165 -206,-305 -33,-144 -9,-272 74,-385 79,-103 189,-170 331,-203 120,-28 227,-22 323,19 80,33 139,78 179,136 41,57 71,123 88,197 15,67 17,133 4,201 -13,67 -39,128 -78,183zm-143 -77c21,-79 19,-173 -6,-282 -14,-59 -37,-115 -69,-166 -32,-51 -73,-90 -123,-116 -50,-26 -105,-32 -167,-17 -57,13 -103,39 -136,78 -34,38 -56,81 -67,130 -17,76 -13,173 15,291 14,60 36,114 68,163 31,48 71,85 120,109 49,24 104,28 166,14 99,-23 166,-90 200,-203zm698 -556c58,-27 117,-32 177,-15 63,19 108,57 135,114 28,61 32,125 10,192 -14,45 -52,91 -115,138 -19,13 -46,28 -80,44 -19,9 -48,22 -89,39 -40,17 -70,30 -90,40 -23,11 -58,29 -104,53 -13,-39 -35,-97 -67,-173 -66,-148 -116,-259 -151,-334 -17,-36 -71,-145 -163,-326 63,-27 109,-46 138,-60 20,-9 49,-24 88,-43 38,-19 67,-33 86,-42 44,-21 87,-33 129,-38 42,-5 80,2 115,20 35,18 63,49 84,95 25,53 26,106 4,157 -22,51 -59,94 -112,129l4 9zm-62 -46c21,-46 19,-95 -7,-149 -8,-17 -21,-36 -39,-55 -18,-19 -34,-31 -49,-33 -36,-9 -71,-5 -106,11 -25,11 -43,22 -56,31 31,73 55,129 73,166l58 125c34,-16 60,-30 79,-43 19,-13 35,-31 47,-52zm120 468c50,-23 78,-58 83,-104 6,-46 1,-86 -16,-122 -53,-114 -133,-147 -240,-97 -17,8 -31,15 -40,21 17,39 43,98 80,176 8,16 20,42 36,75 16,34 29,59 37,77 7,-3 17,-8 31,-14 14,-6 23,-10 30,-13zm541 -182l-55 -243c-61,-279 -120,-517 -177,-716 4,-3 9,-5 15,-8 6,-3 11,-6 17,-9 6,-3 11,-6 14,-8 6,-4 12,-10 18,-16 6,-6 12,-12 18,-18l22 12c260,170 525,337 796,500l15 7 7 10c-11,7 -27,18 -48,31 -21,13 -37,24 -49,32 -30,22 -59,45 -86,70 -103,-76 -182,-132 -236,-167 -13,10 -34,24 -61,42 -27,18 -48,32 -61,42 -28,20 -71,53 -129,99l6 19c13,43 25,87 39,132 14,46 28,87 43,124 -19,9 -37,19 -55,33 -16,12 -32,26 -46,41l-6 -8zm0 -426l198 -144c-72,-49 -165,-110 -280,-182 26,116 52,221 79,314l3 12z"/>
   <path class="fil3" d="M1721 7264l118 -14c61,54 110,130 148,228 17,46 33,103 45,170 6,42 3,95 -10,161 -11,42 -28,83 -54,123 -50,79 -123,137 -218,173 -76,29 -147,44 -213,45 -66,0 -132,-17 -198,-52 -109,-59 -192,-162 -249,-310 -36,-94 -48,-186 -36,-277 15,-2 37,-4 63,-9 26,-4 51,-8 74,-12l7 17c-24,36 -39,76 -45,122 -5,45 -1,88 15,128 25,66 64,114 117,144 53,30 111,45 176,44 65,-1 129,-14 193,-38 103,-39 178,-96 225,-170 24,-40 37,-83 39,-131 3,-47 -4,-92 -21,-135 -14,-38 -38,-74 -72,-109 -33,-35 -69,-62 -106,-80l0 -18z"/>
   <path id="1" class="fil3" d="M923 7224c-3,-52 -7,-89 -11,-109 -4,-20 -13,-56 -27,-107 26,-4 65,-9 116,-14 50,-6 92,-11 123,-17 34,-5 85,-13 154,-25l249 -44c18,-3 45,-8 82,-15 37,-7 65,-12 83,-16l-17 -72c-6,-35 -24,-111 -54,-226 12,1 32,-1 57,-5 26,-4 44,-9 56,-14l32 225c3,20 10,49 18,89 8,40 14,69 17,88 4,24 12,61 23,109 -114,12 -257,33 -429,63 -17,3 -44,7 -79,13 -35,5 -61,10 -79,13 -32,6 -81,15 -145,29 -64,14 -111,24 -143,30l-26 7z"/>
   <path id="2" class="fil3" d="M999 5556c14,1 36,2 66,3 30,2 52,3 66,3 16,1 41,2 74,5 33,2 58,4 74,4 103,6 182,18 238,35 56,17 104,57 144,121 44,67 65,152 61,255 -2,58 -11,112 -27,164 -15,51 -41,96 -75,134 -35,38 -80,64 -136,78 -15,5 -39,8 -72,9 -19,2 -50,2 -93,1 -27,-1 -57,-2 -89,-2 -32,0 -57,-1 -76,-1l-169 -6c-16,-1 -42,-1 -76,-2 -34,0 -60,-1 -76,-2 -6,0 -15,0 -28,0 -13,0 -23,0 -30,0 9,-52 13,-89 14,-111 1,-22 -1,-58 -7,-107 7,0 17,1 32,4 15,2 26,3 34,4 116,11 221,18 312,21 122,4 206,4 253,1 40,-7 70,-14 92,-22 21,-8 42,-23 63,-44 40,-39 61,-90 63,-151 2,-61 -9,-111 -33,-149 -24,-38 -64,-70 -120,-95 -39,-16 -131,-27 -277,-32 -179,-6 -314,-8 -404,-3 8,-32 12,-55 13,-68 1,-13 -2,-36 -8,-69 10,1 23,3 40,5 17,2 35,4 54,6 19,2 35,3 48,4 13,1 31,3 53,5z"/>
   <path id="3" class="fil3" d="M1360 4860c14,-62 47,-112 98,-150 54,-38 111,-50 174,-36 66,15 118,52 158,111 27,39 39,98 38,177 -1,23 -6,53 -14,90 -5,21 -13,52 -24,94 -11,42 -19,74 -24,96 -6,25 -13,63 -22,115 -39,-14 -98,-32 -178,-53 -157,-39 -275,-68 -356,-86 -39,-9 -158,-33 -357,-72 18,-66 31,-115 38,-146 5,-22 12,-53 20,-96 9,-42 15,-74 20,-94 11,-47 27,-89 49,-125 22,-36 51,-62 86,-79 36,-17 78,-20 127,-8 58,13 100,45 127,94 26,49 37,105 32,168l10 2zm-74 21c-23,-45 -63,-73 -121,-87 -19,-4 -41,-5 -67,-3 -26,2 -45,8 -57,19 -29,23 -48,53 -56,90 -6,26 -10,47 -11,63 77,21 135,35 175,45l134 31c9,-36 13,-66 15,-88 1,-23 -3,-46 -12,-69zm444 193c12,-54 2,-97 -31,-130 -32,-33 -68,-54 -106,-62 -123,-28 -198,14 -225,129 -4,19 -7,33 -8,44 41,11 104,26 188,46 18,4 45,10 82,18 37,8 64,14 83,18 2,-8 5,-19 9,-33 4,-14 7,-24 8,-31z"/>
   <path id="4" class="fil3" d="M2064 4220l-149 -200c-169,-229 -320,-424 -453,-582 3,-4 6,-8 10,-13 4,-5 8,-10 12,-15 4,-5 7,-10 10,-13 3,-7 7,-14 10,-22 3,-8 6,-16 9,-24l25 2c307,50 617,94 931,133l16 0 11 6c-7,11 -17,27 -32,48 -14,21 -24,37 -31,49 -19,32 -35,65 -50,99 -126,-28 -220,-47 -284,-56 -8,14 -21,35 -39,63 -18,28 -31,49 -39,63 -17,30 -43,77 -78,143l13 14c29,34 59,69 89,105 31,36 61,68 90,96 -13,15 -26,33 -37,52 -10,18 -19,37 -26,57l-9 -5zm-173 -389l122 -212c-85,-16 -195,-33 -330,-53 70,96 137,181 200,255l8 10z"/>
   <path id="5" class="fil3" d="M2293 2632c28,24 70,61 124,111 55,49 96,86 124,110 14,12 35,30 64,55 29,24 51,43 66,56 17,15 45,38 83,68 38,30 65,53 83,68 -7,7 -20,20 -37,37 -17,18 -31,32 -39,41 -8,9 -19,23 -34,43 -14,19 -26,34 -34,44 -16,-14 -39,-36 -69,-66 -31,-30 -53,-51 -69,-64 -141,-130 -253,-231 -337,-305 -30,-26 -74,-62 -132,-109 -17,20 -41,50 -74,91 -29,41 -54,76 -73,107 -7,-11 -20,-25 -39,-41 -16,-14 -29,-24 -37,-30 -2,0 -4,-2 -8,-4 -3,-2 -6,-3 -8,-4 32,-31 55,-55 70,-73 66,-70 121,-130 163,-179l91 -104c15,-17 36,-44 61,-79 26,-35 48,-63 66,-85 11,15 24,28 37,40 16,14 34,27 54,39 -61,51 -118,107 -169,165l70 67z"/>
   <path id="6" class="fil3" d="M2514 2119c45,-26 76,-46 93,-59 16,-13 43,-38 80,-76 16,22 38,54 68,95 29,42 53,76 73,101 20,28 52,69 95,124l156 200c11,14 29,36 52,65 24,29 41,51 53,66l56 -49c28,-22 86,-73 174,-154 5,11 15,27 32,48 16,21 29,35 39,43l-183 133c-16,12 -39,32 -70,58 -31,26 -54,45 -70,57 -20,15 -48,39 -85,72 -64,-95 -150,-212 -258,-350 -11,-14 -27,-36 -49,-64 -21,-28 -37,-50 -49,-64 -20,-26 -51,-64 -94,-114 -42,-50 -73,-87 -94,-112l-18 -20z"/>
   <path id="7" class="fil3" d="M3167 1622c22,-11 52,-26 92,-45 40,-19 72,-35 98,-50 39,-22 86,-49 139,-81 54,-32 94,-56 123,-72 9,20 25,49 46,87 3,3 7,7 10,13 -120,54 -211,98 -275,134 14,28 36,69 66,123 8,14 20,36 35,65 15,29 27,51 35,65l262 -157c9,27 16,46 23,58 6,11 16,24 32,41 -81,37 -152,73 -214,107 -6,3 -15,8 -29,14 -13,7 -23,12 -30,16l83 149 82 147c72,-40 159,-95 262,-166 9,20 25,49 46,87 3,3 7,8 10,13 -24,13 -60,31 -108,55 -48,24 -84,43 -107,55 -15,9 -39,22 -69,41 -31,18 -53,32 -68,40 -22,12 -56,33 -103,61 -3,-8 -9,-19 -16,-35 -8,-15 -13,-26 -16,-34 -12,-23 -31,-59 -57,-109 -26,-50 -46,-88 -60,-113 -10,-19 -26,-48 -48,-88 -21,-40 -37,-69 -48,-89l-76 -137c-11,-20 -29,-50 -54,-91 -25,-40 -44,-71 -56,-91l-9 -16z"/>
   <path id="8" class="fil3" d="M4295 1302c13,35 33,87 58,157 25,70 45,121 58,156 7,17 17,43 31,78 14,35 25,62 32,80 8,22 22,55 41,99 19,44 33,77 41,99 -10,3 -26,8 -50,16 -24,7 -42,13 -54,18 -11,4 -27,11 -49,22 -22,10 -39,18 -50,23 -7,-20 -17,-50 -30,-91 -13,-40 -23,-70 -31,-89 -63,-181 -115,-323 -155,-427 -14,-37 -36,-90 -65,-158 -24,9 -60,25 -108,46 -45,23 -84,43 -116,60 -1,-13 -5,-31 -14,-54 -8,-20 -14,-35 -19,-43 -1,-1 -3,-3 -5,-7 -2,-4 -4,-6 -5,-7 42,-13 74,-24 96,-32 91,-32 167,-59 228,-83l129 -49c22,-8 52,-22 92,-40 40,-19 73,-33 99,-43 3,19 8,36 14,52 8,20 17,39 29,59 -79,17 -154,39 -227,67l31 92z"/>
   <path id="9" class="fil3" d="M4970 1088c5,28 13,69 22,123 9,54 17,98 24,134 8,38 19,84 34,140 14,56 25,99 32,130 5,22 14,54 25,96 12,43 20,74 25,95 -11,2 -29,4 -52,8 -24,3 -41,6 -52,9 -40,9 -78,19 -116,31 -17,-143 -46,-304 -84,-485l-15 -70c-6,-28 -13,-59 -21,-91 -8,-32 -14,-58 -18,-75 -19,-76 -35,-134 -48,-175 53,-5 89,-10 109,-14 20,-4 55,-15 105,-31 11,79 21,138 27,178z"/>
   <path id="10" class="fil3" d="M6056 1538l-21 117c-69,42 -156,67 -261,74 -49,3 -107,1 -176,-7 -42,-6 -92,-25 -150,-56 -38,-22 -72,-52 -103,-88 -61,-71 -96,-157 -103,-259 -6,-81 1,-153 20,-216 19,-63 55,-121 107,-174 88,-87 211,-136 369,-147 100,-7 192,8 275,45 -3,15 -6,36 -10,63 -4,26 -8,51 -11,74l-19 1c-27,-34 -62,-60 -103,-78 -42,-19 -84,-26 -127,-24 -70,5 -127,28 -171,70 -44,42 -75,94 -93,156 -18,62 -24,128 -20,196 8,110 40,199 97,265 31,34 69,59 113,76 44,16 89,23 134,20 40,-3 82,-15 126,-37 43,-22 79,-48 107,-78l17 5z"/>
   <path id="11" class="fil3" d="M7048 1727c-111,65 -240,85 -385,60 -151,-27 -263,-92 -336,-195 -72,-98 -95,-219 -70,-361 26,-145 98,-254 219,-325 112,-64 241,-83 384,-58 121,22 218,69 290,144 60,62 98,127 112,195 16,69 17,141 4,216 -12,67 -37,129 -74,186 -38,57 -86,103 -144,139zm-102 -128c50,-64 85,-151 105,-261 11,-60 11,-120 1,-179 -10,-60 -32,-111 -68,-154 -35,-43 -84,-70 -146,-81 -58,-10 -109,-4 -155,19 -46,22 -83,52 -112,93 -46,63 -79,154 -100,272 -11,61 -11,119 -1,176 10,57 32,105 68,146 35,41 84,67 146,78 100,17 188,-18 263,-108z"/>
   <path id="12" class="fil3" d="M8319 1832c57,29 97,73 121,131 24,61 22,120 -7,177 -30,60 -79,102 -145,127 -44,16 -104,15 -180,-6 -22,-7 -50,-19 -84,-36 -19,-10 -47,-25 -85,-46 -38,-21 -67,-36 -87,-47 -23,-12 -58,-28 -106,-49 23,-34 55,-88 95,-160 76,-143 132,-251 170,-325 19,-36 71,-146 157,-329 59,34 104,58 132,72 20,10 49,24 88,42 39,18 68,32 86,42 43,22 80,48 109,78 30,30 48,64 56,103 8,39 0,80 -23,124 -27,53 -67,86 -121,100 -54,14 -111,11 -170,-9l-4 9zm-2 -77c49,-12 86,-44 113,-97 9,-17 15,-38 19,-64 4,-26 3,-46 -4,-60 -15,-34 -40,-59 -74,-76 -24,-12 -44,-21 -58,-25 -38,70 -67,123 -86,159l-63 123c33,17 61,28 83,35 22,7 45,9 70,5zm-295 384c49,25 94,25 133,1 39,-23 68,-52 86,-88 57,-113 34,-196 -71,-249 -17,-9 -31,-15 -41,-19 -21,37 -50,95 -90,172 -8,16 -21,42 -37,75 -16,34 -29,59 -38,76 7,3 16,9 29,16 13,7 22,12 28,15z"/>
   <path id="13" class="fil3" d="M9011 1747c19,15 44,38 77,67 33,30 61,53 84,71 36,28 79,60 129,96 50,37 88,65 115,84 -15,16 -36,42 -63,77 -1,4 -4,9 -9,14 -96,-90 -174,-157 -231,-202 -20,24 -50,60 -88,109 -10,13 -26,32 -46,58 -21,25 -36,45 -46,58l247 180c-21,18 -36,33 -45,44 -7,10 -16,25 -25,46 -66,-60 -127,-112 -183,-156 -5,-4 -13,-11 -25,-21 -11,-10 -20,-17 -26,-22l-105 134 -104 133c65,51 151,110 256,177 -15,16 -35,41 -62,76 -2,4 -4,9 -9,14 -21,-17 -51,-43 -92,-78 -41,-35 -72,-61 -93,-77 -14,-11 -35,-27 -64,-48 -29,-21 -50,-36 -63,-47 -20,-15 -52,-39 -97,-71 6,-6 14,-15 26,-29 11,-13 19,-23 25,-28 16,-20 43,-51 79,-95 36,-44 63,-76 81,-99 13,-17 34,-43 63,-79 28,-35 49,-62 63,-80l96 -123c14,-18 35,-47 62,-86 27,-39 48,-68 62,-86l11 -14z"/>
   <path id="14" class="fil3" d="M9621 2275c32,41 55,69 70,84 14,14 41,39 82,72 -20,18 -49,44 -88,77 -39,33 -70,61 -93,83 -26,23 -63,59 -114,107l-182 176c-13,13 -33,32 -59,59 -27,26 -47,46 -60,60l55 51c25,26 83,79 173,158 -11,6 -25,19 -44,36 -19,18 -32,33 -38,44l-152 -169c-14,-15 -36,-36 -65,-64 -29,-28 -50,-50 -64,-64 -17,-18 -44,-44 -81,-78 88,-74 195,-171 321,-293 13,-12 33,-31 59,-55 26,-24 46,-43 58,-55 24,-23 58,-58 104,-105 45,-47 79,-82 102,-105l18 -20z"/>
   <path id="15" class="fil3" d="M10453 3657c40,-99 29,-196 -33,-292 -59,-92 -147,-140 -262,-143 -88,-1 -179,28 -272,89 -47,31 -88,69 -123,116 -35,47 -55,95 -61,145 -3,31 -3,55 -1,73 3,18 10,43 21,75 12,28 22,49 31,62 13,20 32,44 58,70 3,4 10,12 21,21 11,10 17,15 21,15 1,0 3,0 7,-2 4,-1 5,-2 6,-1l86 -56c42,-28 99,-68 169,-120 15,30 32,59 50,88 20,31 41,59 63,86 -56,28 -118,65 -189,110 -29,19 -70,47 -124,85 -108,-96 -188,-183 -238,-261 -39,-60 -68,-122 -88,-186 -20,-64 -27,-127 -23,-189 4,-62 23,-120 55,-175 33,-55 80,-102 143,-143 67,-44 135,-71 202,-81 68,-11 133,-7 195,13 63,20 121,51 175,96 54,45 102,100 144,164 65,100 101,204 108,311 -59,16 -103,30 -132,42l-10 -15z"/>
   <path id="16" class="fil3" d="M10368 4423c28,-32 45,-51 51,-59 4,-5 6,-9 5,-13 -1,-4 -5,-5 -10,-3 -24,8 -61,22 -111,40 -49,19 -87,32 -111,40l-35 12c-33,13 -76,32 -129,56 -3,-12 -8,-30 -14,-53 -7,-23 -11,-41 -15,-52 -4,-11 -11,-28 -20,-51 -10,-23 -16,-39 -21,-50l24 -6c10,-3 20,-6 32,-9 11,-3 20,-6 26,-7 6,-2 15,-4 28,-7 56,-15 140,-42 251,-80 25,-9 63,-22 114,-40 51,-18 90,-32 115,-40 59,-21 152,-55 278,-104l26 89c7,20 18,49 33,89 15,40 26,70 33,90 35,101 50,172 45,213 -17,89 -66,148 -146,176 -60,21 -116,20 -167,-2 -51,-22 -94,-61 -128,-118 -47,52 -140,168 -279,347l-57 70c-4,-13 -9,-32 -16,-59 -8,-27 -13,-46 -17,-59 -13,-37 -28,-75 -45,-113l209 -234 55 -62zm300 -158l-99 34c-40,14 -71,24 -92,30 23,68 56,113 96,133 40,21 91,21 152,0 25,-9 46,-18 62,-28 23,-14 39,-29 48,-46 9,-16 14,-34 13,-51 0,-18 -4,-38 -11,-60 -7,-22 -13,-43 -20,-64l-150 51z"/>
   <path id="17" class="fil3" d="M10199 4995l240 66c275,76 513,136 716,180 0,5 1,10 0,16 0,7 0,13 0,20 0,7 0,12 1,16 1,8 3,15 6,24 3,9 5,16 7,24l-21 14c-272,150 -544,306 -816,468l-13 10 -12 2c-1,-13 -3,-32 -4,-57 -2,-25 -4,-44 -5,-58 -5,-37 -12,-73 -22,-109 116,-55 202,-98 258,-130 -2,-16 -5,-41 -8,-73 -3,-33 -6,-58 -9,-74 -5,-34 -14,-87 -26,-160l-19 -3c-44,-9 -89,-19 -135,-28 -47,-9 -90,-16 -129,-20 1,-21 0,-42 -3,-64 -3,-20 -8,-40 -14,-60l10 -1zm376 200l34 243c77,-40 175,-94 293,-162 -115,-32 -219,-58 -314,-78l-12 -3z"/>
   <path id="18" class="fil3" d="M10285 6084c4,-19 7,-36 8,-53 1,-20 1,-41 -2,-62 95,16 194,30 297,40 103,11 215,20 336,28 24,2 59,4 107,7 48,3 84,5 108,7 27,2 49,3 64,2 -8,29 -12,48 -12,59 -1,12 0,33 4,62 -62,49 -119,94 -172,137 -53,43 -111,90 -176,143 -65,52 -120,97 -167,134 -47,37 -99,78 -156,121l294 21 150 10c22,2 50,2 84,2 34,0 60,0 76,1l27 0c-8,29 -12,48 -12,59 -1,9 -1,20 0,32 1,12 1,22 1,30 -33,-5 -58,-8 -74,-9 -64,-10 -120,-17 -168,-22 -28,-3 -51,-5 -68,-7 -18,-2 -38,-5 -63,-8 -25,-3 -48,-5 -69,-7 -21,-2 -38,-4 -52,-5l-135 -10 -281 -20c1,-3 2,-8 3,-14 2,-8 3,-21 4,-37 2,-24 2,-44 0,-58 202,-150 376,-284 521,-404l162 -133c-82,-9 -141,-14 -178,-16l-123 -9c-152,-11 -265,-16 -341,-15l2 -8z"/>
   <path id="19" class="fil3" d="M10022 7816c-49,-120 -51,-250 -5,-390 47,-146 127,-248 240,-305 108,-57 230,-64 367,-19 140,46 237,133 291,262 48,120 49,250 4,389 -38,117 -99,206 -182,268 -69,51 -139,79 -209,84 -70,6 -142,-2 -214,-26 -65,-21 -123,-55 -174,-100 -51,-45 -90,-99 -117,-161zm139 -83c57,59 138,106 245,140 58,19 117,27 178,26 61,-1 115,-16 162,-45 48,-29 81,-74 101,-133 18,-56 19,-108 3,-156 -15,-48 -41,-90 -76,-123 -56,-54 -142,-100 -257,-137 -59,-19 -117,-28 -175,-26 -58,2 -109,17 -154,46 -46,29 -78,74 -98,134 -31,96 -8,188 71,275z"/>
   <circle class="fil0" cx="2222" cy="8865" r="237"/>
   <circle class="fil0" cx="9951" cy="8865" r="237"/>
  </g>
  <g id="_565682712">
   <path class="fil1" d="M4145 7582c-362,-424 -581,-974 -581,-1575 0,-1289 1006,-2343 2275,-2420 0,1317 0,2633 0,3950l-750 0 0 -1230 -748 0c54,297 186,567 375,788l-570 487zm944 -1875l0 -1113c-386,246 -664,646 -748,1113l748 0z"/>
   <path class="fil1" d="M8640 6986c16,-50 25,-104 25,-159 0,-287 -232,-519 -518,-519l-1257 0 0 2378c810,-272 1456,-901 1751,-1700zm-2501 -4550c1314,54 2445,818 3020,1917 88,168 209,435 239,625 84,540 -294,1029 -730,1029 448,0 812,489 730,1029 -23,145 -105,347 -168,482 -549,1176 -1721,2004 -3091,2061 0,-2381 0,-4762 0,-7143zm750 893l0 2378 1256 0c287,0 519,-232 519,-519 0,-55 -9,-109 -25,-159 -295,-799 -941,-1428 -1751,-1700zm-1050 6250c-1905,-79 -3425,-1647 -3425,-3572 0,-1924 1520,-3493 3425,-3572l0 751c-1490,78 -2675,1311 -2675,2821 0,1510 1185,2743 2675,2821l0 751z"/>
  </g>
 </g>
</svg>