<svg xmlns:sodipodi="http://sodipodi.sourceforge.net/DTD/sodipodi-0.dtd" xmlns:cc="http://creativecommons.org/ns#" xmlns:inkscape="http://www.inkscape.org/namespaces/inkscape" xmlns:rdf="http://www.w3.org/1999/02/22-rdf-syntax-ns#" xmlns:dc="http://purl.org/dc/elements/1.1/" xmlns:svg="http://www.w3.org/2000/svg" xmlns="http://www.w3.org/2000/svg" xmlns:xlink="http://www.w3.org/1999/xlink" version="1.1" id="Ebene_1" inkscape:version="1.0 (4035a4f, 2020-05-01)" sodipodi:docname="Logo_Atalanta_Bergamo.svg" x="0px" y="0px" viewBox="0 0 349.5 563" style="enable-background:new 0 0 349.5 563;" xml:space="preserve">
<style type="text/css">
	.st0{fill:#FFFFFF;}
	.st1{fill:#0D68B1;}
	.st2{fill:#1E1E1E;}
</style>
<g>
	
		<sodipodi:namedview bordercolor="#666666" borderopacity="1" gridtolerance="10" guidetolerance="10" id="namedview5138" inkscape:current-layer="Ebene_1" inkscape:cx="174.7325" inkscape:cy="281.51199" inkscape:pageopacity="0" inkscape:pageshadow="2" inkscape:window-height="793" inkscape:window-maximized="1" inkscape:window-width="1440" inkscape:window-x="0" inkscape:window-y="25" inkscape:zoom="1.0406034" objecttolerance="10" pagecolor="#ffffff" showgrid="false">
		</sodipodi:namedview>
	<g>
		<g>
			<path class="st0" d="M174.7,0.1c94.7,0,171.4,126,171.4,281.4s-76.7,281.4-171.4,281.4S3.4,436.9,3.4,281.5S80.1,0.1,174.7,0.1"/>
			<path class="st0" d="M52.1,441.2c28.4,62.2,72.7,102.3,122.5,102.3c85.2,0,154.8-117.7,154.8-262c0-56.8-10.8-109.5-29.1-152.5     l-2.9-6.6C269.2,59.9,224.7,19.5,174.7,19.5c-85.2,0-154.8,117.7-154.8,262c0,57.1,10.9,110,29.3,153.1L52.1,441.2z"/>
			<path class="st1" d="M174.7,19.5c49.9,0,94.4,40.4,122.8,102.8L49.3,434.6C30.9,391.5,20,338.6,20,281.5     C19.9,137.2,89.5,19.5,174.7,19.5"/>
			<path class="st2" d="M300.4,129c18.2,43,29.1,95.7,29.1,152.5c0,144.3-69.5,262-154.8,262c-49.8,0-94.2-40.2-122.5-102.3     L300.4,129z"/>
			<path class="st2" d="M313.2,287.4c0.1,0.4-0.9,2-1.6,2.9c-14.5,18.5-39.1,25.3-65.4,20.9c-28.8-4.9-52.7-24.8-85.7-31.4     c-2.1-0.9,1.7-2,2.2-2.2c3.5-1.1,11-0.2,15.5,0.6c25.6,4.7,49.5,18.5,74.6,21.6c23.9,2.9,41-4.7,58.7-12.3     C312.5,286.8,313.1,287,313.2,287.4"/>
			<path class="st2" d="M310.2,261.3c0.2,0.2-0.1,0.6-0.3,1.1c-18.4,35.1-72.4,22.5-112.9,4.8c-4.6-2-8.9-4.5-13.7-6.1     c-10.4-3.5-20.5-3.7-29.5-5.6c-0.5-0.1-1.6-0.2-1.6-0.5c0-0.3,1.9-1.1,3.8-2c11-5.4,26.4-2.7,41.7,2c16.1,5,32,13.1,47.7,17.1     c26.6,6.8,46.2-1.1,64.2-10.7C309.9,261.2,310.2,261.2,310.2,261.3"/>
			<path class="st2" d="M305,238c0.4,0.4,0,1,0,1c-10.7,16.4-34.1,23-57.1,18.9c-8.6-1.5-17.5-5.3-26.5-8.7     c-24-9.1-52.4-21.4-77.8-17.5c-1.1-0.8,1.3-2.4,1.8-2.8c8-6.6,22.5-9.6,35.9-7.4c25.2,4.2,49.6,22.3,74.5,26.4     c19.7,3.3,33-4.4,47.8-9.8C303.5,238.2,304.7,237.8,305,238"/>
			<path class="st2" d="M297.2,218.5c0.1,0.4-0.6,1.2-0.6,1.2c-12.9,12.9-31.8,18-53.4,12.8c-21.1-5-38.7-19.7-60.3-25.1     c-15.9-4-30.3-3.2-45.4-2c1.5-4.4,6.8-8.2,11.2-10.2c21.5-9.9,47.9,1.8,70.3,13c10.3,5.1,21,11.1,31.2,13.6     c18.2,4.5,31.5-0.9,46.3-3.8C296.6,218.1,297.2,218.2,297.2,218.5"/>
			<path class="st2" d="M301.6,336c-13.9,24.1-59.8,28.1-89.4,7.7c-5.4-3.8-10.7-7.9-13.6-13.1c-0.2-0.2-0.2-0.5-0.2-0.5     c0.1-0.1,0.4,0.1,0.7,0.2c13.4,4.6,25.2,11.5,39.2,14.9c24.8,6.2,46-0.5,61.9-10.1c0,0,0.9-0.5,1.4-0.2     C301.9,335.3,301.6,336,301.6,336"/>
			<path class="st2" d="M310.2,311.6c-23.3,36.7-98.4,23.9-132.2-6.5c0,0-1.4-1.1-1.1-1.4c0.2-0.3,2,0.5,2,0.5     c23.6,8.2,49.8,15.8,72.8,17.9c23.6,2.3,42.8-2.9,58.1-12.2c0,0,0.7-0.5,0.9-0.2C310.8,309.9,310.5,310.6,310.2,311.6"/>
			<path class="st0" d="M182.4,130c-82.9-4.2-153.7,60.2-157.9,143.9C20.3,357.6,84.1,428.8,167.1,433s153.7-60.2,157.9-143.9     C329.2,205.5,265.3,134.2,182.4,130 M310.2,261.3c0.2,0.2-0.1,0.6-0.3,1.1c-18.4,35.1-72.4,22.5-112.9,4.8     c-4.6-2-8.9-4.5-13.7-6.1c-0.7-0.2-1.4-0.5-2-0.6c-0.2-0.1-0.5-0.2-0.7-0.2c-0.5-0.2-0.9-0.2-1.3-0.4c-0.3-0.1-0.5-0.2-0.8-0.2     c-0.4-0.1-0.8-0.2-1.2-0.3c-0.3-0.1-0.6-0.2-0.9-0.2c-0.4-0.1-0.8-0.2-1.1-0.2c-0.3-0.1-0.6-0.2-0.9-0.2     c-0.4-0.1-0.7-0.2-1.1-0.2c-0.3-0.1-0.6-0.2-0.9-0.2c-0.4-0.1-0.7-0.2-1.1-0.2c-0.3-0.1-0.6-0.1-0.9-0.2s-0.7-0.1-1-0.2     c-0.3-0.1-0.7-0.1-1-0.2s-0.7-0.1-1-0.2c-0.4-0.1-0.7-0.1-1.1-0.2c-0.3-0.1-0.6-0.1-0.9-0.2c-0.6-0.1-1.2-0.2-1.8-0.2     c-0.2,0-0.5-0.1-0.6-0.1c-0.5-0.1-0.9-0.2-1.3-0.2c-0.2,0-0.5-0.1-0.7-0.1c-0.4-0.1-0.8-0.2-1.1-0.2c-0.2,0-0.5-0.1-0.8-0.1     c-0.4-0.1-0.8-0.2-1.1-0.2c-0.2-0.1-0.5-0.1-0.7-0.2c-0.4-0.1-0.8-0.2-1.1-0.2c-0.2-0.1-0.5-0.1-0.7-0.2     c-0.4-0.1-0.8-0.2-1.1-0.2c-0.2-0.1-0.5-0.1-0.6-0.2c-0.1,0-0.2,0-0.2-0.1c-0.3-0.1-1-0.2-1.4-0.3c-0.1,0-0.1,0-0.2,0l0,0     c-0.1-0.1-0.2-0.2-0.2-0.2c0-0.3,1.9-1.1,3.9-2c0.2-0.1,0.4-0.2,0.5-0.2c0.1-0.1,0.2-0.1,0.3-0.2c9-4,20.6-2.9,32.8,0.2     c0.1,0,0.2,0,0.2,0.1c0.5,0.1,0.9,0.2,1.3,0.3c0.2,0,0.2,0.1,0.4,0.1c0.4,0.1,0.8,0.2,1.2,0.3c0.2,0.1,0.3,0.1,0.5,0.2     c0.4,0.1,0.8,0.2,1.1,0.3c0.2,0.1,0.3,0.1,0.5,0.2c0.4,0.1,0.8,0.2,1.1,0.3c0.2,0.1,0.3,0.1,0.5,0.2c0.5,0.2,1.1,0.3,1.5,0.5     c16.1,5,32,13.1,47.7,17.1c26.6,6.8,46.2-1.1,64.2-10.7C309.9,261.2,310.2,261.2,310.2,261.3 M305,238c0.4,0.4,0,1,0,1     c-10.7,16.4-34,23-57.1,18.9c-8.6-1.5-17.5-5.3-26.5-8.7c-24-9.1-52.4-21.4-77.8-17.5c-1.1-0.8,1.3-2.4,1.8-2.8     c8-6.6,22.5-9.6,35.9-7.4c25.2,4.2,49.6,22.3,74.5,26.4c19.7,3.3,33-4.4,47.8-9.8C303.5,238.2,304.7,237.8,305,238 M297.2,218.5     c0.1,0.4-0.6,1.2-0.6,1.2c-12.9,12.9-31.8,18-53.4,12.8c-21.1-5-38.7-19.7-60.3-25.1c-15.9-4-30.3-3.2-45.4-2     c1.5-4.4,6.8-8.2,11.2-10.2c21.5-9.9,47.9,1.8,70.3,13c10.3,5.1,21,11.1,31.2,13.6c18.2,4.5,31.5-0.9,46.3-3.8     C296.6,218.1,297.2,218.2,297.2,218.5 M173.8,418.3c-0.2,0-0.5,0-0.8,0l0,0c-1.3,0-2.6-0.1-3.9-0.2c-18.4-0.9-36.1-5.4-52.5-13.4     c-15.9-7.7-30-18.2-41.9-31.5c-11.9-13.1-21-28.2-27-44.8c-6.2-17.2-8.9-35.2-8-53.6c0.9-18.4,5.4-36.1,13.4-52.5     c7.7-15.9,18.2-30,31.5-41.9c13.1-11.9,28.2-21,44.8-27c17.2-6.2,35.2-8.9,53.6-8c18.4,0.9,36.1,5.4,52.5,13.4     c15.9,7.7,30,18.2,41.9,31.5c3.8,4.3,7.4,8.7,10.7,13.4c-8.6,3.5-16.7,7.1-26.3,6.2c-13.3-1.4-28.2-8-42.3-14.7     c-30.9-14.9-64.9-27.7-87.5-6.4c-2,1.9-5,5.6-6.5,8.7c-1.1,2.6-1.1,5.9-2.8,9c-3,5.7-9.8,9.8-14,15.5c-2.3,3-4.4,5.8-6.1,9.3     c-2.4,5-4.4,12.4-7.4,17c-2.8,4.4-8.1,9.5-12.5,13.7c-3.5,3.3-11.5,8.4-12.5,13.7c-1.3,6.2,6.5,8.3,6.4,13.4     c-0.1,3.8-4.6,6.9-5.2,10.1c-0.7,3.8,0.9,4.4,2.9,8.3c-0.5,2.2-3.2,1.1-3.2,4.1c0.6,3.6,3.2,5.1,3,9.9c-0.3,5.4-3.9,10-3.5,14.3     c1,11.4,28.1,12.8,41.7,17.3c18.5,6.2,28.5,20,37.9,32.6c2.5,3.3,6.1,7.8,8.9,11.9c1.4,2.1,6.2,10.4,10.1,16.1     c40.2-0.8,74.5-13.6,106-45.9h7.1C250.1,401.9,214.7,416.6,173.8,418.3 M301.6,336c-13.9,24.1-59.8,28.1-89.4,7.7     c-0.4-0.2-0.7-0.5-1.1-0.8c-0.2-0.1-0.2-0.2-0.4-0.2c-0.2-0.2-0.5-0.3-0.7-0.5c-0.2-0.1-0.2-0.2-0.4-0.3     c-0.2-0.2-0.5-0.3-0.6-0.5c-0.2-0.1-0.3-0.2-0.5-0.3c-0.2-0.2-0.4-0.3-0.6-0.5c-0.2-0.2-0.3-0.2-0.5-0.4     c-0.2-0.2-0.4-0.3-0.5-0.5c-0.2-0.2-0.3-0.2-0.5-0.4c-0.2-0.2-0.4-0.3-0.5-0.5c-0.2-0.2-0.3-0.2-0.5-0.4s-0.4-0.3-0.5-0.5     c-0.2-0.2-0.3-0.2-0.5-0.4s-0.3-0.3-0.5-0.5c-0.2-0.2-0.3-0.2-0.4-0.4c-0.2-0.2-0.3-0.3-0.5-0.5s-0.2-0.2-0.4-0.4     c-0.2-0.2-0.3-0.3-0.5-0.5c-0.2-0.2-0.2-0.3-0.4-0.4c-0.2-0.2-0.3-0.3-0.5-0.5c-0.2-0.2-0.2-0.3-0.4-0.4     c-0.2-0.2-0.3-0.3-0.4-0.5c-0.2-0.2-0.2-0.3-0.4-0.5s-0.2-0.3-0.4-0.5c-0.1-0.2-0.2-0.3-0.3-0.5c-0.2-0.2-0.2-0.3-0.4-0.5     c-0.1-0.2-0.2-0.3-0.3-0.5s-0.2-0.4-0.3-0.5s-0.2-0.3-0.3-0.5c0-0.1-0.1-0.2-0.1-0.2c-0.1-0.1-0.1-0.2-0.1-0.2     c-0.1-0.2-0.2-0.3-0.2-0.5c0.2,0.1,0.2,0.1,0.4,0.2c0.2,0,0.3,0.1,0.5,0.2c0.3,0.1,0.7,0.2,1,0.4c0.4,0.2,0.8,0.2,1.1,0.4     c0.5,0.2,0.9,0.4,1.4,0.5c0.4,0.2,0.8,0.3,1.1,0.5c0.5,0.2,0.9,0.4,1.4,0.5c0.4,0.2,0.8,0.3,1.1,0.5c0.5,0.2,0.9,0.4,1.4,0.6     c0.4,0.2,0.8,0.3,1.1,0.5c0.5,0.2,1,0.4,1.4,0.6c0.4,0.2,0.7,0.3,1.1,0.5c0.5,0.2,1,0.5,1.5,0.7c0.3,0.2,0.7,0.3,1,0.5     c0.8,0.3,1.4,0.6,2.2,1c0.4,0.2,0.8,0.3,1.1,0.5c0.5,0.2,1,0.4,1.4,0.6c0.4,0.2,0.8,0.4,1.2,0.5s0.8,0.4,1.3,0.5     c0.4,0.2,0.8,0.4,1.2,0.5s0.8,0.3,1.2,0.5c0.5,0.2,0.8,0.4,1.3,0.5c0.4,0.2,0.8,0.3,1.2,0.5c0.5,0.2,0.9,0.3,1.3,0.5     c0.4,0.2,0.8,0.3,1.2,0.5c0.5,0.2,0.9,0.3,1.4,0.5c0.4,0.2,0.8,0.3,1.1,0.4c0.5,0.2,1,0.3,1.5,0.5c0.4,0.2,0.7,0.2,1.1,0.4     c0.5,0.2,1.1,0.3,1.7,0.5c0.3,0.1,0.6,0.2,0.9,0.3c0.9,0.2,1.7,0.5,2.6,0.7c24.8,6.2,46-0.5,61.9-10.1c0,0,0.9-0.5,1.4-0.2     C301.9,335.3,301.6,336,301.6,336 M310.2,311.6c-23.3,36.7-98.4,23.9-132.2-6.5c0,0-1.4-1.1-1.1-1.4c0.2-0.3,2,0.5,2,0.5     c23.6,8.2,49.8,15.8,72.8,17.9c23.6,2.3,42.8-2.9,58.1-12.2c0,0,0.7-0.5,0.9-0.2C310.8,309.9,310.5,310.6,310.2,311.6      M311.6,290.2c-14.5,18.5-39.1,25.3-65.4,20.9c-28.8-4.9-52.7-24.8-85.7-31.4c-0.9-0.4-0.8-0.8-0.2-1.2c0.6-0.5,2-0.9,2.3-1     c3.5-1.1,11-0.2,15.5,0.6c25.6,4.7,49.5,18.5,74.6,21.6c23.9,2.9,41-4.7,58.7-12.3c1.1-0.5,1.6-0.4,1.7,0     C313.2,287.7,312.2,289.3,311.6,290.2"/>
		</g>
		<path class="st0" d="M73.2,136.1L69.8,121l0.1-0.1l11.7,9.5L73.2,136.1z M85,133l7.7,6.3l4-2.6l-27.2-21.2l-4.1,2.8l7.4,34.5    l3.8-2.5l-2.3-10L85,133z"/>
		<path class="st0" d="M73.2,136.1L69.8,121l0.1-0.1l11.7,9.5L73.2,136.1z M85,133l7.7,6.3l4-2.6l-27.2-21.2l-4.1,2.8l7.4,34.5    l3.8-2.5l-2.3-10L85,133z"/>
		<polygon class="st0" points="79.2,107.5 103,96.2 104.5,99.9 94.7,104.5 106.6,130.9 102.7,132.8 90.7,106.4 80.9,111.1   "/>
		<polygon class="st0" points="79.2,107.5 103,96.2 104.5,99.9 94.7,104.5 106.6,130.9 102.7,132.8 90.7,106.4 80.9,111.1   "/>
		<path class="st0" d="M120,110.8l1.1-15.5h0.1l8.4,12.7L120,110.8z M132.2,111.4l5.6,8.4l4.6-1.4l-19.9-28.6l-4.7,1.4l-2.9,35.2    l4.3-1.3l0.7-10.2L132.2,111.4z"/>
		<path class="st0" d="M120,110.8l1.1-15.5h0.1l8.4,12.7L120,110.8z M132.2,111.4l5.6,8.4l4.6-1.4l-19.9-28.6l-4.7,1.4l-2.9,35.2    l4.3-1.3l0.7-10.2L132.2,111.4z"/>
		<polygon class="st0" points="150.5,112.4 166.7,110.4 167.2,114.3 146.7,116.9 142.8,84.1 147,83.5   "/>
		<polygon class="st0" points="150.5,112.4 166.7,110.4 167.2,114.3 146.7,116.9 142.8,84.1 147,83.5   "/>
		<path class="st0" d="M181.2,101.4l6.4-14h0.1l3.5,14.9L181.2,101.4z M192.3,106.4l2.3,9.9l4.7,0.5l-8.6-34l-4.9-0.5l-14.9,31.8    l4.4,0.5l4.2-9.3L192.3,106.4z"/>
		<path class="st0" d="M181.2,101.4l6.4-14h0.1l3.5,14.9L181.2,101.4z M192.3,106.4l2.3,9.9l4.7,0.5l-8.6-34l-4.9-0.5l-14.9,31.8    l4.4,0.5l4.2-9.3L192.3,106.4z"/>
		<polygon class="st0" points="233.4,91.3 237.4,92.5 228.2,124.2 223.5,122.7 215.3,92.3 215.2,92.3 207.8,117.9 203.7,116.7     212.9,85 217.9,86.5 225.9,116.8 225.9,116.9   "/>
		<polygon class="st0" points="233.4,91.3 237.4,92.5 228.2,124.2 223.5,122.7 215.3,92.3 215.2,92.3 207.8,117.9 203.7,116.7     212.9,85 217.9,86.5 225.9,116.8 225.9,116.9   "/>
		<polygon class="st0" points="242.8,94.3 266.5,105.6 264.9,109.2 255,104.5 243,130.9 239.1,129 251.1,102.6 241.2,97.9   "/>
		<polygon class="st0" points="242.8,94.3 266.5,105.6 264.9,109.2 255,104.5 243,130.9 239.1,129 251.1,102.6 241.2,97.9   "/>
		<path class="st0" d="M263.3,127l12.2-9.2l0.1,0.1l-3.9,14.8L263.3,127z M270.7,136.9l-2.6,9.8l4,2.7l8.3-34.2l-4.1-2.9L248.4,133    l3.8,2.6l8-6.1L270.7,136.9z"/>
		<path class="st0" d="M263.3,127l12.2-9.2l0.1,0.1l-3.9,14.8L263.3,127z M270.7,136.9l-2.6,9.8l4,2.7l8.3-34.2l-4.1-2.9L248.4,133    l3.8,2.6l8-6.1L270.7,136.9z"/>
		<g>
			<path class="st0" d="M114.2,479.8l-5.1-1.7l8.6-28l-8.9-2.9l1.2-3.9c6.4,1.6,9.1,1.8,12.6-4.1l3.8,1.2L114.2,479.8z"/>
			<path class="st0" d="M147.9,469.8c-3.4-0.5-8-2-7.1-9.9c0.7-5.5,4.1-8.9,8.8-8.3c5.7,0.8,7.6,5.1,7.1,9.8     C155.7,469.5,150.5,470.1,147.9,469.8 M146.6,474.3c3.7,0.5,7.9-0.8,9.7-3.8l0.1,0.2c-2.5,10.4-5.9,14.8-11.4,14.1     c-4.1-0.5-6.2-3.4-5.9-7.6l-5-0.6c-0.5,4,1.2,11.3,10.6,12.5c13.7,1.7,16.7-16.9,17.2-21.3c0.8-6.7,1.1-19.1-11.7-20.8     c-8.4-1.1-13.6,5-14.5,12.5C134.6,467.6,139.2,473.4,146.6,474.3"/>
			<path class="st0" d="M147.9,469.8c-3.4-0.5-8-2-7.1-9.9c0.7-5.5,4.1-8.9,8.8-8.3c5.7,0.8,7.6,5.1,7.1,9.8     C155.7,469.5,150.5,470.1,147.9,469.8 M146.6,474.3c3.7,0.5,7.9-0.8,9.7-3.8l0.1,0.2c-2.5,10.4-5.9,14.8-11.4,14.1     c-4.1-0.5-6.2-3.4-5.9-7.6l-5-0.6c-0.5,4,1.2,11.3,10.6,12.5c13.7,1.7,16.7-16.9,17.2-21.3c0.8-6.7,1.1-19.1-11.7-20.8     c-8.4-1.1-13.6,5-14.5,12.5C134.6,467.6,139.2,473.4,146.6,474.3"/>
			<path class="st0" d="M197.1,469c0.6,10.4-1.7,16.7-7.4,17.1c-5.8,0.4-8.8-5.7-9.4-16c-0.6-10.4,1.7-16.7,7.4-17.1     C193.5,452.7,196.5,458.7,197.1,469 M202.5,468.7c-0.5-8.6-3.5-21-15-20.3c-11.5,0.8-13,13.5-12.5,22.1s3.5,21,15,20.3     C201.5,490,203,477.2,202.5,468.7"/>
			<path class="st0" d="M197.1,469c0.6,10.4-1.7,16.7-7.4,17.1c-5.8,0.4-8.8-5.7-9.4-16c-0.6-10.4,1.7-16.7,7.4-17.1     C193.5,452.7,196.5,458.7,197.1,469 M202.5,468.7c-0.5-8.6-3.5-21-15-20.3c-11.5,0.8-13,13.5-12.5,22.1s3.5,21,15,20.3     C201.5,490,203,477.2,202.5,468.7"/>
			<path class="st0" d="M209,445.8l26.7-7.8l1.2,4.4c-2.7,5.3-8.4,20.6-6.2,39.2l-5.3,1.6c-1.7-11.3,1.4-27.6,6.3-38.7l-21.2,6.2     L209,445.8z"/>
			<path class="st0" d="M209,445.8l26.7-7.8l1.2,4.4c-2.7,5.3-8.4,20.6-6.2,39.2l-5.3,1.6c-1.7-11.3,1.4-27.6,6.3-38.7l-21.2,6.2     L209,445.8z"/>
		</g>
	</g>
</g>
</svg>