<svg xmlns="http://www.w3.org/2000/svg" xmlns:xlink="http://www.w3.org/1999/xlink" width="573.47pt" height="573.47pt" viewBox="0 0 573.47 573.47" version="1.1">
<defs>
<clipPath id="clip1">
  <path d="M 0 0 L 573.46875 0 L 573.46875 573.46875 L 0 573.46875 Z M 0 0 "/>
</clipPath>
</defs>
<g id="surface1">
<g clip-path="url(#clip1)" clip-rule="nonzero">
<path style=" stroke:none;fill-rule:nonzero;fill:rgb(21.998596%,17.298889%,52.198792%);fill-opacity:1;" d="M 0 573.46875 L 573.472656 573.46875 L 573.472656 0 L 0 0 Z M 0 573.46875 "/>
</g>
<path style=" stroke:none;fill-rule:nonzero;fill:rgb(100%,100%,100%);fill-opacity:1;" d="M 39.664063 533.804688 L 533.804688 533.804688 L 533.804688 39.664063 L 39.664063 39.664063 Z M 39.664063 533.804688 "/>
<path style=" stroke:none;fill-rule:nonzero;fill:rgb(21.998596%,17.298889%,52.198792%);fill-opacity:1;" d="M 46.835938 526.632813 L 526.636719 526.632813 L 526.636719 46.832031 L 46.835938 46.832031 Z M 46.835938 526.632813 "/>
<path style=" stroke:none;fill-rule:nonzero;fill:rgb(100%,100%,100%);fill-opacity:1;" d="M 286.738281 277.140625 L 139.121094 277.140625 C 122.460938 277.140625 110.101563 275.8125 100.890625 273.5625 C 110.101563 271.308594 122.460938 269.984375 139.121094 269.984375 L 434.347656 269.984375 C 451.011719 269.984375 463.371094 271.308594 472.578125 273.5625 C 463.371094 275.8125 451.011719 277.140625 434.347656 277.140625 "/>
<path style=" stroke:none;fill-rule:nonzero;fill:rgb(100%,100%,100%);fill-opacity:1;" d="M 119.492188 337.054688 L 119.492188 395.824219 C 119.492188 406.75 120.636719 415.558594 122.90625 422.269531 C 125.171875 428.960938 129.191406 434.003906 134.953125 437.410156 C 140.699219 440.8125 148.730469 442.519531 159.035156 442.519531 L 167.171875 442.519531 L 167.171875 412.75 L 165.621094 412.75 C 161.90625 412.75 159.234375 412.472656 157.609375 411.9375 C 156 411.40625 154.953125 410.292969 154.476563 408.652344 C 153.953125 407.105469 153.691406 404.453125 153.691406 400.691406 L 153.691406 337.054688 Z M 203.140625 476.972656 L 203.140625 313.171875 L 236.578125 313.171875 L 236.578125 476.972656 Z M 345.386719 476.972656 L 345.386719 388.707031 C 345.386719 375.089844 344.695313 364.171875 343.308594 355.964844 C 341.925781 347.757813 339.492188 340.070313 336.03125 332.847656 C 332.429688 324.914063 328.0625 318.921875 322.953125 314.828125 C 317.855469 310.742188 312.320313 308.714844 306.355469 308.714844 C 293.964844 308.714844 283.972656 316.769531 276.390625 332.847656 C 273.90625 338.226563 272.007813 343.390625 270.710938 348.339844 C 269.414063 353.320313 268.460938 358.976563 267.835938 365.339844 C 267.214844 371.707031 266.894531 379.484375 266.894531 388.707031 L 266.894531 476.972656 L 297.121094 476.972656 L 297.121094 387.140625 C 297.121094 377.609375 297.835938 370.722656 299.238281 366.480469 C 300.65625 362.238281 303.019531 360.113281 306.335938 360.113281 C 309.585938 360.113281 311.890625 362.207031 313.3125 366.414063 C 314.714844 370.628906 315.425781 377.519531 315.425781 387.140625 L 315.425781 476.972656 Z M 368.710938 343.53125 L 368.710938 337.652344 L 451.769531 337.652344 L 417.914063 413.347656 L 453.980469 413.347656 L 453.980469 443.121094 L 367.746094 443.121094 L 401.34375 367.109375 L 368.710938 367.109375 "/>
<path style=" stroke:none;fill-rule:nonzero;fill:rgb(100%,100%,100%);fill-opacity:1;" d="M 469.359375 237.242188 L 469.359375 224.34375 L 479.929688 224.34375 C 480.707031 224.34375 481.417969 224.203125 482.066406 223.929688 C 482.703125 223.65625 483.03125 223.191406 483.03125 222.535156 C 483.03125 221.433594 482.285156 220.351563 480.910156 219.175781 C 479.996094 218.394531 478.664063 217.132813 476.828125 215.523438 C 474.992188 213.914063 473.585938 212.558594 472.613281 211.460938 C 471.652344 210.367188 470.878906 209.1875 470.324219 207.933594 C 469.765625 206.683594 469.484375 205.34375 469.492188 203.933594 C 469.5 200.796875 470.324219 198.3125 471.9375 196.503906 C 473.554688 194.6875 475.425781 193.457031 477.554688 192.800781 C 479.6875 192.144531 481.734375 191.820313 483.691406 191.820313 L 497.738281 191.820313 L 497.738281 204.566406 L 488.34375 204.566406 C 486.242188 204.566406 485.121094 205.085938 484.988281 206.121094 C 485.175781 206.796875 485.664063 207.484375 486.480469 208.113281 C 487.804688 209.132813 489.339844 210.238281 491.015625 211.507813 C 492.6875 212.769531 494.113281 213.992188 495.273438 215.160156 C 496.433594 216.328125 497.386719 217.621094 498.148438 219.039063 C 498.910156 220.457031 499.34375 222.003906 499.476563 223.695313 C 499.503906 224.027344 499.542969 224.527344 499.542969 225.179688 C 499.542969 227.90625 498.746094 230.175781 497.171875 231.988281 C 495.59375 233.800781 493.554688 235.132813 491.078125 235.980469 C 488.605469 236.824219 485.996094 237.242188 483.28125 237.242188 Z M 428.414063 237.242188 L 428.414063 224.34375 L 438.980469 224.34375 C 439.757813 224.34375 440.46875 224.203125 441.117188 223.929688 C 441.753906 223.65625 442.078125 223.191406 442.078125 222.535156 C 442.078125 221.433594 441.339844 220.351563 439.960938 219.175781 C 439.046875 218.394531 437.714844 217.132813 435.878906 215.523438 C 434.039063 213.914063 432.632813 212.558594 431.664063 211.460938 C 430.703125 210.367188 429.929688 209.191406 429.375 207.933594 C 428.816406 206.683594 428.539063 205.34375 428.542969 203.933594 C 428.550781 200.792969 429.375 198.3125 430.984375 196.503906 C 432.601563 194.6875 434.476563 193.457031 436.605469 192.800781 C 438.734375 192.144531 440.785156 191.820313 442.742188 191.820313 L 456.785156 191.820313 L 456.785156 204.566406 L 447.390625 204.566406 C 445.292969 204.566406 444.171875 205.085938 444.039063 206.121094 C 444.226563 206.796875 444.710938 207.484375 445.53125 208.113281 C 446.855469 209.132813 448.386719 210.238281 450.066406 211.507813 C 451.738281 212.769531 453.164063 213.992188 454.324219 215.160156 C 455.484375 216.328125 456.4375 217.621094 457.199219 219.039063 C 457.960938 220.457031 458.394531 222.003906 458.527344 223.695313 C 458.554688 224.027344 458.589844 224.527344 458.589844 225.179688 C 458.589844 227.90625 457.796875 230.175781 456.21875 231.988281 C 454.640625 233.800781 452.605469 235.132813 450.128906 235.980469 C 447.652344 236.824219 445.046875 237.242188 442.328125 237.242188 Z M 405.132813 237.242188 L 405.132813 191.820313 L 419.46875 191.820313 L 419.46875 237.242188 Z M 392.328125 237.242188 L 385.023438 237.242188 C 381.480469 237.242188 378.28125 236.601563 375.453125 235.316406 C 372.617188 234.03125 370.21875 232.261719 368.269531 230.011719 C 366.324219 227.769531 364.847656 225.238281 363.847656 222.4375 C 362.847656 219.636719 362.320313 216.738281 362.339844 213.742188 C 362.359375 210.890625 362.933594 208.152344 363.984375 205.53125 C 365.035156 202.90625 366.566406 200.558594 368.542969 198.492188 C 370.519531 196.429688 372.902344 194.796875 375.671875 193.609375 C 378.445313 192.417969 381.507813 191.820313 384.859375 191.820313 L 392.328125 191.820313 L 392.328125 203.933594 L 387.265625 203.933594 C 384.996094 203.933594 383.050781 204.316406 381.460938 205.078125 C 379.871094 205.835938 378.675781 207.183594 377.871094 209.128906 L 392.328125 209.128906 L 392.328125 220.003906 L 377.871094 220.003906 C 378.296875 221.289063 379.269531 222.480469 380.796875 223.566406 C 382.324219 224.648438 384.269531 225.191406 386.632813 225.191406 L 392.328125 225.191406 Z M 296.007813 191.820313 L 310.210938 191.820313 L 310.210938 221.960938 C 310.210938 222.824219 310.464844 223.535156 310.957031 224.082031 C 311.449219 224.632813 312.046875 224.996094 312.746094 224.996094 C 313.605469 224.996094 314.316406 224.589844 314.878906 223.972656 C 315.429688 223.355469 315.71875 222.503906 315.71875 221.429688 L 315.71875 191.820313 L 329.757813 191.820313 L 329.757813 221.679688 C 329.757813 222.816406 330.019531 223.671875 330.539063 224.246094 C 331.046875 224.8125 331.675781 225.191406 332.414063 225.191406 C 333.28125 225.191406 334.007813 224.824219 334.605469 224.285156 C 335.191406 223.75 335.484375 223.0625 335.484375 222.222656 L 335.484375 191.820313 L 349.527344 191.820313 L 349.527344 222.660156 C 349.527344 225.085938 349.082031 227.261719 348.183594 229.179688 C 347.289063 231.097656 346.085938 232.695313 344.578125 233.972656 C 343.078125 235.242188 341.347656 236.214844 339.40625 236.878906 C 337.46875 237.539063 335.484375 237.875 333.460938 237.875 C 331.371094 237.875 329.402344 237.503906 327.550781 236.765625 C 325.695313 236.027344 324.125 234.949219 322.835938 233.542969 C 321.613281 234.949219 320.058594 236.03125 318.171875 236.765625 C 316.277344 237.503906 314.253906 237.875 312.078125 237.875 C 309.378906 237.875 306.800781 237.289063 304.339844 236.117188 C 301.886719 234.949219 299.878906 233.222656 298.332031 230.933594 C 296.78125 228.644531 296.007813 225.972656 296.007813 222.910156 Z M 208.003906 191.820313 L 222.207031 191.820313 L 222.207031 221.960938 C 222.207031 222.957031 222.519531 223.726563 223.125 224.269531 C 223.738281 224.820313 224.5 225.191406 225.40625 225.191406 C 226.332031 225.191406 227.101563 224.820313 227.714844 224.269531 C 228.324219 223.726563 228.628906 222.957031 228.628906 221.960938 L 228.628906 191.820313 L 242.738281 191.820313 L 242.738281 221.972656 C 242.738281 224.308594 242.308594 226.464844 241.441406 228.433594 C 240.574219 230.40625 239.34375 232.117188 237.765625 233.558594 C 236.179688 235.007813 234.332031 236.109375 232.21875 236.878906 C 230.105469 237.648438 227.828125 238.035156 225.398438 238.035156 C 221.941406 238.035156 218.886719 237.347656 216.257813 235.964844 C 213.632813 234.585938 211.597656 232.671875 210.15625 230.222656 C 208.722656 227.777344 208.003906 225.0625 208.003906 222.09375 Z M 160.964844 237.242188 L 160.964844 208.421875 C 160.964844 205.449219 161.65625 202.632813 163.035156 199.96875 C 164.414063 197.296875 166.429688 195.148438 169.078125 193.511719 C 171.722656 191.878906 174.785156 191.058594 178.269531 191.058594 C 181.070313 191.058594 183.816406 191.679688 186.503906 192.921875 C 189.195313 194.164063 191.414063 196.128906 193.152344 198.792969 C 194.890625 201.457031 195.757813 204.800781 195.757813 208.800781 L 195.757813 237.242188 L 181.554688 237.242188 L 181.554688 223.324219 L 177.269531 223.324219 L 177.269531 211.78125 L 181.554688 211.78125 L 181.554688 207.523438 C 181.554688 206.429688 181.246094 205.589844 180.625 204.988281 C 180.003906 204.390625 179.214844 204.089844 178.253906 204.089844 C 177.394531 204.089844 176.664063 204.394531 176.066406 205.003906 C 175.464844 205.617188 175.167969 206.460938 175.167969 207.53125 L 175.167969 237.242188 Z M 144.828125 237.242188 L 131.796875 237.242188 C 129.957031 237.242188 128.234375 236.902344 126.605469 236.230469 C 124.988281 235.558594 123.609375 234.613281 122.476563 233.398438 C 121.351563 232.1875 120.46875 230.683594 119.839844 228.894531 C 119.203125 227.097656 118.890625 225.152344 118.890625 223.039063 L 118.890625 191.820313 L 133.09375 191.820313 L 133.09375 220.421875 C 133.09375 221.871094 133.488281 222.894531 134.277344 223.476563 C 135.070313 224.050781 136.179688 224.34375 137.613281 224.34375 L 144.828125 224.34375 Z M 73.9375 237.242188 L 73.9375 206.722656 L 73.929688 191.074219 L 90.796875 191.058594 C 93.5 191.058594 95.878906 191.457031 97.945313 192.257813 C 100.011719 193.058594 101.71875 194.121094 103.070313 195.441406 C 104.421875 196.761719 105.4375 198.242188 106.109375 199.902344 C 106.78125 201.554688 107.121094 203.296875 107.121094 205.109375 C 107.121094 208.203125 106.191406 210.699219 104.335938 212.578125 C 106.191406 213.695313 107.613281 215.222656 108.605469 217.175781 C 109.601563 219.128906 110.09375 221.21875 110.09375 223.453125 C 110.09375 225.160156 109.792969 226.835938 109.195313 228.480469 C 108.589844 230.125 107.714844 231.613281 106.554688 232.941406 C 105.386719 234.269531 103.972656 235.316406 102.277344 236.085938 C 100.59375 236.855469 98.722656 237.242188 96.683594 237.242188 L 90.132813 237.242188 L 90.132813 225.191406 C 91.878906 225.191406 93.144531 224.867188 93.914063 224.230469 C 94.683594 223.582031 95.0625 222.875 95.0625 222.09375 C 95.0625 221.167969 94.664063 220.433594 93.878906 219.882813 C 93.089844 219.328125 91.839844 219.054688 90.132813 219.054688 L 90.132813 208.996094 C 91.128906 208.933594 91.90625 208.648438 92.472656 208.132813 C 93.046875 207.613281 93.332031 207.011719 93.332031 206.339844 C 93.332031 205.601563 93.078125 204.972656 92.585938 204.460938 C 92.089844 203.945313 91.410156 203.683594 90.542969 203.683594 C 89.78125 203.683594 89.230469 203.894531 88.882813 204.316406 C 88.535156 204.738281 88.324219 205.328125 88.253906 206.089844 C 88.179688 206.851563 88.140625 208.042969 88.140625 209.660156 L 88.140625 237.242188 "/>
<path style=" stroke:none;fill-rule:nonzero;fill:rgb(100%,100%,100%);fill-opacity:1;" d="M 346.234375 152.601563 L 334.808594 152.601563 C 328.75 152.601563 323.351563 151.5625 318.628906 149.480469 C 313.898438 147.394531 309.941406 144.5625 306.753906 140.988281 C 303.574219 137.417969 301.167969 133.339844 299.539063 128.773438 C 297.910156 124.210938 296.988281 119.550781 296.988281 114.769531 C 296.988281 109.914063 297.929688 105.175781 299.59375 100.515625 C 301.257813 95.871094 303.695313 91.734375 306.921875 88.121094 C 310.132813 84.519531 314.132813 81.65625 318.871094 79.550781 C 323.617188 77.445313 329.078125 76.398438 335.230469 76.398438 L 346.234375 76.398438 L 346.234375 98.257813 L 338.640625 98.257813 C 335.109375 98.257813 332.023438 99.019531 329.398438 100.542969 C 326.796875 102.0625 324.789063 104.074219 323.410156 106.589844 C 322.035156 109.097656 321.238281 111.761719 321.238281 114.550781 C 321.238281 117.320313 322.03125 119.949219 323.410156 122.441406 C 324.789063 124.933594 326.847656 126.941406 329.5625 128.460938 C 332.296875 129.984375 335.53125 130.628906 339.277344 130.742188 L 346.234375 130.960938 Z M 227.234375 152.601563 L 227.234375 103.570313 C 227.234375 94.046875 229.53125 87.144531 234.136719 82.851563 C 238.730469 78.546875 245.277344 76.398438 253.769531 76.398438 L 271.8125 76.398438 L 271.8125 97.578125 L 259.558594 97.578125 C 255.984375 97.578125 253.675781 98.300781 252.628906 99.726563 C 251.582031 101.152344 251.066406 103.558594 251.066406 106.914063 L 271.8125 106.914063 L 271.8125 126.492188 L 250.847656 126.492188 L 251.066406 152.601563 "/>
</g>
</svg>