<svg xmlns:dc="http://purl.org/dc/elements/1.1/" xmlns:cc="http://creativecommons.org/ns#" xmlns:rdf="http://www.w3.org/1999/02/22-rdf-syntax-ns#" xmlns:svg="http://www.w3.org/2000/svg" xmlns="http://www.w3.org/2000/svg" xmlns:sodipodi="http://sodipodi.sourceforge.net/DTD/sodipodi-0.dtd" xmlns:inkscape="http://www.inkscape.org/namespaces/inkscape" version="1.1" width="241" height="251" viewBox="-0.4418945 -0.1074219 241 251" enable-background="new -0.4418945 -0.1074219 241 251" xml:space="preserve" id="svg2" inkscape:version="0.46" sodipodi:docname="Boavista_F.C._logo.svg" sodipodi:version="0.32" inkscape:output_extension="org.inkscape.output.svg.inkscape"><metadata id="metadata186"><rdf:RDF><cc:Work rdf:about=""><dc:format>image/svg+xml</dc:format><dc:type rdf:resource="http://purl.org/dc/dcmitype/StillImage"/></cc:Work></rdf:RDF></metadata><sodipodi:namedview pagecolor="#ffffff" bordercolor="#666666" borderopacity="1" objecttolerance="10" gridtolerance="10" guidetolerance="10" inkscape:pageopacity="0" inkscape:pageshadow="2" inkscape:window-width="1280" inkscape:window-height="718" id="namedview184" showgrid="false" inkscape:zoom="0.94023904" inkscape:cx="120.5" inkscape:cy="125.5" inkscape:window-x="-8" inkscape:window-y="-8" inkscape:window-maximized="1" inkscape:current-layer="svg2"/>
<defs id="defs4"><inkscape:perspective sodipodi:type="inkscape:persp3d" inkscape:vp_x="0 : 125.5 : 1" inkscape:vp_y="0 : 1000 : 0" inkscape:vp_z="241 : 125.5 : 1" inkscape:persp3d-origin="120.5 : 83.666667 : 1" id="perspective188"/>
</defs>

<path d="M113.5297852,227.4555664v-7.2075195l-0.6352539-0.9526367H55.7407227l9.684082,9.7480469l-5.8422852,6.8266602  c-5.144043-3.8105469-9.8115234-8.2558594-13.9711914-13.4311523c5.4619141-2.6674805,9.7797852-7.1445313,12.2250977-12.7329102  c0.6347656-1.4604492,0.8251953-3.0795898,0.5712891-4.4453125c-0.6352539-3.2070313-3.8735352-4.5722656-6.7631836-3.175293  c-1.6513672,0.8256836-3.0166016,2.4130859-3.8740234,3.8422852c-2.4448242,4.0639648-3.6831055,9.3666992-4.0639648,14.0341797  c-2.3813477-3.2070313-4.5722656-6.699707-6.5727539-10.4780273c5.1757813-3.8100586,8.890625-8.7319336,10.4462891-15.0507813  c0.4130859-1.6508789,0.3496094-3.3022461-0.1269531-4.6674805c-1.1430664-3.2070313-4.5722656-4.0004883-7.2075195-1.96875  c-1.5244141,1.1748047-2.6040039,3.0800781-3.2070313,4.699707c-1.5561523,4.0639648-2.0322266,8.7001953-1.8735352,13.0498047  c-2.3496094-4.953125-2.9526367-6.4770508-0.8251953-11.9384766c0.03125,0,0.0629883,0,0.1264648,0  c4.0009766,0,4.0009766-6.128418,0-6.128418c-2.984375,0-4.1274414,3.7788086-1.8730469,5.4931641  c-0.4448242,1.1748047-0.8256836,2.3496094-1.1430664,3.5244141c-1.1748047-3.2070313-2.190918-6.4453125-3.0483398-9.7480469  c1.96875-0.222168,5.2392578-1.4921875,8.3828125-3.2382813c2.2226563-1.2705078,4.4135742-2.7944336,6.0961914-4.4135742  c2.0322266-2.0004883,4.0009766-4.9536133,2.4130859-7.7792969c-1.4604492-2.6040039-5.0800781-2.730957-7.5249023-1.6831055  c-3.0166016,1.3017578-5.3027344,3.715332-7.0810547,6.6044922c-1.3017578,2.1591797-2.3178711,4.5722656-3.1435547,7.0170898  c-0.3173828-1.3334961-0.6030273-2.6352539-0.8569336-3.96875c-0.4448242-2.2543945,0.7617188-3.6831055,2.0957031-5.2392578  c0.4125977,0.1904297,0.8886719,0.3173828,1.3969727,0.3173828c1.6826172,0,3.0483398-1.3652344,3.0483398-3.0478516  c0-1.6831055-1.3657227-3.0800781-3.0483398-3.0800781c-1.6831055,0-3.0800781,1.3969727-3.0800781,3.0800781  c0,0.5078125,0.1269531,0.984375,0.3491211,1.4287109c-0.2856445,0.3491211-0.5712891,0.6987305-0.8574219,1.0795898  c-0.2539063,0.3173828-0.4760742,0.6352539-0.7299805,0.984375c-0.0952148-0.6035156-0.1586914-1.206543-0.2539063-1.7783203  c-0.4448242-3.0483398-0.7939453-6.0961914-1.0478516-9.1445313c1.5239258-0.0634766,3.96875-0.6987305,6.5092773-1.7783203  c2.4130859-1.015625,4.953125-2.3813477,6.9853516-3.96875c2.1269531-1.6831055,3.6831055-3.6201172,3.9370117-5.6835938  c0.2861328-2.2543945-0.984375-4.1914063-3.1748047-4.8901367c-1.2387695-0.3808594-2.6992188-0.3808594-4.1279297,0.1269531  c-2.8896484,1.0161133-5.2392578,3.2070313-7.1445313,5.9379883c-1.2700195,1.8413086-2.3496094,3.9370117-3.2705078,6.0961914  c-0.0634766-1.2382813-0.1269531-2.4765625-0.1586914-3.746582c-0.0634766-2.2861328,1.2700195-3.746582,2.9213867-5.144043  c0.3491211,0.1269531,0.7299805,0.2226563,1.1113281,0.2226563c1.6826172,0,3.0800781-1.3974609,3.0800781-3.0805664  c0-1.6826172-1.3974609-3.0478516-3.0800781-3.0478516c-1.6831055,0-3.0483398,1.3652344-3.0483398,3.0478516  c0,0.6352539,0.1586914,1.175293,0.4765625,1.6513672c-0.5400391,0.5078125-1.0478516,1.0161133-1.5244141,1.5556641  c0-1.1425781,0-2.2856445,0.0317383-3.4291992c0.0317383-1.6826172,0.0317383-3.3974609,0.222168-5.0483398  c1.2382813-0.1586914,3.1118164-0.7304688,5.0488281-1.5561523c2.7304688-1.1743164,5.8422852-2.9526367,8.3510742-4.953125  c2.5717773-2.0957031,4.5087891-4.5087891,4.6352539-6.921875c0.1274414-2.2543945-1.2700195-4.0961914-3.4926758-4.6040039  c-1.3017578-0.3178711-2.7939453-0.1904297-4.2226563,0.4760742c-4.5087891,2.2543945-7.5888672,7.4619141-9.9707031,12.2246094  c0.190918-2.0957031,0.4448242-4.159668,0.7304688-6.2231445c0.3178711-2.2226563,0.984375-3.4926758,2.730957-4.921875  c0.5078125,0.4765625,1.206543,0.7304688,1.9682617,0.7304688c1.6831055,0,3.0483398-1.3652344,3.0483398-3.0166016  c0-1.6826172-1.3652344-3.0800781-3.0483398-3.0800781c-1.7143555,0-3.0795898,1.3974609-3.0795898,3.0800781  c0,0.2539063,0.0317383,0.5083008,0.0952148,0.762207c-0.2539063,0.1904297-0.5083008,0.3808594-0.7304688,0.6030273  c0.4130859-2.2861328,0.9208984-4.6040039,1.4921875-6.8583984c0.5400391,0.0952148,1.1748047,0.0952148,1.8735352,0.0634766  c2.6357422-0.1269531,6.6044922-1.0478516,10.1928711-2.5400391c3.6831055-1.5239258,6.9536133-3.715332,8.128418-6.3823242  c0.8886719-2.0322266,0.6030273-4.0961914-1.5561523-5.2075195c-1.1430664-0.6030273-2.6987305-0.8569336-4.2548828-0.8251953  c-3.3339844,0.0952148-6.2548828,1.5239258-8.7314453,3.6513672c-1.3017578,1.0795898-2.4448242,2.3813477-3.5249023,3.8105469  c0.6669922-2.0639648,1.3974609-4.0644531,2.1591797-6.0332031c0.6987305-1.8735352,1.3022461-3.175293,3.175293-4.2548828  c0.5083008,0.984375,1.5561523,1.6513672,2.730957,1.6513672c1.6826172,0,3.0483398-1.3657227,3.0483398-3.0483398  s-1.3657227-3.0483398-3.0483398-3.0483398c-1.4926758,0-2.730957,1.0795898-3.0166016,2.4770508  c-0.1269531,0.0629883-0.2539063,0.1264648-0.4125977,0.222168c0.9208984-2.0322266,1.9047852-4.0009766,2.9208984-5.9375  c4.159668-1.7783203,8.668457-5.0170898,11.2089844-8.8276367c1.3334961-2,2.5083008-4.4765625,2.2856445-6.921875  c-0.3808594-3.9370117-4.2226563-4.9848633-7.4296875-3.3974609c-1.5561523,0.762207-3.1118164,2.1274414-4.3818359,4.1914063  c-2.4770508,3.9370117-2.9848633,9.1445313-3.1118164,13.6850586c-1.3334961,2.4765625-2.5400391,5.0166016-3.6831055,7.6206055  c-0.0317383-0.0317383-0.0317383-0.0634766-0.0634766-0.0952148c-0.0952148-0.3173828-0.1904297-0.6352539-0.3178711-0.9208984  c0.6352539-0.5712891,1.0478516-1.3969727,1.0478516-2.3178711c0-1.6826172-1.3969727-3.0483398-3.0795898-3.0483398  c-1.6831055,0-3.0483398,1.3657227-3.0483398,3.0483398c0,1.8417969,1.5874023,3.2387695,3.3657227,3.0483398  c0.5712891,1.4287109,0.9526367,2.9213867,0.3491211,4.4135742c-0.8256836,2.1591797-1.6191406,4.3496094-2.3496094,6.6044922  c0.0952148-1.1748047,0.0952148-2.3500977,0.0634766-3.4926758c-0.1586914-3.6835938-1.0161133-7.2397461-3.2705078-10.0019531  c-1.5878906-1.9052734-4.953125-3.9375-7.2709961-1.9370117c-0.6669922,0.5712891-1.1113281,1.2700195-1.4291992,2.0639648  c-0.984375,2.6035156-0.1904297,6.2866211,1.3339844,9.875c1.4604492,3.4604492,3.6196289,6.8901367,5.4609375,9.0175781  c0.7304688,0.8251953,1.7783203,1.9365234,2.8579102,2.3496094c-1.206543,4.7944336-2.1591797,9.7480469-2.7939453,14.9233398  c-0.0957031-0.3808594-0.190918-0.762207-0.2861328-1.1113281c-0.9838867-3.4926758-2.6352539-6.6679688-5.3979492-8.7636719  c-1.2382813-0.9208984-2.7304688-1.4921875-4.0322266-1.5874023c-2.4453125-0.1586914-3.9692383,1.3969727-4.2548828,3.6513672  c-0.3491211,2.7304688,1.2382813,6.0644531,3.4926758,9.1445313c2.190918,2.953125,5.0488281,5.7158203,7.3032227,7.3349609  c0.8251953,0.6030273,1.6191406,1.0478516,2.2861328,1.3017578c-0.0952148,1.5874023-0.1586914,3.2070313-0.190918,4.8266602  c0,1.0791016-0.03125,2.1586914-0.03125,3.2382813c-0.5083008-0.6982422-1.0478516-1.3652344-1.5878906-2  c0.3173828-0.5083008,0.5078125-1.0795898,0.5078125-1.7148438c0-1.6826172-1.3652344-3.0800781-3.0478516-3.0800781  c-1.6831055,0-3.0483398,1.3974609-3.0483398,3.0800781c0,1.6831055,1.3652344,3.0483398,3.0483398,3.0483398  c0.3808594,0,0.7617188-0.0634766,1.0795898-0.1904297c1.4604492,1.7143555,3.0483398,3.5561523,3.1430664,5.9057617  c0,0.8256836,0.0322266,1.6508789,0.0957031,2.4765625c-0.984375-2.0957031-2.190918-4.0961914-3.6201172-5.8422852  c-1.9365234-2.3178711-4.2866211-4.1279297-7.144043-4.9213867c-1.4604492-0.4130859-2.953125-0.4448242-4.159668-0.0639648  c-2.1591797,0.6352539-3.2387695,2.5722656-2.8891602,4.7631836c0.3491211,2.1586914,2.190918,4.2231445,4.6040039,5.9692383  c2.2861328,1.6826172,5.144043,3.0800781,7.7158203,4.0327148c2.3178711,0.8569336,4.4453125,1.3334961,5.8105469,1.3334961  c0.2539063,3.175293,0.6035156,6.3505859,1.0795898,9.5253906c0.3808594,2.6040039,0.8574219,5.2075195,1.3969727,7.7797852  c-1.1748047-1.746582-2.5083008-3.4296875-4.0322266-4.8583984c-2.2866211-2.1591797-4.9853516-3.7783203-8.0654297-4.2866211  c-1.5556641-0.2539063-3.1113281-0.1586914-4.3818359,0.3178711c-2.0957031,0.793457-3.1430664,2.762207-2.6352539,4.9213867  c0.5078125,2.0322266,2.3496094,3.8100586,4.7944336,5.3027344c2.3178711,1.3969727,5.2075195,2.5400391,7.90625,3.3334961  c3.1435547,0.9526367,6.128418,1.3974609,7.8110352,1.2070313c0.6035156,2.3178711,1.2705078,4.6040039,2.0322266,6.8901367  c-0.4443359-0.3173828-0.8569336-0.6035156-1.3017578-0.8574219c0.1904297-1.8413086-1.2700195-3.4926758-3.1435547-3.4926758  c-4.1591797,0-4.1591797,6.3188477,0,6.3188477c0.9526367,0,1.8417969-0.4130859,2.4130859-1.1113281  c1.8100586,1.1748047,2.9848633,1.9365234,3.715332,4.0322266c0.7304688,2.0322266,1.4921875,3.7470703,2.3178711,5.5249023  c-3.4609375-3.3022461-7.8745117-5.9057617-12.7963867-5.6518555c-1.5556641,0.0634766-3.0478516,0.5078125-4.1591797,1.2382813  c-1.9052734,1.2387695-2.5722656,3.3657227-1.5561523,5.3979492c0.8256836,1.746582,2.7944336,3.0166016,5.2392578,3.9057617  c4.3818359,1.5874023,11.7163086,2.5400391,16.1933594,1.1430664c1.7783203,3.3657227,3.715332,6.4775391,5.7792969,9.4301758  c-4.5722656-2.2226563-9.7480469-3.4609375-14.796875-2.2861328c-1.5239258,0.3496094-2.8891602,1.0795898-3.8100586,2.0322266  c-2.1591797,2.2543945-1.4287109,5.5249023,1.2382813,6.9853516c1.5556641,0.8574219,3.5561523,1.0478516,5.144043,0.9526367  c4.5087891-0.2539063,11.1767578-1.3652344,14.9550781-4.0322266c4.2548828,5.3339844,9.0493164,9.9384766,14.3520508,13.8754883  l-1.2382813,1.4604492h40.4204102v5.144043c0,0.8891602,0.762207,1.6191406,1.6513672,1.6191406h41.8491211  c0.8891602,0,1.6513672-0.7299805,1.6513672-1.6191406v-5.144043h40.4204102l-1.2382813-1.4604492  c5.3027344-3.9370117,10.097168-8.5415039,14.3520508-13.8754883c3.7783203,2.6669922,10.4467773,3.7783203,14.9550781,4.0322266  c1.5878906,0.0952148,3.5883789-0.0952148,5.144043-0.9526367c2.6674805-1.4604492,3.3974609-4.730957,1.2382813-6.9853516  c-0.9208984-0.9526367-2.2861328-1.6826172-3.8100586-2.0322266c-5.0488281-1.1748047-10.2241211,0.0634766-14.7963867,2.2861328  c2.0634766-2.9526367,4.0004883-6.0644531,5.7788086-9.4301758c4.4770508,1.3969727,11.8120117,0.4443359,16.1933594-1.1430664  c2.4448242-0.8891602,4.4135742-2.1591797,5.2392578-3.9057617c1.0161133-2.0322266,0.3491211-4.1591797-1.5561523-5.3979492  c-1.1113281-0.7304688-2.6035156-1.1748047-4.1591797-1.2382813c-4.921875-0.2539063-9.3354492,2.3496094-12.7963867,5.6518555  c0.8256836-1.777832,1.5878906-3.4926758,2.3178711-5.5249023c0.7304688-2.0957031,1.9052734-2.8574219,3.7148438-4.0322266  c0.5717773,0.6982422,1.4609375,1.1113281,2.4135742,1.1113281c4.159668,0,4.159668-6.3188477,0-6.3188477  c-1.8735352,0-3.3339844,1.6513672-3.1435547,3.4926758c-0.4443359,0.2539063-0.8574219,0.5400391-1.3017578,0.8574219  c0.7617188-2.2861328,1.4287109-4.5722656,2.0317383-6.8901367c1.6831055,0.1904297,4.6679688-0.2543945,7.8115234-1.2070313  c2.6987305-0.793457,5.5883789-1.9365234,7.90625-3.3334961c2.4448242-1.4926758,4.2866211-3.2705078,4.7944336-5.3027344  c0.5078125-2.1591797-0.5395508-4.1279297-2.6352539-4.9213867c-1.2700195-0.4765625-2.8261719-0.5717773-4.3818359-0.3178711  c-3.0800781,0.5083008-5.7792969,2.1274414-8.0654297,4.2866211c-1.5239258,1.4287109-2.8574219,3.1118164-4.0322266,4.8583984  c0.5395508-2.5722656,1.0161133-5.1757813,1.3969727-7.7797852c0.4760742-3.1748047,0.8256836-6.3500977,1.0795898-9.5253906  c1.3657227,0,3.4926758-0.4765625,5.8105469-1.3334961c2.5722656-0.9526367,5.4296875-2.3500977,7.7158203-4.0327148  c2.4130859-1.7460938,4.2548828-3.8105469,4.6044922-5.9692383c0.3491211-2.190918-0.7304688-4.1279297-2.8896484-4.7631836  c-1.206543-0.3808594-2.6992188-0.3491211-4.159668,0.0639648c-2.8579102,0.793457-5.2070313,2.6035156-7.144043,4.9213867  c-1.4291992,1.7460938-2.6357422,3.746582-3.6196289,5.8422852c0.0634766-0.8256836,0.0952148-1.6508789,0.0952148-2.4765625  c0.0947266-2.3496094,1.6826172-4.1914063,3.1430664-5.9057617c0.3178711,0.1269531,0.6987305,0.1904297,1.0795898,0.1904297  c1.6831055,0,3.0483398-1.3652344,3.0483398-3.0483398c0-1.6826172-1.3652344-3.0800781-3.0483398-3.0800781  c-1.6826172,0-3.0478516,1.3974609-3.0478516,3.0800781c0,0.6352539,0.1904297,1.206543,0.5078125,1.7148438  c-0.5400391,0.6347656-1.0795898,1.3017578-1.5878906,2c0-1.0795898-0.03125-2.1591797-0.03125-3.2382813  c-0.0322266-1.6196289-0.0952148-3.2392578-0.190918-4.8266602c0.6669922-0.2539063,1.4609375-0.6987305,2.2866211-1.3017578  c2.2539063-1.6191406,5.1118164-4.3818359,7.3027344-7.3349609c2.2543945-3.0800781,3.8417969-6.4140625,3.4926758-9.1445313  c-0.2856445-2.2543945-1.8095703-3.8100586-4.2548828-3.6513672c-1.3017578,0.0952148-2.7939453,0.6665039-4.0322266,1.5874023  c-2.7626953,2.0957031-4.4135742,5.2709961-5.3979492,8.7636719c-0.0952148,0.3491211-0.1904297,0.7304688-0.2861328,1.1113281  c-0.6347656-5.175293-1.5874023-10.1289063-2.7939453-14.9233398c1.0795898-0.4130859,2.1274414-1.5244141,2.8579102-2.3496094  c1.8413086-2.1274414,4.0004883-5.5571289,5.4614258-9.0175781c1.5239258-3.5883789,2.3178711-7.2714844,1.3334961-9.875  c-0.3178711-0.7939453-0.762207-1.4926758-1.4291992-2.0639648c-2.3178711-2.0004883-5.6835938,0.0317383-7.2709961,1.9370117  c-2.2543945,2.762207-3.1118164,6.3183594-3.2705078,10.0019531c-0.0317383,1.1425781-0.0317383,2.3178711,0.0634766,3.4926758  c-0.7304688-2.2548828-1.5239258-4.4453125-2.3496094-6.6044922c-0.6030273-1.4921875-0.222168-2.9848633,0.3491211-4.4135742  c1.7783203,0.1904297,3.3662109-1.206543,3.3662109-3.0483398c0-1.6826172-1.3657227-3.0483398-3.0483398-3.0483398  c-1.6831055,0-3.0800781,1.3657227-3.0800781,3.0483398c0,0.9208984,0.4125977,1.746582,1.0478516,2.3178711  c-0.1269531,0.2856445-0.2226563,0.6035156-0.3178711,0.9208984c-0.03125,0.0317383-0.03125,0.0634766-0.0634766,0.0952148  c-1.1425781-2.6040039-2.3496094-5.144043-3.6831055-7.6206055c-0.1269531-4.5405273-0.6352539-9.7480469-3.1118164-13.6850586  c-1.2700195-2.0639648-2.8256836-3.4291992-4.3813477-4.1914063c-3.2070313-1.5874023-7.0493164-0.5395508-7.4301758,3.3974609  c-0.222168,2.4453125,0.9526367,4.921875,2.2861328,6.921875c2.5400391,3.8105469,7.0488281,7.0493164,11.2084961,8.8276367  c1.0161133,1.9365234,2,3.9052734,2.9213867,5.9375c-0.1591797-0.0957031-0.2861328-0.1591797-0.4130859-0.222168  c-0.2856445-1.3974609-1.5239258-2.4770508-3.0166016-2.4770508c-1.6826172,0-3.0478516,1.3657227-3.0478516,3.0483398  s1.3652344,3.0483398,3.0478516,3.0483398c1.1748047,0,2.2226563-0.6669922,2.730957-1.6513672  c1.8730469,1.0795898,2.4765625,2.3813477,3.175293,4.2548828c0.7617188,1.96875,1.4921875,3.9692383,2.1591797,6.0332031  c-1.0795898-1.4291992-2.2226563-2.730957-3.5244141-3.8105469c-2.4770508-2.1274414-5.3979492-3.5561523-8.7324219-3.6513672  c-1.5556641-0.0317383-3.1113281,0.222168-4.2543945,0.8251953c-2.1591797,1.1113281-2.4448242,3.175293-1.5561523,5.2075195  c1.175293,2.6669922,4.4458008,4.8583984,8.1289063,6.3823242c3.5878906,1.4921875,7.5566406,2.4130859,10.1923828,2.5400391  c0.6982422,0.0317383,1.3334961,0.0317383,1.8735352-0.0634766c0.5712891,2.2543945,1.0791016,4.5722656,1.4921875,6.8583984  c-0.222168-0.222168-0.4765625-0.4125977-0.7304688-0.6030273c0.0634766-0.2539063,0.0952148-0.5083008,0.0952148-0.762207  c0-1.6826172-1.3652344-3.0800781-3.0795898-3.0800781c-1.6831055,0-3.0483398,1.3974609-3.0483398,3.0800781  c0,1.6513672,1.3652344,3.0166016,3.0483398,3.0166016c0.7617188,0,1.4604492-0.2539063,1.9682617-0.7304688  c1.746582,1.4291992,2.4135742,2.6992188,2.730957,4.921875c0.2856445,2.0634766,0.5395508,4.1274414,0.7299805,6.2231445  c-2.3813477-4.7626953-5.4614258-9.9702148-9.9697266-12.2246094c-1.4291992-0.6665039-2.9213867-0.7939453-4.2231445-0.4760742  c-2.2226563,0.5078125-3.6201172,2.3496094-3.4926758,4.6040039c0.1269531,2.4130859,2.0634766,4.8261719,4.6357422,6.921875  c2.5083008,2.0004883,5.6201172,3.7788086,8.3505859,4.953125c1.9370117,0.8256836,3.8105469,1.3974609,5.0488281,1.5561523  c0.1904297,1.6508789,0.1904297,3.3657227,0.222168,5.0483398c0.0317383,1.1435547,0.0317383,2.2866211,0.0317383,3.4291992  c-0.4760742-0.5395508-0.984375-1.0478516-1.5239258-1.5556641c0.3173828-0.4760742,0.4760742-1.0161133,0.4760742-1.6513672  c0-1.6826172-1.3652344-3.0478516-3.0483398-3.0478516c-1.6826172,0-3.0800781,1.3652344-3.0800781,3.0478516  c0,1.6831055,1.3974609,3.0805664,3.0800781,3.0805664c0.3813477,0,0.762207-0.0957031,1.1113281-0.2226563  c1.6513672,1.3974609,2.9848633,2.8579102,2.9213867,5.144043c-0.0317383,1.2700195-0.0952148,2.5083008-0.1586914,3.746582  c-0.9208984-2.1591797-2.0004883-4.2548828-3.2705078-6.0961914c-1.9052734-2.730957-4.2548828-4.921875-7.144043-5.9379883  c-1.4291992-0.5078125-2.8896484-0.5078125-4.1279297-0.1269531c-2.190918,0.6987305-3.4609375,2.6357422-3.175293,4.8901367  c0.2539063,2.0634766,1.8100586,4.0004883,3.9370117,5.6835938c2.0322266,1.5874023,4.5722656,2.953125,6.9858398,3.96875  c2.5400391,1.0795898,4.9848633,1.7148438,6.5087891,1.7783203c-0.2539063,3.0483398-0.6030273,6.0961914-1.0473633,9.1445313  c-0.0952148,0.5717773-0.1591797,1.1748047-0.2543945,1.7783203c-0.2539063-0.3491211-0.4760742-0.6669922-0.7299805-0.984375  c-0.2861328-0.3808594-0.5717773-0.7304688-0.8574219-1.0795898c0.222168-0.4443359,0.3491211-0.9208984,0.3491211-1.4287109  c0-1.6831055-1.3969727-3.0800781-3.0800781-3.0800781c-1.6826172,0-3.0478516,1.3969727-3.0478516,3.0800781  c0,1.6826172,1.3652344,3.0478516,3.0478516,3.0478516c0.5083008,0,0.9848633-0.1269531,1.3974609-0.3173828  c1.3334961,1.5561523,2.5400391,2.9848633,2.0957031,5.2392578c-0.2543945,1.3334961-0.5400391,2.6352539-0.8574219,3.96875  c-0.8256836-2.4448242-1.8417969-4.8579102-3.1435547-7.0170898c-1.777832-2.8891602-4.0644531-5.3027344-7.0810547-6.6044922  c-2.4448242-1.0478516-6.0644531-0.9208984-7.5249023,1.6831055c-1.5874023,2.8256836,0.3808594,5.7788086,2.4130859,7.7792969  c1.6826172,1.6191406,3.8740234,3.1430664,6.0966797,4.4135742c3.1430664,1.7460938,6.4135742,3.0161133,8.3823242,3.2382813  c-0.8574219,3.3027344-1.8735352,6.5410156-3.0483398,9.7480469c-0.3173828-1.1748047-0.6982422-2.3496094-1.1430664-3.5244141  c2.2543945-1.7143555,1.1113281-5.4931641-1.8730469-5.4931641c-4.0009766,0-4.0009766,6.128418,0,6.128418  c0.0634766,0,0.0952148,0,0.1269531,0c2.1274414,5.4614258,1.5239258,6.9853516-0.8256836,11.9384766  c0.1586914-4.3496094-0.3173828-8.9858398-1.8735352-13.0498047c-0.6030273-1.6196289-1.6826172-3.5249023-3.2070313-4.699707  c-2.6352539-2.0317383-6.0644531-1.2382813-7.2075195,1.96875c-0.4760742,1.3652344-0.5395508,3.0166016-0.1269531,4.6674805  c1.5556641,6.3188477,5.2705078,11.2407227,10.4462891,15.0507813c-2.0004883,3.7783203-4.1914063,7.2709961-6.5727539,10.4780273  c-0.3808594-4.6674805-1.6191406-9.9702148-4.0639648-14.0341797c-0.8574219-1.4291992-2.2226563-3.0166016-3.8740234-3.8422852  c-2.8891602-1.3969727-6.1279297-0.0317383-6.7631836,3.175293c-0.2539063,1.3657227-0.0634766,2.9848633,0.5712891,4.4453125  c2.4453125,5.5883789,6.7631836,10.0654297,12.2250977,12.7329102c-4.159668,5.175293-8.8271484,9.6206055-13.9711914,13.4311523  l-5.8422852-6.8266602l9.684082-9.7480469h-57.1538086l-0.6352539,0.9526367v7.2075195H113.5297852z" id="path8"/>
<path d="M97.5581055,236.9179688v-7.8115234c0-0.6347656,0.4130859-1.237793,0.984375-1.4921875  l10.7006836-6.4775391H60.1225586l7.7792969,7.9067383l-6.4775391,7.8745117H97.5581055z" id="path10" fill="#FFFFFF"/>
<path d="M142.7099609,236.9179688v-7.8115234c0-0.6347656-0.4125977-1.237793-0.984375-1.4921875  l-10.7006836-6.4775391h49.1206055l-7.7788086,7.9067383l6.4770508,7.8745117H142.7099609z" id="path12" fill="#FFFFFF"/>
<rect x="99.4316406" y="229.3291016" width="41.4047852" height="14.3520508" id="rect14" fill="#FFFFFF"/>
<path d="M120.1342773,213.3261719c-1.3022461-2.4770508-2.0957031-4.6679688-4.5727539-6.3823242  c-1.7460938-1.206543-3.8735352-1.8735352-5.9692383-1.8735352H73.1088867c-3.8100586,0-6.8583984-0.7304688-9.0175781-2.5400391  c-2.190918-1.8417969-3.3657227-4.699707-3.3657227-8.890625V61.6137695h11.4946289  c-0.0957031-0.6035156-0.0322266-1.2382813,0.2539063-1.8100586c0.3808594-0.8569336,1.1430664-1.6508789,2.4130859-2.2861328  l-1.1748047-3.8417969c-0.7304688,0.1586914-1.5244141,0.0952148-2.2543945-0.1586914  c-2.0004883-0.6987305-2.6992188-2.8261719-1.7783203-4.6674805c0.4765625-1.0161133,1.2700195-1.6831055,2.2861328-2.0639648  c1.4921875-0.6352539,3.0166016-1.206543,4.5405273-1.746582c-6.0961914,0.1269531-11.3354492-2.8261719-13.3354492-8.8271484  c-0.2861328-0.8574219-0.5083008-1.777832-0.6669922-2.762207l0,0c-0.4448242-3.0800781-0.7304688-4.9536133-1.5244141-6.6362305  c-0.793457-1.6513672-2.1591797-3.2070313-4.730957-5.6518555c-1.0161133-0.9526367-1.4921875-1.9052734-1.1748047-3.175293  c0.5712891-2.2861328,3.3339844-4.5722656,5.6518555-5.2075195c1.5561523-0.4443359,2.730957,0,4.0009766,1.8735352l0,0  c0.793457,1.206543,1.5874023,1.1748047,2.3496094,1.1430664c3.0800781-0.1904297,4.7944336,2.0639648,4.5405273,5.0483398  c-0.0317383,0.4448242-0.0952148,0.9208984-0.0634766,1.4926758l0,0c0.0952148,1.1430664,0.9526367,2.0004883,1.7783203,2.6669922  c1.015625,0.8574219,1.6508789,2.2861328,1.3017578,3.6196289c-0.6352539,2.4130859-3.4291992,2.5087891-5.4296875,2.7944336  c-0.190918,0.0317383-0.3808594,0.0634766-0.6035156,0.0952148c0.8891602,2.4130859,2.2861328,4.0961914,3.9375,5.0805664  c2.0004883,1.1748047,4.4453125,1.3969727,6.7631836,0.7617188c2.3813477-0.6665039,4.6674805-2.190918,6.3500977-4.3818359  c1.3339844-1.7460938,2.2861328-3.9052734,2.6357422-6.3823242c-0.8891602,0.3178711-1.7143555,0.7939453-2.6035156,1.0800781  c-2.6040039,0.793457-4.2866211-0.2861328-4.3818359-3.4614258c-0.0952148-2.5400391-0.5400391-2.4130859-1.4609375-2.8891602  c-1.2700195-0.6669922-2.0957031-1.8735352-1.5239258-3.3339844c0.3173828-0.7939453,1.2382813-1.4287109,1.4287109-2.2543945  c0.2539063-1.206543-0.8891602-2.730957-0.6982422-4.2231445c0.1904297-1.206543,0.984375-2.0639648,2.1274414-2.4448242  c1.3017578-0.4448242,2.4448242-0.190918,3.6513672-0.1586914c2.0957031,0.0317383,4.4453125-0.4448242,6.3818359-1.3339844  c1.3339844-0.6030273,2.6357422-1.5239258,4.3505859-1.2382813c1.8413086,0.3178711,2.5400391,2.1591797,2.6669922,3.8105469  c0.0634766,0.984375,0.1586914,1.4921875,0.3808594,1.8095703c0.7939453,1.1113281,2.4130859,1.0161133,2.8579102,2.6357422  c0.222168,0.8251953-0.0317383,1.7143555-0.6987305,2.3813477c-0.8886719,0.8891602-1.2700195,1.206543-0.6987305,2.4448242  c0.6987305,1.5244141,1.1113281,2.8896484,0.7304688,3.9375c-0.8256836,2.3813477-4.0639648,1.7460938-5.9375,1.8730469  c1.3334961,2.730957,3.3022461,4.6357422,5.5249023,5.7470703c3.9375,1.9370117,8.7001953,1.4609375,12.1611328-1.2382813  c1.9365234-1.5239258,3.5244141-3.7783203,4.2861328-6.7314453c-0.222168,0.0634766-0.4443359,0.0952148-0.6665039,0.1269531  c-1.8417969,0.3496094-4.3500977,1.1435547-5.5249023-0.793457c-0.4765625-0.762207-0.5078125-1.7783203-0.2856445-2.9848633  c0.0952148-0.6035156,0.5395508-1.7783203,0.222168-2.3178711c-0.3496094-0.6035156-1.2700195-0.9208984-1.746582-1.4921875  c-0.6982422-0.8256836-0.7617188-1.96875-0.1586914-2.8579102c0.5717773-0.8574219,1.8417969-1.2700195,1.96875-2.3813477  c0.0317383-0.3491211,0-0.7939453-0.0952148-1.4291992c-0.4760742-3.5244141,1.8100586-4.7944336,4.5087891-4.3496094  c4.3183594,0.7617188,5.8422852,0.7617188,10.1606445,0c2.6987305-0.4448242,4.9853516,0.8251953,4.5087891,4.3496094  c-0.0952148,0.6352539-0.1269531,1.0800781-0.0952148,1.4291992c0.1269531,1.1113281,1.3969727,1.5239258,1.96875,2.3813477  c0.6030273,0.8891602,0.5395508,2.0322266-0.1586914,2.8579102c-0.4765625,0.5712891-1.3974609,0.8886719-1.746582,1.4921875  c-0.3173828,0.5395508,0.1269531,1.7143555,0.222168,2.3178711c0.222168,1.206543,0.190918,2.2226563-0.2856445,2.9848633  c-1.1748047,1.9370117-3.6831055,1.1430664-5.5249023,0.793457c-0.222168-0.0317383-0.4443359-0.0634766-0.6669922-0.1269531  c0.762207,2.953125,2.3500977,5.2075195,4.2871094,6.7314453c3.4604492,2.6992188,8.2236328,3.175293,12.1606445,1.2382813  c2.2226563-1.1113281,4.1914063-3.0161133,5.5249023-5.7470703c-1.8730469-0.1269531-5.1118164,0.5083008-5.9375-1.8730469  c-0.3808594-1.0478516,0.0317383-2.4130859,0.7304688-3.9375c0.5712891-1.2382813,0.1904297-1.5556641-0.6987305-2.4448242  c-0.6669922-0.6669922-0.9208984-1.5561523-0.6987305-2.3813477c0.4448242-1.6196289,2.0639648-1.5244141,2.8579102-2.6357422  c0.222168-0.3173828,0.3173828-0.8251953,0.3808594-1.8095703c0.1269531-1.6513672,0.8256836-3.4926758,2.6674805-3.8105469  c1.7143555-0.2856445,3.0161133,0.6352539,4.3500977,1.2382813c1.9365234,0.8891602,4.2866211,1.3657227,6.3818359,1.3339844  c1.206543-0.0322266,2.3496094-0.2861328,3.6518555,0.1586914c1.1430664,0.3808594,1.9365234,1.2382813,2.1274414,2.4448242  c0.1899414,1.4921875-0.9526367,3.0166016-0.6987305,4.2231445c0.1904297,0.8256836,1.1113281,1.4604492,1.4287109,2.2543945  c0.5712891,1.4604492-0.2539063,2.6669922-1.5239258,3.3339844c-0.9208984,0.4760742-1.3652344,0.3491211-1.4609375,2.8891602  c-0.0952148,3.175293-1.777832,4.2548828-4.3818359,3.4614258c-0.8886719-0.2861328-1.7143555-0.762207-2.6035156-1.0800781  c0.3491211,2.4770508,1.3022461,4.6362305,2.6357422,6.3823242c1.6826172,2.190918,3.96875,3.715332,6.3500977,4.3818359  c2.3178711,0.6352539,4.7626953,0.4130859,6.7631836-0.7617188c1.6513672-0.984375,3.0483398-2.6674805,3.9375-5.0805664  c-0.2226563-0.0317383-0.4125977-0.0634766-0.6035156-0.0952148c-2.0004883-0.2856445-4.7944336-0.3813477-5.4296875-2.7944336  c-0.3491211-1.3334961,0.2861328-2.762207,1.3022461-3.6196289c0.8256836-0.6665039,1.6826172-1.5239258,1.777832-2.6669922l0,0  c0.0317383-0.5717773-0.0317383-1.0478516-0.0634766-1.4926758c-0.2539063-2.984375,1.4604492-5.2387695,4.5405273-5.0483398  c0.762207,0.0317383,1.5561523,0.0634766,2.3496094-1.1430664l0,0c1.2705078-1.8735352,2.4448242-2.3178711,4.0009766-1.8735352  c2.3178711,0.6352539,5.0805664,2.9213867,5.6518555,5.2075195c0.3178711,1.2700195-0.1586914,2.2226563-1.1748047,3.175293  c-2.5717773,2.4448242-3.9370117,4.0004883-4.730957,5.6518555c-0.7939453,1.6826172-1.0795898,3.5561523-1.5244141,6.6362305l0,0  c-0.1586914,0.984375-0.3808594,1.9047852-0.6665039,2.762207c-2.0004883,6.0009766-7.2397461,8.9541016-13.3359375,8.8271484  c1.5239258,0.5400391,3.0483398,1.1113281,4.5405273,1.746582c1.0161133,0.3808594,1.8095703,1.0478516,2.2861328,2.0639648  c0.9208984,1.8413086,0.222168,3.96875-1.7783203,4.6674805c-0.7299805,0.2539063-1.5239258,0.3173828-2.2543945,0.1586914  l-1.1748047,3.8417969c1.2700195,0.6352539,2.0322266,1.4291992,2.4130859,2.2861328  c0.2861328,0.5717773,0.3496094,1.206543,0.2543945,1.8100586h11.4941406v132.0258789  c0,4.190918-1.1748047,7.0488281-3.3657227,8.890625c-2.1591797,1.8095703-5.2075195,2.5400391-9.0175781,2.5400391h-36.4833984  c-2.0957031,0-4.2231445,0.6669922-5.9692383,1.8735352C122.2299805,208.6582031,121.4360352,210.8491211,120.1342773,213.3261719z" id="path16"/>
<polygon points="137.9155273,227.4555664 128.5800781,227.4555664 128.5800781,221.8354492 " id="polygon18" fill="#FFFFFF"/>
<polygon points="102.3525391,227.4555664 111.6879883,227.4555664 111.6879883,221.8354492 " id="polygon20" fill="#FFFFFF"/>
<path d="M153.5693359,50.6591797c0.1586914,0.4443359,0.0634766,0.8891602-0.2856445,1.2382813  c-1.3022461,1.1748047-5.2075195,0.0952148-5.7475586-1.5556641c-0.1586914-0.4443359-0.0634766-0.8891602,0.2856445-1.2382813  C149.1552734,47.8969727,152.9975586,48.9765625,153.5693359,50.6591797z" id="path22" fill="#FF0000"/>
<polygon points="164.5556641,53.9296875 164.015625,55.7080078 162.4916992,54.1201172 " id="polygon24" fill="#FF0000"/>
<path d="M153.0927734,41.7368164c-4.4135742-1.1748047-8.890625-2.0957031-13.3994141-2.762207  c2.6987305-0.7939453,5.1123047-2.2861328,7.112793-4.2231445  C148.1079102,37.6723633,150.4575195,40.0224609,153.0927734,41.7368164z" id="path26" fill="#FAEB01"/>
<path d="M155.1567383,49.7700195c2.6669922,0.7939453,5.3344727,1.6831055,7.9379883,2.6674805l-4.2548828,0.3491211  l3.2070313,3.3974609c-2.6669922-1.0161133-5.3657227-1.9047852-8.0649414-2.7304688  c0.2539063-0.1269531,0.4443359-0.2856445,0.6352539-0.4448242c0.793457-0.7299805,1.0791016-1.777832,0.7299805-2.7939453  C155.3154297,50.0561523,155.2519531,49.8974609,155.1567383,49.7700195z" id="path28" fill="#FAEB01"/>
<path d="M138.4550781,49.9609375l3.9692383-1.5244141l-3.2705078-2.3178711  c2.6352539,0.4125977,5.2387695,0.9208984,7.8427734,1.4921875c-0.1904297,0.1274414-0.3496094,0.2543945-0.5083008,0.3813477  c-0.793457,0.7299805-1.0795898,1.777832-0.7299805,2.7939453c0.0634766,0.2226563,0.1586914,0.4125977,0.2539063,0.6035156  C143.5356445,50.8178711,140.9951172,50.3417969,138.4550781,49.9609375z" id="path30" fill="#FAEB01"/>
<path d="M86.6987305,50.6591797c-0.1586914,0.4443359-0.0629883,0.8891602,0.2861328,1.2382813  c1.3017578,1.1748047,5.2070313,0.0952148,5.7470703-1.5556641c0.1586914-0.4443359,0.0634766-0.8891602-0.2856445-1.2382813  C91.112793,47.8969727,87.2705078,48.9765625,86.6987305,50.6591797z" id="path32" fill="#FF0000"/>
<polygon points="75.7128906,53.9296875 76.2524414,55.7080078 77.7763672,54.1201172 " id="polygon34" fill="#FF0000"/>
<path d="M87.175293,41.7368164c4.4135742-1.1748047,8.890625-2.0957031,13.3994141-2.762207  c-2.6987305-0.7939453-5.1123047-2.2861328-7.1123047-4.2231445C92.1601563,37.6723633,89.8105469,40.0224609,87.175293,41.7368164z  " id="path36" fill="#FAEB01"/>
<path d="M85.1113281,49.7700195c-2.6674805,0.7939453-5.3344727,1.6831055-7.9379883,2.6674805l4.2548828,0.3491211  l-3.2070313,3.3974609c2.6669922-1.0161133,5.3662109-1.9047852,8.0649414-2.7304688  c-0.2539063-0.1269531-0.4443359-0.2856445-0.6352539-0.4448242c-0.793457-0.7299805-1.0791016-1.777832-0.7299805-2.7939453  C84.9526367,50.0561523,85.0161133,49.8974609,85.1113281,49.7700195z" id="path38" fill="#FAEB01"/>
<path d="M101.8129883,49.9609375l-3.96875-1.5244141l3.2705078-2.3178711  c-2.6357422,0.4125977-5.2392578,0.9208984-7.8432617,1.4921875c0.190918,0.1274414,0.3496094,0.2543945,0.5083008,0.3813477  c0.7939453,0.7299805,1.0795898,1.777832,0.7304688,2.7939453c-0.0634766,0.2226563-0.1591797,0.4125977-0.2543945,0.6035156  C96.7329102,50.8178711,99.2729492,50.3417969,101.8129883,49.9609375z" id="path40" fill="#FAEB01"/>
<path d="M72.7280273,48.2460938c-0.6035156,0.222168-1.0478516,0.5712891-1.3652344,1.206543  c-0.4448242,0.9208984-0.2861328,2.190918,0.7939453,2.5717773c0.5395508,0.1904297,1.1748047,0.1591797,1.7143555-0.0629883  c29.4980469-11.9072266,63.027832-11.9072266,92.5258789,0c0.5400391,0.222168,1.1748047,0.253418,1.7148438,0.0629883  c1.0795898-0.3808594,1.2382813-1.6508789,0.793457-2.5717773c-0.3173828-0.6352539-0.7617188-0.984375-1.3652344-1.206543  C137.2802734,36.0849609,102.987793,36.0849609,72.7280273,48.2460938z" id="path42" fill="#FAEB01"/>
<path d="M120.1342773,31.9257813L120.1342773,31.9257813  c-0.6987305,0.8569336-1.4926758,1.6826172-2.3183594,2.4448242c-1.4604492,1.3334961-3.0795898,2.4448242-4.7944336,3.3017578  c4.7631836-0.2539063,9.4624023-0.2539063,14.2250977,0c-1.7148438-0.8569336-3.3339844-1.9682617-4.7944336-3.3017578  C121.6264648,33.6083984,120.8325195,32.7827148,120.1342773,31.9257813L120.1342773,31.9257813z" id="path44" fill="#FAEB01"/>
<path d="M114.8632813,6.1425781c-1.746582-0.3808594-2.7944336,0.2539063-2.4770508,2.5400391  c0.0957031,0.7304688,0.1274414,1.3017578,0.0957031,1.7783203c-0.1591797,1.5556641-1.4609375,1.9052734-2.190918,3.0166016  c-0.2539063,0.3491211-0.2539063,0.793457,0.0317383,1.1113281c0.5395508,0.6665039,1.3969727,0.8574219,1.9047852,1.6826172  c0.3496094,0.6352539,0.4130859,1.3017578,0.1586914,2.3813477l0,0c-0.0634766,0.3178711-0.1264648,0.6035156-0.1899414,0.8574219  c-0.1591797,0.9208984-0.190918,1.6513672,0.0952148,2.0957031c0.5078125,0.8574219,2.762207,0.0634766,3.6513672-0.0952148  c1.0478516-0.1904297,2.0957031-0.2539063,3.1435547-0.3491211c-0.7304688,3.9370117-2.0639648,7.2392578-5.3027344,9.7797852  c-4.0644531,3.1748047-9.7163086,3.7148438-14.3203125,1.4287109c-3.6831055-1.8417969-5.6518555-4.8261719-7.1757813-8.5097656  c0.9521484-0.1269531,1.9047852-0.2539063,2.8256836-0.2856445c0.9526367-0.0317383,3.5878906,0.3173828,3.9375-0.6987305  c0.222168-0.6030273-0.1274414-1.6508789-0.6987305-2.8574219c-0.8891602-1.8735352-0.3173828-2.7626953,1.0161133-4.0961914  c0.6352539-0.6352539,0.222168-1.2382813-0.4448242-1.6831055c-0.6347656-0.4125977-1.4921875-0.8251953-1.8730469-1.4287109  c-0.4443359-0.6030273-0.6035156-1.3334961-0.6987305-2.5717773c-0.0317383-0.7939453-0.222168-2.0004883-1.1430664-2.2543945  c-1.0478516-0.2856445-2.1274414,0.5712891-3.0483398,0.984375c-2.190918,1.0478516-4.953125,1.5874023-7.3662109,1.5239258  c-0.9526367,0-2.0322266-0.2539063-2.9213867,0.0634766c-0.5712891,0.1904297-0.8891602,0.5717773-0.9526367,1.1430664  c-0.222168,1.4921875,0.984375,2.7944336,0.6352539,4.3500977c-0.1586914,0.6987305-0.5717773,1.2700195-1.3017578,2.1591797l0,0  c-0.0952148,0.1269531-0.1586914,0.222168-0.190918,0.3173828c-0.4760742,1.1430664,1.0478516,1.4926758,1.7783203,1.9052734  c0.8256836,0.4443359,1.1430664,1.0161133,1.2700195,3.7783203C83.237793,26.5273438,84,26.6860352,86.0639648,25.765625  c1.3334961-0.6987305,2.7939453-1.1113281,4.2231445-1.5244141c-0.1586914,3.5883789-0.8574219,6.7001953-3.0800781,9.6210938  c-1.9370117,2.5083008-4.5722656,4.2866211-7.3666992,5.0488281c-2.8574219,0.7617188-5.8422852,0.5078125-8.3188477-0.984375  c-2.9213867-1.746582-4.2866211-4.4770508-5.2075195-7.5888672c0.8574219-0.1904297,1.7148438-0.3813477,2.5722656-0.5078125  c1.1425781-0.1591797,3.5561523-0.0634766,3.9370117-1.5878906c0.222168-0.7304688-0.1904297-1.5874023-0.762207-2.0639648  c-1.1748047-0.9526367-2.2543945-2.190918-2.3496094-3.746582l0,0c-0.0317383-0.6669922,0-1.206543,0.0317383-1.6831055  c0.1586914-1.8413086-0.6030273-3.4609375-2.5717773-3.3657227c-4.5405273,0.2539063-3.3974609-3.7783203-6.2236328-2.8891602  c-1.5874023,0.4760742-3.6831055,2.2861328-4.0639648,3.8417969c-0.1586914,0.6352539,0.1269531,1.1748047,0.7299805,1.746582  c2.7626953,2.6035156,4.1914063,4.2548828,5.0805664,6.1279297c0.8891602,1.8417969,1.1748047,3.8105469,1.6508789,7.0493164l0,0  c0.1591797,0.8891602,0.3496094,1.7143555,0.6035156,2.5083008c2.5083008,7.4619141,10.2558594,8.9223633,16.8603516,6.699707  c5.6201172-1.8735352,9.0810547-5.4296875,10.8911133-11.0498047c1.5239258,1.6508789,3.0800781,3.1435547,4.7944336,4.2866211  c6.2553711,4.0957031,13.7167969,2.3496094,18.987793-2.4448242c1.4291992-1.3022461,2.5405273-2.7626953,3.6518555-4.2866211  c1.1113281,1.5239258,2.2226563,2.984375,3.6513672,4.2866211c5.2709961,4.7944336,12.7324219,6.5405273,18.987793,2.4448242  c1.7143555-1.1430664,3.2705078-2.6357422,4.7944336-4.2866211c1.8100586,5.6201172,5.2709961,9.1762695,10.8911133,11.0498047  c6.6044922,2.2226563,14.3520508,0.762207,16.8603516-6.699707c0.2543945-0.7939453,0.4448242-1.6191406,0.6035156-2.5083008l0,0  c0.4760742-3.2387695,0.762207-5.2075195,1.6508789-7.0493164c0.8891602-1.8730469,2.3178711-3.5244141,5.0805664-6.1279297  c0.6030273-0.5717773,0.8886719-1.1113281,0.7299805-1.746582c-0.3808594-1.5556641-2.4765625-3.3657227-4.0639648-3.8417969  c-2.8261719-0.8891602-1.6831055,3.1430664-6.2236328,2.8891602c-1.96875-0.0952148-2.7304688,1.5244141-2.5717773,3.3657227  c0.0317383,0.4765625,0.0634766,1.0161133,0.0317383,1.6831055l0,0c-0.0952148,1.5556641-1.1748047,2.7939453-2.3496094,3.746582  c-0.5717773,0.4765625-0.984375,1.3334961-0.762207,2.0639648c0.3813477,1.5244141,2.7939453,1.4287109,3.9375,1.5878906  c0.8569336,0.1264648,1.7143555,0.3173828,2.5717773,0.5078125c-0.9208984,3.1118164-2.2861328,5.8422852-5.2075195,7.5888672  c-2.4765625,1.4921875-5.4614258,1.7460938-8.3188477,0.984375c-2.7944336-0.762207-5.4296875-2.5405273-7.3666992-5.0488281  c-2.2226563-2.9208984-2.9208984-6.0327148-3.0800781-9.6210938c1.4291992,0.4130859,2.8896484,0.8256836,4.2231445,1.5244141  c2.0639648,0.9204102,2.8261719,0.7617188,2.953125-1.5561523c0.1269531-2.762207,0.4443359-3.3339844,1.2700195-3.7783203  c0.7304688-0.4125977,2.2543945-0.762207,1.7783203-1.9052734c-0.0317383-0.0952148-0.0952148-0.1904297-0.190918-0.3173828l0,0  c-0.7299805-0.8891602-1.1430664-1.4604492-1.3017578-2.1591797c-0.3491211-1.5556641,0.8574219-2.8579102,0.6352539-4.3500977  c-0.0634766-0.5712891-0.3813477-0.9526367-0.9526367-1.1430664c-0.8891602-0.3173828-1.96875-0.0634766-2.9213867-0.0634766  c-2.4130859,0.0634766-5.175293-0.4760742-7.3662109-1.5239258c-0.9208984-0.4130859-2.0004883-1.2700195-3.0483398-0.984375  c-0.9208984,0.2539063-1.1113281,1.4604492-1.1430664,2.2543945c-0.0952148,1.2382813-0.2539063,1.96875-0.6987305,2.5717773  c-0.3808594,0.6035156-1.2382813,1.0161133-1.8735352,1.4287109c-0.6665039,0.4448242-1.0791016,1.0478516-0.4443359,1.6831055  c1.3334961,1.3334961,1.9052734,2.2226563,1.0161133,4.0961914c-0.5717773,1.206543-0.9208984,2.2543945-0.6987305,2.8574219  c0.3496094,1.0161133,2.9848633,0.6669922,3.9375,0.6987305c0.9208984,0.0317383,1.8735352,0.1586914,2.8261719,0.2856445  c-1.5244141,3.6835938-3.4931641,6.6679688-7.1762695,8.5097656c-4.6040039,2.2861328-10.2558594,1.7460938-14.3203125-1.4287109  c-3.2387695-2.5405273-4.5722656-5.8427734-5.3022461-9.7797852c1.0478516,0.0952148,2.0957031,0.1586914,3.1430664,0.3491211  c0.8891602,0.1586914,3.1435547,0.9526367,3.6518555,0.0952148c0.2856445-0.4443359,0.2539063-1.1748047,0.0952148-2.0957031  c-0.0634766-0.2539063-0.1269531-0.5395508-0.1904297-0.8574219l0,0c-0.2543945-1.0795898-0.190918-1.7460938,0.1586914-2.3813477  c0.5078125-0.8251953,1.3652344-1.0161133,1.9052734-1.6826172c0.2856445-0.3178711,0.2856445-0.762207,0.03125-1.1113281  c-0.7299805-1.1113281-2.0317383-1.4609375-2.190918-3.0166016c-0.0317383-0.4765625,0-1.0478516,0.0957031-1.7783203  c0.3173828-2.2861328-0.7304688-2.9208984-2.4770508-2.5400391C121.309082,7.0952148,118.9594727,7.0952148,114.8632813,6.1425781z" id="path46" fill="#FAEB01"/>
<polygon points="104.2578125,45.9599609 101.3369141,48.0239258 104.4804688,49.2304688 107.3696289,47.2299805 " id="polygon48" fill="#FF0000"/>
<polygon points="136.0102539,45.9599609 138.9316406,48.0239258 135.7875977,49.2304688 132.8984375,47.2299805 " id="polygon50" fill="#FF0000"/>
<path d="M120.1342773,209.1982422c0.8569336-1.5244141,2.0957031-2.7944336,3.5244141-3.7788086  c2.0639648-1.3969727,4.5405273-2.2226563,7.0170898-2.2226563h36.4833984c3.3657227,0,6.0327148-0.6030273,7.8110352-2.0957031  c1.7783203-1.4604492,2.6987305-3.8417969,2.6987305-7.4614258V63.4873047H62.5991211v130.1523438  c0,3.6196289,0.9208984,6.0009766,2.6987305,7.4614258c1.7783203,1.4926758,4.4453125,2.0957031,7.8110352,2.0957031h36.4833984  c2.4765625,0,4.953125,0.8256836,7.0170898,2.2226563C118.0385742,206.4038086,119.2768555,207.6738281,120.1342773,209.1982422z" id="path52" fill="#FAEB01"/>
<path d="M120.1342773,202.0537109c2.984375-2.3178711,6.7314453-3.6513672,10.5415039-3.6513672h36.4833984  c4.0327148,0,5.715332-0.4443359,5.715332-4.7626953V96.5092773H67.3935547v97.1303711  c0,4.3183594,1.6826172,4.7626953,5.715332,4.7626953h36.4833984  C113.402832,198.4023438,117.1494141,199.7358398,120.1342773,202.0537109z" id="path54"/>
<rect x="67.3935547" y="68.3134766" width="105.480957" height="23.3696289" id="rect56"/>
<polygon points="88.5087891,196.5292969 109.5922852,196.5292969 109.5922852,196.5292969 109.5922852,180.875   88.5087891,180.875 " id="polygon58" fill="#FFFFFF"/>
<polygon points="130.6757813,196.5292969 130.6757813,196.5292969 151.7592773,196.5292969 151.7592773,180.875   130.6757813,180.875 " id="polygon60" fill="#FFFFFF"/>
<rect x="69.2670898" y="159.7597656" width="19.2416992" height="21.1152344" id="rect62" fill="#FFFFFF"/>
<rect x="109.5922852" y="159.7597656" width="21.0834961" height="21.1152344" id="rect64" fill="#FFFFFF"/>
<rect x="151.7592773" y="159.7597656" width="19.2416992" height="21.1152344" id="rect66" fill="#FFFFFF"/>
<rect x="88.5087891" y="138.6762695" width="21.0834961" height="21.0834961" id="rect68" fill="#FFFFFF"/>
<rect x="130.6757813" y="138.6762695" width="21.0834961" height="21.0834961" id="rect70" fill="#FFFFFF"/>
<rect x="69.2670898" y="117.5927734" width="19.2416992" height="21.0834961" id="rect72" fill="#FFFFFF"/>
<rect x="109.5922852" y="117.5927734" width="21.0834961" height="21.0834961" id="rect74" fill="#FFFFFF"/>
<rect x="151.7592773" y="117.5927734" width="19.2416992" height="21.0834961" id="rect76" fill="#FFFFFF"/>
<rect x="88.5087891" y="98.3510742" width="21.0834961" height="19.2416992" id="rect78" fill="#FFFFFF"/>
<rect x="130.6757813" y="98.3510742" width="21.0834961" height="19.2416992" id="rect80" fill="#FFFFFF"/>
<path d="M141.2172852,72.2509766h18.956543v2.9208984h-16.0668945  c-0.3173828,0-0.5712891,0.2539063-0.5712891,0.5717773v8.5415039c0,0.2856445,0.2539063,0.5395508,0.5712891,0.5395508h16.0668945  v2.9208984h-18.956543c-2.0317383,0-3.6831055-1.6508789-3.6831055-3.6831055v-8.128418  C137.5341797,73.9335938,139.1855469,72.2509766,141.2172852,72.2509766z" id="path82" style="fill:#ffffff" fill="#FAEB01"/>
<polygon points="107.5917969,72.2509766 129.9458008,72.2509766 129.9458008,75.0131836 113.5932617,75.0131836   113.5932617,78.5058594 127.3100586,78.5058594 127.3100586,80.7285156 113.5932617,80.7285156 113.5932617,87.7456055   107.5917969,87.7456055 " id="polygon84" style="fill:#ffffff" fill="#FAEB01"/>
<rect x="127.9130859" y="85.0786133" width="2.6674805" height="2.6669922" id="rect86" style="fill:#ffffff" fill="#FAEB01"/>
<rect x="162.7456055" y="85.0786133" width="2.6987305" height="2.6669922" id="rect88" style="fill:#ffffff" fill="#FAEB01"/>
<rect x="100.3842773" y="85.0786133" width="2.6669922" height="2.6669922" id="rect90" style="fill:#ffffff" fill="#FAEB01"/>
<path d="M74.8237305,72.2509766H92.668457c2.1274414,0,4.6674805,1.0478516,4.6040039,3.5244141  c-0.0317383,1.96875-1.4921875,3.1113281-3.3657227,3.175293c2.3496094,0.4443359,3.2705078,1.6508789,3.3974609,3.9370117  c0.1904297,3.0483398-1.4287109,4.7944336-4.6357422,4.8579102H80.8564453l0,0h-6.0327148V72.2509766L74.8237305,72.2509766z   M80.8564453,74.6640625v3.8417969h8.9541016c2.3178711,0,2.2543945-3.5878906,0.0317383-3.8417969H80.8564453  L80.8564453,74.6640625z M89.4931641,80.7285156h-8.6367188v4.6044922h8.668457  c1.3334961,0,2.0004883-1.1118164,1.9052734-2.3818359C91.3666992,81.9350586,90.6044922,80.7285156,89.4931641,80.7285156z" id="path92" style="fill:#ffffff" fill="#FAEB01"/>
<path d="M108.1953125,242.1567383h2.3178711v-10.7954102h-1.6513672c-0.2539063,1.3334961-1.7460938,1.6826172-2.9208984,1.6826172  v1.6831055h2.2543945V242.1567383z" id="path94"/>
<path d="M115.4667969,232.9804688c1.015625,0,0.8569336,1.3334961,0.8569336,2.0322266  c0,0.6035156,0.0634766,1.6508789-0.8256836,1.6508789c-0.9204102,0-0.8569336-1.0473633-0.8569336-1.7143555  C114.6411133,234.3457031,114.5776367,232.9804688,115.4667969,232.9804688L115.4667969,232.9804688z M112.3549805,239.5849609  c0.0634766,2.2226563,1.2382813,2.8579102,3.3339844,2.8579102c2.762207,0,3.0795898-2.2226563,3.0795898-4.5092773v-2.9208984  c0-2.190918-0.7299805-3.8735352-3.2070313-3.8735352c-2.7304688,0-3.3974609,1.5874023-3.3974609,4.0639648  c0,1.6513672,0.4448242,3.3022461,2.4448242,3.3022461c0.762207,0,1.1113281-0.0952148,1.6831055-0.5395508v0.7299805  c0,0.6352539,0.1269531,1.9052734-0.7939453,1.9052734c-0.3173828,0-0.5395508-0.1269531-0.6665039-0.2856445  c-0.0952148-0.1904297-0.1269531-0.4448242-0.1586914-0.7304688H112.3549805z" id="path96"/>
<path d="M124.1665039,239.2041016c0,0.3808594,0.0317383,1.3652344-0.7939453,1.3969727  c-0.8251953,0-0.8251953-0.7304688-0.8251953-1.3969727v-4.9536133c0-0.6030273,0.0317383-1.2700195,0.8251953-1.2700195  c0.8891602,0,0.7939453,1.1113281,0.7939453,1.2700195V239.2041016L124.1665039,239.2041016z M120.1342773,239.3945313  c0,2.1274414,1.1430664,3.0483398,3.2070313,3.0483398c2.5083008,0,3.2705078-1.175293,3.2705078-3.5883789v-3.96875  c0.0634766-2.4765625-0.6035156-3.746582-3.2392578-3.746582c-2.0952148,0-3.2382813,0.9204102-3.2382813,3.1113281V239.3945313z" id="path98"/>
<path d="M129.7548828,237.4257813c0.4765625,0.0634766,1.1113281-0.0634766,1.5561523,0.222168  c0.4760742,0.2856445,0.5712891,1.0478516,0.5712891,1.5244141c0,0.6347656-0.1269531,1.4287109-0.9208984,1.4287109  c-1.015625,0-0.8891602-1.2382813-0.9208984-1.96875h-2.3173828v0.7304688  c0.1264648,1.96875,1.1748047,3.0800781,3.206543,3.0800781c2.1274414,0,3.3974609-1.0478516,3.3974609-3.2705078  c0-1.1748047-0.3808594-2.3813477-1.7460938-2.6992188v-0.0317383c1.0473633-0.5078125,1.4921875-1.3017578,1.4921875-2.4765625  c0-2.0004883-1.2700195-2.8256836-3.1435547-2.8256836c-1.5556641,0-3.1435547,1.015625-3.206543,2.6669922v0.793457h2.3491211  c0.0322266-0.5712891-0.0634766-1.5874023,0.7939453-1.5874023c0.6987305,0,0.8574219,0.5083008,0.8574219,1.1113281  c0,0.4125977-0.1269531,1.0161133-0.4765625,1.2382813c-0.4125977,0.3178711-1.015625,0.2856445-1.4921875,0.3178711V237.4257813z" id="path100"/>
<path d="M117.2128906,45.8964844c-0.2856445,0.4125977-0.2856445,0.8574219-0.0317383,1.2700195  c0.9208984,1.4921875,4.9213867,1.5874023,5.9057617,0.1269531c0.2543945-0.4125977,0.2543945-0.8891602,0-1.3017578  C122.1342773,44.4677734,118.1972656,44.4042969,117.2128906,45.8964844z" id="path102" fill="#FF0000"/>
<path d="M61.4560547,20.6533203c1.3969727-1.8730469,3.1435547-0.8251953,3.1435547,1.2700195c0,0.1274414,0,0.222168,0,0.3496094  v0.0317383c0.0634766,0.8574219,0.2856445,1.6191406,0.8251953,2.3178711l0,0  c0.0317383,0.0634766,0.0952148,0.1586914,0.190918,0.222168c1.206543,1.3652344,0.9521484,3.2070313-1.2705078,3.1435547  c-1.3969727-0.0634766-2.8891602,0.984375-4.2548828,0.2539063c-1.1425781-0.6035156-1.777832-2.1274414-1.7460938-3.3657227  c0.0317383-1.3652344,0.762207-2.0957031,1.7460938-2.9213867C60.5668945,21.5742188,61.0429688,21.1616211,61.4560547,20.6533203z" id="path104"/>
<path d="M118.2290039,18.1767578c-1.96875,0.6669922-3.175293-0.762207-2.2861328-2.5717773  c0.4760742-1.0161133,0.4760742-2.0322266,0-3.0483398c-0.9208984-1.8735352,0.3173828-3.2387695,2.2861328-2.5722656  c1.1748047,0.4130859,2.6352539,0.4130859,3.8100586,0c1.96875-0.6665039,3.2070313,0.6987305,2.2861328,2.5722656  c-0.4760742,1.0161133-0.4760742,2.0322266,0,3.0483398c0.8891602,1.8095703-0.3173828,3.2387695-2.2861328,2.5717773  C120.9277344,17.7958984,119.340332,17.7958984,118.2290039,18.1767578z" id="path106"/>
<path d="M88.8901367,21.5107422c-1.8100586,1.0478516-3.2705078-0.1586914-2.730957-2.0957031  c0.2856445-1.0795898,0.0952148-2.0957031-0.5712891-2.9848633c-1.2387695-1.6508789-0.3178711-3.2387695,1.777832-2.9526367  c1.2382813,0.1586914,2.6669922-0.0952148,3.7470703-0.7304688c1.8413086-1.0161133,3.3017578,0.0952148,2.762207,2.0957031  c-0.3173828,1.0795898-0.1269531,2.0957031,0.5717773,2.984375c1.2060547,1.6196289,0.2856445,3.2705078-1.8100586,2.953125  C91.4936523,20.621582,89.90625,20.9394531,88.8901367,21.5107422z" id="path108"/>
<path d="M87.4291992,15.128418c-0.8569336-0.0634766-0.222168,0.3813477,0,0.7939453  c0.6352539,1.0478516,0.8256836,2.0957031,0.6352539,3.3022461c-0.0952148,0.5395508-0.4448242,1.0478516,0.3491211,0.6987305  c1.2382813-0.5717773,2.7626953-0.8574219,4.0961914-0.7939453c0.8891602,0.0317383,0.3491211-0.3173828,0.0634766-0.762207  c-0.6035156-1.0478516-0.8256836-2.1274414-0.6352539-3.3339844c0.0952148-0.4443359,0.5083008-1.0795898-0.2539063-0.7304688  C90.4140625,14.90625,88.7949219,15.2236328,87.4291992,15.128418z" id="path110" fill="#FF0000"/>
<path d="M61.3608398,23.1298828c-0.984375,0.7939453-1.4291992,1.3339844-1.0161133,2.6992188  c0.5712891,1.9370117,1.8735352,0.7617188,3.4609375,0.6669922c0.5395508-0.0634766,0.8256836-0.1591797,0.3491211-0.6669922  c-0.8891602-0.984375-1.3334961-2.1591797-1.4287109-3.4609375v0.0317383c0,0,0,0,0-0.0317383  c-0.0317383-0.5400391-0.2539063-0.3813477-0.5717773-0.0634766C61.9321289,22.5585938,61.6464844,22.9077148,61.3608398,23.1298828  z" id="path112" fill="#FF0000"/>
<path d="M117.9750977,11.6357422c-0.8256836-0.222168-0.2856445,0.3173828-0.1269531,0.762207  c0.4125977,1.1430664,0.4125977,2.2226563,0,3.3657227c-0.190918,0.5078125-0.6352539,0.9521484,0.222168,0.7299805  c1.3017578-0.2856445,2.8256836-0.2856445,4.1274414,0c0.8574219,0.222168,0.4130859-0.222168,0.222168-0.7299805  c-0.4125977-1.1430664-0.4125977-2.2226563,0-3.3657227c0.1591797-0.4448242,0.6987305-0.984375-0.1264648-0.762207  C120.9277344,11.953125,119.3085938,11.953125,117.9750977,11.6357422z" id="path114" fill="#FF0000"/>
<path d="M124.2617188,48.5952148c2.8579102,0.0957031,5.684082,0.3178711,8.5415039,0.6035156l-3.3974609-2.3496094  l3.8105469-1.5244141c-2.9848633-0.3173828-5.9379883-0.5395508-8.9228516-0.6347656  c0.1591797,0.1586914,0.3178711,0.3491211,0.4448242,0.5395508c0.5395508,0.9208984,0.5395508,2.0004883-0.0634766,2.8896484  C124.5473633,48.277832,124.4204102,48.4365234,124.2617188,48.5952148z" id="path116" fill="#FAEB01"/>
<path d="M107.0522461,45.324707l3.8100586,1.5244141l-3.3974609,2.3496094  c2.8579102-0.2856445,5.7470703-0.5078125,8.6367188-0.6035156c-0.222168-0.1904297-0.4125977-0.4125977-0.5717773-0.6347656  c-0.5712891-0.9208984-0.5395508-2.0004883,0.0634766-2.8896484c0.0957031-0.1269531,0.190918-0.2539063,0.3178711-0.3808594  C112.9580078,44.8168945,110.0048828,45.0073242,107.0522461,45.324707z" id="path118" fill="#FAEB01"/>
<path d="M178.8120117,20.6533203c-1.3969727-1.8730469-3.1435547-0.8251953-3.1435547,1.2700195c0,0.1274414,0,0.222168,0,0.3496094  v0.0317383c-0.0634766,0.8574219-0.2856445,1.6191406-0.8251953,2.3178711l0,0  c-0.0317383,0.0634766-0.0952148,0.1586914-0.1904297,0.222168c-1.2070313,1.3652344-0.9526367,3.2070313,1.2700195,3.1435547  c1.3969727-0.0634766,2.8891602,0.984375,4.2548828,0.2539063c1.1425781-0.6035156,1.777832-2.1274414,1.7460938-3.3657227  c-0.0317383-1.3652344-0.762207-2.0957031-1.7460938-2.9213867  C179.7011719,21.5742188,179.2250977,21.1616211,178.8120117,20.6533203z" id="path120"/>
<path d="M151.378418,21.5107422c1.8095703,1.0478516,3.2700195-0.1586914,2.7304688-2.0957031  c-0.2856445-1.0795898-0.0952148-2.0957031,0.5717773-2.9848633c1.2382813-1.6508789,0.3173828-3.2387695-1.7783203-2.9526367  c-1.2382813,0.1586914-2.6669922-0.0952148-3.7470703-0.7304688c-1.8413086-1.0161133-3.3017578,0.0952148-2.762207,2.0957031  c0.3173828,1.0795898,0.1269531,2.0957031-0.5712891,2.984375c-1.2070313,1.6196289-0.2861328,3.2705078,1.8095703,2.953125  C148.7744141,20.621582,150.3623047,20.9394531,151.378418,21.5107422z" id="path122"/>
<path d="M152.8388672,15.128418c0.8574219-0.0634766,0.222168,0.3813477,0,0.7939453  c-0.6352539,1.0478516-0.8256836,2.0957031-0.6352539,3.3022461c0.0957031,0.5395508,0.4448242,1.0478516-0.3491211,0.6987305  c-1.2382813-0.5717773-2.762207-0.8574219-4.0961914-0.7939453c-0.8886719,0.0317383-0.3491211-0.3173828-0.0634766-0.762207  c0.6035156-1.0478516,0.8256836-2.1274414,0.6352539-3.3339844c-0.0952148-0.4443359-0.5083008-1.0795898,0.2539063-0.7304688  C149.8540039,14.90625,151.4736328,15.2236328,152.8388672,15.128418z" id="path124" fill="#FF0000"/>
<path d="M178.9077148,23.1298828c0.9838867,0.7939453,1.4287109,1.3339844,1.015625,2.6992188  c-0.5712891,1.9370117-1.8735352,0.7617188-3.4609375,0.6669922c-0.5395508-0.0634766-0.8251953-0.1591797-0.3491211-0.6669922  c0.8891602-0.984375,1.3334961-2.1591797,1.4287109-3.4609375v0.0317383c0,0,0,0,0-0.0317383  c0.0317383-0.5400391,0.2543945-0.3813477,0.5717773-0.0634766  C178.3359375,22.5585938,178.621582,22.9077148,178.9077148,23.1298828z" id="path126" fill="#FF0000"/>
<path d="M118.8959961,56.5654297v4.2543945c0,1.1430664-1.8735352,1.1430664-1.8735352,0v-4.2543945  C117.0224609,55.421875,118.8959961,55.421875,118.8959961,56.5654297L118.8959961,56.5654297z M114.5141602,56.7241211v4.0957031  c0,1.1430664-1.8417969,1.1430664-1.8417969,0v-4.0957031C112.6723633,55.5810547,114.5141602,55.5810547,114.5141602,56.7241211  L114.5141602,56.7241211z M110.1635742,57.0415039v3.8100586c0,1.1113281-1.8730469,1.1113281-1.8730469,0v-3.8100586  C108.2905273,55.9301758,110.1635742,55.9301758,110.1635742,57.0415039L110.1635742,57.0415039z M105.7822266,57.5810547v3.2705078  c0,1.1113281-1.8417969,1.1113281-1.8417969,0v-3.2705078C103.9404297,56.4697266,105.7822266,56.4697266,105.7822266,57.5810547  L105.7822266,57.5810547z M101.4003906,58.2480469v2.6357422c0,1.0791016-1.8417969,1.0791016-1.8417969,0v-2.6357422  C99.5585938,57.168457,101.4003906,57.168457,101.4003906,58.2480469L101.4003906,58.2480469z M97.050293,59.1054688v1.8095703  c0,1.0166016-1.8735352,1.0166016-1.8735352,0v-1.8095703C95.1767578,58.0893555,97.050293,58.0893555,97.050293,59.1054688  L97.050293,59.1054688z M92.668457,60.0898438v0.8886719c0,0.953125-1.8417969,0.953125-1.8417969,0v-0.8886719  C90.8266602,59.1689453,92.668457,59.1689453,92.668457,60.0898438L92.668457,60.0898438z M87.3657227,60.565918  c0.6352539,0,0.9526367,0.2539063,0.9526367,0.5078125c0.0317383,0.2861328-0.2856445,0.5717773-0.9526367,0.5400391  c-0.6347656,0-0.9526367-0.2539063-0.9526367-0.5078125C86.4130859,60.8198242,86.730957,60.565918,87.3657227,60.565918  L87.3657227,60.565918z M121.3725586,56.5654297v4.2543945c0,1.1430664,1.8730469,1.1430664,1.8730469,0v-4.2543945  C123.2456055,55.421875,121.3725586,55.421875,121.3725586,56.5654297L121.3725586,56.5654297z M125.7539063,56.7241211v4.0957031  c0,1.1430664,1.8417969,1.1430664,1.8417969,0v-4.0957031C127.5957031,55.5810547,125.7539063,55.5810547,125.7539063,56.7241211  L125.7539063,56.7241211z M130.1044922,57.0415039v3.8100586c0,1.1113281,1.8730469,1.1113281,1.8730469,0v-3.8100586  C131.9775391,55.9301758,130.1044922,55.9301758,130.1044922,57.0415039L130.1044922,57.0415039z M134.4863281,57.5810547v3.2705078  c0,1.1113281,1.8413086,1.1113281,1.8413086,0v-3.2705078C136.3276367,56.4697266,134.4863281,56.4697266,134.4863281,57.5810547  L134.4863281,57.5810547z M138.8681641,58.2480469v2.6357422c0,1.0791016,1.8413086,1.0791016,1.8413086,0v-2.6357422  C140.7094727,57.168457,138.8681641,57.168457,138.8681641,58.2480469L138.8681641,58.2480469z M143.2177734,59.1054688v1.8095703  c0,1.0166016,1.8735352,1.0166016,1.8735352,0v-1.8095703C145.0913086,58.0893555,143.2177734,58.0893555,143.2177734,59.1054688  L143.2177734,59.1054688z M147.5996094,60.0898438v0.8886719c0,0.953125,1.8417969,0.953125,1.8417969,0v-0.8886719  C149.4414063,59.1689453,147.5996094,59.1689453,147.5996094,60.0898438L147.5996094,60.0898438z M152.9023438,60.565918  c-0.6352539,0-0.9526367,0.2539063-0.9526367,0.5078125c-0.0317383,0.2861328,0.2861328,0.5717773,0.9526367,0.5400391  c0.6347656,0,0.9526367-0.2539063,0.9526367-0.5078125C153.8549805,60.8198242,153.5371094,60.565918,152.9023438,60.565918z" id="path128" fill="#FF0000"/>
<path d="M76.6650391,58.5654297c-0.984375,0.3813477-2.0317383,0.8574219-2.4765625,1.8735352  c-0.1904297,0.3808594-0.1904297,0.7939453-0.0952148,1.1748047h5.3662109c26.0366211-10.0654297,55.3125-10.0654297,81.3491211,0  h5.3662109c0.0952148-0.3808594,0.0952148-0.7939453-0.0952148-1.1748047  c-0.4448242-1.0161133-1.4921875-1.4921875-2.4765625-1.8735352  C135.8833008,47.3569336,104.3847656,47.3569336,76.6650391,58.5654297z" id="path130" fill="#FAEB01"/>
<path d="M37.9912109,90.7939453c3.4609375-1.7143555,7.0805664-4.3496094,9.2080078-7.5888672  c1.0795898-1.6191406,2.190918-3.746582,2.0004883-5.715332c-0.2543945-2.6352539-2.730957-2.9526367-4.7626953-1.9370117  c-1.2705078,0.6035156-2.5405273,1.7783203-3.6518555,3.5249023C38.6894531,82.4433594,38.1816406,86.8886719,37.9912109,90.7939453  z" id="path132" fill="#1D7323"/>
<path d="M42.2456055,222.3432617c-4.6352539-2.5717773-10.0332031-4.2861328-15.3359375-3.0478516  c-1.1748047,0.2539063-2.2226563,0.8251953-2.8896484,1.5239258c-1.3017578,1.3652344-0.7939453,3.2070313,0.7939453,4.0644531  c1.206543,0.6665039,2.8256836,0.793457,4.1591797,0.7299805C33.1328125,225.3598633,38.5307617,224.4389648,42.2456055,222.3432617  z" id="path134" fill="#1D7323"/>
<path d="M45.5483398,220.4067383c4.730957-2.5087891,8.4140625-6.5092773,10.5732422-11.4311523  c0.5083008-1.1425781,0.6669922-2.3491211,0.4760742-3.3652344c-0.4125977-2.0322266-2.3496094-2.730957-4.1274414-1.8417969  c-1.3022461,0.6352539-2.4135742,1.9365234-3.1118164,3.1113281  C47.0087891,210.7539063,45.8339844,215.9296875,45.5483398,220.4067383z" id="path136" fill="#1D7323"/>
<path d="M37.1337891,207.1660156c4.2866211-3.4609375,7.3349609-7.7792969,8.6367188-13.1772461  c0.3173828-1.3017578,0.2856445-2.5717773-0.0634766-3.5878906c-0.6987305-2.0322266-2.6992188-2.3813477-4.3500977-1.1113281  c-1.175293,0.9208984-2.0639648,2.4765625-2.6040039,3.8735352C37.1337891,197.449707,36.7211914,202.59375,37.1337891,207.1660156z  " id="path138" fill="#1D7323"/>
<path d="M34.1806641,208.7851563c-3.4609375-4.2866211-8.4458008-8.5727539-14.3203125-8.2871094  c-1.206543,0.0634766-2.3813477,0.4130859-3.2387695,0.9526367c-1.0795898,0.6982422-1.4604492,1.8730469-0.8886719,3.0478516  c0.6030273,1.2387695,2.190918,2.2231445,4.2226563,2.953125C23.956543,208.9121094,29.9580078,209.6108398,34.1806641,208.7851563z  " id="path140" fill="#1D7323"/>
<path d="M25.4169922,185.1933594c-1.4287109-2.762207-3.2705078-5.4931641-5.5566406-7.6523438  c-2.0317383-1.9047852-4.4135742-3.3339844-7.1123047-3.7783203c-1.2382813-0.2226563-2.4448242-0.1586914-3.3974609,0.222168  c-1.2382813,0.4443359-1.8100586,1.4604492-1.4926758,2.7626953c0.3496094,1.4604492,1.9052734,2.8891602,3.9375,4.1274414  c2.190918,1.3017578,4.921875,2.4130859,7.4936523,3.175293C21.7021484,184.7490234,23.9248047,185.1616211,25.4169922,185.1933594z  " id="path142" fill="#1D7323"/>
<path d="M28.9731445,184.7807617c1.7148438-0.3813477,4.3183594-1.4604492,6.890625-2.8896484  c2.1274414-1.1748047,4.1914063-2.6035156,5.715332-4.0957031c1.3334961-1.3339844,3.2070313-3.5883789,2.0957031-5.5888672  c-0.9526367-1.6826172-3.6518555-1.5239258-5.1757813-0.8569336c-2.6035156,1.1113281-4.6357422,3.2705078-6.2231445,5.8740234  C30.878418,179.5097656,29.7988281,182.1450195,28.9731445,184.7807617z" id="path144" fill="#1D7323"/>
<path d="M21.765625,161.8554688c-1.0795898-2.8574219-2.5400391-5.715332-4.4453125-8.0014648  c-1.7143555-2.0639648-3.7783203-3.6513672-6.2236328-4.3500977c-1.1108398-0.3173828-2.222168-0.3491211-3.1113281-0.0634766  c-1.2700195,0.3808594-1.8100586,1.4287109-1.5878906,2.6987305c0.2543945,1.6196289,1.7783203,3.2705078,3.8422852,4.7631836  c2.1591797,1.5556641,4.8579102,2.8891602,7.2709961,3.7783203C19.1938477,161.315918,20.6860352,161.6967773,21.765625,161.8554688  z" id="path146" fill="#1D7323"/>
<path d="M25.3535156,161.9506836c1.2705078-0.1904297,3.0800781-0.7299805,4.9853516-1.5239258  c2.2861328-0.9526367,4.6674805-2.2543945,6.5727539-3.7470703c1.777832-1.3969727,3.0478516-2.9526367,3.2387695-4.4448242  c0.1904297-1.3657227-0.5717773-2.4770508-1.9052734-2.8896484c-0.8574219-0.2856445-1.9370117-0.2856445-2.9213867,0.0952148  c-2.5083008,0.8574219-4.5722656,2.7944336-6.2548828,5.2392578  C27.5761719,156.8388672,26.3696289,159.4106445,25.3535156,161.9506836z" id="path148" fill="#1D7323"/>
<path d="M25.0996094,140.6767578c0.984375-0.222168,2.190918-0.6665039,3.5244141-1.2382813  c2.6040039-1.1113281,5.5566406-2.7939453,7.90625-4.6674805c2.2226563-1.8100586,3.8422852-3.7788086,3.9692383-5.5883789  c0.0634766-1.3652344-0.7304688-2.4130859-2.0957031-2.7626953c-0.8891602-0.222168-1.9370117-0.1269531-2.953125,0.3808594  C30.6879883,129.2143555,27.5444336,135.628418,25.0996094,140.6767578z" id="path150" fill="#1D7323"/>
<path d="M22.4643555,140.8989258c-0.1269531-2.7939453-0.4765625-5.8105469-1.2382813-8.6049805  c-0.8891602-3.1113281-2.3496094-5.9692383-4.7631836-7.7470703c-0.9208984-0.7304688-2.0322266-1.1748047-3.0161133-1.2387695  c-1.4291992-0.0947266-2.1274414,0.7304688-2.3183594,2.0639648c-0.2539063,2.1591797,1.175293,5.0488281,3.1757813,7.7792969  c2.0952148,2.8261719,4.7626953,5.4296875,6.8901367,6.9536133  C21.6704102,140.4228516,22.0834961,140.7084961,22.4643555,140.8989258z" id="path152" fill="#1D7323"/>
<path d="M25.7348633,115.5922852c0.5395508-2.8256836,0.9204102-5.9375,0.8251953-8.8901367  c-0.1582031-3.3339844-0.9204102-6.4775391-2.8574219-8.890625c-0.8256836-1.0166016-3.2705078-2.9213867-4.6357422-1.7148438  c-0.4130859,0.3491211-0.6987305,0.7939453-0.8891602,1.3017578c-0.7939453,2.0957031-0.0634766,5.3344727,1.2700195,8.5097656  c1.3969727,3.3022461,3.4291992,6.5092773,5.2070313,8.5415039  C25.0361328,114.894043,25.4169922,115.2749023,25.7348633,115.5922852z" id="path154" fill="#1D7323"/>
<path d="M28.6557617,116.6723633c0.2861328,0.03125,0.6035156,0,0.984375,0  c2.4770508-0.1274414,6.1918945-0.984375,9.5893555-2.4135742c3.2705078-1.3652344,6.1918945-3.2382813,7.1123047-5.3974609  c0.5083008-1.1113281,0.5400391-2.2226563-0.6669922-2.8261719c-0.8569336-0.4443359-2.0952148-0.6352539-3.3652344-0.6035156  c-2.8896484,0.0634766-5.3979492,1.3022461-7.5888672,3.175293  C32.2436523,110.7026367,30.2119141,113.6557617,28.6557617,116.6723633z" id="path156" fill="#1D7323"/>
<path d="M202.2768555,90.7939453c-3.4609375-1.7143555-7.0805664-4.3496094-9.2080078-7.5888672  c-1.0795898-1.6191406-2.190918-3.746582-2.0004883-5.715332c0.2543945-2.6352539,2.730957-2.9526367,4.7631836-1.9370117  c1.2700195,0.6035156,2.5400391,1.7783203,3.6513672,3.5249023  C201.5786133,82.4433594,202.0864258,86.8886719,202.2768555,90.7939453z" id="path158" fill="#1D7323"/>
<path d="M198.0219727,222.3432617c4.6362305-2.5717773,10.0341797-4.2861328,15.3364258-3.0478516  c1.1748047,0.2539063,2.2226563,0.8251953,2.8896484,1.5239258c1.3017578,1.3652344,0.7939453,3.2070313-0.7939453,4.0644531  c-1.206543,0.6665039-2.8256836,0.793457-4.1591797,0.7299805  C207.1352539,225.3598633,201.7373047,224.4389648,198.0219727,222.3432617z" id="path160" fill="#1D7323"/>
<path d="M194.7202148,220.4067383c-4.7314453-2.5087891-8.4145508-6.5092773-10.5737305-11.4311523  c-0.5078125-1.1425781-0.6669922-2.3491211-0.4760742-3.3652344c0.4125977-2.0322266,2.3496094-2.730957,4.1274414-1.8417969  c1.3022461,0.6352539,2.4135742,1.9365234,3.1118164,3.1113281  C193.2592773,210.7539063,194.434082,215.9296875,194.7202148,220.4067383z" id="path162" fill="#1D7323"/>
<path d="M203.1342773,207.1660156c-4.2866211-3.4609375-7.3349609-7.7792969-8.6362305-13.1772461  c-0.3178711-1.3017578-0.2861328-2.5717773,0.0629883-3.5878906c0.6987305-2.0322266,2.6992188-2.3813477,4.3500977-1.1113281  c1.175293,0.9208984,2.0639648,2.4765625,2.6040039,3.8735352  C203.1342773,197.449707,203.5473633,202.59375,203.1342773,207.1660156z" id="path164" fill="#1D7323"/>
<path d="M206.0874023,208.7851563c3.4609375-4.2866211,8.4458008-8.5727539,14.3203125-8.2871094  c1.206543,0.0634766,2.3813477,0.4130859,3.2387695,0.9526367c1.0795898,0.6982422,1.4604492,1.8730469,0.8886719,3.0478516  c-0.6030273,1.2387695-2.190918,2.2231445-4.2231445,2.953125  C216.3115234,208.9121094,210.3105469,209.6108398,206.0874023,208.7851563z" id="path166" fill="#1D7323"/>
<path d="M214.8510742,185.1933594c1.4287109-2.762207,3.2705078-5.4931641,5.5566406-7.6523438  c2.0322266-1.9047852,4.4135742-3.3339844,7.1123047-3.7783203c1.2382813-0.2226563,2.4448242-0.1586914,3.3974609,0.222168  c1.2382813,0.4443359,1.8100586,1.4604492,1.4921875,2.7626953c-0.3491211,1.4604492-1.9047852,2.8891602-3.9370117,4.1274414  c-2.190918,1.3017578-4.9213867,2.4130859-7.4936523,3.175293  C218.565918,184.7490234,216.3432617,185.1616211,214.8510742,185.1933594z" id="path168" fill="#1D7323"/>
<path d="M211.2949219,184.7807617c-1.7148438-0.3813477-4.3183594-1.4604492-6.890625-2.8896484  c-2.1274414-1.1748047-4.190918-2.6035156-5.715332-4.0957031c-1.3334961-1.3339844-3.2070313-3.5883789-2.0957031-5.5888672  c0.9526367-1.6826172,3.6518555-1.5239258,5.1757813-0.8569336c2.6035156,1.1113281,4.6357422,3.2705078,6.2231445,5.8740234  C209.3896484,179.5097656,210.4692383,182.1450195,211.2949219,184.7807617z" id="path170" fill="#1D7323"/>
<path d="M218.5024414,161.8554688c1.0795898-2.8574219,2.5400391-5.715332,4.4453125-8.0014648  c1.7148438-2.0639648,3.7783203-3.6513672,6.2236328-4.3500977c1.1108398-0.3173828,2.2226563-0.3491211,3.1113281-0.0634766  c1.2700195,0.3808594,1.8100586,1.4287109,1.5878906,2.6987305c-0.2543945,1.6196289-1.7783203,3.2705078-3.8422852,4.7631836  c-2.1586914,1.5556641-4.8579102,2.8891602-7.2709961,3.7783203  C221.0742188,161.315918,219.5820313,161.6967773,218.5024414,161.8554688z" id="path172" fill="#1D7323"/>
<path d="M214.9145508,161.9506836c-1.2700195-0.1904297-3.0800781-0.7299805-4.9853516-1.5239258  c-2.2861328-0.9526367-4.6674805-2.2543945-6.5722656-3.7470703c-1.7783203-1.3969727-3.0483398-2.9526367-3.2392578-4.4448242  c-0.1904297-1.3657227,0.5717773-2.4770508,1.9052734-2.8896484c0.8574219-0.2856445,1.9370117-0.2856445,2.9213867,0.0952148  c2.5083008,0.8574219,4.5722656,2.7944336,6.2548828,5.2392578  C212.6918945,156.8388672,213.8984375,159.4106445,214.9145508,161.9506836z" id="path174" fill="#1D7323"/>
<path d="M215.168457,140.6767578c-0.984375-0.222168-2.190918-0.6665039-3.5244141-1.2382813  c-2.6040039-1.1113281-5.5566406-2.7939453-7.90625-4.6674805c-2.2226563-1.8100586-3.8422852-3.7788086-3.9692383-5.5883789  c-0.0634766-1.3652344,0.7304688-2.4130859,2.0957031-2.7626953c0.8891602-0.222168,1.9370117-0.1269531,2.953125,0.3808594  C209.5800781,129.2143555,212.7236328,135.628418,215.168457,140.6767578z" id="path176" fill="#1D7323"/>
<path d="M217.8037109,140.8989258c0.1269531-2.7939453,0.4765625-5.8105469,1.2382813-8.6049805  c0.8891602-3.1113281,2.3500977-5.9692383,4.7631836-7.7470703c0.9208984-0.7304688,2.0322266-1.1748047,3.0166016-1.2387695  c1.4287109-0.0947266,2.1269531,0.7304688,2.3178711,2.0639648c0.2539063,2.1591797-1.175293,5.0488281-3.175293,7.7792969  c-2.0957031,2.8261719-4.7631836,5.4296875-6.890625,6.9536133  C218.5976563,140.4228516,218.1850586,140.7084961,217.8037109,140.8989258z" id="path178" fill="#1D7323"/>
<path d="M214.5332031,115.5922852c-0.5395508-2.8256836-0.9204102-5.9375-0.8256836-8.8901367  c0.1591797-3.3339844,0.9213867-6.4775391,2.8583984-8.890625c0.8251953-1.0166016,3.2700195-2.9213867,4.6352539-1.7148438  c0.4130859,0.3491211,0.6987305,0.7939453,0.8891602,1.3017578c0.7939453,2.0957031,0.0634766,5.3344727-1.2700195,8.5097656  c-1.3969727,3.3022461-3.4291992,6.5092773-5.2075195,8.5415039  C215.2319336,114.894043,214.8510742,115.2749023,214.5332031,115.5922852z" id="path180" fill="#1D7323"/>
<path d="M211.6123047,116.6723633c-0.2861328,0.03125-0.6035156,0-0.984375,0  c-2.4765625-0.1274414-6.1918945-0.984375-9.5893555-2.4135742c-3.2700195-1.3652344-6.1914063-3.2382813-7.1123047-5.3974609  c-0.5083008-1.1113281-0.5395508-2.2226563,0.6669922-2.8261719c0.8569336-0.4443359,2.0952148-0.6352539,3.3652344-0.6035156  c2.8896484,0.0634766,5.3984375,1.3022461,7.5888672,3.175293  C208.0244141,110.7026367,210.0561523,113.6557617,211.6123047,116.6723633z" id="path182" fill="#1D7323"/>
</svg>