<svg xmlns:dc="http://purl.org/dc/elements/1.1/" xmlns:cc="http://creativecommons.org/ns#" xmlns:rdf="http://www.w3.org/1999/02/22-rdf-syntax-ns#" xmlns:svg="http://www.w3.org/2000/svg" xmlns="http://www.w3.org/2000/svg" xmlns:sodipodi="http://sodipodi.sourceforge.net/DTD/sodipodi-0.dtd" xmlns:inkscape="http://www.inkscape.org/namespaces/inkscape" version="1.1" id="Calque_1" x="0px" y="0px" viewBox="0 0 699.99999 699.99998" xml:space="preserve" inkscape:version="0.91 r13725" sodipodi:docname="Logo Bristol City FC 2019.svg" width="700" height="700"><metadata id="metadata124"><rdf:RDF><cc:Work rdf:about=""><dc:format>image/svg+xml</dc:format><dc:type rdf:resource="http://purl.org/dc/dcmitype/StillImage"/><dc:title>bcfc-crest-colour</dc:title></cc:Work></rdf:RDF></metadata><defs id="defs122"/><sodipodi:namedview pagecolor="#ffffff" bordercolor="#666666" borderopacity="1" objecttolerance="10" gridtolerance="10" guidetolerance="10" inkscape:pageopacity="0" inkscape:pageshadow="2" inkscape:window-width="1440" inkscape:window-height="788" id="namedview120" showgrid="false" inkscape:zoom="0.43024277" inkscape:cx="230.98967" inkscape:cy="139.11462" inkscape:window-x="0" inkscape:window-y="1" inkscape:window-maximized="1" inkscape:current-layer="Calque_1" showguides="false"/><style type="text/css" id="style3">
	.st0{fill:#F4F4F4;}
	.st1{fill:#232323;}
	.st2{fill:#E21A23;}
	.st3{fill:#FFFFFF;}
</style><title id="title5">bcfc-crest-colour</title><g id="g4455" transform="matrix(1.8857758,0,0,1.8857758,-0.09413188,-0.09441221)"><g transform="translate(428.80158,13.732012)" id="g4403"><circle style="opacity:1;fill:#232323;fill-opacity:1;fill-rule:evenodd;stroke:none;stroke-width:0.5;stroke-linecap:butt;stroke-linejoin:miter;stroke-miterlimit:4;stroke-dasharray:none;stroke-dashoffset:0;stroke-opacity:1" id="path4319" cx="-243.15166" cy="171.91806" r="185.60001"/><circle style="opacity:1;fill:#f4f4f4;fill-opacity:1;fill-rule:evenodd;stroke:none;stroke-width:0.5;stroke-linecap:butt;stroke-linejoin:miter;stroke-miterlimit:4;stroke-dasharray:none;stroke-dashoffset:0;stroke-opacity:1" id="circle4360" cx="-243.15166" cy="171.91806" r="174.85001"/><circle r="168.2" cy="171.91806" cx="-243.15166" id="circle4321" style="opacity:1;fill:#e21a23;fill-opacity:1;fill-rule:evenodd;stroke:none;stroke-width:0.5;stroke-linecap:butt;stroke-linejoin:miter;stroke-miterlimit:4;stroke-dasharray:none;stroke-dashoffset:0;stroke-opacity:1"/><circle style="opacity:1;fill:#f4f4f4;fill-opacity:1;fill-rule:evenodd;stroke:none;stroke-width:0.5;stroke-linecap:butt;stroke-linejoin:miter;stroke-miterlimit:4;stroke-dasharray:none;stroke-dashoffset:0;stroke-opacity:1" id="circle4323" cx="-243.15166" cy="171.91806" r="115.45"/></g><g id="g4431"><g id="g4373" style="fill:#ffffff"><path inkscape:connector-curvature="0" id="path4333" d="m 132.6,326.7 c 3.4,1.3 6.9,0.4 9.4,-2.6 l 5,4.7 c -4.7,5.1 -10.9,6.8 -17.7,4.2 -9.5,-3.6 -11.4,-12.6 -8.6,-19.9 2.9,-7.6 10.9,-13.4 20.8,-9.6 5.7,2.2 8.8,6.3 9.7,11.6 l -7,1.7 c -0.4,-3.1 -2.6,-5.7 -5.5,-6.8 -5.2,-2 -9.3,1.1 -10.8,5.2 -1.5,4.2 -0.4,9.6 4.7,11.5 l 0,0 z" style="fill:#ffffff"/><path inkscape:connector-curvature="0" id="path4331" d="m 169.8,342 -7.4,-1 3.9,-30.2 7.3,0.9 -3.8,30.3 z" style="fill:#ffffff"/><path inkscape:connector-curvature="0" id="path4329" d="m 207.2,341.5 -7.4,0.8 -2.6,-23.3 -9,1 -0.8,-7 25.3,-2.8 0.8,7 -9,1 2.7,23.3 z" style="fill:#ffffff"/><path inkscape:connector-curvature="0" id="path4327" d="m 245.6,331.4 -5.1,-11.9 -17.5,-11.6 8.2,-3.5 10.1,7.5 1.5,-12.5 8.2,-3.5 -3.6,20.7 5.1,11.9 -6.9,2.9 z" style="fill:#ffffff"/></g><g id="g4362"><polygon style="fill:#e21a23" id="polygon61" points="91,149.7 91,152.5 92.7,152.5 92.7,162 95.7,162 95.7,149.7 " class="st2"/><path style="fill:#e21a23" inkscape:connector-curvature="0" id="path63" d="m 105.9,155.5 c 1.1,-0.5 1.8,-1.5 1.8,-2.7 0,-2.1 -1.7,-3.3 -4.1,-3.3 -2.4,0 -4.3,1.2 -4.3,3.3 0,1.2 0.7,2.2 1.8,2.6 -1.3,0.4 -2.3,1.6 -2.2,3 0,2.2 1.9,3.7 4.7,3.7 2.8,0 4.6,-1.5 4.6,-3.7 0,-1.3 -0.9,-2.5 -2.3,-2.9 z m -2.3,-3.3 c 0.8,0 1.2,0.4 1.2,1 -0.1,0.6 -0.5,1 -1,1.2 l -0.5,-0.2 c -0.7,-0.2 -1.1,-0.6 -1.1,-1 0.1,-0.6 0.6,-1 1.4,-1 l 0,0 z m 0,7.3 c -1.1,0 -1.8,-0.4 -1.8,-1.2 0,-0.7 0.5,-1.3 1.2,-1.4 l 0.6,0.2 c 1,0.3 1.5,0.7 1.5,1.4 0,0.7 -0.5,1 -1.5,1 l 0,0 z" class="st2"/><rect style="fill:#e21a23" id="rect65" height="3" width="17" class="st2" y="164.3" x="91"/><path style="fill:#e21a23" inkscape:connector-curvature="0" id="path67" d="m 116.7,149.1 c -3.8,0 -6.6,2.6 -6.6,6.4 -0.2,3.1 2.1,5.7 5.2,5.9 0.1,0 0.2,0 0.3,0 1.7,0 3.4,-0.8 4.4,-2.2 -0.7,3.8 -3.6,4.9 -7,4.9 l -0.1,3.5 c 7.5,0 11,-4.5 11,-10.1 0.1,-4.9 -2.8,-8.4 -7.2,-8.4 z m 0,8.9 c -1.5,0 -2.7,-1.2 -2.7,-2.7 0,-1.5 1.2,-2.7 2.7,-2.7 0,0 0,0 0,0 1.5,0 2.7,1.2 2.7,2.7 0,1.5 -1.2,2.7 -2.7,2.7 0,0 0,0 0,0 z" class="st2"/><path style="fill:#e21a23" inkscape:connector-curvature="0" id="path69" d="m 137.2,149.3 -3.9,0 -7.9,10.9 0,3.4 7.9,0 0,3.9 3.8,0 0,-3.9 3,0 0,-3.6 -3,0 0,-10.7 z m -3.8,10.7 -4.2,0 4.2,-5.8 0,5.8 z" class="st2"/></g><g id="g4369"><path sodipodi:nodetypes="ccccccccccccccccccccccccccccccccc" style="fill:#232323" inkscape:connector-curvature="0" id="path46" d="m 237.4,125.4 c 1.4,-1.1 12.1,-7.4 12.1,-7.4 l -16.6,-2.5 C 226.1,105.1 214.7,98.7 202.4,98.2 l -0.1,0 c -24.2,-0.7 -35.1,19.4 -37.6,30.2 -0.9,3.1 -19.1,68.4 -45.3,111.7 -2.8,4.7 -5.9,9.2 -9.3,13.5 l 12.9,0 c 1.8,-2.6 3.6,-5.3 5.3,-8.1 27.5,-45.3 45.7,-111.6 46.5,-114.4 l 0.1,-0.2 c 0.2,-0.9 5.3,-22.8 27.1,-22.2 6.2,0.3 12.1,2.6 16.9,6.5 -3.7,0.4 -7.4,1.4 -10.8,3 -7.6,3 -12.6,7.8 -14.9,14 -4.4,11.8 2.4,25 4.6,29.3 14.8,28.8 -12.8,52.4 -38.6,67.2 l -4.8,3 4.9,6.4 12.5,16.8 2.3,3 3.6,-1.2 c 16.6,-5.6 34.7,3.2 40.3,19.9 1.4,4 1.9,8.2 1.6,12.4 3.5,-1.2 7,-2.5 10.4,-4 -0.2,-4 -0.9,-8 -2.2,-11.8 -7,-20.6 -28.7,-32.5 -49.8,-27.3 l -6.4,-8.6 c 14.4,-3.6 43.3,-12.6 57.1,-30.2 19.3,-24.6 9.4,-45.9 2.8,-59.9 -1.9,-4.1 -2.2,-7.6 -1,-10.9 2.2,-6.7 5,-9.3 6.9,-10.9 z" class="st1"/><path inkscape:connector-curvature="0" id="path71" d="m 225.2,193.5 c -5.96029,11.94571 -17.75747,19.39936 -29.56927,24.68215 -1.94185,0.78229 -6.52088,2.99111 -6.8842,2.64285 11.10035,-9.46272 20.87918,-21.83849 23.28101,-36.5875 1.48715,-9.28923 -0.37553,-18.90721 -4.76554,-27.1865 -2.99901,-6.11079 -6.10137,-12.89569 -4.80887,-19.85881 1.16798,-6.08829 7.32619,-9.09802 12.70156,-10.71406 2.75375,-0.69681 7.96668,-1.97227 9.4082,-0.96543 -5.36122,5.98558 -6.89896,14.79043 -4.32539,22.34511 2.65286,7.02297 6.62505,13.56706 8.21094,20.98438 1.99003,7.95767 0.84452,16.49831 -2.91563,23.75937 l -0.17402,0.44864 -0.15879,0.4498 0,0 z" style="fill:#e21a23"/></g><g id="g4351" style="fill:#ffffff"><path style="fill:#ffffff" inkscape:connector-curvature="0" id="path21" d="m 101.6,91.9 c 4.9,-4.4 4.5,-10.8 1.4,-14.2 -2.1,-2.3 -5.5,-3.1 -9.3,-1.1 1.7,-2.5 1.5,-5.9 -0.6,-8.1 C 90.6,65.7 85.6,65 81.5,68.7 L 72,77.3 92.7,100 101.6,91.9 Z M 85.6,81.3 82.1,77.4 85,74.8 c 1.4,-1.3 2.8,-1.1 3.8,-0.1 1,1.2 0.9,2.9 -0.3,4 0,0 0,0 0,0 l -2.9,2.6 z m 7.1,1 c 1.2,-1.2 3.2,-1.3 4.4,-0.1 0,0 0.1,0.1 0.1,0.1 1.2,1.3 1,3.4 -0.3,4.6 -0.1,0 -0.1,0.1 -0.2,0.1 l -3.2,3 -4.2,-4.6 3.4,-3.1 z" class="st0"/><path style="fill:#ffffff" inkscape:connector-curvature="0" id="path23" d="m 246.6,76.3 c 7.9,4.4 17.2,1.6 21.6,-6.4 4.4,-8 1.8,-17.3 -6.1,-21.7 -7.5,-4.3 -17,-1.7 -21.3,5.8 -0.1,0.2 -0.2,0.4 -0.3,0.6 -4.4,8 -1.8,17.3 6.1,21.7 z m 0.5,-18.1 c 2.5,-4.6 7.4,-6.2 11.6,-3.8 4.2,2.4 5.5,7.3 3,11.9 -2.5,4.6 -7.4,6.1 -11.6,3.8 -4.2,-2.3 -5.5,-7.3 -3,-11.9 z" class="st0"/><path style="fill:#ffffff" inkscape:connector-curvature="0" id="path33" d="m 125.7,74.9 -5,-9.9 1.8,-0.9 10.5,7.2 7.7,-3.9 -12.6,-8.3 c 2.4,-2.6 3,-6.5 1.4,-9.7 -2.2,-4.3 -7.1,-7.1 -13.4,-3.9 l -10.8,5.4 13.8,27.4 6.6,-3.4 z M 115,53.6 l 3.6,-1.8 c 1.8,-0.9 3.5,-0.5 4.3,1.2 0.8,1.7 0.2,3.5 -1.8,4.5 l -3.4,1.7 -2.7,-5.6 z" class="st0"/><path inkscape:connector-curvature="0" id="path4347" d="m 296.3,74.6 -16.7,16.7 8.2,8.2 -5,5 -13.5,-13.4 21.7,-21.7 5.3,5.2 z" style="fill:#ffffff"/><path inkscape:connector-curvature="0" id="path4343" d="m 207.9,30.3 25,5.6 -1.6,6.9 -8.9,-2 -5.2,23 -7.3,-1.6 5.2,-23 -8.9,-2 1.7,-6.9 z" style="fill:#ffffff"/><path inkscape:connector-curvature="0" id="path4341" d="m 179.4,48.1 c -4.2,-1 -9.3,-2.6 -9.5,-8.9 -0.2,-6.5 5.2,-10.4 11,-10.6 4,-0.2 7.9,1.5 10.5,4.6 l -4.6,5.2 c -1.5,-1.8 -3.8,-2.7 -6.1,-2.6 -1.9,0.1 -3.5,0.9 -3.4,2.4 0.1,2.1 2.7,2.6 5.7,3.3 4.3,1 9.4,2.3 9.6,8.7 0.2,6.6 -5.1,10.3 -11,10.6 -4.6,0.2 -9,-1.8 -12,-5.2 l 4.8,-5.4 c 1.8,2.2 4.5,3.5 7.4,3.4 2,-0.1 3.4,-0.9 3.3,-2.3 0,-2.1 -2.6,-2.5 -5.7,-3.2 z" style="fill:#ffffff"/><path inkscape:connector-curvature="0" id="path4339" d="m 151,33.1 7.4,29.8 -7.2,1.8 -7.4,-29.8 7.2,-1.8 z" style="fill:#ffffff"/></g></g></g></svg>