<svg xmlns="http://www.w3.org/2000/svg" viewBox="0 0 474.65 575.51" width="287" height="348" style="enable-background:new 0 0 474.65 575.51" xml:space="preserve">
  <style type="text/css">
.blue   { fill:#12437d; }
.yellow { fill:#ffec00; }
  </style>
  <path d="m419 383.17-17.96-37.24c4.08-11.97 5.92-21.94 7.2-27.46 1.39-6.14 2.82-19.21 4.31-36.21 1.48-16.97 2.99-37.77 4.44-58.98 2.9-42.41 5.56-86.52 7.26-104.87 2.51-27.23 13.66-56.89 19.07-69.93 1.8-4.35 2.95-6.84 2.96-6.84l.93-2.01-2.05-.85C445.01 38.72 351.78.01 237.32 0 122.86.01 29.64 38.72 29.49 38.77l-2.05.85.93 2.01c0 .01 1.15 2.49 2.96 6.84 5.41 13.05 16.55 42.7 19.07 69.93 1.7 18.35 4.37 62.46 7.26 104.87 1.45 21.21 2.96 42.01 4.44 58.98 1.49 17 2.92 30.07 4.31 36.21 1.27 5.52 3.11 15.49 7.2 27.46l-17.96 37.24L0 373.61l2.11 3.87c22.06 40.42 53.67 74.59 91.72 99.28l-26.95 50.87 1.72 1.04c49.33 29.84 107.1 46.84 168.71 46.84s119.38-16.99 168.71-46.84l1.72-1.04-26.94-50.87c38.05-24.68 69.67-58.85 91.72-99.28l2.11-3.87-55.63 9.56zm-181.68 95.64c-21.58 0-42.58-2.16-62.72-6.25l10.88-33.94.11-.07c15.19 3.01 32.34 4.72 51.72 4.71h.02c19.39.01 36.53-1.7 51.72-4.71l.11.07 10.87 33.94c-20.13 4.09-41.13 6.25-62.71 6.25z"/>
  <path class="blue" d="M404.08 317.52c1.28-5.58 2.75-18.73 4.22-35.63 4.44-50.8 9.13-136.13 11.71-163.87 3.03-32.47 17.66-67.41 21.49-76.12-.59-.23-1.3-.5-2.13-.82-19.23-7.34-102.73-36.82-202.05-36.81-99.31-.01-182.81 29.47-202.03 36.81-.83.32-1.54.59-2.13.82 3.82 8.71 18.45 43.66 21.49 76.12 2.57 27.74 7.27 113.07 11.71 163.87 1.47 16.9 2.94 30.05 4.22 35.63 2.7 11.81 7.76 42.07 30.37 69.47 22.61 27.34 62.67 51.97 136.38 52h.02c73.71-.03 113.78-24.66 136.38-52 22.59-27.4 27.64-57.65 30.35-69.47z"/>
  <path d="M170.41 471.67c-19.65-4.28-38.45-10.39-56.14-18.13l66.49-14.19-10.35 32.32zm123.47-32.32 66.49 14.19c-17.69 7.73-36.49 13.85-56.14 18.13l-10.35-32.32z" style="fill:#877e23"/>
  <path class="blue" d="M402.1 526.06c-48.3 28.81-104.67 45.18-164.77 45.18-60.11 0-116.47-16.38-164.78-45.18l37.04-69.92c38.24 17.22 81.72 26.93 127.74 26.93s89.5-9.71 127.74-26.93l37.03 69.92z"/>
  <path class="yellow" d="M97.64 389.7c-10.58-12.81-17.42-26.23-22-38.17l-17.55 36.38-50.08-8.6c21.55 38.02 51.76 70.2 87.83 93.66l11.86-22.39 67.42-14.39c-37.31-9.44-61.61-27.23-77.48-46.49zm318.91-1.79L399 351.53c-4.58 11.94-11.42 25.36-22 38.17-15.87 19.25-40.17 37.05-77.48 46.49l67.43 14.39 11.86 22.39c36.07-23.46 66.28-55.64 87.82-93.66l-50.08 8.6zM136.42 496.73c-8.73.73-12.1.46-20.18-1.01l3.43-10.53c4.21.69 12.55 2.04 20.72-3.1l13.38 4.35-18.94 58.11-12.29-5.2m71.53-34.56c5.3.47 15.49 2.64 14.19 11.83-1.05 7.45-9.34 8.24-17.07 7.17-4.91-.71-12.88-2.84-11.71-11.13.96-6.82 7.27-8.63 14.59-7.87m-33.23 30.86c.34 2.83.72 6.14 3.78 10.1 6.13 7.91 15.55 9.51 20 10.13 6.66.95 23.55 2.78 32.44-12.2 2.93-4.98 4.55-10.59 5.35-16.24 1.47-10.37-.84-18.38-4.69-23.3-6.36-8.13-17.47-9.68-20.74-10.15-19.3-2.73-30.72 5.21-32.48 17.78-1.25 8.89 2.77 19.77 20.7 22.31 5.37.74 10.3.6 15.16-.83 3.46-.91 4.89-1.92 7.07-3.45-1.2 4.46-2.4 9.09-6.47 12.25-4.71 3.7-10.65 3.15-13.01 2.8-9.47-1.33-11.37-6.32-12-8.35l-15.11-.85zm105.24-7.43c6.3-.81 15.59.09 16.26 8.33.61 7.33-6.41 10.3-13.38 10.87-4.4.35-9.56.26-13.01-3.63-1.52-1.71-2.04-3.52-2.17-4.98-.46-5.57 4.71-9.69 12.3-10.59m29.39-18.01c-1.23-2.59-2.12-4.53-4.53-6.92-6.25-6.29-15.5-7.94-24.49-7.17-13.19 1.08-31.64 9.79-29.52 35.34 1.28 15.58 9.7 29.45 33.81 27.43 11.63-.94 18.36-5.28 21.82-9.16 3.04-3.4 5.65-8.68 5.13-14.91-.86-10.43-10.06-19.07-27.09-17.66-11.91.97-16.97 6.55-19.18 8.96-.05-4.06-.05-9.58 4.36-14.19 2.2-2.29 5.63-4.23 10.58-4.67 8.24-.67 11.51 3.22 13.65 5.62l15.46-2.67zm44.95 10.26-19.51 5.88 10.62-22.38c.37-.72 2.83-6.23 2.75-6.51.16 1.21.36 2.48.64 3.75.25 1.16.61 2.41 1.01 3.64m-28.94 25.66 3.07 10.21 33.43-10.04 3.56 11.78 14.32-4.3-3.53-11.81 9.49-2.84-3.06-10.21-9.51 2.86-10.54-35.11-15.22 4.58-22.01 44.88z"/>
  <path d="M345.6 177.62c-7.24-4.22-17.43-7.89-29.85-10.87V100.6c-.81-20.56-9.66-39.72-24.92-53.98-11.77-11.01-26.42-18.19-42.23-20.91-.93-5.02-5.63-7.64-11.25-7.61-3.79 0-6.69 1.19-8.63 3a9.032 9.032 0 0 0-2.65 4.58c-15.82 2.71-30.49 9.91-42.27 20.93-15.25 14.26-24.1 33.42-24.9 53.93v66.19c-12.42 2.99-22.63 6.66-29.87 10.89-7.39 4.32-11.9 9.31-11.94 15.06v183.81c.03 5.21 3.77 9.81 9.93 13.83 18.55 12.03 60.87 20.19 110.31 20.22 32.95 0 62.78-3.67 84.46-9.64 10.84-2.99 19.65-6.54 25.85-10.58 6.16-4.02 9.9-8.62 9.93-13.83V192.7c-.05-5.77-4.58-10.76-11.97-15.08zM237.51 51.82h.02c4.47-.01 7.93-2.16 9.46-5.18 10.35 4.1 17.67 14.19 17.67 25.98 0 2.45-.14 3.76-.64 5.75-6.17-2.13-15.82-3.46-26.7-3.47h-.16c-10.84 0-20.44 1.33-26.62 3.45-.51-1.97-.66-3.27-.67-5.73.02-11.95 7.56-22.15 18.13-26.14 1.51 3.26 5.19 5.34 9.51 5.34zm69.85 113.1c-19.7-3.95-43.88-6.26-70.03-6.26s-50.34 2.32-70.05 6.26v-61.83c.76-18.81 8.91-36.48 23.04-49.68 11.02-10.32 23.26-16.98 37.39-19.46.7.94 1.53 1.66 2.36 2.18-1.11 1.16-2.31 2.72-2.82 5.19-13.04 4.43-22.46 16.78-22.46 31.3 0 1.48.06 2.71.2 3.88h-.94c.47-1.28.66-2.2.66-2.97 0-.53-.11-.99-.29-1.36l-.24-.48-3.21.03v.01c-.48.01-.72.37-.74.43-.16.38-.08.28-.11.35v.15c-.01.18-.14 1.06-1.18 2.91-1.23 2.18-1.63 3.41-1.63 4.66a6.43 6.43 0 0 0 2.49 5.06c1.08.85 2.3 1.37 3.64 1.37h.02c.08 0 .16-.01.23-.02l9.09 64.32.26.81.15.45.45.12c6.01 1.56 14.32 3.25 23.53 3.25h.15c9.22 0 17.54-1.69 23.55-3.25l.46-.12.39-1.25 9.1-64.31c.09 0 .17.02.26.02h.01c1.34 0 2.56-.52 3.65-1.37a6.434 6.434 0 0 0 2.45-4.38c.03-.23.04-.46.04-.7 0-1.25-.42-2.47-1.64-4.65-1-1.83-1.13-2.71-1.15-2.91v-.08c-.06-.08.13-.06-.24-.59a.845.845 0 0 0-.64-.26l-3.18-.03-.24.48c-.19.37-.3.83-.3 1.37.01.76.19 1.68.66 2.96h-.92c.15-1.18.21-2.4.21-3.88 0-14.4-9.26-26.66-22.11-31.19a7.816 7.816 0 0 0-1.38-3.13l-.19-.26h-7.73l3.46-1.72c.97-.38 2.78-1.16 4.32-2.64 14.59 2.22 26.68 8.98 38.18 19.72 14.12 13.2 22.27 30.87 23.02 49.73v61.77zm-104.45-83.7c-.28-.23-.45-.54-.49-.84 0-.03.03-.11.15-.4.03-.08.08-.18.13-.29l.21 1.53zm68.68.04.23-1.63c.05.12.1.23.14.32.16.37.14.41.15.41v.02c-.05.32-.23.65-.52.88z"/>
  <path class="yellow" d="M209.04 180.94c-18.53 1.53-33.54 4.53-41.77 8.26v3.91c8.48-3.75 23.41-6.67 41.77-8.19v-3.98zm4.28-19.06c-16.97.96-32.6 2.92-46.05 5.64v14.5c8.72-3.74 23.59-6.62 41.77-8.1l4.28-12.04z"/>
  <path class="yellow" d="M209.04 189.76v-3.98c-18.53 1.53-33.54 4.52-41.77 8.26v1.68c.83.39 1.72.77 2.7 1.14 8.75-3.22 22.51-5.74 39.07-7.1zm0-13.27c-18.72 1.55-33.81 4.6-41.77 8.33v3.45c8.48-3.74 23.41-6.67 41.77-8.19v-3.59zm-57.03 40.38v43.23h-.18c.57.16 1.14.33 1.72.48 12.7 3.5 28.34 6.21 45.81 7.83v-43.37c-18.08-1.66-34.24-4.48-47.35-8.17zm163.57-24.81c-.33.95-1.03 2.05-2.35 3.08-.27.23-.56.45-.86.68l18.08 15.92c6.42-2.24 11.76-4.72 15.79-7.35 5.88-3.83 8.79-7.85 8.76-11.69.05-4.23-3.56-8.72-10.69-12.87-6.78-3.96-16.57-7.53-28.55-10.44v19.68c.11.41.18.82.18 1.22-.03.62-.15 1.21-.36 1.77zm-78.26 34.7c-12.33-.01-24.22-.52-35.41-1.48v43.37c11.18.96 23.07 1.48 35.41 1.48 15.53.01 30.36-.82 43.95-2.32v-43.37c-13.61 1.49-28.42 2.32-43.95 2.32zm80.36 30.91-.21-.83c4.16-1.05 8.03-2.19 11.59-3.4v-3.95c-3.52 1.18-7.32 2.3-11.38 3.33l-.21-.83c4.16-1.05 8.03-2.19 11.59-3.39v-3.96c-3.52 1.18-7.32 2.3-11.38 3.34l-.21-.83c4.16-1.05 8.03-2.19 11.59-3.4v-3.95c-3.52 1.18-7.32 2.3-11.38 3.34l-.21-.83c4.16-1.05 8.03-2.19 11.59-3.4v-3.95c-3.52 1.18-7.32 2.3-11.38 3.34l-.21-.83c4.16-1.05 8.03-2.19 11.59-3.4v-3.95c-3.52 1.18-7.32 2.3-11.38 3.34l-.21-.83c4.16-1.05 8.03-2.19 11.59-3.4v-3.95c-3.52 1.18-7.32 2.3-11.38 3.34l-.21-.83c4.16-1.05 8.03-2.19 11.59-3.4v-3.95c-3.52 1.18-7.32 2.3-11.38 3.34l-.21-.83c4.16-1.05 8.03-2.19 11.59-3.4v-4.67c-2.31.76-4.74 1.5-7.29 2.2-10.83 2.98-23.68 5.39-37.95 7.06v43.36c17.76-2.09 33.27-5.34 45.23-9.37v-3.83c-3.5 1.21-7.3 2.32-11.37 3.37zm-25.41-54.69c-14.12 2.96-33.51 4.77-54.95 4.77-20.21-.01-38.57-1.6-52.45-4.27-.06.01-.12.02-.17.03l-.01-.07c-3.7-.72-7.07-1.51-10.07-2.37-.01 0-.02 0-.03.01l-.01-.02c-1.74-.5-3.36-1.02-4.84-1.56l-17.02 14.9c.27.08.54.15.82.23 21.37 5.89 51.02 9.56 83.78 9.55 36.23.02 68.71-4.52 90.31-11.51l-17.55-15.45c-.09.05-.18.1-.26.14-.2.11-.34.18-.46.24-.08.04-.15.08-.22.12-4.07 2.02-9.81 3.78-16.87 5.26z"/>
  <path class="yellow" d="M192.52 202.18c5.07.76 10.61 1.4 16.52 1.89v-3.77c-5.9.48-11.44 1.12-16.52 1.88zm16.52-11.56c-15.88 1.31-29.17 3.7-37.81 6.71 1.97.69 4.2 1.36 6.66 1.99 8.28-2.08 18.96-3.71 31.15-4.72v-3.98zm28.28-15.24c-9.02-.01-17.68.32-25.73.92v3.6c3.18-.24 6.45-.43 9.8-.58l.04.85c-3.37.15-6.65.34-9.84.58v3.99c3.18-.24 6.45-.43 9.8-.58l.04.85c-3.37.15-6.65.34-9.84.58v3.98c3.18-.23 6.45-.43 9.8-.58l.03.85c-3.37.15-6.65.34-9.84.58v3.98c3.18-.23 6.45-.43 9.8-.58l.03.85c-3.37.15-6.65.34-9.84.58v3.98c3.18-.24 6.45-.43 9.8-.58l.03.85c-3.37.15-6.65.34-9.84.58v4.18c8.04.6 16.7.93 25.72.93 9.46.01 18.52-.36 26.9-1.01v-27.8c-8.34-.65-17.4-1.01-26.86-1zm0-2.57c9.35.01 18.3.35 26.61.98l-4.35-12c-7.21-.38-14.65-.58-22.26-.58-7.25 0-14.34.18-21.23.53l-4.26 11.97c7.99-.57 16.56-.89 25.49-.9zm29.46 31.16c18.16-1.58 32.79-4.57 40.58-8.23V184.8c-7.8-3.65-22.42-6.63-40.58-8.21v27.38zm-87.09-4.21c1.04.25 2.11.49 3.22.72 2.16.45 4.46.87 6.86 1.27 5.82-.95 12.29-1.73 19.27-2.31v-3.98c-11.36.94-21.39 2.42-29.35 4.3z"/>
  <path class="yellow" d="M233.55 30.34h1.51c.05-.01.1-.03.16-.03 20.35-.02 36.33 7.59 50.87 21.22 14.6 13.64 23.05 31.96 23.82 51.55v91.27c.42-.27.91-.6 1.46-.99.93-.76 1.51-1.49 1.79-2.13.01-.03.02-.05.02-.07v-90.49c-.78-19.84-9.33-38.34-24.1-52.16-14.02-13.11-32.24-20.64-51.62-21.39-1.23.06-2.42.15-3.85.28-.21.02-.41-.03-.6-.1-.03.18-.06.37-.06.56.02 1.23.26 1.97.6 2.48z"/>
  <path class="yellow" d="M266.74 174.02c17.65 1.51 32.07 4.34 40.62 7.99v-14.49c-13.17-2.67-28.43-4.6-45-5.58l4.38 12.08zM151.83 352c.57.16 1.14.33 1.72.48 12.7 3.5 28.34 6.21 45.81 7.84v-43.39c-18.08-1.67-34.23-4.49-47.35-8.18V352h-.18zM235.7 24.48h3.4c-.53-.15-1.12-.24-1.79-.24-.58 0-1.12.09-1.61.24zm95.1 324.98h-1.73v-3.23c-3.52 1.18-7.32 2.3-11.38 3.34l-.21-.83c4.16-1.05 8.03-2.19 11.59-3.4v-3.95c-3.52 1.18-7.32 2.3-11.38 3.34l-.21-.83c4.16-1.05 8.03-2.19 11.59-3.4v-3.95c-3.52 1.18-7.32 2.3-11.38 3.34l-.21-.83c4.16-1.05 8.03-2.19 11.59-3.4v-3.95c-3.52 1.18-7.32 2.3-11.38 3.34l-.21-.83c4.16-1.05 8.03-2.19 11.59-3.4v-3.94c-3.52 1.18-7.32 2.3-11.38 3.33l-.21-.83c4.16-1.05 8.03-2.18 11.59-3.39v-3.96c-3.52 1.18-7.32 2.3-11.38 3.34l-.21-.83c4.16-1.05 8.03-2.19 11.59-3.4v-3.95c-3.52 1.18-7.32 2.3-11.38 3.34l-.21-.83c4.16-1.05 8.03-2.19 11.59-3.4v-3.95c-3.52 1.18-7.32 2.3-11.38 3.34l-.21-.83c4.16-1.05 8.03-2.19 11.59-3.39v-4.69c-2.31.76-4.74 1.5-7.29 2.2-10.83 2.98-23.68 5.39-37.95 7.05v43.38c18.63-2.18 34.79-5.65 46.97-9.95zm-202.39-53.19c5.84 3.81 14.45 7.31 25.13 10.26 4.89 1.35 10.24 2.58 15.94 3.67v-43.32c-18.56-3.54-33.38-8.5-42.47-14.4-3.15-2.05-5.66-4.26-7.37-6.61v38.73c-.01 3.83 2.9 7.84 8.77 11.67zm13.68-6.7c-8.93-3.26-15.76-7-19.86-11.09l.6-.6c3.94 3.95 10.69 7.67 19.55 10.89l-.29.8zm.29 4.05-.29.8c-8.93-3.28-15.76-7.01-19.86-11.11l.6-.6c3.95 3.95 10.69 7.66 19.55 10.91zm-.29-8.89c-8.93-3.28-15.76-6.99-19.86-11.11l.61-.6c3.94 3.97 10.69 7.66 19.55 10.91l-.3.8zm0-14.51c-8.93-3.28-15.76-6.99-19.86-11.1l.6-.6c3.94 3.95 10.69 7.65 19.55 10.9l-.29.8zm.29 4.04-.29.8c-8.93-3.26-15.76-6.99-19.86-11.1l.6-.6c3.94 3.96 10.68 7.67 19.55 10.9zm-19.55-20.59c3.95 3.97 10.69 7.69 19.55 10.92l-.29.8c-8.93-3.26-15.76-7-19.86-11.12l.6-.6zm-.6 15.11.61-.6c3.94 3.98 10.68 7.68 19.55 10.91l-.29.8c-8.94-3.26-15.77-6.99-19.87-11.11zm-.01 19.34.61-.6c3.94 3.98 10.69 7.69 19.55 10.92l-.29.8c-8.93-3.26-15.76-6.99-19.87-11.12z"/>
  <path class="yellow" d="M128.41 342.23c5.07 3.31 12.24 6.39 21.04 9.07V308c-9.28-2.78-16.92-6.01-22.43-9.59-3.15-2.05-5.66-4.26-7.37-6.62v38.76c-.02 3.84 2.89 7.86 8.76 11.68zm-6.18-22.65.6-.6c3.95 3.95 10.69 7.67 19.55 10.91l-.29.8c-8.93-3.27-15.76-7.01-19.86-11.11zm0-4.85.6-.6c3.95 3.96 10.69 7.67 19.55 10.9l-.29.8c-8.93-3.26-15.76-6.99-19.86-11.1zm.6-15.1c3.95 3.95 10.69 7.67 19.55 10.91l-.29.8c-8.93-3.27-15.76-7.01-19.86-11.11l.6-.6zm0 4.83c3.95 3.95 10.69 7.69 19.55 10.92l-.29.8c-8.93-3.26-15.76-7.02-19.86-11.12l.6-.6zm0 4.84c3.95 3.97 10.69 7.67 19.55 10.89l-.29.8c-8.93-3.25-15.76-6.98-19.87-11.09l.61-.6zm-.61 15.11s.01 0 0 0l.61-.6c3.95 3.98 10.69 7.67 19.55 10.92l-.29.8c-8.93-3.28-15.76-6.99-19.87-11.12zm.01 4.85.6-.61c3.95 3.95 10.69 7.67 19.55 10.89l-.29.8c-8.93-3.24-15.76-6.99-19.86-11.08zm.6 4.22c3.95 3.96 10.69 7.67 19.55 10.92l-.29.8c-8.93-3.28-15.76-7.01-19.86-11.12l.6-.6zm114.49-17.4c1.29 0 2.58-.01 3.86-.02v-43.39c-1.28.01-2.56.03-3.86.03-24.1-.01-46.49-1.97-65.28-5.35v43.33c18.7 3.4 41.15 5.4 65.28 5.4zm0 48.52c-24.1-.01-46.49-1.97-65.28-5.35v43.36c18.7 3.4 41.14 5.4 65.28 5.4 1.29 0 2.58-.01 3.86-.02v-43.41c-1.28 0-2.56.02-3.86.02z"/>
  <path class="yellow" d="M127.02 344.37c-3.15-2.05-5.66-4.26-7.37-6.62v38.75c-.03 3.84 2.89 7.86 8.77 11.68 5.84 3.81 14.45 7.32 25.13 10.26 4.89 1.35 10.24 2.57 15.94 3.67v-43.35c-18.56-3.52-33.38-8.49-42.47-14.39zm-4.79 1.8.6-.6c3.95 3.97 10.68 7.69 19.55 10.91l-.29.8c-8.93-3.25-15.76-6.99-19.86-11.11zm20.15 15.15-.3.8c-8.93-3.28-15.76-6.99-19.86-11.09l.6-.6c3.96 3.96 10.7 7.64 19.56 10.89zm-20.15-.61.6-.61c3.95 3.95 10.69 7.66 19.55 10.9l-.29.8c-8.93-3.27-15.76-7-19.86-11.09zm0 4.8.6-.6c3.95 3.98 10.69 7.69 19.55 10.92l-.29.8c-8.93-3.25-15.77-6.99-19.86-11.12zm-.01 9.68.61-.6c3.95 3.98 10.69 7.7 19.55 10.92l-.29.8c-8.93-3.25-15.76-6.99-19.87-11.12zm19.87 15.95c-8.93-3.27-15.76-6.98-19.86-11.09l.6-.6c3.95 3.96 10.69 7.65 19.55 10.89l-.29.8zm0-9.67c-8.93-3.28-15.76-6.99-19.86-11.12l.61-.6c3.94 3.98 10.68 7.67 19.55 10.92l-.3.8zm0-14.51c-8.93-3.28-15.76-7.01-19.86-11.09l.6-.61c3.95 3.93 10.69 7.64 19.56 10.9l-.3.8zm95.23-4.92c15.52.01 30.36-.82 43.95-2.32v-43.4c-13.61 1.49-28.43 2.31-43.95 2.31-12.33-.01-24.22-.52-35.41-1.48v43.4c11.18.97 23.08 1.49 35.41 1.49zm-.5-324.65 4.51-2.24c.76-.29 1.98-.83 3.12-1.69a71.88 71.88 0 0 0-7.17-.54c-.39.13-.91.32-1.49.57-1.22.53-2.7 1.34-3.67 2.36-1.25 1.3-2.74 2.52-3.46 5.01 1.6-.46 3.26-.81 4.95-1.03.92-1.49 2.45-2.1 3.21-2.44zm-3.62-5.53c-.89-.73-1.54-2-1.52-4.02.01-2.85 2.48-4.88 5.63-4.88 1.88-.01 3.59.59 4.6 1.89 1.79.16 3.56.37 5.32.64-.99-3.97-4.79-6.06-9.89-6.09-7.05.03-10.22 4.28-10.24 8.31.02 4.27 1.97 6.37 3.88 7.48l.21-.21c.96-1 2.21-1.76 3.35-2.32-.02-.01-.03-.02-.05-.03-.41-.19-.86-.42-1.29-.77zm80.87 276.44h-2.08v-42.84c-18.93 4.19-42.5 6.81-68.25 7.19v43.38c26.78-.39 51.22-3.25 70.33-7.73zm-185.66-57.97c5.07 3.31 12.24 6.39 21.04 9.07v-43.27c-9.28-2.78-16.92-6.02-22.43-9.59-3.15-2.05-5.66-4.26-7.37-6.62v38.75c-.02 3.82 2.89 7.84 8.76 11.66zm-5.58-13.58c3.95 3.95 10.69 7.67 19.55 10.92l-.3.8c-8.93-3.28-15.76-7.02-19.86-11.12l.61-.6zm-.6-4.24.6-.6c3.94 3.97 10.69 7.67 19.55 10.92l-.3.8c-8.92-3.28-15.75-7-19.85-11.12zm0-24.18.6-.6c3.95 3.95 10.69 7.67 19.55 10.91l-.29.8c-8.93-3.27-15.76-7.01-19.86-11.11zm0 4.83.6-.6c3.94 3.95 10.69 7.67 19.55 10.92l-.29.8c-8.93-3.28-15.76-7.01-19.86-11.12zm.6 4.24c3.94 3.96 10.69 7.66 19.55 10.91l-.29.8c-8.93-3.27-15.76-7-19.86-11.1l.6-.61zm0 4.84c3.95 3.96 10.69 7.67 19.55 10.92l-.29.8c-8.93-3.28-15.76-7.01-19.86-11.11l.6-.61zm-.6 5.44.6-.6c3.95 3.95 10.69 7.68 19.55 10.9l-.29.8c-8.93-3.25-15.76-7.01-19.86-11.1zm0 14.51.6-.6c3.95 3.95 10.69 7.69 19.55 10.92l-.29.8c-8.93-3.26-15.76-7.02-19.86-11.12zm41.01-48.86.02.02c.54.4 1.03.73 1.45 1v-91.31c.78-19.54 9.25-37.86 23.85-51.5 11.09-10.4 23.57-17.28 37.9-19.95-.33-.94-.54-2.02-.6-3.25-15.09 2.71-29.06 9.63-40.31 20.16-14.77 13.82-23.31 32.33-24.09 52.11v90.53c.26.66.83 1.4 1.78 2.19z"/>
  <path class="yellow" d="M128.41 204.39c5.14 3.35 12.43 6.47 21.39 9.18l17.27-15.12c-.49-.21-.97-.43-1.42-.65l-.19-.08c-.04-.02-.5-.23-1.28-.69-1.07-.6-2.01-1.23-2.8-1.9-1.31-1.04-2.02-2.15-2.34-3.1-.2-.55-.32-1.13-.34-1.74 0-.44.08-.85.18-1.24v-19.66c-11.99 2.92-21.79 6.5-28.58 10.46-7.12 4.15-10.72 8.63-10.68 12.85v.01c.01 3.84 2.92 7.85 8.79 11.68zm79.93-96.97.45 3.17c5.36 2.54 16.16 4.36 28.53 4.35 12.23.01 22.94-1.77 28.38-4.26l.45-3.17c-5.95 2.62-16.58 4.29-28.83 4.3-12.36-.02-23.07-1.71-28.98-4.39zm28.13-15.47V76.61c-5.53.03-10.72.42-15.24 1.07l1.31 13.38c4.2.55 8.93.87 13.93.89zm36.19-14.65c.85 2 1.11 2.29 1.15 3.06v.19c-.09.81-.51 1.53-1.17 2.06-.27.22-.61.44-1.02.56l-.25 1.77c.79-.06 1.54-.38 2.33-.99a4.722 4.722 0 0 0 1.83-3.73c0-.82-.24-1.69-1.43-3.82-.76-1.39-1.1-2.34-1.25-2.97l-1.29-.01v.12c-.01.61.24 1.78 1.1 3.76zm-52.53 6.59-.17-1.7c-3.04.59-7.1 1.84-10.06 3.21-.55.53-1.22.89-1.84 1.16l.12.83c.22.11.47.22.71.33l-.09-.17c2.2-1.15 7.23-2.9 11.33-3.66zm33.41 6.95 1.28-12.93c-4.82-.79-10.53-1.26-16.65-1.3v15.34c5.59-.03 10.83-.44 15.37-1.11zm-41.01-1.79c2.34.69 5.13 1.29 8.27 1.76l-.38-3.86c-3.17.55-5.86 1.27-7.89 2.1zm38.2 45.7 1.57-19.03c-4.27.56-9.05.88-14.12.91v18.85c4.47-.02 8.71-.29 12.55-.73z"/>
  <path class="yellow" d="M238.18 110.09c5.3-.03 10.29-.39 14.67-1.01l1.37-16.62c-4.73.72-10.19 1.14-16.04 1.19v16.44zm-18.29-17.68c-5.42-.86-9.87-2.11-12.79-3.64l-.15-.08-.11-.13-.28-.33-1.43-10.03h-.93l1.74 12.32c2.06 1.12 5 2.14 8.56 3.02l-.16.66c-3.35-.83-6.17-1.78-8.28-2.85l.26 1.83c2.04 1.03 4.79 1.97 8.11 2.77l-.16.66c-3.14-.76-5.78-1.64-7.83-2.61l.26 1.82c1.99.94 4.59 1.8 7.65 2.55l-.16.66c-2.88-.71-5.38-1.51-7.37-2.41l.26 1.82c1.92.86 4.35 1.66 7.2 2.34l-.16.66c-2.69-.65-5.02-1.4-6.93-2.22l.26 1.81c1.85.79 4.11 1.51 6.73 2.15l-.16.66c-2.48-.6-4.64-1.28-6.46-2.03l.26 1.81c1.76.71 3.87 1.38 6.28 1.97l-.16.66c-2.27-.56-4.29-1.18-6.01-1.85l.13.95c2.78 1.49 7.41 2.77 13.18 3.62l-1.35-16.56zm17.64-41.87c5.54-.02 9.04-3.51 9.04-7.44 0-1.61-.46-2.81-1.11-3.78h-4.7c.7.77 1.24 1.82 1.23 3.22 0 2.39-1.82 4.42-4.42 4.43-1.68.01-3.02-.81-3.76-2-1.58.23-3.12.59-4.6 1.08 1.3 2.67 4.42 4.48 8.32 4.49zm-.04-10.97c.11 0 .23-.01.34-.01v.01c.45.01.91.03 1.36.06-.19-.14-.39-.28-.59-.4l-1.21-.7-.02.01c-.57.24-1.32.57-1.95 1.11.47-.03.95-.06 1.42-.07v-.03c.21.01.43.01.65.02z"/>
  <path class="yellow" d="M237.24 42.98c.2 0 .4-.02.6-.02V43c.95.03 1.88.1 2.81.22a3.622 3.622 0 0 0-.12-1.87l-.01.09c-.88-.09-2-.15-3.01-.17-17.13.21-30.99 14.17-31.03 31.34 0 2.91.21 4.57.89 7.1l.02.05.01.03c.24.7.53 1.63.54 2.44-.01.19 0 .48-.15.77l.22 1.7c.53-.31.99-.69 1.11-1 .26-.54.36-1.2.36-1.84 0-1.13-.3-2.17-.44-2.58-.65-2.36-.86-3.96-.85-6.66 0-16.02 12.77-29.09 28.66-29.62v-.02c.12-.01.25 0 .39 0zm-15.62 49.68 1.35 16.58c4.09.52 8.67.83 13.5.85V93.66c-5.36-.04-10.4-.39-14.85-1zm44.75-20.04c.01 2.7-.19 4.3-.81 6.66l-.01.03-.02.05c-.13.33-.44 1.38-.44 2.5 0 .64.1 1.3.37 1.83.13.32.59.7 1.11 1.01l.22-1.69c-.16-.29-.15-.6-.16-.79.01-.8.29-1.72.52-2.41l.03-.09.02-.04c.67-2.52.88-4.17.88-7.06 0-13.38-8.44-24.8-20.25-29.3-.02.59-.1 1.17-.24 1.72 11 4.34 18.78 15.06 18.78 27.58z"/>
  <path class="yellow" d="M239.76 44.85c-.82-.09-1.65-.14-2.49-.16-.66.01-1.32.05-1.97.11.53.54 1.28.88 2.27.89.91-.01 1.66-.33 2.19-.84zm-3.29 90.63v-18.85c-4.61-.03-8.98-.3-12.95-.77l1.54 19c3.53.38 7.38.6 11.41.62zm-16.28-50.91c-3.79.7-8.47 2.31-10.72 3.41.63.26 1.31.51 2.05.76 2.19-1.01 5.21-1.85 8.84-2.47l-.17-1.7zm46.25 20.91.2-1.4c-2.23 1.03-5.23 1.92-8.79 2.63l-.13-.67c3.75-.75 6.86-1.69 9.04-2.77l.24-1.67c-2.25 1.05-5.29 1.96-8.92 2.69l-.14-.67c3.83-.76 6.98-1.73 9.18-2.83l.25-1.79c-2.25 1.03-5.24 1.92-8.8 2.63l-.13-.67c3.74-.74 6.85-1.69 9.05-2.76l.25-1.77c-2.28 1.1-5.41 2.04-9.16 2.79l-.13-.67c3.96-.79 7.2-1.8 9.41-2.95l.25-1.79c-2.31 1.18-5.57 2.2-9.53 2.99l-.13-.67c4.18-.82 7.57-1.92 9.79-3.15l.23-1.65c-2.32 1.21-5.61 2.25-9.64 3.04l-.13-.67c4.23-.83 7.64-1.93 9.87-3.19l.01.03 1.75-12.33h-.93l-1.42 10.06-.19.2-.23.24-.12.06c-2.66 1.41-6.63 2.57-11.45 3.42l-1.37 16.64c5.08-.83 9.21-2 11.82-3.35z"/>
  <path class="yellow" d="M255.29 90.56c4.72-.8 8.57-1.9 11.05-3.17l.12-.85c-.94-.41-1.98-1.03-2.53-2.1-.43-.87-.55-1.78-.55-2.59 0-.69.09-1.32.19-1.84-1.96-.69-4.35-1.3-7.07-1.81l-1.21 12.36zm-35.56-10.73c-3.29.62-6.49 1.55-8.58 2.48-.04.65-.16 1.34-.46 2 2.9-1.22 6.44-2.26 9.2-2.79l-.16-1.69zm-.19-1.89c-3.33.55-6.24 1.25-8.57 2.06.09.45.16.98.18 1.56 2.17-.93 5.28-1.82 8.5-2.42l-.11-1.2zm2.25 37.71c-5.17-.71-9.54-1.76-12.72-3.07l.26 1.85c1.98.82 4.5 1.55 7.44 2.15l-.14.67c-2.79-.58-5.21-1.26-7.19-2.04l.25 1.76c1.93.77 4.3 1.46 7.08 2.03l-.14.67c-2.64-.54-4.92-1.19-6.83-1.92l.25 1.79c1.86.71 4.1 1.35 6.71 1.89l-.14.67c-2.48-.5-4.64-1.11-6.47-1.78l.25 1.78c1.79.65 3.92 1.25 6.35 1.75l-.14.67c-2.31-.47-4.35-1.03-6.11-1.65l.25 1.79c1.71.6 3.72 1.15 5.99 1.61l-.14.67c-2.15-.44-4.07-.95-5.75-1.52l.25 1.78c1.64.55 3.53 1.06 5.63 1.49l-.14.67c-1.99-.41-3.8-.88-5.39-1.4l.25 1.78c1.56.51 3.31.97 5.27 1.37l-.14.67c-1.85-.38-3.52-.81-5.03-1.29l.26 1.86c3.04.98 6.96 1.79 11.46 2.35l-1.48-19.05zM201.9 82.6c-.64-.5-1.07-1.23-1.17-2.04-.01-.09-.01-.15-.01-.17.05-.78.29-1.05 1.16-3.08.87-1.99 1.12-3.16 1.11-3.77v-.12l-1.29.01c-.15.63-.5 1.59-1.28 2.98-1.19 2.13-1.41 2.99-1.41 3.82a4.739 4.739 0 0 0 1.83 3.72c.8.61 1.53.93 2.33.99l-.27-1.77c-.4-.12-.72-.35-1-.57zm23.7 58.88.95 11.65c3.12.41 6.45.69 9.92.72v-11.82c-3.82-.03-7.47-.22-10.87-.55zm12.58.55v11.82c3.89-.05 7.62-.38 11.07-.89l.96-11.6c-3.72.41-7.78.64-12.03.67zm-25.34-2.78.29 2.08c1.14.31 2.33.61 3.63.88l-.14.67a56.45 56.45 0 0 1-3.39-.82l.25 1.79c1.02.28 2.12.54 3.27.77l-.14.67c-1.06-.22-2.08-.46-3.03-.71l.25 1.78c.93.24 1.89.47 2.92.68l-.14.67c-.94-.19-1.82-.4-2.68-.62l.25 1.78c.82.21 1.67.41 2.57.6l-.14.67c-.81-.18-1.58-.35-2.32-.54l.14.97.07.21c2.96.75 6.45 1.53 10.31 2.11l-.95-11.6c-4.18-.47-7.92-1.17-11.02-2.04zm38.14 13.43c3.33-.55 6.39-1.23 9.01-1.89l.07-.21.2-1.41c-2.14.78-4.89 1.4-8.13 1.84l-.09-.68c3.39-.46 6.22-1.12 8.34-1.93l.26-1.85c-2.13.76-4.84 1.37-8.02 1.8l-.09-.68c3.32-.44 6.11-1.1 8.22-1.89l.24-1.71c-2.12.78-4.85 1.4-8.03 1.85l-.09-.68c3.33-.46 6.15-1.13 8.24-1.94l.24-1.7c-2.06.78-4.7 1.4-7.81 1.85l-.1-.68c3.26-.47 5.99-1.13 8.02-1.94l.22-1.53c-2.78.77-6.07 1.4-9.73 1.87l-.97 11.51zm1.49-18.15c3.95-.53 7.41-1.27 10.16-2.14l.24-1.66c-2.2.9-5.02 1.66-8.32 2.25l-.12-.67c3.46-.62 6.38-1.44 8.56-2.37l.25-1.78c-2.25.96-5.19 1.78-8.69 2.41l-.12-.67c3.66-.66 6.72-1.53 8.92-2.53l.25-1.79c-2.22.93-5.1 1.72-8.52 2.34l-.12-.67c3.58-.65 6.57-1.49 8.76-2.46l.25-1.77c-2.26.99-5.26 1.84-8.85 2.48l-.12-.67c3.76-.67 6.87-1.57 9.08-2.6l.25-1.76c-2.17 1.01-5.09 1.86-8.61 2.52l-.13-.67c3.71-.7 6.73-1.61 8.85-2.67l.25-1.74c-2.18 1.04-5.15 1.93-8.75 2.63l-.13-.67c3.8-.73 6.88-1.69 9-2.78l.25-1.76c-2.11 1.09-5.08 2-8.65 2.71l-.14-.67c3.71-.74 6.76-1.7 8.77-2.8l.1.17.29-2.07c-2.92 1.17-6.82 2.14-11.39 2.83l-1.57 19.03z"/>
  <path class="yellow" d="m212.13 134.2.45 3.2c5.92 1.78 14.83 2.93 24.74 2.93 9.86 0 18.67-1.14 24.59-2.89l.45-3.18c-6.17 1.82-15.09 2.94-25.04 2.94-10.04-.01-19.02-1.15-25.19-3zm99.86 223.16c-18.93 4.19-42.5 6.81-68.25 7.19v43.4c26.82-.38 51.3-3.26 70.41-7.74h-2.16v-42.85zm19.63-41.04v3.94c13.08-4.77 21.45-10.54 23.38-16.6v-2.7c-3.03 5.82-11.3 11.01-23.38 15.36zm0-96.74v3.94c13.08-4.77 21.45-10.55 23.38-16.61v-2.71c-3.03 5.84-11.3 11.04-23.38 15.38zm16.01 124.79c-6.2 4.03-15.01 7.59-25.85 10.58-2.31.64-4.74 1.24-7.23 1.83v43.34c13.73-3.25 24.67-7.33 31.68-11.92 5.88-3.82 8.79-7.85 8.77-11.68v-.59c-4.08 7.86-17.71 14.57-37.31 19.62l-.21-.83c21.11-5.36 34.97-12.89 37.52-20.91v-2.71c-4.08 7.87-17.71 14.57-37.31 19.59l-.21-.83c21.11-5.33 34.97-12.86 37.52-20.88v-2.72c-4.08 7.87-17.71 14.59-37.31 19.59l-.21-.83c21.11-5.31 34.97-12.85 37.52-20.88v-2.71c-4.08 7.87-17.71 14.58-37.31 19.59l-.21-.83c21.11-5.32 34.97-12.87 37.52-20.89v-2.71c-4.08 7.87-17.71 14.58-37.31 19.62l-.21-.83c21.11-5.34 34.97-12.89 37.52-20.91v-2.71c-4.08 7.87-17.71 14.58-37.31 19.59l-.21-.83c21.11-5.32 34.97-12.86 37.52-20.88v-2.73c-4.08 7.88-17.71 14.58-37.31 19.61l-.21-.83c21.11-5.34 34.97-12.87 37.52-20.9v-2.7c-4.08 7.86-17.71 14.56-37.31 19.59l-.21-.83c21.11-5.34 34.98-12.87 37.52-20.89v-2.18c-1.71 2.34-4.22 4.54-7.37 6.59z"/>
  <path class="yellow" d="M347.63 206.53c-4.2 2.73-9.59 5.24-16.01 7.51v4.65c13.08-4.76 21.45-10.54 23.38-16.61v-2.17c-1.71 2.36-4.22 4.57-7.37 6.62zm-16.01 138.81v3.82c5.89-2.13 10.83-4.46 14.61-6.94 5.88-3.82 8.79-7.85 8.76-11.68v-.59c-3.02 5.84-11.29 11.04-23.37 15.39zm0-96.73v3.94c13.08-4.76 21.45-10.54 23.38-16.6v-2.74c-3.03 5.84-11.3 11.05-23.38 15.4zm16.01 49.8c-4.2 2.73-9.59 5.24-16.01 7.51v4.67c13.08-4.77 21.45-10.55 23.38-16.61v-2.18c-1.71 2.35-4.22 4.56-7.37 6.61zm-16.01-69.15v3.94c13.08-4.77 21.45-10.54 23.38-16.61v-2.71c-3.03 5.84-11.3 11.03-23.38 15.38z"/>
  <path class="yellow" d="M331.62 234.09v3.94c13.08-4.77 21.45-10.54 23.38-16.62v-2.71c-3.03 5.85-11.3 11.05-23.38 15.39zm0-9.67v3.94c13.08-4.77 21.45-10.55 23.38-16.61v-2.71c-3.03 5.84-11.3 11.04-23.38 15.38z"/>
  <path class="yellow" d="M331.62 238.93v3.94c13.08-4.77 21.45-10.55 23.38-16.61v-2.71c-3.03 5.84-11.3 11.04-23.38 15.38z"/>
  <path class="yellow" d="M331.62 243.77v3.95c13.08-4.77 21.45-10.56 23.38-16.62v-2.71c-3.03 5.83-11.3 11.03-23.38 15.38zm0 96.74v3.94c13.08-4.77 21.45-10.56 23.37-16.62v-2.7c-3.02 5.84-11.29 11.03-23.37 15.38zm0-14.51v3.94c13.08-4.77 21.45-10.54 23.38-16.61v-2.73c-3.03 5.84-11.3 11.05-23.38 15.4z"/>
  <path class="yellow" d="M331.62 321.15v3.95c13.08-4.77 21.45-10.56 23.38-16.62v-2.7c-3.03 5.84-11.3 11.03-23.38 15.37zm0 14.52v3.94c13.08-4.77 21.45-10.54 23.38-16.61v-2.73c-3.03 5.84-11.3 11.05-23.38 15.4z"/>
  <path class="yellow" d="M331.62 330.83v3.94c13.08-4.77 21.45-10.56 23.38-16.62v-2.7c-3.03 5.84-11.3 11.03-23.38 15.38zm16.01-78.36c-6.2 4.03-15.01 7.59-25.85 10.58-2.31.64-4.74 1.24-7.23 1.83v43.31c13.73-3.25 24.67-7.33 31.68-11.92 5.88-3.83 8.79-7.85 8.76-11.68v-.57c-4.08 7.87-17.71 14.58-37.32 19.58l-.21-.83c21.11-5.31 34.98-12.85 37.53-20.88v-2.71c-4.08 7.86-17.71 14.56-37.31 19.61l-.21-.83c21.11-5.35 34.98-12.89 37.53-20.9v-2.72c-4.08 7.87-17.71 14.59-37.32 19.6l-.21-.83c21.11-5.32 34.98-12.86 37.53-20.89v-2.72c-4.08 7.88-17.71 14.59-37.32 19.62l-.21-.83c21.11-5.33 34.98-12.88 37.53-20.92v-2.7c-4.08 7.88-17.71 14.58-37.32 19.59l-.21-.83c21.11-5.32 34.98-12.85 37.53-20.89v-2.7c-4.08 7.88-17.71 14.58-37.32 19.6l-.21-.83c21.11-5.33 34.98-12.87 37.53-20.9v-2.72c-4.08 7.87-17.71 14.57-37.32 19.59l-.21-.83c21.11-5.33 34.98-12.87 37.53-20.89v-2.71c-4.08 7.87-17.71 14.58-37.32 19.59l-.21-.83c21.11-5.32 34.98-12.86 37.53-20.88v-2.17c-1.71 2.36-4.22 4.56-7.37 6.61zm-16.01 59.01v3.94c13.08-4.76 21.45-10.54 23.38-16.6v-2.73c-3.03 5.85-11.3 11.05-23.38 15.39z"/>
  <path class="yellow" d="M331.62 253.44v3.82c5.89-2.13 10.83-4.46 14.61-6.94 5.88-3.82 8.79-7.85 8.76-11.68v-.57c-3.02 5.84-11.29 11.03-23.37 15.37zm74.56-189.18c-.24-.7-.83-1.23-1.54-1.4l-19.19-4.57-9.84-19.11a2.155 2.155 0 0 0-1.92-1.17c-.81 0-1.55.45-1.93 1.17l-9.83 19.11-19.19 4.57c-.72.17-1.3.71-1.54 1.4-.24.7-.1 1.48.36 2.05l13.25 16.54-2.09 22.13c-.07.78.28 1.54.93 1.99.37.25.79.38 1.23.38.33 0 .66-.07.96-.23l17.85-8.92h.02l17.85 8.92c.3.15.64.23.96.23.43 0 .86-.13 1.23-.38.65-.44 1-1.2.93-1.99l-2.09-22.13 13.25-16.54c.44-.57.57-1.35.34-2.05z"/>
  <path class="blue" d="m390.43 82.07 13.7-17.11-20.16-4.8-10.29-20-10.29 20-20.16 4.8 13.71 17.11.09.12-2.17 23 18.82-9.4 18.83 9.4-2.18-23z"/>
  <path class="yellow" d="m388.63 80.85.09-.12.01-.01 11.57-14.45-16.84-4.01a2.18 2.18 0 0 1-1.42-1.11l-8.37-16.25-8.37 16.25c-.29.56-.81.97-1.42 1.11l-16.84 4.01 11.57 14.45.01.01.09.12c.34.43.51.99.46 1.54l-1.81 19.12 15.34-7.66c.3-.15.64-.23.97-.23.33 0 .66.08.97.23l15.34 7.66-1.81-19.12c-.04-.55.12-1.1.46-1.54zM68.47 64.26c.24-.7.83-1.23 1.54-1.4l19.19-4.57 9.83-19.11c.37-.72 1.11-1.17 1.92-1.17.81 0 1.55.45 1.93 1.17l9.83 19.11 19.19 4.57c.72.17 1.3.71 1.54 1.4.24.7.1 1.48-.36 2.05l-13.25 16.54 2.09 22.13c.07.78-.28 1.54-.93 1.99-.37.25-.79.38-1.22.38-.33 0-.66-.07-.97-.23l-17.85-8.92h-.01l-17.85 8.92a2.146 2.146 0 0 1-2.19-.15c-.65-.44-1-1.2-.93-1.99l2.09-22.13-13.23-16.54c-.46-.57-.6-1.35-.36-2.05z"/>
  <path class="blue" d="m84.22 82.07-13.7-17.11 20.15-4.8 10.29-20h.01l10.28 20 20.16 4.8-13.7 17.11-.1.12 2.18 23-18.82-9.4h-.01l-18.82 9.4 2.17-23z"/>
  <path class="yellow" d="m86.01 80.85-.09-.12-.01-.01-11.58-14.45 16.84-4.01c.62-.15 1.13-.55 1.42-1.11l8.37-16.25 8.37 16.25c.29.56.8.97 1.42 1.11l16.84 4.01-11.57 14.45-.01.01-.09.12c-.34.43-.51.99-.45 1.54l1.81 19.12-15.34-7.66c-.3-.15-.64-.23-.97-.23-.33 0-.66.08-.97.23l-15.34 7.66 1.81-19.12c.05-.55-.12-1.1-.46-1.54z"/>
</svg>