<svg xmlns:dc="http://purl.org/dc/elements/1.1/" xmlns:cc="http://creativecommons.org/ns#" xmlns:rdf="http://www.w3.org/1999/02/22-rdf-syntax-ns#" xmlns:svg="http://www.w3.org/2000/svg" xmlns="http://www.w3.org/2000/svg" xmlns:sodipodi="http://sodipodi.sourceforge.net/DTD/sodipodi-0.dtd" xmlns:inkscape="http://www.inkscape.org/namespaces/inkscape" width="568" height="568" viewBox="0 0 568 568.00001" id="svg3716" version="1.1" inkscape:version="0.91 r13725" sodipodi:docname="bsc young boys.svg">
  <defs id="defs3718">
    <inkscape:perspective id="perspective67" inkscape:persp3d-origin="297.63849 : 198.42434 : 1" inkscape:vp_z="595.27697 : 297.63651 : 1" inkscape:vp_y="0 : 999.99999 : 0" inkscape:vp_x="0 : 297.63651 : 1" sodipodi:type="inkscape:persp3d"/>
    <marker orient="auto" markerHeight="3" markerWidth="4" markerUnits="strokeWidth" refY="5" refX="0" viewBox="0 0 10 10" id="ArrowEnd">
      <path id="path7" d="M 0,0 10,5 0,10 Z" inkscape:connector-curvature="0"/>
    </marker>
    <marker orient="auto" markerHeight="3" markerWidth="4" markerUnits="strokeWidth" refY="5" refX="10" viewBox="0 0 10 10" id="ArrowStart">
      <path id="path10" d="M 10,0 0,5 10,10 Z" inkscape:connector-curvature="0"/>
    </marker>
  </defs>
  <sodipodi:namedview id="base" pagecolor="#ffffff" bordercolor="#666666" borderopacity="1.0" inkscape:pageopacity="0.0" inkscape:pageshadow="2" inkscape:zoom="0.35" inkscape:cx="1377.0365" inkscape:cy="712.03643" inkscape:document-units="px" inkscape:current-layer="layer1" showgrid="false" fit-margin-top="0" fit-margin-left="0" fit-margin-right="0" fit-margin-bottom="0" units="px" inkscape:window-width="1280" inkscape:window-height="744" inkscape:window-x="-4" inkscape:window-y="-4" inkscape:window-maximized="1"/>
  <metadata id="metadata3721">
    <rdf:RDF>
      <cc:Work rdf:about="">
        <dc:format>image/svg+xml</dc:format>
        <dc:type rdf:resource="http://purl.org/dc/dcmitype/StillImage"/>
        <dc:title/>
      </cc:Work>
    </rdf:RDF>
  </metadata>
  <g inkscape:label="Layer 1" inkscape:groupmode="layer" id="layer1" transform="translate(1354.8936,-676.39861)">
    <g id="g12" transform="translate(-1368.5306,662.76161)">
      <g id="g2493">
        <g id="g2466">
          <g id="g2440">
            <path style="fill:#f9cc11;fill-rule:evenodd;stroke:none" d="m 297.637,16.586 c 155.195,0 281.054,125.855 281.054,281.051 0,155.195 -125.859,281.05 -281.054,281.05 -155.196,0 -281.0511,-125.855 -281.0511,-281.05 0,-155.196 125.8551,-281.051 281.0511,-281.051" id="path16" inkscape:connector-curvature="0"/>
            <path style="fill:#000000;fill-rule:evenodd;stroke:none" d="m 297.641,14.172 c 156.523,0 283.461,126.937 283.461,283.465 0,156.527 -126.938,283.465 -283.461,283.465 -156.532,0 -283.4691,-126.938 -283.4691,-283.465 0,-156.528 126.9371,-283.465 283.4691,-283.465 z m 0,3.211 c 154.75,0 280.25,125.5 280.25,280.254 0,154.754 -125.5,280.254 -280.25,280.254 -154.758,0 -280.2582,-125.5 -280.2582,-280.254 0,-154.754 125.5002,-280.254 280.2582,-280.254" id="path18" inkscape:connector-curvature="0"/>
            <path style="fill:#000000;fill-rule:evenodd;stroke:none" d="m 297.637,84.84 c 117.504,0 212.797,95.293 212.797,212.797 0,117.504 -95.293,212.797 -212.797,212.797 -117.504,0 -212.7972,-95.293 -212.7972,-212.797 0,-117.504 95.2932,-212.797 212.7972,-212.797" id="path20" inkscape:connector-curvature="0"/>
            <path style="fill:#ffffff;fill-rule:evenodd;stroke:none" d="m 374.887,310.125 0,48.262 3.84,0 c 2.828,0 3.132,-1.016 3.132,-2.516 l 0,-42.953 c 0,-1.984 -0.558,-2.797 -3.101,-2.797 l -3.871,0 0,0.004 z m -106.789,81.973 -89.215,-0.172 -32.106,-32.969 0,-22.543 25.086,0 0,-50.309 -63.144,-57.375 -18.9065,0.047 -27.582,-28.57 0,-22.535 142.3355,0 28.911,31.398 0.074,20.426 -9.153,-0.043 14.86,13.441 47.836,-34.589 -8.34,-8.008 0,-22.625 87.16,0 29.781,20.156 0.071,32.492 -32.395,0.02 -38.738,27.984 69.086,0 c 43.117,0 94.015,29.305 93.918,78.703 -0.051,25.184 -9.367,42.293 -28.977,55.586 19.016,12.805 30.41,31.422 30.344,56.469 -0.063,22.746 -10.156,41.871 -26.574,54.344 -11.598,8.816 -26.516,14.629 -42.575,14.629 l -142.003,0 -31.75,-32.985 0,-24.605 21.996,0 0,-68.367 z m 106.468,19.414 0.036,48.953 4.117,0 c 1.754,0 2.793,-0.809 2.793,-3.164 l 0.004,-41.297 c -0.071,-3.805 -0.715,-4.32 -3.172,-4.492 l -3.778,0" id="path22" inkscape:connector-curvature="0"/>
            <path style="fill:#000000;fill-rule:evenodd;stroke:none" d="m 370.871,306.109 0,56.293 7.953,0 c 4.629,0 7.051,-1.617 7.051,-6.39 l 0,-43.207 c 0,-5.102 -2.016,-6.696 -7.027,-6.696 l -7.977,0 z m -98.758,81.981 -91.535,-0.176 -29.785,-30.59 0,-16.894 25.09,0 0,-56.102 -65.613,-59.617 -18.7544,0.047 -25.2695,-26.172 0,-16.899 136.5629,0 26.656,28.957 0.055,14.821 -15.598,-0.074 25.055,22.664 54.367,-39.317 -10.574,-10.152 0,-16.899 81.914,0 27.004,18.278 0.054,26.34 -29.672,0.019 -49.851,36.016 81.461,0.004 c 37.707,0 90.062,25.597 89.941,74.711 -0.074,30.636 -14.351,43.828 -31.687,55.308 5.246,5.692 32.867,17.012 33.054,56.731 0.192,39.773 -33.238,64.945 -65.179,64.945 l -140.247,0 -29.445,-30.586 0,-18.973 21.996,0 0,-76.39 z m 98.414,19.406 0,56.981 8.305,0 c 5.035,0 6.695,-2.071 6.695,-7.094 l 0.004,-41.504 c 0,-4.973 -1.679,-8.383 -7.015,-8.383 l -7.989,0" id="path24" inkscape:connector-curvature="0"/>
            <path style="fill:#f9cc11;fill-rule:evenodd;stroke:none" d="m 342.801,279.07 0,84.938 36.086,0 c 7,0 8.593,-4.051 8.593,-7.953 l 0,-68.739 c 0,-6.382 -3.246,-8.25 -8.593,-8.25 l -36.086,0 0,0.004 z m 0,100.7 0,86.316 36.086,0 c 5.785,0 8.593,-2.863 8.593,-8.652 l 0,-67.696 c 0,-6.457 -2.828,-9.968 -8.589,-9.968 l -36.09,0 z m -69.082,86.316 0,-187.016 -16.496,0 0,-15.125 136.441,0.004 c 36.336,0 63.805,20.41 64.961,58.528 0.598,19.707 -10.898,40.253 -28.547,51.269 16.852,11.25 29.367,22.324 29.246,51.613 -0.144,35.61 -32.504,56.485 -57.066,56.485 l -150.535,0 0,-15.758 21.996,0" id="path26" inkscape:connector-curvature="0"/>
            <path style="fill:#f9cc11;fill-rule:evenodd;stroke:none" d="m 244.848,264.766 0,77.269 15.808,0 0,13.684 -108.258,0 0,-13.684 25.086,0 0,-61.316 -76.898,-69.559 -15.6758,-14.18 -17.0625,0 0,-13.683 133.3513,0 0,13.683 -21.082,0 58.746,53.141 73.282,-53.141 -27.774,0 0,-13.683 78.703,0 0,13.683 -24.746,0 -93.48,67.79" id="path28" inkscape:connector-curvature="0"/>
            <path style="fill:#f9cc11;fill-rule:evenodd;stroke:none" d="m 297.637,101.793 7.047,21.699 22.82,0 -18.465,13.41 7.055,21.7 -18.461,-13.411 -18.457,13.411 7.051,-21.7 -18.461,-13.41 22.816,0 7.051,-21.699" id="path30" inkscape:connector-curvature="0"/>
            <path style="fill:#000000;fill-rule:evenodd;stroke:none" d="m 254.77,558.969 -5.586,-0.961 3.632,-21.242 c -2.363,1.519 -4.914,2.222 -8.015,2.187 l 0.855,-4.965 c 4.133,-0.125 8.395,-2.504 9.508,-4.457 l 4.535,0.781 -4.929,28.661" id="path32" inkscape:connector-curvature="0"/>
            <path style="fill:#000000;fill-rule:evenodd;stroke:none" d="m 298.395,555.367 5.793,-0.613 c 0.414,2.019 3.058,3.094 5.757,2.769 5.45,-0.652 5.817,-4.73 5.965,-8.367 -1.738,1.696 -4.773,2.602 -7.488,2.711 -2.957,0.121 -5.559,-0.652 -7.781,-2.316 -2.223,-1.672 -3.407,-3.91 -3.532,-6.727 -0.132,-2.933 0.899,-5.347 3.086,-7.238 2.18,-1.887 4.493,-2.906 7.996,-3.055 9.348,-0.383 12.809,5.828 13.188,14.242 0.402,8.938 -2.301,14.954 -12.039,15.356 -4.981,0.203 -9.574,-2.449 -10.945,-6.762 z m 16.671,-12.973 c -0.164,-3.648 -2.949,-5.386 -6.464,-5.246 -3.493,0.141 -5.735,2.129 -5.571,5.383 0.164,3.258 2.75,5.363 6.434,5.219 3.223,-0.129 5.75,-1.965 5.601,-5.356" id="path34" inkscape:connector-curvature="0"/>
            <path style="fill:#000000;fill-rule:evenodd;stroke:none" d="m 273.879,545.652 c -1.836,-0.625 -3.168,-1.472 -3.992,-2.543 -0.828,-1.066 -1.235,-2.234 -1.227,-3.496 0.016,-2.156 0.988,-3.929 2.934,-5.32 1.949,-1.391 4.703,-2.07 8.261,-2.031 3.528,0.035 6.258,0.773 8.192,2.203 1.945,1.426 2.906,3.222 2.891,5.379 -0.008,1.343 -0.469,2.531 -1.376,3.574 -0.898,1.035 -2.164,1.824 -3.785,2.359 2.051,0.66 3.61,1.621 4.672,2.871 1.063,1.246 1.586,2.68 1.574,4.297 -0.019,2.676 -1.125,4.836 -3.32,6.485 -2.199,1.648 -5.109,2.453 -8.738,2.418 -3.379,-0.036 -6.184,-0.754 -8.418,-2.157 -2.645,-1.668 -3.949,-3.918 -3.93,-6.761 0.016,-1.563 0.524,-2.996 1.528,-4.297 1.003,-1.297 2.585,-2.293 4.734,-2.981 z m 0.262,-5.929 c -0.028,2.964 3.246,3.886 5.629,3.914 2.367,0.031 5.527,-0.879 5.546,-3.754 0.024,-2.781 -3.156,-3.633 -5.425,-3.66 -2.289,-0.028 -5.731,0.699 -5.754,3.5 l 0.004,0 z m -1.106,12.921 c -0.027,3.793 3.555,4.879 6.832,4.918 3.184,0.036 6.438,-1.351 6.465,-4.835 0.027,-3.364 -3.586,-4.614 -6.5,-4.649 -2.883,-0.031 -6.77,1.164 -6.797,4.566" id="path36" inkscape:connector-curvature="0"/>
            <path style="fill:#000000;fill-rule:evenodd;stroke:none" d="m 333.781,542.973 c -1.918,-0.297 -3.375,-0.903 -4.371,-1.809 -1.004,-0.902 -1.609,-1.984 -1.82,-3.227 -0.36,-2.125 0.285,-4.046 1.961,-5.753 1.676,-1.707 4.265,-2.856 7.777,-3.442 3.481,-0.578 6.301,-0.332 8.453,0.738 2.164,1.067 3.426,2.668 3.785,4.793 0.227,1.325 -0.019,2.575 -0.73,3.758 -0.703,1.176 -1.813,2.176 -3.316,2.985 2.136,0.293 3.835,0.964 5.101,2.011 1.266,1.043 2.031,2.364 2.305,3.957 0.445,2.637 -0.266,4.957 -2.145,6.965 -1.875,2.004 -4.597,3.309 -8.179,3.903 -3.336,0.554 -6.219,0.339 -8.664,-0.653 -2.895,-1.179 -4.575,-3.168 -5.047,-5.969 -0.262,-1.543 -0.008,-3.043 0.754,-4.5 0.757,-1.453 2.14,-2.707 4.136,-3.757 z m -0.777,-5.887 c 0.492,2.922 3.875,3.262 6.226,2.875 2.336,-0.387 5.29,-1.836 4.809,-4.664 -0.461,-2.746 -3.742,-3.031 -5.984,-2.66 -2.258,0.371 -5.516,1.691 -5.051,4.449 z m 1.168,12.918 c 0.633,3.738 4.351,4.183 7.586,3.648 3.14,-0.519 6.105,-2.453 5.523,-5.89 -0.562,-3.317 -4.34,-3.914 -7.215,-3.442 -2.839,0.473 -6.461,2.328 -5.894,5.684" id="path38" inkscape:connector-curvature="0"/>
            <path style="fill:#000000;fill-rule:evenodd;stroke:none" d="m 93.0781,138.074 -5.7343,6.93 4.8203,3.992 5.7343,-6.926 c 1.293,-1.558 2,-2.777 2.1216,-3.66 0.125,-0.875 -0.2505,-1.676 -1.1255,-2.398 -0.8633,-0.715 -1.7461,-0.918 -2.6484,-0.606 -0.8984,0.317 -1.9492,1.203 -3.168,2.672 l 0,-0.004 z m 8.4489,18.68 6.457,-7.797 c 1.313,-1.582 2.012,-2.813 2.106,-3.703 0.09,-0.879 -0.336,-1.715 -1.289,-2.5 -0.949,-0.789 -1.899,-1.039 -2.844,-0.758 -0.941,0.285 -2.016,1.152 -3.223,2.609 l -6.4567,7.797 5.2497,4.352 z m -0.195,9.73 -23.3906,-19.375 12.5234,-15.121 c 2.1719,-2.625 4.2891,-4.191 6.3555,-4.691 2.0625,-0.504 4.0667,0.043 6.0037,1.648 1.141,0.946 1.918,2.047 2.348,3.301 0.422,1.262 0.465,2.637 0.14,4.121 1.551,-0.988 3.098,-1.43 4.641,-1.305 1.547,0.125 3.043,0.79 4.5,1.997 2.074,1.718 3.152,3.746 3.215,6.078 0.07,2.332 -0.879,4.687 -2.844,7.054 l -13.496,16.293" id="path40" inkscape:connector-curvature="0"/>
            <path style="fill:#000000;fill-rule:evenodd;stroke:none" d="m 118.555,131.043 5.687,-5.305 0.199,0.207 c 1.164,1.254 2.602,1.696 4.317,1.325 1.715,-0.372 3.625,-1.54 5.726,-3.5 1.621,-1.512 2.653,-2.915 3.09,-4.215 0.438,-1.297 0.25,-2.379 -0.562,-3.25 -0.684,-0.735 -1.473,-1.004 -2.367,-0.813 -0.899,0.188 -2.305,1.008 -4.227,2.465 l -4.309,3.293 c -3.171,2.387 -5.898,3.707 -8.199,3.965 -2.301,0.254 -4.305,-0.539 -6.027,-2.387 -2.031,-2.176 -2.711,-4.867 -2.035,-8.07 0.683,-3.196 2.629,-6.293 5.855,-9.301 3.465,-3.234 6.774,-5.113 9.938,-5.645 3.164,-0.535 5.785,0.317 7.879,2.559 l 0.168,0.18 -5.528,5.156 c -1.164,-0.992 -2.457,-1.344 -3.875,-1.043 -1.418,0.297 -2.973,1.23 -4.668,2.805 -1.562,1.461 -2.566,2.808 -3.012,4.058 -0.445,1.25 -0.289,2.282 0.469,3.09 0.606,0.649 1.297,0.891 2.086,0.719 0.789,-0.172 2.27,-1.07 4.457,-2.703 l 4.535,-3.41 c 3.137,-2.344 5.86,-3.606 8.184,-3.797 2.324,-0.192 4.379,0.679 6.172,2.601 2.304,2.469 3.054,5.289 2.25,8.446 -0.809,3.16 -3.149,6.539 -7.016,10.144 -3.68,3.434 -7.144,5.399 -10.387,5.903 -3.246,0.496 -6.035,-0.508 -8.367,-3.012 l -0.433,-0.465" id="path42" inkscape:connector-curvature="0"/>
            <path style="fill:#000000;fill-rule:evenodd;stroke:none" d="m 176.637,85.727 c 1.843,3.355 2.129,6.878 0.843,10.57 -1.285,3.6869 -3.941,6.945 -7.968,9.762 -4.539,3.179 -8.996,4.531 -13.364,4.05 -4.363,-0.476 -7.933,-2.707 -10.722,-6.683 -2.785,-3.9811 -3.664,-8.1061 -2.625,-12.379 1.039,-4.27 3.832,-7.996 8.375,-11.176 3.965,-2.777 7.879,-4.184 11.722,-4.2151 3.852,-0.0269 6.95,1.297 9.313,3.9731 l -6.801,4.758 c -1.476,-1.2311 -3.113,-1.797 -4.91,-1.696 -1.793,0.102 -3.703,0.868 -5.75,2.297 -2.484,1.742 -3.957,3.8319 -4.402,6.266 -0.442,2.433 0.203,4.883 1.941,7.3629 1.723,2.4651 3.805,3.9061 6.231,4.3201 2.429,0.415 4.894,-0.257 7.398,-2.011 2.164,-1.516 3.586,-3.188 4.273,-5.0201 0.68,-1.828 0.555,-3.633 -0.382,-5.3979 l 6.828,-4.781" id="path44" inkscape:connector-curvature="0"/>
            <path style="fill:#000000;fill-rule:evenodd;stroke:none" d="m 212.332,84.0229 -3.82,-12.3819 -17.813,-12.731 9.242,-2.851 10.446,8.152 3.965,-12.598 9.203,-2.836 -7.785,20.6209 3.824,12.3871 -7.262,2.2379" id="path46" inkscape:connector-curvature="0"/>
            <path style="fill:#000000;fill-rule:evenodd;stroke:none" d="m 247.18,68.391 c 2.965,-0.6881 5.101,-2.067 6.41,-4.145 1.312,-2.078 1.633,-4.5901 0.957,-7.519 -0.684,-2.961 -2.074,-5.09 -4.164,-6.387 -2.094,-1.293 -4.617,-1.594 -7.578,-0.91 -2.957,0.6789 -5.106,2.066 -6.43,4.16 -1.32,2.09 -1.641,4.601 -0.961,7.551 0.68,2.9289 2.066,5.05 4.16,6.3429 2.102,1.2931 4.637,1.5901 7.606,0.9071 z m -19.926,-5.3681 c -1.094,-4.7299 -0.363,-8.8859 2.199,-12.4569 2.567,-3.57 6.543,-5.976 11.945,-7.222 5.403,-1.25 10.032,-0.828 13.887,1.258 3.856,2.089 6.328,5.503 7.422,10.238 1.094,4.734 0.367,8.879 -2.187,12.437 -2.551,3.563 -6.528,5.969 -11.93,7.2149 -5.402,1.25 -10.031,0.828 -13.902,-1.25 -3.868,-2.078 -6.344,-5.4839 -7.438,-10.219" id="path48" inkscape:connector-curvature="0"/>
            <path style="fill:#000000;fill-rule:evenodd;stroke:none" d="m 273.414,39.508 1.137,16.289 c 0.211,2.9759 0.992,5.1009 2.344,6.363 1.347,1.262 3.406,1.801 6.183,1.606 1.477,-0.106 2.746,-0.403 3.809,-0.895 1.062,-0.492 1.898,-1.172 2.515,-2.0431 0.489,-0.6759 0.813,-1.4339 0.985,-2.2729 0.164,-0.8521 0.187,-2.137 0.066,-3.871 l -1.141,-16.2861 7.54,-0.5269 1.195,17.0819 c 0.32,4.5981 -0.75,8.1681 -3.207,10.7231 -2.457,2.562 -6.227,4.0189 -11.324,4.375 -5.082,0.3549 -9.012,-0.563 -11.801,-2.758 -2.789,-2.188 -4.348,-5.578 -4.668,-10.172 l -1.195,-17.0821 7.558,-0.5269" id="path50" inkscape:connector-curvature="0"/>
            <path style="fill:#000000;fill-rule:evenodd;stroke:none" d="m 301.152,67.93 2.118,-30.297 9.32,0.6479 13.644,22.4301 1.496,-21.371 7.293,0.512 -2.117,30.3 -9.218,-0.644 -13.778,-22.645 -1.508,21.574 -7.25,-0.507" id="path52" inkscape:connector-curvature="0"/>
            <path style="fill:#000000;fill-rule:evenodd;stroke:none" d="m 350.902,75.816 c -2.281,-0.5271 -4.367,-1.347 -6.261,-2.461 -1.895,-1.105 -3.461,-2.425 -4.692,-3.945 -1.519,-1.898 -2.511,-3.9261 -2.969,-6.0901 -0.464,-2.164 -0.402,-4.5229 0.188,-7.0699 1.094,-4.734 3.57,-8.145 7.441,-10.23 3.868,-2.086 8.504,-2.504 13.911,-1.258 4.554,1.05 8.125,2.949 10.695,5.675 2.574,2.743 3.703,5.801 3.383,9.1799 l -8.067,-1.8629 c -0.301,-1.813 -1.062,-3.281 -2.293,-4.43 -1.23,-1.144 -2.945,-1.972 -5.133,-2.48 -2.957,-0.684 -5.496,-0.375 -7.597,0.922 -2.106,1.3 -3.496,3.418 -4.176,6.367 -0.68,2.929 -0.359,5.4449 0.957,7.5229 1.32,2.0821 3.469,3.4651 6.441,4.1491 2.028,0.465 5.961,0.8979 10.106,0.5619 l 0.777,-3.2619 -9.929,-2.265 1.363,-5.903 16.723,3.903 -3.223,12.722 c -2.246,0.629 -4.883,0.993 -7.801,1.118 -3.305,0.144 -6.93,-0.192 -9.844,-0.864" id="path54" inkscape:connector-curvature="0"/>
            <path style="fill:#000000;fill-rule:evenodd;stroke:none" d="M 411.082,70.809 403,66.8669 l -2.742,5.625 8.082,3.9451 c 1.82,0.887 3.168,1.29 4.055,1.2 0.878,-0.09 1.566,-0.641 2.066,-1.66 0.488,-1.012 0.48,-1.915 -0.035,-2.715 -0.52,-0.801 -1.629,-1.618 -3.344,-2.453 z m -16.156,12.617 9.097,4.437 c 1.844,0.899 3.207,1.289 4.09,1.1679 0.879,-0.117 1.59,-0.7299 2.133,-1.8399 0.539,-1.105 0.559,-2.089 0.063,-2.941 -0.5,-0.848 -1.594,-1.688 -3.297,-2.52 l -9.098,-4.433 -2.988,6.129 z m -9.504,2.101 13.312,-27.3 17.649,8.609 c 3.062,1.4919 5.086,3.18 6.058,5.0699 0.977,1.8871 0.914,3.961 -0.187,6.2231 -0.649,1.332 -1.535,2.348 -2.652,3.058 -1.125,0.707 -2.454,1.075 -3.977,1.114 1.332,1.2689 2.121,2.672 2.363,4.199 0.246,1.5309 -0.047,3.141 -0.879,4.844 -1.179,2.422 -2.898,3.9449 -5.144,4.5539 -2.254,0.6181 -4.766,0.2541 -7.531,-1.0969 l -19.012,-9.274" id="path56" inkscape:connector-curvature="0"/>
            <path style="fill:#000000;fill-rule:evenodd;stroke:none" d="m 434.562,106.703 c 2.493,1.746 4.946,2.41 7.368,1.992 2.422,-0.414 4.504,-1.859 6.23,-4.324 1.738,-2.484 2.395,-4.945 1.957,-7.363 -0.437,-2.422 -1.902,-4.496 -4.394,-6.242 -2.485,-1.7431 -4.953,-2.411 -7.391,-1.9931 -2.437,0.4141 -4.52,1.8561 -6.258,4.336 -1.722,2.4651 -2.371,4.914 -1.926,7.3361 0.442,2.426 1.918,4.512 4.414,6.258 z m -9.347,-18.394 c 2.785,-3.9811 6.359,-6.219 10.73,-6.704 4.367,-0.48 8.821,0.864 13.36,4.0429 4.543,3.18 7.328,6.9031 8.355,11.1641 1.031,4.262 0.149,8.387 -2.64,12.368 -2.786,3.976 -6.356,6.211 -10.708,6.699 -4.351,0.484 -8.804,-0.859 -13.343,-4.039 -4.543,-3.18 -7.328,-6.903 -8.371,-11.168 -1.047,-4.2661 -0.168,-8.387 2.617,-12.363" id="path58" inkscape:connector-curvature="0"/>
            <path style="fill:#000000;fill-rule:evenodd;stroke:none" d="m 453.824,128.695 8.84,-9.48 2.172,-21.785 7.074,6.597 -1.867,13.114 12.895,-2.832 7.046,6.57 -21.761,3.515 -8.84,9.481 -5.555,-5.184" id="path60" inkscape:connector-curvature="0"/>
            <path style="fill:#000000;fill-rule:evenodd;stroke:none" d="m 479.688,136.535 4.894,6.047 -0.223,0.18 c -1.328,1.078 -1.871,2.48 -1.617,4.215 0.25,1.738 1.281,3.722 3.09,5.957 1.395,1.722 2.723,2.847 3.988,3.375 1.266,0.527 2.356,0.418 3.282,-0.332 0.781,-0.629 1.105,-1.403 0.976,-2.305 -0.125,-0.91 -0.848,-2.371 -2.168,-4.391 l -2.98,-4.527 c -2.16,-3.328 -3.285,-6.145 -3.383,-8.457 -0.098,-2.313 0.836,-4.258 2.797,-5.848 2.316,-1.875 5.051,-2.363 8.195,-1.465 3.137,0.907 6.098,3.063 8.871,6.493 2.981,3.679 4.625,7.113 4.938,10.304 0.312,3.192 -0.719,5.75 -3.106,7.684 l -0.187,0.152 -4.758,-5.871 c 1.074,-1.094 1.508,-2.359 1.312,-3.797 -0.199,-1.433 -1.023,-3.051 -2.476,-4.847 -1.348,-1.661 -2.621,-2.758 -3.836,-3.29 -1.215,-0.531 -2.254,-0.445 -3.117,0.25 -0.692,0.559 -0.977,1.235 -0.86,2.032 0.114,0.8 0.91,2.34 2.383,4.636 l 3.086,4.762 c 2.117,3.293 3.188,6.098 3.219,8.426 0.027,2.332 -0.985,4.324 -3.028,5.976 -2.625,2.129 -5.488,2.68 -8.582,1.657 -3.093,-1.028 -6.304,-3.598 -9.628,-7.707 -3.168,-3.91 -4.891,-7.504 -5.165,-10.774 -0.269,-3.273 0.93,-5.984 3.586,-8.136 l 0.497,-0.403" id="path62" inkscape:connector-curvature="0"/>
          </g>
        </g>
      </g>
    </g>
  </g>
</svg>