<svg xmlns:dc="http://purl.org/dc/elements/1.1/" xmlns:cc="http://creativecommons.org/ns#" xmlns:rdf="http://www.w3.org/1999/02/22-rdf-syntax-ns#" xmlns:svg="http://www.w3.org/2000/svg" xmlns="http://www.w3.org/2000/svg" xmlns:sodipodi="http://sodipodi.sourceforge.net/DTD/sodipodi-0.dtd" xmlns:inkscape="http://www.inkscape.org/namespaces/inkscape" id="svg2" version="1.1" inkscape:version="0.91 r13725" xml:space="preserve" width="524" height="700" viewBox="0 0 524.00002 700" sodipodi:docname="Logo CA Osasuna.svg"><metadata id="metadata8"><rdf:RDF><cc:Work rdf:about=""><dc:format>image/svg+xml</dc:format><dc:type rdf:resource="http://purl.org/dc/dcmitype/StillImage"/><dc:title/></cc:Work></rdf:RDF></metadata><defs id="defs6"/><sodipodi:namedview pagecolor="#ffffff" bordercolor="#666666" borderopacity="1" objecttolerance="10" gridtolerance="10" guidetolerance="10" inkscape:pageopacity="0" inkscape:pageshadow="2" inkscape:window-width="1440" inkscape:window-height="788" id="namedview4" showgrid="false" inkscape:zoom="0.54927937" inkscape:cx="201.82823" inkscape:cy="350.72072" inkscape:window-x="0" inkscape:window-y="1" inkscape:window-maximized="1" inkscape:current-layer="g10" showguides="false"/><g id="g10" inkscape:groupmode="layer" inkscape:label="Logo CA Osasuna" transform="matrix(1.25,0,0,-1.25,0,700.00002)"><g id="g5556"><g id="g5545"><path inkscape:connector-curvature="0" id="path592" style="fill:#c2a000;fill-opacity:1;fill-rule:nonzero;stroke:none" d="m 209.73936,401.73775 c 28.56586,0.28899 60.77079,-4.62912 97.12125,-11.44168 44.46735,-11.33464 85.53948,-23.15361 112.33941,-30.54949 C 399.81757,193.52919 287.28522,64.435715 209.60001,2.10076e-5 130.74108,64.130675 15.917574,193.52919 1.09364e-5,359.74658 26.799935,367.14246 68.485727,378.96143 112.93432,390.29607 c 36.35046,6.81256 68.22042,11.73067 96.80504,11.44168"/><path d="m 293.39124,380.90806 c 2.3796,-0.43615 4.79135,-0.88301 7.20578,-1.33522 41.72063,-10.63091 80.57395,-21.73812 105.70977,-28.68179 C 379.94634,180.79377 270.38849,67.789813 209.59894,14.36767 l -0.0509,121.73773 c 25.6798,10.5667 84.03616,67.55299 84.03616,146.76707 l -0.19294,98.03559 z" style="fill:#002c50;fill-opacity:1;fill-rule:nonzero;stroke:none" id="path5373" inkscape:connector-curvature="0" sodipodi:nodetypes="cccccccc"/><path sodipodi:nodetypes="cccccccc" inkscape:connector-curvature="0" id="path5376" style="fill:#e20622;fill-opacity:1;fill-rule:nonzero;stroke:none" d="m 125.80664,380.90806 c -2.3796,-0.43615 -4.79135,-0.88301 -7.20578,-1.33522 C 76.880228,368.94193 38.026908,357.83472 12.891088,350.89105 39.251538,180.79377 148.80939,67.789813 209.59894,14.36767 l 0.0509,121.73773 c -25.6798,10.5667 -84.03616,67.55299 -84.03616,146.76707 l 0.19294,98.03559 z"/><path inkscape:connector-curvature="0" id="path596" style="fill:#ffffff;fill-opacity:1;fill-rule:nonzero;stroke:none" d="m 137.84396,383.03023 c 26.29078,4.498 50.08137,7.39856 71.7389,7.18717 21.62002,0.21139 45.34094,-2.67311 71.5808,-7.14436 l -0.12327,-106.85499 c 0,-67.38976 -49.64457,-115.88578 -71.49236,-124.87376 -23.89511,10.28842 -71.54597,57.484 -71.54597,124.87376 l -0.1581,106.81218 z"/></g><g id="g5524"><path inkscape:connector-curvature="0" id="path622" style="fill:#c2a000;fill-opacity:1;fill-rule:nonzero;stroke:none" d="m 190.72483,142.77777 c 0,10.12251 8.20531,18.33183 18.35075,18.33183 10.14544,0 18.36684,-8.20932 18.36684,-18.33183 0,-10.13054 -8.2214,-18.33987 -18.36684,-18.33987 -10.14544,0 -18.35075,8.20933 -18.35075,18.33987"/><path inkscape:connector-curvature="0" id="path626" style="fill:#ffffff;fill-opacity:1;fill-rule:nonzero;stroke:none" d="m 198.5791,142.77777 c 0,5.79041 4.7056,10.47839 10.49648,10.47839 5.79088,0 10.49648,-4.68798 10.49648,-10.47839 0,-5.79041 -4.7056,-10.48107 -10.49648,-10.48107 -5.79088,0 -10.49648,4.69066 -10.49648,10.48107"/><path inkscape:connector-curvature="0" id="path630" style="fill:#c2a000;fill-opacity:1;fill-rule:nonzero;stroke:none" d="m 268.70803,306.71592 c 0,10.11448 8.22139,18.33183 18.35075,18.33183 10.14544,0 18.36683,-8.21735 18.36683,-18.33183 0,-10.13054 -8.22139,-18.33987 -18.36683,-18.33987 -10.12936,0 -18.35075,8.20933 -18.35075,18.33987"/><path inkscape:connector-curvature="0" id="path634" style="fill:#ffffff;fill-opacity:1;fill-rule:nonzero;stroke:none" d="m 276.56283,306.71592 c 0,5.78238 4.7056,10.48107 10.49381,10.48107 5.80964,0 10.51524,-4.69869 10.51524,-10.48107 0,-5.79844 -4.7056,-10.4891 -10.51524,-10.4891 -5.78821,0 -10.49381,4.69066 -10.49381,10.4891"/><path inkscape:connector-curvature="0" id="path638" style="fill:#c2a000;fill-opacity:1;fill-rule:nonzero;stroke:none" d="m 112.72395,306.71592 c 0,10.11448 8.22139,18.33183 18.36683,18.33183 10.12936,0 18.35075,-8.21735 18.35075,-18.33183 0,-10.13054 -8.22139,-18.33987 -18.35075,-18.33987 -10.14544,0 -18.36683,8.20933 -18.36683,18.33987"/><path inkscape:connector-curvature="0" id="path642" style="fill:#ffffff;fill-opacity:1;fill-rule:nonzero;stroke:none" d="m 120.59591,306.71592 c 0,5.78238 4.68683,10.48107 10.49648,10.48107 5.79088,0 10.49648,-4.69869 10.49648,-10.48107 0,-5.79844 -4.7056,-10.4891 -10.49648,-10.4891 -5.80965,0 -10.49648,4.69066 -10.49648,10.4891"/><path inkscape:connector-curvature="0" id="path646" style="fill:#c2a000;fill-opacity:1;fill-rule:nonzero;stroke:none" d="m 254.74854,220.41929 c 0,10.13054 8.22139,18.33183 18.36683,18.33183 10.14543,0 18.36951,-8.20129 18.36951,-18.33183 0,-10.13054 -8.22408,-18.33184 -18.36951,-18.33184 -10.14544,0 -18.36683,8.2013 -18.36683,18.33184"/><path inkscape:connector-curvature="0" id="path650" style="fill:#ffffff;fill-opacity:1;fill-rule:nonzero;stroke:none" d="m 262.6205,220.41929 c 0,5.79041 4.68951,10.48107 10.49647,10.48107 5.79089,0 10.49648,-4.69066 10.49648,-10.48107 0,-5.79041 -4.70559,-10.48107 -10.49648,-10.48107 -5.80696,0 -10.49647,4.69066 -10.49647,10.48107"/><path inkscape:connector-curvature="0" id="path654" style="fill:#c2a000;fill-opacity:1;fill-rule:nonzero;stroke:none" d="m 126.68316,220.41929 c 0,10.13054 8.20532,18.33183 18.35076,18.33183 10.14544,0 18.36683,-8.20129 18.36683,-18.33183 0,-10.13054 -8.22139,-18.33184 -18.36683,-18.33184 -10.14544,0 -18.35076,8.2013 -18.35076,18.33184"/><path inkscape:connector-curvature="0" id="path658" style="fill:#ffffff;fill-opacity:1;fill-rule:nonzero;stroke:none" d="m 134.53798,220.41929 c 0,5.79041 4.70559,10.48107 10.4938,10.48107 5.80964,0 10.49648,-4.69066 10.49648,-10.48107 0,-5.79041 -4.68684,-10.48107 -10.49648,-10.48107 -5.78821,0 -10.4938,4.69066 -10.4938,10.48107"/><path inkscape:connector-curvature="0" id="path662" style="fill:#c2a000;fill-opacity:1;fill-rule:nonzero;stroke:none" d="m 268.70803,389.17868 c 0,10.12251 8.22139,18.33183 18.35075,18.33183 10.14544,0 18.36683,-8.20932 18.36683,-18.33183 0,-10.13054 -8.22139,-18.33184 -18.36683,-18.33184 -10.12936,0 -18.35075,8.2013 -18.35075,18.33184"/><path inkscape:connector-curvature="0" id="path666" style="fill:#ffffff;fill-opacity:1;fill-rule:nonzero;stroke:none" d="m 276.56283,389.17868 c 0,5.78238 4.7056,10.48107 10.49381,10.48107 5.80964,0 10.51524,-4.69869 10.51524,-10.48107 0,-5.79844 -4.7056,-10.4891 -10.51524,-10.4891 -5.78821,0 -10.49381,4.69066 -10.49381,10.4891"/><path inkscape:connector-curvature="0" id="path670" style="fill:#c2a000;fill-opacity:1;fill-rule:nonzero;stroke:none" d="m 112.72395,389.17868 c 0,10.12251 8.22139,18.33183 18.36683,18.33183 10.12936,0 18.35075,-8.20932 18.35075,-18.33183 0,-10.13054 -8.22139,-18.33184 -18.35075,-18.33184 -10.14544,0 -18.36683,8.2013 -18.36683,18.33184"/><path inkscape:connector-curvature="0" id="path674" style="fill:#ffffff;fill-opacity:1;fill-rule:nonzero;stroke:none" d="m 120.59591,389.17868 c 0,5.78238 4.68683,10.48107 10.49648,10.48107 5.79088,0 10.49648,-4.69869 10.49648,-10.48107 0,-5.79844 -4.7056,-10.4891 -10.49648,-10.4891 -5.80965,0 -10.49648,4.69066 -10.49648,10.4891"/><path inkscape:connector-curvature="0" id="path678" style="fill:#c2a000;fill-opacity:1;fill-rule:nonzero;stroke:none" d="m 190.72483,396.15714 c 0,10.13054 8.20531,18.33183 18.35075,18.33183 10.14544,0 18.36684,-8.20129 18.36684,-18.33183 0,-10.13054 -8.2214,-18.33184 -18.36684,-18.33184 -10.14544,0 -18.35075,8.2013 -18.35075,18.33184"/><path inkscape:connector-curvature="0" id="path682" style="fill:#ffffff;fill-opacity:1;fill-rule:nonzero;stroke:none" d="m 198.5791,396.15714 c 0,5.79041 4.7056,10.48107 10.49648,10.48107 5.79088,0 10.49648,-4.69066 10.49648,-10.48107 0,-5.79041 -4.7056,-10.48107 -10.49648,-10.48107 -5.79088,0 -10.49648,4.69066 -10.49648,10.48107"/></g><g id="g5504"><g id="g5498"><path d="m 214.91792,259.82484 c 0,0 8.1678,1.4155 17.1422,-4.59433 0,0 -0.78785,-3.52669 -1.27556,-5.99912 l -2.57253,-3.53739 -10.33838,-11.48449 -15.21816,0 c 0,5.12681 3.18352,7.38785 3.18352,7.38785 l 7.41748,0 c 0,0 3.58547,6.71623 3.58547,12.04373 l -1.92404,6.18375 z" style="fill:#c2a000;fill-opacity:1;fill-rule:nonzero;stroke:none" id="path694" inkscape:connector-curvature="0"/><path d="m 183.36014,272.81206 c 0,0 -11.4049,-0.26223 -14.3258,-0.3318 -2.66097,-0.0535 -4.47783,-1.64294 -5.02181,-2.97816 l -3.53187,-10.17335 c 0,0 -1.92405,-7.93907 6.08564,-9.7479 0,0 1.4015,4.56757 2.67705,8.40198 0,0 0.5949,3.64175 3.65783,3.64175 l 8.0097,-0.0803 2.44926,1.04089 0,10.22687 z" style="fill:#c2a000;fill-opacity:1;fill-rule:nonzero;stroke:none" id="path686" inkscape:connector-curvature="0"/><path d="m 184.93474,263.36197 -1.7311,-20.57683 c 0,0 0.12059,-1.4583 -2.25632,-1.4583 l -4.65468,0 c 0,0 -2.3796,-3.28319 -2.3796,-7.37983 l 14.86979,0.20069 c 0,0 0.6485,0.42009 2.64221,4.10466 2.69313,4.94486 9.97125,17.68697 9.97125,17.68697 l -0.0187,6.08742 2.53769,-1.66969 0,-2.80423 c 0,0 10.51257,7.04 20.34447,3.52134 0,0 13.41738,-3.59091 15.63888,-12.98829 l 1.11744,-6.48611 c 0,0 -5.7882,0.47897 -6.80382,-1.80081 0,0 -1.45242,-3.24038 -1.45242,-5.58972 l 16.09444,0 3.25318,7.39053 -2.93965,16.57384 c 0,0 -9.26917,8.71773 -8.86721,17.42475 0,0 9.74347,0.79471 9.74347,11.82431 0,11.03228 -9.62289,15.64267 -12.69921,17.92244 -2.3796,2.3761 -2.20541,4.5756 -0.66725,6.10348 2.36352,2.36004 6.84133,0.0268 6.84133,-1.29241 0,0 0.66458,-5.18568 7.20578,-8.96925 l 1.506,1.77405 c 0,0 1.13621,-1.93995 6.62965,-1.93995 0,0 0.71816,3.77287 -3.32555,7.76515 -4.04102,4.00833 -8.92079,8.33241 -15.23422,8.22805 -5.03789,-0.0696 -7.25938,-2.05233 -8.7118,-4.79769 -1.34789,-2.54735 -2.02854,-6.31219 2.2751,-10.62556 3.72481,-3.70597 10.057,-6.85805 10.057,-12.34074 0,-3.76484 -2.80031,-3.5374 -2.80031,-3.5374 l -29.24651,0.61811 4.31971,-8.30565 -12.26241,-0.17393 -0.15811,-12.60297 -10.23119,7.66881 -8.60728,-9.55524 z" style="fill:#c2a000;fill-opacity:1;fill-rule:nonzero;stroke:none" id="path690" inkscape:connector-curvature="0"/><path id="path698" d="m 185.53125,325.00784 c -0.35234,-0.002 -0.77472,-0.10143 -1.27969,-0.34376 -2.67704,-1.2924 -9.77825,-10.1579 -13.13594,-13.67656 -3.36036,-3.51064 -1.85312,-4.6125 -1.85312,-4.6125 l 2.69219,-4.50625 4.33906,3.275 3.67343,-0.56719 -6.525,-5.08438 2.02813,-1.50156 5.70313,0 2.08125,-4.3578 4.21562,0 0,7.76405 2.34531,0 0,7.74688 1.31251,0 0,-9.49375 -2.34375,0 0,-7.76562 -5.70313,0 -10.32187,-9.64063 7.41718,0.15781 -3.7625,-8.36718 8.275,-0.24376 -0.0516,-8.80312 8.86719,9.92812 8.80156,-6.56718 0,11.27656 11.42031,0.0344 -4.54687,7.58906 6.73593,0.0344 -4.9328,7.37188 0,9.23906 c 0,3.52937 -1.50626,4.69062 -1.50626,4.69062 l -8.95625,9.61719 -4.02187,1.29219 0.175,1.475 -1.68126,1.48438 -7.71405,0.7328 c 0,0 -0.22009,1.8295 -1.74688,1.82188 z m -4.88281,-10.36095 1.8375,-0.95312 -1.78438,-1.96406 -1.78438,1.96406 1.73126,0.95312 z" style="fill:#c2a000;fill-opacity:1;fill-rule:evenodd;stroke:none" inkscape:connector-curvature="0"/></g><g id="g5439"><path d="m 189.30806,337.23116 1.29431,-1.16932 -1.29431,-1.16129 -1.29431,1.16129 1.29431,1.16932 z" style="fill:#e20622;fill-opacity:1;fill-rule:nonzero;stroke:none" id="path706" inkscape:connector-curvature="0"/><path d="m 196.53232,335.40574 0.96202,0.96061 0.96203,-0.96061 -0.96203,-0.96061 -0.96202,0.96061 z" style="fill:#c2a000;fill-opacity:1;fill-rule:nonzero;stroke:none" id="path710" inkscape:connector-curvature="0"/><path d="m 180.1769,335.40574 0.96202,0.96061 0.96202,-0.96061 -0.96202,-0.96061 -0.96202,0.96061 z" style="fill:#c2a000;fill-opacity:1;fill-rule:nonzero;stroke:none" id="path714" inkscape:connector-curvature="0"/><path d="m 205.20927,334.68943 0.26262,-1.2496 -0.99686,-0.96863 0.73424,2.21823 z" style="fill:#e20622;fill-opacity:1;fill-rule:nonzero;stroke:none" id="path718" inkscape:connector-curvature="0"/><path d="m 173.40684,334.68943 -0.28137,-1.2496 0.99954,-0.96863 -0.71817,2.21823 z" style="fill:#e20622;fill-opacity:1;fill-rule:nonzero;stroke:none" id="path722" inkscape:connector-curvature="0"/><path d="m 189.30806,332.85598 c 2.95573,-0.0696 9.70864,-0.57797 14.74652,-2.49919 l 0.41804,1.73926 c -4.66808,1.87841 -12.05072,2.31456 -15.16456,2.39216 -3.12992,-0.0776 -10.49649,-0.51375 -15.18332,-2.39216 l 0.41804,-1.73926 c 5.05664,1.92122 11.79079,2.42962 14.76528,2.49919" style="fill:#c2a000;fill-opacity:1;fill-rule:nonzero;stroke:none" id="path726" inkscape:connector-curvature="0"/><path d="m 189.30806,337.61567 c 2.15181,0.0268 10.2151,-0.36658 15.88273,-2.52327 l 0.38587,1.65899 c -5.23082,2.09515 -14.08194,2.51524 -16.2686,2.49651 -2.20541,0.0187 -11.05655,-0.40136 -16.26861,-2.49651 l 0.3832,-1.65899 c 5.65154,2.15669 13.73359,2.55003 15.88541,2.52327" style="fill:#c2a000;fill-opacity:1;fill-rule:nonzero;stroke:none" id="path734" inkscape:connector-curvature="0"/><path d="m 197.87916,343.77293 0.96201,0.96061 0.96202,-0.96061 -0.96202,-0.96863 -0.96201,0.96863 z m -19.085,0 0.96202,0.96061 0.98078,-0.96061 -0.98078,-0.96863 -0.96202,0.96863 z m 11.80686,1.92122 -1.29431,1.29241 -1.31038,-1.29241 1.31038,-1.29241 1.29431,1.29241 z m -1.29431,-5.94025 c -2.20272,0.0187 -10.44288,-0.3211 -15.44593,-2.21823 l -2.41442,0.42009 -1.55693,2.50722 0.24654,0.18463 0,1.6242 -1.43365,0.14717 -1.8383,2.95943 c 0,0 3.55064,1.77404 4.44298,-1.70181 l 1.64536,0.87231 1.95888,-1.9453 -0.78784,-1.5466 -0.64582,-0.56727 0.33229,-0.62881 5.35141,1.23889 -0.47163,0.5084 -1.7847,1.15059 1.15496,1.78207 -0.19293,0.4201 1.24338,1.90249 1.90529,-1.23086 0.0187,-0.46292 1.74986,-1.16129 -1.15496,-1.77405 -0.0536,-0.67965 5.82573,0.4201 -0.31622,1.19608 -2.20272,2.20753 2.20272,2.2209 -0.15542,0.67162 2.37691,2.3654 2.36352,-2.3654 -0.1581,-0.67162 2.22149,-2.2209 -2.22149,-2.20753 -0.3162,-1.19608 5.82571,-0.4201 -0.0509,0.67965 -1.15496,1.77405 1.74986,1.16129 0.0349,0.46292 1.90529,1.23086 1.22464,-1.90249 -0.19295,-0.4201 1.15497,-1.78207 -1.7847,-1.15059 -0.45288,-0.5084 5.33534,-1.23889 0.34836,0.62881 -0.66457,0.56727 -0.78784,1.5466 1.95888,1.9453 1.64535,-0.87231 c 0.89235,3.47585 4.44298,1.70181 4.44298,1.70181 l -1.81953,-2.95943 -1.44973,-0.14717 0,-1.6242 0.24385,-0.18463 -1.55692,-2.50722 -2.41443,-0.42009 c -4.98429,1.89713 -13.22444,2.23696 -15.42986,2.21823" style="fill:#c2a000;fill-opacity:1;fill-rule:evenodd;stroke:none" id="path742" inkscape:connector-curvature="0"/></g></g><g id="g5389"><path inkscape:connector-curvature="0" id="path746" style="fill:#e20622;fill-opacity:1;fill-rule:nonzero;stroke:none" d="m 209.42501,469.56315 8.72787,-7.87753 -8.72787,-7.87752 -8.71178,7.87752 8.71178,7.87753 z"/><path inkscape:connector-curvature="0" id="path750" style="fill:#c2a000;fill-opacity:1;fill-rule:nonzero;stroke:none" d="m 258.12526,457.25719 c 0,3.56415 2.90481,6.46203 6.47153,6.46203 3.58547,0 6.49029,-2.89788 6.49029,-6.46203 0,-3.57218 -2.90482,-6.47006 -6.49029,-6.47006 -3.56672,0 -6.47153,2.89788 -6.47153,6.47006"/><path inkscape:connector-curvature="0" id="path754" style="fill:#c2a000;fill-opacity:1;fill-rule:nonzero;stroke:none" d="m 147.86693,457.25719 c 0,3.56415 2.90481,6.46203 6.49029,6.46203 3.56939,0 6.47153,-2.89788 6.47153,-6.46203 0,-3.57218 -2.90214,-6.47006 -6.47153,-6.47006 -3.58548,0 -6.49029,2.89788 -6.49029,6.47006"/><path inkscape:connector-curvature="0" id="path758" style="fill:#e20622;fill-opacity:1;fill-rule:nonzero;stroke:none" d="m 316.58612,452.43676 1.83829,-8.43677 -6.71806,-6.55836 4.87977,14.99513 z"/><path inkscape:connector-curvature="0" id="path762" style="fill:#e20622;fill-opacity:1;fill-rule:nonzero;stroke:none" d="m 102.14091,452.43676 -1.83829,-8.43677 6.71807,-6.55836 -4.87978,14.99513 z"/><path inkscape:connector-curvature="0" id="path766" style="fill:#c2a000;fill-opacity:1;fill-rule:nonzero;stroke:none" d="m 209.37222,440.09601 c 19.99343,-0.5084 65.47639,-3.93876 99.51693,-16.90028 l 2.79763,11.71193 c -31.55643,12.68859 -81.28676,15.65069 -102.31456,16.1912 -21.02512,-0.54051 -70.77687,-3.50261 -102.33331,-16.1912 l 2.81639,-11.71193 c 34.02446,12.96152 79.53958,16.39188 99.51692,16.90028"/><path inkscape:connector-curvature="0" id="path774" style="fill:#c2a000;fill-opacity:1;fill-rule:nonzero;stroke:none" d="m 209.37222,472.17445 c 14.50268,0.11239 68.95735,-2.48848 107.10859,-17.0207 l 2.57254,11.16875 c -35.21426,14.1576 -94.881,16.98591 -109.68113,16.85748 -14.79743,0.12843 -74.48561,-2.69988 -109.697188,-16.85748 l 2.569848,-11.16875 c 38.15124,14.53222 92.64344,17.13309 107.12734,17.0207"/><path inkscape:connector-curvature="0" id="path782" style="fill:#c2a000;fill-opacity:1;fill-rule:nonzero;stroke:none" d="m 267.18647,513.51888 0,0.13915 c 0,3.59893 2.92091,6.51554 6.52513,6.51554 3.60423,0 6.52513,-2.91661 6.52513,-6.51554 l -0.0187,-0.14717 c -0.0697,-3.52134 -2.95574,-6.35768 -6.50638,-6.35768 -3.55063,0 -6.45546,2.83634 -6.52513,6.3657 m -57.83113,4.35887 c -4.82886,0 -8.74661,3.92003 -8.74661,8.74983 0,4.8405 3.91775,8.76054 8.74661,8.76054 4.84494,0 8.78146,-3.92004 8.78146,-8.76054 0,-4.8298 -3.93652,-8.74983 -8.78146,-8.74983 m -57.81505,-4.36689 c -0.0697,-3.52134 -2.95574,-6.35768 -6.52513,-6.35768 -3.55063,0 -6.4367,2.83634 -6.50637,6.3657 l 0,0.13915 c 0,3.59893 2.9209,6.51554 6.50637,6.51554 3.60423,0 6.52513,-2.91661 6.52513,-6.51554 l 0,-0.14717 z m 179.30304,0 0.12327,0 -0.12327,0 -0.12326,-0.48164 -0.34838,0.48164 0,0.008 c -2.46802,3.2939 -6.42061,5.43186 -10.81,5.43186 -4.39207,0 -8.29374,-2.13796 -10.68942,-5.43186 -1.59176,-2.18344 -2.5377,-4.86458 -2.5377,-7.76246 0,-3.02364 1.01561,-5.71281 2.73064,-7.89626 l 0.0161,0 2.57254,-2.48848 4.46174,-3.84511 c 1.13621,-2.30386 0.0857,-3.87722 -2.27508,-4.25183 -2.36084,-0.38532 -24.71778,7.15238 -36.05301,8.36719 l -1.45242,2.21823 c 0.40196,0.98737 1.81954,1.79813 4.58233,1.21481 5.45861,-1.16397 10.84753,2.32259 11.99981,7.7812 0.50915,2.34934 0.14203,4.67193 -0.85483,6.65469 -1.3479,2.63833 -3.81325,4.67193 -6.92709,5.32749 l 1.34522,2.88986 c 1.2434,5.84392 -2.50018,11.58884 -8.36074,12.83041 -5.84179,1.24959 -11.59784,-2.48848 -12.84124,-8.33241 l -0.17418,-3.11729 c -5.47467,1.15326 -10.61706,-2.39216 -11.77203,-7.85077 l -0.20902,-1.74729 c -0.1581,-4.73347 3.21835,-8.81138 7.99362,-10.23757 4.61717,-1.37001 2.85123,-4.73348 0.31353,-4.5649 -1.85437,0.12041 -31.01513,2.58214 -39.2526,2.82831 -4.30364,0.36658 -6.13926,8.11299 2.09822,8.11299 3.86685,0 7.38264,1.46901 10.04093,3.86919 2.99325,2.73466 4.87978,6.65469 4.87978,11.04031 0,8.22538 -6.68055,14.8988 -14.92071,14.8988 l 1.06653,4.5756 c 0,8.81405 -7.15486,15.96644 -15.98724,15.96644 -8.81628,0 -15.97115,-7.15239 -15.97115,-15.96644 l 1.05045,-4.5756 c -8.24016,0 -14.92339,-6.67342 -14.92339,-14.8988 0,-4.38562 1.8892,-8.30565 4.89854,-11.04833 2.64221,-2.39216 6.17676,-3.86117 10.02485,-3.86117 8.25622,0 6.41794,-7.74641 2.09822,-8.11299 -8.24015,-0.24617 -37.40091,-2.7079 -39.23653,-2.82831 -2.53769,-0.16858 -4.30363,3.19489 0.29746,4.5649 4.77526,1.42619 8.17048,5.5041 8.01237,10.24559 l -0.2117,1.73927 c -1.17104,5.45861 -6.31343,9.00403 -11.77202,7.85077 l -0.17419,3.11729 c -1.24339,5.84393 -6.99943,9.582 -12.85731,8.33241 -5.86056,-1.24157 -9.58806,-6.98649 -8.34467,-12.83041 l 1.3479,-2.88986 c -3.11383,-0.65556 -5.59794,-2.68916 -6.92976,-5.32749 -1.01294,-1.98276 -1.36399,-4.30535 -0.8736,-6.65469 1.17104,-5.45861 6.54389,-8.94517 11.99981,-7.7812 2.76548,0.58332 4.19913,-0.22744 4.60109,-1.21481 l -1.46849,-2.21823 c -11.31916,-1.21481 -33.67342,-8.75251 -36.03693,-8.36719 -2.36083,0.37461 -3.41129,1.94797 -2.29116,4.25183 l 4.47781,3.84511 2.57254,2.48848 0,0.008 c 1.71503,2.17542 2.72795,4.86459 2.72795,7.88823 0,2.89788 -0.92718,5.57902 -2.51893,7.75444 l 0,0.008 c -2.41176,3.2939 -6.29735,5.43186 -10.686743,5.43186 -4.392069,0 -8.36342,-2.13796 -10.828769,-5.43186 l -0.351036,-0.48966 -0.120587,0.48164 c -6.174085,22.76027 -29.844099,10.98679 -29.844099,10.98679 l 6.787746,-10.98679 5.563108,-8.98798 c 2.816395,2.00952 7.120024,1.67772 9.778317,-0.96864 l 2.275081,-5.68605 -2.275081,-5.26595 -1.645355,-1.25763 c 0,0 3.237113,-5.23116 5.651538,-9.13514 l 4.791355,-7.74641 c 0,0 3.028086,-7.90429 16.322195,-2.84704 13.01542,4.95021 29.30011,8.3217 45.23643,10.59345 l -0.0161,0 0.0161,0 c 25.29392,3.61499 49.733,4.45251 58.84674,4.37491 9.14858,0.0776 33.56891,-0.75992 58.86283,-4.37491 15.93633,-2.27175 32.22369,-5.64324 45.23643,-10.59345 13.29412,-5.05725 16.3222,2.84704 16.3222,2.84704 l 4.79135,7.74641 5.65153,9.13514 -1.66143,1.25763 -2.27508,5.25792 0,0.008 2.27508,5.68605 c 2.65829,2.64636 6.97801,2.97816 9.77832,0.96864 l 5.56311,8.98798 6.80382,10.98679 c 0,0 -23.66733,11.77348 -29.86017,-10.98679"/></g><g id="g5551"><path inkscape:connector-curvature="0" id="path786" style="fill:#ffffff;fill-opacity:1;fill-rule:nonzero;stroke:none" d="m 73.312174,286.90838 14.012274,0 -0.05358,-7.86949 -13.923854,0 c -14.99038,0 -27.132207,12.14808 -27.132207,27.11913 0,14.97639 12.157911,27.10842 27.150965,27.10842 l 13.677312,-0.0187 0,-7.84274 -13.677312,0.0187 c -10.654584,0 -19.296693,-8.62942 -19.296693,-19.26568 0,-10.63894 8.591194,-19.24964 19.243104,-19.24964"/><path inkscape:connector-curvature="0" id="path790" style="fill:#ffffff;fill-opacity:1;fill-rule:evenodd;stroke:none" d="m 372.6682,312.99573 0,-32.12286 -7.66133,0 0,11.0751 -27.48058,0.0615 0,-11.34535 -7.3478,-0.0615 0.13935,32.60182 c 0.89235,14.25393 11.59784,22.72548 21.11355,22.72548 10.05968,0 20.34446,-8.67223 21.23681,-22.93419 m -7.731,0.20871 0,-13.49401 -27.41091,0 -0.0187,13.38966 c 0.0187,10.55063 7.50591,15.01385 13.76843,14.87471 7.76584,-0.14984 13.66124,-6.53428 13.66124,-14.77036"/><path inkscape:connector-curvature="0" id="path794" style="fill:#ffffff;fill-opacity:1;fill-rule:evenodd;stroke:none" d="m 182.36329,76.03527 c 0,14.97908 12.1579,27.11646 27.13221,27.11646 14.99038,0 27.14828,-12.13738 27.14828,-27.11646 0,-14.96034 -12.1579,-27.1004 -27.14828,-27.1004 -14.97431,0 -27.13221,12.14006 -27.13221,27.1004 m 7.85427,0 c 0,10.64697 8.64211,19.25766 19.27794,19.25766 10.6519,0 19.294,-8.61069 19.294,-19.25766 0,-10.62823 -8.6421,-19.24963 -19.294,-19.24963 -10.63583,0 -19.27794,8.6214 -19.27794,19.24963"/></g></g></g></svg>