<svg xmlns:dc="http://purl.org/dc/elements/1.1/" xmlns:cc="http://creativecommons.org/ns#" xmlns:rdf="http://www.w3.org/1999/02/22-rdf-syntax-ns#" xmlns:svg="http://www.w3.org/2000/svg" xmlns="http://www.w3.org/2000/svg" xmlns:sodipodi="http://sodipodi.sourceforge.net/DTD/sodipodi-0.dtd" xmlns:inkscape="http://www.inkscape.org/namespaces/inkscape" width="359.48874" version="1.1" height="427.27585" viewBox="0 0 287.59099 341.82068" id="svg2897" inkscape:version="0.47 r22583" sodipodi:docname="Caracas_Futbol_Club-Seite001.svg">
  <metadata id="metadata2974">
    <rdf:RDF>
      <cc:Work rdf:about="">
        <dc:format>image/svg+xml</dc:format>
        <dc:type rdf:resource="http://purl.org/dc/dcmitype/StillImage"/>
        <dc:title/>
      </cc:Work>
    </rdf:RDF>
  </metadata>
  <sodipodi:namedview pagecolor="#ffffff" bordercolor="#666666" borderopacity="1" objecttolerance="10" gridtolerance="10" guidetolerance="10" inkscape:pageopacity="0" inkscape:pageshadow="2" inkscape:window-width="1152" inkscape:window-height="804" id="namedview2972" showgrid="false" inkscape:zoom="2.2125" inkscape:cx="130.8583" inkscape:cy="110.28817" inkscape:window-x="-4" inkscape:window-y="-4" inkscape:window-maximized="1" inkscape:current-layer="svg2897"/>
  <defs id="defs2899">
    <inkscape:perspective sodipodi:type="inkscape:persp3d" inkscape:vp_x="0 : 120.625 : 1" inkscape:vp_y="0 : 1000 : 0" inkscape:vp_z="241.25 : 120.625 : 1" inkscape:persp3d-origin="120.625 : 80.416667 : 1" id="perspective2976"/>
    <clipPath id="Clip0">
      <path d="m 0,0 192.756,0 0,192.756 L 0,192.756 0,0 z" transform="translate(0,0.244141)" id="path2902"/>
    </clipPath>
  </defs>
  <g id="Hintergrund" transform="matrix(1.8884006,0,0,1.9449458,-38.203919,-17.014824)">
    <g id="Gruppe1" clip-path="url(#Clip0)">
      <path style="fill:#161413;fill-rule:evenodd;stroke:none" d="m 75.7064,3.4649 4.797,-2.7989 c 9.264,5.9317 20.2586,9.7969 32.2546,7.0635 1.267,2.333 2.466,4.666 4.532,6.5977 -6.464,4.2656 -8.796,11.7294 -9.93,18.8603 0.468,7.9311 2.8,14.7951 8.264,20.4591 -0.266,0.866 -0.933,1.266 -0.799,2.199 l 4.531,2.067 c 0.267,0.866 -1.2,2.065 -2.066,3.065 0,1.333 1.667,1.466 2.599,1.799 0.333,1.599 -1.333,3.399 -2.599,4.532 2.2,12.528 0.534,26.59 -8.796,35.2544 -10.5966,12.528 -30.3226,4.665 -39.6526,19.126 l -3.732,-3.466 c -2.0655,0.733 -3.8653,2.933 -5.5977,4.332 -2.4658,-1.266 -3.5986,-3.865 -6.1973,-4.864 l -3.1328,3.198 C 40.7851,105.428 20.126,113.559 10.1963,98.2966 2.5996,89.1666 1.2666,76.3716 3.332,64.6426 L 0,60.7106 c 1,-0.599 2.0654,-0.599 2.7324,-1.666 l -2.1992,-3.732 c 1.7988,-0.266 3.7314,-1.133 4.8642,-2.599 L 4.5312,51.3146 C 11.7285,43.5836 14.1953,31.3887 9.9297,21.458 8.2637,18.0596 6.1982,14.5947 3.332,11.9951 L 6.1982,5.7979 C 16.7939,9.5293 29.0566,6.5977 37.0527,0 47.3828,7.4639 64.1104,9.5293 75.7064,3.4649 z" transform="translate(36.7256,61.9414)" id="path2908"/>
      <path style="fill:#00368b;fill-rule:evenodd;stroke:none" d="m 39.6523,2.5986 c 9.6631,4.5322 20.9258,3.7324 30.9215,1.9336 l 0.867,-0.8662 0.133,0.333 6.731,-3.3321 c 9.53,4.7979 18.193,8.6631 29.6562,6.9971 l 1.199,-0.7998 c 1,1.1328 2.933,2.7324 1.666,4.2656 -5.93,5.2647 -9.796,14.0616 -7.463,22.125 1.132,5.7979 2.798,12.1289 6.93,16.9269 l 0,1.133 c -0.466,-0.133 -0.599,0.399 -0.866,0.533 -0.133,2.732 3.065,2.066 4.265,3.466 -0.133,1.732 -2.733,1.732 -2.066,3.665 l 2.666,1.399 -1.8,2.599 c 3.266,9.131 2.067,20.66 -3.065,28.524 -8.397,12.3953 -23.6582,14.4613 -35.6532,17.3943 -4.399,0.133 -6.465,10.595 -10.864,2.998 -2.6657,0.8 -5.3307,7.064 -7.7965,2.065 l -2.5996,-2.865 c -1.9317,0.267 -3.0655,2.333 -4.8643,2.865 C 37.1865,101.43 18.46,106.828 8.7969,92.0327 1.5332,83.5027 0,71.1077 3.9981,60.6457 l -2.4649,-2.6 c 1.0654,-0.8 2.4649,-0.8 2.9981,-2.199 L 2.332,53.5137 c 0.8672,-1.399 3.1993,-1.666 3.9991,-3.332 L 5.1318,48.3827 C 11.1963,40.1187 14.7275,28.79 11.1963,18.8603 9.6631,14.4619 6.9971,12.5283 4.2656,8.5302 4.2656,5.4648 6.5977,5.7314 8.7969,5.7314 17.9268,7.3974 27.5234,5.9316 34.8545,0 c 1.7988,0.3994 3.3311,1.4667 4.7978,2.5986 z" transform="translate(38.6582,65.4063)" id="path2910"/>
      <path style="fill:#161413;fill-rule:evenodd;stroke:none" d="m 63.8428,5.1309 c 4.666,-1.1328 9.53,-1.7998 13.662,-4.5312 8.13,4.5312 16.062,7.5302 25.9912,6.7304 6.931,3.7315 -3.265,7.8643 -2.066,12.5283 -5.6642,14.5286 0.399,30.1226 7.197,43.0516 2.999,8.398 1.8,20.393 -3.999,27.656 C 88.7678,107.094 64.1108,109.893 42.8516,106.161 28.2569,103.161 10.3291,97.364 4.6651,81.104 0,69.24 6.0645,57.512 9.5303,47.183 14.8613,36.853 13.3281,21.6583 8.6631,11.5958 L 6.3311,9.1299 C 8.2637,2.1993 15.2608,7.9961 19.9922,5.3975 24.791,4.5977 28.7891,2.7979 32.7881,0 41.7178,4.5977 53.3135,7.0635 63.8428,5.1309 z" transform="translate(40.3242,66.873)" id="path2912"/>
      <path style="fill:#e20010;fill-rule:evenodd;stroke:none" d="m 72.1075,0.9326 c 7.864,3.7324 16.261,7.1973 25.657,6.5312 -5.265,5.8643 -5.265,14.2608 -6.53,21.5254 0.199,10.1963 4.465,19.9923 8.8615,29.0553 1.468,6.865 5.332,15.595 0.801,22.327 C 90.4335,98.6975 68.9755,101.429 50.3154,101.695 36.5205,100.095 22.9922,97.2965 11.7295,89.7665 5.2656,83.7025 0,75.1055 1,66.0415 1.4004,52.5135 11.5966,43.1835 10.8633,29.122 10.7295,20.9248 9.664,12.2617 4.665,5.5303 5.7978,5.0644 6.8642,6.4638 8.1308,6.3301 15.4609,5.3974 22.1924,3.8652 28.2568,0 40.7861,8.2636 58.7795,6.997 72.1075,0.9326 z" transform="translate(44.8555,69.9385)" id="path2914"/>
      <path style="fill:#161413;fill-rule:evenodd;stroke:none" d="m 58.5113,0 c 1.933,2.332 6.598,1.5322 6.331,5.664 -0.466,1.2666 0.666,1.2666 1.332,1.7334 4.866,3.7315 -2.598,8.9295 2.933,11.9955 -0.6,-5.265 -0.733,-12.5951 4.531,-15.9271 1.934,-1.2666 4.665,-2.1992 6.865,-1.1338 3.065,1.7998 5.264,5.1982 4.265,9.3299 -1.732,1.933 0.333,4.399 -0.8,6.598 -0.532,2.466 -1.532,4.864 -3.465,6.798 -1.2,-0.201 -1.466,-4.332 -3.399,-1.666 1.067,-3.067 -1.399,-7.997 2.199,-10.329 1.067,-0.868 2.466,-1.134 3.399,-2.5336 0.6,-2.8653 -1.6,-5.1309 -3.998,-6.5303 -2.999,-0.667 -4.932,1.9326 -6.464,3.665 -4.932,13.9279 7.197,22.8589 9.396,34.7199 -1.266,2.866 -1.399,7.132 -5.398,7.998 -0.8,0.666 -3.132,0.399 -2.6,2.332 0.535,0.667 1.134,0.933 1.934,1.133 l 0.133,-0.333 c 1.666,1.933 -0.133,5.132 0.8,7.73 0.599,2.6 3.464,5.132 1.666,7.731 -2.2,2.599 -4.798,4.398 -7.731,5.332 -1.333,-0.534 -2.466,-1.333 -4.266,-0.268 l 0,-1.332 -1.931,-0.267 c 0.333,-1.533 0.333,-3.865 2.532,-3.998 2.465,0.4 5.198,0.4 6.598,-2.066 0.265,-2.399 -1.4,-3.332 -2.933,-4.599 l -0.267,0.333 c -2.065,-2.665 -5.93,-4.331 -9.33,-5.13 -0.732,1.799 -2.932,-0.134 -3.464,1.931 l 0,2.6 -2.867,-2.332 -1.132,1.265 c -0.4,-0.266 -0.6665,-0.732 -1.0659,-0.599 -0.7334,0.333 -0.7334,1.265 -0.334,1.666 -2.7988,-0.666 -1.7334,3.065 -3.5986,3.732 -0.7324,-0.134 0.2666,-1.667 -0.8662,-1.8 -1.9326,0.867 -1.7998,3.599 -2.0654,5.532 -2.2002,0.667 -5.5987,5.531 -7.1319,2.465 l 0,-0.266 c -1.7988,0.134 -2.9316,0.667 -4.8642,0 l -0.5332,0.667 c -0.9336,-0.667 -0.4004,-2.199 -0.5332,-3.399 2.1992,-3.599 8.2636,-0.133 9.33,-4.999 0.7325,-6.331 3.0655,-12.662 9.4629,-15.26 1.9327,-1.799 1,-4.732 0,-6.598 -1.0654,-1.533 -3.0654,-2.533 -4.4648,-3.732 -1,0.4 -0.2666,1.333 -0.4004,2.066 -0.8652,-0.867 -0.7324,-2.066 -1.665,-2.933 -0.667,1 -1.9336,0.733 -2.9327,1.133 l -0.2666,-0.266 c 0.5996,-0.733 1.6661,-1.4 1.2657,-2.799 -0.2666,-0.799 -1.3995,-0.533 -1.7989,-0.267 0.1328,-1.066 -0.1328,-2.199 -0.7998,-3.132 l -2.0654,2.2 c 0.5332,-0.867 0.7988,-1.799 0.666,-3.066 -2.4658,0.267 -5.665,-1.599 -7.4639,0.6 0.9991,2.466 3.4649,2.732 5.1319,5.064 4.1308,4.799 5.5303,11.596 3.998,18.194 -1.666,6.597 -8.3974,12.929 -15.1943,14.061 -9.1963,1.8 -16.794,-3.065 -21.0596,-10.062 C 1.3984,53.3809 0,45.5169 3.331,40.1859 c 3.1328,-6.732 9.5967,-10.463 16.794,-10.864 1.667,-0.465 0.1338,-2.532 1.7998,-3.065 5.664,-1.4 10.9961,1.8 16.3935,-0.4 0,-1.533 -1.666,-1.399 -2.4658,-1.666 -2.5312,0.666 -1.665,-2.732 -3.7314,-2.866 -2.7989,1.799 -3.5987,-1.133 -5.9317,-1.398 -1.1328,0.398 -1.2656,-2.333 -2.5986,-1.401 -1.1328,-0.932 0.667,-2.332 1.5996,-2.866 4.1318,0.801 9.1299,0.134 11.9951,3.733 2.9326,0.799 4.2656,-3.332 7.1973,-2.599 2.0664,-1.134 0.7998,-2.799 -0.5996,-3.731 l 0,-0.268 c 1.1328,-0.466 3.998,1.867 4.332,-0.866 -2.0654,0 -2.9326,-2.3323 -3.999,-3.7327 C 45.1826,7.664 47.3818,7.2636 47.5156,5.664 46.9824,4.5986 45.7158,5.2646 44.916,5.1308 l -0.7998,0.667 C 42.9843,5.1308 42.9843,3.7314 42.9843,2.332 45.4502,0.999 49.3144,3.1992 50.914,0 c 2.4663,0.7324 5.0653,0.999 7.5973,0 z" transform="translate(47.0557,89.3311)" id="path2916"/>
      <path style="fill:#ffffff;fill-rule:evenodd;stroke:none" d="m 14.5947,0 c -3.8652,4.732 3.3321,4.864 5.1319,7.33 2.4658,-0.4 5.1972,-1.133 7.1298,-2.732 0.2666,-1.132 -0.666,-1.799 -0.2656,-2.933 3.8643,0.534 7.1963,4.267 8.7959,7.732 -4.9316,-1.8 -3.665,3.999 -5.0644,6.198 0.1328,2.598 2.5986,4.397 3.999,6.597 l 3.1318,-0.534 c 0.5996,2.733 -1.2002,5.932 -3.1318,8.264 -1.4004,-0.267 -0.7334,-2.732 -2.333,-2.932 l -6.4649,0.6 c -0.4658,2.999 -7.4638,5.598 -2.0654,8.797 -3.332,1.266 -8.1299,0.932 -11.3291,-0.8 4.7988,-2.199 0.1338,-6.198 -0.2666,-9.13 L 4.998,23.858 2.5986,26.99 C 1,24.258 0,20.658 0.3994,17.394 c 1.4004,0.132 2.5322,1.665 3.7324,1.333 l 4.5313,-4.266 c 0,-2.732 0.4668,-5.731 -1.1992,-7.997 L 4.998,6.197 C 5.3984,4.265 7.8643,2.665 9.7969,1.665 11.3291,0.999 12.7949,0 14.5947,0 z" transform="translate(49.1211,120.12)" id="path2918"/>
      <path style="fill:#161413;fill-rule:evenodd;stroke:none" d="M 13.9277,5.465 10.4629,13.196 2.1992,12.262 0,4.266 7.3311,0 c 2.1992,1.532 4.3974,3.732 6.5966,5.465 z" transform="translate(61.5166,131.449)" id="path2920"/>
      <path style="fill:#e21420;fill-rule:evenodd;stroke:none" d="m 7.865,0.333 c 2.333,8.53 13.195,16.394 7.131,25.857 -2.6,1.8 -5.732,0 -7.998,-1.399 C 3.867,21.126 0,16.993 0.134,11.996 c 0.533,-0.134 2.199,0.599 2.6,-0.8 0,-0.667 -1.2,-1 -0.8,-1.8 0.933,0.133 2.065,1.533 2.998,0.267 C 3.999,6.198 8.131,3.199 5.266,0 l 2.599,0.333 z" transform="translate(108.565,110.057)" id="path2922"/>
      <path style="fill:#161413;fill-rule:evenodd;stroke:none" d="m 10.1299,5.6641 c -1.665,-0.8663 -3.5322,-1.0664 -4.7314,1 -1.4658,2.7324 1.5996,4.7314 3.3994,5.7304 2.0654,1.1338 4.7978,2.333 6.3975,-0.5996 1,-1.7988 0.0664,-3.331 -1.1993,-4.331 l 2.2657,-3.6651 c 3.1318,2.3321 3.7314,5.9981 1.665,9.7959 C 15.2618,18.46 10.3301,18.793 6.2657,16.5937 2.2002,14.3281 0,9.9297 2.6661,4.998 4.9327,0.9326 8.2637,0 12.0635,1.5322 l -1.9336,4.1319 z" transform="translate(18.7314,48.7461)" id="path2924"/>
      <path style="fill:#161413;fill-rule:evenodd;stroke:none" d="m 19.9258,7.1308 -3.1328,3.4649 -3.332,-1.4658 -4.1319,4.4648 1.7998,3.1982 -2.5332,2.8663 -1.0664,-1.9327 0,-7.3974 0.2676,0.333 2.665,-2.9317 -2.9326,-1.2666 0,-4.665 12.3965,5.332 z M 7.5293,17.7265 0,3.7988 3.3985,0 l 4.1308,1.7988 0,4.665 -2.8652,-1.2656 2.8652,5.1309 0,7.3974 z" transform="translate(31.8613,35.2842)" id="path2926"/>
      <path style="fill:#161413;fill-rule:evenodd;stroke:none" d="m 13.128,18.1269 -3.5977,2.4658 -0.9336,-1.333 0,-9.7295 1.1328,-0.7334 c 0.7334,-0.5332 1.5997,-1 2,-1.7998 C 12.0625,6.2646 11.9961,5.3984 11.5293,4.7988 11.1963,4.2656 10.3965,3.8652 9.6641,3.9316 9.3301,3.999 8.9971,4.1318 8.5967,4.332 l 0,-3.5322 c 0.7334,-0.3994 1.5332,-0.666 2.333,-0.666 1.7989,-0.1338 3.4649,0.7988 4.3975,2.1318 1.0674,1.5996 1.0674,3.7988 -0.2656,5.4648 l 7.1299,4.2657 -4.0645,2.7324 -6.1309,-3.9326 -2.5996,1.7998 3.7315,5.5312 z M 8.5967,19.2597 0,6.5312 6.5313,2.0664 C 7.1973,1.5996 7.8643,1.1328 8.5967,0.7998 l 0,3.5322 c -0.5322,0.2666 -1,0.666 -1.3994,0.9326 l -1.9326,1.2666 2.4658,3.5986 0.8662,-0.5996 0,9.7295 z" transform="translate(43.3896,21.0225)" id="path2928"/>
      <path style="fill:#161413;fill-rule:evenodd;stroke:none" d="m 16.128,13.9277 -4.3985,1.5996 -2.2656,-2.8652 -3.999,1.4658 0,-3.332 1.9326,-0.7324 -1.9326,-2.3994 0,-6.7979 10.6631,13.0615 z M 5.4649,14.1279 3.7989,14.7939 3.8653,18.46 0.2676,19.793 0,1.7998 4.7325,0 l 0.7324,0.8662 0,6.7979 -1.999,-2.4659 0.2002,6.2647 1.7988,-0.667 0,3.332 z" transform="translate(65.5146,13.0254)" id="path2930"/>
      <path style="fill:#161413;fill-rule:evenodd;stroke:none" d="m 11.6621,6.99805 c -0.2666,-1.8672 -1.1328,-3.5996 -3.5313,-3.333 -3.0654,0.4004 -2.999,4.0654 -2.7324,6.0644 0.2666,2.33205 0.8662,5.26465 4.1318,4.93165 2.0655,-0.2002 2.8653,-1.8662 2.8653,-3.5322 l 4.1992,-0.2666 c 0,3.9326 -2.5996,6.5976 -6.8652,7.0644 C 4.1992,18.5264 1.0664,14.7285 0.5332,10.1298 0,5.46485 2.332,1.13281 7.8642,0.5332 12.5293,0 15.1943,2.19925 16.0605,6.19725 l -4.3984,0.8008 z" transform="translate(80.5762,8.29395)" id="path2932"/>
      <path style="fill:#161413;fill-rule:evenodd;stroke:none" d="m 16.7935,18.2597 -4.731,-0.5996 -0.667,-3.665 -2.532,-0.333 0,-3.1328 1.932,0.2675 -1.199,-6.19816 -0.733,1.5996 0,-6.13086 4.332,0.53223 3.598,17.66009 z m -7.93,-4.5976 -3.465,-0.3994 -1.6,3.2646 L 0,16.0615 8.1295,0 l 0.734,0.06738 0,6.13086 -1.999,4.06536 1.999,0.2657 0,3.1328 z" transform="translate(98.4365,8.95996)" id="path2934"/>
      <path style="fill:#161413;fill-rule:evenodd;stroke:none" d="m 13.462,6.8642 c 0,-1.5332 -0.734,-2.4668 -2.266,-2.999 -1.134,-0.4668 -2.533,-0.667 -2.999,0.5322 -0.467,1.1338 0.999,2 1.933,2.5332 1.265,0.8663 3.065,1.8653 3.998,3.1319 1.132,1.333 1.466,2.999 0.867,4.5986 -0.533,1.5322 -1.934,2.7324 -3.666,3.1318 C 9.529,18.2597 7.53,17.8603 5.798,17.1933 2.466,15.9267 0,13.5283 0.399,10.1299 l 4.066,0.5996 c -0.133,1.8652 0.999,2.9316 2.799,3.665 1.132,0.3994 2.866,0.5996 3.331,-0.667 0.534,-1.332 -1.333,-2.332 -2.332,-2.998 C 5.331,8.9961 2.598,6.997 3.931,3.5312 4.465,2.0654 5.597,0.999 7.264,0.5322 8.863,0 10.529,0.2666 12.129,0.8662 c 3.065,1.1992 5.198,3.0654 5.198,6.2637 L 13.462,6.8642 z" transform="translate(116.097,12.8926)" id="path2936"/>
      <path style="fill:#161413;fill-rule:evenodd;stroke:none" d="M 12.063,5.3311 9.597,8.2646 15.062,12.7949 13.063,15.2607 7.598,10.7295 3.333,15.8613 0,13.1289 10.797,0 21.06,8.4639 18.927,10.9961 12.063,5.3311 z" transform="translate(137.688,24.6875)" id="path2938"/>
      <path style="fill:#161413;fill-rule:evenodd;stroke:none" d="M 0,2.666 2.799,0 5.732,3.1328 2.933,5.7314 0,2.666 z" transform="translate(147.152,43.3477)" id="path2940"/>
      <path style="fill:#161413;fill-rule:evenodd;stroke:none" d="M 13.661,11.0625 C 15.261,9.996 16.327,8.4638 14.994,6.4638 13.328,3.8652 10.062,5.665 8.33,6.7968 6.397,8.0634 4.064,9.996 5.864,12.7285 c 1.133,1.7324 2.999,1.666 4.465,0.9336 l 2.133,3.7314 C 8.996,19.1259 5.397,17.9267 3.065,14.3281 0,9.663 1.932,5.1982 5.798,2.5986 9.729,0 14.661,0.1328 17.726,4.7978 c 2.599,3.9326 1.867,7.3311 -1.265,9.9297 l -2.8,-3.665 z" transform="translate(153.217,43.2813)" id="path2942"/>
      <path style="fill:#161413;fill-rule:evenodd;stroke:none" d="M 0,1.5333 3.532,0 5.198,3.9317 1.666,5.4649 0,1.5333 z" transform="translate(161.547,64.873)" id="path2944"/>
      <path style="fill:#ffec00;fill-rule:evenodd;stroke:none" d="M 7.3301,10.9287 11.9286,14.1279 10.3291,8.7959 14.7936,5.3975 9.1973,5.3311 7.3301,0 5.5987,5.3311 0,5.3975 l 4.4649,3.3984 -1.666,5.332 4.5312,-3.1992 z" transform="translate(89.1064,49.2793)" id="path2946"/>
      <path style="fill:#161413;fill-rule:nonzero;stroke:none" d="m 8.9747,12.0127 3.4909,2.4287 -1.2116,-4.04 L 11.1602,10.0898 11.419,9.8926 14.7946,7.3232 10.5665,7.2734 10.2374,7.2695 10.128,6.956 8.7227,2.9404 7.4209,6.9473 7.3165,7.2695 6.9786,7.2734 2.75,7.3232 6.125,9.8926 6.3877,10.0928 6.2891,10.4072 5.0372,14.4131 8.4346,12.0146 8.7032,11.8252 8.9747,12.0127 z M 13.0356,15.9853 8.7071,12.9746 4.4444,15.9834 3.3106,16.7842 3.7247,15.459 5.293,10.4414 1.0899,7.2422 0,6.4131 1.3692,6.3965 6.6309,6.334 8.2579,1.3252 8.6885,0 l 0.461,1.3154 1.7558,5.0186 5.2693,0.0625 1.369,0.0166 -1.088,0.8291 -4.2065,3.2012 1.5055,5.0205 0.388,1.292 -1.107,-0.7706 z" transform="translate(87.7314,47.8086)" id="path2948"/>
      <path style="fill:#ffec00;fill-rule:evenodd;stroke:none" d="M 7.3301,10.9296 11.9286,14.1289 10.3291,8.7968 14.7286,5.3984 9.1973,5.2646 7.3301,0 5.5313,5.2646 0,5.3984 4.3985,8.7968 2.7989,14.1289 7.3301,10.9296 z" transform="translate(89.1064,31.2852)" id="path2950"/>
      <path style="fill:#161413;fill-rule:nonzero;stroke:none" d="m 8.9366,11.9736 3.4909,2.4287 -1.2116,-4.041 -0.0928,-0.3066 0.2568,-0.1992 3.3486,-2.587 L 10.5225,7.167 10.1983,7.1592 10.0899,6.8525 8.6758,2.8623 7.3135,6.8467 7.2071,7.1592 6.8789,7.167 l -4.205,0.1015 3.3486,2.587 0.2559,0.1992 -0.0928,0.3066 -1.2071,4.0274 3.418,-2.4131 0.2686,-0.1895 0.2715,0.1875 z M 12.9975,15.9453 8.669,12.9355 4.4063,15.9434 3.293,16.7295 3.6846,15.4248 5.1914,10.4014 1.0498,7.2012 0,6.3896 1.3262,6.3574 6.5293,6.2324 8.2217,1.2803 8.6592,0 l 0.4522,1.2744 1.7568,4.958 5.2083,0.125 1.325,0.0322 -1.05,0.8116 -4.1415,3.2002 1.5065,5.0234 0.387,1.291 -1.106,-0.7705 z" transform="translate(87.7695,29.8545)" id="path2952"/>
      <path style="fill:#ffec00;fill-rule:evenodd;stroke:none" d="M 7.397,10.9961 11.996,14.1289 10.397,8.7969 14.861,5.3984 9.264,5.3311 7.397,0 5.598,5.3311 0,5.3984 4.466,8.7969 2.799,14.1289 7.397,10.9961 z" transform="translate(109.832,36.9502)" id="path2954"/>
      <path style="fill:#161413;fill-rule:nonzero;stroke:none" d="M 9.038,12.0527 12.539,14.4375 11.32,10.376 11.228,10.0654 11.486,9.8681 14.862,7.2988 10.633,7.248 10.304,7.2441 10.194,6.9306 8.78,2.8906 7.419,6.9248 7.311,7.2441 6.979,7.248 2.75,7.2988 l 3.376,2.5693 0.262,0.1993 -0.098,0.3144 -1.264,4.042 3.481,-2.3711 0.265,-0.1806 0.266,0.1806 z m 4.068,3.9092 -4.334,-2.9512 -4.333,2.9512 -1.117,0.7617 0.403,-1.29 L 5.293,10.416 1.09,7.2168 0,6.3887 1.369,6.3721 6.635,6.3086 8.327,1.2959 8.765,0 l 0.451,1.291 1.757,5.0176 5.269,0.0635 1.368,0.0166 -1.088,0.8281 -4.207,3.2021 1.507,5.0205 0.381,1.2705 -1.097,-0.748 z" transform="translate(108.457,35.5049)" id="path2956"/>
      <path style="fill:#ffec00;fill-rule:evenodd;stroke:none" d="M 7.3974,10.9297 11.9961,14.1279 10.3965,8.7305 14.7949,5.3984 9.2627,5.2656 7.3974,0 5.5312,5.2656 0,5.3984 4.3984,8.7305 2.7988,14.1279 7.3974,10.9297 z" transform="translate(68.4473,37.083)" id="path2958"/>
      <path style="fill:#161413;fill-rule:nonzero;stroke:none" d="m 9.0264,11.9512 3.497,2.4326 L 11.3047,10.2705 11.2119,9.96 11.4717,9.7627 14.7949,7.2451 10.6113,7.1445 10.2881,7.1367 10.1787,6.8301 8.7568,2.8164 7.334,6.8301 7.2256,7.1367 6.9014,7.1445 2.7187,7.2451 6.041,9.7627 6.3008,9.96 6.209,10.2705 4.9902,14.3848 8.4883,11.9512 8.7568,11.7647 9.0264,11.9512 z M 13.0859,15.9229 8.7568,12.9121 4.4277,15.9229 3.3271,16.6885 3.707,15.4043 5.2148,10.3174 1.0762,7.1826 0,6.3672 1.3486,6.335 6.5557,6.21 8.3135,1.252 8.7568,0 9.2002,1.252 10.957,6.21 l 5.208,0.125 1.3487,0.0322 -1.0762,0.8154 -4.1387,3.1348 1.5069,5.0869 0.3808,1.2842 -1.1006,-0.7656 z" transform="translate(67.0879,35.6748)" id="path2960"/>
      <path style="fill:#ffec00;fill-rule:evenodd;stroke:none" d="M 7.463,10.9297 12.062,14.1279 10.395,8.7969 14.861,5.3985 9.262,5.332 7.463,0 5.596,5.332 0,5.3985 4.464,8.7969 2.865,14.1279 7.463,10.9297 z" transform="translate(125.894,49.2119)" id="path2962"/>
      <path style="fill:#161413;fill-rule:nonzero;stroke:none" d="m 9.106,11.9883 3.471,2.414 L 11.32,10.3808 11.222,10.0674 11.484,9.8681 14.861,7.2978 10.63,7.247 10.298,7.2431 10.191,6.9248 8.829,2.8896 7.415,6.9306 7.305,7.2431 6.976,7.247 2.747,7.2978 6.124,9.8681 6.382,10.0654 6.29,10.376 l -1.212,4.04 3.49,-2.4277 0.268,-0.1875 0.27,0.1875 z M 13.167,15.959 8.837,12.9472 4.507,15.959 3.401,16.7295 3.788,15.4385 5.294,10.4179 1.088,7.2168 0,6.3877 1.368,6.372 6.636,6.3086 8.393,1.29 8.845,0 l 0.438,1.2959 1.691,5.0127 5.266,0.0634 1.368,0.0157 -1.088,0.8291 -4.203,3.1992 1.567,5.0166 0.41,1.3105 -1.127,-0.7841 z" transform="translate(124.52,47.7676)" id="path2964"/>
      <path style="fill:#ffec00;fill-rule:evenodd;stroke:none" d="m 7.4639,10.9287 4.5986,3.1992 -1.666,-5.332 L 14.8614,5.3975 9.2637,5.2646 7.4639,0 5.5977,5.2646 0,5.3975 4.4659,8.7959 2.8662,14.1279 7.4639,10.9287 z" transform="translate(52.2529,49.2793)" id="path2966"/>
      <path style="fill:#161413;fill-rule:nonzero;stroke:none" d="m 9.0879,11.9727 3.4707,2.4141 -1.2568,-4.0196 -0.0986,-0.3144 0.2627,-0.2002 3.3964,-2.585 L 10.6065,7.166 10.2793,7.1592 10.1719,6.8457 8.8106,2.8614 7.3965,6.8516 7.2871,7.1592 6.9639,7.166 2.709,7.2676 l 3.3965,2.585 0.2588,0.1972 -0.0938,0.3116 -1.2119,4.04 3.4912,-2.4287 0.2686,-0.1865 0.2695,0.1865 z M 13.1485,15.9453 8.8184,12.9336 4.4893,15.9453 3.3819,16.7159 3.7696,15.4239 5.2754,10.4034 1.0694,7.2022 0,6.3887 1.3438,6.3565 6.6172,6.2315 8.375,1.2735 8.8272,0 l 0.4365,1.2793 1.6924,4.9522 5.2715,0.125 1.3428,0.0322 -1.0684,0.8135 -4.2041,3.1992 1.5683,5.0176 0.4102,1.3115 -1.1279,-0.7852 z" transform="translate(50.8984,47.8486)" id="path2968"/>
      <path style="fill:#ffec00;fill-rule:evenodd;stroke:none" d="m 39.9939,15.2291 0.791,2.698 c 0.028,0.089 -0.1,-0.076 -0.133,-0.134 -0.464,-0.838 -0.41,-1.624 -0.658,-2.564 z m -0.639,2.361 0.297,0.603 -0.066,0 c -0.07,-0.195 -0.149,-0.397 -0.231,-0.603 z M 33.5879,3.2646 c 0.267,1.1338 -0.666,1.667 -1.399,1.667 -3.2651,0.1328 -6.2651,-1.7334 -9.3969,-0.6006 -0.9327,0.333 0.2666,-2.7324 1.7324,-2.4658 1.333,0.2666 2.3994,0.334 3.4658,-0.5322 L 26.5898,2.4648 C 28.1894,3.1318 30.123,3.5322 31.9219,2.999 31.5224,2.4648 29.9892,0.1328 28.457,1.0654 30.2558,0 32.1889,1.7324 33.5879,3.2646 z m 24.623,13.2265 c 0,0.006 -0.002,0.01 -0.003,0.016 0,10e-4 0,10e-4 0,0.002 -0.001,0.007 -0.002,0.015 -0.004,0.022 0,0.002 -10e-4,0.004 -10e-4,0.006 -10e-4,0.006 -0.002,0.011 -0.003,0.016 0,10e-4 0,10e-4 0,0.002 0,0 0,0 0,0.001 -0.006,0.035 -0.011,0.07 -0.016,0.106 -0.001,0.001 -0.001,0.002 -0.001,0.003 -10e-4,0.01 -0.002,0.019 -0.003,0.029 -0.001,0.003 -0.001,0.006 -0.002,0.009 0,0.003 -10e-4,0.005 -10e-4,0.007 -0.001,0.006 -0.001,0.011 -0.002,0.015 -10e-4,0.005 -0.002,0.011 -0.002,0.016 l 0,0.001 c -10e-4,0.002 -10e-4,0.004 -10e-4,0.006 -0.025,0.2 -0.043,0.415 -0.06,0.645 l -0.132,1.733 c -0.003,0.023 -0.005,0.048 -0.009,0.071 -0.011,0.66 -0.066,1.317 -0.259,1.928 -0.065,0.134 -0.132,0.2 -0.199,0.266 l -0.067,0 c 0.06,-0.316 0.087,-0.644 0.092,-0.981 -0.07,0.128 -0.145,0.255 -0.225,0.382 l -0.011,-0.011 -0.042,-0.042 -0.08,0.853 -0.046,-1.933 -0.114,-1.092 c -0.269,-0.911 -0.449,-1.832 -0.373,-2.773 l 0.465,-1.933 c 0.201,-0.467 0.8,-0.667 1.267,-0.399 0.068,0.028 0.131,0.067 0.185,0.112 0.113,0.038 0.219,0.1 0.312,0.182 0.221,0.07 0.407,0.216 0.503,0.439 0.042,0.12 0.085,0.24 0.128,0.361 0.024,0.01 0.049,0.023 0.072,0.038 0.209,0.126 0.292,0.382 0.308,0.688 0.137,0.057 0.224,0.218 0.224,0.379 0.025,0.236 0.054,0.479 0.087,0.726 0.125,0.367 0.21,0.74 0.264,1.116 0.052,0.25 0.092,0.502 0.116,0.757 0.013,0.252 0.004,0.502 -0.018,0.75 0.102,1.048 0.105,2.094 -0.182,3.048 -0.137,0.367 -0.307,0.607 -0.507,0.83 -0.031,0.146 -0.062,0.292 -0.092,0.436 l -0.067,0 -0.028,-0.24 c -0.008,0.008 -0.014,0.014 -0.022,0.021 l -0.083,0.353 -0.126,-0.656 c -0.071,0.175 -0.142,0.349 -0.208,0.522 l -0.045,-0.045 -0.017,-0.017 -0.004,-0.004 c 0.002,-0.01 0.004,-0.022 0.006,-0.032 0.072,-0.328 0.125,-0.654 0.163,-0.981 l -0.036,-0.187 0.055,0 c 0.039,-0.395 0.055,-0.79 0.057,-1.185 l -0.05,-0.416 -0.062,1.202 c 0,0.036 -0.016,0.139 -0.045,0.266 -0.076,0.333 -0.246,0.829 -0.489,0.732 0.134,-0.132 0.201,-0.399 0.201,-0.666 l -0.011,-1.093 -0.03,-3.108 -0.508,-1.103 c -0.063,-0.099 -0.129,-0.197 -0.199,-0.293 -0.007,0.033 -0.013,0.065 -0.02,0.097 z m -5.163,11.698 c -1.54,-3.388 -3.458,-6.836 -4.334,-10.494 -0.042,-0.069 -0.065,-0.152 -0.065,-0.235 0,-0.013 0,-0.026 0.001,-0.037 -0.403,-1.796 -0.547,-3.644 -0.267,-5.561 0.156,-1.095 0.432,-2.1893 0.843,-3.2186 l 0.29,-1.2461 c 0.051,-0.1553 0.182,-0.2305 0.332,-0.2256 0.566,-1.3593 1.425,-2.5547 2.733,-3.4404 1.617,-1.1123 3.925,-1.5713 5.876,-1.0313 0.076,-0.1748 0.266,-0.2314 0.455,-0.1679 0.258,0.2138 0.522,0.416 0.784,0.6162 1.242,0.416 2.219,1.6006 2.482,2.916 0.004,0.0195 0.008,0.04 0.012,0.0596 0.709,1.5615 0.926,3.3213 0.387,4.9381 -0.191,0.574 -0.485,0.977 -0.833,1.38 -0.012,0.073 -0.022,0.146 -0.033,0.219 l -0.066,0 c 0.004,-0.041 0.009,-0.081 0.014,-0.123 -0.111,0.127 -0.227,0.255 -0.347,0.391 l -0.067,0 c 0.151,-0.226 0.306,-0.452 0.453,-0.682 0.005,-0.041 0.011,-0.083 0.017,-0.124 -0.185,0.292 -0.413,0.549 -0.67,0.806 l -0.066,0 c 0.314,-0.406 0.598,-0.78 0.791,-1.206 0.122,-0.87 0.247,-1.7261 0.302,-2.5708 -0.105,-1.3652 -0.565,-2.6484 -1.127,-3.9268 -0.075,-0.0996 -0.152,-0.1972 -0.233,-0.2939 -0.549,-0.6709 -1.265,-1.1172 -1.943,-1.5967 -0.156,-0.0293 -0.309,-0.0527 -0.456,-0.0703 -1.999,-0.2002 -4.132,0.334 -5.732,1.5996 -0.744,0.542 -1.369,1.2168 -1.881,1.9795 -0.403,0.8574 -0.761,1.7647 -0.918,2.7529 l -0.4,7.8635 c 0,0.004 0,0.007 0,0.011 0.434,1.854 1.088,3.651 1.8,5.387 l 2.532,4.998 c 0.024,0.072 0.03,0.142 0.022,0.21 4.435,6.782 9.373,13.156 2.177,20.183 -1.666,1.266 -4.398,0.8 -6.064,1.399 0.667,1.8 1.467,4.532 3.999,4.798 l -2.199,0.401 c 4.797,0.866 0.533,5.796 3.665,7.863 -0.401,2.066 1.798,3.066 1.932,4.931 -1.932,2.799 -5.198,2.932 -7.397,5.131 -0.467,-0.666 -1.8,-0.666 -0.867,-1.532 0.4,-1.066 2.334,0 2.067,-1.666 -1.8,-0.533 -3.733,0.999 -4.799,1.8 l -0.133,-0.134 c 1.799,-2.199 6.33,-2.332 7.13,-5.932 1.134,-7.996 -7.13,-7.396 -9.862,-13.328 -2.532,1.4 -4.599,-1.265 -6.931,-1.799 -1.533,-2.333 -1.333,-3.199 -3.399,-4.798 -1.266,-3.332 1.599,-4.998 4.265,-5.664 l 0.534,-0.534 c -2.933,1.067 -7.3315,0.666 -9.6645,-1.799 -0.7324,-1 -1.1328,-1.933 -1.2656,-3.066 l 1.7998,1.666 c 1.7988,-1.932 1.666,-3.999 3.4653,-6.064 0.133,1.266 0.666,2.333 1.532,3.466 l 1.667,-1.666 c 0,1.798 -0.134,3.464 1.332,4.532 l 1.266,-2.6 c 3.999,5.531 7.131,14.861 15.595,14.861 2.599,-0.533 3.798,-2.999 4.798,-5.332 l 0,-4.598 c -1.27,-3.56 -3.229,-6.831 -5.036,-10.177 -0.133,-0.02 -0.253,-0.094 -0.295,-0.219 z m 9.281,-19.7399 c -0.005,0.0869 -0.012,0.1718 -0.018,0.2588 0.096,0.9668 0.022,1.9391 -0.333,2.8881 -0.044,0.117 -0.095,0.228 -0.152,0.334 -0.008,0.05 -0.016,0.101 -0.024,0.152 0.329,-0.536 0.598,-1.103 0.642,-1.753 0.022,-0.6475 -0.013,-1.2745 -0.115,-1.8799 z M 26.1904,6.7304 c 0.3291,0.128 0.7383,0.2862 1.1426,0.4834 L 27.457,6.997 27.3232,4.3984 28.79,4.7314 c 1.3994,0.333 1.0664,2.666 0.5332,3.5986 l 0.1328,0.1328 c 0.124,0.1954 -0.1201,0.1875 -0.5322,0.0743 0.1758,0.3593 0.2041,0.7754 0,1.2588 l -0.0674,0 C 28.5234,9.5302 28.3232,9.1298 27.9238,8.996 27.2568,8.663 26.5234,8.5957 25.7246,8.4628 25.2578,8.33 24.9248,7.8632 25.0576,7.33 25.124,6.8632 25.6572,6.5976 26.1904,6.7304 z m 15.4495,22.1257 c -0.242,0.33 -0.519,0.633 -0.855,0.867 -0.266,0.199 -0.598,0.266 -0.932,0.333 l -0.067,-0.067 0.228,-0.671 c -0.119,0.023 -0.24,0.046 -0.362,0.071 -0.078,0 -0.146,-0.022 -0.204,-0.059 l -0.062,0.059 -0.067,0 c 0.021,-0.022 0.042,-0.045 0.063,-0.068 -0.064,0 -0.13,10e-4 -0.195,10e-4 l 0,-0.066 c 0.049,-0.011 0.1,-0.023 0.149,-0.033 -0.034,-0.048 -0.062,-0.104 -0.083,-0.167 0,-0.152 0.077,-0.265 0.201,-0.34 -0.292,0.143 -0.531,0.428 -0.827,0.549 -1.189,0.484 -1.61,0.727 -1.64,2.99 -0.015,1.146 -1.2,-2.866 -0.533,-4.266 -0.092,-0.413 0.03,-0.637 0.252,-0.774 0.265,-0.678 0.695,-1.309 1.148,-2.025 0.132,-0.199 0.399,-0.199 0.533,-0.066 0.029,0.015 0.055,0.038 0.077,0.068 0.127,-0.087 0.291,-0.111 0.456,-0.002 0.133,0.067 0.199,0.333 0.133,0.467 -0.281,0.449 -0.526,0.862 -0.74,1.281 0.077,0.754 -0.353,1.653 0.473,2.184 1.401,-1.8 1.666,-3.998 1.933,-6.197 -2.733,1.666 -1.933,-3.733 -5.066,-2.666 -0.865,-0.534 -0.532,-1.733 -0.265,-2.466 3.264,-0.4 3.665,3.065 6.464,3.332 0.4,0.534 0.666,1.532 0.133,2.066 -1.716,0 -0.671,1.663 -0.669,2.869 0.096,-0.063 0.202,-0.108 0.315,-0.13 0.509,-0.57 1.101,-1.151 1.153,-1.939 0.068,-1.066 -0.399,-1.8 -0.732,-2.8 -0.067,-0.199 0,-0.399 0.134,-0.466 0.189,-0.127 0.378,-0.013 0.51,0.113 0.043,-0.03 0.097,-0.046 0.156,-0.046 0.2,-0.067 0.399,0.066 0.399,0.266 0,0.002 0,0.004 0,0.005 0.022,-0.003 0.044,-0.005 0.066,-0.005 0.201,-0.066 0.401,0.133 0.401,0.333 -0.015,0.26 -0.027,0.529 -0.036,0.804 0.143,2.117 0.586,4.736 -1.297,6.195 -0.237,0.197 -0.486,0.346 -0.745,0.466 z m 0.559,-2.86 c 0.035,0.016 0.069,0.033 0.1,0.052 0.086,-0.143 0.165,-0.288 0.235,-0.437 l -0.335,0.385 z m -2.775,-8.898 c -0.001,0.005 -0.001,0.011 -0.002,0.017 -0.036,0.275 -0.022,0.348 0.098,0.611 l 0,0.067 c -0.053,-0.067 -0.109,-0.135 -0.165,-0.203 0,0 0,0 0,-0.001 -0.005,0.037 -0.01,0.074 -0.015,0.111 0.097,0.228 0.203,0.457 0.312,0.692 l -0.066,0 c -0.141,-0.178 -0.27,-0.355 -0.39,-0.532 l -0.009,0 c -0.006,-0.013 -0.012,-0.027 -0.018,-0.04 -0.199,-0.3 -0.366,-0.601 -0.494,-0.923 -0.098,-0.164 -0.198,-0.328 -0.299,-0.492 -0.458,-0.601 -0.85,-1.253 -0.923,-1.944 -0.019,-0.059 -0.015,-0.112 0.004,-0.155 -0.098,-0.911 0.309,-1.699 0.662,-2.644 0.268,-0.399 0.867,-0.533 1.267,-0.267 0.236,0.135 0.388,0.357 0.444,0.603 0.029,-0.001 0.059,-0.003 0.089,-0.003 0.031,-0.009 0.062,-0.017 0.091,-0.023 -0.051,-0.167 0.062,-0.32 0.177,-0.376 0.199,-0.068 0.399,0 0.465,0.199 0.004,0.012 0.008,0.024 0.012,0.037 0.01,0.006 0.018,0.012 0.027,0.018 0.009,0.003 0.019,0.007 0.028,0.012 0.188,0.063 0.317,0.243 0.275,0.432 0.272,0.422 0.318,1.11 0.591,1.501 l -0.112,0.701 c 0.056,0.293 0.096,0.592 0.112,0.898 -0.133,1.155 -0.267,2.311 -0.4,3.465 l -0.042,-1.094 -0.091,-2.371 -0.042,-0.14 c -0.069,-0.048 -0.14,-0.099 -0.211,-0.15 0.017,0.674 0.036,1.349 0.054,2.023 l -0.068,0 -0.514,-2.379 c -0.057,-0.035 -0.114,-0.068 -0.171,-0.101 l -0.097,0.337 -0.374,1.3 0.023,0.176 c 0.06,0.241 0.066,0.699 -0.228,0.638 z m 4.893,-2.704 -0.312,2.035 0.18,1.498 0.266,2.999 -0.312,-1.145 -0.022,0.011 c -0.13,-0.187 -0.262,-0.371 -0.393,-0.555 l 0.128,1.022 -0.017,0.016 0.083,0.184 0,0.066 c -0.733,-0.866 -1.267,-1.732 -1.333,-2.931 l 0.03,-0.299 c -0.01,-0.034 -0.02,-0.068 -0.03,-0.102 -0.267,-1 -0.134,-2 -0.134,-2.998 0.067,-0.534 0.534,-0.933 1.067,-0.867 0.466,0.066 0.866,0.533 0.799,1.066 z m -1.061,4.17 c -0.033,-0.05 -0.065,-0.101 -0.098,-0.152 0.034,0.236 0.087,0.475 0.159,0.714 l 0.321,0.71 -0.382,-1.272 z m -8.802,-12.9665 0.202,0.4414 c 0.379,-0.2519 0.778,-0.4912 1.196,-0.625 0.089,-0.1025 0.233,-0.1318 0.379,-0.0898 0.288,-0.044 0.585,-0.0283 0.889,0.0732 0.034,0.0147 0.067,0.0283 0.098,0.044 -0.011,-0.0147 -0.021,-0.0293 -0.031,-0.044 -0.133,-0.1338 0,-0.3994 0.133,-0.4658 0.201,-0.0674 0.4,0 0.534,0.2002 0.388,0.665 1.006,1.2842 1.356,1.9726 0.048,-0.0478 0.108,-0.0849 0.176,-0.1074 0.096,-0.0488 0.228,-0.0273 0.319,0.0655 l 0.214,-0.1319 c 0.046,0 0.089,0.001 0.133,0.002 10e-4,-10e-4 10e-4,-10e-4 10e-4,-0.002 0.134,-0.1338 0.399,-0.1338 0.533,-0.0674 0.103,0.1035 0.21,0.2032 0.318,0.3047 0.136,0.0762 0.273,0.1738 0.414,0.2959 l -0.105,0 c 0.334,0.335 0.623,0.7031 0.705,1.1992 0.067,0.2666 0,0.5332 0,0.7998 l -0.066,0 c -0.4,-1 -0.8,-1.3994 -1.665,-1.999 l -0.268,0 0,0.5332 0.467,2.7991 -0.068,0 -0.399,-1.1106 0,0.1104 c -0.544,-0.502 -1.483,-1.584 -2.354,-1.8555 l 1.155,1.2558 0,0.0664 -1.972,-1.2802 c -0.206,0.1084 -0.394,0.3037 -0.56,0.6133 -0.64,-0.0909 -1.247,-0.6514 -1.696,-1.1875 -0.168,0 -0.337,-0.0215 -0.504,-0.0782 l -0.867,-0.4668 c -0.333,-0.333 -0.333,-0.9326 0,-1.2656 0.401,-0.4004 1,-0.4004 1.333,0 z m 0.585,1.2764 0.114,0.25 c 0.079,-0.0049 0.155,-0.0127 0.233,-0.0244 L 35.0389,6.874 z m -2.075,9.4701 c -0.369,-0.029 -0.673,-0.173 -0.909,-0.55 -0.115,-0.149 -0.194,-0.318 -0.246,-0.498 -0.263,-0.235 -0.4593,-0.507 -0.4867,-0.835 -0.0673,-0.734 0.5337,-1.267 0.8667,-1.8 0.133,-0.133 0.333,-0.133 0.466,0 0.034,0.022 0.062,0.047 0.084,0.072 0.016,-0.003 0.033,-0.005 0.049,-0.005 0.2,0 0.401,0.201 0.401,0.4 0.078,0.543 0.224,1.11 0.305,1.673 0.153,0.686 0.203,1.373 -0.039,2.059 -0.014,-0.08 -0.028,-0.159 -0.045,-0.237 0.031,0.229 0.045,0.477 0.045,0.77 -0.083,-0.248 -0.183,-0.486 -0.293,-0.721 l 0.027,0.255 -0.068,0 -0.157,-0.583 z m 7.251,12.129 c -0.03,-0.029 -0.057,-0.064 -0.077,-0.106 l -0.019,0.023 -0.066,0 0.031,-0.053 c -0.169,0.128 -0.352,0.237 -0.542,0.334 0.015,-0.005 0.028,-0.01 0.044,-0.015 0.17,-0.018 0.339,-0.04 0.508,-0.063 0.04,-0.04 0.081,-0.08 0.121,-0.12 z m -2.232,-2.263 c -0.196,0.262 -0.379,0.516 -0.551,0.774 0.084,-0.017 0.166,-0.035 0.248,-0.056 l 0.303,-0.718 z m -9.3267,2.979 c 0.0137,-0.347 0.0703,-0.685 0.2676,-1 l 1.332,-1.399 c 0.0352,-0.035 0.0752,-0.061 0.1182,-0.078 l 0.0156,-0.056 c 0.1328,-0.133 0.333,-0.199 0.5332,-0.133 0.1328,0.133 0.2002,0.333 0.0664,0.533 -0.5693,1.203 -0.7783,2.344 -1.0263,3.656 0.1025,0.496 0.083,1.003 -0.2403,1.543 -1.1328,1.666 -1.999,-0.8 -3.3984,-0.268 l -0.9336,2.6 c -1.1318,-2.466 -6.0645,-1.333 -3.0654,-4.932 l 5.1318,-4.265 c 1.8662,1.4 -1.5332,2.866 0.7324,4.265 l 0.4668,-0.466 z m 1.2559,-0.839 c -0.1709,0.238 -0.3311,0.48 -0.4756,0.731 0.1113,0.392 0.2734,0.775 0.3984,1.16 l -0.0459,-1.452 0.1231,-0.439 z m 3.6128,-18.5796 0.196,1.4926 -0.067,0 -0.611,-1.5297 -0.055,-0.004 -0.799,-1.8662 0.339,-0.3398 c -0.028,-0.1055 -0.053,-0.2149 -0.073,-0.3262 0,-0.2002 0.134,-0.334 0.333,-0.334 0.2,0 0.333,0.1338 0.333,0.334 0.019,0.1436 0.046,0.2832 0.078,0.419 l 0.789,1.3798 -0.133,0.7999 -0.068,-0.0049 c 0.007,0.1093 0.008,0.2226 10e-4,0.3379 -0.056,-0.1192 -0.114,-0.2364 -0.175,-0.3516 l -0.088,-0.0068 z m -2.4566,2.9026 -1.1455,2.188 -0.0664,0 c 0.1328,-1.134 0.4658,-2 0.8662,-3.066 0.001,-0.003 0.003,-0.005 0.003,-0.008 -0.2081,-1.151 -0.9131,-2.3565 0.9296,-2.9239 0.3457,1.208 0.3927,2.7639 -0.5869,3.8099 z m 6.1076,-0.296 -0.722,3.35 0,-2.279 -1.066,-0.32 1.332,-3.9983 c 1.11,0.8203 0.857,2.1313 0.456,3.2473 z m -2.455,-0.049 c 0.2,0.934 1,2.466 0.2,3.333 l -0.066,0 -1.333,-3.399 c 0,-0.004 0,-0.007 10e-4,-0.011 l -0.202,-0.256 0.287,0 c 0.059,-0.079 0.143,-0.133 0.247,-0.133 0.108,-0.055 0.262,0.025 0.351,0.164 0.016,-0.011 0.032,-0.022 0.049,-0.031 0.199,0 0.399,0.133 0.466,0.333 z m 4.807,3.225 0.018,0.123 0.186,-1.199 0,0 -0.12,0.429 -0.084,0.647 z m -1.811,-9.478 c -0.188,-0.0996 -0.378,-0.1904 -0.574,-0.2529 0.243,0.1358 0.49,0.2793 0.726,0.4326 -0.051,-0.0595 -0.101,-0.1191 -0.152,-0.1797 z m -1.833,-0.1328 c -0.042,0.0215 -0.082,0.044 -0.123,0.0674 0.15,0.0195 0.293,0.0479 0.429,0.083 -0.068,-0.0322 -0.135,-0.0635 -0.203,-0.0957 -0.039,-0.0127 -0.074,-0.0322 -0.103,-0.0547 z m -6.9601,20.4478 0.0928,-0.262 c -0.0996,-0.034 -0.1602,-0.138 -0.1602,-0.272 -0.0664,-1.065 0.5996,-2.065 1.0664,-2.998 0.0606,-0.061 0.1367,-0.094 0.2129,-0.099 0.3389,-0.517 0.7549,-0.962 1.3203,-1.301 0.3729,-0.224 0.6629,-0.322 0.9749,-0.377 0.66,-0.746 1.41,-1.061 2.69,0.31 l 0.799,0.667 c 0.8,3.066 -1.266,4.865 -1.932,7.331 0.389,-1.492 1.723,-4.496 -0.473,-6.867 l -0.326,3.534 -0.09,-1.451 -0.111,1.718 -0.073,-0.648 0.007,0.181 -0.768,-3.187 c -0.183,0.068 -0.363,0.19 -0.5426,0.327 0.0205,0.125 -0.0254,0.241 -0.1553,0.328 -0.6035,0.553 -1.1318,1.068 -1.5254,1.746 l -0.208,0.986 -0.0664,0 c -10e-4,-0.012 -0.0019,-0.026 -0.0029,-0.04 l -0.0635,0.574 c 0,0.133 -0.2002,0.266 -0.4004,0.266 -0.1992,-0.066 -0.333,-0.266 -0.2656,-0.466 z m 0.1348,-0.38 0.4267,-1.194 c -0.207,0.381 -0.372,0.779 -0.4297,1.174 0,0.008 0.002,0.014 0.003,0.02 z m 2.9573,-4.405 c -0.249,0.151 -0.4808,0.326 -0.7015,0.537 0.1035,-0.034 0.2149,-0.036 0.2979,0.014 0.1367,-0.183 0.2706,-0.37 0.4036,-0.551 z m 8.57,-15.4743 c 0.582,0.3106 1.096,0.4844 1.647,0.5889 0.126,-0.0137 0.247,-0.0352 0.352,-0.0557 l 0,0.0664 c -0.029,0.0117 -0.06,0.0225 -0.089,0.0342 0.318,0.0479 0.653,0.0771 1.022,0.0986 l 0,0.0674 -1.6,0.1992 c -0.136,0 -0.272,-0.0136 -0.408,-0.0361 C 41.3439,7.1044 41.1719,7.08 40.9849,6.997 L 40.5169,6.8242 C 40.4029,6.79 40.2939,6.7578 40.1869,6.7304 40.1599,6.7177 40.1359,6.6992 40.1149,6.6767 l -0.396,-0.1465 c -0.199,0 -0.333,-0.1992 -0.266,-0.3994 0.067,-0.2002 0.266,-0.333 0.466,-0.2666 0.137,0.0586 0.272,0.1397 0.41,0.2285 0.082,-0.0078 0.169,0.0088 0.257,0.0381 z m -2.133,-4.5322 c 0.8,-0.0664 1.266,0.2002 1.933,0.5332 l 0,0.0674 c -0.455,0 -0.873,-0.0381 -1.31,9e-4 0.817,0.3096 1.641,0.6524 2.509,0.5987 l 0,0.0664 c -0.8,0.667 -2.199,0.0674 -3.065,-0.1328 -0.201,0 -0.401,-0.1338 -0.401,-0.334 0.029,-0.082 0.067,-0.165 0.117,-0.2334 -0.02,-0.0283 -0.038,-0.0615 -0.049,-0.0986 -0.068,-0.2012 0.066,-0.4004 0.266,-0.4678 z m 6.464,6.0644 c 1,0.667 0.8,1.7334 0.533,2.7331 -0.133,-0.6002 -0.133,-1.7331 -0.8,-2.0661 -0.199,-0.0664 -0.266,-0.2666 -0.199,-0.4668 0.133,-0.2002 0.333,-0.2656 0.466,-0.2002 z m -8.13,-4.7978 1.067,1.666 -1.466,-1.0664 c -0.134,-0.1328 -0.2,-0.333 -0.068,-0.5322 0.134,-0.1338 0.333,-0.2002 0.467,-0.0674 z m 3.266,1.1328 c -1,-0.2002 2.532,-0.5332 2.731,0.4004 0.201,0.999 -0.199,1.4658 -0.199,1.4658 0,0 -1.533,-1.666 -2.532,-1.8662 z m -5.332,-3.332 2.333,-0.5996 0.866,0.667 -3.199,-0.0674 z m -21.1926,68.9081 -1.2656,-0.533 1.5322,-1.666 c -0.1328,0.733 -0.2666,1.399 -0.2666,2.199 z m 14.4619,-13.061 c -1.5322,1.265 -2.999,2.199 -2.4658,4.531 -3.0654,1.932 -0.5332,7.197 -4.9981,7.73 -0.1338,0.667 -0.9326,1.133 -1.333,1.666 -0.3994,0 -0.5332,-0.533 -1.1328,-0.266 -0.5332,-0.733 0.3994,-1.266 0.5996,-1.933 -1.5332,-1.266 -2.0664,2.466 -3.7314,0.8 0.1328,-3.265 4.7978,-1.066 5.9306,-3.998 1.7325,-4.266 0.1338,-10.597 5.1983,-13.063 l 5.331,-3.731 c -0.999,2.731 -2.665,5.398 -3.3984,8.264 z M 2.0664,26.9231 c 0,0.533 -0.9336,1.066 -1.333,1.599 C 0,28.3901 0.334,27.7231 0.334,27.1901 c 0.5322,0 1.1992,-1 1.7324,-0.267 z m 15.4609,0.267 -0.2666,1.932 c -2.5996,1.467 -4.3984,-2.066 -6.9307,0 l -0.5332,-0.6 c -0.5332,1 -0.7998,2.799 -2.332,1.8 -0.667,-0.667 0.2656,-2.199 -0.7998,-2.866 -1.1338,0.667 -2.0664,2.199 -3.7324,1.666 -0.5332,-1.666 2.0654,-2.665 3.4648,-3.066 3.2666,2.2 7.9317,0 11.1299,1.134 z m 5.3975,0.266 c -1.2656,1.066 -3.4649,0.4 -3.9981,2.466 l -0.8662,-0.267 c 0.7334,-3.865 5.2647,-3.731 7.4639,-6.464 0.666,1.933 -1.1328,2.999 -2.5996,4.265 z m 0.8662,-6.731 c 0.2002,1.867 -1.6651,2.466 -2.6651,3.266 -0.2001,-0.6 1,-3.266 2.6651,-3.266 z m 2.7988,-1.333 c -0.1318,1.267 -0.666,2.4 -1.9316,2.933 0.666,-1 0.7998,-2.6 1.9316,-2.933 z m -5.0644,-0.466 c 0.1338,0.799 -0.7998,1.2 -1.5323,1.066 l -1.0664,0 c -0.2666,-1.066 1.5996,-1.066 2.5987,-1.066 z m -1.7989,2.465 c -0.5332,3.2 -4.2656,0.401 -6.1982,1.266 0.1338,-1.266 -2.8652,-2.065 -0.9326,-3.465 -1.9326,-1.399 -2.9317,1.267 -4.5987,1.4 -0.2666,-0.734 -0.7998,-1.132 -0.5322,-1.933 l 1.5322,-1.133 c -1.9326,-1.799 -4.665,3.733 -4.665,-0.399 1.8662,-1.267 5.0654,0 7.1309,0 2.999,1.265 4.9316,4.264 8.2636,4.264 z m 11.9287,-4.264 0.5337,0 c 1.399,2.731 -2.4663,2.731 -2.5991,4.931 -1,0.267 -1.4668,-1.466 -1.4004,-2.066 0.8662,-1.6 0.4004,-2.999 2.333,-3.998 0.2666,0.466 0.6006,0.999 1.1328,1.133 z m -3.9316,0.666 c -1.1338,-1.199 -2.333,0.266 -3.1992,-1.199 -0.1328,-3.066 2.1992,-0.134 3.1992,-2.2 -1.9326,2.466 2.5322,1.333 0,3.399 z m 17.2593,-5.465 0.267,0 0,2.066 -0.267,0 0,-2.066 z m -1.065,-5.3975 c 0,0.2666 -0.134,0.3994 -0.267,0.5332 l -0.599,0 0.866,-0.5332 z" transform="translate(68.2471,89.7979)" id="path2970"/>
    </g>
  </g>
</svg>