<svg xmlns="http://www.w3.org/2000/svg" xmlns:xlink="http://www.w3.org/1999/xlink" version="1.1" id="Ebene_1" x="0px" y="0px" width="248.038px" height="400px" viewBox="0 0 248.038 400" enable-background="new 0 0 248.038 400" xml:space="preserve">
<path fill-rule="evenodd" clip-rule="evenodd" d="M241.216,140.73H3.898c-1.035,0-2.026,0.347-2.757,0.966  C0.411,142.313,0,143.153,0,144.026l0.008,69.103c0,1.071,0.616,2.078,1.65,2.694l3.094,1.847  c6.995,4.177,23.267,19.52,23.267,71.622c0.004,0.345,0.537,31.129,12.385,54.857c15.875,31.795,43.42,50.521,81.867,55.657  l1.141,0.153c0.401,0.054,0.813,0.054,1.212,0l1.138-0.151c38.452-5.139,65.997-23.864,81.874-55.659  c11.762-23.558,12.377-54.377,12.384-54.686c0-52.262,16.272-67.615,23.267-71.794l3.092-1.847c1.036-0.616,1.649-1.623,1.649-2.691  l0.011-69.105c0-0.874-0.408-1.713-1.142-2.331c-0.731-0.619-1.721-0.966-2.754-0.966H241.216L241.216,140.73z"/>
<path fill-rule="evenodd" clip-rule="evenodd" fill="#FFFFFF" d="M240.244,147.322c0,5.826-0.01,61.011-0.01,64.1  c-0.718,0.43-1.444,0.862-1.444,0.862c-9.922,5.924-26.565,23.825-26.565,77.137c-0.006,0.249-0.648,29.886-11.771,52.161  c-14.759,29.557-40.295,46.956-75.904,51.712c0,0-0.266,0.036-0.531,0.071c-0.264-0.035-0.532-0.071-0.532-0.071  c-35.607-4.756-61.144-22.152-75.902-51.712c-11.201-22.431-11.766-52.029-11.771-52.329l0,0c0-53.159-16.643-71.045-26.565-76.971  c0,0-0.727-0.431-1.445-0.862c0-3.09-0.007-58.272-0.008-64.098C15.305,147.322,238.34,147.322,240.244,147.322L240.244,147.322z"/>
<path fill-rule="evenodd" clip-rule="evenodd" d="M232.449,153.917c0,5.119-0.009,50.835-0.009,54.169  c-13.201,8.906-28.01,30.259-28.01,81.253c-0.005,0.233-0.585,28.506-11.158,49.679c-13.542,27.123-36.847,43.144-69.254,47.655  c-32.406-4.512-55.712-20.532-69.254-47.655c-10.575-21.178-11.152-49.487-11.157-49.771c0,0,0,0,0-0.003  c0-50.909-14.811-72.253-28.01-81.157c-0.001-3.238-0.005-47.858-0.005-54.169C23.857,153.917,224.182,153.917,232.449,153.917  L232.449,153.917z"/>
<path fill-rule="evenodd" clip-rule="evenodd" fill="#FFFFFF" d="M91.619,169.294c0,0,13.992,20.379,15.198,22.136  c0,1.862,0,27.877,0,33.188c-5.46,0-28.625,0-30.468,0c-1.699-1.162-21.354-14.614-21.354-14.614v62.888  c0,0,19.655-13.449,21.354-14.611c1.842,0,25.008,0,30.468,0c0,6.619,0,67.483,0,69.635c-1.181,1.74-14.743,21.74-14.743,21.74  h63.501c0,0-13.563-20-14.742-21.74c0-2.151,0-63.016,0-69.635c5.459,0,29.015,0,30.856,0c1.698,1.162,21.354,14.611,21.354,14.611  v-62.888c0,0-19.655,13.452-21.354,14.614c-1.842,0-25.397,0-30.856,0c0-5.311,0-31.325,0-33.188  c1.204-1.757,15.198-22.136,15.198-22.136H91.619L91.619,169.294z"/>
<path fill-rule="evenodd" clip-rule="evenodd" fill="#E23226" d="M172.846,229.036h-36.374v-38.812l11.733-16.513H99.444  l11.734,16.513v38.812H75.192l-15.835-11.232v47.291l15.835-11.233h35.987v75.247L99.85,345.236h47.951l-11.329-16.128v-75.247  h36.374l15.836,11.233v-47.291L172.846,229.036L172.846,229.036z M172.679,244.095H126.4v85.168h-5.148v-85.168H75.359v-5.149  h45.893v-47.843h5.148v47.843h46.279V244.095L172.679,244.095z"/>
<path fill-rule="evenodd" clip-rule="evenodd" fill="#FFFFFF" d="M165.581,298.821c-3.863,0-7.088-1.17-9.671-3.508  c-2.714-2.451-4.069-5.686-4.069-9.702c0-3.825,1.273-7.776,3.818-11.849c2.829-4.525,6.017-6.788,9.562-6.788  c1.847,0,3.912,0.434,6.194,1.298c2.885,1.109,4.33,2.463,4.33,4.059c0,0.716-0.238,1.35-0.709,1.905  c-0.472,0.554-1.056,0.831-1.754,0.831c-0.547,0-1.022-0.162-1.427-0.489c-0.407-0.326-0.798-0.648-1.174-0.967  c-1.113-0.878-2.932-1.315-5.459-1.315c-1.925,0-3.829,1.716-5.714,5.146c-1.716,3.147-2.574,5.87-2.574,8.17  c0,2.49,0.849,4.45,2.545,5.882c1.58,1.338,3.616,2.007,6.105,2.007c1.129,0,2.336-0.298,3.618-0.894l3.276-1.731  c0.564-0.296,0.972-0.446,1.216-0.446c0.698,0,1.301,0.277,1.81,0.831c0.509,0.556,0.765,1.188,0.765,1.9  c0,1.371-1.451,2.695-4.356,3.972C169.368,298.257,167.256,298.821,165.581,298.821L165.581,298.821z"/>
<path fill-rule="evenodd" clip-rule="evenodd" fill="#FFFFFF" d="M85.511,216.274c-3.864,0-7.087-1.169-9.67-3.508  c-2.713-2.449-4.071-5.683-4.071-9.701c0-3.826,1.272-7.777,3.82-11.849c2.828-4.524,6.015-6.788,9.56-6.788  c1.849,0,3.914,0.432,6.196,1.296c2.885,1.111,4.329,2.465,4.329,4.062c0,0.714-0.237,1.348-0.708,1.903  c-0.471,0.555-1.055,0.832-1.752,0.832c-0.548,0-1.024-0.163-1.429-0.489c-0.405-0.328-0.796-0.649-1.172-0.969  c-1.114-0.875-2.933-1.315-5.459-1.315c-1.924,0-3.829,1.715-5.713,5.146c-1.717,3.149-2.574,5.873-2.574,8.172  c0,2.489,0.848,4.449,2.545,5.881c1.582,1.338,3.616,2.007,6.104,2.007c1.131,0,2.337-0.296,3.618-0.892l3.278-1.733  c0.565-0.298,0.969-0.446,1.216-0.446c0.696,0,1.299,0.277,1.808,0.831c0.508,0.554,0.764,1.187,0.764,1.9  c0,1.371-1.452,2.696-4.354,3.972C89.299,215.712,87.188,216.274,85.511,216.274L85.511,216.274z"/>
<path fill-rule="evenodd" clip-rule="evenodd" fill="#FFFFFF" d="M167.036,189.719c1.599,1.078,2.396,2.36,2.396,3.851  c0,2.101-0.84,3.77-2.521,5.006c-1.536,1.132-3.423,1.695-5.663,1.695l-2.203-0.258l0.436-7.94l0.043-3.669  c0.319-0.053,0.709-0.093,1.169-0.12c0.458-0.026,0.982-0.04,1.569-0.04C163.964,188.243,165.556,188.736,167.036,189.719  L167.036,189.719z M169.336,201.449c2.501-1.956,3.752-4.587,3.752-7.892c0-2.584-1.174-4.794-3.521-6.633  c-2.134-1.663-4.421-2.496-6.859-2.496c-1.149,0-2.116,0.035-2.902,0.101c-0.785,0.065-1.394,0.166-1.818,0.299  c-1.003-0.16-1.656,0.346-1.961,1.517c-0.142,0.6-0.213,1.558-0.213,2.875v2.755c-0.026,1.665-0.171,4.42-0.436,8.267  c-0.24,3.554-0.36,6.311-0.36,8.267v5.869c0,0.534,0.176,0.98,0.521,1.348c0.347,0.366,0.786,0.549,1.32,0.549  c0.518,0,0.951-0.183,1.296-0.549c0.349-0.365,0.521-0.813,0.521-1.348c0-5.025,0.052-8.543,0.158-10.551  c1.251,0.174,2.063,0.261,2.436,0.261C164.411,204.088,167.1,203.207,169.336,201.449L169.336,201.449z"/>
<path fill-rule="evenodd" clip-rule="evenodd" fill="#FFFFFF" d="M88.725,282.855c-3.276,0.587-5.719,1.087-7.328,1.498l5.689-9.208  L88.725,282.855L88.725,282.855z M95.551,297.369c0.414-0.382,0.62-0.859,0.62-1.431c0-0.358-0.193-1.074-0.58-2.149l-1.138-3.143  l-2.975-13.886l-1.259-6.714c-0.386-1.465-1.104-2.198-2.156-2.198c-0.772,0-2.735,2.524-5.889,7.577  c-2.315,3.702-4.23,6.98-5.748,9.833c-1.304,0.307-1.955,0.997-1.955,2.078c0,0.453,0.111,0.851,0.338,1.197  c-2.008,4.221-3.013,6.65-3.013,7.288c0,0.574,0.21,1.054,0.629,1.44c0.418,0.385,0.895,0.578,1.427,0.578  c0.731,0,1.31-0.373,1.737-1.118c1.643-3.365,2.804-5.921,3.484-7.668l5.255-1.082c2.172-0.474,3.93-0.803,5.273-0.987  c0.535,2.989,0.98,5.083,1.337,6.279c0.905,3.122,1.97,4.683,3.195,4.683C94.667,297.947,95.139,297.754,95.551,297.369  L95.551,297.369z"/>
<path fill-rule="evenodd" clip-rule="evenodd" d="M241.425,80.384l-3.024-0.169c-31.175-1.75-37.163-3.912-41.973-5.648  c-1.689-0.611-3.283-1.186-5.759-1.653c-16.308-3.081-26.261,6.148-28.083,8.021c-0.291-0.059-0.478-0.096-0.871-0.176  c0.096-1.037,0.439-4.842,0.495-5.443c0.616-0.387,11.829-7.418,11.829-7.418s-1.271-4.447-1.558-5.453  c0.364-0.165,4.103-1.864,4.103-1.864s0.735-3.685,0.82-4.105c0.333-0.323,11.642-11.268,11.929-11.545  c0.354-0.088,3.174-0.792,3.174-0.792l10.155-10.385l-1.864,0.014l-12.191,0.084l-14.719,0.113l-0.031,0.003  c-18.005,1.531-25.242,4.504-25.885,4.783c-6.872,1.57-11.993,5-15.218,10.201c-3.146,5.067-3.95,10.889-3.95,15.521  c0,3.504,0.46,6.326,0.718,7.631c-0.931,0.225-1.842,0.407-2.714,0.531c-0.948-2.485-1.476-5.777-1.476-9.379  c0-5.723,1.325-12.228,4.381-17.52c3.519-6.099,8.849-9.737,15.412-10.521l0.685-0.082c0,0,0-2.7,0-3.433  c0.718-0.299,4.832-2.014,4.832-2.014l-1.763-0.708c-1.516-0.609-3.677-1.939-3.677-2.931c0-0.013,0-0.027,0.003-0.04  c0.215-0.598,2.251-5.687,10.152-8.319l0.282-0.094l2.785-4.88c0,0-2.214-0.171-3.202-0.249c1.202-1.063,2.798-2.475,2.798-2.475  L163.091,0l-2.276,1.328c-0.127,0.072-12.803,7.475-25.39,15.698c-24.923,16.289-26.004,20.39-26.138,21.773  c-0.218,0.521-0.973,2.538-0.973,5.466c0,3.637,1.187,8.663,6.021,13.912c0.029,0.366,0.6,7.474,0.878,10.916  C89.336,49.61,56.245,41.576,55.912,41.496l-0.026-0.007l-0.028-0.003c-7.636-1.245-12.699-0.628-15.046,1.829  c-0.619,0.649-0.951,1.33-1.127,1.938l-0.037-0.169c-8.211,3.025-8.057,3.824-7.942,4.409c0.157,0.804,1.17,0.804,1.502,0.804  c3.034,0,5.599,0.114,6.823,0.18l0.019,0.136l0.753-0.09c4.57-0.546,7.149,2.031,7.257,2.141l0.263,0.269l0.376-0.038  c17.088-1.81,33.212,7.586,43.729,15.785c11.302,8.811,18.72,18.153,18.988,18.494c11.96,19.776,25.93,28.328,35.549,32.018  c8.633,3.312,15.259,3.425,17.504,3.345c0.02,0.763,0.04,1.718,0.042,1.852c-0.091,0.397-0.869,3.259-3.963,3.259h-0.033  l-12.4,1.017l-5.426,4.374c0,0,3.837,0.479,4.604,0.83c-0.527,0.702-2.147,2.86-2.147,2.86s3.407-0.038,3.503-0.039  c0.071,0.009,1.561,0.182,2.561,0.3c-0.22,0.658-0.191,0.496-0.831,3.654l4.803,0.16c0,0,2.548-3.183,3.105-3.59  c0.375,0.152,3.282,2.464,4.787,3.472c1.245,0.833,1.158,0.409,1.158,0.409s1.736-9.014,1.787-9.212  c0.434-0.749,4.959-8.215,12.714-8.215c0,0,8.23,0.172,9.03,0.189c0.229,0.4,0.796,1.393,0.796,1.393s16.103,0,16.21,0  c0.347,0.038,1.326,0.257,1.558,0.807c0.038,0.087,0.056,0.188,0.056,0.299c0,0.418-0.27,1.002-0.751,1.667  c-0.745-0.042-6.828,0.006-6.828,0.006l-5.475,0.513c0,0,3.818,3.409,5.184,4.214c-1.054,0.586-4.313,2.395-4.313,2.395  s5.039,0.84,6.14,1.023c-0.194,0.953-0.787,4.617-0.787,4.617l4.234-0.03c0,0,1.965-4.131,2.073-4.367  c0.629-0.605,4.541-4.266,8.695-5.65c1.329-0.443,2.021-1.11,2.045-1.979c0-0.015,0-0.029,0-0.043c0-1.869-3.461-3.486-5.065-4.136  c-3.266-2.405-11.569-9.321-11.867-13.216l-0.004-0.047c0,0-0.418-2.086-0.629-3.138c1.204-0.093,4.733-0.365,4.733-0.365  s0.872-2.031,1.158-2.7c0.932,0.048,7.624,0.401,7.624,0.401s0.809-3.636,0.889-3.996c0.225-0.246,3.639-3.967,4.001-4.363  c0.486-0.034,3.252-0.232,3.252-0.232s-0.287-3.016-0.392-4.092c1.322,0,6.922,0,6.922,0s0.295-1.779,0.404-2.44  c0.815-0.091,3.245-0.361,3.245-0.361l2.587-2.589c0,0-1.009-1.766-1.458-2.556C233.217,84.306,241.425,80.384,241.425,80.384  L241.425,80.384z"/>
<path fill-rule="evenodd" clip-rule="evenodd" fill="#FFFFFF" d="M110.758,39.312l0.066-0.26  c0.396-5.02,28.395-23.195,48.493-35.044c-1.098,2.163-3.234,4.843-3.323,5.017c-0.211,0.187-6.49,4.708-6.49,4.708  s3.677,0.256,4.806,0.343c-0.54,0.943-0.731,1.96-0.896,2.249c-8.913,3.089-11.582,9.046-11.66,9.301l-0.024,0.89  c-0.016,0.107,2.432,2.367,3.805,3.134c-0.971,0.404-3.606,1.018-3.606,1.018s1.94,2.296,1.94,3.129  c-6.748,1.01-11.852,4.841-15.501,11.164c-3.219,5.576-5.391,12.283-5.391,18.232c0,3.632,0.133,6.979,1.077,9.619  c-5.187,0.442-6.142-0.518-7.433-1.98l0.292-0.023l-1.069-13.274l-0.187-0.199c-4.68-4.982-5.788-9.718-5.788-13.087  C109.868,41.355,110.684,39.475,110.758,39.312L110.758,39.312z M110.824,39.052l-0.066,0.26l0.054-0.124L110.824,39.052  L110.824,39.052z"/>
<path fill-rule="evenodd" clip-rule="evenodd" fill="#FFFFFF" d="M188.62,35.404c0,0,7.65-0.053,10.327-0.071  c-0.611,0.622-1.578,1.612-2.612,2.669c-0.34,0.347-12.335,0.211-12.68,0.561c-0.486,0.499,10.685,1.479,10.239,1.933  c-0.175,0.181-11.606,0.355-11.771,0.521c-0.641,0.655,9.337,1.971,9.582,1.719c-0.372,0.092-3.152,0.788-3.152,0.788l-8.53,0.124  l5.806,2.515l-7.913,0.492l5.421,1.918l-2.906,2.814l-1.174,1.137l-7.255,1.116l4.578,1.386l-0.602,0.671c0,0-0.634,3.165-0.761,3.8  c-0.56,0.254-4.596,2.089-4.596,2.089s1.345,5.2,1.604,6.106c-0.287,0.179-11.258,0.616-14.77,0.2  c-0.502,0.314,10.613,1.916,10.066,2.259c-0.322,0.203-11.911-0.758-12.24-0.553c-0.202,0.128,10.859,1.42,10.657,1.546  c-0.328,0.207-11.918-0.366-12.237-0.166c-0.465,0.292,6.973,1.119,9.121,1.563c0.421,0.085,0.639,0.158,0.559,0.207  c-0.442,0.278-9.004,0.533-9.36,0.756c-0.88,0.552,6.711,0.907,6.711,0.907l-5.59,1.011l2.296,0.938l2.907,1.533l0.084,2.361  l-9.066,3.923l1.278,0.397l10.8-2.285c0.098-0.111,9.829-11.08,26.938-7.848c2.354,0.445,3.821,0.975,5.519,1.588  c4.746,1.712,10.615,3.832,39.398,5.562c-2.191,1.047-5.479,2.617-5.479,2.617s0.307,0.044,0.667,0.676  c0.066,0.117-2.308-2.816,0.056,1.321c-0.165,0.165-6.755-1.381-6.943-1.192c-0.103,0.101,7.177,2.92,7.081,3.015  c-0.223,0.221-8.88-2.13-9.42-2.071c-0.291,0.032,7.155,2.786,6.837,2.821c-0.927,0.104-9.61-1.933-9.657-1.648  c-0.031,0.192,7.697,2.755,7.657,2.996c-0.029,0.166-0.165,0.983-0.193,1.156c-0.225,0-9.979-3.43-10.544-3.43  c-0.567,0,6.585,3.43,5.879,3.43c-1.985,0-2.647,0-2.647,0s0.305,3.173,0.402,4.209c-0.807,0.058-2.283,0.162-2.283,0.162  l0.729,0.526l-10.645-2.523l7.988,4.101l-0.556,0.608l-9.877-2.889l8.856,3.999l-0.453,0.497l-8.897-2.688  c0,0,8.082,3.831,7.979,4.293c-0.164,0.736-0.397,1.792-0.516,2.321c-1.094-0.057-7.395-0.389-7.395-0.389s-0.951,2.217-1.216,2.833  c-0.773,0.06-5.543,0.427-5.543,0.427l0.964,4.812l-0.013-0.092c0.415,5.432,12.071,14.038,12.568,14.401l0.078,0.058l0.091,0.037  c2.283,0.913,4.192,2.248,4.192,2.719c0,0.005,0,0.01,0,0.015c-0.002,0.003-0.106,0.259-0.987,0.552  c-4.86,1.62-9.21,5.934-9.395,6.117l-0.096,0.098c0,0-0.82,1.772-1.071,2.319c-0.409,0.067-1.118,2.899-1.974,3.036  c0.213-1.042,0.66-5.934,0.66-5.934s-2.078-0.347-3.346-0.557c0.801-0.445,2.804-1.557,2.804-1.557s-3.285-1.933-4.729-2.781  c1.022-0.384,1.965-0.352,2.13-0.415c0.312,0.018,7.319,0.02,7.319,0.02l0.249-0.312c1.206-1.507,1.591-2.806,1.142-3.86  c-0.64-1.502-2.638-1.727-2.864-1.747l-0.033-0.003c0,0-14.548,0-15.396,0c-0.231-0.402-0.787-1.374-0.787-1.374l-9.926-0.208  c-9.071,0-13.937,8.73-14.137,9.102l-0.046,0.084c0,0-1.054,6.365-1.395,7.685c-1.178-0.48-5.103-3.536-5.103-3.536  s-3.813,3.927-4.172,4.191c-0.291,0-0.442,0.616-1.362,0.616c0.222-0.661,1.918-5.361,1.918-5.361l-5.722,0.243  c0,0-0.322,0.003-0.451,0.005c0.416-0.555,4.132-2.271,4.132-2.271s-5.643-0.416-6.405-0.765c0.662-0.757,2.614-1.657,2.862-1.944  c0.596-0.049,11.743-0.962,11.743-0.962l-0.063,0.002c3.629,0,5.188-2.995,5.505-4.578l0.016-0.084l-0.084-3.677l-0.834,0.081  c-0.073,0.007-7.563,0.678-17.717-3.236c-9.375-3.615-23.006-11.996-34.719-31.387l-0.024-0.04l-0.028-0.037  c-0.077-0.096-7.651-9.72-19.251-18.767c-10.678-8.33-27.04-17.854-44.521-16.153c-0.807-0.708-3.412-2.62-7.511-2.39  c-0.112-0.781-0.294-2.049-0.294-2.049c-0.004-0.029-0.03-0.169-0.03-0.381c0-0.483,0.129-1.344,0.906-2.142  c1.367-1.403,4.842-2.773,13.623-1.348c0.812,0.197,33.427,8.219,58.873,27.452c1.873,3.034,4.479,4.622,11.945,3.791  c1.34-0.149,2.767-0.425,4.242-0.817l0.733-0.196l-0.18-0.738c-0.016-0.065-0.807-3.441-0.807-8.007  c0-4.439,0.749-10.001,3.689-14.736c3.012-4.852,7.83-8.055,14.32-9.521l0.076-0.017l0.068-0.031  c0.071-0.031,7.262-3.129,25.418-4.677C174.029,35.517,188.62,35.404,188.62,35.404L188.62,35.404z"/>
<path fill-rule="evenodd" clip-rule="evenodd" d="M46.922,45.631l1.187,0.13c0.397,0.044,0.69,0.381,0.69,0.771  c0,0.029-0.001,0.058-0.004,0.088c-0.048,0.427-0.431,0.733-0.858,0.686l-1.186-0.132c-0.396-0.043-0.691-0.38-0.691-0.771  c0-0.028,0.002-0.057,0.004-0.087C46.113,45.89,46.497,45.582,46.922,45.631L46.922,45.631z"/>
<path fill-rule="evenodd" clip-rule="evenodd" d="M40.315,45.809l0.396,4.349c0,0-2.767-0.396-7.116-0.396  C30.06,49.762,40.315,45.809,40.315,45.809L40.315,45.809z"/>
</svg>