<svg xmlns="http://www.w3.org/2000/svg" xmlns:xlink="http://www.w3.org/1999/xlink" version="1.0" id="Layer_1" x="0px" y="0px" width="281.966px" height="427.351px" viewBox="0 0 281.966 427.351" enable-background="new 0 0 281.966 427.351" xml:space="preserve">
<path d="M154.367,427.351c19.8,0,23.1-17.6,38.5-17.6h9.165c22.734,0,41.435-26.035,46.569-55.735  c0,0,33.365-213.033,33.365-227.332c0-36.667-31.534-75.901-140.982-75.901C31.535,50.783,0,90.018,0,126.684  c0,14.299,33.368,227.332,33.368,227.332c5.132,29.7,23.833,55.735,46.566,55.735H89.1c15.4,0,18.7,17.6,38.5,17.6H154.367z"/>
<path fill="#DD9F3A" d="M140.984,53.901C16.552,53.901,3.119,104.8,3.119,126.684c0,11.118,21.801,153.25,33.33,226.852  c5.228,30.25,23.926,53.096,43.486,53.096H89.1c8.361,0,13.586,4.431,18.639,8.715c5.392,4.567,10.483,8.886,19.861,8.886h26.767  c9.38,0,14.472-4.318,19.864-8.886c5.053-4.284,10.278-8.715,18.636-8.715h9.165c19.56,0,38.26-22.846,43.497-53.144  c11.521-73.554,33.322-215.686,33.322-226.804C278.851,104.8,265.415,53.901,140.984,53.901z M238.77,352.319  c-4.602,26.611-20.736,47.455-36.738,47.455h-9.165c-10.876,0-17.639,5.732-23.074,10.338c-4.972,4.216-8.563,7.262-15.426,7.262  H127.6c-6.861,0-10.453-3.046-15.426-7.262c-5.435-4.605-12.198-10.338-23.074-10.338h-9.166c-16,0-32.135-20.844-36.708-47.3  C29.886,267.31,10.025,136.901,9.979,126.683c0-41.895,47.75-65.921,131.005-65.921c83.254,0,131.005,24.028,131.005,65.92  C271.946,136.893,252.082,267.305,238.77,352.319z"/>
<path fill="#FFFFFF" d="M262.961,172.15c3.527-24.484,5.844-41.833,5.908-45.505c0-39.875-46.612-62.767-127.886-62.767  c-81.265,0-127.875,22.886-127.887,62.791c0.074,3.71,2.387,21.036,5.907,45.481H262.961z"/>
<path fill="#2516E8" d="M209.684,172.15l-0.266,222.82c11.872-5.226,22.67-22.31,26.275-43.184c0.421-2.686,0.854-5.444,1.289-8.237  l0.201-171.399H209.684z M44.727,341.891c0.537,3.441,1.064,6.814,1.579,10.102c3.548,20.518,14.18,37.465,25.923,42.849V172.15  H44.727V341.891z M154.392,414.25c5.457-0.005,8.198-2.119,13.385-6.519c3.609-3.06,8.104-6.845,14.137-9.109l0.267-226.472h-27.5  L154.392,414.25z M99.73,398.502c6.2,2.247,10.787,6.118,14.46,9.229c5.071,4.301,7.821,6.406,13.042,6.501V172.15H99.73V398.502z"/>
<path fill="#D2252D" d="M127.233,414.233c0.126,0.004,0.237,0.021,0.367,0.021h26.767c0.133,0,0.24-0.018,0.369-0.021V172.15  h-27.503V414.233z M181.914,398.623c3.188-1.194,6.798-1.968,10.953-1.968h9.165c2.475,0,4.954-0.615,7.387-1.685l0.266-222.82  H182.18L181.914,398.623z M237.184,172.15l-0.201,171.399c8.331-53.333,19.318-125.121,25.979-171.399H237.184z M44.727,341.891  V172.15H19.004C25.592,217.909,36.414,288.635,44.727,341.891z M72.229,394.841c2.537,1.164,5.124,1.813,7.706,1.813H89.1  c4.015,0,7.522,0.722,10.63,1.848V172.15H72.229V394.841z"/>
<g>
	<g>
		<path fill="#952430" d="M35.709,136.984h19.559v5.053H43.031v3.747h11.344v4.813H43.031v4.641h12.581v5.362H35.709V136.984z"/>
		<path fill="#952430" d="M67.428,136.984h7.288v17.807h11.413v5.809h-18.7V136.984z"/>
		<path fill="#952430" d="M97.429,136.984h10.855c2.14,0,3.869,0.29,5.186,0.87c1.317,0.58,2.406,1.412,3.266,2.497    c0.862,1.085,1.485,2.346,1.872,3.786s0.581,2.965,0.581,4.575c0,2.523-0.288,4.48-0.863,5.872    c-0.576,1.391-1.374,2.556-2.396,3.497c-1.021,0.939-2.118,1.564-3.291,1.875c-1.602,0.43-3.053,0.645-4.355,0.645H97.429V136.984    z M104.716,142.347v12.891h1.799c1.535,0,2.626-0.169,3.275-0.507c0.648-0.337,1.157-0.928,1.524-1.77    c0.368-0.842,0.551-2.207,0.551-4.095c0-2.5-0.412-4.211-1.232-5.135c-0.822-0.921-2.183-1.383-4.086-1.383H104.716z"/>
		<path fill="#952430" d="M130.881,136.984h19.558v5.053h-12.236v3.747h11.343v4.813h-11.343v4.641h12.58v5.362h-19.902V136.984z"/>
		<path fill="#952430" d="M162.668,136.984h6.827l8.882,13.056v-13.056h6.875V160.6h-6.875l-8.834-12.985V160.6h-6.875V136.984z"/>
	</g>
	<g>
		<path fill="#952430" d="M49.322,118.491l6.394,1.94c-0.43,1.792-1.108,3.291-2.033,4.493c-0.924,1.203-2.072,2.11-3.443,2.722    c-1.371,0.611-3.115,0.917-5.232,0.917c-2.569,0-4.669-0.374-6.298-1.119c-1.628-0.747-3.035-2.059-4.216-3.939    c-1.184-1.88-1.774-4.285-1.774-7.218c0-3.91,1.04-6.915,3.119-9.015c2.079-2.099,5.02-3.149,8.823-3.149    c2.977,0,5.316,0.602,7.019,1.803c1.703,1.203,2.968,3.048,3.795,5.538l-6.462,1.425c-0.226-0.715-0.462-1.239-0.707-1.57    c-0.408-0.555-0.907-0.982-1.497-1.281c-0.589-0.298-1.249-0.449-1.978-0.449c-1.65,0-2.916,0.666-3.794,1.999    c-0.665,0.989-0.997,2.542-0.997,4.659c0,2.622,0.397,4.419,1.195,5.393c0.796,0.973,1.915,1.459,3.358,1.459    c1.398,0,2.456-0.393,3.171-1.18C48.479,121.131,48.999,119.988,49.322,118.491z"/>
		<path fill="#952430" d="M59.398,121.584h7.013v6.566h-7.013V121.584z"/>
	</g>
	<g>
		<path fill="#952430" d="M224.53,103.984h10.858c2.14,0,3.867,0.29,5.187,0.87c1.314,0.58,2.402,1.412,3.266,2.497    c0.859,1.085,1.482,2.346,1.869,3.786s0.58,2.965,0.58,4.575c0,2.523-0.288,4.48-0.863,5.872    c-0.572,1.391-1.371,2.556-2.394,3.497c-1.022,0.939-2.118,1.564-3.292,1.875c-1.603,0.43-3.055,0.645-4.353,0.645H224.53V103.984    z M231.818,109.347v12.891h1.8c1.534,0,2.626-0.169,3.274-0.507c0.649-0.337,1.156-0.928,1.525-1.77    c0.365-0.842,0.55-2.207,0.55-4.095c0-2.5-0.408-4.211-1.229-5.135c-0.825-0.921-2.188-1.383-4.086-1.383H231.818z"/>
		<path fill="#952430" d="M249.122,121.035h7.012v6.565h-7.012V121.035z"/>
	</g>
	<path fill="#952430" d="M229.192,136.984h19.56v5.053h-12.237v3.747h11.344v4.813h-11.344v4.641h12.581v5.362h-19.903V136.984z"/>
	<path fill="#952430" d="M203.983,147.803c-3.236,6.023-5.793,10.781-14.416,10.781v6.6c12.572,0,16.817-7.906,20.229-14.259   c3.411-6.349,5.676-9.941,12.59-9.941v-6.6C211.188,134.384,207.192,141.824,203.983,147.803z"/>
</g>
<g>
	<path d="M140.984,83.6c47.208,0,78.282,25.3,78.282,25.3c7.15-24.475,39.601-36.025,39.601-64.35c0-7.15-9.351-22.55-42.351-22.55   c-18.975,0-25.85,4.95-25.85,4.95c0-6.323-13.475-26.95-49.683-26.95C104.775,0,91.3,20.627,91.3,26.95c0,0-6.875-4.95-25.85-4.95   c-33,0-42.35,15.4-42.35,22.55c0,28.325,32.45,39.875,39.6,64.35C62.7,108.9,93.775,83.6,140.984,83.6z"/>
	<g>
		<g>
			<path fill="#952430" d="M48.11,44.622c-3.528,2.899-5.392,6.931-5.392,11.662c0,10.186,10.025,20.532,17.231,20.532     c1.275,0,2.39-0.817,4.791-2.667c4.378-3.374,11.676-8.886,28.627-13.065c-1.551-9.576-12.232-21.296-29.018-21.296     C57.577,39.786,51.961,41.458,48.11,44.622z"/>
			<radialGradient id="SVGID_1_" cx="63.7988" cy="57.749" r="28.7172" gradientUnits="userSpaceOnUse">
				<stop offset="0.3258" style="stop-color:#C92A2E"/>
				<stop offset="0.9045" style="stop-color:#993333"/>
			</radialGradient>
			<path fill="url(#SVGID_1_)" d="M64.35,39.786c-6.773,0-12.389,1.672-16.24,4.836c-3.528,2.899-5.392,6.931-5.392,11.662     c0,10.186,10.025,20.532,17.231,20.532c1.275,0,2.39-0.817,4.791-2.667c4.378-3.374,11.676-8.886,28.627-13.065     C91.817,51.507,81.136,39.786,64.35,39.786z M63.599,72.666c-2.056,1.584-3.022,2.279-3.649,2.279     c-6.345,0-15.36-9.651-15.36-18.661c0-4.152,1.627-7.685,4.708-10.216c3.513-2.886,8.717-4.411,15.052-4.411     c15.497,0,24.552,10.1,26.733,18.115C74.899,64.044,67.56,69.614,63.599,72.666z"/>
		</g>
		<g>
			<path fill="#952430" d="M188.6,61.083c16.951,4.18,24.247,9.691,28.625,13.065c2.402,1.85,3.516,2.667,4.791,2.667     c7.206,0,17.235-10.346,17.235-20.532c0-4.73-1.865-8.762-5.393-11.662c-3.854-3.164-9.466-4.836-16.242-4.836     C200.833,39.786,190.151,51.507,188.6,61.083z"/>
			<radialGradient id="SVGID_2_" cx="217.4312" cy="56.6494" r="29.6107" gradientUnits="userSpaceOnUse">
				<stop offset="0.3258" style="stop-color:#C92A2E"/>
				<stop offset="0.9045" style="stop-color:#993333"/>
			</radialGradient>
			<path fill="url(#SVGID_2_)" d="M233.859,44.622c-3.854-3.164-9.466-4.836-16.242-4.836c-16.784,0-27.466,11.721-29.017,21.296     c16.951,4.18,24.247,9.691,28.625,13.065c2.402,1.85,3.516,2.667,4.791,2.667c7.206,0,17.235-10.346,17.235-20.532     C239.251,51.553,237.386,47.521,233.859,44.622z M222.016,74.944c-0.627,0-1.594-0.694-3.647-2.277     c-3.962-3.053-11.301-8.623-27.483-12.895c2.184-8.014,11.236-18.115,26.731-18.115c6.333,0,11.541,1.525,15.052,4.41     c3.081,2.533,4.709,6.065,4.709,10.217C237.377,65.293,228.363,74.944,222.016,74.944z"/>
		</g>
		<g>
			<path fill="#952430" d="M102.853,43.634c0,6.099,2.195,10.958,3.529,13.364c4.596-0.889,16.287-2.732,34.603-2.732     s30.007,1.843,34.601,2.732c1.336-2.406,3.532-7.266,3.532-13.364c0-15.112-16.749-26.949-38.133-26.949     C119.602,16.685,102.853,28.522,102.853,43.634z"/>
			<radialGradient id="SVGID_3_" cx="141.168" cy="38.3169" r="41.3491" gradientUnits="userSpaceOnUse">
				<stop offset="0.3258" style="stop-color:#C92A2E"/>
				<stop offset="0.9045" style="stop-color:#993333"/>
			</radialGradient>
			<path fill="url(#SVGID_3_)" d="M140.984,16.685c-21.382,0-38.131,11.837-38.131,26.949c0,6.099,2.195,10.958,3.529,13.364     c4.596-0.889,16.287-2.732,34.603-2.732s30.007,1.843,34.601,2.732c1.336-2.406,3.532-7.266,3.532-13.364     C179.117,28.522,162.368,16.685,140.984,16.685z M174.536,54.908c-5.822-1.041-16.946-2.514-33.552-2.514     c-16.601,0-27.731,1.473-33.553,2.514c-1.208-2.457-2.707-6.412-2.707-11.274c0-14.063,15.927-25.078,36.26-25.078     c20.335,0,36.259,11.015,36.259,25.078C177.243,48.498,175.744,52.452,174.536,54.908z"/>
		</g>
	</g>
	<g>
		<path fill="#EBAC10" d="M216.516,25.119c-17.41,0-23.998,4.342-24.063,4.386l-4.868,3.314l-0.034-5.869    c0-4.851-12.156-23.832-46.567-23.832c-34.412,0-46.565,18.98-46.565,23.832v5.893l-4.907-3.338    c-0.064-0.044-6.648-4.386-24.062-4.386c-29.642,0-39.231,13.091-39.231,19.432c0,14.682,9.553,24.559,19.667,35.014    c7.099,7.339,14.205,15.012,18.15,24.474c9.248-6.476,37.375-23.556,76.948-23.556c39.572,0,67.699,17.08,76.95,23.556    c3.945-9.461,11.048-17.135,18.146-24.474c10.114-10.456,19.671-20.332,19.671-35.014    C255.751,38.21,246.161,25.119,216.516,25.119z M59.95,79.934c-8.8,0-20.35-11.551-20.35-23.65    c0-11.366,9.166-19.616,24.75-19.616c20.535,0,32.45,15.583,32.45,26.767C68.017,69.85,66.55,79.934,59.95,79.934z M177.101,60.5    c0,0-12.649-3.116-36.117-3.116c-23.468,0-36.117,3.116-36.117,3.116s-5.133-6.967-5.133-16.866    c0-17.051,17.966-30.067,41.25-30.067c23.282,0,41.248,13.017,41.248,30.067C182.232,53.533,177.101,60.5,177.101,60.5z     M222.016,79.934c-6.6,0-8.064-10.084-36.85-16.5c0-11.184,11.915-26.767,32.45-26.767c15.585,0,24.75,8.25,24.75,19.616    C242.367,68.383,230.817,79.934,222.016,79.934z"/>
		<g>
			<g>
				<linearGradient id="SVGID_4_" gradientUnits="userSpaceOnUse" x1="140.79" y1="64.3555" x2="141.3401" y2="8.8052">
					<stop offset="0.0056" style="stop-color:#ECDC00"/>
					<stop offset="1" style="stop-color:#FF8800"/>
				</linearGradient>
				<path fill="url(#SVGID_4_)" d="M140.984,11.072c-24.53,0-43.744,14.303-43.744,32.562c0,7.349,2.651,13.231,4.232,16.084      l1.974,3.564l4.001-0.773c4.087-0.792,15.538-2.63,33.536-2.63c18.002,0,29.448,1.839,33.535,2.63l4,0.773l1.977-3.562      c1.581-2.852,4.232-8.734,4.232-16.086C184.728,25.375,165.512,11.072,140.984,11.072z M177.101,60.5      c0,0-12.649-3.116-36.117-3.116c-23.468,0-36.117,3.116-36.117,3.116s-5.133-6.967-5.133-16.866      c0-17.051,17.966-30.067,41.25-30.067c23.282,0,41.248,13.017,41.248,30.067C182.232,53.533,177.101,60.5,177.101,60.5z       M237.42,40.287c-4.868-4-11.717-6.113-19.804-6.113c-18.992,0-32.484,13.226-34.556,26.012l-0.829,5.108l5.022,1.238      c16.02,3.95,22.61,9.028,26.547,12.063c2.779,2.142,4.976,3.834,8.215,3.834c10.889,0,22.847-13.684,22.847-26.145      C244.863,49.912,242.22,44.23,237.42,40.287z M222.016,79.934c-6.6,0-8.064-10.084-36.85-16.5      c0-11.184,11.915-26.767,32.45-26.767c15.585,0,24.75,8.25,24.75,19.616C242.367,68.383,230.817,79.934,222.016,79.934z       M64.35,34.173c-8.088,0-14.936,2.114-19.803,6.112v0.001c-4.798,3.942-7.441,9.624-7.441,15.997      c0,12.461,11.956,26.145,22.844,26.145c3.241,0,5.437-1.692,8.217-3.834c3.938-3.035,10.527-8.112,26.545-12.063l5.024-1.238      l-0.827-5.108C96.837,47.399,83.345,34.173,64.35,34.173z M59.95,79.934c-8.8,0-20.35-11.551-20.35-23.65      c0-11.366,9.166-19.616,24.75-19.616c20.535,0,32.45,15.583,32.45,26.767C68.017,69.85,66.55,79.934,59.95,79.934z"/>
			</g>
		</g>
		<linearGradient id="SVGID_5_" gradientUnits="userSpaceOnUse" x1="139.813" y1="3.1152" x2="142.7155" y2="106.1564">
			<stop offset="0.0056" style="stop-color:#ECDC00"/>
			<stop offset="1" style="stop-color:#FF8800"/>
		</linearGradient>
		<path fill="url(#SVGID_5_)" d="M216.516,25.119c-17.41,0-23.998,4.342-24.063,4.386l-4.868,3.314l-0.034-5.869    c0-4.851-12.156-23.832-46.567-23.832c-34.412,0-46.565,18.98-46.565,23.832v5.893l-4.907-3.338    c-0.064-0.044-6.648-4.386-24.062-4.386c-29.642,0-39.231,13.091-39.231,19.432c0,14.682,9.553,24.559,19.667,35.014    c7.099,7.339,14.205,15.012,18.15,24.474c9.248-6.476,37.375-23.556,76.948-23.556c39.572,0,67.699,17.08,76.95,23.556    c3.945-9.461,11.048-17.135,18.146-24.474c10.114-10.456,19.671-20.332,19.671-35.014    C255.751,38.21,246.161,25.119,216.516,25.119z M233.841,77.396c-6.454,6.672-13.05,13.536-17.372,21.915    c-11.949-7.69-39.016-21.947-75.485-21.947c-36.469,0-63.536,14.257-75.487,21.947c-4.321-8.379-10.917-15.243-17.37-21.915    c-9.663-9.99-18.791-19.425-18.791-32.846c0-3.237,6.427-16.314,36.114-16.314c16.122,0,22.283,3.832,22.343,3.871l9.339,5.864    l0.4-10.918c0.277-2.594,10.413-20.816,43.451-20.816c33.041,0,43.173,18.222,43.452,20.816l-0.004-0.102l0.545,11.054    l9.195-5.897c0.061-0.039,6.223-3.871,22.344-3.871c29.688,0,36.115,13.078,36.115,16.314    C252.631,57.972,243.505,67.406,233.841,77.396z"/>
	</g>
</g>
<g>
	<circle cx="140.984" cy="336.876" r="46.292"/>
	<g>
		<path fill="#FFDDA7" d="M161.336,327.857c-1.147,0-2.828,1.212-4.306,2.282c-1.839,1.323-3.575,2.578-5.319,2.578h-7.887    c-1.538,0-2.66-0.993-3.479-1.719c0,0-0.146-0.116-0.291-0.245c-0.293,0.446-0.692,1.044-0.692,1.044    c-1.265,2.093-2.999,4.954-5.437,4.954h-14.117c-0.131,0-0.421,0.408-0.585,0.838c0,0.481,0,9.097,0,9.097    c0,2.806,6.25,9.385,18.369,9.385c21.431,0,28.122-13.218,28.367-13.721c0,0,1.199-2.844,1.371-3.248c0-0.43,0-4.275,0-4.881    C165.469,331.11,162.719,327.857,161.336,327.857z"/>
		<path fill="#FFDDA7" d="M122.412,362.266c0-3.502,0.809-5.912,1.288-7.038c-4.441-2.466-6.971-5.844-6.971-8.542v-9.535    l0.053-0.176c0.231-0.77,0.86-1.946,1.921-2.462c0.092-0.632,0.221-1.504,0.231-1.504c-0.496-2.54-12.053-15.692-15.257-15.692    c-0.681,0-1.321,0.061-1.891,0.142c-2.916,5.861-4.599,12.439-4.599,19.418c0,19.727,13.117,36.438,31.084,41.903    C125.437,375.162,122.412,369.601,122.412,362.266z"/>
		<path fill="#FFDDA7" d="M147.336,293.594c-2.079-0.306-4.19-0.516-6.353-0.516c-6.284,0-12.25,1.349-17.649,3.746    c4.753,4.022,18.072,16.363,18.072,28.592c0,1.035-0.097,2.105-0.222,3.06c0.282,0.197,0.551,0.421,0.814,0.653    c0.576,0.511,1.233,1.091,1.826,1.091h7.887c0.937,0,2.487-1.117,3.858-2.105c0.911-0.661,1.843-1.327,2.78-1.843    c0.408-1.969,0.91-4.714,0.91-6.355C159.26,307.868,150.989,297.56,147.336,293.594z"/>
		<path fill="#FFDDA7" d="M138.663,328.501c0.135-0.949,0.249-2.045,0.249-3.085c0-11.863-14.676-24.621-18.05-27.396    c-7.347,3.832-13.483,9.681-17.662,16.813c0.158-0.005,0.313-0.013,0.476-0.013c4.873,0,17.747,15.073,17.747,18.115l-0.188,1.319    h12.691c1.032,0,2.509-2.44,3.303-3.747C137.776,329.606,138.205,328.936,138.663,328.501z"/>
		<path fill="#FFDDA7" d="M151.337,294.368c4.284,5.203,10.42,14.566,10.42,25.549c0,1.47-0.331,3.609-0.684,5.47    c0.086-0.009,0.172-0.025,0.263-0.025c3.562,0,7.554,6.553,8.318,7.863l0.172,0.292v6.089l-1.594,3.772    c-0.073,0.15-0.572,1.143-1.607,2.548c0.31,3.099,5.595,10.88,11.12,10.88c0.976,0,1.736-0.142,2.351-0.331    c2.969-5.903,4.684-12.547,4.684-19.598C184.78,316.298,170.497,299.038,151.337,294.368z"/>
		<path fill="#FFDDA7" d="M177.746,359.301c-6.351,0-12.143-6.338-13.389-10.716c-4.267,4.399-12.482,9.981-26.764,9.981    c-4.519,0-8.441-0.898-11.642-2.256c-0.381,0.933-1.045,2.978-1.045,5.955c0,8.701,4.852,14.773,7.676,17.579    c2.722,0.532,5.527,0.829,8.401,0.829c15.974,0,29.935-8.624,37.587-21.433C178.295,359.263,178.046,359.301,177.746,359.301z"/>
	</g>
	<g>
		<linearGradient id="SVGID_6_" gradientUnits="userSpaceOnUse" x1="143.2769" y1="356.4009" x2="143.2769" y2="331.6489">
			<stop offset="0.0056" style="stop-color:#FFFFFF"/>
			<stop offset="1" style="stop-color:#EB9409"/>
		</linearGradient>
		<path fill="url(#SVGID_6_)" d="M161.336,327.857c-1.147,0-2.828,1.212-4.306,2.282c-1.839,1.323-3.575,2.578-5.319,2.578h-7.887    c-1.538,0-2.66-0.993-3.479-1.719c0,0-0.146-0.116-0.291-0.245c-0.293,0.446-0.692,1.044-0.692,1.044    c-1.265,2.093-2.999,4.954-5.437,4.954h-14.117c-0.131,0-0.421,0.408-0.585,0.838c0,0.481,0,9.097,0,9.097    c0,2.806,6.25,9.385,18.369,9.385c21.431,0,28.122-13.218,28.367-13.721c0,0,1.199-2.844,1.371-3.248c0-0.43,0-4.275,0-4.881    C165.469,331.11,162.719,327.857,161.336,327.857z M164.833,338.595c-0.365,0.872-1.117,2.655-1.117,2.664    c-0.253,0.511-6.273,12.314-26.124,12.314c-11.026,0-15.707-5.71-15.875-6.888c0,0,0-5.225,0-7.442c2.855,0,12.208,0,12.208,0    c3.26,0,5.327-2.634,6.763-4.881c0.851,0.477,1.887,0.847,3.135,0.847h7.887c2.548,0,4.696-1.547,6.771-3.043l0.009-0.008    c0.688-0.499,2.002-1.439,2.625-1.706c0.679,0.468,2.191,2.097,3.717,4.512C164.833,335.901,164.833,337.924,164.833,338.595z"/>
		<linearGradient id="SVGID_7_" gradientUnits="userSpaceOnUse" x1="111.5015" y1="364.3579" x2="117.5518" y2="324.2057">
			<stop offset="0.0056" style="stop-color:#FFFFFF"/>
			<stop offset="1" style="stop-color:#EB9409"/>
		</linearGradient>
		<path fill="url(#SVGID_7_)" d="M122.412,362.266c0-3.502,0.809-5.912,1.288-7.038c-4.441-2.466-6.971-5.844-6.971-8.542v-9.535    l0.053-0.176c0.231-0.77,0.86-1.946,1.921-2.462c0.092-0.632,0.221-1.504,0.231-1.504c-0.496-2.54-12.053-15.692-15.257-15.692    c-0.681,0-1.321,0.061-1.891,0.142c-2.916,5.861-4.599,12.439-4.599,19.418c0,19.727,13.117,36.438,31.084,41.903    C125.437,375.162,122.412,369.601,122.412,362.266z M99.681,336.876c0-5.917,1.316-11.645,3.808-17.071    c2.448,0.713,11.304,10.377,12.8,13.389c-1.217,1.13-1.746,2.557-1.898,3.068l-0.157,0.523v9.9c0,3.305,2.507,6.807,6.506,9.535    c-0.427,1.495-0.824,3.497-0.824,6.045c0,4.447,1.056,8.237,2.462,11.417C108.743,366.731,99.681,352.483,99.681,336.876z"/>
		<linearGradient id="SVGID_8_" gradientUnits="userSpaceOnUse" x1="133.7524" y1="329.2739" x2="146.9529" y2="296.2727">
			<stop offset="0.0056" style="stop-color:#FFFFFF"/>
			<stop offset="1" style="stop-color:#EB9409"/>
		</linearGradient>
		<path fill="url(#SVGID_8_)" d="M147.336,293.594c-2.079-0.306-4.19-0.516-6.353-0.516c-6.284,0-12.25,1.349-17.649,3.746    c4.753,4.022,18.072,16.363,18.072,28.592c0,1.035-0.097,2.105-0.222,3.06c0.282,0.197,0.551,0.421,0.814,0.653    c0.576,0.511,1.233,1.091,1.826,1.091h7.887c0.937,0,2.487-1.117,3.858-2.105c0.911-0.661,1.843-1.327,2.78-1.843    c0.408-1.969,0.91-4.714,0.91-6.355C159.26,307.868,150.989,297.56,147.336,293.594z M156.085,324.79    c-0.886,0.58-1.977,1.302-1.977,1.302c-0.735,0.528-2.105,1.521-2.397,1.633c0,0-6.776,0-7.49,0    c-0.133-0.107-0.334-0.271-0.458-0.374c0.066-0.945,0.137-1.934,0.137-1.934c0-10.975-9.328-21.579-15.699-27.564    c4.137-1.366,8.386-2.277,12.783-2.277c1.555,0,3.229,0.142,5.111,0.383c3.618,4.073,10.669,13.342,10.669,23.959    C156.764,320.866,156.498,322.636,156.085,324.79z"/>
		<linearGradient id="SVGID_9_" gradientUnits="userSpaceOnUse" x1="118.6929" y1="333.981" x2="124.1932" y2="303.7288">
			<stop offset="0.0056" style="stop-color:#FFFFFF"/>
			<stop offset="1" style="stop-color:#EB9409"/>
		</linearGradient>
		<path fill="url(#SVGID_9_)" d="M120.862,298.02c-7.347,3.832-13.483,9.681-17.662,16.813c0.158-0.005,0.313-0.013,0.476-0.013    c4.873,0,17.747,15.073,17.747,18.115l-0.188,1.319h12.691c1.032,0,2.509-2.44,3.303-3.747c0.547-0.902,0.976-1.572,1.433-2.007    c0.135-0.949,0.249-2.045,0.249-3.085C138.912,313.553,124.236,300.795,120.862,298.02z M136.232,327.664    c-0.525,0.718-1.139,1.556-1.142,1.56c-0.318,0.524-1.206,1.969-1.763,2.535c-0.875,0-6.794,0-9.738,0    c-1.376-4.602-10.039-14.932-16.441-18.291c3.521-5.075,8.093-9.299,13.469-12.38c4.483,3.894,15.799,14.674,15.799,24.329    C136.417,325.417,136.286,327.006,136.232,327.664z"/>
		<linearGradient id="SVGID_10_" gradientUnits="userSpaceOnUse" x1="163.3833" y1="328.9214" x2="175.4845" y2="310.7697">
			<stop offset="0.0056" style="stop-color:#FFFFFF"/>
			<stop offset="1" style="stop-color:#EB9409"/>
		</linearGradient>
		<path fill="url(#SVGID_10_)" d="M151.337,294.368c4.284,5.203,10.42,14.566,10.42,25.549c0,1.47-0.331,3.609-0.684,5.47    c0.086-0.009,0.172-0.025,0.263-0.025c3.562,0,7.554,6.553,8.318,7.863l0.172,0.292v6.089l-1.594,3.772    c-0.073,0.15-0.572,1.143-1.607,2.548c0.31,3.099,5.595,10.88,11.12,10.88c0.976,0,1.736-0.142,2.351-0.331    c2.969-5.903,4.684-12.547,4.684-19.598C184.78,316.298,170.497,299.038,151.337,294.368z M178.356,354.227    c-0.288,0.039-0.61,0.082-0.61,0.082c-3.647,0-7.614-5.509-8.452-7.963c0.537-0.859,1.203-1.929,1.238-1.998l1.787-4.24v-7.275    l-0.512-0.863c-1.59-2.732-4.512-6.814-7.923-8.361c0.215-1.461,0.365-2.759,0.365-3.691c0-7.949-2.922-15.018-6.386-20.65    c14.67,6.548,24.42,21.089,24.42,37.61C182.284,342.896,180.93,348.723,178.356,354.227z"/>
		<linearGradient id="SVGID_11_" gradientUnits="userSpaceOnUse" x1="140.2271" y1="379.2915" x2="158.3758" y2="346.8436">
			<stop offset="0.0056" style="stop-color:#FFFFFF"/>
			<stop offset="1" style="stop-color:#EB9409"/>
		</linearGradient>
		<path fill="url(#SVGID_11_)" d="M177.746,359.301c-6.351,0-12.143-6.338-13.389-10.716c-4.267,4.399-12.482,9.981-26.764,9.981    c-4.519,0-8.441-0.898-11.642-2.256c-0.381,0.933-1.045,2.978-1.045,5.955c0,8.701,4.852,14.773,7.676,17.579    c2.722,0.532,5.527,0.829,8.401,0.829c15.974,0,29.935-8.624,37.587-21.433C178.295,359.263,178.046,359.301,177.746,359.301z     M140.984,378.178c-2.354,0-4.77-0.279-7.178-0.705c-2.614-2.75-6.406-7.928-6.406-15.207c0-1.134,0.129-2.045,0.278-2.836    c3.115,0.984,6.391,1.629,9.914,1.629c12.623,0,20.817-4.138,25.943-8.37c2.148,3.583,5.981,7.219,10.635,8.542    C166.423,371.746,154.075,378.178,140.984,378.178z"/>
	</g>
</g>
</svg>