<svg xmlns:dc="http://purl.org/dc/elements/1.1/" xmlns:cc="http://creativecommons.org/ns#" xmlns:rdf="http://www.w3.org/1999/02/22-rdf-syntax-ns#" xmlns:svg="http://www.w3.org/2000/svg" xmlns="http://www.w3.org/2000/svg" xmlns:sodipodi="http://sodipodi.sourceforge.net/DTD/sodipodi-0.dtd" xmlns:inkscape="http://www.inkscape.org/namespaces/inkscape" version="1.2" id="Capa_1" x="0px" y="0px" width="188.39999" height="252" viewBox="0 0 188.4 571.98857" xml:space="preserve" inkscape:version="0.48.4 r9939" sodipodi:docname="CD Tenerife.svg"><metadata id="metadata351"><rdf:RDF><cc:Work rdf:about=""><dc:format>image/svg+xml</dc:format><dc:type rdf:resource="http://purl.org/dc/dcmitype/StillImage"/></cc:Work></rdf:RDF></metadata><defs id="defs349"/><sodipodi:namedview pagecolor="#ffffff" bordercolor="#666666" borderopacity="1" objecttolerance="10" gridtolerance="10" guidetolerance="10" inkscape:pageopacity="0" inkscape:pageshadow="2" inkscape:window-width="1920" inkscape:window-height="1018" id="namedview347" showgrid="false" fit-margin-top="0" fit-margin-left="0" fit-margin-right="0" fit-margin-bottom="0" inkscape:zoom="3.1785714" inkscape:cx="94.199997" inkscape:cy="126" inkscape:window-x="-8" inkscape:window-y="-8" inkscape:window-maximized="1" inkscape:current-layer="Capa_1"/>
<g id="g3" transform="translate(-210.71342,-110.10271)">
	<g id="g5">
		<path d="m 505.253,410.806 c -10.476,-30.232 -14.247,-60.219 -14.247,-87.728 0,-35.335 6.224,-66.582 12.445,-88.988 3.112,-11.203 6.225,-20.196 8.556,-26.388 2.333,-6.19 3.88,-9.559 3.882,-9.568 l 0.246,-0.54 -0.571,-0.153 c -27.85,-7.375 -54.496,-28.52 -74.149,-47.835 -9.829,-9.654 -17.912,-18.85 -23.536,-25.629 -5.624,-6.781 -8.774,-11.126 -8.785,-11.137 l -0.249,-0.34 -0.374,0.185 c -34.507,16.872 -70.797,21.29 -103.317,21.29 -32.518,0 -68.81,-4.418 -103.315,-21.29 l -0.378,-0.183 -0.245,0.338 c -0.009,0.013 -3.161,4.356 -8.785,11.137 -16.863,20.341 -55.903,62.408 -97.685,73.464 l -0.575,0.153 0.247,0.54 c 0.004,0.009 1.55,3.378 3.882,9.568 6.998,18.571 21.002,62.374 21,115.376 0,27.509 -3.771,57.496 -14.247,87.728 -0.006,0.029 -12.637,36.458 -12.639,77.423 0,32.146 7.785,67.153 35.703,89.444 0.036,0.026 37.402,29.85 100.065,45.813 0.006,0.002 2.565,0.652 6.996,2.35 13.294,5.093 43.22,19.546 69.582,53.603 l 0.394,0.51 0.396,-0.51 c 17.576,-22.704 36.732,-36.696 51.492,-45.011 7.379,-4.156 13.659,-6.895 18.09,-8.592 4.431,-1.697 6.99,-2.346 6.996,-2.35 62.663,-15.964 100.029,-45.787 100.065,-45.813 27.916,-22.289 35.701,-57.298 35.701,-89.444 -0.006,-40.968 -12.632,-77.394 -12.641,-77.423 z" id="path7" inkscape:connector-curvature="0"/>
		<path d="m 481.568,576.891 c -0.007,0.006 -2.313,1.847 -6.776,4.879 -13.393,9.1 -46.064,28.813 -92.915,40.749 -0.061,0.015 -41.468,10.573 -76.724,55.801 -35.258,-45.228 -76.663,-55.786 -76.726,-55.801 -31.233,-7.958 -56.165,-19.372 -73.283,-28.792 -8.56,-4.71 -15.166,-8.924 -19.629,-11.957 -4.464,-3.032 -6.77,-4.875 -6.776,-4.879 -27.569,-22 -35.324,-56.654 -35.326,-88.662 0,-20.382 3.146,-39.663 6.294,-53.845 3.148,-14.183 6.288,-23.226 6.292,-23.251 10.516,-30.354 14.3,-60.455 14.302,-88.055 -0.004,-66.827 -22.172,-119.01 -24.733,-124.822 53.771,-14.647 102.321,-79.255 106.205,-84.492 34.582,16.814 70.89,21.21 103.38,21.212 32.492,-0.002 68.797,-4.396 103.381,-21.211 3.884,5.237 52.438,69.845 106.206,84.492 -2.562,5.812 -24.73,57.995 -24.732,124.822 0,27.601 3.783,57.701 14.302,88.055 0.009,0.023 3.142,9.068 6.29,23.249 3.146,14.181 6.292,33.465 6.292,53.847 -0.001,32.006 -7.757,66.663 -35.324,88.661 z" id="path9" inkscape:connector-curvature="0" style="fill:#E7BB5B"/>
	</g>
	<g id="g11">
		<g id="g13">
			<path d="m 171.929,164.721 0.334,-0.313 c 14.677,-13.702 26.21,-27.134 32.942,-35.489 l 0,0 0.236,-0.292 0.349,0.146 c 28.788,12.232 61.408,18.202 99.363,18.202 l 0,0 c 37.953,0 70.577,-5.969 99.363,-18.202 l 0,0 0.347,-0.146 0.238,0.292 c 6.731,8.355 18.265,21.787 32.941,35.491 l 0,0 0.332,0.311 -90.536,116.462 -0.372,-0.203 c -0.068,-0.038 -0.127,-0.071 -0.175,-0.096 l 0,0 c -13.312,-7.174 -27.479,-10.808 -42.126,-10.808 l 0,0 c -14.646,0 -28.815,3.633 -42.128,10.806 l 0,0 c -0.052,0.029 -0.115,0.067 -0.192,0.108 l 0,0 -0.372,0.201 -90.544,-116.47 0,0 z" id="path15" inkscape:connector-curvature="0"/>
			<path d="m 262.743,279.906 c 13.398,-7.184 27.676,-10.831 42.423,-10.831 l 0,0 c 14.74,0 29.014,3.644 42.403,10.823 l 0,0 89.458,-115.069 C 422.632,151.35 411.294,138.176 404.559,129.841 l 0,0 c -28.845,12.193 -61.502,18.134 -99.406,18.134 l 0,0 c -37.905,0 -70.562,-5.941 -99.406,-18.134 l 0,0 c -6.734,8.334 -18.072,21.507 -32.468,34.984 l 0,0 89.464,115.081 0,0 z" id="path17" inkscape:connector-curvature="0" style="fill:#17369D"/>
			<g id="g19">
				<path d="m 338.95,525.218 -0.353,0.146 c -10.727,4.435 -21.931,6.685 -33.432,6.685 -11.507,0 -22.718,-2.252 -33.451,-6.691 l -0.352,-0.146 -61.701,79.269 0.67,0.223 c 6.642,2.216 13.667,4.304 21.056,6.186 1.649,0.419 38.548,10.184 73.395,48.392 l 0.369,0.403 0.369,-0.403 c 34.847,-38.208 71.746,-47.973 73.395,-48.392 7.389,-1.882 14.415,-3.97 21.057,-6.186 l 0.673,-0.223 -61.695,-79.263 z" id="path21" inkscape:connector-curvature="0"/>
				<path d="m 378.669,609.918 c -1.76,0.451 -38.592,10.213 -73.516,48.283 -34.924,-38.07 -71.756,-47.832 -73.518,-48.283 -7.115,-1.81 -13.895,-3.816 -20.314,-5.938 l 60.364,-77.554 c 10.743,4.395 21.967,6.624 33.48,6.624 11.505,0 22.726,-2.23 33.462,-6.616 l 60.357,77.546 c -6.421,2.122 -13.199,4.128 -20.315,5.938 z" id="path23" inkscape:connector-curvature="0" style="fill:#17369D"/>
			</g>
			<path d="M 129.382,561.257 C 110.893,541.995 105.424,514.4 105.422,488.399 l 0,0 c 0.002,-38.011 11.697,-72.697 11.915,-73.337 l 0,0 c 11.112,-32.075 14.9,-63.802 14.9,-92.144 l 0,0 c 0,-23.272 -2.553,-44.263 -5.699,-61.283 l 0,0 c -0.665,-3.597 -1.37,-7.074 -2.097,-10.449 l 0,0 0.885,-0.413 81.041,104.114 -0.073,0.248 c -4.348,14.499 -6.624,30.001 -6.624,45.922 l 0,0 c 0,20.034 3.601,39.407 10.401,56.945 l 0,0 0.103,0.263 -80.39,103.409 -0.402,-0.417 0,0 z" id="path25" inkscape:connector-curvature="0"/>
			<path d="m 127.521,261.453 c 3.155,17.07 5.716,38.12 5.716,61.465 l 0,0 c 0,28.43 -3.798,60.271 -14.957,92.471 l 0,0 c -0.197,0.568 -11.863,35.203 -11.858,73.01 l 0,0 c -0.002,25.686 5.381,52.8 23.283,71.746 l 0,0 79.332,-102.046 c -6.781,-17.588 -10.366,-36.988 -10.366,-57.043 l 0,0 h -0.002 c 0.002,-15.924 2.265,-31.437 6.591,-45.961 l 0,0 -79.388,-101.989 c 0.568,2.712 1.121,5.491 1.649,8.347 l 0,0 z" id="path27" inkscape:connector-curvature="0" style="fill:#17369D"/>
			<path d="m 400.135,458.269 0.104,-0.263 c 6.798,-17.539 10.398,-36.913 10.398,-56.949 l 0,0 c 0,-15.923 -2.274,-31.427 -6.621,-45.925 l 0,0 -0.075,-0.249 81.041,-104.11 0.883,0.413 c -0.727,3.376 -1.433,6.851 -2.096,10.45 l 0,0 c -3.146,17.019 -5.7,38.009 -5.7,61.284 l 0,0 c 0,28.342 3.788,60.068 14.901,92.145 l 0,0 c 0.104,0.301 9.506,27.746 11.541,60.944 l 0,0 c 0.255,4.176 0.381,8.26 0.383,12.239 l 0,0 c -0.002,14.167 -1.621,27.039 -4.846,38.388 l 0,0 c -3.948,13.885 -10.368,25.499 -19.122,34.622 l 0,0 -0.402,0.417 -80.389,-103.406 0,0 z" id="path29" inkscape:connector-curvature="0"/>
			<path d="m 480.603,560.145 c 8.425,-8.928 14.633,-20.242 18.482,-33.783 l 0,0 c 3.197,-11.242 4.809,-24.023 4.809,-38.114 l 0,0 c 0,-3.959 -0.129,-8.021 -0.382,-12.179 l 0,0 c -2.021,-33.045 -11.399,-60.435 -11.485,-60.679 l 0,0 c -11.159,-32.2 -14.959,-64.04 -14.959,-92.471 l 0,0 c 0,-23.347 2.561,-44.396 5.718,-61.467 l 0,0 c 0.527,-2.855 1.08,-5.636 1.649,-8.349 l 0,0 -79.387,101.987 c 4.326,14.523 6.588,30.039 6.59,45.966 l 0,0 c -0.002,20.055 -3.587,39.458 -10.364,57.046 l 0,0 79.329,102.043 0,0 z" id="path31" inkscape:connector-curvature="0" style="fill:#17369D"/>
		</g>
		<g id="g33">
			<path d="m 350.264,520.221 -0.35,-0.45 0.491,-0.289 c 11.336,-6.656 21.531,-15.689 30.341,-26.918 l 0,0 c 5.122,-6.527 9.63,-13.626 13.494,-21.169 l 0,0 0.357,-0.697 76.807,98.793 -0.428,0.303 c -7.404,5.256 -27.777,18.631 -58.106,30.281 l 0,0 -0.35,0.132 -62.256,-79.986 0,0 z" id="path35" inkscape:connector-curvature="0"/>
			<path d="m 412.858,599.007 c 29.471,-11.362 49.452,-24.333 57.113,-29.727 l 0,0 -75.2,-96.731 c -3.813,7.336 -8.231,14.252 -13.239,20.635 l 0,0 c -8.752,11.155 -18.876,20.175 -30.13,26.87 l 0,0 61.456,78.953 0,0 z" id="path37" inkscape:connector-curvature="0" style="fill:#ffffff"/>
			<path d="m 259.909,519.472 c -11.332,-6.653 -21.526,-15.683 -30.333,-26.904 -5.129,-6.534 -9.638,-13.635 -13.504,-21.178 l -0.36,-0.7 -76.808,98.802 0.426,0.304 c 7.387,5.242 27.765,18.624 58.108,30.278 l 0.345,0.132 62.617,-80.444 -0.491,-0.29 z" id="path39" inkscape:connector-curvature="0"/>
			<path d="M 197.45,599.007 C 167.962,587.64 147.978,574.662 140.335,569.28 l 75.206,-96.738 c 3.815,7.341 8.237,14.26 13.249,20.643 8.75,11.151 18.872,20.167 30.122,26.859 l -61.462,78.963 z" id="path41" inkscape:connector-curvature="0" style="fill:#ffffff"/>
			<path d="m 116.043,219.311 -0.027,-0.086 c -1.595,-5.067 -3.121,-9.498 -4.473,-13.211 l 0,0 -0.166,-0.453 0.448,-0.18 c 18.454,-7.492 35.822,-19.57 50.737,-32.303 l 0,0 0.398,-0.341 88.993,114.472 -0.395,0.308 0.395,-0.308 0.316,0.408 -0.418,0.305 c -8.146,5.905 -15.607,13.146 -22.276,21.641 l 0,0 c -7.327,9.334 -13.399,19.817 -18.12,31.114 l 0,0 -0.329,0.793 -95.083,-122.159 0,0 z" id="path43" inkscape:connector-curvature="0"/>
			<path d="m 210.866,339.502 c 4.703,-11.077 10.709,-21.367 17.922,-30.56 l 0,0 c 6.608,-8.417 13.993,-15.62 22.058,-21.528 l 0,0 -88.032,-113.238 c -14.761,12.551 -31.901,24.451 -50.167,31.947 l 0,0 c 1.307,3.61 2.771,7.871 4.294,12.713 l 0,0 93.925,120.666 0,0 z" id="path45" inkscape:connector-curvature="0" style="fill:#ffffff"/>
			<path d="m 398.854,340.671 c -4.718,-11.297 -10.787,-21.777 -18.108,-31.108 l 0,0 c -6.669,-8.5 -14.134,-15.743 -22.284,-21.653 l 0,0 -0.419,-0.303 89.301,-114.87 0.399,0.339 c 14.915,12.734 32.283,24.813 50.737,32.303 l 0,0 -0.188,0.463 0.188,-0.463 0.445,0.181 -0.161,0.455 c -1.354,3.712 -2.879,8.142 -4.475,13.209 l 0,0 -0.025,0.084 -95.082,122.154 -0.328,-0.791 0,0 z" id="path47" inkscape:connector-curvature="0"/>
			<path d="m 381.53,308.944 c 7.212,9.189 13.212,19.479 17.914,30.553 l 0,0 93.92,-120.66 c 1.525,-4.842 2.987,-9.105 4.295,-12.714 l 0,0 c -18.268,-7.496 -35.405,-19.395 -50.167,-31.946 l 0,0 -88.026,113.229 c 8.068,5.908 15.457,13.116 22.064,21.538 l 0,0 z" id="path49" inkscape:connector-curvature="0" style="fill:#ffffff"/>
		</g>
	</g>
</g>
<ellipse cx="305.15302" cy="401.06299" rx="93.485001" ry="118.988" id="ellipse51" sodipodi:cx="305.15302" sodipodi:cy="401.06299" sodipodi:rx="93.485001" sodipodi:ry="118.988" transform="translate(-210.71342,-110.10271)"/>
<ellipse cx="305.15302" cy="401.06299" rx="92.485001" ry="117.988" id="ellipse53" sodipodi:cx="305.15302" sodipodi:cy="401.06299" sodipodi:rx="92.485001" sodipodi:ry="117.988" style="fill:#359AF8" transform="translate(-210.71342,-110.10271)"/>
<g id="g55" transform="translate(-210.71342,-110.10271)">
	<path d="m 162.282,454.623 c -9.002,0.012 -15.601,-4.558 -19.842,-11.923 l 0,0 c -4.25,-7.366 -6.234,-17.519 -6.236,-28.877 l 0,0 c 0.002,-11.367 1.986,-21.517 6.236,-28.882 l 0,0 c 4.241,-7.365 10.841,-11.93 19.842,-11.918 l 0,0 c 14.189,-0.062 25.54,7.576 26.076,27.184 l 0,0 -0.499,0.017 v -0.501 0.501 l 0.499,-0.017 0.017,0.516 h -14.947 v -0.499 c 0,-0.104 0.002,-0.198 0,-0.29 l 0,0 c -0.04,-7.888 -3.731,-13.895 -11.146,-13.905 l 0,0 c -4.265,-0.027 -7.087,4.054 -8.829,9.731 l 0,0 c -1.729,5.642 -2.321,12.683 -2.319,18.063 l 0,0 c -0.002,5.377 0.59,12.417 2.319,18.055 l 0,0 c 1.741,5.674 4.563,9.754 8.829,9.726 l 0,0 c 7.415,-0.011 11.106,-5.994 11.148,-13.879 l 0,0 c 0,-0.098 -0.002,-0.19 -0.002,-0.284 l 0,0 -0.004,-0.505 h 14.949 l -0.015,0.516 c -0.534,19.529 -11.797,27.172 -25.904,27.172 l 0,0 c -0.058,-0.001 -0.115,-0.001 -0.172,-0.001 l 0,0 z" id="path57" inkscape:connector-curvature="0"/>
	<path d="m 143.306,385.443 c -4.125,7.131 -6.104,17.129 -6.102,28.38 l 0,0 c -0.002,11.243 1.978,21.243 6.102,28.376 l 0,0 c 4.137,7.134 10.328,11.413 18.976,11.424 l 0,0 c 13.71,-0.06 24.247,-6.888 25.059,-25.686 l 0,0 h -12.914 c -0.034,4.003 -1.022,7.619 -3.014,10.282 l 0,0 c -2.023,2.711 -5.117,4.392 -9.131,4.386 l 0,0 c -5.023,-0.027 -8.025,-4.675 -9.785,-10.436 l 0,0 c -1.772,-5.795 -2.36,-12.896 -2.362,-18.347 l 0,0 c 0.002,-5.452 0.59,-12.556 2.362,-18.355 l 0,0 c 1.76,-5.762 4.762,-10.413 9.785,-10.44 l 0,0 c 4.015,-0.008 7.11,1.679 9.131,4.396 l 0,0 c 1.992,2.669 2.98,6.293 3.014,10.298 l 0,0 h 12.914 c -0.812,-18.801 -11.348,-25.64 -25.059,-25.699 l 0,0 c -8.651,0.012 -14.84,4.29 -18.976,11.421 l 0,0 z" id="path59" inkscape:connector-curvature="0" style="fill:#E7BB5B"/>
	<polygon points="474.103,386.001 455.906,386.001 455.906,451.852 441.792,451.852 441.792,451.852 441.792,386.001 424.096,386.001 423.595,386.001 423.595,374.55 474.103,374.55 " id="polygon61"/>
	<polygon points="442.793,385.001 442.793,385.001 442.793,450.852 454.905,450.852 454.905,385.001 473.102,385.001 473.102,375.55 424.597,375.55 424.597,385.001 " id="polygon63" style="fill:#E7BB5B"/>
	<path d="m 322.811,556.378 c -5.229,-6.496 -12.826,-9.578 -22.076,-9.573 -0.163,0.002 -0.332,0 -0.501,0.006 l -20.821,-0.002 v 78.667 h 0.501 20.333 c 0.05,0 0.101,10e-4 0.151,10e-4 0.102,0 0.204,-10e-4 0.306,-10e-4 9.255,0.008 16.864,-3.069 22.097,-9.565 5.236,-6.492 8.092,-16.319 8.092,-29.773 0,-13.443 -2.851,-23.268 -8.082,-29.76 z m -9.456,47.111 c -2.367,4.811 -6.391,8.057 -13.679,8.078 -0.116,0 -0.232,0 -0.351,0 l -6.11,-0.003 V 560.72 h 6.11 c 0.129,-0.004 0.242,-0.006 0.351,-0.006 7.287,0.021 11.31,3.271 13.679,8.081 2.353,4.818 2.914,11.237 2.91,17.341 0.005,6.112 -0.557,12.537 -2.91,17.353 z" id="path65" inkscape:connector-curvature="0"/>
	<path d="m 300.735,547.806 c -0.163,0 -0.323,0 -0.488,0.005 h -19.834 v 76.665 h 19.836 c 0.152,0 0.305,0.002 0.455,0 18.031,-0.049 29.122,-11.685 29.189,-38.339 -0.068,-26.629 -11.144,-38.283 -29.158,-38.331 z m 13.519,56.123 c -2.446,5.068 -6.947,8.638 -14.511,8.638 -0.021,0 -0.044,0 -0.066,0 -0.12,0 -0.237,-0.002 -0.351,0 h -7.109 v -52.347 -0.501 h 7.101 c 0.114,0 0.234,-0.004 0.359,-0.004 7.601,-0.021 12.124,3.559 14.578,8.642 2.469,5.079 3.007,11.617 3.012,17.78 -0.006,6.173 -0.542,12.714 -3.013,17.792 z" id="path67" inkscape:connector-curvature="0" style="fill:#E7BB5B"/>
</g>
<g id="g69" transform="translate(-210.71342,-110.10271)">
	<ellipse cx="305.15302" cy="401.06299" rx="58.734001" ry="84.237" id="ellipse71" sodipodi:cx="305.15302" sodipodi:cy="401.06299" sodipodi:rx="58.734001" sodipodi:ry="84.237" d="m 363.88702,401.06299 c 0,46.52281 -26.29611,84.237 -58.734,84.237 -32.4379,0 -58.73401,-37.71419 -58.73401,-84.237 0,-46.52281 26.29611,-84.237 58.73401,-84.237 32.43789,0 58.734,37.71419 58.734,84.237 z"/>
	<ellipse cx="305.15302" cy="401.06299" rx="57.734001" ry="83.237" id="ellipse73" sodipodi:cx="305.15302" sodipodi:cy="401.06299" sodipodi:rx="57.734001" sodipodi:ry="83.237" style="fill:#E7BB5B" d="m 362.88702,401.06299 c 0,45.97052 -25.8484,83.237 -57.734,83.237 -31.88561,0 -57.73401,-37.26648 -57.73401,-83.237 0,-45.97053 25.8484,-83.237 57.73401,-83.237 31.8856,0 57.734,37.26647 57.734,83.237 z"/>
	<g id="g75">
		<g id="g77">
			<path d="m 352.922,424.151 c -0.941,-0.74 -1.506,-1.617 -1.833,-2.308 -0.326,-0.69 -0.395,-1.156 -0.403,-1.156 l -0.016,-0.087 -0.04,-0.072 c -0.291,-0.515 -0.382,-0.866 -0.378,-1.032 0.008,-0.215 0.035,-0.237 0.629,-0.291 0.452,-0.004 1.031,0.124 1.492,0.252 0.46,0.128 0.805,0.255 0.807,0.255 l 0.608,0.231 0.066,-0.647 c 0.035,-0.344 0.054,-0.666 0.054,-0.972 0.006,-2.707 -1.371,-3.891 -1.448,-3.941 l -0.056,-0.048 -0.063,-0.025 c -2.544,-1.098 -2.734,-2.896 -2.755,-3.656 0,-0.206 0.022,-0.3 0.019,-0.3 l 0.017,-0.105 -0.024,-0.105 c -0.527,-2.02 -2.479,-2.493 -4.015,-2.475 -0.923,0.001 -1.78,0.148 -2.325,0.269 -0.321,-1.539 -1.72,-4.386 -1.726,-4.44 l -0.751,-1.584 -0.198,1.741 c -0.128,1.258 -1.26,2.533 -2.422,3.447 -1.151,0.919 -2.262,1.473 -2.262,1.477 l -0.04,0.019 -0.035,0.029 c -1.404,1.077 -4.341,1.332 -6.136,1.317 -0.926,0.002 -1.544,-0.052 -1.544,-0.052 -0.183,-0.015 -0.35,-0.019 -0.505,-0.019 -1.272,-0.006 -2.097,0.385 -2.559,0.929 -0.459,0.54 -0.525,1.142 -0.525,1.466 0,0.1 0.008,0.177 0.013,0.226 0,0.054 0,0.108 0,0.165 -0.068,2.879 -1.384,3.036 -2.395,3.112 -0.49,0 -0.838,-0.109 -0.842,-0.101 -0.346,-0.083 -0.639,-0.118 -0.91,-0.118 -0.773,-0.013 -1.406,0.337 -1.734,0.866 -0.333,0.52 -0.42,1.136 -0.422,1.748 0.004,1.551 0.614,3.185 0.62,3.211 l 0.085,0.234 0.242,0.074 c 0.052,-0.002 0.217,0.157 0.32,0.566 0.105,0.391 0.145,0.929 0.145,1.429 0,0.659 -0.063,1.249 -0.084,1.438 -0.264,0.628 -0.796,1.085 -1.339,1.397 -0.469,0.147 -0.977,0.339 -1.526,0.587 l 0.303,0.947 c 0.02,-0.016 0.791,-0.148 1.636,-0.614 0.854,-0.258 1.53,-0.339 2.047,-0.339 0.527,0 0.89,0.086 1.11,0.163 0.075,0.026 0.134,0.052 0.178,0.072 1.175,2.563 2.335,3.495 3.495,3.516 1.473,-0.052 2.159,-1.421 2.198,-1.443 0.744,-1.75 1.584,-1.849 2.035,-1.874 0.2,0 0.281,0.042 0.285,0.031 l 0.062,0.021 0.061,0.004 c 2.067,0.181 2.413,0.732 2.442,1.467 0.031,1.063 -1.169,2.889 -2.433,4.317 -1.251,1.446 -2.504,2.559 -2.506,2.563 l -1.282,1.142 1.695,-0.275 22.948,-3.768 -0.054,-0.476 c -0.052,-0.42 -0.067,-0.794 -0.07,-1.131 0.005,-1.562 0.435,-2.211 0.771,-2.511 0.172,-0.151 0.337,-0.222 0.457,-0.257 0.118,-0.035 0.153,-0.022 0.153,-0.033 h 0.148 l 0.127,-0.082 c 1.098,-0.716 1.573,-1.539 1.567,-2.311 -0.038,-1.325 -1.155,-2.039 -1.179,-2.08 z" id="path79" inkscape:connector-curvature="0"/>
			<path d="m 322.657,464.249 c -0.94,-0.733 -1.501,-1.609 -1.825,-2.301 -0.32,-0.691 -0.387,-1.16 -0.395,-1.16 l -0.015,-0.088 -0.044,-0.079 c -0.294,-0.515 -0.388,-0.867 -0.384,-1.031 0.011,-0.208 0.029,-0.227 0.617,-0.282 0.452,-0.005 1.031,0.126 1.496,0.257 0.466,0.129 0.818,0.26 0.82,0.258 l 0.61,0.234 0.064,-0.651 c 0.033,-0.333 0.05,-0.644 0.05,-0.943 0.006,-2.736 -1.381,-3.917 -1.459,-3.972 l -0.055,-0.043 -0.063,-0.025 c -2.545,-1.108 -2.733,-2.9 -2.755,-3.656 0,-0.207 0.021,-0.299 0.019,-0.301 l 0.017,-0.105 -0.026,-0.104 c -0.527,-2.03 -2.483,-2.506 -4.023,-2.487 -0.921,0.002 -1.776,0.148 -2.319,0.268 -0.319,-1.535 -1.703,-4.372 -1.709,-4.426 l -0.743,-1.576 -0.208,1.729 c -0.133,1.259 -1.269,2.527 -2.429,3.435 -1.154,0.911 -2.265,1.457 -2.265,1.461 l -0.042,0.021 -0.039,0.028 c -1.393,1.089 -4.346,1.346 -6.142,1.331 -0.461,0 -0.843,-0.013 -1.113,-0.024 -0.268,-0.015 -0.421,-0.027 -0.421,-0.025 -0.17,-0.015 -0.33,-0.021 -0.479,-0.019 -1.273,-0.006 -2.099,0.38 -2.564,0.92 -0.463,0.54 -0.53,1.142 -0.53,1.472 0,0.111 0.008,0.195 0.014,0.245 10e-4,0.052 10e-4,0.106 10e-4,0.158 -0.066,2.877 -1.401,3.035 -2.418,3.112 -0.488,0 -0.833,-0.106 -0.835,-0.1 -0.344,-0.081 -0.641,-0.119 -0.919,-0.119 -0.771,-0.015 -1.399,0.335 -1.729,0.859 -0.332,0.521 -0.419,1.136 -0.421,1.744 0.004,1.556 0.621,3.197 0.625,3.225 l 0.087,0.238 0.247,0.071 c 0.056,0 0.214,0.147 0.32,0.55 0.104,0.382 0.143,0.911 0.143,1.408 0,0.672 -0.067,1.277 -0.089,1.463 -0.266,0.638 -0.804,1.099 -1.351,1.412 -0.465,0.146 -0.969,0.338 -1.514,0.583 l 0.303,0.947 c 0.02,-0.015 0.784,-0.146 1.625,-0.611 0.86,-0.26 1.54,-0.342 2.058,-0.342 0.527,0 0.888,0.085 1.11,0.162 0.073,0.026 0.132,0.051 0.176,0.071 1.183,2.565 2.342,3.498 3.503,3.519 1.47,-0.054 2.151,-1.423 2.192,-1.445 0.743,-1.746 1.588,-1.848 2.047,-1.873 0.2,0 0.283,0.042 0.287,0.031 l 0.063,0.019 0.058,0.005 c 2.063,0.183 2.408,0.732 2.435,1.466 0.033,1.059 -1.167,2.884 -2.427,4.31 -1.25,1.443 -2.502,2.554 -2.504,2.558 l -1.293,1.148 1.708,-0.28 22.917,-3.769 -0.054,-0.473 c -0.046,-0.403 -0.064,-0.767 -0.064,-1.093 0.006,-1.573 0.44,-2.228 0.787,-2.532 0.176,-0.151 0.347,-0.225 0.471,-0.26 0.123,-0.037 0.16,-0.025 0.162,-0.033 h 0.151 l 0.125,-0.085 c 1.079,-0.712 1.549,-1.532 1.545,-2.303 -0.038,-1.336 -1.163,-2.061 -1.188,-2.102 z" id="path81" inkscape:connector-curvature="0"/>
			<path d="m 290.409,431.91 c -0.045,-0.406 -0.062,-0.772 -0.064,-1.101 0.006,-1.572 0.436,-2.226 0.775,-2.527 0.176,-0.152 0.341,-0.225 0.46,-0.26 0.12,-0.035 0.155,-0.022 0.155,-0.031 h 0.151 l 0.126,-0.083 c 1.097,-0.714 1.572,-1.541 1.568,-2.315 -0.039,-1.328 -1.157,-2.05 -1.182,-2.091 -0.95,-0.728 -1.508,-1.601 -1.829,-2.295 -0.32,-0.69 -0.382,-1.161 -0.39,-1.161 l -0.015,-0.091 -0.045,-0.079 c -0.297,-0.519 -0.391,-0.874 -0.386,-1.037 0.012,-0.196 0.015,-0.21 0.589,-0.264 0.452,-0.007 1.037,0.128 1.508,0.262 0.465,0.133 0.82,0.267 0.822,0.265 l 0.612,0.237 0.066,-0.65 c 0.037,-0.343 0.054,-0.665 0.054,-0.971 0.004,-2.724 -1.384,-3.917 -1.46,-3.971 l -0.052,-0.046 -0.068,-0.027 c -2.545,-1.093 -2.731,-2.902 -2.754,-3.654 0,-0.2 0.021,-0.291 0.019,-0.291 l 0.016,-0.107 -0.027,-0.1 c -0.531,-2.037 -2.501,-2.512 -4.049,-2.495 -0.912,0.001 -1.758,0.145 -2.299,0.261 -0.313,-1.532 -1.697,-4.37 -1.703,-4.424 l -0.74,-1.574 -0.208,1.727 c -0.134,1.259 -1.271,2.533 -2.434,3.444 -1.153,0.913 -2.265,1.463 -2.265,1.467 l -0.043,0.021 -0.038,0.029 c -1.395,1.087 -4.336,1.345 -6.127,1.33 -0.917,0 -1.531,-0.052 -1.533,-0.052 -0.169,-0.012 -0.329,-0.019 -0.478,-0.017 -1.285,-0.006 -2.115,0.385 -2.58,0.933 -0.465,0.541 -0.529,1.146 -0.531,1.473 0,0.1 0.007,0.177 0.013,0.225 0,0.056 0.002,0.112 0.002,0.164 -0.066,2.875 -1.409,3.032 -2.428,3.109 -0.483,0 -0.824,-0.104 -0.826,-0.096 -0.341,-0.082 -0.634,-0.117 -0.907,-0.117 -0.773,-0.015 -1.405,0.336 -1.733,0.865 -0.335,0.521 -0.421,1.137 -0.424,1.748 0.004,1.552 0.614,3.186 0.62,3.212 l 0.089,0.242 0.25,0.068 c 0.054,-0.002 0.215,0.148 0.322,0.556 0.103,0.391 0.145,0.93 0.143,1.43 0,0.655 -0.063,1.239 -0.083,1.423 -0.271,0.634 -0.804,1.091 -1.347,1.401 -0.466,0.146 -0.971,0.335 -1.517,0.58 l 0.3,0.946 c 0.02,-0.015 0.785,-0.143 1.626,-0.606 0.849,-0.254 1.521,-0.334 2.036,-0.336 0.529,0.002 0.893,0.087 1.116,0.164 0.076,0.026 0.135,0.052 0.179,0.073 1.184,2.573 2.347,3.503 3.509,3.525 1.467,-0.054 2.147,-1.417 2.186,-1.44 0.748,-1.76 1.605,-1.857 2.06,-1.884 0.192,0 0.271,0.041 0.275,0.028 l 0.062,0.021 0.06,0.004 c 2.068,0.178 2.413,0.728 2.44,1.463 0.033,1.062 -1.167,2.89 -2.43,4.319 -1.252,1.446 -2.506,2.56 -2.506,2.564 l -1.293,1.146 1.707,-0.279 22.932,-3.782 -0.054,-0.471 z" id="path83" inkscape:connector-curvature="0"/>
		</g>
		<g id="g85">
			<path d="m 351.864,371.276 c -2.784,-4.025 -10.701,-5.032 -12.926,-5.268 0.186,-0.83 0.27,-1.617 0.27,-2.359 -0.015,-5.088 -3.818,-7.834 -3.862,-7.872 -1.846,-1.344 -3.552,-1.822 -4.997,-1.819 -2.99,0.01 -4.754,1.97 -4.797,2.01 l -0.796,0.878 1.185,-0.043 c 0.054,-0.002 0.115,-0.002 0.182,-0.002 2.974,0.015 4.415,1.292 5.225,2.583 0.401,0.649 0.625,1.305 0.745,1.797 0.122,0.492 0.136,0.792 0.139,0.792 0.014,0.238 0.021,0.472 0.021,0.695 -0.04,4.83 -3.27,5.074 -4.603,5.14 -0.012,0 -0.02,0 -0.03,0 v -1.218 h -0.5 -16.999 v -16.102 h -0.906 c 1.995,-2.874 2.755,-8.953 2.8,-9 0.076,-0.533 0.112,-1.064 0.11,-1.591 -0.034,-7.453 -6.903,-13.977 -6.921,-14.02 l -0.848,-0.815 v 1.175 c 0.023,1.5 -1.471,4.975 -2.987,7.93 -1.51,2.976 -3.023,5.517 -3.025,5.523 -0.273,0.463 -0.368,1.008 -0.37,1.594 0.027,2.915 2.378,7.435 3.354,9.205 h -1.138 v 16.102 h -17.499 v 1.219 c -0.011,0 -0.019,0 -0.03,0 -1.335,-0.066 -4.57,-0.313 -4.605,-5.142 -0.002,-0.222 0.006,-0.452 0.022,-0.692 -0.002,-0.004 0.082,-1.296 0.883,-2.59 0.812,-1.29 2.251,-2.568 5.226,-2.582 0.066,0 0.125,0 0.183,0.002 l 1.186,0.043 -0.797,-0.879 c -0.043,-0.041 -1.808,-1.999 -4.798,-2.011 -1.446,0 -3.151,0.477 -4.998,1.822 -0.042,0.037 -3.848,2.783 -3.862,7.871 0,0.741 0.082,1.527 0.27,2.359 -2.227,0.236 -10.14,1.243 -12.925,5.268 l -0.185,0.277 0.185,0.277 c 2.785,4.027 10.7,5.032 12.925,5.268 -0.187,0.83 -0.27,1.618 -0.27,2.358 0.014,5.088 3.82,7.834 3.864,7.872 1.847,1.343 3.549,1.822 4.996,1.82 2.991,-0.01 4.755,-1.968 4.798,-2.009 l 0.772,-0.853 -1.15,0.016 c -0.065,0.002 -0.129,0.002 -0.193,0.002 -2.977,-0.015 -4.414,-1.292 -5.226,-2.582 -0.4,-0.649 -0.625,-1.305 -0.746,-1.797 -0.121,-0.491 -0.133,-0.791 -0.138,-0.791 -0.014,-0.244 -0.022,-0.475 -0.022,-0.694 0.037,-4.831 3.27,-5.076 4.603,-5.143 0.012,0 0.021,0 0.032,0 v 1.222 h 17.5 v 57.96 h 1.568 c -0.016,0.26 -0.031,0.585 -0.031,0.985 0.013,2.103 0.348,5.916 3.149,7.824 l 0.277,0.186 0.279,-0.186 c 2.8,-1.906 3.135,-5.722 3.146,-7.826 0,-0.399 -0.014,-0.725 -0.029,-0.983 h 1.57 v -57.96 h 17.499 v -1.223 c 0.011,0 0.018,0 0.028,0 1.333,0.068 4.569,0.313 4.604,5.143 0.002,0.22 -0.005,0.453 -0.021,0.694 0,0 0,0 0,10e-4 v 10e-4 c 0,0.055 -0.098,1.319 -0.884,2.586 -0.813,1.29 -2.251,2.568 -5.225,2.583 -0.063,0 -0.128,0 -0.192,-0.002 l -1.149,-0.016 0.771,0.852 c 0.043,0.042 1.805,2 4.797,2.01 0.003,0 0.006,0 0.009,0 1.443,0 3.146,-0.479 4.988,-1.819 0.044,-0.037 3.848,-2.783 3.862,-7.872 0,-0.74 -0.082,-1.528 -0.269,-2.358 2.226,-0.235 10.141,-1.242 12.925,-5.267 l 0.186,-0.279 -0.185,-0.28 z" id="path87" inkscape:connector-curvature="0"/>
			<path d="m 282.656,374.298 c -0.756,0.002 -2.128,0.123 -3.362,0.978 -1.241,0.853 -2.251,2.473 -2.241,5.166 0,0.243 0.008,0.495 0.025,0.756 0.006,0.045 0.092,1.524 1.031,3.05 0.813,1.342 2.347,2.692 4.927,2.996 -0.029,0.018 -0.059,0.037 -0.089,0.055 -0.708,0.427 -1.725,0.851 -2.988,0.851 -1.227,-0.002 -2.701,-0.392 -4.408,-1.627 -0.004,-0.002 -0.849,-0.614 -1.717,-1.818 -0.871,-1.208 -1.733,-2.97 -1.733,-5.246 0,-0.817 0.111,-1.703 0.375,-2.66 l 0.165,-0.588 -0.61,-0.045 c -0.004,0 -2.514,-0.183 -5.386,-0.904 -2.739,-0.675 -5.765,-1.883 -7.17,-3.708 1.405,-1.825 4.431,-3.033 7.17,-3.708 2.872,-0.721 5.382,-0.9 5.386,-0.904 l 0.612,-0.045 -0.167,-0.587 c -0.267,-0.957 -0.375,-1.843 -0.375,-2.66 0,-2.278 0.862,-4.041 1.733,-5.246 0.869,-1.204 1.721,-1.806 1.717,-1.816 1.707,-1.238 3.182,-1.629 4.408,-1.631 1.263,0 2.28,0.423 2.988,0.853 0.031,0.019 0.061,0.037 0.089,0.055 -2.58,0.303 -4.114,1.653 -4.927,2.995 -0.938,1.526 -1.025,3.005 -1.031,3.05 -0.017,0.259 -0.025,0.512 -0.025,0.756 -0.012,2.691 1,4.312 2.241,5.164 1.234,0.854 2.608,0.976 3.364,0.978 0.01,0 0.021,0 0.03,0 v 5.491 c -0.01,-10e-4 -0.021,-10e-4 -0.032,-10e-4 z" id="path89" inkscape:connector-curvature="0" style="fill:#e5231b"/>
			<path d="m 327.651,374.298 c 0.756,0.002 2.128,0.123 3.362,0.978 1.241,0.853 2.252,2.473 2.241,5.166 0,0.243 -0.008,0.495 -0.024,0.756 -0.006,0.045 -0.093,1.524 -1.031,3.05 -0.813,1.342 -2.347,2.692 -4.927,2.996 0.029,0.018 0.059,0.037 0.09,0.055 0.708,0.427 1.725,0.851 2.988,0.851 1.227,-0.002 2.701,-0.392 4.408,-1.627 0.004,-0.002 0.849,-0.614 1.717,-1.818 0.871,-1.208 1.733,-2.97 1.733,-5.246 0,-0.817 -0.11,-1.703 -0.375,-2.66 l -0.165,-0.588 0.61,-0.045 c 0.004,0 2.515,-0.183 5.386,-0.904 2.739,-0.675 5.766,-1.883 7.17,-3.708 -1.404,-1.825 -4.431,-3.033 -7.17,-3.708 -2.871,-0.721 -5.382,-0.9 -5.386,-0.904 l -0.612,-0.045 0.167,-0.587 c 0.267,-0.957 0.375,-1.843 0.375,-2.66 0,-2.278 -0.862,-4.041 -1.733,-5.246 -0.868,-1.204 -1.721,-1.806 -1.717,-1.816 -1.707,-1.238 -3.182,-1.629 -4.408,-1.631 -1.264,0 -2.28,0.423 -2.988,0.853 -0.031,0.019 -0.061,0.037 -0.09,0.055 2.58,0.303 4.114,1.653 4.927,2.995 0.938,1.526 1.025,3.005 1.031,3.05 0.017,0.259 0.024,0.512 0.024,0.756 0.013,2.691 -1,4.312 -2.241,5.164 -1.234,0.854 -2.608,0.976 -3.364,0.978 -0.01,0 -0.021,0 -0.03,0 v 5.491 c 0.011,-10e-4 0.022,-10e-4 0.032,-10e-4 z" id="path91" inkscape:connector-curvature="0" style="fill:#e5231b"/>
			<path d="m 300.778,347.195 c -0.918,-1.969 -1.817,-4.387 -1.807,-5.914 -0.002,-0.475 0.084,-0.845 0.228,-1.082 0.008,-0.06 5.107,-8.499 6.017,-12.865 0.636,0.699 1.62,1.858 2.607,3.33 1.666,2.479 3.305,5.821 3.3,9.23 0,0.481 -0.032,0.965 -0.101,1.453 0,0.002 -0.27,1.899 -0.823,4.029 -0.51,2.025 -1.35,4.266 -2.254,5.11 h -5.48 c -0.292,-0.515 -0.989,-1.779 -1.687,-3.291 z" id="path93" inkscape:connector-curvature="0" style="fill:#e5231b"/>
			<path d="m 307.58,435.465 c 0.012,1.927 -0.387,5.217 -2.427,6.797 -2.044,-1.58 -2.44,-4.87 -2.428,-6.795 0,-0.409 0.016,-0.74 0.032,-0.985 h 4.792 c 0.015,0.245 0.031,0.576 0.031,0.983 z" id="path95" inkscape:connector-curvature="0" style="fill:#e5231b"/>
			<polygon points="283.688,375.52 301.188,375.52 301.188,433.479 309.12,433.479 309.12,375.52 326.618,375.52 326.618,367.588 309.117,367.588 309.117,351.488 301.188,351.486 301.188,367.588 283.688,367.588 283.688,375.52 " id="polygon97" style="fill:#c8d400"/>
		</g>
	</g>
</g>
<g id="g99" transform="translate(-210.71342,-110.10271)">
	<path d="m 371.33,218.168 c 0.038,-0.765 0.064,-1.543 0.063,-2.353 0.002,-1.131 -0.039,-2.307 -0.12,-3.527 -0.004,-0.052 -0.364,-5.337 -4.19,-11.434 -0.432,-0.689 -0.914,-1.388 -1.439,-2.09 0.569,-0.636 0.926,-1.468 0.926,-2.394 -0.004,-2.009 -1.615,-3.613 -3.597,-3.617 -0.847,0.001 -1.618,0.305 -2.237,0.793 -3.126,-2.673 -7.177,-5.146 -12.402,-7.038 0.018,-0.109 0.034,-0.218 0.034,-0.332 -0.002,-1.17 -0.955,-2.102 -2.117,-2.104 -0.828,0.001 -1.534,0.481 -1.877,1.175 -0.718,-0.196 -1.446,-0.386 -2.202,-0.561 -0.023,-0.004 -13.792,-3.186 -33.893,-3.497 1.842,-1.078 3.091,-3.061 3.095,-5.358 -0.002,-2.629 -1.637,-4.872 -3.943,-5.779 l 0.002,-5.172 h 2.485 v -4.555 h -2.487 v -2.717 h -4.553 v 2.717 h -2.487 v 4.555 h 2.485 l 0.002,5.172 c -2.306,0.907 -3.941,3.15 -3.943,5.779 0.004,2.297 1.252,4.28 3.094,5.358 -20.101,0.311 -33.869,3.493 -33.893,3.497 -0.756,0.175 -1.484,0.365 -2.202,0.561 -0.343,-0.694 -1.049,-1.174 -1.877,-1.175 -1.162,0.002 -2.116,0.933 -2.118,2.104 0,0.113 0.017,0.223 0.034,0.332 -5.225,1.892 -9.276,4.365 -12.402,7.038 -0.62,-0.489 -1.391,-0.792 -2.238,-0.793 -1.981,0.004 -3.593,1.607 -3.597,3.617 0,0.925 0.357,1.757 0.926,2.394 -0.525,0.702 -1.008,1.401 -1.439,2.09 -3.826,6.097 -4.186,11.382 -4.19,11.434 -0.081,1.221 -0.122,2.396 -0.12,3.527 0,0.809 0.026,1.588 0.064,2.353 -1.599,0.835 -2.709,2.491 -2.709,4.429 0.002,2.513 1.885,4.572 4.306,4.917 0.891,2.837 2.07,5.196 3.359,7.153 -0.043,0.214 -0.083,0.432 -0.098,0.675 l -0.019,0.21 0.139,0.162 c 0.006,0.008 1.616,1.847 3.605,3.699 0.288,0.262 0.582,0.524 0.878,0.784 -0.048,0.214 -0.078,0.436 -0.078,0.664 0,1.694 1.369,3.081 3.069,3.083 0.768,-0.002 1.463,-0.299 2.003,-0.771 0.082,0.01 0.168,0.034 0.249,0.037 0.014,0 0.027,-0.006 0.042,-0.006 l 3.423,4.632 c -0.19,0.428 -0.279,0.833 -0.279,1.209 0.05,1.505 1.265,2.171 1.792,2.401 l 1.27,3.481 c -1.958,0.804 -3.354,2.189 -3.4,3.792 0,0.183 0.023,0.367 0.066,0.547 0.421,1.659 2.285,2.465 4.4,2.471 0.408,0 0.832,-0.042 1.262,-0.104 l 0.617,2.855 c -0.261,0.267 -0.667,0.768 -0.772,1.455 -0.016,0.123 -0.024,0.245 -0.024,0.363 -0.019,0.897 0.549,1.476 1.042,1.681 0.493,0.226 0.926,0.219 0.965,0.222 h 0.063 l 0.058,-0.015 c 14.397,-3.594 28.587,-4.729 40.949,-4.729 12.363,0 26.553,1.136 40.95,4.729 l 0.059,0.015 h 0.063 c 0.039,-0.002 0.472,0.004 0.965,-0.222 0.494,-0.206 1.062,-0.784 1.043,-1.681 0,-0.118 -0.009,-0.24 -0.024,-0.363 -0.106,-0.687 -0.512,-1.188 -0.772,-1.455 l 0.616,-2.855 c 0.43,0.063 0.854,0.104 1.262,0.104 2.115,-0.006 3.979,-0.813 4.4,-2.471 0.043,-0.18 0.065,-0.364 0.065,-0.547 -0.045,-1.603 -1.441,-2.989 -3.399,-3.792 l 1.27,-3.481 c 0.526,-0.229 1.741,-0.896 1.791,-2.401 0,-0.376 -0.089,-0.781 -0.278,-1.209 l 3.423,-4.632 c 0.015,0 0.027,0.006 0.042,0.006 0.08,-0.002 0.166,-0.027 0.248,-0.037 0.54,0.473 1.235,0.77 2.003,0.771 1.7,-0.002 3.069,-1.389 3.069,-3.083 -0.001,-0.229 -0.03,-0.45 -0.078,-0.664 0.296,-0.259 0.59,-0.521 0.878,-0.784 1.99,-1.853 3.6,-3.691 3.605,-3.699 l 0.14,-0.162 -0.019,-0.21 c -0.016,-0.243 -0.055,-0.461 -0.099,-0.675 1.289,-1.957 2.469,-4.315 3.359,-7.153 2.421,-0.346 4.304,-2.404 4.306,-4.917 -0.004,-1.938 -1.114,-3.594 -2.713,-4.429 z m -95.513,-22.819 c -0.136,0.037 -0.272,0.073 -0.408,0.111 -0.029,0.008 -0.058,0.017 -0.086,0.025 -0.455,-0.214 -0.956,-0.344 -1.493,-0.344 -1.329,0 -2.482,0.728 -3.11,1.8 -7.73,2.739 -14.862,6.897 -18.889,13.209 0.615,-2.255 1.382,-4.177 2.157,-5.729 0.85,-1.706 1.698,-2.984 2.332,-3.834 0.632,-0.85 1.036,-1.254 1.034,-1.256 6.174,-6.255 15.15,-9.981 22.586,-12.118 2.485,-0.716 4.792,-1.254 6.765,-1.654 -5.137,2.407 -8.586,6.163 -10.888,9.79 z m 23.935,-3.629 c -3.495,0.179 -8.249,0.567 -13.466,1.398 0.442,-0.573 0.918,-1.159 1.436,-1.75 3.255,-3.711 7.941,-7.435 13.835,-7.958 -0.346,1.258 -1.093,4.188 -1.805,8.31 z m 10.802,0 c -0.712,-4.121 -1.459,-7.052 -1.805,-8.309 5.895,0.523 10.58,4.246 13.835,7.958 0.518,0.591 0.994,1.177 1.437,1.751 -5.217,-0.833 -9.971,-1.221 -13.467,-1.4 z m 29.035,5.223 c -0.628,-1.074 -1.782,-1.803 -3.112,-1.803 -0.538,0 -1.04,0.131 -1.496,0.346 -0.028,-0.008 -0.057,-0.017 -0.085,-0.024 -0.135,-0.038 -0.27,-0.073 -0.404,-0.11 -2.303,-3.628 -5.751,-7.385 -10.89,-9.793 1.973,0.4 4.28,0.938 6.765,1.654 7.437,2.137 16.412,5.863 22.586,12.118 -0.002,0.002 0.402,0.406 1.034,1.256 0.635,0.85 1.482,2.128 2.332,3.834 0.778,1.56 1.55,3.492 2.166,5.761 -4.025,-6.333 -11.161,-10.497 -18.896,-13.239 z" id="path101" inkscape:connector-curvature="0"/>
	<path d="m 257.367,242.027 c 1.275,-0.497 2.517,-1.013 3.093,-1.555 l 0,-0.001 0,0 0.001,-0.001 0,-0.001 c 0.044,-0.083 1.298,-1.203 1.354,-2.533 0.014,-0.479 -0.253,-1.014 -0.773,-1.302 -0.513,-0.299 -1.217,-0.436 -2.229,-0.44 -0.442,0.001 -0.946,0.03 -1.519,0.091 0.028,-0.284 0.052,-0.638 0.053,-1.025 -0.002,-0.722 -0.078,-1.554 -0.413,-2.276 -0.315,-0.722 -1.031,-1.346 -2.041,-1.328 -0.694,0.005 -1.498,0.253 -2.473,0.792 -1.322,-4.751 -1.84,-8.994 -1.84,-12.727 0,-2.191 0.191,-4.187 0.489,-6.026 3.201,-7.52 10.697,-12.382 19.203,-15.524 -0.031,0.189 -0.059,0.379 -0.059,0.577 10e-4,1.534 0.977,2.843 2.338,3.364 -0.766,2.197 -1.022,3.678 -1.025,3.688 -0.284,1.644 -0.411,3.295 -0.411,4.935 0,0.17 0.014,0.338 0.017,0.507 -2.271,0.47 -3.98,2.487 -3.98,4.892 0.004,2.774 2.237,5.009 4.989,5.009 0.155,0 0.301,-0.032 0.452,-0.046 0.287,1.063 0.605,2.081 0.938,3.066 -0.058,0.069 -0.126,0.124 -0.178,0.201 -0.228,0.322 -0.318,0.702 -0.316,1.065 0.03,0.966 0.569,1.983 1.133,2.797 -0.251,-0.052 -0.489,-0.076 -0.714,-0.076 -1.724,0.013 -2.42,1.342 -2.444,1.396 -0.359,0.695 -0.517,1.323 -0.515,1.888 0.037,1.495 1.037,2.278 1.749,2.651 -0.667,0.808 -0.964,1.523 -0.967,2.186 0.115,2.054 2.5,2.416 2.5,2.455 0.135,0.028 0.273,0.041 0.413,0.041 0.749,-0.026 1.639,-0.384 2.535,-0.886 -0.175,0.294 -0.349,0.593 -0.521,0.89 -0.688,1.204 -1.286,2.33 -1.534,2.801 -1.339,0.167 -7.634,0.913 -12.544,0.913 -0.551,0 -1.086,-0.01 -1.591,-0.029 -1.202,-0.049 -2.273,-0.223 -3.118,-0.403 -0.02,-0.008 -0.037,-0.016 -0.052,-0.026 z" id="path103" inkscape:connector-curvature="0" style="fill:#e5231b"/>
	<path d="m 327.751,198.991 c 0.802,1.667 1.146,4.696 1.14,8.261 0.002,4.376 -0.485,9.564 -1.081,14.268 -0.093,-0.015 -0.186,-0.042 -0.279,-0.046 -0.149,0 -0.306,0.017 -0.457,0.058 -1.317,0.289 -2.116,1.207 -2.057,2.479 0.003,0.763 0.188,1.674 0.484,2.849 -0.634,-0.31 -1.478,-0.624 -2.321,-0.635 -0.291,0 -0.591,0.039 -0.882,0.147 -0.725,0.275 -2.028,1.059 -2.063,2.59 10e-4,0.799 0.394,1.666 1.301,2.606 -0.613,0.639 -1.792,2.01 -1.839,3.438 -0.015,1.252 1.114,2.217 3.425,2.352 l 0.126,0.008 0.114,-0.049 c 0.005,-0.003 0.178,-0.08 0.456,-0.205 l -1.777,2.058 -12.455,-0.038 c -0.012,-0.456 -0.025,-1.194 -0.025,-2.028 -10e-4,-0.797 0.015,-1.688 0.058,-2.489 0.423,0.223 0.704,0.365 0.707,0.367 l 0.144,0.072 0.159,-0.027 c 2.684,-0.391 3.826,-1.556 3.815,-2.892 -0.033,-1.241 -0.853,-2.332 -1.378,-2.919 1.019,-0.762 1.437,-1.712 1.428,-2.57 -0.019,-1.12 -0.589,-1.995 -1.159,-2.406 -0.452,-0.309 -0.985,-0.391 -1.517,-0.393 -0.138,0 -0.277,0.013 -0.416,0.024 0.576,-4.501 0.812,-8.854 0.812,-12.933 -10e-4,-7.109 -0.701,-13.386 -1.488,-18.209 3.677,0.196 8.7,0.622 14.154,1.543 1.884,2.64 2.87,4.712 2.871,4.719 z" id="path105" inkscape:connector-curvature="0" style="fill:#e5231b"/>
	<path d="m 298.905,223.872 c -0.139,-0.011 -0.279,-0.024 -0.416,-0.024 -0.531,0.002 -1.064,0.084 -1.517,0.393 -0.57,0.412 -1.14,1.287 -1.159,2.406 -0.009,0.858 0.409,1.809 1.428,2.57 -0.525,0.587 -1.345,1.678 -1.378,2.919 -0.01,1.336 1.132,2.5 3.816,2.892 l 0.159,0.027 0.144,-0.072 c 0.002,-0.002 0.284,-0.144 0.707,-0.367 0.043,0.801 0.059,1.692 0.058,2.489 0,0.834 -0.014,1.573 -0.026,2.028 l -12.455,0.038 -1.777,-2.058 c 0.278,0.125 0.451,0.201 0.456,0.205 l 0.115,0.049 0.125,-0.008 c 2.311,-0.135 3.439,-1.1 3.425,-2.352 -0.047,-1.428 -1.226,-2.798 -1.839,-3.438 0.907,-0.94 1.299,-1.807 1.301,-2.606 -0.035,-1.531 -1.338,-2.315 -2.063,-2.59 -0.291,-0.108 -0.591,-0.147 -0.882,-0.147 -0.844,0.011 -1.687,0.325 -2.321,0.635 0.296,-1.175 0.481,-2.086 0.485,-2.849 0.059,-1.272 -0.739,-2.19 -2.057,-2.479 -0.152,-0.041 -0.308,-0.058 -0.458,-0.058 -0.094,0.004 -0.186,0.031 -0.279,0.046 -0.595,-4.704 -1.083,-9.892 -1.081,-14.268 -0.006,-3.565 0.338,-6.595 1.14,-8.261 0.001,-0.006 0.987,-2.079 2.872,-4.719 5.455,-0.92 10.479,-1.347 14.154,-1.542 -0.787,4.823 -1.487,11.1 -1.488,18.209 -10e-4,4.078 0.235,8.43 0.811,12.932 z" id="path107" inkscape:connector-curvature="0" style="fill:#e5231b"/>
	<path d="m 349.773,242.458 c -0.506,0.019 -1.04,0.029 -1.592,0.029 -4.91,0 -11.205,-0.746 -12.544,-0.913 -0.248,-0.471 -0.847,-1.598 -1.534,-2.801 -0.172,-0.297 -0.347,-0.596 -0.521,-0.89 0.896,0.501 1.786,0.859 2.535,0.886 0.14,0 0.277,-0.013 0.412,-0.041 0,-0.039 2.385,-0.4 2.5,-2.455 -0.003,-0.663 -0.3,-1.378 -0.967,-2.186 0.712,-0.373 1.712,-1.156 1.749,-2.651 0.002,-0.564 -0.156,-1.192 -0.516,-1.888 -0.024,-0.054 -0.72,-1.383 -2.444,-1.396 -0.225,0 -0.463,0.024 -0.714,0.076 0.564,-0.814 1.103,-1.831 1.133,-2.797 0.002,-0.363 -0.088,-0.743 -0.316,-1.065 -0.052,-0.077 -0.119,-0.132 -0.178,-0.201 0.332,-0.985 0.651,-2.003 0.938,-3.066 0.151,0.014 0.297,0.045 0.452,0.046 2.751,0 4.984,-2.235 4.988,-5.009 0,-2.404 -1.71,-4.422 -3.98,-4.892 0.003,-0.169 0.018,-0.337 0.018,-0.507 0,-1.639 -0.127,-3.291 -0.411,-4.935 -0.003,-0.01 -0.26,-1.491 -1.025,-3.688 1.361,-0.521 2.337,-1.83 2.338,-3.364 0,-0.197 -0.028,-0.388 -0.059,-0.576 8.514,3.146 16.016,8.018 19.21,15.569 0.293,1.827 0.481,3.808 0.481,5.98 0,3.733 -0.518,7.976 -1.84,12.727 -0.976,-0.539 -1.778,-0.787 -2.473,-0.792 -1.011,-0.018 -1.727,0.605 -2.041,1.328 -0.336,0.722 -0.411,1.554 -0.413,2.276 10e-4,0.387 0.024,0.742 0.053,1.025 -0.573,-0.061 -1.077,-0.089 -1.52,-0.091 -1.012,0.004 -1.716,0.141 -2.229,0.44 -0.52,0.288 -0.787,0.824 -0.773,1.302 0.057,1.33 1.311,2.451 1.354,2.533 v 0.001 c 0,0 0,0 0.001,0.001 v 0 c 0,0 0,10e-4 10e-4,10e-4 0.575,0.542 1.816,1.058 3.092,1.554 -0.017,0.01 -0.033,0.019 -0.05,0.028 -0.845,0.18 -1.914,0.353 -3.115,0.402 z" id="path109" inkscape:connector-curvature="0" style="fill:#e5231b"/>
	<g id="g111">
		<path d="m 319.648,185.142 c 7.124,2.088 11.531,6.719 14.233,11.113 -0.621,0.649 -1.007,1.525 -1.007,2.495 0,1.979 1.608,3.608 3.602,3.61 0.102,0 0.197,-0.022 0.297,-0.03 0.768,2.173 1.021,3.638 1.022,3.644 0.274,1.579 0.396,3.175 0.395,4.763 0,0.135 -0.013,0.27 -0.015,0.405 -0.004,0 -0.007,-0.001 -0.01,-0.001 -2.776,0 -5.014,2.246 -5.014,4.995 0.003,2.267 1.506,4.147 3.566,4.771 -0.241,0.886 -0.496,1.751 -0.771,2.584 -0.392,-0.189 -0.833,-0.28 -1.296,-0.271 -0.922,0.002 -1.973,0.293 -3.264,0.743 -0.444,-0.5 -1.45,-1.583 -2.61,-2.142 0.609,-4.776 1.112,-10.077 1.113,-14.568 -0.006,-3.633 -0.313,-6.726 -1.237,-8.69 -0.027,-0.015 -3.63,-7.695 -10.382,-12.48 0.579,-0.112 1.072,-0.46 1.378,-0.941 z" id="path113" inkscape:connector-curvature="0" style="fill:#E7BB5B"/>
		<path d="m 303.305,182.175 c -0.162,0.294 -0.26,0.627 -0.261,0.988 0.004,1.16 0.942,2.11 2.104,2.114 10e-4,0 0.003,0 0.005,0 0.002,0 0.003,0 0.005,0 1.163,-0.004 2.1,-0.954 2.104,-2.114 0,-0.361 -0.099,-0.694 -0.261,-0.988 3.321,0.03 6.476,0.141 9.434,0.305 -0.41,0.387 -0.667,0.931 -0.669,1.533 10e-4,0.196 0.036,0.382 0.086,0.563 -2.296,-1.227 -4.885,-2.067 -7.757,-2.21 l -0.706,-0.031 0.207,0.678 c 0,0.008 0.899,2.941 1.805,7.915 0.906,4.972 1.812,11.962 1.812,20.012 0,4.127 -0.238,8.534 -0.836,13.09 -0.269,0.059 -0.528,0.125 -0.761,0.194 0.612,-1.304 0.88,-2.307 0.883,-3.123 0.013,-0.858 -0.346,-1.538 -0.899,-1.904 -0.546,-0.368 -1.194,-0.465 -1.819,-0.467 -1.113,0.003 -2.212,0.327 -2.626,0.461 -0.414,-0.134 -1.512,-0.458 -2.625,-0.461 -0.625,0.002 -1.274,0.099 -1.819,0.467 -0.554,0.367 -0.912,1.046 -0.899,1.904 0.003,0.816 0.27,1.819 0.883,3.123 -0.233,-0.069 -0.493,-0.135 -0.761,-0.194 -0.598,-4.556 -0.836,-8.962 -0.836,-13.09 0,-8.05 0.906,-15.041 1.812,-20.012 0.906,-4.974 1.805,-7.907 1.805,-7.915 l 0.207,-0.678 -0.707,0.031 c -2.872,0.143 -5.46,0.983 -7.756,2.21 0.05,-0.18 0.085,-0.367 0.085,-0.563 -10e-4,-0.602 -0.258,-1.146 -0.669,-1.533 2.955,-0.164 6.109,-0.274 9.43,-0.305 z" id="path115" inkscape:connector-curvature="0" style="fill:#E7BB5B"/>
		<path d="m 292.034,186.082 c -6.752,4.785 -10.354,12.465 -10.382,12.48 -0.924,1.964 -1.231,5.057 -1.237,8.69 10e-4,4.491 0.504,9.792 1.113,14.568 -1.16,0.558 -2.166,1.642 -2.61,2.142 -1.291,-0.45 -2.342,-0.741 -3.264,-0.743 -0.463,-0.008 -0.904,0.082 -1.296,0.271 -0.274,-0.833 -0.529,-1.698 -0.77,-2.584 2.06,-0.624 3.563,-2.504 3.566,-4.771 0,-2.75 -2.237,-4.995 -5.014,-4.995 -0.003,0 -0.006,0.001 -0.01,0.001 -0.002,-0.135 -0.015,-0.27 -0.015,-0.405 -0.002,-1.587 0.12,-3.184 0.394,-4.763 10e-4,-0.006 0.255,-1.471 1.022,-3.644 0.1,0.008 0.195,0.03 0.297,0.03 1.994,-0.002 3.602,-1.631 3.602,-3.61 0,-0.97 -0.386,-1.846 -1.007,-2.495 2.702,-4.394 7.109,-9.024 14.233,-11.113 0.309,0.482 0.802,0.83 1.378,0.941 z" id="path117" inkscape:connector-curvature="0" style="fill:#E7BB5B"/>
		<path d="m 251.083,233.294 c -0.671,-0.365 -2.387,-1.215 -4.053,-1.228 -1.014,-0.042 -2.047,0.409 -2.658,1.437 -1.033,-1.672 -1.968,-3.653 -2.72,-5.955 2.577,-0.198 4.618,-2.328 4.618,-4.951 0,-2.776 -2.239,-5.015 -4.995,-5.015 -0.453,0 -0.883,0.08 -1.301,0.193 -0.028,-0.645 -0.063,-1.283 -0.063,-1.96 0,-1.109 0.039,-2.261 0.12,-3.459 0,-0.004 0.081,-1.244 0.628,-3.256 0.675,-2.458 2.027,-6.016 4.76,-9.689 0.556,0.351 1.209,0.562 1.914,0.562 1.989,-0.004 3.621,-1.601 3.623,-3.603 0,-0.794 -0.262,-1.519 -0.692,-2.112 3.038,-2.586 6.984,-4.986 12.095,-6.83 0.386,0.521 1,0.864 1.697,0.865 1.152,-0.002 2.069,-0.93 2.097,-2.067 0.717,-0.197 1.448,-0.388 2.206,-0.563 0.01,-0.002 3.766,-0.871 10.257,-1.745 3.382,-0.457 7.504,-0.912 12.206,-1.244 -0.28,0.336 -0.458,0.756 -0.486,1.219 -6.649,1.03 -23.59,4.538 -33.692,14.735 -0.054,0.052 -7.061,7.175 -7.061,21.094 0,3.897 0.551,8.323 1.953,13.266 -0.149,0.098 -0.298,0.197 -0.453,0.306 z" id="path119" inkscape:connector-curvature="0" style="fill:#E7BB5B"/>
		<path d="m 346.767,267.082 c -0.192,0.091 -0.394,0.119 -0.488,0.126 -14.477,-3.605 -28.722,-4.742 -41.125,-4.744 -12.403,0.002 -26.648,1.138 -41.125,4.744 -0.095,-0.007 -0.296,-0.035 -0.488,-0.126 -0.261,-0.145 -0.447,-0.27 -0.466,-0.775 0,-0.068 0.006,-0.145 0.017,-0.232 0.027,-0.232 0.178,-0.508 0.344,-0.711 0.093,-0.119 0.171,-0.197 0.229,-0.252 0.744,-0.18 5.186,-1.223 12.052,-2.271 7.532,-1.153 17.94,-2.306 29.438,-2.304 11.498,-0.002 21.907,1.151 29.438,2.304 6.866,1.049 11.309,2.092 12.053,2.271 0.057,0.055 0.135,0.133 0.229,0.252 0.166,0.203 0.316,0.479 0.344,0.711 0.011,0.087 0.017,0.164 0.017,0.232 -0.022,0.505 -0.209,0.63 -0.469,0.775 z" id="path121" inkscape:connector-curvature="0" style="fill:#E7BB5B"/>
		<path d="m 349.433,254.599 c -0.158,-0.046 -0.312,-0.1 -0.475,-0.138 l 10e-4,0 -3.948,-0.905 c -0.682,-0.158 -1.352,-0.235 -1.988,-0.235 -2.104,0.004 -3.955,0.819 -4.396,2.483 -0.045,0.187 -0.065,0.375 -0.065,0.561 0.055,1.958 2.129,3.593 4.819,4.234 l 3.687,0.85 -0.561,2.602 c -3.11,-0.722 -20.421,-4.515 -41.354,-4.517 -20.933,0.002 -38.243,3.795 -41.353,4.517 l -0.561,-2.602 3.687,-0.85 c 2.69,-0.641 4.765,-2.277 4.82,-4.234 0,-0.186 -0.021,-0.375 -0.065,-0.561 -0.44,-1.665 -2.292,-2.479 -4.396,-2.483 -0.637,0 -1.307,0.078 -1.988,0.235 l -3.948,0.905 0,0 c -0.163,0.038 -0.316,0.092 -0.475,0.138 l -1.16,-3.183 c 1.463,-0.362 5.904,-1.405 12.53,-2.454 8.191,-1.296 19.69,-2.595 32.91,-2.595 13.22,0 24.719,1.298 32.911,2.595 6.626,1.049 11.066,2.091 12.529,2.454 l -1.161,3.183 z" id="path123" inkscape:connector-curvature="0" style="fill:#E7BB5B"/>
		<path d="m 351.792,250.209 c -0.227,0.175 -0.442,0.28 -0.572,0.335 -1.843,-0.473 -20.815,-5.175 -46.067,-5.177 -25.251,0.002 -44.224,4.704 -46.066,5.177 -0.13,-0.055 -0.346,-0.16 -0.573,-0.335 -0.354,-0.278 -0.646,-0.638 -0.646,-1.165 0,-0.22 0.074,-0.501 0.218,-0.825 1.142,-0.231 6.095,-1.199 13.57,-2.171 8.556,-1.112 20.392,-2.225 33.498,-2.225 13.106,0 24.942,1.113 33.499,2.225 7.475,0.972 12.428,1.94 13.569,2.171 0.145,0.323 0.218,0.604 0.218,0.825 -0.002,0.527 -0.294,0.887 -0.648,1.165 z" id="path125" inkscape:connector-curvature="0" style="fill:#E7BB5B"/>
		<path d="m 352.365,247.229 c -2.684,-0.541 -22.718,-4.404 -47.212,-4.406 -24.494,0.002 -44.528,3.865 -47.212,4.406 l -3.16,-4.274 c 0.237,-0.079 0.545,-0.184 0.893,-0.305 0.799,0.242 2.616,0.716 4.82,0.807 0.52,0.019 1.067,0.029 1.631,0.029 5.623,0 12.92,-0.951 12.933,-0.954 l 0.259,-0.033 0.12,-0.232 c 0.002,-0.004 0.744,-1.438 1.635,-2.997 0.546,-0.968 1.182,-2.005 1.691,-2.731 1.08,-0.805 1.996,-1.614 2.447,-2.014 0.708,0.435 1.945,1.045 3.09,1.584 l 3.51,4.063 13.877,-0.043 0.019,-0.479 c 0,-0.004 0.04,-1.142 0.04,-2.545 -10e-4,-0.976 -0.019,-2.063 -0.087,-3.012 0.334,-0.185 0.692,-0.387 1.053,-0.599 0.684,-0.403 1.369,-0.838 1.904,-1.248 0.195,-0.168 0.379,-0.309 0.538,-0.455 0,0 0,0 10e-4,0.001 0,0 0,0 0.001,-0.001 0.158,0.146 0.343,0.287 0.539,0.455 0.535,0.41 1.22,0.844 1.903,1.248 0.36,0.212 0.719,0.414 1.053,0.599 -0.068,0.949 -0.086,2.036 -0.087,3.012 0,1.403 0.039,2.541 0.039,2.545 l 0.019,0.479 13.878,0.043 3.51,-4.063 c 1.146,-0.54 2.383,-1.149 3.09,-1.584 0.451,0.4 1.367,1.209 2.447,2.014 0.509,0.726 1.145,1.763 1.69,2.731 0.892,1.559 1.634,2.993 1.636,2.997 l 0.12,0.232 0.259,0.033 c 0.013,0.002 7.31,0.954 12.933,0.954 0.563,0 1.111,-0.01 1.631,-0.029 2.204,-0.091 4.021,-0.565 4.82,-0.807 0.348,0.121 0.655,0.226 0.893,0.305 l -3.164,4.274 z" id="path127" inkscape:connector-curvature="0" style="fill:#E7BB5B"/>
		<path d="m 370.332,217.776 c -0.418,-0.113 -0.849,-0.193 -1.302,-0.193 -2.755,0 -4.994,2.239 -4.994,5.015 0,2.623 2.041,4.753 4.618,4.951 -0.752,2.302 -1.687,4.283 -2.72,5.955 -0.611,-1.028 -1.645,-1.479 -2.658,-1.437 -1.666,0.013 -3.382,0.863 -4.053,1.228 -0.155,-0.109 -0.304,-0.208 -0.452,-0.306 1.401,-4.943 1.953,-9.369 1.953,-13.266 0,-13.919 -7.007,-21.042 -7.062,-21.094 -10.103,-10.198 -27.043,-13.705 -33.692,-14.735 -0.028,-0.463 -0.205,-0.883 -0.485,-1.219 4.701,0.332 8.823,0.787 12.205,1.244 6.491,0.875 10.247,1.743 10.257,1.745 0.758,0.176 1.488,0.366 2.206,0.563 0.027,1.138 0.944,2.065 2.097,2.067 0.697,-0.001 1.312,-0.344 1.697,-0.865 5.111,1.844 9.057,4.243 12.095,6.83 -0.431,0.593 -0.692,1.317 -0.692,2.112 0.003,2.001 1.635,3.599 3.623,3.603 0.705,0 1.358,-0.21 1.914,-0.562 2.732,3.673 4.085,7.231 4.76,9.689 0.548,2.012 0.628,3.252 0.628,3.256 0.081,1.198 0.12,2.35 0.12,3.459 0,0.677 -0.036,1.315 -0.063,1.96 z" id="path129" inkscape:connector-curvature="0" style="fill:#E7BB5B"/>
	</g>
	<path d="m 301.543,193.87 h 0.002 c 0,2.008 1.633,3.606 3.622,3.608 1.979,-0.002 3.592,-1.603 3.596,-3.608 0,-1.995 -1.614,-3.609 -3.596,-3.609 -1.993,-0.001 -3.622,1.612 -3.624,3.609 z" id="path131" inkscape:connector-curvature="0"/>
	<path d="m 305.154,202.292 c -2.759,0 -5.001,2.238 -5.003,5.003 0.006,2.777 2.246,4.997 5.003,5.001 2.782,-0.004 4.997,-2.228 5.001,-5.001 -0.005,-2.761 -2.217,-4.998 -5.001,-5.003 z" id="path133" inkscape:connector-curvature="0"/>
	<g id="g135">
		<path d="m 303.876,169.696 v -5.812 h -2.489 v -2.557 h 2.489 v -2.718 h 2.553 v 2.718 h 2.488 v 2.555 l -2.488,0.002 v 5.812 h -0.385 c -0.296,-0.043 -0.596,-0.073 -0.904,-0.074 -0.309,0 -0.61,0.03 -0.907,0.074 h -0.357 z" id="path137" inkscape:connector-curvature="0" style="fill:#E7BB5B"/>
		<path d="m 299.936,175.834 c 0,2.893 2.331,5.222 5.205,5.226 l 0,0 c 2.901,0 5.23,-2.333 5.23,-5.226 l 0,0 c 0,-2.876 -2.329,-5.211 -5.23,-5.211 l 0,0 c -2.874,0.005 -5.202,2.335 -5.205,5.211 l 0,0 0,0 z" id="path139" inkscape:connector-curvature="0" style="fill:#E7BB5B"/>
		<path d="m 302.544,193.87 c 0.002,1.452 1.177,2.608 2.623,2.608 l 0,0 c 1.428,0 2.596,-1.154 2.596,-2.608 l 0,0 c -0.002,-1.441 -1.172,-2.608 -2.596,-2.61 l 0,0 c -1.442,0.002 -2.62,1.172 -2.623,2.61 l 0,0 0,0 z" id="path141" inkscape:connector-curvature="0" style="fill:#359AF8"/>
		<path d="m 301.152,207.294 c 0,2.224 1.794,4.001 4.001,4.001 l 0,0 c 2.236,-0.002 4,-1.773 4.001,-4.001 l 0,0 c -0.002,-2.216 -1.768,-4.001 -4.001,-4.003 l 0,0 c -2.205,0.004 -3.998,1.792 -4.001,4.003 l 0,0 0,0 z" id="path143" inkscape:connector-curvature="0" style="fill:#359AF8"/>
		<path d="m 304.044,183.164 c 0.002,0.603 0.512,1.113 1.104,1.115 l 0,0 c 0.62,-0.002 1.113,-0.506 1.115,-1.115 l 0,0 c -0.002,-0.608 -0.487,-1.102 -1.115,-1.104 l 0,0 c -0.598,0.002 -1.102,0.501 -1.104,1.104 l 0,0 0,0 z" id="path145" inkscape:connector-curvature="0" style="fill:#359AF8"/>
		<path d="m 260.305,239.105 c -0.276,0.386 -0.55,0.656 -0.55,0.658 -0.268,0.303 -1.802,0.996 -3.155,1.489 -0.989,0.371 -1.914,0.681 -2.356,0.827 0.162,-0.374 0.254,-0.785 0.255,-1.217 -0.004,-1.688 -1.387,-3.053 -3.069,-3.055 -1.092,0 -2.043,0.572 -2.587,1.426 -0.204,-0.182 -0.406,-0.365 -0.601,-0.551 -1.595,-1.483 -2.946,-2.967 -3.384,-3.456 0.266,-1.807 1.055,-2.101 2.173,-2.16 0.843,-0.008 1.8,0.307 2.548,0.622 0.742,0.315 1.276,0.628 1.28,0.626 l 0.286,0.172 0.268,-0.196 c 1.668,-1.229 2.816,-1.64 3.48,-1.632 0.624,0.017 0.885,0.264 1.137,0.753 0.233,0.489 0.319,1.208 0.317,1.851 0,0.828 -0.127,1.507 -0.125,1.509 l -0.125,0.679 0.685,-0.094 c 0.814,-0.11 1.487,-0.16 2.031,-0.16 0.916,-0.002 1.466,0.145 1.722,0.301 0.248,0.164 0.266,0.248 0.28,0.441 0.013,0.284 -0.228,0.785 -0.51,1.167 z" id="path147" inkscape:connector-curvature="0" style="fill:#E7BB5B"/>
		<path d="m 251.429,242.943 c 1.126,-0.002 2.065,-0.94 2.068,-2.082 l 0,0 c -0.002,-1.124 -0.938,-2.054 -2.068,-2.056 l 0,0 c -1.144,0.002 -2.066,0.928 -2.068,2.056 l 0,0 h -0.002 c 0.004,1.144 0.93,2.08 2.07,2.082 l 0,0 z" id="path149" inkscape:connector-curvature="0" style="fill:#E7BB5B"/>
		<path d="m 274.035,225.431 c 0.002,-0.211 0.045,-0.361 0.136,-0.49 0.384,-0.527 0.768,-0.708 1.483,-0.723 0.757,-0.004 1.839,0.29 3.239,0.796 l 0.328,0.119 0.224,-0.269 c 0.002,-0.002 0.513,-0.616 1.213,-1.231 0.69,-0.622 1.599,-1.184 2.118,-1.159 0.074,0 0.137,0.008 0.195,0.024 1.108,0.359 1.26,0.558 1.32,1.513 0.004,0.776 -0.283,2.001 -0.751,3.743 l -0.345,1.295 c -0.542,-0.483 -1.246,-0.785 -2.023,-0.786 -1.631,0.002 -2.94,1.261 -3.054,2.856 l -1.913,-1.976 c -0.002,0 -0.554,-0.573 -1.108,-1.347 -0.561,-0.767 -1.078,-1.755 -1.062,-2.365 z" id="path151" inkscape:connector-curvature="0" style="fill:#E7BB5B"/>
		<path d="m 274.189,237.769 c -0.078,0 -0.144,-0.008 -0.204,-0.021 0.002,0.002 -0.456,-0.101 -0.907,-0.361 -0.462,-0.273 -0.807,-0.624 -0.8,-1.114 -0.006,-0.411 0.244,-1.083 1.166,-2.023 l 0.589,-0.604 -0.811,-0.228 c -0.002,0 -0.443,-0.127 -0.887,-0.454 -0.451,-0.334 -0.839,-0.794 -0.841,-1.529 0,-0.375 0.103,-0.845 0.404,-1.43 0,-0.002 0.097,-0.195 0.351,-0.415 0.256,-0.22 0.628,-0.437 1.205,-0.437 0.507,0 1.201,0.172 2.12,0.759 l 2.542,1.628 c 0.086,1.225 0.871,2.237 1.966,2.65 -0.472,0.405 -1.128,0.948 -1.857,1.492 -1.417,1.083 -3.196,2.12 -4.036,2.087 z" id="path153" inkscape:connector-curvature="0" style="fill:#E7BB5B"/>
		<path d="m 287.229,236.349 c -0.342,-0.152 -1.367,-0.61 -2.477,-1.133 -0.787,-0.368 -1.625,-0.78 -2.273,-1.124 1.028,-0.49 1.752,-1.529 1.752,-2.761 -10e-4,-0.909 -0.404,-1.715 -1.029,-2.276 l 1.104,-0.762 c 0.002,0 0.388,-0.267 0.952,-0.54 0.561,-0.275 1.289,-0.534 1.868,-0.529 0.201,0 0.38,0.029 0.534,0.086 0.544,0.193 1.445,0.831 1.412,1.652 0.002,0.502 -0.286,1.248 -1.347,2.23 l -0.394,0.365 0.392,0.368 c 0.002,0 0.482,0.451 0.967,1.085 0.49,0.628 0.934,1.447 0.919,1.995 -0.013,0.545 -0.295,1.115 -2.38,1.344 z" id="path155" inkscape:connector-curvature="0" style="fill:#E7BB5B"/>
		<path d="m 279.094,231.331 c 0.002,1.159 0.918,2.065 2.077,2.069 l 0,0 c 1.128,0 2.059,-0.915 2.061,-2.069 l 0,0 c -0.002,-1.142 -0.938,-2.067 -2.061,-2.069 l 0,0 c -1.154,0 -2.077,0.925 -2.077,2.069 l 0,0 0,0 z" id="path157" inkscape:connector-curvature="0" style="fill:#E7BB5B"/>
		<path d="m 350.004,239.105 c 0.276,0.386 0.55,0.656 0.55,0.658 0.268,0.303 1.802,0.996 3.155,1.489 0.989,0.371 1.914,0.681 2.356,0.827 -0.162,-0.374 -0.254,-0.785 -0.255,-1.217 0.004,-1.688 1.387,-3.053 3.068,-3.055 1.092,0 2.043,0.572 2.587,1.426 0.204,-0.182 0.406,-0.365 0.602,-0.551 1.595,-1.483 2.945,-2.967 3.384,-3.456 -0.266,-1.807 -1.055,-2.101 -2.173,-2.16 -0.843,-0.008 -1.8,0.307 -2.549,0.622 -0.742,0.315 -1.275,0.628 -1.28,0.626 l -0.286,0.172 -0.268,-0.196 c -1.669,-1.229 -2.816,-1.64 -3.48,-1.632 -0.624,0.017 -0.886,0.264 -1.138,0.753 -0.232,0.489 -0.318,1.208 -0.316,1.851 0,0.828 0.127,1.507 0.125,1.509 l 0.124,0.679 -0.685,-0.094 c -0.814,-0.11 -1.487,-0.16 -2.031,-0.16 -0.916,-0.002 -1.466,0.145 -1.722,0.301 -0.247,0.164 -0.266,0.248 -0.28,0.441 -0.012,0.284 0.23,0.785 0.512,1.167 z" id="path159" inkscape:connector-curvature="0" style="fill:#E7BB5B"/>
		<path d="m 358.879,242.943 c -1.126,-0.002 -2.065,-0.94 -2.067,-2.082 l 0,0 c 0.002,-1.124 0.938,-2.054 2.067,-2.056 l 0,0 c 1.145,0.002 2.066,0.928 2.068,2.056 l 0,0 h 0.002 c -0.004,1.144 -0.929,2.08 -2.07,2.082 l 0,0 z" id="path161" inkscape:connector-curvature="0" style="fill:#E7BB5B"/>
		<path d="m 336.273,225.431 c -0.002,-0.211 -0.046,-0.361 -0.136,-0.49 -0.384,-0.527 -0.768,-0.708 -1.483,-0.723 -0.758,-0.004 -1.839,0.29 -3.239,0.796 l -0.328,0.119 -0.224,-0.269 c -0.002,-0.002 -0.513,-0.616 -1.213,-1.231 -0.689,-0.622 -1.599,-1.184 -2.118,-1.159 -0.073,0 -0.137,0.008 -0.194,0.024 -1.108,0.359 -1.261,0.558 -1.32,1.513 -0.004,0.776 0.283,2.001 0.752,3.743 l 0.345,1.295 c 0.541,-0.483 1.246,-0.785 2.022,-0.786 1.631,0.002 2.94,1.261 3.055,2.856 l 1.912,-1.976 c 0.002,0 0.555,-0.573 1.108,-1.347 0.56,-0.767 1.077,-1.755 1.061,-2.365 z" id="path163" inkscape:connector-curvature="0" style="fill:#E7BB5B"/>
		<path d="m 336.119,237.769 c 0.078,0 0.144,-0.008 0.203,-0.021 -0.002,0.002 0.456,-0.101 0.907,-0.361 0.462,-0.273 0.807,-0.624 0.8,-1.114 0.007,-0.411 -0.244,-1.083 -1.165,-2.023 l -0.589,-0.604 0.811,-0.228 c 0.002,0 0.443,-0.127 0.887,-0.454 0.451,-0.334 0.839,-0.794 0.841,-1.529 0,-0.375 -0.103,-0.845 -0.404,-1.43 0,-0.002 -0.097,-0.195 -0.351,-0.415 -0.257,-0.22 -0.628,-0.437 -1.205,-0.437 -0.507,0 -1.2,0.172 -2.12,0.759 l -2.542,1.628 c -0.086,1.225 -0.87,2.237 -1.966,2.65 0.472,0.405 1.128,0.948 1.856,1.492 1.418,1.083 3.197,2.12 4.037,2.087 z" id="path165" inkscape:connector-curvature="0" style="fill:#E7BB5B"/>
		<path d="m 323.08,236.349 c 0.342,-0.152 1.366,-0.61 2.477,-1.133 0.786,-0.368 1.625,-0.78 2.273,-1.124 -1.028,-0.49 -1.753,-1.529 -1.753,-2.761 10e-4,-0.909 0.404,-1.715 1.029,-2.276 l -1.104,-0.762 c -0.002,0 -0.389,-0.267 -0.952,-0.54 -0.561,-0.275 -1.289,-0.534 -1.868,-0.529 -0.201,0 -0.38,0.029 -0.533,0.086 -0.544,0.193 -1.445,0.831 -1.412,1.652 -0.002,0.502 0.285,1.248 1.347,2.23 l 0.394,0.365 -0.392,0.368 c -0.002,0 -0.482,0.451 -0.967,1.085 -0.49,0.628 -0.934,1.447 -0.92,1.995 0.014,0.545 0.295,1.115 2.381,1.344 z" id="path167" inkscape:connector-curvature="0" style="fill:#E7BB5B"/>
		<path d="m 331.214,231.331 c -0.002,1.159 -0.918,2.065 -2.077,2.069 l 0,0 c -1.128,0 -2.059,-0.915 -2.061,-2.069 l 0,0 c 0.002,-1.142 0.938,-2.067 2.061,-2.069 l 0,0 c 1.155,0 2.077,0.925 2.077,2.069 l 0,0 0,0 z" id="path169" inkscape:connector-curvature="0" style="fill:#E7BB5B"/>
		<path d="m 313.442,232.136 c -0.012,0.665 -0.405,1.427 -2.817,1.876 -0.383,-0.196 -1.453,-0.751 -2.521,-1.38 -0.665,-0.391 -1.328,-0.813 -1.806,-1.18 -0.105,-0.081 -0.198,-0.158 -0.283,-0.231 1.285,-0.371 2.227,-1.529 2.229,-2.918 -0.004,-1.709 -1.38,-3.081 -3.089,-3.083 -1.69,0.002 -3.046,1.378 -3.05,3.083 0,1.38 0.925,2.54 2.189,2.915 -0.505,0.428 -1.453,1.063 -2.34,1.56 -0.982,0.568 -1.918,1.053 -2.271,1.234 -2.416,-0.449 -2.809,-1.211 -2.819,-1.876 -0.008,-0.543 0.341,-1.235 0.73,-1.762 0.383,-0.527 0.764,-0.879 0.762,-0.881 l 0.492,-0.459 -0.581,-0.339 c -1.169,-0.698 -1.443,-1.412 -1.453,-2.048 -0.019,-0.721 0.474,-1.426 0.727,-1.583 0.189,-0.134 0.521,-0.216 0.934,-0.216 0.005,0 0.01,0 0.016,0 0.636,-0.006 1.391,0.177 1.986,0.36 0.595,0.183 1.031,0.364 1.033,0.362 l 1.336,0.574 -0.702,-1.274 c -0.988,-1.795 -1.34,-3.026 -1.334,-3.771 0.033,-1.151 0.642,-1.305 1.719,-1.371 0.574,-0.004 1.189,0.113 1.659,0.229 0.47,0.115 0.795,0.232 0.797,0.23 l 0.168,0.06 0.173,-0.06 c 0,-0.004 1.298,-0.465 2.452,-0.461 1.076,0.066 1.686,0.222 1.721,1.373 0.004,0.745 -0.349,1.978 -1.334,3.772 l -0.695,1.272 1.331,-0.574 c 0,-0.006 1.743,-0.733 3.018,-0.722 0.418,-0.002 0.758,0.08 0.949,0.216 0.251,0.154 0.742,0.862 0.724,1.583 -0.01,0.638 -0.281,1.35 -1.45,2.048 l -0.579,0.339 0.49,0.459 c 0.002,0 0.379,0.352 0.762,0.881 0.386,0.525 0.735,1.217 0.727,1.763 z" id="path171" inkscape:connector-curvature="0" style="fill:#E7BB5B"/>
		<path d="m 303.106,228.303 c 0.002,1.129 0.917,2.052 2.048,2.054 l 0,0 c 1.162,0 2.086,-0.929 2.088,-2.054 l 0,0 c -0.002,-1.158 -0.926,-2.082 -2.088,-2.082 l 0,0 c -1.129,0 -2.046,0.918 -2.048,2.082 l 0,0 0,0 z" id="path173" inkscape:connector-curvature="0" style="fill:#E7BB5B"/>
		<path d="m 291.323,184.013 c 0.002,0.612 0.507,1.109 1.109,1.109 l 0,0 c 0.634,-0.004 1.104,-0.484 1.109,-1.109 l 0,0 c -0.002,-0.607 -0.48,-1.108 -1.109,-1.108 l 0,0 c -0.598,0.002 -1.107,0.511 -1.109,1.108 l 0,0 0,0 z" id="path175" inkscape:connector-curvature="0" style="fill:#359AF8"/>
		<path d="m 262.939,186.178 c 0.002,0.61 0.505,1.113 1.117,1.115 l 0,0 c 0.608,-0.002 1.101,-0.5 1.101,-1.115 l 0,0 c -0.002,-0.616 -0.487,-1.103 -1.101,-1.103 l 0,0 c -0.617,0 -1.114,0.493 -1.117,1.103 l 0,0 0,0 z" id="path177" inkscape:connector-curvature="0" style="fill:#359AF8"/>
		<path d="m 271.213,198.749 c 0.002,1.424 1.183,2.606 2.617,2.61 l 0,0 c 1.434,-0.004 2.6,-1.185 2.604,-2.61 l 0,0 c -0.004,-1.44 -1.167,-2.606 -2.604,-2.608 l 0,0 c -1.437,0.002 -2.615,1.172 -2.617,2.608 l 0,0 0,0 z" id="path179" inkscape:connector-curvature="0" style="fill:#359AF8"/>
		<path d="m 244.738,196.37 c 0.002,1.444 1.168,2.6 2.596,2.602 l 0,0 c 1.444,0 2.62,-1.162 2.622,-2.602 l 0,0 c -0.002,-1.456 -1.18,-2.616 -2.622,-2.616 l 0,0 c -1.428,0 -2.596,1.156 -2.596,2.616 l 0,0 0,0 z" id="path181" inkscape:connector-curvature="0" style="fill:#359AF8"/>
		<path d="m 268.152,216.135 c 0,2.223 1.791,4.005 3.989,4.009 l 0,0 c 2.228,-0.002 4.014,-1.786 4.014,-4.009 l 0,0 c -0.004,-2.194 -1.789,-3.991 -4.014,-3.996 l 0,0 c -2.197,0.005 -3.985,1.801 -3.989,3.996 l 0,0 0,0 z" id="path183" inkscape:connector-curvature="0" style="fill:#359AF8"/>
		<path d="m 237.267,222.597 c 0.004,2.194 1.807,3.984 4.009,3.989 l 0,0 c 2.2,-0.004 3.99,-1.792 3.995,-3.989 l 0,0 c -0.004,-2.227 -1.794,-4.011 -3.995,-4.017 l 0,0 c -2.2,0.006 -4.005,1.793 -4.009,4.017 l 0,0 0,0 z" id="path185" inkscape:connector-curvature="0" style="fill:#359AF8"/>
		<path d="m 257.529,258.719 c 0,0.106 0.012,0.213 0.037,0.32 l 0,0 c 0.178,0.921 1.52,1.703 3.428,1.697 l 0,0 c 0.561,0 1.161,-0.065 1.773,-0.205 l 0,0 3.936,-0.907 c 2.457,-0.545 4.099,-2.136 4.044,-3.26 l 0,0 c 0,-0.112 -0.013,-0.219 -0.039,-0.326 l 0,0 c -0.199,-0.948 -1.529,-1.722 -3.423,-1.718 l 0,0 c -0.557,0 -1.153,0.065 -1.765,0.209 l 0,0 -3.947,0.905 c -2.443,0.534 -4.099,2.143 -4.044,3.285 l 0,0 z" id="path187" inkscape:connector-curvature="0" style="fill:#c8d400"/>
		<path d="m 318.985,184.013 c -0.002,0.612 -0.507,1.109 -1.108,1.109 l 0,0 c -0.635,-0.004 -1.104,-0.484 -1.109,-1.109 l 0,0 c 0.003,-0.607 0.48,-1.108 1.109,-1.108 l 0,0 c 0.598,0.002 1.106,0.511 1.108,1.108 l 0,0 0,0 z" id="path189" inkscape:connector-curvature="0" style="fill:#359AF8"/>
		<path d="m 347.369,186.178 c -0.003,0.61 -0.506,1.113 -1.117,1.115 l 0,0 c -0.608,-0.002 -1.102,-0.5 -1.102,-1.115 l 0,0 c 0.002,-0.616 0.487,-1.103 1.102,-1.103 l 0,0 c 0.617,0 1.114,0.493 1.117,1.103 l 0,0 0,0 z" id="path191" inkscape:connector-curvature="0" style="fill:#359AF8"/>
		<path d="m 339.096,198.749 c -0.003,1.424 -1.183,2.606 -2.617,2.61 l 0,0 c -1.434,-0.004 -2.6,-1.185 -2.604,-2.61 l 0,0 c 0.004,-1.44 1.167,-2.606 2.604,-2.608 l 0,0 c 1.436,0.002 2.614,1.172 2.617,2.608 l 0,0 0,0 z" id="path193" inkscape:connector-curvature="0" style="fill:#359AF8"/>
		<path d="m 365.57,196.37 c -0.002,1.444 -1.168,2.6 -2.596,2.602 l 0,0 c -1.443,0 -2.62,-1.162 -2.622,-2.602 l 0,0 c 0.002,-1.456 1.181,-2.616 2.622,-2.616 l 0,0 c 1.428,0 2.596,1.156 2.596,2.616 l 0,0 0,0 z" id="path195" inkscape:connector-curvature="0" style="fill:#359AF8"/>
		<path d="m 342.156,216.135 c 0,2.223 -1.79,4.005 -3.988,4.009 l 0,0 c -2.228,-0.002 -4.015,-1.786 -4.015,-4.009 l 0,0 c 0.005,-2.194 1.789,-3.991 4.015,-3.996 l 0,0 c 2.196,0.005 3.984,1.801 3.988,3.996 l 0,0 0,0 z" id="path197" inkscape:connector-curvature="0" style="fill:#359AF8"/>
		<path d="m 373.041,222.597 c -0.004,2.194 -1.807,3.984 -4.009,3.989 l 0,0 c -2.2,-0.004 -3.99,-1.792 -3.994,-3.989 l 0,0 c 0.004,-2.227 1.794,-4.011 3.994,-4.017 l 0,0 c 2.2,0.006 4.005,1.793 4.009,4.017 l 0,0 0,0 z" id="path199" inkscape:connector-curvature="0" style="fill:#359AF8"/>
		<path d="m 352.779,258.719 c 0,0.106 -0.013,0.213 -0.037,0.32 l 0,0 c -0.178,0.921 -1.52,1.703 -3.428,1.697 l 0,0 c -0.561,0 -1.161,-0.065 -1.772,-0.205 l 0,0 -3.936,-0.907 c -2.457,-0.545 -4.1,-2.136 -4.044,-3.26 l 0,0 c 0,-0.112 0.013,-0.219 0.039,-0.326 l 0,0 c 0.198,-0.948 1.529,-1.722 3.423,-1.718 l 0,0 c 0.558,0 1.153,0.065 1.766,0.209 l 0,0 3.947,0.905 c 2.441,0.534 4.097,2.143 4.042,3.285 l 0,0 z" id="path201" inkscape:connector-curvature="0" style="fill:#c8d400"/>
	</g>
	<g id="g203">
		<path d="m 311.65,249.284 h -12.967 c -3.031,0.017 -5.666,1.439 -5.744,3.677 0.076,2.249 2.716,3.673 5.744,3.69 h 12.967 c 2.992,-0.017 5.64,-1.439 5.718,-3.69 -0.08,-2.24 -2.725,-3.659 -5.718,-3.677 z" id="path205" inkscape:connector-curvature="0"/>
		<path d="m 315.073,254.788 c -0.851,0.521 -2.074,0.865 -3.423,0.863 h -12.967 c -1.369,0.002 -2.6,-0.342 -3.451,-0.863 -0.86,-0.527 -1.297,-1.186 -1.293,-1.827 -0.004,-0.632 0.433,-1.291 1.291,-1.816 0.853,-0.519 2.083,-0.862 3.453,-0.862 h 12.967 c 1.349,0 2.572,0.344 3.423,0.862 0.86,0.525 1.299,1.184 1.295,1.816 0.004,0.639 -0.436,1.299 -1.295,1.827 z" id="path207" inkscape:connector-curvature="0" style="fill:#c8d400"/>
	</g>
</g>
<g id="g209" transform="translate(-210.71342,-110.10271)">
	<g id="g211">
		<g id="g213">
			<g id="g215">
				<path d="m 251.138,325.993 c -2.838,-1.265 -6.165,0.012 -7.429,2.848 -1.021,2.291 -0.385,4.898 1.39,6.485 l -1.583,3.552 -3.883,-1.73 -1.263,2.836 3.882,1.73 -8.975,20.143 c -1.778,-1.391 -4.425,-4.17 -4.139,-8.199 l 3.642,0.2 -5.028,-9.076 -6.476,8.567 3.558,0.201 c -0.052,2.306 0.091,11.855 7.279,15.139 7.249,3.149 14.444,-3.132 16.123,-4.712 l 2.528,2.511 2.04,-10.544 -10.11,2.331 2.583,2.574 c -2.804,2.908 -6.642,2.797 -8.864,2.406 l 8.975,-20.144 3.883,1.73 1.263,-2.836 -3.883,-1.73 1.583,-3.552 c 2.366,0.259 4.731,-1.012 5.752,-3.303 1.264,-2.836 -0.012,-6.163 -2.848,-7.427 z" id="path217" inkscape:connector-curvature="0"/>
				<path d="m 244.68,358.843 1.973,1.966 -0.307,0.352 c -3.5,3.996 -8.501,3.453 -10.754,2.949 l -0.596,-0.133 9.886,-22.188 3.883,1.73 0.448,-1.006 -3.883,-1.73 1.9,-4.268 c -0.227,-0.068 -0.451,-0.146 -0.673,-0.245 -0.222,-0.099 -0.431,-0.214 -0.634,-0.337 l -1.697,3.809 -0.205,0.458 -3.885,-1.731 -0.448,1.006 3.883,1.73 -9.886,22.188 -0.498,-0.354 c -1.88,-1.338 -5.629,-4.694 -4.999,-9.968 l 0.057,-0.463 2.781,0.152 -3.406,-6.149 -4.42,5.845 2.681,0.15 -0.037,0.506 c 0.009,0.006 -0.198,2.855 0.555,6.131 0.753,3.286 2.437,6.896 6.118,8.532 3.677,1.643 7.488,0.481 10.437,-1.156 2.938,-1.632 4.923,-3.684 4.928,-3.688 l 0.35,-0.364 1.906,1.89 1.39,-7.193 -6.848,1.579 z" id="path219" inkscape:connector-curvature="0" style="fill:#ffffff"/>
			</g>
			<path d="m 250.731,326.907 c -2.336,-1.035 -5.064,0.012 -6.108,2.341 -1.034,2.335 0.011,5.065 2.343,6.109 2.333,1.035 5.063,-0.013 6.107,-2.344 1.035,-2.333 -0.012,-5.062 -2.342,-6.106 z" id="path221" inkscape:connector-curvature="0" style="fill:#ffffff"/>
		</g>
		<g id="g223">
			<path d="m 229.709,440.479 c 1.021,2.291 3.386,3.563 5.752,3.303 l 1.583,3.553 -3.883,1.73 1.263,2.836 3.883,-1.73 8.975,20.144 c -2.222,0.392 -6.06,0.502 -8.864,-2.406 l 2.583,-2.573 -10.11,-2.331 2.04,10.544 2.528,-2.511 c 1.679,1.58 8.874,7.861 16.123,4.712 7.188,-3.283 7.331,-12.832 7.279,-15.139 l 3.558,-0.201 -6.476,-8.567 -5.028,9.075 3.642,-0.199 c 0.286,4.029 -2.361,6.809 -4.139,8.199 l -8.975,-20.143 3.882,-1.73 -1.263,-2.836 -3.883,1.73 -1.583,-3.553 c 1.775,-1.586 2.411,-4.194 1.39,-6.484 -1.264,-2.836 -4.591,-4.113 -7.429,-2.849 -2.835,1.263 -4.111,4.591 -2.848,7.426 z" id="path225" inkscape:connector-curvature="0"/>
			<g id="g227">
				<path d="m 237.771,442.993 c -0.203,0.123 -0.412,0.238 -0.634,0.337 -0.222,0.099 -0.446,0.177 -0.673,0.245 l 1.9,4.268 -3.883,1.73 0.448,1.006 3.883,-1.73 9.886,22.188 -0.596,0.134 c -2.252,0.504 -7.254,1.046 -10.754,-2.949 l -0.307,-0.353 1.973,-1.966 -6.85,-1.58 1.39,7.193 1.906,-1.889 0.35,0.363 c 0.004,0.006 1.99,2.057 4.928,3.689 2.948,1.637 6.76,2.799 10.437,1.155 3.681,-1.636 5.365,-5.246 6.118,-8.532 0.753,-3.275 0.546,-6.125 0.555,-6.131 l -0.037,-0.506 2.681,-0.15 -4.42,-5.845 -3.406,6.149 2.781,-0.152 0.057,0.463 c 0.63,5.275 -3.118,8.631 -4.999,9.969 l -0.498,0.354 -9.886,-22.188 3.883,-1.729 -0.448,-1.007 -3.885,1.731 -0.205,-0.459 -1.695,-3.808 z" id="path229" inkscape:connector-curvature="0" style="fill:#ffffff"/>
				<path d="m 230.623,440.073 c 1.043,2.331 3.773,3.379 6.107,2.344 2.332,-1.044 3.377,-3.773 2.343,-6.109 -1.044,-2.329 -3.772,-3.375 -6.108,-2.341 -2.33,1.044 -3.377,3.772 -2.342,6.106 z" id="path231" inkscape:connector-curvature="0" style="fill:#ffffff"/>
			</g>
		</g>
	</g>
	<g id="g233">
		<g id="g235">
			<g id="g237">
				<path d="m 359.169,325.993 c 2.838,-1.265 6.165,0.012 7.429,2.848 1.021,2.291 0.385,4.898 -1.391,6.485 l 1.583,3.552 3.883,-1.73 1.263,2.836 -3.882,1.73 8.975,20.143 c 1.778,-1.391 4.426,-4.17 4.14,-8.199 l -3.642,0.2 5.028,-9.076 6.476,8.567 -3.558,0.201 c 0.052,2.306 -0.092,11.855 -7.279,15.139 -7.249,3.149 -14.443,-3.132 -16.123,-4.712 l -2.528,2.511 -2.039,-10.544 10.11,2.331 -2.584,2.574 c 2.805,2.908 6.643,2.797 8.864,2.406 l -8.975,-20.144 -3.884,1.73 -1.263,-2.836 3.883,-1.73 -1.583,-3.552 c -2.366,0.259 -4.731,-1.012 -5.752,-3.303 -1.263,-2.836 0.013,-6.163 2.849,-7.427 z" id="path239" inkscape:connector-curvature="0"/>
				<path d="m 365.627,358.843 -1.973,1.966 0.307,0.352 c 3.499,3.996 8.501,3.453 10.754,2.949 l 0.596,-0.133 -9.887,-22.188 -3.883,1.73 -0.448,-1.006 3.883,-1.73 -1.9,-4.268 c 0.227,-0.068 0.451,-0.146 0.673,-0.245 0.222,-0.099 0.431,-0.214 0.634,-0.337 l 1.696,3.809 0.205,0.458 3.885,-1.731 0.448,1.006 -3.884,1.73 9.887,22.188 0.497,-0.354 c 1.881,-1.338 5.629,-4.694 4.999,-9.968 l -0.057,-0.463 -2.781,0.152 3.406,-6.149 4.42,5.845 -2.681,0.15 0.037,0.506 c -0.009,0.006 0.198,2.855 -0.555,6.131 -0.753,3.286 -2.438,6.896 -6.118,8.532 -3.677,1.643 -7.488,0.481 -10.437,-1.156 -2.938,-1.632 -4.924,-3.684 -4.928,-3.688 l -0.351,-0.364 -1.906,1.89 -1.39,-7.193 6.852,1.579 z" id="path241" inkscape:connector-curvature="0" style="fill:#ffffff"/>
			</g>
			<path d="m 359.576,326.907 c 2.336,-1.035 5.063,0.012 6.107,2.341 1.034,2.335 -0.011,5.065 -2.343,6.109 -2.333,1.035 -5.063,-0.013 -6.106,-2.344 -1.035,-2.333 0.012,-5.062 2.342,-6.106 z" id="path243" inkscape:connector-curvature="0" style="fill:#ffffff"/>
		</g>
		<g id="g245">
			<path d="m 380.598,440.479 c -1.021,2.291 -3.386,3.563 -5.752,3.303 l -1.583,3.553 3.883,1.73 -1.263,2.836 -3.884,-1.73 -8.975,20.144 c 2.222,0.392 6.06,0.502 8.864,-2.406 l -2.584,-2.573 10.11,-2.331 -2.039,10.544 -2.528,-2.511 c -1.68,1.58 -8.874,7.861 -16.123,4.712 -7.188,-3.283 -7.331,-12.832 -7.279,-15.139 l -3.558,-0.201 6.476,-8.567 5.028,9.075 -3.642,-0.199 c -0.286,4.029 2.361,6.809 4.14,8.199 l 8.975,-20.143 -3.882,-1.73 1.263,-2.836 3.883,1.73 1.583,-3.553 c -1.775,-1.586 -2.411,-4.194 -1.391,-6.484 1.264,-2.836 4.591,-4.113 7.429,-2.849 2.836,1.263 4.112,4.591 2.849,7.426 z" id="path247" inkscape:connector-curvature="0"/>
			<g id="g249">
				<path d="m 372.536,442.993 c 0.203,0.123 0.412,0.238 0.634,0.337 0.222,0.099 0.446,0.177 0.673,0.245 l -1.9,4.268 3.883,1.73 -0.448,1.006 -3.883,-1.73 -9.887,22.188 0.596,0.134 c 2.253,0.504 7.255,1.046 10.754,-2.949 l 0.307,-0.353 -1.973,-1.966 6.851,-1.58 -1.39,7.193 -1.906,-1.889 -0.351,0.363 c -0.004,0.006 -1.99,2.057 -4.928,3.689 -2.948,1.637 -6.76,2.799 -10.437,1.155 -3.681,-1.636 -5.365,-5.246 -6.118,-8.532 -0.753,-3.275 -0.546,-6.125 -0.555,-6.131 l 0.037,-0.506 -2.681,-0.15 4.42,-5.845 3.406,6.149 -2.781,-0.152 -0.057,0.463 c -0.63,5.275 3.118,8.631 4.999,9.969 l 0.497,0.354 9.887,-22.188 -3.884,-1.729 0.448,-1.007 3.885,1.731 0.205,-0.459 1.697,-3.808 z" id="path251" inkscape:connector-curvature="0" style="fill:#ffffff"/>
				<path d="m 379.684,440.073 c -1.043,2.331 -3.773,3.379 -6.106,2.344 -2.332,-1.044 -3.377,-3.773 -2.343,-6.109 1.044,-2.329 3.771,-3.375 6.107,-2.341 2.33,1.044 3.377,3.772 2.342,6.106 z" id="path253" inkscape:connector-curvature="0" style="fill:#ffffff"/>
			</g>
		</g>
	</g>
	<g id="g255">
		<path d="m 391.341,404.597 -4.633,-7.874 c -0.08,-0.275 -0.112,-0.511 -0.112,-0.721 0.003,-0.945 0.665,-1.413 1.583,-1.737 0.897,-0.301 1.903,-0.322 2.084,-0.322 h 0.002 l 0.536,0.04 v -6.999 h -20.077 v 7.059 l 0.557,-0.1 c 0.228,0 1.193,0.031 2.06,0.32 0.92,0.326 1.583,0.796 1.583,1.741 0,0.206 -0.031,0.443 -0.106,0.716 l -4.633,7.876 v 10.545 h 21.157 v -10.544 z" id="path257" inkscape:connector-curvature="0"/>
		<rect x="383.039" y="387.983" width="1.541" height="1.987" id="rect259" style="fill:#ffffff"/>
		<rect x="376.94199" y="387.983" width="1.539" height="1.987" id="rect261" style="fill:#ffffff"/>
		<rect x="378.78101" y="409.397" width="3.961" height="4.744" id="rect263" style="fill:#ffffff"/>
		<path d="m 390.338,414.143 h -6.594 v -5.746 h -5.963 v 5.746 h -6.599 v -9.273 l 4.557,-7.745 0.019,-0.061 c 0.114,-0.378 0.166,-0.733 0.166,-1.059 0.002,-1.548 -1.209,-2.358 -2.269,-2.688 -0.733,-0.242 -1.463,-0.327 -1.932,-0.356 v -4.977 h 4.219 v 2.988 h 3.541 v -2.988 h 2.556 v 2.988 h 3.543 v -2.988 h 4.216 l 0.002,4.978 c -0.47,0.029 -1.201,0.113 -1.935,0.355 -1.06,0.33 -2.271,1.141 -2.269,2.686 -0.002,0.331 0.054,0.686 0.168,1.063 l 0.017,0.059 4.557,7.745 v 9.273 z" id="path265" inkscape:connector-curvature="0" style="fill:#ffffff"/>
		<polygon points="385.581,402.461 385.581,401.962 385.581,397.677 382.04,397.677 382.04,402.461 " id="polygon267"/>
		<rect x="383.03799" y="398.67599" width="1.543" height="2.786" id="rect269" style="fill:#ffffff"/>
		<polygon points="376.443,402.463 379.485,402.463 379.485,397.677 375.943,397.677 375.943,402.463 " id="polygon271"/>
		<rect x="376.94101" y="398.67499" width="1.5420001" height="2.7850001" id="rect273" style="fill:#ffffff"/>
	</g>
	<g id="g275">
		<path d="m 218.966,404.597 4.633,-7.874 c 0.08,-0.275 0.112,-0.511 0.112,-0.721 -0.003,-0.945 -0.665,-1.413 -1.583,-1.737 -0.897,-0.301 -1.903,-0.322 -2.084,-0.322 h -0.002 l -0.536,0.04 v -6.999 h 20.077 v 7.059 l -0.557,-0.1 c -0.228,0 -1.193,0.031 -2.06,0.32 -0.92,0.326 -1.583,0.796 -1.583,1.741 0,0.206 0.031,0.443 0.106,0.716 l 4.633,7.876 v 10.545 h -21.157 v -10.544 z" id="path277" inkscape:connector-curvature="0"/>
		<rect x="225.72701" y="387.983" width="1.541" height="1.987" id="rect279" style="fill:#ffffff"/>
		<rect x="231.825" y="387.983" width="1.539" height="1.987" id="rect281" style="fill:#ffffff"/>
		<rect x="227.564" y="409.397" width="3.961" height="4.744" id="rect283" style="fill:#ffffff"/>
		<path d="m 219.969,414.143 h 6.594 v -5.746 h 5.963 v 5.746 h 6.599 v -9.273 l -4.557,-7.745 -0.019,-0.061 c -0.114,-0.378 -0.166,-0.733 -0.166,-1.059 -0.002,-1.548 1.209,-2.358 2.269,-2.688 0.733,-0.242 1.463,-0.327 1.932,-0.356 v -4.977 h -4.219 v 2.988 h -3.541 v -2.988 h -2.556 v 2.988 h -3.543 v -2.988 h -4.216 l -0.002,4.978 c 0.47,0.029 1.201,0.113 1.935,0.355 1.06,0.33 2.271,1.141 2.269,2.686 0.002,0.331 -0.054,0.686 -0.168,1.063 l -0.017,0.059 -4.557,7.745 v 9.273 z" id="path285" inkscape:connector-curvature="0" style="fill:#ffffff"/>
		<polygon points="224.726,402.461 224.726,401.962 224.726,397.677 228.267,397.677 228.267,402.461 " id="polygon287"/>
		<rect x="225.726" y="398.67599" width="1.543" height="2.786" id="rect289" style="fill:#ffffff"/>
		<polygon points="233.863,402.463 230.821,402.463 230.821,397.677 234.363,397.677 234.363,402.463 " id="polygon291"/>
		<rect x="231.823" y="398.67499" width="1.5420001" height="2.7850001" id="rect293" style="fill:#ffffff"/>
	</g>
	<polygon points="304.87,286.917 305.139,286.742 346.257,313.16 264.029,313.16 264.029,313.16 " id="polygon295"/>
	<polygon points="305.14,287.932 267.434,312.158 267.434,312.158 342.844,312.158 " id="polygon297" style="fill:#ffffff"/>
</g>
<g id="g299" transform="translate(-210.71342,-110.10271)">
	<path d="m 322.549,496.932 c -0.043,-0.184 -0.062,-0.341 -0.062,-0.472 0.015,-0.599 0.286,-0.812 0.718,-1.016 0.421,-0.182 0.951,-0.208 1.108,-0.206 l 0.569,0.096 V 490.2 h -11.814 v 4.042 h -1.851 -2.017 -0.499 -2.353 -2.392 -2.854 -2.015 -1.853 V 490.2 h -11.813 v 5.169 l 0.585,-0.133 c 0.179,0.001 0.684,0.034 1.09,0.208 0.433,0.204 0.702,0.417 0.719,1.016 0,0.133 -0.017,0.286 -0.057,0.464 l -2.649,5.352 v 7.365 h 4.319 3.798 3.82 0.498 15.21 0.501 11.935 v -7.365 l -2.641,-5.344 z" id="path301" inkscape:connector-curvature="0"/>
	<rect x="320.48901" y="491.20099" width="0.435" height="1.026" id="rect303" style="fill:#ffffff"/>
	<rect x="317.02899" y="491.20099" width="0.433" height="1.026" id="rect305" style="fill:#ffffff"/>
	<polygon points="313.068,495.243 313.068,495.288 313.068,496.215 312.215,496.215 312.215,495.243 " id="polygon307" style="fill:#ffffff"/>
	<rect x="307.349" y="495.24301" width="0.85399997" height="0.972" id="rect309" style="fill:#ffffff"/>
	<rect x="302.10501" y="495.24301" width="0.85100001" height="0.972" id="rect311" style="fill:#ffffff"/>
	<rect x="297.237" y="495.24301" width="0.85299999" height="0.972" id="rect313" style="fill:#ffffff"/>
	<rect x="292.84399" y="491.20099" width="0.433" height="1.026" id="rect315" style="fill:#ffffff"/>
	<rect x="289.38199" y="491.20099" width="0.433" height="1.026" id="rect317" style="fill:#ffffff"/>
	<rect x="290.42999" y="505.71799" width="1.799" height="2.921" id="rect319" style="fill:#ffffff"/>
	<path d="m 296.549,508.639 h -3.32 v -3.919 h -3.798 v 3.919 h -3.32 v -6.126 l 2.272,-4.592 v 0.04 3.079 h 2.432 v -3.579 h -2.204 l 0.097,-0.196 0.013,-0.051 c 0.064,-0.267 0.096,-0.519 0.096,-0.754 0.017,-1.045 -0.692,-1.692 -1.33,-1.938 -0.388,-0.16 -0.771,-0.229 -1.063,-0.26 v -3.061 h 1.96 v 2.025 h 2.432 v -2.025 h 1.029 v 2.025 h 2.432 v -2.025 h 1.959 v 3.041 h 0 v 0.021 c -0.292,0.03 -0.675,0.1 -1.063,0.26 -0.64,0.244 -1.348,0.892 -1.334,1.937 0,0.237 0.034,0.487 0.103,0.756 l 0.012,0.053 0.095,0.192 h -0.271 -1.934 v 3.579 h 2.434 v -3.117 l 2.271,4.59 v 6.126 z" id="path321" inkscape:connector-curvature="0" style="fill:#ffffff"/>
	<rect x="289.383" y="498.45901" width="0.433" height="1.582" id="rect323" style="fill:#ffffff"/>
	<rect x="292.84299" y="498.45901" width="0.435" height="1.582" id="rect325" style="fill:#ffffff"/>
	<rect x="304.03201" y="505.73099" width="2.244" height="2.895" id="rect327" style="fill:#ffffff"/>
	<path d="m 307.274,508.641 v -3.908 h -4.243 v 0.5 3.408 h -5.484 v -6.365 l -2.648,-5.351 c -0.042,-0.179 -0.06,-0.333 -0.06,-0.465 0.017,-0.597 0.286,-0.809 0.719,-1.014 0.22,-0.094 0.466,-0.146 0.677,-0.174 v 1.943 h 2.854 v -1.973 h 2.015 v 1.973 h 2.854 v -1.973 h 2.392 v 1.973 h 2.852 v -1.973 h 2.017 v 1.973 h 2.85 v -1.943 c 0.21,0.028 0.457,0.08 0.677,0.174 0.432,0.205 0.703,0.417 0.718,1.014 0,0.134 -0.016,0.285 -0.055,0.463 l -2.649,5.353 v 6.365 h -5.486 z" id="path329" inkscape:connector-curvature="0" style="fill:#ffffff"/>
	<rect x="318.07599" y="505.71899" width="1.799" height="2.9200001" id="rect331" style="fill:#ffffff"/>
	<path d="m 324.194,508.639 h -3.318 v -3.918 h -3.798 v 3.918 h -3.321 v -6.126 l 2.272,-4.592 v 0.04 3.079 h 2.432 v -3.579 h -2.204 l 0.099,-0.199 0.013,-0.052 c 0.063,-0.267 0.094,-0.515 0.094,-0.75 0.015,-1.045 -0.692,-1.692 -1.332,-1.937 -0.388,-0.16 -0.769,-0.229 -1.061,-0.26 V 491.2 h 1.96 v 2.025 h 2.432 V 491.2 h 1.029 v 2.025 h 2.435 V 491.2 h 1.957 v 3.061 c -0.292,0.03 -0.676,0.1 -1.064,0.262 -0.641,0.244 -1.345,0.895 -1.33,1.937 0,0.237 0.033,0.487 0.1,0.754 l 0.013,0.053 0.025,0.05 0.071,0.145 h -0.272 -1.934 v 3.579 h 2.434 v -3.119 l 2.271,4.59 v 6.127 z" id="path333" inkscape:connector-curvature="0" style="fill:#ffffff"/>
	<rect x="317.02802" y="498.45901" width="0.43399999" height="1.582" id="rect335" style="fill:#ffffff"/>
	<rect x="320.48901" y="498.45901" width="0.43599999" height="1.584" id="rect337" style="fill:#ffffff"/>
	<polygon points="308.472,501.123 311.322,501.123 311.322,497.365 308.472,497.365 308.472,497.867 " id="polygon339"/>
	<rect x="309.47101" y="498.36401" width="0.852" height="1.76" id="rect341" style="fill:#ffffff"/>
	<polygon points="298.982,501.123 301.834,501.123 301.834,497.365 301.334,497.365 298.982,497.365 " id="polygon343"/>
	<rect x="299.98099" y="498.36401" width="0.85399997" height="1.76" id="rect345" style="fill:#ffffff"/>
</g>
</svg>