<svg xmlns="http://www.w3.org/2000/svg" width="381" height="381" viewBox="0.297 -0.205 381 380">
			<path fill="#018749" d="M368.759,121.928c-17.768-47.579-60.899-90.71-108.265-108.478     C205.09-10.027,131.917-1.987,83.498,31.217C19.427,74.349-10.813,148.575,3.356,224.698     C13.718,285.597,62.138,345.014,121.134,367c67.25,26.647,150.777,12.693,202.369-38.271     C378.487,277.352,396.461,192.128,368.759,121.928"/>
			<path fill="#FFFFFF" d="M134.89,359.182C71.446,340.153,18.999,274.601,13.298,209.467     C3.57,136.303,41.841,64.406,107.188,31.003c49.688-26.648,118.62-25.8,167.467,2.109c35.313,19.037,62.168,48.007,79.293,84.368     c27.068,59.004,18.402,137.457-25.157,187.565C282.061,362.147,203.4,381.81,134.89,359.182"/>
			<path fill="#018749" d="M348.882,118.543c-17.348-38.279-53.708-73.585-92.835-88.816C199.373,4.99,124.948,15.78,78.844,55.74     C24.501,100.354,4.41,174.788,25.342,239.921c15.444,54.128,66.616,103.824,121.386,116.724     c66.394,17.768,135.118-3.806,178.052-55.824C366.428,253.026,375.736,175.636,348.882,118.543"/>
			<path fill="#FFFFFF" d="M153.07,356.011C93.432,344.387,37.195,288.769,24.501,229.138C7.803,160.833,32.327,90.84,90.475,49.604     c47.159-35.314,121.378-41.015,174.238-13.74c32.784,16.071,61.961,43.345,78.453,76.122     c28.765,52.868,24.53,128.149-11.632,176.569C290.52,346.076,221.581,371.439,153.07,356.011"/>
			<path fill="#018749" d="M182.042,52.989c2.958,0,5.708-1.055,7.397-3.592c2.751-7.405,1.062-15.437-0.634-22.628     c-2.537-4.02-8.246-4.86-12.266-2.958c-2.323,1.055-4.226,3.798-4.44,6.763c0.634,6.129-0.634,13.955,2.751,19.457     C176.539,52.569,179.504,52.569,182.042,52.989"/>
			<path fill="#FFFFFF" d="M176.959,28.038c2.125-2.537,6.351-2.117,8.246,0.428c2.125,5.074,1.063,10.783,1.704,16.277     c-0.214,1.903-0.856,4.448-3.179,4.868c-2.323,0.42-5.495,0.207-6.137-2.331C176.539,41.152,175.484,34.167,176.959,28.038"/>
			<path fill="#018749" d="M209.95,53.417c2.537-0.634,4.226-2.751,5.082-5.296c0.42-6.97,4.433-15.644-0.635-21.78     c-2.545-2.323-6.771-2.744-10.37-1.896c-2.117,0.42-4.012,2.744-4.646,4.646c-0.428,7.405-4.233,16.285,1.055,22.628     C202.973,53.417,206.572,54.044,209.95,53.417"/>
			<path fill="#FFFFFF" d="M203.394,30.155c0.428-1.482,2.116-2.544,3.385-2.965c2.117-0.42,3.592,0.634,5.074,1.482     c2.545,5.922,0,13.114-0.848,19.029c-0.635,1.276-1.689,2.545-2.958,2.751c-2.751,0.428-5.502-0.42-6.137-2.751     C201.49,41.572,202.339,35.649,203.394,30.155"/>
			<path fill="#018749" d="M159.833,55.32c0-4.44-2.323-8.674-1.688-13.114l9.094-1.911c0.214-1.055-0.214-2.323-1.055-2.958     l-8.673,1.697c-1.689-2.117-1.689-5.289-2.538-8.04c2.323-2.323,6.763-1.482,9.935-2.537l0.214-1.689l-0.849-1.689     c-4.012,0.841-8.238,1.689-12.472,2.323l-1.062,1.055l5.93,27.282C157.511,55.947,158.779,55.74,159.833,55.32"/>
			<path fill="#018749" d="M229.406,32.478l-6.136,22.834c0,1.696,2.33,1.696,3.599,1.696l5.701-21.994     c0.428-4.226,5.296-0.848,7.825-0.634c0.429-1.055,1.269-1.903,0.635-2.958l-17.546-4.654l-0.635,0.42     c0,1.062-0.848,1.911,0,2.751C225.181,30.575,227.718,30.789,229.406,32.478"/>
			<path fill="#018749" d="M252.241,64.834c2.323-0.428,3.806-2.958,4.86-5.074c1.062-2.545,0.428-5.708-1.482-7.826     c1.482-0.84,3.606-1.055,4.867-2.751c1.063-2.117,1.903-4.44,1.269-6.977c-2.529-5.074-8.459-5.708-13.105-8.032     c-3.6,8.88-8.246,17.554-11.211,26.434C242.307,62.511,246.746,65.469,252.241,64.834"/>
			<path fill="#FFFFFF" d="M250.973,38.821c2.537,0.849,6.129,1.689,6.984,4.654c0.421,1.903-0.428,3.592-1.91,4.646     c-2.958,2.338-5.709-0.841-8.238-1.475C248.436,43.903,249.497,41.366,250.973,38.821"/>
			<path fill="#FFFFFF" d="M253.724,54.472c0.42,2.109-0.214,4.226-1.696,5.709c-2.958,2.537-6.764,0.428-9.515-1.063l-0.206-0.634     l3.806-8.666C248.649,51.094,252.027,51.935,253.724,54.472"/>
			<path fill="#018749" d="M132.56,63.986c3.164-0.42,6.136-1.269,8.459-3.378c1.895-2.331,1.269-5.922,0.42-8.674l-1.055-0.206     c-4.234,0.206-1.269,3.592-2.117,5.915c-0.849,1.688-2.545,2.965-4.44,3.385c-6.343-1.903-6.771-9.514-9.522-14.596     c-0.841-1.903-1.896-5.067,0-6.763c1.482-1.483,3.179-2.117,5.296-1.697c1.269,0.634,1.895,2.125,2.323,3.393     c1.269,0.207,2.538-0.428,3.592-1.07c0-1.475-0.848-2.323-1.688-3.592c-2.958-4.218-9.308-1.895-12.479,1.269     c-4.654,6.985,1.903,13.542,3.806,19.877C126.637,60.395,128.968,64.2,132.56,63.986"/>
			<path fill="#018749" d="M123.251,68.64l-14.168-24.325l-0.634-0.206c-0.848,0.634-2.117,1.062-2.537,1.911l14.382,24.309     C121.349,70.75,122.617,69.488,123.251,68.64"/>
			<path fill="#018749" d="M86.883,62.297c2.109-1.055,3.806-3.592,6.137-3.806l15.215,19.877c0.848-0.634,2.338-0.849,2.545-2.117     c-4.868-7.183-10.156-12.899-14.803-20.091c1.475-2.323,3.592-2.743,5.502-4.44c0.207-0.841-0.855-2.109-1.91-2.529L85.4,59.34     l-0.42,1.055C85.614,61.029,85.829,62.083,86.883,62.297"/>
			<path fill="#018749" d="M256.261,69.061c1.482,1.482,3.806,1.482,5.074-0.42c4.02-5.922,8.032,2.323,12.06,3.378     c0.626,2.544-1.697,4.662-1.063,7.191c0.848,0.848,2.116,1.697,3.171,1.482c2.744-9.308,5.281-19.028,7.405-28.55     c-1.482-0.634-2.124-2.323-4.027-2.323l-22.62,18.188V69.061z"/>
			<path fill="#FFFFFF" d="M268.098,63.352l10.149-8.246c-0.841,4.02-2.109,9.094-4.013,13.114l-6.137-4.02V63.352z"/>
			<path fill="#018749" d="M247.381,70.963c-37.852-19.243-93.47-17.126-128.562,7.191c-47.373,29.819-68.518,86.064-56.253,139.994     c8.88,45.241,51.171,88.38,95.999,98.742c46.104,11.418,93.042-1.054,125.818-34.045c36.797-36.154,47.794-94.523,28.551-141.889     C302.151,111.352,275.503,83.863,247.381,70.963"/>
			<path fill="#fff" d="M293.905,268.67c-30.239,38.921-76.979,56.475-125.818,48.221c-44.201-7.19-87.126-44.613-100.446-87.753     c-15.644-48.007-2.965-104.673,37.423-138.083c34.687-31.508,91.987-40.602,135.332-20.932     c28.765,11.417,56.039,37.423,68.526,65.974C327.95,177.118,322.868,233.364,293.905,268.67"/>
			<path fill="#018749" d="M288.189,92.537c0.848-0.428,1.688-1.269,1.688-2.323l-6.549-5.93l-0.429-1.475l16.071-17.974     c0-1.269-1.688-2.117-2.743-2.537c-6.557,7.405-12.899,13.32-18.608,21.359L288.189,92.537z"/>
			<path fill="#018749" d="M246.953,79.003c-41.229-22.2-99.805-16.919-135.539,13.74C73.77,122.769,59.188,171.83,70.392,218.354     c9.514,41.443,47.579,80.982,89.236,90.711c43.773,11.846,89.228-1.269,120.324-32.563     c33.823-33.831,43.346-86.072,27.061-130.472C296.015,117.488,275.083,93.164,246.953,79.003"/>
			<path fill="#FFFFFF" d="M277.406,270.374c-31.08,33.411-81.41,46.097-124.97,30.232c-38.065-12.258-71.048-50.537-77.612-89.442     c-8.032-43.987,6.771-87.968,43.147-115.884c33.617-27.061,86.905-31.508,125.184-11.417     c24.104,12.265,43.346,31.722,54.549,55.825C317.16,181.986,310.183,236.321,277.406,270.374"/>
			<path fill="#018749" d="M104.009,81.746c1.689-1.261-0.634-2.323-0.841-3.164c-3.171,1.269-5.296,5.281-8.673,6.335     c-5.716-5.701-11.417-13.32-17.34-18.188c-0.634,0.436-1.903,1.276-2.117,2.339L94.28,89.786L104.009,81.746z"/>
			<path fill="#018749" d="M91.109,92.957c-0.634-0.848-1.269-1.903-2.323-1.903l-6.343,7.397L80.96,98.88     c-2.537-2.109-4.868-3.386-6.557-6.343l5.923-7.191c-0.207-0.848-1.269-1.697-1.903-2.117l-6.763,6.977     c-2.751-1.055-4.226-2.958-6.771-4.86v-1.063l6.343-7.825c-0.42-0.841-1.054-1.903-2.109-2.109     c-2.965,3.806-6.985,7.611-9.515,11.417l21.986,18.188C85.187,100.783,87.945,96.771,91.109,92.957"/>
			<path fill="#018749" d="M290.727,95.708l7.825,9.094c0.848,1.903,2.957,0.207,3.385-1.063c-1.696-2.965-5.074-4.86-6.128-8.246     l18.601-16.285c-1.055-1.055-1.269-2.323-2.537-2.537L290.727,94.86V95.708z"/>
			<path fill="#018749" d="M227.29,205.876c-3.592-0.215-7.611,1.269-9.935-2.323c-3.172-3.172-2.331-8.246-0.849-11.838     c2.109-4.233,6.557-4.447,10.569-5.082c17.554,2.323,37.858,5.701,53.295-3.6c10.362-5.915,15.857-17.332,15.644-28.963     c1.055-15.865-13.74-25.8-25.8-32.143c-9.721-6.564-12.052-18.188-21.565-24.737c-10.783-7.191-27.917-8.253-38.699-0.428     c-12.472,9.522-9.515,26.006-8.674,39.754c0.214,9.515,2.124,21.779-4.012,29.605c-1.483,0.634-3.172,0-4.234-1.476     c-5.281-14.39-2.109-30.461-4.012-45.47c-1.903-9.094-6.771-16.285-11.417-24.11c-3.386-4.012-5.923-8.659-10.997-10.569     c-14.803-3.171-27.282,5.502-35.528,16.491c-10.148,15.865-30.025,14.596-41.022,29.185c-5.288,8.88-6.136,23.255,0,32.143     c13.106,20.503,39.968,13.533,60.899,12.686c5.289,0,10.997-0.421,15.437,1.902c1.482,1.055,3.592,3.172,2.751,5.717     c-0.428,3.592-3.806,7.184-6.985,8.245c-19.449,7.818-40.38-4.653-59.837,1.682c-9.514,3.813-15.009,13.542-16.499,23.056     c-2.537,14.169,9.094,24.523,20.091,31.715c12.059,6.771,14.382,19.464,22.628,28.757c9.729,9.942,23.683,14.382,37.217,11.211     c17.768-11.417,12.265-37.423,9.094-54.977c-0.634-3.378-0.84-7.611,2.117-9.935c2.109-1.063,6.129-1.49,7.397,1.261     c3.385,14.803,0.214,31.088-1.483,46.097c-3.377,7.833-3.592,17.76-11.837,22.842c8.246,1.055,16.492,1.903,24.531,1.475     c-5.288-21.771-1.269-44.82-0.42-67.242c1.261-1.269,2.109-4.432,4.853-3.592c3.393,1.055,4.447,4.646,4.661,7.826     c-0.848,15.009-7.618,31.294,0,45.256c6.336,10.354,18.181,14.16,30.026,13.526c10.148,0.848,18.394-8.246,22.834-16.277     c9.094-14.803,28.123-15.224,36.162-30.874c3.798-11.631,5.708-28.337-3.806-37.851     C272.546,189.805,245.898,199.532,227.29,205.876"/>
			<path fill="#FFFFFF" d="M289.465,220.258l-1.49,0.841c-20.083,1.696-38.484,7.619-56.031,15.017     c-2.116-0.635-4.02-2.537-5.074-4.227c6.558-4.447,15.017-6.137,22.621-9.094c12.272-3.592,25.165-6.557,38.699-6.984     L289.465,220.258z"/>
			<path fill="#FFFFFF" d="M285.231,211.164c-9.308,1.475-18.822,2.957-27.702,5.28c-1.903-1.055-2.117,1.063-3.806,0.849     c-9.935,2.965-20.083,6.137-29.605,10.568c-2.116-0.626-2.965-2.743-4.653-4.226l0.214-0.627l12.265-4.447     c1.483,1.475,1.697-1.055,2.958-1.055c14.803-4.227,29.605-8.04,44.828-11.417C281.846,206.93,284.383,208.833,285.231,211.164"/>
			<path fill="#FFFFFF" d="M230.882,210.743c13.327-3.385,25.799-10.79,40.815-8.245l0.635,0.626     c-2.117,1.697-6.137,0.849-8.666,2.537c-16.285,3.172-31.516,9.095-47.373,13.32c-2.743-2.743-4.654-6.129-5.923-9.729     C217.355,208.198,223.912,214.121,230.882,210.743"/>
			<path fill="#FFFFFF" d="M260.7,185.15c-13.319,2.331-24.736-3.172-37.43-4.02c0.848-2.109,3.171-3.378,5.074-4.646     c12.051,3.378,25.173,3.171,37.851,5.28C265.989,184.096,262.604,184.31,260.7,185.15"/>
			<path fill="#FFFFFF" d="M259.853,177.325c-8.872-0.841-17.554-2.529-26.006-4.227c0.214-1.482,1.482-2.537,2.751-3.171     c13.947,2.743,28.337,2.743,42.719,4.439C275.503,183.033,266.623,176.484,259.853,177.325"/>
			<path fill="#FFFFFF" d="M283.543,170.562c-14.383-0.428-28.551-2.116-42.513-4.226c-0.635-1.903,2.124-2.331,3.393-2.958     c4.013-0.214,8.032,1.055,12.052,1.055c11.203,0.841,22.2-1.269,33.411-1.91C289.243,165.701,286.5,169.079,283.543,170.562"/>
			<path fill="#FFFFFF" d="M291.368,155.339c0.206,0.849,0,1.269,0.206,2.323c-13.962,2.323-30.025,3.592-43.987,1.688     c0.849-7.397,9.522-2.529,14.176-4.012c9.301-0.635,18.188-2.331,27.068-4.233C291.368,150.685,290.94,153.65,291.368,155.339"/>
			<path fill="#FFFFFF" d="M288.403,146.459v0.42c-10.791,3.172-22.835,4.227-34.466,4.227c0.42-2.109,1.475-4.013,2.537-5.701     c8.88-0.214,19.663,0,28.123-2.973C287.135,142.226,287.769,144.556,288.403,146.459"/>
			<path fill="#FFFFFF" d="M261.977,121.928c3.799,1.476,6.55,4.233,10.148,6.557c-0.214,1.476-2.322,1.896-3.813,2.323     c-2.117,0-4.44,0.841-6.336,0V121.928z"/>
			<path fill="#FFFFFF" d="M261.335,135.454c4.86-0.626,10.362-0.206,13.954-3.592c3.6,0.635,6.771,4.02,7.619,7.191     c-6.984,2.323-15.444,2.537-23.477,1.903C259.432,139.054,259.853,136.517,261.335,135.454"/>
			<path fill="#FFFFFF" d="M247.587,103.526c7.825,4.448,2.331,14.596,5.716,21.36c-1.054,2.751-1.902,6.129-4.233,7.825     C244.844,124.037,246.953,114.103,247.587,103.526"/>
			<path fill="#FFFFFF" d="M237.232,98.245l5.494,1.903c0.849,13.319-2.117,25.379,3.386,37.851     c-0.635,1.689-1.903,3.798-3.813,4.433c-5.066-12.893-5.495-28.329-5.701-42.711L237.232,98.245z"/>
			<path fill="#FFFFFF" d="M227.924,97.191c1.482-0.856,3.172-0.214,4.654,0l0.206,3.377c-0.206,16.499,1.276,31.08,6.137,46.097     c-1.055,1.903-2.537,4.654-5.074,5.495C225.601,135.042,227.71,116.006,227.924,97.191"/>
			<path fill="#FFFFFF" d="M223.271,96.763l0.428,2.117c-1.269,19.456-0.849,38.905,6.977,56.879     c-1.482,1.689-3.171,4.227-5.494,4.44c-9.522-18.822-8.039-40.809-8.674-60.479C217.989,97.825,220.732,96.763,223.271,96.763"/>
			<path fill="#FFFFFF" d="M211.425,104.374l0.428,0.207l1.063,22.001l-0.634,0.42c2.322,5.709,1.688,12.472,3.377,18.402     c1.483,6.121,2.752,12.678,5.495,18.601c-1.688,0.849-2.958,2.537-4.86,2.331c-6.557-9.309-9.935-20.512-9.721-32.15     C204.455,124.672,204.455,111.985,211.425,104.374"/>
			<path fill="#FFFFFF" d="M212.693,168.865c-1.902,1.482-4.226,3.172-6.756,3.6c-0.848-4.227,1.262-7.818,1.689-11.846h0.42     L212.693,168.865z"/>
			<path fill="#FFFFFF" d="M185.213,144.77c0.848,4.854,0.42,9.714,0.42,14.581c-1.896,0.635-2.751-1.475-3.6-2.957     c-1.269-4.233,1.269-7.825,2.545-11.624H185.213z"/>
			<path fill="#FFFFFF" d="M177.387,109.028c3.378,5.28,4.646,12.266,6.137,18.608c-2.331,6.977-1.911,15.223-4.654,21.986     c-1.697-1.055-3.386-2.744-4.654-4.654C175.278,133.131,176.119,121.08,177.387,109.028"/>
			<path fill="#FFFFFF" d="M164.495,90.42c5.067,0.848,7.184,6.557,9.079,10.569c-1.269,12.694-1.269,25.379-3.164,38.279     c-2.117,0-3.592-2.957-5.288-4.02c-0.627-14.589-0.42-29.605-0.841-43.98L164.495,90.42z"/>
			<path fill="#FFFFFF" d="M159.833,90c1.269,13.74,1.269,26.426,0.634,39.753c-2.323,0.207-3.798-2.116-4.86-3.813     c0-11.196-1.276-23.889-1.91-35.1C155.188,89.572,158.145,88.731,159.833,90"/>
			<path fill="#FFFFFF" d="M149.265,92.323c1.269,10.148,2.537,20.511,1.903,30.232c-1.696-0.421-4.02-0.841-5.074-2.743     l-2.331-24.952C145.253,93.164,147.148,92.529,149.265,92.323"/>
			<path fill="#FFFFFF" d="M139.537,98.245c1.689,5.701,1.482,12.472,2.537,18.395c-0.214,1.482-1.689,1.063-2.751,1.269     c-5.288-1.482-3.591-8.031-5.288-12.059C134.882,103.105,137.427,100.148,139.537,98.245"/>
			<path fill="#FFFFFF" d="M130.229,111.352c1.696,0.42,0.634,2.537,1.269,3.6c-1.269,0.412-2.529,0.412-3.592-0.207     C128.119,113.683,129.388,112.406,130.229,111.352"/>
			<path fill="#FFFFFF" d="M110.359,122.982c1.055-0.428,2.529,0,3.377-0.428c-3.377,2.331-7.825,4.233-12.051,5.082     C102.954,124.259,107.394,124.465,110.359,122.982"/>
			<path fill="#FFFFFF" d="M94.28,136.944c4.448-3.813,9.942-5.716,15.017-8.039s10.363-4.02,15.644-5.502     c2.125,0,4.027,0.42,5.502,1.91l-0.634,0.848c-12.051,4.854-23.896,10.355-35.734,15.85     C92.806,140.536,94.28,138.634,94.28,136.944"/>
			<path fill="#FFFFFF" d="M93.86,155.974c-1.269-2.545-0.634-5.289-0.42-8.04c12.899-8.46,27.488-14.16,42.077-19.242     c2.117,0.428,4.02,1.688,5.502,3.171c-4.654,2.966-10.577,4.448-15.651,7.191C114.792,144.136,104.223,149.837,93.86,155.974"/>
			<path fill="#FFFFFF" d="M95.969,161.04c14.39-12.472,31.73-19.243,49.062-25.158c2.544,0.849,4.868,2.752,5.708,5.075     c-18.608,3.599-35.528,11.417-50.743,22.842C98.514,163.799,96.825,162.316,95.969,161.04"/>
			<path fill="#FFFFFF" d="M103.161,167.811l0.214-1.269c14.81-12.258,32.142-19.028,51.171-21.772c2.125,0,3.6,2.53,4.654,3.799     v1.055c-17.125,3.179-32.563,11.417-46.517,21.779C109.297,170.562,105.698,170.134,103.161,167.811"/>
			<path fill="#FFFFFF" d="M120.08,172.251v-0.849c12.899-9.729,27.282-16.698,43.979-16.919l3.393,4.867     c0.42,1.269-1.269,1.269-2.117,1.269c-11.845,0.849-21.994,5.717-31.722,11.418C129.388,171.616,124.306,173.099,120.08,172.251"/>
			<path fill="#FFFFFF" d="M145.673,170.562c6.129-4.226,13.955-5.915,22.2-5.915c5.067-1.269,4.86,4.853,6.771,7.391     C165.756,170.562,155.188,169.928,145.673,170.562"/>
			<path fill="#FFFFFF" d="M155.822,198.471c-0.634,1.269-1.689,3.179-3.179,3.385c-1.903,0.207-3.378-1.688-4.012-2.957     C150.533,197.836,153.491,198.471,155.822,198.471"/>
			<path fill="#FFFFFF" d="M128.119,195.94l8.04,1.689c2.744,4.868,9.514,2.751,12.258,6.977c-0.42,1.483-1.689,1.903-2.744,2.752     c-5.288,0.206-8.88-3.386-13.748-4.234c-9.308-1.269-18.402-2.743-27.496-3.806C110.359,194.038,120.294,195.307,128.119,195.94"/>
			<path fill="#FFFFFF" d="M97.039,203.767c15.644-0.643,30.026,2.529,43.98,6.755l-0.214,2.117l-1.269,0.642     c-14.803-2.537-30.874-4.233-45.891-2.116C93.226,208.198,95.129,205.661,97.039,203.767"/>
			<path fill="#FFFFFF" d="M93.226,216.024c2.537-2.323,6.557-1.055,9.728-1.903c11.203-0.634,21.986,0.849,32.563,2.537     c0.428,1.689-1.269,3.378-2.751,4.227c-12.472-2.109-26.013-2.744-39.12-1.903C92.377,218.562,92.806,217.079,93.226,216.024"/>
			<path fill="#FFFFFF" d="M93.44,224.063c11.417-2.323,24.317-1.269,35.734,0.635l0.634,0.42c-0.206,1.269-0.84,2.743-2.109,2.957     c-10.577-1.688-22.842-2.957-32.57,1.697C93.86,228.075,93.44,226.173,93.44,224.063"/>
			<path fill="#FFFFFF" d="M120.08,252.187c-1.475,0-2.53-1.269-3.378-2.323c0.42-1.49,3.171-2.331,3.806-0.429L120.08,252.187z"/>
			<path fill="#FFFFFF" d="M113.317,246.478c-1.903,0.627-3.171-2.117-4.654-3.172c2.958-2.322,8.04-2.751,12.052-1.902l0.428,1.269     C120.08,246.264,115.212,243.513,113.317,246.478"/>
			<path fill="#FFFFFF" d="M103.588,239.913c-1.689-1.896-4.02-3.378-5.288-5.487c2.537-3.171,7.397-3.171,11.211-4.027     c5.28,0,10.362,0.214,15.009,1.49c1.062,1.903-1.055,3.378-1.689,5.067C116.068,236.321,109.725,238.018,103.588,239.913"/>
			<path fill="#FFFFFF" d="M135.517,272.277c-0.848,0.84-2.323,0.42-2.751-0.635c-5.915-4.027-1.475-10.148-2.744-15.864     c-1.482-4.013-0.42-7.826,1.903-10.997c2.109,0.634,1.689,3.171,2.53,4.86C135.945,257.047,135.731,264.658,135.517,272.277"/>
			<path fill="#FFFFFF" d="M142.708,279.889c-8.46-2.537-0.634-11.838-3.386-17.554c0-7.611-1.269-15.23-3.377-22.208     c0.42-2.109,2.109-4.012,3.592-5.494c4.012,9.728,4.226,21.993,4.44,33.418C143.548,271.643,144.183,276.709,142.708,279.889"/>
			<path fill="#FFFFFF" d="M154.767,282.632c-2.125,1.269-4.868,0.214-6.985-0.634l-0.634-1.262     c1.269-16.499,0.848-34.259-3.806-49.069c-0.428-2.108,1.689-3.806,3.171-5.066c0.848,0,1.482,0.42,1.903,1.261     C151.374,245.843,156.67,263.604,154.767,282.632"/>
			<path fill="#FFFFFF" d="M159.627,281.791l-0.634-0.42c0-20.305-2.751-39.968-8.674-58.156c1.055-1.475,2.117-2.743,4.012-3.798     c6.557,18.601,8.253,39.12,10.164,59.417C163.854,280.736,161.522,281.577,159.627,281.791"/>
			<path fill="#FFFFFF" d="M168.714,273.966l-0.627-1.482c-2.751-18.814-5.082-38.058-9.942-56.039     c1.482-1.896,3.377-3.806,5.495-4.012l2.331,4.646c1.482,12.907,4.226,25.173,6.335,37.851     C172.94,261.7,172.94,269.105,168.714,273.966"/>
			<path fill="#FFFFFF" d="M170.41,216.658c-1.062-2.109-4.02-4.86-2.537-7.611c2.109-1.269,4.012-3.386,6.771-3.171     C175.064,209.896,173.796,213.915,170.41,216.658"/>
			<path fill="#FFFFFF" d="M210.791,273.117c-5.487-4.653-4.646-12.258-3.592-19.242c1.062-5.923,3.385-11.417,3.592-17.76     c0.848,0,1.49,0.42,1.902,1.269C211.005,248.809,212.281,261.494,210.791,273.117"/>
			<path fill="#FFFFFF" d="M220.099,282.426c-3.172-1.689-5.28-4.233-4.44-8.254c0.215-10.989-0.206-21.985,1.063-32.349     c1.896,1.269,4.646,2.958,5.495,5.495c-0.421,11.425-0.849,23.896,1.055,34.894C222.85,283.694,220.947,283.06,220.099,282.426"/>
			<path fill="#FFFFFF" d="M227.504,285.169c-1.482-10.997-1.689-23.675-1.269-34.672c2.323,1.055,6.137,1.903,6.549,5.281     c0,9.941,1.063,18.822,2.751,27.916C233.427,285.383,230.041,285.59,227.504,285.169"/>
			<path fill="#FFFFFF" d="M239.762,281.998c-2.744-7.826-2.529-16.492-2.529-24.951c2.957,0.634,6.129,1.696,7.825,3.813     c0,4.646-0.428,9.721,2.529,13.313C246.326,277.764,243.361,280.736,239.762,281.998"/>
			<path fill="#FFFFFF" d="M251.179,270.374c-1.055,0.206-1.896-1.055-1.688-1.91c-0.207-2.323-0.841-5.074,0-7.604l8.039,0.421     C256.047,264.658,253.089,267.195,251.179,270.374"/>
			<path fill="#fff" d="M229.406,248.587c-17.125-13.954-30.453-32.563-40.181-51.171c-28.123,5.502-52.646,31.08-65.125,56.459     c-2.537-18.395,11.417-32.135,23.476-44.408c11.204-9.086,22.2-16.491,34.672-22.62c-6.969-29.604-28.757-53.93-56.253-67.035     l-0.626-0.849c6.343-1.688,12.266,1.063,17.76,2.965c6.557,3.806,12.907,8.452,18.394,13.526     c12.273,12.907,23.69,27.71,31.088,43.773c4.44,0.428,8.666-1.902,13.113-2.957c23.049-9.729,42.291-31.08,52.226-53.502     l0.635,0.214c1.269,18.395-11.838,33.839-25.8,46.097c-10.148,8.674-21.146,15.23-32.349,21.359l-0.214,1.276     c6.771,28.115,31.088,53.914,57.308,65.752C246.953,259.377,237.652,254.51,229.406,248.587"/>
			<path fill="#FFFFFF" d="M267.044,256.626c-3.378-0.214-6.771-0.848-9.515-2.537c0.42-2.537,3.171-2.751,4.654-4.012     c6.129-3.18,13.319-4.027,20.297-5.082l0.214,0.42C278.461,250.696,272.546,253.241,267.044,256.626"/>
			<path fill="#FFFFFF" d="M287.135,239.913c-11.846,2.124-23.683,3.813-33.411,10.783c-2.965,1.275-5.709-1.262-8.032-3.164v-0.428     c12.679-6.978,26.854-9.935,41.443-12.472l1.91,0.214C289.465,236.749,288.189,238.438,287.135,239.913"/>
			<path fill="#FFFFFF" d="M289.886,230.2l-1.482,0.841c-16.706,2.116-32.777,5.708-47.159,13.319     c-2.117-1.269-5.495-2.743-5.28-5.502c16.705-7.191,34.893-12.258,53.922-13.32V230.2z"/>
			<path fill="#018749" d="M70.598,118.757c3.592-1.689,6.137-5.717,6.137-9.942c-0.841-2.323-2.751-4.868-5.074-5.701     c-5.93,3.798,4.233,4.646,1.269,9.293c-1.063,2.759-4.226,3.6-6.763,2.545c-5.082-2.752-10.584-5.709-14.596-9.935     c-0.634-2.338-0.214-4.448,2.109-6.136c1.063-1.055,2.751-0.635,3.813,0.206c1.903,1.903,2.323-1.261,3.171-2.323     c-2.117-2.331-6.557-3.164-8.88-0.84c-1.696,2.109-4.02,4.226-3.806,6.969c-0.42,2.331,0.42,4.654,2.109,6.137     C56.216,112.834,62.352,119.597,70.598,118.757"/>
			<path fill="#018749" d="M308.914,115.585c-1.688,4.44,1.482,8.46,4.646,10.989c2.965,0.635,5.716,0.635,8.253-1.055     c-0.214-1.269-1.062-2.109-1.482-3.171c-1.902-0.421-2.537,1.482-4.226,0.848c-2.117,0-2.965-1.269-3.813-2.957     c-1.055-1.911,0-4.02,1.696-5.502c5.288-2.744,10.362-7.405,16.491-7.826c2.117,1.055,3.394,2.958,3.592,5.281     c0.222,1.696-1.902,2.33-2.957,3.393c0.42,1.055,0.634,2.743,1.688,3.164c1.49-0.635,3.18-1.689,4.234-3.164     c1.062-2.323,0.634-4.661-0.635-6.984c-1.475-3.378-5.074-5.701-8.88-5.281C320.966,106.911,312.926,108.601,308.914,115.585"/>
			<path fill="#018749" d="M64.255,133.345c-0.42-1.269-1.903-1.902-2.958-1.482c-1.062,3.592-2.331,6.985-4.02,10.148l-5.708-1.688     c-6.977-1.269,0-7.191,0-10.783l-0.841-1.055c-0.642-0.214-1.704-0.848-2.545,0c-0.848,2.958-1.903,5.915-3.377,8.674     c-2.751-0.642-5.93-1.269-8.04-3.179l3.171-9.515c0-1.482-1.696-1.062-2.537-1.696c-2.117,4.227-3.385,9.094-5.281,13.748     c8.666,3.6,17.967,7.191,27.061,10.156L64.255,133.345z"/>
			<path fill="#018749" d="M316.525,134.193l5.288,12.686l2.323-1.269l-3.171-9.308l0.642-0.841l22.62-8.888     c-0.214-1.269-0.42-2.957-1.688-3.378l-25.8,10.148L316.525,134.193z"/>
			<path fill="#018749" d="M354.162,160.833c0.429-0.848,0-2.322-0.42-3.377c-7.405,0.42-13.954,3.592-21.565,4.432     c-2.109-0.42-4.448-0.634-5.082-3.171c-0.421-1.689-1.261-4.646,0.848-5.923c7.191-3.164,15.438-4.226,23.057-6.335v-0.849     l-0.429-2.545c-3.385-0.206-6.343,1.697-9.514,1.697c-5.502,2.33-12.693,1.482-16.706,6.557c-2.322,3.6-0.42,8.245,1.269,11.417     c1.903,2.323,4.448,2.751,7.191,2.751L354.162,160.833z"/>
			<path fill="#018749" d="M29.79,146.665l-0.634,0.635c-0.42,0.848-1.055,2.116-0.214,3.171c3.806,0.849,7.825,1.055,11.631,2.545     c-0.634,3.164-0.634,6.764-2.323,9.515l-11.21-2.125c-1.055,0.856-1.475,2.339-1.055,3.6c9.514,1.903,19.036,3.806,28.123,5.494     l0.428-3.377c-4.027-1.269-8.673-1.055-12.273-2.958c0.42-3.179,0.42-6.771,2.125-9.308l11.624,2.117     c1.482-0.215,1.482-2.323,1.269-3.6L29.79,146.665z"/>
			<path fill="#018749" d="M355.859,171.402c-9.309-0.206-19.243,0.849-27.917,1.269l-0.84,0.635     c1.054,4.867-1.063,12.272,4.02,16.078c2.323,0.841,5.28,1.896,8.023,0.635c2.125-0.635,2.974-2.965,3.813-4.868     c1.055,0,1.269,1.063,1.903,1.903c1.902,1.696,4.868,1.902,7.191,1.482C359.879,185.792,355.431,177.333,355.859,171.402"/>
			<path fill="#FFFFFF" d="M339.582,185.364c-1.49,0.849-3.6,1.689-5.503,0.849c-3.6-1.482-3.179-6.137-3.179-9.309     c2.759-1.055,6.557-0.634,9.315-1.055l0.833,1.689C340.851,180.29,341.484,183.462,339.582,185.364"/>
			<path fill="#FFFFFF" d="M352.688,183.247c-1.482,2.117-4.233,1.697-6.137,1.276c-2.743-1.91-1.902-5.502-2.109-8.459     c2.53-0.849,5.709-0.635,8.246-0.635C353.108,177.967,353.742,180.925,352.688,183.247"/>
			<path fill="#018749" d="M27.887,171.83c-0.848-0.206-2.117-0.841-2.958-0.206c-0.42,6.335-0.848,12.892-0.42,18.814h2.744     c0.42-2.331-0.42-5.502,0.634-7.397l25.379,0.841v-3.172c-8.253-1.261-17.554-0.634-25.165-1.688L27.887,171.83z"/>
			<path fill="#018749" d="M123.465,323.234c-2.323-5.289-3.171-11.203-6.771-15.651c-3.592-4.86-10.362,0-14.161-3.592     c-2.751-1.902-1.269-5.708-1.062-8.46c-1.689-4.653-6.763-0.634-9.935-1.269c-4.448-1.475-3.386-6.557-4.234-10.148     c-2.958-8.031-12.265-6.343-18.822-8.031c-4.646-4.44-2.537-12.266-6.977-16.92c-1.269-0.634-2.537-1.902-3.806-1.063     c1.689,5.297,2.958,11.211,3.171,16.92c0,3.806-2.958,6.771-2.117,10.156c6.136-1.063,12.693-2.331,18.402,0.42     c2.537,1.269,4.44,3.799,5.074,6.343c0.428,2.538-0.207,5.281-2.331,6.978c-4.226,7.397,6.557,2.751,8.674,7.611     c3.386,2.323,4.868,5.923,6.343,9.515c2.751,2.116,4.654-3.378,6.985-4.012c1.903-0.421,4.646-1.063,6.335,0.214     c7.619,4.432,7.405,13.74,7.619,21.771h0.634c6.977-5.494,17.125-4.432,26.006-3.806     C139.964,321.331,129.388,326.826,123.465,323.234"/>
			<path fill="#018749" d="M321.18,262.335c-7.619,2.957-4.447,12.472-9.308,17.554c-5.709,1.475-12.473,0.42-17.126,3.806     c-3.172,2.957-2.537,7.184-3.386,10.997c-2.529,5.074-7.611,1.482-11.203,1.482c-3.179,1.269-1.49,4.86-1.49,7.184     c-1.261,7.833-9.515,2.537-14.16,5.074c-4.646,2.759-4.868,7.825-6.771,12.051c-0.841,9.309-12.258,4.44-17.966,6.985     c-1.482,1.055-3.386,2.323-2.966,4.226c9.095-1.062,19.029-1.062,26.014,4.654l0.841-0.42c0.214-7.191-0.42-14.811,5.296-19.671     c2.109-1.903,5.28-2.537,8.024-1.688c3.179,0.626,3.813,6.129,7.404,4.646c1.903-2.743,2.323-6.557,5.717-8.88     c2.957-2.957,7.39-2.537,10.783-4.439c0-2.537-2.125-4.227-3.18-6.343c-0.848-2.744,0-5.717,1.696-7.826     c2.744-3.377,6.97-3.806,11.204-4.012c3.591,0.206,7.404,1.688,10.782,1.475c-3.798-8.459-1.475-18.394,0.849-26.647     L321.18,262.335z"/>
			<path fill="#018749" d="M161.951,323.234c-1.903,1.688-6.557,1.688-5.289,5.494c1.483,0,2.751-1.688,4.02-0.849     c-1.055,7.619-3.179,14.811-4.02,22.414l3.386,0.222l5.28-25.165C166.177,323.027,163.219,323.448,161.951,323.234"/>
			<path fill="#018749" d="M223.271,336.348c0.42-0.849,0.848-1.696,1.482-2.537c1.055-2.545,0.42-5.716-1.063-7.825     c-2.529-3.806-8.666-2.751-11.624,0c-1.054,1.902-1.688,4.439-0.848,6.557c0.428,2.109,2.323,3.806,4.226,4.646     c0.214,1.269-1.055,1.482-1.688,2.323c-1.482,2.759-0.214,5.922,0.42,8.674c1.269,2.108,3.394,4.233,6.351,4.02     c2.744,0,5.066-1.055,6.771-3.18c1.475-2.108,0.84-4.432,0.626-6.969C227.496,339.512,225.808,337.188,223.271,336.348"/>
			<path fill="#FFFFFF" d="M215.024,331.693c-0.421-1.482,0-3.385,0.841-4.439c2.545-1.696,5.296,0.42,5.502,2.743     c0.214,2.125-0.206,4.654-2.323,5.082C216.927,335.499,215.444,333.383,215.024,331.693"/>
			<path fill="#FFFFFF" d="M221.795,348.819c-2.323,0.642-3.592-1.482-4.226-3.171c-0.643-1.903-0.856-4.013,0-5.923     c0.634-1.055,1.902-1.055,2.743-1.269c2.323-0.214,3.172,2.109,3.806,4.02C224.324,344.8,224.959,348.186,221.795,348.819"/>
			<path fill="#018749" d="M184.999,328.942c-2.109-4.02-7.191-4.226-10.783-2.957c-1.689,0.848-2.751,2.537-2.751,4.439     c-0.841,2.958,0.428,5.923,2.331,8.032c-2.538,0.848-3.6,3.171-4.02,5.716c-0.214,2.958-0.214,5.915,2.117,8.024     c1.903,2.124,5.281,2.124,8.032,1.49c2.331-0.635,3.806-2.965,4.226-5.082c0.634-3.378,0.849-7.825-2.529-9.721l2.744-2.537     C185.633,334.23,185.847,331.06,184.999,328.942"/>
			<path fill="#FFFFFF" d="M178.228,350.302c-1.689,0.841-3.798-0.428-4.432-1.902c-0.428-2.537,0.206-4.654,0.84-6.771     c1.903-2.743,6.557-1.055,6.137,2.323C180.559,346.282,180.559,349.24,178.228,350.302"/>
			<path fill="#FFFFFF" d="M178.862,336.768c-2.109,0.421-3.592-1.475-3.798-3.171c-0.214-1.696,0-3.386,1.261-4.654     c1.696-1.688,4.868-0.42,5.082,1.903S181.193,335.92,178.862,336.768"/>
			<path fill="#018749" d="M202.759,339.305c-0.841-1.054,1.063-1.054,1.482-2.108c1.055-2.117,1.689-5.082,0.635-7.619     c-1.689-3.806-6.771-4.433-10.148-3.172c-2.117,0.849-3.592,2.965-3.806,5.074c0,3.18,1.269,6.343,3.806,7.825     c-1.903,1.689-3.172,3.378-3.172,5.709c0,3.172,0.214,6.343,2.957,8.246c2.117,1.696,5.717,1.696,8.04,0.642     c2.743-1.055,3.592-4.027,3.798-6.557C206.145,344.387,205.931,340.788,202.759,339.305"/>
			<path fill="#FFFFFF" d="M197.685,328.736c1.688,0,3.6,1.055,3.813,2.743c0,1.689,0,3.806-1.063,5.288     c-1.063,0.635-2.545,1.055-3.6,0.215c-1.688-1.055-1.902-3.172-1.902-4.868C194.728,330.425,196.202,329.156,197.685,328.736"/>
			<path fill="#FFFFFF" d="M201.918,350.088c-1.269,1.055-3.179,1.689-4.653,0.849c-1.483-1.482-2.537-3.386-2.117-5.923     c0-1.688,0.849-3.806,2.743-4.226c2.117-0.635,4.027,1.055,4.448,2.957C202.553,345.862,203.187,348.186,201.918,350.088"/>
</svg>