<svg xmlns="http://www.w3.org/2000/svg" xmlns:xlink="http://www.w3.org/1999/xlink" version="1.1" id="Capa_1" x="0px" y="0px" width="696px" height="716.634px" viewBox="0 0 696 716.634" enable-background="new 0 0 696 716.634" xml:space="preserve">
<g>
	<g>
		<path fill-rule="evenodd" clip-rule="evenodd" fill="#FFFFFF" d="M239.606,13.789c-0.202,7.505-0.234,20.604-1.453,28.114    c-0.303,1.868-1.373,7.269-1.938,9.21l-0.484,1.454l-0.969,3.878l-0.485,1.454l-0.485,1.938l-0.969,1.939l-0.485,1.939    l-1.453,2.909l-0.484,1.454l-0.485,0.97l-0.484,1.454l-2.423,4.847l-0.484,0.485l-1.454,2.909l-0.484,0.484l-1.453,2.909    l-0.484,0.485l-0.969,1.938l-0.484,0.485l-0.485,0.969l-0.485,0.484l-0.484,0.97l-0.485,0.485l-0.484,0.969l-0.969,0.97    l-0.485,0.969l-0.484,0.485l-0.484,0.969l-0.484,0.485l-0.485,0.969l-1.938,1.938l-0.484,0.97l-0.97,0.97l-0.484,0.969    l-3.392,3.394l-0.484,0.969l-2.422,2.424l-0.485,0.969l-3.391,3.394l-0.969,0.484l-3.876,3.878l-0.969,0.485l-3.391,3.392    l-0.969,0.485l-0.484,0.485l-0.97,0.484l-1.938,1.938l-0.969,0.486l-0.485,0.484l-0.969,0.484l-1.454,1.454l-1.938,0.969    l-0.969,0.97l-0.969,0.485l-0.484,0.484l-0.969,0.485l-0.969,0.969l-1.939,0.97l-0.484,0.485l-1.938,0.97l-0.484,0.484    l-1.938,0.969l-0.485,0.485l-3.876,1.939c-0.612,0.441-0.372,0.521-1.453,0.969l-1.454,0.485l-0.484,0.484l-2.907,1.455    l-1.454,0.484l-0.484,0.484l-1.454,0.485l-2.907,1.454l-4.361,1.455c-1.319,0.547-1.838,1.002-3.392,1.454l-1.938,0.485    l-5.814,1.938l-7.752,1.939l-2.907,0.485c-3.81,0.698-5.67,1.048-9.69,1.454l-5.329,0.485h-10.66l-9.205-0.97    c-2.411-0.374-6.346-1.247-8.721-1.938l-4.362-1.455l-1.938-0.484l-2.907-1.454l-1.454-0.485l-4.845-2.423l-0.969-0.97    l-2.907-1.455l-0.484-0.484l-0.969-0.484l-0.969-0.969l-0.969-0.485l-0.484-0.484l-0.969-0.485L57.914,134l-0.97-0.485    l-1.938-1.938c-0.318-0.23-1.215-0.451-1.938-1.454l-0.484-0.97l-2.422-2.423l-0.484-0.97l-2.907-2.908l-1.454-2.909l-0.969-0.484    l-3.392-3.393l-2.907-5.817H16.729v71.739l0.485,14.542c0.335,8.731,0.695,17.469,1.454,26.174l0.484,5.332    c0.347,4.523,0.529,9.056,0.969,13.572l0.484,4.363l0.969,10.664l1.453,12.118c0.481,4.282,0.767,8.852,1.454,13.087l0.485,2.424    c0.578,3.565,0.875,7.583,1.454,11.148l0.484,2.423l0.484,3.393l0.969,5.817l0.484,3.393l0.484,2.423    c0.484,2.827,0.719,5.958,1.454,8.725l0.485,1.454l0.484,3.393l0.485,2.424l0.484,2.908l0.484,1.939    c0.869,3.866,1.508,7.777,2.422,11.633c0.507,2.255,0.807,4.564,1.454,6.787l0.484,1.455l0.969,4.847l0.969,3.878l0.97,3.393    l0.483,2.908l0.485,1.454l0.485,1.938l0.484,1.454l0.485,2.424l0.968,2.909l1.454,5.816l0.484,0.97l0.484,1.938l0.485,1.455    l0.484,2.423l0.969,2.909l0.484,1.939l0.484,0.969l0.485,1.938l0.484,0.969c0.487,1.317,0.787,3.724,1.453,5.333    c0.405,0.976,0.62,1.224,0.969,2.423c0.471,1.618,0.806,3.283,1.453,4.847l0.485,0.971l1.454,4.361l0.484,0.971l0.484,1.938    l1.454,4.362c0.429,0.694,0.382-0.075,0.969,1.938l0.484,1.939l0.485,0.97l0.484,1.454l0.484,0.969l0.969,2.908l0.485,0.971    l0.484,1.453l0.485,0.971l0.484,1.453l0.969,1.939l0.969,2.907l0.969,1.939l0.484,1.454l0.484,0.97l0.485,1.454l0.484,0.969    l0.484,1.454l1.938,3.878l0.484,1.455l1.453,2.908l0.485,1.454l0.484,0.969l0.484,1.455l0.484,0.484l0.969,1.938l0.484,1.454    l8.722,17.451l0.484,0.483l3.876,7.756l0.485,0.485c0.303,0.49,0.479,1.744,0.969,2.423c0.441,0.612,0.521,0.373,0.969,1.455    l0.484,1.454l0.969,0.969l0.969,1.939l0.484,0.484l1.938,3.877l0.484,0.485l0.485,0.97l0.484,0.485l1.454,2.907l0.484,0.484    l0.484,0.97l0.484,0.485l0.484,1.454l0.97,0.969l0.485,0.97l0.484,0.484l0.484,1.455l0.484,0.485l0.484,0.969l0.484,0.484    l0.484,0.97l0.485,0.484l0.969,1.939l0.484,0.483l0.484,0.971l0.484,0.484l0.485,0.969l0.969,0.97l0.969,1.939l0.969,0.97    l0.484,0.969l0.484,0.484l0.484,0.971l0.484,0.483l0.485,0.971c0.441,0.611,0.521,0.372,0.969,1.454l0.484,1.453l1.453,1.454    c2.085,2.316,3.662,4.472,5.331,6.786l0.483,0.97l0.485,0.485l0.485,0.969l0.969,0.969l0.484,0.971l1.453,1.454l0.484,0.97    l0.969,0.969l0.485,0.97l0.969,0.97l0.484,0.969l1.938,1.938l0.485,0.971l0.969,0.969l0.484,0.97l1.938,1.938l0.485,0.97    l1.938,1.938l0.484,0.971l2.422,2.423l0.485,0.97l1.938,1.939l0.484,0.969l3.876,3.878l0.484,0.969l2.908,2.909l0.484,0.969    l5.814,5.816l0.484,0.97c0.311,0.311,1.01,0.354,1.454,0.971l0.485,0.969c0.31,0.31,1.01,0.354,1.454,0.97    c0.462,0.641,0.192,0.677,0.969,1.453l0.969,0.97l6.299,6.302l0.969,0.969l0.969,0.485l2.907,2.907l0.485,0.971    c0.31,0.311,1.01,0.354,1.454,0.969l0.483,0.969l0.97,0.485l3.391,3.393l0.969,0.485l2.907,2.908l0.969,0.484l3.876,3.878h0.969    c0,1.769,0.36,1.151,1.454,1.939l1.938,1.939l0.969,0.484l2.907,2.908l0.97,0.485l2.907,2.907h1.453    c0,1.769,0.36,1.151,1.455,1.939l0.969,0.969c0.642,0.462,0.678,0.193,1.453,0.97h0.969c0,1.769,0.36,1.151,1.454,1.939    l0.484,0.483l0.969,0.485l1.454,1.454l0.969,0.485l1.454,1.454l0.969,0.484l0.969,0.969l0.969,0.485l0.969,0.969l0.97,0.485    l0.484,0.484l0.969,0.485l1.453,1.454l0.969,0.485l0.484,0.483l0.97,0.485l1.454,1.454l1.938,0.97l0.969,0.969l0.969,0.485    l0.969,0.969l1.938,0.97l0.969,0.969l0.969,0.485l0.485,0.485l0.969,0.485l0.969,0.969l1.938,0.969l0.969,0.97l0.969,0.485    l0.485,0.484l0.969,0.484l0.485,0.485l0.969,0.485l0.484,0.483l0.969,0.485l0.484,0.485l1.938,0.969l0.485,0.484l0.969,0.484    l0.485,0.484l0.969,0.485l1.453,1.454l1.454,0.484l0.485,0.485l0.969,0.484l0.485,0.484l1.938,0.971l0.969,0.969l2.907,1.454    l0.484,0.485l0.969,0.484l0.485,0.484l1.938,0.97l0.484,0.483l0.969,0.485l0.484,0.485l2.908,1.454l0.483,0.484l1.939,0.969    l0.484,0.485l1.938,0.971l0.484,0.484l2.907,1.454l0.485,0.483l1.938,0.971l0.484,0.484l4.845,2.424l0.484,0.485l0.97,0.484    l0.484,0.484l1.938,0.97l1.453,0.483l0.484,0.485l3.877,1.939l0.484,0.484l5.814,2.908l0.484,0.485l3.876,1.938l1.453,0.484    l0.485,0.484l23.255,11.634l1.455,0.484c0.442,0.274,0.33,0.504,1.453,0.971l1.453,0.484l2.907,1.454l1.453,0.484l0.97,0.484    h8.721c0.519-0.084,3.336-1.064,3.875-1.454l0.485-0.484l1.453-0.484l4.846-2.424l1.452-0.485l11.63-5.815l2.905-0.971l0.97-0.97    l8.722-4.361c0.788-0.328,1.713-0.459,2.423-0.97c0.844-0.608,0.626-0.911,1.938-1.455c0.923-0.344,2.619-0.896,3.391-1.454    l0.485-0.483l2.907-1.454l0.485-0.486l1.938-0.969l0.484-0.485l3.876-1.938l0.482-0.484c0.49-0.305,1.744-0.48,2.423-0.971    l0.485-0.484l1.938-0.97l0.485-0.484l0.97-0.484l0.482-0.485c0.49-0.304,1.745-0.479,2.423-0.969l0.485-0.485l0.968-0.484    l0.485-0.484l2.907-1.455l0.485-0.485l1.938-0.969l0.484-0.484l1.938-0.969l0.485-0.485l0.968-0.485l0.484-0.485l3.876-1.938    l0.971-0.97l1.938-0.97l0.484-0.484l1.938-0.969l0.968-0.971l2.907-1.454l0.971-0.969l1.938-0.97l0.482-0.485l0.971-0.484    l0.484-0.484l0.968-0.484l0.485-0.485l0.971-0.483l0.482-0.485l0.97-0.485l0.97-0.969l1.938-0.97l0.482-0.484l0.97-0.485    l0.485-0.484l0.968-0.485l0.971-0.969l0.967-0.485l0.485-0.483l1.938-0.971l0.97-0.97l0.968-0.484l0.484-0.484l0.971-0.485    l0.968-0.969l0.97-0.485l0.485-0.483l0.968-0.485l1.452-1.454l0.971-0.484l0.484-0.485l0.968-0.485l0.971-0.969l0.968-0.485    l0.484-0.483l0.971-0.485l1.938-1.939l1.938-0.97l1.453-1.453l0.97-0.484l0.485-0.485l0.968-0.484l0.484-0.485l0.968-0.484    c0.846-0.61,0.629-0.911,1.94-1.455c2.127-0.88,4.623-4.259,6.784-5.815l0.968-0.97l0.97-0.485l0.482-0.969l0.97-0.485    l0.971-0.969l0.968-0.485l1.453-1.454l0.97-0.484l3.875-3.878l0.971-0.484l2.423-2.424l0.967-0.485    c9.324-8.396,18.265-17.302,27.135-26.174c0.317-0.231,1.214-0.451,1.938-1.454l0.967-1.939l3.393-3.393l0.485-0.97l6.299-6.302    l0.482-0.969l1.94-1.939l0.482-0.97c3.168-3.167,5.646-6.617,8.722-9.694l0.484-0.97l0.971-0.969l0.482-0.97l1.455-1.454    l0.485-0.969l1.452-1.455l0.485-0.969l1.453-1.454l0.484-0.971l0.483-0.483l0.484-0.97l1.455-1.454l0.482-0.971l0.971-0.969    l0.485-0.969l0.484-0.485l0.483-0.97c0.468-0.646,1.693-1.391,1.938-2.423v-0.97h0.97l0.971-1.938l0.482-0.484l0.484-0.971    l0.971-0.969l0.482-0.97l0.971-0.969l0.967-1.939l0.971-0.969l0.485-0.971l0.484-0.484l0.483-0.969l0.484-0.485l0.485-0.969    l0.484-0.485l0.485-0.97l0.968-0.97l0.971-1.938l0.967-0.969l1.455-2.909l0.969-0.969l0.97-1.938l0.482-0.485l0.485-0.97    l0.485-0.484l0.484-0.97l0.482-0.484l0.485-1.454l0.485-0.485l0.484-0.97l0.485-0.484l0.482-0.97    c0.533-0.737,0.272-0.059,0.971-1.454c0.308-0.616,0.566-1.38,0.97-1.938l0.482-0.485l0.971-1.938l0.485-0.485l0.482-0.97    l0.485-0.484l2.907-5.816l0.968-0.971l0.484-1.454l1.938-3.877l0.485-0.484l3.393-6.786l0.482-0.485l0.485-1.453l0.485-0.485    c0.75-1.042,1.459-3.699,1.938-4.363c0.442-0.611,0.521-0.37,0.97-1.454l0.483-1.454l3.393-6.785l0.482-1.454l1.94-3.878    l0.482-1.454l1.938-3.878l0.485-1.454l1.938-3.878l0.484-1.454l0.485-0.97l0.97-2.908l1.453-2.908l0.968-2.909l0.97-1.938    l0.968-2.907l0.971-1.939l0.484-1.939l0.485-0.969l0.482-1.454l0.97-1.938l0.485-1.939l0.968-2.909    c0.548-1.319,1.001-1.839,1.455-3.393l0.482-1.939l0.485-0.969l1.455-4.363c0.401-0.974,0.619-1.224,0.968-2.422l0.485-1.939    l2.423-7.271l0.482-1.939l0.971-2.907c0.327-1.128,0.516-2.303,0.967-3.394l0.485-0.971l1.455-5.816    c0.296-0.802,0.646-1.209,0.968-2.423l0.485-2.424l0.484-1.454l0.485-2.424l0.968-2.907l0.971-3.879l0.967-3.393    c0.474-2.103,0.851-4.228,1.456-6.302l1.452-5.816l0.485-2.909l0.482-1.454l0.97-3.878l0.485-2.909l0.482-1.938l0.971-4.847    l0.484-1.939l0.485-2.908l0.968-4.362c0.332-1.932,0.466-3.915,0.97-5.817l0.485-1.454c0.469-1.89,1.009-6.788,1.453-9.21    l0.484-2.423l0.482-3.394l0.485-2.423l0.971-6.786l0.482-2.424c0.603-3.697,0.821-7.455,1.455-11.148l0.485-2.424    c0.771-4.761,1.33-12.31,1.938-17.45l0.968-7.756l0.97-11.633l0.485-3.393l0.482-6.787l0.971-13.087l0.484-5.332    c0.469-6.546,0.722-14.242,0.968-20.843l0.485-14.542v-69.316H660.65l-5.331,5.332l-0.484,0.97l-3.876,4.362l-2.423,2.424    l-0.485,0.969l-1.452,1.454l-0.485,0.97l-2.421,2.423c-2.516,2.098-4.707,4.65-7.269,6.786l-0.97,0.485l-0.482,0.484l-0.97,0.485    l-0.971,0.969l-0.968,0.484l-0.485,0.484l-2.905,1.455l-0.97,0.97l-4.846,2.423l-1.453,0.485l-2.907,1.454l-1.938,0.484    c-3.031,0.884-4.704,1.689-8.236,2.424l-2.908,0.484l-1.938,0.484c-1.627,0.293-8.025,0.894-9.691,0.97h-10.174    c-4.803-0.2-13.226-1.366-17.928-2.424l-1.938-0.484l-2.423-0.485l-1.453-0.484l-3.875-0.97l-8.722-2.909l-1.938-0.969    l-2.908-0.97l-0.968-0.484l-1.455-0.484l-5.813-2.908l-1.452-0.485l-0.485-0.484l-2.908-1.454l-0.484-0.485    c-0.49-0.303-1.742-0.48-2.424-0.97l-0.482-0.484l-0.97-0.485l-0.485-0.485l-2.905-1.454l-0.485-0.484l-0.97-0.485l-0.482-0.485    l-0.971-0.485l-0.484-0.484l-1.938-0.969l-0.968-0.969l-0.97-0.485l-0.485-0.485l-0.968-0.485l-1.455-1.453l-1.938-0.97    l-1.453-1.455l-0.97-0.484l-0.968-0.97c-0.641-0.462-0.679-0.193-1.453-0.97h-0.97c0-1.767-0.36-1.15-1.453-1.938l-2.423-2.424    l-0.97-0.485l-11.145-11.148l-2.423-3.394l-2.423-2.423l-0.482-0.97l-0.97-0.969l-0.485-0.97l-1.452-1.454l-0.969-1.939    l-1.454-1.454l-0.968-1.938l-0.971-0.97l-0.485-0.969l-0.481-0.485l-0.485-1.454l-0.485-0.484l-0.485-0.97l-0.484-0.484    l-0.968-1.939l-0.485-0.484l-1.453-2.909l-0.484-0.485l-1.938-3.877l-0.485-1.455l-0.485-0.969    c-0.325-0.789-0.459-1.715-0.968-2.423l-0.485-0.485l-1.452-4.362l-0.485-0.97c-0.791-1.911-1.718-5.493-2.423-7.755    c-1.682-5.784-2.887-13.818-3.391-19.874c-0.583-8.389-0.724-16.803-0.97-25.205H240.091L239.606,13.789z"/>
		<path fill-rule="evenodd" clip-rule="evenodd" d="M252.204,26.392c0,20.599-6.739,44.1-14.633,56.614    c-4.889,7.751-8.115,14.391-14.071,21.308c-2.863,3.324-5.435,6.339-8.244,9.688c-1.766,2.105-8.392,6.88-8.596,9.335    c-1.389,0.115-16.851,12.683-19.769,14.638c-6.526,4.374-14.423,9.141-22.056,12.351c-15.865,6.671-32.808,13.728-55.079,13.728    h-1.938c-18.017,0-36.908-4.953-47.482-12.119c-6.655-4.509-11.113-7.515-16.842-13.204c-3.757-3.732-10.746-13.587-14.167-15.879    c0,38.44,0.354,74.223,2.904,109.551c2.435,33.747,7.724,68.077,13.691,98.758c11.811,60.721,32.828,119.089,59.632,165.251    c12.843,22.119,29.69,47.982,46.23,66.206c4.625,5.097,8.452,9.905,13.328,14.781c3.851,3.854,9.771,11.46,13.733,14.375    c3.767,2.771,10.586,10.148,14.358,13.749c4.687,4.477,10.114,8.672,15.041,13.067c9.894,8.824,21.366,16.159,31.757,24.456    c4.641,3.707,11.564,7.886,16.758,11.351c5.767,3.845,11.315,7.398,17.235,10.87c8.556,5.019,67.112,38.766,73.66,38.766h0.485    c6.643,0,60.837-31.671,70.098-36.51c10.616-5.549,22.298-14.291,32.329-20.979c11.051-7.371,20.462-15.324,30.818-22.973    c5.052-3.731,9.521-8.329,14.444-12.207c2.728-2.149,4.224-3.986,6.96-6.124c1.343-1.05,2.246-2.466,3.335-3.449    c1.164-1.052,2.185-1.519,3.723-3.063c4.55-4.568,8.765-8.771,13.321-13.331c4.681-4.682,8.578-9.592,13.079-14.061    c8.322-8.266,16.848-19.742,24.028-29.281c3.517-4.67,8.262-10.65,11.218-15.437c3.001-4.861,7.255-11.981,10.578-16.563    c4.941-6.816,15.87-25.962,19.282-34.026c5.28-12.479,11.477-23.783,16.808-36.991c2.645-6.548,5.02-12.479,7.299-19.357    c2.003-6.052,4.519-13.738,6.892-19.765c5.13-13.02,7.142-29.019,11.837-41.964c2.023-5.585,3.262-15.503,4.834-21.822    c1.668-6.704,3.283-15.105,4.413-22.244c0.492-3.1,1.075-8.492,1.777-11.309c1.016-4.068,0.829-7.909,1.737-11.835    c1.816-7.856,2.058-15.408,3.321-23.822c1.14-7.589,1.536-16.427,2.7-23.959c0.968-6.271,1.823-18.553,2.058-24.599    c0.666-17.087,1.921-34.195,1.921-51.883v-43.625c-1.62,0.587-11.744,13.078-13.689,15.39c-3.964,4.715-11.165,9.54-16.448,13.112    c-10.385,7.023-28.991,12.7-46.416,12.7h-1.938c-38.61,0-78.057-21.423-97.762-40.342c-13.775-13.226-20.59-20.985-30.921-37.896    c-6.7-10.963-16.187-35.939-16.187-53.122V20.575H252.204V26.392z"/>
		<path fill-rule="evenodd" clip-rule="evenodd" fill="#FFFFFF" d="M303.079,239.669c-10.07,2.347-24.26,12.364-32.27,17.643    c-6.655,4.387-20.909,18.53-25.294,25.106c-13.282,19.916-25.772,42.097-25.772,75.038v5.816c0,15.78,4.238,29.936,8.174,41.748    c4.456,13.376,10.904,21.899,17.891,32.513c4.593,6.979,18.346,20.367,25.392,25.009c5.094,3.355,9.599,6.841,15.24,9.959    c2.616,1.445,5.818,3.035,8.4,4.199c1.542,0.695,8.24,2.706,8.24,4.359v188.071c4.669,1.089,16.789,8.907,21.964,11.472    c2.724,1.35,21.292,10.825,22.611,10.825c2.442,0,20.079-9.122,22.673-10.762c2.446-1.545,20.472-11.089,22.386-11.535V481.06    c0-1.618,13.832-7.272,15.992-8.236c5.377-2.401,10.141-5.984,14.814-9.415c9.115-6.691,18.091-15.171,25-23.948    c7.594-9.646,12.796-18.843,17.997-30.951c3.374-7.853,9.534-28.906,9.534-39.42v-13.087c0-27.044-13.597-59.354-26.047-73.795    c-8.468-9.822-14.482-16.898-25.022-24.894c-5.189-3.938-8.861-6.659-14.988-9.724c-3.756-1.879-13.65-7.074-17.28-7.919V31.724    h-89.634V239.669z"/>
		<path fill-rule="evenodd" clip-rule="evenodd" d="M226.525,350.185v18.42c0,13.916,6.998,34.851,11.789,44.434    c6.284,12.568,14.045,23.338,23.46,32.758c15.49,15.496,46.737,35.264,77.159,35.264h20.833c12.377,0,34.052-8.061,42.802-12.439    c12.45-6.23,22.613-13.985,31.934-23.31c9.056-9.06,16.929-20.176,22.977-32.272c4.537-9.076,11.789-30.398,11.789-43.464v-16.966    c0-32.039-19.249-62.64-35.489-78.889c-10.368-10.372-19.631-16.782-33.476-23.708c-10.186-5.096-30.529-11.796-45.382-11.796    h-11.626c-32.549,0-63.675,17.896-80.066,34.295c-10.025,10.029-17.542,19.523-24.272,32.914    C233.928,315.426,226.525,335.709,226.525,350.185z"/>
		<path fill-rule="evenodd" clip-rule="evenodd" fill="#FFFFFF" d="M232.824,358.425c0,62.561,50.811,116.333,111.922,116.333h1.938    c35.309,0,62.975-14.19,80.552-31.871c16.852-16.953,35.248-44.218,35.248-77.675v-15.027c0-14.307-7.013-31.97-11.949-41.848    c-6.284-12.573-13.66-21.822-23.056-31.224c-15.956-15.961-44.564-32.111-76.435-32.111h-8.721    c-31.897,0-60.355,18.705-76.927,34.525C249.213,294.976,232.824,326.686,232.824,358.425z"/>
		<path fill-rule="evenodd" clip-rule="evenodd" fill="#FFFFFF" d="M123.807,174.716v328.155c0,4.012,16.054,25.04,18.992,29.474    c6.707,10.122,14.556,17.779,21.417,27.047c4.571,6.173,44.224,46.358,49.228,47.695V132.061    c-3.269,2.189-5.765,5.095-9.005,7.473c-3.296,2.418-6.276,4.557-9.491,6.985c-6.001,4.535-13.789,8.722-20.75,12.202    c-7.314,3.655-14.71,7.329-23.27,9.681c-4.109,1.129-8.252,2.704-12.777,3.697C133.328,173.157,128.363,173.654,123.807,174.716z"/>
		<path fill-rule="evenodd" clip-rule="evenodd" fill="#FFFFFF" d="M482.349,607.572c4.144-2.775,8.686-7.563,12.714-11.031    c4.514-3.884,8.401-7.433,12.6-11.631c7.07-7.064,17.564-17.288,23.34-25.125c6.862-9.316,14.676-16.61,21.401-26.576    c2.905-4.306,19.097-25.588,19.097-29.367v-329.61c-14.415,0-39.743-10.409-49.905-15.511    c-7.097-3.563-13.928-7.855-20.351-12.119c-3.197-2.122-16.993-13.548-18.896-14.057V607.572z"/>
		<path fill-rule="evenodd" clip-rule="evenodd" d="M274.492,356.001v8.241c0,5.979,2.914,15.567,5.007,19.712    c1.176,2.327,9.027,16.095,9.043,16.156c3.685-0.306,8.128-6.464,11.145-7.27c-1.246-4.67-9.978-12.478-10.175-21.329h29.07    v41.687l13.663-0.001l-1.065-110.03v-11.633c-6.031,0-17.479,5.616-22.125,7.918c-6.814,3.375-11.905,8.462-17.004,13.527    C283.804,321.169,274.492,339.482,274.492,356.001z"/>
		<path fill-rule="evenodd" clip-rule="evenodd" d="M337.485,263.033l-0.007,193.789h18.412c12.365,0,23.197-6.079,32.812-8.397    l-5.194-11.959c-9.455,2.203-18.919,7.271-30.525,7.271h-2.422V275.538h2.422c2.703,0,13.007,1.696,15.09,2.354    c3.307,1.046,10.537,4.366,13.235,4.316l5.108-12.002c-2.913-0.242-10.11-3.94-14.573-4.81c-5.52-1.075-10.134-2.946-16.922-2.946    l-5.335-0.117L337.485,263.033z"/>
		<path fill-rule="evenodd" clip-rule="evenodd" d="M250.75,355.033v3.878c0,31.46,10.038,46.659,23.451,64.758    c4.39,5.924,17.286,16.279,24.187,19.912c6.559,3.45,23.86,11.788,32.792,11.788v-13.572c-13.833,0-40.518-17.885-46.804-26.368    c-10.158-13.708-20.543-29.585-20.543-53.125v-4.363c0-24.039,10.183-39.21,20.543-53.125c7.036-9.451,32.25-26.126,46.804-27.338    v-13.572c-7.368,0.164-25.216,8.491-31.175,11.466c-6.678,3.334-19.859,13.502-24.149,18.98    c-6.793,8.673-12.022,15.034-16.871,25.777C255.459,327.938,250.75,343.833,250.75,355.033z"/>
		<path fill-rule="evenodd" clip-rule="evenodd" d="M396.589,444.221c3.782-0.881,20.374-15.261,23.132-18.545    c2.867-3.413,16.599-21.508,16.599-25.565c0-1.964-9.687-5.271-11.629-6.301c-0.963,4.136-11.784,21.434-15.02,22.298v-112.94    c3.634,0.971,13.954,18.689,15.098,23.454l12.036-5.034c-0.547-6.57-12.342-22.369-16.351-26.784    c-5.52-6.084-16.573-15.889-23.865-19.749V444.221z"/>
		<path fill-rule="evenodd" clip-rule="evenodd" fill="#FFFFFF" d="M287.574,353.579v4.847h30.524v-48.471    C305.573,312.873,287.574,337.5,287.574,353.579z"/>
	</g>
</g>
</svg>