<svg xmlns:dc="http://purl.org/dc/elements/1.1/" xmlns:cc="http://creativecommons.org/ns#" xmlns:rdf="http://www.w3.org/1999/02/22-rdf-syntax-ns#" xmlns:svg="http://www.w3.org/2000/svg" xmlns="http://www.w3.org/2000/svg" version="1.1" width="230.77081" height="300" id="svg2" xml:space="preserve"><metadata id="metadata8"><rdf:RDF><cc:Work rdf:about=""><dc:format>image/svg+xml</dc:format><dc:type rdf:resource="http://purl.org/dc/dcmitype/StillImage"/><dc:title/></cc:Work></rdf:RDF></metadata><defs id="defs6"><clipPath id="clipPath16"><path d="m 0,0 841.89,0 0,595.275 L 0,595.275 0,0 z" id="path18"/></clipPath><clipPath id="clipPath32"><path d="m 0,0 841.89,0 0,595.275 L 0,595.275 0,0 z" id="path34"/></clipPath><clipPath id="clipPath78"><path d="m 0,0 841.89,0 0,595.276 L 0,595.276 0,0 z" id="path80"/></clipPath><clipPath id="clipPath96"><path d="m 370.499,325.601 100.893,0 0,131.16 -100.893,0 0,-131.16 z" id="path98"/></clipPath><clipPath id="clipPath174"><path d="m 0,0 841.89,0 0,595.276 L 0,595.276 0,0 z" id="path176"/></clipPath></defs><g transform="matrix(1.25,0,0,-1.25,-463.12375,707.00125)" id="g10"><path d="m 370.499,325.601 184.61665,0 0,240 -184.61665,0 0,-240 z" id="path90" style="fill:#009e45;fill-opacity:1;fill-rule:nonzero;stroke:none"/><g transform="matrix(1.8298262,0,0,1.8298262,-307.44976,-270.19223)" id="g92"><g clip-path="url(#clipPath96)" id="g94"><g transform="translate(423.03,349.6085)" id="g100"><path d="m 0,0 c -15.569,0 -28.188,12.621 -28.188,28.188 0,15.566 12.619,28.186 28.188,28.186 15.568,0 28.188,-12.62 28.188,-28.186 C 28.188,12.621 15.568,0 0,0" id="path102" style="fill:#ffffff;fill-opacity:1;fill-rule:evenodd;stroke:none"/></g><g transform="translate(429.2942,389.4969)" id="g104"><path d="M 0,0 4.177,-13.519 -6.76,-21.874 -17.697,-13.519 -13.519,0 0,0 z" id="path106" style="fill:#000000;fill-opacity:1;fill-rule:evenodd;stroke:none"/></g><path d="m 430.212,424.401 -18.535,0 0,3.958 18.535,0 0,-3.958 z" id="path108" style="fill:#ffffff;fill-opacity:1;fill-rule:evenodd;stroke:none"/><g transform="translate(422.8798,435.3967)" id="g110"><path d="m 0,0 c 0,-1.069 -0.866,-1.935 -1.935,-1.935 -1.068,0 -1.935,0.866 -1.935,1.935 0,1.068 0.867,1.935 1.935,1.935 C -0.866,1.935 0,1.068 0,0" id="path112" style="fill:#ffffff;fill-opacity:1;fill-rule:evenodd;stroke:none"/></g><g transform="translate(427.8059,430.9973)" id="g114"><path d="m 0,0 c 0,-1.068 0.866,-1.935 1.935,-1.935 1.069,0 1.936,0.867 1.936,1.935 0,1.069 -0.867,1.936 -1.936,1.936 C 0.866,1.936 0,1.069 0,0" id="path116" style="fill:#ffffff;fill-opacity:1;fill-rule:evenodd;stroke:none"/></g><g transform="translate(414.0841,430.9973)" id="g118"><path d="m 0,0 c 0,-1.068 -0.867,-1.935 -1.935,-1.935 -1.069,0 -1.936,0.867 -1.936,1.935 0,1.069 0.867,1.936 1.936,1.936 C -0.867,1.936 0,1.069 0,0" id="path120" style="fill:#ffffff;fill-opacity:1;fill-rule:evenodd;stroke:none"/></g><g transform="translate(422.0261,430.9973)" id="g122"><path d="M 0,0 C 0,-1.068 0.866,-1.935 1.935,-1.935 3.003,-1.935 3.87,-1.068 3.87,0 3.87,1.069 3.003,1.936 1.935,1.936 0.866,1.936 0,1.069 0,0" id="path124" style="fill:#ffffff;fill-opacity:1;fill-rule:evenodd;stroke:none"/></g><g transform="translate(419.8643,430.9973)" id="g126"><path d="m 0,0 c 0,-1.068 -0.867,-1.935 -1.935,-1.935 -1.069,0 -1.935,0.867 -1.935,1.935 0,1.069 0.866,1.936 1.935,1.936 C -0.867,1.936 0,1.069 0,0" id="path128" style="fill:#ffffff;fill-opacity:1;fill-rule:evenodd;stroke:none"/></g><g transform="translate(422.8798,440.485)" id="g130"><path d="m 0,0 c 0,-1.068 -0.866,-1.936 -1.935,-1.936 -1.068,0 -1.935,0.868 -1.935,1.936 0,1.069 0.867,1.936 1.935,1.936 C -0.866,1.936 0,1.069 0,0" id="path132" style="fill:#ffffff;fill-opacity:1;fill-rule:evenodd;stroke:none"/></g><g transform="translate(424.4175,449.1495)" id="g134"><path d="m 0,0 -2.687,0 0,3.085 -1.571,0 0,-3.085 -2.687,0 0,-1.435 2.687,0 0,-3.083 1.571,0 0,3.083 2.687,0 L 0,0 z" id="path136" style="fill:#ffffff;fill-opacity:1;fill-rule:evenodd;stroke:none"/></g><g transform="translate(432.6357,436.114)" id="g138"><path d="M 0,0 C 0.051,0.236 0.097,0.476 0.198,0.698 0.28,0.875 0.511,1.017 0.56,1.187 0.633,1.442 0.298,1.6 0.1,1.63 -0.147,1.668 -0.425,1.615 -0.655,1.522 c -0.643,-0.261 -1.281,-1.005 -1.387,-1.7 -0.046,-0.301 -0.019,-0.566 0.058,-0.865 0.069,-0.266 0.205,-0.555 0.431,-0.731 0.447,-0.349 1.196,-0.441 1.437,0.18 C 0.08,-1.084 -0.114,-0.522 0,0" id="path140" style="fill:#ffffff;fill-opacity:1;fill-rule:evenodd;stroke:none"/></g><g transform="translate(409.8846,436.114)" id="g142"><path d="M 0,0 C -0.051,0.236 -0.097,0.476 -0.198,0.698 -0.28,0.875 -0.511,1.017 -0.56,1.187 -0.633,1.442 -0.299,1.6 -0.1,1.63 0.147,1.668 0.425,1.615 0.655,1.522 1.298,1.261 1.935,0.517 2.042,-0.178 2.088,-0.479 2.061,-0.744 1.984,-1.043 1.915,-1.309 1.779,-1.598 1.553,-1.774 1.106,-2.123 0.356,-2.215 0.117,-1.594 -0.08,-1.084 0.114,-0.522 0,0" id="path144" style="fill:#ffffff;fill-opacity:1;fill-rule:evenodd;stroke:none"/></g><g transform="translate(433.0236,440.2368)" id="g146"><path d="M 0,0 C 0.226,0.373 0.285,1.042 0.198,1.468 0.13,1.806 -0.025,2.125 -0.258,2.379 -0.491,2.635 -0.773,2.717 -1.106,2.787 -1.746,2.923 -2.484,2.902 -3.02,2.483 -3.669,1.976 -2.487,1.46 -2.139,1.249 -1.8,1.044 -1.493,0.773 -1.242,0.47 -1.135,0.34 -1.052,0.194 -0.971,0.046 -0.904,-0.078 -0.844,-0.276 -0.719,-0.353 -0.43,-0.534 -0.135,-0.224 0,0" id="path148" style="fill:#ffffff;fill-opacity:1;fill-rule:evenodd;stroke:none"/></g><g transform="translate(409.4966,440.2368)" id="g150"><path d="M 0,0 C -0.225,0.373 -0.285,1.042 -0.199,1.468 -0.13,1.806 0.025,2.125 0.258,2.379 0.491,2.635 0.773,2.717 1.106,2.787 1.746,2.923 2.485,2.902 3.02,2.483 3.669,1.976 2.487,1.46 2.139,1.249 1.8,1.044 1.493,0.773 1.242,0.47 1.136,0.34 1.052,0.194 0.972,0.046 0.904,-0.078 0.844,-0.276 0.719,-0.353 0.43,-0.534 0.135,-0.224 0,0" id="path152" style="fill:#ffffff;fill-opacity:1;fill-rule:evenodd;stroke:none"/></g><g transform="translate(428.5085,443.8622)" id="g154"><path d="m 0,0 c 0.068,0.139 0.015,0.355 -0.047,0.487 -0.334,0.71 -1.202,0.964 -1.92,0.776 -0.741,-0.193 -1.498,-0.908 -1.602,-1.686 -0.048,-0.359 0.073,-1.013 0.575,-0.866 0.164,0.047 0.279,0.207 0.419,0.297 0.234,0.151 0.509,0.243 0.76,0.364 0.325,0.155 0.665,0.283 1.016,0.37 C -0.578,-0.203 -0.118,-0.241 0,0" id="path156" style="fill:#ffffff;fill-opacity:1;fill-rule:evenodd;stroke:none"/></g><g transform="translate(414.0118,443.8622)" id="g158"><path d="M 0,0 C -0.069,0.139 -0.015,0.355 0.046,0.487 0.381,1.197 1.249,1.451 1.967,1.263 2.708,1.07 3.465,0.355 3.569,-0.423 3.617,-0.782 3.495,-1.436 2.994,-1.289 2.83,-1.242 2.715,-1.082 2.575,-0.992 2.341,-0.841 2.066,-0.749 1.815,-0.628 1.49,-0.473 1.15,-0.345 0.799,-0.258 0.578,-0.203 0.118,-0.241 0,0" id="path160" style="fill:#ffffff;fill-opacity:1;fill-rule:evenodd;stroke:none"/></g><g transform="translate(423.0171,349.6153)" id="g162"><path d="m 0,0 c -15.616,0 -28.276,12.66 -28.276,28.276 0,15.617 12.66,28.277 28.276,28.277 10.123,0 18.999,-5.324 23.995,-13.32 l 14.836,0 C 32.822,58.822 17.708,69.888 0,69.888 c -22.981,0 -41.611,-18.63 -41.611,-41.612 0,-22.981 18.63,-41.611 41.611,-41.611 17.708,0 32.822,11.066 38.831,26.655 l -14.836,0 C 18.999,5.323 10.123,0 0,0" id="path164" style="fill:#000000;fill-opacity:1;fill-rule:nonzero;stroke:none"/></g></g></g></g></svg>