<svg xmlns="http://www.w3.org/2000/svg" xmlns:xlink="http://www.w3.org/1999/xlink" version="1.1" id="Layer_1" x="0px" y="0px" width="565.777px" height="609.818px" viewBox="0 0 565.777 609.818" enable-background="new 0 0 565.777 609.818" xml:space="preserve">
<path fill="#FFFFFF" d="M282.888,609.818c195.501-90.576,289.843-271.728,282.49-543.635C455.431,92.907,361.268,70.847,282.888,0  c-78.38,70.847-172.543,92.907-282.49,66.183C-6.955,338.09,87.387,519.242,282.888,609.818z"/>
<path fill="#00519E" d="M155.421,77.96c-45.21,10.592-94.528,10.186-146.733-1.158C8.582,82.876,8.51,88.922,8.51,94.908  c0,121.407,21.696,224.633,64.608,307.169c22.994,44.226,52.58,83.463,87.938,116.62c34.49,32.345,75.491,59.778,121.833,81.668  c46.341-21.89,87.343-49.323,121.833-81.668c35.357-33.157,64.943-72.394,87.937-116.62  c42.912-82.536,64.608-185.762,64.608-307.168c0-5.986-0.072-12.032-0.178-18.106c-52.205,11.344-101.523,11.75-146.733,1.158  c-46.006-10.779-88.847-33.203-127.467-66.642C244.268,44.757,201.427,67.182,155.421,77.96z"/>
<path fill="#E21B25" d="M159.301,94.52L159.301,94.52c-41.65,9.758-86.558,10.693-133.755,2.828  c0.29,117.54,21.353,217.428,62.663,296.883c22.106,42.518,50.53,80.22,84.481,112.06c31.277,29.332,68.36,54.533,110.199,75.104  c41.838-20.571,78.921-45.772,110.199-75.104c33.952-31.84,62.375-69.542,84.481-112.06  c41.311-79.456,62.373-179.344,62.663-296.883c-47.197,7.865-92.105,6.93-133.755-2.828  c-44.268-10.372-85.771-30.935-123.588-61.128C245.072,63.585,203.569,84.148,159.301,94.52z"/>
<path fill="#00519E" d="M34.183,107.207c1.417,111.902,22.076,207.14,61.57,283.102c6.497,12.496,13.561,24.558,21.149,36.175  V109.803C90.3,112.101,62.638,111.233,34.183,107.207z"/>
<path fill="#00519E" d="M282.888,44.164c-17.698,13.6-36.183,25.155-55.329,34.659v460.509  c17.253,11.808,35.732,22.668,55.329,32.507c19.596-9.838,38.076-20.699,55.329-32.507V78.823  C319.071,69.319,300.587,57.764,282.888,44.164z"/>
<path fill="#00519E" d="M531.594,107.207c-28.455,4.026-56.117,4.894-82.72,2.596v316.681c7.588-11.618,14.653-23.68,21.15-36.176  C509.517,314.347,530.177,219.108,531.594,107.207z"/>
<g>
	<path fill="#00519E" d="M131.094,279.796c0,83.699,68.094,151.795,151.794,151.795c83.701,0,151.797-68.096,151.797-151.795   c0-83.701-68.096-151.796-151.797-151.796C199.188,128,131.094,196.096,131.094,279.796z"/>
	<path fill="#FFFFFF" d="M147.775,279.796c0-74.504,60.612-135.115,135.113-135.115c74.503,0,135.115,60.611,135.115,135.115   c0,74.502-60.612,135.115-135.115,135.115C208.387,414.911,147.775,354.298,147.775,279.796z"/>
	<path fill="#00519E" d="M163.247,279.796c0,65.971,53.671,119.644,119.641,119.644c31.271,0,60.872-12.034,83.349-33.884   l-11.629-11.959c-19.344,18.804-44.814,29.16-71.72,29.16c-56.772,0-102.96-46.188-102.96-102.96   c0-56.774,46.188-102.962,102.96-102.962c26.917,0,52.397,10.364,71.743,29.182l11.631-11.957   c-22.478-21.864-52.088-33.906-83.374-33.906C216.918,160.153,163.247,213.825,163.247,279.796z"/>
	<path fill="#00519E" d="M201.206,279.796c0-43.494,34.173-79.149,77.079-81.547v-16.7c-52.109,2.414-93.76,45.553-93.76,98.248   c0,52.693,41.651,95.834,93.76,98.247v-16.701C235.379,358.944,201.206,323.29,201.206,279.796z"/>
	<path fill="#00519E" d="M381.254,279.796c0,11.802-2.081,23.354-6.183,34.336l-2.025,5.421H302.12v56.695   c-5.473,1.088-11.052,1.721-16.681,1.867c0,0,0-166.21,0-179.874v-16.746C338.501,182.858,381.254,226.413,381.254,279.796z    M364.573,279.796c0-38.407-26.679-70.62-62.453-79.303c0,15.635,0,89.217,0,102.379c11.891,0,50.137,0,59.079,0   C363.406,295.407,364.573,287.677,364.573,279.796z"/>
</g>
</svg>