<svg xmlns="http://www.w3.org/2000/svg" width="694" height="694" viewBox="0 0 694 694" fill="none">
<path d="M347 694C538.643 694 694 538.643 694 347C694 155.357 538.643 0 347 0C155.357 0 0 155.357 0 347C0 538.643 155.357 694 347 694Z" fill="black"/>
<path d="M347 541.32C454.32 541.32 541.32 454.32 541.32 347C541.32 239.68 454.32 152.68 347 152.68C239.68 152.68 152.68 239.68 152.68 347C152.68 454.32 239.68 541.32 347 541.32Z" fill="#0085CA"/>
<path d="M347 673.18C167.14 673.18 20.82 526.86 20.82 347C20.82 167.14 167.14 20.8199 347 20.8199C526.86 20.8199 673.18 167.14 673.18 347C673.18 526.86 526.86 673.18 347 673.18ZM666.24 347C666.24 171 523 27.7599 347 27.7599C171 27.7599 27.76 171 27.76 347C27.76 523 171 666.24 347 666.24C523 666.24 666.24 523 666.24 347Z" fill="white"/>
<path d="M347 569.08C224.54 569.08 124.92 469.46 124.92 347C124.92 224.54 224.54 124.92 347 124.92C469.46 124.92 569.08 224.54 569.08 347C569.08 469.46 469.46 569.08 347 569.08ZM562.14 347C562.14 228.37 465.63 131.86 347 131.86C228.37 131.86 131.86 228.37 131.86 347C131.86 465.63 228.37 562.14 347 562.14C465.63 562.14 562.14 465.63 562.14 347Z" fill="white"/>
<path d="M436.15 445.35L432 457.28C431.748 458.012 431.345 458.683 430.816 459.248C430.287 459.814 429.644 460.261 428.93 460.56C421.66 463.56 396.73 472.12 349.53 472.12C301.72 472.12 272.96 462.72 264.81 459.63C264.058 459.348 263.379 458.902 262.822 458.324C262.265 457.746 261.844 457.051 261.59 456.29L257.59 444.62C257.481 444.311 257.459 443.978 257.526 443.657C257.593 443.337 257.747 443.04 257.971 442.801C258.194 442.562 258.48 442.389 258.795 442.3C259.111 442.212 259.444 442.212 259.76 442.3C288.198 449.993 317.54 453.834 347 453.72C376.336 453.826 405.567 450.224 434 443C434.318 442.913 434.653 442.916 434.969 443.007C435.286 443.099 435.57 443.275 435.793 443.518C436.015 443.761 436.166 444.061 436.229 444.384C436.292 444.707 436.265 445.041 436.15 445.35V445.35ZM347 439.84C394.16 439.84 430.39 429.74 440.22 426.71C441.042 426.454 441.793 426.007 442.409 425.405C443.026 424.804 443.492 424.066 443.77 423.25L493 280.59C492.786 279.911 492.435 279.283 491.969 278.745C491.503 278.207 490.931 277.769 490.29 277.46C489.143 276.903 487.828 276.8 486.608 277.17C485.388 277.541 484.353 278.359 483.71 279.46C472.79 297.94 461.81 303.63 458.19 305.46L458.07 305.52C456.963 306.1 456.076 307.028 455.547 308.161C455.017 309.293 454.875 310.568 455.14 311.79C455.14 311.79 455.14 311.9 455.14 311.95V312.09C455.34 312.97 455.61 314.26 455.85 315.91C456.01 317.34 456.17 319.11 456.32 321.08C456.666 325.262 456.525 329.47 455.9 333.62C445.62 339.97 431.73 346.11 420.72 342.16C412 339 405.3 325.24 402.9 296.67C405.688 291.244 409.411 286.352 413.9 282.22L414 282.13C414.917 281.278 415.531 280.15 415.748 278.917C415.965 277.684 415.772 276.414 415.2 275.3C415.176 275.252 415.156 275.202 415.14 275.15L415.07 275.02C414.66 274.23 414.07 273.02 413.4 271.52C412.88 270.19 412.27 268.52 411.62 266.65C409.76 260.65 408.16 251.74 409.05 239.2C409.181 237.925 408.857 236.645 408.133 235.587C407.41 234.529 406.335 233.761 405.1 233.42C403.818 233.115 402.467 233.317 401.331 233.984C400.194 234.651 399.359 235.732 399 237C393.25 257.75 384.12 266.17 381.12 269L381.02 269.09C380.101 269.941 379.486 271.069 379.269 272.303C379.053 273.536 379.246 274.807 379.82 275.92L379.88 276.07L379.95 276.2C380.36 276.99 380.95 278.2 381.62 279.7C382.14 281.03 382.75 282.7 383.4 284.57C384.439 287.962 385.178 291.439 385.61 294.96C371 322.15 360.31 331.64 347 331.72C333.69 331.64 323 322.15 308.37 294.93C308.802 291.409 309.541 287.932 310.58 284.54C311.23 282.67 311.84 281 312.36 279.67C313.02 278.14 313.62 276.96 314.03 276.17L314.1 276.04L314.16 275.89C314.734 274.777 314.927 273.506 314.71 272.273C314.494 271.039 313.879 269.911 312.96 269.06L312.86 268.97C309.86 266.19 300.73 257.77 294.98 236.97C294.625 235.698 293.792 234.613 292.655 233.942C291.518 233.271 290.165 233.066 288.88 233.37C287.644 233.711 286.57 234.479 285.847 235.537C285.123 236.595 284.799 237.875 284.93 239.15C285.83 251.69 284.22 260.62 282.36 266.6C281.71 268.46 281.1 270.14 280.58 271.47C279.92 273 279.32 274.18 278.91 274.97L278.84 275.1C278.824 275.152 278.804 275.202 278.78 275.25C278.208 276.364 278.015 277.634 278.232 278.867C278.449 280.1 279.062 281.228 279.98 282.08L280.08 282.17C284.566 286.304 288.289 291.195 291.08 296.62C288.7 325.24 282 339 273.26 342.16C262.26 346.11 248.36 339.97 238.08 333.62C237.452 329.471 237.315 325.262 237.67 321.08C237.81 319.08 237.97 317.34 238.13 315.91C238.37 314.26 238.64 312.97 238.84 312.09V311.95C238.84 311.9 238.84 311.84 238.84 311.79C239.105 310.568 238.962 309.293 238.433 308.161C237.904 307.028 237.017 306.1 235.91 305.52L235.79 305.46C232.18 303.59 221.19 297.9 210.27 279.46C209.627 278.359 208.592 277.541 207.372 277.17C206.152 276.8 204.837 276.903 203.69 277.46C203.049 277.769 202.477 278.207 202.011 278.745C201.545 279.283 201.194 279.911 200.98 280.59L249.84 422.27C250.114 423.068 250.569 423.793 251.169 424.386C251.769 424.979 252.498 425.426 253.3 425.69C263.14 428.91 299.87 439.84 347 439.84ZM277.09 390.84C279.438 390.84 281.733 391.536 283.685 392.84C285.637 394.145 287.158 395.999 288.056 398.168C288.955 400.337 289.19 402.723 288.732 405.026C288.274 407.328 287.143 409.443 285.483 411.103C283.823 412.763 281.708 413.894 279.406 414.352C277.103 414.81 274.716 414.575 272.548 413.676C270.379 412.778 268.525 411.257 267.22 409.305C265.916 407.353 265.22 405.058 265.22 402.71C265.215 401.147 265.518 399.599 266.112 398.154C266.706 396.708 267.579 395.395 268.682 394.287C269.784 393.18 271.095 392.301 272.538 391.701C273.98 391.101 275.527 390.791 277.09 390.79V390.84ZM416.91 390.84C419.258 390.848 421.551 391.552 423.499 392.863C425.447 394.175 426.962 396.034 427.853 398.207C428.743 400.379 428.97 402.767 428.503 405.069C428.037 407.37 426.898 409.481 425.231 411.135C423.565 412.789 421.445 413.912 419.14 414.361C416.835 414.81 414.449 414.565 412.284 413.658C410.118 412.751 408.27 411.222 406.973 409.264C405.677 407.306 404.99 405.008 405 402.66C405.001 401.098 405.311 399.552 405.91 398.11C406.51 396.668 407.387 395.358 408.494 394.255C409.6 393.153 410.913 392.279 412.357 391.685C413.801 391.09 415.348 390.786 416.91 390.79V390.84ZM323.69 396.35C326.038 396.348 328.334 397.043 330.287 398.346C332.241 399.649 333.764 401.502 334.664 403.671C335.564 405.839 335.8 408.226 335.343 410.53C334.886 412.833 333.757 414.949 332.097 416.61C330.437 418.271 328.322 419.402 326.019 419.861C323.717 420.32 321.329 420.086 319.16 419.187C316.99 418.289 315.136 416.768 313.831 414.816C312.526 412.863 311.83 410.568 311.83 408.22C311.826 406.659 312.13 405.112 312.724 403.668C313.317 402.224 314.19 400.911 315.291 399.804C316.393 398.697 317.701 397.818 319.142 397.217C320.583 396.615 322.129 396.304 323.69 396.3V396.35ZM370.3 396.35C372.648 396.35 374.943 397.046 376.895 398.35C378.847 399.655 380.368 401.509 381.266 403.678C382.165 405.847 382.4 408.233 381.942 410.536C381.484 412.838 380.353 414.953 378.693 416.613C377.033 418.273 374.918 419.404 372.616 419.862C370.313 420.32 367.926 420.085 365.758 419.186C363.589 418.288 361.735 416.767 360.43 414.815C359.126 412.863 358.43 410.568 358.43 408.22C358.425 406.657 358.728 405.109 359.322 403.664C359.916 402.218 360.789 400.905 361.892 399.797C362.994 398.69 364.305 397.811 365.748 397.211C367.19 396.611 368.737 396.301 370.3 396.3V396.35Z" fill="white"/>
<path d="M154 179.41C154.35 184.88 152.32 191.58 147.44 197.24C140.24 205.6 127.95 205.62 118.54 197.51C108.86 189.17 107.41 176.74 114.79 168.16C118.427 164.006 123.156 160.954 128.44 159.35L128.52 159.14L120.32 152.07C116.372 154.487 112.839 157.527 109.86 161.07C97.86 175.07 97.1 194.23 111.86 206.94C124.51 217.84 141.86 217.29 153.43 203.87C157.774 199.066 160.778 193.203 162.14 186.87L154.21 179.28L154 179.41Z" fill="white"/>
<path d="M199.36 135.22L182.76 115.45C178.1 109.88 175.76 105.92 173.76 100.77L161.91 110.68C166.63 113.54 170.11 116.59 174.77 122.16L180.08 128.51L161.9 143.71L156.59 137.37C151.93 131.8 149.54 127.83 147.59 122.68L135.74 132.59C140.46 135.46 143.94 138.51 148.6 144.08L164.86 163.51C169.52 169.08 171.91 173.04 173.86 178.2L185.32 167.87C180.6 165 177.12 161.95 172.46 156.38L167.46 150.38L185.65 135.18L190.74 141.29C195.4 146.86 197.74 150.83 199.74 155.98L212.23 146.75C207.5 143.84 204 140.79 199.36 135.22Z" fill="white"/>
<path d="M306.6 83.0001C312.83 78.2601 315.69 72.4401 314.42 65.4301C312.76 56.2201 303.64 49.8201 288.21 52.6001L273.85 55.1901C276.56 60.0201 278.09 64.3901 279.38 71.5401L283.87 96.4701C285.16 103.61 285.26 108.24 284.4 113.71L299.76 110.16C297.05 105.33 295.52 100.97 294.23 93.8201L292.56 84.5001C299.09 91.2901 304.91 96.9601 310.22 101.5C314.05 104.72 317.34 106.63 319.55 107.04L329.48 106.04L329.43 105.75C319.93 97.1901 313.2 90.9201 306.6 83.0001ZM292.37 83.43L288 59.1701C295.64 57.7901 302.54 61.2701 303.85 68.5501C304.85 74.0601 301.19 79.5801 292.37 83.3901V83.43Z" fill="white"/>
<path d="M354.81 98.4101L356.18 64.0001C356.47 56.7501 357.38 52.2101 359.4 47.0601L343.66 46.4301C345.27 51.7301 345.81 56.3201 345.52 63.5801L344.52 88.5801C344.23 95.8301 343.33 100.37 341.3 105.58L372.03 106.65L377.86 93.9401L377.72 93.79C372.63 96.07 362.23 98.1301 354.81 98.4101Z" fill="white"/>
<path d="M431.09 58C414 53 396.9 62.41 392.17 78.65C387.82 93.57 395.22 111.01 413.76 116.41C431.05 121.41 448.14 112.89 453.22 95.46C458.3 78.03 447.75 62.9 431.09 58ZM441.21 95C438.1 105.67 428.54 112.26 418.15 109.23C405.6 105.58 400.6 91.86 404.21 79.45C407.64 67.67 417.66 62.65 426.86 65.33C438.71 68.73 444.9 82.26 441.21 95Z" fill="white"/>
<path d="M506.89 106.14L517 98.47L476.6 75.42L467.33 84.3501L467.39 84.55C474.008 84.7834 480.464 86.656 486.18 90L469.5 119.28C465.9 125.59 463.07 129.28 458.84 132.84L472.53 140.64C473.53 135.21 475.18 130.87 478.77 124.56L495.45 95.28C501.1 98.58 504.46 101.91 506.89 106.14Z" fill="white"/>
<path d="M554.27 145.54L565.81 140.17L531.14 109.17L520.2 115.94V116.15C526.623 117.768 532.541 120.961 537.42 125.44L515 150.4C510.16 155.81 506.62 158.77 501.72 161.4L513.46 171.91C515.6 166.81 518.11 162.91 522.95 157.51L545.42 132.51C550.2 136.92 552.78 140.89 554.27 145.54Z" fill="white"/>
<path d="M263.29 106.69L238 83.25C234.097 79.8135 230.46 76.0861 227.12 72.1L218.77 75.92C219.525 81.1078 219.86 86.3482 219.77 91.59V126.59C219.77 134.01 219.23 138.26 218.09 142.45L218.18 142.65L232.72 134.31C232.365 133.755 232.047 133.177 231.77 132.58C230.83 130.51 230.36 127.83 230.19 123.65L254.11 112.72C257.28 115.8 258.87 117.72 259.82 119.83C260.108 120.427 260.317 121.059 260.44 121.71L276.08 115.95L275.99 115.75C271.3 113.427 267.013 110.368 263.29 106.69ZM247.41 106.25L230 114.2L229.57 89.27L247.41 106.25Z" fill="white"/>
<path d="M576.62 153.14C573.54 157.73 570.33 161.07 564.54 165.44L544.65 180.49C538.85 184.87 534.77 187.04 529.5 188.75L553.62 221.45L566.62 218.06V217.85C559.86 213.96 553.62 208.27 546.89 199.09L543.62 194.6L558.22 183.6L561.57 188.03C565.32 193.36 568.23 198.65 569.04 202.14L580.84 200.77L564.34 179L578.64 168.17L582.07 172.57C586.056 177.785 588.65 183.927 589.61 190.42L601.7 187.75L576.62 153.14Z" fill="white"/>
<path d="M125.21 497.59L136.37 489.9C138.83 493.46 140.79 497.67 141.05 500.5L149.28 499.5L135.33 479.26C132.886 482.569 129.856 485.403 126.39 487.62L111.58 497.82C108.276 500.277 104.547 502.104 100.58 503.21L106.92 512.42C109.368 509.111 112.402 506.277 115.87 504.06L120.75 500.7C123.38 504.52 124.75 507.47 124.97 510.18L133.07 509.04L125.21 497.59Z" fill="white"/>
<path d="M168.73 520.47C159.92 511.42 146.07 511.24 137.47 519.62C129.57 527.32 128.04 540.68 137.61 550.5C146.53 559.66 160.08 560.34 169.31 551.36C178.54 542.38 177.33 529.3 168.73 520.47ZM162.08 546.81C156.43 552.32 148.22 553.05 142.86 547.54C136.39 540.9 138.09 530.68 144.66 524.28C150.9 518.19 158.84 518.59 163.59 523.47C169.7 529.74 168.8 540.27 162.08 546.81V546.81Z" fill="white"/>
<path d="M208.75 553.87C198.26 546.87 184.68 549.52 177.99 559.5C171.86 568.66 173.12 582.03 184.51 589.67C195.12 596.78 208.51 594.67 215.69 583.95C222.87 573.23 219 560.72 208.75 553.87ZM207.68 581C203.29 587.55 195.41 590 189.03 585.69C181.33 580.53 180.88 570.18 186.03 562.56C190.88 555.33 198.73 554.07 204.38 557.86C211.61 562.74 212.9 573.22 207.68 581Z" fill="white"/>
<path d="M234.29 570L228.44 577L228.49 577.13C233.181 576.783 237.884 577.604 242.18 579.52L232.45 602C230.975 605.845 228.783 609.374 225.99 612.4L236.25 616.85C236.569 612.74 237.64 608.723 239.41 605L249.14 582.53C252.678 583.926 255.761 586.272 258.05 589.31L264.62 583.1L234.29 570Z" fill="white"/>
<path d="M369.33 632.07L367.33 607.73C366.847 603.643 367.115 599.501 368.12 595.51L356.98 596.44C358.632 600.21 359.581 604.249 359.78 608.36L361.28 626.29C361.763 630.377 361.495 634.519 360.49 638.51L382.11 636.7L385.22 626.87L385.11 626.78C381.69 628.87 374.54 631.23 369.33 632.07Z" fill="white"/>
<path d="M408.63 626.26L403.23 602.43C402.183 598.45 401.872 594.312 402.31 590.22L391.41 592.69C393.566 596.193 395.067 600.06 395.84 604.1L399.84 621.65C400.885 625.631 401.193 629.769 400.75 633.86L421.91 629.06L423.63 618.9L423.5 618.82C420.41 621.37 413.66 624.69 408.63 626.26Z" fill="white"/>
<path d="M486.26 591.76C484.471 596.151 481.078 599.698 476.77 601.68C469.6 605.2 461.46 601.83 457.59 593.92C453.59 585.77 456.22 577.19 463.59 573.59C467.182 571.859 471.182 571.15 475.15 571.54L475.27 571.42L471.89 564.52C468.574 565.028 465.361 566.061 462.37 567.58C450.37 573.45 444.37 585.88 450.43 598.28C455.64 608.93 467.27 613.34 478.8 607.69C483.058 605.734 486.737 602.709 489.48 598.91L486.42 591.74L486.26 591.76Z" fill="white"/>
<path d="M521.41 568.87C519.55 572.4 514.59 578.06 510.54 581.43L496.42 561.5C493.927 558.225 492.056 554.52 490.9 550.57L481.77 557C485.112 559.402 487.983 562.399 490.24 565.84L500.64 580.51C503.129 583.788 505 587.492 506.16 591.44L523.87 578.9L521.55 568.9L521.41 568.87Z" fill="white"/>
<path d="M540.51 523.45C537.541 520.602 535.121 517.233 533.37 513.51L525.37 521.3C529.042 523.159 532.34 525.678 535.1 528.73L545.47 539.41C546.325 540.258 547 541.269 547.454 542.384C547.909 543.499 548.134 544.694 548.115 545.898C548.096 547.101 547.835 548.289 547.346 549.389C546.857 550.489 546.151 551.479 545.27 552.3C541.84 555.64 537.27 555.6 532.44 550.62L522.79 540.62C519.821 537.772 517.401 534.403 515.65 530.68L507.65 538.47C511.322 540.329 514.62 542.848 517.38 545.9L526.96 555.76C534.6 563.64 541.87 564.55 547.78 558.81C550.52 556.15 552.36 552.28 553.35 547.02C554.386 547.985 555.288 549.084 556.03 550.29L562.8 543.73C559.128 541.871 555.83 539.352 553.07 536.3L540.51 523.45Z" fill="white"/>
<path d="M288 589.52L273.81 585.66C274.081 589.767 273.593 593.889 272.37 597.82L267.65 615.19C266.703 619.199 265.032 623.001 262.72 626.41L277 630.3C285.21 632.53 293.35 629.72 295.24 622.81C296.44 618.38 294.86 614.74 290.81 610.59C294.61 609.38 297.4 606.99 298.31 603.66C300 597.59 296 591.69 288 589.52ZM287.67 620.79C286.58 624.79 282.02 627.22 276.05 625.6L272.9 624.74L277.21 609C286.12 611.45 288.9 616.39 287.7 620.79H287.67ZM290.84 602C289.92 605.38 284.84 607 278.26 605.21L281.79 592.21L284.93 593.07C289.16 594.21 291.87 598.2 290.84 602Z" fill="white"/>
<path d="M584.18 497C580.51 494.24 576.55 494.36 571.18 496.6C571.46 492.6 570.26 489.14 567.5 487.06C562.5 483.29 555.5 484.83 550.55 491.43L541.72 503.19C545.646 504.448 549.307 506.417 552.52 509L566.9 519.8C570.28 522.155 573.198 525.11 575.51 528.52L584.41 516.68C589.51 509.87 589.91 501.27 584.18 497ZM550.76 498.22L552.76 495.61C555.39 492.11 560.1 491.07 563.23 493.42C566.02 495.52 565.66 500.84 561.55 506.3L550.76 498.22ZM579.68 515.87L577.68 518.47L564.68 508.69C570.23 501.3 575.84 500.55 579.49 503.29C582.83 505.75 583.4 510.89 579.68 515.84V515.87Z" fill="white"/>
<path d="M334.32 606.56C333.052 603.081 332.049 599.511 331.32 595.88L324.69 595.37C323.348 598.856 321.719 602.224 319.82 605.44L308 626.51C306.255 629.903 304.029 633.025 301.39 635.78V635.93L312.9 636.82C312.87 636.354 312.87 635.886 312.9 635.42C313.04 633.62 313.82 631.56 315.51 628.42L315.74 627.99L333.88 629.38L333.98 629.69C335.19 633.41 335.61 635.41 335.47 637.2C335.443 637.669 335.356 638.133 335.21 638.58L346.88 639.48V639.33C344.714 636.283 343.052 632.906 341.96 629.33L334.32 606.56ZM318.9 622L326.71 607.34H327.02L331.92 622.96L318.9 622Z" fill="white"/>
<path d="M603 260.88C604.321 260.466 605.752 260.592 606.98 261.232C608.207 261.871 609.132 262.971 609.55 264.29C609.766 264.944 609.849 265.634 609.794 266.32C609.739 267.007 609.546 267.675 609.229 268.285C608.911 268.896 608.473 269.437 607.943 269.876C607.413 270.314 606.799 270.642 606.14 270.84C605.494 271.057 604.81 271.14 604.131 271.083C603.452 271.027 602.791 270.831 602.19 270.51C601.57 270.2 601.02 269.767 600.573 269.237C600.127 268.708 599.792 268.093 599.59 267.43C599.192 266.109 599.326 264.685 599.963 263.462C600.6 262.238 601.69 261.312 603 260.88V260.88Z" fill="#0085CA"/>
<path d="M602 285.53L613.85 294.68C616.32 296.61 617.63 297.05 619.3 296.68C621.16 296.31 622.17 294.68 621.72 292.38C621.32 290.38 619.8 289.07 617.95 289.44C617.374 289.566 616.83 289.808 616.35 290.15L613.92 283.82C614.796 283.247 615.774 282.847 616.8 282.64C617.903 282.429 619.04 282.47 620.126 282.759C621.211 283.048 622.218 283.578 623.07 284.31C625.168 286.097 626.546 288.584 626.95 291.31C628.21 297.7 625.86 302.11 621.27 303.02C617.93 303.69 615.27 302.66 611.4 299.73L605.12 295L607.27 305.89L601.89 306.96L597.82 286.38L602 285.53Z" fill="#0085CA"/>
<path d="M619 343.66C617.137 343.839 615.256 343.639 613.473 343.072C611.689 342.504 610.038 341.582 608.62 340.36C606.003 337.773 604.445 334.304 604.249 330.63C604.053 326.956 605.233 323.34 607.56 320.49C609.98 317.81 613.31 316.35 617.56 316.13C621.81 315.91 625.3 317.01 627.98 319.43C630.589 322.026 632.136 325.501 632.321 329.177C632.506 332.853 631.315 336.465 628.98 339.31C627.694 340.669 626.148 341.755 624.433 342.502C622.718 343.249 620.871 343.643 619 343.66V343.66ZM610 330.32C610.011 331.273 610.242 332.211 610.673 333.061C611.105 333.91 611.727 334.649 612.49 335.22C614.278 336.456 616.449 337.009 618.61 336.78C620.807 336.786 622.933 336.009 624.61 334.59C625.298 333.938 625.83 333.139 626.166 332.252C626.502 331.366 626.633 330.414 626.55 329.47C626.542 328.526 626.317 327.597 625.892 326.754C625.467 325.911 624.854 325.178 624.1 324.61C622.324 323.363 620.16 322.792 618 323C615.821 322.997 613.716 323.79 612.08 325.23C611.368 325.861 610.814 326.65 610.463 327.534C610.113 328.418 609.974 329.373 610.06 330.32H610Z" fill="#0085CA"/>
<path d="M609 355.57L618 367.51C619.88 370.04 621 370.8 622.72 370.92C624.61 371.05 626.02 369.75 626.18 367.42C626.33 365.42 625.18 363.72 623.32 363.59C622.731 363.553 622.142 363.641 621.59 363.85L621 357.1C621.993 356.78 623.039 356.655 624.08 356.73C625.201 356.815 626.288 357.152 627.26 357.714C628.233 358.277 629.067 359.051 629.7 359.98C631.257 362.268 631.929 365.044 631.59 367.79C631.13 374.29 627.7 377.92 623.04 377.59C619.65 377.35 617.33 375.64 614.38 371.81L609.6 365.5L608.82 376.57L603.35 376.18L604.82 355.26L609 355.57Z" fill="#0085CA"/>
<path d="M605.74 389.39L613.18 402.39C614.71 405.13 615.75 406.03 617.42 406.39C619.27 406.76 620.84 405.65 621.3 403.39C621.7 401.39 620.8 399.6 618.95 399.22C618.373 399.096 617.777 399.096 617.2 399.22L617.39 392.44C618.417 392.245 619.472 392.245 620.5 392.44C621.604 392.677 622.64 393.159 623.532 393.852C624.423 394.544 625.147 395.429 625.65 396.44C626.898 398.914 627.207 401.756 626.52 404.44C625.24 410.83 621.37 413.99 616.79 413.06C613.46 412.39 611.38 410.4 608.95 406.22L605 399.31L602.81 410.19L597.43 409.11L601.57 388.55L605.74 389.39Z" fill="#0085CA"/>
<path d="M605.8 424.46C607.116 424.884 608.211 425.813 608.844 427.042C609.478 428.272 609.598 429.702 609.18 431.02C608.979 431.679 608.648 432.291 608.207 432.82C607.765 433.349 607.222 433.784 606.61 434.099C605.997 434.414 605.327 434.603 604.64 434.655C603.953 434.707 603.263 434.62 602.61 434.4C601.294 433.976 600.2 433.047 599.568 431.817C598.936 430.587 598.818 429.157 599.24 427.84C599.438 427.187 599.771 426.582 600.217 426.065C600.663 425.548 601.213 425.131 601.83 424.84C602.429 424.504 603.091 424.296 603.775 424.231C604.459 424.165 605.148 424.243 605.8 424.46V424.46Z" fill="#0085CA"/>
<path d="M102.09 428.79L76 435.88L74.23 429.35L91.23 416.45L70 413.91L68.22 407.38L94.34 400.29L95.94 406.18L81.65 410.06L85.91 410.27L97.47 411.82L98.95 417.27L89.76 424.45L86.19 426.78L100.48 422.9L102.09 428.79Z" fill="#0085CA"/>
<path d="M93 390.82L66.27 395.09L65.27 388.9L92 384.63L93 390.82Z" fill="#0085CA"/>
<path d="M90.48 374.94L63.48 376.63L63.09 370.38L77.8 359.54C78.4388 359.071 79.1068 358.644 79.8 358.26L62.36 359.34L61.98 353.25L88.98 351.56L89.37 357.81L74.6 368.65C73.9417 369.124 73.2536 369.555 72.54 369.94L90.1 368.85L90.48 374.94Z" fill="#0085CA"/>
<path d="M67.5 343L62.02 342.7L63.21 320.48L68.69 320.77L68.26 328.77L89.79 329.92L89.46 336.17L67.93 335L67.5 343Z" fill="#0085CA"/>
<path d="M91.1 314.54L64.4 310.13L67.62 290.64L73.03 291.53L70.84 304.84L75.68 305.64L77.68 293.4L82.94 294.27L80.94 306.51L86.7 307.46L88.92 294L94.34 294.9L91.1 314.54Z" fill="#0085CA"/>
<path d="M96.07 286.87L70.07 279.4L72.48 271C73.72 266.66 75.84 263.48 78.8 261.44C81.76 259.4 85.41 259.03 89.64 260.24C93.87 261.45 96.73 263.72 98.16 266.99C99.59 270.26 99.74 274.12 98.49 278.47L96.07 286.87ZM93.21 276.35C94.63 271.41 92.7 267.64 87.9 266.26C83.1 264.88 79.47 267.06 78.05 272L77.21 274.94L92.37 279.29L93.21 276.35Z" fill="#0085CA"/>
</svg>