<svg xmlns="http://www.w3.org/2000/svg" height="347.174022" viewBox="0 0 302.13333 364.16" width="288.039985"><g transform="matrix(.13333333 0 0 -.13333333 0 364.16)"><path d="m1135.03 2730.82c368.89.01 737.78.01 1106.68.01 3.32 0 6.68-.37 9.93.08 11.41 1.58 15.13-3.34 14.22-14.46-.86-10.53-.16-21.18-.17-31.77-.02-451.69.31-903.38-.3-1355.07-.18-128.92-23.73-253.71-75.43-372.411-14.12-32.429-31.34-63.32-48.15-94.48-23.94-44.387-51.57-85.86-81.57-125.918-67.31-89.871-146.34-168.731-230.94-242.211-87.17-75.711-180.24-143.602-276.55-207.102-132.23-87.187-269.63-165.527-410.01-238.7497-7.49-3.8985-12.7-3.5274-19.99.293-174.641 91.3477-345.113 189.6097-505.574 304.4567-34.906 24.992-69.106 51-103.028 77.321-91.878 71.293-176.804 150.121-253.277 237.8-50.476 57.871-95.258 119.86-133.848 186.442-56.8667 98.129-94.7378 203.009-113.2847 314.639-9.87111 59.43-13.6133 119.56-13.589862 179.93.175781 445.06.054687 890.12.242187 1335.19.007813 14.91-2.128905 37.04 3.515625 43.58 4.94922 4.45 27.83205 2.34 42.30465 2.34 362.9371.09 725.8751.07 1088.8191.09" fill="#fff"/><path d="m1134.67 2688.06c352.69 0 705.38 0 1058.06-.01 4.78 0 9.55-.13 14.33-.15 5.86-.03 8.74-3.31 9.12-8.8.33-4.75.23-9.54.23-14.31-.01-431.83.15-863.65-.19-1295.47-.07-85.84-5.72-171.14-26.34-255.16-21.56-87.88-54.98-170.43-102.07-247.629-29.13-47.769-61.33-93.34-96.69-136.59-96.62-118.14-211.33-216.793-332.99-307.992-160.93-120.648-333.86-221.808-510.88-316.461-9.98-5.316-17.51-5.9177-27.77-.468-165.8 88.21-327.589 183.019-479.941 293.152-44.672 32.297-88.566 65.777-130.711 101.398-59.113 49.981-117.367 100.801-170.332 157.512-61.601 65.938-116.027 137.129-163.109 214.098-50.535 82.621-84.555 171.75-104.9378 266.02-10.1953 47.16-17.1211 95.07-18.0547 143.5-6.3789 330.12-1.3398 660.29-2.7539 990.44-.5586 130.98-.1015 261.96-.1093 392.93 0 3.42.2226 6.84-.0547 10.23-.9024 11 4.7656 14.26 14.8476 13.9 12.9453-.47 25.918-.13 38.8828-.13 343.816 0 687.641 0 1031.463-.01" fill="#100f0d"/><path d="m776.461 936.109c.871-.718 1.766-1.398 2.574-2.168 0 0-.316-.691-.492-1.05-.684 1.05-1.367 2.078-2.051 3.121z" fill="#12110f"/><path d="m888.953 1140.39c.527 18.65 2.086 39.04 7.492 58.96 1.996 7.34 4.379 8.14 9.707 2.06 16.543-18.92 33.356-37.61 50.457-56.02 4.446-4.78 5.028-7.73.329-12.78-17.563-18.89-34.793-38.1-51.868-57.43-5.539-6.28-6.914-2.28-8.402 2.6-6.039 19.8-7.031 40.26-7.715 62.61" fill="#fafafa"/><path d="m1379.83 1137.71c.42-19.86-1.85-39.38-7.24-58.52-1.4-4.96-1.49-11.81-8.65-3.84-17.16 19.11-34.29 38.26-51.77 57.07-4.7 5.05-4.07 8.26.37 13.03 17.46 18.83 34.55 38 51.69 57.13 4.72 5.27 6.4 4.12 8.19-2.39 5.62-20.5 7.91-41.31 7.41-62.48" fill="#fafafa"/><g fill="#fff"><path d="m285.824 2187.73c12.242 0 18.828 6.59 18.828 18.83v88.46c0 12.24-6.586 18.83-18.828 18.83h-46.586v-126.12zm82.821 5.65c0-31.53-11.762-52.24-34.348-62.11l32.465-123.29c1.418-5.65-1.407-8.48-6.586-8.48h-48.938c-4.707 0-7.058 2.36-7.996 6.6l-31.535 119.52h-32.469v-118.58c0-4.71-2.816-7.54-7.531-7.54h-48.934c-4.703 0-7.531 2.83-7.531 7.54v361.39c0 4.71 2.828 7.53 7.531 7.53h118.11c44.234 0 67.762-23.52 67.762-67.75z"/><path d="m603.457 2321.38c0-4.71-1.887-8-7.531-8h-117.641v-94.12h89.879c4.707 0 7.527-2.82 7.527-8v-46.58c0-5.18-2.82-8-7.527-8h-89.879v-95.05h117.641c5.644 0 7.531-2.36 7.531-7.54v-47.05c0-4.71-1.887-7.54-7.531-7.54h-173.168c-4.235 0-7.063 2.83-7.063 7.54v361.39c0 4.71 2.828 7.53 7.063 7.53h173.168c5.644 0 7.531-2.82 7.531-7.53z"/><path d="m753.094 2061.63c12.238 0 18.824 6.1 18.824 18.82v214.1c0 12.71-6.586 19.3-18.824 19.3h-43.293v-252.22zm-107.289 306.8c0 4.71 2.351 7.53 7.531 7.53h112.937c44.231 0 67.758-24 67.758-68.23v-240.46c0-44.23-23.527-67.77-67.758-67.77h-112.937c-5.18 0-7.531 2.36-7.531 7.54z"/><path d="m1119.2 2375.96c44.24 0 67.76-23.52 67.76-67.75v-49.89c0-4.71-2.35-7.53-7.53-7.53h-48.93c-4.71 0-7.53 2.82-7.53 7.53v36.7c0 12.24-6.13 18.83-18.82 18.83h-22.59c-11.77 0-18.83-6.59-18.83-18.83v-64.93l112-36.71c7.99-3.29 12.23-8.47 12.23-17.41v-108.7c0-44.23-23.52-67.77-67.76-67.77h-52.7c-43.76 0-67.762 23.54-67.762 67.77v49.41c0 5.17 2.822 7.53 7.532 7.53h48.93c5.18 0 7.53-2.36 7.53-7.53v-36.23c0-12.72 7.06-18.82 18.83-18.82h22.59c12.23 0 18.82 6.1 18.82 18.82v62.58l-111.53 36.71c-8.47 2.81-12.702 8.47-12.702 17.4v111.07c0 44.23 24.002 67.75 67.762 67.75z"/><path d="m1395.9 2375.96c5.17 0 7.53-2.82 7.53-7.53v-47.05c0-4.71-2.36-7.53-7.53-7.53h-54.58v-306.81c0-5.18-2.36-7.54-7.53-7.54h-48.94c-4.7 0-7.53 2.36-7.53 7.54v306.81h-54.59c-4.7 0-7.53 2.82-7.53 7.53v47.05c0 4.71 2.83 7.53 7.53 7.53z"/><path d="m1513.08 2293.61-30.12-164.23h60.23zm62.57-294.11c-4.23 0-6.59 2.36-7.53 6.6l-13.17 68.7h-83.76l-12.7-68.7c-.95-4.24-3.31-6.6-7.53-6.6h-50.36c-5.17 0-7.52 2.83-6.12 8.01l78.12 361.87c.94 4.71 3.77 6.58 8 6.58h65.4c4.24 0 7.07-1.87 8-6.58l78.13-361.87c.94-5.18-.95-8.01-6.59-8.01z"/><path d="m1785.06 2187.73c12.24 0 18.83 6.59 18.83 18.83v88.46c0 12.24-6.59 18.83-18.83 18.83h-46.58v-126.12zm82.82 5.65c0-31.53-11.76-52.24-34.35-62.11l32.47-123.29c1.41-5.65-1.41-8.48-6.59-8.48h-48.93c-4.72 0-7.06 2.36-8.01 6.6l-31.52 119.52h-32.47v-118.58c0-4.71-2.83-7.54-7.53-7.54h-48.94c-4.71 0-7.53 2.83-7.53 7.54v361.39c0 4.71 2.82 7.53 7.53 7.53h118.11c44.23 0 67.76-23.52 67.76-67.75z"/><path d="m2035.4 2375.96c44.23 0 67.76-23.52 67.76-67.75v-49.89c0-4.71-2.35-7.53-7.53-7.53h-48.94c-4.7 0-7.53 2.82-7.53 7.53v36.7c0 12.24-6.11 18.83-18.82 18.83h-22.59c-11.76 0-18.83-6.59-18.83-18.83v-64.93l112.01-36.71c7.99-3.29 12.23-8.47 12.23-17.41v-108.7c0-44.23-23.53-67.77-67.76-67.77h-52.71c-43.76 0-67.76 23.54-67.76 67.77v49.41c0 5.17 2.82 7.53 7.53 7.53h48.94c5.18 0 7.52-2.36 7.52-7.53v-36.23c0-12.72 7.07-18.82 18.83-18.82h22.59c12.24 0 18.82 6.1 18.82 18.82v62.58l-111.52 36.71c-8.47 2.81-12.71 8.47-12.71 17.4v111.07c0 44.23 24 67.75 67.76 67.75z"/><path d="m1131.39 1927.71h941.68c3.97 0 7.94.05 11.91-.01 15.67-.24 15.84-.25 15.85-16.55.06-80.13.14-160.26-.02-240.38-.23-115.88.16-231.77-1.25-347.63-1.42-116.89-25.21-229.01-76.72-334.62-45.33-92.942-106.74-174.461-176.97-249.739-99.86-107.031-213.91-197.172-333.99-280.043-117.91-81.379-241.35-153.648-367.18-221.957-8.03-4.359-14.42-5.949-23.45-1.031-173.512 94.512-342.5 196.102-498.418 318.09-108.285 84.742-208.285 177.949-291.191 288.398-74.649 99.461-127.914 208.672-151.727 331.362-12.016 61.92-15.965 124.61-16.109 187.5-.41 181.44-.145 362.89-.145 544.34 0 .66-.004 1.32 0 1.99.121 22.54-2.117 20.26 20.09 20.26 315.879.03 631.758.02 947.64.02"/></g><path d="m619.496 1257.22 21.953-68.87 71.02 14.63-47.778-52.94 47.778-53.8-70.59 15.06-21.949-68.01-21.524 68.44-71.449-15.49 49.496 52.94-49.926 54.24 71.879-15.93z" fill="#d21c2e"/><path d="m370.453 1257.22 21.953-68.87 71.02 14.63-47.778-52.94 47.778-53.8-70.59 15.06-21.953-68.01-21.524 68.44-71.449-15.49 49.5 52.94-49.93 54.24 71.879-15.93z" fill="#d21c2e"/><path d="m1891.22 1257.22 21.95-68.87 71.02 14.63-47.78-52.94 47.78-53.8-70.59 15.06-21.95-68.01-21.52 68.44-71.45-15.49 49.49 52.94-49.92 54.24 71.88-15.93z" fill="#d21c2e"/><path d="m1642.18 1257.22 21.95-68.87 71.02 14.63-47.78-52.94 47.78-53.8-70.59 15.06-21.95-68.01-21.53 68.44-71.45-15.49 49.5 52.94-49.93 54.24 71.88-15.93z" fill="#d21c2e"/><path d="m2023.22 1526.86c.01 4-3.21 7.21-7.22 7.21-39.4 0-230.22.01-326.62.01v-.07c-77.21 0-154.43 0-231.65-.01-82.95.41-554.394.1-557.542.1-111.36.01-222.719.01-334.083.01v-.16c-104.921 0-209.835.03-314.757-.04-5.657-.01-10.243-4.59-10.235-10.25.004-42.65.043-85.31.106-127.96.011-5.64 4.586-10.22 10.226-10.24 45.41-.12 90.821-.14 136.231-.14 27.762-.01 55.531-.02 83.297-.02-.571-.14-.711-.22-.368-.22 34.317.09 118.715.15 231.333.2 10.734-.01 21.464 0 32.191-.01.664 0 1.309.02 1.965.02 411.056.14 1138.546.05 1258.126.05 6.17 0 12.34.04 18.5.05 5.64.02 10.21 4.5 10.23 10.13.16 35.62.25 108.26.27 131.34" fill="#60bce9"/><path d="m732.23 912.16c-1.894.192-3.851.309-5.957.301-115.503-.449-231.003-.32-346.507-.313-7.246 0-11.602-8.148-7.461-14.097 7.511-10.801 15.3-21.469 23.383-32 27.539-35.903 57.144-69.762 88.402-101.981 2.281-.949 4.297-1.789 6.578-2.75 68.984.352 137.977.168 206.969.168v.094c60.476 0 120.953.02 181.429.098 7.942-.02 21.332-.032 39.051-.051 1.715-.18 3.797-.609 5.278 0 151.215-.109 580.525-.078 642.315-.078v-.031c69.12-.008 138.24.371 207.35-.321 2.42 1 4.54 1.879 6.96 2.871 2.93 2.942 5.89 5.84 8.76 8.86 37.63 39.449 72.44 80.859 103.23 125.05 4.15 5.969-.15 14.18-7.41 14.18-178.2.051-845.64.02-1152.37 0" fill="#60bce9"/><path d="m2015.17 1696.9c4.56 0 8.16 3.66 8.16 8.21.01 23.23.04 90.07.01 126.85-.01 14.67-.16 14.69-14.58 14.9-3.65.05-7.31.01-10.96.01-288.79 0-577.57 0-866.35 0-290.606 0-581.212 0-871.821-.02-20.43 0-18.371 2.05-18.484-18.24 0-.6 0-1.2 0-1.79 0-37.34-.012-74.67-.032-112 0-9.87 7.922-17.87 17.793-17.87 563.68-.01 1651.524-.05 1756.264-.05" fill="#60bce9"/><path d="m1141.55 599.391c-149.796 0-299.593-.032-449.39-.11-6.015 0-8.597-7.742-3.773-11.34 66.668-49.609 135.758-95.5 206.562-138.781.992-.601 2.129-.93 3.293-.922 156.028.121 312.048.114 468.068-.008 1.16 0 2.3.329 3.29.93 37.8 23.11 75.16 46.922 111.91 71.731 32.19 21.73 63.84 44.078 94.89 67.148 4.82 3.59 2.24 11.313-3.77 11.313-143.7 0-287.39 0-431.08 0z" fill="#60bce9"/><path d="m1006.44 929.059-420.186-91.118 291.152 311.409-292.968 318.23 421.842-93.46 124.09 410.26 129.41-406 415.49 85.62-280.01-310.28 279.72-315.001-413.01 88.152-129.09-399.91z" fill="#d21c2e"/><path d="m1129.91 1846.91-34.58-114.31-101.826-336.66-347.406 76.97-115.297 25.54 79.984-86.88 241.324-262.12-238.847-255.462-81.11-86.75 116.067 25.16 345.609 74.961 103.902-330.429 34.93-111.059 35.76 110.789 106.05 328.578 341.39-72.859 110.5-23.578-75.02 84.48-231.18 260.339 230.97 255.95 75.82 84.02-110.84-22.85-343.73-70.82-106.2 333.2zm.93-125.05 116.35-365.01 376.4 77.57-253.22-280.6 253.22-285.172-374.13 79.852-116.35-360.441-114.06 362.722-378.695-82.133 262.348 280.602-264.629 287.45 380.976-84.41z" fill="#60bce9"/><path d="m1130.84 1778.55-122.97-406.53-419.073 92.85 291.094-316.19-288.582-308.66 416.561 90.339 125.48-399 127.98 396.493 411.54-87.832-278.54 313.68 278.54 308.66-414.05-85.32zm1.01-137.55 88.09-276.35 11.15-34.98 35.96 7.41 292.13 60.2-195.15-216.24-24.46-27.12 24.25-27.31 196.02-220.739-290 61.891-36.02 7.679-11.32-35.062-88.64-274.617-87.06 276.84-11.18 35.527-36.393-7.891-288.891-62.648 199.359 213.22 25.856 27.66-25.641 27.85-203.109 220.62 292.246-64.75 36.933-8.18 10.95 36.2z" fill="#fff"/><path d="m265.563 2594.36h-78.372l-21.949-21.94v-77.68l21.949-21.94h12.637 1.332 63.067 1.336 12.632l21.95 21.94v12.64 9.53h-34.582v-17.48h-1.336-63.067-1.332v16.36 11.33 12.91 11.33 16.37h1.332 63.067 1.336v-17.48h34.582v9.53 12.64l-21.95 21.94z" fill="#60bce9"/><path d="m1145.16 2594.36h-78.38l-21.94-21.94v-77.68l21.94-21.94h12.64 1.33 63.07 1.34 12.63l21.95 21.94v12.64 9.53h-34.58v-17.48h-1.34-63.07-1.33v16.36 11.33 12.91 11.33 16.37h1.33 63.07 1.34v-17.48h34.58v9.53 12.64l-21.95 21.94z" fill="#60bce9"/><path d="m582.555 2594.63v-42.41l-.649-7.95h-65.34l-.648 7.95v15.78 26.63h-34.582-9.691v-26.63h9.691v-68.37h-9.691v-26.63h9.691 34.582v34.57 10.07h52.93.531 13.176v-10.07-34.57h34.582 9.691v26.63h-9.691v68.37h9.691v26.63h-9.691z" fill="#60bce9"/><path d="m853.125 2594.63h-54.797v-26.63h20.211v-68.57h-17.426-2.785v-26.63h2.785 69.442 2.781v26.63h-2.781-17.43v68.57h17.43 2.781v26.63h-2.781z" fill="#60bce9"/><path d="m1462.23 2544.27h-65.74v23.46h65.74v-17.48zm34.58-28.94v57.09l-21.95 21.94h-91l-21.95-21.94v-12.64-36.03-8.42-15.7h-10.67v-26.63h32.41l.21-.2h12.63v26.63 11.79 6.42h65.74v-10.26-34.58h12.63l.21.2h32.38v26.63h-10.64z" fill="#60bce9"/><path d="m2085.66 2542.3v-42.87h-65.73v68.3h1.34 63.06 1.33zm12.64 52.06h-91.01l-21.94-21.94v-77.68l21.94-21.94h12.64 1.34 63.06 1.33 12.64l21.95 21.94v4.89 7.75 17.48 17.44 17.48 7.95 4.69z" fill="#60bce9"/><path d="m1779.27 2594.36h-78.37l-21.95-21.94v-77.68l21.95-21.94h12.63 1.33 63.07 1.34 12.63l21.95 21.94v12.64 8.73 8.75 9.94h-61.24v-18.69h26.66v-16.68h-1.34-63.07-1.33v8.41 11.33 28.81 3.38 16.37h1.33 63.07 1.34v-17.48h34.58v9.53 12.64l-21.95 21.94z" fill="#60bce9"/><text fill="#100f0d" font-family="ArialMT" font-size="8" transform="matrix(10 0 0 -10 1309.32 25.9805)"><tspan x="0 4.886718" y="0">TM</tspan></text></g></svg>