<svg xmlns:dc="http://purl.org/dc/elements/1.1/" xmlns:cc="http://creativecommons.org/ns#" xmlns:rdf="http://www.w3.org/1999/02/22-rdf-syntax-ns#" xmlns:svg="http://www.w3.org/2000/svg" xmlns="http://www.w3.org/2000/svg" xmlns:sodipodi="http://sodipodi.sourceforge.net/DTD/sodipodi-0.dtd" xmlns:inkscape="http://www.inkscape.org/namespaces/inkscape" id="svg2" version="1.1" inkscape:version="0.48.0 r9654" width="516.86127" height="623.72498" xml:space="preserve" sodipodi:docname="CS Cienciano-1.ai"><metadata id="metadata8"><rdf:RDF><cc:Work rdf:about=""><dc:format>image/svg+xml</dc:format><dc:type rdf:resource="http://purl.org/dc/dcmitype/StillImage"/><dc:title/></cc:Work></rdf:RDF></metadata><defs id="defs6"><clipPath clipPathUnits="userSpaceOnUse" id="clipPath16"><path d="M 0,600 800,600 800,0 0,0 0,600 z" id="path18" inkscape:connector-curvature="0"/></clipPath></defs><sodipodi:namedview pagecolor="#ffffff" bordercolor="#666666" borderopacity="1" objecttolerance="10" gridtolerance="10" guidetolerance="10" inkscape:pageopacity="0" inkscape:pageshadow="2" inkscape:window-width="640" inkscape:window-height="480" id="namedview4" showgrid="false" fit-margin-top="0" fit-margin-left="0" fit-margin-right="0" fit-margin-bottom="0" inkscape:zoom="0.39066667" inkscape:cx="237.18325" inkscape:cy="319.76075" inkscape:window-x="0" inkscape:window-y="0" inkscape:window-maximized="0" inkscape:current-layer="g10"/><g id="g10" inkscape:groupmode="layer" inkscape:label="CS Cienciano-1" transform="matrix(1.25,0,0,-1.25,-262.81675,678.96425)"><g id="g12"><g id="g14" clip-path="url(#clipPath16)"><g id="g20" transform="translate(621.7754,452.6914)"><path d="m 0,0 c -0.496,5.091 -1.001,9.128 -1.394,11.971 -0.196,1.421 -0.365,2.545 -0.492,3.35 -0.124,0.797 -0.214,1.322 -0.23,1.416 l -0.009,0.055 10e-4,-0.011 -2.499,14.34 -1.896,10.878 -25.578,-1.005 c -3.742,-0.149 -7.44,-0.218 -11.094,-0.218 l -0.055,0 c -43.246,-0.007 -80.164,9.981 -106.054,19.962 -12.945,4.987 -23.112,9.954 -29.867,13.569 -3.378,1.806 -5.903,3.275 -7.503,4.237 -0.797,0.479 -1.36,0.831 -1.685,1.038 -0.162,0.102 -0.272,0.174 -0.277,0.176 l -0.004,0.003 -0.026,0.018 c -0.012,0.007 -0.024,0.014 -0.036,0.023 l -0.079,0.052 0.104,-0.068 -9.123,6.057 -6.982,4.637 -16.07,-10.672 c -0.048,-0.033 -0.086,-0.056 -0.114,-0.076 -0.53,-0.342 -4.399,-2.798 -11.033,-6.276 -6.946,-3.642 -16.955,-8.424 -29.478,-13.183 -25.819,-9.824 -62.24,-19.495 -104.79,-19.497 l -0.037,0 c -0.039,0 -0.104,0 -0.196,-0.001 -3.609,0.003 -7.267,0.072 -10.965,0.219 l -14.543,0.569 -11.033,0.433 -4.395,-25.215 -0.006,-0.04 c -0.017,-0.098 -0.107,-0.622 -0.231,-1.419 -0.886,-5.651 -3.849,-26.764 -3.853,-57.454 0.013,-35.517 3.948,-83.963 20.17,-136.087 8.12,-26.058 19.333,-53.032 34.716,-79.616 15.379,-26.581 34.939,-52.757 59.591,-77.09 9.775,-9.643 21.226,-21.153 34.114,-32.582 12.904,-11.425 27.299,-22.859 43.474,-32.325 l 8.434,-4.93 6.394,-3.738 14.794,8.719 c 16.045,9.47 30.391,20.911 43.272,32.331 12.874,11.432 24.332,22.935 34.05,32.523 24.655,24.335 44.214,50.511 59.594,77.093 23.075,39.883 36.764,80.604 44.709,117.875 7.942,37.284 10.172,71.181 10.177,97.825 C 1.964,-24.594 0.995,-10.186 0,0 m -188.649,79.77 -0.024,0.016 0.011,-0.007 c 0.004,-0.003 0.008,-0.006 0.013,-0.009" style="fill:#d9251c;fill-opacity:1;fill-rule:nonzero;stroke:none" id="path22" inkscape:connector-curvature="0"/></g><g id="g24" transform="translate(607.2178,467.3047)"><path d="m 0,0 -2.499,14.339 -14.544,-0.571 c -3.911,-0.154 -7.774,-0.227 -11.591,-0.227 -45.22,-0.008 -83.641,10.399 -110.647,20.808 -13.497,5.199 -24.125,10.387 -31.282,14.215 -3.578,1.914 -6.288,3.488 -8.055,4.551 -0.884,0.532 -1.531,0.936 -1.934,1.192 -0.202,0.128 -0.343,0.217 -0.42,0.268 -0.039,0.026 -0.062,0.041 -0.07,0.045 l -9.178,6.095 -9.178,-6.095 -0.02,-0.013 c -0.681,-0.447 -16.479,-10.664 -43.015,-20.746 -26.934,-10.244 -64.86,-20.328 -109.373,-20.32 -3.815,0 -7.68,0.073 -11.592,0.227 l -14.543,0.57 L -380.439,0 c -0.124,-0.727 -3.901,-22.6 -3.904,-56.747 0.008,-34.581 3.862,-81.787 19.6,-132.334 7.873,-25.268 18.729,-51.366 33.589,-77.046 14.857,-25.677 33.727,-50.931 57.534,-74.43 9.828,-9.698 21.101,-21.02 33.62,-32.12 12.53,-11.098 26.312,-22.007 41.474,-30.875 l 8.429,-4.927 8.411,4.958 c 15.037,8.87 28.786,19.794 41.306,30.9 12.508,11.105 23.79,22.424 33.561,32.064 23.806,23.499 42.676,48.753 57.533,74.43 22.292,38.525 35.569,77.968 43.291,114.185 7.719,36.226 9.894,69.257 9.898,95.195 C 3.899,-22.6 0.124,-0.727 0,0" style="fill:#ffffff;fill-opacity:1;fill-rule:nonzero;stroke:none" id="path26" inkscape:connector-curvature="0"/></g><g id="g28" transform="translate(590.8281,464.1606)"><path d="m 0,0 c -102.118,-4.016 -173.83,43.602 -173.83,43.602 0,0 -71.712,-47.618 -173.83,-43.602 0,0 -33.466,-192.014 102.118,-325.86 19.785,-19.531 44.194,-44.339 71.8,-60.472 27.379,16.135 51.967,41.067 71.624,60.472 C 33.467,-192.014 0,0 0,0" style="fill:#291670;fill-opacity:1;fill-rule:nonzero;stroke:none" id="path30" inkscape:connector-curvature="0"/></g><g id="g32" transform="translate(509.7227,239.7158)"><path d="m 0,0 c -2.1,-2.479 -4.302,-4.872 -6.598,-7.172 -21.309,-21.284 -50.578,-34.4 -83.07,-34.408 -32.49,0.008 -61.759,13.124 -83.069,34.408 -21.284,21.31 -34.4,50.579 -34.409,83.069 0.009,32.491 13.125,61.76 34.409,83.069 21.31,21.284 50.579,34.401 83.069,34.409 32.492,-0.008 61.761,-13.125 83.07,-34.409 2.123,-2.126 4.165,-4.333 6.121,-6.614 l 22.667,22.462 c -2.024,2.287 -4.115,4.51 -6.273,6.666 -26.972,26.997 -64.401,43.743 -105.585,43.735 -41.182,0.008 -78.612,-16.738 -105.583,-43.735 -26.996,-26.97 -43.742,-64.4 -43.734,-105.583 -0.008,-41.182 16.738,-78.613 43.734,-105.584 26.971,-26.996 64.401,-43.742 105.583,-43.734 l 0.032,0 c 41.171,0 78.588,16.744 105.553,43.734 2.296,2.295 4.517,4.667 6.661,7.109 L 0,0 z m -89.667,146.901 c 19.657,-0.008 37.307,-7.922 50.207,-20.797 2.077,-2.082 4.023,-4.289 5.831,-6.607 l 22.733,22.528 c -1.922,2.286 -3.94,4.487 -6.049,6.594 -18.561,18.587 -44.373,30.13 -72.722,30.122 -28.35,0.008 -54.161,-11.535 -72.722,-30.122 -18.587,-18.561 -30.13,-44.373 -30.122,-72.722 -0.008,-28.348 11.535,-54.161 30.122,-72.721 18.561,-18.586 44.372,-30.13 72.722,-30.122 l 0.028,0 c 28.339,0 54.138,11.542 72.694,30.122 2.298,2.295 4.487,4.7 6.561,7.209 L -33.051,33.052 C -35.019,30.457 -37.158,27.996 -39.46,25.69 -52.36,12.816 -70.01,4.901 -89.667,4.894 c -19.657,0.007 -37.308,7.922 -50.207,20.796 -12.874,12.9 -20.789,30.549 -20.796,50.207 0.007,19.657 7.921,37.309 20.796,50.207 12.899,12.875 30.55,20.789 50.207,20.797" style="fill:#ffffff;fill-opacity:1;fill-rule:nonzero;stroke:none" id="path34" inkscape:connector-curvature="0"/></g></g></g></g></svg>