<svg xmlns:inkscape="http://www.inkscape.org/namespaces/inkscape" xmlns:sodipodi="http://sodipodi.sourceforge.net/DTD/sodipodi-0.dtd" xmlns="http://www.w3.org/2000/svg" xmlns:svg="http://www.w3.org/2000/svg" xmlns:rdf="http://www.w3.org/1999/02/22-rdf-syntax-ns#" xmlns:cc="http://creativecommons.org/ns#" xmlns:dc="http://purl.org/dc/elements/1.1/" version="1.0" id="Ebene_1" x="0px" y="0px" width="606" height="693" viewBox="0 0 605.99998 692.99999" enable-background="new 0 0 536.455 635.463" xml:space="preserve" inkscape:version="1.2 (dc2aeda, 2022-05-15)" sodipodi:docname="Logo_Clermont_Foot_63_2013.svg"><metadata id="metadata67"><rdf:RDF><cc:Work rdf:about=""><dc:format>image/svg+xml</dc:format><dc:type rdf:resource="http://purl.org/dc/dcmitype/StillImage"/><dc:title/></cc:Work></rdf:RDF></metadata><defs id="defs65"/><sodipodi:namedview pagecolor="#ffffff" bordercolor="#666666" borderopacity="1" objecttolerance="10" gridtolerance="10" guidetolerance="10" inkscape:pageopacity="0" inkscape:pageshadow="2" inkscape:window-width="1440" inkscape:window-height="900" id="namedview63" showgrid="false" inkscape:zoom="0.8826919" inkscape:cx="300.218" inkscape:cy="378.38797" inkscape:window-x="0" inkscape:window-y="0" inkscape:window-maximized="0" inkscape:current-layer="Ebene_1" showguides="true" inkscape:showpageshadow="2" inkscape:pagecheckerboard="0" inkscape:deskcolor="#d1d1d1"/><g id="g7615"><g id="g4721" transform="translate(-627.66568,-4.0488302)"><path sodipodi:nodetypes="scccsccccccscccss" inkscape:connector-curvature="0" id="path4620" d="m 927.55236,4.2097349 c -44.37464,0 -84.09245,7.5154721 -109.59766,13.8192851 -71.9423,17.782944 -134.58485,50.424521 -186.18359,97.02015 l -4.10547,3.71006 0,5.49381 c 0,28.18798 1.10342,55.37165 3.28711,81.65981 l -0.24414,0 c 2.1179,22.68351 5.06854,44.57555 8.8622,65.94714 l 575.79289,0 c 3.2845,-18.53155 5.9356,-37.60285 7.9601,-57.11504 l 0.2852,0 c 2.7022,-29.01695 4.0566,-59.13848 4.0566,-90.49191 l 0,-5.49381 -4.1074,-3.71006 C 1171.9595,68.453541 1109.32,35.811964 1037.3766,18.02902 1011.8714,11.725207 972.15162,4.2097349 927.77697,4.2097349 Z" style="fill:#c30140;fill-opacity:1"/><path style="fill:#002f67;fill-opacity:1" d="m 639.57081,271.85999 c 9.80417,55.23179 25.2388,106.3596 46.48155,154.02313 23.08349,51.79967 53.45156,99.79163 90.25976,142.64848 39.78014,46.31515 88.29771,88.051 144.20703,124.05195 l 6.93555,4.46516 6.9336,-4.46516 c 55.90932,-36.00095 104.4269,-77.73569 144.207,-124.05195 36.8082,-42.85685 67.1771,-90.8477 90.2617,-142.64848 21.264,-47.71294 36.7056,-98.72412 46.5067,-154.02313 z" id="path4629" inkscape:connector-curvature="0" sodipodi:nodetypes="ccccccsccc"/></g><g id="g4789" transform="translate(-627.66568,-4.0488302)"><path sodipodi:nodetypes="ccccccsccc" inkscape:connector-curvature="0" id="path4631" d="m 665.08973,271.85999 c 8.83826,53.38045 23.17447,102.65986 43.1888,148.46174 20.96003,47.97158 48.53451,92.41685 81.95672,132.10651 36.12075,42.89238 80.17516,81.54388 130.94136,114.8843 l 6.29755,4.13517 6.29577,-4.13517 c 50.7662,-33.34042 94.82057,-71.99089 130.94117,-114.8843 33.4222,-39.68966 60.9975,-84.1339 81.9585,-132.10651 20.051,-45.88736 34.4004,-94.9648 43.2334,-148.46174 z" style="fill:#c30140;fill-opacity:1"/><path style="fill:#002f67;fill-opacity:1" d="m 927.56283,29.81073 c -40.2926,0 -76.35674,6.960066 -99.51571,12.798016 C 762.72282,59.0775 705.84278,89.306809 658.99063,132.45894 l -3.72781,3.43588 0,5.08781 c 0,26.10484 1.00193,51.27959 2.98473,75.62501 l -0.22168,0 c 1.73609,18.96457 4.08842,37.28163 7.06386,55.25235 l 524.81327,0 c 2.523,-15.28081 4.5959,-31.0779 6.2231,-47.07296 l 0.2589,0 c 2.4536,-26.87255 3.6834,-54.76804 3.6834,-83.8044 l 0,-5.08781 -3.7296,-3.43588 C 1149.4868,89.306809 1092.6095,59.0775 1027.2842,42.608746 1004.1252,36.770796 968.05938,29.81073 927.76678,29.81073 Z" id="path4633" inkscape:connector-curvature="0" sodipodi:nodetypes="scccsccccccscccss"/></g></g><g id="g4532" transform="translate(-3.8688803,26.648805)" style="fill:#ffffff"><path style="fill:#ffffff" inkscape:connector-curvature="0" d="m 95.452406,150.79792 c -8.289246,5.57431 -18.420173,0.35938 -23.873565,-6.75768 -5.837403,-7.57161 -6.028848,-18.53997 2.512299,-24.34043 1.387139,-0.9561 2.834734,-1.66255 4.436829,-2.27271 -2.380191,-3.54118 -3.564689,-5.31121 -5.94488,-8.85127 -2.261518,0.68182 -4.353981,1.66255 -6.291945,2.99036 -13.599335,9.43679 -15.549614,28.27568 -5.35823,40.85846 9.496135,11.74533 26.876234,17.2715 40.069166,8.06197 1.53044,-1.0759 2.82242,-2.34437 3.8513,-3.87481 -2.44065,-3.63634 -3.67217,-5.46571 -6.124012,-9.10205 -1.005368,1.23152 -2.045442,2.42722 -3.276962,3.28816 z" id="path4534"/><path style="fill:#ffffff" inkscape:connector-curvature="0" d="M 114.12336,138.23866 C 105.89345,124.6035 97.676978,110.99185 89.459384,97.349973 c -4.593567,2.769797 -6.853965,4.192767 -11.362446,7.117067 10.633611,16.40384 21.267222,32.81551 31.887402,49.21376 7.94218,-5.15447 11.98492,-7.57161 20.15437,-12.14055 -2.11709,-3.82778 -3.1818,-5.71761 -5.3224,-9.52076 -4.30584,2.41601 -6.43525,3.65985 -10.69295,6.21917 z" id="path4536"/><path style="fill:#ffffff" inkscape:connector-curvature="0" d="m 139.97072,124.01797 c -2.369,-4.74919 -3.55238,-7.11706 -5.90906,-11.85282 3.87481,-1.92565 5.82509,-2.87056 9.76035,-4.69433 -1.8428,-3.94758 -2.76308,-5.91465 -4.59356,-9.873424 -4.03155,1.877508 -6.04005,2.840334 -10.03465,4.837634 -2.27271,-4.568939 -3.42138,-6.84725 -5.69298,-11.410589 4.67642,-2.344366 7.0331,-3.468407 11.76997,-5.651555 -1.81817,-3.953178 -2.72725,-5.926968 -4.54543,-9.880145 -9.66407,4.431231 -14.43676,6.81702 -23.87356,11.913272 9.2823,17.199847 18.57579,34.399697 27.86929,51.623057 8.14594,-4.42563 12.27153,-6.48339 20.63243,-10.32237 -1.80586,-3.95878 -2.72726,-5.94488 -4.55663,-9.89134 -4.3551,2.00849 -6.52033,3.03737 -10.82617,5.20261 z" id="path4538"/><path style="fill:#ffffff" inkscape:connector-curvature="0" d="m 177.62387,74.947513 c -3.91176,-12.63651 -17.29613,-12.170771 -27.23562,-7.89404 -4.92719,1.955877 -7.36784,2.97244 -12.22339,5.107447 7.81007,17.91749 15.60895,35.82378 23.44366,53.73456 4.15022,-1.79466 6.23148,-2.65561 10.42985,-4.34167 -4.01924,-10.05928 -6.02885,-15.08947 -10.03465,-25.129716 0.0593,-0.02351 0.084,-0.04814 0.16682,-0.06605 6.61438,7.020776 13.02499,14.227406 19.2688,21.596366 4.46146,-1.62672 6.70954,-2.41601 11.19563,-3.89943 -5.93257,-7.45182 -12.06889,-14.741289 -18.40786,-21.870668 4.58125,-5.035795 5.25075,-11.207947 3.39676,-17.236795 z m -15.95602,14.825256 c -0.81392,0.28101 -1.22032,0.424315 -2.02193,0.723238 -2.32085,-5.81837 -3.48072,-8.724756 -5.81277,-14.53193 0.65718,-0.251902 0.96842,-0.388489 1.60209,-0.633673 5.90906,-2.655604 9.21065,-0.185848 10.66944,3.761732 1.67599,4.527514 0.80161,8.623996 -4.43683,10.680633 z" id="path4540"/><path style="fill:#ffffff" inkscape:connector-curvature="0" d="m 212.90914,47.664878 c 0.84863,11.632261 1.82937,23.257806 2.95453,34.841926 -0.0593,0.02351 -0.084,0.02351 -0.15562,0.03583 -4.58125,-10.7646 -9.35283,-21.482179 -14.25764,-32.11579 -6.6502,1.69278 -9.9518,2.613061 -16.54155,4.581253 3.82667,19.268802 7.85822,38.460354 12.11592,57.633993 4.59357,-1.4476 6.9021,-2.12941 11.55389,-3.42139 -3.25345,-13.719122 -6.43525,-27.438249 -9.56891,-41.17529 0.0605,-0.01791 0.0952,-0.02911 0.16794,-0.05374 0.0952,0.431032 0.16681,0.639271 0.28661,1.052389 2.17643,4.826437 3.26576,7.242455 5.38286,12.081207 4.34166,8.522115 8.52771,17.110284 12.59508,25.746594 3.33742,-0.84975 5.02348,-1.23824 8.38441,-1.9973 -0.47805,-9.395374 -0.82512,-18.790749 -1.0647,-28.186123 -0.44335,-5.830685 -0.63368,-8.731473 -1.02888,-14.574474 0.0717,-0.01232 0.10748,-0.02351 0.17913,-0.02351 3.79196,13.588139 7.51115,27.205386 11.1598,40.822627 4.49729,-0.87997 6.77,-1.29757 11.30311,-2.04544 C 241.1602,81.908957 235.718,63.01185 230.01271,44.185275 c -6.86516,1.260628 -10.28655,1.94804 -17.10357,3.479603 z" id="path4542"/><path style="fill:#ffffff" inkscape:connector-curvature="0" d="m 263.81456,38.527003 c -16.31428,1.602095 -20.46562,19.215063 -18.31158,32.785289 1.96148,12.307358 9.47263,28.885848 24.23295,27.425939 14.76032,-1.446475 18.88591,-19.166922 18.40786,-31.611986 -0.52732,-13.720247 -8.01496,-30.202457 -24.32923,-28.599242 z m 4.86786,49.541791 c -7.55929,0.735553 -9.86783,-13.862432 -10.42985,-18.509738 -0.62248,-5.166785 -1.77003,-19.5319 6.61438,-20.35142 8.37321,-0.825118 10.05927,13.486258 10.44216,18.688868 0.35827,4.64059 0.9326,19.413226 -6.62669,20.17229 z" id="path4544"/><path style="fill:#ffffff" inkscape:connector-curvature="0" d="m 320.43759,64.135891 c -0.11868,3.02618 0,6.064674 0.59784,8.892691 -0.0605,0.07165 -0.0952,0.09516 -0.16681,0.150021 -4.45026,-12.081206 -9.35283,-23.993359 -14.66516,-35.715185 -4.97534,-0.02351 -7.47532,0 -12.45066,0.132108 0.53739,19.549813 1.02776,39.082832 1.54276,58.632645 4.45026,-0.119794 6.68603,-0.150022 11.13517,-0.119794 0.0481,-10.771317 0.0717,-16.14746 0.14443,-26.91206 -0.0235,-0.968422 -0.0358,-1.447595 -0.084,-2.416017 -0.20376,-2.362279 -0.32244,-3.545657 -0.54971,-5.914653 0.0705,-0.05934 0.11868,-0.09516 0.17913,-0.143304 4.95183,11.733023 9.49614,23.622784 13.61165,35.70399 4.22188,0.166815 6.32665,0.281011 10.53733,0.585532 1.38714,-19.497193 2.7754,-38.998865 4.17485,-58.494938 -5.16678,-0.371695 -7.76305,-0.51388 -12.92983,-0.723238 -0.43103,10.540687 -0.64599,15.809352 -1.07702,26.342202 z" id="path4546"/><path style="fill:#ffffff" inkscape:connector-curvature="0" d="m 339.33581,49.817798 c 3.95878,0.329151 5.92137,0.53851 9.88015,0.969541 -1.74764,15.823907 -3.50535,31.636617 -5.23956,47.460524 4.43795,0.490368 6.65021,0.760183 11.07584,1.393856 2.23689,-15.758972 4.46146,-31.522422 6.71066,-47.275796 3.95878,0.562021 5.94489,0.87326 9.90366,1.530443 0.74115,-4.300242 1.07702,-6.440847 1.80586,-10.741089 -11.06465,-1.69278 -22.06771,-3.074321 -33.20289,-4.186047 -0.37169,4.347264 -0.57546,6.501304 -0.93372,10.848568 z" id="path4548"/><path style="fill:#ffffff" inkscape:connector-curvature="0" d="m 410.109,62.251667 c 5.02348,1.345715 7.51227,2.068952 12.49993,3.5882 1.26734,-4.180449 1.90101,-6.261717 3.16948,-10.424253 -10.13205,-3.074321 -15.23838,-4.443547 -25.50029,-6.871879 -4.48609,19.023618 -8.95987,38.053953 -13.45715,57.089885 4.36518,1.02888 6.54273,1.56739 10.88439,2.75189 2.53693,-9.41329 3.80316,-14.119934 6.34009,-23.520906 4.24538,1.147552 6.37479,1.746519 10.60898,3.008266 1.24383,-4.174851 1.87863,-6.243804 3.12246,-10.424253 -4.34167,-1.309889 -6.53041,-1.92005 -10.92022,-3.097831 1.31437,-4.851067 1.96148,-7.261487 3.25233,-12.099119 z" id="path4550"/><path style="fill:#ffffff" inkscape:connector-curvature="0" d="m 453.70703,63.991468 c -15.38168,-5.89674 -27.12701,7.798877 -31.30187,21.075777 -3.78076,12.014033 -4.28232,30.111775 9.6999,35.446495 13.98223,5.33471 25.75219,-8.39673 30.96712,-19.89128 5.78814,-12.727198 6.02773,-30.739851 -9.36515,-36.630992 z m -2.67911,31.4754 c -1.78235,4.323753 -7.88285,17.786502 -15.08276,15.023422 -7.21222,-2.76309 -2.7642,-16.859506 -1.19569,-21.242596 1.74652,-4.928317 7.15289,-18.288065 15.1309,-15.227179 7.9892,3.05081 3.10902,16.60872 1.14755,21.446353 z" id="path4552"/><path style="fill:#ffffff" inkscape:connector-curvature="0" d="m 500.91677,85.497157 c -14.59238,-7.79216 -28.08424,4.103199 -33.93396,16.913243 -5.27538,11.5718 -7.81119,29.40645 5.47803,36.48656 13.32504,7.09244 26.79338,-4.82084 33.47829,-15.70523 7.41711,-12.05658 9.58123,-29.908011 -5.02236,-37.694573 z m -6.45876,30.961523 c -2.29622,4.05506 -10.03576,16.66134 -16.93675,12.97685 -6.9133,-3.68448 -0.75346,-17.12819 1.3278,-21.29073 2.35668,-4.6585 9.37746,-17.260305 17.00841,-13.180616 7.64326,4.078568 1.14755,16.936756 -1.39946,21.494496 z" id="path4554"/><path style="fill:#ffffff" inkscape:connector-curvature="0" d="m 524.3358,100.08395 c -2.29623,3.70239 -3.43258,5.54967 -5.74112,9.24535 3.50423,2.18875 5.23955,3.28928 8.70684,5.56199 -8.74379,13.30041 -17.47414,26.61314 -26.20562,39.92586 3.87481,2.55932 5.81278,3.86361 9.63944,6.55392 9.16251,-13.0138 18.33621,-26.0276 27.49871,-39.04028 3.42139,2.41601 5.1444,3.65985 8.50533,6.17215 2.60746,-3.49304 3.91063,-5.23956 6.51809,-8.73147 -9.35283,-6.96145 -19.0057,-13.54 -28.92167,-19.68752 z" id="path4556"/></g><g id="g4729" transform="translate(-627.66568,-4.0488302)"><path sodipodi:nodetypes="cccccccccccccccccccccssccccsccccccccccccssssscsssscccccccccccccccccccccccccccccccccccccccccccccccccccccccc" id="path4566" d="m 1059.1066,432.60494 c -3.255,-1.90118 -14.5326,-11.08052 -17.1052,-11.20733 -0.77,-2.65108 -0.2345,-4.44553 -1.5208,-6.48174 -3.567,-5.62327 -10.701,-4.31689 -15.7797,-1.70504 -1.1686,0.60393 -11.793,4.1609 -13.1285,1.1294 1.8519,-2.0061 3.6846,-4.04504 5.5165,-6.0703 -0.302,-3.74399 -2.4467,-8.83085 -4.171,-13.31561 -3.9282,-10.14544 -6.6076,-23.41909 -8.3628,-35.35898 0.4388,-0.24358 0.8776,-0.49719 1.3255,-0.75081 1.9979,-0.75992 4.3178,1.58919 5.5065,2.45676 3.2551,2.38744 7.0173,4.4729 11.5987,5.71178 4.6681,1.25712 10.9556,-5.49739 14.259,-6.08216 -0.088,-4.78581 -3.2158,-9.02608 -4.7466,-12.55386 -2.943,-6.70524 -5.4873,-13.43056 -7.9915,-20.15496 -0.5557,-1.48154 -1.1596,-5.74096 -2.0764,-7.03731 -2.4367,-3.35262 -5.5941,-11.26663 -5.9061,-14.44409 -0.5657,-0.0583 -1.1404,-0.11678 -1.706,-0.19523 l -8.9458,4.20724 c -4.2101,-5.32131 -4.0851,-4.2857 -7.40857,-10.09417 -0.18522,-0.12681 -0.38045,-0.25362 -0.56559,-0.37038 l -10.00024,3.99984 1.32412,5.1408 c 0.78789,3.05895 2.91111,5.83086 0.77357,5.81781 -6.87502,-0.042 -13.75501,-0.0854 -20.6153,-0.13394 l -10.23048,4.76644 12.92955,6.44181 c 0.0483,1.99789 -19.20953,0.39423 -17.64041,1.51541 l -4.49836,3.53793 c -4.04273,3.17958 7.96986,12.60446 5.94072,14.5278 -0.55558,-0.19523 -6.9096,-15.92565 -7.03731,-19.19068 2.71038,-0.67235 3.42104,-2.27067 4.94181,-3.98666 7.20335,-8.20686 -4.46469,-17.7283 -8.00159,-22.63088 l -0.74989,0 -9.64138,4.13466 c -3.16744,0.1268 -1.01129,3.85689 -3.66329,4.22728 0.312,-6.77367 3.55789,-11.98824 3.60624,-18.0704 l -1.14035,0 c -1.16954,1.80357 -7.47022,2.51756 -9.01014,4.33025 l -5.81437,19.06055 c -3.95747,-5.24377 -9.18063,-9.07043 -12.73852,-14.71287 -0.70563,-3.67667 -4.3446,-5.53552 -4.31617,-7.38175 0.02,-1.30168 5.60573,-3.71658 0.1669,-7.99397 -1.40931,-1.10836 -3.70552,0.46485 -5.86866,1.1679 l -2.42668,0.78871 c -0.88338,0.28711 3.24068,-9.91247 3.32817,-22.99983 0.0567,-8.48733 2.10778,-18.00072 1.76387,-17.92557 -0.53435,0.53054 -0.9894,-2.30193 -2.87668,6.31655 -1.06643,4.86997 -1.44283,12.05946 -3.18011,18.70407 -1.7684,6.76362 -2.51182,13.28564 -2.46112,17.1866 0.0125,0.9596 -3.77639,2.11404 -3.38676,4.24634 1.16774,6.39056 10.64896,11.46798 10.70957,11.77599 1.99789,10.50671 6.03289,16.67554 10.44832,23.7612 1.17957,1.86196 1.58919,4.92265 3.43107,6.07212 l 0,0.57474 c -6.37408,-0.63312 -11.1982,-2.34912 -17.87517,-2.27066 l -9.98711,3.89586 c 0.70155,0.312 3.33022,4.07654 3.33022,4.07654 -0.8767,0.2536 -6.11135,5.95534 -7.0364,7.2225 -7.04735,9.5707 -11.51112,25.32119 -11.21828,42.97285 l 29.09254,0 c -0.94512,1.36295 -1.9395,3.52778 -1.9103,4.75571 -3.82063,2.35915 -9.8143,0.89586 -14.0646,2.47501 -4.41543,1.63754 -11.91982,1.07284 -17.29953,3.03059 -5.90608,2.17396 -12.30936,3.08988 -17.49475,5.13704 -2.028,0.63403 -4.05508,1.26715 -6.09128,1.90118 -5.37971,3.31431 -11.27667,6.09219 -15.20494,10.83695 -2.85543,3.46027 -4.01585,7.74889 -6.64686,11.59962 -3.52869,5.15437 -22.91368,11.2274 -32.3293,11.21828 l -10.23254,3.93965 c 8.07913,4.21016 34.20812,1.06055 43.50697,-1.84415 2.34911,-0.73073 12.71898,-5.62328 13.49897,-5.33135 5.16532,-4.7183 11.90979,-8.61646 16.91911,-12.92516 4.07423,-3.48855 9.52236,-9.7267 15.78971,-10.83694 -9.1611,12.0074 -4.64897,32.16327 -19.97068,38.98528 -2.24238,0.99439 -8.21597,2.47501 -11.59779,1.51986 -1.66674,-0.48624 -5.50743,-1.04273 -7.03731,-0.77909 l -10.41218,4.02315 c 1.01354,4.31872 11.00698,10.92818 9.84657,13.48165 -3.83979,8.45955 -7.48525,16.83061 -16.92915,20.91488 -0.38042,-0.0675 -0.75992,-0.13502 -1.14035,-0.19431 -1.57915,0.0392 -3.30427,0.67143 -4.93177,-0.19615 -1.85192,-0.95515 -3.68378,-1.89023 -5.52567,-2.85451 l -0.56561,0 -9.84112,4.2225 c 0.0684,0.2527 1.04037,7.89255 1.09876,8.14525 14.87287,3.15739 49.69726,-3.48855 56.85043,-10.64264 4.33697,-4.35612 0.14596,-17.5431 6.27647,-20.35018 5.34048,-2.43761 12.18256,1.22793 16.34528,2.86546 4.40539,1.71417 16.26683,0.48625 19.96064,-0.76083 9.42475,-3.16834 14.40579,-10.52495 23.1965,-13.89765 6.01374,-0.43789 12.03659,-0.8767 18.05033,-1.31642 7.09479,-1.19781 15.42845,-3.55605 22.44569,-5.13521 4.11015,-2.1725 9.15703,-1.42363 13.12859,-3.23585 3.80147,-1.26715 7.60202,-2.5334 11.39345,-3.80237 4.68819,-2.49417 13.26451,-5.23283 18.25468,-6.27556 12.21264,-2.55347 23.80134,-8.90931 37.45634,-3.41192 -1.0629,6.82292 -3.4952,15.96249 -11.0972,16.25442 l -13.878,17.68657 c 3.1473,-0.0584 16.1151,-7.09812 18.1331,-8.66816 6.209,-4.78581 17.5139,-12.03751 17.1152,-22.0461 4.503,1.58736 8.986,3.16834 13.489,4.74657 l 35.0752,23.44104 c 4.1709,0 6.8832,-2.13569 10.1774,-3.4813 l 0.3905,0 0,-1.51073 c -15.0581,-9.26966 -28.1274,-19.51272 -43.3615,-28.33263 z" inkscape:connector-curvature="0" style="fill:#ffffff;fill-opacity:1"/><path id="path4558" d="m 889.63477,292.91602 c -0.31841,0.0182 -0.64936,0.0665 -0.99415,0.14453 -1.40398,1.39397 -1.02464,11.51036 -0.55664,13.88867 1.99789,10.50671 6.03379,16.6741 10.44922,23.75976 1.17957,1.86196 1.58976,4.9228 3.43164,6.07227 l 0,0.57422 c -6.37408,-0.63312 -11.19803,-2.34799 -17.875,-2.26953 -0.0483,0.0776 -0.57617,3.41015 -0.57617,3.41015 -1.23796,1.48153 -3.77108,2.64315 -5.52539,3.60743 0.70155,0.312 -0.55664,0.95507 -0.55664,0.95507 -0.8767,0.2536 -6.11011,5.9555 -7.03516,7.22266 -7.04735,9.5707 -11.51159,25.321 -11.21875,42.97266 l 29.0918,0 c -0.94512,1.36295 -1.93936,3.52793 -1.91015,4.75586 -3.82064,2.35915 -9.81416,0.89546 -14.06446,2.47461 -4.41543,1.63754 -11.91912,1.07349 -17.29883,3.03124 -5.90608,2.17397 -12.3107,3.08956 -17.49609,5.13672 -2.028,0.63403 -4.05364,1.26636 -6.08984,1.90039 -5.37971,3.31431 -11.27681,6.09313 -15.20508,10.83789 -2.85543,3.46027 -4.01548,7.74888 -6.64649,11.59961 -3.52869,5.15437 -22.91445,11.22592 -32.33007,11.2168 l 0,0.95508 c 8.07913,4.21016 23.97654,4.04532 33.27539,1.14062 2.34911,-0.73073 12.71805,-5.622 13.49804,-5.33007 5.16532,-4.7183 11.9106,-8.61708 16.91993,-12.92578 4.07423,-3.48855 9.52171,-9.72766 15.78906,-10.8379 -9.1611,12.0074 -4.649,32.16432 -19.97071,38.98633 -2.24238,0.99439 -8.21583,2.47468 -11.59765,1.51953 -1.66674,-0.48624 -5.50723,-1.04293 -7.03711,-0.77929 l -0.56641,0 c 0.62399,1.96688 1.26663,3.93664 1.89063,5.90625 1.01354,4.31872 -0.73022,9.04614 -1.89063,11.59961 -3.83979,8.45955 -7.48578,16.82979 -16.92968,20.91406 -0.38042,-0.0675 -0.75825,-0.13407 -1.13868,-0.19336 -1.57915,0.0392 -3.30414,0.67031 -4.93164,-0.19727 -1.85192,-0.95515 -3.68545,-1.88923 -5.52734,-2.85351 l -0.56445,0 c -2.9722,3.86806 -5.95526,7.74574 -8.9375,11.60742 0.0684,0.2527 0.13692,0.50707 0.19531,0.75977 14.87287,3.15739 49.69644,-3.48849 56.84961,-10.64258 4.33697,-4.35612 0.14683,-17.54253 6.27734,-20.34961 5.34048,-2.43761 12.18103,1.2277 16.34375,2.86523 4.40539,1.71417 16.26713,0.48536 19.96094,-0.76172 9.42475,-3.16834 14.40655,-10.52378 23.19726,-13.89648 6.01374,-0.43789 12.03705,-0.87669 18.05079,-1.31641 7.09479,-1.19781 15.42807,-3.55756 22.44531,-5.13672 1.96869,0.12681 3.92779,0.25342 5.89648,0.3711 1.97783,-0.56651 5.13692,-2.59192 7.23242,-3.60547 3.80147,-1.26715 7.60115,-2.53376 11.39258,-3.80274 4.68819,-2.49416 13.26569,-5.23266 18.25586,-6.27539 12.21266,-2.55347 23.80008,-8.90949 37.45508,-3.41211 -1.0629,6.82293 -7.6011,10.15534 -15.2031,10.44727 l 0,19.38672 c 3.1473,-0.0584 6.3433,-2.99051 8.3613,-4.56055 6.209,-4.78581 17.5139,-12.03828 17.1152,-22.04687 4.503,1.58736 8.9853,3.16786 13.4883,4.74609 9.5223,4.36525 22.2224,12.78749 27.3887,21.48242 4.1709,0 14.571,-0.17587 17.8652,-1.52148 l 0.3907,0 0,-1.51172 c -15.0581,-9.26966 -28.1273,-19.51212 -43.3614,-28.33203 -3.255,-1.90118 -14.5328,-11.08022 -17.1054,-11.20703 -0.77,-2.65108 -0.2352,-4.44621 -1.5215,-6.48242 -3.567,-5.62327 -10.7006,-4.31693 -15.7793,-1.70508 -1.1686,0.60393 -11.7934,4.1604 -13.1289,1.1289 1.8519,-2.0061 3.6856,-4.04505 5.5175,-6.07031 -0.302,-3.74399 -2.4475,-8.82969 -4.1718,-13.31445 -3.92825,-10.14544 -6.60812,-23.41949 -8.36331,-35.35938 0.4388,-0.24358 0.87825,-0.49833 1.32617,-0.75195 1.99794,-0.75992 4.31714,1.58946 5.50584,2.45703 3.2551,2.38744 7.0182,4.47401 11.5996,5.71289 4.6681,1.25712 10.9544,-5.49726 14.2578,-6.08203 -0.088,-4.78581 -3.2153,-9.02691 -4.7461,-12.55469 -2.943,-6.70524 -5.4879,-13.42989 -7.9921,-20.15429 -0.5557,-1.48154 -1.1594,-5.74076 -2.0762,-7.03711 -2.4367,-3.35262 -5.5943,-11.26786 -5.9063,-14.44532 -0.5657,-0.0583 -1.1394,-0.11686 -1.705,-0.19531 0.05,2.86546 -0.5652,9.38655 -3.0411,11.0332 -0.2244,0.68239 -0.1463,0.56554 -0.5761,0.95508 -4.21011,-5.32131 -9.41486,-12.06653 -12.73831,-17.875 -0.18522,-0.12681 -0.37931,-0.25433 -0.56445,-0.37109 -0.90593,1.0628 -0.19548,12.41707 0.56445,15.00977 -9.6875,-0.0584 -19.40367,-0.11518 -29.08203,-0.1836 l 0,1.33399 c 2.91382,2.84539 5.82837,5.69339 8.74219,8.54882 -4.23935,2.75782 -15.64298,1.4118 -21.8711,1.32422 0.0483,1.99789 5.6633,11.24796 7.23243,12.36914 -0.63314,5.04855 -4.7864,4.54265 -7.60352,7.21289 -0.55558,-0.19523 -6.9094,-15.92637 -7.03711,-19.1914 2.71038,-0.67235 3.42064,-2.27034 4.94141,-3.98633 7.20335,-8.20686 -4.4631,-17.72828 -8,-22.63086 l -0.75,0 c -1.34562,4.14265 -0.13586,10.09643 -0.95508,13.48828 l -0.18555,0 c -1.68681,-2.63192 -3.68482,-4.99032 -5.51758,-7.22265 -3.16744,0.1268 -3.99448,1.72531 -6.64648,2.0957 0.312,-6.77367 3.55712,-11.98815 3.60547,-18.07031 l -1.14063,0 c -1.16954,1.80357 -3.20617,2.94512 -4.74609,4.75781 -4.67817,5.53571 -7.42798,15.45676 -5.71289,26.04101 -1.9687,-2.12469 -2.43578,-4.8447 -4.36524,-7.4082 -3.95747,-5.24377 -7.47531,-10.1349 -11.0332,-15.77734 -2.01927,-3.20723 -3.92704,-9.35464 -8.70312,-9.08203 z m 44.49609,85.29687 c 1.1064,0 3.27433,0.76346 6.11133,2.15234 2.1527,1.05392 4.55266,2.00617 6.44336,2.55665 1.8711,0.54477 4.52219,1.59476 6.99609,2.76953 2.1909,1.04041 4.45069,2.01359 5.02148,2.16406 0.57071,0.1505 1.09316,0.41828 1.16016,0.59375 0.0674,0.17546 -3.15972,7.30766 -7.16992,15.84961 -4.0103,8.54196 -7.40864,15.6559 -7.55274,15.80859 -0.30089,0.31874 -1.08866,0.0837 -1.53906,-0.45898 -0.1624,-0.19565 -0.41314,-0.99111 -0.55664,-1.76758 -0.1436,-0.77646 -0.59912,-2.06073 -1.01172,-2.85352 -0.8776,-1.68632 -1.11507,-3.67773 -0.64258,-5.36523 0.17041,-0.60837 1.12515,-2.31516 2.12305,-3.79297 2.2244,-3.29399 2.79182,-4.66034 2.60352,-6.27539 -0.1727,-1.4808 -0.57563,-2.09273 -2.01953,-3.07422 -3.4551,-2.34881 -9.70248,-8.51803 -11.20508,-11.06445 -1.4022,-2.37597 -1.41072,-2.97574 -0.0742,-5.29297 0.6186,-1.07238 1.2095,-1.94922 1.3125,-1.94922 z m 2.0625,58.13867 1.48828,1.99219 c 0.8192,1.09563 2.69582,3.3462 4.16992,5.00195 1.4741,1.65575 3.23612,3.81538 3.91602,4.79883 1.3723,1.98488 1.36723,2.22372 -0.0723,2.9707 -1.5856,0.82287 -3.93275,0.74113 -5.93945,-0.20507 -1.4158,-0.6676 -3.12571,-2.62803 -4.22461,-4.84571 -0.8757,-1.76729 -1.00413,-2.24285 -1.07813,-3.98828 -0.0804,-1.88355 -0.039,-2.07483 0.82813,-3.85351 l 0.91211,-1.8711 z" style="fill:#002f67;fill-opacity:1" inkscape:connector-curvature="0"/></g><g id="g7619"><path sodipodi:nodetypes="cccsc" inkscape:connector-curvature="0" id="path4583" d="m 409.63492,592.96698 -109.63498,88 -109.63499,-88 c 0,-60.54974 49.08527,-109.63501 109.63501,-109.635 60.54972,2e-5 109.63496,49.08528 109.63496,109.635 z" style="fill:#ffffff;fill-opacity:1;fill-rule:nonzero;stroke:none;stroke-width:5;stroke-linecap:round;stroke-linejoin:round;stroke-miterlimit:4;stroke-dasharray:none;stroke-dashoffset:0;stroke-opacity:1"/><path style="fill:#002f67;fill-opacity:1;stroke:none" d="m 11.904671,267.81055 c 9.80417,55.23178 25.239671,106.3599 46.482423,154.02343 23.083491,51.79967 53.451576,99.79159 90.259776,142.64844 39.78014,46.31515 88.29772,88.05178 144.20704,124.05273 l 6.93555,4.46485 6.93359,-4.46485 c 55.90932,-36.00095 104.42694,-77.73647 144.20704,-124.05273 36.8082,-42.85685 67.1771,-90.84766 90.26171,-142.64844 21.264,-47.71294 36.7048,-98.72443 46.5059,-154.02343 l -25.461,0 c -8.833,53.49693 -23.1814,102.57553 -43.23241,148.46289 -20.961,47.97261 -48.5368,92.4158 -81.959,132.10546 -36.1206,42.89341 -80.17518,81.54435 -130.94138,114.88477 l -6.29492,4.13477 -6.29883,-4.13477 C 242.74396,629.92325 198.6895,591.27128 162.56875,548.3789 129.14653,508.68924 101.5737,464.24502 80.613665,416.27344 60.599334,370.47156 46.262463,321.19099 37.424202,267.81055 l -25.519531,0 z" id="path4753" inkscape:connector-curvature="0"/></g><style type="text/css" id="style132">
	.st0{fill:#1F3561;}
	.st1{fill:#C41343;}
	.st2{fill:#FFFFFF;}
	.st3{clip-path:url(#SVGID_2_);fill:#FFFFFF;}
	.st4{clip-path:url(#SVGID_2_);fill:#1F3561;}
</style><g id="g7607"><g id="g7586"><path style="fill:#002f67;fill-opacity:1;stroke:none" inkscape:connector-curvature="0" id="path4581" d="m 262.74115,528.94004 23.02495,-39.87773 -2.63211,-4.55662 c -27.79763,4.31592 -52.14925,18.96876 -69.0748,39.90235 l 2.61978,4.53312 h 46.06218 z"/><path inkscape:connector-curvature="0" style="fill:#002f67;fill-opacity:1;stroke:none" id="path4585" d="m 217.83412,608.03462 6.4552,-11.16093 -23.0767,-39.87772 h -5.2598 c -2.8867,7.44957 -4.9794,15.29771 -6.1995,23.43022 z" sodipodi:nodetypes="cccccc"/><path d="m 336.77839,528.94004 -23.02494,-39.87773 2.63211,-4.55662 c 27.79763,4.31592 52.14925,18.96876 69.07476,39.90235 l -2.6197,4.53312 h -46.06223 z" id="path4595" inkscape:connector-curvature="0" style="fill:#002f67;fill-opacity:1;stroke:none"/><path sodipodi:nodetypes="cccccc" d="m 381.68552,608.03462 -6.4552,-11.16093 23.0767,-39.87772 h 5.2598 c 2.8867,7.44957 4.9794,15.29771 6.1995,23.43022 z" id="path4597" style="fill:#002f67;fill-opacity:1;stroke:none" inkscape:connector-curvature="0"/></g><g id="g2635" transform="matrix(1.2877351,0,0,1.2877351,-15.189355,-62.923607)" style="fill:#002f67;fill-opacity:1"><path class="st0" d="m 226.94053,488.79059 c -0.57031,-2.28122 -1.71092,-3.70698 -2.85153,-4.56244 -1.42576,-0.85545 -2.85152,-0.85545 -4.27728,-0.85545 -8.26942,0 -11.69125,8.26941 -11.9764,15.11307 h 0.28515 c 3.13668,-4.84759 8.26942,-6.27335 13.97247,-6.27335 10.83579,0 19.39036,8.83972 19.39036,19.67551 0,14.25762 -10.83579,21.95673 -23.9528,21.95673 -17.67945,0 -23.9528,-15.11307 -23.9528,-30.22615 0,-16.82399 7.98427,-31.0816 26.23402,-31.0816 9.41003,0 16.82399,3.99213 19.67551,12.5467 0.5703,1.14061 -12.5467,3.70698 -12.5467,3.70698 z m -9.12488,33.07767 c 5.9882,0 9.98033,-4.27728 9.98033,-9.12487 0,-5.70305 -3.70698,-9.98033 -10.26548,-9.98033 -5.4179,0 -9.41003,4.56243 -9.41003,9.98033 0.28515,5.13274 3.99213,9.12487 9.69518,9.12487 z" id="path190" style="fill:#002f67;stroke-width:2.85152;fill-opacity:1"/><path class="st0" d="m 266.5767,496.4897 c 1.42576,0 2.56637,0.28516 3.99213,0 4.27729,0 9.69518,-1.14061 9.69518,-6.27335 0,-3.99213 -3.99213,-5.9882 -8.55457,-5.9882 -5.9882,0 -9.41002,3.13668 -9.12487,8.55457 0,0 -13.11701,-4.27728 -12.83186,-5.9882 2.56637,-9.41002 11.12095,-14.25761 21.95673,-14.25761 10.26549,0 22.24189,4.27728 22.24189,16.53883 0,5.13275 -2.85153,10.83579 -8.26942,11.69125 v 0.28515 c 6.84365,1.71092 10.26548,6.55851 10.26548,13.68731 0,13.40216 -12.26155,19.10521 -24.23795,19.10521 -12.5467,0 -23.09734,-5.70305 -24.23794,-18.24975 0,-1.42576 13.40216,-3.99213 13.40216,-3.99213 -0.28516,7.12881 3.42182,10.55063 10.83578,10.55063 4.84759,0 9.69518,-2.28121 9.69518,-7.41396 0,-6.5585 -4.84759,-8.26941 -10.55063,-8.26941 -1.42576,0 -2.56637,0 -3.99214,0.28515 V 496.4897 Z" id="path192" style="fill:#002f67;stroke-width:2.85152;fill-opacity:1"/></g></g></svg>