<svg xmlns:dc="http://purl.org/dc/elements/1.1/" xmlns:cc="http://web.resource.org/cc/" xmlns:rdf="http://www.w3.org/1999/02/22-rdf-syntax-ns#" xmlns:svg="http://www.w3.org/2000/svg" xmlns="http://www.w3.org/2000/svg" xmlns:xlink="http://www.w3.org/1999/xlink" xmlns:sodipodi="http://sodipodi.sourceforge.net/DTD/sodipodi-0.dtd" xmlns:inkscape="http://www.inkscape.org/namespaces/inkscape" id="svg6065" sodipodi:version="0.32" inkscape:version="0.45.1" width="600" height="399.99997" version="1.0" sodipodi:docbase="D:\Wiki\Escudos" sodipodi:docname="Colorado Rapids.svg" inkscape:output_extension="org.inkscape.output.svg.inkscape">
  <metadata id="metadata6070">
    <rdf:RDF>
      <cc:Work rdf:about="">
        <dc:format>image/svg+xml</dc:format>
        <dc:type rdf:resource="http://purl.org/dc/dcmitype/StillImage"/>
      </cc:Work>
    </rdf:RDF>
  </metadata>
  <defs id="defs6068">
    <linearGradient id="linearGradient6057">
      <stop style="stop-color:#aa0000;stop-opacity:1;" offset="0" id="stop6059"/>
      <stop style="stop-color:#7d0000;stop-opacity:1;" offset="1" id="stop6061"/>
    </linearGradient>
    <radialGradient inkscape:collect="always" xlink:href="#linearGradient6057" id="radialGradient6063" cx="299.96869" cy="199.86307" fx="299.96869" fy="199.86307" r="299.96869" gradientTransform="matrix(1,0,0,0.6662798,0,66.698369)" gradientUnits="userSpaceOnUse"/>
  </defs>
  <sodipodi:namedview inkscape:window-height="584" inkscape:window-width="772" inkscape:pageshadow="2" inkscape:pageopacity="0.0" guidetolerance="10.0" gridtolerance="10.0" objecttolerance="10.0" borderopacity="1.0" bordercolor="#666666" pagecolor="#ffffff" id="base" inkscape:zoom="0.35824168" inkscape:cx="372.04724" inkscape:cy="526.18109" inkscape:window-x="22" inkscape:window-y="24" inkscape:current-layer="svg6065"/>
  <rect style="fill:url(#radialGradient6063);fill-opacity:1;stroke:none;stroke-width:10;stroke-linecap:square;stroke-linejoin:miter;stroke-miterlimit:4;stroke-dasharray:none;stroke-dashoffset:0;stroke-opacity:1" id="rect3647" width="599.93738" height="399.72614" x="2.109375e-007" y="0"/>
  <path style="fill:#ffffff;fill-opacity:1;fill-rule:evenodd;stroke:none;stroke-width:1px;stroke-linecap:butt;stroke-linejoin:miter;stroke-opacity:1" d="M 299.91544,117.25302 L 299.91544,118.94018 L 197.60479,221.05649 L 177.69468,209.34372 L 84.066849,305.79291 L 84.066849,390.27431 L 299.3548,391.60673 L 517.44597,389.6081 L 517.44597,305.79291 L 423.81814,209.34372 L 403.15812,222.38891 L 301.59738,118.94018 L 301.59738,117.25302 L 300.75641,118.0966 L 299.91544,117.25302 z " id="path3712" sodipodi:nodetypes="ccccccccccccccc"/>
  <g id="g3741" transform="matrix(0.7499217,0,0,0.6662102,0,8.6914063e-6)">
    <path id="path3718" d="M 130,455.32869 L 247.58471,327.47952 L 270.10093,346.9687 L 401.02859,205.86692 L 401.02859,591 L 130,554 L 130,455.32869 z " style="fill:#deddd4;fill-opacity:1;fill-rule:evenodd;stroke:none;stroke-width:1px;stroke-linecap:butt;stroke-linejoin:miter;stroke-opacity:1" sodipodi:nodetypes="ccccccc"/>
    <path style="fill:#9dbdda;fill-opacity:1;fill-rule:evenodd;stroke:none;stroke-width:1px;stroke-linecap:butt;stroke-linejoin:miter;stroke-opacity:1" d="M 671.91728,455.32869 L 554.33257,327.47952 L 531.81635,346.9687 L 400.88884,205.86692 L 400.88884,591 L 671.91728,561 L 671.91728,455.32869 z " id="path3720" sodipodi:nodetypes="ccccccc"/>
  </g>
  <g id="g3729" style="fill:#1e1e1e;fill-opacity:1" transform="matrix(0.7499217,0,0,0.6662102,0,8.6914063e-6)">
    <path sodipodi:nodetypes="ccccc" id="path3664" d="M 0,38.892956 C 0,38.892956 29,461.19444 401,570.19444 C 401,582.15436 400.87134,585.90344 400.87134,600.41106 C 292.80014,600.41106 0,599.9347 0,599.9347 L 0,38.892956 z " style="fill:#1e1e1e;fill-opacity:1;fill-rule:evenodd;stroke:none;stroke-width:1px;stroke-linecap:butt;stroke-linejoin:miter;stroke-opacity:1"/>
    <path style="fill:#1e1e1e;fill-opacity:1;fill-rule:evenodd;stroke:none;stroke-width:1px;stroke-linecap:butt;stroke-linejoin:miter;stroke-opacity:1" d="M 800.08353,38.892956 C 800.08353,38.892956 771.08353,461.19444 399.08353,570.19444 C 399.08353,582.15436 399.21219,585.90344 399.21219,600.41106 C 507.28339,600.41106 800.08353,599.9347 800.08353,599.9347 L 800.08353,38.892956 z " id="path3668" sodipodi:nodetypes="ccccc"/>
  </g>
  <g id="g3749" transform="matrix(0.4560749,0,0,0.4051646,117.09798,106.37612)">
    <path transform="matrix(1.1342593,0,0,1.1342593,8.314815,72.893519)" sodipodi:type="arc" style="fill:#000000;fill-opacity:1;stroke:none;stroke-width:10;stroke-linecap:square;stroke-linejoin:miter;stroke-miterlimit:4;stroke-dasharray:none;stroke-dashoffset:0;stroke-opacity:1" id="path3747" sodipodi:cx="344" sodipodi:cy="295" sodipodi:rx="108" sodipodi:ry="108" d="M 452,295 A 108,108 0 1 1 451.99964,294.71933" sodipodi:start="0" sodipodi:end="6.2805865" sodipodi:open="true"/>
    <path transform="translate(54,102)" sodipodi:open="true" sodipodi:end="6.2805865" sodipodi:start="0" d="M 452,295 A 108,108 0 1 1 451.99964,294.71933" sodipodi:ry="108" sodipodi:rx="108" sodipodi:cy="295" sodipodi:cx="344" id="path3745" style="fill:#9dbdda;fill-opacity:1;stroke:none;stroke-width:10;stroke-linecap:square;stroke-linejoin:miter;stroke-miterlimit:4;stroke-dasharray:none;stroke-dashoffset:0;stroke-opacity:1" sodipodi:type="arc"/>
  </g>
</svg>