<svg xmlns:dc="http://purl.org/dc/elements/1.1/" xmlns:cc="http://creativecommons.org/ns#" xmlns:rdf="http://www.w3.org/1999/02/22-rdf-syntax-ns#" xmlns:svg="http://www.w3.org/2000/svg" xmlns="http://www.w3.org/2000/svg" xmlns:sodipodi="http://sodipodi.sourceforge.net/DTD/sodipodi-0.dtd" xmlns:inkscape="http://www.inkscape.org/namespaces/inkscape" id="Layer_1" data-name="Layer 1" viewBox="0 0 448.62 800.09003" version="1.1" sodipodi:docname="CLB-Logo-2021-Reversed (copy).svg" width="448.62" height="800.09003" inkscape:version="1.0.1 (3bc2e813f5, 2020-09-07)">
  <metadata id="metadata20">
    <rdf:RDF>
      <cc:Work rdf:about="">
        <dc:format>image/svg+xml</dc:format>
        <dc:type rdf:resource="http://purl.org/dc/dcmitype/StillImage"/>
      </cc:Work>
    </rdf:RDF>
  </metadata>
  <sodipodi:namedview pagecolor="#ffffff" bordercolor="#666666" borderopacity="1" objecttolerance="10" gridtolerance="10" guidetolerance="10" inkscape:pageopacity="0" inkscape:pageshadow="2" inkscape:window-width="1920" inkscape:window-height="1136" id="namedview18" showgrid="false" inkscape:zoom="1.1158858" inkscape:cx="1.267453" inkscape:cy="361.00808" inkscape:window-x="0" inkscape:window-y="27" inkscape:window-maximized="1" inkscape:current-layer="Layer_1"/>
  <defs id="defs4">
    <style id="style2">.cls-1{fill:#fedd00;}.cls-2{fill:#fff;}</style>
  </defs>
  <title id="title6">CLB-Logo-New-Reversed</title>
  <g id="CREST_FC" data-name="CREST FC" transform="translate(-175.69,0.04)">
    <g id="SHIELD">
      <polygon id="OUTLINE" class="cls-1" points="175.69,94.67 624.31,94.67 556.87,736.22 400,645.65 243.12,736.22 "/>
      <path id="FLAG" d="M 195.74,112.73 258.17,706.68 400,624.8 541.82,706.68 604.25,112.73 Z"/>
    </g>
    <g id="DETAIL">
      <path class="cls-2" d="M 556.07,270.28 565,185.07 494.2,144.18 H 305.79 l -70.79,40.89 49.42,470.16 246.13,-142.12 11,-104.71 -70.82,-40.89 -9.15,87.07 -116.12,67 -30.72,-292.23 h 170.51 l -9.15,87.07 z m -91.52,363.14 -7.9,-4.51 v -6.85 l 7.89,-4.58 0.14,8 15.68,-0.09 -0.09,-16.46 -10.27,6.15 -13.3,-7.55 v -23.77 l 7.89,-4.59 h 15.82 l 8,4.52 v 45.15 l -8,4.59 z m 0.09,-30.63 5.31,3 10.33,-6.06 v -12.59 l -15.59,0.09 z m 39.5,30.63 -7.89,-4.51 -0.05,-45.15 7.89,-4.59 h 15.82 l 8,4.52 v 6.84 l -8,4.58 -0.14,-7.92 -15.68,0.09 0.09,16.38 10.35,-6.06 13.31,7.53 v 23.71 l -8,4.59 z m 0,-20.6 0.05,12.67 15.68,-0.09 -0.09,-15.61 -5.19,-2.93 z" id="path11"/>
      <path class="cls-2" d="M 491.74,800 474,789.84 456.48,800 h -10.29 l -0.09,-66.23 10.29,-6 0.14,60.23 12.47,-7.24 v -47 l 10.33,-0.09 0.09,47.16 12.36,7.17 -0.13,-60.07 10.48,5.8 v 66.31 z m -91.19,0 -0.09,-70.69 31.74,-0.1 6,10.4 -27.37,0.13 0.09,19.8 15.43,-0.09 6,10.39 -21.55,0.16 0.09,19.69 27.2,-0.09 0.09,10.43 z m -20.48,0 -0.07,-25.25 -8.17,-4.69 -12.28,7.1 v 22.75 l -10.33,0.09 -0.09,-70.69 30.92,-0.1 10.4,5.9 v 24.12 l -8.36,4.85 8.32,4.61 V 800 Z M 359.57,765.22 380,753.17 v -13.52 l -20.41,0.09 z m -51.41,34.78 -10.29,-5.9 -0.05,-58.91 10.29,-6 h 20.64 l 10.39,5.9 0.05,8.91 -10.39,6 -0.14,-10.33 -20.5,0.09 0.09,49.92 20.5,-0.09 -0.09,-10.25 10.48,5.8 0.05,8.91 -10.42,6 z M 573.32,72.18 563,66.28 v -8.9 l 10.29,-6 0.14,10.43 20.5,-0.09 L 593.84,47.2 563,29.47 V 7.38 l 10.29,-6 h 20.64 L 604.3,7.3 v 8.9 l -10.39,6 -0.13,-10.33 -20.5,0.09 0.09,11.58 30.93,17.64 v 25 l -10.41,6 z m -51.33,0 -10.29,-5.9 V 5.96 l 10.28,-6 0.14,61.85 20.5,-0.09 -0.13,-61.64 10.51,5.8 v 60.33 l -10.41,6 z m -61.57,0 -0.09,-70.68 30.92,-0.09 10.39,5.89 0.05,21.58 -8.36,4.85 8.31,4.61 0.05,27.87 -10.41,6 z m 10.29,-25.37 v 15 l 20.5,-0.09 -0.09,-17.36 -8.12,-4.62 z m 0,-11.94 20.46,-11.95 V 11.84 l -20.41,0.09 z M 439.92,72.18 439.83,13.47 427,21.05 v 51 l -10.33,0.09 -0.06,-51.14 -13,-7.43 0.13,58.55 -10.33,0.09 L 393.28,1.5 403.61,1.41 421.81,12 439.88,1.42 h 10.39 l 0.09,70.77 z m -87.63,0 L 342,66.28 V 6 l 10.29,-6 0.14,61.85 20.5,-0.09 -0.14,-61.68 10.48,5.8 v 60.33 l -10.41,6 z m -53.86,0 -0.09,-70.68 10.33,-0.09 0.09,60.44 27.24,-0.09 -5.83,10.42 z m -41.09,0 -10.29,-5.9 V 7.38 l 10.29,-6 h 20.63 l 10.4,5.89 v 58.91 l -10.41,6 z m 0.09,-10.33 20.5,-0.09 -0.09,-49.92 -20.41,0.09 z M 206,72.18 195.71,66.28 V 7.38 l 10.29,-6 h 20.64 L 237,7.3 v 8.9 l -10.39,6 -0.13,-10.33 -20.5,0.09 0.09,49.92 20.5,-0.09 -0.09,-10.26 10.52,5.77 v 8.91 l -10.41,6 z" id="path13" style="fill:#000000"/>
    </g>
  </g>
</svg>