<svg xmlns:dc="http://purl.org/dc/elements/1.1/" xmlns:cc="http://web.resource.org/cc/" xmlns:rdf="http://www.w3.org/1999/02/22-rdf-syntax-ns#" xmlns:svg="http://www.w3.org/2000/svg" xmlns="http://www.w3.org/2000/svg" xmlns:sodipodi="http://inkscape.sourceforge.net/DTD/sodipodi-0.dtd" xmlns:inkscape="http://www.inkscape.org/namespaces/inkscape" id="svg2" sodipodi:version="0.32" inkscape:version="0.43" width="280pt" height="300pt" version="1.0" sodipodi:docbase="D:\obrazki\svg\anato\tractus_intestinalis\organa\gotowe" sodipodi:docname="tractus_intestinalis_colon.svg">
  <metadata id="metadata7">
    <rdf:RDF>
      <cc:Work rdf:about="">
        <dc:format>image/svg+xml</dc:format>
        <dc:type rdf:resource="http://purl.org/dc/dcmitype/StillImage"/>
      </cc:Work>
    </rdf:RDF>
  </metadata>
  <defs id="defs5"/>
  <sodipodi:namedview inkscape:window-height="671" inkscape:window-width="1024" inkscape:pageshadow="2" inkscape:pageopacity="0.0" borderopacity="1.0" bordercolor="#666666" pagecolor="#ffffff" id="base" borderlayer="top" inkscape:zoom="0.5" inkscape:cx="200.62013" inkscape:cy="195.11583" inkscape:window-x="-4" inkscape:window-y="-4" inkscape:current-layer="layer6" showguides="true" inkscape:guide-bbox="true"/>
  <g inkscape:groupmode="layer" id="layer3" inkscape:label="g" style="display:inline"/>
  <g inkscape:groupmode="layer" id="layer2" inkscape:label="s" style="display:inline"/>
  <g inkscape:groupmode="layer" id="layer1" inkscape:label="d" style="display:inline"/>
  <g inkscape:groupmode="layer" id="layer4" inkscape:label="sc" style="display:inline"/>
  <g inkscape:groupmode="layer" id="layer7" inkscape:label="git2" style="display:inline"/>
  <g inkscape:groupmode="layer" id="layer6" inkscape:label="git" style="display:inline">
    <path style="fill:#eaebeb;fill-opacity:1;fill-rule:evenodd;stroke:none;stroke-width:2.13420391;stroke-linecap:butt;stroke-linejoin:miter;stroke-miterlimit:4;stroke-dasharray:none;stroke-opacity:1;display:inline" d="M 168.032,356.86263 C 165.07841,359.17438 178.20948,360.27872 176.18313,356.99776 C 174.15678,353.71679 178.38688,352.74972 179.98172,351.69347 C 185.31838,348.15907 189.73663,341.24942 191.22894,333.63573 C 194.99266,314.43352 188.27007,276.73052 181.12558,259.89162 C 179.60997,256.31945 180.06447,254.00354 180.57007,252.90937 C 181.07566,251.81521 181.17399,251.67524 182.51436,251.372 C 183.89018,251.32757 186.95378,257.90155 195.78272,255.47506 C 199.26291,260.0929 210.19269,271.91651 217.85877,271.4196 C 222.43111,277.61698 226.31704,281.48738 233.59602,280.82395 C 235.312,285.45995 243.0224,286.6199 252.59241,280.39699 C 258.28749,279.79563 264.29833,281.51439 268.35523,272.36675 C 275.11083,271.99014 280.37237,267.43851 283.31605,258.42059 C 291.21647,256.58905 295.75793,247.50553 297.65061,240.46331 C 300.60545,237.75137 302.46313,239.15326 304.4276,237.66487 C 308.18579,234.81743 310.89716,230.01761 312.74036,223.73028 C 323.48383,219.19606 323.14275,217.66625 322.43379,210.20168 C 327.94863,205.12098 327.44481,201.16516 325.38494,195.59661 C 328.78066,190.02806 329.91219,183.41526 326.70428,175.89898 C 329.80913,170.71267 330.36869,165.10669 327.03055,159.18927 C 329.75692,154.08531 328.72941,150.15595 325.23657,144.34452 C 327.98589,137.95551 328.43117,131.57504 323.68489,125.2758 C 327.14843,117.1864 328.06936,109.23098 320.72019,101.56349 C 321.26418,93.117304 323.81306,87.582788 315.81812,80.041132 C 314.95697,76.739806 311.80517,73.54486 310.80057,70.47356 C 313.45726,65.99356 313.11743,59.214321 308.12937,55.314031 C 310.3121,51.76508 306.89295,49.388203 303.80951,47.097807 C 305.61053,38.883082 298.63199,35.81837 292.45261,32.939699 C 289.3419,28.174833 289.12543,22.793361 277.12489,23.669714 C 274.73094,21.301258 261.0693,18.962566 254.16553,23.649082 C 246.2543,22.574267 241.13393,28.029 238.0655,34.751633 C 228.8368,39.482201 225.99462,45.707006 223.96589,51.40522 C 216.13887,52.923799 211.89038,57.53401 209.11932,63.157919 C 202.32,63.859363 196.87968,67.096161 191.79205,70.997251 C 182.70351,69.783259 177.5291,72.614123 171.8902,74.851523 C 168.88341,72.342333 153.34616,73.486065 148.91384,75.173286 C 142.61786,72.211266 136.08241,70.987952 129.33263,73.301746 C 123.72273,69.66308 117.96478,69.862653 112.07318,70.768936 C 108.97989,68.142978 105.09802,66.269638 97.695011,68.33553 C 92.092623,65.36181 87.063656,64.778146 82.348709,65.627267 C 78.706398,60.965771 72.914325,60.867501 66.037294,63.881484 C 60.956865,61.308477 55.366698,62.985333 49.538817,67.869267 C 44.744554,67.235128 40.626492,68.698834 41.288639,73.581257 C 39.853153,79.538006 37.168345,78.760045 35.358633,80.998734 C 29.535651,84.285195 26.172341,89.12391 29.511387,95.870507 C 24.709568,99.351031 27.426141,103.03587 27.943311,106.88019 C 22.156883,111.63769 25.898985,116.47115 26.736763,121.37902 C 20.786369,126.69071 24.340287,132.08958 25.215884,137.57365 C 21.826309,141.68729 22.369166,145.84888 24.3096,150.05758 C 21.971486,154.8122 21.776146,159.62695 23.90951,164.50065 C 20.287076,169.41823 22.756457,174.39583 24.564269,179.43221 C 20.626926,184.10213 22.664864,188.82257 26.475417,193.59259 C 23.407294,197.99893 26.02032,202.44758 29.644565,206.93776 C 29.394829,211.49446 28.173082,215.5869 34.338047,219.27277 C 33.91767,224.42413 36.820861,227.63173 40.518967,230.06002 C 40.292652,237.26016 45.524769,240.72695 50.684559,243.00203 C 62.497875,256.93791 90.971301,247.07706 76.828314,220.77413 C 77.481007,215.19859 75.798052,211.84942 69.404049,210.54319 C 69.824837,207.62269 68.296581,203.89791 63.947394,198.41813 C 65.234591,193.93381 65.335928,189.40645 61.016282,184.82631 C 62.704437,180.51984 63.890643,176.16672 59.822344,171.75883 C 62.359931,166.86787 64.138634,161.90948 59.825288,156.87261 C 61.910844,152.92663 63.429901,148.93246 60.49689,144.88481 C 63.75382,136.13088 60.857339,132.53691 57.436933,128.22492 C 57.707579,125.14547 57.979412,122.03343 58.236959,118.88672 C 58.507148,115.58544 63.205708,112.24599 63.426602,108.86596 C 64.239082,96.433385 66.602694,96.659522 65.995842,96.951299 C 65.355704,97.365911 68.153426,100.00635 75.682572,97.848106 C 79.241111,101.74911 84.700288,101.3057 90.327319,100.476 C 95.374384,102.98219 100.42619,104.74386 105.4826,103.12843 C 109.77932,106.38491 114.57616,107.76258 120.35915,105.42829 C 124.74413,107.74152 129.42243,109.16577 135.28423,107.19782 C 142.03562,110.31433 148.7946,111.23201 155.56086,108.32234 C 162.28155,111.53838 169.00941,110.43374 175.74406,107.45671 C 181.91876,109.74772 188.07723,109.66062 194.17415,104.24481 C 200.66981,105.51823 207.09564,104.35128 213.3968,97.705661 C 218.06399,96.738672 222.66279,97.342468 227.17095,90.625424 C 233.73225,88.63466 240.21474,86.345187 244.95056,77.759436 C 249.98217,76.15723 255.41378,74.56259 255.17591,67.940205 C 259.44169,61.315277 272.33438,58.415285 275.42364,68.189563 C 272.53708,78.029692 277.23505,92.845359 283.28246,101.8017 C 279.99923,109.84789 283.22355,117.26471 287.01647,124.83136 C 284.11719,130.84262 286.15278,135.81785 288.9505,140.63429 C 285.47868,148.13874 288.88531,150.45355 291.4679,156.42009 C 288.87331,163.02574 288.0411,169.21183 291.15155,174.77798 C 287.926,181.76952 289.16046,187.80623 290.00581,192.29765 C 289.51307,196.78908 288.54419,200.29929 288.89479,199.37599 C 281.15297,205.65963 281.75886,210.88572 280.03907,214.99851 C 270.77303,217.20657 267.93532,226.19274 266.74377,229.39997 C 261.84832,228.20168 254.25168,232.38604 252.1243,240.54466 C 245.27205,241.88442 239.86525,242.82612 236.88406,243.48267 C 233.53688,237.12169 227.39768,226.16021 219.47844,229.39953 C 216.58401,221.31778 205.71387,218.41231 201.92607,221.39353 C 193.11975,212.98797 183.53803,213.94761 174.04281,219.50347 C 162.16393,222.191 152.41193,230.22431 147.86433,240.06588 C 143.31674,249.90744 143.52017,281.30423 148.00321,291.87035 C 153.60535,305.07407 149.31702,304.87457 155.67621,332.41864 C 158.09931,342.91399 161.81708,349.05732 165.96126,352.004 C 167.82428,353.32867 170.98558,354.55087 168.032,356.86263 z " id="path4367" sodipodi:nodetypes="ccccccccccccccscccccccccccccccccccccccccccccccccccccccccccccccccccccccccccccccccccccccccccccccccccc"/>
    <path style="fill:#eaa665;fill-opacity:1;fill-rule:evenodd;stroke:none;stroke-width:2.13420391;stroke-linecap:butt;stroke-linejoin:miter;stroke-miterlimit:4;stroke-dasharray:none;stroke-opacity:1;display:inline" d="M 181.12558,259.89162 C 179.60997,256.31945 180.06447,254.00354 180.57007,252.90937 C 181.07566,251.81521 181.17399,251.67524 182.51436,251.372 C 183.89018,251.32757 186.95378,257.90155 195.78272,255.47506 C 199.26291,260.0929 210.19269,271.91651 217.85877,271.4196 C 222.43111,277.61698 226.31704,281.48738 233.59602,280.82395 C 235.312,285.45995 243.0224,286.6199 252.59241,280.39699 C 258.28749,279.79563 264.29833,281.51439 268.35523,272.36675 C 275.11083,271.99014 280.37237,267.43851 283.31605,258.42059 C 291.21647,256.58905 295.75793,247.50553 297.65061,240.46331 C 300.60545,237.75137 302.46313,239.15326 304.4276,237.66487 C 308.18579,234.81743 310.89716,230.01761 312.74036,223.73028 C 323.48383,219.19606 323.14275,217.66625 322.43379,210.20168 C 327.94863,205.12098 327.44481,201.16516 325.38494,195.59661 C 328.78066,190.02806 329.91219,183.41526 326.70428,175.89898 C 329.80913,170.71267 330.36869,165.10669 327.03055,159.18927 C 329.75692,154.08531 328.72941,150.15595 325.23657,144.34452 C 327.98589,137.95551 328.43117,131.57504 323.68489,125.2758 C 327.14843,117.1864 328.06936,109.23098 320.72019,101.56349 C 321.26418,93.117304 323.81306,87.582788 315.81812,80.041132 C 314.95697,76.739806 311.80517,73.54486 310.80057,70.47356 C 313.45726,65.99356 313.11743,59.214321 308.12937,55.314031 C 310.3121,51.76508 306.89295,49.388203 303.80951,47.097807 C 305.61053,38.883082 298.63199,35.81837 292.45261,32.939699 C 289.3419,28.174833 289.12543,22.793361 277.12489,23.669714 C 274.73094,21.301258 261.0693,18.962566 254.16553,23.649082 C 246.2543,22.574267 241.13393,28.029 238.0655,34.751633 C 228.8368,39.482201 225.99462,45.707006 223.96589,51.40522 C 216.13887,52.923799 211.89038,57.53401 209.11932,63.157919 C 202.32,63.859363 196.87968,67.096161 191.79205,70.997251 C 182.70351,69.783259 177.5291,72.614123 171.8902,74.851523 C 168.88341,72.342333 153.34616,73.486065 148.91384,75.173286 C 142.61786,72.211266 136.08241,70.987952 129.33263,73.301746 C 123.72273,69.66308 117.96478,69.862653 112.07318,70.768936 C 108.97989,68.142978 105.09802,66.269638 97.695011,68.33553 C 92.092623,65.36181 87.063656,64.778146 82.348709,65.627267 C 78.706398,60.965771 72.914325,60.867501 66.037294,63.881484 C 60.956865,61.308477 55.366698,62.985333 49.538817,67.869267 C 44.744554,67.235128 40.626492,68.698834 41.288639,73.581257 C 39.853153,79.538006 37.168345,78.760045 35.358633,80.998734 C 29.535651,84.285195 26.172341,89.12391 29.511387,95.870507 C 24.709568,99.351031 27.426141,103.03587 27.943311,106.88019 C 22.156883,111.63769 25.898985,116.47115 26.736763,121.37902 C 20.786369,126.69071 24.340287,132.08958 25.215884,137.57365 C 21.826309,141.68729 22.369166,145.84888 24.3096,150.05758 C 21.971486,154.8122 21.776146,159.62695 23.90951,164.50065 C 20.287076,169.41823 22.756457,174.39583 24.564269,179.43221 C 20.626926,184.10213 22.664864,188.82257 26.475417,193.59259 C 23.407294,197.99893 26.02032,202.44758 29.644565,206.93776 C 29.394829,211.49446 28.173082,215.5869 34.338047,219.27277 C 33.91767,224.42413 36.820861,227.63173 40.518967,230.06002 C 40.292652,237.26016 75.798052,211.84942 69.404049,210.54319 C 69.824837,207.62269 68.296581,203.89791 63.947394,198.41813 C 65.234591,193.93381 65.335928,189.40645 61.016282,184.82631 C 62.704437,180.51984 63.890643,176.16672 59.822344,171.75883 C 62.359931,166.86787 64.138634,161.90948 59.825288,156.87261 C 61.910844,152.92663 63.429901,148.93246 60.49689,144.88481 C 63.75382,136.13088 60.857339,132.53691 57.436933,128.22492 C 57.707579,125.14547 57.979412,122.03343 58.236959,118.88672 C 58.507148,115.58544 63.205708,112.24599 63.426602,108.86596 C 64.239082,96.433385 66.602694,96.659522 65.995842,96.951299 C 65.355704,97.365911 68.153426,100.00635 75.682572,97.848106 C 79.241111,101.74911 84.700288,101.3057 90.327319,100.476 C 95.374384,102.98219 100.42619,104.74386 105.4826,103.12843 C 109.77932,106.38491 114.57616,107.76258 120.35915,105.42829 C 124.74413,107.74152 129.42243,109.16577 135.28423,107.19782 C 142.03562,110.31433 148.7946,111.23201 155.56086,108.32234 C 162.28155,111.53838 169.00941,110.43374 175.74406,107.45671 C 181.91876,109.74772 188.07723,109.66062 194.17415,104.24481 C 200.66981,105.51823 207.09564,104.35128 213.3968,97.705661 C 218.06399,96.738672 222.66279,97.342468 227.17095,90.625424 C 233.73225,88.63466 240.21474,86.345187 244.95056,77.759436 C 249.98217,76.15723 255.41378,74.56259 255.17591,67.940205 C 259.44169,61.315277 272.33438,58.415285 275.42364,68.189563 C 272.53708,78.029692 277.23505,92.845359 283.28246,101.8017 C 279.99923,109.84789 283.22355,117.26471 287.01647,124.83136 C 284.11719,130.84262 286.15278,135.81785 288.9505,140.63429 C 285.47868,148.13874 288.88531,150.45355 291.4679,156.42009 C 288.87331,163.02574 288.0411,169.21183 291.15155,174.77798 C 287.926,181.76952 289.16046,187.80623 290.00581,192.29765 C 289.51307,196.78908 288.54419,200.29929 288.89479,199.37599 C 281.15297,205.65963 281.75886,210.88572 280.03907,214.99851 C 270.77303,217.20657 267.93532,226.19274 266.74377,229.39997 C 261.84832,228.20168 254.25168,232.38604 252.1243,240.54466 C 245.27205,241.88442 239.86525,242.82612 236.88406,243.48267 C 233.53688,237.12169 227.39768,226.16021 219.47844,229.39953 C 216.58401,221.31778 205.71387,218.41231 201.92607,221.39353 C 193.11975,212.98797 183.53803,213.94761 174.04281,219.50347 C 162.16393,222.191 188.27007,276.73052 181.12558,259.89162 z " id="path5242" sodipodi:nodetypes="ccccccccccscccccccccccccccccccccccccccccccccccccccccccccccccccccccccccccccccccccccccccccc"/>
    <g id="g28229" transform="matrix(1,0,0,0.922499,-5.000025,44.19004)"/>
    <path style="color:#000000;fill:#eaebeb;fill-opacity:1;fill-rule:evenodd;stroke:#000000;stroke-width:2.13420391;stroke-linecap:butt;stroke-linejoin:miter;marker:none;marker-start:none;marker-mid:none;marker-end:none;stroke-miterlimit:4;stroke-dasharray:none;stroke-dashoffset:0;stroke-opacity:1;visibility:visible;display:inline;overflow:visible" d="M 67.961586,247.11952 C 75.985625,253.33223 73.454371,270.53124 75.817706,269.22367 C 82.088663,265.75408 78.157586,253.64595 73.853673,245.30769" id="path28237" sodipodi:nodetypes="csc"/>
    <path style="fill:none;fill-opacity:1;fill-rule:evenodd;stroke:#000000;stroke-width:2.13420391;stroke-linecap:butt;stroke-linejoin:miter;stroke-miterlimit:4;stroke-dasharray:none;stroke-opacity:1" d="M 168.032,356.86263 C 165.07841,359.17438 178.20948,360.27872 176.18313,356.99776 C 174.15678,353.71679 178.38688,352.74972 179.98172,351.69347 C 185.31838,348.15907 189.73663,341.24942 191.22894,333.63573 C 194.99266,314.43352 188.27007,276.73052 181.12558,259.89162 C 179.60997,256.31945 180.06447,254.00354 180.57007,252.90937 C 181.07566,251.81521 181.17399,251.67524 182.51436,251.372 C 183.89018,251.32757 186.95378,257.90155 195.78272,255.47506 C 199.26291,260.0929 210.19269,271.91651 217.85877,271.4196 C 222.43111,277.61698 226.31704,281.48738 233.59602,280.82395 C 235.312,285.45995 243.0224,286.6199 252.59241,280.39699 C 258.28749,279.79563 264.29833,281.51439 268.35523,272.36675 C 275.11083,271.99014 280.37237,267.43851 283.31605,258.42059 C 291.21647,256.58905 295.75793,247.50553 297.65061,240.46331 C 300.60545,237.75137 302.46313,239.15326 304.4276,237.66487 C 308.18579,234.81743 310.89716,230.01761 312.74036,223.73028 C 323.48383,219.19606 323.14275,217.66625 322.43379,210.20168 C 327.94863,205.12098 327.44481,201.16516 325.38494,195.59661 C 328.78066,190.02806 329.91219,183.41526 326.70428,175.89898 C 329.80913,170.71267 330.36869,165.10669 327.03055,159.18927 C 329.75692,154.08531 328.72941,150.15595 325.23657,144.34452 C 327.98589,137.95551 328.43117,131.57504 323.68489,125.2758 C 327.14843,117.1864 328.06936,109.23098 320.72019,101.56349 C 321.26418,93.117304 323.81306,87.582788 315.81812,80.041132 C 314.95697,76.739806 311.80517,73.54486 310.80057,70.47356 C 313.45726,65.99356 313.11743,59.214321 308.12937,55.314031 C 310.3121,51.76508 306.89295,49.388203 303.80951,47.097807 C 305.61053,38.883082 298.63199,35.81837 292.45261,32.939699 C 289.3419,28.174833 289.12543,22.793361 277.12489,23.669714 C 274.73094,21.301258 261.0693,18.962566 254.16553,23.649082 C 246.2543,22.574267 241.13393,28.029 238.0655,34.751633 C 228.8368,39.482201 225.99462,45.707006 223.96589,51.40522 C 216.13887,52.923799 211.89038,57.53401 209.11932,63.157919 C 202.32,63.859363 196.87968,67.096161 191.79205,70.997251 C 182.70351,69.783259 177.5291,72.614123 171.8902,74.851523 C 168.88341,72.342333 153.34616,73.486065 148.91384,75.173286 C 142.61786,72.211266 136.08241,70.987952 129.33263,73.301746 C 123.72273,69.66308 117.96478,69.862653 112.07318,70.768936 C 108.97989,68.142978 105.09802,66.269638 97.695011,68.33553 C 92.092623,65.36181 87.063656,64.778146 82.348709,65.627267 C 78.706398,60.965771 72.914325,60.867501 66.037294,63.881484 C 60.956865,61.308477 55.366698,62.985333 49.538817,67.869267 C 44.744554,67.235128 40.626492,68.698834 41.288639,73.581257 C 39.853153,79.538006 37.168345,78.760045 35.358633,80.998734 C 29.535651,84.285195 26.172341,89.12391 29.511387,95.870507 C 24.709568,99.351031 27.426141,103.03587 27.943311,106.88019 C 22.156883,111.63769 25.898985,116.47115 26.736763,121.37902 C 20.786369,126.69071 24.340287,132.08958 25.215884,137.57365 C 21.826309,141.68729 22.369166,145.84888 24.3096,150.05758 C 21.971486,154.8122 21.776146,159.62695 23.90951,164.50065 C 20.287076,169.41823 22.756457,174.39583 24.564269,179.43221 C 20.626926,184.10213 22.664864,188.82257 26.475417,193.59259 C 23.407294,197.99893 26.02032,202.44758 29.644565,206.93776 C 29.394829,211.49446 28.173082,215.5869 34.338047,219.27277 C 33.91767,224.42413 36.820861,227.63173 40.518967,230.06002 C 40.292652,237.26016 45.524769,240.72695 50.684559,243.00203 C 62.497875,256.93791 90.971301,247.07706 76.828314,220.77413 C 77.481007,215.19859 75.798052,211.84942 69.404049,210.54319 C 69.824837,207.62269 68.296581,203.89791 63.947394,198.41813 C 65.234591,193.93381 65.335928,189.40645 61.016282,184.82631 C 62.704437,180.51984 63.890643,176.16672 59.822344,171.75883 C 62.359931,166.86787 64.138634,161.90948 59.825288,156.87261 C 61.910844,152.92663 63.429901,148.93246 60.49689,144.88481 C 63.75382,136.13088 60.857339,132.53691 57.436933,128.22492 C 57.707579,125.14547 57.979412,122.03343 58.236959,118.88672 C 58.507148,115.58544 63.205708,112.24599 63.426602,108.86596 C 64.239082,96.433385 66.602694,96.659522 65.995842,96.951299 C 65.355704,97.365911 68.153426,100.00635 75.682572,97.848106 C 79.241111,101.74911 84.700288,101.3057 90.327319,100.476 C 95.374384,102.98219 100.42619,104.74386 105.4826,103.12843 C 109.77932,106.38491 114.57616,107.76258 120.35915,105.42829 C 124.74413,107.74152 129.42243,109.16577 135.28423,107.19782 C 142.03562,110.31433 148.7946,111.23201 155.56086,108.32234 C 162.28155,111.53838 169.00941,110.43374 175.74406,107.45671 C 181.91876,109.74772 188.07723,109.66062 194.17415,104.24481 C 200.66981,105.51823 207.09564,104.35128 213.3968,97.705661 C 218.06399,96.738672 222.66279,97.342468 227.17095,90.625424 C 233.73225,88.63466 240.21474,86.345187 244.95056,77.759436 C 249.98217,76.15723 255.41378,74.56259 255.17591,67.940205 C 259.44169,61.315277 272.33438,58.415285 275.42364,68.189563 C 272.53708,78.029692 277.23505,92.845359 283.28246,101.8017 C 279.99923,109.84789 283.22355,117.26471 287.01647,124.83136 C 284.11719,130.84262 286.15278,135.81785 288.9505,140.63429 C 285.47868,148.13874 288.88531,150.45355 291.4679,156.42009 C 288.87331,163.02574 288.0411,169.21183 291.15155,174.77798 C 287.926,181.76952 289.16046,187.80623 290.00581,192.29765 C 289.51307,196.78908 288.54419,200.29929 288.89479,199.37599 C 281.15297,205.65963 281.75886,210.88572 280.03907,214.99851 C 270.77303,217.20657 267.93532,226.19274 266.74377,229.39997 C 261.84832,228.20168 254.25168,232.38604 252.1243,240.54466 C 245.27205,241.88442 239.86525,242.82612 236.88406,243.48267 C 233.53688,237.12169 227.39768,226.16021 219.47844,229.39953 C 216.58401,221.31778 205.71387,218.41231 201.92607,221.39353 C 193.11975,212.98797 183.53803,213.94761 174.04281,219.50347 C 162.16393,222.191 152.41193,230.22431 147.86433,240.06588 C 143.31674,249.90744 143.52017,281.30423 148.00321,291.87035 C 153.60535,305.07407 149.31702,304.87457 155.67621,332.41864 C 158.09931,342.91399 161.81708,349.05732 165.96126,352.004 C 167.82428,353.32867 170.98558,354.55087 168.032,356.86263 z " id="path16806" sodipodi:nodetypes="ccccccccccccccscccccccccccccccccccccccccccccccccccccccccccccccccccccccccccccccccccccccccccccccccccc"/>
    <g style="display:inline" id="g3454" transform="matrix(1.265165,0,0,1.265165,-168.9052,-53.73327)">
      <path transform="matrix(0.705883,0,0,0.705883,56.37491,45.7353)" d="M 173 172.5 A 16.5 16.5 0 1 1  140,172.5 A 16.5 16.5 0 1 1  173 172.5 z" sodipodi:ry="16.5" sodipodi:rx="16.5" sodipodi:cy="172.5" sodipodi:cx="156.5" id="path3456" style="opacity:1;color:#000000;fill:#ffffff;fill-opacity:1;fill-rule:evenodd;stroke:#000000;stroke-width:1;stroke-linecap:butt;stroke-linejoin:miter;marker:none;marker-start:none;marker-mid:none;marker-end:none;stroke-miterlimit:4;stroke-dasharray:none;stroke-dashoffset:0;stroke-opacity:1;visibility:visible;display:inline;overflow:visible" sodipodi:type="arc"/>
      <text sodipodi:linespacing="125%" id="text3458" y="173.96887" x="161.51259" style="font-size:18px;font-style:normal;font-variant:normal;font-weight:normal;font-stretch:normal;text-align:start;line-height:125%;writing-mode:lr-tb;text-anchor:start;fill:#000000;fill-opacity:1;stroke:none;stroke-width:1px;stroke-linecap:butt;stroke-linejoin:miter;stroke-opacity:1;font-family:Arial" xml:space="preserve"><tspan y="173.96887" x="161.51259" id="tspan3460" sodipodi:role="line">1</tspan></text>
    </g>
    <g style="display:inline" id="g6117" transform="matrix(1.265165,0,0,1.265165,-43.08721,-118.9153)">
      <path transform="matrix(0.705883,0,0,0.705883,56.37491,45.7353)" d="M 173 172.5 A 16.5 16.5 0 1 1  140,172.5 A 16.5 16.5 0 1 1  173 172.5 z" sodipodi:ry="16.5" sodipodi:rx="16.5" sodipodi:cy="172.5" sodipodi:cx="156.5" id="path6119" style="opacity:1;color:#000000;fill:#ffffff;fill-opacity:1;fill-rule:evenodd;stroke:#000000;stroke-width:1;stroke-linecap:butt;stroke-linejoin:miter;marker:none;marker-start:none;marker-mid:none;marker-end:none;stroke-miterlimit:4;stroke-dasharray:none;stroke-dashoffset:0;stroke-opacity:1;visibility:visible;display:inline;overflow:visible" sodipodi:type="arc"/>
      <text sodipodi:linespacing="125%" id="text6121" y="173.96887" x="161.51259" style="font-size:18px;font-style:normal;font-variant:normal;font-weight:normal;font-stretch:normal;text-align:start;line-height:125%;writing-mode:lr-tb;text-anchor:start;fill:#000000;fill-opacity:1;stroke:none;stroke-width:1px;stroke-linecap:butt;stroke-linejoin:miter;stroke-opacity:1;font-family:Arial" xml:space="preserve"><tspan y="173.96887" x="161.51259" id="tspan6123" sodipodi:role="line">2</tspan></text>
    </g>
    <g style="display:inline" id="g6125" transform="matrix(1.265165,0,0,1.265165,96.91279,-64.91529)">
      <path transform="matrix(0.705883,0,0,0.705883,56.37491,45.7353)" d="M 173 172.5 A 16.5 16.5 0 1 1  140,172.5 A 16.5 16.5 0 1 1  173 172.5 z" sodipodi:ry="16.5" sodipodi:rx="16.5" sodipodi:cy="172.5" sodipodi:cx="156.5" id="path6127" style="opacity:1;color:#000000;fill:#ffffff;fill-opacity:1;fill-rule:evenodd;stroke:#000000;stroke-width:1;stroke-linecap:butt;stroke-linejoin:miter;marker:none;marker-start:none;marker-mid:none;marker-end:none;stroke-miterlimit:4;stroke-dasharray:none;stroke-dashoffset:0;stroke-opacity:1;visibility:visible;display:inline;overflow:visible" sodipodi:type="arc"/>
      <text sodipodi:linespacing="125%" id="text6129" y="173.96887" x="161.51259" style="font-size:18px;font-style:normal;font-variant:normal;font-weight:normal;font-stretch:normal;text-align:start;line-height:125%;writing-mode:lr-tb;text-anchor:start;fill:#000000;fill-opacity:1;stroke:none;stroke-width:1px;stroke-linecap:butt;stroke-linejoin:miter;stroke-opacity:1;font-family:Arial" xml:space="preserve"><tspan y="173.96887" x="161.51259" id="tspan6131" sodipodi:role="line">3</tspan></text>
    </g>
    <g style="display:inline" id="g6133" transform="matrix(1.265165,0,0,1.265165,32.91279,51.08471)">
      <path transform="matrix(0.705883,0,0,0.705883,56.37491,45.7353)" d="M 173 172.5 A 16.5 16.5 0 1 1  140,172.5 A 16.5 16.5 0 1 1  173 172.5 z" sodipodi:ry="16.5" sodipodi:rx="16.5" sodipodi:cy="172.5" sodipodi:cx="156.5" id="path6135" style="opacity:1;color:#000000;fill:#ffffff;fill-opacity:1;fill-rule:evenodd;stroke:#000000;stroke-width:1;stroke-linecap:butt;stroke-linejoin:miter;marker:none;marker-start:none;marker-mid:none;marker-end:none;stroke-miterlimit:4;stroke-dasharray:none;stroke-dashoffset:0;stroke-opacity:1;visibility:visible;display:inline;overflow:visible" sodipodi:type="arc"/>
      <text sodipodi:linespacing="125%" id="text6137" y="173.96887" x="161.51259" style="font-size:18px;font-style:normal;font-variant:normal;font-weight:normal;font-stretch:normal;text-align:start;line-height:125%;writing-mode:lr-tb;text-anchor:start;fill:#000000;fill-opacity:1;stroke:none;stroke-width:1px;stroke-linecap:butt;stroke-linejoin:miter;stroke-opacity:1;font-family:Arial" xml:space="preserve"><tspan y="173.96887" x="161.51259" id="tspan6139" sodipodi:role="line">4</tspan></text>
    </g>
  </g>
  <g inkscape:groupmode="layer" id="layer5" inkscape:label="sc2" style="display:inline"/>
</svg>