<svg xmlns:dc="http://purl.org/dc/elements/1.1/" xmlns:cc="http://creativecommons.org/ns#" xmlns:rdf="http://www.w3.org/1999/02/22-rdf-syntax-ns#" xmlns:svg="http://www.w3.org/2000/svg" xmlns="http://www.w3.org/2000/svg" xmlns:inkscape="http://www.inkscape.org/namespaces/inkscape" width="675" height="700" viewBox="0 0 178.59375 185.20834" version="1.1" inkscape:version="0.92.2 5c3e80d, 2017-08-06" inkscape:export-xdpi="384" inkscape:export-ydpi="384">

  <defs id="defs2">
    <filter inkscape:collect="always" style="color-interpolation-filters:sRGB" id="filter6683" x="-0.15971839" width="1.3194368" y="-0.096101665" height="1.1922033">
      <feGaussianBlur inkscape:collect="always" stdDeviation="0.81658169" id="feGaussianBlur6685"/>
    </filter>
    <filter inkscape:collect="always" style="color-interpolation-filters:sRGB" id="filter3655" x="-0.28376488" width="1.5675298" y="-0.12594066" height="1.2518813">
      <feGaussianBlur inkscape:collect="always" stdDeviation="0.69185189" id="feGaussianBlur3657"/>
    </filter>
    <filter inkscape:collect="always" style="color-interpolation-filters:sRGB" id="filter3659" x="-0.35736566" width="1.7147313" y="-0.3841683" height="1.7683366">
      <feGaussianBlur inkscape:collect="always" stdDeviation="0.69185189" id="feGaussianBlur3661"/>
    </filter>
    <filter inkscape:collect="always" style="color-interpolation-filters:sRGB" id="filter3663" x="-0.073878512" width="1.147757" y="-0.064838522" height="1.129677">
      <feGaussianBlur inkscape:collect="always" stdDeviation="0.69185189" id="feGaussianBlur3665"/>
    </filter>
    <filter inkscape:collect="always" style="color-interpolation-filters:sRGB" id="filter3667" x="-0.057553292" width="1.1151066" y="-0.076072926" height="1.1521459">
      <feGaussianBlur inkscape:collect="always" stdDeviation="0.69185189" id="feGaussianBlur3669"/>
    </filter>
    <filter inkscape:collect="always" style="color-interpolation-filters:sRGB" id="filter3671" x="-0.08455969" width="1.1691194" y="-0.079896476" height="1.159793">
      <feGaussianBlur inkscape:collect="always" stdDeviation="0.69185189" id="feGaussianBlur3673"/>
    </filter>
    <filter inkscape:collect="always" style="color-interpolation-filters:sRGB" id="filter3675" x="-0.059376596" width="1.1187532" y="-0.058262295" height="1.1165246">
      <feGaussianBlur inkscape:collect="always" stdDeviation="0.69185189" id="feGaussianBlur3677"/>
    </filter>
    <filter inkscape:collect="always" style="color-interpolation-filters:sRGB" id="filter2286" x="-0.083327537" width="1.1666551" y="-0.4521208" height="1.9042416">
      <feGaussianBlur inkscape:collect="always" stdDeviation="0.59211419" id="feGaussianBlur2288"/>
    </filter>
    <filter inkscape:collect="always" style="color-interpolation-filters:sRGB" id="filter2290" x="-0.048709118" width="1.0974182" y="-0.375299" height="1.750598">
      <feGaussianBlur inkscape:collect="always" stdDeviation="0.59211419" id="feGaussianBlur2292"/>
    </filter>
    <filter inkscape:collect="always" style="color-interpolation-filters:sRGB" id="filter2294" x="-0.035143719" width="1.0702874" y="-0.37423209" height="1.7484642">
      <feGaussianBlur inkscape:collect="always" stdDeviation="0.59211419" id="feGaussianBlur2296"/>
    </filter>
  </defs>

  <g inkscape:groupmode="layer" inkscape:label="shield interior (background)">
    <rect style="fill:none;stroke:none;stroke-width:0.92566317;stroke-linecap:round;stroke-linejoin:round;stroke-dashoffset:0" width="178.59375" height="185.20834" x="0" y="4.4263295e-08"/>
    <path style="fill:#9c8a42;stroke:#000000;stroke-width:2.06375003;stroke-linecap:round;stroke-linejoin:round" d="M 17.707875,6.0897827 H 161.35132 V 89.219595 c 0,47.665535 -47.42469,76.319565 -71.945811,76.015935 -24.521105,-0.30363 -71.917215,-28.41935 -71.730811,-76.146482 0,-30.394679 0.03318,-46.200737 0.03318,-82.9992653 z"/>
  </g>

  <g inkscape:groupmode="layer" inkscape:label="graphical content">
    <g>
      <path d="M 104.01509,112.48244 V 89.64012" style="fill:none;stroke:#000000;stroke-width:1.22899771;stroke-linecap:round;stroke-linejoin:miter"/>
      <path d="M 82.214327,114.3771 V 61.430388" style="fill:none;stroke:#000000;stroke-width:0.92604166;stroke-linecap:round;stroke-linejoin:round"/>
      <path style="fill:none;stroke:#000000;stroke-width:0.94275159;stroke-linecap:round;stroke-linejoin:round" d="M 93.855985,116.83429 V 61.959554"/>
      <path d="m 74.485883,76.882185 h 8.752414 c -2.05673,3.596205 0.293069,8.775697 2.99626,14.263195 H 77.109374 C 74.931801,86.773413 71.680309,80.064546 74.485883,76.882185 Z" style="fill:#ffffff;stroke:#000000;stroke-width:0.92604166;stroke-linecap:butt;stroke-linejoin:round"/>
      <path style="fill:#ffffff;stroke:#000000;stroke-width:0.92604166;stroke-linecap:butt;stroke-linejoin:round" d="m 77.660884,95.667596 h 8.752414 c -1.450408,1.512837 -2.322517,4.596524 -2.322517,6.426454 0,3.11694 0.795165,5.00582 2.143777,7.83671 h -8.860469 c -1.579497,-3.0898 -1.924963,-5.1218 -1.924963,-8.0954 0,-1.70624 0.553673,-4.741464 2.211758,-6.167764 z"/>
      <path d="m 74.485883,76.882185 c 1.436386,-2.778647 6.663533,-5.556766 7.67997,-9.416651 0.237259,4.618991 3.015988,6.370677 1.072444,9.416651 z" style="fill:#000000;stroke:#000000;stroke-width:0.92604166;stroke-linecap:round;stroke-linejoin:round"/>
      <path d="m 103.93884,108.97661 c 0.94957,-5.01833 1.74967,-7.71215 4.85126,-13.850956 -7.60536,3.748048 -9.309245,4.633218 -14.83048,7.309636 3.010144,3.63408 4.361743,5.72673 9.97922,6.54132 z" style="fill:#ffffff;stroke:#000000;stroke-width:0.92604166;stroke-linecap:butt;stroke-linejoin:round"/>
      <path d="m 89.302544,95.641042 h 8.752409 c -1.38621,1.445877 -2.292767,4.707668 -2.292767,6.452998 0,3.07396 0.591544,5.08821 2.114034,7.81017 h -8.860471 c -1.557369,-3.13522 -2.066168,-4.49853 -2.066168,-7.80363 0,-1.86145 0.612477,-4.962356 2.352963,-6.459538 z" style="fill:#ffffff;stroke:#000000;stroke-width:0.92604166;stroke-linecap:butt;stroke-linejoin:round"/>
      <path style="fill:#ffffff;stroke:#000000;stroke-width:0.92604166;stroke-linecap:butt;stroke-linejoin:round" d="m 86.127541,76.855631 h 8.752414 c -2.05673,3.596205 0.293069,8.775697 2.99626,14.263195 h -9.125174 c -2.177573,-4.371967 -5.429074,-11.080834 -2.6235,-14.263195 z"/>
      <path style="fill:#000000;stroke:#000000;stroke-width:0.92604166;stroke-linecap:round;stroke-linejoin:round" d="m 86.127541,76.855631 c 1.436386,-2.778647 6.663533,-5.556766 7.67997,-9.416651 0.237259,4.618991 3.015988,6.370677 1.072444,9.416651 z"/>
      <path d="m 81.003241,61.836617 v 3.212573 c 0,0 -1.416243,-0.897875 -2.038917,-0.715445 -0.977964,0.286523 -1.761853,0.388674 -2.764176,0.407776 -1.509371,0.02876 -3.911246,-1.814509 -3.911246,-1.814509 1.30686,0.373389 2.403213,0.479432 3.873017,0.277946 1.279379,-0.175382 1.465971,-1.144483 2.685045,-1.3546 0.708677,-0.122146 2.156277,-0.01374 2.156277,-0.01374 z" style="fill:#ffffff;stroke:#000000;stroke-width:0.92604166;stroke-linecap:butt;stroke-linejoin:round"/>
      <path style="fill:#ffffff;stroke:#000000;stroke-width:0.92604166;stroke-linecap:butt;stroke-linejoin:round" d="m 92.644895,61.810063 v 3.212573 c 0,0 -1.416243,-0.897875 -2.038917,-0.715445 -0.977964,0.286523 -1.761853,0.388674 -2.764176,0.407776 -1.509371,0.02876 -3.911246,-1.814509 -3.911246,-1.814509 1.30686,0.373389 2.403213,0.479432 3.873017,0.277946 1.279379,-0.175382 1.465971,-1.144483 2.685045,-1.3546 0.708677,-0.122146 2.156277,-0.01374 2.156277,-0.01374 z"/>
      <path d="M 77.151803,94.485941 H 87.275608" style="fill:none;stroke:#000000;stroke-width:0.92604166;stroke-linecap:round;stroke-linejoin:round"/>
      <path style="fill:none;stroke:#000000;stroke-width:0.92604166;stroke-linecap:round;stroke-linejoin:round" d="m 88.793463,94.459387 h 10.12381"/>
      <path d="m 73.448946,122.14494 c -3.625389,-4.73059 -2.549692,-9.20002 1.14609,-13.52388 10.849181,11.78808 24.057137,7.26604 36.292884,-0.68765 -0.18157,5.06952 -0.9919,9.84133 -2.57286,14.65583 -11.622036,2.6535 -23.244075,4.98644 -34.866114,-0.4443 z" style="fill:#ffffff;stroke:#000000;stroke-width:0.92604166;stroke-linecap:round;stroke-linejoin:round"/>
      <path d="M 96.160654,100.21356 109.05418,93.871853" style="fill:none;stroke:#000000;stroke-width:0.92604166;stroke-linecap:round;stroke-linejoin:round"/>
      <path d="m 74.595036,108.62106 c -1.840901,7.44221 -2.615779,13.43766 5.15179,15.4067" style="fill:none;stroke:#000000;stroke-width:0.92604166;stroke-linecap:round;stroke-linejoin:round"/>
      <path d="m 77.818285,114.16619 c 1.462262,1.10656 3.162667,1.89559 4.92819,2.5978" style="fill:none;stroke:#000000;stroke-width:0.66145837;stroke-linecap:round;stroke-linejoin:round"/>
      <path style="fill:none;stroke:#000000;stroke-width:0.66145837;stroke-linecap:round;stroke-linejoin:round" d="m 77.818285,116.54741 c 1.462262,1.10656 3.162667,1.89559 4.92819,2.5978"/>
      <path d="m 108.58715,111.6188 c -1.60444,1.52114 -7.67586,4.35668 -9.639757,4.69051" style="fill:none;stroke:#000000;stroke-width:0.66145837;stroke-linecap:round;stroke-linejoin:round"/>
      <path d="m 87.016701,118.27301 h 1.021652 v 1.51309 h -1.003081 z" style="fill:#000000;stroke:none;stroke-width:0.33709943px;stroke-linecap:butt;stroke-linejoin:miter"/>
      <path style="fill:#000000;stroke:none;stroke-width:0.33709943px;stroke-linecap:butt;stroke-linejoin:miter" d="m 90.985446,118.53759 h 1.021652 v 1.51309 h -1.003081 z"/>
      <path d="m 94.954191,118.27301 h 1.021652 v 1.51309 h -1.003081 z" style="fill:#000000;stroke:none;stroke-width:0.33709943px;stroke-linecap:butt;stroke-linejoin:miter"/>
      <path style="fill:none;stroke:#000000;stroke-width:0.66145837;stroke-linecap:round;stroke-linejoin:round" d="m 108.58715,113.84125 c -1.60444,1.52114 -7.67586,4.35668 -9.639757,4.69051"/>
      <path style="fill:#ffffff;stroke:#000000;stroke-width:0.79374999;stroke-linecap:round;stroke-linejoin:round" d="m 102.9085,89.645629 v 2.998226 c -0.24079,0 -0.62154,0.0011 -1.05568,0.0026 -0.3915,0.0014 -0.82642,0.796796 -1.24123,0.798367 -0.654687,0.0025 -1.259327,-0.259936 -1.564237,-0.259936 -0.006,-1.731612 -0.001,-3.015905 -0.001,-3.015905 0.28152,-2.4e-5 0.85167,0.265299 1.469407,0.266263 0.41689,6.5e-4 0.85546,-0.792348 1.24162,-0.791661 0.64976,0.0012 1.15112,0.0021 1.15112,0.0021 z"/>
      <path d="m 78.41523,89.553081 c -2.208115,-4.455785 -3.743227,-8.396312 -2.650754,-11.426764 -0.02125,-0.05554 0.246833,-0.06187 0.264543,0 -1.090972,2.995758 0.409974,6.895732 2.650682,11.426764 0.04997,0.117864 -0.237155,0.130458 -0.264471,0 z" style="fill:#dceaeb;stroke:#dceaeb;stroke-width:0.02645833;stroke-linecap:round;stroke-linejoin:round"/>
      <path style="fill:#dceaeb;stroke:#dceaeb;stroke-width:0.02645833;stroke-linecap:round;stroke-linejoin:round" d="m 80.664194,89.553081 c -2.208115,-4.455785 -3.743227,-8.396312 -2.650754,-11.426764 -0.02125,-0.05554 0.246833,-0.06187 0.264543,0 -1.090972,2.995758 0.409974,6.895732 2.650682,11.426764 0.04997,0.117864 -0.237155,0.130458 -0.264471,0 z"/>
      <path d="m 82.913144,89.553081 c -2.208115,-4.455785 -3.743227,-8.396312 -2.650754,-11.426764 -0.02125,-0.05554 0.246833,-0.06187 0.264543,0 -1.090972,2.995758 0.409974,6.895732 2.650682,11.426764 0.04997,0.117864 -0.237155,0.130458 -0.264471,0 z" style="fill:#dceaeb;stroke:#dceaeb;stroke-width:0.02645833;stroke-linecap:round;stroke-linejoin:round"/>
      <path style="fill:#dceaeb;stroke:#dceaeb;stroke-width:0.02645833;stroke-linecap:round;stroke-linejoin:round" d="m 90.083355,89.553081 c -2.208115,-4.455785 -3.743227,-8.396312 -2.650754,-11.426764 -0.02125,-0.05554 0.246833,-0.06187 0.264543,0 -1.090972,2.995758 0.409974,6.895732 2.650682,11.426764 0.04997,0.117864 -0.237155,0.130458 -0.264471,0 z"/>
      <path d="m 92.332319,89.553081 c -2.208115,-4.455785 -3.743227,-8.396312 -2.650754,-11.426764 -0.02125,-0.05554 0.246833,-0.06187 0.264543,0 -1.090972,2.995758 0.409974,6.895732 2.650682,11.426764 0.04997,0.117864 -0.237155,0.130458 -0.264471,0 z" style="fill:#dceaeb;stroke:#dceaeb;stroke-width:0.02645833;stroke-linecap:round;stroke-linejoin:round"/>
      <path style="fill:#dceaeb;stroke:#dceaeb;stroke-width:0.02645833;stroke-linecap:round;stroke-linejoin:round" d="m 94.581269,89.553081 c -2.208115,-4.455785 -3.743227,-8.396312 -2.650754,-11.426764 -0.02125,-0.05554 0.246833,-0.06187 0.264543,0 -1.090972,2.995758 0.409974,6.895732 2.650682,11.426764 0.04997,0.117864 -0.237155,0.130458 -0.264471,0 z"/>
      <path style="fill:#dceaeb;stroke:#f8fbfb;stroke-width:0.02645833;stroke-linecap:round;stroke-linejoin:round" d="m 78.679788,108.33836 c -2.055303,-4.63152 -1.254593,-9.641263 0.048,-11.42675 0.127849,-0.138354 0.269697,-0.154531 0.264543,0 -1.219854,1.746702 -2.053229,6.74629 -0.04807,11.42675 0.04997,0.11787 -0.237155,0.13046 -0.264471,0 z"/>
      <path d="m 80.928744,108.33836 c -2.055303,-4.63152 -1.254593,-9.641263 0.048,-11.42675 0.127849,-0.138354 0.269697,-0.154531 0.264543,0 -1.219854,1.746702 -2.053229,6.74629 -0.04807,11.42675 0.04997,0.11787 -0.237155,0.13046 -0.264471,0 z" style="fill:#dceaeb;stroke:#f8fbfb;stroke-width:0.02645833;stroke-linecap:round;stroke-linejoin:round"/>
      <path style="fill:#dceaeb;stroke:#f8fbfb;stroke-width:0.02645833;stroke-linecap:round;stroke-linejoin:round" d="m 83.177703,108.33836 c -2.055303,-4.63152 -1.254593,-9.641263 0.048,-11.42675 0.127849,-0.138354 0.269697,-0.154531 0.264543,0 -1.219854,1.746702 -2.053229,6.74629 -0.04807,11.42675 0.04997,0.11787 -0.237155,0.13046 -0.264471,0 z"/>
      <path d="m 90.374398,108.33836 c -2.055303,-4.63152 -1.254593,-9.641263 0.048,-11.42675 0.127849,-0.138354 0.269697,-0.154531 0.264543,0 -1.219854,1.746702 -2.053229,6.74629 -0.04807,11.42675 0.04997,0.11787 -0.237155,0.13046 -0.264471,0 z" style="opacity:0.53600003;fill:#dceaeb;stroke:#f8fbfb;stroke-width:0.02645833;stroke-linecap:round;stroke-linejoin:round"/>
      <path style="opacity:0.53600003;fill:#dceaeb;stroke:#f8fbfb;stroke-width:0.02645833;stroke-linecap:round;stroke-linejoin:round" d="m 92.623354,108.33836 c -2.055303,-4.63152 -1.254593,-9.641263 0.048,-11.42675 0.127849,-0.138354 0.269697,-0.154531 0.264543,0 -1.219854,1.746702 -2.053229,6.74629 -0.04807,11.42675 0.04997,0.11787 -0.237155,0.13046 -0.264471,0 z"/>
      <path d="m 94.872313,108.33836 c -2.055303,-4.63152 -1.254593,-9.641263 0.048,-11.42675 0.127849,-0.138354 0.269697,-0.154531 0.264543,0 -1.219854,1.746702 -2.053229,6.74629 -0.04807,11.42675 0.04997,0.11787 -0.237155,0.13046 -0.264471,0 z" style="opacity:0.53600003;fill:#dceaeb;stroke:#f8fbfb;stroke-width:0.02645833;stroke-linecap:round;stroke-linejoin:round"/>
      <path style="fill:#ecf4f4;stroke:#ecf4f4;stroke-width:0.02645833;stroke-linecap:round;stroke-linejoin:round" d="m 102.4129,107.28003 c 0.40727,-4.52918 1.96238,-7.27792 2.82618,-9.045503 0.12785,-0.138354 0.26969,-0.154531 0.26454,0 -0.94429,1.803713 -2.51609,4.678773 -2.82628,9.045503 0.05,0.11787 -0.23715,0.13046 -0.26447,0 z"/>
      <path d="m 99.978665,106.48628 c 0.775885,-4.20998 1.389565,-5.27891 2.032425,-6.664253 0.12785,-0.138354 0.26969,-0.154531 0.26454,0 -0.73659,1.382613 -1.26973,2.528613 -2.03253,6.664253 0.05,0.11787 -0.23715,0.13046 -0.264465,0 z" style="fill:#ecf4f4;stroke:#ecf4f4;stroke-width:0.02645833;stroke-linecap:round;stroke-linejoin:round"/>
      <path style="fill:#ecf4f4;stroke:#ecf4f4;stroke-width:0.02645833;stroke-linecap:round;stroke-linejoin:round" d="m 97.915017,105.16336 c 0.197282,-1.44058 0.711492,-3.06212 1.238704,-4.01842 0.12785,-0.13835 0.26969,-0.15453 0.26454,0 -0.565143,0.95929 -1.130088,2.57103 -1.238801,4.01842 0.05,0.11787 -0.237153,0.13046 -0.264473,0 z"/>
    </g>
    <g transform="translate(-2.1166666,2.6458332)">
      <path d="m 64.778683,122.75283 c 1.163152,-1.05764 2.84971,-0.98124 3.457744,-3.24164 1.228585,1.43614 2.384615,1.92986 3.51177,1.6417 1.99477,-0.0625 3.116571,-1.6063 4.214127,-3.46323 1.745743,0.53491 4.10574,2.62686 4.615353,3.35194 2.672527,-1.03118 4.856864,-2.01696 5.835877,-2.8773 2.159992,0.77955 4.08802,2.23117 4.082103,2.80014 1.745104,-0.42113 3.139647,-1.22214 4.359917,-2.13871 2.000839,0.5501 4.022501,1.47485 4.72818,2.50763 3.519656,-1.74507 1.307106,-0.11551 3.716356,-2.58403 3.42186,0.74876 3.79992,-1.05065 4.70038,-1.51277 2.49404,0.78906 3.35947,0.63244 5.53316,2.06615 2.58999,-2.33603 4.38741,-0.26962 6.51492,-0.38581 l 3.64678,22.16959 -24.978695,8.9492 H 84.336548 L 62.2394,138.85295 Z" style="fill:#54989b;stroke:#000000;stroke-width:0.92604166;stroke-linecap:round;stroke-linejoin:round"/>
      <path d="m 78.533419,126.42668 c 1.989336,-0.13708 3.732847,-1.72176 5.726888,-1.72887 1.914719,-0.007 3.596546,1.57725 5.510782,1.62082 1.965041,0.0447 3.761599,-1.43662 5.72689,-1.40471 1.869924,0.0304 3.533662,1.57721 5.402721,1.51276 2.25433,-0.0777 4.12248,-2.15412 6.37521,-2.26914 3.48077,-0.17773 6.48076,1.89346 6.15911,2.21511 -2.88517,-0.56187 -4.71882,-1.3508 -6.26717,-1.02651 -2.16685,0.45383 -3.95129,2.32159 -6.1591,2.48525 -1.846978,0.13691 -3.550772,-1.27745 -5.402718,-1.29665 -2.027493,-0.021 -3.919323,1.42276 -5.942999,1.29665 -1.944208,-0.12116 -3.562835,-1.9331 -5.510779,-1.94498 -2.129911,-0.013 -3.924364,2.17086 -6.051053,2.05304 -1.86627,-0.1034 -5.078563,-2.3772 -5.078563,-2.3772 0,0 3.65579,0.99225 5.510781,0.86443 z" style="fill:#ffffff;stroke:none;stroke-linecap:butt;stroke-linejoin:miter;filter:url(#filter2294)"/>
      <path style="fill:#ffffff;stroke:none;stroke-linecap:butt;stroke-linejoin:miter;filter:url(#filter2290)" d="m 84.789473,132.10608 c 1.914325,-0.0395 3.596546,1.57725 5.510782,1.62082 1.965041,0.0447 3.761599,-1.43662 5.72689,-1.40471 1.869924,0.0304 3.533662,1.57721 5.402715,1.51276 2.25433,-0.0777 4.12464,-2.11761 6.37521,-2.26914 -1.42525,1.76881 -3.18541,3.38921 -6.26716,3.67385 -1.84419,0.17034 -3.550766,-1.27745 -5.402712,-1.29665 -2.027493,-0.021 -3.919323,1.42276 -5.942999,1.29665 -1.944208,-0.12116 -3.562835,-1.9331 -5.510779,-1.94498 -2.129911,-0.013 -3.924364,2.17086 -6.051053,2.05304 3.081273,-2.5683 3.299382,-3.18269 6.159106,-3.24164 z"/>
      <path d="m 83.201975,139.77896 c 1.952922,0.60425 3.596546,1.57725 5.510782,1.62082 1.965041,0.0447 3.772861,-1.61721 5.72689,-1.40471 4.202202,0.457 2.445139,1.27671 5.816403,1.96239 -2.190813,1.66504 -3.856404,-0.32237 -5.70835,-0.34157 -2.027493,-0.021 -3.920276,1.43722 -5.942999,1.29665 -2.457528,-0.17079 -4.264235,-1.16737 -5.402726,-3.13358 z" style="fill:#ffffff;stroke:none;stroke-linecap:butt;stroke-linejoin:miter;filter:url(#filter2286)"/>
    </g>
    <g transform="translate(-2.1166666,2.6458332)">
      <path style="fill:#ffffff;stroke:#000000;stroke-width:0.66145837;stroke-linecap:round;stroke-linejoin:round;stroke-dashoffset:0" d="m 32.85186,19.180563 c 0,0 2.017965,-1.322917 3.026947,-1.322917 1.088787,0 2.177573,0.264583 3.26636,0.264583 1.197028,0 2.394057,-1.322917 3.591085,-1.322917 1.192087,0 3.57626,0.264584 3.57626,0.264584 v 5.715248 c 0,0 -2.193158,-0.264584 -3.289737,-0.264584 -1.177927,0 -2.355854,1.322917 -3.533781,1.322917 -1.107888,0 -2.215777,-0.264583 -3.323665,-0.264583 -1.10449,0 -3.313469,1.322917 -3.313469,1.322917 z"/>
      <path d="m 33.170164,24.528493 c 0,0 2.015533,-2.113287 3.023299,-2.508472 1.132814,-0.444221 2.265628,-0.623859 3.398442,-1.06808 1.104031,-0.432934 2.208062,-2.188785 3.312093,-2.62172 1.012976,-0.397227 3.038927,-0.927099 3.038927,-0.927099" style="fill:none;stroke:#ff0000;stroke-width:1.1937542;stroke-linecap:round;stroke-linejoin:round"/>
      <path style="fill:none;stroke:#ff0000;stroke-width:1.1937542;stroke-linecap:round;stroke-linejoin:round" d="m 33.170164,19.519789 c 0,0 1.873009,-0.588437 2.809513,-0.221194 1.173608,0.460218 2.347217,1.185019 3.520825,1.645237 1.147963,0.450162 2.295925,-0.422593 3.443888,0.02757 0.999512,0.391948 2.998535,1.440428 2.998535,1.440428"/>
      <path style="fill:#fa3802;stroke:#000000;stroke-width:0.92604166;stroke-linecap:butt;stroke-linejoin:miter" d="m 30.608578,124.3973 v -22.7151 l 4.214178,-5.834946 1.583568,-37.702226 -4.355198,-4.966396 c 0,-4.824912 0.04315,-5.11543 -0.0054,-8.107559 l 2.603258,-0.0382 C 35.722673,37.455927 40.8901,32.326058 46.797666,28.575874 52.705235,32.326058 57.872662,37.455927 58.946374,45.03287 H 61.5398 c -0.0039,3.862283 -0.05945,4.411546 0.0044,8.145762 l -4.355198,4.966396 1.583568,37.702226 4.214178,5.834946 v 22.7151"/>
      <path d="m 43.966607,68.502154 v 11.129613 h 5.618835 V 68.515659 Z" style="fill:#000000;stroke:#000000;stroke-width:0.264px;stroke-linecap:butt;stroke-linejoin:miter"/>
      <path style="fill:#000000;stroke:#000000;stroke-width:0.3563785px;stroke-linecap:butt;stroke-linejoin:miter" d="m 43.245224,111.67528 v 16.11625 h 7.039796 v -16.0967 z"/>
      <path style="fill:none;stroke:#000000;stroke-width:0.92604166;stroke-linecap:butt;stroke-linejoin:miter" d="M 30.562432,116.23311 H 62.882205"/>
      <path d="M 30.562432,106.84046 H 62.882205" style="fill:none;stroke:#000000;stroke-width:0.92604166;stroke-linecap:butt;stroke-linejoin:miter"/>
      <path style="fill:none;stroke:#000000;stroke-width:0.92604166;stroke-linecap:butt;stroke-linejoin:miter" d="M 30.562432,102.14414 H 62.882205"/>
      <path d="M 30.562432,111.53679 H 62.882205" style="fill:none;stroke:#000000;stroke-width:0.92604166;stroke-linecap:butt;stroke-linejoin:miter"/>
      <path d="m 34.882214,96.058755 h 23.60948" style="fill:none;stroke:#000000;stroke-width:0.79147935;stroke-linecap:butt;stroke-linejoin:miter"/>
      <path style="fill:none;stroke:#000000;stroke-width:0.79147935;stroke-linecap:butt;stroke-linejoin:miter" d="m 34.882214,90.5907 h 23.60948"/>
      <path d="m 34.882214,85.122658 h 23.60948" style="fill:none;stroke:#000000;stroke-width:0.79147935;stroke-linecap:butt;stroke-linejoin:miter"/>
      <path style="fill:none;stroke:#000000;stroke-width:0.77726388;stroke-linecap:butt;stroke-linejoin:miter" d="M 35.458098,79.654601 H 58.227111"/>
      <path d="M 35.760884,74.098356 H 57.727633" style="fill:none;stroke:#000000;stroke-width:0.76344764;stroke-linecap:butt;stroke-linejoin:miter"/>
      <path style="fill:none;stroke:#000000;stroke-width:0.75677985;stroke-linecap:butt;stroke-linejoin:miter" d="M 36.028305,68.277527 H 57.613024"/>
      <path d="M 36.21932,63.250448 H 57.3074" style="fill:none;stroke:#000000;stroke-width:0.74802285;stroke-linecap:butt;stroke-linejoin:miter"/>
      <path style="fill:none;stroke:#000000;stroke-width:0.86993265;stroke-linecap:butt;stroke-linejoin:miter" d="M 32.074511,49.042382 H 61.19861"/>
      <path d="M 32.051126,53.178632 H 61.54422 l -4.355198,4.966396 H 36.406324 Z" style="fill:#000000;stroke:#000000;stroke-width:0.264px;stroke-linecap:butt;stroke-linejoin:miter"/>
      <path d="M 30.562432,120.92944 H 62.882205" style="fill:none;stroke:#000000;stroke-width:0.92604166;stroke-linecap:butt;stroke-linejoin:miter"/>
      <path d="m 34.991146,111.55288 v 4.66077" style="fill:none;stroke:#000000;stroke-width:0.92604166;stroke-linecap:butt;stroke-linejoin:miter"/>
      <path style="fill:none;stroke:#000000;stroke-width:0.92604166;stroke-linecap:butt;stroke-linejoin:miter" d="m 38.430725,106.79043 v 4.66077"/>
      <path d="m 46.791563,106.79043 v 4.66077" style="fill:none;stroke:#000000;stroke-width:0.92604166;stroke-linecap:butt;stroke-linejoin:miter"/>
      <path d="m 41.870304,102.02799 v 4.66077" style="fill:none;stroke:#000000;stroke-width:0.92604166;stroke-linecap:butt;stroke-linejoin:miter"/>
      <path d="m 34.879376,102.04032 4.125929,-5.959674" style="fill:none;stroke:#000000;stroke-width:0.92604166;stroke-linecap:butt;stroke-linejoin:miter"/>
      <path d="m 41.870306,102.02799 2.216002,-6.02375" style="fill:none;stroke:#000000;stroke-width:0.92604166;stroke-linecap:butt;stroke-linejoin:miter"/>
      <path style="fill:none;stroke:#000000;stroke-width:0.97051644;stroke-linecap:butt;stroke-linejoin:miter" d="m 46.791563,90.721636 v 5.119236"/>
      <path d="m 46.791563,79.609146 v 5.119236" style="fill:none;stroke:#000000;stroke-width:0.97051644;stroke-linecap:butt;stroke-linejoin:miter"/>
      <path style="fill:none;stroke:#000000;stroke-width:1.00257862;stroke-linecap:butt;stroke-linejoin:miter" d="m 46.791563,58.098669 v 5.463063"/>
      <path style="fill:none;stroke:#000000;stroke-width:0.98835295;stroke-linecap:butt;stroke-linejoin:miter" d="m 39.75364,85.2401 v 5.309088"/>
      <path d="m 40.018223,74.392185 v 5.309088" style="fill:none;stroke:#000000;stroke-width:0.98835295;stroke-linecap:butt;stroke-linejoin:miter"/>
      <path style="fill:none;stroke:#000000;stroke-width:0.98835295;stroke-linecap:butt;stroke-linejoin:miter" d="m 40.547389,63.015105 v 5.309088"/>
      <path style="fill:none;stroke:#000000;stroke-width:0.92604166;stroke-linecap:butt;stroke-linejoin:miter" d="m 58.60088,111.55288 v 4.66077"/>
      <path d="m 55.161301,106.79043 v 4.66077" style="fill:none;stroke:#000000;stroke-width:0.92604166;stroke-linecap:butt;stroke-linejoin:miter"/>
      <path style="fill:none;stroke:#000000;stroke-width:0.92604166;stroke-linecap:butt;stroke-linejoin:miter" d="m 51.721722,102.02799 v 4.66077"/>
      <path style="fill:none;stroke:#000000;stroke-width:0.92604166;stroke-linecap:butt;stroke-linejoin:miter" d="M 58.71265,102.04032 54.586721,96.080646"/>
      <path style="fill:none;stroke:#000000;stroke-width:0.92604166;stroke-linecap:butt;stroke-linejoin:miter" d="M 51.72172,102.02799 49.505718,96.00424"/>
      <path d="m 53.838386,85.2401 v 5.309088" style="fill:none;stroke:#000000;stroke-width:0.98835295;stroke-linecap:butt;stroke-linejoin:miter"/>
      <path style="fill:none;stroke:#000000;stroke-width:0.98835295;stroke-linecap:butt;stroke-linejoin:miter" d="m 53.573803,74.392185 v 5.309088"/>
      <path d="m 53.044637,63.015105 v 5.309088" style="fill:none;stroke:#000000;stroke-width:0.98835295;stroke-linecap:butt;stroke-linejoin:miter"/>
      <path d="m 38.430725,116.05075 v 4.66077" style="fill:none;stroke:#000000;stroke-width:0.92604166;stroke-linecap:butt;stroke-linejoin:miter"/>
      <path style="fill:none;stroke:#000000;stroke-width:0.92604166;stroke-linecap:butt;stroke-linejoin:miter" d="m 55.161301,116.05075 v 4.66077"/>
      <path style="fill:none;stroke:#000000;stroke-width:0.92604166;stroke-linecap:butt;stroke-linejoin:miter" d="m 34.991146,102.028 v 4.66077"/>
      <path d="m 58.60088,102.028 v 4.66077" style="fill:none;stroke:#000000;stroke-width:0.92604166;stroke-linecap:butt;stroke-linejoin:miter"/>
      <path d="m 34.648985,45.032873 h 3.251136 m 5.915984,-1e-6 6.429244,-10e-7 m 5.888971,-10e-7 h 2.812054" style="fill:none;stroke:#000000;stroke-width:0.92604166;stroke-linecap:butt;stroke-linejoin:miter"/>
      <path d="m 38.008175,49.032635 v -4.02503 l 2.539283,3.943991 z" style="fill:#000000;stroke:#000000;stroke-width:0.79374999;stroke-linecap:butt;stroke-linejoin:round"/>
      <path style="fill:#000000;stroke:#000000;stroke-width:0.79374999;stroke-linecap:butt;stroke-linejoin:round" d="m 50.311315,49.032635 v -4.02503 l 2.539283,3.943991 z"/>
      <path d="m 43.816105,44.58297 v 4.5446" style="fill:none;stroke:#000000;stroke-width:0.91442513;stroke-linecap:butt;stroke-linejoin:miter"/>
      <path style="fill:none;stroke:#000000;stroke-width:0.91442513;stroke-linecap:butt;stroke-linejoin:miter" d="m 56.251506,44.58297 v 4.5446"/>
      <path d="m 40.547389,48.992205 v 5.309088" style="fill:none;stroke:#000000;stroke-width:0.98835295;stroke-linecap:butt;stroke-linejoin:miter"/>
      <path style="fill:none;stroke:#000000;stroke-width:0.98835295;stroke-linecap:butt;stroke-linejoin:miter" d="m 53.044637,48.992205 v 5.309088"/>
      <path d="m 47.359344,14.481192 a 0.59777063,0.59780067 0 0 1 -0.597418,0.5978 0.59777063,0.59780067 0 0 1 -0.598122,-0.597096 0.59777063,0.59780067 0 0 1 0.596713,-0.598504 0.59777063,0.59780067 0 0 1 0.598826,0.596391" style="fill:#000000;stroke:#000000;stroke-width:0.92106545;stroke-linecap:round;stroke-linejoin:round;stroke-dashoffset:0"/>
      <path d="M 46.797668,28.575874 V 14.440749" style="fill:none;stroke:#000000;stroke-width:0.92604166;stroke-linecap:butt;stroke-linejoin:miter"/>
      <path d="m 51.765121,48.899891 c 0,-4.930107 -2.596048,-15.637611 -4.967453,-20.324017 8.15999,4.686921 11.037392,11.247704 12.262144,16.389601 0.15936,0.669041 -2.055034,-0.587864 -2.747304,0.0348 -0.819582,0.737176 -0.150136,3.341639 -0.061,3.968545 -3.543618,0 -1.903889,-0.06893 -5.188739,-0.06893 z" style="opacity:0.319;fill:#000000;stroke:none;stroke-linecap:butt;stroke-linejoin:miter;filter:url(#filter6683)"/>
      <path d="m 32.85186,19.180563 c 0,0 2.017965,-1.322917 3.026947,-1.322917 1.088787,0 2.177573,0.264583 3.26636,0.264583 1.197028,0 2.394057,-1.322917 3.591085,-1.322917 1.192087,0 3.57626,0.264584 3.57626,0.264584 v 5.715248 c 0,0 -2.193158,-0.264584 -3.289737,-0.264584 -1.177927,0 -2.355854,1.322917 -3.533781,1.322917 -1.107888,0 -2.215777,-0.264583 -3.323665,-0.264583 -1.10449,0 -3.313469,1.322917 -3.313469,1.322917 z" style="fill:none;stroke:#000000;stroke-width:0.66145837;stroke-linecap:round;stroke-linejoin:round;stroke-dashoffset:0"/>
    </g>
    <g transform="translate(87.312478,2.6458332)">
      <path d="m 32.85186,19.180563 c 0,0 2.017965,-1.322917 3.026947,-1.322917 1.088787,0 2.177573,0.264583 3.26636,0.264583 1.197028,0 2.394057,-1.322917 3.591085,-1.322917 1.192087,0 3.57626,0.264584 3.57626,0.264584 v 5.715248 c 0,0 -2.193158,-0.264584 -3.289737,-0.264584 -1.177927,0 -2.355854,1.322917 -3.533781,1.322917 -1.107888,0 -2.215777,-0.264583 -3.323665,-0.264583 -1.10449,0 -3.313469,1.322917 -3.313469,1.322917 z" style="fill:#ffffff;stroke:#000000;stroke-width:0.66145837;stroke-linecap:round;stroke-linejoin:round;stroke-dashoffset:0"/>
      <path style="fill:none;stroke:#ff0000;stroke-width:1.1937542;stroke-linecap:round;stroke-linejoin:round" d="m 33.170164,24.528493 c 0,0 2.015533,-2.113287 3.023299,-2.508472 1.132814,-0.444221 2.265628,-0.623859 3.398442,-1.06808 1.104031,-0.432934 2.208062,-2.188785 3.312093,-2.62172 1.012976,-0.397227 3.038927,-0.927099 3.038927,-0.927099"/>
      <path d="m 33.170164,19.519789 c 0,0 1.873009,-0.588437 2.809513,-0.221194 1.173608,0.460218 2.347217,1.185019 3.520825,1.645237 1.147963,0.450162 2.295925,-0.422593 3.443888,0.02757 0.999512,0.391948 2.998535,1.440428 2.998535,1.440428" style="fill:none;stroke:#ff0000;stroke-width:1.1937542;stroke-linecap:round;stroke-linejoin:round"/>
      <path d="m 30.608578,124.3973 v -22.7151 l 4.214178,-5.834946 1.583568,-37.702226 -4.355198,-4.966396 c 0,-4.824912 0.04315,-5.11543 -0.0054,-8.107559 l 2.603258,-0.0382 C 35.722673,37.455927 40.8901,32.326058 46.797666,28.575874 52.705235,32.326058 57.872662,37.455927 58.946374,45.03287 H 61.5398 c -0.0039,3.862283 -0.05945,4.411546 0.0044,8.145762 l -4.355198,4.966396 1.583568,37.702226 4.214178,5.834946 v 22.7151" style="fill:#fa3802;stroke:#000000;stroke-width:0.92604166;stroke-linecap:butt;stroke-linejoin:miter"/>
      <path style="fill:#000000;stroke:#000000;stroke-width:0.264px;stroke-linecap:butt;stroke-linejoin:miter" d="m 43.966607,68.502154 v 11.129613 h 5.618835 V 68.515659 Z"/>
      <path d="m 43.245224,111.67528 v 16.11625 h 7.039796 v -16.0967 z" style="fill:#000000;stroke:#000000;stroke-width:0.3563785px;stroke-linecap:butt;stroke-linejoin:miter"/>
      <path d="M 30.562432,116.23311 H 62.882205" style="fill:none;stroke:#000000;stroke-width:0.92604166;stroke-linecap:butt;stroke-linejoin:miter"/>
      <path style="fill:none;stroke:#000000;stroke-width:0.92604166;stroke-linecap:butt;stroke-linejoin:miter" d="M 30.562432,106.84046 H 62.882205"/>
      <path d="M 30.562432,102.14414 H 62.882205" style="fill:none;stroke:#000000;stroke-width:0.92604166;stroke-linecap:butt;stroke-linejoin:miter"/>
      <path style="fill:none;stroke:#000000;stroke-width:0.92604166;stroke-linecap:butt;stroke-linejoin:miter" d="M 30.562432,111.53679 H 62.882205"/>
      <path style="fill:none;stroke:#000000;stroke-width:0.79147935;stroke-linecap:butt;stroke-linejoin:miter" d="m 34.882214,96.058755 h 23.60948"/>
      <path d="m 34.882214,90.5907 h 23.60948" style="fill:none;stroke:#000000;stroke-width:0.79147935;stroke-linecap:butt;stroke-linejoin:miter"/>
      <path style="fill:none;stroke:#000000;stroke-width:0.79147935;stroke-linecap:butt;stroke-linejoin:miter" d="m 34.882214,85.122658 h 23.60948"/>
      <path d="M 35.458098,79.654601 H 58.227111" style="fill:none;stroke:#000000;stroke-width:0.77726388;stroke-linecap:butt;stroke-linejoin:miter"/>
      <path style="fill:none;stroke:#000000;stroke-width:0.76344764;stroke-linecap:butt;stroke-linejoin:miter" d="M 35.760884,74.098356 H 57.727633"/>
      <path d="M 36.028305,68.277527 H 57.613024" style="fill:none;stroke:#000000;stroke-width:0.75677985;stroke-linecap:butt;stroke-linejoin:miter"/>
      <path style="fill:none;stroke:#000000;stroke-width:0.74802285;stroke-linecap:butt;stroke-linejoin:miter" d="M 36.21932,63.250448 H 57.3074"/>
      <path d="M 32.074511,49.042382 H 61.19861" style="fill:none;stroke:#000000;stroke-width:0.86993265;stroke-linecap:butt;stroke-linejoin:miter"/>
      <path style="fill:#000000;stroke:#000000;stroke-width:0.264px;stroke-linecap:butt;stroke-linejoin:miter" d="M 32.051126,53.178632 H 61.54422 l -4.355198,4.966396 H 36.406324 Z"/>
      <path style="fill:none;stroke:#000000;stroke-width:0.92604166;stroke-linecap:butt;stroke-linejoin:miter" d="M 30.562432,120.92944 H 62.882205"/>
      <path style="fill:none;stroke:#000000;stroke-width:0.92604166;stroke-linecap:butt;stroke-linejoin:miter" d="m 34.991146,111.55288 v 4.66077"/>
      <path d="m 38.430725,106.79043 v 4.66077" style="fill:none;stroke:#000000;stroke-width:0.92604166;stroke-linecap:butt;stroke-linejoin:miter"/>
      <path style="fill:none;stroke:#000000;stroke-width:0.92604166;stroke-linecap:butt;stroke-linejoin:miter" d="m 46.791563,106.79043 v 4.66077"/>
      <path style="fill:none;stroke:#000000;stroke-width:0.92604166;stroke-linecap:butt;stroke-linejoin:miter" d="m 41.870304,102.02799 v 4.66077"/>
      <path style="fill:none;stroke:#000000;stroke-width:0.92604166;stroke-linecap:butt;stroke-linejoin:miter" d="m 34.879376,102.04032 4.125929,-5.959674"/>
      <path style="fill:none;stroke:#000000;stroke-width:0.92604166;stroke-linecap:butt;stroke-linejoin:miter" d="m 41.870306,102.02799 2.216002,-6.02375"/>
      <path d="m 46.791563,90.721636 v 5.119236" style="fill:none;stroke:#000000;stroke-width:0.97051644;stroke-linecap:butt;stroke-linejoin:miter"/>
      <path style="fill:none;stroke:#000000;stroke-width:0.97051644;stroke-linecap:butt;stroke-linejoin:miter" d="m 46.791563,79.609146 v 5.119236"/>
      <path d="m 46.791563,58.098669 v 5.463063" style="fill:none;stroke:#000000;stroke-width:1.00257862;stroke-linecap:butt;stroke-linejoin:miter"/>
      <path d="m 39.75364,85.2401 v 5.309088" style="fill:none;stroke:#000000;stroke-width:0.98835295;stroke-linecap:butt;stroke-linejoin:miter"/>
      <path style="fill:none;stroke:#000000;stroke-width:0.98835295;stroke-linecap:butt;stroke-linejoin:miter" d="m 40.018223,74.392185 v 5.309088"/>
      <path d="m 40.547389,63.015105 v 5.309088" style="fill:none;stroke:#000000;stroke-width:0.98835295;stroke-linecap:butt;stroke-linejoin:miter"/>
      <path d="m 58.60088,111.55288 v 4.66077" style="fill:none;stroke:#000000;stroke-width:0.92604166;stroke-linecap:butt;stroke-linejoin:miter"/>
      <path style="fill:none;stroke:#000000;stroke-width:0.92604166;stroke-linecap:butt;stroke-linejoin:miter" d="m 55.161301,106.79043 v 4.66077"/>
      <path d="m 51.721722,102.02799 v 4.66077" style="fill:none;stroke:#000000;stroke-width:0.92604166;stroke-linecap:butt;stroke-linejoin:miter"/>
      <path d="M 58.71265,102.04032 54.586721,96.080646" style="fill:none;stroke:#000000;stroke-width:0.92604166;stroke-linecap:butt;stroke-linejoin:miter"/>
      <path d="M 51.72172,102.02799 49.505718,96.00424" style="fill:none;stroke:#000000;stroke-width:0.92604166;stroke-linecap:butt;stroke-linejoin:miter"/>
      <path style="fill:none;stroke:#000000;stroke-width:0.98835295;stroke-linecap:butt;stroke-linejoin:miter" d="m 53.838386,85.2401 v 5.309088"/>
      <path d="m 53.573803,74.392185 v 5.309088" style="fill:none;stroke:#000000;stroke-width:0.98835295;stroke-linecap:butt;stroke-linejoin:miter"/>
      <path style="fill:none;stroke:#000000;stroke-width:0.98835295;stroke-linecap:butt;stroke-linejoin:miter" d="m 53.044637,63.015105 v 5.309088"/>
      <path style="fill:none;stroke:#000000;stroke-width:0.92604166;stroke-linecap:butt;stroke-linejoin:miter" d="m 38.430725,116.05075 v 4.66077"/>
      <path d="m 55.161301,116.05075 v 4.66077" style="fill:none;stroke:#000000;stroke-width:0.92604166;stroke-linecap:butt;stroke-linejoin:miter"/>
      <path d="m 34.991146,102.028 v 4.66077" style="fill:none;stroke:#000000;stroke-width:0.92604166;stroke-linecap:butt;stroke-linejoin:miter"/>
      <path style="fill:none;stroke:#000000;stroke-width:0.92604166;stroke-linecap:butt;stroke-linejoin:miter" d="m 58.60088,102.028 v 4.66077"/>
      <path style="fill:none;stroke:#000000;stroke-width:0.92604166;stroke-linecap:butt;stroke-linejoin:miter" d="m 34.648985,45.032873 h 3.251136 m 5.915984,-1e-6 6.429244,-10e-7 m 5.888971,-10e-7 h 2.812054"/>
      <path style="fill:#000000;stroke:#000000;stroke-width:0.79374999;stroke-linecap:butt;stroke-linejoin:round" d="m 38.008175,49.032635 v -4.02503 l 2.539283,3.943991 z"/>
      <path d="m 50.311315,49.032635 v -4.02503 l 2.539283,3.943991 z" style="fill:#000000;stroke:#000000;stroke-width:0.79374999;stroke-linecap:butt;stroke-linejoin:round"/>
      <path style="fill:none;stroke:#000000;stroke-width:0.91442513;stroke-linecap:butt;stroke-linejoin:miter" d="m 43.816105,44.58297 v 4.5446"/>
      <path d="m 56.251506,44.58297 v 4.5446" style="fill:none;stroke:#000000;stroke-width:0.91442513;stroke-linecap:butt;stroke-linejoin:miter"/>
      <path style="fill:none;stroke:#000000;stroke-width:0.98835295;stroke-linecap:butt;stroke-linejoin:miter" d="m 40.547389,48.992205 v 5.309088"/>
      <path d="m 53.044637,48.992205 v 5.309088" style="fill:none;stroke:#000000;stroke-width:0.98835295;stroke-linecap:butt;stroke-linejoin:miter"/>
      <path style="fill:#000000;stroke:#000000;stroke-width:0.92106545;stroke-linecap:round;stroke-linejoin:round;stroke-dashoffset:0" d="m 47.359344,14.481192 a 0.59777063,0.59780067 0 0 1 -0.597418,0.5978 0.59777063,0.59780067 0 0 1 -0.598122,-0.597096 0.59777063,0.59780067 0 0 1 0.596713,-0.598504 0.59777063,0.59780067 0 0 1 0.598826,0.596391"/>
      <path style="fill:none;stroke:#000000;stroke-width:0.92604166;stroke-linecap:butt;stroke-linejoin:miter" d="M 46.797668,28.575874 V 14.440749"/>
      <path style="opacity:0.319;fill:#000000;stroke:none;stroke-linecap:butt;stroke-linejoin:miter;filter:url(#filter6683)" d="m 51.765121,48.899891 c 0,-4.930107 -2.596048,-15.637611 -4.967453,-20.324017 8.15999,4.686921 11.037392,11.247704 12.262144,16.389601 0.15936,0.669041 -2.055034,-0.587864 -2.747304,0.0348 -0.819582,0.737176 -0.150136,3.341639 -0.061,3.968545 -3.543618,0 -1.903889,-0.06893 -5.188739,-0.06893 z"/>
      <path style="fill:none;stroke:#000000;stroke-width:0.66145837;stroke-linecap:round;stroke-linejoin:round;stroke-dashoffset:0" d="m 32.85186,19.180563 c 0,0 2.017965,-1.322917 3.026947,-1.322917 1.088787,0 2.177573,0.264583 3.26636,0.264583 1.197028,0 2.394057,-1.322917 3.591085,-1.322917 1.192087,0 3.57626,0.264584 3.57626,0.264584 v 5.715248 c 0,0 -2.193158,-0.264584 -3.289737,-0.264584 -1.177927,0 -2.355854,1.322917 -3.533781,1.322917 -1.107888,0 -2.215777,-0.264583 -3.323665,-0.264583 -1.10449,0 -3.313469,1.322917 -3.313469,1.322917 z"/>
    </g>
    <g transform="translate(-2.1166666,2.6458332)">
      <path style="fill:#afaf7d;stroke:#000000;stroke-width:0.92604166;stroke-linecap:round;stroke-linejoin:round" d="m 28.112509,231.41785 c 1.775126,0.55635 4.585614,0.52932 7.915079,0.43121 1.850307,0.4649 3.107422,1.25112 3.954246,2.25957 0.558305,0.80382 1.204161,1.4909 2.259571,1.63191 l 3.828714,2.07127 2.887229,0.56489 1.506381,-2.44786 c 1.869226,0.67305 2.352947,0.13117 4.792526,0.6825 2.868463,-1.7292 3.725238,1.76984 3.806393,-2.31442 v 0 c 1.599758,-1.2633 3.240488,-2.44977 6.151052,-1.25531 1.466081,0.17842 2.571488,0.95196 3.201056,2.51063 0.695358,0.17907 0.291559,0.77032 0.392702,1.17222 -0.908443,0.34578 -1.015391,0.69156 -0.972184,1.03734 l -1.617322,0.9915 c 1.623196,-0.81945 2.31552,0.39545 3.45212,0.37659 0.06142,0.13373 -0.03814,0.75219 0.233492,0.95431 0.17001,0.1265 0.619053,-0.1487 0.930527,-0.0696 -0.23657,0.22282 -0.514162,0.43499 -1.529844,1.32155 0.759457,0.0944 1.518914,-0.0984 2.278371,-0.58979 -0.296564,0.69412 -0.886283,1.2158 -1.893689,1.49178 l 0.70295,0.51648 c 1.175882,-1.37372 3.041327,0.52798 4.676055,1.33377 -0.615919,1.38928 -1.719096,1.56041 -2.636165,2.19681 1.870805,-0.65733 2.794756,-0.36781 2.824464,0.81595 0.476048,0.18583 0.693543,0.5631 1.308872,0.69845 -0.329858,1.11494 0.408907,0.65224 0.385806,1.24729 0.84159,-0.2254 1.229468,0.26758 1.067017,1.63191 l 0.911622,0.12508 c -0.801123,1.094 -0.253756,2.2779 0.155397,3.45258 2.331013,1.1207 2.450297,0.24031 3.138292,-0.12553 -0.214213,0.66419 0.180045,1.12556 0.439362,1.63191 l 1.506379,1.00425 c 0.398173,1.45576 0.373116,2.79059 0.188298,4.07978 l -15.506085,7.8866 C 51.306658,260.92944 35.646843,246.13122 28.112509,231.41785 Z" transform="translate(0,-111.79165)"/>
      <path style="fill:#afaf7d;stroke:#000000;stroke-width:0.92604166;stroke-linecap:butt;stroke-linejoin:round" d="m 98.716655,260.47788 0.305955,-1.81998 0.885695,-0.59612 0.107255,-0.94576 c 0.81912,-0.7971 1.03935,-1.23486 1.14609,-1.60453 0.61586,-0.044 1.0881,-0.20954 1.4716,-0.45016 0.25836,-0.1621 -0.6041,-0.60141 -0.40951,-0.81748 0.0978,-0.10856 0.68988,0.41785 1.00803,0.35282 0.1925,-0.0393 -0.26455,-0.71839 -0.16205,-0.9009 0.11881,-0.21157 0.78522,0.0676 0.84255,-0.018 1.38083,0.94671 2.31328,-0.0122 3.43827,-0.15281 -0.94234,-0.19595 -1.88468,-0.63436 -2.82702,-0.22922 1.41992,-1.07773 1.09954,-1.6258 0.91687,-2.21578 0.32227,0.1087 0.58975,-0.0565 0.84047,-0.30562 0.46266,-0.43547 0.37959,-1.12776 -0.38203,-2.13937 1.46512,-0.34978 1.07887,-0.80847 1.45171,-1.2225 l 1.7329,0.91506 c -0.52999,-1.20005 -0.30617,-1.4668 0.67661,-0.79389 -0.20752,-0.50486 -0.16467,-0.83179 0.42601,-1.05914 -0.009,-0.10854 -0.39436,-0.5241 -0.19086,-0.98241 0.19717,-0.44409 0.98536,-0.92832 0.87002,-1.21227 2.03221,-1.68728 2.48511,-1.08455 3.13265,-0.76406 1.33255,0.0347 1.55165,-0.7967 1.60453,-1.75734 2.66145,0.95208 2.74536,-0.0719 3.36187,-0.68765 -0.55192,-1.73187 -1.08531,-3.46375 -0.22922,-5.19562 -0.77288,-0.21428 -1.33067,-0.48232 -1.52812,-0.84046 -0.48567,-0.30727 -0.1969,-1.29217 -0.15282,-2.06297 1.04929,-5e-5 1.74519,-0.75736 2.29219,-1.83374 0.97246,-0.0856 1.76246,-0.47538 2.5214,-0.91688 -0.0124,1.18305 1.11043,1.14974 2.06296,1.29891 l 2.59781,-1.52813 c 0.37557,2.83809 1.09019,1.39214 1.52812,0.61125 v 0 c 1.45453,1.00751 2.91249,2.00128 4.50796,2.445 2.52061,1.68851 1.94712,2.1001 3.7439,2.29218 1.99443,-0.70327 1.94144,-0.25999 2.21577,0 0.64389,0.44032 1.07752,1.03834 1.14609,1.91015 0.4744,-1.75836 0.25627,-0.61725 -0.15281,-2.36859 0.94933,-0.0555 1.62419,-0.93428 2.21578,-2.06296 1.51325,-0.70981 1.63805,-1.85351 2.06296,-2.90343 v 0.0764 c 1.27307,-0.0391 1.35446,1.12023 1.75439,1.48416 0.48165,-0.40595 -0.25389,-1.46023 1.76029,-1.86618 -0.0281,-0.69634 0.45388,-0.94633 0.99328,-1.14609 0.65018,1.26124 1.17262,1.30893 1.68094,1.22249 0.47871,1.15936 3.74474,1.75532 5.40946,1.93796 -9.58834,18.70296 -27.91504,31.42131 -40.42742,37.03524 z" transform="translate(0,-111.79165)"/>
      <path d="m 139.74672,127.21612 0.38203,4.35515 -2.97984,2.13937 0.76407,3.05624 -3.89672,0.68766 -2.06296,1.60453 -0.45844,3.28546 -2.82702,0.99327 -1.06969,3.13266 -5.80686,1.60452 -4.96639,4.9664 -3.43828,2.67421 -1.2225,-0.99328 7.71702,-7.02936 5.80686,-2.90343 4.12593,-3.43827 1.37531,-3.20906 3.05624,-1.75734 2.21578,-0.53484 0.15281,-2.67421 2.36859,-1.75734 z" style="fill:#647d64;stroke:none;stroke-linecap:butt;stroke-linejoin:miter;filter:url(#filter3675)"/>
      <path d="m 119.3463,130.80721 1.68093,1.98656 -0.38203,3.13265 -1.98656,1.60452 -0.76406,3.59108 -2.82702,1.91016 -3.82031,3.05624 -2.36859,1.37531 -1.83374,2.13937 -3.59109,1.98656 -2.06296,-0.38203 4.66077,-2.90343 3.51468,-2.44499 4.35514,-3.05625 2.06297,-1.37531 2.36859,-5.0428 1.52812,-0.99328 z" style="fill:#647d64;stroke:none;stroke-linecap:butt;stroke-linejoin:miter;filter:url(#filter3671)"/>
      <path d="m 127.1119,120.9454 1.054,1.58237 0.19632,2.39617 -0.53485,3.7439 -1.89078,3.00724 -1.82465,2.45466 -1.6012,-0.31214 c 1.81992,-0.71063 2.7278,-2.63733 3.71211,-4.46211 l 1.45171,-5.0428 z" style="fill:#647d64;stroke:none;stroke-linecap:butt;stroke-linejoin:miter;filter:url(#filter3655)"/>
      <path d="m 52.17179,128.8595 6.609865,1.24104 4.214127,2.26914 2.485253,3.13358 4.53829,-0.86443 -3.241636,2.05303 4.646346,1.72887 2.053034,3.02553 v 2.80942 l 5.186617,1.62082 2.053037,5.18661 -1.620819,0.54027 -1.836926,-4.64634 -4.214127,-1.72887 -1.836926,-4.86246 -5.72689,-3.45774 -3.349689,-3.78191 -3.889962,-2.26914 c -2.158186,0.81906 -4.109353,-0.63909 -6.069594,-1.99742 z" style="fill:#647d64;stroke:none;stroke-linecap:butt;stroke-linejoin:miter;filter:url(#filter3667)"/>
      <path d="m 48.84064,130.53275 -0.75638,4.97051 3.133579,4.21413 6.233846,1.51276 4.62413,2.43273 1.784404,4.37471 2.83568,2.12372 4.214124,5.18661 0.972492,-0.54027 -4.802873,-6.05105 -3.180751,-2.35304 -1.174749,-3.82122 -4.299968,-1.78441 0.324165,-1.1886 -6.233846,-0.86443 -3.349688,-3.13358 z" style="fill:#647d64;stroke:none;stroke-linecap:butt;stroke-linejoin:miter;filter:url(#filter3663)"/>
      <path d="m 36.954643,125.6703 c 0.897542,1.25897 1.098405,3.78986 2.701365,3.78191 l 4.542788,2.29761 c 0.529003,-1.32562 -4.429709,-3.85233 -7.244153,-6.07952 z" style="fill:#647d64;stroke:none;stroke-linecap:butt;stroke-linejoin:miter;filter:url(#filter3659)"/>
    </g>
    <path style="fill:none;stroke:#000000;stroke-width:2.06375003;stroke-linecap:butt;stroke-linejoin:miter" d="M 17.707875,6.0897827 H 161.35132 V 89.219595 C 161.96257,136.88121 113.92663,165.53916 89.405509,165.23553 64.884404,164.9319 17.488294,136.81618 17.674698,89.089048 17.782753,61.422625 17.707878,101.8219 17.707878,6.0897827 Z"/>
  </g>

  <g inkscape:groupmode="layer" inkscape:label="text and banner">
    <g>
      <g transform="translate(-1.428744,2.6458332)">
        <path style="fill:#fbfbb5;stroke:#000000;stroke-width:0.92604166;stroke-linecap:round;stroke-linejoin:round" d="m 23.940138,153.58787 3.695301,-9.50216 -8.457513,-3.07829 -4.011319,7.75522 c 1.652774,3.93071 4.781371,5.16644 8.773531,4.82523 z"/>
        <path style="fill:#fbfbb5;stroke:#000000;stroke-width:0.92604166;stroke-linecap:round;stroke-linejoin:round" d="m 51.956135,168.24619 c -15.463271,-0.52017 -10.794104,3.47066 -24.485435,2.62402 -9.66493,-0.59765 -21.4298452,-9.03467 -19.3716555,-13.93212 0.9615264,-2.28794 2.7534095,-3.96414 4.1813335,-7.31135 0.924716,-2.16763 1.519343,-6.0564 2.236777,-7.81705 3.61779,-8.87838 16.16871,-4.08583 12.836222,3.05624 -1.91285,4.09955 -7.76508,2.83045 -7.487796,-1.83375 l -2.398647,6.36858 c 13.688644,11.04879 19.912346,3.88841 30.363273,3.10578 7.841899,-0.58725 11.936153,2.72058 16.786392,5.1479 0.121415,5.58712 -5.065044,8.65998 -12.660464,10.59175 z"/>
        <path style="fill:#fbfbb5;stroke:#000000;stroke-width:0.92604166;stroke-linecap:round;stroke-linejoin:round" d="m 17.466934,149.40076 c -2.210445,-2.17489 -3.250226,-7.57589 -2.124275,-9.19713"/>
      </g>
      <g transform="matrix(-1,0,0,1,180.85383,2.6458332)">
        <path d="m 23.940138,153.58787 3.695301,-9.50216 -8.457513,-3.07829 -4.011319,7.75522 c 1.652774,3.93071 4.781371,5.16644 8.773531,4.82523 z" style="fill:#fbfbb5;stroke:#000000;stroke-width:0.92604166;stroke-linecap:round;stroke-linejoin:round"/>
        <path d="m 51.956135,168.24619 c -15.463271,-0.52017 -10.794104,3.47066 -24.485435,2.62402 -9.66493,-0.59765 -21.4298452,-9.03467 -19.3716555,-13.93212 0.9615264,-2.28794 2.7534095,-3.96414 4.1813335,-7.31135 0.924716,-2.16763 1.519343,-6.0564 2.236777,-7.81705 3.61779,-8.87838 16.16871,-4.08583 12.836222,3.05624 -1.91285,4.09955 -7.76508,2.83045 -7.487796,-1.83375 l -2.398647,6.36858 c 13.688644,11.04879 19.912346,3.88841 30.363273,3.10578 7.841899,-0.58725 11.936153,2.72058 16.786392,5.1479 0.121415,5.58712 -5.065044,8.65998 -12.660464,10.59175 z" style="fill:#fbfbb5;stroke:#000000;stroke-width:0.92604166;stroke-linecap:round;stroke-linejoin:round"/>
        <path d="m 17.466934,149.40076 c -2.210445,-2.17489 -3.250226,-7.57589 -2.124275,-9.19713" style="fill:#fbfbb5;stroke:#000000;stroke-width:0.92604166;stroke-linecap:round;stroke-linejoin:round"/>
      </g>
      <path d="m 57.800808,179.15378 c -2.70854,-1.87016 -5.260302,-3.65673 -7.273417,-8.26176 14.937412,-14.6622 27.599752,-19.401 39.509463,-19.401 11.909716,0 24.571796,4.7388 39.509176,19.401 -2.01311,4.60503 -4.56487,6.3916 -7.27341,8.26176 -10.83351,7.48024 -13.96183,-11.71206 -32.235769,-11.71206 -18.273931,0 -21.402488,19.1923 -32.236043,11.71206 z" style="fill:#fbfbb5;stroke:#000000;stroke-width:0.92604166;stroke-linecap:butt;stroke-linejoin:miter"/>
      <path d="m 133.63368,167.90633 c -0.081,-0.0248 -0.19149,-0.0542 -0.3316,-0.0882 -0.14011,-0.034 -0.29113,-0.0758 -0.45304,-0.12539 -0.1563,-0.039 -0.3207,-0.0805 -0.49319,-0.1244 -0.1644,-0.0415 -0.31541,-0.0833 -0.45304,-0.12539 -0.54243,-0.16603 -1.04793,-0.4093 -1.5165,-0.72982 -0.4661,-0.32861 -0.84827,-0.72892 -1.14651,-1.20095 -0.28766,-0.47765 -0.47272,-1.03014 -0.55519,-1.65749 -0.0719,-0.63295 0.0111,-1.33803 0.24901,-2.11524 0.21807,-0.71244 0.54495,-1.30303 0.98062,-1.77178 0.44377,-0.46627 0.94529,-0.81746 1.50456,-1.05357 0.55926,-0.23612 1.14794,-0.36584 1.76603,-0.38915 0.61809,-0.0233 1.21859,0.0542 1.80149,0.23266 0.12954,0.0397 0.30113,0.10104 0.51476,0.18413 0.22173,0.0856 0.43817,0.17396 0.64932,0.26516 0.21925,0.0937 0.40893,0.18272 0.56903,0.26714 0.17067,0.0788 0.27658,0.13779 0.31772,0.17694 0.19198,-0.25114 0.38619,-0.46618 0.58264,-0.64512 0.19644,-0.17894 0.42535,-0.29039 0.68673,-0.33434 0.0722,-0.005 0.1463,0.0136 0.22231,0.0548 0.076,0.041 0.1041,0.0939 0.0843,0.15861 -0.0628,0.0605 -0.10881,0.0951 -0.13804,0.10385 -0.0211,0.0113 -0.0479,0.0119 -0.0803,0.002 -0.0971,-0.0297 -0.20793,-0.0149 -0.33234,0.0444 -0.11631,0.0618 -0.23725,0.15317 -0.36282,0.27412 -0.57225,0.60526 -1.46556,2.66933 -1.73801,3.44984 -0.12153,0.15786 -0.24231,0.14321 -0.33801,-0.0235 -0.19446,-1.8982 -0.86028,-3.98555 -2.37922,-3.75382 -0.37178,0.0567 -0.70582,0.26652 -1.02353,0.52345 -0.30961,0.25941 -0.58924,0.5944 -0.83888,1.00498 -0.24963,0.41059 -0.45251,0.8709 -0.60863,1.38094 -0.21559,0.70434 -0.33883,1.08826 -0.36971,1.68091 -0.0203,0.58703 0.0368,1.1092 0.1713,1.56653 0.1345,0.45733 0.34484,0.84047 0.63101,1.14943 0.28865,0.30086 0.63942,0.51448 1.05231,0.64086 0.27526,0.0842 0.55605,0.38608 0.84238,0.37633 0.29443,-0.007 0.57448,-0.0544 0.84015,-0.14129 0.27377,-0.0844 0.52663,-0.20184 0.7586,-0.35219 0.24006,-0.14788 0.44336,-0.32029 0.6099,-0.51724 0.0261,-0.0274 0.074,-0.0393 0.14374,-0.0357 0.0778,0.006 0.11177,0.0252 0.10186,0.0577 -0.0322,0.10525 -0.11324,0.23982 -0.24311,0.40372 -0.11929,0.15829 -0.25195,0.3169 -0.398,0.47585 -0.14357,0.15085 -0.28343,0.28955 -0.41957,0.41612 -0.13366,0.11847 -0.22412,0.19703 -0.27137,0.23569 -0.0417,0.0493 -0.0964,0.11222 -0.16406,0.18886 -0.0621,0.0872 -0.12673,0.18257 -0.19379,0.286 -0.0615,0.11401 -0.12293,0.22801 -0.18438,0.34201 -0.0639,0.1221 -0.11449,0.24387 -0.15166,0.36531 -0.0397,0.12953 -0.0806,0.20554 -0.12292,0.22801 -0.0423,0.0225 -0.11611,0.0176 -0.22132,-0.0146 -0.089,-0.0273 -0.10972,-0.10442 -0.062,-0.23147 0.0453,-0.11896 0.10887,-0.25444 0.19082,-0.40645 0.082,-0.15201 0.16141,-0.29592 0.2384,-0.43173 0.0745,-0.12771 0.10178,-0.21677 0.0818,-0.26716 z"/>
      <path d="m 149.46955,165.09008 q -0.14905,0.10181 -0.35419,0.2625 -0.20404,0.14803 -0.43339,0.29388 -0.2156,0.13429 -0.44056,0.22952 -0.22496,0.0952 -0.4274,0.0777 -0.17714,-0.0154 -0.30974,-0.10333 -0.1315,-0.10062 -0.25035,-0.20016 -0.1051,-0.11109 -0.2124,-0.19687 -0.10619,-0.0984 -0.23272,-0.1094 -0.34162,-0.0296 -0.60614,0.22792 -0.25187,0.25862 -0.44098,0.67565 -0.17646,0.41813 -0.29623,0.91765 -0.10712,0.50062 -0.14769,0.96877 -0.034,0.39223 -0.0306,0.64747 0.0171,0.24369 0.0672,0.40101 0.0512,0.14466 0.14804,0.20404 0.10948,0.0605 0.26131,0.0736 0.16449,0.0143 0.35866,-0.0199 0.0391,-0.009 0.0462,0.055 0.0198,0.0655 0.0165,0.10341 -0.002,0.0253 -0.0434,0.06 -0.0402,0.022 -0.0528,0.0209 -0.28823,0.0897 -0.5913,0.20371 -0.30197,0.10131 -0.49944,0.17343 -0.18371,0.0606 -0.44444,0.1272 -0.24807,0.0677 -0.42521,0.0524 -0.20244,-0.0175 -0.33613,-0.0929 -0.12105,-0.0742 -0.11557,-0.13749 0.005,-0.0633 0.0352,-0.11168 0.0423,-0.0473 0.0797,-0.18431 0.0417,-0.18759 0.089,-0.43845 0.061,-0.26242 0.11261,-0.56389 0.0643,-0.30037 0.10433,-0.61559 0.0538,-0.32677 0.0812,-0.64308 0.0614,-0.70855 0.0536,-1.20639 0.005,-0.49674 -0.0828,-0.81027 -0.0876,-0.31353 -0.27903,-0.45759 -0.17773,-0.15563 -0.48139,-0.18194 -0.0633,-0.005 -0.11388,-0.01 -0.0506,-0.004 -0.10231,0.004 -0.0759,-0.007 -0.0693,-0.0825 0.007,-0.0759 0.0858,-0.1073 0.14686,-0.0765 0.45212,-0.21577 0.30636,-0.15192 0.62318,-0.27744 0.33057,-0.13707 0.63254,-0.23838 0.30197,-0.1013 0.44115,-0.0892 0.16449,0.0143 0.26849,0.13799 0.1051,0.11109 0.14146,0.27996 0.049,0.16997 0.0557,0.38725 0.008,0.20464 -0.01,0.40708 -0.0131,0.15183 -0.0401,0.31522 -0.0143,0.16448 -0.0307,0.35427 0.64173,-0.78573 1.1367,-1.20175 0.49606,-0.42868 0.90094,-0.39359 0.15183,0.0132 0.28004,0.15174 0.14087,0.13969 0.2911,0.31842 0.15133,0.16609 0.3175,0.30796 0.16617,0.14188 0.35596,0.15833 0.16448,0.0143 0.24369,-0.0171 0.0792,-0.0314 0.13201,-0.0523 0.10122,0.009 0.0892,0.14795 z"/>
      <path d="m 152.22777,168.23087 q 0.0152,0.26627 0.0423,0.51913 0.0264,0.24019 0.11262,0.41336 0.0862,0.17317 0.24486,0.27861 0.15794,0.0927 0.43689,0.0768 0.13947,-0.008 0.31554,-0.0434 0.17534,-0.0482 0.3246,-0.10756 0.16194,-0.0601 0.27316,-0.11735 0.1239,-0.0579 0.14781,-0.0847 0.0359,-0.0402 0.0507,-0.003 0.0148,0.0373 0.006,0.10143 0.003,0.0507 -0.0188,0.11556 -0.0225,0.0522 -0.0591,0.0797 -0.12318,0.0706 -0.43076,0.25355 -0.30759,0.18291 -0.72856,0.38501 -0.39562,0.20066 -0.78144,0.34987 -0.37388,0.13581 -0.62746,0.15028 -0.29163,0.0166 -0.46659,-0.15148 -0.17495,-0.16811 -0.19014,-0.43437 -0.005,-0.0888 -0.009,-0.15216 0.009,-0.0641 0.0159,-0.16627 0.005,-0.12752 0.012,-0.45863 0.0185,-0.34452 0.02,-0.76438 0.0142,-0.42059 0.0157,-0.84046 7.7e-4,-0.43254 -0.0166,-0.73685 l -0.0253,-0.44378 q -0.0188,-0.32966 -0.0713,-0.58108 -0.0525,-0.25142 -0.14921,-0.38583 -0.0685,-0.0851 -0.17279,-0.13007 -0.0924,-0.0583 -0.23184,-0.0504 -0.0761,0.004 -0.14999,0.0467 -0.0746,0.0297 -0.11267,0.0319 -0.0254,0.001 -0.0931,-0.071 -0.0551,-0.0732 0.006,-0.11483 0.0851,-0.0685 0.35613,-0.22385 0.27099,-0.15538 0.59125,-0.33902 0.3449,-0.19776 0.66733,-0.34336 0.32171,-0.15828 0.46118,-0.16623 0.13948,-0.008 0.19526,0.0779 0.055,0.0732 0.0608,0.17462 l 0.003,0.0507 q 0.007,0.12679 -0.0149,0.40791 -0.0221,0.28112 -0.0497,0.68975 -0.0149,0.40791 -0.0226,0.94261 -0.008,0.53471 0.0278,1.156 z m -0.88326,-6.56435 q 0.0641,0.009 0.21083,0.1279 0.15938,0.11811 0.32094,0.27427 0.16155,0.15615 0.28435,0.30179 0.12279,0.14565 0.12568,0.19636 0.004,0.0634 -0.1413,0.19887 -0.14492,0.13548 -0.33984,0.28652 -0.18295,0.13764 -0.36736,0.24993 -0.17172,0.11156 -0.2478,0.1159 -0.038,0.002 -0.1967,-0.10327 -0.14671,-0.11884 -0.30754,-0.26231 -0.16083,-0.14347 -0.29558,-0.27572 -0.12279,-0.14564 -0.12568,-0.19636 -0.004,-0.0634 0.15398,-0.19959 0.15688,-0.14888 0.33911,-0.2992 0.19419,-0.16372 0.36592,-0.27528 0.18368,-0.12496 0.22099,-0.13981 z"/>
      <path d="m 163.82399,164.03688 q 0.15685,0.21571 0.3165,0.41367 0.15218,0.18769 0.31838,0.28668 0.16619,0.099 0.35667,0.1018 0.18301,-0.007 0.40898,-0.17177 0.11299,-0.0822 0.24185,-0.20727 0.1214,-0.13538 0.21478,-0.26609 0.10366,-0.13819 0.16622,-0.24649 0.0728,-0.11578 0.0785,-0.15126 0.008,-0.0532 0.0411,-0.0299 0.0327,0.0233 0.0598,0.0822 0.0299,0.0411 0.0467,0.10738 0.009,0.056 -0.007,0.099 -0.0654,0.12605 -0.22506,0.44631 -0.15969,0.32025 -0.40436,0.718 -0.22413,0.3828 -0.46785,0.71706 -0.24093,0.31651 -0.44636,0.46589 -0.23625,0.17178 -0.47434,0.12508 -0.2381,-0.0467 -0.39495,-0.26241 -0.0523,-0.0719 -0.0896,-0.12326 -0.0271,-0.0588 -0.0766,-0.14847 -0.0644,-0.11018 -0.23806,-0.39218 -0.17085,-0.29974 -0.39678,-0.65364 -0.21566,-0.36136 -0.4416,-0.71526 -0.2334,-0.36417 -0.41265,-0.61069 l -0.26142,-0.3595 q -0.19419,-0.26706 -0.37438,-0.45009 -0.1802,-0.18302 -0.33426,-0.24373 -0.10364,-0.0345 -0.21569,-0.0159 -0.10924,9.3e-4 -0.22223,0.0831 -0.0616,0.0448 -0.10085,0.12044 -0.0467,0.0653 -0.0775,0.0878 -0.0205,0.0149 -0.11671,-0.009 -0.0859,-0.0317 -0.057,-0.0999 0.0346,-0.10364 0.17837,-0.38094 0.14382,-0.27731 0.31378,-0.60503 0.18304,-0.35293 0.37541,-0.64984 0.1849,-0.30718 0.29789,-0.38934 0.11299,-0.0822 0.20635,-0.0401 0.0859,0.0317 0.14566,0.11392 l 0.0299,0.0411 q 0.0747,0.10272 0.20819,0.3511 0.13351,0.24838 0.33143,0.60694 0.20819,0.3511 0.49107,0.80491 0.28288,0.45381 0.64886,0.95712 z m -4.29472,-5.04244 q 0.0588,-0.0271 0.24651,-0.007 0.19794,0.0131 0.4183,0.057 0.22035,0.0439 0.40242,0.0999 0.18208,0.056 0.21195,0.0971 0.0374,0.0514 -0.0112,0.2437 -0.0486,0.19234 -0.13076,0.42483 -0.0794,0.21475 -0.1737,0.40896 -0.0841,0.18673 -0.14568,0.23155 -0.0308,0.0224 -0.2213,0.0196 -0.18767,-0.0206 -0.40056,-0.0542 -0.21288,-0.0336 -0.39776,-0.0719 -0.18207,-0.056 -0.21195,-0.0971 -0.0373,-0.0514 0.0215,-0.25117 0.0514,-0.21009 0.12329,-0.43511 0.0747,-0.24276 0.15876,-0.4295 0.0869,-0.20448 0.1102,-0.23715 z"/>
      <path d="m 166.924,163.97426 q -0.0221,0.11776 0.0299,0.28637 0.0426,0.16001 0.0815,0.2303 0.0101,0.0265 -0.0236,0.0819 -0.0157,0.0546 -0.0329,0.0733 -0.0774,0.0841 -0.1615,0.007 -0.028,-0.0258 -0.0807,-0.21235 -0.0419,-0.14207 -0.12635,-0.44415 -0.0938,-0.31067 -0.18765,-0.62135 -0.0946,-0.32862 -0.1682,-0.58621 -0.0744,-0.27553 -0.0875,-0.37385 -0.004,-0.0897 0.0938,-0.12075 0.0882,-0.0396 0.10917,0.0314 0.001,0.0359 0.0209,0.071 0.0194,0.0351 0.0849,0.0953 0.0841,0.0774 0.34394,0.0576 0.25908,-0.0378 0.58696,-0.15026 0.31853,-0.12112 0.65201,-0.31476 0.33349,-0.19364 0.57426,-0.45533 0.28377,-0.30841 0.26957,-0.64937 -0.006,-0.3503 -0.29531,-0.61687 -0.32711,-0.30096 -0.67517,-0.24154 -0.34806,0.0594 -0.71594,0.29046 -0.35928,0.22168 -0.74138,0.54317 -0.38283,0.30356 -0.76941,0.51738 -0.37797,0.20449 -0.76342,0.22952 -0.38544,0.025 -0.75928,-0.31893 -0.28972,-0.26657 -0.40821,-0.73801 -0.10989,-0.48078 -0.0426,-1.02286 0.0759,-0.55143 0.32194,-1.11893 0.24602,-0.5675 0.67597,-1.03479 0.12898,-0.14019 0.329,-0.30131 0.20002,-0.16113 0.41013,-0.2957 0.20936,-0.15253 0.39368,-0.25907 0.18357,-0.12448 0.2804,-0.17345 0.0172,-0.0187 0.0662,0.0781 0.0583,0.10543 0.13271,0.38097 0.065,0.26693 0.10428,0.5619 0.0478,0.28563 0.0669,0.52751 0.0277,0.23254 -0.0153,0.27927 -0.009,0.009 -0.0516,0.0561 -0.043,0.0467 -0.0789,0.0482 -0.0381,-0.0523 -0.11289,-0.12114 -0.32711,-0.30096 -0.7892,-0.17387 -0.45349,0.11774 -0.96943,0.6785 -0.24937,0.27103 -0.25387,0.59479 0.004,0.31441 0.2284,0.52079 0.36449,0.33536 0.73124,0.29313 0.36676,-0.0422 0.74398,-0.26466 0.36788,-0.23102 0.74138,-0.54317 0.37349,-0.31215 0.76006,-0.52598 0.37723,-0.22243 0.76267,-0.24746 0.38545,-0.025 0.77798,0.33613 0.17757,0.16338 0.277,0.39293 0.0994,0.22955 0.13719,0.48863 0.0377,0.25908 0.031,0.529 -0.0161,0.26133 -0.0602,0.49685 -0.0355,0.22618 -0.0961,0.49834 -0.0699,0.26357 -0.17498,0.54657 -0.10507,0.283 -0.25612,0.54095 -0.1417,0.26655 -0.33948,0.48151 -0.0946,0.10281 -0.34769,0.28411 -0.24376,0.18991 -0.51481,0.37197 -0.26246,0.17271 -0.47257,0.30728 -0.21945,0.12598 -0.24674,0.11813 z"/>
      <path d="m 66.264196,174.38693 q -0.117563,0.31426 -0.343683,0.73624 -0.22612,0.42197 -0.59574,0.73227 -0.223717,0.18781 -0.353648,0.23056 -0.129931,0.0428 -0.22792,-0.074 -0.03266,-0.0389 -0.06376,-0.0957 -0.02138,-0.065 -0.02642,-0.11048 -0.01321,-0.0552 0.0078,-0.0895 0.01285,-0.0439 0.07469,-0.0295 0.123687,0.0288 0.248574,-0.0594 0.124888,-0.0883 0.261064,-0.20258 0.196098,-0.18121 0.2553,-0.44647 0.05104,-0.275 -0.05896,-0.56404 -0.07541,-0.16884 -0.281476,-0.49331 -0.206063,-0.32446 -0.529569,-0.74932 -0.313778,-0.43303 -0.720502,-0.93726 -0.405162,-0.52213 -0.870607,-1.07656 -1.06154,-1.26449 -1.717558,-1.90766 -0.664183,-0.6529 -0.861001,-0.67007 -0.126809,0.007 -0.268028,0.0758 -0.149385,0.0591 -0.283999,0.15551 -0.124888,0.0883 -0.24161,0.18625 -0.116723,0.098 -0.176645,0.16487 -0.05992,0.0669 -0.139658,0.0509 -0.07974,-0.016 -0.120564,-0.0646 -0.146983,-0.17508 -0.02053,-0.28124 0.06809,-0.0572 0.259503,-0.18468 0.183249,-0.13726 0.423297,-0.30562 0.24161,-0.18625 0.502674,-0.38883 0.261064,-0.20258 0.465327,-0.37406 0.252898,-0.21231 0.401563,-0.46977 0.158392,-0.26562 0.310179,-0.55887 0.151788,-0.29324 0.358814,-0.5997 0.216752,-0.31462 0.586372,-0.62491 0.457162,-0.38379 0.921288,-0.64077 0.464126,-0.25698 0.894748,-0.33659 0.422457,-0.0893 0.800121,0.0247 0.387391,0.10591 0.67319,0.44635 0.326628,0.38908 0.43074,0.84888 0.09595,0.45007 0.04719,0.90555 -0.03903,0.44732 -0.174125,0.8592 -0.133535,0.394 -0.283761,0.66935 0.38439,-0.27295 0.894028,-0.53497 0.501473,-0.27175 1.034407,-0.38751 0.524768,-0.12548 1.029241,-0.0184 0.5142,0.099 0.906153,0.56584 0.310297,0.36962 0.440466,0.84071 0.131731,0.4532 0.123804,0.95731 -0.01609,0.49439 -0.142663,1.01519 -0.125009,0.50292 -0.346086,0.9704 -0.211349,0.45933 -0.507478,0.85716 -0.278236,0.3994 -0.589495,0.6607 -0.18481,0.15515 -0.499551,0.35305 -0.296849,0.19946 -0.637648,0.38607 -0.3408,0.18661 -0.680038,0.35533 -0.337677,0.15082 -0.587813,0.22815 z m -0.829293,-2.68652 q 0.434343,0.49763 0.641608,0.70501 0.207265,0.20739 0.324707,0.30778 0.167997,0.14086 0.413809,0.21639 0.247373,0.0576 0.536776,0.0468 0.29913,-0.019 0.606065,-0.12741 0.308497,-0.12633 0.600302,-0.3713 0.311259,-0.2613 0.493788,-0.59693 0.182529,-0.33564 0.189255,-0.72267 0.0083,-0.40492 -0.177122,-0.86281 -0.185408,-0.45788 -0.610024,-0.96367 -0.383788,-0.45716 -0.799158,-0.65566 -0.415371,-0.1985 -0.851036,-0.1644 -0.434105,0.0162 -0.886943,0.24713 -0.452838,0.23092 -0.919726,0.62287 -0.272352,0.22864 -0.507357,0.44251 -0.243171,0.20414 -0.351728,0.31186 0.0801,0.11516 0.178085,0.23188 0.09799,0.11672 0.212308,0.2529 z m -3.407734,-4.33577 q 0.0867,0.14278 0.255057,0.38283 0.168357,0.24005 0.40204,0.55791 0.225517,0.30814 0.500029,0.67463 0.276072,0.34861 0.576641,0.7264 0.03422,0.021 0.147824,-0.0412 0.105434,-0.0719 0.240049,-0.16836 0.144341,-0.10459 0.29841,-0.21735 0.145902,-0.12249 0.262624,-0.22048 0.18481,-0.15514 0.312821,-0.27919 0.119844,-0.13377 0.192615,-0.24461 0.07433,-0.12873 0.121046,-0.25086 0.04671,-0.12212 0.06893,-0.27343 0.0592,-0.26526 -0.04143,-0.66166 -0.0909,-0.40457 -0.507353,-0.90063 -0.293965,-0.35017 -0.611707,-0.53114 -0.325908,-0.19069 -0.628519,-0.23512 -0.310778,-0.0542 -0.588533,0.0298 -0.268028,0.0758 -0.482019,0.25542 -0.106995,0.0898 -0.238127,0.24966 -0.131133,0.15983 -0.219875,0.3504 -0.09691,0.18085 -0.12537,0.40372 -0.0269,0.20499 0.06485,0.39328 z"/>
      <path d="m 76.534734,165.52636 q -0.03981,0.20287 -0.15013,0.58272 -0.110317,0.37984 -0.329027,0.82587 -0.20787,0.43941 -0.542164,0.86673 -0.334294,0.42731 -0.822058,0.72514 -0.444407,0.27135 -0.946555,0.39939 -0.508767,0.1172 -1.010239,0.0514 -0.508091,-0.0767 -0.972149,-0.37363 -0.459837,-0.31444 -0.823843,-0.9106 -0.297823,-0.48776 -0.444573,-0.87433 -0.153368,-0.3974 -0.203815,-0.72372 -0.05706,-0.33717 -0.03951,-0.60085 0.02178,-0.28114 0.07003,-0.51893 0.0543,-0.301 0.197707,-0.62665 0.143409,-0.32565 0.339191,-0.63863 0.206621,-0.3196 0.474629,-0.58741 0.27223,-0.28526 0.597406,-0.48381 0.585317,-0.35739 1.029622,-0.36083 0.455144,-0.0101 0.66693,0.33679 0.132365,0.21679 0.114806,0.48047 0.08854,-0.0987 0.204797,-0.27385 0.127099,-0.18176 0.254198,-0.36353 0.120481,-0.19261 0.210842,-0.33706 0.1012,-0.15107 0.124702,-0.21006 0.0084,-0.0349 0.03674,-0.0373 0.03252,-0.0199 0.05237,0.0127 0.08604,0.14091 0.09141,0.27155 -0.0012,0.1198 -0.04403,0.22033 -0.107244,0.21428 -0.333146,0.57542 -0.225901,0.36114 -0.514441,0.79028 -0.284318,0.41168 -0.594536,0.85406 -0.316836,0.43154 -0.596934,0.82577 -0.269259,0.38761 -0.471658,0.68976 -0.198179,0.28469 -0.262641,0.39845 0.225022,0.36853 0.56448,0.60767 0.34368,0.22168 0.749423,0.3013 0.405743,0.0796 0.849474,0.002 0.447952,-0.0949 0.88152,-0.35968 0.390212,-0.23826 0.65822,-0.50606 0.261391,-0.27865 0.41861,-0.50857 0.150602,-0.24075 0.223505,-0.38943 0.07712,-0.16613 0.08796,-0.17275 0.04336,-0.0265 0.113187,-0.01 0.06321,0.006 0.08968,0.0494 z m -4.827997,0.67124 q 0.144557,-0.17755 0.319234,-0.40324 0.178897,-0.24316 0.329499,-0.48392 0.16144,-0.24737 0.286142,-0.45744 0.124702,-0.21006 0.175926,-0.3455 0.109068,-0.26004 -0.0961,-0.59605 -0.07942,-0.13007 -0.219653,-0.23789 -0.129394,-0.11444 -0.29313,-0.16326 -0.170354,-0.0597 -0.350973,-0.0387 -0.187238,0.0102 -0.360665,0.11606 -0.151749,0.0927 -0.258993,0.30694 -0.113863,0.20344 -0.120009,0.53456 -0.01277,0.32028 0.117101,0.77668 0.134087,0.43893 0.47162,0.99173 z"/>
      <path d="m 79.48658,164.37923 c 0.07814,0.0883 0.15238,0.14195 0.222707,0.16089 0.07826,0.016 0.161017,0.008 0.248272,-0.0249 0.05553,-0.0207 0.112059,-0.0509 0.169597,-0.0904 0.01587,-0.006 0.03665,0.0134 0.06234,0.0581 0.03067,0.0337 0.04103,0.0615 0.03108,0.0833 -0.03279,0.0574 -0.10578,0.15241 -0.218959,0.28504 -0.108208,0.12171 -0.236247,0.25083 -0.384117,0.38734 -0.147869,0.13652 -0.306631,0.26806 -0.476286,0.39463 -0.161722,0.12361 -0.306042,0.47368 -0.432959,0.52104 -0.111053,0.0415 -0.204229,0.0582 -0.279528,0.0501 -0.07234,-1.1e-4 -0.110828,-0.0223 -0.13071,-0.0597 -0.118571,-0.22313 0.01786,-0.31937 -0.06307,-0.53219 -0.486012,-1.27802 -0.840812,-2.77297 -1.8977,-3.7484 -0.270274,-0.20801 -0.543838,-0.13099 -0.808577,-0.0236 -0.03173,0.0119 -0.06091,-0.0179 -0.08756,-0.0893 -0.0059,-0.0159 -0.0064,-0.0292 -0.0014,-0.0401 0.0099,-0.0218 0.03925,-0.0644 0.0879,-0.1277 0.443348,-0.57159 0.863295,-1.20827 1.520126,-1.55683 0.444527,-0.2359 0.555159,0.45769 0.813965,1.30936 0.107375,-0.22081 0.225168,-0.45003 0.35338,-0.68765 0.636112,-0.98441 2.06933,-2.2143 3.057356,-1.98841 0.903734,0.20662 1.983619,0.89989 1.491895,2.56051 -0.29187,0.98569 -0.613037,3.46879 0.503841,3.65078 0.934512,0.15228 1.459522,-0.55774 1.732291,-1.2046 0.585448,0.7618 0.732174,2.09017 -1.365317,2.51254 -2.375991,0.47846 -2.230121,-2.95742 -2.1862,-4.99655 0.03928,-1.82377 -2.542448,-1.11849 -3.093678,0.13181 -0.08966,0.20336 -0.113168,0.43534 -0.112567,0.67911 0.09097,1.01629 0.651689,1.52861 1.243878,2.38579 z"/>
      <path d="m 90.498133,161.94792 q -0.121326,0.1674 -0.380958,0.4658 -0.259632,0.2984 -0.645429,0.61134 -0.37318,0.31149 -0.856018,0.55892 -0.482839,0.24743 -1.050578,0.31289 -0.517274,0.0596 -1.026769,-0.035 -0.51095,-0.10728 -0.938423,-0.3776 -0.428928,-0.28294 -0.725368,-0.74734 -0.285278,-0.47848 -0.365279,-1.17238 -0.06546,-0.56774 -0.0363,-0.98019 0.0277,-0.42507 0.118953,-0.74241 0.0898,-0.32996 0.21647,-0.56189 0.137831,-0.24601 0.281481,-0.44155 0.17568,-0.25036 0.442585,-0.48568 0.266905,-0.23532 0.576023,-0.43715 0.321734,-0.20329 0.677429,-0.33379 0.366856,-0.14456 0.745349,-0.1882 0.681287,-0.0785 1.085962,0.10491 0.417291,0.18201 0.463837,0.58573 0.02909,0.25233 -0.09758,0.48426 0.1218,-0.0524 0.300865,-0.16252 0.191681,-0.11159 0.383362,-0.22318 0.190226,-0.1242 0.332896,-0.21736 0.155286,-0.0946 0.201388,-0.13827 0.02232,-0.0281 0.04901,-0.0184 0.03785,-0.004 0.04221,0.0335 0.01891,0.16401 -0.03108,0.28483 -0.05145,0.10821 -0.132487,0.18147 -0.187318,0.14944 -0.543992,0.38232 -0.356674,0.23288 -0.798755,0.50118 -0.430918,0.25423 -0.898231,0.52544 -0.468768,0.25859 -0.888524,0.49874 -0.407141,0.2387 -0.717713,0.42792 -0.29941,0.17515 -0.405686,0.25132 0.04946,0.42896 0.257106,0.78854 0.218812,0.34551 0.553607,0.58816 0.334794,0.24266 0.770046,0.35867 0.446413,0.10194 0.95107,0.0438 0.454192,-0.0524 0.809886,-0.18286 0.35424,-0.14312 0.593478,-0.28575 0.237782,-0.15526 0.366381,-0.25958 0.139761,-0.11838 0.152377,-0.11984 0.05047,-0.006 0.10675,0.0388 0.05483,0.032 0.06065,0.0825 z m -4.663531,-1.41831 q 0.205752,-0.10042 0.459061,-0.2319 0.26447,-0.14555 0.502253,-0.30081 0.250399,-0.15671 0.451787,-0.29498 0.201389,-0.13828 0.304755,-0.23968 0.208186,-0.1902 0.163095,-0.58131 -0.01745,-0.15139 -0.09945,-0.30813 -0.06937,-0.1582 -0.197468,-0.27127 -0.129548,-0.12569 -0.302289,-0.18248 -0.174196,-0.0694 -0.376058,-0.0461 -0.17663,0.0204 -0.363948,0.1698 -0.188771,0.13682 -0.333401,0.43474 -0.146084,0.28531 -0.219884,0.75405 -0.06264,0.45466 0.01154,1.0981 z"/>
      <path d="m 97.607071,161.87577 c -0.04308,-0.003 -0.06682,0.004 -0.07121,0.0203 -0.05709,0.2126 -0.124051,0.462 -0.200892,0.7482 -0.06647,0.28021 -0.134042,0.56452 -0.202706,0.85291 -0.05829,0.28241 -0.111099,0.54438 -0.158416,0.7859 -0.04731,0.24153 -0.06889,0.41983 -0.06472,0.53492 -0.0012,0.0698 0.05623,0.13344 0.172289,0.1909 0.113873,0.0657 0.248492,0.11935 0.403856,0.16104 0.06541,0.0175 0.131927,0.031 0.199542,0.0404 0.07359,0.0197 0.155364,0.0417 0.245312,0.0659 0.08995,0.0241 0.153963,0.0632 0.192048,0.11732 0.03809,0.0541 0.04944,0.10971 0.03407,0.16694 -0.01757,0.0654 -0.04111,0.12044 -0.07064,0.16513 -0.02135,0.0469 -0.113792,0.0482 -0.277336,0.004 -0.06542,-0.0175 -0.170624,-0.0502 -0.315612,-0.0979 -0.136814,-0.0455 -0.289982,-0.0954 -0.459505,-0.14968 -0.161345,-0.0521 -0.333063,-0.0982 -0.515154,-0.13832 -0.182091,-0.0401 -0.345934,-0.0666 -0.49153,-0.0794 -0.344646,-0.0224 -0.671045,-0.0311 -0.979197,-0.0262 -0.310347,0.0131 -0.592075,0.0339 -0.845184,0.0624 -0.253108,0.0285 -0.468322,0.0627 -0.645641,0.10279 -0.179515,0.0483 -0.31186,0.1004 -0.397036,0.1564 -0.04369,0.0321 -0.07371,0.0459 -0.09006,0.0416 -0.01635,-0.005 -0.0368,-0.0102 -0.06133,-0.0165 -0.01635,-0.005 -0.05065,-0.0402 -0.102896,-0.10653 -0.05444,-0.0585 -0.07178,-0.12449 -0.05202,-0.19806 0.01098,-0.0409 0.09286,-0.0846 0.245649,-0.13129 0.158769,-0.0363 0.344265,-0.0741 0.556488,-0.11358 0.210027,-0.0313 0.428232,-0.0603 0.654614,-0.0872 0.224186,-0.0187 0.415361,-0.0287 0.573525,-0.0301 0.05625,-0.0463 0.132872,-0.20103 0.229857,-0.46428 0.102965,-0.25288 0.230686,-0.63061 0.383163,-1.1332 0.16285,-0.50857 0.351553,-1.14607 0.56611,-1.91252 0.222735,-0.76425 0.481998,-1.68088 0.777789,-2.74988 0.07904,-0.29437 0.155088,-0.59393 0.228145,-0.89868 0.07525,-0.31292 0.139832,-0.60241 0.193735,-0.86847 0.0561,-0.27423 0.09414,-0.51386 0.114124,-0.71889 0.01999,-0.20503 0.01643,-0.35502 -0.01068,-0.44996 -0.02552,-0.0682 -0.09332,-0.12588 -0.203406,-0.17297 -0.09972,-0.0531 -0.223166,-0.0994 -0.370353,-0.13889 l -0.490623,-0.13173 c -0.04089,-0.011 -0.08995,-0.0242 -0.147187,-0.0395 -0.04906,-0.0132 -0.101113,-0.0316 -0.156159,-0.0551 -0.05285,-0.0317 -0.09642,-0.0653 -0.13072,-0.10084 -0.02612,-0.0333 -0.03369,-0.0704 -0.02272,-0.1113 0.02415,-0.0899 0.05289,-0.14798 0.0862,-0.17411 0.03551,-0.0343 0.151386,-0.0251 0.347637,0.0276 0.08177,0.0219 0.182886,0.0535 0.303346,0.0946 0.12046,0.0411 0.24092,0.0822 0.36138,0.12333 0.130833,0.0351 0.256479,0.0733 0.37694,0.11436 0.128637,0.0433 0.242017,0.0782 0.340142,0.10448 0.261666,0.0703 0.591246,0.13245 0.988747,0.18658 0.40568,0.0563 0.81514,0.13121 1.22838,0.22462 0.304754,0.073 0.612484,0.1513 0.923214,0.23473 1.02721,0.33085 2.10521,0.42487 2.96058,-0.0441 0.13605,-0.14757 0.25883,-0.22918 0.35456,-0.1941 0.18462,0.0677 0.18556,0.22758 0.0673,0.38623 -0.62485,0.8382 -1.98523,2.47714 -2.17709,3.37945 -0.0575,0.11607 -0.12299,0.16422 -0.19658,0.14446 -0.13083,-0.0351 -0.20712,-0.0775 -0.22885,-0.12719 -0.15105,-2.05222 -0.87084,-2.80405 -2.038844,-3.06749 -0.14719,-0.0395 -0.26636,-0.0365 -0.35752,0.009 -0.0339,0.061 -0.0876,0.19562 -0.16103,0.40386 -0.0734,0.20821 -0.15786,0.45731 -0.25325,0.74729 -0.085,0.284 -0.17664,0.59253 -0.274837,0.9256 -0.096,0.32489 -0.189801,0.6416 -0.281408,0.95013 -0.08343,0.31073 -0.163265,0.59174 -0.239504,0.84303 l -0.151491,0.56421 c 0.98525,0.27174 1.32787,0.425 2.364284,0.416 0.23435,-0.002 0.48633,-0.27587 0.67687,-0.3137 0.13044,-0.0259 0.16496,0.16428 0.11319,0.21457 -0.67886,0.65937 -0.93411,1.28845 -1.164604,1.98067 -0.0235,0.0709 -0.0307,0.14608 -0.0437,0.21178 -0.15885,0.0863 -0.24694,0.0837 -0.32219,-0.0733 0.10334,-0.35707 -0.0715,-0.85801 -0.35471,-1.03654 -0.722873,-0.45567 -0.666957,-0.18728 -1.484545,-0.35213 z"/>
      <path d="m 103.60174,164.91834 q -0.11739,0.23947 -0.2178,0.47313 -0.0948,0.22226 -0.10465,0.41545 -0.01,0.19319 0.0767,0.3629 0.0921,0.15831 0.34299,0.2813 0.12544,0.0615 0.29627,0.11695 0.17642,0.0441 0.33562,0.0655 0.17061,0.0271 0.2956,0.0318 0.1364,0.0103 0.17038,-0.001 0.051,-0.0174 0.0456,0.0224 -0.005,0.0398 -0.0447,0.0912 -0.0224,0.0456 -0.0731,0.0915 -0.0452,0.0344 -0.0906,0.0405 -0.14198,0.001 -0.49974,0.01 -0.35776,0.008 -0.82374,-0.0219 -0.44318,-0.0192 -0.85259,-0.0785 -0.39241,-0.0651 -0.62048,-0.17688 -0.26228,-0.12858 -0.33226,-0.3609 -0.07,-0.23232 0.0474,-0.4718 0.0391,-0.0798 0.0671,-0.13684 0.0394,-0.0514 0.0955,-0.13706 0.0673,-0.10844 0.23546,-0.39375 0.18515,-0.29113 0.39244,-0.65626 0.21869,-0.35954 0.42598,-0.72467 0.21288,-0.37654 0.34705,-0.65022 l 0.19566,-0.39912 q 0.14535,-0.29649 0.22294,-0.54133 0.0776,-0.24484 0.0593,-0.40941 -0.0179,-0.10777 -0.0867,-0.19811 -0.0519,-0.0962 -0.17731,-0.15764 -0.0684,-0.0335 -0.15361,-0.0329 -0.0796,-0.0107 -0.11382,-0.0275 -0.0228,-0.0112 -0.0463,-0.10756 -0.0121,-0.0908 0.0617,-0.097 0.10777,-0.0179 0.42014,-0.0203 0.31237,-0.002 0.68154,-0.005 0.39756,-0.003 0.74995,0.0282 0.35798,0.0199 0.48342,0.0814 0.12544,0.0615 0.13192,0.16368 0.0121,0.0908 -0.0327,0.18201 l -0.0224,0.0456 q -0.0559,0.11404 -0.2131,0.34814 -0.1572,0.23411 -0.38171,0.57665 -0.2131,0.34814 -0.4821,0.81032 -0.26901,0.46217 -0.54293,1.02094 z m 2.45084,-6.15339 q 0.0514,0.0393 0.12096,0.21488 0.0809,0.18112 0.1451,0.39645 0.0642,0.21532 0.0997,0.40248 0.0355,0.18715 0.0132,0.23277 -0.0279,0.057 -0.22069,0.10396 -0.19275,0.047 -0.4367,0.083 -0.22695,0.0302 -0.44273,0.0375 -0.20437,0.013 -0.27279,-0.0206 -0.0342,-0.0168 -0.12074,-0.18649 -0.0695,-0.17552 -0.13929,-0.37945 -0.0697,-0.20393 -0.1223,-0.38527 -0.0355,-0.18715 -0.0132,-0.23276 0.0279,-0.057 0.2321,-0.0984 0.20974,-0.0528 0.44228,-0.0943 0.24954,-0.0474 0.45391,-0.0604 0.22137,-0.0188 0.26117,-0.0134 z"/>
      <path d="m 108.58203,169.96516 c -0.76451,0.0342 -1.66064,-0.13805 -2.23397,-0.54542 -0.51811,-0.36813 -0.85527,-0.93958 -0.89475,-1.51745 -0.0888,-1.29917 0.58379,-2.53296 1.62998,-3.15087 1.17433,-0.6936 2.59696,-0.86924 4.26368,0.11674 -0.22367,-1.72553 -1.5092,-2.21826 -2.63361,-2.6359 -0.20618,-0.0766 -0.0856,-0.24619 0.0375,-0.2473 0.8702,-0.008 1.52735,0.11581 2.78691,-0.63751 0.0965,-0.0577 0.12521,0.0168 0.13323,0.0373 0.52979,1.35763 2.1026,3.12657 0.68612,5.91232 -0.76927,1.51291 -2.28103,2.6012 -3.77511,2.66805 z m 0.7779,-0.81401 c 1.98002,-1.09914 1.92933,-3.02711 1.02678,-3.65889 -1.69016,-1.1831 -3.1805,-0.43593 -3.64614,1.35453 -0.46167,1.77515 1.27449,3.05092 2.61936,2.30436 z"/>
      <path d="m 12.767968,159.3397 c 0.07316,-0.0713 0.181478,-0.10292 0.269002,-0.108 0.748084,-0.0434 0.759034,0.62947 0.56193,1.16819 -0.458862,1.25415 -0.362,2.64926 0.409423,3.41909 0.455629,0.45469 0.936525,0.61364 1.348176,0.57865 0.417015,-0.0415 0.770347,-0.23918 1.059997,-0.59293 0.241375,-0.29478 0.381476,-0.57948 0.420302,-0.85409 0.03883,-0.27461 0.0088,-0.54537 -0.08994,-0.81229 -0.09224,-0.26155 -0.229449,-0.52163 -0.411639,-0.78024 -0.176826,-0.26516 -0.365567,-0.52913 -0.566222,-0.79191 -0.194105,-0.25743 -0.37957,-0.51872 -0.556396,-0.78388 -0.176827,-0.26515 -0.309269,-0.53774 -0.397328,-0.81776 -0.08151,-0.27465 -0.09748,-0.55584 -0.04793,-0.84355 0.05492,-0.29426 0.211112,-0.59861 0.468576,-0.91305 0.246739,-0.30133 0.545577,-0.53265 0.896513,-0.69396 0.362851,-0.16249 0.751882,-0.24336 1.167093,-0.24261 0.420575,-0.006 0.85601,0.077 1.306304,0.24891 0.462208,0.17055 0.919315,0.44088 1.37132,0.81099 0.432353,0.35401 0.767609,0.69965 1.005766,1.03692 0.238157,0.33726 0.420346,0.59587 0.546569,0.77582 0.07566,-0.0256 0.15997,-0.0551 0.252914,-0.0884 0.09831,-0.0399 0.194527,-0.0705 0.288658,-0.0919 0.100681,-0.0161 0.196592,-0.0196 0.287733,-0.0106 0.09651,0.003 0.184062,0.0361 0.262671,0.10018 0.05896,0.0483 0.08872,0.10547 0.08929,0.1716 0.01249,0.0649 0.0053,0.11378 -0.0215,0.14654 -0.03992,0.022 -0.08758,0.0267 -0.142977,0.0142 -0.0554,-0.0125 -0.107521,-0.0224 -0.156363,-0.0296 -0.288897,-0.0615 -0.660364,0.0447 -1.114401,0.31859 -0.442123,0.27267 -0.900976,0.67936 -1.376559,1.22009 -0.01728,0.008 -0.0417,0.004 -0.07327,-0.0108 -0.03157,-0.0149 -0.06373,-0.0358 -0.09648,-0.0626 -0.05241,-0.0429 -0.08575,-0.0757 -0.100042,-0.0983 0.125452,-0.58597 0.172283,-1.09541 0.06527,-1.63242 -0.202288,-1.01514 -0.485684,-1.75075 -1.343429,-2.13893 -0.200131,-0.0763 -0.396107,-0.11095 -0.587929,-0.10387 -0.179907,0.006 -0.347615,0.0438 -0.503122,0.11329 -0.148957,0.075 -0.27171,0.17147 -0.368261,0.28938 -0.225283,0.27513 -0.32043,0.61852 -0.285439,1.03017 0.04035,0.4051 0.24094,0.84839 0.601761,1.32986 0.222682,0.30271 0.447144,0.62329 0.673386,0.96174 0.238157,0.33726 0.420016,0.68314 0.545577,1.03764 0.125561,0.35449 0.176359,0.71343 0.152392,1.07681 -0.02397,0.36337 -0.180775,0.72193 -0.470425,1.07568 -0.284287,0.34719 -0.639731,0.61423 -1.066332,0.80112 -0.414686,0.18571 -0.852277,0.29247 -1.312774,0.3203 -0.460497,0.0278 -0.916793,-0.023 -1.36889,-0.15243 -0.452097,-0.12944 -0.851741,-0.3363 -1.198934,-0.62059 -0.268583,-0.21992 -0.514523,-0.45413 -0.737821,-0.70263 -0.228662,-0.24195 -0.429626,-0.47763 -0.602891,-0.70704 -0.178629,-0.22287 -0.328373,-0.42755 -0.449232,-0.61405 -0.115495,-0.19305 -0.196456,-0.34142 -0.242882,-0.44509 0.144779,-0.0565 0.294923,-0.11962 0.45043,-0.18927 0.162059,-0.0643 0.32293,-0.14046 0.482614,-0.22857 0.166235,-0.0827 0.322051,-0.17948 0.467447,-0.29023 0.157311,-0.11193 0.300333,-0.24651 0.429066,-0.40373 0.187737,-0.22928 0.293851,-0.43238 0.318342,-0.60929 0.03104,-0.17155 7.07e-4,-0.29488 -0.091,-0.36998 -0.06551,-0.0536 -0.12209,-0.078 -0.16975,-0.0733 -0.04766,0.005 -0.112598,0.0172 -0.194813,0.0375 -0.06106,-0.0597 -0.07579,-0.11592 -0.05355,-0.17537 z"/>
      <path d="m 23.989991,167.69607 q 0.03306,-0.0141 0.03059,0.026 0.01406,0.0331 -0.0097,0.092 -0.0072,0.0519 -0.04275,0.10601 -0.03553,0.0541 -0.08511,0.0752 -0.325811,0.12879 -0.778906,0.23365 -0.453095,0.10486 -0.915497,0.16488 -0.129754,0.0161 -0.356206,0.0344 -0.226451,0.0182 -0.500017,0.0175 -0.257037,-0.008 -0.528132,-0.0487 -0.264066,-0.0243 -0.476077,-0.10981 -0.424023,-0.17099 -0.734438,-0.48787 -0.310414,-0.31689 -0.479105,-0.71356 -0.163941,-0.40845 -0.167352,-0.87541 0.0084,-0.46221 0.198353,-0.93335 0.204234,-0.50647 0.52606,-0.89706 0.321827,-0.39058 0.640992,-0.67269 0.330943,-0.27736 0.590834,-0.44643 0.26464,-0.18085 0.371028,-0.27489 -0.21904,-0.10202 -0.407495,-0.17802 -0.171927,-0.083 -0.336824,-0.14951 -0.37691,-0.15199 -0.640784,-0.2447 -0.259126,-0.1045 -0.478357,-0.13813 -0.103727,-0.0144 -0.214673,0.023 -0.110947,0.0374 -0.184088,0.049 -0.01406,-0.0331 -0.03514,-0.0826 -0.02811,-0.0661 -0.0091,-0.11323 0.0095,-0.0236 0.02603,-0.0306 0.0047,-0.0118 0.205365,-0.0678 0.205365,-0.0678 0.49565,-0.14247 0.306813,-0.0817 0.65846,-0.17268 0.368175,-0.098 0.686766,-0.17495 0.33037,-0.0722 0.554542,-0.11873 0.240701,-0.0536 0.309092,-0.0534 0.08017,0.005 0.131842,0.0806 0.05167,0.0756 0.01862,0.0897 -0.04483,0.009 -0.144002,0.0515 -0.09442,0.0304 -0.08986,0.087 0.08682,0.15826 0.371586,0.36894 0.28477,0.21069 0.661488,0.43107 0.381468,0.2086 0.791242,0.41492 0.414523,0.19455 0.756097,0.33229 0.506472,0.20423 0.82221,0.30416 0.320488,0.0882 0.53972,0.12179 0.207453,0.0289 0.275844,0.0291 0.01178,0.005 0.03287,0.0543 0.02109,0.0496 0.0021,0.0967 -0.0095,0.0236 -0.224173,0.0465 -0.202895,0.0277 -0.422317,0.0625 -0.129754,0.0161 -0.320871,0.0486 -0.179338,0.0372 -0.394011,0.0602 -0.198145,0.016 -0.415097,0.0106 -0.216953,-0.005 -0.398379,-0.0648 -0.186175,-0.0477 -0.426493,-0.1309 -0.240318,-0.0832 -0.504193,-0.17593 -0.259125,-0.10449 -0.534778,-0.20195 -0.259125,-0.1045 -0.482915,-0.19474 -0.05908,0.0446 -0.198528,0.15274 -0.122916,0.10106 -0.27908,0.28458 -0.156164,0.18351 -0.324297,0.43067 -0.168134,0.24715 -0.296373,0.56517 -0.194735,0.48291 -0.219631,0.95215 -0.0084,0.46221 0.132017,0.86117 0.152163,0.4037 0.450799,0.71583 0.298636,0.31214 0.722659,0.48313 0.247347,0.0997 0.494885,0.13109 0.259316,0.0361 0.497546,0.0226 0.250009,-0.009 0.469431,-0.0435 0.224173,-0.0465 0.396482,-0.1003 z"/>
      <path d="m 38.181524,167.67076 q 0.02256,-0.028 0.03923,0.009 0.02795,0.0226 0.03469,0.0857 0.01802,0.0492 0.01213,0.11366 -0.0059,0.0645 -0.03973,0.10642 -0.226955,0.26689 -0.577496,0.57252 -0.350542,0.30563 -0.730383,0.57608 -0.106915,0.0753 -0.298184,0.19786 -0.191269,0.1226 -0.433051,0.25058 -0.230501,0.11401 -0.488955,0.20546 -0.244478,0.10272 -0.471787,0.12699 -0.454617,0.0485 -0.877593,-0.0851 -0.422975,-0.13366 -0.758404,-0.40439 -0.336776,-0.28336 -0.559402,-0.69385 -0.209997,-0.41183 -0.263914,-0.91696 -0.05796,-0.54302 0.04236,-1.03907 0.100318,-0.49605 0.249304,-0.89511 0.161614,-0.40042 0.311452,-0.67186 0.148489,-0.28406 0.198151,-0.41708 -0.241285,0.013 -0.443337,0.0345 -0.190772,0.008 -0.367568,0.0265 -0.404105,0.0431 -0.680578,0.0854 -0.277822,0.0297 -0.487111,0.10309 -0.09833,0.036 -0.178641,0.12124 -0.08031,0.0852 -0.139407,0.12983 -0.02795,-0.0226 -0.06988,-0.0564 -0.0559,-0.0451 -0.0613,-0.0956 -0.0027,-0.0253 0.0086,-0.0392 -0.0013,-0.0126 0.14934,-0.15643 0.14934,-0.15644 0.370406,-0.35884 0.232346,-0.21638 0.499882,-0.46207 0.278815,-0.25966 0.52379,-0.47739 0.257603,-0.21907 0.433548,-0.36558 0.187225,-0.16047 0.24767,-0.19247 0.07307,-0.0333 0.154235,0.009 0.08116,0.0424 0.0586,0.0704 -0.03519,0.0293 -0.102871,0.11316 -0.06903,0.0712 -0.03838,0.11904 0.151042,0.0988 0.501441,0.15083 0.350399,0.052 0.786499,0.0693 0.434753,0.005 0.893414,-0.006 0.457314,-0.0233 0.823534,-0.0624 0.543015,-0.058 0.868654,-0.11826 0.324291,-0.0729 0.53358,-0.14636 0.19666,-0.0721 0.257106,-0.10408 0.01263,-0.001 0.05456,0.0325 0.04193,0.0338 0.04732,0.0844 0.0027,0.0253 -0.175945,0.1465 -0.166012,0.1199 -0.343305,0.25377 -0.106914,0.0753 -0.260298,0.19383 -0.140756,0.1172 -0.319397,0.23844 -0.16736,0.10727 -0.361325,0.20461 -0.193964,0.0973 -0.38204,0.13018 -0.186728,0.0455 -0.437946,0.0851 -0.251217,0.0396 -0.527691,0.0819 -0.277822,0.0297 -0.566924,0.0733 -0.277822,0.0297 -0.517759,0.0553 -0.03115,0.0672 -0.103368,0.22816 -0.06094,0.147 -0.112449,0.3824 -0.05151,0.23539 -0.08365,0.53258 -0.03214,0.29719 0.0043,0.63816 0.05527,0.51776 0.253982,0.94357 0.209997,0.41184 0.521517,0.69789 0.324149,0.2847 0.734496,0.41971 0.410347,0.13501 0.864965,0.0865 0.265193,-0.0283 0.498391,-0.11706 0.245825,-0.0901 0.449722,-0.21404 0.216526,-0.12529 0.393818,-0.25916 0.175945,-0.14651 0.302724,-0.27499 z"/>
      <path d="m 40.79722,166.51009 q 0.06017,0.25982 0.129841,0.50441 0.06681,0.23222 0.181156,0.38824 0.114347,0.15603 0.288604,0.233 0.171392,0.0646 0.44359,0.002 0.136098,-0.0315 0.303584,-0.0964 0.164622,-0.0772 0.301632,-0.1611 0.149384,-0.0867 0.249277,-0.16201 0.112266,-0.0781 0.131281,-0.10862 0.02852,-0.0457 0.04949,-0.0115 0.02097,0.0343 0.02292,0.099 0.01146,0.0495 10e-4,0.11708 -0.01328,0.0552 -0.04467,0.0886 -0.109401,0.0905 -0.38147,0.32298 -0.272068,0.23248 -0.652626,0.50311 -0.355812,0.26489 -0.710711,0.47744 -0.345393,0.1973 -0.592845,0.25461 -0.284569,0.0659 -0.485524,-0.0701 -0.200956,-0.13597 -0.261122,-0.39579 -0.02006,-0.0866 -0.03438,-0.14847 -0.002,-0.0647 -0.0125,-0.16658 -0.01628,-0.12659 -0.06603,-0.45401 -0.04024,-0.34265 -0.110042,-0.75668 -0.05743,-0.41689 -0.127233,-0.83091 -0.07267,-0.4264 -0.14143,-0.72335 L 39.178734,164.982 q -0.07449,-0.32168 -0.168912,-0.56054 -0.09442,-0.23886 -0.212544,-0.3549 -0.08192,-0.0723 -0.19236,-0.0988 -0.100934,-0.0418 -0.237032,-0.0103 -0.07424,0.0172 -0.139876,0.0715 -0.06851,0.0419 -0.105623,0.0505 -0.02475,0.006 -0.103799,-0.0542 -0.06668,-0.0628 -0.01341,-0.11422 0.07228,-0.0819 0.312964,-0.28105 0.240681,-0.19913 0.525122,-0.43447 0.306322,-0.25344 0.599359,-0.45166 0.290171,-0.21059 0.42627,-0.2421 0.136098,-0.0315 0.205644,0.0436 0.06668,0.0628 0.0896,0.16175 l 0.01146,0.0495 q 0.02865,0.12372 0.05457,0.40451 0.02591,0.2808 0.06811,0.68818 0.05456,0.40452 0.137781,0.93276 0.08322,0.52825 0.223606,1.1345 z m -1.984751,-6.31915 q 0.06473,-0.002 0.229478,0.0903 0.177122,0.0893 0.362839,0.21581 0.185718,0.12646 0.331452,0.24914 0.145735,0.12269 0.157195,0.17218 0.01432,0.0619 -0.105495,0.21997 -0.11982,0.15811 -0.286266,0.34005 -0.156938,0.1667 -0.319606,0.30866 -0.150296,0.13909 -0.224532,0.15628 -0.03712,0.009 -0.211374,-0.0684 -0.16475,-0.0922 -0.347602,-0.2063 -0.182853,-0.11409 -0.338095,-0.22154 -0.145734,-0.12268 -0.157194,-0.17217 -0.01433,-0.0619 0.117867,-0.22284 0.129328,-0.17334 0.283401,-0.35242 0.16358,-0.19431 0.313876,-0.3334 0.159803,-0.15433 0.194056,-0.1753 z"/>
      <path d="m 48.238915,165.48032 q -0.09549,0.15317 -0.262669,0.41118 -0.167174,0.25801 -0.406496,0.54054 -0.239323,0.28252 -0.555113,0.53738 -0.319877,0.24284 -0.716691,0.37769 -0.601232,0.20431 -1.139661,0.15925 -0.542514,-0.0571 -0.985682,-0.29546 -0.435229,-0.2545 -0.767026,-0.67827 -0.319771,-0.42787 -0.503654,-0.96898 -0.216572,-0.63731 -0.191715,-1.1957 0.02486,-0.55839 0.178836,-1.01311 0.161917,-0.47084 0.404857,-0.82166 0.238854,-0.36285 0.454361,-0.59704 0.09573,-0.11301 0.247495,-0.25848 0.16379,-0.14955 0.355717,-0.29525 0.20395,-0.14979 0.440123,-0.2837 0.244111,-0.15002 0.520678,-0.24401 0.51706,-0.17571 1.042996,-0.20689 0.53796,-0.0353 1.008794,0.12666 0.466749,0.14989 0.84641,0.51716 0.379661,0.36727 0.592147,0.99256 0.171624,0.50503 0.130421,1.01532 -0.02918,0.50621 -0.163193,0.94074 -0.134016,0.43452 -0.300722,0.77285 -0.158767,0.32222 -0.230213,0.46722 z m -1.293405,0.65415 q 0.685405,-0.23292 0.870435,-0.87257 0.197054,-0.64374 -0.166624,-1.71393 -0.183883,-0.54111 -0.495482,-0.94493 -0.303661,-0.41992 -0.69873,-0.67465 -0.383044,-0.25882 -0.809164,-0.32863 -0.430207,-0.0818 -0.85107,0.0612 -0.300616,0.10216 -0.524061,0.35247 -0.211421,0.24621 -0.313683,0.6163 -0.106349,0.35806 -0.08358,0.81978 0.02277,0.46173 0.20257,0.99081 0.192055,0.56516 0.511592,0.95287 0.331562,0.38361 0.726397,0.59818 0.390749,0.20255 0.808696,0.24831 0.425886,0.0296 0.8227,-0.1052 z"/>
      <path d="m 26.662832,168.22826 c 0.32395,0.48963 0.860121,0.75682 1.60614,0.82686 0.03793,0.004 0.255262,-0.002 0.625511,-0.005 l 0.414327,-3.83494 c -0.137745,-0.52916 -0.566981,-0.92457 -0.857802,-0.95188 -0.581642,-0.0546 -1.072041,0.14171 -1.429702,0.55459 -0.396781,0.42195 -0.616955,1.00081 -0.683437,1.70889 -0.06529,0.69544 0.03302,1.27869 0.324967,1.70153 z m 1.107375,1.51987 c -0.232348,0.0292 -0.500255,0.0296 -0.753142,0.006 -0.74602,-0.07 -1.296795,-0.4534 -1.652327,-1.15009 -0.245708,-0.50779 -0.351914,-1.1428 -0.280684,-1.90146 0.08785,-0.93569 0.402886,-1.70973 0.942732,-2.29684 0.553677,-0.59856 1.243239,-0.87823 2.05248,-0.80225 0.467842,0.0439 1.097168,0.45443 1.349278,0.94262 0.213682,-0.22478 1.467547,-0.24226 1.454752,0.0532 -0.02011,0.46441 -0.440897,-0.0749 -0.492761,1.2876 -0.03745,0.98395 -0.256785,1.66245 -0.236716,2.64146 0.05094,0.27266 1.011797,0.16019 1.261897,0.34948 0.315407,0.5155 -1.084643,1.11783 -1.452373,1.1458 -0.144123,0.005 -1.198783,-0.18879 -1.085478,-0.79639 z"/>
      <path d="m 112.1061,171.54453 c -0.0592,0.5841 0.18667,1.13036 0.71981,1.65688 0.0271,0.0268 0.19857,0.1604 0.4874,0.39209 l 2.74856,-2.70627 c 0.22837,-0.49681 0.14644,-1.07464 -0.0614,-1.27989 -0.41567,-0.4105 -0.91956,-0.56899 -1.4578,-0.47582 -0.57428,0.0754 -1.11118,0.38412 -1.61091,0.89015 -0.49082,0.497 -0.78396,1.01071 -0.82566,1.52286 z m -0.10501,1.87756 c -0.96585,-0.24236 -1.30269,-1.64729 -1.13762,-2.40862 0.11955,-0.5513 0.45108,-1.10741 0.98652,-1.64959 0.66037,-0.66868 1.39426,-1.06841 2.18384,-1.18111 0.80753,-0.11281 1.51836,0.10725 2.09668,0.67838 0.33434,0.33019 0.56161,1.04637 0.4477,1.58387 0.30771,-0.0387 1.28937,0.74155 1.09241,0.96218 -0.30958,0.34676 -0.29385,-0.33714 -1.1966,0.68475 -0.65192,0.73795 -1.25124,1.12431 -1.8555,1.89485 -0.13319,0.24331 0.6818,0.76455 0.75556,1.06941 -0.0822,0.59872 -1.54728,0.17862 -1.84964,-0.0325 -0.11463,-0.0875 -0.80844,-0.90507 -0.33607,-1.30367 z"/>
      <path d="m 137.99595,167.45498 c 0.26003,0.52637 0.75848,0.85865 1.48984,1.02165 0.0372,0.008 0.25344,0.0305 0.62121,0.0734 l 0.89173,-3.75277 c -0.0703,-0.54224 -0.44663,-0.98834 -0.73173,-1.05188 -0.57021,-0.12708 -1.08135,0.006 -1.48794,0.37101 -0.44654,0.3689 -0.73753,0.91559 -0.89224,1.60976 -0.15194,0.68177 -0.12751,1.27274 0.10914,1.72884 z m 0.90815,1.64668 c -0.23418,-1.4e-4 -0.50002,-0.0334 -0.74794,-0.0886 -0.73135,-0.163 -1.22973,-0.61237 -1.49514,-1.34813 -0.18012,-0.53458 -0.2059,-1.17789 -0.0401,-1.92164 0.20443,-0.9173 0.614,-1.64575 1.22318,-2.16056 0.62433,-0.52445 1.34351,-0.71548 2.13685,-0.53867 0.45864,0.10222 1.03155,0.58836 1.22049,1.1043 0.24017,-0.19623 1.48633,-0.0564 1.43661,0.23514 -0.0782,0.45823 -0.42803,-0.12962 -0.65027,1.21568 -0.16048,0.9715 -0.46313,1.61716 -0.56592,2.59096 0.0164,0.27689 0.98374,0.28574 1.20814,0.50489 0.2483,0.55097 -1.2162,0.97306 -1.58454,0.95472 -0.14359,-0.0132 -1.16566,-0.33755 -0.97709,-0.92616 z"/>
      <path d="m 156.63938,168.23366 c 0.0781,0.0883 0.15238,0.14195 0.22271,0.16089 0.0783,0.016 0.16102,0.008 0.24827,-0.0249 0.0555,-0.0207 0.11206,-0.0509 0.1696,-0.0904 0.0159,-0.006 0.0366,0.0134 0.0623,0.0581 0.0307,0.0337 0.041,0.0615 0.0311,0.0833 -0.0328,0.0574 -0.10578,0.15241 -0.21896,0.28504 -0.10821,0.12171 -0.23625,0.25083 -0.38412,0.38734 -0.14787,0.13652 -0.30663,0.26806 -0.47628,0.39463 -0.16173,0.12361 -0.30605,0.2091 -0.43296,0.25646 -0.11106,0.0415 -0.20423,0.0582 -0.27953,0.0501 -0.0723,-1.1e-4 -0.11083,-0.0223 -0.13071,-0.0597 -0.11857,-0.22313 0.0179,-0.31937 -0.0631,-0.53219 -0.48601,-1.27802 -0.57623,-3.03755 -1.63312,-4.01298 -0.27027,-0.20801 -0.54384,-0.13099 -0.80858,-0.0236 -0.0317,0.0119 -0.0609,-0.0179 -0.0876,-0.0893 -0.006,-0.0159 -0.006,-0.0292 -10e-4,-0.0401 0.01,-0.0218 0.0393,-0.0644 0.0879,-0.1277 0.44335,-0.57159 0.8633,-1.20827 1.52013,-1.55683 0.44453,-0.2359 0.55516,0.45769 0.81397,1.30936 0.10737,-0.22081 0.22516,-0.45003 0.35338,-0.68765 0.63611,-0.98441 2.06933,-1.94972 3.05735,-1.72383 0.90374,0.20662 1.98362,0.89989 1.4919,2.56051 -0.29187,0.98569 -0.34846,3.20421 0.76842,3.3862 0.93451,0.15228 1.45952,-0.55774 1.73229,-1.2046 0.58545,0.7618 0.73217,2.09017 -1.36532,2.51254 -2.37599,0.47846 -2.4947,-2.69284 -2.45078,-4.73197 0.0393,-1.82377 -2.54245,-1.38307 -3.09368,-0.13277 -0.0897,0.20336 -0.11316,0.43534 -0.11256,0.67911 0.091,1.01629 0.3871,2.05777 0.97929,2.91495 z"/>
    </g>
  </g>
</svg>