<svg xmlns="http://www.w3.org/2000/svg" xmlns:xlink="http://www.w3.org/1999/xlink" version="1.1" id="Logo" x="0px" y="0px" width="848px" height="856px" viewBox="0 0 848 856" enable-background="new 0 0 848 856" xml:space="preserve">
<g>
	<path fill-rule="evenodd" clip-rule="evenodd" fill="#4DA332" d="M581.463,624.59c4.211,2.071,8.832,3.421,13.158,4.333   c3.227,1.883,8.322,3.753,9.13,7.249c-10.998-4.829-20.937,2.686-31.943,0.537c2.149,2.419,5.911,2.956,9.127,3.227   c1.88,0.805,5.366,3.224,4.289,5.364c-7.505-1.333-15.825-1.333-24.147-1.87c-4.031-0.539-8.321-2.959-12.355-1.884   c1.884,2.689,6.184,4.033,9.13,7.25c5.376,8.857,15.3,11.007,22.278,17.192c0.268,2.955,1.343,5.631,0,8.32   c-4.023,13.697-18.516,7.527-27.104,12.623c-3.227,1.343-7.25,4.301-6.442,8.593c3.753,12.093,6.172,25.512,5.901,38.673   c-72.464,10.215-154.6,9.141-230.022,4.839c-1.063-5.376,0-12.624,1.076-18.269c-1.076-9.397,7.246-19.062-0.537-27.117   c-20.666-9.407-49.382-5.376-70.588,0.541c-7.244-12.355-26.04-1.347-31.943-15.044c0-13.7-5.094-30.085,6.444-40.02   c5.645,0.271,9.125,5.635,13.951,8.59c10.476,7.528,22.023-0.269,34.367,2.956c14.224,1.613,23.352-9.128,33.276-17.998   c6.707,1.613,2.419,11.291,9.128,14.507c4.559,2.686,16.106,1.613,16.106,1.613c32.469,34.642,75.152,51.565,123.46,44.854   c38.724-4.958,77.622-33.157,96.136-69.061H581.463L581.463,624.59z"/>
	<path fill-rule="evenodd" clip-rule="evenodd" d="M309.123,599.222c-2.151-0.539-4.292-2.409-5.364-4.288   c-0.271-3.497-1.612-8.871,1.868-11.291C307.511,588.211,308.047,593.857,309.123,599.222L309.123,599.222z M743.856,686.393   c-19.858-10.201-44.017-12.082-68.179-10.201l-1.072-0.806c2.149-2.418,4.568-4.031,6.976-5.905   c8.86-12.891,21.216-22.568,33.289-31.966c8.857-7.244,10.728-18.525,16.374-27.396c1.344-2.15,4.292-2.948,4.827-4.825   c-10.74,1.342-18.245,11.546-28.985,11.546c2.418-5.645,6.172-10.473,5.364-17.461c-0.537-2.15-2.946-1.884-4.022-1.884   c2.946-5.362,8.848-9.664,11.807-15.03c-2.675-9.139,0.268-19.611,2.419-28.47c0.808-2.419,3.215-4.57,2.678-6.721l-12.344,10.483   c-3.213-7.258-2.421-16.118-2.421-24.707c-0.267-4.033,4.033-7.527,1.884-11.561l-4.022,4.033l-1.342-1.613   c1.881-6.442,8.319-12.354,6.172-19.332c5.364-4.839,10.203-9.669,9.662-16.926c5.637-5.095,6.981-11.814,10.732-17.716   c0.27-2.152,1.613-5.915-1.064-7.258c1.602-6.979,6.967-11.816,6.43-19.333c-0.525-1.881-2.409-2.151-3.481-2.959   c1.878-6.986,6.168-12.624,6.438-20.404c-1.064-3.227-5.098-0.541-6.979-2.96c5.099-11.277,5.915-24.169,5.378-38.138   c-1.881-10.74-2.959,4.033-5.645,2.959c2.148-10.752,8.052-23.107,2.419-34.386c-2.689-0.808-4.032,1.344-5.903,1.881   c-0.269-6.978,0.807-15.58-1.074-22.557c-1.076-5.644,0.537-12.624-1.343-17.462c-4.033,6.185-7.25,12.894-12.075,18.268   c-2.689-11.277-2.419-24.169-5.905-35.18c-0.28,0.268-0.28,0.539-0.815,0.539c-16.363,24.438-19.86,54.245-23.343,84.061   c-4.032,2.956-9.128,4.569-13.416,5.911c1.87-9.409-1.347-17.462-1.076-26.59c-2.69,1.613-5.633,6.709-9.665,8.59l-0.27-0.535   c1.883-8.055,2.418-17.733,1.342-26.59l-1.342-1.346l-8.859,8.604c-1.872-11.291-1.076-24.183-8.055-32.771   c-1.063,4.837-3.481,9.127-5.365,13.966c-4.559-13.7-11.805-28.744-25.771-35.718c5.105,8.322,6.184,18,8.322,27.396   c2.689,28.727-3.483,54.511-10.998,79.488c-17.99-1.345-30.601,9.676-44.02,18.805l0.002,1.347   c3.751,1.343,8.588,1.072,11.534,4.019c-2.139,1.344-4.019,3.226-6.172,3.763c4.033,4.839,12.075,4.302,18.261,6.185   c-7.248,3.483-13.957,7.244-21.742,8.857v1.343c2.944,8.592,12.344,9.668,20.396,10.205   c-23.888,16.926-27.642,47.534-20.933,73.589c11.535,19.868,13.687,51.026,1.88,71.435c3.484,3.764,10.46,6.723,10.73,12.624   c-4.825,2.15-9.129-3.215-13.418-4.829c-1.343,2.153,0.269,4.292,0.269,6.713c4.291,10.74,16.107,15.309,26.299,17.458   c3.227,1.882,8.322,3.752,9.13,7.248c-10.998-4.829-20.937,2.686-31.943,0.537c2.149,2.419,5.911,2.956,9.127,3.227   c1.88,0.805,5.366,3.224,4.289,5.364c-7.505-1.333-15.825-1.333-24.147-1.87c-4.031-0.539-8.321-2.957-12.355-1.884   c1.884,2.689,6.184,4.033,9.13,7.25c5.376,8.857,15.3,11.007,22.278,17.192c0.268,2.955,1.343,5.633,0,8.322   c-4.023,13.695-18.516,7.527-27.104,12.621c-3.227,1.345-7.25,4.301-6.442,8.593c3.753,12.094,6.172,25.512,5.901,38.675   c-72.464,10.213-154.6,9.139-230.022,4.837c-1.063-5.374,0-12.624,1.076-18.269c-1.076-9.397,7.246-19.062-0.537-27.117   c-20.666-9.407-49.382-5.374-70.588,0.541c-7.244-12.354-26.04-1.347-31.943-15.044c0-13.7-5.094-30.085,6.444-40.02   c5.645,0.271,9.125,5.637,13.951,8.59c10.476,7.53,22.023-0.269,34.367,2.958c14.224,1.612,23.352-9.13,33.276-18   c6.707,1.613,2.419,11.291,9.128,14.507c4.559,2.686,16.106,1.613,16.106,1.613c32.469,34.642,75.152,51.567,123.46,44.854   c46.168-5.911,92.592-44.854,104.41-90.511c14.226-49.684-1.879-102.059-41.878-136.163l0.808-1.612   c0.806-33.567,0-68.219,16.912-95.07c1.076-1.344,2.15,0.271,2.955,0.798c4.289,10.483,2.946,24.975-4.298,33.041   c-1.335,3.226,0,6.979,3.227,8.592c3.21,1.343,6.707,0.267,8.847-2.42c-1.332-21.485,4.299-43.236,2.417-65.795   c-2.944-23.642-13.17-53.055-40.558-59.507l0.102-37.172l-6.832-20.026v-66.642l6.73-16.648v-18.667   c-162.583-0.271,1.041,0.043-161.543-0.225v19.881l9.656,15.299l-0.391,67.146l-7.651,19.062l-0.536,23.642   c-3.764,1.604-8.322-0.535-12.088-1.877c-13.954-4.033-24.415,5.901-35.157,12.083c-4.288,4.826,0,11.548-2.151,17.449   c1.075,25.248-13.688,46.471-7.515,71.448c-4.558,4.559-9.655,9.668-15.031,13.161c-5.631,3.752-11.805,7.515-16.899,11.546   l0.806,0.808c12.075-4.031,23.073-11.021,33.813-18.265c1.343,1.613,2.689,3.491,3.496,5.374   c-9.397,10.206-19.871,19.333-31.406,24.978c0,1.074-0.27,2.139,0.535,2.405c12.611-2.944,22.279-13.159,33.276-19.598   c10.743,19.868,5.097,56.124,36.233,58.276c6.171-0.539,11.28-4.022,16.913-6.172c11.268-4.572-2.942-11.818-1.88-18.806   c-5.366-13.431-7.785,4.298-13.957,3.763c-1.879-0.271-2.149-2.149-2.945-3.226l1.871-31.957   c3.493-5.644,10.202-8.331,15.031-13.161c6.978,9.129,6.707,20.141,5.633,31.957c1.611,16.386,3.225,33.847,2.419,49.684   c-36.769,26.59-56.36,66.074-55.556,110.38c-0.805,1.884-2.687,0.539-4.298,0.806c-8.055,7.527-19.59,16.389-15.032,28.744   c2.42,8.59,13.429,9.664,15.032,18.805c-1.604,2.676-4.829,3.213-7.786,4.289c-15.557-0.271-26.567-19.063-33.812-30.879   c15.836-16.926,35.426-33.836,44.554-54.256c12.61-27.664-4.56-53.718-19.32-75.469c-1.612-7.246,7.516-10.205,10.728-15.85   c-1.072-0.806-1.88-2.137-2.955-2.407c-0.528-1.345-3.754-3.224-0.528-4.302c7.25-7.257,13.959,2.959,20.398,3.226   c-0.27-4.302-1.345-8.331-2.956-12.083c-4.024-8.604-13.688-7.259-20.397-11.547c-8.055-14.776-25.232-3.497-37.041-9.678   c-13.685-31.685-18.512-72.245-9.665-107.694c-10.192,4.302-9.925,15.58-14.494,23.096c-4.559-6.44-2.946-15.579-8.322-21.751   c-5.635,14.235-6.978,30.071-8.311,45.921c-0.807,1.347-2.15,1.884-3.763,1.613c-7.785,4.572-5.366,14.773-5.901,22.02   c-7.787-0.269-4.572,9.143-6.709,13.698l-0.541-0.537c-1.343-1.343-4.298-1.343-5.631,0   c-12.087-19.061-19.604-39.749-26.042-60.963c-0.539-2.687-3.216-5.376-6.442-4.3c-5.901,4.839-9.127,12.083-9.127,20.418   c-0.537,4.02-5.365,1.879-7.244,4.826c-4.559,10.217,0.267,22.031,1.342,31.699c-2.946-0.271-7.516-1.343-9.664,1.613   c-1.604,7.785,0.806,15.029,2.956,21.751c0.537,3.492,4.828,6.172,3.496,10.203c-2.689-0.271-5.109-0.271-6.722,1.88   c-2.139,7.515,2.956,13.16,6.722,18.805c-2.42,1.604-5.915,0.528-7.785,2.948c0.267,6.987,4.289,12.622,8.32,18.269   c-2.148,1.881-5.107,1.881-6.45,4.288c-1.076,6.991,5.374,12.097,8.857,17.463c-1.611,1.883-4.02,1.612-5.363,4.031   c-1.346,5.366,1.613,10.205,5.633,13.966c0.537,2.411-3.482,2.946-2.677,5.636c5.633,15.311,21.473,21.753,34.621,26.592   c-1.613,3.224-6.979,2.955-9.664,4.837c5.364,1.345,10.74-1.076,15.029,2.944c-2.946,6.99-9.127,12.624-15.57,15.583   c6.979,1.072,15.299,0.267,22.817-1.613c1.88,1.613,0.537,4.298,1.074,6.45c0.539,4.29,5.366,5.096,8.593,6.711   c-1.078,2.685-1.615,5.644-3.497,8.329c-25.492,33.299-42.67,82.446-87.228,95.606c-1.881,0.806-5.633,0.806-4.825,2.96   l18.243-1.076c19.602-6.989,44.017-4.033,63.889-9.667c5.364,2.944,13.147,2.407,19.319,2.407c1.613,3.496,2.15,7.528,3.216,11.281   c0.535,4.299,1.072,9.944-0.528,13.967c-24.697-0.271-48.589,2.149-69.521,11.548c-3.495,2.418-8.592,6.181-6.172,11.021   c19.588,23.632,30.331,50.75,39.448,78.414c6.452,11.009,19.602,11.289,31.136,12.622c0.807,0.536,1.076,1.344,0.807,2.42   c1.884,11.548,15.029,14.235,24.697,16.922c149.615,30.523,356.163,12.624,447.423-10.74l5.635-4.3   c2.688-3.225,1.345-8.591,1.074-12.622l1.347-1.347c11.268-1.879,23.353-2.955,31.122-12.085   c5.38-22.286,12.895-43.245,25.505-62.308c4.022-6.709,9.665-12.623,12.61-19.332C747.876,691.5,746.812,688.547,743.856,686.393   L743.856,686.393z M379.977,434.857c-4.021-8.325-7.246-17.99-9.922-27.119l0.267-2.957c6.71,9.933,9.118,21.484,14.228,31.956   c0.96,5.095-1.795,8.444-3.52,12.219C382.655,444.22,379.732,439.313,379.977,434.857L379.977,434.857z M425.876,399.942   c11.267,6.183,29.257,11.55,30.062,27.666l0.537,9.668c-11.277,0-23.89-2.152-35.424,0l-0.808-1.076   C419.973,423.307,419.704,409.879,425.876,399.942L425.876,399.942z M480.096,436.737c-0.266-5.366-4.836-9.399-6.72-13.968   c4.035,5.645,13.163,8.602,9.666,16.925c-0.537,8.052-4.288,14.504-5.901,22.288C472.312,452.855,481.967,446.403,480.096,436.737   L480.096,436.737z"/>
	<path fill-rule="evenodd" clip-rule="evenodd" fill="#FFFFFF" d="M437.949,366.643v34.91l-10.462-4.836   c-0.535-9.665-1.072-20.407,0.537-29.535C430.971,366.376,435.273,366.643,437.949,366.643L437.949,366.643z"/>
	<path fill-rule="evenodd" clip-rule="evenodd" fill="#D9CFC2" d="M200.424,516.506c3.483,0,6.976,1.883,10.459,0.537   c-2.407,2.687-6.168,4.572-9.651,5.635c-0.271,1.076,0.535,1.344,1.072,2.148c5.635,0.27,10.731-0.805,15.827-1.072   c-0.808,6.181-5.367,11.02-9.128,15.581l1.072,0.806c6.186-2.958,13.432-5.109,17.718-11.548c1.615,3.226-2.685,5.096-0.804,7.245   c3.765-1.6,8.056-4.02,10.204-8.321c1.613,2.149-2.148,9.127,3.216,9.666c5.902-0.81,9.665-6.172,11.277-11.55   c-0.267-0.807,0.271-1.879-0.535-2.418c-2.957,0.807-2.422,5.378-4.304,7.796c-2.14,1.88-3.482,4.021-6.438,3.763   c-1.604-4.031,1.613-8.6-2.946-11.559c-2.418,2.959-3.226,6.99-7.248,8.333c-0.269-2.419,1.066-5.374-1.345-6.722   c-2.148,0.807-3.494,3.767-5.364,5.646l-6.719,4.302c1.613-3.494,3.492-9.141,5.911-13.429c-1.613-1.615-4.298,0.537-6.438,0.537   h-5.645c2.418-2.958,5.105-4.569,6.172-8.332c-4.559-1.346-9.925,2.686-15.557,0.535c-1.346-1.073-4.302-1.073-3.767-3.761   c0.563-0.313,1.131-0.594,1.725-0.842c-1.834-0.089-3.595-0.425-5.174-1.075C195.235,511.387,194.519,515.286,200.424,516.506   L200.424,516.506z"/>
	<path fill-rule="evenodd" clip-rule="evenodd" fill="#D9CFC2" d="M163.653,440.769c2.451,1.32,5.037,4.1,7.571,4.603   c-3.54-4.559-10.619-6.406-14.28-12.119c-2.891-2.9-5.548-6.013-8.087-9.127C153.134,429.947,158.152,435.473,163.653,440.769   L163.653,440.769z"/>
	<path fill-rule="evenodd" clip-rule="evenodd" fill="#D9CFC2" d="M184.317,507.378c1.422-0.359,3.551-1.075,4.436-2.375   c-10.909,4.457-22.738,0.917-33.348-3.876C163.924,506.057,174.114,508.149,184.317,507.378L184.317,507.378z"/>
	<path fill-rule="evenodd" clip-rule="evenodd" fill="#D9CFC2" d="M199.189,509.482c4.807,0.234,10.128-1.153,14.112-2.642   c0.664,0,1.045-0.281,1.267-0.673c-0.057-0.146-0.133-0.269-0.191-0.402C209.597,507.435,203.962,507.422,199.189,509.482   L199.189,509.482z"/>
	<path fill-rule="evenodd" clip-rule="evenodd" fill="#D9CFC2" d="M191.293,506.841c0.818,0.66,1.737,1.163,2.723,1.566   c-0.459-1.118-1.199-2.104-2.653-2.767C191.25,506,191.194,506.368,191.293,506.841L191.293,506.841z"/>
	<path fill-rule="evenodd" clip-rule="evenodd" fill="#D9CFC2" d="M269.25,473.799c1.344,1.88,2.955,2.958,5.366,4.034   c0.537-1.076,1.612-0.541,2.419-0.541c0,4.29-1.076,8.862-4.83,11.011c-3.224,1.076-4.031-1.884-5.374-3.227   C269.787,481.582,264.961,476.757,269.25,473.799L269.25,473.799z"/>
	<path fill-rule="evenodd" clip-rule="evenodd" fill="#D9CFC2" d="M198.812,608.35c4.555-14.494,23.351-4.83,28.983-17.988   l-0.806-0.806c-4.02,4.031-8.858,7.515-14.494,5.376c-3.493-1.076-1.879-5.107-1.613-7.258c1.881-4.837,4.302-9.397,7.248-13.699   c5.376,0.537,9.935-1.882,14.223-5.365c1.613,2.946,5.109,3.752,7.515,2.141c-0.792,2.956-6.439,5.913-2.405,9.139   c5.631,0.268,10.727-1.881,13.687-6.72c1.612,3.226,5.365,3.226,8.051,2.418c4.559-2.418,7.785-7.244,9.389-11.815l-1.066-0.806   c-2.688,4.302-5.913,12.085-13.161,10.474c-1.329-0.808-1.063-3.483-0.267-4.83c0.808-0.267,0.267-1.342,0.267-1.879   c-2.676-0.806-2.946,3.749-4.825,5.362c-2.956,3.224-5.902,6.452-10.461,5.915c0.527-4.033,5.631-8.322,4.289-12.624   c-2.148,1.347-4.56,4.302-7.785,3.765c-0.808-1.612,0-4.57-2.42-4.839c-2.944,4.3-6.978,7.783-12.609,7.246   c2.689-6.438,9.933-8.856,14.492-12.881c1.078,2.678,4.826,2.678,7.246,1.87c5.098-1.87,9.668-7.244,11.268-12.083   c6.721-2.948,11.546-10.205,12.087-17.449c-4.829-3.226-0.808,4.825-3.496,6.168c-2.139,3.495-4.825,8.056-9.118,8.861   c-1.343-3.483,4.293-6.442,0.527-8.32c-5.096,5.104,0,12.618-6.438,16.922c-2.677,2.688-6.172,4.827-9.655,4.031   c-0.271-3.494,2.675-6.182,5.365-7.257c1.342-0.808,2.948-0.271,4.02-2.15c-1.072-2.139-5.094-0.271-6.979,1.072   c-8.857,10.205-22.543,15.85-28.986,28.474c-7.246,7.247-15.836,10.742-23.083,18.526c-1.333,0-2.675,0-2.946-1.602   c-2.419-16.388,14.224-24.71,16.377-39.211c-2.69-3.768-8.592-0.271-10.476-4.841c0.271-3.225,1.613-8.32-1.076-10.475   c-4.288,0.271-8.32,1.347-12.073,2.96c1.347-3.766,4.559-10.483,10.194-11.279c2.15-0.537,5.646,1.346,6.181-1.345   c-3.494-2.419-9.127,0.537-12.353-2.419c2.42-4.838,7.514-5.646,10.47-9.127c-2.419-1.078-5.902,1.063-8.587,2.405   c-15.84-1.063-30.334-7.515-40.267-20.944c-0.267-1.073-0.528-2.42-0.267-3.763l3.226-1.063c2.91,1.477,6,3.035,9.203,4.489   c-6.261-3.629-11.624-8.791-15.377-15.514c-0.271-1.331,1.344-2.406,2.42-2.943c6.978-1.345,11.269,6.438,17.437,8.858   c7.25,2.421,14.764,8.056,23.086,3.763c0.539,1.872,0.539,4.022,1.882,5.367c0.807,1.61,2.676,1.344,4.02,1.881   c0.459,0.997,0.327,1.805-0.121,2.464c0.045-0.022,0.076-0.034,0.121-0.045c1.019,0.147,1.825,0.382,2.488,0.683   c0.492-1.466,2.61-2.116,3.684-3.639c5.107-0.269,11.281,1.345,15.57-1.344c1.613,0.539,3.492,1.61,4.298,3.494   c0,0.626-0.009,1.444-0.346,2.016c4.693,10.328,16.298,10.651,25.035,13.834c0.265,0.806,1.343,0.267,1.878,0.267   c3.496-4.839-4.289-6.184-6.438-9.678c-18.255-14.761-22.547-36.792-25.503-58.812c-4.825-9.664-15.559-10.742-22.803-17.462   c-23.354-22.288-42.146-47.266-44.828-78.682c0-2.42-0.535-5.915,2.411-6.452l1.343,0.537c5.901,23.631,17.99,44.588,34.354,63.92   l0.535-0.541c-16.364-21.48-30.588-43.769-30.317-71.972c1.87-5.109,1.063-13.696,8.038-14.503   c8.056,31.159,25.505,58.276,38.119,87.285c7.244,16.387,22.816,29.011,22.275,48.34c4.572,18.268,9.397,37.334,26.567,49.417   c0.541,0,1.612,0.271,1.883-0.535c-1.342-3.219-5.364-3.754-7.515-7.25c-15.301-15.042-16.363-35.988-19.86-56.136   c-7.515-18.525-23.89-33.567-25.762-54.513c6.979,0,4.56,8.59,7.785,12.624c7.236,18.255,19.053,34.912,32.471,50.76   c1.884,4.021,3.226,9.398,9.128,7.246c5.901,3.227,10.73-5.633,15.569,0.808c7.781,1.076,9.922-10.201,18.784-6.17   c2.419,4.288,4.824,9.127,8.05,13.418c1.078,2.955,2.153,7.527,1.078,11.289c-1.078,1.333-1.884,3.212-3.497,4.29   c-2.677,0.535-2.945-1.078-4.825-2.421c-0.806-8.051,5.364-13.956,1.072-21.751c-0.537-0.271-0.806-1.075-1.341-1.075   c0.269,4.302,1.882,11.816-3.484,14.236c-7.785-1.343-1.076-8.859-5.915-11.816c-0.535,4.3,0,9.937-4.289,11.816   c-1.077,0-2.149,0.271-2.957-1.072c0-2.961,2.687-6.444-0.269-8.592h-1.064c0.537,3.49-0.535,7.514-2.955,10.47   c-1.347,0.541-1.882,1.076-3.227,0.541c-6.709-2.689,2.688-7.785-2.409-11.011c-0.536,5.096-2.42,11.011-7.785,12.888   c-2.685-2.685,1.076-6.449-0.537-8.59c-2.419,2.411-2.956,5.905-1.884,9.131c1.613,2.419,3.754,1.88,5.637,0.537l2.956-3.496   c1.612,2.153,5.096,5.109,7.785,2.418c1.883-4.031,4.018-0.535,6.708-0.806c3.217,2.689,0,5.636-0.536,8.593   c-0.808,1.611-1.884,3.494-3.754,4.302c-2.689,1.072-2.955-1.613-4.302-2.42c0.808-2.419,2.42-5.635,0.54-8.054h-1.075   c-0.271,3.751-0.808,7.783-3.483,11.011c-1.078,1.882-3.767,2.418-5.109,1.882c-3.482-2.419,2.15-6.721-1.072-7.799   c-1.335,2.154-2.411,4.841-1.335,7.26c0.794,2.959,4.557,4.021,6.709,2.151c4.29-10.217,6.172,4.021,12.073-3.494l2.957-3.763   c1.343,4.031,6.172,1.072,8.054,4.839c1.064,3.482,0.537,7.515-1.882,10.47c-1.077,1.347-2.42,2.419-4.302,1.884   c-0.794-0.537-1.602-1.613-2.407-1.884c-0.808,0.539-0.541,1.347-0.541,1.884c1.884,2.676,5.366,2.955,7.787,1.075l1.882-2.42   c1.87,2.149,0.527,6.17-0.537,8.591c-0.806,2.151-3.227,2.151-4.839,1.61c-0.539-0.806-0.539-2.418-1.872-2.418   c-1.074,0.54-1.074,1.612-0.537,2.418c3.482,2.421,5.635,4.302,4.021,8.593c-1.612,1.612-2.151,4.033-4.559,4.302   c-1.347,0-2.689-1.884-3.765-0.806c-0.537,1.343,1.075,2.418,1.883,2.955c3.754,0.539,6.173-2.149,7.785-4.839   c2.148-3.482-0.808-9.397,4.289-11.277c1.077-2.959,2.149-6.442,1.077-9.668c-3.753-1.88,1.072-8.857-2.42-12.622   c-0.258-1.881,1.072-2.957,2.42-4.3c1.878,5.376,7.783-0.271,8.591,4.839c0.806,4.568-0.808,8.591-4.292,10.74   c-2.421,1.613-4.299-4.033-4.84,0c1.882,1.613,4.572,3.496,6.711,1.343c1.074-0.806,1.613-2.148,2.958-2.419   c1.075,3.227,0.535,6.979-1.345,9.669c-1.076,0.806-2.418,1.072-4.021,1.072l-1.884-1.88c-0.537,0.537-1.341,1.074-1.072,1.88   l4.825,3.226c0.807,4.302-0.807,7.785-3.753,9.666c-2.419,0.808-3.761-0.805-5.362-1.881c-1.345,1.612,0.537,2.959,1.602,4.033   c-0.258,2.957,0.535,8.32-2.407,11.009c-1.613,1.343-3.496,3.496-5.378,1.884c-1.064-0.808-1.064-2.96-2.948-2.96   c-1.071,1.076,0,2.419,0.541,3.495c1.88,1.883,5.097,2.69,7.246,1.077c4.288-3.496,5.366-9.141,4.829-14.236   c2.954,0.271,5.631-1.613,7.244-4.302c3.496-4.56-1.613-10.74,4.302-14.494c0.806-1.88,0.271-4.3,0.537-6.182   c1.87,0,3.483,1.882,5.364,0.537c0.808-1.074,2.408-2.149,2.678-3.492h0.539c0.808,2.685,0.804,6.451-0.809,8.6   c-1.063,1.87-3.213,2.678-4.826,1.602c-0.808-0.525-0.808-2.139-2.141-1.602c-1.072,3.215,3.754,3.483,4.559,6.438   c0,3.226,0.271,8.326-4.031,10.205c-2.945,1.613-5.633-6.979-5.366-0.536c1.884,2.42,4.572,3.496,7.25,2.42   c4.288-1.345,3.492-9.129,6.974-5.903c1.346-0.806,2.69,1.872,3.767-0.539v2.946c-0.537-0.535-0.808-1.87-1.884-1.87   c-2.149,4.288,0.808,11.011-5.364,13.429c-3.226,1.064-3.492-3.226-5.376-4.302c0-1.072,0.271-2.147-0.794-2.955   c-2.419,1.883-1.347,5.915-2.959,8.321c-1.613,1.343-2.686,3.225-4.839,2.419c-1.87-0.535-2.139-5.094-4.287-2.419   c0,2.419,2.148,4.032,4.287,4.838c2.959,0,5.646-1.613,7.259-4.301c0.269-0.807,0.269-1.602,0.806-1.871   c2.411,1.871,6.967,4.29,4.559,8.592c-1.612,3.226-4.301,6.978-7.784,8.322c-1.343,0.537-3.761-2.15-3.493,0.805   c1.343,1.613,4.033,1.078,5.913,0.537l0.539-0.537c-4.572,7.785-10.744,14.774-17.988,20.946c3.754-4.56,8.591-9.397,10.19-15.029   c-0.525-0.541-0.793-1.348-1.6-1.077c-2.152,5.637-6.442,12.623-12.893,14.493c-0.794-0.257-0.527-1.6-1.602-1.335   c-0.269,0.529-1.347,1.078-0.806,1.872c0.806,1.347,2.141,1.347,3.213,1.882l0.539-0.535c-1.074,4.031-6.44,9.678-11,10.74   c0.539-0.796,0.539-1.87,0.539-2.946c-0.271-0.537-1.075-0.537-1.612-0.537c0.537-1.075,2.42-2.42,1.073-3.767   c-2.955,0.271-2.42,3.496-4.3,4.841c-2.676,2.944-6.711,4.558-10.194,3.752c1.076-1.6,3.216-3.752,2.409-5.634   c-1.87,1.613-4.557,3.754-5.365,6.172c1.613,2.958,5.635,1.882,8.32,1.613c2.69-1.346,5.366-3.494,7.517-5.903   c-0.268,1.347-1.88,2.152-1.343,3.752c0.806,0.806,1.61,2.151,2.955,1.612c-16.914,16.926-26.576,36.796-39.728,55.062   c-4.021,6.979-5.904,14.774-7.785,22.825c-4.555-15.038-4.02-34.575-3.213-49.413l-0.537-0.541   c-5.901,12.624-1.28,30.489-0.541,43.516c1.613,3.213,4.627,8.122,4.024,10.204c0.267,3.753-1.076,8.321,0.806,11.549   c1.613-6.988,0.537-15.581,3.492-22.29c1.613,10.202,0.541,20.946,2.946,31.416c-2.405,1.884-5.631,0.808-8.32,1.078   C211.153,661.529,197.465,637.359,198.812,608.35L198.812,608.35z"/>
	<path fill-rule="evenodd" clip-rule="evenodd" fill="#D9CFC2" d="M185.771,652.669c3.226-4.569,8.861-8.065,11.548-13.43h0.541   l2.944,13.968C195.977,655.346,190.344,653.475,185.771,652.669L185.771,652.669z"/>
	<path fill-rule="evenodd" clip-rule="evenodd" fill="#D9CFC2" d="M165.376,653.207c9.668-5.644,15.031-17.46,26.042-20.687   c0.539-1.075-0.267-1.346-0.808-2.151c-12.624,5.378-21.201,20.151-34.362,23.375c3.226-10.474,14.223-14.236,20.409-23.375   c4.289-5.096,8.848-11.548,9.114-17.181c-3.752,2.955-4.559,8.321-7.785,12.085c-17.169,2.418-27.91,20.406-41.596,30.878   c-2.687,0.282-5.367,1.347-8.053,1.347c15.567-9.935,24.429-27.923,39.995-37.601c8.592-4.56,17.44-8.593,26.567-11.548   c-1.072,9.139,1.883,16.924,2.42,25.514C190.344,645.411,178.794,653.207,165.376,653.207L165.376,653.207z"/>
	<path fill-rule="evenodd" clip-rule="evenodd" fill="#D9CFC2" d="M142.978,655.628c10.2-7.528,19.061-20.957,31.403-25.518   c-5.632,9.668-18.514,14.238-21.74,25.247C149.428,655.628,146.204,655.895,142.978,655.628L142.978,655.628z"/>
	<path fill-rule="evenodd" clip-rule="evenodd" fill="#D9CFC2" d="M182.29,587.405c2.139,3.226-2.149,8.32,1.882,11.277   c8.051,0.539,11.805-8.858,18.514-11.814c2.152-0.808,4.031-2.688,6.172-3.226c-4.829,5.913,4.302,15.311-7.25,15.846   c-11.264,10.474-26.564,11.548-38.65,20.409L182.29,587.405L182.29,587.405z"/>
	<path fill-rule="evenodd" clip-rule="evenodd" fill="#D9CFC2" d="M137.073,462.518c1.076-1.342,2.687-1.61,4.302-1.61   c10.731,10.483,22.279,19.881,37.308,18.538c0.537,1.88-1.613,4.299,0,6.168c0.807,3.766,5.635,2.419,6.172,5.915   c-13.687,7.248-26.848-4.031-37.578-12.624C142.717,474.336,138.417,468.701,137.073,462.518L137.073,462.518z"/>
	<path fill-rule="evenodd" clip-rule="evenodd" fill="#D9CFC2" d="M135.201,445.605c0-1.61-0.805-2.955-0.535-4.837   c10.998-4.033,15.299,11.816,24.149,15.848c4.839,2.421,8.322,7.246,14.494,6.709c-1.605,5.376,4.566,8.593,5.374,13.7   C159.891,478.639,142.717,461.176,135.201,445.605L135.201,445.605z"/>
	<path fill-rule="evenodd" clip-rule="evenodd" fill="#D9CFC2" d="M199.885,450.702c-6.979,3.228-12.355-3.227-17.986-6.707   c-4.559-4.839-9.655-9.946-7.518-16.924c7.248,8.321,15.84,13.697,24.967,18.268C201.767,446.94,201.231,448.822,199.885,450.702   L199.885,450.702z"/>
	<path fill-rule="evenodd" clip-rule="evenodd" fill="#D9CFC2" d="M201.231,462.25c-0.271,1.612-2.153,2.151-3.228,2.42   c-9.937-0.269-17.451-6.978-22.277-15.311c-1.076-2.15-0.541-5.364,1.343-6.438c6.709,5.901,13.151,12.083,22.279,11.814   C200.69,456.887,202.831,459.563,201.231,462.25L201.231,462.25z"/>
	<path fill-rule="evenodd" clip-rule="evenodd" fill="#D9CFC2" d="M203.366,474.066c0.036,0.035,0.059,0.035,0.08,0.059   c0.059-0.023,0.134-0.036,0.191-0.059c0-1.027,0.494,0.652-0.191,0.059c-3.738,1.274-8.725,1.006-12.69,0.211   c-6.172,0.537-10.998-4.829-13.687-9.666c-0.271-1.882-1.343-3.763,1.076-5.107c6.172,1.345,10.462,8.064,17.441,7.526   C199.078,466.822,201.498,470.583,203.366,474.066L203.366,474.066z"/>
	<path fill-rule="evenodd" clip-rule="evenodd" fill="#D9CFC2" d="M207.133,479.175c-1.881-2.688,1.613-7.257-1.346-9.935   c-6.168-4.302,1.883-10.74-3.483-15.042l2.411-4.302c5.096,7.796,3.761,18.538,6.707,27.396   c3.763,13.968,11.011,26.86,21.738,36.793c-3.481,0.537-7.783-0.535-10.998-2.418c-6.978-3.754-2.148-12.354-8.32-16.376   C213.035,489.108,204.174,486.689,207.133,479.175L207.133,479.175z"/>
	<path fill-rule="evenodd" clip-rule="evenodd" fill="#D9CFC2" d="M184.049,486.689c-2.42-0.806-3.226-3.482-2.15-5.364l2.15-1.88   l18.782,1.343c1.613,1.882,2.956,3.226,2.421,5.901C199.078,490.186,190.487,488.032,184.049,486.689L184.049,486.689z"/>
	<path fill-rule="evenodd" clip-rule="evenodd" fill="#D9CFC2" d="M187.8,490.991c4.569-1.075,11.548,0,15.836-1.075   c2.42,2.688,6.979,3.763,6.979,7.784c-5.901,4.302-15.57,2.421-22.279,1.613C185.93,496.895,186.467,493.679,187.8,490.991   L187.8,490.991z"/>
	<path fill-rule="evenodd" clip-rule="evenodd" fill="#D9CFC2" d="M134.666,417.939c0-5.376,5.365-1.609,7.785-1.609   c2.105,2.474,4.223,5.14,6.407,7.795c-7.448-10.104-12.658-21.135-14.191-33.579c0.269-1.881-0.537-3.765,1.076-4.837   c3.483-1.078,5.902,1.343,8.579,2.418c8.32,13.425,14.765,27.933,27.653,39.481c-4.568,6.181,1.87,11.28,2.407,16.925   c-1.029,0.874-2.082,1.052-3.156,0.838c1.117,1.445,1.893,3.146,2.084,5.331c0.806,2.418,2.418,4.302,2.953,6.722   c-10.997,0-19.051-9.948-27.639-17.192C143.515,432.982,136.266,426.532,134.666,417.939L134.666,417.939z"/>
	<path fill-rule="evenodd" clip-rule="evenodd" fill="#D9CFC2" d="M201.071,376.576c1.078-1.072,2.42,0.003,2.42,1.078   c6.978,26.59,21.471,51.03,39.728,71.976c1.333-1.884-1.613-2.96-1.883-4.839l7.25-0.527c1.342,1.334-2.958,2.677,0,4.02   c1.613-2.955,5.364-1.613,7.783-2.955c0,2.147-2.419,2.418-3.495,3.494c-1.077-0.271-1.87,0-2.407,0.808v0.535   c2.137,1.077,4.826,0.271,6.168-1.343c1.078-1.882,3.487-0.806,4.83-1.076c2.15,3.496-3.752,2.956-3.752,5.915   c4.289,2.149,5.902-7.258,10.731-2.419c0.267,4.299-4.56,7.244-6.979,9.665c-3.215-0.271-5.635-4.568-9.668-2.421   c-4.289,3.764-8.578-1.075-13.953,0.271c-2.15-8.321-10.731-12.624-15.029-20.138C211.006,419.813,198.923,400.211,201.071,376.576   L201.071,376.576z"/>
	<path fill-rule="evenodd" clip-rule="evenodd" fill="#D9CFC2" d="M207.515,354.829c0.537-1.346,2.148-0.539,3.224-0.806   c1.613,30.879,14.223,57.469,29.524,82.712c-10.474-0.537-13.418-13.966-18.796-21.48   C212.352,396.984,203.762,376.041,207.515,354.829L207.515,354.829z"/>
	<path fill-rule="evenodd" clip-rule="evenodd" fill="#D9CFC2" d="M220.135,316.152c1.333,5.901,4.293,11.281,5.635,16.914   c-1.076,26.588,0.805,52.91,7.785,76.542h1.074c-2.958-15.313-6.44-31.416-6.44-48.341c0.537-14.503,0.537-29.008,5.366-41.632   c-1.346,31.162,2.942,61.771,13.147,88.897c-3.483,0-5.633-2.407-8.858-2.946c-1.884,1.871-0.271,6.173-1.347,8.861   c-1.063,1.88-1.868,3.496-2.942,5.366c-11.011-19.333-20.936-40.276-17.453-64.448   C213.965,341.399,217.985,329.046,220.135,316.152L220.135,316.152z"/>
	<path fill-rule="evenodd" clip-rule="evenodd" fill="#D9CFC2" d="M277.035,415.255c5.362,5.631,12.342,9.664,19.855,11.277   c2.419,1.882,6.443,1.611,7.785,5.364c-6.172-0.525-14.224-2.139-18.512,3.227c-5.635-2.956-6.442-12.084-13.959-12.624   c-11.275-0.267-25.503,2.151-32.749-7.515l0.271-4.568C251.004,414.984,264.422,416.061,277.035,415.255L277.035,415.255z"/>
	<path fill-rule="evenodd" clip-rule="evenodd" fill="#D9CFC2" d="M279.992,454.469c-2.957-0.271-5.646-1.349-8.863-0.808   c0.541-2.688-0.267-5.378-2.685-6.452c-3.754,0.537-4.289-3.765-8.322-2.945c-3.753-4.838-8.325,1.6-12.073-2.689   c-4.559-0.267-8.861,2.689-11.011-2.418c2.688-0.268,5.645,0.27,8.051-0.537c-3.212-6.452-12.881-13.161-6.709-20.409   c4.032,3.483,9.127,5.097,13.958,6.44c0.805,4.033,1.342,10.205,5.912,12.893c8.581,0.539,18.516-11.548,25.493-0.537   c0,1.883-2.151,4.031,0,5.374l4.021,3.483C285.356,449.089,282.397,451.242,279.992,454.469L279.992,454.469z"/>
	<path fill-rule="evenodd" clip-rule="evenodd" fill="#D9CFC2" d="M289.645,480.518v-2.685c1.884,1.342,3.227,3.749,3.227,6.168   l-3.762,2.959c0.535,1.613,2.417,1.072,3.493,0.537c0.806-0.537,1.076-2.149,2.419-1.613c1.332,2.956,3.482,5.915,1.869,9.128   c-1.342,1.613-1.074,4.839-4.02,4.839c-2.689,0.808-2.152-2.956-4.839-2.688C289.645,490.723,284.817,485.613,289.645,480.518   L289.645,480.518z"/>
	<path fill-rule="evenodd" clip-rule="evenodd" fill="#D9CFC2" d="M301.193,517.313c-4.568,0.526-3.764-3.763-4.303-6.722   c4.303-1.613,3.497-6.17,4.303-9.664C302.525,505.752,306.019,513.279,301.193,517.313L301.193,517.313z"/>
	<path fill-rule="evenodd" clip-rule="evenodd" fill="#D9CFC2" d="M298.383,539.6c-0.806,0-0.271-1.343-0.539-2.419l2.152-1.343   C300.263,537.451,298.92,538.257,298.383,539.6L298.383,539.6z"/>
	<path fill-rule="evenodd" clip-rule="evenodd" fill="#D9CFC2" d="M263.921,505.025c-1.605,2.419-2.681,5.915-5.905,6.721   c-2.688,0.267-4.827-1.881-5.364-4.302v-2.955c1.612,1.342,0.808,4.3,2.944,5.911c3.226,0.27,5.914-2.419,6.72-4.84   c1.605-3.212,1.065-6.975-0.806-9.664l0.271-1.076C264.727,496.973,264.727,501.543,263.921,505.025L263.921,505.025z"/>
	<path fill-rule="evenodd" clip-rule="evenodd" fill="#D9CFC2" d="M262.315,525.174c-1.075,2.418-2.688,5.098-5.374,6.442   c-1.613,0.269-3.216-0.271-3.753-1.884v-2.407c0,1.333,1.6,2.676,2.946,3.213c3.226-0.537,3.492-4.288,5.375-6.168v-7.258   C263.921,518.455,262.844,522.757,262.315,525.174L262.315,525.174z"/>
	<path fill-rule="evenodd" clip-rule="evenodd" fill="#D9CFC2" d="M285.122,541.821c0.808,5.645-2.68,11.816-7.785,14.771   c-1.333,0.806-3.483,0.806-4.288-0.271c0-0.537-0.271-0.805-0.541-1.074c-2.419,2.688-5.096,4.569-8.591,4.299   c-0.804-0.806-2.137-1.611-1.602-2.954c1.065,1.611,3.754,2.954,5.366,1.076c4.56-3.767,9.128-9.131,7.244-15.583h1.078   c1.868,4.839-1.344,8.604-2.42,12.624c0.807,1.612,2.955,1.075,4.288,0.538c4.304-3.214,6.711-8.053,6.182-13.427H285.122   L285.122,541.821z"/>
	<path fill-rule="evenodd" clip-rule="evenodd" fill="#D9CFC2" d="M262.315,555.248c-3.761,3.764-7.527,8.873-12.888,6.719   c-1.068-1.074-1.068-2.42-1.068-3.763c0.261-0.535,1.068-0.535,1.332-0.535c-0.535,1.343-0.535,2.956,1.076,3.763   c5.904-0.271,10.473-6.184,12.613-11.013l0.54-3.494C265.262,549.344,263.648,552.84,262.315,555.248L262.315,555.248z"/>
	<path fill-rule="evenodd" clip-rule="evenodd" fill="#F4AC20" d="M592.549,617.488c-1.87,2.957-5.901,5.098-9.655,3.484   c-2.955-1.333-6.181-3.751-8.052-6.711c3.75-1.073,10.192,4.032,12.882-2.42c1.612-8.587-5.636-11.277-10.474-16.642   c5.644-13.161,7.784-29.275,5.375-44.86c3.215,0,5.635-3.49,7.519-5.901c0-1.88,2.137-4.298,0-6.182   c-1.884,2.149-1.614,7.785-5.646,9.664c-4.559,1.076-3.216-4.825-4.829-7.245c-1.883-3.762,2.957-2.419,4.302-4.301   c2.407-2.42,4.021-5.633,3.483-8.858c-2.956,1.612-2.15,6.987-6.442,8.321c-4.568,0-4.837-6.172-6.169-9.664   c2.943,0,4.558-2.42,6.709-4.292c-0.27-2.688,2.946-4.839,0.537-7.26c-1.883,2.96-1.883,7.785-6.451,9.669   c-4.289-1.076-3.215-7.248-4.826-10.741c3.493-0.271,6.439-2.959,8.32-5.637c0.808-1.612,0.808-3.492,1.345-4.837   c-4.033-2.418-1.613,4.302-4.839,5.645c-1.063,1.333-2.141,2.411-3.754,1.87c-2.149-2.407-2.149-6.17-1.879-9.664   c4.033,1.075,7.246-3.227,9.664-6.173c-1.883-6.986,9.935-8.6,7.785-15.579c-3.227,1.882-3.483,8.593-8.861,8.322   c-0.535-0.808-0.807-1.884-1.879-1.884c-1.871,0.806,0,1.884,0,2.96c3.763,0.535,1.072,4.031,0.537,5.645   c-0.808,1.879-2.141,3.482-4.021,4.288c-1.347,0.808-2.419-0.806-2.688-1.868l0.27-8.064c8.589-1.076,6.975-11.011,13.159-14.237   c1.064,2.15,4.29,2.421,6.174,1.613c1.329-0.806,2.405-1.343,3.483-2.418c0,0.805,1.072,1.342,1.342,1.883   c4.826,2.419,6.707-6.444,10.731-1.348c2.419,0,4.298-1.613,6.182-2.946c0.796,1.604,2.405,2.679,4.02,2.946   c-0.536,3.496-2.407,6.99-5.362,9.141h-2.42c0.266-2.15-2.676-1.882-1.076-4.032c0.807-1.342,0.807-3.496,0-4.839   c-2.407,0.271-1.343,3.764-2.407,5.374c-0.539,2.154-1.884,5.366-4.841,5.366c-2.944,1.078-0.808-2.675-2.678-3.482   c0-1.613,1.87-3.761,0-5.107c-2.148,1.076-2.148,4.57-3.49,6.721c-1.615,1.333-2.948,3.482-5.367,2.947   c0.27-0.807-0.536-1.078-0.807-1.614c-0.806-0.258-1.076,0.536-1.613,1.073c0.537,1.076,1.078,2.419,2.42,2.96   c2.956,0.267,5.367-2.154,6.709-4.56c3.215,2.141,2.954,5.902,1.611,9.398c-1.342,1.879-3.226,4.018-5.901,3.751   c-1.612-3.214-0.28-4.559-0.806-7.784c-3.496,1.881-2.955,8.858-8.322,8.858c-0.805-1.074-0.27-2.946-1.883-2.946   c-1.883,0.806-0.537,2.139-0.537,3.215c1.88,2.421,4.3,1.884,6.172,0.537l2.957-2.946c0.537,1.066,0.807,2.409,1.884,2.946   c3.483,0.541,6.168-1.613,7.779-4.289c2.948-2.688-0.535-8.87,5.366-9.141c0.541-0.807,1.884-1.6,1.884-2.406   c0.527,2.406,4.021,2.947,6.438,1.869c2.411-0.536,3.482-5.901,5.635-1.869c2.955,1.333,5.901-1.882,7.785-4.032   c2.407,1.613,1.87,4.569,0.537,6.979c-0.806,1.613-2.148,3.491-4.031,4.299c-1.873,0-3.754-1.613-2.411-3.493   c1.075-0.541,0.538-1.612,0.538-2.42l-0.805-0.796c-2.419,2.675-2.689,10.474-8.32,9.127c0-0.806-1.078-1.343-1.346-1.88   c-0.27-1.883,2.957-2.959,0.268-4.572c-2.147,1.884-2.955,6.452-6.172,8.335c-2.147,1.343-2.955-2.955-4.302,0   c0.539,2.409,4.033,3.217,5.648,1.343l3.483-3.226c0.266,0.808,1.074,1.613,1.879,2.42c4.83,2.68,6.172-7.523,10.203-2.42   c4.291,0.808,5.367-8.064,9.655-2.955c4.57-1.076,7.517-5.902,8.322-10.206c0-0.806-0.267-1.877-1.072-2.418   c-1.347,4.033-2.68,9.668-7.785,10.205c-2.946-1.343,0.535-3.753,0-5.903c4.032-1.343,6.438-6.18,7.244-9.946l-0.806-1.064   c-2.406,2.678-2.947,8.592-7.784,8.592c-4.828-1.342,1.075-4.302-1.601-7.257c-2.69,2.955-2.955,9.407-8.592,9.407   c-2.686-2.421,1.076-5.105-0.537-7.794c1.076-1.078,2.418-1.613,3.483-2.948c2.418,1.335,4.839,1.335,7.246,0   c2.959-6.721,4.302,1.87,8.59-1.343c2.96-0.271,3.497-6.99,6.452-2.418h2.409c-0.539,3.49-2.409,7.784-6.44,8.592l-2.421-1.883   c-0.806,0.535-1.072,1.612-0.537,2.418c1.345,1.884,4.57,1.884,5.917,0.537c7.244-3.492,2.942-12.085,9.651-16.116   c0.002-4.022,4.57-7.515,1.347-11.548c-1.076-1.347-1.613-2.419-3.227-2.419c0.271,2.419,3.762,5.105,1.88,8.332   c-1.072,0-1.88,1.612-2.944,0.269c-4.837-0.535-1.345-9.128-5.635-7.258c0,3.763,1.063,7.528,4.829,9.407   c1.074,0.271,3.213,0.539,1.87,2.409c-1.333,2.42-2.945,5.107-6.442,5.107c-1.329-1.345-0.257-4.033-1.329-5.633   c-2.69,2.405-2.959,7.515-7.248,8.59c-2.42,0-2.957-2.957-1.885-4.839c0.541-0.271,0.541-0.806,0.541-1.346l-1.076-1.072   c-2.148,2.955-2.956,9.942-8.593,9.137c-2.418-2.418,3.217-5.105,0-8.064c-2.418,3.228-2.955,10.205-8.856,10.205   c-4.56-2.946,3.763-6.709-0.806-8.859c-1.065,3.764-3.483,8.603-7.777,9.13c-4.298-1.605,1.874-6.442-1.609-8.056   c-0.806,3.765-3.494,7.785-6.713,9.669c-1.611,0.535-3.224-1.078-2.419-2.411c0.541-1.88,3.483-4.031,1.076-5.911   c-2.418,3.226-4.031,8.59-8.856,9.127c-4.293-2.149,0.536-5.096-0.271-8.055c2.149-0.535,3.763-2.686,5.633-4.299   c0.806,2.419,4.302,3.764,6.709,2.419l4.572-4.572c0,1.347,0.537,2.421,1.878,3.496c4.023,1.076,6.431-2.149,8.583-4.288   c-0.271,1.87,1.879,3.48,3.492,3.751c2.409-0.806,4.827-1.881,6.711-4.288c0.807,2.676,4.29,2.676,6.17,1.87   c2.959-1.604,5.364-4.829,4.827-7.785l-0.269-0.271c-2.141,2.421-3.482,6.723-7.246,6.723c-1.612-1.613-1.075-4.839-4.021-4.302   c-0.537,2.151-2.15,5.094-4.828,5.635c-3.224,1.612-1.881-2.946-4.299-2.946c0-0.271,0-1.076,0.536-1.343l-1.073-1.077   c-2.15,1.883-3.483,7.246-7.785,6.438c-3.213-1.88,2.688-4.289-1.343-5.361c-0.527,5.632-4.559,0-5.366,5.361   c-1.076,0.808-2.946,2.153-4.289,0.808c-2.959-2.958,3.75-5.634,0-7.246c-0.541,3.763-4.572,2.688-5.366,6.438   c-1.076,1.346-2.419,2.69-4.302,2.42c-1.88-4.825,5.635-7.246,8.592-10.201c2.148-0.806,4.826-2.419,6.979-0.541   c1.612,1.349,3.753,3.496,6.172,1.884c3.492-6.987,5.631,3.496,10.201-1.343c2.409-6.452,5.364,1.343,9.118-1.882   c2.955-2.69,5.108-5.376,4.839-9.129c-0.271-0.271-0.537-0.806-1.076-0.535c-2.15,2.418-1.345,6.707-5.096,8.05   c-1.074,0-2.421,0.271-2.958-0.806c-1.881-1.343,1.615-4.021-1.073-5.364c-2.137,2.408-1.345,6.707-5.367,8.319   c-1.609,0.541-2.685-1.072-3.75-2.149c0.258-1.076,1.065-2.689,0-3.762c-2.418,1.613-2.688,6.182-6.185,6.717   c-7.781-11.275-26.297,0.541-31.931-12.083c12.611-1.076,28.984-17.73,39.181,1.078c0.269,0.265,0.535,1.072,1.343,0.806   l1.075-0.806c-4.829-7.798-19.053-9.133-15.03-20.945c3.226-7.262,11.266-11.024,18.791-12.367v-1.064   c-6.179,0-17.181,2.948-20.675-4.302c-2.409,0.808,0,2.42,0,3.763l0.269,0.539c-1.611,0.537-3.215,1.602-4.826,3.483v1.342   c-2.688-2.147,1.343-5.364-0.807-7.243c-1.882,1.612-2.407,5.366-1.613,8.321c3.227,2.686,1.884,7.528,4.839,9.933   c1.333-1.881-0.271-3.751-0.271-5.631c0.541-1.346,2.141,0.267,3.217,0.537c-1.613,2.686-2.154,5.631-1.882,9.128   c-5.098-2.421-11.534-1.613-17.441-2.421c1.614-2.418,6.172-4.288,6.713-7.244c-3.754-1.076-8.056-1.613-12.087-2.959   c12.354-9.935,27.115-16.655,44.564-15.042l9.655-0.537c-2.139,3.226-6.172,2.955-9.127,4.839   c3.226,3.761,6.709-0.808,10.472-0.271c2.418,1.347,6.172,0.271,8.861,1.347c-2.15,2.149-4.84,4.288-4.84,7.243l0.806,1.078   c2.421-6.172,9.13-8.592,13.688-11.818c-4.021-1.612-9.385,1.613-13.688-0.806c0.808-2.688,8.322-2.955,4.034-5.901   c-6.709,0.792-14.494,2.676-21.203,0.535c5.903-29.545,13.418-63.113,4.825-93.736c17.453,22.292,15.035,54.793,12.881,83.523   c-0.806,2.148-0.267,5.374-0.537,7.258c2.15,0.537,1.078-1.613,2.15-2.419c6.172-22.021-2.956-48.878,7.517-69.017   c8.86,22.557,1.076,48.071-5.097,69.552l0.806,1.076c6.442-11.816,8.579-26.32,11.539-39.749c2.688-2.689,4.568-6.182,7.784-8.322   c1.88,20.14-7.784,37.331-15.84,54.245l0.808,1.072c9.397-10.2,8.86-27.127,22.813-33.834c2.421,3.761,1.884,10.741,0.539,15.313   c-5.635,20.673-20.935,39.21-15.032,62.845l1.077-0.808c-0.269-19.881,5.635-38.406,17.708-53.715   c4.033-2.959,8.322-5.637,13.161-6.709l1.333,22.018c-7.236,12.083-12.614,24.706-11.001,40.289   c-2.419,4.826-2.686,10.741-5.901,15.296c0.537,0.541,0.807,1.347,1.604,1.078c10.74-13.161,3.761-33.299,13.427-46.997   c13.149-20.944,24.418-43.236,28.451-67.952c2.946-7.518,6.17-15.034,10.729-21.751l0.808,1.343   c1.072,9.664,2.686,20.408,0.537,30.086c-10.999,30.608-28.717,58.274-44.019,87.285c0.269,0.806-0.269,1.612,0.537,2.149   c17.99-29.01,36.772-57.75,47.5-89.435c1.077-1.883,2.688-2.153,4.304-2.42c-1.078,45.652-31.138,79.501-56.629,114.948   c0.266,0.537,1.063,0.537,1.6,0.537c20.675-24.706,40.804-49.684,53.146-77.889c1.076-1.611,2.688-1.611,3.765-3.492   c1.334,24.709-15.569,42.977-27.923,62.576c-12.881,17.192-30.321,34.117-44.017,49.146h1.343   c24.697-23.094,48.589-47.534,63.875-74.932c1.893-1.612,4.57-1.879,7.259-1.879c0,6.988-4.033,13.431-7.259,19.883   c-15.286,27.392-43.737,51.563-69.507,67.67h1.343c26.567-15.836,54.22-37.867,71.39-64.715h1.078   c0.537,12.354-10.476,21.481-18.784,30.879l-28.194,24.709l1.078,0.805c14.504-9.935,28.447-20.675,41.07-34.641   c-0.268,19.332-23.621,26.856-37.576,33.299c9.13-0.537,18.515-4.024,26.566-9.13c0.538,2.421-2.944,5.376-4.556,7.515   c-19.86,13.432-32.484,34.106-45.9,52.375c5.901-14.237,8.591-29.816,10.728-45.386l-1.33-1.613   c-5.904,16.657-11.551,33.299-19.322,48.878c0-15.579-1.076-30.353-10.204-42.169h-1.073c0.537,11.024,1.612,24.44-2.96,34.387   c-6.709-6.45-18.782-12.893-13.953-24.709c-0.271-1.074-1.604-1.88-2.42-2.687c-4.289,0.807-0.796,7.514-5.364,9.666   c-1.336,0.539-2.411,1.881-4.291,1.345c-1.881-0.269,0-2.96-2.418-2.419c-1.871,0.806,0,1.88,0,2.955   c1.075,2.419,4.031,1.343,5.901,0.808c3.496-2.149,5.915-5.916,5.646-9.935c2.946,3.752-1.344,9.935,2.139,13.953   c20.676,17.463,35.962,40.557,31.408,68.492c-1.883,4.84-2.153,9.936-5.366,14.233c-6.979-11.814-1.884-29.007-10.74-40.286   c-1.87-1.344-1.613-4.568-4.29-4.839c-0.271-9.935-2.419-19.869-7.785-27.384c-1.884,3.749,1.879,7.783,1.613,12.355   c1.344,22.823-11.549,40.283-15.033,60.424c-12.62-20.955-8.859-48.879-3.492-71.974c-0.537-0.539-0.271-2.419-1.871-1.882   c-1.346,3.226-3.764,6.172-7.257,6.709c-2.948-1.884,2.149-6.438-2.411-6.172c-1.613,1.604-1.076,4.829-0.537,6.707   c1.078,2.42,4.021,1.347,5.904,1.078l1.342-1.078c1.884,7.8-8.051,13.164-9.127,20.688   C596.58,586.598,599.795,603.255,592.549,617.488L592.549,617.488z M574.842,476.486c3.75,0.539,2.688,4.302,0.795,6.184   c-1.333,0.807-1.87,3.214-3.754,2.406C572.422,481.864,573.229,479.175,574.842,476.486L574.842,476.486z M582.894,463.862   c1.076,0,1.604,1.347,2.409,1.884c-0.269,4.031-2.409,8.59-6.711,9.668c-0.807,0.265-1.342-0.541-1.879-1.078   C577.25,470.313,581.011,467.359,582.894,463.862L582.894,463.862z M645.047,495.896c-1.871-0.269-3.754,0.537-4.828-1.076   c-1.881,2.419-5.366,7.258-9.129,5.38l-1.074-1.078c-2.68,2.421-5.635,7.246-10.194,4.826l-0.806-0.806   c-2.418,2.418-4.827,5.109-8.321,3.226l-1.345-1.879c-2.139,2.418-3.48,5.105-6.978,5.376c-1.343-0.271-2.676-1.076-3.753-2.421   c-1.882,2.69-4.838,3.496-7.785,3.763c-0.535-0.807-1.878-1.072-1.341-2.418c1.074,1.611,4.031,2.151,5.364,0.539   c4.031-2.154,3.493-6.452,4.839-9.669c1.868,2.958-2.42,6.709,1.868,8.593c3.496,0.806,5.646-3.227,7.246-5.635   c-0.523-1.611,1.078-2.417,0.539-4.031h0.808c0,3.226-2.409,7.782,2.955,7.245c2.678-1.075,4.021-2.955,5.903-5.096   c0-1.882,0.271-3.496,0.806-4.839c2.421,2.15-3.224,7.785,2.958,7.515c2.408-0.794,4.827-3.211,5.903-5.631l0.267-5.915   c2.409,1.883-0.806,6.451,2.945,7.794c3.768,0.269,5.367-3.763,7.25-6.181l0.537-4.828c1.611,2.139,0,6.44,4.826,6.17   c3.494-1.877,4.839-5.633,5.914-9.127C650.422,489.188,649.08,493.748,645.047,495.896L645.047,495.896z M675.377,462.059   c1.076,4.829-5.902,8.326-3.217,13.97c-6.709,3.213-0.806,11.548-8.32,13.967c0.806,4.021-2.42,6.978-5.362,9.127   c-9.938-2.688-10.744,13.967-20.14,8.859c-2.139,2.959-5.636,5.915-9.389,4.839l-0.806-1.074c-1.88,2.688-5.364,6.172-8.857,4.826   l-1.344-1.869c-2.419,2.139-4.83,6.978-9.132,5.636c-0.523-0.808-1.879-1.076-1.6-2.421l0.537-0.269   c1.063,2.148,3.752,2.148,5.364,0.806c2.678-2.418,4.826-5.903,3.485-9.666l-0.537-0.537l0.537-0.271   c2.418,0.539,0.269,4.031,2.688,5.107c-0.538,0.271-0.54,1.345,0,1.614c1.074,2.674,3.493,0.806,4.826,0   c2.957-2.957,4.837-7.259,4.031-10.755c2.141,2.959-1.074,9.678,4.829,7.798c2.954-2.151,3.491-5.107,5.365-7.798   c1.072,2.153,2.955,4.572,5.633,2.959c2.42-11.816,20.943-4.031,17.988-18.257c2.42-0.539,4.29-2.957,5.633-4.841   c1.613-2.418-3.483-5.374,1.076-5.911c1.883-1.87,3.226-4.829,1.879-7.248l-0.803-1.071   C672.164,467.693,674.301,464.48,675.377,462.059L675.377,462.059z M611.77,523.831c0.537,3.226-0.805,6.707-2.959,9.128   c-1.6,2.151-4.555,2.151-6.438,1.883c-1.343,0-1.343-1.883-1.882-2.69l0.539-0.535c1.072,1.61,4.031,3.763,5.902,1.343   C609.616,530.538,610.694,526.79,611.77,523.831L611.77,523.831z M599.961,525.713c0.799,2.945-0.805,5.903-2.418,8.321   c-2.15,1.613-4.019,3.761-7.244,2.956c-1.078-1.343-1.613-3.227-1.343-4.568c1.072,2.42,3.75,4.568,6.168,2.149   c1.884-2.687,5.366-4.839,4.032-8.858H599.961L599.961,525.713z M599.696,546.925c-1.883,2.419-5.108,2.688-7.247,2.419   c-1.345-1.072-1.882-2.419-1.615-4.299l0.541-0.539c1.074,0.806,0,3.225,1.87,4.032c3.492,0.806,5.911-2.956,7.245-5.376   c1.347-1.341-0.529-3.752,1.611-4.826C603.717,541.821,601.029,544.506,599.696,546.925L599.696,546.925z M606.405,517.112   c-1.883,3.227-5.376,5.374-8.862,4.3c-0.806-0.271-0.267-1.344-0.267-1.881c1.074,0.808,2.685,2.149,4.288,0.808   c4.033-2.421,4.57-6.442,4.841-10.474C608.544,511.476,606.405,514.703,606.405,517.112L606.405,517.112z M594.857,515.238   c0,2.946-1.333,5.367-2.947,7.519c-1.611,1.88-4.303,2.421-5.902,2.15c-1.612-0.537-2.151-2.15-1.881-4.033h1.076   c0,1.075-0.271,2.42,0.805,2.957c3.485,0.806,5.902-2.957,7.237-5.376l0.536-3.217H594.857L594.857,515.238z M587.072,510.4   c-1.6,1.346-3.482,2.42-5.902,1.883c-0.807-0.808-1.882-1.613-1.347-2.955c0.812,1.342,2.961,2.685,4.839,1.342   c3.753-2.149,3.486-5.914,4.831-9.127C590.834,504.489,589.221,507.981,587.072,510.4L587.072,510.4z M645.584,482.199   c-1.871,2.688-4.291,2.957-6.98,3.494c-0.535-0.271-0.266-1.076-0.266-1.613c3.492,1.076,6.17-2.418,7.514-5.107l1.613-5.903   C649.08,476.565,646.926,479.512,645.584,482.199L645.584,482.199z M651.228,481.392l-3.763,2.688l-0.539-0.271   c2.957-2.418,5.905-6.707,6.713-10.74C654.174,475.758,652.831,478.973,651.228,481.392L651.228,481.392z M708.228,303.798   c1.343,2.956,1.343,7.244,1.884,11.011c-0.271,9.665,6.709,20.673-0.541,29.009c-2.405,19.599-8.32,37.868-18.244,54.245   C690.251,365.03,694.541,332.001,708.228,303.798L708.228,303.798z M603.83,409.608l3.213,1.074l-1.87,1.881L603.83,409.608   L603.83,409.608z M600.334,416.061c-1.343-0.271-2.946-1.076-3.217-2.419c-0.537-1.612,0.541-3.226,1.87-3.496   c1.617-0.271,3.226,0.808,3.765,2.418C602.484,413.908,601.947,415.525,600.334,416.061L600.334,416.061z"/>
	<path fill-rule="evenodd" clip-rule="evenodd" d="M719.238,163.604c7.515-3.496,15.566-5.903,22.275-12.086   c3.767-3.493,1.076-9.129,0.539-13.161c-15.029-23.364-28.986-47.536-41.597-71.972c-8.324-12.624-26.848-8.322-39.729-7.259   c-2.565,2.341-5.366,2.553-8.18,1.658c-21.042-21.54-201.942-64.369-395.765-16.958c-21.203,7.783-45.9,8.592-62.274,26.856   c-13.416-2.689-31.126-7.257-43.481,1.613c-12.074,27.388-27.373,53.708-42.404,79.761v7.783   c5.903,10.216,17.449,11.289,26.577,15.848c-5.644,15.042-15.299,28.744-22.814,42.975l-0.808,6.709   c-1.072,8.064,6.442,13.164,11.539,18.001c31.673,19.064,82.402,24.438,116.485,6.17c0-14.774-1.872-29.266-1.064-43.769   c8.042-2.691,17.437-5.646,21.203-14.237c1.868-5.109-1.613-10.47,1.072-15.311c18.245,2.958,37.835,1.074,54.479-4.032   c6.441-2.409,15.839-6.442,16.105-14.764c-6.707-16.114-12.073-33.04-13.687-50.489c68.706-11.011,143.858-9.127,214.456-3.767   l1.064,1.078c-0.537,6.707-2.41,13.159-3.753,19.602c-2.421,11.818-9.128,22.301-8.857,34.384c1.88,2.946,4.019,6.438,7.244,7.785   c19.053,9.665,44.287,8.322,65.22,4.839c0.541,4.826-0.806,11.546,1.076,16.372c2.418,5.109,7.514,7.53,12.083,9.668   c2.948,2.15,7.777,1.613,10.195,4.304c-1.075,13.696-2.153,28.201-2.153,41.628c28.73,13.966,68.716,11.548,98.242,1.076   c12.342-5.374,29.523-13.966,31.402-29.545C737.223,196.901,724.603,181.872,719.238,163.604L719.238,163.604z"/>
	<path fill-rule="evenodd" clip-rule="evenodd" fill="#FFFFFF" d="M711.99,196.105c-29.524-4.568-55.823,6.172-85.885,1.333   c-10.473-2.405-22.009-3.483-28.718-13.159c-1.076-7.517,7.785-9.665,12.61-12.355c33.547-13.159,70.854,5.646,103.339-6.977   c7.515,11.816,12.073,25.514,20.396,37.331C727.561,200.127,719.775,196.633,711.99,196.105L711.99,196.105z"/>
	<path fill-rule="evenodd" clip-rule="evenodd" fill="#FFFFFF" d="M527.866,160.645c-2.141-1.879-4.559-4.29-2.955-7.246   c14.761-13.966,37.308-13.159,57.982-12.083c18.782,4.298,42.944,5.094,59.587-4.304c8.044-5.094,2.407-16.118,4.827-23.633   c2.409-16.385,6.708-31.953,9.653-47.802c11.011-3.229,25.775-4.839,36.782-0.539l41.868,72.511   c-34.093-12.622-75.154-5.365-103.871,13.968C601.947,166.022,560.349,177.3,527.866,160.645L527.866,160.645z"/>
	<path fill-rule="evenodd" clip-rule="evenodd" fill="#FFFFFF" d="M527.329,97.263c-105.484-9.127-212.036-1.064-307.049,26.59   c-4.02,1.879-7.785,4.031-11.277,6.987c-1.604-18.268-2.675-36.793-10.999-52.373c-0.269-9.668,10.999-15.042,18.257-17.729   c158.708-55.173,361.405-27.35,406.887-11.279c10.206,4.568,22.548,7.528,28.449,18c-4.021,18.794-9.651,36.793-10.192,56.932   C607.85,104.521,566.787,103.174,527.329,97.263L527.329,97.263z"/>
	<path fill-rule="evenodd" clip-rule="evenodd" fill="#FFFFFF" d="M324.425,152.591c2.405,1.883,3.213,5.109,2.147,7.517   c-14.505,12.353-33.287,13.159-52.338,13.7c-28.729-1.076-52.878-12.893-76.23-27.129c-24.16-7.783-57.166-10.472-80.788,0.539   c12.34-24.169,26.028-47.534,36.769-71.976c11.011-8.053,27.914-4.018,39.191,0.27c-0.537,6.719,4.828,10.741,5.635,16.655   c4.29,14.774,6.168,30.61,5.903,47.266c8.32,11.816,23.351,11.277,37.308,11.548C268.051,148.025,300.533,137.549,324.425,152.591   L324.425,152.591z"/>
	<path fill-rule="evenodd" clip-rule="evenodd" fill="#FFFFFF" d="M241.481,200.397c-38.115,13.966-84.013-7.785-119.977,11.007   l18.525-34.642c38.382,10.204,79.178-15.313,112.999,6.723l2.411,3.212C256.783,195.568,246.848,197.438,241.481,200.397   L241.481,200.397z"/>
	<path fill-rule="evenodd" clip-rule="evenodd" d="M233.587,74.457c-2.519-1.208-7.503-0.794-9.687-0.087   c-8.481,2.755-12.881,10.907-9.88,20.182c3.326,10.226,11.38,13.317,20.43,10.372c8.087-2.632,11.582-8.063,9.106-16.164   l-4.067,1.333c1.324,4.065,0.103,8.661-4.481,10.146c-6.123,1.995-9.26-1.868-11.5-8.781c-2.532-7.783-1.042-12.128,3.808-13.709   c4.941-1.598,8.625,1.401,10.083,5.915l4.063-1.32l-3.865-11.897l-3.929,1.278L233.587,74.457L233.587,74.457z M261.475,68.915   c4.492-0.966,7.361,2.375,9.04,10.247c1.67,7.874,0.394,12.041-4.1,13.005c-4.489,0.949-7.359-2.345-9.027-10.216   C255.709,74.09,256.985,69.866,261.475,68.915L261.475,68.915z M260.58,64.723c-9.877,2.108-15.02,9.543-12.947,19.3   c2.072,9.767,9.777,14.428,19.669,12.321c9.89-2.108,15.042-9.498,12.959-19.255C278.188,67.332,270.469,62.618,260.58,64.723   L260.58,64.723z M279.105,62.024l0.841,3.952l0.94-0.201c2.295-0.482,3.123-0.1,4.367,1.986l12.727,21.415l7.994-1.706   l2.881-24.728c0.277-2.411,0.885-3.103,2.866-3.519l1.075-0.234l-0.841-3.954l-13.115,2.789l0.841,3.956l2.553-0.541   c0.908-0.191,1.466,0.013,1.557,0.652c0.202,0.762,0.012,2.073-0.078,2.979l-1.624,15.772L302,80.651l-7.866-13.745   c-0.446-0.792-1.151-1.914-1.307-2.675c-0.146-0.639,0.29-1.051,1.188-1.243l2.876-0.614l-0.837-3.958L279.105,62.024   L279.105,62.024z M324.613,78.49c0.121,1.142-0.449,1.891-1.59,2.016l-2.777,0.291l0.412,4.021l30.344-3.192l-1.298-12.388   l-4.247,0.448c0.771,7.359-1.679,8.636-6.485,9.141l-5.567,0.581l-1.008-9.509l2.746-0.28c1.645-0.178,2.509,1.86,2.687,3.553   l0.114,1.095l3.797-0.402l-1.458-13.81l-3.784,0.401l0.099,1.01c0.306,2.833-0.549,3.988-3.203,4.268l-1.411,0.147l-0.917-8.74   l4.525-0.469c5.845-0.616,8.513,0.125,9.193,6.7l4.259-0.439l-1.224-11.614l-30.388,3.192l0.426,4.023l2.823-0.293   c1.155-0.125,1.86,0.492,1.983,1.636L324.613,78.49L324.613,78.49z M366.381,49.525l-14.752,1.03l0.28,4.043l2.846-0.201   c1.142-0.08,1.825,0.56,1.913,1.713l1.3,18.659c0.079,1.154-0.515,1.884-1.658,1.959l-2.799,0.205l0.291,4.031l14.157-0.987   l-0.279-4.041l-2.801,0.2c-1.143,0.078-1.84-0.562-1.914-1.713l-1.166-16.735l0.089-0.009l14.325,21.717l9.266-0.652l-1.729-24.529   c-0.075-1.152,0.515-1.878,1.672-1.958l2.742-0.2l-0.28-4.034l-14.125,0.983l0.293,4.033l2.791-0.19   c1.151-0.08,1.834,0.562,1.913,1.715l1.052,15.087l-0.089,0.01L366.381,49.525L366.381,49.525z M395.903,59.369   c-0.157-4.682,1.123-7.669,6.396-7.851l0.718,20.534c0.044,1.151-0.573,1.87-1.725,1.9l-2.844,0.102l0.133,4.044l17.819-0.616   l-0.136-4.054l-2.751,0.098c-1.158,0.045-1.817-0.626-1.861-1.768l-0.719-20.543c5.278-0.189,6.766,2.7,6.921,7.392l4.281-0.146   l-0.416-11.667l-30.487,1.063l0.404,11.669L395.903,59.369L395.903,59.369z M438.008,50.849h3.313c4.222,0,6.194,0.785,6.194,4.187   c0,3.674-1.692,4.414-5.096,4.414h-4.412V50.849L438.008,50.849z M429.37,71.399c0,1.142-0.639,1.838-1.792,1.838l-2.801-0.002   v4.045h17.877v-4.045h-2.857c-1.143,0-1.789-0.694-1.789-1.836v-7.908h3.774c3.718,0,4.174,0.641,4.174,3.406l0.003,3.763   c0,5.377,2.944,7.541,7.303,7.541c5.934-0.004,7.494-3.395,7.494-7.865V68.78h-3.08v1.834c0,1.424-0.314,2.846-1.515,2.846   c-1.242,0-1.555-0.683-1.555-1.556l-0.015-4.83c0-3.774-1.924-4.871-5.374-5.835v-0.1c4.001-0.546,6.943-2.519,6.943-6.887   c0-4.928-3.819-7.448-10.249-7.448h-21.18v4.044h2.846c1.153,0,1.792,0.683,1.792,1.834V71.399L429.37,71.399z M460.889,47.039   l-0.146,4.044l0.975,0.032c2.477,0.089,3.182,0.762,4.356,2.734l6.854,11.826l-0.223,6.397c-0.044,1.144-0.704,1.813-1.859,1.768   l-3.023-0.102l-0.146,4.047l18.366,0.637l0.146-4.044l-3.124-0.112c-1.151-0.03-1.768-0.749-1.725-1.891l0.224-6.399l8.626-12.62   c0.626-0.895,1.555-1.188,3.203-1.131l0.977,0.034l0.132-4.042l-13.218-0.461l-0.145,4.042l1.881,0.066   c0.919,0.034,1.41,0.238,1.401,0.789c-0.022,0.501-0.505,1.174-0.751,1.532l-4.3,6.16l-3.819-6.438   c-0.228-0.382-0.652-1.085-0.64-1.592c0.022-0.549,0.583-0.717,1.444-0.681l1.884,0.066l0.142-4.046L460.889,47.039L460.889,47.039   z M537.33,54.553c-1.804-2.127-6.531-3.784-8.813-4.02c-8.86-0.931-16.207,4.716-17.226,14.414   c-1.122,10.697,4.984,16.803,14.448,17.786c8.444,0.896,13.866-2.653,14.885-11.054l-4.256-0.435   c-0.446,4.245-3.429,7.949-8.222,7.448c-6.396-0.673-7.692-5.476-6.931-12.703c0.851-8.144,3.975-11.51,9.046-10.975   c5.162,0.548,7.303,4.793,6.812,9.498l4.245,0.448l1.311-12.433l-4.111-0.438L537.33,54.553L537.33,54.553z M564.669,56.291   l-17.74-2.5l-0.56,4.011l2.823,0.393c1.131,0.168,1.715,0.66,1.602,1.432l-2.689,19.176c-0.156,1.131-0.894,1.725-2.026,1.569   l-2.778-0.393l-0.569,4.011l17.662,2.488l0.559-4.013l-2.777-0.392c-1.129-0.157-1.679-0.93-1.511-2.072l2.601-18.525   c0.234-1.645,0.894-1.734,2.024-1.579l2.823,0.403L564.669,56.291L564.669,56.291z M570.775,69.215   c0.895-4.604,2.81-7.237,7.998-6.227l-3.922,20.184c-0.221,1.131-0.982,1.679-2.104,1.454l-2.8-0.537l-0.771,3.965l17.508,3.403   l0.77-3.961l-2.712-0.528c-1.129-0.225-1.62-1.019-1.409-2.151l3.917-20.17c5.188,1.006,5.982,4.156,5.088,8.76l4.2,0.815   l2.216-11.459l-29.937-5.822l-2.229,11.453L570.775,69.215L570.775,69.215z M604.21,63.336l-1.121,3.884l0.931,0.272   c2.386,0.681,2.912,1.5,3.573,3.708l3.784,13.136l-1.761,6.138c-0.31,1.108-1.115,1.59-2.228,1.276l-2.91-0.837l-1.121,3.886   l17.674,5.073l1.108-3.886l-3.001-0.864c-1.107-0.314-1.531-1.153-1.221-2.263l1.758-6.147l11.427-10.16   c0.828-0.716,1.802-0.771,3.395-0.313l0.927,0.257l1.111-3.886l-12.726-3.651l-1.108,3.899l1.813,0.514   c0.876,0.257,1.311,0.571,1.163,1.099c-0.144,0.492-0.77,1.029-1.097,1.31l-5.669,4.928l-2.148-7.168   c-0.125-0.416-0.366-1.21-0.234-1.692c0.155-0.528,0.739-0.558,1.577-0.316l1.804,0.52l1.121-3.888L604.21,63.336L604.21,63.336z"/>
	<path fill-rule="evenodd" clip-rule="evenodd" fill="#FFFFFF" d="M740.441,700.202c-15.302,22.021-26.838,45.666-32.739,71.45   c-6.721,9.665-18.527,11.277-29.538,12.074c-3.75-13.152-3.75-28.461-2.944-42.966c1.882-9.665,2.151-19.87,5.362-29.009   c-0.523-8.323-9.652-7.517-15.028-10.472c-36.76-10.474-75.681,12.624-110.583-4.839c-1.6-1.333-2.15-2.946-1.87-4.829   c7.248-6.719,17.71-5.374,27.104-6.987c46.977-3.754,82.673,24.44,131.248,19.34c9.936-1.071,20.125-1.342,28.988-5.105V700.202   L740.441,700.202z"/>
	<path fill-rule="evenodd" clip-rule="evenodd" fill="#FFFFFF" d="M668.509,801.724c-124.938,32.764-343.29,33.557-437.227,12.085   c-9.926-2.42-21.207-4.021-27.646-13.428c5.633-24.708,2.42-52.911-0.806-77.35c9.398,7.524,21.201,9.407,33.29,11.019   c128.019,15.838,264.371,14.765,390.78-4.837c16.116-2.42,32.749-3.763,46.437-12.083c-3.216,24.17-4.829,53.981,1.343,78.412   C674.414,798.769,670.93,800.112,668.509,801.724L668.509,801.724z"/>
	<path fill-rule="evenodd" clip-rule="evenodd" fill="#FFFFFF" d="M199.885,793.133c-5.105,1.613-11.011-1.075-16.374-1.612   c-9.397-0.806-13.151-10.203-15.57-17.728c-7.785-22.021-17.707-43.237-30.869-62.849c43.75,11.279,85.897-4.825,125.075-16.106   c3.103-1.131,7.248-1.68,10.742-1.88c15.3-1.883,34.621-3.496,48.308,3.483c1.881,1.072,2.687,3.761,0.807,5.105   c-36.772,21.751-86.153-6.438-122.656,15.042c-4.302,4.031-1.883,9.128-0.537,13.7   C201.498,750.158,204.715,772.985,199.885,793.133L199.885,793.133z"/>
	<path fill-rule="evenodd" clip-rule="evenodd" d="M275.354,767.988c4.661,0.639,6.317,5.255,5.319,14.279   c-1.006,9.019-3.616,13.006-8.276,12.367c-4.658-0.628-6.327-5.196-5.331-14.214C268.071,771.396,270.694,767.364,275.354,767.988   L275.354,767.988z M275.879,763.192c-10.248-1.386-17.674,4.663-18.916,15.852c-1.244,11.178,4.649,18.994,14.898,20.386   c10.248,1.389,17.674-4.604,18.914-15.793C292.021,772.458,286.128,764.596,275.879,763.192L275.879,763.192z M469.961,807.472   l-0.225-14.184l-4.368,0.095c0.089,5.608-0.739,9.617-6.363,9.729l-5.116,0.101l-0.369-23.203   c-0.023-1.303,0.626-2.096,1.802-2.118l2.899-0.057l-0.066-4.568l-18.299,0.357l0.066,4.568l2.91-0.066   c1.178-0.012,1.848,0.749,1.87,2.048l0.329,21.137c0.021,1.288-0.617,2.086-1.797,2.108l-2.864,0.053l0.077,4.57L469.961,807.472   L469.961,807.472z M313.012,772.201c4.654,0.639,6.314,5.251,5.316,14.281c-1.006,9.015-3.617,13.001-8.276,12.363   c-4.659-0.626-6.327-5.198-5.332-14.224C305.729,775.618,308.35,771.573,313.012,772.201L313.012,772.201z M313.537,767.407   c-10.247-1.39-17.675,4.657-18.919,15.85c-1.242,11.176,4.647,18.994,14.896,20.383c10.249,1.398,17.675-4.604,18.917-15.791   C329.676,776.669,323.781,768.809,313.537,767.407L313.537,767.407z M371.499,800.905c-0.013,1.303-0.683,2.061-1.86,2.038   l-2.619-0.043l-0.08,4.571l18.965,0.357c9.104,0.178,12.697-2.343,12.809-8.993c0.103-6.229-4.107-7.606-8.072-9.038v-0.103   c3.82-0.907,6.766-3.394,6.842-8.021c0.066-4.67-3.067-8.107-9.824-8.24l-20.227-0.394l-0.066,4.58l2.676,0.046   c1.178,0.021,1.817,0.82,1.795,2.104L371.499,800.905L371.499,800.905z M380.472,792.15l3.133,0.053   c3.34,0.066,5.951,1.167,5.881,5.623c-0.077,4.471-2.723,5.454-6.049,5.386l-3.146-0.055L380.472,792.15L380.472,792.15z    M380.692,777.868l2.579,0.055c3.19,0.057,5.43,1.142,5.363,4.93c-0.055,3.793-2.328,4.839-5.521,4.782l-2.574-0.057   L380.692,777.868L380.692,777.868z M415.383,773.354l-8.255,25.806c-0.987,3.159-1.659,3.862-3.292,3.83l-1.604-0.024l-0.066,4.572   l13.798,0.258l0.066-4.569l-1.356-0.022c-1.263-0.022-2.912-0.214-2.898-1.044c0.01-0.728,0.212-1.499,0.762-3.314l0.594-2.061   l9.576,0.19l0.917,3.752c0.182,0.784,0.227,1.355,0.214,1.87c-0.01,0.57-1.188,0.764-2.599,0.728l-1.412-0.022l-0.066,4.572   l17.124,0.323l0.08-4.559l-1.604-0.03c-1.635-0.036-2.281-0.775-3.168-3.958l-7.428-26.106L415.383,773.354L415.383,773.354z    M418.068,781.148h0.103l3.193,11.225l-6.802-0.134L418.068,781.148L418.068,781.148z M632.13,782.438   c0.227,1.274-0.292,2.184-1.445,2.432l-2.573,0.546l0.785,4.491l18.613-4.009c8.938-1.915,11.985-5.219,10.843-11.748   c-1.075-6.117-5.445-6.499-9.587-6.979l-0.022-0.101c3.561-1.768,5.981-4.884,5.185-9.418c-0.807-4.584-4.524-7.224-11.154-5.804   l-19.858,4.277l0.783,4.479l2.634-0.558c1.149-0.247,1.925,0.369,2.148,1.647L632.13,782.438L632.13,782.438z M639.243,771.808   l3.092-0.662c3.27-0.703,6.026-0.232,6.798,4.146c0.775,4.381-1.634,5.96-4.892,6.663l-3.094,0.664L639.243,771.808   L639.243,771.808z M636.793,757.796l2.529-0.548c3.138-0.674,5.52-0.123,6.172,3.596c0.66,3.718-1.369,5.265-4.502,5.936   l-2.533,0.549L636.793,757.796L636.793,757.796z M238.189,793.67l0.785-4.479l-2.853-0.616c-1.155-0.244-1.662-1.151-1.436-2.43   l1.501-8.557l1.431,0.303c2.623,0.558,3.408,2.104,3.025,4.255l-0.348,1.983l3.831,0.816l2.698-15.39l-3.817-0.815l-0.361,1.982   c-0.367,2.139-1.611,3.246-4.243,2.688l-1.424-0.313l1.704-9.736l4.572,0.988c5.889,1.264,8.276,2.946,6.987,10.281l4.279,0.917   l2.274-12.947l-30.637-6.586l-0.782,4.493l2.857,0.603c1.142,0.248,1.658,1.157,1.435,2.434l-3.642,20.74   c-0.222,1.276-1.008,1.893-2.163,1.648l-2.809-0.594l-0.784,4.479L238.189,793.67L238.189,793.67z M337.439,784.586   c0.256-5.285,1.813-8.52,7.211-8.206l-1.098,23.171c-0.065,1.301-0.762,2.041-1.927,1.971l-2.911-0.168l-0.213,4.559l18.18,1.055   l0.222-4.559l-2.811-0.168c-1.178-0.068-1.792-0.887-1.735-2.173l1.099-23.187c5.386,0.314,6.641,3.722,6.394,9.007l4.356,0.257   l0.616-13.17l-31.115-1.805l-0.626,13.173L337.439,784.586L337.439,784.586z M504.391,805.229l-0.885-14.133l-4.357,0.335   c0.359,5.588-0.279,9.642-5.9,10.08l-5.107,0.39l-1.457-23.15c-0.09-1.299,0.524-2.114,1.689-2.207l2.902-0.223l-0.28-4.558   l-18.266,1.413l0.291,4.555l2.896-0.223c1.181-0.089,1.884,0.639,1.963,1.929l1.335,21.078c0.076,1.299-0.527,2.127-1.705,2.214   l-2.855,0.228l0.289,4.545L504.391,805.229L504.391,805.229z M543.291,770.61c-2.332-1.84-7.416-2.354-9.734-1.993   c-9.025,1.399-14.897,9.597-13.521,20.506c1.539,12.029,9.097,17.037,18.707,15.549c8.602-1.347,13.095-6.709,12.028-16.187   l-4.323,0.673c0.604,4.78-1.435,9.655-6.317,10.418c-6.495,1.006-8.973-3.899-10.001-12.021   c-1.165-9.149,1.097-13.697,6.263-14.503c5.249-0.818,8.422,3.249,9.092,8.545l4.324-0.671l-1.781-13.989l-4.179,0.662   L543.291,770.61L543.291,770.61z M588.023,796.762l-1.779-14.032l-4.334,0.669c0.715,5.556,0.324,9.646-5.243,10.52l-5.073,0.785   l-2.914-22.984c-0.168-1.29,0.381-2.163,1.547-2.339l2.888-0.448l-0.581-4.527l-18.122,2.823l0.573,4.525l2.879-0.45   c1.162-0.178,1.914,0.482,2.082,1.771l2.655,20.922c0.168,1.287-0.396,2.163-1.56,2.341l-2.831,0.448l0.581,4.524L588.023,796.762   L588.023,796.762z M584.618,768.112l2.87-0.505c1.162-0.2,1.914,0.46,2.105,1.736l2.43,16.98c1.23,8.613,6.652,10.606,14.808,9.173   c8.62-1.513,11.647-6.563,10.561-14.146l-2.353-16.465c-0.18-1.278,0.359-2.161,1.512-2.361l2.735-0.482l-0.639-4.516   l-14.147,2.476l0.65,4.515l2.734-0.481c1.164-0.204,1.913,0.459,2.105,1.735l2.104,14.717c0.907,6.361,0.359,9.141-5.016,10.079   c-3.766,0.662-5.716-1.363-6.185-4.647l-2.589-18.101c-0.189-1.285,0.359-2.173,1.515-2.375l2.876-0.501l-0.646-4.502   l-18.077,3.156L584.618,768.112L584.618,768.112z"/>
	<path fill-rule="evenodd" clip-rule="evenodd" fill="#FFFFFF" d="M360.386,548.997l32.214,6.184   c6.978,18.259,13.149,37.063,18.783,56.124l-0.809,2.957c-6.172,6.991-12.34,13.969-18.512,21.215   c-22.008-2.946-44.558-5.366-66.565-9.128c-6.978-10.205-9.665-21.751-13.147-33.569   C327.908,578.008,344.279,563.504,360.386,548.997L360.386,548.997z"/>
	<path fill-rule="evenodd" clip-rule="evenodd" fill="#FFFFFF" d="M376.764,457.424c0,3.483-0.537,8.052,2.404,10.74   c12.089,8.593,28.451,3.754,42.418,5.902l10.73,8.604c0,13.427,0.906,27.238,0.537,40.545   c-11.803,10.217-25.234,18.538-37.845,28.203c-11.269-1.884-22.549-4.289-33.276-7.246l-7.248-73.589   C361.193,464.401,368.171,459.292,376.764,457.424L376.764,457.424z"/>
	<path fill-rule="evenodd" clip-rule="evenodd" fill="#FFFFFF" d="M516.855,469.507l1.347,1.613   c-1.347,23.634-2.946,46.998-4.293,70.633c-10.997,3.761-22.545,5.901-33.813,9.128c-14.223-8.322-27.652-18.525-41.611-27.666   l-0.802-1.333V484.54c13.147-8.054,24.427-23.364,41.338-19.331c2.409,2.418,5.364,3.761,8.848,4.031   C496.999,468.164,508.813,466.015,516.855,469.507L516.855,469.507z"/>
	<path fill-rule="evenodd" clip-rule="evenodd" fill="#FFFFFF" d="M560.886,587.942c-1.613,12.087-5.915,22.827-11.277,33.577   c-22.279,4.292-44.556,9.131-67.642,12.073l-17.707-20.943c5.901-19.6,11-39.48,18.245-58.543   c10.743-2.151,20.946-4.839,31.945-6.709L560.886,587.942L560.886,587.942z"/>
	<path fill-rule="evenodd" clip-rule="evenodd" fill="#FFFFFF" d="M449.766,689.999c-7.244,0-14.762,2.151-21.741,0l-31.402-50.76   v-1.88l17.72-21.751h46.422l18.26,21.751C469.893,655.089,459.958,672.54,449.766,689.999L449.766,689.999z"/>
	
		<path fill-rule="evenodd" clip-rule="evenodd" fill="#F3AA21" stroke="#000000" stroke-width="0.1535" stroke-miterlimit="22.9256" d="   M420.298,197.833c1.727,0,3.194-0.923,3.841-2.22h4.975v13.027c-1.604,0.514-2.757,1.86-2.757,3.46c0,2.036,1.884,3.687,4.19,3.687   c2.318,0,4.199-1.651,4.199-3.687c0-1.649-1.232-3.024-2.925-3.506v-12.981h4.528c0.727,1.097,2.068,1.848,3.615,1.848   c2.318,0,4.188-1.645,4.188-3.684c0.002-2.052-1.87-3.699-4.188-3.699c-1.824,0-3.357,1.033-3.944,2.468l-4.199-0.004v-12.07   c1.64-0.505,2.802-1.86,2.802-3.475c0-2.037-1.871-3.695-4.189-3.695c-2.316,0-4.188,1.658-4.188,3.695   c0,1.626,1.197,2.991,2.867,3.485v12.06h-5.041c-0.67-1.229-2.104-2.104-3.774-2.104c-2.318,0-4.188,1.657-4.188,3.699   C416.109,196.171,417.979,197.833,420.298,197.833L420.298,197.833z M370.1,197.708c1.713,0,3.181-0.917,3.829-2.22h4.976v13.026   c-1.605,0.514-2.758,1.861-2.758,3.46c0,2.039,1.882,3.688,4.2,3.688c2.309,0,4.188-1.649,4.188-3.688   c0-1.656-1.231-3.033-2.926-3.504v-12.983h4.539c0.716,1.099,2.061,1.849,3.607,1.849c2.316,0,4.199-1.647,4.199-3.697   c0-2.038-1.883-3.682-4.199-3.682c-1.826,0-3.36,1.029-3.934,2.462h-4.213v-12.074c1.636-0.514,2.814-1.87,2.814-3.474   c0-2.039-1.882-3.695-4.2-3.695c-2.309,0-4.188,1.656-4.188,3.695c0,1.626,1.211,2.992,2.869,3.483v12.064h-5.043   c-0.67-1.245-2.105-2.105-3.762-2.105c-2.318,0-4.201,1.659-4.201,3.695C365.898,196.052,367.781,197.708,370.1,197.708   L370.1,197.708z M472.009,197.574c1.727,0,3.195-0.907,3.843-2.207l4.975-0.002v13.027c-1.604,0.518-2.755,1.86-2.755,3.451   c0,2.039,1.87,3.695,4.188,3.695c2.316,0,4.197-1.656,4.197-3.695c0-1.647-1.229-3.025-2.922-3.506v-12.972h4.523   c0.73,1.097,2.074,1.851,3.621,1.851c2.316,0,4.187-1.658,4.187-3.696c0-2.042-1.87-3.699-4.187-3.699   c-1.826,0-3.359,1.042-3.944,2.477h-4.2V180.21c1.625-0.499,2.799-1.856,2.799-3.47c0-2.037-1.868-3.686-4.187-3.686   c-2.317,0-4.192,1.649-4.192,3.686c0,1.636,1.201,3.001,2.869,3.496l0.002,12.063h-5.041c-0.674-1.246-2.106-2.104-3.776-2.104   c-2.316,0-4.187,1.643-4.187,3.682C467.822,195.927,469.692,197.574,472.009,197.574L472.009,197.574z M354.148,270.229v-19.478   c16.104-0.265,31.934,0.071,48.309,0.338v32.571l-17.453,0.337c-2.676-5.915-4.018-11.38-10.461-15.133   C368.104,269.392,361.396,269.964,354.148,270.229L354.148,270.229z M363.209,229.27h33.882c0,0,0,0,5.366,18.123l-46.896,0.271   L363.209,229.27L363.209,229.27z M397.091,160.108v67.146h-33.882v-67.146c24.497,0,29.975,0.146,30.972,0.211   C394.336,160.286,395.009,160.219,397.091,160.108L397.091,160.108z M353.858,143.609c46.224,0.068,32.29,0.662,47.859,0.125   c-1.604,5.096,0,0-4.627,14.369h-35.224L353.858,143.609L353.858,143.609z M352.806,129.051h5.027v6.55h5.366v-6.55h6.708v6.55   h4.211v-6.55h5.701v6.55h5.589v-6.55h5.701v6.55h4.707v-6.55h5.699v12.265h-48.71V129.051L352.806,129.051z M404.359,129.051h5.029   v6.55h5.365v-6.55h6.709v6.55h4.213v-6.55h5.699v6.55h5.59v-6.55h5.699v6.55h4.704v-6.55h5.703v12.265h-48.712V129.051   L404.359,129.051z M464.339,229.27h33.88c5.376,18.123,0,0,5.376,18.123l-46.906,0.271L464.339,229.27L464.339,229.27z    M457.148,129.051h5.029v6.55h5.366v-6.55h6.708v6.55h4.211v-6.55h5.71v6.55h5.578v-6.55h5.703v6.55h4.701v-6.55h5.702v12.265   h-48.709V129.051L457.148,129.051z M498.232,160.108v67.146h-33.884v-67.146c24.495,0,29.971,0.146,30.98,0.211   C495.484,160.286,496.158,160.219,498.232,160.108L498.232,160.108z M499.822,158.104h-35.226   c-2.689-4.839-4.503-9.61-6.384-14.439c46.234,0.07,30.676,0.607,46.234,0.07C502.844,148.83,504.447,143.734,499.822,158.104   L499.822,158.104z M457.068,250.586h46.672v33.748h-46.672V250.586L457.068,250.586z M406.088,250.853h46.289v33.055h-46.289   V250.853L406.088,250.853z M413.611,229.27h33.891c5.367,18.123,0,0,5.367,18.123l-46.906,0.271L413.611,229.27L413.611,229.27z    M447.031,160.108v67.146h-33.891v-67.146c24.508,0,29.984,0.146,30.98,0.211C444.276,160.286,444.949,160.219,447.031,160.108   L447.031,160.108z M412.537,158.104c-2.679-4.839-4.492-9.61-6.376-14.439c46.237,0.07,30.667,0.607,46.237,0.07   c-1.611,5.096,0,0-4.625,14.369H412.537L412.537,158.104z"/>
	<path fill-rule="evenodd" clip-rule="evenodd" fill="#FFFFFF" d="M476.333,359.397v1.065l-0.737,2.082   c-27.912-0.805-57.236,0.874-84.879,0.607c-0.804-0.539-2.688-2.623-2.688-3.965C476.333,359.397,447.348,359.397,476.333,359.397   L476.333,359.397z M388.197,287.714c29.525-0.537,57.705,0.739,87.766,0.204c1.479,67.939,0.941,46.188,1.479,67.939h-90.588   c-0.537-9.128-0.537-18.255,1.076-27.118c4.288-4.567,12.073-3.761,13.956-10.75C398.39,308.057,390.875,298.188,388.197,287.714   L388.197,287.714z M423.469,343.447h16.094v-9.846h7.983v-12.779h-8.05v-9.979H423.39v10.045h-9.903l-0.134,12.712h10.116V343.447   L423.469,343.447z"/>
	<polygon fill-rule="evenodd" clip-rule="evenodd" fill="#E54724" points="416.144,330.937 416.073,323.557 426.122,323.557    426.122,313.44 436.828,313.44 436.828,323.488 444.884,323.488 444.884,330.937 436.898,330.937 436.898,340.646 426.122,340.646    426.122,330.937 416.144,330.937  "/>
	<path fill-rule="evenodd" clip-rule="evenodd" fill="#FFFFFF" d="M304.296,574.512c0.539,0,0.535,0.27,0.796,0.539   c0.535,2.687-2.409,2.957-3.754,4.3l-3.494,0.538C297.844,578.276,301.605,575.316,304.296,574.512L304.296,574.512z"/>
	<path fill-rule="evenodd" clip-rule="evenodd" fill="#E54C22" d="M192.099,702.623c7.25-7.246,15.571-11.277,26.032-10.203   c2.688-0.537,2.149-3.227,2.955-5.377c6.979,7.528,19.86-0.805,25.762,7.258c-7.514,3.754-15.565,5.901-23.341,8.322   c-3.227-0.806-3.763-4.568-7.246-4.839c-1.347,4.033-5.645,5.376-9.128,6.722c-4.829,1.074-10.205,0.267-15.034-0.807V702.623   L192.099,702.623z"/>
	<path fill-rule="evenodd" clip-rule="evenodd" fill="#E54C22" d="M295.438,626.349c3.482-1.075,7.245-2.149,9.394-5.903   c0.261-2.418,1.066-4.031,0-6.184c-5.911-8.053-19.329-12.89-15.566-24.706c0.271-2.69,3.213-4.841,5.365-5.913   c1.612,0.537,2.677-1.066,4.29-0.525c-1.883,8.319,2.148,16.642,9.127,20.943l2.956,1.343c4.56,13.429,11.809,25.784,19.323,37.867   c-4.289,0.541-9.935,1.347-12.614-2.418c-0.537-5.105-0.267-11.548-5.645-13.696c-8.579,0-13.147,9.662-19.856,13.696   c-12.881,8.86-28.987,2.688-44.021,5.107c-6.974-3.495-12.61-9.407-19.319-13.43c1.076-4.568,5.901-7.524,8.322-11.558   c4.289-8.86,9.925-17.183,17.169-24.697l1.613,0.535C265.91,609.156,277.449,628.499,295.438,626.349L295.438,626.349z"/>
	<path fill-rule="evenodd" clip-rule="evenodd" fill="#FFFFFF" d="M315.832,337.098c-0.539,2.955-2.418,5.374-4.288,7.794   c-0.808-1.342-2.421-3.492-4.302-3.492C308.855,339.516,312.606,337.633,315.832,337.098L315.832,337.098z"/>
	<path fill-rule="evenodd" clip-rule="evenodd" fill="#FFFFFF" d="M324.425,363.688c-14.494,15.042-29.795,30.622-47.247,39.749   c15.841-12.083,31.406-27.662,44.557-42.975l2.69,0.27V363.688L324.425,363.688z"/>
	<path fill-rule="evenodd" clip-rule="evenodd" fill="#FCDF00" d="M614.022,667.44c-0.808,6.442-6.444,11.552-12.075,14.507   c-6.709-0.269-14.765,0.271-21.742-0.535C585.84,666.368,604.367,676.303,614.022,667.44L614.022,667.44z"/>
	<path fill-rule="evenodd" clip-rule="evenodd" fill="#FCDF00" d="M564.639,647.037c12.611-3.226,28.716,8.591,38.113-2.42   c-2.418-1.613-6.172,1.074-9.125-0.539c-2.411-1.074-4.83-2.957-6.709-5.376c13.687-5.633,20.66,10.474,31.941,13.161   c-1.343,1.881-3.494,4.302-4.837,6.183c-2.141,3.483-5.638,5.903-7.777,8.322c9.12-0.539,10.732-16.655,22.549-13.966   c1.063,0,2.141-0.539,2.407,0.535c-7.246,4.033,1.076,16.656-9.664,17.73l-4.826,1.872c0.535-2.68,1.609-6.978-0.81-9.131   c-4.29,0.806-8.052,5.646-13.149,5.915c-5.901,0.536-12.073,0.536-17.449,2.945c0.537-4.559,0-8.86-3.752-11.816   C576.442,655.089,567.324,655.357,564.639,647.037L564.639,647.037z"/>
	<path fill-rule="evenodd" clip-rule="evenodd" fill="#FCDF00" d="M651.599,680.336c-5.364,1.882-12.073,2.954-17.979,1.076   c3.754-3.228,7.785-7.259,12.615-8.335C646.5,676.033,650.252,677.646,651.599,680.336L651.599,680.336z"/>
	<path fill-rule="evenodd" clip-rule="evenodd" fill="#FCDF00" d="M648.471,607.998c0.371,6.293,1.232,12.374,5.008,17.275   c1.346,3.765-2.689,6.183-1.882,9.127c3.765-2.407,7.784-6.17,10.205-10.201c2.409-4.83,4.827-9.667,8.591-13.971   c-1.078-1.879-2.956,0-4.303,0l-0.536,0.541c-4.56-8.322-1.613-20.139-3.752-29.536c-0.269-4.304-3.494-8.335-2.957-12.624   c17.72-16.116,20.675-39.21,41.07-53.446c1.604-2.151,3.753-2.959,5.901-4.031c-1.072,9.137-12.34,16.116-16.912,24.706   c-9.664,14.772-15.566,30.893-18.512,48.342l1.87,1.881c1.222-0.974,1.165-2.063,0.917-3.18c-0.759,0.075-1.322-0.517-1.322-0.517   s0.238-1.08,0.821-3.099v0.001l2.396,6.969l-1.736,12.447c3.764,8.334-5.366,14.772-4.29,23.633l0.808,1.078l1.919,6.279   c-2.505,5.113-4.164,10.527-4.608,16.287c3.227-8.336,5.635-17.729,12.354-24.987c6.97-8.055,15.021-15.032,23.342-20.408   c-3.481,9.935-12.074,19.881-20.396,28.474c-2.688,3.761-6.978,5.362-8.591,9.394h1.345c12.881-10.74,23.89-23.899,33.008-36.789   c-1.063,15.309-16.098,27.125-21.738,41.628c0,1.347-0.527,2.689,0.265,3.767c5.646-15.044,20.141-27.668,35.439-31.429   c-1.342,8.857-9.935,17.728-17.449,24.17c-16.912,5.913-22.278,39.214-43.479,23.094c-7.786-8.591-16.644-21.214-29.524-16.912   v1.077c16.644-4.033,21.738,17.447,35.426,21.211c-11.805,1.076-20.395-13.428-33.547-9.137v1.073   c13.957-0.796,22.009,12.893,35.429,13.428c-1.882,4.304-6.978,3.496-10.74,4.304c-6.44,0.269-7.783-8.592-12.881-8.056   c-6.44,1.874-10.204,11.818-17.988,8.593c-1.87-0.537-5.097-1.074-6.709,0.539v0.808c6.709,0.267,11.277,5.362,17.72,5.901   c-0.271,1.342-1.343,1.877-2.421,2.955c-8.59-2.955-18.516-3.494-27.372-5.901c4.838-9.948,17.449-7.527,21.2-16.926   c1.078-4.3-0.806-9.935,4.304-12.085c1.868-0.807,5.631,0.271,5.902-2.955c-2.15-1.613-4.84,1.074-7.25,1.074v-1.343   c-10.471,1.611-19.598-2.151-26.567-9.668c3.218-1.734,6.889-2.555,11.025-1.405l1.05,0.331l-0.355,3.101l5.073,2.438l5.181-0.529   l19.135-14.103l0.845-3.604l0.634-7.74l-1.269-0.954L648.471,608V607.998L648.471,607.998z"/>
	<path fill-rule="evenodd" clip-rule="evenodd" fill="#FCDF00" d="M638.986,619.102c-1.343,1.344-1.074,3.751-3.227,4.292   c-2.678,0.267-3.482-2.682-4.559-4.292c-1.613-16.117,7.519-29.007,8.324-44.59C649.46,587.674,641.404,605.133,638.986,619.102   L638.986,619.102z"/>
	<path fill-rule="evenodd" clip-rule="evenodd" fill="#FCDF00" d="M649.717,518.924c6.721,12.089,3.227,27.926,6.182,41.621h1.063   c5.38-13.147,12.354-25.771,16.377-39.737c-1.342,10.472-7.248,23.901-10.997,35.72c2.135,1.879,4.288-2.154,6.707-3.227   c-2.958,5.105-6.707,10.471-11.536,13.967c-4.033-6.452-6.723-13.432-12.085-19.347   C647.576,538.527,651.06,529.937,649.717,518.924L649.717,518.924z"/>
	<path fill-rule="evenodd" clip-rule="evenodd" fill="#FCDF00" d="M662.766,633.943c2.946,0,4.556-4.032,7.246-3.227   c-3.763,3.227-8.051,5.913-12.342,8.064c-0.539-2.688,3.213-4.838,4.291-7.527c1.342-3.754,0.805-8.322,3.748-11.277   C664.914,624.274,663.838,629.911,662.766,633.943L662.766,633.943z"/>
	<path fill-rule="evenodd" clip-rule="evenodd" fill="#E54C24" d="M693.747,580.696c-5.109,7.244-11.281,13.696-16.913,20.405   c-1.077-5.901,3.225-11.814,4.289-17.986C684.35,580.426,689.98,582.576,693.747,580.696L693.747,580.696z"/>
	<path fill-rule="evenodd" clip-rule="evenodd" fill="#E54C24" d="M669.855,623.392c0.234-0.539,0.457-1.099,0.671-1.656   c0.662-4.414,2.139-10.005,5.299-16.332c3.078-6.159,17.372-20.577,17.372-20.577s6.774-7.537,11.894-12.654   c2.263-2.265,11.134-12.455,11.134-12.455c-1.692,9.432,1.902,16.903-1.133,23.971c-1.131,2.641-2.398,4.055-6.225,7.179   c-9.253,7.548-13.475,12.419-23.221,20.953c-5.8,5.077-10.438,11.918-13.027,16.199c-0.289,0.547-0.572,1.099-0.845,1.652l0,0   L669.855,623.392L669.855,623.392z"/>
	<path fill-rule="evenodd" clip-rule="evenodd" fill="#E54C24" d="M673.359,577.002c1.107-3.544,2.912-8.725,5.68-15.213   c2.7-6.327,8.49-16.801,8.49-16.801s4.152-7.741,7.178-10.765c2.266-2.264,8.302-9.441,8.302-9.441   c-1.694,9.441-1.322,8.313-2.074,11.146c-1.197,4.5-1.188,6.06-3.213,10.571c-3.249,7.248-9.397,15.065-14.359,21.205   c-1.423,1.848-2.899,3.694-4.413,5.508c-0.649,0.864-1.49,2.052-2.553,3.688c-0.472,2.33-1.02,3.774-1.578,4.671   c-0.071,0.915,0.133,1.802,0.938,2.609c0.828-4.077,1.006-6.709,3.843-9.555c5.286-5.285,10.763-13.406,10.763-13.406   s5.476-8.873,9.062-14.349c1.098-1.67,6.039-10.754,6.039-10.754c-0.752,9.813,3.404,19.634,1.702,26.244   c-0.719,2.777-1.963,7.525-5.851,10.572c-8.688,6.788-9.062,6.418-20.014,8.108c-2.539,0.395-3.566,10.777-6.357,16.161   l-0.234-3.314l-0.438-9.73L673.359,577.002L673.359,577.002z"/>
	<path fill-rule="evenodd" clip-rule="evenodd" fill="#E54C24" d="M595.504,620.221c-0.455-5.196,2.5-8.12,2.603-13.644   c0.077-4.859,1.475-8.051,1.554-12.429c0.191-9.589,0.351-13.936,3.306-22.952c1.894-5.79,4.063-7.303,7.125-12.273   c1.468-2.389-3.226,15.88-2.611,26.085c0.458,7.719,1.624,12.008,3.574,19.488c0.155,0.582,0.323,1.198,0.505,1.814   c0,0.012,0,0.012,0,0.023c2.721,9.375,8.105,21.806,8.105,21.806s0.596-10.317,2.084-16.71c1.143-4.907,2.239-7.56,3.945-12.301   c1.444-3.997,2.282-6.359,3.975-10.124c0.277-0.626,0.537-1.276,0.796-1.925c0.437-1.23,0.873-2.466,1.276-3.708   c3.258-10.642,3.684-22.49,4.209-25.234c0.315-1.636,2.625,10.058,2.332,16.587c-0.324,7.103-2.678,10.798-4.448,17.688   c-1.265,4.913-2.553,7.581-3.304,12.602c-0.941,6.337-1.726,10.213-0.166,16.417c0.694,2.777,1.702,5.019,4.334,5.21   c2.631,0.19,3.795-2.141,5.041-4.516c6.674-12.836,5.654-31.73,6.864-33.644c0,0,2.062,6.036,2.318,10.045   c0.18,2.711-0.121,4.815-0.583,6.899c0.05,1.108,0.106,2.213,0.179,3.31l-0.114,0.034l-0.839,9.617l1.269,0.954l-0.634,7.74   l-2.414,2.985l-5.24,3.235l-4.239,1.672l-8.086,9.813l-5.181,0.529l-5.073-2.438l0.355-3.101c0.259-0.257,0.571-0.517,0.775-0.796   c-0.111-0.201-0.316-0.405-0.64-0.605c-3.931-2.363-7.036-2.452-8.612-3.649C605.328,629.327,596.098,627.12,595.504,620.221   L595.504,620.221z"/>
	<path fill-rule="evenodd" clip-rule="evenodd" fill="#E54C24" d="M661.265,606.479c6.707,5.903-1.884,11.548-3.753,16.912   C653.213,617.22,660.457,612.112,661.265,606.479L661.265,606.479z"/>
	<path fill-rule="evenodd" clip-rule="evenodd" fill="#E74C22" d="M202.618,687.547l-13.798-0.165   c-19.251-0.654-36.116,2.946-53.325,11.287l-2.725,1.798c-0.681,0.492-1.193,1.146-1.532,1.963c0,0.492,0,0.819,0,1.309   c0,0.818,0.339,1.638,0.851,2.29c2.555,1.8,4.939,2.779,8.006,3.599c13.457,2.29,25.383,2.945,39.184,2.127l11.415-1.473   l6.815-0.817l-0.34-1.963l-4.431-1.8l-3.237-0.325l-5.792,0.163l-4.43,0.816l-1.193-0.654l5.111-2.29l5.793-4.415l7.496-5.724   l5.281-3.763l1.532-0.49L202.618,687.547L202.618,687.547z"/>
	<path fill-rule="evenodd" clip-rule="evenodd" fill="#E74C22" d="M318.807,738.459l3.235-33.004l-4.938,2.021l-8.349,3.199   l-8.859,1.852c-17.205,1.347-32.028,1.01-49.063-1.18c-12.438-1.345-23.171-0.503-35.266,2.359l-10.222,3.703l-0.853,0.336   c-0.34,0-0.681,0.17-1.021,0.339c-0.341,0.337-0.513,0.673-0.513,1.01c-0.17,0.505,0,0.841,0.172,1.178   c0.168,0.337,0.341,0.675,0.851,0.842c3.748,2.021,7.326,3.367,11.585,4.548c20.103,5.726,39.014,8.923,60.649,10.271l18.569,1.178   l15.503,1.01L318.807,738.459L318.807,738.459z"/>
	<path fill-rule="evenodd" clip-rule="evenodd" fill="#E74C22" d="M557.485,732.965l-2.046-18.188l-2.895-13.766l-0.341-1.967   c11.073,5.081,21.636,7.373,33.902,7.373l11.243-0.817h10.733c13.968-2.458,26.236-3.443,40.376-3.276   c8.518,0.491,15.672,2.293,23.51,5.57l2.215,1.801l1.533,1.804l-0.512,1.638c-6.644,4.424-13.458,6.883-21.465,7.703   c-17.209,2.948-33.051,4.914-50.938,6.388l-15.502,2.296l-17.378,2.131L557.485,732.965L557.485,732.965z"/>
	<path fill-rule="evenodd" clip-rule="evenodd" fill="#E74C22" d="M639.939,689.504c5.231-3.32,10.294-5.533,16.367-7.271   c28.175-5.849,53.988-4.743,81.15,3.478c2.364,0.788,4.219,1.896,6.074,3.32c0.338,0.315,0.675,0.631,0.843,1.104   c0.171,0.475,0.171,0.949,0.171,1.424c-0.171,0.473-0.339,0.949-0.676,1.266c-3.038,2.685-6.075,4.268-9.955,5.532   c-25.813,4.584-48.926,3.635-74.065-2.848C652.764,693.93,646.689,692.192,639.939,689.504L639.939,689.504z"/>
	<path fill-rule="evenodd" clip-rule="evenodd" fill="#E74C22" d="M236.159,247.818l-1.673-39.906l-8.532,0.336l-13.049,1.683   l-10.035-0.337h-8.7l-4.684-0.673l-7.862-1.178l-8.53-0.673h-11.041c-11.877-0.843-22.249,1.01-32.955,5.724l-9.031,4.377   l-2.176,2.863l-1.84,3.538l0.168,3.198l2.006,5.053l7.528,7.577l9.033,5.894l11.042,4.377   C176.606,259.606,205.879,258.931,236.159,247.818L236.159,247.818z"/>
	<path fill-rule="evenodd" clip-rule="evenodd" fill="#E74C22" d="M323.916,147.39l-6.303-15.53l-2.557-11.225l-2.384-10.455   l-22.659,3.381l-19.932,3.229c-16.015,2.46-29.472,5.69-44.806,10.457l-6.985,2.305c-2.384,0.616-4.428,1.537-6.474,2.921   c-1.362,0.772-2.214,1.692-3.067,2.922c-0.168,0.308-0.168,0.77-0.341,1.231c0,0.77,0.172,1.537,0.683,2.307   c4.601,3.689,9.37,5.841,15.504,6.612c9.029,0.921,16.865,0.921,25.895-0.308l9.882-1.384l17.718-2.46   c11.073-0.77,20.783-0.309,31.688,1.537l9.029,3.077L323.916,147.39L323.916,147.39z"/>
	<path fill-rule="evenodd" clip-rule="evenodd" fill="#E74C22" d="M255.976,180.951l-0.469-6.272l-10.442-2.326   c-17.141-4.875-31.238-10.905-46.08-20.063l-9.445-3.599c-22.599-5.092-43.381-4.877-65.929,0.709l-6.758,2.789l-3.366,2.103   l-2.169,2.237l0.59,3.759l1.415,2.487l6.726,3.963c20.794,8.577,41.282,10.566,63.516,6.244l11.563-1.149   c8.501-0.938,15.821-1.226,24.347-0.906l10.243,0.917c7.685,0.804,14.203,2.886,20.754,6.694L255.976,180.951L255.976,180.951z"/>
	<path fill-rule="evenodd" clip-rule="evenodd" fill="#E74C22" d="M620.179,202.408l-1.874,37.09l17.376,5.988   c17.037,3.326,32.368,3.992,49.746,1.831l18.4-4.824c13.458-3.16,24.19-9.481,33.392-19.626l2.215-4.826l0.51-4.657l-2.896-5.321   c-7.153-4.491-13.968-7.484-22.316-9.647l-10.053-0.167l-10.732-0.167l-17.548,1.664l-16.864,2.993   c-12.267,1.831-23.002,1.997-35.266,0.832L620.179,202.408L620.179,202.408z"/>
	<path fill-rule="evenodd" clip-rule="evenodd" fill="#E74C22" d="M598.902,173.535l-0.265-6.628l17.95-5.374l20.543-8.744   l14.906-7.252c20.197-8.129,39.313-11.338,61.281-10.36c8.85,0.855,16.152,2.927,23.948,6.546c1.184,0.781,2.024,1.713,2.353,2.95   c0.326,1.235,0.312,2.468-0.214,3.695c-1.727,1.987-3.447,3.511-5.677,5.03c-19.2,10.296-39.174,13.804-61.29,10.975l-13.282-0.588   l-9.71-0.248l-10.903,0.051l-12.778,0.034l-9.742,2.679l-8.707,1.613L598.902,173.535L598.902,173.535z"/>
	<path fill-rule="evenodd" clip-rule="evenodd" fill="#E74C22" d="M524.435,147.915l5.792-16.165l5.281-17.175l0.853-6.399v-3.705   l16.015,1.683l17.718,1.517c13.628,1.178,25.043,3.199,38.33,6.904l16.524,5.052l13.29,6.567l2.725,2.188l0.172,2.021l-1.703,2.694   c-5.281,3.534-10.565,5.556-17.037,6.229c-8.519,1.012-16.015,1.18-24.703,0.336l-8.008-1.346L573.67,136.8   c-14.311-1.178-26.919,0.843-40.036,6.399l-5.452,3.538L524.435,147.915L524.435,147.915z"/>
	<polygon fill-rule="evenodd" clip-rule="evenodd" fill="#00B5E2" points="397.295,554.815 435.115,526.527 476.854,555.657    459.306,610.719 416.035,610.719 397.295,554.815  "/>
	<path fill-rule="evenodd" clip-rule="evenodd" fill="#00B5E2" d="M327.149,631.42c19.879,32.286,54.19,55.142,93.937,59.759   l0.229-3.846l-29.472-47.485l-64.059-8.418L327.149,631.42L327.149,631.42z"/>
	<path fill-rule="evenodd" clip-rule="evenodd" fill="#00B5E2" d="M435.966,442c-5.378,0-10.682,0.336-15.894,0.983l0.222,4.573   l0.851,6.734l1.874,5.894l0.683,4.041l0.17,8.25l10.563,7.913l11.924-7.069l6.134-5.39l-4.26-3.367l-1.363-3.198l0.683-3.706   l3.747-4.209l2.385-3.704l1.023-3.704l0.473-2.609C448.909,442.489,442.491,442,435.966,442L435.966,442z"/>
	<path fill-rule="evenodd" clip-rule="evenodd" fill="#00B5E2" d="M454.766,690.672c39.692-5.827,73.583-29.809,92.508-62.971   l-3.297-0.144l-60.991,10.774l-28.448,49.169L454.766,690.672L454.766,690.672z"/>
	<path fill-rule="evenodd" clip-rule="evenodd" fill="#00B5E2" d="M562.285,583.542c0.731-5.379,1.113-10.865,1.113-16.436   c0-36.506-16.135-69.463-41.727-92.377l-1.717,24.352l-2.385,45.463l43.954,38.558L562.285,583.542L562.285,583.542z"/>
	<path fill-rule="evenodd" clip-rule="evenodd" fill="#00B5E2" d="M349.672,475.475c-25.047,22.88-40.796,55.516-40.796,91.632   c0,7.078,0.614,14.018,1.782,20.781l46.43-40.313l-6.645-71.9L349.672,475.475L349.672,475.475z"/>
	<polygon fill-rule="evenodd" clip-rule="evenodd" fill="#00B5E2" points="397.295,554.815 435.115,526.527 476.854,555.657    459.306,610.719 416.035,610.719 397.295,554.815  "/>
</g>
</svg>