<svg xmlns:dc="http://purl.org/dc/elements/1.1/" xmlns:cc="http://creativecommons.org/ns#" xmlns:rdf="http://www.w3.org/1999/02/22-rdf-syntax-ns#" xmlns:svg="http://www.w3.org/2000/svg" xmlns="http://www.w3.org/2000/svg" viewBox="0 0 300 299.25754" id="svg70" height="299.25754" width="300" version="1.1">
  <metadata id="metadata76">
    <rdf:RDF>
      <cc:Work rdf:about="">
        <dc:format>image/svg+xml</dc:format>
        <dc:type rdf:resource="http://purl.org/dc/dcmitype/StillImage"/>
        <dc:title/>
      </cc:Work>
    </rdf:RDF>
  </metadata>
  <defs id="defs74"/>
  <g transform="matrix(0.52432941,0,0,0.52432941,-6.0602528,-71.084912)" id="g148">
    <path id="path2" style="fill:#0232a0;fill-rule:evenodd" d="M 297.6378,137.4802 A 284.1725,283.4645 0 0 1 581.8103,420.9447 284.1725,283.4645 0 1 1 297.6378,137.4802 Z"/>
    <path id="path4" style="fill:#ffffff;fill-rule:evenodd" d="M 297.6378,145.0076 A 276.6451,275.9371 0 0 1 574.2829,420.9447 276.6451,275.9371 0 1 1 297.6378,145.0076 Z"/>
    <path id="path6" style="fill:#0232a0;fill-rule:evenodd" d="M 297.7733,152.5351 A 268.6463,268.1861 0 0 1 566.4196,420.7212 268.6463,268.1861 0 1 1 297.7733,152.5351 Z"/>
    <path id="path8" style="fill:#ffffff;fill-rule:evenodd" d="M 297.8326,233.7437 A 187.4168,186.9892 0 0 1 485.2494,420.7329 187.4168,186.9892 0 1 1 297.8326,233.7437 Z"/>
    <path id="path10" style="fill:#0232a0;fill-rule:evenodd" d="M 297.4456,241.5943 A 179.5023,179.0612 0 0 1 476.9478,420.6555 179.5023,179.0612 0 1 1 297.4456,241.5943 Z"/>
    <path id="path12" style="fill:#ffffff;fill-rule:evenodd" d="M 297.4499,248.5427 A 172.4048,172.1128 0 0 1 469.8547,420.6555 172.4048,172.1128 0 1 1 297.4499,248.5427 Z"/>
    <path id="path14" style="fill:#ffffff;fill-rule:evenodd" d="m 337.5709,497.8163 c -22.5161,7.1212 -44.1352,16.7448 -64.1512,29.3698 -25.0392,15.7937 -44.3786,32.3176 -61.0635,57.1243 l -8.9052,13.2402 -111.5093,-281.9161 8.7721,-2.6198 c 38.2299,-11.418 79.0225,-13.8838 118.5752,-9.4843 28.6683,3.1884 56.6197,10.0543 83.5682,20.327 l 3.3604,1.2808 4.39,10.4637 c 18.1582,5.7087 36.6386,10.7168 55.2928,14.4623 16.931,3.3998 34.511,5.8934 51.801,6.1001 27.4407,0.3277 45.7176,-3.6746 58.6842,-18.0943 6.1103,-6.7952 10.5497,-14.4735 14.4281,-28.1925 7.4403,15.4758 11.605,31.5428 11.9541,49.4168 0.4222,21.6028 -5.1305,43.8904 -15.2471,61.9783 -11.3152,20.2312 -27.113,36.3712 -45.9365,49.7269 -26.7948,19.012 -58.8988,31.6882 -90.305,40.7478 l -7.3057,2.1074 z"/>
    <path id="path16" style="fill:#0232a0;fill-rule:evenodd" d="m 103.1165,321.0595 102.2731,258.565 c 17.8232,-26.4992 38.1158,-43.4964 63.551,-59.5397 21.4674,-13.5404 45.8774,-24.5001 73.5703,-32.5388 l 6.4412,16.1342 c 34.9754,-10.0891 64.5484,-23.0488 87.7737,-39.5281 18.6455,-13.2295 33.1523,-28.5351 43.4672,-46.9779 13.2376,-23.6677 18.788,-57.0105 9.8529,-84.8916 -11.6896,23.8365 -37.8619,32.6902 -72.4447,32.2771 -32.4876,-0.3882 -72.0446,-8.9386 -113.2339,-22.1295 l -4.5005,-10.7275 c -27.0143,-10.2975 -54.1562,-16.7859 -81.506,-19.8279 -37.9403,-4.22 -77.7214,-2.0222 -115.2443,9.1847 z"/>
    <path id="path18" style="fill:#ffffff;fill-rule:evenodd" d="m 474.0677,358.5655 c -5.5726,4.9881 -12.8018,8.0272 -21.7355,10.1612 -10.4973,2.5075 -22.785,3.5035 -34.821,3.3599 -18.2914,-0.2186 -38.1112,-2.654 -56.0242,-6.2507 -21.6996,-4.357 -40.0579,-8.4721 -63.518,-15.6968 l -5.0665,-12.8513 c -24.761,-9.1685 -49.1079,-13.572 -75.3738,-16.4932 -34.7044,-3.8596 -70.7967,-0.4265 -100.5064,7.656 l 20.3299,50.9272 c 17.5633,-6.5292 38.4279,-10.5419 62.6066,-12.4533 30.245,-2.3911 65.5325,-1.3914 106.1746,3.834 l 4.3723,11.1676 c 44.0894,4.786 82.2271,5.4322 111.6039,-0.2021 22.1324,-4.2449 42.356,-11.6247 51.9581,-23.1585 z m -298.3881,116.8234 32.8579,82.3096 c 15.5997,-18.8105 30.2143,-31.1627 53.8302,-46.0581 26.8839,-16.957 59.4685,-29.3553 85.4709,-35.3983 l 5.9924,14.9943 c 28.0305,-7.2755 53.6684,-16.6046 77.0915,-33.2235 16.8768,-11.9744 32.2623,-26.8 42.4113,-44.9475 4.2455,-7.5917 7.7935,-15.8079 10.1172,-24.6408 -16.2043,17.7138 -36.465,30.4653 -57.4489,39.9638 -26.7586,12.1122 -56.1602,19.2358 -88.0062,22.9196 l -4.6717,-11.7761 c -35.0689,-0.5096 -60.7589,1.8413 -89.0797,8.2069 -24.1935,5.4383 -50.7358,14.9304 -68.5649,27.6501 z"/>
    <path id="path20" style="fill:#d9e0e7;fill-rule:evenodd" d="m 317.679,355.8241 c -6.2689,-1.6806 -12.7659,-3.5466 -19.71,-5.685 l 12.5786,31.7916 c 6.4461,0.6995 12.7637,1.3095 18.9463,1.8251 z m 20.3183,95.4836 15.8337,39.9287 c 6.4088,-1.6635 12.6916,-3.4348 18.8525,-5.3754 l -15.7399,-37.2111 c -6.215,1.0339 -12.5311,1.9158 -18.9463,2.6578 z"/>
    <path id="path22" style="fill:#082e86;fill-rule:evenodd" d="m 310.5378,381.9296 27.4581,69.3784 c 6.4157,-0.742 12.7321,-1.6242 18.9477,-2.6581 l -27.4497,-64.8941 c -6.1858,-0.5159 -12.5068,-1.1265 -18.9561,-1.8262 z"/>
    <g id="Layer1001">
      <path id="path24" style="fill:#ffffff;fill-rule:evenodd" d="m 543.2733,407.5614 h -4.2718 l -6.6714,2.1884 1.0255,4.2539 4.612,-1.275 v 21.9164 h 5.3057 z"/>
      <path id="path26" style="fill:#ffffff;fill-rule:evenodd" d="m 61.2275,407.4166 h -4.2719 l -6.6713,2.1885 1.0255,4.2539 4.612,-1.2751 v 21.9165 h 5.3057 z"/>
      <path id="path28" style="fill:#ffffff;fill-rule:evenodd" d="m 89.4869,420.3829 c -0.0017,-3.9351 -0.597,-7.0937 -2.4504,-9.5853 -1.7406,-2.3405 -4.5999,-3.9154 -8.5755,-3.9154 -5.4265,0 -10.0031,4.0127 -10.0028,9.711 0,5.4397 4.6094,8.4596 9.7022,8.4666 2.6454,0.004 4.6821,-1.0017 5.9328,-2.3228 -0.1812,4.0686 -2.3824,7.2758 -5.9197,7.4412 -2.3584,0.11 -4.3243,-0.8712 -6.2217,-2.7192 l -2.7195,4.0101 c 2.9294,2.1378 5.3989,3.2956 8.984,3.2918 2.9236,-0.003 5.7235,-1.4189 7.6734,-3.559 2.6201,-2.8755 3.599,-7.1201 3.5972,-10.819 z m -10.6027,0.4285 c -2.4953,-0.1002 -5.0338,-1.5321 -5.167,-4.3743 -0.1447,-3.088 1.8251,-4.8983 4.8416,-4.9111 3.6375,-0.0156 5.4681,2.2218 5.3613,4.6728 -0.1068,2.456 -2.0133,4.7339 -5.0359,4.6126 z"/>
      <path id="path30" style="fill:#ffffff;fill-rule:evenodd" d="m 516.7194,429.8455 c 3.2405,-2.9221 7.8071,-5.808 10.1936,-9.5358 0.8448,-1.3196 1.511,-3.033 1.5023,-4.5964 -0.0183,-3.2293 -1.7455,-5.9887 -4.3083,-7.3876 -1.5371,-0.8393 -3.4716,-1.189 -5.2565,-1.154 -1.7328,0.0339 -3.7142,0.7113 -5.2631,1.6442 -1.7012,1.0246 -2.9427,2.535 -4.1688,4.4029 l 3.689,2.8063 c 1.4731,-2.1716 3.2392,-4.1546 5.8793,-4.1482 2.2533,0.006 4.0251,1.6537 4.046,4.1091 0.0179,2.0944 -1.4221,3.9117 -2.9105,5.1618 l -11.1299,9.3491 v 4.0035 h 19.6309 v -4.6549 z"/>
    </g>
    <g id="Layer1002">
      <path id="path33" style="fill:#ffffff;fill-rule:evenodd" d="m 292.1655,211.002 8.7922,0.3141 0.4309,-12.0632 6.4712,0.1759 7.7508,12.4107 10.3194,0.3686 -9.0341,-14.054 c 4.9024,-1.3307 8.4218,-5.8107 8.6429,-11.5951 0.1716,-4.4877 -1.4163,-7.7279 -3.6755,-9.8183 -3.096,-2.8648 -7.705,-3.7102 -13.0536,-3.9013 l -15.2615,-0.5452 z m 16.8021,-30.1841 c 4.0781,0.1457 7.7407,1.2531 7.5824,5.684 -0.1589,4.4473 -3.896,5.2739 -7.9687,5.1284 l -6.9115,-0.2469 0.3862,-10.8124 z"/>
      <path id="path35" style="fill:#ffffff;fill-rule:evenodd" d="m 204.9296,233.4415 8.1171,-3.3934 -4.4883,-10.7361 4.3484,-1.8778 c 6.9475,-3.0002 9.6741,-5.9321 10.9241,-9.1669 1.2503,-3.2342 1.0812,-6.6464 -0.3632,-10.1862 -1.6963,-4.1566 -5.0339,-6.5266 -7.9587,-7.4794 -4.0089,-1.3058 -8.152,-0.3127 -13.0878,1.7507 l -12.4868,5.2201 z m 1.964,-34.1659 c 3.765,-1.574 6.8433,-1.1755 8.3301,2.3809 1.5489,3.7051 -0.157,6.2427 -4.1789,7.9241 l -5.5795,2.3326 -4.2847,-10.2492 z"/>
      <path id="path37" style="fill:#ffffff;fill-rule:evenodd" d="m 136.0889,287.4177 9.5765,-9.8013 c 3.1179,-3.1912 5.7578,-6.5866 6.7657,-11.0549 1.416,-6.2784 0.0365,-12.9656 -5.2491,-18.1299 -5.0538,-4.9378 -10.8925,-6.3589 -16.6838,-5.3796 -5.11,0.8639 -8.7572,3.6277 -12.2573,7.21 l -9.8559,10.0873 z M 124.7608,254.832 c 4.477,-4.5821 11.3931,-4.5657 16.0785,0.0122 4.7426,4.6338 4.8755,11.3995 0.346,16.0354 l -4.6075,4.7156 -16.4244,-16.0476 z"/>
      <path id="path39" style="fill:#ffffff;fill-rule:evenodd" d="m 252.817,176.4168 c 11.4634,-2.741 22.2585,3.946 24.8433,14.7561 2.5848,10.8101 -4.1142,21.5977 -15.4812,24.3981 -11.367,2.8004 -22.2585,-3.9461 -24.8432,-14.7562 -2.5848,-10.8101 4.0177,-21.6571 15.4811,-24.398 z m 1.9088,7.9827 c 6.4203,-1.5351 12.2794,2.5231 13.8019,8.8907 1.5225,6.3674 -1.9206,12.6012 -8.2874,14.1721 -6.3668,1.5709 -12.2794,-2.523 -13.8019,-8.8904 -1.5226,-6.3676 1.8671,-12.6372 8.2874,-14.1724 z"/>
      <path id="path41" style="fill:#ffffff;fill-rule:evenodd" d="m 477.3022,244.936 c 7.6035,9.006 6.4858,21.6552 -2.007,28.8254 -8.4928,7.1703 -21.1405,6.0385 -28.7538,-2.8548 -7.6133,-8.8932 -6.4858,-21.6551 2.007,-28.8254 8.4927,-7.1702 21.1502,-6.1512 28.7538,2.8548 z m -6.2715,5.2949 c 4.2585,5.044 3.2689,12.1022 -1.7338,16.3258 -5.0024,4.2235 -12.1187,3.9517 -16.3851,-1.0284 -4.2664,-4.9802 -3.2689,-12.1023 1.7335,-16.3257 5.0026,-4.2236 12.1268,-4.0157 16.3854,1.0283 z"/>
      <path id="path43" style="fill:#ffffff;fill-rule:evenodd" d="m 373.5364,183.1332 -31.2644,-7.4302 -1.8739,7.8846 11.272,2.6788 -7.0818,29.7984 8.667,2.0597 7.0818,-29.7983 11.3255,2.6916 z"/>
      <path id="path45" style="fill:#ffffff;fill-rule:evenodd" d="m 398.6905,192.7179 -8.1451,-3.3256 -14.6409,35.8587 8.1451,3.3256 z"/>
      <path id="path47" style="fill:#ffffff;fill-rule:evenodd" d="m 172.7524,206.6692 -24.4178,16.2635 21.471,32.2365 24.7403,-16.4781 -4.3863,-6.5855 -17.4179,11.6011 -4.2257,-6.3445 15.0832,-10.0461 -4.332,-6.5041 -15.0832,10.0462 -4.1409,-6.2171 17.0955,-11.3864 z"/>
      <path id="path49" style="fill:#ffffff;fill-rule:evenodd" d="m 447.9572,219.8578 -8.2241,-5.0404 -22.2724,17.6046 5.4988,-27.885 -8.3473,-5.1159 -7.0456,41.2798 6.7154,4.1158 z"/>
    </g>
    <g id="Layer1003">
      <path id="path52" style="fill:#ffffff;fill-rule:evenodd" d="m 403.0269,601.5884 c -3.3223,2.1905 -5.9051,5.1103 -6.5122,8.8293 -0.4151,2.5441 -0.008,5.4529 1.8872,8.4542 1.6579,2.6247 4.1579,4.1501 6.886,4.5882 2.2941,0.3677 4.6052,-0.095 7.0587,-0.629 3.1655,-0.6889 9.8822,-3.7914 11.7897,-0.483 1.2247,2.1242 -0.6617,4.253 -2.3343,5.3558 -3.96,2.611 -8.8101,2.6254 -12.7953,2.1018 l -1.4261,7.852 c 7.7087,1.5645 14.6821,-0.6697 18.5738,-3.4257 3.1137,-2.2048 5.5874,-4.768 6.5079,-8.267 0.716,-2.721 0.4833,-6.075 -1.7177,-9.4313 -2.2513,-3.4326 -5.5735,-4.6715 -8.9987,-4.6305 -3.1157,0.0371 -6.4696,1.1307 -9.3786,1.9013 -1.8859,0.4999 -6.5508,2.1504 -7.663,-1.0994 -0.672,-1.9675 0.8075,-3.6535 2.2904,-4.6372 3.3065,-2.1932 6.7776,-2.2486 11.069,-1.9126 l 0.4999,-7.9252 c -5.66,-0.8919 -11.626,0.6479 -15.7367,3.3583 z"/>
      <path id="path54" style="fill:#ffffff;fill-rule:evenodd" d="m 382.5225,613.0938 -27.7222,9.6026 12.6774,36.599 28.0883,-9.7294 -2.5898,-7.4767 -19.775,6.8498 -2.4951,-7.2031 17.1244,-5.9316 -2.5578,-7.3842 -17.1244,5.9316 -2.4449,-7.0583 19.409,-6.723 z"/>
      <path id="path56" style="fill:#ffffff;fill-rule:evenodd" d="m 364.3618,616.5343 6.3709,-2.2067 5.4979,-7.9612 -8.4556,-0.4856 z"/>
      <path id="path58" style="fill:#ffffff;fill-rule:evenodd" d="m 345.1841,625.4845 -9.574,1.1746 -6.4724,27.6422 -13.0545,-25.2465 -9.7175,1.1922 20.1821,36.6926 7.8177,-0.9591 z"/>
      <path id="path60" style="fill:#ffffff;fill-rule:evenodd" d="m 296.0956,668.883 -9.2696,-0.8881 -2.6268,-8.7952 -15.8834,-1.5218 -4.3228,8.1294 -8.9886,-0.8612 20.3487,-37.1057 7.8427,0.7515 z m -14.2982,-17.7248 -3.6021,-12.06 -5.9274,11.1469 z"/>
      <path id="path62" style="fill:#ffffff;fill-rule:evenodd" d="m 196.6823,646.705 -8.116,-4.5657 1.1597,-9.1055 -13.9067,-7.8232 -7.2444,5.6826 -7.87,-4.4272 33.6311,-25.6875 6.8667,3.8628 z m -5.8961,-21.9965 1.59,-12.4856 -9.9335,7.7919 z"/>
      <path id="path64" style="fill:#ffffff;fill-rule:evenodd" d="m 233.6014,618.789 -8.3914,-2.6433 -11.637,36.943 26.68,8.4041 2.3772,-7.5469 -18.2885,-5.7609 z"/>
    </g>
    <path id="path67" style="fill:#ffffff;fill-rule:evenodd" d="m 186.0336,389.8814 6.5935,16.627 9.6235,-2.2993 -3.6902,-9.3346 5.83,-1.0264 c 2.8359,-0.5185 6.1607,-0.9259 9.0393,-0.4867 3.0892,0.4714 5.8327,1.5889 8.0269,3.0316 5.7293,3.7672 10.2188,11.9582 8.1221,18.8904 -0.9791,3.2382 -3.3784,5.832 -7.7463,7.2321 l -10.9562,3.5116 -4.1716,-10.5524 -9.4496,2.7041 7.3019,18.4133 21.0598,-6.3922 c 6.8997,-2.0921 12.9205,-7.8685 13.0604,-15.5291 l 0.3845,-21.0534 13.1197,14.6877 -5.5935,0.6242 v 7.3364 l 11.0272,-1.4082 6.5674,7.6861 7.2912,-0.9739 -32.7016,-36.5823 -6.7272,0.6393 -0.3347,10.6172 c -3.3847,-4.7933 -8.1203,-7.3575 -13.7873,-8.6262 -8.841,-1.9791 -20.0969,-0.3121 -31.8892,2.2637 z"/>
  </g>
</svg>