<svg xmlns:dc="http://purl.org/dc/elements/1.1/" xmlns:cc="http://creativecommons.org/ns#" xmlns:rdf="http://www.w3.org/1999/02/22-rdf-syntax-ns#" xmlns:svg="http://www.w3.org/2000/svg" xmlns:sodipodi="http://sodipodi.sourceforge.net/DTD/sodipodi-0.dtd" xmlns:inkscape="http://www.inkscape.org/namespaces/inkscape" xmlns="http://www.w3.org/2000/svg" xmlns:xlink="http://www.w3.org/1999/xlink" version="1.1" id="svg2" sodipodi:docname="Escudo Rampla Juniors.svg" inkscape:version="0.48.4 r9939" x="0px" y="0px" width="594.073px" height="760.833px" viewBox="0 6.771 594.073 760.833" enable-background="new 0 6.771 594.073 760.833" xml:space="preserve">
<sodipodi:namedview showguides="true" showgrid="false" inkscape:cy="385.71609" inkscape:cx="340.60731" inkscape:zoom="0.35355339" borderopacity="1.0" bordercolor="#666666" pagecolor="#ffffff" id="base" inkscape:window-maximized="1" inkscape:window-y="-8" inkscape:window-x="-8" inkscape:window-height="706" inkscape:current-layer="layer1" inkscape:pageshadow="2" inkscape:document-units="px" inkscape:pageopacity="0.0" inkscape:guide-bbox="true" inkscape:window-width="1366">
	</sodipodi:namedview>
<g id="layer1" inkscape:label="Capa 1" inkscape:groupmode="layer">
	<path id="path3786" inkscape:connector-curvature="0" fill="none" d="M0.261,0"/>
	<path id="path4636" inkscape:connector-curvature="0" fill="none" d="M0.261,0"/>
	<path id="path4644" inkscape:connector-curvature="0" fill="none" d="M0.261,0"/>
	<path id="path4646" inkscape:connector-curvature="0" fill="none" d="M0.261,0"/>
	<path id="path5054" inkscape:connector-curvature="0" d="M288.184,766.104c-5.38-2.37-10.299-4.432-23.461-9.833   c-20.998-8.616-67.481-31.244-75.456-36.731c-1.744-1.2-4.026-2.582-5.073-3.072c-2.175-1.018-4.757-2.582-12.339-7.474   c-2.951-1.904-5.681-3.462-6.068-3.462c-0.639,0-7.714-4.992-29.08-20.518c-6.661-4.84-25.707-20.873-31.265-26.319   c-1.116-1.093-3.969-3.75-6.341-5.904c-5.969-5.421-20.096-21.306-28.85-32.439c-32.794-41.708-53.64-91.261-62.329-148.164   c-1.438-9.416-3.267-20.83-4.066-25.363c-1.039-5.901-1.588-69.592-1.931-224.149L1.444,6.771H298.36h296.916l-0.511,210.199   c-0.575,236.334,0,220.368-9.881,272.339c-2.995,15.746-4.821,22.457-11.041,40.581c-2.394,6.975-4.861,14.394-5.482,16.486   c-2.154,7.249-19.721,40.64-28.023,53.263c-19.898,30.257-49.783,61.615-81.277,85.284c-9.513,7.149-17.566,12.999-17.895,12.999   c-0.33,0-5.067,3.071-10.529,6.824c-24.186,16.621-71.712,40.488-116.298,58.403C302.578,767.875,294.321,768.808,288.184,766.104   L288.184,766.104z M301.938,736.739c1.851-0.971,5.934-2.736,9.073-3.921c6.311-2.384,9.296-3.669,21.879-9.421   c4.71-2.153,9.051-3.914,9.646-3.914c1.714,0,37.148-18.325,51.996-26.89c47.91-27.637,85.397-59.903,113.996-98.118   c4.359-5.825,7.926-10.996,7.926-11.49s0.799-1.799,1.775-2.901c2.96-3.339,18.076-32.999,22.673-44.486   c6.514-16.277,12.431-37.541,17.292-62.14c2.781-14.075,5.133-35.447,6.41-58.243c1.721-30.729,1.75-148.047,0.037-149.105   c-1.067-0.66-29.388,23.799-42.563,36.759c-2.138,2.103-6.133,5.777-8.877,8.165c-8.545,7.433-30.289,27.132-31.621,28.647   c-0.698,0.793-10.399,9.623-21.559,19.621c-11.16,9.998-20.576,18.56-20.925,19.026c-0.349,0.466-7.482,7.024-15.852,14.573   c-8.37,7.55-18.927,17.237-23.461,21.528c-4.534,4.291-14.009,12.908-21.057,19.148c-7.048,6.241-19.888,17.866-28.534,25.835   c-25.771,23.752-40.323,37.042-54.399,49.679c-7.324,6.575-16.74,15.147-20.925,19.049c-7.711,7.189-13.332,12.305-47.12,42.882   c-10.354,9.37-23.125,21.069-28.381,25.997c-14.101,13.224-34.668,32.059-46.561,42.641c-5.754,5.12-10.45,10.194-10.435,11.276   c0.015,1.082,2.325,3.679,5.133,5.772c2.808,2.092,7.219,5.391,9.801,7.329c29.729,22.318,73.082,46.143,118.196,64.955   c8.021,3.345,16.296,6.84,18.388,7.768C298.585,738.841,297.926,738.843,301.938,736.739L301.938,736.739z M71.722,514.356   c9.189-8.195,20.991-18.91,26.227-23.811c5.236-4.9,13.23-12.279,17.763-16.397c4.534-4.118,17.659-16.036,29.168-26.485   c11.509-10.449,23.778-21.653,27.266-24.898c3.487-3.245,12.904-11.785,20.925-18.978c8.021-7.193,15.155-13.731,15.852-14.528   c1.152-1.317,17.287-16.046,71.694-65.446c10.371-9.416,28.897-26.251,41.17-37.411c12.273-11.16,27.121-24.64,32.996-29.956   c5.875-5.316,17.404-15.944,25.621-23.619c8.217-7.674,18.457-17.021,22.755-20.771c20.887-18.221,47.282-43.313,46.646-44.342   c-0.424-0.686-85.507-1.154-209.751-1.154c-189.445,0-209.109,0.188-209.807,2.006c-1.348,3.512-0.842,207.944,0.59,238.312   c1.506,31.949,6.144,68.303,11.326,88.772c1.293,5.108,7.104,24.612,9.54,32.021c0.287,0.872,1.149,1.585,1.916,1.585   S62.533,522.551,71.722,514.356L71.722,514.356z M564.865,137.078c0.555-0.874,1.017-26.485,1.028-56.915   c0.017-45.312-0.295-55.588-1.718-56.769c-1.285-1.067-70.517-1.435-266.228-1.417c-145.47,0.013-265.392,0.37-266.493,0.793   c-1.79,0.687-1.967,6.827-1.673,57.955l0.33,57.187l2.928,0.691c1.61,0.38,121.703,0.55,266.873,0.377   C509.678,138.731,564.064,138.341,564.865,137.078L564.865,137.078z M427.736,127.124c-15.959-2.766-29.065-12.318-35.453-25.839   c-11.298-23.912-2.023-52.172,20.809-63.408c12.664-6.232,29.222-6.947,45.027-1.945l6.975,2.208l0.218,8.18   c0.307,11.544-0.401,12.143-8.443,7.144c-5.679-3.53-8.167-4.25-16.069-4.649c-8.138-0.411-10.253-0.03-16.317,2.936   c-11.036,5.399-17.104,15.721-17.078,29.051c0.014,7.33,4.241,17.748,9.039,22.278c10.511,9.925,30.319,10.473,42.881,1.186   c2.11-1.56,4.239-2.434,4.73-1.942c0.492,0.492,0.826,4.708,0.743,9.37c-0.171,9.638-1.022,10.724-10.645,13.582   C445.63,127.806,435.688,128.502,427.736,127.124L427.736,127.124z M131.776,125.134c-0.465-0.465-0.845-21.086-0.845-45.825   V34.329l22.51,0.644c19.333,0.553,23.569,1.049,30.016,3.512c9.483,3.625,17.445,10.919,21.938,20.1   c3.205,6.549,3.502,8.393,3.507,21.74c0.004,12.257-0.431,15.53-2.727,20.513c-2.823,6.129-12.417,17.532-14.75,17.532   c-0.728,0-2.225,0.808-3.326,1.795c-3.614,3.24-20.663,5.814-38.514,5.814C140.255,125.979,132.241,125.599,131.776,125.134   L131.776,125.134z M167.074,108.238c11.119-1.812,15.412-4.576,19.237-12.39c2.941-6.008,3.212-7.787,2.726-17.946   c-0.445-9.314-1.075-12.058-3.62-15.773c-5.012-7.314-10.786-9.771-23.684-10.075l-11.145-0.263l-0.343,27.264   C149.825,112.364,149.132,111.162,167.074,108.238z M275.079,125.134c-0.465-0.465-0.845-21.009-0.845-45.654V34.671h26.557   c14.606,0,26.787,0.428,27.069,0.951c0.282,0.523,0.173,4.09-0.242,7.926l-0.754,6.975l-15.139,0.359   c-8.327,0.198-15.812,0.918-16.634,1.6c-1.557,1.292-1.693,14.456-0.165,15.983c0.464,0.464,7.379,0.762,15.367,0.663   c17.157-0.213,18.5,0.488,17.908,9.347c-0.212,3.168-0.688,6.062-1.058,6.433c-0.37,0.37-7.432,0.785-15.694,0.922   c-8.261,0.137-15.626,0.634-16.367,1.104c-0.879,0.558-1.193,6.87-0.904,18.178c0.303,11.873-0.02,17.881-1.028,19.095   C291.627,126.04,276.749,126.803,275.079,125.134L275.079,125.134z"/>
</g>
</svg>