<svg xmlns="http://www.w3.org/2000/svg" xmlns:xlink="http://www.w3.org/1999/xlink" version="1.1" id="Capa_1" x="0px" y="0px" width="612px" height="682px" viewBox="0 0 612 682" enable-background="new 0 0 612 682" xml:space="preserve">
<g>
	<path fill-rule="evenodd" clip-rule="evenodd" fill="#008234" d="M36.747,40.645l1.052,30.517v5.262   c0,38.33-17.93,43.821-31.569,64.189c2.344,3.5,21.391,19.816,26.569,24.994c9.74,9.739,15.239,17.269,22.892,28.671   c14.639,21.81,20.52,47.368,21.003,83.174c0.211,15.68,2.178,32.446,2.144,49.418c-0.021,11.033,0.889,38.665,2.738,48.826   c2.467,13.56-0.634,35.788,1.893,49.67c2.577,14.166,1.301,34.919,3.54,49.075c5.687,35.963,9.963,51.196,26.76,76.364   c11.202,16.785,36.064,39.613,53.028,51.149c18.272,12.427,44.178,29.297,65.535,37.59c10.322,4.008,65.991,30.374,73.803,30.374   c6.612,0,65.62-25.423,73.668-29.457c25.396-12.729,43.199-22.97,66.073-38.103c19.665-13.01,38.979-31.466,53.011-50.116   c17.028-22.632,22.082-42.626,27.807-76.369c1.859-10.953,3.598-36.721,3.606-47.958c0.014-18.555,2.081-32.142,2.079-49.483   c-0.004-33.507,4.229-66.655,4.209-99.968c-0.021-34.266,7.547-62.021,20.832-83.346c6.4-10.271,14.215-20.651,22.573-28.989   c6.462-6.445,23.312-19.862,27.099-25.517c-4.255-8.041-15.448-15.563-21.034-25.268c-4.179-7.265-10.535-24.647-10.535-35.766   l-0.387-14.773l2.491-25.213h-11.575c-19.385,0-39.907-2.447-53.999-8.087c-7.617-3.049-13.928-6.884-20.097-11.472   c-2.183-1.624-17.179-14.114-17.454-14.114c-0.704,0-30.025,19.927-34.299,22.525c-12.038,7.316-24.933,14.127-38.303,19.573   c-24.837,10.117-60.06,21.039-94.714,21.039h-4.209c-11.839,0-38.532-4.128-48.824-6.947c-17.237-4.721-27.601-9.052-42.576-14.248   c-12.859-4.461-26.086-12.432-37.688-19.136c-11.727-6.777-23.537-17.261-34.018-22.806   c-14.987,10.035-21.375,20.048-41.633,26.766c-9.226,3.06-18.119,4.841-28.903,5.823C60.64,39.301,44.098,38.933,36.747,40.645z"/>
	<path fill-rule="evenodd" clip-rule="evenodd" fill="#FAF201" d="M54.636,52.221h-5.262c0.274,3.292,1.052,3.738,1.052,7.366V79.58   c0,9.855-4.7,28.003-8.065,35.079c-5.653,11.883-12.25,15.953-18.242,24.902c4.903,7.323,17.557,15.305,24.623,24.835   c8.095,10.92,13.537,16.672,21.261,29.249c11.392,18.549,19.667,50.691,19.358,80.61c-0.322,31.344,3.746,64.396,4.169,95.8   c0.405,30.039,5.051,65.381,5.33,94.637c0.305,31.91,11.588,55.67,23.459,76.509c9.76,17.134,34.678,37.411,50.458,49.511   c17.805,13.651,41.85,26.537,63.176,36.792c6.818,3.279,67.338,29.787,70.181,29.787c4.797,0,63.405-25.898,70.504-29.464   c22.527-11.317,44.053-21.802,63.433-36.535c46.552-35.39,64.417-54.6,75.247-124.689c1.749-11.324,2.352-35.09,2.328-47.131   c-0.031-15.309,1.413-31.754,2.064-48.444c0.589-15.097,2.209-31.144,2.134-47.325c-0.048-10.167,0.779-38.249,2.34-48.171   c2.341-14.898,1.369-30.388,4.805-44.652c3.515-14.595,8.292-24.189,14.264-36.247c3.233-6.527,16.351-25.624,20.77-29.741   c4.328-4.034,22.82-21.807,25.18-25.331c-7.225-10.79-13.223-13.291-18.955-28.397c-4.415-11.634-7.352-23.905-7.352-40.002V59.586   c0-3.627,0.777-4.074,1.052-7.366c-20.444,0-36.469-2.799-52.424-7.558c-15.884-4.738-25.767-14.717-38.073-22.958   c-10.07,5.328-20.818,14.175-32.004,20.611c-11.907,6.851-22.508,12.388-35.99,17.677c-22.078,8.66-56.161,20.64-85.642,20.64   H298.77c-32.063,0-65.789-10.325-88.369-20.018c-13.268-5.695-24.312-9.837-36.435-17.232c-5.933-3.619-11.404-6.604-17.061-10.299   c-1.937-1.265-15.723-11.379-15.98-11.379c-0.867,0-14.681,10.191-16.74,11.672c-5.366,3.86-12.567,7.845-19.162,10.302   C93.665,47.911,69.961,52.221,54.636,52.221z"/>
	<path fill-rule="evenodd" clip-rule="evenodd" fill="#008234" d="M111.578,461.792c-0.117,29.297,9.605,54.016,20.942,72.367   c8.245,13.345,33.89,38.143,47.293,46.361c19.111,11.719,37.287,25.001,58.967,34.688c6.161,2.753,64.625,28.403,66.303,28.403   c13.348,0,89.337-38.401,102.417-45.957c27.451-15.853,63.585-43.321,78.241-71.185c16.71-31.77,20.366-80.419,20.305-128.068   c-0.058-46.394,6.34-95.87,6.013-143.72L111.578,461.792z"/>
	<path fill-rule="evenodd" clip-rule="evenodd" fill="#008234" d="M63.055,63.796v18.941c0,20.83-12.539,43.067-21.046,55.772   c4.11,6.138,17.738,19.241,23.917,26.592c6.668,7.934,15.195,21.726,19.561,32.001c11.966,28.156,16.502,46.886,16.502,86.623   l0.311,12.177L549.217,63.796c-16.928,0-31.512-3.152-43.309-8.254c-15.662-6.773-20.72-11.285-33.51-18.053   c-10.823,5.727-20.944,14.208-33.319,20.349c-12.505,6.206-23.592,12.428-37.589,17.13c-27.483,9.234-53.626,18.293-90.094,18.293   h-6.313c-30.811,0-70.425-8.151-91.749-17.69c-13.496-6.036-25.371-9.865-37.665-17.054c-11.185-6.54-24.25-15.475-34.744-21.028   c-5.935,3.141-8.442,6.382-15.433,9.823c-6.063,2.985-11.185,5.813-17.51,8.797C100.45,59.662,74.421,63.796,63.055,63.796z"/>
	<path fill-rule="evenodd" clip-rule="evenodd" fill="#008234" d="M160.918,299.511v110.491   c10.632-2.478,39.832-21.026,48.423-27.342c9.949-7.315,22.081-36.59,22.081-53.685v-13.68c0-9.017-1.646-17.296-4.348-24.064   c-1.84-4.611-8.098-14.871-13.542-14.871h-3.157C201.908,276.36,160.918,295.167,160.918,299.511z"/>
	<path fill-rule="evenodd" clip-rule="evenodd" fill="#008234" d="M333.006,273.236l-11.762-42.468l-17.702,8.795   c0,9.193,7.205,26.558,10.071,35.177c1.508,4.536,10.975,33.818,10.975,35.326c0,1.063-4.159,12.761-5.023,13.918   c-2.953,3.957-6.78,6.622-12.865,7.128l-0.234,9.506l1.286,9.436c31.188-7.265,31.298-30.585,38.725-60.191   c3.386-13.496,5.829-26.576,9.26-40.199c2.4-9.533,8.84-31.717,8.84-40.618c-18.2,9.63-16.951,1.343-21.649,25.704   C341.606,241.59,336.097,270.972,333.006,273.236z"/>
	<path fill-rule="evenodd" clip-rule="evenodd" fill="#008234" d="M429.082,167.097l-0.217,81.613c0,8.56-1.902,14.54-10.222,14.768   l-2.406,22.063c21.156-0.472,30.517-18.576,30.517-41.04l-0.146-85.55L429.082,167.097z"/>
	<path fill-rule="evenodd" clip-rule="evenodd" fill="#FAF201" d="M179.86,308.981v69.451c19.669-5.251,31.569-19.029,31.569-44.196   v-14.732c0-7.129-2.048-18.941-8.418-18.941C193.754,300.563,187.205,307.27,179.86,308.981z"/>
	<path fill-rule="evenodd" clip-rule="evenodd" fill="#008234" d="M241.033,339.796l-0.14,23.905   c3.752-0.875,17.889-7.01,17.889-10.523l-0.26-21.599L241.033,339.796z"/>
	<path fill-rule="evenodd" clip-rule="evenodd" fill="#008234" d="M464.968,219.896l-0.325,23.561   c3.667-0.305,17.89-7.146,17.89-10.523l-0.35-21.738L464.968,219.896z"/>
	<polygon fill-rule="evenodd" clip-rule="evenodd" fill="#008234" points="428.987,153.29 429.075,169.17 446.617,166.712    446.632,148.838  "/>
</g>
</svg>