<svg xmlns:svg="http://www.w3.org/2000/svg" xmlns="http://www.w3.org/2000/svg" version="1.0" width="1000" height="500" id="svg2">
  <defs id="defs4"/>
  <g transform="translate(0,-552.36218)" style="opacity:1;display:inline" id="layer1">
    <g id="g8267">
      <g transform="translate(117.14286,771.42859)" id="g2228">
        <path d="M -117.14286,-219.06641 L 882.85711,-219.06641 L 882.85711,280.93359 L -117.14286,280.93359 L -117.14286,-219.06641 z " style="fill:#ff0000;fill-opacity:1;fill-rule:nonzero;stroke:none;stroke-width:0.25;stroke-linecap:square;stroke-linejoin:miter;stroke-miterlimit:4;stroke-opacity:1" id="rect2221"/>
        <path d="M -117.14286,-219.06641 L 882.85711,30.93359 L -117.14286,280.93359 L -117.14286,-219.06641 z " style="fill:#ffd700;fill-opacity:1;fill-rule:nonzero;stroke:none;stroke-width:0.25;stroke-linecap:square;stroke-linejoin:miter;stroke-miterlimit:4;stroke-opacity:1" id="path2226"/>
      </g>
      <g transform="translate(-4.2737148,-17.185844)" id="g4215">
        <g transform="matrix(-2.9263971e-5,0,0,3.2216332e-5,611.02953,418.80465)" id="g5779">
          <g id="g5781">
            <path d="M 8939290,10635200 C 8939290,10635200 8711920,11388030 8550240,12156030 C 8388550,12923990 8327920,12858320 8358240,13464600 C 8358240,13464600 8070260,13939540 10369140,13939540 C 12445750,13939540 12157730,13464600 12157730,13464600 C 12157730,13464600 12071840,12428840 11940470,12267180 C 11940470,12267180 11996040,11231380 11647400,10908050 C 11647400,10908050 11612080,10271420 11233120,10049110 C 11233120,10049110 11167450,9503420 10626810,9442790 C 10626810,9442790 10399450,9185130 10020530,9185130 C 10020530,9185130 9348550,9377130 9222220,9503420 C 9222220,9503420 8550240,10079420 8423940,10301730 C 8423940,10301730 7974240,10397720 8135920,10721090 C 8292570,11039380 8838220,10847420 8802870,10655420 C 8802870,10655420 9313160,10589720 9540550,10397720 C 9540550,10397720 9540550,10205750 9313160,10175400 C 9313160,10175400 9540550,10271420 9540550,10397720 C 9540550,10529090 9540550,10397720 9540550,10397720 C 9540550,10397720 10050810,10721090 10434810,10463420 C 10434810,10463420 10035680,10736270 9540550,10397720 C 9651710,10478550 9540550,10397720 9540550,10397720 C 9540550,10397720 9181810,10635200 8939290,10635200 z " style="fill:#ff0000;fill-opacity:1;stroke:#1f1a17;stroke-width:33020" id="path5783"/>
            <g id="g5785">
              <path d="M 8469400,10887800 C 8469400,10887800 8631050,10832220 8646220,10726110" style="fill:none;stroke:#1f1a17;stroke-width:7620" id="path5787"/>
              <path d="M 8348150,10877700 C 8348150,10877700 8479490,10812030 8509830,10751400" style="fill:none;stroke:#1f1a17;stroke-width:7620" id="path5789"/>
              <path d="M 8211720,10806900 C 8211720,10806900 8272350,10811950 8332980,10766500" style="fill:none;stroke:#1f1a17;stroke-width:7620" id="path5791"/>
              <path d="M 8140980,10721100 C 8140980,10721100 8196550,10751410 8262260,10695840" style="fill:none;stroke:#1f1a17;stroke-width:7620" id="path5793"/>
              <path d="M 8782640,10569500 C 8782640,10569500 8828140,10614950 8914030,10630130" style="fill:none;stroke:#1f1a17;stroke-width:7620" id="path5795"/>
              <path d="M 8853400,10503800 C 8853400,10503800 8979690,10604870 9106030,10599810" style="fill:none;stroke:#1f1a17;stroke-width:7620" id="path5797"/>
              <path d="M 9035270,10463400 C 9035270,10463400 9131290,10549290 9252530,10549290" style="fill:none;stroke:#1f1a17;stroke-width:7620" id="path5799"/>
              <path d="M 9459710,10104600 C 9459710,10104600 9404140,10185450 9474850,10256170" style="fill:none;stroke:#1f1a17;stroke-width:7620" id="path5801"/>
              <path d="M 9540550,10185500 C 9540550,10185500 9500120,10337060 9545570,10392630" style="fill:none;stroke:#1f1a17;stroke-width:7620" id="path5803"/>
              <path d="M 9636530,10261300 C 9636530,10261300 9570860,10377540 9636530,10448260" style="fill:none;stroke:#1f1a17;stroke-width:7620" id="path5805"/>
              <path d="M 9737570,10337100 C 9737570,10337100 9697160,10433120 9788100,10503840" style="fill:none;stroke:#1f1a17;stroke-width:7620" id="path5807"/>
              <path d="M 8428990,10286500 C 8428990,10286500 8540160,10246110 8605810,10281460" style="fill:none;stroke:#1f1a17;stroke-width:7620" id="path5809"/>
              <path d="M 8514880,10185500 C 8514880,10185500 8620960,10150110 8701830,10185500" style="fill:none;stroke:#1f1a17;stroke-width:7620" id="path5811"/>
              <path d="M 8636130,10054100 C 8636130,10054100 8752330,10008600 8853400,10038920" style="fill:none;stroke:#1f1a17;stroke-width:7620" id="path5813"/>
              <path d="M 8782640,9902550 C 8782640,9902550 8883710,9862120 8964550,9927820" style="fill:none;stroke:#1f1a17;stroke-width:7620" id="path5815"/>
              <path d="M 9803270,9255800 C 9803270,9255800 9980100,9225530 10081160,9306340" style="fill:none;stroke:#1f1a17;stroke-width:7620" id="path5817"/>
              <path d="M 9621360,9321510 C 9621360,9321510 9884120,9276050 9985180,9331600" style="fill:none;stroke:#1f1a17;stroke-width:7620" id="path5819"/>
              <path d="M 9464720,9372010 C 9464720,9372010 9793140,9321510 9884120,9402360" style="fill:none;stroke:#1f1a17;stroke-width:7620" id="path5821"/>
              <path d="M 9363690,9417490 C 9363690,9417490 9681990,9372010 9762830,9457900" style="fill:none;stroke:#1f1a17;stroke-width:7620" id="path5823"/>
              <path d="M 9297990,9457900 C 9297990,9457900 9560740,9432660 9641580,9513510" style="fill:none;stroke:#1f1a17;stroke-width:7620" id="path5825"/>
              <path d="M 9222220,9523600 C 9222220,9523600 9434400,9483160 9484940,9558960" style="fill:none;stroke:#1f1a17;stroke-width:7620" id="path5827"/>
              <path d="M 9131290,9584230 C 9131290,9584230 9308120,9553920 9363690,9624660" style="fill:none;stroke:#1f1a17;stroke-width:7620" id="path5829"/>
              <path d="M 9060530,9654970 C 9060530,9654970 9212100,9624660 9277810,9680250" style="fill:none;stroke:#1f1a17;stroke-width:7620" id="path5831"/>
              <path d="M 8989810,9720640 C 8989810,9720640 9141380,9685290 9181810,9735820" style="fill:none;stroke:#1f1a17;stroke-width:7620" id="path5833"/>
              <path d="M 8893810,9801490 C 8893810,9801490 8989810,9761050 9085810,9816660" style="fill:none;stroke:#1f1a17;stroke-width:7620" id="path5835"/>
              <path d="M 10187200,9200230 C 10187200,9200230 10273130,9250790 10263000,9346770" style="fill:none;stroke:#1f1a17;stroke-width:7620" id="path5837"/>
              <path d="M 10359100,9255800 C 10359100,9255800 10465170,9372010 10465170,9432660" style="fill:none;stroke:#1f1a17;stroke-width:7620" id="path5839"/>
              <path d="M 10606600,9432660 C 10606600,9432660 10657120,9498340 10662210,9599400" style="fill:none;stroke:#1f1a17;stroke-width:7620" id="path5841"/>
              <path d="M 10768300,9473070 C 10768300,9473070 10834020,9654970 10783480,9750990" style="fill:none;stroke:#1f1a17;stroke-width:7620" id="path5843"/>
              <path d="M 10904700,9538770 C 10904700,9538770 10945130,9710550 10909740,9801490" style="fill:none;stroke:#1f1a17;stroke-width:7620" id="path5845"/>
              <path d="M 11061300,9680250 C 11061300,9680250 11126970,9937920 11015820,10170320" style="fill:none;stroke:#1f1a17;stroke-width:7620" id="path5847"/>
              <path d="M 11111900,10377500 C 11192750,10205720 11197790,9912650 11197790,9912650" style="fill:none;stroke:#1f1a17;stroke-width:7620" id="path5849"/>
              <path d="M 11303900,10109700 C 11303900,10109700 11303900,10488650 11167470,10680650" style="fill:none;stroke:#1f1a17;stroke-width:7620" id="path5851"/>
              <path d="M 11425100,10225900 C 11425100,10225900 11510990,10589680 11273510,10998950" style="fill:none;stroke:#1f1a17;stroke-width:7620" id="path5853"/>
              <path d="M 11581800,10559400 C 11581800,10559400 11556540,10968660 11303910,11251600" style="fill:none;stroke:#1f1a17;stroke-width:7620" id="path5855"/>
              <path d="M 11662600,10908000 C 11662600,10908000 11384710,11579940 11263460,11726490" style="fill:none;stroke:#1f1a17;stroke-width:7620" id="path5857"/>
              <path d="M 11733300,11044400 C 11733300,11044400 11581750,11635500 11278600,11938660" style="fill:none;stroke:#1f1a17;stroke-width:7620" id="path5859"/>
              <path d="M 11824300,11206100 C 11824300,11206100 11718220,11706300 11399890,11994280" style="fill:none;stroke:#1f1a17;stroke-width:7620" id="path5861"/>
              <path d="M 11900100,11519400 C 11900100,11519400 11748510,11918540 11526230,12105460" style="fill:none;stroke:#1f1a17;stroke-width:7620" id="path5863"/>
              <path d="M 11935400,11767000 C 11935400,11767000 11920260,12029710 11763620,12145910" style="fill:none;stroke:#1f1a17;stroke-width:7620" id="path5865"/>
              <path d="M 10672300,11741700 C 10672300,11741700 10399450,11938720 10207450,11979150" style="fill:none;stroke:#1f1a17;stroke-width:7620" id="path5867"/>
              <path d="M 10273200,11857800 C 10273200,11857800 10035720,11989210 9914460,12009390" style="fill:none;stroke:#1f1a17;stroke-width:7620" id="path5869"/>
              <path d="M 10768300,11812400 C 10768300,11812400 10642020,11938700 10450020,11989260" style="fill:none;stroke:#1f1a17;stroke-width:7620" id="path5871"/>
              <path d="M 10879400,11857800 C 10879400,11857800 10758150,11953820 10662170,11994220" style="fill:none;stroke:#1f1a17;stroke-width:7620" id="path5873"/>
              <path d="M 10990600,11898300 C 10990600,11898300 10904710,11989270 10823860,12009450" style="fill:none;stroke:#1f1a17;stroke-width:7620" id="path5875"/>
            </g>
            <g id="g5877">
              <line style="fill:none;stroke:#1f1a17;stroke-width:7620" y2="9993490" x2="10985600" y1="9831800" x1="11167500" id="line5879"/>
              <line style="fill:none;stroke:#1f1a17;stroke-width:7620" y2="9735820" x2="10889600" y1="9649900" x1="11031000" id="line5881"/>
              <line style="fill:none;stroke:#1f1a17;stroke-width:7620" y2="9816660" x2="10904700" y1="9705510" x1="11096700" id="line5883"/>
              <path d="M 11127000,9761050 C 11127000,9761050 10985540,9887380 10929960,9902550" style="fill:none;stroke:#1f1a17;stroke-width:7620" id="path5885"/>
              <path d="M 11207900,9927820 C 11207900,9927820 11041160,10104640 11005810,10104640" style="fill:none;stroke:#1f1a17;stroke-width:7620" id="path5887"/>
              <line style="fill:none;stroke:#1f1a17;stroke-width:7620" y2="10246100" x2="11005800" y1="10054100" x1="11233100" id="line5889"/>
              <path d="M 11303900,10109700 C 11303900,10109700 11121990,10296650 11086640,10326970" style="fill:none;stroke:#1f1a17;stroke-width:7620" id="path5891"/>
              <line style="fill:none;stroke:#1f1a17;stroke-width:7620" y2="10463400" x2="11101800" y1="10175400" x1="11384700" id="line5893"/>
              <line style="fill:none;stroke:#1f1a17;stroke-width:7620" y2="10584600" x2="11137100" y1="10281500" x1="11455400" id="line5895"/>
              <line style="fill:none;stroke:#1f1a17;stroke-width:7620" y2="10721100" x2="11167500" y1="10392600" x1="11521100" id="line5897"/>
              <line style="fill:none;stroke:#1f1a17;stroke-width:7620" y2="12196400" x2="11824300" y1="12105400" x1="11940500" id="line5899"/>
              <line style="fill:none;stroke:#1f1a17;stroke-width:7620" y2="12161000" x2="11703000" y1="12004400" x1="11940500" id="line5901"/>
              <path d="M 11935400,11868000 C 11935400,11868000 11606970,12140850 11566580,12140850" style="fill:none;stroke:#1f1a17;stroke-width:7620" id="path5903"/>
              <path d="M 11935400,11731600 C 11935400,11731600 11526170,12085280 11445320,12090330" style="fill:none;stroke:#1f1a17;stroke-width:7620" id="path5905"/>
              <path d="M 11920300,11605300 C 11920300,11605300 11591880,11923600 11440320,12004440" style="fill:none;stroke:#1f1a17;stroke-width:7620" id="path5907"/>
              <path d="M 11884900,11478900 C 11884900,11478900 11430190,11918470 11359440,11923520" style="fill:none;stroke:#1f1a17;stroke-width:7620" id="path5909"/>
              <path d="M 11869800,11347600 C 11869800,11347600 11389820,11797270 11349380,11797270" style="fill:none;stroke:#1f1a17;stroke-width:7620" id="path5911"/>
              <line style="fill:none;stroke:#1f1a17;stroke-width:7620" y2="11676000" x2="11303900" y1="11261700" x1="11829300" id="line5913"/>
              <path d="M 11804100,11165700 C 11804100,11165700 11495860,11428410 11359440,11519380" style="fill:none;stroke:#1f1a17;stroke-width:7620" id="path5915"/>
              <path d="M 11758600,11069700 C 11758600,11069700 11480710,11302140 11384690,11372860" style="fill:none;stroke:#1f1a17;stroke-width:7620" id="path5917"/>
              <path d="M 11677800,10968600 C 11677800,10968600 11485800,11155560 11344330,11246500" style="fill:none;stroke:#1f1a17;stroke-width:7620" id="path5919"/>
              <path d="M 11647400,10847400 C 11647400,10847400 11430170,11069680 11273530,11155600" style="fill:none;stroke:#1f1a17;stroke-width:7620" id="path5921"/>
              <path d="M 11622200,10726100 C 11622200,10726100 11374630,11003990 11152310,11100010" style="fill:none;stroke:#1f1a17;stroke-width:7620" id="path5923"/>
              <path d="M 11591900,10630100 C 11591900,10630100 11344320,10872620 11212940,10918080" style="fill:none;stroke:#1f1a17;stroke-width:7620" id="path5925"/>
              <path d="M 11556500,10503800 C 11556500,10503800 11359410,10710980 11212890,10806950" style="fill:none;stroke:#1f1a17;stroke-width:7620" id="path5927"/>
            </g>
            <g id="g5929">
              <line style="fill:none;stroke:#1f1a17;stroke-width:7620" y2="10711000" x2="9100980" y1="10766500" x1="8914030" id="line5931"/>
              <line style="fill:none;stroke:#1f1a17;stroke-width:7620" y2="10806900" x2="9126240" y1="10887800" x1="8878660" id="line5933"/>
              <line style="fill:none;stroke:#1f1a17;stroke-width:7620" y2="10933300" x2="9085810" y1="10999000" x1="8843270" id="line5935"/>
              <line style="fill:none;stroke:#1f1a17;stroke-width:7620" y2="11059600" x2="9030220" y1="11155600" x1="8787730" id="line5937"/>
              <line style="fill:none;stroke:#1f1a17;stroke-width:7620" y2="11180800" x2="9020090" y1="11261700" x1="8772550" id="line5939"/>
              <line style="fill:none;stroke:#1f1a17;stroke-width:7620" y2="11292000" x2="9004960" y1="11403100" x1="8732110" id="line5941"/>
              <line style="fill:none;stroke:#1f1a17;stroke-width:7620" y2="11428400" x2="8949380" y1="11524400" x1="8701830" id="line5943"/>
              <line style="fill:none;stroke:#1f1a17;stroke-width:7620" y2="11575000" x2="8898850" y1="11660800" x1="8671490" id="line5945"/>
              <line style="fill:none;stroke:#1f1a17;stroke-width:7620" y2="11706300" x2="8853400" y1="11812400" x1="8631050" id="line5947"/>
              <line style="fill:none;stroke:#1f1a17;stroke-width:7620" y2="11822500" x2="8858440" y1="11918500" x1="8605810" id="line5949"/>
              <line style="fill:none;stroke:#1f1a17;stroke-width:7620" y2="11933600" x2="8843270" y1="12019600" x1="8590640" id="line5951"/>
              <line style="fill:none;stroke:#1f1a17;stroke-width:7620" y2="11994300" x2="8908940" y1="12100400" x1="8565420" id="line5953"/>
            </g>
            <g id="g5955">
              <path d="M 9419270,10584600 C 9419270,10584600 9580960,10478490 9601140,10438100" style="fill:none;stroke:#1f1a17;stroke-width:7620" id="path5957"/>
              <path d="M 9489990,10670500 C 9489990,10670500 9681990,10534090 9707290,10493680" style="fill:none;stroke:#1f1a17;stroke-width:7620" id="path5959"/>
              <path d="M 9545570,10756400 C 9545570,10756400 9772960,10625020 9833580,10544220" style="fill:none;stroke:#1f1a17;stroke-width:7620" id="path5961"/>
              <path d="M 9747690,10806900 C 9747690,10806900 9939660,10614900 9954830,10569450" style="fill:none;stroke:#1f1a17;stroke-width:7620" id="path5963"/>
              <path d="M 9863900,10852400 C 9863900,10852400 10076080,10655350 10096340,10574500" style="fill:none;stroke:#1f1a17;stroke-width:7620" id="path5965"/>
              <path d="M 10106400,10806900 C 10106400,10806900 10207430,10680600 10242790,10549230" style="fill:none;stroke:#1f1a17;stroke-width:7620" id="path5967"/>
              <path d="M 10283300,10751400 C 10283300,10751400 10369190,10645290 10379280,10508880" style="fill:none;stroke:#1f1a17;stroke-width:7620" id="path5969"/>
            </g>
          </g>
          <line style="fill:none;stroke:#1f1a17;stroke-width:7620" y2="13616200" x2="8575510" y1="13186700" x1="8893810" id="line5971"/>
          <path d="M 10834000,13793000 C 10834000,13793000 11096720,13899110 11334200,13873840" style="fill:none;stroke:#1f1a17;stroke-width:7620" id="path5973"/>
          <path d="M 10945100,13732400 C 10945100,13732400 11288670,13883950 11677710,13833430" style="fill:none;stroke:#1f1a17;stroke-width:7620" id="path5975"/>
          <path d="M 11329100,13722200 C 11329100,13722200 11637300,13888970 12046540,13661570" style="fill:none;stroke:#1f1a17;stroke-width:7620" id="path5977"/>
          <path d="M 11521100,13641400 C 11521100,13641400 11910150,13737420 12087010,13606030" style="fill:none;stroke:#1f1a17;stroke-width:7620" id="path5979"/>
          <line style="fill:none;stroke:#1f1a17;stroke-width:7620" y2="13889000" x2="10960300" y1="13227100" x1="11521100" id="line5981"/>
          <line style="fill:none;stroke:#1f1a17;stroke-width:7620" y2="13843500" x2="11137100" y1="13257400" x1="11607000" id="line5983"/>
          <line style="fill:none;stroke:#1f1a17;stroke-width:7620" y2="13803100" x2="11308900" y1="13302900" x1="11728300" id="line5985"/>
          <line style="fill:none;stroke:#1f1a17;stroke-width:7620" y2="13818300" x2="11460500" y1="13358500" x1="11829300" id="line5987"/>
          <line style="fill:none;stroke:#1f1a17;stroke-width:7620" y2="13762700" x2="11728300" y1="13419100" x1="11940500" id="line5989"/>
          <line style="fill:none;stroke:#1f1a17;stroke-width:7620" y2="13681800" x2="11925300" y1="13464600" x1="12051600" id="line5991"/>
          <path d="M 8479490,13661600 C 8504750,13600980 8610870,13565620 8666440,13540360" style="fill:none;stroke:#1f1a17;stroke-width:7620" id="path5993"/>
          <path d="M 8600770,13727300 C 8600770,13707070 8651310,13676760 8666440,13671710" style="fill:none;stroke:#1f1a17;stroke-width:7620" id="path5995"/>
          <path d="M 12112300,13530200 C 12117340,13580730 12076930,13605990 12041580,13626220" style="fill:none;stroke:#1f1a17;stroke-width:7620" id="path5997"/>
        </g>
        <path d="M 304.70162,831.71848 L 304.70162,922.87908 C 309.03888,925.3832 319.7799,925.42857 324.11366,922.92647 L 324.11366,831.71855 C 324.11366,831.71855 304.70162,831.34829 304.70162,831.71855 L 304.70162,831.71848 z " style="fill:#be771b;fill-opacity:1;stroke:#1f1a17;stroke-width:0.21373136" id="path5999"/>
        <g transform="matrix(-2.9263971e-5,0,0,3.2216332e-5,611.02953,418.80465)" id="g6001">
          <g id="g6003">
            <g id="g6005">
              <path d="M 8348150,13535300 C 8413810,13247280 9484940,12944150 10379230,12944150 C 11288710,12944150 12157730,13439280 12172860,13520110 C 12182990,13565600 12092060,12443950 11980900,12282260 C 11900060,12166060 10818810,12009410 10823860,12009410 C 10631860,12009410 10672300,11994240 10288290,11989230 C 9621360,11979100 8686660,12211510 8605810,12241820 C 8524980,12277210 8398680,12171100 8343070,12807730 C 8272350,13585820 8348150,13535300 8348150,13535300 z " style="fill:#ff0000;fill-opacity:1;stroke:#1f1a17;stroke-width:33024.2734375;stroke-miterlimit:4;stroke-dasharray:none" id="path6007"/>
              <line style="fill:none;stroke:#1f1a17;stroke-width:7620" y2="12393400" x2="11470600" y1="12282300" x1="11980900" id="line6009"/>
              <line style="fill:none;stroke:#1f1a17;stroke-width:7620" y2="12499500" x2="11591900" y1="12373200" x1="12021300" id="line6011"/>
              <line style="fill:none;stroke:#1f1a17;stroke-width:7620" y2="12641000" x2="11576700" y1="12499500" x1="12061700" id="line6013"/>
              <line style="fill:none;stroke:#1f1a17;stroke-width:7620" y2="12827900" x2="11495800" y1="12620800" x1="12076900" id="line6015"/>
              <line style="fill:none;stroke:#1f1a17;stroke-width:7620" y2="12903700" x2="11672700" y1="12762300" x1="12107200" id="line6017"/>
              <line style="fill:none;stroke:#1f1a17;stroke-width:7620" y2="13090700" x2="11662600" y1="12903700" x1="12132500" id="line6019"/>
              <line style="fill:none;stroke:#1f1a17;stroke-width:7620" y2="13242300" x2="11748500" y1="13065400" x1="12157700" id="line6021"/>
              <line style="fill:none;stroke:#1f1a17;stroke-width:7620" y2="13338300" x2="11895000" y1="13232200" x1="12172900" id="line6023"/>
              <line style="fill:none;stroke:#1f1a17;stroke-width:7620" y2="13434300" x2="12071800" y1="13383700" x1="12183000" id="line6025"/>
              <line style="fill:none;stroke:#1f1a17;stroke-width:7620" y2="12297400" x2="10263000" y1="12140800" x1="10530800" id="line6027"/>
              <line style="fill:none;stroke:#1f1a17;stroke-width:7620" y2="12307600" x2="10359100" y1="12196400" x1="10586400" id="line6029"/>
              <line style="fill:none;stroke:#1f1a17;stroke-width:7620" y2="12348000" x2="10450000" y1="12282300" x1="10576300" id="line6031"/>
              <line style="fill:none;stroke:#1f1a17;stroke-width:7620" y2="12378300" x2="10520700" y1="12297400" x1="10657100" id="line6033"/>
              <line style="fill:none;stroke:#1f1a17;stroke-width:7620" y2="12393400" x2="10642000" y1="12307600" x1="10783500" id="line6035"/>
              <line style="fill:none;stroke:#1f1a17;stroke-width:7620" y2="12403500" x2="10753100" y1="12332800" x1="10879400" id="line6037"/>
              <line style="fill:none;stroke:#1f1a17;stroke-width:7620" y2="12393400" x2="10904700" y1="12348000" x1="11000700" id="line6039"/>
              <line style="fill:none;stroke:#1f1a17;stroke-width:7620" y2="12403500" x2="11031000" y1="12363100" x1="11096700" id="line6041"/>
              <line style="fill:none;stroke:#1f1a17;stroke-width:7620" y2="12297400" x2="8727070" y1="12252000" x1="8580550" id="line6043"/>
              <line style="fill:none;stroke:#1f1a17;stroke-width:7620" y2="12363100" x2="8671490" y1="12297400" x1="8469400" id="line6045"/>
              <line style="fill:none;stroke:#1f1a17;stroke-width:7620" y2="12459100" x2="8636130" y1="12373200" x1="8428990" id="line6047"/>
              <line style="fill:none;stroke:#1f1a17;stroke-width:7620" y2="12524800" x2="8555290" y1="12449000" x1="8403730" id="line6049"/>
              <line style="fill:none;stroke:#1f1a17;stroke-width:7620" y2="12595500" x2="8514880" y1="12524800" x1="8383510" id="line6051"/>
              <line style="fill:none;stroke:#1f1a17;stroke-width:7620" y2="12656200" x2="8479490" y1="12610700" x1="8363290" id="line6053"/>
              <line style="fill:none;stroke:#1f1a17;stroke-width:7620" y2="12747100" x2="8454220" y1="12696600" x1="8348150" id="line6055"/>
              <line style="fill:none;stroke:#1f1a17;stroke-width:7620" y2="12848200" x2="8439090" y1="12807800" x1="8343070" id="line6057"/>
              <line style="fill:none;stroke:#1f1a17;stroke-width:7620" y2="12954300" x2="8428990" y1="12898700" x1="8343070" id="line6059"/>
              <line style="fill:none;stroke:#1f1a17;stroke-width:7620" y2="13035100" x2="8413810" y1="12984600" x1="8332980" id="line6061"/>
            </g>
            <g id="g6063">
              <line style="fill:none;stroke:#1f1a17;stroke-width:7620" y2="12388400" x2="12021300" y1="12277200" x1="11677800" id="line6065"/>
              <line style="fill:none;stroke:#1f1a17;stroke-width:7620" y2="12504600" x2="12061700" y1="12317600" x1="11581800" id="line6067"/>
              <line style="fill:none;stroke:#1f1a17;stroke-width:7620" y2="12600600" x2="12071800" y1="12418700" x1="11566600" id="line6069"/>
              <line style="fill:none;stroke:#1f1a17;stroke-width:7620" y2="12721900" x2="12092100" y1="12514700" x1="11612100" id="line6071"/>
              <line style="fill:none;stroke:#1f1a17;stroke-width:7620" y2="12868400" x2="12132500" y1="12656200" x1="11612100" id="line6073"/>
              <line style="fill:none;stroke:#1f1a17;stroke-width:7620" y2="12994700" x2="12142600" y1="12777400" x1="11647400" id="line6075"/>
              <line style="fill:none;stroke:#1f1a17;stroke-width:7620" y2="13110900" x2="12147600" y1="12944200" x1="11743400" id="line6077"/>
              <line style="fill:none;stroke:#1f1a17;stroke-width:7620" y2="13247300" x2="12157700" y1="13019900" x1="11687800" id="line6079"/>
              <line style="fill:none;stroke:#1f1a17;stroke-width:7620" y2="13368600" x2="12162800" y1="13161400" x1="11748500" id="line6081"/>
            </g>
          </g>
          <path d="M 10894600,13075500 C 10894600,13075500 11425100,13323070 11622150,13328120" style="fill:none;stroke:#1f1a17;stroke-width:7620" id="path6083"/>
          <line style="fill:none;stroke:#1f1a17;stroke-width:7620" y2="12979500" x2="9863900" y1="13343300" x1="9474850" id="line6085"/>
          <line style="fill:none;stroke:#1f1a17;stroke-width:7620" y2="13338300" x2="9313160" y1="12999700" x1="9666850" id="line6087"/>
          <line style="fill:none;stroke:#1f1a17;stroke-width:7620" y2="13398900" x2="9126240" y1="13050300" x1="9419270" id="line6089"/>
          <line style="fill:none;stroke:#1f1a17;stroke-width:7620" y2="13520100" x2="8893810" y1="13095700" x1="9222220" id="line6091"/>
          <line style="fill:none;stroke:#1f1a17;stroke-width:7620" y2="13585800" x2="8732110" y1="13136100" x1="9050440" id="line6093"/>
          <line style="fill:none;stroke:#1f1a17;stroke-width:7620" y2="13505000" x2="8509830" y1="13272600" x1="8671490" id="line6095"/>
          <line style="fill:none;stroke:#1f1a17;stroke-width:7620" y2="13019900" x2="10909800" y1="13191700" x1="10657100" id="line6097"/>
          <line style="fill:none;stroke:#1f1a17;stroke-width:7620" y2="13040200" x2="11026000" y1="13267500" x1="10662200" id="line6099"/>
          <line style="fill:none;stroke:#1f1a17;stroke-width:7620" y2="13075500" x2="11157300" y1="13368600" x1="10672300" id="line6101"/>
          <line style="fill:none;stroke:#1f1a17;stroke-width:7620" y2="13121000" x2="11273500" y1="13464600" x1="10687500" id="line6103"/>
          <path d="M 10743000,13272600 C 10743000,13272600 11389760,13585880 11935410,13520170" style="fill:none;stroke:#1f1a17;stroke-width:7620" id="path6105"/>
          <path d="M 10753100,13171500 C 10753100,13171500 11293710,13474650 11955600,13464520" style="fill:none;stroke:#1f1a17;stroke-width:7620" id="path6107"/>
          <path d="M 10743000,13075500 C 10743000,13075500 11303870,13378650 11718180,13398870" style="fill:none;stroke:#1f1a17;stroke-width:7620" id="path6109"/>
          <line style="fill:none;stroke:#1f1a17;stroke-width:7620" y2="12969400" x2="10055900" y1="13393800" x1="9596140" id="line6111"/>
          <path d="M 10066000,13121000 C 10066000,13121000 10414630,13050250 10591460,13136140" style="fill:none;stroke:#1f1a17;stroke-width:7620" id="path6113"/>
          <path d="M 8403730,13505000 C 8403730,13505000 8908940,12979540 10399450,12979540 C 10606600,12979540 11445340,13040150 12147640,13545410" style="fill:none;stroke:#1f1a17;stroke-width:12700" id="path6115"/>
          <path d="M 10055900,13075500 C 10055900,13075500 10242810,12979520 10591450,13065410" style="fill:none;stroke:#1f1a17;stroke-width:7620" id="path6117"/>
          <path d="M 8459310,13520100 C 8459310,13520100 9100980,13019900 10369140,13019900 C 11238170,13019900 11895010,13434220 12117290,13575680" style="fill:none;stroke:#1f1a17;stroke-width:7620" id="path6119"/>
          <path d="M 8843270,13358500 C 8843270,13358500 9697160,13019980 10379230,13075570 C 11056300,13131140 11500920,13257480 11950560,13545460" style="fill:none;stroke:#1f1a17;stroke-width:7620" id="path6121"/>
          <path d="M 8408770,13606000 C 8413810,13540340 8474440,13510020 8524980,13489800 C 8620960,13454450 8716980,13419090 8823090,13434230" style="fill:none;stroke:#1f1a17;stroke-width:7620" id="path6123"/>
          <path d="M 11394800,13171500 C 11374580,13196760 11344260,13201800 11324040,13222020 C 11243190,13328100 11177530,13429150 11081510,13515050" style="fill:none;stroke:#1f1a17;stroke-width:7620" id="path6125"/>
        </g>
      </g>
    </g>
  </g>
</svg>