<svg xmlns:dc="http://purl.org/dc/elements/1.1/" xmlns:cc="http://creativecommons.org/ns#" xmlns:rdf="http://www.w3.org/1999/02/22-rdf-syntax-ns#" xmlns:svg="http://www.w3.org/2000/svg" xmlns="http://www.w3.org/2000/svg" xmlns:sodipodi="http://sodipodi.sourceforge.net/DTD/sodipodi-0.dtd" xmlns:inkscape="http://www.inkscape.org/namespaces/inkscape" version="1.0" id="Layer_1" x="0px" y="0px" viewBox="0 0 1774 2186.175" xml:space="preserve" sodipodi:docname="tolima-logo-escudo.svg" width="1774" height="2186.175" inkscape:version="0.92.2 (5c3e80d, 2017-08-06)"><metadata id="metadata35"><rdf:RDF><cc:Work rdf:about=""><dc:format>image/svg+xml</dc:format><dc:type rdf:resource="http://purl.org/dc/dcmitype/StillImage"/><dc:title/></cc:Work></rdf:RDF></metadata><defs id="defs33"/><sodipodi:namedview pagecolor="#ffffff" bordercolor="#666666" borderopacity="1" objecttolerance="10" gridtolerance="10" guidetolerance="10" inkscape:pageopacity="0" inkscape:pageshadow="2" inkscape:window-width="1600" inkscape:window-height="837" id="namedview31" showgrid="false" fit-margin-top="0" fit-margin-left="0" fit-margin-right="0" fit-margin-bottom="0" inkscape:zoom="0.07449495" inkscape:cx="-12.837405" inkscape:cy="1534.0379" inkscape:window-x="-8" inkscape:window-y="-8" inkscape:window-maximized="1" inkscape:current-layer="XMLID_48_"/><style type="text/css" id="style2">
	.st0{fill:#010000;}
	.st1{fill:#8C2F30;}
	.st2{fill:#373435;}
	.st3{fill:#8C3330;}
	.st4{fill:#373434;}
	.st5{fill:#060301;}
	.st6{fill:#010101;}
	.st7{fill:#E7BD2B;}
	.st8{fill:#020202;}
	.st9{fill:#E7BE2B;}
	.st10{fill:#8D3031;}
	.st11{fill:#733529;}
</style><g id="XMLID_1_" transform="translate(206,586.775)"><g id="XMLID_48_"><path id="XMLID_80_" class="st1" d="m 1568,1191 c -4.9,0.5 -3.8,4.8 -4.5,7.7 -6,24.2 -15.8,46.6 -30.5,66.9 -8.4,11.6 -18.4,22 -27.9,32.7 -58.3,65.4 -116.7,130.8 -175.1,196.1 -10.9,12.2 -21.9,24.2 -32.5,36.6 -17.7,20.8 -40.1,34.9 -64.9,45.4 -27.5,11.6 -56.5,17.7 -86.1,21 -16.6,1.9 -33.2,1.9 -49.9,1.9 -278.6,0 -557.2,-0.1 -835.8,0.1 -38.3,0 -75.8,-4.6 -112.2,-16.6 -26.6,-8.7 -51.3,-21.2 -71.4,-40.9 -13.3,-13 -25.3,-27.4 -37.7,-41.3 -35.3,-39.5 -70.5,-79.1 -105.7,-118.7 -30.4,-34.1 -61,-68 -91.2,-102.1 -25,-28.2 -39.9,-61.2 -44.8,-98.6 -0.5,-3.6 -0.9,-7.3 -3.7,-10.1 0,-10.7 0,-21.3 0,-32 0.3,-0.2 0.6,-0.3 0.7,-0.6 0.3,-0.7 0.1,-1.2 -0.7,-1.4 0,-1.3 0,-2.7 0,-4 2.5,-0.2 3.4,-1.9 3.6,-4 2.4,-21.1 10.1,-40.7 16.5,-60.7 C -140.7,927.5 -95.3,786.7 -50.1,645.8 2,483.6 54,321.5 106,159.4 c 46.6,-145 93.1,-290 139.7,-435 24.5,-76.5 49.2,-152.9 73.5,-229.4 8.4,-26.5 25.9,-45.5 49,-59.7 23.8,-14.6 50,-22 77.9,-22 157.3,-0.1 314.7,-0.1 472,0 27.9,0 54.1,7.5 77.9,22.1 24.7,15.2 41.6,36.2 50.6,64.5 53.5,168.3 107.7,336.4 161.7,504.5 68,211.9 136.1,423.9 204.2,635.8 40.1,125 80.4,250 120.3,375 10.5,33 22.1,65.7 31.1,99.2 0.6,2.2 0.8,4.8 4.1,4.6 0,4 0,8 0,12 -2.9,2.7 -2,5.3 0,8 0,10.7 0,21.3 0,32 -1.9,2.7 -2.9,5.3 0,8 0,4 0,8 0,12 z m -886.5,330.1 c 146.3,0 292.7,-0.1 439,0.1 15.8,0 31.3,-1.9 46.3,-6.5 28.7,-8.9 55.2,-21.7 75.3,-45.1 18.7,-21.7 37.6,-43.3 56.4,-64.9 51.8,-59.6 103.8,-119.1 155.4,-178.8 26.3,-30.5 35.2,-65 22.6,-104.2 C 1445.2,1024.3 1414.2,926.8 1383,829.4 1346.2,714.5 1309.5,599.6 1272.7,484.7 1207,279.4 1141.3,74 1075.6,-131.3 1041.8,-236.6 1008,-342 974.3,-447.4 c -4.1,-12.9 -9.9,-24.8 -18.3,-35.3 -13.8,-17.3 -30.5,-27 -54,-26.9 -147.3,0.6 -294.7,0.4 -442,0.1 -18.4,0 -33,6.6 -45.4,19.3 -11.9,12.1 -19.7,26.7 -24.9,42.8 -57.9,181.2 -116,362.4 -174,543.7 -42.7,133.3 -85.3,266.6 -128,399.9 -54.3,170 -108.8,340.1 -163.2,510.2 -12.4,38.7 -24.7,77.5 -37.2,116.2 -11.1,34.4 -4.9,65.8 15.9,94.6 4.1,5.7 8.9,10.7 13.5,16 67.9,78.3 135.9,156.5 203.8,234.8 8.8,10.2 18.5,19.1 30.1,26 29.2,17.4 60.3,27.2 94.8,27.2 145.4,-0.3 290.7,-0.1 436.1,-0.1 z" inkscape:connector-curvature="0" style="fill:#8c2f30" inkscape:export-filename="G:\Users\suitedoalex\sites\tolima-logo-escudo-7.png" inkscape:export-xdpi="2.7057498" inkscape:export-ydpi="2.7057498"/><path id="XMLID_75_" class="st0" d="m 1568,1139 c -2,-2.7 -2.9,-5.3 0,-8 0,2.7 0,5.3 0,8 z" inkscape:connector-curvature="0" style="fill:#010000" inkscape:export-filename="G:\Users\suitedoalex\sites\tolima-logo-escudo-7.png" inkscape:export-xdpi="2.7057498" inkscape:export-ydpi="2.7057498"/><path id="XMLID_74_" class="st0" d="m 1568,1179 c -2.9,-2.7 -1.9,-5.3 0,-8 0,2.7 0,5.3 0,8 z" inkscape:connector-curvature="0" style="fill:#010000" inkscape:export-filename="G:\Users\suitedoalex\sites\tolima-logo-escudo-7.png" inkscape:export-xdpi="2.7057498" inkscape:export-ydpi="2.7057498"/><path id="XMLID_73_" class="st0" d="m -206,1137 c 0.8,0.2 1.1,0.7 0.7,1.4 -0.1,0.3 -0.5,0.4 -0.7,0.6 0,-0.7 0,-1.3 0,-2 z" inkscape:connector-curvature="0" style="fill:#010000" inkscape:export-filename="G:\Users\suitedoalex\sites\tolima-logo-escudo-7.png" inkscape:export-xdpi="2.7057498" inkscape:export-ydpi="2.7057498"/><path id="XMLID_52_" class="st9" d="m 682.6,-450.1 c 66.7,0 133.3,0.3 200,-0.2 19.3,-0.1 32.4,8 41.2,24.4 3.5,6.5 6.2,13.2 8.7,20.2 22.9,64.6 43,130.2 64,195.4 103.6,321.1 207.1,642.3 310.7,963.4 35.2,109.3 70.4,218.5 105.5,327.9 5.8,18 11.8,36.1 14.2,55 2.5,20.3 -2.7,38.2 -16.4,53.6 -77.4,86.4 -154.9,172.7 -232.1,259.3 -14.9,16.8 -34.1,23.8 -55,27.8 -15.4,3 -31,4.5 -46.7,4.5 -130,0 -260,0.1 -390,0.1 -1.7,0 -3.3,-0.3 -5,-0.4 0,-56.4 0,-112.9 0,-169.3 -6.1,4.5 -10.5,9.5 -14.5,14.6 -17.7,22.9 -41.1,36.3 -68.9,43.1 -27.1,6.6 -54.6,9 -82.2,9.1 -112.7,0.4 -225.3,0.2 -338,0.1 -15.6,0 -14,1.5 -14,-13.8 0,-213.7 0,-427.3 0,-641 0,-2.7 0.1,-5.3 0,-8 -0.1,-5.6 3,-8.6 8,-10 4.2,-1.2 8.6,-0.9 12.9,-0.9 47.7,0 95.3,0 143,0 13.5,0 12.2,-1.1 12.2,12.6 0,113.3 0,226.7 0,340 0,47.7 0,95.3 0,143 0,8.8 0.1,8.9 8.9,8.9 51.3,0 102.7,0 154,-0.1 2.2,0 4.7,0.7 6.4,-1.7 0.1,-3.7 -1.5,-7.1 -2.6,-10.5 C 490,1142.6 473,1088.3 456.1,1033.9 419.9,917.4 383.7,801 347.5,684.6 c -5,-16 -5,-16 -22.1,-16.1 -50.3,0 -100.7,0 -151,0 -10.6,0 -10.6,-0.1 -10.6,-10.2 0,-49.3 0,-98.7 0,-148 0,-10.7 2.1,-12.9 12.6,-13.5 1.7,-0.1 3.3,-0.1 5,-0.1 54.7,0 109.3,-0.1 164,0 19.7,0 39.3,1.4 58.5,6.2 48.3,12 80.3,42 95.5,89.1 28,87.2 55.2,174.6 82.7,262 31.5,100.1 63,200.1 94.6,300.1 1,3.3 0.9,7.5 5.3,10.5 0,-4.8 0,-8.5 0,-12.1 0,-156.3 0,-312.6 0,-469 0,-2.7 -0.1,-5.3 0,-8 0.2,-7.9 0.2,-7.9 7.7,-8.1 2.3,-0.1 4.7,0 7,0 47.7,0 95.3,-0.1 143,0 16.7,0 14.9,-2 14.9,14.9 0,227 0,454 0,681 0,3 0.1,6 0,9 -0.2,4.5 1.4,7 6.3,6.7 2.3,-0.2 4.7,0 7,0 46.3,0 92.7,0.1 139,0 17.8,0 16,2.6 16,-15.9 0,-226.3 0,-452.6 0,-679 0,-3 -0.1,-6 0,-9 0.3,-7.1 0.5,-7.4 7.3,-7.7 2.3,-0.1 4.7,0 7,0 49,0 98,0 147,0 2.7,0 5.3,-0.1 8,0 4.3,0.2 6,-1.9 5.8,-6.1 -0.1,-2.7 0,-5.3 0,-8 0,-46.7 0.1,-93.3 0,-140 -0.1,-16.7 3,-15.4 -15.4,-15.4 -161.7,0 -323.3,0 -485,0 -5,0 -10,0.7 -14.9,-1 -0.1,-53 -0.2,-105.9 -0.4,-158.9 0,-7 -0.3,-14 -0.5,-21 0.1,-3.7 0.4,-7.3 0.4,-11 0,-33 -0.1,-65.9 -0.2,-98.9 -0.8,-179.8 -1.9,-359.7 -1.3,-539.5 0.1,-39 2,-77.9 1.2,-116.9 0,0 0.3,-0.4 0.3,-0.3 0,0 0.6,0.1 0.6,0.1 z" inkscape:connector-curvature="0" style="fill:#e7be2b" inkscape:export-filename="G:\Users\suitedoalex\sites\tolima-logo-escudo-7.png" inkscape:export-xdpi="2.7057498" inkscape:export-ydpi="2.7057498"/><path id="XMLID_51_" class="st10" d="m 681.6,-449.2 c 0.8,39 -1.1,77.9 -1.2,116.9 -0.6,179.8 0.5,359.7 1.3,539.5 0.1,33 0.2,65.9 0.2,98.9 0,3.7 -0.2,7.3 -0.4,11 -1.8,3.4 -1.5,7.1 -1.5,10.7 0,9.3 0,18.6 0,27.9 0,43.8 -0.1,87.7 0,131.5 0,3.2 -2.1,7.4 2.4,9.7 4.9,1.7 9.9,1 14.9,1 161.7,0 323.3,0 485,0 18.4,0 15.4,-1.2 15.4,15.4 0.1,46.7 0.1,93.3 0,140 0,2.7 -0.1,5.3 0,8 0.2,4.2 -1.5,6.3 -5.8,6.1 -2.7,-0.1 -5.3,0 -8,0 -49,0 -98,0 -147,0 -2.3,0 -4.7,-0.1 -7,0 -6.7,0.3 -7,0.6 -7.3,7.7 -0.1,3 0,6 0,9 0,226.3 0,452.6 0,679 0,18.4 1.7,15.8 -16,15.9 -46.3,0.1 -92.7,0 -139,0 -2.3,0 -4.7,-0.2 -7,0 -4.9,0.3 -6.5,-2.1 -6.3,-6.7 0.2,-3 0,-6 0,-9 0,-227 0,-454 0,-681 0,-16.9 1.8,-14.9 -14.9,-14.9 -47.7,-0.1 -95.3,0 -143,0 -2.3,0 -4.7,-0.1 -7,0 -7.4,0.3 -7.5,0.3 -7.7,8.1 -0.1,2.7 0,5.3 0,8 0,156.3 0,312.6 0,469 0,3.7 0,7.3 0,12.1 -4.3,-3 -4.2,-7.2 -5.3,-10.5 C 644.8,1054.1 613.3,954 581.8,854 554.3,766.7 527.1,679.2 499.1,592 484,544.9 452,514.9 403.6,502.9 c -19.2,-4.8 -38.8,-6.1 -58.5,-6.2 -54.7,-0.1 -109.3,0 -164,0 -1.7,0 -3.3,-0.1 -5,0.1 -10.5,0.7 -12.6,2.8 -12.6,13.5 0,49.3 0,98.7 0,148 0,10.1 0.1,10.2 10.6,10.2 50.3,0 100.7,0 151,0 17.1,0 17.2,0.1 22.1,16.1 36.2,116.4 72.4,232.8 108.6,349.1 16.9,54.4 33.9,108.7 50.8,163.1 1.1,3.5 2.7,6.8 2.6,10.5 -1.7,2.4 -4.2,1.7 -6.4,1.7 -51.3,0.1 -102.7,0.1 -154,0.1 -8.7,0 -8.9,-0.2 -8.9,-8.9 0,-47.7 0,-95.3 0,-143 0,-113.3 0,-226.7 0,-340 0,-13.7 1.3,-12.5 -12.2,-12.6 -47.7,0 -95.3,0 -143,0 -4.3,0 -8.7,-0.3 -12.9,0.9 -5,1.4 -8.1,4.4 -8,10 0.1,2.7 0,5.3 0,8 0,213.7 0,427.3 0,641 0,15.3 -1.5,13.8 14,13.8 112.7,0 225.3,0.3 338,-0.1 27.6,-0.1 55.2,-2.5 82.2,-9.1 27.8,-6.8 51.2,-20.2 68.9,-43.1 4,-5.2 8.4,-10.1 14.5,-14.6 0,56.4 0,112.9 0,169.3 -3.7,0.1 -7.3,0.4 -11,0.4 -142,0 -283.9,0 -425.9,0 -3,0 -6,-0.1 -9,0 -16.7,0.6 -30.4,-5.7 -42.2,-17.2 -18,-17.4 -33.8,-36.8 -50.4,-55.4 C 103.4,1364.3 64.2,1319.8 24.8,1275.4 0,1247 -25.4,1218.7 -50.3,1190 -62,1176.5 -65,1159.6 -65.6,1142.4 c -0.6,-17.2 3.5,-33.8 8.7,-50 C -39.3,1037.2 -21.5,982 -3.8,926.8 63.4,717.1 130.7,507.4 198,297.7 257.5,112.4 317,-72.8 376.4,-258.1 c 14.6,-45.4 29.1,-90.7 43.7,-136.1 4,-12.4 9,-24.4 16.6,-35.1 9.3,-13 21.5,-20.4 38,-20.4 68,0.1 136,0 204,0.1 1,0 2,0.2 2.9,0.4 z" inkscape:connector-curvature="0" style="fill:#8d3031" inkscape:export-filename="G:\Users\suitedoalex\sites\tolima-logo-escudo-7.png" inkscape:export-xdpi="2.7057498" inkscape:export-ydpi="2.7057498"/><polygon id="XMLID_50_" class="st10" points="681.9,-449.6 682.1,-450.2 682.6,-450.1 682.6,-449.5 " style="fill:#8d3031" inkscape:export-filename="G:\Users\suitedoalex\sites\tolima-logo-escudo-7.png" inkscape:export-xdpi="2.7057498" inkscape:export-ydpi="2.7057498"/><path id="XMLID_49_" class="st11" d="m 682.5,496.9 c -4.4,-2.3 -2.4,-6.4 -2.4,-9.7 -0.1,-43.8 -0.1,-87.7 0,-131.5 0,-9.3 0,-18.6 0,-27.9 0,-3.6 -0.3,-7.3 1.5,-10.7 0.2,7 0.5,14 0.5,21 0.1,52.9 0.2,105.8 0.4,158.8 z" inkscape:connector-curvature="0" style="fill:#733529" inkscape:export-filename="G:\Users\suitedoalex\sites\tolima-logo-escudo-7.png" inkscape:export-xdpi="2.7057498" inkscape:export-ydpi="2.7057498"/></g></g></svg>