<svg xmlns:dc="http://purl.org/dc/elements/1.1/" xmlns:cc="http://creativecommons.org/ns#" xmlns:rdf="http://www.w3.org/1999/02/22-rdf-syntax-ns#" xmlns:svg="http://www.w3.org/2000/svg" xmlns="http://www.w3.org/2000/svg" xmlns:sodipodi="http://sodipodi.sourceforge.net/DTD/sodipodi-0.dtd" xmlns:inkscape="http://www.inkscape.org/namespaces/inkscape" version="1.0" id="Ebene_1" x="0px" y="0px" width="396.2px" height="396.2px" viewBox="0 0 396.2 396.2" enable-background="new 0 0 396.2 396.2" xml:space="preserve" inkscape:version="0.91 r13725" sodipodi:docname="Logo_Derby_County_2007.svg"><metadata id="metadata87"><rdf:RDF><cc:Work rdf:about=""><dc:format>image/svg+xml</dc:format><dc:type rdf:resource="http://purl.org/dc/dcmitype/StillImage"/></cc:Work></rdf:RDF></metadata><defs id="defs85"/><sodipodi:namedview pagecolor="#ffffff" bordercolor="#666666" borderopacity="1" objecttolerance="10" gridtolerance="10" guidetolerance="10" inkscape:pageopacity="0" inkscape:pageshadow="2" inkscape:window-width="1440" inkscape:window-height="788" id="namedview83" showgrid="false" inkscape:zoom="1.0315971" inkscape:cx="198.10001" inkscape:cy="198.10001" inkscape:window-x="0" inkscape:window-y="1" inkscape:window-maximized="1" inkscape:current-layer="Ebene_1"/><g id="g4295"><g id="g4242"><path fill="#B99C41" d="M396.2,198.124C396.2,307.5,307.53,396.2,198.104,396.2C88.669,396.2,0,307.5,0,198.124  C0,88.7,88.669,0,198.104,0C307.53,0,396.2,88.7,396.2,198.124" id="path3" style="fill:#000000"/><path d="m 389.77935,198.12425 c 0,105.82733 -85.79644,191.6551 -191.67531,191.6551 -105.885955,0 -191.6823859,-85.82676 -191.6823859,-191.6551 0,-105.87584 85.7964309,-191.7025959 191.6823859,-191.7025959 105.87786,0 191.67531,85.8267559 191.67531,191.7025959" id="path7" inkscape:connector-curvature="0" style="fill:#ffffff"/><path fill="#B99C41" d="M339.629,198.124c0,78.143-63.353,141.505-141.525,141.505c-78.18,0-141.533-63.362-141.533-141.505  c0-78.191,63.353-141.553,141.533-141.553C276.276,56.571,339.629,119.933,339.629,198.124" id="path9" style="fill:#000000"/><path d="m 333.17434,198.12436 c 0,74.57532 -60.48379,135.05099 -135.07028,135.05099 -74.63523,0 -135.078398,-60.47466 -135.078398,-135.05099 0,-74.62405 60.443168,-135.098706 135.078398,-135.098706 74.58649,0 135.07028,60.474656 135.07028,135.098706" id="path13" inkscape:connector-curvature="0" style="fill:#ffffff"/></g><path id="path79" d="M263.594,232.885c0.931,2.058,11.23,16.915,11.467,21.118l4.401-5.292c0.285-1.293-1.49-6.017-2.5-7.389  C273.973,237.853,264.202,233.405,263.594,232.885"/><g id="g4258"><g id="g4215"><path style="fill:#000000" id="path15" d="M80.877,84.465c1.695,1.412,2.989,2.862,3.88,4.4c0.883,1.53,1.373,3.107,1.491,4.724  c0.087,1.577-0.197,3.186-0.844,4.802c-0.646,1.656-1.616,3.233-2.949,4.803c-1.049,1.293-2.224,2.547-3.391,3.801  c-1.215,1.207-2.138,2.098-2.785,2.666c-0.646,0.56-1.253,0.56-1.939,0L53.062,91.854c-0.647-0.528-0.773-1.175-0.324-1.861  c0.237-0.481,0.647-1.088,1.167-1.854c0.489-0.772,1.136-1.656,1.9-2.666c0.766-1.009,1.491-1.94,2.177-2.744  c1.333-1.617,2.792-2.87,4.243-3.801c1.491-0.883,3.028-1.451,4.605-1.609c1.569-0.205,3.187,0.04,4.842,0.6  c1.657,0.607,3.352,1.617,5.047,3.067L80.877,84.465 M76.318,89.915l-4.164-3.47c-1.412-1.175-2.666-1.9-3.793-2.184  c-1.127-0.324-2.137-0.245-3.067,0.205c-0.892,0.402-1.775,1.167-2.666,2.176c-0.765,0.97-1.372,1.735-1.853,2.382l15.016,12.562  c0.528-0.568,1.215-1.333,1.98-2.263c0.891-1.049,1.451-2.058,1.695-3.028c0.284-0.97,0.166-1.979-0.323-3.028  C78.622,92.178,77.691,91.082,76.318,89.915" fill="#B99C41"/><path style="fill:#000000" id="path17" d="M107.613,76.871c0.323,0.363,0.284,0.773-0.079,1.214c-0.647,0.726-1.459,1.578-2.303,2.461  c-0.891,0.851-2.058,1.939-3.517,3.193c-1.167,0.97-2.256,1.735-3.352,2.342c-1.049,0.56-2.138,0.922-3.266,1.049  c-1.135,0.079-2.264-0.126-3.478-0.686c-1.167-0.568-2.343-1.577-3.55-2.949l-9.006-10.583c-1.578-1.853-2.421-3.549-2.586-5.125  c-0.159-1.617,0.165-3.068,1.009-4.4c0.813-1.293,2.02-2.626,3.557-3.959c1.49-1.246,2.745-2.255,3.833-3.028  c1.088-0.765,1.98-1.372,2.705-1.774c0.45-0.323,0.852-0.284,1.136,0.079l2.54,2.95l0.205,0.646l-0.284,0.568l-6.499,5.528  c-0.772,0.607-1.136,1.254-1.175,1.822c-0.039,0.56,0.285,1.246,0.97,2.058l2.5,2.902l8.281-7.026l0.607-0.197l0.567,0.284  l2.58,3.028l0.166,0.599l-0.245,0.568l-8.32,7.065l2.911,3.391c0.686,0.812,1.332,1.254,1.9,1.293  c0.56,0.079,1.246-0.245,1.972-0.892l6.506-5.488l0.607-0.197l0.56,0.275L107.613,76.871" fill="#B99C41"/><path style="fill:#000000" id="path19" d="M132.078,62.298c0.166,0.284,0.086,0.568-0.276,0.765l-5.497,3.272l-0.481,0.079l-0.686-0.363l-10.261-6.261  l-0.363,0.284c-0.236,0.166-0.686,0.41-1.333,0.725c-0.6,0.323-1.01,0.568-1.246,0.733l5.449,9.124l0.079,0.647l-0.363,0.521  l-4.685,2.792l-0.607,0.079l-0.521-0.363L96.871,50.107c-0.362-0.568-0.489-1.096-0.362-1.459c0.119-0.402,0.442-0.805,0.971-1.246  c1.774-1.498,4.116-3.067,6.979-4.81c1.617-0.97,3.194-1.696,4.645-2.177c1.459-0.489,2.871-0.686,4.243-0.607  c1.333,0.079,2.626,0.529,3.793,1.293c1.214,0.804,2.263,1.94,3.194,3.47l0.276,0.489c1.057,1.813,1.538,3.588,1.42,5.283  c-0.126,1.743-0.687,3.312-1.782,4.685l11.514,6.947L132.078,62.298 M114.475,48.688l-0.284-0.442  c-0.647-1.088-1.53-1.656-2.619-1.735c-1.136-0.039-2.468,0.402-3.998,1.293c-1.01,0.646-1.94,1.207-2.752,1.774l4.164,6.987  c0.521-0.284,1.411-0.765,2.586-1.451c1.854-1.096,2.981-2.145,3.392-3.115C115.405,51.077,115.239,49.941,114.475,48.688" fill="#B99C41"/><path style="fill:#000000" id="path21" d="M154.207,44.855c0.607,1.656,0.812,3.193,0.607,4.566c-0.205,1.372-0.765,2.618-1.616,3.714  c-0.884,1.048-2.02,2.019-3.392,2.823c-1.372,0.852-2.949,1.578-4.764,2.263c-1.167,0.442-2.5,0.844-3.959,1.333  c-1.451,0.441-2.579,0.725-3.431,0.883c-0.607,0.086-1.088,0.126-1.451,0.086c-0.363-0.086-0.687-0.245-0.931-0.528  c-0.284-0.284-0.528-0.726-0.726-1.333L125.657,34.8c-0.323-0.883-0.402-1.569-0.197-2.058c0.158-0.441,0.607-0.891,1.372-1.293  c0.765-0.441,1.814-0.93,3.147-1.53c1.333-0.568,2.587-1.096,3.714-1.498c2.626-0.97,4.969-1.53,6.987-1.735  c2.019-0.158,3.754,0.205,5.213,1.048c1.491,0.852,2.58,2.264,3.344,4.282l0.244,0.726c0.489,1.254,0.607,2.508,0.402,3.793  c-0.197,1.254-0.725,2.303-1.569,3.194c0.844,0.119,1.656,0.323,2.342,0.726c0.725,0.363,1.372,0.852,1.979,1.491  c0.561,0.646,1.01,1.419,1.333,2.302L154.207,44.855 M143.103,35.447l-0.198-0.607c-0.449-1.088-1.135-1.735-2.184-1.932  c-1.01-0.205-2.5,0.079-4.48,0.805c-1.617,0.607-2.626,1.009-2.989,1.167l2.547,6.869l4.44-1.656  C142.905,39.083,143.875,37.545,143.103,35.447 M147.59,47.118l-0.166-0.402c-0.402-1.057-1.049-1.782-1.94-2.185  c-0.884-0.402-2.058-0.323-3.509,0.245l-4.441,1.616l2.706,7.342c0.687-0.237,1.246-0.481,1.735-0.639  c0.481-0.166,1.01-0.324,1.53-0.529c1.901-0.686,3.194-1.49,3.801-2.381C147.913,49.295,147.992,48.285,147.59,47.118" fill="#B99C41"/><path style="fill:#000000" id="path23" d="M176.621,18.453v0.276l-3.518,15.464c-0.197,0.97-0.481,1.782-0.805,2.342  c-0.362,0.568-0.765,1.049-1.253,1.372l2.185,11.474l-0.166,0.599l-0.521,0.363l-5.371,1.009l-0.607-0.118l-0.363-0.528  l-2.185-11.466c-0.6-0.158-1.167-0.442-1.696-0.804c-0.481-0.402-1.049-1.009-1.656-1.861l-8.92-13.122l-0.079-0.237l0.079-0.489  l0.442-0.284l5.938-1.128c0.363-0.079,0.687,0.119,0.97,0.568l6.665,10.78l0.323,0.442l0.402,0.04l0.323-0.197l0.158-0.528  l2.224-12.475c0.119-0.529,0.324-0.805,0.687-0.844l5.931-1.135l0.529,0.079L176.621,18.453" fill="#B99C41"/><path style="fill:#000000" id="path25" d="M213.933,47.56l-0.205,0.568l-0.726,0.323c-1.452,0.402-3.557,0.521-6.302,0.402  c-1.696-0.079-3.225-0.402-4.685-0.931c-1.412-0.56-2.705-1.372-3.793-2.46c-1.088-1.088-1.94-2.547-2.547-4.321  c-0.56-1.774-0.805-3.833-0.687-6.214l0.245-5.292c0.126-2.342,0.567-4.4,1.293-6.096c0.765-1.695,1.775-3.028,2.989-4.038  c1.207-0.97,2.54-1.656,4.038-2.058c1.451-0.363,3.028-0.528,4.724-0.45c1.333,0.087,2.626,0.205,3.793,0.402  c1.174,0.245,1.979,0.45,2.381,0.607c0.608,0.205,0.931,0.529,0.892,0.97l-0.205,4.037c0,0.568-0.284,0.813-0.805,0.813h-0.118  c-1.419-0.205-2.508-0.323-3.273-0.449c-0.765-0.079-1.775-0.158-2.949-0.197c-1.049-0.04-1.94,0.118-2.745,0.481  c-0.765,0.402-1.412,1.088-1.9,2.137c-0.521,1.009-0.805,2.429-0.883,4.203l-0.245,5.291c-0.079,1.774,0.04,3.186,0.441,4.274  c0.403,1.049,0.97,1.822,1.696,2.263c0.772,0.489,1.656,0.726,2.705,0.804c0.363,0,0.892,0,1.578,0c0.646,0.047,1.254,0.047,1.735,0  c0.528,0,1.049,0,1.656,0c0.646-0.039,1.049-0.039,1.254-0.039h0.118c0.529,0.039,0.765,0.323,0.726,0.891L213.933,47.56" fill="#B99C41"/><path style="fill:#000000" id="path27" d="M242.963,40.857c-0.931,4.565-2.745,7.633-5.41,9.329c-2.666,1.695-5.813,2.176-9.488,1.412  c-3.636-0.726-6.341-2.381-8.162-5.007c-1.814-2.579-2.256-6.135-1.325-10.654l1.009-4.929c0.883-4.479,2.705-7.594,5.363-9.29  c2.666-1.695,5.82-2.176,9.496-1.412c1.774,0.363,3.352,0.931,4.724,1.735c1.372,0.773,2.5,1.822,3.391,3.068  c0.844,1.293,1.452,2.831,1.695,4.645c0.285,1.822,0.158,3.919-0.323,6.222L242.963,40.857 M235.896,39.445l0.97-4.89  c0.481-2.46,0.442-4.313-0.118-5.607c-0.607-1.253-1.822-2.097-3.556-2.468c-1.128-0.197-2.138-0.158-2.989,0.166  c-0.844,0.323-1.578,1.009-2.138,1.979c-0.567,0.97-1.049,2.263-1.372,3.872l-1.01,4.889c-0.284,1.617-0.41,2.989-0.244,4.077  c0.158,1.088,0.521,1.979,1.167,2.626s1.578,1.088,2.752,1.333c1.735,0.363,3.147,0.04,4.196-0.891  C234.604,43.562,235.368,41.866,235.896,39.445" fill="#B99C41"/><path style="fill:#000000" id="path29" d="M270.984,53.372c-0.883,2.145-1.892,3.84-3.068,5.047c-1.167,1.214-2.421,2.019-3.754,2.468  c-1.372,0.402-2.823,0.521-4.322,0.323c-1.49-0.205-3.068-0.646-4.645-1.293c-1.61-0.686-3.029-1.451-4.196-2.342  c-1.214-0.931-2.137-2.019-2.784-3.272c-0.686-1.293-1.009-2.784-0.931-4.479c0.04-1.695,0.481-3.596,1.373-5.693l7.106-17.278  l0.481-0.45h0.607l5.048,2.098l0.489,0.449v0.607l-7.153,17.278c-0.56,1.373-0.883,2.5-0.922,3.431  c-0.087,0.931,0.157,1.735,0.686,2.381c0.521,0.686,1.333,1.254,2.46,1.735c1.175,0.45,2.138,0.647,2.989,0.528  c0.844-0.079,1.578-0.481,2.177-1.175c0.608-0.726,1.215-1.735,1.782-3.107l7.146-17.278l0.442-0.441l0.647,0.04l5.008,2.058  l0.489,0.442v0.646L270.984,53.372" fill="#B99C41"/><path style="fill:#000000" id="path31" d="M292.184,78.732c-0.237,0.402-0.56,0.607-1.01,0.686c-0.441,0.079-0.844,0-1.207-0.245l-3.478-2.303  c-0.402-0.284-0.686-0.56-0.843-0.883c-0.206-0.323-0.285-0.812-0.245-1.419l1.254-19.013l-0.125-0.528l-0.363,0.165l-9.409,14.171  l-0.521,0.363l-0.647-0.118l-4.156-2.752l-0.323-0.521l0.118-0.646l15.868-23.941c0.245-0.363,0.607-0.607,1.048-0.686  c0.403-0.079,0.813,0,1.176,0.244l3.549,2.334l0.686,0.812c0.087,0.324,0.126,0.765,0.087,1.293l-1.372,19.865l0.118,0.441  l0.362-0.205l9.851-14.77l0.489-0.323l0.647,0.118l4.156,2.745l0.363,0.528l-0.118,0.599L292.184,78.732" fill="#B99C41"/><polyline style="fill:#000000" id="polyline33" points="327.035,77.802 326.466,78.046 325.859,77.762 320.899,73.078 304.14,90.885 303.533,91.168   302.925,90.924 298.966,87.17 298.69,86.603 298.926,85.995 315.686,68.189 310.717,63.513 310.48,62.905 310.677,62.338   313.627,59.191 314.195,58.986 314.755,59.191 329.897,73.48 330.181,74.048 330.023,74.655 327.035,77.802 " fill="#B99C41"/><path style="fill:#000000" id="path35" d="M349.44,99.078l-0.237,0.126l-15.387,3.753c-0.97,0.237-1.774,0.363-2.421,0.323  c-0.687-0.086-1.294-0.244-1.775-0.528l-9.29,7.026l-0.607,0.165l-0.568-0.284l-3.304-4.361l-0.166-0.646l0.324-0.568l9.25-7.026  c-0.126-0.607-0.126-1.207,0-1.853c0.118-0.647,0.402-1.412,0.923-2.303l7.713-13.808l0.205-0.205l0.441-0.158l0.442,0.284  l3.675,4.803c0.205,0.323,0.205,0.686-0.079,1.127l-6.625,10.701l-0.236,0.528l0.118,0.363l0.323,0.197l0.528-0.079l12.114-3.556  c0.52-0.119,0.883-0.04,1.088,0.244l3.675,4.803l0.157,0.528L349.44,99.078" fill="#B99C41"/></g><g id="g4228" style="fill:#000000"><path id="path37" d="M89.119,308.51l-0.607,0.197l-0.607-0.284l-5.655-6.333c-0.687-0.773-1.285-1.136-1.854-1.175  c-0.567,0-1.254,0.323-2.059,1.049l-2.871,2.547l7.271,8.115l0.197,0.607l-0.276,0.56l-2.95,2.666l-0.646,0.205l-0.568-0.244  l-7.224-8.115l-9.165,8.154l-0.607,0.205l-0.567-0.284l-3.597-4.038l-0.197-0.568l0.236-0.599l16.2-14.455  c1.813-1.617,3.47-2.507,5.086-2.705c1.57-0.245,3.028,0.079,4.361,0.844c1.333,0.813,2.705,1.94,4.038,3.47  c1.293,1.459,2.342,2.705,3.147,3.762c0.804,1.088,1.412,1.971,1.861,2.618c0.276,0.489,0.276,0.891-0.087,1.214L89.119,308.51" fill="#B99C41" style="fill:#000000"/><path id="path39" d="M100.665,335.558c-2.949,3.557-5.978,5.449-9.125,5.694c-3.147,0.244-6.136-0.804-9.007-3.186  c-2.824-2.342-4.439-5.094-4.803-8.241c-0.363-3.146,0.892-6.498,3.833-10.054l3.194-3.833c2.95-3.557,5.979-5.449,9.125-5.694  c3.107-0.244,6.135,0.844,9.006,3.186c1.373,1.175,2.5,2.429,3.352,3.753c0.804,1.38,1.333,2.792,1.49,4.321  c0.166,1.499-0.039,3.155-0.686,4.89c-0.607,1.735-1.695,3.509-3.187,5.331L100.665,335.558 M95.097,330.953l3.186-3.833  c1.578-1.9,2.422-3.596,2.461-4.968c0.086-1.412-0.56-2.705-1.933-3.833c-0.891-0.726-1.782-1.175-2.705-1.254  c-0.891-0.118-1.822,0.118-2.792,0.726c-0.923,0.568-1.932,1.498-2.989,2.744l-3.187,3.841c-1.049,1.293-1.774,2.46-2.137,3.469  c-0.41,1.049-0.489,2.019-0.205,2.871c0.245,0.883,0.844,1.696,1.774,2.46c1.373,1.127,2.705,1.538,4.117,1.167  C92.021,334.028,93.52,332.893,95.097,330.953" fill="#B99C41" style="fill:#000000"/><path id="path41" d="M124.972,349.895c-2.295,3.998-4.961,6.34-8.037,7.104c-3.068,0.765-6.215,0.197-9.448-1.656  c-3.225-1.861-5.245-4.321-6.136-7.35c-0.883-3.028-0.198-6.537,2.097-10.536l2.509-4.321c2.302-3.998,4.968-6.38,8.036-7.105  c3.067-0.773,6.214-0.205,9.448,1.656c1.569,0.883,2.902,1.932,3.959,3.146c1.049,1.175,1.774,2.5,2.177,3.999  c0.442,1.49,0.481,3.107,0.166,4.928c-0.323,1.814-1.096,3.753-2.264,5.812L124.972,349.895 M118.717,346.259l2.5-4.321  c1.253-2.177,1.821-3.959,1.656-5.371c-0.158-1.411-1.049-2.539-2.587-3.43c-1.009-0.607-1.971-0.891-2.902-0.812  c-0.891,0.047-1.774,0.41-2.626,1.175c-0.892,0.726-1.695,1.814-2.547,3.233l-2.5,4.361c-0.852,1.411-1.333,2.705-1.577,3.793  c-0.198,1.088-0.08,2.058,0.323,2.862c0.402,0.813,1.096,1.538,2.145,2.146c1.57,0.883,2.989,1.048,4.275,0.48  C116.17,349.808,117.463,348.436,118.717,346.259" fill="#B99C41" style="fill:#000000"/><polyline id="polyline43" points="151.746,346.504 151.257,346.945 150.618,346.906 144.317,344.438 135.35,367.173 134.909,367.614   134.262,367.614 129.175,365.635 128.733,365.193 128.733,364.546 137.653,341.819 131.313,339.312 130.871,338.87 130.831,338.263   132.4,334.265 132.85,333.823 133.497,333.823 152.795,341.409 153.276,341.859 153.324,342.505 151.746,346.504 " fill="#B99C41" style="fill:#000000"/><path id="path45" d="M171.652,368.584c-0.402,1.735-1.049,3.154-1.979,4.164c-0.931,1.088-2.059,1.814-3.392,2.216  c-1.333,0.45-2.784,0.647-4.361,0.568c-1.617-0.04-3.352-0.284-5.205-0.726c-1.214-0.245-2.586-0.607-4.038-1.009  c-1.459-0.45-2.587-0.813-3.352-1.136c-0.567-0.237-0.97-0.481-1.254-0.726c-0.284-0.244-0.441-0.56-0.48-0.97  c-0.087-0.362-0.048-0.844,0.079-1.49l5.655-24.911c0.197-0.931,0.52-1.538,0.923-1.822c0.41-0.323,1.049-0.442,1.861-0.363  c0.892,0.087,2.019,0.244,3.471,0.449c1.458,0.237,2.744,0.521,3.919,0.765c2.745,0.646,5.009,1.412,6.783,2.382  c1.735,0.97,3.029,2.184,3.794,3.714c0.772,1.498,0.93,3.312,0.449,5.409l-0.165,0.726c-0.324,1.333-0.891,2.468-1.735,3.391  c-0.891,0.931-1.9,1.538-3.067,1.861c0.646,0.521,1.167,1.127,1.577,1.853c0.402,0.686,0.638,1.499,0.804,2.342  c0.119,0.891,0.079,1.782-0.118,2.705L171.652,368.584 M164.909,366.849l0.08-0.441c0.244-1.088,0.125-2.058-0.442-2.871  c-0.528-0.804-1.538-1.412-3.068-1.735l-4.606-1.049l-1.735,7.673c0.687,0.158,1.294,0.284,1.814,0.402  c0.489,0.158,1.009,0.245,1.538,0.402c2.019,0.442,3.51,0.489,4.479,0.079C163.979,368.907,164.585,368.103,164.909,366.849   M167.536,354.618l0.118-0.607c0.284-1.128,0.039-2.059-0.726-2.784c-0.725-0.687-2.137-1.293-4.195-1.783  c-1.696-0.362-2.752-0.599-3.154-0.646l-1.57,7.065l4.599,1.057C165.39,357.56,167.046,356.794,167.536,354.618" fill="#B99C41" style="fill:#000000"/><path id="path47" d="M199.35,378.962c-0.039,0.441-0.275,0.646-0.765,0.646l-5.813-0.402c-0.489,0-0.725-0.284-0.812-0.812  l-1.048-6.939l-8.557-0.568l-1.979,6.782c-0.118,0.489-0.402,0.726-0.892,0.686l-5.852-0.402c-0.441,0-0.686-0.245-0.646-0.687  l0.04-0.079v-0.126l7.918-25.558c0.56-1.774,1.49-2.941,2.744-3.509s2.745-0.765,4.519-0.647c1.136,0.04,2.146,0.245,2.989,0.529  c0.891,0.323,1.617,0.804,2.303,1.53c0.646,0.726,1.088,1.735,1.293,2.989l4.519,26.362l0.039,0.126V378.962 M190.107,365.635  l-1.774-11.742c-0.087-0.41-0.245-0.607-0.528-0.646c-0.284,0-0.481,0.197-0.607,0.599l-3.313,11.387L190.107,365.635z" fill="#B99C41" style="fill:#000000"/><path id="path49" d="M221.078,376.943c0.039,0.489-0.245,0.805-0.765,0.97c-1.696,0.441-3.959,0.804-6.783,1.009  c-1.499,0.118-2.871,0.079-4.085-0.079c-1.207-0.166-2.295-0.528-3.265-1.096c-0.97-0.6-1.782-1.451-2.382-2.618  c-0.607-1.175-1.009-2.666-1.136-4.487l-1.53-21.599l0.197-0.607l0.567-0.276l5.489-0.41l0.608,0.245l0.284,0.528l1.577,21.599  c0.04,1.049,0.324,1.775,0.726,2.177c0.441,0.363,1.128,0.528,2.138,0.449l7.185-0.489l0.567,0.245l0.324,0.521L221.078,376.943" fill="#B99C41" style="fill:#000000"/><path id="path51" d="M242.482,372.906c0.079,0.489-0.126,0.804-0.646,1.048c-1.617,0.647-3.841,1.293-6.625,1.822  c-1.452,0.276-2.824,0.402-4.039,0.402c-1.214-0.039-2.342-0.244-3.391-0.686c-1.01-0.45-1.94-1.215-2.666-2.303  c-0.765-1.088-1.333-2.547-1.657-4.321l-4.156-21.316l0.158-0.607l0.489-0.363l5.411-1.049l0.599,0.158l0.41,0.489l4.117,21.315  c0.206,1.048,0.568,1.734,1.009,2.098c0.481,0.323,1.215,0.402,2.177,0.205l7.066-1.372l0.608,0.158l0.402,0.489L242.482,372.906" fill="#B99C41" style="fill:#000000"/><path id="path53" d="M275.795,360.548l0.04,0.607l-0.529,0.646c-1.128,0.97-2.988,1.979-5.528,3.028  c-1.578,0.647-3.115,1.01-4.606,1.128c-1.538,0.126-3.028-0.079-4.479-0.599c-1.499-0.529-2.871-1.459-4.125-2.792  c-1.285-1.373-2.382-3.146-3.305-5.323l-1.979-4.889c-0.931-2.224-1.372-4.243-1.412-6.096c-0.047-1.861,0.276-3.517,0.923-4.889  c0.686-1.412,1.617-2.618,2.792-3.588c1.167-0.97,2.5-1.782,4.078-2.429c1.246-0.481,2.461-0.922,3.628-1.207  c1.175-0.323,1.979-0.489,2.429-0.489c0.646-0.079,1.009,0.087,1.207,0.489l1.538,3.753c0.198,0.529,0.08,0.892-0.402,1.088  l-0.126,0.04c-1.372,0.45-2.381,0.773-3.146,1.01c-0.726,0.244-1.657,0.607-2.745,1.057c-0.97,0.402-1.735,0.922-2.264,1.608  c-0.567,0.686-0.844,1.577-0.844,2.705c0,1.135,0.315,2.547,1.01,4.203l1.972,4.842c0.686,1.656,1.459,2.871,2.263,3.675  c0.813,0.813,1.617,1.254,2.508,1.333c0.844,0.119,1.774-0.039,2.744-0.441c0.363-0.126,0.844-0.363,1.452-0.646  c0.607-0.284,1.127-0.528,1.577-0.726c0.481-0.205,0.97-0.489,1.53-0.726c0.529-0.284,0.892-0.489,1.049-0.568l0.126-0.039  c0.48-0.205,0.844-0.04,1.049,0.48L275.795,360.548" fill="#B99C41" style="fill:#000000"/><path id="path55" d="M296.387,349.288c0.237,0.402,0.119,0.804-0.284,1.207c-1.333,1.135-3.233,2.429-5.694,3.84  c-1.293,0.765-2.5,1.333-3.675,1.695c-1.167,0.363-2.303,0.521-3.431,0.441c-1.127-0.079-2.224-0.52-3.272-1.293  c-1.088-0.805-2.059-1.971-2.949-3.549l-10.821-18.776l-0.039-0.646l0.362-0.521l4.764-2.705l0.607-0.086l0.528,0.362l10.82,18.776  c0.521,0.93,1.049,1.498,1.617,1.656c0.521,0.165,1.247,0,2.099-0.521l6.262-3.596l0.639-0.04l0.528,0.363L296.387,349.288" fill="#B99C41" style="fill:#000000"/><path id="path57" d="M311.687,324.376c1.459,1.853,2.382,3.596,2.871,5.165c0.481,1.617,0.56,3.107,0.284,4.527  c-0.323,1.372-0.93,2.666-1.86,3.872c-0.931,1.214-2.059,2.342-3.431,3.391c-1.373,1.088-2.745,1.94-4.117,2.508  c-1.372,0.599-2.792,0.844-4.243,0.804c-1.412-0.04-2.863-0.521-4.322-1.372c-1.412-0.891-2.863-2.224-4.282-3.998l-11.467-14.739  L281,323.935l0.324-0.568l4.322-3.352l0.607-0.205l0.52,0.284l11.467,14.739c0.93,1.167,1.735,1.979,2.547,2.5  c0.765,0.528,1.578,0.733,2.382,0.607c0.844-0.119,1.735-0.568,2.705-1.333c0.97-0.726,1.617-1.49,1.94-2.303  c0.284-0.765,0.323-1.569,0-2.46c-0.285-0.891-0.892-1.9-1.783-3.067l-11.467-14.699l-0.158-0.607l0.323-0.56l4.321-3.352l0.6-0.205  l0.568,0.284L311.687,324.376" fill="#B99C41" style="fill:#000000"/><path id="path59" d="M332.926,305.718c1.333,1.214,2.184,2.468,2.666,3.801c0.45,1.333,0.489,2.666,0.245,4.038  c-0.323,1.373-0.891,2.705-1.696,4.077c-0.852,1.372-1.94,2.744-3.233,4.156c-0.845,0.93-1.815,1.9-2.902,2.989  c-1.097,1.049-1.98,1.814-2.667,2.342c-0.489,0.363-0.891,0.607-1.253,0.726c-0.362,0.126-0.686,0.126-1.089-0.039  c-0.323-0.118-0.765-0.402-1.254-0.844l-18.738-17.286c-0.726-0.646-1.088-1.207-1.128-1.695c-0.079-0.521,0.118-1.128,0.607-1.814  c0.481-0.726,1.207-1.656,2.098-2.791c0.97-1.128,1.822-2.138,2.627-3.028c1.9-2.059,3.714-3.588,5.449-4.637  c1.695-1.049,3.391-1.577,5.086-1.458c1.696,0.086,3.352,0.851,4.929,2.303l0.568,0.528c1.009,0.883,1.696,1.979,2.059,3.186  c0.402,1.214,0.442,2.381,0.079,3.557c0.805-0.284,1.617-0.449,2.422-0.449c0.812,0,1.616,0.165,2.42,0.489  c0.813,0.323,1.578,0.765,2.264,1.412L332.926,305.718 M318.753,302.367l-0.441-0.442c-0.892-0.765-1.814-1.009-2.784-0.725  c-0.97,0.284-2.185,1.214-3.597,2.744c-1.214,1.293-1.9,2.058-2.137,2.381l5.323,4.89l3.194-3.431  C320.212,305.679,320.371,303.865,318.753,302.367 M328.083,310.726l-0.323-0.323c-0.852-0.726-1.735-1.088-2.706-1.049  c-1.009,0.079-2.019,0.686-3.067,1.822l-3.194,3.47l5.781,5.292c0.481-0.529,0.883-0.97,1.246-1.333  c0.363-0.362,0.725-0.772,1.088-1.175c1.42-1.49,2.184-2.784,2.303-3.833C329.377,312.508,329.014,311.577,328.083,310.726" fill="#B99C41" style="fill:#000000"/></g><g id="g4248"><path id="path61" d="M160.185,315.576l-0.528,0.323c-0.56-0.039-1.167-0.126-1.854-0.205c-0.646-0.118-1.498-0.323-2.507-0.568  c-0.805-0.197-1.49-0.442-2.059-0.726c-0.6-0.284-1.088-0.646-1.491-1.127c-0.402-0.441-0.646-1.049-0.765-1.735  c-0.126-0.686-0.087-1.538,0.158-2.469l1.822-7.341c0.315-1.254,0.804-2.185,1.451-2.752c0.646-0.6,1.412-0.923,2.216-0.97  c0.851-0.04,1.821,0.087,2.871,0.323c1.048,0.284,1.9,0.529,2.586,0.773c0.687,0.197,1.207,0.402,1.609,0.607l0.323,0.521  l-0.521,2.059l-0.205,0.284l-0.323,0.04l-4.479-1.088c-0.528-0.166-0.93-0.118-1.175,0.04c-0.276,0.166-0.48,0.528-0.638,1.088  l-0.489,2.019l5.733,1.412l0.284,0.205l0.04,0.362l-0.521,2.098l-0.205,0.284l-0.363,0.039l-5.694-1.411L154.854,310  c-0.118,0.567-0.118,0.97,0.04,1.214c0.166,0.284,0.489,0.481,1.009,0.607l4.488,1.128l0.276,0.197l0.047,0.371L160.185,315.576"/><path id="path63" d="M171.691,314.527c-0.197,1.127-0.765,1.932-1.735,2.5c-0.93,0.568-2.177,0.686-3.714,0.402  c-0.687-0.119-1.333-0.284-2.059-0.481c-0.725-0.205-1.372-0.45-1.94-0.726l-0.363-0.607l0.363-1.822l0.166-0.236l0.323-0.087h0.079  c0.804,0.245,1.53,0.45,2.263,0.647c0.687,0.166,1.207,0.323,1.491,0.363c0.529,0.086,0.891,0.086,1.088,0l0.402-0.639l-0.118-0.528  l-0.568-0.568l-2.579-2.177c-0.567-0.489-0.97-1.009-1.214-1.656c-0.245-0.647-0.323-1.293-0.205-2.019  c0.166-0.765,0.449-1.373,0.852-1.822c0.442-0.442,1.049-0.765,1.735-0.883c0.726-0.166,1.616-0.126,2.666,0.039  c0.567,0.118,1.049,0.245,1.498,0.363c0.441,0.118,0.844,0.244,1.207,0.402c0.363,0.126,0.726,0.284,1.128,0.489l0.371,0.599  l-0.324,1.822l-0.489,0.362l-0.04-0.039c-0.528-0.166-1.127-0.323-1.813-0.528c-0.733-0.197-1.333-0.324-1.861-0.442  c-0.442-0.079-0.765-0.079-0.97,0l-0.323,0.442l0.087,0.402l0.441,0.528l2.5,2.058c0.772,0.686,1.293,1.293,1.498,1.9  C171.731,313.233,171.818,313.841,171.691,314.527"/><path id="path65" d="M180.257,318.801l-0.529,0.402c-0.726,0.048-1.293,0-1.774-0.039c-0.647-0.079-1.215-0.197-1.657-0.363  c-0.441-0.158-0.812-0.402-1.088-0.726c-0.284-0.323-0.489-0.765-0.568-1.293c-0.119-0.52-0.119-1.167,0-1.932l0.804-6.506  l-1.774-0.521l-0.323-0.205l-0.118-0.323l0.197-1.49l0.205-0.323l0.323-0.087l1.814,0.205l0.205-1.854l0.521-0.37l2.831-0.158  l0.079,0.04l0.245,0.119l0.079,0.284l-0.284,2.381l1.861,0.245l0.285,0.166l0.118,0.363l-0.245,1.813l-0.158,0.323l-0.323,0.079  l-1.861-0.236l-0.804,6.537l-0.04,0.686l0.158,0.323l0.489,0.158l1.128,0.126l0.402,0.441L180.257,318.801"/><polyline id="polyline67" points="185.217,319.203 185.059,319.526 184.697,319.613 182.031,319.408 181.747,319.25 181.628,318.888   181.826,316.057 182.031,315.733 182.354,315.654 185.02,315.898 185.344,316.017 185.422,316.34 185.217,319.203 "/><polyline id="polyline69" points="200.888,319.613 200.77,319.937 200.447,320.055 197.497,320.133 197.173,319.976 197.008,319.653 196.811,307.09   194.302,308.187 194.027,308.265 193.782,307.981 193.743,305.395 193.94,305.032 197.615,303.297 198.143,303.179 200.202,303.139   200.485,303.258 200.644,303.581 200.888,319.613 "/><path id="path71" d="M218.333,314.156c0.079,1.096-0.079,2.019-0.528,2.792c-0.402,0.804-1.088,1.451-1.94,1.893  c-0.883,0.449-1.932,0.733-3.107,0.852h-0.236c-1.214,0.079-2.263,0-3.194-0.323c-0.97-0.284-1.695-0.804-2.264-1.538  c-0.56-0.686-0.883-1.569-0.97-2.666l-0.039-0.276c-0.04-0.733,0.087-1.419,0.362-2.105c0.284-0.646,0.734-1.207,1.294-1.695  c-1.294-0.726-2.019-1.814-2.138-3.226v-0.284c-0.079-1.009,0.079-1.9,0.521-2.626c0.41-0.726,1.057-1.333,1.901-1.735  c0.891-0.402,1.9-0.646,3.107-0.765h0.244c1.862-0.166,3.352,0.118,4.44,0.804c1.136,0.686,1.735,1.814,1.861,3.352l0.04,0.244  c0.118,1.451-0.402,2.626-1.578,3.549c0.607,0.41,1.136,0.891,1.538,1.459c0.402,0.599,0.607,1.246,0.686,2.019V314.156   M214.051,307.295v-0.118c-0.079-0.647-0.284-1.136-0.687-1.499c-0.402-0.323-1.009-0.442-1.774-0.402l-0.245,0.039  c-0.804,0.079-1.372,0.284-1.695,0.686c-0.363,0.402-0.528,0.931-0.442,1.577v0.119c0.04,0.607,0.284,1.048,0.647,1.372  c0.402,0.363,0.923,0.489,1.57,0.45l0.725-0.086c0.647-0.04,1.175-0.276,1.499-0.639  C213.972,308.384,214.09,307.903,214.051,307.295 M214.619,314.361l-0.04-0.244c-0.04-0.56-0.245-1.049-0.646-1.451  c-0.363-0.402-0.891-0.568-1.578-0.528l-0.686,0.087c-0.686,0.039-1.167,0.284-1.49,0.765c-0.324,0.442-0.45,0.97-0.411,1.538  l0.04,0.236c0.047,0.646,0.284,1.175,0.734,1.538c0.402,0.402,1.009,0.568,1.735,0.481h0.244c0.725-0.039,1.286-0.323,1.609-0.765  C214.492,315.576,214.658,315.008,214.619,314.361"/><path id="path73" d="M231.898,312.019c0.205,1.049,0.079,2.019-0.285,2.831c-0.362,0.844-0.969,1.49-1.813,2.019  c-0.813,0.521-1.822,0.883-2.989,1.088l-0.284,0.039c-1.167,0.197-2.216,0.158-3.187-0.079c-0.97-0.205-1.735-0.646-2.382-1.333  c-0.607-0.646-1.009-1.538-1.175-2.587l-0.04-0.284c-0.118-0.726-0.04-1.412,0.205-2.097c0.237-0.687,0.6-1.293,1.128-1.814  c-1.333-0.607-2.138-1.617-2.343-3.076l-0.079-0.236c-0.165-1.009-0.04-1.9,0.324-2.666c0.363-0.773,0.923-1.412,1.775-1.861  c0.851-0.481,1.813-0.844,3.027-1.01l0.245-0.04c1.813-0.323,3.312-0.157,4.479,0.442c1.175,0.607,1.861,1.656,2.138,3.193  l0.047,0.245c0.197,1.412-0.206,2.618-1.294,3.675c0.647,0.324,1.167,0.765,1.609,1.333c0.45,0.521,0.733,1.167,0.852,1.932  L231.898,312.019 M227.095,305.482l-0.039-0.126c-0.087-0.646-0.363-1.088-0.773-1.412c-0.442-0.284-1.009-0.363-1.774-0.244  l-0.245,0.047c-0.805,0.119-1.333,0.402-1.648,0.804c-0.284,0.442-0.41,0.97-0.284,1.578v0.118c0.118,0.568,0.362,1.049,0.765,1.333  c0.402,0.284,0.931,0.402,1.578,0.284l0.725-0.126c0.646-0.118,1.088-0.363,1.412-0.765  C227.095,306.57,227.174,306.081,227.095,305.482 M228.223,312.508l-0.04-0.245c-0.119-0.567-0.362-1.048-0.766-1.411  c-0.402-0.363-0.93-0.528-1.616-0.41l-0.687,0.126c-0.687,0.118-1.128,0.402-1.412,0.883c-0.245,0.489-0.323,1.009-0.245,1.577  l0.04,0.245c0.126,0.646,0.363,1.167,0.852,1.53c0.442,0.363,1.049,0.489,1.735,0.363l0.284-0.04  c0.686-0.118,1.207-0.442,1.53-0.923C228.223,313.754,228.302,313.146,228.223,312.508"/><path id="path75" d="M245.668,309.314l-0.039,0.362l-0.284,0.205l-1.451,0.363l0.804,3.225l-0.039,0.323l-0.285,0.245l-2.949,0.687l-0.276-0.04  l-0.205-0.284l-0.804-3.225l-6.38,1.53l-0.362-0.04l-0.205-0.284l-0.529-2.137l0.087-0.726l4.724-10.866l0.481-0.442l2.381-0.607  l0.324,0.087l0.245,0.236l2.263,9.369l1.451-0.323l0.363,0.04l0.205,0.284L245.668,309.314 M239.532,308.226l-1.214-4.89  l-0.118-0.079l-0.04,0.04l-2.342,5.575v0.158l0.158,0.039L239.532,308.226z"/></g><path d="M301.269,256.747c-3.754-8.604-5.773-15.629-6.577-21.441c-2.105-14.739,3.588-21.6,7.989-26.205l-0.158-0.158  c-8.438-10.094-14.937-20.188-23.423-34.24l-0.079-0.442c-0.039-2.105,5.008-6.869,5.008-6.869l-0.118-0.157l-11.104-16.876  c0,0-63.685,5.244-110.76-12.034c5.363,8.075,15.828,21.844,6.373,47.362c-3.345,9.124-11.467,13.966-17.201,16.387l-9.487-16.229  l0.607,0.039c1.167-0.079,10.899-2.46,14.614-5.693c5.86-5.007,16.759-16.387,6.262-35.242  c-2.342-4.321-12.035-14.416-25.561-17.081c-6.301-1.214-10.702-1.822-18.857,0.97c-13.202,4.44-18.455,14.005-19.022,16.513  c-4.078,16.955,3.438,23.823,9.535,24.746c1.333,6.222,1.088,11.592,1.088,11.592l-4.724,1.246l-0.441,0.126l0.119-0.323  c0.567-2.137,1.774-9.045-3.273-14.132c-3.627-3.674-9.968-8.193-9.243-16.552c0.521-5.898,7.469-9.896,7.469-9.896  s-13.731,5.007-11.909,17.443c0.158,0.891,0.363,1.774,0.646,2.744c2.58,8.162,10.821,6.908,12.272,16.19  c0.079,0.323,0.118,0.646,0.166,1.057c0.726,7.065-3.959,8.761-6.104,9.163c-0.481,0.079-0.844,0.119-0.962,0.119  c-0.567,0,8.076,1.372,10.655-5.331c2.705,1.293,14.212,7.35,19.63,20.188c2.255,0.402,4.354,0.284,6.696,0.402  c0.687,0.047,1.38,0.126,2.105,0.205c1.294,0.205,2.666,0.528,4.235,1.049c0.323,0.079,0.323-1.207-0.118-2.862  c-0.687-2.469-2.342-5.654-5.332-6.38c-0.481-0.087-0.402,2.989-0.402,2.989s1.735-0.449,2.342,0c1.333,0.962,1.893,2.46,1.893,2.46  s-8.029-0.852-8.959-0.686c-0.93-1.774-2.382-3.84-3.999-5.978c-2.019-2.626-4.321-5.244-6.222-7.429  c-2.216-2.547-3.912-4.4-4.039-4.763c-0.686-2.098,2.342-4.85,2.067-5.41c-1.9-3.028-2.105-6.056-2.105-7.389l0.891-0.323  c4.724-2.098,8.36-12.878,9.37-16.111c1.491-5.126,11.222-10.338,19.7-5.126c6.183,3.675,3.999,13.083,3.999,13.083  s-3.873-6.379-10.82-6.868c-4.361-0.237-14.417,3.107-14.291,14.62c0.118,4.361,6.538,12.838,6.538,12.838s3.068-0.402,4.685-1.088  c1.491-0.646,0.646-1.096-3.313-4.526c-4.558-3.999-4.605-13.848,3.999-15.385c6.664-1.049,12.358,4.203,8.518,12.396  c-6.822,14.778-25.237,11.553-25.237,11.553s9.29,2.381,17.611-0.047c0.118,3.801,0.646,7.065,1.246,9.691  c0.126,0.529,0.245,1.01,0.363,1.459c0.646,2.342,1.38,4.077,1.822,5.086c0.324,0.726,0.568,1.088,0.568,1.088  s2.295-0.568,1.609-5.252c-0.04-0.56-1.893-9.045-1.656-8.722c1.695,1.617,5.939,10.946,7.516,15.267l0.079,0.245  c-0.568,0.158-0.97,0.237-1.049,0.237h-0.08l1.657,4.645l2.217-0.362c0,0,11.672,23.255,14.779,37.426  c18.699-6.861,23.621,4.243,24.834,12.436c0.481,3.351,0.363,6.222,0.323,7.105l-0.04,0.284c0,0,6.058-3.509,5.607-5.007  l-0.039-0.158c-0.363-2.792-0.647-27.655-26.854-22.285c-1.893-2.342-10.86-23.91-14.211-31.938  c5.331-1.577,33.597-17.609,19.543-58.789c26.207,6.498,55.119,9.203,97.399,8.722c0.237,0,4.921,8.359,7.43,11.387  c0.646,0.883-5.576,5.567-5.576,5.567s17.69,27.979,22.09,36.464c0.686,1.451-9.811,7.546-3.715,33.909  c0.805,3.959-8.36-18.003-49.828-24.667c-18.494-2.91-34.811,2.184-37.43,3.146c-17.288,6.79-13.328,14.778-12.926,15.953  c1.9,4.282,5.331,15.141,7.468,22.127c1.136,3.754,1.9,6.419,1.9,6.419s5.853-2.429,5.411-4.645l-0.04-0.126  c-2.098-9.321-7.595-18.003-8.36-24.265c-0.197-1.735-0.04-3.265,0.647-4.598c5.852-11.103,38.645-9.408,39.212-9.447  c38.684,4.803,56.366,28.784,60.483,39.729c0.686,2.019,4.929-3.998,4.448-6.143L301.269,256.747 M111.572,179.505  c2.059-0.922,2.619-3.312,0.237-3.872l0.245-0.489C114.514,177.447,114.917,178.859,111.572,179.505 M147.219,168.931  c0.048-1.538,4.322-0.568,5.009-9.897c0.086-2.705,0.646-13.761-13.242-17.16c-5.489-1.372-15.348,1.38-19.18,6.79  c-2.824,3.99-2.058,11.947-9.488,16.347c-1.822,1.009-4.361-2.949-5.694-5.488c-1.294-2.508-2.382-19.257,13.124-25.724  c6.538-2.658,16.033-3.509,27.375,1.9c19.258,9.203,17.934,24.186,17.563,26.323c-3.588,16.922-16.996,19.825-21.073,19.138  C144.515,178.536,146.659,174.664,147.219,168.931" id="path81"/></g></g></svg>