<svg xmlns="http://www.w3.org/2000/svg" viewBox="0 0 200 200" width="200" height="200">
	<style>
		tspan { white-space:pre }
		.shp0 { fill: #30318e } 
		.shp1 { fill: #d81823 } 
		.shp2 { fill: #ffffff } 
		.shp3 { fill: #ffcd30 } 
		.shp4 { fill: #171a1f } 
	</style>
	<g>
		<path class="shp0" d="M95.39 0.14C94.56 0.17 92.4 0.34 90.58 0.51C88.76 0.68 85.92 1.04 84.27 1.32C82.62 1.59 80.59 1.95 79.76 2.12C78.93 2.29 76.86 2.78 75.15 3.2C73.44 3.63 70.74 4.4 69.14 4.92C67.54 5.43 64.65 6.49 62.73 7.26C60.8 8.04 57.69 9.43 55.81 10.37C53.94 11.31 51.68 12.48 50.8 12.98C49.92 13.48 48.39 14.39 47.39 15C46.4 15.61 44.91 16.58 44.09 17.14C43.26 17.71 42.21 18.43 41.75 18.75C41.29 19.08 39.99 20.06 38.85 20.93C37.71 21.81 36.67 22.62 36.55 22.74C36.42 22.85 35.8 23.4 35.15 23.95C34.51 24.5 33.53 25.35 32.97 25.85C32.42 26.34 30.75 27.96 29.26 29.45C27.77 30.95 26.23 32.53 25.84 32.97C25.45 33.41 24.37 34.67 23.44 35.77C22.5 36.87 21.2 38.48 20.54 39.35C19.88 40.22 19.11 41.26 18.82 41.66C18.54 42.06 17.9 42.97 17.4 43.69C16.9 44.4 15.77 46.16 14.89 47.6C14.01 49.03 12.71 51.28 12.01 52.61C11.3 53.93 10.16 56.19 9.48 57.62C8.8 59.05 7.7 61.57 7.04 63.23C6.39 64.88 5.49 67.36 5.04 68.74C4.59 70.12 4.01 72.05 3.73 73.05C3.46 74.04 2.96 76.02 2.63 77.45C2.3 78.89 1.79 81.41 1.51 83.07C1.23 84.72 0.87 87.24 0.7 88.68C0.54 90.11 0.3 92.91 0.18 94.89C0.05 96.92 0 100.2 0.07 102.4C0.14 104.55 0.33 107.71 0.51 109.42C0.68 111.13 0.91 113.16 1.02 113.93C1.14 114.7 1.45 116.59 1.73 118.14C2 119.68 2.63 122.57 3.12 124.55C3.62 126.53 4.39 129.28 4.83 130.66C5.28 132.04 6.32 134.88 7.15 136.97C7.98 139.07 9.43 142.31 10.37 144.19C11.3 146.06 12.48 148.32 12.98 149.2C13.48 150.08 14.54 151.84 15.33 153.11C16.12 154.37 17.34 156.24 18.05 157.25C18.76 158.26 19.88 159.79 20.54 160.65C21.2 161.52 22.27 162.86 22.92 163.63C23.56 164.4 24.64 165.66 25.32 166.43C25.99 167.2 27.76 169.06 29.25 170.56C30.74 172.05 32.78 173.98 33.77 174.85C34.76 175.71 35.84 176.65 36.17 176.94C36.5 177.24 38.13 178.5 39.78 179.74C41.43 180.99 43.69 182.6 44.79 183.32C45.89 184.04 47.33 184.96 48 185.37C48.66 185.78 49.92 186.52 50.8 187.02C51.68 187.52 53.94 188.69 55.81 189.63C57.69 190.57 60.8 191.96 62.73 192.74C64.65 193.51 67.49 194.55 69.04 195.06C70.58 195.56 73.29 196.33 75.05 196.77C76.81 197.21 78.93 197.71 79.76 197.88C80.59 198.05 82.34 198.37 83.67 198.59C84.99 198.81 87.2 199.13 88.58 199.29C89.95 199.46 93.07 199.7 95.49 199.83C98.88 200.01 100.95 200.01 104.41 199.83C106.89 199.7 110.05 199.46 111.42 199.29C112.8 199.13 115.01 198.81 116.33 198.59C117.66 198.37 119.41 198.05 120.24 197.88C121.07 197.72 123.19 197.22 124.95 196.77C126.71 196.33 129.42 195.56 130.96 195.05C132.51 194.55 135.35 193.51 137.27 192.74C139.2 191.96 142.31 190.57 144.19 189.63C146.06 188.69 148.32 187.52 149.2 187.02C150.08 186.52 151.61 185.61 152.61 185C153.6 184.39 155.09 183.42 155.91 182.86C156.74 182.29 157.79 181.57 158.25 181.25C158.71 180.92 160.01 179.94 161.15 179.06C162.29 178.19 163.44 177.28 163.7 177.06C163.97 176.84 164.28 176.56 164.41 176.45C164.54 176.34 165.4 175.58 166.34 174.76C167.27 173.94 169.25 172.05 170.74 170.55C172.23 169.06 174.04 167.17 174.75 166.35C175.47 165.53 176.15 164.77 176.26 164.65C176.37 164.53 177.05 163.7 177.76 162.81C178.48 161.92 179.28 160.89 179.56 160.52C179.83 160.15 180.25 159.62 180.48 159.33C180.71 159.05 181.57 157.83 182.4 156.61C183.23 155.4 184.7 153.1 185.66 151.5C186.62 149.9 188.29 146.84 189.37 144.69C190.45 142.54 192.02 139.07 192.85 136.97C193.68 134.88 194.72 132.04 195.17 130.66C195.61 129.28 196.38 126.53 196.88 124.55C197.37 122.57 198 119.68 198.28 118.14C198.55 116.59 198.92 114.29 199.08 113.03C199.25 111.76 199.5 109.59 199.64 108.22C199.77 106.84 199.89 103.14 199.89 100C199.89 96.85 199.78 93.16 199.64 91.78C199.5 90.41 199.25 88.24 199.08 86.97C198.92 85.71 198.55 83.41 198.28 81.86C198 80.32 197.38 77.48 196.9 75.55C196.42 73.62 195.65 70.87 195.19 69.44C194.74 68.01 194 65.89 193.55 64.73C193.1 63.57 192.62 62.35 192.47 62.02C192.33 61.69 191.97 60.84 191.67 60.12C191.38 59.4 190.3 57.15 189.27 55.11C188.25 53.07 186.56 50.01 185.53 48.3C184.49 46.59 183.02 44.29 182.26 43.19C181.5 42.08 180.25 40.37 179.47 39.38C178.7 38.39 177.35 36.72 176.46 35.67C175.58 34.62 174.54 33.41 174.16 32.97C173.77 32.53 172.23 30.94 170.74 29.45C169.25 27.95 167.31 26.1 166.43 25.32C165.55 24.54 164.57 23.69 164.25 23.43C163.93 23.16 163.57 22.85 163.45 22.73C163.33 22.61 161.87 21.49 160.22 20.25C158.57 19.01 156.36 17.42 155.31 16.74C154.26 16.05 152.82 15.13 152.1 14.69C151.39 14.25 150.08 13.48 149.2 12.98C148.32 12.48 146.06 11.31 144.19 10.37C142.31 9.44 139.38 8.11 137.68 7.42C135.97 6.73 133.13 5.68 131.36 5.09C129.6 4.51 126.71 3.67 124.95 3.23C123.19 2.79 121.07 2.29 120.24 2.12C119.41 1.96 117.7 1.64 116.43 1.42C115.17 1.21 112.91 0.89 111.42 0.72C109.93 0.54 107.18 0.31 105.31 0.2C103.44 0.09 100.78 0.02 99.4 0.04C98.02 0.06 96.22 0.11 95.39 0.14Z"/>
		<path class="shp1" d="M94.29 5.03C93.08 5.11 91.14 5.28 89.98 5.39C88.82 5.5 86.93 5.74 85.77 5.92C84.61 6.09 83.22 6.32 82.67 6.41C82.11 6.5 80.85 6.76 79.86 6.98C78.87 7.2 77.52 7.53 76.85 7.71C76.19 7.89 75.2 8.17 74.65 8.34C74.1 8.51 73.38 8.69 73.05 8.74C72.72 8.8 72.26 8.92 72.04 9.02C71.82 9.11 70.52 9.57 69.14 10.03C67.76 10.48 66.36 10.97 66.03 11.11C65.7 11.26 64.39 11.8 63.13 12.33C61.86 12.85 59.83 13.78 58.62 14.39C57.4 15 55.83 15.8 55.11 16.17C54.39 16.53 53.67 16.92 53.51 17.02C53.34 17.13 52.39 17.69 51.4 18.27C50.41 18.85 49.51 19.4 49.4 19.49C49.29 19.58 48.34 20.21 47.29 20.9C46.25 21.59 44.96 22.47 44.42 22.85C43.89 23.23 43.02 23.91 42.49 24.35C41.95 24.79 41.08 25.46 40.55 25.84C40.01 26.22 39.06 26.99 38.42 27.55C37.79 28.1 35.49 30.32 33.31 32.46C31.13 34.61 28.56 37.27 27.6 38.38C26.64 39.48 25.56 40.81 25.2 41.33C24.84 41.85 24.14 42.79 23.63 43.43C23.13 44.07 22.13 45.42 21.43 46.45C20.72 47.47 20.01 48.55 19.86 48.85C19.7 49.15 19.52 49.44 19.44 49.5C19.37 49.55 18.67 50.68 17.89 52C17.11 53.33 15.7 55.99 14.75 57.92C13.8 59.84 13.02 61.56 13.02 61.72C13.02 61.89 12.89 62.16 12.73 62.32C12.57 62.49 12.22 63.26 11.95 64.03C11.68 64.8 11.31 65.7 11.14 66.03C10.97 66.36 10.82 66.75 10.82 66.88C10.82 67.02 10.69 67.38 10.53 67.69C10.37 67.99 9.95 69.09 9.61 70.14C9.26 71.19 8.77 72.9 8.51 73.95C8.25 74.99 7.85 76.53 7.61 77.35C7.38 78.18 7.05 79.53 6.89 80.36C6.73 81.19 6.42 82.99 6.2 84.37C5.98 85.75 5.71 87.37 5.61 87.98C5.5 88.58 5.28 91.08 5.11 93.54C4.93 96.17 4.85 99.37 4.91 101.35C4.96 103.2 5.05 105.66 5.12 106.81C5.18 107.97 5.32 109.73 5.42 110.72C5.53 111.71 5.7 113.02 5.81 113.63C5.91 114.23 6.19 115.86 6.43 117.23C6.67 118.61 7.18 120.96 7.57 122.44C7.95 123.93 8.33 125.41 8.39 125.73C8.46 126.04 8.58 126.33 8.67 126.38C8.75 126.42 8.82 126.61 8.81 126.8C8.81 127 9.16 128.24 9.59 129.56C10.02 130.88 10.53 132.37 10.72 132.87C10.91 133.36 11.24 134.22 11.45 134.77C11.67 135.32 11.95 135.98 12.08 136.23L12.32 136.68C38.34 136.68 45.88 136.61 45.88 136.52C45.87 136.44 45.66 136.04 45.42 135.64C45.19 135.23 44.62 134.29 44.16 133.53C43.7 132.78 42.93 131.39 42.45 130.45C41.98 129.51 41.25 128.03 40.85 127.15C40.45 126.27 39.85 124.96 39.53 124.25C39.2 123.53 38.69 122.18 38.38 121.24C38.08 120.31 37.7 119.04 37.54 118.44C37.38 117.83 37.02 116.43 36.74 115.33C36.46 114.23 36.11 112.61 35.95 111.72C35.79 110.84 35.53 108.99 35.37 107.62C35.21 106.24 35.02 103.44 34.95 101.4C34.86 98.67 34.91 96.88 35.15 94.59C35.33 92.88 35.61 90.58 35.78 89.48C35.95 88.38 36.27 86.66 36.49 85.67C36.72 84.68 37.08 83.24 37.31 82.46C37.53 81.69 37.94 80.34 38.22 79.46C38.5 78.58 39.04 77.04 39.42 76.05C39.81 75.06 40.29 73.89 40.49 73.45C40.69 73.01 40.91 72.51 40.98 72.34C41.04 72.18 41.5 71.32 41.99 70.44C42.48 69.56 42.97 68.61 43.08 68.34C43.19 68.06 43.38 67.7 43.49 67.54C43.6 67.37 43.85 66.92 44.04 66.53C44.23 66.15 44.93 65.08 45.59 64.16C46.25 63.24 46.93 62.28 47.09 62.04C47.26 61.8 47.76 61.11 48.2 60.51C48.64 59.91 49.16 59.24 49.36 59.02C49.56 58.8 49.84 58.48 49.98 58.32C50.13 58.15 50.55 57.61 50.92 57.11C51.3 56.61 52.66 55.14 53.96 53.85C55.25 52.56 56.7 51.21 57.17 50.85C57.64 50.49 58.18 50.07 58.38 49.9C58.58 49.73 59.01 49.35 59.33 49.05C59.65 48.74 60.26 48.28 60.67 48.01C61.08 47.74 62.19 46.96 63.13 46.28C64.06 45.6 65.15 44.88 65.53 44.69C65.92 44.49 66.82 43.97 67.54 43.52C68.25 43.08 69.69 42.3 70.74 41.79C71.79 41.28 73.01 40.69 73.45 40.49C73.89 40.29 75.04 39.8 76 39.4C76.97 39 77.85 38.68 77.96 38.68C78.07 38.68 78.31 38.6 78.51 38.51C78.7 38.41 79.62 38.1 80.56 37.81C81.5 37.52 82.76 37.15 83.37 36.98C83.97 36.82 85.15 36.54 85.97 36.37C86.8 36.19 88.6 35.88 89.98 35.67C91.36 35.46 93.75 35.19 95.29 35.06C97.01 34.92 99.46 34.88 101.6 34.96C103.53 35.03 106.46 35.27 108.12 35.49C109.77 35.71 111.93 36.06 112.93 36.28C113.92 36.49 115.9 36.98 117.33 37.36C118.77 37.74 120.71 38.33 121.64 38.68C122.58 39.02 123.8 39.52 124.35 39.77C124.9 40.02 126.06 40.53 126.93 40.91C127.8 41.28 128.55 41.65 128.59 41.73C128.63 41.82 128.79 41.88 128.96 41.88C129.12 41.88 130.7 42.74 132.46 43.79C134.23 44.83 135.85 45.85 136.06 46.04C136.27 46.23 136.91 46.71 137.48 47.09C138.06 47.48 139.57 48.64 140.86 49.68C142.14 50.71 144.29 52.7 145.65 54.09C147 55.48 148.26 56.79 148.45 57.01C148.64 57.23 149.2 57.91 149.7 58.52C150.2 59.13 150.81 59.9 151.06 60.23C151.31 60.55 151.92 61.36 152.43 62.02C152.93 62.69 153.9 64.15 154.58 65.28C155.26 66.41 156.01 67.68 156.25 68.09C156.49 68.5 157.14 69.72 157.7 70.79C158.26 71.87 158.71 72.86 158.71 73C158.7 73.13 158.84 73.38 159.02 73.55C159.19 73.71 159.33 73.98 159.33 74.15C159.32 74.31 159.44 74.67 159.58 74.95C159.73 75.23 159.9 75.63 159.96 75.85C160.03 76.07 160.37 77.02 160.72 77.96C161.07 78.89 161.54 80.29 161.76 81.06C161.98 81.83 162.38 83.28 162.65 84.27C162.91 85.26 163.35 87.38 163.62 88.98C163.88 90.58 164.21 93.24 164.34 94.89C164.5 96.77 164.54 99.44 164.47 102C164.4 104.26 164.21 107.19 164.04 108.52C163.87 109.84 163.43 112.32 163.06 114.03C162.69 115.74 162.24 117.54 162.07 118.04C161.89 118.53 161.46 119.88 161.1 121.04C160.75 122.2 160.39 123.24 160.32 123.35C160.25 123.46 160.03 124 159.83 124.55C159.63 125.1 158.67 127.2 157.69 129.21C156.71 131.22 155.82 132.87 155.71 132.87C155.6 132.87 155.41 133.16 155.3 133.52C155.18 133.88 154.86 134.42 154.6 134.72C154.33 135.02 154.11 135.38 154.12 135.52C154.12 135.66 153.98 135.91 153.81 136.07C153.63 136.24 153.49 136.44 153.5 136.52C153.5 136.61 161.22 136.7 170.64 136.72L187.77 136.77C188.37 135.38 188.77 134.29 189.04 133.47C189.31 132.64 189.76 131.38 190.03 130.66C190.31 129.94 190.81 128.5 191.14 127.45C191.47 126.41 191.98 124.47 192.28 123.15C192.58 121.82 192.9 120.43 192.99 120.04C193.08 119.65 193.29 118.66 193.47 117.84C193.64 117.01 193.96 115.07 194.18 113.53C194.39 111.98 194.71 109.12 194.88 107.16C195.05 105.21 195.19 102.23 195.19 100.55C195.19 98.87 195.1 96.01 194.98 94.19C194.87 92.37 194.65 89.89 194.49 88.68C194.32 87.46 194.07 85.62 193.91 84.57C193.76 83.52 193.54 82.44 193.44 82.16C193.33 81.89 193.18 81.17 193.1 80.56C193.03 79.95 192.69 78.42 192.36 77.15C192.02 75.89 191.68 74.58 191.59 74.25C191.5 73.92 191.2 72.88 190.93 71.94C190.65 71.01 190.24 69.83 190.02 69.34C189.8 68.84 189.42 67.81 189.17 67.03C188.93 66.26 188.65 65.54 188.55 65.43C188.45 65.32 188.37 65.12 188.37 64.98C188.38 64.84 188.19 64.3 187.96 63.78C187.73 63.25 187.43 62.56 187.28 62.22C187.14 61.89 186.81 61.13 186.55 60.52C186.3 59.91 185.56 58.38 184.9 57.11C184.24 55.85 183.49 54.47 183.23 54.06C182.98 53.64 182.77 53.22 182.77 53.11C182.77 53 182.36 52.27 181.86 51.5C181.37 50.73 180.96 50.06 180.96 50C180.96 49.94 180.66 49.52 180.29 49.05C179.92 48.58 179.36 47.75 179.05 47.19C178.74 46.64 178.3 45.95 178.07 45.66C177.84 45.36 177.43 44.79 177.15 44.39C176.88 43.99 175.95 42.78 175.09 41.72C174.23 40.65 173.06 39.22 172.48 38.53C171.91 37.84 170.77 36.54 169.94 35.64C169.11 34.75 167.98 33.55 167.41 32.99C166.85 32.42 165.68 31.28 164.81 30.45C163.94 29.62 162.82 28.63 162.32 28.26C161.83 27.89 161.33 27.49 161.22 27.37C161.11 27.25 160.65 26.84 160.2 26.45C159.75 26.07 159.12 25.55 158.8 25.3C158.48 25.05 157.48 24.28 156.59 23.59C155.69 22.91 154.26 21.89 153.41 21.34C152.56 20.79 150.73 19.63 149.33 18.77C147.94 17.91 146.16 16.87 145.39 16.46C144.62 16.05 143.81 15.61 143.59 15.48C143.37 15.35 141.77 14.56 140.03 13.73C138.29 12.9 136.76 12.23 136.62 12.23C136.49 12.23 136.28 12.15 136.17 12.05C136.06 11.95 135.39 11.67 134.67 11.42C133.95 11.17 132.98 10.8 132.52 10.6C132.05 10.39 131.23 10.12 130.71 9.99C130.19 9.86 129.53 9.65 129.26 9.51C128.98 9.38 128.44 9.2 128.06 9.12C127.67 9.04 127.08 8.86 126.75 8.71C126.42 8.57 124.66 8.09 122.85 7.64C121.03 7.2 118.59 6.66 117.43 6.44C116.28 6.23 114.52 5.95 113.53 5.82C112.54 5.7 111 5.51 110.12 5.4C109.24 5.29 107.25 5.12 105.71 5.01C104.17 4.9 101.46 4.82 99.7 4.84C97.94 4.86 95.5 4.94 94.29 5.03Z"/>
		<path class="shp2" d="M86.27 11.5C85.61 11.65 84.62 12 84.07 12.27C83.52 12.54 82.72 13.16 82.31 13.65C81.88 14.14 81.41 14.98 81.25 15.53C81.09 16.08 80.96 16.8 80.96 17.13C80.96 17.46 81.09 18.21 81.26 18.79C81.43 19.37 81.82 20.13 82.13 20.49C82.45 20.85 83.1 21.34 83.59 21.57C84.07 21.81 85.15 22.1 85.97 22.21C86.8 22.33 88.11 22.48 88.88 22.55C89.65 22.61 90.69 22.75 91.18 22.86C91.68 22.96 92.29 23.23 92.54 23.45C92.88 23.75 92.99 24.07 92.99 24.75C92.99 25.46 92.87 25.77 92.43 26.21C92.1 26.55 91.46 26.87 90.78 27.04C90.18 27.19 89.18 27.33 88.58 27.33C87.81 27.35 87.26 27.23 86.77 26.94C86.39 26.72 85.87 26.15 85.62 25.69C85.23 24.96 85.1 24.86 84.62 24.94C84.32 24.99 83.55 25.08 82.92 25.14C81.89 25.24 81.76 25.3 81.77 25.7C81.77 25.95 81.98 26.6 82.23 27.15C82.49 27.71 83.05 28.47 83.48 28.84C83.92 29.22 84.67 29.71 85.17 29.92C85.71 30.16 86.72 30.36 87.68 30.42C88.56 30.47 89.91 30.41 90.68 30.28C91.45 30.14 92.56 29.82 93.14 29.55C93.71 29.28 94.62 28.62 95.14 28.09C95.77 27.46 96.22 26.76 96.47 26.04C96.76 25.2 96.81 24.7 96.7 23.85C96.62 23.24 96.36 22.38 96.14 21.94C95.91 21.5 95.45 20.89 95.11 20.58C94.77 20.28 94.04 19.89 93.49 19.73C92.94 19.56 91.29 19.29 89.83 19.13C88.37 18.97 86.72 18.75 86.17 18.64C85.51 18.5 85.07 18.29 84.87 17.99C84.7 17.74 84.57 17.2 84.57 16.78C84.57 16.23 84.71 15.89 85.13 15.48C85.44 15.18 86.11 14.82 86.63 14.68C87.15 14.54 87.96 14.43 88.43 14.43C88.9 14.44 89.66 14.62 90.13 14.83C90.77 15.13 91.05 15.41 91.23 15.93C91.45 16.56 91.56 16.64 92.18 16.63C92.57 16.63 93.36 16.56 93.94 16.48C94.89 16.35 94.99 16.29 94.99 15.83C94.98 15.56 94.81 14.97 94.61 14.53C94.4 14.09 93.89 13.4 93.46 12.99C93.03 12.58 92.19 12.06 91.58 11.82C90.92 11.56 89.88 11.35 88.98 11.31C88.13 11.26 86.95 11.35 86.27 11.5ZM108.72 11.68C108.28 11.82 107.51 12.17 107.01 12.46C106.52 12.74 105.72 13.41 105.25 13.95C104.77 14.49 104.17 15.38 103.91 15.93C103.65 16.48 103.29 17.52 103.11 18.24C102.92 18.95 102.73 20.26 102.67 21.14C102.6 22.25 102.66 23.16 102.88 24.1C103.06 24.84 103.42 25.88 103.68 26.4C103.94 26.93 104.69 27.83 105.33 28.42C106.03 29.05 106.97 29.66 107.62 29.91C108.47 30.24 109.18 30.34 110.82 30.35C112.72 30.36 113.04 30.31 114.08 29.81C114.71 29.51 115.62 28.88 116.09 28.41C116.56 27.94 117.24 26.97 117.59 26.25C117.94 25.54 118.2 24.9 118.16 24.85C118.12 24.79 117.55 24.68 116.91 24.59C116.26 24.5 115.51 24.39 115.23 24.33C114.81 24.24 114.63 24.38 114.11 25.19C113.76 25.72 113.18 26.35 112.8 26.58C112.43 26.82 111.85 27.07 111.52 27.14C111.19 27.21 110.47 27.17 109.92 27.05C109.37 26.92 108.65 26.63 108.33 26.39C108.01 26.15 107.53 25.61 107.28 25.2C107.02 24.79 106.75 23.93 106.66 23.3C106.58 22.66 106.56 21.56 106.63 20.84C106.69 20.13 106.89 19.04 107.07 18.44C107.25 17.83 107.67 16.95 108 16.48C108.34 16.01 108.91 15.45 109.27 15.23C109.63 15.01 110.24 14.77 110.62 14.7C111.01 14.63 111.8 14.68 112.37 14.8C113.13 14.97 113.63 15.23 114.13 15.73C114.55 16.15 114.94 16.81 115.1 17.38L115.37 18.34C118.07 18.7 118.82 18.72 118.94 18.61C119.07 18.49 119.05 18.04 118.89 17.28C118.75 16.65 118.44 15.77 118.22 15.33C117.99 14.89 117.56 14.27 117.27 13.96C116.97 13.64 116.37 13.14 115.93 12.84C115.49 12.55 114.72 12.14 114.23 11.95C113.69 11.74 112.57 11.56 111.42 11.51C110.18 11.45 109.24 11.51 108.72 11.68Z"/>
		<path class="shp3" d="M150.4 35.11C150.01 35.91 149.61 36.66 149.51 36.77C149.42 36.88 148.52 37.09 147.52 37.22C146.51 37.36 145.69 37.54 145.69 37.63C145.68 37.71 146.28 38.36 147.01 39.08L148.34 40.38C148.14 41.78 148.01 42.61 147.94 43.14C147.83 43.84 147.86 44.09 148.05 44.09C148.18 44.09 148.97 43.73 149.8 43.29L151.3 42.48C153.63 43.73 154.42 44.09 154.56 44.09C154.75 44.09 154.77 43.84 154.65 43.04C154.56 42.46 154.43 41.62 154.37 41.18C154.25 40.41 154.29 40.34 155.58 39.03C156.31 38.28 156.82 37.63 156.71 37.58C156.6 37.52 155.74 37.36 154.78 37.22L153.06 36.97C151.85 34.57 151.42 33.82 151.31 33.75C151.21 33.69 150.8 34.3 150.4 35.11ZM46.07 35.29C45.7 36.07 45.3 36.78 45.19 36.87C45.08 36.97 44.27 37.14 43.39 37.27C42.51 37.39 41.69 37.55 41.58 37.61C41.47 37.67 42.01 38.34 42.79 39.1L44.19 40.47C43.8 42.27 43.68 43.08 43.69 43.44C43.69 43.8 43.76 44.09 43.84 44.08C43.92 44.08 44.62 43.76 45.39 43.38C46.16 42.99 46.91 42.68 47.04 42.68C47.18 42.68 47.93 43 48.7 43.39C49.47 43.77 50.21 44.09 50.35 44.09C50.54 44.09 50.56 43.88 50.44 43.24C50.34 42.77 50.2 41.93 50.11 41.38L49.95 40.38C51.94 38.36 52.52 37.71 52.51 37.63C52.51 37.54 52.08 37.42 51.55 37.36C51.03 37.29 50.2 37.18 49.7 37.1C48.81 36.97 48.79 36.95 48.05 35.42C47.63 34.56 47.17 33.87 47.02 33.87C46.88 33.87 46.45 34.51 46.07 35.29Z"/>
		<path class="shp0" d="M94.89 35.06C93.9 35.15 92 35.38 90.68 35.56C89.36 35.75 87.42 36.08 86.37 36.29C85.33 36.51 83.97 36.82 83.37 36.98C82.76 37.15 81.5 37.52 80.56 37.81C79.62 38.1 78.7 38.41 78.51 38.51C78.31 38.6 78.07 38.68 77.96 38.68C77.85 38.68 76.97 39 76 39.4C75.04 39.8 73.89 40.29 73.45 40.49C73.01 40.69 71.79 41.28 70.74 41.79C69.69 42.3 68.25 43.08 67.54 43.52C66.82 43.97 65.92 44.49 65.53 44.69C65.15 44.88 64.06 45.6 63.13 46.28C62.19 46.96 61.08 47.74 60.67 48.01C60.26 48.28 59.65 48.74 59.33 49.05C59.01 49.35 58.58 49.73 58.38 49.9C58.18 50.07 57.64 50.49 57.17 50.85C56.7 51.21 55.25 52.56 53.96 53.85C52.66 55.14 51.3 56.61 50.92 57.11C50.55 57.61 50.13 58.15 49.98 58.32C49.84 58.48 49.56 58.8 49.36 59.02C49.16 59.24 48.64 59.91 48.2 60.51C47.76 61.11 47.26 61.8 47.09 62.04C46.93 62.28 46.25 63.24 45.59 64.16C44.93 65.08 44.23 66.15 44.04 66.53C43.85 66.92 43.6 67.37 43.49 67.54C43.38 67.7 43.19 68.06 43.08 68.34C42.97 68.61 42.48 69.56 41.99 70.44C41.5 71.32 41.04 72.18 40.98 72.34C40.91 72.51 40.69 73.01 40.49 73.45C40.29 73.89 39.81 75.06 39.42 76.05C39.04 77.04 38.5 78.58 38.22 79.46C37.94 80.34 37.53 81.69 37.31 82.46C37.08 83.24 36.72 84.68 36.49 85.67C36.27 86.66 35.95 88.38 35.78 89.48C35.61 90.58 35.33 92.88 35.15 94.59C34.91 96.88 34.86 98.67 34.95 101.4C35.02 103.44 35.21 106.24 35.37 107.62C35.53 108.99 35.79 110.84 35.95 111.72C36.11 112.61 36.46 114.23 36.74 115.33C37.02 116.43 37.38 117.83 37.54 118.44C37.7 119.04 38.08 120.31 38.38 121.24C38.69 122.18 39.2 123.53 39.53 124.25C39.85 124.96 40.45 126.27 40.85 127.15C41.25 128.03 41.98 129.51 42.45 130.45C42.93 131.39 43.7 132.78 44.16 133.53C44.62 134.29 45.2 135.28 45.46 135.74C45.72 136.2 46.51 137.29 47.21 138.18C47.91 139.06 49.05 140.48 49.74 141.34C50.43 142.2 51.07 142.9 51.15 142.9C51.23 142.89 51.28 142.96 51.25 143.06C51.22 143.16 52.16 144.22 53.32 145.41C54.49 146.61 55.69 147.8 55.98 148.05C56.27 148.29 56.51 148.45 56.51 148.4C56.51 148.34 57.14 148.93 57.92 149.7C58.69 150.47 59.41 151.1 59.52 151.1C59.63 151.1 60.01 151.36 60.37 151.68C60.73 152 61.79 152.77 62.73 153.39C63.66 154 64.56 154.62 64.73 154.76C64.89 154.89 65.75 155.44 66.63 155.98C67.52 156.53 69.88 157.77 71.89 158.74C73.91 159.72 75.62 160.52 75.7 160.52C75.78 160.52 76.42 160.74 77.1 161.02C77.79 161.3 79.42 161.85 80.71 162.24C82.01 162.63 83.47 163.04 83.97 163.13C84.46 163.23 85.91 163.53 87.17 163.81C88.44 164.08 90.61 164.46 91.98 164.65C93.83 164.91 95.86 165 99.7 165C103.52 165 105.58 164.91 107.41 164.66C108.79 164.48 110.69 164.18 111.62 164.01C112.56 163.84 114.54 163.38 116.03 162.99C117.52 162.6 119.64 161.97 120.74 161.59C121.84 161.21 122.86 160.79 123 160.66C123.15 160.53 123.26 160.49 123.26 160.57C123.25 160.65 123.95 160.42 124.8 160.05C125.65 159.68 127.07 159.04 127.96 158.62C128.84 158.2 130.28 157.45 131.16 156.95C132.04 156.46 133.26 155.74 133.87 155.35C134.47 154.96 135.65 154.2 136.47 153.65C137.3 153.1 138.83 151.96 139.88 151.12C140.93 150.29 142.32 149.11 142.97 148.5C143.63 147.89 144.75 146.81 145.48 146.09C146.2 145.37 147.47 144.03 148.3 143.11C149.12 142.19 150.77 140.14 151.95 138.55C153.14 136.97 154.11 135.58 154.11 135.47C154.11 135.36 154.33 135.02 154.6 134.72C154.86 134.42 155.18 133.88 155.3 133.52C155.41 133.16 155.6 132.87 155.71 132.87C155.82 132.87 156.71 131.22 157.69 129.21C158.67 127.2 159.63 125.1 159.83 124.55C160.03 124 160.25 123.46 160.32 123.35C160.39 123.24 160.75 122.2 161.1 121.04C161.46 119.88 161.89 118.53 162.07 118.04C162.24 117.54 162.69 115.74 163.06 114.03C163.43 112.32 163.87 109.84 164.04 108.52C164.21 107.19 164.4 104.26 164.47 102C164.54 99.44 164.5 96.77 164.34 94.89C164.21 93.24 163.88 90.58 163.62 88.98C163.35 87.38 162.91 85.26 162.65 84.27C162.38 83.28 161.98 81.83 161.76 81.06C161.54 80.29 161.07 78.89 160.72 77.96C160.37 77.02 160.03 76.07 159.96 75.85C159.9 75.63 159.73 75.23 159.58 74.95C159.44 74.67 159.32 74.31 159.33 74.15C159.33 73.98 159.19 73.71 159.02 73.55C158.84 73.38 158.7 73.13 158.71 73C158.71 72.86 158.26 71.87 157.7 70.79C157.14 69.72 156.49 68.5 156.25 68.09C156.01 67.68 155.26 66.41 154.58 65.28C153.9 64.15 152.93 62.69 152.43 62.02C151.92 61.36 151.31 60.55 151.06 60.23C150.81 59.9 150.2 59.13 149.7 58.52C149.2 57.91 148.64 57.23 148.45 57.01C148.26 56.79 147 55.48 145.65 54.09C144.29 52.7 142.14 50.71 140.86 49.68C139.57 48.64 138.06 47.48 137.48 47.09C136.91 46.71 136.27 46.23 136.06 46.04C135.85 45.85 134.23 44.83 132.46 43.79C130.7 42.74 129.12 41.88 128.96 41.88C128.79 41.88 128.63 41.82 128.59 41.73C128.55 41.65 127.8 41.28 126.93 40.91C126.06 40.53 124.9 40.02 124.35 39.77C123.8 39.52 122.58 39.02 121.64 38.68C120.71 38.33 118.77 37.74 117.33 37.36C115.9 36.98 113.92 36.49 112.93 36.28C111.93 36.06 109.72 35.7 108.02 35.48C106.11 35.22 103.33 35.03 100.8 34.98C98.54 34.93 95.88 34.97 94.89 35.06Z"/>
		<path class="shp2" d="M93.79 37.98C92.41 38.12 90.43 38.38 89.38 38.56C88.33 38.73 86.21 39.2 84.67 39.59C83.13 39.98 81.05 40.57 80.06 40.91C79.07 41.25 77.26 41.93 76.05 42.42C74.84 42.91 72.68 43.93 71.24 44.68C69.81 45.43 67.87 46.53 66.93 47.12C66 47.71 64.6 48.64 63.83 49.19C63.06 49.74 62.38 50.24 62.32 50.3C62.27 50.37 61.68 50.83 61.02 51.33C60.36 51.84 59.1 52.91 58.22 53.72C57.33 54.53 56.13 55.69 55.54 56.3C54.95 56.91 53.84 58.11 53.08 58.97C52.32 59.82 50.95 61.54 50.02 62.78C49.1 64.02 47.78 65.93 47.09 67.03C46.4 68.14 45.18 70.35 44.38 71.94C43.57 73.54 42.51 75.89 42.02 77.15C41.53 78.42 40.85 80.36 40.52 81.46C40.18 82.57 39.72 84.19 39.5 85.07C39.28 85.95 38.87 87.98 38.59 89.58C38.32 91.18 38 93.63 37.89 95.04C37.77 96.45 37.68 98.68 37.68 100C37.68 101.32 37.77 103.55 37.89 104.96C38 106.37 38.32 108.82 38.59 110.42C38.87 112.02 39.28 114.05 39.5 114.93C39.72 115.81 40.18 117.43 40.52 118.54C40.85 119.64 41.53 121.58 42.02 122.85C42.51 124.11 43.56 126.46 44.37 128.06C45.17 129.65 46.46 131.95 47.22 133.17C47.98 134.38 49.32 136.32 50.2 137.47C51.08 138.63 52.39 140.26 53.13 141.08C53.86 141.91 54.95 143.09 55.54 143.7C56.13 144.31 57.33 145.47 58.22 146.28C59.1 147.09 60.36 148.16 61.02 148.67C61.68 149.17 62.27 149.63 62.32 149.7C62.38 149.76 63.1 150.28 63.93 150.86C64.75 151.44 66.11 152.35 66.93 152.88C67.76 153.41 69.65 154.49 71.14 155.27C72.63 156.05 74.84 157.09 76.05 157.58C77.26 158.07 79.07 158.75 80.06 159.09C81.05 159.42 83.08 160.01 84.57 160.4C86.06 160.78 88.45 161.27 89.88 161.5C91.31 161.73 93.52 162.01 94.79 162.12C96.06 162.23 98.27 162.32 99.7 162.32C101.13 162.32 103.3 162.24 104.51 162.13C105.72 162.02 107.43 161.83 108.32 161.71C109.2 161.59 110.78 161.31 111.82 161.1C112.87 160.88 114.58 160.48 115.63 160.22C116.68 159.95 118.44 159.42 119.54 159.05C120.64 158.67 122.35 158.03 123.35 157.62C124.34 157.21 126.14 156.38 127.35 155.77C128.57 155.17 130.55 154.08 131.76 153.35C132.98 152.62 134.78 151.44 135.77 150.72C136.76 150 137.62 149.37 137.68 149.31C137.73 149.25 138.23 148.84 138.78 148.4C139.33 147.96 140.14 147.28 140.58 146.9C141.02 146.51 142.33 145.25 143.49 144.09C144.66 142.93 146.16 141.35 146.82 140.58C147.49 139.81 148.57 138.46 149.24 137.58C149.9 136.69 150.93 135.21 151.54 134.27C152.14 133.33 152.96 132.02 153.35 131.36C153.74 130.7 154.58 129.12 155.21 127.86C155.85 126.59 156.75 124.6 157.22 123.45C157.69 122.29 158.36 120.49 158.69 119.44C159.03 118.39 159.57 116.5 159.9 115.23C160.22 113.96 160.67 111.8 160.9 110.42C161.13 109.04 161.41 106.97 161.52 105.81C161.63 104.65 161.73 102.04 161.73 100C161.73 97.96 161.63 95.35 161.52 94.19C161.41 93.03 161.13 90.96 160.9 89.58C160.67 88.2 160.22 86.04 159.9 84.77C159.57 83.5 159.03 81.61 158.7 80.56C158.36 79.51 157.6 77.48 157 76.05C156.41 74.62 155.35 72.36 154.65 71.04C153.95 69.72 152.85 67.78 152.2 66.73C151.54 65.69 150.34 63.93 149.52 62.83C148.7 61.72 147.49 60.19 146.82 59.42C146.15 58.65 144.66 57.07 143.5 55.91C142.33 54.75 140.89 53.37 140.28 52.84C139.67 52.31 138.01 51 136.57 49.94C135.14 48.87 133.79 47.89 133.57 47.76C133.35 47.63 132.35 47.03 131.36 46.43C130.37 45.82 128.57 44.84 127.35 44.23C126.14 43.63 124.34 42.8 123.35 42.39C122.35 41.98 120.78 41.38 119.84 41.06C118.9 40.73 117.14 40.2 115.93 39.88C114.72 39.56 112.87 39.12 111.82 38.9C110.78 38.69 109.2 38.41 108.32 38.29C107.43 38.17 105.72 37.98 104.51 37.87C103.3 37.76 100.95 37.69 99.3 37.7C97.65 37.71 95.17 37.84 93.79 37.98Z"/>
		<path class="shp0" d="M94.39 40.88C93.45 40.98 91.69 41.21 90.48 41.39C89.27 41.57 87.24 41.97 85.97 42.29C84.7 42.6 82.81 43.14 81.76 43.48C80.72 43.81 78.96 44.47 77.86 44.93C76.75 45.39 74.99 46.21 73.95 46.75C72.9 47.29 71.59 48.01 71.04 48.35C70.49 48.69 69.54 49.29 68.94 49.68C68.33 50.07 67.07 50.97 66.13 51.67C65.2 52.38 63.58 53.69 62.55 54.58L60.67 56.21L72.34 56.31C72.18 57.17 71.96 57.64 71.77 57.92C71.57 58.19 71.1 58.62 70.72 58.87C70.07 59.31 69.89 59.33 65.83 59.32C63.51 59.32 61.33 59.4 60.97 59.52C60.61 59.63 60.23 59.9 60.12 60.12C60.01 60.34 59.92 60.79 59.92 61.12C59.92 61.46 60.1 61.9 60.32 62.12C60.69 62.5 60.99 62.53 64.73 62.53C68.16 62.53 68.74 62.57 68.74 62.83C68.74 62.99 68.62 63.42 68.47 63.78C68.33 64.14 67.94 64.63 67.62 64.89C67.05 65.33 66.92 65.34 62.53 65.33C60 65.33 57.73 65.41 57.36 65.53C57.01 65.64 56.62 65.91 56.51 66.13C56.4 66.35 56.31 66.83 56.31 67.18C56.3 67.55 56.45 67.99 56.66 68.18C56.97 68.49 57.51 68.53 61.17 68.53C63.46 68.53 65.47 68.58 65.63 68.64C65.82 68.7 65.93 68.99 65.93 69.39C65.93 69.75 65.83 70.31 65.71 70.64C65.6 70.97 65.3 71.38 65.06 71.54C64.71 71.79 63.53 71.86 58.75 71.94L52.87 72.04C52.26 72.82 52.09 73.27 52.09 73.55C52.09 73.82 52.26 74.27 52.48 74.55L52.87 75.05C63.11 75.14 63.94 75.2 64.03 75.45C64.08 75.62 64.04 76.11 63.93 76.55C63.82 76.99 63.51 77.58 63.24 77.86L62.74 78.36C53.28 78.35 50.53 78.43 50.15 78.55C49.79 78.67 49.41 78.94 49.3 79.16C49.19 79.38 49.1 79.81 49.09 80.11C49.09 80.41 49.27 80.86 49.49 81.11C49.9 81.56 49.93 81.56 56.01 81.56L62.12 81.56C62.47 82.26 62.52 82.78 62.45 83.17C62.38 83.61 62.17 83.96 61.88 84.11C61.55 84.29 59.59 84.38 54.9 84.41C49.09 84.46 48.32 84.51 47.84 84.82C47.4 85.1 47.29 85.32 47.29 85.97C47.29 86.51 47.43 86.91 47.7 87.17C48.08 87.56 48.36 87.58 54.56 87.57C59.51 87.57 61.08 87.63 61.28 87.82C61.42 87.96 61.53 88.53 61.53 89.08C61.54 89.78 61.43 90.18 61.18 90.41C60.87 90.7 60.01 90.75 54.11 90.82C49.35 90.87 47.26 90.97 46.94 91.14C46.7 91.27 46.39 91.59 46.27 91.83C46.15 92.08 46.1 92.58 46.17 92.94C46.24 93.32 46.48 93.69 46.74 93.84C47.07 94.02 49.01 94.1 53.91 94.15C59.96 94.2 60.65 94.24 60.88 94.55C61.01 94.74 61.13 95.25 61.13 95.69C61.13 96.13 61 96.67 60.84 96.89C60.57 97.28 60.26 97.3 53.31 97.39L46.06 97.49C45.17 98.57 45.09 98.83 45.19 99.3C45.27 99.63 45.46 100.04 45.62 100.2C45.86 100.45 47.07 100.52 53.2 100.6C57.65 100.66 60.59 100.78 60.72 100.9C60.83 101.01 60.98 101.46 61.04 101.9C61.12 102.45 61.06 102.83 60.85 103.11C60.57 103.49 60.29 103.51 53.57 103.56C46.92 103.61 46.57 103.63 46.14 104.01C45.8 104.31 45.7 104.59 45.74 105.14C45.78 105.68 45.94 105.98 46.36 106.29C46.9 106.7 47.18 106.72 53.77 106.78C59.87 106.84 60.65 106.89 60.87 107.18C61 107.37 61.12 107.92 61.12 108.42C61.13 109.03 61.02 109.43 60.78 109.66C60.46 109.98 59.81 110.01 54.21 110.02C50.75 110.02 47.66 110.11 47.24 110.22C46.72 110.36 46.46 110.56 46.38 110.87C46.32 111.12 46.29 111.59 46.33 111.92C46.38 112.38 46.56 112.61 47.09 112.88C47.72 113.19 48.51 113.23 54.21 113.23C58.91 113.24 60.71 113.3 60.97 113.48C61.17 113.62 61.38 114.09 61.44 114.53C61.51 115.04 61.46 115.46 61.29 115.7C61.04 116.03 60.63 116.06 55.51 116.03C52.16 116.01 49.67 116.09 49.15 116.22C48.53 116.37 48.27 116.56 48.18 116.88C48.12 117.13 48.1 117.61 48.13 117.94C48.18 118.39 48.37 118.62 48.9 118.89C49.51 119.2 50.31 119.25 55.34 119.29C60.77 119.34 61.1 119.36 61.51 119.74C61.84 120.05 61.94 120.37 61.93 121.19C61.92 122.12 61.87 122.27 61.42 122.44C61.14 122.56 58.82 122.65 56.01 122.65C51.18 122.65 51.1 122.65 50.69 123.1C50.41 123.41 50.3 123.76 50.34 124.23C50.38 124.7 50.57 125.04 50.97 125.33C51.5 125.73 51.81 125.75 56.78 125.81C61.43 125.86 62.06 125.9 62.37 126.21C62.56 126.4 62.78 127 62.85 127.56C62.94 128.28 62.9 128.62 62.7 128.79C62.51 128.95 60.94 129.05 57.67 129.09C53.2 129.15 52.9 129.18 52.62 129.56C52.45 129.78 52.31 130.21 52.31 130.51C52.31 130.81 52.39 131.24 52.51 131.46C52.62 131.68 53 131.96 53.36 132.07C53.72 132.18 55.96 132.27 58.37 132.27C61.68 132.27 62.86 132.33 63.28 132.54C63.58 132.69 63.94 133.05 64.08 133.34C64.22 133.63 64.4 134.22 64.48 134.66L64.63 135.45C57.68 135.57 57.32 135.61 56.92 135.97C56.59 136.28 56.5 136.56 56.55 137.15C56.6 137.74 56.76 138.04 57.18 138.36C57.7 138.74 58.06 138.78 61.49 138.84C63.55 138.88 65.46 138.99 65.73 139.09C66.01 139.18 66.36 139.56 66.52 139.92C66.68 140.29 66.81 140.9 66.82 141.28L66.83 141.98L58.51 142.18C60.92 144.41 62.34 145.66 63.23 146.39C64.11 147.13 65.64 148.29 66.63 148.99C67.63 149.68 69.43 150.82 70.64 151.51C71.85 152.21 73.75 153.21 74.85 153.73C75.95 154.26 77.94 155.09 79.26 155.58C80.58 156.08 82.47 156.71 83.47 156.99C84.46 157.26 86.13 157.69 87.17 157.92C88.22 158.16 90.39 158.52 91.98 158.73C93.58 158.94 96.38 159.17 98.2 159.24C100.23 159.32 102.58 159.28 104.31 159.13C105.85 159 107.99 158.76 109.07 158.6C110.14 158.45 111.9 158.13 112.98 157.9C114.05 157.68 116.1 157.13 117.54 156.68C118.97 156.24 121.27 155.43 122.65 154.88C124.02 154.33 126.1 153.38 127.25 152.77C128.41 152.16 130.35 151.02 131.56 150.24C132.78 149.45 133.9 148.7 134.07 148.57C134.23 148.43 135.14 147.71 136.07 146.96C137.01 146.21 138.54 144.83 139.48 143.89L141.18 142.18C133.36 141.99 133.16 141.96 133.1 141.58C133.07 141.36 133.25 140.74 133.5 140.2C133.76 139.66 134.15 139.12 134.37 139C134.6 138.87 136.26 138.73 138.24 138.68C141.66 138.58 141.73 138.57 142.12 138.08C142.43 137.7 142.49 137.41 142.4 136.87C142.33 136.49 142.12 136.06 141.93 135.93C141.7 135.77 140.68 135.68 138.93 135.68C137.47 135.67 136.09 135.58 135.87 135.47C135.65 135.36 135.47 135.11 135.47 134.92C135.47 134.73 135.6 134.14 135.77 133.62C135.94 133.09 136.18 132.6 136.32 132.52C136.46 132.43 138.57 132.32 141.01 132.26C145.1 132.17 145.48 132.13 145.88 131.76C146.19 131.47 146.3 131.13 146.3 130.51C146.29 129.73 146.23 129.63 145.59 129.36C145.05 129.13 144.05 129.06 141.23 129.07C138.07 129.07 137.53 129.03 137.27 128.74C137.05 128.49 137.01 128.18 137.11 127.48C137.19 126.97 137.4 126.42 137.57 126.25C137.83 126.01 138.8 125.93 142.64 125.85C145.82 125.78 147.54 125.66 147.85 125.5C148.09 125.36 148.39 124.98 148.5 124.65C148.63 124.25 148.63 123.88 148.5 123.55C148.39 123.27 148.12 122.96 147.9 122.85C147.67 122.73 145.6 122.64 143.14 122.63C140.74 122.62 138.62 122.53 138.43 122.43C138.16 122.29 138.07 121.99 138.07 121.19C138.06 120.37 138.16 120.05 138.49 119.74C138.89 119.36 139.27 119.33 144.49 119.24C149.71 119.14 150.09 119.11 150.49 118.74C150.77 118.47 150.91 118.1 150.91 117.64C150.91 117.25 150.78 116.75 150.62 116.53C150.35 116.15 150.07 116.13 144.61 116.08C138.89 116.03 138.88 116.03 138.66 115.58C138.53 115.33 138.49 114.79 138.56 114.38C138.62 113.97 138.79 113.56 138.93 113.48C139.07 113.4 141.79 113.32 144.99 113.31C148.98 113.29 150.99 113.2 151.4 113.04C151.73 112.9 152.07 112.69 152.15 112.56C152.23 112.43 152.3 112.01 152.3 111.62C152.3 111.24 152.23 110.81 152.15 110.68C152.07 110.54 151.69 110.34 151.3 110.22C150.9 110.11 148.28 110.02 145.09 110.03C140.06 110.03 139.55 110 139.23 109.68C139.02 109.45 138.88 108.99 138.88 108.42C138.87 107.8 138.98 107.41 139.22 107.17C139.54 106.87 140.29 106.83 146.03 106.77C152.22 106.72 152.5 106.7 153.04 106.29C153.35 106.06 153.64 105.66 153.67 105.39C153.71 105.13 153.69 104.71 153.62 104.46C153.56 104.21 153.35 103.94 153.16 103.86C152.96 103.78 149.8 103.66 146.13 103.61C139.74 103.51 139.43 103.49 139.16 103.11C139 102.89 138.87 102.41 138.87 102.05C138.88 101.67 139.04 101.24 139.28 101C139.66 100.62 139.95 100.6 146.14 100.59C150.6 100.58 152.82 100.5 153.3 100.34C153.8 100.17 154.05 99.93 154.18 99.5C154.33 99.04 154.3 98.77 154.04 98.35C153.83 98 153.43 97.72 152.96 97.6C152.53 97.48 149.45 97.4 145.94 97.4C139.95 97.39 139.66 97.38 139.28 96.99C139.01 96.72 138.88 96.32 138.87 95.74C138.87 95.27 138.99 94.74 139.12 94.56C139.35 94.27 140.15 94.22 145.79 94.13C151.75 94.03 152.24 94 152.71 93.64C152.98 93.42 153.24 93.03 153.27 92.77C153.31 92.5 153.22 92.08 153.07 91.83C152.92 91.58 152.54 91.27 152.2 91.14C151.81 90.99 149.46 90.89 145.39 90.84C139.84 90.78 139.14 90.73 138.82 90.43C138.61 90.21 138.45 89.73 138.42 89.16C138.39 88.57 138.48 88.12 138.68 87.9C138.95 87.59 139.57 87.56 144.99 87.57C150.74 87.59 151.03 87.57 151.55 87.18C151.95 86.88 152.11 86.6 152.11 86.12C152.11 85.75 151.96 85.33 151.76 85.13C151.56 84.95 151 84.7 150.5 84.59C149.99 84.47 147.16 84.38 143.99 84.38C138.64 84.38 138.36 84.36 137.93 83.97C137.62 83.69 137.47 83.33 137.47 82.82C137.46 82.4 137.57 81.96 137.72 81.83C137.9 81.66 139.63 81.57 143.72 81.53C149.13 81.47 149.48 81.44 149.89 81.06C150.14 80.82 150.31 80.42 150.31 80.06C150.31 79.68 150.12 79.28 149.79 78.96L149.27 78.46L136.84 78.26C136.23 77.48 136.06 77.01 136.06 76.7C136.07 76.4 136.03 76.04 135.97 75.9C135.92 75.76 135.94 75.53 136.02 75.39C136.14 75.18 137.21 75.13 140.88 75.13C144.08 75.14 145.82 75.06 146.29 74.89C146.72 74.74 147.05 74.46 147.17 74.15C147.27 73.87 147.29 73.4 147.22 73.1C147.13 72.72 146.88 72.45 146.39 72.24C145.83 72 144.69 71.94 140.68 71.94C136.27 71.94 135.6 71.9 135.07 71.59C134.74 71.4 134.37 71.02 134.26 70.74C134.14 70.47 134.08 69.88 134.11 69.44L134.17 68.64C141.83 68.53 142.43 68.48 142.74 68.18C142.95 67.98 143.1 67.55 143.09 67.18C143.09 66.83 143 66.35 142.89 66.13C142.78 65.91 142.35 65.64 141.93 65.53C141.52 65.42 139.33 65.34 137.07 65.34C133.1 65.34 132.95 65.33 132.38 64.89C132.06 64.63 131.67 64.14 131.53 63.78C131.38 63.42 131.26 62.99 131.26 62.83C131.26 62.57 131.79 62.53 134.77 62.53C137.02 62.53 138.44 62.44 138.73 62.29C138.98 62.17 139.24 61.97 139.33 61.84C139.41 61.72 139.47 61.33 139.48 60.97C139.48 60.61 139.32 60.18 139.13 59.99C138.94 59.81 138.57 59.59 138.33 59.49C138.08 59.4 136.09 59.32 133.92 59.32C131.18 59.31 129.81 59.24 129.48 59.07C129.21 58.93 128.75 58.5 128.44 58.12C128.13 57.73 127.83 57.17 127.77 56.86L127.66 56.31C136.46 56.31 139.07 56.27 139.14 56.21C139.22 56.16 138.85 55.72 138.33 55.25C137.8 54.77 136.7 53.84 135.87 53.18C135.05 52.52 133.65 51.48 132.77 50.86C131.88 50.25 130.31 49.23 129.26 48.6C128.21 47.96 126.5 47.02 125.45 46.49C124.4 45.97 122.78 45.22 121.84 44.84C120.91 44.45 119.42 43.89 118.54 43.59C117.66 43.3 115.76 42.75 114.33 42.38C112.9 42 110.46 41.51 108.92 41.28C106.81 40.96 104.86 40.84 101.1 40.78C98.35 40.74 95.33 40.79 94.39 40.88Z"/>
		<path class="shp3" d="M95.07 54.93C94.64 55.27 94.07 55.88 93.8 56.28C93.53 56.69 92.94 57.48 92.5 58.05C92.05 58.62 91.48 59.38 91.22 59.75C90.97 60.12 90.44 60.96 90.05 61.62C89.66 62.28 88.86 63.82 88.27 65.03C87.68 66.24 86.8 68.45 86.31 69.94C85.82 71.43 85.21 73.82 84.95 75.25C84.55 77.4 84.47 78.51 84.47 81.66C84.47 84.5 84.56 85.98 84.84 87.47C85.04 88.58 85.41 90.16 85.66 90.98L86.11 92.48C90.82 92.56 92.15 92.52 92.1 92.43C92.06 92.35 91.84 91.38 91.61 90.28C91.39 89.18 91.11 87.58 90.99 86.72C90.88 85.87 90.78 83.98 90.78 82.52C90.78 81.05 90.93 78.91 91.1 77.76C91.28 76.6 91.64 74.88 91.91 73.95C92.18 73.01 92.85 71.34 93.39 70.24C93.94 69.14 94.86 67.61 95.44 66.84C96.02 66.07 96.72 65.32 96.99 65.16C97.3 64.98 97.71 64.92 98.05 65C98.45 65.09 98.91 65.58 99.74 66.78C100.36 67.69 101.34 69.34 101.92 70.44C102.49 71.54 103.15 73.03 103.38 73.75C103.61 74.46 103.94 75.77 104.11 76.65C104.28 77.54 104.51 79.2 104.61 80.36C104.74 81.76 104.74 83.17 104.6 84.57C104.49 85.73 104.22 87.39 104 88.28C103.79 89.16 103.45 90.49 103.26 91.23L102.91 92.58L111.32 92.48C111.85 91.4 112.23 90.18 112.52 89.08C112.86 87.8 113.12 86.1 113.24 84.37C113.37 82.54 113.36 80.95 113.21 79.46C113.09 78.25 112.82 76.49 112.61 75.55C112.4 74.61 112.06 73.31 111.85 72.65C111.63 71.98 111.28 70.95 111.06 70.34C110.83 69.73 110.28 68.49 109.83 67.59C109.39 66.68 109.02 65.89 109.02 65.83C109.02 65.78 108.41 64.76 107.66 63.58C106.91 62.39 105.99 61 105.61 60.49C105.22 59.98 104.75 59.28 104.56 58.94C104.37 58.6 103.96 58.16 103.66 57.98C103.35 57.79 102.93 57.64 102.71 57.64C102.48 57.64 101.83 58.04 101.25 58.53L100.19 59.42C99.24 58.49 98.79 57.9 98.59 57.52C98.39 57.13 97.87 56.37 97.46 55.83C97.04 55.29 96.51 54.73 96.28 54.58C95.9 54.33 95.78 54.37 95.07 54.93Z"/>
		<path class="shp1" d="M96.66 65.4C96.35 65.66 95.58 66.63 94.95 67.56C94.33 68.48 93.5 69.91 93.11 70.74C92.73 71.57 92.19 73.01 91.92 73.95C91.64 74.88 91.28 76.6 91.1 77.76C90.93 78.91 90.78 81.05 90.78 82.52C90.78 83.98 90.88 85.87 90.99 86.72C91.11 87.58 91.38 89.18 91.61 90.28C91.83 91.38 92.08 92.35 92.15 92.43C92.22 92.52 94.67 92.56 97.59 92.53L102.9 92.48C103.45 90.47 103.78 89.16 104 88.28C104.22 87.39 104.49 85.73 104.6 84.57C104.74 83.17 104.74 81.76 104.61 80.36C104.51 79.2 104.28 77.54 104.11 76.65C103.94 75.77 103.61 74.46 103.38 73.75C103.15 73.03 102.49 71.54 101.92 70.44C101.34 69.34 100.37 67.72 99.76 66.83C99.15 65.95 98.5 65.16 98.32 65.08C98.14 65 97.82 64.93 97.61 64.93C97.4 64.93 96.97 65.14 96.66 65.4Z"/>
		<path fill-rule="evenodd" class="shp3" d="M24.09 68.47C24.17 68.56 24.58 69.31 25.75 71.64L27.61 71.89C28.62 72.03 29.46 72.21 29.46 72.29C29.47 72.38 28.88 73.03 26.83 75.05L27.16 76.85C27.33 77.85 27.45 78.73 27.42 78.81C27.38 78.89 26.66 78.6 25.8 78.16C24.95 77.72 24.11 77.35 23.95 77.35C23.78 77.35 22.95 77.71 22.09 78.15C21.24 78.59 20.51 78.92 20.48 78.9C20.45 78.88 20.52 78.18 20.64 77.35C20.76 76.53 20.9 75.69 20.95 75.5C21.01 75.27 20.61 74.7 19.74 73.8C19.02 73.05 18.44 72.38 18.44 72.29C18.44 72.21 19.26 72.03 22.08 71.64L22.81 70.24C23.22 69.47 23.63 68.72 23.74 68.57C23.85 68.42 24 68.38 24.09 68.47ZM173.45 68.34C173.5 68.34 173.85 68.99 174.23 69.79C174.6 70.59 175.03 71.35 175.18 71.48C175.33 71.61 176.24 71.83 177.21 71.98C178.17 72.12 178.97 72.29 178.97 72.34C178.97 72.4 178.38 73.03 176.32 75.05L176.63 76.95C176.8 78 176.9 78.88 176.85 78.91C176.8 78.94 176.05 78.6 175.2 78.15C174.35 77.71 173.51 77.35 173.35 77.35C173.18 77.36 172.39 77.72 171.59 78.16C170.79 78.6 170.09 78.94 170.03 78.91C169.97 78.88 170.02 78.18 170.14 77.35C170.27 76.53 170.41 75.69 170.46 75.5C170.51 75.27 170.11 74.73 169.25 73.9C168.53 73.21 167.95 72.56 167.94 72.44C167.94 72.33 168.77 72.11 171.64 71.64L172.21 70.44C172.52 69.78 172.91 69.04 173.07 68.79C173.22 68.54 173.4 68.34 173.45 68.34ZM96.89 94.01C108.16 94 111.83 94.06 112.16 94.25C112.4 94.38 112.77 94.71 112.99 94.99C113.21 95.27 113.45 95.72 113.53 95.99C113.61 96.3 113.55 96.73 113.37 97.09C113.21 97.42 112.82 97.88 112.5 98.1C111.94 98.49 111.56 98.5 97.14 98.55C84.38 98.59 82.27 98.56 81.66 98.3C81.2 98.1 80.86 97.76 80.66 97.29C80.5 96.91 80.36 96.39 80.36 96.14C80.36 95.89 80.55 95.4 80.78 95.03C81.01 94.67 81.39 94.29 81.63 94.19C81.88 94.09 88.55 94.01 96.89 94.01ZM81.8 99.99L113.19 100.1L113.72 100.6C114.01 100.88 114.33 101.4 114.44 101.75C114.59 102.26 114.55 102.57 114.28 103.13C114.09 103.53 113.66 104.01 113.33 104.19C112.79 104.48 111.1 104.51 97.26 104.51C81.88 104.51 81.79 104.51 81.23 104.09C80.92 103.86 80.56 103.36 80.44 102.99C80.28 102.49 80.28 102.12 80.44 101.63C80.56 101.25 80.92 100.73 81.23 100.47L81.8 99.99ZM21.68 105.81C21.77 105.81 22.2 106.53 22.65 107.41C23.09 108.3 23.54 109.06 23.65 109.12C23.76 109.17 24.62 109.33 25.55 109.47C26.49 109.61 27.26 109.76 27.27 109.82C27.27 109.87 26.67 110.51 24.61 112.53L24.84 114.03C24.97 114.85 25.12 115.69 25.17 115.88C25.22 116.1 25.14 116.23 24.95 116.23C24.78 116.23 24.06 115.92 23.35 115.53C22.63 115.15 21.89 114.83 21.69 114.84C21.5 114.84 20.67 115.2 19.84 115.63C19.01 116.06 18.31 116.4 18.28 116.37C18.25 116.35 18.33 115.48 18.71 112.53L17.47 111.32C16.78 110.66 16.22 110.01 16.23 109.87C16.23 109.71 16.66 109.58 17.38 109.51C18.02 109.45 18.83 109.36 19.19 109.31C19.78 109.23 19.92 109.06 20.68 107.52C21.14 106.58 21.59 105.81 21.68 105.81ZM98.5 105.91C105.16 105.96 107.51 106.04 108.1 106.25C108.62 106.42 109.09 106.79 109.46 107.31C109.83 107.84 109.99 108.25 109.91 108.52C109.84 108.74 109.52 109.17 109.2 109.47C108.88 109.77 108.23 110.13 107.77 110.26C107.16 110.44 104.32 110.51 97.8 110.51C90.32 110.51 88.5 110.46 87.69 110.22C87.08 110.03 86.53 109.69 86.22 109.32C85.82 108.84 85.75 108.58 85.85 108.02C85.92 107.63 86.09 107.19 86.23 107.04C86.36 106.89 86.74 106.62 87.07 106.45C87.4 106.27 88.13 106.07 88.68 105.99C89.23 105.91 93.65 105.87 98.5 105.91ZM178 105.93C178.09 106.03 178.5 106.79 179.7 109.12L181.46 109.42C182.44 109.58 183.27 109.81 183.31 109.92C183.35 110.03 182.84 110.64 182.17 111.27C181.32 112.08 180.96 112.57 180.96 112.93C180.96 113.2 181.07 114.05 181.21 114.82C181.35 115.59 181.4 116.26 181.31 116.32C181.23 116.38 180.44 116.05 177.97 114.73L176.21 115.59C175.24 116.06 174.43 116.42 174.42 116.39C174.4 116.36 174.52 115.48 175 112.53L173.67 111.27C172.94 110.58 172.38 109.95 172.42 109.87C172.47 109.79 173.3 109.61 176.05 109.21L176.95 107.48C177.44 106.53 177.91 105.83 178 105.93ZM97.85 111.13C98.59 111.18 99.45 111.32 99.75 111.44C100.05 111.56 100.47 111.8 100.67 111.99C100.87 112.17 101.17 112.64 101.33 113.03C101.48 113.41 101.61 113.95 101.61 114.23C101.61 114.5 101.44 115.05 101.23 115.43C100.94 115.97 100.58 116.25 99.67 116.62C98.81 116.97 98.1 117.1 96.99 117.11C96.07 117.12 95.11 117 94.49 116.79C93.94 116.6 93.29 116.24 93.05 115.99C92.82 115.74 92.52 115.15 92.4 114.68C92.22 113.97 92.24 113.71 92.54 113.09C92.73 112.69 93.14 112.17 93.46 111.94C93.77 111.71 94.58 111.41 95.26 111.28C95.94 111.15 97.1 111.08 97.85 111.13ZM93.29 118.25C94.83 118.25 97.04 118.37 98.2 118.52C99.35 118.68 100.8 118.99 101.4 119.22C102.01 119.45 102.74 119.8 103.02 119.99C103.31 120.18 103.81 120.57 104.14 120.84C104.46 121.12 105.05 121.79 105.45 122.34C105.84 122.9 106.41 123.93 106.71 124.65C107.01 125.37 107.69 126.85 108.22 127.96C108.75 129.06 109.62 130.61 110.15 131.4C110.69 132.19 111.48 133.26 111.92 133.78C112.36 134.3 113.27 135.25 113.93 135.88C114.59 136.51 115.45 137.29 115.83 137.61C116.22 137.93 117.12 138.64 117.84 139.19C118.55 139.75 120.13 140.82 121.34 141.59C122.55 142.36 123.96 143.39 124.49 143.89C125.2 144.56 125.45 144.94 125.46 145.39C125.47 145.84 125.28 146.17 124.71 146.7C124.29 147.08 123.59 147.62 123.15 147.89C122.71 148.16 122.3 148.43 122.24 148.5C122.19 148.57 121.38 149.09 120.44 149.65C119.5 150.21 118.44 150.72 118.09 150.79C117.67 150.86 117.12 150.77 116.58 150.54C116.11 150.34 115.55 150 115.33 149.79C115.11 149.57 113.94 148.55 112.73 147.52C111.51 146.48 110.25 145.37 109.92 145.05C109.59 144.73 108.85 144.29 108.27 144.08C107.59 143.82 106.7 143.69 105.76 143.69C104.96 143.69 103.99 143.6 103.61 143.5C103.22 143.4 102.61 142.99 102.25 142.6C101.68 141.97 101.6 141.75 101.6 140.73C101.6 140.1 101.72 139.26 101.88 138.88C102.04 138.49 102.37 138 102.61 137.78C102.86 137.56 103.52 137.28 105.11 136.94L104.11 136.42C103.56 136.14 102.78 135.56 102.39 135.14C101.99 134.71 101.48 134.05 101.25 133.67C101.02 133.28 100.65 132.38 100.42 131.66C100.19 130.95 99.91 129.71 99.8 128.91C99.69 128.11 99.42 127.03 99.2 126.5C98.89 125.76 98.62 125.46 97.95 125.11C97.48 124.87 96.51 124.59 95.79 124.48C95.08 124.37 93.45 124.17 92.18 124.04C90.92 123.91 89.61 123.7 89.28 123.56C88.95 123.43 88.48 123.01 88.23 122.63C87.98 122.25 87.73 121.63 87.66 121.24C87.57 120.79 87.63 120.33 87.82 119.94C87.99 119.61 88.43 119.2 88.8 119.02C89.17 118.85 89.7 118.61 89.98 118.48C90.26 118.36 91.7 118.26 93.29 118.25ZM89.56 125.16C90.73 125.23 92.36 125.42 93.19 125.58C94.01 125.73 94.89 125.99 95.14 126.16C95.39 126.32 95.65 126.7 95.71 127C95.78 127.31 95.74 127.76 95.61 128.01C95.49 128.25 95.01 128.63 94.54 128.84C94.07 129.06 92.92 129.37 91.98 129.55C91.05 129.73 89.56 129.85 88.68 129.82C87.11 129.76 87.08 129.75 86.62 129.06C86.28 128.54 86.16 128.06 86.15 127.22C86.15 126.19 86.2 126.04 86.79 125.56C87.42 125.04 87.46 125.03 89.56 125.16ZM93.62 130.73C95.64 130.76 96.01 130.81 96.38 131.16C96.61 131.38 96.88 131.79 96.97 132.06C97.06 132.34 97.06 132.84 96.97 133.17C96.89 133.5 96.65 133.92 96.45 134.1C96.25 134.3 95.58 134.49 94.89 134.57C94.23 134.64 93.37 134.78 92.99 134.88C92.6 134.98 91.7 135.07 90.98 135.07C90.27 135.07 89.45 134.95 89.18 134.81C88.9 134.68 88.52 134.25 88.33 133.86C88.13 133.48 87.97 132.94 87.97 132.67C87.97 132.38 88.21 131.92 88.52 131.61C88.92 131.21 89.39 131 90.18 130.87C90.79 130.77 92.33 130.71 93.62 130.73ZM96.39 135.36C97.22 135.41 98.28 135.58 98.75 135.76C99.4 136 99.63 136.2 99.72 136.62C99.79 136.93 99.74 137.38 99.62 137.63C99.5 137.87 98.99 138.35 98.5 138.68C97.99 139.01 97 139.41 96.24 139.58C95.5 139.74 94.33 139.87 93.64 139.88C92.55 139.88 92.3 139.81 91.77 139.33C91.43 139.03 91.07 138.48 90.97 138.13C90.83 137.64 90.86 137.35 91.08 136.97C91.25 136.7 91.59 136.34 91.83 136.18C92.08 136.02 92.87 135.75 93.59 135.58C94.37 135.4 95.49 135.32 96.39 135.36ZM12.46 136.67L46.09 136.67L47.14 138.03C47.72 138.77 48.38 139.65 48.6 139.98C48.83 140.31 49.54 141.21 50.19 141.98C50.83 142.76 52.29 144.33 53.42 145.49C54.55 146.65 56.13 148.18 56.92 148.9C57.72 149.61 59.21 150.83 60.24 151.6C61.27 152.37 62.4 153.21 62.77 153.46C63.13 153.71 63.88 154.21 64.43 154.58C64.98 154.95 66.11 155.66 66.93 156.16C67.76 156.66 69.92 157.8 71.74 158.68C73.56 159.56 75.59 160.48 76.25 160.72C76.91 160.96 78.4 161.48 79.56 161.86C80.72 162.24 82.7 162.82 83.97 163.13C85.24 163.44 87.31 163.88 88.58 164.1C89.84 164.32 91.74 164.62 92.79 164.76C93.91 164.91 96.77 165.01 99.8 165.01C103.47 165 105.61 164.91 107.41 164.66C108.79 164.47 110.69 164.18 111.62 164.01C112.56 163.84 114.54 163.38 116.03 162.99C117.52 162.6 119.59 161.98 120.64 161.63C121.69 161.27 123.36 160.64 124.35 160.23C125.34 159.81 126.92 159.11 127.86 158.67C128.79 158.22 130.28 157.45 131.16 156.95C132.04 156.46 133.26 155.74 133.87 155.35C134.47 154.96 135.65 154.2 136.47 153.65C137.3 153.1 138.83 151.96 139.88 151.13C140.93 150.29 142.68 148.79 143.77 147.8C144.86 146.81 146.71 144.91 147.88 143.58C149.05 142.25 150.77 140.15 153.41 136.66L170.49 136.67C181.74 136.67 187.58 136.74 187.58 136.87C187.58 136.98 187.31 137.68 187 138.43C186.68 139.17 186.03 140.59 185.56 141.58C185.08 142.58 184.17 144.33 183.53 145.49C182.88 146.65 182.36 147.62 182.36 147.65C182.36 147.67 181.67 148.8 180.82 150.15C179.97 151.5 178.82 153.24 178.26 154.01C177.7 154.78 177.11 155.6 176.95 155.83C176.79 156.06 176.34 156.68 175.95 157.22C175.57 157.75 174.34 159.28 173.23 160.61C172.13 161.94 170.55 163.74 169.73 164.62C168.91 165.5 167.78 166.67 167.22 167.22C166.66 167.78 165.3 169.06 164.21 170.07C163.12 171.08 161.28 172.69 160.12 173.64C158.96 174.6 157.36 175.85 156.55 176.42C155.74 176.99 154.61 177.81 154.04 178.25C153.47 178.68 152.04 179.65 150.85 180.4C149.67 181.15 148.65 181.76 148.6 181.76C148.54 181.76 147.98 182.09 147.34 182.49C146.71 182.9 144.52 184.05 142.48 185.05C140.45 186.06 138.28 187.1 137.68 187.37C137.07 187.63 135.9 188.11 135.07 188.43C134.24 188.75 132.71 189.32 131.66 189.71C130.62 190.09 128.9 190.66 127.86 190.98C126.81 191.29 125.05 191.79 123.95 192.08C122.85 192.38 120.73 192.87 119.24 193.19C117.75 193.5 114.86 193.99 112.83 194.27C110.79 194.55 107.45 194.88 105.41 195.01C103.22 195.15 100.06 195.2 97.7 195.12C95.49 195.06 92.65 194.9 91.38 194.79C90.12 194.67 87.82 194.39 86.27 194.16C84.73 193.93 82.25 193.49 80.76 193.18C79.27 192.86 76.97 192.33 75.65 191.98C74.33 191.64 71.94 190.92 70.34 190.38C68.74 189.84 66.85 189.17 66.13 188.88C65.42 188.6 64.33 188.17 63.73 187.94C63.12 187.7 61.77 187.11 60.72 186.62C59.67 186.13 58.19 185.42 57.41 185.03C56.64 184.64 54.93 183.73 53.61 183.01C52.28 182.28 50.21 181.03 49 180.24C47.79 179.44 46.04 178.26 45.13 177.62C44.21 176.98 42.23 175.48 40.72 174.28C39.21 173.09 37.04 171.24 35.89 170.17C34.74 169.11 32.98 167.38 31.96 166.33C30.95 165.29 29.54 163.79 28.84 163.01C28.13 162.23 27.01 160.93 26.35 160.11C25.69 159.29 25.11 158.57 25.05 158.52C24.99 158.46 24.54 157.88 24.05 157.21C23.55 156.55 22.93 155.7 22.66 155.31C22.4 154.92 21.31 153.3 20.25 151.7C19.19 150.11 18.21 148.57 18.08 148.3C17.94 148.02 17.56 147.34 17.23 146.79C16.9 146.24 15.97 144.48 15.15 142.89C14.33 141.29 13.47 139.48 13.22 138.88C12.98 138.27 12.71 137.53 12.62 137.22L12.46 136.67ZM98.4 139.88C98.67 139.87 99.1 140.02 99.35 140.22C99.67 140.47 100.03 141.29 100.51 142.89C100.9 144.15 101.35 145.96 101.51 146.89C101.67 147.83 101.81 149.21 101.81 149.95C101.8 150.69 101.67 151.64 101.51 152.05C101.31 152.58 100.99 152.92 100.46 153.19C100.04 153.4 99.37 153.58 98.96 153.59C98.44 153.6 98.08 153.47 97.7 153.11C97.41 152.83 97.09 152.29 96.99 151.9C96.88 151.52 96.8 149.89 96.8 148.3C96.8 146.7 96.7 144.85 96.59 144.19C96.47 143.53 96.28 142.76 96.16 142.48C96.05 142.21 96.01 141.74 96.07 141.43C96.15 141.06 96.47 140.72 97.04 140.39C97.51 140.12 98.12 139.89 98.4 139.88Z"/>
		<path class="shp4" d="M43.97 147.63C43.65 147.92 41.73 149.74 39.7 151.68C37.68 153.62 35.63 155.57 35.15 156.01L34.28 156.81C36.21 158.87 37.86 160.6 39.18 161.99C40.5 163.38 41.67 164.52 41.78 164.52C41.89 164.53 42.39 164.18 42.89 163.74L43.79 162.94C43.01 162.22 41.82 161 40.63 159.77C39.45 158.53 38.48 157.38 38.48 157.21C38.48 157.05 38.95 156.46 39.53 155.91C40.11 155.36 40.72 154.91 40.88 154.91C41.05 154.91 42.15 155.94 43.34 157.21C44.52 158.48 45.6 159.52 45.74 159.52C45.88 159.52 46.35 159.17 46.79 158.73L47.6 157.94C43.66 153.98 43.1 153.28 43.1 152.91C43.11 152.56 43.4 152.17 44.05 151.62L44.99 150.84C48.87 154.92 50.09 156.11 50.2 156.11C50.31 156.12 50.76 155.76 51.2 155.32L52 154.51C51.23 153.68 50 152.4 48.78 151.12C47.56 149.84 46.21 148.41 45.77 147.94C45.34 147.46 44.89 147.08 44.77 147.08C44.65 147.09 44.29 147.33 43.97 147.63ZM153.92 148.25C153.48 148.77 153.11 149.31 153.11 149.45C153.11 149.59 153.23 149.77 153.38 149.85C153.53 149.93 154.17 150.45 154.81 151C155.45 151.55 156.07 152.1 156.19 152.21C156.31 152.32 157.19 153.08 158.13 153.91C159.08 154.74 160.69 156.13 161.71 157.01C162.73 157.9 163.65 158.64 163.75 158.67C163.85 158.69 164.57 157.97 165.36 157.06C166.15 156.15 167.07 155.09 167.41 154.71C167.76 154.32 168.55 153.39 169.19 152.65C169.82 151.91 170.34 151.23 170.34 151.15C170.35 151.07 170.1 150.77 169.79 150.49C169.49 150.21 169.08 149.87 168.89 149.74C168.58 149.53 168.27 149.8 166.39 151.95C165.2 153.3 164.15 154.48 164.03 154.56C163.92 154.64 163.78 154.7 163.73 154.71C163.67 154.71 163.4 154.5 163.13 154.25C162.85 154 161 152.4 159.02 150.7C157.03 148.99 155.39 147.53 155.36 147.44C155.33 147.36 155.18 147.29 155.02 147.29C154.87 147.29 154.37 147.72 153.92 148.25ZM146.84 155.17L145.68 156.21C148.81 164.13 150.06 167.31 150.46 168.39C150.87 169.46 151.25 170.34 151.3 170.34C151.36 170.33 151.9 169.89 152.51 169.35L153.61 168.38C152.75 166.33 152.5 165.66 152.5 165.58C152.49 165.5 153.35 164.69 154.4 163.78C155.45 162.87 156.38 162.12 156.46 162.12C156.55 162.13 157.13 162.44 157.77 162.83C158.4 163.21 158.99 163.53 159.07 163.53C159.15 163.53 159.69 163.12 160.27 162.63C160.85 162.13 161.32 161.63 161.32 161.52C161.32 161.41 159.23 160.14 156.66 158.69C154.1 157.24 151.24 155.62 150.3 155.09C149.36 154.55 148.46 154.11 148.3 154.11C148.13 154.12 147.48 154.59 146.84 155.17ZM50.4 162.33C47.09 164.65 44.37 166.63 44.34 166.74C44.31 166.85 44.76 167.25 45.34 167.64C45.92 168.02 46.53 168.33 46.69 168.33C46.86 168.33 47.49 167.97 48.1 167.54L49.2 166.75C52.42 168.99 53.38 169.68 53.41 169.74C53.44 169.79 53.3 170.38 53.09 171.04C52.88 171.7 52.71 172.38 52.7 172.55C52.7 172.71 53.24 173.23 53.9 173.7C54.57 174.17 55.15 174.53 55.19 174.5C55.23 174.47 55.54 173.5 55.88 172.34C56.22 171.19 57.13 168.01 57.91 165.28C58.68 162.55 59.32 160.21 59.32 160.07C59.33 159.93 58.78 159.44 58.12 158.97C57.46 158.5 56.8 158.12 56.66 158.12C56.53 158.12 53.71 160.01 50.4 162.33Z"/>
		<path class="shp3" d="M149.76 158.8C149.79 159.03 150.08 159.88 150.41 160.69C150.73 161.5 151.16 162.31 151.35 162.5C151.67 162.8 151.74 162.79 152.4 162.27C152.79 161.97 153.24 161.52 153.41 161.27C153.58 161.02 153.67 160.69 153.61 160.52C153.55 160.36 152.85 159.83 152.05 159.34C151.26 158.86 150.4 158.45 150.16 158.43C149.81 158.4 149.72 158.49 149.76 158.8Z"/>
		<path class="shp4" d="M136.77 162.1C136.22 162.3 135.41 162.69 134.97 162.96C134.53 163.24 133.9 163.77 133.56 164.15C133.23 164.52 132.73 165.28 132.46 165.83C132.04 166.68 131.96 167.12 131.96 168.65C131.96 170.38 132.01 170.56 132.79 172.16C133.3 173.19 134 174.23 134.6 174.83C135.13 175.38 136.07 176.05 136.67 176.34C137.57 176.76 138.07 176.85 139.38 176.85C140.77 176.85 141.14 176.77 142.18 176.22C142.85 175.88 143.7 175.25 144.07 174.83C144.45 174.4 144.87 173.78 145 173.45C145.13 173.12 145.39 172.78 145.57 172.7C145.77 172.6 145.99 172.66 146.14 172.85C146.28 173.02 146.51 173.16 146.64 173.16C146.78 173.15 147.17 172.99 147.5 172.8C147.83 172.6 148.1 172.38 148.1 172.29C148.1 172.21 147.58 171.22 146.95 170.09C146.32 168.96 145.62 167.71 145.4 167.31C145.17 166.91 144.85 166.38 144.69 166.13L144.39 165.68C140.51 167.92 139.36 168.61 139.33 168.65C139.3 168.7 139.5 169.14 139.78 169.64C140.06 170.14 140.39 170.54 140.53 170.54C140.67 170.53 141.26 170.26 141.83 169.93C142.7 169.44 142.94 169.38 143.2 169.59C143.39 169.75 143.5 170.16 143.5 170.74C143.49 171.28 143.32 171.91 143.09 172.29C142.87 172.65 142.26 173.22 141.73 173.55C141.02 174.01 140.55 174.15 139.83 174.15C139.31 174.15 138.58 174.03 138.23 173.88C137.87 173.73 137.22 173.21 136.79 172.73C136.35 172.24 135.74 171.3 135.43 170.64C135.05 169.84 134.85 169.07 134.82 168.34C134.8 167.59 134.92 166.98 135.18 166.44C135.4 166 135.93 165.38 136.37 165.07C136.89 164.7 137.53 164.46 138.18 164.38C138.98 164.29 139.33 164.36 139.98 164.72L140.78 165.17C142.57 164.21 143.09 163.82 143.08 163.68C143.08 163.54 142.79 163.18 142.43 162.88C142.08 162.58 141.38 162.19 140.88 162.02C140.39 161.86 139.48 161.72 138.88 161.73C138.27 161.73 137.32 161.9 136.77 162.1Z"/>
		<path class="shp3" d="M53.16 163.74C52.22 164.42 51.54 165.04 51.59 165.18C51.65 165.32 52.16 165.77 52.75 166.19C53.33 166.61 53.94 166.9 54.11 166.85C54.28 166.79 54.69 165.92 55.03 164.89C55.38 163.86 55.63 162.91 55.59 162.78C55.54 162.64 55.35 162.53 55.16 162.54C54.97 162.55 54.07 163.09 53.16 163.74Z"/>
		<path class="shp4" d="M65.09 164.32C64.79 164.4 64.3 164.61 63.99 164.78C63.68 164.95 63.19 165.35 62.89 165.66C62.6 165.98 62.22 166.59 62.04 167.03C61.86 167.47 61.72 168.13 61.72 168.49C61.72 168.85 61.85 169.43 62 169.79C62.15 170.15 62.58 170.74 62.95 171.12C63.32 171.49 64.26 172.26 65.03 172.84C65.8 173.42 66.68 174.16 66.99 174.47C67.35 174.85 67.55 175.26 67.55 175.65C67.54 175.98 67.36 176.46 67.14 176.7C66.85 177.03 66.51 177.15 65.93 177.15C65.49 177.15 64.66 176.94 64.08 176.68C63.5 176.42 62.8 175.96 62.53 175.66C62.17 175.28 61.99 174.81 61.92 174.09L61.82 173.06C60.04 172.27 59.45 172.12 59.37 172.21C59.29 172.3 59.18 172.94 59.14 173.61C59.07 174.62 59.15 175.04 59.54 175.84C59.8 176.38 60.43 177.18 60.92 177.61C61.42 178.03 62.27 178.6 62.83 178.86C63.38 179.11 64.41 179.44 65.13 179.58C66.2 179.78 66.61 179.78 67.43 179.55C68.02 179.39 68.76 178.98 69.22 178.57C69.65 178.17 70.12 177.56 70.27 177.2C70.42 176.85 70.54 176.1 70.54 175.55C70.54 175 70.46 174.35 70.35 174.1C70.25 173.85 69.91 173.37 69.6 173.03C69.29 172.69 68.63 172.11 68.14 171.73C67.64 171.35 67.01 170.86 66.74 170.64C66.47 170.42 65.9 169.92 65.47 169.54C64.89 169.02 64.69 168.68 64.69 168.24C64.69 167.84 64.86 167.48 65.21 167.18C65.5 166.94 65.93 166.73 66.18 166.74C66.43 166.74 66.99 166.85 67.43 166.99C67.87 167.12 68.57 167.55 68.98 167.94C69.62 168.54 69.73 168.76 69.74 169.54L69.75 170.44C71.61 171.3 72.23 171.5 72.34 171.44C72.45 171.39 72.6 170.91 72.66 170.39C72.73 169.87 72.69 169.08 72.57 168.64C72.46 168.19 71.98 167.4 71.5 166.85C71.03 166.31 70.33 165.67 69.94 165.43C69.55 165.19 68.79 164.85 68.24 164.68C67.69 164.51 66.87 164.32 66.43 164.27C65.99 164.21 65.39 164.24 65.09 164.32ZM127.14 167.21C126.37 167.49 125.96 167.75 125.99 167.94C126.01 168.1 126.53 169.72 127.15 171.54C127.77 173.36 128.3 175.14 128.32 175.5C128.35 176.06 128.3 176.13 127.96 176.02C127.74 175.95 126.47 174.94 125.15 173.77C123.83 172.6 122.43 171.36 122.04 171.01C121.66 170.66 121.09 170.19 120.79 169.96L120.24 169.54C118.3 170.2 117.67 170.45 117.59 170.52C117.5 170.59 118.44 173.62 119.67 177.25C120.9 180.89 121.96 183.93 122.02 184.02C122.09 184.1 122.71 183.99 123.4 183.77C124.41 183.44 124.63 183.3 124.54 183.02C124.47 182.82 123.89 181.09 123.24 179.16C122.58 177.23 122.05 175.4 122.05 175.1C122.04 174.56 122.05 174.55 122.6 174.85C122.9 175.01 124.75 176.55 126.7 178.26L130.26 181.36C132.36 180.7 132.99 180.5 133.02 180.48C133.05 180.47 132.08 177.48 130.85 173.85C129.63 170.21 128.56 167.13 128.48 167.01C128.37 166.84 127.99 166.9 127.14 167.21ZM74.58 169.24C74.45 169.84 74.39 170.43 74.45 170.54C74.5 170.65 75.32 170.94 76.27 171.19C77.6 171.54 78 171.73 78.08 172.04C78.14 172.26 77.87 173.53 77.48 174.85C77.1 176.17 76.45 178.43 76.04 179.86C75.63 181.29 75.28 182.64 75.27 182.85C75.25 183.17 75.5 183.31 76.65 183.6C77.42 183.8 78.06 183.94 78.07 183.91C78.08 183.89 78.65 181.84 79.33 179.36C80.02 176.88 80.74 174.4 80.93 173.85C81.24 172.94 81.33 172.85 81.87 172.86C82.2 172.86 83.12 173.07 83.92 173.31L85.37 173.75C85.7 172.89 85.81 172.33 85.83 171.95L85.87 171.25C82.45 170.26 80.61 169.73 79.56 169.43C78.51 169.13 77.07 168.72 76.35 168.51C75.64 168.3 74.99 168.13 74.93 168.13C74.86 168.13 74.7 168.63 74.58 169.24ZM110.43 171.61L105.53 172.23C105.6 173.17 105.75 174.39 105.91 175.55C106.06 176.71 106.43 179.64 106.73 182.06C107.03 184.49 107.28 186.49 107.29 186.51C107.3 186.54 109.43 186.29 112.02 185.97C114.61 185.65 117.03 185.34 117.38 185.28C118.03 185.17 118.04 185.17 117.99 184.09C117.96 183.49 117.86 182.93 117.77 182.83C117.68 182.74 116.24 182.83 114.57 183.04C112.89 183.24 111.3 183.45 111.02 183.5C110.75 183.55 110.36 183.47 110.17 183.33C109.92 183.15 109.77 182.64 109.67 181.7C109.55 180.63 109.58 180.28 109.8 180.1C109.96 179.97 111.49 179.68 113.21 179.46L116.33 179.06C116.24 177.66 116.17 177.1 116.12 176.9C116.05 176.63 115.88 176.57 115.38 176.65C115.02 176.7 113.65 176.89 112.32 177.07C110.5 177.33 109.81 177.35 109.47 177.18C109.1 176.99 109 176.74 108.91 175.7C108.85 175.01 108.82 174.44 108.86 174.42C108.89 174.41 110.54 174.19 112.53 173.94C114.51 173.68 116.16 173.47 116.19 173.46C116.23 173.45 116.22 172.88 116.17 172.19C116.1 171.12 116.04 170.94 115.71 170.96C115.5 170.97 113.13 171.26 110.43 171.61ZM91.53 173.48C91.45 174.23 91.33 177.46 91.26 180.66L91.12 186.47C94.2 186.7 95.92 186.77 96.94 186.77C97.96 186.77 99.27 186.67 99.85 186.54C100.51 186.39 101.15 186.07 101.58 185.69C101.95 185.35 102.42 184.73 102.63 184.32C102.88 183.82 103 183.15 103 182.31C103 181.43 102.88 180.87 102.6 180.41C102.38 180.05 102.02 179.67 101.8 179.56C101.58 179.45 101.4 179.22 101.4 179.06C101.4 178.89 101.54 178.69 101.7 178.61C101.86 178.52 102.18 178.1 102.4 177.66C102.63 177.21 102.81 176.58 102.81 176.25C102.8 175.92 102.71 175.31 102.6 174.9C102.49 174.49 102.16 173.9 101.85 173.59C101.55 173.29 100.85 172.89 100.3 172.71C99.59 172.47 98.18 172.34 95.48 172.24L91.67 172.11L91.53 173.48Z"/>
		<path class="shp3" d="M94.35 176.18C94.28 176.99 94.25 177.72 94.3 177.81C94.35 177.89 95.4 177.96 96.64 177.96C98.51 177.97 98.98 177.91 99.37 177.61C99.72 177.34 99.83 177.06 99.83 176.45C99.82 175.91 99.69 175.52 99.4 175.25C99.05 174.91 98.65 174.84 96.74 174.77L94.49 174.7L94.35 176.18ZM94.19 182.26L94.19 184.17C98.79 184.18 98.92 184.16 99.45 183.67C99.89 183.26 100 182.99 100 182.26C100 181.58 99.89 181.27 99.55 180.97C99.3 180.75 98.83 180.52 98.5 180.46C98.17 180.4 97.06 180.36 96.04 180.36L94.19 180.36L94.19 182.26Z"/>
	</g>
</svg>