<svg xmlns:dc="http://purl.org/dc/elements/1.1/" xmlns:cc="http://creativecommons.org/ns#" xmlns:rdf="http://www.w3.org/1999/02/22-rdf-syntax-ns#" xmlns:svg="http://www.w3.org/2000/svg" xmlns="http://www.w3.org/2000/svg" xmlns:sodipodi="http://sodipodi.sourceforge.net/DTD/sodipodi-0.dtd" xmlns:inkscape="http://www.inkscape.org/namespaces/inkscape" version="1.1" id="Capa_1" x="0px" y="0px" width="205.41" height="252" viewBox="0 0 205.41 311.17365" xml:space="preserve" inkscape:version="0.48.4 r9939" sodipodi:docname="Elche CF 2013.svg"><metadata id="metadata131"><rdf:RDF><cc:Work rdf:about=""><dc:format>image/svg+xml</dc:format><dc:type rdf:resource="http://purl.org/dc/dcmitype/StillImage"/></cc:Work></rdf:RDF></metadata><defs id="defs129"/><sodipodi:namedview pagecolor="#ffffff" bordercolor="#666666" borderopacity="1" objecttolerance="10" gridtolerance="10" guidetolerance="10" inkscape:pageopacity="0" inkscape:pageshadow="2" inkscape:window-width="1920" inkscape:window-height="1018" id="namedview127" showgrid="false" fit-margin-top="0" fit-margin-left="0" fit-margin-right="0" fit-margin-bottom="0" inkscape:zoom="3.1785714" inkscape:cx="102.705" inkscape:cy="126" inkscape:window-x="-8" inkscape:window-y="-8" inkscape:window-maximized="1" inkscape:current-layer="Capa_1"/>
<path d="m 144.43414,1.9164373 c 17.029,33.0289997 47.819,55.2509997 83.277,63.0679997 v 60.917013 c -18.4,16.648 -33.265,44.057 -44.594,82.22 -14.32,43.95 -33.636,68.282 -80.547,101.187 -36.422997,-21.524 -66.462997,-48.483 -80.179997,-97.209 -10.327,-39.709 -24.1680004,-67.286 -44.662,-87.014 V 64.943437 c 42.107,-12.751 69.796,-33.624 83.063,-62.6189997 l 83.642997,-0.408 z" id="path3" inkscape:connector-curvature="0" style="fill:#e6c777"/>
<path d="m 144.43414,1.9164373 -0.532,0.274 c 17.114,33.1959997 48.062,55.5259997 83.681,63.3779997 l 0.129,-0.584 h -0.598 v 60.917013 h 0.598 l -0.4,-0.443 c -18.523,16.764 -33.418,44.27 -44.768,82.492 l 0.574,0.171 -0.57,-0.186 c -7.146,21.933 -15.52,38.922 -27.949,54.548 -12.433,15.626 -28.939,29.898 -52.37,46.334 l 0.343,0.49 0.305,-0.516 c -36.362997,-21.498 -66.231997,-48.307 -79.907997,-96.855 l -0.576,0.162 0.579,-0.15 c -10.341,-39.766 -24.2230004,-67.463 -44.825,-87.295 l -0.416,0.432 h 0.598 V 64.943437 h -0.598 l 0.173,0.573 c 42.203,-12.776 70.077,-33.748 83.434,-62.9419997 l -0.544,-0.249 0.003,0.599 83.641997,-0.409 -0.005,-0.599 -0.532,0.274 0.532,-0.274 -0.004,-0.599 -84.022997,0.411 -0.158,0.347 c -13.178,28.7949997 -40.682,49.5679997 -82.692,62.2949997 l -0.425,0.128 v 60.839013 l 0.183,0.177 c 20.3859996,19.624 34.185,47.081 44.497,86.733 l 0.004,0.014 v -0.002 c 13.758,48.902 43.967,76.013 80.450997,97.562 l 0.332,0.196 0.316,-0.222 c 23.479,-16.469 40.084,-30.813 52.619,-46.567 12.535,-15.754 20.979,-32.905 28.152,-54.923 l 0.005,-0.016 0,0 c 11.31,-38.104 26.146,-65.414 44.423,-81.945 l 0.196,-0.179 V 64.501437 l -0.469,-0.104 c -35.3,-7.783 -65.931,-29.895 -82.876,-62.7569997 l -0.168,-0.327 -0.367,0.001 0.004,0.602 z" id="path5" inkscape:connector-curvature="0" style="fill:#866b10"/>
<path d="m 27.937143,190.33745 c -6.966,-23.174 -18.3170004,-46.83 -28.9620004,-58.42 l 208.8459974,0.001 c -13.537,16.298 -22.943,37.61 -29.596,58.419 H 27.937143 z" id="path7" inkscape:connector-curvature="0" style="fill:#c5112e"/>
<path d="m 27.937143,190.33745 0.573,-0.172 c -6.994,-23.243 -18.337,-46.928 -29.0940004,-58.653 l -0.441,0.405 v 0.599 l 208.8459974,0.001 v -0.599 l -0.461,-0.382 c -13.611,16.392 -23.037,37.768 -29.705,58.619 l 0.57,0.182 v -0.598 H 27.937143 v 0.598 l 0.573,-0.172 -0.573,0.172 v 0.6 H 178.66114 l 0.135,-0.417 c 6.637,-20.767 16.023,-42.015 29.486,-58.22 l 0.814,-0.98 -211.4839974,-0.001 0.922,1.003 c 10.534,11.455 21.8910004,35.082 28.8300004,58.188 l 0.127,0.427 h 0.446 v -0.6 z" id="path9" inkscape:connector-curvature="0" style="fill:#c5112e"/>
<path d="m -9.4228575,119.34045 c 0.119,0.044 -0.162,-47.454013 -0.162,-47.454013 11.2010002,-2.413 22.0290005,-6.684 32.2110005,-12.6 V 119.34045 H -9.4228575 z" id="path11" inkscape:connector-curvature="0" style="fill:#ffffff"/>
<path d="m 180.86014,59.003437 c 10.624,6.558 22.082,11.262 34.572,14.108 l -0.043,46.229013 h -34.529 V 59.003437 z" id="path13" inkscape:connector-curvature="0" style="fill:#ffffff"/>
<path d="m 30.905143,54.013437 c 13.615,-9.455 27.202,-21.434 35.951,-38.933 h 71.192997 c 8.988,15.137 21.961,29.02 34.529,38.315 V 119.34045 H 30.905143 V 54.013437 z" id="path15" inkscape:connector-curvature="0" style="fill:#ffffff"/>
<path d="m 53.610143,251.24245 c -16.813,-19.75 -22.233,-51.208 -22.233,-51.208 H 174.73914 c -1.644,4.767 -5.471,26.19 -24.582,51.208 H 53.610143 z" id="path17" inkscape:connector-curvature="0" style="fill:#1b458f"/>
<path d="m 102.33414,295.11445 c -13.292997,-7.266 -28.260997,-19.266 -36.895997,-28.854 h 71.663997 c -8.353,8.666 -21.979,20.395 -34.768,28.854 z" id="path19" inkscape:connector-curvature="0" style="fill:#1b458f"/>
<path d="m 55.267143,254.08245 h 92.950997 l -8.16,8.985 H 63.194143 c -3.033,-3.013 -5.563,-5.912 -7.927,-8.985 z" id="path21" inkscape:connector-curvature="0" style="fill:#05642c"/>
<rect x="56.301147" y="221.34346" width="3.164" height="13.51" id="rect23" style="fill:#e6c777"/>
<rect x="152.80115" y="204.19347" width="3.1659999" height="13.512" id="rect25" style="fill:#e6c777"/>
<path d="m 145.97114,221.05745 -5.441,13.509 h 3.182 l 1.13,-3.008 h 5.381 l 1.088,3.008 h 3.285 l -5.38,-13.509 h -3.245 z m -0.303,8.291 1.873,-4.96 h 0.041 l 1.813,4.96 h -3.727 z" id="path27" inkscape:connector-curvature="0" style="fill:#e6c777;fill-rule:evenodd"/>
<path d="m 55.775143,208.70445 h 3.065 c -0.095,-0.78 -0.322,-1.473 -0.685,-2.08 -0.363,-0.607 -0.827,-1.109 -1.392,-1.515 -0.553,-0.415 -1.183,-0.729 -1.896,-0.944 -0.697,-0.215 -1.443,-0.324 -2.236,-0.324 -1.102,0 -2.096,0.184 -2.984,0.548 -0.871,0.368 -1.611,0.87 -2.215,1.516 -0.604,0.646 -1.066,1.403 -1.391,2.272 -0.322,0.857 -0.484,1.789 -0.484,2.799 0,0.985 0.162,1.904 0.484,2.763 0.324,0.843 0.787,1.582 1.391,2.212 0.604,0.633 1.344,1.132 2.215,1.496 0.889,0.354 1.883,0.529 2.984,0.529 0.887,0 1.7,-0.126 2.438,-0.377 0.74,-0.252 1.385,-0.62 1.938,-1.1 0.55,-0.477 0.991,-1.057 1.33,-1.739 0.334,-0.682 0.543,-1.443 0.622,-2.291 h -3.063 c -0.12,0.911 -0.453,1.64 -1.005,2.198 -0.54,0.555 -1.292,0.832 -2.259,0.832 -0.712,0 -1.316,-0.129 -1.813,-0.381 -0.5,-0.266 -0.9,-0.611 -1.209,-1.04 -0.311,-0.427 -0.541,-0.908 -0.688,-1.438 -0.133,-0.542 -0.202,-1.098 -0.202,-1.665 0,-0.593 0.069,-1.166 0.202,-1.724 0.146,-0.552 0.377,-1.048 0.688,-1.475 0.309,-0.442 0.709,-0.789 1.209,-1.041 0.496,-0.265 1.101,-0.396 1.813,-0.396 0.391,0 0.759,0.063 1.107,0.19 0.365,0.112 0.686,0.273 0.97,0.489 0.28,0.215 0.519,0.467 0.706,0.757 0.187,0.28 0.308,0.589 0.36,0.929 z" id="path29" inkscape:connector-curvature="0" style="fill:#e6c777"/>
<path d="m 12.718143,87.836437 h 5.591 c -0.175,-1.964 -0.59,-3.703 -1.252,-5.225 -0.664,-1.518 -1.509,-2.787 -2.537,-3.8 -1.006,-1.044 -2.156,-1.836 -3.454,-2.375 -1.2750004,-0.536 -2.6350004,-0.805 -4.0810004,-0.805 -2.01,0 -3.825,0.458 -5.4399999,1.375 -1.5920001,0.917 -2.9390001,2.185 -4.0420001,3.8 -1.1040002,1.614 -1.9490002,3.513 -2.5360002,5.701 -0.589,2.15 -0.886,4.495 -0.886,7.028 0,2.469 0.297,4.782 0.886,6.933013 0.586,2.123 1.431,3.975 2.5360002,5.559 1.102,1.583 2.45,2.833 4.0420001,3.753 1.6149999,0.885 3.4309999,1.327 5.4399999,1.327 1.619,0 3.1000004,-0.313 4.4460004,-0.95 1.351,-0.634 2.525,-1.549 3.528,-2.752 1.008,-1.204 1.815,-2.663 2.428,-4.371 0.611,-1.711 0.992,-3.625015 1.139,-5.745013 h -5.586 c -0.222,2.278998 -0.832,4.115013 -1.84,5.508013 -0.981,1.393 -2.3500004,2.089 -4.1150004,2.089 -1.298,0 -2.401,-0.315 -3.309,-0.949 -0.908,-0.663 -1.64,-1.536 -2.2069999,-2.615 -0.56300002,-1.075 -0.97900005,-2.278015 -1.24700005,-3.609013 -0.24700005,-1.359 -0.36800005,-2.752 -0.36800005,-4.178 0,-1.489 0.121,-2.93 0.36800005,-4.323 0.268,-1.394 0.68400003,-2.627 1.24700005,-3.707 0.5669999,-1.106 1.2989999,-1.976 2.2069999,-2.609 0.908,-0.667 2.011,-1 3.309,-1 0.711,0 1.386,0.159 2.021,0.477 0.663,0.287 1.2520004,0.698 1.7640004,1.234 0.518,0.54 0.945,1.169 1.287,1.898 0.345,0.7 0.565,1.476 0.661,2.331 z" id="path31" inkscape:connector-curvature="0" style="fill:#e6c777"/>
<path d="m 12.718143,87.836437 v 0.599 h 6.244 l -0.058,-0.652 c -0.18,-2.016 -0.607,-3.819 -1.301,-5.41 -0.688,-1.577 -1.574,-2.914 -2.664,-3.987 l -0.42,0.426 0.432,-0.415 c -1.059,-1.1 -2.282,-1.943 -3.656,-2.513 -1.3480003,-0.567 -2.7910004,-0.851 -4.3110004,-0.851 -2.101,0 -4.028,0.483 -5.7359999,1.453 -1.6760001,0.965 -3.0930001,2.301 -4.2410001,3.982 -1.1470002,1.678 -2.0180002,3.641 -2.6190002,5.884 -0.604,2.205 -0.906,4.603 -0.906,7.183 0,2.517 0.303,4.884 0.907,7.091013 0.602,2.179 1.474,4.096 2.6220002,5.742 1.147,1.649 2.564,2.966 4.2330001,3.929 l 0.005,0.004 0.007,0.003 c 1.7079999,0.938 3.6299999,1.402 5.7279999,1.401 1.695,0.001 3.2710004,-0.331 4.7020004,-1.008 1.428,-0.67 2.678,-1.646 3.731,-2.91 1.06,-1.265 1.9,-2.789 2.531,-4.552 0.633,-1.771 1.023,-3.740015 1.174,-5.905013 l 0.044,-0.64 h -6.771 l -0.053,0.541 c -0.214,2.206998 -0.8,3.935013 -1.728,5.215013 l -0.004,0.004 v 10e-4 c -0.8950004,1.246 -2.0200004,1.822 -3.6270004,1.835 -1.202,-0.002 -2.17,-0.287 -2.966,-0.841 l -0.342,0.491 0.353,-0.483 c -0.829,-0.606 -1.499,-1.401 -2.0289999,-2.41 -0.534,-1.02001 -0.932,-2.167015 -1.19000005,-3.449013 l -0.586,0.118 0.589,-0.107 c -0.24,-1.322 -0.358,-2.679 -0.358,-4.07 0,-1.457 0.119,-2.861 0.358,-4.219 l -0.589,-0.104 0.587,0.113 c 0.25800005,-1.345 0.65800005,-2.522 1.19000005,-3.542 l 0.008,-0.017 -0.006,0.013 c 0.5289999,-1.035 1.1959999,-1.819 2.0159999,-2.391 l 0.004,-0.003 0.007,-0.005 c 0.796,-0.583 1.758,-0.882 2.955,-0.884 0.621,0 1.199,0.137 1.754,0.414 l 0.016,0.008 0.014,0.006 c 0.59,0.255 1.1090001,0.618 1.5690004,1.099 0.47,0.491 0.86,1.063 1.178,1.739 l 0.006,0.01 c 0.311,0.632 0.515,1.338 0.603,2.13 l 0.06,0.533 h 0.535 v -0.599 l 0.595,-0.066 c -0.103,-0.916 -0.342,-1.762 -0.719,-2.527 l -0.537,0.265 0.541,-0.254 c -0.366,-0.783 -0.832,-1.471 -1.396,-2.059 -0.563,-0.591 -1.2220003,-1.051 -1.9590004,-1.369 l -0.236,0.549 0.268,-0.536 c -0.716,-0.358 -1.488,-0.541 -2.289,-0.54 -1.398,-0.002 -2.645,0.367 -3.664,1.117 l 0.355,0.482 -0.342,-0.491 c -0.996,0.694 -1.7939999,1.648 -2.39699992,2.827 l 0.009,-0.017 -0.007,0.013 c -0.59400003,1.137 -1.02800008,2.429 -1.30500008,3.871 l -0.002,0.009 v 0 c -0.252,1.43 -0.375,2.905 -0.375,4.427 0,1.459 0.123,2.888 0.377,4.284 l 0.001,0.008 0.001,0.003 c 0.277,1.379998 0.71100005,2.639013 1.30300008,3.769013 0.60400002,1.15 1.39699992,2.1 2.38399992,2.82 l 0.005,0.004 0.005,0.004 c 1.019,0.712 2.258,1.058 3.651,1.056 1.922,0.014 3.5350004,-0.803 4.6040004,-2.343 l -0.489,-0.345 0.486,0.351 c 1.086,-1.504 1.721,-3.450015 1.949,-5.802013 l -0.596,-0.057 v 0.598 h 5.586 v -0.598 l -0.597,-0.042 c -0.144,2.073998 -0.516,3.934013 -1.105,5.584013 -0.593,1.653 -1.367,3.047 -2.323,4.188 -0.953,1.143 -2.055,1.998 -3.323,2.595 -1.2640003,0.597 -2.6500004,0.894 -4.1920004,0.894 -1.923,0 -3.63,-0.42 -5.1529999,-1.254 l -0.288,0.525 0.299,-0.519 c -1.51500005,-0.875 -2.7920001,-2.06 -3.8490001,-3.577 -1.062,-1.521 -1.8780002,-3.308 -2.4500002,-5.375 -0.574,-2.093013 -0.865,-4.352013 -0.865,-6.773013 0,-2.487 0.291,-4.777 0.865,-6.87 0.573,-2.137 1.3920002,-3.971 2.4520002,-5.521 1.058,-1.549 2.33600005,-2.749 3.8470001,-3.619 1.5189999,-0.86 3.2229999,-1.294 5.1419999,-1.295 1.373,0 2.648,0.253 3.8500004,0.758 1.223,0.509 2.301,1.25 3.254,2.238 l 0.004,0.004 0.008,0.008 c 0.967,0.952 1.771,2.153 2.408,3.613 0.631,1.451 1.035,3.125 1.205,5.038 l 0.596,-0.053 v -0.599 h -5.591 v 0.599 l 0.595,-0.066 -0.597,0.066 z" id="path33" inkscape:connector-curvature="0" style="fill:#866b10"/>
<polygon points="609.599,274.769 623.006,274.769 623.006,268.142 603.5,268.142 603.5,303.988 609.599,303.988 609.599,289.176 621.218,289.176 621.218,283.053 609.599,283.053 " id="polygon35" style="fill:#e6c777" transform="translate(-415.40186,-190.29555)"/>
<polygon points="603.5,268.142 602.901,268.142 602.901,304.587 610.197,304.587 610.197,289.774 621.816,289.774 621.816,282.455 610.197,282.455 610.197,275.367 623.604,275.367 623.604,267.542 602.901,267.542 602.901,268.142 603.5,268.142 603.5,268.74 622.408,268.74 622.408,274.17 609,274.17 609,283.652 620.619,283.652 620.619,288.577 609,288.577 609,303.39 604.098,303.39 604.098,268.142 603.5,268.142 603.5,268.74 " id="polygon37" style="fill:#866b10" transform="translate(-415.40186,-190.29555)"/>
<path d="M 47.803143,115.46845 V 92.934437 h -2.759 v -10.345 l 9.426,0.804 -0.231,-6.898 11.152,-8.964 -0.347,-2.877 8.048,-5.402 1.953,-1.266 -7.127,-1.954 1.725,-0.57 -8.048,-1.266 1.61,-1.035 -5.059,-1.035 2.646,-1.034 -5.75,-1.493 1.494,-2.069 -5.284,-0.689 1.836,-1.266 -3.677,-1.668 c 5.935,-1.745 11.625,-1.688 17.071,0.172 l 15.404,9.314 9.138,-5.922 -2.243,-0.92 -2.182,-7.415 1.837,-12.989 -0.081,-1.581 c 1.473,-1.454 3.244,-2.588 5.684,-3.448 1.314,-0.463 5.423,-0.957 6.336997,-0.792 1.817,0.326 8.522,3.237 8.522,3.237 l 0.23,1.434 2.012,2.186 3.852,13.852 -0.572,3.451 -3.624,2.759 6.955,3.045 3.392,0.518 2.398,0.654 1.108,2.104 16.917,10.669 0.842,3.582 1.496,0.118 3.965,3.966 0.172,4.481 0.576,1.325 5.404,3.504 1.031,0.689 5.979,-0.343 v 9.884 h -3.104 v 24.142013 3.945 H 47.917143 l -0.114,-4.06 z" id="path39" inkscape:connector-curvature="0" style="fill:#866b10"/>
<polygon points="461.422,273.92 461.422,282.137 519.359,283.405 575.168,280.815 575.401,280.815 575.401,272.771 522.693,278.347 519.129,280.815 515.393,278.689 " id="polygon41" style="fill:#e6c777" transform="translate(-415.40186,-190.29555)"/>
<polygon points="572.389,309.025 464.199,309.025 464.256,282.336 464.256,283.172 519.303,284.15 572.389,281.794 " id="polygon43" style="fill:#e6c777" transform="translate(-415.40186,-190.29555)"/>
<path d="m 55.965143,83.509437 23.104,2.011 c 0,0 -0.058,-1.608 1.379,-2.416 1.439,-0.804 3.162,-2.413 3.162,-2.413 l -0.171,-3.965 -3.335,-6.095 c 0,0 4.023,3.682 4.254,3.909 0.228,0.231 0.402,5.29 0.402,5.29 0,0 3.392,1.206 3.619,1.664 0.232,0.462 5.059,-0.171 5.059,-0.171 l 2.301,-0.804 c 0,0 -3.219,-1.896 -5.23,-3.85 -2.011,-1.954 -2.644,-3.796 -3.852,-5.29 -1.208,-1.493 -3.393,-3.849 -3.393,-3.849 l -1.264,-2.934 -8.219,-3.619 -6.994,4.077 0.205,2.987 -11.086,8.796 0.059,6.672 z" id="path45" inkscape:connector-curvature="0" style="fill:#e6c777"/>
<path d="m 67.229143,80.866437 c 0,0 5.863,-4.254 7.414,-4.139 0.446,0.034 1.189,0.053 2.02,0.063 l 0.84,0.863 c -1.822,0.417 -3.749,0.86 -4.41,1.028 -1.381,0.345 -5.864,2.185 -5.864,2.185 z" id="path47" inkscape:connector-curvature="0" style="fill:#866b10"/>
<path d="m 76.137143,58.220437 5.635,3.503 -0.979,0.06 2.76,1.954 -1.093,-0.115 3.795,4.311 3.676,5.689 3.104,3.853 4.024,3.273 3.504997,5.002 0.863,1.263 c 0,0 -3.101997,-5.863 -3.679997,-7.182 -0.572,-1.322 -4.424,-8.451 -5.747,-11.035 -1.323,-2.59 -6.206,-9.142 -6.206,-9.142 l -4.657,-5.979 -7.243,-4.311 -7.412,-4.539 c -3.567,-1.718 -11.721,-1.904 -14.424,-0.692 l 2.639,1.44 -2.067,0.976 5.171,0.458 -1.836,2.188 6.954,1.664 -2.989,1.095 5.287,0.688 -1.955,1.091 8.395,1.207 -1.668,0.979 6.381,1.437 -0.233,0.864 z" id="path49" inkscape:connector-curvature="0" style="fill:#e6c777;fill-rule:evenodd"/>
<path d="m 83.954143,85.922437 2.53,-3.504 c 0,0 1.436,0.228 3.734,0.172 2.301,-0.057 3.91,-0.402 3.91,-0.402 l 1.722,-0.29 4.254997,4.772 -1.954997,0.402 -1.666,-0.402 -9.312,-0.461 -3.218,-0.287 z" id="path51" inkscape:connector-curvature="0" style="fill:#e6c777"/>
<path d="m 83.370143,54.240437 10.301,14.522 8.504997,18.828 1.146,1.321 2.416,-1.898 3.16,-9.538 0.633,-1.608 -0.285,3.329 4.137,-2.238 4.078,-6.032 -1.955,5.255 3.912,-0.414 -9.311,4.064 -1.725,3.332 c 0,0 6.379,-2.817 7.703,-2.986 0.18,-0.025 8.588,3.064 10.229,4.598 0.863,0.804 26.326,-2.646 26.326,-2.646 l -7.014,-5.115 c 0,0 -2.355,-2.472 -6.436,-2.472 -4.082,0 -7.219,3.389 -7.105,3.389 l -5.139,-1.26 4.426,-0.636 6.667,-2.699 7.849,-1.378 -2.986,-3.298 -9.173,-0.268 -5.69,4.943 3.621,-6.034 8.049,-3.049 -15.348,-9.289 -5.375,2.709 1.121,-3.678 3.563,-0.546 -1.47,-1.475 -3.359,-0.654 -2.514,0.757 v -1.543 l -3.291,-1.453 -3.711,-1.225 0.723,2.774 -1.496,8.279 c 0,0 -5.859,10.979 -5.803,10.859 -0.057,0.06 0.113,4.083 0.229,4.143 0.214,0.104 -3.216997,-6.901 -3.216997,-6.901 l -8.737,-12.933 1.495,0.692 0.113,-6.839 0.116,-1.324 -1.345,1.558 -4.531,3.604 -3.502,2.473 z" id="path53" inkscape:connector-curvature="0" style="fill:#e6c777;fill-rule:evenodd"/>
<polygon points="504.148,245.486 507.023,253.594 504.205,250.143 503.402,246.982 501.85,245.028 500.871,244.165 504.838,241.637 506.563,240.025 " id="polygon55" style="fill:#866b10" transform="translate(-415.40186,-190.29555)"/>
<polygon points="524.016,258.456 529.992,245.758 522.52,257.999 521.427,264.092 518.725,271.389 513.439,261.907 510.91,258.516 515.91,268.519 517.117,272.193 518.611,274.84 523.154,264.207 " id="polygon57" style="fill:#866b10" transform="translate(-415.40186,-190.29555)"/>
<polygon points="530.395,254.323 527.232,261.159 528.785,252.995 533.611,248.572 " id="polygon59" style="fill:#866b10" transform="translate(-415.40186,-190.29555)"/>
<path d="m 122.34914,66.783437 c 0.347,-0.461 6.552,-4.772 6.552,-4.772 l 2.672,0.121 1.443,0.864 -10.667,3.787 z" id="path61" inkscape:connector-curvature="0" style="fill:#866b10"/>
<path d="m 107.51914,86.611437 c 0,0 3.277,-3.102 6.726,-4.483 0,0 2.875,0.692 4.829,1.612 1.954,0.916 2.873,1.895 2.873,1.895 l -14.428,0.976 z" id="path63" inkscape:connector-curvature="0" style="fill:#e6c777"/>
<path d="m 68.157143,68.151437 c 1.42,0 9.541,1.895 9.541,1.895 0,0 -9.426,-4.654 -9.426,-4.828 0,0 -0.233,2.933 -0.115,2.933 z" id="path65" inkscape:connector-curvature="0" style="fill:#866b10"/>
<polygon points="526.889,247.076 523.67,253.799 526.14,245.758 531.216,242.476 " id="polygon67" style="fill:#866b10" transform="translate(-415.40186,-190.29555)"/>
<polygon points="510.91,268.057 499.301,251.677 494.01,247.708 495.334,247.537 494.048,246.007 488.09,244.374 491.504,244.485 489.088,243.174 483.896,242.307 486.281,241.646 480.896,238.719 476.539,238.052 478.377,237.363 477.344,236.79 494.99,245.181 500.219,251.274 506.885,261.907 " id="polygon69" style="fill:#866b10" transform="translate(-415.40186,-190.29555)"/>
<path d="m 107.98014,39.508437 c -1.494,5.835 -5.39,5.848 -5.39,5.848 l 3.379,0.274 0.402,11.726 -4.022,8.22 -8.795997,-11.093 2.473,-9.486 c 0,0 -2.588,-3.388 -3.276,-8.447 -0.791,-5.807 1.408,-8.996 1.408,-8.996 l 6.406997,0.489 -3.618997,0.861 c 0,0 2.516,0.458 5.859997,0.458 0.288,0 5.06,-1.406 5.06,-1.406 0,0 1.55,5.948 0.114,11.552 z" id="path71" inkscape:connector-curvature="0" style="fill:#e6c777"/>
<path d="m 89.184143,25.420437 c 0.761,-1.711 2.818,-3.038 6.173,-3.979 0.816,-0.229 4.4,-0.606 6.075997,-0.088 2.681,0.693 4.674,1.5 5.979,2.419 -3.462,1.169 -7.816997,1.896 -11.788997,1.99 l 2.527,-1.437 -6.438,2.244 -1.953,3.042 -0.575,-4.191 z" id="path73" inkscape:connector-curvature="0" style="fill:#e6c777"/>
<polygon points="506.658,233.283 507.691,235.007 504.357,233.741 502.748,228.857 504.884,223.09 505.377,224.053 505.133,228.18 504.242,227.937 " id="polygon75" style="fill:#e6c777" transform="translate(-415.40186,-190.29555)"/>
<polygon points="527.291,227.018 526.945,224.374 525.451,232.018 527.465,229.72 527.406,233.629 528.898,231.157 527.867,226.099 " id="polygon77" style="fill:#e6c777" transform="translate(-415.40186,-190.29555)"/>
<path d="m 97.577143,40.543437 c 0,0 1.435,-0.458 2.586997,-0.632 1.147,-0.172 3.448,0.576 3.448,0.576 -0.918,1.552 -4.482997,1.78 -6.034997,0.056 z" id="path79" inkscape:connector-curvature="0" style="fill:#866b10"/>
<polygon points="514.473,228.339 514.473,227.794 515.134,228.053 515.623,228.598 " id="polygon81" style="fill:#866b10" transform="translate(-415.40186,-190.29555)"/>
<path d="m 107.39314,31.952437 -1.44,0.543 c -0.108,0.019 -0.235,0.056 -0.368,0.103 l 0.668,0.072 c -0.518,0.461 -1.523,0.9 -2.471,0.975 l -1.113,-0.717 0.273,-0.115 -0.031,-0.028 -0.677,-0.057 0.461,-0.807 3.098,-0.371 1.6,0.402 z" id="path83" inkscape:connector-curvature="0" style="fill:#866b10"/>
<path d="m 99.301143,32.815437 0.056,1.55 -1.003,-1.269 -0.662,0.577 c 0,0 -1.516,0.184 -2.501,-0.029 -0.603,-0.127 -0.64,-0.595 -0.622,-0.822 l -0.672,-0.181 1.371,-0.121 c -0.431,-0.15 -1.83,-0.484 -1.83,-0.484 l 1.695,-0.402 3.737,0.346 0.458,0.833 -0.027,0.002 z" id="path85" inkscape:connector-curvature="0" style="fill:#866b10"/>
<polygon points="479.637,262.141 482.432,260.445 488.361,260.349 494.916,265.851 " id="polygon87" style="fill:#866b10" transform="translate(-415.40186,-190.29555)"/>
<polygon points="462.877,276.57 462.826,275.85 514.785,279.544 515.469,280.313 " id="polygon89" style="fill:#866b10" transform="translate(-415.40186,-190.29555)"/>
<polygon points="516.053,280.971 516.751,281.757 462.775,278.992 462.724,278.318 " id="polygon91" style="fill:#866b10" transform="translate(-415.40186,-190.29555)"/>
<polygon points="517.17,282.227 517.883,283.025 462.928,281.205 462.724,280.276 " id="polygon93" style="fill:#866b10" transform="translate(-415.40186,-190.29555)"/>
<polygon points="523.389,280.095 523.924,279.322 574.171,274.575 573.909,275.538 " id="polygon95" style="fill:#866b10" transform="translate(-415.40186,-190.29555)"/>
<polygon points="522.621,281.205 523.172,280.407 574.313,277.047 574.219,277.857 " id="polygon97" style="fill:#866b10" transform="translate(-415.40186,-190.29555)"/>
<polygon points="521.633,282.636 522.193,281.825 574.35,279.001 574.168,279.93 " id="polygon99" style="fill:#866b10" transform="translate(-415.40186,-190.29555)"/>
<polygon points="481.71,301.688 472.699,301.688 472.699,297.84 480.798,297.84 480.798,295.16 472.699,295.16 472.699,291.797 481.523,291.797 481.523,288.895 469.023,288.895 469.023,304.586 481.71,304.586 " id="polygon101" style="fill:#05642c" transform="translate(-415.40186,-190.29555)"/>
<polygon points="501.705,301.688 493.559,301.688 493.559,288.895 489.884,288.895 489.884,304.586 501.705,304.586 " id="polygon103" style="fill:#05642c" transform="translate(-415.40186,-190.29555)"/>
<path d="m 105.19714,103.87345 h 3.559 c -0.112,-0.906 -0.375,-1.712 -0.796,-2.416 -0.422,-0.704 -0.961,-1.29 -1.615,-1.758015 -0.641,-0.483 -1.376,-0.851 -2.202,-1.099998 -0.812,-0.25 -1.676,-0.374 -2.597,-0.374 -1.281,0 -2.437997,0.214 -3.465997,0.637998 -1.015,0.425 -1.874,1.01 -2.574,1.758015 -0.703,0.745 -1.243,1.625 -1.615,2.637 -0.374,0.997 -0.563,2.083 -0.563,3.251 0,1.144 0.189,2.214 0.563,3.211 0.372,0.979 0.912,1.839 1.615,2.568 0.7,0.733 1.56,1.313 2.574,1.739 1.028,0.408 2.184997,0.614 3.465997,0.614 1.029,0 1.973,-0.146 2.832,-0.439 0.856,-0.294 1.607,-0.717 2.246,-1.275 0.64,-0.554 1.156,-1.228 1.543,-2.022 0.393,-0.789 0.633,-1.674 0.729,-2.656 h -3.559 c -0.14,1.054 -0.529,1.902 -1.172,2.547 -0.621,0.646 -1.496,0.969 -2.619,0.969 -0.829,0 -1.529,-0.148 -2.106997,-0.438 -0.576,-0.31 -1.047,-0.711 -1.405,-1.21 -0.359,-0.498 -0.624,-1.057 -0.798,-1.67 -0.151,-0.631 -0.232,-1.275 -0.232,-1.937 0,-0.688 0.081,-1.355 0.232,-1.998 0.174,-0.645 0.438,-1.216 0.798,-1.714 0.358,-0.515 0.829,-0.917 1.405,-1.209 0.577997,-0.307 1.277997,-0.462 2.106997,-0.462 0.453,0 0.879,0.072 1.289,0.221 0.418,0.132 0.793,0.321 1.121,0.571 0.328,0.249 0.602,0.542 0.818,0.879 0.22,0.321 0.359,0.683 0.423,1.075 z" id="path105" inkscape:connector-curvature="0" style="fill:#05642c"/>
<polygon points="536.168,297.816 542.934,297.816 542.934,304.586 546.607,304.586 546.607,288.895 542.934,288.895 542.934,294.917 536.168,294.917 536.168,288.895 532.494,288.895 532.494,304.586 536.168,304.586 " id="polygon107" style="fill:#05642c" transform="translate(-415.40186,-190.29555)"/>
<polygon points="568.218,301.688 559.205,301.688 559.205,297.84 567.303,297.84 567.303,295.16 559.205,295.16 559.205,291.797 568.027,291.797 568.027,288.895 555.529,288.895 555.529,304.586 568.218,304.586 " id="polygon109" style="fill:#05642c" transform="translate(-415.40186,-190.29555)"/>
<path d="m 89.194143,139.55945 v -4.99 h 4.011 v 1.932 h 1.892 v -1.932 h 4.043 v 1.932 h 1.860997 v -1.932 h 4.015 v 1.932 h 1.862 v -1.932 h 4.013 v 1.932 h 1.864 v -1.932 h 4.012 v 4.99 h -2.483 v 5.424 h 4.806 v 3.902 h 3.764 v -3.902 h 8.113 v 7.452 H 75.238143 v -7.452 h 8.111 v 3.902 h 3.822 v -3.902 h 5.117 v -5.424 h -3.094 z m -4.477,13.008 37.132997,-0.119 c 1.789,12.983 9.632,20.355 23.535,23.061 v 11.944 H 60.711143 v -11.589 c 15.709,-4.236 23.712,-12.001 24.006,-23.297 z m 27.439997,21.183 c 0,0 -0.53,-5.955 -7.975,-5.955 -7.444997,0 -8.166997,6.592 -8.166997,6.592 l -0.003,8.619 h 16.026997 l 0.118,-9.256 z" id="path111" inkscape:connector-curvature="0" style="fill:#e6c777"/>
<polygon points="530.363,335.975 530.363,329.175 507.01,329.175 507.01,329.855 507.689,329.855 507.689,330.535 529.004,330.535 529.004,334.614 525.7,334.614 525.7,338.518 523.293,338.518 523.293,334.614 513.823,334.614 513.823,338.518 511.419,338.518 511.419,334.614 508.369,334.614 508.369,329.855 507.689,329.855 507.689,330.535 507.689,329.855 507.01,329.855 507.01,335.975 510.059,335.975 510.061,339.878 515.183,339.878 515.183,335.975 521.934,335.975 521.934,339.878 527.059,339.878 527.059,335.975 " id="polygon113" style="fill:#866b10" transform="translate(-415.40186,-190.29555)"/>
<polygon points="504.596,329.855 505.264,329.855 505.264,325.533 507.938,325.533 507.938,326.797 507.938,327.466 511.166,327.466 511.166,325.534 513.873,325.534 513.873,326.797 513.873,327.466 517.07,327.466 517.07,325.534 519.749,325.534 519.749,326.797 519.749,327.466 522.947,327.466 522.947,325.533 525.625,325.533 525.625,326.797 525.625,327.466 528.824,327.466 528.824,325.533 531.498,325.533 531.498,329.187 504.596,329.187 504.596,329.855 505.264,329.855 504.596,329.855 504.596,330.523 532.836,330.523 532.836,324.197 527.488,324.197 527.488,326.129 526.961,326.129 526.961,324.865 526.961,324.197 521.611,324.197 521.611,326.129 521.085,326.129 521.085,324.865 521.085,324.197 515.734,324.197 515.734,326.129 515.209,326.129 515.209,324.865 515.209,324.197 509.83,324.197 509.83,326.129 509.274,326.129 509.274,324.865 509.274,324.197 503.928,324.197 503.928,330.523 504.596,330.523 " id="polygon115" style="fill:#866b10" transform="translate(-415.40186,-190.29555)"/>
<path d="m 111.48714,182.73045 v -0.337 H 96.466143 v -7.9 h -0.337 l 0.335,0.044 c 0.265,-2.01 1.259,-3.492 2.628,-4.495 1.367997,-1.001 3.120997,-1.51 4.868997,-1.51 1.747,0 3.483,0.509 4.819,1.508 1.337,1.001 2.284,2.479 2.491,4.487 l 0.336,-0.034 -0.337,-0.006 -0.122,8.238 0.339,0.005 v -0.337 0.337 l 0.337,0.005 0.122,-8.258 -0.001,-0.02 c -0.222,-2.189 -1.286,-3.861 -2.761,-4.959 -1.473,-1.101 -3.346,-1.641 -5.223,-1.642 -1.878,0 -3.766,0.541 -5.268997,1.639 -1.503,1.097 -2.612,2.764 -2.899,4.952 l -0.002,0.023 v 8.596 h 16.026997 l 0.005,-0.332 -0.336,-0.004 z" id="path117" inkscape:connector-curvature="0" style="fill:#c4014b"/>
<polygon points="498.07,339.861 503.252,339.861 503.252,335.959 510.059,335.959 510.061,339.861 515.183,339.861 515.183,335.959 521.934,335.959 521.934,339.861 527.059,339.861 527.059,335.959 533.81,335.959 533.811,339.861 538.934,339.861 538.934,335.959 545.687,335.959 545.687,342.052 490.639,342.052 490.639,342.731 491.318,342.731 490.639,342.731 490.639,343.412 547.047,343.412 547.047,334.6 537.574,334.6 537.574,338.501 535.17,338.501 535.17,334.6 525.7,334.6 525.7,338.501 523.293,338.501 523.293,334.6 513.823,334.6 513.823,338.501 511.419,338.501 511.419,334.6 501.893,334.6 501.893,338.501 499.43,338.501 499.43,334.6 489.959,334.6 489.959,343.412 490.639,343.412 490.639,342.731 491.318,342.731 491.318,335.959 498.07,335.959 " id="polygon119" style="fill:#866b10" transform="translate(-415.40186,-190.29555)"/>
<path d="m 122.56714,177.26045 h 15.077 v -3.309 l -0.921,-0.381 h -14.156 v 3.69 z m 16.439,0 h 5.699 v -1.241 c -2.024,-0.417 -3.925,-0.935 -5.699,-1.559 v 2.8 z m 5.699,1.411 h -14.422 v 3.821 h 14.422 v -3.821 z m -14.095,-6.512 h 3.25 c -1.158,-0.65 -2.242,-1.365 -3.25,-2.146 v 2.146 z m -6.194,-5.184 h 2.947 c -1,-1.133 -1.886,-2.362 -2.658,-3.689 h -0.289 v 3.689 z m -10.881,1.403 -0.224,0.002 0.224,-0.002 z m -1.572,-1.403 h 11.092 v -3.689 h -13.926 l 3.15,1.281 -1.136,1.556 0.82,0.852 z m -6.172,-3.689 h -1.282 v 0.866 l 1.052,0.003 0.23,-0.869 z m -2.644,0.861 v -0.861 h -1.668 l 0.303,0.857 1.365,0.004 z m -4.401997,-0.861 h -14.04 v 3.689 h 11.059 l 0.572,-0.637 -1.135,-1.209 3.544,-1.843 z m -4.252,5.101 h -0.737 l -0.032,0.83 h -1.361 l -10e-4,-0.266 v -0.564 h -14.585 c -1.178,1.005 -2.488,1.944 -3.932,2.818 v 0.954 h 17.34 l 1.177,-3.208 10e-4,0.266 h 1.361 v -0.83 l 0.588,0.203 0.181,-0.203 z m -1.592,5.183 h -10.002 v 3.689 h 7.719 v -1.091 h 2.313 l -0.03,-2.598 z m -2.283,5.101 h -13.799 v 3.821 h 16.083 l 0.005,-1.56 -2.289,0.002 v -2.263 z m 3.427,3.821 h 1.26 v -1.479 l -1.26,0.008 v 1.471 z m 2.4,0 h 15.027997 v -7.887 c 0,-0.816 -0.843,-6.129 -7.638,-6.129 -6.794997,0 -7.390997,6.143 -7.390997,6.143 v 7.873 z m 16.079997,0 h 1.3 v -1.679 h -1.3 v 1.679 z m 2.432,0 h 13.965 v -3.821 h -11.666 v 2.02 h -2.299 v 1.801 z m 6.247,-8.922 -6.277,-0.001 v -0.756 l 1.896,-0.633 12.426,-0.021 v -3.282 l -0.528,-0.49 -13.565,-0.02 1.658,3.792 -1.886,0.654 v 0.756 2.366 h 2.329 v 1.324 h 3.948 v -3.689 z m 18.035,10.333 v 2.821 h 5.467 v -2.821 h -5.467 z m -1.362,2.822 v -2.821 h -20.039 v 2.821 h 20.039 z m -58.403997,0 h 10.788 v 1.314 h 6.184 v -1.314 h 15.027997 v -2.821 H 96.445143 v 2.821 1.314 h -6.184 v -1.314 -2.821 h -10.788 v 2.821 z m 11.964,0 h 3.868 v -2.619 h -3.861 l -0.007,2.619 z m 21.039997,0 h 4.219 v -2.548 l -4.219,-0.026 v 2.574 z m -51.085997,-4.233 h 14.066 v -3.821 h -14.066 v 3.821 z m 16.72,1.411 h -16.72 v 2.821 h 16.72 v -2.821 z m -16.72,-6.643 h 0.281 v -1.004 l -0.281,0.078 v 0.926 z m 1.643,0 h 18.504 v -3.689 h -12.28 c -1.912,0.843 -3.983,1.604 -6.225,2.286 v 1.403 z m 9.136,-5.101 h 0.313 v -0.169 l -0.313,0.169 z m 7.129,-5.184 h 4.045 v -3.689 h -1.093 c -0.823,1.307 -1.808,2.537 -2.952,3.689 z m 3.765,-5.1 h 11.091 v -3.69 h -9.609 c -0.374,1.285 -0.868,2.515 -1.482,3.69 z m 12.452,0 h 18.478997 v -3.69 H 95.516143 v 3.69 z m 19.840997,0 h 8.59 c -0.577,-1.163 -1.076,-2.393 -1.495,-3.69 h -7.095 v 3.69 z m -30.455997,-5.101 h 18.088997 v -3.694 H 85.378143 c -0.061,1.272 -0.219,2.505 -0.477,3.694 z m 19.449997,0 h 17.683 c -0.318,-1.18 -0.575,-2.411 -0.771,-3.694 h -16.911 v 3.694 z m -21.356997,-5.054 h 39.446997 l 0.082,0.587 c 0.882,6.379 3.225,11.301 7.023,14.989 2.021,1.961 4.469,3.577 7.346,4.863 2.537,1.133 5.406,2.008 8.621,2.634 l 0.551,0.107 v 13.185 H 60.031143 v -12.79 l 0.502,-0.136 c 7.784,-2.098 13.605,-5.063 17.487,-8.832 3.813,-3.71 5.798,-8.178 6.007,-13.543 l -1.033,-1.064 z m 33.119997,27.838 v -2.479 h -3.523 l -0.047,2.479 h 3.57 z m -2.334,-3.622 0.053,-2.646 -1.352,0.411 c 0,0 0.133,0.598 0.128,0.844 l -0.019,1.392 h 1.19 z m 0.521,-6.67 -1.845,0.854 -1.204,0.637 c 0.391,0.561 0.68,1.131 0.917,1.764 l 3.106,-1.023 -0.974,-2.232 z m -3.818,-2.237 -1.252,1.715 c 0.533,0.374 0.771,0.585 1.215,1.045 l 1.822,-0.858 -1.785,-1.902 z m -2.352,1.111 1.381,-1.72 0.982,-1.345 -3.619,-1.46 -0.08,0.546 -0.736,3.398 c 0.752,0.127 1.342,0.321 2.072,0.581 z m -3.469,-0.786 0.578,-2.062 -2.956,-0.016 0.714,2.119 c 0.697,-0.064 1.055,-0.062 1.664,-0.041 z m -2.875,0.238 -1.371,-3.882 -3.349997,1.737 2.688,2.864 c 0.827997,-0.375 1.009997,-0.47 2.032997,-0.719 z m -4.754997,-0.452 -1.566,1.871 2.136,0.781 c 0.354,-0.347 0.659,-0.568 1.073,-0.859 l -1.643,-1.793 z m -3.644,2.33 -0.823,2.241 3.163,1.044 c 0.224,-0.68 0.497,-1.273 0.977,-1.923 l -2.248,-0.973 -1.069,-0.389 z m 2.011,4.449 -1.356,-0.422 0.051,2.674 h 1.212 v -1.657 l 0.093,-0.595 z m -0.096,3.392 h -3.539 l -0.004,2.48 h 3.543 v -2.48 z" id="path121" inkscape:connector-curvature="0" style="fill:#866b10"/>
<path d="m 101.68114,203.49745 40.375,15.375 0.625,0.875 h -9.625 v 12.875 h 4.875 v 8.25 h -5.125 l -0.125,3.375 h 5.125 v 3.875 H 65.431143 v -3.625 h 4.75 v -3.75 h -4.5 v -8.25 h 4.875 v -12.625 h -11.375 v -0.5 l 42.499997,-15.875 z m -17.374997,37.125 v 3.625 h 34.874997 v -3.625 H 84.306143 z" id="path123" inkscape:connector-curvature="0" style="fill:#e6c777;fill-rule:evenodd"/>
<path d="m 75.221143,233.03845 v 6.727 h 2.902 v -6.727 h -2.902 z m -1.355,6.727 v -6.727 h -2.902 v 6.727 h 2.902 z m 5.611,-6.727 v 6.727 h 2.902 v -6.727 h -2.902 z m 4.258,0 v 6.727 h 2.902 v -6.727 h -2.902 z m 4.256,0 v 6.727 h 2.902 v -6.727 h -2.902 z m 4.257,0 v 6.727 h 2.902 v -6.727 h -2.902 z m 4.256,0 v 6.727 h 2.902 v -6.727 h -2.902 z m 4.257997,0 v 6.727 h 2.902 v -6.727 h -2.902 z m 4.256,0 v 6.727 h 2.902 v -6.727 h -2.902 z m 4.258,0 v 6.727 h 2.902 v -6.727 h -2.902 z m 4.256,0 v 6.727 h 2.902 v -6.727 h -2.902 z m 4.257,0 v 6.727 h 2.902 v -6.727 h -2.902 z m 4.256,0 v 6.727 h 2.902 v -6.727 h -2.902 z m 4.258,0 v 6.727 h 2.902 v -6.727 h -2.902 z m 4.256,0 v 6.727 h 2.902 v -6.727 h -2.902 z m 4.258,0 v 6.727 h 2.363 v -6.727 h -2.363 z m 3.254,-15.045 v 0.641 h 1.646 l -1.646,-0.641 z m -1.356,0.641 v -1.168 l -2.9,-1.129 v 2.297 h 2.9 z m -2.931,-3.769 9.803,3.815 -0.247,1.314 h -9.337 v 11.764 h 4.455 v 9.285 h -5.049 v 2.424 h 5.168 v 4.906 H 64.964143 v -4.906 h 4.619 l 0.002,-2.424 h -4.502 v -9.285 h 4.21 v -11.764 h -10.747 l -0.239,-1.317 43.407997,-16.294 32.069,12.482 z m -1.325,3.769 v -2.824 l -2.9,-1.13 v 3.953 l 2.9,10e-4 z m -4.256,-10e-4 v -4.479 l -2.901,-1.13 v 5.609 h 2.901 z m -4.255,0 v -6.137 l -2.901,-1.129 v 7.265 l 2.901,0.001 z m -4.256,-0.001 v -7.792 l -2.902,-1.13 v 8.922 h 2.902 z m -4.256,0 v -9.449 l -2.902,-1.129 v 10.577 l 2.902,0.001 z m -4.256,-0.001 v -11.104 l -2.902,-1.129 v 12.233 h 2.902 z m -4.256,0 v -12.761 l -2.902,-1.129 v 13.889 l 2.902,0.001 z m -4.257,-0.001 v -14.416 l -0.962,-0.375 -1.938997,0.729 v 14.063 h 2.900997 z m -4.255997,0 v -13.554 l -2.901,1.089 v 12.464 l 2.901,0.001 z m -4.255,-0.001 v -11.956 l -2.901,1.09 v 10.866 h 2.901 z m -4.257,0 v -10.358 l -2.9,1.09 v 9.268 l 2.9,0 z m -4.256,-0.001 v -8.76 l -2.901,1.09 v 7.67 h 2.901 z m -4.256,0 v -7.162 l -2.901,1.09 v 6.071 l 2.901,10e-4 z m -4.256,-10e-4 v -5.563 l -2.901,1.09 v 4.474 h 2.901 z m -4.256,-0.001 v -3.965 l -2.902,1.09 v 2.875 h 2.902 z m -4.256,0 v -2.367 l -2.902,1.09 v 1.277 h 2.902 z m -4.255,-0.001 v -0.769 l -2.048,0.769 h 2.048 z m 1.959,26.192 v 2.197 h 70.892997 v -2.188 l -70.892997,-0.009 z m 52.194997,-3.773 H 85.064143 v 2.426 h 33.453997 v -2.426 z m 1.334,0.037 v 2.381 h 12.238 v -2.381 h -12.238 z m -48.894997,0 v 2.381 h 12.748 v -2.381 h -12.748 z m -4.241,-8.043 -0.011,6.727 h 2.904 v -6.727 h -2.893 z m 4.97,-12.514 v 10.719 h 59.929997 v -10.732 l -59.929997,0.013 z" id="path125" inkscape:connector-curvature="0" style="fill:#866b10"/>
</svg>