<svg xmlns="http://www.w3.org/2000/svg" viewBox="0 0 213 250" width="213" height="250">
	<style>
		tspan { white-space:pre }
		.shp0 { fill: #fefefe } 
		.shp1 { fill: #3263a6 } 
	</style>
	<g>
		<path class="shp0" d="M89.57 0.49C85.42 0.71 80.16 1.11 77.87 1.39C75.59 1.66 71.64 2.21 69.1 2.62C66.56 3.03 63.45 3.5 62.18 3.67C60.91 3.84 57.31 4.55 54.17 5.24C51.04 5.93 46.12 7.13 43.25 7.91C40.37 8.68 36.07 9.94 33.7 10.69C31.33 11.45 28.08 12.56 26.47 13.16C24.86 13.77 22.51 14.65 21.24 15.12C19.97 15.59 17.48 16.62 15.7 17.41C13.92 18.19 9.92 20.11 6.82 21.67C3.71 23.23 0.87 24.83 0.51 25.22C-0.14 25.91 -0.14 26.01 0.22 29.22C0.43 31.04 0.68 33.42 0.78 34.53C0.88 35.63 1.44 40.07 2.03 44.39C2.63 48.71 3.32 54.05 3.58 56.26C3.83 58.46 4.52 63.11 5.1 66.58C5.68 70.06 6.3 74.08 6.48 75.52C6.66 76.97 7.3 80.57 7.89 83.54C8.48 86.51 9.08 89.84 9.23 90.94C9.38 92.04 10.08 95.44 10.78 98.49C11.48 101.54 12.49 105.77 13.01 107.89C13.53 110.01 14.33 113.2 14.79 114.98C15.24 116.76 16.14 119.88 16.77 121.92C17.4 123.95 18.67 127.91 19.59 130.7C20.51 133.5 21.83 137.25 22.52 139.03C23.2 140.81 24.23 143.37 24.79 144.73C25.35 146.09 26.14 148.1 26.56 149.2C26.97 150.3 27.74 152.07 28.27 153.13C28.81 154.19 29.24 155.19 29.24 155.36C29.24 155.53 29.87 157.02 30.64 158.68C31.41 160.33 32.67 163 33.44 164.61C34.2 166.22 35.14 168.16 35.53 168.93C35.91 169.69 36.92 171.63 37.76 173.24C38.61 174.85 40.03 177.49 40.93 179.1C41.82 180.71 42.81 182.41 43.13 182.88C43.45 183.34 43.7 183.83 43.7 183.95C43.69 184.08 44.08 184.74 44.57 185.42C45.05 186.1 46.03 187.62 46.75 188.81C47.47 190 48.57 191.75 49.19 192.7C49.81 193.65 51.23 195.71 52.33 197.29C53.43 198.86 54.74 200.74 55.25 201.46C55.76 202.19 57.01 203.85 58.02 205.16C59.04 206.47 60.14 207.92 60.48 208.39C60.82 208.85 62.21 210.51 63.56 212.08C64.92 213.65 66.34 215.37 66.73 215.9C67.12 216.43 67.95 217.41 68.58 218.08C69.2 218.75 72.9 222.49 76.8 226.4C80.69 230.32 84.43 233.92 85.11 234.42C85.78 234.92 86.55 235.56 86.8 235.84C87.05 236.12 88.72 237.51 90.5 238.94C92.28 240.36 94.4 242.01 95.21 242.6C96.02 243.2 97.06 243.97 97.52 244.33C97.97 244.68 99.66 245.88 101.27 246.98C102.88 248.08 104.68 249.23 105.27 249.52C105.88 249.83 106.65 249.98 107.04 249.88C107.42 249.77 109.29 248.63 111.19 247.34C113.1 246.05 115.03 244.7 115.48 244.34C115.94 243.98 116.98 243.2 117.79 242.6C118.6 242.01 120.72 240.36 122.5 238.94C124.28 237.51 125.95 236.12 126.2 235.84C126.45 235.56 127.22 234.92 127.89 234.42C128.57 233.92 132.31 230.32 136.2 226.4C140.1 222.49 143.8 218.75 144.42 218.08C145.05 217.41 145.88 216.43 146.27 215.9C146.66 215.37 148.08 213.65 149.44 212.08C150.79 210.51 152.18 208.85 152.52 208.39C152.86 207.92 153.96 206.47 154.98 205.16C155.99 203.85 157.24 202.19 157.75 201.46C158.26 200.74 159.57 198.86 160.67 197.29C161.77 195.71 163.19 193.65 163.81 192.7C164.43 191.75 165.53 190 166.25 188.81C166.97 187.62 167.95 186.1 168.43 185.42C168.92 184.74 169.31 184.08 169.3 183.95C169.3 183.83 169.55 183.34 169.87 182.88C170.19 182.41 171.18 180.71 172.07 179.1C172.97 177.49 174.39 174.85 175.24 173.24C176.08 171.63 177.09 169.69 177.47 168.93C177.86 168.16 178.8 166.22 179.56 164.61C180.33 163 181.59 160.33 182.36 158.68C183.13 157.02 183.76 155.53 183.76 155.36C183.76 155.19 184.19 154.19 184.73 153.13C185.26 152.07 186.03 150.3 186.44 149.2C186.86 148.1 187.65 146.09 188.21 144.73C188.77 143.37 189.8 140.81 190.48 139.03C191.17 137.25 192.49 133.5 193.41 130.7C194.33 127.91 195.6 123.95 196.23 121.92C196.86 119.88 197.76 116.76 198.21 114.98C198.67 113.2 199.47 110.01 199.99 107.89C200.51 105.77 201.52 101.54 202.22 98.49C202.92 95.44 203.62 92.04 203.77 90.94C203.92 89.84 204.52 86.51 205.11 83.54C205.7 80.57 206.34 76.97 206.52 75.52C206.7 74.08 207.32 70.06 207.9 66.58C208.48 63.11 209.17 58.46 209.42 56.26C209.68 54.05 210.37 48.71 210.97 44.39C211.56 40.07 212.12 35.63 212.22 34.53C212.32 33.42 212.57 31.04 212.78 29.22C213.14 26.01 213.14 25.91 212.49 25.22C212.13 24.83 209.29 23.23 206.18 21.67C203.08 20.11 199.08 18.19 197.3 17.41C195.52 16.62 193.03 15.59 191.76 15.12C190.49 14.65 188.14 13.77 186.53 13.16C184.92 12.56 181.67 11.45 179.3 10.69C176.93 9.94 172.63 8.68 169.75 7.91C166.88 7.13 161.96 5.93 158.83 5.24C155.69 4.55 152.09 3.84 150.82 3.67C149.55 3.5 146.44 3.03 143.9 2.62C141.36 2.22 137.48 1.67 135.28 1.4C133.08 1.14 127.26 0.72 122.35 0.46C117.44 0.21 109.76 0.02 105.27 0.04C100.78 0.07 93.72 0.27 89.57 0.49Z"/>
		<path class="shp1" d="M91.73 2.18C89.27 2.31 85.46 2.58 83.26 2.77C81.06 2.97 76.7 3.47 73.57 3.88C70.43 4.3 65.86 4.98 63.41 5.39C60.95 5.8 56.38 6.7 53.25 7.39C50.12 8.08 45.48 9.21 42.94 9.9C40.4 10.59 36.17 11.85 33.55 12.71C30.93 13.56 26.84 14.99 24.47 15.89C22.1 16.79 18.5 18.24 16.47 19.11C14.44 19.98 10.32 21.94 7.31 23.45C3.88 25.18 1.85 26.37 1.85 26.66C1.85 26.92 2.13 29.59 2.47 32.6C2.81 35.61 3.71 42.86 4.48 48.71C5.24 54.55 5.93 59.51 6.01 59.73C6.11 59.99 7.15 59.57 9.31 58.39C11.05 57.44 14.2 55.86 16.31 54.88C18.43 53.9 21.34 52.58 22.78 51.95C24.22 51.32 26.64 50.32 28.16 49.73C29.69 49.14 33.01 47.92 35.55 47.02C38.09 46.13 42.52 44.68 45.4 43.82C48.28 42.96 53.2 41.63 56.33 40.88C59.46 40.12 64.65 39.01 67.87 38.42C71.09 37.82 75.87 37.05 78.49 36.7C81.11 36.36 85.82 35.84 88.96 35.55C93.18 35.15 97.7 35.02 106.5 35.02C115.3 35.02 119.82 35.15 124.04 35.55C127.18 35.84 131.89 36.36 134.51 36.7C137.13 37.05 141.91 37.82 145.13 38.42C148.35 39.01 153.54 40.12 156.67 40.88C159.8 41.63 164.72 42.96 167.6 43.82C170.48 44.68 174.91 46.13 177.45 47.02C179.99 47.92 183.31 49.14 184.84 49.73C186.36 50.32 188.78 51.32 190.22 51.95C191.66 52.58 194.57 53.9 196.69 54.88C198.8 55.86 201.95 57.44 203.69 58.39C205.85 59.57 206.89 59.99 206.99 59.73C207.08 59.51 207.77 54.55 208.53 48.71C209.29 42.86 210.19 35.61 210.53 32.6C210.87 29.59 211.15 26.92 211.15 26.66C211.15 26.37 209.12 25.18 205.69 23.45C202.68 21.94 198.56 19.98 196.53 19.11C194.5 18.24 190.9 16.79 188.53 15.89C186.16 14.99 182.07 13.56 179.45 12.71C176.83 11.85 172.6 10.59 170.06 9.9C167.52 9.21 162.88 8.08 159.75 7.39C156.62 6.7 152.05 5.8 149.59 5.39C147.14 4.98 143.12 4.37 140.67 4.03C138.21 3.69 134.06 3.2 131.43 2.95C128.81 2.69 123.96 2.34 120.66 2.17C117.36 2 110.5 1.87 105.42 1.9C100.34 1.92 94.18 2.05 91.73 2.18Z"/>
		<path class="shp0" d="M95.42 8.23C94.32 8.28 92.83 8.39 92.11 8.47C91.21 8.58 90.45 8.95 89.69 9.63C89.07 10.18 88.38 11.02 88.15 11.48C87.88 12.03 87.73 13.36 87.74 15.18C87.74 16.75 87.86 19.84 87.99 22.04C88.18 25.07 88.39 26.35 88.85 27.28C89.19 27.96 89.94 28.84 90.52 29.24C91.57 29.96 91.59 29.97 97.88 29.75C102.32 29.6 104.44 29.41 105.04 29.1C105.5 28.86 106.27 28.16 106.73 27.54C107.56 26.43 107.58 26.26 107.85 20.52C108.04 16.36 108.01 14.1 107.76 12.79C107.56 11.75 107.08 10.51 106.65 9.94C106.23 9.39 105.47 8.73 104.96 8.48C104.28 8.14 103.15 8.03 100.73 8.07C98.91 8.11 96.52 8.17 95.42 8.23ZM110.1 10.85C109.98 12.43 109.88 16.56 109.89 20.04C109.89 25.44 109.96 26.51 110.42 27.41C110.72 27.99 111.31 28.72 111.73 29.02C112.36 29.47 113.59 29.64 118.35 29.91C121.57 30.09 125.28 30.34 126.61 30.46C127.93 30.58 129.08 30.6 129.15 30.52C129.23 30.43 129.29 29.64 129.29 28.75L129.28 27.13C127.25 26.88 124.79 26.67 122.51 26.5C120.22 26.34 117.31 26.2 116.04 26.2C114.77 26.2 113.55 26.09 113.33 25.97C113.02 25.79 112.95 23.9 113.01 16.95L113.09 8.17L110.31 7.98L110.1 10.85ZM76.34 10.02C73.37 10.41 69.63 10.96 68.02 11.24C66.42 11.52 65.01 11.85 64.9 11.97C64.79 12.08 65.24 16.75 65.9 22.35C66.56 27.94 67.17 32.69 67.25 32.91C67.34 33.12 67.58 33.23 67.79 33.16C68.01 33.09 68.59 32.94 69.1 32.83L70.03 32.63C69.64 28.72 69.45 27.03 69.36 26.36L69.18 25.12C74.13 24.3 77.3 23.84 79.41 23.56C81.91 23.24 83.53 22.87 84.03 22.52C84.45 22.22 84.98 21.57 85.21 21.08C85.5 20.45 85.59 19.04 85.52 16.17C85.44 12.99 85.3 11.98 84.88 11.32C84.58 10.86 84.03 10.29 83.65 10.05C83.26 9.81 82.68 9.55 82.34 9.47C82 9.38 79.3 9.63 76.34 10.02ZM132.65 10.71C132.64 11.35 132.31 16.1 131.93 21.27C131.54 26.44 131.24 30.71 131.25 30.76C131.27 30.81 131.94 30.95 132.74 31.07C133.94 31.25 134.21 31.2 134.2 30.83C134.2 30.57 134.55 25.79 134.99 20.19C135.65 11.8 135.72 9.98 135.38 9.79C135.16 9.67 134.45 9.56 133.82 9.56C132.69 9.56 132.66 9.58 132.65 10.71Z"/>
		<path class="shp1" d="M93.88 11.94C92.57 12.02 91.68 12.24 91.3 12.58C90.76 13.07 90.73 13.48 90.92 19.04C91.02 22.3 91.21 25.2 91.34 25.47C91.47 25.75 91.78 26.08 92.03 26.21C92.29 26.34 95.06 26.32 98.19 26.16C103.54 25.9 103.92 25.84 104.44 25.2C104.92 24.59 104.99 23.85 104.97 18.96C104.96 15.13 104.83 13.17 104.56 12.64C104.18 11.88 104.13 11.87 100.03 11.85C97.75 11.83 94.98 11.88 93.88 11.94Z"/>
		<path class="shp0" d="M147.24 12C146.88 12.13 146.3 12.57 145.97 12.98C145.63 13.38 145.27 14 145.17 14.33C145.07 14.67 144.57 18.9 144.07 23.74C143.56 28.57 143.18 32.55 143.22 32.58C143.25 32.61 143.9 32.68 144.66 32.73L146.04 32.83C146.87 25.49 147.08 24.49 147.44 24.41C147.69 24.36 150.05 24.74 152.67 25.26C155.29 25.78 157.89 26.34 158.44 26.51C159.19 26.74 159.47 26.72 159.57 26.43C159.65 26.22 159.78 25.39 159.88 24.58L160.06 23.12C155.64 22.18 152.8 21.59 150.89 21.2L147.41 20.5C147.7 18.35 147.84 17.2 147.92 16.57C147.99 15.93 148.22 15.41 148.44 15.41C148.65 15.41 151.18 15.88 154.06 16.46C156.93 17.04 160.43 17.81 161.83 18.16C163.22 18.51 164.57 18.8 164.83 18.8C165.16 18.8 165.34 18.34 165.46 17.19C165.56 16.3 165.59 15.53 165.54 15.49C165.49 15.45 164.13 15.07 162.52 14.66C160.91 14.24 157.17 13.41 154.21 12.81C151.25 12.21 148.62 11.73 148.36 11.74C148.11 11.75 147.6 11.86 147.24 12ZM58.18 13.79C57.82 14.26 57.26 15.54 56.94 16.65C56.62 17.75 55.65 21.35 54.78 24.66C53.92 27.97 53.15 30.85 53.08 31.06C53 31.27 52.84 31.44 52.71 31.43C52.58 31.43 51.12 29.38 49.47 26.89C47.81 24.39 45.73 21.38 44.84 20.19C43.96 19 42.82 17.85 42.32 17.62C41.55 17.27 41.26 17.27 40.52 17.62C40.04 17.85 39.43 18.38 39.16 18.8C38.89 19.23 38.67 20.2 38.68 20.96C38.69 21.72 39.42 26.09 40.31 30.67C41.2 35.25 41.99 39.06 42.06 39.15C42.12 39.23 42.8 39.1 43.57 38.84C44.55 38.51 44.91 38.24 44.8 37.92C44.72 37.66 44.1 34.4 43.41 30.67C42.72 26.94 42.16 23.65 42.17 23.35C42.17 23.05 42.31 22.81 42.48 22.81C42.65 22.81 44.76 25.68 47.17 29.18C49.58 32.69 51.83 35.74 52.17 35.97C52.63 36.28 53.01 36.31 53.63 36.07C54.1 35.9 54.68 35.45 54.92 35.06C55.16 34.68 55.65 33.19 56.01 31.75C56.37 30.31 57.3 26.84 58.09 24.04C58.87 21.25 59.66 18.86 59.84 18.74C60.03 18.62 60.21 18.62 60.24 18.74C60.28 18.86 60.73 22.22 61.25 26.2C61.76 30.19 62.18 33.55 62.18 33.68C62.18 33.8 62.59 33.91 63.1 33.91C63.61 33.91 64.27 33.78 64.56 33.63C65.07 33.36 65.04 32.81 63.98 24.15C63.37 19.09 62.71 14.64 62.52 14.26C62.33 13.88 61.9 13.42 61.56 13.26C61.22 13.09 60.47 12.95 59.89 12.95C59.1 12.95 58.67 13.16 58.18 13.79Z"/>
		<path class="shp1" d="M76.8 13.58C74.43 13.89 71.52 14.31 70.33 14.51L68.18 14.87C68.58 19.71 68.74 21.19 68.8 21.27C68.85 21.35 70.88 21.13 73.31 20.76C75.74 20.4 78.69 20 79.88 19.88C81.06 19.75 82.2 19.53 82.41 19.38C82.69 19.19 82.75 18.45 82.63 16.72C82.53 15.41 82.39 14.02 82.32 13.64C82.24 13.22 81.97 12.96 81.64 12.98C81.35 13 79.17 13.27 76.8 13.58Z"/>
		<path class="shp0" d="M173.46 19.5C172.55 20.41 172.4 20.86 171.66 24.82C171.21 27.19 170.62 30.45 170.34 32.06C170.06 33.67 169.89 35.47 169.97 36.07C170.04 36.66 170.39 37.56 170.73 38.07C171.26 38.85 172.02 39.22 175.63 40.43C177.99 41.22 181.71 42.51 183.91 43.3C187.02 44.42 187.96 44.65 188.13 44.33C188.25 44.11 188.43 43.37 188.54 42.69C188.64 42.02 188.61 41.37 188.47 41.27C188.34 41.16 186.28 40.38 183.91 39.53C181.54 38.68 178.12 37.51 176.3 36.95C174.49 36.38 172.96 35.77 172.9 35.6C172.84 35.43 173.36 32.35 174.04 28.74C175.18 22.81 175.35 22.19 175.91 22.19C176.25 22.19 179.16 23.07 182.37 24.16C185.59 25.24 188.95 26.42 189.84 26.78C190.73 27.14 191.63 27.44 191.84 27.44C192.05 27.44 192.4 26.72 192.61 25.82C192.82 24.93 192.96 24.18 192.92 24.16C192.87 24.13 191.45 23.6 189.76 22.96C188.07 22.33 184.43 21.06 181.68 20.15C178.93 19.24 176.18 18.5 175.57 18.5C174.73 18.5 174.22 18.74 173.46 19.5ZM28.63 21.41C25.16 22.64 21.55 23.96 20.62 24.34C19.69 24.71 18.67 25.25 18.36 25.53C18.05 25.82 17.6 26.43 17.36 26.9C17.12 27.36 16.93 28.3 16.93 28.98C16.93 29.65 17.7 33.16 18.64 36.76C19.58 40.36 20.43 43.45 20.53 43.62C20.63 43.79 21.01 44.24 21.36 44.62C21.72 45.01 22.42 45.4 22.93 45.5C23.6 45.63 24.99 45.25 28.01 44.1C30.3 43.24 33.9 41.94 36.01 41.22L39.86 39.92C39.69 38.25 39.52 37.45 39.36 37.07L39.09 36.37C31.58 39.02 28.05 40.31 26.4 40.93C24.75 41.56 23.33 42.01 23.25 41.92C23.16 41.84 22.82 40.73 22.49 39.46C22.16 38.19 21.91 37.12 21.95 37.08C21.98 37.05 23.39 36.48 25.09 35.82C26.78 35.16 29.52 34.15 31.17 33.57C33.41 32.79 34.14 32.4 34.04 32.06C33.97 31.8 33.83 31.08 33.73 30.44C33.63 29.81 33.38 29.28 33.17 29.28C32.95 29.28 31.6 29.68 30.16 30.17C28.73 30.67 26.27 31.57 24.7 32.18C23.14 32.79 21.65 33.29 21.39 33.29C21.11 33.29 20.79 32.78 20.58 31.98C20.38 31.26 20.21 30.14 20.19 29.5L20.16 28.32C25.65 26.2 29.35 24.89 31.93 24.04C35.86 22.76 36.61 22.41 36.49 21.96C36.42 21.67 36.28 20.9 36.18 20.27C36.06 19.43 35.87 19.12 35.47 19.13C35.18 19.15 32.1 20.17 28.63 21.41ZM164.87 33.96C164.79 34.19 164.64 35 164.53 35.76L164.34 37.15C166.89 37.71 167.15 37.68 167.26 37.3C167.34 37.05 167.49 36.28 167.6 35.6C167.79 34.45 167.75 34.36 166.93 34.13C166.45 33.99 165.83 33.81 165.54 33.72C165.25 33.63 164.95 33.74 164.87 33.96Z"/>
		<path class="shp1" d="M93.88 36.7C91.59 36.84 87.65 37.17 85.11 37.44C82.57 37.72 77.72 38.36 74.33 38.87C70.95 39.38 65.06 40.48 61.25 41.32C57.44 42.16 51.49 43.67 48.02 44.68C44.55 45.69 39.91 47.13 37.71 47.88C35.51 48.64 31.9 49.94 29.7 50.79C27.5 51.63 23.9 53.11 21.7 54.08C19.5 55.04 15.44 56.97 12.68 58.36C9.92 59.75 7.34 61.16 6.95 61.5L6.23 62.11C8.48 76.21 9.66 83.08 10.29 86.47C10.93 89.86 12.06 95.48 12.82 98.95C13.57 102.43 14.81 107.7 15.58 110.67C16.34 113.63 17.72 118.56 18.64 121.61C19.55 124.66 21.06 129.31 21.98 131.94C22.9 134.56 24.15 138.03 24.77 139.64C25.38 141.25 26.45 143.96 27.13 145.65C27.82 147.35 29.28 150.82 30.38 153.36C31.48 155.9 33.49 160.34 34.85 163.22C36.22 166.11 38.51 170.68 39.95 173.4C41.39 176.11 44.02 180.76 45.8 183.72C47.58 186.69 50.39 191.13 52.03 193.59C53.68 196.05 56.33 199.79 57.91 201.91C59.5 204.03 61.85 207.08 63.14 208.69C64.43 210.3 67.06 213.42 68.99 215.61C70.91 217.81 74.5 221.63 76.95 224.11C79.41 226.58 83.21 230.21 85.42 232.15C87.62 234.1 90.46 236.53 91.73 237.56C93 238.58 95.63 240.6 97.57 242.04C99.52 243.49 102.33 245.48 103.81 246.49L106.5 248.3C110.67 245.48 113.48 243.49 115.43 242.04C117.37 240.6 120 238.58 121.27 237.56C122.54 236.53 125.38 234.1 127.58 232.15C129.79 230.21 133.59 226.58 136.05 224.11C138.5 221.63 142.09 217.81 144.01 215.61C145.94 213.42 148.57 210.3 149.86 208.69C151.15 207.08 153.5 204.03 155.09 201.91C156.67 199.79 159.32 196.05 160.97 193.59C162.61 191.13 165.42 186.69 167.2 183.72C168.98 180.76 171.61 176.11 173.05 173.4C174.49 170.68 176.78 166.11 178.15 163.22C179.51 160.34 181.52 155.9 182.62 153.36C183.72 150.82 185.18 147.35 185.87 145.65C186.55 143.96 187.62 141.25 188.23 139.64C188.85 138.03 190.1 134.56 191.02 131.94C191.94 129.31 193.45 124.66 194.36 121.61C195.28 118.56 196.66 113.63 197.42 110.67C198.19 107.7 199.43 102.43 200.18 98.95C200.94 95.48 202.07 89.86 202.71 86.47C203.34 83.08 204.52 76.21 205.32 71.21L206.77 62.11C205.65 61.16 203 59.72 200.16 58.29C197.32 56.87 193.26 54.94 191.15 54.01C189.03 53.09 185.5 51.63 183.3 50.79C181.1 49.94 177.49 48.64 175.29 47.88C173.09 47.13 168.45 45.69 164.98 44.68C161.51 43.67 155.56 42.16 151.75 41.32C147.94 40.48 142.05 39.38 138.67 38.87C135.28 38.36 130.5 37.73 128.05 37.47C125.59 37.21 121.23 36.86 118.35 36.69C115.47 36.52 109.72 36.4 105.58 36.42C101.43 36.45 96.17 36.57 93.88 36.7Z"/>
		<path class="shp0" d="M190.54 43.39C190.37 44.02 190.23 44.79 190.22 45.08C190.22 45.41 190.65 45.81 191.3 46.09C191.89 46.34 192.48 46.55 192.61 46.55C192.73 46.55 193.01 45.93 193.22 45.16C193.44 44.4 193.61 43.63 193.61 43.46C193.61 43.3 193.05 42.95 192.38 42.69C191.7 42.44 191.08 42.23 191 42.23C190.93 42.23 190.72 42.75 190.54 43.39ZM80.34 53.18L80.34 57.34L91.42 57.34L91.42 79.53L48.94 79.53L48.94 88.16L53.25 88.16L53.25 96.18C50.27 98.51 48.77 99.86 47.99 100.69C47.21 101.51 45.91 103.23 45.08 104.5C44.26 105.77 43.2 107.68 42.73 108.74C42.25 109.8 41.44 112.16 40.93 113.98C40.42 115.8 39.8 118.85 39.55 120.76C39.3 122.67 39.09 126.28 39.09 128.78C39.09 131.56 39.28 134.46 39.59 136.25C39.86 137.86 40.5 140.43 41.01 141.95C41.52 143.48 42.28 145.42 42.71 146.27C43.13 147.12 44.06 148.71 44.76 149.82C45.47 150.92 47.01 152.84 48.19 154.09C49.36 155.33 50.99 156.86 51.79 157.48L53.26 158.6L53.25 183.11L91.42 183.11L91.42 225.03L98.8 225.03L98.8 183.11L157.29 183.11L157.29 174.78L98.96 174.63L98.8 165.23C100.36 165 102.05 164.72 103.58 164.45C105.1 164.18 108.56 163.47 111.27 162.87C113.98 162.27 118.27 161.16 120.81 160.4C123.35 159.64 127.23 158.39 129.43 157.62C131.63 156.86 136.24 155.13 139.67 153.79C143.92 152.13 145.9 151.21 145.9 150.89C145.9 150.64 145.4 149.01 144.8 147.27C144.19 145.53 143.6 144 143.49 143.87C143.37 143.73 141.14 144.48 138.51 145.52C135.89 146.56 131.94 148.07 129.74 148.89C127.54 149.7 123.94 150.94 121.74 151.65C119.54 152.36 115.24 153.55 112.19 154.31C109.15 155.07 105.06 155.96 103.11 156.29C101.17 156.63 99.4 156.9 99.19 156.9C98.89 156.9 98.8 155.04 98.8 148.58L98.8 140.26L127.89 140.1L127.89 131.78L98.8 131.63C98.8 103.85 98.84 102.96 99.34 102.96C99.64 102.97 102.17 103.66 104.96 104.5C107.75 105.34 112.33 106.84 115.12 107.85C117.91 108.85 121.51 110.18 123.12 110.8C124.73 111.42 129.23 113.23 133.13 114.84C137.02 116.44 140.31 117.75 140.44 117.75C140.56 117.75 141.17 116.2 141.79 114.29C142.41 112.38 142.97 110.68 143.04 110.51C143.11 110.34 142.78 110.04 142.3 109.84C141.82 109.64 140.05 108.9 138.36 108.19C136.66 107.49 132.86 105.94 129.89 104.75C126.93 103.56 122.08 101.72 119.12 100.65C116.16 99.58 111.93 98.15 109.73 97.46C107.53 96.78 104.62 95.92 103.27 95.56C101.91 95.2 100.36 94.77 99.81 94.62L98.8 94.33L98.8 88.16L159.75 88.16L159.75 79.53L98.8 79.53L98.8 57.34L152.67 57.34L152.67 49.01L80.34 49.01L80.34 53.18Z"/>
		<path class="shp1" d="M60.33 90.47C60.33 91.81 60.46 92.79 60.64 92.79C60.81 92.79 62.09 92.52 63.48 92.18C64.88 91.85 67.55 91.42 69.41 91.22C71.47 91 74.54 90.93 77.26 91.05C79.71 91.16 83.66 91.53 86.03 91.87C88.4 92.22 90.58 92.57 90.88 92.64C91.36 92.77 91.42 92.53 91.42 90.47L91.42 88.16L60.33 88.16L60.33 90.47ZM67.26 99.7C66.07 99.92 64.2 100.39 63.1 100.76C62 101.13 60.93 101.53 60.72 101.65C60.42 101.83 60.36 107.5 60.41 127.77L60.48 153.65C63.35 155.02 65.42 155.76 66.95 156.16C68.47 156.57 70.89 157.12 72.33 157.39C73.77 157.65 77.44 157.95 80.49 158.05C83.54 158.14 87.24 158.13 88.72 158.03L91.42 157.83L91.26 100.98C88.4 100.39 85.77 100 83.57 99.74C81.32 99.47 77.34 99.27 74.49 99.29C71.7 99.3 68.44 99.49 67.26 99.7ZM51.49 108.89C50.96 109.61 50.04 111.24 49.44 112.52C48.84 113.79 48 116.15 47.57 117.76C47.15 119.37 46.66 121.93 46.49 123.46C46.32 124.98 46.17 127.69 46.17 129.47C46.17 131.25 46.38 133.95 46.65 135.48C46.91 137.01 47.47 139.09 47.88 140.1C48.3 141.12 49.09 142.7 49.63 143.6C50.18 144.51 51.08 145.79 51.63 146.45C52.18 147.12 52.77 147.66 52.94 147.66C53.15 147.66 53.22 140.86 53.17 127.72C53.12 113.92 52.99 107.76 52.77 107.68C52.59 107.62 52.01 108.16 51.49 108.89ZM60.48 162.93C60.42 163.1 60.4 165.81 60.43 168.94L60.48 174.63L91.42 174.78L91.42 166C75.37 165.99 73.87 165.9 70.49 165.29C68.37 164.91 65.28 164.15 63.61 163.6C61.79 163.01 60.54 162.74 60.48 162.93Z"/>
		<path class="shp0" d="M137.99 194.44C136.51 196.01 135.38 197.49 135.29 197.98C135.2 198.45 135.3 199.17 135.51 199.6C135.72 200.02 136.93 201.27 138.2 202.38C139.47 203.49 140.86 204.48 141.28 204.58C141.71 204.69 142.36 204.65 142.74 204.5C143.12 204.35 144.4 202.84 145.59 201.14C146.78 199.45 147.76 197.82 147.75 197.52C147.75 197.22 147.63 196.74 147.48 196.44C147.33 196.14 146.16 194.96 144.86 193.82C142.99 192.16 142.31 191.74 141.52 191.74C140.66 191.74 140.16 192.12 137.99 194.44Z"/>
		<path class="shp1" d="M141.13 193.52C140.96 193.64 139.96 194.73 138.9 195.94C137.84 197.15 136.98 198.36 136.98 198.64C136.97 198.91 137.91 199.96 139.05 200.97C140.19 201.98 141.37 202.82 141.67 202.82C141.96 202.83 142.6 202.32 143.08 201.68C143.56 201.04 144.4 199.83 144.96 198.98C145.68 197.89 145.9 197.3 145.71 196.94C145.56 196.66 144.61 195.72 143.59 194.85C142.57 193.98 141.67 193.27 141.59 193.28C141.5 193.28 141.3 193.39 141.13 193.52Z"/>
		<path class="shp0" d="M129.58 203.79C128.04 205.5 126.78 207.1 126.79 207.34C126.81 207.57 127.02 208.18 127.28 208.69C127.53 209.2 127.91 209.67 128.12 209.73C128.33 209.79 128.75 209.62 129.05 209.35C129.53 208.9 129.54 208.79 129.13 208.31C128.7 207.81 128.85 207.55 130.86 205.23C132.07 203.83 133.18 202.54 133.34 202.37C133.53 202.17 133.84 202.31 134.22 202.76C134.82 203.45 134.82 203.46 133.13 207.46C131.68 210.87 131.48 211.59 131.74 212.32C131.91 212.78 132.63 213.67 133.35 214.3L134.66 215.44C136.16 213.91 137.72 212.01 139.09 210.23C141.45 207.15 141.55 206.97 141.04 206.45C140.75 206.15 140.37 205.9 140.2 205.91C140.04 205.91 139.74 206.16 139.56 206.46C139.37 206.75 138.16 208.35 136.86 210C134.85 212.57 134.44 212.95 134.03 212.62C133.77 212.41 133.56 212.03 133.56 211.78C133.57 211.52 134.2 209.79 134.96 207.92C135.73 206.06 136.36 204.12 136.37 203.61C136.38 202.96 136.08 202.38 135.37 201.67C134.64 200.95 134.08 200.67 133.37 200.67C132.52 200.68 132.02 201.09 129.58 203.79ZM121.42 213.03C119.33 215.43 118.73 216.33 118.77 216.96C118.81 217.49 119.32 218.26 120.21 219.1C121.29 220.13 121.81 220.41 122.66 220.41C123.63 220.41 124.01 220.11 126.43 217.48L129.12 214.56L131.12 216.71C126.42 221.71 126.14 221.92 125.51 221.61C124.96 221.35 124.72 221.38 124.35 221.79C123.94 222.24 123.97 222.36 124.66 222.91C125.08 223.24 125.74 223.51 126.12 223.5C126.52 223.5 127.64 222.75 128.74 221.76C129.8 220.8 131.18 219.41 131.82 218.67C132.45 217.93 132.97 217.01 132.97 216.63C132.96 216.2 132.35 215.35 131.35 214.4C130.46 213.55 128.97 212.2 128.04 211.4C126.71 210.26 126.12 209.94 125.24 209.94C124.2 209.93 123.92 210.15 121.42 213.03Z"/>
		<path class="shp1" d="M123.72 213.38C122.8 214.44 121.7 215.69 121.27 216.18L120.51 217.05L122.35 218.88C124.89 216.36 126.07 215.1 126.61 214.46L127.58 213.28C126.15 211.87 125.66 211.46 125.57 211.46C125.48 211.46 124.65 212.33 123.72 213.38Z"/>
		<path class="shp0" d="M114.75 220.94C114.03 221.71 113.94 222.08 113.84 224.57L113.73 227.34C115.25 227.34 115.27 227.28 115.35 224.95C115.39 223.64 115.5 222.56 115.58 222.56C115.66 222.56 117.05 223.74 118.66 225.18C120.27 226.63 121.69 227.8 121.81 227.8C121.94 227.79 122.29 227.62 122.59 227.41C123.08 227.07 122.84 226.77 120.28 224.43C118.71 223 117 221.44 116.49 220.96L115.55 220.09L114.75 220.94Z"/>
	</g>
</svg>