<svg xmlns="http://www.w3.org/2000/svg" xmlns:xlink="http://www.w3.org/1999/xlink" version="1.1" id="Calque_1" x="0px" y="0px" viewBox="0 0 800 800" style="enable-background:new 0 0 800 800;" xml:space="preserve">
<style type="text/css">
	.st0{fill-rule:evenodd;clip-rule:evenodd;fill:#FFFFFF;}
	.st1{fill-rule:evenodd;clip-rule:evenodd;fill:#E30613;}
	.st2{fill:#FFFFFF;}
	.st3{fill-rule:evenodd;clip-rule:evenodd;}
</style>
<polygon class="st0" points="740.4991455,367.808197 631.3973389,317.1429443 631.3973389,211.1483612 740.4991455,261.8208313 "/>
<polygon class="st0" points="214.6404724,506.296875 59.5521278,459.6191101 59.5521278,353.6025391 214.6404724,362.9454651 "/>
<path class="st1" d="M124.4456711,41.0118103V502.136322c0,0,40.1436539,129.460968,275.0535278,255.6620178  C634.4091187,631.59729,674.5527344,502.136322,674.5527344,502.136322V41.0118103H124.4456711z"/>
<path class="st2" d="M399.499176,767.7686157l-4.1569214-2.2312012  c-235.3730774-126.447998-277.6029663-255.3688354-279.2834778-260.797699l-0.3943787-1.2719116V32.2313766h567.6695557V503.467804  l-0.3943481,1.2719116c-1.680542,5.4288635-43.9104004,134.3497009-279.2835083,260.797699L399.499176,767.7686157z   M133.2299805,500.6609802c4.6756287,12.7549744,53.0271606,131.4078674,266.2691956,247.1545105  C612.6452637,632.1185913,661.0501099,513.522522,665.7683716,500.6539001V49.7969551H133.2299805V500.6609802z"/>
<g>
	<polygon class="st2" points="285.3477783,256.8675537 209.0135498,256.8675537 209.0135498,209.0737915 281.0629883,209.0737915    281.0629883,169.3878174 209.0135498,169.3878174 209.0135498,126.1915894 285.3477783,126.1915894 285.3477783,83.2227173    166.982605,83.2227173 166.982605,299.8505859 285.3477783,299.8505859  "/>
	<path class="st2" d="M414.140686,83.2084961h-49.8010864l-57.258667,216.6350098h42.9297485l8.5447998-39.4656982h60.701416   l8.0361328,29.5288696l40.0722046-5.3887329L414.140686,83.2084961z M367.3098145,220.6918335l21.9214478-77.8370972   l21.253479,77.8370972H367.3098145z"/>
	<path class="st2" d="M632.0157471,183.9050293h-76.2738647v39.678833h34.015564v16.6489258   c0,16.6347656-5.7130737,16.6347656-16.0875854,16.6347656h-27.7979736c-10.5094604,0-14.8582764,0-14.8582764-16.6702881   V140.1687012c0-14.0197754,2.9844971-14.0268555,15.5510864-14.0623779h32.3279419   c0.4263306,0.0070801,0.8313599,0.0070801,1.1795654,0.0283813c4.8994751,0.532959,9.6852417,2.1602173,9.6852417,15.4978027   v15.4764404h42.2583008v-34.6408081c0-23.4776611-15.3343506-39.2525635-38.1547241-39.2525635h-61.3409424   c-24.6856079,0-43.8358154,24.6358643-43.8358154,45.8254395v125.6237183c0,8.3798218,3.6627197,17.6999512,9.6227417,25.6923218   l133.7087402-17.9805298V183.9050293z"/>
</g>
<g>
	<polygon class="st3" points="741.3521118,367.808197 58.6479149,459.6213379 58.6479149,353.6338501 741.3521118,261.8208313  "/>
	<path class="st2" d="M93.9810028,419.9957581l18.2868195-2.5865173l0.0319748,9.2233582l-31.0986099,4.3984985   l-0.2096176-55.8517151l30.3809204-4.2990112l0.0355301,9.2162476l-17.5691376,2.48703l0.0497437,13.6147461l14.9648514-2.1175537   l0.0355301,9.2233582l-14.9648514,2.1175537L93.9810028,419.9957581z"/>
	<path class="st2" d="M141.4798431,366.6239929l11.7352448-1.6556702l0.2096252,55.8517151l-11.4687805,1.6201172   l-12.577301-31.6990356l0.1243439,33.4613037l-11.6499786,1.6485291l-0.2096252-55.8517151l11.5576172-1.6343384   l12.4067535,31.6279907L141.4798431,366.6239929z"/>
	<path class="st2" d="M203.4354553,413.7426453l-2.0144958-9.8131409l-12.9858856,1.833313l-1.9363251,10.3744812   l-12.6341553,1.7906799l12.6945496-57.6779175l16.3078461-2.3093872l13.4726257,53.975769L203.4354553,413.7426453z    M190.1866608,396.3760376l9.3228302-1.3216858l-4.7466888-22.9588928L190.1866608,396.3760376z"/>
	<path class="st2" d="M244.617218,352.0357361l13.2630005-1.8759155l-12.3356934,57.6281433l-15.6825256,2.2170105   l-12.8473206-54.0610352l13.3553772-1.8901367l7.2337189,40.4462891L244.617218,352.0357361z"/>
	<path class="st2" d="M288.7372437,401.6769714l-2.0144958-9.8131409l-12.9859009,1.833313l-1.9363098,10.3744812   l-12.6341553,1.7906799l12.6945496-57.6779175l16.3078308-2.3022766l13.4726563,53.975769L288.7372437,401.6769714z    M275.4884338,384.3103638l9.3228455-1.3216858l-4.7466736-22.9588928L275.4884338,384.3103638z"/>
	<path class="st2" d="M329.6596375,340.0126953l11.73526-1.6627502l0.2096252,55.8517151l-11.4687805,1.6201172   l-12.577301-31.6990356l0.1243591,33.4612732l-11.6535645,1.6485596l-0.2095947-55.8517151l11.5611572-1.6343384   l12.4067383,31.6351013L329.6596375,340.0126953z"/>
	<path class="st2" d="M379.4856262,332.9637451l0.035553,9.216217l-10.4917603,1.4851379l0.1741028,46.6354675   l-12.8117981,1.8119812l-0.1740723-46.6354675l-10.3922729,1.4708862l-0.0355225-9.2162476L379.4856262,332.9637451z"/>
	<path class="st2" d="M433.7563171,343.38797l-12.8117981,1.8119812l-0.0284119-7.2905579   c0-1.4638062-0.8171692-2.0820313-2.4230957-1.8546448l-3.6737061,0.5187378   c-1.6201172,0.2344971-2.4159851,1.0800781-2.4159851,2.5438843l0.1350403,34.2500305   c0,0.8171692,0.1776428,1.3643188,0.5400391,1.6343384c0.3552856,0.2700195,0.9877014,0.3410645,1.8830261,0.2131653   l3.6737061-0.5187073c0.8953247-0.1208191,1.5206604-0.3766174,1.875946-0.7461243   c0.3623962-0.3695068,0.5400391-0.9734802,0.5400391-1.7906494l-0.0426331-10.893219l-4.4837646,0.6324158l-0.0284424-8.3422241   l17.2884521-2.444397l0.078186,20.3794556c0.0284119,6.4378662-3.7234497,10.1897583-11.2556152,11.2556152l-11.5611877,1.6343384   c-7.5250549,1.0658875-11.2982483-1.6201172-11.3266602-8.0579834l-0.1350098-36.5381165   c-0.0284119-6.4378662,3.7234497-10.1897278,11.2556152-11.2556152l11.5611572-1.6343384   c7.5250549-1.0658569,11.2982483,1.6201477,11.3266907,8.0580139L433.7563171,343.38797z"/>
	<path class="st2" d="M462.6343689,321.2036133l12.8117676-1.8119812l0.1776428,46.1025391   c0.0213318,6.5018005-3.7589722,10.2821045-11.3408813,11.355072l-12.0088196,1.6983032   c-7.5321655,1.0658569-11.3053589-1.6485596-11.3337708-8.1503906l-0.1705627-46.1025085l12.8189087-1.8119812   l0.1705322,44.4326477c0,1.4638062,0.7745361,2.0891113,2.330719,1.8688354l4.2990112-0.6111145   c1.6130371-0.2273865,2.4159851-1.0729675,2.4159851-2.5367737L462.6343689,321.2036133z"/>
	<path class="st2" d="M483.6960144,318.2262573l12.7265015-1.79776l0.2131653,55.8517151l-12.7336121,1.79776   L483.6960144,318.2262573z"/>
	<path class="st2" d="M528.5905762,311.8736572l11.7387695-1.6556396l0.2061157,55.8517151l-11.468811,1.6201172   l-12.5773315-31.6990356l0.1279297,33.4612732l-11.6535339,1.6485596l-0.2131653-55.8517151l11.5611572-1.6343384   l12.3996582,31.6279907L528.5905762,311.8736572z"/>
	<path class="st2" d="M582.0689087,322.4115906l-12.8117676,1.8119812l-0.0284424-7.2905579   c-0.0070801-1.4638062-0.8171387-2.0820007-2.4301758-1.8546143l-3.6737061,0.5187073   c-1.6201172,0.2344971-2.4159546,1.0800781-2.4088745,2.5438843l0.1279297,34.2500305   c0,0.8171692,0.1776123,1.3643188,0.5400391,1.6343384c0.3623657,0.2700195,0.9876709,0.341095,1.8901367,0.2131958   l3.666626-0.5187378c0.8953247-0.1207886,1.5206299-0.3766174,1.8759155-0.7461243   c0.3623657-0.3694763,0.5400391-0.9734802,0.5400391-1.7906494l-0.0426636-10.893219l-4.4837646,0.6324158l-0.0283813-8.3422241   l17.2955322-2.444397l0.078186,20.3794861c0.0213013,6.4378662-3.7305908,10.1897278-11.2627563,11.2556152l-11.5540161,1.6343384   c-7.5321655,1.0658569-11.3053589-1.6201477-11.3338013-8.0580139l-0.1350098-36.5381165   c-0.0284424-6.4378662,3.7305298-10.1897278,11.2556152-11.2555847l11.5611572-1.6343384   c7.5250854-1.0658875,11.3053589,1.6201172,11.3266602,8.0579834L582.0689087,322.4115906z"/>
	<path class="st2" d="M615.3596802,355.4820557l-2.0109253-9.8131409l-12.9894409,1.833313l-1.9328003,10.3744812   l-12.6341553,1.7906799l12.69104-57.6779175l16.3078003-2.3093872l13.4726563,53.975769L615.3596802,355.4820557z    M602.1144409,338.115448l9.3228149-1.3216858l-4.7466431-22.9588928L602.1144409,338.115448z"/>
	<path class="st2" d="M643.9464111,351.4388428l-11.2911377,1.5988159l-0.2061157-55.8517151l13.9771729-1.9754028   l9.5217896,30.2849731l9.3015137-32.9496765l13.9771729-1.9754028l0.2060547,55.8517151l-11.2911377,1.5988159   l-0.1421509-37.497406l-7.2550049,26.412323l-9.4934082,1.3429871l-7.4468994-24.2521362L643.9464111,351.4388428z"/>
	<path class="st2" d="M687.28479,289.4335022l23.4776001-3.325531c7.5321655-1.0658569,11.2982788,1.6272278,11.3266602,8.065094   l0.0639648,16.9473877c0.0213013,6.5018311-3.7234497,10.2749939-11.2556152,11.3408813l-10.7510986,1.5206299   l0.0710449,19.4983826l-12.7265015,1.8048706L687.28479,289.4335022z M709.3341064,311.2696838l-0.0497437-13.52948   c-0.0070801-1.4566956-0.7886963-2.0891113-2.3449097-1.8688354l-6.8926392,0.9735107l0.0639648,17.9208679l6.8926392-0.9735107   C708.5595703,313.5719604,709.3412476,312.7334595,709.3341064,311.2696838z"/>
</g>
<g>
	<path d="M168.9829102,498.5919189c0,0,33.7695313,109.5090942,231.402771,216.2605591   C598.026001,608.1010132,631.8027954,498.5919189,631.8027954,498.5919189v-102l-462.8198853,62.5767212V498.5919189z"/>
	<g>
		<path class="st2" d="M545.7526855,485.9615479c-27.6212158-4.227478-55.5039673,9.0737305-68.4414673,32.6490479    c-11.532959,21.0432739-8.8554077,46.357666,6.5924683,62.569458    c13.3737793,14.0214233,33.4128418,17.2304077,48.8389282,7.8074951    c9.1900635-5.6173096,14.348877-16.517334,12.3623657-26.1221924c-1.4478149-6.9925537-6.6286621-12.1514893-12.486084-12.4570313    c-4.453125-0.2255859-7.3418579,2.0955811-7.9458618,6.4031372c-0.7058716,5.0644531-4.0820313,7.6038818-9.1682739,6.6724243    c-5.3262329-0.989563-8.7023926-4.4676514-10.4197998-9.3573608c-3.1287231-8.8916626-0.8439941-16.9102783,5.2681274-23.6263428    c9.2410889-10.1287231,21.0287476-12.7554321,34.0244141-9.7212524c21.0432129,4.9334717,35.625,25.729187,34.7227783,48.9771729    c-0.1586914,4.076416-0.7513428,8.0685425-1.7321777,11.9338989    c13.7511597-15.3139648,24.2324829-29.1928101,32.1387939-41.0305786    C599.9684448,511.7184448,575.7838135,490.5698853,545.7526855,485.9615479z"/>
		<path class="st2" d="M260.1483765,462.4735107c4.5550537,28.9016724,21.2541504,48.7734375,49.8939209,56.9884033    c24.5359497,7.0362549,50.3669434-3.0996704,62.9042358-23.7790527    c9.7867432-16.1608276,8.5422974-36.4763794-3.0415039-49.7193604    c-6.2584839-7.1599121-14.7815552-10.9522705-23.2559814-10.8166504l-6.3457642,0.8579712    c-1.2700195,0.3305054-2.5282593,0.7387695-3.760498,1.2633667c-6.9415283,2.9470215-11.612915,10.1069336-10.8634644,16.6629028    c0.6838989,6.1266479,6.0175171,10.2597046,11.532959,7.2254028c3.12146-1.7171631,6.3668213-0.3128662,8.3968506,2.8087158    c3.4199219,5.2680664,1.7755737,12.9519043-3.8347168,17.9071045c-7.3054199,6.4468384-18.5328369,7.763855-28.1812134,2.7359619    c-14.5089722-7.5529785-20.5629272-20.2355957-20.0026245-36.0617065c0.076355-2.1395874,0.3129883-4.2477417,0.6862793-6.3186035    l-35.2529297,4.7664795C258.9451294,451.986084,259.309082,457.1445313,260.1483765,462.4735107z"/>
		<path class="st2" d="M404.1037598,434.8452148c15.3676758,26.8424683,12.784729,61.1796265-6.6141968,86.3703003    c-14.7200928,19.1077881-34.2715454,30.1095581-57.9052734,34.1334839    c-12.9954224,2.2119751-25.2924805,6.4104004-32.2486572,10.2595825    c-15.0112305,8.3897095-24.3032227,15.6660767-32.4453735,24.4413452    c-7.2332153,7.7943726-13.1013184,16.473938-17.5845337,25.6722412    c8.4837036,7.7366333,17.7459106,15.682373,27.8490601,23.7805786    c6.3391113-19.2210693,21.0681152-35.7529907,41.6012573-44.053772    c34.7374878-14.0506592,65.9528809-6.3595581,93.1084595,18.7875977    c6.0392456,5.5881348,11.0162354,12.333313,16.9393311,18.0744019    c14.9001465,14.4279175,32.6161499,23.7702026,51.0593262,28.2301636    c16.1268921-11.5725098,30.5170288-22.9440918,43.3411255-33.9611206    c-35.5691528,9.0599976-74.0064087-10.2180786-89.2706909-47.6193237    c-9.0736694-22.2146606-7.8803711-44.4003296-0.1236572-66.9569702    c11.0065918-32.0054321,9.9945068-62.0500488-4.4050293-89.1277466l-37.7904663,5.1095581    C401.2299805,430.1589966,402.7319946,432.4466553,404.1037598,434.8452148z"/>
		<path class="st2" d="M388.6051025,633.1332397c-18.4018555-13.2211304-42.7194824-12.9520264-59.2003174,0.6620483    c-9.0089722,7.4387817-13.8015137,18.2442017-13.3724365,28.9732666    c9.9666138,7.0697632,20.5877686,14.2108765,31.8959961,21.3883667c0.4987183-0.5057373,0.9730835-1.0628662,1.4135742-1.6900024    c2.3648682-3.3690186,1.979187-7.3418579-0.8149414-9.7139893c-5.7337646-4.8605957-5.1152954-10.8563232,1.4988403-14.538147    c6.2504883-3.4854126,14.916687-2.0155029,20.9923706,4.0165405c9.0155029,8.9572144,10.3616333,19.8208008,6.5413818,31.4192505    c-0.7747803,2.3514404-1.7926636,4.5873413-3.0105591,6.699707c8.2861328,4.8328247,16.8911743,9.6702881,25.8366699,14.5021973    c2.4719849-1.3352051,4.9112549-2.6708984,7.3322754-4.0067749c0.2020874-0.4466553,0.4122925-0.8880615,0.6062012-1.3399048    C420.2064209,681.8047485,411.9768066,649.9197388,388.6051025,633.1332397z"/>
	</g>
	<g>
		<path d="M362.4743042,559.3408203h-3.822937v-6.1394043h10.7013855v28.2029419h-6.8784485V559.3408203z"/>
		<path d="M380.9814148,573.1403198c0.3872681,1.9683228,1.5064392,3.0484009,3.5564575,3.0484009    c2.7819214,0,3.7483215-2.3591309,3.7483215-7.7240601c-1.1227112,1.5846558-3.2082825,2.5083618-5.6029358,2.5083618    c-4.8283997,0-8.5376587-3.0128174-8.5376587-9.0030518c0-5.7201538,3.709259-9.4294434,9.6958923-9.4294434    c8.0366821,0,10.2785645,5.4501953,10.2785645,14.0269165c0,9.6212769-2.2418823,14.9577637-9.8131104,14.9577637    c-6.1465454,0-9.1203308-4.0574341-9.4294434-8.3848877H380.9814148z M387.7461548,562.0836792    c0-2.5083618-1.4709167-3.8584595-3.7092285-3.8584595c-2.2809753,0-3.6737366,1.4638062-3.6737366,3.822937    c0,2.1246338,1.2364197,3.7092285,3.8265076,3.7092285C386.3533936,565.7573853,387.7461548,564.364624,387.7461548,562.0836792z"/>
		<path d="M400.7640076,559.3408203h-3.822937v-6.1394043h10.701355v28.2029419h-6.878418V559.3408203z"/>
		<path d="M411.9343567,576.1105347c5.9902039-4.9456177,12.3641052-9.8486328,12.3641052-14.602417    c0-2.0465088-0.9237366-3.361084-2.9346924-3.361084c-1.9754028,0-3.133667,1.5419922-3.133667,4.2137451h-6.3739014    c0.1918335-6.8428955,4.6400757-9.7775879,9.7775879-9.7775879c6.4094543,0,9.2731018,3.744751,9.2731018,8.4985352    c0,6.1820679-5.5283203,11.1277466-10.0050049,14.5669556h10.4313354v5.3720093h-19.3988647V576.1105347z"/>
	</g>
</g>
</svg>