<svg xmlns="http://www.w3.org/2000/svg" xmlns:xlink="http://www.w3.org/1999/xlink" version="1.1" id="Capa_1" x="0px" y="0px" width="612px" height="759.5px" viewBox="0 0 612 759.5" enable-background="new 0 0 612 759.5" xml:space="preserve">
<g>
	<path fill-rule="evenodd" clip-rule="evenodd" fill="#D9B160" d="M7,574.2c0.943,1.545,1.269,10.189,1.834,12.919   c2.776,13.387,4.459,20.85,12.097,32.673c6.49,10.049,19.328,21.649,32.008,27.449c13.323,6.093,31.297,10.649,46.833,12.633   c4.319,0.55,9.047,0.79,13.416,1.295c14.893,1.722,26.465,2.529,41.386,3.719c17.859,1.422,35.587,2.89,52.625,6.812   c11.732,2.702,11.441,1.994,23.231,6.501c10.095,3.86,10.71,3.347,21.022,9.039c7.525,4.152,15.592,9.47,21.431,15.643   c1.378,1.457,2.403,1.894,3.89,3.449c6.026,6.3,8.238,9.3,13.107,16.628c1.981,2.982,4.049,6.058,5.968,9.058l10.196,19.952h0.218   c2.639-5.599,12.427-21.119,16.102-27.018c2.066-3.315,6.216-9.344,8.986-12.404c5.521-6.102,11.849-12.531,18.633-17.445   c26.947-19.516,64.787-26.981,101.615-28.229c9.045-0.309,18.395-0.844,27.362-1.489c21.639-1.559,29.676-0.419,53.459-3.965   c21.173-3.155,47.078-12.188,58.42-28.425c1.997-2.859,3.944-5.31,5.913-8.454c1.866-2.98,3.389-6.043,4.69-9.669   c1.997-5.57,3.183-11.549,4.305-17.39c0.35-1.819,0.248-5.292,0.854-6.553V7.42H7V574.2z"/>
	<path fill-rule="evenodd" clip-rule="evenodd" fill="#E30F13" d="M18.998,571.06c-0.171,6.481,2.06,17.903,3.67,23.944   c1.824,6.849,5.251,14.133,8.689,19.04c6.385,9.112,17.861,19.559,31.165,24.283c32.621,11.588,35.878,8.545,63.707,12.413   l19.402,1.486c4.442,0.08,8.523,0.868,13.035,0.963l25.145,2.513c7.958,1.318,16.096,2.048,23.787,3.897   c7.461,1.794,15.272,2.927,22.106,5.627c6.68,2.637,13.833,4.664,19.956,7.77c14.612,7.409,13.908,7.338,25.511,15.906   c3.359,2.48,4.135,3.895,7.382,6.652c8.511,7.229,15.237,17.702,21.427,27.339c0.546,0.851,0.824,1.23,1.347,1.983   c0.595,0.859,0.893,1.55,1.749,2.147c0.639-1.611,8.938-14.173,10.364-16.029c4.188-5.447,8.052-9.76,12.489-14.229   c18.479-18.615,43.981-30.112,71.271-35.657c15.051-3.057,31.477-5.696,47.398-6.002c16.839-0.322,33.964-2.254,50.774-2.554   c13.667-0.246,35.167-2.312,47.369-6.203c14.065-4.484,27.314-10.569,33.914-19.532c3.658-4.969,7.503-9.76,9.919-16.805   c1.238-3.61,1.921-6.76,2.68-10.671c0.346-1.787,0.871-3.769,1.097-5.508c0.302-2.31-0.187-4.113,0.26-6.44l0.301-567.874H19.014   L18.998,571.06z"/>
	<rect x="33.214" y="33.673" fill-rule="evenodd" clip-rule="evenodd" fill="#FDFEFF" width="547.214" height="101.815"/>
	<path fill-rule="evenodd" clip-rule="evenodd" fill="#FDFEFF" d="M265.5,664.35c0,0.907,9.865,6.89,11.292,7.856   c3.949,2.675,7.39,5.467,10.962,8.504c3.362,2.859,17.664,16.88,18.589,20.344c0.487-0.129,14.798-16.541,18.059-18.958   c3.482-2.584,6.544-5.709,10.14-8.368c1.461-1.079,11.047-6.81,11.047-7.782V150.17H265.5V664.35z"/>
	<path fill-rule="evenodd" clip-rule="evenodd" fill="#FDFEFF" d="M425.996,642.646c2.834,0,6.618-0.642,9.542-0.989   c2.903-0.343,6.863-0.204,9.793-0.733c3.721-0.674,16.27-1.174,20.227-1.152c13.283,0.073,27.579-1.912,40.526-1.912V150.17   h-80.088V642.646z"/>
	<polygon fill-rule="evenodd" clip-rule="evenodd" fill="#FDFEFF" points="104.367,634.028 184.775,641.371 184.775,150.17    104.367,150.17  "/>
	<path fill-rule="evenodd" clip-rule="evenodd" fill="#FDFEFF" d="M85.861,78.039h22.655c7.53,0,13.72-2.864,13.72-10.213   c0-5.292-4.489-9.894-9.572-9.894H85.861V78.039z"/>
	<path fill-rule="evenodd" clip-rule="evenodd" fill="#E30613" d="M73.936,43.404h46.475v15.887H90.06v15.293h30.35v15.65H90.06   v22.407h30.35v15.887H73.936V43.404L73.936,43.404z M142.284,111.931c2.51,0,4.643,0.869,6.421,2.628   c1.759,1.759,2.648,3.892,2.648,6.402c0,2.53-0.889,4.663-2.648,6.441c-1.779,1.778-3.911,2.667-6.421,2.667   c-2.51,0-4.645-0.889-6.423-2.667c-1.759-1.778-2.647-3.911-2.647-6.441c0-2.51,0.888-4.643,2.647-6.402   C137.64,112.8,139.774,111.931,142.284,111.931L142.284,111.931z M371.968,43.404h16.123v69.711h23.829v15.413h-39.952V43.404   L371.968,43.404z M431.068,111.931c2.509,0,4.643,0.869,6.421,2.628c1.759,1.759,2.648,3.892,2.648,6.402   c0,2.53-0.89,4.663-2.648,6.441c-1.778,1.778-3.912,2.667-6.421,2.667c-2.511,0-4.644-0.889-6.424-2.667   c-1.758-1.778-2.646-3.911-2.646-6.441c0-2.51,0.889-4.643,2.646-6.402C426.425,112.8,428.558,111.931,431.068,111.931   L431.068,111.931z M457.308,43.404h17.21c9.308,0,19.752,0.851,23.86,2.569c4.11,1.718,7.372,4.505,9.741,8.339   c2.37,3.832,3.557,8.437,3.557,13.812c0,13.848-1.824,27.333-17.369,31.777c-3.137,0.896-12.597,1.322-20.874,1.322v27.305h-16.125   V43.404L457.308,43.404z M473.433,85.456h5.195c6.386,0,16.78-1.95,17.343-9.744c0.202-2.819,0.056-6.484,0.056-7.627   c0-3.301-1.295-5.694-3.853-7.213c-1.867-1.109-9.081-1.698-14.138-1.698h-4.604V85.456L473.433,85.456z M530.635,111.931   c2.509,0,4.644,0.869,6.422,2.628c1.758,1.759,2.647,3.892,2.647,6.402c0,2.53-0.89,4.663-2.647,6.441   c-1.778,1.778-3.913,2.667-6.422,2.667c-2.51,0-4.644-0.889-6.423-2.667c-1.758-1.778-2.647-3.911-2.647-6.441   c0-2.51,0.89-4.643,2.647-6.402C525.991,112.8,528.125,111.931,530.635,111.931L530.635,111.931z M240.594,50.934h14.021v77.595   h-14.021v-5.957c-2.742,2.6-5.5,4.464-8.259,5.605c-2.758,1.142-5.764,1.722-8.979,1.722c-7.256,0-13.512-2.794-18.8-8.399   c-5.29-5.587-7.925-12.545-7.925-20.858c0-8.626,2.564-15.691,7.678-21.208c5.113-5.501,11.315-8.258,18.625-8.258   c3.374,0,6.519,0.632,9.471,1.88c2.954,1.265,5.676,3.162,8.189,5.676V50.934L240.594,50.934z M225.816,84.037   c-4.357,0-7.978,1.53-10.842,4.604c-2.881,3.057-4.321,6.993-4.321,11.79c0,4.832,1.458,8.803,4.392,11.93   c2.934,3.111,6.537,4.675,10.824,4.675c4.411,0,8.083-1.53,10.981-4.604c2.917-3.057,4.376-7.082,4.376-12.054   c0-4.866-1.459-8.804-4.376-11.825C233.952,85.549,230.261,84.037,225.816,84.037L225.816,84.037z M324.796,104.49h-45.071   c0.649,3.99,2.389,7.169,5.201,9.542c2.812,2.354,6.413,3.533,10.772,3.533c5.236,0,9.716-1.846,13.476-5.537l11.773,5.572   c-2.935,4.182-6.466,7.274-10.561,9.294c-4.111,2.003-8.979,3.005-14.619,3.005c-8.751,0-15.885-2.758-21.384-8.292   c-5.5-5.518-8.258-12.441-8.258-20.753c0-8.522,2.758-15.602,8.258-21.226c5.499-5.64,12.388-8.452,20.698-8.452   c8.805,0,15.974,2.812,21.491,8.417c5.518,5.623,8.276,13.021,8.276,22.246L324.796,104.49L324.796,104.49z M310.826,93.526   c-0.932-3.056-2.759-5.552-5.482-7.467c-2.741-1.916-5.904-2.865-9.523-2.865c-3.918,0-7.345,1.072-10.314,3.234   c-1.846,1.335-3.566,3.708-5.148,7.098H310.826z"/>
</g>
</svg>