<svg xmlns="http://www.w3.org/2000/svg" viewBox="0 0 160 160"><defs><style>.cls-1{fill:#fff;}.cls-2{fill:#e2001a;}</style></defs><g id="Laag_2" data-name="Laag 2"><g id="Excelsior_RGB" data-name="Excelsior RGB"><circle class="cls-1" cx="80" cy="80" r="78"/><path d="M80,4A76,76,0,1,1,4,80,76.08,76.08,0,0,1,80,4m0-4a80,80,0,1,0,80,80A80,80,0,0,0,80,0Z"/><path d="M80,40A40,40,0,0,0,40,80h80A40,40,0,0,0,80,40Z"/><path class="cls-2" d="M40,80a40,40,0,0,0,80,0Z"/><path class="cls-2" d="M19.22,75.11v9.8H17.27V77.25l-2.2,1-.46-1.63,3-1.53Z"/><path class="cls-2" d="M28.21,75.91a3.28,3.28,0,0,1,1.06,2.48,4,4,0,0,1-.74,2.12l-2.83,4.4H23.54l2-3.14h-.28a3.57,3.57,0,0,1-2.48-1,3.2,3.2,0,0,1-1-2.36,3.27,3.27,0,0,1,1.05-2.48,3.73,3.73,0,0,1,2.66-1A3.74,3.74,0,0,1,28.21,75.91Zm-1.35,3.7a1.67,1.67,0,0,0,.5-1.22,1.71,1.71,0,0,0-.5-1.26,1.81,1.81,0,0,0-1.32-.49,1.77,1.77,0,0,0-1.31.49,1.7,1.7,0,0,0-.49,1.26,1.65,1.65,0,0,0,.49,1.23,1.77,1.77,0,0,0,1.31.49A1.82,1.82,0,0,0,26.86,79.61Z"/><path class="cls-2" d="M130.5,83.69a6.86,6.86,0,0,1,0-7.36,3.56,3.56,0,0,1,3-1.41,3.52,3.52,0,0,1,3,1.41,6.86,6.86,0,0,1,0,7.36,3.53,3.53,0,0,1-3,1.42A3.57,3.57,0,0,1,130.5,83.69Zm4.57-1.23a4.71,4.71,0,0,0,.54-2.45,4.76,4.76,0,0,0-.54-2.45,1.72,1.72,0,0,0-1.58-.89,1.75,1.75,0,0,0-1.6.89,4.66,4.66,0,0,0-.55,2.45,4.61,4.61,0,0,0,.55,2.45,1.76,1.76,0,0,0,1.6.9A1.73,1.73,0,0,0,135.07,82.46Z"/><path class="cls-2" d="M146.46,83.17v1.74h-7.08V83.59L143.2,80a6.31,6.31,0,0,0,.91-1,1.52,1.52,0,0,0,.29-.91A1.41,1.41,0,0,0,144,77a1.57,1.57,0,0,0-1.13-.39,1.69,1.69,0,0,0-1.16.44,2.1,2.1,0,0,0-.63,1.16l-1.73-.49a3.2,3.2,0,0,1,1.12-2,3.44,3.44,0,0,1,2.36-.83,3.78,3.78,0,0,1,2.52.81,2.79,2.79,0,0,1,1,2.26,3,3,0,0,1-.43,1.58,7.84,7.84,0,0,1-1.37,1.56l-2.2,2Z"/><path d="M34.31,104.73l3.22,4.77a5,5,0,0,1,1,3.76,3.86,3.86,0,0,1-1.78,2.51l0,0a3.89,3.89,0,0,1-2.48.77,4.31,4.31,0,0,1-2.27-.83l-2,5.07-1.81-2.69L30,113.62v0l-1.2-1.77-3.35,2.25-1.55-2.3Zm-2,8a2.29,2.29,0,0,0,1.28,1,1.66,1.66,0,0,0,1.38-.27l0,0a1.63,1.63,0,0,0,.8-1.23,2.56,2.56,0,0,0-.52-1.58l-1.54-2.29-3,2Z"/><path d="M37.45,128.5a6.77,6.77,0,0,1-1.67-2.15,6.62,6.62,0,0,1-.68-2.44,6.27,6.27,0,0,1,.31-2.46,6.4,6.4,0,0,1,1.3-2.23l0,0a6.32,6.32,0,0,1,2.05-1.57,6.59,6.59,0,0,1,2.41-.64,6.47,6.47,0,0,1,2.52.35,7.24,7.24,0,0,1,4,3.54,6.62,6.62,0,0,1,.68,2.44,6.27,6.27,0,0,1-.31,2.46,6.52,6.52,0,0,1-1.3,2.22l0,0a6.42,6.42,0,0,1-4.46,2.2,6.53,6.53,0,0,1-2.53-.34A7.06,7.06,0,0,1,37.45,128.5Zm1.72-1.9a3.56,3.56,0,0,0,1.35.78,3.47,3.47,0,0,0,1.46.16,4,4,0,0,0,1.4-.44,4.07,4.07,0,0,0,1.21-.95l0,0a4.38,4.38,0,0,0,.8-1.34,3.88,3.88,0,0,0,.23-1.46,3.72,3.72,0,0,0-.35-1.45,3.49,3.49,0,0,0-.94-1.24,3.61,3.61,0,0,0-2.81-.94,4.21,4.21,0,0,0-1.4.43,4.32,4.32,0,0,0-1.22,1l0,0a4.25,4.25,0,0,0-.8,1.33,3.74,3.74,0,0,0,.11,2.91A3.5,3.5,0,0,0,39.17,126.6Z"/><path d="M53.85,127.57l-3.4-1.76,1.17-2.27,9.27,4.8-1.17,2.27-3.4-1.76-4.62,8.92-2.47-1.28Z"/><path d="M65.05,132.19l-3.71-1,.64-2.47,10.11,2.61-.64,2.47-3.71-1-2.51,9.73-2.69-.69Z"/><path d="M73.69,131.52l9.48.32-.09,2.46-6.74-.23-.09,2.56,5.94.2-.09,2.46-5.93-.2-.09,2.65,6.83.23-.08,2.46-9.57-.32Z"/><path d="M85.49,131.66l5.65-1.16A5,5,0,0,1,95,131a3.91,3.91,0,0,1,1.63,2.61v0a4,4,0,0,1-.23,2.59A4.33,4.33,0,0,1,94.77,138l3.91,3.8-3.17.64-3.46-3.41h0l-2.1.43.81,3.95L88,144Zm6.69,4.88a2.32,2.32,0,0,0,1.45-.79,1.65,1.65,0,0,0,.28-1.38v0a1.62,1.62,0,0,0-.83-1.21,2.64,2.64,0,0,0-1.66-.12l-2.7.55.72,3.55Z"/><path d="M97.71,128.9l4.41-2.15a7.24,7.24,0,0,1,2.65-.76,6.46,6.46,0,0,1,2.49.25,6,6,0,0,1,2.11,1.18,6.51,6.51,0,0,1,1.52,2l0,0a6.33,6.33,0,0,1,.65,2.44,5.75,5.75,0,0,1-.36,2.4,6.47,6.47,0,0,1-1.32,2.13,7.61,7.61,0,0,1-2.22,1.63l-4.42,2.15Zm8.85,6.92a4.37,4.37,0,0,0,1.27-.92,3.4,3.4,0,0,0,.74-1.23,3.82,3.82,0,0,0,.17-1.4,4,4,0,0,0-.42-1.5l0,0a4.06,4.06,0,0,0-.92-1.25,3.63,3.63,0,0,0-1.22-.75,3.73,3.73,0,0,0-1.42-.18,4.36,4.36,0,0,0-1.52.43l-1.92.95,3.33,6.82Z"/><path d="M112.33,120.25l2-1.65,12.31,6.21-2.21,1.87-2.7-1.41-4.07,3.44.94,2.9-2.15,1.82Zm7,3.79-3.92-2,1.36,4.2Z"/><path d="M119.19,114.3l1.69-2.47,6.27.27-2.54-5.74,1.68-2.47L136.7,111l-1.54,2.26-6.79-4.64,2.44,6,0,.06-6.38-.11,6.75,4.61-1.54,2.26Z"/><path d="M22.64,49l5.72-8.85,2.3,1.49-4.07,6.3L29,49.47l3.58-5.55,2.3,1.49L31.28,51l2.47,1.6,4.12-6.38,2.3,1.48L34.4,56.59Z"/><path d="M39.67,38.11l-8.09-2,2.67-2.42,5.23,1.4-.85-5.35,2.59-2.35,1.12,8.21,8.42,2-2.67,2.42-5.55-1.45.88,5.68-2.59,2.35Z"/><path d="M57.47,34.49a7.38,7.38,0,0,1-2.79.82A7.07,7.07,0,0,1,52,35a7,7,0,0,1-2.39-1.35,7.47,7.47,0,0,1-1.77-2.26l0,0A7.26,7.26,0,0,1,47,28.62a7.38,7.38,0,0,1,.27-2.74,7,7,0,0,1,1.33-2.44,7.61,7.61,0,0,1,2.36-1.87,9.78,9.78,0,0,1,1.67-.68,8,8,0,0,1,1.51-.28,6.43,6.43,0,0,1,1.39,0,8.3,8.3,0,0,1,1.33.31l-.7,2.9a7.78,7.78,0,0,0-2-.26,4.19,4.19,0,0,0-1.89.51,3.92,3.92,0,0,0-1.29,1.05,3.73,3.73,0,0,0-.71,1.42,4.4,4.4,0,0,0-.11,1.62,4.73,4.73,0,0,0,.51,1.64l0,0a4.76,4.76,0,0,0,1,1.37,4.37,4.37,0,0,0,1.38.86,3.76,3.76,0,0,0,1.57.26,3.81,3.81,0,0,0,1.63-.45,4.38,4.38,0,0,0,1.6-1.32,8.22,8.22,0,0,0,.91-1.83l2.65.86a10.17,10.17,0,0,1-.51,1.44,6.69,6.69,0,0,1-.77,1.28A6.62,6.62,0,0,1,59,33.49,8.75,8.75,0,0,1,57.47,34.49Z"/><path d="M61.09,17.59l10.29-2.26L72,18l-7.33,1.61.61,2.77L71.7,21l.59,2.68-6.45,1.42.63,2.87,7.42-1.63L74.48,29,64.09,31.27Z"/><path d="M77.32,14.9,80.4,15,80.09,26.2l7,.2L87,29.17l-10-.27Z"/><path d="M93.83,31.1A9.08,9.08,0,0,1,91,29.73a8,8,0,0,1-2.25-2.37L91,25.74a8.72,8.72,0,0,0,1.57,1.72,5.19,5.19,0,0,0,2,1,2.62,2.62,0,0,0,1.53.06,1.1,1.1,0,0,0,.77-.79v0a1.25,1.25,0,0,0,0-.54,1.17,1.17,0,0,0-.29-.53,4.64,4.64,0,0,0-.73-.61,13,13,0,0,0-1.27-.79A17.3,17.3,0,0,1,93,24.18,5.3,5.3,0,0,1,91.76,23a3.27,3.27,0,0,1-.59-1.38,4.11,4.11,0,0,1,.15-1.76v0a4.09,4.09,0,0,1,.8-1.57,4,4,0,0,1,1.33-1,4.68,4.68,0,0,1,1.71-.42,6.41,6.41,0,0,1,2,.24,8.11,8.11,0,0,1,4.53,3.1L99.54,22A10.79,10.79,0,0,0,98,20.53a4.65,4.65,0,0,0-1.64-.84,2.2,2.2,0,0,0-1.39,0,1.11,1.11,0,0,0-.67.72v0a1.24,1.24,0,0,0,0,.6,1.13,1.13,0,0,0,.34.56,4.94,4.94,0,0,0,.79.62l1.33.8a14,14,0,0,1,1.66,1.11,5.42,5.42,0,0,1,1.13,1.18,3.28,3.28,0,0,1,.53,1.34,3.94,3.94,0,0,1-.14,1.6v0A4.31,4.31,0,0,1,99.06,30a3.74,3.74,0,0,1-1.38,1,4.6,4.6,0,0,1-1.78.38A7,7,0,0,1,93.83,31.1Z"/><path d="M107.47,21.05l2.76,1.37L104,35l-2.76-1.37Z"/><path d="M112,40.62a7.74,7.74,0,0,1-2-2.32,7.62,7.62,0,0,1-.85-2.68,6.9,6.9,0,0,1,.25-2.74,7.31,7.31,0,0,1,1.35-2.53l0,0a7,7,0,0,1,2.21-1.82,7.35,7.35,0,0,1,2.65-.81,7.19,7.19,0,0,1,2.82.29,8.05,8.05,0,0,1,4.62,3.77,7.42,7.42,0,0,1,.85,2.68,7,7,0,0,1-1.6,5.26l0,0a7,7,0,0,1-2.21,1.83,7.2,7.2,0,0,1-5.47.52A7.73,7.73,0,0,1,112,40.62Zm1.83-2.17a4.35,4.35,0,0,0,1.53.81,3.89,3.89,0,0,0,1.62.11,4.59,4.59,0,0,0,2.86-1.65l0,0a4.8,4.8,0,0,0,.84-1.51,4.46,4.46,0,0,0,.2-1.65,4.23,4.23,0,0,0-1.54-2.93,4.2,4.2,0,0,0-1.54-.82,3.87,3.87,0,0,0-1.62-.1,4.34,4.34,0,0,0-1.54.53,4.49,4.49,0,0,0-1.31,1.12l0,0a4.49,4.49,0,0,0-.83,1.51,4,4,0,0,0-.2,1.64,4.18,4.18,0,0,0,.43,1.58A4.07,4.07,0,0,0,113.86,38.45Z"/><path d="M130.6,38.83l3.61,5.28a5.57,5.57,0,0,1,1.13,4.17,4.32,4.32,0,0,1-2,2.8l0,0a4.44,4.44,0,0,1-2.76.88,4.86,4.86,0,0,1-2.52-.91l-2.2,5.64-2-3,2-5,0,0-1.35-2-3.7,2.52L119,46.72Zm-2.12,9a2.55,2.55,0,0,0,1.43,1.14,1.85,1.85,0,0,0,1.54-.31l0,0a1.79,1.79,0,0,0,.88-1.37,2.83,2.83,0,0,0-.59-1.75L130,42.94l-3.32,2.26Z"/></g></g></svg>