<svg xmlns="http://www.w3.org/2000/svg" xmlns:xlink="http://www.w3.org/1999/xlink" version="1.1" id="Layer_1" width="132.526" height="211.929" viewBox="0 0 132.526 211.929" overflow="visible" enable-background="new 0 0 132.526 211.929" xml:space="preserve">
<path fill-rule="evenodd" clip-rule="evenodd" fill="#FAC50E" d="M0.166,83.481c6.583-4.963,9.427-10.053,10.073-16.55  c0.633-6.363-0.901-13.468-7.108-20.334L22.12,26.61c11.536,4.617,21.968,1.18,30.247-10.222c2.953,11.653,9.262,14.95,13.86,15.034  l0.039,0.003l0.033-0.003c4.598-0.084,10.907-3.381,13.859-15.034C88.438,27.79,98.87,31.227,110.407,26.61l18.988,19.987  c-6.207,6.866-7.74,13.971-7.107,20.334c0.645,6.497,3.488,11.587,10.072,16.55c1.768,46.135-10.836,75.922-26.324,95.633  c-10.65,13.555-24.65,24.617-39.783,32.815c-15.766-8.354-31.782-21.626-42.431-36.354C9.585,155.885-1.499,126.934,0.166,83.481z"/>
<path fill-rule="evenodd" clip-rule="evenodd" fill="#64BACA" d="M128.438,83.024c-4.724-4.237-7.605-9.148-8.275-15.882  c-0.765-7.704,1.613-14.592,6.361-20.469l-16.691-17.568c-11.43,4.015-21.239,0.376-28.846-8.263  c-2.475,6.462-7.117,12.532-14.566,12.712l-0.139,0.013l-0.16-0.013c-7.459-0.172-12.107-6.245-14.582-12.712  c-7.607,8.639-17.416,12.278-28.847,8.263L6.002,46.673c4.748,5.877,7.125,12.765,6.36,20.469  c-0.669,6.733-3.551,11.645-8.275,15.882H128.438z"/>
<path fill-rule="evenodd" clip-rule="evenodd" d="M13.975,154.086c3.121,7.055,6.947,13.836,11.576,20.238  c10.179,14.077,25.382,26.864,40.692,35.178c14.488-8,27.871-18.67,38.115-31.707c20.42-25.988,26.767-58.84,25.963-91.231  L13.975,154.086z"/>
<path fill-rule="evenodd" clip-rule="evenodd" fill="#FFFFFF" d="M2.244,85.158c-0.713,22.838,2.073,46.041,10.879,66.954  l115.368-66.954H2.244z"/>
<path fill-rule="evenodd" clip-rule="evenodd" fill="#FAC50E" d="M34.172,106.241c0.463-1.158,0.642-1.697,1.066-1.97  s0.733-0.234,0.966-0.145c0.982,0.377,0.979,1.888,1.021,3.318s-0.049,3.092-0.78,3.318c-0.326,0.102-0.916,0.162-1.43-0.215  c-0.513-0.379-0.865-1.063-1.118-2.051c-0.424,1.036-0.632,2.085-0.553,2.816c0.344,3.178,3.125,3.162,5.99,2.101  c-0.24,1.187,0.174,2.317,0.238,3.438c0.086,0.113,0.498-0.268,0.72-0.467c-0.002,0.25,0.077,1.176,0.124,1.293  c0.478-0.542,0.872-1.131,1.261-1c0.178,1.893,0.5,3.439,1.38,4.823c0.253-1.811,0.474-2.759,1.09-3.713  c0.314,2.398,0.748,5.04,2.031,6.71c0.078-0.928,0.558-3.244,1.218-2.378c0.457,1.92,0.683,3.626-0.909,4.116  c0.468,0.491,0.818,0.49,1.147,0.65c-0.17,0.327-0.444,0.855-1.261,1.123c0.747,0.519,1.961,0.293,1.643,0.726  c-0.565,0.967-2.124,1.211-3.644,2.007c-1.722,0.9-3.981,1.892-4.786,2.242c-1.922,0.838-3.471-1.418-6.617-0.988  c-0.396,0.055-0.79,0.183-0.987,0.508c-0.592-0.051-1.002,0.155-1.496,1.662c0.657-0.234,1.306-0.332,1.54-0.044  c0.313,0.385,0.245,1.095,1.115,1.37c-0.313,0.219-1.036,0.763-1.282,1.154s-0.163,0.621-0.456,0.896  c-0.594,0.556-0.781,0.713-0.745,1.997c0.435-0.323,0.771-0.507,1.3-0.625c0.411-0.094,0.984,0.074,1.283,0.147  c-0.117,1.013-0.371,1.732-0.247,2.597c0.029,0.207,0.519,0.458,0.513,0.666c-0.038,1.249,0.273,1.813,0.953,2.361  c0.141-0.413,0.117-1.039,0.289-1.426c0.187-0.418,1.256-0.789,1.38-1.209c0.408-1.391,0.912-1.852,2.359-2.487  c0.998-0.442,2.104-0.276,3.583-0.34c0.978-0.042,2.154-0.185,3.242-0.39c0.349-0.066,0.514-0.408,0.844-0.487  c0.992-0.235,2.054-0.256,2.69-0.567c0.106,1.533,0.336,3.266,1.397,4.318c0.063-1.012,0.474-1.949,1.374-2.721  c0.108,2.043,0.478,4.008,1.781,5.69c0.113,1.036-1.384,2.421-1.829,3.715c-0.445,1.294,0.562,3.263,2.682,2.817  c-1.411-1.935,0.895-2.928,1.319-4.01c0.537,0.242,0.94,0.664,1.523,1.309c0.329-1.331,0.209-2.797-0.044-4.128  c1.366,0.856,2.707,1.051,4.527,1.062c2.267,0.014,3.968-0.965,7.698,0.99c-5.804,3.32-10.357,5.271-12.102,10.613  c-0.532,0.744-0.728,0.746-1.227,0.188c-0.185,0.339-0.718,2.047,1.661,2.343c0.161,0.693,0.502,1.296,1.201,1.587  c-0.239-1.198,0.551-1.725,1.431-1.171c0.138,2.023,0.766,5.306-0.259,6.431c-0.434,0.475-0.993,1.033-1.624,1.16  c-1.494,0.3-3.396-0.36-5.011,0.205c-0.393,0.139-0.887,0.811-1.39,1.172c-0.39,0.28-0.807,0.216-1.073,0.595  c-0.366,0.519-0.539,1.116-0.303,1.747c0.714-0.93,1.788-0.379,2.458-0.141c-0.448,0.748-0.953,1.001-1.099,1.791  c-0.24,1.297,0.16,1.048,0.415,1.67c0.199,0.484,0.504,1,0.879,1.371c-0.02-1.004,0.857-2.006,1.689-2.201  c0.39,0.677,0.48,1.232,0.521,1.918c0.043,0.711,0.713,1.6,1.776,2.008c-0.075-0.968,0.241-1.564,0.738-2.117  c0.496-0.551,1.575-0.879,1.992-1.486c0.775,1.196,1.261,2.389,3.028,3.338c-0.168-0.582-0.166-1.258,0.011-1.838  c0.206-0.68,0.906-1.202,0.956-1.921c0.076-1.064-0.669-2.507-0.656-3.321c1.282-0.339,1.93,0.709,2.705,1.263  c0.386-0.915,0.026-2.039-0.184-2.833c1.321,0.352,2.353,0.965,2.476,1.078c0.15-0.617,0.215-1.861-0.382-2.702  c0.908,0.052,1.86,0.239,2.859,0.92c-0.509-2.064-1.058-2.029-1.557-3.274c-0.292-0.729-0.016-1.736-0.262-2.527  c-0.3-0.964-1.876-2.228-2.521-3.169c-0.44-0.645-0.303-1.164,0.408-1.239c3.208-0.343,6.942-0.979,9.632-1.199  c0.437,0.736,0.521,1.929,0.891,2.902c0.348,0.916,0.987,1.606,1.301,2.659c0.273,0.925,0.454,2.173,0.697,3.327  c0.293,1.393,0.62,2.674,0.526,3.365c0.655-0.169,1.228-0.584,1.763-1.109c0.684,0.391,1.234,0.899,1.561,1.529  c0.235-0.43,0.485-1.222,0.267-2.482c0.532,0.006,1.161,0.177,1.541-0.211c-0.159-0.556-0.526-1.238-0.201-1.832  c3.169,0.395,4.397,2.1,4.382,4.525c-0.008,1.103-0.329,2.916-1.029,4.596c-0.703,0.326-2.391-0.369-3.092-0.096  c-0.561,0.219-1.167,0.223-1.6,0.575c-0.447,0.364-0.967,0.179-1.371,0.503c-0.459,0.368-1.177,1.295-1.34,2.497  c0.476-0.403,1.668-0.313,2.145-0.358c-0.843,0.669-1.09,1.217-1.332,1.889c-0.12,0.331,0.104,0.676,0.066,1.033  c-0.049,0.459,0.113,1.084,0.255,1.617c0.631-0.904,1.216-1.136,1.981-1.501c0.17,0.535,0.063,1.22,0.433,1.68  c0.207,0.257,0.383,0.469,0.491,0.718c0.183,0.416,0.435,0.861,0.808,1.224c0.472-1.385,0.784-1.749,1.401-1.907  c0.523-0.134,0.824-0.947,1.385-1.375c0.028,0.471,0.018,1.206,0.298,1.86c0.126,0.298,0.603,0.545,0.8,0.804  c0.25,0.323,0.473,0.691,0.857,0.871c0.138-0.899,0.395-1.318,1.193-1.866c0.691-0.473,0.854-1.469,1.176-3.108  c0.307-1.562,1.646-2.251,2.307-3.258c0.447-0.42,1.656,0.328,2.553,0.672c0.039-1.629-2.521-2.451-2.436-4.708  c0.169-0.398,1.352-0.199,2.834,0.601c0.105-1.493-2.116-2.67-2.144-4.476c0.706-0.249,1.774,0.312,2.84,1.006  c-0.295-1.417-0.534-2.581-1.085-3.689c-0.355-0.718-1.738-1.65-1.783-1.728c-0.312-0.602-0.225-2.651-0.714-3.166  c-0.765-0.806-5.552-1.622-6.677-3.44c-1.057-1.708-0.918-5.594,0.244-7.417c9.105,3.497,14.953-0.717,15.925-5.979  c0.797-4.316-1.395-7.775-6.932-10.231c-2.288-1.015-2.089-5.384-5.085-6.015c0.312,1.06,0.039,1.851-0.142,2.508  c-0.763,0.033-1.556,0.489-1.974,1.122c0.92,0.971,1.674,1.847,1.641,2.817c-2.06-0.348-2.99,0.941-6.895,1.204  c-2.477,0.165-3.572-1.151-3.924-2.837c-0.311-1.488,0.238-3.553,2.23-4.094c1.693-0.461,0.271,2.429,1.463,4.018  c0.539,0.721,1.828,1.479,3.539,0.876c-1.693-1.084-0.029-3.379-0.469-5.091c1.644-0.034,3.197-1.101,3.588-2.886  c-0.699,1.165-2.605-0.272-3.975-0.408c0.791-1.025,3.562-2.145,5.465-0.829c1.398,0.967,2.439,2.686,3.143,4.385  c0.583,1.408,1.186,2.999,2.152,3.649c0.676,0.456,2.011,0.374,3.191,0.948c-0.385-1.146-1.287-1.346-1.715-2.275  c-0.625-1.36-0.646-3.17-0.543-4.255c1.102-0.109,1.485-0.128,2.139-1.987c-1.081,0.772-2.086,0.126-2.81-0.453  c-0.563-0.449-0.766-1.289-1.429-1.785c-1.236-0.924-2.99-0.844-4.328-0.711c0.027-1.111,0.697-1.985,1.877-2.098  c1.041-0.098,2.143,1.83,3.896,0.475c-1.531-1.57-1.183-4.174-4.551-3.184c0.869-8.168-5.654-6.353-3.646-12.001  c-2.425,1.294-3.21,2.846-3.225,4.636c-0.014,1.791,2.08,4.087,2.386,5.974c-0.903-0.38-2.966-0.314-3.87,0.019  c2.189,1.717,3.117,3.063,2.694,5.019c-1.221-0.935-2.44-1.87-3.661-2.804c0.002,1.657,0.05,3.673,0.052,5.33  c-2.323,2.127-6.119,4.307-6.255,8.775c-0.107,3.497,3.371,6.723,8.426,6.066c-0.039,0.498-0.072,1.559-0.936,2.303  c1.648,0.618,2.337-0.195,2.747,0.176c-0.337,2.227,0.169,4.381,3.151,4.449c-1.217-2.155-0.935-2.539-0.186-3.139  c0.34-0.271,0.723-0.385,0.998-0.989c0.566-1.238-0.114-3.554,0.521-3.649c0.765-0.115,3.133-0.546,5.26,0.326  c2.413,0.987,4.494,3.5,3.132,7.268c-0.94,2.6-4.708,3.917-6.562,3.697c-4.414-0.525-7.248-3.261-8.729-5.897  c-0.49-0.878-1.578-0.503-1.985-1.327c-0.273-0.555-0.534-0.773-0.854-1.216c-0.34-0.471-1.321-0.06-1.76-0.374  c-0.383-0.275-0.298-0.517-0.657-0.759c-0.422-0.283-1.614-0.099-1.835-0.499c-0.387-0.701-0.439-1.277-0.783-1.484  c-1.447-0.869-1.953-1.453-2.106-1.815c-1.64-3.882,0.813-9.44,2.478-12.502c0.242,0.047,0.922,0.132,1.495,0.702  c0.147-1.327-0.304-2.152-0.229-3.32c0.059-0.908,0.338-1.585,0.527-2.721c0.23,0,1.4,0.045,2.076,0.495  c-0.057-2.712-1.412-6.14-0.977-9.119c0.858,0.47,1.714,0.181,2.48-0.458c-1.857-0.762-0.973-2.908-1.447-4.398  c-0.248-0.78-0.699-1.14-1.227-1.827c0.985-0.585,1.219-1.428,1.277-2.456c-0.59,0.316-1.235,0.337-1.787,0.046  c-1.973-1.04-3.819-4.231-7.112-5.449c-1.293-0.478-2.415-0.524-3.489-0.573c-3.031-0.138-3.081-3.665-6.333-3.952  c0.498,0.906,0.63,1.721,0.545,2.446c-0.785-0.397-2.381-0.262-3.204,0.089c0.333,0.979,0.396,1.42,0.327,2.085  c-1.017,0.054-1.826,0.482-2.334,0.835c0.501,0.359,1.271,0.628,1.593,1.031c-1.647,0.746-3.807,1.388-5.074,2.675  c-0.75,0.76-0.036,2.139-0.657,3.007c-0.907,1.267-4.377,1.686-3.818,3.139c1.355,3.525,2.873,4.889,4.133,4.33  c1.574-0.697-0.231-2.293,1.948-2.719c0.634-0.123,2.006,0.201,2.585,1.131c-3.433,2.512-6.816,4.73-8.858,2.958  c-1.832-1.591-1.044-5.858-1.417-8.707c-0.334-2.559-2.75-3.9-5.178-2.085c1.789,0.151,2.877,1.015,3.209,2.742  c0.635,3.299-0.333,8.35,3.669,9.958c1.765,0.707,3.792-0.023,5.635-1.274c1.26-0.856,2.836-1.88,3.452-2.292  c0.232,0.37,0.583,0.981,0.433,1.307c-0.305,0.664-1.504,1.733-2.618,1.619c-1.32-0.134-2.182,0.178-2.129,0.799  c0.14,1.652,0.958,2.096,1.932,1.834c1.104-0.299,2.414-1.429,3.168-1.353c1.255,0.128,1.167,0.869,0.188,1.55  c-2.27,1.578-5.833,1.404-8.925,2.725c-0.331,0.045-1.576-0.857-3.058-2.587c-1.082-1.265-2.052-2.897-3.268-4.574  c-1.216-1.677-2.684-3.402-3.689-4.849c-0.974-1.401-0.139-3.892-0.809-6.017c-0.223-0.708-0.649-1.305-1.184-1.917  c-0.395-0.453-0.648-1.268-1.777-1.614c0.4,0.946,0.536,1.488,0.363,2.254c-1.315-0.442-2.649-0.397-3.608-0.254  c-0.369,0.055-0.663,0.39-0.955,0.613c-0.376,0.287-0.729,0.603-0.952,1.061c1.103-0.333,1.498,0.135,2.118,0.333  c-0.468,0.532-1.333,1.028-1.681,1.569C33.156,102.854,33.652,105.038,34.172,106.241z"/>
<path fill-rule="evenodd" clip-rule="evenodd" fill="#FFFFFF" d="M35.566,60.287h3.634v2.661h3.406v-2.661h2.952v2.661h3.406v-2.661  h2.549v4.674H35.566V60.287L35.566,60.287z M51.514,68.901h-3.492v-3.239h3.492V68.901L51.514,68.901z M47.321,68.901h-8.294v-3.239  h8.294V68.901L47.321,68.901z M38.326,68.901h-2.76v-3.239h2.76V68.901L38.326,68.901z M51.514,72.315h-0.958v-2.714h0.958V72.315  L51.514,72.315z M49.855,72.315h-5.938v-2.714h5.938V72.315L49.855,72.315z M43.217,72.315h-6.548v-2.714h6.548V72.315  L43.217,72.315z M35.968,72.315h-0.402v-2.714h0.402V72.315L35.968,72.315z M51.514,75.886h-3.492v-2.87h3.492V75.886L51.514,75.886  z M47.321,75.886h-8.294v-2.87h8.294V75.886L47.321,75.886z M38.326,75.886h-2.76v-2.87h2.76V75.886L38.326,75.886z M51.514,79.197  h-0.958v-2.61h0.958V79.197L51.514,79.197z M49.855,79.197h-5.938v-2.61h5.938V79.197L49.855,79.197z M43.217,79.197h-6.548v-2.61  h6.548V79.197L43.217,79.197z M35.968,79.197h-0.402v-2.61h0.402V79.197L35.968,79.197z M48.022,83.019v-3.121h3.492v3.121H48.022  L48.022,83.019z M39.027,83.019v-3.121h8.294v3.121H39.027L39.027,83.019z M35.566,83.019v-3.121h2.76v3.121H35.566z"/>
<path fill-rule="evenodd" clip-rule="evenodd" fill="#FFFFFF" d="M55.619,63.561h1.66v1.838h2.576v-1.838h2.227v1.838h3.711v-1.838  h2.635v1.838h3.712v-1.838h2.228v1.838h2.576v-1.838h1.645v4.902H55.619V63.561L55.619,63.561z M78.588,69.164v3.567h-3.039v-3.567  H78.588L78.588,69.164z M74.848,69.164v3.567h-7.395v-3.567H74.848L74.848,69.164z M66.752,69.164v3.567h-7.376v-3.567H66.752  L66.752,69.164z M58.675,69.164v3.567h-3.056v-3.567H58.675L58.675,69.164z M78.588,73.432v2.567h-1.205v-2.567H78.588  L78.588,73.432z M76.682,73.432v2.567h-2.879v-2.567H76.682L76.682,73.432z M73.102,73.432v2.567h-1.773  c-0.454-1.163-1.377-2.098-2.533-2.567H73.102L73.102,73.432z M65.411,73.432c-1.157,0.469-2.08,1.404-2.534,2.567h-1.754v-2.567  H65.411L65.411,73.432z M60.421,73.432v2.567h-2.879v-2.567H60.421L60.421,73.432z M56.841,73.432v2.567h-1.222v-2.567H56.841  L56.841,73.432z M78.588,76.7v2.523h-3.039V76.7H78.588L78.588,76.7z M78.588,79.923v3.096h-1.205v-3.096H78.588L78.588,79.923z   M76.682,79.923v3.096h-2.879v-3.096H76.682L76.682,79.923z M73.102,79.923v3.096h-1.465v-3.096H73.102L73.102,79.923z   M71.637,79.223v-1.586c0-0.321-0.034-0.634-0.1-0.937h3.311v2.523H71.637L71.637,79.223z M62.667,76.7  c-0.064,0.303-0.098,0.616-0.098,0.937v1.586h-3.192V76.7H62.667L62.667,76.7z M62.568,79.923v3.096h-1.446v-3.096H62.568  L62.568,79.923z M60.421,79.923v3.096h-2.879v-3.096H60.421L60.421,79.923z M56.841,79.923v3.096h-1.222v-3.096H56.841  L56.841,79.923z M55.619,79.223V76.7h3.056v2.523H55.619z"/>
<polygon fill-rule="evenodd" clip-rule="evenodd" fill="#FFFFFF" points="52.213,60.388 54.921,63.473 54.921,83.019 52.213,83.019   "/>
<path fill-rule="evenodd" clip-rule="evenodd" fill="#FFFFFF" d="M98.649,60.287h-3.635v2.661h-3.406v-2.661h-2.951v2.661H85.25  v-2.661h-2.549v4.674h15.947V60.287L98.649,60.287z M82.702,68.901h3.491v-3.239h-3.491V68.901L82.702,68.901z M86.893,68.901h8.295  v-3.239h-8.295V68.901L86.893,68.901z M95.888,68.901h2.761v-3.239h-2.761V68.901L95.888,68.901z M82.702,72.315h0.958v-2.714  h-0.958V72.315L82.702,72.315z M84.36,72.315h5.938v-2.714H84.36V72.315L84.36,72.315z M90.998,72.315h6.548v-2.714h-6.548V72.315  L90.998,72.315z M98.247,72.315h0.402v-2.714h-0.402V72.315L98.247,72.315z M82.702,75.886h3.491v-2.87h-3.491V75.886L82.702,75.886  z M86.893,75.886h8.295v-2.87h-8.295V75.886L86.893,75.886z M95.888,75.886h2.761v-2.87h-2.761V75.886L95.888,75.886z   M82.702,79.197h0.958v-2.61h-0.958V79.197L82.702,79.197z M84.36,79.197h5.938v-2.61H84.36V79.197L84.36,79.197z M90.998,79.197  h6.548v-2.61h-6.548V79.197L90.998,79.197z M98.247,79.197h0.402v-2.61h-0.402V79.197L98.247,79.197z M86.193,83.019v-3.121h-3.491  v3.121H86.193L86.193,83.019z M95.188,83.019v-3.121h-8.295v3.121H95.188L95.188,83.019z M98.649,83.019v-3.121h-2.761v3.121H98.649  z"/>
<polygon fill-rule="evenodd" clip-rule="evenodd" fill="#FFFFFF" points="82.001,60.388 79.293,63.473 79.293,83.019 82.001,83.019   "/>
<polygon fill-rule="evenodd" clip-rule="evenodd" fill="#FFFFFF" points="46.39,32.481 47.765,36.741 52.241,36.732 48.614,39.356   50.006,43.609 46.39,40.972 42.774,43.609 44.165,39.356 40.539,36.732 45.015,36.741 "/>
<path d="M75.984,14.76c0.088,1.333-0.829,2.755-1.577,3.611c-2.072,2.366-6.092,2.627-8.763,2.619  c-7.763-0.021-12.199-2.519-12.117-10.813c0.08-8.141,5.117-10.292,12.104-10.173c3.693,0.063,6.367,0.455,8.238,2.257  c1.185,1.14,1.965,2.425,1.809,4.078c-0.15,1.598-1.835,1.969-3.387,1.689C70.86,7.769,70.729,7,70.19,5.852  c-0.174-0.37-0.787-1.076-1.464-1.364c-0.991-0.422-2.247-0.563-3.472-0.531c-4.859,0.131-6.262,1.405-6.306,6.381  c-0.038,4.314,0.585,6.631,6.244,6.631c3.009,0,4.687-0.287,5.447-2.07c0.736-1.725,1.759-2.048,2.846-2.024  C74.997,12.908,75.907,13.574,75.984,14.76z"/>
<path d="M42.704,16.5c1.606,5.869-6.471,7.695-9.164,8.394c-3.223,0.836-6.838,1.731-9.722-0.311c-1.1-0.779-2.271-2.27-1.345-3.658  c0.597-0.896,2.275-1.345,3.294-0.975c0.448,0.162,0.881,0.516,1.289,0.959c1.271,1.386,2.12,0.948,3.785,0.645  c1.713-0.311,3.559-0.946,5.115-1.438c1.076-0.34,1.594-0.966,1.464-1.933c-0.104-0.771-0.687-1.139-1.375-1.205  c-2.439-0.234-7.327,0.115-10.027-0.075c-3.536-0.25-5.752-1.616-6.308-4.247c-1.122-5.31,5.055-7.315,8.928-8.32  c3.208-0.832,7.404-1.305,9.806,0.864c0.491,0.442,1.028,1.194,1.154,1.71c0.505,2.086-1.662,2.705-2.862,2.688  c-1.132-0.017-1.456-0.391-2.253-1.171c-0.704-0.688-1.835-0.777-3.13-0.479c-1.371,0.316-2.782,0.663-4.104,1.026  c-1.329,0.365-2.577,1.112-2.303,2.235c0.179,0.733,0.747,1.183,1.731,1.254c3.581,0.262,6.096-0.359,9.886-0.046  c1.693,0.14,3.303,0.39,4.628,1.583C41.961,14.694,42.412,15.431,42.704,16.5z"/>
<path d="M109.227,10.756l-11.62-3.552l-1.429,4.649l9.529,2.955c1.188,0.368,1.382,0.883,1.035,1.997l-0.347,1.116  c-0.304,0.976-0.929,1.005-1.927,0.7l-9.479-2.882l-1.746,5.738c-0.323,1.062-0.795,1.174-1.741,0.88l-2.527-0.784  c-0.764-0.237-0.989-0.929-0.772-1.637l4.963-16.233c0.476-1.554,1.001-1.741,2.184-1.38l15.116,4.621  c1.188,0.364,1.383,0.881,1.036,1.997l-0.347,1.116C110.85,11.034,110.226,11.061,109.227,10.756z"/>
<path fill="#FFFFFF" d="M77.231,197.255c-0.427,0.047-1.02,0.052-1.448,0.007c-2.665-0.276-4.169-1.527-4.138-4.994  c0.03-3.408,1.748-4.554,4.23-4.719c0.352-0.022,0.752-0.024,1.106-0.004c2.526,0.146,4.283,1.276,4.313,4.723  C81.326,195.703,79.851,196.967,77.231,197.255L77.231,197.255z M76.47,189.231c-1.812,0.063-2.527,0.837-2.545,3.112  c-0.017,1.986,0.415,3.224,2.545,3.231c2.102,0.008,2.562-1.245,2.546-3.231C78.999,190.068,78.225,189.326,76.47,189.231z"/>
<path fill="#FFFFFF" d="M59.268,197.141c-1.251-0.178-2.294-0.795-2.634-1.694c-0.267-0.708,0.009-1.2,0.388-1.371  c0.356-0.161,0.555-0.126,0.895-0.044c0.495,0.119,0.659,0.292,1.111,0.905c0.311,0.422,0.606,0.635,1.702,0.638  c2.029,0.007,2.392-0.805,2.456-2.156c-0.91-0.017-2.144,0.066-3.564-0.005c-1.775-0.089-3.371-0.774-3.346-2.845  c0.026-2.305,1.486-2.881,3.874-3.02c0.613-0.034,1.249-0.016,1.861,0.035c2.198,0.186,3.489,1.082,3.477,4.729  c-0.012,3.385-0.953,4.588-3.225,4.863C61.236,197.301,60.219,197.276,59.268,197.141L59.268,197.141z M63.181,191.375  c0.053-1.645-0.615-2.063-2.452-2.145c-1.296,0.046-2.088,0.425-2.045,1.443c0.02,0.458,0.066,1.309,1.448,1.314L62.627,192  C62.914,192,63.167,191.84,63.181,191.375z"/>
<path fill-rule="evenodd" clip-rule="evenodd" fill="#FFFFFF" d="M53.18,187.619h1.335c0.223,0,0.405,0.204,0.405,0.452v8.648  c0,0.248-0.182,0.451-0.405,0.451H53.01c-0.224,0-0.406-0.203-0.406-0.451v-6.78l-0.956,0.679c-0.092,0.066-0.22,0.111-0.33-0.039  l-0.673-0.916c-0.101-0.137-0.013-0.281,0.07-0.344l1.932-1.458C52.849,187.709,52.935,187.619,53.18,187.619z"/>
<path fill-rule="evenodd" clip-rule="evenodd" fill="#FFFFFF" d="M68.424,187.619h1.335c0.224,0,0.405,0.204,0.405,0.452v8.648  c0,0.248-0.182,0.451-0.405,0.451h-1.507c-0.223,0-0.404-0.203-0.404-0.451v-6.78l-0.956,0.679c-0.092,0.066-0.22,0.111-0.33-0.039  l-0.673-0.916c-0.101-0.137-0.014-0.281,0.07-0.344l1.932-1.458C68.092,187.709,68.178,187.619,68.424,187.619z"/>
<g>
	<path fill-rule="evenodd" clip-rule="evenodd" d="M65.34,36.87c-0.813,0.318-0.97,1.042-1.096,1.852   c-0.143,0.918,0.13,1.656,0.216,2.28c-1.446,1.714-1.741,2.071-1.99,3.983c-0.402,3.085,0.025,7.604,0.624,9.431   c0.225,0.685-0.679,0.429-0.852,1.218c-0.146,0.665-0.137,2.042,0.063,2.937c0.104,0.468,0.394,0.562,0.456,0.873   c-0.019,0.643-0.881,0.366-0.829,0.632c0.086,0.446,0.45,1.848,0.912,1.929c0.523,0.092,0.628-1.47,1.146-1.422   c1.249,0.116,3.53,1.115,4.415,1.139c1.061,0.03,2.428-0.942,2.67-1.731c0.008-0.387,0.426-0.21,0.659-0.451   c0.353-0.363,0.784-1.22,0.558-1.814c-0.095-0.25,0.475-0.529,0.447-0.81c-0.022-0.229-0.301-0.4-0.588-0.621   c-0.171-0.132-0.133-0.951-0.257-1.142c-0.589-0.907-0.685-0.324-0.562-1.68c0.078-0.87-0.011-1.787,0.316-2.277   c0.246-0.371-0.289-1.713-0.264-2.475c0.455-0.887,0.464-1.509,0.325-2.649c-0.068-0.566-0.22-1.299-0.55-1.813   c-0.023-0.486,0.107-1.134-0.086-1.557c-0.219-0.478-0.725-1.037-1.286-1.559c-0.722-0.67-1.378-0.95-1.411-1.688   C68.275,37.11,66.779,36.306,65.34,36.87z"/>
	<path fill-rule="evenodd" clip-rule="evenodd" fill="#44AEC9" d="M62.279,60.212c0.111,0.448,0.375,1.343,0.599,1.479   c0.271-0.223,0.396-1.484,1.14-1.416c0.671,0.062,1.436,0.309,2.08,0.512c0.582,0.184,1.732,0.609,2.314,0.626   c0.776,0.022,1.766-0.486,2.029-1.242c0.043-0.586-0.072-0.942,0.361-1.558c0.303-0.313,1.367-0.338,1.199-0.778   c-0.173-0.454,0.324-0.676,0.424-0.902c-0.048-0.094-0.396-0.34-0.464-0.392c-0.339-0.262-0.202-0.926-0.328-1.218   c-0.165-0.255-0.426-0.471-0.552-0.678c-0.178-0.294-0.088-0.87-0.059-1.199c0.064-0.707-0.35-1.772,0.04-2.36   c0.153-1.854-0.506-1.912-0.964-2.582c0.583,0.099,0.898-0.255,0.941-0.416c0.189-0.7,0.267-0.939,0.155-1.86   c-0.171-1.407-1.218-0.993-2.321-1.575c0.854-0.1,1.65-0.091,1.813-0.771c0.293-1.225-0.197-1.662-1.109-2.511   c-0.594-0.551-1.471-0.992-1.51-1.902c-0.066-1.524-0.941-2.969-2.616-2.312c-0.696,0.273-0.8,0.951-0.903,1.611   c-0.128,0.827,0.109,1.406,0.217,2.19l0.013,0.457c-1.406,1.787-1.703,1.524-1.943,3.372c-0.334,2.57-0.252,7.077,0.552,9.531   c0.308,0.94-0.719,0.812-0.844,1.381c-0.163,0.746-0.103,2.059,0.063,2.803c0.081,0.364,0.381,0.496,0.458,0.879l0.007,0.035   l-0.001,0.035c-0.007,0.246-0.104,0.46-0.309,0.602C62.567,60.188,62.433,60.186,62.279,60.212z"/>
	<path fill-rule="evenodd" clip-rule="evenodd" d="M69.452,61.222c-0.726,1.097-3.757-0.532-5.636-0.798   c0.045-0.167-0.285-0.651-0.71-1.105c-0.336-0.358,0.099-2.085,0.458-4.163c0.09-0.526-0.484-1.569-0.434-2.149   c0.052-0.603-0.028-1.404,0.401-2.188c0.238-0.435,0.587-0.865,0.637-1.25c0.078-0.604-0.101-1.069,0.112-2.615   c0.127-0.926,0.462-2.206,1.051-3.25c0.431-0.765-0.374-2.68-0.57-3.849c-0.261-1.552,0.261-2.354,1.298-2.389   c1.285-0.042,1.572,1.342,1.691,2.951c0.094,1.252,0.139,2.892,0.492,3.6c0.175,0.351,0.268,0.672,0.379,1.006   c0.205,0.622-0.305,1.772-0.125,2.394c0.342,1.188,1.322,1.854,1.457,3.091c0.121,1.109,0.39,2.224,0.381,3.339   C70.317,55.978,70.204,59.122,69.452,61.222z"/>
	<path fill-rule="evenodd" clip-rule="evenodd" fill="#FFFFFF" d="M66.286,54.779c-0.201-0.645-0.146-1.222-0.111-1.907   c0.024-0.508,0.768-0.452,0.7-0.917c-0.129-0.888-0.089-1.109-0.087-1.961c0-0.123-0.146-2.022,0.152-1.954   c0.692,0.158,1.41,0.213,1.922,0.213c0.156,0.308,0.139,0.23,0.326,0.516c0.141,0.215,0.342,0.646,0.279,0.571   c-0.625-0.735-1.424-0.877-1.104,0.702c0.268,1.32,0.022,2.957,0.024,2.986c0.029,0.277,0.287,0.333,0.475,0.41   c0.248,0.102,0.115,2.875,0.393,2.876c0.801,0.003,0.064-1.488,0.5-2.019c0.166-0.203,0.582-0.252,0.58-0.062   c-0.007,1.031-0.145,2.066-0.184,3.19c-0.008,0.195-0.276,0.388-0.971,0.044c-0.167-0.082,0.063,0.729-0.244,0.968   c-0.387,0.301-1.08,0.188-1.23-0.008c-0.285-0.375-0.552-0.698-0.72-0.707c-0.66-0.031-0.228-0.717,0.032-1.307   c0.201-0.459-0.014-0.925-0.094-1.403C66.889,54.809,66.364,55.03,66.286,54.779L66.286,54.779z M67.717,46.611   c-0.178-0.122-0.402-0.217-0.636-0.281c-0.156-0.043-0.408-1.017-0.262-1.536c0.017-0.057,0.12,1.234,0.235,1.172   c0.295-0.157,0.74-1.67,0.655-2.014c-0.017-0.067,0.495,0.027,0.44-0.037c-0.037-0.044,0.071-0.124-0.038-0.139   c-0.108-0.015-0.437,0.035-0.638,0.016c-0.548-0.054-0.818,1.171-1.327,0.964c-0.335-0.146-0.603-1.591-0.569-1.66   c-0.192-0.031-0.123-0.056-0.12-0.133c0.021-0.458-0.355-1.483-0.55-2.161c0.118-0.523,0.705,0.786,1.529,0.685   c0.838-0.103,1.356-0.955,1.135-2.004c0.006,0.078,0.189,1.091,0.195,1.172c0.082,1.214,0.143,2.697,0.475,3.361   c0.175,0.351,0.268,0.672,0.379,1.006c0.148,0.449-0.092,1.207-0.17,1.827C68.092,46.85,68.015,46.815,67.717,46.611L67.717,46.611   z M65.587,44.373c0.008-0.086-0.362,0.146-0.585-0.007c-0.193,0.469-0.557,1.892-0.632,2.358c-0.013,0.079,0.412-0.286,0.805-0.248   c0.053,0.005,0.646-0.152,0.931-0.286c0.251-0.118,0.272-0.829,0.331-0.959c0.02-0.041-0.23,0.719-0.352,0.526   C65.88,45.435,65.559,44.672,65.587,44.373L65.587,44.373z M65.601,49.033c-0.291,1.621,0.074,4.129-0.045,6.148   c-0.019,0.325-0.834-0.01-0.824,0.195c0.041,0.771,0.896,0.874,0.876,1.127c-0.037,0.481,0.276,1.532,0.071,1.826   c-0.262,0.379-1.233-0.151-1.262-0.149c-1.003,0.084,0.398,2.384-0.6,2.243c0.045-0.167-0.285-0.651-0.71-1.105   c-0.227-0.242-0.206-1.157,0.084-1.39c0.289-0.233,0.847,0.215,0.864-0.029c0.088-1.248-0.191-2.446-0.156-2.864   c0.052-0.603,0.12-1.567,0.017-3.062c-0.034-0.495,0.617-1.874,0.667-2.258c0.06-0.471-0.048-0.757-0.06-1.643   c-0.001-0.072-0.062-0.645,0.222-0.624c0.37,0.028,0.707,0.173,1.231,0.336C65.975,48.525,65.729,48.317,65.601,49.033z"/>
	<path fill-rule="evenodd" clip-rule="evenodd" d="M67.512,42.913c0.006,0.581,0.049,0.893,0.195,1.124   c0.174,0.275-0.662-0.194-0.671,0.132c-0.007,0.236-0.808,1.026-0.961,1.141c-0.197-0.079-0.212-0.469-0.369-0.785   c0.044-0.12,0.097-0.229,0.13-0.354c0.083-0.306,0.066-0.735,0.119-1.046c0.041-0.241,0.098-0.54,0.35-0.779   c0.064-0.062-0.041-0.149,0.125-0.295c0.049-0.152,0.131-0.182,0.22-0.208c0.087-0.068,0.188-0.06,0.275,0   c0.053-0.02,0.338,0.283,0.428,0.451C67.485,42.541,67.512,42.817,67.512,42.913z"/>
	
		<path fill-rule="evenodd" clip-rule="evenodd" fill="#F4D8B8" stroke="#000000" stroke-width="0.0028" stroke-miterlimit="22.9256" d="   M66.766,44.023c-0.014,0.064-0.031,0.163-0.055,0.219c-0.1,0.236-0.498,0.849-0.636,1.066c-0.197-0.079-0.212-0.469-0.369-0.785   c0.044-0.12,0.17-0.229,0.204-0.354c0.083-0.306,0.059-0.809,0.111-1.12c0.042-0.242,0.16-0.486,0.338-0.653   c0.049,0.131,0.152,0.269,0.231,0.628C66.676,43.406,66.661,43.855,66.766,44.023z"/>
	<path fill-rule="evenodd" clip-rule="evenodd" fill="#44AEC9" d="M69.779,59.724c-0.612-0.318-1.455-0.525-2.508-0.437   c-2.834,0.239-2.423,1.114,1.296,1.148c0.293,0.002,0.148,0.741,0.422,0.817c0.171,0.047,0.41-0.061,0.57-0.311   C69.757,60.63,69.849,60.083,69.779,59.724z"/>
	<path fill-rule="evenodd" clip-rule="evenodd" fill="#F4D8B8" d="M64.997,38.389c-0.097,0.25-0.111,0.516-0.062,0.845   c0.047,0.315,0.056,0.745,0.229,1.005c0.109,0.164,0.362,0.485,0.568,0.64c0.173,0.13,0.33,0.159,0.477,0.132   c0.03-0.005,0.186-0.009,0.381-0.159c0.104-0.081,0.235-0.218,0.355-0.346c0.18-0.192,0.28-0.436,0.27-0.345   c-0.001,0.01-0.071,0.215-0.198,0.415c-0.111,0.177-0.302,0.334-0.479,0.452c-0.088,0.059-0.183,0.095-0.291,0.124   c-0.158,0.043-0.463-0.083-0.473-0.092c0.168,0.236,0.292,0.33,0.642,0.299s0.696-0.262,0.866-0.576   c0.076-0.14,0.301-0.409,0.199-0.529c-0.176-0.21-0.069-0.481,0.023-0.75c0.007-0.277-0.09-0.88-0.203-1.117   c-0.17-0.358-0.844-0.518-1.324-0.528C65.486,37.85,65.124,38.062,64.997,38.389z"/>
	<path fill-rule="evenodd" clip-rule="evenodd" d="M65.719,40.367c0.042-0.034,0.111-0.032,0.172-0.049   c0.063-0.017,0.086-0.055,0.155-0.058c0.146-0.005,0.343,0.079,0.497,0.078c-0.063,0.063-0.401-0.006-0.5,0.033   c-0.043,0.017,0.01,0.042,0.076,0.054c0.084,0.016,0.185-0.056,0.13,0.007c-0.052,0.059-0.253,0.028-0.323,0.006   C65.872,40.421,65.801,40.399,65.719,40.367z"/>
	<path fill-rule="evenodd" clip-rule="evenodd" d="M66.942,39.043c-0.193-0.153-0.49-0.125-0.625-0.024   c0.238-0.036,0.149,0.119,0.279,0.111c0.076-0.005,0.08-0.044,0.135-0.076C66.776,39.028,66.877,39.068,66.942,39.043z"/>
	<path fill-rule="evenodd" clip-rule="evenodd" d="M65.852,39.106c-0.193-0.153-0.49-0.125-0.624-0.024   c0.237-0.035,0.148,0.12,0.279,0.111c0.075-0.005,0.08-0.044,0.134-0.076C65.686,39.091,65.788,39.131,65.852,39.106z"/>
	<path fill-rule="evenodd" clip-rule="evenodd" d="M65.373,38.742c-0.12,0.021-0.25,0.075-0.051,0.073   c0.113,0,0.113-0.018,0.28-0.002c0.13,0.013,0.334,0.118,0.34,0.093C65.989,38.744,65.476,38.724,65.373,38.742z"/>
	<path fill-rule="evenodd" clip-rule="evenodd" d="M65.827,39.936c0.074,0.09,0.109,0.08,0.209,0.073   c0.247-0.018-0.18-0.02-0.138-0.153c0.054-0.104,0.085-0.442,0.079-0.414C65.941,39.63,65.778,39.877,65.827,39.936z"/>
	<path fill-rule="evenodd" clip-rule="evenodd" d="M66.882,38.735c0.128,0.03,0.171,0.109,0.086,0.081   c-0.169-0.055-0.431-0.059-0.597,0.044C66.147,38.999,66.354,38.609,66.882,38.735z"/>
	<path fill-rule="evenodd" clip-rule="evenodd" fill="#655249" d="M65.928,37.829c-0.23,0.594-0.898,0.64-0.949,0.908   c-0.039,0.204,0.004,0.547,0,0.826c-0.002,0.151,0.028,0.223,0.033,0.342c0.009,0.229-0.044,0.43-0.106,0.646   c-0.138-0.498-0.467-1.902,0.26-2.645c0.392-0.399,1.086-0.638,1.512-0.275c1.049,0.893,1.145,2.093,1.167,2.864   c-0.18-0.232-0.408-0.129-0.487-0.33c-0.027-0.066-0.086-0.242-0.086-0.349c-0.002-0.385,0.033-0.807-0.052-1.088   C67.097,38.328,66.471,38.467,65.928,37.829z"/>
	<path fill-rule="evenodd" clip-rule="evenodd" fill="#FABD0E" d="M63.676,60.389c0.014-0.185-0.429-0.894-0.558-1.03   c-0.49-0.522,0.215-3.634,0.333-4.316c0.088-0.515-0.492-1.442-0.436-2.093c0.068-0.789,0.006-1.5,0.389-2.2   c0.177-0.324,0.575-0.848,0.62-1.199c0.008-0.066,0.014-0.133,0.017-0.201c0.012-0.288-0.013-0.587-0.015-0.877   c-0.004-0.517,0.04-1.026,0.11-1.538c0.151-1.103,0.52-2.329,1.068-3.302c0.38-0.674-0.448-2.91-0.587-3.739   c-0.197-1.171-0.006-2.524,1.436-2.572c1.583-0.051,1.754,1.926,1.841,3.085c0.064,0.878,0.105,2.802,0.477,3.546   c0.168,0.334,0.27,0.673,0.387,1.025c0.236,0.712-0.307,1.76-0.123,2.399c0.332,1.155,1.324,1.849,1.462,3.116   c0.122,1.119,0.391,2.225,0.382,3.356c-0.018,2.272-0.138,5.277-0.891,7.422l-0.064,0.182l-0.363,0.146l0.156-0.425   c0.752-2.104,0.855-5.093,0.873-7.327c0.009-1.114-0.26-2.218-0.379-3.322c-0.127-1.161-1.129-1.937-1.453-3.067   c-0.203-0.705,0.332-1.77,0.126-2.388c-0.112-0.339-0.21-0.667-0.37-0.988c-0.403-0.805-0.438-2.714-0.508-3.654   c-0.072-0.972-0.184-2.862-1.543-2.817c-1.243,0.041-1.325,1.253-1.16,2.235c0.162,0.962,1.018,3.108,0.554,3.929   c-0.531,0.941-0.888,2.133-1.034,3.199c-0.068,0.498-0.111,0.994-0.107,1.497c0.002,0.295,0.027,0.598,0.015,0.893   c-0.003,0.075-0.009,0.15-0.019,0.225c-0.056,0.431-0.444,0.918-0.653,1.301c-0.364,0.664-0.29,1.338-0.355,2.086   c-0.053,0.614,0.542,1.487,0.433,2.117c-0.092,0.531-0.761,3.691-0.406,4.069c0.202,0.216,0.713,0.979,0.626,1.3l-0.03,0.109   c-0.235,0.125-0.272,0.242-0.325,0.344L63.676,60.389z"/>
	<path fill-rule="evenodd" clip-rule="evenodd" fill="#F4D8B8" d="M66.393,42.301c0.1,0.292,0.188,0.308,0.269,0.605   c0.076,0.279,0.038,0.664,0.15,0.931c0.088,0.21,0.444,0.849,0.567,1.042c0.174-0.07,0.228-0.542,0.234-0.911   c-0.039-0.106-0.063-0.084-0.092-0.195c-0.074-0.272-0.053-0.717-0.1-0.993c-0.037-0.215-0.047-0.379-0.211-0.58   c-0.051-0.061-0.17-0.242-0.244-0.28c-0.067-0.035,0.058,0.229-0.104-0.056c-0.054-0.073-0.186-0.02-0.146,0.061   c0.013,0.024,0.214,0.394,0.123,0.358c-0.021-0.012-0.109-0.217-0.171-0.307c-0.033-0.049-0.079-0.103-0.131-0.021   c-0.007,0.01-0.036,0.078-0.024,0.118c0.037,0.123,0.168,0.303,0.145,0.341c-0.023,0.08-0.177-0.331-0.244-0.25   C66.383,42.203,66.377,42.258,66.393,42.301z"/>
</g>
</svg>