<svg xmlns="http://www.w3.org/2000/svg" xmlns:xlink="http://www.w3.org/1999/xlink" version="1.0" id="Ebene_1" x="0px" y="0px" width="351.492px" height="396.851px" viewBox="0 0 351.492 396.851" enable-background="new 0 0 351.492 396.851" xml:space="preserve">
<path fill-rule="evenodd" clip-rule="evenodd" fill="#004A8F" d="M288.267,114.737c-2.998,10.073-4.555,20.169-4.979,30.664  c-0.309,7.637,0.461,14.749,2.606,22.092c1.962,6.713,4.838,12.963,8.147,19.111c3.858,7.168,8.394,13.856,12.58,20.823  c2.268,3.772,4.278,7.574,5.608,11.782c1.116,3.531,1.855,7.326,1.544,11.04c-0.394,4.704-2.384,9.274-4.582,13.399l-11.535-18.496  l-72.976,66.177l6.835,12.776l-0.421,0.392c-4.786,4.219-9.776,7.864-15.369,10.934c-5.591,3.067-11.325,5.408-17.471,7.107  c-7.557,2.088-14.691,2.977-22.524,2.98l0.006-47.72c0.042,0.071,0.085,0.141,0.129,0.208l8.769-0.229  c-0.638-0.934-0.925-2.233-1.017-4.191l-0.354-7.471c-0.064-1.384-0.335-2.456-0.915-3.222c-0.583-0.769-1.205-1.296-1.855-1.572  c-0.654-0.277-1.508-0.564-2.563-0.859c3.87-1.209,5.475-4.283,5.379-8.686c-0.127-5.865-2.956-8.488-7.57-9.118l0.003-20.053h0.001  c26.478,0,47.95-21.472,47.95-47.949c0-26.475-21.467-47.945-47.94-47.95l0.004-40.508c1.129-0.73,2.233-1.499,3.39-2.187  c4.234-2.517,8.362-3.864,11.415-3.903c8.229-0.107,19.668,6.609,28.789,5.496c8.666-1.058,16.247-4.974,25.041-10.073  c9.228,4.851,19.176,8.333,31.189,8.805l-25.966-20.445c-27.422,15.949-52.22,9.863-69.722,1.293  c-1.392-0.681-2.795-1.517-4.107-2.192l-0.026,0.015v-9.564c11.21-0.088,21.989-0.846,33.039-2.705  c13.671-2.299,26.577-5.821,39.493-10.857c10.201-3.978,19.636-8.864,29.035-14.483l37.523,42.273l-0.063,0.073  c-6.684,7.887-12.578,16.017-17.475,25.126C293.533,99.904,290.544,107.086,288.267,114.737L288.267,114.737z M233.695,214.699  l6.046-5.11l18.61,22.049l8.065-6.904l4.464,5.066l-14.224,12.112L233.695,214.699L233.695,214.699z M196.616,237.612l7.243-3.552  l11.803,23.943c0.882,1.791,2.455,2.278,4.138,1.449c1.682-0.828,2.2-2.324,1.366-4.017l-11.868-24.075l7.045-3.473l11.667,23.669  c3.304,6.701,0.341,11.074-5.293,13.852c-5.633,2.777-11.073,2.688-14.433-4.128L196.616,237.612L196.616,237.612z M229.842,91.938  c9.634,0,17.414,3.193,17.414,13.251v2.344h-13.104v-4.783c0-2.256-2.284-3.336-4.246-3.336c-2.636,0-4.544,1.436-4.544,3.713  v21.246c0,2.592,2.337,3.532,4.616,3.532c2.131,0,4.174-1.236,4.174-3.532v-6.468h13.104v6.266c0,8.347-8.757,11.095-17.781,11.095  s-17.219-1.85-17.219-11.526v-19.938C212.256,94.862,220.208,91.938,229.842,91.938L229.842,91.938z M256.12,125.013h11.814v9.623  H256.12V125.013L256.12,125.013z"/>
<path fill-rule="evenodd" clip-rule="evenodd" fill="#004A8F" d="M281.578,0.147l60.897,67.55  c-21.168,23.687-33.482,47.854-36.209,73.158c-1.608,14.924,2.027,26.014,11.09,39.87c8.803,13.46,18.106,27.568,17.592,42.288  c-0.428,12.247-8.089,26.312-11.836,31.517l28.38,0.592l-54.394,66.81l11.233,9.756c-32.421,41.424-75.187,60.387-131.841,65.165  c-49.665-4.089-96.965-19.997-133.035-64.869L54.69,321.93L0,255.119l28.675-0.591c-6.869-10.654-11.112-21.458-11.594-31.423  c-0.825-17.07,10.584-30.492,19.204-45.46c5.525-9.594,9.729-20.173,9.4-31.609c-0.648-22.578-10.011-48.24-36.521-78.339L70.062,0  C141.643,47.635,214.555,45.117,281.578,0.147L281.578,0.147z M245.651,294.142l43.456-41.979l7.982,19.216h20.397l-32.813,39.022  l-16.851-13.303L245.651,294.142L245.651,294.142z M105.84,294.142l-43.456-41.979l-7.982,19.216H34.005l32.814,39.022l16.85-13.303  L105.84,294.142L105.84,294.142z M256.294,313.062l32.223,24.241c-35.854,36.078-74.515,47.238-112.483,47.288  c-37.969,0.049-74.658-9.578-112.188-47.584l31.632-23.945C149.477,356.406,203.082,356.406,256.294,313.062L256.294,313.062z   M26.901,67.74l47.123-52.907c65.884,44.327,150.388,36.936,204.745-0.009L325.74,67.74c-27.026,28.377-33.893,56.287-34.428,80.235  c-0.338,15.133,5.704,27.602,12.298,39.18c8.211,14.419,17.706,24.367,18.306,41.047c0.341,9.474-5.668,20.768-12.726,30.749  l-13.274-21.284l-61.111,55.417l6.708,12.538c-17.06,18.104-41.293,28.366-66.451,27.997c-22.199-0.325-45.118-8.928-64.465-27.727  l6.872-12.979L56.53,238.196L43.505,258.95c-8.802-11.264-12.348-21.355-12.785-30.703c-0.652-13.932,9.012-25.407,17.303-39.267  c6.868-11.484,12.958-25.349,13.073-40.173C61.331,118.689,50.171,92.746,26.901,67.74L26.901,67.74z"/>
<path fill-rule="evenodd" clip-rule="evenodd" fill="#004A8F" d="M171.598,65.187c-17.502,8.57-42.3,14.656-69.721-1.293  L75.91,84.338c12.014-0.472,21.962-3.954,31.189-8.805c8.794,5.099,16.375,9.016,25.041,10.073  c9.122,1.113,20.559-5.603,28.79-5.496c3.053,0.039,7.181,1.387,11.415,3.903c1.16,0.69,2.27,1.462,3.405,2.191l0.037-23.21  C174.419,63.738,172.979,64.511,171.598,65.187L171.598,65.187z"/>
<path fill-rule="evenodd" clip-rule="evenodd" fill="#004A8F" d="M176.185,193.637l19.051-13.841l10.264,6.752l0.04,12.896  l-17.891,13.554l-11.464-6.535V193.637L176.185,193.637z M156.437,147.343l7.565-12.04h23.457l7.585,12.071l-7.668,8.737h-23.244  L156.437,147.343L156.437,147.343z M163.158,134.702l-7.903,12.579l-12.891,5.185l-6.128-5.042  c-5.469,7.571-8.998,18.591-8.404,28.539l7.828-0.155l9.696,10.488l-0.042,13.24l-6.852,5.168  c6.216,7.974,14.916,13.703,24.66,16.19l1.389-7.173l11.158-6.361l11.779,6.715l1.213,6.765c9.519-2.544,19.222-8.989,24.377-16.087  l-6.465-4.95l-0.042-13.356l9.905-10.712l7.243,0.26c0.461-9.579-2.826-20.717-8.237-28.244l-6.3,4.733l-13.174-5.577l-7.674-12.213  l2.512-5.562c-9.589-3.204-20.611-3.396-30.126,0.027L163.158,134.702L163.158,134.702z M142.673,153.456l13.121-5.277l7.466,8.508  l-7.18,22.1l-10.109,6.651l-9.479-10.253L142.673,153.456L142.673,153.456z M208.893,153.5l-13.015-5.511l-7.645,8.711l7.129,21.942  l10.556,6.944l9.501-10.276L208.893,153.5L208.893,153.5z M146.39,186.398l9.945-6.543l18.815,13.67v12.939l-11.088,6.321  l-17.713-13.399L146.39,186.398L146.39,186.398z"/>
<polygon fill="#004A8F" points="97.48,203.135 112.18,215.967 107.762,221.14 98.995,213.49 94.626,218.524 102.546,225.256   98.031,230.54 90.165,223.767 80.096,235.313 74.15,230.115 97.48,203.135 "/>
<path fill="#004A8F" d="M141.772,235.103l-8.801-4.287l-22.469,27.996l7.103,3.619l4.301-5.849l6.084,3.053l-2.003,6.932  l7.118,3.484L141.772,235.103L141.772,235.103z M134.94,238.323L129.663,254l-4.414-2.236L134.94,238.323L134.94,238.323z"/>
<path fill="#004A8F" d="M159.924,242.866l12.708-0.351c1.062-0.029,2.06,0.011,2.987,0.13v34.941  c-0.542-1.044-0.818-2.505-0.923-4.531l-0.322-6.302c-0.063-1.225-0.345-2.021-0.954-2.395c-0.61-0.373-1.476-0.55-2.589-0.527  c-0.178,0.005-1.054,0.036-1.426,0.038l-0.933,0.006l0.43,14.337l-8.002,0.232L159.924,242.866L159.924,242.866z M168.059,248.181  l0.251,9.608l2.361-0.06c0.55-0.014,1.697-0.219,1.963-0.292c0.71-0.197,1.183-0.736,1.441-1.323c0.26-0.59,0.373-1.538,0.344-2.862  c-0.027-1.219-0.157-3.3-0.409-3.868c-0.252-0.571-0.638-0.936-1.153-1.088c-0.507-0.149-1.249-0.224-2.231-0.193L168.059,248.181  L168.059,248.181z"/>
<polygon fill="#004A8F" points="99.614,92.666 129.746,92.666 129.746,100.71 112.312,100.71 112.312,108.837 128.289,108.837   128.289,116.882 112.312,116.882 112.312,134.636 99.614,134.636 99.614,92.666 "/>
<polygon fill="#004A8F" points="130.736,125.013 142.55,125.013 142.55,134.636 130.736,134.636 130.736,125.013 "/>
<path fill="#004A8F" d="M95.637,345.519l-3.594-2.707c-2.177,1.908-4.299,2.09-6.382,0.547c-1.494-1.152-2.104-2.602-1.831-4.355  c0.229-1.694,0.974-3.375,2.233-5.046c0.979-1.301,1.926-2.25,2.839-2.848c0.896-0.612,1.73-0.992,2.501-1.131  c0.811-0.122,1.537-0.096,2.16,0.084c0.606,0.193,1.117,0.452,1.538,0.769c0.749,0.565,1.281,1.138,1.601,1.729  c0.326,0.556,0.497,1.1,0.504,1.633c0,0.535-0.052,1.023-0.154,1.475c-0.166,0.455-0.333,0.845-0.502,1.165l3.593,2.708  c1.025-1.491,1.474-3.356,1.351-5.592c-0.12-2.301-1.424-4.432-3.927-6.397c-2.285-1.721-4.761-2.341-7.427-1.849  c-2.714,0.467-5.285,2.285-7.712,5.437c-2.342,3.143-3.379,6.068-3.108,8.773c0.223,2.682,1.499,4.909,3.817,6.683  c2.163,1.604,4.338,2.254,6.521,1.939C91.788,348.272,93.78,347.267,95.637,345.519L95.637,345.519z"/>
<path fill="#004A8F" d="M120.927,355.375c1.184-2.37,1.801-4.463,1.848-6.261c0.021-1.758-0.293-3.254-0.953-4.488  c-0.631-1.221-1.395-2.219-2.287-2.987c-0.939-0.732-1.743-1.267-2.419-1.61c-0.648-0.33-1.524-0.652-2.631-0.963  c-1.131-0.263-2.392-0.296-3.788-0.108c-1.382,0.194-2.782,0.818-4.188,1.869c-1.469,1.073-2.813,2.795-4.035,5.146  c-1.177,2.356-1.763,4.423-1.747,6.2c-0.037,1.778,0.275,3.291,0.93,4.523c0.667,1.245,1.439,2.235,2.322,2.987  c0.229,0.188,0.45,0.359,0.656,0.523c0.197,0.171,0.393,0.33,0.597,0.476c0.389,0.27,0.736,0.481,1.037,0.635  c0.676,0.344,1.592,0.657,2.761,0.939c1.141,0.279,2.392,0.32,3.753,0.108c1.387-0.191,2.789-0.831,4.211-1.904  C118.399,359.409,119.712,357.713,120.927,355.375L120.927,355.375z M116.914,353.33c-0.706,1.385-1.449,2.461-2.232,3.232  c-0.814,0.738-1.616,1.234-2.405,1.494c-0.806,0.258-1.555,0.337-2.25,0.237c-0.723-0.078-1.367-0.265-1.935-0.554  c-0.521-0.266-1.027-0.666-1.501-1.196c-0.521-0.521-0.913-1.181-1.173-1.981c-0.258-0.794-0.314-1.728-0.176-2.811  c0.126-1.105,0.541-2.35,1.247-3.734c0.727-1.427,1.499-2.512,2.313-3.25c0.802-0.763,1.593-1.27,2.384-1.523  c0.796-0.251,1.563-0.327,2.294-0.221c0.685,0.118,1.293,0.316,1.815,0.582c0.568,0.289,1.109,0.677,1.621,1.169  c0.484,0.513,0.858,1.171,1.128,1.964c0.256,0.787,0.324,1.732,0.198,2.839C118.083,350.65,117.641,351.903,116.914,353.33  L116.914,353.33z"/>
<polygon fill="#004A8F" points="140.757,374.164 147.392,352.463 143.376,351.235 138.755,366.351 138.7,366.334 135.128,348.714   130.609,347.332 123.975,369.033 127.99,370.261 132.721,354.787 132.776,354.805 136.455,372.848 140.757,374.164 "/>
<path fill="#004A8F" d="M168.079,371.482c0.108-1.032,0.047-1.907-0.19-2.626c-0.235-0.729-0.59-1.339-1.067-1.834  c-0.983-0.978-2.22-1.711-3.709-2.207l-5.062-1.898c-0.476-0.156-0.946-0.417-1.406-0.784c-0.499-0.344-0.711-0.943-0.637-1.805  c0.058-0.544,0.224-0.972,0.511-1.28c0.252-0.34,0.574-0.581,0.96-0.726c0.815-0.296,1.668-0.397,2.559-0.304  c0.969,0.102,1.744,0.295,2.313,0.583c0.539,0.315,0.928,0.69,1.175,1.118c0.262,0.378,0.428,0.766,0.499,1.155  c0.039,0.385,0.051,0.721,0.043,0.995l4.297,0.451c0.096-0.71,0.058-1.504-0.127-2.371c-0.18-0.866-0.543-1.693-1.09-2.487  c-0.542-0.842-1.329-1.564-2.358-2.155c-1.052-0.577-2.394-0.961-4.027-1.154c-1.734-0.183-3.152-0.098-4.254,0.252  c-1.13,0.368-2.038,0.888-2.717,1.558c-0.64,0.649-1.118,1.361-1.427,2.135c-0.303,0.772-0.489,1.483-0.557,2.128  c-0.128,1.222-0.029,2.238,0.298,3.063c0.275,0.813,0.713,1.483,1.32,2.014c0.598,0.508,1.279,0.935,2.047,1.286  c0.783,0.362,1.59,0.69,2.417,0.984l2.263,0.81c1.136,0.38,2.03,0.797,2.697,1.248c0.652,0.45,0.943,1.105,0.874,1.967  c-0.062,0.588-0.238,1.057-0.524,1.408c-0.317,0.348-0.699,0.604-1.146,0.764c-0.961,0.323-1.993,0.416-3.112,0.277  c-0.975-0.103-1.73-0.32-2.277-0.658c-0.582-0.311-1.016-0.668-1.301-1.085c-0.246-0.429-0.408-0.859-0.479-1.29  c-0.079-0.411-0.109-0.779-0.097-1.096l-4.297-0.452c-0.096,0.71-0.052,1.505,0.127,2.371c0.13,0.882,0.478,1.756,1.048,2.626  c0.584,0.846,1.444,1.582,2.591,2.211c1.146,0.646,2.678,1.082,4.599,1.305c0.513,0.054,1.239,0.056,2.166,0.011  c0.927-0.056,1.899-0.277,2.924-0.656c1.032-0.395,1.933-1.053,2.702-1.962C167.408,374.442,167.883,373.146,168.079,371.482  L168.079,371.482z"/>
<polygon fill="#004A8F" points="190.769,359.196 190.629,355.184 173.127,355.795 173.267,359.808 179.749,359.581 180.4,378.247   184.902,378.09 184.25,359.424 190.769,359.196 "/>
<path fill="#004A8F" d="M214.296,373.683l-12.025-20.779l-5.275,1.025l-3.428,23.783l4.789-0.932l0.622-4.887l8.063-1.567l2.3,4.319  L214.296,373.683L214.296,373.683z M205.021,366.726l-5.549,1.079l1.076-9.345l0.062-0.012L205.021,366.726L205.021,366.726z"/>
<polygon fill="#004A8F" points="236.434,365.719 228.673,344.396 224.727,345.832 230.133,360.685 230.078,360.704 216.622,348.781   212.181,350.398 219.942,371.722 223.889,370.285 218.354,355.081 218.408,355.062 232.205,367.258 236.434,365.719 "/>
<polygon fill="#004A8F" points="250.407,337.7 248.522,334.155 233.06,342.377 234.944,345.922 240.671,342.877 249.438,359.368   253.416,357.254 244.647,340.762 250.407,337.7 "/>
<path fill="#004A8F" d="M278.07,341.274l-19.438-14.092l-4.402,3.082l6.542,23.121l3.996-2.798l-1.419-4.718l6.729-4.712  l3.858,3.011L278.07,341.274L278.07,341.274z M266.768,338.691l-4.63,3.242l-2.817-8.974l0.052-0.037L266.768,338.691  L266.768,338.691z"/>
<path fill="#004A8F" d="M57.646,286.291l16.885-14.787l-2.253-2.572c-0.659,0.599-1.544,0.883-2.667,0.857  c-0.542-0.036-1.126-0.239-1.741-0.598c-0.637-0.303-1.299-0.852-1.99-1.64l-0.385-0.44l-2.323,2.035l3.333,3.805L54.88,283.132  L57.646,286.291L57.646,286.291z"/>
<path fill="#004A8F" d="M78.085,293.163c0.631-0.542,1.403-1.262,2.314-2.148c0.902-0.923,1.684-1.978,2.337-3.157  c0.671-1.168,1.008-2.424,1.021-3.774c-0.015-1.343-0.621-2.726-1.814-4.146c-1.388-1.614-3.006-2.495-4.863-2.649  c-1.914-0.188-3.909,0.604-5.995,2.369c-1.458,1.255-2.326,2.751-2.606,4.493c-0.315,1.758,0.187,3.426,1.504,4.988  c0.472,0.581,1.06,1.063,1.748,1.443c0.685,0.385,1.464,0.514,2.329,0.389l-0.006,0.081c-1.77,1.474-3.241,2.26-4.407,2.366  c-1.178,0.109-2.059-0.196-2.641-0.905c-0.895-1.009-0.868-2.124,0.072-3.342l0.024-0.021l-2.725-3.168  c-2.482,2.899-2.505,5.83-0.064,8.797c1.286,1.528,3.083,2.324,5.394,2.394c1.162,0.002,2.441-0.32,3.833-0.948  C74.927,295.567,76.442,294.549,78.085,293.163L78.085,293.163z M78.1,287.411c-1.005,0.844-1.94,1.211-2.803,1.112  c-0.858-0.068-1.547-0.4-2.068-1.008c-0.543-0.582-0.792-1.293-0.751-2.134c0.029-0.436,0.201-0.889,0.506-1.359  c0.258-0.5,0.705-1.022,1.328-1.559c0.627-0.539,1.198-0.878,1.713-1.022c0.528-0.161,0.995-0.216,1.402-0.156  c0.411,0.05,0.763,0.185,1.054,0.394c0.283,0.208,0.511,0.408,0.686,0.612C80.505,283.946,80.149,285.648,78.1,287.411L78.1,287.411  z"/>
<path fill="#004A8F" d="M290.724,293.218l-2.929-2.605l-6.147,6.906c-0.216-0.517-0.305-1.272-0.263-2.279  c0.052-0.97,0.164-2.315,0.348-4.036c0.07-0.649,0.105-1.33,0.12-2.037c0.009-0.676-0.057-1.362-0.198-2.06  c-0.21-1.442-1.021-2.807-2.42-4.079c-1.729-1.512-3.502-2.151-5.325-1.911c-1.823,0.203-3.437,1.096-4.834,2.666  c-0.325,0.366-0.691,0.872-1.105,1.52c-0.391,0.668-0.652,1.479-0.792,2.427c-0.111,0.91,0.048,1.919,0.481,3.01  c0.444,1.157,1.341,2.337,2.695,3.541l2.728-3.065c-0.128-0.163-0.28-0.342-0.459-0.529c-0.154-0.137-0.32-0.299-0.498-0.486  c-0.317-0.373-0.579-0.761-0.788-1.159c-0.183-0.429-0.242-0.885-0.178-1.378c0.059-0.47,0.332-0.974,0.822-1.525  c0.678-0.729,1.423-1.068,2.24-1.011c0.804,0.088,1.504,0.401,2.103,0.934c0.894,0.795,1.399,1.788,1.518,2.987  c0.105,1.243,0.051,3.057-0.169,5.436c-0.162,2.804,0.108,4.886,0.822,6.255c0.328,0.701,0.714,1.306,1.17,1.816  c0.449,0.534,0.904,1.052,1.366,1.555L290.724,293.218L290.724,293.218z"/>
<path fill="#004A8F" d="M294.804,271.769c-5.744-5.141-10.255-5.841-13.526-2.102c-3.317,3.663-2.089,8.052,3.684,13.16  c5.763,5.158,10.275,5.881,13.53,2.161C301.825,281.305,300.595,276.896,294.804,271.769L294.804,271.769z M291.91,275.02  c2.133,1.898,3.527,3.414,4.19,4.547c0.661,1.168,0.583,2.19-0.235,3.078c-0.755,0.88-1.755,1.069-3.008,0.567  c-1.231-0.496-2.905-1.697-5.024-3.611c-2.171-1.904-3.565-3.436-4.185-4.586c-0.613-1.158-0.525-2.16,0.261-3.012  c0.787-0.915,1.778-1.126,2.982-0.633C288.078,271.884,289.754,273.1,291.91,275.02L291.91,275.02z"/>
</svg>