<svg xmlns="http://www.w3.org/2000/svg" xmlns:xlink="http://www.w3.org/1999/xlink" version="1.1" id="Logo" x="0px" y="0px" width="312.986px" height="530.498px" viewBox="0 0 312.986 530.498" enable-background="new 0 0 312.986 530.498" xml:space="preserve">
<g>
	<path d="M271.178,115.459c0.386,0.165,0.604,0.26,0.635,0.274l1.879,0.837l7.548-16.914l-1.88-0.838   c-0.092-0.041-0.276-0.123-0.533-0.234l2.612-5.613l0.08,0.033l2.205,0.987l6.185-13.753l-1.886-0.841   c-0.335-0.15-1.729-0.765-4.06-1.71l8.289-23.845l5.572,1.937l8.403-24.174l-14.08-4.895c0,0-3.027,8.708-3.956,11.381   c-2.312-0.804-6.753-2.347-9.065-3.151c0.93-2.673,3.956-11.381,3.956-11.381l-14.173-4.927c0,0-3.028,8.708-3.956,11.381   c-2.313-0.804-6.753-2.347-9.064-3.151c0.928-2.674,3.955-11.381,3.955-11.381l-14.079-4.895l-0.675,1.944l-7.729,22.23   l5.571,1.937l-8.837,25.424c-6.188-1.456-12.787-2.841-19.726-4.08l2.773-26.552l5.865,0.613l2.659-25.456L210.844,5.1   c0,0-0.96,9.169-1.252,11.985c-2.436-0.255-7.11-0.744-9.546-0.998c0.295-2.814,1.252-11.984,1.252-11.984l-14.924-1.56   c0,0-0.959,9.17-1.252,11.985c-2.436-0.255-7.111-0.744-9.547-0.998c0.295-2.814,1.252-11.984,1.252-11.984L162.003,0l-0.214,2.046   l-2.445,23.408l5.869,0.613l-2.792,26.727c-1.967-0.039-3.941-0.063-5.929-0.063s-3.962,0.023-5.929,0.063l-2.791-26.727   l5.868-0.613L150.981,0l-2.047,0.213l-12.777,1.334c0,0,0.957,9.169,1.251,11.984c-2.435,0.254-7.111,0.743-9.545,0.998   c-0.294-2.815-1.251-11.985-1.251-11.985l-14.925,1.56c0,0,0.958,9.169,1.252,11.984c-2.435,0.254-7.11,0.743-9.545,0.998   C103.1,14.27,102.142,5.1,102.142,5.1L87.317,6.648l2.658,25.456l5.866-0.613l2.774,26.552c-6.939,1.24-13.537,2.625-19.727,4.081   l-8.837-25.424l5.572-1.937L67.22,10.588l-1.944,0.676l-12.135,4.218c0,0,3.027,8.707,3.956,11.381   c-2.313,0.804-6.752,2.347-9.065,3.151c-0.928-2.673-3.956-11.381-3.956-11.381l-14.174,4.927c0,0,3.027,8.708,3.956,11.381   c-2.313,0.804-6.752,2.347-9.065,3.151c-0.929-2.673-3.957-11.381-3.957-11.381L6.757,31.606l8.404,24.174l5.571-1.937   l8.289,23.845c-2.331,0.945-3.724,1.56-4.06,1.71l-1.884,0.841l6.136,13.65l2.213-0.869l0.117-0.048l2.612,5.613   c-0.256,0.112-0.441,0.193-0.532,0.234l-1.879,0.838l7.546,16.914l1.879-0.837c0.031-0.014,0.25-0.11,0.636-0.274   C40.113,129.531,21.528,152.977,0,152.977v250.875c0,38.719,27.426,103.253,74.213,103.253h56.466   c12.1,0,25.813,23.394,25.813,23.394s13.712-23.394,25.813-23.394h56.466c46.789,0,74.215-64.534,74.215-103.253V152.977   C291.458,152.977,272.872,129.531,271.178,115.459z M46.79,113.45c15.136-5.853,59.057-20.932,109.703-20.932   c50.646,0,94.565,15.08,109.702,20.932H46.79z"/>
	<path fill="#FFFFFF" d="M5.806,428.375c3.238,13.951,8.874,28.268,16.102,40.2c13.979,23.076,32.554,35.785,52.305,35.785h56.466   c10.541,0,21.133,13.952,25.813,20.998c4.681-7.046,15.272-20.998,25.813-20.998h56.466c19.752,0,38.327-12.709,52.307-35.785   c7.227-11.933,12.863-26.249,16.101-40.2H5.806z"/>
	<path d="M262.552,462.473c-0.477-1.424-2.183-3.084-5.428-3.084c-4.527,0-6.982,4.987-8.073,8.065c-2.013,0-4.652,0-5.097,0   c-2.927-0.737-25.071-6.251-32.81-6.251h-22.168l-13.499-11.899h-23.732c0,0-3.001,4.803-4.034,6.455c-0.992,0-1.587,0-2.995,0   c0-4.015,0-18.958,0-18.958h-7.303c0,0,0,14.943,0,18.958c-0.799,0-4.437,0-4.437,0v5.827c-34.103,1.773-69.868,9.147-71.662,9.522   c-4.607,0.198-9.408,1.9-9.408,6.148c0,5.402,7.906,6.579,9.491,6.759l0.155,0.018h0.156c1.833,0,6.489,0.788,11.88,1.701   c11.144,1.888,27.969,4.734,43.052,4.749c0.47,0.025,26.989,1.415,47.516,1.415c20.591,0,54.427-1.399,54.767-1.415   c0.001,0,0.004,0,0.006,0c2.078,0,6.777-1.265,14.262-3.328c5.505-1.521,12.077-3.326,15.86-3.916   c1.158,3.233,3.64,6.844,8.073,6.844c3.419,0,5.386-3.021,5.563-6.009l0.004-0.081v-21.098L262.552,462.473z"/>
	<path fill="#F7E610" d="M54.652,477.257c0-3.227,7.058-3.429,7.058-3.429s46.787-9.881,85.104-9.881h64.332   c7.865,0,32.469,6.251,32.469,6.251h7.461c0,0,2.016-8.066,6.05-8.066c2.42,0,2.824,1.21,2.824,1.21v20.57   c0,0-0.203,3.428-2.824,3.428c-4.84,0-6.05-7.058-6.05-7.058c-6.051,0-28.031,7.46-32.266,7.46c0,0-33.881,1.413-54.652,1.413   c-20.772,0-47.392-1.413-47.392-1.413c-22.586,0-49.005-6.452-55.055-6.452C61.709,481.291,54.652,480.485,54.652,477.257z"/>
	<path fill="#F7E610" d="M146.813,461.204h18.755v-2.701h-2.42v-4.034h2.42v-2.42h-12.302l-4.034,6.454h-7.26v-18.958h-1.815v18.958   h-4.437v2.953C139.466,461.294,143.18,461.204,146.813,461.204z"/>
	<rect x="164.692" y="455.35" fill="#F7E610" width="3.972" height="2.271"/>
	<polygon fill="#F7E610" points="174.442,452.048 168.312,452.048 168.312,454.468 170.208,454.468 170.208,458.502    168.312,458.502 168.312,461.204 184.828,461.204  "/>
	<g>
		<g>
			<path d="M126.615,481.027v5.708h-0.745v-5.708H126.615z"/>
			<path d="M129.647,485.837c0.331,0.212,0.805,0.372,1.313,0.372c0.754,0,1.194-0.39,1.194-0.974c0-0.525-0.305-0.838-1.076-1.126     c-0.932-0.339-1.507-0.83-1.507-1.626c0-0.89,0.737-1.55,1.846-1.55c0.576,0,1.008,0.136,1.253,0.279l-0.203,0.602     c-0.178-0.11-0.559-0.271-1.076-0.271c-0.779,0-1.076,0.466-1.076,0.855c0,0.533,0.347,0.796,1.135,1.101     c0.966,0.382,1.448,0.839,1.448,1.677c0,0.881-0.644,1.651-1.99,1.651c-0.55,0-1.151-0.169-1.457-0.372L129.647,485.837z"/>
			<path d="M136.677,484.94l-0.593,1.795h-0.762l1.939-5.708h0.889l1.948,5.708h-0.788l-0.61-1.795H136.677z M138.548,484.364     l-0.567-1.643c-0.119-0.373-0.203-0.712-0.288-1.042h-0.025c-0.076,0.33-0.169,0.686-0.279,1.033l-0.559,1.651H138.548z"/>
		</g>
		<g>
			<path d="M143.699,484.94l-0.593,1.795h-0.762l1.939-5.708h0.889l1.948,5.708h-0.787l-0.61-1.795H143.699z M145.57,484.364     l-0.568-1.643c-0.118-0.373-0.203-0.712-0.288-1.042h-0.025c-0.076,0.33-0.169,0.686-0.28,1.033l-0.559,1.651H145.57z"/>
		</g>
		<g>
			<path d="M153.65,486.557c-0.262,0.136-0.813,0.271-1.507,0.271c-1.609,0-2.812-1.016-2.812-2.896     c0-1.796,1.211-2.998,2.981-2.998c0.703,0,1.16,0.152,1.355,0.254l-0.187,0.602c-0.271-0.136-0.669-0.237-1.144-0.237     c-1.338,0-2.227,0.855-2.227,2.354c0,1.405,0.805,2.295,2.185,2.295c0.457,0,0.914-0.094,1.211-0.237L153.65,486.557z"/>
			<path d="M160.055,481.103c0.355-0.067,0.821-0.118,1.414-0.118c0.729,0,1.262,0.169,1.601,0.474     c0.313,0.271,0.508,0.687,0.508,1.194c0,0.517-0.152,0.923-0.449,1.22c-0.389,0.415-1.024,0.627-1.744,0.627     c-0.22,0-0.424-0.009-0.593-0.051v2.286h-0.736V481.103z M160.792,483.847c0.161,0.042,0.373,0.06,0.609,0.06     c0.898,0,1.432-0.44,1.432-1.211c0-0.763-0.533-1.127-1.347-1.127c-0.321,0-0.567,0.034-0.694,0.06V483.847z"/>
			<path d="M169.346,484.059h-2.21v2.058h2.473v0.618h-3.218v-5.708h3.091v0.618h-2.346v1.804h2.21V484.059z"/>
		</g>
		<g>
			<path d="M172.403,481.112c0.373-0.076,0.915-0.127,1.414-0.127c0.788,0,1.305,0.152,1.66,0.474     c0.279,0.246,0.449,0.636,0.449,1.084c0,0.746-0.483,1.245-1.076,1.448v0.025c0.433,0.152,0.694,0.56,0.839,1.152     c0.187,0.796,0.321,1.347,0.432,1.566h-0.762c-0.094-0.161-0.221-0.652-0.373-1.363c-0.169-0.788-0.482-1.084-1.151-1.109h-0.694     v2.473h-0.737V481.112z M173.14,483.703h0.753c0.788,0,1.287-0.432,1.287-1.084c0-0.736-0.533-1.059-1.313-1.059     c-0.355,0-0.601,0.034-0.728,0.068V483.703z"/>
		</g>
		<g>
			<path d="M179.763,484.94l-0.593,1.795h-0.762l1.939-5.708h0.889l1.948,5.708h-0.788l-0.609-1.795H179.763z M181.635,484.364     l-0.567-1.643c-0.119-0.373-0.203-0.712-0.288-1.042h-0.025c-0.076,0.33-0.17,0.686-0.279,1.033l-0.56,1.651H181.635z"/>
		</g>
		<g>
			<path d="M185.853,481.027h0.746v5.09h2.438v0.618h-3.185V481.027z"/>
		</g>
	</g>
	<rect x="39.93" y="299.307" fill="#FFFFFF" width="32.065" height="126.323"/>
	<rect x="107.69" y="299.307" fill="#FFFFFF" width="30.955" height="126.323"/>
	<rect x="174.339" y="299.307" fill="#FFFFFF" width="30.956" height="126.323"/>
	<rect x="240.991" y="299.307" fill="#FFFFFF" width="32.064" height="126.323"/>
	<path fill-rule="evenodd" clip-rule="evenodd" fill="#FFFFFF" d="M147.531,316.102c24.121-4.891,47.729,10.789,52.622,34.91   c4.846,23.923-10.797,47.526-34.956,52.417c-24.121,4.894-47.729-10.788-52.578-34.749   C107.73,344.598,123.373,320.993,147.531,316.102z"/>
	<path fill-rule="evenodd" clip-rule="evenodd" d="M198.727,378.245c-1.091,2.428-2.347,4.779-3.805,6.972   c-6.619,9.998-16.94,17.31-29.382,19.819l0,0l0,0c-2.849,0.604-5.663,0.889-8.479,0.929l-0.28,0.004   c-9.378,0.091-18.393-2.717-25.993-7.762c-6.865-4.531-12.633-11.013-16.326-18.767l3.623-0.053   c1.862,3.637,4.205,6.944,6.942,9.844c5.041,0.855,8.655,0.16,10.996-2.211c1.707-1.633,2.757-4.303,3.147-7.933l3.26-0.045   c-0.417,4.595-1.735,7.996-4.08,10.322c-2.341,2.366-5.462,3.537-9.409,3.394c1.144,1.109,2.442,1.939,3.743,2.805   c3.048,2.009,6.17,3.655,9.609,4.814c2.167-0.433,4.29-1.068,6.172-1.819c2.125-0.595,4.001-1.546,5.88-2.501   c7.114-3.641,12.787-9.316,16.537-17.418l3.62-0.052c-4.131,9.518-10.56,16.087-18.625,20.348   c-2.038,1.157-4.119,1.953-6.361,2.788c-0.2,0.043-0.563,0.127-0.881,0.374c5.246,0.812,10.68,0.856,16.257-0.271l0,0l0,0   c11.52-2.34,21.2-9.195,27.23-18.295c0.59-0.855,1.141-1.913,1.691-2.765l-0.161,0.044c-0.335-0.881-0.709-1.723-1.08-2.48   L198.727,378.245z M201.235,370.679c-0.604,2.586-1.458,5.135-2.508,7.565l-6.155,0.085c-1.452-2.879-3.209-5.029-5.403-6.364   c-0.692-0.392-1.421-0.785-2.15-1.056l5.998-0.083c1.792,1.622,3.313,3.777,4.517,6.412c0.935-2.105,1.712-4.291,2.282-6.511   L201.235,370.679L201.235,370.679z M114.462,379.44c-1.122-2.398-2.081-4.881-2.76-7.488l3.418-0.047   c0.761,2.604,1.762,5.126,2.964,7.482L114.462,379.44L114.462,379.44z M174.501,378.587l-3.62,0.052   c1.052-2.31,1.98-4.856,2.711-7.567l3.459-0.048C176.365,373.73,175.475,376.238,174.501,378.587L174.501,378.587z M142.43,379.042   l-3.26,0.045c0.108-1.048,0.171-2.214,0.153-3.42c-2.309-1.095-4.421-2.433-6.256-4.02l5.393-0.075   c0.649,0.391,1.297,0.746,1.947,1.058l0.605,0.072c3.623,0.071,6.474-0.334,8.593-1.289l5.353-0.076   c-2.371,3.012-6.456,4.479-12.371,4.603C142.563,377.028,142.537,378.076,142.43,379.042z M202.309,364.386   c-0.207,2.094-0.58,4.234-1.074,6.293l-3.42,0.049c0.574-2.062,0.985-4.199,1.198-6.298L202.309,364.386L202.309,364.386z    M111.702,371.952c-0.298-0.959-0.512-1.923-0.727-2.925l0,0l0,0c-0.218-1.125-0.396-2.252-0.531-3.337l3.339-0.045   c0.094,0.883,0.268,1.807,0.441,2.731l0,0l0,0c0.258,1.206,0.558,2.367,0.896,3.528L111.702,371.952L111.702,371.952z    M191.016,370.827l-5.998,0.083c-2.265-0.895-4.727-1.222-7.664-1.058c-0.072,0.403-0.19,0.767-0.303,1.172l-3.459,0.048   c0.188-0.726,0.377-1.493,0.57-2.261c-0.628-1.52-1.329-2.841-2.069-3.997l3.701-0.052c0.329,0.559,0.623,1.196,0.912,1.838   c4.785-0.39,8.701,0.48,12.152,2.604C189.629,369.677,190.321,370.19,191.016,370.827L191.016,370.827z M154.958,371.337   l-5.353,0.076c1.281-0.581,2.316-1.362,3.024-2.377c0.75-1.057,1.214-2.392,1.353-3.965l3.301-0.048   c-0.128,2.339-0.783,4.28-2.011,5.908C155.157,371.092,155.078,371.215,154.958,371.337L154.958,371.337z M138.46,371.573   l-5.393,0.075c-2.117-1.779-3.959-3.886-5.521-6.199l3.983-0.058C133.496,367.86,135.82,369.958,138.46,371.573z M200.235,345.539   c0.548,1.682,1.015,3.403,1.362,5.173l0,0l0,0c0.948,4.617,1.137,9.197,0.712,13.675l-3.296,0.044   c0.181-1.651,0.277-3.305,0.253-4.992l0,0c-4.747-5.527-9.282-10.172-14.044-13.687l5.075-0.073   c2.893,2.495,5.748,5.396,8.651,8.572c-0.216-1.085-0.23-2.01-0.402-2.894l0,0l0,0c-0.391-2.008-0.942-3.93-1.612-5.771   L200.235,345.539L200.235,345.539z M110.444,365.69c-0.816-6.506-0.225-12.954,1.542-18.896l3.46-0.049   c-1.929,5.902-2.563,12.352-1.664,18.9L110.444,365.69L110.444,365.69z M175.794,364.762l-3.701,0.052   c-1.523-2.351-3.361-4.136-5.471-5.314c-2.96-1.646-6.27-2.285-10.329-1.866c0.766,2.808,1.079,5.258,0.99,7.391l-3.301,0.048   c0.171-2.094-0.188-4.665-1.115-7.67c-3.411-2.124-5.621-4.669-6.791-7.632c-0.499-1.12-0.797-2.241-0.974-3.447l3.261-0.047   c0.131,0.763,0.344,1.484,0.634,2.167c1.08,2.396,2.757,4.305,5.401,6.2c5.421-0.922,9.901-0.103,13.71,1.938   C171.196,358.346,173.809,361.09,175.794,364.762L175.794,364.762z M131.529,365.391l-3.983,0.058   c-0.865-1.274-1.65-2.672-2.352-4.111c-2.318-4.355-3.919-9.282-5.08-14.66l3.382-0.048c1.115,4.894,2.585,9.303,4.574,13.179   C129.066,361.846,130.217,363.721,131.529,365.391z M147.187,314.498L147.187,314.498c2.848-0.604,5.701-0.887,8.479-0.931   l0.283-0.001c9.379-0.094,18.39,2.718,26.029,7.761c8.372,5.556,14.972,13.954,18.257,24.212l-3.301,0.047   c-3.188-9.053-9.289-16.451-16.892-21.613c-9.06-6.07-20.647-8.604-32.208-6.267l0,0l0,0c-1.042,0.22-2.125,0.434-3.045,0.647   c-2.288,3.455-3.126,6.807-2.477,9.854c0.407,3.095,2.34,6.085,5.561,9.02c12.225-3.595,21.893-2.929,30.315,0.613   c4.335,1.911,8.275,4.552,12.108,7.838l-5.075,0.073c-2.681-1.976-5.403-3.626-8.278-4.833c-7.812-3.311-16.759-3.946-28.264-0.684   c-0.492,2.22-0.624,4.232-0.315,6.041l-3.261,0.047c-0.352-2.129-0.181-4.346,0.43-6.77c-3.674-3.367-5.895-6.837-6.474-10.653   c-0.604-2.89-0.042-5.837,1.204-8.874c-7.646,3.048-14.092,8.251-18.791,14.679c0,0,0,0,0.042,0.161c0,0,0.044,0.198,0.086,0.361   c-0.027,0.928,0.188,2.006,0.275,2.37c0.447,3.173,0.976,6.186,1.62,9.032l-3.382,0.048c-0.518-2.408-0.956-4.937-1.315-7.508   c-1.334,2.394-2.464,4.945-3.353,7.575l-3.46,0.049c1.344-4.487,3.337-8.701,5.859-12.479   C124.426,324.318,134.786,317.006,147.187,314.498L147.187,314.498z"/>
	<path fill="#FFFFFF" d="M310.242,249.294H2.744c0,15.435,0,31.535,0,47.269h307.498   C310.242,280.83,310.242,264.729,310.242,249.294z"/>
	<path d="M15.276,287.085V261.94h17.243v4.235H20.343v5.974h10.512v4.235H20.343v10.701H15.276z"/>
	<path d="M32.324,287.085v-4.802h4.802v4.802H32.324z"/>
	<path d="M57.761,277.821l4.916,1.512c-0.753,2.763-2.006,4.814-3.757,6.157c-1.751,1.34-3.973,2.011-6.666,2.011   c-3.333,0-6.071-1.139-8.216-3.418c-2.145-2.28-3.217-5.395-3.217-9.348c0-4.181,1.078-7.428,3.233-9.741   c2.155-2.313,4.99-3.469,8.503-3.469c3.068,0,5.56,0.906,7.477,2.719c1.14,1.071,1.996,2.61,2.566,4.616l-5.029,1.21   c-0.297-1.296-0.915-2.321-1.854-3.071c-0.939-0.75-2.081-1.126-3.425-1.126c-1.857,0-3.364,0.668-4.52,2.001   c-1.156,1.335-1.734,3.496-1.734,6.485c0,3.172,0.57,5.429,1.711,6.776c1.141,1.344,2.624,2.018,4.449,2.018   c1.346,0,2.504-0.427,3.474-1.285C56.643,281.011,57.338,279.663,57.761,277.821z"/>
	<path d="M66.572,287.085v-4.802h4.802v4.802H66.572z"/>
	<path d="M101.336,277.821l4.916,1.512c-0.753,2.763-2.005,4.814-3.757,6.157c-1.751,1.34-3.973,2.011-6.666,2.011   c-3.332,0-6.07-1.139-8.215-3.418c-2.145-2.28-3.218-5.395-3.218-9.348c0-4.181,1.078-7.428,3.233-9.741s4.99-3.469,8.503-3.469   c3.068,0,5.56,0.906,7.477,2.719c1.14,1.071,1.996,2.61,2.567,4.616l-5.029,1.21c-0.297-1.296-0.915-2.321-1.854-3.071   c-0.939-0.75-2.082-1.126-3.425-1.126c-1.857,0-3.364,0.668-4.52,2.001c-1.156,1.335-1.734,3.496-1.734,6.485   c0,3.172,0.571,5.429,1.711,6.776c1.141,1.344,2.624,2.018,4.449,2.018c1.346,0,2.504-0.427,3.474-1.285   C100.218,281.011,100.914,279.663,101.336,277.821z"/>
	<path d="M132.835,287.085h-5.515l-2.157-5.709h-10.059l-2.074,5.709h-5.379l9.738-25.146h5.421L132.835,287.085z M123.524,277.141   l-3.488-9.34l-3.392,9.34H123.524z"/>
	<path d="M135.143,287.085V261.94h10.668c2.683,0,4.632,0.226,5.848,0.677c1.216,0.451,2.189,1.254,2.92,2.407   c0.73,1.154,1.097,2.475,1.097,3.958c0,1.885-0.554,3.441-1.66,4.67c-1.103,1.228-2.754,2.001-4.954,2.321   c1.093,0.643,1.996,1.347,2.709,2.113c0.711,0.768,1.671,2.129,2.878,4.088l3.068,4.911h-6.065l-3.65-5.476   c-1.305-1.959-2.197-3.193-2.677-3.703c-0.481-0.51-0.991-0.86-1.528-1.049c-0.538-0.189-1.39-0.283-2.558-0.283h-1.03v10.512   H135.143z M140.21,272.565h3.753c2.433,0,3.952-0.103,4.558-0.309c0.605-0.206,1.079-0.561,1.421-1.065   c0.343-0.503,0.516-1.133,0.516-1.889c0-0.847-0.227-1.531-0.678-2.054c-0.451-0.52-1.087-0.849-1.911-0.988   c-0.411-0.056-1.645-0.084-3.701-0.084h-3.958V272.565z"/>
	<path d="M165.735,287.085v-20.91h-7.448v-4.235h19.927v4.235h-7.411v20.91H165.735z"/>
	<path d="M201.084,287.085h-5.515l-2.157-5.709h-10.06l-2.073,5.709h-5.379l9.736-25.146h5.422L201.084,287.085z M191.773,277.141   l-3.489-9.34l-3.392,9.34H191.773z"/>
	<path d="M215.077,277.859v-4.235h10.928v10.013c-1.063,1.032-2.606,1.94-4.625,2.725c-2.019,0.784-4.063,1.177-6.133,1.177   c-2.629,0-4.922-0.552-6.879-1.657c-1.954-1.104-3.425-2.683-4.407-4.736c-0.984-2.054-1.477-4.287-1.477-6.7   c0-2.621,0.549-4.949,1.646-6.985c1.097-2.036,2.702-3.598,4.817-4.685c1.61-0.835,3.617-1.252,6.018-1.252   c3.12,0,5.558,0.657,7.313,1.968c1.754,1.314,2.882,3.126,3.386,5.442l-5.029,0.945c-0.355-1.238-1.021-2.216-2-2.933   c-0.979-0.716-2.201-1.075-3.667-1.075c-2.221,0-3.988,0.703-5.299,2.109s-1.966,3.492-1.966,6.259   c0,2.983,0.665,5.221,1.996,6.712c1.33,1.493,3.074,2.238,5.229,2.238c1.067,0,2.137-0.208,3.21-0.626   c1.072-0.417,1.991-0.922,2.762-1.518v-3.188H215.077z"/>
	<path d="M230.264,287.085V261.94h18.604v4.235h-13.537v5.596h12.592v4.235h-12.592v6.844h14.028v4.235H230.264z"/>
	<path d="M253.249,287.085V261.94h4.913l10.363,16.896V261.94h4.689v25.146h-5.069l-10.207-16.569v16.569H253.249z"/>
	<path d="M300.781,287.085h-5.516l-2.155-5.709h-10.061l-2.073,5.709h-5.378l9.737-25.146h5.421L300.781,287.085z M291.468,277.141   l-3.487-9.34l-3.394,9.34H291.468z"/>
	<path fill="#8C0829" d="M125.396,213.922c-3.674,0-106.741,0-122.652,0c0,10.193,0,21.201,0,32.628h122.652   C125.396,239.562,125.396,216.994,125.396,213.922z"/>
	<path fill="#8C0829" d="M187.59,213.922c0,3.072,0,25.64,0,32.628h122.651c0-11.427,0-22.436,0-32.628   C294.329,213.922,191.264,213.922,187.59,213.922z"/>
	<path fill="#8C0829" d="M125.396,170.279c0-3.365,0-44.376,0-54.084c-42.742,0-78.939,0-80.918,0   c-2.044,15.369-20.4,37.541-41.734,39.34c0,0.701,0,6.059,0,14.744C18.654,170.279,121.722,170.279,125.396,170.279z"/>
	<path fill="#8C0829" d="M187.59,170.279c3.674,0,106.738,0,122.651,0c0-8.685,0-14.043,0-14.744   c-21.334-1.8-39.689-23.972-41.733-39.34c-1.98,0-38.176,0-80.918,0C187.59,125.903,187.59,166.914,187.59,170.279z"/>
	<path fill="#FFFFFF" d="M185.531,172.337v-56.143h-58.078v56.143H2.744v39.527h124.709v34.687h58.078v-34.687h124.711v-39.527   H185.531z M175.954,215.999h-14.318v-8.472c0-3.001-2.443-5.443-5.444-5.443c-3.003,0-5.444,2.442-5.444,5.443v8.472h-13.715v-7.16   c0-2.897,1.8-5.693,2.622-6.824c0-0.842,0-3.461,0-3.461c0-5.153,4.298-9.875,5.849-11.413c0-1.291,0-15.498,0-16.478   c-0.549-0.778-4.841-6.857-4.841-6.857V153.48h7.666c0,0,0,3.021,0,4.234c0.798,0,1.015,0,1.813,0c0-1.214,0-4.234,0-4.234h12.706   c0,0,0,3.021,0,4.234c0.799,0,1.015,0,1.813,0c0-1.214,0-4.234,0-4.234h5.95h1.715v10.325c0,0-4.291,6.08-4.841,6.857   c0,0.98,0,15.188,0,16.478c1.55,1.539,5.848,6.26,5.848,11.413c0,0,0,2.619,0,3.461c0.823,1.13,2.623,3.926,2.623,6.824V215.999z"/>
	<path fill="#F7E610" d="M171.617,202.587v-4.033c0-5.446-5.849-10.689-5.849-10.689v-17.746l4.841-6.857v-8.066h-4.235v4.235   h-5.243v-4.235h-9.276v4.235h-5.243v-4.235h-4.235v8.066l4.84,6.857v17.746c0,0-5.849,5.243-5.849,10.689v4.033   c0,0-2.622,3.227-2.622,6.252v5.445h10.285v-6.756c0-3.954,3.206-7.158,7.159-7.158c3.954,0,7.158,3.205,7.158,7.158v6.756h10.89   v-5.445C174.239,205.814,171.617,202.587,171.617,202.587z"/>
	<path fill="#FFFFFF" d="M156.493,92.518c-50.646,0-94.566,15.08-109.703,20.932h219.405   C251.058,107.598,207.139,92.518,156.493,92.518z"/>
	<path fill="#F7E610" d="M156.493,90.46c63.727,0,116.158,23.394,116.158,23.394l5.871-13.156   c-2.256-1.006-55.994-24.643-122.029-24.643c-66.036,0-119.773,23.637-122.029,24.643l5.87,13.156   C40.333,113.854,92.766,90.46,156.493,90.46z"/>
	<path fill="#F7E610" d="M156.493,73.998c59.412,0,108.976,19.026,120.438,23.784l2.607-5.602   c-11.442-4.762-62.229-24.357-123.045-24.357S44.891,87.418,33.447,92.18l2.607,5.602C47.517,93.024,97.08,73.998,156.493,73.998z"/>
	<path fill="#F7E610" d="M156.493,54.79c-70.499,0-128.267,25.406-130.691,26.488l4.486,9.979l0.388-0.152l1.98-0.824   c9.837-4.094,62.042-24.515,123.836-24.515c61.797,0,113.998,20.421,123.836,24.515l1.98,0.824l0.381,0.17l4.494-9.997   C284.759,80.196,226.991,54.79,156.493,54.79z"/>
	<path fill="#F7E610" d="M76.876,62.602l-8.77-25.23L22.676,53.164l8.258,23.759C39.203,73.656,55.482,67.756,76.876,62.602z"/>
	<polygon fill="#F7E610" points="55.76,16.75 59.716,28.131 46.764,32.634 42.808,21.252 32.521,24.828 36.478,36.209    23.525,40.712 19.569,29.33 9.377,32.874 16.429,53.16 73.004,33.494 65.952,13.208  "/>
	<path fill="#F7E610" d="M148.5,52.843l-2.774-26.565l-47.837,4.996l2.758,26.41C115.331,55.147,131.49,53.296,148.5,52.843z"/>
	<polygon fill="#F7E610" points="138.418,3.381 139.669,15.365 126.03,16.79 124.778,4.805 113.947,5.937 115.199,17.92    101.561,19.345 100.308,7.361 89.578,8.482 91.809,29.843 151.379,23.621 149.148,2.26  "/>
	<path fill="#F7E610" d="M164.485,52.843l2.774-26.565l47.839,4.996l-2.76,26.41C197.654,55.147,181.495,53.296,164.485,52.843z"/>
	<polygon fill="#F7E610" points="174.568,3.381 173.316,15.365 186.956,16.79 188.207,4.805 199.037,5.937 197.787,17.92    211.425,19.345 212.676,7.361 223.408,8.482 221.176,29.843 161.606,23.621 163.836,2.26  "/>
	<path fill="#F7E610" d="M236.11,62.602l8.769-25.23l45.432,15.792l-8.26,23.759C273.783,73.656,257.502,67.756,236.11,62.602z"/>
	<polygon fill="#F7E610" points="257.225,16.75 253.269,28.131 266.221,32.634 270.177,21.252 280.462,24.828 276.507,36.209    289.46,40.712 293.417,29.33 303.608,32.874 296.556,53.16 239.981,33.494 247.033,13.208  "/>
</g>
</svg>