<svg xmlns="http://www.w3.org/2000/svg" id="Wordmark" viewBox="0 0 612 540">
  <title>FC Cincinnati secondary wordmark orange-blue</title>
  <g id="c" style="fill: #003087">
    <path d="M532.80329,291.27576V355.7737c0,25.61441-27.51279,52.80466-69.56761,52.80466-42.68607,0-71.46138-27.19025-71.46138-52.80466V198.51562c0-25.61441,28.77531-52.80466,71.46138-52.80466,42.05482,0,69.56761,27.19025,69.56761,52.80466v20.8483l-57.55063,32.95919-.01555-64.60227-24.64218,14.12429V366.68367l24.64313-14.11514.0146-28.332Z"/>
    <path id="crown" d="M536.07607,86.24559a46.67792,46.67792,0,0,0-17.02068-15.53928,46.67752,46.67752,0,0,0-16.9832,15.57955c-.05695,8.30821,3.1089,17.70461,3.1089,17.70461l-19.67046.0178c1.1974-3.9015,4.45093-15.5065,4.36476-26.2l-.00375-.42636-.21281-.36941a54.7877,54.7877,0,0,0-6.42986-8.4326,78.5093,78.5093,0,0,0-20.15506-15.93847l-.78378-.43217-.783.43217a78.50922,78.50922,0,0,0-20.155,15.93847,54.78824,54.78824,0,0,0-6.42987,8.4326l-.21281.36941-.00374.42636c-.08692,10.7461,3.19882,22.41124,4.382,26.25522l-19.64649.01761s3.14413-9.4039,3.067-17.7121a46.67838,46.67838,0,0,0-17.02067-15.5391A46.67805,46.67805,0,0,0,388.5042,86.40931c-.057,8.3084,3.1089,17.7048,3.1089,17.7048h-.0015l.02548,21.71849,141.39827-.1566-.02548-21.7185S536.15324,94.55361,536.07607,86.24559Z"/>
  </g>
  <g id="fc" style="fill: #fe5000">
    <polygon points="185.218 195.355 185.218 150.452 70.748 150.452 70.748 446.808 128.935 413.3 128.935 299.702 163.856 299.702 163.856 252.901 128.935 252.901 128.935 195.355 185.218 195.355"/>
    <path d="M356.24668,291.27576V355.7737c0,25.61441-27.5128,52.80466-69.56761,52.80466-42.68608,0-71.46139-27.19025-71.46139-52.80466V198.51562c0-25.61441,28.77531-52.80466,71.46139-52.80466,42.05481,0,69.56761,27.19025,69.56761,52.80466v20.8483L298.696,252.32311l-.01555-64.60227-24.64217,14.12429V366.68367l24.64312-14.11514.0146-28.332Z"/>
  </g>
</svg>