<svg xmlns:dc="http://purl.org/dc/elements/1.1/" xmlns:cc="http://creativecommons.org/ns#" xmlns:rdf="http://www.w3.org/1999/02/22-rdf-syntax-ns#" xmlns:svg="http://www.w3.org/2000/svg" xmlns="http://www.w3.org/2000/svg" xmlns:sodipodi="http://sodipodi.sourceforge.net/DTD/sodipodi-0.dtd" xmlns:inkscape="http://www.inkscape.org/namespaces/inkscape" id="svg3004" version="1.1" inkscape:version="0.48.1 r9760" width="493.17297" height="493.11801" xml:space="preserve" sodipodi:docname="SAE_2010_sponsoringdoku_hospitality_150dpi.pdf"><metadata id="metadata3010"><rdf:RDF><cc:Work rdf:about=""><dc:format>image/svg+xml</dc:format><dc:type rdf:resource="http://purl.org/dc/dcmitype/StillImage"/><dc:title/></cc:Work></rdf:RDF></metadata><defs id="defs3008"><clipPath clipPathUnits="userSpaceOnUse" id="clipPath3020"><path d="m 0,69.323 595.275,0 0,387.055 L 0,456.378 0,69.323 z" id="path3022" inkscape:connector-curvature="0"/></clipPath><clipPath clipPathUnits="userSpaceOnUse" id="clipPath3044"><path d="m 0,0 595.276,0 0,841.89 L 0,841.89 0,0 z" id="path3046" inkscape:connector-curvature="0"/></clipPath><clipPath clipPathUnits="userSpaceOnUse" id="clipPath3074"><path d="m 0,0 595.276,0 0,841.89 L 0,841.89 0,0 z" id="path3076" inkscape:connector-curvature="0"/></clipPath><clipPath clipPathUnits="userSpaceOnUse" id="clipPath3126"><path d="m 28.346,17.488 35.894,0 0,35.89 -35.894,0 0,-35.89 z" id="path3128" inkscape:connector-curvature="0"/></clipPath><clipPath clipPathUnits="userSpaceOnUse" id="clipPath3146"><path d="m 38.552,52.011 -8.838,-8.837 0.002,-15.481 8.835,-8.838 15.482,0 8.837,8.837 0.002,15.482 -8.84,8.837 -15.48,0 z" id="path3148" inkscape:connector-curvature="0"/></clipPath><clipPath clipPathUnits="userSpaceOnUse" id="clipPath3158"><path d="m 28.346,17.488 38.14,0 0,35.89 -38.14,0 0,-35.89 z" id="path3160" inkscape:connector-curvature="0"/></clipPath><clipPath clipPathUnits="userSpaceOnUse" id="clipPath3182"><path d="m 28.346,17.488 38.14,0 0,35.89 -38.14,0 0,-35.89 z" id="path3184" inkscape:connector-curvature="0"/></clipPath></defs><sodipodi:namedview pagecolor="#ffffff" bordercolor="#666666" borderopacity="1" objecttolerance="10" gridtolerance="10" guidetolerance="10" inkscape:pageopacity="0" inkscape:pageshadow="2" inkscape:window-width="1049" inkscape:window-height="623" id="namedview3006" showgrid="false" fit-margin-top="0" fit-margin-left="0" fit-margin-right="0" fit-margin-bottom="0" inkscape:zoom="0.70710678" inkscape:cx="331.16732" inkscape:cy="252.34134" inkscape:window-x="0" inkscape:window-y="0" inkscape:window-maximized="0" inkscape:current-layer="g3012"/><g id="g3012" inkscape:groupmode="layer" inkscape:label="SAE_2010_sponsoringdoku_hospitality_150dpi" transform="matrix(1.25,0,0,-1.25,-131.95605,511.73219)"><g id="g3118" transform="matrix(10.991825,0,0,10.991825,213.45509,403.55679)"><path d="m 0,0 16.262,0 9.286,-9.284 -0.003,-16.262 -9.283,-9.283 -16.263,0 -9.282,9.283 L -9.285,-9.283 0,0 z" style="fill:#ffffff;fill-opacity:1;fill-rule:nonzero;stroke:none" id="path3120" inkscape:connector-curvature="0"/></g><g id="g3122" transform="matrix(10.991825,0,0,10.991825,-206.01163,-177.33588)"><g id="g3124" clip-path="url(#clipPath3126)"><g id="g3130" transform="translate(38.1617,52.8477)"><path d="m 0,0 16.262,0 9.286,-9.284 -0.003,-16.262 -9.283,-9.283 -16.263,0 -9.282,9.283 L -9.285,-9.283 0,0 z" style="fill:none;stroke:#fddd04;stroke-width:1.06099999;stroke-linecap:butt;stroke-linejoin:miter;stroke-miterlimit:3.86400008;stroke-opacity:1;stroke-dasharray:none" id="path3132" inkscape:connector-curvature="0"/></g></g></g><g id="g3134" transform="matrix(10.991825,0,0,10.991825,217.74959,394.35993)"><path d="m 0,0 -8.838,-8.837 0.002,-15.481 8.835,-8.838 7.626,0 L 7.625,0 0,0 z" style="fill:#154281;fill-opacity:1;fill-rule:nonzero;stroke:none" id="path3136" inkscape:connector-curvature="0"/></g><g id="g3138" transform="matrix(10.991825,0,0,10.991825,120.61044,237.4824)"><path d="m 0,0 0.001,-10.046 3.045,-3.045 27.064,0 3.044,3.044 L 33.156,0 0,0 z" style="fill:#ffffff;fill-opacity:1;fill-rule:nonzero;stroke:none" id="path3140" inkscape:connector-curvature="0"/></g><g id="g3142" transform="matrix(10.991825,0,0,10.991825,-206.01163,-177.33588)"><g id="g3144" clip-path="url(#clipPath3146)"><g id="g3150" transform="translate(27.6912,37.739)"><path d="M 0,0 36.967,0 36.966,-13.091 0,-13.091 0,-0.614 0,0 z" style="fill:none;stroke:#154281;stroke-width:0.46399999;stroke-linecap:butt;stroke-linejoin:miter;stroke-miterlimit:3.86400008;stroke-opacity:1;stroke-dasharray:none" id="path3152" inkscape:connector-curvature="0"/></g></g></g><g id="g3154" transform="matrix(10.991825,0,0,10.991825,-206.01163,-177.33588)"><g id="g3156" clip-path="url(#clipPath3158)"><g id="g3162" transform="translate(38.5525,52.0106)"><path d="m 0,0 15.48,0 8.84,-8.837 -0.003,-15.481 -8.836,-8.837 -15.482,0 -8.835,8.837 L -8.838,-8.837 0,0 z" style="fill:none;stroke:#154281;stroke-width:1.11500001;stroke-linecap:butt;stroke-linejoin:miter;stroke-miterlimit:1;stroke-opacity:1;stroke-dasharray:none" id="path3164" inkscape:connector-curvature="0"/></g></g></g><g id="g3166" transform="matrix(10.991825,0,0,10.991825,119.96742,237.4846)"><path d="M 0,0 33.14,0" style="fill:none;stroke:#154281;stroke-width:0.46399999;stroke-linecap:butt;stroke-linejoin:miter;stroke-miterlimit:3.86400008;stroke-opacity:1;stroke-dasharray:none" id="path3168" inkscape:connector-curvature="0"/></g><g id="g3170" transform="matrix(10.991825,0,0,10.991825,215.20718,399.80418)"><path d="m 0,0 15.943,0 9.104,-9.101 -0.003,-15.944 -9.1,-9.102 -15.945,10e-4 -9.1,9.101 L -9.102,-9.101 0,0 z" style="fill:none;stroke:#ffffff;stroke-width:0.53100002;stroke-linecap:butt;stroke-linejoin:miter;stroke-miterlimit:3.86400008;stroke-opacity:1;stroke-dasharray:none" id="path3172" inkscape:connector-curvature="0"/></g><g id="g3174" transform="matrix(10.991825,0,0,10.991825,165.64944,120.29087)"><path d="m 0,0 0.958,0 -0.077,-0.271 -0.582,0 -0.1,-0.314 0.562,0 -0.079,-0.27 -0.554,0 -0.172,-0.577 -0.385,0 L 0,0 z" style="fill:#154281;fill-opacity:1;fill-rule:nonzero;stroke:none" id="path3176" inkscape:connector-curvature="0"/></g><g id="g3178" transform="matrix(10.991825,0,0,10.991825,-206.01163,-177.33588)"><g id="g3180" clip-path="url(#clipPath3182)"><g id="g3186" transform="translate(36.0552,26.4106)"><path d="m 0,0 c -0.134,-0.455 -0.274,-0.79 -0.795,-0.79 -0.322,0 -0.564,0.115 -0.535,0.451 0.009,0.113 0.034,0.206 0.055,0.272 l 0.226,0.734 0.388,0 -0.244,-0.81 c -0.02,-0.068 -0.037,-0.123 -0.04,-0.156 -0.01,-0.117 0.049,-0.207 0.185,-0.207 0.246,0 0.311,0.295 0.38,0.524 l 0.198,0.649 0.379,0 L 0,0 z" style="fill:#154281;fill-opacity:1;fill-rule:nonzero;stroke:none" id="path3188" inkscape:connector-curvature="0"/></g><g id="g3190" transform="translate(37.3768,26.7531)"><path d="m 0,0 c -0.071,0.035 -0.169,0.066 -0.31,0.066 -0.152,0 -0.277,-0.023 -0.287,-0.138 -0.017,-0.203 0.544,-0.127 0.507,-0.562 -0.035,-0.396 -0.411,-0.498 -0.743,-0.498 -0.148,0 -0.315,0.035 -0.437,0.074 l 0.116,0.291 c 0.071,-0.05 0.221,-0.082 0.345,-0.082 0.12,0 0.308,0.022 0.321,0.17 0.02,0.23 -0.543,0.144 -0.507,0.548 0.031,0.369 0.365,0.48 0.679,0.48 0.176,0 0.341,-0.019 0.433,-0.064 L 0,0 z" style="fill:#154281;fill-opacity:1;fill-rule:nonzero;stroke:none" id="path3192" inkscape:connector-curvature="0"/></g><g id="g3194" transform="translate(38.675,26.7531)"><path d="m 0,0 c -0.07,0.035 -0.169,0.066 -0.31,0.066 -0.152,0 -0.277,-0.023 -0.287,-0.138 -0.018,-0.203 0.545,-0.127 0.507,-0.562 -0.035,-0.396 -0.411,-0.498 -0.743,-0.498 -0.148,0 -0.315,0.035 -0.437,0.074 l 0.116,0.291 c 0.071,-0.05 0.22,-0.082 0.346,-0.082 0.119,0 0.307,0.022 0.32,0.17 0.02,0.23 -0.543,0.144 -0.508,0.548 0.033,0.369 0.366,0.48 0.68,0.48 0.176,0 0.341,-0.019 0.433,-0.064 L 0,0 z" style="fill:#154281;fill-opacity:1;fill-rule:nonzero;stroke:none" id="path3196" inkscape:connector-curvature="0"/></g><g id="g3198" transform="translate(39.3467,26.511)"><path d="M 0,0 0.143,0 C 0.303,0 0.404,0.064 0.412,0.162 0.422,0.277 0.33,0.295 0.186,0.295 l -0.098,0 L 0,0 z m -0.177,-0.595 0.103,0 c 0.192,0 0.326,0.053 0.339,0.193 0.01,0.125 -0.078,0.144 -0.251,0.144 l -0.092,0 -0.099,-0.337 z m -0.034,1.161 0.636,0 C 0.573,0.566 0.824,0.509 0.8,0.238 0.783,0.045 0.621,-0.098 0.393,-0.125 l 0,-0.004 C 0.555,-0.154 0.66,-0.248 0.646,-0.406 0.619,-0.709 0.346,-0.853 0.018,-0.857 l -0.653,-0.008 0.424,1.431 z" style="fill:#154281;fill-opacity:1;fill-rule:nonzero;stroke:none" id="path3200" inkscape:connector-curvature="0"/></g><g id="g3202" transform="translate(41.1506,26.7817)"><path d="m 0,0 -0.004,0 -0.353,-0.56 0.369,0 L 0,0 z m -0.165,0.295 0.48,0 0.109,-1.431 -0.386,0 -0.012,0.306 -0.556,0 -0.197,-0.306 -0.415,0 0.977,1.431 z" style="fill:#154281;fill-opacity:1;fill-rule:nonzero;stroke:none" id="path3204" inkscape:connector-curvature="0"/></g><g id="g3206" transform="translate(42.1875,27.0771)"><path d="m 0,0 0.387,0 -0.338,-1.149 0.599,0 -0.084,-0.283 -0.987,0 L 0,0 z" style="fill:#154281;fill-opacity:1;fill-rule:nonzero;stroke:none" id="path3208" inkscape:connector-curvature="0"/></g><g id="g3210" transform="translate(43.3723,27.0771)"><path d="m 0,0 0.388,0 -0.339,-1.149 0.599,0 -0.084,-0.283 -0.986,0 L 0,0 z" style="fill:#154281;fill-opacity:1;fill-rule:nonzero;stroke:none" id="path3212" inkscape:connector-curvature="0"/></g><g id="g3214" transform="translate(46.2935,26.7322)"><path d="m 0,0 c -0.115,0.07 -0.228,0.087 -0.35,0.087 -0.383,0 -0.56,-0.271 -0.584,-0.542 -0.022,-0.254 0.129,-0.373 0.359,-0.373 0.137,0 0.265,0.029 0.37,0.08 l -0.068,-0.308 c -0.095,-0.031 -0.257,-0.055 -0.387,-0.055 -0.461,0 -0.702,0.272 -0.667,0.666 0.042,0.476 0.406,0.815 0.943,0.815 0.275,0 0.424,-0.048 0.5,-0.076 L 0,0 z" style="fill:#154281;fill-opacity:1;fill-rule:nonzero;stroke:none" id="path3216" inkscape:connector-curvature="0"/></g><g id="g3218" transform="translate(46.6431,27.0771)"><path d="m 0,0 0.388,0 -0.339,-1.149 0.599,0 -0.084,-0.283 -0.986,0 L 0,0 z" style="fill:#154281;fill-opacity:1;fill-rule:nonzero;stroke:none" id="path3220" inkscape:connector-curvature="0"/></g><g id="g3222" transform="translate(48.8712,26.4106)"><path d="m 0,0 c -0.134,-0.455 -0.274,-0.79 -0.795,-0.79 -0.322,0 -0.564,0.115 -0.534,0.451 0.01,0.113 0.034,0.206 0.054,0.272 l 0.226,0.734 0.388,0 -0.244,-0.81 c -0.02,-0.068 -0.037,-0.123 -0.04,-0.156 -0.01,-0.117 0.05,-0.207 0.185,-0.207 0.246,0 0.311,0.295 0.38,0.524 l 0.199,0.649 0.379,0 L 0,0 z" style="fill:#154281;fill-opacity:1;fill-rule:nonzero;stroke:none" id="path3224" inkscape:connector-curvature="0"/></g><g id="g3226" transform="translate(49.5672,26.511)"><path d="m 0,0 0.143,0 c 0.16,0 0.261,0.064 0.269,0.162 0.01,0.115 -0.083,0.133 -0.226,0.133 l -0.099,0 L 0,0 z m -0.177,-0.595 0.102,0 c 0.193,0 0.327,0.053 0.339,0.193 0.011,0.125 -0.077,0.144 -0.25,0.144 l -0.092,0 -0.099,-0.337 z m -0.034,1.161 0.636,0 C 0.572,0.566 0.824,0.509 0.8,0.238 0.783,0.045 0.621,-0.098 0.393,-0.125 l 0,-0.004 C 0.555,-0.154 0.659,-0.248 0.645,-0.406 0.619,-0.709 0.345,-0.853 0.017,-0.857 l -0.653,-0.008 0.425,1.431 z" style="fill:#154281;fill-opacity:1;fill-rule:nonzero;stroke:none" id="path3228" inkscape:connector-curvature="0"/></g><g id="g3230" transform="translate(51.4399,27.0771)"><path d="m 0,0 0.387,0 -0.338,-1.149 0.599,0 -0.084,-0.283 -0.987,0 L 0,0 z" style="fill:#154281;fill-opacity:1;fill-rule:nonzero;stroke:none" id="path3232" inkscape:connector-curvature="0"/></g><g id="g3234" transform="translate(53.6679,26.4106)"><path d="m 0,0 c -0.134,-0.455 -0.274,-0.79 -0.795,-0.79 -0.322,0 -0.564,0.115 -0.535,0.451 0.01,0.113 0.035,0.206 0.055,0.272 l 0.226,0.734 0.388,0 -0.244,-0.81 c -0.02,-0.068 -0.037,-0.123 -0.04,-0.156 -0.01,-0.117 0.05,-0.207 0.185,-0.207 0.246,0 0.311,0.295 0.38,0.524 l 0.198,0.649 0.38,0 L 0,0 z" style="fill:#154281;fill-opacity:1;fill-rule:nonzero;stroke:none" id="path3236" inkscape:connector-curvature="0"/></g><g id="g3238" transform="translate(54.104,27.0771)"><path d="m 0,0 1.103,0 -0.09,-0.304 -0.901,-0.845 0.655,0 -0.079,-0.283 -1.132,0 0.092,0.304 0.887,0.845 -0.618,0 L 0,0 z" style="fill:#154281;fill-opacity:1;fill-rule:nonzero;stroke:none" id="path3240" inkscape:connector-curvature="0"/></g><g id="g3242" transform="translate(55.4587,27.0771)"><path d="m 0,0 1.007,0 -0.079,-0.271 -0.629,0 -0.092,-0.295 0.597,0 -0.083,-0.271 -0.595,0 -0.098,-0.324 0.654,0 -0.079,-0.271 -1.036,0 L 0,0 z" style="fill:#154281;fill-opacity:1;fill-rule:nonzero;stroke:none" id="path3244" inkscape:connector-curvature="0"/></g><g id="g3246" transform="translate(56.9509,26.482)"><path d="M 0,0 0.129,0 C 0.296,0 0.428,0.042 0.44,0.177 0.449,0.279 0.391,0.322 0.277,0.324 l -0.183,0 L 0,0 z m -0.2,0.595 0.457,0 C 0.53,0.593 0.857,0.585 0.826,0.23 0.804,-0.022 0.599,-0.111 0.378,-0.137 L 0.377,-0.141 c 0.112,-0.01 0.136,-0.162 0.149,-0.255 l 0.063,-0.44 -0.381,0 -0.041,0.364 C 0.146,-0.285 0.134,-0.27 -0.038,-0.27 l -0.041,0 -0.165,-0.566 -0.383,0 0.427,1.431 z" style="fill:#154281;fill-opacity:1;fill-rule:nonzero;stroke:none" id="path3248" inkscape:connector-curvature="0"/></g><g id="g3250" transform="translate(58.1638,27.0771)"><path d="m 0,0 0.477,0 0.207,-0.992 0.004,0 L 0.976,0 1.337,0 0.908,-1.432 l -0.475,0 -0.213,0.991 -0.004,0 -0.286,-0.991 -0.361,0 L 0,0 z" style="fill:#154281;fill-opacity:1;fill-rule:nonzero;stroke:none" id="path3252" inkscape:connector-curvature="0"/></g><g id="g3254" transform="translate(34.424,27.7094)"><path d="m 0,0 2.895,0 0.909,3.288 4.159,0 0.416,1.539 -4.221,0 0.54,1.773 4.374,0 0.4,1.539 -7.193,0 L 0,0 z" style="fill:#fddd04;fill-opacity:1;fill-rule:nonzero;stroke:none" id="path3256" inkscape:connector-curvature="0"/></g><g id="g3258" transform="translate(52.406,35.853)"><path d="m 0,0 c 0,0 -0.582,0.013 -2.646,0.013 -4.035,0 -5.433,-1.813 -6.065,-3.97 -0.498,-1.7 0.156,-4.185 4.643,-4.185 l 1.775,0 0.494,1.612 -1.308,0 c -2.421,0 -3.23,0.636 -2.695,2.515 0.617,2.17 1.854,2.471 3.884,2.471 l 1.504,0 L 0,0 z" style="fill:#fddd04;fill-opacity:1;fill-rule:nonzero;stroke:none" id="path3260" inkscape:connector-curvature="0"/></g><g id="g3262" transform="translate(34.0313,28.3143)"><path d="m 0,0 2.896,0 0.908,3.288 4.159,0 0.416,1.54 -4.221,0 0.54,1.772 4.374,0 0.401,1.539 -7.193,0 L 0,0 z" style="fill:#ffffff;fill-opacity:1;fill-rule:nonzero;stroke:none" id="path3264" inkscape:connector-curvature="0"/></g><g id="g3266" transform="translate(51.9036,36.4582)"><path d="m 0,0 c 0,0 -0.582,0.013 -2.646,0.013 -4.035,0 -5.433,-1.813 -6.065,-3.97 -0.498,-1.7 0.156,-4.185 4.643,-4.185 l 1.775,0 0.493,1.611 -1.307,0 c -2.421,0 -3.23,0.637 -2.695,2.515 0.617,2.171 1.855,2.472 3.884,2.472 l 1.504,0 L 0,0 z" style="fill:#ffffff;fill-opacity:1;fill-rule:nonzero;stroke:none" id="path3268" inkscape:connector-curvature="0"/></g><g id="g3270" transform="translate(50.6166,28.3143)"><path d="m 0,0 8.271,0 0.446,1.609 -5.359,0 1.786,6.53 -2.911,0 L 0,0 z" style="fill:#ffffff;fill-opacity:1;fill-rule:nonzero;stroke:none" id="path3272" inkscape:connector-curvature="0"/></g><g id="g3274" transform="translate(33.8799,28.6261)"><path d="m 0,0 2.857,0 0.897,3.244 4.104,0 0.41,1.519 -4.164,0 0.532,1.749 4.316,0 0.395,1.519 -7.098,0 L 0,0 z" style="fill:#154281;fill-opacity:1;fill-rule:nonzero;stroke:none" id="path3276" inkscape:connector-curvature="0"/></g><g id="g3278" transform="translate(51.6596,36.662)"><path d="m 0,0 c 0,0 -0.574,0.013 -2.611,0.013 -3.982,0 -5.361,-1.789 -5.984,-3.917 -0.492,-1.678 0.153,-4.13 4.581,-4.13 l 1.752,0 0.486,1.59 -1.29,0 c -2.388,0 -3.187,0.628 -2.659,2.482 0.609,2.141 1.83,2.438 3.833,2.438 l 1.483,0 L 0,0 z" style="fill:#154281;fill-opacity:1;fill-rule:nonzero;stroke:none" id="path3280" inkscape:connector-curvature="0"/></g><g id="g3282" transform="translate(51.2906,27.7094)"><path d="m 0,0 8.271,0 0.447,1.766 -5.36,0 1.786,6.53 -2.91,0 L 0,0.157 0,0 z" style="fill:#fddd04;fill-opacity:1;fill-rule:nonzero;stroke:none" id="path3284" inkscape:connector-curvature="0"/></g><g id="g3286" transform="translate(50.7882,28.3143)"><path d="m 0,0 8.271,0 0.447,1.609 -5.36,0 1.787,6.53 -2.912,0 L 0,0 z" style="fill:#ffffff;fill-opacity:1;fill-rule:nonzero;stroke:none" id="path3288" inkscape:connector-curvature="0"/></g><g id="g3290" transform="translate(50.6714,28.6261)"><path d="m 0,0 8.161,0 0.441,1.588 -5.289,0 1.763,6.443 -2.872,0 L 0,0 z" style="fill:#154281;fill-opacity:1;fill-rule:nonzero;stroke:none" id="path3292" inkscape:connector-curvature="0"/></g><g id="g3294" transform="translate(47.035,38.9621)"><path d="M 0,0 C -0.009,0.003 -0.924,-0.112 -1.107,-0.079 -1.349,-0.037 -1.955,0.044 -2.095,0.315 -2.379,0.096 -3.068,0.673 -3.283,0.854 -3.215,0.759 -3.125,0.679 -3.036,0.603 -2.595,0.091 -2.012,-0.18 -1.242,-0.274 -1.012,-0.317 -0.123,-0.128 0,0" style="fill:#154281;fill-opacity:1;fill-rule:nonzero;stroke:none" id="path3296" inkscape:connector-curvature="0"/></g><g id="g3298" transform="translate(47.035,38.9621)"><path d="M 0,0 C -0.009,0.003 -0.924,-0.112 -1.107,-0.079 -1.349,-0.037 -1.955,0.044 -2.095,0.315 -2.379,0.096 -3.068,0.673 -3.283,0.854 -3.215,0.759 -3.125,0.679 -3.036,0.603 -2.595,0.091 -2.012,-0.18 -1.242,-0.274 -1.012,-0.317 -0.123,-0.128 0,0 z" style="fill:none;stroke:#154281;stroke-width:0.083;stroke-linecap:butt;stroke-linejoin:miter;stroke-miterlimit:3.86400008;stroke-opacity:1;stroke-dasharray:none" id="path3300" inkscape:connector-curvature="0"/></g><g id="g3302" transform="translate(43.0528,41.3088)"><path d="M 0,0 C -0.294,1.673 0.823,3.267 2.495,3.562 4.168,3.856 5.762,2.739 6.057,1.067 6.352,-0.606 5.235,-2.2 3.562,-2.495 1.889,-2.79 0.295,-1.672 0,0" style="fill:#ffffff;fill-opacity:1;fill-rule:nonzero;stroke:none" id="path3304" inkscape:connector-curvature="0"/></g><g id="g3306" transform="translate(43.0528,41.3088)"><path d="M 0,0 C -0.294,1.673 0.823,3.267 2.495,3.562 4.168,3.856 5.762,2.739 6.057,1.067 6.352,-0.606 5.235,-2.2 3.562,-2.495 1.889,-2.79 0.295,-1.672 0,0 z" style="fill:none;stroke:#154281;stroke-width:0.27200001;stroke-linecap:butt;stroke-linejoin:miter;stroke-miterlimit:3.86400008;stroke-opacity:1;stroke-dasharray:none" id="path3308" inkscape:connector-curvature="0"/></g><g id="g3310" transform="translate(43.2804,41.1872)"><path d="M 0,0 C -0.123,0.392 -0.146,1.052 -0.044,1.461 -0.077,1.504 -0.149,1.329 -0.178,1.374 -0.467,0.58 -0.2,-0.369 0.219,-1.002 0.102,-0.716 -0.086,-0.309 0,0" style="fill:#154281;fill-opacity:1;fill-rule:nonzero;stroke:none" id="path3312" inkscape:connector-curvature="0"/></g><g id="g3314" transform="translate(43.2804,41.1872)"><path d="M 0,0 C -0.123,0.392 -0.146,1.052 -0.044,1.461 -0.077,1.504 -0.149,1.329 -0.178,1.374 -0.467,0.58 -0.2,-0.369 0.219,-1.002 0.102,-0.716 -0.086,-0.309 0,0 z" style="fill:none;stroke:#154281;stroke-width:0.083;stroke-linecap:butt;stroke-linejoin:miter;stroke-miterlimit:3.86400008;stroke-opacity:1;stroke-dasharray:none" id="path3316" inkscape:connector-curvature="0"/></g><g id="g3318" transform="translate(46.497,39.7666)"><path d="M 0,0 C -0.194,0.532 -0.115,1.174 0.11,1.685 -0.593,1.64 -1.317,1.947 -1.807,2.447 -1.895,1.96 -2.225,1.496 -2.508,1.102 -2.22,0.624 -1.855,0.21 -1.528,-0.238 -1.23,-0.393 -0.354,-0.043 0,0" style="fill:#154281;fill-opacity:1;fill-rule:nonzero;stroke:none" id="path3320" inkscape:connector-curvature="0"/></g><g id="g3322" transform="translate(46.497,39.7666)"><path d="M 0,0 C -0.194,0.532 -0.115,1.174 0.11,1.685 -0.593,1.64 -1.317,1.947 -1.807,2.447 -1.895,1.96 -2.225,1.496 -2.508,1.102 -2.22,0.624 -1.855,0.21 -1.528,-0.238 -1.23,-0.393 -0.354,-0.043 0,0 z" style="fill:none;stroke:#154281;stroke-width:0.083;stroke-linecap:butt;stroke-linejoin:miter;stroke-miterlimit:3.86400008;stroke-opacity:1;stroke-dasharray:none" id="path3324" inkscape:connector-curvature="0"/></g><g id="g3326" transform="translate(48.8012,41.3177)"><path d="M 0,0 C 0.055,0.258 0.374,0.524 0.337,0.945 0.148,1.466 -0.058,2.098 -0.434,2.426 -0.687,2.294 -1.054,2.38 -1.322,2.418 -1.027,2.016 -0.966,1.488 -0.923,1.005 -0.741,0.653 -0.204,0.387 0,0" style="fill:#154281;fill-opacity:1;fill-rule:nonzero;stroke:none" id="path3328" inkscape:connector-curvature="0"/></g><g id="g3330" transform="translate(48.8012,41.3177)"><path d="M 0,0 C 0.055,0.258 0.374,0.524 0.337,0.945 0.148,1.466 -0.058,2.098 -0.434,2.426 -0.687,2.294 -1.054,2.38 -1.322,2.418 -1.027,2.016 -0.966,1.488 -0.923,1.005 -0.741,0.653 -0.204,0.387 0,0 z" style="fill:none;stroke:#154281;stroke-width:0.083;stroke-linecap:butt;stroke-linejoin:miter;stroke-miterlimit:3.86400008;stroke-opacity:1;stroke-dasharray:none" id="path3332" inkscape:connector-curvature="0"/></g><g id="g3334" transform="translate(46.2318,44.1858)"><path d="m 0,0 c -0.09,0.093 -0.391,0.353 -0.295,0.483 -0.222,-0.001 0.854,0.197 0.633,0.2 -0.84,0.18 -2.069,-0.19 -2.424,-0.736 -0.218,-0.174 -0.322,-0.381 -0.44,-0.574 0.223,0.03 0.877,0.029 0.966,-0.249 C -1.214,-0.324 -0.635,-0.055 0,0" style="fill:#154281;fill-opacity:1;fill-rule:nonzero;stroke:none" id="path3336" inkscape:connector-curvature="0"/></g><g id="g3338" transform="translate(46.2318,44.1858)"><path d="m 0,0 c -0.09,0.093 -0.391,0.353 -0.295,0.483 -0.222,-0.001 0.854,0.197 0.633,0.2 -0.84,0.18 -2.069,-0.19 -2.424,-0.736 -0.218,-0.174 -0.322,-0.381 -0.44,-0.574 0.223,0.03 0.877,0.029 0.966,-0.249 C -1.214,-0.324 -0.635,-0.055 0,0 z" style="fill:none;stroke:#154281;stroke-width:0.083;stroke-linecap:butt;stroke-linejoin:miter;stroke-miterlimit:3.86400008;stroke-opacity:1;stroke-dasharray:none" id="path3340" inkscape:connector-curvature="0"/></g><g id="g3342" transform="translate(47.4802,39.0983)"><path d="M 0,0 C 0.398,0.252 0.86,0.566 1.192,1.125 1.199,1.136 1.318,1.432 1.325,1.444 1.208,1.317 1.03,1.066 0.889,1.133 0.688,0.754 0.148,0.581 -0.238,0.479 c 0.069,-0.238 -0.304,-0.574 -0.424,-0.654 0.035,-0.03 0.397,0.157 0.447,0.167 C -0.126,-0.012 -0.304,-0.171 0,0" style="fill:#154281;fill-opacity:1;fill-rule:nonzero;stroke:none" id="path3344" inkscape:connector-curvature="0"/></g><g id="g3346" transform="translate(47.4802,39.0983)"><path d="M 0,0 C 0.398,0.252 0.86,0.566 1.192,1.125 1.199,1.136 1.318,1.432 1.325,1.444 1.208,1.317 1.03,1.066 0.889,1.133 0.688,0.754 0.148,0.581 -0.238,0.479 c 0.069,-0.238 -0.304,-0.574 -0.424,-0.654 0.035,-0.03 0.397,0.157 0.447,0.167 C -0.126,-0.012 -0.304,-0.171 0,0 z" style="fill:none;stroke:#154281;stroke-width:0.083;stroke-linecap:butt;stroke-linejoin:miter;stroke-miterlimit:3.86400008;stroke-opacity:1;stroke-dasharray:none" id="path3348" inkscape:connector-curvature="0"/></g><g id="g3350" transform="translate(46.3601,39.8229)"><path d="M 0,0 C 0.241,-0.068 0.789,-0.248 1.019,-0.348 M 0.033,1.462 C 0.44,1.762 1.218,2.315 1.68,2.527 M -3.227,1.473 c 0.183,-0.131 0.784,-0.495 1.022,-0.451 m 0.542,0.926 c -0.019,0.376 -0.049,1.495 -0.026,1.871" style="fill:none;stroke:#154281;stroke-width:0.27200001;stroke-linecap:butt;stroke-linejoin:miter;stroke-miterlimit:3.86400008;stroke-opacity:1;stroke-dasharray:none" id="path3352" inkscape:connector-curvature="0"/></g><g id="g3354" transform="translate(49.0351,42.2817)"><path d="M 0,0 C 0.064,-0.622 -0.574,-2.069 -0.757,-2.42" style="fill:none;stroke:#154281;stroke-width:0.34999999;stroke-linecap:butt;stroke-linejoin:miter;stroke-miterlimit:3.86400008;stroke-opacity:1;stroke-dasharray:none" id="path3356" inkscape:connector-curvature="0"/></g><g id="g3358" transform="translate(44.9783,39.1118)"><path d="M 0,0 C -0.017,0.081 0.033,0.532 0.04,0.614 M 0.58,5.263 C 1.005,5.144 2.905,4.486 3.306,4.299" style="fill:none;stroke:#154281;stroke-width:0.27200001;stroke-linecap:butt;stroke-linejoin:miter;stroke-miterlimit:3.86400008;stroke-opacity:1;stroke-dasharray:none" id="path3360" inkscape:connector-curvature="0"/></g><g id="g3362" transform="translate(54.1284,48.7535)"><path d="M 0,0 C 0.046,-0.114 0.084,-0.249 0.123,-0.294 0.388,-0.491 0.493,-0.805 0.632,-1.146 1.078,-1.899 1.522,-2.37 1.431,-2.674 1.237,-3.171 0.4,-3.715 0.074,-3.945 0.047,-3.986 0.038,-5.705 0.54,-6.198 c 0.196,-0.163 0.419,-0.349 0.723,-0.276 0.132,0.027 0.212,0.145 0.234,0.252 -0.027,0.359 -0.419,0.567 -0.692,0.796 -0.341,0.215 -0.55,0.547 -0.489,0.939 0.029,0.201 0.145,0.374 0.248,0.552 l 1.708,1.2 c 0.301,0.26 0.436,0.782 0.231,1.295 0.044,0.018 0.085,-0.02 0.114,-0.043 C 3.16,-1.997 3.352,-2.868 3.064,-3.515 2.929,-3.92 2.391,-4.723 2.502,-5.182 2.614,-5.598 1.972,-5.852 2.156,-6.239 2.254,-6.495 2.201,-6.894 1.574,-7.117 1.563,-7.129 1.541,-7.138 1.545,-7.156 1.954,-7.45 2.501,-7.862 2.748,-8.263 c 0.108,-0.229 0.33,-1.188 0.33,-1.188 -0.41,-0.365 -1.165,-1.134 -1.181,-1.352 -0.011,-0.012 -1.788,-0.06 -1.801,-0.047 -0.072,0.069 -0.152,0.186 -0.145,0.286 0.038,0.391 0.625,0.582 0.992,0.699 0.194,0.071 0.45,0.194 0.461,0.407 0.006,0.159 -0.118,0.295 -0.281,0.356 -0.215,0.072 -1.589,0.862 -1.876,1.222 -0.035,0.047 -0.054,0.062 -0.054,0.062 l -1.795,-1.144 -1.112,-1.144 c -0.225,-0.067 -0.97,-0.221 -0.97,-0.221 -0.298,-0.085 -0.327,-0.285 -0.336,-0.456 -0.029,-0.04 -1.634,-0.069 -1.651,-0.046 -0.427,0.276 -0.132,0.628 -0.07,0.679 0.255,0.249 0.513,0.343 1.328,0.475 0.175,0.03 0.606,0.157 0.778,0.359 0.257,0.239 0.191,0.574 0.203,0.887 0.013,0.168 -10e-4,0.351 0.07,0.495 l -0.006,0.005 c 0.069,0.169 0.262,0.345 0.439,0.449 l 0.948,0.451 0.75,0.346 c 0.246,0.115 0.464,0.304 0.49,0.564 -0.02,0.184 -0.185,0.31 -0.352,0.405 -0.576,0.302 -1.137,0.523 -1.779,0.68 -0.249,0.066 -1.739,0.345 -1.739,0.345 -0.464,0.049 -1.092,0.208 -1.383,-0.103 -0.046,-0.022 -0.261,0.114 -0.269,0.133 -0.02,0.073 0.009,0.266 0.045,0.336 0.308,0.46 0.578,0.522 1.16,0.575 0.189,0.015 0.147,0.002 0.33,-0.016 0.031,0.048 -0.066,0.283 0.203,0.512 -0.371,0.317 -0.619,0.658 -0.918,1.01 -0.161,0.166 -0.381,0.217 -0.625,0.195 l -0.184,-0.041 c -0.031,0.013 -0.202,0.71 0.241,0.872 0.333,0.119 0.795,0.181 1.106,-0.022 0.331,-0.203 0.475,-0.493 0.763,-0.734 0.224,-0.224 0.529,-0.434 0.835,-0.591 0.114,-0.111 0.215,0.032 0.326,0.053 0.306,0.12 0.723,0.084 1.049,0.066 0.077,-0.019 1.105,-0.35 1.997,0.266 l -0.013,0.01 c -0.219,-0.071 -0.509,-0.186 -0.734,-0.072 -0.129,0.102 -0.077,0.28 -0.029,0.394 -0.017,0.051 0.029,0.158 -0.072,0.168 -0.18,0.003 -0.365,0.084 -0.436,0.241 -0.066,0.127 -0.059,0.269 -0.061,0.414 -0.058,0.082 -0.105,0.176 -0.065,0.27 0.152,0.184 0.421,0.176 0.615,0.291 0.302,0.186 0.822,0.496 1.199,0.53 0.097,0.034 0.238,-0.025 0.35,-0.008 C -0.133,0.064 -0.017,0.033 0,0" style="fill:#154281;fill-opacity:1;fill-rule:nonzero;stroke:none" id="path3364" inkscape:connector-curvature="0"/></g><g id="g3366" transform="translate(54.1284,48.7535)"><path d="M 0,0 C 0.046,-0.114 0.084,-0.249 0.123,-0.294 0.388,-0.491 0.493,-0.805 0.632,-1.146 1.078,-1.899 1.522,-2.37 1.431,-2.674 1.237,-3.171 0.4,-3.715 0.074,-3.945 0.047,-3.986 0.038,-5.705 0.54,-6.198 c 0.196,-0.163 0.419,-0.349 0.723,-0.276 0.132,0.027 0.212,0.145 0.234,0.252 -0.027,0.359 -0.419,0.567 -0.692,0.796 -0.341,0.215 -0.55,0.547 -0.489,0.939 0.029,0.201 0.145,0.374 0.248,0.552 l 1.708,1.2 c 0.301,0.26 0.436,0.782 0.231,1.295 0.044,0.018 0.085,-0.02 0.114,-0.043 C 3.16,-1.997 3.352,-2.868 3.064,-3.515 2.929,-3.92 2.391,-4.723 2.502,-5.182 2.614,-5.598 1.972,-5.852 2.156,-6.239 2.254,-6.495 2.201,-6.894 1.574,-7.117 1.563,-7.129 1.541,-7.138 1.545,-7.156 1.954,-7.45 2.501,-7.862 2.748,-8.263 c 0.108,-0.229 0.33,-1.188 0.33,-1.188 -0.41,-0.365 -1.165,-1.134 -1.181,-1.352 -0.011,-0.012 -1.788,-0.06 -1.801,-0.047 -0.072,0.069 -0.152,0.186 -0.145,0.286 0.038,0.391 0.625,0.582 0.992,0.699 0.194,0.071 0.45,0.194 0.461,0.407 0.006,0.159 -0.118,0.295 -0.281,0.356 -0.215,0.072 -1.589,0.862 -1.876,1.222 -0.035,0.047 -0.054,0.062 -0.054,0.062 l -1.795,-1.144 -1.112,-1.144 c -0.225,-0.067 -0.97,-0.221 -0.97,-0.221 -0.298,-0.085 -0.327,-0.285 -0.336,-0.456 -0.029,-0.04 -1.634,-0.069 -1.651,-0.046 -0.427,0.276 -0.132,0.628 -0.07,0.679 0.255,0.249 0.513,0.343 1.328,0.475 0.175,0.03 0.606,0.157 0.778,0.359 0.257,0.239 0.191,0.574 0.203,0.887 0.013,0.168 -10e-4,0.351 0.07,0.495 l -0.006,0.005 c 0.069,0.169 0.262,0.345 0.439,0.449 l 0.948,0.451 0.75,0.346 c 0.246,0.115 0.464,0.304 0.49,0.564 -0.02,0.184 -0.185,0.31 -0.352,0.405 -0.576,0.302 -1.137,0.523 -1.779,0.68 -0.249,0.066 -1.739,0.345 -1.739,0.345 -0.464,0.049 -1.092,0.208 -1.383,-0.103 -0.046,-0.022 -0.261,0.114 -0.269,0.133 -0.02,0.073 0.009,0.266 0.045,0.336 0.308,0.46 0.578,0.522 1.16,0.575 0.189,0.015 0.147,0.002 0.33,-0.016 0.031,0.048 -0.066,0.283 0.203,0.512 -0.371,0.317 -0.619,0.658 -0.918,1.01 -0.161,0.166 -0.381,0.217 -0.625,0.195 l -0.184,-0.041 c -0.031,0.013 -0.202,0.71 0.241,0.872 0.333,0.119 0.795,0.181 1.106,-0.022 0.331,-0.203 0.475,-0.493 0.763,-0.734 0.224,-0.224 0.529,-0.434 0.835,-0.591 0.114,-0.111 0.215,0.032 0.326,0.053 0.306,0.12 0.723,0.084 1.049,0.066 0.077,-0.019 1.105,-0.35 1.997,0.266 l -0.013,0.01 c -0.219,-0.071 -0.509,-0.186 -0.734,-0.072 -0.129,0.102 -0.077,0.28 -0.029,0.394 -0.017,0.051 0.029,0.158 -0.072,0.168 -0.18,0.003 -0.365,0.084 -0.436,0.241 -0.066,0.127 -0.059,0.269 -0.061,0.414 -0.058,0.082 -0.105,0.176 -0.065,0.27 0.152,0.184 0.421,0.176 0.615,0.291 0.302,0.186 0.822,0.496 1.199,0.53 0.097,0.034 0.238,-0.025 0.35,-0.008 C -0.133,0.064 -0.017,0.033 0,0 z" style="fill:none;stroke:#154281;stroke-width:0.018;stroke-linecap:butt;stroke-linejoin:miter;stroke-miterlimit:3.86400008;stroke-opacity:1;stroke-dasharray:none" id="path3368" inkscape:connector-curvature="0"/></g><g id="g3370" transform="translate(53.9568,48.6876)"><path d="m 0,0 c 0.163,-0.171 -0.151,-0.261 -0.106,-0.391 0.139,-0.365 0.078,-0.8 -0.196,-1.106 -0.053,-0.046 -0.113,-0.081 -0.188,-0.089 -0.119,0.023 -0.111,0.145 -0.167,0.217 -0.044,0.113 -0.195,0.224 -0.331,0.241 -0.205,0.023 -0.352,-0.101 -0.464,-0.241 -0.056,-0.047 -0.142,-0.057 -0.22,-0.048 -0.075,0.011 -0.114,0.085 -0.151,0.137 -0.067,0.105 -0.03,0.224 -0.026,0.341 -0.04,0.048 -0.056,0.109 -0.102,0.155 -0.008,0.025 0.006,0.045 0.015,0.065 0.064,0.046 0.153,0.048 0.225,0.08 0.393,0.202 0.778,0.421 1.285,0.414 C -0.289,-0.17 -0.225,0.029 0,0" style="fill:#fddd04;fill-opacity:1;fill-rule:nonzero;stroke:none" id="path3372" inkscape:connector-curvature="0"/></g><g id="g3374" transform="translate(53.9568,48.6876)"><path d="m 0,0 c 0.163,-0.171 -0.151,-0.261 -0.106,-0.391 0.139,-0.365 0.078,-0.8 -0.196,-1.106 -0.053,-0.046 -0.113,-0.081 -0.188,-0.089 -0.119,0.023 -0.111,0.145 -0.167,0.217 -0.044,0.113 -0.195,0.224 -0.331,0.241 -0.205,0.023 -0.352,-0.101 -0.464,-0.241 -0.056,-0.047 -0.142,-0.057 -0.22,-0.048 -0.075,0.011 -0.114,0.085 -0.151,0.137 -0.067,0.105 -0.03,0.224 -0.026,0.341 -0.04,0.048 -0.056,0.109 -0.102,0.155 -0.008,0.025 0.006,0.045 0.015,0.065 0.064,0.046 0.153,0.048 0.225,0.08 0.393,0.202 0.778,0.421 1.285,0.414 C -0.289,-0.17 -0.225,0.029 0,0 z" style="fill:none;stroke:#fddd04;stroke-width:0.018;stroke-linecap:butt;stroke-linejoin:miter;stroke-miterlimit:3.86400008;stroke-opacity:1;stroke-dasharray:none" id="path3376" inkscape:connector-curvature="0"/></g><g id="g3378" transform="translate(53.321,48.1215)"><path d="M 0,0 C 0.01,-0.03 -0.018,-0.062 -0.052,-0.067 -0.139,-0.086 -0.218,-0.135 -0.315,-0.122 -0.404,-0.078 -0.421,0.013 -0.452,0.091 -0.446,0.121 -0.11,0.1 0,0" style="fill:#154281;fill-opacity:1;fill-rule:nonzero;stroke:none" id="path3380" inkscape:connector-curvature="0"/></g><g id="g3382" transform="translate(53.321,48.1215)"><path d="M 0,0 C 0.01,-0.03 -0.018,-0.062 -0.052,-0.067 -0.139,-0.086 -0.218,-0.135 -0.315,-0.122 -0.404,-0.078 -0.421,0.013 -0.452,0.091 -0.446,0.121 -0.11,0.1 0,0 z" style="fill:none;stroke:#154281;stroke-width:0.018;stroke-linecap:butt;stroke-linejoin:miter;stroke-miterlimit:3.86400008;stroke-opacity:1;stroke-dasharray:none" id="path3384" inkscape:connector-curvature="0"/></g><g id="g3386" transform="translate(54.4259,47.4843)"><path d="m 0,0 c 0.439,-0.737 0.809,-1.241 0.809,-1.241 -0.193,-0.68 -1.294,-1.03 -1.388,-1.223 -0.083,-0.246 -0.345,-0.449 -0.597,-0.602 0.066,0.382 -0.005,0.699 -0.005,0.699 -0.16,-0.691 -1.284,-1.226 -1.938,-1.219 0.567,0.214 0.861,0.884 0.861,0.884 -0.417,-0.527 -1.52,-0.584 -1.845,-0.518 0.139,0.004 0.5,0.17 0.829,0.386 0.081,0.066 -1.436,-0.382 -2.166,-0.007 -0.098,0.056 -0.201,0.126 -0.279,0.206 0.796,-0.096 1.546,0.111 1.546,0.111 -0.658,0.125 -0.57,0.161 -1.273,0.402 0.348,0.203 0.749,0.227 1.104,0.21 0.189,-0.017 0.503,0.02 0.669,0.074 l -10e-4,0.011 c -0.338,0.106 -0.676,0.212 -1.067,0.195 0.147,0.081 0.564,0.131 0.74,0.167 0.664,0.165 0.993,-0.309 1.621,-0.101 -0.071,-0.195 -0.242,-0.324 -0.195,-0.599 0.356,0.351 0.829,0.537 1.197,0.875 0.331,0.268 0.619,0.595 0.847,0.917 0.176,0.291 0.261,0.616 0.211,0.967 C -0.282,0.65 -0.099,0.166 0,0" style="fill:#fddd04;fill-opacity:1;fill-rule:nonzero;stroke:none" id="path3388" inkscape:connector-curvature="0"/></g><g id="g3390" transform="translate(54.4259,47.4843)"><path d="m 0,0 c 0.439,-0.737 0.809,-1.241 0.809,-1.241 -0.193,-0.68 -1.294,-1.03 -1.388,-1.223 -0.083,-0.246 -0.345,-0.449 -0.597,-0.602 0.066,0.382 -0.005,0.699 -0.005,0.699 -0.16,-0.691 -1.284,-1.226 -1.938,-1.219 0.567,0.214 0.861,0.884 0.861,0.884 -0.417,-0.527 -1.52,-0.584 -1.845,-0.518 0.139,0.004 0.5,0.17 0.829,0.386 0.081,0.066 -1.436,-0.382 -2.166,-0.007 -0.098,0.056 -0.201,0.126 -0.279,0.206 0.796,-0.096 1.546,0.111 1.546,0.111 -0.658,0.125 -0.57,0.161 -1.273,0.402 0.348,0.203 0.749,0.227 1.104,0.21 0.189,-0.017 0.503,0.02 0.669,0.074 l -10e-4,0.011 c -0.338,0.106 -0.676,0.212 -1.067,0.195 0.147,0.081 0.564,0.131 0.74,0.167 0.664,0.165 0.993,-0.309 1.621,-0.101 -0.071,-0.195 -0.242,-0.324 -0.195,-0.599 0.356,0.351 0.829,0.537 1.197,0.875 0.331,0.268 0.619,0.595 0.847,0.917 0.176,0.291 0.261,0.616 0.211,0.967 C -0.282,0.65 -0.099,0.166 0,0 z" style="fill:none;stroke:#fddd04;stroke-width:0.018;stroke-linecap:butt;stroke-linejoin:miter;stroke-miterlimit:3.86400008;stroke-opacity:1;stroke-dasharray:none" id="path3392" inkscape:connector-curvature="0"/></g><g id="g3394" transform="translate(53.0331,47.3058)"><path d="M 0,0 C 0.073,-0.055 0.096,-0.13 0.142,-0.196 L 0.132,-0.24 c -0.153,-0.083 -0.351,-0.202 -0.54,-0.105 -0.041,0.035 -0.084,0.035 -0.117,0.079 0.022,0.088 0.089,0.168 0.167,0.233 0.07,0.049 0.144,0.091 0.23,0.112 C -0.067,0.085 -0.044,0.021 0,0" style="fill:#fddd04;fill-opacity:1;fill-rule:nonzero;stroke:none" id="path3396" inkscape:connector-curvature="0"/></g><g id="g3398" transform="translate(53.0331,47.3058)"><path d="M 0,0 C 0.073,-0.055 0.096,-0.13 0.142,-0.196 L 0.132,-0.24 c -0.153,-0.083 -0.351,-0.202 -0.54,-0.105 -0.041,0.035 -0.084,0.035 -0.117,0.079 0.022,0.088 0.089,0.168 0.167,0.233 0.07,0.049 0.144,0.091 0.23,0.112 C -0.067,0.085 -0.044,0.021 0,0 z" style="fill:none;stroke:#fddd04;stroke-width:0.018;stroke-linecap:butt;stroke-linejoin:miter;stroke-miterlimit:3.86400008;stroke-opacity:1;stroke-dasharray:none" id="path3400" inkscape:connector-curvature="0"/></g><g id="g3402" transform="translate(48.9563,46.5452)"><path d="m 0,0 0.001,-0.011 c -0.159,-0.023 -0.305,-0.077 -0.419,-0.169 0.407,-0.026 0.707,-0.165 1.058,-0.324 -0.037,-0.033 -0.619,-0.34 -0.726,-0.372 -0.319,0.259 -0.598,0.533 -0.86,0.815 0.143,0.074 0.299,0.209 0.346,0.353 0.027,0.091 0.055,0.189 0.026,0.29 C -0.388,0.385 -0.232,0.172 0,0" style="fill:#fddd04;fill-opacity:1;fill-rule:nonzero;stroke:none" id="path3404" inkscape:connector-curvature="0"/></g><g id="g3406" transform="translate(48.9563,46.5452)"><path d="m 0,0 0.001,-0.011 c -0.159,-0.023 -0.305,-0.077 -0.419,-0.169 0.407,-0.026 0.707,-0.165 1.058,-0.324 -0.037,-0.033 -0.619,-0.34 -0.726,-0.372 -0.319,0.259 -0.598,0.533 -0.86,0.815 0.143,0.074 0.299,0.209 0.346,0.353 0.027,0.091 0.055,0.189 0.026,0.29 C -0.388,0.385 -0.232,0.172 0,0 z" style="fill:none;stroke:#fddd04;stroke-width:0.018;stroke-linecap:butt;stroke-linejoin:miter;stroke-miterlimit:3.86400008;stroke-opacity:1;stroke-dasharray:none" id="path3408" inkscape:connector-curvature="0"/></g><g id="g3410" transform="translate(56.9284,45.1866)"><path d="m 0,0 -0.562,-1.022 c -0.073,-0.209 -0.146,-0.445 -0.079,-0.672 0.026,-0.154 -0.869,-0.291 -0.804,-0.43 -0.362,0.292 -0.781,0.619 -0.679,1.101 0.046,0.601 1.894,1.429 2.03,2.002 0.054,0.184 0.075,0.286 0.099,0.433 C 0.228,0.992 0.189,0.419 0,0" style="fill:#fddd04;fill-opacity:1;fill-rule:nonzero;stroke:none" id="path3412" inkscape:connector-curvature="0"/></g><g id="g3414" transform="translate(56.9284,45.1866)"><path d="m 0,0 -0.562,-1.022 c -0.073,-0.209 -0.146,-0.445 -0.079,-0.672 0.026,-0.154 -0.869,-0.291 -0.804,-0.43 -0.362,0.292 -0.781,0.619 -0.679,1.101 0.046,0.601 1.894,1.429 2.03,2.002 0.054,0.184 0.075,0.286 0.099,0.433 C 0.228,0.992 0.189,0.419 0,0 z" style="fill:none;stroke:#fddd04;stroke-width:0.018;stroke-linecap:butt;stroke-linejoin:miter;stroke-miterlimit:3.86400008;stroke-opacity:1;stroke-dasharray:none" id="path3416" inkscape:connector-curvature="0"/></g><g id="g3418" transform="translate(53.8756,43.063)"><path d="M 0,0 C -0.187,-0.021 -0.359,-0.188 -0.359,-0.188 0.016,-0.233 0.494,-0.581 0.776,-0.814 0.606,-0.853 0.475,-1.043 0.475,-1.043 0.947,-1.071 2.243,-2.246 2.5,-2.437 2.663,-2.579 2.728,-3.309 2.671,-3.5 2.591,-3.754 2.295,-3.919 2.002,-3.938 L 1.903,-3.943 c 0.072,0.092 0.131,0.193 0.087,0.314 -0.127,0.339 -0.581,0.979 -0.94,1.037 -0.336,0.07 -0.687,0.107 -0.99,0.258 -0.67,0.432 -0.508,1.066 -0.941,1.82 -0.333,0.579 -1.196,0.962 -1.94,1.209 0.618,-0.07 1.338,-0.077 1.841,0.248 C -0.939,0.961 -0.261,0.471 0,0" style="fill:#fddd04;fill-opacity:1;fill-rule:nonzero;stroke:none" id="path3420" inkscape:connector-curvature="0"/></g><g id="g3422" transform="translate(53.8756,43.063)"><path d="M 0,0 C -0.187,-0.021 -0.359,-0.188 -0.359,-0.188 0.016,-0.233 0.494,-0.581 0.776,-0.814 0.606,-0.853 0.475,-1.043 0.475,-1.043 0.947,-1.071 2.243,-2.246 2.5,-2.437 2.663,-2.579 2.728,-3.309 2.671,-3.5 2.591,-3.754 2.295,-3.919 2.002,-3.938 L 1.903,-3.943 c 0.072,0.092 0.131,0.193 0.087,0.314 -0.127,0.339 -0.581,0.979 -0.94,1.037 -0.336,0.07 -0.687,0.107 -0.99,0.258 -0.67,0.432 -0.508,1.066 -0.941,1.82 -0.333,0.579 -1.196,0.962 -1.94,1.209 0.618,-0.07 1.338,-0.077 1.841,0.248 C -0.939,0.961 -0.261,0.471 0,0 z" style="fill:none;stroke:#fddd04;stroke-width:0.018;stroke-linecap:butt;stroke-linejoin:miter;stroke-miterlimit:3.86400008;stroke-opacity:1;stroke-dasharray:none" id="path3424" inkscape:connector-curvature="0"/></g><g id="g3426" transform="translate(53.0735,41.5863)"><path d="m 0,0 c 0.012,-0.119 -1.134,-0.888 -1.363,-1.22 -0.068,0.135 -0.179,0.273 -0.326,0.37 L -1.7,-0.861 c -0.06,-0.328 -0.274,-1.026 -1.155,-1.707 -0.191,-0.043 -0.411,-0.009 -0.603,0.019 l -0.177,0.04 c 0.15,0.075 0.302,0.22 0.377,0.36 0.321,0.464 -0.093,1.156 0.425,1.554 0.152,0.111 0.316,0.201 0.487,0.28 l 1.124,0.524 C -0.31,0.665 -0.412,0.9 -0.386,0.982 -0.14,0.703 -0.053,0.352 0,0" style="fill:#fddd04;fill-opacity:1;fill-rule:nonzero;stroke:none" id="path3428" inkscape:connector-curvature="0"/></g><g id="g3430" transform="translate(53.0735,41.5863)"><path d="m 0,0 c 0.012,-0.119 -1.134,-0.888 -1.363,-1.22 -0.068,0.135 -0.179,0.273 -0.326,0.37 L -1.7,-0.861 c -0.06,-0.328 -0.274,-1.026 -1.155,-1.707 -0.191,-0.043 -0.411,-0.009 -0.603,0.019 l -0.177,0.04 c 0.15,0.075 0.302,0.22 0.377,0.36 0.321,0.464 -0.093,1.156 0.425,1.554 0.152,0.111 0.316,0.201 0.487,0.28 l 1.124,0.524 C -0.31,0.665 -0.412,0.9 -0.386,0.982 -0.14,0.703 -0.053,0.352 0,0 z" style="fill:none;stroke:#fddd04;stroke-width:0.018;stroke-linecap:butt;stroke-linejoin:miter;stroke-miterlimit:3.86400008;stroke-opacity:1;stroke-dasharray:none" id="path3432" inkscape:connector-curvature="0"/></g><g id="g3434" transform="translate(50.5623,47.931)"><path d="M 0,0 C 0.568,-0.044 0.645,-0.446 0.802,-0.602 1.031,-0.825 1.223,-0.89 1.655,-0.862 1.678,-0.869 1.439,-0.996 1.252,-1.043 0.998,-1.106 0.399,-0.979 0.264,-0.624 0.127,-0.211 -0.481,-0.095 -0.666,0.014 L 0,0 z" style="fill:#154281;fill-opacity:1;fill-rule:nonzero;stroke:none" id="path3436" inkscape:connector-curvature="0"/></g><g id="g3438" transform="translate(50.5623,47.931)"><path d="M 0,0 C 0.568,-0.044 0.645,-0.446 0.802,-0.602 1.031,-0.825 1.223,-0.89 1.655,-0.862 1.678,-0.869 1.439,-0.996 1.252,-1.043 0.998,-1.106 0.399,-0.979 0.264,-0.624 0.127,-0.211 -0.481,-0.095 -0.666,0.014 L 0,0 z" style="fill:none;stroke:#154281;stroke-width:0.018;stroke-linecap:butt;stroke-linejoin:miter;stroke-miterlimit:3.86400008;stroke-opacity:1;stroke-dasharray:none" id="path3440" inkscape:connector-curvature="0"/></g><g id="g3442" transform="translate(38.0711,48.7537)"><path d="m 0,0 c -0.045,-0.114 -0.084,-0.249 -0.123,-0.294 -0.265,-0.197 -0.37,-0.512 -0.508,-0.853 -0.447,-0.752 -0.891,-1.223 -0.8,-1.527 0.195,-0.497 1.032,-1.041 1.357,-1.271 0.027,-0.041 0.036,-1.76 -0.466,-2.253 -0.195,-0.163 -0.419,-0.349 -0.723,-0.276 -0.132,0.026 -0.212,0.145 -0.234,0.252 0.027,0.359 0.42,0.567 0.692,0.795 0.341,0.216 0.55,0.548 0.489,0.94 -0.029,0.2 -0.144,0.374 -0.247,0.552 l -1.709,1.2 c -0.301,0.26 -0.436,0.782 -0.231,1.295 -0.044,0.018 -0.085,-0.02 -0.114,-0.043 -0.542,-0.514 -0.735,-1.385 -0.447,-2.032 0.135,-0.405 0.673,-1.208 0.563,-1.667 -0.113,-0.416 0.529,-0.67 0.345,-1.057 -0.098,-0.256 -0.045,-0.655 0.583,-0.878 0.01,-0.012 0.032,-0.022 0.028,-0.039 -0.41,-0.294 -0.956,-0.706 -1.203,-1.107 -0.107,-0.229 -0.33,-1.188 -0.33,-1.188 0.41,-0.365 1.165,-1.134 1.182,-1.352 0.01,-0.012 1.787,-0.06 1.8,-0.047 0.072,0.069 0.151,0.186 0.145,0.285 -0.038,0.392 -0.625,0.582 -0.992,0.7 -0.195,0.071 -0.45,0.194 -0.461,0.407 -0.006,0.159 0.118,0.295 0.282,0.355 0.213,0.073 1.589,0.862 1.875,1.223 0.035,0.046 0.054,0.062 0.054,0.062 l 1.795,-1.145 1.113,-1.143 c 0.224,-0.067 0.969,-0.221 0.969,-0.221 0.298,-0.085 0.327,-0.285 0.336,-0.456 0.029,-0.04 1.634,-0.069 1.651,-0.046 0.427,0.276 0.132,0.628 0.07,0.679 -0.255,0.249 -0.513,0.343 -1.328,0.475 -0.175,0.03 -0.606,0.157 -0.777,0.359 -0.258,0.239 -0.192,0.573 -0.203,0.887 -0.014,0.168 0,0.351 -0.071,0.495 l 0.007,0.005 c -0.07,0.169 -0.263,0.345 -0.44,0.449 l -0.948,0.451 -0.75,0.346 c -0.246,0.115 -0.463,0.304 -0.49,0.563 0.02,0.185 0.185,0.311 0.352,0.406 0.576,0.302 1.137,0.523 1.779,0.68 0.249,0.066 1.74,0.345 1.74,0.345 0.463,0.049 1.066,0.256 1.357,-0.055 0.046,-0.022 0.262,0.114 0.269,0.133 0.02,0.073 0.016,0.218 -0.021,0.288 -0.306,0.46 -0.577,0.522 -1.158,0.575 -0.19,0.014 -0.148,0.002 -0.332,-0.016 -0.029,0.048 0.068,0.283 -0.201,0.512 0.37,0.316 0.618,0.658 0.916,1.01 0.162,0.166 0.382,0.217 0.626,0.195 l 0.184,-0.041 c 0.03,0.013 0.202,0.71 -0.241,0.872 C 6.678,-1.097 6.216,-1.035 5.905,-1.238 5.575,-1.442 5.431,-1.731 5.142,-1.972 4.918,-2.196 4.613,-2.407 4.308,-2.563 4.192,-2.674 4.092,-2.531 3.982,-2.51 3.675,-2.39 3.258,-2.426 2.932,-2.444 2.855,-2.463 1.827,-2.794 0.935,-2.178 l 0.013,0.01 c 0.219,-0.071 0.509,-0.186 0.734,-0.072 0.129,0.102 0.077,0.279 0.029,0.394 0.017,0.051 -0.029,0.158 0.072,0.168 0.18,0.003 0.365,0.084 0.436,0.241 0.066,0.126 0.059,0.269 0.061,0.414 0.058,0.082 0.105,0.176 0.066,0.27 C 2.194,-0.57 1.925,-0.577 1.73,-0.462 1.428,-0.277 0.908,0.034 0.531,0.068 0.434,0.102 0.294,0.043 0.181,0.06 0.133,0.064 0.017,0.032 0,0" style="fill:#fddd04;fill-opacity:1;fill-rule:nonzero;stroke:none" id="path3444" inkscape:connector-curvature="0"/></g><g id="g3446" transform="translate(38.0711,48.7537)"><path d="m 0,0 c -0.045,-0.114 -0.084,-0.249 -0.123,-0.294 -0.265,-0.197 -0.37,-0.512 -0.508,-0.853 -0.447,-0.752 -0.891,-1.223 -0.8,-1.527 0.195,-0.497 1.032,-1.041 1.357,-1.271 0.027,-0.041 0.036,-1.76 -0.466,-2.253 -0.195,-0.163 -0.419,-0.349 -0.723,-0.276 -0.132,0.026 -0.212,0.145 -0.234,0.252 0.027,0.359 0.42,0.567 0.692,0.795 0.341,0.216 0.55,0.548 0.489,0.94 -0.029,0.2 -0.144,0.374 -0.247,0.552 l -1.709,1.2 c -0.301,0.26 -0.436,0.782 -0.231,1.295 -0.044,0.018 -0.085,-0.02 -0.114,-0.043 -0.542,-0.514 -0.735,-1.385 -0.447,-2.032 0.135,-0.405 0.673,-1.208 0.563,-1.667 -0.113,-0.416 0.529,-0.67 0.345,-1.057 -0.098,-0.256 -0.045,-0.655 0.583,-0.878 0.01,-0.012 0.032,-0.022 0.028,-0.039 -0.41,-0.294 -0.956,-0.706 -1.203,-1.107 -0.107,-0.229 -0.33,-1.188 -0.33,-1.188 0.41,-0.365 1.165,-1.134 1.182,-1.352 0.01,-0.012 1.787,-0.06 1.8,-0.047 0.072,0.069 0.151,0.186 0.145,0.285 -0.038,0.392 -0.625,0.582 -0.992,0.7 -0.195,0.071 -0.45,0.194 -0.461,0.407 -0.006,0.159 0.118,0.295 0.282,0.355 0.213,0.073 1.589,0.862 1.875,1.223 0.035,0.046 0.054,0.062 0.054,0.062 l 1.795,-1.145 1.113,-1.143 c 0.224,-0.067 0.969,-0.221 0.969,-0.221 0.298,-0.085 0.327,-0.285 0.336,-0.456 0.029,-0.04 1.634,-0.069 1.651,-0.046 0.427,0.276 0.132,0.628 0.07,0.679 -0.255,0.249 -0.513,0.343 -1.328,0.475 -0.175,0.03 -0.606,0.157 -0.777,0.359 -0.258,0.239 -0.192,0.573 -0.203,0.887 -0.014,0.168 0,0.351 -0.071,0.495 l 0.007,0.005 c -0.07,0.169 -0.263,0.345 -0.44,0.449 l -0.948,0.451 -0.75,0.346 c -0.246,0.115 -0.463,0.304 -0.49,0.563 0.02,0.185 0.185,0.311 0.352,0.406 0.576,0.302 1.137,0.523 1.779,0.68 0.249,0.066 1.74,0.345 1.74,0.345 0.463,0.049 1.066,0.256 1.357,-0.055 0.046,-0.022 0.262,0.114 0.269,0.133 0.02,0.073 0.016,0.218 -0.021,0.288 -0.306,0.46 -0.577,0.522 -1.158,0.575 -0.19,0.014 -0.148,0.002 -0.332,-0.016 -0.029,0.048 0.068,0.283 -0.201,0.512 0.37,0.316 0.618,0.658 0.916,1.01 0.162,0.166 0.382,0.217 0.626,0.195 l 0.184,-0.041 c 0.03,0.013 0.202,0.71 -0.241,0.872 C 6.678,-1.097 6.216,-1.035 5.905,-1.238 5.575,-1.442 5.431,-1.731 5.142,-1.972 4.918,-2.196 4.613,-2.407 4.308,-2.563 4.192,-2.674 4.092,-2.531 3.982,-2.51 3.675,-2.39 3.258,-2.426 2.932,-2.444 2.855,-2.463 1.827,-2.794 0.935,-2.178 l 0.013,0.01 c 0.219,-0.071 0.509,-0.186 0.734,-0.072 0.129,0.102 0.077,0.279 0.029,0.394 0.017,0.051 -0.029,0.158 0.072,0.168 0.18,0.003 0.365,0.084 0.436,0.241 0.066,0.126 0.059,0.269 0.061,0.414 0.058,0.082 0.105,0.176 0.066,0.27 C 2.194,-0.57 1.925,-0.577 1.73,-0.462 1.428,-0.277 0.908,0.034 0.531,0.068 0.434,0.102 0.294,0.043 0.181,0.06 0.133,0.064 0.017,0.032 0,0 z" style="fill:none;stroke:#fddd04;stroke-width:0.018;stroke-linecap:butt;stroke-linejoin:miter;stroke-miterlimit:3.86400008;stroke-opacity:1;stroke-dasharray:none" id="path3448" inkscape:connector-curvature="0"/></g><g id="g3450" transform="translate(38.2429,48.6878)"><path d="m 0,0 c -0.162,-0.171 0.15,-0.261 0.106,-0.391 -0.139,-0.365 -0.078,-0.8 0.196,-1.106 0.054,-0.046 0.113,-0.081 0.187,-0.089 0.12,0.023 0.111,0.145 0.168,0.217 0.044,0.113 0.195,0.224 0.331,0.241 0.204,0.023 0.352,-0.101 0.464,-0.242 0.056,-0.046 0.142,-0.056 0.22,-0.047 0.075,0.01 0.114,0.085 0.151,0.137 0.067,0.105 0.03,0.224 0.026,0.341 0.04,0.049 0.056,0.109 0.102,0.155 0.008,0.025 -0.006,0.045 -0.015,0.065 -0.064,0.046 -0.154,0.047 -0.225,0.08 C 1.318,-0.437 0.934,-0.218 0.426,-0.225 0.289,-0.17 0.225,0.029 0,0" style="fill:#154281;fill-opacity:1;fill-rule:nonzero;stroke:none" id="path3452" inkscape:connector-curvature="0"/></g><g id="g3454" transform="translate(38.2429,48.6878)"><path d="m 0,0 c -0.162,-0.171 0.15,-0.261 0.106,-0.391 -0.139,-0.365 -0.078,-0.8 0.196,-1.106 0.054,-0.046 0.113,-0.081 0.187,-0.089 0.12,0.023 0.111,0.145 0.168,0.217 0.044,0.113 0.195,0.224 0.331,0.241 0.204,0.023 0.352,-0.101 0.464,-0.242 0.056,-0.046 0.142,-0.056 0.22,-0.047 0.075,0.01 0.114,0.085 0.151,0.137 0.067,0.105 0.03,0.224 0.026,0.341 0.04,0.049 0.056,0.109 0.102,0.155 0.008,0.025 -0.006,0.045 -0.015,0.065 -0.064,0.046 -0.154,0.047 -0.225,0.08 C 1.318,-0.437 0.934,-0.218 0.426,-0.225 0.289,-0.17 0.225,0.029 0,0 z" style="fill:none;stroke:#154281;stroke-width:0.018;stroke-linecap:butt;stroke-linejoin:miter;stroke-miterlimit:3.86400008;stroke-opacity:1;stroke-dasharray:none" id="path3456" inkscape:connector-curvature="0"/></g><g id="g3458" transform="translate(38.8785,48.1217)"><path d="M 0,0 C -0.01,-0.03 0.018,-0.062 0.052,-0.067 0.139,-0.086 0.219,-0.135 0.316,-0.122 0.403,-0.078 0.421,0.013 0.452,0.091 0.446,0.121 0.11,0.1 0,0" style="fill:#fddd04;fill-opacity:1;fill-rule:nonzero;stroke:none" id="path3460" inkscape:connector-curvature="0"/></g><g id="g3462" transform="translate(38.8785,48.1217)"><path d="M 0,0 C -0.01,-0.03 0.018,-0.062 0.052,-0.067 0.139,-0.086 0.219,-0.135 0.316,-0.122 0.403,-0.078 0.421,0.013 0.452,0.091 0.446,0.121 0.11,0.1 0,0 z" style="fill:none;stroke:#fddd04;stroke-width:0.018;stroke-linecap:butt;stroke-linejoin:miter;stroke-miterlimit:3.86400008;stroke-opacity:1;stroke-dasharray:none" id="path3464" inkscape:connector-curvature="0"/></g><g id="g3466" transform="translate(37.7739,47.4844)"><path d="m 0,0 c -0.44,-0.737 -0.809,-1.241 -0.809,-1.241 0.193,-0.679 1.294,-1.03 1.388,-1.223 0.083,-0.246 0.344,-0.448 0.596,-0.602 -0.065,0.382 0.006,0.699 0.006,0.699 0.159,-0.691 1.284,-1.226 1.938,-1.219 -0.567,0.214 -0.862,0.884 -0.862,0.884 0.418,-0.526 1.521,-0.585 1.846,-0.519 -0.14,0.005 -0.5,0.171 -0.829,0.386 -0.082,0.067 1.436,-0.381 2.166,-0.007 0.098,0.057 0.201,0.127 0.279,0.207 -0.796,-0.096 -1.546,0.111 -1.546,0.111 0.658,0.125 0.57,0.161 1.273,0.402 -0.348,0.202 -0.75,0.227 -1.104,0.21 -0.189,-0.017 -0.503,0.02 -0.669,0.074 l 10e-4,0.011 C 4.012,-1.721 4.35,-1.615 4.74,-1.632 4.594,-1.551 4.177,-1.501 4,-1.465 3.337,-1.3 3.008,-1.774 2.379,-1.566 2.45,-1.76 2.621,-1.89 2.574,-2.165 2.219,-1.814 1.746,-1.628 1.377,-1.29 1.047,-1.022 0.759,-0.695 0.531,-0.373 0.355,-0.082 0.27,0.243 0.32,0.594 0.281,0.65 0.099,0.166 0,0" style="fill:#154281;fill-opacity:1;fill-rule:nonzero;stroke:none" id="path3468" inkscape:connector-curvature="0"/></g><g id="g3470" transform="translate(37.7739,47.4844)"><path d="m 0,0 c -0.44,-0.737 -0.809,-1.241 -0.809,-1.241 0.193,-0.679 1.294,-1.03 1.388,-1.223 0.083,-0.246 0.344,-0.448 0.596,-0.602 -0.065,0.382 0.006,0.699 0.006,0.699 0.159,-0.691 1.284,-1.226 1.938,-1.219 -0.567,0.214 -0.862,0.884 -0.862,0.884 0.418,-0.526 1.521,-0.585 1.846,-0.519 -0.14,0.005 -0.5,0.171 -0.829,0.386 -0.082,0.067 1.436,-0.381 2.166,-0.007 0.098,0.057 0.201,0.127 0.279,0.207 -0.796,-0.096 -1.546,0.111 -1.546,0.111 0.658,0.125 0.57,0.161 1.273,0.402 -0.348,0.202 -0.75,0.227 -1.104,0.21 -0.189,-0.017 -0.503,0.02 -0.669,0.074 l 10e-4,0.011 C 4.012,-1.721 4.35,-1.615 4.74,-1.632 4.594,-1.551 4.177,-1.501 4,-1.465 3.337,-1.3 3.008,-1.774 2.379,-1.566 2.45,-1.76 2.621,-1.89 2.574,-2.165 2.219,-1.814 1.746,-1.628 1.377,-1.29 1.047,-1.022 0.759,-0.695 0.531,-0.373 0.355,-0.082 0.27,0.243 0.32,0.594 0.281,0.65 0.099,0.166 0,0 z" style="fill:none;stroke:#154281;stroke-width:0.018;stroke-linecap:butt;stroke-linejoin:miter;stroke-miterlimit:3.86400008;stroke-opacity:1;stroke-dasharray:none" id="path3472" inkscape:connector-curvature="0"/></g><g id="g3474" transform="translate(43.2433,46.5452)"><path d="m 0,0 -0.001,-0.011 c 0.159,-0.023 0.305,-0.077 0.419,-0.169 -0.407,-0.026 -0.707,-0.165 -1.057,-0.324 0.037,-0.033 0.618,-0.34 0.725,-0.372 0.319,0.259 0.599,0.533 0.86,0.815 C 0.803,0.013 0.648,0.148 0.6,0.292 0.573,0.383 0.545,0.481 0.574,0.582 0.389,0.385 0.232,0.172 0,0" style="fill:#154281;fill-opacity:1;fill-rule:nonzero;stroke:none" id="path3476" inkscape:connector-curvature="0"/></g><g id="g3478" transform="translate(43.2433,46.5452)"><path d="m 0,0 -0.001,-0.011 c 0.159,-0.023 0.305,-0.077 0.419,-0.169 -0.407,-0.026 -0.707,-0.165 -1.057,-0.324 0.037,-0.033 0.618,-0.34 0.725,-0.372 0.319,0.259 0.599,0.533 0.86,0.815 C 0.803,0.013 0.648,0.148 0.6,0.292 0.573,0.383 0.545,0.481 0.574,0.582 0.389,0.385 0.232,0.172 0,0 z" style="fill:none;stroke:#154281;stroke-width:0.018;stroke-linecap:butt;stroke-linejoin:miter;stroke-miterlimit:3.86400008;stroke-opacity:1;stroke-dasharray:none" id="path3480" inkscape:connector-curvature="0"/></g><g id="g3482" transform="translate(35.271,45.1867)"><path d="M 0,0 0.562,-1.022 C 0.635,-1.231 0.709,-1.467 0.641,-1.694 0.615,-1.848 1.51,-1.986 1.446,-2.124 1.807,-1.832 2.227,-1.505 2.124,-1.023 2.078,-0.422 0.23,0.406 0.094,0.979 0.04,1.163 0.019,1.265 -0.005,1.412 -0.228,0.992 -0.188,0.419 0,0" style="fill:#154281;fill-opacity:1;fill-rule:nonzero;stroke:none" id="path3484" inkscape:connector-curvature="0"/></g><g id="g3486" transform="translate(35.271,45.1867)"><path d="M 0,0 0.562,-1.022 C 0.635,-1.231 0.709,-1.467 0.641,-1.694 0.615,-1.848 1.51,-1.986 1.446,-2.124 1.807,-1.832 2.227,-1.505 2.124,-1.023 2.078,-0.422 0.23,0.406 0.094,0.979 0.04,1.163 0.019,1.265 -0.005,1.412 -0.228,0.992 -0.188,0.419 0,0 z" style="fill:none;stroke:#154281;stroke-width:0.018;stroke-linecap:butt;stroke-linejoin:miter;stroke-miterlimit:3.86400008;stroke-opacity:1;stroke-dasharray:none" id="path3488" inkscape:connector-curvature="0"/></g><g id="g3490" transform="translate(38.3243,43.0632)"><path d="m 0,0 c 0.186,-0.021 0.359,-0.188 0.359,-0.188 -0.375,-0.045 -0.854,-0.393 -1.136,-0.627 0.17,-0.039 0.301,-0.228 0.301,-0.228 -0.471,-0.028 -1.768,-1.203 -2.024,-1.394 -0.163,-0.142 -0.229,-0.872 -0.172,-1.063 0.08,-0.254 0.376,-0.419 0.67,-0.438 l 0.099,-0.005 c -0.072,0.092 -0.131,0.193 -0.087,0.314 0.127,0.339 0.581,0.978 0.94,1.038 0.336,0.069 0.687,0.106 0.989,0.257 0.671,0.432 0.509,1.066 0.941,1.82 C 1.214,0.065 2.077,0.448 2.821,0.695 2.202,0.625 1.484,0.618 0.979,0.943 0.939,0.961 0.261,0.471 0,0" style="fill:#154281;fill-opacity:1;fill-rule:nonzero;stroke:none" id="path3492" inkscape:connector-curvature="0"/></g><g id="g3494" transform="translate(38.3243,43.0632)"><path d="m 0,0 c 0.186,-0.021 0.359,-0.188 0.359,-0.188 -0.375,-0.045 -0.854,-0.393 -1.136,-0.627 0.17,-0.039 0.301,-0.228 0.301,-0.228 -0.471,-0.028 -1.768,-1.203 -2.024,-1.394 -0.163,-0.142 -0.229,-0.872 -0.172,-1.063 0.08,-0.254 0.376,-0.419 0.67,-0.438 l 0.099,-0.005 c -0.072,0.092 -0.131,0.193 -0.087,0.314 0.127,0.339 0.581,0.978 0.94,1.038 0.336,0.069 0.687,0.106 0.989,0.257 0.671,0.432 0.509,1.066 0.941,1.82 C 1.214,0.065 2.077,0.448 2.821,0.695 2.202,0.625 1.484,0.618 0.979,0.943 0.939,0.961 0.261,0.471 0,0 z" style="fill:none;stroke:#154281;stroke-width:0.018;stroke-linecap:butt;stroke-linejoin:miter;stroke-miterlimit:3.86400008;stroke-opacity:1;stroke-dasharray:none" id="path3496" inkscape:connector-curvature="0"/></g><g id="g3498" transform="translate(39.1261,41.5865)"><path d="m 0,0 c -0.012,-0.12 1.134,-0.888 1.363,-1.22 0.068,0.135 0.179,0.272 0.326,0.37 L 1.7,-0.862 c 0.06,-0.327 0.273,-1.025 1.155,-1.707 0.191,-0.042 0.411,-0.009 0.603,0.02 l 0.176,0.04 c -0.149,0.075 -0.3,0.22 -0.376,0.359 -0.321,0.465 0.093,1.157 -0.425,1.555 -0.152,0.111 -0.316,0.201 -0.487,0.28 L 1.223,0.209 C 0.31,0.665 0.412,0.9 0.386,0.982 0.14,0.703 0.053,0.352 0,0" style="fill:#154281;fill-opacity:1;fill-rule:nonzero;stroke:none" id="path3500" inkscape:connector-curvature="0"/></g><g id="g3502" transform="translate(39.1261,41.5865)"><path d="m 0,0 c -0.012,-0.12 1.134,-0.888 1.363,-1.22 0.068,0.135 0.179,0.272 0.326,0.37 L 1.7,-0.862 c 0.06,-0.327 0.273,-1.025 1.155,-1.707 0.191,-0.042 0.411,-0.009 0.603,0.02 l 0.176,0.04 c -0.149,0.075 -0.3,0.22 -0.376,0.359 -0.321,0.465 0.093,1.157 -0.425,1.555 -0.152,0.111 -0.316,0.201 -0.487,0.28 L 1.223,0.209 C 0.31,0.665 0.412,0.9 0.386,0.982 0.14,0.703 0.053,0.352 0,0 z" style="fill:none;stroke:#154281;stroke-width:0.018;stroke-linecap:butt;stroke-linejoin:miter;stroke-miterlimit:3.86400008;stroke-opacity:1;stroke-dasharray:none" id="path3504" inkscape:connector-curvature="0"/></g><g id="g3506" transform="translate(41.6375,47.9312)"><path d="m 0,0 c -0.568,-0.044 -0.645,-0.446 -0.802,-0.602 -0.23,-0.223 -0.422,-0.288 -0.853,-0.26 -0.024,-0.007 0.216,-0.135 0.403,-0.181 0.253,-0.063 0.853,0.064 0.988,0.419 0.137,0.413 0.745,0.529 0.929,0.638 L 0,0 z" style="fill:#fddd04;fill-opacity:1;fill-rule:nonzero;stroke:none" id="path3508" inkscape:connector-curvature="0"/></g><g id="g3510" transform="translate(41.6375,47.9312)"><path d="m 0,0 c -0.568,-0.044 -0.645,-0.446 -0.802,-0.602 -0.23,-0.223 -0.422,-0.288 -0.853,-0.26 -0.024,-0.007 0.216,-0.135 0.403,-0.181 0.253,-0.063 0.853,0.064 0.988,0.419 0.137,0.413 0.745,0.529 0.929,0.638 L 0,0 z" style="fill:none;stroke:#fddd04;stroke-width:0.018;stroke-linecap:butt;stroke-linejoin:miter;stroke-miterlimit:3.86400008;stroke-opacity:1;stroke-dasharray:none" id="path3512" inkscape:connector-curvature="0"/></g><g id="g3514" transform="translate(39.5166,47.2327)"><path d="M 0,0 C -0.078,0.054 -0.159,0.101 -0.255,0.125 -0.324,0.131 -0.348,0.06 -0.398,0.037 -0.479,-0.025 -0.505,-0.108 -0.555,-0.182 l 0.011,-0.048 c 0.17,-0.092 0.39,-0.225 0.6,-0.117 0.045,0.039 0.093,0.04 0.129,0.089" style="fill:#154281;fill-opacity:1;fill-rule:nonzero;stroke:#154281;stroke-width:0.02;stroke-linecap:butt;stroke-linejoin:miter;stroke-miterlimit:3.86400008;stroke-opacity:1;stroke-dasharray:none" id="path3516" inkscape:connector-curvature="0"/></g></g></g></g></svg>