<svg xmlns:dc="http://purl.org/dc/elements/1.1/" xmlns:cc="http://creativecommons.org/ns#" xmlns:rdf="http://www.w3.org/1999/02/22-rdf-syntax-ns#" xmlns:svg="http://www.w3.org/2000/svg" xmlns="http://www.w3.org/2000/svg" xmlns:sodipodi="http://sodipodi.sourceforge.net/DTD/sodipodi-0.dtd" xmlns:inkscape="http://www.inkscape.org/namespaces/inkscape" viewBox="0 0 250.00098 250" height="250" width="250.00098" xml:space="preserve" id="svg2" version="1.1" sodipodi:docname="fc-lugano-seeklogo.com.svg" inkscape:version="0.92.4 (5da689c313, 2019-01-14)"><sodipodi:namedview pagecolor="#ffffff" bordercolor="#666666" borderopacity="1" objecttolerance="10" gridtolerance="10" guidetolerance="10" inkscape:pageopacity="0" inkscape:pageshadow="2" inkscape:window-width="1366" inkscape:window-height="705" id="namedview13" showgrid="false" fit-margin-top="0" fit-margin-left="0" fit-margin-right="0" fit-margin-bottom="0" inkscape:zoom="0.22034842" inkscape:cx="-69.857109" inkscape:cy="642.28446" inkscape:window-x="-8" inkscape:window-y="-8" inkscape:window-maximized="1" inkscape:current-layer="svg2"/><metadata id="metadata8"><rdf:RDF><cc:Work rdf:about=""><dc:format>image/svg+xml</dc:format><dc:type rdf:resource="http://purl.org/dc/dcmitype/StillImage"/><dc:title/></cc:Work></rdf:RDF></metadata><defs id="defs6"/><g transform="matrix(0.44097269,0,0,-0.44097269,-0.0759646,250.21187)" id="g10"><g transform="scale(0.1)" id="g12"><path id="path14" style="fill:#2a2a2b;fill-opacity:1;fill-rule:evenodd;stroke:none" d="m 2836.48,5674.09 c 1561.31,0 2834.55,-1272.96 2834.55,-2834.33 C 5671.03,1278.31 4398.04,4.80469 2836.48,4.80469 1274.69,4.80469 1.72266,1278.03 1.72266,2839.76 1.72266,4401.4 1274.95,5674.09 2836.48,5674.09" inkscape:connector-curvature="0"/><path id="path16" style="fill:#ffffff;fill-opacity:1;fill-rule:evenodd;stroke:none" d="m 2836.48,5637.12 c 1540.9,0 2797.58,-1256.4 2797.58,-2797.36 C 5634.06,1298.72 4377.63,41.7773 2836.48,41.7773 1295.1,41.7773 38.6953,1298.43 38.6953,2839.76 38.6953,4381 1295.36,5637.12 2836.48,5637.12" inkscape:connector-curvature="0"/><path id="path18" style="fill:#2a2a2b;fill-opacity:1;fill-rule:evenodd;stroke:none" d="m 2836.48,5492.59 c 1461.13,0 2653.05,-1191.64 2653.05,-2652.83 0,-1461.28 -1191.69,-2653.459 -2653.05,-2653.459 -1461.62,0 -2653.257,1191.909 -2653.257,2653.459 0,1461.45 1191.877,2652.83 2653.257,2652.83" inkscape:connector-curvature="0"/><path id="path20" style="fill:#ffffff;fill-opacity:1;fill-rule:nonzero;stroke:none" d="M 1514.6,4638.67 C 964.051,4231.35 606.457,3577.61 606.457,2843.07 606.457,1613.09 1609.27,609.641 2839.72,609.641 c 1229.69,0 2233.3,1003.449 2233.3,2233.429 h -425.68 c 0,-995.64 -811.75,-1807.93 -1807.62,-1807.93 -996.19,0 -1807.97,812.08 -1807.97,1807.93 0,473.01 183.52,904.67 482.85,1227.76 v 567.84" inkscape:connector-curvature="0"/><path id="path22" style="fill:#ffffff;fill-opacity:1;fill-rule:nonzero;stroke:none" d="m 4017.39,1581.79 c -912.51,-150.13 -1442.84,158.05 -2330.6,98.1 v 423.79 c 65.63,5.01 129.57,7.57 192.37,8.52 v 2258 c -52.8,-33.19 -103.91,-68.93 -152.41,-107.59 v 512.09 c 222.39,128.08 468.14,219.55 729.95,265.38 v -433.44 c -52.45,-11.23 -103.2,-24.89 -153.91,-40.55 V 2095.42 c 564.3,-50.29 1032.59,-188.73 1714.6,-89.81 v -423.82" inkscape:connector-curvature="0"/><path id="path24" style="fill:#ffffff;fill-opacity:1;fill-rule:nonzero;stroke:none" d="M 3263.53,4597.12 C 3963.26,4427.93 4506.41,3848.87 4623.75,3131.2 h 429.85 c -143.38,1092.93 -1082.61,1941.42 -2213.88,1941.42 -57.89,0 -114.64,-1.88 -171.22,-6.12 v -427.04 c 56.58,5.58 113.33,8.3 171.22,8.3 V 2275.91 h 423.81 v 1404.8 c 211.07,-49.31 509.79,-258.46 790.44,-569.8 v 487.29 c -197.08,277.74 -525.63,457.39 -790.44,534.26 v 464.66" inkscape:connector-curvature="0"/></g></g></svg>