<svg xmlns="http://www.w3.org/2000/svg" xmlns:xlink="http://www.w3.org/1999/xlink" xmlns:a="http://ns.adobe.com/AdobeSVGViewerExtensions/3.0/" version="1.1" width="301" height="301" viewBox="-0.6376953 -0.6376953 301 301" enable-background="new -0.6376953 -0.6376953 301 301" xml:space="preserve">
<defs>
</defs>
<polygon opacity="0" fill-rule="evenodd" clip-rule="evenodd" fill="#FFFFFF" points="0,0 300,0 300,300.0009766 0,300.0009766 0,0   "/>
<path fill-rule="evenodd" clip-rule="evenodd" fill="#121763" d="M160.2822266,288.6884766  c-3.0976563,1.4345703-5.7402344,2.7578125-9.0678711,3.7714844l-1.3037109,0.3974609l-1.2866211-0.4501953  c-3.5629883-1.2470703-7.0791016-2.8330078-10.4833984-4.4619141  c-19.3535156-9.2685547-38.8774414-23.8330078-53.9848633-39.0849609  c-22.2871094-22.5019531-39.0791016-50.1591797-49.4443359-80.0517578  c-3.7441406-10.796875-6.4204102-22.0913086-8.3847656-33.3417969c-2.9868164-17.1030273-4.2211914-34.9638672-4.1923828-52.3261719  c0.0283203-17.1337891,1.3911133-39.9819336,9.1367188-55.5151367l0.7182617-1.4404297l1.5009766-0.5830078  C67.2094727,12.5058594,108.046875,7.4101563,144.1689453,7.1630859c3.8876953-0.0263672,7.7744141-0.0263672,11.6621094,0  c36.1220703,0.2470703,76.9599609,5.3427734,110.6787109,18.4389648l1.5009766,0.5830078l0.71875,1.4404297  c7.7451172,15.5332031,9.1083984,38.3813477,9.1367188,55.5151367c0.0283203,17.3623047-1.2060547,35.2231445-4.1923828,52.3261719  c-1.9648438,11.2504883-4.640625,22.5449219-8.3847656,33.3417969  c-10.3652344,29.8925781-27.1572266,57.5498047-49.4453125,80.0517578  C200.3945313,264.4580078,180.1904297,279.4599609,160.2822266,288.6884766L160.2822266,288.6884766z"/>
<path fill-rule="evenodd" clip-rule="evenodd" fill="#C6C9D3" d="M158.5322266,284.9101563  c18.8193359-8.7236328,38.9755859-23.4541016,54.3535156-38.9804688  c21.8154297-22.0244141,38.2880859-49.1259766,48.46875-78.4853516c3.2558594-9.3896484,6.0693359-20.3969727,8.2167969-32.6938477  c2.8691406-16.4282227,4.1582031-34.5366211,4.1298828-51.6030273c-0.0351563-21.2568359-2.3330078-40.8989258-8.6982422-53.6640625  c-32.2685547-12.5322266-72.8017578-17.9077148-109.2001953-18.15625c-3.8632813-0.0263672-7.7412109-0.0263672-11.6049805,0  c-36.3994141,0.2485352-76.9321289,5.6240234-109.2001953,18.15625  c-6.3652344,12.7651367-8.6635742,32.4072266-8.6992188,53.6640625  c-0.0283203,17.0664063,1.2612305,35.1748047,4.1303711,51.6030273c2.1474609,12.296875,4.9609375,23.3041992,8.2167969,32.6938477  c10.1806641,29.359375,26.6538086,56.4599609,48.46875,78.4853516  c14.9628906,15.1064453,34.4487305,29.4589844,52.824707,38.2597656c0.9941406,0.4755859,5.8588867,2.8164063,10.0610352,4.2871094  C154.0732422,287.2353516,157.6914063,285.2998047,158.5322266,284.9101563L158.5322266,284.9101563z M261.9589844,32.7763672  c-32.4511719-12.28125-71.6533203-17.0493164-106.1845703-17.2851563c-3.8496094-0.0263672-7.6992188-0.0263672-11.5483398,0  c-34.5322266,0.2358398-73.7333984,5.0039063-106.1855469,17.2851563  c-6.4550781,14.1826172-7.5532227,35.2802734-7.578125,50.378418c-0.027832,16.875,1.1655273,34.2553711,4.0683594,50.8793945  c1.8876953,10.8081055,4.4521484,21.6728516,8.0493164,32.046875c9.9570313,28.7148438,26.0820313,55.3007813,47.4931641,76.9179688  c14.4316406,14.5703125,33.1757813,28.5810547,51.6640625,37.4335938c2.7089844,1.2978516,5.5039063,2.5751953,8.3305664,3.6386719  c2.3579102-0.8330078,4.3969727-1.8671875,6.7133789-2.9394531c19.0029297-8.8085938,38.3984375-23.2421875,53.1455078-38.1328125  c21.4111328-21.6171875,37.5361328-48.203125,47.4931641-76.9179688c3.5976563-10.3740234,6.1621094-21.2387695,8.0498047-32.046875  c2.9023438-16.6240234,4.0957031-34.0043945,4.0673828-50.8793945  C269.5126953,68.0566406,268.4140625,46.9589844,261.9589844,32.7763672L261.9589844,32.7763672z"/>
<path fill-rule="evenodd" clip-rule="evenodd" fill="#C6C9D3" d="M149.8115234,131.6000977  c24.4453125,0,44.2695313,19.824707,44.2695313,44.2700195c0,8.7666016-2.5488281,16.9375-6.9472656,23.8144531  c-1.7558594-4.1728516-1.2939453-10.5185547,2.4394531-11.6152344c-4.1044922-0.8076172-4.4941406-1.7392578-5.6445313-3.125  c-1.4804688-1.7792969-1.9960938-4.0292969-2.4882813-6.3759766c-3.4765625,7.2988281-9.8164063,6.4482422-16.3203125,5.4091797  c2.1494141,1.5253906,6.7851563,3.59375,7.6376953,8.1435547c0.4277344,2.2841797-0.6445313,5.5322266-2.7724609,9.0585938  c5.1806641-3.1347656,12.90625-4.8037109,17.0166016-1.2919922c-2.3359375,3.609375-5.1826172,6.8564453-8.4375,9.6396484  c-4.1162109,0.9619141-8.8759766,1.8222656-9.5322266,0.3730469c-0.4433594-0.9794922,0.2929688-4.3007813,0.3056641-7.7421875  c-2.1044922,2.9462891-4.3457031,5.9208984-7.5537109,7.1474609c-3.4160156,1.3066406-7.4296875,1.3251953-10.7836914,0.7890625  c2.152832,1.4960938,5.3549805,3.3974609,5.4526367,5.8691406c0.0351563,0.9052734-1.4365234,2.3818359-3.3701172,4.0556641  c-1.0800781,0.0791016-2.1708984,0.1210938-3.2714844,0.1210938c-17.5649414,0-32.7451172-10.2363281-39.8979492-25.0673828  c2.1728516-3.5605469,4.0234375-6.1728516,5.6000977-7.2265625c2.2871094,1.1025391,4.6635742,2.2998047,7.3857422,4.2480469  c-1.9360352-3.4863281-2.909668-6.8095703-3.6459961-9.0712891c2.9946289-2.9316406,6.1293945-5.6533203,9.5732422-7.9101563  c-3.9379883,0.3623047-7.7631836,0.4990234-11.4750977,0.4111328c-0.3227539-1.8515625-0.0146484-2.4863281-0.2719727-7.4804688  c-1.9272461,5.5058594-5.1708984,8.3613281-7.2128906,9.421875c-1.3500977,0.7001953-2.8725586,1.1298828-4.2211914,1.4189453  c-0.0668945-0.9960938-0.1040039-2.0009766-0.1040039-3.0146484c0-3.1328125,0.3266602-6.1894531,0.9462891-9.1376953  c2.246582-3.2880859,4.4829102-5.1591797,6.9306641-4.6835938c1.6337891,0.3173828,2.6689453,2.4990234,3.6113281,5.5292969  c0.0126953-3.9570313-0.0410156-6.4345703,0.9042969-9.4462891c0.6230469-1.9833984,3.7646484-5.7294922,7.1308594-7.4609375  c-2.2749023,0.4628906-4.2763672,1.1816406-6.6777344,0.7226563c-0.1357422-1.7358398,0.3100586-5.7407227,2.9926758-9.4511719  C129.0712891,135.4887695,138.9873047,131.6000977,149.8115234,131.6000977L149.8115234,131.6000977z M108.8496094,192.6816406  c-1.5800781-3.8447266-2.6376953-7.9599609-3.0766602-12.2587891c2.0385742,0.7822266,3.4926758,1.9003906,4.090332,3.5449219  C110.4248047,185.5117188,109.609375,189.5634766,108.8496094,192.6816406L108.8496094,192.6816406z M123.3671875,193.0244141  c2.1972656,3.9042969,4.921875,8.3613281,5.1967773,10.2451172c-1.6855469,1.2548828-5.8374023,2.4658203-10.0087891,3.6210938  c5.7333984,0.2041016,12.8046875,2.3916016,14.6513672,3.6728516c1.8833008,1.3066406,6.769043,3.71875,7.6137695,6.7392578  c-0.4643555-4.0439453,0.9697266-5.8603516,1.5859375-6.3388672c1.4555664-1.1298828,3.5957031-1.0693359,6.5893555-0.9960938  c-2.3110352-1.3798828-3.8735352-2.2880859-5.2104492-6.2236328c-1.2553711-3.6972656-0.831543-8.8330078-0.6108398-9.9570313  c-3.8540039,3.2714844-5.7509766,5.3535156-9.0493164,5.5361328  C131.7338867,199.4560547,126.5107422,195.5078125,123.3671875,193.0244141L123.3671875,193.0244141z M132.0234375,136.7441406  c4.409668,6.1489258,0.7060547,7.9350586-4.3911133,12.8554688c3.8847656-1.7348633,8.769043-2.8325195,10.6166992-1.5507813  c1.8847656,1.3081055,3.6591797,3.6357422,4.5043945,6.65625c0.7119141-5.1396484,2.046875-8.3037109,3.8554688-9.5419922  c2.519043-1.7231445,7.2094727-1.574707,12.3881836-2.090332c-4.2636719-0.9970703-6.0244141-1.355957-6.9658203-1.8974609  c-0.7314453-0.421875-1.1347656-1.0209961-0.7641602-1.6875c0.7788086-1.3994141,3.737793-3.3144531,5.6069336-4.7607422  C147.6933594,138.3916016,143.0717773,140.9902344,132.0234375,136.7441406L132.0234375,136.7441406z M142.7949219,156.4482422  c-0.4897461,4.5078125-1.2451172,10.1660156-1.7636719,13.3525391l-11.253418,4.9550781  c5.5141602,0.5009766,9.4350586,0.9199219,11.7573242,4.3652344c2.0283203,3.0078125,2.043457,6.8046875,2.184082,12.5976563  c2.3666992-5.4658203,4.4165039-7.9335938,7.8149414-9.1806641c3.5068359-1.2880859,8.2460938-0.5068359,12.6748047,1.203125  c-3.6347656-2.8291016-7.3681641-6.96875-9.2363281-9.6591797l7.8925781-11.0830078l-13.9389648,3.6943359  C147.1552734,164.3642578,145.097168,160.8574219,142.7949219,156.4482422L142.7949219,156.4482422z"/>
<path fill-rule="evenodd" clip-rule="evenodd" fill="#FB0009" d="M38.644043,67.4575195  c64.6547852-22.4672852,151.5795898-24.4262695,222.5307617,0.1967773  c-7.5839844,43.0776367-27.1308594,80.4926758-56.2851563,103.6503906  c-5.5712891-25.3647461-28.1767578-44.3554688-55.2124023-44.3554688c-26.4951172,0-48.7353516,18.2382813-54.8579102,42.8408203  C65.9311523,148.347168,47.0209961,110.5449219,38.644043,67.4575195L38.644043,67.4575195z"/>
<path fill-rule="evenodd" clip-rule="evenodd" fill="#FFFFFF" d="M149.9140625,131.7416992  c14.9736328,0,27.1162109,5.8779297,27.1162109,13.1259766c0,7.2475586-12.1425781,13.1254883-27.1162109,13.1254883  s-27.1166992-5.8779297-27.1166992-13.1254883C122.7973633,137.6196289,134.9404297,131.7416992,149.9140625,131.7416992  L149.9140625,131.7416992z M132.0234375,136.4868164c4.409668,6.2236328,0.7060547,8.03125-4.3911133,13.0112305  c3.8847656-1.7558594,8.769043-2.8671875,10.6166992-1.5693359c1.8847656,1.3232422,3.6591797,3.6787109,4.5043945,6.7363281  c0.7119141-5.2016602,2.046875-8.4038086,3.8554688-9.6572266c2.519043-1.7441406,7.2094727-1.5942383,12.3881836-2.1162109  c-4.2636719-1.0087891-6.0244141-1.3720703-6.9658203-1.9199219c-0.7314453-0.4267578-1.1347656-1.0336914-0.7641602-1.7080078  c0.7788086-1.4160156,3.737793-3.3544922,5.6069336-4.8188477  C147.6933594,138.1538086,143.0717773,140.7841797,132.0234375,136.4868164L132.0234375,136.4868164z"/>
<polygon fill="#FFFFFF" points="113.0366211,78.5385742 90.3725586,78.5385742 90.3725586,86.2270508 111.6894531,86.2270508   111.6894531,98.0693359 90.3725586,98.0693359 90.3725586,116.3842773 72.8652344,116.3842773 72.8652344,66.6967773   113.0366211,66.6967773 113.0366211,78.5385742 "/>
<path fill="#FFFFFF" d="M169.1582031,115.0668945c-5.7021484,1.7089844-11,2.2875977-17.3632813,2.2875977  c-4.3325195,0-9.3701172-0.9150391-13.9350586-2.4282227c-6.109375-2.0258789-11.2768555-5.0869141-14.8603516-10.4921875  c-2.3051758-3.4750977-3.5732422-7.4863281-3.5732422-12.7524414c0-7.1425781,3.9106445-13.3681641,7.6533203-16.8515625  c6.6289063-6.1699219,15.8798828-8.9790039,25.3305664-8.9790039c7.6074219,0,12.4482422,0.8671875,17.875,2.0224609  l-3.6162109,11.7822266c-5.0947266-1.4746094-8.9707031-2.0600586-12.9824219-2.0600586  c-7.1992188,0-15.550293,4.4423828-15.8056641,13.0341797c-0.2963867,9.9707031,7.0888672,14.4140625,16.4892578,14.6064453  c3.8466797,0.0791016,8.6992188-0.5737305,12.0361328-1.7080078L169.1582031,115.0668945L169.1582031,115.0668945z"/>
<path fill="#FFFFFF" d="M226.8251953,116.3842773h-18.2910156l-3.8398438-12.3349609  c-1.0527344-3.3833008-2.6054688-5.8686523-5.9980469-5.8842773l-4.2402344-0.0200195v18.2392578h-17.5068359V67.3911133  c7.8925781-0.6166992,28.7919922-3.171875,39.1630859,1.5561523c4.5283203,2.0644531,8.3662109,5.8266602,8.3662109,11.2773438  c0,3.4775391-1.0478516,6.3681641-3.1367188,8.6704102c-1.9150391,2.1123047-3.1435547,2.9008789-6.4765625,4.2143555  c4.3300781,2.3476563,6.1210938,6.1733398,7.1289063,9.1235352L226.8251953,116.3842773L226.8251953,116.3842773z   M207.1875,82.1445313c0-4.0498047-3.7275391-5.1455078-7.2070313-5.1455078h-5.6142578v10.5727539h5.3525391  C203.2988281,87.5717773,207.1875,86.5654297,207.1875,82.1445313L207.1875,82.1445313z"/>
<polygon fill-rule="evenodd" clip-rule="evenodd" fill="#FFFFFF" points="165.5322266,250.7246094 169.5283203,250.7246094   176.0859375,242.1376953 176.0859375,240.1044922 161.84375,240.1044922 161.84375,244.1591797 165.1103516,244.6162109   165.1103516,242.4589844 172.1113281,242.4589844 165.5322266,250.7246094 "/>
<path fill-rule="evenodd" clip-rule="evenodd" fill="#FFFFFF" d="M135.3134766,248.5058594l2.4018555,2.2382813l0.112793,0.0126953  c0.1225586,0.0146484,0.246582,0.0244141,0.3706055,0.0273438c0.1816406,0.0048828,0.3637695,0.0039063,0.5454102,0.0039063  c2.2739258,0,4.8769531-0.3017578,6.8354492-1.5410156c1.6513672-1.0400391,2.5170898-2.5419922,2.5170898-4.5009766v-1.2851563  c0-0.9501953-0.1860352-2.03125-0.9926758-2.640625c-0.8354492-0.6357422-2.3515625-0.7158203-3.3686523-0.7158203h-5.152832  c-1.0522461,0-2.4008789,0.0957031-3.3286133,0.6289063c-0.7998047,0.4599609-1.1826172,1.1845703-1.1826172,2.1005859v1.3105469  c0,0.9960938,0.3803711,1.8154297,1.2949219,2.2734375c1.0839844,0.5410156,3.0039063,0.5849609,4.2124023,0.5849609  c0.9150391,0,1.8300781-0.0244141,2.7436523-0.0791016c0.5141602-0.0292969,1.027832-0.0683594,1.5405273-0.1181641  l0.5048828-0.0488281l-0.3696289,0.3486328c-0.4233398,0.3984375-0.949707,0.6640625-1.4980469,0.84375  c-1.6040039,0.5283203-3.840332,0.5566406-5.5322266,0.5566406H135.3134766L135.3134766,248.5058594z M144.6674805,244.5253906  c-0.8139648,0.0654297-1.6289063,0.1181641-2.4448242,0.1542969c-0.8344727,0.0380859-1.6699219,0.0605469-2.5053711,0.0605469  c-0.5253906,0-1.5771484-0.0058594-2.0380859-0.2177734c-0.2729492-0.1259766-0.3413086-0.3671875-0.3413086-0.6455078v-0.5449219  c0-0.2597656,0.0512695-0.5214844,0.3017578-0.6552734c0.3730469-0.2011719,1.1743164-0.2177734,1.6049805-0.2177734h3.3798828  c0.4467773,0,1.5229492,0.0224609,1.8730469,0.28125c0.3037109,0.2275391,0.3325195,1.1513672,0.3325195,1.5146484  c0,0.0371094-0.0009766,0.0732422-0.003418,0.109375l-0.0097656,0.1494141L144.6674805,244.5253906L144.6674805,244.5253906z"/>
<polygon fill-rule="evenodd" clip-rule="evenodd" fill="#FFFFFF" points="153.890625,250.5576172 157.1572266,250.5576172   157.1572266,239.9873047 151.2944336,240.6982422 151.2944336,242.6542969 153.890625,242.6542969 153.890625,250.5576172 "/>
<polygon fill-rule="evenodd" clip-rule="evenodd" fill="#FFFFFF" points="126.1293945,250.5576172 129.3959961,250.5576172   129.3959961,239.9873047 123.5332031,240.6982422 123.5332031,242.6542969 126.1293945,242.6542969 126.1293945,250.5576172 "/>
<path fill-rule="evenodd" clip-rule="evenodd" fill="#FFFFFF" d="M51.1420898,36.6518555  c2.4360352-0.5864258,4.847168-1.2954102,7.3076172-1.7597656c0.4736328-0.0893555,0.6728516,0.1235352,0.8544922,0.78125  c0.1103516,0.3969727,0.2617188,1.0585938,0.3041992,1.3969727c0.0449219,0.3510742-0.3037109,0.7602539-0.6279297,0.8354492  c-0.9433594,0.2197266-2.4018555,0.5947266-3.5209961,0.8164063c-0.3725586,0.0737305-0.6298828,0.1738281-0.7280273,0.4287109  c-0.0854492,0.2207031,0.1425781,1.0483398,0.2597656,1.2446289c0.1640625,0.2758789,0.2158203,0.3466797,0.5849609,0.2583008  c1.2426758-0.2993164,2.7006836-0.722168,3.6616211-0.9194336c0.4389648-0.090332,0.8862305,0.0131836,1.0458984,0.5092773  c0.1459961,0.4560547,0.3525391,1.3339844,0.3486328,1.777832c-0.003418,0.355957-0.2670898,0.5395508-0.5737305,0.6503906  c-0.6865234,0.2475586-2.4726563,0.5146484-3.6489258,0.9013672c-0.3203125,0.1054688-0.5424805,0.2836914-0.5214844,0.5668945  c0.0507813,0.6928711,0.3203125,1.4726563,0.5083008,2.1450195c0.3339844,1.1982422,0.6157227,1.703125,0.9560547,3.3647461  c0.1313477,0.6391602,0.0151367,0.7163086-0.7407227,0.9267578c-0.6982422,0.1938477-1.5366211,0.3955078-2.246582,0.5664063  c-0.3374023,0.081543-0.8876953,0.2773438-1.1459961-0.7949219c-0.7978516-4.0180664-1.9038086-8.4902344-3.0097656-12.4990234  C50.0634766,37.4853516,49.8847656,37.003418,51.1420898,36.6518555L51.1420898,36.6518555z"/>
<path fill="#FFFFFF" d="M76.3637695,45.7958984c0.1489258,1.1396484-3.3208008,1.597168-4.0512695,1.5913086  c-2.7592773-0.0239258-3.8769531-0.7265625-4.9316406-1.4389648c-1.3920898-0.9404297-2.4467773-2.644043-2.9057617-4.8085938  c-0.4794922-2.2641602,0.1894531-4.3613281,0.9873047-5.7104492c0.9941406-1.6806641,2.8149414-2.84375,5.2177734-3.5488281  c0.4277344-0.125,2.1767578-0.2641602,2.5546875,0.1025391c0.215332,0.2094727,0.3134766,0.5317383,0.3618164,0.8554688  c0.1035156,0.690918,0.2011719,1.0761719,0.2373047,1.5610352c0.0258789,0.3496094-0.4116211,0.7431641-1.0322266,0.8657227  c-0.3432617,0.0673828-0.7109375,0.0219727-1.0371094,0.0444336c-0.3789063,0.0258789-0.6557617-0.0141602-0.9326172,0.0683594  c-0.609375,0.1826172-1.0629883,0.6484375-1.4882813,1.5029297c-0.5302734,1.0649414-0.5722656,2.6743164-0.3017578,3.6738281  c0.3920898,1.4462891,1.5483398,3.015625,2.9433594,3.2397461c0.6635742,0.105957,1.5795898-0.2514648,2.2358398-0.4311523  c0.8378906-0.2294922,1.4750977,0.0625,1.6362305,0.5512695C76.0957031,44.6362305,76.2646484,45.0400391,76.3637695,45.7958984  L76.3637695,45.7958984z"/>
<path fill="#FFFFFF" d="M89.6513672,42.9482422c-0.0454102-2.7578125,0.003418-2.7128906-0.5053711-6.7290039  c-0.1904297-1.5058594-0.7402344-5.0029297-0.9882813-5.8110352c-0.2998047-0.9780273,0.703125-1.105957,0.7612305-1.1147461  c2.0913086-0.3061523,3.9291992-0.5551758,5.2314453-0.6933594c3.6914063-0.3901367,7.4189453,1.1108398,7.6914063,5.2197266  c0.2099609,3.1708984-2.5087891,4.6831055-3.7294922,5.0493164c0.6064453,0.5039063,1.4736328,1.1166992,2.5654297,1.237793  c0.347168,0.0385742,0.8950195,0.0141602,1.203125-0.0537109c0.7070313-0.1542969,0.828125,0.237793,0.8833008,1.0776367  c0.0576172,0.8774414,0.1479492,1.730957-0.4975586,1.8793945c-0.7587891,0.1733398-1.0078125,0.15625-2.1079102,0.2783203  c-1.1782227,0.1303711-1.9716797-0.0151367-2.859375-0.5283203c-1.0151367-0.5869141-2.3510742-1.3764648-3.1298828-1.9672852  c-0.1679688-0.1279297-0.5053711-0.1416016-0.484375,0.0957031c0.0844727,0.9418945,0.4179688,1.4389648,0.5849609,2.0629883  c0.105957,0.3959961-0.0429688,0.8051758-0.9741211,0.8847656c-0.3735352,0.0327148-2.2641602,0.3349609-2.6821289,0.3203125  C89.6938477,44.1240234,89.6669922,43.8891602,89.6513672,42.9482422L89.6513672,42.9482422z M93.1923828,36.7324219  c0.0136719,0.0600586,0.0483398,0.8662109,0.9853516,0.6811523c1.019043-0.2016602,1.4916992-0.3920898,2.1230469-0.8505859  c0.6323242-0.4594727,1.4804688-1.4321289,1.4311523-2.6064453c-0.0693359-1.6582031-2.2011719-3.0493164-4.5219727-2.293457  c-0.2861328,0.0932617-0.5834961,0.2861328-0.5766602,0.9008789C92.6352539,32.7358398,92.6992188,34.5366211,93.1923828,36.7324219  L93.1923828,36.7324219z"/>
<path fill="#FFFFFF" d="M215.9414063,43.878418c0.7412109-2.6567383,0.7744141-2.5996094,1.4306641-6.5947266  c0.2460938-1.4975586,0.7148438-5.0063477,0.7070313-5.8515625c-0.0087891-1.0229492,0.9892578-0.8603516,1.046875-0.8515625  c2.0927734,0.3012695,3.9257813,0.5859375,5.2128906,0.824707c3.6494141,0.6767578,6.7958984,3.1767578,5.8867188,7.1928711  c-0.7011719,3.0996094-3.7382813,3.7753906-5.0126953,3.7788086c0.4384766,0.6557617,1.0947266,1.4897461,2.1064453,1.9169922  c0.3222656,0.1357422,0.8544922,0.2685547,1.1689453,0.2915039c0.7226563,0.0527344,0.7265625,0.4633789,0.5400391,1.2836914  c-0.1943359,0.8574219-0.3505859,1.7021484-1.0117188,1.659668c-0.7773438-0.0488281-1.0107422-0.1367188-2.0996094-0.3325195  c-1.1669922-0.2109375-1.8867188-0.5756836-2.5908203-1.3208008c-0.8066406-0.8515625-1.8623047-1.9887695-2.4404297-2.7768555  c-0.125-0.1704102-0.4443359-0.2797852-0.4912109-0.0458984c-0.1875,0.9267578-0.0097656,1.4980469-0.0273438,2.144043  c-0.0107422,0.4091797-0.2705078,0.7592773-1.1855469,0.5712891c-0.3671875-0.0756836-2.265625-0.3242188-2.6621094-0.4570313  C215.6474609,45.0170898,215.6884766,44.784668,215.9414063,43.878418L215.9414063,43.878418z M221.1054688,38.9277344  c-0.0048828,0.0615234-0.2001953,0.8447266,0.75,0.9335938c1.0341797,0.0966797,1.5419922,0.0488281,2.2773438-0.2104492  c0.7373047-0.2607422,1.8271484-0.9511719,2.1142578-2.0913086c0.40625-1.609375-1.2421875-3.550293-3.6816406-3.4863281  c-0.3007813,0.0078125-0.6416016,0.1083984-0.8095703,0.6992188  C221.7089844,34.9379883,221.2578125,36.6826172,221.1054688,38.9277344L221.1054688,38.9277344z"/>
<path fill-rule="evenodd" clip-rule="evenodd" fill="#FFFFFF" d="M146.1674805,24.8862305  c2.5361328,0.0795898,6.0561523-0.0493164,8.581543,0.0961914c0.3154297,0.0180664,0.5126953,0.2338867,0.5078125,0.9189453  l-0.0117188,1.4824219c-0.0029297,0.3540039,0.03125,0.6704102-0.3056641,0.6665039  c-0.9804688-0.012207-2.6328125-0.4262695-4.7885742-0.3911133c-0.3842773,0.0063477-0.8457031,0.0405273-1.1030273,0.3378906  c-0.1582031,0.1835938-0.1430664,1.1235352-0.0756836,1.3427734c0.0952148,0.3085938,0.2182617,0.4560547,0.6020508,0.4658203  c1.2939453,0.0327148,3.4960938,0.0366211,4.4892578,0.0375977c0.453125,0.0004883,0.9052734,0.1308594,0.9042969,0.6533203  l-0.0029297,1.8886719c0,0.4487305-0.7099609,0.5600586-1.0361328,0.5175781  c-0.8720703-0.112793-2.8261719-0.3540039-3.9975586-0.3574219c-0.6845703-0.0019531-1.0087891,0.3793945-1.0234375,0.6621094  c-0.0634766,1.2563477,0.0058594,1.5170898,0.0273438,2.7695313c0.0024414,0.1210938,0.0600586,0.7275391,1.3007813,0.8623047  c3.1987305,0.3461914,3.4946289-0.4433594,4.4926758-0.2177734c0.4199219,0.0952148,0.4960938,0.5375977,0.4960938,0.6137695  L155.2304688,39.25c0.0009766,0.4287109-0.3564453,0.6391602-0.5371094,0.6401367  c-0.4296875,0.0019531-3.171875-0.0805664-5.6396484-0.1054688c-1.1210938-0.0117188-1.6845703,0.0478516-2.5703125,0.0302734  c-0.6772461-0.0136719-1.6020508,0.0307617-1.5957031-1.0766602c0.1884766-3.8242188,0.1894531-9.0683594,0.0722656-12.7675781  C144.9047852,25.5810547,144.847168,24.9257813,146.1674805,24.8862305L146.1674805,24.8862305z"/>
<path fill="#FFFFFF" d="M114.9208984,29.2006836c-2.9970703,0.2783203-4.4833984,2.4516602-4.2363281,5.1020508  c0.2470703,2.6499023,2.1386719,4.5043945,5.1054688,4.2285156c2.9663086-0.2753906,4.7558594-2.4384766,4.5053711-5.1264648  C120.0444336,30.7172852,117.9179688,28.921875,114.9208984,29.2006836L114.9208984,29.2006836z M114.6845703,25.9985352  c6.2978516-0.5771484,9.7539063,2.3881836,10.1811523,6.9848633c0.4277344,4.597168-2.5229492,8.1748047-8.7802734,8.7456055  s-9.6577148-2.3310547-10.0917969-6.9926758C105.559082,30.0742188,108.3867188,26.5756836,114.6845703,25.9985352  L114.6845703,25.9985352z"/>
<path fill="#FFFFFF" d="M128.684082,39.6157227c-0.3154297-0.2558594-0.1889648-1.1225586,0.0527344-1.7607422  c0.2416992-0.637207-0.0712891-1.449707,0.7558594-1.6860352c0.5717773-0.1635742,1.3588867,0.1269531,1.8110352,0.3686523  c0.7543945,0.4033203,1.3608398,0.96875,2.5146484,1.0053711c1.1787109,0.0371094,2.0483398-0.4975586,2.0292969-1.5126953  c-0.0214844-1.1450195-1.4355469-2.0224609-2.2607422-2.4580078c-0.769043-0.4047852-1.4453125-0.7749023-2.2421875-1.2519531  c-1.3295898-0.7954102-2.684082-2.3916016-2.5263672-4.1899414c0.090332-1.027832,0.7456055-1.7626953,1.5966797-2.3666992  c1.0478516-0.7436523,2.4970703-0.9111328,4.328125-0.9477539c1.0200195-0.0205078,3.644043,0.2866211,4.1513672,0.9545898  c0.2788086,0.3671875-0.097168,1.0683594-0.2954102,1.5996094c-0.1206055,0.3208008,0.0102539,0.6352539-0.1083984,0.8823242  c-0.1181641,0.2475586-0.3891602,0.4248047-0.890625,0.4584961c-1.1982422,0.0820313-1.9521484-0.9433594-3.0297852-1.0112305  c-0.2397461-0.0151367-1.0385742-0.1103516-1.3046875,0.4326172c-0.0791016,0.1611328-0.0927734,0.3525391-0.050293,0.5405273  c0.1308594,0.5820313,0.6557617,0.7753906,1.0986328,1.0532227c0.480957,0.3037109,1.0366211,0.6904297,1.4931641,0.9716797  c1.6865234,1.0405273,4.3725586,2.4589844,4.3911133,4.9287109c0.0097656,1.2661133-0.2060547,2.7050781-1.9731445,3.9814453  c-0.7255859,0.5239258-2.1992188,0.9384766-4.0092773,0.9106445  C133.3691406,40.5053711,129.7304688,40.4643555,128.684082,39.6157227L128.684082,39.6157227z"/>
<path fill="#FFFFFF" d="M160.1640625,25.565918c0.0576172-0.3691406,0.5166016-0.6308594,0.8046875-0.6181641l3.3544922,0.1542969  c0.6162109,0.0283203,1.0292969,0.8100586,1.3427734,1.3144531c1.1318359,1.8212891,1.7109375,2.7832031,4.0039063,6.1230469  c0.1708984,0.2495117,0.3183594,0.3291016,0.3271484-0.1591797l0.0830078-4.6499023  c0.0058594-0.3710938-0.0927734-0.362793-0.1621094-0.5136719c-0.0898438-0.1933594-0.1474609-0.5273438-0.0712891-0.9614258  c0.0693359-0.4038086,0.3574219-0.8901367,1.1152344-0.8686523l2.5478516,0.0722656  c0.5732422,0.0166016,0.8232422,0.5634766,0.8164063,0.8476563l-0.2900391,12.1694336l0.1386719,0.7421875l0.0019531,0.5541992  c0,0.3525391-0.03125,0.7329102-1.0087891,0.7001953l-2.6367188-0.0878906  c-0.3017578-0.0097656-0.5498047-0.090332-0.7597656-0.4272461c-1.6328125-2.6245117-3.3125-5.0361328-4.9179688-7.5517578  c-0.1054688-0.1650391-0.2636719-0.2763672-0.2685547-0.0532227l-0.1328125,5.2275391  c-0.0214844,0.8017578,0.5126953,1.3896484,0.171875,2.222168c-0.0976563,0.2407227-0.3984375,0.4462891-0.7958984,0.4287109  c-0.7988281-0.0351563-1.8408203-0.0756836-2.6425781-0.1079102c-0.6074219-0.0249023-0.9355469-0.1738281-1.1347656-0.6948242  c-0.2070313-0.5424805,0.2363281-1.1542969,0.2558594-1.8681641l0.2597656-9.5239258  c0.0224609-0.8339844-0.21875-0.9873047-0.3193359-1.1796875C160.078125,26.5380859,160.0712891,26.1669922,160.1640625,25.565918  L160.1640625,25.565918z"/>
<path fill="#FFFFFF" d="M193.9345703,41.640625c0.0097656,0.2260742,0.1689453,0.644043-1.3134766,0.6201172  c-1.7236328-0.0273438-4.0927734-0.1425781-5.2695313-0.3017578c-6.2382813-0.8427734-9.1884766-4.480957-9.2236328-8.4814453  c-0.0449219-5.1704102,4.4970703-7.5522461,10.21875-7.2016602c2.9316406,0.1796875,3.9863281,0.6953125,4.9355469,1.1254883  c0.5751953,0.2612305,0.7646484,1.1660156,0.0107422,1.9130859c-0.3378906,0.3339844-0.3037109,0.7836914-0.7128906,1.034668  c-0.3544922,0.2177734-0.8642578,0.2900391-1.5302734-0.0898438c-1.2802734-0.7299805-2.0986328-0.9833984-3.3583984-1.0307617  c-2.859375-0.1069336-4.9384766,1.5668945-5.0371094,4.2509766c-0.0751953,2.0205078,1.1689453,3.8188477,3.4833984,4.9306641  c0.7197266,0.3457031,2.0957031,0.6977539,2.875,0.6582031c0.4667969-0.0234375,0.7871094,0.0341797,0.7978516-0.2792969  l0.1142578-3.3237305c0.0351563-1.0268555-1.7607422-0.3725586-2.9775391-0.5683594  c-0.203125-0.0327148-0.9707031-0.1435547-0.9414063-0.6640625c0.0341797-0.5874023,0.0888672-1.0625,0.1035156-1.6694336  c0.0195313-0.7861328,1.0712891-0.9238281,1.6123047-0.871582c1.0996094,0.1064453,2.1396484,0.2202148,3.1445313,0.2495117  c0.7324219,0.0209961,1.3212891-0.0058594,2.1738281,0.03125c1.0244141,0.043457,0.9501953,0.4892578,0.9326172,0.7822266  C193.8027344,35.5703125,193.7998047,38.5488281,193.9345703,41.640625L193.9345703,41.640625z"/>
<path fill="#FFFFFF" d="M205.6806641,34.1381836c-0.5830078,1.0400391-1.1953125,2.1474609-1.8564453,3.2480469  c-0.1503906,0.2504883-0.0683594,0.40625,0.2246094,0.4575195c0.7236328,0.1279297,1.8398438,0.3120117,2.3007813,0.3383789  c0.3320313,0.0195313,0.203125-0.2773438,0.1328125-0.6030273  C206.2587891,36.5483398,205.9570313,35.3696289,205.6806641,34.1381836L205.6806641,34.1381836z M205.1748047,28.4760742  l2.3691406,0.3745117c0.4355469,0.0678711,0.7568359,0.2695313,0.8740234,0.690918  c0.2832031,1.0268555,0.5761719,2.5083008,0.9462891,3.8999023c1.0244141,3.8535156,2.0957031,7.7133789,2.7128906,9.0756836  c0.1884766,0.4160156,0.5332031,0.8076172,0.3798828,1.3354492c-0.1669922,0.574707-0.5800781,0.496582-0.7431641,0.4682617  c-0.3964844-0.0698242-0.8447266,0.0273438-1.5439453-0.0664063c-0.4785156-0.0644531-0.859375-0.0644531-1.1777344-0.112793  c-0.4785156-0.0732422-0.9980469-0.1035156-1.2402344-0.5249023c-0.2802734-0.4868164,0.109375-1.4223633-0.1132813-1.9414063  c-0.1435547-0.3369141-0.4472656-0.5004883-0.7998047-0.5927734c-0.8554688-0.2236328-1.4199219-0.1826172-2.0585938-0.2724609  c-0.4970703-0.0708008-1.2080078-0.3588867-1.890625-0.4018555c-0.3808594-0.0239258-0.7431641-0.0136719-1.0537109,0.2021484  c-0.2832031,0.1977539-0.5292969,0.8881836-0.5478516,1.4555664c-0.0107422,0.3276367-0.2275391,0.7143555-0.6953125,0.6972656  c-0.3320313-0.012207-1.2431641-0.1264648-1.9501953-0.237793c-0.8017578-0.1254883-1.4150391-0.1313477-1.7519531-0.3066406  c-0.3710938-0.1933594-0.4736328-0.4086914-0.4306641-0.7109375c0.0673828-0.480957,0.3779297-0.6274414,0.6367188-0.9833984  c1.0361328-1.4272461,2.2636719-3.4384766,3.5703125-5.7070313c1.1162109-1.9379883,2.4931641-4.0180664,3.5087891-5.9228516  C204.3632813,28.5424805,204.7734375,28.4130859,205.1748047,28.4760742L205.1748047,28.4760742z"/>
<path fill-rule="evenodd" clip-rule="evenodd" fill="#FFFFFF" d="M206.9414063,25.0585938  c1.3642578,0.2070313,2.1220703,1.1635742,1.8964844,2.1367188c-0.2255859,0.9726563-0.9960938,1.5932617-2.3613281,1.3857422  c-1.3642578-0.2070313-2.1230469-1.1152344-1.9941406-2.0874023  C204.6103516,25.5205078,205.5761719,24.8510742,206.9414063,25.0585938L206.9414063,25.0585938z M206.7451172,26.5498047  c0.2158203,0.0327148,0.3740234,0.1933594,0.3525391,0.3579102c-0.0224609,0.1645508-0.2148438,0.2714844-0.4316406,0.2387695  s-0.375-0.1933594-0.3525391-0.3579102C206.3349609,26.6240234,206.5283203,26.5170898,206.7451172,26.5498047  L206.7451172,26.5498047z"/>
<path fill="#FFFFFF" d="M239.2265625,47.2421875c1.6972656,0.4638672,3.4638672,0.3525391,4.7910156-0.6225586  c0.6708984-0.4926758,1.2275391-1.456543,1.4833984-2.4067383c0.4052734-1.5058594-0.0273438-2.6782227-0.9453125-3.7612305  c-0.9755859-1.152832-1.9990234-1.6855469-3.2539063-2.0751953c-0.6396484-0.1987305-0.8974609-0.3588867-1.078125,0.3139648  l-2.0322266,7.574707C238.0732422,46.7041016,238.5146484,47.0478516,239.2265625,47.2421875L239.2265625,47.2421875z   M233.4472656,47.5009766c0.9521484-3.5458984,1.9033203-7.0917969,2.8554688-10.6381836  c0.1171875-0.4350586-0.0341797-0.9433594,0.0605469-1.3837891c0.2568359-1.1884766,0.7861328-1.0249023,1.8632813-0.7568359  c2.1113281,0.5249023,3.9296875,0.9887695,5.6582031,1.6889648c1.2998047,0.5263672,2.5791016,1.3066406,3.6308594,2.2851563  c1.8740234,1.7451172,3.0126953,4.1958008,2.28125,6.9204102c-0.5449219,2.0283203-1.9042969,3.6542969-3.6474609,4.4682617  c-1.5380859,0.7182617-3.3935547,0.7900391-5.1044922,0.4970703c-2.3574219-0.4038086-4.1972656-1.1494141-6.4023438-1.6455078  C233.6142578,48.7045898,233.1865234,48.4736328,233.4472656,47.5009766L233.4472656,47.5009766z"/>
</svg>