<svg xmlns:svg="http://www.w3.org/2000/svg" xmlns="http://www.w3.org/2000/svg" version="1.1" width="461.49976" height="461.49951" id="svg3043">
  <defs id="defs3045"/>
  <g transform="translate(-234.96441,-327.32671)" id="layer1">
    <path d="m 695.46416,558.07626 c 0,126.88725 -102.86271,229.74996 -229.74996,229.74996 -126.88724,0 -229.74979,-102.86271 -229.74979,-229.74996 0,-126.88684 102.86255,-229.74955 229.74979,-229.74955 126.88725,0 229.74996,102.86271 229.74996,229.74956 z" id="path12" style="fill:#2c8548;fill-opacity:1;fill-rule:evenodd;stroke:none"/>
    <path d="m 682.5005,558.07626 c 0,119.72774 -97.05856,216.7863 -216.7863,216.7863 -119.72781,0 -216.78613,-97.05856 -216.78613,-216.7863 0,-119.72741 97.05832,-216.78597 216.78613,-216.78597 119.72774,0 216.7863,97.05856 216.7863,216.78598 z" id="path14" style="fill:#ffffff;fill-opacity:1;fill-rule:evenodd;stroke:none"/>
    <path d="m 668.35919,558.07626 c 0,111.91738 -90.72762,202.64498 -202.64499,202.64498 -111.91705,0 -202.64457,-90.7276 -202.64457,-202.64498 0,-111.91696 90.72752,-202.64457 202.64457,-202.64457 111.91737,0 202.64499,90.7276 202.64499,202.64457 z" id="path16" style="fill:#2c8548;fill-opacity:1;fill-rule:evenodd;stroke:none"/>
    <path d="m 483.43831,450.64109 c -39.32101,0 -66.18503,40.55557 -66.18503,80.91988 0,32.90994 22.9858,46.9039 44.02188,46.9039 2.97774,0 5.82015,-0.2606 8.54458,-0.75095 12.94183,11.77879 29.59147,21.12709 29.59147,35.57877 0,3.63663 -2.36731,22.91411 -22.73144,22.91411 -7.63672,0 -27.07989,-2.90475 -28.17076,-34.17835 l -5.27694,-0.36533 -6.53529,40.71364 5.43931,0 c 1.81835,-4.18169 2.74069,-6.35262 7.28624,-6.35262 5.09103,0 15.63006,6.35262 29.26674,6.35262 28.18204,0 42.72293,-14.54122 42.72293,-38.54197 0,-12.72734 -7.99367,-23.09312 -16.17585,-31.09337 -3.5479,-3.39324 -6.85711,-6.15706 -9.88412,-8.56488 3.97597,-3.90299 7.29663,-8.31387 9.945,-12.80674 l -4.87102,-3.9983 c -3.68891,5.22377 -7.23404,9.27589 -10.75685,12.38052 -7.9448,-6.14268 -12.80673,-10.31991 -12.80673,-19.36232 0,-1.9998 0.18737,-19.4638 18.73315,-19.4638 20.72767,0 23.1018,19.99839 24.19275,30.18006 l 4.89132,0.73065 7.28624,-36.55298 -5.45961,0 c -2.18222,4.72717 -7.26919,4.72896 -7.99659,4.72896 -5.45458,0 -16.00042,-5.43931 -26.36442,-5.43931 -24.36389,0 -37.28363,17.43818 -37.28363,35.80202 0,6.93983 2.51256,12.81089 6.33233,18.02279 -6.81902,-1.40967 -19.01729,-7.32334 -19.01729,-32.10817 0,-32.18253 18.9439,-79.27591 44.99609,-79.27591 14.0779,0 21.51368,11.26489 21.51368,28.90141 0,2.0002 -0.16326,4.19038 -0.4871,6.19026 l 5.17546,1.09598 8.26045,-42.56057 -4.85073,0 c -1.61815,2.90921 -2.91425,5.27694 -6.4744,5.27694 -3.88358,0 -12.95562,-5.27694 -26.87182,-5.27694 z m -140.12311,2.92261 0,4.54629 c 10.0326,1.45481 11.81223,1.81284 11.81223,7.63127 0,2.72688 -1.29984,8.73416 -1.62368,10.18856 l -19.91031,81.63024 c -2.75066,11.27293 -6.45605,11.81808 -12.92851,13.09088 l 0,4.54629 47.73604,0 0,-4.54629 c -8.57584,-0.54539 -11.5078,-2.36082 -11.5078,-8.17926 0,-3.81815 1.78856,-9.26834 2.43552,-12.17756 l 8.74754,-36.55298 c 17.96149,0 22.16316,4.7253 22.16316,17.08918 0,1.99988 -0.16422,3.99318 -0.64947,7.26594 l 4.52599,0.91332 11.9746,-49.62356 -4.52599,-0.73065 c -7.12021,15.27269 -9.06968,19.26084 -32.04728,19.26084 l 9.88412,-40.53098 c 1.45603,-5.81843 3.22788,-8.01689 9.53909,-8.01689 29.28833,0 29.28703,15.46185 29.28703,27.82572 l 4.36363,0.91332 6.9615,-34.54368 -86.23741,0 z m 254.71395,61.00958 c -42.23373,0 -68.13345,42.18071 -68.13345,78.54526 0,32.1822 22.01079,49.25822 48.71024,49.25822 12.29804,0 28.322,-3.81668 37.06037,-8.36192 l 4.526,-2.35433 7.77334,-32.92 c 2.91271,-12.54581 4.21067,-14.17021 12.78644,-14.89722 l 0,-4.72895 -46.4371,0 0,4.72895 c 8.89969,0.90894 11.9746,1.26744 11.9746,7.63128 0,6.54584 -8.10067,36.1934 -8.74754,37.46629 -2.26584,4.18161 -9.21801,6.53529 -16.33823,6.53529 -5.33953,0 -26.05998,-1.80813 -26.05998,-32.89971 0,-38.36411 19.5928,-81.46787 45.48319,-81.46787 17.96149,0 23.13736,14.55575 23.13736,32.92 l 4.68836,0.71036 8.24015,-40.16565 -5.0131,0 c -0.80907,1.81835 -2.26818,5.43931 -6.79913,5.43931 -5.50125,0 -9.05174,-5.43931 -26.85152,-5.43931 z M 335.7854,576.65853 c -5.77524,1.57294 -10.76147,2.95144 -23.62446,5.11458 l -0.18266,2.25285 c 1.75015,-0.29494 4.11536,-0.4871 5.86552,-0.4871 0.78764,0 3.67356,-0.0112 3.67356,3.43001 0,0.68811 -0.16983,1.48356 -0.34503,2.17166 l -11.20335,45.11786 c -1.74967,6.98034 -6.47433,7.18793 -10.41181,7.28624 l 0,2.25285 30.18005,0 0,-2.25285 c -5.51279,0 -8.4837,-0.29868 -8.4837,-4.52599 0,-0.98306 0.005,-0.99158 1.05539,-5.31754 l 13.47649,-55.04257 z m 19.5044,0 c -9.62556,0 -16.88622,7.36727 -16.88622,18.08368 0,7.57014 3.58702,11.69955 6.4744,15.14077 l 0,0.4871 c -4.37515,1.67125 -15.74964,6.10834 -15.74964,18.69255 0,3.14587 1.57602,16.01349 17.41391,16.01349 10.23799,0 18.99699,-8.06747 18.99699,-20.35682 0,-8.84813 -5.16726,-15.02937 -7.52979,-17.88071 l 0,-0.48711 c 4.86477,-2.20041 9.23465,-5.02487 11.28454,-9.64056 l 2.27314,0 c 2.97547,-5.99728 5.15639,-7.57039 14.69426,-7.57039 l 11.64986,0 -29.06377,54.65695 8.05748,0 33.34622,-65.77912 -33.34622,0 -7.38772,18.14457 c 0.6467,-1.64675 0.99451,-3.50398 0.99451,-5.64227 0,-10.71642 -10.49682,-13.86213 -15.22195,-13.86213 z m 68.3364,0 c -15.13832,0 -21.85872,15.22374 -21.85872,26.62827 0,9.73295 5.24926,16.41941 13.21265,16.41941 2.36253,0 3.76254,-0.57332 5.33783,-1.35983 -4.72554,11.50292 -14.01571,20.82322 -24.25364,23.9695 l 0.5277,2.4761 c 31.50157,-5.01415 42.09376,-32.0554 42.09376,-46.80242 0,-12.97754 -5.43411,-21.33103 -15.05958,-21.33103 z m 0.79154,3.14587 c 4.46276,0 4.46511,4.61757 4.46511,7.46891 0,0.29486 -0.25452,9.43598 -3.75475,19.4638 -2.80019,8.25874 -2.98902,8.74754 -6.83973,8.74754 -1.31249,0 -5.68286,-0.0904 -5.68286,-6.67736 0,-2.06491 1.65988,-15.4435 4.81014,-22.32552 1.75048,-3.83398 4.02712,-6.67737 7.00209,-6.67737 z m -69.12794,0.0812 c 4.11269,0 7.08328,3.75304 7.08328,10.63507 0,6.29214 -3.31035,10.02173 -6.37293,13.65916 -4.20036,-4.42427 -7.87482,-8.75793 -7.87482,-14.75514 0,-4.12933 2.00126,-9.53909 7.16447,-9.53909 z m -8.13867,32.35171 c 6.65049,8.84822 8.4837,11.41354 8.4837,17.31243 0,6.19384 -3.3252,12.58348 -9.27524,12.58348 -7.17535,0 -8.74755,-7.48668 -8.74755,-11.81223 0,-9.3401 4.46397,-14.24921 9.53909,-18.08368 z m 235.57489,53.27683 -6.67737,6.06848 0.75095,0.81184 c 2.69393,-2.09698 4.03711,-1.35342 5.80464,0.58858 l 8.90991,9.80294 -0.0608,0.0608 -23.36062,-4.01859 -6.55559,5.967 0.75095,0.81184 c 0.40358,-0.36785 0.97672,-0.71019 4.74925,-0.0609 l 13.9636,15.32343 c 1.94444,2.13619 1.29286,3.17055 -0.36532,5.09428 l 0.73065,0.81184 7.04266,-6.43381 -0.73066,-0.81184 c -2.53504,1.8341 -3.74435,1.82315 -5.86552,-0.5074 l -11.79194,-12.9488 0.0812,-0.0609 29.77413,4.95221 0.87272,-0.79154 -17.35302,-19.05792 c -1.41398,-1.55353 -1.89093,-2.4618 0.0812,-4.78984 l -0.75095,-0.81183 z m -232.71317,3.63297 c -2.62476,0.17945 -4.66987,1.75125 -5.70315,2.84143 -1.38508,1.46148 -3.98588,4.18315 -1.23806,11.73105 l 1.09598,2.9632 c 1.0493,2.86369 1.75301,4.97494 -0.26384,7.10358 -0.39163,0.41306 -3.52394,3.40761 -7.18476,-0.0608 -3.87449,-3.67113 -2.24806,-8.93866 0.18266,-12.72555 l -0.87272,-0.83214 -7.44861,7.85453 0.89302,0.83213 c 0.60368,-0.39284 1.28717,-0.80981 1.92811,-0.20296 0.94547,0.89627 1.30316,3.26172 4.20126,6.0076 5.61345,5.31851 11.21253,3.3235 13.86212,0.52769 3.28185,-3.46305 2.69693,-7.48838 2.17167,-9.01139 l -2.27315,-6.57588 c -1.2982,-3.76263 -1.2197,-5.00271 0.40592,-6.71796 1.9571,-2.0653 4.54328,-1.4419 6.12937,0.0609 3.60009,3.41109 1.96424,8.80445 0.40592,11.54838 l 0.85243,0.81184 6.53529,-6.90062 -0.91332,-0.87272 c -0.72464,0.45902 -1.32791,0.80689 -2.02959,0.14207 -0.88474,-0.83798 -1.33474,-3.2484 -3.77504,-5.56109 -2.53601,-2.40264 -4.92002,-3.10278 -6.96151,-2.9632 z m 18.85492,14.69425 -4.91161,7.28624 1.0148,0.66977 c 4.52972,-5.407 8.27887,-3.22616 10.83802,-1.76575 l -12.60377,19.32173 c -2.00856,3.07972 -2.88949,2.61291 -5.60168,1.15687 l -0.60888,0.91332 12.56319,8.17926 0.60887,-0.91332 c -2.4847,-1.88176 -3.2907,-2.5059 -1.25834,-5.62197 l 12.60377,-19.32173 c 2.33241,1.73067 5.84173,4.28934 2.71966,10.61477 l 1.01479,0.66977 4.72895,-7.42831 -21.10777,-13.76065 z m 187.10821,4.66807 -20.82363,12.40081 0.56829,0.95391 c 1.72759,-0.87678 3.29013,-1.7103 4.76954,0.77125 l 10.83803,18.18515 c 1.38986,2.33087 0.33991,3.11462 -1.58308,4.56659 l 0.54799,0.93361 21.12806,-12.58348 -3.22705,-8.66636 -0.9945,0.58858 c 1.10994,7.03303 -2.0037,10.21113 -5.54079,12.31963 -2.34678,1.39888 -3.29613,1.34976 -4.28244,-0.30444 l -5.41902,-9.09257 c 3.57363,-2.13034 6.08115,-2.1077 9.31583,2.33403 l 0.93362,-0.54799 -7.57038,-12.70526 -0.93362,0.54799 c 2.19294,4.90951 1.02316,6.99009 -2.33403,8.9911 l -0.18266,0.10148 -5.19576,-8.72725 c -0.96374,-1.61693 -0.40251,-2.14528 1.58308,-3.32853 4.87257,-2.90483 8.00236,-3.50453 12.01519,1.33953 l 0.89302,-0.52769 -4.50569,-7.55009 z m -35.82232,18.18515 -13.82153,4.91162 0.36532,1.03509 c 1.82542,-0.51015 3.47637,-0.99661 4.44481,1.72516 l 7.10358,19.9509 c 0.89464,2.51556 -0.2399,3.06298 -2.35433,4.14037 l 0.36533,1.03509 22.87351,-8.13867 -1.70486,-9.945 -1.15686,0.40591 c -0.16335,5.30788 -1.14567,9.52277 -7.12388,11.64987 -2.65276,0.94384 -3.63898,0.92428 -4.34333,-1.05539 l -6.9412,-19.4638 c -1.29148,-3.62875 -0.0689,-4.10652 2.65876,-5.21605 l -0.36532,-1.0351 z m -101.03316,2.76025 c -6.60912,0.25735 -11.90223,5.01696 -13.76064,11.77164 -2.0205,7.34299 0.46592,16.0678 10.59448,18.85492 3.52483,0.97008 9.33061,1.28547 11.67016,0.38563 l 1.46131,-5.35813 c 0.95212,-3.46021 1.97325,-3.31821 4.56658,-2.92261 l 0.28414,-1.05539 -13.90271,-3.81564 -0.28414,1.05539 c 2.74904,0.93791 4.01088,1.37883 3.26764,4.07948 l -1.21775,4.42452 c -0.49945,1.81437 -1.48842,2.90921 -5.05369,1.92811 -7.65733,-2.10688 -5.00546,-12.69234 -4.18096,-15.68876 1.99712,-7.25855 5.36925,-13.22548 11.24394,-11.60927 4.61895,1.27125 6.67574,7.16203 7.08328,11.22365 l 1.0148,0.26385 2.71966,-9.86383 -1.09598,-0.30443 c -0.69535,0.94384 -1.30081,1.72158 -2.39492,1.42071 -1.0532,-0.28975 -3.61942,-3.21861 -7.26595,-4.22155 -1.6409,-0.45153 -3.22406,-0.62768 -4.74925,-0.56829 z m 71.25902,4.93191 -14.51159,2.13108 0.16237,1.09598 c 1.88963,-0.14515 3.59879,-0.32149 4.01859,2.53699 l 3.08498,20.9657 c 0.38814,2.64204 -0.84227,2.96694 -3.12557,3.61267 l 0.16237,1.07569 24.03038,-3.5315 0.24355,-10.08707 -1.19746,0.18266 c -1.19356,5.17546 -2.99771,9.10338 -9.27524,10.02619 -2.7855,0.40989 -3.75401,0.21156 -4.05918,-1.86723 l -2.98351,-20.4583 c -0.55975,-3.81141 0.72165,-4.02955 3.61268,-4.58688 l -0.16237,-1.09598 z m -34.58427,0.9945 -10.59447,23.4621 c -1.43379,3.2113 -2.09909,4.66262 -4.38392,4.89132 l -0.0406,1.09598 8.504,0.44651 0.0609,-1.09598 c -1.42226,-0.16374 -3.41734,-0.38854 -3.32853,-2.04989 0.0373,-0.69924 0.78806,-2.45636 2.13107,-5.54079 l 9.45791,0.4871 c 0.51292,1.42981 1.66638,4.74633 1.60338,5.92642 -0.077,1.44247 -0.83643,1.44288 -3.45031,1.52219 l -0.0406,1.09598 13.59827,0.73066 0.0406,-1.09598 -0.16236,-0.0203 c -1.88841,-0.10067 -2.47562,-1.64713 -4.07949,-6.29174 l -8.13866,-23.50272 -1.17717,-0.0609 z m -74.66873,3.26765 c -1.27726,0.0719 -2.48419,0.84643 -3.10528,2.04989 -0.94303,1.82867 -0.35112,3.96647 1.44101,4.89132 1.75495,0.90536 3.90811,0.24372 4.87103,-1.62368 0.92322,-1.78936 0.27326,-4.04676 -1.48161,-4.9522 -0.56017,-0.28886 -1.14458,-0.39799 -1.72515,-0.36533 z m 72.25352,5.84523 3.67356,10.85832 -8.17926,-0.44651 4.5057,-10.41181 z" id="path18" style="fill:#ffffff;fill-opacity:1;fill-rule:evenodd;stroke:none"/>
  </g>
</svg>