<svg xmlns="http://www.w3.org/2000/svg" xmlns:xlink="http://www.w3.org/1999/xlink" version="1.1" id="Layer_1" width="138.682" height="138.697" viewBox="0 0 138.682 138.697" overflow="visible" enable-background="new 0 0 138.682 138.697" xml:space="preserve">
<path d="M16.386,77.549c0.001-33.772,27.377-61.147,61.147-61.148l0,0c33.771,0.001,61.147,27.376,61.148,61.148l0,0 c-0.001,33.771-27.377,61.146-61.148,61.147l0,0C43.763,138.696,16.387,111.32,16.386,77.549L16.386,77.549z"/>
<path fill="#FF1100" d="M35.907,35.922C25.252,46.579,18.665,61.289,18.665,77.549c0.001,16.259,6.587,30.969,17.242,41.625 c10.657,10.655,25.367,17.242,41.626,17.244V18.68C61.274,18.681,46.564,25.268,35.907,35.922z"/>
<path fill="#FFFFFF" d="M136.402,77.549c-0.001-16.261-6.588-30.97-17.243-41.627C108.502,25.268,93.792,18.681,77.533,18.68 v117.738c16.259-0.002,30.969-6.589,41.626-17.244C129.814,108.518,136.401,93.807,136.402,77.549z"/>
<polyline points="2.996,68.734 2.665,74.419 5.409,74.586 5.744,68.901 8.212,69.039 7.878,74.724 13.232,75.03 13.039,78.331  0,77.553 0.527,68.593 2.996,68.734 "/>
<path d="M15.202,56.725c0.499,1.886,0.528,3.467,0.083,5.297c-0.998,4.354-4.381,6.768-8.209,5.879 c-2.387-0.555-4.217-2.384-4.827-4.881c-0.334-1.303-0.307-2.746,0.055-4.326c0.305-1.333,0.664-2.191,1.443-3.328 c0.305-0.499,0.417-0.638,0.748-0.971l2.941,0.693c-1.109,0.915-2.053,2.469-2.413,3.994c-0.639,2.746,0.527,4.992,2.803,5.519 c2.272,0.526,4.327-0.943,4.938-3.605c0.276-1.22,0.193-2.773-0.223-4.077l-0.223-0.722l-0.056-0.139L15.202,56.725"/>
<polyline points="13.733,37.865 11.596,42.053 21.028,46.905 19.503,49.847 10.071,45.021 7.907,49.208 5.744,48.098 11.541,36.755  13.733,37.865 "/>
<polyline points="32.625,31.568 31.709,32.624 22.638,30.071 26.44,38.697 25.523,39.75 11.763,35.424 14.009,32.817 21.5,35.23  18.228,27.964 19.973,25.966 27.575,28.213 24.165,21.141 26.411,18.533 32.625,31.568 "/>
<polyline points="43.804,22.667 36.011,28.351 28.326,17.786 35.981,12.183 37.424,14.151 32.404,17.813 33.956,19.948  38.755,16.454 40.198,18.451 35.398,21.917 37.257,24.468 42.391,20.724 43.804,22.667 "/>
<polyline points="56.199,16.168 53.757,17.294 43.9,13.012 47.25,20.287 44.338,21.605 38.931,9.883 41.62,8.647 51.066,12.684  47.907,5.766 50.792,4.42 56.199,16.168 "/>
<polyline points="65.647,3.158 61.115,4.255 63.559,14.468 60.375,15.237 57.931,5.024 53.375,6.095 52.824,3.761 65.097,0.797  65.647,3.158 "/>
<polyline points="77.564,12.903 68.036,13.535 67.183,0.631 76.549,0 76.713,2.416 70.59,2.827 70.754,5.436 76.604,5.051  76.77,7.468 70.919,7.852 71.139,10.953 77.398,10.541 77.564,12.903 "/>
<path d="M56.848,55.061c0.443,0.304,3.134-2.303,3.939-2.663c0.25-0.111,0.027-0.36-0.138-0.471c-0.14-0.057-0.805,0.11-0.805-0.612 c0-0.443-0.083-0.332-0.25-0.387s-1.22-0.36-1.413-0.693c-0.196-0.306-0.39-2.081-0.363-2.717c0-0.223,0.026-0.306,0.167-0.583 c0.167-0.306,6.519-7.987,7.128-9.458c0.61-1.442,0.165-0.942,0.332-1.387c0.167-0.472,1.249-1.941,1.665-2.246 c0.416-0.278,2.412-1.887,2.524-2.191c0.11-0.277,0.609-2.69-0.417-4.936c0,0,3.327,1.884,3.577,1.774 c0.277-0.14,1.831-2.497,1.887-3.135c0.056-0.61,1.914,2.054,2.275,2.274c0.305,0.195,0.305,0.028,0.553,0 c0.224-0.027,0.918-0.22,1.47-0.499c0.556-0.25,2.386-0.25,3.3,0.721c0.918,0.999,2.721,2.358,3.69,2.857 c0.942,0.471,4.576,0.332,5.907-0.139c0,0-0.082,2.217-1.773,3.217c-0.889,0.526-1.583,0.971-1.803,0.997 c-0.223,0.029,0.137,0.057,0.525,0.306s2.995,1.303,3.912,2.801c0.914,1.5,2.771,5.27,3.992,5.603c0,0-1.359,0.556-2.385,0.333 c-1.053-0.194-2.719-1.248-3.189-1.581c-0.389-0.25-1.305-0.556-1.305-0.556c0.029,0.639,0.223,1.61,0.583,1.859 c1.138,0.86,2.773,0.777,3.828,0.999c0.442,0.083,1.442,0.443,1.524,2.385c0.084,1.914,0.252,3.523,0.806,4.632 c0.554,1.082,0.748,2.469,1.026,2.662c0.249,0.194-1.193,0.223-1.748-0.139c-0.556-0.332-1.746-2.412-2.162-3.051 c-0.391-0.637-2.858-1.053-3.189-0.887c-0.334,0.167-0.057,0.667,0.275,1.083c0.334,0.414,1.469,1.247,1.721,1.663 c0.249,0.389,1.609,1.775,1.664,2.802c0.027,0.998,1.109,2.662,1.607,3.05c0.473,0.389,1.665,1.97,2.248,2.247 c0.58,0.25-1.223,0.888-2.386,0.776c-1.192-0.083-3.718-0.749-4.244-1.414c-0.525-0.666-1.663-2.523-2.025-2.884 c-0.358-0.389-1.47-0.527-1.663-0.472c-0.195,0.056-0.275,0.388-0.166,0.61c0.084,0.223,1.109,0.971,1.58,1.497 c0.471,0.5,2.025,2.523,1.441,3.579c-0.193,0.361-0.663,0.748-0.525,0.971c0.165,0.193,1.385,2.524,0.998,3.8 c-0.388,1.302-0.805,1.636-1.275,1.998c0,0-0.223-1.332-0.584-1.942c-0.359-0.61-0.803-1.442-2.383-1.22 c-1.609,0.249-2.164,0.666-2.857,0.637c-0.722-0.056-1.36,0-1.527-0.056c-0.164-0.056-0.027,0.305,0.278,0.583 c3.024,2.607,7.128,9.457,11.124,10.623c0.442,0.109,1.078,0.25,1.523,0.359c0,0,0.971,0.111,1.607,0.252 c0.639,0.138,2.441,0.832,2.775,1.079c3.078,2.166,4.854,4.216,5.629,9.321c0.113,0.692,0.557,0.275,0.943,0 c0.36-0.305-0.056-1.332,0.029-1.971c0.053-0.609,0.609-3.078,0.637-4.214c0.055-1.084-0.61-2.164-1.193-2.58 c-0.777-0.528-2.967-0.971-4.187-1.83c-1.166-0.833-2.995-2.498-3.191-5.548c0,0,1.693,0.332,2.581,0.637 c1.109,0.391,2.164,0.61,3.41,0.75c1.277,0.109,3.523,0.555,3.995,1c0.499,0.441,0.416-0.363,0.082-1.307 c-1.606-4.574-8.126-10.232-9.236-13.201c-0.193-0.526-0.912-2.968-1.135-5.464c-0.194-2.496,0.747-6.295,1.192-8.32 c0.61-2.967-0.611-6.24-0.97-7.35c0,0,3.216,2.939,3.521,3.662c0,0,0.416-2.275,0-3.717c-0.75-2.663-3.743-4.688-4.244-6.713 c-0.498-2.023,0.029-3.439,0.029-5.324c0-0.277,0.996,0.943,1.053,1.304c0.055,0.387,0-2.33-0.443-3.19c0,0,3.049,0.361,3.799,2.552 c0.75,2.191,0.833,3.883,0.859,4.52c0.029,0.667,1.914,2.442,2.885,3.468c0,0,1.749,1.414,2.166,4.771 c0.413,3.355-0.417,6.934-0.918,9.041c-0.525,2.081-0.443,4.216-0.249,4.605c0.167,0.416,0.138-0.638,0.722-1.525 c0.609-0.917,1.803-4.049,3.133-6.436c1.305-2.413,1.666-4.714,1.416-5.768c-0.443-2.137-3.551-7.35-3.551-7.379 c-0.887-0.748,2.357,0.888,3.771,1.775c1.415,0.888,4.244,3.661,4.633,6.157c0.416,2.497,0.359,4.771-0.166,5.937 c-0.527,1.164-3.744,7.1-3.855,10.011c-0.111,2.884,0.971,5.354,1.773,6.103c0.584,0.526,0.722,0,1.249-0.667 c0.525-0.637,3.993-6.74,3.189-10.234c0,0,2.553,2.884,3.134,4.438c0.583,1.525,0.861,5.546-0.193,7.433 c-0.305,0.555-1.888,2.969-2.164,3.465c-0.275,0.501-0.305,0.61-0.275,1.111c0.053,0.525,0.443,1.886,0.193,2.938 c-0.223,1.056-0.832,2.721-2.081,3.993c-1.249,1.278-1.747,2.443-1.914,3.58c-0.193,1.164-0.305,4.133-0.193,5.047 c0.082,0.915,0.305,2.191-0.138,2.856c-0.445,0.639-2.359,2.747-2.387,3.302c-0.026,0.554,0.221,0.277,0.443,0.305 c0.193,0.056,0.999-0.332,1.387-0.581c0.389-0.251,1.553-1.554,1.747-2.829c0.223-1.278,0-3.496,1.138-4.826 c1.11-1.332,2.356-2.663,2.553-3.522c0.164-0.833,0.442,2.106,0.442,3.633c0,1.525,0.028,3.854,0.251,5.158 c0.221,1.331,0.497,5.325-0.389,6.322c-0.915,1-2.495,1.915-4.16,1.888c-1.664-0.028-2.913-0.223-3.329-0.249 c-0.445,0-0.109,0.665-0.109,1.026c0.026,0.332,0.36,0.971,0.804,1.329c0.443,0.362,0.416,0.639,1.303,0.39 c0.887-0.305,1.274-0.584,1.775-0.807c0.498-0.247,1.524-0.387,2.107,0c0.557,0.391,1.885,1.278,2.274,3.164 c0.417,1.885-0.276,0.249-1.497,0.305c-1.249,0.056-2.387,0.36-3.219,0.777c-0.832,0.442-2.439,2.523-5.379,1.305 c-2.94-1.25-3.551-1.998-3.688-2.914c-0.14-0.916-0.694-4.992-0.694-5.574s-0.138-0.389-0.305-0.555 c-0.193-0.168-1.359-0.387-1.442-0.527c-0.111-0.139-0.223,0.5-0.61,0.917c-0.193,0.22-1.469,2.384-3.3,3.633 c-1.858,1.19-3.386,1.941-4.356,2.688c-0.97,0.777-4.188,1.775-4.159,9.126c0,1.079-0.082,2.883-0.722,3.328 c-0.693,0.442-7.709,4.466-8.819,5.659c-1.108,1.219-2.163,1.496-1.968,2.688c0.167,1.22,0.525,1.663,0.525,1.915 c0,0.223-0.666,1.164-0.832,1.495c-0.193,0.335,0.058,0.501,0.307,0.528c0.248,0.056,1.193-0.111,1.58-0.305 c0.416-0.168,1.164-0.057,1.387,0.387c0.223,0.445,0.666,1.026,0.555,1.498c-0.082,0.499-1.912,5.686-3.855,8.043 c0,0-2.134-1.773-3.717-5.047c-0.331-0.721-0.305-1.553-0.331-1.773c-0.028-0.223-1.526-2.164-2.052-3.246 c-0.557-1.082-0.917-1.832-0.861-2.385c0.029-0.556-0.139-1.942,1.248-3.025c0,0,2.384-2.521,2.829-2.938 c0.442-0.39,6.378-6.407,6.712-6.85c0.25-0.361,0.555-0.668,0.388-1.387c-0.193-0.695-1.246-2.525-1.415-2.666 c-0.303-0.248-0.471-0.108-0.471-0.108s-1.109,2.272-1.441,2.58c-0.361,0.276-1.166,1.997-3.551,1.718 c-0.415-0.055-4.66-1.055-5.574-1.192c-0.889-0.138-9.29-0.665-10.761-0.445c-1.498,0.223-1.026,0.028-1.331,0.223 c-0.333,0.193-0.638,0.527-0.779,0.862c-0.136,0.331,0,0.691,0.114,0.941c0.109,0.277,0.387,0.609,0.554,0.832 c0.138,0.193,1.524,1.665,0.278,2.439c-1.249,0.75-5.827,3.883-8.322,3.521c0,0,0.804-5.489,1.721-7.459 c0,0,0.525-2.273,0.525-2.719c0.029-0.416-0.056-0.691-0.138-1.193c-0.056-0.469-0.111-1.025,0.138-1.246 c0.223-0.223,1.749-1.275,2.137-1.469c0.416-0.223,2.025-0.777,3.743-0.666c1.748,0.082,10.096,1.303,11.4,1.191 c1.304-0.109,1.72-1.191,1.497-2.162c-0.222-1-2.831-6.521-2.441-9.597c0,0-3.772-1.305-5.74-2.886c0,0-2.192-1.609-3.412-3.078 c-1.222-1.443-8.6-10.178-8.987-12.841c-0.082-0.583-0.165-0.442-0.499-0.527c-0.249-0.029-0.999-0.167-1.304-0.194 c-0.332-0.028-4.436-0.36-5.241-0.277c-0.804,0.082-2.135,0.055-2.495,0.721c-0.39,0.666-2.137,6.075-1.222,8.348 c0.915,2.246,0.806,1.278,1.192,1.859c0.417,0.61,0.445,1.082,0.525,1.498c0.114,0.388,0.501,1.774,0.724,1.971 c0.223,0.221,1.858-0.223,2.441-0.807c0.581-0.609,2.688,6.463,0.804,8.598L43.592,93c0,0-0.639,0.029-0.917-0.137 c-0.416-0.279-1.302-1.139-1.192-1.748c0.113-0.581-0.692-0.971-1.136-1.414c-0.445-0.445-3.273-1.248-3.051-4.438 c0.056-0.72,0.999-9.763,0.36-12.507c-0.639-2.747-0.085-0.973-0.36-1.442c-0.25-0.445-0.472-1.915,0.249-2.607 c0.721-0.668,1.053-0.917,1.469-1.249c0.445-0.332,0.944-1.416,3.55-1.304c0,0,7.768,0.056,9.152-1.415c0,0-1.522-1.719-1.885-3.327 c-0.361-1.637-2.606-6.074-3.216-8.626c-0.61-2.551-3.245-1.552-3.661-1.274c-0.445,0.249-6.047,5.491-6.214,5.823 c-0.193,0.333,0.779,1.054,0.806,1.276c0.026,0.25-0.223,0.666-0.111,0.887c0.111,0.221,2.108,1.637,2.386,1.997 c0.305,0.39-5.299,6.935-5.853,7.266c0,0-1.191-6.1-1.442-6.683c-0.056-0.139-1.331-2.192-1.498-2.774 c-0.165-0.61-0.305-2.218-0.054-2.635c0.247-0.415,1.358-2.496,2.522-3.079c1.166-0.61,5.909-4.521,6.63-5.63 c0.721-1.137,0.581-1.055,0.915-1.387c0.361-0.333,0.806-0.499,1.22-0.61c0.39-0.083,0.75-0.194,1.082-0.416 c0.36-0.25,1.219-0.526,1.832-0.361c0.61,0.195,1.498-0.056,1.72-0.083c0.221-0.057,0.941-0.527,1.858-0.057 c0.913,0.5,1.58,2.664,1.912,3.413C51.745,51.15,55.989,54.395,56.848,55.061"/>
<path fill="#FFFFFF" d="M51.994,62.132c0.278-0.527,2.858-5.352,3.383-5.74c0.53-0.389-0.414-0.86-0.61-1.082 c-0.193-0.195-4.215-3.882-4.852-5.27c-0.639-1.387-1.138-2.773-1.331-3.135c-0.167-0.358-0.249-1.274-1.389-1.274 c-1.108,0-1.387,0.333-1.856,0.277c-0.472-0.056-1.082-0.5-2.301,0.333c-0.445,0.306-0.417,0.167-0.752,0.306 c-0.332,0.138-0.664,0.471-0.859,0.914c-0.414,0.916-4.38,5.354-6.435,6.323c-0.387,0.195-0.637,0.251-1.108,0.638 c-0.442,0.362-1.94,1.749-2.052,2.83c-0.141,1.054-0.141,1.248,0.193,1.913c0.334,0.638,0.944,1.997,1.166,2.387 c0.221,0.387,1.247,4.549,1.302,4.852c0.027,0.307,3.495-4.381,3.772-4.658s-0.167-0.444-0.36-0.693 c-0.194-0.249-1.167-1-1.331-1.11c-0.196-0.139-0.861-0.581-0.888-0.997c-0.026-0.445,0.833-0.223,0.833-0.223 s-0.61-0.805-0.777-0.916c-0.167-0.138-0.082-0.11,0.138-0.61c0.389-0.832,3.467-4.521,5.992-6.074 c2.523-1.581,4.604-0.915,5.296,0.887C47.86,53.812,51.662,62.799,51.994,62.132"/>
<path fill="#FFFFFF" d="M75.736,41.998c0.165-0.306-1.027,0.056-1.664,2.023c-0.499,1.526-0.527,2.442-1.472,3.219 c-0.941,0.748-1.497,1.44-2.661,1.468c-1.165,0-2.829-0.222-3.577-0.055c-0.75,0.138-3.245,0.527-4.077,2.635 c-0.111,0.305-0.666,0-1.055-0.138c-0.416-0.139-0.666-0.445,0.278-0.944c0,0,0.636-0.61,0.721-0.832 c0.109-0.194-0.39-0.971-1.026-0.444c-0.668,0.526-0.61,0.582-0.806,0.749c-0.165,0.193-0.332,0.222-0.636,0.111 c-0.334-0.084-0.639-0.057-0.75-0.638c-0.167-1.139-0.167-1.193-0.167-1.582c-0.027-0.388,0.334-0.638,0.666-0.998 c0,0,0.36-0.333,0.776-0.776c1.721-1.803,4.605-6.047,5.408-7.1c0.971-1.333,0.528-1.72,0.833-2.274 c0.305-0.556,0.915-1.139,1.055-1.249c0.138-0.083,0.387-0.831,1.055-1.303c0.663-0.5,1.912-1.415,2.105-1.915 c0.223-0.499,0.724-1.497,0.057-3.189c0,0,1.941,1.053,2.578,0.943c0.64-0.084,1.721-2.081,1.886-2.497c0,0,0.445,1.693,0.946,1.942 c0.496,0.222,1.025,0.084,1.773-0.305c0.777-0.389,1.33-0.721,2.274-0.5c0.97,0.223,2.577,1.942,3.384,2.33 c0,0,2.162,1.636,4.66,1.22c2.521-0.387,2.356-0.443,2.605-0.637c0.223-0.195-0.943,2.663-2.523,2.717 c-1.58,0.084-1.858,0.333-1.858,0.333s2.995,1.333,4.66,3.967c1.079,1.72,3.412,4.188,3.908,4.66c0,0-1.108,0.138-1.885-0.61 c-0.748-0.749-1.442-1.22-2.079-1.526c-0.609-0.277-1.749-0.277-1.998-0.167c-0.248,0.112,0.084,2.33,0.611,2.913 c1.22,1.331,3.051,1.636,3.715,1.969c0.665,0.333,1.359-0.305,1.441,2.774c0.114,3.105,1.056,4.409,1.443,4.687 c0,0-1.026,0.028-1.443-1.053c-0.441-1.109-0.858-1.942-1.744-2.331c-0.861-0.36-2.412-0.583-3.08-0.556 c-0.637,0.029-1.442,0.334-0.804,1.526c0.639,1.193,2.052,2.051,2.524,2.467c0.498,0.39,1.025,0.888,1.081,2.58 c0.056,1.72,0.888,2.94,1.387,3.384c0.499,0.443,1.138,1.304,1.914,1.608c0.774,0.333-1.942,0.333-3.106-0.415 c-1.139-0.777-2.22-1.167-2.58-2.58s-1.996-1.693-2.828-1.803c-0.833-0.11-1.36,0.083-1.167,1.11 c0.196,1.026,0.501,1.83,1.389,2.246c0.859,0.417,1.581,1.831,1.331,2.83c-0.084,0.388-1.025-0.194-1.747-0.443 c-0.75-0.25-1.747-0.25-2.163-0.472c-0.445-0.195-0.971-0.361-1.248-0.667c-0.276-0.304-0.777,0.806-0.555,1.249 c0.223,0.444,0.443,1.387,2.8,1.304c2.358-0.083,3.745,1.083,3.884,2.719c0.167,1.663-0.196,2.106-0.196,2.217 c-0.026,0.111-0.496-0.721-0.609-1.165c-0.109-0.443-0.525-2.079-2.606-1.721c-2.081,0.39-1.773,0.944-2.885,0.891 c-1.081-0.029-2.163,0.026-2.577-1.001c-0.416-1.025-1.083-1.164-1.388-1.192c-0.277-0.056,0.248,0.805,0.333,1.387 c0.083,0.554,1.055,2.524,1.803,3.413c0.748,0.886,5.048,6.987,10.788,10.647c1.831,1.167,1.775,0.473,2.775,0.639 c0.97,0.168,3.215,0.666,6.073,4.135c2.827,3.466,2.8,6.46,2.884,6.988c0,0,0.666,0.331,1.191,0.166 c0.527-0.138,1.639-1.58,1.639-2.551c0.026-0.971,0-1.527,0.082-2.082c0.082-0.554,0.498-2.441,0.471-3.216 c-0.055-0.777-0.082-3.246-3.133-4.325c-3.025-1.056-4.578-2.414-5.353-4.718c0,0,1.829,0.776,3.134,0.944 c1.301,0.138,2.412,0.111,3.688,0.583c1.275,0.47,3.301,1.968,3.661,2.827c0.36,0.888,0.111-1.221,0.028-2.357 c-0.028-0.555-1.608-5.99-4.104-9.152c-2.471-3.161-5.798-6.158-6.659-11.843c-0.886-5.686,1.333-6.323,0.861-10.233 c-0.167-1.471-0.527-1.971-0.639-2.33c0,0,1.888,0.415,2.554,2.163c0,0,1.246-2.578,0.582-5.547 c-1.055-4.854-4.076-4.328-4.578-7.767c-0.359-2.411,0-1.191,0-1.607c0,0,0.943,2.301,1.943,2.8c0,0-0.612-1.11-0.666-1.884 c-0.028-1,0.637-1.471,0.137-2.58c-0.303-0.666-0.303-1.497-0.553-1.942c0,0,2.469,1.749,2.633,3.966 c0.167,2.247-0.082,2.497,0.029,2.886c1.026,3.271,4.16,2.633,5.13,7.432c0.722,3.549,0.39,4.133,0.278,4.576 c-0.223,1.166-1.858,5.048-1.137,8.265c0.693,3.19,1.055,3.19,1.137,2.969c0.276-0.777,0.803-2.717,1.858-4.272 c1.053-1.552,2.661-3.355,3.356-5.574c0.666-2.19,1.607-3.19,0.609-6.546c-0.471-1.525-1.857-3.465-2.359-4.909 c0,0,5.133,4.051,5.244,6.907c0.109,2.857-0.085,5.464-1.442,7.627c-1.36,2.135-3.245,6.435-2.69,9.679 c0.554,3.218,2.579,4.937,2.939,6.546c0.361,1.607,0.25,2.053,0.168,2.663c-0.112,0.583,1.052-0.583,0.996-2.108 c-0.056-1.499,0-1.915,0.445-2.496c0.472-0.583,2.246-2.774,2.911-4.272c0.665-1.497,1.249-3.328,1.167-4.299 c0,0,1.357,2.69,1.691,4.409c0.331,1.749-0.666,4.162-1.832,6.103c-1.138,1.968-1.053,2.162-0.804,3.466 c0.416,2.331-0.583,3.551-2.636,5.66c-1.857,1.911-2.107,4.741-1.969,5.796c0.111,1.08,0.721,5.464-0.305,6.683 c-1.026,1.249-2.636,2.469-2.636,3.745c-0.026,1.275,1.72,0.331,2.468,0.138c0.75-0.193,2.053-0.719,2.609-1.498 c0.554-0.803,0.721-2.135,0.748-2.883c0-0.721-0.027-2.442,2.136-4.438c0,0,0.026,1.746,0.167,3.051 c0.164,1.303,0.498,3.551,0.525,4.908c0.056,1.331-0.332,5.408-3.438,5.27c-3.134-0.111-4.825-0.692-5.435-0.915 c-0.61-0.22,0.721,1.138,0.721,1.886c-0.029,1.387,0.859,3.328,2.135,3.217c2.08-0.139,2.107-0.997,3.051-1.109 c0.971-0.111,2.248,0.417,2.495,1.584c0,0-1.22,0.164-2.272,0.414c-1.721,0.416-3.025,2.357-4.078,2.357 c-1.055,0-4.467-1.525-4.992-3.549c-0.527-1.997-0.75-4.41-0.832-4.91c-0.084-0.473-0.776-1.109-1.33-1.191 c-0.557-0.086-1.111-0.695-1.583-0.668c-0.47,0.029-0.442-0.083-0.416,0.056c0.029,0.167-2.022,3.524-4.216,5.022 c-2.189,1.439-3.688,2.301-4.408,2.715c-0.722,0.417-3.494,2.803-4.021,5.659c0,0-0.388,3.108-0.168,4.659 c0.224,1.555-0.359,1.498-0.721,1.774c-0.332,0.278-6.185,4.134-7.877,5.632c-1.664,1.47-3.049,2.329-2.301,5.379 c0.082,0.361,0.193,0.584-0.111,0.832c-0.305,0.252-0.803,1-0.694,1.443c0.167,0.443,0.694,0.691,1.222,0.639 c0.555-0.029,0.998-0.084,1.525-0.084c0.498,0,0.97,0.389,0.888,1.055c-0.111,0.692-1.524,5.047-2.884,6.406 c0,0-2.164-2.885-2.554-3.662c-0.388-0.747-0.249-1.636-0.249-1.885c0-0.276-0.25-0.416-0.581-0.833 c-0.333-0.414-1.942-2.023-2.247-3.993c-0.334-1.997,0.444-2.303,1.081-2.827c0.665-0.501,2.025-1.61,2.802-2.387 c0.777-0.777,5.992-6.63,6.822-7.794c0.858-1.166,0.778-1.776,0.166-2.94c-0.334-0.61-2.605-4.548-3.244-6.267 c-0.637-1.748-2.387-5.076-2.662-5.854c-0.223-0.776-0.859-2.383-0.666-3.494c0.165-1.109,0.109-2.08,0.165-2.745 c0.058-0.666-0.108-1.387-0.276-1.747c-0.195-0.361-0.665-1.499-1.386-1.082c-0.694,0.416-0.36,0.914-0.056,1.636 c0.305,0.748,0.471,1.331,0.414,1.886c-0.027,0.557-0.332,2.219-0.496,2.413c-0.168,0.167-0.223,0.026-0.557-0.111 c-0.334-0.165-1.109-0.442-1.748-0.61c-0.665-0.164-1.33-0.277-2.301-0.36c-0.999-0.083-4.106-1.413-5.408-2.079 c-1.304-0.666-3.855-2.164-5.464-4.299c-1.636-2.107-7.102-9.043-7.489-10.263c-0.416-1.22,0.251-0.554,0.472-0.499 c0.196,0.057,1.832,0.859,2.33,0.693c1.525-0.443,2.331-1.109,3.328-2.08c0.97-0.943,0.944-1.164,0.472-1.719 c-0.554-0.693-0.944-0.113-1.498,0.332c-0.554,0.416-1.58,1.109-1.914,1.332c-0.305,0.193-1,0.275-1.414,0.166 c0,0-1.331-0.665-2.248-0.917c-0.941-0.249-1.331-0.47-2.967-0.499c-1.636-0.026-5.464-0.026-6.795,0.223 c-1.331,0.223-1.665,0.751-2.137,1.388c-0.443,0.665-1.773,4.741-1.079,8.099c0.416,2.107,0.941,2.217,1.302,2.523 c0.334,0.304,0.666,1.109,0.721,1.471c0.056,0.387,0.555,2.994,1.609,2.773c1.053-0.25,1.803-0.666,1.803-0.666 s1.58,4.437,0.111,6.047l-2.969-1.555c0,0-0.777-0.082-1.249-0.665c-0.249-0.335-0.222-0.692-0.387-0.944 c-0.138-0.247-0.472-0.469-0.888-0.803c-0.387-0.332-2.662-1.414-2.744-3.689c-0.056-1.387,0.109-1.552,0.165-2.217l-0.083,0.609 c0,0,0.361-4.659,0.443-6.491c0.085-1.858-0.109-5.269-0.276-5.991c-0.14-0.721-0.417-1.055-0.445-1.248 c-0.027-0.193-0.221-0.555,0.028-0.887c0.25-0.36,1.275-1.36,1.581-1.636c0.305-0.278,1.22-0.61,1.832-0.694 c0.61-0.109,5.769,0.249,7.46-0.054c2.911-0.501,4.078-1.249,5.13-2.803c0,0-1.053,0.222-1.22,0.277c0,0,0.056-0.637,0.276-1.304 c1.304-4.243,5.631-8.236,8.266-9.763c0.167-0.11,1.387-0.916,1.885-1.526c0.472-0.609,1.36-1.274,2.107-1.468 c0.75-0.196,2.304,0.055,3.717-0.083c1.416-0.139,2.192-0.555,3.163-1.193c0.943-0.639,2.328-1.636,2.579-2.995 C75.098,46.269,74.766,43.855,75.736,41.998 M66.999,40.5c-0.249-0.334,0.75-0.916,1.305-0.833c0.554,0.056,0.915,0.333,1.193,0.388 c0.275,0.084,0.443-0.084,0.637-0.029c0.277,0.057-0.416,1.193-1.22,1.22c-1.137,0.027-1.137-0.137-1.275-0.276 C67.497,40.86,67.166,40.75,66.999,40.5z"/>
<path fill="#FFFFFF" d="M72.85,92.834c0.584,0,3.996,0.723,4.523,1.025c0.498,0.309,0.305,0.555,0.442,0.807 c0.111,0.278,4.021,8.764,4.353,9.652c0.334,0.887,0.309,1.357,0.086,1.83c-0.223,0.472-1.914,2.716-2.19,2.938 c-0.252,0.193-0.917,0.501-1.804,0.193c-0.887-0.302-4.771-1.106-5.437-1.272c-0.665-0.141-1.609-0.197-2.356-0.197 c-0.722,0-8.155-0.082-8.958-0.025c-0.806,0.055-1.527,0.166-1.858,0.469c-0.334,0.308-1.082,1.721-0.973,2.275 c0.113,0.584,0.39,1.248,0.694,1.416c0.305,0.165,0.971,1.191,0.416,1.469c-0.527,0.306-5.159,2.997-5.769,3.162 c-0.61,0.166-0.915,0-0.639-0.916c0.278-0.914,1.498-5.295,1.556-5.518c0.053-0.193,0.525-2.469,0.44-3.023 c-0.083-0.584,0.279-0.971,0.501-1.193c0.194-0.193,0.639-0.804,1.164-1.191c0.528-0.36,1.915-1.223,4.91-0.75 c3.022,0.498,9.4,1.026,10.484,0.943c1.109-0.084,2.357-0.888,2.246-2.274c-0.138-1.388-1.996-5.853-2.163-8.017 C72.378,92.475,72.85,92.834,72.85,92.834"/>
</svg>