<svg xmlns:inkscape="http://www.inkscape.org/namespaces/inkscape" xmlns:sodipodi="http://sodipodi.sourceforge.net/DTD/sodipodi-0.dtd" xmlns="http://www.w3.org/2000/svg" xmlns:svg="http://www.w3.org/2000/svg" xmlns:rdf="http://www.w3.org/1999/02/22-rdf-syntax-ns#" xmlns:cc="http://creativecommons.org/ns#" xmlns:dc="http://purl.org/dc/elements/1.1/" viewBox="0 0 300 300" id="svg2" height="300" width="300" version="1.1" sodipodi:docname="fc-universitatea-cluj.svg" inkscape:version="1.1 (c68e22c387, 2021-05-23)">
  <sodipodi:namedview id="namedview40" pagecolor="#ffffff" bordercolor="#666666" borderopacity="1.0" inkscape:pageshadow="2" inkscape:pageopacity="0.0" inkscape:pagecheckerboard="0" showgrid="false" inkscape:zoom="0.69880032" inkscape:cx="67.258126" inkscape:cy="262.5929" inkscape:window-width="1920" inkscape:window-height="1017" inkscape:window-x="-8" inkscape:window-y="-8" inkscape:window-maximized="1" inkscape:current-layer="svg2"/>
  <metadata id="metadata78">
    <rdf:RDF>
      <cc:Work rdf:about="">
        <dc:format>image/svg+xml</dc:format>
        <dc:type rdf:resource="http://purl.org/dc/dcmitype/StillImage"/>
      </cc:Work>
    </rdf:RDF>
  </metadata>
  <defs id="defs76"/>
  <g id="g4" transform="matrix(0.5291666,0,0,0.5291666,-7.500037,-72.74993)">
    <path id="path6" style="fill:#1b1918;fill-rule:evenodd" d="M 297.6379,137.4802 A 283.4646,283.4646 0 0 1 581.1025,420.9448 283.4646,283.4646 0 1 1 297.6379,137.4802 Z"/>
    <path id="path8" style="fill:#ffffff;fill-rule:evenodd" d="M 297.6379,143.2547 A 277.6901,277.6901 0 0 1 575.328,420.9448 277.6901,277.6901 0 1 1 297.6379,143.2547 Z"/>
    <path id="path10" style="fill:#1b1918;fill-rule:evenodd" d="M 297.6379,212.5489 A 208.3959,208.3959 0 0 1 506.0338,420.9448 208.3959,208.3959 0 1 1 297.6379,212.5489 Z"/>
    <path id="path12" style="fill:#ffffff;fill-rule:evenodd" d="M 297.6379,218.3233 A 202.6214,202.6214 0 0 1 500.2593,420.9448 202.6214,202.6214 0 1 1 297.6379,218.3233 Z"/>
    <path id="path14" style="fill:#1b1918;fill-rule:evenodd" d="M 297.6379,224.0979 A 196.8469,196.8469 0 0 1 494.4848,420.9448 196.8469,196.8469 0 1 1 297.6379,224.0979 Z"/>
    <path id="path16" style="fill:#ffffff;fill-rule:evenodd" d="M 297.6379,238.1217 A 182.8231,182.8231 0 0 1 480.461,420.9448 182.8231,182.8231 0 1 1 297.6379,238.1217 Z"/>
    <path id="path18" style="fill:#1b1918;fill-rule:evenodd" d="m 176.6038,308.315 h 91.6035 v 158.2769 c 0,16.1133 11.6307,27.7803 29.4302,27.7803 17.7995,0 29.4302,-11.596 29.4302,-27.7803 V 308.315 h 91.6003 v 160.557 c 0,44.4983 -28.2588,82.686 -67.5989,97.2584 -30.4309,11.2718 -84.5249,10.5154 -113.8256,-2.8749 -35.6708,-16.3023 -60.6397,-52.5513 -60.6397,-94.3835 z"/>
    <g id="g20">
      <path id="path22" style="fill:#1b1918;fill-rule:evenodd" d="m 57.0029,426.7881 h 10.0015 c 2.4418,-0.1171 3.826,-0.3019 4.137,-0.5626 0.3102,-0.2681 0.537,-1.4345 0.688,-3.515 l 0.0247,-0.4702 h 2.2826 v 16.0771 h -2.2826 l -0.0247,-0.4702 c -0.118,-1.6532 -0.3943,-2.6431 -0.8472,-2.9706 -0.4537,-0.3267 -1.7794,-0.495 -3.9778,-0.495 H 44.8616 c -2.1985,0 -3.5159,0.1592 -3.9605,0.4785 -0.4364,0.3184 -0.7218,1.3174 -0.8563,2.9871 l -0.0247,0.4702 H 37.754 v -26.6832 h 6.8048 v 3.642 l -0.4446,0.0248 c -0.7631,0.0503 -1.3083,0.0759 -1.6193,0.0759 -0.9982,0 -1.6359,0.2095 -1.9131,0.6377 -0.2763,0.4273 -0.419,1.4098 -0.419,2.945 v 7.8285 h 14.7258 v -5.1937 c 0,-1.9468 -0.0503,-3.0712 -0.1518,-3.3567 -0.0915,-0.2854 -0.4694,-0.4281 -1.1235,-0.4281 -0.1015,0 -0.4867,-0.0165 -1.1582,-0.0503 l -0.4702,-0.0503 v -2.5837 h 7.8962 v 2.5837 l -0.4446,0.0503 c -0.5041,0.0338 -0.8308,0.0503 -0.9825,0.0503 -0.6377,0 -1.0403,0.2104 -1.2077,0.6377 -0.1593,0.4281 -0.2434,1.4684 -0.2434,3.1215 z"/>
      <path id="path24" style="fill:#1b1918;fill-rule:evenodd" d="m 74.9534,402.9724 -7.8566,-0.688 0.6871,-7.8566 7.8567,0.6872 z"/>
      <path id="path26" style="fill:#1b1918;fill-rule:evenodd" d="m 82.513,354.9978 c 0.6567,3.9827 0.4991,8.0975 -0.4768,12.3244 -1.3801,5.9766 -4.0891,10.2506 -8.1313,12.8392 -4.0488,2.5788 -9.0041,3.1917 -14.8817,1.8347 -5.9032,-1.3628 -10.1063,-4.0471 -12.5909,-8.0563 -2.4946,-4.0025 -3.0506,-8.9802 -1.6804,-14.9147 0.8348,-3.614 2.2331,-7.3221 4.203,-11.1209 l 7.3097,1.6878 -0.8249,3.5728 -0.4579,-0.1056 c -2.1176,-0.4892 -3.5538,-0.4595 -4.2847,0.0949 -1.7092,1.2852 -2.9021,3.3954 -3.576,6.3131 -0.8043,3.4837 -0.0273,6.4964 2.3395,9.0405 2.3642,2.5523 6.1185,4.4183 11.2528,5.6037 5.2573,1.2135 9.4438,1.06 12.5761,-0.4636 3.1265,-1.5261 5.1781,-4.4109 6.1598,-8.6626 0.6772,-2.9351 0.584,-6.5219 -0.2879,-10.762 z"/>
      <path id="path28" style="fill:#1b1918;fill-rule:evenodd" d="m 86.8126,347.024 -7.3633,-2.827 2.8262,-7.3634 7.3633,2.8271 z"/>
      <path id="path30" style="fill:#1b1918;fill-rule:evenodd" d="m 69.3835,295.7868 8.4225,-12.9696 1.9006,1.2341 -0.2219,0.3869 c -0.7969,1.4733 -1.1013,2.4665 -0.909,2.9714 0.1996,0.5098 1.2176,1.3603 3.0613,2.5581 l 13.1873,8.5636 c 3.6742,2.3857 6.611,3.5629 8.8243,3.5299 2.2124,-0.0347 4.1131,-1.2811 5.7126,-3.7444 1.7043,-2.6241 2.1267,-5.0618 1.2778,-7.3138 -0.8595,-2.2496 -3.0827,-4.5429 -6.686,-6.8824 l -13.0248,-8.4588 c -1.8446,-1.1978 -3.0358,-1.7819 -3.5827,-1.7563 -0.5395,0.0297 -1.3273,0.7193 -2.3585,2.0598 l -0.2631,0.3597 -1.8999,-1.2341 6.2283,-9.5923 1.9006,1.2341 -0.2219,0.3877 c -0.787,1.4585 -1.0823,2.4377 -0.8851,2.936 0.2037,0.5023 1.2217,1.3537 3.0654,2.5506 l 12.5332,8.1388 c 4.3836,2.8477 7.0077,5.862 7.8681,9.052 0.8786,3.1916 0.0396,6.7487 -2.4962,10.6548 -5.3431,8.2262 -12.1405,9.6648 -20.3873,4.3086 l -12.8013,-8.3128 c -1.8437,-1.197 -3.0465,-1.7778 -3.6115,-1.7555 -0.5585,0.0281 -1.3298,0.7078 -2.3148,2.0392 l -0.2978,0.3671 z"/>
      <path id="path32" style="fill:#1b1918;fill-rule:evenodd" d="m 141.8231,260.6299 -33.7809,-4.6501 14.2985,13.8076 c 1.5814,1.5278 2.6521,2.3272 3.2057,2.4072 0.5527,0.0792 1.4452,-0.4471 2.6901,-1.5666 l 0.3266,-0.3027 1.6425,1.5855 -7.9804,8.2633 -1.6416,-1.5855 0.3085,-0.3555 c 1.0642,-1.2712 1.5525,-2.1754 1.4535,-2.7248 -0.0981,-0.5502 -0.9354,-1.5921 -2.5168,-3.1199 L 103.901,257.0068 c -1.5814,-1.527 -2.6406,-2.3271 -3.1817,-2.4072 -0.5354,-0.0734 -1.4346,0.4463 -2.691,1.5542 l -0.344,0.3209 -1.63,-1.574 6.347,-6.573 33.634,4.6947 -14.6375,-14.1344 c -1.5814,-1.5269 -2.6398,-2.3279 -3.1801,-2.4079 -0.5362,-0.0735 -1.4404,0.452 -2.7091,1.5723 l -0.344,0.3209 -1.6309,-1.574 7.9631,-8.2452 1.63,1.574 -0.2912,0.3374 c -1.0518,1.2828 -1.5343,2.1927 -1.4477,2.7313 0.0924,0.5445 0.9239,1.5806 2.5053,3.1075 l 21.4333,20.6975 z"/>
      <path id="path34" style="fill:#1b1918;fill-rule:evenodd" d="m 163.9295,240.721 -11.8757,9.9066 -1.4626,-1.753 0.3457,-0.32 c 1.1937,-1.15 1.7769,-1.9964 1.7381,-2.5532 -0.0396,-0.5585 -0.7598,-1.6837 -2.1679,-3.3715 l -14.1839,-17.0043 c -1.4081,-1.6886 -2.3741,-2.5977 -2.9037,-2.7346 -0.5247,-0.1312 -1.4742,0.2895 -2.8427,1.2563 l -0.377,0.2822 -1.4511,-1.7406 11.8757,-9.9058 1.4511,1.7398 -0.3259,0.3044 c -1.2093,1.1838 -1.8,2.0475 -1.7653,2.587 0.0404,0.5452 0.7622,1.6597 2.1704,3.3475 l 14.1838,17.0035 c 1.4074,1.6878 2.3857,2.5985 2.9285,2.7379 0.5412,0.1378 1.4841,-0.2895 2.8427,-1.2687 l 0.3572,-0.2656 z"/>
      <path id="path36" style="fill:#1b1918;fill-rule:evenodd" d="m 182.7214,229.7907 -26.3218,-18.9833 c -2.3552,-1.6829 -3.6809,-2.5614 -3.9572,-2.6307 -0.2838,-0.0652 -1.0997,0.2368 -2.4492,0.9049 l -0.4166,0.2203 -1.1615,-1.9452 13.5412,-8.0901 1.1623,1.946 -0.3902,0.2615 c -0.5386,0.3424 -1.0773,0.6831 -1.6094,1.0205 -0.5313,0.3374 -0.6327,0.7878 -0.297,1.3512 0.2541,0.424 1.2457,1.2688 2.9821,2.5383 l 16.827,12.2808 -3.0622,-20.474 c -0.0759,-0.4545 -0.2128,-1.1739 -0.4149,-2.1662 -0.2071,-1.0007 -0.3646,-1.5913 -0.4851,-1.7926 -0.3093,-0.5189 -0.9041,-0.5156 -1.7752,0.005 l -1.216,0.6971 -0.3943,0.2071 -1.1623,-1.9461 8.8383,-5.2803 1.1623,1.946 -0.3687,0.2491 c -0.3721,0.2615 -0.6616,0.4636 -0.8695,0.6072 -0.6814,0.4454 -1.0567,0.9148 -1.1128,1.4089 -0.0652,0.4966 0.0734,1.9881 0.3992,4.4819 l 4.6625,31.9215 -2.111,1.2613 z"/>
      <path id="path38" style="fill:#1b1918;fill-rule:evenodd" d="m 227.3799,207.544 -25.7725,10.3067 -0.848,-2.1201 0.4273,-0.1972 c 1.4915,-0.7243 2.3073,-1.3471 2.4434,-1.8899 0.1353,-0.5428 -0.2013,-1.8363 -1.0171,-3.8772 l -8.2213,-20.5597 c -0.8158,-2.0417 -1.4535,-3.2057 -1.9146,-3.4993 -0.4579,-0.2879 -1.4915,-0.1815 -3.0919,0.3134 l -0.4454,0.151 -0.8415,-2.1036 24.7908,-9.9132 2.4179,6.0459 -3.3814,1.3521 -0.2211,-0.4174 c -0.3555,-0.7532 -0.5617,-1.2028 -0.6145,-1.3356 -0.3432,-0.8571 -0.7565,-1.3248 -1.2581,-1.4032 -0.5023,-0.0808 -1.4634,0.1592 -2.8724,0.7235 l -7.2536,2.9013 5.1303,12.8309 4.6897,-1.875 c 1.8082,-0.7235 2.8336,-1.1871 3.0605,-1.3867 0.231,-0.1923 0.0957,-0.9603 -0.4026,-2.2975 l -0.1278,-0.4537 2.3997,-0.9602 2.9318,7.3311 -2.3997,0.9594 -0.212,-0.3934 c -0.5107,-1.1879 -0.9916,-1.7819 -1.4519,-1.7786 -0.457,0.0116 -1.4536,0.3184 -2.9887,0.933 l -4.8539,1.9402 4.0495,10.1285 c 1.0106,2.5243 1.8454,3.7543 2.5062,3.6883 0.49,-0.0602 1.7233,-0.4809 3.7023,-1.2721 l 2.8278,-1.1309 c 2.2826,-0.9124 3.5159,-1.5328 3.7097,-1.8627 0.198,-0.3415 -0.0305,-1.4791 -0.6665,-3.4301 l -0.151,-0.4454 3.3814,-1.3521 z"/>
      <path id="path40" style="fill:#1b1918;fill-rule:evenodd" d="m 239.96,187.7712 1.9799,8.576 c 0.4908,2.1267 0.9297,3.3938 1.3133,3.7881 0.3852,0.4009 1.2489,0.4859 2.5927,0.2623 l 0.4389,-0.0759 0.5131,2.224 -14.1764,3.2734 -0.5131,-2.2241 0.4512,-0.1303 c 1.5847,-0.4867 2.4872,-0.9784 2.7041,-1.4931 0.217,-0.5164 0.0817,-1.8454 -0.4124,-3.9877 l -4.981,-21.5753 c -0.4949,-2.1423 -0.9462,-3.3896 -1.357,-3.7509 -0.4083,-0.3539 -1.4461,-0.4075 -3.1034,-0.1625 l -0.4628,0.0816 -0.5098,-2.2083 10.3257,-2.384 4.354,-1.1335 2.1638,-0.5511 c 7.3163,-1.6894 11.662,0.4595 13.0438,6.4436 0.5642,2.4442 0.4776,4.6435 -0.2681,6.5978 -0.7367,1.9534 -2.144,3.6552 -4.2039,5.1046 l 9.1345,8.0439 c 2.2405,1.9106 3.6255,2.9863 4.1642,3.2321 0.5304,0.2483 1.4791,0.2524 2.8386,0.0248 l 0.4644,-0.0817 0.5131,2.224 -10.5624,2.4393 -13.4034,-13.2591 z m -0.5477,-2.3708 1.3158,-0.3036 c 2.5102,-0.5791 4.3259,-1.7827 5.456,-3.6016 1.1195,-1.8256 1.3876,-4.024 0.7945,-6.5912 -1.0626,-4.6023 -3.8582,-6.3767 -8.3954,-5.3291 l -2.6818,0.6187 z"/>
      <path id="path42" style="fill:#1b1918;fill-rule:evenodd" d="m 272.2585,197.3858 -0.5296,-7.5745 3.633,-0.2541 0.066,0.5841 c 0.2673,2.1349 0.773,3.4704 1.5336,4.0058 1.5748,1.1087 3.3822,1.5888 5.4247,1.4461 1.9262,-0.1353 3.4499,-0.8381 4.5718,-2.1201 1.1128,-1.272 1.6061,-2.879 1.4716,-4.8052 -0.1064,-1.5228 -0.5436,-2.7206 -1.3116,-3.6082 -0.768,-0.8637 -2.1935,-1.7819 -4.2814,-2.7545 l -2.5193,-1.1532 c -6.3033,-2.9236 -9.5882,-6.361 -9.8637,-10.3034 -0.2161,-3.0885 0.7078,-5.6433 2.761,-7.6702 2.0624,-2.0202 4.9092,-3.1619 8.5339,-3.4152 2.846,-0.1988 6.1392,0.1089 9.8728,0.933 l 0.5106,7.3072 -3.6577,0.2558 -0.0553,-0.4414 c -0.2945,-2.276 -0.7284,-3.6759 -1.3034,-4.1906 -1.2885,-1.1129 -2.8534,-1.6004 -4.6782,-1.4725 -1.5566,0.1089 -2.8319,0.7614 -3.8334,1.9592 -1.0015,1.1879 -1.4403,2.6068 -1.3265,4.2385 0.0875,1.2481 0.5115,2.2694 1.2836,3.0819 0.7705,0.8035 2.1976,1.7134 4.269,2.7124 l 2.5523,1.2514 c 3.7263,1.8082 6.3075,3.4705 7.742,4.9851 1.4189,1.5236 2.2092,3.4449 2.3709,5.7637 0.2326,3.3229 -0.8208,6.055 -3.1603,8.2122 -2.3395,2.1481 -5.6013,3.369 -9.7788,3.6619 -2.9623,0.207 -6.3923,-0.008 -10.2976,-0.6352 z"/>
      <path id="path44" style="fill:#1b1918;fill-rule:evenodd" d="M 317.3459,196.169 H 301.881 v -2.2826 l 0.4702,-0.0247 c 1.6531,-0.118 2.643,-0.3943 2.9705,-0.8472 0.3267,-0.4537 0.495,-1.7794 0.495,-3.9778 v -22.1428 c 0,-2.1984 -0.1592,-3.5159 -0.4785,-3.9605 -0.3184,-0.4364 -1.3174,-0.7218 -2.987,-0.8563 l -0.4702,-0.0247 v -2.2661 h 15.4649 v 2.2661 l -0.4454,0.0247 c -1.6862,0.1345 -2.6934,0.4199 -3.0119,0.8563 -0.3192,0.4446 -0.4784,1.7621 -0.4784,3.9605 v 22.1428 c 0,2.1984 0.1683,3.5241 0.4949,3.9778 0.3275,0.4529 1.3257,0.7292 2.9954,0.8472 l 0.4454,0.0247 z"/>
      <path id="path46" style="fill:#1b1918;fill-rule:evenodd" d="m 342.2885,165.8388 -5.8512,-0.9264 c -1.4997,-0.2376 -2.502,-0.1839 -2.9986,0.1617 -0.4876,0.339 -0.9124,1.5715 -1.2647,3.6907 l -0.1328,0.6757 -3.5967,-0.5701 1.1846,-7.4755 33.5475,5.3134 -1.1838,7.4755 -3.5967,-0.5692 0.0825,-0.6839 c 0.3192,-2.1242 0.2961,-3.4275 -0.0611,-3.9011 -0.3654,-0.4817 -1.3025,-0.8422 -2.8022,-1.0798 l -5.8513,-0.9272 -4.2005,26.5198 c -0.2656,2.4295 -0.2986,3.8178 -0.0908,4.1659 0.217,0.3482 1.3422,0.7557 3.3897,1.2333 l 0.4347,0.0941 -0.3564,2.2545 -16.459,-2.6068 0.3572,-2.2545 0.443,0.0445 c 1.9939,0.1799 3.2057,0.0916 3.6388,-0.2813 0.4322,-0.3729 0.8224,-1.654 1.1689,-3.8417 z"/>
      <path id="path48" style="fill:#1b1918;fill-rule:evenodd" d="m 372.0223,197.4435 -3.1158,2.983 c -1.5253,1.4898 -2.4129,2.5597 -2.6661,3.2189 -0.1956,0.5089 0.1864,0.9429 1.1499,1.3124 0.1353,0.071 0.4158,0.2046 0.8497,0.4084 l 0.4215,0.1889 -0.8191,2.1299 -9.0611,-3.4828 0.8184,-2.1308 0.4479,0.146 c 1.2514,0.3902 2.0945,0.4908 2.5309,0.2896 0.4372,-0.2005 1.6301,-1.244 3.5637,-3.143 l 23.2572,-22.712 2.3412,0.9 2.1341,32.4981 c 0.2334,2.7149 0.457,4.2847 0.6525,4.7095 0.1955,0.4265 0.9173,0.9372 2.1597,1.541 l 0.2879,0.137 -0.8192,2.1307 -14.1525,-5.4395 0.8192,-2.1308 0.4397,0.1427 c 1.9748,0.6145 3.0687,0.6937 3.2807,0.2351 0.2087,-0.4504 0.2434,-1.8289 0.0982,-4.1601 l -0.3019,-4.2682 z m 1.9378,-1.8618 12.1875,4.6847 -1.1153,-15.5755 z"/>
      <path id="path50" style="fill:#1b1918;fill-rule:evenodd" d="m 427.2093,197.1705 -5.0403,-3.1141 c -1.2919,-0.7977 -2.2372,-1.136 -2.8287,-1.0081 -0.5799,0.1246 -1.4478,1.0972 -2.5911,2.9161 l -0.3836,0.5717 -3.0968,-1.9138 3.9778,-6.4386 28.8957,17.8515 -3.9778,6.4394 -3.0977,-1.9139 0.3399,-0.5997 c 1.1145,-1.8354 1.5963,-3.0464 1.4494,-3.6214 -0.1518,-0.5857 -0.8761,-1.2795 -2.1687,-2.078 l -5.0387,-3.1133 -14.1121,22.8423 c -1.1846,2.1391 -1.7497,3.4061 -1.6927,3.8071 0.066,0.405 0.9462,1.2159 2.6513,2.4467 l 0.3654,0.2541 -1.2002,1.9419 -14.1765,-8.7575 1.1995,-1.9419 0.391,0.212 c 1.7703,0.9355 2.9227,1.3224 3.4655,1.145 0.5428,-0.1773 1.3975,-1.2077 2.5614,-3.0926 z"/>
      <path id="path52" style="fill:#1b1918;fill-rule:evenodd" d="m 452.6914,257.8606 -20.9491,-18.2103 1.4981,-1.7225 0.3704,0.2896 c 1.3256,0.9956 2.2537,1.4362 2.7981,1.3091 0.5445,-0.1278 1.541,-1.0179 2.983,-2.6769 l 14.527,-16.7114 c 1.4428,-1.6598 2.1869,-2.7578 2.2372,-3.303 0.0462,-0.5387 -0.5205,-1.409 -1.6928,-2.606 l -0.3382,-0.3275 1.4865,-1.7101 20.1506,17.5166 -4.2715,4.9141 -2.7486,-2.389 0.2705,-0.3869 c 0.5065,-0.6599 0.8126,-1.0501 0.9058,-1.1582 0.6055,-0.6962 0.8332,-1.277 0.674,-1.7596 -0.1584,-0.4834 -0.8118,-1.2283 -1.9576,-2.2248 l -5.8958,-5.1245 -9.0668,10.4288 3.8129,3.3138 c 1.4692,1.2778 2.3502,1.9773 2.6315,2.0887 0.2763,0.1171 0.8975,-0.3547 1.8594,-1.409 l 0.3456,-0.3209 1.9502,1.6952 -5.1798,5.9585 -1.9501,-1.6952 0.2532,-0.3688 c 0.8225,-0.9973 1.131,-1.696 0.9182,-2.1044 -0.2186,-0.4009 -0.9487,-1.1466 -2.1968,-2.2314 l -3.9448,-3.4292 -7.1563,8.2319 c -1.7843,2.0525 -2.4954,3.3567 -2.1349,3.9143 0.278,0.4092 1.2159,1.3125 2.8246,2.7116 l 2.2982,1.998 c 1.8553,1.6127 2.9706,2.4269 3.3525,2.4475 0.3943,0.0206 1.3009,-0.7028 2.7462,-2.1605 l 0.3267,-0.3382 2.7487,2.389 z"/>
      <path id="path54" style="fill:#1b1918;fill-rule:evenodd" d="m 471.4783,260.9698 -4.151,1.173 c -2.0458,0.5997 -3.3319,1.1285 -3.864,1.5913 -0.4116,0.358 -0.278,0.9198 0.3993,1.6994 0.0858,0.1245 0.2706,0.3753 0.5593,0.7589 l 0.2838,0.3638 -1.7225,1.4972 -6.3693,-7.3262 1.7225,-1.4972 0.3275,0.3382 c 0.9214,0.9322 1.6193,1.4156 2.0994,1.4436 0.4801,0.0273 2.0219,-0.3349 4.6213,-1.1046 l 31.1931,-9.1493 1.6457,1.8933 -13.3597,29.7024 c -1.0667,2.507 -1.6062,3.9984 -1.6326,4.4653 -0.0272,0.4686 0.3704,1.2572 1.1838,2.3734 l 0.1906,0.2565 -1.7225,1.4973 -9.9478,-11.4426 1.7233,-1.4981 0.3217,0.3324 c 1.4552,1.4701 2.384,2.0525 2.7858,1.7472 0.3959,-0.2994 1.074,-1.5013 2.0384,-3.628 l 1.7364,-3.911 z m 2.5846,-0.7359 8.566,9.8538 6.3215,-14.2779 z"/>
      <path id="path56" style="fill:#1b1918;fill-rule:evenodd" d="m 507.4857,337.7163 c -2.8823,-2.827 -5.1863,-6.2398 -6.8947,-10.2266 -2.4171,-5.6384 -2.7553,-10.687 -1.023,-15.1631 1.7439,-4.4728 5.3802,-7.8946 10.9254,-10.2704 5.5675,-2.3873 10.5443,-2.7049 14.9172,-0.9371 4.3779,1.7571 7.7667,5.4445 10.1665,11.0425 1.4609,3.4095 2.5226,7.2272 3.1768,11.4567 l -6.8948,2.9557 -1.4453,-3.3707 0.4323,-0.1856 c 1.9972,-0.8563 3.1389,-1.729 3.402,-2.6068 0.6195,-2.0466 0.3358,-4.4538 -0.8439,-7.2074 -1.409,-3.2857 -3.8153,-5.2573 -7.228,-5.9131 -3.4152,-0.6624 -7.5465,0.0495 -12.3897,2.1259 -4.9594,2.1258 -8.246,4.7227 -9.8744,7.803 -1.621,3.0778 -1.5731,6.6176 0.146,10.6275 1.1879,2.7685 3.3806,5.6079 6.5896,8.5142 z"/>
      <path id="path58" style="fill:#1b1918;fill-rule:evenodd" d="m 517.6926,372.7486 -8.1907,-26.7929 2.1827,-0.6674 0.1609,0.443 c 0.5964,1.546 1.1499,2.4121 1.6787,2.5928 0.5296,0.1798 1.8462,-0.047 3.949,-0.6897 l 21.1751,-6.474 c 2.1019,-0.6426 3.3154,-1.1797 3.647,-1.6152 0.325,-0.4323 0.3052,-1.4709 -0.0544,-3.1067 l -0.1131,-0.457 2.1663,-0.6624 4.5223,14.7893 -2.1671,0.6624 -0.1543,-0.419 c -0.6212,-1.5732 -1.1887,-2.4526 -1.6993,-2.6299 -0.5189,-0.1749 -1.8248,0.0577 -3.9275,0.7004 l -21.1752,6.474 c -2.6001,0.7952 -3.8945,1.5245 -3.8821,2.196 0.019,0.4949 0.3374,1.7653 0.966,3.8194 l 0.8975,2.9376 c 0.368,1.2035 0.7755,2.3073 1.2201,3.3294 0.2302,0.5263 0.5362,0.8092 0.9099,0.8538 0.3729,0.0437 1.9196,-0.3506 4.6477,-1.1846 l 0.4495,-0.1105 1.0642,3.482 z"/>
      <path id="path60" style="fill:#1b1918;fill-rule:evenodd" d="m 553.601,370.8835 2.1522,15.3148 -2.2446,0.3151 -0.0858,-0.4372 c -0.3663,-1.635 -0.7878,-2.5837 -1.2638,-2.8394 -0.4851,-0.2533 -1.8116,-0.2277 -3.9885,0.0784 l -15.5714,2.1885 c -4.3375,0.6096 -7.3262,1.6482 -8.9744,3.1248 -1.6474,1.4775 -2.2645,3.6652 -1.8553,6.5739 0.4356,3.0993 1.7158,5.216 3.8343,6.3586 2.1242,1.1334 5.3067,1.4056 9.5609,0.8076 l 15.38,-2.1614 c 2.177,-0.306 3.4589,-0.6467 3.8549,-1.0245 0.3877,-0.3762 0.5304,-1.4139 0.429,-3.1018 l -0.0372,-0.4438 2.2439,-0.3159 1.5912,11.3255 -2.2438,0.3159 -0.0866,-0.438 c -0.363,-1.6177 -0.782,-2.5499 -1.2572,-2.7974 -0.4842,-0.245 -1.8107,-0.2194 -3.9877,0.0866 l -14.7984,2.0797 c -5.1764,0.7276 -9.1345,0.1732 -11.8765,-1.6697 -2.7569,-1.8321 -4.458,-5.0667 -5.1063,-9.6789 -1.3645,-9.7135 2.8212,-15.2587 12.5595,-16.6273 l 15.1144,-2.1242 c 2.177,-0.3052 3.4663,-0.6566 3.878,-1.0443 0.4034,-0.3877 0.5395,-1.4065 0.4091,-3.0572 l -0.0156,-0.4727 z"/>
      <path id="path62" style="fill:#1b1918;fill-rule:evenodd" d="m 515.8167,415.9131 h 6.5112 v 3.6412 l -0.4702,0.0256 c -0.5033,0.0338 -0.9644,0.0668 -1.376,0.1006 -2.0137,0.0759 -3.0201,0.9652 -3.0201,2.6514 0,1.5525 0.57,2.6183 1.7117,3.1974 1.1327,0.57 3.2387,0.8555 6.3009,0.8555 h 26.1288 c 2.1984,0 3.5158,-0.1593 3.9605,-0.4785 0.4364,-0.3184 0.7218,-1.3174 0.8563,-2.9871 l 0.0247,-0.4694 h 2.2661 v 15.4642 h -2.2661 l -0.0247,-0.4447 c -0.1345,-1.6869 -0.4199,-2.6934 -0.8563,-3.0126 -0.4447,-0.3193 -1.7621,-0.4785 -3.9605,-0.4785 h -23.5947 c -4.6567,0 -7.9713,-0.914 -9.9593,-2.7519 -1.9972,-1.8545 -2.9962,-4.9422 -2.9962,-9.2632 0,-1.7711 0.2516,-3.793 0.7639,-6.05 z"/>
    </g>
    <g id="g64">
      <path id="path66" style="fill:#1b1918;fill-rule:evenodd" d="m 236.6034,638.4438 -8.4663,27.6904 c -0.6681,2.1844 -0.8612,3.4911 -0.5716,3.9234 0.2895,0.4314 1.8676,1.1978 4.7384,2.2908 l 0.4091,0.151 -0.6533,2.1365 -18.7408,-5.7291 0.6542,-2.1374 0.438,0.1089 c 3.3723,0.7466 5.1798,0.9041 5.4239,0.4719 0.6583,-1.1137 1.1566,-2.2067 1.4899,-3.2989 l 6.0327,-19.7307 c 0.5065,-1.6581 0.7152,-2.7635 0.636,-3.3195 -0.08,-0.5494 -0.5255,-0.9512 -1.3191,-1.1937 -0.2903,-0.0883 -1.5508,-0.3201 -3.7649,-0.6963 l -0.4537,-0.0874 0.6962,-2.2785 z"/>
      <path id="path68" style="fill:#1b1918;fill-rule:evenodd" d="m 279.9683,665.6467 c -1.1582,1.2679 -2.4756,2.1836 -3.9514,2.7396 -1.4667,0.556 -3.1017,0.7507 -4.8935,0.5939 -3.1603,-0.2763 -5.687,-1.5533 -7.5745,-3.8301 -1.8882,-2.2768 -2.6884,-5.0107 -2.4088,-8.2031 0.3209,-3.6669 1.7967,-6.5813 4.4283,-8.76 2.6323,-2.1778 5.7984,-3.1042 9.5064,-2.78 4.4118,0.3861 7.7206,2.2504 9.9108,5.6013 2.1976,3.3509 3.0505,7.8302 2.5605,13.4373 -0.5205,5.951 -2.3254,10.5517 -5.4156,13.82 -3.082,3.2684 -6.9765,4.6939 -11.6753,4.2822 -3.355,-0.2936 -6.5144,-1.0484 -9.4685,-2.2553 l 0.5618,-6.4254 3.2411,0.2838 0.01,0.4619 c -0.0247,0.8472 -0.0495,1.4065 -0.0718,1.6598 -0.0956,1.0889 0.3135,1.9823 1.2242,2.6975 0.9116,0.7062 2.1861,1.131 3.831,1.2754 2.7668,0.2417 5.037,-0.8208 6.8189,-3.181 1.7827,-2.3675 2.8707,-5.7539 3.2568,-10.1648 l 0.1097,-1.253 z m 0.3201,-6.1086 c 0.3011,-3.4458 -0.0709,-6.258 -1.1104,-8.4275 -1.0394,-2.1696 -2.5944,-3.3451 -4.6567,-3.5249 -1.6779,-0.1469 -3.0671,0.5477 -4.1576,2.0771 -1.0906,1.5294 -1.7596,3.7147 -2.0087,6.5632 -0.2574,2.9384 0.0726,5.2936 0.999,7.0573 0.9264,1.7628 2.3337,2.7272 4.2162,2.8922 1.8998,0.1658 3.4531,-0.3407 4.6369,-1.5154 1.192,-1.1747 1.885,-2.879 2.0813,-5.122 z"/>
      <path id="path70" style="fill:#1b1918;fill-rule:evenodd" d="m 323.6624,645.9696 2.5235,28.8453 c 0.1996,2.276 0.5098,3.5596 0.9404,3.8525 0.429,0.292 2.1795,0.4108 5.2515,0.3489 l 0.4347,-0.0132 0.1947,2.2257 -19.5211,1.7084 -0.1947,-2.2265 0.4471,-0.0643 c 3.4061,-0.57 5.141,-1.1013 5.2061,-1.5938 0.1922,-1.2786 0.245,-2.4789 0.1452,-3.6165 l -1.7983,-20.5539 c -0.151,-1.7274 -0.3712,-2.8304 -0.6534,-3.3163 -0.2804,-0.4792 -0.8431,-0.6846 -1.6705,-0.6121 -0.3019,0.0264 -1.5582,0.2838 -3.7517,0.7639 l -0.4537,0.0899 -0.2071,-2.3733 z"/>
      <path id="path72" style="fill:#1b1918;fill-rule:evenodd" d="m 374.5425,654.0193 c -0.627,1.5987 -1.5286,2.9252 -2.7075,3.9728 -1.1697,1.0452 -2.6257,1.8132 -4.3556,2.309 -3.0489,0.8745 -5.8661,0.5874 -8.444,-0.8612 -2.5779,-1.4494 -4.3045,-3.7147 -5.188,-6.7958 -1.0146,-3.5381 -0.6814,-6.7875 0.9949,-9.7647 1.6771,-2.9763 4.3004,-4.976 7.8781,-6.0022 4.2574,-1.2209 8.015,-0.6657 11.2603,1.6779 3.2527,2.3412 5.654,6.2167 7.2057,11.6274 1.6466,5.7415 1.6111,10.6837 -0.1031,14.8422 -1.7059,4.156 -4.8308,6.8815 -9.3646,8.1825 -3.2378,0.928 -6.4584,1.3553 -9.6484,1.2877 l -1.7777,-6.2002 3.1273,-0.8967 0.1741,0.4273 c 0.2813,0.8002 0.4578,1.3315 0.5279,1.5756 0.302,1.051 1.0031,1.7382 2.1094,2.0797 1.1046,0.3324 2.4467,0.2722 4.0347,-0.1832 2.6687,-0.7647 4.4084,-2.5704 5.2251,-5.4123 0.8167,-2.8493 0.6187,-6.4007 -0.6022,-10.6573 z m -1.8908,-5.8182 c -0.9528,-3.3245 -2.309,-5.8166 -4.0562,-7.4698 -1.7472,-1.6531 -3.6206,-2.1927 -5.6111,-1.6218 -1.6186,0.4636 -2.667,1.6103 -3.1364,3.4292 -0.4702,1.8182 -0.3119,4.0983 0.476,6.847 0.8133,2.8361 1.9649,4.9157 3.4622,6.2307 1.4964,1.3141 3.1562,1.71 4.9727,1.1887 1.833,-0.5255 3.1017,-1.555 3.7856,-3.0762 0.6921,-1.5236 0.7284,-3.3632 0.1072,-5.5278 z"/>
    </g>
  </g>
</svg>