<svg xmlns:svg="http://www.w3.org/2000/svg" xmlns="http://www.w3.org/2000/svg" version="1.1" width="2313" height="2313" id="svg2">
  <defs id="defs6"/>
  <g id="g3734">
    <path d="m 2293.75,1170.8125 a 1146.875,1148.4375 0 1 1 -2293.75,0 1146.875,1148.4375 0 1 1 2293.75,0 z" transform="translate(9.375,-15.625)" id="path3730" style="fill:#ffffff;fill-opacity:1;fill-rule:evenodd;stroke:none"/>
    <g id="g3726">
      <path d="m 619.86556,1814.6799 48.57217,37.0809 -48.57217,-37.0809 z m 652.60934,-4.8921 c -8.4767,-11.9158 -0.205,-27.8491 7.5782,-38.8517 6.7438,-8.5223 6.2739,-11.5576 -1.6063,-10.3759 -25.7002,7.9015 -21.3626,42.5545 -15.0361,61.6124 -31.8453,-25.2995 -47.4929,-46.2727 -16.0752,-79.8611 11.5244,-11.3931 16.8207,-14.7201 -0.6175,-10.3821 -10.7641,2.8929 -20.3457,24.83 -29.2524,38.1383 -5.0658,-12.8537 -7.0463,-28.5384 -5.0871,-35.8998 5.1808,-21.6706 30.2835,-32.013 43.6675,-38.0585 25.1545,2.9284 46.8622,4.5889 64.83,-8.2748 9.2209,-7.9803 8.7951,-20.3207 9.1807,-63.1779 -42.5009,10.3661 -87.2041,15.1061 -131.7977,-20.1779 -27.3426,-22.7565 -40.2551,-51.8276 -40.6302,-84.9788 -0.016,-21.4538 4.2174,-44.3661 16.2932,-62.5511 5.8861,-8.1254 3.0545,-14.7149 -7.8343,-18.2316 -50.7281,-10.5516 -104.2069,0.6858 -153.7577,12.1835 -41.18492,9.9131 -61.98423,13.1224 -84.75372,13.0772 -13.16809,-0.026 -17.27535,-1.4719 -22.92226,-8.069 -10.27282,-12.0015 -10.84642,-38.202 -1.42103,-64.909 4.55352,-13.6757 26.67371,-52.3663 44.13782,-70.2344 13.95797,23.7078 21.4772,28.5838 41.23074,27.3855 17.29535,-3.6951 27.38295,-12.1441 40.09975,-28.081 22.0919,0.4694 28.4853,0.2497 28.4853,0.2497 85.1114,1.9954 152.1455,14.0063 202.5123,36.2853 19.353,8.5606 29.599,14.7352 39.1124,23.5706 15.6881,14.5699 29.7123,21.3468 42.6887,20.6284 20.4078,-1.5622 27.8833,-18.9174 28,-36.8041 1.4623,-20.1206 -11.1463,-33.2315 -27.0046,-43.6967 -23.134,-14.342 -45.1402,-22.095 -78.8968,-27.796 -19.9489,-3.3691 -35.7314,-5.0635 -79.0986,-8.4918 -74.0293,-5.8522 -98.7997,-9.7893 -124,-19.7092 -24.7326,-11.3451 -30.3373,-16.7047 -44.9695,-36.2638 -4.9001,-12.0354 -8.5031,-18.2568 -8.7565,-32.9379 1.309,-5.3061 1.6707,-7.7437 7.4343,-12.602 21.5642,-14.9742 52.3744,-9.7116 57.2063,14.9319 -9.3207,-11.1361 -13.451,-12.3135 -21.1704,-12.1586 -11.0671,1.2475 -16.4147,12.5433 -11.1179,23.4849 11.0004,22.7239 79.4991,38.071 186.3737,41.7568 50.0929,1.7276 90.6736,10.8748 124.5033,28.0642 42.8877,21.7919 67.728,54.3888 69.6997,91.464 2.1748,40.8935 -25.2477,72.9671 -66.6947,78.0066 -32.2815,3.3046 -63.2913,-11.2283 -73.2106,-16.157 -12.7066,45.1916 -2.1054,68.3708 18.9688,87.0447 34.3556,27.2676 84.2623,26.5925 106.8076,6.1068 -7.0516,19.2833 23.9532,12.411 33.6859,6.8017 -32.364,36.4886 -31.2927,47.356 -37.7344,82.6514 -2.4863,16.6993 -3.9475,50.8049 -2.6486,61.8187 1.5784,13.3833 1.3955,37.4518 -0.3672,48.3198 -4.6508,28.6748 -18.3446,46.9666 -41.4824,55.4108 -4.3245,1.5783 -11.8373,3.3869 -16.6951,4.019 -21.7523,2.8308 -31.206,6.072 -35.7542,12.2582 -5.3579,8.9096 -1.6325,17.5895 4.5938,26.4216 -16.1148,-0.032 -28.5991,-5.5693 -36.697,-12.9603 z M 774.99996,1698.0215 c 0.78125,-17.272 9.07461,-30.5932 19.55302,-34.5949 5.89083,-2.2497 13.28827,-1.5324 21.26754,2.0624 7.80644,3.5169 11.49483,2.8612 11.98335,-2.1303 -8.65176,-23.3799 -40.06906,-14.6523 -62.62063,4.5944 1.00309,-10.5469 1.70985,-20.8527 6.83254,-31.8003 5.73944,-12.2655 13.16034,-18.9298 23.70712,-21.2901 10.04878,-2.2488 22.12783,1.8059 35.09122,11.7794 15.96307,12.2814 18.33072,13.3288 20.31009,8.9845 0.85794,-1.8829 0.6653,-3.3139 -0.93233,-6.9256 -8.52072,-21.2 -33.00422,-21.6649 -46.67109,-26.3217 16.29211,-6.5239 22.64669,-10.2462 32.54103,-11.5966 17.57876,-2.3992 35.40559,7.1953 46.5201,26.4645 5.3027,9.1934 12.04422,16.4209 17.91804,19.2098 9.21789,4.3767 8.07023,4.6274 84.61439,-18.4809 38.71215,-11.687 71.21765,-21.9727 72.23455,-22.8571 3.6567,-3.1803 0.2913,-12.8585 -11.3429,-32.619 -9.2226,-15.6646 -15.2178,-40.3462 -15.3026,-63 2.5761,-40.7734 21.3354,-53.6722 62.166,-56.8457 -4.922,10.7713 -3.9007,13.1336 -2.4341,14.6003 1.2574,1.2573 4.6277,0.5432 26.5677,-0.3 28.6588,-1.1014 34.9386,-0.4996 37.6285,3.6058 1.4767,2.2537 1.4175,2.6802 -0.927,6.6809 -31.1105,74.2978 -5.9034,129.5285 60.3007,174.6749 0.4536,1.1771 -13.0862,0.299 -20.6828,-0.9339 -10.6974,-1.7362 -19.1719,-4.8516 -23.2708,-8.5547 -12.6424,-13.806 -2.832,7.8683 2.0834,14.4005 -104.9903,15.1464 -248.70337,85.5974 -322.05946,77.1872 -18.13786,-3.4524 -23.45415,-20.186 -36.66133,-26.0479 -21.49585,-2.556 -23.9384,26.5364 -21.23245,37.9185 -11.32944,-6.327 -16.17962,-26.2548 -17.1818,-37.8644 z m 75,-214.3607 c -30.51737,-6.168 -60.69352,-7.7511 -145,-7.6069 -54.77604,0.094 -63.48867,-0.099 -70.5,-1.5618 -18.08056,-3.7711 -31.30537,-11.0504 -48,-26.4204 -30.79352,-28.3502 -48.08796,-28.8589 -53.44105,-1.5717 -1.85538,9.4577 -0.0855,0.3351 -1.95094,9.5017 -16.93848,-15.9178 -24.57529,-35.0654 -19.96991,-46.1025 5.93055,-14.2129 23.09389,-21.6792 55.57116,-17.117 9.38828,-1.1818 3.64742,-12.5147 -7.55619,-15.5559 -19.4977,-6.0468 -29.72703,-0.4086 -51.56399,15.9456 -0.19153,-13.2813 -1.10897,-4.7702 0.93522,-16.1719 7.9315,-44.2387 27.58579,-52.7095 63.59394,-27.4779 4.24411,2.5755 8.20353,7.7431 12.32506,3.2554 9.15735,-11.3005 -13.77733,-18.5636 -35.24257,-26.8736 15.45616,-11.2072 31.98611,-17.5699 50.51055,-10.3676 7.34728,3.5651 16.42228,12.7766 22.19089,22.5247 3.95709,6.6868 4.4864,8.3432 5.23502,16.3815 2.29007,24.5898 12.19475,39.0226 32.1179,46.8013 5.29277,2.0665 11.11948,2.5873 47.7449,4.2674 14.16398,0.6497 18.89024,-0.1231 19.57557,-3.6817 L 611.61329,1188.2207 c -2.20616,-4.3564 -2.42733,-6.1869 -2.86607,-23.7207 -0.50784,-20.2949 -1.58353,-26.3797 -6.34927,-35.9151 -5.16832,-10.3409 -11.64808,-14.6236 -23.2735,-15.3825 l -7.3755,-0.4815 c 0.35487,-9.198 3.69847,-17.5482 8.77043,-25.1575 3.22739,-4.2313 11.61038,-8.579 16.42691,-8.5195 4.75256,0.059 9.94323,2.0074 14.39814,5.4053 3.78001,2.8831 11.36998,13.628 13.58293,19.2289 1.62051,4.1015 3.59742,4.7971 6.20962,2.1849 4.97129,-4.9713 -0.75402,-21.7099 -10.4176,-30.4571 -3.12091,-2.8249 -9.34406,-6.7034 -15.47819,-9.6465 -5.64231,-2.7071 -10.80706,-4.5177 -10.52235,-4.9783 1.11269,-1.8004 14.30523,-8.8033 21.80876,-11.3222 23.41426,-7.8599 38.39409,1.253 45.32574,27.5736 1.08163,4.1071 2.2213,8.6279 2.53262,10.0461 0.81196,3.6988 5.10206,5.4869 8.23682,3.4329 2.05027,-1.3434 2.37717,-2.3546 2.37717,-7.3531 2.7933,-14.5329 -10.8138,-31.1727 -16.51864,-35.443 28.98955,-5.2069 35.33816,-1.4941 43.82384,12.7846 4.15709,8.4672 5.20151,14.8023 5.11076,31 -0.0961,17.1509 -2.31023,31.9736 -8.36501,56 -4.595,18.2337 -5.31697,24.103 -4.00017,32.5192 1.06294,6.7936 1.99689,8.9217 11.40215,25.9808 19.55559,35.4696 46.71485,75.5831 72.42651,106.972 l 6.12056,7.472 c -2.23117,34.0135 1.43515,44.6808 7.53687,66.9613 -23.29573,-3.3537 -27.84145,4.6208 -35.9028,9.8609 -15.20248,-24.1093 -13.54373,-1.7678 -10.40497,8.8965 l 64.48784,0.837 c 11.24385,20.8655 23.849,28.899 41.26455,38.0033 29.26358,17.9014 44.03164,34.4692 51.79986,57.369 -21.48112,-12.1484 -35.4849,-14.3586 -53.78134,-18.7112 z m 366.50094,-324.0033 c -8.2095,12.6112 -14.5041,23.2906 -34.3782,23.5866 -13.9658,-0.035 -24.9073,-4.0811 -57.0648,-21.1024 -28.457,-15.0625 -39.4162,-19.7218 -53.3733,-22.6915 -15.2368,-3.864 -26.8942,-1.9214 -41.7263,7.9196 7.746,-9.2699 7.5225,-10.7132 13.7864,-15.8846 12.3404,-10.188 23.96,-14.0474 39.7553,-13.2046 15.9145,0.8492 30.1302,6.0408 57.0643,20.8401 22.057,12.1195 28.8523,15.0628 36.1238,15.6465 7.689,0.3595 8.9677,1.1402 13.3119,-7.5765 L 524.82808,794.00022 540.59959,765 1097.2536,1060.1719 c 11.5506,-24.7326 13.9395,-29.6133 29.2464,-38.1213 7.9549,-2.9816 17.0587,-2.4797 24.9373,1.3749 7.3696,3.6056 12.5947,3.3088 14.0303,-0.797 0.9399,-2.6884 0.6546,-3.1929 -4.4732,-7.9079 -24.0167,-18.95838 -35.9686,-6.8094 -53.6156,1.9448 3.8026,-20.55666 14.8459,-44.84745 36.2892,-46.87399 11.6371,0.84175 23.3301,8.74049 35.4285,24.83699 7.5569,10.0542 10.1377,12.0316 14.3298,10.9795 2.4501,-0.615 2.9643,-0.5828 2.9643,-7.07353 0,-6.33223 -0.2778,-7.98518 -3.8977,-13.01221 -6.7924,-10.82911 -18.3643,-15.89466 -29.5554,-25.26585 32.5315,-10.0825 53.1361,0.60913 64.4115,35.51378 3.6893,12.50221 13.9947,27.37711 23.0123,31.16271 3.708,0.7439 75.47,6.0629 113.0084,4.6576 10.6619,-1.1182 10.5647,-8.1276 6.6584,-14.405 -9.2424,-21.03261 -13.3569,-55.53386 -9.5789,-73.35907 4.1807,-19.72555 18.1909,-32.64526 39.5508,-37.20092 7.5186,-1.60357 14.6891,-1.19144 20.7395,-2.17243 0.086,7.0408 -6.1345,8.01647 -2.1841,13.27136 3.1813,3.76277 11.3921,0.80874 33.5731,0.62972 19.6642,-0.4018 24.238,-0.22793 27.264,1.03642 7.853,1.29278 7.1293,1.79016 2.308,9.92306 -13.8133,33.59428 -19.102,69.9032 -4.682,107.43126 8.5911,21.5685 23.6324,42.034 62.2478,70.0979 -16.7214,-0.5127 -26.8923,-1.8822 -39.6674,-11.9649 -6.6399,-5.985 -8.1694,-4.8383 -7.9492,-0.074 1.2737,4.8212 0.3256,4.0602 9.4757,14.0003 -56.3396,-5.0034 -142.0209,-8.7661 -233.744,-8.7897 -45.1712,-0.012 -56.718,-0.293 -63.9789,-1.5592 -23.7247,-4.1373 -39.7629,-14.1576 -52.174,-32.5974 -11.4786,-14.1143 -12.0338,-14.1906 -22.1477,-10.3992 -3.6751,1.9005 -9.5172,8.3314 -13.0455,13.6202 l 702.4651,372.4113 -13.6927,27.1815 -588.3068,-309.0141 z m -361.23471,264.6031 c -10.28576,-19.596 -5.22247,-43.1698 16.13405,-75.1175 9.74093,-14.5717 19.86355,-27.4767 41.61257,-53.0504 48.92853,-53.0482 67.8937,-83.8913 75.71644,-105.8884 6.04637,24.239 1.60593,38.1801 -2.34506,51.7957 -6.36121,19.1454 -15.57695,33.8172 -41.40486,65.918 -28.51385,35.4391 -36.12209,46.2974 -45.27212,64.6117 -19.11026,36.0653 -15.77557,66.1604 -13.47851,78.6328 -13.87486,-7.4031 -23.82167,-16.1249 -30.96251,-26.9019 z m -35.01411,-77.495 c 8.63117,-28.7291 26.43384,-48.8149 82.79481,-109.2656 25.86348,-27.6529 52.02216,-53.9088 69.05715,-90 8.42199,-20.2961 12.1051,-23.1903 9.03545,-56.5313 8.32476,25.0421 6.45724,18.5703 8.53616,28.8361 0.91578,4.5222 1.57577,13.0556 1.6006,20.6952 0.0648,19.9383 -3.73141,35.3147 -13.82555,56 -10.67893,21.8836 -25.32156,41.3151 -62.92143,83.5 -27.21898,30.5381 -37.06895,42.6022 -47.66187,58.3756 -21.49744,28.9433 -28.19346,55.6928 -26.91188,82.7963 -20.09779,-18.5794 -25.49184,-47.6558 -19.70344,-74.4063 z m 13.28346,-94.0978 c 28.1389,-32.7131 59.87923,-62.129 87.7215,-95.1047 25.57692,-31.2806 36.77261,-55.9312 36.72556,-80.8623 0.40908,-16.8577 -6.12958,-32.0999 -13.64778,-46.7321 67.59658,76.8666 6.70247,141.403 -53.8044,205.5313 -40.63495,44.5163 -90.93435,91.0602 -81.8781,148.5625 -30.76564,-51.3196 -6.64397,-88.4499 24.88322,-131.3947 z m 142.24567,86.5192 c -28.103,-16.0025 -7.85576,-57.0791 6.65742,-77.1401 3.63749,30.217 -0.17446,53.5613 40.25767,58.1384 -26.40437,22.9525 -28.41357,22.9513 -46.91509,19.0017 z m 731.96469,-21.2727 c -18.6808,-4.4027 -31.725,-22.979 -34.6985,-49.4143 -0.6688,-5.9454 -0.4876,-7.6717 1.2024,-11.4582 1.4655,-3.2834 1.7543,-5.128 1.0959,-7 -1.3406,-3.8121 -5.1863,-3.4021 -8.058,0.8592 -7.4804,12.5905 -3.9585,33.01 10.9924,60.0521 -7.0744,-3.125 -25.4169,-17.874 -32.357,-24.8843 -14.696,-14.8444 -18.3783,-27.717 -11.7739,-41.1591 13.3135,-21.3288 37.1167,-33.9872 50.1437,-55.6476 5.0714,-9.6508 5.9962,-15.2614 4.6551,-28.241 -2.8355,-27.4415 -9.5273,-41.6991 -22.5897,-48.1295 -4.2161,-2.0754 -6.2464,-2.3852 -15.3583,-2.3428 -7.3405,0.034 -13.1567,0.7111 -19.329,2.25 -22.0159,5.489 -51.067,1.2073 -75.0463,-11.0607 -54.2668,-27.7634 -83.2991,-91.237 -68.4995,-149.76136 2.8377,-11.22149 8.5811,-24.99732 13.709,-32.88178 2.2912,-3.52277 4.1658,-7.49488 4.1658,-8.82692 0,-3.78818 -4.9205,-7.83948 -12.5806,-10.35825 -6.3089,-2.07451 -9.2132,-2.31154 -32.9194,-2.6867 -44.7753,-0.7086 -62.7066,1.53133 -118.5,14.80277 C 1297.5962,922.58807 1281.9535,925 1257.8551,925 c -12.4032,0 -14.7786,-0.26863 -18.5594,-2.09889 -16.1368,-7.81168 -18.8412,-40.86603 -6.93,-73.13639 14.4531,-37.10938 43.304,-67.14141 43.304,-67.14141 7.2705,13.16583 13.5048,18.9769 23.4213,24.90412 24.5478,9.40104 42.3007,-9.68832 57.9957,-25.87657 23.8264,-0.18156 61.9815,1.00767 78.0324,2.37118 58.4347,4.51333 116.6434,15.66135 169.3809,41.81568 25.1989,9.12993 35.4746,42.46782 75.3221,35.14347 16.852,-7.24954 23.3964,-32.84641 13.6599,-53.42764 -3.7597,-7.94729 -9.6992,-14.0078 -20.7676,-21.19035 -18.1307,-11.76558 -32.4662,-18.00626 -53.5537,-23.31349 -27.0586,-6.81 -50.5888,-9.52389 -113.1607,-13.05158 -75.0707,-6.46553 -154.7554,-2.63029 -173.9918,-69.46611 -3.0117,-11.77559 -2.7548,-17.56162 1.2418,-23.13986 12.6782,-17.69551 33.8777,-13.34952 42.3039,-10.98946 11.6443,4.07971 16.1047,8.68502 18.8309,20.60912 -7.4168,-6.70058 -19.3734,-13.58878 -26.3395,-10.03496 -5.357,2.73296 -6.9313,7.41472 -4.5712,13.59445 3.209,8.40272 13.5794,14.93164 34.7617,21.88496 30.7039,10.07891 79.993,17.72955 154.7642,24.02242 49.1131,2.98477 100.5891,12.59656 140.1348,38.81775 35.3058,23.28587 54.2397,55.18821 52.6181,88.65772 -1.7543,36.20883 -27.5702,63.06677 -66.2529,65.93428 -31.6435,3.0365 -53.0579,-7.89294 -70.7135,-17.62031 -24.2347,51.30922 -7.8148,97.0783 33.7135,115.83287 27.0508,12.8148 55.7915,15.099 83.1094,-1.8979 2.0198,23.9729 18.2887,8.6889 33.2292,-4.6822 -40.8136,72.5666 0.1,125.4371 16.0612,202.9791 2.0807,17.0757 -0.2584,28.7224 -12.8466,39.535 -6.439,5.5308 -8.0532,9.411 -8.0532,18.7599 2.7789,16.3169 9.7106,15.0462 21.6832,15.8327 -6.6466,14.7705 -18.3288,21.2678 -30.6832,21.7962 -16.3574,0.1664 -25.6091,-11.7369 -26.4751,-34.0625 -0.348,-8.9711 -1.8987,-12.3613 -5.6542,-12.3613 -5.5794,0 -7.7972,17.0065 -1.6204,27.5608 8.2681,16.8284 17.9365,20.3204 33.9841,27.5738 -11.2209,8.5621 -26.4371,10.8552 -37.4885,8.7797 z M 805.53235,1251.75 c -7.46532,-13.429 -10.10918,-29.6302 -16.46648,-46.4797 20.83364,2.54 25.30556,2.2573 41.15227,-1.526 7.6714,-1.6202 17.17027,-7.308 19.03327,-11.3968 1.04054,-2.2838 0.89163,-2.8141 -1.28741,-4.5856 -2.25167,-1.8305 -3.49829,-1.9578 -14.46404,-1.4775 -39.39704,-1.1413 -89.51114,46.9122 -114.02366,15.3202 -8.91139,-8.8692 -10.96389,-11.9451 -14.4365,-29.003 26.78517,12.3275 37.24343,3.1962 55.11451,-2.4099 52.26803,-17.4071 81.60925,-18.5782 94.84333,-6.7076 -4.88263,-13.1998 -8.47905,-13.884 -14.12974,-16.9595 -12.4051,-6.7517 -35.53503,-3.4179 -51.23619,7.3848 -5.49257,3.7789 -6.2064,3.1406 -7.61798,-6.8123 -1.20668,-8.5082 0.0121,-18.2674 3.01699,-24.1574 1.07599,-2.1091 3.98425,-5.23 6.46279,-6.9353 2.47855,-1.7052 4.50645,-3.7051 4.50645,-4.444 0,-2.0409 -4.61598,-2.9948 -12.67903,-2.0115 -6.4815,0.7904 -8.18082,0.547 -8.18082,0.547 l -1.03078,-14.9823 46.18755,-19.3176 c 4.3407,12.5759 8.4234,12.5588 17.7583,13.9136 7.35654,8.7399 10.85441,12.7581 20.89112,13.2867 12.74801,-0.5506 13.8169,-8.7553 14.0317,-18.1395 6.2809,-0.2563 3.39785,-1.0249 9.41259,-1.401 7.2067,-0.4505 11.06291,-3.9129 10.08222,-5.4997 -0.88625,-1.434 -12.90599,-1.1507 -19.32851,0.4555 -13.01531,1.3977 -41.72761,13.9512 -49.21245,-1.0908 -3.03046,-6.0603 3.89811,-12.667 11.83614,-15.9933 6.20962,-2.602 67.62536,-20.8299 68.21441,-20.2409 0.32501,0.325 -0.70683,4.9579 -0.86068,9.8178 -0.40612,12.829 2.86118,21.4673 7.45318,19.7052 1.39305,-0.5345 1.55684,-1.6803 1.05373,-7.3713 -0.32763,-3.706 -0.86756,-8.5687 -1.19983,-10.806 -0.89907,-6.0535 1.17339,-12.2698 5.54961,-16.646 3.20817,-3.2082 4.44308,-3.7863 8.08818,-3.7863 12.16664,0 22.25518,11.7027 26.94215,31.2528 3.62,15.0996 2.28535,26.964 -4.92121,43.7472 -13.23796,30.8295 -49.18488,73.7975 -102.3718,122.3667 -20.52087,18.7393 -24.1182,21.5902 -29.61499,23.4705 -4.69351,1.6055 -5.61592,1.4885 -8.56839,-1.0872 z M 1111,1192.0264 c -29.0704,-15.7499 -40.6692,-20.8444 -53.4835,-23.4912 -15.0462,-3.608 -30.5281,-0.5815 -43.4364,7.222 26.3817,-41.1265 58.6095,-29.2982 98.5605,-9.5231 44.7393,23.6379 55.6405,29.7177 67.7031,20.7099 -6.5365,10.2143 -14.8274,23.8468 -39.0463,18.527 l 0,0 0,0 0,0 0,0 0,0 0,0 0,0 0,0 0,0 0,0 0,0 0,0 0,0 0,0 0,0 0,0 0,0 0,0 0,0 0,0 0,0 0,0 0,0 0,0 0,0 0,0 0,0 0,0 0,0 0,0 0,0 0,0 0,0 0,0 0,0 0,0 0,0 0,0 c -10.7095,-2.9476 -20.5293,-8.2852 -30.2974,-13.4446 z m -258.6713,-94.4842 c -9.00677,-3.9178 -5.08832,-12.5422 5.69852,-12.5422 3.22674,0 4.76339,0.6368 7.04691,2.9203 3.62369,3.6237 2.90326,6.7367 -2.15883,9.3281 -4.06369,2.0804 -6.3346,2.1434 -10.5866,0.2938 z m 298.4456,-159.00243 c -22.0465,-2.53911 -61.1864,-3.63779 -122.7743,-3.44635 -50.99701,0.15852 -58.40481,-0.0154 -65.50004,-1.53742 -17.26308,-3.70327 -30.15184,-10.71764 -45.12363,-24.55735 C 900.11119,893.03902 888.16787,886 878.3538,886 c -5.13092,0 -5.89834,0.30921 -9.36077,3.77164 -7.01984,6.05097 -8.31409,14.9958 -8.26169,25.57211 -40.42455,-39.71176 -20.46478,-69.45127 24.96776,-64.32112 11.60077,1.31837 13.30086,0.79851 13.30086,-4.06715 -18.984,-29.26461 -51.06912,-3.66279 -62.70996,4.82577 2.12583,-50.89156 20.12152,-75.34929 66.41705,-41.6842 5.62259,4.21438 8.29553,4.80964 10.37047,2.3095 6.23632,-11.43755 -1.3474,-14.55892 -34.35877,-28.00925 29.36258,-20.26881 53.11919,-16.96613 72.04089,13.1027 8.30962,10.18546 1.92384,31.11136 14.08327,45.07213 20.30266,20.73935 18.54824,22.59652 87.59589,21.05991 1.4087,-0.92298 2.5612,-2.18464 2.5612,-2.80369 l -116.21879,-217.081 c 2.12091,-45.11542 -6.48044,-77.60571 -38.33641,-70.88348 4.93411,-38.6886 33.53251,-48.31456 51.48459,-13.68083 2.1363,3.8977 5.0036,12.93422 8.11216,5.03696 4.88386,-22.86445 -13.31196,-37.32706 -37.96271,-44.00125 34.88145,-21.90132 60.99808,-21.80665 69.51925,19.66035 2.32275,10.32468 4.42348,13.53679 10.40191,10.6834 3.6251,-3.23445 2.6298,-9.72449 0.5048,-17.8829 -1.4279,-10.04759 -6.64134,-17.27346 -14.28609,-26.35056 8.59375,-2.21327 15.24619,-3.43109 22.71639,-2.25021 39.293,9.70414 24.7447,61.78279 16.9019,101.92117 -7.8428,40.13838 -15.4433,23.33884 40.4719,114.23622 l 45.1519,59.82628 c -3.5448,23.25703 1.8416,51.81518 7.557,66.42485 -20.907,-3.68129 -29.2113,4.20373 -35.9362,9.33537 -3.3891,-3.04755 -5.0034,-8.55171 -9.2419,-10.4946 -5.4332,1.25932 -2.8423,5.82813 -2.4517,21.45313 l 66.6905,-0.39062 c 13.1409,21.24572 21.6876,27.97367 39.0678,37.07743 22.0655,13.35497 44.6565,30.64606 52.635,57.98811 -34.5546,-17.62873 -53.6292,-19.09092 -81.007,-22.9164 z M 1188.17,830.66179 c 10.2135,-20.31362 22.2581,-36.58905 59.3204,-80.15741 31.5523,-34.40498 53.9451,-66.75099 69.8988,-96.67626 11.152,48.87299 -16.6574,80.07303 -42.9535,114.17188 -29.2408,36.35925 -37.4692,48.02758 -46.1903,65.5 -13.0591,27.0066 -18.3246,52.22803 -13.5964,79.65983 -38.7804,-19.83218 -43.9656,-44.64918 -26.479,-82.49804 z M 1147.3259,835 c 0.2093,-50.44954 34.081,-78.96983 77.1801,-128.5 47.2409,-50.79663 61.8221,-69.29693 74.5159,-94.54362 8.1607,-16.23079 14.5861,-28.51278 10.6623,-57.58138 14.094,35.72048 11.2898,55.95005 4.7936,82.625 -13.5385,40.76965 -43.7885,72.82043 -71.5019,104.5 -25.9186,29.12035 -38.9437,45.07959 -48.1526,59 -19.7588,26.84777 -26.614,54.9012 -26.7373,81.67188 C 1154.3421,870.31632 1148.1176,852.44124 1147.3259,835 z m -14.2071,-78 c 10.9156,-22.94725 26.7392,-43.09218 65.4901,-83.37513 37.8473,-40.42217 87.6999,-82.17145 87.6177,-136.12487 1.1701,-14.85782 -3.8182,-30.6264 -12.961,-45.30021 13.3555,12.29554 22.0951,31.20881 26.8527,46.30021 3.1927,11.94294 2.9931,29.60197 -0.4848,42.88805 -4.9338,18.8481 -18.1128,42.25302 -37.0402,65.78049 -9.8056,12.18889 -22.1593,25.99972 -48.1517,53.83146 -33.5436,35.9172 -48.1479,53.82522 -60.0314,73.6114 -17.1449,29.29979 -19.2574,45.60999 -17.6121,69.34173 C 1118.3257,817.83944 1120.8197,784.93187 1133.1188,757 z M 1308.5,801.0105 c -11.6093,-1.83683 -17.5712,-9.6801 -18.2955,-24.06909 0.5847,-19.46116 9.2137,-37.61831 20.6539,-53.11329 1.54,23.3738 -1.2095,52.44438 39.3135,58.05751 -14.2883,14.45774 -26.6238,20.1408 -41.6719,19.12487 z M 1133.7042,713.33057 C 1132.2648,711.86336 1118,670.442 1118,667.72966 c 18.4858,0.62934 39.7279,0.4782 50.3137,-6.02441 10.3683,-5.44266 12.5273,-11.08202 5.1863,-13.54643 -11.7812,-3.95501 -50.3073,5.70051 -77.7828,19.49417 -17.906,9.56886 -31.006,9.28597 -46.1429,-2.74776 -16.5212,-14.37465 -12.8149,-23.31996 -16.2314,-30.86048 16.1815,9.46104 32.9272,6.5298 50.6571,-0.81707 37.8934,-12.53914 53.9604,-16.28801 70.0877,-16.35333 10.0739,-0.0408 15.9472,1.0825 22.1168,4.23 6.6727,3.40414 7.2751,2.47229 2.7844,-4.30734 -5.8608,-8.84825 -17.4656,-13.6215 -29.8836,-12.29164 -10.996,1.17757 -24.6752,6.15947 -32.2114,11.73117 -1.4871,1.09945 -3.1663,1.71316 -3.7316,1.3638 -1.7768,-1.09819 -3.4156,-11.75187 -2.9422,-19.12805 0.627,-9.76978 4.1279,-17.23059 9.9063,-21.11143 7.0443,-4.73099 10.3258,-6.20514 -1.4612,-6.53517 l -14.4287,0.49759 -1.2365,-15.14069 45.0839,-18.57322 c 3.4246,8.80584 6.3473,12.78665 17.1852,13.22202 11.5504,12.45655 15.2809,15.51702 28.7707,11.648 5.1225,-0.85769 8.5132,-8.36625 7.3661,-16.37705 7.8739,-0.54769 16.1482,-1.08338 19.5941,-5.94432 0,-2.50245 -8.397,-2.85223 -17.5,-0.72896 -10.7715,2.51245 -34.1933,6.57094 -37.9213,6.57094 -4.9399,0 -10.0682,-2.29131 -12.113,-5.41206 -3.5092,-5.3556 0.7772,-12.76855 10.0343,-17.35352 l 68.0089,-21.0153 c 0,6.55133 -0.1032,2.32985 -0.047,11.28088 0.071,11.15733 1.1649,15.28589 4.8658,18.35735 1.1617,0.96412 1.7881,0.88357 3.066,-0.39426 1.9593,-1.9593 2.0047,-5.11345 0.1868,-12.96309 -4.0908,-17.66325 7.034,-30.22168 20.8477,-23.53454 15.7625,7.63049 24.9216,37.44197 18.6311,60.64113 -5.9955,22.11096 -25.8024,52.05894 -56.8079,85.89341 -20.3557,22.2131 -62.5072,62.45154 -72.9393,69.62899 -5.7981,3.9892 -12.8753,4.98746 -15.6083,2.20158 l 4e-4,0 z M 1431,662.08581 c -29.3823,-15.90992 -40.8262,-20.71743 -54.9535,-23.08569 -26.6055,-1.97637 -27.0479,2.29757 -40.0684,7.82702 17.6348,-28.12243 37.8065,-34.56412 70.5219,-24.13087 11.1404,3.61342 21.3723,8.46287 45.8518,21.73172 24.3379,13.19202 36.0189,20.19652 49.8201,14.30264 -4.9081,6.99155 -8.9892,14.83665 -18.7879,18.06291 -18.9246,4.34865 -36.2774,-6.18451 -52.384,-14.70773 z m 58.5,-11.98547 c -38.8064,-12.57241 -68.3158,-38.8661 -110.4275,-41.89536 -8.8442,-1.1541 -14.9596,2.17919 -27.3381,8.80228 18.6819,-22.5204 26.9928,-24.19655 46.2656,-26.68528 16.769,-1.08627 35.0932,3.82588 70.3649,18.86263 31.1801,12.44611 62.4013,32.12849 76.5414,-3.13758 -1.9532,10.95756 -11.764,28.63614 -16.944,34.30389 -9.7503,10.66829 -22.8752,13.99519 -38.4623,9.74942 z M 1181,559.29056 c -5.856,-2.15322 -6.7872,-8.19807 -1.75,-11.36007 6.7541,-4.23971 17.9444,0.17435 16.3678,6.4563 -1.0728,4.27409 -9.0512,6.95058 -14.6178,4.90377 z m -629.92394,1195.92804 36.90534,43.9489 -36.90534,-43.9489 z" id="path2840" style="fill:#f9050c;stroke:none"/>
      <path d="M 1099.9436,2311.9163 C 936.87858,2303.4522 782.96648,2263.2066 639.84628,2191.6081 387.91688,2065.5758 190.05017,1851.7973 84.218372,1591.2982 35.261072,1470.7925 7.8335725,1345.4747 0.87887247,1210.515 c -1.1787,-22.8724 -1.1699,-85.6385 0.015,-108.5 C 7.8630725,967.57119 35.432572,841.70121 84.159772,721.86009 190.20907,461.03911 387.83928,247.49282 639.84598,121.42186 783.80018,49.406081 936.45768,9.636171 1101.846,1.062841 c 22.8615,-1.18507995 85.6276,-1.19390995 108.5,-0.0153 165.7554,8.54165 318.3361,48.25364 462.5,120.374279 251.9969,126.06608 449.641,339.62734 555.6862,600.43823 67.2569,165.4138 94.9747,346.34575 80.7571,527.15495 -27.7002,352.2713 -216.1389,672.7816 -511.4433,869.9001 -164.7078,109.944 -352.3888,175.083 -549,190.5432 -44.7465,3.5185 -108.2691,4.5672 -148.9027,2.458 l 3e-4,0 z m 118.4027,-32.9858 c 181.8747,-9.5315 360.4782,-64.359 517.5,-158.8615 19.8751,-11.9617 63.4559,-40.8681 81.5,-54.0576 49.4649,-36.1567 87.32,-68.7096 133.078,-114.4383 58.5367,-58.4992 98.5728,-107.2616 142.9095,-174.0581 28.9243,-43.5765 49.5877,-79.4508 71.9994,-125 67.3024,-136.7847 104.5338,-279.3506 113.6014,-435 1.5063,-25.8557 1.5099,-96.3271 0.01,-122 -9.1814,-156.76511 -46.5603,-299.2829 -114.6141,-437.00002 -22.3749,-45.27888 -42.0182,-79.30761 -71.0028,-123 -44.1732,-66.58844 -84.1101,-115.26093 -142.4134,-173.56421 -58.3033,-58.30328 -106.9758,-98.24018 -173.5642,-142.41343 -43.6924,-28.98452 -77.7211,-48.62788 -123,-71.00274 -137.7823,-68.086029 -279.4931,-105.254079 -437,-114.616769 -24.9622,-1.48383 -96.7022,-1.48343 -122,6.7e-4 -156.87502,9.2029 -299.46772,46.60569 -437.00382,114.627329 -90.4243,44.72137 -169.886,98.2297 -248.5,167.33622 -21.2534,18.683 -75.45,72.87957 -94.133,94.13293 -37.88981,43.10267 -64.93831,78.27477 -95.74441,124.5 -55.4958,83.2726 -99.023,172.23811 -130.516798,266.76436 -31.4054,94.26075 -49.6135,190.44095 -55.7022,294.23566 -1.489,25.3827 -1.4929,97.125 -0.01,122 9.4246,157.7335 46.5334,299.2114 114.622598,437 22.3748,45.2789 42.0182,79.3076 71.0027,123 44.1733,66.5884 84.11021,115.2609 142.41341,173.5642 58.3033,58.3033 106.9758,98.2402 173.5642,142.4134 43.6924,28.9846 77.7212,48.6279 123,71.0028 147.666,72.9701 304.7347,111.6206 471.00012,115.9009 18.1951,0.4684 67.6277,-0.3457 89,-1.4658 l 0,0 0,0 0,0 0,0 0,0 0,0 0,0 0,0 0,0 0,0 0,0 0,0 0,0 0,0 0,0 0,0 0,0 0,0 0,0 0,0 0,0 0,0 0,0 0,0 0,0 0,0 0,0 0,0 0,0 0,0 0,0 0,0 0,0 0,0 0,0 0,0 0,0 0,0 0,0 0,0 0,0 0,0 0,0 0,0 0,0 0,0 0,0 0,0 0,0 0,0 0,0 0,0 0,0 0,0 0,0 0,0 0,0 0,0 0,0 0,0 0,0 0,0 0,0 0,0 0,0 0,0 0,0 0,0 z m -205.4198,-46.4353 19.4821,-234.7863 104.1843,8.2281 -4.5358,48.3003 -40.6898,-3.6053 -4.4267,44.4398 38.281,2.9931 -3.2047,45.4565 -38.6862,-3.0567 -4.5768,51.4204 44.9162,3.6673 -3.2061,47.9469 -107.5375,-11.0041 z m 193.3825,11.022 -25.0506,-236.0769 32.0879,-3.3798 c 67.8921,-7.163 79.0158,-6.2797 93.3727,7.4145 10.68,10.187 15.6876,24.5518 18.0162,51.6814 1.0899,12.6978 -0.092,25.3757 -2.8733,30.8281 -2.6129,5.1215 -8.2552,9.6287 -15.2656,12.1942 -3.1625,1.1574 -5.75,2.4272 -5.75,2.8219 0,0.3946 2.9221,1.5085 6.4936,2.4753 8.1192,2.1977 13.9539,6.0189 18.6629,12.2222 4.0658,5.3561 6.2103,11.8722 7.8381,23.8169 l 8.6791,80.9859 -55.7134,5.7222 c -6.1578,-30.6387 -5.6307,-63.1858 -11.3228,-94.0132 -2.9722,-11.172 -9.6582,-10.3043 -19.0264,-9.7838 l 11.4273,106.5889 -61.5757,6.5022 z m 60.5665,-155.5567 c 1.2806,-2.3928 1.2379,-17.3681 -0.08,-27.8742 -2.1403,-14.345 -2.2918,-19.8658 -20.046,-18.6081 l 5.6976,52.2632 c 4.5249,-0.2358 11.0285,-1.7041 14.4284,-5.7809 z m -429.53732,107.4671 50.68,-182.9828 -35.0302,-9.6017 12.174,-46.0913 131.3703,36.2228 -13.3833,46.1357 -35.4666,-9.8766 -49.6546,182.7657 -60.6896,-16.5718 z m 564.38852,-175.8036 -34.8463,10.5671 -14.0341,-45.0866 128.2547,-41.0793 14.4254,45.3673 -35.2735,10.7143 58.0581,180.6816 -58.7203,19.0094 -57.864,-180.1738 z m -727.04432,110.7074 20.7172,-108.8164 -49.0004,94.6806 -45.3342,-24.5206 107.7383,-211.2225 46.2149,24.2341 -17.9044,110.4222 48.5652,-94.8751 46.2925,23.218 -109.0277,212.1335 -48.2614,-25.2538 z m 839.19712,-200.4592 53.3739,-30.3094 41.7869,73.3457 15.7164,-9.168 -41.7839,-73.4513 54.2235,-30.0555 116.0406,205.0642 -52.2594,31.5605 -50.8268,-86.1857 -14.0857,8.5932 48.3472,85.8952 -53.6713,31.0258 -116.8614,-206.3147 z m -1037.86932,73.9661 143.3111,-189.1434 49.3533,37.0809 -143.0233,189.1063 -49.6411,-37.0438 z m 1348.04192,-17.3799 c -11.2838,-3.0372 -16.4569,-6.26 -30.6928,-20.4197 l -120.8701,-132.1755 46.2413,-42.0201 61.4142,67.9219 c 33.2324,36.7125 63.152,69.3375 66.4879,72.5 6.862,6.5053 9.8368,7.2178 13.7592,3.2955 3.5969,-3.597 3.133,-7.1138 -1.8061,-13.6917 -2.3318,-3.1054 -31.413,-35.6897 -64.6248,-72.4095 l -61.5964,-69.1884 44.8661,-40.837 c 1.2799,-0.2798 102.4219,111.4072 120.2962,132.6904 13.8605,16.5037 17.4546,24.8465 17.6158,40.8907 0.1429,14.2154 -4.0864,26.2091 -13.4179,38.0519 -21.109,26.7896 -53.9819,41.7681 -77.6726,35.3915 z m -716.7058,-20.5521 c -181.72662,-11.4406 -348.77022,-80.3675 -487.00002,-200.95 -16.7386,-14.6016 -57.8397,-55.7028 -72.4413,-72.4413 -121.4658,-139.2423 -189.6984,-305.5262 -201.0657,-490 -1.2686,-20.5866 -1.2686,-71.4134 0,-92 9.757,-158.34001 61.4915,-303.52262 153.4048,-430.50002 24.1584,-33.37461 50.5071,-64.00592 83.0517,-96.55047 13.2278,-13.22776 29.9005,-29.15363 37.0505,-35.39081 139.2423,-121.46576 305.5261,-189.69836 490.00002,-201.06571 20.5866,-1.26855 71.4134,-1.26855 92,0 158.34,9.75698 303.5226,61.49149 430.5,153.40483 15.6886,11.35629 42.5228,32.85111 59.5,47.66088 16.7385,14.60157 57.8397,55.70276 72.4413,72.44128 121.4657,139.24235 189.6983,305.52621 201.0657,490.00002 2.1407,34.7402 1.0964,85.9054 -2.541,124.5 -14.6368,155.3012 -75.5326,305.3056 -173.5482,427.5 -21.1858,26.412 -34.3461,41.0293 -60.3673,67.0505 -13.2278,13.2277 -29.9005,29.1536 -37.0505,35.3908 -139.2423,121.4657 -305.5262,189.6983 -490,201.0657 -18.5887,1.1454 -76.0801,1.0754 -95,-0.1157 z m 111.7695,-31.3115 c 137.2821,-11.7137 261.6206,-55.3129 373.9382,-131.1211 65.0083,-43.8771 125.6681,-100.0554 175.0571,-162.1242 89.6195,-112.6275 146.4022,-249.0312 163.2029,-392.0462 4.1756,-35.5447 4.999,-50.8271 4.999,-92.7883 0,-41.9612 -0.8234,-57.2436 -4.999,-92.7883 -9.1253,-77.67901 -29.3551,-151.50021 -61.4425,-224.21172 -8.3276,-18.87085 -28.6833,-58.58828 -39.4635,-77 -18.6965,-31.93206 -46.528,-71.81201 -70.4409,-100.93485 -22.588,-27.50939 -58.7892,-65.18865 -85.1887,-88.66673 -83.7308,-74.46531 -184.9074,-131.17824 -291.4321,-163.35763 -55.6293,-16.80473 -109.6389,-26.8262 -171,-31.72904 -21.0282,-1.68018 -90.9718,-1.68018 -112,0 -60.6559,4.84649 -114.92312,14.85292 -169.50002,31.25442 -150.6524,45.27419 -284.5958,136.00085 -384.4889,260.43383 -46.1036,57.42943 -85.8109,125.12905 -113.4921,193.5 -26.2818,64.91471 -43.3509,131.45531 -51.4868,200.71172 -4.1756,35.5447 -4.9989,50.8271 -4.9989,92.7883 0,41.9612 0.8233,57.2436 4.9989,92.7883 9.1254,77.679 29.3552,151.5002 61.4425,224.2117 8.3277,18.8708 28.6834,58.5883 39.4636,77 19.4623,33.2401 48.3463,74.4162 72.6027,103.5 34.4495,41.3056 75.5869,81.6106 116.6244,114.2648 65.5779,52.1813 140.6535,93.946 221.8346,123.4071 63.1429,22.9149 139.49332,38.8782 207.00002,43.2794 9.35,0.6096 19.475,1.2692 22.5,1.4658 12.9912,0.8443 79.7803,-0.4304 96.2695,-1.8373 z m -878.50972,-62.0178 76.8427,-89.0741 -99.955,63.1998 -49.21021,-58.4274 162.25721,-175.0656 39.868,46.6269 -109.1935,107.4952 127.2214,-86.2128 42.7853,49.2978 -109.4861,109.0869 128.4052,-86.2232 39.6397,46.2926 -199.1137,133.9126 -50.061,-60.9087 z M 1808.1989,1704.5385 c 0.6011,-1.5665 26.2384,-37.3956 37.3778,-52.237 18.7035,-24.9191 29.1147,-34.532 40.5207,-37.4136 7.7252,-1.9517 18.2117,-1.55 25.7884,0.988 18.3218,6.1372 46.9198,27.2984 53.0009,39.2183 5.5204,9.4827 2.386,19.5298 -3.9795,31.1744 12.9829,-12.4689 25.9508,-14.4828 40.3288,-9.7393 5.6787,2.6953 18.6959,11.5679 50.4242,34.3697 25.8129,18.5506 28.8731,19.6423 27.8825,21.4932 l -32.2983,45.404 -37.9798,-26.4292 c -36.7085,-26.2123 -44.585,-31.0289 -48.9495,-29.9335 -3.3401,0.8383 -6.3438,3.2675 -10.6407,8.5811 l 86.1007,62.9887 -35.2251,50.5449 -192.3511,-139.0097 z m 99.9602,-25.543 c -9.5246,-6.8129 -15.3398,-9.9805 -18.3226,-9.9805 -4.5396,0 -8.9982,5.9042 -12.612,9.3391 0.3793,1.6906 39.7809,30.3719 41.7771,30.4149 12.0187,-13.6799 4.5243,-17.525 -10.8425,-29.7735 z M 113.28557,854.92887 l 33.3852,-99.22238 44.6916,15.62274 -13.2974,40.11336 42.0903,13.98133 12.4827,-35.71714 42.615,14.22 -11.6432,36.42365 93.41411,31.76765 -19.0939,59.01621 -224.64441,-76.20542 z m 1875.83533,73.43202 c -9.3299,-3.3036 -16.123,-12.1226 -24.5918,-31.9256 -6.8112,-15.9271 -32.3718,-88.52193 -31.4146,-89.4791 l 222.1733,-79.10655 c 1.3839,2.96565 3.2689,7.38105 5.925,14.93354 21.3284,60.64665 24.1898,70.133 25.2564,83.7318 1.1516,14.68226 -3.7952,26.88869 -15.041,37.11445 -10.6613,9.69435 -36.7164,20.74616 -51.9445,22.03346 -13.3543,2.1552 -21.6787,-8.17211 -30.0417,-18.60104 -0.7833,8.98438 -0.5412,6.12135 -0.8077,11.21584 -1.1074,21.1723 -9.9558,29.0731 -47.288,42.2238 -8.8,3.0999 -19.6,6.5054 -24,7.5678 -9.5009,2.2941 -22.1997,2.4253 -28.2254,0.2916 z m 35.7011,-67.96319 c 27.5241,-9.37165 31.0287,-11.42037 31.0187,-18.13272 -0.01,-4.22581 -0.4823,-7.40607 -2.4828,-12.45644 l -62.3182,21.65994 c 1.6029,5.81895 4.0368,8.86758 7.35,12.18079 3.5762,3.57626 7.9648,3.03639 26.4323,-3.25157 z m 90.5243,-32.09318 c 16.5657,-5.21053 25.5,-10.96471 25.5,-16.42345 0,-3.50483 -1.7767,-7.98248 -3.3516,-11.15299 l -48.7578,16.71706 c 2.1469,4.77621 -0.7829,-0.0598 3.0365,7.42699 4.0784,7.99435 7.4899,8.49108 23.5729,3.43239 z M 368.16338,755.51199 c -7.8859,-1.71421 -12.3288,-3.70452 -26.9504,-12.07317 l -148.74951,-89.67471 32.4691,-53.53038 79.16061,48.42801 c 72.3326,44.25086 88.2834,53.35036 91.4473,53.35245 1.9897,10e-4 6.1922,-4.33531 6.8246,-7.04249 1.3898,-5.94884 2.2886,-5.33978 -95.855,-64.95672 l -72.41891,-44.71148 31.5233,-52.72602 152.73181,93.27013 c 17.6794,11.57191 25.9891,22.00183 29.9783,37.62747 8.7674,34.3412 -23.5636,84.51494 -59.3473,92.09965 -8.0657,1.70962 -12.725,1.69558 -20.8139,-0.0627 l 0,-4e-5 z M 1900.8463,724.49911 c -17.2612,-4.76357 -32.1466,-17.41524 -44.0359,-37.42782 -16.707,-28.12219 -17.1926,-56.1944 -1.3105,-75.76786 1.8795,-2.31635 8.0138,-7.67415 13.6318,-11.90621 l 151.9864,-102.16349 34.333,51.88988 -81.0684,53.87333 c -43.605,29.08339 -80.2391,54.09588 -81.4091,55.58332 -2.8017,3.5618 -2.6902,6.96274 0.3272,9.98017 3.0985,3.09846 7.5064,2.71127 13.6016,-0.37743 l 158.6243,-104.55865 33.4972,51.16776 -151.1776,100.4162 c -13.911,9.17933 -23.5791,13.00521 -47,9.2908 z M 478.84628,572.83488 l -30.5625,-27.06928 41.7788,-41.9225 13.2337,14.04929 c 17.1801,18.239 21.3017,19.46555 27.0363,14.95469 4.1006,-3.22554 5.6658,-7.68952 4.3641,-12.4466 -5.5748,-13.95138 -28.337,-29.85589 -40.1617,-25.44789 -5.6038,0.67773 -16.4887,2.50278 -24.1887,4.05568 -33.6001,6.77628 -44.6284,7.34272 -57.3581,2.9461 -15.1965,-5.24863 -37.9596,-25.90781 -48.4413,-43.96404 -11.1058,-19.13133 -4.9212,-44.54549 16.3946,-67.37027 12.4656,-13.34802 24.7633,-21.92258 38.9048,-27.12626 14.7635,-5.52805 27.3402,-5.38839 41.9391,6.35092 l 26.014,23.39068 -41.2821,40.56083 -11.1854,-10.74833 c -5.7056,-5.48264 -11.5882,-10.27153 -13.0708,-10.64365 -3.9288,-0.98606 -7.5387,0.65864 -9.7478,4.44119 -1.7128,2.93269 -1.7952,3.79852 -0.7068,7.43107 1.6046,5.35564 11.6593,15.87165 18.3754,19.21841 5.7835,2.88205 10.2527,3.11986 19.6644,1.04635 39.7527,-8.75799 55.834,-10.9877 68.12,-9.44501 15.6909,1.97022 33.9664,14.30493 53.3274,35.99231 29.4837,26.97967 18.1256,56.96007 -9.3268,88.43512 -22.2088,23.26624 -58.2221,34.78133 -83.1206,13.31119 z m 1232.93752,-59.04498 165.2503,-170.33742 44.1678,43.64926 -131.1369,136.66222 26.5626,25.8254 -33.0766,33.44105 -71.7672,-69.24051 z M 645.83198,442.5885 c -13.4322,-13.45932 -23.7395,-27.69987 -34.4373,-45.84668 l 48.4806,-29.72684 c 0.376,-0.22886 4.9638,6.80985 10.0523,15.13301 14.8613,24.30821 18.6066,26.82162 27.6687,18.56771 2.9058,-2.64672 2.9981,-9.45494 0.2114,-15.59698 -2.4809,-5.46809 -9.6713,-15.55673 -14.1141,-19.80306 -6.4791,-6.19262 -8.405,-6.50603 -57.0132,-9.27819 -37.3158,-0.0866 -48.7607,-11.87864 -66.3281,-39.46873 -8.4461,-14.35112 -11.7653,-23.43777 -12.2924,-33.65204 -0.5358,-10.38232 1.0631,-16.70134 6.493,-25.66067 5.5953,-9.23211 11.2376,-15.31526 21.0044,-22.64534 25.8232,-19.38058 57.2772,-26.71691 74.871,-17.46287 10.9321,5.95888 20.3017,17.38651 32.7964,40.14227 l -48.2279,29.72489 -7.2554,-10.09106 c -10.8606,-17.67324 -14.8338,-20.17026 -21.4951,-13.50894 -2.549,2.54894 -3.4,4.26114 -3.4,6.84028 0,4.97941 5.4277,15.08412 11.3738,21.17449 6.5982,6.75827 8.9552,7.28153 36.2849,8.05528 33.6387,0.95238 47.6017,3.06346 58.8413,8.89631 19.8274,10.2896 47.5,53.55811 47.5,74.27052 0,25.0949 -31.7887,56.74122 -65.7115,65.41721 -14.5674,3.20467 -35.916,3.02508 -45.3028,-5.48057 z m 975.01432,5.38384 c -22.4833,-5.79326 -48.7203,-25.46344 -58.3033,-43.71076 -11.8852,-22.63095 -7.8728,-39.84983 20.0975,-86.2466 24.9999,-41.46948 44.8115,-72.99259 51.2983,-81.62303 8.2273,-10.94612 17.196,-17.58561 28.9578,-21.43735 15.1351,-4.95642 34.7207,-2.67869 52.2096,6.07176 29.8648,14.94267 48.0942,38.86773 47.9618,62.94715 -0.072,13.06176 -6.3424,28.41711 -22.6809,55.54147 l -10.5729,16.49476 -51.9679,-31.89006 11.7147,-20.5038 c 16.3811,-26.7096 19.7991,-33.55445 18.5855,-37.21894 -1.1966,-3.61348 -6.632,-7.38196 -10.6471,-7.38196 -2.3638,0 -4.0765,1.10022 -7.6021,4.88357 -4.4642,4.79044 -71.8369,113.97096 -75.9723,123.11643 -2.8743,6.35675 -2.692,10.52709 0.5934,13.57188 3.286,3.04541 6.7822,4.00444 10.2183,2.80296 3.4208,-1.19612 10.4187,-10.24831 22.1096,-29.44355 l 9.9454,-16.49124 52.8255,32.25417 c -5.0682,9.0748 -5.7453,9.50531 -11.8252,18.70843 -17.7923,26.93233 -28.719,36.74674 -44.6759,40.12807 -9.4937,2.01177 -23.1809,1.76858 -32.2698,-0.57336 z m -228.9949,-107.77098 76.4357,-224.03986 60.13,20.37947 -62.8857,179.44234 35.559,11.86299 -16.0685,45.23692 -93.1705,-32.88186 z m -560.29522,29.62612 -70.8051,-226.2893 76.5952,-23.59412 c 15.8051,-3.90445 26.9681,-4.70545 35.3948,-2.53975 18.7504,4.81891 30.3292,18.48309 39.7466,46.90508 3.0965,10.72015 8.3476,24.48006 0.8463,35.81213 -3.8165,5.5535 -9.6667,9.11829 -14.2708,13.89123 19.6236,3.76914 27.0373,0.13756 40.0455,23.26537 3.7298,7.70359 12.2475,32.92049 15.6434,46.31275 8.2455,31.3222 1.0157,45.83892 -29.2965,56.08543 l -93.8994,30.15118 z m 55.9427,-94.47807 c -7.5247,-23.76965 -10.1984,-28.3388 -16.5769,-28.32885 -7.4075,0.79025 -4.4351,-0.10865 -11.4664,2.7144 l 18.9106,61.87482 c 22.7793,-5.04192 15.8924,-12.16776 9.1327,-36.26037 z m -26.1303,-79.56742 c -2.045,-9.8317 -6.1178,-22.4103 -8.8109,-27.21128 -3.9882,-9.53747 -12.5212,-8.56778 -20.0092,-4.57005 l 14.6723,49.76448 c 16.2417,-4.65151 17.5435,-6.84715 14.1478,-17.98315 z m 371.47062,114.79782 32.0454,-234.344439 63.0583,8.58974 -27.4673,187.826439 36.9129,5.011 -6.7131,47.00909 -97.8362,-14.09183 z m -212.456,4.99362 15.5725,-239.145179 89.7344,-5.31115 49.75,234.645609 -62.2137,4.13757 -6.3537,-42.75644 -21.9457,1.36011 -1.5164,43.04212 -63.0274,4.02736 z m 81.8843,-90.66782 -16.2114,-95.2857 -4.2098,96.9847 20.4212,-1.699 z" id="path2838" style="fill:#262223;stroke:none"/>
    </g>
  </g>
</svg>