<svg xmlns="http://www.w3.org/2000/svg" viewBox="-279 454.5 283 283"><path fill="#B67607" d="M-136.5 737.4l-2.8-1.1c-24.9-10-45.3-23.5-62.1-39.7-16.8-16.1-29.9-35-40.4-55.8-3.7-7.5-7-14.9-9.7-22.5-2.7-7.7-4.9-15.6-6.5-23.8-4.1-21.3-4.7-45-5.5-77.1l-.8-42.9c30.1-9.1 70.4-19.4 127.8-19.4 57.3 0 97.6 10.2 127.7 19.4l-.7 42.9c-.8 32.1-1.4 55.8-5.5 77.1-1.6 8.2-3.8 16.1-6.5 23.8-2.7 7.6-5.9 15-9.7 22.5-10.5 20.8-23.6 39.7-40.4 55.8-16.8 16.2-37.2 29.6-62.1 39.7l-2.8 1.1z"/><path d="M-127.4 466.5c-1.7-1.3-4-1.8-6.4-1.8h-12.1v24.4h8.1v-7.5h4c2.9 0 5.3-.7 7-2.2 1.6-1.4 2.4-3.6 2.4-6.5 0-3-1.2-5-3-6.4zm-5 6.8c0 .7-.2 1.1-.5 1.4-.4.3-1 .5-1.8.5h-3.1v-3.8h3.1c.7 0 1.3.1 1.7.5.4.3.6.7.6 1.4zM-77.2 468.5l-.2-.6-.6-.1-5.9-.7-.7-.1-.3.7-8.3 21.5-.5 1.2 1.3.1 6 .7.8.1.3-.7 1-2.8 6.6.8 1 3.2.2.6.6.1 6.1.7 1.6.2-.5-1.5-8.5-23.4zm-5.2 12.9l1.2-3.6 1.2 3.9-2.4-.3zM-37 474.5c-1-.2-1.9-.3-2.7-.3-2.5 0-4.5.8-6.1 2.2-1.5 1.4-2.6 3.3-3 5.6-.2.9-.3 1.9-.3 3 0 3.6 1.1 7 3.2 9.7 2 2.5 4.8 4.4 8.5 5.1 1 .2 1.9.3 2.7.3 2.5 0 4.5-.8 6.1-2.2 1.5-1.4 2.6-3.3 3-5.6.2-.9.3-1.9.3-3 0-3.6-1.1-7-3.2-9.7-2-2.5-4.9-4.4-8.5-5.1zm3.8 15.4c-.2.9-.5 1.7-1 2.2-.5.5-1.1.8-1.9.8-.3 0-.6 0-.9-.1-1.4-.3-2.4-1.1-3.1-2.1-.9-1.3-1.2-3-1.2-4.6 0-.6.1-1.2.2-1.8.2-.9.5-1.7 1-2.2.5-.5 1.1-.8 1.9-.8.3 0 .6 0 .9.1 1.4.3 2.4 1.1 3.1 2.1.9 1.3 1.2 3 1.2 4.6 0 .7-.1 1.3-.2 1.8z"/><path d="M-60.5 487.7v-17.1l-.8-.2-5.8-.9-1.2-.1V493.4l.9.2 16.3 2.4 1.1.2V489.3l-.9-.1M-17.6 480.2l-4.5-1.4-1.3-.4v7.6l.7.2 1.7.5c0 .5-.1.9-.3 1.1-.2.2-.6.3-1.2.3h-1v3.8l.9.1c2 .1 3.4-.3 4.3-1.3.9-1 1.3-2.4 1.3-4.3v-5.9l-.6-.3zM-122.3 464.7l-1.1-.1V489l1 .1 6.1.2h1v-24.4h-.9M-227.1 490.9V489l10-1.7.8-.2v-6.7l-1.1.2-9.7 1.8v-1.7l11.1-2.1.7-.2v-6.8l-1.1.2-17.6 3.4-.8.2v24l1.1-.2 17.9-3.3.9-.1v-7.1l-1.2.2M-158.3 482.7v-17.4h-1l-6.1.3h-.9V489.7l-.3-.7-8.4-21.7-.3-.7-.7.1-6 .5-.6.1-.2.6-8 22c-.2-.9-.2-2.2-.3-2.9v-.4c-.1-1.2-.4-2.5-1-3.5-.3-.6-.8-1.2-1.4-1.6.6-.5 1.1-1.1 1.5-1.8.8-1.3 1.1-2.7 1.1-4.1 0-.3 0-.7-.1-1-.3-1.9-1.2-3.3-2.6-4.2-1.3-.8-3-1.2-4.7-1.2-.6 0-1.2 0-1.8.1l-11.8 1.5-.9.1v24.4l1.1-.1 6-.8.9-.1v-8.2l3.7-.5c.9-.1 1.4.2 1.7.6.4.6.5 1.6.6 2.6v.4c.1 1 .2 2.8.8 3.6l.3.5.6-.1 6-.8 2.2-.3 4.7-.4.6-.1.2-.6 1.1-3.3 6.7-.4 1 2.8.3.7.8-.1 6.1-.5 1.3-.1-.1-.3h.9l17-.7h.9v-6.9h-1l-9.9.5zm-41.1-4.2c-.3.3-.8.6-1.5.6l-4 .5v-3.1l3.9-.5h.5c.4 0 .8.1 1.1.2.2.1.3.3.3.6v.2c.1.7 0 1.2-.3 1.5zm19.2 2.6l1.2-3.9 1.2 3.7-2.4.2zM-253.9 480.1l-.7.2V504l1.2-.3 5.7-1.2.7-.2V493.6l8.3-2 .7-.2V485l-1.2.3-7.8 1.9v-1.9l9.7-2.4.8-.2v-6.9l-1.3.3M-92.6 482.4c0-2.3-.9-4-2.4-5.3-1.3-1.2-3.1-1.9-4.8-2.5l-.9-.3h.4l5.8.4 1.1.1v-1.1c0-2.6-1.1-4.7-2.8-6.1-1.9-1.6-4.5-2.5-7.1-2.7h-1c-2.1 0-4.2.4-5.9 1.5-1.8 1.1-3.1 2.8-3.2 5.2v.5c0 2.4 1 4.1 2.4 5.3 1.4 1.2 3.1 1.9 4.8 2.5.6.2 1.2.4 1.7.6 2.2.7 4 1.3 4 2.2v.1c0 .3-.2.5-.5.7-.4.2-1 .3-1.6.3h-.4c-1-.1-1.9-.3-2.4-.7-.5-.4-.8-1.1-.9-2.1v-.9l-.9-.1-5.8-.4-1.1-.1v1.1c0 3 1.1 5.2 2.9 6.8 2 1.8 4.8 2.7 7.7 2.9h1.3c2.3 0 4.5-.4 6.2-1.5 1.8-1.1 3-3 3.2-5.7.2-.2.2-.4.2-.7zm-8.5-8.3c-.2-.1-.4-.1-.7-.2-2.1-.6-3.7-1.2-3.7-1.8v-.1c0-.2.1-.4.3-.5.3-.2.7-.2 1.2-.2h.3c.8.1 1.6.3 2.2.7.3.3.5.7.5 1.2l-.1.9z"/><path fill="#FFF" d="M-22.4 479.8v5.5l2.4.6c.1 2.4-.7 3.2-2.5 3.1v1.9c3.3.2 4.6-1.3 4.6-4.6v-5.2l-4.5-1.3zM-122.4 488.1l6.1.2v-22.5l-6.1-.1M-84.1 468.1l-8.3 21.5 6 .7 1.3-3.5 8 .9 1.2 3.8 6.1.7-8.3-23.4-6-.7zm.4 14.1l2.5-7.6h.1l2.5 8.1-5.1-.5zM-61.4 471.4l-5.9-.9v22.1l16.3 2.5v-5l-10.4-1.6M-37.2 475.4c-7-1.4-10.9 3-10.9 9.5s3.9 12.5 10.9 13.9c7 1.4 10.9-3 10.9-9.5s-3.9-12.5-10.9-13.9zm0 18.4c-3.7-.8-5.1-4.4-5.1-7.7s1.4-6.4 5.1-5.6c3.7.8 5.1 4.4 5.1 7.7.1 3.3-1.4 6.3-5.1 5.6zM-100 475.5c-3.3-1.1-6.5-1.7-6.5-3.4 0-1.5 1.6-1.8 2.8-1.7 1.8.1 3.7.9 3.6 2.9l5.8.4c0-5.1-4.5-7.5-8.9-7.8-4.2-.3-9.1 1.3-9.1 6.2 0 4.1 3.3 5.8 6.5 6.9 3.2 1.1 6.4 1.7 6.4 3.7 0 1.7-1.8 2.2-3.6 2.1-2.5-.2-4.1-1.1-4.2-3.8l-5.8-.4c0 5.8 4.6 8.3 9.7 8.7 4.9.3 9.7-1.2 9.7-6.9.1-4-3.2-5.7-6.4-6.9zM-228.1 488.1l10.8-1.8v-4.7l-10.8 1.9v-3.6l11.9-2.3v-4.8l-17.6 3.4v22l17.9-3.2v-5.1l-12.2 2.2M-133.8 465.7h-11.1v22.4h6.1v-7.5h5c5.1 0 8.5-2.2 8.5-7.8 0-5.2-4.2-7.1-8.5-7.1zm-.9 10.5h-4.1v-5.8h4.1c1.9 0 3.3.8 3.3 2.9 0 2.1-1.4 2.9-3.3 2.9zM-195.6 481.7c2.4-1.3 3.6-3.7 3.6-6.2 0-4.5-4-5.8-8.1-5.3l-11.8 1.5v22.4l6-.8v-8.2l4.6-.6c2.8-.4 3.2 1.9 3.4 4.1.1.6.2 2.8.7 3.5l6-.8c-.8-.7-.9-4-1-4.9-.2-1.9-.9-4.5-3.4-4.7zm-5.2-1.6l-5.1.7v-5.1l4.8-.6c1.7-.2 3.1.4 3.1 2 0 1.7-1 2.8-2.8 3zM-253.6 502.7l5.7-1.2v-8.7l9-2.1v-4.5l-9 2.2v-3.8l10.4-2.6v-5l-16.1 4M-182 468.2l-8.4 23.2 6-.5 1.3-3.9 8.1-.5 1.2 3.5 6.1-.5-8.4-21.7-5.9.4zm.4 14l2.6-8.1h.1l2.5 7.6-5.2.5zM-159.3 466.3l-6.1.2V489l17-.7v-5.1l-10.9.5"/><path fill="#279234" d="M-235.1 637.5c20.2 40.2 50.7 72.6 98.6 91.9V497.2c-43.2 0-83.7 6.5-119.5 17.1.8 33.2 1.3 57.4 5.5 78.8 2.9 15.7 8.2 30.1 15.4 44.4z"/><path fill="#243C98" d="M-136.5 497.2v232.1c47.9-19.3 78.4-51.7 98.6-91.9 7.1-14.2 12.4-28.6 15.5-44.3 4.1-21.4 4.6-45.6 5.5-78.8-36-10.6-76.4-17.1-119.6-17.1z"/><path d="M-102.8 681c0-.5-.1-1-.2-1.5s-.2-1-.4-1.4c-.2-.5-.3-.9-.6-1.3-.2-.4-.5-.8-.7-1.2-.3-.4-.6-.7-.9-1.1-.3-.3-.7-.6-1.1-.9-.4-.2-.8-.5-1.3-.6-.5-.2-1-.3-1.5-.4-.5-.1-1.1-.1-1.7-.1-.5 0-1.1 0-1.6.1s-1 .2-1.5.4-.9.4-1.3.7l-1.2.9c-.4.3-.7.7-1 1.1-.3.4-.5.9-.7 1.3-.2.5-.4 1-.5 1.5-.1.5-.2 1.1-.2 1.6s0 1 .1 1.5.2.9.4 1.4c.2.4.4.9.6 1.3.2.4.5.8.8 1.1.3.3.7.6 1 .9.3.2.7.4 1.1.6h-4l.2 1c.1.6.3 1.2.5 1.8.2.6.5 1.1.9 1.5.3.4.7.8 1.1 1.2.4.3.9.6 1.4.8.5.2 1 .4 1.6.5.6.1 1.1.2 1.8.2.6 0 1.2-.1 1.8-.1.6-.1 1.1-.2 1.6-.4s1-.4 1.4-.7c.4-.3.8-.6 1.2-1 .3-.4.7-.7 1-1.1.3-.4.5-.9.8-1.3l.6-1.5c.2-.5.3-1 .4-1.6.1-.5.2-1.1.2-1.6 0-.6.1-1.1.1-1.7-.1-.8-.1-1.4-.2-1.9zm-6.4 5.9l-.3.6c-.1.2-.2.3-.3.5-.1.1-.3.2-.4.3-.1.1-.3.2-.5.2-.2.1-.4.1-.6.1h-.3c-.1 0-.2 0-.3-.1-.1 0-.2-.1-.3-.1-.1 0-.2-.1-.2-.1-.1 0-.1-.1-.2-.1l-.2-.2c0-.1-.1-.1-.1-.2s-.1-.2-.1-.3v-.1c.3 0 .6.1.9.1.6 0 1.2-.1 1.8-.2l.9-.3c.1 0 .2-.1.3-.2 0 0 0 .1-.1.1zm.3-6.2c0 .2-.1.4-.2.6-.1.2-.2.3-.3.5l-.4.4c-.2.1-.3.2-.5.2-.2.1-.4.1-.7.1-.2 0-.4 0-.7-.1-.2-.1-.4-.1-.5-.2-.2-.1-.3-.2-.4-.3-.1-.1-.2-.3-.3-.5-.1-.2-.2-.4-.2-.6 0-.2-.1-.4-.1-.7 0-.2 0-.4.1-.6 0-.2.1-.4.2-.5.1-.2.2-.3.3-.4.1-.1.3-.2.4-.3.2-.1.3-.2.5-.2.2-.1.4-.1.6-.1.3 0 .5 0 .7.1.2 0 .4.1.6.2.2.1.3.2.4.3.1.1.2.3.3.4.1.2.2.3.2.5s.1.4.1.6c0 .2-.1.4-.1.6zM-119.7 679.9c-.1-.5-.2-1-.4-1.5-.1-.5-.3-.9-.5-1.4-.2-.5-.4-.9-.7-1.3-.3-.4-.6-.8-.9-1.1-.3-.4-.7-.7-1.1-.9-.4-.3-.8-.5-1.3-.7-.5-.2-1-.3-1.5-.4-.5-.1-1.1-.1-1.7-.1-.6 0-1.1.1-1.6.1-.5.1-1 .2-1.5.4s-.9.4-1.3.7c-.4.3-.7.6-1.1.9-.3.3-.6.7-.9 1.1-.3.4-.5.8-.7 1.3-.2.4-.4.9-.5 1.4-.1.5-.3 1-.3 1.5-.1.5-.2 1-.2 1.5s-.1 1.1-.1 1.6 0 1.1.1 1.6c0 .5.1 1 .2 1.5l.3 1.5c.1.5.3.9.5 1.4.2.5.4.9.7 1.3.3.4.5.8.9 1.1.3.4.7.7 1.1.9.4.3.8.5 1.3.7.5.2.9.3 1.5.4.5.1 1.1.1 1.6.1.6 0 1.2-.1 1.7-.1.5-.1 1-.2 1.5-.4s.9-.4 1.3-.7c.4-.3.8-.6 1.1-.9.3-.3.6-.7.9-1.1.3-.4.5-.8.7-1.3.2-.4.4-.9.5-1.4.1-.5.3-1 .4-1.5.1-.5.2-1 .2-1.5s.1-1.1.1-1.6 0-1-.1-1.6c-.1-.5-.1-1-.2-1.5zm-5.7 3.1v1.6c0 .2 0 .5-.1.8 0 .3-.1.5-.1.7 0 .2-.1.5-.2.7-.1.2-.1.4-.2.6-.1.2-.2.3-.3.4l-.3.3c-.1.1-.3.1-.4.2-.2 0-.4.1-.6.1-.2 0-.4 0-.6-.1-.1 0-.3-.1-.4-.2l-.3-.3c-.1-.1-.2-.3-.3-.4-.1-.2-.2-.4-.2-.6-.1-.2-.1-.4-.2-.6 0-.2-.1-.5-.1-.7 0-.3-.1-.5-.1-.8v-.8-.8-.8-.8c0-.2 0-.5.1-.8 0-.3.1-.5.1-.7 0-.2.1-.4.2-.6.1-.2.1-.4.2-.6.1-.2.2-.3.3-.4l.3-.3c.1-.1.2-.1.4-.2.2 0 .4-.1.6-.1.2 0 .4 0 .6.1.2 0 .3.1.4.2l.3.3c.1.1.2.3.3.4.1.2.2.4.2.6.1.2.1.4.2.6 0 .2.1.5.1.7 0 .3.1.5.1.8v1.5zM-160.5 687.8c.1-.1.3-.2.4-.3.1-.1.3-.2.6-.4.2-.1.4-.3.6-.4.4-.2.7-.4 1-.6.3-.2.7-.4 1-.6.3-.2.7-.5 1-.7.3-.3.6-.5.9-.8.3-.3.5-.6.8-.9.2-.3.4-.7.6-1.1.2-.4.3-.8.4-1.3.1-.4.1-.9.1-1.4 0-.5 0-.9-.1-1.3l-.3-1.2c-.1-.4-.3-.7-.5-1-.2-.3-.4-.6-.7-.9-.2-.3-.5-.5-.8-.8l-.9-.6c-.3-.2-.7-.3-1-.5-.4-.1-.7-.2-1.1-.3-.4-.1-.8-.2-1.1-.2-.4 0-.8-.1-1.2-.1-.6 0-1.2.1-1.8.2-.6.1-1.1.3-1.6.5s-1 .5-1.4.8c-.4.3-.8.7-1.2 1.1-.4.4-.7.8-.9 1.3-.3.5-.5 1-.7 1.5-.2.5-.3 1.1-.4 1.7-.1.6-.1 1.2-.1 1.8v.8h5.8v-.8-.7c0-.2.1-.4.1-.6 0-.2.1-.4.2-.5.1-.2.1-.3.2-.4l.3-.3c.1-.1.2-.2.4-.2.1-.1.3-.1.5-.2.2 0 .4-.1.7-.1.2 0 .4 0 .5.1.1 0 .3.1.4.1.1.1.2.1.3.2.1.1.2.2.2.3.1.1.1.2.1.4s.1.3.1.5c0 .1 0 .3-.1.4 0 .1-.1.2-.1.4-.1.1-.2.3-.3.4-.1.1-.2.3-.4.4-.2.1-.3.3-.5.4-.2.1-.4.3-.6.4l-.1.1c-.5.3-1 .6-1.4.9-.3.2-.5.3-.8.5l-.9.6-.9.6c-.3.2-.6.5-.9.7-.3.3-.6.6-.9 1-.3.3-.5.7-.8 1.1-.2.4-.4.7-.6 1.1-.2.4-.3.8-.5 1.2-.1.4-.2.9-.3 1.3-.1.4-.1.9-.1 1.3v.8h16.5v-5.6h-7.7zM-136.5 679.9c-.1-.5-.2-1-.4-1.5-.1-.5-.3-.9-.5-1.4-.2-.5-.4-.9-.7-1.3-.3-.4-.6-.8-.9-1.1-.3-.4-.7-.7-1.1-.9-.4-.3-.8-.5-1.3-.7-.5-.2-1-.3-1.5-.4-.5-.1-1.1-.1-1.7-.1-.6 0-1.1.1-1.6.1-.5.1-1 .2-1.5.4s-.9.4-1.3.7c-.4.3-.7.6-1.1.9-.3.3-.6.7-.9 1.1-.3.4-.5.8-.7 1.3-.2.4-.4.9-.5 1.4-.1.5-.3 1-.3 1.5-.1.5-.2 1-.2 1.5s-.1 1.1-.1 1.6 0 1.1.1 1.6c0 .5.1 1 .2 1.5l.3 1.5c.1.5.3.9.5 1.4.2.5.4.9.7 1.3.3.4.5.8.9 1.1.3.4.7.7 1.1.9.4.3.8.5 1.3.7.5.2.9.3 1.5.4.5.1 1.1.1 1.6.1.6 0 1.2-.1 1.7-.1.5-.1 1-.2 1.5-.4s.9-.4 1.3-.7c.4-.3.8-.6 1.1-.9.3-.3.6-.7.9-1.1.3-.4.5-.8.7-1.3.2-.4.4-.9.5-1.4.1-.5.3-1 .4-1.5.1-.5.2-1 .2-1.5s.1-1.1.1-1.6 0-1-.1-1.6c0-.5-.1-1-.2-1.5zm-5.7 3.1v1.6c0 .2 0 .5-.1.8 0 .3-.1.5-.1.7 0 .2-.1.5-.2.7-.1.2-.1.4-.2.6-.1.1-.2.3-.3.4l-.3.3c-.1.1-.3.1-.4.2-.2 0-.4.1-.6.1-.2 0-.4 0-.6-.1-.1 0-.3-.1-.4-.2l-.3-.3c-.1-.1-.2-.3-.3-.4-.1-.2-.2-.4-.2-.6-.1-.2-.1-.4-.2-.6 0-.2-.1-.5-.1-.7 0-.3-.1-.5-.1-.8v-.8-.8-.8-.8c0-.2 0-.5.1-.8 0-.3.1-.5.1-.7 0-.2.1-.4.2-.6.1-.2.1-.4.2-.6.1-.2.2-.3.3-.4l.3-.3c.1-.1.2-.1.4-.2.2 0 .4-.1.6-.1.2 0 .4 0 .6.1.2 0 .3.1.4.2l.3.3c.1.1.2.3.3.4.1.2.2.4.2.6.1.2.1.4.2.6 0 .2.1.5.1.7 0 .3.1.5.1.8v1.5z"/><path fill="#FFF" d="M-121.4 677.4c-.4-.8-.9-1.5-1.5-2.2-.6-.6-1.3-1.1-2.1-1.4-.8-.3-1.8-.5-2.9-.5-1.1 0-2 .2-2.8.5-.8.3-1.5.8-2.1 1.4-.6.6-1 1.3-1.4 2.2-.4.8-.6 1.7-.8 2.7-.2 1-.2 2-.2 3s.1 2 .2 3c.2 1 .4 1.9.8 2.7.4.8.8 1.6 1.4 2.2.6.6 1.3 1.1 2.1 1.5.8.3 1.7.5 2.8.5 1.1 0 2-.2 2.9-.5.8-.4 1.5-.8 2.1-1.5.6-.6 1.1-1.3 1.5-2.2.4-.8.7-1.7.8-2.7.2-1 .3-2 .3-3s-.1-2-.3-3c-.1-1-.4-1.9-.8-2.7zm-3.3 7.2c0 .6-.1 1.1-.2 1.6s-.3 1-.5 1.4c-.2.4-.5.8-.9 1-.4.3-.9.4-1.5.4s-1-.1-1.4-.4c-.4-.3-.7-.6-.9-1-.2-.4-.4-.9-.5-1.4-.1-.5-.2-1.1-.2-1.6V683v-1.6c0-.6.1-1.1.2-1.6s.3-1 .5-1.4c.2-.4.5-.8.9-1 .4-.3.8-.4 1.4-.4.6 0 1.1.1 1.5.4.4.3.7.6.9 1 .2.4.4.9.5 1.4.1.5.2 1.1.2 1.6v1.6c.1.5.1 1.1 0 1.6zM-161.6 687.6c.3-.3.7-.5 1-.8.4-.2.8-.5 1.2-.8.7-.4 1.3-.9 2-1.3.6-.4 1.2-.9 1.7-1.4.5-.5.9-1.1 1.2-1.8.3-.7.4-1.5.4-2.4 0-.8-.1-1.6-.4-2.2-.2-.7-.6-1.2-1-1.7s-.9-.9-1.5-1.2c-.6-.3-1.2-.6-1.9-.7-.7-.2-1.4-.2-2.1-.2-1.2 0-2.2.2-3.1.6-.9.4-1.7.9-2.4 1.6-.6.7-1.1 1.5-1.4 2.5-.3 1-.4 2.1-.4 3.2h4.2c0-.5.1-1 .2-1.5s.3-.9.5-1.2c.2-.4.5-.6.9-.8.4-.2.9-.3 1.5-.3.5 0 .9.1 1.3.3.4.2.6.5.8.8.2.4.3.8.3 1.3 0 .4-.1.8-.3 1.2-.2.4-.5.7-.9 1-.4.3-.8.6-1.3 1-.5.3-1 .6-1.5 1-.5.3-1.1.7-1.7 1.1-.6.4-1.1.8-1.6 1.3-.6.5-1.1 1.2-1.6 1.8-.4.7-.8 1.4-1 2.2-.2.8-.3 1.6-.4 2.4h14.9v-4h-8.8c.5-.3.9-.7 1.2-1zM-103.8 679.6c-.2-.9-.5-1.8-.9-2.6s-.9-1.5-1.5-2c-.6-.6-1.3-1-2.2-1.3-.8-.3-1.8-.5-2.9-.5-1 0-1.9.2-2.7.5-.9.3-1.6.8-2.3 1.4-.7.6-1.2 1.3-1.5 2.2-.4.8-.6 1.8-.6 2.8 0 .9.2 1.8.5 2.6s.7 1.5 1.3 2.1c.5.6 1.2 1 2 1.4.8.3 1.6.5 2.5.5.5 0 1.1-.1 1.6-.2s1-.4 1.5-.7c.4-.3.8-.7 1.1-1.2h.1c0 .6-.1 1.2-.2 1.8-.1.6-.3 1.1-.6 1.6s-.6.8-1 1.1c-.4.3-.9.4-1.6.4-.3 0-.6 0-.8-.1-.3-.1-.5-.2-.8-.3-.2-.1-.4-.3-.6-.5-.2-.2-.3-.5-.3-.8h-4.2c.2 1.2.6 2.2 1.2 2.9.6.8 1.3 1.3 2.2 1.7.9.4 1.9.6 3 .6 1.2 0 2.2-.2 3.1-.5.9-.4 1.7-.8 2.3-1.5.6-.6 1.2-1.4 1.6-2.2.4-.9.7-1.8.9-2.8.2-1 .3-2.1.3-3.2-.2-1.2-.3-2.2-.5-3.2zm-4.6 2c-.2.5-.6.8-1.1 1.1-.5.3-1 .4-1.7.4-.6 0-1.2-.1-1.6-.4-.4-.3-.8-.7-1-1.1-.2-.5-.4-1-.4-1.6 0-.5.1-1 .4-1.5.3-.5.6-.8 1-1.1.4-.3.9-.4 1.5-.4.7 0 1.2.1 1.7.4.5.3.8.6 1.1 1.1.2.5.4 1 .4 1.5.1.6-.1 1.2-.3 1.6zM-138.1 677.4c-.4-.8-.9-1.5-1.5-2.2-.6-.6-1.3-1.1-2.1-1.4-.8-.3-1.8-.5-2.9-.5-1.1 0-2 .2-2.8.5-.8.3-1.5.8-2.1 1.4-.6.6-1 1.3-1.4 2.2-.4.8-.6 1.7-.8 2.7-.2 1-.2 2-.2 3s.1 2 .2 3c.2 1 .4 1.9.8 2.7.4.8.8 1.6 1.4 2.2.6.6 1.3 1.1 2.1 1.5.8.3 1.7.5 2.8.5 1.1 0 2-.2 2.9-.5.8-.4 1.5-.8 2.1-1.5.6-.6 1.1-1.3 1.5-2.2.4-.8.7-1.7.8-2.7.2-1 .3-2 .3-3s-.1-2-.3-3c-.2-1-.4-1.9-.8-2.7zm-3.3 7.2c0 .6-.1 1.1-.2 1.6s-.3 1-.5 1.4c-.2.4-.5.8-.9 1-.4.3-.9.4-1.5.4s-1-.1-1.4-.4c-.4-.3-.7-.6-.9-1-.2-.4-.4-.9-.5-1.4-.1-.5-.2-1.1-.2-1.6V683v-1.6c0-.6.1-1.1.2-1.6s.3-1 .5-1.4c.2-.4.5-.8.9-1 .4-.3.8-.4 1.4-.4.6 0 1.1.1 1.5.4.4.3.7.6.9 1 .2.4.4.9.5 1.4.1.5.2 1.1.2 1.6v3.2z"/><path d="M-27.5 576.9l-.2-.3v-.1c-.9-1.5-1.7-2.9-1.9-4.9-.2-1.9-.6-3.6-1.2-5s-1.3-2.6-2-3.5c-.9-1.2-1.9-2.1-3-2.6s-2.2-.7-3.4-.7h-.1c-2.2 0-4.2 1.2-5.6 3.2-1.3 1.9-2.2 4.5-2.2 7.5v.2c.1 3.8.7 6.2 1.6 9.2.1.5.3 1.1.5 1.7.8 3 2.6 6.5 4.4 10 .5.9.4.8.6 1.2.7 1.4 1.3 2.4 1.8 3.4 2.2 4.1 3.7 6.8 3.8 11.6 0 1.3-.1 2.5-.4 3.5-.3.9-.7 1.6-1.3 2.1-.3.3-.7.5-1.1.7-.4.2-.9.3-1.6.3-2 0-3.2-.3-4-.9-.8-.6-1.2-1.6-1.7-2.9-.5-1.3-1.1-2.6-1.9-3.9-.8-1.3-1.7-2.7-2.7-4-.4-.6-1-1.3-1.7-2.1-3.1-3.9-6.1-7.8-6.8-11.3-.4-2-.4-4.2-.5-6.3-.1-2.5-.1-5-.7-7.3-.4-1.4 0-.9.4-.5.3.4 1.5 1.3 2 1.2.7-.1.4-1.4.3-2.1-.1-.6-.2-1.2-.3-1.9v-.7h2.5c.3 0 1.2 0 1.4-.2.5-.4 0-1.3-.5-1.8-.6-.7-1.2-1.4-1.7-2.1-.2-.2-.3-.4-.5-.7h1.6c.4 0 2 0 2.2-.3.5-.5-.8-1.4-1.3-1.8l-.6-.6c-1-.9-1.7-1.5-2.4-2.5-.3-.3-.5-1.1-.5-1.7v-.2c.3 0 .5.2.7.3.2.1.3.2.6.3 0 0 .1 0 .1.1.3.1.7.2 1.1.3.5.1 1.2.1 1.4.1.3 0 1.3.1 1.6-.2.5-.5-.2-1.4-.7-1.9-.6-.6-1-1.1-1.4-1.6-.4-.5-.7-.9-1.1-1.3-.1-.1-.3-.4-.4-.8h.2c.4 0 .8-.1 1.2-.1.4 0 .7-.1 1.2-.1.3 0 1.1 0 1.3-.2.5-.5-.1-1.4-.6-1.9-1.4-1.3-1.4-1.6-1.4-4.4v-.2c0-2.3-.2-3.5-1-4.6-.8-1-1.9-1.6-3.8-2.5 0 0-.1-.1-.2-.1h2.6c.2 0 .8 0 1-.1.6-.3.8-.7.5-1.3-.2-.4-.9-1.2-1.1-1.5-.3-.4-.5-.8-.7-1.2 0 0-.1-.2-.1-.3h1c.3 0 .9 0 1.1-.2.5-.4.7-1 .2-1.5-.9-1.1-1.8-2.7-2.3-4.1-.6-1.4-1.1-2.7-2-3.9-.2-.2-.4-.4-.7-.5-.1-.3-.2-.5-.4-.7-.6-.5-1.2-.9-1.9-1.2-.6-.3-1.3-.6-1.8-.7-.4-.2-.8-.3-1.3-.4-.5-.1-1-.2-1.6-.2h-.1c-.2 0-.4 0-.6.1-.2-.2-.4-.3-.6-.4-.2-.1-.5-.1-.7-.2-.2 0-.5-.1-.9-.1-.8 0-1.3.2-1.8.3-.3.1-.5.1-.5.1l-.3-.3-.3-.3c-.2-.2-.4-.3-.6-.3-.1-.3-.2-.5-.4-.7-.3-.3-.7-.5-1.1-.6-.4-.2-.9-.3-1.4-.2-1.9 0-2.5.4-3.6 1.1h-.1l-.1.3c-.2.1-.5.3-.8.5-1 .7-2.5 1.9-3.8 1.9-1.2 0-1.9.1-2.4.2-.8.2-1.1.5-1.4 1-.1.2-.4.5-.7.9-.3.2-.5.4-.6.7-.3.3-.7.6-1.1 1-.3.2-1.2.8-2.2 1.4-2.3 1.4-5.6 2.7-6.6 5.3-.5 2.3 1.7 4.6 2.4 5.1.3.7.7 1.4 1.2 1.9.5-.5.8-.8 1-1.1h.8c1.1 0 2.3.2 3.3-.1 1.4-.2 1.2 1.3.4 1.7-.1 0-.3.1-.4.2h-.1c-.7.4-1.1.6-2.9.7-.4 0-.7.1-1 .2-.5-.6-.7-.7-1.1-.8-.3.3-.6 1.1-.6 2.4-.1.4-.2.8-.2 1.2 0 .5.2 1.1.4 1.5.3.5.7.9 1.2 1.2.4.2.8.3 1.4.3 1.3 0 2.1-.7 2.9-1.5l.2-.2c.2-.2.4-.4.7-.5.2-.2.5-.3.7-.4.5-.3.6-.4.7-.4.8-.5 1.4-.9 2-.9 0 .4-.1.6-.3.9-.1.1-.1.2-.1.2-.3.6-.5 1-.5 1.4 0 .4.1.8.4 1.1.3.3.8.4 1.2.3h.1c.3-.1.7-.3 1-.7 0 .2-.1.4-.2.6-.1.2-.2.5-.4.7-.4.4-.8.9-1.3 1.4-.8.7-1.6 1.5-2.1 2.3-.1.2-.2.3-.4.5v.1l-.3.6c-.1.2-.6 1.1-.6 1.3 0 .7.7.6.4 1-.3.5-.6.9-.7 1.4-.2.6-.4 1.3-.5 2h-.1c-1.9-.5-4-1.2-6.2-2-1.9-.7-3.9-1.5-5.8-2.4-1.8-.9-3.5-1.9-5.1-3-1.6-1.1-3.1-2.3-4.5-3.6-1.9-1.7-3.8-3.4-4.8-5.4-.1-.2-.2-.4-.4-.7-.1-.2-.3-.4-.4-.6l-.9-1.2c0-.4.1-.9.1-1.3.1-1.2.3-2.4.3-3.7v-.2h.1c2.3-.2 4.3-1 5.8-2.4s2.5-3.3 3-5.8l.1-.7c.8-.6 1.4-1.4 1.9-2.3.5-1.1.9-2.4 1-3.9l1-1.1c.8-.9 1.5-2.1 1.9-3.5.4-1.4.6-3.1.6-5.1v-4.9l-.1.1v-1.7l-1.5.2c-2.8.5-4.8 1.6-6.3 3.3-.1.1-.1.2-.2.3l-1.7.7c-1.8.8-3.1 1.8-4 3.1-.3.4-.6.9-.8 1.4l-1.5 1.2c-1.3 1.1-2.4 2.3-3.2 3.6-.8 1.3-1.3 2.7-1.7 4.1l-.9 3.9.2-.2v.1c-.4 1.7-.4 3.8-.1 6l.3 2.3c0 .4.1.8.1 1.3l-.6.2c-.7-.1-1.3.1-1.8.6l-.2.2c-.1.2-.3.4-.6.7-.9.9-2.1 2.3-2.4 3.5-2.6-.6-5.3-1-8.1-1-3.2 0-6.3.5-9.2 1.3-.1-.3-.2-.5-.5-.8-.2-.2-.4-.4-.8-.6-.2-.2-.5-.3-.7-.5-1.6-.8-3.3-.6-4.9.1-1.4.6-2.7 1.8-3.6 3-.3.4-.5.7-.7 1.1-.6 1.3-1.9 2.7-3.3 4.2-1.8 1.7-3.8 3.3-5.4 4.3-.3.2-.7.4-1.2.7-2.7 1.8-7.8 5.1-16.9 7.3l-.3.1c-.2-.9-.3-1.6-.6-2.4-.2-.5-.5-.9-.7-1.4-.3-.4.4-.3.4-1 0-.2-.5-1.1-.6-1.3l-.3-.6v-.1c-.1-.2-.2-.4-.4-.5-.6-.8-1.4-1.5-2.1-2.3-.5-.5-1-.9-1.3-1.4-.2-.2-.3-.4-.4-.7-.1-.2-.1-.4-.2-.6.4.4.7.6 1 .7h.1c.5.1.9 0 1.2-.3.3-.3.4-.7.4-1.1 0-.3-.2-.8-.5-1.4 0-.1-.1-.2-.1-.2-.1-.2-.3-.5-.3-.9.5.1 1.1.5 2 .9.1.1.2.1.7.4.2.1.4.3.7.4.3.2.5.4.7.5l.2.2c.9.8 1.6 1.5 2.9 1.5.5 0 1-.1 1.4-.3.5-.3.9-.7 1.2-1.2.3-.5.4-1 .4-1.5 0-.4 0-.8-.2-1.2 0-1.3-.3-2.1-.6-2.4-.3.1-.6.2-1.1.8-.3-.1-.6-.2-1-.2-1.8 0-2.3-.3-2.9-.7h-.1l-.4-.2c-.8-.4-1-1.9.4-1.7 1 .3 2.2.1 3.3.1h.8c.3.3.6.6 1 1.1.4-.5.9-1.2 1.2-1.9.7-.5 2.8-2.8 2.4-5.1-1-2.6-4.3-3.9-6.6-5.3-1-.6-1.9-1.1-2.2-1.4-.5-.3-.8-.7-1.1-1-.2-.3-.4-.5-.6-.7-.3-.4-.6-.7-.7-.9-.3-.5-.6-.8-1.4-1-.5-.1-1.2-.2-2.4-.2-1.3 0-2.9-1.2-3.8-1.9-.3-.2-.5-.4-.8-.5l-.2-.1h-.1c-1-.7-1.7-1-3.6-1.1-.6 0-1 .1-1.4.2-.4.2-.8.4-1.1.6-.2.2-.4.4-.4.7-.2 0-.5.1-.6.3l-.3.3-.3.3s-.2-.1-.5-.1c-.5-.1-1-.3-1.8-.3-.3 0-.6 0-.9.1-.2 0-.5.1-.7.2-.2.1-.5.2-.6.4-.2-.1-.4-.1-.6-.1h-.1c-.6 0-1.2.1-1.6.2-.5.1-.9.2-1.3.4-.5.2-1.2.4-1.8.7-.7.3-1.3.7-1.9 1.2-.2.2-.4.4-.4.7-.3.1-.5.2-.7.5-.9 1.2-1.5 2.6-2 3.9-.5 1.3-1.4 2.9-2.3 4.1-.4.5-.3 1.1.2 1.5.2.2.8.2 1.1.2h1c0 .1-.1.3-.1.3-.2.4-.4.8-.7 1.2-.2.3-.9 1.1-1.1 1.5-.3.6-.1.9.5 1.3.2.1.8.1 1 .1h2.6c-.1.1-.1.1-.2.1-1.9.9-3 1.4-3.8 2.5-.8 1-1 2.3-1 4.6v.2c0 2.8 0 3-1.4 4.4-.5.5-1.1 1.4-.6 1.9.2.2 1 .2 1.3.2.5.1.9.1 1.2.1.4 0 .8.1 1.2.1h.2c-.2.4-.3.7-.4.8-.4.5-.7.9-1.1 1.3-.4.5-.9 1-1.4 1.6-.5.5-1.2 1.4-.7 1.9.2.2 1.3.2 1.6.2.3 0 .9 0 1.4-.1.5 0 .9-.1 1.1-.3 0 0 .1 0 .1-.1l.6-.3c.2-.1.5-.3.7-.3v.2c0 .6-.2 1.4-.5 1.7-.8.9-1.4 1.5-2.4 2.5l-.6.6c-.5.5-1.8 1.3-1.3 1.8.3.3 1.9.3 2.2.3h1.6c-.2.2-.3.4-.5.7-.5.7-1.1 1.4-1.7 2.1-.4.5-1 1.4-.5 1.8.2.2 1.2.2 1.4.2h2.5v.7c-.1.6-.2 1.3-.3 1.9-.1.7-.4 1.9.3 2.1.5.1 1.7-.7 2-1.2.4-.4.7-1 .4.5-.6 2.3-.6 4.8-.7 7.3-.1 2.2-.1 4.3-.5 6.3-.7 3.5-3.8 7.4-6.8 11.3-.6.8-1.2 1.5-1.6 2.1-1.1 1.4-2 2.7-2.7 4-.8 1.3-1.4 2.6-1.9 3.9-.5 1.3-1 2.3-1.7 2.9-.8.6-2 .9-4 .9-.7 0-1.2-.1-1.6-.3-.4-.2-.7-.4-1.1-.7-.6-.5-1-1.3-1.3-2.1-.3-1.1-.5-2.3-.4-3.5.1-4.8 1.6-7.5 3.8-11.6.5-1 1.1-2 1.8-3.4l.6-1.2c1.8-3.5 3.6-7 4.4-10 .2-.7.3-1.2.5-1.7.9-3.1 1.6-5.4 1.6-9.2v-.2c0-3-.8-5.6-2.2-7.5-1.4-2-3.4-3.2-5.6-3.2h-.1c-1.2 0-2.3.2-3.4.7-1.1.5-2.1 1.3-3 2.6-.7.9-1.4 2.1-2 3.5-.6 1.4-1.1 3.1-1.2 5-.2 2-1 3.4-1.9 4.9v.1l-.2.3c-.8 1.3-1.6 2.8-1.6 4.7 0 .6 0 1.1.1 1.5.1.4.2.7.3 1 .1.2.2.3.3.5l.1.1c-.1.2-.1.4 0 .6 0 .1 0 .3.1.4v.6c0 1.5.2 2.7.3 3.7.1.4.1.8.1 1 0 .6.8 2.5 1.4 2.5.5 0 1.8-1.9 2-2.3l.1-.2c.1-.3.2-.6.1-.9.2-.1.5-.2.6-.4v-.1c.4-.5.8-1.1 1.3-1.8s1-1.4 1.6-2.3c1.6-2.3 2.3-4.3 2.7-5.9.4-1.6.4-2.9.4-3.5 0-.9-.2-1.7-.4-2.5-.3-.9-.7-1.7-1.2-2.4-.3-.4-.5-.8-.6-1.2-.1-.4-.2-.8-.2-1.4 0-.7.2-1.6.4-2.4.2-.8.6-1.6.8-1.9.3-.4.6-.7 1-.9.4-.2 1.1-.3 2-.3 1.1 0 2 .8 2.7 1.9 1 1.7 1.5 4 1.5 5.8 0 2.1-.4 4.5-1 6.9-.7 2.7-1.7 5.4-2.7 7.6l-.8 1.7c-.9 2-1.9 4-2.9 5.9v.1l-.4.8c-3 5.6-5.5 10.4-5.5 15.8 0 1.1.1 2.3.3 3.4.3 1.2.7 2.4 1.5 3.5.6.9 1.3 1.8 2.3 2.4 1 .6 2.3 1.1 4 1.1 2 0 3.9-.4 5.3-.7.6-.1 1-.2 1.1-.2.4 0-.4.6-.3 1.4 0 .4.1.8.1 1 .2 1.4.4 2.5.8 3.7.4 1.2 1 2.3 1.9 3.4 2.2 2.6 4.2 3.9 6.1 5.1 1.3.8 2.6 1.6 3.7 2.9.9.9 1.6 1.9 2.2 3.1.5 1.1.8 2.5.8 4 0 .5 0 1-.1 1.5 0 .5-.1 1-.3 1.6-.1.5-.4 1-.7 1.6-.4.7-1 1.3-1.6 1.9-1.3 1.3-2.4 2.5-3 3.8-.8 1.5-.9 3-.1 4.7.2.5.5.8.9 1.2.3.3.7.6 1.1.8.2.1.4.2.7.2h.1c.1.2.3.4.6.5l.4.2c1.3.7 2.9 1.5 4.2 2.3 1.3.8 2.3 1.5 2.8 2.2.2.2.3.5.4.8.4.9.9 1.9 2.7 3.2l.2.1c1.1.8 1.8 1.4 4 1.4 3 0 4.9 1.7 7.3 3.9l.1.1c.6.5 1.4.8 2.1.8.3 0 .6-.1.9-.2.3-.1.5-.3.8-.5.3.5.8.7 1.6.5h.1c2.5-.6 2.7-4.3 2.6-6.3 0-.8-.5-1.5-1-2 0 0 0-.1-.1-.1l-.8-.8c-1.3-1.2-2.9-1.6-4.5-2.1-1-.3-2.1-.6-3.2-1.1-1.6-.8-3.2-2.1-4.6-3.4-.4-.3-.7-.6-1-.8-.2-.2-.4-.4-.7-.6l-.6-.6c-.7-.8-1.2-1.4-1.4-2.1-.3-.7-.3-1.4-.4-2.3 0-2.4.9-3.4 1.7-4.4.3-.3.5-.6.8-1 1.1-1.4 2-2.6 3-3.9 1-1.3 2-2.5 3.2-4 .9-1.1 1.5-2.3 1.9-3.5.5-1.4.7-2.8.7-4.1 0-1.1-.1-2.3-.4-3.5-.2-1.1-.6-2.2-1-3.1v-.2c0-.1 0-.1-.1-.2-.1-.2-.2-.5-.3-.7.2-.1.4-.3.5-.4.1-.1.2-.3.4-.4.2-.1.3-.3.6-.4.3-.2.8-.2 1.2-.2h.3c1.5.1 2.9.8 3.9 1.7 1 .9 1.5 2.1 1.5 3.1v.1c0 .7-.3 1.5-.5 2.3-.3 1-.6 1.9-.6 2.8 0 1.2.4 2.1 1.5 3 .9.7 2.2 1.2 4.2 1.8h.1c2.6.7 5.7 1.6 8.9 4.2 1.5 1.2 2.7 2.1 3.8 2.7 1.2.6 2.2.9 3.3.9.5 0 .9-.1 1.3-.2.4-.2.8-.4 1.2-.8.1-.1.3-.1.5-.1.4-.1.8-.1 1.1-.1 1 0 1 0 1.1.2.3.6.5 1 .7 1.3 0 0 0 .1.1.1.4.4.8.6 1.3.7.7.1 1.4-.2 1.8-.9.2-.3.3-.6.4-1 .2.1.3.1.5.1.4 0 .7-.1.9-.3.3-.2.6-.7.7-1 .2-.4.4-.9.5-1.4.2.1.4.2.7.2 1 0 1.4-.6 1.4-2.2 0-.6-.1-1.2-.4-1.8-.3-.5-.7-1-1.2-1.6-.9-.9-2-1.8-3-2.3-1.1-.6-2.2-1-3.2-1-1.1 0-1.8.3-2.6.7-.6.3-1.3.6-2.3.6-.7 0-1.6-.3-2.4-.6-.9-.4-1.9-.9-2.6-1.4-2-1.3-3.3-2.1-4-3.1-.6-.8-.9-1.8-.9-3.3 0-2.8.9-4.6 1.7-6.1.8-1.5 1.5-2.8 1.5-4.8v-.4c-.1-1.7-.8-3.7-2.1-5.4-1.4-1.7-3.3-2.9-5.9-2.9h-.5c-3.2.2-5.2.2-6.7-.2s-2.7-1.1-4.5-2.4l-.1-.1c-.1-.1-.3-.2-.4-.3-.2-.1-.3-.2-.5-.2 0-.2.1-.4.1-.6v-.1c0-.2.1-.4.1-.6.1-.2.1-.4.2-.5.8-1.6 1.8-3 2.8-4.2 1.2-1.5 2.4-2.6 3.4-3.2 2.8-2 3.3-3.5 3.9-5 .1-.2.2-.5.3-.7.1-.2.1-.4.1-.6.2-.1.3-.2.4-.4.1-.1.1-.2.1-.2l.1-.1.1-.1c1-1.2 1.8-1.8 2.4-2.2.2-.1.4-.2.5-.2.9 1.8 1.9 2 2.9 1.5.4-.2.7-.5 1.1-.9l.5-.5c1-.8 1.1-.8 1.4-.7.3.1.7.1 1.4.1.4 0 .7-.1.9-.2 1.7 4.8 4.4 9.1 7.9 12.6 6 6.1 14.4 9.8 23.6 9.8 9.2 0 17.6-3.7 23.6-9.8 3.5-3.5 6.2-7.7 7.9-12.5.2 0 .3.1.6.1.7 0 1.1-.1 1.4-.1.3-.1.4-.1 1.4.7.2.1.4.3.5.5.3.3.6.7 1.1.9 1.1.5 2 .3 2.9-1.5.1 0 .3.1.5.2.6.3 1.5 1 2.4 2.2l.1.1.1.1s.1.1.1.2c.1.2.3.3.4.4 0 .2 0 .4.1.6.1.3.2.5.3.7.5 1.5 1.1 3 3.9 5 .9.7 2.1 1.8 3.4 3.2 1 1.2 1.9 2.6 2.8 4.2.1.1.1.3.2.5s.1.4.1.6v.1c0 .2.1.4.1.6-.2 0-.4.1-.5.2-.1.1-.2.2-.4.3l-.1.1c-1.8 1.3-3 2-4.5 2.4-1.5.4-3.4.4-6.7.2h-.5c-2.6 0-4.5 1.2-5.9 2.9-1.3 1.6-2 3.7-2.1 5.4v.4c0 1.9.7 3.3 1.5 4.8.8 1.6 1.8 3.3 1.7 6.1 0 1.5-.2 2.5-.9 3.3-.7.9-2 1.8-4 3.1-.8.5-1.7 1-2.6 1.4-.9.4-1.7.6-2.4.6-1 0-1.7-.3-2.3-.6-.8-.4-1.5-.7-2.6-.7-1 0-2.1.4-3.2 1s-2.1 1.4-3 2.3c-.5.5-.9 1.1-1.2 1.6-.3.6-.5 1.2-.4 1.8 0 1.6.4 2.2 1.4 2.2.3 0 .5-.1.7-.2.1.6.3 1.1.5 1.4.1.3.4.7.7 1 .3.2.6.3.9.3.2 0 .3 0 .5-.1.1.4.2.8.4 1 .4.7 1.1 1 1.8.9.6-.1.9-.2 1.3-.7l.1-.1c.3-.3.4-.7.7-1.3.1-.2.1-.2 1.1-.2.3 0 .7 0 1.1.1.2 0 .4.1.5.1.3.4.7.6 1.2.8.4.2.9.2 1.3.2 1.1 0 2.2-.3 3.3-.9 1.1-.6 2.3-1.4 3.8-2.7 3.2-2.6 6.3-3.5 8.9-4.2h.1c2-.5 3.3-1.1 4.2-1.8 1.1-.8 1.5-1.8 1.5-3 0-1-.3-1.9-.6-2.8-.3-.8-.5-1.6-.5-2.3v-.1c0-1 .6-2.2 1.5-3.1 1-1 2.3-1.7 3.9-1.7h.3c.5 0 .9 0 1.2.2.2.1.4.3.6.4.2.1.3.3.4.4.1.2.3.3.5.4-.1.3-.2.5-.3.7 0 .1-.1.1-.1.2v.2c-.4.9-.8 1.9-1 3.1-.2 1.1-.4 2.3-.4 3.5 0 1.3.2 2.7.7 4.1.4 1.2 1.1 2.4 1.9 3.5 1.2 1.4 2.1 2.6 3.2 4 1 1.3 2 2.5 3 3.9.3.4.5.7.8 1 .9 1 1.8 2 1.7 4.4 0 .9-.1 1.6-.4 2.3-.3.7-.7 1.4-1.4 2.1l-.6.6c-.2.2-.5.4-.7.6-.2.2-.6.5-1 .8-1.5 1.2-3 2.6-4.6 3.4-1.1.5-2.2.8-3.2 1.1-1.7.5-3.2.9-4.5 2.1l-.8.8-.1.1c-.5.6-1 1.2-1 2 0 2 .1 5.8 2.6 6.3h.1c.8.2 1.3 0 1.6-.5.2.2.5.4.8.5.3.1.6.2.9.2.8 0 1.6-.3 2.1-.8l.1-.1c2.4-2.2 4.2-3.9 7.3-3.9 2.2 0 3-.6 4-1.4l.2-.1c1.8-1.3 2.3-2.3 2.7-3.2.1-.3.3-.6.4-.8.5-.7 1.5-1.4 2.8-2.2 1.3-.8 2.9-1.6 4.2-2.3l.4-.2c.2-.1.4-.3.6-.5h.1c.2 0 .5-.1.7-.2.4-.2.8-.5 1.1-.8.4-.3.7-.7.9-1.2.8-1.7.7-3.2-.1-4.7-.7-1.3-1.8-2.5-3-3.8-.6-.6-1.1-1.2-1.6-1.9-.3-.5-.6-1.1-.7-1.6-.1-.6-.2-1.1-.3-1.6-.1-.5-.1-1-.1-1.5 0-1.5.3-2.8.8-4 .5-1.2 1.3-2.2 2.2-3.1 1.2-1.2 2.4-2 3.7-2.9 1.9-1.2 3.9-2.5 6.1-5.1.9-1.1 1.5-2.2 1.9-3.4.4-1.1.6-2.3.8-3.7 0-.2.1-.6.1-1 .1-.7-.7-1.4-.3-1.4.1 0 .5.1 1.1.2 1.3.3 3.3.7 5.3.7 1.7 0 3-.4 4-1.1 1-.6 1.7-1.5 2.3-2.4.8-1.1 1.2-2.3 1.5-3.5.3-1.2.3-2.3.3-3.4 0-5.4-2.6-10.2-5.5-15.8l-.4-.8v-.1c-1-2-2-4-2.9-5.9l-.8-1.7c-1-2.2-2-4.9-2.7-7.6-.6-2.4-1-4.7-1-6.9 0-1.8.5-4.1 1.5-5.8.7-1.1 1.6-1.9 2.7-1.9.9 0 1.6.1 2 .3.4.2.7.5 1 .9.3.4.6 1.1.8 1.9.2.8.4 1.7.4 2.4 0 .5-.1 1-.2 1.4-.1.4-.3.8-.6 1.2-.5.7-.9 1.5-1.2 2.4-.3.8-.4 1.6-.4 2.5 0 .6 0 1.8.4 3.5.4 1.6 1.2 3.7 2.7 5.9.6.8 1.1 1.6 1.6 2.3.5.7.9 1.3 1.3 1.8v.1c.2.2.4.4.6.4-.1.3 0 .6.1.9l.1.2c.2.4 1.5 2.3 2 2.3.7 0 1.4-1.9 1.4-2.5 0-.3.1-.6.1-1 .1-1 .3-2.2.3-3.7v-.6c0-.2 0-.3.1-.4v-.6l.1-.1c.1-.1.2-.3.3-.5.1-.3.2-.6.3-1 .1-.4.1-.9.1-1.5.6-2-.3-3.4-1-4.8zm-145.6-4.6c1-.4 1.5-1 2.1-1.7.4-.5.8-1 1.5-1.3-.2 1.3-.3 2.6-.3 4-1.1-.3-2.2-.6-3.3-1zm70.8-14.2c2 .9 4 1.8 6 2.5 1.1.4 2.2.8 3.3 1.1-.6.4-1.1 1-1.4 1.9-.1.2-.1.5-.2.7 0 .2-.1.4-.1.6-.1 1 .2 1.7.7 2.2l.1.1c-.4.4-.9.8-1.4 1.2-.8.6-1.6 1.1-2.5 1.5-.6 0-.9 0-1.1-.1-.2-.1-.5-.4-1-1.1-.6-.9-1.5-1.5-2.7-2.3-.7-3.2-1.8-6.1-3.3-8.9l-1.2-2.1c1.5 1 3.1 1.9 4.8 2.7zm-.7 15.1c0-1.4-.2-2.9-.4-4.3.7.5 1.2.9 1.5 1.3.8 1 1.2 1.5 1.9 1.9.1 0 .1 0 .2.1-1 .4-2.1.7-3.2 1z"/><path fill="#FFF" d="M-152 599c-3.5-1.9-6.8-5.2-10-9.6-1-.2-2-.5-3-.8 3.2 6.2 8.3 11.3 14.6 14.3-.2-.4-.4-.7-.5-1.1-.5-.9-.8-1.8-1.1-2.8zM-136.5 596.7c-2.3-.4-4.2-1-5.8-1.7-2.2 1.8-5 3.1-8.3 4.1.2.7.5 1.4.8 2.2.4.8.8 1.6 1.4 2.5 3.7 1.5 7.8 2.3 12.1 2.3 2.7 0 5.4-.3 7.9-1l2.7-1.8-2.9-5.5c-2.9-.3-5.6-.6-7.9-1.1zM-118.7 573.5c1.5 0 2.6.4 3.8.9 1 .4 2 .8 3.1.8 1.6 0 3.7-.6 5.6-1.1.6-.2 1.3-.4 1.9-.5v-.3l-1.2.3c-.8-2.8-1.8-5.6-3-8.4-2-.6-4.9-.9-8-1.1l-5.5 10.3c.3-.2.7-.3 1-.4 1-.4 1.7-.4 2.3-.5zM-154.4 573.5c.6 0 1.3.1 2.1.3.8.3 1.7.7 2.6 1.5.5.5 1 1 1.4 1.5.4.6.8 1.2.9 2 .3 1.3.4 2.1-.3 2.5h1.3l9.1-9.4-2.4-12.8c-1.6-.7-3.4-1.3-5.2-1.8-2.2-.6-4.6-.9-6.8-1.1-3.4 2.6-6.4 5.7-9 9.3v.1c.3 3 .7 6 1.4 9 .3-.1.7-.2 1-.4 1.2-.2 2.4-.7 3.9-.7zM-161.4 575.2c.3 0 .6 0 .9-.1-.7-3-1.1-6.1-1.4-9.1l-4.9-2.3c-1.1 3.1-1.7 6.5-1.7 10 .5.1 1 .3 1.5.4 2 .5 4 1 5.6 1.1zM-163.3 584.5c-.4.1-.8.1-1.3.1-.7 0-1.1-.1-1.5-.2-.2 0-.4-.1-.7-.1.3.9.7 1.9 1.1 2.7.3.1.7.3 1.1.4.9.3 1.7.5 2.6.7l1-3.8h-.2c-1.2 0-1.7.1-2.1.2zM-151.2 547.8l.1 7.4c2.2.2 4.4.6 6.6 1.1 1.9.5 3.8 1.1 5.5 1.9 3.6-1.8 7.3-3.5 11.1-5l-.2-7.6c-3.2-1.7-6.6-2.8-10.2-3.6h-.6c-2.2.9-4.4 1.8-6.5 2.8-2.1.9-4.1 1.9-5.8 3zM-106 584.3c-.4 0-.6 0-.9.1-.2.4-.4.8-.7 1.1-.5.7-1 1.5-1.6 2.2-.2 1.7-.6 3.3-1 5 1.8-2.6 3.2-5.4 4.2-8.4zM-146 543.6c.6-.3 1.1-.5 1.7-.8-3.6.9-7 2.4-10 4.5h1.3c2.1-1.3 4.5-2.5 7-3.7zM-111.9 584.3c-.3 0-.5.1-.7.3-.5.4-1.1.7-2.3.7-.6 0-1.1-.1-1.5-.2-.2 0-.3-.1-.3-.1-.5 0-.8.4-1.1.7-.5.7-1 1.4-2.2 1.4h-.2c-.5 0-1.1-.2-1.5-.6-.2-.2-.4-.4-.5-.7-.1 0-.1.1-.2.1-.3.1-.6.2-.9.1h-.2c-.3-.1-.6-.4-.8-.6-.4-.7-.7-1.3-.8-2.1 0-.5.1-1 .3-1.5h-.3c-1.2-.3-1.2-1.1-.8-2.7.2-.7.5-1.4.9-2 .4-.5.9-1 1.4-1.5.1-.1.2-.2.3-.2l-13-2.6-9.5 9.8 3.7 11.5c1.5.7 3.4 1.2 5.6 1.6 2.4.5 5.1.8 8 1 3.2-3 6.1-6.1 8.4-9.1 1 0 1.6-.5 2-1l7.5.7c.6-.8 1.2-1.5 1.7-2.2.1-.1.1-.2.2-.2-.6 0-.9-.1-1.3-.1-.3-.4-.8-.5-1.9-.5zM-116.8 562.7c3.1.2 6 .5 8.2 1.1v-5.9c-3-5.1-7.3-9.3-12.5-12.2h-5.8l.2 7.5c4.1 3.1 7.6 6.3 9.9 9.5z"/><path fill="#B67607" d="M-120.7 543c-.1.1-.2.2-.3.2l1 1.6c.3.2.7.4 1 .6v-1.2c0-2.6.5-5.2.6-7.8h-.1v-.1l-.4.2c-.5.3-1.1.5-1.7.7l-.7.3c.2.1.3.2.5.3.4.3.7.6.9.8l.3.3v.5c0 .7-.2 1.8-.6 2.5 0 .5-.3.8-.5 1.1zM-150.6 576.3c-1.4-1.3-2.9-1.5-3.9-1.5-2.5 0-4.2 1.6-6.9 1.6-2.5 0-5.6-1.2-8.2-1.8-3.6-.9-6.9-2.1-10-4.3-2.1-1.5-2.8-3.2-2.9-3.7 0-1 1.5-.7 1.5-1.4 0-.5-.1-1-.5-1.3-.9-.7-1.7-.2-2.5-.9-.1-.1-.4-.4-.6-.7-2.9.2-4.8.7-7.7-1.3-.5-.3-2.2-.5-3.1-1-1-.5-1.6-1.5-2.1-1.9-.6.5-1.7 1.7-2.3 2.1-.2.2-.6.1-.8-.1-.6-.5-1.4-2.2-2.1-3.6-1.4 3.2.2 5.9-2 9.8-.1.3-.5.4-.7.3-.3-.1-.6-.3-.9-.4-.6.5-1.2 1.2-1.8 1.9-.6.7-1.1 1.4-1.4 1.9-.3.6-.4 1.2-.5 1.8-.1.6-.1 1.3-.1 2.1 0 .3-.3.6-.6.6h-1.5c-.3.6-.7 1.2-.8 1.7-1 4-.3 9.2-1.2 13.6-.9 4.5-5.1 9.3-8.7 13.9-2 2.6-3.5 5.2-4.4 7.7-1.2 3-2.2 4.6-6.9 4.6-1.7 0-2.7-.5-3.5-1.3-1.6-1.5-2.2-4-2.1-6.6.2-6.4 2.4-9.1 5.7-15.5 2-3.9 4.1-7.8 5-11 1.1-3.9 2-6.3 2.1-10.6.1-5.6-3-9.7-6.6-9.7-2 0-3.7.6-5.4 2.8-1.3 1.7-2.7 4.3-3 7.9-.2 2.3-1.1 3.8-2 5.4-.7 1.3-1.6 2.6-1.6 4.3 0 1.1.1 1.7.3 2.1l1.4-1.4c-.3-.5-.5-1-.5-1.6-.1-1 .3-2 .6-2.5l.9-1.5c.3-.5.5-1 .8-1.5.2-.3.5-.4.8-.2.3.2.4.5.2.8l-.9 1.5-.9 1.5c-.2.4-.5 1.1-.4 1.8 0 .3.1.5.2.7.5-.6 1.1-1.2 1.8-2 .4-.4.6-.7.7-1.1.1-.4.1-.8.1-1.5 0-.3-.1-.7-.1-1.2-.1-.5-.1-1-.1-1.4 0-.3.3-.6.6-.6s.6.3.6.6.1.8.1 1.3c.1.5.1.9.1 1.3 0 .8 0 1.3-.2 1.8s-.4 1-.9 1.6c-.9 1.1-1.6 1.8-2.3 2.5l-2.2 2.2c-.1.1-.1.1-.2.1.1.3.1.7.1 1.3 0 2 .4 3.6.5 4.6.1 1.2.7.6 1.1-.2 0-.1.1-.1.1-.2v-.1c-.4-1-.6-2.1-.5-3 0-1 .3-1.9.8-2.6.3-.5.7-.9 1.2-1.3.8-.9 1.8-1.9 2.4-3.4.1-.3.5-.5.8-.4.3.1.5.5.4.8-.7 1.8-1.8 2.9-2.7 3.9-.4.4-.8.8-1 1.2-.4.5-.6 1.2-.6 2 0 .5 0 1 .1 1.5v-.1c.8-1.1 1.8-2.4 2.9-4.1 2.9-4.2 2.9-7.6 2.9-8.7 0-1.6-.6-3-1.4-4.2-.7-1-1-2-1-3.3 0-1.7.8-4.1 1.5-5 .8-1.1 1.7-1.8 4-1.8 3.8 0 5.5 5.4 5.5 8.9 0 4.7-1.8 10.8-3.9 15-1.2 2.6-2.4 5.3-3.8 7.8-3.1 5.8-5.8 10.7-5.8 16 0 2.1.3 4.3 1.6 6.2 1.1 1.6 2.4 2.9 5.3 2.9 2.7 0 5.6-.9 6.4-1 .9 0 .9 1.7 1.1 3.5.3 2.6.8 4.4 2.4 6.4 3.6 4.3 6.8 4.9 9.7 7.9 2 2 3.3 4.5 3.3 7.9 0 1-.1 2.2-.3 3.4-.3 1.4-1.4 2.9-2.6 4.1-2.4 2.4-4.2 4.5-2.9 7 .3.6.8 1 1.6 1.4 0-1.3-.1-3.1.3-4 .4-1 1.2-1.5 2-2.2.8-.7 1.8-1.4 2.3-2.7.1-.3.5-.5.8-.3.3.1.5.5.3.8-.7 1.6-1.7 2.5-2.7 3.2-.7.5-1.3 1-1.6 1.7-.3.6-.2 2.3-.2 3.5v.6c.1.1.3.1.4.2 2.7 1.3 6.3 3.2 7.5 4.8.8 1 .7 2.1 2.9 3.7 1 .7 1.6 1.3 3.5 1.3 3.6 0 5.6 1.9 8.2 4.3.7.7 2.4.7 2.4-.6 0-2-1.6-2-1.6-3.4 0-1.1 1-.8 1.7-.1.7.7 1.3 2 1.3 2.3.3 1.4-.2 2.3.6 2.1 1.1-.3 1.3-1.3 1.1-2.1-.2-1-.8-1.9-1.7-2.4-1-.5-1.4-1.3-1.1-1.7.2-.3.9-.6 1.8.1.4.3.7.6.9.8.8.7.8.1.4-.5-.3-.5-.9-1.1-1.2-1.3-1.9-1.7-4.6-1.6-7.4-3-2.1-1-4.1-2.9-5.9-4.4-.5-.4-1-.9-1.4-1.3-1.7-1.8-2.1-3.2-2.1-5.3-.1-3.6 1.6-4.6 2.8-6.1 2.2-3 3.8-4.9 6.2-7.9 1.7-2.1 2.4-4.7 2.4-6.8 0-2.1-.5-4.5-1.3-6 0-.1-.1-.2-.1-.2s0-.1-.1-.1c-.6-1.5-1.7-4.3-3.2-6.9-.4-.7-.8-1.3-1.2-1.9-.6-.8-1.2-1.5-1.7-2-1-.9-2.3-1.8-3.6-2.5-1-.5-2.1-.8-3.1-.8-3.1 0-3.9.9-5.3 2.2l-.1.1c-.2.2-.6.2-.9 0-.2-.2-.2-.6 0-.9l.1-.1c1.6-1.6 2.6-2.6 6.2-2.6 1.2 0 2.4.4 3.6 1 1.5.7 2.9 1.7 3.9 2.6.5.5 1.1 1.1 1.6 1.8.6-.5 1.3-1.1 1.9-1.8 1-1.1 1.8-2.2 2.2-2.9.6-1.1 1.1-2.2 1.5-3.4.4-1.3.8-2.7 1.1-4.7.1-.6.2-1.2.5-1.7 2-3.8 4.7-6.5 6.5-7.8 3-2.2 3.1-3.6 3.7-5.2-1.1-1.2-1-1.5-.8-2.3.1-.3.2-.7.2-1.4 0-.1.1-.2 0-.2-.2 0-.5.1-.8.3-.2.1-.4.2-.7.3-.4.2-.9.4-1.3.6-.2.1-.4.2-.5.4l-.9.6c-.8.4-1.5.4-1.9-.5-.1-.1-.2-.1-.4 0-.3.1-.6.2-1.1.2-1.2 0-1.2-.6-1.1-1.2 0-.2 0-.6-2.2-.5-1.1 0-1.7.1-2-.4-.3-.5-.1-1 .3-2.1.1-.3.2-.6.2-.9 0-.2 0-.4-.1-.5 0-.1-.1-.1-.2-.2h-.3c-.4 0-1 .6-1.7 1.2-.5.4-1 .9-1.5 1.2-.7.4-1.9.4-2.9.3h-.6c-.3 0-.6-.3-.6-.6s.3-.6.6-.6h.6c.8 0 1.8.1 2.3-.2.1 0 .1-.1.2-.1h-3.1c-.3 0-.6-.3-.6-.6s.3-.6.6-.6h4.5c.7-.6 1.4-1.1 2.1-1.1.3 0 .5 0 .7.1.4.1.7.4.9.7.2.3.2.7.2 1.1 0 .4-.1.9-.3 1.3-.3.7-.4 1-.4 1 0 .1.3-.1 1-.1 3.5-.1 3.6.9 3.5 1.7.2 0 .4-.1.6-.1.8-.2 1.3-.4 1.9.6 0 0 .1 0 .3-.1.2-.1.5-.3.8-.5.2-.1.4-.3.6-.4.4-.3 1-.5 1.5-.7l.6-.3c.5-.2 1-.4 1.4-.4.7 0 1.1.4 1.1 1.4 0 .9-.1 1.4-.3 1.7-.1.2-.1.4.2.8.1-.2.2-.3.4-.5 2.5-3 4.3-3.3 4.9-2.2 1 2.1 1.6.6 2.7-.2 2-1.6 1.7-.9 3.6-.8.7 0 .6-.9 1.7-1 1.1 0 1.3.3 2.5.3 1 0 1.3-.3 3.4-.3 1.3 0 1.4 1 3 1 .8 0 1.4-.3 1.8-.3 2.1 0 1.9 2.1 3.3 2.1.6 0 1.3-.3 1.2-1.5 0-.7-.3-1.9-1.3-2.9-.6-.6-2.4-1.5-2.3-2.5.1-.5.5-.7.9-.6.9.1 2.2 1.8 3.3 3.4.4.7.9 1.3.9 1.9-.1 1.3.3 1.1.5.9.7-1 .9-1.9-.1-3.3-.4-.6-1.3-1.6-1.9-2.3-.9-.9-1.4-1.1-1.4-1.7 0-1 1.6-.8 2.9.7 2.2 2.5 2.4 3 1.9 1-.5-.8-1.3-1.7-2.3-2.6zm-52.7 90c.1-.3.4-.5.8-.4.7.2 1.2.5 1.7.8.5.3.8.7 1.1 1.2.2.3.1.7-.1.9-.3.2-.7.1-.9-.1-.3-.4-.6-.7-.9-.9-.3-.3-.7-.5-1.3-.6-.3-.2-.5-.6-.4-.9zm1.4-23.5c.5-.5 1-1 1.4-1.5.4-.5.8-1 1.1-1.6.2-.3.6-.4.9-.2.3.2.4.6.2.9-.3.6-.7 1.2-1.2 1.7-.4.6-.9 1.1-1.5 1.6-.2.2-.6.2-.9 0-.3-.3-.3-.7 0-.9zm-12.2-11.1c.5.3 1.1.6 1.8.9.7.3 1.4.5 2.2.7.3.1.5.3.5.6 0 .8 0 1.6.2 2.4.1.7.4 1.5.8 2.1.2.3.1.7-.2.9-.3.2-.7.1-.9-.2-.6-.8-.8-1.7-1-2.6-.1-.7-.2-1.4-.2-2.1-.7-.2-1.3-.4-1.9-.6-.7-.3-1.4-.6-2-1-.3-.2-.4-.6-.2-.9.3-.3.6-.4.9-.2z"/><path fill="#B67607" d="M-215.2 549.8c.9-.7 1.8-1.3 2.7-2-.2-.4-.3-.7-.5-1.1-1-1.9-1.7-3.3-.4-6 .3-.5.9-1.2 1.7-1.8.8-.6 1.7-1.2 2.7-1.6.3-.1.7 0 .8.3.1.3 0 .7-.3.8-.9.4-1.7.9-2.4 1.5-.7.5-1.2 1-1.3 1.4-1 2.1-.5 3.3.3 4.9.1.3.3.6.4.9.4-.2.7-.5 1-.7l.1-.1c-.2-.8-.4-1.9-.2-3 .2-.9.6-1.8 1.6-2.1.3-.1.7 0 .8.3.1.3 0 .7-.3.8-.5.2-.7.7-.8 1.2-.1.7 0 1.5.1 2.1h.1c1.5-.8 3.4-1.8 4.1-3.9.1-.3.5-.5.8-.4.3.1.5.5.4.8-.9 2.5-3 3.6-4.7 4.5-.2.1-.5.3-.7.4-.2.1-.3.2-.5.3-.5.3-1.1.7-1.6 1.1-1 .7-2 1.4-3 2.2-1.3 1-2.5 2.2-3.3 3.5.5.4-.5 2.3-.7 2.5-.8 1-1.4 1.7-2.6 3 .4 0 1.7-.1 2-.2.8-.4 1.2-.8 2.1-.8 1.7 0 1 3 .3 3.9-1 1.2-1.7 1.8-3.2 3.1 1.7 0 3.2.1 3.7.4-.9 1.5-2 3-3.3 4.5h3.7c.1 1.4 0 2.7-.3 4.1l1.5-2.4c.5-.4 1.7.4 2 .9h.8c0-.5 0-1.1.1-1.6.1-.7.3-1.4.6-2.2.3-.6.9-1.4 1.5-2.1.5-.6 1.1-1.3 1.7-1.8-.1-.1-.3-.2-.4-.3l-2-1.3c-1.7 2.1-2.2 2.7-5 2.7-.4 0-.7-.3-.6-.8.5-2.8 1.4-1.8 2.1-4.1.5-1.7.5-3.3.3-5.1-.1-1.6-.2-2.7 1.2-4.5 1.1-1.3 1.8-2.3 2.6-3.7.4-.7 1.5-.1 1.1.6-.9 1.5-1.6 2.5-2.7 3.9-1.5 1.8-.8 3-.8 5.3 0 1.5 0 2.4-.5 3.8-.7 2.2-1.5 2-1.9 3.2 2-.1 2.2-.9 3.6-2.7.5-.6 1.2.1 1.9.6l3.1 2c1.8-3.7-.1-6.6 2.4-10.3.3-.4.9-.4 1.1.1.6 1.2 1.5 3 2 3.9.5-.5 1.4-1.4 2.1-1.9.2-1.9.6-2.6 1.8-4.6l.9-1.5c.3-.6.4-1.8.3-2.5-.2-.8 1.1-1 1.2-.2.2.9.1 2.4-.4 3.3-.5 1-1.9 3.1-2.2 3.9l-.3 1.6c.7.5 1.4 1.5 2 1.8.7.4 2.4.6 3.2 1 2.4 1.4 3.3 1.4 6.2 1.1h.3c-.3-1.8-.6-2.9-1.7-4-.3-.3-.3-.4-.1-.6h-.3c-2.4.1-3.9.1-4.6-1.5-.1-.3 0-.7.3-.8.3-.1.7 0 .8.3.4.8 1.6.8 3.5.8h.7c-.2-.4-.4-.7-.7-1.1-.9-1.2-2.5-2.5-3.4-3.5-.7-.8-.9-1.9-.9-2.4 0-.6.2-1 .9-1 .4 0 1 .1 1.3.4.7.7.9.4.3-.6-.3-.5-.6-.9-.6-1.7 0-1.2.3-1.3 1-1.3 1.1 0 2 .7 3.5 1.6.6.3 1.1.7 1.6 1.1.8.7 1.4 1.4 2.4 1.4 1.5 0 2-1.7 1.5-2.8-.1-.2-.5-.6-1.5-.7-2.5 0-2.9-.5-4-1.1-1.3-.7-1.8-2.2-1.9-2.8-.1-1.1.5-2.2 1.6-2.2.9 0 3 1 4.5 1 1.8 0 3.1-.8 3.2-2.3.1-1.4-.6-3.4-1.7-4.5-.6-.7-4.7-2.9-5.6-3.6-1.6-1.2-2.4-2.3-2.8-2.8-.3-.5-.5-.6-2.8-.7-2.2 0-4.3-2-5.3-2.6-1-.6-1.5-1-3.2-1-.8 0-1.3.2-1.7.6.6.3 1.1.5 1.5.7.6.4 1.1.7 1.7 1.3.3.3.9.8 1.4 1.4.3.4.7.9.9 1.3.2.3 0 .7-.3.8-.3.2-.7 0-.8-.3-.2-.3-.4-.7-.7-1-.5-.5-1-1-1.2-1.3-.6-.5-1-.9-1.5-1.2-.5-.3-1.1-.5-1.9-.9-.2.2-.5.4-.8.6-.9.6-1.6-.2-3-.2-.5 0-.9.1-1.3.2 1.3 1.3 3.3 2.7 4 3.8.4.6.2 1.2 0 1.8-.4.9-1.5 1.2-2.4 1.3v.6c.1.2.7.4 1.4.5.6.2 1.3.3 1.8.6.3.2.4.6.2.9 0 0 0 .1-.1.1-.4.5-1.1 1-1.8 1.4.3.1.6.2 1 .2.3.1.6.1.8.2.4-.4.9-.7 1.5-.8.3-.1.7.2.7.5.1.3-.2.7-.5.7-.7.1-1.2.8-1.8 1.7-.8 1.2-1.8 2.6-4 3.4-.3.1-.7-.1-.8-.4-.1-.3.1-.7.4-.8 1.8-.6 2.7-1.9 3.4-2.9.1-.1.1-.2.2-.3-.1 0-.2 0-.3-.1-.8-.2-1.8-.4-2.4-1l-.1-.1c-.2-.3-.1-.7.2-.9l.2-.1c.5-.3 1-.6 1.5-1-.2-.1-.4-.1-.6-.1-1-.2-1.9-.5-2.3-1.3-.1-.3-.1-.6-.1-1-.8.1-1.2.4-2.1.9-.5.3-2.3 1.2-3.7 1.6-1 .3-1.9.3-2.4-.2-1-1.3.4-3.2 1.1-4.6 0 0-1-.7-1.7-1.1-1.7 2.3-2.1 5.3-4.1 7.8.7 0 1.4 0 2 .1.7.1.2 1.7.1 2-.4.8-.8 1.4-1.3 2.3H-215c.2-.2.3-.5.5-.7 1-1.5 2.1-3.2 5.2-3.2.3 0 .6.3.6.6s-.3.6-.6.6c-2.4 0-3.3 1.4-4.1 2.6-.4.5-.7 1-1.1 1.5-.1.1-.2.2-.4.2-.2.4-.5.7-.9.9-3.4 1.6-4.1 2-4.1 5.9 0 3.5 0 3.8-1.8 5.5.9.1 1.8.2 2.5.3 1.1-1.2 2.5-2.6 4-3.8zm22.5-19c1.8-1.4 2.6-3.5 4.6-3.5 2.1 0 1.9 1.6 1.9 3.1 0 .4-.3.6-.7.6-1.3 0-2.1 0-2.8.1-.7.1-1.4.4-2.5.8-.6.3-1.1-.7-.5-1.1zm-7.5-2.8v2.3c0 .3-.3.6-.6.6s-.6-.3-.6-.6v-1.8c0-.6.1-1.2.2-1.7.1-.3.4-.6.7-.5.1 0 .1 0 .2.1.8.4 1.2.8 1.7 1.4l.4.4c.2.2.2.6 0 .9-.2.2-.6.2-.9 0l-.4-.4c-.4-.3-.5-.5-.7-.7zm-2.3 15.7l.9-.6c.2-.1.4-.3.6-.4 1.2-.7 2.7-1.7 3.7-3.9.1-.3.5-.5.8-.3.3.1.5.5.3.8-1.1 2.5-2.9 3.6-4.2 4.4-.2.1-.4.3-.6.4-.3.2-.6.4-1 .6-1.2.7-2.4 1.4-2.4 2.7v.2c1.7-.8 3.1-1.5 4.3-2.3 1.2-.9 2.1-2 2.6-3.6.1-.3.4-.5.8-.4.3.1.5.4.4.8-.5 1.9-1.6 3.2-3 4.3-1.3.9-2.8 1.7-4.5 2.5 0 .3-.1.7-.5 1.2-.4.4-.9 1-1.6 1.5-.5.4-1.1.8-1.7 1-.3.1-.7 0-.8-.3-.1-.3 0-.7.3-.8.5-.2.9-.5 1.4-.9.6-.5 1.1-.9 1.4-1.3.2-.3.2-.4.1-.5-.2-.3-.4-.6-.4-1.2.1-2.1 1.7-3 3.1-3.9zM-158.4 635.5c-1.7 0-2.5 1.3-4.9 1.4-1.8 0-4.1-1.2-5.7-2.2-4.3-2.7-5.4-3.8-5.5-7.4-.1-5.6 3.2-7.3 3.3-10.9 0-3-2.5-7.7-7.2-7.4-6.7.4-8.1-.2-11.9-2.9-.2-.1-.4-.2-.5-.4-.2 1.2-.5 2.2-.8 3.1-.5 1.3-1 2.4-1.6 3.6-.4.7-1.3 2-2.4 3.1-.7.7-1.4 1.4-2.1 2l.9 1.5c1 1.7 1.9 3.6 2.5 5.1.3-.5.8-.9 1.3-1.2.7-.4 1.3-.4 1.9-.4 3.9 0 7 3.5 6.9 6.3-.1 1.7-1.1 3.5-1.2 5.1 0 1.5 1.2 2.6 4.8 3.5 2.7.7 6 1.6 9.5 4.5 2.9 2.4 4.5 3.3 6.3 3.3.7 0 1.2-.2 1.7-.7.5-.6 1.8-.6 2.5-.6 1.8 0 1.9.2 2.2 1 .5 1.1.6 1.3 1.2 1.4.5.1.8-.3.8-1.5 0-1.4-.5-2-1.3-3-1.5-1.9.3-2.6 1.5-.8.5.7 1.3 1.5 1.2 2.5 0 1.5.6.7.8.3.3-.6.7-1.6.1-2.4-.5-.7-1.3-1.3-1.9-2.1-1.2-1.4-.3-2.1.8-1.3.5.4 1.1 1 1.6 1.5 1.4 1.4 1.8 3.7 1.8 1.4 0-.8-.4-1.6-1.3-2.5-1.6-1.6-3.7-2.9-5.3-2.9zm-18.5-8.4c-.7.8-1.1 1.7-1.1 2.7 0 1 .3 2 .9 3.2.2.3 0 .7-.3.8-.3.2-.7 0-.8-.3-.7-1.3-1.1-2.6-1-3.8 0-1.2.5-2.4 1.4-3.5.2-.3.6-.3.9-.1.2.3.2.7 0 1zm10.6 15.1c-.2.3-.6.4-.9.2l-2.7-1.9c-.3-.2-.3-.6-.2-.9.2-.3.6-.4.9-.2l2.7 1.9c.3.3.4.7.2.9z"/><path fill="#B67607" d="M-187.4 529.8c0-.6-.1-1.2-.7-1.2-.8 0-1.4.6-2 1.4h.3l2.4-.2zM-212.5 529.3c-.5 1-1.6 2.7-1.2 3.3.1.1.5 0 1-.2 1.3-.4 3-1.3 3.7-1.7 1.2-.7 1.6-.9 2.8-.9.5 0 1.9-.1 2.2-.6.1-.2.2-.5.1-.7-.6-1-3-2.6-4.3-4.1h-.3c-1.1 0-1.8.2-2.6.5-1 .4-2.4.9-3.3 1.7.9.7 2.3 1.8 1.9 2.7zM-28.9 582.3l1.4 1.4c.2-.5.3-1 .3-2.1 0-1.7-.9-3.1-1.6-4.3-.9-1.6-1.8-3.2-2-5.4-.3-3.6-1.7-6.2-3-7.9-1.6-2.2-3.4-2.8-5.4-2.8-3.7 0-6.7 4.1-6.6 9.7.1 4.3 1 6.7 2.1 10.6.9 3.3 3 7.1 5 11 3.3 6.5 5.5 9.2 5.7 15.5.1 2.6-.5 5.2-2.1 6.6-.9.8-1.8 1.3-3.5 1.3-4.7 0-5.7-1.6-6.9-4.6-1-2.5-2.4-5-4.4-7.7-3.6-4.7-7.8-9.5-8.7-13.9-.9-4.4-.1-9.5-1.2-13.6-.1-.5-.5-1.1-.8-1.7h-1.5c-.3 0-.6-.3-.6-.6 0-.7 0-1.4-.1-2.1-.1-.6-.2-1.2-.5-1.8-.3-.5-.8-1.2-1.4-1.9-.6-.7-1.2-1.4-1.8-1.9-.3.2-.6.3-.9.4-.3.1-.6 0-.7-.3-2.2-3.9-.6-6.5-2-9.8-.7 1.3-1.6 3.1-2.1 3.6-.2.2-.5.2-.8.1-.6-.5-1.8-1.6-2.3-2.1-.6.4-1.2 1.4-2.1 1.9-.9.5-2.6.7-3.1 1-3 2-4.8 1.5-7.7 1.3-.2.3-.5.6-.6.7-.7.8-1.5.2-2.5.9-.4.3-.5.8-.5 1.3 0 .6 1.5.4 1.5 1.4 0 .6-.8 2.2-2.9 3.7-3.1 2.3-6.5 3.5-10 4.3-2.6.6-5.6 1.8-8.2 1.8-2.7 0-4.4-1.6-6.9-1.6-.9 0-2.5.2-3.9 1.5-1 .9-1.8 1.8-2 2.8-.4 1.9-.2 1.5 1.9-1 1.3-1.6 2.9-1.7 2.9-.7 0 .6-.5.8-1.4 1.7-.6.6-1.5 1.7-1.9 2.3-1 1.4-.8 2.3-.1 3.3.1.2.6.4.5-.9-.1-.7.4-1.3.9-1.9 1.1-1.7 2.4-3.3 3.3-3.4.3 0 .8.1.9.6.1 1-1.7 1.9-2.3 2.5-1 1-1.2 2.1-1.3 2.9-.1 1.2.6 1.6 1.2 1.5 1.4 0 1.2-2.1 3.3-2.1.4 0 1 .3 1.8.3 1.5 0 1.6-1 3-1 2.1 0 2.3.3 3.4.3 1.2 0 1.4-.3 2.5-.3s1 1 1.7 1c1.9 0 1.6-.7 3.6.8 1.1.9 1.6 2.3 2.7.2.6-1.2 2.5-.8 4.9 2.2.1.2.3.3.4.5.3-.4.3-.5.2-.8-.1-.4-.3-.9-.3-1.7 0-1 .5-1.4 1.1-1.4.5 0 1 .2 1.4.4l.6.3c.5.2 1 .4 1.5.7.2.1.4.2.6.4.3.2.6.4.8.5.1.1.2.1.3.1.5-1 1.1-.9 1.9-.6.2.1.4.1.6.1-.1-.8 0-1.8 3.5-1.7.7 0 .9.2 1 .1 0 0-.1-.3-.4-1-.2-.4-.3-.9-.3-1.3s.1-.8.2-1.1c.2-.3.5-.6.9-.7.2-.1.5-.1.7-.1.7 0 1.4.5 2.1 1.1h4.5c.3 0 .6.3.6.6s-.3.6-.6.6h-3.1c.1.1.1.1.2.1.4.2 1.4.2 2.3.2h.6c.3 0 .6.3.6.6s-.3.6-.6.6h-.6c-1 0-2.2.1-2.9-.3-.5-.3-1-.7-1.5-1.2-.6-.6-1.3-1.2-1.7-1.2h-.3c-.1 0-.2.1-.2.2-.1.1-.1.3-.1.5 0 .3.1.6.2.9.4 1.1.6 1.7.3 2.1-.3.5-.9.5-2 .4-2.3-.1-2.2.2-2.2.5 0 .7.1 1.2-1.1 1.2-.4 0-.8-.1-1.1-.2-.2-.1-.3-.1-.4 0-.5.9-1.1.9-1.9.5l-.9-.6c-.2-.1-.3-.2-.5-.4-.4-.2-.8-.4-1.3-.6-.2-.1-.5-.2-.7-.3-.3-.2-.7-.3-.8-.3v.2c0 .7.1 1.1.2 1.4.2.8.3 1.1-.8 2.3.7 1.6.8 3.1 3.7 5.2 1.8 1.3 4.5 4 6.5 7.8.2.4.4 1.1.5 1.7.3 2 .6 3.4 1.1 4.7.4 1.3.9 2.3 1.5 3.4.4.7 1.2 1.8 2.2 2.9.6.7 1.3 1.3 1.9 1.8.5-.7 1.1-1.3 1.6-1.8 1-.9 2.4-1.9 3.9-2.6 1.2-.6 2.4-1 3.6-1 3.6 0 4.6 1 6.2 2.6l.1.1c.2.2.2.6 0 .9-.2.2-.6.2-.9 0l-.1-.1c-1.4-1.3-2.2-2.2-5.3-2.2-1 0-2.1.3-3.1.8-1.4.7-2.7 1.6-3.6 2.5-.6.5-1.2 1.2-1.7 2-.4.6-.8 1.2-1.2 1.9-1.5 2.6-2.6 5.4-3.2 6.9 0 0 0 .1-.1.1 0 .1-.1.2-.1.2-.8 1.5-1.3 3.9-1.3 6s.7 4.7 2.4 6.8c2.4 3 4 4.9 6.2 7.9 1.2 1.5 2.8 2.5 2.8 6.1 0 2.1-.4 3.5-2.1 5.3-.4.5-.9.9-1.4 1.3-1.8 1.5-3.8 3.3-5.9 4.4-2.8 1.4-5.5 1.3-7.4 3-.3.3-.9.8-1.2 1.3-.4.6-.4 1.2.4.5.2-.2.5-.5.9-.8.9-.8 1.6-.4 1.8-.1.3.4-.2 1.1-1.1 1.7-.9.5-1.5 1.4-1.7 2.4-.1.8 0 1.9 1.1 2.1.8.2.3-.7.6-2.1.1-.3.6-1.6 1.3-2.3.7-.7 1.7-1 1.7.1-.1 1.4-1.6 1.3-1.6 3.4 0 1.3 1.6 1.3 2.4.6 2.6-2.4 4.7-4.3 8.2-4.3 1.9 0 2.5-.5 3.5-1.3 2.2-1.6 2.1-2.7 2.9-3.7 1.2-1.6 4.8-3.5 7.5-4.8.1-.1.3-.1.4-.2v-.6c0-1.2.1-2.8-.2-3.5-.3-.7-.9-1.2-1.6-1.7-1-.8-2-1.6-2.7-3.2-.1-.3 0-.7.3-.8.3-.1.7 0 .8.3.5 1.3 1.5 2.1 2.3 2.7.8.6 1.5 1.2 2 2.2.4.9.3 2.7.3 4 .7-.4 1.2-.8 1.6-1.4 1.2-2.5-.5-4.6-2.9-7-1.2-1.2-2.3-2.7-2.6-4.1-.3-1.2-.3-2.4-.3-3.4 0-3.5 1.4-5.9 3.3-7.9 2.9-3 6.1-3.6 9.7-7.9 1.7-2 2.1-3.9 2.4-6.4.2-1.8.2-3.5 1.1-3.5.7 0 3.7 1 6.4 1 2.9 0 4.3-1.3 5.3-2.9 1.3-1.9 1.6-4.1 1.6-6.2 0-5.3-2.7-10.2-5.8-16-1.4-2.6-2.5-5.2-3.8-7.8-2-4.2-3.9-10.3-3.9-15 0-3.5 1.7-8.9 5.5-8.9 2.3 0 3.2.7 4 1.8.7.9 1.5 3.4 1.5 5 0 1.3-.3 2.3-1 3.3-.8 1.2-1.4 2.6-1.4 4.2 0 1.1 0 4.5 2.9 8.7 1.1 1.6 2.1 3 2.9 4.1v.1c.1-.5.2-1 .1-1.5 0-.8-.2-1.5-.6-2-.3-.4-.6-.7-1-1.2-.9-.9-2-2.1-2.7-3.9-.1-.3 0-.7.4-.8.3-.1.7 0 .8.4.6 1.5 1.6 2.6 2.4 3.4.4.5.9.9 1.2 1.3.5.7.8 1.6.8 2.6 0 .9-.1 2-.5 3v.1c0 .1.1.1.1.2.4.9 1 1.4 1.1.2.1-1 .5-2.6.5-4.6 0-.5 0-1 .1-1.3-.1 0-.1-.1-.2-.1l-2.2-2.2c-.7-.7-1.4-1.4-2.3-2.5-.5-.5-.8-1-.9-1.6-.2-.5-.2-1.1-.2-1.8 0-.4.1-.8.1-1.3.1-.5.1-.9.1-1.3 0-.3.3-.6.6-.6s.6.3.6.6c0 .4-.1.9-.1 1.4-.1.4-.1.8-.1 1.2 0 .6 0 1.1.1 1.5.1.4.3.7.7 1.1.7.8 1.3 1.4 1.8 2 .1-.2.2-.5.2-.7 0-.7-.2-1.4-.4-1.8l-.9-1.5-.9-1.5c-.2-.3-.1-.7.2-.8.3-.2.7-.1.8.2.3.5.6 1 .8 1.5.3.5.6.9.9 1.5.3.5.7 1.6.6 2.5-.3.4-.5 1-.8 1.4zm-42.3 61.3c-.2.2-.6.2-.9 0-.5-.5-1-1.1-1.5-1.6-.5-.6-.9-1.1-1.2-1.7-.2-.3-.1-.7.2-.9.3-.2.7-.1.8.2.3.5.7 1 1.1 1.6.4.5.9 1 1.4 1.5.3.3.3.7.1.9zm.9 23.5c-.5.1-.9.4-1.3.6l-.9.9c-.2.3-.6.3-.9.1-.3-.2-.3-.6-.1-.9.3-.4.7-.8 1.1-1.2.5-.3 1-.6 1.7-.8.3-.1.7.1.8.4.2.4 0 .8-.4.9zm11.9-34.4c-.6.4-1.3.7-2 1-.6.2-1.2.4-1.9.6 0 .7-.1 1.4-.2 2.1-.2.9-.5 1.8-1 2.6-.2.3-.6.3-.9.2-.3-.2-.3-.6-.2-.9.4-.6.7-1.3.8-2.1.1-.8.2-1.6.2-2.4 0-.3.2-.5.5-.6.8-.2 1.5-.4 2.2-.7.7-.3 1.3-.6 1.8-.9.3-.2.7-.1.9.2.1.4.1.7-.2.9zM-83.1 529.9c-.7-.8-1.3-1.4-2-1.4-.6 0-.7.6-.7 1.2l2.5.1.2.1z"/><path fill="#B67607" d="M-82 622.5c.6 0 1.3 0 1.9.4.5.3 1 .7 1.3 1.2.6-1.5 1.5-3.4 2.5-5.1l.9-1.5c-.7-.5-1.5-1.2-2.1-2-1.1-1.2-2-2.4-2.4-3.1-.6-1.2-1.2-2.3-1.6-3.6-.3-.9-.6-1.9-.8-3.1-.2.1-.3.2-.5.4-3.9 2.7-5.2 3.3-11.9 2.9-4.7-.3-7.2 4.4-7.2 7.4 0 3.6 3.3 5.3 3.3 10.9 0 3.6-1.1 4.7-5.5 7.4-1.6 1-3.9 2.2-5.7 2.2-2.4 0-3.2-1.4-4.9-1.4-1.5 0-3.7 1.3-5.3 2.9-.9.9-1.3 1.7-1.3 2.5 0 2.3.5 0 1.8-1.4.5-.5 1-1.1 1.6-1.5 1.1-.9 2-.1.8 1.3-.7.8-1.4 1.4-1.9 2.1-.6.8-.2 1.8.1 2.4.2.4.8 1.2.8-.3 0-1.1.8-1.8 1.2-2.5 1.2-1.8 3.1-1.2 1.5.8-.8 1-1.3 1.6-1.3 3 0 1.2.4 1.6.8 1.5.5-.1.7-.3 1.2-1.4.4-.8.4-1 2.2-1 .7 0 1.9 0 2.5.6.4.4 1 .6 1.7.7 1.8 0 3.4-.9 6.3-3.3 3.4-2.8 6.7-3.7 9.5-4.5 3.6-1 4.8-2 4.8-3.5s-1.1-3.4-1.2-5.1c-.2-2.8 3-6.3 6.9-6.3zm-21.2 18l-2.7 1.9c-.3.2-.7.1-.9-.2-.2-.3-.1-.7.2-.9l2.7-1.9c.3-.2.7-.1.9.2.1.3.1.7-.2.9zm8.3-7c-.2.3-.5.4-.8.3-.3-.2-.4-.5-.3-.8.6-1.2.9-2.2.9-3.2 0-.9-.4-1.8-1.1-2.7-.2-.3-.2-.7.1-.9.3-.2.7-.2.9.1.9 1.1 1.4 2.2 1.4 3.5 0 1.1-.4 2.4-1.1 3.7zM-92.3 539.6c1.5 0 3.6-1 4.5-1 1.1 0 1.7 1.1 1.6 2.2 0 .6-.5 2.1-1.9 2.8-1.1.6-1.5 1-4 1.1-.9 0-1.4.5-1.5.7-.6 1.1 0 2.9 1.5 2.8 1 0 1.6-.7 2.4-1.4.4-.4 1-.8 1.6-1.1 1.5-.9 2.4-1.5 3.5-1.6.7 0 1 .1 1 1.3 0 .9-.3 1.2-.6 1.7-.6 1-.4 1.3.3.6.3-.3.8-.4 1.3-.4.7 0 .9.4.9 1 0 .4-.2 1.6-.9 2.4-.9 1.1-2.5 2.3-3.4 3.5-.3.4-.5.7-.7 1.1h.7c1.9 0 3.1.1 3.5-.8.1-.3.5-.4.8-.3.3.1.4.5.3.8-.8 1.6-2.2 1.5-4.6 1.5h-.3c.1.1.2.3-.1.6-1.1 1.1-1.3 2.2-1.7 4h.3c3 .3 3.8.3 6.2-1.1.7-.4 2.5-.6 3.2-1 .6-.3 1.3-1.3 2-1.8l-.3-1.6c-.3-.8-1.7-2.9-2.2-3.9-.5-.9-.6-2.3-.4-3.3.2-.8 1.4-.6 1.2.2-.1.7 0 1.8.3 2.5l.8 1.5c1.2 2 1.6 2.7 1.8 4.6.6.4 1.5 1.4 2.1 1.9.5-.8 1.4-2.7 2-3.9.2-.4.8-.5 1.1-.1 2.5 3.8.6 6.7 2.4 10.3l3.1-2c.8-.5 1.4-1.2 1.9-.6 1.4 1.8 1.6 2.5 3.6 2.7-.4-1.2-1.2-1-1.9-3.2-.4-1.4-.5-2.4-.5-3.8 0-2.2.7-3.4-.8-5.3-1.1-1.4-1.8-2.4-2.7-3.9-.4-.7.7-1.3 1.1-.6.8 1.4 1.5 2.4 2.6 3.7 1.4 1.7 1.3 2.9 1.2 4.5-.1 1.7-.2 3.4.3 5.1.7 2.3 1.6 1.3 2.1 4.1.1.4-.2.8-.6.8-2.8 0-3.4-.6-5-2.7l-2 1.3c-.1.1-.3.2-.4.3.5.5 1.1 1.1 1.7 1.8.6.7 1.2 1.5 1.5 2.1.4.7.5 1.4.6 2.2.1.5.1 1 .1 1.6h.8c.3-.5 1.5-1.3 2-.9l1.5 2.4c-.3-1.4-.4-2.7-.3-4.1h3.7c-1.2-1.5-2.3-2.9-3.3-4.5.5-.3 2-.4 3.7-.4-1.4-1.3-2.2-2-3.2-3.1-.7-.9-1.4-3.9.3-3.9 1 0 1.3.5 2.1.8.3.2 1.6.2 2 .2-1.2-1.3-1.8-2-2.6-3-.2-.2-1.3-2.1-.7-2.5-.8-1.3-2-2.4-3.3-3.5-1-.8-2-1.5-3-2.2-.5-.4-1.1-.7-1.6-1.1-.1-.1-.3-.2-.5-.3-.2-.1-.5-.3-.7-.4-1.7-.9-3.8-2.1-4.7-4.5-.1-.3 0-.7.4-.8.3-.1.7 0 .8.4.8 2 2.6 3 4.1 3.9h.1c.1-.6.2-1.4.1-2.1-.1-.5-.3-1-.8-1.2-.3-.1-.5-.5-.3-.8.1-.3.5-.5.8-.3.9.4 1.4 1.2 1.6 2.1.2 1 0 2.2-.2 3l.1.1c.3.2.7.4 1 .7.2-.3.3-.6.4-.9.8-1.6 1.4-2.7.3-4.9-.2-.4-.7-.9-1.3-1.4-.7-.5-1.5-1.1-2.4-1.5-.3-.1-.4-.5-.3-.8.1-.3.5-.4.8-.3 1 .4 1.9 1 2.7 1.6.8.6 1.4 1.3 1.7 1.8 1.3 2.7.6 4-.4 6-.2.3-.3.7-.5 1.1.9.6 1.8 1.3 2.7 2 1.5 1.2 2.9 2.6 3.8 4.1.8-.1 1.6-.2 2.5-.3-1.8-1.8-1.8-2-1.8-5.5 0-4-.7-4.3-4.1-5.9-.4-.2-.7-.5-.9-.9-.1 0-.3-.1-.4-.2-.4-.4-.8-.9-1.1-1.5-.8-1.3-1.8-2.6-4.1-2.6-.3 0-.6-.3-.6-.6s.3-.6.6-.6c3 0 4.2 1.7 5.2 3.2.2.2.3.5.5.7H-54.7c-.5-.9-1-1.4-1.3-2.3-.1-.3-.6-1.9.1-2 .6-.1 1.3-.1 2-.1-1.9-2.5-2.3-5.5-4.1-7.8-.7.4-1.7 1.1-1.7 1.1.7 1.4 2 3.4 1.1 4.6-.4.6-1.3.5-2.4.2-1.4-.4-3.1-1.3-3.7-1.6-.9-.5-1.3-.8-2.1-.9 0 .3 0 .7-.1 1-.3.8-1.3 1.1-2.3 1.3-.2 0-.4.1-.6.1.5.4 1.1.7 1.5 1l.2.1c.3.2.4.6.2.9l-.1.1c-.6.6-1.5.8-2.4 1-.1 0-.2 0-.3.1.1.1.1.2.2.3.7 1.1 1.6 2.3 3.4 2.9.3.1.5.5.4.8-.1.3-.5.5-.8.4-2.2-.8-3.2-2.2-4-3.4-.6-.8-1.1-1.5-1.8-1.7-.3-.1-.6-.4-.5-.7.1-.3.4-.6.7-.5.6.1 1.1.4 1.5.8.3-.1.5-.1.8-.2.3-.1.7-.1 1-.2-.7-.4-1.4-.9-1.8-1.4 0 0 0-.1-.1-.1-.2-.3-.1-.7.2-.9.5-.3 1.2-.5 1.8-.6.7-.2 1.3-.3 1.4-.5v-.6c-1-.1-2.1-.4-2.4-1.3-.2-.5-.3-1.2 0-1.8.7-1.1 2.7-2.5 4-3.8-.3-.1-.7-.2-1.3-.2-1.4 0-2.2.8-3 .2-.3-.2-.5-.4-.8-.6-.9.3-1.4.6-1.9.9-.5.3-.9.7-1.5 1.2-.3.2-.8.7-1.2 1.3-.3.3-.6.7-.7 1-.2.3-.5.4-.8.3-.3-.2-.4-.5-.3-.8.2-.4.5-.9.9-1.3.5-.6 1.1-1.1 1.4-1.4.6-.6 1.1-.9 1.7-1.3.4-.3.9-.5 1.5-.7-.5-.4-1-.6-1.7-.6-1.7 0-2.2.4-3.2 1s-3.1 2.6-5.3 2.6c-2.3 0-2.5.2-2.8.7-.4.6-1.2 1.6-2.8 2.8-.9.7-5 3-5.6 3.6-1.1 1.1-1.8 3.1-1.7 4.5.4 1.3 1.7 2 3.5 2zm17.5-11.5l.4-.4c.5-.5.9-1 1.7-1.4.1 0 .1-.1.2-.1.3-.1.7.2.7.5.1.5.1 1.1.2 1.7v1.8c0 .3-.3.6-.6.6s-.6-.3-.6-.6v-2.3l-.6.6-.4.4c-.2.2-.6.2-.9 0-.3-.1-.3-.5-.1-.8zm-1.9 10.4c.3-.1.7 0 .8.3.9 2.1 2.5 3.1 3.7 3.9.2.1.4.2.6.4l.9.6c1.5.9 3 1.8 3 3.8 0 .6-.2.9-.4 1.2-.1.1-.1.2.1.5.3.4.8.9 1.4 1.3.5.4.9.7 1.4.9.3.1.5.5.3.8-.1.3-.5.5-.8.3-.6-.2-1.1-.6-1.7-1-.6-.5-1.2-1.1-1.6-1.5-.4-.5-.6-.9-.5-1.2-1.7-.8-3.2-1.5-4.5-2.5-1.4-1.1-2.5-2.4-3-4.3-.1-.3.1-.7.4-.8.3-.1.7.1.8.4.4 1.6 1.3 2.7 2.6 3.6 1.2.9 2.6 1.6 4.3 2.3v-.2c0-1.3-1.2-2-2.4-2.7-.3-.2-.7-.4-1-.6-.1-.1-.4-.2-.6-.4-1.3-.8-3.1-1.9-4.2-4.4-.1-.2.1-.5.4-.7zm-8.4-11.1c2.1 0 2.9 2 4.6 3.5.6.4.1 1.3-.6 1.1-1.1-.4-1.7-.6-2.5-.8-.7-.1-1.5-.1-2.8-.1-.4 0-.7-.3-.7-.6.1-1.5-.1-3.1 2-3.1z"/><path fill="#B67607" d="M-69.2 528.6c-.1.2 0 .5.1.7.2.5 1.7.6 2.2.6 1.2 0 1.6.2 2.8.9.7.4 2.4 1.3 3.7 1.7.5.2 1 .3 1 .2.4-.6-.7-2.3-1.2-3.3-.5-.9 1-2 1.9-2.6-1-.8-2.3-1.4-3.3-1.7-.8-.3-1.4-.5-2.6-.5h-.3c-1.4 1.4-3.7 3-4.3 4zM-147.6 541.4c-2.9-2.1-6.8.7-8 3.3-1.5 3.1-6.1 7.1-9.2 8.9-2.4 1.4-7.6 5.5-18.4 8.2l.2.3c.2.2 2.5 0 3.2 1.9.1.4.2.7.2 1 .1 1.2-.6 1.5-1.3 1.7l.5.8c1.3 1.6 3.8 3.1 5.8 4l1.1-.4c1.7-.7 2-2.7 4.4-3.3 1.3-6.8 4.6-12.9 9.2-17.5 2.7-2.7 5.8-4.9 9.2-6.5.3-.7.4-1.3 1.1-1.5.4-.1 1.5.1 2.2.1.2-.1.4-.1.6-.2 0-.1-.3-.4-.8-.8zM-123.1 543.1c0-1-1.5-1.5-1.5-2.3 0-1.6.8-1.2 1.4-.4.4.5.5 1.1.7 1.4 1 1.3 1.8-1.2 1.7-2.2-.6-.6-2.7-2.5-3.6-1.4-.6.7-2.6 2.5-2.8 3.7 1.4.4 2.7.9 4 1.4.1-.1.1-.1.1-.2zM-116.8 535c4.1-.4 6.7-2.7 7.6-7.1-3.7.5-6.3 2.9-7.6 7.1z"/><path fill="#B67607" d="M-114.8 529.2c.6-.6 1.3-1.1 2.1-1.5.2-.7.3-1.4.4-2.2-.7.1-1.3.2-1.9.4-.7 1.2-1.9 2.1-3.4 2.6l-.4.1c-1.4 1.8-2.3 4.3-2.9 7.5 1.1-.4 2.1-.9 3-1.4.7-2.4 1.7-4.2 3.1-5.5zM-121.2 532.1c.1-.3.2-.5.3-.8.5-1.3 1.1-2.4 1.8-3.3l-.1-.5c-.2-1.4-.3-2.7-.1-3.8-2.6 1.4-3 4.7-2.5 9l.6-.6zM-118 527.3c3.1-1 4.2-3.7 3-8.6-2.7 1.6-3.7 4.4-3 8.6zM-119.1 522.1c0-.2.1-.3.1-.4.4-1.2 1.1-2.2 2-3l.2-1.4c0-.3.1-.6.1-.9-2.5 2.1-3.8 4.4-4.4 7.1.3-.3.7-.6 1.1-.8l.9-.6zM-114.8 517.1c.1-.2.2-.4.4-.7.3-.5.7-1 1.1-1.4l1.6-1.6c.2-.9.5-1.8.9-2.6-3.1 1.3-4.5 3.6-4.8 6.5l.6-.1.2-.1zM-102.8 506.6c-4.9.8-7.3 4-8 8.8 5-1 7.9-3.8 8-8.8z"/><path fill="#B67607" d="M-108.6 516.1v1.3c.5-.4 1.1-.7 1.8-1.1l1.6-.8.2 1.8c.1.7.1 1.4.1 2 1.4-1.5 2.1-4 2.1-7.8-.4.6-.8 1.2-1.3 1.8-1.1 1.3-2.7 2.2-4.5 2.8z"/><path fill="#B67607" d="M-106.3 517.4c-1.1.6-2.1 1.2-2.8 1.9-.3 2.2-1.1 4.2-2.5 5.9 0 .7.1 1.5.2 2.3 4.2-.5 5.8-3.9 5.1-10.1zM-113.8 518.6c.6 2.4.6 4.3.2 5.8h.1c.4-.1.7-.1 1.1-.2 1.6-2 2.3-4.6 2.2-7.7-.1 0-.2.1-.4.1l-1.7.4.1-.8c-.7.7-1.2 1.5-1.6 2.4zM-116.8 544.5c-.2-.4-.4-.7-.7-1.1v3c1.7 1.2 3.3 2.5 4.8 4 4.5 4.5 7.7 10.3 9.1 16.8 1.3.9 2.2 1.5 2.8 2.3 1.3 1.7 1.5 1.7 3.4 1.7 1.8-.9 3.8-2.1 4.8-3.5l.5-.8c-.8-.3-1.4-.6-1.3-1.7 0-.4.1-.7.2-1 .7-2 3-1.8 3.2-1.9l.5-.6c-3.7-1-8-2.5-12.2-4.5-3.7-1.8-7.1-4.2-9.9-6.8-2.1-2-4.1-3.7-5.2-5.9z"/></svg>