<svg xmlns:inkscape="http://www.inkscape.org/namespaces/inkscape" xmlns:sodipodi="http://sodipodi.sourceforge.net/DTD/sodipodi-0.dtd" xmlns="http://www.w3.org/2000/svg" xmlns:svg="http://www.w3.org/2000/svg" width="105.85207mm" height="105.84799mm" viewBox="0 0 105.85207 105.84799" version="1.1" id="svg17180">
  <sodipodi:namedview id="namedview17182" pagecolor="#ffffff" bordercolor="#000000" borderopacity="0.25" inkscape:showpageshadow="2" inkscape:pageopacity="0.0" inkscape:pagecheckerboard="0" inkscape:deskcolor="#d1d1d1" inkscape:document-units="mm" showgrid="false"/>
  <defs id="defs17177">
    <clipPath clipPathUnits="userSpaceOnUse" id="clipPath17083">
      <path d="M 27,760.891 H 81 V 814.89 H 27 Z" id="path17081"/>
    </clipPath>
    <clipPath clipPathUnits="userSpaceOnUse" id="clipPath17091">
      <path d="M 27,814.889 H 81 V 760.89 H 27 Z" id="path17089"/>
    </clipPath>
    <clipPath clipPathUnits="userSpaceOnUse" id="clipPath17095">
      <path d="m 27,760.89 h 54 v 53.999 H 27 Z" id="path17093"/>
    </clipPath>
    <clipPath clipPathUnits="userSpaceOnUse" id="clipPath17115">
      <path d="m 54,787.935 h 0.0459 v -0.046 H 54 Z" id="path17113"/>
    </clipPath>
  </defs>
  <g inkscape:label="Layer 1" inkscape:groupmode="layer" id="layer1" transform="translate(-20.678389,-59.691466)">
    <g id="g17077" transform="matrix(1.9602234,0,0,-1.9602234,-32.247642,1657.0558)" inkscape:export-filename="g17077.svg" inkscape:export-xdpi="96" inkscape:export-ydpi="96">
      <g id="g17079" clip-path="url(#clipPath17083)">
        <g id="g17085">
          <g id="g17087"/>
          <g id="g17107">
            <g clip-path="url(#clipPath17091)" id="g17105">
              <g id="g17103">
                <g clip-path="url(#clipPath17095)" id="g17101">
                  <g transform="translate(27,787.8559)" id="g17099">
                    <path d="M 0,0 C -0.018,14.913 12.054,27.015 26.967,27.033 41.879,27.052 53.981,14.979 54,0.066 54.018,-14.845 41.944,-26.948 27.033,-26.966 12.12,-26.984 0.018,-14.911 0,0" style="fill:#ae9a64;fill-opacity:1;fill-rule:nonzero;stroke:none" id="path17097"/>
                  </g>
                </g>
              </g>
            </g>
          </g>
        </g>
        <g id="g17109">
          <g id="g17111"/>
          <g id="g17119">
            <g clip-path="url(#clipPath17115)" id="g17117"/>
          </g>
        </g>
        <g id="g17121" transform="translate(31.8673,786.4917)">
          <path d="M 0,0 C 0.676,0.001 1.222,0.55 1.221,1.225 1.22,1.901 0.672,2.447 -0.003,2.447 -0.679,2.446 -1.227,1.898 -1.226,1.222 -1.225,0.547 -0.676,-0.001 0,0 M 44.229,0 C 44.904,0.001 45.451,0.55 45.45,1.225 45.449,1.901 44.901,2.447 44.225,2.447 43.549,2.446 43.002,1.898 43.003,1.222 43.004,0.547 43.552,-0.001 44.229,0 m -1.457,-9.594 -3.782,0.868 -0.704,-1.33 4.375,-2.32 0.451,0.853 -3.113,1.649 c -0.087,0.041 3.582,-0.73 3.582,-0.73 l 0.461,0.92 c 0,0 -2.683,2.539 -2.601,2.494 l 3.084,-1.641 0.45,0.851 -4.375,2.32 -0.696,-1.316 z m -4.658,-7.867 0.736,0.793 -0.512,0.944 1.244,1.335 0.962,-0.459 0.764,0.822 -4.82,2.088 -0.797,-0.857 z m -0.212,2.521 0.858,0.92 -1.847,0.876 z m -5.996,-0.653 -1.847,-1.069 2.482,-4.286 1.846,1.07 c 0.65,0.379 0.972,0.92 0.972,1.632 0,0.527 -0.164,1.075 -0.494,1.645 -0.135,0.225 -0.297,0.446 -0.492,0.663 -0.201,0.217 -0.435,0.389 -0.706,0.514 -0.342,0.156 -0.688,0.196 -1.045,0.122 -0.213,-0.043 -0.451,-0.141 -0.716,-0.291 m -0.546,-1.31 1.619,-2.796 0.826,0.478 c 0.422,0.243 0.594,0.62 0.521,1.137 -0.04,0.278 -0.154,0.573 -0.336,0.896 -0.252,0.435 -0.513,0.732 -0.787,0.883 -0.269,0.156 -0.607,0.115 -1.018,-0.12 z m -4.3,-0.678 -2.365,-0.55 1.119,-4.822 0.987,0.227 -0.44,1.892 1.041,0.242 c 0.3,0.067 0.513,0.064 0.64,-0.014 0.136,-0.078 0.239,-0.267 0.314,-0.575 l 0.111,-0.446 c 0.035,-0.144 0.081,-0.278 0.139,-0.407 0.032,-0.064 0.072,-0.144 0.124,-0.242 l 1.109,0.257 -0.028,0.121 c -0.112,0.036 -0.191,0.114 -0.246,0.232 -0.04,0.078 -0.081,0.223 -0.132,0.442 l -0.073,0.325 c -0.084,0.339 -0.186,0.577 -0.316,0.719 -0.132,0.146 -0.317,0.237 -0.56,0.273 0.246,0.158 0.4,0.356 0.463,0.602 0.067,0.25 0.069,0.489 0.017,0.717 -0.048,0.193 -0.116,0.353 -0.209,0.487 -0.097,0.135 -0.21,0.25 -0.344,0.346 -0.161,0.122 -0.341,0.197 -0.542,0.23 -0.201,0.035 -0.469,0.016 -0.809,-0.056 m -1.185,-1.158 0.301,-1.297 1.141,0.266 c 0.227,0.052 0.39,0.118 0.493,0.197 0.178,0.137 0.234,0.341 0.175,0.614 -0.068,0.29 -0.209,0.464 -0.428,0.521 -0.121,0.03 -0.29,0.019 -0.511,-0.029 z m -2.782,0.491 -3.629,0.123 -0.167,-4.947 3.751,-0.128 0.029,0.89 -2.738,0.092 0.041,1.273 2.405,-0.081 0.028,0.859 -2.403,0.081 0.035,1.052 2.619,-0.088 z m -8.68,1.535 -0.269,-0.834 1.416,-0.458 -1.255,-3.877 0.991,-0.321 1.255,3.877 1.409,-0.456 0.27,0.834 z m -4.41,2.612 -0.476,-0.735 1.249,-0.81 -2.215,-3.42 0.874,-0.565 2.215,3.419 1.243,-0.804 0.477,0.736 z m -2.417,-1.263 c 0.663,0.623 0.988,1.268 0.98,1.941 0.025,0.539 -0.204,1.064 -0.685,1.579 -0.487,0.516 -0.996,0.781 -1.53,0.792 -0.678,0.056 -1.344,-0.226 -2.006,-0.846 -0.651,-0.613 -0.976,-1.257 -0.979,-1.944 -0.025,-0.538 0.204,-1.064 0.686,-1.58 0.487,-0.515 0.996,-0.779 1.53,-0.79 0.691,-0.041 1.356,0.242 2.004,0.848 m -1.896,0.139 c 0.386,0.031 0.782,0.235 1.19,0.616 0.404,0.378 0.633,0.758 0.692,1.143 0.058,0.381 -0.052,0.72 -0.332,1.026 -0.28,0.298 -0.614,0.433 -1,0.405 -0.386,-0.03 -0.783,-0.234 -1.193,-0.613 -0.408,-0.38 -0.64,-0.763 -0.693,-1.149 -0.055,-0.383 0.056,-0.725 0.338,-1.027 0.28,-0.298 0.611,-0.431 0.998,-0.401 m -0.821,7.295 -1.068,2.182 -4.447,-2.178 0.445,-0.907 1.743,0.854 0.469,-0.96 C 2.144,-9.219 2.19,-9.425 2.143,-9.566 2.096,-9.716 1.935,-9.86 1.652,-10.001 L 1.242,-10.21 C 1.11,-10.277 0.989,-10.351 0.878,-10.437 0.822,-10.482 0.753,-10.538 0.669,-10.613 l 0.501,-1.022 0.111,0.054 c 0.01,0.116 0.069,0.212 0.171,0.292 0.066,0.056 0.2,0.128 0.402,0.227 l 0.299,0.146 c 0.312,0.157 0.52,0.311 0.63,0.47 0.112,0.159 0.16,0.362 0.14,0.607 0.209,-0.205 0.436,-0.311 0.69,-0.318 0.259,-0.008 0.493,0.044 0.704,0.147 0.176,0.09 0.316,0.192 0.426,0.313 0.11,0.125 0.197,0.261 0.262,0.411 0.08,0.187 0.113,0.379 0.101,0.582 C 5.095,-8.5 5.015,-8.244 4.869,-7.93 M 3.473,-7.035 2.278,-7.619 2.794,-8.672 c 0.103,-0.209 0.202,-0.353 0.302,-0.436 0.176,-0.142 0.385,-0.153 0.637,-0.032 0.268,0.131 0.407,0.307 0.412,0.533 0.002,0.126 -0.046,0.288 -0.143,0.491 z m 40.481,19.838 -0.972,1.9 -4.409,-2.254 0.971,-1.899 c 0.346,-0.668 0.867,-1.02 1.578,-1.056 0.527,-0.029 1.084,0.107 1.67,0.407 0.231,0.122 0.461,0.274 0.687,0.457 0.228,0.188 0.411,0.414 0.551,0.678 0.173,0.333 0.23,0.676 0.176,1.037 -0.031,0.214 -0.116,0.457 -0.252,0.73 m -1.28,0.615 -2.879,-1.471 0.435,-0.85 c 0.222,-0.435 0.588,-0.628 1.108,-0.581 0.281,0.027 0.582,0.125 0.912,0.29 0.449,0.229 0.758,0.473 0.923,0.739 0.169,0.26 0.147,0.6 -0.066,1.023 z m -2.46,4.678 -1.659,1.775 -3.617,-3.382 0.69,-0.738 1.418,1.326 0.73,-0.781 c 0.209,-0.227 0.312,-0.412 0.31,-0.561 -10e-4,-0.157 -0.113,-0.341 -0.343,-0.559 l -0.331,-0.32 c -0.106,-0.103 -0.199,-0.209 -0.282,-0.323 -0.04,-0.06 -0.091,-0.134 -0.147,-0.23 l 0.777,-0.831 0.091,0.084 c -0.026,0.115 0.002,0.223 0.077,0.33 0.049,0.072 0.155,0.18 0.317,0.333 l 0.243,0.227 c 0.254,0.241 0.409,0.452 0.467,0.634 0.06,0.187 0.046,0.393 -0.043,0.623 0.26,-0.135 0.508,-0.17 0.752,-0.102 0.25,0.068 0.458,0.184 0.63,0.344 0.143,0.138 0.246,0.277 0.316,0.425 0.068,0.151 0.112,0.308 0.129,0.47 0.024,0.202 0,0.395 -0.071,0.585 -0.07,0.193 -0.224,0.414 -0.454,0.671 m -1.597,0.449 -0.971,-0.909 0.801,-0.856 c 0.158,-0.169 0.297,-0.278 0.416,-0.328 0.208,-0.086 0.412,-0.033 0.618,0.155 0.219,0.205 0.299,0.413 0.238,0.632 -0.034,0.119 -0.128,0.261 -0.28,0.427 z m -3.535,0.957 c 0.451,0.791 0.574,1.503 0.369,2.145 -0.133,0.522 -0.506,0.958 -1.117,1.309 -0.616,0.352 -1.18,0.456 -1.695,0.309 -0.664,-0.143 -1.219,-0.608 -1.671,-1.394 -0.442,-0.777 -0.566,-1.488 -0.367,-2.146 0.133,-0.522 0.508,-0.958 1.119,-1.31 0.615,-0.351 1.179,-0.454 1.693,-0.308 0.673,0.164 1.227,0.627 1.669,1.395 m -1.855,-0.42 c 0.36,0.142 0.68,0.454 0.959,0.936 0.275,0.482 0.384,0.911 0.327,1.297 -0.057,0.381 -0.26,0.673 -0.617,0.881 -0.354,0.206 -0.713,0.237 -1.077,0.097 -0.36,-0.141 -0.679,-0.453 -0.96,-0.935 -0.277,-0.483 -0.387,-0.916 -0.327,-1.3 0.059,-0.383 0.267,-0.677 0.625,-0.882 0.354,-0.206 0.71,-0.235 1.07,-0.094 m -4.074,3.432 c 0.201,0.888 0.111,1.606 -0.271,2.159 -0.282,0.46 -0.766,0.769 -1.452,0.926 -0.693,0.155 -1.263,0.09 -1.711,-0.2 -0.593,-0.333 -0.988,-0.939 -1.191,-1.822 -0.196,-0.872 -0.106,-1.59 0.275,-2.16 0.282,-0.46 0.765,-0.768 1.453,-0.926 0.691,-0.155 1.262,-0.089 1.711,0.2 0.595,0.352 0.988,0.959 1.186,1.823 M 27.504,21.57 c 0.303,0.241 0.517,0.631 0.642,1.176 0.124,0.54 0.101,0.983 -0.065,1.335 -0.166,0.348 -0.446,0.568 -0.849,0.664 -0.398,0.09 -0.75,0.016 -1.056,-0.223 -0.303,-0.241 -0.518,-0.633 -0.646,-1.175 -0.125,-0.544 -0.103,-0.991 0.068,-1.34 0.167,-0.348 0.451,-0.569 0.856,-0.662 0.398,-0.091 0.746,-0.016 1.05,0.225 m -8.841,-0.706 0.962,0.067 -0.25,3.508 2.266,-3.363 1.033,0.073 -0.351,4.938 -0.962,-0.068 0.246,-3.447 -2.213,3.308 -1.083,-0.078 z m -3.09,4.32 -3.432,-1.186 1.617,-4.68 3.547,1.226 -0.29,0.842 -2.592,-0.896 -0.416,1.203 2.274,0.786 L 16,23.291 13.726,22.505 13.384,23.5 15.86,24.355 Z m -6.194,-5.291 -2.1,1.137 -0.985,-0.717 3.204,-1.489 1.096,-1.505 0.836,0.609 -1.096,1.505 -0.48,3.473 -0.948,-0.69 z M 4.799,18.982 2.419,16.239 6.16,12.995 8.618,15.83 7.945,16.413 6.15,14.342 5.188,15.177 6.765,16.993 6.115,17.557 4.539,15.741 3.744,16.429 5.461,18.408 Z M 3.89,8.917 4.354,9.833 2.504,10.775 3.489,12.712 2.722,13.101 1.738,11.163 0.722,11.679 1.846,13.892 1.071,14.286 -0.52,11.156 Z M 22.191,-17.235 C 32.482,-17.222 40.813,-8.869 40.8,1.42 40.789,11.711 32.436,20.043 22.146,20.03 11.855,20.017 3.524,11.665 3.536,1.375 3.549,-8.915 11.9,-17.248 22.191,-17.235 M -3.705,1.366 C -3.722,15.635 7.831,27.218 22.101,27.235 36.37,27.252 47.951,15.698 47.968,1.429 47.986,-12.84 36.433,-24.422 22.164,-24.438 7.894,-24.456 -3.687,-12.903 -3.705,1.366" style="fill:#000000;fill-opacity:1;fill-rule:nonzero;stroke:none" id="path17123"/>
        </g>
        <g id="g17125" transform="translate(54.1775,805.5471)">
          <path d="m 0,0 v -5.575 l 8.305,0.094 0.765,-6.053 -1.376,-0.002 c 0,0 -0.296,2.08 -1.69,3.162 -0.929,0.721 -2.1,1.453 -4.13,1.451 C 1.084,-6.924 0.349,-6.939 0,-6.948 v -9.349 c 0.513,0.114 1.524,0.601 1.524,2.001 0,0.649 -0.02,0.654 -0.02,0.654 l 1.154,10e-4 1.488,-8.081 -1.375,-0.037 C 2.526,-20.83 1.932,-17.768 0,-17.745 v -17.781 c 9.657,0.131 17.497,8.207 17.484,17.89 C 17.473,-7.954 9.656,-0.104 0,0" style="fill:#ffffff;fill-opacity:1;fill-rule:nonzero;stroke:none" id="path17127"/>
        </g>
        <g id="g17129" transform="translate(49.8375,789.1807)">
          <path d="M 0,0 3.881,0.037 V 9.406 L -0.011,9.401 Z" style="fill:#e30613;fill-opacity:1;fill-rule:nonzero;stroke:none" id="path17131"/>
        </g>
        <g id="g17133" transform="translate(53.7186,787.8017)">
          <path d="m 0,0 -3.901,0.006 c 0,0 0.009,-7.545 0.011,-9.232 0.002,-1.366 1.618,-1.486 1.618,-1.486 0.307,0 1.135,10e-4 1.135,10e-4 l 0.002,-1.337 -8.943,-0.01 -0.002,1.336 c 0,0 0,0.002 0.929,0.002 0.448,0 1.61,0.089 1.608,1.465 0,0 -0.02,16.167 -0.022,18.093 -0.002,1.938 -1.372,1.937 -1.372,1.937 L -10.175,10.773 -10.176,12.03 0,12.164 v 5.58 C -9.642,17.601 -17.415,9.739 -17.403,0.066 -17.391,-9.607 -9.642,-17.658 0,-17.78 Z" style="fill:#e30613;fill-opacity:1;fill-rule:nonzero;stroke:none" id="path17135"/>
        </g>
      </g>
    </g>
  </g>
</svg>