<svg xmlns:dc="http://purl.org/dc/elements/1.1/" xmlns:cc="http://creativecommons.org/ns#" xmlns:rdf="http://www.w3.org/1999/02/22-rdf-syntax-ns#" xmlns:svg="http://www.w3.org/2000/svg" xmlns="http://www.w3.org/2000/svg" xmlns:sodipodi="http://sodipodi.sourceforge.net/DTD/sodipodi-0.dtd" xmlns:inkscape="http://www.inkscape.org/namespaces/inkscape" inkscape:version="1.0 (4035a4f, 2020-05-01)" sodipodi:docname="ACF_Fiorentina (1).svg" xml:space="preserve" style="enable-background:new 0 0 464.9 690.9;" viewBox="0 0 464.9 690.9" height="690.9px" width="464.9px" y="0px" x="0px" id="Livello_1" version="1.1"><metadata id="metadata3806"><rdf:RDF><cc:Work rdf:about=""><dc:format>image/svg+xml</dc:format><dc:type rdf:resource="http://purl.org/dc/dcmitype/StillImage"/></cc:Work></rdf:RDF></metadata><defs id="defs3804"/><sodipodi:namedview inkscape:current-layer="Livello_1" inkscape:window-maximized="1" inkscape:window-y="25" inkscape:window-x="0" inkscape:cy="345.45001" inkscape:cx="232.45" inkscape:zoom="0.84800211" showgrid="false" id="namedview3802" inkscape:window-height="793" inkscape:window-width="1440" inkscape:pageshadow="2" inkscape:pageopacity="0" guidetolerance="10" gridtolerance="10" objecttolerance="10" borderopacity="1" bordercolor="#666666" pagecolor="#ffffff"/>
<style id="style3777" type="text/css">
	.st0{fill:#50408F;}
	.st1{fill:#B1A77A;}
	.st2{fill:#FFFFFF;}
	.st3{fill:#B33A2C;}
	.st4{fill-rule:evenodd;clip-rule:evenodd;fill:#FFFFFF;}
	.st5{fill-rule:evenodd;clip-rule:evenodd;fill:#CC2229;}
</style>
<g id="g3799">
	<g id="g3785">
		<polygon style="fill:#4c4184;fill-opacity:1" id="polygon3779" points="45.3,292.4 49.4,296 232.4,641.7 415.5,296 419.6,292.4 232.4,454.7   " class="st0"/>
		<path style="fill:#afa96e;fill-opacity:1" id="path3781" d="M233.9,1.6L232.4,0L0,253.1l232.4,437.8l232.4-437.8L233.9,1.6z M49.4,296l183,158.8l183-158.8l-183,345.8    L49.4,296z" class="st1"/>
		<polygon id="polygon3783" points="232.4,34 431.9,251.2 232.4,424.3 32.9,251.2   " class="st2"/>
	</g>
	<path style="fill:#b33d26;fill-opacity:1" id="path3787" d="M322.9,210.6c-38.3,0-47.1,22.7-69.8,58.2c0-14.8,21.2-59,44.2-80.7l11.4-2.6v-16.7l-15.6,2.4l-2.1,11.4   c-17.6,18.7-31.1,39.4-40.2,62.1c0,0,20.4-57.9,20.4-94.7c0-45.7-38.6-73.3-38.6-73.3s-38.6,27.5-38.6,73.3   c0,36.8,20.4,94.7,20.4,94.7c-9.1-22.8-22.6-43.5-40.2-62.1l-2.1-11.4l-15.6-2.4v16.7l11.4,2.6c23,21.7,44.2,65.8,44.2,80.7   c-22.7-35.4-31.5-58.2-69.8-58.2c-38.3,0-39.1,30.1-39.1,37.3c0,16.4,9,30.1,18.8,33.3c9.8,3.2,36.8-6.1,43.9,15.1   c0,0,6.9,0.3,6.9-10.6c0-10.8-16.9-18.8-16.9-23.8c0-5,3.4-7.1,8.5-7.1c5,0,39.7,4.5,49.8,65.8h-18.6v9h18.5   c-2.2,9.2-7.6,18.4-14.8,27.8h15.9c0,15,4.7,24.8,17.7,25.7c13-0.8,17.8-10.6,17.7-25.7H266c-7.2-9.3-12.7-18.6-14.8-27.8h18.5v-9   h-18.6c10.2-61.4,44.8-65.8,49.8-65.8s8.5,2.1,8.5,7.1c0,5-16.9,13-16.9,23.8c0,10.8,6.9,10.6,6.9,10.6   c7.1-21.2,34.1-11.9,43.9-15.1c9.8-3.2,18.8-16.9,18.8-33.3C362,240.8,361.2,210.6,322.9,210.6z" class="st3"/>
	<g id="g3797">
		<g id="g3793">
			<path id="path3789" d="M193.4,485.8l4.8-17.4l4.8,17.4H193.4L193.4,485.8z M208.1,504.4h14.2l-16.5-48.5h-14.9l-16.4,48.5h13.9     l2.2-8h15.3L208.1,504.4L208.1,504.4z" class="st4"/>
			<path id="path3791" d="M278.5,485.3l11.9,3.9c-0.8,3.7-2.1,6.8-3.8,9.2c-1.7,2.5-3.8,4.3-6.4,5.6c-2.5,1.3-5.8,1.9-9.7,1.9     c-4.8,0-8.7-0.8-11.7-2.3c-3-1.5-5.6-4.2-7.8-8.1c-2.2-3.9-3.3-8.8-3.3-14.8c0-8,1.9-14.2,5.8-18.5c3.9-4.3,9.3-6.5,16.4-6.5     c5.5,0,9.8,1.2,13,3.7c3.2,2.5,5.5,6.3,7.1,11.4l-12,2.9c-0.4-1.5-0.9-2.5-1.3-3.2c-0.8-1.1-1.7-2-2.8-2.6     c-1.1-0.6-2.3-0.9-3.7-0.9c-3.1,0-5.4,1.4-7.1,4.1c-1.2,2-1.9,5.2-1.9,9.5c0,5.3,0.7,9,2.2,11c1.5,2,3.5,3,6.2,3     c2.6,0,4.5-0.8,5.8-2.4C277,490.7,277.9,488.3,278.5,485.3L278.5,485.3z" class="st4"/>
		</g>
		<polygon style="fill:#d22630;fill-opacity:1" id="polygon3795" points="215.7,518.5 249.2,518.5 249.2,529 229.3,529 229.3,537.4 246.3,537.4 246.3,547.2 229.3,547.2     229.3,567 215.7,567 215.7,518.5   " class="st5"/>
	</g>
</g>
</svg>