<svg xmlns="http://www.w3.org/2000/svg" xmlns:xlink="http://www.w3.org/1999/xlink" version="1.1" id="Layer_2" x="0px" y="0px" width="262px" height="328px" viewBox="0 0 262 328" enable-background="new 0 0 262 328" xml:space="preserve">
<g id="white_circle__x28_mid_x29_">
	<path id="FAK_Background__x28_white_x29_" fill="#FFFFFF" d="M194.148,192.77c0,35.886-30.457,65.109-62.706,65.109   C99.195,257.879,70,228.655,70,192.77c0-35.886,29.195-64.846,61.443-64.846C163.691,127.924,194.148,156.883,194.148,192.77z"/>
</g>
<g id="FK_font">
	<polygon fill="#441678" points="85.255,166.444 85.271,207.417 92.495,207.544 92.487,190.473 103.124,190.468 103.122,183.638    92.616,183.645 92.612,173.007 101.279,173.003 103.908,177.598 108.241,174.05 103.64,166.437  "/>
	<polygon fill="#441678" points="171.018,183.218 181.912,166.404 174.163,166.407 164.187,182.038 164.18,166.019 156.961,165.888    156.975,206.862 164.33,206.858 164.325,193.2 166.949,190.179 176.016,206.198 184.03,206.194  "/>
</g>
<g id="purple_circles">
	<path fill="#441678" d="M131.542,124.112c-38.429,0-69.583,31.138-69.583,69.548s31.154,69.548,69.583,69.548   c38.43,0,69.583-31.138,69.583-69.548S169.972,124.112,131.542,124.112z M130.719,167.469l10.698,43.698H121L130.719,167.469z    M100.594,229.281c0,0-0.5,2.719-0.938,3.219s-0.906,2.281-4.469,2.5s-6.906-3.719-7.719-4.75s-5.625-6.563-9.688-16.719   s-3.5-20.313-3.531-20.531s0.438-10.438,4-18.5s7.563-14.563,13.25-20.313s15.375-12.813,24.063-15.375   c0,0,4.953-1.775,4.953,1.375c0,0.141-0.245,2.745-0.349,2.771c0,0-3.292,15.917-4,18.458s-13.354,58.021-13.354,58.021   L100.594,229.281z M143.042,249.791c-0.792,0.292-7.021,1.084-10.479,1.084s-9.875-0.624-13.708-1.396s-5.062-3.48-4.458-7.188   s3.698-18.041,3.698-18.041h27.219c0,0,2.94,9.719,3.375,11.469c0.438,1.761,1.312,5.614,1.333,6.531   S151.193,246.786,143.042,249.791z M176.605,229c-5.021,6.813-8.292,4.688-8.771,4.479c-3.664-1.597-5.229-6.458-5.334-6.854   c-0.15-0.57-23.667-83.625-23.667-83.625c-2.604-6.563,5.479-5.313,6.667-5c14.44,3.8,21.75,10.438,28.5,17   s13.688,21.625,14.625,33.188s-1.812,22.271-4.146,27.417S181.626,222.188,176.605,229z"/>
	<path fill="#441678" d="M131.562,69.925C63.251,69.925,7.875,125.3,7.875,193.608c0,68.308,55.376,123.682,123.687,123.682   s123.688-55.374,123.688-123.682C255.249,125.3,199.872,69.925,131.562,69.925z M66.529,195.5   c0-36.778,27.541-66.686,64.427-66.686c36.887,0,65.487,30.408,65.487,67.186s-28.014,63.212-64.901,63.212   C94.655,259.212,66.529,232.278,66.529,195.5z"/>
</g>
<g id="white_circles">
	<path fill="#FFFFFF" d="M131.556,120.734c-40.243,0-72.868,32.62-72.868,72.86c0,40.238,32.625,72.858,72.868,72.858   c40.244,0,72.866-32.62,72.866-72.858C204.422,153.354,171.8,120.734,131.556,120.734z M131.75,263   c-38.43,0-69.584-31.062-69.584-69.378s31.154-69.378,69.584-69.378s69.583,31.062,69.583,69.378S170.18,263,131.75,263z"/>
	<path fill="#FFFFFF" d="M131.555,78.75c-63.431,0-114.852,51.428-114.852,114.867c0,63.439,51.421,114.867,114.852,114.867   c63.43,0,114.851-51.428,114.851-114.867C246.406,130.178,194.985,78.75,131.555,78.75z M131.576,303.125   c-60.525,0-109.592-49.05-109.592-109.555S71.051,84.016,131.576,84.016c60.525,0,109.591,49.05,109.591,109.555   S192.102,303.125,131.576,303.125z"/>
</g>
<g id="FONT">
	<path id="_x31__2_" fill="#FFFFFF" d="M30.77,185.439v1.767h2.592v15.08h2.964v-19.3h-1.667   C33.573,183.911,32.225,184.702,30.77,185.439z"/>
	<path id="_x39_" fill="#FFFFFF" d="M46.271,182.986c-3.279,0-4.656,1.796-4.656,5.802v2.269c0,2.794,1.586,3.901,3.492,3.901   c1.323,0,1.851-0.422,2.698-1.267v4.456c0,1.238-0.555,1.818-1.534,1.818s-1.401-0.58-1.401-1.818v-0.977h-2.86v1.16   c0,2.426,1.669,4.273,4.261,4.221c3.281,0,4.658-1.637,4.658-5.221v-9.123C50.93,184.62,49.552,182.986,46.271,182.986z    M47.806,191.503c-0.396,0.315-1.111,0.869-1.692,0.869c-0.821,0-1.377-0.58-1.377-1.818v-3.164c0-1.237,0.556-1.819,1.535-1.819   s1.534,0.582,1.534,1.819V191.503z"/>
	<path id="_x31_" fill="#FFFFFF" d="M213.469,185.704v1.768h2.59v15.08h2.966v-19.301h-1.67   C216.271,184.173,214.924,184.964,213.469,185.704z"/>
	<path id="_x31__1_" fill="#FFFFFF" d="M229.08,183.251c-1.088,0.922-2.439,1.713-3.895,2.453v1.768h2.596v15.08h2.966v-19.301   H229.08z"/>
</g>
<g id="Fussballklub_Austria_Wien_Font">
	<polygon fill="#FFFFFF" points="64.968,151.575 56.967,146.673 59.559,142.436 56.857,140.781 54.268,145.02 49.618,142.17    53.081,136.503 50.38,134.85 44.981,143.682 63.035,154.739  "/>
	<path fill="#FFFFFF" d="M75.4,138.124c2.405-2.583,2.418-5.524-0.234-8.015l-11.546-10.847l-2.527,2.714l11.654,10.947   c1.133,1.065,1.261,2.047,0.344,3.031c-0.917,0.985-1.901,0.923-3.034-0.142l-11.654-10.947l-2.526,2.713l11.546,10.847   C70.076,140.916,72.996,140.706,75.4,138.124z"/>
	<path fill="#FFFFFF" d="M86.057,122.289c0.726,1.034,0.409,2.089-0.637,2.835c-0.972,0.693-2.285,0.331-3.639-1.337l-2.583,2.455   c1.945,2.509,5.104,3.576,7.9,1.582c2.821-2.012,3.652-4.985,1.643-7.846c-3.309-4.71-10.433-1.759-12.51-4.715   c-0.759-1.081-0.663-2.088,0.309-2.781c0.681-0.486,1.788-0.626,2.956,0.778l2.65-2.359c-1.99-2.261-4.681-2.975-7.138-1.224   c-2.966,2.116-3.571,4.892-1.629,7.656C76.874,122.308,83.643,118.852,86.057,122.289z"/>
	<path fill="#FFFFFF" d="M100.138,114.625c0.515,1.155,0.003,2.132-1.163,2.664c-1.086,0.494-2.304-0.115-3.313-2.014l-2.999,1.915   c1.429,2.841,4.32,4.497,7.441,3.076c3.148-1.435,4.529-4.197,3.105-7.396c-2.345-5.267-9.889-3.737-11.361-7.042   c-0.538-1.21-0.253-2.181,0.833-2.676c0.759-0.346,1.87-0.27,2.748,1.335l3.046-1.809c-1.518-2.605-4.02-3.825-6.761-2.576   c-3.31,1.509-4.432,4.121-3.056,7.211C91.134,112.876,98.426,110.783,100.138,114.625z"/>
	<path fill="#FFFFFF" d="M115.757,103.17c1.587-1.094,1.925-3.139,1.528-4.922c-0.786-3.539-2.933-5.099-6.789-4.205l-5.336,1.237   l4.618,20.77l5.683-1.317c4.09-0.947,5.051-3.892,4.29-7.316C119.157,104.742,117.764,103.552,115.757,103.17z M109.409,97.381   l1.363-0.316c1.595-0.37,2.573,0.462,3.001,2.39c0.384,1.726-0.455,2.889-1.818,3.205l-1.305,0.302L109.409,97.381z    M114.229,111.934l-1.507,0.35l-1.421-6.387l1.16-0.268c2.147-0.498,3.195,0.379,3.668,2.507   C116.597,110.235,116.144,111.491,114.229,111.934z"/>
	<path fill="#FFFFFF" d="M132.916,91.402l-4.575,0.115l-3.577,21.411l3.565-0.09l0.57-4.739l4.04-0.103l0.736,4.706l3.566-0.09   L132.916,91.402z M129.379,104.897l1.294-9.187l0.059-0.001l1.617,9.113L129.379,104.897z"/>
	<polygon fill="#FFFFFF" points="148.281,92.599 144.646,92.013 141.139,113.064 150.488,114.567 151.012,111.419 145.299,110.5     "/>
	<polygon fill="#FFFFFF" points="164.429,115.758 158.965,113.859 164.979,96.724 161.506,95.516 154.433,115.667 163.371,118.773     "/>
	<polygon fill="#FFFFFF" points="173.99,115.725 176.297,114.317 176.349,114.347 174.014,124.464 177.256,126.32 180.023,112.461    187.423,107.526 184.23,105.701 176.964,110.643 176.912,110.613 180.834,103.756 177.643,101.929 167.039,120.472 170.23,122.299     "/>
	<polygon fill="#FFFFFF" points="187.048,134.577 189.113,132.138 184.711,128.386 196.443,114.524 193.643,112.138    179.848,128.438  "/>
	<path fill="#FFFFFF" d="M193.203,142.158c2.167,2.754,5.06,3.183,7.926,0.9l12.477-9.942l-2.275-2.895l-12.594,10.035   c-1.226,0.976-2.212,0.964-3.037-0.086c-0.825-1.051-0.611-2.02,0.613-2.995l12.596-10.035l-2.276-2.894l-12.479,9.942   C191.287,136.471,191.039,139.403,193.203,142.158z"/>
	<path fill="#FFFFFF" d="M221.213,146.471l-2.367-4.935l-19.126,9.37l2.522,5.256c1.813,3.782,4.878,4.035,8.029,2.491   c2.465-1.207,3.313-2.848,3.244-4.901c1.408,1.298,3.464,1.151,5.105,0.347C221.879,152.502,222.922,150.039,221.213,146.471z    M208.784,155.275c-1.935,0.948-3.249,0.797-4.099-0.973l-0.668-1.395l5.88-2.88l0.515,1.072   C211.363,153.084,210.743,154.315,208.784,155.275z M216.682,150.942c-1.59,0.779-2.898,0.228-3.504-1.032l-0.578-1.207l5.14-2.518   l0.605,1.261C219.051,148.921,218.457,150.072,216.682,150.942z"/>
	<path fill="#FFFFFF" d="M63.411,235.542l-19.986,7.979l1.929,3.033l4.309-1.957l2.185,3.438l-3.602,3.068l1.928,3.033   l15.711-14.701L63.411,235.542z M54.229,245.884l-1.607-2.529l8.451-3.631l0.031,0.051L54.229,245.884z"/>
	<path fill="#FFFFFF" d="M75.66,251.312l-11.586,10.98c-1.126,1.068-2.111,1.135-3.038,0.156c-0.927-0.979-0.806-1.959,0.32-3.027   l11.586-10.98l-2.554-2.695l-11.479,10.879c-2.636,2.498-2.599,5.434-0.169,8c2.429,2.566,5.357,2.762,7.994,0.264l11.479-10.879   L75.66,251.312z"/>
	<path fill="#FFFFFF" d="M87.771,267.247c1.458-2.629,1.229-5.414-1.237-7.166c-2.979-2.113-5.789-1.773-7.735,0.977   c-3.504,4.949,2.006,10.225-0.415,13.645c-0.727,1.027-1.824,1.074-2.875,0.33c-0.976-0.693-1.075-2.057,0.038-3.889l-3.168-1.639   c-1.706,2.67-1.652,6.012,1.156,8.006c2.832,2.01,5.903,1.818,7.917-1.027c3.318-4.686-1.837-10.463,0.245-13.404   c0.761-1.076,1.739-1.316,2.715-0.623c0.684,0.484,1.185,1.486,0.258,3.057L87.771,267.247z"/>
	<polygon fill="#FFFFFF" points="103.248,269.558 93.375,264.944 92.041,267.813 95.294,269.335 87.707,285.647 91.069,287.22    98.659,270.905 101.913,272.427  "/>
	<path fill="#FFFFFF" d="M111.895,272.13l-5.05-1.27l-5.118,20.537l3.599,0.904l2.098-8.418c0.639,0.16,1.4,0.322,1.878,0.381   l0.435,9.146l3.657,0.92l-0.73-10.068c1.354-0.234,2.993-1.242,3.816-4.541C117.57,275.343,115.929,273.146,111.895,272.13z    M112.88,278.817c-0.61,2.445-1.512,2.975-3.457,2.484l-1.276-0.32l1.573-6.314l1.277,0.322   C112.941,275.478,113.49,276.37,112.88,278.817z"/>
	<polygon fill="#FFFFFF" points="122.146,295.374 125.845,295.661 127.439,274.55 123.742,274.265  "/>
	<path fill="#FFFFFF" d="M135.91,274.562l-2.146,21.434l3.576-0.301l0.253-4.73l4.053-0.342l1.06,4.621l3.576-0.303l-5.781-20.766   L135.91,274.562z M137.858,287.761l0.68-9.182l0.059-0.006l2.242,8.938L137.858,287.761z"/>
	<polygon fill="#FFFFFF" points="169.396,265.185 173.1,278.329 173.045,278.354 165.176,267.097 162.399,268.354 165.774,281.646    165.72,281.671 158.07,270.315 154.912,271.747 167.402,289.351 170.232,288.067 166.734,274.286 166.789,274.261 175.026,285.897    177.859,284.616 172.556,263.755  "/>
	
		<rect x="173.083" y="266.613" transform="matrix(-0.5804 -0.8144 0.8144 -0.5804 71.6489 573.8544)" fill="#FFFFFF" width="21.192" height="3.707"/>
	<polygon fill="#FFFFFF" points="199.025,265.403 194.682,260.95 198.103,257.608 195.89,255.341 192.467,258.681 188.656,254.774    193.102,250.429 190.891,248.161 183.79,255.093 198.588,270.263 205.987,263.038 203.773,260.769  "/>
	<polygon fill="#FFFFFF" points="198.72,237.812 208.666,244.735 208.633,244.786 196.112,241.567 194.148,244.392 211.539,256.497    213.447,253.747 202.586,246.187 202.621,246.136 216.176,249.817 218.017,247.167 200.629,235.062  "/>
</g>
<g id="Sterne">
	<polygon fill="#AE9A64" points="87.436,5.177 94.036,25.491 115.395,25.491 98.116,38.046 104.715,58.362 87.436,45.808    70.153,58.362 76.756,38.046 59.477,25.491 80.834,25.491  "/>
	<polygon fill="#AE9A64" points="173.938,5.177 180.54,25.491 201.899,25.491 184.62,38.046 191.222,58.362 173.938,45.808    156.657,58.362 163.259,38.046 145.979,25.491 167.337,25.491  "/>
</g>
</svg>