<svg xmlns:svg="http://www.w3.org/2000/svg" xmlns="http://www.w3.org/2000/svg" version="1.0" width="1024" height="586" viewBox="-4.8934146 -4.8934146 302.1224592 172.9006492" id="svg2520">
  <defs id="defs2522"/>
  <path d="M 105.32235,1.2388108 C 149.90242,1.2388108 186.25985,37.596241 186.25985,82.176311 C 186.25985,126.75639 149.90242,163.11381 105.32235,163.11381 C 60.742266,163.11381 24.384846,126.75639 24.384846,82.176311 C 24.384846,37.596241 60.742266,1.2388108 105.32235,1.2388108 z" id="path2479" style="fill:#e6e6e6;fill-opacity:1;fill-rule:evenodd;stroke:none"/>
  <path d="M 86.425856,50.779821 C 83.750086,55.862841 81.230546,60.960491 78.974686,66.067911 C 76.733486,71.141151 74.751056,76.224161 73.125086,81.302291 L 70.610436,80.506391 C 72.260816,75.340371 74.277416,70.169471 76.562586,65.008341 C 78.837966,59.861861 81.386796,54.710491 84.101646,49.549361 L 86.425856,50.779821 z" id="path2481" style="fill:#0033cc;fill-opacity:1;fill-rule:nonzero;stroke:none"/>
  <path d="M 71.919016,30.340371 C 67.011796,30.984911 62.495196,31.893111 58.359456,33.064991 C 54.257896,34.227091 50.556716,35.647991 47.241296,37.327671 L 46.054766,34.979051 C 49.516686,33.221241 53.388746,31.736861 57.646556,30.525921 C 61.884846,29.329641 66.528396,28.397011 71.577236,27.732951 L 71.919016,30.340371 z" id="path2483" style="fill:#0033cc;fill-opacity:1;fill-rule:nonzero;stroke:none"/>
  <path d="M 31.586996,65.193891 L 33.740316,63.680211 L 43.623116,77.718301 L 41.464916,79.236861 L 31.586996,65.193891 z" id="path2485" style="fill:#0033cc;fill-opacity:1;fill-rule:nonzero;stroke:none"/>
  <path d="M 48.335046,117.56694 L 49.873116,119.70072 L 38.603596,127.83549 L 37.070396,125.7017 L 48.335046,117.56694 z" id="path2487" style="fill:#0033cc;fill-opacity:1;fill-rule:nonzero;stroke:none"/>
  <path d="M 94.521556,155.59916 C 92.011796,152.68901 89.628986,149.77885 87.382896,146.86381 C 85.102616,143.89995 82.983486,140.98491 81.035236,138.1187 L 83.227616,136.6392 C 85.210046,139.55424 87.294996,142.43021 89.462966,145.25249 C 91.679766,148.12846 94.033286,151.00444 96.508866,153.88041 L 94.521556,155.59916 z" id="path2489" style="fill:#0033cc;fill-opacity:1;fill-rule:nonzero;stroke:none"/>
  <path d="M 183.22762,102.74271 C 180.5372,101.17534 177.82235,99.715371 175.06845,98.372601 C 172.34384,97.044471 169.62899,95.848191 166.92391,94.793501 L 167.89071,92.337451 C 170.6788,93.431201 173.45711,94.651901 176.22567,96.004441 C 178.96492,97.342321 181.74325,98.836471 184.55086,100.47709 L 183.22762,102.74271 z" id="path2491" style="fill:#0033cc;fill-opacity:1;fill-rule:nonzero;stroke:none"/>
  <path d="M 129.73152,147.22514 C 132.40242,143.21635 134.72176,139.01714 136.7872,134.67631 C 138.84774,130.35014 140.65439,125.86284 142.295,121.28764 L 144.78036,122.17142 C 143.1202,126.80521 141.28426,131.356 139.16512,135.80912 C 137.06062,140.24271 134.67294,144.55912 131.91415,148.68999 L 129.73152,147.22514 z" id="path2493" style="fill:#0033cc;fill-opacity:1;fill-rule:nonzero;stroke:none"/>
  <path d="M 143.76961,153.36771 C 132.3243,159.57866 119.21884,163.11381 105.32235,163.11381 C 99.433666,163.11381 93.681716,162.47416 88.139736,161.26322 L 94.585046,153.52396 C 108.80867,152.98686 121.1329,150.5601 131.88485,146.5562 L 143.76961,153.36771 z M 25.146556,71.102091 C 27.343836,55.164591 34.209056,40.682171 44.316486,29.085491 L 47.978596,35.765171 C 42.768636,44.852091 38.081136,55.003461 33.930746,66.214401 L 25.146556,71.102091 z M 86.455156,3.4702608 C 90.576246,2.4790508 94.819416,1.8052108 99.150466,1.4731908 C 106.73836,4.8813908 115.87899,10.623571 125.5909,17.220261 L 118.57919,45.711471 C 103.32527,48.587451 91.855546,51.644091 82.988356,54.817911 C 78.310616,45.901901 73.261796,37.596241 67.670986,30.193891 C 73.398516,19.695841 79.668046,10.779821 86.455156,3.4702608 z M 45.922936,92.273961 C 45.253986,101.82964 45.112386,111.3853 45.503006,120.93607 C 57.021556,127.56694 69.785236,133.56791 83.427816,139.1392 C 85.752036,129.91069 88.759846,121.53177 92.431716,113.98784 L 61.772546,84.505411 L 45.922936,92.273961 z M 133.58406,115.0767 L 142.80282,82.010301 L 156.15731,54.666551 C 162.0411,69.207561 166.50887,78.875541 169.05282,94.261271 L 142.10946,124.8228 L 133.58406,115.0767 z" id="path2495" style="fill:#0033cc;fill-opacity:1;fill-rule:evenodd;stroke:none"/>
  <path d="M 16.377036,133.66557 C 16.064536,128.90971 28.076246,122.5767 35.957106,112.45464 C 38.920986,108.64604 41.284256,93.553261 55.024496,89.500541 C 56.958086,88.924361 59.711996,88.987841 61.748116,91.326701 C 59.858486,93.167521 56.865316,94.778851 54.829186,98.523961 C 53.603596,100.77982 52.724686,103.79741 52.627036,108.10405 C 51.635816,109.41264 50.835046,112.2935 51.425856,116.18021 C 52.890706,113.30912 55.024496,111.44389 57.353596,110.17924 C 63.984456,109.18315 71.220786,106.23881 74.858486,107.3228 C 87.031336,110.94096 88.847736,114.18802 99.145586,116.77104 C 107.1534,118.77299 126.66024,121.0728 145.58114,119.1978 C 154.87801,118.27006 175.85457,111.3267 182.54891,117.70365 C 186.65047,114.67142 191.65536,111.99565 198.26669,109.95951 C 179.04305,103.39214 171.36239,108.18705 165.6495,106.44877 C 159.94149,104.71049 149.02352,99.275921 148.93562,88.162641 C 148.87704,80.311071 163.96981,34.803261 173.55965,29.939991 C 189.91707,21.653851 219.52645,17.586471 245.4786,13.641151 C 271.28426,9.7153708 293.11044,9.9985708 292.31454,7.5522908 C 271.1622,0.16947085 233.27156,0.09624085 221.43075,0.0083408496 C 186.51375,-0.24555915 140.89364,5.2915508 123.52547,17.391151 C 122.33895,19.744671 122.19735,29.305211 117.92977,42.210491 C 114.6534,52.117711 109.30672,61.116741 103.65242,67.381391 C 98.789146,72.762251 90.302816,76.985891 83.330156,79.183151 C 64.887766,79.183151 47.797936,69.778851 29.306716,72.322801 C 13.212966,74.539591 -0.03898383,90.013221 8.6170213e-05,104.9644 C 0.02936617,115.49662 7.2705862,124.87651 16.377036,133.66557 z" id="path2497" style="fill:#999999;fill-opacity:1;fill-rule:evenodd;stroke:none"/>
  <path d="M 67.646556,93.543501 C 73.100666,90.047411 78.593836,87.645061 85.048906,85.281771 C 93.056716,82.347211 99.863356,77.107951 105.43954,70.535691 C 116.46492,57.537641 122.66121,39.329641 123.72567,23.392141 C 123.0909,25.980021 121.4161,36.189991 119.9952,40.384321 C 118.35457,45.223191 116.31356,50.667521 113.56454,55.740761 C 109.9122,62.459511 105.90829,67.947801 100.62509,72.190961 C 96.074296,75.838421 89.218836,79.529821 83.652416,81.077671 C 79.082106,82.342321 75.859456,83.201701 72.246166,83.299361 C 67.334056,83.431201 62.851646,82.391151 58.593836,80.784711 C 49.585046,77.381391 29.189536,72.689011 15.253986,78.587451 C 19.345786,78.128461 23.603596,77.855021 27.885816,77.864791 C 38.872146,77.908741 50.048906,79.866741 59.204186,85.506391 C 61.699296,87.049361 63.667066,88.641151 65.820396,90.770061 C 59.770586,95.052291 55.034256,97.371621 53.178796,107.13236 C 57.172936,99.656771 61.816486,97.283741 67.646556,93.543501 z" id="path2499" style="fill:#ffffff;fill-opacity:1;fill-rule:evenodd;stroke:none"/>
</svg>