<svg xmlns:dc="http://purl.org/dc/elements/1.1/" xmlns:cc="http://creativecommons.org/ns#" xmlns:rdf="http://www.w3.org/1999/02/22-rdf-syntax-ns#" xmlns:svg="http://www.w3.org/2000/svg" xmlns="http://www.w3.org/2000/svg" xmlns:xlink="http://www.w3.org/1999/xlink" xmlns:sodipodi="http://sodipodi.sourceforge.net/DTD/sodipodi-0.dtd" xmlns:inkscape="http://www.inkscape.org/namespaces/inkscape" version="1.1" id="svg2" width="802" height="481" viewBox="0 0 802 481" sodipodi:docname="Flagge Fürth.svg" inkscape:version="0.92.3 (2405546, 2018-03-11)">
  <metadata id="metadata8">
    <rdf:RDF>
      <cc:Work rdf:about="">
        <dc:format>image/svg+xml</dc:format>
        <dc:type rdf:resource="http://purl.org/dc/dcmitype/StillImage"/>
        <dc:title/>
      </cc:Work>
    </rdf:RDF>
  </metadata>
  <defs id="defs6">
    <inkscape:perspective id="perspective3675" inkscape:persp3d-origin="372.04724 : 350.78739 : 1" inkscape:vp_z="744.09448 : 526.18109 : 1" inkscape:vp_y="0 : 1000 : 0" inkscape:vp_x="0 : 526.18109 : 1" sodipodi:type="inkscape:persp3d"/>
    <inkscape:perspective sodipodi:type="inkscape:persp3d" inkscape:vp_x="0 : 526.18109 : 1" inkscape:vp_y="0 : 1000 : 0" inkscape:vp_z="744.09448 : 526.18109 : 1" inkscape:persp3d-origin="372.04724 : 350.78739 : 1" id="perspective3809"/>
    <clipPath id="clipPath373">
      <path id="path375" d="M 404.162,541.974 L 404.162,375.563 L 559.343,375.563 L 559.343,541.974"/>
    </clipPath>
  </defs>
  <sodipodi:namedview pagecolor="#ffffff" bordercolor="#666666" borderopacity="1" objecttolerance="10" gridtolerance="10" guidetolerance="10" inkscape:pageopacity="0" inkscape:pageshadow="2" inkscape:window-width="1920" inkscape:window-height="1017" id="namedview4" showgrid="false" inkscape:zoom="1.0015877" inkscape:cx="445.99746" inkscape:cy="250.19024" inkscape:window-x="-8" inkscape:window-y="-8" inkscape:window-maximized="1" inkscape:current-layer="svg2"/>
  <rect style="opacity:1;fill:#339933;fill-opacity:1;fill-rule:evenodd;stroke:none;stroke-opacity:1" id="rect817" width="802" height="481" x="0" y="0"/>
  <rect style="opacity:1;fill:#ffffff;fill-opacity:1;fill-rule:evenodd;stroke:none;stroke-width:0.70778972;stroke-opacity:1" id="rect819" width="802" height="240.96478" x="0" y="0"/>
  <g id="g1267" transform="translate(305.75001,109.11031)">
    <g id="g1237" stroke-miterlimit="16" style="stroke:#000000;stroke-linecap:round;stroke-miterlimit:16">
      <g id="a" style="stroke-linejoin:round">
        <path id="path1222" d="m 101.9,3.3 c -17.3,15.6 -40.3,7 -58.5,40 -30.6,4.1 -23.8,38.9 -40.1,61.4 20,28.4 14.3,63.9 1.8,87.6 13.3,9.2 20.6,23.6 27.6,38 8.5,20.4 25.3,36.1 43.7,22.4 13.9,-1.3 27.3,-1.3 40.6,-0.7" inkscape:connector-curvature="0" style="fill:#ffdd11;stroke-width:4"/>
        <path id="path1224" d="m 44,43 5,4.5 m 7.7,194.8 c 1.1,6.6 9.6,7 11.4,1.3 m 6.2,-10.9 c 8.6,3.3 5.9,16.3 -0.4,21.1" inkscape:connector-curvature="0" style="fill:none;stroke-width:3"/>
      </g>
      <use id="use1227" xlink:href="#a" transform="matrix(-1,0,0,1,204,0)" x="0" y="0" width="100%" height="100%"/>
      <use id="use1229" xlink:href="#b" transform="matrix(-1,0,0,1,204,0)" x="0" y="0" width="100%" height="100%"/>
      <path d="m 102,20.2 c -18.9,0 -36.2,3.9 -51.7,28.3 -35,8.8 -20.5,40.1 -43.2,61.4 13,24 12.8,50.3 0.5,78.6 21.8,6.5 28.4,39.7 49.2,54.5 -1.7,-12.8 10.4,-12.8 18,-10.1 14.6,5 37.5,6.3 51.6,0.9" id="b" inkscape:connector-curvature="0" style="fill:#ffffff;stroke-width:3"/>
      <path d="M 107.7,140.6 H 96.3 C 84.1,161.1 72.4,171.9 63.6,176.9 42.8,188.6 23.3,169.1 36.9,148.5 21.8,139.3 22.3,114.6 40.8,111.2 54.3,108.7 76,120 88.9,124.7 77,106 55.7,84.8 55.2,71.1 54.3,43.3 87.1,34.6 102,58.9 l 2,-2.9" id="c" inkscape:connector-curvature="0" style="fill:#339933;stroke-width:3.5"/>
      <use id="use1233" xlink:href="#c" transform="matrix(-1,0,0,1,204,0)" x="0" y="0" width="100%" height="100%"/>
      <use id="use1235" xlink:href="#d" style="stroke-width:5" x="0" y="0" width="100%" height="100%"/>
    </g>
    <g id="d">
      <g id="e">
        <path id="path1239" d="M 104,214 H 94 c 0.8,-10.8 -1,-22 -8,-28 8,-0.5 9,5 11,11 0.9,-18.4 1.4,-37.7 1.4,-54 0,-2 -1.4,-2.2 -1.4,-2.2 -10,-1.8 -26,0.8 -39,1.8 8,-3.6 28,-7.6 41,-7.6 0,-16 2,-35 3,-45 l 1,10" inkscape:connector-curvature="0" style="fill:#ffdd11"/>
      </g>
      <use id="use1242" xlink:href="#e" transform="matrix(-1,0,0,1,204,0)" x="0" y="0" width="100%" height="100%"/>
    </g>
  </g>
</svg>