<svg xmlns="http://www.w3.org/2000/svg" xmlns:xlink="http://www.w3.org/1999/xlink" version="1.0" id="Layer_1" x="0px" y="0px" width="522.064px" height="675.831px" viewBox="0 0 522.064 675.831" enable-background="new 0 0 522.064 675.831" xml:space="preserve">
<g>
	<g>
		<g>
			<g>
				<g>
					<polygon fill="#D9DADB" points="112.87,139.029 32.298,166.474 32.298,233.153 112.866,204.894      "/>
					<polygon points="112.624,138.32 31.542,165.939 31.542,234.213 113.624,205.424 113.626,137.978      "/>
					<path fill="#CCCCCC" d="M112.112,153.875l-79.059,26.989c0,3.662,0,7.801,0,12.1l79.059-26.989       C112.112,161.68,112.112,157.541,112.112,153.875z"/>
					<path fill="#CCCCCC" d="M112.114,140.08c-1.943,0.661-78.064,26.591-79.061,26.93c0,0.286,0,5.229,0,12.27l79.059-26.989       C112.114,145.476,112.114,140.624,112.114,140.08z"/>
					<path fill="#CCCCCC" d="M112.112,167.561L33.054,194.55c0,4.141,0,8.391,0,12.477l79.059-26.988       C112.112,175.962,112.112,171.71,112.112,167.561z"/>
					<path fill="#CCCCCC" d="M112.112,181.625l-79.059,26.988c0,4.43,0,8.613,0,12.193l79.057-26.988       C112.11,190.275,112.112,186.083,112.112,181.625z"/>
					<path fill="#CCCCCC" d="M33.054,222.392c0,5.477,0,9.225,0,9.7c1.955-0.686,78.074-27.384,79.057-27.729       c0-0.238,0-3.726,0-8.96L33.054,222.392z"/>
					<path d="M112.112,180.039l-79.059,26.988c0,0.532,0,1.061,0,1.586l79.059-26.988       C112.112,181.099,112.112,180.571,112.112,180.039z"/>
					<path d="M112.112,165.975l-79.059,26.989c0,0.526,0,1.056,0,1.586l79.059-26.989       C112.112,167.031,112.112,166.502,112.112,165.975z"/>
					<path d="M112.112,152.29l-79.059,26.989c0,0.52,0,1.046,0,1.586l79.059-26.989C112.112,153.336,112.112,152.807,112.112,152.29       z"/>
					<path d="M112.11,193.818l-79.057,26.988c0,0.542,0,1.073,0,1.586l79.057-26.988C112.11,194.892,112.11,194.362,112.11,193.818z       "/>
					<rect x="44.946" y="218.076" width="1.008" height="10"/>
					<rect x="70.493" y="208.742" width="1.008" height="10"/>
					<rect x="94.36" y="200.742" width="1.008" height="10"/>
					<rect x="103.435" y="183.743" width="1.01" height="12.999"/>
					<rect x="81.585" y="191.41" width="1.01" height="12.999"/>
					<rect x="58.056" y="199.41" width="1.008" height="12.999"/>
					<rect x="36.206" y="206.743" width="1.008" height="12.999"/>
					<rect x="44.272" y="190.077" width="1.01" height="12.999"/>
					<rect x="67.804" y="182.077" width="1.008" height="12.999"/>
					<rect x="91.671" y="174.41" width="1.008" height="12.999"/>
					<rect x="106.124" y="155.077" width="1.01" height="12.999"/>
					<rect x="80.913" y="164.077" width="1.008" height="12.999"/>
					<rect x="55.03" y="172.743" width="1.008" height="12.999"/>
					<rect x="39.231" y="164.41" width="1.008" height="12.999"/>
					<rect x="66.46" y="155.077" width="1.008" height="12.999"/>
					<rect x="89.653" y="147.41" width="1.008" height="12.999"/>
					<g>
						<polygon fill="#D9DADB" points="32.745,179.075 42.761,162.076 42.761,140.822 45.265,140.822 32.745,123.824 20.224,140.822         22.728,140.822 22.728,162.076       "/>
						<path d="M32.141,123.379L18.74,141.572c0,0,2.502,0,3.238,0c0,1.396,0,20.708,0,20.708l10.768,18.272l10.766-18.272        c0,0,0-19.313,0-20.708c0.736,0,3.238,0,3.238,0l-14.003-19.013L32.141,123.379z M32.745,125.088        c1.013,1.375,9.593,13.025,11.036,14.983c-0.493,0-1.77,0-1.77,0s0,21.398,0,21.799c-0.19,0.323-8.147,13.828-9.266,15.726        c-1.119-1.898-9.078-15.403-9.268-15.726c0-0.401,0-21.799,0-21.799s-1.277,0-1.77,0        C23.15,138.113,31.732,126.464,32.745,125.088z"/>
						<rect x="26.989" y="141.061" width="11.512" height="12.293"/>
					</g>
				</g>
				<g>
					<polygon fill="#D9DADB" points="405.196,139.029 485.769,166.474 485.769,233.153 405.2,204.894      "/>
					<polygon points="404.44,137.978 404.444,205.424 486.524,234.213 486.524,165.939 405.444,138.32      "/>
					<path fill="#CCCCCC" d="M405.954,153.875l79.059,26.989c0,3.662,0,7.801,0,12.1l-79.059-26.989       C405.954,161.68,405.954,157.541,405.954,153.875z"/>
					<path fill="#CCCCCC" d="M405.954,140.08c1.941,0.661,78.063,26.591,79.059,26.93c0,0.286,0,5.229,0,12.27l-79.059-26.989       C405.954,145.476,405.954,140.624,405.954,140.08z"/>
					<path fill="#CCCCCC" d="M405.956,167.561l79.057,26.989c0,4.141,0,8.391,0,12.477l-79.057-26.988       C405.956,175.962,405.956,171.71,405.956,167.561z"/>
					<path fill="#CCCCCC" d="M405.956,181.625l79.057,26.988c0,4.43,0,8.613,0,12.193l-79.057-26.988       C405.956,190.275,405.956,186.083,405.956,181.625z"/>
					<path fill="#CCCCCC" d="M485.013,222.392c0,5.477,0,9.225,0,9.7c-1.955-0.686-78.074-27.384-79.057-27.729       c0-0.238,0-3.726,0-8.96L485.013,222.392z"/>
					<path d="M405.956,180.039l79.057,26.988c0,0.532,0,1.061,0,1.586l-79.057-26.988       C405.956,181.099,405.956,180.571,405.956,180.039z"/>
					<path d="M405.954,165.975l79.059,26.989c0,0.526,0,1.056,0,1.586l-79.057-26.989       C405.956,167.031,405.956,166.502,405.954,165.975z"/>
					<path d="M405.954,152.29l79.059,26.989c0,0.52,0,1.046,0,1.586l-79.059-26.989C405.954,153.336,405.954,152.807,405.954,152.29       z"/>
					<path d="M405.956,193.818l79.057,26.988c0,0.542,0,1.073,0,1.586l-79.057-26.988       C405.956,194.892,405.956,194.362,405.956,193.818z"/>
					<rect x="472.112" y="218.076" width="1.01" height="10"/>
					<rect x="446.565" y="208.742" width="1.008" height="10"/>
					<rect x="422.7" y="200.742" width="1.008" height="10"/>
					<rect x="413.624" y="183.743" width="1.008" height="12.999"/>
					<rect x="435.472" y="191.41" width="1.01" height="12.999"/>
					<rect x="459.003" y="199.41" width="1.01" height="12.999"/>
					<rect x="480.853" y="206.743" width="1.008" height="12.999"/>
					<rect x="472.784" y="190.077" width="1.01" height="12.999"/>
					<rect x="449.255" y="182.077" width="1.008" height="12.999"/>
					<rect x="425.388" y="174.41" width="1.008" height="12.999"/>
					<rect x="410.935" y="155.077" width="1.008" height="12.999"/>
					<rect x="436.146" y="164.077" width="1.008" height="12.999"/>
					<rect x="462.028" y="172.743" width="1.008" height="12.999"/>
					<rect x="477.827" y="164.41" width="1.008" height="12.999"/>
					<rect x="450.599" y="155.077" width="1.008" height="12.999"/>
					<rect x="427.405" y="147.41" width="1.008" height="12.999"/>
					<g>
						<polygon fill="#D9DADB" points="485.321,179.075 475.308,162.076 475.308,140.822 472.802,140.822 485.321,123.824         497.843,140.822 495.339,140.822 495.339,162.076       "/>
						<path d="M484.718,123.379l-13.399,18.193c0,0,2.503,0,3.239,0c0,1.396,0,20.708,0,20.708l10.764,18.272l10.768-18.272        c0,0,0-19.313,0-20.708c0.736,0,3.238,0,3.238,0l-14.006-19.013L484.718,123.379z M485.321,125.088        c1.014,1.375,9.595,13.025,11.037,14.983c-0.492,0-1.77,0-1.77,0s0,21.398,0,21.799c-0.19,0.323-8.148,13.828-9.268,15.726        c-1.118-1.898-9.073-15.403-9.264-15.726c0-0.401,0-21.799,0-21.799s-1.278,0-1.772,0        C475.728,138.113,484.309,126.464,485.321,125.088z"/>
						<rect x="479.565" y="141.061" width="11.514" height="12.293"/>
					</g>
				</g>
			</g>
			<g>
				<g>
					<path fill="#D9DADB" d="M390.312,2.93l-8.314,18.297c0,0,0,15.048,0,15.988c-0.91,0-13.156,0-14.066,0       c0-0.94,0-16.031,0-16.031l-12.602-18.92L341.21,21.169c0,0,0,15.106,0,16.046c-0.906,0-12.57,0-13.477,0       c0-0.94,0-16.031,0-16.031L315.12,2.235l-12.924,18.945c0,0,0,15.094,0,16.034c-0.9,0-11.689,0-12.588,0       c0-0.971,0-34.08,0-34.08l-0.955-0.223l-9.211,18.304c0,0,0,15.059,0,15.999c-0.846,0-7.309,0-8.156,0       c0-0.941,0-16.332,0-16.332l-12.25-18.665L246.78,20.883c0,0,0,15.391,0,16.332c-0.848,0-7.309,0-8.158,0       c0-0.94,0-15.999,0-15.999l-9.207-18.304l-0.955,0.223c0,0,0,33.108,0,34.08c-0.9,0-11.689,0-12.59,0c0-0.94,0-16.034,0-16.034       L202.944,2.235l-12.611,18.949c0,0,0,15.091,0,16.031c-0.906,0-12.57,0-13.477,0c0-0.94,0-16.046,0-16.046L162.735,2.263       L150.14,21.184c0,0,0,15.091,0,16.031c-0.91,0-13.16,0-14.07,0c0-0.94,0-15.988,0-15.988l-8.795-19.345l-8.172,19.352       c0,0,0,15.042,0,15.981c-0.889,0-10.516,0-11.404,0c0-0.94,0-16.079,0-16.079L95.372,8.095L83.638,20.453v63.201       c0,0,21.141,35.861,21.277,36.093c0,0.27,0,87.724,0,87.724h308.236c0,0,0-87.454,0-87.724       c0.137-0.232,21.279-36.094,21.279-36.094V21.191L422.858,2.744l-12.49,18.438c0,0,0,15.093,0,16.033       c-0.891,0-10.514,0-11.404,0c0-0.94,0-15.981,0-15.981l-8.176-19.352L390.312,2.93z"/>
					<path d="M126.577,1.592l-8.23,19.491c0,0,0,14.02,0,15.382c-1.225,0-8.668,0-9.893,0c0-1.363,0-15.625,0-15.625L95.374,7       L82.882,20.156v63.702c0,0,21.072,35.747,21.277,36.093c0,0.404,0,88.271,0,88.271h309.748c0,0,0-87.866,0-88.271       c0.205-0.347,21.279-36.094,21.279-36.094v-62.88L422.884,1.363l-13.273,19.59c0,0,0,14.149,0,15.512c-1.225,0-8.666,0-9.891,0       c0-1.362,0-15.382,0-15.382L390.813,0l-9.572,21.065c0,0,0,14.037,0,15.399c-1.279,0-11.277,0-12.555,0       c0-1.363,0-15.506,0-15.506L355.364,0.956l-14.91,19.965c0,0,0,14.18,0,15.543c-1.268,0-10.695,0-11.963,0       c0-1.363,0-15.506,0-15.506L315.128,0.886L301.44,20.951c0,0,0,14.151,0,15.514c-1.252,0-9.826,0-11.076,0       c0-1.435,0-33.923,0-33.923l-2.121-0.496l-9.557,18.994c0,0,0,14.063,0,15.425c-1.117,0-5.527,0-6.643,0       c0-1.365,0-15.804,0-15.804L259.036,0.844l-13.012,19.816c0,0,0,14.439,0,15.804c-1.119,0-5.527,0-6.646,0       c0-1.363,0-15.425,0-15.425l-9.555-18.994l-2.121,0.496c0,0,0,32.489,0,33.923c-1.25,0-9.824,0-11.074,0       c0-1.363,0-15.514,0-15.514L202.937,0.886l-13.359,20.073c0,0,0,14.143,0,15.506c-1.268,0-10.697,0-11.965,0       c0-1.363,0-15.543,0-15.543L162.7,0.956l-13.318,20.003c0,0,0,14.143,0,15.506c-1.277,0-11.277,0-12.555,0       c0-1.363,0-15.399,0-15.399L127.249,0L126.577,1.592z"/>
					<path fill="#CCCCCC" d="M101.718,112.836h314.631c1.758-2.98,3.922-6.65,6.121-10.379H95.599       C97.796,106.187,99.96,109.856,101.718,112.836z"/>
					<path fill="#CCCCCC" d="M105.671,119.544c0,0,0,1.919,0,5.172h306.723c0-3.252,0-5.171,0-5.171s1.225-2.072,3.07-5.208H102.601       C104.45,117.472,105.671,119.544,105.671,119.544z"/>
					<path fill="#CCCCCC" d="M94.714,100.957h328.639c2.182-3.697,4.342-7.364,6.121-10.379H88.595       C90.372,93.593,92.534,97.26,94.714,100.957z"/>
					<path fill="#CCCCCC" d="M84.394,77.199h349.281c0-2.809,0-6.388,0-10.379H84.394C84.394,70.813,84.394,74.392,84.394,77.199z"/>
					<path fill="#CCCCCC" d="M84.394,83.451c0.051,0.085,1.367,2.318,3.316,5.626h342.646c1.951-3.309,3.268-5.542,3.318-5.627       c0-0.067,0-1.846,0-4.752H84.394C84.394,81.606,84.394,83.384,84.394,83.451z"/>
					<path fill="#CCCCCC" d="M105.671,136.595h306.723c0-4.034,0-7.582,0-10.379H105.671       C105.671,129.013,105.671,132.561,105.671,136.595z"/>
					<path fill="#CCCCCC" d="M105.671,184.113h306.723c0-3.286,0-6.782,0-10.379H105.671       C105.671,177.331,105.671,180.827,105.671,184.113z"/>
					<path fill="#CCCCCC" d="M84.394,65.319h349.281c0-3.289,0-6.811,0-10.379H84.394C84.394,58.513,84.394,62.034,84.394,65.319z"/>
					<path fill="#CCCCCC" d="M105.671,195.993h306.723c0-3.021,0-6.537,0-10.38H105.671       C105.671,189.456,105.671,192.972,105.671,195.993z"/>
					<path fill="#CCCCCC" d="M105.671,148.475h306.723c0-3.657,0-7.155,0-10.38H105.671       C105.671,141.32,105.671,144.818,105.671,148.475z"/>
					<path fill="#CCCCCC" d="M105.671,206.721c1.502,0,305.223,0,306.723,0c0-0.288,0-3.791,0-9.229H105.671       C105.671,202.93,105.671,206.433,105.671,206.721z"/>
					<path fill="#CCCCCC" d="M105.671,172.234h306.723c0-3.412,0-6.9,0-10.38H105.671       C105.671,165.333,105.671,168.822,105.671,172.234z"/>
					<path fill="#CCCCCC" d="M105.671,160.354h306.723c0-3.516,0-7.004,0-10.379H105.671       C105.671,153.35,105.671,156.838,105.671,160.354z"/>
					<path fill="#CCCCCC" d="M84.394,53.44h349.281c0-3.503,0-7.021,0-10.379H84.394C84.394,46.427,84.394,49.944,84.394,53.44z"/>
					<path fill="#CCCCCC" d="M433.675,21.405c-0.211-0.337-9.744-15.534-10.84-17.28c-1.16,1.711-11.473,16.933-11.711,17.285       c0,0.444,0,16.555,0,16.555h-12.918c0,0,0-16.285,0-16.581c-0.105-0.251-6.32-14.963-7.443-17.622       c-0.445,0.981-7.881,17.345-8.01,17.625c0,0.316,0,16.577,0,16.577h-15.58c0,0,0-16.118,0-16.556       c-0.232-0.351-10.811-16.23-11.881-17.837c-1.158,1.552-13.047,17.474-13.326,17.845c0,0.479,0,16.548,0,16.548h-14.988       c0,0,0-16.118,0-16.556c-0.232-0.35-10.75-16.149-11.865-17.824c-1.135,1.664-11.918,17.471-12.16,17.826       c0,0.447,0,16.554,0,16.554h-14.1c0,0,0-31.775,0-33.768c-0.852,1.692-8.506,16.902-8.654,17.196c0,0.346,0,16.572,0,16.572       h-9.668c0,0,0-16.426,0-16.859c-0.229-0.347-10.367-15.794-11.494-17.513c-1.129,1.718-11.273,17.166-11.5,17.513       c0,0.433,0,16.859,0,16.859h-9.67c0,0,0-16.226,0-16.572c-0.148-0.294-7.799-15.504-8.65-17.196c0,1.993,0,33.768,0,33.768       h-14.102c0,0,0-16.107,0-16.554c-0.242-0.354-11.025-16.162-12.162-17.825c-1.113,1.675-11.629,17.474-11.863,17.824       c0,0.438,0,16.556,0,16.556h-14.988c0,0,0-16.068,0-16.548c-0.277-0.372-12.17-16.293-13.33-17.846       c-1.068,1.607-11.643,17.488-11.875,17.838c0,0.438,0,16.556,0,16.556h-15.582c0,0,0-16.261,0-16.577       c-0.121-0.266-6.816-14.992-8.012-17.625c-1.125,2.66-7.336,17.37-7.443,17.622c0,0.295,0,16.581,0,16.581H106.94       c0,0,0-15.961,0-16.532c-0.377-0.399-10.582-11.197-11.568-12.242c-0.984,1.037-10.6,11.162-10.979,11.56       c0,0.226,0,9.48,0,20.81h349.281C433.675,30.512,433.675,21.566,433.675,21.405z"/>
					<path d="M105.671,196.743h306.723c0-0.244,0-0.499,0-0.75H105.671C105.671,196.244,105.671,196.499,105.671,196.743z"/>
					<path d="M105.671,196.743c0,0.257,0,0.502,0,0.75h306.723c0-0.248,0-0.493,0-0.75H105.671z"/>
					<path d="M105.671,184.863c0,0.25,0,0.502,0,0.75h306.723c0-0.248,0-0.5,0-0.75H105.671z"/>
					<path d="M105.671,184.863h306.723c0-0.25,0-0.497,0-0.75H105.671C105.671,184.366,105.671,184.613,105.671,184.863z"/>
					<path d="M105.671,172.984c0,0.251,0,0.5,0,0.75h306.723c0-0.25,0-0.499,0-0.75H105.671z"/>
					<path d="M105.671,172.984h306.723c0-0.25,0-0.5,0-0.75H105.671C105.671,172.484,105.671,172.734,105.671,172.984z"/>
					<path d="M105.671,161.104h306.723c0-0.25,0-0.5,0-0.75H105.671C105.671,160.604,105.671,160.854,105.671,161.104z"/>
					<path d="M105.671,161.104c0,0.25,0,0.5,0,0.75h306.723c0-0.25,0-0.5,0-0.75H105.671z"/>
					<path d="M105.671,149.225c0,0.249,0,0.499,0,0.75h306.723c0-0.251,0-0.501,0-0.75H105.671z"/>
					<path d="M105.671,149.225h306.723c0-0.25,0-0.501,0-0.75H105.671C105.671,148.724,105.671,148.975,105.671,149.225z"/>
					<path d="M105.671,137.345h306.723c0-0.252,0-0.502,0-0.75H105.671C105.671,136.843,105.671,137.093,105.671,137.345z"/>
					<path d="M105.671,137.345c0,0.249,0,0.498,0,0.75h306.723c0-0.252,0-0.501,0-0.75H105.671z"/>
					<path d="M105.671,125.466c0,0.245,0,0.491,0,0.75h306.723c0-0.259,0-0.505,0-0.75H105.671z"/>
					<path d="M105.671,125.466h306.723c0-0.258,0-0.507,0-0.75H105.671C105.671,124.959,105.671,125.208,105.671,125.466z"/>
					<path d="M102.159,113.586c0.15,0.257,0.297,0.506,0.441,0.75h312.863c0.145-0.244,0.293-0.493,0.443-0.75H102.159z"/>
					<path d="M102.159,113.586h313.748c0.145-0.246,0.291-0.493,0.441-0.75H101.718C101.868,113.093,102.015,113.34,102.159,113.586       z"/>
					<path d="M95.155,101.707c0.148,0.25,0.295,0.5,0.443,0.75H422.47c0.146-0.25,0.295-0.5,0.441-0.75H95.155z"/>
					<path d="M95.155,101.707h327.756c0.148-0.25,0.295-0.5,0.441-0.75H94.714C94.86,101.207,95.009,101.457,95.155,101.707z"/>
					<path d="M88.153,89.828h341.76c0.15-0.253,0.301-0.508,0.443-0.75H87.71C87.854,89.32,88.003,89.574,88.153,89.828z"/>
					<path d="M88.153,89.828c0.146,0.249,0.289,0.491,0.441,0.75h340.879c0.15-0.259,0.295-0.501,0.439-0.75H88.153z"/>
					<path d="M84.394,77.949h349.281c0-0.243,0-0.493,0-0.75H84.394C84.394,77.456,84.394,77.705,84.394,77.949z"/>
					<path d="M84.394,77.949c0,0.257,0,0.508,0,0.75h349.281c0-0.242,0-0.493,0-0.75H84.394z"/>
					<path d="M84.394,66.069c0,0.252,0,0.501,0,0.75h349.281c0-0.249,0-0.499,0-0.75H84.394z"/>
					<path d="M84.394,66.069h349.281c0-0.249,0-0.499,0-0.75H84.394C84.394,65.57,84.394,65.821,84.394,66.069z"/>
					<path d="M84.394,54.19h349.281c0-0.25,0-0.5,0-0.75H84.394C84.394,53.69,84.394,53.94,84.394,54.19z"/>
					<path d="M84.394,54.19c0,0.25,0,0.5,0,0.75h349.281c0-0.25,0-0.5,0-0.75H84.394z"/>
					<path d="M84.394,42.311c0,0.249,0,0.5,0,0.75h349.281c0-0.25,0-0.501,0-0.75H84.394z"/>
					<path d="M433.675,42.311c0-0.251,0-0.5,0-0.75H84.394c0,0.25,0,0.499,0,0.75H433.675z"/>
				</g>
				<polygon points="95.485,89.41 114.31,89.41 126.411,112.743 119.687,112.743     "/>
				<polygon points="422.894,89.41 404.069,89.41 391.968,112.743 398.692,112.743     "/>
				<rect x="129.688" y="196.077" width="1.512" height="11.333"/>
				<rect x="112.544" y="184.577" width="1.514" height="11.333"/>
				<rect x="148.849" y="185.577" width="1.512" height="11.333"/>
				<rect x="190.194" y="185.077" width="1.514" height="11.333"/>
				<rect x="229.021" y="184.577" width="1.512" height="11.333"/>
				<rect x="261.796" y="184.577" width="1.512" height="11.333"/>
				<rect x="299.612" y="185.577" width="1.512" height="11.333"/>
				<rect x="333.396" y="185.077" width="1.512" height="11.333"/>
				<rect x="369.194" y="185.077" width="1.514" height="11.333"/>
				<rect x="403.985" y="185.077" width="1.514" height="11.333"/>
				<rect x="112.544" y="160.077" width="1.514" height="11.333"/>
				<rect x="148.849" y="161.077" width="1.512" height="11.333"/>
				<rect x="190.194" y="160.577" width="1.514" height="11.333"/>
				<rect x="229.021" y="160.077" width="1.512" height="11.333"/>
				<rect x="261.796" y="160.077" width="1.512" height="11.333"/>
				<rect x="299.612" y="161.077" width="1.512" height="11.333"/>
				<rect x="333.396" y="160.577" width="1.512" height="11.333"/>
				<rect x="369.194" y="160.577" width="1.514" height="11.333"/>
				<rect x="403.985" y="160.577" width="1.514" height="11.333"/>
				<rect x="112.04" y="137.077" width="1.514" height="11.333"/>
				<rect x="148.345" y="138.077" width="1.512" height="11.333"/>
				<rect x="189.69" y="137.577" width="1.514" height="11.333"/>
				<rect x="228.517" y="137.077" width="1.512" height="11.333"/>
				<rect x="261.29" y="137.077" width="1.514" height="11.333"/>
				<rect x="299.108" y="138.077" width="1.512" height="11.333"/>
				<rect x="332.89" y="137.577" width="1.514" height="11.333"/>
				<rect x="368.69" y="137.577" width="1.512" height="11.333"/>
				<rect x="403.481" y="137.577" width="1.514" height="11.333"/>
				<rect x="111.032" y="113.077" width="1.512" height="11.333"/>
				<rect x="147.335" y="114.077" width="1.514" height="11.333"/>
				<rect x="188.683" y="113.577" width="1.512" height="11.333"/>
				<rect x="227.507" y="113.077" width="1.514" height="11.333"/>
				<rect x="260.282" y="113.077" width="1.514" height="11.333"/>
				<rect x="298.099" y="114.077" width="1.514" height="11.333"/>
				<rect x="331.882" y="113.577" width="1.514" height="11.333"/>
				<rect x="367.683" y="113.577" width="1.512" height="11.333"/>
				<rect x="402.474" y="113.577" width="1.512" height="11.333"/>
				<rect x="109.015" y="89.577" width="1.514" height="11.333"/>
				<rect x="145.319" y="90.577" width="1.512" height="11.333"/>
				<rect x="186.665" y="90.077" width="1.514" height="11.333"/>
				<rect x="225.491" y="89.577" width="1.512" height="11.333"/>
				<rect x="258.265" y="89.577" width="1.514" height="11.333"/>
				<rect x="296.083" y="90.577" width="1.512" height="11.333"/>
				<rect x="329.864" y="90.077" width="1.514" height="11.333"/>
				<rect x="365.665" y="90.077" width="1.512" height="11.333"/>
				<rect x="400.456" y="90.077" width="1.514" height="11.333"/>
				<rect x="109.015" y="65.577" width="1.514" height="11.333"/>
				<rect x="145.319" y="66.577" width="1.512" height="11.333"/>
				<rect x="186.665" y="66.077" width="1.514" height="11.333"/>
				<rect x="225.491" y="65.577" width="1.512" height="11.333"/>
				<rect x="258.265" y="65.577" width="1.514" height="11.333"/>
				<rect x="296.083" y="66.577" width="1.512" height="11.333"/>
				<rect x="329.864" y="66.077" width="1.514" height="11.333"/>
				<rect x="365.665" y="66.077" width="1.512" height="11.333"/>
				<rect x="400.456" y="66.077" width="1.514" height="11.333"/>
				<rect x="426.677" y="66.577" width="1.512" height="11.333"/>
				<rect x="426.171" y="43.577" width="1.514" height="11.333"/>
				<rect x="109.015" y="42.077" width="1.514" height="11.333"/>
				<rect x="145.319" y="43.077" width="1.512" height="11.333"/>
				<rect x="186.665" y="42.577" width="1.514" height="11.333"/>
				<rect x="225.491" y="42.077" width="1.512" height="11.333"/>
				<rect x="258.265" y="42.077" width="1.514" height="11.333"/>
				<rect x="296.083" y="43.077" width="1.512" height="11.333"/>
				<rect x="329.864" y="42.577" width="1.514" height="11.333"/>
				<rect x="365.665" y="42.577" width="1.512" height="11.333"/>
				<rect x="400.456" y="42.577" width="1.514" height="11.333"/>
				<rect x="170.698" y="196.077" width="1.514" height="11.333"/>
				<rect x="211.036" y="195.91" width="1.512" height="10.833"/>
				<rect x="245.827" y="196.41" width="1.514" height="10.833"/>
				<rect x="280.114" y="196.41" width="1.514" height="10.833"/>
				<rect x="317.427" y="196.41" width="1.514" height="10.833"/>
				<rect x="352.722" y="196.41" width="1.514" height="10.833"/>
				<rect x="386.001" y="196.41" width="1.514" height="10.833"/>
				<rect x="127.167" y="172.106" width="1.512" height="13.304"/>
				<rect x="168.177" y="172.106" width="1.514" height="13.304"/>
				<rect x="208.515" y="171.91" width="1.512" height="12.717"/>
				<rect x="243.306" y="172.497" width="1.514" height="12.717"/>
				<rect x="277.593" y="172.497" width="1.514" height="12.717"/>
				<rect x="314.905" y="172.497" width="1.514" height="12.717"/>
				<rect x="350.202" y="172.497" width="1.512" height="12.717"/>
				<rect x="383.479" y="172.497" width="1.514" height="12.717"/>
				<rect x="126.663" y="148.577" width="1.512" height="11.333"/>
				<rect x="167.673" y="148.577" width="1.514" height="11.333"/>
				<rect x="208.011" y="148.41" width="1.512" height="10.833"/>
				<rect x="242.802" y="148.91" width="1.514" height="10.833"/>
				<rect x="277.089" y="148.91" width="1.514" height="10.833"/>
				<rect x="314.401" y="148.91" width="1.514" height="10.833"/>
				<rect x="349.696" y="148.91" width="1.514" height="10.833"/>
				<rect x="382.976" y="148.91" width="1.514" height="10.833"/>
				<rect x="126.159" y="125.577" width="1.512" height="11.333"/>
				<rect x="167.169" y="125.577" width="1.512" height="11.333"/>
				<rect x="207.507" y="125.41" width="1.512" height="10.833"/>
				<rect x="242.298" y="125.91" width="1.512" height="10.833"/>
				<rect x="276.585" y="125.91" width="1.512" height="10.833"/>
				<rect x="313.897" y="125.91" width="1.512" height="10.833"/>
				<rect x="349.192" y="125.91" width="1.514" height="10.833"/>
				<rect x="382.472" y="125.91" width="1.514" height="10.833"/>
				<rect x="125.653" y="102.077" width="1.514" height="11.333"/>
				<rect x="100.946" y="102.077" width="1.514" height="11.333"/>
				<rect x="166.665" y="102.077" width="1.512" height="11.333"/>
				<rect x="207.003" y="101.91" width="1.512" height="10.833"/>
				<rect x="241.794" y="102.41" width="1.512" height="10.833"/>
				<rect x="276.081" y="102.41" width="1.512" height="10.833"/>
				<rect x="313.394" y="102.41" width="1.512" height="10.833"/>
				<rect x="348.688" y="102.41" width="1.514" height="10.833"/>
				<rect x="381.968" y="102.41" width="1.512" height="10.833"/>
				<rect x="414.741" y="102.91" width="1.514" height="10.833"/>
				<rect x="125.149" y="79.077" width="1.514" height="11.333"/>
				<rect x="91.366" y="78.577" width="1.514" height="11.333"/>
				<rect x="90.862" y="55.577" width="1.514" height="11.333"/>
				<rect x="166.161" y="79.077" width="1.512" height="11.333"/>
				<rect x="206.497" y="78.91" width="1.514" height="10.833"/>
				<rect x="241.29" y="77.91" width="1.512" height="12.333"/>
				<rect x="275.577" y="76.91" width="1.512" height="13.333"/>
				<rect x="312.89" y="79.41" width="1.512" height="10.833"/>
				<rect x="348.185" y="79.41" width="1.512" height="10.833"/>
				<rect x="381.464" y="79.41" width="1.512" height="10.833"/>
				<rect x="416.255" y="77.41" width="1.512" height="10.833"/>
				<rect x="124.646" y="54.077" width="1.514" height="11.333"/>
				<rect x="165.655" y="54.077" width="1.514" height="11.333"/>
				<rect x="205.993" y="53.91" width="1.514" height="10.833"/>
				<rect x="240.784" y="54.41" width="1.514" height="10.833"/>
				<rect x="275.071" y="54.41" width="1.514" height="10.833"/>
				<rect x="312.384" y="54.41" width="1.514" height="10.833"/>
				<rect x="347.681" y="54.41" width="1.512" height="10.833"/>
				<rect x="380.96" y="54.41" width="1.512" height="10.833"/>
				<g>
					<rect x="231.294" y="49.743" width="55.096" height="19.016"/>
					<g>
						<g>
							<rect x="231.235" y="49.743" fill="#D9DADB" width="8.572" height="36.5"/>
							<path d="M239.808,49.243h-9.076v37.5h9.58v-37.5H239.808z M239.304,50.243c0,0.959,0,34.541,0,35.5c-0.836,0-6.727,0-7.564,0         c0-0.959,0-34.541,0-35.5C232.577,50.243,238.468,50.243,239.304,50.243z"/>
							<g>
								<line fill="#D9DADB" x1="231.487" y1="75.243" x2="239.556" y2="75.243"/>
								<rect x="231.487" y="74.743" width="8.068" height="1"/>
								<line fill="#D9DADB" x1="231.487" y1="60.743" x2="239.556" y2="60.743"/>
								<rect x="231.487" y="60.243" width="8.068" height="1"/>
							</g>
						</g>
						<g>
							<rect x="254.558" y="49.743" fill="#D9DADB" width="8.57" height="36.5"/>
							<path d="M263.128,49.243h-9.076v37.5h9.58v-37.5H263.128z M262.624,50.243c0,0.959,0,34.541,0,35.5c-0.836,0-6.727,0-7.563,0         c0-0.959,0-34.541,0-35.5C255.897,50.243,261.788,50.243,262.624,50.243z"/>
							<g>
								<line fill="#D9DADB" x1="254.81" y1="75.243" x2="262.876" y2="75.243"/>
								<rect x="254.81" y="74.743" width="8.066" height="1"/>
								<line fill="#D9DADB" x1="254.81" y1="60.743" x2="262.876" y2="60.743"/>
								<rect x="254.81" y="60.243" width="8.066" height="1"/>
							</g>
						</g>
						<g>
							<rect x="277.878" y="49.743" fill="#D9DADB" width="8.57" height="36.5"/>
							<path d="M286.448,49.243h-9.076v37.5h9.58v-37.5H286.448z M285.944,50.243c0,0.959,0,34.541,0,35.5c-0.836,0-6.727,0-7.563,0         c0-0.959,0-34.541,0-35.5C279.218,50.243,285.108,50.243,285.944,50.243z"/>
							<g>
								<line fill="#D9DADB" x1="278.13" y1="75.243" x2="286.196" y2="75.243"/>
								<rect x="278.13" y="74.743" width="8.066" height="1"/>
								<line fill="#D9DADB" x1="278.13" y1="60.743" x2="286.196" y2="60.743"/>
								<rect x="278.13" y="60.243" width="8.066" height="1"/>
							</g>
						</g>
					</g>
				</g>
				<rect x="130.864" y="42.41" width="1.514" height="72"/>
				<rect x="385.497" y="41.41" width="1.512" height="72"/>
			</g>
		</g>
		<path d="M256.214,111.985l-5.727,7.476c-0.725,0.945-74.322,94.763-236.73,96.509l-7.188,0.081l-1.586,7.006    c-0.635,2.794-59.992,281.539,248.369,450.411l4.316,2.363l4.338-2.313c316.359-168.732,255.627-447.712,254.977-450.511    l-1.625-6.964l-7.148-0.073c-166.684-1.741-242.578-95.655-243.322-96.604l-7.248-9.246L256.214,111.985z"/>
		<path fill="#FEE600" d="M257.679,116.062c1.633,2.08,4.35,5.553,4.35,5.553c0.762,0.963,77.699,96.23,246.15,97.995    c0,0,2.68,0.027,4.291,0.045c0.363,1.564,0.971,4.177,0.971,4.177c0.18,0.775,5.016,22.954,5.016,58.166    c0,90.657-32.055,267.712-258.156,388.307c0,0-1.629,0.866-2.607,1.389c-0.971-0.533-2.588-1.418-2.588-1.418    C34.896,549.685,3.612,372.886,3.612,282.21c0-35.32,4.75-57.572,4.924-58.351c0,0,0.596-2.626,0.951-4.205    c1.617-0.018,4.316-0.045,4.316-0.045c164.402-1.768,238.85-96.983,239.582-97.944v0.002    C253.386,121.667,256.069,118.163,257.679,116.062z"/>
		<path d="M256.429,134.894c-19.369,21.482-93.664,91.849-236.508,95.357l-1.508,0.039l-0.242,1.488    c-1.367,8.403-3.664,26.109-3.664,50.271c0,90.332,31.486,259.377,242.365,376.598l0.873,0.483l0.879-0.477    c216.594-117.228,248.938-286.283,248.938-376.622c0-24.167-2.361-41.861-3.766-50.257l-0.248-1.482l-1.504-0.035    c-146.77-3.447-223.045-73.877-242.93-95.382l-1.354-1.462L256.429,134.894z"/>
		<path fill="#003C80" d="M112.59,437h36.135h36.133h36.133h36.133h36.135h36.133h36.133h36.133h36.133h33.547    c26.183-59.535,32.585-115.02,32.585-154.968c0-22.816-2.104-39.516-3.501-48.217c-144.356-3.874-220.824-71.979-242.624-95.059    c-21.26,23.08-95.749,91.103-236.241,95.049c-1.361,8.711-3.408,25.428-3.408,48.244c0,39.946,6.231,95.423,31.713,154.95h26.597    H112.59z"/>
		<path d="M473.278,438.292c0.22,0,0.433,0,0.646,0V437h-2.588c-0.189,0.43-0.381,0.86-0.572,1.291    C471.644,438.292,472.479,438.292,473.278,438.292z"/>
		<polygon points="187.224,479.601 222.066,479.601 222.712,479.601 222.712,478.311 207.865,478.311 207.221,478.311     207.221,478.884 207.221,478.311 206.574,478.311 186.578,478.311 186.578,479.601   "/>
		<path d="M423.088,499.252h-34.842h-1.291h-34.842h-1.291h-34.844h-1.291h-34.842h-1.291h-34.842h-1.291H207.58h-1.291h-34.844    h-1.291h-34.842h-1.291H99.18h-1.291H83.425c0.031,0.048,0.062,0.095,0.093,0.143h353.239c0.032-0.048,0.063-0.095,0.096-0.143    h-12.475H423.088z"/>
		<path d="M402.302,438.292c12.778,0,24.498,0,34.842,0c0.216,0,0.431,0,0.646,0V437h-36.133v1.291    C401.872,438.292,402.087,438.292,402.302,438.292z"/>
		<path d="M366.169,438.292c12.23,0,23.91,0,34.842,0c0.214,0,0.432,0,0.646,0V437h-36.133v1.291    C365.738,438.292,365.955,438.292,366.169,438.292z"/>
		<polygon points="151.091,479.601 185.934,479.601 186.578,479.601 186.578,478.311 171.732,478.311 171.087,478.311     171.087,478.884 171.087,478.311 170.441,478.311 150.445,478.311 150.445,479.601   "/>
		<polygon points="295.624,479.601 330.467,479.601 331.111,479.601 331.111,478.311 316.266,478.311 315.62,478.311     315.62,478.884 315.62,478.311 314.975,478.311 294.979,478.311 294.979,479.601   "/>
		<polygon points="223.357,479.601 258.199,479.601 258.845,479.601 258.845,478.311 243.998,478.311 243.354,478.311     243.354,478.884 243.354,478.311 242.708,478.311 222.712,478.311 222.712,479.601   "/>
		<polygon points="331.758,479.601 366.6,479.601 367.245,479.601 367.245,478.311 352.398,478.311 351.754,478.311     351.754,478.884 351.754,478.311 351.108,478.311 331.111,478.311 331.111,479.601   "/>
		<path d="M330.036,438.292c11.96,0,23.626,0,34.842,0c0.215,0,0.431,0,0.646,0V437h-36.133v1.291    C329.606,438.292,329.82,438.292,330.036,438.292z"/>
		<polygon points="259.49,479.601 294.334,479.601 294.979,479.601 294.979,478.311 280.133,478.311 279.487,478.311     279.487,478.884 279.487,478.311 278.842,478.311 258.845,478.311 258.845,479.601   "/>
		<path d="M293.903,438.292c11.784,0,23.443,0,34.842,0c0.216,0,0.43,0,0.646,0V437h-36.133v1.291    C293.474,438.292,293.688,438.292,293.903,438.292z"/>
		<polygon points="114.957,479.601 149.8,479.601 150.445,479.601 150.445,478.311 135.6,478.311 134.954,478.311 134.954,478.884     134.954,478.311 134.309,478.311 114.312,478.311 114.312,479.601   "/>
		<path d="M149.37,438.292c11.168,0,22.833,0,34.842,0c0.214,0,0.431,0,0.646,0V437h-36.133v1.291    C148.94,438.292,149.154,438.292,149.37,438.292z"/>
		<path d="M185.503,438.292c11.364,0,23.023,0,34.842,0c0.215,0,0.431,0,0.646,0V437h-36.133v1.291    C185.072,438.292,185.288,438.292,185.503,438.292z"/>
		<path d="M78.179,479.601v-1.29h-7.673c0.248,0.43,0.496,0.86,0.746,1.29h6.282H78.179z"/>
		<path d="M111.944,438.292c0.213,0,0.432,0,0.646,0V437H76.457v1.291c0.212,0,0.432,0,0.646,0    C87.216,438.292,98.954,438.292,111.944,438.292z"/>
		<path d="M113.235,438.292c10.843,0,22.531,0,34.844,0c0.215,0,0.43,0,0.646,0V437H112.59v1.291    C112.804,438.292,113.021,438.292,113.235,438.292z"/>
		<polygon points="113.666,479.601 114.312,479.601 114.312,478.311 99.465,478.311 98.82,478.311 98.82,478.884 98.82,478.311     98.175,478.311 78.179,478.311 78.179,479.601 78.824,479.601   "/>
		<path d="M221.636,438.292c11.513,0,23.168,0,34.842,0c0.215,0,0.43,0,0.646,0V437H220.99v1.291    C221.205,438.292,221.421,438.292,221.636,438.292z"/>
		<path d="M257.769,438.292c11.646,0,23.302,0,34.844,0c0.215,0,0.43,0,0.646,0V437h-36.135v1.291    C257.338,438.292,257.553,438.292,257.769,438.292z"/>
		<path d="M75.812,438.292c0.216,0,0.428,0,0.646,0V437H49.86c0.184,0.43,0.371,0.86,0.557,1.291    C56.787,438.292,65.395,438.292,75.812,438.292z"/>
		<path d="M460.153,457.369v0.861V457.369h-0.646h-34.843h-0.646v0.861v-0.861h-0.646h-34.842h-0.646v0.861v-0.861h-0.646h-34.843    h-0.645v0.861v-0.861h-0.646h-34.843h-0.646v0.861v-0.861h-0.646h-34.842h-0.646v0.861v-0.861h-0.646h-34.844h-0.645v0.861v-0.861    h-0.646h-34.843h-0.645v0.861v-0.861h-0.646h-34.842h-0.646v0.861v-0.861h-0.646H135.6h-0.646v0.861v-0.861h-0.646H99.465H98.82    v0.861v-0.861h-0.646H63.332h-0.646v0.861v-0.861h-0.646h-2.76c0.214,0.431,0.427,0.86,0.643,1.291h17.609h0.646v-1.004v1.004    h0.646h34.842h0.646v-1.004v1.004h0.646H149.8h0.646v-1.004v1.004h0.646h34.843h0.645v-1.004v1.004h0.646h34.843h0.646v-1.004    v1.004h0.646h34.842h0.646v-1.004v1.004h0.646h34.844h0.645v-1.004v1.004h0.646h34.843h0.645v-1.004v1.004h0.646H366.6h0.646    v-1.004v1.004h0.646h34.842h0.646v-1.004v1.004h0.646h34.842h0.646v-1.004v1.004h0.646h20.84c0.223-0.431,0.44-0.86,0.661-1.291    h-0.858H460.153z"/>
		<path d="M437.789,446.898v0.718V446.898h-0.646h-34.842h-0.646v0.718v-0.718h-0.646h-34.842h-0.646v0.718v-0.718h-0.646h-34.842    h-0.646v0.718v-0.718h-0.646h-34.842h-0.646v0.718v-0.718h-0.646h-34.844h-0.646v0.718v-0.718h-0.646h-34.842h-0.646v0.718v-0.718    h-0.646h-34.842h-0.646v0.718v-0.718h-0.646H149.37h-0.646v0.718v-0.718h-0.646h-34.844h-0.646v0.718v-0.718h-0.646H77.103h-0.646    v0.718v-0.718h-0.646h-21.55c0.198,0.431,0.397,0.86,0.598,1.291h7.182h0.646v-0.574v0.574h0.646h34.843h0.646v-0.574v0.574h0.645    h34.844h0.646v-0.574v0.574h0.646h34.842h0.646v-0.574v0.574h0.646h34.842h0.646v-0.574v0.574h0.645h34.843h0.646v-0.574v0.574    h0.645h34.844h0.646v-0.574v0.574h0.646h34.842h0.646v-0.574v0.574h0.646h34.843h0.646v-0.574v0.574h0.645h34.843h0.646v-0.574    v0.574h0.646h34.842h0.646v-0.574v0.574h0.646h34.843h0.646v-0.574v0.574h0.646h5.4c0.206-0.431,0.41-0.861,0.614-1.291h-28.379    H437.789z"/>
		<polygon points="424.02,478.884 424.02,478.311 423.374,478.311 403.378,478.311 403.378,479.601 404.023,479.601     438.865,479.601 439.511,479.601 439.511,478.311 424.665,478.311 424.02,478.311   "/>
		<path d="M439.511,467.839v0.718V467.839h-0.646h-34.842h-0.646v0.718v-0.718h-0.646h-34.842h-0.646v0.718v-0.718H366.6h-34.842    h-0.646v0.718v-0.718h-0.645h-34.843h-0.646v0.718v-0.718h-0.645H259.49h-0.646v0.718v-0.718h-0.646h-34.842h-0.646v0.718v-0.718    h-0.646h-34.843h-0.646v0.718v-0.718h-0.645h-34.843h-0.646v0.718v-0.718H149.8h-34.843h-0.646v0.718v-0.718h-0.646H78.824h-0.646    v0.718v-0.718h-0.646H64.687c0.23,0.43,0.466,0.86,0.699,1.291h32.79h0.646v-1.147v1.147h0.645h34.844h0.646v-1.147v1.147h0.646    h34.842h0.646v-1.147v1.147h0.646h34.842h0.646v-1.147v1.147h0.645h34.843h0.646v-1.147v1.147h0.645h34.844h0.646v-1.147v1.147    h0.646h34.842h0.646v-1.147v1.147h0.646h34.843h0.646v-1.147v1.147h0.645h34.843h0.646v-1.147v1.147h0.646h34.842h0.646v-1.147    v1.147h0.646h30.721c0.239-0.431,0.481-0.861,0.718-1.291h-15.947H439.511z"/>
		<path d="M440.156,479.601h9.204c0.256-0.43,0.512-0.86,0.766-1.29h-10.615v1.29H440.156z"/>
		<polygon points="367.891,479.601 402.732,479.601 403.378,479.601 403.378,478.311 388.532,478.311 387.887,478.311     387.887,478.884 387.887,478.311 387.241,478.311 367.245,478.311 367.245,479.601   "/>
		<path d="M439.511,488.782v0.431V488.782h-0.646h-34.842h-0.646v0.431v-0.431h-0.646h-34.842h-0.646v0.431v-0.431H366.6h-34.842    h-0.646v0.431v-0.431h-0.645h-34.843h-0.646v0.431v-0.431h-0.645H259.49h-0.646v0.431v-0.431h-0.646h-34.842h-0.646v0.431v-0.431    h-0.646h-34.843h-0.646v0.431v-0.431h-0.645h-34.843h-0.646v0.431v-0.431H149.8h-34.843h-0.646v0.431v-0.431h-0.646H78.824h-0.646    v0.431v-0.431h-0.646h-0.788c0.265,0.431,0.528,0.86,0.795,1.291h20.348h1.291h34.842h1.291h34.842h1.291h34.844h1.291h34.842    h1.291h34.842h1.291h34.842h1.291h34.844h1.291h34.842h1.291h34.842h1.291h18.521c0.274-0.431,0.544-0.86,0.816-1.291h-3.56    H439.511z"/>
		<path d="M437.789,438.292c0.215,0,0.432,0,0.646,0c13.444,0,24.476,0,32.329,0c0.191-0.431,0.383-0.861,0.572-1.291h-33.547    V438.292z"/>
		<rect x="171.087" y="469.13" width="0.646" height="9.181"/>
		<rect x="206.574" y="469.13" width="0.646" height="9.181"/>
		<rect x="279.487" y="469.13" width="0.646" height="9.181"/>
		<rect x="278.842" y="469.13" width="0.646" height="9.181"/>
		<rect x="242.708" y="469.13" width="0.646" height="9.181"/>
		<rect x="207.221" y="469.13" width="0.645" height="9.181"/>
		<rect x="243.354" y="469.13" width="0.645" height="9.181"/>
		<rect x="387.241" y="469.13" width="0.646" height="9.181"/>
		<rect x="387.887" y="469.13" width="0.646" height="9.181"/>
		<rect x="314.975" y="469.13" width="0.646" height="9.181"/>
		<rect x="351.754" y="469.13" width="0.645" height="9.181"/>
		<rect x="423.374" y="469.13" width="0.646" height="9.181"/>
		<rect x="424.02" y="469.13" width="0.646" height="9.181"/>
		<rect x="315.62" y="469.13" width="0.646" height="9.181"/>
		<rect x="351.108" y="469.13" width="0.646" height="9.181"/>
		<rect x="134.309" y="469.13" width="0.646" height="9.181"/>
		<rect x="98.82" y="469.13" width="0.645" height="9.181"/>
		<rect x="134.954" y="469.13" width="0.646" height="9.181"/>
		<rect x="98.175" y="469.13" width="0.646" height="9.181"/>
		<rect x="170.441" y="469.13" width="0.646" height="9.181"/>
		<rect x="439.511" y="479.601" width="0.646" height="9.181"/>
		<rect x="77.533" y="479.601" width="0.646" height="9.181"/>
		<rect x="294.334" y="479.601" width="0.645" height="9.181"/>
		<rect x="438.865" y="479.601" width="0.646" height="9.181"/>
		<rect x="367.245" y="479.601" width="0.646" height="9.181"/>
		<rect x="330.467" y="479.601" width="0.645" height="9.181"/>
		<rect x="366.6" y="479.601" width="0.646" height="9.181"/>
		<rect x="403.378" y="479.601" width="0.646" height="9.181"/>
		<rect x="402.732" y="479.601" width="0.646" height="9.181"/>
		<rect x="294.979" y="479.601" width="0.646" height="9.181"/>
		<rect x="185.934" y="479.601" width="0.645" height="9.181"/>
		<rect x="331.111" y="479.601" width="0.646" height="9.181"/>
		<rect x="150.445" y="479.601" width="0.646" height="9.181"/>
		<rect x="258.199" y="479.601" width="0.646" height="9.181"/>
		<rect x="222.712" y="479.601" width="0.646" height="9.181"/>
		<rect x="222.066" y="479.601" width="0.646" height="9.181"/>
		<rect x="186.578" y="479.601" width="0.646" height="9.181"/>
		<rect x="114.312" y="479.601" width="0.646" height="9.181"/>
		<rect x="78.179" y="479.601" width="0.646" height="9.181"/>
		<rect x="113.666" y="479.601" width="0.646" height="9.181"/>
		<rect x="149.8" y="479.601" width="0.646" height="9.181"/>
		<rect x="258.845" y="479.601" width="0.646" height="9.181"/>
		<rect x="134.021" y="490.073" width="1.291" height="9.18"/>
		<rect x="278.555" y="490.073" width="1.291" height="9.18"/>
		<rect x="242.422" y="490.073" width="1.291" height="9.18"/>
		<rect x="350.822" y="490.073" width="1.291" height="9.18"/>
		<rect x="386.955" y="490.073" width="1.291" height="9.18"/>
		<rect x="423.088" y="490.073" width="1.291" height="9.18"/>
		<rect x="206.289" y="490.073" width="1.291" height="9.18"/>
		<rect x="97.889" y="490.073" width="1.291" height="9.18"/>
		<rect x="170.154" y="490.073" width="1.291" height="9.18"/>
		<rect x="314.688" y="490.073" width="1.291" height="9.18"/>
		<rect x="331.111" y="458.66" width="0.646" height="9.18"/>
		<rect x="114.312" y="458.66" width="0.646" height="9.18"/>
		<rect x="149.8" y="458.66" width="0.646" height="9.18"/>
		<rect x="113.666" y="458.66" width="0.646" height="9.18"/>
		<rect x="150.445" y="458.66" width="0.646" height="9.18"/>
		<rect x="77.533" y="458.66" width="0.646" height="9.18"/>
		<rect x="185.934" y="458.66" width="0.645" height="9.18"/>
		<rect x="402.732" y="458.66" width="0.646" height="9.18"/>
		<rect x="78.179" y="458.66" width="0.646" height="9.18"/>
		<rect x="366.6" y="458.66" width="0.646" height="9.18"/>
		<rect x="438.865" y="458.66" width="0.646" height="9.18"/>
		<rect x="294.979" y="458.66" width="0.646" height="9.18"/>
		<rect x="186.578" y="458.66" width="0.646" height="9.18"/>
		<rect x="294.334" y="458.66" width="0.645" height="9.18"/>
		<rect x="403.378" y="458.66" width="0.646" height="9.18"/>
		<rect x="330.467" y="458.66" width="0.645" height="9.18"/>
		<rect x="222.066" y="458.66" width="0.646" height="9.18"/>
		<rect x="222.712" y="458.66" width="0.646" height="9.18"/>
		<rect x="439.511" y="458.66" width="0.646" height="9.18"/>
		<rect x="258.199" y="458.66" width="0.646" height="9.18"/>
		<rect x="258.845" y="458.66" width="0.646" height="9.18"/>
		<rect x="367.245" y="458.66" width="0.646" height="9.18"/>
		<rect x="207.221" y="448.189" width="0.645" height="9.18"/>
		<rect x="170.441" y="448.189" width="0.646" height="9.18"/>
		<rect x="387.887" y="448.189" width="0.646" height="9.18"/>
		<rect x="98.82" y="448.189" width="0.645" height="9.18"/>
		<rect x="460.153" y="448.189" width="0.646" height="9.18"/>
		<rect x="459.508" y="448.189" width="0.646" height="9.18"/>
		<rect x="206.574" y="448.189" width="0.646" height="9.18"/>
		<rect x="423.374" y="448.189" width="0.646" height="9.18"/>
		<rect x="171.087" y="448.189" width="0.646" height="9.18"/>
		<rect x="351.108" y="448.189" width="0.646" height="9.18"/>
		<rect x="424.02" y="448.189" width="0.646" height="9.18"/>
		<rect x="387.241" y="448.189" width="0.646" height="9.18"/>
		<rect x="314.975" y="448.189" width="0.646" height="9.18"/>
		<rect x="98.175" y="448.189" width="0.646" height="9.18"/>
		<rect x="243.354" y="448.189" width="0.645" height="9.18"/>
		<rect x="134.309" y="448.189" width="0.646" height="9.18"/>
		<rect x="279.487" y="448.189" width="0.646" height="9.18"/>
		<rect x="278.842" y="448.189" width="0.646" height="9.18"/>
		<rect x="134.954" y="448.189" width="0.646" height="9.18"/>
		<rect x="62.041" y="448.189" width="0.646" height="9.18"/>
		<rect x="62.687" y="448.189" width="0.646" height="9.18"/>
		<rect x="242.708" y="448.189" width="0.646" height="9.18"/>
		<rect x="315.62" y="448.189" width="0.646" height="9.18"/>
		<rect x="351.754" y="448.189" width="0.645" height="9.18"/>
		<path d="M364.878,438.292v8.606h0.646v-8.606C365.309,438.292,365.093,438.292,364.878,438.292z"/>
		<path d="M365.523,438.292v8.606h0.646v-8.606C365.955,438.292,365.738,438.292,365.523,438.292z"/>
		<path d="M329.391,438.292v8.606h0.646v-8.606C329.82,438.292,329.606,438.292,329.391,438.292z"/>
		<path d="M328.745,438.292v8.606h0.646v-8.606C329.175,438.292,328.961,438.292,328.745,438.292z"/>
		<path d="M401.011,438.292v8.606h0.646v-8.606C401.442,438.292,401.225,438.292,401.011,438.292z"/>
		<path d="M112.59,438.292v8.606h0.646v-8.606C113.021,438.292,112.804,438.292,112.59,438.292z"/>
		<path d="M438.435,446.898v-8.606c-0.214,0-0.431,0-0.646,0v8.606H438.435z"/>
		<path d="M111.944,438.292v8.606h0.646v-8.606C112.376,438.292,112.158,438.292,111.944,438.292z"/>
		<path d="M437.144,446.898h0.646v-8.606c-0.215,0-0.43,0-0.646,0V446.898z"/>
		<path d="M293.258,438.292v8.606h0.646v-8.606C293.688,438.292,293.474,438.292,293.258,438.292z"/>
		<path d="M401.656,438.292v8.606h0.646v-8.606C402.087,438.292,401.872,438.292,401.656,438.292z"/>
		<path d="M220.345,438.292v8.606h0.646v-8.606C220.775,438.292,220.56,438.292,220.345,438.292z"/>
		<path d="M184.857,438.292v8.606h0.646v-8.606C185.288,438.292,185.072,438.292,184.857,438.292z"/>
		<path d="M292.612,438.292v8.606h0.646v-8.606C293.042,438.292,292.827,438.292,292.612,438.292z"/>
		<path d="M184.212,438.292v8.606h0.646v-8.606C184.643,438.292,184.426,438.292,184.212,438.292z"/>
		<path d="M77.103,446.898v-8.606c-0.213,0-0.434,0-0.646,0v8.606H77.103z"/>
		<path d="M148.725,438.292v8.606h0.646v-8.606C149.154,438.292,148.94,438.292,148.725,438.292z"/>
		<path d="M76.457,446.898v-8.606c-0.218,0-0.429,0-0.646,0v8.606H76.457z"/>
		<path d="M257.123,438.292v8.606h0.646v-8.606C257.553,438.292,257.338,438.292,257.123,438.292z"/>
		<path d="M148.079,438.292v8.606h0.646v-8.606C148.509,438.292,148.294,438.292,148.079,438.292z"/>
		<path d="M220.99,438.292v8.606h0.646v-8.606C221.421,438.292,221.205,438.292,220.99,438.292z"/>
		<path d="M256.478,438.292v8.606h0.646v-8.606C256.908,438.292,256.693,438.292,256.478,438.292z"/>
		<path d="M422.985,518.481v1.14c0.216,0,0.431,0,0.646,0v-1.988C423.415,517.915,423.202,518.198,422.985,518.481z"/>
		<path d="M315.232,511.014v8.606c0.215,0,0.431,0,0.646,0v-8.606H315.232z"/>
		<path d="M314.587,511.014v8.606c0.216,0,0.431,0,0.646,0v-8.606H314.587z"/>
		<path d="M423.631,517.632v-6.618h-0.646v7.467C423.202,518.198,423.415,517.915,423.631,517.632z"/>
		<path d="M386.853,511.014v8.606c0.215,0,0.431,0,0.646,0v-8.606H386.853z"/>
		<path d="M350.72,511.014v8.606c0.215,0,0.431,0,0.646,0v-8.606H350.72z"/>
		<path d="M424.276,516.784v-5.77h-0.646v6.618C423.847,517.349,424.063,517.066,424.276,516.784z"/>
		<path d="M351.365,511.014v8.606c0.215,0,0.432,0,0.646,0v-8.606H351.365z"/>
		<path d="M206.832,511.014v8.606c0.215,0,0.43,0,0.646,0v-8.606H206.832z"/>
		<path d="M278.454,511.014v8.606c0.215,0,0.43,0,0.646,0v-8.606H278.454z"/>
		<path d="M242.965,511.014v8.606c0.215,0,0.43,0,0.646,0v-8.606H242.965z"/>
		<path d="M206.187,511.014v8.606c0.215,0,0.43,0,0.646,0v-8.606H206.187z"/>
		<path d="M98.432,511.014v8.606c0.215,0,0.43,0,0.646,0v-8.606H98.432z"/>
		<path d="M97.786,511.014v8.606c0.214,0,0.431,0,0.646,0v-8.606H97.786z"/>
		<path d="M134.566,511.014v8.606c0.215,0,0.43,0,0.646,0v-8.606H134.566z"/>
		<path d="M242.319,511.014v8.606c0.215,0,0.43,0,0.646,0v-8.606H242.319z"/>
		<path d="M170.699,511.014v8.606c0.215,0,0.431,0,0.646,0v-8.606H170.699z"/>
		<path d="M279.1,511.014v8.606c0.216,0,0.431,0,0.646,0v-8.606H279.1z"/>
		<path d="M170.054,511.014v8.606c0.214,0,0.431,0,0.646,0v-8.606H170.054z"/>
		<path d="M133.921,511.014v8.606c0.214,0,0.431,0,0.646,0v-8.606H133.921z"/>
		<path fill="#CCCCCC" d="M438.435,438.292v8.606h28.379c1.363-2.877,2.68-5.746,3.95-8.606    C462.91,438.292,451.879,438.292,438.435,438.292z"/>
		<path fill="#CCCCCC" d="M424.379,499.252h12.475c2.075-3.061,4.092-6.121,6.046-9.18h-18.521V499.252z"/>
		<path fill="#CCCCCC" d="M97.889,490.073H77.541c1.902,3.059,3.865,6.119,5.885,9.18h14.463V490.073z"/>
		<rect x="171.732" y="448.189" fill="#CCCCCC" width="34.842" height="9.18"/>
		<polygon fill="#CCCCCC" points="403.378,478.311 423.374,478.311 423.374,469.13 388.532,469.13 388.532,478.311   "/>
		<rect x="404.023" y="479.601" fill="#CCCCCC" width="34.842" height="9.181"/>
		<polygon fill="#CCCCCC" points="114.312,478.311 134.309,478.311 134.309,469.13 99.465,469.13 99.465,478.311   "/>
		<rect x="78.824" y="479.601" fill="#CCCCCC" width="34.842" height="9.181"/>
		<rect x="114.957" y="479.601" fill="#CCCCCC" width="34.843" height="9.181"/>
		<polygon fill="#CCCCCC" points="150.445,478.311 170.441,478.311 170.441,469.13 135.6,469.13 135.6,478.311   "/>
		<rect x="151.091" y="479.601" fill="#CCCCCC" width="34.843" height="9.181"/>
		<polygon fill="#CCCCCC" points="186.578,478.311 206.574,478.311 206.574,469.13 171.732,469.13 171.732,478.311   "/>
		<rect x="187.224" y="479.601" fill="#CCCCCC" width="34.843" height="9.181"/>
		<polygon fill="#CCCCCC" points="222.712,478.311 242.708,478.311 242.708,469.13 207.865,469.13 207.865,478.311   "/>
		<rect x="223.357" y="479.601" fill="#CCCCCC" width="34.842" height="9.181"/>
		<polygon fill="#CCCCCC" points="258.845,478.311 278.842,478.311 278.842,469.13 243.998,469.13 243.998,478.311   "/>
		<rect x="259.49" y="479.601" fill="#CCCCCC" width="34.844" height="9.181"/>
		<polygon fill="#CCCCCC" points="294.979,478.311 314.975,478.311 314.975,469.13 280.133,469.13 280.133,478.311   "/>
		<rect x="295.624" y="479.601" fill="#CCCCCC" width="34.843" height="9.181"/>
		<polygon fill="#CCCCCC" points="331.111,478.311 351.108,478.311 351.108,469.13 316.266,469.13 316.266,478.311   "/>
		<rect x="331.758" y="479.601" fill="#CCCCCC" width="34.842" height="9.181"/>
		<polygon fill="#CCCCCC" points="367.245,478.311 387.241,478.311 387.241,469.13 352.398,469.13 352.398,478.311   "/>
		<rect x="367.891" y="479.601" fill="#CCCCCC" width="34.842" height="9.181"/>
		<rect x="404.023" y="458.66" fill="#CCCCCC" width="34.842" height="9.18"/>
		<rect x="388.532" y="448.189" fill="#CCCCCC" width="34.842" height="9.18"/>
		<rect x="367.891" y="458.66" fill="#CCCCCC" width="34.842" height="9.18"/>
		<rect x="352.398" y="448.189" fill="#CCCCCC" width="34.843" height="9.18"/>
		<rect x="331.758" y="458.66" fill="#CCCCCC" width="34.842" height="9.18"/>
		<rect x="316.266" y="448.189" fill="#CCCCCC" width="34.843" height="9.18"/>
		<rect x="295.624" y="458.66" fill="#CCCCCC" width="34.843" height="9.18"/>
		<rect x="280.133" y="448.189" fill="#CCCCCC" width="34.842" height="9.18"/>
		<rect x="259.49" y="458.66" fill="#CCCCCC" width="34.844" height="9.18"/>
		<rect x="243.998" y="448.189" fill="#CCCCCC" width="34.844" height="9.18"/>
		<rect x="223.357" y="458.66" fill="#CCCCCC" width="34.842" height="9.18"/>
		<rect x="207.865" y="448.189" fill="#CCCCCC" width="34.843" height="9.18"/>
		<rect x="187.224" y="458.66" fill="#CCCCCC" width="34.843" height="9.18"/>
		<rect x="151.091" y="458.66" fill="#CCCCCC" width="34.843" height="9.18"/>
		<rect x="135.6" y="448.189" fill="#CCCCCC" width="34.842" height="9.18"/>
		<rect x="114.957" y="458.66" fill="#CCCCCC" width="34.843" height="9.18"/>
		<rect x="99.465" y="448.189" fill="#CCCCCC" width="34.844" height="9.18"/>
		<rect x="78.824" y="458.66" fill="#CCCCCC" width="34.842" height="9.18"/>
		<rect x="63.332" y="448.189" fill="#CCCCCC" width="34.843" height="9.18"/>
		<path fill="#CCCCCC" d="M77.533,458.66H59.924c1.534,3.054,3.12,6.114,4.762,9.18h12.847V458.66z"/>
		<path fill="#CCCCCC" d="M98.175,478.311v-9.181h-32.79c1.652,3.056,3.357,6.116,5.12,9.181h7.673H98.175z"/>
		<path fill="#CCCCCC" d="M77.533,479.601h-6.282c1.774,3.058,3.605,6.118,5.494,9.181h0.788V479.601z"/>
		<path fill="#CCCCCC" d="M113.953,500.543H84.281c2.037,3.061,4.132,6.121,6.29,9.18h23.382V500.543z"/>
		<rect x="99.18" y="490.073" fill="#CCCCCC" width="34.842" height="9.18"/>
		<rect x="115.244" y="500.543" fill="#CCCCCC" width="34.842" height="9.18"/>
		<rect x="135.313" y="490.073" fill="#CCCCCC" width="34.842" height="9.18"/>
		<rect x="151.377" y="500.543" fill="#CCCCCC" width="34.842" height="9.18"/>
		<rect x="171.445" y="490.073" fill="#CCCCCC" width="34.844" height="9.18"/>
		<rect x="187.51" y="500.543" fill="#CCCCCC" width="34.844" height="9.18"/>
		<rect x="207.58" y="490.073" fill="#CCCCCC" width="34.842" height="9.18"/>
		<rect x="223.645" y="500.543" fill="#CCCCCC" width="34.842" height="9.18"/>
		<rect x="243.713" y="490.073" fill="#CCCCCC" width="34.842" height="9.18"/>
		<rect x="259.777" y="500.543" fill="#CCCCCC" width="34.842" height="9.18"/>
		<rect x="279.846" y="490.073" fill="#CCCCCC" width="34.842" height="9.18"/>
		<rect x="295.91" y="500.543" fill="#CCCCCC" width="34.842" height="9.18"/>
		<rect x="315.979" y="490.073" fill="#CCCCCC" width="34.844" height="9.18"/>
		<rect x="332.043" y="500.543" fill="#CCCCCC" width="34.844" height="9.18"/>
		<rect x="352.113" y="490.073" fill="#CCCCCC" width="34.842" height="9.18"/>
		<rect x="368.178" y="500.543" fill="#CCCCCC" width="34.842" height="9.18"/>
		<rect x="388.246" y="490.073" fill="#CCCCCC" width="34.842" height="9.18"/>
		<path fill="#CCCCCC" d="M404.311,500.543v9.18h25.202c2.217-3.059,4.369-6.119,6.462-9.18H404.311z"/>
		<path fill="#CCCCCC" d="M440.156,479.601v9.181h3.56c1.94-3.063,3.821-6.123,5.645-9.181H440.156z"/>
		<path fill="#CCCCCC" d="M424.665,478.311h14.846h10.615c1.812-3.064,3.563-6.125,5.26-9.181h-30.721V478.311z"/>
		<path fill="#CCCCCC" d="M440.156,467.839h15.947c1.688-3.065,3.316-6.126,4.893-9.18h-20.84V467.839z"/>
		<rect x="424.665" y="448.189" fill="#CCCCCC" width="34.843" height="9.18"/>
		<path fill="#CCCCCC" d="M402.302,438.292v8.606h34.842v-8.606C426.8,438.292,415.08,438.292,402.302,438.292z"/>
		<path fill="#CCCCCC" d="M366.169,438.292v8.606h34.842v-8.606C390.079,438.292,378.399,438.292,366.169,438.292z"/>
		<path fill="#CCCCCC" d="M330.036,438.292v8.606h34.842v-8.606C353.662,438.292,341.996,438.292,330.036,438.292z"/>
		<path fill="#CCCCCC" d="M293.903,438.292v8.606h34.842v-8.606C317.347,438.292,305.688,438.292,293.903,438.292z"/>
		<path fill="#CCCCCC" d="M257.769,438.292v8.606h34.844v-8.606C281.07,438.292,269.414,438.292,257.769,438.292z"/>
		<path fill="#CCCCCC" d="M221.636,438.292v8.606h34.842v-8.606C244.804,438.292,233.148,438.292,221.636,438.292z"/>
		<path fill="#CCCCCC" d="M185.503,438.292v8.606h34.842v-8.606C208.526,438.292,196.867,438.292,185.503,438.292z"/>
		<path fill="#CCCCCC" d="M149.37,438.292v8.606h34.842v-8.606C172.203,438.292,160.538,438.292,149.37,438.292z"/>
		<path fill="#CCCCCC" d="M113.235,438.292v8.606h34.844v-8.606C135.766,438.292,124.078,438.292,113.235,438.292z"/>
		<path fill="#CCCCCC" d="M77.103,438.292v8.606h34.842v-8.606C98.954,438.292,87.216,438.292,77.103,438.292z"/>
		<path fill="#CCCCCC" d="M75.812,438.292c-10.417,0-19.025,0-25.395,0c1.236,2.86,2.518,5.729,3.845,8.606h21.55V438.292z"/>
		<path fill="#CCCCCC" d="M62.041,448.189h-7.182c1.421,3.052,2.895,6.112,4.422,9.18h2.76V448.189z"/>
		<path fill="#CCCCCC" d="M91.49,511.014c2.042,2.87,4.137,5.74,6.289,8.606c0.002,0,0.005,0,0.007,0v-8.606H91.49z"/>
		<path fill="#CCCCCC" d="M99.077,511.014v8.606c10.639,0,22.34,0,34.844,0v-8.606H99.077z"/>
		<path fill="#CCCCCC" d="M135.212,511.014v8.606c11.063,0,22.734,0,34.842,0v-8.606H135.212z"/>
		<path fill="#CCCCCC" d="M171.345,511.014v8.606c11.295,0,22.957,0,34.842,0v-8.606H171.345z"/>
		<path fill="#CCCCCC" d="M207.478,511.014v8.606c11.458,0,23.114,0,34.842,0v-8.606H207.478z"/>
		<path fill="#CCCCCC" d="M243.61,511.014v8.606c11.594,0,23.25,0,34.844,0v-8.606H243.61z"/>
		<path fill="#CCCCCC" d="M279.745,511.014v8.606c11.728,0,23.384,0,34.842,0v-8.606H279.745z"/>
		<path fill="#CCCCCC" d="M315.878,511.014v8.606c11.885,0,23.546,0,34.842,0v-8.606H315.878z"/>
		<path fill="#CCCCCC" d="M352.011,511.014v8.606c12.108,0,23.778,0,34.842,0v-8.606H352.011z"/>
		<path fill="#CCCCCC" d="M422.985,511.014h-34.842v8.606c12.158,0,23.563,0,33.965,0c0.293-0.38,0.586-0.76,0.877-1.14V511.014z"/>
		<path fill="#CCCCCC" d="M424.276,516.784c1.457-1.923,2.887-3.846,4.293-5.77h-4.293V516.784z"/>
		<path fill="#CCCCCC" d="M460.799,457.369h0.858c1.568-3.067,3.082-6.128,4.542-9.18h-5.4V457.369z"/>
		<path fill="#003C80" d="M152.465,469.121c-26.39,0-47.783,22.857-47.783,51.055h95.564    C200.246,491.978,178.854,469.121,152.465,469.121z"/>
		<path d="M200.996,520.925v-0.75c0-28.565-21.771-51.805-48.531-51.805c-26.761,0-48.533,23.239-48.533,51.805v0.75"/>
		<path fill="#003C80" d="M261.033,469.121c-26.391,0-47.783,22.857-47.783,51.055h95.565    C308.815,491.978,287.423,469.121,261.033,469.121z"/>
		<path d="M212.5,520.175v0.75h97.065v-0.75c0-28.565-21.771-51.805-48.532-51.805C234.272,468.371,212.5,491.61,212.5,520.175z"/>
		<path d="M321.069,520.175v0.75h97.063v-0.75c0-28.565-21.771-51.805-48.531-51.805    C342.841,468.371,321.069,491.61,321.069,520.175z"/>
		<path fill="#003C80" d="M261.033,469.871c-25.515,0-46.309,22.59-46.975,50.624h93.948    C307.341,492.46,286.548,469.871,261.033,469.871z"/>
		<path fill="#003C80" d="M152.465,469.871c-25.416,0-46.141,22.562-46.96,50.624h93.919    C198.604,492.432,177.879,469.871,152.465,469.871z"/>
		<path fill="#003C80" d="M369.602,469.871c-25.316,0-45.976,22.532-46.946,50.624h93.892    C415.576,492.403,394.917,469.871,369.602,469.871z"/>
		<path fill="#1FA22E" d="M210.788,547.625l7.284-1.71c41.017-9.645,41.755-9.653,78.943-0.979l11.58,2.684    c43.694,10.018,78.498,3.477,89.079,0.958c8.601-9.301,16.537-18.663,23.83-28.042l-316-0.04c-0.004,0.14-7,0.165-7,0.165    c6.983,9.226,14.567,18.431,22.773,27.574C134.481,550.273,177.772,555.87,210.788,547.625z"/>
		<path fill="#1FA22E" d="M275.704,622.788c-16.25-4.16-16.25-4.16-34.357,0.513c0,0-3.509,0.904-3.433,0.884    c-8.35,2.289-17.722,2.762-25.973,2.504c10.839,7.378,22.265,14.605,34.304,21.654c0.753-0.13,1.484-0.293,2.177-0.501    l1.474-0.416c9.085-2.566,9.939-2.577,18.277-0.241c0,0,2.316,0.646,2.332,0.649c11.707-6.699,22.853-13.561,33.455-20.561    c-6.672-0.139-14.339-0.969-22.66-3.063L275.704,622.788z"/>
		<path fill="#1FA22E" d="M306.36,557.367l-11.617-2.693c-35.258-8.224-35.258-8.224-74.383,0.976c0,0-7.292,1.712-7.222,1.694    c-27.804,6.944-61.417,4.758-81.106,2.459c7.162,7.435,14.755,14.815,22.812,22.116c13.661,1.646,43.02,4.157,66.021-1.005    l5.752-1.214c32.539-6.878,33.125-6.884,62.636-0.697l9.149,1.906c28.499,5.873,52.188,3.704,64.206,1.777    c8.145-7.149,15.837-14.373,23.098-21.65C368.394,563.537,340.075,565.096,306.36,557.367z"/>
		<path fill="#1FA22E" d="M296.384,590.704l-9.184-1.914c-27.729-5.813-27.729-5.813-58.515,0.694c0,0-5.761,1.215-5.696,1.201    c-18.191,4.083-39.504,3.738-55.168,2.574c8.754,7.393,17.995,14.692,27.762,21.868c7.823,1.188,25.825,3.212,39.766-0.608    l3.499-0.901c20.211-5.216,20.947-5.226,39.336-0.518l5.556,1.413c15.854,3.989,29.18,2.844,36.579,1.55    c10.026-7.129,19.532-14.378,28.53-21.725C335.325,595.261,317.145,594.982,296.384,590.704z"/>
		<path fill="#CCCCCC" d="M213.138,557.343c-0.07,0.018,7.222-1.694,7.222-1.694c39.125-9.199,39.125-9.199,74.383-0.976    l11.617,2.693c33.715,7.729,62.033,6.17,79.346,3.669c4.129-4.137,8.114-8.292,11.968-12.459    c-10.581,2.519-45.385,9.06-89.079-0.958l-11.58-2.684c-37.188-8.674-37.926-8.665-78.943,0.979l-7.284,1.71    c-33.016,8.245-76.307,2.648-89.511,0.609c3.472,3.869,7.053,7.727,10.755,11.568    C151.721,562.101,185.334,564.288,213.138,557.343z"/>
		<path fill="#CCCCCC" d="M298.402,580.909l-9.149-1.906c-29.511-6.187-30.097-6.181-62.636,0.697l-5.752,1.214    c-23.001,5.162-52.36,2.651-66.021,1.005c4.196,3.804,8.528,7.583,12.977,11.341c15.664,1.164,36.977,1.509,55.168-2.574    c-0.064,0.014,5.696-1.201,5.696-1.201c30.787-6.508,30.787-6.508,58.515-0.694l9.184,1.914    c20.761,4.278,38.941,4.558,52.466,3.635c4.726-3.858,9.307-7.745,13.759-11.652C350.591,584.613,326.901,586.782,298.402,580.909    z"/>
		<path fill="#CCCCCC" d="M283.74,614.513l-5.556-1.413c-18.39-4.708-19.125-4.698-39.336,0.518l-3.499,0.901    c-13.941,3.82-31.943,1.797-39.766,0.608c5.297,3.892,10.752,7.745,16.358,11.561c8.251,0.258,17.623-0.215,25.973-2.504    c-0.076,0.021,3.433-0.884,3.433-0.884c18.108-4.673,18.108-4.673,34.357-0.513l5.596,1.423c8.321,2.094,15.988,2.924,22.66,3.063    c5.604-3.699,11.054-7.438,16.359-11.21C312.92,617.357,299.595,618.502,283.74,614.513z"/>
		<path fill="#CCCCCC" d="M249.896,647.425l-1.474,0.416c-0.693,0.208-1.424,0.371-2.177,0.501    c3.785,2.217,7.618,4.419,11.525,6.599c4.32-2.347,8.56-4.718,12.734-7.107c-0.016-0.004-2.332-0.649-2.332-0.649    C259.835,644.848,258.981,644.859,249.896,647.425z"/>
	</g>
	<path fill="#FEE600" d="M398.668,371.874c-11.163-7.389-32.242-1.598-35.828,12.958l-91.817-60.77l137.302-90.875   c0,0,3.888-8.605-6.086-9.198c-8.846,5.611-15.623,10.345-15.623,10.345l-13.536-20.45l-5.979,3.957l9.888,14.934l-8.275,5.477   l-9.883-14.936l-10.111,6.691l9.887,14.937l-8.274,5.474l-9.882-14.935l-5.978,3.955l13.536,20.451l-86.974,57.564l-86.974-57.564   l13.536-20.451l-5.978-3.955l-9.882,14.935l-8.274-5.474l9.887-14.937l-10.111-6.691l-9.883,14.936l-8.275-5.477l9.888-14.934   l-5.979-3.957l-13.536,20.45c0,0-6.777-4.734-15.623-10.345c-9.974,0.592-6.086,9.198-6.086,9.198l137.302,90.875l-91.818,60.77   c-3.586-14.556-24.665-20.347-35.828-12.958c-12.522,8.29-17.124,30.254,6.114,38.668c-0.388,24.052,20.298,28.452,32.82,20.162   c11.392-7.541,16.684-22.759,2.274-36.21l96.426-63.821l96.426,63.821c-14.409,13.451-9.117,28.669,2.274,36.21   c12.522,8.29,33.208,3.89,32.82-20.162C415.792,402.127,411.19,380.164,398.668,371.874z M157.208,421.881   c-8.908,5.897-23.63,2.768-23.351-14.34c-16.529-5.982-13.257-21.611-4.348-27.508c7.589-5.023,21.602-1.48,25.069,7.875   l-0.518,0.342l1.054,1.588c0.216,1.098,0.341,2.236,0.258,3.462c1.854,1.3,3.398,2.646,4.683,4.005l0.094,0.14l0.013-0.009   C168.746,406.663,164.944,416.762,157.208,421.881z M388.209,407.542c0.279,17.107-14.442,20.237-23.351,14.34   c-7.736-5.119-11.538-15.219-2.954-24.445l0.013,0.009l0.094-0.14c1.284-1.359,2.828-2.705,4.683-4.005   c-0.083-1.226,0.042-2.364,0.258-3.462l1.054-1.588l-0.518-0.342c3.468-9.355,17.48-12.898,25.069-7.875   C401.466,385.93,404.738,401.559,388.209,407.542z"/>
</g>
<path fill="#E2001A" d="M221.391,249.45c4.619-0.77,12.096,0,12.096-10.667v-45.855c0-10.667-7.478-9.897-12.096-10.667v-3.299  c4.619,0,12.096,0.55,18.475,0.55c7.697,0,15.615-0.55,23.313-0.55c22.763,0,37.498,13.416,37.498,35.629  c0,23.093-12.756,38.158-38.817,38.158c-7.258,0-14.736-0.55-21.993-0.55c-6.378,0-13.856,0.55-18.475,0.55V249.45z   M246.353,238.783c0,3.739,0,9.787,11.437,9.787c21.114,0,28.372-15.725,28.372-33.979c0-19.354-7.809-31.45-28.921-31.45  c-10.887,0-10.887,3.958-10.887,9.787V238.783z"/>
<g>
	<path fill="#E2001A" d="M120.288,332.139c0,3.739,0.77,7.698,1.429,10.447c-2.419-0.66-4.838-1.319-7.258-1.319   c-6.928,0-15.835,5.277-26.832,5.277c-20.014,0-34.859-12.096-34.859-39.257c0-24.523,16.275-37.389,39.698-37.389   c9.567,0,16.935,3.299,21.444,3.299c2.309,0,4.178-0.77,5.828-2.859c-0.33,1.1-0.55,5.828-0.55,8.027   c0,2.749,0.33,14.076,0.55,16.825h-4.068c-2.969-9.457-6.818-20.454-23.203-20.454c-18.804,0-25.182,12.756-25.182,32.55   c0,15.944,6.268,32.439,27.602,32.439c8.687,0,12.536-2.089,12.536-7.587v-13.196c0-5.718-4.508-7.917-12.316-7.917v-3.299   c6.158,0,12.316,0.55,18.584,0.55c4.839,0,9.677-0.55,14.625-0.55v3.299c-6.158,0-8.027,2.749-8.027,7.917V332.139z"/>
	<path fill="#E2001A" d="M469.298,318.833c-1.76,8.907-9.787,27.71-33.431,27.71c-21.113,0-32.44-18.034-32.44-39.257   c0-21.884,11.877-37.389,36.399-37.389c9.127,0,16.056,3.299,20.344,3.299c2.31,0,4.179-0.77,5.828-2.859   c-0.329,1.1-0.55,5.829-0.55,8.027c0,2.749,0.33,14.076,0.55,16.825h-4.069c-2.858-9.457-6.487-20.454-22.103-20.454   c-17.814,0-21.884,18.254-21.884,32.55c0,15.944,7.698,29.911,22.764,29.911c14.405,0,21.553-10.777,24.192-18.365H469.298z"/>
</g>
</svg>