<svg xmlns:dc="http://purl.org/dc/elements/1.1/" xmlns:cc="http://creativecommons.org/ns#" xmlns:rdf="http://www.w3.org/1999/02/22-rdf-syntax-ns#" xmlns:svg="http://www.w3.org/2000/svg" xmlns="http://www.w3.org/2000/svg" xmlns:sodipodi="http://sodipodi.sourceforge.net/DTD/sodipodi-0.dtd" xmlns:inkscape="http://www.inkscape.org/namespaces/inkscape" version="1.0" id="Layer_1" x="0px" y="0px" width="190.00479" height="254" viewBox="0 0 190.00479 254" enable-background="new 0 0 357.538 480.548" xml:space="preserve" sodipodi:docname="Gil_Vicente_FC.svg" inkscape:version="0.92.4 (5da689c313, 2019-01-14)"><metadata id="metadata114"><rdf:RDF><cc:Work rdf:about=""><dc:format>image/svg+xml</dc:format><dc:type rdf:resource="http://purl.org/dc/dcmitype/StillImage"/><dc:title/></cc:Work></rdf:RDF></metadata><defs id="defs112"/><sodipodi:namedview pagecolor="#ffffff" bordercolor="#666666" borderopacity="1" objecttolerance="10" gridtolerance="10" guidetolerance="10" inkscape:pageopacity="0" inkscape:pageshadow="2" inkscape:window-width="1366" inkscape:window-height="705" id="namedview110" showgrid="false" fit-margin-top="2" fit-margin-bottom="2" fit-margin-right="2" fit-margin-left="2" inkscape:zoom="1.3890575" inkscape:cx="114.1765" inkscape:cy="179.36003" inkscape:window-x="-8" inkscape:window-y="-8" inkscape:window-maximized="1" inkscape:current-layer="Layer_1"/>
<linearGradient id="SVGID_1_" gradientUnits="userSpaceOnUse" x1="128.7944" y1="199.8354" x2="378.40881" y2="216.7211">
	<stop offset="0" style="stop-color:#FFFFFF" id="stop2"/>
	<stop offset="1" style="stop-color:#CCCCCC" id="stop4"/>
</linearGradient>

<linearGradient id="SVGID_2_" gradientUnits="userSpaceOnUse" x1="44.068401" y1="121.0278" x2="357.55688" y2="125.609">
	<stop offset="0" style="stop-color:#521C19" id="stop9"/>
	<stop offset="1" style="stop-color:#D62929" id="stop11"/>
</linearGradient>

<linearGradient id="SVGID_3_" gradientUnits="userSpaceOnUse" x1="88.068398" y1="333.9834" x2="287.76208" y2="339.85669">
	<stop offset="0" style="stop-color:#083363" id="stop16"/>
	<stop offset="1" style="stop-color:#004FA3" id="stop18"/>
</linearGradient>




<g id="g162" transform="matrix(0.52023928,0,0,0.52023928,2,2.0000545)"><path id="path7" d="m 9.543,103.92 c 77.871,64.266 159.217,125.738 315.688,126.278 l -23.49,68.275 C 192.008,298.719 107.971,251.195 27.897,192.02 Z" style="clip-rule:evenodd;fill:url(#SVGID_1_);fill-rule:evenodd" inkscape:connector-curvature="0"/><path id="path14" d="m 0,23.162 12.48,89.569 c 81.836,75.57 275.31,143.896 304.677,134.351 16.641,-35.779 29.613,-116.291 40.38,-223.92 C 239.337,-7.526 120.158,-7.915 0,23.162 Z" style="clip-rule:evenodd;fill:url(#SVGID_2_);fill-rule:evenodd" inkscape:connector-curvature="0"/><path id="path21" d="M 27.898,188.35 C 97.74,238.03 162.886,290.937 304.68,291.132 268.703,373.36 223.92,450.448 179.871,480.548 104.399,396.12 57.264,309.486 27.898,188.35 Z" style="clip-rule:evenodd;fill:url(#SVGID_3_);fill-rule:evenodd" inkscape:connector-curvature="0"/><g id="g73">
	<path id="path23" d="m 133.226,185.266 c -26.086,-15.662 -47.231,-50.461 -3.719,-75.911 -2.498,5.971 1.37,8.515 7.636,9.79 -6.021,7.438 -6.511,15.612 0.636,24.763 -20.656,9.984 -18.551,24.471 -4.553,41.358 z" inkscape:connector-curvature="0" style="clip-rule:evenodd;fill:#083363;fill-rule:evenodd;stroke:#ffffff;stroke-width:1.04999995;stroke-linejoin:bevel"/>
	<path id="path25" d="m 115.803,175.039 c 4.355,19.676 17.912,32.646 50.07,32.01 -11.306,-4.896 -21.584,-10.475 -28.73,-18.306 -9.643,-1.665 -15.86,-7.246 -21.34,-13.704 z" inkscape:connector-curvature="0" style="clip-rule:evenodd;fill:#083363;fill-rule:evenodd;stroke:#ffffff;stroke-width:1.04999995;stroke-linejoin:bevel"/>
	<path id="path27" d="m 136.507,205.531 13.702,3.671 c 2.251,4.11 5.728,8.956 10.868,14.78 -6.756,4.551 -12.53,5.578 -18.063,5.922 2.448,-4.503 1.028,-11.698 -2.593,-13.51 -3.867,-1.809 -4.258,-6.067 -3.914,-10.863 z" inkscape:connector-curvature="0" style="clip-rule:evenodd;fill:#083363;fill-rule:evenodd;stroke:#ffffff;stroke-width:1.04999995;stroke-linejoin:bevel"/>
	<path id="path29" d="m 75.52,214.487 c -0.684,-5.678 1.96,-7.733 6.215,-8.077 l 12.776,-2.005 c 4.797,-1.223 9.642,0.88 14.438,3.867 7.047,3.475 14.635,5.578 22.515,6.998 3.819,-0.098 6.51,1.518 8.272,4.651 1.419,3.133 1.666,6.215 1.078,9.349 -1.812,2.936 -11.357,-4.894 -17.865,-8.565 -0.735,-0.98 -5.042,1.711 -8.077,3.13 5.922,-7.635 -1.907,-8.958 -7.488,-11.354 -1.614,4.553 -1.223,8.42 -0.293,12.138 -3.671,-2.593 -5.433,-7.342 -6.217,-13.216 -6.999,1.321 -11.6,6.168 -14.436,13.655 -2.596,-2.593 -2.353,-5.577 1.223,-9.004 1.809,-2.399 5.578,-6.215 5.432,-6.706 -0.392,-1.224 -13.118,-2.546 -17.573,5.139 z" inkscape:connector-curvature="0" style="clip-rule:evenodd;fill:#083363;fill-rule:evenodd;stroke:#ffffff;stroke-width:1.04999995;stroke-linejoin:bevel"/>
	<path id="path31" d="m 153.88,209.347 c 7.292,12.138 16.053,23.052 30.59,28.778 l 14.44,-0.292 c 2.396,-7.146 3.13,-14.878 -0.737,-24.13 l -8.859,0.491 c -2.055,2.789 -6.507,3.229 -10.915,3.718 l 2.35,-5.287 -9.004,-3.278 c -5.97,0.882 -11.942,0.49 -17.865,0 z" inkscape:connector-curvature="0" style="clip-rule:evenodd;fill:#083363;fill-rule:evenodd;stroke:#ffffff;stroke-width:1.04999995;stroke-linejoin:bevel"/>
	<path id="path33" d="m 184.178,240.917 c -5.287,20.017 -12.923,37.784 -32.646,37.588 -7.295,-0.049 -4.503,4.504 -4.208,7.93 2.055,-2.299 4.6,-4.16 9.64,-4.355 3.526,0.39 7.047,-0.882 10.573,-2.007 -4.797,5.923 -13.998,9.788 -5.142,17.864 -1.515,-12.433 15.86,-21.292 29.856,-6.805 2.498,-3.865 -6.313,-11.499 -8.074,-11.06 -3.035,-0.784 -2.205,-7.048 -2.35,-11.941 0.391,-2.399 2.593,-5.974 6.215,-10.428 4.699,-4.403 7.931,-10.276 10.573,-16.786 z" inkscape:connector-curvature="0" style="clip-rule:evenodd;fill:#083363;fill-rule:evenodd;stroke:#ffffff;stroke-width:1.04999995;stroke-linejoin:bevel"/>
	<path id="path35" d="m 183.394,268.131 2.348,-4.211 c 0.246,2.35 3.573,2.544 7,2.643 z" inkscape:connector-curvature="0" style="clip-rule:evenodd;fill:#083363;fill-rule:evenodd;stroke:#ffffff;stroke-width:1.04999995;stroke-linejoin:bevel"/>
	<path id="path37" d="m 193.966,210.277 4.208,-5.09 c 0.98,1.712 1.862,3.573 2.008,6.215 z" inkscape:connector-curvature="0" style="clip-rule:evenodd;fill:#083363;fill-rule:evenodd;stroke:#ffffff;stroke-width:1.04999995;stroke-linejoin:bevel"/>
	<path id="path39" d="m 213.691,199.707 -0.293,8.906 7.291,-1.909 c -3.132,-1.907 -5.481,-4.208 -6.998,-6.997 z" inkscape:connector-curvature="0" style="clip-rule:evenodd;fill:#083363;fill-rule:evenodd;stroke:#ffffff;stroke-width:1.04999995;stroke-linejoin:bevel"/>
	<path id="path41" d="m 160.685,190.894 c 6.853,3.624 15.221,5.726 24.864,6.511 -1.03,5.14 -1.96,10.474 -4.944,13.216 -23.199,-8.125 -41.505,-20.508 -52.859,-38.862 -5.24,-8.859 -3.378,-16.838 8.565,-23.64 11.452,-6.267 26.429,-2.301 29.854,1.859 11.553,11.158 7,22.318 2.792,33.429 2.691,1.616 6.998,2.153 16.005,-0.439 0.929,3.914 1.518,7.879 0.293,11.793 -8.517,-0.781 -16.887,-1.859 -24.57,-3.867 z" inkscape:connector-curvature="0" style="clip-rule:evenodd;fill:#083363;fill-rule:evenodd;stroke:#ffffff;stroke-width:1.04999995;stroke-linejoin:bevel"/>
	<path id="path43" d="m 154.469,128.542 c -2.251,6.899 -16.055,6.51 -15.516,10.57 0.586,4.944 4.601,4.553 9.79,2.348 7.291,-2.64 38.861,12.432 24.081,41.164 5.188,0.05 9.103,-1.859 13.213,-3.376 4.258,10.67 2.546,22.856 -3.425,36.022 5.873,-3.425 11.209,-7.734 15.857,-13.214 8.565,12.139 9.349,36.513 13.216,43.51 2.298,-45.371 -3.084,-84.378 -39.939,-97.446 -10.719,-2.645 -19.285,-18.257 -17.277,-19.578 z" inkscape:connector-curvature="0" style="clip-rule:evenodd;fill:#083363;fill-rule:evenodd;stroke:#ffffff;stroke-width:1.04999995;stroke-linejoin:bevel"/>
	<path id="path45" d="m 130.876,111.164 c 0.882,3.376 4.015,5.631 9.007,6.952 -5.287,6.214 -7.342,12.527 -3.133,19.135 1.518,-3.082 4.258,-5.235 7.781,-6.706 4.405,-0.929 8.027,-3.18 11.209,-6.166 1.078,6.51 2.251,12.97 7.929,16.299 -3.428,-12.53 3.083,-29.856 5.287,-37.591 3.082,-21.193 -14.291,-34.406 -28.633,-19.625 12.236,16.935 7.831,25.502 -9.447,27.702 z" inkscape:connector-curvature="0" style="clip-rule:evenodd;fill:#083363;fill-rule:evenodd;stroke:#ffffff;stroke-width:1.04999995;stroke-linejoin:bevel"/>
	<path id="path47" d="m 132.883,89.092 c 2.205,-0.589 6.706,-1.274 6.51,-1.714 -0.929,-2.545 -5.628,-1.468 -6.51,1.714 z" inkscape:connector-curvature="0" style="clip-rule:evenodd;fill:#083363;fill-rule:evenodd;stroke:#ffffff;stroke-width:1.04999995;stroke-linejoin:bevel"/>
	<path id="path49" d="m 136.507,90.413 c 0.636,0 3.521,1.714 4.992,2.593 l 1.075,-3.671 z" inkscape:connector-curvature="0" style="clip-rule:evenodd;fill:#083363;fill-rule:evenodd;stroke:#ffffff;stroke-width:1.04999995;stroke-linejoin:bevel"/>
	<path id="path51" d="m 131.71,98.489 c 1.418,0.341 11.257,-2.251 12.625,-5.041 1.667,9.64 -2.348,14.241 -11.55,14.143 -4.894,0.098 -7.635,-8.024 -1.075,-9.102 z" inkscape:connector-curvature="0" style="clip-rule:evenodd;fill:#083363;fill-rule:evenodd;stroke:#ffffff;stroke-width:1.04999995;stroke-linejoin:bevel"/>
	<path id="path53" d="m 138.218,80.77 c -3.182,-7.636 -3.475,-14.927 7.097,-21.045 -0.05,4.208 -0.195,8.81 1.078,8.81 6.508,-9.691 14.585,-10.327 22.954,-9.103 -2.791,2.593 -5.921,5.137 -5.678,7.733 9.691,-1.223 18.012,0.439 21.045,12.921 -7.636,-3.819 -15.27,-7.34 -21.731,-2.446 -8.271,-6.217 -16.541,-4.26 -24.765,3.13 z" inkscape:connector-curvature="0" style="clip-rule:evenodd;fill:#083363;fill-rule:evenodd;stroke:#ffffff;stroke-width:1.04999995;stroke-linejoin:bevel"/>
	<path id="path55" d="m 147.81,82.68 c 1.765,0 3.231,0.489 3.231,1.125 0,0.636 -1.466,1.176 -3.231,1.176 -1.761,0 -3.18,-0.541 -3.18,-1.176 0,-0.635 1.419,-1.125 3.18,-1.125 z" inkscape:connector-curvature="0" style="clip-rule:evenodd;fill:#083363;fill-rule:evenodd;stroke:#ffffff;stroke-width:1.04999995"/>
	<path id="path57" d="m 203.904,147.677 c 7.342,-19.381 19.967,-34.015 45.563,-37 -4.255,3.182 -8.122,6.362 -10.471,9.543 10.181,-0.491 19.184,0.538 23.786,7.49 -12.091,-1.518 -23.543,-1.176 -33.038,5.432 -11.648,3.034 -19.627,8.223 -25.84,14.535 z" inkscape:connector-curvature="0" style="clip-rule:evenodd;fill:#083363;fill-rule:evenodd;stroke:#ffffff;stroke-width:1.04999995;stroke-linejoin:bevel"/>
	<path id="path59" d="m 203.218,168.478 -7.49,-7.879 c 15.809,-24.324 38.225,-31.323 67.591,-20.263 -12.331,0.98 -25.4,-0.832 -35.63,8.027 7.44,2.887 14.536,5.972 18.109,11.55 -19.481,-4.894 -33.819,-2.252 -42.58,8.565 z" inkscape:connector-curvature="0" style="clip-rule:evenodd;fill:#083363;fill-rule:evenodd;stroke:#ffffff;stroke-width:1.04999995;stroke-linejoin:bevel"/>
	<path id="path61" d="m 209.335,181.008 -5.432,-10.229 c 5.627,-11.109 38.027,-13.704 44.588,-7.342 5.725,4.112 18.647,33.183 1.661,43.121 -0.196,-7.244 -0.929,-14.341 -4.108,-20.801 -2.645,5.481 -5.483,10.816 -12.924,11.55 2.645,-7.488 1.715,-14.585 -2.445,-21.34 -0.931,4.648 -1.959,8.908 -3.672,10.865 -2.592,2.937 -4.307,0.686 -6.118,-1.37 -2.495,-2.838 -7.048,-3.622 -11.55,-4.454 z" inkscape:connector-curvature="0" style="clip-rule:evenodd;fill:#083363;fill-rule:evenodd;stroke:#ffffff;stroke-width:1.04999995;stroke-linejoin:bevel"/>
	<path id="path63" d="m 233.121,147.677 c 23.838,7.881 47.185,60.497 2.986,65 13.609,6.706 25.697,7.978 32.646,-8.565 1.91,4.746 3.328,9.788 3.425,15.661 18.501,-46.986 -2.739,-64.999 -39.057,-72.096 z" inkscape:connector-curvature="0" style="clip-rule:evenodd;fill:#083363;fill-rule:evenodd;stroke:#ffffff;stroke-width:1.04999995;stroke-linejoin:bevel"/>
	<path id="path65" d="m 230.43,235.141 c 6.315,-4.112 11.501,-9.347 16.054,-15.271 7.34,1.077 14.289,-1.175 20.898,-6.508 -1.468,11.695 -7.978,19.43 -10.031,28.143 -1.518,-3.475 -1.178,-8.811 -0.686,-14.294 -8.174,5.679 -13.217,15.81 -15.613,29.662 -2.793,-5.873 -2.645,-21.387 0.242,-23.101 -3.621,1.76 -7.243,2.446 -10.864,1.369 z" inkscape:connector-curvature="0" style="clip-rule:evenodd;fill:#083363;fill-rule:evenodd;stroke:#ffffff;stroke-width:1.04999995;stroke-linejoin:bevel"/>
	<path id="path67" d="m 237.233,146.307 c 38.716,8.322 58.881,30.296 33.97,80.366 2.54,1.569 5.921,1.664 9.542,1.373 -4.553,14.829 -5.628,29.854 3.375,45.418 -0.732,-20.605 4.503,-40.281 10.966,-59.663 9.79,-38.762 -18.059,-69.647 -57.853,-67.494 z" inkscape:connector-curvature="0" style="clip-rule:evenodd;fill:#083363;fill-rule:evenodd;stroke:#ffffff;stroke-width:1.04999995;stroke-linejoin:bevel"/>
	<path id="path69" d="m 193.919,158.496 -5.631,-4.749 c -0.098,-0.343 -0.196,-0.636 -0.292,-0.93 -15.028,-47.427 95.344,-111.152 99.501,-13.655 -25.254,-53.987 -73.562,-31.767 -88.343,13.459 z" inkscape:connector-curvature="0" style="clip-rule:evenodd;fill:#083363;fill-rule:evenodd;stroke:#ffffff;stroke-width:1.04999995;stroke-linejoin:bevel"/>
	<path id="path71" d="m 237.871,86.253 c 13.311,-0.882 26.526,-1.225 38.518,10.474 6.41,-2.987 12.287,-6.658 16.348,-12.627 -4.257,0.686 -8.713,1.173 -14.145,0.636 5.432,-5.774 9.984,-11.602 12.577,-17.375 -16.934,13.459 -48.062,9.102 -53.298,18.892 z" inkscape:connector-curvature="0" style="clip-rule:evenodd;fill:#083363;fill-rule:evenodd;stroke:#ffffff;stroke-width:1.04999995;stroke-linejoin:bevel"/>
</g><path id="path75" d="M 12.186,31.582 C 33.772,183.063 59.518,333.472 178.452,460.137 246.239,406.837 332.187,249.286 339.676,31.582 245.847,2.459 136.849,2.165 12.186,31.582 Z" inkscape:connector-curvature="0" style="clip-rule:evenodd;fill:none;fill-rule:evenodd;stroke:#9ea85e;stroke-width:1.32000005;stroke-linejoin:bevel"/><g id="g87">
	<g id="g85">
		<path id="path77" d="m 144.042,318.64 c 1.96,0 4.504,0.293 7.635,0.93 0.491,0.098 1.225,0.246 2.251,0.393 0.148,0.049 0.246,0.145 0.246,0.294 v 8.565 c 0,0.195 -0.098,0.294 -0.246,0.294 h -2.251 c -0.145,0 -0.243,-0.099 -0.243,-0.246 l -1.126,-6.363 c 0,-0.097 -0.098,-0.194 -0.243,-0.243 -3.281,-0.735 -5.385,-1.078 -6.412,-1.078 -4.945,0 -8.859,1.42 -11.698,4.307 -2.887,2.891 -4.307,6.805 -4.307,11.798 0,4.992 1.37,9.296 4.159,12.823 2.987,3.817 6.901,5.728 11.796,5.728 1.371,0 3.278,-0.246 5.678,-0.735 v -11.455 c 0,-0.196 -0.098,-0.243 -0.294,-0.243 l -4.846,-0.439 c -0.195,0 -0.245,-0.149 -0.245,-0.393 v -1.371 c 0,-0.196 0.098,-0.293 0.294,-0.293 h 14.487 c 0.196,0 0.341,0.097 0.341,0.293 v 1.371 c 0,0.243 -0.098,0.393 -0.293,0.393 l -4.257,0.439 c -0.148,0 -0.246,0.047 -0.294,0.146 v 13.216 c 0,0.097 -0.098,0.196 -0.246,0.293 -3.962,0.882 -7.633,1.321 -11.06,1.321 -5.972,0 -10.868,-1.761 -14.733,-5.385 -3.962,-3.718 -5.971,-8.467 -5.971,-14.388 0,-3.965 1.028,-7.491 2.985,-10.573 1.957,-3.132 4.749,-5.531 8.369,-7.146 3.232,-1.519 6.757,-2.253 10.524,-2.253 z" inkscape:connector-curvature="0" style="clip-rule:evenodd;fill:#ffffff;fill-rule:evenodd"/>
		<path id="path79" d="m 165.823,319.471 c 0.196,0 0.294,0.099 0.294,0.294 v 1.471 c 0,0.193 -0.098,0.292 -0.294,0.292 l -4.405,0.44 c -0.148,0 -0.196,0.049 -0.246,0.099 -0.047,0.099 -0.047,0.196 0,0.294 l 10.475,28.045 10.816,-28.143 c 0.098,-0.246 0,-0.393 -0.245,-0.393 l -4.258,-0.343 c -0.196,-0.048 -0.293,-0.146 -0.293,-0.292 v -1.471 c 0,-0.195 0.097,-0.294 0.293,-0.294 h 12.287 c 0.195,0 0.292,0.099 0.292,0.294 v 1.471 c 0,0.193 -0.097,0.292 -0.292,0.292 l -4.651,0.44 c -0.098,0.049 -0.146,0.099 -0.196,0.197 l -14.146,36.068 c 0,0.1 -0.098,0.149 -0.243,0.149 h -1.468 c -0.098,0 -0.148,-0.05 -0.196,-0.149 l -13.361,-36.021 c -0.05,-0.146 -0.098,-0.196 -0.246,-0.196 l -4.503,-0.489 c -0.196,0 -0.243,-0.099 -0.243,-0.292 v -1.471 c 0,-0.195 0.098,-0.294 0.293,-0.294 h 14.536 z" inkscape:connector-curvature="0" style="clip-rule:evenodd;fill:#ffffff;fill-rule:evenodd"/>
		<path id="path81" d="m 209.923,319.471 c 0.193,0 0.292,0.099 0.292,0.294 v 8.859 c 0,0.197 -0.099,0.342 -0.292,0.342 h -2.105 c -0.195,0 -0.293,-0.097 -0.293,-0.243 l -1.078,-6.411 c 0,-0.146 -0.096,-0.245 -0.342,-0.245 h -12.382 c -0.196,0 -0.246,0.099 -0.246,0.294 v 14.876 c 0,0.149 0.05,0.196 0.246,0.196 h 7.487 c 0.196,0 0.246,-0.047 0.246,-0.196 l 0.586,-4.6 c 0,-0.146 0.099,-0.243 0.294,-0.243 h 1.518 c 0.195,0 0.293,0.098 0.293,0.295 v 12.039 c 0,0.196 -0.098,0.293 -0.293,0.293 h -1.518 c -0.195,0 -0.294,-0.097 -0.294,-0.243 l -0.586,-4.652 c 0,-0.146 -0.05,-0.193 -0.246,-0.193 h -7.487 c -0.196,0 -0.246,0.047 -0.246,0.193 v 14.733 c 0,0.149 0.05,0.246 0.246,0.246 l 4.844,0.439 c 0.148,0 0.246,0.1 0.246,0.296 v 1.465 c 0,0.196 -0.098,0.293 -0.246,0.293 h -15.173 c -0.146,0 -0.245,-0.097 -0.245,-0.293 v -1.465 c 0,-0.196 0.098,-0.296 0.245,-0.296 l 4.846,-0.439 c 0.196,0 0.245,-0.097 0.245,-0.246 v -32.693 c 0,-0.148 -0.048,-0.197 -0.146,-0.197 h -0.098 l -4.846,-0.44 c -0.146,0 -0.245,-0.099 -0.245,-0.292 v -1.471 c 0,-0.195 0.048,-0.294 0.196,-0.294 h 26.577 z" inkscape:connector-curvature="0" style="clip-rule:evenodd;fill:#ffffff;fill-rule:evenodd"/>
		<path id="path83" d="m 232.046,318.64 c 0.635,0 1.418,0.051 2.299,0.148 0.883,0.049 1.762,0.193 2.643,0.342 0.883,0.098 1.762,0.294 2.594,0.439 0.881,0.148 1.615,0.294 2.254,0.393 0.193,0.049 0.291,0.145 0.291,0.294 v 8.565 c 0,0.195 -0.098,0.294 -0.291,0.294 h -2.203 c -0.098,0 -0.149,0 -0.244,-0.052 -0.051,-0.047 -0.051,-0.098 -0.051,-0.194 l -1.126,-6.363 c 0,-0.097 -0.097,-0.194 -0.243,-0.243 -0.344,-0.098 -0.735,-0.196 -1.274,-0.295 -0.489,-0.147 -1.026,-0.293 -1.564,-0.391 -0.589,-0.148 -1.126,-0.246 -1.714,-0.295 -0.588,-0.098 -1.125,-0.098 -1.664,-0.098 -2.545,0 -4.796,0.393 -6.756,1.127 -1.957,0.783 -3.619,1.908 -4.942,3.328 -1.371,1.419 -2.399,3.131 -3.082,5.09 -0.686,2.006 -1.028,4.158 -1.028,6.56 0,2.493 0.343,4.843 1.075,7.046 0.733,2.25 1.812,4.21 3.182,5.924 1.371,1.664 2.987,3.035 4.944,4.014 1.91,0.976 4.063,1.468 6.361,1.468 0.442,0 0.93,-0.05 1.518,-0.05 0.589,-0.047 1.176,-0.097 1.762,-0.193 0.588,-0.05 1.125,-0.149 1.715,-0.249 0.587,-0.144 1.076,-0.29 1.469,-0.536 0.146,-0.1 0.243,-0.196 0.243,-0.293 l 1.126,-6.36 c 0,-0.053 0,-0.1 0.051,-0.149 0.095,-0.05 0.146,-0.1 0.244,-0.1 h 2.203 c 0.193,0 0.291,0.1 0.291,0.296 v 8.517 c 0,0.146 -0.098,0.193 -0.291,0.29 -0.639,0.149 -1.321,0.346 -2.106,0.492 -0.732,0.193 -1.564,0.343 -2.446,0.489 -0.93,0.144 -1.86,0.243 -2.887,0.34 -1.078,0.1 -2.203,0.149 -3.479,0.149 -2.055,0 -3.962,-0.196 -5.773,-0.636 -1.859,-0.489 -3.525,-1.125 -5.043,-1.96 -1.514,-0.879 -2.887,-1.907 -4.061,-3.082 -1.223,-1.225 -2.203,-2.496 -3.035,-3.967 -0.783,-1.465 -1.419,-3.029 -1.858,-4.746 -0.491,-1.711 -0.686,-3.521 -0.686,-5.382 0,-2.106 0.243,-4.063 0.784,-5.875 0.537,-1.81 1.271,-3.475 2.251,-4.943 0.929,-1.518 2.103,-2.838 3.425,-3.963 1.321,-1.127 2.74,-2.056 4.356,-2.841 1.564,-0.784 3.278,-1.368 5.138,-1.761 1.809,-0.391 3.667,-0.588 5.628,-0.588 z" inkscape:connector-curvature="0" style="clip-rule:evenodd;fill:#ffffff;fill-rule:evenodd"/>
	</g>
</g><g id="g107">
	<g id="g105">
		<path id="path89" d="m 149.426,373.017 c 0,0.05 0,0.097 0.051,0.097 h 0.439 c 0.832,0 1.419,-0.144 1.811,-0.393 0.539,-0.29 0.832,-0.832 0.832,-1.512 0,-0.542 -0.196,-0.981 -0.587,-1.274 -0.341,-0.296 -0.832,-0.442 -1.37,-0.442 h -0.538 -0.587 c -0.051,0 -0.051,0 -0.051,0.05 z m 0,4.892 c 0,0.05 0,0.1 0.051,0.1 h 0.929 c 1.762,0 2.644,-0.686 2.644,-2.007 0,-1.567 -0.98,-2.35 -2.937,-2.35 h -0.636 c -0.051,0 -0.051,0.05 -0.051,0.1 z m 0.783,-9.099 c 1.225,0 2.106,0.146 2.594,0.39 0.344,0.196 0.587,0.439 0.784,0.686 0.196,0.343 0.293,0.732 0.293,1.175 0,1.025 -0.587,1.761 -1.761,2.203 0.636,0.146 1.223,0.439 1.664,0.879 0.489,0.492 0.732,1.078 0.732,1.764 0,0.539 -0.145,1.028 -0.439,1.468 -0.587,0.882 -1.761,1.321 -3.524,1.321 h -3.719 c -0.05,0 -0.098,-0.047 -0.098,-0.097 v -0.393 c 0,-0.047 0.048,-0.047 0.098,-0.047 l 1.225,-0.149 c 0.047,0 0.097,0 0.097,-0.05 v -8.467 c 0,-0.047 -0.05,-0.047 -0.097,-0.047 l -1.225,-0.149 c -0.05,0 -0.098,0 -0.098,-0.05 v -0.387 c 0,-0.05 0.048,-0.05 0.098,-0.05 z" inkscape:connector-curvature="0" style="clip-rule:evenodd;fill:#ffffff;fill-rule:evenodd"/>
		<path id="path91" d="m 159.363,370.764 c 0,0 0,-0.047 -0.05,-0.047 l -0.048,0.047 -1.371,3.527 c -0.048,0.047 0,0.097 0.05,0.097 h 2.643 c 0.098,0 0.098,-0.05 0.098,-0.097 z m 1.42,7.93 c -0.05,0 -0.05,-0.047 -0.05,-0.097 v -0.393 c 0,-0.047 0,-0.047 0.05,-0.047 l 1.173,-0.149 h 0.051 c 0,-0.05 0,-0.05 0,-0.1 l -1.078,-2.886 c -0.048,0 -0.048,0 -0.048,0 h -3.231 -0.05 l -1.173,2.936 c 0,0.05 0,0.1 0.098,0.1 l 1.075,0.1 c 0.05,0 0.098,0 0.098,0.047 v 0.393 c 0,0.05 -0.048,0.097 -0.098,0.097 h -3.13 c -0.05,0 -0.098,-0.047 -0.098,-0.097 v -0.393 c 0,-0.047 0.048,-0.047 0.098,-0.047 l 1.173,-0.149 c 0.05,0 0.05,0 0.05,0 l 3.769,-9.398 c 0,-0.047 0,-0.047 0.048,-0.047 h 0.344 c 0.047,0 0.047,0 0.047,0.047 l 3.475,9.349 c 0,0.05 0,0.05 0.051,0.05 l 1.173,0.149 c 0.05,0 0.05,0 0.05,0.047 v 0.393 c 0,0.05 0,0.097 -0.098,0.097 h -3.769 z" inkscape:connector-curvature="0" style="clip-rule:evenodd;fill:#ffffff;fill-rule:evenodd"/>
		<path id="path93" d="m 167.389,373.409 c 0,0.05 0,0.05 0.05,0.05 0.686,0 1.173,0 1.419,-0.05 0.734,-0.05 1.223,-0.296 1.518,-0.782 0.196,-0.293 0.294,-0.639 0.294,-1.031 0,-1.415 -0.882,-2.104 -2.694,-2.104 h -0.538 c -0.05,0 -0.05,0 -0.05,0.05 v 3.867 z m 0.834,-4.599 c 1.321,0 2.298,0.193 2.887,0.586 0.636,0.489 0.98,1.175 0.98,2.007 0,0.932 -0.442,1.664 -1.373,2.153 -0.293,0.146 -0.587,0.243 -0.929,0.343 0.489,0.243 0.979,0.785 1.419,1.661 l 1.271,2.399 c 0,0.05 0.05,0.05 0.098,0.05 l 1.077,0.149 c 0.048,0 0.048,0 0.048,0.047 v 0.393 c 0,0.05 0,0.097 -0.048,0.097 h -2.301 c -0.047,0 -0.098,-0.047 -0.098,-0.097 l -1.271,-2.643 c -0.587,-1.271 -1.371,-1.91 -2.348,-1.91 h -0.196 c -0.05,0 -0.05,0.05 -0.05,0.097 v 3.817 c 0,0.05 0,0.05 0.05,0.05 l 1.419,0.149 c 0.048,0 0.048,0 0.048,0.047 v 0.393 c 0,0.05 0,0.097 -0.048,0.097 h -4.11 c -0.05,0 -0.05,-0.047 -0.05,-0.097 v -0.393 c 0,-0.047 0,-0.047 0.05,-0.047 l 1.271,-0.149 c 0.047,0 0.047,0 0.047,-0.05 v -8.467 c 0,-0.047 0,-0.047 -0.047,-0.047 l -1.271,-0.149 c -0.05,0 -0.05,0 -0.05,-0.05 v -0.387 c 0,-0.05 0,-0.05 0.05,-0.05 h 3.475 z" inkscape:connector-curvature="0" style="clip-rule:evenodd;fill:#ffffff;fill-rule:evenodd"/>
		<path id="path95" d="m 179.235,368.563 c 0.145,0 0.341,0.047 0.584,0.047 0.248,0 0.442,0.05 0.687,0.1 0.243,0.05 0.439,0.05 0.686,0.1 0.196,0.05 0.393,0.097 0.538,0.097 0.098,0.05 0.098,0.05 0.098,0.097 v 2.206 c 0,0.047 0,0.097 -0.098,0.097 h -0.538 c -0.05,0 -0.05,0 -0.05,-0.05 -0.048,0 -0.048,0 -0.048,0 l -0.294,-1.664 c 0,-0.05 0,-0.05 -0.05,-0.1 -0.095,0 -0.193,0 -0.341,-0.047 -0.098,-0.05 -0.245,-0.1 -0.393,-0.1 -0.145,-0.05 -0.293,-0.05 -0.439,-0.1 -0.145,0 -0.294,0 -0.439,0 -0.639,0 -1.223,0.1 -1.714,0.296 -0.538,0.193 -0.98,0.489 -1.321,0.829 -0.341,0.393 -0.587,0.838 -0.784,1.324 -0.196,0.539 -0.294,1.075 -0.294,1.714 0,0.636 0.098,1.274 0.294,1.811 0.196,0.589 0.489,1.125 0.832,1.564 0.344,0.442 0.784,0.785 1.273,1.028 0.491,0.246 1.075,0.393 1.664,0.393 0.098,0 0.246,0 0.391,-0.047 0.146,0 0.294,0 0.439,-0.05 0.149,0 0.294,0 0.442,-0.05 0.146,-0.05 0.294,-0.05 0.39,-0.149 0.05,0 0.05,-0.047 0.05,-0.047 l 0.294,-1.664 c 0,0 0,-0.05 0.048,-0.05 0,0 0,0 0.05,0 h 0.538 c 0.098,0 0.098,0 0.098,0.05 v 2.2 c 0,0.053 0,0.1 -0.098,0.1 -0.145,0.05 -0.294,0.1 -0.489,0.149 -0.196,0 -0.441,0.047 -0.684,0.097 -0.196,0.05 -0.442,0.097 -0.737,0.097 -0.243,0.05 -0.538,0.05 -0.879,0.05 -0.541,0 -1.027,-0.05 -1.518,-0.196 -0.489,-0.097 -0.882,-0.296 -1.273,-0.489 -0.441,-0.246 -0.782,-0.492 -1.077,-0.782 -0.293,-0.343 -0.587,-0.686 -0.784,-1.028 -0.195,-0.393 -0.391,-0.782 -0.489,-1.274 -0.098,-0.437 -0.196,-0.882 -0.196,-1.368 0,-0.539 0.098,-1.031 0.246,-1.518 0.098,-0.489 0.294,-0.882 0.538,-1.274 0.294,-0.39 0.589,-0.732 0.93,-1.025 0.344,-0.296 0.686,-0.539 1.125,-0.735 0.393,-0.196 0.832,-0.39 1.321,-0.489 0.491,-0.103 0.981,-0.15 1.471,-0.15 z" inkscape:connector-curvature="0" style="clip-rule:evenodd;fill:#ffffff;fill-rule:evenodd"/>
		<path id="path97" d="m 189.561,368.81 c 0.048,0 0.048,0 0.048,0.05 v 2.297 c 0,0.053 0,0.1 -0.048,0.1 h -0.587 c -0.048,0 -0.048,-0.047 -0.048,-0.047 l -0.293,-1.667 c 0,-0.05 -0.05,-0.05 -0.05,-0.05 h -3.378 c -0.047,0 -0.098,0 -0.098,0.05 v 3.624 c 0,0.047 0.051,0.097 0.098,0.097 h 2.008 c 0.047,0 0.098,-0.05 0.098,-0.097 l 0.145,-1.178 c 0,-0.047 0,-0.047 0.05,-0.047 h 0.393 c 0.048,0 0.098,0 0.098,0.047 v 3.231 c 0,0.05 -0.05,0.05 -0.098,0.05 h -0.393 c -0.05,0 -0.05,0 -0.05,-0.05 l -0.145,-1.274 c 0,-0.047 -0.051,-0.047 -0.098,-0.047 h -2.008 c -0.047,0 -0.098,0 -0.098,0.047 v 3.964 c 0,0.05 0.051,0.1 0.098,0.1 h 3.573 c 0.051,0 0.051,-0.05 0.051,-0.05 l 0.293,-1.661 c 0,-0.05 0.048,-0.05 0.098,-0.05 h 0.538 c 0.048,0 0.048,0.05 0.048,0.097 v 2.253 c 0,0.05 0,0.097 -0.048,0.097 h -7.244 c -0.05,0 -0.05,-0.047 -0.05,-0.097 v -0.393 c 0,-0.047 0,-0.047 0.05,-0.047 l 1.271,-0.149 c 0.05,0 0.05,0 0.05,-0.05 v -8.467 c 0,-0.047 -0.05,-0.047 -0.05,-0.047 l -1.271,-0.149 c -0.05,0 -0.05,0 -0.05,-0.05 v -0.387 c 0,-0.05 0,-0.05 0.05,-0.05 z" inkscape:connector-curvature="0" style="clip-rule:evenodd;fill:#ffffff;fill-rule:evenodd"/>
		<path id="path99" d="m 190.393,368.859 c 0,-0.05 0,-0.05 0.05,-0.05 h 3.962 c 0.051,0 0.098,0 0.098,0.05 v 0.387 c 0,0.05 -0.047,0.05 -0.098,0.05 l -1.27,0.149 c -0.051,0 -0.098,0 -0.098,0.047 v 8.417 c 0,0.05 0.047,0.1 0.098,0.1 h 3.376 c 0.05,0 0.098,-0.05 0.098,-0.05 l 0.293,-1.661 c 0,-0.05 0,-0.05 0.048,-0.05 h 0.541 c 0.047,0 0.098,0.05 0.098,0.097 v 2.253 c 0,0.05 -0.051,0.097 -0.098,0.097 h -7.049 c -0.05,0 -0.05,-0.047 -0.05,-0.097 v -0.393 c 0,-0.047 0,-0.047 0.05,-0.047 l 1.225,-0.149 c 0.047,0 0.095,0 0.095,-0.05 v -8.467 c 0,-0.047 -0.048,-0.047 -0.095,-0.047 l -1.225,-0.149 c -0.05,0 -0.05,0 -0.05,-0.05 v -0.387 z" inkscape:connector-curvature="0" style="clip-rule:evenodd;fill:#ffffff;fill-rule:evenodd"/>
		<path id="path101" d="m 202.874,368.563 c 1.47,0 2.692,0.489 3.573,1.468 0.881,0.979 1.371,2.203 1.371,3.671 0,1.468 -0.49,2.692 -1.371,3.671 -0.931,1.025 -2.104,1.518 -3.573,1.518 -1.468,0 -2.691,-0.492 -3.621,-1.468 -0.98,-0.979 -1.419,-2.203 -1.419,-3.671 0,-1.468 0.439,-2.742 1.37,-3.671 0.979,-1.028 2.202,-1.518 3.67,-1.518 z m -0.194,0.683 c -1.078,0 -1.96,0.445 -2.596,1.274 -0.538,0.785 -0.832,1.764 -0.832,2.889 0,0.829 0.146,1.567 0.393,2.25 0.341,0.785 0.781,1.421 1.368,1.863 0.589,0.486 1.274,0.683 2.057,0.683 1.076,0 1.959,-0.439 2.545,-1.321 0.49,-0.782 0.783,-1.714 0.783,-2.889 0,-1.321 -0.342,-2.399 -0.98,-3.328 -0.682,-0.932 -1.613,-1.421 -2.738,-1.421 z" inkscape:connector-curvature="0" style="clip-rule:evenodd;fill:#ffffff;fill-rule:evenodd"/>
		<path id="path103" d="m 213.152,371.306 c -0.048,0 -0.048,-0.05 -0.048,-0.05 l -0.294,-1.664 c 0,-0.05 -0.051,-0.05 -0.099,-0.1 -0.392,-0.146 -0.831,-0.246 -1.321,-0.246 -0.537,0 -0.98,0.1 -1.321,0.393 -0.392,0.296 -0.587,0.686 -0.587,1.178 0,0.489 0.195,0.879 0.54,1.222 0.243,0.196 0.585,0.442 1.125,0.683 l 0.978,0.445 c 0.733,0.34 1.273,0.686 1.615,1.025 0.439,0.442 0.636,1.028 0.636,1.664 0,0.979 -0.393,1.761 -1.125,2.303 -0.687,0.489 -1.518,0.732 -2.546,0.732 -0.537,0 -1.125,-0.097 -1.813,-0.243 -0.193,-0.05 -0.341,-0.1 -0.486,-0.149 -0.051,0 -0.098,-0.047 -0.098,-0.1 v -2.2 c 0,-0.05 0.047,-0.05 0.098,-0.05 h 0.585 c 0.052,0 0.052,0 0.052,0.05 l 0.293,1.664 c 0.048,0 0.048,0 0.048,0 l 0.05,0.047 c 0.342,0.199 0.832,0.296 1.42,0.296 0.586,0 1.126,-0.146 1.518,-0.439 0.439,-0.343 0.684,-0.785 0.684,-1.371 0,-0.782 -0.537,-1.418 -1.615,-1.96 l -0.931,-0.439 c -0.733,-0.293 -1.271,-0.636 -1.616,-0.979 -0.439,-0.489 -0.682,-1.028 -0.682,-1.614 0,-0.639 0.195,-1.175 0.587,-1.667 0.39,-0.439 0.832,-0.779 1.468,-0.976 0.342,-0.1 0.783,-0.196 1.174,-0.196 0.587,0 1.176,0.097 1.764,0.196 0.145,0.05 0.341,0.1 0.537,0.146 0.049,0.05 0.049,0.05 0.049,0.097 v 2.206 c 0,0.047 0,0.097 -0.049,0.097 h -0.59 z" inkscape:connector-curvature="0" style="clip-rule:evenodd;fill:#ffffff;fill-rule:evenodd"/>
	</g>
</g></g>
</svg>