<svg xmlns="http://www.w3.org/2000/svg" xmlns:xlink="http://www.w3.org/1999/xlink" version="1.1" id="Logo" x="0px" y="0px" width="600px" height="600px" viewBox="0 0 600 600" enable-background="new 0 0 600 600" xml:space="preserve">
<path d="M300.576,583.552c117.144,0,212.688-95.616,212.688-212.76S417.72,158.104,300.576,158.104S87.888,253.648,87.888,370.792  S183.432,583.552,300.576,583.552z"/>
<path fill="#D6001E" d="M300.576,576.352c113.184,0,205.56-92.376,205.56-205.56s-92.376-205.56-205.56-205.56  c-113.184,0-205.56,92.376-205.56,205.56S187.392,576.352,300.576,576.352z"/>
<path fill="#FFFFFF" d="M232.536,546.688c-0.792,1.728-1.584,3.024-2.376,3.96c-0.864,0.936-1.8,1.584-3.024,2.016  c-0.792,0.36-1.656,0.504-2.448,0.576c-0.792,0.072-1.584,0-2.376-0.216c-0.792-0.144-1.584-0.432-2.376-0.864  c-2.304-1.08-3.888-2.736-4.752-5.04c-0.432-1.368-0.576-2.664-0.288-3.96c0.288-1.296,0.864-2.88,1.728-4.68l0.36-0.648l0.288-0.72  c0.864-1.8,1.656-3.24,2.448-4.32c0.864-1.08,1.872-1.872,3.24-2.304c1.224-0.432,2.304-0.648,3.456-0.576  c1.08,0,2.232,0.36,3.528,0.936c2.448,1.152,4.104,2.736,4.824,4.68c0.72,1.944,0.72,4.032,0.144,6.12l-5.256-2.448  c0.216-0.936,0.144-1.656-0.144-2.304c-0.288-0.576-0.864-1.08-1.728-1.44c-0.936-0.432-1.728-0.432-2.52-0.072  c-0.288,0.144-0.504,0.36-0.792,0.648c-0.288,0.216-0.576,0.72-0.936,1.368c-0.36,0.648-0.864,1.584-1.44,2.808  c-0.576,1.224-1.008,2.232-1.224,2.88c-0.288,0.72-0.432,1.224-0.432,1.656c-0.072,0.36-0.072,0.72,0,1.008  c0.216,0.792,0.72,1.44,1.656,1.872c1.008,0.432,1.872,0.504,2.664,0.216s1.44-0.936,1.872-1.872l0.144-0.288l-3.096-1.44  l1.944-4.32l8.28,3.816L232.536,546.688z"/>
<polygon fill="#FFFFFF" points="240.168,559.72 234.768,557.848 242.328,535.888 247.728,537.76 "/>
<path fill="#FFFFFF" d="M265.152,566.344l-6.336-1.656l-1.944-9.36L255,554.896l-2.088,8.352l-5.544-1.368l5.616-22.464l8.928,2.16  c1.584,0.432,2.88,1.08,3.888,2.088c1.008,0.936,1.656,2.088,1.944,3.312c0.36,1.224,0.36,2.52,0.072,3.816  c-0.36,1.368-1.008,2.52-2.016,3.312c-0.936,0.864-2.016,1.368-3.168,1.656L265.152,566.344L265.152,566.344z M262.272,549.352  c0.072-0.36,0.072-0.792,0-1.152c-0.144-0.36-0.36-0.72-0.648-1.08c-0.288-0.288-0.72-0.504-1.224-0.576l-3.096-0.792l-1.152,4.536  l3.168,0.792c0.432,0.072,0.936,0.072,1.368,0c0.36-0.144,0.72-0.36,1.008-0.648C261.984,550.144,262.2,549.784,262.272,549.352z"/>
<path fill="#FFFFFF" d="M289.2,557.704l-0.144,0.792c-0.144,1.296-0.36,2.376-0.576,3.312c-0.216,0.864-0.576,1.728-1.008,2.592  c-0.504,0.792-1.08,1.512-1.872,2.088c-1.008,0.72-2.016,1.224-3.096,1.512s-2.304,0.36-3.672,0.144  c-0.936-0.144-1.8-0.36-2.52-0.648s-1.368-0.648-1.944-1.152c-0.576-0.432-1.152-1.008-1.584-1.656  c-0.864-1.152-1.368-2.376-1.44-3.744c-0.144-1.296,0-2.952,0.216-4.896l0.144-0.792l0.072-0.792  c0.288-1.944,0.648-3.528,1.152-4.824c0.432-1.224,1.224-2.304,2.376-3.168c1.008-0.72,2.016-1.224,3.096-1.512  s2.304-0.36,3.672-0.144c1.368,0.216,2.592,0.576,3.528,1.152c0.936,0.576,1.8,1.368,2.52,2.304  c0.648,0.792,1.008,1.656,1.224,2.592c0.216,0.864,0.288,1.8,0.288,2.736c-0.072,0.936-0.144,2.088-0.36,3.312L289.2,557.704  L289.2,557.704z M283.512,556.912c0.288-1.944,0.432-3.312,0.432-4.032c-0.072-0.72-0.216-1.296-0.432-1.728  c-0.216-0.288-0.432-0.576-0.864-0.864c-0.36-0.216-0.792-0.36-1.296-0.432c-0.504-0.072-0.936-0.072-1.368,0.072  c-0.36,0.144-0.72,0.36-1.008,0.576c-0.216,0.216-0.432,0.504-0.576,0.864c-0.216,0.36-0.36,0.864-0.504,1.584  c-0.216,0.72-0.36,1.728-0.576,3.096c-0.144,1.368-0.288,2.376-0.36,3.096c0,0.792,0,1.296,0.072,1.656  c0.072,0.36,0.216,0.72,0.36,1.008c0.432,0.72,1.152,1.224,2.088,1.296c1.008,0.144,1.8-0.072,2.448-0.72  c0.36-0.36,0.648-0.864,0.864-1.512S283.296,558.856,283.512,556.912z"/>
<polygon fill="#FFFFFF" points="312.528,568.72 307.56,568.936 299.784,557.56 300.216,569.152 294.528,569.368 293.736,546.184   298.704,546.04 306.48,557.416 306.048,545.752 311.736,545.536 "/>
<path fill="#FFFFFF" d="M338.808,565.84l-5.904,0.864l-1.584-3.312l-7.056,1.008l-0.648,3.6l-5.904,0.792l5.112-24.12l4.392-0.648  L338.808,565.84L338.808,565.84z M329.232,558.928l-2.808-5.904l-1.224,6.408L329.232,558.928z"/>
<polygon fill="#FFFFFF" points="362.568,539.92 353.064,543.232 354.36,547.048 362.568,544.24 364.224,549.064 356.016,551.872   358.968,560.296 353.568,562.168 346.008,540.28 360.984,535.096 "/>
<path fill="#FFFFFF" d="M386.904,541c0.36,1.224,0.432,2.376,0.432,3.456c-0.072,1.08-0.36,2.088-0.792,2.952  c-0.432,0.936-1.008,1.728-1.8,2.448c-0.72,0.648-1.656,1.224-2.592,1.728c-2.376,1.08-4.68,1.152-6.984,0.36  c-1.368-0.504-2.376-1.296-3.24-2.376c-0.792-1.008-1.584-2.448-2.448-4.248l-0.288-0.72l-0.36-0.72  c-0.864-1.8-1.44-3.312-1.728-4.608s-0.144-2.664,0.288-4.032c0.432-1.152,1.008-2.088,1.8-2.952  c0.792-0.792,1.728-1.512,2.952-2.088c1.08-0.504,2.088-0.792,3.096-0.936c1.008-0.144,2.016-0.072,2.952,0.216  c0.936,0.216,1.872,0.648,2.736,1.296c0.864,0.648,1.656,1.512,2.376,2.52l-5.256,2.52c-0.504-0.648-1.008-1.008-1.656-1.224  c-0.576-0.216-1.296-0.144-2.088,0.216c-0.432,0.216-0.792,0.432-1.08,0.792c-0.288,0.288-0.432,0.648-0.504,1.008  c-0.072,0.36-0.144,0.648-0.072,1.08c0,0.36,0.144,0.864,0.432,1.584c0.216,0.648,0.648,1.656,1.224,2.952  c0.792,1.656,1.44,2.808,1.872,3.456c0.432,0.648,0.936,1.08,1.368,1.296c0.72,0.432,1.584,0.36,2.448,0  c0.792-0.36,1.296-0.864,1.512-1.44c0.216-0.648,0.288-1.296,0.144-2.088L386.904,541z"/>
<path d="M375.888,128.44l48.528-64.872c2.304-3.096,5.04-6.12,5.616-10.152c0.936-5.904-3.816-7.488-8.424-6.192  c-6.264,1.8-9.144,4.608-16.416,4.824c-4.104,0.144-6.624,0.936-9.216,4.248c-2.088,2.736-4.896,6.624-5.904,9.936  c-1.08,3.384,0.072,6.408,2.592,8.712c-0.216,4.032-3.6,14.256-9.288,11.808c-7.056-2.952-14.112-5.616-21.384-7.992  c-3.024-0.936-2.952-2.376-2.448-5.544c0.288-1.872,1.008-3.96,1.872-6.048c5.904,2.448,7.776,2.088,11.088-3.744l3.384-5.904  c2.016-3.888,2.232-6.84-2.088-9.072c-1.44-0.864-1.728-1.008-1.368-1.872c1.224-2.808,2.88-5.472,3.96-8.352  c1.224-3.24,1.224-6.192-3.888-8.28c-2.664-1.008-5.184-2.376-7.92-3.24c-5.4-1.584-7.344,0.72-8.856,5.544  c-0.36,1.008-0.792,2.376-1.296,3.672c-1.368,3.096-0.792,4.824-3.384,4.104c-5.472-1.08-6.408,2.232-7.488,6.264l-1.584,6.048  c-1.8,6.336,0.072,8.568,6.12,9.792c-1.08,4.968-2.808,12.024-9.504,10.8c-7.632-1.512-15.408-2.448-23.112-3.024  c-6.768-1.512-7.704-8.424-7.776-14.256c6.624,0.432,8.136-1.8,8.784-7.704l0.576-6.336c0.432-4.32,1.44-8.856-4.824-9.792  c-1.08-0.144-1.728,0.144-1.728-0.936c-0.072-2.232,0.144-4.536,0.216-6.768V24.04c0-5.4,0.072-7.056-6.192-7.272  c-1.296-0.072-2.664-0.144-3.96-0.144c-1.296,0-2.664,0.072-3.96,0.144c-6.264,0.216-6.192,1.872-6.192,7.272v0.072  c0.072,2.232,0.288,4.536,0.216,6.768c0,1.08-0.648,0.792-1.728,0.936c-6.264,0.936-5.256,5.472-4.824,9.792l0.576,6.336  c0.648,5.904,2.16,8.136,8.784,7.704c-0.072,5.832-1.008,12.744-7.776,14.256c-7.704,0.576-15.48,1.512-23.112,3.024  c-6.696,1.224-8.424-5.832-9.576-10.8c6.12-1.224,7.992-3.456,6.192-9.792l-1.584-6.048c-1.08-4.032-2.016-7.344-7.488-6.264  c-2.592,0.72-2.016-1.008-3.384-4.104c-0.504-1.296-0.936-2.664-1.296-3.672c-1.512-4.824-3.456-7.128-8.856-5.544  c-2.736,0.864-5.256,2.232-7.92,3.24c-5.112,2.088-5.112,5.04-3.888,8.28c1.08,2.88,2.736,5.544,3.96,8.352  c0.36,0.864,0.072,1.008-1.368,1.872c-4.32,2.232-4.104,5.184-2.088,9.072l3.384,5.904c3.312,5.832,5.184,6.192,11.088,3.744  c0.864,2.088,1.584,4.176,1.872,6.048c0.504,3.168,0.576,4.608-2.448,5.544c-7.272,2.376-14.328,5.04-21.384,7.992  c-5.688,2.448-9.072-7.776-9.288-11.808c2.52-2.304,3.672-5.328,2.592-8.712c-1.008-3.312-3.816-7.2-5.904-9.936  c-2.592-3.312-5.112-4.104-9.216-4.248c-7.272-0.216-10.152-3.024-16.416-4.824c-4.608-1.296-9.36,0.288-8.424,6.192  c0.576,4.032,3.312,7.056,5.616,10.152l48.528,64.872C267.384,154.216,333.84,154.144,375.888,128.44z"/>
<path fill="#FED600" d="M421.896,57.88C422.184,57.448,422.76,56.728,421.896,57.88L421.896,57.88z"/>
<path fill="#FED600" d="M421.896,57.88C421.536,58.312,421.68,58.168,421.896,57.88L421.896,57.88z"/>
<path fill="#FED600" d="M179.256,57.88C178.968,57.448,178.392,56.728,179.256,57.88L179.256,57.88z"/>
<path fill="#FED600" d="M179.256,57.88C179.616,58.312,179.472,58.168,179.256,57.88L179.256,57.88z"/>
<path fill="#FED600" d="M300.576,22.096c5.256,0,4.896-0.288,4.608,4.32c-0.072,1.512-0.144,3.096-0.072,4.68  c0.072,2.664,1.512,5.112,4.176,5.76c1.944,0.504,2.88-0.576,2.592,2.16l0,0l-0.072,0.864l-0.72,7.128  c-0.216,2.736-0.648,3.384-4.176,3.096c-1.512-0.072-3.096-0.144-4.608-0.216l-0.072,2.808c-0.216,9.144,1.728,21.888,13.464,22.68  c7.488,0.576,14.976,1.512,22.32,2.952c10.872,2.088,14.328-9.288,15.912-17.712l0.504-2.376c-1.44-0.432-3.6-0.792-5.256-1.44  c-1.44-0.648-2.448-1.512-1.944-3.312l1.8-6.552l0,0c0.576-2.232,0.36-1.728,2.304-1.296c2.88,0.576,4.968,0.72,6.624-3.528  c0.432-1.152,1.008-2.808,1.584-4.392c0.432-1.224,0.864-2.448,1.224-3.456c0.792-2.376,0.504-3.024,3.312-2.016  c2.16,0.864,4.248,1.872,6.48,2.736c1.296,0.576,0.288,2.088-0.072,2.952c-0.288,0.792-0.72,1.728-1.224,2.664  c-0.936,2.088-1.944,4.32-2.376,5.688c-1.368,4.536,0.504,5.328,3.312,6.48c1.872,0.72,1.8,0.36,0.936,2.16l-3.384,5.976  c-1.296,2.304-2.952,1.944-4.68,1.152c-1.44-0.648-2.88-1.296-4.392-1.872l-1.08,2.304c-1.584,3.312-2.88,6.624-3.384,9.864  c-0.936,5.832,0.072,9.72,5.4,11.304c8.208,2.448,16.2,5.76,23.976,9.144l1.296,0.216c7.848-0.72,12.024-9.864,13.032-16.776  c0.648-4.32-3.528-5.4-2.664-8.424c0.72-2.52,2.952-5.256,4.464-7.416c1.728-2.376,2.52-2.808,5.616-2.88  c7.776-0.288,11.16-3.168,17.712-5.04c4.32-1.296,0.288,3.384-0.936,5.04c-0.072,0.144-0.144,0.288-0.216,0.36l0,0l-49.32,65.88  c-21.888-10.44-46.296-16.271-72-16.271c-25.704,0-50.112,5.832-72,16.271l-49.32-65.88l0,0c-0.072-0.072-0.144-0.216-0.216-0.36  c-1.224-1.656-5.256-6.336-0.936-5.04c6.552,1.872,9.936,4.752,17.712,5.04c3.096,0.072,3.888,0.504,5.616,2.88  c1.512,2.16,3.744,4.896,4.464,7.416c0.864,3.024-3.312,4.104-2.664,8.424c1.008,6.912,5.184,16.056,13.032,16.776l1.296-0.216  c7.776-3.384,15.768-6.696,23.976-9.144c5.328-1.584,6.336-5.472,5.4-11.304c-0.504-3.24-1.8-6.552-3.384-9.864l-1.08-2.304  c-1.512,0.576-2.952,1.224-4.392,1.872c-1.728,0.792-3.384,1.152-4.68-1.152l-3.384-5.976c-0.864-1.8-0.936-1.44,0.936-2.16  c2.808-1.152,4.68-1.944,3.312-6.48c-0.432-1.368-1.44-3.6-2.376-5.688c-0.504-0.936-0.936-1.872-1.224-2.664  c-0.36-0.864-1.368-2.376-0.072-2.952c2.232-0.864,4.32-1.872,6.48-2.736c2.808-1.008,2.52-0.36,3.312,2.016  c0.36,1.008,0.792,2.232,1.224,3.456c0.576,1.584,1.152,3.24,1.584,4.392c1.656,4.248,3.744,4.104,6.624,3.528  c1.944-0.432,1.728-0.936,2.304,1.296l0,0l1.8,6.552c0.504,1.8-0.504,2.664-1.944,3.312c-1.656,0.648-3.816,1.008-5.256,1.44  l0.504,2.376c1.584,8.424,5.04,19.8,15.912,17.712c7.344-1.44,14.832-2.376,22.32-2.952c11.736-0.792,13.68-13.536,13.464-22.68  l-0.072-2.808c-1.512,0.072-3.096,0.144-4.608,0.216c-3.528,0.288-3.96-0.36-4.176-3.096l-0.72-7.128l-0.072-0.864l0,0  c-0.288-2.736,0.648-1.656,2.52-2.16c2.736-0.648,4.176-3.096,4.248-5.76c0.072-1.584,0-3.168-0.072-4.68  C295.68,21.808,295.32,22.096,300.576,22.096z"/>
<path fill="#FFFFFF" d="M300.576,538.624c92.448,0,167.832-75.384,167.832-167.832c0-92.448-75.384-167.832-167.832-167.832  c-92.448,0-167.832,75.384-167.832,167.832C132.744,463.24,208.128,538.624,300.576,538.624z"/>
<path fill="#D6001E" d="M143.904,406.432c-2.52-11.16-3.888-22.752-3.96-34.704l49.896-117.144  c8.496-8.064,17.784-15.192,27.864-21.312L143.904,406.432z"/>
<path fill="#D6001E" d="M162.048,452.008c-3.816-6.552-7.2-13.32-10.08-20.376l89.568-210.24c6.984-2.736,14.256-5.04,21.672-6.84  L162.048,452.008z"/>
<path fill="#D6001E" d="M456.672,332.848c2.664,10.8,4.176,22.032,4.536,33.552l-52.344,122.904  c-8.352,7.632-17.568,14.4-27.36,20.16L456.672,332.848z"/>
<path fill="#D6001E" d="M438.24,288.136c3.888,6.408,7.272,13.032,10.224,19.944l-90.576,212.76  c-6.984,2.664-14.184,4.896-21.6,6.624L438.24,288.136z"/>
<path fill="#D6001E" d="M413.904,257.104c4.536,4.536,8.784,9.288,12.672,14.256L316.128,530.704  c-5.112,0.504-10.296,0.792-15.552,0.792c-1.152,0-2.304-0.072-3.456-0.072L413.904,257.104z"/>
<path fill="#D6001E" d="M385.896,234.784c4.968,3.168,9.792,6.552,14.4,10.224l-121.32,284.976  c-5.904-0.792-11.664-1.944-17.352-3.312L385.896,234.784z"/>
<path fill="#D6001E" d="M354.792,219.592c5.472,1.944,10.8,4.248,15.912,6.768l-125.64,295.2c-5.472-2.016-10.728-4.32-15.84-6.912  L354.792,219.592z"/>
<path fill="#D6001E" d="M320.808,211.384c5.904,0.792,11.664,1.872,17.352,3.24L214.104,506.08  c-4.968-3.168-9.792-6.696-14.328-10.368L320.808,211.384z"/>
<path fill="#D6001E" d="M300.576,210.16c0.648,0,1.296,0,1.944,0L186.24,483.4c-4.536-4.536-8.712-9.36-12.672-14.4L283.44,211.024  C289.128,210.448,294.816,210.16,300.576,210.16z"/>
<polygon points="157.944,370.792 300.576,230.248 443.208,370.792 300.576,511.408 "/>
<path fill="#FFFFFF" d="M335.784,318.952h12.456C345.288,322.768,338.736,322.696,335.784,318.952z"/>
<path fill="#FFFFFF" d="M302.592,318.952h12.528C312.096,322.768,305.616,322.696,302.592,318.952z"/>
<path fill="#FFFFFF" d="M269.472,318.952H282C278.976,322.768,272.496,322.696,269.472,318.952z"/>
<path fill="#FFFFFF" d="M244.416,321.616v-2.664h4.392C247.728,320.32,246.144,321.256,244.416,321.616z"/>
<path fill="#FFFFFF" d="M300.144,438.04c-5.184-2.016-10.512-3.96-15.696-6.192v-0.576c0-10.224,15.696-10.224,15.696,0V438.04z"/>
<path fill="#FFFFFF" d="M330.384,425.152c-2.232,1.224-4.32,2.232-6.264,3.24c-2.088,1.08-4.32,2.088-6.552,3.096v-0.216  C317.568,423.856,325.848,421.84,330.384,425.152z"/>
<path fill="#FFFFFF" d="M345.648,415.864c-3.6,2.664-7.56,5.112-11.448,7.272v-3.24v-3.384c0-11.376-17.496-11.376-17.496,0v3.384  v11.952c-4.68,2.016-9.504,3.816-14.256,5.616c-0.864-1.224-1.44-2.736-1.44-4.68v-12.888v-3.384c0-11.376-17.424-11.376-17.424,0  v3.384v11.592c-2.232-1.008-4.464-2.016-6.552-3.096c-2.736-1.368-5.904-2.952-9.144-4.752v-3.744v-3.384  c0-9.792-12.888-11.16-16.56-4.176c-0.216-0.216-0.504-0.432-0.72-0.72c0.432-1.08,0.72-2.232,0.72-3.672v-3.312v-12.888  c0-10.224,15.624-10.224,15.624,0v12.888v3.312c0,11.448,17.496,11.448,17.496,0v-3.312v-12.888c0-10.224,15.696-10.224,15.696,0  v12.888v3.312c0,11.448,17.424,11.448,17.424,0v-3.312v-12.888c0-10.224,15.696-10.224,15.696,0v12.888v3.312  C333.264,415.288,340.464,417.88,345.648,415.864z"/>
<path fill="#FFFFFF" d="M356.736,384.256v13.248c0,6.768-2.808,11.088-7.2,15.12c0.792-1.296,1.224-2.808,1.224-4.68v-3.312v-12.888  C350.76,387.424,353.496,384.976,356.736,384.256z"/>
<path fill="#FFFFFF" d="M356.736,344.728v23.904c-3.672,0.72-6.912,3.456-6.912,8.352v3.384v12.888c0,10.152-15.624,10.152-15.624,0  v-12.888v-3.384c0-11.376-17.496-11.376-17.496,0v3.384v12.888c0,10.152-15.696,10.152-15.696,0v-12.888v-3.384  c0-11.376-17.424-11.376-17.424,0v3.384v12.888c0,10.152-15.696,10.152-15.696,0v-12.888v-3.384c0-11.376-17.496-11.376-17.496,0  v3.384v12.888c0,4.176-2.664,6.624-5.76,7.344c-0.144-0.936-0.216-2.016-0.216-3.096v-20.736c3.672-0.72,6.912-3.456,6.912-8.352  v-3.384v-12.888c0-10.152,15.624-10.152,15.624,0v12.888v3.384c0,11.376,17.496,11.376,17.496,0v-3.384v-12.888  c0-10.152,15.696-10.152,15.696,0v12.888v3.384c0,11.376,17.424,11.376,17.424,0v-3.384v-12.888c0-10.152,15.696-10.152,15.696,0  v12.888v3.384c0,11.376,17.496,11.376,17.496,0v-3.384v-12.888C350.76,347.896,353.496,345.448,356.736,344.728z"/>
<path fill="#FFFFFF" d="M356.736,318.952v10.152c-3.672,0.648-6.912,3.456-6.912,8.352v3.312v12.888  c0,10.224-15.624,10.224-15.624,0v-12.888v-3.312c0-11.448-17.496-11.448-17.496,0v3.312v12.888c0,10.224-15.696,10.224-15.696,0  v-12.888v-3.312c0-11.448-17.424-11.448-17.424,0v3.312v12.888c0,10.224-15.696,10.224-15.696,0v-12.888v-3.312  c0-11.448-17.496-11.448-17.496,0v3.312v12.888c0,4.32-2.736,6.768-5.976,7.488V337.24c3.672-0.72,6.912-3.528,6.912-8.352v-3.384  v-6.552h15.624v6.552v3.384c0,11.376,17.496,11.376,17.496,0v-3.384v-6.552h15.696v6.552v3.384c0,11.376,17.424,11.376,17.424,0  v-3.384v-6.552h15.696v6.552v3.384c0,11.376,17.496,11.376,17.496,0v-3.384v-6.552H356.736z"/>
<polygon fill="#FED600" points="409.008,344.224 435.864,370.792 409.008,397.288 "/>
<path fill="#FED600" d="M347.016,283.24l30.96,30.456v114.12l-30.96,30.528v-40.536c0.072-0.072,0.144-0.144,0.216-0.216  c7.2-5.472,11.88-10.728,11.88-20.16v-80.856h-12.096V283.24z"/>
<path fill="#FED600" d="M316.056,434.656v54.288l-15.48,15.264l-15.48-15.264v-54.288c5.184,2.088,10.368,3.96,15.48,6.12  C305.688,438.616,310.872,436.744,316.056,434.656z"/>
<polygon fill="#FED600" points="285.096,252.712 300.576,237.448 316.056,252.712 316.056,316.576 285.096,316.576 "/>
<path fill="#FED600" d="M223.176,313.696l30.96-30.456v33.336H242.04v80.856c0,9.432,4.68,14.688,11.88,20.16  c0.072,0.072,0.144,0.144,0.216,0.216v40.536l-30.96-30.528V313.696z"/>
<polygon fill="#FED600" points="165.288,370.792 192.144,344.224 192.144,397.288 "/>
<polygon fill="#D6001E" points="377.976,313.696 409.008,344.224 409.008,397.288 377.976,427.816 "/>
<path fill="#D6001E" d="M347.016,417.808v40.536l-30.96,30.6v-54.288c3.096-1.224,6.192-2.592,9.216-4.104  C331.392,427.384,340.032,423.064,347.016,417.808z"/>
<polygon fill="#D6001E" points="316.056,252.712 347.016,283.24 347.016,316.576 316.056,316.576 "/>
<path fill="#D6001E" d="M285.096,434.656v54.288l-30.96-30.6v-40.536c6.984,5.256,15.624,9.576,21.744,12.744  C278.904,432.064,282,433.432,285.096,434.656z"/>
<polygon fill="#D6001E" points="254.136,283.24 285.096,252.712 285.096,316.576 254.136,316.576 "/>
<polygon fill="#D6001E" points="192.144,344.224 223.176,313.696 223.176,427.816 192.144,397.288 "/>
</svg>