<svg xmlns:dc="http://purl.org/dc/elements/1.1/" xmlns:cc="http://creativecommons.org/ns#" xmlns:rdf="http://www.w3.org/1999/02/22-rdf-syntax-ns#" xmlns:svg="http://www.w3.org/2000/svg" xmlns="http://www.w3.org/2000/svg" xmlns:sodipodi="http://sodipodi.sourceforge.net/DTD/sodipodi-0.dtd" xmlns:inkscape="http://www.inkscape.org/namespaces/inkscape" width="79.509071mm" height="88.106247mm" viewBox="0 0 300.50673 332.99999" version="1.1" id="svg31543" inkscape:version="1.0.1 (3bc2e813f5, 2020-09-07)" sodipodi:docname="Go-ahead-eagles.svg">
  <defs id="defs31537"/>
  <sodipodi:namedview id="base" pagecolor="#ffffff" bordercolor="#666666" borderopacity="1.0" inkscape:pageopacity="0.0" inkscape:pageshadow="2" inkscape:zoom="0.35" inkscape:cx="162.39622" inkscape:cy="149.35714" inkscape:document-units="px" inkscape:current-layer="layer1" inkscape:document-rotation="0" showgrid="false" inkscape:window-width="1267" inkscape:window-height="729" inkscape:window-x="83" inkscape:window-y="0" inkscape:window-maximized="0"/>
  <metadata id="metadata31540">
    <rdf:RDF>
      <cc:Work rdf:about="">
        <dc:format>image/svg+xml</dc:format>
        <dc:type rdf:resource="http://purl.org/dc/dcmitype/StillImage"/>
        <dc:title/>
      </cc:Work>
    </rdf:RDF>
  </metadata>
  <g inkscape:label="Layer 1" inkscape:groupmode="layer" id="layer1" transform="translate(-212.60378,-370.64286)">
    <path class="st0" d="m 340.44799,378.03788 3.02524,17.81527 18.26346,-0.67227 h 1.00841 1.00841 l 18.26346,0.67227 3.02524,-17.81527 c 10.98048,0.78432 22.40915,2.12887 34.17395,4.25774 l -3.24932,18.48755 19.38391,4.03364 18.15141,3.47342 6.27457,-15.91049 c 9.52389,3.02523 19.27187,6.61069 29.1319,10.75639 -1.56865,3.24933 -4.59388,9.2998 -8.17935,17.25505 0,0 0,0.11204 -0.11204,0.11204 0,0 0,0 0,0 -0.78432,1.90478 -1.68069,3.80956 -2.57705,5.93843 0,0 0,0 0,0.11204 -0.2241,0.56023 -0.56023,1.23251 -0.78432,1.90478 0,0 0,0.11205 -0.11205,0.11205 -0.22409,0.56022 -0.44818,1.2325 -0.78432,1.79273 0,0.11204 -0.11205,0.11204 -0.11205,0.22409 -0.22409,0.56023 -0.44818,1.2325 -0.67227,1.79273 0,0.11205 -0.11205,0.22409 -0.11205,0.33614 -0.22409,0.56023 -0.44818,1.2325 -0.67227,1.79273 0,0.11205 -0.11205,0.22409 -0.11205,0.44818 -0.22409,0.56023 -0.44818,1.12046 -0.67227,1.79274 -0.11205,0.11204 -0.11205,0.33613 -0.22409,0.44818 -0.22409,0.56023 -0.44819,1.12046 -0.67228,1.79273 -0.11204,0.22409 -0.11204,0.33614 -0.22409,0.56023 -0.22409,0.56023 -0.44818,1.12046 -0.67227,1.68069 -0.11205,0.22409 -0.11205,0.44818 -0.22409,0.56023 -0.2241,0.56022 -0.44819,1.12045 -0.67228,1.68068 -0.11204,0.22409 -0.11204,0.44818 -0.22409,0.67228 -0.22409,0.56023 -0.44818,1.12045 -0.56023,1.68068 -0.11205,0.22409 -0.22409,0.44819 -0.22409,0.67228 -0.22409,0.56023 -0.44818,1.12045 -0.56023,1.68068 -0.11205,0.2241 -0.22409,0.56023 -0.22409,0.78432 -0.22409,0.56023 -0.33614,1.12046 -0.56023,1.68069 -0.11205,0.22409 -0.22409,0.56023 -0.22409,0.78432 -0.22409,0.56023 -0.33614,1.12046 -0.56023,1.68069 -0.11205,0.33613 -0.22409,0.56023 -0.33614,0.89636 -0.22409,0.56023 -0.33614,1.12046 -0.56023,1.68069 -0.11204,0.33614 -0.22409,0.56023 -0.33613,0.89637 -0.2241,0.56022 -0.33614,1.12045 -0.56023,1.68068 -0.11205,0.33614 -0.22409,0.56023 -0.33614,0.89637 -0.22409,0.56023 -0.33614,1.12046 -0.56023,1.68068 -0.11204,0.44819 -0.22409,0.89637 -0.44818,1.34455 -6.38661,17.81528 -10.19617,40.22443 -10.19617,64.53836 0,43.58581 29.46804,96.80754 29.46804,96.80754 5.71433,33.72578 -12.88526,56.02288 -35.63055,61.40108 0,0 0,0 0,0 -0.44819,0.11204 -0.89637,0.22409 -1.34455,0.33614 0,0 -0.11205,0 -0.11205,0 -0.44818,0.11204 -0.78432,0.11204 -1.2325,0.22409 -0.11205,0 -0.11205,0 -0.22409,0 -0.33614,0.11204 -0.67228,0.11204 -1.12046,0.22409 -0.11205,0 -0.22409,0 -0.33614,0.11204 -0.33613,0 -0.67227,0.11205 -1.00841,0.11205 -0.11205,0 -0.33614,0 -0.44818,0.11205 -0.33614,0 -0.56023,0 -0.89637,0.11204 -0.22409,0 -0.44818,0 -0.56023,0 -0.22409,0 -0.44818,0 -0.56023,0 -0.33613,0 -0.56022,0 -0.89636,0 -0.11205,0 -0.22409,0 -0.33614,0 -0.33614,0 -0.78432,0 -1.12046,0 0,0 0,0 0,0 0,0 0,0 0,0 -0.22409,0 -0.44818,0 -0.56023,0 -4.25773,0 -8.40343,-0.56023 -12.66117,-1.68069 -5.60228,-1.56864 -10.86844,-2.465 -15.79845,-2.91318 -2.24091,-0.2241 -4.36978,-0.2241 -6.38661,-0.2241 0,0 0,0 0,0 -2.24091,0 -4.36978,0.11205 -6.38661,0.33614 -19.608,1.90478 -30.92463,11.87685 -34.06191,15.23822 v 0 h 0.11205 v 0 c -3.24933,-3.36137 -14.4539,-13.33344 -34.06191,-15.23822 -2.01683,-0.22409 -4.1457,-0.33614 -6.38661,-0.33614 0,0 0,0 0,0 -2.01682,0 -4.14569,0.11205 -6.38661,0.2241 -4.93001,0.44818 -10.19617,1.34454 -15.79845,2.91318 -4.1457,1.12046 -8.40344,1.68069 -12.66117,1.68069 -0.2241,0 -0.44819,0 -0.56023,0 0,0 0,0 0,0 0,0 0,0 0,0 -0.33614,0 -0.78432,0 -1.12046,0 -0.11205,0 -0.22409,0 -0.33614,0 -0.33614,0 -0.56023,0 -0.89636,0 -0.2241,0 -0.44819,0 -0.56023,0 -0.22409,0 -0.44819,0 -0.56023,0 -0.33614,0 -0.56023,0 -0.89637,-0.11204 -0.11204,0 -0.33614,0 -0.44818,-0.11205 -0.33614,0 -0.67228,-0.11205 -1.00841,-0.11205 -0.11205,0 -0.22409,0 -0.33614,-0.11204 -0.33614,0 -0.67227,-0.11205 -1.12046,-0.22409 -0.11204,0 -0.11204,0 -0.22409,0 -0.44818,-0.11205 -0.89637,-0.11205 -1.2325,-0.22409 0,0 -0.11205,0 -0.11205,0 -0.44818,-0.11205 -0.89636,-0.2241 -1.34455,-0.33614 0,0 0,0 0,0 -22.74529,-5.3782 -41.34488,-27.6753 -35.63055,-61.40108 0,0 29.46804,-53.22173 29.46804,-96.80754 0,-24.31393 -3.80956,-46.72308 -10.19617,-64.53836 -0.11204,-0.44818 -0.22409,-0.89636 -0.44818,-1.34455 -0.22409,-0.56022 -0.33614,-1.12045 -0.56023,-1.68068 -0.11205,-0.33614 -0.22409,-0.56023 -0.33614,-0.89637 -0.22409,-0.56023 -0.33613,-1.12046 -0.56023,-1.68068 -0.11204,-0.33614 -0.22409,-0.56023 -0.33613,-0.89637 -0.2241,-0.56023 -0.33614,-1.12046 -0.56023,-1.68069 -0.11205,-0.33613 -0.22409,-0.56023 -0.33614,-0.89636 -0.22409,-0.56023 -0.33614,-1.12046 -0.56023,-1.68069 -0.11204,-0.22409 -0.22409,-0.56023 -0.22409,-0.78432 -0.22409,-0.56023 -0.33614,-1.12046 -0.56023,-1.68069 -0.11204,-0.22409 -0.22409,-0.56022 -0.22409,-0.78432 -0.22409,-0.56023 -0.44818,-1.12045 -0.56023,-1.68068 -0.11205,-0.22409 -0.22409,-0.44819 -0.22409,-0.67228 -0.22409,-0.56023 -0.44818,-1.12045 -0.56023,-1.68068 -0.11205,-0.2241 -0.11205,-0.44819 -0.22409,-0.67228 -0.22409,-0.56023 -0.44818,-1.12046 -0.67228,-1.68068 -0.11204,-0.2241 -0.11204,-0.44819 -0.22409,-0.56023 -0.22409,-0.56023 -0.44818,-1.12046 -0.67227,-1.68069 -0.11205,-0.22409 -0.11205,-0.33614 -0.22409,-0.56023 -0.22409,-0.56023 -0.44819,-1.12046 -0.67228,-1.79273 -0.11204,-0.11205 -0.11204,-0.33614 -0.22409,-0.44818 -0.22409,-0.56023 -0.44818,-1.23251 -0.67227,-1.79274 0,-0.11204 -0.11205,-0.22409 -0.11205,-0.44818 -0.22409,-0.56023 -0.44818,-1.2325 -0.67227,-1.79273 0,-0.11205 -0.11205,-0.22409 -0.11205,-0.33614 -0.22409,-0.56023 -0.44818,-1.2325 -0.67227,-1.79273 0,-0.11205 -0.11205,-0.11205 -0.11205,-0.22409 -0.22409,-0.56023 -0.44818,-1.23251 -0.78432,-1.79273 0,0 0,-0.11205 -0.11205,-0.11205 -0.22409,-0.67227 -0.56023,-1.2325 -0.78432,-1.90478 0,0 0,0 0,-0.11204 -0.44818,-1.00842 -0.89636,-2.12887 -1.34455,-3.13729 -0.44818,-1.00841 -0.78432,-1.90477 -1.2325,-2.80114 0,0 0,-0.11204 -0.11205,-0.11204 -3.58546,-8.0673 -8.17934,-17.25505 -8.17934,-17.25505 0,0 27.78735,-10.5323 29.01986,-10.98049 l 6.3866,16.13459 18.15142,-3.47342 19.38391,-4.03364 -3.24932,-18.5996 c 10.5323,-1.90478 21.96097,-3.36137 34.286,-4.14569 m 5.60229,-7.28298 -6.16252,0.44819 c -11.65276,0.78432 -23.41756,2.24091 -34.84623,4.25773 l -6.72275,1.12046 1.12046,6.72275 2.12887,12.10094 -12.77322,2.6891 -12.54912,2.35296 -4.25774,-10.86844 -2.46501,-6.27456 -6.27456,2.35296 c -1.2325,0.44818 -27.89939,10.5323 -29.01985,10.98048 l -7.17093,2.6891 3.36137,6.72275 c 0,0.11204 4.59388,9.18775 7.95525,17.03095 v 0.11205 0.11204 c 0.44819,0.89637 0.78432,1.90478 1.23251,2.80115 0.44818,1.00841 0.89636,2.01682 1.34454,3.02523 v 0 0 c 0.2241,0.56023 0.56023,1.23251 0.78433,1.79274 v 0.11204 0 0 0 c 0.22409,0.56023 0.44818,1.23251 0.78432,1.79273 l 0.11204,0.11205 v 0.11205 c 0.22409,0.56022 0.44818,1.12045 0.67228,1.79273 v 0.11204 l 0.11204,0.2241 c 0.22409,0.56022 0.44818,1.12045 0.67228,1.79273 l 0.11204,0.22409 0.11205,0.22409 c 0.22409,0.56023 0.44818,1.12046 0.67227,1.68069 l 0.11205,0.22409 0.11204,0.22409 c 0.2241,0.56023 0.44819,1.12046 0.67228,1.68069 l 0.11204,0.22409 0.11205,0.33614 c 0.22409,0.56022 0.44818,1.12045 0.67227,1.68068 l 0.11205,0.22409 0.11205,0.33614 c 0.22409,0.56023 0.44818,1.12046 0.56022,1.68069 l 0.11205,0.33613 0.11205,0.33614 c 0.22409,0.56023 0.44818,1.12046 0.56023,1.68069 l 0.11204,0.33614 0.11205,0.44818 c 0.22409,0.56023 0.33613,1.12046 0.56023,1.68068 l 0.11204,0.33614 0.11205,0.44819 c 0.22409,0.56022 0.33613,1.12045 0.56023,1.68068 l 0.11204,0.33614 0.11205,0.44818 c 0.22409,0.56023 0.33613,1.12046 0.56023,1.68069 l 0.11204,0.33614 0.22409,0.56022 c 0.22409,0.56023 0.33614,1.12046 0.56023,1.68069 l 0.11205,0.33614 0.22409,0.56023 c 0.22409,0.56023 0.33614,1.12045 0.56023,1.68068 v 0 l 0.11204,0.22409 0.2241,0.67228 c 0.11204,0.56023 0.33613,1.12046 0.44818,1.68069 l 0.11204,0.44818 c 0.11205,0.33614 0.2241,0.67227 0.2241,0.89636 v 0.2241 l 0.11204,0.22409 c 6.38661,17.81528 9.74798,39.44011 9.74798,62.29744 0,33.72578 -18.82369,74.28634 -25.88257,88.40411 l -2.01682,-0.78432 -1.34455,8.06729 c -3.02524,17.47914 -0.11205,33.38964 8.06729,46.16286 7.50707,11.65275 19.15983,19.8321 32.60532,22.96938 v 0 h 0.11205 c 0.44818,0.11204 0.89636,0.22409 1.45659,0.33613 0.11205,0 0.11205,0 0.22409,0 0.56023,0.11205 1.00841,0.2241 1.4566,0.2241 0.11204,0 0.11204,0 0.22409,0 v 0 0 c 0.44818,0.11204 0.78432,0.11204 1.2325,0.22409 h 0.11205 c 0.11204,0 0.22409,0 0.33614,0 0.33613,0 0.67227,0.11204 1.00841,0.11204 h 0.11204 0.11205 c 0.11204,0 0.22409,0 0.33614,0 0.22409,0 0.56022,0 0.78432,0.11205 h 0.22409 0.22409 c 0.22409,0 0.33614,0 0.56023,0 0.11204,0 0.33614,0 0.56023,0 h 0.22409 0.22409 c 0.22409,0 0.56023,0 0.78432,0 0.11205,0 0.22409,0 0.33614,0 h 0.11204 c 0.44819,0 0.78432,0 1.23251,0 v 0 0 0 c 0.22409,0 0.44818,0 0.67227,0 4.93001,0 9.74798,-0.67228 14.4539,-2.01683 4.93002,-1.34454 9.86003,-2.24091 14.56596,-2.68909 1.90477,-0.22409 3.9216,-0.22409 5.82638,-0.22409 v 0 c 1.90477,0 3.80955,0.11204 5.71433,0.22409 17.47914,1.68068 27.22712,10.5323 29.80417,13.2214 l 2.01682,2.01682 h 2.91319 0.11205 2.91319 l 2.01682,-2.01682 c 2.57706,-2.6891 12.43708,-11.54072 29.80418,-13.2214 1.90477,-0.22409 3.80955,-0.22409 5.71433,-0.22409 v 0 c 1.90478,0 3.80956,0.11204 5.82638,0.22409 4.70592,0.44818 9.63593,1.34455 14.56595,2.68909 4.70592,1.34455 9.52389,2.01683 14.4539,2.01683 0.22409,0 0.44818,0 0.67228,0 v 0 0 0 c 0.44818,0 0.89636,0 1.2325,0 v 0 c 0.11205,0 0.22409,0 0.33614,0 0.22409,0 0.56023,0 0.78432,0 h 0.22409 0.22409 c 0.22409,0 0.33614,0 0.56023,0 0.11204,0 0.33614,0 0.56023,0 h 0.22409 0.22409 c 0.22409,0 0.56023,0 0.78432,-0.11205 0.11205,0 0.22409,0 0.44818,0 h 0.11205 0.11205 c 0.33613,0 0.67227,-0.11204 1.00841,-0.11204 0.11204,0 0.22409,0 0.33613,0 h 0.11205 c 0.44818,-0.11205 0.78432,-0.11205 1.2325,-0.22409 v 0 0 c 0.11205,0 0.11205,0 0.2241,0 v 0 c 0.56022,-0.11205 1.00841,-0.2241 1.45659,-0.2241 0.11205,0 0.11205,0 0.22409,0 0.56023,-0.11204 1.00841,-0.22409 1.4566,-0.33613 v 0 0 0 c 13.55753,-3.24933 25.09825,-11.42867 32.60531,-22.96938 8.29139,-12.77322 11.09253,-28.79576 8.0673,-46.16286 l -1.23251,-7.28297 -1.90477,0.44818 c -6.94684,-13.66958 -26.21871,-54.79038 -26.21871,-88.85229 0,-22.85733 3.36137,-44.37012 9.74798,-62.29744 l 0.11205,-0.22409 v -0.2241 c 0.11204,-0.33613 0.22409,-0.56022 0.22409,-0.89636 l 0.11204,-0.44818 c 0.11205,-0.56023 0.33614,-1.12046 0.44819,-1.68069 l 0.22409,-0.67228 0.11204,-0.22409 c 0.22409,-0.56023 0.33614,-1.12045 0.56023,-1.68068 l 0.11205,-0.44819 0.11204,-0.44818 0.11205,-0.22409 c 0.11204,-0.44818 0.33614,-0.89637 0.44818,-1.34455 l 0.22409,-0.56023 0.11205,-0.33614 c 0.22409,-0.56022 0.33614,-1.12045 0.56023,-1.68068 l 0.11204,-0.22409 0.2241,-0.56023 v -0.11205 c 0.22409,-0.56023 0.33613,-1.00841 0.56022,-1.56864 l 0.11205,-0.44818 0.11205,-0.33614 v 0 c 0.22409,-0.56023 0.33613,-1.12046 0.56022,-1.56864 l 0.11205,-0.33614 0.11205,-0.33613 c 0.22409,-0.56023 0.33613,-1.12046 0.56022,-1.68069 l 0.11205,-0.33614 0.11205,-0.33614 c 0.22409,-0.56022 0.44818,-1.12045 0.56023,-1.68068 l 0.11204,-0.33614 0.11205,-0.22409 c 0.22409,-0.56023 0.44818,-1.12046 0.67227,-1.68069 l 0.11205,-0.22409 0.11204,-0.33614 c 0.22409,-0.56022 0.44819,-1.12045 0.67228,-1.68068 l 0.22409,-0.44819 c 0.22409,-0.56022 0.44818,-1.2325 0.67227,-1.79273 l 0.11205,-0.33614 c 0.22409,-0.56022 0.44818,-1.2325 0.67227,-1.79273 v -0.11204 l 0.11205,-0.22409 c 0.22409,-0.56023 0.44818,-1.23251 0.67227,-1.79274 v 0 0 -0.11204 -0.11205 c 0.2241,-0.56023 0.44819,-1.2325 0.78432,-1.79273 v 0 0 -0.11205 0 0 c 0.2241,-0.67227 0.56023,-1.2325 0.78432,-1.79273 v 0 0 0 c 0.78433,-1.90478 1.68069,-3.9216 2.46501,-5.82638 v -0.11204 0 0 0 c 3.36137,-7.61912 6.16252,-13.33345 7.8432,-16.69482 l 0.2241,-0.33614 3.24932,-6.49865 -6.6107,-2.80115 c -9.74798,-4.14569 -19.72005,-7.8432 -29.69212,-10.98048 l -6.05047,-1.90478 -2.35297,5.93843 -4.25773,10.64434 -12.54913,-2.80114 -12.88526,-2.6891 2.12887,-11.9889 1.12046,-6.72274 -6.72275,-1.23251 c -11.54071,-2.01682 -23.19347,-3.47341 -34.84623,-4.36978 l -6.16252,-0.44818 -1.00841,6.27456 -2.01682,11.87685 -12.32504,-0.44818 h -0.22409 -0.22409 -0.78432 -0.78432 -0.22409 -0.22409 l -12.32504,0.44818 -2.01682,-11.87685 z" id="path31203" style="fill:#1d1d1b;stroke-width:1.12046"/>
    <path class="st1" d="m 465.71515,460.95174 c 0.22409,-0.56023 0.33614,-1.12046 0.56023,-1.68069 0.11205,-0.33613 0.22409,-0.56022 0.33614,-0.89636 0.22409,-0.56023 0.33614,-1.12046 0.56023,-1.68069 0.11204,-0.33614 0.22409,-0.56023 0.33613,-0.89636 0.2241,-0.56023 0.33614,-1.12046 0.56023,-1.68069 0.11205,-0.33614 0.2241,-0.56023 0.33614,-0.89637 0.22409,-0.56023 0.33614,-1.12045 0.56023,-1.68068 0.11205,-0.22409 0.22409,-0.56023 0.22409,-0.78432 0.22409,-0.56023 0.33614,-1.12046 0.56023,-1.68069 0.11205,-0.22409 0.22409,-0.56023 0.22409,-0.78432 0.22409,-0.56023 0.44818,-1.12046 0.56023,-1.68069 0.11205,-0.22409 0.22409,-0.44818 0.22409,-0.67227 0.22409,-0.56023 0.44819,-1.12046 0.56023,-1.68069 0.11205,-0.22409 0.11205,-0.44818 0.22409,-0.67227 0.22409,-0.56023 0.44819,-1.12046 0.67228,-1.68069 0.11204,-0.22409 0.11204,-0.44818 0.22409,-0.56023 0.22409,-0.56023 0.44818,-1.12046 0.67227,-1.68068 0.11205,-0.2241 0.11205,-0.33614 0.22409,-0.56023 0.2241,-0.56023 0.44819,-1.12046 0.67228,-1.79274 0.11204,-0.11204 0.11204,-0.33613 0.22409,-0.44818 0.22409,-0.56023 0.44818,-1.2325 0.67228,-1.79273 0,-0.11205 0.11204,-0.22409 0.11204,-0.44818 0.22409,-0.56023 0.44818,-1.23251 0.67228,-1.79274 0,-0.11204 0.11204,-0.22409 0.11204,-0.33613 0.22409,-0.56023 0.44818,-1.23251 0.67228,-1.79273 0,-0.11205 0.11204,-0.11205 0.11204,-0.2241 0.22409,-0.56023 0.44818,-1.2325 0.78432,-1.79273 0,0 0,-0.11204 0.11205,-0.11204 0.22409,-0.67228 0.56023,-1.23251 0.78432,-1.90478 0,0 0,0 0,-0.11205 0.89636,-2.12887 1.68068,-4.03365 2.57705,-5.93842 0,0 0,0 0,0 0,0 0,-0.11205 0.11205,-0.11205 3.58546,-8.06729 6.49865,-14.00572 8.17934,-17.25505 -9.86003,-4.14569 -19.49597,-7.73115 -29.1319,-10.75639 l -6.38661,15.79845 -18.15141,-3.47342 -19.38392,-4.03364 3.24933,-18.48755 c -11.76481,-2.12887 -23.19347,-3.47342 -34.17396,-4.25774 l -3.02523,17.81527 -18.26346,-0.67227 h -1.00842 -1.00841 l -18.26346,0.67227 -3.13728,-17.81527 c -12.21299,0.78432 -23.7537,2.35296 -34.17396,4.14569 l 3.24933,18.5996 -19.38392,4.03364 -18.26346,3.47342 -6.3866,-16.13459 c -1.23251,0.44819 -29.01986,10.98049 -29.01986,10.98049 0,0 4.59388,9.2998 8.17934,17.25505 0,0 0,0.11204 0.11205,0.11204 0.44818,0.89637 0.78432,1.90478 1.2325,2.80114 0.44819,1.00842 0.89637,2.01683 1.34455,3.13729 0,0 0,0 0,0.11204 0.22409,0.56023 0.56023,1.23251 0.78432,1.90478 0,0 0,0.11205 0.11205,0.11205 0.22409,0.56022 0.44818,1.2325 0.78432,1.79273 0,0.11204 0.11205,0.11204 0.11205,0.22409 0.22409,0.56023 0.44818,1.2325 0.67227,1.79273 0,0.11205 0.11205,0.22409 0.11205,0.33614 0.22409,0.56023 0.44818,1.2325 0.67227,1.79273 0,0.11205 0.11205,0.22409 0.11205,0.44818 0.22409,0.56023 0.44818,1.12046 0.67227,1.79274 0.11205,0.11204 0.11205,0.33613 0.22409,0.44818 0.22409,0.56023 0.44819,1.12046 0.67228,1.79273 0.11204,0.22409 0.11204,0.33614 0.22409,0.56023 0.22409,0.56023 0.44818,1.12046 0.67227,1.68069 0.11205,0.22409 0.11205,0.44818 0.22409,0.56023 0.2241,0.56022 0.44819,1.12045 0.67228,1.68068 0.11204,0.22409 0.11204,0.44818 0.22409,0.67228 0.22409,0.56023 0.44818,1.12045 0.56023,1.68068 0.11204,0.22409 0.22409,0.44819 0.22409,0.67228 0.22409,0.56023 0.44818,1.12045 0.56023,1.68068 0.11205,0.2241 0.22409,0.56023 0.22409,0.78432 0.22409,0.56023 0.33614,1.12046 0.56023,1.68069 0.11205,0.22409 0.22409,0.56023 0.22409,0.78432 0.22409,0.56023 0.33614,1.12046 0.56023,1.68069 0.11205,0.33613 0.22409,0.56023 0.33614,0.89636 0.22409,0.56023 0.33613,1.12046 0.56023,1.68069 0.11204,0.33614 0.22409,0.56023 0.33613,0.89637 0.2241,0.56022 0.33614,1.12045 0.56023,1.68068 0.11205,0.33614 0.22409,0.56023 0.33614,0.89637 0.22409,0.56023 0.33614,1.12046 0.56023,1.68068 0.11204,0.44819 0.22409,0.89637 0.44818,1.34455 6.38661,17.81528 10.19617,40.22443 10.19617,64.53836 0,43.58581 -29.46804,96.80754 -29.46804,96.80754 -5.71433,33.72578 12.88526,56.02288 35.63055,61.40108 0,0 0,0 0,0 0.44819,0.11204 0.89637,0.22409 1.34455,0.33614 0,0 0.11205,0 0.11205,0 0.44818,0.11204 0.78432,0.11204 1.2325,0.22409 0.11205,0 0.11205,0 0.22409,0 0.33614,0.11204 0.67228,0.11204 1.12046,0.22409 0.11205,0 0.22409,0 0.33614,0.11204 0.33613,0 0.67227,0.11205 1.00841,0.11205 0.11204,0 0.33614,0 0.44818,0.11205 0.33614,0 0.56023,0 0.89637,0.11204 0.22409,0 0.44818,0 0.56023,0 0.22409,0 0.44818,0 0.56023,0 0.33613,0 0.56022,0 0.89636,0 0.11205,0 0.22409,0 0.33614,0 0.33614,0 0.78432,0 1.12046,0 0,0 0,0 0.11204,0 4.36979,0 8.85162,-0.44818 13.2214,-1.68069 5.60229,-1.56864 10.86844,-2.465 15.79846,-2.91318 2.24091,-0.2241 4.36978,-0.33614 6.38661,-0.2241 2.24091,0 4.36978,0.11205 6.3866,0.33614 19.60801,1.90478 30.92463,11.87685 34.06191,15.23822 v 0 h 0.11205 v 0 c 3.24933,-3.36137 14.4539,-13.33344 34.06191,-15.23822 2.01683,-0.22409 4.14569,-0.33614 6.38661,-0.33614 2.01682,0 4.25774,0.11205 6.38661,0.2241 4.93001,0.44818 10.19616,1.34454 15.79845,2.91318 4.36979,1.23251 8.85162,1.79274 13.2214,1.68069 0,0 0,0 0.11205,0 0.33613,0 0.78432,0 1.12045,0 0.11205,0 0.2241,0 0.33614,0 0.33614,0 0.56023,0 0.89637,0 0.22409,0 0.44818,0 0.56023,0 0.22409,0 0.44818,0 0.56022,0 0.33614,0 0.56023,0 0.89637,-0.11204 0.11205,0 0.33614,0 0.44818,-0.11205 0.33614,0 0.67228,-0.11205 1.00842,-0.11205 0.11204,0 0.22409,0 0.33613,-0.11204 0.33614,0 0.67228,-0.11205 1.12046,-0.22409 0.11205,0 0.11205,0 0.22409,0 0.44819,-0.11205 0.89637,-0.11205 1.23251,-0.22409 0,0 0.11204,0 0.11204,0 0.44818,-0.11205 0.89637,-0.2241 1.34455,-0.33614 0,0 0,0 0,0 22.74529,-5.3782 41.34489,-27.6753 35.63055,-61.40108 0,0 -29.46803,-53.22173 -29.46803,-96.80754 0,-24.31393 3.80955,-46.72308 10.19616,-64.53836 0,-0.22409 0.11205,-0.78432 0.22409,-1.2325 z" id="path31205" style="fill:#ffd600;stroke-width:1.12046"/>
    <path class="st2" d="m 462.80196,575.57456 c 0,31.37281 -44.8183,56.91924 -100.05686,56.91924 -55.23856,0 -100.05687,-25.43439 -100.05687,-56.91924 0,-31.37282 44.81831,-56.91925 100.05687,-56.91925 55.23856,0 100.05686,25.54643 100.05686,56.91925" id="path31207" style="clip-rule:evenodd;fill:#c10230;fill-rule:evenodd;stroke-width:1.12046"/>
    <path class="st0" d="m 362.85714,414.45275 c 44.37013,0 88.74025,8.51548 131.20559,25.54643 -4.81797,11.65276 -7.17093,17.70323 -12.10094,29.58009 -38.65579,-15.46232 -78.88022,-23.19348 -119.10465,-23.19348 -40.22442,0 -80.44885,7.73116 -119.10464,23.19348 -4.93001,-11.87686 -7.28298,-17.92733 -12.10094,-29.58009 42.46534,-17.03095 86.83546,-25.54643 131.20558,-25.54643" id="path31209" style="fill:#1d1d1b;stroke-width:1.12046"/>
    <path class="st0" d="m 362.85714,407.61796 v 0 c -45.71467,0 -90.64502,8.73957 -133.67059,25.99461 l -6.49865,2.6891 2.68909,6.38661 c 2.35297,5.71434 4.1457,10.19617 5.93843,14.56595 1.79273,4.48183 3.69751,8.96366 6.16252,15.01413 l 2.57705,6.27457 6.27456,-2.46501 c 37.64738,-15.01413 76.8634,-22.63325 116.52759,-22.63325 39.77625,0 78.99227,7.61912 116.5276,22.63325 l 6.27456,2.46501 2.57705,-6.38661 c 2.46501,-5.93843 4.36979,-10.53231 6.16252,-15.01414 1.79273,-4.36978 3.58546,-8.85161 5.93842,-14.56594 l 2.6891,-6.38661 -6.38661,-2.57706 C 453.50216,416.35753 408.57181,407.61796 362.85714,407.61796 Z" id="path31211" style="fill:#1d1d1b;stroke-width:1.12046"/>
    <path class="st3" d="m 234.56475,613.55807 c 83.02591,33.27759 173.55888,33.27759 256.58479,0 5.26615,12.77322 7.8432,16.47073 12.99731,29.01985 -91.3173,36.75101 -191.26211,36.75101 -282.57941,0 5.1541,-12.54912 7.73116,-16.24663 12.99731,-29.01985 z" id="path31213" style="fill:#ffffff;stroke-width:1.12046"/>
    <path class="st0" d="m 491.14954,613.55807 c 5.26615,12.77322 7.8432,16.47073 12.99731,29.01985 -45.71467,18.37551 -93.44617,27.56326 -141.28971,27.56326 -47.84353,0 -95.68708,-9.2998 -141.2897,-27.56326 5.1541,-12.54912 7.73116,-16.24663 12.99731,-29.01985 41.56897,16.69482 84.93069,24.9862 128.29239,24.9862 43.36171,0 86.72342,-8.40343 128.2924,-24.9862 m -260.2823,-8.85162 -2.57706,6.27457 c -2.57705,6.27456 -4.48183,10.19616 -6.3866,14.34185 -1.90478,4.03365 -3.92161,8.29139 -6.6107,14.678 l -2.6891,6.27456 6.38661,2.57705 c 46.27489,18.5996 94.67867,28.01144 143.86675,28.01144 49.18809,0 97.59186,-9.41184 143.86676,-28.01144 l 6.38661,-2.57705 -2.6891,-6.38661 c -2.6891,-6.38661 -4.59387,-10.5323 -6.6107,-14.67799 -2.01682,-4.1457 -3.80955,-8.0673 -6.38661,-14.34186 l -2.57705,-6.27456 -6.27456,2.465 c -40.56057,16.24664 -82.80182,24.53803 -125.71535,24.53803 -42.91352,0 -85.26682,-8.29139 -125.71534,-24.53803 z" id="path31215" style="fill:#1d1d1b;stroke-width:1.12046"/>
    <path class="st3" d="m 481.96179,469.57927 c -77.19953,-30.92464 -161.00976,-30.92464 -238.20929,0 -4.93001,-11.87686 -7.28298,-17.92733 -12.10094,-29.58009 84.81864,-34.06191 177.48048,-34.06191 262.29912,0 -4.70592,11.65276 -7.17092,17.70323 -11.98889,29.58009 z" id="path31217" style="fill:#ffffff;stroke-width:1.12046"/>
    <g id="g31235" transform="matrix(1.1204576,0,0,1.1204576,211.48332,369.07422)">
      <path class="st0" d="m 68.9,237.2 c 1.3,0.3 2.4,0.7 3.4,1.4 1,0.6 1.8,1.5 2.4,2.4 0.6,1 1,2.1 1.2,3.5 0.2,1.3 0.1,2.8 -0.3,4.4 -0.3,1.4 -0.8,2.7 -1.4,3.9 -0.6,1.1 -1.4,2.1 -2.4,2.8 -0.9,0.7 -2,1.2 -3.2,1.5 -1.2,0.3 -2.6,0.2 -4.1,-0.1 l -8.5,-1.9 4.3,-19.7 z m -3.8,16 c 0.6,0.1 1.3,0.2 1.9,0.1 0.6,-0.1 1.2,-0.3 1.8,-0.7 0.6,-0.4 1.1,-0.9 1.5,-1.6 0.4,-0.7 0.8,-1.6 1,-2.7 0.2,-1 0.3,-1.9 0.3,-2.8 0,-0.8 -0.2,-1.6 -0.5,-2.3 -0.3,-0.7 -0.8,-1.2 -1.5,-1.7 -0.7,-0.5 -1.5,-0.8 -2.6,-1 l -3,-0.5 -2.7,12.4 z" id="path31219"/>
      <path class="st0" d="m 96.5,242.1 -0.6,3.7 -10.5,-1.6 -0.7,4.3 9.7,1.5 -0.5,3.4 -9.7,-1.5 -0.8,4.9 10.8,1.7 -0.6,3.7 -15.1,-2.3 3.1,-20 z" id="path31221"/>
      <path class="st0" d="m 102.8,263.1 -4.6,-20.7 4.5,0.4 3.2,14.6 h 0.1 l 5.8,-13.7 4.6,0.4 -8.5,19.5 z" id="path31223"/>
      <path class="st0" d="m 133.8,244.6 -0.1,3.7 -10.7,-0.4 -0.1,4.3 9.8,0.3 -0.1,3.4 -9.8,-0.3 -0.2,4.9 10.9,0.4 -0.1,3.7 -15.3,-0.5 0.7,-20.2 z" id="path31225"/>
      <path class="st0" d="m 142.1,244.5 8.9,13.3 h 0.1 l -0.4,-13.5 4.2,-0.1 0.6,20.2 -4.4,0.1 -8.8,-13.2 h -0.1 l 0.4,13.5 -4.2,0.1 -0.6,-20.2 z" id="path31227"/>
      <path class="st0" d="m 158,247.6 -0.4,-3.7 16.5,-1.6 0.4,3.7 -6,0.6 1.5,16.4 -4.4,0.4 L 164,247 Z" id="path31229"/>
      <path class="st0" d="m 192,239.7 0.6,3.7 -10.5,1.6 0.7,4.3 9.7,-1.5 0.5,3.4 -9.7,1.5 0.8,4.9 10.8,-1.7 0.6,3.7 -15.1,2.3 -3.1,-20 z" id="path31231"/>
      <path class="st0" d="m 206.5,236.6 c 0.9,-0.2 1.7,-0.2 2.5,-0.1 0.8,0.1 1.5,0.4 2.1,0.8 0.6,0.4 1.1,0.9 1.5,1.5 0.4,0.6 0.7,1.3 0.9,2 0.3,1.2 0.2,2.2 -0.1,3.2 -0.3,1 -1,1.8 -2,2.5 v 0.1 c 0.6,0 1.1,0.2 1.5,0.4 0.4,0.2 0.8,0.5 1.1,0.9 0.3,0.4 0.6,0.8 0.8,1.3 0.2,0.5 0.4,1 0.5,1.4 0.1,0.3 0.2,0.7 0.3,1.1 0.1,0.4 0.2,0.8 0.4,1.3 0.1,0.4 0.3,0.8 0.5,1.2 0.2,0.4 0.4,0.7 0.7,0.9 l -4.3,1 c -0.4,-0.6 -0.7,-1.3 -0.9,-2.1 -0.2,-0.9 -0.5,-1.7 -0.8,-2.4 -0.4,-1 -0.9,-1.7 -1.4,-2.1 -0.6,-0.4 -1.4,-0.4 -2.5,-0.2 l -4.3,1 1.7,7.7 -4.3,1 -4.3,-19.7 z m 0.4,9.3 c 1,-0.2 1.7,-0.6 2.1,-1.2 0.4,-0.6 0.5,-1.3 0.3,-2.3 -0.2,-1 -0.6,-1.6 -1.2,-1.9 -0.6,-0.3 -1.4,-0.4 -2.4,-0.2 l -4.8,1 1.2,5.6 z" id="path31233"/>
    </g>
    <g id="g31315" transform="matrix(1.1204576,0,0,1.1204576,211.48332,369.07422)">
      <g id="g31241">
        <path class="st0" d="m 41,78.9 c -0.6,0.5 -1.3,0.9 -2,1.2 -1.1,0.4 -2.2,0.6 -3.3,0.5 -1,-0.1 -2,-0.4 -2.9,-0.8 -0.9,-0.5 -1.6,-1.1 -2.3,-1.9 -0.5,-0.9 -1,-1.8 -1.4,-2.9 -0.4,-1.1 -0.6,-2.2 -0.6,-3.2 0,-1.1 0.2,-2.1 0.6,-3 0.4,-0.9 0.9,-1.7 1.7,-2.5 0.8,-0.7 1.7,-1.3 2.8,-1.7 0.8,-0.3 1.5,-0.4 2.3,-0.4 0.8,0 1.5,0.1 2.3,0.3 0.7,0.2 1.4,0.6 2,1.1 0.6,0.5 1.1,1.2 1.5,2 l -3.1,1.1 C 38.1,67.9 37.5,67.4 36.8,67.2 36.1,67 35.4,67 34.6,67.3 c -0.7,0.3 -1.3,0.6 -1.7,1.1 -0.4,0.5 -0.7,1 -0.8,1.6 -0.2,0.6 -0.2,1.2 -0.1,1.9 0.1,0.7 0.2,1.3 0.4,2 0.2,0.6 0.5,1.2 0.9,1.7 0.4,0.5 0.8,1 1.2,1.3 0.5,0.4 1,0.6 1.6,0.7 0.6,0.1 1.3,0 2,-0.2 1.1,-0.4 1.8,-0.9 2.2,-1.7 0.4,-0.8 0.5,-1.7 0.2,-2.7 l -3.3,1.1 -0.8,-2.4 6.2,-2.2 2.8,8 -2.1,0.7 -0.9,-1.6 c -0.3,1 -0.8,1.8 -1.4,2.3 z" id="path31237"/>
        <path class="st0" d="m 36.1,64.2 c 0.7,0 1.4,0.1 2.1,0.3 0.7,0.2 1.4,0.6 2,1.1 0.6,0.5 1.1,1.2 1.5,2 l -3.1,1.1 c -0.5,-0.8 -1.1,-1.3 -1.8,-1.5 -0.3,-0.1 -0.6,-0.1 -1,-0.1 -0.4,0 -0.8,0.1 -1.3,0.2 -0.7,0.3 -1.3,0.6 -1.7,1.1 -0.4,0.5 -0.7,1 -0.8,1.6 -0.2,0.6 -0.2,1.2 -0.1,1.9 0.1,0.7 0.2,1.3 0.4,2 0.2,0.6 0.5,1.2 0.9,1.7 0.4,0.5 0.8,1 1.2,1.3 0.5,0.4 1,0.6 1.6,0.7 0.2,0 0.4,0 0.5,0 0.5,0 0.9,-0.1 1.5,-0.3 1.1,-0.4 1.8,-0.9 2.2,-1.7 0.4,-0.8 0.5,-1.7 0.2,-2.7 l -3.3,1.1 -0.8,-2.4 6.2,-2.2 2.8,8 -2.1,0.7 -0.9,-1.6 c -0.3,0.9 -0.8,1.7 -1.4,2.2 -0.6,0.5 -1.3,0.9 -2,1.2 -0.9,0.3 -1.9,0.5 -2.7,0.5 -0.2,0 -0.3,0 -0.5,0 -1,-0.1 -2,-0.4 -2.9,-0.8 -0.9,-0.5 -1.6,-1.1 -2.3,-1.9 -0.5,-0.7 -1,-1.6 -1.4,-2.7 -0.4,-1.1 -0.6,-2.2 -0.6,-3.2 0,-1.1 0.2,-2.1 0.6,-3 0.4,-0.9 0.9,-1.7 1.7,-2.5 0.8,-0.7 1.7,-1.3 2.8,-1.7 0.8,-0.3 1.5,-0.4 2.3,-0.4 0.1,0 0.2,0 0.2,0 m 0,-0.1 c -0.1,0 -0.1,0 -0.2,0 -0.8,0 -1.6,0.2 -2.4,0.4 -1.1,0.4 -2.1,1 -2.9,1.7 -0.8,0.7 -1.4,1.6 -1.7,2.5 -0.4,0.9 -0.6,1.9 -0.6,3 0,1.1 0.2,2.2 0.6,3.3 0.4,1.1 0.9,2.1 1.6,2.9 0.7,0.8 1.4,1.5 2.3,2 0.9,0.5 1.9,0.8 2.9,0.8 0.2,0 0.3,0 0.5,0 0.9,0 1.8,-0.2 2.8,-0.5 0.7,-0.3 1.4,-0.7 2,-1.2 0.6,-0.5 1,-1.2 1.3,-2 l 0.8,1.3 0.1,0.1 h 0.1 l 2.1,-0.7 h 0.1 v -0.1 l -2.8,-8 v -0.1 h -0.1 l -6.2,2.2 h -0.1 v 0.1 l 0.8,2.4 v 0.1 h 0.1 l 3.1,-1.1 c 0.2,1 0.1,1.8 -0.2,2.5 -0.4,0.7 -1.1,1.3 -2.1,1.6 -0.5,0.2 -1,0.3 -1.4,0.3 -0.2,0 -0.4,0 -0.5,0 C 35.5,77.5 35,77.3 34.5,76.9 34,76.6 33.6,76.1 33.3,75.6 33,75.1 32.7,74.5 32.5,73.9 32.3,73.3 32.1,72.6 32.1,72 c -0.1,-0.6 0,-1.3 0.1,-1.8 0.1,-0.6 0.4,-1.1 0.8,-1.5 0.4,-0.4 1,-0.8 1.7,-1 0.4,-0.1 0.8,-0.2 1.2,-0.2 0.3,0 0.6,0 0.9,0.1 0.7,0.2 1.2,0.7 1.7,1.4 l 0.1,0.1 h 0.1 L 41.8,68 h 0.1 l -0.1,-0.1 c -0.4,-0.8 -0.9,-1.5 -1.5,-2 -0.6,-0.5 -1.3,-0.9 -2,-1.2 -0.7,-0.5 -1.4,-0.6 -2.2,-0.6 z" id="path31239"/>
      </g>
      <g id="g31247">
        <path class="st0" d="m 45.4,66 c 0.1,-1.1 0.3,-2 0.7,-2.9 0.4,-0.9 1,-1.7 1.8,-2.4 0.8,-0.7 1.8,-1.2 2.9,-1.5 1.2,-0.3 2.3,-0.4 3.3,-0.3 1,0.1 2,0.5 2.8,1 0.8,0.5 1.6,1.2 2.2,2.1 0.6,0.9 1.1,1.9 1.4,3 0.3,1.1 0.4,2.2 0.4,3.2 -0.1,1 -0.3,2 -0.7,2.9 -0.4,0.9 -1,1.7 -1.8,2.3 -0.8,0.7 -1.8,1.2 -3,1.5 -1.2,0.3 -2.2,0.4 -3.3,0.3 -1,-0.1 -2,-0.5 -2.8,-1 C 48.5,73.7 47.7,73 47.1,72.1 46.5,71.2 46,70.3 45.7,69.2 45.4,68.1 45.3,67 45.4,66 Z m 4.4,4.1 c 0.3,0.6 0.7,1 1.2,1.4 0.5,0.4 1,0.6 1.6,0.8 0.6,0.1 1.3,0.1 2,-0.1 0.7,-0.2 1.3,-0.5 1.8,-1 0.4,-0.4 0.8,-0.9 0.9,-1.5 0.2,-0.6 0.3,-1.2 0.2,-1.8 0,-0.6 -0.1,-1.3 -0.3,-1.9 -0.2,-0.7 -0.4,-1.3 -0.8,-1.9 -0.3,-0.6 -0.7,-1.1 -1.2,-1.5 -0.5,-0.4 -1,-0.7 -1.6,-0.8 -0.6,-0.1 -1.3,-0.1 -2,0.1 -0.7,0.2 -1.3,0.5 -1.8,1 -0.4,0.4 -0.7,0.9 -0.9,1.5 -0.2,0.6 -0.3,1.2 -0.2,1.9 0,0.7 0.1,1.3 0.3,2 0.3,0.6 0.5,1.2 0.8,1.8 z" id="path31243"/>
        <path class="st0" d="m 53.2,58.8 c 0.3,0 0.6,0 1,0.1 1,0.1 2,0.5 2.8,1 0.8,0.5 1.6,1.2 2.2,2.1 0.6,0.9 1.1,1.9 1.4,3 0.3,1.1 0.4,2.2 0.4,3.2 -0.1,1 -0.3,2 -0.7,2.9 -0.4,0.9 -1,1.7 -1.8,2.3 -0.8,0.7 -1.8,1.2 -3,1.5 -0.8,0.2 -1.6,0.3 -2.4,0.3 -0.3,0 -0.6,0 -0.9,-0.1 -1,-0.1 -2,-0.5 -2.8,-1 -0.8,-0.5 -1.6,-1.2 -2.2,-2.1 -0.6,-0.9 -1.1,-1.8 -1.4,-2.9 -0.3,-1.1 -0.5,-2.2 -0.4,-3.3 0.1,-1.1 0.3,-2 0.7,-2.9 0.4,-0.9 1,-1.7 1.8,-2.4 0.8,-0.7 1.8,-1.2 2.9,-1.5 0.9,-0.1 1.7,-0.2 2.4,-0.2 m 0.1,13.5 c 0.4,0 0.8,-0.1 1.3,-0.2 0.7,-0.2 1.3,-0.5 1.8,-1 0.4,-0.4 0.8,-0.9 0.9,-1.5 0.2,-0.6 0.3,-1.2 0.2,-1.8 0,-0.6 -0.1,-1.3 -0.3,-1.9 -0.2,-0.7 -0.4,-1.3 -0.8,-1.9 -0.3,-0.6 -0.7,-1.1 -1.2,-1.5 -0.5,-0.4 -1,-0.7 -1.6,-0.8 -0.2,-0.1 -0.5,-0.1 -0.7,-0.1 -0.4,0 -0.8,0.1 -1.3,0.2 -0.7,0.2 -1.3,0.5 -1.8,1 -0.4,0.4 -0.7,0.9 -0.9,1.5 -0.2,0.6 -0.3,1.2 -0.2,1.9 0,0.7 0.1,1.3 0.3,2 0.2,0.6 0.4,1.2 0.7,1.8 0.3,0.6 0.7,1 1.2,1.4 0.5,0.4 1,0.6 1.6,0.8 0.3,0.1 0.6,0.1 0.8,0.1 M 53.2,58.7 v 0 c -0.8,0 -1.5,0.1 -2.4,0.4 -1.2,0.3 -2.2,0.8 -3,1.5 -0.8,0.7 -1.4,1.5 -1.9,2.4 -0.4,0.9 -0.7,1.9 -0.7,3 -0.1,1.1 0.1,2.2 0.4,3.3 0.3,1.1 0.8,2.1 1.4,3 0.6,0.9 1.4,1.6 2.2,2.1 0.8,0.5 1.8,0.9 2.9,1 0.3,0 0.6,0.1 0.9,0.1 0.8,0 1.6,-0.1 2.4,-0.4 1.2,-0.3 2.2,-0.8 3,-1.5 0.8,-0.7 1.4,-1.5 1.9,-2.4 0.4,-0.9 0.7,-1.9 0.8,-2.9 0.1,-1.1 -0.1,-2.1 -0.4,-3.3 -0.3,-1.1 -0.8,-2.2 -1.4,-3 -0.6,-0.9 -1.4,-1.6 -2.2,-2.1 -0.8,-0.5 -1.8,-0.9 -2.9,-1 -0.3,-0.2 -0.6,-0.2 -1,-0.2 z m 0.1,13.5 c -0.3,0 -0.5,0 -0.7,-0.1 C 52,72 51.5,71.7 51.1,71.3 50.7,70.9 50.3,70.5 50,69.9 49.7,69.4 49.4,68.8 49.3,68.1 49.1,67.5 49,66.8 49,66.1 c 0,-0.6 0,-1.3 0.2,-1.8 0.2,-0.6 0.5,-1.1 0.9,-1.5 0.4,-0.4 1,-0.7 1.7,-0.9 0.4,-0.1 0.9,-0.2 1.2,-0.2 0.3,0 0.5,0 0.7,0.1 0.6,0.1 1.1,0.4 1.5,0.8 0.4,0.4 0.8,0.9 1.2,1.4 0.3,0.6 0.6,1.2 0.8,1.8 0.2,0.6 0.3,1.3 0.3,1.9 0,0.6 -0.1,1.2 -0.2,1.8 -0.2,0.5 -0.5,1 -0.9,1.5 -0.4,0.4 -1,0.7 -1.7,0.9 -0.6,0.3 -1,0.3 -1.4,0.3 z" id="path31245"/>
      </g>
      <g id="g31253">
        <path class="st0" d="m 76,53.5 8.9,14.2 -3.5,0.7 -1.9,-3.2 -5.7,1.2 -0.5,3.6 -3.4,0.7 2.7,-16.5 z m 2.1,9.4 -3.1,-5.2 v 0 l -0.9,6 z" id="path31249"/>
        <path class="st0" d="m 76,53.5 8.9,14.2 -3.5,0.7 -1.9,-3.2 -5.7,1.2 -0.5,3.6 -3.4,0.7 2.7,-16.5 3.4,-0.7 m -1.8,10.2 4,-0.8 -3.1,-5.2 v 0 l -0.9,6 m 1.9,-10.4 v 0 L 72.6,54 h -0.1 v 0.1 l -2.7,16.5 v 0.2 H 70 l 3.4,-0.7 h 0.1 V 70 l 0.5,-3.6 5.6,-1.1 1.8,3.1 v 0.1 h 0.1 L 85,67.8 h 0.2 L 85,67.6 Z m -1.8,10.2 0.8,-5.6 2.9,4.8 z" id="path31251"/>
      </g>
      <g id="g31259">
        <path class="st0" d="m 87.6,51.4 0.9,5.9 6.3,-0.9 -0.9,-5.9 3.4,-0.5 2.3,15.5 -3.5,0.5 -1,-6.7 -6.3,0.9 1,6.7 -3.4,0.5 -2.3,-15.5 z" id="path31255"/>
        <path class="st0" d="m 97.3,50 2.3,15.5 -3.5,0.5 -1,-6.7 -6.3,0.9 1,6.7 -3.4,0.5 -2.3,-15.5 3.4,-0.5 0.9,5.9 6.3,-0.9 -0.9,-5.9 3.5,-0.5 m 0.1,-0.2 h -0.1 l -3.4,0.5 h -0.1 v 0.1 l 0.9,5.8 -6,0.9 -0.9,-5.8 v -0.1 h -0.1 l -3.4,0.5 h -0.1 v 0.1 l 2.3,15.5 v 0.1 h 0.1 L 90,66.9 h 0.1 v -0.1 l -1,-6.6 6,-0.9 1,6.6 V 66 h 0.1 l 3.4,-0.5 h 0.1 V 65.4 L 97.4,50 Z" id="path31257"/>
      </g>
      <g id="g31265">
        <path class="st0" d="m 113,48.4 0.3,2.9 -8.2,0.8 0.3,3.3 7.6,-0.7 0.2,2.7 -7.6,0.7 0.4,3.8 8.4,-0.8 0.3,2.9 -11.8,1.1 -1.5,-15.6 z" id="path31261"/>
        <path class="st0" d="m 113,48.4 0.3,2.9 -8.2,0.8 0.3,3.3 7.6,-0.7 0.2,2.7 -7.6,0.7 0.4,3.8 8.4,-0.8 0.3,2.9 -11.8,1.1 -1.5,-15.6 11.6,-1.1 m 0.1,-0.1 H 113 l -11.7,1.1 h -0.1 v 0.1 l 1.5,15.6 v 0.1 h 0.1 l 11.8,-1.1 h 0.1 V 64 l -0.3,-2.9 V 61 h -0.1 l -8.3,0.8 -0.3,-3.6 7.4,-0.7 h 0.1 V 57.4 L 113,54.7 v -0.1 h -0.1 l -7.4,0.7 -0.3,-3.1 8.1,-0.8 h 0.1 v -0.1 l -0.3,-2.9 z" id="path31263"/>
      </g>
      <g id="g31271">
        <path class="st0" d="m 124.4,47.9 6.5,15.4 -3.6,0.1 -1.3,-3.4 -5.9,0.2 -1.1,3.5 -3.5,0.1 5.3,-15.9 z m 0.5,9.6 -2.2,-5.7 v 0 l -1.8,5.8 z" id="path31267"/>
        <path class="st0" d="m 124.4,47.9 6.5,15.4 -3.6,0.1 -1.3,-3.4 -5.9,0.2 -1.1,3.5 -3.5,0.1 5.3,-15.9 h 3.6 m -3.5,9.7 4.1,-0.2 -2.2,-5.7 v 0 l -1.9,5.9 m 3.5,-9.9 v 0 l -3.6,0.1 h -0.1 v 0.1 l -5.3,15.9 -0.1,0.2 h 0.2 l 3.5,-0.1 h 0.1 v -0.1 l 1.1,-3.5 5.7,-0.2 1.3,3.4 v 0.1 h 0.1 l 3.6,-0.1 h 0.2 L 131,63.3 Z m -3.3,9.8 1.7,-5.4 2,5.2 z" id="path31269"/>
      </g>
      <g id="g31277">
        <path class="st0" d="m 139.4,47.7 c 1,0 1.9,0.2 2.8,0.5 0.9,0.3 1.6,0.8 2.2,1.5 0.6,0.7 1.1,1.5 1.5,2.4 0.3,1 0.5,2.1 0.5,3.4 0,1.1 -0.2,2.2 -0.5,3.2 -0.3,1 -0.8,1.8 -1.4,2.5 -0.6,0.7 -1.3,1.2 -2.2,1.6 -0.9,0.4 -1.9,0.6 -3.1,0.6 l -6.8,-0.1 0.2,-15.7 z M 139,60.5 c 0.5,0 1,-0.1 1.5,-0.2 0.5,-0.2 0.9,-0.4 1.3,-0.8 0.4,-0.4 0.7,-0.8 0.9,-1.4 0.2,-0.6 0.3,-1.3 0.4,-2.2 0,-0.8 -0.1,-1.5 -0.2,-2.1 -0.1,-0.6 -0.4,-1.2 -0.7,-1.6 -0.3,-0.5 -0.8,-0.8 -1.4,-1.1 -0.6,-0.2 -1.3,-0.4 -2.1,-0.4 h -2.5 l -0.1,9.9 z" id="path31273"/>
        <path class="st0" d="m 132.7,47.6 6.8,0.1 c 1,0 1.9,0.2 2.8,0.5 0.9,0.3 1.6,0.8 2.2,1.5 0.6,0.7 1.1,1.5 1.5,2.4 0.3,1 0.5,2.1 0.5,3.4 0,1.1 -0.2,2.2 -0.5,3.2 -0.3,1 -0.8,1.8 -1.4,2.5 -0.6,0.7 -1.3,1.2 -2.2,1.6 -0.9,0.4 -1.9,0.6 -3,0.6 0,0 -0.1,0 -0.1,0 l -6.8,-0.1 0.2,-15.7 m 6.4,12.9 c 0.5,0 0.9,-0.1 1.4,-0.2 0.5,-0.2 0.9,-0.4 1.3,-0.8 0.4,-0.4 0.7,-0.8 0.9,-1.4 0.2,-0.6 0.3,-1.3 0.4,-2.2 0,-0.8 -0.1,-1.5 -0.2,-2.1 -0.1,-0.6 -0.4,-1.2 -0.7,-1.6 -0.3,-0.5 -0.8,-0.8 -1.4,-1.1 -0.6,-0.2 -1.3,-0.4 -2.1,-0.4 h -2.5 l -0.1,9.9 3,-0.1 c -0.1,0 0,0 0,0 m -6.5,-13 v 0.1 l -0.2,15.7 v 0.1 h 0.1 l 6.8,0.1 h 0.1 c 1.1,0 2.2,-0.2 3,-0.6 0.9,-0.4 1.7,-1 2.3,-1.7 0.6,-0.7 1.1,-1.6 1.4,-2.5 0.3,-1 0.5,-2 0.5,-3.2 0,-1.3 -0.1,-2.5 -0.5,-3.5 -0.4,-1 -0.9,-1.8 -1.5,-2.5 -0.6,-0.7 -1.4,-1.2 -2.3,-1.5 -0.9,-0.3 -1.8,-0.5 -2.9,-0.5 l -6.8,-0.1 z m 3.5,12.8 0.1,-9.6 h 2.3 c 0.8,0 1.5,0.1 2.1,0.4 0.6,0.2 1,0.6 1.3,1 0.3,0.4 0.6,1 0.7,1.6 0.1,0.6 0.2,1.3 0.2,2.1 0,0.8 -0.1,1.6 -0.4,2.1 -0.2,0.6 -0.5,1 -0.9,1.4 -0.4,0.4 -0.8,0.6 -1.2,0.8 -0.4,0.1 -0.9,0.2 -1.4,0.2 h -0.1 z" id="path31275"/>
      </g>
      <g id="g31283">
        <path class="st0" d="m 168.5,49.5 -0.3,2.9 -8.2,-0.7 -0.3,3.3 7.6,0.7 -0.2,2.7 -7.6,-0.7 -0.3,3.8 8.4,0.8 -0.3,2.9 -11.9,-1.2 1.4,-15.6 z" id="path31279"/>
        <path class="st0" d="m 156.8,48.4 11.7,1.1 -0.3,2.9 -8.2,-0.7 -0.3,3.3 7.6,0.7 -0.2,2.7 -7.6,-0.7 -0.3,3.8 8.4,0.8 -0.3,2.9 -11.9,-1.2 1.4,-15.6 m -0.1,-0.1 v 0.1 L 155.3,64 v 0.1 h 0.1 l 11.8,1.1 h 0.1 v -0.1 l 0.3,-2.9 v -0.1 h -0.1 l -8.3,-0.7 0.3,-3.6 7.4,0.7 h 0.1 v -0.1 l 0.2,-2.7 v -0.1 h -0.1 l -7.4,-0.7 0.3,-3.1 8.1,0.7 h 0.1 v -0.1 l 0.3,-2.9 v -0.1 h -0.1 z" id="path31281"/>
      </g>
      <g id="g31289">
        <path class="st0" d="m 179.7,51 3.6,16.3 -3.5,-0.5 -0.7,-3.6 -5.8,-0.8 -1.7,3.3 -3.4,-0.5 8.1,-14.7 z m -1.1,9.5 -1.1,-6 v 0 l -2.8,5.4 z" id="path31285"/>
        <path class="st0" d="m 176.2,50.5 3.5,0.5 3.6,16.3 -3.5,-0.5 -0.7,-3.6 -5.8,-0.8 -1.7,3.3 -3.4,-0.5 8,-14.7 m 2.4,10 -1.1,-6 v 0 l -2.8,5.4 3.9,0.6 m -2.4,-10.1 v 0 l -8.2,14.7 -0.1,0.2 h 0.2 l 3.4,0.5 h 0.1 v -0.1 l 1.7,-3.2 5.6,0.8 0.7,3.5 v 0.1 h 0.1 l 3.5,0.5 h 0.2 V 67.2 L 179.8,51 v -0.1 h -0.1 z m -1.5,9.5 2.6,-5 1.1,5.5 z" id="path31287"/>
      </g>
      <g id="g31295">
        <path class="st0" d="m 194,69.3 c -0.8,0.2 -1.6,0.2 -2.3,0 -1.2,-0.2 -2.2,-0.6 -3.1,-1.2 -0.9,-0.6 -1.5,-1.3 -2,-2.2 -0.5,-0.8 -0.8,-1.8 -1,-2.8 -0.2,-1 -0.1,-2.1 0.1,-3.2 0.2,-1.1 0.6,-2.2 1.2,-3.1 0.5,-0.9 1.2,-1.7 2,-2.3 0.8,-0.6 1.7,-1 2.7,-1.2 1,-0.2 2.1,-0.2 3.3,0 0.8,0.2 1.5,0.4 2.2,0.8 0.7,0.4 1.3,0.9 1.8,1.4 0.5,0.6 0.9,1.2 1.1,2 0.3,0.8 0.3,1.6 0.2,2.5 L 197,59.4 c 0,-0.9 -0.3,-1.6 -0.8,-2.2 -0.5,-0.5 -1.1,-0.9 -2,-1.1 -0.8,-0.2 -1.4,-0.1 -2,0.1 -0.6,0.2 -1.1,0.5 -1.5,0.9 -0.4,0.4 -0.8,0.9 -1.1,1.5 -0.3,0.6 -0.5,1.2 -0.6,1.9 -0.1,0.6 -0.2,1.3 -0.1,1.9 0,0.6 0.2,1.2 0.4,1.8 0.2,0.6 0.6,1 1.1,1.4 0.5,0.4 1.1,0.7 1.8,0.8 1.1,0.2 2,0.1 2.8,-0.3 0.7,-0.4 1.2,-1.2 1.6,-2.3 l -3.4,-0.7 0.5,-2.5 6.5,1.3 -1.7,8.3 -2.2,-0.4 V 68 c -0.7,0.7 -1.5,1.1 -2.3,1.3 z" id="path31291"/>
        <path class="st0" d="m 193.2,53.1 c 0.6,0 1.1,0.1 1.7,0.2 0.8,0.2 1.5,0.4 2.2,0.8 0.7,0.4 1.3,0.9 1.8,1.4 0.5,0.6 0.9,1.2 1.1,2 0.3,0.8 0.3,1.6 0.2,2.5 L 197,59.4 c 0,-0.9 -0.3,-1.6 -0.8,-2.2 -0.5,-0.5 -1.1,-0.9 -2,-1.1 -0.3,-0.1 -0.7,-0.1 -1,-0.1 -0.4,0 -0.7,0.1 -1.1,0.2 -0.6,0.2 -1.1,0.5 -1.5,0.9 -0.4,0.4 -0.8,0.9 -1.1,1.5 -0.3,0.6 -0.5,1.2 -0.6,1.9 -0.1,0.6 -0.2,1.3 -0.1,1.9 0,0.6 0.2,1.2 0.4,1.8 0.2,0.6 0.6,1 1.1,1.4 0.5,0.4 1.1,0.7 1.8,0.8 0.4,0.1 0.7,0.1 1.1,0.1 0.7,0 1.2,-0.1 1.7,-0.4 0.7,-0.4 1.2,-1.2 1.6,-2.3 l -3.4,-0.7 0.5,-2.5 6.5,1.3 -1.7,8.3 -2.2,-0.4 V 68 c -0.8,0.7 -1.5,1.1 -2.3,1.2 -0.4,0.1 -0.8,0.1 -1.2,0.1 -0.4,0 -0.7,0 -1.1,-0.1 -1.2,-0.2 -2.2,-0.6 -3.1,-1.2 -0.9,-0.6 -1.5,-1.3 -2,-2.2 -0.5,-0.8 -0.8,-1.8 -1,-2.8 -0.2,-1 -0.1,-2.1 0.1,-3.2 0.2,-1.1 0.6,-2.2 1.2,-3.1 0.5,-0.9 1.2,-1.7 2,-2.3 0.8,-0.6 1.7,-1 2.7,-1.2 0.6,-0.1 1.1,-0.1 1.7,-0.1 m 0,-0.1 c -0.5,0 -1.1,0.1 -1.6,0.2 -1,0.2 -2,0.7 -2.8,1.3 -0.8,0.6 -1.5,1.4 -2,2.3 -0.5,0.9 -0.9,2 -1.2,3.1 -0.2,1.1 -0.3,2.2 -0.1,3.3 0.2,1 0.5,2 1,2.9 0.5,0.9 1.2,1.6 2.1,2.2 0.9,0.6 1.9,1 3.1,1.3 0.4,0.1 0.7,0.1 1.1,0.1 0.4,0 0.8,0 1.2,-0.1 0.7,-0.2 1.5,-0.5 2.2,-1.1 V 70.1 70 h 0.1 l 2.2,0.4 h 0.1 v -0.1 l 1.7,-8.3 v -0.1 h -0.1 l -6.5,-1.3 h -0.1 v 0.1 l -0.5,2.5 v 0.1 h 0.1 l 3.3,0.7 c -0.3,1 -0.8,1.6 -1.5,2.1 -0.5,0.3 -1,0.4 -1.6,0.4 -0.3,0 -0.7,0 -1,-0.1 -0.7,-0.1 -1.3,-0.4 -1.8,-0.8 -0.5,-0.4 -0.8,-0.9 -1,-1.4 -0.2,-0.5 -0.4,-1.1 -0.4,-1.7 0,-0.6 0,-1.3 0.1,-1.9 0.1,-0.7 0.3,-1.3 0.6,-1.9 0.3,-0.6 0.6,-1.1 1,-1.5 0.4,-0.4 0.9,-0.7 1.5,-0.9 0.3,-0.1 0.7,-0.2 1,-0.2 0.3,0 0.6,0 0.9,0.1 0.8,0.2 1.4,0.5 1.9,1 0.5,0.5 0.7,1.2 0.7,2.1 v 0.1 h 0.1 l 3.2,0.6 h 0.1 v -0.1 c 0.1,-0.9 0,-1.8 -0.3,-2.5 -0.3,-0.8 -0.6,-1.4 -1.2,-2 -0.5,-0.6 -1.1,-1.1 -1.8,-1.5 -0.7,-0.4 -1.5,-0.7 -2.3,-0.8 -0.4,-0.1 -1,-0.1 -1.5,-0.1 z" id="path31293"/>
      </g>
      <g id="g31301">
        <path class="st0" d="m 208.6,56.7 -3.1,12.4 7.4,1.9 -0.7,2.8 -10.8,-2.8 3.8,-15.2 z" id="path31297"/>
        <path class="st0" d="m 205.3,55.9 3.3,0.8 -3.1,12.4 7.4,1.9 -0.7,2.8 -10.8,-2.8 3.9,-15.1 m -0.1,-0.2 v 0.1 L 201.3,71 v 0.1 h 0.1 l 10.7,2.7 h 0.1 V 73.7 L 213,71 v -0.1 h -0.1 l -7.3,-1.8 3.1,-12.3 v -0.1 h -0.1 l -3.3,-0.8 z" id="path31299"/>
      </g>
      <g id="g31307">
        <path class="st0" d="m 230,62.8 -0.8,2.8 -7.9,-2.4 -1,3.2 7.3,2.2 -0.8,2.6 -7.3,-2.2 -1.1,3.7 8.1,2.5 -0.8,2.8 -11.4,-3.5 4.6,-15 z" id="path31303"/>
        <path class="st0" d="m 218.8,59.4 11.2,3.4 -0.8,2.8 -7.9,-2.4 -1,3.2 7.3,2.2 -0.8,2.6 -7.3,-2.2 -1.1,3.7 8.1,2.5 -0.8,2.8 -11.4,-3.5 4.5,-15.1 m -0.1,-0.2 v 0.1 l -4.6,15 v 0.1 h 0.1 l 11.4,3.5 h 0.1 v -0.1 l 0.8,-2.8 v -0.1 h -0.1 l -8,-2.4 1,-3.4 7.1,2.2 h 0.1 v -0.1 l 0.8,-2.6 v -0.1 h -0.1 l -7.1,-2.2 0.9,-3 7.8,2.4 h 0.1 v -0.1 l 0.8,-2.8 v -0.1 h -0.1 l -11.2,-3.4 z" id="path31305"/>
      </g>
      <g id="g31313">
        <path class="st0" d="m 231.9,75.9 c 0.1,0.4 0.2,0.8 0.4,1.1 0.2,0.3 0.5,0.6 0.9,0.8 0.4,0.2 0.8,0.4 1.2,0.6 0.3,0.1 0.6,0.2 1,0.3 0.3,0.1 0.7,0.1 1,0.1 0.3,0 0.6,-0.1 0.9,-0.3 0.3,-0.2 0.5,-0.4 0.6,-0.8 0.1,-0.4 0.1,-0.8 0,-1.1 -0.2,-0.3 -0.4,-0.7 -0.8,-1 -0.4,-0.3 -0.8,-0.6 -1.3,-0.9 -0.5,-0.3 -1,-0.6 -1.4,-1 -0.5,-0.3 -1,-0.7 -1.4,-1.1 -0.5,-0.4 -0.8,-0.8 -1.1,-1.3 -0.3,-0.5 -0.5,-1 -0.6,-1.5 -0.1,-0.6 0,-1.2 0.2,-1.9 0.3,-0.8 0.7,-1.4 1.2,-1.8 0.5,-0.4 1.1,-0.8 1.8,-0.9 0.7,-0.1 1.3,-0.2 2.1,-0.2 0.7,0.1 1.4,0.2 2.1,0.4 0.8,0.3 1.5,0.6 2.1,1.1 0.6,0.4 1.2,0.9 1.6,1.5 0.4,0.6 0.7,1.2 0.8,1.9 0.1,0.7 0,1.5 -0.3,2.4 l -3.1,-1.1 c 0.1,-0.5 0.2,-0.8 0.1,-1.2 -0.1,-0.3 -0.2,-0.6 -0.4,-0.9 -0.2,-0.3 -0.5,-0.5 -0.8,-0.7 -0.3,-0.2 -0.7,-0.4 -1.1,-0.5 -0.3,-0.1 -0.5,-0.2 -0.8,-0.2 -0.3,0 -0.6,0 -0.8,0 -0.3,0.1 -0.5,0.2 -0.7,0.3 -0.2,0.2 -0.4,0.4 -0.5,0.7 -0.1,0.3 -0.1,0.5 -0.1,0.8 0,0.2 0.2,0.5 0.5,0.7 0.3,0.3 0.7,0.6 1.2,0.9 0.5,0.4 1.2,0.8 2,1.4 0.3,0.2 0.6,0.4 1,0.7 0.4,0.3 0.8,0.7 1.2,1.2 0.4,0.5 0.6,1.1 0.8,1.7 0.2,0.7 0.1,1.4 -0.2,2.2 -0.2,0.7 -0.6,1.3 -1.1,1.7 -0.5,0.5 -1,0.8 -1.7,1.1 -0.7,0.2 -1.4,0.3 -2.3,0.3 -0.8,0 -1.8,-0.2 -2.8,-0.6 -0.8,-0.3 -1.6,-0.7 -2.3,-1.1 -0.7,-0.5 -1.3,-1 -1.7,-1.7 -0.4,-0.6 -0.7,-1.3 -0.8,-2.1 -0.1,-0.8 0,-1.6 0.3,-2.5 l 3.1,1.1 c 0,0.5 -0.1,1 0,1.4 z" id="path31309"/>
        <path class="st0" d="m 236,64.9 c 0.2,0 0.3,0 0.5,0 0.7,0.1 1.4,0.2 2.1,0.4 0.8,0.3 1.5,0.6 2.1,1.1 0.6,0.4 1.2,0.9 1.6,1.5 0.4,0.6 0.7,1.2 0.8,1.9 0.1,0.7 0,1.5 -0.3,2.4 l -3.1,-1.1 c 0.1,-0.5 0.2,-0.8 0.1,-1.2 -0.1,-0.3 -0.2,-0.6 -0.4,-0.9 -0.2,-0.3 -0.5,-0.5 -0.8,-0.7 -0.3,-0.2 -0.7,-0.4 -1.1,-0.5 -0.3,-0.1 -0.5,-0.2 -0.8,-0.2 -0.1,0 -0.2,0 -0.3,0 -0.2,0 -0.3,0 -0.5,0.1 -0.3,0.1 -0.5,0.2 -0.7,0.3 -0.2,0.2 -0.4,0.4 -0.5,0.7 -0.1,0.3 -0.1,0.5 -0.1,0.8 0,0.2 0.2,0.5 0.5,0.7 0.3,0.3 0.7,0.6 1.2,0.9 0.5,0.4 1.2,0.8 2,1.4 0.3,0.2 0.6,0.4 1,0.7 0.4,0.3 0.8,0.7 1.2,1.2 0.4,0.5 0.6,1.1 0.8,1.7 0.2,0.7 0.1,1.4 -0.2,2.2 -0.2,0.7 -0.6,1.3 -1.1,1.7 -0.5,0.5 -1,0.8 -1.7,1.1 -0.6,0.2 -1.2,0.3 -1.9,0.3 -0.1,0 -0.2,0 -0.4,0 -0.8,0 -1.8,-0.2 -2.8,-0.6 -0.8,-0.3 -1.6,-0.7 -2.3,-1.1 -0.7,-0.5 -1.3,-1 -1.7,-1.7 -0.4,-0.6 -0.7,-1.3 -0.8,-2.1 -0.1,-0.8 0,-1.6 0.3,-2.5 l 3.1,1.1 c -0.2,0.5 -0.2,0.9 -0.2,1.4 0.1,0.4 0.2,0.8 0.4,1.1 0.2,0.3 0.5,0.6 0.9,0.8 0.4,0.2 0.8,0.4 1.2,0.6 0.3,0.1 0.6,0.2 1,0.3 0.2,0 0.5,0.1 0.7,0.1 0.1,0 0.2,0 0.3,0 0.3,0 0.6,-0.1 0.9,-0.3 0.3,-0.2 0.5,-0.4 0.6,-0.8 0.1,-0.4 0.1,-0.8 0,-1.1 -0.2,-0.3 -0.4,-0.7 -0.8,-1 -0.4,-0.3 -0.8,-0.6 -1.3,-0.9 -0.5,-0.3 -1,-0.6 -1.4,-1 -0.5,-0.3 -1,-0.7 -1.4,-1.1 -0.5,-0.4 -0.8,-0.8 -1.1,-1.3 -0.3,-0.5 -0.5,-1 -0.6,-1.5 -0.1,-0.6 0,-1.2 0.2,-1.9 0.3,-0.8 0.7,-1.4 1.2,-1.8 0.5,-0.4 1.1,-0.8 1.8,-0.9 0.7,-0.2 1.2,-0.3 1.8,-0.3 m 0,-0.1 c -0.6,0 -1.1,0.1 -1.6,0.2 -0.7,0.2 -1.3,0.5 -1.8,1 -0.5,0.5 -0.9,1.1 -1.2,1.9 -0.2,0.7 -0.3,1.3 -0.2,1.9 0.1,0.6 0.3,1.1 0.6,1.6 0.3,0.5 0.7,0.9 1.2,1.3 0.5,0.4 0.9,0.8 1.4,1.1 0.5,0.3 1,0.7 1.4,1 0.5,0.3 0.9,0.6 1.2,0.9 0.3,0.3 0.6,0.6 0.8,0.9 0.2,0.3 0.2,0.6 0,1 -0.1,0.3 -0.3,0.6 -0.6,0.8 -0.3,0.2 -0.6,0.3 -0.9,0.3 -0.1,0 -0.2,0 -0.3,0 -0.2,0 -0.4,0 -0.7,-0.1 -0.3,-0.1 -0.7,-0.2 -0.9,-0.3 -0.4,-0.1 -0.8,-0.3 -1.2,-0.6 -0.3,-0.2 -0.6,-0.5 -0.8,-0.8 -0.2,-0.3 -0.3,-0.7 -0.4,-1 -0.1,-0.4 0,-0.8 0.2,-1.3 v -0.1 h -0.1 L 229,73.4 h -0.1 v 0.1 c -0.3,0.9 -0.5,1.8 -0.4,2.6 0.1,0.8 0.4,1.5 0.8,2.2 0.4,0.6 1,1.2 1.7,1.7 0.7,0.5 1.5,0.9 2.3,1.2 1,0.4 2,0.6 2.8,0.6 0.1,0 0.2,0 0.4,0 0.7,0 1.4,-0.1 2,-0.3 0.7,-0.2 1.3,-0.6 1.7,-1.1 0.5,-0.5 0.8,-1.1 1.1,-1.8 0.3,-0.8 0.4,-1.6 0.2,-2.3 -0.2,-0.7 -0.4,-1.3 -0.8,-1.8 -0.4,-0.5 -0.8,-0.9 -1.2,-1.2 -0.4,-0.3 -0.8,-0.6 -1,-0.7 -0.8,-0.6 -1.5,-1 -2,-1.4 -0.5,-0.3 -0.9,-0.7 -1.2,-0.9 -0.3,-0.2 -0.4,-0.5 -0.4,-0.7 0,-0.2 0,-0.4 0.1,-0.7 0.1,-0.3 0.3,-0.5 0.4,-0.7 0.2,-0.1 0.4,-0.2 0.7,-0.3 0.2,0 0.3,-0.1 0.5,-0.1 0.1,0 0.2,0 0.3,0 0.3,0 0.5,0.1 0.8,0.2 0.4,0.1 0.7,0.3 1,0.5 0.3,0.2 0.5,0.4 0.7,0.6 0.2,0.2 0.3,0.5 0.4,0.9 0.1,0.3 0,0.7 -0.1,1.1 v 0.1 h 0.1 l 3.1,1.1 h 0.1 v -0.1 c 0.3,-0.9 0.4,-1.7 0.3,-2.4 -0.1,-0.7 -0.4,-1.4 -0.8,-2 -0.4,-0.6 -1,-1.1 -1.6,-1.5 -0.7,-0.4 -1.4,-0.8 -2.2,-1.1 -0.7,-0.2 -1.4,-0.4 -2.1,-0.4 -0.3,0 -0.4,0 -0.6,0 z" id="path31311"/>
      </g>
    </g>
    <path class="st3" d="m 361.06441,557.98337 c -11.65276,0 -22.63324,5.82638 -29.1319,15.46232 0,0 0,0.11204 -0.11204,0.11204 0,0.11205 -0.11205,0.11205 -0.11205,0.22409 0,0 0,0 0,0.11205 -0.44818,0.67227 -0.89636,1.45659 -1.34455,2.24091 -2.91319,5.15411 -4.36978,11.09253 -4.36978,17.03096 0,19.38392 15.79845,35.18237 35.18237,35.18237 19.38391,0 35.18237,-15.79845 35.18237,-35.18237 -0.11205,-19.38392 -15.79846,-35.18237 -35.29442,-35.18237 z" id="path31317" style="fill:#ffffff;stroke-width:1.12046"/>
    <g id="g31323" transform="matrix(1.1204576,0,0,1.1204576,211.48332,369.07422)">
      <path class="st4" d="m 168,146.9 c -0.3,0 -1,-0.1 -1.4,-1 -0.3,-0.7 -0.1,-1.5 0.6,-1.9 0.2,-0.2 0.5,-0.2 0.8,-0.2 0.4,0 0.8,0.2 1.1,0.5 0.4,0.5 0.5,1.1 0.3,1.7 -0.3,0.5 -0.8,0.9 -1.4,0.9 z" id="path31319"/>
      <path class="st3" d="m 167.9,145.3 c 0,0.1 0.1,0.1 0.1,0.1 0,0 -0.1,-0.1 -0.1,-0.1 m 0,-3 c -0.6,0 -1.1,0.2 -1.6,0.5 -1.3,0.8 -1.7,2.4 -1.1,3.8 0.8,1.7 2.3,1.9 2.8,1.9 1.2,0 2.2,-0.7 2.7,-1.7 0.5,-1.1 0.3,-2.4 -0.5,-3.3 -0.6,-0.9 -1.4,-1.2 -2.3,-1.2 z" id="path31321"/>
    </g>
    <g id="g31329" transform="matrix(1.1204576,0,0,1.1204576,211.48332,369.07422)">
      <path class="st4" d="m 158.5,155.5 c -1,0 -1.5,-0.9 -1.7,-1.4 -0.2,-0.7 0.1,-1.4 0.7,-1.7 0.2,-0.1 0.5,-0.2 0.7,-0.2 0.4,0 0.9,0.2 1.2,0.5 0.3,0.3 0.9,1 0.5,1.9 -0.3,0.6 -0.8,0.9 -1.4,0.9 z" id="path31325"/>
      <path class="st3" d="m 158.3,153.7 c 0.2,0.3 0.3,0.3 0.2,0.3 0,0 -0.2,-0.2 -0.2,-0.3 m 0,-3 c -0.5,0 -1,0.1 -1.4,0.3 -1.3,0.7 -1.9,2.1 -1.5,3.5 0.3,1.2 1.5,2.5 3.1,2.5 1.2,0 2.2,-0.7 2.7,-1.7 0.5,-1.2 0.3,-2.4 -0.7,-3.5 -0.5,-0.8 -1.4,-1.1 -2.2,-1.1 z" id="path31327"/>
    </g>
    <path class="st5" d="m 410.92478,519.55168 c 0.11204,0 0.33613,0 0.44818,0 5.60229,-0.56023 12.54912,-3.58547 17.143,-7.73116 2.57705,-2.24092 4.25774,-4.81797 5.15411,-7.28298 -5.71434,2.12887 -19.04778,3.58547 -22.29711,1.90478 0,0 -0.44818,-0.44818 -0.56023,-0.67227 5.15411,-2.91319 9.07571,-6.27457 12.10094,-10.08412 3.9216,-5.15411 5.93843,-11.09253 5.93843,-17.70323 -7.17093,8.73957 -15.23823,12.10094 -19.15983,12.66117 1.34455,-1.79273 2.46501,-3.36137 3.24933,-4.81797 1.12046,-2.46501 2.24091,-5.82638 2.91319,-9.74798 0.78432,-4.93001 0.33614,-9.52389 -1.12046,-13.55754 -2.24091,6.27456 -10.19616,17.70323 -14.00572,18.93574 1.12046,-4.36979 1.79273,-8.73957 1.68069,-12.43708 -0.11205,-3.24933 -0.67228,-5.71434 -1.79273,-7.50707 -3.02524,14.11777 -12.88527,21.2887 -18.82369,25.54644 -2.24092,1.56864 -3.9216,2.80114 -4.36979,3.80955 -0.56023,1.2325 -0.56023,2.57705 0,4.03365 0.67228,1.79273 2.01683,3.24933 2.80115,3.58546 0.89636,0.33614 1.79273,0.67228 2.80114,1.00841 3.24933,1.00842 6.72275,2.12887 7.05888,5.60229 0.11205,0.89637 -0.67227,3.24933 -1.68068,4.03365 -0.33614,0.22409 -0.67228,0.33614 -0.89637,0.22409 -0.33614,-0.11204 -0.67227,-0.22409 -0.89636,-0.22409 -0.33614,0 -0.78432,-0.11205 -1.23251,-0.11205 -0.56023,-0.11204 -1.2325,-0.22409 -2.12887,-0.22409 -0.89636,0 -1.56864,0.11205 -2.24091,0.33614 -0.33614,0.11205 -0.67228,0.11205 -0.89637,0.11205 -0.78432,0.22409 -1.68068,0.33613 -2.57705,-0.11205 v 0 c -0.33614,-0.22409 -0.67228,-0.44818 -1.00841,-0.67227 -0.56023,-0.89637 -1.23251,-1.56865 -1.90478,-2.24092 -1.2325,-1.34455 -2.35296,-2.46501 -1.90478,-3.9216 h 0.11205 c 1.45659,0.44818 2.6891,0.78432 3.58546,0.33614 l 0.11205,-0.11205 -0.11205,-0.11205 c -2.24091,-2.68909 -3.02523,-4.59387 -2.6891,-6.49865 0.56023,0 1.12046,0.11205 1.56864,0.22409 h 0.11205 v -0.22409 c -0.67227,-0.89637 -0.89637,-3.13728 -1.12046,-5.26615 -0.22409,-1.90478 -0.44818,-3.80956 -1.00841,-4.59388 1.4566,-0.44818 2.35296,-0.67227 3.80956,-0.44818 l 0.11204,-0.22409 c -1.56864,-0.78432 -2.6891,-2.46501 -3.9216,-4.03365 -0.44818,-0.56023 -0.78432,-1.12046 -1.12046,-1.56864 1.56864,-0.89637 2.35296,-2.12887 2.46501,-3.80956 l -0.22409,-0.11204 c -1.00841,1.12046 -3.02524,2.01682 -4.93002,1.45659 -0.33613,-0.22409 -0.67227,-0.44818 -0.89636,-0.67227 -8.62753,-3.69751 -10.75639,-2.12887 -12.43708,1.68069 0,0 -0.22409,0.44818 -0.22409,0.44818 -0.78432,-0.11205 -1.34455,-0.33614 -1.90478,-0.22409 -5.3782,0.78432 -3.02524,6.05047 -3.02524,6.05047 1.56864,-3.13728 6.6107,-1.23251 6.49866,1.56864 0,0 0,0 -0.11205,0.11204 -0.56023,0.33614 -1.45659,0.67228 -2.465,0.78433 -1.00842,0.11204 -1.90478,0 -2.35297,-0.33614 -0.11204,0 -0.11204,-0.11205 -0.11204,-0.11205 l -0.67228,0.33614 c 0,0.11205 0,0.33614 0.11205,0.67227 0,0.33614 0,0.56023 0.11205,0.78432 v 0.11205 c 0.22409,0.56023 0.67227,1.12046 1.12045,1.45659 0.44819,0.33614 1.00842,0.44819 1.68069,0.44819 v 0 c 1.2325,-0.22409 2.01682,-0.44819 2.57705,-0.67228 0.56023,-0.22409 0.89637,-0.44818 1.00841,-0.56023 0.11205,0 0.11205,0 0.11205,-0.11204 -0.11205,3.9216 -3.47342,5.04206 -6.05047,5.26615 -0.89637,0 -1.56864,-0.11205 -2.01682,-0.11205 h -0.11205 v 0.11205 c 0.44818,1.45659 1.34455,2.01682 2.01682,2.46501 0.22409,0.11204 0.44819,0.33613 0.56023,0.44818 0,0 0,0 0,0.11205 -0.67227,0.89636 -2.80114,1.2325 -4.48183,0.56022 l -0.11204,-0.11204 v 0.11204 c -0.11205,1.56864 1.90477,2.46501 2.80114,2.91319 0.11205,0 0.22409,0.11205 0.33614,0.11205 0,0 -0.11205,0 -0.11205,0 v 0 0 c -1.45659,0.89637 -2.01682,2.12887 -2.80114,3.47342 -0.67228,1.45659 -1.4566,3.02523 -3.36138,4.70592 -0.78432,0.22409 -1.45659,0.11205 -2.12886,-0.11205 -0.33614,0 -0.56023,-0.11204 -0.89637,-0.11204 -0.67228,-0.11205 -1.34455,-0.22409 -2.24092,-0.33614 -0.89636,0 -1.56864,0.11205 -2.12887,0.22409 -0.44818,0.11205 -0.89636,0.11205 -1.2325,0.11205 -0.33614,0.11204 -0.56023,0.11204 -0.89637,0.22409 -0.33613,0.11205 -0.67227,0 -0.89636,-0.22409 -1.00841,-0.78432 -1.79273,-3.13728 -1.68069,-4.03365 0.33614,-3.47342 3.80956,-4.59388 7.05889,-5.60229 1.00841,-0.33613 1.90477,-0.67227 2.80114,-1.00841 0.78432,-0.33614 2.12887,-1.90478 2.80114,-3.58546 0.56023,-1.4566 0.56023,-2.80115 0,-4.03365 -0.44818,-1.00841 -2.12887,-2.12887 -4.36978,-3.80956 -5.93843,-4.25774 -15.79845,-11.42866 -18.82369,-25.54643 -1.00841,1.68068 -1.68069,4.25774 -1.79273,7.50706 -0.11205,3.69752 0.44818,8.17935 1.68069,12.43709 -0.89637,0 -1.12046,-0.2241 -1.12046,-0.2241 -5.3782,-4.03364 -10.64435,-12.43708 -12.88527,-18.71164 -1.56864,4.03365 -1.90478,8.62753 -1.12045,13.55754 0.56022,3.9216 1.79273,7.28297 2.91318,9.74798 0.89637,1.4566 2.01683,3.02524 3.24933,4.81797 -3.9216,-0.67228 -12.10094,-4.03365 -19.15982,-12.66117 0.11204,6.6107 2.01682,12.54912 5.93842,17.70323 2.91319,3.80955 6.94684,7.17093 12.10095,10.08412 -0.22409,0.22409 -0.67228,0.56022 -0.56023,0.67227 -3.24933,1.56864 -16.58278,0.22409 -22.29711,-1.90478 0.78432,2.57705 2.57705,5.04206 5.1541,7.28298 4.59388,4.14569 11.54072,7.17093 17.14301,7.73115 0.11204,0 0.33614,0 0.44818,0 0.67228,0 1.4566,0.11205 2.12887,0 -0.11205,0.56023 -0.78432,1.23251 -1.68069,1.90478 -2.24091,2.12887 -5.1541,4.25774 -8.29138,6.05047 -3.69751,2.01683 -7.39502,3.24933 -10.64435,3.69751 1.45659,1.12046 3.13728,2.12887 5.1541,2.80115 2.57706,0.89636 5.60229,1.45659 8.85162,1.45659 6.05047,0.11205 12.10094,-1.34455 15.79845,-3.80955 -0.22409,0.44818 0.22409,0.11204 -0.11204,1.34455 -1.79274,4.48183 -18.37551,18.71164 -25.77053,20.16823 h -0.22409 l 0.11204,0.11205 c 5.26615,1.68068 11.20458,1.68068 17.14301,0 6.49865,-1.90478 14.22981,-6.72275 19.60801,-12.10094 -0.44819,4.93001 -5.82638,11.87685 -8.17934,15.01413 -0.2241,0.33614 -0.44819,0.56023 -0.56023,0.78432 2.68909,-1.12046 6.49865,-3.36137 10.08411,-6.16252 3.69752,-2.91319 10.30821,-8.73957 13.2214,-15.57436 0,-0.22409 1.12046,-0.44818 1.12046,-0.44818 0.22409,0.67227 0.44819,1.45659 0.78432,2.12887 1.12046,3.02523 2.24092,6.27456 0.89637,8.85161 -0.89637,1.68069 -2.80115,3.02524 -5.82638,3.80956 h -0.22409 l 0.11204,0.11204 c 0.11205,0.11205 0.33614,0.2241 0.44819,0.33614 0.56023,0.44818 1.2325,0.89637 1.2325,1.34455 0,0.22409 -0.11205,0.44818 -0.33614,0.67227 -4.93001,4.48184 -7.8432,6.94684 -15.9105,12.43708 l -0.11204,0.11205 0.11204,0.11205 c 0.2241,0.11204 0.44819,0.11204 0.56023,0.22409 0.44819,0.11204 0.78432,0.33613 1.12046,0.44818 1.00841,0.33614 2.12887,0.56023 3.24933,0.78432 1.68068,0.33614 3.36137,0.78432 5.1541,1.34455 h 0.11205 v -0.11205 c 0,0 0,0 0,0 5.82638,1.23251 13.2214,2.35296 19.27187,1.90478 3.69751,-0.33614 13.2214,-0.78432 21.28869,-2.01682 0,0 0,0.11204 0,0.11204 v 0.11205 h 0.11205 c 0.78432,-0.22409 1.68069,-0.44818 2.46501,-0.67228 3.13728,-0.56022 5.82638,-1.2325 7.73115,-2.12886 l 0.11205,-0.11205 -0.11205,-0.11205 c -8.06729,-5.49024 -11.09253,-7.95524 -15.91049,-12.43708 -0.2241,-0.22409 -0.33614,-0.44818 -0.33614,-0.67227 0,-0.44818 0.67227,-1.00841 1.2325,-1.34455 0.11205,-0.11204 0.33614,-0.22409 0.44819,-0.33614 l 0.11204,-0.11204 h -0.22409 c -3.02524,-0.89637 -4.93001,-2.12887 -5.82638,-3.80956 -1.34455,-2.57705 -0.22409,-5.82638 0.89637,-8.85161 0.22409,-0.78432 0.56022,-1.4566 0.78432,-2.12887 l 1.12045,0.44818 c 2.91319,6.83479 9.52389,12.66117 13.2214,15.57436 3.58547,2.80115 7.39502,5.04206 10.08412,6.16252 -0.11204,-0.22409 -0.33614,-0.44818 -0.56023,-0.78432 -2.35296,-3.02524 -7.73115,-10.08412 -8.17934,-15.01413 5.3782,5.37819 13.10936,10.30821 19.60801,12.10094 5.93843,1.68068 11.87685,1.68068 17.143,0 l 0.11205,-0.11205 h -0.22409 c -7.50707,-1.45659 -24.20189,-17.03095 -26.10667,-21.62483 0.11205,0 0.11205,0.11205 0.2241,0.11205 0,0 0,-0.11205 0,-0.11205 3.80955,2.46501 9.74798,3.9216 15.79845,3.80956 3.24932,-0.11205 6.27456,-0.56023 8.85161,-1.4566 2.01683,-0.67227 3.69751,-1.68068 5.15411,-2.80114 -3.24933,-0.44819 -6.94684,-1.68069 -10.64435,-3.69751 -3.24933,-1.79273 -6.16252,-3.80956 -8.29139,-6.05047 -0.89636,-0.67228 -1.56864,-1.34455 -1.68068,-1.90478 0.44818,0.33614 1.12046,0.33614 1.90478,0.33614 z" id="path31331" style="clip-rule:evenodd;fill:#ffffff;fill-rule:evenodd;stroke-width:1.12046"/>
    <path class="st3" d="m 400.50452,461.62401 c 1.00841,1.68069 1.68069,4.25774 1.79273,7.50707 0.11205,3.69751 -0.44818,8.17934 -1.68068,12.43708 3.80955,-1.34455 11.7648,-12.77322 14.00572,-18.93573 1.56864,4.03364 1.90477,8.62752 1.12045,13.55754 -0.56023,3.9216 -1.79273,7.28297 -2.91319,9.74798 -0.89636,1.45659 -2.01682,3.02523 -3.24932,4.81797 3.9216,-0.67228 12.10094,-4.03365 19.15982,-12.66118 -0.11204,6.6107 -2.01682,12.54913 -5.93842,17.70323 -2.91319,3.80956 -6.94684,7.17093 -12.10095,10.08412 0.2241,0.22409 0.67228,0.56023 0.56023,0.67228 1.00842,0.44818 2.91319,0.67227 5.15411,0.67227 5.37819,0 13.10935,-1.12046 17.143,-2.57705 -0.78432,2.57705 -2.57705,5.04206 -5.15411,7.28297 -4.59387,4.1457 -11.54071,7.17093 -17.143,7.73116 -0.11204,0 -0.33613,0 -0.44818,0 -0.44818,0 -0.89637,0 -1.34455,0 -0.22409,0 -0.56023,0 -0.78432,0 0.11205,0.56023 0.78432,1.2325 1.68069,1.90478 2.24091,2.12887 5.1541,4.25774 8.29138,6.05047 3.69751,2.01682 7.39502,3.24933 10.64435,3.69751 -1.45659,1.12046 -3.13728,2.12887 -5.1541,2.80114 -2.57706,0.89637 -5.60229,1.4566 -8.85162,1.4566 -0.22409,0 -0.44818,0 -0.67227,0 -5.82638,0 -11.54072,-1.4566 -15.12618,-3.80956 0,0 0,0.11205 0,0.11205 0,0 -0.11205,-0.11205 -0.22409,-0.11205 1.79273,4.48183 18.59959,20.05619 26.10666,21.62484 h 0.22409 l -0.11205,0.11204 c -2.57705,0.89637 -5.37819,1.2325 -8.29138,1.2325 -2.91319,0 -5.82638,-0.44818 -8.85162,-1.34454 -6.49865,-1.90478 -14.22981,-6.72275 -19.608,-12.10095 0.44818,4.93002 5.82637,11.87685 8.17934,15.01414 0.22409,0.33613 0.44818,0.56022 0.56022,0.78432 -2.68909,-1.12046 -6.49865,-3.36138 -10.08411,-6.16252 -3.69751,-2.91319 -10.30821,-8.73957 -13.2214,-15.57436 l -1.12046,-0.44819 c -0.22409,0.67228 -0.44818,1.4566 -0.78432,2.12887 -1.12046,3.02524 -2.24092,6.27457 -0.89637,8.85162 0.89637,1.68069 2.80115,3.02523 5.82638,3.80956 h 0.22409 l -0.11204,0.11204 c -0.11205,0.11205 -0.33614,0.22409 -0.44819,0.33614 -0.56022,0.44818 -1.2325,0.89636 -1.2325,1.34455 0,0.22409 0.11205,0.44818 0.33614,0.67227 4.93001,4.48183 7.8432,6.94684 15.9105,12.43708 l 0.11204,0.11205 -0.11204,0.11204 c -1.90478,0.89637 -4.70593,1.56864 -7.73116,2.12887 -0.78432,0.22409 -1.56864,0.44819 -2.46501,0.67228 h -0.11204 v -0.11205 c 0,0 0,-0.11204 0,-0.11204 -8.0673,1.2325 -17.47914,1.68068 -21.2887,2.01682 -1.00841,0.11204 -2.12887,0.11204 -3.24932,0.11204 -5.3782,0 -11.20458,-0.89636 -16.02255,-2.01682 0,0 0,0 0,0 v 0.11205 h -0.11204 c -1.79274,-0.56023 -3.58547,-1.00842 -5.15411,-1.34455 -1.12046,-0.22409 -2.24091,-0.56023 -3.24933,-0.78432 -0.33613,-0.11205 -0.78432,-0.33614 -1.12045,-0.44819 -0.2241,-0.11204 -0.44819,-0.11204 -0.56023,-0.22409 l -0.11205,-0.11204 0.11205,-0.11205 c 8.06729,-5.49024 11.09253,-7.95525 15.9105,-12.43708 0.22409,-0.22409 0.33613,-0.44818 0.33613,-0.67227 0,-0.44819 -0.67227,-1.00841 -1.2325,-1.34455 -0.11205,-0.11205 -0.33614,-0.22409 -0.44818,-0.33614 l -0.11205,-0.11204 h 0.22409 c 3.02524,-0.89637 4.93002,-2.12887 5.82638,-3.80956 1.34455,-2.57705 0.22409,-5.82638 -0.89636,-8.85162 -0.2241,-0.78432 -0.56023,-1.45659 -0.78432,-2.12887 0,0 -1.12046,0.2241 -1.12046,0.44819 -2.91319,6.83479 -9.52389,12.66117 -13.2214,15.57436 -3.58547,2.80114 -7.39502,5.04206 -10.08412,6.16252 0.11204,-0.2241 0.33614,-0.44819 0.56023,-0.78432 2.35296,-3.02524 7.73116,-10.08412 8.17934,-15.01414 -5.3782,5.3782 -13.10936,10.30821 -19.60801,12.10095 -3.02524,0.89636 -5.93843,1.34454 -8.85162,1.34454 -2.91319,0 -5.60229,-0.44818 -8.29138,-1.2325 l -0.11205,-0.11204 h 0.22409 c 7.50707,-1.4566 23.9778,-15.68641 25.77053,-20.16824 0.33614,-1.12046 -0.11205,-0.89637 0.11205,-1.34455 -3.58547,2.35296 -9.2998,3.80956 -15.12618,3.80956 -0.2241,0 -0.44819,0 -0.67228,0 -3.24933,-0.11205 -6.27456,-0.56023 -8.85161,-1.4566 -2.01683,-0.67227 -3.69751,-1.68069 -5.15411,-2.80114 3.24933,-0.44819 6.94684,-1.68069 10.64435,-3.69751 3.24933,-1.79274 6.16251,-3.80956 8.29139,-6.05047 0.89636,-0.67228 1.56864,-1.34455 1.68068,-1.90478 -0.22409,0 -0.44818,0 -0.78432,0 -0.44818,0 -0.89636,0 -1.34455,0 -0.11204,0 -0.33614,0 -0.44818,0 -5.60229,-0.56023 -12.54913,-3.58547 -17.143,-7.73116 -2.57706,-2.24092 -4.25774,-4.81797 -5.15411,-7.28297 4.03365,1.45659 11.76481,2.57705 17.143,2.57705 2.35296,0 4.25774,-0.22409 5.15411,-0.67228 0,0 0.44818,-0.44818 0.56023,-0.67227 -5.15411,-2.91319 -9.07571,-6.27456 -12.10095,-10.08412 -3.9216,-5.1541 -5.93842,-11.09253 -5.93842,-17.70323 7.17093,8.73957 15.23822,12.10094 19.15983,12.66117 -1.34455,-1.79273 -2.46501,-3.36137 -3.24933,-4.81797 -1.12046,-2.465 -2.24092,-5.82638 -2.91319,-9.74798 -0.78432,-4.93001 -0.33614,-9.52389 1.12046,-13.55754 2.24091,6.27457 7.50706,14.678 12.88526,18.71165 0,0 0.33614,0.22409 1.12046,0.22409 -1.12046,-4.36979 -1.79273,-8.73957 -1.68069,-12.43708 0.11205,-3.24933 0.67228,-5.71434 1.79273,-7.50707 3.02524,14.11777 12.88527,21.2887 18.82369,25.54644 2.24092,1.56864 3.9216,2.80114 4.36979,3.80955 0.56022,1.23251 0.56022,2.57705 0,4.03365 -0.67228,1.79273 -2.01683,3.24933 -2.80115,3.58546 -0.89636,0.33614 -1.79273,0.67228 -2.80114,1.00842 -3.24933,1.00841 -6.72275,2.12887 -7.05888,5.60228 -0.11205,0.89637 0.67227,3.24933 1.68068,4.03365 0.22409,0.22409 0.44818,0.33614 0.67228,0.33614 0.11204,0 0.11204,0 0.22409,0 0.33613,-0.11205 0.67227,-0.22409 0.89636,-0.22409 0.33614,0 0.78432,-0.11205 1.23251,-0.11205 0.56023,-0.11204 1.2325,-0.22409 2.12887,-0.22409 0.89636,0 1.56864,0.11205 2.24091,0.33614 0.33614,0.11204 0.67228,0.11204 0.89637,0.11204 0.44818,0.11205 0.78432,0.22409 1.2325,0.22409 0.33614,0 0.56023,0 0.89637,-0.11204 1.90478,-1.68069 2.6891,-3.24933 3.36137,-4.70592 0.67227,-1.34455 1.34455,-2.57706 2.80114,-3.47342 v 0 0 c 0,0 0.11205,0 0.11205,0 -0.11205,0 -0.22409,-0.11205 -0.33614,-0.11205 -1.00841,-0.44818 -2.91319,-1.34455 -2.80114,-2.91319 v -0.11204 l 0.11204,0.11204 c 0.56023,0.22409 1.23251,0.33614 1.90478,0.33614 1.12046,0 2.12887,-0.33614 2.57705,-0.89637 0.11205,-0.11204 0.11205,-0.11204 0,-0.11204 0,-0.11205 -0.22409,-0.22409 -0.56022,-0.44818 -0.67228,-0.44819 -1.56864,-1.00842 -2.01683,-2.46501 v -0.11205 h 0.11205 c 0.33614,0.11205 1.12046,0.11205 2.01682,0.11205 2.46501,-0.22409 5.82638,-1.34455 6.05047,-5.26615 0,0 -0.11204,0 -0.11204,0.11204 -0.11205,0.11205 -0.44819,0.33614 -1.00841,0.56023 -0.56023,0.22409 -1.34455,0.44819 -2.57706,0.67228 v 0 c -0.11204,0 -0.22409,0 -0.22409,0 -0.56023,0 -1.00841,-0.11205 -1.34455,-0.44819 -0.56023,-0.33613 -0.89636,-0.89636 -1.12046,-1.45659 v -0.11205 c 0,-0.11204 0,-0.44818 -0.11204,-0.78432 0,-0.22409 0,-0.56023 -0.11205,-0.67227 l 0.67228,-0.33614 c 0,0 0.11204,0.11205 0.11204,0.11205 0.33614,0.22409 1.00842,0.33613 1.68069,0.33613 0.22409,0 0.44818,0 0.67227,0 1.00842,-0.11204 1.90478,-0.33613 2.46501,-0.78432 0.11205,-0.11204 0.11205,-0.11204 0.11205,-0.11204 0.11204,-1.79273 -1.90478,-3.24933 -3.80956,-3.24933 -1.12046,0 -2.12887,0.44818 -2.6891,1.68069 0,0 -2.24091,-5.26615 3.02524,-6.05047 0.11204,0 0.33614,0 0.44818,0 0.44818,0 0.89637,0.11204 1.4566,0.22409 v 0 c 0,0 0.22409,-0.44819 0.22409,-0.44819 v 0 c 1.00841,-2.24091 2.24091,-3.69751 4.81797,-3.69751 1.79273,0 4.14569,0.67228 7.61911,2.12887 0.33613,0.2241 0.67227,0.44819 0.89636,0.67228 0.44819,0.11204 0.78432,0.22409 1.23251,0.22409 1.45659,0 2.91319,-0.78432 3.80955,-1.68069 l 0.22409,0.11205 c -0.11204,1.68069 -0.89636,2.91319 -2.465,3.80956 0.33613,0.44818 0.78432,1.00841 1.12045,1.56864 1.12046,1.56864 2.35297,3.24932 3.92161,4.03364 l -0.11205,0.22409 c -0.33614,-0.11204 -0.67227,-0.11204 -1.00841,-0.11204 -0.89637,0 -1.68069,0.22409 -2.80115,0.56023 0.56023,0.78432 0.78433,2.6891 1.00842,4.59387 0.22409,2.12887 0.56023,4.25774 1.12045,5.26615 v 0.2241 h -0.11204 c -0.44818,-0.11205 -0.89637,-0.33614 -1.34455,-0.33614 -0.11205,0 -0.11205,0 -0.22409,0 -0.33614,1.90478 0.44818,3.80955 2.6891,6.49865 l 0.11204,0.11205 -0.11204,0.11204 c -0.33614,0.11205 -0.67228,0.2241 -1.00842,0.2241 -0.78432,0 -1.56864,-0.2241 -2.57705,-0.56023 h -0.11204 c -0.44819,1.56864 0.67227,2.6891 1.90477,3.9216 0.67228,0.67227 1.34455,1.45659 1.90478,2.24091 0.33614,0.2241 0.67228,0.44819 1.00841,0.67228 v 0 c 0.44819,0.22409 0.89637,0.33614 1.34455,0.33614 0.44819,0 0.78432,-0.11205 1.23251,-0.2241 0.33613,0 0.56022,-0.11204 0.89636,-0.11204 0.67228,-0.11205 1.34455,-0.22409 2.24092,-0.33614 0.89636,0 1.56864,0.11205 2.12887,0.22409 0.44818,0.11205 0.89636,0.11205 1.2325,0.11205 0.33614,0.11204 0.56023,0.11204 0.89637,0.22409 0.11204,0 0.11204,0 0.22409,0 0.22409,0 0.44818,-0.11205 0.67227,-0.33614 1.00841,-0.78432 1.79273,-3.13728 1.68069,-4.03364 -0.33614,-3.47342 -3.80956,-4.59388 -7.05888,-5.60229 -1.00842,-0.33614 -1.90478,-0.67228 -2.80115,-1.00841 -0.89636,-0.33614 -2.12887,-1.90478 -2.80114,-3.58547 -0.56023,-1.45659 -0.56023,-2.80114 0,-4.03365 0.44818,-1.00841 2.12887,-2.12887 4.36978,-3.80955 5.93843,-4.70592 15.79845,-11.76481 18.82369,-25.88258 m 0,-1.68068 c -0.11205,0 -0.22409,0 -0.22409,0 -0.67228,0.11204 -1.2325,0.56023 -1.34455,1.2325 -2.91319,13.55754 -12.43708,20.39233 -18.15141,24.53803 v 0 c -2.57706,1.79273 -4.25774,3.02523 -4.81797,4.36978 0,0 0,0 0,0 -0.11205,-1.12046 -0.22409,-2.12887 -0.44818,-3.02523 0.22409,0 0.44818,0 0.67227,0 0.22409,0 0.56023,0 0.78432,0.11204 0.11205,0 0.11205,0 0.22409,0 0.67228,0 1.34455,-0.44818 1.56864,-1.12046 l 0.11205,-0.22409 c 0.22409,-0.78432 -0.11205,-1.56864 -0.78432,-2.01682 -1.23251,-0.67228 -2.24092,-2.12887 -3.24933,-3.58547 l -0.11204,-0.22409 c 0,0 0,-0.11204 -0.11205,-0.11204 1.12046,-1.00842 1.68069,-2.35296 1.79273,-4.03365 0,-0.67228 -0.33614,-1.34455 -1.00841,-1.56864 l -0.22409,-0.11205 c -0.22409,-0.11204 -0.44818,-0.11204 -0.67228,-0.11204 -0.44818,0 -0.89636,0.22409 -1.2325,0.56023 -0.56023,0.56022 -1.56864,1.12045 -2.57705,1.12045 -0.22409,0 -0.33614,0 -0.44819,0 -0.22409,-0.22409 -0.44818,-0.33613 -0.78432,-0.56023 -0.11204,-0.11204 -0.22409,-0.11204 -0.22409,-0.11204 -3.58546,-1.56864 -6.16251,-2.24092 -8.29138,-2.24092 -3.36138,0 -4.93002,1.90478 -6.05047,4.03365 -0.2241,0 -0.33614,0 -0.56023,0 0,0 0,0 0,0 -0.22409,0 -0.44819,0 -0.67228,0 -2.57705,0.44818 -3.69751,1.68069 -4.25774,2.6891 -1.34455,2.46501 -0.22409,5.3782 0,5.71433 0.11205,0.33614 0.44819,0.67228 0.78432,0.78432 -0.22409,0.33614 -0.33613,0.78432 -0.22409,1.23251 0,0.11204 0,0.11204 0,0.22409 v 0.22409 0.11205 c 0,0.33613 0,0.67227 0.11205,0.89636 0,0 0,0.11205 0,0.11205 v 0.11204 c 0,0.11205 0,0.11205 0.11204,0.22409 0.44819,0.89637 1.00842,1.56865 1.68069,2.12887 0.67227,0.44819 1.4566,0.67228 2.35296,0.67228 0.11205,0 0.22409,0 0.33614,0 0,0 0.11204,0 0.11204,0 0.11205,0 0.11205,0 0.2241,0 -0.78432,0.44818 -1.79274,0.67227 -2.6891,0.78432 -0.78432,0 -1.4566,-0.11205 -1.68069,-0.11205 h -0.11204 c -0.11205,0 -0.2241,0 -0.2241,0 -0.44818,0 -0.89636,0.22409 -1.2325,0.56023 -0.33614,0.44818 -0.44818,1.00841 -0.33614,1.56864 v 0.11205 c 0.22409,0.67227 0.44819,1.2325 0.78432,1.68068 -0.22409,0 -0.44818,-0.11204 -0.56023,-0.22409 l -0.11204,-0.11204 c -0.22409,-0.11205 -0.44818,-0.11205 -0.67228,-0.11205 -0.33613,0 -0.56022,0.11205 -0.78432,0.22409 -0.44818,0.22409 -0.78432,0.78432 -0.78432,1.23251 v 0.11204 c 0,0 0,0 0,0 -0.11204,1.56864 0.89637,2.6891 1.90478,3.47342 -0.67227,0.78432 -1.00841,1.56864 -1.45659,2.46501 v 0 c -0.67228,1.2325 -1.23251,2.465 -2.6891,3.9216 0,0 -0.11205,0 -0.11205,0 -0.22409,0 -0.44818,0 -0.78432,-0.11205 -0.11204,0 -0.11204,0 -0.22409,0 -0.22409,0 -0.56023,-0.11204 -0.78432,-0.11204 -0.56023,-0.11205 -1.45659,-0.33614 -2.46501,-0.33614 0,0 0,0 0,0 0,0 -0.11204,0 -0.11204,0 -0.89637,0 -1.56864,0.11205 -2.24092,0.22409 -0.44818,0.11205 -0.78432,0.11205 -1.00841,0.11205 -0.11204,0 -0.22409,0 -0.33614,0 -0.22409,0 -0.44818,0.11204 -0.56023,0.11204 -0.44818,-0.56023 -1.00841,-2.01682 -0.89636,-2.465 0.22409,-2.24092 2.46501,-3.13728 5.93842,-4.25774 1.00842,-0.33614 2.01683,-0.67228 2.91319,-1.00841 0,0 0,0 0.11205,0 1.34455,-0.67228 2.91319,-2.57706 3.69751,-4.48183 0.67227,-1.90478 0.67227,-3.69751 0,-5.26616 -0.67227,-1.34454 -2.24092,-2.57705 -4.81797,-4.36978 v 0 c -5.71433,-4.14569 -15.23822,-10.98048 -18.15141,-24.53802 -0.11205,-0.67228 -0.67228,-1.12046 -1.34455,-1.23251 -0.11205,0 -0.22409,0 -0.22409,0 -0.56023,0 -1.12046,0.33614 -1.4566,0.78432 -1.2325,2.01683 -1.90477,4.81797 -2.01682,8.29139 -0.11205,2.6891 0.22409,5.71434 0.78432,8.85162 -4.36978,-4.36979 -8.29139,-11.09254 -9.97208,-15.9105 -0.22409,-0.67228 -0.78432,-1.12046 -1.56864,-1.12046 0,0 0,0 0,0 -0.67227,0 -1.34454,0.44818 -1.56864,1.00841 -1.68068,4.25774 -2.01682,9.18776 -1.2325,14.45391 0.56023,3.47341 1.56864,6.83479 3.02524,10.19616 0,0.11205 0.11204,0.11205 0.11204,0.22409 0.22409,0.33614 0.44818,0.67228 0.67228,1.00841 -3.92161,-1.68068 -9.18776,-5.04206 -13.89368,-10.75639 -0.33614,-0.33614 -0.78432,-0.56023 -1.2325,-0.56023 -0.22409,0 -0.33614,0 -0.56023,0.11205 -0.67227,0.22409 -1.12046,0.89636 -1.12046,1.56864 0.11205,7.05888 2.24092,13.33344 6.38661,18.71164 2.46501,3.24933 5.60229,6.05047 9.63594,8.62752 -0.56023,0 -1.23251,0.11205 -2.01683,0.11205 -5.37819,0 -12.77321,-1.12046 -16.58277,-2.57705 -0.22409,-0.11205 -0.33614,-0.11205 -0.56023,-0.11205 -0.44818,0 -0.78432,0.11205 -1.12046,0.44818 -0.44818,0.44819 -0.67227,1.12046 -0.44818,1.68069 0.89637,2.91319 2.80114,5.60229 5.60229,8.0673 4.59387,4.03364 11.42867,7.17092 17.25505,7.95524 -2.01683,1.79274 -4.48184,3.58547 -7.17093,5.04206 -3.58547,1.90478 -7.05889,3.13729 -10.08412,3.47342 -0.67228,0.11205 -1.23251,0.56023 -1.34455,1.12046 -0.22409,0.67227 0,1.34455 0.56023,1.68069 1.56864,1.34455 3.47342,2.35296 5.71433,3.13728 2.6891,1.00841 5.93843,1.56864 9.41185,1.56864 0.22409,0 0.44818,0 0.78432,0 4.03365,0 8.06729,-0.67228 11.54071,-1.90478 -4.93001,5.60229 -17.03096,15.23822 -22.63324,16.35868 h -0.2241 c -0.56022,0.11205 -1.12045,0.56023 -1.2325,1.12046 -0.11205,0.56023 0,1.2325 0.44818,1.68069 l 0.11205,0.11204 c 0.22409,0.11205 0.33614,0.22409 0.56023,0.33614 2.80114,0.89636 5.71433,1.34455 8.73957,1.34455 3.02523,0 6.16252,-0.44819 9.2998,-1.34455 4.93001,-1.4566 10.64435,-4.48183 15.57436,-8.29139 -1.90478,3.47342 -4.48183,6.94684 -5.82638,8.62753 l -0.22409,0.22409 c -0.11205,0.22409 -0.33614,0.33613 -0.44819,0.56023 -0.44818,0.56023 -0.44818,1.45659 0,2.01682 0.33614,0.44818 0.78432,0.67227 1.34455,0.67227 0.2241,0 0.44819,0 0.67228,-0.11204 2.91319,-1.2325 6.83479,-3.58547 10.42025,-6.38661 3.47342,-2.6891 9.2998,-7.8432 12.66118,-14.11777 0.89636,2.57706 1.79273,5.26616 0.89636,7.17093 -0.67227,1.34455 -2.24091,2.24092 -4.81797,3.02524 h -0.11204 c -0.56023,0.11204 -1.00841,0.67227 -1.23251,1.2325 -0.11204,0.56023 0.11205,1.23251 0.56023,1.56864 l 0.11205,0.11205 c 0.11204,0.11204 0.22409,0.22409 0.33614,0.22409 0,0 0.11204,0.11205 0.11204,0.11205 h 0.11205 c 0,0 0.11204,0 0.11204,0.11204 -4.48183,4.14569 -7.50706,6.49866 -15.12617,11.65276 0,0 0,0 0,0 l -0.11205,0.11205 c -0.44818,0.33613 -0.78432,0.89636 -0.67227,1.56864 0.11204,0.56023 0.44818,1.12045 1.00841,1.34455 l 0.11204,0.11204 c 0.22409,0.11205 0.44819,0.11205 0.67228,0.22409 0.44818,0.11205 0.78432,0.33614 1.2325,0.44819 0,0 0.11205,0 0.11205,0 1.00841,0.33613 2.01682,0.56023 3.13728,0.78432 h 0.22409 c 1.68069,0.33613 3.36137,0.78432 5.04206,1.34455 h 0.11204 c 0.11205,0 0.33614,0.11204 0.44819,0.11204 0.11204,0 0.33613,0 0.44818,-0.11204 5.93843,1.2325 11.20458,1.90477 15.57436,1.90477 1.2325,0 2.35296,0 3.36137,-0.11204 0.89637,-0.11205 2.12887,-0.11205 3.47342,-0.22409 4.36979,-0.33614 10.86844,-0.78432 16.80687,-1.56864 0.22409,0.11204 0.44818,0.22409 0.78432,0.22409 0.11204,0 0.33613,0 0.44818,-0.11205 h 0.11205 c 0.67227,-0.22409 1.45659,-0.44818 2.35296,-0.67227 3.47342,-0.67228 6.16251,-1.34455 8.06729,-2.24092 h 0.11205 c 0.56023,-0.22409 0.89636,-0.67227 1.00841,-1.34455 0.11204,-0.56023 -0.22409,-1.12045 -0.67228,-1.56864 l -0.11204,-0.11204 c 0,0 0,0 0,0 -7.61911,-5.15411 -10.64435,-7.50707 -15.12618,-11.65276 0,0 0.11205,0 0.11205,-0.11205 v 0 c 0,0 0,0 0,0 0,0 0.11204,-0.11204 0.11204,-0.11204 0.11205,-0.11205 0.22409,-0.2241 0.33614,-0.33614 l 0.11205,-0.11205 c 0.44818,-0.44818 0.67227,-1.00841 0.56022,-1.56864 -0.11204,-0.56023 -0.56022,-1.12046 -1.2325,-1.2325 h -0.11204 c -2.57706,-0.78432 -4.1457,-1.68069 -4.81797,-3.02524 -0.89637,-1.90477 -0.11205,-4.48183 0.89636,-7.17093 3.36138,6.27457 9.2998,11.42867 12.66117,14.11777 3.58547,2.80114 7.50707,5.26615 10.42026,6.38661 0.22409,0.11204 0.44818,0.11204 0.67228,0.11204 0.44818,0 1.00841,-0.22409 1.34454,-0.67227 0.44819,-0.56023 0.44819,-1.45659 0,-2.01682 -0.11204,-0.2241 -0.33613,-0.44819 -0.56022,-0.78432 v 0 c -1.34455,-1.68069 -3.92161,-5.15411 -5.82638,-8.62753 4.93001,3.80956 10.64434,6.94684 15.57436,8.29139 3.13728,0.89636 6.27456,1.34455 9.29979,1.34455 3.02524,0 6.05048,-0.44819 8.73957,-1.34455 0.2241,-0.11205 0.44819,-0.22409 0.56023,-0.33614 l 0.11205,-0.11204 c 0.44818,-0.44819 0.67227,-1.00842 0.44818,-1.68069 -0.11204,-0.56023 -0.67227,-1.00841 -1.2325,-1.12046 h -0.22409 c -2.91319,-0.56023 -8.51548,-4.14569 -14.34186,-9.2998 -2.80114,-2.465 -5.15411,-4.70592 -6.94684,-6.72274 3.13728,0.89636 6.6107,1.45659 10.19617,1.45659 0.22409,0 0.44818,0 0.78432,0 3.36137,-0.11204 6.6107,-0.56023 9.41184,-1.56864 2.12887,-0.78432 4.03365,-1.79273 5.71433,-3.13728 0.44819,-0.44818 0.67228,-1.12046 0.56023,-1.68069 -0.22409,-0.67227 -0.67227,-1.12045 -1.34455,-1.12045 -3.02523,-0.44819 -6.49865,-1.68069 -10.08411,-3.47342 -2.6891,-1.4566 -5.15411,-3.24933 -7.17093,-5.04206 5.93842,-0.78432 12.77321,-3.9216 17.25504,-7.95525 2.80115,-2.46501 4.70593,-5.1541 5.60229,-8.06729 0.22409,-0.56023 0,-1.23251 -0.44818,-1.68069 -0.33614,-0.33614 -0.67228,-0.44818 -1.12046,-0.44818 -0.22409,0 -0.33614,0 -0.56023,0.11204 -3.80955,1.34455 -11.20457,2.57705 -16.58277,2.57705 -0.78432,0 -1.45659,0 -2.01682,-0.11204 3.9216,-2.57705 7.05888,-5.49024 9.63593,-8.62753 4.14569,-5.37819 6.27456,-11.65275 6.38661,-18.71164 0,-0.67227 -0.44818,-1.34455 -1.12046,-1.56864 -0.22409,-0.11204 -0.33613,-0.11204 -0.56023,-0.11204 -0.44818,0 -0.89636,0.22409 -1.2325,0.56023 -4.70592,5.71433 -9.97207,9.0757 -13.89367,10.75639 0.22409,-0.33614 0.44818,-0.67228 0.67227,-1.00841 0,-0.11205 0.11205,-0.11205 0.11205,-0.2241 1.45659,-3.36137 2.465,-6.72274 3.02523,-10.19616 0.78432,-5.26615 0.33614,-10.08412 -1.2325,-14.45391 -0.22409,-0.67227 -0.89637,-1.00841 -1.56864,-1.00841 0,0 0,0 0,0 -0.67228,0 -1.34455,0.44819 -1.56864,1.12046 -1.56864,4.59388 -6.27457,11.65276 -9.86003,15.46232 0.56023,-3.02524 0.78432,-5.93843 0.67227,-8.51548 -0.11204,-3.47342 -0.78432,-6.27456 -2.01682,-8.29139 -1.2325,-0.11204 -1.79273,-0.44818 -2.35296,-0.44818 z m -25.09825,37.87147 c 0.33614,0 0.56023,-0.11205 0.89637,-0.22409 0.11204,-0.11205 0.33613,-0.22409 0.44818,-0.33614 0.78432,1.2325 1.79273,2.35296 2.80114,2.80114 0,0 0,0 0.11205,0 0.89636,0.33614 1.90478,0.67228 2.91319,1.00842 3.47342,1.12045 5.71433,2.01682 5.93842,4.25773 0,0.44819 -0.44818,1.90478 -0.89636,2.46501 -0.22409,0 -0.44819,-0.11204 -0.56023,-0.11204 -0.11205,0 -0.22409,0 -0.33614,0 -0.22409,0 -0.56023,-0.11205 -1.00841,-0.11205 -0.67227,-0.11205 -1.34455,-0.22409 -2.24092,-0.22409 0,0 -0.11204,0 -0.11204,0 0,0 0,0 0,0 -1.00841,0 -1.90478,0.22409 -2.46501,0.33614 -0.22409,0 -0.56023,0.11204 -0.78432,0.11204 -0.11204,0 -0.11204,0 -0.22409,0 -0.33614,0.11205 -0.67227,0.11205 -0.78432,0.11205 -0.22409,0 -0.33614,0 -0.44818,-0.11205 -0.22409,-0.11204 -0.44819,-0.33614 -0.67228,-0.44818 -0.56023,-0.89637 -1.34455,-1.56864 -1.90478,-2.24092 -0.22409,-0.22409 -0.44818,-0.44818 -0.56022,-0.56023 0.11204,0 0.11204,0 0.22409,0 0.67227,0 1.2325,-0.11204 1.79273,-0.33613 l 0.11205,-0.11205 c 0.44818,-0.22409 0.78432,-0.67227 0.89636,-1.12046 0.11205,-0.44818 0,-1.00841 -0.33614,-1.34455 l -0.11204,-0.11204 c -1.79273,-1.68069 -2.46501,-2.80115 -2.6891,-3.69751 0,0 0,0 0,0 z" id="path31333" style="fill:#ffffff;stroke-width:1.12046"/>
    <g id="g31339" transform="matrix(1.1204576,0,0,1.1204576,211.48332,369.07422)">
      <path class="st4" d="m 108.9,155.5 c -0.6,0 -1.1,-0.3 -1.4,-0.9 -0.4,-0.9 0.2,-1.6 0.5,-1.9 0.3,-0.4 0.7,-0.5 1.2,-0.5 0.2,0 0.5,0.1 0.7,0.2 0.6,0.3 0.9,1.1 0.7,1.7 -0.1,0.5 -0.7,1.4 -1.7,1.4 0,0 0,0 0,0 z" id="path31335"/>
      <path class="st3" d="m 109.2,153.7 v 0 m 0,0 c 0,0.2 -0.2,0.3 -0.2,0.3 -0.1,0 0,-0.1 0.2,-0.3 m 0,-3 c -0.1,0 -0.1,0 -0.2,0 -0.5,0 -1,0.2 -1.5,0.5 -0.2,0.1 -0.4,0.3 -0.6,0.5 0,0 -0.1,0.1 -0.1,0.1 -1,1.2 -1.2,2.4 -0.6,3.5 0.5,1.1 1.6,1.7 2.7,1.7 1.5,0 2.6,-1.1 3,-2.2 0.2,-0.4 0.2,-0.8 0.2,-1.2 0,-1.6 -1.3,-2.9 -2.9,-3 0,0.1 0,0.1 0,0.1 z m 0,6 z" id="path31337"/>
    </g>
    <path class="st3" d="m 349.41165,488.85114 c -1.56864,0 -3.02523,-1.00841 -5.04206,-3.47342 -0.44818,-0.67228 -0.44818,-1.56864 0.11205,-2.12887 0.56023,-0.56023 1.45659,-0.67228 2.12887,-0.33614 1.79273,1.12046 2.46501,1.23251 2.6891,1.23251 0.11204,0 0.11204,0 0.44818,-0.2241 0.44818,-0.22409 1.12046,-0.67227 2.12887,-0.67227 1.12046,0 2.46501,0.44818 4.14569,1.56864 0.56023,0.22409 0.89637,0.78432 0.89637,1.45659 0,0.89637 -0.67228,1.56865 -1.56864,1.68069 -0.11205,0 -0.33614,0 -0.44818,-0.11204 -0.44819,-0.11205 -1.00842,-0.2241 -1.34455,-0.2241 -0.78432,0 -1.23251,0.2241 -1.90478,0.44819 -0.67228,0.44818 -1.4566,0.78432 -2.24092,0.78432 0,0 0,0 0,0 z" id="path31341" style="fill:#ffffff;stroke-width:1.12046"/>
    <path class="st4" d="m 345.6021,484.36931 c 6.38661,4.03364 3.36137,-1.79274 9.63593,2.01682 -5.26615,-1.56864 -4.93001,3.9216 -9.63593,-2.01682" id="path31343" style="clip-rule:evenodd;fill:#1d1d1b;fill-rule:evenodd;stroke-width:1.12046"/>
    <path class="st4" d="m 361.06441,559.66406 c -11.54071,0 -21.84892,5.82638 -27.78735,14.79004 -0.11204,0.11204 -0.11204,0.22409 -0.22409,0.33614 -0.44818,0.67227 -0.89636,1.45659 -1.2325,2.12886 -2.6891,4.81797 -4.25774,10.42026 -4.25774,16.24664 0,18.48755 15.01413,33.50168 33.50168,33.50168 18.48755,0 33.50168,-15.01413 33.50168,-33.50168 0.11205,-18.48755 -14.90208,-33.50168 -33.50168,-33.50168 z" id="path31345" style="clip-rule:evenodd;fill:#1d1d1b;fill-rule:evenodd;stroke-width:1.12046"/>
    <path class="st4" d="m 399.60815,531.87671 c 0.11205,0.11205 0.11205,0.11205 0,0 z m -10.75639,9.41184 c 0.11205,0.22409 0.56023,0.67228 0,0 z m 22.07302,-21.73687 c 0.11204,0 0.33613,0 0.44818,0 5.60229,-0.56023 12.54912,-3.58547 17.143,-7.73116 2.57705,-2.24092 4.25774,-4.81797 5.15411,-7.28298 -5.71434,2.12887 -19.04778,3.58547 -22.29711,1.90478 0,0 -0.44818,-0.44818 -0.56023,-0.67227 5.15411,-2.91319 9.07571,-6.27457 12.10094,-10.08412 3.9216,-5.15411 5.93843,-11.09253 5.93843,-17.70323 -7.17093,8.73957 -15.23823,12.10094 -19.15983,12.66117 1.34455,-1.79273 2.46501,-3.36137 3.24933,-4.81797 1.12046,-2.46501 2.24091,-5.82638 2.91319,-9.74798 0.78432,-4.93001 0.33614,-9.52389 -1.12046,-13.55754 -2.24091,6.27456 -10.19616,17.70323 -14.00572,18.93574 1.12046,-4.36979 1.79273,-8.73957 1.68069,-12.43708 -0.11205,-3.24933 -0.67228,-5.71434 -1.79273,-7.50707 -3.02524,14.11777 -12.88527,21.2887 -18.82369,25.54644 -2.24092,1.56864 -3.9216,2.80114 -4.36979,3.80955 -0.56023,1.2325 -0.56023,2.57705 0,4.03365 0.67228,1.79273 2.01683,3.24933 2.80115,3.58546 0.89636,0.33614 1.79273,0.67228 2.80114,1.00841 3.24933,1.00842 6.72275,2.12887 7.05888,5.60229 0.11205,0.89637 -0.67227,3.24933 -1.68068,4.03365 -0.33614,0.22409 -0.67228,0.33614 -0.89637,0.22409 -0.33614,-0.11204 -0.67227,-0.22409 -0.89636,-0.22409 -0.33614,0 -0.78432,-0.11205 -1.23251,-0.11205 -0.56023,-0.11204 -1.2325,-0.22409 -2.12887,-0.22409 -0.89636,0 -1.56864,0.11205 -2.24091,0.33614 -0.33614,0.11205 -0.67228,0.11205 -0.89637,0.11205 -0.78432,0.22409 -1.68068,0.33613 -2.57705,-0.11205 v 0 c -0.33614,-0.22409 -0.67228,-0.44818 -1.00841,-0.67227 -0.56023,-0.89637 -1.23251,-1.56865 -1.90478,-2.24092 -1.2325,-1.34455 -2.35296,-2.46501 -1.90478,-3.9216 h 0.11205 c 1.45659,0.44818 2.6891,0.78432 3.58546,0.33614 l 0.11205,-0.11205 -0.11205,-0.11205 c -2.24091,-2.68909 -3.02523,-4.59387 -2.6891,-6.49865 0.56023,0 1.12046,0.11205 1.56864,0.22409 h 0.11205 v -0.22409 c -0.67227,-0.89637 -0.89637,-3.13728 -1.12046,-5.26615 -0.22409,-1.90478 -0.44818,-3.80956 -1.00841,-4.59388 1.4566,-0.44818 2.35296,-0.67227 3.80956,-0.44818 l 0.11204,-0.22409 c -1.56864,-0.78432 -2.6891,-2.46501 -3.9216,-4.03365 -0.44818,-0.56023 -0.78432,-1.12046 -1.12046,-1.56864 1.56864,-0.89637 2.35296,-2.12887 2.46501,-3.80956 l -0.22409,-0.11204 c -1.00841,1.12046 -3.02524,2.01682 -4.93002,1.45659 -0.33613,-0.22409 -0.67227,-0.44818 -0.89636,-0.67227 -8.62753,-3.69751 -10.75639,-2.12887 -12.43708,1.68069 0,0 -0.22409,0.44818 -0.22409,0.44818 -1.23251,-0.22409 -2.01683,-0.22409 -2.6891,-0.11205 -4.81797,1.56864 -2.35296,5.93843 -2.35296,5.93843 1.2325,-2.80115 6.38661,-1.90478 6.49865,1.68068 0,0 -1.00841,0.78433 -2.80114,0.89637 -0.89637,0 -1.79273,0 -2.24092,-0.33614 -0.11204,0 -0.11204,-0.11204 -0.11204,-0.11204 l -0.67228,0.33614 c 0,0.11204 0,0.33613 0.11205,0.67227 0,0.33614 0,0.56023 0.11204,0.78432 v 0.11205 c 0.2241,0.56022 0.67228,1.12045 1.12046,1.45659 0.44819,0.33614 1.00841,0.44818 1.68069,0.44818 v 0 c 1.2325,-0.22409 2.01682,-0.44818 2.57705,-0.67227 0.56023,-0.22409 0.89637,-0.44818 1.00841,-0.56023 0.11205,0 0.11205,0 0.11205,-0.11205 -0.11205,3.92161 -3.47342,5.04206 -6.05047,5.26616 -0.89637,0 -1.56864,-0.11205 -2.01683,-0.11205 h -0.11204 v 0.11205 c 0.44818,1.45659 1.34455,2.01682 2.01682,2.465 0.22409,0.11205 0.44818,0.33614 0.56023,0.44819 0,0 0,0 0,0.11204 -0.67227,0.89637 -2.80114,1.2325 -4.48183,0.56023 l -0.11205,-0.11205 v 0.11205 c -0.11204,1.56864 1.90478,2.46501 2.80115,2.91319 0.11204,0 0.22409,0.11205 0.33614,0.11205 0,0 -0.11205,0 -0.11205,0 v 0 0 c -1.45659,0.89636 -2.01682,2.12886 -2.80114,3.47341 -0.67228,1.4566 -1.4566,3.02524 -3.36138,4.70593 -0.78432,0.22409 -1.45659,0.11204 -2.12887,-0.11205 -0.33613,0 -0.56023,-0.11205 -0.89636,-0.11205 -0.67228,-0.11204 -1.34455,-0.22409 -2.24092,-0.33613 -0.89636,0 -1.56864,0.11204 -2.12887,0.22409 -0.44818,0.11204 -0.89636,0.11204 -1.2325,0.11204 -0.33614,0.11205 -0.56023,0.11205 -0.89637,0.2241 -0.33613,0.11204 -0.67227,0 -0.89636,-0.2241 -1.00841,-0.78432 -1.79273,-3.13728 -1.68069,-4.03364 0.33614,-3.47342 3.80956,-4.59388 7.05888,-5.60229 1.00842,-0.33614 1.90478,-0.67228 2.80115,-1.00841 0.78432,-0.33614 2.12887,-1.90478 2.80114,-3.58547 0.56023,-1.45659 0.56023,-2.80114 0,-4.03364 -0.44818,-1.00842 -2.12887,-2.12887 -4.36978,-3.80956 -5.93843,-4.25774 -15.79846,-11.42867 -18.82369,-25.54644 -1.00841,1.68069 -1.68069,4.25774 -1.79273,7.50707 -0.11205,3.69751 0.44818,8.17934 1.68068,12.43708 -0.89636,0 -1.12045,-0.22409 -1.12045,-0.22409 -5.3782,-4.03365 -10.64435,-12.43708 -12.88527,-18.71164 -1.56864,4.03364 -1.90478,8.62752 -1.12046,13.55753 0.56023,3.92161 1.79274,7.28298 2.91319,9.74799 0.89637,1.45659 2.01683,3.02523 3.24933,4.81796 -3.9216,-0.67227 -12.10094,-4.03364 -19.27187,-12.66117 0.11205,6.6107 2.01682,12.54913 5.93842,17.70323 2.91319,3.80956 6.94684,7.17093 12.10095,10.08412 -0.22409,0.22409 -0.67228,0.56023 -0.56023,0.67228 -3.24933,1.56864 -16.58277,0.22409 -22.29711,-1.90478 0.78432,2.57705 2.57705,5.04206 5.15411,7.28297 4.59387,4.1457 11.54071,7.17093 17.143,7.73116 0.11204,0 0.33614,0 0.44818,0 0.67228,0 1.4566,0.11205 2.12887,0 -0.11204,0.56023 -0.78432,1.2325 -1.68068,1.90478 -2.24092,2.12887 -5.15411,4.25774 -8.29139,6.05047 -3.69751,2.01682 -7.39502,3.24933 -10.64435,3.69751 1.4566,1.12046 3.13728,2.12887 5.15411,2.80114 2.57705,0.89637 5.60228,1.4566 8.85161,1.4566 6.05047,0.11204 12.10095,-1.34455 15.79846,-3.80956 -0.2241,0.44819 0.22409,0.11205 -0.11205,1.34455 -1.79273,4.48183 -18.37551,18.71164 -25.77053,20.16824 h -0.22409 l 0.11205,0.11204 c 5.26615,1.68069 11.20457,1.68069 17.143,0 6.49865,-1.90477 14.22981,-6.72274 19.60801,-12.10094 -0.44818,4.93002 -5.82638,11.87685 -8.17934,15.01413 -0.22409,0.33614 -0.44819,0.56023 -0.56023,0.78432 2.6891,-1.12045 6.49865,-3.36137 10.08412,-6.16251 3.69751,-2.91319 10.30821,-8.73957 13.2214,-15.57436 0,-0.2241 1.12046,-0.44819 1.12046,-0.44819 0.22409,0.67228 0.44818,1.4566 0.78432,2.12887 1.12045,3.02524 2.24091,6.27457 0.89636,8.85162 -0.89636,1.68068 -2.80114,3.02523 -5.82638,3.80955 h -0.22409 l 0.11205,0.11205 c 0.11204,0.11205 0.33613,0.22409 0.44818,0.33614 0.56023,0.44818 1.2325,0.89636 1.2325,1.34455 0,0.22409 -0.11204,0.44818 -0.33613,0.67227 -4.93002,4.48183 -7.84321,6.94684 -15.9105,12.43708 l -0.11205,0.11205 0.11205,0.11204 c 0.22409,0.11205 0.44818,0.11205 0.56023,0.22409 0.44818,0.11205 0.78432,0.33614 1.12045,0.44819 1.00842,0.33613 2.12887,0.56022 3.24933,0.78432 1.68069,0.33613 3.36137,0.78432 5.15411,1.34455 h 0.11204 v -0.11205 c 0,0 0,0 0,0 5.82638,1.2325 13.2214,2.35296 19.27187,1.90478 3.69751,-0.33614 13.2214,-0.78432 21.2887,-2.01683 0,0 0,0.11205 0,0.11205 v 0.11205 h 0.11204 c 0.78432,-0.2241 1.68069,-0.44819 2.46501,-0.67228 3.13728,-0.56023 5.82638,-1.2325 7.73116,-2.12887 l 0.11204,-0.11204 -0.11204,-0.11205 c -8.0673,-5.49024 -11.09253,-7.95525 -15.9105,-12.43708 -0.22409,-0.22409 -0.33614,-0.44818 -0.33614,-0.67227 0,-0.44819 0.67228,-1.00842 1.2325,-1.34455 0.11205,-0.11205 0.33614,-0.22409 0.44819,-0.33614 l 0.11204,-0.11205 H 377.199 c -3.02523,-0.89636 -4.93001,-2.12887 -5.82638,-3.80955 -1.34455,-2.57705 -0.22409,-5.82638 0.89637,-8.85162 0.22409,-0.78432 0.56023,-1.45659 0.78432,-2.12887 l 1.12046,0.44819 c 2.91319,6.83479 9.52389,12.66117 13.2214,15.57436 3.58546,2.80114 7.39502,5.04206 10.08411,6.16251 -0.11204,-0.22409 -0.33613,-0.44818 -0.56022,-0.78432 -2.35297,-3.02523 -7.73116,-10.08411 -8.17934,-15.01413 5.37819,5.3782 13.10935,10.30821 19.608,12.10094 5.93843,1.68069 11.87685,1.68069 17.143,0 l 0.11205,-0.11204 h -0.22409 c -7.50707,-1.4566 -24.20189,-17.03096 -26.10666,-21.62483 0.11204,0 0.11204,0.11204 0.22409,0.11204 0,0 0,-0.11204 0,-0.11204 3.80955,2.465 9.74798,3.9216 15.79845,3.80955 3.24933,-0.11204 6.27456,-0.56023 8.85162,-1.45659 2.01682,-0.67228 3.69751,-1.68069 5.1541,-2.80115 -3.24933,-0.44818 -6.94684,-1.68068 -10.64435,-3.69751 -3.24932,-1.79273 -6.16251,-3.80955 -8.29138,-6.05047 -0.89637,-0.67227 -1.56864,-1.34455 -1.68069,-1.90478 0.78432,0.2241 1.4566,0.2241 2.24092,0.2241 z m -77.08749,21.73687 c -0.56023,0.67228 -0.11204,0.22409 0,0 z m 7.61911,24.42598 c 5.71434,-4.81797 14.678,-6.16252 18.15142,-5.93843 0,-0.44818 0.11204,-1.00841 -0.44819,-1.2325 -1.2325,0 -2.68909,-1.00841 -3.13728,-0.78432 -0.44818,-3.02524 -0.78432,-2.24092 0.67228,-4.25774 -2.6891,0.22409 -3.69751,0.67228 -5.04206,2.24092 -0.33614,0.44818 -0.22409,1.12045 -0.44818,1.56864 -0.11205,0.22409 -6.05048,2.12887 -9.63594,5.71433 -0.33614,1.34455 0,0.78432 -0.11205,1.68069 m 38.20761,0.11204 c 0.22409,-1.12045 0.22409,-0.44818 0.22409,-1.79273 -3.80956,-3.24933 -9.07571,-5.71433 -9.2998,-5.71433 -0.89636,-0.22409 -0.22409,-1.34455 -0.44818,-1.56864 -1.34455,-1.4566 -2.57705,-2.24092 -5.15411,-2.35296 1.12046,1.68068 1.4566,1.00841 0.89637,4.25773 -1.00841,0 -2.46501,1.12046 -3.69751,0.78432 -0.44818,0.33614 -0.67227,1.00842 -0.67227,1.34455 3.47341,-0.11204 10.75639,0.67228 18.15141,6.27457 m -49.18809,-83.25 c -3.13728,-2.46501 -5.3782,-6.49866 -6.83479,-10.30821 -0.22409,4.36978 1.00841,8.06729 3.36137,11.87685 1.2325,-1.00842 1.90478,-1.34455 3.47342,-1.56864 m -8.40343,5.04206 c -3.47342,-2.35297 -7.17093,-6.94684 -8.73957,-10.86844 -0.11205,4.59387 2.01682,9.97207 5.1541,13.55753 0.33614,-1.00841 2.80115,-2.35296 3.58547,-2.68909 m -6.38661,9.74798 c -3.36137,-0.78432 -8.0673,-3.13728 -10.42026,-5.71434 1.34455,3.58547 5.71434,8.0673 9.2998,9.86003 0.11205,-2.01682 0.56023,-2.91319 1.12046,-4.14569 m -0.33614,13.55753 c -3.24932,0.56023 -7.61911,0.44819 -10.98048,0.2241 3.24932,2.68909 7.50706,3.9216 11.54071,3.69751 -0.44818,-1.34455 -0.89636,-2.91319 -0.56023,-3.92161 m 3.36138,11.65276 c -2.6891,2.91319 -7.05889,5.93843 -11.87686,7.17093 6.16252,0.78432 11.09253,-0.89636 15.23823,-3.02523 -1.34455,-0.78432 -3.02524,-2.01683 -3.36137,-4.1457 m 9.0757,11.54072 c -2.01682,3.58546 -6.16252,8.17934 -9.52389,9.97207 4.93002,0.11204 9.97207,-3.58547 13.2214,-6.94684 -1.12046,-0.22409 -2.91319,-1.45659 -3.69751,-3.02523 m 9.2998,5.93842 c -0.22409,2.35296 -1.56864,5.71434 -3.58546,8.40343 3.36137,-1.68068 7.17092,-4.93001 8.62752,-7.95525 -1.68069,0.2241 -3.58547,0 -5.04206,-0.44818 m -2.12887,-54.23015 c -1.34455,-3.36137 -6.83479,-2.01682 -5.71433,1.79274 2.01682,-1.79274 2.91319,-1.79274 5.71433,-1.79274 m -8.73957,4.81797 c -2.91319,-2.57705 -7.61911,1.56864 -4.70592,4.59388 1.00841,-2.6891 2.01682,-3.13728 4.70592,-4.59388 m -6.83479,8.0673 c -3.36137,-0.2241 -4.59388,5.93842 -0.67227,6.49865 -0.44819,-2.6891 0,-4.48183 0.67227,-6.49865 m 0.44818,9.41184 c -3.58546,1.2325 -2.01682,7.8432 1.90478,6.94684 -1.68069,-2.35296 -2.01682,-4.03365 -1.90478,-6.94684 m 2.57706,11.09253 c -2.12887,2.57705 0.56022,7.50707 4.25773,5.3782 -2.35296,-1.4566 -3.24932,-2.80115 -4.25773,-5.3782 m 6.83479,9.63594 c -1.68069,3.24932 2.12887,6.94683 5.49024,4.25773 -2.57705,-0.67227 -3.36137,-2.12887 -5.49024,-4.25773 m 20.05619,22.40915 c 3.36137,1.56864 6.6107,-3.69751 6.6107,-7.28298 -1.4566,2.35296 -4.36979,5.71434 -6.6107,7.28298 m 23.64165,0.56023 c -2.12887,-1.79274 -4.70592,-5.49025 -6.05047,-7.84321 -0.11204,3.47342 2.6891,8.96366 6.05047,7.84321 m -34.73418,-18.15142 c 0,3.58547 6.16251,5.82638 7.39502,1.34455 -2.12887,0.22409 -3.58547,0 -5.49024,-0.56023 -0.44819,-0.11204 -1.23251,-0.56023 -1.90478,-0.78432 m 53.89401,-51.09286 c 1.56864,0.22409 2.24091,0.56022 3.47342,1.45659 2.35296,-3.80955 3.58546,-7.39502 3.36137,-11.87685 -1.4566,3.9216 -3.69751,7.95525 -6.83479,10.42026 m 8.62752,4.36978 c 0.78432,0.44818 3.13728,1.79273 3.58547,2.6891 3.13728,-3.58547 5.26615,-8.96366 5.1541,-13.55754 -1.56864,4.03365 -5.3782,8.51548 -8.73957,10.86844 m 6.38661,9.86003 c 0.56023,1.34455 1.00841,2.12887 1.2325,4.25774 3.58547,-1.79274 7.95525,-6.27457 9.2998,-9.86003 -2.57705,2.46501 -7.17093,4.81797 -10.5323,5.60229 m 0.89637,14.11776 c 0.33613,1.00842 -0.11205,2.6891 -0.56023,3.92161 4.03364,0.22409 8.17934,-1.00842 11.54071,-3.69751 -3.47342,0.22409 -7.73116,0.22409 -10.98048,-0.2241 m -3.47342,11.65276 c -0.33614,2.01683 -2.01683,3.36138 -3.36138,4.1457 4.25774,2.12887 9.07571,3.80955 15.23823,3.02523 -4.70592,-1.2325 -9.18775,-4.25774 -11.87685,-7.17093 m -8.96366,11.54072 c -0.78432,1.56864 -2.57706,2.80114 -3.58547,3.02523 3.24933,3.36137 8.29139,7.05888 13.2214,6.94684 -3.47342,-1.68069 -7.61911,-6.27456 -9.63593,-9.97207 m -9.63594,5.93842 c -1.45659,0.56023 -3.36137,0.67228 -5.04206,0.44818 1.4566,3.13729 5.15411,6.27457 8.62753,7.95525 -2.01683,-2.68909 -3.36138,-6.05047 -3.58547,-8.40343 m 1.68069,-54.23015 c 2.80114,0 3.69751,0 5.71433,1.79274 1.12046,-3.69751 -4.25774,-5.15411 -5.71433,-1.79274 m 8.96366,4.25774 c 2.6891,1.4566 3.58546,1.79273 4.70592,4.59388 2.80114,-3.13728 -1.79273,-7.17093 -4.70592,-4.59388 m 6.83479,8.0673 c 0.67227,2.01682 1.12046,3.80955 0.67227,6.49865 3.92161,-0.56023 2.6891,-6.72274 -0.67227,-6.49865 m 0,9.97207 c 0.11205,2.91319 -0.22409,4.59388 -1.90478,6.94684 4.03365,0.89636 5.60229,-5.71434 1.90478,-6.94684 m -2.46501,11.09253 c -1.00841,2.57705 -1.90477,3.9216 -4.25774,5.3782 3.69751,2.12887 6.38661,-2.80115 4.25774,-5.3782 m -6.94683,9.63594 c -2.12887,2.12886 -2.80115,3.69751 -5.49025,4.25773 3.36138,2.6891 7.17093,-1.00841 5.49025,-4.25773 m -8.96366,4.81796 c -0.67228,0.22409 -1.34455,0.67228 -1.90478,0.78432 -1.90478,0.56023 -3.47342,0.78432 -5.49024,0.56023 1.34454,4.59388 7.39502,2.24092 7.39502,-1.34455 m -24.65007,-54.1181 c 0.11204,0.67228 0.67227,1.12046 1.34455,1.12046 0.78432,0 1.45659,-0.67228 1.45659,-1.4566 0,-0.33613 -0.11204,-0.56023 -0.22409,-0.78432 -1.00841,0.33614 -1.90478,0.78432 -2.57705,1.12046 z m 6.6107,70.47678 c 0,0 -0.44819,-0.67227 -0.56023,-0.89636 -0.56023,-0.78432 -1.68069,-2.01683 -1.90478,-2.12887 -0.11204,-0.11205 -0.22409,-0.22409 -0.33614,-0.33614 -0.67227,0.78432 -0.78432,1.12046 -1.34455,1.34455 0,0 0,0 0,0 0,0 0,0 0,0 -0.11204,-0.11205 -1.45659,-1.56864 -1.68068,-1.45659 0,0 0,0 -0.11205,0 0,0 0,0 -0.11204,0 -0.33614,0 -1.56864,1.34454 -1.68069,1.45659 0,0 0,0 0,0 0,0 0,0 0,0 -0.56023,-0.22409 -0.67227,-0.56023 -1.34455,-1.34455 -0.11204,0.11205 -0.22409,0.22409 -0.33614,0.33614 -0.11204,0.11204 -1.34455,1.2325 -1.90477,2.12887 -0.2241,0.22409 -0.56023,0.89636 -0.56023,0.89636 -0.33614,0.2241 1.79273,-1.34455 2.24091,-1.00841 0.89637,0.11205 1.68069,0.89637 2.24092,1.23251 0,0 0,0 0,0 0,0 0,0 0,0 0,0 0,0 0,0 0.33613,-0.78432 0.89636,-2.57706 1.34455,-2.80115 0.44818,0.22409 1.00841,2.12887 1.34455,2.80115 0,0 0,0 0,0 0,0 0,0 0,0 0,0 0,0 0,0 0.56022,-0.2241 1.34455,-1.12046 2.24091,-1.23251 0.67228,-0.22409 2.80115,1.23251 2.46501,1.00841 z" id="path31347" style="clip-rule:evenodd;fill:#1d1d1b;fill-rule:evenodd;stroke-width:1.12046"/>
    <g id="g31353" transform="matrix(1.1204576,0,0,1.1204576,211.48332,369.07422)">
      <path class="st3" d="m 125.2,105.6 c 0,0.1 0,0.2 0,0.3 v 0.3 c 0,0.2 0,0.4 0,0.5 v 0 c 0.2,0.5 0.6,0.9 0.9,1.2 0.4,0.3 0.8,0.4 1.3,0.3 1,-0.2 1.8,-0.3 2.3,-0.6 0.5,-0.2 0.7,-0.3 0.8,-0.5 h 0.1 c 0.7,-0.3 1.2,-0.8 1.5,-1.5 0.2,-0.5 0.3,-1.2 0.3,-1.9 0,-1.2 -0.5,-2.6 -1.2,-3.7 -0.7,-1 -1.6,-1.7 -2.4,-1.8 -1.1,-0.3 -2.1,-0.3 -3,0.1 -0.4,0.2 -0.8,0.5 -1.1,0.8 -0.3,0.3 -0.6,0.7 -0.7,1.2 -0.2,0.8 -0.2,1.6 0.2,2.4 l 0.1,0.2 0.1,-0.1 c 0.1,-0.1 0.1,-0.2 0.1,-0.3 0.2,-0.3 0.3,-0.5 1,-0.7 v 0 c 0.5,0 0.8,-0.1 1.2,-0.1 0.9,0 1.5,0.1 2,0.4 0.8,0.4 1.2,1.3 1.5,2.6 v 0.1 l -0.1,0.1 c 0,0 -0.1,0.1 -0.1,0.1 l -0.1,0.1 c -0.7,0.5 -1.9,0.7 -2.3,0.7 -0.2,0 -0.4,0 -0.6,0 -0.5,0 -1.2,-0.1 -1.6,-0.3 0,0 0,0 -0.1,0 z" id="path31349"/>
      <path class="st0" d="m 127.4,108.4 c -0.4,0 -0.8,-0.1 -1.2,-0.4 -0.4,-0.3 -0.8,-0.7 -1,-1.3 v -0.1 c 0,-0.1 0,-0.4 -0.1,-0.6 v -0.3 c 0,-0.1 0,-0.2 0,-0.3 v -0.2 l 0.6,-0.3 0.2,0.1 c 0.4,0.2 1.2,0.3 2.1,0.3 0.5,0 1.6,-0.2 2.2,-0.7 v 0 c 0,0 0.1,0 0.1,-0.1 v 0 c -0.2,-1.2 -0.7,-2 -1.4,-2.4 -0.5,-0.3 -1.1,-0.4 -1.9,-0.4 -0.3,0 -0.7,0 -1.2,0.1 v 0 c -0.6,0.2 -0.7,0.3 -0.8,0.6 0,0.1 -0.1,0.2 -0.2,0.3 l -0.3,0.5 -0.2,-0.6 c -0.4,-0.9 -0.4,-1.8 -0.2,-2.6 0.2,-0.5 0.4,-0.9 0.8,-1.3 0.3,-0.4 0.7,-0.7 1.2,-0.9 0.9,-0.4 2,-0.4 3.1,-0.1 0.9,0.1 1.8,0.8 2.6,1.9 0.7,1.1 1.2,2.6 1.2,3.8 0,0.8 -0.1,1.5 -0.4,2 -0.3,0.7 -0.8,1.3 -1.6,1.6 v 0 c -0.1,0.1 -0.4,0.3 -0.9,0.5 -0.6,0.2 -1.4,0.4 -2.4,0.6 -0.2,0.3 -0.3,0.3 -0.3,0.3 z m -1.9,-2.7 c 0,0 0,0.1 0,0 v 0.4 c 0,0.2 0,0.4 0,0.5 0.2,0.4 0.5,0.8 0.9,1.1 0.4,0.2 0.7,0.3 1.1,0.3 0.9,-0.1 1.7,-0.3 2.2,-0.5 0.4,-0.2 0.7,-0.3 0.8,-0.4 l 0.1,-0.1 c 0.7,-0.3 1.1,-0.7 1.4,-1.4 0.2,-0.5 0.3,-1.1 0.3,-1.9 0,-1.1 -0.4,-2.5 -1.1,-3.6 -0.6,-1 -1.5,-1.6 -2.3,-1.7 -1.1,-0.3 -2,-0.3 -2.8,0 -0.4,0.2 -0.8,0.4 -1.1,0.7 -0.3,0.3 -0.5,0.7 -0.6,1.1 -0.2,0.6 -0.2,1.3 0.1,2 0.2,-0.3 0.4,-0.5 1.1,-0.8 h 0.1 c 0.5,-0.1 0.9,-0.1 1.3,-0.1 0.9,0 1.6,0.2 2.2,0.5 0.8,0.5 1.3,1.4 1.6,2.8 v 0.3 l -0.2,0.2 c 0,0 -0.1,0.1 -0.1,0.1 l -0.1,0.1 c -0.7,0.5 -1.9,0.7 -2.5,0.8 -1.1,0 -1.9,-0.1 -2.4,-0.4 z" id="path31351"/>
    </g>
    <path class="st5" d="m 390.64449,586.77913 c -1.34455,-5.93842 -3.9216,-10.42025 -7.8432,-14.4539 -0.22409,-0.22409 -0.56023,0.22409 -0.56023,0.22409 0,0.56023 0.22409,0.67227 0.56023,1.00841 l 2.12887,3.36137 c 0,0.56023 -0.56023,1.34455 -0.78432,1.00842 -2.35296,-3.13728 -2.01682,-3.9216 -4.70592,-4.70593 -3.13728,-0.44818 -5.93843,0.2241 -9.07571,0.2241 -1.45659,-3.36138 -4.25774,-6.38661 -7.61911,-8.29139 l 2.80114,-2.35296 c -6.72274,-1.90478 -15.35027,0.44818 -21.0646,4.14569 h -0.22409 c 0.89636,0.22409 1.56864,0.22409 2.35296,0.56023 3.36137,-1.34455 6.72275,-2.80114 11.42867,-3.13728 l 0.22409,1.79273 c -0.78432,0.11205 -2.80115,0.44818 -4.81797,1.12046 -3.02523,0.89637 -5.93842,1.79273 -6.6107,4.25774 -0.78432,2.35296 -0.78432,4.70592 -0.22409,6.83479 0.78432,1.00841 1.56864,1.56864 2.57705,2.57705 1.23251,1.34455 2.80115,2.12887 4.1457,3.69751 -0.2241,0.44819 -0.2241,1.00841 -1.00842,1.00841 -3.58546,-0.78432 -5.82638,-6.72274 -10.08412,-5.93842 -0.78432,0.44818 -1.56864,1.00841 -2.12886,1.45659 -1.90478,1.4566 -3.80956,3.47342 -5.71434,4.48183 -1.00841,-1.56864 -0.78432,-4.14569 -0.78432,-6.16251 -1.34455,1.2325 -1.79273,3.58546 -2.57705,5.37819 -0.56023,3.36138 -1.34455,6.27457 -1.12046,9.2998 0,1.79273 0.22409,3.36137 0.56023,4.93002 l 1.00841,3.58546 c 0.56023,-0.78432 0.56023,-2.35296 1.00841,-3.36137 -0.78432,-3.9216 -1.00841,-8.0673 0.2241,-11.42867 h 1.56864 c 0.22409,0 0.22409,0 0.22409,0.22409 -0.22409,0.56023 -0.33614,1.4566 -0.44819,2.24092 -0.11204,3.47341 -0.33613,6.6107 1.68069,8.62752 2.46501,2.57705 3.9216,3.69751 6.49865,4.59388 3.36138,-1.68069 6.49866,-3.24933 9.2998,-5.15411 0.56023,-3.80955 0.22409,-8.51548 2.57706,-11.87685 3.24932,-1.79273 7.61911,-1.68069 11.54071,-1.90478 1.56864,-2.57705 2.6891,-5.82638 3.24933,-8.96366 h 2.01682 c 0.33614,3.36137 -3.58546,7.50707 -2.57705,10.64435 1.45659,1.79273 3.36137,3.36137 4.25774,5.1541 0.56022,1.00842 0.67227,2.01683 1.34455,2.80115 2.35296,1.00841 5.37819,1.00841 8.06729,1.56864 v 1.90478 c -2.6891,0.56023 -5.15411,-0.2241 -7.73116,-0.56023 -2.57705,3.24932 -5.93842,7.28297 -10.08412,8.73957 -4.14569,-0.78432 -6.94683,-2.80115 -9.86002,-4.59388 -0.22409,-0.22409 -0.56023,-0.56023 -1.00841,-0.89637 l -9.86003,5.15411 c -0.11205,2.12887 0,3.13728 0.44818,6.05047 0.22409,1.2325 0.44818,2.01682 0.78432,3.02524 1.34455,2.80114 3.9216,3.36137 6.49866,4.70592 0.22409,0.22409 -0.2241,1.00841 -0.2241,1.56864 -1.79273,0 -3.9216,-1.34455 -5.49024,-2.12887 -0.44818,-0.56023 -1.34455,-1.00841 -1.79273,-1.56864 l -2.35296,-0.22409 c 3.9216,3.9216 9.2998,6.16251 15.23822,7.28297 0.78432,0.22409 1.34455,0.22409 2.12887,0.22409 l -1.56864,-1.79273 8.51548,-5.93842 c 0.67227,-2.57706 -1.00841,-5.93843 -1.34455,-8.85162 0.56023,-0.44818 1.56864,-0.44818 2.35296,-0.22409 l 2.12887,8.73957 c 2.57705,1.00841 4.70592,1.00841 7.50707,0.22409 2.35296,-2.01682 4.93001,-4.81797 7.17092,-6.83479 0.2241,0 0.56023,0 0.78432,0.22409 0,0.22409 0.56023,0.56023 0.2241,1.34455 -0.56023,0.78432 -1.12046,1.56864 -1.56864,2.12887 -1.79274,2.01682 -4.03365,3.13728 -4.70593,5.71433 4.1457,-3.13728 7.28298,-6.94683 9.63594,-11.20457 l -1.79273,0.33613 c -0.22409,-0.33613 -0.56023,-0.56023 -0.78432,-0.78432 -0.56023,-3.58546 -0.22409,-7.50706 -1.34455,-11.09253 1.56864,-3.36137 3.58546,-6.94683 4.36978,-10.86844 1.00841,-0.22409 1.4566,1.12046 2.35296,1.12046" id="path31355" style="clip-rule:evenodd;fill:#ffffff;fill-rule:evenodd;stroke-width:1.12046"/>
  </g>
</svg>