<svg xmlns="http://www.w3.org/2000/svg" viewBox="0 0 138 200" width="138" height="200">
	<style>
		tspan { white-space:pre }
		.shp0 { fill: #000000 } 
		.shp1 { fill: #a7f0f6 } 
	</style>
	<g>
		<path class="shp0" d="M68.99 0.31C68.94 0.34 67.49 7.79 65.77 16.86C64.04 25.93 62.61 33.37 62.6 33.39C62.59 33.41 62.38 33.46 62.14 33.49C61.9 33.53 61.21 33.65 60.61 33.76C60.01 33.87 58.95 34.11 58.26 34.28C57.57 34.45 56.61 34.72 56.12 34.87L55.22 35.14C37.58 14.97 32.41 9.11 32.35 9.1C32.3 9.1 32.25 9.15 32.25 9.22C32.25 9.29 34.79 16.46 37.89 25.16C41 33.86 43.55 41.06 43.57 41.15C43.6 41.27 43.5 41.39 43.18 41.63C42.94 41.81 42.36 42.28 41.89 42.69C41.43 43.09 40.67 43.78 40.21 44.21L39.38 45C12.41 39.65 4.48 38.08 4.36 38.06C4.19 38.03 4.14 38.05 4.15 38.14C4.16 38.21 10.32 42.23 17.83 47.08C25.34 51.93 31.51 55.92 31.55 55.96C31.58 55.99 31.51 56.22 31.38 56.48L31.16 56.95C3.24 56.95 0.08 56.97 0.08 57.05C0.08 57.1 0.3 57.57 0.58 58.08C0.85 58.6 1.31 59.51 1.6 60.11C1.89 60.72 2.35 61.74 2.63 62.39C2.91 63.04 3.36 64.15 3.63 64.87C3.9 65.58 4.32 66.79 4.56 67.55C4.81 68.31 5.17 69.53 5.38 70.27C5.58 71.01 5.9 72.25 6.07 73.03C6.25 73.81 6.52 75.15 6.68 76C6.83 76.84 7.05 78.25 7.16 79.12C7.28 79.99 7.43 81.31 7.49 82.05C7.56 82.78 7.66 83.95 7.71 84.65C7.78 85.57 7.82 96.4 7.86 125.22C7.9 161.23 7.92 164.61 8.04 165.35C8.12 165.8 8.27 166.6 8.38 167.14C8.49 167.68 8.72 168.54 8.88 169.05C9.04 169.56 9.32 170.35 9.5 170.8C9.67 171.24 10.1 172.16 10.44 172.83C10.79 173.5 11.34 174.47 11.68 174.98C12.02 175.49 12.6 176.3 12.97 176.77C13.34 177.24 14.13 178.13 14.74 178.74C15.35 179.36 16.3 180.24 16.85 180.69C17.41 181.14 18.36 181.83 18.96 182.23C19.56 182.63 20.75 183.3 21.6 183.71C22.44 184.13 23.5 184.61 23.95 184.77C24.39 184.94 25.23 185.22 25.81 185.39C26.39 185.57 27.5 185.83 28.28 185.99C29.06 186.14 31.1 186.54 32.82 186.88C34.53 187.22 37.07 187.74 38.45 188.05C39.83 188.36 42.07 188.89 43.43 189.22C44.79 189.56 46.78 190.08 47.85 190.37C48.92 190.67 50.34 191.07 51.01 191.28C51.68 191.48 53.06 191.92 54.09 192.26C55.11 192.59 56.66 193.14 57.53 193.46C58.4 193.79 59.68 194.3 60.37 194.6C61.06 194.89 62.17 195.41 62.84 195.75C63.51 196.08 64.51 196.63 65.07 196.96C65.63 197.29 66.44 197.83 66.87 198.15C67.3 198.48 67.97 199.02 68.35 199.37L69.04 200C70.05 199.06 70.67 198.53 71.09 198.22C71.5 197.92 72.24 197.42 72.73 197.11C73.22 196.81 74.24 196.24 75 195.86C75.75 195.47 77.03 194.88 77.83 194.54C78.63 194.2 79.75 193.75 80.3 193.54C80.86 193.33 81.88 192.96 82.57 192.72C83.26 192.47 84.59 192.04 85.53 191.74C86.47 191.45 88.13 190.96 89.22 190.65C90.31 190.34 92.5 189.76 94.08 189.36C95.66 188.97 98.03 188.4 99.35 188.11C100.66 187.82 102.9 187.34 104.33 187.05C105.76 186.76 107.65 186.39 108.54 186.23C109.44 186.07 110.71 185.79 111.38 185.62C112.05 185.45 113.05 185.15 113.61 184.95C114.17 184.75 115 184.42 115.47 184.21C115.94 184 116.78 183.59 117.34 183.28C117.89 182.98 118.77 182.45 119.28 182.11C119.79 181.76 120.61 181.17 121.1 180.78C121.59 180.39 122.53 179.53 123.17 178.88C123.82 178.23 124.63 177.35 124.96 176.93C125.3 176.5 125.81 175.81 126.11 175.39C126.4 174.96 126.87 174.21 127.15 173.72C127.43 173.23 127.87 172.37 128.12 171.81C128.37 171.25 128.72 170.38 128.9 169.86C129.08 169.35 129.36 168.4 129.52 167.75C129.68 167.1 129.89 166.06 129.99 165.43L130.18 164.3C130.26 94.89 130.29 85.05 130.37 84.16C130.42 83.51 130.54 82.26 130.63 81.38C130.72 80.49 130.88 79.14 130.99 78.37C131.1 77.6 131.29 76.46 131.4 75.83C131.52 75.21 131.76 74.04 131.94 73.23C132.12 72.43 132.44 71.11 132.66 70.31C132.88 69.5 133.33 68.04 133.66 67.06C133.99 66.08 134.48 64.71 134.76 64.01C135.03 63.32 135.46 62.3 135.71 61.74C135.95 61.18 136.57 59.9 137.08 58.9C137.58 57.89 138 57.04 138 57.01C138 56.97 131 56.95 122.44 56.95L106.88 56.95L106.4 55.97C126.15 43.23 132.36 39.22 132.94 38.85C133.6 38.42 133.96 38.14 133.91 38.1C133.86 38.05 126.99 39.38 116.22 41.51L98.62 45C97.14 43.58 96.28 42.81 95.74 42.36C95.21 41.91 94.68 41.49 94.58 41.43L94.39 41.31C103.62 15.35 105.8 9.12 105.75 9.08C105.7 9.04 104.89 9.9 103.86 11.08C102.87 12.21 97.72 18.09 92.42 24.15C83.18 34.7 82.77 35.16 82.57 35.08C82.46 35.04 81.82 34.84 81.16 34.65C80.49 34.46 79.41 34.18 78.76 34.04C78.12 33.9 77.1 33.7 76.5 33.6L75.4 33.41C70.61 8.24 69.18 0.78 69.14 0.59C69.1 0.38 69.04 0.27 68.99 0.31Z"/>
		<path class="shp1" d="M66.61 39.54C66.36 39.55 66.01 39.58 65.82 39.6L65.48 39.64L65.48 48.82C65.76 48.75 67.34 48.7 69.18 48.67L72.53 48.62L72.53 39.6C71.11 39.51 69.88 39.49 68.88 39.5C67.88 39.5 66.85 39.52 66.61 39.54ZM59.32 40.74C58.71 40.9 57.53 41.26 56.68 41.55C55.84 41.83 54.82 42.19 54.43 42.36L53.73 42.65C53.73 49.2 53.75 51.1 53.79 51.1C53.82 51.09 54.19 50.99 54.62 50.86C55.04 50.72 55.9 50.49 56.52 50.32C57.14 50.16 58.35 49.89 59.19 49.72L60.73 49.42L60.78 40.45C60.49 40.46 59.92 40.59 59.32 40.74ZM77.26 40.56C77.24 40.61 77.23 42.63 77.24 45.03L77.27 49.41C79.9 49.95 81.16 50.23 81.76 50.39C82.36 50.55 83.17 50.78 83.55 50.89C83.92 51.01 84.24 51.1 84.25 51.1C84.27 51.1 84.27 49.19 84.25 46.86L84.23 42.62C82.85 42.07 81.9 41.72 81.24 41.5C80.57 41.28 79.47 40.95 78.81 40.77C78.14 40.6 77.52 40.46 77.45 40.46C77.37 40.46 77.28 40.5 77.26 40.56ZM47.79 45.73C47.2 46.13 46.31 46.77 45.82 47.17C45.33 47.56 44.4 48.41 43.75 49.06C43.1 49.71 42.44 50.41 42.27 50.61L41.98 50.97L42.02 56.62C43.08 55.9 43.81 55.44 44.33 55.13C44.84 54.83 46.06 54.18 47.04 53.69C48.02 53.2 48.87 52.8 48.92 52.8C49 52.8 49.03 51.97 49.03 48.9C49.03 46.49 49 45 48.95 45C48.91 45 48.39 45.33 47.79 45.73ZM88.97 48.86L88.97 52.72C90.39 53.38 91.25 53.8 91.81 54.09C92.37 54.38 93.22 54.85 93.72 55.14C94.21 55.43 94.93 55.89 95.32 56.15C95.71 56.41 96.04 56.62 96.07 56.62C96.09 56.62 96.1 55.37 96.1 53.84L96.1 51.06C95.42 50.24 94.72 49.5 94.11 48.9C93.49 48.29 92.58 47.47 92.09 47.08C91.6 46.69 90.75 46.07 90.19 45.69C89.63 45.32 89.13 45.01 89.08 45.01C89 45 88.97 45.83 88.97 48.86ZM28.32 76.79C28.3 76.84 28.29 96.9 28.3 121.36L28.32 165.84L38.49 165.88C38.49 119.06 38.52 110.89 38.58 110.91C38.62 110.92 42.78 121.87 47.82 135.26C52.85 148.64 57.51 161 58.16 162.74L59.36 165.89L66.65 165.84L66.69 76.69L56.48 76.69C56.48 126.36 56.46 131.92 56.38 131.9C56.32 131.88 51.64 119.46 45.98 104.3L35.68 76.73C29.13 76.69 28.35 76.71 28.32 76.79ZM75.93 95.92C75.93 112.93 75.94 115.23 76.05 115.88C76.12 116.28 76.25 116.85 76.33 117.14C76.42 117.43 76.65 118 76.85 118.4C77.05 118.8 77.39 119.39 77.61 119.7C77.83 120.01 78.23 120.51 78.5 120.8C78.77 121.09 79.24 121.53 79.54 121.79C79.85 122.04 80.41 122.43 80.79 122.66C81.17 122.89 81.77 123.19 82.13 123.33C82.48 123.46 83.09 123.65 83.46 123.74C84.1 123.9 84.45 123.91 88.23 123.94L92.3 123.96L92.3 113.57L86.14 113.57L86.14 76.69L75.93 76.69L75.93 95.92ZM99.51 116.08L99.51 155.48L86.14 155.48L86.14 141.35L75.93 141.35C75.93 154.37 75.96 157.15 76.02 157.58C76.07 157.92 76.2 158.52 76.3 158.9C76.41 159.27 76.66 159.91 76.86 160.32C77.05 160.72 77.44 161.36 77.72 161.74C78 162.12 78.47 162.67 78.76 162.96C79.05 163.25 79.6 163.72 79.98 164.01C80.36 164.29 81.03 164.7 81.48 164.91C81.93 165.13 82.65 165.4 83.1 165.52C83.55 165.63 84.31 165.76 84.8 165.8C85.29 165.84 88.88 165.88 92.78 165.88C96.68 165.88 100.29 165.84 100.81 165.8C101.32 165.76 102.08 165.64 102.51 165.53C102.93 165.42 103.61 165.18 104.01 164.99C104.41 164.81 104.97 164.49 105.26 164.3C105.55 164.1 106.04 163.72 106.36 163.45C106.67 163.18 107.12 162.73 107.36 162.45C107.6 162.17 107.99 161.65 108.22 161.29C108.46 160.93 108.77 160.39 108.91 160.07C109.05 159.76 109.23 159.27 109.32 158.98C109.41 158.69 109.54 158.12 109.6 157.72C109.7 157.08 109.72 151.59 109.72 116.84L109.72 76.69L99.51 76.69L99.51 116.08Z"/>
	</g>
</svg>