<svg xmlns:dc="http://purl.org/dc/elements/1.1/" xmlns:cc="http://creativecommons.org/ns#" xmlns:rdf="http://www.w3.org/1999/02/22-rdf-syntax-ns#" xmlns:svg="http://www.w3.org/2000/svg" xmlns="http://www.w3.org/2000/svg" xmlns:sodipodi="http://sodipodi.sourceforge.net/DTD/sodipodi-0.dtd" xmlns:inkscape="http://www.inkscape.org/namespaces/inkscape" id="svg2" version="1.1" inkscape:version="0.91 r13725" xml:space="preserve" width="313" height="700" viewBox="0 0 313.00001 700" sodipodi:docname="Logo Granada CF.svg"><metadata id="metadata8"><rdf:RDF><cc:Work rdf:about=""><dc:format>image/svg+xml</dc:format><dc:type rdf:resource="http://purl.org/dc/dcmitype/StillImage"/><dc:title/></cc:Work></rdf:RDF></metadata><defs id="defs6"/><sodipodi:namedview pagecolor="#ffffff" bordercolor="#666666" borderopacity="1" objecttolerance="10" gridtolerance="10" guidetolerance="10" inkscape:pageopacity="0" inkscape:pageshadow="2" inkscape:window-width="1440" inkscape:window-height="788" id="namedview4" showgrid="false" inkscape:zoom="0.77679834" inkscape:cx="252.508" inkscape:cy="444.87268" inkscape:window-x="0" inkscape:window-y="1" inkscape:window-maximized="1" inkscape:current-layer="g10"/><g id="g10" inkscape:groupmode="layer" inkscape:label="Logo Granada CF" transform="matrix(1.25,0,0,-1.25,0,700.00002)"><g id="g4760" transform="matrix(2.8228397,0,0,2.822225,-258.29605,-725.24379)"><path id="path528" d="m 157.8272,434.7139 c -0.671,11.537 -10.236,20.687 -21.942,20.687 -11.706,0 -21.271,-9.15 -21.943,-20.687 l -22.43,0 -0.01,-131.107 c 8.642,-38.815 44.341,-46.631 44.341,-46.631 l 0.025,0 c 0,0 35.698,7.816 44.339,46.631 l 0,0.314 0,130.793 -22.38,0 z" style="fill:#c31632;fill-opacity:1;fill-rule:nonzero;stroke:none" inkscape:connector-curvature="0"/><path id="path4722" d="m 174.9412,303.5659 c -6.174,-33.201 -39.085,-41.323 -39.085,-41.323 0,0 -32.914,8.122 -39.088,41.323 l 0.014,20.5 78.159,103.34 0,-123.84 z" style="fill:#ffffff;fill-opacity:1;fill-rule:nonzero;stroke:none" inkscape:connector-curvature="0"/></g><g id="g4744" transform="matrix(2.8228397,0,0,2.822225,-258.29605,-725.24379)"><path id="path4720" d="m 156.0902,411.2719 -4.108,-5.282 -49.914,0.012 0.114,-57.256 31.29,41.466 -20.9,0 0,5.27 31.481,0 -47.269,-62.797 -0.002,78.548 59.308,0.039 z" style="fill:#ffffff;fill-opacity:1;fill-rule:nonzero;stroke:none" inkscape:connector-curvature="0"/><g id="g4734"><path style="fill:#ffffff;fill-opacity:1;fill-rule:nonzero;stroke:none" d="m 124.8622,442.9159 c -3.188,-5.217 -3.143,-13.807 0.097,-18.86 -0.75,-0.381 -1.436,-0.813 -2.046,-1.29 -2.5,2.999 -3.875,6.772 -3.875,10.66 0,3.903 1.388,7.692 3.916,10.706 0.557,-0.432 1.185,-0.834 1.908,-1.216" id="path4718" inkscape:connector-curvature="0"/><path style="fill:#ffffff;fill-opacity:1;fill-rule:nonzero;stroke:none" d="m 134.6362,443.2749 c -4.198,0.175 -7.827,1.167 -9.877,2.691 2.747,2.396 6.226,3.843 9.877,4.111 l 0,-6.802 z" id="path4716" inkscape:connector-curvature="0"/><path style="fill:#ffffff;fill-opacity:1;fill-rule:nonzero;stroke:none" d="m 144.4952,441.8589 c 1.107,-1.76 1.796,-4.265 1.959,-7.119 l -21.076,0 c 0.153,2.767 0.834,5.338 1.896,7.151 5.203,-1.805 12.042,-1.817 17.221,-0.032" id="path4714" inkscape:connector-curvature="0"/><path style="fill:#ffffff;fill-opacity:1;fill-rule:nonzero;stroke:none" d="m 137.4162,443.2829 0,6.775 c 3.538,-0.32 6.918,-1.759 9.595,-4.09 -1.945,-1.501 -5.472,-2.489 -9.595,-2.685" id="path4712" inkscape:connector-curvature="0"/><path style="fill:#ffffff;fill-opacity:1;fill-rule:nonzero;stroke:none" d="m 148.7722,422.6609 c -0.579,0.461 -1.218,0.878 -1.912,1.246 3.29,5.192 3.31,13.842 0.039,18.984 0.709,0.373 1.351,0.79 1.918,1.245 2.533,-3.006 3.923,-6.796 3.923,-10.71 0,-3.948 -1.408,-7.757 -3.968,-10.765" id="path4710" inkscape:connector-curvature="0"/><path style="fill:#ffffff;fill-opacity:1;fill-rule:nonzero;stroke:none" d="m 134.6362,423.5759 0,-6.812 c -3.671,0.268 -7.165,1.732 -9.921,4.153 2.029,1.54 5.674,2.52 9.921,2.659" id="path4708" inkscape:connector-curvature="0"/><path style="fill:#ffffff;fill-opacity:1;fill-rule:nonzero;stroke:none" d="m 146.9702,420.8419 c -2.66,-2.306 -6.024,-3.735 -9.554,-4.055 l 0,6.762 c 4.078,-0.227 7.589,-1.224 9.554,-2.707" id="path4706" inkscape:connector-curvature="0"/><path style="fill:#ffffff;fill-opacity:1;fill-rule:nonzero;stroke:none" d="m 144.4602,424.9469 c -2.628,0.911 -5.683,1.367 -8.734,1.367 -2.917,0 -5.827,-0.417 -8.348,-1.256 -1.095,1.726 -1.809,4.261 -1.988,7.05 l 21.054,0 c -0.176,-2.801 -0.889,-5.377 -1.984,-7.161" id="path4704" inkscape:connector-curvature="0"/></g><path d="m 133.2646,343.4372 0,-37.306 0,-0.036 c -9.276,1.167 -16.454,9.078 -16.454,18.672 0,9.593 7.178,17.503 16.454,18.67 m 0,-42.532 0,-5.314 5.277,0 0,5.378 c 5.482,0.663 10.395,3.169 14.095,6.889 l -3.644,3.643 c -2.764,-2.783 -6.394,-4.707 -10.451,-5.336 l 0,21.289 25.88,0 0,5.264 -25.88,0 0,10.649 c 4.014,-0.622 7.609,-2.512 10.361,-5.248 l 3.609,3.679 c -3.685,3.651 -8.549,6.109 -13.97,6.765 l 0,13.402 25.88,34.296 0,-24.283 5.284,0 -0.086,39.922 -36.355,-48.178 0,-8.751 0,-6.344 c -12.131,-1.19 -21.609,-11.418 -21.609,-23.86 0,-12.444 9.478,-22.671 21.609,-23.862" style="fill:#c31632;fill-opacity:1;fill-rule:nonzero;stroke:none" id="path520" inkscape:connector-curvature="0"/><g id="g4728"><path style="fill:#c31632;fill-opacity:1;fill-rule:nonzero;stroke:none" d="m 139.7535,285.8063 c -0.083,0.073 -0.18,0.132 -0.291,0.173 -0.108,0.052 -0.223,2.143 0.62,4.337 -0.086,-0.174 -1.237,-1.936 -2.427,-1.936 -1.635,0 -1.848,1.554 -1.848,1.554 0,0 -0.174,-0.925 -1.362,-1.287 -1.191,-0.363 -2.551,0.736 -2.551,0.736 0,0 0.917,-1.106 0.917,-1.924 0,-0.825 -1.172,-1.749 -1.332,-1.837 -2.668,-1.685 -4.75,-4.813 -4.75,-8.463 0,-5.304 4.056,-9.604 9.073,-9.604 5.015,0 9.07,4.3 9.07,9.604 0,3.814 -2.088,7.106 -5.119,8.647" id="path524" inkscape:connector-curvature="0"/><path style="fill:#ffffff;fill-opacity:1;fill-rule:nonzero;stroke:none" d="m 135.0845,270.0853 c 1.547,1.19 1.73,2.46 1.73,5.014 0,2.557 -4.098,3.636 -4.098,6.1 0,2.296 3.086,3.633 3.474,3.785 0.042,0.026 0.079,0.031 0.079,0.031 0,0 -0.051,-0.023 -0.079,-0.031 -0.198,-0.103 -0.742,-0.583 -0.742,-2.963 0,-2.915 4.274,-2.191 4.274,-6.096 0,-3.922 -4.547,-5.928 -4.638,-5.84" id="path4726" inkscape:connector-curvature="0"/></g></g></g></svg>