<svg xmlns:inkscape="http://www.inkscape.org/namespaces/inkscape" xmlns:sodipodi="http://sodipodi.sourceforge.net/DTD/sodipodi-0.dtd" xmlns="http://www.w3.org/2000/svg" xmlns:svg="http://www.w3.org/2000/svg" version="1.1" id="Calque_1" x="0px" y="0px" viewBox="0 0 612.25216 750" xml:space="preserve" sodipodi:docname="Logo Grenoble Foot 38 - 2018.svg" inkscape:version="1.2 (dc2aeda, 2022-05-15)" width="612.25214" height="750"><defs id="defs195"/><sodipodi:namedview id="namedview193" pagecolor="#ffffff" bordercolor="#666666" borderopacity="1.0" inkscape:showpageshadow="2" inkscape:pageopacity="0.0" inkscape:pagecheckerboard="0" inkscape:deskcolor="#d1d1d1" showgrid="false" inkscape:zoom="1.1668727" inkscape:cx="162.39989" inkscape:cy="168.82733" inkscape:window-width="1440" inkscape:window-height="900" inkscape:window-x="0" inkscape:window-y="0" inkscape:window-maximized="0" inkscape:current-layer="Calque_1"/>
<style type="text/css" id="style132">
	.st0{fill:#FFFFFF;}
	.st1{fill:#014898;}
</style>












<g id="g484" transform="matrix(1.8536826,0,0,1.8536826,-0.01922231,0)"><path class="st1" d="m 14.3,47.8 2.3,6.3 4.9,-1.8 0.1,0.4 c 0.5,2.1 -0.5,4.1 -2.8,4.9 C 15.5,58.8 13,56.7 10.9,51.1 8.8,45 9,41.7 12.3,40.5 c 2.1,-0.8 4.2,0.3 5.7,3.1 l 8.3,-4.1 C 22.7,33.1 16.9,30.9 10,33.5 1.1,36.9 -2.1,44.9 1.4,54.4 c 3.5,9.5 10.9,13.3 18.7,10.4 3.8,-1.4 6.3,-3.8 7,-6.5 l 2.4,2.6 4.4,-1.6 -6.2,-16.5 z" id="path138"/><path class="st1" d="m 44.4,29.1 c -3.2,1.1 -4.5,3.5 -4,7.1 l -1.6,-4.5 -7.4,2.6 7.9,22.2 8.5,-3 L 44,42.8 c -1,-2.9 -0.1,-4.9 2.8,-5.9 0.4,-0.1 1,-0.3 1.7,-0.4 l -2.8,-7.8 c -0.5,0.1 -0.9,0.2 -1.3,0.4 z" id="path140"/><path class="st1" d="m 68.6,40.9 c -2.3,0.6 -4,-0.5 -4.7,-3.2 0,-0.1 0,-0.2 -0.1,-0.3 l 15.6,-4 c -0.1,-0.6 -0.2,-1.1 -0.3,-1.6 -1.8,-7 -8.1,-10.9 -15.8,-8.9 -3.6,0.9 -6.2,2.7 -7.8,5.3 -1.9,3 -2.5,6.4 -1.6,10 0.9,3.7 3.5,6.8 7,8.3 2.6,1.1 5.6,1.3 9,0.4 6.2,-1.6 9.8,-5.7 10,-11.3 l -8.7,1.7 c 0.2,1.8 -0.7,3.1 -2.6,3.6 z m -6,-8.4 c -0.6,-2.2 0.3,-3.9 2.3,-4.4 2,-0.5 3.6,0.5 4.2,2.9 0,0.1 0,0.1 0,0.1 l -6.4,1.7 c 0,-0.1 0,-0.2 -0.1,-0.3 z" id="path142"/><path class="st1" d="m 96.8,14.8 c -3,0.6 -5.1,2.4 -5.8,5.3 l -0.7,-3.3 -8.2,1.7 4.7,23.1 8.8,-1.8 -2.9,-14.2 c -0.4,-2.2 0.3,-3.5 1.8,-3.8 1.5,-0.3 2.3,0.6 2.8,2.8 l 2.9,14.2 8.9,-1.8 -3.1,-15.2 c -1.2,-5.9 -3.9,-8.1 -9.2,-7 z" id="path144"/><path class="st1" d="m 122.8,10.2 c -7.6,0.9 -12.1,6.4 -11.2,13.8 0.9,7.4 6.6,11.7 14.1,10.8 7.6,-0.9 12.1,-6.5 11.2,-13.8 C 136,13.6 130.4,9.2 122.8,10.2 Z m 2.2,18.7 c -2.2,0.3 -3.4,-1.7 -3.9,-6.1 -0.5,-4.4 0.1,-6.6 2.4,-6.8 2.2,-0.3 3.4,1.7 3.9,6.1 0.5,4.4 -0.2,6.6 -2.4,6.8 z" id="path146"/><path class="st1" d="m 155.8,7.2 c -3,0.2 -5,1.5 -5.7,3.7 L 149.4,0 l -9,0.6 2,31.7 4.9,-0.3 1.1,-3.4 c 2.1,2.5 4.8,3.6 8.2,3.4 2.6,-0.2 5,-1.5 6.6,-3.7 1.8,-2.5 2.8,-5.8 2.5,-9.5 -0.3,-7.6 -4.2,-11.9 -9.9,-11.6 z m -2,19.2 c -1.8,0.1 -2.7,-0.8 -2.8,-2.9 l -0.5,-7.4 c -0.1,-1.6 0.9,-2.7 2.3,-2.8 2.3,-0.1 3.3,1.7 3.6,5.8 0.2,4.8 -0.4,7.1 -2.6,7.3 z" id="path148"/><polygon class="st1" points="171.7,0.2 169.8,31.9 179.2,32.5 181.1,0.8 " id="polygon150"/><path class="st1" d="m 198.7,9.2 c -3.6,-0.3 -6.7,0.5 -9.1,2.4 -2.8,2.2 -4.4,5.2 -4.8,8.9 -0.3,3.8 1.1,7.5 3.9,10.1 2.1,1.9 4.8,3 8.3,3.3 6.4,0.5 11.1,-2.2 13.2,-7.3 l -8.7,-1.3 c -0.5,1.8 -1.9,2.7 -3.8,2.6 -2.4,-0.2 -3.6,-1.8 -3.4,-4.6 0,-0.1 0,-0.2 0,-0.3 l 16.1,1.4 c 0.1,-0.6 0.2,-1.1 0.2,-1.6 0.7,-7.2 -4,-12.9 -11.9,-13.6 z m 2.8,9.8 -6.6,-0.6 c 0,-0.1 0,-0.2 0,-0.4 0.2,-2.3 1.6,-3.5 3.6,-3.4 2.1,0.2 3.2,1.7 3,4.2 0,0.1 0,0.2 0,0.2 z" id="path152"/><polygon class="st1" points="229.2,38.4 238.7,40.6 241.4,28.9 251.5,31.3 253.1,24.3 243,22 244.2,16.8 257.1,19.8 258.8,12.6 236.3,7.4 " id="polygon154"/><path class="st1" d="m 272.3,24.6 c -7.3,-2 -13.6,1.3 -15.6,8.5 -2,7.2 1.6,13.3 8.9,15.4 7.4,2.1 13.6,-1.4 15.6,-8.5 2,-7.2 -1.6,-13.4 -8.9,-15.4 z M 272,37.4 c -1.2,4.2 -2.7,6 -4.8,5.4 -2.2,-0.6 -2.5,-2.9 -1.3,-7.1 1.2,-4.2 2.6,-6 4.8,-5.4 2.1,0.6 2.5,2.9 1.3,7.1 z" id="path156"/><path class="st1" d="m 300.9,34.6 c -7.3,-2.3 -13.6,0.9 -15.9,8 -2.2,7.1 1.2,13.4 8.4,15.7 7.3,2.3 13.6,-1 15.9,-8.1 2.3,-7.1 -1.1,-13.4 -8.4,-15.6 z m -0.7,12.7 c -1.3,4.2 -2.9,5.9 -5,5.3 -2.1,-0.7 -2.4,-3 -1.1,-7.2 1.3,-4.2 2.8,-5.9 5,-5.3 2.2,0.8 2.4,3 1.1,7.2 z" id="path158"/><path class="st1" d="m 323.9,51.8 4.1,1.7 2.3,-5.5 -4.1,-1.7 2.9,-7 -7.6,-2.7 -3.3,6.4 -3.6,-1.5 -2.3,5.5 3.3,1.4 -4,9.8 c -1.9,4.8 -0.4,8.1 4.8,10.2 1.6,0.7 3.4,1.1 5.3,1.5 l 2.5,-6.1 c -1.1,-0.1 -1.9,-0.3 -2.5,-0.6 -1.5,-0.6 -1.8,-1.4 -1.2,-2.8 z" id="path160"/></g>










<g id="g548" transform="matrix(1.8536826,0,0,1.8536826,-0.01922231,0)"><g id="g136" style="fill:#ffffff">
	<path class="st0" d="m 316.9,176.5 c -6.1,37.7 -19.5,74.2 -39.9,108.4 -25.5,42.7 -61.9,82 -108.3,116.7 l -3.9,2.9 -0.1,0.1 -0.1,-0.1 -3.9,-2.9 C 114.3,366.9 77.8,327.6 52.4,284.9 32,250.7 18.5,214.2 12.4,176.5 7,142.9 8.5,124.2 10.7,106.3 c 2.4,-19.5 6.1,-26 6.2,-26.5 0,0 0.3,-0.6 0.6,-0.9 0.3,-0.3 0.9,-0.6 0.9,-0.6 61.3,-27.9 116.2,-34 146,-34 29.8,0 85.2,6.1 146.5,34 0,0 0.6,0.4 0.9,0.7 0.3,0.3 0.5,0.9 0.5,0.9 0.2,0.5 3.8,7 6.2,26.5 2.3,17.7 3.8,36.5 -1.6,70.1 z" id="path134" style="fill:#ffffff"/>
</g><polygon class="st1" points="175.6,304.5 211.2,304.5 211.2,260.3 249.2,260.3 249.2,233.9 211.2,233.9 211.2,214.5 259.6,214.5 259.6,187.1 175.6,187.1 " id="polygon162"/><g id="g528"><path class="st1" d="m 164.7,154.8 c 0.3,0 0.9,-0.3 1.1,-1 l 5.6,-20.4 c -2,1 -4.3,1.6 -6.7,1.6 z" id="path164"/><path class="st1" d="m 164.7,57 v 8.9 c 2.7,9.5 3.4,15.6 3.4,15.6 3.8,-3.8 9.9,-4.2 9.9,-4.2 C 171.6,60.4 164.7,57 164.7,57 Z" id="path166"/><path class="st1" d="m 171.3,119.8 c 0,3.6 -3,6.6 -6.6,6.6 v 5 c 6.4,0 11.6,-5.2 11.6,-11.6 0,-6.4 -5.2,-11.6 -11.6,-11.6 v 5 c 3.6,0 6.6,3 6.6,6.6 z" id="path168"/><path class="st1" d="m 184.8,152.8 c 0,0 4.1,4.6 11.9,10.7 -3.3,-9.3 -6.4,-14.7 -6.4,-14.7 5.2,0.8 10.5,-2.4 10.5,-2.4 4.8,17.4 1.2,24.2 1.2,24.2 v 0 0 c 0,0 -7,1.6 -22,-8.4 -0.1,0.1 4,-4.2 4.8,-9.4 z" id="path170"/><path class="st1" d="m 187.8,88.4 c -3.5,-3.1 -10.3,-2.9 -14.2,-0.8 -6.1,3.2 -7.5,10.3 -7.9,16.6 -0.3,0 -0.7,0 -1,0 0,-4.9 0,-9.7 0,-14.6 0,-2.3 3.4,-5.4 4.9,-6.7 4.8,-4 13.1,-4.6 17.8,-3 7.9,2.8 11.7,10.1 12,18.1 0,0 0.2,8.4 -6.1,12.7 4.5,0 8.8,2.8 10.2,4 6.2,5.3 7.2,13.3 4.9,20.8 -2.3,7.4 -9.2,11.3 -16.8,11.4 0,0 -5.2,0.4 -9.4,-2.6 0,0 5.7,18.9 -17.4,22.4 V 159 c 0,0 12.5,0.9 13,-13.2 0,0 0.5,-5.5 -4.9,-12 l 2.1,-1.9 c 0,0 4.9,10.3 15.5,8.7 7.1,-1.1 13.4,-7 12,-14.6 -1.3,-6.7 -7.1,-10.8 -13.9,-10.9 0,0 -4.8,0 -8.9,1.8 -0.2,-1.1 -0.5,-2.1 -1,-3 1.5,-0.2 6.9,-1.4 10.1,-5.3 -0.1,-0.2 9.3,-11 -1,-20.2 z" id="path172"/><path class="st1" d="m 224.5,101.1 c 0,0 -5.3,-5.6 -23.3,-6.7 0,0 1.3,6 -1.2,10.7 0,0 6.1,-1.2 16,-1.4 -8.2,5.4 -14,7.8 -14,7.8 4.7,2.5 7.5,7.7 7.5,7.7 14.2,-11 15,-18.1 15,-18.1 z" id="path174"/><path class="st1" d="m 179.8,119.8 c 0,-0.6 0,-1.3 -0.1,-1.9 l 17.5,11.4 c 0.6,0.4 0.7,1 0.5,1.5 -0.3,0.9 -1.6,0.8 -1.6,0.8 l -21,-0.9 c 2.9,-2.7 4.7,-6.6 4.7,-10.9 z" id="path176"/><path class="st1" d="m 166.9,104.8 16.2,-12 c 0,0 0.9,-0.6 1.7,-0.2 0.3,0.2 0.7,0.7 0.4,1.5 l -7.5,17.9 c -2.3,-3.7 -6.2,-6.5 -10.8,-7.2 z" id="path178"/></g><g id="g188">
	<g id="g182">
		<path class="st1" d="m 318.6,106.3 c -2.4,-19.5 -6.1,-26 -6.2,-26.5 0,0 -0.3,-0.6 -0.5,-0.9 -0.3,-0.3 -0.9,-0.7 -0.9,-0.7 -61.3,-27.9 -116.7,-34 -146.5,-34 -29.8,0 -84.7,6.1 -146,34 0,0 -0.6,0.3 -0.9,0.6 -0.3,0.3 -0.6,0.9 -0.6,0.9 -0.2,0.5 -3.8,7 -6.2,26.5 -2.2,17.9 -3.7,36.6 1.7,70.2 6.1,37.7 19.5,74.2 39.9,108.4 25.5,42.7 61.9,82 108.3,116.7 l 3.9,2.9 0.1,0.1 0.1,-0.1 3.9,-2.9 c 46.4,-34.7 82.9,-74 108.3,-116.7 20.4,-34.2 33.8,-70.7 39.9,-108.4 5.4,-33.5 3.9,-52.3 1.7,-70.1 z M 164.7,57 v 8.9 c -2.7,9.5 -3.4,15.6 -3.4,15.6 -3.8,-3.8 -9.9,-4.2 -9.9,-4.2 C 157.8,60.4 164.7,57 164.7,57 Z m -36.5,37.4 c 0,0 -1.3,6 1.2,10.7 0,0 -6.1,-1.2 -16,-1.4 8.2,5.4 14,7.8 14,7.8 -4.7,2.5 -7.5,7.7 -7.5,7.7 -14.3,-11 -15,-18.2 -15,-18.2 0,0 5.3,-5.5 23.3,-6.6 z M 145.5,361 c -9.9,0 -16.3,-5.5 -18.4,-15.4 l 11.3,-1.6 c 0.6,4.2 3.2,6.5 6.5,6.5 3.3,0 5.3,-2.1 5.3,-5.1 0,-3 -2,-4.9 -5.5,-4.9 h -5.6 v -9.8 h 5 c 3.3,0 5.2,-1.6 5.2,-4.2 0,-2.5 -1.9,-4.4 -4.4,-4.4 -2.8,0 -4.6,1.9 -5.2,5.4 l -11.1,-1.7 c 2,-9 8.1,-14.2 16.7,-14.2 10.2,0 16.5,5.7 16.5,13.4 0,4.9 -2.5,8.8 -6.8,10.2 5.2,1.4 8.1,5.5 8.1,11.1 0,8.6 -6.7,14.7 -17.6,14.7 z M 310.9,175.5 c -6,37 -19.1,72.7 -39.2,106.3 -25.1,42 -61,80.7 -106.7,114.9 0,0 -0.3,0.2 -0.3,0.2 v -92.5 h -14.1 l -4.8,-12.2 c -5.5,8.3 -17.2,13.4 -32.1,13.4 -30.5,0 -50.7,-22.7 -50.7,-60.1 0,-37.6 21.4,-60.9 56.2,-60.9 22.9,0 38.9,11.2 45.5,31.3 V 100.6 c 0,1.2 0,2.4 0,3.6 -0.3,0 -0.7,0.1 -1,0 -0.4,-6.3 -1.9,-13.4 -7.9,-16.6 -3.8,-2.1 -10.7,-2.3 -14.2,0.8 -10.3,9.2 -0.9,19.9 -0.9,19.9 3.2,4 8.6,5.1 10.1,5.3 -0.4,1 -0.7,2 -1,3 -4.2,-1.8 -8.9,-1.8 -8.9,-1.8 -6.8,0.1 -12.6,4.3 -13.9,10.9 -1.4,7.6 4.9,13.5 12,14.6 10.6,1.7 15.5,-8.7 15.5,-8.7 l 2.1,1.9 c -5.4,6.5 -4.9,12 -4.9,12 0.5,14.1 13,13.2 13,13.2 v 7.7 C 141.6,163 147.3,144 147.3,144 c -4.2,3 -9.4,2.6 -9.4,2.6 -7.7,-0.1 -14.6,-4 -16.8,-11.4 -2.3,-7.4 -1.2,-15.5 4.9,-20.8 1.4,-1.2 5.7,-4 10.2,-4 -6.3,-4.2 -6.1,-12.7 -6.1,-12.7 0.2,-8 4.1,-15.3 12,-18.1 4.7,-1.6 13,-1 17.8,3 1.5,1.3 4.9,4.4 4.9,6.7 0,1.2 0,2.4 0,3.6 v -43 h 2.5 c 49.5,0 114.5,21.8 139.9,32.9 1.1,3.7 3.6,8.7 5.5,23.8 1.1,8.6 2,10.1 2,23.2 -0.2,13.7 -1.1,29.1 -3.8,45.7 z M 144.6,152.8 c 0.8,5.2 4.9,9.6 4.9,9.6 -15,10 -22,8.4 -22,8.4 v 0 0 c 0,0 -3.6,-6.8 1.2,-24.2 0,0 5.2,3.2 10.5,2.4 0,0 -3.1,5.4 -6.4,14.7 7.6,-6.3 11.8,-10.9 11.8,-10.9 z m 9.6,-22.1 -21,0.9 c 0,0 -1.2,0.1 -1.6,-0.8 -0.1,-0.4 -0.1,-1 0.5,-1.5 l 17.5,-11.4 c -0.1,0.6 -0.1,1.2 -0.1,1.9 0,4.3 1.8,8.2 4.7,10.9 z m -1.1,-10.9 c 0,-6.4 5.2,-11.6 11.6,-11.6 v 5 c -3.6,0 -6.6,3 -6.6,6.6 0,3.6 3,6.6 6.6,6.6 v 5 c -6.4,0 -11.6,-5.2 -11.6,-11.6 z m -1.5,-7.7 -7.5,-17.9 c -0.3,-0.8 0.1,-1.4 0.4,-1.5 0.8,-0.4 1.7,0.2 1.7,0.2 l 16.2,12 c -4.6,0.6 -8.5,3.4 -10.8,7.2 z m 13.1,22.9 v 19.8 c -0.4,0 -0.9,-0.3 -1.1,-1 l -5.7,-20.4 c 2.1,1 4.4,1.6 6.8,1.6 z" id="path180"/>
	</g>
	<g id="g186">
		<path class="st1" d="m 118,211.6 c -12.7,0 -17.9,11 -17.9,34.3 0,22.2 5.7,32.8 18.7,32.8 8.7,0 14.9,-5.6 15.7,-13.4 l 0.2,-1.3 h -19.2 v -24.7 h 49.2 v -12.6 l -31.1,3.1 C 132,218.2 126,211.6 118,211.6 Z" id="path184"/>
	</g>
</g><path class="st1" d="m 195.3,334.1 c 3.7,-2.2 5.5,-5.4 5.5,-9.8 0,-7.7 -5.9,-12.8 -16.4,-12.8 -10.2,0 -16.8,6.4 -16.8,14.7 0,4.4 2,8.1 5.8,10.5 -4.8,2.2 -7.1,5.7 -7.1,10.7 0,8.1 6.5,13.4 17.9,13.4 11.2,0 18.3,-6.2 18.3,-14.6 0,-5.8 -2.4,-9.9 -7.2,-12.1 z m -10.8,-13.3 c 3.1,0 5.5,2.5 5.5,5.1 0,2.2 -1,3.9 -2.8,4.9 -5.3,-2 -7.9,-3.5 -7.9,-6.1 0.1,-2.4 2,-3.9 5.2,-3.9 z m 0,31 c -4.4,0 -6.9,-2.1 -6.9,-5.4 0,-2.2 1.1,-4.1 3.2,-5.3 6.2,2.3 9.3,3.8 9.3,6.7 0,2.5 -1.9,4 -5.6,4 z" id="path190"/></g>
</svg>