<svg xmlns:svg="http://www.w3.org/2000/svg" xmlns="http://www.w3.org/2000/svg" version="1.1" width="414" height="532" id="svg2">
  <defs id="defs4"/>
  <g transform="translate(0,-520.36218)" id="layer1" style="display:inline">
    <g transform="translate(0,520.36218)" id="gBorderBg" style="display:inline">
      <path d="M 91.588784,92.306652 59.191245,36.192471 123.98632,36.19247 91.588784,92.306652 z" transform="matrix(6.3893744,0,0,9.4806692,-378.19503,-343.12883)" id="pathTriBlack" style="fill:#000000;fill-opacity:1;stroke:none"/>
      <path d="M 73.831781,87.810265 27.117412,6.8986085 120.54615,6.898606 73.831781,87.810265 z" transform="matrix(4.243959,0,0,6.357129,-106.3297,-38.358595)" id="pathTriWhite" style="fill:#ffffff;fill-opacity:1;stroke:none"/>
    </g>
    <path d="m 183.80935,184.8 -0.4,22.8 65.6,0 c -1.63933,23.82335 -13.45302,35.52679 -41.6,34.8 -70.20492,5.13523 -70.87739,-112.32989 -0.8,-106.8 14.85334,-0.23997 30.89933,4.5888 50,22.4 l 31.2,-25.6 c -15.21849,-19.49358 -40.66373,-31.42826 -80.4,-32.800004 -139.61554,0.790654 -125.20694,183.615084 0,178.800004 49.49197,-0.30095 86.77335,-28.50012 89.6,-72.4 l -0.4,-20 -112.8,-1.2 z m 23.19066,324.2 0.005,-496.99999 188.49533,-9e-6 L 207.00001,509 z" transform="translate(0,520.36218)" id="pathGandBlue" style="fill:#114993;fill-opacity:1;stroke:none;display:inline"/>
    <g transform="translate(0,520.36218)" id="gZABRZEonRed" style="display:inline">
      <path d="m 18.5,12 26.40625,69.59375 324.1875,0 L 395.5,12 18.5,12 z" id="pathRedBgZABRZE" style="fill:#ce000c;fill-opacity:1;stroke:none;display:inline"/>
      <g id="gZABRZE" style="display:inline">
        <path d="m 58,19 0,11.75 24.5,0 -27.75,31.75 0,12.25 47.5,0 0,-12.25 -28.75,0 L 102,30.75 102,19 58,19 z" id="pathZ1" style="fill:#ffffff;fill-opacity:1;stroke:none;display:inline"/>
        <path d="m 268.04854,19 0,11.75 24.5,0 -27.75,31.75 0,12.25 47.5,0 0,-12.25 -28.75,0 28.5,-31.75 0,-11.75 -44,0 z" id="pathZ2" style="fill:#ffffff;fill-opacity:1;stroke:none;display:inline"/>
        <path d="M 122.25,19 104,74.75 l 15.75,0 2.5,-9.25 16.5,0 2.5,9.25 16.5,0 -19,-55.75 -16.5,0 z m 8.25,15.25 5.5,19 -10.75,0 5.25,-19 z" id="pathA1" style="fill:#ffffff;fill-opacity:1;stroke:none"/>
        <path d="m 162,19 0,55.75 30.5,0 c 20.59832,0.30499 18.87149,-29.328128 6.25,-29.5 C 208.5,45.5 210.69946,18.978135 192.5,19 L 162,19 z m 15.75,11.75 7.75,0 c 7,0 7,10.5 0,10.5 l -7.75,0 0,-10.5 z m 0,20.75 10.75,0 c 5.5,0 5.5,11 0,11 l -10.75,0 0,-11 z" id="pathB1" style="fill:#ffffff;fill-opacity:1;stroke:none"/>
        <path d="m 215.5,18.75 0.25,55.75 15.75,0.25 0,-23.25 c 6.23086,2.327903 9.69978,8.92055 15,23.25 l 17.25,0 C 262.06461,71.360508 261.53565,58.000983 249.5,49 266.32736,47.887958 264.5437,18.833094 246.75,19 L 215.5,18.75 z m 16.25,12 7.75,0 c 7,0 7,10.5 0,10.5 l -7.75,0 0,-10.5 z" id="pathR1" style="fill:#ffffff;fill-opacity:1;stroke:none"/>
        <path d="m 318.5,19 0,55.75 41.25,0 0,-12.25 -26,0 0,-11 23.75,0 0,-11.75 -23.75,0 0,-9 26,0 0,-11.75 -41.25,0 z" id="pathE1" style="fill:#ffffff;fill-opacity:1;stroke:none"/>
      </g>
    </g>
    <g transform="translate(0,520.36218)" id="gPZonRed" style="display:inline">
      <path d="m 126.53125,296.8125 29.125,76.78125 102.6875,0 29.125,-76.78125 -160.9375,0 z" id="pathRedBgPZ" style="fill:#ce000c;fill-opacity:1;stroke:none;display:inline"/>
      <path d="m 226.10123,305.02639 -12.02082,12.02081 5.83364,5.83364 -12.9047,12.90469 -12.02082,-12.02081 6.18719,-6.18719 -12.02082,-12.02081 -15.75522,15.75522 4.08796,19.95367 11.49048,-11.49048 12.02082,12.02081 -15.02602,15.02602 6.01041,6.01041 15.02602,-15.02602 14.84924,14.84924 6.01041,-6.01041 -14.84925,-14.84924 12.9047,-12.9047 7.6014,7.6014 12.02082,-12.02081 -19.44544,-19.44544 z" id="pathPZ" style="fill:#ffffff;fill-opacity:1;stroke:none;display:inline"/>
    </g>
  </g>
</svg>