<svg xmlns="http://www.w3.org/2000/svg" xmlns:xlink="http://www.w3.org/1999/xlink" version="1.1" id="Layer_1" x="0px" y="0px" width="299.949px" height="300px" viewBox="0 0 299.949 300" enable-background="new 0 0 299.949 300" xml:space="preserve">
<g>
	<g>
		<g>
			<defs>
				<rect id="SVGID_1_" width="299.949" height="300"/>
			</defs>
			<clipPath id="SVGID_2_">
				<use xlink:href="#SVGID_1_" overflow="visible"/>
			</clipPath>
			<path clip-path="url(#SVGID_2_)" fill-rule="evenodd" clip-rule="evenodd" fill="#ED1C24" d="M149.972,245.284     c-52.507,0-95.258-42.753-95.258-95.264c0-52.504,42.751-95.372,95.258-95.372c52.513,0,95.273,42.868,95.273,95.372     C245.245,202.531,202.484,245.284,149.972,245.284L149.972,245.284z"/>
			<path clip-path="url(#SVGID_2_)" fill-rule="evenodd" clip-rule="evenodd" fill="#FFC20E" d="M149.972,291.521     c-77.835,0-141.49-63.549-141.49-141.501c0-77.949,63.655-141.61,141.49-141.61c77.963,0,141.505,63.662,141.505,141.61     C291.477,227.973,227.935,291.521,149.972,291.521L149.972,291.521z M149.972-0.073C67.494-0.073,0,67.309,0,150.021     C0,232.614,67.494,300,149.972,300c82.599,0,149.978-67.386,149.978-149.979C299.949,67.309,232.57-0.073,149.972-0.073     L149.972-0.073z"/>
		</g>
		<path fill-rule="evenodd" clip-rule="evenodd" fill="#21409A" d="M149.972,245.284c-52.507,0-95.258-42.753-95.258-95.264    c0-52.504,42.751-95.372,95.258-95.372c52.513,0,95.273,42.868,95.273,95.372C245.245,202.531,202.484,245.284,149.972,245.284    L149.972,245.284z M149.972,8.41c-77.835,0-141.49,63.662-141.49,141.61c0,77.952,63.655,141.501,141.49,141.501    c77.963,0,141.505-63.549,141.505-141.501C291.477,72.072,227.935,8.41,149.972,8.41L149.972,8.41z"/>
		<path fill-rule="evenodd" clip-rule="evenodd" fill="#FFFFFF" d="M250.699,130.507h10.558l0.469,2.328l0.705,5.569l0.459,5.813    l0.109,5.804l-0.109,5.81l-0.459,5.697l-0.705,5.688l-0.584,2.674H250.58l0.809-4.302l0.702-5.111l0.344-5.227l0.109-5.229    l-0.109-5.338l-0.344-5.231l-0.702-5.112L250.699,130.507L250.699,130.507z M38.795,130.507h10.574l-0.702,3.832l-0.693,5.112    l-0.341,5.231l-0.237,5.338l0.237,5.229l0.341,5.227l0.693,5.111l0.702,4.302H38.795l-0.462-2.674l-0.693-5.688l-0.468-5.697    l-0.115-5.81l0.115-5.804l0.468-5.813l0.693-5.569L38.795,130.507L38.795,130.507L38.795,130.507z M17.657,169.89    c-0.928-6.507-1.398-13.13-1.398-19.869c0-6.62,0.471-13.129,1.398-19.514H28.23l-0.118,0.703l-0.818,6.152l-0.455,6.275    l-0.241,6.384l0.241,6.274l0.455,6.272l0.818,6.157l0.118,1.165H17.657L17.657,169.89L17.657,169.89z M282.404,130.507    c0.928,6.384,1.39,12.894,1.39,19.514c0,6.739-0.462,13.362-1.508,19.869h-10.574l0.244-1.165l0.805-6.157l0.469-6.272    l0.115-6.274l-0.115-6.384l-0.469-6.275l-0.805-6.152l-0.125-0.703H282.404L282.404,130.507L282.404,130.507z"/>
		<path fill-rule="evenodd" clip-rule="evenodd" fill="#FFFFFF" d="M81.081,237.615c0.472-0.699,0.472-1.516,0.231-2.328    c-0.231-0.809-0.693-1.623-1.271-2.199c-0.118-0.236-0.23-0.354-0.35-0.474c-0.121-0.106-0.228-0.224-0.343-0.341    c-0.472-0.351-0.937-0.701-1.398-0.927c-0.584-0.123-0.931-0.123-1.399,0.108l0,0c0,0.117-0.112,0.117-0.112,0.117l-0.115,0.123    c0,0-0.115,0-0.234,0.11c-0.58,0.585-0.465,1.505,0.119,2.79c0.58,1.156,1.386,2.438,2.322,3.596    c0.112,0.127,0.112,0.234,0.112,0.234c0.119,0.117,0.119,0.117,0.119,0.117c2.438,3.023,3.949,5.813,4.532,8.368    c0.693,2.672,0,5.11-1.86,7.552l-0.234,0.342c-2.322,2.676-5.348,3.723-8.825,3.254c-3.49-0.578-6.628-1.973-9.409-4.412    c-2.909-2.559-5.001-5.462-6.281-8.828c-0.344-0.932-0.577-1.975-0.577-2.904v-0.348c0-2.212,0.927-4.303,2.675-6.279l7.78,6.627    c-0.581,1.156-0.703,2.204-0.469,3.021c0.356,0.929,0.699,1.742,1.401,2.444c0.116,0.114,0.234,0.229,0.347,0.346    c0.116,0.111,0.231,0.351,0.35,0.351c0.813,0.692,1.512,1.04,2.316,1.04c0.821,0.117,1.399-0.117,1.867-0.463    c0-0.117,0-0.117,0-0.117l0,0c0.119-0.116,0.119-0.233,0.231-0.233c0-0.117,0.118-0.227,0.118-0.227    c0.106-0.351,0.231-0.696,0.106-1.164c0-0.469-0.225-0.929-0.456-1.399c-0.237-0.228-0.353-0.468-0.468-0.693    c-0.231-0.234-0.347-0.463-0.463-0.7c-0.23-0.231-0.353-0.348-0.462-0.582c-0.118-0.231-0.355-0.345-0.475-0.582    c-1.967-2.782-3.478-5.69-4.761-8.59c-1.158-2.909-0.692-5.688,1.627-8.248c0.121-0.231,0.237-0.349,0.355-0.472    c0.229-0.107,0.344-0.225,0.462-0.348c0.112-0.114,0.231-0.231,0.35-0.346c0.112-0.113,0.231-0.113,0.344-0.234    c1.742-1.504,3.946-2.32,6.74-2.32c2.676,0.117,5.457,1.391,8.488,3.834l0.918,0.811c0.118,0.232,0.237,0.354,0.468,0.471    c0.116,0.117,0.354,0.344,0.463,0.461c2.098,2.086,3.724,4.418,4.657,7.203c1.033,2.791,0.456,5.809-1.748,9.18L81.081,237.615    L81.081,237.615L81.081,237.615z"/>
		<path fill-rule="evenodd" clip-rule="evenodd" fill="#FFFFFF" d="M118.725,258.874c0,0.11,0,0.232,0,0.353l-0.115,0.114    c0,0.115,0,0.115,0,0.115c0,0.11-0.119,0.11-0.119,0.11c-0.23,0.706-0.817,1.287-1.511,1.633c-0.699,0.346-1.511,0.466-2.436,0    l-0.343-0.119l-4.655-1.739l2.438-6.276l2.217,0.816l2.435,0.924c0.925,0.469,1.624,1.051,1.854,1.742    C118.84,257.363,118.952,258.173,118.725,258.874L118.725,258.874z M128.134,254.805c-1.276-3.021-4.067-5.342-8.133-6.969    l-5.8-2.203l-9.766-3.719l-11.389,30.318l10.109,3.947l3.483-9.17l5.576,2.201c0.699,0.236,1.396,0.469,1.985,0.582    c3.359,0.93,6.15,0.812,8.595-0.346c2.894-1.391,4.754-3.366,5.803-5.93c0,0,0,0,0-0.117c0,0,0-0.112,0.113-0.112    C129.642,260.617,129.411,257.831,128.134,254.805L128.134,254.805z"/>
		<polygon fill-rule="evenodd" clip-rule="evenodd" fill="#FFFFFF" points="150.439,252.021 151.839,276.645 166.708,275.953     167.052,283.618 141.604,285.016 139.863,252.601 150.439,252.021 150.439,252.021   "/>
		<polygon fill-rule="evenodd" clip-rule="evenodd" fill="#FFFFFF" points="187.15,244.935 198.302,275.485 187.955,279.209     176.811,248.768 187.15,244.935 187.15,244.935   "/>
		<polygon fill-rule="evenodd" clip-rule="evenodd" fill="#FFFFFF" points="222.115,223.33 227.456,230.297 220.026,236.222     234.665,254.805 225.952,261.665 211.311,242.954 203.874,248.768 198.42,241.914 222.115,223.33   "/>
		<path fill-rule="evenodd" clip-rule="evenodd" fill="#FFFFFF" d="M88.751,56.045l-1.161,0.698l-3.021-10.694l4.183,3.717    l4.181,3.718L88.751,56.045L88.751,56.045z M88.751,37.801l-5.11-4.064l-8.132,5.112l-1.512,0.927l1.512,6.626l5.804,27.065    l7.438-4.638l1.742-1.062l-1.161-4.295l8.829-5.574l3.134,3.026l9.294-5.814L88.751,37.801L88.751,37.801z"/>
		<path fill-rule="evenodd" clip-rule="evenodd" fill="#FFFFFF" d="M173.903,34.553c-0.58,3.37-1.741,5.574-3.483,6.622    c-0.581,0.229-1.273,0.464-1.854,0.695c-1.396,0.343-2.794,0.343-4.421,0.12c-0.115-0.12-0.233-0.12-0.347-0.12    c-0.121,0-0.233,0-0.233-0.117c-0.116,0-0.231,0-0.344,0c-0.122,0-0.234-0.114-0.234-0.114l2.9-16.844l1.633,0.345    c0.344,0.117,0.696,0.117,1.046,0.232c1.735,0.462,3.253,1.278,4.299,2.329C174.132,28.971,174.487,31.303,173.903,34.553    L173.903,34.553z M182.967,26.068c-1.745-2.556-3.834-4.525-6.156-5.807c-1.161-0.696-2.438-1.274-3.603-1.625    c-1.165-0.465-2.211-0.704-3.25-0.931l-1.393-0.239l-11.86-2.087l-5.575,31.948l13.948,2.559c1.161,0.228,2.316,0.345,3.487,0.345    c3.478,0.234,6.503-0.465,9.175-1.859c3.597-1.861,5.807-5.691,6.847-11.384l0.118-0.933    C185.292,31.995,184.705,28.74,182.967,26.068L182.967,26.068z"/>
		<path fill-rule="evenodd" clip-rule="evenodd" fill="#FFFFFF" d="M228.043,41.638l-4.295-2.68l-10.802,17.434    c-0.821,1.278-1.861,1.97-3.025,2.201c-1.28,0.241-2.45,0.121-3.365-0.345c-0.135,0-0.135,0-0.243-0.114    c-0.116,0-0.116,0-0.229-0.121c0,0,0,0-0.115,0c0,0,0,0,0-0.115c-1.056-0.583-1.752-1.626-2.095-2.905    c-0.344-1.28-0.115-2.559,0.696-3.951l10.808-17.306l-8.957-5.574l-10.564,16.73c-2.438,3.946-3.128,7.542-1.963,10.91    c1.042,3.379,3.705,6.283,7.892,8.949c4.184,2.672,8.136,3.833,11.732,3.369c3.603-0.352,6.509-2.315,8.713-6.035l5.813-9.179    l5.104-8.131L228.043,41.638L228.043,41.638z"/>
		<polygon fill-rule="evenodd" clip-rule="evenodd" fill="#FFFFFF" points="260.914,75.676 247.792,74.284 255.694,68.471     249.3,59.64 228.043,75.094 222.933,78.696 228.043,85.666 229.436,87.641 237.921,81.372 240.937,81.832 235.233,95.653     242.91,106.227 251.504,83.807 268.347,86.014 260.914,75.676   "/>
		<path fill-rule="evenodd" clip-rule="evenodd" fill="#FFFFFF" d="M135.567,16.777l3.718,21.263    c0.578,3.247,0.347,5.805-0.821,7.663c-1.154,1.859-2.547,3.364-4.171,4.294c-1.045,0.588-1.979,1.046-3.027,1.398    c-0.921,0.227-1.736,0.468-2.436,0.582c-3.946,0.695-7.317,0.234-10.105-1.512c-2.669-1.739-4.411-4.656-5.229-8.944    c0-0.117,0-0.347,0-0.576c-0.115-0.237-0.115-0.468-0.115-0.708c0-0.227,0-0.342-0.115-0.579c0-0.229,0-0.462,0-0.699l9.641-1.734    c0.35,2.204,0.927,3.832,1.398,5.111c0.58,1.156,1.386,1.742,2.441,1.511c1.042-0.12,1.623-0.585,1.741-1.398    c0.226-0.809,0.226-1.625,0-2.437l-3.721-21.374L135.567,16.777L135.567,16.777z"/>
		<polygon fill-rule="evenodd" clip-rule="evenodd" fill="#FFFFFF" points="75.509,77.881 50.646,59.875 44.14,68.702     53.087,75.214 47.396,82.876 38.57,76.492 32.059,85.318 58.307,104.364 64.822,95.541 54.829,88.215 60.398,80.551     70.395,87.764 75.509,80.899 76.9,78.927 75.509,77.881   "/>
		<path fill-rule="evenodd" clip-rule="evenodd" fill="#FFFFFF" d="M208.173,130.621h35.074    c-2.984-14.369-9.216-27.569-17.895-38.804h-17.18V130.621L208.173,130.621z M169.38,208.113v35.184    c14.373-2.995,27.579-9.238,38.793-17.926v-17.258H169.38L169.38,208.113z M130.572,169.422v38.691h38.808v-38.691H130.572    L130.572,169.422z M208.173,208.113h17.232c8.645-11.199,14.857-24.361,17.842-38.691h-35.074V208.113L208.173,208.113z     M91.889,208.113v17.344c11.192,8.635,24.348,14.854,38.684,17.834v-35.178H91.889L91.889,208.113z M130.572,130.621H91.889    v38.801h38.684V130.621L130.572,130.621z M169.38,169.422h38.793v-38.801H169.38V169.422L169.38,169.422z M208.173,91.817V74.601    c-11.214-8.699-24.42-14.96-38.793-17.957v35.174H208.173L208.173,91.817z M130.572,91.817V56.644    c-14.336,2.986-27.491,9.212-38.684,17.871v17.303H130.572L130.572,91.817z M91.889,91.817H74.594    c-8.666,11.234-14.9,24.435-17.892,38.804h35.187V91.817L91.889,91.817z M91.889,169.422H56.705    c2.979,14.33,9.188,27.492,17.829,38.691h17.354V169.422L91.889,169.422z M169.38,130.621V91.817h-38.808v38.804H169.38    L169.38,130.621z"/>
	</g>
</g>
</svg>