<svg xmlns="http://www.w3.org/2000/svg" xmlns:xlink="http://www.w3.org/1999/xlink" xmlns:serif="http://www.serif.com/" width="100%" height="100%" viewBox="0 0 132 165" version="1.1" xml:space="preserve" style="fill-rule:evenodd;clip-rule:evenodd;stroke-linejoin:round;stroke-miterlimit:1.41421;">
    <g transform="matrix(1,0,0,1,0,165)">
        <path d="M0,-165L0,-38.569L65.919,0L131.997,-38.775L131.997,-165L0,-165Z" style="fill:white;fill-rule:nonzero;"/>
    </g>
    <g transform="matrix(1,0,0,1,65.9575,160.569)">
        <path d="M0,-156.133L-62.381,-156.133L-62.381,-36.5L0,0L62.528,-36.699L62.528,-156.133L0,-156.133ZM39.443,-32.992L0.02,-8.905L-39.298,-32.86L-39.298,-111.265L39.443,-111.265L39.443,-32.992ZM56.257,-116.733L-56.174,-116.733L-56.174,-150.669L56.257,-150.669L56.257,-116.733Z" style="fill:rgb(237,28,36);fill-rule:nonzero;"/>
    </g>
    <g transform="matrix(1,0,0,1,16.7009,12.9659)">
        <path d="M0,27.521L0,0L10.742,0L10.742,9.371L20.815,9.371L20.815,0L31.558,0L31.558,27.521L20.815,27.521L20.815,16.864L10.742,16.864L10.742,27.521L0,27.521Z" style="fill:rgb(237,28,36);fill-rule:nonzero;"/>
    </g>
    <g transform="matrix(1,0,0,1,54.6411,12.9659)">
        <path d="M0,27.521L0,0L25.259,0L25.259,6.938L10.679,6.938L10.679,11.201L22.317,11.201L22.317,17.808L10.679,17.808L10.679,27.521L0,27.521Z" style="fill:rgb(237,28,36);fill-rule:nonzero;"/>
    </g>
    <g transform="matrix(1,0,0,1,105.793,23.673)">
        <path d="M0,6.163L10.199,6.163C9.927,9.728 8.358,12.569 5.544,14.592C2.736,16.537 -1.103,17.562 -5.89,17.562C-11.246,17.562 -15.486,16.279 -18.557,13.714C-21.63,11.083 -23.214,7.58 -23.214,3.048C-23.214,-1.402 -21.63,-4.9 -18.638,-7.535C-15.553,-10.105 -11.363,-11.399 -6.099,-11.399C-1.236,-11.399 2.519,-10.449 5.336,-8.561C8.155,-6.598 9.726,-3.838 10.052,-0.321L-0.288,-0.321C-0.412,-1.672 -0.967,-2.759 -1.919,-3.501C-2.886,-4.164 -4.246,-4.58 -5.956,-4.58C-8.084,-4.58 -9.659,-3.894 -10.747,-2.688C-11.786,-1.402 -12.325,0.484 -12.325,3.048C-12.325,5.549 -11.786,7.433 -10.618,8.727C-9.526,10.002 -7.867,10.667 -5.683,10.667C-4.044,10.667 -2.669,10.266 -1.726,9.46C-0.758,8.727 -0.145,7.58 0,6.163" style="fill:rgb(237,28,36);fill-rule:nonzero;"/>
    </g>
    <g transform="matrix(1,0,0,1,80.1499,119.618)">
        <path d="M0,-66.784C8.307,-61.916 13.91,-52.917 13.91,-42.589C13.91,-27.098 1.341,-14.532 -14.153,-14.532C-29.644,-14.532 -42.213,-27.098 -42.213,-42.589C-42.213,-52.923 -36.617,-61.916 -28.308,-66.787C-40.527,-61.356 -49.056,-49.138 -49.056,-34.898C-49.056,-15.615 -33.425,0.003 -14.153,0.003C5.127,0.003 20.756,-15.615 20.756,-34.898C20.756,-49.138 12.218,-61.356 0,-66.784" style="fill:rgb(237,28,36);fill-rule:nonzero;"/>
    </g>
    <g transform="matrix(1,0,0,1,65.9969,98.0352)">
        <path d="M0,-43.232L5.403,-30.976L18.719,-32.422L10.807,-21.612L18.719,-10.815L5.403,-12.255L0,0L-5.401,-12.255L-18.715,-10.815L-10.8,-21.612L-18.715,-32.422L-5.401,-30.976L0,-43.232Z" style="fill:rgb(237,28,36);fill-rule:nonzero;"/>
    </g>
    <g transform="matrix(1,0,0,1,65.9969,146.102)">
        <path d="M0,-22.799L2.731,-16.133L9.873,-17.101L5.462,-11.398L9.873,-5.699L2.731,-6.663L0,0L-2.733,-6.663L-9.87,-5.699L-5.464,-11.398L-9.87,-17.101L-2.733,-16.133L0,-22.799Z" style="fill:rgb(237,28,36);fill-rule:nonzero;"/>
    </g>
</svg>