<svg xmlns:dc="http://purl.org/dc/elements/1.1/" xmlns:cc="http://creativecommons.org/ns#" xmlns:rdf="http://www.w3.org/1999/02/22-rdf-syntax-ns#" xmlns:svg="http://www.w3.org/2000/svg" xmlns="http://www.w3.org/2000/svg" xmlns:sodipodi="http://sodipodi.sourceforge.net/DTD/sodipodi-0.dtd" xmlns:inkscape="http://www.inkscape.org/namespaces/inkscape" inkscape:version="1.0 (4035a4f, 2020-05-01)" height="600" width="600" sodipodi:docname="Logo Harrogate Town AFC - xxxxx.svg" xml:space="preserve" viewBox="0 0 600.00001 600.00001" y="0px" x="0px" id="Layer_1" version="1.1"><metadata id="metadata968"><rdf:RDF><cc:Work rdf:about=""><dc:format>image/svg+xml</dc:format><dc:type rdf:resource="http://purl.org/dc/dcmitype/StillImage"/></cc:Work></rdf:RDF></metadata><defs id="defs966"/><sodipodi:namedview inkscape:current-layer="Layer_1" inkscape:window-maximized="0" inkscape:window-y="0" inkscape:window-x="0" inkscape:cy="305.2444" inkscape:cx="301.9821" inkscape:zoom="0.70556262" showgrid="false" id="namedview964" inkscape:window-height="900" inkscape:window-width="1440" inkscape:pageshadow="2" inkscape:pageopacity="0" guidetolerance="10" gridtolerance="10" objecttolerance="10" borderopacity="1" bordercolor="#666666" pagecolor="#ffffff"/>
<style id="style833" type="text/css">
	.st0{fill:none;stroke:#FFFFFF;stroke-width:6.1216;stroke-miterlimit:10;}
	.st1{fill:#FFFFFF;}
	.st2{fill:#FFDE17;}
	.st3{fill-rule:evenodd;clip-rule:evenodd;fill:#FFFFFF;}
	.st4{fill-rule:evenodd;clip-rule:evenodd;fill:#FFDE17;}
	.st5{fill-rule:evenodd;clip-rule:evenodd;}
</style>
<g transform="matrix(1.0427528,0,0,1.0427528,-10.323246,-9.2804936)" id="g1229"><circle id="circle835" r="287.70001" cy="296.60001" cx="297.60001"/><path style="color:#000000;font-style:normal;font-variant:normal;font-weight:normal;font-stretch:normal;font-size:medium;line-height:normal;font-family:sans-serif;font-variant-ligatures:normal;font-variant-position:normal;font-variant-caps:normal;font-variant-numeric:normal;font-variant-alternates:normal;font-variant-east-asian:normal;font-feature-settings:normal;font-variation-settings:normal;text-indent:0;text-align:start;text-decoration:none;text-decoration-line:none;text-decoration-style:solid;text-decoration-color:#000000;letter-spacing:normal;word-spacing:normal;text-transform:none;writing-mode:lr-tb;direction:ltr;text-orientation:mixed;dominant-baseline:auto;baseline-shift:baseline;text-anchor:start;white-space:normal;shape-padding:0;shape-margin:0;inline-size:0;clip-rule:nonzero;display:inline;overflow:visible;visibility:visible;opacity:1;isolation:auto;mix-blend-mode:normal;color-interpolation:sRGB;color-interpolation-filters:linearRGB;solid-color:#000000;solid-opacity:1;vector-effect:none;fill:#ffffff;fill-opacity:1;fill-rule:nonzero;stroke:none;stroke-width:6.1216;stroke-linecap:butt;stroke-linejoin:miter;stroke-miterlimit:10;stroke-dasharray:none;stroke-dashoffset:0;stroke-opacity:1;color-rendering:auto;image-rendering:auto;shape-rendering:auto;text-rendering:auto;enable-background:accumulate;stop-color:#000000;stop-opacity:1" d="M 297.59961,18.539062 C 144.06712,18.53906 19.53906,143.06712 19.539062,296.59961 c 0,153.53249 124.528058,278.06055 278.060548,278.06055 153.53248,0 278.06055,-124.52807 278.06055,-278.06055 0,-153.53249 -124.52806,-278.060548 -278.06055,-278.060548 z" id="path1218"/><path style="color:#000000;font-style:normal;font-variant:normal;font-weight:normal;font-stretch:normal;font-size:medium;line-height:normal;font-family:sans-serif;font-variant-ligatures:normal;font-variant-position:normal;font-variant-caps:normal;font-variant-numeric:normal;font-variant-alternates:normal;font-variant-east-asian:normal;font-feature-settings:normal;font-variation-settings:normal;text-indent:0;text-align:start;text-decoration:none;text-decoration-line:none;text-decoration-style:solid;text-decoration-color:#000000;letter-spacing:normal;word-spacing:normal;text-transform:none;writing-mode:lr-tb;direction:ltr;text-orientation:mixed;dominant-baseline:auto;baseline-shift:baseline;text-anchor:start;white-space:normal;shape-padding:0;shape-margin:0;inline-size:0;clip-rule:nonzero;display:inline;overflow:visible;visibility:visible;opacity:1;isolation:auto;mix-blend-mode:normal;color-interpolation:sRGB;color-interpolation-filters:linearRGB;solid-color:#000000;solid-opacity:1;vector-effect:none;fill:#000000;fill-opacity:1;fill-rule:nonzero;stroke:none;stroke-width:6.1216;stroke-linecap:butt;stroke-linejoin:miter;stroke-miterlimit:10;stroke-dasharray:none;stroke-dashoffset:0;stroke-opacity:1;color-rendering:auto;image-rendering:auto;shape-rendering:auto;text-rendering:auto;enable-background:accumulate;stop-color:#000000;stop-opacity:1" d="m 297.59961,24.660156 c 150.22413,0 271.93945,121.715324 271.93945,271.939454 0,150.22413 -121.71532,271.93945 -271.93945,271.93945 -150.22413,0 -271.939454,-121.71532 -271.939454,-271.93945 C 25.660154,146.37548 147.37548,24.660154 297.59961,24.660156 Z" id="path1222"/><path d="m 297.6,119.4 c -23.9,0 -47.1,4.7 -69,13.9 -21.1,8.9 -40.1,21.7 -56.3,38 -16.3,16.3 -29.1,35.2 -38,56.3 -9.2,21.9 -13.9,45.1 -13.9,69 0,23.9 4.7,47.1 13.9,69 8.9,21.1 21.7,40.1 38,56.3 16.3,16.3 35.2,29.1 56.3,38 21.9,9.2 45.1,13.9 69,13.9 23.9,0 47.1,-4.7 69,-13.9 21.1,-8.9 40.1,-21.7 56.3,-38 16.3,-16.3 29.1,-35.2 38,-56.3 9.2,-21.9 13.9,-45.1 13.9,-69 0,-23.9 -4.7,-47.1 -13.9,-69 -8.9,-21.1 -21.7,-40.1 -38,-56.3 -16.3,-16.3 -35.2,-29.1 -56.3,-38 -21.8,-9.2 -45,-13.9 -69,-13.9 z" id="path1212" style="fill:#ffffff"/><path d="m 297.6,125.5 c 94.5,0 171.1,76.6 171.1,171.1 0,94.5 -76.6,171.1 -171.1,171.1 -94.5,0 -171.1,-76.6 -171.1,-171.1 0,-94.5 76.6,-171.1 171.1,-171.1" id="path839" style="fill:#000000;fill-opacity:1"/></g><g transform="matrix(1.0427528,0,0,1.0427528,-10.323246,-9.2804936)" id="g1185"><path class="st2" d="m 150.7,445.6 -9.2,-8.7 5.8,-6.2 25.2,23.8 -5.8,6.2 -9.2,-8.7 -22.9,24.2 -6.7,-6.3 z" id="path843"/><path class="st2" d="m 172.2,505 c -2.8,-1.7 -5,-3.7 -6.7,-6 -1.7,-2.4 -2.9,-4.9 -3.6,-7.6 -0.7,-2.7 -0.8,-5.4 -0.4,-8.2 0.4,-2.8 1.4,-5.5 2.9,-8 l 0.1,-0.1 c 1.5,-2.6 3.5,-4.7 5.8,-6.3 2.3,-1.7 4.8,-2.8 7.5,-3.5 2.7,-0.7 5.5,-0.8 8.4,-0.3 2.9,0.4 5.8,1.5 8.5,3.2 2.8,1.7 5,3.7 6.7,6 1.7,2.4 2.9,4.9 3.6,7.6 0.7,2.7 0.8,5.4 0.4,8.2 -0.4,2.8 -1.4,5.5 -2.9,8 l -0.1,0.1 c -1.5,2.6 -3.5,4.7 -5.8,6.3 -2.3,1.7 -4.8,2.8 -7.5,3.5 -2.7,0.7 -5.5,0.8 -8.4,0.3 -2.9,-0.5 -5.8,-1.5 -8.5,-3.2 z m 4.4,-7.2 c 1.6,0.9 3.2,1.5 4.9,1.8 1.7,0.2 3.3,0.1 4.8,-0.4 1.6,-0.5 3,-1.2 4.3,-2.2 1.3,-1 2.5,-2.3 3.4,-3.8 l 0.1,-0.1 c 0.9,-1.5 1.5,-3.1 1.8,-4.8 0.3,-1.7 0.3,-3.3 -0.1,-4.9 -0.4,-1.6 -1,-3.1 -2,-4.5 -1,-1.4 -2.2,-2.6 -3.8,-3.5 -1.6,-1 -3.2,-1.6 -4.9,-1.8 -1.7,-0.2 -3.3,-0.1 -4.8,0.4 -1.6,0.5 -3,1.2 -4.3,2.2 -1.3,1 -2.5,2.3 -3.4,3.8 l -0.1,0.1 c -0.9,1.5 -1.5,3.1 -1.8,4.8 -0.3,1.7 -0.3,3.3 0.1,4.9 0.4,1.6 1,3.1 2,4.5 1,1.4 2.2,2.6 3.8,3.5 z" id="path845"/><path class="st2" d="m 214.9,482.3 9.5,2.6 1,29.6 16.4,-25 7.6,2 1.7,29.9 15.7,-25.1 9.3,2.5 -24.7,36.9 -7.7,-2.1 -2,-28.8 -16.2,24 -7.7,-2.1 z" id="path847"/><path class="st2" d="m 280.5,497.7 8.5,-0.1 20,25.4 -0.4,-25.7 9.1,-0.1 0.7,41.8 -7.8,0.1 -20.7,-26.2 0.4,26.6 -9.1,0.1 z" id="path849"/><path class="st2" d="m 358.4,487.8 8,-2.7 30.5,34 -9.1,3.1 -6.6,-7.6 -16.7,5.7 -0.6,10.1 -8.9,3 z m 17,20.1 -9.6,-11 -0.9,14.6 z" id="path851"/><path class="st2" d="m 387.8,476.6 27.3,-16.3 4.2,7.1 -19.4,11.6 4.6,7.7 17.1,-10.2 4.2,7.1 -17.1,10.2 8.3,13.9 -7.9,4.7 z" id="path853"/><path class="st2" d="m 463.2,474.8 c -2.3,2.1 -4.7,3.6 -7.4,4.5 -2.7,0.9 -5.4,1.3 -8.1,1.2 -2.7,-0.1 -5.3,-0.8 -7.9,-2 -2.6,-1.2 -4.8,-2.9 -6.9,-5.1 l -0.1,-0.1 c -2,-2.2 -3.5,-4.6 -4.5,-7.3 -1,-2.6 -1.4,-5.3 -1.3,-8.1 0.1,-2.7 0.7,-5.4 1.9,-8.1 1.2,-2.6 3,-5 5.4,-7.2 1.4,-1.3 2.9,-2.4 4.3,-3.2 1.4,-0.8 2.8,-1.5 4.1,-2 1.3,-0.5 2.7,-0.8 4.1,-0.9 1.4,-0.2 2.7,-0.2 4.1,-0.1 l 0.2,8.9 c -2.2,0 -4.2,0.3 -6,0.8 -1.8,0.5 -3.5,1.5 -5.1,2.9 -1.3,1.2 -2.3,2.5 -2.9,4 -0.6,1.5 -1,3.1 -1,4.7 0,1.6 0.3,3.2 0.9,4.8 0.6,1.6 1.5,3 2.7,4.3 l 0.1,0.1 c 1.2,1.3 2.6,2.4 4.1,3.1 1.5,0.8 3.1,1.3 4.6,1.4 1.6,0.2 3.2,0 4.7,-0.5 1.6,-0.5 3,-1.3 4.3,-2.5 1.8,-1.6 3,-3.3 3.6,-5 0.6,-1.8 1,-3.7 1.2,-6 l 8.3,0.4 c 0,1.6 -0.1,3.1 -0.4,4.5 -0.2,1.5 -0.6,2.9 -1.2,4.3 -0.6,1.4 -1.3,2.8 -2.3,4.1 -0.8,1.4 -2,2.8 -3.5,4.1 z" id="path855"/></g><g transform="matrix(1.0427528,0,0,1.0427528,-10.323246,-9.2804936)" id="g1176"><path class="st2" d="m 103.4,150.3 6.1,-6.9 12.4,10.9 11.2,-12.8 -12.4,-10.9 6.1,-6.9 31.4,27.5 -6.1,6.9 -12.6,-11 -11.2,12.8 12.6,11 -6.1,6.9 z" id="path859"/><path class="st2" d="m 151.1,103 6.8,-5 39.3,23.4 -7.8,5.7 -8.6,-5.3 -14.3,10.4 2.4,9.8 -7.6,5.5 z m 22.3,14.1 -12.5,-7.7 3.5,14.2 z" id="path861"/><path class="st2" d="m 185.1,81.2 17.5,-7.7 c 4.8,-2.1 9.1,-2.5 12.9,-1 3.1,1.2 5.5,3.7 7.1,7.3 v 0.1 c 1.4,3.1 1.7,6 1.1,8.6 -0.7,2.6 -2,4.9 -4,6.9 l 15.3,9.6 -9.8,4.3 -13.6,-8.6 h -0.1 l -6.5,2.9 5.4,12.2 -8.4,3.7 z m 25.1,11.1 c 2.1,-0.9 3.5,-2.1 4.1,-3.6 0.7,-1.5 0.7,-3 -0.1,-4.7 v -0.1 c -0.8,-1.8 -2,-2.9 -3.5,-3.3 -1.6,-0.4 -3.4,-0.1 -5.5,0.8 l -8.4,3.7 4.8,11 z" id="path863"/><path class="st2" d="m 232.1,62.5 18.7,-3.9 c 5.2,-1.1 9.4,-0.5 12.8,1.7 2.8,1.9 4.6,4.7 5.4,8.6 V 69 c 0.7,3.3 0.4,6.2 -0.8,8.6 -1.2,2.4 -3,4.4 -5.4,5.9 L 275.8,96 265.3,98.2 253.9,87 h -0.1 l -7,1.4 2.7,13.1 -9,1.9 z m 22.2,16.2 c 2.2,-0.5 3.8,-1.3 4.8,-2.6 1,-1.3 1.3,-2.8 0.9,-4.6 v -0.1 c -0.4,-1.9 -1.3,-3.3 -2.8,-4 -1.4,-0.7 -3.3,-0.8 -5.5,-0.4 l -8.9,1.9 2.4,11.7 z" id="path865"/><path class="st2" d="m 301.6,96.7 c -3.2,-0.1 -6.2,-0.7 -8.9,-1.9 -2.7,-1.2 -5,-2.8 -6.9,-4.7 -1.9,-2 -3.4,-4.3 -4.5,-6.9 -1,-2.6 -1.5,-5.4 -1.5,-8.4 v -0.1 c 0.1,-3 0.7,-5.8 1.8,-8.4 1.2,-2.6 2.8,-4.8 4.8,-6.8 2,-1.9 4.4,-3.4 7.1,-4.5 2.7,-1.1 5.7,-1.6 9,-1.5 3.2,0.1 6.2,0.7 8.9,1.9 2.7,1.2 5,2.8 6.9,4.7 1.9,2 3.4,4.3 4.5,6.9 1,2.6 1.5,5.4 1.5,8.4 v 0.1 c -0.1,3 -0.7,5.8 -1.8,8.4 -1.2,2.6 -2.8,4.8 -4.8,6.8 -2,2 -4.4,3.4 -7.1,4.5 -2.8,1 -5.8,1.5 -9,1.5 z m 0.3,-8.5 c 1.8,0 3.5,-0.3 5.1,-0.9 1.6,-0.6 2.9,-1.6 4,-2.7 1.1,-1.2 2,-2.5 2.6,-4.1 0.6,-1.6 1,-3.2 1,-5 v -0.1 c 0,-1.8 -0.2,-3.5 -0.8,-5.1 -0.6,-1.6 -1.4,-3 -2.5,-4.2 -1.1,-1.2 -2.4,-2.2 -4,-2.9 -1.5,-0.7 -3.2,-1.1 -5.1,-1.1 -1.9,0 -3.6,0.3 -5.1,0.9 -1.5,0.6 -2.9,1.6 -4,2.7 -1.1,1.2 -2,2.5 -2.6,4.1 -0.6,1.6 -1,3.2 -1,5 v 0.1 c 0,1.8 0.2,3.5 0.8,5.1 0.6,1.6 1.4,3 2.5,4.2 1.1,1.2 2.4,2.2 3.9,2.9 1.6,0.7 3.3,1.1 5.2,1.1 z" id="path867"/><path class="st2" d="m 349.5,103.4 c -3.2,-0.8 -5.9,-2.1 -8.2,-3.8 -2.3,-1.7 -4.2,-3.7 -5.6,-6.1 -1.4,-2.3 -2.3,-4.9 -2.7,-7.7 -0.4,-2.8 -0.2,-5.7 0.6,-8.7 V 77 c 0.7,-2.9 2,-5.5 3.7,-7.7 1.7,-2.2 3.8,-4.1 6.1,-5.5 2.4,-1.4 5,-2.3 7.9,-2.8 2.9,-0.4 5.8,-0.2 8.9,0.5 1.8,0.5 3.4,1 4.8,1.7 1.4,0.6 2.7,1.3 3.9,2.1 1.2,0.8 2.2,1.7 3.1,2.7 0.9,1 1.8,2.1 2.6,3.2 l -7.4,5.3 c -0.6,-0.9 -1.2,-1.6 -1.9,-2.3 -0.6,-0.7 -1.3,-1.3 -2.1,-1.9 -0.7,-0.6 -1.6,-1.1 -2.5,-1.5 -0.9,-0.4 -1.9,-0.8 -3.1,-1.1 -1.6,-0.4 -3.2,-0.5 -4.8,-0.2 -1.6,0.3 -3,0.9 -4.4,1.8 -1.4,0.9 -2.5,2 -3.5,3.4 -1,1.4 -1.7,2.9 -2.2,4.7 v 0.1 c -0.5,1.9 -0.6,3.6 -0.4,5.4 0.2,1.7 0.7,3.3 1.5,4.7 0.8,1.4 1.9,2.7 3.2,3.7 1.3,1 2.9,1.8 4.7,2.2 3.3,0.9 6.3,0.8 9,-0.3 l 1.5,-5.8 -9,-2.3 2,-7.7 17.6,4.5 -4.5,17.6 c -2.5,1.2 -5.4,2.1 -8.6,2.6 -3,0.5 -6.5,0.3 -10.2,-0.7 z" id="path869"/><path class="st2" d="m 405.9,79.2 7.5,3.9 -3.5,45.6 -8.5,-4.4 0.9,-10.1 -15.7,-8.2 -7.7,6.5 -8.3,-4.3 z m -2.8,26.3 1.3,-14.6 -11.2,9.5 z" id="path871"/><path class="st2" d="m 442.4,112.7 -9.8,-8.1 5.4,-6.6 26.8,21.9 -5.4,6.6 -9.8,-8.1 -21.1,25.8 -7.1,-5.8 z" id="path873"/><path class="st2" d="m 474.5,130.1 20.1,24.2 -6.3,5.2 -14.3,-17.2 -6.5,5.4 12.6,15.1 -6.3,5.2 -12.6,-15.1 -6.7,5.6 14.5,17.5 -6.3,5.2 -20.3,-24.4 z" id="path875"/></g><g transform="matrix(1.0427528,0,0,1.0427528,-10.323246,-9.2804936)" id="g1197"><path class="st1" d="m 61.3,288.1 -4.5,1.3 -0.9,-3.6 6.8,-2.2 h 3.1 V 309 h -4.4 v -20.9 z" id="path879"/><path class="st1" d="m 80,309.4 c -1.8,0 -3.3,-0.3 -4.5,-0.8 C 74.2,308 73,307.3 72,306.4 l 2.4,-3.4 c 1,0.8 1.9,1.4 2.8,1.8 0.9,0.4 1.9,0.6 3,0.6 0.9,0 1.8,-0.2 2.5,-0.6 0.7,-0.4 1.4,-0.9 1.9,-1.6 0.5,-0.7 0.9,-1.6 1.2,-2.5 0.3,-1 0.5,-2 0.5,-3.2 -0.6,0.8 -1.4,1.4 -2.4,1.9 -1,0.5 -2.1,0.8 -3.5,0.8 -1.3,0 -2.6,-0.2 -3.7,-0.6 -1.1,-0.4 -2,-0.9 -2.8,-1.6 -0.8,-0.7 -1.4,-1.5 -1.8,-2.5 -0.4,-1 -0.6,-2.1 -0.6,-3.3 V 292 c 0,-1.2 0.2,-2.4 0.7,-3.4 0.5,-1.1 1.1,-2 1.9,-2.8 0.8,-0.8 1.8,-1.4 3,-1.8 1.2,-0.4 2.4,-0.7 3.8,-0.7 1.6,0 2.9,0.2 4,0.7 1.1,0.4 2.1,1.1 3,2 0.9,0.9 1.7,2.2 2.2,3.7 0.6,1.5 0.8,3.5 0.8,6 v 0.1 c 0,2 -0.2,3.9 -0.7,5.6 -0.5,1.7 -1.2,3.1 -2.1,4.3 -0.9,1.2 -2.1,2.1 -3.4,2.8 -1.5,0.6 -3.1,0.9 -4.7,0.9 z m 0.9,-13 c 0.8,0 1.5,-0.1 2.2,-0.4 0.6,-0.2 1.2,-0.6 1.6,-1 0.4,-0.4 0.8,-0.9 1,-1.4 0.2,-0.5 0.3,-1.1 0.3,-1.7 v -0.1 c 0,-1.3 -0.5,-2.4 -1.4,-3.3 -1,-0.9 -2.2,-1.3 -3.9,-1.3 -0.8,0 -1.5,0.1 -2.1,0.4 -0.6,0.2 -1.1,0.6 -1.6,1 -0.4,0.4 -0.8,0.9 -1,1.5 -0.2,0.6 -0.3,1.2 -0.3,1.8 v 0.1 c 0,1.3 0.5,2.4 1.4,3.2 0.9,0.8 2.2,1.2 3.8,1.2 z" id="path881"/><path class="st1" d="m 508.2,288.1 -4.5,1.3 -0.9,-3.6 6.8,-2.2 h 3.1 V 309 h -4.4 v -20.9 z" id="path885"/><path class="st1" d="m 526.8,309.4 c -1.8,0 -3.3,-0.3 -4.5,-0.8 -1.3,-0.6 -2.5,-1.3 -3.5,-2.2 l 2.4,-3.4 c 1,0.8 1.9,1.4 2.8,1.8 0.9,0.4 1.9,0.6 3,0.6 0.9,0 1.8,-0.2 2.5,-0.6 0.7,-0.4 1.4,-0.9 1.9,-1.6 0.5,-0.7 0.9,-1.6 1.2,-2.5 0.3,-1 0.5,-2 0.5,-3.2 -0.6,0.8 -1.4,1.4 -2.4,1.9 -1,0.5 -2.1,0.8 -3.5,0.8 -1.3,0 -2.6,-0.2 -3.7,-0.6 -1.1,-0.4 -2,-0.9 -2.8,-1.6 -0.8,-0.7 -1.4,-1.5 -1.8,-2.5 -0.4,-1 -0.6,-2.1 -0.6,-3.3 V 292 c 0,-1.2 0.2,-2.4 0.7,-3.4 0.5,-1.1 1.1,-2 1.9,-2.8 0.8,-0.8 1.8,-1.4 3,-1.8 1.2,-0.4 2.4,-0.7 3.8,-0.7 1.6,0 2.9,0.2 4,0.7 1.1,0.4 2.1,1.1 3,2 0.9,0.9 1.7,2.2 2.2,3.7 0.6,1.5 0.8,3.5 0.8,6 v 0.1 c 0,2 -0.2,3.9 -0.7,5.6 -0.5,1.7 -1.2,3.1 -2.1,4.3 -0.9,1.2 -2.1,2.1 -3.4,2.8 -1.5,0.6 -3,0.9 -4.7,0.9 z m 1,-13 c 0.8,0 1.5,-0.1 2.2,-0.4 0.6,-0.2 1.2,-0.6 1.6,-1 0.4,-0.4 0.8,-0.9 1,-1.4 0.2,-0.5 0.3,-1.1 0.3,-1.7 v -0.1 c 0,-1.3 -0.5,-2.4 -1.4,-3.3 -1,-0.9 -2.2,-1.3 -3.9,-1.3 -0.8,0 -1.5,0.1 -2.1,0.4 -0.6,0.2 -1.1,0.6 -1.6,1 -0.4,0.4 -0.8,0.9 -1,1.5 -0.2,0.6 -0.3,1.2 -0.3,1.8 v 0.1 c 0,1.3 0.5,2.4 1.4,3.2 0.9,0.8 2.2,1.2 3.8,1.2 z" id="path887"/></g><g transform="matrix(1.0427528,0,0,1.0427528,-10.323246,-9.2804936)" id="g1205"><path class="st3" d="m 346.1,155.1 1.2,0.6 9.9,4.8 48.2,23.4 v 0 l 8.5,4.1 v 125.6 c 0,43.4 -9.6,80.6 -48.2,105.3 l -28.6,18.3 v -26.3 l 6.2,-4 0.2,-0.1 10.3,-6.6 c 12,-7.7 20.4,-16.9 26.1,-27.3 0.6,-1 1.1,-1.9 1.6,-2.9 v 0 c 0.6,-1.2 1.2,-2.4 1.8,-3.6 l 0.1,-0.2 c 0.2,-0.4 0.4,-0.9 0.6,-1.3 l 0.1,-0.1 c 0.3,-0.8 0.6,-1.5 0.9,-2.3 l 0.3,-0.8 0.3,-0.7 0.1,-0.3 c 0.2,-0.5 0.3,-0.9 0.5,-1.4 v 0 c 0.2,-0.5 0.3,-1 0.5,-1.5 l 0.1,-0.3 c 0.2,-0.8 0.5,-1.6 0.7,-2.3 l 0.2,-0.8 v 0 l 0.2,-0.8 v -0.1 c 0.3,-1 0.5,-2.1 0.8,-3.2 l 0.1,-0.4 0.3,-1.3 0.1,-0.5 0.1,-0.7 v -0.1 l 0.2,-0.9 v -0.1 l 0.1,-0.6 0.1,-0.7 0.2,-1.2 0.1,-0.4 0.2,-1.1 0.1,-0.8 0.2,-1.4 v -0.3 l 0.1,-0.9 0.1,-1 v -0.1 l 0.1,-0.8 v -0.1 l 0.1,-1 0.1,-0.9 v -0.1 l 0.1,-1 v 0 -0.4 l 0.1,-1.1 v -0.3 -0.2 l 0.1,-1.6 v -0.2 l 0.1,-1.7 V 328 l 0.1,-1.5 v -0.2 -0.3 -1.3 -0.4 0 -0.4 -1.3 -0.3 -0.2 -1.1 -0.7 0 c 0,-1.3 0,-2.6 0.1,-4 v -0.2 -1 -1.2 -112 L 357,185.1 345.9,179.7 325.1,169.6 v 98.2 177.1 c -1.8,1.2 -3.8,2.5 -5.9,3.9 l -16,10.2 V 254.2 134.3 Z" id="path891"/><rect x="-377.2706" y="-307.78061" transform="scale(-1)" class="st4" width="63.400002" height="35.099998" id="rect893"/><path class="st4" d="m 358.5,198.1 v 24.6 0 91 c 0,30.2 -2.7,42.6 -21.4,57.1 v 27 l 0.2,-0.1 c 36.1,-23.1 43.3,-40.3 43.3,-84 V 208.9 Z" id="path895"/><path id="path899" d="m 249.2,155.1 -1.2,0.6 -9.9,4.8 -48.2,23.4 v 0 l -8.5,4.1 v 125.6 c 0,43.4 9.6,80.6 48.2,105.3 l 28.6,18.3 v -26.3 l -6.2,-4 -0.2,-0.1 -10.3,-6.6 c -12,-7.7 -20.4,-16.9 -26.1,-27.3 -0.6,-1 -1.1,-1.9 -1.6,-2.9 v 0 c -0.6,-1.2 -1.2,-2.4 -1.8,-3.6 l -0.1,-0.2 c -0.2,-0.4 -0.4,-0.9 -0.6,-1.3 l -0.1,-0.1 c -0.3,-0.8 -0.6,-1.5 -0.9,-2.3 l -0.3,-0.8 -0.3,-0.7 -0.1,-0.3 c -0.2,-0.5 -0.3,-0.9 -0.5,-1.4 v 0 c -0.2,-0.5 -0.3,-1 -0.5,-1.5 l -0.1,-0.3 c -0.2,-0.8 -0.5,-1.6 -0.7,-2.3 l -0.2,-0.8 v 0 l -0.2,-0.8 v -0.1 c -0.3,-1 -0.5,-2.1 -0.8,-3.2 l -0.1,-0.4 -0.3,-1.3 -0.1,-0.5 -0.1,-0.7 v -0.1 l -0.2,-0.9 v -0.1 l -0.1,-0.6 -0.1,-0.7 -0.2,-1.2 -0.1,-0.4 -0.2,-1.1 -0.1,-0.8 -0.2,-1.4 v -0.3 l -0.1,-0.9 -0.1,-1 v -0.1 l -0.1,-0.8 v -0.1 l -0.1,-1 -0.1,-0.9 v -0.1 l -0.1,-1 v 0 -0.4 l -0.1,-1.1 v -0.3 -0.2 l -0.1,-1.6 v -0.2 l -0.1,-1.7 V 328 l -0.1,-1.5 v -0.2 -0.3 -1.3 -0.4 0 -0.4 -1.3 -0.3 -0.2 -1.1 -0.7 0 c 0,-1.3 0,-2.6 -0.1,-4 v -0.2 -1 -1.2 -112 l 34.6,-16.8 11.1,-5.4 20.8,-10.1 v 98.2 177.1 c 1.8,1.2 3.8,2.5 5.9,3.9 l 16.2,10.3 V 254.2 134.3 Z" class="st3"/><rect id="rect901" height="35.099998" width="63.400002" class="st4" y="272.79999" x="218"/><path id="path903" d="m 236.8,313.7 v -91 0 -24.6 l -22.1,10.8 v 104.8 c 0,43.7 7.2,60.8 43.3,84 l 0.2,0.1 v -27 c -18.7,-14.5 -21.4,-26.9 -21.4,-57.1 z" class="st4"/></g><g id="g1339"><g id="g1312"><path sodipodi:nodetypes="cscscccscccccscccccccccccsccccccccccccccccscsccccccccscccccccsccccccscccscsccscccccsccsscccccscccssscccccccscscccccccsccscsccssscccccsccc" id="path1297" d="m 289.36392,243.8999 c -1.98123,0.31282 -3.64964,0.72992 -5.21377,1.2513 -1.56412,0.52138 -3.02398,1.04275 -4.17101,1.6684 -1.04275,0.62566 -1.87695,1.14703 -2.81543,2.08551 -0.8342,0.8342 -1.56413,1.6684 -2.0855,2.50261 -0.62566,0.93847 -0.93848,1.77268 -1.14703,2.5026 -0.10428,0.20855 -0.10428,0.4171 -0.20855,0.52138 -0.4171,0 -0.83421,-0.10428 -1.14703,-0.10428 h -0.10428 c -0.52137,-0.10427 -0.93847,-0.10427 -1.2513,-0.20855 -0.20855,-0.10427 -0.52138,-0.31282 -0.72993,-0.52137 -0.20855,-0.10428 -0.31282,-0.20855 -0.4171,-0.31283 -0.52137,-0.4171 -1.14703,-0.72993 -1.77268,-0.93848 -0.4171,-0.20855 -0.8342,-0.20855 -1.2513,-0.20855 -0.31283,0 -0.52138,0 -0.72993,0.10428 -0.93848,0.31282 -1.45985,1.35558 -1.14703,2.39833 0.10428,0.52138 0.4171,0.93848 0.72993,1.45985 0.20855,0.4171 0.4171,0.62566 0.4171,1.14703 0.10428,0.52138 0,1.35558 -0.10427,2.08551 v 0.62565 0.20855 c -0.52138,0.10427 -1.04276,0.20855 -1.66841,0.31283 -1.14703,0.20855 -2.0855,0.52137 -3.02398,0.93847 -1.14703,0.52138 -2.29406,1.14703 -3.23254,1.77268 -1.04275,0.83421 -1.98123,1.87696 -2.9197,3.12826 -0.83421,1.14703 -1.77268,2.81543 -2.60689,4.48384 -0.62565,1.2513 -1.14702,2.50261 -1.6684,3.64963 l -0.31283,0.72993 -0.31282,0.72993 c -0.52138,1.14703 -1.04275,2.29405 -1.56413,3.54536 -0.62565,1.56413 -1.14703,3.12826 -1.56413,5.00521 -0.52138,2.08551 -0.93848,4.48384 -1.2513,6.46507 -0.31283,2.0855 -0.4171,4.17101 -0.52138,6.04796 0,1.87696 0.10428,3.33681 0.4171,4.79667 0.31283,1.56413 0.8342,3.12826 1.45986,4.17101 0.62565,1.2513 1.35557,1.87695 2.18978,2.60688 0.52137,0.4171 1.04275,0.93848 1.56413,1.35558 -0.62566,0.72993 -1.45986,1.87695 -2.08551,2.71116 -0.4171,0.4171 -0.62565,0.8342 -0.93848,1.04275 -0.31282,0.31283 -0.52137,0.52138 -0.62565,0.8342 -0.62565,0.8342 -0.4171,1.56413 -0.20855,1.98123 0.10428,0.31283 0.52138,0.93848 1.56413,1.04275 h 0.20855 c 0.4171,0 0.93848,-0.10427 1.45985,-0.20855 0.31283,0 0.52138,-0.10427 0.72993,-0.10427 h 0.31283 c 0.4171,0.10427 1.14702,0.4171 1.6684,0.62565 h 0.10428 c 0.10427,0.10428 0.20855,0.10428 0.4171,0.20855 -0.10428,0.72993 -0.20855,1.77268 -0.31283,2.81543 -0.10427,1.45986 0,2.71116 0.31283,3.85819 0.20855,1.04275 0.72992,2.18978 1.35558,3.54536 0.62565,1.2513 1.2513,2.18978 2.0855,3.23253 0.8342,1.14703 1.98123,2.29406 2.91971,3.23254 1.14703,1.14702 2.08551,2.0855 2.91971,2.9197 1.2513,1.14703 2.29405,2.08551 3.23253,2.91971 1.04275,0.8342 2.29406,1.77268 3.75391,2.71116 1.2513,0.8342 2.39833,1.56413 3.64964,2.18978 1.45985,0.8342 3.02398,1.56413 4.27528,2.08551 1.35558,0.52137 2.60689,1.04275 4.17101,1.45985 1.04276,0.31283 2.71116,0.72993 4.17102,0.93848 0.62565,0.10427 1.2513,0.10427 1.87695,0.10427 0.62565,0 1.2513,-0.10427 1.87696,-0.20855 1.14702,-0.20855 2.29405,-0.62565 3.44108,-1.2513 0.72993,-0.4171 1.45985,-0.8342 1.98123,-1.14703 0.31283,0.20855 0.62565,0.52138 0.93848,0.72993 0.62565,0.52137 0.93848,0.8342 1.04275,0.93848 0,0.10427 0,0.31282 0.10428,0.4171 0.10427,0.62565 0.20855,1.6684 0.20855,2.5026 v 0.4171 c 0.10427,0.93848 0.10427,1.56413 0.20855,2.08551 0.31282,1.2513 1.14703,1.6684 1.87695,1.77268 h 0.52138 c 0.72993,0 1.45985,-0.31283 1.77268,-0.93848 0.4171,-0.62565 0.4171,-1.35558 0.4171,-2.60688 v -3.12826 -0.10427 c 0.4171,-0.4171 1.14703,-1.25131 1.77268,-1.87696 0.20855,-0.20855 0.52138,-0.4171 0.62565,-0.62565 l 0.31283,0.31283 0.20855,0.10427 c 0.4171,0.31283 0.8342,0.72993 1.35558,1.04275 0.72992,0.4171 1.45985,0.62566 2.5026,0.72993 0.4171,0 1.04276,0.10428 1.56413,0.10428 0.62565,0 1.35558,0 1.98123,-0.10428 1.04276,-0.10427 2.08551,-0.31283 3.23254,-0.62565 0.8342,-0.20855 1.45985,-0.4171 2.18978,-0.72993 0.72992,-0.31282 1.45985,-0.62565 2.71115,-1.2513 1.66841,-0.8342 3.33681,-1.77268 4.79667,-2.60688 2.29405,-1.35558 4.27528,-2.71116 6.15224,-4.17101 2.0855,-1.66841 4.27529,-3.64964 6.46507,-5.73515 2.18978,-2.18978 4.06673,-4.37956 5.42231,-6.15224 1.35558,-1.87695 2.18978,-3.64963 2.71116,-5.21376 0.4171,-1.56413 0.4171,-2.91971 0.4171,-4.06674 0,-0.4171 0,-0.72992 -0.10428,-1.04275 0,-0.52138 -0.10427,-0.93848 0,-1.14703 0,-0.31282 0,-0.31282 0.20856,-0.52137 0.20855,-0.31283 0.62565,-0.62566 0.8342,-0.72993 0.20855,-0.10428 0.52137,-0.20855 1.35558,-0.31283 0.8342,-0.10427 2.0855,-0.20855 2.60688,-0.20855 0.4171,0 1.45985,-0.10427 1.77268,-1.04275 0.4171,-0.93848 -0.20855,-1.6684 -0.62565,-2.29406 -0.52138,-0.62565 -1.66841,-1.98123 -2.39834,-2.9197 -0.4171,-0.52138 -0.62565,-0.93848 -0.93847,-1.25131 0.4171,-0.4171 1.04275,-0.93848 1.56413,-1.6684 0.8342,-1.04276 1.6684,-2.39833 2.18978,-3.75391 0.52137,-1.25131 0.93847,-2.60688 1.14703,-4.17101 0.20855,-1.35558 0.20855,-2.71116 0.10427,-4.27529 -0.10427,-1.56413 -0.31283,-3.33681 -0.62565,-5.21376 -0.31283,-1.98124 -0.52138,-3.85819 -1.04275,-6.15225 -0.52138,-2.29405 -1.35558,-4.90093 -2.18978,-7.09072 -0.72993,-2.0855 -1.66841,-3.96246 -2.71116,-5.73514 -0.93848,-1.6684 -1.87696,-2.9197 -3.02399,-4.37956 -1.04275,-1.2513 -2.71115,-2.91971 -4.48383,-4.17101 -1.45986,-0.93848 -3.12826,-1.6684 -4.90094,-2.0855 -0.72993,-0.10428 -1.35558,-0.20856 -1.87696,-0.31283 0.10428,-0.31283 0.10428,-0.72993 0.20855,-1.04275 0,-0.31283 0.10428,-0.52138 0.10428,-0.72993 0,-0.31283 0.10428,-0.62565 0.10428,-0.8342 0.10427,-0.20855 0.20855,-0.4171 0.20855,-0.72993 0.10427,-0.20855 0.20855,-0.52138 0.31282,-0.8342 0.20855,-0.62565 0.20855,-1.35558 0.10428,-1.87696 -0.20855,-0.93847 -0.93848,-1.45985 -1.77268,-1.45985 -0.20855,0 -0.4171,0 -0.62565,0.10427 -0.52138,0.10428 -1.04276,0.52138 -1.56413,0.83421 -0.31283,0.20855 -0.52138,0.52137 -0.72993,0.72992 -0.10428,0.10428 -0.20855,0.31283 -0.31283,0.4171 -0.10427,0.10428 -0.20855,0.20856 -0.62565,0.31283 -0.4171,0.10428 -0.93848,0.20855 -1.35558,0.31283 l -0.31282,0.10427 h -0.20855 c -0.31283,-0.52137 -0.72993,-1.2513 -1.14703,-1.98123 -0.62565,-0.93848 -1.35558,-1.98123 -2.39833,-3.12826 -1.04276,-1.04275 -2.39833,-2.0855 -3.75391,-2.81543 -1.35558,-0.72993 -2.71116,-1.2513 -4.69239,-1.6684 -1.77268,-0.41711 -3.85819,-0.83421 -5.83942,-1.04276 -7.17078,-0.45603 -13.77834,-0.17606 -20.2294,1.04276 z" style="fill:#000000;stroke-width:1.04275"/><g id="g1293"><path style="stroke-width:1.04275;fill:#ffffff" d="m 315.64129,335.24504 c 0.72993,-0.8342 1.6684,-1.87695 2.60688,-2.9197 0.93848,-0.93848 1.98123,-1.77268 2.91971,-2.71116 0.93848,-0.8342 1.87695,-1.77268 2.91971,-2.60688 1.04275,-0.83421 2.18978,-1.45986 3.12826,-1.98123 0.93847,-0.52138 1.77268,-0.83421 2.60688,-1.04276 0.8342,-0.20855 1.56413,-0.31282 2.29405,-0.52137 0.72993,-0.20855 1.35558,-0.52138 1.87696,-0.83421 0.62565,-0.4171 1.2513,-0.93847 1.6684,-1.35557 0.41711,-0.52138 0.62566,-0.93848 0.83421,-1.35558 0.20855,-0.4171 0.31282,-0.83421 0.52137,-1.35558 0.20855,-0.52138 0.4171,-0.93848 0.52138,-1.45986 0.10427,-0.52137 0,-0.93847 -0.10428,-1.35557 -0.10427,-0.52138 -0.31282,-1.04276 -0.62565,-1.56413 -0.31282,-0.52138 -0.62565,-1.04276 -0.93848,-1.45986 -0.31282,-0.4171 -0.52137,-0.72992 -0.72992,-1.14703 -0.31283,-0.4171 -0.72993,-1.04275 -1.14703,-1.56413 -0.52138,-0.62565 -0.93848,-1.14702 -1.2513,-1.45985 -0.20855,-0.31283 -0.20855,-0.31283 -0.10428,-0.31283 h 0.72993 c 0.31282,0 0.62565,0 1.04275,0.20856 0.4171,0.20855 0.8342,0.52137 1.45985,0.8342 0.62566,0.31282 1.25131,0.52137 1.87696,0.93848 0.62565,0.4171 1.04275,1.04275 1.45985,1.77268 0.4171,0.62565 0.72993,1.35557 1.04276,2.0855 0.31282,0.72993 0.52137,1.66841 0.72992,2.60688 0.20855,0.93848 0.20855,1.87696 0.20855,2.81544 0,0.93847 -0.10427,1.87695 -0.52137,2.81543 -0.4171,1.04275 -1.25131,2.18978 -2.08551,3.44108 -0.8342,1.14703 -1.77268,2.39833 -2.60688,3.33681 -0.8342,0.93848 -1.56413,1.56413 -2.18978,2.18978 -0.62565,0.62565 -1.04275,1.14703 -1.98123,1.98123 -0.93848,0.72993 -2.18978,1.77268 -3.64964,2.81544 -1.45985,1.04275 -3.02398,2.0855 -4.69238,3.02398 -1.56413,0.93848 -3.23254,1.77268 -4.79667,2.39833 -1.56413,0.72993 -3.02398,1.2513 -4.37956,1.6684 -1.35558,0.41711 -2.50261,0.62566 -3.54536,0.72993 -1.04275,0.10428 -1.87695,0 -2.71116,-0.20855 -0.8342,-0.20855 -1.6684,-0.62565 -2.29405,-1.04275 -0.62565,-0.4171 -1.14703,-0.8342 -1.77268,-1.35558 -0.52138,-0.52138 -1.14703,-1.04275 -1.66841,-1.56413 -0.52137,-0.52138 -0.8342,-0.93848 -1.14702,-1.6684 -0.31283,-0.62566 -0.52138,-1.45986 -0.62566,-2.60689 -0.10427,-1.04275 -0.20855,-2.39833 -0.20855,-3.02398 0,-0.62565 0.20855,-0.62565 0.31283,-0.52138 0.10427,0.10428 0.31283,0.20855 0.52138,0.52138 0.20855,0.31283 0.62565,0.8342 0.93847,1.35558 0.31283,0.52138 0.52138,1.04275 0.93848,1.6684 0.4171,0.62566 1.04275,1.35558 1.66841,1.98123 0.62565,0.62566 1.2513,1.04276 1.87695,1.45986 0.52138,0.31282 1.04275,0.52137 1.77268,0.62565 0.72993,0.10427 1.6684,0 2.50261,-0.10428 0.72992,-0.20855 1.35558,-0.4171 1.87695,-0.72992 0.52138,-0.31283 0.93848,-0.72993 1.35558,-1.14703 0.4171,-0.8342 0.8342,-1.45985 1.56413,-2.29406 z" id="path1266"/><path style="stroke-width:1.04275;fill:#ffffff" d="m 274.86965,265.17205 c -0.62565,-0.31282 -1.2513,-0.52137 -1.87695,-0.62565 -0.72993,-0.10427 -1.56413,-0.20855 -2.29406,-0.31282 -0.72992,-0.10428 -1.45985,-0.10428 -2.18978,0 -0.72992,0.10427 -1.6684,0.20855 -2.5026,0.52137 -0.83421,0.31283 -1.56413,0.72993 -2.39834,1.35558 -0.8342,0.62565 -1.56413,1.56413 -2.5026,2.71116 -0.83421,1.14703 -1.77268,2.5026 -2.60688,3.96246 -0.83421,1.45985 -1.66841,3.12826 -2.50261,4.79666 -0.72993,1.66841 -1.45986,3.54536 -1.98123,5.21377 -0.62565,1.6684 -1.04275,3.3368 -1.35558,4.48383 -0.31283,1.14703 -0.31283,1.87696 -0.4171,2.71116 -0.10428,0.8342 -0.31283,1.87696 -0.52138,3.12826 -0.10427,1.2513 -0.20855,2.81543 -0.20855,4.27529 0,1.45985 0,2.9197 0.31283,3.96246 0.20855,1.14702 0.72992,1.87695 1.2513,2.60688 0.52138,0.72993 1.2513,1.45985 1.87696,2.18978 0.72992,0.62565 1.45985,1.2513 2.0855,1.6684 0.72993,0.4171 1.35558,0.83421 2.08551,1.04276 0.72992,0.31282 1.45985,0.52137 2.18978,0.52137 0.72992,0 1.45985,-0.31282 2.0855,-0.4171 0.62566,-0.10427 1.25131,-0.10427 1.66841,-0.20855 0.4171,-0.10427 0.72992,-0.31282 0.93848,-0.52138 l 0.62565,-0.4171 c 0.10427,-0.10427 0.10427,-0.10427 -0.31283,-0.20855 -0.4171,-0.10427 -1.14703,-0.31282 -1.87695,-0.4171 -0.72993,-0.20855 -1.45986,-0.4171 -1.98123,-0.52137 -0.52138,-0.20855 -0.83421,-0.31283 -1.35558,-0.52138 -0.52138,-0.20855 -1.14703,-0.31283 -1.66841,-0.62565 -0.52137,-0.31283 -1.04275,-0.62565 -1.45985,-0.93848 -0.4171,-0.31283 -0.72993,-0.62565 -0.8342,-1.04275 -0.20855,-0.4171 -0.31283,-1.04276 -0.4171,-1.45986 -0.10428,-0.52137 -0.31283,-0.93847 -0.31283,-1.35558 -0.10428,-0.4171 -0.20855,-0.93847 -0.10428,-1.56412 0.10428,-0.62566 0.20855,-1.45986 0.52138,-2.08551 0.31283,-0.72993 0.62565,-1.2513 1.04275,-1.87696 0.4171,-0.62565 1.04276,-1.14702 1.56413,-1.77268 0.52138,-0.62565 0.93848,-1.35557 1.45986,-2.39833 0.52137,-1.04275 0.93847,-2.18978 1.35558,-3.54536 0.4171,-1.2513 0.62565,-2.5026 0.8342,-3.85818 0.31282,-1.25131 0.62565,-2.50261 0.8342,-3.85819 0.20855,-1.35558 0.31283,-2.81543 0.4171,-3.85818 0.10428,-1.14703 0.10428,-1.87696 0.20855,-2.50261 0.10428,-0.62565 0.20855,-1.2513 0.4171,-1.77268 0.20855,-0.52138 0.52138,-1.14703 1.04276,-1.77268 0.52137,-0.62565 1.35557,-1.2513 1.98123,-1.56413 0.62565,-0.4171 1.14702,-0.52137 1.77268,-0.62565 0.62565,-0.10428 1.45985,-0.10428 2.39833,0 0.8342,0.10428 1.87695,0.31283 2.60688,0.62565 0.72993,0.20855 1.2513,0.52138 1.77268,0.72993 0.52138,0.20855 1.14703,0.4171 1.56413,0.52138 0.4171,0.10427 0.52137,0.10427 0.72993,0.10427 0.20855,0 0.31282,-0.10427 -0.10428,-0.62565 -0.31283,-0.52138 -1.2513,-1.56413 -1.98123,-2.29406 -0.62565,-0.62565 -1.2513,-1.14703 -1.87696,-1.56413 z" id="path1264"/><path style="stroke-width:1.04275;fill:#ffffff" d="m 268.92596,325.33889 c 1.04276,0.4171 2.29406,0.8342 3.54536,1.45986 1.25131,0.52137 2.29406,1.2513 3.44109,1.77267 1.14703,0.62566 2.29405,1.14703 3.33681,1.87696 1.04275,0.72993 2.0855,1.45985 2.9197,2.18978 0.83421,0.72993 1.35558,1.35558 1.77268,1.98123 0.41711,0.62565 0.83421,1.35558 1.25131,1.98123 0.4171,0.62565 0.8342,1.04275 1.45985,1.45986 0.52138,0.4171 1.2513,0.8342 1.77268,1.04275 0.52138,0.20855 1.04275,0.31282 1.45986,0.31282 0.4171,0 0.8342,0 1.35557,0 0.52138,0 1.04276,0.10428 1.45986,0 0.4171,-0.10427 0.8342,-0.20855 1.2513,-0.52137 0.4171,-0.31283 0.8342,-0.62565 1.2513,-1.04275 0.41711,-0.41711 0.72993,-0.93848 1.04276,-1.35558 0.31282,-0.4171 0.52137,-0.72993 0.8342,-1.14703 0.31283,-0.4171 0.72993,-1.04275 1.04275,-1.66841 0.4171,-0.62565 0.72993,-1.35557 0.93848,-1.6684 0.20855,-0.31283 0.20855,-0.31283 0.20855,-0.20855 l 0.20855,0.72993 c 0.10428,0.31282 0.20855,0.62565 0.20855,1.04275 0,0.4171 -0.20855,1.04275 -0.31282,1.6684 -0.10428,0.62565 0,1.35558 -0.20855,2.08551 -0.20856,0.72993 -0.62566,1.35558 -1.14703,1.98123 -0.4171,0.62565 -0.93848,1.14703 -1.56413,1.6684 -0.62565,0.52138 -1.35558,1.04276 -2.18978,1.56413 -0.83421,0.52138 -1.66841,0.93848 -2.50261,1.25131 -0.8342,0.31282 -1.6684,0.52137 -2.81543,0.52137 -1.04276,-0.10427 -2.39833,-0.4171 -3.85819,-0.8342 -1.35558,-0.4171 -2.81543,-0.8342 -3.96246,-1.35558 -1.14703,-0.4171 -1.98123,-0.93848 -2.71116,-1.35558 -0.72992,-0.31282 -1.45985,-0.62565 -2.39833,-1.14703 -1.04275,-0.52137 -2.39833,-1.45985 -3.75391,-2.5026 -1.45985,-1.04275 -2.91971,-2.08551 -4.37956,-3.33681 -1.35558,-1.14703 -2.60688,-2.39833 -3.75391,-3.64964 -1.14703,-1.2513 -2.18978,-2.39833 -3.02398,-3.54536 -0.83421,-1.14702 -1.45986,-2.0855 -1.77268,-3.02398 -0.4171,-0.93848 -0.62565,-1.77268 -0.62565,-2.60688 -0.10428,-0.8342 0,-1.77268 0.20855,-2.50261 0.10427,-0.72992 0.31282,-1.35558 0.62565,-2.0855 0.31282,-0.72993 0.52137,-1.45986 0.8342,-2.08551 0.31283,-0.62565 0.62565,-1.14703 1.14703,-1.6684 0.52137,-0.52138 1.2513,-0.93848 2.18978,-1.45986 0.93848,-0.52137 2.0855,-1.04275 2.71116,-1.2513 0.62565,-0.20855 0.62565,0 0.62565,0.10427 0,0.10428 -0.10428,0.31283 -0.20855,0.62566 -0.20855,0.31282 -0.52138,0.8342 -0.93848,1.35558 -0.4171,0.4171 -0.72993,0.8342 -1.2513,1.45985 -0.4171,0.62565 -0.93848,1.45985 -1.25131,2.18978 -0.31282,0.8342 -0.52137,1.56413 -0.62565,2.18978 -0.10427,0.62565 -0.10427,1.14703 0.10428,1.87696 0.20855,0.72992 0.52137,1.56413 0.93847,2.29405 0.41711,0.62565 0.83421,1.14703 1.35558,1.45986 0.4171,0.31282 0.93848,0.62565 1.56413,0.8342 0.4171,0.4171 1.14703,0.62565 2.18978,1.04275 z" id="path1262"/><path style="stroke-width:1.04275;fill:#ffffff" d="m 294.05631,249.21794 c 1.87695,-0.20856 3.75391,-0.31283 5.52659,-0.31283 1.77268,0 3.44108,0 4.58811,0 1.14703,0.10427 1.87695,0.20855 2.71116,0.4171 0.8342,0.10428 1.87695,0.20855 3.12825,0.4171 1.25131,0.20855 2.71116,0.62565 4.17102,1.14703 1.45985,0.4171 2.71115,0.93848 3.75391,1.45985 0.93847,0.52138 1.56413,1.25131 2.18978,1.98123 0.52137,0.72993 1.04275,1.56413 1.45985,2.39834 0.4171,0.8342 0.72993,1.6684 1.04275,2.5026 0.20855,0.8342 0.4171,1.56413 0.4171,2.29406 0.10428,0.72993 0.10428,1.56413 -0.10427,2.29405 -0.20855,0.72993 -0.62565,1.25131 -0.93848,1.87696 -0.31282,0.62565 -0.4171,1.14703 -0.62565,1.56413 -0.20855,0.4171 -0.52138,0.62565 -0.72993,0.72993 l -0.62565,0.4171 c -0.10427,0.10427 -0.10427,0.10427 -0.10427,-0.31283 0,-0.4171 0.10427,-1.14703 0.10427,-1.98123 0,-0.72993 0,-1.45985 0,-1.98123 0,-0.52138 -0.10427,-0.93848 -0.10427,-1.45985 0,-0.52138 0,-1.14703 -0.10428,-1.77268 -0.10427,-0.62566 -0.31282,-1.14703 -0.52138,-1.66841 -0.20855,-0.4171 -0.4171,-0.8342 -0.72992,-1.14703 -0.31283,-0.31282 -0.8342,-0.62565 -1.25131,-0.8342 -0.4171,-0.31282 -0.8342,-0.52137 -1.2513,-0.72993 -0.4171,-0.20855 -0.8342,-0.4171 -1.45985,-0.52137 -0.62565,-0.10428 -1.45986,-0.20855 -2.18978,-0.10428 -0.72993,0 -1.35558,0.20855 -2.08551,0.4171 -0.62565,0.31283 -1.35558,0.62566 -2.18978,0.93848 -0.72993,0.31283 -1.56413,0.52138 -2.71116,0.72993 -1.04275,0.20855 -2.39833,0.31282 -3.75391,0.20855 -1.35558,0 -2.60688,-0.20855 -3.85818,-0.31283 -1.25131,-0.10427 -2.60689,-0.20855 -3.96246,-0.4171 -1.35558,-0.20855 -2.71116,-0.52137 -3.85819,-0.72992 -1.04275,-0.20856 -1.77268,-0.41711 -2.50261,-0.62566 -0.62565,-0.10427 -1.2513,-0.20855 -1.77268,-0.10427 -0.62565,0 -1.2513,0.10427 -1.98123,0.52137 -0.72992,0.31283 -1.56413,0.93848 -2.0855,1.35558 -0.52138,0.52138 -0.8342,0.93848 -1.04275,1.56413 -0.20856,0.62565 -0.52138,1.35558 -0.62566,2.18978 -0.10427,0.83421 -0.20855,1.87696 -0.10427,2.60689 0,0.72992 0.20855,1.35557 0.20855,1.87695 0.10427,0.62565 0.10427,1.2513 0,1.66841 0,0.4171 -0.10428,0.52137 -0.10428,0.72992 -0.10427,0.10428 -0.10427,0.31283 -0.52137,-0.20855 -0.4171,-0.52137 -1.14703,-1.56413 -1.66841,-2.50261 -0.52137,-0.93847 -0.93848,-1.77267 -1.04275,-2.39833 -0.20855,-0.72992 -0.10428,-1.2513 -0.10428,-1.98123 0.10428,-0.72992 0.20855,-1.56413 0.41711,-2.29405 0.10427,-0.72993 0.31282,-1.35558 0.62565,-2.08551 0.31282,-0.72993 0.72992,-1.45985 1.2513,-2.18978 0.52138,-0.72993 1.14703,-1.2513 1.98123,-1.77268 0.8342,-0.52138 1.98123,-1.04275 3.23253,-1.56413 1.35558,-0.52138 2.81544,-0.93848 4.48384,-1.35558 1.77268,-0.31282 3.54536,-0.72992 5.42232,-0.93847 z" id="path919"/><path style="stroke-width:1.04275;fill:#ffffff" d="m 290.7195,262.25235 c -1.04276,-0.31283 -1.77268,-0.83421 -2.60688,-0.93848 -0.83421,-0.20855 -1.66841,-0.10428 -2.60689,0.10427 -0.8342,0.20855 -1.6684,0.62565 -2.29405,1.04276 -0.62565,0.4171 -1.14703,0.93847 -1.45986,1.56413 -0.31282,0.72992 -0.4171,1.6684 -0.4171,2.60688 0,1.04275 0.10428,2.0855 0.20855,3.02398 0.10428,0.93848 0.20855,1.56413 0.62565,2.29406 0.31283,0.72992 0.83421,1.45985 1.04276,1.87695 0.20855,0.52138 0.20855,0.72993 0.10427,0.93848 -0.10427,0.20855 -0.20855,0.4171 -0.31282,0.52138 -0.10428,0.10427 -0.20855,0.10427 -0.72993,-0.41711 -0.52138,-0.52137 -1.45985,-1.45985 -2.18978,-2.0855 -0.8342,-0.72993 -1.45986,-1.14703 -2.39833,-1.56413 -0.93848,-0.31283 -2.08551,-0.62565 -3.12826,-0.62565 -1.04275,0 -1.98123,0.10427 -2.71116,0.4171 -0.72993,0.31282 -1.35558,0.8342 -1.6684,1.35558 -0.4171,0.52137 -0.62565,0.93848 -0.83421,1.56413 -0.20855,0.62565 -0.31282,1.45985 -0.4171,2.60688 -0.10427,1.14703 -0.10427,2.60688 -0.20855,3.96246 -0.20855,1.35558 -0.52137,2.50261 -0.72992,3.85819 -0.20855,1.35557 -0.52138,2.81543 -0.83421,4.06673 -0.31282,1.2513 -0.8342,2.39833 -1.2513,3.33681 -0.52138,0.93848 -0.93848,1.87696 -1.35558,2.60688 -0.4171,0.72993 -0.62565,1.25131 -1.14703,1.77268 -0.4171,0.52138 -1.04275,0.93848 -1.45985,1.56413 -0.4171,0.52138 -0.72993,1.2513 -0.93848,1.87696 -0.20855,0.72992 -0.20855,1.45985 -0.20855,2.18978 0,0.72992 0.20855,1.2513 0.62565,1.87695 0.4171,0.62565 1.04276,1.14703 1.77268,1.66841 0.72993,0.52137 1.45986,0.8342 2.29406,1.14703 0.8342,0.31282 1.77268,0.62565 2.71116,0.72992 0.93847,0.10428 1.87695,0.10428 2.5026,0 0.62565,0 1.04276,0 1.35558,0 0.31283,0 0.52138,0.10428 0.52138,0.20855 0.10427,0.10428 0,0.20855 -0.52138,0.72993 -0.52137,0.4171 -1.45985,1.14703 -2.29405,1.6684 -0.72993,0.52138 -1.25131,0.83421 -1.66841,1.25131 -0.4171,0.4171 -0.8342,0.93848 -1.14703,1.56413 -0.31282,0.52137 -0.72992,1.04275 -0.8342,1.6684 -0.20855,0.62565 -0.20855,1.35558 0,2.18978 0.10428,0.72993 0.4171,1.45986 1.04275,2.18978 0.62566,0.62565 1.56413,1.14703 2.50261,1.45986 0.93848,0.31282 1.77268,0.52137 2.91971,0.93847 1.14703,0.41711 2.50261,1.04276 3.54536,1.56413 1.14703,0.62566 1.98123,1.14703 2.81543,1.77268 0.8342,0.62566 1.77268,1.35558 2.60688,2.08551 0.8342,0.72993 1.45986,1.45985 2.18978,2.18978 0.72993,0.72993 1.45986,1.6684 2.18978,2.50261 0.83421,0.93847 1.66841,1.87695 2.39834,2.60688 0.72992,0.8342 1.35557,1.45985 1.98123,1.87695 0.62565,0.41711 1.2513,0.62566 2.18978,0.52138 0.8342,-0.10427 1.87695,-0.52138 2.81543,-1.2513 0.93848,-0.72993 1.77268,-1.66841 2.39833,-2.60688 0.62565,-0.93848 0.93848,-1.98124 1.2513,-2.71116 0.20856,-0.72993 0.41711,-1.14703 0.52138,-1.45986 0.20855,-0.31282 0.31283,-0.52137 0.52138,-0.52137 0.20855,0 0.4171,0 0.52137,0.4171 0.10428,0.31282 0.20855,0.93848 0.52138,1.56413 0.31283,0.72992 0.8342,1.56413 1.45985,2.39833 0.62566,0.8342 1.35558,1.77268 2.18979,2.39833 0.72992,0.62565 1.45985,1.04275 2.18978,1.14703 0.72992,0.10427 1.2513,0 1.98123,-0.10428 0.62565,-0.20855 1.35558,-0.4171 1.87695,-0.8342 0.52138,-0.4171 0.93848,-0.93848 1.35558,-1.45985 0.31283,-0.52138 0.52138,-0.93848 1.04275,-1.56413 0.4171,-0.72993 1.14703,-1.66841 1.98123,-2.60688 0.83421,-0.93848 1.87696,-1.87696 2.91971,-2.71116 1.04275,-0.8342 2.08551,-1.56413 3.23254,-2.18978 1.14702,-0.72993 2.60688,-1.45986 3.96246,-1.98123 1.45985,-0.62565 2.81543,-1.14703 4.06673,-1.66841 1.25131,-0.52137 2.29406,-1.04275 3.02399,-1.6684 0.72992,-0.62565 1.2513,-1.25131 1.6684,-1.98123 0.31283,-0.72993 0.52138,-1.56413 0.4171,-2.18978 0,-0.72993 -0.31283,-1.25131 -0.62565,-1.98123 -0.31283,-0.72993 -0.8342,-1.66841 -1.35558,-2.39833 -0.52138,-0.72993 -1.14703,-1.35558 -1.87695,-1.77268 -0.72993,-0.41711 -1.45986,-0.72993 -1.98124,-1.04276 -0.62565,-0.31282 -1.04275,-0.72992 -1.14702,-1.04275 -0.20855,-0.20855 -0.10428,-0.31283 0.20855,-0.31283 0.31282,0 1.04275,0 1.77268,0.10428 0.72992,0 1.56413,0.10427 2.91971,-0.10428 1.2513,-0.20855 3.02398,-0.72992 4.17101,-1.2513 1.14702,-0.52138 1.6684,-1.04275 2.0855,-1.6684 0.4171,-0.62566 0.52138,-1.45986 0.72993,-2.18978 0.10427,-0.72993 0.20855,-1.35558 0,-1.87696 -0.10428,-0.62565 -0.52138,-1.14703 -1.04275,-1.98123 -0.62566,-0.8342 -1.45986,-1.98123 -2.18978,-3.02398 -0.72993,-1.04276 -1.45986,-2.08551 -1.98124,-3.44109 -0.62565,-1.35558 -1.14702,-3.02398 -1.45985,-4.58811 -0.4171,-1.6684 -0.62565,-3.23253 -0.72993,-4.79666 -0.10427,-1.56413 -0.20855,-3.12826 -0.20855,-4.27529 0,-1.14703 -0.10427,-2.08551 -0.31282,-2.91971 -0.20855,-0.8342 -0.72993,-1.77268 -1.45986,-2.39833 -0.72992,-0.72993 -1.6684,-1.14703 -2.5026,-1.35558 -0.83421,-0.20855 -1.56413,-0.10427 -2.50261,0.10428 -0.93848,0.20855 -1.87696,0.52137 -2.81543,0.93847 -0.93848,0.41711 -1.66841,1.04276 -2.08551,1.56413 -0.52137,0.52138 -0.62565,0.83421 -0.8342,1.04276 -0.20855,0.20855 -0.4171,0.31282 -0.62565,0.31282 -0.20855,0 -0.4171,0 -0.52138,-0.10427 -0.10427,-0.10428 -0.20855,-0.31283 -0.10427,-0.8342 0.20855,-0.52138 0.62565,-1.14703 0.93847,-1.77268 0.31283,-0.52138 0.52138,-0.93848 0.62566,-1.77268 0.10427,-0.72993 0.10427,-1.87696 0,-2.81544 -0.10428,-1.04275 -0.31283,-1.98123 -0.62566,-2.81543 -0.4171,-0.93848 -0.93847,-1.77268 -1.56413,-2.29406 -0.62565,-0.52137 -1.2513,-0.72992 -2.0855,-0.8342 -0.8342,-0.10427 -1.77268,0 -2.60688,0.20855 -0.72993,0.20855 -1.35558,0.62565 -1.98123,0.93848 -0.62566,0.31283 -1.45986,0.52138 -2.18978,0.72993 -0.83421,0.20855 -1.66841,0.4171 -2.81544,0.62565 -1.14703,0.20855 -2.60688,0.20855 -3.75391,0.31282 -1.2513,0 -2.29405,0 -3.44108,-0.10427 -1.14703,-0.10428 -2.39833,-0.20855 -3.64964,-0.31283 -1.77268,-0.62565 -3.02398,-0.72992 -4.06673,-1.14702 z" id="path1260"/><path style="stroke-width:1.04275;fill:#ffffff" d="m 325.54744,260.58394 c 0.20855,-0.62565 0.52138,-1.35558 0.93848,-1.98123 0.52138,-0.52138 1.04275,-0.93848 1.77268,-1.14703 0.72993,-0.20855 1.56413,-0.31282 1.98123,-0.4171 0.4171,0 0.4171,0 0.4171,0.20855 0,0.20855 -0.10427,0.72993 -0.20855,1.35558 -0.10428,0.62565 -0.20855,1.35558 -0.72993,1.98123 -0.4171,0.62565 -1.14703,1.2513 -1.77268,1.66841 -0.62565,0.4171 -1.14702,0.62565 -1.35558,0.72992 -0.20855,0.10428 -0.20855,0.10428 -0.4171,0 l -0.72992,-0.52137 c -0.20855,-0.10428 -0.20855,-0.10428 -0.20855,-0.41711 0.10427,-0.20855 0.10427,-0.72992 0.31282,-1.45985 z" id="path1280"/><path style="stroke-width:1.04275;fill:#ffffff" d="m 340.87591,310.32325 c -0.10428,0.20855 -0.10428,0.20855 0.10427,0.4171 0.20855,0.20855 0.62566,0.62565 1.25131,1.04275 0.62565,0.41711 1.35558,0.83421 2.18978,1.04276 0.72992,0.10427 1.56413,0 2.0855,-0.10428 0.62566,-0.10427 1.04276,-0.20855 1.35558,-0.20855 0.20855,0 0.20855,0 0,-0.4171 -0.20855,-0.4171 -0.62565,-1.14703 -1.04275,-1.6684 -0.52138,-0.62566 -1.04275,-1.04276 -1.77268,-1.25131 -0.72993,-0.20855 -1.56413,-0.20855 -2.18978,-0.20855 -0.62565,0.10428 -1.14703,0.20855 -1.35558,0.31283 -0.20855,0.10427 -0.20855,0.10427 -0.31283,0.31282 z" id="path1278"/><path style="stroke-width:1.04275;fill:#ffffff" d="m 259.22836,311.05318 c -0.10427,-0.20855 -0.10427,-0.20855 -0.31282,-0.31283 -0.20855,0 -0.72993,-0.10427 -1.45986,-0.10427 -0.62565,0 -1.45985,0.10427 -2.18978,0.4171 -0.62565,0.31282 -1.2513,0.72992 -1.6684,1.45985 -0.4171,0.62565 -0.72993,1.45986 -0.93848,1.77268 -0.20855,0.4171 -0.20855,0.4171 0.10427,0.4171 0.20856,0 0.72993,0.10428 1.35558,0.10428 0.62565,0.10427 1.35558,0.10427 2.08551,-0.10428 0.72993,-0.20855 1.45985,-0.72992 2.0855,-1.2513 0.52138,-0.52138 0.93848,-0.93848 1.14703,-1.14703 0.20855,-0.20855 0.20855,-0.20855 0.10428,-0.4171 z" id="path1276"/><path style="stroke-width:1.04275;fill:#ffffff" d="m 301.45985,342.33576 c -0.20855,-0.72992 -0.4171,-1.2513 -0.62565,-1.45985 -0.10428,-0.20855 -0.10428,-0.20855 -0.31283,-0.31283 l -0.93847,-0.10427 c -0.20855,0 -0.20855,0 -0.4171,0.20855 -0.10428,0.20855 -0.41711,0.62565 -0.72993,1.2513 -0.31283,0.62565 -0.52138,1.35558 -0.52138,2.08551 0,0.72992 0.20855,1.45985 0.62565,2.0855 0.4171,0.62565 1.04276,1.25131 1.25131,1.56413 0.31282,0.31283 0.31282,0.31283 0.4171,0.10428 0.10427,-0.20855 0.31282,-0.62565 0.62565,-1.14703 0.31283,-0.52138 0.72993,-1.2513 0.72993,-1.98123 0.31282,-0.72993 0.10427,-1.56413 -0.10428,-2.29406 z" id="path1274"/><path style="stroke-width:1.04275;fill:#ffffff" d="m 339.52033,290.19812 c 0.62565,1.14703 1.35558,2.39833 1.87695,3.33681 0.62566,0.93848 1.04276,1.56413 1.35558,2.08551 0.31283,0.52137 0.52138,1.04275 0.72993,1.6684 0.10428,0.52138 0.20855,1.14703 0.10428,1.98123 -0.10428,0.72993 -0.41711,1.66841 -0.62566,2.39833 -0.31282,0.62565 -0.62565,1.04275 -1.14702,1.45986 -0.52138,0.4171 -1.14703,0.8342 -1.98123,1.2513 -0.83421,0.4171 -1.66841,0.72993 -2.39834,0.93848 -0.72992,0.20855 -1.2513,0.20855 -1.87695,0.4171 -0.62565,0.10427 -1.14703,0.31282 -1.56413,0.4171 -0.4171,0.10427 -0.52138,0.20855 -0.62565,0.31283 -0.10428,0.10427 -0.20855,0.20855 0.4171,0.4171 0.62565,0.20855 1.87695,0.52137 2.91971,0.72992 1.04275,0.20855 1.98123,0.31283 2.60688,0.20855 0.72993,-0.10427 1.2513,-0.20855 1.87695,-0.52137 0.62566,-0.31283 1.35558,-0.72993 1.98123,-1.04276 0.62566,-0.4171 1.25131,-0.72992 1.77268,-1.14702 0.62566,-0.52138 1.25131,-1.14703 1.66841,-1.77268 0.52138,-0.72993 0.8342,-1.45986 1.14703,-2.39833 0.31282,-0.93848 0.4171,-2.08551 0.52137,-3.54536 0.10428,-1.35558 0,-2.91971 -0.10427,-4.58812 -0.10428,-1.6684 -0.4171,-3.44108 -0.72993,-5.21376 -0.4171,-1.77268 -0.8342,-3.64964 -1.35558,-5.31804 -0.52137,-1.6684 -1.04275,-3.23253 -1.45985,-4.27529 -0.4171,-1.04275 -0.8342,-1.6684 -1.25131,-2.39833 -0.4171,-0.72993 -0.72992,-1.6684 -1.35557,-2.71116 -0.62566,-1.04275 -1.45986,-2.29405 -2.29406,-3.54536 -0.8342,-1.14702 -1.6684,-2.29405 -2.50261,-3.02398 -0.8342,-0.72993 -1.6684,-1.14703 -2.5026,-1.45985 -0.93848,-0.31283 -1.87696,-0.52138 -2.81544,-0.62565 -0.93847,-0.10428 -1.87695,-0.20855 -2.71115,-0.20855 -0.83421,0 -1.56413,0.10427 -2.29406,0.31282 -0.72993,0.20855 -1.56413,0.4171 -2.08551,0.8342 -0.62565,0.4171 -1.04275,1.04276 -1.45985,1.45986 -0.4171,0.4171 -0.93848,0.72992 -1.2513,1.04275 -0.31283,0.31283 -0.4171,0.62565 -0.52138,0.93848 l -0.20855,0.62565 c 0,0.10427 0,0.10427 0.31283,0 0.4171,-0.10428 1.14702,-0.4171 1.87695,-0.72993 0.72993,-0.20855 1.35558,-0.4171 1.87696,-0.62565 0.52137,-0.10427 0.93847,-0.20855 1.35558,-0.31283 0.52137,-0.10427 1.14702,-0.31282 1.6684,-0.4171 0.62565,-0.10427 1.14703,-0.10427 1.6684,0 0.52138,0 0.93848,0.10428 1.35558,0.4171 0.4171,0.20856 0.83421,0.62566 1.25131,0.93848 0.4171,0.31283 0.72992,0.62565 1.04275,0.93848 0.31282,0.31283 0.62565,0.62565 0.93848,1.2513 0.31282,0.52138 0.62565,1.25131 0.8342,1.98123 0.20855,0.72993 0.20855,1.35558 0.20855,2.08551 0,0.72993 -0.20855,1.45985 -0.31283,2.29406 -0.10427,0.8342 0,1.6684 0.20855,2.71115 0.20855,1.04276 0.52138,2.29406 0.93848,3.54536 0.4171,1.25131 0.93848,2.39833 1.45986,3.54536 0.4171,0.93848 0.8342,2.18978 1.45985,3.33681 z" id="path1272"/><path style="stroke-width:1.04275;fill:#ffffff" d="m 273.61835,258.81126 c 0.62565,0.52138 1.04275,1.2513 1.35558,1.98123 0.31283,0.62565 0.4171,1.2513 0.52138,1.45986 0.10427,0.31282 0.10427,0.31282 -0.10428,0.4171 l -0.62565,0.62565 c -0.20855,0.20855 -0.20855,0.20855 -0.4171,0.10427 -0.20855,-0.10427 -0.72993,-0.20855 -1.35558,-0.4171 -0.62565,-0.31282 -1.2513,-0.72992 -1.77268,-1.2513 -0.52138,-0.52138 -0.72993,-1.2513 -0.93848,-1.98123 -0.10427,-0.72993 -0.10427,-1.56413 -0.10427,-1.98123 0,-0.4171 0,-0.4171 0.20855,-0.31283 0.20855,0.10428 0.62565,0.20855 1.2513,0.4171 0.62565,0.20855 1.35558,0.4171 1.98123,0.93848 z" id="path1270"/></g></g><g id="g1256"><path id="path1244" d="m 313.66006,280.29197 c -0.72993,-0.72993 -1.45985,-1.14703 -2.39833,-1.45985 -0.93848,-0.31283 -1.98123,-0.41711 -3.02399,-0.31283 -1.04275,0.10427 -1.98123,0.31283 -2.60688,0.4171 -0.62565,0.10428 -0.8342,0.20855 -0.93847,0.20855 -0.10428,0 -0.10428,0 -0.62566,-0.4171 -0.52137,-0.4171 -1.45985,-1.35558 -2.0855,-1.98123 -0.62565,-0.62565 -0.93848,-1.04275 -1.14703,-1.35558 -0.20855,-0.31282 -0.20855,-0.72993 -0.31283,-0.93848 -0.10427,-0.31282 -0.31282,-0.62565 -0.4171,-0.72992 -0.10427,-0.10428 -0.20855,-0.10428 -0.31282,0.20855 -0.10428,0.31282 -0.31283,0.93847 -0.4171,1.35558 -0.10428,0.4171 -0.10428,0.52137 -0.10428,0.72992 0,0.10428 -0.10427,0.31283 -0.52138,0.8342 -0.4171,0.52138 -1.2513,1.45986 -1.6684,1.98124 -0.4171,0.52137 -0.4171,0.52137 -0.8342,0.31282 -0.4171,-0.10427 -1.35558,-0.31282 -2.18978,-0.52138 -0.83421,-0.10427 -1.66841,-0.20855 -2.39834,-0.20855 -0.72992,0 -1.56412,0.10428 -2.29405,0.31283 -0.72993,0.20855 -1.45986,0.62565 -2.18978,1.14703 -0.62565,0.52137 -1.25131,1.2513 -1.66841,1.87695 -0.4171,0.72993 -0.62565,1.35558 -0.8342,2.08551 -0.20855,0.72993 -0.52138,1.45985 -0.72993,2.39833 -0.20855,0.93848 -0.52137,1.87696 -0.62565,2.39833 -0.10427,0.52138 -0.10427,0.52138 -1.04275,0.72993 -0.93848,0.20855 -2.91971,0.62565 -3.96246,0.8342 -1.04275,0.20855 -1.14703,0.31283 -1.2513,0.31283 -0.10428,0.10427 -0.10428,0.20855 0.4171,0.52137 0.52137,0.4171 1.45985,1.14703 2.18978,1.66841 0.72992,0.62565 1.04275,1.14703 1.2513,1.56413 0.20855,0.52137 0.20855,0.93847 0.10428,1.2513 0,0.4171 -0.10428,0.72993 -0.52138,1.2513 -0.31283,0.52138 -0.93848,1.35558 -1.35558,2.18978 -0.4171,0.83421 -0.52138,1.77268 -0.52138,2.71116 0,0.93848 0,1.77268 0.20856,2.60688 0.20855,0.83421 0.4171,1.66841 0.93847,2.29406 0.4171,0.72993 1.04276,1.2513 1.66841,1.6684 0.52137,0.52138 1.04275,0.83421 1.56413,1.14703 0.52137,0.31283 0.93847,0.52138 1.45985,0.62565 0.52138,0.10428 0.93848,0.20856 1.2513,0.31283 0.31283,0.10428 0.4171,0.10428 0.52138,0.31283 0.10428,0.20855 0.10428,0.4171 0.20855,0.93847 v 1.66841 c 0,0.52137 0.10428,0.8342 0,1.2513 0,0.4171 -0.20855,0.8342 -0.31283,1.14703 -0.20855,0.31283 -0.31282,0.52138 -0.4171,0.72993 -0.10427,0.20855 0,0.20855 0,0.31282 0.10428,0.10428 0.20855,0.20855 0.31283,0.20855 0.10427,0.10428 0.20855,0.10428 0.4171,0.10428 0.10428,0 0.31283,0 0.52138,-0.20855 0.20855,-0.20855 0.52137,-0.52138 0.8342,-0.8342 0.31283,-0.31283 0.72993,-0.52138 1.2513,-0.72993 0.52138,-0.20855 1.14703,-0.4171 1.66841,-0.52138 0.52137,-0.10427 0.8342,-0.10427 1.35558,0.20855 0.52137,0.31283 1.04275,0.83421 1.56413,1.35558 0.52137,0.52138 0.93847,0.93848 1.56412,1.35558 0.62566,0.52138 1.56413,0.93848 2.39834,1.2513 0.8342,0.31283 1.6684,0.4171 2.60688,0.4171 0.93848,0 1.87695,-0.20855 2.5026,-0.31282 0.72993,-0.10428 1.14703,-0.31283 1.66841,-0.62565 0.52138,-0.31283 1.2513,-0.93848 1.87695,-1.45986 0.52138,-0.52137 0.93848,-1.04275 1.25131,-1.45985 0.20855,-0.4171 0.31282,-0.72993 0.4171,-0.93848 0,-0.20855 0,-0.20855 0.31282,-0.10427 0.31283,0 0.93848,0.10427 1.56413,0 0.62566,0 1.25131,-0.10428 1.66841,-0.20855 0.31282,0 0.31282,0 0.4171,0.10427 0.10428,0.20855 0.31283,0.52138 0.72993,0.8342 0.31282,0.31283 0.72992,0.62566 1.04275,0.83421 0.31283,0.20855 0.52138,0.20855 0.62565,0.10427 0.10428,-0.10427 0.20855,-0.20855 0.31283,-0.31282 0.10427,-0.10428 0.10427,-0.10428 0,-0.31283 -0.10428,-0.20855 -0.4171,-0.72993 -0.52138,-1.2513 -0.20855,-0.52138 -0.20855,-1.25131 -0.20855,-1.98123 0,-0.72993 0.20855,-1.56413 0.20855,-2.08551 0.10428,-0.52138 0.10428,-0.72993 0.10428,-0.8342 0,-0.10428 0,-0.10428 0.31282,-0.20855 0.31283,-0.10428 0.8342,-0.31283 1.45986,-0.52138 0.62565,-0.20855 1.14702,-0.4171 1.77268,-0.72993 0.62565,-0.4171 1.14702,-1.04275 1.6684,-1.6684 0.52138,-0.62565 1.04275,-1.2513 1.45985,-1.98123 0.41711,-0.8342 0.62566,-1.77268 0.62566,-2.71116 0,-0.93848 -0.20855,-1.77268 -0.52138,-2.60688 -0.31283,-0.8342 -0.72993,-1.77268 -1.04275,-2.50261 -0.31283,-0.72992 -0.62566,-1.2513 -0.72993,-1.56413 -0.10428,-0.31282 -0.10428,-0.31282 0.10427,-0.72992 0.20856,-0.52138 0.72993,-1.45986 1.25131,-2.18978 0.52137,-0.72993 0.93848,-1.04276 1.35558,-1.35558 0.4171,-0.31283 0.8342,-0.62565 1.14702,-0.83421 0.20856,-0.20855 0.31283,-0.31282 0.31283,-0.4171 -0.10427,-0.10427 -0.31283,-0.10427 -0.8342,0 -0.52138,0 -1.35558,0.10428 -2.08551,0 -0.72992,-0.10427 -1.35558,-0.4171 -1.87695,-0.62565 -0.52138,-0.20855 -1.04276,-0.31282 -1.35558,-0.52137 -0.31283,-0.10428 -0.31283,-0.20856 -0.4171,-0.72993 0,-0.52138 -0.10428,-1.56413 -0.20855,-2.39833 -0.10428,-0.93848 -0.20855,-1.77268 -0.62565,-2.60689 -0.83421,-0.4171 -1.56413,-1.35557 -2.29406,-2.0855 z" style="stroke-width:1.04275"/><path id="path931" d="m 291.86653,281.33472 c 1.04275,-0.31282 2.18978,-0.4171 3.12825,-0.10427 0.93848,0.31282 1.77268,0.93847 2.60689,1.87695 0.8342,0.8342 1.6684,1.98123 1.98123,2.50261 0.4171,0.52137 0.4171,0.52137 0.8342,0.10427 0.4171,-0.52137 1.14703,-1.45985 1.98123,-2.18978 0.72993,-0.72992 1.45985,-1.35558 2.29406,-1.77268 0.8342,-0.4171 1.77268,-0.62565 2.60688,-0.72992 0.8342,0 1.56413,0.10427 2.5026,0.52137 0.93848,0.52138 2.08551,1.25131 2.81544,2.08551 0.72992,0.8342 1.14702,1.77268 1.45985,2.60688 0.31283,0.8342 0.31283,1.6684 0.20855,2.60688 -0.10427,0.8342 -0.4171,1.77268 -0.8342,2.60688 -0.52138,0.83421 -1.14703,1.66841 -1.45985,2.08551 -0.31283,0.4171 -0.10428,0.52138 0.4171,0.62565 0.52137,0.10428 1.56413,0.31283 2.39833,0.62565 0.8342,0.31283 1.56413,0.72993 2.18978,1.45986 0.62565,0.72992 1.04275,1.6684 1.35558,2.5026 0.20855,0.93848 0.31282,1.77268 0.20855,2.71116 -0.10428,0.93848 -0.4171,1.87696 -0.8342,2.81543 -0.41711,0.83421 -0.93848,1.66841 -1.66841,2.18979 -0.62565,0.62565 -1.35558,1.04275 -2.0855,1.45985 -0.72993,0.31282 -1.56413,0.52138 -2.29406,0.52138 -0.72993,0 -1.56413,0 -2.18978,-0.20856 -0.72993,-0.20855 -1.35558,-0.52137 -1.66841,-0.62565 -0.31282,-0.10427 -0.31282,-0.10427 -0.31282,0.31283 0,0.4171 0.10427,1.35558 0,2.29406 -0.10428,0.93847 -0.4171,2.0855 -0.72993,2.81543 -0.31282,0.8342 -0.72993,1.35558 -1.35558,1.77268 -0.62565,0.52137 -1.45985,0.93848 -2.0855,1.14703 -0.72993,0.31282 -1.35558,0.4171 -1.98123,0.52137 -0.62566,0.10428 -1.25131,0.10428 -1.98123,0 -0.72993,0 -1.35558,-0.10427 -2.08551,-0.52137 -0.72993,-0.31283 -1.35558,-0.93848 -1.87695,-1.45986 -0.52138,-0.62565 -1.04276,-1.2513 -1.35558,-1.98123 -0.31283,-0.72993 -0.62566,-1.45985 -0.62566,-2.18978 -0.10427,-0.72993 0,-1.45985 0.10428,-1.87695 v -0.52138 h -0.31283 c -0.20855,0.10427 -0.4171,0.20855 -0.93847,0.4171 -0.62566,0.20855 -1.56413,0.31283 -2.50261,0.4171 -1.04275,0.10428 -2.08551,0.10428 -3.02398,-0.10427 -0.93848,-0.20855 -1.56413,-0.72993 -2.18978,-1.25131 -0.62566,-0.52137 -1.14703,-1.2513 -1.56413,-1.87695 -0.4171,-0.62565 -0.72993,-1.35558 -0.93848,-2.08551 -0.20855,-0.72993 -0.31283,-1.6684 -0.20855,-2.60688 0.10427,-0.93848 0.52137,-1.98123 1.04275,-2.81543 0.52138,-0.72993 1.04275,-1.25131 1.66841,-1.77268 0.62565,-0.52138 1.2513,-0.93848 1.87695,-1.25131 0.52138,-0.20855 1.04275,-0.31282 1.45985,-0.31282 h 1.14703 c 0.20855,0 0.20855,-0.10428 0.20855,-0.31283 0,-0.20855 -0.10427,-0.4171 -0.20855,-0.62565 -0.20855,-0.20855 -0.4171,-0.52138 -0.8342,-0.93848 -0.4171,-0.4171 -0.8342,-0.93847 -1.14703,-1.6684 -0.31282,-0.72993 -0.62565,-1.77268 -0.62565,-2.81543 0,-0.93848 0.20855,-1.87696 0.72993,-2.81544 0.52137,-0.8342 1.14703,-1.6684 2.0855,-2.39833 0.52138,-0.72993 1.56413,-1.35558 2.60689,-1.77268 z" style="stroke-width:1.04275;fill:#ffffff"/><path id="path935" d="m 291.34515,297.70594 c 0,-4.90094 3.96246,-8.96767 8.96767,-8.96767 4.90094,0 8.96768,3.96246 8.96768,8.96767 0,4.90094 -3.96246,8.96768 -8.96768,8.96768 -5.00521,0 -8.96767,-4.06674 -8.96767,-8.96768 z" style="stroke-width:1.04275;fill:#000000"/><circle style="stroke-width:1.04275" class="st4" cx="300.31281" cy="297.70593" r="6.4650674" id="circle943"/><g id="g1240"><path id="path937" d="m 298.01877,280.91762 1.6684,2.50261 0.4171,0.62565 0.20855,-0.20855 c 0.20855,-0.20855 0.72993,-0.72993 1.14703,-1.35558 0.4171,-0.52138 0.8342,-1.2513 1.04275,-1.56413 0.20855,-0.4171 0.31283,-0.52138 0.41711,-0.52138 0,-0.10427 0,-0.10427 -0.41711,-0.72992 l -1.87695,-2.50261 -0.52138,-0.62565 -0.4171,0.62565 -1.6684,2.50261 -0.4171,0.62565 z" class="st3" style="stroke-width:1.04275"/><path id="path939" d="m 286.02711,292.07508 c -0.4171,-0.52138 -1.04275,-0.93848 -1.35558,-1.25131 -0.31282,-0.31282 -0.4171,-0.4171 -0.4171,-0.4171 0,-0.10427 0,-0.10427 -0.72993,0.20855 l -2.81543,1.04275 -0.72993,0.31283 0.52138,0.52138 2.08551,1.98123 0.52137,0.52137 0.72993,-0.20855 2.81543,-0.8342 0.72993,-0.20855 -0.20855,-0.20855 c -0.20855,-0.4171 -0.62565,-0.93848 -1.14703,-1.45985 z" class="st3" style="stroke-width:1.04275"/><path id="path941" d="m 315.32846,290.51095 -1.98123,2.18978 -0.52137,0.52137 0.31282,0.10428 c 0.31283,0.10427 0.93848,0.31283 1.56413,0.52138 0.62565,0.20855 1.35558,0.31282 1.77268,0.4171 0.4171,0.10427 0.52138,0.10427 0.62565,0.20855 0.10428,0 0.10428,0 0.52138,-0.52138 l 1.87696,-2.39833 0.52137,-0.62565 -0.72993,-0.20855 -2.81543,-0.62565 -0.72992,-0.20855 z" class="st3" style="stroke-width:1.04275"/><path id="path945" d="m 292.17935,309.2805 c -0.31282,0.10427 -0.93848,0.20855 -1.6684,0.4171 -0.62565,0.20855 -1.35558,0.4171 -1.77268,0.62565 -0.4171,0.10428 -0.52138,0.20855 -0.62565,0.20855 -0.10428,0 -0.10428,0 -0.20856,0.72993 l -0.31282,3.02398 -0.10428,0.72993 0.72993,-0.20855 2.71116,-0.93848 0.72992,-0.20855 0.10428,-0.72993 0.52138,-2.91971 0.10427,-0.72992 z" class="st3" style="stroke-width:1.04275"/><path id="path947" d="m 308.4463,310.5318 c 0.10427,0.72993 0.20855,1.35558 0.31282,1.77268 0.10428,0.4171 0.10428,0.62565 0.10428,0.62565 0,0.10428 0,0.10428 0.72992,0.31283 l 2.91971,0.8342 0.72993,0.20855 -0.10428,-0.72993 -0.52137,-2.81543 -0.10428,-0.72993 -0.72993,-0.20855 -2.71115,-0.93847 -0.72993,-0.20855 v 0.31282 c 0,0.20855 0,0.93848 0.10428,1.56413 z" class="st3" style="stroke-width:1.04275"/></g></g></g>
</svg>