<svg xmlns:dc="http://purl.org/dc/elements/1.1/" xmlns:cc="http://creativecommons.org/ns#" xmlns:rdf="http://www.w3.org/1999/02/22-rdf-syntax-ns#" xmlns:svg="http://www.w3.org/2000/svg" xmlns="http://www.w3.org/2000/svg" xmlns:sodipodi="http://sodipodi.sourceforge.net/DTD/sodipodi-0.dtd" xmlns:inkscape="http://www.inkscape.org/namespaces/inkscape" inkscape:version="1.0 (4035a4f, 2020-05-01)" sodipodi:docname="Logo Le Havre AC.svg" viewBox="0 0 582.64734 699.99999" height="700" width="582.64734" xml:space="preserve" id="svg833" version="1.1"><metadata id="metadata839"><rdf:RDF><cc:Work rdf:about=""><dc:format>image/svg+xml</dc:format><dc:type rdf:resource="http://purl.org/dc/dcmitype/StillImage"/><dc:title/></cc:Work></rdf:RDF></metadata><defs id="defs837"><linearGradient id="linearGradient873" spreadMethod="pad" gradientTransform="matrix(0,-524.9975,-524.9975,0,458.38313,698.55105)" gradientUnits="userSpaceOnUse" y2="0" x2="1" y1="0" x1="0"><stop id="stop869" offset="0" style="stop-opacity:1;stop-color:#213255"/><stop id="stop871" offset="1" style="stop-opacity:1;stop-color:#13182c"/></linearGradient><linearGradient id="linearGradient893" spreadMethod="pad" gradientTransform="matrix(0,493.32878,493.32878,0,458.38313,189.38788)" gradientUnits="userSpaceOnUse" y2="0" x2="1" y1="0" x1="0"><stop id="stop889" offset="0" style="stop-opacity:1;stop-color:#213255"/><stop id="stop891" offset="1" style="stop-opacity:1;stop-color:#13182c"/></linearGradient><linearGradient id="linearGradient1091" spreadMethod="pad" gradientTransform="matrix(0,31.788019,31.788019,0,415.18289,262.17319)" gradientUnits="userSpaceOnUse" y2="0" x2="1" y1="0" x1="0"><stop id="stop1085" offset="0" style="stop-opacity:1;stop-color:#dadada"/><stop id="stop1087" offset="1" style="stop-opacity:1;stop-color:#ededed"/><stop id="stop1089" offset="1" style="stop-opacity:1;stop-color:#ededed"/></linearGradient><linearGradient id="linearGradient1145" spreadMethod="pad" gradientTransform="matrix(0,32.324609,32.324609,0,441.34467,261.90493)" gradientUnits="userSpaceOnUse" y2="0" x2="1" y1="0" x1="0"><stop id="stop1139" offset="0" style="stop-opacity:1;stop-color:#dadada"/><stop id="stop1141" offset="1" style="stop-opacity:1;stop-color:#ededed"/><stop id="stop1143" offset="1" style="stop-opacity:1;stop-color:#ededed"/></linearGradient><linearGradient id="linearGradient1199" spreadMethod="pad" gradientTransform="matrix(0,31.788019,31.788019,0,473.41271,262.17319)" gradientUnits="userSpaceOnUse" y2="0" x2="1" y1="0" x1="0"><stop id="stop1193" offset="0" style="stop-opacity:1;stop-color:#dadada"/><stop id="stop1195" offset="1" style="stop-opacity:1;stop-color:#ededed"/><stop id="stop1197" offset="1" style="stop-opacity:1;stop-color:#ededed"/></linearGradient><linearGradient id="linearGradient1253" spreadMethod="pad" gradientTransform="matrix(0,32.056313,32.056313,0,498.41326,262.17319)" gradientUnits="userSpaceOnUse" y2="0" x2="1" y1="0" x1="0"><stop id="stop1247" offset="0" style="stop-opacity:1;stop-color:#dadada"/><stop id="stop1249" offset="1" style="stop-opacity:1;stop-color:#ededed"/><stop id="stop1251" offset="1" style="stop-opacity:1;stop-color:#ededed"/></linearGradient></defs><sodipodi:namedview inkscape:current-layer="g841" inkscape:window-maximized="0" inkscape:window-y="0" inkscape:window-x="0" inkscape:cy="401.39626" inkscape:cx="260.96775" inkscape:zoom="0.97637457" showgrid="false" id="namedview835" inkscape:window-height="900" inkscape:window-width="1440" inkscape:pageshadow="2" inkscape:pageopacity="0" guidetolerance="10" gridtolerance="10" objecttolerance="10" borderopacity="1" bordercolor="#666666" pagecolor="#ffffff"/><g transform="matrix(1.3333333,0,0,-1.3333333,-319.85346,931.40133)" inkscape:label="Logo Le Havre AC" inkscape:groupmode="layer" id="g841"><g id="g2106"><path d="m 248.93287,636.56784 c 0.3373,-0.13117 -76.07077,-319.50624 209.45134,-463.01683 v 0 c 285.52212,143.51059 209.1103,462.88566 209.4476,463.01683 v 0 c -99.87615,14.27123 -209.4476,61.98318 -209.4476,61.98318 v 0 c 0,0 -109.57519,-47.71195 -209.45134,-61.98318" style="fill:url(#linearGradient873);stroke:none;stroke-width:3.7477" id="path875"/><path d="m 261.57011,624.47027 c 0.31481,-0.12367 -71.48734,-300.22808 196.8141,-435.08149 v 0 c 268.2977,134.85341 196.49555,434.95782 196.81411,435.08149 v 0 c -93.8536,13.41301 -196.81411,58.24672 -196.81411,58.24672 v 0 c 0,0 -102.96425,-44.83371 -196.8141,-58.24672" style="fill:url(#linearGradient893);stroke:none;stroke-width:3.7477" id="path895"/><path id="path907" style="fill:#89c2eb;fill-opacity:1;fill-rule:nonzero;stroke:none;stroke-width:3.7477" d="m 277.76804,461.44017 c 0.59214,-3.60154 1.22924,-7.22556 1.93006,-10.87582 9.43296,-49.01239 27.38069,-93.16777 53.35223,-131.24438 30.61869,-44.88243 72.75781,-81.71106 125.33426,-109.5527 V 487.0257 c -65.88827,0 -127.61286,-9.32427 -180.61655,-25.58553"/><path id="path911" style="fill:none;stroke:#ca9e67;stroke-width:6.77584;stroke-linecap:butt;stroke-linejoin:miter;stroke-miterlimit:10;stroke-dasharray:none;stroke-opacity:1" d="m 640.2881,609.13282 c -78.23319,13.21813 -157.94298,44.70629 -181.90576,54.64518 -23.95903,-9.93889 -103.67257,-41.42705 -181.90576,-54.64518 -4.42603,-26.44001 -10.68844,-82.11956 -0.0974,-146.4413 53.41219,16.38494 115.60898,25.78042 182.0032,25.78042 66.39422,0 128.59476,-9.39548 182.0032,-25.78042 10.59099,64.32174 4.32859,120.00129 -0.0974,146.4413 z"/><path id="path915" style="fill:none;stroke:#ca9e67;stroke-width:6.77584;stroke-linecap:butt;stroke-linejoin:miter;stroke-miterlimit:10;stroke-dasharray:none;stroke-opacity:1" d="m 276.37951,462.6934 c 0.59588,-3.62777 1.23674,-7.27803 1.94506,-10.95827 9.50416,-49.39091 27.59429,-93.88733 53.76447,-132.25251 30.85105,-45.23097 73.31247,-82.34067 126.29367,-110.39594 52.98121,28.05527 95.44262,65.16497 126.29742,110.39594 26.17017,38.36518 44.25656,82.8616 53.76073,132.25251 0.70831,3.68024 1.34917,7.3305 1.94505,10.95827 -53.40844,16.38494 -115.60898,25.78041 -182.0032,25.78041 -66.39422,0 -128.59101,-9.39547 -182.0032,-25.78041 z"/></g><g id="g2111"><path d="M 382.09608,600.71361 V 552.10222 H 343.3861 v 48.61139 h -19.55548 v -94.9854 h 19.55548 v 28.91724 h 38.70998 v -28.91724 h 19.55923 v 94.9854 z" style="fill:#ffffff;stroke:none;stroke-width:3.7477" id="path935"/><path id="path1571" style="fill:#ffffff;stroke:none;stroke-width:3.7477" d="m 458.20748,601.55346 -41.76416,-95.82569 h 18.8584 l 4.46777,10.75635 h 38.55176 l 4.46777,-10.75635 h 18.8584 l -41.76416,95.82569 z m 0.83789,-35.20313 12.71045,-33.52294 h -25.4209 z" sodipodi:nodetypes="ccccccccccccc"/><path d="m 507.28043,552.66063 c 0,-27.75545 20.93839,-48.19165 47.2847,-48.19165 v 0 c 17.69663,0 30.40133,8.00884 38.37268,20.71353 v 0 l -14.72845,10.35489 c -5.13435,-8.00508 -11.75278,-13.80652 -23.64423,-13.80652 v 0 c -16.61729,0 -27.8304,13.39053 -27.8304,30.92975 v 0 c 0,17.53923 11.21311,30.65617 27.8304,30.65617 v 0 c 10.53853,0 17.96647,-5.11186 22.29131,-12.29245 v 0 l 14.45862,10.4973 c -8.24119,13.11695 -20.13263,19.19196 -36.74993,19.19196 v 0 c -26.34631,0 -47.2847,-20.29753 -47.2847,-48.05298" style="fill:#ffffff;stroke:none;stroke-width:3.7477" id="path1039"/></g><g id="g2121"><path d="m 414.91467,293.96079 -6.78334,-5.89138 v -7.81395 l 6.78334,5.89138 v -23.97402 h 7.323 v 31.78797 z" style="fill:url(#linearGradient1091);stroke:none;stroke-width:3.7477" id="path1093"/><path d="m 430.98854,284.80892 c 0,-3.43664 2.13994,-5.35547 3.25675,-6.29614 v 0 c -1.20676,-0.97815 -3.57155,-2.85574 -3.57155,-6.83205 v 0 c 0,-6.60719 4.82328,-9.774 10.66969,-9.774 v 0 c 5.85016,0 10.6697,3.16681 10.6697,9.774 v 0 c 0,3.97631 -2.36105,5.8539 -3.57156,6.83205 v 0 c 1.11682,0.94067 3.2605,2.8595 3.2605,6.29614 v 0 c 0,6.02629 -4.91323,9.41796 -10.35864,9.41796 v 0 c -5.44915,0 -10.35489,-3.39167 -10.35489,-9.41796 m 7.31926,-0.22487 c 0,1.69771 1.34167,3.03564 3.03563,3.03564 v 0 c 1.69771,0 3.03939,-1.33793 3.03939,-3.03564 v 0 c 0,-1.69396 -1.34168,-3.03563 -3.03939,-3.03563 v 0 c -1.69396,0 -3.03563,1.34167 -3.03563,3.03563 m -0.31106,-12.71968 c 0,1.82513 1.51782,3.34294 3.34669,3.34294 v 0 c 1.83263,0 3.35044,-1.51781 3.35044,-3.34294 v 0 c 0,-1.83263 -1.51781,-3.35045 -3.35044,-3.35045 v 0 c -1.82887,0 -3.34669,1.51782 -3.34669,3.35045" style="fill:url(#linearGradient1145);stroke:none;stroke-width:3.7477" id="path1147"/><path d="m 414.91504,262.17319 v 23.97402 l -6.78708,-5.89138 v 7.8102 l 6.78708,5.89513 h 7.323 v -31.78797 z" style="opacity:0.5;fill:none;stroke:#ffffff;stroke-width:0.966906;stroke-linecap:butt;stroke-linejoin:miter;stroke-miterlimit:10;stroke-dasharray:none;stroke-opacity:1" id="path1115"/><path d="m 462.51793,293.96079 v -11.60662 h 6.96697 v 4.99943 h 6.78333 l -9.90891,-25.18078 h 8.03506 l 9.91266,25.18078 v 6.60719 z" style="fill:url(#linearGradient1199);stroke:none;stroke-width:3.7477" id="path1201"/><path d="m 441.34456,287.62081 c -1.69771,0 -3.03564,-1.33793 -3.03564,-3.03564 0,-1.6977 1.33793,-3.03563 3.03564,-3.03563 1.69771,0 3.03564,1.33793 3.03564,3.03563 0,1.69771 -1.33793,3.03564 -3.03564,3.03564 z m 0,-12.41238 c -1.83262,0 -3.35044,-1.51781 -3.35044,-3.34669 0,-1.83262 1.51782,-3.35044 3.35044,-3.35044 1.82888,0 3.35044,1.51782 3.35044,3.35044 0,1.82888 -1.52156,3.34669 -3.35044,3.34669 z m 0,-13.30432 c -5.85016,0 -10.6697,3.17055 -10.6697,9.77774 0,3.97256 2.3648,5.85016 3.57156,6.83205 -1.11681,0.93693 -3.2605,2.85575 -3.2605,6.29614 0,6.02629 4.91323,9.41796 10.35864,9.41796 5.44541,0 10.35864,-3.39167 10.35864,-9.41796 0,-3.44039 -2.14369,-5.35921 -3.2605,-6.29614 1.20676,-0.98189 3.57156,-2.85949 3.57156,-6.83205 0,-6.60719 -4.81954,-9.77774 -10.6697,-9.77774 z" style="opacity:0.5;fill:none;stroke:#ffffff;stroke-width:0.966906;stroke-linecap:butt;stroke-linejoin:miter;stroke-miterlimit:10;stroke-dasharray:none;stroke-opacity:1" id="path1169"/><path d="m 488.18966,284.54283 h 7.323 c 0,2.45474 1.60401,3.07686 2.94569,3.07686 v 0 c 1.87385,0 2.85949,-1.20301 2.85949,-2.94194 v 0 c 0,-1.34543 -0.44972,-2.14744 -1.61151,-3.39917 v 0 l -11.51667,-12.49857 v -6.60719 h 20.44744 v 6.60719 h -11.52043 l 7.58909,8.03881 c 2.54844,2.67586 3.93134,4.45976 3.93134,7.81021 v 0 c 0,5.98507 -4.28362,9.59785 -10.17875,9.59785 v 0 c -5.53535,0 -10.26869,-3.43664 -10.26869,-9.68405" style="fill:url(#linearGradient1253);stroke:none;stroke-width:3.7477" id="path1255"/><path d="m 474.3955,262.17319 h -8.03506 l 9.90891,25.18078 h -6.78333 v -4.99943 h -6.96697 v 11.60662 h 21.78911 v -6.60719 z" style="opacity:0.5;fill:none;stroke:#ffffff;stroke-width:0.966906;stroke-linecap:butt;stroke-linejoin:miter;stroke-miterlimit:10;stroke-dasharray:none;stroke-opacity:1" id="path1223"/><path d="m 488.18928,262.17319 v 6.60719 l 11.52042,12.50232 c 1.15804,1.24798 1.60777,2.05374 1.60777,3.39167 0,1.74268 -0.98565,2.94569 -2.8595,2.94569 -1.33793,0 -2.94569,-0.62587 -2.94569,-3.08061 h -7.323 c 0,6.25116 4.73334,9.69155 10.26869,9.69155 5.89513,0 10.17875,-3.62028 10.17875,-9.6016 0,-3.3467 -1.3829,-5.13435 -3.92759,-7.81395 l -7.58909,-8.03507 h 11.51668 v -6.60719 z" style="opacity:0.5;fill:none;stroke:#ffffff;stroke-width:0.966906;stroke-linecap:butt;stroke-linejoin:miter;stroke-miterlimit:10;stroke-dasharray:none;stroke-opacity:1" id="path1277"/></g><g id="g2141"><path id="path1291" style="fill:#ffffff;fill-opacity:1;fill-rule:evenodd;stroke:none;stroke-width:3.7477" d="m 432.92498,459.36694 c -0.54342,-0.54342 -1.08308,-1.08308 -1.6265,-1.6265 -0.61837,1.55155 0.39726,6.64467 0.81325,8.01632 v 0.11618 c -2.63088,-0.71206 -5.89138,-3.17804 -7.43543,-5.11186 -0.77578,-0.9669 -1.5478,-1.93756 -2.32358,-2.90446 -0.19488,4.49349 -0.38601,8.98323 -0.58089,13.47672 -1.02312,-0.50594 -2.06873,-0.63711 -2.90446,-1.27797 -2.99816,-2.30108 -5.15309,-8.57098 -5.80894,-13.012 -0.0787,-0.0375 -0.15365,-0.0787 -0.23235,-0.11618 -1.61151,6.04504 -4.4785,11.75653 -10.3399,13.70908 0.17989,-4.28362 1.15054,-8.60097 0.92943,-12.89583 -1.16179,1.31544 -2.32358,2.63463 -3.48536,3.95007 -1.92632,1.53656 -4.04377,2.83326 -6.38983,3.95008 -0.62961,-1.8701 1.04561,-5.52036 1.04561,-8.13251 -0.73455,0.61837 -1.47284,1.24049 -2.20739,1.85886 -0.0787,0.0787 -0.15366,0.15366 -0.23236,0.23236 h -0.11618 c 0.33729,-3.41416 1.67147,-5.56533 2.43975,-8.59722 0.31106,-1.89634 0.61837,-3.79642 0.92943,-5.69275 v -0.23236 c 11.30681,1.15804 23.26571,2.99816 33.92416,-0.5809 0.34854,1.74268 0.69707,3.48536 1.04561,5.22804 1.07559,3.669 2.41727,6.16497 3.36918,10.10754 -0.26983,-0.15365 -0.54342,-0.31105 -0.81325,-0.46471"/><path id="path1319" style="fill:#ffffff;fill-opacity:1;fill-rule:evenodd;stroke:none;stroke-width:3.7477" d="m 481.83618,439.84818 c 2.30483,0.0412 5.43791,0.30356 7.20308,-0.46471 v -0.11618 c -3.43664,-0.19114 -9.14814,-2.19241 -10.80462,-4.41479 6.64842,1.03436 16.17507,2.78829 23.35191,0.69707 2.06123,-0.59963 3.69523,-1.70145 5.46039,-2.43975 v -0.11618 c -4.12246,-0.0562 -7.78396,-1.32668 -10.68843,-2.78829 -4.91323,-2.47348 -8.59347,-6.05253 -13.01201,-8.82957 -7.23305,-4.54221 -20.98711,-8.08004 -31.36823,-4.18243 -2.94569,1.10557 -6.23617,2.37604 -8.01632,4.64714 10.20498,0.80201 13.36429,8.32739 20.0989,12.54729 3.45163,2.16243 7.58909,3.70648 12.08258,4.76333 1.89633,0.23236 3.79641,0.46471 5.69275,0.69707"/><path d="m 432.92498,459.36694 c -0.54342,-0.54342 -1.08308,-1.08308 -1.6265,-1.6265 -0.61837,1.55155 0.39726,6.64467 0.81325,8.01632 v 0.11618 c -2.63088,-0.71206 -5.89138,-3.17804 -7.43543,-5.11186 -0.77578,-0.9669 -1.5478,-1.93756 -2.32358,-2.90446 -0.19488,4.49349 -0.38601,8.98323 -0.58089,13.47672 -1.02312,-0.50594 -2.06873,-0.63711 -2.90446,-1.27797 -2.99816,-2.30108 -5.15309,-8.57098 -5.80894,-13.012 -0.0787,-0.0375 -0.15365,-0.0787 -0.23235,-0.11618 -1.61151,6.04504 -4.4785,11.75653 -10.3399,13.70908 0.17989,-4.28362 1.15054,-8.60097 0.92943,-12.89583 -1.16179,1.31544 -2.32358,2.63463 -3.48536,3.95007 -1.92632,1.53656 -4.04377,2.83326 -6.38983,3.95008 -0.62961,-1.8701 1.04561,-5.52036 1.04561,-8.13251 -0.73455,0.61837 -1.47284,1.24049 -2.20739,1.85886 -0.0787,0.0787 -0.15366,0.15366 -0.23236,0.23236 h -0.11618 c 0.33729,-3.41416 1.67147,-5.56533 2.43975,-8.59722 0.31106,-1.89634 0.61837,-3.79642 0.92943,-5.69275 v -0.23236 c 11.30681,1.15804 23.26571,2.99816 33.92416,-0.5809 0.34854,1.74268 0.69707,3.48536 1.04561,5.22804 1.07559,3.669 2.41727,6.16497 3.36918,10.10754 -0.26983,-0.15365 -0.54342,-0.31105 -0.81325,-0.46471 z" style="opacity:0.5;fill:none;stroke:#ffffff;stroke-width:0.966906;stroke-linecap:butt;stroke-linejoin:miter;stroke-miterlimit:5;stroke-dasharray:none;stroke-opacity:1" id="path1305"/><path id="path1347" style="fill:#ffffff;fill-opacity:1;fill-rule:evenodd;stroke:none;stroke-width:3.7477" d="m 410.03704,430.78662 c 0.25859,-6.23242 -7.61532,-3.8264 -7.66779,1.16179 2.88573,-0.0637 5.08937,-0.91444 7.66779,-1.16179 m 147.78297,-65.40857 c -0.83948,2.73957 -1.96754,5.42667 -3.37293,7.66779 -0.9669,1.31544 -1.93381,2.63088 -2.90446,3.95007 -1.00064,0.817 0.60712,1.90383 1.27796,2.78829 -2.16991,2.12869 -5.55783,5.10436 -8.59347,6.15747 0.42349,1.24048 0.85073,2.47723 1.27422,3.71771 -4.21241,1.19927 -8.63845,3.05812 -13.58915,3.48536 0.15365,1.7052 0.30731,3.40666 0.46096,5.11186 -4.59468,1.2255 -10.66969,-0.007 -15.21565,-0.23236 -0.11993,1.93382 -0.23611,3.87138 -0.35228,5.80894 -3.0956,-0.50219 -6.19495,-1.00813 -9.29055,-1.51033 -3.29422,-0.89195 -6.5847,-1.78015 -9.87893,-2.6721 -0.26983,2.05373 -0.53967,4.10373 -0.8095,6.15746 -2.05374,-0.46471 -4.10748,-0.92943 -6.16122,-1.39414 -4.21991,-1.26672 -8.42857,-2.73207 -12.31493,-4.41479 -0.38602,2.04999 -0.77203,4.10373 -1.16179,6.15747 -3.44413,-1.08309 -6.89202,-2.16992 -10.3399,-3.253 -2.90446,-1.24049 -5.80893,-2.47723 -8.7134,-3.71772 -0.26983,1.58528 -0.53966,3.1743 -0.81325,4.76333 -7.42419,-0.83949 -15.1332,-5.10812 -21.26069,-7.78397 -0.19113,0.9669 -0.38601,1.93756 -0.58089,2.90446 -16.24627,-2.43225 -23.1158,-15.29435 -37.99041,-19.05329 -13.70908,-3.46288 -20.30503,6.91075 -22.65484,16.72972 -0.49094,2.05749 -1.15429,5.2093 -0.69707,7.90015 1.4616,8.6272 4.94322,12.89957 13.12819,14.75468 1.94505,0.43848 5.25427,0.61837 7.08689,-0.11617 4.07375,-1.63025 5.74148,-6.01881 10.45608,-7.0869 6.64467,-1.50658 23.84286,0.52468 25.09459,4.76332 -1.66773,1.42788 -5.39669,1.24799 -7.78397,1.85886 -2.45849,0.62587 -5.93261,2.31983 -7.78397,3.8339 h -0.23236 c 1.34543,0.54716 3.84139,0.23235 5.57658,0.23235 5.49787,0 10.32116,-0.10119 13.82525,1.97504 1.21801,0.71956 2.36105,1.1393 2.43976,3.02064 -2.24488,2.3723 -6.16122,3.42165 -9.41047,4.76333 -7.03818,2.90072 -13.33431,5.07063 -23.81662,4.8795 -1.35292,-0.11618 -2.70959,-0.23236 -4.06626,-0.34854 -2.5934,-0.42723 -5.19056,-0.85072 -7.78396,-1.27796 -11.04822,-2.75831 -20.31253,-6.46853 -26.02402,-14.52233 -2.63838,-3.72521 -4.45226,-8.25993 -5.80893,-13.24436 -2.48847,-9.14064 -0.74204,-21.11453 2.09121,-28.34759 7.96386,-20.33126 27.86414,-29.37071 54.13925,-31.36823 2.13244,-3.18929 -1.61901,-6.73836 -3.13682,-8.94576 -1.92257,-2.79953 -4.10748,-6.90326 -6.97072,-8.71339 -1.43162,-0.35229 -2.86699,-0.69708 -4.29861,-1.04561 -4.34358,-1.35667 -9.30928,-3.95008 -11.15315,-7.78397 -0.19488,-0.19488 -0.38601,-0.38976 -0.58089,-0.58089 2.95318,0.43098 5.28425,1.88884 8.71339,1.85885 0.86947,-1.84761 -0.20237,-5.46789 -0.81325,-7.20307 4.29861,1.7914 7.71651,6.15747 12.89583,6.85454 1.01563,-0.97815 1.04561,-2.73207 0.81325,-4.64715 2.43226,0.77578 7.06816,2.58591 8.13251,4.76333 0.87696,2.16617 -2.20365,4.3848 -3.48536,4.99568 1.46535,9.89017 11.03322,12.89208 18.00769,17.42679 -1.01938,5.16433 -2.40977,7.76523 -1.16179,14.05762 0.15365,-0.10494 1.50657,-4.55345 1.85886,-5.11186 1.94505,-3.06937 5.61405,-6.14623 9.06193,-7.66779 3.57905,-1.58153 11.22436,-1.86261 15.91647,-0.93318 11.29931,2.24862 20.79223,5.86515 30.20645,9.87893 3.17055,-2.73582 5.54284,-6.28863 10.22372,-7.55161 -2.09122,-5.84641 -4.18243,-11.69656 -6.27365,-17.54297 -6.25116,-2.1137 -12.43861,-3.41041 -15.10322,-8.94576 -0.11618,-0.11618 -0.23236,-0.23235 -0.34854,-0.34853 2.84825,0.52093 5.40418,1.74642 8.7134,1.74268 1.11307,-2.05374 -0.43098,-5.01068 -0.69707,-6.97072 4.37731,1.57778 7.6528,5.91761 12.66347,6.73461 1.32294,-0.76078 1.0606,-2.77329 0.92943,-4.6434 2.39103,1.1543 6.97447,2.5297 8.13625,4.87951 1.00439,2.58216 -3.88261,6.47602 -5.80893,6.85454 0.22486,8.76586 10.26869,17.16445 15.68412,21.26069 -0.41225,1.55154 -1.98254,2.78079 -2.79204,4.06625 -3.23051,5.13434 -5.56158,11.37426 -3.24925,18.70476 0.075,0.0375 0.15365,0.0787 0.23235,0.11618 0.22112,-4.72585 2.42477,-10.06632 6.15372,-11.26933 7.00445,1.8701 18.86966,-0.3223 21.37687,-4.18243 1.47285,-2.25986 0.87322,-6.18745 -0.34478,-8.24868 -3.42165,-5.7827 -13.54793,-4.98069 -22.77476,-4.87951 -2.94944,-2.18865 -5.46415,-5.91012 -6.85454,-9.64282 v -0.11618 c 6.88077,-0.0187 10.99199,-1.58528 19.16947,-2.2074 8.18122,-0.62211 13.75405,0.88446 16.49737,2.09122 8.7921,3.86013 17.19443,16.16382 13.01575,29.85791"/><path d="m 481.83618,439.84818 c 2.30483,0.0412 5.43791,0.30356 7.20308,-0.46471 v -0.11618 c -3.43664,-0.19114 -9.14814,-2.19241 -10.80462,-4.41479 6.64842,1.03436 16.17507,2.78829 23.35191,0.69707 2.06123,-0.59963 3.69523,-1.70145 5.46039,-2.43975 v -0.11618 c -4.12246,-0.0562 -7.78396,-1.32668 -10.68843,-2.78829 -4.91323,-2.47348 -8.59347,-6.05253 -13.01201,-8.82957 -7.23305,-4.54221 -20.98711,-8.08004 -31.36823,-4.18243 -2.94569,1.10557 -6.23617,2.37604 -8.01632,4.64714 10.20498,0.80201 13.36429,8.32739 20.0989,12.54729 3.45163,2.16243 7.58909,3.70648 12.08258,4.76333 1.89633,0.23236 3.79641,0.46471 5.69275,0.69707 z" style="opacity:0.5;fill:none;stroke:#f6f6f6;stroke-width:0.966906;stroke-linecap:butt;stroke-linejoin:miter;stroke-miterlimit:5;stroke-dasharray:none;stroke-opacity:1" id="path1333"/><path id="path1375" style="fill:#f6f6f6;fill-opacity:1;fill-rule:evenodd;stroke:none;stroke-width:3.7477" d="m 493.45442,344.34822 c -1.13555,-2.40602 -2.22613,-5.15308 -2.78829,-8.1325 -14.35743,0.77952 -30.48752,0.70082 -40.7787,-3.71772 -3.58654,-1.5403 -7.88515,-3.56406 -8.36486,-8.13251 h -0.11618 c -0.53592,6.00007 3.00566,8.04631 6.62218,10.22372 8.60472,5.17932 25.36068,7.56286 32.18149,8.59722 6.82081,1.03437 12.97453,1.19927 13.24436,1.16179"/><path d="m 410.03704,430.78662 c 0.25859,-6.23242 -7.61532,-3.8264 -7.66779,1.16179 2.88573,-0.0637 5.08937,-0.91444 7.66779,-1.16179 z m 147.78297,-65.40857 c -0.83948,2.73957 -1.96754,5.42667 -3.37293,7.66779 -0.9669,1.31544 -1.93381,2.63088 -2.90446,3.95007 -1.00064,0.817 0.60712,1.90383 1.27796,2.78829 -2.16991,2.12869 -5.55783,5.10436 -8.59347,6.15747 0.42349,1.24048 0.85073,2.47723 1.27422,3.71771 -4.21241,1.19927 -8.63845,3.05812 -13.58915,3.48536 0.15365,1.7052 0.30731,3.40666 0.46096,5.11186 -4.59468,1.2255 -10.66969,-0.007 -15.21565,-0.23236 -0.11993,1.93382 -0.23611,3.87138 -0.35228,5.80894 -3.0956,-0.50219 -6.19495,-1.00813 -9.29055,-1.51033 -3.29422,-0.89195 -6.5847,-1.78015 -9.87893,-2.6721 -0.26983,2.05373 -0.53967,4.10373 -0.8095,6.15746 -2.05374,-0.46471 -4.10748,-0.92943 -6.16122,-1.39414 -4.21991,-1.26672 -8.42857,-2.73207 -12.31493,-4.41479 -0.38602,2.04999 -0.77203,4.10373 -1.16179,6.15747 -3.44413,-1.08309 -6.89202,-2.16992 -10.3399,-3.253 -2.90446,-1.24049 -5.80893,-2.47723 -8.7134,-3.71772 -0.26983,1.58528 -0.53966,3.1743 -0.81325,4.76333 -7.42419,-0.83949 -15.1332,-5.10812 -21.26069,-7.78397 -0.19113,0.9669 -0.38601,1.93756 -0.58089,2.90446 -16.24627,-2.43225 -23.1158,-15.29435 -37.99041,-19.05329 -13.70908,-3.46288 -20.30503,6.91075 -22.65484,16.72972 -0.49094,2.05749 -1.15429,5.2093 -0.69707,7.90015 1.4616,8.6272 4.94322,12.89957 13.12819,14.75468 1.94505,0.43848 5.25427,0.61837 7.08689,-0.11617 4.07375,-1.63025 5.74148,-6.01881 10.45608,-7.0869 6.64467,-1.50658 23.84286,0.52468 25.09459,4.76332 -1.66773,1.42788 -5.39669,1.24799 -7.78397,1.85886 -2.45849,0.62587 -5.93261,2.31983 -7.78397,3.8339 h -0.23236 c 1.34543,0.54716 3.84139,0.23235 5.57658,0.23235 5.49787,0 10.32116,-0.10119 13.82525,1.97504 1.21801,0.71956 2.36105,1.1393 2.43976,3.02064 -2.24488,2.3723 -6.16122,3.42165 -9.41047,4.76333 -7.03818,2.90072 -13.33431,5.07063 -23.81662,4.8795 -1.35292,-0.11618 -2.70959,-0.23236 -4.06626,-0.34854 -2.5934,-0.42723 -5.19056,-0.85072 -7.78396,-1.27796 -11.04822,-2.75831 -20.31253,-6.46853 -26.02402,-14.52233 -2.63838,-3.72521 -4.45226,-8.25993 -5.80893,-13.24436 -2.48847,-9.14064 -0.74204,-21.11453 2.09121,-28.34759 7.96386,-20.33126 27.86414,-29.37071 54.13925,-31.36823 2.13244,-3.18929 -1.61901,-6.73836 -3.13682,-8.94576 -1.92257,-2.79953 -4.10748,-6.90326 -6.97072,-8.71339 -1.43162,-0.35229 -2.86699,-0.69708 -4.29861,-1.04561 -4.34358,-1.35667 -9.30928,-3.95008 -11.15315,-7.78397 -0.19488,-0.19488 -0.38601,-0.38976 -0.58089,-0.58089 2.95318,0.43098 5.28425,1.88884 8.71339,1.85885 0.86947,-1.84761 -0.20237,-5.46789 -0.81325,-7.20307 4.29861,1.7914 7.71651,6.15747 12.89583,6.85454 1.01563,-0.97815 1.04561,-2.73207 0.81325,-4.64715 2.43226,0.77578 7.06816,2.58591 8.13251,4.76333 0.87696,2.16617 -2.20365,4.3848 -3.48536,4.99568 1.46535,9.89017 11.03322,12.89208 18.00769,17.42679 -1.01938,5.16433 -2.40977,7.76523 -1.16179,14.05762 0.15365,-0.10494 1.50657,-4.55345 1.85886,-5.11186 1.94505,-3.06937 5.61405,-6.14623 9.06193,-7.66779 3.57905,-1.58153 11.22436,-1.86261 15.91647,-0.93318 11.29931,2.24862 20.79223,5.86515 30.20645,9.87893 3.17055,-2.73582 5.54284,-6.28863 10.22372,-7.55161 -2.09122,-5.84641 -4.18243,-11.69656 -6.27365,-17.54297 -6.25116,-2.1137 -12.43861,-3.41041 -15.10322,-8.94576 -0.11618,-0.11618 -0.23236,-0.23235 -0.34854,-0.34853 2.84825,0.52093 5.40418,1.74642 8.7134,1.74268 1.11307,-2.05374 -0.43098,-5.01068 -0.69707,-6.97072 4.37731,1.57778 7.6528,5.91761 12.66347,6.73461 1.32294,-0.76078 1.0606,-2.77329 0.92943,-4.6434 2.39103,1.1543 6.97447,2.5297 8.13625,4.87951 1.00439,2.58216 -3.88261,6.47602 -5.80893,6.85454 0.22486,8.76586 10.26869,17.16445 15.68412,21.26069 -0.41225,1.55154 -1.98254,2.78079 -2.79204,4.06625 -3.23051,5.13434 -5.56158,11.37426 -3.24925,18.70476 0.075,0.0375 0.15365,0.0787 0.23235,0.11618 0.22112,-4.72585 2.42477,-10.06632 6.15372,-11.26933 7.00445,1.8701 18.86966,-0.3223 21.37687,-4.18243 1.47285,-2.25986 0.87322,-6.18745 -0.34478,-8.24868 -3.42165,-5.7827 -13.54793,-4.98069 -22.77476,-4.87951 -2.94944,-2.18865 -5.46415,-5.91012 -6.85454,-9.64282 v -0.11618 c 6.88077,-0.0187 10.99199,-1.58528 19.16947,-2.2074 8.18122,-0.62211 13.75405,0.88446 16.49737,2.09122 8.7921,3.86013 17.19443,16.16382 13.01575,29.85791 z" style="opacity:0.5;fill:none;stroke:#ffffff;stroke-width:0.966906;stroke-linecap:butt;stroke-linejoin:miter;stroke-miterlimit:5;stroke-dasharray:none;stroke-opacity:1" id="path1361"/><path id="path1403" style="fill:#ededed;fill-opacity:1;fill-rule:evenodd;stroke:none;stroke-width:3.7477" d="m 447.90078,421.06996 c 0,0 12.50607,-7.42419 25.81789,-1.85511 13.31182,5.56533 15.73284,11.05196 21.62422,12.50607 -3.18929,-0.16115 -8.52227,-2.95694 -17.26565,-7.28927 -8.74712,-4.33234 -12.82837,-5.29925 -18.07514,-5.29925 -5.24303,0 -12.10132,1.93756 -12.10132,1.93756"/><path d="m 493.45442,344.34822 c -1.13555,-2.40602 -2.22613,-5.15308 -2.78829,-8.1325 -14.35743,0.77952 -30.48752,0.70082 -40.7787,-3.71772 -3.58654,-1.5403 -7.88515,-3.56406 -8.36486,-8.13251 h -0.11618 c -0.53592,6.00007 3.00566,8.04631 6.62218,10.22372 8.60472,5.17932 25.36068,7.56286 32.18149,8.59722 6.82081,1.03437 12.97453,1.19927 13.24436,1.16179 z" style="opacity:0.5;fill:none;stroke:#ffffff;stroke-width:0.966906;stroke-linecap:butt;stroke-linejoin:miter;stroke-miterlimit:5;stroke-dasharray:none;stroke-opacity:1" id="path1389"/><path id="path1407" style="fill:#ededed;fill-opacity:1;fill-rule:evenodd;stroke:none;stroke-width:3.7477" d="m 530.05069,333.89814 c 0,0 18.58109,-0.68208 24.39002,12.62974 -0.12368,2.02001 -2.33107,-2.6084 -9.15563,-7.27428 -10.17875,-5.34047 -15.23439,-5.35546 -15.23439,-5.35546"/><path id="path1411" style="fill:#ededed;fill-opacity:1;fill-rule:evenodd;stroke:none;stroke-width:3.7477" d="m 391.28506,322.58721 c 0,0 4.72959,5.00318 10.41485,5.88763 5.68901,0.88446 1.66773,-1.6977 0.43474,-1.99752 -1.2255,-0.29607 -7.8177,-1.75017 -10.84959,-3.89011"/><path id="path1415" style="fill:#ededed;fill-opacity:1;fill-rule:evenodd;stroke:none;stroke-width:3.7477" d="m 480.25353,323.36636 c 0,0 4.05126,3.38792 8.83332,4.75583 3.39917,0.97065 3.15182,-0.59214 1.89634,-1.04561 -5.20555,-1.8776 -6.37109,-2.01626 -10.72966,-3.71022"/><path id="path1419" style="fill:#ededed;fill-opacity:1;fill-rule:evenodd;stroke:none;stroke-width:3.7477" d="m 394.89371,451.19808 c 0,0 0.84698,-2.01251 0.96691,-5.52036 0,0 17.68913,2.53719 24.59239,1.51032 6.89951,-1.02687 -6.4348,2.04625 -14.646,1.36417 -4.57969,-0.38227 -8.49229,-0.61463 -8.49229,-0.61463 -0.18738,0.92943 -2.42101,3.2605 -2.42101,3.2605"/><path id="path1423" style="fill:#ededed;fill-opacity:1;fill-rule:evenodd;stroke:none;stroke-width:3.7477" d="m 433.17383,362.07033 c 0,0 1.94131,-20.38373 26.60866,-13.71657 20.8372,5.63279 -18.86217,-4.35483 -26.60866,13.71657"/><path id="path1427" style="fill:#ededed;fill-opacity:1;fill-rule:evenodd;stroke:none;stroke-width:3.7477" d="m 362.62116,414.6955 c 0,0 -19.46554,-57.24983 50.18167,-64.22055 0,0 -28.6399,2.70209 -40.13784,19.2819 -16.29874,20.65357 -10.04383,44.93865 -10.04383,44.93865"/><path id="path1431" style="fill:#ededed;fill-opacity:1;fill-rule:evenodd;stroke:none;stroke-width:3.7477" d="m 381.13741,418.2457 c 0,0 10.40736,4.63965 15.36931,1.61526 4.96195,-3.02814 4.2349,-4.33984 4.2349,-4.33984 0,0 1.0606,4.30986 -3.62777,5.45665 -2.21864,0.58464 -3.69149,0.75329 -5.59906,0.42349 -6.80582,-1.24049 -10.37738,-3.15556 -10.37738,-3.15556"/><path id="path1435" style="fill:#ededed;fill-opacity:1;fill-rule:evenodd;stroke:none;stroke-width:3.7477" d="m 491.26652,356.30412 c -1.53281,-0.78702 3.57156,-5.56533 8.16998,-7.19933 -6.44979,3.98006 -6.63717,7.98635 -8.16998,7.19933"/><path id="path1439" style="fill:#ededed;fill-opacity:1;fill-rule:evenodd;stroke:none;stroke-width:3.7477" d="m 512.92896,373.99288 c 0,0 1.48784,-6.90326 4.11497,-8.83332 2.62714,-1.93007 14.03888,0.48345 19.72788,-3.32796 5.26177,-2.81452 4.27613,-7.28927 4.27613,-7.28927 0,0 1.92257,4.65464 -2.34231,8.03131 -3.14432,2.78454 -7.38297,3.79642 -12.7047,3.79642 -5.32548,0 -6.11249,0.004 -9.32052,2.78079 -3.20803,2.77705 -3.75145,4.84203 -3.75145,4.84203"/></g></g></svg>