<svg xmlns="http://www.w3.org/2000/svg" xmlns:xlink="http://www.w3.org/1999/xlink" version="1.0" id="Ebene_1" x="0px" y="0px" width="306.987600606" height="325.74605555" viewBox="0 0 426.725 452.8" enable-background="new 0 0 426.725 452.8" xml:space="preserve">

<path fill="#00753B" d="M186.056,77.791c-31.888,5.797-60.261,21.554-81.815,43.919h81.079c-4.595-5.918-7.284-13.398-7.284-21.51   C178.035,91.7,181.008,83.903,186.056,77.791 M322.515,121.709c-21.541-22.365-49.974-38.122-81.845-43.919   c5.03,6.067,8.021,13.909,8.021,22.409c0,8.112-2.689,15.592-7.285,21.51H322.515z M426.725,149.737l-71.045,25.098   c-7.255-19.977-18.655-38.001-33.074-53.036v127.432c0,91.638-88.201,123.512-105.789,128.227   c61.539-1.397,114.02-39.443,136.384-93.094c23.252,12.542,46.338,24.994,66.526,35.912   C384.008,398.516,304.987,452.8,213.363,452.8C121.74,452.8,42.719,398.471,7,320.232c18.009-9.749,41.651-22.561,66.524-36.005   c22.32,53.744,74.8,91.834,136.339,93.231c-17.59-4.715-105.743-36.589-105.743-128.227V121.844   c-14.419,15.036-25.82,33.061-33.074,53.038L0,149.782C31.453,62.395,115.175,0,213.363,0C311.55,0,395.227,62.349,426.725,149.737z   "/>

<path fill="#FFFFFF" d="M336.859,114.199c0.601,0.36,1.367,0.901,1.998,1.682c0.735,0.855,1.247,1.711,1.547,2.343l22.741-19.421   c0,0-7.646,40.209-7.646,40.12l2.824,4.34l36.62-23.987c-0.601-0.691-1.323-1.637-1.804-2.359c-0.465-0.766-1.186-2.179-1.441-2.854   l-25.007,17.304c0.118,0.044,7.808-40.901,7.764-40.945l-4.746-5.197L336.859,114.199 M320.591,74.486l12.123-7.06l-3.529,13.443   L320.591,74.486z M328.283,84.398c-0.722,2.584-2.179,7.48-3.545,11.552c1.413,0.9,2.854,1.907,4.146,2.988   c1.531,1.322,2.854,2.719,3.664,4.025l10.065-41.38c-0.632-0.36-1.233-0.721-1.878-1.171c-0.587-0.466-1.096-0.917-1.653-1.457   l-36.828,20.923c1.021,0.316,1.742,0.586,2.478,1.126c0.766,0.54,1.743,1.367,2.433,1.953c3.201-2.403,6.399-4.251,10.155-6.7   L328.283,84.398z M234.136,56.868c0.735,0.06,1.591,0.06,2.357,0.15c0.722,0.134,1.533,0.314,2.299,0.495l3.589-24.318   c0,0,18.22,29.154,18.129,29.064l4.746,1.503l10.366-35.373c-0.722-0.09-1.533-0.271-2.269-0.495   c-0.722-0.227-1.487-0.541-2.209-0.857l-6.697,23.868c0,0-19.422-29.575-19.513-29.666l-5.752-0.811L234.136,56.868z M197.831,22.41   c6.7-0.856,9.434-0.811,9.765,5.483c0.3,5.708-2.554,8.831-8.742,8.741L197.831,22.41z M191.944,57.062   c1.187-0.375,2.554-0.6,4.31-0.78c1.487-0.181,3.02-0.135,4.131-0.09l-1.321-17.152l0.254-0.046   c1.577,2.028,3.154,4.207,4.101,5.664l7.646,11.129c1.742-0.181,3.92-0.224,5.664-0.181c2.056,0,4.655,0.271,6.022,0.451l-3.2-3.666   c-3.8-4.94-7.854-10.183-11.565-15.079c5.378-1.397,8.831-4.747,8.53-10.139c-0.375-7.24-6.232-8.607-14.883-7.976l-13.7,1.232   L191.944,57.062z M143.713,30.836l11.055,35.088l21.12-6.069c-0.286-0.585-0.586-1.307-0.722-2.162   c-0.21-0.722-0.255-1.773-0.21-2.494c-3.365,1.262-7.12,2.674-12.843,4.476l-3.92-12.947l5.843-1.578   c2.508-0.735,5.587-1.457,7.765-1.682c-0.3-0.72-0.69-1.487-0.856-2.268c-0.165-0.722-0.21-1.578-0.255-2.343   c-2.043,0.766-5.167,1.938-7.721,2.674l-5.887,1.577l-3.454-11.372c5.797-1.801,11.339-2.898,14.794-3.124   c-0.331-0.63-0.631-1.487-0.812-2.253c-0.21-0.735-0.301-1.728-0.301-2.358L143.713,30.836z M116.363,64.798   c5.167-3.575,9.568-3.529,12.541,1.728c2.313,3.98,0.391,8.141-2.388,9.732l-2.553,1.443L116.363,64.798z M108.687,51.534   c0.931-0.72,2.042-1.411,2.854-1.908c3.379-1.892,6.533-1.216,8.501,2.224c1.066,1.893,1.531,4.115,0.675,6.248   c-0.931,2.404-3.198,3.395-5.377,4.656L108.687,51.534z M118.629,84.444l10.875-6.654c6.023-3.44,10.89-9.463,7.134-16.072   c-3.424-5.978-9.132-3.801-13.097-1.998l-0.254-0.407c4.01-3.033,6.563-7.915,3.964-12.452c-3.199-5.618-9.342-4.836-14.464-1.892   l-13.743,8.412L118.629,84.444z M282.111,69.423c1.11,0.315,2.734,0.946,4.101,1.577c1.321,0.586,2.461,1.263,3.664,2.043   l16.087-32.834c-1.112-0.271-2.135-0.675-3.71-1.397c-1.667-0.78-3.455-1.862-4.611-2.627L282.111,69.423z M100.065,99.389   c0.976-0.992,1.878-1.983,3.035-2.944c1.111-0.902,2.297-1.803,3.545-2.628L83.122,65.608c-0.72,0.917-1.531,1.728-2.808,2.854   c-1.367,1.188-3.125,2.404-4.281,3.124L100.065,99.389z M67.982,143.127c0.42-1.171,1.021-2.207,1.953-3.664   c0.811-1.262,1.877-2.674,2.988-3.621l-16.175-12.046c1.967-2.853,3.724-5.933,5.767-8.741c2.043-2.764,4.521-5.664,6.655-8.368   l15.665,12.948c0.887-1.456,1.833-2.853,2.944-4.13c1.066-1.171,2.087-2.027,3.109-2.899L57.693,83.948   c-0.812,1.412-1.788,2.673-2.87,3.95c-1.277,1.532-2.808,3.08-4.01,4.071l14.345,11.46c-1.967,2.839-4.22,6.203-6.278,8.997   c-2.043,2.764-4.056,5.617-6.219,8.291l-14.99-10.904c-0.586,1.217-1.397,2.613-2.344,4.026c-0.976,1.488-2.477,3.259-3.454,4.431   L67.982,143.127z"/>

<path fill="#FFFFFF" d="M204.786,411.645v-0.451c3.5-0.271,6.955-1.862,8.231-4.942c0.347-0.81,0.511-1.755,0.511-2.764   c0-6.698-4.265-8.141-9.462-8.501l-11.535-1.05l-1.443,12.315l-2.734,23.056l12.978,1.126c9.252,0.453,13.353-2.401,13.309-9.642   C214.594,415.535,210.463,412.591,204.786,411.645z M198.763,397.421c0.991,0.044,1.622,0.088,2.178,0.134   c3.455,0.375,5.377,2.223,5.467,6.159c0.044,0.916-0.136,1.772-0.467,2.537c-0.435,0.962-1.11,1.772-2.176,2.63   c-1.804,1.501-3.801,1.23-6.025,1.036l0.301-3.666L198.763,397.421z M200.311,427.175l-3.937-0.225l1.112-13.999   c5.588,0,9.643,2.042,9.478,7.75C206.829,425.447,204.065,427.221,200.311,427.175z"/>

<path fill="#FFFFFF" d="M299.129,406.251c-4.087-2.764-8.188-5.527-12.107-8.501c4.01-2.854,5.798-7.075,3.83-11.776   c-1.367-3.212-3.199-4.579-6.52-4.85c-2.433-0.225-5.812,0.856-8.666,2.088l-9.942,3.574l7.119,19.466l5.167,14.089   c1.112-0.542,2.269-1.05,3.589-1.547c1.323-0.495,3.155-0.99,4.267-1.26l-4.267-11.282l-1.665-4.341l0.375-0.134   c1.848,1.353,4.101,2.988,5.347,3.98l0.631,0.495l9.221,7.301c1.413-0.691,2.81-1.593,4.267-2.179   c1.501-0.631,2.9-1.367,4.355-1.864l-3.034-1.936C300.465,407.169,299.82,406.703,299.129,406.251z M279.166,399.868l-5.121-13.578   c2.898-1.231,6.022-2.359,8.441,1.263c0.645,0.959,0.992,1.635,1.291,2.313C285.819,394.808,284.408,398.201,279.166,399.868z"/>

<path fill="#FFFFFF" d="M257.613,406.251l-3.5-16.117c-0.346,0.272-1.021,0.453-1.924,0.677c-0.81,0.225-1.411,0.315-2.088,0.315   l3.411,15.125l0.134,0.632c0.812,2.988,1.367,8.335,0.766,10.74c-1.066,4.746-3.589,6.834-8.365,7.6   c-2.252,0.375-4.311,0.044-6.189-1.263c-2.132-1.487-2.808-2.988-3.666-5.437c-0.899-2.583-1.455-6.788-1.922-9.598l-0.255-2.674   l-1.276-12.271c-1.247,0.314-2.315,0.495-3.636,0.647c-1.32,0.135-2.9,0.088-3.92,0.044l1.277,11.58l1.156,10.245   c0.347,2.072,0.976,4.249,1.832,6.157c2.99,6.385,9.989,7.241,16.177,6.205c3.409-0.511,7.075-1.774,9.508-4.221   c4.748-4.521,4.267-10.319,3.034-15.712L257.613,406.251z"/>

<path fill="#FFFFFF" d="M109.588,359.299L97.766,349.16l-24.287,26.212l11.175,10.107c7.992,6.97,19.722,7.602,26.586-1.862   C116.708,376.107,117.053,364.736,109.588,359.299z M104.541,378.224c-7.3,9.644-14.284,8.067-19.661,3.351l-3.289-3.034   l19.585-22.32l4.311,3.664C110.984,364.692,110.475,370.399,104.541,378.224z"/>

<path fill="#FFFFFF" d="M331.572,374.65c-1.037,0.81-2.132,1.547-3.199,2.267l7.63,9.417c-0.345,0.946-1.832,2.225-4.686,4.207   c-6.489,4.491-13.368,2.719-18.4-4.746c-4.868-7.255-5.934-16.087,1.201-20.969c3.365-2.357,6.864-2.808,10.787-1.321l0.599-0.407   c-0.812-1.575-1.411-3.349-1.742-5.106c-4.492,0.361-7.811,1.758-11.492,4.297c-9.852,6.788-13.816,17.482-6.607,28.163   c6.834,10.092,18.1,9.057,27.096,2.854c3.756-2.584,7.947-6.249,10.71-10.186l-9.133-11.099   C333.406,372.937,332.548,373.838,331.572,374.65z"/>

<path fill="#FFFFFF" d="M76.333,350.917c0.556-0.451,1.248-0.855,1.878-1.216c-1.442-1.307-3.2-3.259-4.642-5.077l-3.38-4.205   l8.758-6.97c3.364,4.07,5.587,7.419,7.33,10.093c0.344-0.495,0.992-1.17,1.547-1.622c0.555-0.511,0.976-0.872,1.651-1.232   l-12.362-15.169l-28.598,21.689l14.465,17.755c0.465-0.542,0.976-1.173,1.531-1.638c0.527-0.495,1.503-0.992,2.104-1.396   c-2.358-2.133-6.534-6.744-9.868-10.831l10.708-8.501l3.335,4.207c1.457,1.862,2.944,4.161,4.01,5.798   C75.267,352.014,75.777,351.428,76.333,350.917z"/>

<path fill="#FFFFFF" d="M349.1,325.924c-0.511,0.916-1.112,1.862-1.922,2.9c-0.812,1.05-1.623,1.908-2.599,2.808l11.312,9.644   c-1.578,2.086-3.155,4.174-4.868,6.203c-1.742,1.999-2.898,3.169-4.776,5.032l-10.918-10.229c-0.647,0.945-1.323,1.892-2.223,2.854   c-0.858,0.9-1.924,1.802-2.9,2.523l25.729,24.947c0.812-0.99,1.667-1.982,2.553-2.942c0.902-0.948,2.269-2.119,2.99-2.706   l-12.167-11.64c1.711-1.998,2.689-3.483,4.445-5.483c1.713-1.996,3.501-3.98,5.333-5.886l12.933,10.829   c0.902-1.411,1.621-2.447,2.433-3.395c0.601-0.78,1.323-1.772,2.479-2.942L349.1,325.924z"/>

<path fill="#FFFFFF" d="M134.071,375.821c-1.232-0.676-2.463-1.577-3.365-2.297l-17.334,31.331c0.902,0.361,2.224,0.902,3.335,1.397   c0.391,0.181,0.722,0.317,0.976,0.497c1.156,0.646,2.613,1.635,3.709,2.357l1.503-2.854l15.065-28.837   C137.016,377.144,135.228,376.466,134.071,375.821z"/>

<path fill="#FFFFFF" d="M174.836,390.766l-3.725,15.486l-1.999,8.428c-1.322-2.54-2.734-5.394-4.189-8.428   c-3.365-6.968-6.91-14.854-9.688-21.328l-4.688-1.848l-8.997,23.176l-3.935,10.153c0.556,0.136,1.667,0.361,2.388,0.631   c0.646,0.227,1.202,0.588,1.833,0.902l4.521-11.687l4.538-11.58l3.709,7.87c0.632,1.216,1.232,2.493,1.878,3.709   c3.198,6.386,6.487,12.858,9.897,19.286l5.078,1.096l4.521-20.382l3.244-14.478c-0.676-0.046-1.743-0.273-2.388-0.421   C176.188,391.172,175.421,390.992,174.836,390.766z"/>

<path fill="#FFFFFF" d="M293.976,211.59c2.733-3.621,4.311-7.465,4.385-10.545h-11.34c0,1.908-2.148,3.395-4.792,3.395h-24.152   c-2.644,0-4.776-1.487-4.776-3.485h-11.565c0.09,3.08,1.667,6.97,4.491,10.635c4.852,6.294,13.261,12,23.928,12   C280.833,223.591,289.184,217.884,293.976,211.59z M261.457,216.081c-1.367,0-2.478-1.126-2.478-2.493   c0-0.811,0.389-1.531,1.021-1.997c0.391-0.316,0.902-0.496,1.457-0.496c0.557,0,1.066,0.18,1.487,0.496   c0.601,0.466,0.992,1.187,0.992,1.997C263.936,214.954,262.824,216.081,261.457,216.081z M271.01,216.081   c-1.367,0-2.479-1.126-2.479-2.493c0-0.811,0.391-1.531,0.992-1.997c0.421-0.316,0.932-0.496,1.487-0.496   c0.556,0,1.066,0.18,1.457,0.496c0.631,0.466,1.022,1.187,1.022,1.997C273.49,214.954,272.377,216.081,271.01,216.081z    M280.532,216.081c-1.367,0-2.478-1.126-2.478-2.493c0-0.811,0.421-1.531,1.022-1.997c0.435-0.316,0.946-0.496,1.455-0.496   c0.557,0,1.066,0.18,1.487,0.496c0.601,0.466,1.021,1.187,1.021,1.997C283.041,214.954,281.931,216.081,280.532,216.081z"/>

<polygon fill="#FFFFFF" points="244.004,182.166 244.004,169.354 234.18,173.694 242.592,177.358 242.592,181.85 "/>

<path fill="#FFFFFF" d="M253.646,189.044c0.766,0,1.413-0.631,1.413-1.442c0-0.646-0.391-1.141-1.038-1.412l-0.208-0.045   l-21.164-4.657c-0.12-0.044-0.3-0.09-0.465-0.09c-0.768,0-1.413,0.631-1.413,1.443c0,0.766,0.601,1.411,1.32,1.457l21,4.656   C253.211,189,253.392,189.044,253.646,189.044z"/>

<path fill="#FFFFFF" d="M243.794,149.196c10.153,3.439,12.662,3.576,14.628,0.872l-0.375-4.086c-1.337-0.18-2.059,0.136-2.78,0.496   c-0.689,0.376-0.509,0.646-0.509-0.315c0-0.946,1.577-1.352,6.233-1.532c4.642-0.135,8.786,1.623,8.786,1.623v1.141l2.389-0.916   v-8.366c0,0-1.577-0.451-4.912-1.006c-6.263-1.083-8.666,0.78-11.566,2.448c-2.898,1.727-2.207,4.851-2.207,6.924   c0,2.043,1.742,1.683,3.318,2.809c1.277,0.871-0.166,1.006-2.943-0.136c-2.434-0.991-1.922-3.35-1.922-3.35   s-2.134,0.135-3.876-0.314c-1.758-0.496-10.543-3.035-13.654,0.314c-2.733,2.944-1.875,4.717-1.875,6.204   C232.603,151.96,234.06,145.937,243.794,149.196z"/>

<path fill="#FFFFFF" d="M256.2,197.742c0-0.811-0.631-1.457-1.441-1.457h-17.2c-0.809,0-1.455,0.646-1.455,1.457   c0,0.767,0.646,1.397,1.455,1.397h17.2C255.568,199.139,256.2,198.508,256.2,197.742z"/>

<path fill="#FFFFFF" d="M308.141,181.399c-0.167,0-0.346,0.046-0.467,0.09l-21.208,4.657c-0.046,0.045-0.137,0.045-0.181,0.045   c-0.675,0.271-1.022,0.765-1.022,1.412c0,0.811,0.647,1.442,1.413,1.442c0.255,0,0.375-0.045,0.556-0.09l20.997-4.656   c0.722-0.046,1.323-0.691,1.323-1.457C309.552,182.03,308.907,181.399,308.141,181.399z"/>

<path fill="#FFFFFF" d="M303.439,200.325l-0.377,0.045c-2.643,0-4.775,3.034-4.775,6.789c0,1.397,0.254,2.944,0.766,4.025   c-0.812,0.045-1.547,0.226-2.133,0.406c-4.866,1.592-3.846,7.12-3.846,7.12c-4.73-0.631-10.363,3.439-10.363,3.439   s4.868-0.9,9.975,1.758c0,0,1.246-2.794,3.242-3.666c0,0-2.042-4.565,1.503-5.016c0.856-0.09,0.044,0,0.044,0   c1.323-0.09,1.232,0.406,1.232,0.406c-2.523,0.36-2.132,2.538-2.132,2.538c0.255,1.262,1.411,2.209,2.778,2.209   c0.555,0,1.066-0.18,1.487-0.451c2.299-1.893,1.969-4.972,1.533-7.24c-0.076-0.36-0.12-0.721-0.21-1.096   c-0.467-2.164-1.112-4.881-0.855-6.204c0.298-1.531,0.208-3.079,0.208-3.079s0.046-1.083,0.737-0.902c0,0-0.557,1.682,1.187,1.863   c0.81,0,1.457-0.63,1.457-1.457C304.896,201.001,304.249,200.325,303.439,200.325z"/>

<polygon fill="#FFFFFF" points="254.803,194.527 254.803,191.133 252.326,190.592 252.326,192.394 249.336,192.394 249.336,189.9    246.947,189.405 246.947,192.394 244.004,192.394 244.004,188.73 241.872,188.279 241.872,192.394 239.393,192.394 238.445,187.514    235.684,186.913 237.516,194.527 "/>

<polygon fill="#FFFFFF" points="298.453,181.669 298.453,167.401 288.673,171.801 297.086,175.467 297.086,181.985 "/>

<path fill="#FFFFFF" d="M252.446,156.993c0,0,0.481,0.044,0.389,0.359c-8.409,14.585,2.179,27.532,2.179,27.532   c2.299-4.715,6.91-8.291,15.111-8.065c2.974,0.09,5.541,0.54,7.93,1.637c0,0,4.656,1.486,10.033,5.482   c0,0-5.558-11.506-2.944-22.921c3.275-14.36,10.965-18.79,14.54-21.508c0.225-0.135,0.301-0.361,0.301-0.585   c0-0.36-0.301-0.631-0.631-0.631c-0.134,0-0.254,0-0.345,0.044c-18.564,7.151-47.284,17.559-47.284,17.559   S250.823,156.495,252.446,156.993z"/>

<polygon fill="#FFFFFF" points="285.521,191.133 285.521,194.527 302.809,194.527 304.64,186.913 301.862,187.514 300.93,192.394    298.453,192.394 298.453,188.279 296.319,188.73 296.319,192.394 293.331,192.394 293.331,189.405 290.988,189.9 290.988,192.394    287.998,192.394 287.998,190.592 "/>

<path fill="#FFFFFF" d="M271.145,135.889c1.187,0,2.179-0.586,2.179-1.397c0-0.782-0.992-1.367-2.179-1.367   c-1.2,0-2.132,0.585-2.132,1.367C269.012,135.303,269.944,135.889,271.145,135.889z"/>

<path fill="#FFFFFF" d="M269.778,178.591v24.048h2.389v-23.914c-0.691-0.044-1.367-0.09-2.088-0.09L269.778,178.591z"/>

<path fill="#FFFFFF" d="M284.107,197.742c0,0.767,0.646,1.397,1.457,1.397h17.198c0.812,0,1.459-0.63,1.459-1.397   c0-0.811-0.647-1.457-1.459-1.457h-17.198C284.753,196.285,284.107,196.931,284.107,197.742z"/>

<path fill="#FFFFFF" d="M156.602,336.798h0.007l14.291-9.868v10.951l10.635-6.115v13.37l25.384-18.206h6.398h6.489l25.385,18.206   v-13.37l10.634,6.115V326.93l14.45,9.794c0-0.016,0.014-0.016,0.014-0.016c37.686-30.564,40.794-71.9,40.794-75.851   c-16.266-8.728-97.72-52.751-97.72-52.751s-84.023,45.376-97.722,52.841C115.641,264.807,118.93,306.143,156.602,336.798z"/>

<g>

	<defs>

		<path id="SVGID_1_" d="M115.641,260.947c13.699-7.465,97.722-52.841,97.722-52.841s81.455,44.023,97.72,52.751     c0,3.95-3.109,45.286-40.794,75.851c-29.695,24.094-56.926,30.297-56.926,30.297s-27.097-6.022-56.761-30.207     C118.93,306.143,115.641,264.807,115.641,260.947"/>

	</defs>

	<clipPath id="SVGID_2_">

		<use xlink:href="#SVGID_1_" overflow="visible"/>

	</clipPath>

</g>

<path fill="#00753B" d="M192.8,287.893h41.126v37.219h-11.085v-18.925c-0.09-4.94-4.565-8.966-9.478-8.966   c-5.032,0-9.434,4.07-9.523,9.013v18.879H192.8V287.893"/>

<rect x="170.9" y="276.898" fill="#00753B" width="20.143" height="9.177"/>

<polyline fill="#00753B" points="191.043,261.683 191.043,275.125 170.9,275.125 170.9,261.683 175.467,261.683 175.467,266.79    178.592,266.79 178.592,261.683 180.243,261.683 180.243,257.462 167.146,257.462 171.801,253.482 167.146,249.545 181.7,249.545    181.7,261.683 183.367,261.683 183.367,266.79 186.476,266.79 186.476,261.683 191.043,261.683 "/>

<rect x="170.9" y="315.875" fill="#00753B" width="20.143" height="9.237"/>

<rect x="170.9" y="287.893" fill="#00753B" width="20.143" height="26.224"/>

<rect x="235.637" y="276.898" fill="#00753B" width="20.142" height="9.177"/>

<polyline fill="#00753B" points="255.825,261.683 255.825,275.125 235.637,275.125 235.637,261.683 240.249,261.683 240.249,266.79    243.313,266.79 243.313,261.683 244.98,261.683 244.98,257.462 231.884,257.462 236.569,253.482 231.884,249.545 246.482,249.545    246.482,261.683 248.135,261.683 248.135,266.79 251.213,266.79 251.213,261.683 255.825,261.683 "/>

<rect x="235.637" y="315.875" fill="#00753B" width="20.142" height="9.237"/>

<rect x="235.637" y="287.893" fill="#00753B" width="20.142" height="26.224"/>

<polyline fill="#00753B" points="233.926,281.51 233.926,286.075 192.8,286.075 192.8,281.51 192.8,276.898 199.619,276.898    199.619,281.51 204.396,281.51 204.396,276.898 210.764,276.898 210.764,281.51 215.917,281.51 215.917,276.898 222.33,276.898    222.33,281.51 227.105,281.51 227.105,276.898 233.926,276.898 233.926,281.51 "/>

<polyline fill="#00753B" points="172.733,326.93 204.095,326.93 183.367,341.41 183.367,328.507 172.733,334.666 172.733,326.93 "/>

<polyline fill="#00753B" points="222.584,326.93 253.947,326.93 253.947,334.666 243.357,328.507 243.357,341.41 222.584,326.93 "/>

<polyline fill="#00753B" points="203.285,237.635 207.85,237.635 207.85,242.758 210.975,242.758 210.975,237.635 212.642,237.635    212.642,233.415 199.529,233.415 204.186,229.434 199.529,225.499 214.084,225.499 214.084,237.635 215.75,237.635 215.75,242.758    218.861,242.758 218.861,237.635 223.426,237.635 223.426,256.56 203.285,256.56 203.285,237.635 "/>

<rect x="203.285" y="258.334" fill="#00753B" width="20.141" height="16.791"/>

<path fill="#00753B" d="M221.083,306.187v18.925h-15.486v-18.879c0.045-3.89,3.62-7.239,7.766-7.239   C217.464,298.994,221.037,302.343,221.083,306.187"/>

<path fill="#FFFFFF" d="M206.453,352.284v3.351h13.774v-3.351H206.453 M206.453,345.135v3.349h13.774v-3.349H206.453z    M206.453,337.971v3.305h13.774v-3.305H206.453z M206.453,330.776v3.349h13.774v-3.349H206.453z"/>

<path fill="#FFFFFF" d="M215.961,302.748v-1.344c-0.595-0.288-1.242-0.486-1.922-0.565v1.909H215.961z"/>

<path fill="#FFFFFF" d="M209.307,304.235h-1.421c-0.294,0.617-0.468,1.278-0.497,1.952h1.918V304.235z"/>

<rect x="207.385" y="307.674" fill="#FFFFFF" width="1.922" height="1.954"/>

<rect x="207.385" y="317.963" fill="#FFFFFF" width="1.922" height="1.938"/>

<rect x="207.385" y="314.524" fill="#FFFFFF" width="1.922" height="1.938"/>

<rect x="207.385" y="311.129" fill="#FFFFFF" width="1.922" height="1.938"/>

<path fill="#FFFFFF" d="M212.642,302.748v-1.903c-0.684,0.083-1.331,0.282-1.923,0.571v1.333H212.642z"/>

<rect x="214.039" y="317.963" fill="#FFFFFF" width="1.922" height="1.938"/>

<rect x="214.039" y="311.129" fill="#FFFFFF" width="1.922" height="1.938"/>

<rect x="207.385" y="321.402" fill="#FFFFFF" width="1.922" height="1.954"/>

<rect x="210.719" y="304.235" fill="#FFFFFF" width="1.923" height="1.952"/>

<rect x="210.719" y="307.674" fill="#FFFFFF" width="1.923" height="1.954"/>

<rect x="214.039" y="314.524" fill="#FFFFFF" width="1.922" height="1.938"/>

<rect x="214.039" y="307.674" fill="#FFFFFF" width="1.922" height="1.954"/>

<path fill="#FFFFFF" d="M217.374,304.235v1.952h1.918c-0.018-0.673-0.187-1.334-0.478-1.952H217.374z"/>

<rect x="214.039" y="304.235" fill="#FFFFFF" width="1.922" height="1.952"/>

<rect x="210.719" y="311.129" fill="#FFFFFF" width="1.923" height="1.938"/>

<rect x="217.374" y="321.402" fill="#FFFFFF" width="1.922" height="1.954"/>

<rect x="214.039" y="321.402" fill="#FFFFFF" width="1.922" height="1.954"/>

<rect x="210.719" y="321.402" fill="#FFFFFF" width="1.923" height="1.954"/>

<rect x="217.374" y="317.963" fill="#FFFFFF" width="1.922" height="1.938"/>

<rect x="217.374" y="311.129" fill="#FFFFFF" width="1.922" height="1.938"/>

<rect x="217.374" y="314.524" fill="#FFFFFF" width="1.922" height="1.938"/>

<rect x="210.719" y="317.963" fill="#FFFFFF" width="1.923" height="1.938"/>

<rect x="217.374" y="307.674" fill="#FFFFFF" width="1.922" height="1.954"/>

<rect x="210.719" y="314.524" fill="#FFFFFF" width="1.923" height="1.938"/>

<path fill="#FFFFFF" d="M178.876,296.589v10.861h4.19v-10.861c-0.045-1.126-0.945-2.042-2.088-2.042   C179.822,294.547,178.921,295.463,178.876,296.589"/>

<path fill="#FFFFFF" d="M243.658,296.589v10.861h4.146v-10.861c0-1.126-0.946-2.042-2.059-2.042   C244.606,294.547,243.658,295.463,243.658,296.589"/>

<path fill="#FFFFFF" d="M156.482,221.924c-2.57,1.757-6.61,1.037-6.61,1.037s4.266,2.808,9.374,0.72   c3.723-1.487,5.511-5.242,5.511-5.242h-5.167C159.59,218.439,157.969,220.917,156.482,221.924z"/>

<path fill="#FFFFFF" d="M153.658,216.307c0,0-0.722,1.531-1.277,2.537c-0.557,0.947-1.487,2.404-1.487,2.404   s2.087,0.359,3.874-0.466c1.578-0.721,2.99-2.523,2.99-2.523s-1.367-0.27-2.133-0.645   C154.768,217.253,153.658,216.307,153.658,216.307z"/>

<path fill="#FFFFFF" d="M150.668,207.655c0,0-2.463-1.172-5.588-3.846c-4.174-3.529-9.552-9.778-11.896-19.42   c-3.59-14.855,3.62-26.631,3.62-26.631s-1.877-0.361-3.064-0.677c-0.992-0.27-2.403-0.811-2.403-0.811s-0.331,0.541-1.232,1.757   c1.968,1.591,2.342,3.935,1.413,6.248c-2.313,5.663-3.666,12.902-2.013,20.923c1.247,6.158,2.869,9.688,6.699,14.675   c1.066,1.622,2.179,2.854,3.125,3.934c0.331,0.361,0.631,0.722,0.931,1.082c1.412,1.682,2.313,3.86-0.33,6.474   c0,0,0.766,1.052,1.32,1.683c0,0,1.878,0.135,3.02,1.307c1.502,1.502,1.067,2.989,1.067,2.989c-0.811-1.532-2.389-2.63-4.267-2.63   c-2.553,0-4.611,2.088-4.611,4.672c0,1.532,0.766,2.944,1.923,3.756c7.6,5.301,12.286-4.297,14.434-9.148   C154.904,209.156,150.668,207.655,150.668,207.655z"/>

<path fill="#FFFFFF" d="M134.672,203.809c0.3-0.585,0.556-1.591,0.09-2.898c-4.01-5.167-5.723-8.922-7.044-15.352   c-1.021-5.03-0.946-9.822-0.166-14.088c0.03-0.315,0.12-0.63,0.21-0.9c-0.255-1.533-0.721-3.305-1.757-4.387   c-0.331,0.992-3.755,11.175-2.433,19.466c1.457,8.789,7.646,15.937,9.778,18.16c0.465,0.496,0.722,0.767,0.722,0.767   S134.372,204.305,134.672,203.809z"/>

<path fill="#FFFFFF" d="M138.593,210.239l0.345-0.406c0.09-0.09,0.18-0.135,0.256-0.225c0.135-0.181,0.209-0.315,0.299-0.451   c0.21-0.36,0.3-0.736,0.3-1.187c0-0.225,0-0.45-0.09-0.63c-0.164-0.315-0.375-0.676-0.721-1.126   c-0.165-0.271-0.39-0.496-0.556-0.737l-0.254-0.271l-0.646-0.721c-0.165-0.225-0.375-0.45-0.586-0.676   c-0.225-0.271-0.435-0.54-0.69-0.811c0,0,0,0.315-0.166,0.811c-0.135,0.451-0.435,1.037-0.946,1.624   c-1.066,1.187-1.442,1.816-1.487,2.583c0,0.044,0,0.112,0,0.18c0.121,1.591,1.442,2.854,3.064,2.854   C137.405,211.05,138.036,210.689,138.593,210.239z"/>

<path fill="#FFFFFF" d="M131.938,154.453c2.013-3.078,2.568-4.296,3.424-8.786c1.277-6.834-0.435-10.004-0.435-10.004   c-2.389,0.947-9.854,13.579-9.854,13.579C125.119,149.601,128.138,152.726,131.938,154.453z"/>

<polygon fill="#FFFFFF" points="144.705,157.938 159.035,195.654 160.326,193.626 146.793,157.758 "/>

<polygon fill="#FFFFFF" points="139.839,158.073 155.881,200.596 157.202,198.552 141.972,158.073 "/>

<path fill="#FFFFFF" d="M128.664,167.04c0.33-1.216,0.766-2.358,1.187-3.44c0.646-1.501,0.465-2.854-0.466-3.844   c-0.646-0.631-1.803-0.737-2.268-0.737c-1.443,0-2.6,1.231-2.6,2.719c0,0.134,0,0.315,0.046,0.451   C125.119,164.412,127.161,163.69,128.664,167.04z"/>

<path fill="#FFFFFF" d="M188.774,158.119l-23.717,45.69l-6.579,12.588h12.257c0,0,1.922-5.347,4.521-12.588   c5.242-14.539,13.308-36.814,14.675-39.533C191.764,160.477,188.774,158.119,188.774,158.119z"/>

<path fill="#FFFFFF" d="M189.51,151.87c-4.145-1.848-6.954-0.09-7.645,1.592c-0.676,1.576,0,3.124,0,3.124s0.556-0.69,1.623-1.14   c1.066-0.451,3.245-0.361,5.002,0.54c1.576,0.827,2.764,2.177,3.153,3.273c0.42,1.127,0.556,1.894,0.556,1.894   s1.622-0.541,2.298-2.133C195.234,157.352,194.633,154.229,189.51,151.87z"/>

<path fill="#FFFFFF" d="M187.543,157.307c0,0-1.833-0.722-2.989-0.541c-1.187,0.227-2.688,1.667-2.688,1.667l-4.611,6.7l1.201,3.273   l-22.484,35.402l-0.481,0.767l-0.285-0.767l-1.577-4.205l-2.96,4.205l-1.277,1.818c0,0,3.71,0.902,4.657,2.839   c1.067,2.133,1.788,4.671,0.6,6.204c0.767,0.556,2.178,1.547,2.178,1.547l6.474-12.408L187.543,157.307z"/>

<polygon fill="#FFFFFF" points="149.691,157.262 162.279,190.501 163.601,188.459 151.705,156.902 "/>

<polygon fill="#FFFFFF" points="176.488,168.211 169.97,150.833 168.092,151.465 175.166,170.254 "/>

<path fill="#FFFFFF" d="M133.516,154.948c0,0,5.256,2.629,17.934,0c12.196-2.538,23.853-10.318,33.45-8.095   c0.646-1.187,1.877-1.953,3.334-1.953c1.788,0,3.274,1.171,3.666,2.854c0.165,0.586-0.21,0.721-0.21,0.721   c-0.346-1.261-1.502-2.268-2.869-2.268c-1.578,0-2.899,1.322-2.899,2.899c0,0.135,0.045,0.314,0.09,0.451   c5.678,0.645,7.72,3.078,7.72,3.078c3.967-4.114,1.668-10.543-6.998-12.992c-8.622-2.404-15.412,1.051-28.254,1.412   c-12.542,0.315-21.373-3.95-21.373-3.95S138.893,147.484,133.516,154.948z"/>

<polygon fill="#FFFFFF" points="163.601,153.146 171.967,175.286 173.289,173.244 165.479,152.455 "/>

<polygon fill="#FFFFFF" points="154.394,156.226 165.479,185.516 166.755,183.472 156.346,155.67 "/>

<polygon fill="#FFFFFF" points="158.959,154.814 168.647,180.483 169.97,178.456 160.837,154.183 "/>

<path fill="#FFFFFF" d="M230.605,129.055c-5.031,2.988-10.935,4.746-17.242,4.746c-6.279,0-12.167-1.757-17.199-4.746h-84.698   v120.176c0,95.213,100.785,121.527,101.897,121.527c1.11,0,101.896-26.314,101.896-121.527V129.055H230.605 M213.363,66.616   c18.564,0,33.583,15.035,33.583,33.584c0,10.064-4.399,19.031-11.354,25.189h83.346v123.842   c0,97.616-102.979,125.239-105.576,125.239c-2.6,0-105.578-27.623-105.578-125.239V125.389h83.348   c-6.954-6.159-11.355-15.125-11.355-25.189C179.778,81.651,194.797,66.616,213.363,66.616z"/>

<path fill="#00753B" d="M243.447,100.2c0,16.627-13.441,30.071-30.04,30.071c-16.596,0-30.085-13.444-30.085-30.071   c0-16.612,13.489-30.055,30.085-30.055C230.006,70.145,243.447,83.588,243.447,100.2"/>

<path fill="#FFFFFF" d="M241.616,100.2c0-6.338-2.102-12.166-5.587-16.882c-0.181,0.134-0.301,0.27-0.435,0.45   c2.598,3.621,6.834,13.684,4.732,24.949C241.181,106.043,241.616,103.189,241.616,100.2z"/>

<path fill="#FFFFFF" d="M234.918,81.921c-2.99-3.5-6.79-6.249-11.101-7.931c-0.167,1.592-0.167,3.35-0.347,5.031   c-0.298,2.523-0.72,5.468-1.575,7.556c4.189,0.495,7.72,1.457,9.822,2.719C232.184,87.028,233.114,83.362,234.918,81.921z"/>

<path fill="#FFFFFF" d="M222.104,73.313c-2.718-0.856-5.662-1.321-8.696-1.321c-4.101,0-7.99,0.871-11.476,2.403   c0.12,1.277,2.164,6.519,6.144,12.181c4.011-0.495,8.142-0.495,11.896-0.18c1.624-3.168,1.714-9.417,2.133-13.037V73.313z"/>

<path fill="#FFFFFF" d="M200.265,75.206c-3.5,1.863-6.579,4.401-9.058,7.526c1.457,1.126,4.101,3.755,5.858,6.519   c2.733-1.126,5.752-1.908,8.952-2.403C203.118,82.551,200.821,77.881,200.265,75.206z"/>

<path fill="#FFFFFF" d="M190.141,84.174c-3.154,4.582-4.986,10.109-4.986,16.026c0,5.573,1.622,10.786,4.401,15.127   c-5.858-12.633-1.413-26.932,0.63-31.109L190.141,84.174z"/>

<path fill="#FFFFFF" d="M205.597,127.371c2.478,0.676,5.077,1.097,7.81,1.097c2.6,0,5.167-0.376,7.602-1.051   c0.028-1.036-0.136-2.81-1.083-4.656c-4.477,0.406-9.208,0.271-13.354-0.271C205.342,124.517,205.132,125.93,205.597,127.371z"/>

<path fill="#FFFFFF" d="M222.841,126.831c4.221-1.487,7.975-3.98,10.965-7.15c-0.255-0.224-0.511-0.495-0.856-0.722   c-2.854,1.848-6.79,2.99-11.101,3.576C222.541,124.112,222.795,125.66,222.841,126.831z"/>

<path fill="#FFFFFF" d="M231.236,91.159c-4.611-3.365-23.041-4.987-34.141,0.09c-0.676,0.314-1.487,3.394-2.088,7.419   c8.802-2.944,30.942-3.439,38.452-0.811C233.038,94.553,232.272,91.924,231.236,91.159z"/>

<path fill="#FFFFFF" d="M233.896,109.813c-10.546,4.341-29.966,3.666-39.444,0.496c0.226,2.944,0.782,5.437,1.832,6.789   c3.214,4.115,26.256,6.429,35.6,0.36C232.994,116.737,233.625,113.659,233.896,109.813z"/>

<path fill="#FFFFFF" d="M194.377,108.312c9.042,3.394,29.604,4.071,39.593-0.541c0.09-2.583,0-5.347-0.254-7.84   c-5.423-2.854-30.807-2.569-38.962,0.781C194.498,103.144,194.332,105.817,194.377,108.312z"/>

<path fill="#FFFFFF" d="M234.946,118.09c7.646-13.444,2.87-27.307-0.284-32.415c-0.766,1.984-1.247,4.478-1.367,5.108   c2.897,4.897,3.545,21.148,0.811,26.676C234.437,117.683,234.738,117.91,234.946,118.09z"/>

<path fill="#FFFFFF" d="M193.01,117.819c0.3-0.18,0.63-0.361,0.857-0.496l0.33-0.135c-3.019-6.112-1.367-22.996,1.367-26.901   c-1.187-1.802-2.733-3.575-3.965-4.791C189.375,90.422,185.199,105.638,193.01,117.819z"/>

<path fill="#FFFFFF" d="M195.308,118.72c-0.766,0.33-1.487,0.78-2.253,1.097c2.944,3.034,6.52,5.392,10.53,6.879   c-0.21-1.442,0.181-2.899,1.021-4.521C200.385,121.439,196.93,120.268,195.308,118.72z"/>

<path fill="#00753B" d="M8.276,252.49c4.131-0.09,8.186-0.134,12.286-0.134c4.147,0,8.231,0.044,12.332,0.134v-1.591   c-3.544-0.136-5.978-1.036-6.955-2.132c-1.967-2.165-1.967-7.375-1.967-16.117v-8.562c0-4.25,0.09-8.05,0.436-11.536   c-3.89,0.09-7.51,0.18-10.891,0.18c-1.832,0-3.574,0-5.242-0.09v1.623c4.401,0.225,6.954,1.367,7.721,3.35   c0.901,2.403,0.976,7.389,0.976,14.854c0,2.088,0,3.89,0,5.571c0,5.528-0.165,9.013-1.622,10.727   c-1.051,1.274-3.53,2.132-7.075,2.132V252.49"/>

<path fill="#00753B" d="M52.962,230.246c5.542-2.254,8.321-5.514,8.321-9.464c0-5.332-4.656-9.147-12.557-9.147   c-7.812,0-12.841,4.131-12.841,10.153c0,4.207,2.597,7.466,8.11,10.814c-6.188,2.81-9.133,6.069-9.133,10.74   c0,6.023,4.942,9.958,13.534,9.958c8.861,0,14.118-4.535,14.118-10.965C62.515,238.086,59.315,234.331,52.962,230.246    M45.663,233.655l3.574,2.299c3.5,2.267,5.513,5.527,5.513,8.786c0,3.98-2.313,6.608-5.213,6.608c-3.874,0-7.165-3.664-7.165-8.876   C42.372,239.078,43.529,236.043,45.663,233.655z M51.67,229.39l-3.621-2.494c-3.243-2.298-4.911-4.881-4.911-7.42   c0-3.215,2.344-5.798,5.211-5.798c3.155,0,5.543,3.169,5.543,7.84C53.894,224.087,53.127,226.715,51.67,229.39z"/>

<path fill="#00753B" d="M367.62,253.301c4.19-7.84,7.044-13.127,8.578-15.891l13.322-23.823l-0.691-0.946   c-4.609,0.136-9.131,0.181-13.518,0.181c-4.445,0-8.666-0.045-12.813-0.181c-0.765,3.396-1.832,7.556-3.154,12.632l1.367,0.542   c1.068-2.313,2.044-4.027,3.335-5.123c1.396-1.216,3.832-1.351,7.421-1.351c1.186,0,2.553,0,4.1,0h8.231l-20.563,33.96H367.62"/>

<path fill="#00753B" d="M390.662,235.593c2.358-1.307,4.866-1.938,7.646-1.938c6.307,0,9.776,3.395,9.776,9.147   c0,5.019-2.613,8.458-6.233,8.458c-3.199,0-5.421-2.359-5.421-5.798c0-0.722,0.135-1.533,0.345-2.389   c-1.156-0.96-2.359-1.367-3.71-1.367c-2.733,0-4.356,1.593-4.356,4.174c0,4.341,4.22,7.421,11.431,7.421   c9.224,0,15.366-5.662,15.366-13.443c0-7.075-5.634-12.271-15.366-12.271c-2.178,0-4.431,0.315-6.744,0.946l1.247-9.281   c1.441-0.09,2.854-0.09,4.341-0.09c4.145,0,8.365,0.135,12.632,0.36l2.613-9.733l-1.293-0.405c-1.577,3.034-3.108,3.258-6.143,3.258   c-0.465,0-0.976,0-1.577,0h-12.288l-2.777,22.725L390.662,235.593"/>

</svg>