<svg xmlns="http://www.w3.org/2000/svg" xmlns:xlink="http://www.w3.org/1999/xlink" version="1.1" id="Layer_1" x="0px" y="0px" width="110.938px" height="131.269px" viewBox="0 0 110.938 131.269" enable-background="new 0 0 110.938 131.269" xml:space="preserve">
<g>
	<defs>
		<rect id="SVGID_1_" x="-239.513" y="-662.159" width="595.276" height="841.89"/>
	</defs>
	<clipPath id="SVGID_2_">
		<use xlink:href="#SVGID_1_" overflow="visible"/>
	</clipPath>
	<g clip-path="url(#SVGID_2_)">
		<defs>
			<rect id="SVGID_3_" x="-238.013" y="-661.859" width="593.775" height="841.591"/>
		</defs>
		<clipPath id="SVGID_4_">
			<use xlink:href="#SVGID_3_" overflow="visible"/>
		</clipPath>
		<g clip-path="url(#SVGID_4_)">
			<defs>
				<rect id="SVGID_5_" x="-239.041" y="-662.999" width="595.787" height="843.621"/>
			</defs>
			<clipPath id="SVGID_6_">
				<use xlink:href="#SVGID_5_" overflow="visible"/>
			</clipPath>
		</g>
	</g>
	<g clip-path="url(#SVGID_2_)">
		<defs>
			<rect id="SVGID_7_" x="-239.513" y="-662.159" width="595.276" height="841.89"/>
		</defs>
		<clipPath id="SVGID_8_">
			<use xlink:href="#SVGID_7_" overflow="visible"/>
		</clipPath>
	</g>
	<g clip-path="url(#SVGID_2_)">
		<defs>
			<rect id="SVGID_9_" x="-239.513" y="-662.159" width="595.276" height="841.89"/>
		</defs>
		<clipPath id="SVGID_10_">
			<use xlink:href="#SVGID_9_" overflow="visible"/>
		</clipPath>
	</g>
	<g clip-path="url(#SVGID_2_)">
		<defs>
			<rect id="SVGID_11_" x="-239.513" y="-662.159" width="595.276" height="841.89"/>
		</defs>
		<clipPath id="SVGID_12_">
			<use xlink:href="#SVGID_11_" overflow="visible"/>
		</clipPath>
	</g>
	<g clip-path="url(#SVGID_2_)">
		<defs>
			<rect id="SVGID_13_" x="4.031" y="27.605" width="102.8" height="102.564"/>
		</defs>
		<clipPath id="SVGID_14_">
			<use xlink:href="#SVGID_13_" overflow="visible"/>
		</clipPath>
		<path clip-path="url(#SVGID_14_)" fill="#004595" d="M29.64,113.686c0,0-4.46,0.831-8.182-1.873    c-3.723-2.704-6.409-8.168-9.189-12.644c-2.78-4.475-8.037-5.839-8.037-5.839s3.303-4.312,2.738-9.549    c-0.565-5.238-1.811-11.197-0.543-15.62c1.268-4.423,5.407-6.781,5.407-6.781s-1.962-3.924-0.44-8.105s5.885-8.136,9.305-11.913    c3.419-3.777,3.286-9.028,3.286-9.028s4.888,1.922,9.607,0c4.719-1.921,9.927-4.668,14.377-4.668c4.449,0,7.466,3.185,7.466,3.185    s3.017-3.185,7.467-3.185c4.449,0,9.656,2.747,14.377,4.668c4.719,1.922,9.606,0,9.606,0s-0.134,5.251,3.286,9.028    c3.419,3.777,7.782,7.731,9.304,11.913c1.522,4.182-0.326,8.372-0.326,8.372s4.025,2.092,5.294,6.515s0.021,10.382-0.543,15.62    c-0.565,5.237,2.737,9.549,2.737,9.549s-5.256,1.364-8.036,5.839c-2.779,4.476-5.467,9.939-9.188,12.644    c-3.723,2.704-8.199,1.803-8.199,1.803s-0.625,4.209-4.161,6.685c-3.535,2.477-9.202,3.19-14.021,4.289    c-4.819,1.099-7.634,5.345-7.634,5.345s-2.815-4.246-7.633-5.345c-4.819-1.099-10.486-1.813-14.022-4.289    C30.208,117.825,29.64,113.686,29.64,113.686"/>
		<path clip-path="url(#SVGID_14_)" fill="#FFFFFF" d="M47.341,59.18c0-1.389,1.199-2.515,2.679-2.515    c1.48,0,2.679,1.126,2.679,2.515c0,1.39-1.199,2.516-2.679,2.516C48.54,61.695,47.341,60.569,47.341,59.18"/>
		<path clip-path="url(#SVGID_14_)" fill="#FFFFFF" d="M28.905,65.995c1.644-5.22,4.753-9.787,8.846-13.223    c3.155,0.878,5.849,2.297,7.802,3.807c-0.444,0.684-0.819,1.527-0.868,2.376C39.982,59.218,34.326,61.644,28.905,65.995"/>
		<path clip-path="url(#SVGID_14_)" fill="#FFFFFF" d="M38.486,96.895c-6.629-5.198-10.888-13.281-10.888-22.359    c0-1.86,0.179-3.678,0.52-5.438c5.826-5.191,11.984-8.308,16.846-8.599c0.265,0.913,0.811,1.796,1.528,2.421    c-4.704,3.755-8.315,12.046-8.962,21.892C37.244,89.163,37.675,93.251,38.486,96.895"/>
		<path clip-path="url(#SVGID_14_)" fill="#FFFFFF" d="M40.206,98.186c-0.892-3.774-1.262-8.182-0.955-12.851    c0.654-9.953,4.112-18.266,8.605-21.622c0.68,0.299,1.442,0.466,2.245,0.466c1.114,0,2.181-0.368,3.035-0.916    c4.859,3.245,8.534,11.845,8.892,22.063c0.237,6.816-1.174,13.056-3.428,17.49c-0.857,0.078-1.726,0.118-2.603,0.118    C50.111,102.934,44.725,101.252,40.206,98.186"/>
		<path clip-path="url(#SVGID_14_)" fill="#FFFFFF" d="M54.277,62.226c5.28,3.532,9.217,12.282,9.58,22.645    c0.236,6.788-1.119,13.159-3.471,17.726c13.325-2.066,23.489-13.426,23.898-27.23c-2.373-2.846-5.461-5.65-9.101-8.127    c-7.082-4.819-14.519-7.229-19.907-6.876C55.1,61.046,54.719,61.684,54.277,62.226"/>
		<path clip-path="url(#SVGID_14_)" fill="#FFFFFF" d="M84.416,73.161c-2.305-2.691-5.204-5.301-8.586-7.602    c-7.156-4.871-14.705-7.231-20.421-6.788c-0.054-0.631-0.277-1.285-0.558-1.829c3.811-3.056,10.615-4.951,18.528-4.865    C79.734,57.003,83.997,64.602,84.416,73.161"/>
		<path clip-path="url(#SVGID_14_)" fill="#FFFFFF" d="M70.84,50.354c-7.111,0.307-13.318,2.257-16.976,5.289    c-0.71-0.665-1.515-1.157-2.531-1.363c1.354-2.671,3.154-5.469,5.377-8.133C61.946,46.275,66.676,47.759,70.84,50.354"/>
		<path clip-path="url(#SVGID_14_)" fill="#FFFFFF" d="M54.403,46.243c-2.047,2.596-3.805,5.369-5.032,7.985    c-1.035,0.133-2.057,0.448-2.814,1.057c-1.825-1.534-4.274-2.85-7.121-3.822C43.688,48.406,48.846,46.556,54.403,46.243"/>
		<path clip-path="url(#SVGID_14_)" fill="#FFFFFF" d="M46.241,115.893v-9.643h-0.816c-0.602,0.574-0.963,0.908-1.886,1.217v0.896    h1.257v7.53H46.241z"/>
		<path clip-path="url(#SVGID_14_)" fill-rule="evenodd" clip-rule="evenodd" fill="#FFFFFF" d="M51.079,108.021    c0-0.374,0.375-0.615,0.589-0.615c0.267,0,0.548,0.214,0.548,0.508v2.395c0,0.295-0.361,0.549-0.655,0.549    c-0.428,0-0.482-0.589-0.482-0.763V108.021z M53.607,114.107v-5.845c0-1.15-0.441-2.301-1.886-2.301    c-1.484,0-1.993,1.003-1.993,2.273v2.114c0,0.734,0.134,1.845,1.391,1.845c0.402,0,0.937-0.361,1.097-0.468v1.806    c0,0.749,0,1.164-0.588,1.164c-0.482,0-0.482-0.388-0.482-1.285l-1.391,0.014v0.789c0,0.963,0.562,1.967,1.966,1.967    C53.166,116.181,53.607,115.07,53.607,114.107"/>
		<path clip-path="url(#SVGID_14_)" fill-rule="evenodd" clip-rule="evenodd" fill="#FFFFFF" d="M57.675,108.115    c0-0.401,0.066-0.816,0.535-0.816c0.48,0,0.521,0.442,0.521,0.816v5.805c0,0.495-0.04,0.91-0.521,0.91    c-0.495,0-0.535-0.415-0.535-0.91V108.115z M60.148,113.92v-5.805c0-0.481,0.014-2.153-1.938-2.153    c-1.953,0-1.953,1.672-1.953,2.153v5.805c0,0.669,0,2.26,1.953,2.26C60.162,116.18,60.148,114.589,60.148,113.92"/>
		<polygon clip-path="url(#SVGID_14_)" fill="#FFFFFF" points="64.971,115.893 66.683,106.25 62.817,106.25 62.817,107.627     64.983,107.627 63.499,115.893   "/>
		<path clip-path="url(#SVGID_14_)" fill="#004595" d="M53.513,81.537v9.369c0,1.346-0.247,2.06-1.319,2.06    c-0.439,0-0.852-0.137-1.319-0.33l-0.384,4.314c1.099,0.438,2.225,0.687,3.352,0.687c3.983,0,5.494-1.951,5.494-5.99V81.537h1.869    v-4.176h-9.589v4.176H53.513z"/>
		<polygon clip-path="url(#SVGID_14_)" fill="#004595" points="30.195,83.618 38.167,88.24 38.502,84.362 37.082,83.538     37.354,80.396 41.399,82.742 41.127,85.884 39.707,85.06 39.372,88.938 47.344,93.56 47.679,89.682 46.257,88.857 47.123,78.843     48.544,79.667 48.871,75.887 40.898,71.265 40.572,75.045 41.994,75.869 41.736,78.839 37.69,76.493 37.947,73.522 39.369,74.347     39.694,70.566 31.724,65.945 31.396,69.725 32.817,70.549 31.952,80.563 30.53,79.74   "/>
		<polygon clip-path="url(#SVGID_14_)" fill="#004595" points="64.354,92.389 71.921,87.662 71.921,84.071 70.535,84.938     70.535,80.414 70.763,80.272 74.059,82.736 72.921,83.446 72.921,87.037 80.876,82.068 80.876,78.477 79.809,79.144     75.399,76.604 79.309,70.184 80.49,69.445 80.49,65.945 72.968,70.644 72.968,74.144 74.649,73.094 70.74,79.604 70.535,79.732     70.535,75.663 71.921,74.797 71.921,71.297 64.354,76.025 64.354,79.525 65.694,78.688 65.694,87.96 64.354,88.798   "/>
		<path clip-path="url(#SVGID_14_)" fill-rule="evenodd" clip-rule="evenodd" fill="#FFFFFF" d="M15.4,93.08    c4.854,3.921,5.586,10.209,10.729,13.946c2.264,1.645,4.814,1.764,7.452,1.29c0,0,0.177,1.217,0.255,1.523    c2.311,9.091,14.262,5.511,20.475,11.213c0.436,0.401,0.801,0.785,1.091,1.115c5.445-6.191,12.636-3.593,18.479-7.685    c2.222-1.556,3.017-3.747,3.406-6.243c0,0,1.9,0.37,3.136,0.282c7.995-0.567,9.226-10.557,15.072-15.442h6.476    c-0.776,0.258-1.666,0.588-2.301,0.932c-7.787,4.219-8.034,18.352-20.06,17.498c-3.135,10.907-15.548,6.743-21.688,12.379    c-1.022,0.939-1.752,1.996-2.521,3.144c0,0-0.999-1.49-1.266-1.817c-4.884-5.979-12.969-3.729-18.967-7.928    c-1.952-1.367-3.298-3.459-3.933-5.724C19.178,112.256,18.996,98.236,11.2,94.012c-0.635-0.344-1.524-0.674-2.3-0.93L15.4,93.08z"/>
		<path clip-path="url(#SVGID_14_)" fill-rule="evenodd" clip-rule="evenodd" fill="#FFFFFF" d="M100.015,66.673    c3.785,6.732-1.563,15.605,1.375,22.345c0.58,1.331,1.368,2.415,2.241,3.565c0,0-0.752,0.199-1.66,0.499l-6.476-0.002    c0.582-0.486,1.21-0.922,1.895-1.293c0.582-0.315,1.119-0.559,1.565-0.739c-4.431-7.687,0.74-14.005-1.363-21.342    c-0.345-1.2-0.912-2.193-1.645-3.033H100.015z M14.902,66.673c-5.034,6.253,1.06,15.33-2.208,22.829    c-0.265,0.607-0.54,1.13-0.78,1.546c1.374,0.556,2.513,1.247,3.486,2.033L8.9,93.08c-0.909-0.298-1.66-0.497-1.66-0.497    s1.096-1.446,1.335-1.832c4.35-7.026-0.737-14.375,1.417-21.885c0.22-0.77,0.533-1.501,0.921-2.192L14.902,66.673z"/>
		<path clip-path="url(#SVGID_14_)" fill-rule="evenodd" clip-rule="evenodd" fill="#FFFFFF" d="M10.914,66.673    c0.904-1.61,2.214-2.993,3.701-4.066c-3.924-11.064,9.112-14.995,10.96-23.365c0.326-1.477,0.271-4.106,0.271-4.106    s2.452,0.951,3.951,1.15c6.506,0.861,11.991-4.897,18.866-4.897c2.481,0,4.874,0.993,6.773,2.536    c1.898-1.543,4.292-2.536,6.771-2.536c9.309,0,12.395,7.79,22.818,3.747c0,0-0.055,2.63,0.271,4.106    c1.877,8.503,14.724,11.938,11.042,23.564c1.719,1.172,2.892,2.474,3.675,3.866l-4.066,0.001c-0.902-1.038-2.055-1.844-3.34-2.523    c0,0,0.733-1.684,0.948-2.925c1.627-9.393-10.283-11.927-11.375-21.994c-8.32,2.045-12.81-4.43-20.176-4.43    c-2.785,0-4.769,1.373-6.569,3.246c0,0-0.866-0.9-1.123-1.118c-1.506-1.275-3.444-2.128-5.447-2.128    c-7.367,0-11.856,6.475-20.175,4.43c-0.924,8.518-8.543,10.521-11.063,17.444c-0.91,2.5-0.369,4.896,0.757,7.188    c0,0-1.01,0.583-1.317,0.802c-0.884,0.628-1.596,1.3-2.165,2.007L10.914,66.673z"/>
	</g>
	<g clip-path="url(#SVGID_2_)">
		<defs>
			<rect id="SVGID_15_" x="-239.513" y="-662.159" width="595.276" height="841.89"/>
		</defs>
		<clipPath id="SVGID_16_">
			<use xlink:href="#SVGID_15_" overflow="visible"/>
		</clipPath>
	</g>
	<g clip-path="url(#SVGID_2_)">
		<path fill="#FFED00" d="M46.123,7.501h6.913l-5.568,4.177l2.16,6.624l-5.544-4.08l-5.544,4.08l2.184-6.624l-5.617-4.177h6.889    l2.088-6.457L46.123,7.501z"/>
		<path fill="#FFED00" d="M70.003,7.501h6.913l-5.569,4.177l2.161,6.624l-5.545-4.08l-5.545,4.08l2.185-6.624l-5.616-4.177h6.889    l2.088-6.457L70.003,7.501z"/>
	</g>
</g>
</svg>