<svg xmlns="http://www.w3.org/2000/svg" xmlns:xlink="http://www.w3.org/1999/xlink" version="1.1" id="Capa_1" x="0px" y="0px" width="549px" height="792px" viewBox="0 0 549 792" enable-background="new 0 0 549 792" xml:space="preserve">
<g>
	<path fill-rule="evenodd" clip-rule="evenodd" fill="#DE2526" d="M4.113,248.303c0,10.955-0.596,24.074,1.075,33.748   c1.581,9.155,3.905,21.58,4.339,30.483c0.357,7.323,12.755,48.287,15.728,54.691c2.649,5.707,7.26,20.545,10.207,24.616   c3.332,4.604,8.99,17.884,11.993,23.603c6.907,13.151,18.93,29.881,27.235,43.184c10.14,16.243,105.549,171.949,108.953,171.949   l182.711,0.054c31.719-50.805,62.022-103.287,95.404-152.965c5.653-8.412,10.366-16.69,15.776-25.236   c5.319-8.4,10.293-17.019,15.797-25.216c5.611-8.354,9.718-18.542,15.132-26.656c3.909-5.859,9.148-20.804,12.842-28.171   c2.9-5.784,8.474-24.314,10.248-31.54c1.318-5.372,2.837-10.316,4.33-15.791c1.348-4.952,2.315-12.276,3.569-17.323   c1.148-4.621,4.501-36.522,4.798-36.989v-35.597c-0.32-0.505-6.006-33.24-7.274-37.608c-2.812-9.68-6.631-25.647-10.959-33.149   c-5.501-9.536-9.474-19.73-15.016-29.093C407.717-39.235,153.445-38.373,39.893,131.456C18.192,163.91,4.113,205.83,4.113,248.303z   "/>
	<path fill-rule="evenodd" clip-rule="evenodd" fill="#FDFDFD" d="M377.876,136.097h24.763v267.747h-21.668l-68.098,194.233h34.823   c3.882,0,36.719-56.647,40.549-62.372c7.704-11.515,14.636-23.535,21.975-35.289c6.098-9.767,15.125-26.584,21.909-34.581   c2.556-3.013,7.978-13.906,10.447-18.185c1.704-2.95,3.352-4.184,5.482-8.445c0.617-1.232,4.788-7.694,5.708-8.996   c26.075-36.941,58.756-106.207,58.756-168.751v-17.024c0-14.552-4.54-31.77-7.567-43.505c-3.552-13.763-9.552-24.633-14.631-36.442   c-8.39-19.51-29.567-43.916-43.431-58.715c-12.313-13.144-40.994-35.833-57.926-44.22c-15.288-7.573-54.341-28.374-74.547-28.374   C334.284,53.736,371.825,119.813,377.876,136.097z"/>
	<path fill-rule="evenodd" clip-rule="evenodd" fill="#FDFDFD" d="M75.376,136.167c-5.966,8.4-9.936,15.898-15.381,24.857   c-13.007,21.398-23.381,51.571-23.381,77.218v28.632c0,10.98,2.277,27.418,4.013,37.774c1.876,11.193,6.404,22.262,8.676,33.111   c2.471,11.809,7.692,20.162,10.834,30.953c5.349,18.363,19.642,37.15,28.95,53.85c1.812,3.249,6.792,9.158,8.141,11.979   c1.58,3.307,5.747,10.185,7.897,12.996c3.588,4.691,13.151,20.331,15.706,25.308c3.979,7.745,10.816,17.749,15.752,25.261   c5.471,8.324,10.562,16.592,15.798,25.216c2.837,4.674,4.736,7.902,7.733,12.387c2.316,3.464,5.947,10.582,7.908,12.985   c4.548,5.572,29.498,49.382,32.646,49.382h34.822l-68.098-194.233h-21.667V135.323h24.763   c3.473-20.626,48.901-88.908,65.002-102.92c-13.602,0.303-56.761,18.147-67.476,23.837   C133.685,74.468,98.011,104.298,75.376,136.167z"/>
	<rect x="166.619" y="654.566" fill-rule="evenodd" clip-rule="evenodd" fill="#DE2526" width="215.126" height="133.873"/>
	<polygon fill-rule="evenodd" clip-rule="evenodd" fill="#FDFDFD" points="230.073,403.844 196.576,403.909 263.348,598.077    284.555,598.186 351.565,403.844 318.29,403.844 318.29,314.079 230.073,314.079  "/>
	<polygon fill-rule="evenodd" clip-rule="evenodd" fill="#FDFDFD" points="172.036,377.533 203.762,377.533 203.762,287.768    344.601,287.768 344.601,377.533 376.327,377.533 376.327,161.633 344.601,161.633 344.601,251.398 203.762,251.398    203.762,161.633 172.036,161.633  "/>
	<path fill-rule="evenodd" clip-rule="evenodd" fill="#FDFDFD" d="M200.667,135.323h29.405v89.765h88.217v-89.765h29.406   c-4.789-28.488-52.486-93.928-71.967-105.241C254.895,33.625,202.137,111.991,200.667,135.323z"/>
	<rect x="192.929" y="680.876" fill-rule="evenodd" clip-rule="evenodd" fill="#FDFDFD" width="162.506" height="80.479"/>
</g>
</svg>