<svg xmlns="http://www.w3.org/2000/svg" xmlns:xlink="http://www.w3.org/1999/xlink" version="1.0" id="Ebene_1" x="0px" y="0px" width="449.703px" height="568.273px" viewBox="0 0 449.703 568.273" enable-background="new 0 0 449.703 568.273" xml:space="preserve">
<path fill-rule="evenodd" clip-rule="evenodd" fill="#FFFFFF" stroke="#000000" stroke-width="7.0145" stroke-miterlimit="2.6131" d="  M31.905,287.434c0,69.223-27.773,151.591-27.773,151.591c89.489,67.471,91.693,125.742,91.693,125.742h258.056  c0,0,2.203-58.271,91.69-125.742c0,0-27.771-82.368-27.771-151.591v-6.592c0-69.224,27.771-151.592,27.771-151.592  c-89.487-67.472-91.69-125.742-91.69-125.742H95.825c0,0-2.205,58.27-91.693,125.742c0,0,27.773,82.368,27.773,151.592V287.434  L31.905,287.434z"/>
<path fill-rule="evenodd" clip-rule="evenodd" fill="#E2001A" stroke="#000000" stroke-width="7.0145" stroke-miterlimit="2.6131" d="  M53.063,297.072c0,58.271-24.245,134.941-24.245,134.941c76.128,66.806,84.639,111.724,84.639,111.724h222.79  c0,0,12.035-48.425,84.639-111.724c0,0-24.246-76.67-24.246-134.941v-25.869c0-58.271,24.246-134.943,24.246-134.943  c-77.892-66.804-84.639-111.724-84.639-111.724h-222.79c0,0-10.273,52.806-84.639,111.724c0,0,24.245,76.671,24.245,134.943V297.072  L53.063,297.072z"/>
<polygon fill-rule="evenodd" clip-rule="evenodd" points="374.207,196.064 374.207,146.993 268.85,146.993 268.85,147.211   268.627,147.211 268.627,255.649 233.362,255.649 233.362,105.153 183.991,105.153 183.991,255.649 148.724,255.649   148.724,147.211 99.351,147.211 99.351,413.155 148.724,413.155 148.724,304.719 183.991,304.719 183.991,455.214 233.362,455.214   233.362,304.719 268.627,304.719 268.627,413.155 318.001,413.155 318.001,304.719 353.046,304.719 353.046,255.649   318.001,255.649 318.001,196.064 374.207,196.064 "/>
<polygon fill-rule="evenodd" clip-rule="evenodd" fill="#FFFFFF" points="367.152,189.055 367.152,154.004 275.901,154.004   275.901,154.222 275.682,154.222 275.682,262.66 226.309,262.66 226.309,112.164 191.043,112.164 191.043,262.66 141.67,262.66   141.67,154.222 106.404,154.222 106.404,406.145 141.67,406.145 141.67,297.708 191.043,297.708 191.043,448.206 226.309,448.206   226.309,297.708 275.682,297.708 275.682,406.145 310.946,406.145 310.946,297.708 345.994,297.708 345.994,262.66 310.946,262.66   310.946,189.055 367.152,189.055 "/>
</svg>