<svg xmlns="http://www.w3.org/2000/svg" height="379.60669" viewBox="0 0 250 379.60669" width="250">
   <g transform="matrix(.13333333 0 0 -.13333333 -10.611962 395.51708)">
      <path d="m932.45369 2890.716h164.02031c0 0 2.3101-30.0313 43.8918-43.8918 41.5817-13.8606 133.9855-23.101 173.257-6.9303 39.2716 16.1707 170.947 80.8533 226.3892 80.8533 55.4423 0 212.5286-57.7524 249.4901-62.3726 36.9615-4.6201 101.6442 4.6202 117.8148-20.7908 16.1707-25.411 25.411-623.7253 20.7909-649.1363-4.6202-25.411-48.512-69.3028-48.512-69.3028l2.3101-510.5307c0 0-41.5817 20.7908-71.6129-34.6514-30.0312-55.4423-20.7909-150.1561-20.7909-184.8075 0-34.6514-9.2403-242.5599-2.3101-265.6608 6.9303-23.1009 16.1707-71.6129 30.0313-78.5432 13.8605-6.9275 39.2716-13.8578 39.2716-13.8578 0 0 57.7523-538.25178-53.1322-632.96562-110.8845-94.71384-427.3673-87.78356-531.3215-101.64413-103.9543-13.86056-108.5744-13.86056-161.7066-57.75234-53.1322-43.89141-99.334-94.71347-99.334-94.71347 0 0-34.65513 73.92263-103.95794 106.26394-69.30281 32.34131-108.5744 48.51197-177.87721 48.51197-69.30281 0-152.46618 0-249.49011 2.31009-97.02394 2.3101-173.25703 4.62019-205.59834 30.03122-32.34131 25.41103-46.20187 23.10094-92.40375 103.95421-46.20178 80.85328-46.20178 138.60562-43.89168 175.56712 2.31009 36.9615 0 415.81691 0 415.81691 0 0 25.41103-9.2404 57.75225 11.5504 32.34131 20.7881 25.41103 55.4395 32.34131 83.1606 6.93028 27.7211 4.62018 376.5453 4.62018 376.5453 0 0-23.10093 94.7138-39.27159 117.8148-16.17065 23.1009-43.89168 55.4422-43.89168 55.4422l2.31009 448.1582c0 0-41.58169 23.1009-53.132155 73.923-11.550468 50.822-6.930281 383.4755-6.930281 383.4755 0 0-11.550477 228.6993 18.480746 254.1103 30.03122 25.4111 122.43487 23.101 166.32665 39.2716 43.89178 16.1707 120.12487 50.8221 173.25703 53.1322 53.13215 2.3101 228.69927-62.3726 286.45161-76.2331 57.75234-13.8606 113.19459-20.7909 145.5359-2.3101 32.34131 18.4807 50.82206 46.2019 50.82206 46.2019" fill="#fff"/>
      <path d="m263.99945 339.90315l99.33403-40.65395c0 0 334.96358 2.31009 352.59975.99981 157.33124 143.01235 360.62777 330.859 448.16187 424.72827 152.5031 163.54355 123.5253 201.69336 281.5727 371.18402 155.5247 166.7795 184.2993 145.2402 340.1659 296.3111 2.5319 2.4487 7.7065 3.8625 7.6972 7.5032-.2495 107.4563-9.4898 202.1701 89.8442 211.4105v443.538c-108.5744-157.0864-178.2653-261.17-333.5498-427.6908-155.2845-166.5208-189.8065-134.3181-347.8631-303.8142-158.0474-169.487-129.0696-207.6313-281.57459-371.1785-152.50961-163.54816-656.38816-612.33745-656.38816-612.33745" fill="#1a67bb"/>
      <path d="m134.63402 622.66231l6.93028-4.62019c0 0 361.80058 317.62679 514.3065 481.16848 152.50961 163.5454 123.5244 201.6989 281.57824 371.1859 158.05476 169.4869 192.58606 137.2934 347.86126 303.8142 155.2845 166.5116 110.635 144.4178 209.9691 287.6437 0 0-15.875-4.0658-66.9927 23.1009-73.923 39.2716-115.4123 81.9529-136.2956 92.4037-9.2403 4.6202-2.3101-25.411-11.5874-37.7377-10.1737-13.5186-76.1961-1.5339-76.1961-1.5339l-13.8606 48.512c-13.8606 6.9303-82.2763-140.6015-154.7763-187.1176-164.14691-105.3218-183.77531-132.3314-341.82915-301.8276-158.05014-169.4869-129.06955-207.6312-281.57454-371.1766-44.16992-47.3661-86.4705-90.0382-178.76891-176.5189-6.36015-28.3125-36.39137-157.6814-95.82952-89.0032-.62447-278.89673-2.93456-438.29319-2.93456-438.29319" fill="#1a67bb"/>
      <path d="m169.28542 1620.6265c47.19078 0 34.65899-83.7271 54.14324-57.9649 72.82894 96.2847 81.10554 148.2526 205.79977 281.97 158.05384 169.487 181.86259 121.1229 332.91037 291.4876 11.29729 12.7425-36.12062-30.3731-8.3995 59.7206l-103.95421-76.2331c-55.44225-25.411-159.39646-73.923-194.04787-76.2331-249.10387-16.6142-304.93255 108.5744-304.93255 92.4038 0-203.3437-4.62018-231.4807-4.62018-455.0885 0-57.7523 6.93028-60.0624 23.10093-60.0624" fill="#1a67bb"/>
      <path d="m1788.6613 377.79238c93.1984 105.9104 83.1633 180.18731 93.3647 230.70906-.961 4.9205-.961 453.08236 1.0349 457.20356-50.2306-35.7371-99.1492-69.13278-182.1185-158.10003-158.0474-169.49249-129.0696-207.63769-281.5727-371.18123-79.8461-85.6287-256.0138-249.44391-405.7541-386.10369 88.9478 130.4484 220.6232 146.61906 322.2673 144.30896 385.7856-9.24037 399.2396 22.32844 452.7784 83.16337" fill="#1a67bb" fill-rule="evenodd"/>
      <path d="m169.28542 1620.6265c47.19078 0 34.65899-83.7271 54.14324-57.9649 72.82894 96.2847 81.10554 148.2526 205.79977 281.97 158.05384 169.487 185.00986 125.4012 336.06134 295.7659 11.29451 12.7333-39.27159-34.6514-11.55047 55.4423l-103.95421-76.2331c-55.44225-25.411-159.39646-73.923-194.04787-76.2331-249.10387-16.6142-304.93255 108.5744-304.93255 92.4038 0-203.3437-4.62018-231.4807-4.62018-455.0885 0-57.7523 6.93028-60.0624 23.10093-60.0624z" fill="none" stroke="#fab218" stroke-miterlimit="3.8636899" stroke-width="9.24129868"/>
      <path d="m263.99945 339.90315l99.33403-40.65395c0 0 334.96358 2.31009 352.59975.99981 157.33124 143.01235 360.62777 330.859 448.16187 424.72827 152.5031 163.54355 123.5253 201.69336 281.5727 371.18402 155.5247 166.7795 184.2993 145.2402 340.1659 296.3111 2.5319 2.4487 7.7065 3.8625 7.6972 7.5032-.2495 107.4563-9.4898 202.1701 89.8442 211.4105v443.538c-108.5744-157.0864-178.2653-261.17-333.5498-427.6908-155.2845-166.5208-189.8065-134.3181-347.8631-303.8142-158.0474-169.487-129.0696-207.6313-281.57459-371.1785-152.50961-163.54816-656.38816-612.33745-656.38816-612.33745z" fill="none" stroke="#fab218" stroke-miterlimit="3.8636899" stroke-width="9.24129868"/>
      <path d="m134.63402 622.66231l6.93028-4.62019c0 0 377.43345 347.19599 514.3065 481.16848 106.61082 104.3516 123.5244 201.6989 281.57824 371.1859 158.05476 169.4869 192.58606 137.2934 347.86126 303.8142 155.2845 166.5116 110.635 144.4178 209.9691 287.6437 0 0-15.875-4.0658-66.9927 23.1009-73.923 39.2716-115.4123 81.9529-136.2956 92.4037-9.2403 4.6202-2.3101-25.411-11.5874-37.7377-10.1737-13.5186-76.1961-1.5339-76.1961-1.5339l-13.8606 48.512c-13.8606 6.9303-82.2763-140.6015-154.7763-187.1176-164.14691-105.3218-183.77531-132.3314-341.82915-301.8276-158.05014-169.4869-129.06955-207.6312-281.57454-371.1766-44.16992-47.3661-86.4705-90.0382-178.76891-176.5189-6.36015-28.3125-36.39137-157.6814-95.82952-89.0032-.62447-278.89673-2.93456-438.29319-2.93456-438.29319z" fill="none" stroke="#fab218" stroke-miterlimit="3.8636899" stroke-width="9.24129868"/>
      <path d="m1788.6613 377.79238c93.1984 105.9104 83.1633 180.18731 93.3647 230.70906-.961 4.9205-12.6963 438.56576-10.7003 442.68696-50.2215-35.7381-87.414-54.61618-170.3833-143.58343-158.0474-169.49249-129.0696-207.63769-281.5727-371.18123-79.8461-85.6287-256.0138-249.44391-405.7541-386.10369 88.9478 130.4484 220.6232 146.61906 322.2673 144.30896 385.7856-9.24037 399.2396 22.32844 452.7784 83.16337z" fill="none" stroke="#fab218" stroke-miterlimit="3.8636899" stroke-width="9.24129868"/>
      <path d="m420.0971 2666.1194c0 24.1174 14.96848 34.9379 33.26535 34.9379v21.6132h-167.99094v-21.6132c18.29687 0 33.26535-10.8205 33.26535-34.9379v-248.6585c0-24.1081-14.96848-34.9193-33.26535-34.9193v-21.6318h167.99094v21.6318c-18.29687 0-33.26535 10.8112-33.26535 34.9193z" fill="#fab218"/>
      <path d="m420.0971 2666.1194c0 24.1174 14.96848 34.9379 33.26535 34.9379v21.6132h-167.99094v-21.6132c18.29687 0 33.26535-10.8205 33.26535-34.9379v-248.6585c0-24.1081-14.96848-34.9193-33.26535-34.9193v-21.6318h167.99094v21.6318c-18.29687 0-33.26535 10.8112-33.26535 34.9193z" fill="none" stroke="#1a67bb" stroke-miterlimit="3.8636899" stroke-width="9.24129868"/>
      <path d="m600.73903 2548.0274c0 24.6903 20.01095 44.6957 44.69292 44.6957 24.68196 0 44.69292-20.0054 44.69292-44.6957 0-24.681-20.01096-44.6864-44.69292-44.6864-24.68197 0-44.69292 20.0054-44.69292 44.6864" fill="#fab218"/>
      <path d="m600.73903 2548.0274c0 24.6903 20.01095 44.6957 44.69292 44.6957 24.68196 0 44.69292-20.0054 44.69292-44.6957 0-24.681-20.01096-44.6864-44.69292-44.6864-24.68197 0-44.69292 20.0054-44.69292 44.6864z" fill="none" stroke="#1a67bb" stroke-miterlimit="3.8636899" stroke-width="9.24129868"/>
      <path d="m792.34651 2722.6705v-21.6132c18.29317 0 33.26166-10.8205 33.26166-34.9379v-248.6585c0-24.1081-14.96849-34.9193-33.26166-34.9193v-21.6318h167.98724v21.6318c-18.29686 0-33.26535 10.8112-33.26535 34.9193v126.6578h46.45783c24.11923 0 34.93327-14.9694 34.93327-33.2653v-13.2969h21.6224v112.0211h-21.6224v-10.5618c0-18.2959-10.81404-33.2653-34.93327-33.2653h-46.45783v132.8026c0 0 54.88598 0 85.6601 0 30.7705 0 67.3624-8.3255 67.3624-52.3929v-13.3061h21.6224v89.8164z" fill="#fab218"/>
      <path d="m792.34651 2722.6705v-21.6132c18.29317 0 33.26166-10.8205 33.26166-34.9379v-248.6585c0-24.1081-14.96849-34.9193-33.26166-34.9193v-21.6318h167.98724v21.6318c-18.29686 0-33.26535 10.8112-33.26535 34.9193v126.6578h46.45783c24.11923 0 34.93327-14.9694 34.93327-33.2653v-13.2969h21.6224v112.0211h-21.6224v-10.5618c0-18.2959-10.81404-33.2653-34.93327-33.2653h-46.45783v132.8026c0 0 54.88598 0 85.6601 0 30.7705 0 67.3624-8.3255 67.3624-52.3929v-13.3061h21.6224v89.8164z" fill="none" stroke="#1a67bb" stroke-miterlimit="3.8636899" stroke-width="9.24129868"/>
      <path d="m1180.3951 2548.0274c0 24.6903 20.0147 44.6957 44.6957 44.6957 24.6811 0 44.6865-20.0054 44.6865-44.6957 0-24.681-20.0054-44.6864-44.6865-44.6864-24.681 0-44.6957 20.0054-44.6957 44.6864" fill="#fab218"/>
      <path d="m1180.3951 2548.0274c0 24.6903 20.0147 44.6957 44.6957 44.6957 24.6811 0 44.6865-20.0054 44.6865-44.6957 0-24.681-20.0054-44.6864-44.6865-44.6864-24.681 0-44.6957 20.0054-44.6957 44.6864z" fill="none" stroke="#1a67bb" stroke-miterlimit="3.8636899" stroke-width="9.24129868"/>
      <path d="m1734.4757 2411.6487l-171.871 180.1781c24.3854 26.6123 62.0861 73.461 77.0555 90.9253 14.9694 17.4643 24.949 18.3052 42.4226 18.3052 17.455 0 44.899 0 44.899 0v23.2765h-111.4297c-37.4235-60.7-62.3725-90.6481-104.7951-138.8829h-29.9296v80.6685c0 24.1174 14.9602 34.9379 33.2654 34.9379v21.6132h-167.9993v-21.6132c18.3052 0 33.2654-10.8205 33.2654-34.9379v-248.6585c0-24.1081-14.9602-34.9193-33.2654-34.9193v-21.6318h167.9993v21.6318c-18.3052 0-33.2654 10.8112-33.2654 34.9193v138.8829h26.6123l2.1438-.536 132.5531-138.3469c23.101-24.1081 17.0763-34.9193-1.2197-34.9193h-7.6695v-21.6318h166.2251v21.6318c-18.2959 0-41.8959 4.9805-64.9968 29.1071" fill="#fab218"/>
      <path d="m1734.4757 2411.6487l-171.871 180.1781c24.3854 26.6123 62.0861 73.461 77.0555 90.9253 14.9694 17.4643 24.949 18.3052 42.4226 18.3052 17.455 0 44.899 0 44.899 0v23.2765h-111.4297c-37.4235-60.7-62.3725-90.6481-104.7951-138.8829h-29.9296v80.6685c0 24.1174 14.9602 34.9379 33.2654 34.9379v21.6132h-167.9993v-21.6132c18.3052 0 33.2654-10.8205 33.2654-34.9379v-248.6585c0-24.1081-14.9602-34.9193-33.2654-34.9193v-21.6318h167.9993v21.6318c-18.3052 0-33.2654 10.8112-33.2654 34.9193v138.8829h26.6123l2.1438-.536 132.5531-138.3469c23.101-24.1081 17.0763-34.9193-1.2197-34.9193h-7.6695v-21.6318h166.2251v21.6318c-18.2959 0-41.8959 4.9805-64.9968 29.1071z" fill="none" stroke="#1a67bb" stroke-miterlimit="3.8636899" stroke-width="9.24129868"/>
      <path d="m148.97471 2127.3039c-55.442247 30.7982-46.20187 86.2404-46.20187 86.2404v572.9033c-3.082592 86.2496 80.08041 77.0093 80.08041 77.0093 58.52484 0 141.68821 27.7211 141.68821 27.7211 141.68451 73.923 323.41311-6.1634 323.41311-6.1634 172.48453-86.2404 271.04976-18.4807 271.04976-18.4807 30.80001 12.3174 3.07889 64.6826 3.07889 64.6826" fill="none" stroke="#fab218" stroke-width="46.20187378"/>
      <path d="m1112.0903 2929.0912c0 0-27.7212-52.3559 3.077-64.6826 0 0 98.5671-67.7597 271.0572 18.4808 0 0 181.7212 80.0863 323.4131 6.1633 0 0 83.1633-27.7211 141.6826-27.7211 0 0 83.1634 9.2403 80.0864-77.0001v-572.9032c0 0 9.2403-55.4422-46.2019-86.2497" fill="none" stroke="#fab218" stroke-width="46.20187378"/>
      <path d="m940.56397 2863.4569c0 0 33.88261 9.2403 27.72112 70.8367 0 0-9.24037 46.2018-64.68262 27.7211 0 0-43.11928-24.6348-3.07889-61.5963 0 0 33.8826 0 3.07889-18.4808z" fill="#fab218"/>
      <path d="m1091.4935 2863.0688c0 0-33.8845 9.2403-27.7211 70.8459 0 0 9.2403 46.2019 64.6826 27.7211 0 0 43.1156-24.644 3.077-61.6055 0 0-33.8844 0-3.077-18.4808z" fill="#fab218"/>
      <path d="m1869.6069 1068.5141c0 0-10.3954 21.9459-23.1009 2.3101 0 0-45.0468 2.3101-26.5661 35.8064 0 0 6.9303 32.3413 47.3569 15.0156 0 0 20.7909 2.3101 21.9459-49.667z" fill="#fab218"/>
      <path d="m844.60176 2194.2966h338.81494" fill="none" stroke="#fab218" stroke-miterlimit="3.8636899" stroke-width="20.9543972"/>
      <path d="m216.73586 2165.8086c0 0 4.62018-64.6827 55.44224-27.7212 0 0 55.44225 60.0625-13.86056 83.1634 0 0-115.50431 23.101-110.88412-64.6826 0 0 0-55.4423 138.60525-97.0239 0 0 138.60562-69.3028 378.85536 69.3028 0 0 64.68262 50.822 78.54318 60.0624 0 0 50.82206 41.5817 64.68262 4.6202 0 0-18.48075 27.7211-46.20187 4.6202 0 0-46.20187-60.0625 18.48075-60.0625 0 0 73.923-4.6201 64.68262 83.1634 0 0-23.10094 101.6441-106.26431 27.7211 0 0-87.78356-97.0239-226.38918-138.6056 0 0-231.00936-55.4422-295.69198 55.4423z" fill="none" stroke="#fab218" stroke-miterlimit="3.8636899" stroke-width="20.9543972"/>
      <path d="m1815.3197 2156.5682c0 0-4.6201-64.6826-55.4422-27.7211 0 0-55.4423 60.0624 13.8606 83.1633 0 0 115.5046 23.101 110.8845-64.6826 0 0 0-55.4422-138.6057-97.0239 0 0-138.6056-69.3028-378.8553 69.3028 0 0-64.6826 50.8221-78.5432 60.0624 0 0-50.8221 41.5817-64.6826 4.6202 0 0 18.4807 27.7211 46.2018 4.6202 0 0 46.2019-60.0624-18.4807-60.0624 0 0-73.923-4.6202-64.6826 83.1633 0 0 23.1009 101.6442 106.2643 27.7212 0 0 87.7835-97.024 226.3892-138.6057 0 0 231.0093-55.4422 295.6919 55.4423z" fill="none" stroke="#fab218" stroke-miterlimit="3.8636899" stroke-width="20.9543972"/>
      <path d="m838.44027 2237.4215h354.21683" fill="none" stroke="#fab218" stroke-miterlimit="3.8636899" stroke-width="20.9543972"/>
      <path d="m147.43342 2156.5682v-535.9417c0 0 27.72075 18.4807 50.82169-13.8606 0 0 36.9615-55.4422 36.9615-124.7451v-328.0333c0 0-4.62019-83.1633-55.44225-106.2643 0 0-36.96113-27.7248-41.58132 27.7212v-438.92153c0 0-13.86056-300.31217 244.86956-337.27367h328.0333c0 0 227.4509 16.17065 304.9314-157.08674 0 0 65.7453 150.15646 258.7305 152.46655h323.4131c0 0 235.6296-13.86056 281.8315 281.83143v494.36376c0 0 13.8605-27.7211-32.3413-32.345 0 0-46.2019-9.2404-55.4423 87.7872v364.9948c0 0 0 120.1249 92.4038 120.1249v535.9417" fill="none" stroke="#fab218" stroke-width="18.48074913"/>
      <path d="m147.43342 1069.6691c0 0 10.39542 21.9459 23.10056 2.3101 0 0 45.04683 2.3101 26.56608 35.8065 0 0-6.93028 32.3413-47.35655 15.0156 0 0-20.79084 2.3101-21.94589-49.667z" fill="#fab218"/>
      <path d="m1049.4313 2138.0874c0 0 22.2601-.7022 37.5714-13.3985 15.302-12.6963 33.2191-35.6586 53.5664-52.8734 20.3566-17.2241 21.8905-17.2888 38.4122-34.5128 16.5218-17.2148 42.09-39.4841 64.35-64.3592 22.2693-24.8659 49.0572-56.699 68.1847-77.7485 19.1369-21.0404 37.5714-43.3097 56.7082-62.4373 19.1276-19.1368 52.8734-52.8826 52.8734-52.8826l49.7502 49.0571 39.4841-43.3188-19.1368-21.0404c0 0 17.2148-9.5638 19.1368-19.1368 1.9128-9.5638 0-15.3021 0-15.3021 0 0 24.8659 5.0361 28.6914-7.6602 3.8348-12.6963 7.6603-33.7366 7.6603-33.7366 0 0 27.9983-13.3986 27.9983-26.7879 0-13.3985-24.1728-39.4841-24.1728-39.4841 0 0 14.609-9.5638 8.8707-21.0496-5.7382-11.4765-16.5217-28.6913-24.182-26.7878-7.651 1.922-17.2148 9.573-17.2148 9.573 0 0-14.0916-28.0076-32.5262-39.4841-18.4345-11.4766-54.7954-32.5261-54.7954-32.5261l-33.7366-96.1923-15.3113-5.7383-22.9623-47.8282-19.1276 11.4766-26.0948-56.699-13.3893 11.4766c0 0-31.3064-39.4842-42.0899-58.621-10.7835-19.1275-37.5714-45.2224-28.0076-93.0505 9.5638-47.8282 22.2693-64.3592 45.2224-93.0599 22.9623-28.6913 58.6209-68.8768 72.0102-94.96605 13.3893-26.09297 40.1772-96.19046 40.1772-96.19046l20.3565-13.39115c0 0 32.5262-11.47839 45.9155-9.56471 13.3985 1.91276 29.9203 17.91339 35.6586 32.5252 5.7382 14.61088 15.302 31.83216 7.651 49.04975-7.651 17.21759-54.7862 96.18582-62.4465 111.49712-7.651 15.3021-19.1275 73.923-13.3893 87.3123 5.7383 13.3986 28.7006 42.0899 28.7006 42.0899l26.7879-38.2644c0 0-5.7383-14.609-5.7383-31.8331 0-17.2148 6.958-52.8734 18.4346-68.1754 11.4765-15.3123 34.4388-38.2691 34.4388-38.2691 0 0 1.9128 20.351-7.651 49.0526-9.573 28.7006-24.8751 62.4372-30.6134 72.0102-5.7382 9.5638-68.1847 119.1454-62.4464 165.0608 5.7383 45.9247 10.2661 82.2763 45.9247 102.6236 35.6493 20.3566 49.7409 31.8331 83.4867 28.0076 33.7459-3.8255 88.5321-8.8708 103.8341-22.2693 15.3113-13.3893 42.7922-75.8358 44.0119-91.1378 1.2198-15.3113-7.651-21.0496-7.651-21.0496 0 0 3.8255-29.9203 1.9128-45.2224-1.9128-15.302-15.3113-44.0026-15.3113-44.0026 0 0-21.0404 11.4765-36.3517 24.8658-15.302 13.3985-47.1351 29.9203-52.8734 47.1444-5.7383 17.2148-3.8255 81.574-17.2241 91.1378-13.3893 9.5638-50.9606 21.0496-70.0974 1.9128-19.1276-19.1276-39.4842-38.2644-35.6494-72.0103 3.8255-33.7458 20.3473-72.7032 31.8239-98.7888 11.4857-26.0948 43.3096-105.7561 54.7954-124.8929 11.4765-19.1276 26.7786-83.48866 19.1275-128.71197-7.651-45.22425-17.2148-103.84241-56.6989-121.06-39.4841-17.22129-81.5833-15.30853-94.9726-15.30853-13.3893 0-41.3968 11.48209-41.3968 11.48209 0 0-17.2149-30.61244-15.3021-45.92004 1.9128-15.30483 1.9128-35.65861 13.3893-45.22332 11.4765-9.56563 96.1923-27.47995 105.7561-42.09083 9.5638-14.6118 24.8658-34.44257 24.8658-60.53185 0-26.08927-3.8255-52.87619-5.7382-66.26734-1.9128-13.39485 1.9127-50.96621 1.9127-50.96621l-31.8238 13.39115c0 0 0-33.21822-9.5731-49.74279-9.5637-16.52456-37.0446-45.22331-53.5664-47.137-16.5218-1.91275-58.6209 7.65288-58.6209 7.65288l-39.4842-3.82644-68.1847 3.82644 20.3566 26.09297c0 0-22.2693-4.35314-33.7459-1.22065-11.4765 3.12971-47.1351 14.6118-47.1351 14.6118l33.7458 34.43888-5.7475 21.0468-1.9128 14.61088c0 0 33.7459 21.04773 49.0572 17.22129 15.302-3.82921 60.5244-33.74493 73.923-33.74493 13.3893 0 34.4389 6.95893 36.3516 18.43732 1.9128 11.4784-3.8255 56.70171-9.573 66.27012-5.7383 9.56564-24.1728 22.96049-37.5621 22.96049-13.3986 0-106.4492-1.91646-116.0222 1.90906-9.5638 3.83013-47.1351 9.56933-58.6117 17.22128-11.4858 7.65196-37.5713 47.137-37.5713 58.61909 0 11.47839-13.3986-13.39485-13.3986-13.39485l-22.9531 45.91635-15.3113 43.31426c0 0 1.9128 29.91571 11.4858 45.22331 9.5638 15.30484 41.3969 54.26595 43.3096 66.96407 1.9128 12.69813-14.609 55.48568-28.0075 68.1838-13.3893 12.69813-62.4465 45.22422-77.7485 54.78892-15.30672 9.5657-81.57407 66.2748-91.1434 81.5768-9.56471 15.3021-50.96251 56.7082-58.61447 62.4465-7.65565 5.7383-39.48504 5.7383-45.22424 13.3893-5.73919 7.651-7.65195 39.4841-7.65195 39.4841l-17.22129 13.3986-34.43795 21.0403 26.786 89.2343 24.87324-19.1368 45.22054-19.1276 17.22037-3.8348 28.00295-13.3893 45.92004 5.7383 39.48505-5.7383 26.78511 15.3021 45.2224-7.651 40.1771 15.3113 41.3969-1.9128 22.9623 37.5714 39.4841-3.1325 24.8751 18.4345 3.8255 26.7879c0 0-24.8751 0-24.8751 13.3893 0 13.3893 29.3937 47.1351 47.8375 64.3592 18.4345 17.2148 59.3047 68.1847 73.923 81.574 14.609 13.3893 20.3473 54.7954 26.0855 70.0975 5.7383 15.3021 7.6511 24.1821 7.6511 24.1821l-39.4841 36.3516 58.6209 58.6117-202.6322 233.2548-90.0659 106.5138z" fill="#fab218" fill-rule="evenodd"/>
      <path d="m996.43589 2049.5462c0 7.5401 6.11901 13.6572 13.66841 13.6572 7.5493 0 13.6665-6.1171 13.6665-13.6572 0-7.5494-6.1172-13.6665-13.6665-13.6665-7.5494 0-13.66841 6.1171-13.66841 13.6665" fill="#fab218"/>
      <path d="m996.43589 2049.5462c0 7.5401 6.11901 13.6572 13.66841 13.6572 7.5493 0 13.6665-6.1171 13.6665-13.6572 0-7.5494-6.1172-13.6665-13.6665-13.6665-7.5494 0-13.66841 6.1171-13.66841 13.6665z" fill="none" stroke="#1a67bb" stroke-miterlimit="3.8636899" stroke-width="9.24129868"/>
      <path d="m411.84544 1505.1218c-23.10093-2.3101-36.9615-2.3101-43.89178-20.7909-6.93028-18.4807-23.10093-50.822-25.41103-73.923-2.31009-23.1009-6.93028-97.0239 6.93028-122.4349 13.86057-25.4111 13.86057-62.3725 41.58169-97.024 27.72112-34.6514 55.44225-92.4037 78.54318-115.5046 23.10094-23.101 87.78356-92.40748 87.78356-92.40748 0 0 97.02394 99.33768 110.8845 122.43868 13.86056 23.1009 64.68262 101.6441 78.54318 127.0551 13.86056 25.4111 32.34131 90.0937 32.34131 113.1946 0 23.101 4.62019 55.4423 0 76.2331-4.62018 20.7909-23.10093 60.0624-34.6514 66.9927-11.55047 6.9303-32.34131 23.101-43.89178 20.7909-11.55047-2.3101-39.27159 0-41.58169-13.8606-2.31009-13.8606-2.31009-18.4807-2.31009-18.4807h-212.52862c0 0 4.62019 9.2403-4.62018 16.1706-9.24038 6.9303-4.62019 13.8606-27.72113 11.5505" fill="#fff"/>
      <path d="m967.57451 2011.6514c0 14.9232 12.10581 27.0281 27.03549 27.0281 14.9306 0 27.0355-12.1049 27.0355-27.0281 0-14.9324-12.1049-27.0373-27.0355-27.0373-14.92968 0-27.03549 12.1049-27.03549 27.0373" fill="#fab218"/>
      <path d="m967.57451 2011.6514c0 14.9232 12.10581 27.0281 27.03549 27.0281 14.9306 0 27.0355-12.1049 27.0355-27.0281 0-14.9324-12.1049-27.0373-27.0355-27.0373-14.92968 0-27.03549 12.1049-27.03549 27.0373z" fill="none" stroke="#1a67bb" stroke-miterlimit="3.8636899" stroke-width="10.47766018"/>
      <path d="m964.4411 2049.8881c0 7.5494 6.11805 13.6665 13.66559 13.6665 7.54754 0 13.66559-6.1171 13.66559-13.6665 0-7.5402-6.11805-13.6665-13.66559-13.6665-7.54754 0-13.66559 6.1263-13.66559 13.6665" fill="#fab218"/>
      <path d="m964.4411 2049.8881c0 7.5494 6.11805 13.6665 13.66559 13.6665 7.54754 0 13.66559-6.1171 13.66559-13.6665 0-7.5402-6.11805-13.6665-13.66559-13.6665-7.54754 0-13.66559 6.1263-13.66559 13.6665z" fill="none" stroke="#1a67bb" stroke-miterlimit="3.8636899" stroke-width="9.24129868"/>
      <path d="m979.35599 2071.7508c0 7.5494 6.11805 13.6665 13.66559 13.6665 7.54752 0 13.66372-6.1171 13.66372-13.6665 0-7.5494-6.1162-13.6665-13.66372-13.6665-7.54754 0-13.66559 6.1171-13.66559 13.6665" fill="#fab218"/>
      <path d="m979.35599 2071.7508c0 7.5494 6.11805 13.6665 13.66559 13.6665 7.54752 0 13.66372-6.1171 13.66372-13.6665 0-7.5494-6.1162-13.6665-13.66372-13.6665-7.54754 0-13.66559 6.1171-13.66559 13.6665z" fill="none" stroke="#1a67bb" stroke-miterlimit="3.8636899" stroke-width="9.24129868"/>
      <path d="m996.89791 1983.8102c17.08729 3.4189 20.50629 11.957 20.50629 11.957 0 0 72.2042-1.7095 90.9992-23.9141 18.7949-22.2046 29.5045-53.4278 29.5045-53.4278l-20.4952-20.4952-20.9664 13.6665c0 0-1.7095 27.7951-20.4951 38.0519-18.795 10.2476-60.2658 10.2476-60.2658 10.2476v-44.8805h-8.5381c0 0-5.1191 20.4951-13.6637 18.7856-8.54366-1.7094-20.50255-15.3759-20.50255-15.3759v39.7613c0 0-41.46248 5.5904-56.83847-10.2476-15.37321-15.8472-17.08453-34.6329-17.08453-34.6329l-32.9216-13.6665-11.95889 11.957c0 0 17.0836 51.7184 38.04816 67.0944 20.96734 15.3667 79.04863 17.0762 79.04863 17.0762 0 0 0-8.5381 25.62356-11.957" fill="#fab218"/>
      <path d="m996.89791 1983.8102c17.08729 3.4189 20.50629 11.957 20.50629 11.957 0 0 72.2042-1.7095 90.9992-23.9141 18.7949-22.2046 29.5045-53.4278 29.5045-53.4278l-20.4952-20.4952-20.9664 13.6665c0 0-1.7095 27.7951-20.4951 38.0519-18.795 10.2476-60.2658 10.2476-60.2658 10.2476v-44.8805h-8.5381c0 0-5.1191 20.4951-13.6637 18.7856-8.54366-1.7094-20.50255-15.3759-20.50255-15.3759v39.7613c0 0-41.46248 5.5904-56.83847-10.2476-15.37321-15.8472-17.08453-34.6329-17.08453-34.6329l-32.9216-13.6665-11.95889 11.957c0 0 17.0836 51.7184 38.04816 67.0944 20.96734 15.3667 79.04863 17.0762 79.04863 17.0762 0 0 0-8.5381 25.62356-11.957z" fill="none" stroke="#1a67bb" stroke-miterlimit="3.8636899" stroke-width="10.47766018"/>
      <path d="m1511.6533 1174.917c9.2034 5.267 19.0629 5.9231 29.5785 5.9231 10.5247 0 39.9184 2.9015 53.9175-26.9542 9.8595-21.0403-1.4045-51.9401-1.4045-88.0977 0-36.1632 5.5627-75.57613 37.5621-90.73589 12.493-5.91199 50.628-17.74798 57.854-25.63834 3.9456 9.20434 5.267 20.38334 0 28.92699l15.7826-3.28865c-1.3122 15.78072-.6561 34.18939-13.8052 45.36839l11.1717-1.9747c-6.5699 42.7312.8778 104.7526-21.0311 127.5486-16.4387 17.0947-29.5877 23.6646-44.0489 31.5559-14.4704 7.8913-24.2283 25.1985-57.7708 40.8517-9.8595 4.6017-32.3044 7.7065-44.7974 7.7065-21.031 0-32.2119-3.8533-42.7367-8.455z" fill="#fab218"/>
      <path d="m1511.6533 1174.917c9.2034 5.267 19.0629 5.9231 29.5785 5.9231 10.5247 0 39.9184 2.9015 53.9175-26.9542 9.8595-21.0403-1.4045-51.9401-1.4045-88.0977 0-36.1632 5.5627-75.57613 37.5621-90.73589 12.493-5.91199 50.628-17.74798 57.854-25.63834 3.9456 9.20434 5.267 20.38334 0 28.92699l15.7826-3.28865c-1.3122 15.78072-.6561 34.18939-13.8052 45.36839l11.1717-1.9747c-6.5699 42.7312.8778 104.7526-21.0311 127.5486-16.4387 17.0947-29.5877 23.6646-44.0489 31.5559-14.4704 7.8913-24.2283 25.1985-57.7708 40.8517-9.8595 4.6017-32.3044 7.7065-44.7974 7.7065-21.031 0-32.2119-3.8533-42.7367-8.455z" fill="none" stroke="#1a67bb" stroke-width="18.40682602"/>
      <path d="m1482.0656 1763.3348c10.5248-.6561 30.8998-9.8595 31.5652-30.2437 18.3975 1.9774 38.7818-19.0629 32.2027-44.0397 17.0946-.656 34.7253-18.7764 27.6194-40.1124-4.6017-13.8051-12.3174-18.2313-25.4664-27.4347 0 0 6.5791-8.5473 9.8594-11.8369 3.2896-3.2804 6.5792-7.8821.6654-13.8051-5.9231-5.9139-12.8442-10.8667-17.4459-15.4684-4.6017-4.6017-11.8369-3.9457-15.7825 0-3.9457 3.9456-86.6932 84.9005-86.6932 84.9005" fill="none" stroke="#1a67bb" stroke-width="18.40682602"/>
      <path d="m1556.3582 1627.2426c-8.5473-3.2804-19.7282-2.6243-26.9541 4.6017-7.226 7.2352-9.2034 17.76-7.226 24.986 1.9682 7.2352 15.1173 23.0177 20.375 26.2981" fill="none" stroke="#1a67bb" stroke-width="10.51831913"/>
      <path d="m1531.3815 1671.3007c-7.9005-5.9231-21.6964-13.1491-32.8772 0-11.1809 13.149-11.7168 18.6378-5.9139 30.2345 4.6017 9.2126 17.0947 27.6102 26.2981 24.986" fill="none" stroke="#1a67bb" stroke-width="10.51831913"/>
      <path d="m1507.0516 1733.0911c-1.9682-6.5699-1.9682-13.1398-7.8913-21.0311-5.9138-7.8913-14.4612-19.0629-24.9859-11.8369-10.5156 7.2352-17.0947 19.0628-3.9457 49.9627" fill="none" stroke="#1a67bb" stroke-width="10.51831913"/>
      <path d="m1548.467 1616.727c-11.1716-3.9456-21.6964-5.2577-30.8998-9.8595-3.2804 9.2035-7.2353 26.9542-3.2804 51.2841-12.493-4.6109-28.9316-11.1808-35.5107-16.4386.6653 19.719 1.9774 28.9224 5.923 49.3066-8.5473-7.2259-20.3842-17.0947-27.6194-21.6964-3.9457 13.8052-5.2578 35.5016 5.923 52.5963" fill="#1a67bb"/>
      <path d="m1548.467 1616.727c-11.1716-3.9456-21.6964-5.2577-30.8998-9.8595-3.2804 9.2035-7.2353 26.9542-3.2804 51.2841-12.493-4.6109-28.9316-11.1808-35.5107-16.4386.6653 19.719 1.9774 28.9224 5.923 49.3066-8.5473-7.2259-20.3842-17.0947-27.6194-21.6964-3.9457 13.8052-5.2578 35.5016 5.923 52.5963" fill="none" stroke="#1a67bb" stroke-width="6.57452631"/>
      <path d="m1340.7156 1581.8816c13.8051 24.9859 13.2415 30.1144 24.3207 65.7452 9.2126 29.5877 21.0403 40.1033 28.2755 49.3067 7.226 9.2126 17.7508 23.6738 26.9542 23.0178 9.2034-.6654 19.0721-5.9231 21.0403-13.8052 1.9682-7.9005-2.5411-22.2693-2.6335-31.5651-.083-9.2866-.3511-23.3504-1.9682-30.2437-2.6335-11.1716-9.8687-24.9768-17.0947-28.9224" fill="none" stroke="#1a67bb" stroke-linecap="round" stroke-linejoin="round" stroke-width="15.77701473"/>
      <path d="m1442.6185 1696.2774c2.6335 20.3843 5.9231 33.5333 12.493 50.628-19.0722-2.6335-26.2981-11.1808-34.8455-26.9541" fill="#1a67bb"/>
      <path d="m1442.6185 1696.2774c2.6335 20.3843 5.9231 33.5333 12.493 50.628-19.0722-2.6335-26.2981-11.1808-34.8455-26.9541" fill="none" stroke="#1a67bb" stroke-width="6.57452631"/>
      <path d="m1682.1659 1267.7828c0 0 10.2291-24.6072 3.7147-48.4843 3.2803 60.4875-63.4444 43.3928-53.2523 109.4615 4.9344-35.0118 49.5376-60.9772 49.5376-60.9772" fill="#1a67bb"/>
      <path d="m1682.1659 1267.7828c0 0 10.2291-24.6072 3.7147-48.4843 3.2803 60.4875-63.4444 43.3928-53.2523 109.4615 4.9344-35.0118 49.5376-60.9772 49.5376-60.9772z" fill="none" stroke="#1a67bb" stroke-width=".43891779"/>
      <path d="m1690.9997 1315.3984c0 0 1.5986-15.7825-2.0975-33.4409-2.6982 46.4791-51.3857 35.1411-43.1341 88.6614 4.1305-29.2366 45.2316-55.2205 45.2316-55.2205" fill="#1a67bb"/>
      <path d="m1690.9997 1315.3984c0 0 1.5986-15.7825-2.0975-33.4409-2.6982 46.4791-51.3857 35.1411-43.1341 88.6614 4.1305-29.2366 45.2316-55.2205 45.2316-55.2205z" fill="none" stroke="#1a67bb" stroke-width=".43891779"/>
      <path d="m1684.1619 962.20634c-13.5279 32.12047-44.3076 34.21804-41.0181 72.01676 6.5699-28.5944 49.205-50.13278 49.205-50.13278 0 0-4.4538-7.3886-2.9476-19.81598z" fill="#1a67bb"/>
      <path d="m1684.1619 962.20634c-13.5279 32.12047-44.3076 34.21804-41.0181 72.01676 6.5699-28.5944 49.205-50.13278 49.205-50.13278 0 0-4.4538-7.3886-2.9476-19.81598z" fill="none" stroke="#1a67bb" stroke-width=".43891779"/>
      <path d="m1695.6014 1024.1492c0 0 4.2229-23.3393.536-41.00417-11.5782 50.09297-51.6814 40.88867-40.5006 113.32117 2.6243-39.2254 39.9646-72.317 39.9646-72.317" fill="#1a67bb"/>
      <path d="m1695.6014 1024.1492c0 0 4.2229-23.3393.536-41.00417-11.5782 50.09297-51.6814 40.88867-40.5006 113.32117 2.6243-39.2254 39.9646-72.317 39.9646-72.317z" fill="none" stroke="#1a67bb" stroke-width=".43891779"/>
      <path d="m1497.1921 542.77927c-2.6335 39.44901-36.1668 28.27-34.522 68.04704 5.5904-10.52201 15.4499-26.62706 36.8136-29.58398z" fill="#1a67bb"/>
      <path d="m1497.1921 542.77927c-2.6335 39.44901-36.1668 28.27-34.522 68.04704 5.5904-10.52201 15.4499-26.62706 36.8136-29.58398z" fill="none" stroke="#1a67bb" stroke-width=".43891779"/>
      <path d="m1493.5699 524.69955c-22.6759 15.12003-33.4871 30.50063-42.7275 51.94107 3.613-23.34303 10.1829-70.34974 9.2034-91.06112l5.5812 50.63079z" fill="#1a67bb"/>
      <path d="m1493.5699 524.69955c-22.6759 15.12003-33.4871 30.50063-42.7275 51.94107 3.613-23.34303 10.1829-70.34974 9.2034-91.06112l5.5812 50.63079z" fill="none" stroke="#1a67bb" stroke-width=".43891779"/>
      <path d="m1315.7296 433.64213c21.373 9.53607 38.1351 42.73304 80.2157 36.48839-13.149-6.24372-28.5989-25.64204-28.9316-30.569-.3326-4.93436-.9887.65699-.9887.65699l-12.8164 8.21931z" fill="#1a67bb"/>
      <path d="m1315.7296 433.64213c21.373 9.53607 38.1351 42.73304 80.2157 36.48839-13.149-6.24372-28.5989-25.64204-28.9316-30.569-.3326-4.93436-.9887.65699-.9887.65699l-12.8164 8.21931z" fill="none" stroke="#1a67bb" stroke-width=".43891779"/>
      <path d="m1366.3577 447.78083c3.2895-9.53607 15.1172-20.38334 25.3093-22.35432-25.642-2.3027-47.3384-9.53237-55.5531-19.72542 2.9569 16.10505 7.8913 33.19974 30.2438 42.07974" fill="#1a67bb"/>
      <path d="m1366.3577 447.78083c3.2895-9.53607 15.1172-20.38334 25.3093-22.35432-25.642-2.3027-47.3384-9.53237-55.5531-19.72542 2.9569 16.10505 7.8913 33.19974 30.2438 42.07974z" fill="none" stroke="#1a67bb" stroke-width="6.57452631"/>
      <path d="m1503.4386 595.37733c-13.4817 29.91202-42.0806 36.81735-43.3928 56.86434 8.5474-11.49964 36.1576-19.71803 44.3723-23.9917-.6561.98502-.9795-32.87264-.9795-32.87264" fill="#1a67bb"/>
      <path d="m1503.4386 595.37733c-13.4817 29.91202-42.0806 36.81735-43.3928 56.86434 8.5474-11.49964 36.1576-19.71803 44.3723-23.9917-.6561.98502-.9795-32.87264-.9795-32.87264z" fill="none" stroke="#1a67bb" stroke-width=".43891779"/>
      <path d="m1113.3562 1834.1438c15.4869 15.2836 32.4707 4.0842 58.3899-.462 5.267-36.8137-36.1483-74.9487-53.2522-78.229 19.0628 1.3121 32.2211-3.2896 49.3158-12.493 28.2848-15.2374 40.7501-51.2841 28.2663-82.1839 13.8052-15.7826 9.2034-44.7049 1.3122-60.4875 21.0403-25.6328 11.8369-49.9627 2.6335-63.7678 7.2259-11.1809 10.5155-46.6824 3.2896-66.4014 3.9363-11.8369.656-44.0581-2.6336-58.5192-3.2895-14.4612 13.1491-23.0086 26.2981-17.0947-1.5339-33.2746-13.8328-45.8231-42.4872-46.3313-8.1408-.1386-17.6029.6838-28.5158 2.2824-6.5791-49.9627-53.9083-36.8137-64.4331-32.212-20.375-21.6964-64.4332-20.3842-81.5278-11.1716-17.74434-21.7056-52.59071-14.4704-67.05467-3.9456-26.29903-23.6738-72.97679-7.2352-84.15579 8.5473-32.87171-18.416-80.86437 21.6872-80.86437 74.2927 0 52.5869 21.03664 71.6591 38.78832 92.0433 13.3006 15.2651 14.46304 29.5785 11.17531 47.9853-9.20064 7.2352-7.23059 11.1808-7.23059 17.7507 0 6.5792 0 46.0264 0 46.0264-12.49206-2.6243-23.01038-3.9457-32.21472-3.9457-23.66737 0-54.56903 21.0034-54.56903 43.3928 0 14.1285 12.82102 27.6103 17.75168 30.2438 4.93067 2.6242 14.79199.9887 13.80697-8.88-.98595-9.8595 4.93066-24.6534 24.65332-24.6534 19.72543 0 74.70935 15.9304 93.77871 26.4552-15.12372-4.6017-52.02793-.1571-65.17698 5.1931-16.44509 6.6901-64.43036 19.6358-50.62709 80.1141-10.51832 8.5566-15.12095 21.3914-13.14628 34.5405 0 0 62.28197 15.4314 65.56693 16.7436 3.28865 1.3213 12.49298 8.5473 16.4377 12.4929 3.94564 3.9457 34.32984 27.6565 34.32984 27.6565h226.89464 10.2476z" fill="#fab218"/>
      <path d="m1113.3562 1834.1438c15.4869 15.2836 32.4707 4.0842 58.3899-.462 5.267-36.8137-36.1483-74.9487-53.2522-78.229 19.0628 1.3121 32.2211-3.2896 49.3158-12.493 28.2848-15.2374 40.7501-51.2841 28.2663-82.1839 13.8052-15.7826 9.2034-44.7049 1.3122-60.4875 21.0403-25.6328 11.8369-49.9627 2.6335-63.7678 7.2259-11.1809 10.5155-46.6824 3.2896-66.4014 3.9363-11.8369.656-44.0581-2.6336-58.5192-3.2895-14.4612 13.1491-23.0086 26.2981-17.0947-1.5339-33.2746-13.8328-45.8231-42.4872-46.3313-8.1408-.1386-17.6029.6838-28.5158 2.2824-6.5791-49.9627-53.9083-36.8137-64.4331-32.212-20.375-21.6964-64.4332-20.3842-81.5278-11.1716-17.74434-21.7056-52.59071-14.4704-67.05467-3.9456-26.29903-23.6738-72.97679-7.2352-84.15579 8.5473-32.87171-18.416-80.86437 21.6872-80.86437 74.2927 0 52.5869 21.03664 71.6591 38.78832 92.0433 13.3006 15.2651 14.46304 29.5785 11.17531 47.9853-9.20064 7.2352-7.23059 11.1808-7.23059 17.7507 0 6.5792 0 46.0264 0 46.0264-12.49206-2.6243-23.01038-3.9457-32.21472-3.9457-23.66737 0-54.56903 21.0034-54.56903 43.3928 0 14.1285 12.82102 27.6103 17.75168 30.2438 4.93067 2.6242 14.79199.9887 13.80697-8.88-.98595-9.8595 4.93066-24.6534 24.65332-24.6534 19.72543 0 74.70935 15.9304 93.77871 26.4552-15.12372-4.6017-52.02793-.1571-65.17698 5.1931-16.44509 6.6901-64.43036 19.6358-50.62709 80.1141-10.51832 8.5566-15.12095 21.3914-13.14628 34.5405 0 0 62.28197 15.4314 65.56693 16.7436 3.28865 1.3213 12.49298 8.5473 16.4377 12.4929 3.94564 3.9457 34.32984 27.6565 34.32984 27.6565h226.89464 10.2476z" fill="none" stroke="#1a67bb" stroke-width="18.40682602"/>
      <path d="m521.98978 1293.0829l21.69363 92.7087c-8.63051-1.3214-21.12719-9.2127-23.10094-21.3083-5.90921 4.9343-10.42868 8.15-16.34437 8.4826-1.43688-17.261 4.41135-26.0578 14.54989-25.5403 0-14.4612-11.03023-24.755-24.50824-24.755-13.47801 0-21.20297 11.1808-21.20297 25.642 12.81825-3.613 20.29279 4.9344 18.65078 24.6533-5.91939-.3326-11.74914-.924-17.65744-5.8491 4.95192 12.8164-3.08258 19.6543-9.86872 22.2878-6.78613-2.6335-14.82433-9.4714-9.86872-22.2878-5.91199 4.9251-11.74174 5.5165-17.65743 5.8491-1.64201-19.7189 5.82976-28.2663 18.65078-24.6533 0-14.4612-7.72496-25.642-21.20666-25.642-13.47802 0-24.50825 10.2938-24.50825 24.755 10.13946-.5175 15.99047 8.2793 14.54989 25.5403-5.91568-.3326-10.43146-3.5483-16.34437-8.4826-1.97744 12.0956-14.46673 19.9869-23.10094 21.3083l21.69363-92.7087z" fill="#fab218"/>
      <path d="m521.98978 1293.0829l21.69363 92.7087c-8.63051-1.3214-21.12719-9.2127-23.10094-21.3083-5.90921 4.9343-10.42868 8.15-16.34437 8.4826-1.43688-17.261 4.41135-26.0578 14.54989-25.5403 0-14.4612-11.03023-24.755-24.50824-24.755-13.47801 0-21.20297 11.1808-21.20297 25.642 12.81825-3.613 20.29279 4.9344 18.65078 24.6533-5.91939-.3326-11.74914-.924-17.65744-5.8491 4.95192 12.8164-3.08258 19.6543-9.86872 22.2878-6.78613-2.6335-14.82433-9.4714-9.86872-22.2878-5.91199 4.9251-11.74174 5.5165-17.65743 5.8491-1.64201-19.7189 5.82976-28.2663 18.65078-24.6533 0-14.4612-7.72496-25.642-21.20666-25.642-13.47802 0-24.50825 10.2938-24.50825 24.755 10.13946-.5175 15.99047 8.2793 14.54989 25.5403-5.91568-.3326-10.43146-3.5483-16.34437-8.4826-1.97744 12.0956-14.46673 19.9869-23.10094 21.3083l21.69363-92.7087z" fill="none" stroke="#1a67bb" stroke-width="7.8912797"/>
      <path d="m591.08376 1293.0829l-21.69732 92.7087c8.63051-1.3214 21.12627-9.2127 23.10463-21.3083 5.91199 4.9343 10.42776 8.15 16.34068 8.4826 1.43965-17.261-4.41136-26.0578-14.55082-25.5403 0-14.4612 11.03855-24.755 24.51287-24.755 13.47801 0 21.20204 11.1808 21.20204 25.642-12.82102-3.613-20.29279 4.9344-18.64985 24.6533 5.91938-.3326 11.74451-.924 17.65743-5.8491-4.95561 12.8164 3.08259 19.6543 9.86872 22.2878 6.78151-2.6335 14.82433-9.4714 9.8678-22.2878 5.90922 4.9251 11.73804 5.5165 17.65835 5.8491 1.64202-19.7189-5.82975-28.2663-18.65077-24.6533 0-14.4612 7.72403-25.642 21.20204-25.642 13.47801 0 24.50917 10.2938 24.50917 24.755-10.13577-.5175-15.98677 8.2793-14.54989 25.5403 5.91938-.3326 10.43515-3.5483 16.34345-8.4826 1.98206 12.0956 14.47042 19.9869 23.10463 21.3083l-21.6964-92.7087z" fill="#fab218"/>
      <path d="m591.08376 1293.0829l-21.69732 92.7087c8.63051-1.3214 21.12627-9.2127 23.10463-21.3083 5.91199 4.9343 10.42776 8.15 16.34068 8.4826 1.43965-17.261-4.41136-26.0578-14.55082-25.5403 0-14.4612 11.03855-24.755 24.51287-24.755 13.47801 0 21.20204 11.1808 21.20204 25.642-12.82102-3.613-20.29279 4.9344-18.64985 24.6533 5.91938-.3326 11.74451-.924 17.65743-5.8491-4.95561 12.8164 3.08259 19.6543 9.86872 22.2878 6.78151-2.6335 14.82433-9.4714 9.8678-22.2878 5.90922 4.9251 11.73804 5.5165 17.65835 5.8491 1.64202-19.7189-5.82975-28.2663-18.65077-24.6533 0-14.4612 7.72403-25.642 21.20204-25.642 13.47801 0 24.50917 10.2938 24.50917 24.755-10.13577-.5175-15.98677 8.2793-14.54989 25.5403 5.91938-.3326 10.43515-3.5483 16.34345-8.4826 1.98206 12.0956 14.47042 19.9869 23.10463 21.3083l-21.6964-92.7087z" fill="none" stroke="#1a67bb" stroke-width="7.8912797"/>
      <path d="m499.07643 1155.8171l-21.6964 92.6995c8.63698-1.3214 21.12257-9.2034 23.10463-21.2991 5.9083 4.9251 10.42776 8.1408 16.33975 8.4734 1.44058-17.2517-4.41043-26.0578-14.54619-25.5404 0-14.4611 11.03116-24.7549 24.50824-24.7549 13.47801 0 21.20297 11.1808 21.20297 25.642-12.82102-3.613-20.29279 4.9251-18.65078 24.6533 5.91662-.3326 11.74914-.9148 17.66113-5.8491-4.95931 12.8164 3.08259 19.6543 9.86503 22.2878 6.78243-2.6335 14.82433-9.4714 9.86872-22.2878 5.90829 4.9343 11.73804 5.5165 17.65743 5.8491 1.64294-19.7282-5.83253-28.2663-18.64985-24.6533 0-14.4612 7.72403-25.642 21.20204-25.642 13.47801 0 24.51194 10.2938 24.51194 24.7549-10.13854-.5174-15.98954 8.2887-14.54989 25.5404 5.91661-.3326 10.42776-3.5483 16.33698-8.4734 1.98206 12.0957 14.47412 19.9777 23.10833 21.2991l-21.69733-92.6995z" fill="#fab218"/>
      <path d="m499.07643 1155.8171l-21.6964 92.6995c8.63698-1.3214 21.12257-9.2034 23.10463-21.2991 5.9083 4.9251 10.42776 8.1408 16.33975 8.4734 1.44058-17.2517-4.41043-26.0578-14.54619-25.5404 0-14.4611 11.03116-24.7549 24.50824-24.7549 13.47801 0 21.20297 11.1808 21.20297 25.642-12.82102-3.613-20.29279 4.9251-18.65078 24.6533 5.91662-.3326 11.74914-.9148 17.66113-5.8491-4.95931 12.8164 3.08259 19.6543 9.86503 22.2878 6.78243-2.6335 14.82433-9.4714 9.86872-22.2878 5.90829 4.9343 11.73804 5.5165 17.65743 5.8491 1.64294-19.7282-5.83253-28.2663-18.64985-24.6533 0-14.4612 7.72403-25.642 21.20204-25.642 13.47801 0 24.51194 10.2938 24.51194 24.7549-10.13854-.5174-15.98954 8.2887-14.54989 25.5404 5.91661-.3326 10.42776-3.5483 16.33698-8.4734 1.98206 12.0957 14.47412 19.9777 23.10833 21.2991l-21.69733-92.6995z" fill="none" stroke="#1a67bb" stroke-width="7.8912797"/>
      <path d="m1204.6234 1432.6403c61.7996 46.0171 98.6133 103.2242 128.857 132.1466 9.0556 25.0784 11.0977 54.2133 21.2159 76.2608l-42.94 46.1926c38.8835 28.4142 53.2892 40.9072 64.9506 50.8868-262.131 310.2455-299.5545 342.208-336.516 420.7512-.6283 1.8573-.019-.1109 1.7742-.9056 61.7996-29.2642 106.4583-83.2927 379.9365-381.9139 11.033 10.6726 31.8608 33.3762 47.3292 54.3611l42.5519-47.4585c0 0-18.5639-15.6255-30.1052-22.9716-11.5504-7.3369-21.9643-20.9757-23.9418-33.4686" fill="none" stroke="#1a67bb" stroke-width="18.40682602"/>
      <path d="m999.49723 1753.4753c-15.77701-9.8594-38.78832-16.4386-51.93737-16.4386-13.14998 0-41.94668-.3234-41.94668 26.2981" fill="none" stroke="#1a67bb" stroke-linecap="round" stroke-linejoin="round" stroke-width="10.51831913"/>
      <path d="m1203.2928 1321.9221c6.8378-17.0854 1.7094-32.9234-5.1284-51.7184-6.8287-18.7856-15.376-23.9141-3.4097-40.9995 11.957-17.0855 19.2569-24.3761 3.4097-34.6329-15.838-10.2476-36.3332-13.6665-43.1711-10.2476-6.8286 3.4189-17.0854-27.333-34.1616-34.1617-14.7107-5.8861-34.7069 9.878-43.1803 0-10.2476-11.9663-17.0855-18.7949-34.1617-18.7949-10.9406 0-20.9664 8.5381-36.3424 5.1284-15.37502-3.4189-18.78934-7.2999-39.28726-7.2999-25.3214 0-24.38258 2.1715-39.75949 7.2999-11.45991 3.8163-27.33118 34.1617-29.0425 40.9996-1.70669 6.8286-52.95473-17.0855-70.50405-3.419-17.54932 13.6665-31.21584 13.6665-31.21584 34.6329 0 14.489 14.13131 17.0763 20.96456 27.3331 6.83234 10.2475-10.71698 43.171-14.1313 58.547-3.41432 15.376-1.70762 29.0425-1.70762 29.0425l46.58812-10.2476c0 0 43.1738-27.3423 56.83939-23.9233 13.66929 3.4189 35.87483 11.957 35.87483 11.957 0 0 22.67496-11.957 36.34055-8.5381 13.66559 3.419 30.75011 15.376 30.75011 15.376 0 0 36.3424-11.957 50.0089-6.8379 13.6665 5.1284 34.1617 13.6665 34.1617 13.6665 0 0 29.5137-8.5381 39.7613 0 10.2476 8.5474 23.9141 34.1709 23.9141 34.1709h39.7613c0 0 0-10.2475 6.8287-27.333z" fill="none" stroke="#1a67bb" stroke-miterlimit="3.8636899" stroke-width="18.33567619"/>
      <path d="m906.79687 1610.8039c0 0 33.6017 5.1192 64.31855-24.4962 0 0-39.49521-41.6926-66.92064 24.1359" fill="#1a67bb"/>
      <path d="m1084.0088 972.46408l26.0948-49.74648 3.8255-22.26283-48.6875-69.38228c-127.54307-5.25962-186.71381-51.94107-186.71381-116.36773 0-18.41237 22.34969-30.90074 42.73304-44.70771 20.38242-13.80604 25.64204-49.97009 26.95602-70.34604l-9.20434 3.94194c11.17808-9.86133 19.06567-41.41906 18.40868-59.82773-3.94564 2.63073-14.46396 1.97467-22.35432 3.94472 9.20803-18.40868 12.49299-46.02077 5.25962-78.8934-16.4377 3.94564-30.56901 12.16126-43.06199 22.68235-.32804-36.15944-18.73671-55.55406-45.69273-55.55406-26.95972 0-142.00977-7.22967-142.00977-7.22967-.58492 7.59097 1.42579 20.36856 4.18404 29.11827l-1.94972 1.4221c-10.89348-5.35295-28.09259-7.53368-43.65708-7.53368-23.66367 0-47.99173 20.38334-61.14171 31.55865 4.60263 8.54735 18.08342 17.42273 30.24467 20.05438-10.19028 4.59802-22.35431 13.47432-31.55865 30.56901 7.2306 11.836 25.64204 22.3497 40.106 22.3497 14.46304 0 32.21472-11.82768 42.73304-13.80235-16.43401 11.83599-26.95233 33.5287-29.58399 44.70401 7.88666 5.91938 24.32437 7.23336 39.44532 7.23336 46.68144 0 61.80147-33.53239 67.06109-42.07604 5.26239-8.54735 16.4377-12.49299 29.58306-12.49299 24.32898 0 32.87263 18.41237 30.24467 59.83143-1.04324 16.41645-9.20434 34.18569-16.4377 39.44531-18.29317 13.30429-59.82404 37.47341-83.49603 74.29076-1.97005-5.2587-6.57268-12.48837-5.91569-22.34969-33.5287 19.71896-47.99543 59.16704-39.44438 107.82316l-23.67199-4.60171c2.63165 135.43247 131.49145 172.24982 185.3998 177.50852 53.91204 5.25962 132.98562 15.17085 191.06415 39.08404z" fill="#fab218"/>
      <path d="m1084.0088 972.46408l26.0948-49.74648 3.8255-22.26283-48.6875-69.38228c-127.54307-5.25962-186.71381-51.94107-186.71381-116.36773 0-18.41237 22.34969-30.90074 42.73304-44.70771 20.38242-13.80604 25.64204-49.97009 26.95602-70.34604l-9.20434 3.94194c11.17808-9.86133 19.06567-41.41906 18.40868-59.82773-3.94564 2.63073-14.46396 1.97467-22.35432 3.94472 9.20803-18.40868 12.49299-46.02077 5.25962-78.8934-16.4377 3.94564-30.56901 12.16126-43.06199 22.68235-.32804-36.15944-18.73671-55.55406-45.69273-55.55406-26.95972 0-142.00977-7.22967-142.00977-7.22967-.58492 7.59097 1.42579 20.36856 4.18404 29.11827l-1.94972 1.4221c-10.89348-5.35295-28.09259-7.53368-43.65708-7.53368-23.66367 0-47.99173 20.38334-61.14171 31.55865 4.60263 8.54735 18.08342 17.42273 30.24467 20.05438-10.19028 4.59802-22.35431 13.47432-31.55865 30.56901 7.2306 11.836 25.64204 22.3497 40.106 22.3497 14.46304 0 32.21472-11.82768 42.73304-13.80235-16.43401 11.83599-26.95233 33.5287-29.58399 44.70401 7.88666 5.91938 24.32437 7.23336 39.44532 7.23336 46.68144 0 61.80147-33.53239 67.06109-42.07604 5.26239-8.54735 16.4377-12.49299 29.58306-12.49299 24.32898 0 32.87263 18.41237 30.24467 59.83143-1.04324 16.41645-9.20434 34.18569-16.4377 39.44531-18.29317 13.30429-59.82404 37.47341-83.49603 74.29076-1.97005-5.2587-6.57268-12.48837-5.91569-22.34969-33.5287 19.71896-47.99543 59.16704-39.44438 107.82316l-23.67199-4.60171c2.63165 135.43247 131.49145 172.24982 185.3998 177.50852 53.91204 5.25962 132.98562 15.17085 191.06415 39.08404z" fill="none" stroke="#1a67bb" stroke-width="18.40682602"/>
      <path d="m1131.6429 1764.6562c-25.9008-10.9129-55.8765.6561-57.854 6.5699-21.6964-11.1716-40.7593-13.8051-62.4557-13.8051-21.6973 0-57.85765 11.8369-72.32069 30.8998-19.72265-3.9457-50.61692-4.9251-65.08365-4.9251l30.89796-9.9242" fill="none" stroke="#1a67bb" stroke-linecap="round" stroke-linejoin="round" stroke-width="10.51831913"/>
      <path d="m905.61318 1763.3348c0 11.301 5.82975 20.4582 13.01599 20.4582 7.18993 0 13.01599-9.1572 13.01599-20.4582 0-11.2917-5.82606-20.4582-13.01599-20.4582-7.18624 0-13.01599 9.1665-13.01599 20.4582" fill="#1a67bb"/>
      <path d="m905.61318 1763.3348c0 11.301 5.82975 20.4582 13.01599 20.4582 7.18993 0 13.01599-9.1572 13.01599-20.4582 0-11.2917-5.82606-20.4582-13.01599-20.4582-7.18624 0-13.01599 9.1665-13.01599 20.4582z" fill="none" stroke="#1a67bb" stroke-linecap="round" stroke-linejoin="round" stroke-width="10.51831913"/>
      <path d="m1201.3338 1471.4314c-15.1172 24.986-30.8998 41.4153-65.0892 41.4153-34.1801 0-67.7135 28.9316-62.4557 98.6226l7.226-3.2896c-10.5156 20.3842-7.226 48.6506 0 59.1661-13.7959 15.1265-12.4838 40.7685-3.2803 59.8314-6.5699 13.8051-9.8595 30.2438-3.9457 44.0489 32.8773-30.8998 57.854-15.7733 87.4417-28.9224" fill="none" stroke="#1a67bb" stroke-width="13.14628124"/>
      <path d="m824.61205 1588.4607l19.06936 3.9457c3.94472 7.882 4.60171 8.0483 11.17531 12.65l2.55497.5267c1.93863-4.9251 6.32411-11.3749 11.25477-15.8102h16.43401c3.28865 7.882 11.17531 18.4068 21.6964 21.031-.65976-26.2888 28.27-39.4471 34.84638-39.4471 6.5736 0 35.49597 8.5566 37.47064 17.1039 1.97836 8.5474 0 42.0714-8.54365 50.6188-8.54735 8.5473-43.39373 28.2663-49.96271 28.2663-6.58007 0-30.90166-10.5155-48.65611-18.4068" fill="none" stroke="#1a67bb" stroke-width="13.14628124"/>
      <path d="m914.02746 1613.4375c13.14905 0 29.58676-7.8821 57.85676-29.5785l6.57637 7.226-2.63073 26.9542c-13.94373 18.0926-34.76044 23.6738-59.11715 27.4439-9.58688 1.4877-45.75094-1.1458-73.68829-10.3492" fill="none" stroke="#1a67bb" stroke-width="13.14628124"/>
      <path d="m874.58215 1836.7681c-16.4377-.1202-30.90074 41.7665-40.10877 52.9381-5.02769 6.1171-17.74799 12.8256-27.28036 9.536 3.61669 12.1604 14.79107 21.0404 24.31697 21.0404 8.20453 0 13.93634-1.959 18.92799-5.9785 4.81516-3.881 8.94098-9.6655 13.93633-17.4736 13.49649 21.8073 41.09841 17.8616 48.89821 10.1275-2.20475-20.2087-14.36601-25.4665-34.08127-23.9973 2.6141-12.3174 25.55241-16.4386 43.0509-16.4386 17.49943 0 39.78074 6.7547 42.39022 19.0721-16.64653-3.6222-30.88318 5.4241-33.42058 21.3638 7.80072 7.7341 29.82608 14.6367 45.61049 1.0441-6.43593 12.8257-.66439 23.1287 13.79865 26.7417 14.46577-3.613 20.24107-13.916 13.80047-26.7417 15.7826 13.5926 37.8116 6.69 45.6105-1.0441-2.5411-15.9397-16.7805-24.986-33.4224-21.3638 2.615-12.3174 24.8936-19.0721 42.3948-19.0721 17.5013 0 40.4359 4.1212 43.0509 16.4386-19.7189-1.4692-31.8793 3.7886-34.0877 23.9973 7.7989 7.7341 35.4091 11.6798 48.9-10.1275 10.1737 15.8934 16.7528 23.4521 32.8681 23.4521 9.5268 0 20.6984-8.88 24.3206-21.0404-9.536 3.2896-22.26-3.4189-27.2868-9.536-9.2127-11.1716-28.0168-53.0583-44.4554-52.9381z" fill="#fab218"/>
      <path d="m874.58215 1836.7681c-16.4377-.1202-30.90074 41.7665-40.10877 52.9381-5.02769 6.1171-17.74799 12.8256-27.28036 9.536 3.61669 12.1604 14.79107 21.0404 24.31697 21.0404 8.20453 0 13.93634-1.959 18.92799-5.9785 4.81516-3.881 8.94098-9.6655 13.93633-17.4736 13.49649 21.8073 41.09841 17.8616 48.89821 10.1275-2.20475-20.2087-14.36601-25.4665-34.08127-23.9973 2.6141-12.3174 25.55241-16.4386 43.0509-16.4386 17.49943 0 39.78074 6.7547 42.39022 19.0721-16.64653-3.6222-30.88318 5.4241-33.42058 21.3638 7.80072 7.7341 29.82608 14.6367 45.61049 1.0441-6.43593 12.8257-.66439 23.1287 13.79865 26.7417 14.46577-3.613 20.24107-13.916 13.80047-26.7417 15.7826 13.5926 37.8116 6.69 45.6105-1.0441-2.5411-15.9397-16.7805-24.986-33.4224-21.3638 2.615-12.3174 24.8936-19.0721 42.3948-19.0721 17.5013 0 40.4359 4.1212 43.0509 16.4386-19.7189-1.4692-31.8793 3.7886-34.0877 23.9973 7.7989 7.7341 35.4091 11.6798 48.9-10.1275 10.1737 15.8934 16.7528 23.4521 32.8681 23.4521 9.5268 0 20.6984-8.88 24.3206-21.0404-9.536 3.2896-22.26-3.4189-27.2868-9.536-9.2127-11.1716-28.0168-53.0583-44.4554-52.9381z" fill="none" stroke="#1a67bb" stroke-width="10.51831913"/>
      <path d="m1002.4532 1536.844c-13.14625-15.7733-46.34969-32.868-83.16334 7.5679 10.18936-50.2954 70.01709-59.4988 83.16334-7.5679" fill="#1a67bb"/>
      <path d="m1002.4532 1536.844c-13.14625-15.7733-46.34969-32.868-83.16334 7.5679 10.18936-50.2954 70.01709-59.4988 83.16334-7.5679z" fill="none" stroke="#1a67bb" stroke-width=".43891779"/>
      <path d="m933.97373 1525.0533c-18.31904-8.2979-46.71101-8.15-73.85831 21.6594 7.76007-38.2921 59.12361-58.6671 81.33008-27.8782z" fill="#1a67bb"/>
      <path d="m933.97373 1525.0533c-18.31904-8.2979-46.71101-8.15-73.85831 21.6594 7.76007-38.2921 59.12361-58.6671 81.33008-27.8782z" fill="none" stroke="#1a67bb" stroke-width=".43891779"/>
      <path d="m830.27178 1518.3078c18.17767-13.2877 43.54896-14.3318 57.58602 5.1284l-7.46807 6.2188c-15.69386-7.1151-33.91495-9.8965-58.01939 13.149 0-10.0627 2.57344-12.8626 5.2051-15.3298 2.63166-2.4579 2.26666-5.8491 2.69634-9.1664" fill="#1a67bb"/>
      <path d="m830.27178 1518.3078c18.17767-13.2877 43.54896-14.3318 57.58602 5.1284l-7.46807 6.2188c-15.69386-7.1151-33.91495-9.8965-58.01939 13.149 0-10.0627 2.57344-12.8626 5.2051-15.3298 2.63166-2.4579 2.26666-5.8491 2.69634-9.1664z" fill="none" stroke="#1a67bb" stroke-width=".43891779"/>
      <path d="m764.95065 1754.2977c6.90071-9.3697 14.13777-15.1172 29.42412-12.9827-4.6054-9.8595-10.35568-13.3154-27.28405-12.8256.32526 2.4764.49066 5.267 1.47661 9.0463-5.09329 4.269-4.76526 10.8482-3.61668 16.762" fill="#1a67bb"/>
      <path d="m764.95065 1754.2977c6.90071-9.3697 14.13777-15.1172 29.42412-12.9827-4.6054-9.8595-10.35568-13.3154-27.28405-12.8256.32526 2.4764.49066 5.267 1.47661 9.0463-5.09329 4.269-4.76526 10.8482-3.61668 16.762z" fill="none" stroke="#1a67bb" stroke-width=".43891779"/>
      <path d="m1201.0104 1637.1113c-6.9026 28.2663-25.3186 48.3179-45.0376 57.1979-15.5885 7.0135-66.4106 6.5699-78.2382 32.868" fill="none" stroke="#1a67bb" stroke-width="13.14628124"/>
      <path d="m1201.9991 1589.4402c-15.7825 23.3412-24.3299 35.5108-54.241 49.3159-15.5238 7.1613-55.396 5.4148-68.2124 30.7335" fill="none" stroke="#1a67bb" stroke-width="13.14628124"/>
      <path d="m1203.4683 1518.9823c-6.9118 28.2756-23.8309 48.3272-43.5498 57.2072-15.5886 7.0134-67.0574 5.6921-78.9036 31.9902" fill="none" stroke="#1a67bb" stroke-width="13.14628124"/>
      <path d="m1147.0466 1347.1114c11.2548-5.1099 24.0989 6.4867 33.2469 7.9559-16.4294 0-29.5785 1.3029-40.1032 26.2981-10.5156 24.9768-8.5474 74.2834-48.6506 78.8851 24.3299-9.2034 29.7078-52.3744 33.2006-76.5934 2.0422-14.1378 13.3339-32.4615 22.3063-36.5457" fill="#1a67bb"/>
      <path d="m1147.0466 1347.1114c11.2548-5.1099 24.0989 6.4867 33.2469 7.9559-16.4294 0-29.5785 1.3029-40.1032 26.2981-10.5156 24.9768-8.5474 74.2834-48.6506 78.8851 24.3299-9.2034 29.7078-52.3744 33.2006-76.5934 2.0422-14.1378 13.3339-32.4615 22.3063-36.5457z" fill="none" stroke="#1a67bb" stroke-width=".43891779"/>
      <path d="m1071.3402 1320.8133c9.6839-7.688 27.5825 3.4189 36.8137 2.6242-15.9489 3.9734-39.9 8.4365-44.0581 35.2151-4.1674 26.7879 7.6972 73.1653-30.1052 87.3308 21.3823-14.8123 14.683-57.8817 14.4335-82.3502-.1848-18.758 12.8718-37.4975 22.9161-42.8199" fill="#1a67bb"/>
      <path d="m1071.3402 1320.8133c9.6839-7.688 27.5825 3.4189 36.8137 2.6242-15.9489 3.9734-39.9 8.4365-44.0581 35.2151-4.1674 26.7879 7.6972 73.1653-30.1052 87.3308 21.3823-14.8123 14.683-57.8817 14.4335-82.3502-.1848-18.758 12.8718-37.4975 22.9161-42.8199z" fill="none" stroke="#1a67bb" stroke-width=".43891779"/>
      <path d="m1002.3054 1306.3521c9.6839-7.688 27.5825 3.4189 36.8136 2.6243-26.4829 6.5976-37.3218 13.2137-40.77312 45.0745-2.91719 26.9542 8.35792 77.1109-29.4463 91.2764 21.37853-14.8123 14.03336-61.8273 13.78387-86.2866-.27352-26.7232 6.15871-45.555 19.62195-52.6886" fill="#1a67bb"/>
      <path d="m1002.3054 1306.3521c9.6839-7.688 27.5825 3.4189 36.8136 2.6243-26.4829 6.5976-37.3218 13.2137-40.77312 45.0745-2.91719 26.9542 8.35792 77.1109-29.4463 91.2764 21.37853-14.8123 14.03336-61.8273 13.78387-86.2866-.27352-26.7232 6.15871-45.555 19.62195-52.6886z" fill="none" stroke="#1a67bb" stroke-width=".43891779"/>
      <path d="m929.98466 1304.3746c12.14648-9.1941 20.68274 1.4508 29.91202.6561-25.4868 8.612-31.40618 23.7293-31.70927 48.7892-.33173 27.102 15.09138 76.0852-21.31754 93.5126 19.99247-16.6327 8.55104-62.8253 6.15409-87.1737-2.62057-26.5846 4.29123-46.1834 16.9607-55.7842" fill="#1a67bb"/>
      <path d="m929.98466 1304.3746c12.14648-9.1941 20.68274 1.4508 29.91202.6561-25.4868 8.612-31.40618 23.7293-31.70927 48.7892-.33173 27.102 15.09138 76.0852-21.31754 93.5126 19.99247-16.6327 8.55104-62.8253 6.15409-87.1737-2.62057-26.5846 4.29123-46.1834 16.9607-55.7842z" fill="none" stroke="#1a67bb" stroke-width=".43891779"/>
      <path d="m852.07352 1311.6099c12.14925-9.2035 14.44178-1.1828 23.67107-1.9775-17.27118 12.225-27.94474 30.9645-27.94474 50.1106 0 27.102 42.22759 78.0534 5.81127 95.4808 19.99987-16.6327-19.32162-64.8028-21.71858-89.1512-2.62057-26.5845 7.5152-44.8712 20.18098-54.4627" fill="#1a67bb"/>
      <path d="m852.07352 1311.6099c12.14925-9.2035 14.44178-1.1828 23.67107-1.9775-17.27118 12.225-27.94474 30.9645-27.94474 50.1106 0 27.102 42.22759 78.0534 5.81127 95.4808 19.99987-16.6327-19.32162-64.8028-21.71858-89.1512-2.62057-26.5845 7.5152-44.8712 20.18098-54.4627z" fill="none" stroke="#1a67bb" stroke-width=".43891779"/>
      <path d="m1184.9783 650.40099c16.3555-10.0563 46.2666-11.07736 87.3585-8.67394-48.1331 7.6381-100.2303 12.30171-92.0433 89.41541-16.2354-18.87439-23.6646-52.92609 4.6848-80.74147" fill="#1a67bb"/>
      <path d="m1184.9783 650.40099c16.3555-10.0563 46.2666-11.07736 87.3585-8.67394-48.1331 7.6381-100.2303 12.30171-92.0433 89.41541-16.2354-18.87439-23.6646-52.92609 4.6848-80.74147z" fill="none" stroke="#1a67bb" stroke-width=".43891779"/>
      <path d="m1130.9868 673.2857c-13.8051 23.66737-18.4068 63.77245 5.9139 86.12307-24.9768-3.28496-39.4379-35.50337-43.3836-50.6234z" fill="#1a67bb"/>
      <path d="m1130.9868 673.2857c-13.8051 23.66737-18.4068 63.77245 5.9139 86.12307-24.9768-3.28496-39.4379-35.50337-43.3836-50.6234z" fill="none" stroke="#1a67bb" stroke-width=".43891779"/>
      <path d="m1088.5828 708.46011c-7.8913 25.31031-12.493 74.29169 31.2232 92.04337-22.0198 5.25501-51.2749-22.68604-53.5757-42.07974z" fill="#1a67bb"/>
      <path d="m1088.5828 708.46011c-7.8913 25.31031-12.493 74.29169 31.2232 92.04337-22.0198 5.25501-51.2749-22.68604-53.5757-42.07974z" fill="none" stroke="#1a67bb" stroke-width=".43891779"/>
      <path d="m666.16827 797.54287c11.836 14.46396 31.56235 28.92699 44.70771 44.04702-20.37965-33.52501-27.61301-71.65911-21.03941-110.44743z" fill="#1a67bb"/>
      <path d="m666.16827 797.54287c11.836 14.46396 31.56235 28.92699 44.70771 44.04702-20.37965-33.52501-27.61301-71.65911-21.03941-110.44743z" fill="none" stroke="#1a67bb" stroke-width=".43891779"/>
      <path d="m718.10934 698.26706l23.6683 5.25869c-10.52202 16.43493-13.80697 48.64965-3.28495 71.66373-27.61671-17.75169-22.35709-51.28408-20.38335-76.92242" fill="#1a67bb"/>
      <path d="m718.10934 698.26706l23.6683 5.25869c-10.52202 16.43493-13.80697 48.64965-3.28495 71.66373-27.61671-17.75169-22.35709-51.28408-20.38335-76.92242z" fill="none" stroke="#1a67bb" stroke-width=".43891779"/>
      <path d="m1210.5372 549.35287l-3.2896-24.32528c-17.4181 8.21931-38.7818.98595-47.6618-7.23337 1.9682 19.39463 6.2465 41.42275 50.9514 31.55865" fill="#1a67bb"/>
      <path d="m1210.5372 549.35287l-3.2896-24.32528c-17.4181 8.21931-38.7818.98595-47.6618-7.23337 1.9682 19.39463 6.2465 41.42275 50.9514 31.55865z" fill="none" stroke="#1a67bb" stroke-width="6.57452631"/>
      <path d="m1196.3994 494.12685c-21.2251 1.96728-34.8731-13.57873-33.524-39.11266 11.5042 7.22598 34.1894 13.80235 45.361 13.14259z" fill="#1a67bb"/>
      <path d="m1196.3994 494.12685c-21.2251 1.96728-34.8731-13.57873-33.524-39.11266 11.5042 7.22598 34.1894 13.80235 45.361 13.14259z" fill="none" stroke="#1a67bb" stroke-width="6.57452631"/>
      <path d="m1209.2251 533.57863c22.0198-21.70009 59.1661-9.8641 76.5935-24.65979-13.4818-11.17531-36.1576-2.62796-42.4041-2.62796-6.2465 0-19.7282 5.26239-33.8568-4.27367l14.4612 15.77701z" fill="#1a67bb"/>
      <path d="m1209.2251 533.57863c22.0198-21.70009 59.1661-9.8641 76.5935-24.65979-13.4818-11.17531-36.1576-2.62796-42.4041-2.62796-6.2465 0-19.7282 5.26239-33.8568-4.27367l14.4612 15.77701z" fill="none" stroke="#1a67bb" stroke-width=".43891779"/>
      <path d="m1222.0415 465.52882c24.6533 1.31398 59.8314 22.68234 81.1952 3.94471-23.9881-.65699-41.092-18.40775-48.974-33.85673l8.5473 28.27z" fill="#1a67bb"/>
      <path d="m1222.0415 465.52882c24.6533 1.31398 59.8314 22.68234 81.1952 3.94471-23.9881-.65699-41.092-18.40775-48.974-33.85673l8.5473 28.27z" fill="none" stroke="#1a67bb" stroke-width=".43891779"/>
      <path d="m1244.7266 452.0545l2.8922-11.87203 7.2999-9.50003c-17.7507-1.96728-28.9316-14.64045-33.8659-27.45777-10.5156 19.06936-.3234 41.26381 23.6738 48.82983" fill="#1a67bb"/>
      <path d="m1244.7266 452.0545l2.8922-11.87203 7.2999-9.50003c-17.7507-1.96728-28.9316-14.64045-33.8659-27.45777-10.5156 19.06936-.3234 41.26381 23.6738 48.82983z" fill="none" stroke="#1a67bb" stroke-width="6.57452631"/>
      <path d="m668.4719 581.73392c10.51739-18.24604 35.50244-42.56763 45.36377-47.50477-6.57637-8.54457-31.88669-14.1313-54.89707 17.42643l31.88299-12.16034z" fill="#1a67bb"/>
      <path d="m668.4719 581.73392c10.51739-18.24604 35.50244-42.56763 45.36377-47.50477-6.57637-8.54457-31.88669-14.1313-54.89707 17.42643l31.88299-12.16034z" fill="none" stroke="#1a67bb" stroke-width=".43891779"/>
      <path d="m650.52894 494.07603c-11.41002 3.28126-20.57832-2.46533-26.53004 5.57379-3.84122 5.18293-.8917 17.82007-8.78205 29.32341 18.7404-15.12003 56.21104-29.67362 93.36012-28.02791-2.96339-9.79941-31.88668-14.37709-58.04803-6.86929" fill="#1a67bb"/>
      <path d="m650.52894 494.07603c-11.41002 3.28126-20.57832-2.46533-26.53004 5.57379-3.84122 5.18293-.8917 17.82007-8.78205 29.32341 18.7404-15.12003 56.21104-29.67362 93.36012-28.02791-2.96339-9.79941-31.88668-14.37709-58.04803-6.86929z" fill="none" stroke="#1a67bb" stroke-width=".43891779"/>
      <path d="m674.39128 453.69652c18.73671 9.52959 47.00671 30.90166 98.2871 15.77701-33.20067-2.95969-49.96271-6.57268-56.21475-26.62706l.98872 20.37964z" fill="#1a67bb"/>
      <path d="m674.39128 453.69652c18.73671 9.52959 47.00671 30.90166 98.2871 15.77701-33.20067-2.95969-49.96271-6.57268-56.21475-26.62706l.98872 20.37964z" fill="none" stroke="#1a67bb" stroke-width=".43891779"/>
      <path d="m708.57697 440.8755c-22.35708-12.16034-7.23336-27.61301 0-50.6234 5.58766 16.43771 14.46304 30.56901 18.40868 34.18569-6.24834 1.97098-15.12372 2.9597-18.40868 16.43771" fill="#1a67bb"/>
      <path d="m708.57697 440.8755c-22.35708-12.16034-7.23336-27.61301 0-50.6234 5.58766 16.43771 14.46304 30.56901 18.40868 34.18569-6.24834 1.97098-15.12372 2.9597-18.40868 16.43771z" fill="none" stroke="#1a67bb" stroke-width="6.57452631"/>
      <path d="m617.84389 480.9778c0 1.88781-2.94122 5.15428-4.43169 6.85451-2.48381 2.84049-4.77173 5.64125-8.05668 5.64125-5.25962 0-19.3937-4.93436-14.135-41.75171 11.50334 13.14998 26.62337 10.19028 26.62337 29.25595" fill="#1a67bb"/>
      <path d="m617.84389 480.9778c0 1.88781-2.94122 5.15428-4.43169 6.85451-2.48381 2.84049-4.77173 5.64125-8.05668 5.64125-5.25962 0-19.3937-4.93436-14.135-41.75171 11.50334 13.14998 26.62337 10.19028 26.62337 29.25595z" fill="none" stroke="#1a67bb" stroke-width="6.57452631"/>
      <path d="m609.53864 531.00888c-.20514 1.88412-3.51227 4.26259-4.53703 6.16888-1.68914 3.14357-1.71131 6.88315-4.82994 7.87926-5.00921 1.60321-30.64848-5.56178-26.51526-39.72621 14.96479 9.02045 36.95781 15.75576 35.88223 25.67807" fill="#1a67bb"/>
      <path d="m609.53864 531.00888c-.20514 1.88412-3.51227 4.26259-4.53703 6.16888-1.68914 3.14357-1.71131 6.88315-4.82994 7.87926-5.00921 1.60321-30.64848-5.56178-26.51526-39.72621 14.96479 9.02045 36.95781 15.75576 35.88223 25.67807z" fill="none" stroke="#1a67bb" stroke-width="6.57452631"/>
      <path d="m672.74557 594.71665c-.41951-1.5376-7.80072-3.45406-10.43885-7.60853-3.552-5.59874-2.7869-13.39115-5.34278-12.11321-6.57268 3.28773-26.29903 5.2587-36.15944 3.28773 1.31676 16.10597 24.32436 35.83232 51.94107 16.43401" fill="#1a67bb"/>
      <path d="m672.74557 594.71665c-.41951-1.5376-7.80072-3.45406-10.43885-7.60853-3.552-5.59874-2.7869-13.39115-5.34278-12.11321-6.57268 3.28773-26.29903 5.2587-36.15944 3.28773 1.31676 16.10597 24.32436 35.83232 51.94107 16.43401z" fill="none" stroke="#1a67bb" stroke-width="6.57452631"/>
      <path d="m952.81855 564.80463c-14.29393 40.14943-62.8022 50.45799-69.03206 76.92242 15.77701-7.5614 47.6637-20.38242 55.22602-38.1341 7.5577-17.75168 13.80604-38.78832 13.80604-38.78832" fill="#1a67bb"/>
      <path d="m952.81855 564.80463c-14.29393 40.14943-62.8022 50.45799-69.03206 76.92242 15.77701-7.5614 47.6637-20.38242 55.22602-38.1341 7.5577-17.75168 13.80604-38.78832 13.80604-38.78832z" fill="none" stroke="#1a67bb" stroke-width=".43891779"/>
      <path d="m937.3668 504.64517c-3.28495 32.45682-20.49145 54.00537-42.405 74.29446 18.07971-9.53237 46.02445-19.3937 53.58308-22.02536l2.29901-7.88666-17.41903.32526z" fill="#1a67bb"/>
      <path d="m937.3668 504.64517c-3.28495 32.45682-20.49145 54.00537-42.405 74.29446 18.07971-9.53237 46.02445-19.3937 53.58308-22.02536l2.29901-7.88666-17.41903.32526z" fill="none" stroke="#1a67bb" stroke-width=".43891779"/>
      <path d="m924.54578 478.67787c-15.77424 11.50704-33.20067 46.02168-42.73396 60.48842 3.61668-22.35709 7.89405-52.26911 4.60263-70.02079l6.57268 24.32806z" fill="#1a67bb"/>
      <path d="m924.54578 478.67787c-15.77424 11.50704-33.20067 46.02168-42.73396 60.48842 3.61668-22.35709 7.89405-52.26911 4.60263-70.02079l6.57268 24.32806z" fill="none" stroke="#1a67bb" stroke-width=".43891779"/>
      <path d="m1112.2843 897.17351c4.7588 12.91065 0 29.50729 17.0855 41.46618 13.6665-11.95889-28.6175-62.86042-35.1966-71.40776-6.5792-8.54735 18.1111 29.94158 18.1111 29.94158" fill="#1a67bb"/>
      <path d="m1112.2843 897.17351c4.7588 12.91065 0 29.50729 17.0855 41.46618 13.6665-11.95889-28.6175-62.86042-35.1966-71.40776-6.5792-8.54735 18.1111 29.94158 18.1111 29.94158z" fill="none" stroke="#1a67bb" stroke-width=".43891779"/>
      <path d="m883.87704 1652.3856l36.73049 14.9602 49.41013-22.8976-3.28772-8.7784z" fill="#1a67bb"/>
      <path d="m883.87704 1652.3856l36.73049 14.9602 49.41013-22.8976-3.28772-8.7784z" fill="none" stroke="#1a67bb" stroke-width=".43891779"/>
      <path d="m1139.1923 1186.3751c11.2548-5.11 24.0989 6.4867 33.2469 7.9467-16.4294 0-29.5785 1.3121-40.1033 26.2981-10.5155 24.986 17.8802 64.7103-22.2231 69.312 24.3299-9.2034 3.2804-42.7921 6.7732-67.0112 2.0421-14.1377 13.3339-32.4614 22.3063-36.5456" fill="#1a67bb"/>
      <path d="m1139.1923 1186.3751c11.2548-5.11 24.0989 6.4867 33.2469 7.9467-16.4294 0-29.5785 1.3121-40.1033 26.2981-10.5155 24.986 17.8802 64.7103-22.2231 69.312 24.3299-9.2034 3.2804-42.7921 6.7732-67.0112 2.0421-14.1377 13.3339-32.4614 22.3063-36.5456z" fill="none" stroke="#1a67bb" stroke-width=".43891779"/>
      <path d="m1070.3145 1152.7771c9.6932-7.688 27.5826 3.4189 36.8229 2.6242-15.9489 3.9734-39.8999 8.4272-44.0673 35.2151-4.1674 26.7878 14.341 65.4218-23.4613 79.5873 21.3822-14.8123 8.0483-50.1382 7.7988-74.6067-.194-18.7672 12.8627-37.5067 22.9069-42.8199" fill="#1a67bb"/>
      <path d="m1070.3145 1152.7771c9.6932-7.688 27.5826 3.4189 36.8229 2.6242-15.9489 3.9734-39.8999 8.4272-44.0673 35.2151-4.1674 26.7878 14.341 65.4218-23.4613 79.5873 21.3822-14.8123 8.0483-50.1382 7.7988-74.6067-.194-18.7672 12.8627-37.5067 22.9069-42.8199z" fill="none" stroke="#1a67bb" stroke-width=".43891779"/>
      <path d="m999.573 1140.0161c9.6904-7.688 27.589 3.4189 36.8201 2.6335-26.4921 6.5976-37.32555 13.2137-40.7759 45.0653-2.92088 26.9542 14.9953 69.3767-22.80525 83.5422 21.37946-14.8123 7.3923-54.0931 7.13912-78.5524-.27075-26.7231 6.16148-45.5458 19.62193-52.6886" fill="#1a67bb"/>
      <path d="m999.573 1140.0161c9.6904-7.688 27.589 3.4189 36.8201 2.6335-26.4921 6.5976-37.32555 13.2137-40.7759 45.0653-2.92088 26.9542 14.9953 69.3767-22.80525 83.5422 21.37946-14.8123 7.3923-54.0931 7.13912-78.5524-.27075-26.7231 6.16148-45.5458 19.62193-52.6886z" fill="none" stroke="#1a67bb" stroke-width=".43891779"/>
      <path d="m911.87907 1141.9289c12.14648-9.2035 22.36541-2.9385 31.59839-3.7332-25.4868 8.6121-33.08886 28.1185-33.39564 53.1784-.33173 27.102 20.26414 61.4023-16.14478 78.8296 19.98878-16.6326 3.37828-48.1423.98133-72.4907-2.62057-26.5938 4.29215-46.1926 16.9607-55.7841" fill="#1a67bb"/>
      <path d="m911.87907 1141.9289c12.14648-9.2035 22.36541-2.9385 31.59839-3.7332-25.4868 8.6121-33.08886 28.1185-33.39564 53.1784-.33173 27.102 20.26414 61.4023-16.14478 78.8296 19.98878-16.6326 3.37828-48.1423.98133-72.4907-2.62057-26.5938 4.29215-46.1926 16.9607-55.7841z" fill="none" stroke="#1a67bb" stroke-width=".43891779"/>
      <path d="m678.75182 1448.5892l.10072 2.4487c-12.80994 4.0842-23.77272 15.607-23.77272 27.6195 0 11.8369 4.60633 34.1893 38.79202 34.1893 34.18939 0 86.78375-46.017 86.78375-126.8795 0-80.8718-23.41511-210.6344-223.27425-405.24037-199.87022 194.60597-218.6365 312.09737-218.6365 392.96907 0 80.8626 33.80683 133.7083 67.99345 133.7083 34.19216 0 38.79109-22.3525 38.79109-34.1894 0-12.0125-10.95816-23.5353-23.77271-27.6195l.10534-2.4487" fill="none" stroke="#1a67bb" stroke-width="18.40682602"/>
      <path d="m495.17791 1488.4521c-15.22444-3.345-24.49715-8.8522-24.49715-21.7795 0-26.5476 22.87732-46.4144 38.10915-46.7009 8.76727 4.8327 16.33328 16.069 16.33328 27.6472 0 19.0537-13.40223 36.1853-29.94528 40.8332" fill="#fab218"/>
      <path d="m495.17791 1488.4521c-15.22444-3.345-24.49715-8.8522-24.49715-21.7795 0-26.5476 22.87732-46.4144 38.10915-46.7009 8.76727 4.8327 16.33328 16.069 16.33328 27.6472 0 19.0537-13.40223 36.1853-29.94528 40.8332z" fill="none" stroke="#1a67bb" stroke-miterlimit="3.8636899" stroke-width="13.09638309"/>
      <path d="m544.18147 1496.6114c-30.36757-13.6111-6.12545-76.6397 19.05457-76.6397 17.01523 0 20.47667 5.2301 21.77957 22.1954 2.72129 35.3906-5.44628 60.3119-40.83414 54.4443" fill="#fab218"/>
      <path d="m544.18147 1496.6114c-30.36757-13.6111-6.12545-76.6397 19.05457-76.6397 17.01523 0 20.47667 5.2301 21.77957 22.1954 2.72129 35.3906-5.44628 60.3119-40.83414 54.4443z" fill="none" stroke="#1a67bb" stroke-miterlimit="3.8636899" stroke-width="13.09638309"/>
      <path d="m631.29325 1491.1688c-1.54869 5.6089-10.21154 22.2046-19.05827 22.2046-17.01523 0-29.94436-14.2948-29.94436-31.3064 0-23.1471 6.80369-50.3692 29.94436-50.3692 25.18372 0 23.14067 34.291 19.05827 59.471" fill="#fab218"/>
      <path d="m631.29325 1491.1688c-1.54869 5.6089-10.21154 22.2046-19.05827 22.2046-17.01523 0-29.94436-14.2948-29.94436-31.3064 0-23.1471 6.80369-50.3692 29.94436-50.3692 25.18372 0 23.14067 34.291 19.05827 59.471z" fill="none" stroke="#1a67bb" stroke-miterlimit="3.8636899" stroke-width="13.09638309"/>
      <path d="m612.65726 1516.0901c-10.20784 20.4212-29.00276 27.2222-52.14343 27.2222-38.11285 0-95.70256-14.0269-95.70256-52.1435 0-10.2106 40.83506 5.4426 51.72484-10.8851 10.94708-16.4294 10.63013 16.3277 30.36665 16.3277 13.61107 0 19.28189-8.917 29.94436-5.4426 17.90322 5.8307 17.87458 27.0004 35.81014 24.9213" fill="#fab218"/>
      <path d="m612.65726 1516.0901c-10.20784 20.4212-29.00276 27.2222-52.14343 27.2222-38.11285 0-95.70256-14.0269-95.70256-52.1435 0-10.2106 40.83506 5.4426 51.72484-10.8851 10.94708-16.4294 10.63013 16.3277 30.36665 16.3277 13.61107 0 19.28189-8.917 29.94436-5.4426 17.90322 5.8307 17.87458 27.0004 35.81014 24.9213z" fill="none" stroke="#1a67bb" stroke-miterlimit="3.8636899" stroke-width="15.71602821"/>
      <path d="m1522.1781 1579.2573c-20.3843-30.2437-53.2615-48.6598-91.3965-67.0666-4.5925-38.1351-16.4294-71.0031-34.8363-105.1832-3.2895 13.7959-3.2895 22.9993-10.5247 34.1801.656-24.3299-11.837-59.8222-30.2438-92.0433-1.3121 17.0947-2.6243 36.4902-10.8482 54.5736-1.6448-24.0065-12.8164-63.121-30.5764-97.3104-3.9364 11.1809-6.5699 25.6421-13.149 34.8455-7.226-53.2523-74.9395-80.8625-74.9395-149.8974 0-34.1894 24.0435-83.6069 52.0233-115.0519 59.083-66.405 99.8423-113.08369 110.3671-186.71746 13.8051-13.80697 39.4379-17.75168 57.1979-17.75168 32.2119 0 52.5962 28.92976 52.5962 60.48472 0 55.22602-76.9169 99.27582-76.9169 192.63502 0 34.1894 11.1624 56.5418 32.2027 71.6591l23.0178-51.2748c-30.5764-49.972 28.9316-113.0865 49.9627-142.0163 1.3121 7.5651.3511 17.0402-1.155 25.6162-16.7251 95.4521-101.4132 182.6535-101.4132 276.1569 0 84.1521 57.8633 128.2102 115.7173 128.2102 46.0263 0 93.3647-6.5792 117.6854-27.6195 35.2058-30.447 38.7911-63.1117 44.7049-103.871l-11.8277 5.9046c5.2578-12.4838 7.226-43.3836 8.5474-57.8448l-9.8688 5.9139c12.493-18.4069-5.9138-51.9402-17.0947-55.2298 10.5248 30.8998-86.7763 36.1576-86.7763 116.3733 0 56.5419-14.4704 68.3695-46.0263 68.3695-31.5559 0-71.0031-26.9541-71.0031-82.1746 0-89.4191 107.8167-197.9011 107.8167-335.30086 0-144.6442-98.6132-156.4765-122.9431-156.4765-24.3207 0-46.6732 4.59801-76.2609 13.80604-7.2352-26.95602-16.6696-54.02662-1.3121-86.12676 14.4612-30.24375 60.1271-21.70749 96.6451-40.76206 30.2437-15.78072 32.868-42.07605 36.8136-81.52506l-12.4929 2.63166c10.5247-10.51832 12.4929-24.32806 13.8143-46.02168l-12.493 1.31398c9.2034-12.49207 8.5381-46.68145 5.9139-59.82773-9.8595 9.20433-21.0404 7.89405-36.1576 19.06566 9.8595-42.73673-12.493-105.84941-78.8943-105.84941-16.4387 0-28.9317 7.89035-34.8455 20.38334-13.149-15.12372-46.0263-19.06567-59.8314-19.06567-13.8051 0-36.1576 4.59894-47.3385 10.51832 3.2896 7.89036 7.2353 15.12372 14.4705 21.03572-49.972-.65977-57.1979 9.20433-67.0574 22.35431 1.9682 11.17531 12.4837 26.29903 26.2981 32.8754-6.5792 3.94195-11.1901 12.48929-15.1265 23.01039 11.8277 23.66829 34.8454 24.98135 51.2841 24.98135 43.3928 0 47.3292-34.84638 87.4324-34.84638 27.6195 0 24.986 41.41998 22.3617 69.68906-2.6335 28.2737-28.2756 40.76299-44.0581 40.76299-15.7733 0-51.2749 0-75.6048 0-24.3206 0-42.7274 7.5614-58.51 23.9954 1.3121-7.22967 9.2034-17.09099 23.6738-23.66737-50.9606 1.64571-97.3104 29.91571-102.5681 79.22512-4.6017-3.94471-9.8595-11.83507-11.8369-23.66737-15.1173 14.46396-26.2982 37.47434-21.6964 64.42667-1.3122-1.97097-7.8821-7.89036-9.2035-10.51832-3.2803 7.23336-8.5473 24.98505-8.5473 40.76206 0 32.87264 35.5108 82.83904 57.854 115.71444-24.3854 74.52917-76.8522 99.46706-106.5046 118.34146-28.92512 18.405-60.48285 52.5944-88.09217 78.8925-12.04113 11.4673-34.32337 37.4143-60.96522 65.5604-8.4457 8.917-41.14461 4.9714-50.27688 13.9345-9.44273 9.2681-11.48208 26.0949-5.11454 39.9092-19.36875 16.7805-28.38921 25.3464-46.62786 33.9122" fill="none" stroke="#1a67bb" stroke-width="18.40682602"/>
   </g>
</svg>