<svg xmlns:dc="http://purl.org/dc/elements/1.1/" xmlns:cc="http://creativecommons.org/ns#" xmlns:rdf="http://www.w3.org/1999/02/22-rdf-syntax-ns#" xmlns:svg="http://www.w3.org/2000/svg" xmlns="http://www.w3.org/2000/svg" xmlns:sodipodi="http://sodipodi.sourceforge.net/DTD/sodipodi-0.dtd" xmlns:inkscape="http://www.inkscape.org/namespaces/inkscape" version="1.1" x="0px" y="0px" viewBox="0 0 473.71159 499.1" xml:space="preserve" id="svg40" sodipodi:docname="Escudo-fondoclaro.svg" width="473.71161" height="499.10001" inkscape:version="1.0.2 (e86c870879, 2021-01-15, custom)"><metadata id="metadata46"><rdf:RDF><cc:Work rdf:about=""><dc:format>image/svg+xml</dc:format><dc:type rdf:resource="http://purl.org/dc/dcmitype/StillImage"/><dc:title/></cc:Work></rdf:RDF></metadata><defs id="defs44"/><sodipodi:namedview pagecolor="#ffffff" bordercolor="#666666" borderopacity="1" objecttolerance="10" gridtolerance="10" guidetolerance="10" inkscape:pageopacity="0" inkscape:pageshadow="2" inkscape:window-width="960" inkscape:window-height="998" id="namedview42" showgrid="false" fit-margin-top="3" fit-margin-left="3" fit-margin-right="3" fit-margin-bottom="3" inkscape:zoom="0.68788137" inkscape:cx="368.79254" inkscape:cy="89.340574" inkscape:window-x="960" inkscape:window-y="0" inkscape:window-maximized="0" inkscape:current-layer="svg40"/>
<style type="text/css" id="style2">
	.st0{fill:#FFFFFF;}
	.st1{fill:#ED1C24;}
</style>
<g id="FONDO" transform="translate(-60.787903,-171.4)">
</g>
<g id="ESCUDO" transform="translate(-60.787903,-171.4)">
	<g id="g37">
		<g id="g7">
			<path d="m 530.66,252.48 -1.46,-27.01 h -27.04 c -16.67,0 -31.8,-8.44 -40.47,-22.57 l -17.48,-28.5 h -3.78 l -23.25,23.23 c -13.27,13.26 -30.9,20.56 -49.67,20.56 -18.76,0 -36.41,-7.31 -49.68,-20.58 l -20.18,-20.18 -20.19,20.18 c -13.27,13.27 -30.91,20.58 -49.69,20.58 -18.75,0 -36.39,-7.3 -49.66,-20.56 L 154.86,174.4 h -3.79 l -17.47,28.5 c -8.67,14.14 -23.8,22.57 -40.47,22.57 H 66.09 l -1.46,27.01 c -5.91,109.26 19.31,204.24 74.97,282.31 46.44,65.15 104.32,104.29 144.69,125.65 l 13.35,7.06 13.35,-7.06 c 40.38,-21.36 98.26,-60.5 144.7,-125.65 55.65,-78.08 80.87,-173.06 74.97,-282.31 z" id="path5"/>
		</g>
		<g id="g35">
			<g id="g11">
				<path class="st0" d="m 297.63,651.99 -6.94,-3.67 C 251.63,627.65 195.63,589.8 150.75,526.83 96.95,451.36 72.58,359.3 78.31,253.22 l 0.76,-14.04 h 14.06 c 21.47,0 40.97,-10.89 52.15,-29.12 l 9.84,-16.04 13.31,13.3 c 15.86,15.84 36.93,24.57 59.35,24.57 22.43,0 43.52,-8.73 59.37,-24.59 l 10.49,-10.5 10.5,10.5 c 15.86,15.86 36.94,24.59 59.37,24.59 22.42,0 43.5,-8.73 59.35,-24.57 l 13.31,-13.3 9.84,16.04 c 11.18,18.23 30.68,29.12 52.15,29.12 h 14.06 l 0.76,14.04 c 5.73,106.08 -18.64,198.14 -72.45,273.61 -44.89,62.96 -100.89,100.82 -139.95,121.49 z" id="path9"/>
			</g>
			<g id="g17">
				<path class="st1" d="m 502.15,254.02 c -27.45,0 -51.49,-14.49 -64.8,-36.2 -38.59,38.56 -101.13,38.55 -139.71,-0.03 -20.47,20.47 -47.68,30.08 -74.48,28.83 L 461.85,469.2 c 27.62,-55.5 45.12,-126.12 40.3,-215.18 z" id="path13"/>
				<path class="st1" d="m 297.63,634.87 c 23.62,-12.49 54.27,-31.52 84.65,-59.72 L 92.82,305.22 c 8.82,199.97 136.35,293.43 204.81,329.65 z" id="path15"/>
			</g>
			<path d="m 314.92,460.65 c -1.62,-3.79 -4.2,-9.35 -5.01,-16.19 l -8.21,-69.72 c -0.16,-1.59 0.09,-1.63 1.8,-2.49 1.54,-0.77 2.61,-4.55 0.2,-6.79 l -36.01,-33.55 c -3.61,-3.61 -6.64,-0.87 -5.44,3.9 1.32,5.22 0,0 1.32,5.22 0.91,3.62 1.78,7.67 0.18,11.16 -16.63,36.34 0.01,0 -16.63,36.34 -1.5,3.27 -2.41,3.25 -6.51,3.25 -3.14,0 -4.26,3.54 -2.79,4.92 0,0 12.93,11.93 14.71,13.72 1.78,1.78 4.22,-1.62 2.57,-5.46 -1.62,-3.78 -1.62,-3.79 1.38,-10.34 l 26.53,24.73 c 0,0 0,0 0.66,5.62 0.29,2.48 -0.05,3.08 -4.15,3.08 -3.14,0 -4.26,3.54 -2.79,4.92 0,0 34.02,31.6 35.8,33.38 l -0.18,-0.26 c 1.79,1.8 4.22,-1.6 2.57,-5.44 z m -54.78,-74.01 14.01,-30.6 c 1.36,1.39 1.66,2.68 2.12,6.11 l 5.24,44.41 z" id="path19"/>
			<g id="g23">
				<path d="m 215.39,316.1 c -6.96,1.07 -7.13,3.33 -6.9,6.53 0.75,10.43 -1.7,15.49 -9.14,15.49 -9.22,0 -13.49,-9.39 -12.48,-44.66 0.19,-6.61 3.6,-12.55 10.16,-12.55 6.56,0 9.53,8.12 10.92,16.42 0.53,3.16 1.82,5.45 8.78,6.53 6.94,1.07 8.11,-1.64 8.02,-4.55 -4.05,-24.88 -16.93,-35.7 -34.37,-35.7 -19.19,0 -34.75,14.38 -34.75,43.19 0,28.82 15.56,43.19 34.75,43.19 15.43,0 26.41,-6.56 33.04,-27.91 0.6,-3.28 -0.03,-7.21 -8.03,-5.98 z" id="path21"/>
			</g>
			<path d="m 383.38,454.76 c 0,-2.84 2.43,-3.34 4.31,-3.89 1.85,-0.55 3.1,-3.99 0.24,-6.85 l -30.56,-28.58 c -3.62,-3.62 -6.95,0.98 -4.75,5.38 2.18,4.36 4.87,10.08 4.87,15.35 v 57.05 c 0,2.85 -2.43,3.34 -4.3,3.9 -1.86,0.55 -3.1,3.99 -0.24,6.85 l 30.56,28.58 c 3.62,3.62 6.95,-0.98 4.75,-5.38 -2.17,-4.36 -4.87,-10.07 -4.87,-15.35 v -57.06 z" id="path25"/>
			<path d="m 152.58,263.71 c 0,4.3 -3.48,7.79 -7.79,7.79 -4.3,0 -7.79,-3.49 -7.79,-7.79 0,-4.3 3.49,-7.79 7.79,-7.79 4.3,0.01 7.79,3.49 7.79,7.79 z" id="path27"/>
			<path d="m 242.73,347.62 c 0,4.3 -3.48,7.79 -7.79,7.79 -4.3,0 -7.79,-3.49 -7.79,-7.79 0,-4.3 3.49,-7.79 7.79,-7.79 4.31,0 7.79,3.49 7.79,7.79 z" id="path29"/>
			<path d="m 340.34,438.7 c 0,4.3 -3.49,7.79 -7.79,7.79 -4.3,0 -7.78,-3.49 -7.78,-7.79 0,-4.3 3.48,-7.79 7.78,-7.79 4.3,0.01 7.79,3.49 7.79,7.79 z" id="path31"/>
			<path d="m 416.64,509.87 c 0,4.3 -3.49,7.79 -7.79,7.79 -4.3,0 -7.79,-3.49 -7.79,-7.79 0,-4.3 3.49,-7.79 7.79,-7.79 4.3,0 7.79,3.49 7.79,7.79 z" id="path33"/>
		</g>
	</g>
</g>
</svg>