<svg xmlns:dc="http://purl.org/dc/elements/1.1/" xmlns:cc="http://creativecommons.org/ns#" xmlns:rdf="http://www.w3.org/1999/02/22-rdf-syntax-ns#" xmlns:svg="http://www.w3.org/2000/svg" xmlns="http://www.w3.org/2000/svg" xmlns:sodipodi="http://sodipodi.sourceforge.net/DTD/sodipodi-0.dtd" xmlns:inkscape="http://www.inkscape.org/namespaces/inkscape" version="1.0" width="518.000000pt" height="518.000000pt" viewBox="0 0 518.000000 518.000000" preserveAspectRatio="xMidYMid meet" id="svg2" inkscape:version="0.48.4 r9939" sodipodi:docname="mmmmmmmm.svg">
  <defs id="defs18"/>
  <sodipodi:namedview pagecolor="#ffffff" bordercolor="#666666" borderopacity="1" objecttolerance="10" gridtolerance="10" guidetolerance="10" inkscape:pageopacity="0" inkscape:pageshadow="2" inkscape:window-width="1600" inkscape:window-height="844" id="namedview16" showgrid="false" inkscape:zoom="1.2680787" inkscape:cx="323.75" inkscape:cy="134.48731" inkscape:window-x="-4" inkscape:window-y="-4" inkscape:window-maximized="1" inkscape:current-layer="svg2"/>
  <metadata id="metadata4">
Created by potrace 1.11, written by Peter Selinger 2001-2013
<rdf:RDF>
  <cc:Work rdf:about="">
    <dc:format>image/svg+xml</dc:format>
    <dc:type rdf:resource="http://purl.org/dc/dcmitype/StillImage"/>
  </cc:Work>
</rdf:RDF>
</metadata>
  <g transform="translate(0.000000,518.000000) scale(0.100000,-0.100000)" fill="#000000" stroke="none" id="g6" style="fill:#0000ff">
    <path d="M2413 4881 c-296 -167 -592 -218 -877 -151 -164 39 -200 53 -447 163 l-57 26 -128 -152 c-71 -83 -198 -232 -281 -330 -84 -98 -153 -182 -153 -186 0 -4 45 -60 100 -125 230 -271 305 -442 271 -618 -15 -74 -85 -226 -174 -376 -97 -163 -163 -282 -187 -337 -146 -333 -186 -574 -145 -862 52 -365 172 -621 399 -849 128 -128 252 -215 426 -298 219 -104 415 -160 768 -216 159 -25 264 -58 335 -104 29 -18 96 -81 151 -140 54 -59 102 -105 107 -104 4 2 41 35 81 73 156 150 186 173 266 203 89 35 168 52 372 82 258 38 425 88 624 187 344 172 590 410 744 718 87 175 130 350 139 555 4 122 2 166 -17 275 -56 336 -145 556 -368 915 -53 85 -106 180 -119 210 -27 66 -30 153 -7 231 25 86 112 241 233 417 100 143 111 165 100 180 -8 9 -59 71 -114 137 -54 66 -122 147 -150 181 -27 33 -97 118 -154 187 -58 70 -108 127 -112 127 -4 0 -57 -20 -119 -45 -262 -105 -440 -145 -651 -145 -224 0 -401 47 -622 164 -69 36 -126 66 -128 65 -2 0 -50 -26 -106 -58z m220 -70 c406 -214 798 -222 1281 -25 60 25 112 41 116 37 11 -12 153 -183 263 -318 54 -66 117 -142 140 -169 79 -92 82 -73 -31 -236 -177 -256 -245 -410 -244 -551 1 -95 29 -159 151 -349 244 -379 362 -715 378 -1075 15 -336 -124 -689 -375 -956 -180 -191 -421 -344 -689 -439 -115 -41 -183 -55 -433 -95 -336 -53 -417 -86 -572 -234 l-100 -95 -86 91 c-138 144 -217 184 -438 223 -317 56 -439 84 -577 131 -589 198 -911 557 -1011 1124 -59 332 -8 624 167 964 61 119 123 229 165 291 43 63 149 294 162 352 20 89 9 208 -29 301 -38 95 -132 239 -240 367 -44 52 -81 97 -81 100 0 5 366 440 462 549 l38 44 117 -52 c217 -97 377 -139 573 -148 243 -11 494 57 725 196 28 16 51 30 53 30 2 1 54 -26 115 -58z" id="path8" style="fill:#0000ff"/>
    <path d="M2425 4633 c-380 -194 -804 -204 -1240 -28 -47 19 -88 35 -90 35 -3 0 -257 -293 -313 -362 l-23 -28 59 -72 c172 -210 251 -395 252 -587 0 -171 -44 -292 -212 -576 -58 -99 -131 -229 -161 -290 -134 -269 -179 -508 -143 -755 15 -100 44 -236 53 -249 4 -6 56 23 208 114 66 40 266 159 445 265 179 106 357 211 395 235 39 23 126 75 195 116 69 40 221 131 339 201 117 70 217 128 222 128 5 0 9 92 9 206 l0 206 -31 29 -31 29 171 0 c94 0 171 -3 171 -6 0 -3 -11 -15 -25 -26 -24 -19 -25 -22 -25 -154 0 -74 2 -134 5 -134 2 0 55 31 117 68 145 88 340 204 1018 605 102 60 196 117 209 126 13 9 33 42 45 77 29 79 82 174 173 311 41 61 73 118 71 127 -4 18 -307 386 -318 386 -5 0 -48 -15 -97 -34 -205 -78 -383 -110 -608 -110 -236 0 -444 48 -647 150 -48 24 -91 44 -95 43 -5 0 -48 -21 -98 -46z m-702 -463 c226 -37 325 -187 315 -480 -8 -226 -73 -341 -228 -405 -37 -16 -78 -20 -239 -23 l-195 -4 32 27 32 27 0 403 0 403 -32 31 -32 31 145 0 c79 0 170 -4 202 -10z" id="path10" style="fill:#d40000"/>
    <path d="M1630 3720 l0 -270 34 0 c71 0 121 38 160 120 17 36 21 64 21 145 0 90 -3 106 -29 158 -35 73 -91 117 -148 117 l-38 0 0 -270z" id="path12" style="fill:#d40000"/>
    <path d="M3695 3396 c-159 -96 -425 -253 -590 -351 -368 -218 -449 -267 -453 -270 -2 -2 -3 -90 -3 -197 l1 -193 26 -23 25 -22 -167 0 -167 0 27 25 c25 23 26 27 26 145 0 66 -3 120 -6 120 -3 0 -53 -28 -112 -63 -613 -363 -1084 -644 -1458 -867 l-192 -115 35 -70 c193 -383 577 -610 1211 -715 212 -36 283 -52 362 -82 68 -26 174 -95 219 -142 19 -20 39 -36 44 -36 5 0 34 22 65 50 65 58 187 121 292 149 41 11 176 36 300 56 257 40 303 52 455 112 397 158 690 438 818 778 55 147 71 238 71 400 -1 335 -105 644 -343 1015 -134 210 -160 270 -189 427 l-7 41 -290 -172z m-551 -1073 c3 -10 35 -133 71 -273 36 -140 69 -262 72 -270 3 -8 33 89 68 215 34 127 70 256 79 288 l17 57 149 0 148 0 -29 -30 c-25 -25 -29 -35 -24 -62 3 -18 30 -197 60 -396 45 -311 56 -367 74 -386 12 -12 21 -26 21 -29 0 -4 -55 -6 -122 -5 l-123 3 -35 272 c-19 149 -38 274 -41 277 -3 3 -39 -119 -80 -272 l-75 -277 -74 -3 c-40 -2 -77 1 -82 6 -5 5 -42 135 -82 288 -60 229 -74 272 -79 243 -4 -18 -20 -142 -37 -274 -17 -132 -32 -246 -35 -252 -3 -10 -39 -13 -132 -13 l-127 0 27 28 c25 26 29 46 82 406 30 209 55 392 55 407 0 18 -9 35 -26 48 l-27 21 151 0 c135 0 151 -2 156 -17z" id="path14" style="fill:#0000ff"/>
  </g>
</svg>