<svg xmlns="http://www.w3.org/2000/svg" xmlns:xlink="http://www.w3.org/1999/xlink" version="1.0" id="Layer_1" x="0px" y="0px" width="378.49px" height="440.273px" viewBox="0 0 378.49 440.273" enable-background="new 0 0 378.49 440.273" xml:space="preserve">
<path fill="#F6DF21" d="M189.245,440.273c29.147-6.339,55.296-16.414,76.067-28.469c21.336-12.395,39.165-29.77,53.088-48.673  c21.45-29.148,35.712-64.409,45.278-99.782c10.81-41.656,15.282-82.18,14.772-130.854c0-43.863,0.17-88.688-0.85-132.495  c-61.975,38.826-125.817,54.164-188.356,54.164C126.761,54.164,62.863,38.826,0.889,0c-1.02,43.807-0.85,88.632-0.85,132.495  c-0.509,48.674,3.962,89.198,14.772,130.854c9.566,35.374,23.885,70.521,45.278,99.782c14.037,18.846,31.695,36.335,53.089,48.673  C133.95,423.974,160.153,433.934,189.245,440.273L189.245,440.273z"/>
<path fill="#E32219" d="M17.415,251.69C9.095,215.807,5.869,179.924,5.473,137.815l0,0l0.85-127.627l0,0  c63.446,34.637,110.309,45.674,170.698,49.07l0,0L17.415,251.69L17.415,251.69z"/>
<path d="M19.565,260.179c0.396,1.528,0.623,2.604,1.019,4.132c9.225,34.242,23.262,68.54,43.75,96.499  c13.243,18.055,31.015,35.374,51.334,47.09c19.809,11.376,45.617,21.394,73.69,27.449c28.128-6.112,53.937-16.13,73.689-27.506  c20.319-11.659,38.147-29.035,51.334-47.089c20.488-27.902,34.525-62.257,43.75-96.499c10.47-40.242,15.055-79.462,14.998-126.495  l0,0l-0.849-127.627l0,0c-67.69,36.958-116.478,47.032-182.923,49.693c-1.416,0-2.717-0.114-4.075-0.171l0,0L19.565,260.179  L19.565,260.179z"/>
<path fill="#F6DF21" d="M245.369,262.388c0,0.117,0.059,0.117,0.059,0.176c4.646,8.763,7.117,18.407,7.117,28.994  c0,35.287-28.995,63.811-64.105,63.811c-35.169,0-63.75-28.523-63.75-63.811c0-10.469,2.528-20.349,6.998-29.17l0,0l31.111,0.059  v-20.701h-8.645V186.58l-19.997,16.584v38.639h-8.82l0.058,18.173l0,0c-9.056,12.644-14.526,28.522-14.526,45.226  c0,42.932,34.817,77.631,77.513,77.631c42.697,0,77.924-34.699,77.924-77.631c0-15.703-4.586-30.346-12.762-42.756l0,0h14.526  v-20.643h-10.821l0.059-20.937l-19.054,5.941v14.644l0,0c-3.882-4.058-8.058-6.999-13.703-9.292  c2.646,2.529,5.587,5.881,8.469,9.645l0,0l-7.763,0.059l-5.293-12.527l0,0c-0.412-1.529-0.53-2.705-0.53-3.352  c0-5.175,4.235-9.41,9.352-9.41c3.999,0,7.468,2.587,8.879,6.174l0,0l18.174-5.704l0,0c-3.824-11.35-14.586-19.584-27.053-19.584  c-15.644,0-28.465,12.879-28.465,28.641c0,2.646,0.47,5.234,1.117,7.763l0,0l3.116,7.939h-9.703v-49.754l0,0  c11.057-10.351,17.349-23.406,17.349-37.11c0-7.587-2.705-15.703-8.293-23.406l0,0l-30.229-47.05v119.563l0,0  c-0.941,1.412-1.881,2.823-2.882,4.058c-1.176-12.88-7.528-23.936-14.172-29.817l0,0l-2.353,2.646l0,0  c9.233,10.528,12.762,18.585,12.762,32.582c-1.412,7.763-3.529,15.115,2.176,22.819l0,0l4.587,5.469h-7.292v20.643h46.166  l6.352,16.055l0,0c1.647,3.999,2.705,8.587,2.705,12.998c0,18.231-15.056,33.052-33.229,33.052  c-18.231,0-33.051-14.82-33.051-33.052c0.529-8.822,4.234-19.879,7.116-24.171l0,0l-21.172-0.059l0,0  c-3.764,7.352-5.998,15.585-5.998,24.289c0,29.405,23.876,53.224,53.105,53.224c29.229,0,53.4-23.819,53.4-53.224  c0-7.117-1.528-14.291-4.058-20.584l0,0l-3.705-8.586H245.369L245.369,262.388z M150.977,174.935l0.058-14.349l13.527-4.294  l-13.585-4.469v-14.232L142.685,149l-13.526-4.294l8.352,11.527l-8.41,11.409l13.585-4.292L150.977,174.935L150.977,174.935z   M194.732,187.403V123.77l0,0c3.293,4.94,6.528,9.88,9.88,14.761c5.587,9.881,4.999,20.644,2.353,29.347  C204.319,176.582,199.143,183.64,194.732,187.403L194.732,187.403z M173.619,236.393c-3.47-2.822-5.234-7.821-4.939-12.115  c0-4.058,1.176-7.057,2.175-9.938c0.412-1.117,1.765-3,2.764-4.528l0,0V236.393L173.619,236.393z"/>
<path fill="#FFFFFF" d="M60.995,59.314c7.753,0,15.112,2.038,21.45,5.434c4.754,2.491,9.226,6.112,12.734,10.244  c-3.905-2.773-8.715-4.868-13.131-6.169c-8.093-2.546-19.016-0.962-27.223,3.679c-11.264,6.453-18.678,18.677-18.225,31.582  c-0.566,9.622,5.093,23.488,15.903,30.28c2.151,1.415,6.905,4.868,16.187,6.169c4.189,0.453,13.017,0,20.092-3.283  c2.321-1.301,4.471-2.716,6.792-4.301c-3.057,3.68-6.848,7.019-10.753,9.565c-6.849,4.189-15.112,6.848-23.828,6.848  c-12.338,0-23.601-5.15-31.752-13.3c-8.149-8.094-13.187-19.357-13.187-31.751c0-12.395,4.981-23.658,13.187-31.809  C37.395,64.409,48.657,59.314,60.995,59.314L60.995,59.314z M107.123,120.214v-12.451L95.35,103.97l11.716-3.791l0.057-12.396  l7.188,9.905l11.829-3.736l-7.301,10.075l7.357,9.905l-11.885-3.735L107.123,120.214L107.123,120.214z"/>
<path fill="#F6DF21" d="M340.055,79.485c-0.236-1.412-1.059-2-2.353-2c-1.117,0-1.881,0.413-2.411,1.177  c-0.706,0.941-1.176,2.293-1.471,4.234l0,0l-0.059,1.295l0.412-0.648l0,0c1.058-1.352,2.47-1.999,4.41-1.999  c2.294,0,4,1,4.941,3.235c0.411,0.822,0.588,1.646,0.588,2.587c0,1.94-0.765,3.529-2.176,4.823  c-1.235,1.058-2.823,1.705-4.882,1.705c-2.411,0-4.175-0.94-5.527-2.764c-0.941-1.471-1.412-3.412-1.412-6.117  c0-1.293,0.059-2.646,0.412-3.822c0.294-2,1.176-3.529,2.353-4.705c1.235-1.118,2.881-1.647,4.822-1.647c1.588,0,2.823,0.294,4,1  c1.117,0.646,1.823,1.881,2,3.47l0,0l0.058,0.47h-3.705V79.485L340.055,79.485z M311.942,90.248l0.765-0.647l0,0  c0.824-0.588,1.765-1.353,2.882-2.352c1.177-0.999,2.235-1.94,3.176-2.823c0.471-0.411,1-1,1.47-1.529  c0.413-0.529,0.765-1.117,1.06-1.646c0.118-0.411,0.235-0.882,0.235-1.353c0-1.117-0.471-1.823-1.471-2.176  c-0.412-0.176-0.823-0.235-1.235-0.235c-1.412,0-2.294,0.765-2.705,2.353l0,0l-0.118,0.294h-3.588v-0.647l0,0  c0.059-1.706,0.824-2.882,2.176-3.765c1.235-0.588,2.587-0.882,4.352-0.882c1.706,0,3.235,0.413,4.293,1.118  c1.412,0.94,2,2.175,2,3.94c0,0.824-0.177,1.706-0.47,2.293c-0.413,1-1.118,2-1.883,2.764c-0.764,0.823-1.705,1.529-2.706,2.412  c-1.234,1.058-2.234,1.823-3.057,2.293l0,0l-1.471,1.059h10.057v2.764h-13.762V90.248L311.942,90.248z M277.48,77.544  c0.588-0.235,1.176-0.471,1.998-1.059c0.471-0.354,1-0.646,1.412-1l0,0l0.413-0.353h3.234v18.349h-3.412v-14.82l-0.588,0.47l0,0  c-0.47,0.412-1.059,0.706-1.47,1c-0.706,0.353-1.353,0.588-1.823,0.764l0,0l-0.764,0.294v-3.234L277.48,77.544L277.48,77.544z   M296.711,88.953l0.059,0.647l0,0c0.177,1,1.059,1.529,2.529,1.647c1.118,0,1.881-0.412,2.471-1  c0.293-0.354,0.529-0.647,0.706-1.059c0.353-1.117,0.706-2.411,0.765-4.117l0,0l0.117-0.764l-0.588,0.53l0,0  c-0.999,1.294-2.411,1.941-4.058,1.941c-0.764,0-1.705-0.177-2.352-0.529c-0.823-0.236-1.47-0.648-1.883-1.236  c-0.999-0.999-1.587-2.411-1.587-4.117c0-1.823,0.706-3.411,2.058-4.587c1.235-0.941,2.882-1.471,4.939-1.471  c2.588,0,4.529,0.882,5.587,2.706c1,1.353,1.47,3.411,1.47,6.411c0,3.881-0.823,6.528-2.293,7.939  c-0.648,0.647-1.295,1.176-2.059,1.353c-1.176,0.411-2.234,0.647-3.469,0.647c-1.412,0-2.823-0.353-3.999-0.94  c-1.177-0.706-1.883-1.824-2.059-3.353l0,0l-0.059-0.647H296.711L296.711,88.953z M296.535,80.896c0,0.882,0.352,1.647,0.822,2.235  c0.765,0.588,1.412,0.883,2.235,0.883c0.999,0,1.647-0.294,2.293-1c0.589-0.588,0.882-1.411,0.882-2.293  c0-0.941-0.176-1.647-0.823-2.294c-0.53-0.647-1.177-0.941-2.176-0.941c-1,0-1.765,0.294-2.412,1  C296.887,79.132,296.535,79.956,296.535,80.896L296.535,80.896z M334.35,87.601c0,1.059,0.235,1.883,0.706,2.529  c0.53,0.706,1.236,1.117,2.294,1.117c0.646,0,1.117-0.236,1.764-0.647c0.53-0.353,0.883-0.941,1-1.529  c0.177-0.353,0.293-0.881,0.293-1.353c0-1.058-0.293-1.881-0.705-2.528c-0.589-0.647-1.354-0.999-2.353-0.999  c-0.941,0-1.705,0.352-2.176,0.999C334.585,85.896,334.232,86.66,334.35,87.601L334.35,87.601z"/>
<path fill="#F6DF21" d="M96.651,347.114l1.019-0.906l0,0c0.509-0.34,1.245-0.396,1.697,0.113l0,0l0.85,0.962l0,0  c0.452,0.452,0.452,1.245-0.057,1.698l0,0l-0.962,0.792l0,0c-0.566,0.453-1.302,0.396-1.698-0.113l0,0l-0.905-0.905l0,0  C96.198,348.188,96.143,347.453,96.651,347.114L96.651,347.114z M94.614,348.585l2.491,2.83l-13.867,12.111l-2.491-2.886  L94.614,348.585L94.614,348.585z M95.01,367.658l-0.509,0.623l0,0c-1.02,1.359-0.793,2.773,0.792,4.302  c0.623,0.622,1.302,1.018,2.037,1.188c0.907,0.283,1.698,0.057,2.264-0.566c0.453-0.452,0.453-1.075,0.227-1.754  c-0.284-0.623-0.51-1.302-0.792-1.811l0,0l-1.472-2.66l0,0c-0.339-0.679-0.622-1.245-0.848-1.868  c-0.736-1.755-0.396-3.396,0.962-4.811c1.302-1.358,2.83-1.868,4.641-1.642c1.527,0.227,3,1.019,4.415,2.377  c0.905,0.849,1.528,1.811,2.038,2.83c0.339,0.622,0.452,1.302,0.452,1.981c0,1.245-0.396,2.376-1.302,3.396l0,0l-0.34,0.339  l-2.716-2.66l0,0c1.132-1.415,1.075-2.716-0.17-3.906c-0.566-0.509-1.246-0.905-1.868-1.018c-0.85-0.227-1.528-0.057-2.038,0.452  c-0.566,0.566-0.623,1.359-0.227,2.321c0.17,0.452,0.34,0.905,0.623,1.302l0,0l1.867,3.282l0,0c0.453,0.792,0.737,1.641,0.85,2.434  c0.227,1.358-0.227,2.66-1.302,3.735c-0.509,0.509-1.075,0.905-1.641,1.188c-0.623,0.226-1.302,0.396-2.038,0.453  c-0.906,0-1.755-0.113-2.548-0.453c-1.131-0.453-2.15-1.188-3.055-2.094c-3.452-3.283-3.906-6.339-1.359-9.225l0,0l0.339-0.341  L95.01,367.658L95.01,367.658z M127.327,377.563l-1.698,2.32l-4.584-3.339l-9.112,12.565l-3.057-2.207l9.112-12.565l-4.584-3.339  l1.698-2.32L127.327,377.563L127.327,377.563z M135.59,381.581l4.416,1.981l-1.189,19.582l-3.792-1.697l0.339-4.188l-7.132-3.17  l-2.773,3.113l-3.622-1.641L135.59,381.581L135.59,381.581z M130.27,391.938l5.377,2.377l0.905-9.281L130.27,391.938L130.27,391.938  z M155.457,389.222l2.49,15.281l3.849-13.414l3.396,0.962l-5.093,17.658l-5.15-1.471l-2.434-15.564l-3.962,13.753l-3.339-0.962  l5.037-17.715L155.457,389.222L155.457,389.222z M170.172,392.901l4.075,0.395l2.659,0.227l0,0c1.982,0.17,3.396,0.623,4.246,1.189  c1.357,0.962,1.923,2.263,1.754,3.961c-0.17,1.868-1.245,3.057-3.056,3.51l0,0l-0.962,0.169l1.245,0.51l0,0  c2.037,0.905,3,2.434,2.83,4.584c-0.113,1.301-0.679,2.377-1.641,3.169c-0.566,0.453-1.189,0.735-1.868,0.962  c-0.85,0.227-1.755,0.396-2.718,0.396c-0.509-0.057-1.414-0.114-2.716-0.227l0,0l-1.925-0.227l-3.509-0.283L170.172,392.901  L170.172,392.901z M172.549,408.748l1.472,0.114l1.019,0.056l0,0c1.245,0.114,2.15,0,2.66-0.226  c0.905-0.396,1.416-1.076,1.528-2.095c0.057-0.792-0.227-1.471-0.85-2.037c-0.509-0.396-1.188-0.679-2.093-0.849l0,0l-1.811-0.114  l-1.473-0.169L172.549,408.748L172.549,408.748z M173.285,400.598l1.416,0.114l1.244,0.113l0,0c1.982,0.057,3.057-0.623,3.227-1.981  c0.057-1.415-0.962-2.321-3-2.491l0,0l-1.131-0.113l-1.416-0.114L173.285,400.598L173.285,400.598z M191.962,394.146l0.905,10.244  l0.113,1.019l0,0c0.283,3.057,1.755,4.415,4.245,4.246c2.491-0.227,3.736-1.755,3.566-4.528l0,0l-0.113-1.415l-0.905-10.245  l3.792-0.339l0.848,10.188l0,0c0.114,0.791,0.057,1.414,0.114,1.98c0.056,0.905-0.057,1.755-0.339,2.546  c-0.453,1.302-1.302,2.434-2.603,3.282c-1.189,0.792-2.548,1.189-4.076,1.302c-1.641,0.17-3.112-0.056-4.471-0.622  c-1.471-0.623-2.547-1.698-3.112-3.112c-0.396-0.906-0.566-1.868-0.737-2.944l0,0l-0.113-1.075l-0.849-10.244L191.962,394.146  L191.962,394.146z M213.299,391.655l3.509,15.169l7.583-1.755l0.623,2.716l-11.207,2.604l-4.132-17.941L213.299,391.655  L213.299,391.655z M232.938,399.296l0.339,0.679l0,0c0.793,1.528,2.208,1.924,4.189,1.132c0.848-0.339,1.528-0.736,1.98-1.358  c0.623-0.735,0.735-1.471,0.453-2.264c-0.227-0.623-0.793-0.906-1.529-0.962c-0.68-0.057-1.358-0.057-1.924-0.057l0,0l-3.057,0.227  l0,0c-0.735,0.057-1.415,0.057-2.038,0c-1.923-0.113-3.282-1.132-3.961-2.943c-0.68-1.698-0.51-3.339,0.452-4.868  c0.85-1.301,2.208-2.32,4.02-3c1.132-0.452,2.32-0.679,3.452-0.679c0.68,0,1.302,0.169,1.982,0.396  c1.075,0.566,1.98,1.357,2.49,2.604l0,0l0.169,0.509l-3.509,1.359l0,0c-0.792-1.641-2.038-2.151-3.622-1.529  c-0.737,0.284-1.359,0.736-1.755,1.245c-0.509,0.68-0.679,1.358-0.453,2.038c0.284,0.792,1.02,1.189,1.982,1.189  c0.509,0.057,1.018,0.057,1.471,0l0,0l3.735-0.284l0,0c0.962-0.056,1.868,0,2.604,0.227c1.359,0.396,2.321,1.358,2.83,2.773  c0.283,0.68,0.396,1.358,0.396,1.981c-0.057,0.679-0.171,1.357-0.453,2.037c-0.396,0.849-0.85,1.584-1.472,2.094  c-0.905,0.85-2.037,1.473-3.227,1.924c-4.414,1.755-7.357,0.793-8.885-2.66l0,0l-0.169-0.452L232.938,399.296L232.938,399.296z   M243.352,381.694l4.528-2.66l1.075-0.566l0,0c0.566-0.339,1.188-0.679,1.755-0.905c0.622-0.284,1.245-0.454,1.867-0.566  c1.019-0.113,2.038,0.057,3,0.623c0.906,0.509,1.642,1.245,2.208,2.263c1.018,1.755,1.188,3.396,0.509,4.868  c-0.566,1.189-1.755,2.321-3.566,3.509l0,0l-1.075,0.623l-1.358,0.736l3.509,6.112l-3.282,1.868L243.352,381.694L243.352,381.694z   M248.05,382.261l2.829,4.923l1.359-0.792l0,0c0.454-0.227,0.905-0.566,1.302-0.85c1.472-1.075,1.812-2.377,0.962-3.849  c-0.906-1.528-2.207-1.754-3.962-0.85l0,0l-1.132,0.68L248.05,382.261L248.05,382.261z M263.841,380.054  c-1.132-1.416-1.981-2.887-2.434-4.416c-0.339-0.961-0.396-1.924-0.282-2.886c0.113-0.962,0.395-1.868,0.848-2.66  c0.623-1.075,1.472-2.038,2.547-2.943c1.925-1.529,3.962-2.264,6-2.095c1.132,0.114,2.094,0.454,2.942,0.906  c1.245,0.792,2.491,1.868,3.566,3.17c4.018,5.037,3.849,9.281-0.509,12.847C272.047,385.6,267.803,384.977,263.841,380.054  L263.841,380.054z M266.727,377.563c2.773,3.565,5.491,4.245,7.98,2.264c2.434-1.982,2.264-4.698-0.566-8.207  c-1.018-1.246-2.093-2.264-3.282-2.886c-1.471-0.85-3.056-0.623-4.584,0.622c-0.566,0.509-0.962,0.962-1.302,1.585  C263.897,372.695,264.463,374.902,266.727,377.563L266.727,377.563z M278.273,355.037l1.075-1.188l0,0  c1.189-1.416,2.207-2.377,2.887-2.83c1.359-0.85,2.66-1.075,3.905-0.623c0.622,0.227,1.189,0.566,1.641,0.963  c0.962,0.792,1.471,1.811,1.585,2.773c0.056,0.85-0.227,1.868-0.792,3.169c1.301-1.132,2.546-1.472,3.678-0.85  c0.566,0.284,1.245,0.623,1.925,1.076c0.962,0.679,1.811,1.188,2.49,1.642c0.453,0.227,0.905,0.452,1.246,0.566l0,0l0.566,0.169  l-2.717,3.057l-0.453-0.227l0,0c-0.566-0.284-1.416-0.792-2.434-1.528c-1.698-1.189-2.887-1.755-3.453-1.641  c-0.396,0.056-0.962,0.452-1.527,1.075l0,0l-0.907,1.075l-1.244,1.416l5.603,4.923l-2.434,2.83l-13.866-12.112L278.273,355.037  L278.273,355.037z M283.537,361.263l1.528-1.754l0.509-0.679l0,0c1.358-1.755,1.414-3.169,0.17-4.244  c-0.227-0.171-0.396-0.341-0.679-0.396c-1.019-0.453-2.151-0.057-3.339,1.357l0,0l-0.849,0.905l-1.245,1.416L283.537,361.263  L283.537,361.263z"/>
</svg>