<svg xmlns="http://www.w3.org/2000/svg" xmlns:xlink="http://www.w3.org/1999/xlink" version="1.1" id="Layer_1" x="0px" y="0px" width="57.668px" height="56.251px" viewBox="0 0 57.668 56.251" enable-background="new 0 0 57.668 56.251" xml:space="preserve">
<polygon fill="#004794" points="36.427,24.239 36.716,23.205 37.697,23.647 37.773,23.628 37.776,23.548 37.15,22.678   38.102,22.188 38.136,22.113 38.076,22.063 37.005,22.009 37.215,20.957 37.181,20.887 37.101,20.9 36.393,21.709 35.701,20.887   35.622,20.87 35.585,20.939 35.775,21.998 34.7,22.025 34.638,22.073 34.672,22.147 35.616,22.661 34.967,23.517 34.967,23.597   35.046,23.615 36.035,23.199 36.302,24.239 36.364,24.288 "/>
<path fill="#004794" d="M38.385,20.172c-0.173-0.158-0.359-0.297-0.563-0.411l-0.246,0.499c0.589,0.34,1.028,0.916,1.185,1.599  l0.541-0.115l-0.094-0.323C39.043,20.938,38.754,20.51,38.385,20.172z"/>
<path fill="#004794" d="M35.236,19.787l0.11,0.224l0.052,0.102c0.26-0.107,0.544-0.17,0.836-0.182l0.184-0.002  c0.318,0.011,0.618,0.079,0.893,0.198l0.247-0.499c-0.346-0.15-0.726-0.241-1.123-0.255h-0.224l-0.496,0.067  c-0.195,0.04-0.383,0.097-0.563,0.173l0.045,0.092L35.236,19.787z"/>
<path fill="#004794" d="M38.819,22.301c0.025,0.615-0.177,1.191-0.527,1.639l0.411,0.374c0.448-0.553,0.703-1.267,0.672-2.036  l-0.023-0.246l-0.544,0.116L38.819,22.301z"/>
<path fill="#004794" d="M37.767,24.436l-0.226,0.142l-0.111,0.057l-0.159,0.071l-0.149,0.057l-0.11,0.034l-0.25,0.053l-0.312,0.037  h-0.057l-0.015,0.343l-0.014,0.114v0.011v0.094h0.107l0.103-0.015h0.02l0.034-0.002l0.071-0.009l0.139-0.021l0.45-0.109l0.301-0.117  l0.425-0.238l0.185-0.13l0.017-0.014l0.289-0.258l-0.408-0.374L37.767,24.436z M34.715,24.271l-0.057-0.048l-0.201-0.207  l-0.241,0.162l-0.065,0.045l-0.153,0.108l0.097,0.109l0.088,0.098l0.094,0.088l0.285,0.237l0.143,0.097l0.165,0.099l0.136,0.071  l0.059,0.031l0.065,0.028l0.046,0.02l0.082,0.031c0.179,0.071,0.368,0.122,0.562,0.156l0.258,0.034v-0.04l0.006-0.122l0.003-0.014  l0.017-0.343v-0.034c-0.399-0.04-0.769-0.173-1.089-0.38L34.715,24.271z"/>
<path fill="#004794" d="M34.142,23.872l0.055-0.037l0.067-0.049l0.003-0.022l-0.015-0.023l-0.119-0.21l-0.039-0.082l-0.122-0.312  c-0.06-0.19-0.097-0.385-0.107-0.589l-0.003-0.031v-0.083l0.028-0.402l0.005-0.043l-0.534-0.146l-0.058,0.516v0.153v0.028  l0.021,0.179l0.014,0.113l0.011,0.088c0.055,0.301,0.15,0.587,0.284,0.85l0.014,0.026l0.082,0.152l0.065,0.103l0.029,0.045  l0.263-0.184L34.142,23.872z"/>
<path fill="#004794" d="M46.58,15.787l0.107,0.354c0.034,0.122,0.055,0.244,0.037,0.355c-0.033,0.221-0.218,0.388-0.754,0.388  l-0.59-0.04l-0.45-0.082c-0.277-0.056-0.532-0.099-0.896-0.039l-0.618,0.158l-0.559,0.159c-0.389,0.082-0.837,0.091-1.539-0.134  c0.182-0.437,0.405-0.89,0.697-1.363c1.21-1.085,2.279-1.817,3.014-2.263C45.41,13.701,46.254,14.721,46.58,15.787z M45.447,17.593  c0.09-0.071,0.133-0.061,0.178-0.026c0.088,0.063,0.133,0.133,0.094,0.177l-0.08,0.067L45.6,17.803l-0.065-0.034l-0.161-0.025  c-0.159,0-0.301,0.115-0.423,0.231l-0.17,0.162l-0.127,0.071l-0.228,0.02l-0.085,0.018l-0.094-0.018l0.049-0.08l0.433-0.425  c0.241-0.258,0.451-0.34,0.602-0.374c0.15-0.031,0.179,0.034,0.179,0.091l-0.051,0.11L45.447,17.593z M36.611,18.625l-0.27-0.013  l-0.545,0.04l-0.085-0.167l0.261-0.25l0.709,0.225L36.611,18.625z M37.025,17.729l-0.834-0.264l-0.025-0.093l-0.105-0.329  l-0.017-0.058l0.122-0.088l0.323-0.234l0.356,0.149l0.542,0.23L37.025,17.729z M37.799,16.346l-1.211-0.511l-0.008-0.076  l-0.031-0.346l-0.012-0.111l0.077-0.042l0.465-0.252l0.362,0.191l0.816,0.438L37.799,16.346z M38.723,14.976l-1.219-0.652  l0.048-0.523l0.27-0.162l0.216-0.127l0.011-0.026l0.199,0.131l1.017,0.657L38.723,14.976z M39.777,13.652l-0.307-0.198l-1.176-0.766  l0.014-0.046l0.082-0.277l0.077-0.267l0.218-0.11l0.179-0.091l0.06-0.03l1.08,0.827l0.371,0.286L39.777,13.652z M40.931,12.396  l-1.585-1.216l0.013-0.06l0.062-0.357l0.026-0.153l0.005-0.024l0.335-0.098l0.258-0.073l0.405,0.359l1.12,0.993L40.931,12.396z   M45.098,12.776l-0.067,0.034l-0.037,0.025c-1.383,0.816-4.127,2.729-6.755,6.29l-0.232-0.124l-0.375-0.426l-0.328-0.368  l0.562,0.037l0.762,0.048l-0.362-0.629l-0.386-0.669l0.72,0.189l0.757,0.204l-0.337-0.817l-0.346-0.833l0.005-0.011l0.77,0.227  l0.892,0.267l-0.416-0.953l-0.335-0.759l0.012-0.014l0.681,0.257l1.043,0.394l-0.465-1.232l-0.219-0.575l0.485,0.192l1.462,0.587  l-0.697-1.692l-0.122-0.292l0.034-0.034l0.228,0.122l1.706,0.916l-0.771-2.081l0.015-0.011l2.276,1.077l0.385,0.356L45.098,12.776z   M42.161,11.22l-1.268-1.119l-0.127-0.116l-0.091-0.08l0.048-0.452l0.006-0.047l0.006-0.067l0.006-0.031l0.057-0.008l0.119-0.015  l0.306-0.039l0.156-0.023l0.014-0.014l1.432,1.442L42.161,11.22z M36.055,31.195l-0.127,0.08l-0.051,0.034l-0.38,0.277l-0.136,0.107  l-0.088,0.071c-0.338,0.275-0.713,0.609-0.995,0.927l-0.116,0.088c0.024-0.232,0.067-0.566,0.13-0.858l0.009-0.045l0.068-0.395  l0.127-1.097l0.02-0.188l0.116-1.216l0.017-0.215l0.004-0.017c0.033-0.4,0.176-0.854,0.258-1.095l0.062-0.17l0.037-0.11l0.08-0.241  l-0.318,0.125l0.146-0.354l0.195-0.479l0.083-0.154l0.133-0.209l0.303,0.071l0.44,0.056v0.899v1.229v0.043v0.524v0.655l-0.016,1.033  V31.195z M36.248,31.205l0.037-1.605l0.008-0.363l0.009-0.234l0.034-1.347l0.068-0.152l0.073-0.173l0.003,0.051  c0.015,0.286,0.049,0.655,0.121,0.975l0.085,0.354c0.193,0.834,0.549,2.4,0.6,2.862l0.019,0.167l-0.589-0.288L36.248,31.205z   M38.198,30.581l-0.402,0.799l-0.091,0.222l-0.071,0.107l-0.146-0.861c-0.046-0.411-0.335-1.696-0.525-2.526l-0.099-0.422  c-0.272-1.071-0.235-1.463-0.235-1.463l0.04-0.25l0.277-0.034l0.304-0.062l0.269-0.076l0.283,0.896l0.908,2.865  C38.621,29.881,38.414,30.197,38.198,30.581z M39.964,29.955l-0.589-0.122c-0.19-0.037-0.357-0.074-0.448-0.119l-0.94-3.198  l-0.183-0.609l0.472-0.234l0.237-0.156l0.19,0.277l0.773,1.506c0.176,0.43,0.357,0.921,0.53,1.491l0.334,1.224l-0.388-0.088  L39.964,29.955z M42.141,32.397c-0.229,0.425-0.407,0.7-0.581,0.904l-0.02-0.073c-0.388-1.272-0.584-1.758-0.68-1.938l-0.207-0.411  l0.28,0.064l-0.054-0.237l-0.422-1.571c0.632,0.757,1.868,0.978,3.299,1.114l-0.298,0.232l-0.399,0.357  C42.771,31.145,42.442,31.615,42.141,32.397z M48.721,22.412c-0.128,0.139-0.582,0.218-0.84,0.136l-0.306-0.1  c-0.105-0.028-0.227-0.049-0.397-0.046c-0.226,0.007-0.462,0.156-0.762,0.417c-0.315,0.27-0.604,0.286-0.76,0.14  c-0.153-0.15-0.17-0.469,0.057-0.868l0.213-0.405l-0.02-0.085l-0.233,0.159l-0.422,0.313l-0.19,0.171l-1.517,1.284  c-0.368,0.272-0.507,0.474-0.555,0.684c-0.026,0.104-0.026,0.212-0.021,0.334l0.018,0.408l0.011,1.074  c0,0.119,0.022,0.19,0.049,0.198l0.036-0.034l0.026-0.139l0.067-1.298c0.042-0.295,0.215-0.658,0.602-1.019  c0.47-0.438,1.161-0.966,1.439-1.176c-0.159,0.34,0.018,0.638,0.068,0.669c0.145,0.093,0.368,0.125,0.693,0.125  c0.114,0,0.217-0.025,0.31-0.065l0.274-0.155l0.281-0.154c0.1-0.042,0.207-0.069,0.332-0.069c0,0,0.227,0.26,0.303,0.568  l0.065,0.353c0.02,0.146,0.026,0.313-0.003,0.479c-0.059,0.332-0.263,0.649-0.802,0.754c-0.504,0.103-0.933,0.065-1.273,0.018  l-0.448-0.063c-0.124-0.015-0.226-0.015-0.306,0.018c-0.088,0.035-0.104,0.078-0.085,0.127l0.142,0.155  c0.122,0.116,0.255,0.252,0.122,0.405l0.006,0.088c0.049-0.003,0.134-0.037,0.219-0.106c0.167-0.143,1.757-0.672,2.32-0.159  c0.4,0.221,0.172,0.544-0.17,0.873l-0.532,0.486c-0.161,0.156-0.286,0.302-0.31,0.424l0.026,0.024l0.096-0.021  c0.083-0.021,0.193-0.046,0.306-0.026c0.228,0.043,0.46,0.272,0.475,1.089c0.017,1.148-0.967,1.406-1.585,1.406l-1.794-0.017  c-0.514-0.007-0.947-0.016-1.321-0.047c-0.748-0.059-1.259-0.203-1.681-0.571c-0.17-0.151-0.405-0.375-0.57-0.604l-0.181-0.238  c-0.499-1.426-1.021-2.353-1.478-2.962c0.675-0.542,1.159-1.31,1.341-2.188c0.082-0.176,0.207-0.258,0.514-0.21  c0.659,0.104,1.412,0.684,1.412,0.684l0.03,0.012l0.065-0.028c0.022-0.034,0.017-0.08-0.015-0.103l-0.413-0.295l-0.633-0.494  c-0.444-0.377-0.882-0.841-1.007-1.303l-0.034-0.102l-0.209-0.55c0.314-0.435,0.524-0.896,0.703-1.388l0.511-1.573  c0.422-0.003,0.805-0.093,1.153-0.212l0.496-0.195l0.459-0.204c0.584-0.252,1.066-0.397,1.52,0.011  c0.057,0.051,0.022,0.119-0.049,0.202l-0.28,0.277c-0.104,0.11-0.227,0.189-0.365,0.258l-0.448,0.176  c-0.521,0.19-0.683,0.337-0.666,0.428c0.021,0.091,0.222,0.125,0.425,0.091c0.381-0.063,0.828,0.006,1.108,0.076  c0.563,0.146,0.545,0.363,0.445,0.545l-0.142,0.232c-0.022,0.057-0.003,0.091,0.124,0.091c0.581-0.057,0.831-0.403,0.979-0.746  l0.17-0.473c0.051-0.136,0.104-0.233,0.189-0.255c0.305-0.077,0.703-0.146,1.266,0.725C47.924,19.724,49.117,22.018,48.721,22.412z   M30.652,35.59l1.153,0.316l1.229,0.239l0.024-0.028l-0.438-1.225l-0.472-1.063l0.843,0.173l0.933,0.194l0.071,0.499l0.002,0.031  c-0.53,0.862-1.156,1.735-1.865,2.619l-0.706,0.851l-0.059-0.34c-0.08-0.375-0.188-0.709-0.304-1.028l-0.229-0.631L30.652,35.59z   M31.372,38.26l-1.097,1.229l-1.332-2.193l1.188,0.519L31.372,38.26z M28.192,31.743l0.036-0.209c0.076-0.4,0.246-1.266,0.357-1.616  l0.037-0.156l-0.337-0.128l-0.718-0.164l-0.63-0.102c-0.331-0.046-0.675-0.074-1.001-0.074l-0.075-0.018l-0.085-0.017l0.107-0.059  c0.326-0.174,0.759-0.395,1.136-0.554c0.35-0.152,1.141-0.547,1.935-0.98l1.133-0.658l0.851-0.566l0.938-0.635l0.459-0.321  l0.179-0.146l0.161-0.148l0.584-0.504l0.032-0.022l0.045,0.057l0.4,0.439l0.459,0.374l0.377,0.227l-0.018,0.06l-0.11,0.344  l-0.156,0.371l-0.405,0.736c-0.252,0.389-0.566,0.785-0.947,1.18c-0.38,0.394-0.821,0.784-1.323,1.168  c-0.501,0.383-1.063,0.763-1.676,1.14l-1.11,0.632L28.192,31.743z M20.765,25.377l-0.03-0.009l-1.542,0.975l-0.021-0.031  l0.003-0.031l1.313-0.991l-0.541-0.128l0.569-0.238l0.517-0.21l0.011-0.005l0.78-0.289c0.515-0.18,1.063-0.341,1.502-0.445  l0.776-0.207l0.174-0.049l0.271-0.396l0.524-0.776l-0.232-0.063l-1.619-0.298l-1.514-0.269l-0.178-0.074  c0.467-0.116,1.155-0.264,1.736-0.337l2.778-0.435l3.101-0.417l0.783-0.122c0.258-0.042,0.507-0.078,0.737-0.082  c0.453-0.006,0.819-0.07,0.819-0.07l0.848,0.051l0.69,0.142l-0.13,0.262c-0.128,0.277-0.221,0.569-0.28,0.879l-0.042,0.28  l-0.023,0.417l0.003,0.121l-0.286-0.014c-0.409-0.022-2.278,0.155-2.278,0.155l-0.347,0.04c-0.349,0.045-0.749,0.104-1.117,0.195  l-2.454,0.581l-1.427,0.347l-0.246,0.059l-0.277,0.077l-0.743,0.195c-0.49,0.119-1.043,0.289-1.482,0.442l-0.511,0.185l-0.275,0.106  l-0.51,0.207l0.435,0.105L20.765,25.377z M32.912,12.93c-0.525-0.128-1.256-0.272-1.925-0.329l-1.895-0.125l-0.683-0.028  l-0.045-0.003l-0.629-0.02l-1.302-0.021l-1.834-0.002c-0.536-0.015-1.148,0.009-1.636,0.039l-0.876,0.071l-0.57,0.062l0.406,0.22  l-2.58,0.535l2.019-0.612l-0.508-0.272l0.636-0.07l0.572-0.06l0.882-0.07c0.578-0.037,1.182-0.055,1.652-0.043l0.819,0.006  l1.258,0.003l0.505-0.44l0.451-0.354l0.195-0.161l-0.06-0.061l-0.012-0.009l-0.181-0.175l-0.794-0.624l-0.649-0.439  c-0.348-0.219-0.725-0.431-1.1-0.606L24.87,9.222c0.507,0.017,1.256,0.063,1.874,0.142l0.754,0.082l2.253,0.241  c1.27,0.15,2.599,0.357,3.379,0.496c0.49,0.082,1.023,0.224,1.468,0.36l0.222,0.07l0.834,0.292l0.112,0.046l0.031,0.014l0.241,0.822  l-0.878,0.238l0.276,1.031L34.8,13.439l-0.232-0.054C33.827,13.073,32.912,12.93,32.912,12.93z M25.088,6.212l-0.02-0.021  l-1.329,0.076l1.739-0.241l0.021-0.024l0.408-0.051l-0.434-0.347l1.143,0.061l0.825,0.062c0.322,0.031,0.946,0.1,1.538,0.21  l0.825,0.133l1.724,0.281l-0.474-0.599c-0.354-0.408-0.811-0.873-1.277-1.235L29.66,4.38c0.409,0.08,1.012,0.216,1.503,0.369  l2.404,0.68l0.093,0.029c0.983,0.294,1.993,0.64,2.588,0.863c0.454,0.171,0.94,0.421,1.31,0.631l0.626,0.388l0.244,0.17l0.023,0.085  l0.008,0.023l0.162,0.598L37.529,8.24c-0.845-0.407-2.175-0.881-2.67-1l-1.557-0.352L33.13,6.852l-0.145-0.028l-0.249-0.051  l-0.162-0.03l-0.192-0.037L32.313,6.69L32.18,6.665L31.86,6.608l-0.18-0.034l-2.726-0.445c-0.497-0.09-1.066-0.161-1.523-0.204  l-0.818-0.063l-0.536-0.027l0.349,0.274l-0.022,0.002l-0.06,0.003L25.088,6.212z M24.402,9.19l-2.85,0.286l2.339-0.385l0.021-0.029  l-0.026-0.02l-0.042,0.006l-0.442-0.3l0.638,0.003l0.579,0.002h0.017l0.751,0.02l0.119,0.006c0.584,0.025,1.188,0.076,1.652,0.14  l0.924,0.099l0.216,0.021l1.233-0.604l0.155-0.107l-0.022-0.037L29.485,8.11L29.34,7.988l-0.025-0.02l-0.675-0.51  c-0.447-0.38-1.018-0.799-1.588-1.117l-0.144-0.125l0.465,0.046l1.065,0.139l0.207,0.036l1.128,0.183l1.661,0.271l0.015,0.003  l0.077,0.015c0.85,0.149,1.72,0.331,2.397,0.484l0.637,0.15c0.491,0.116,1.021,0.3,1.446,0.471l0.108,0.042l0.754,0.335l0.231,0.116  l0.08,0.368l0.085,0.408l0.022,0.113l-0.592,0.028l-0.119,0.006l-0.329,0.017l0.062,0.145l0.037,0.085l0.114,0.261l0.195,0.454  l-0.822,0.204l-0.419-0.165c-0.517-0.172-1.233-0.379-1.902-0.496c-0.609-0.106-1.931-0.323-3.237-0.48l-1.607-0.18l-0.703-0.073  l-0.714-0.073l-0.108-0.016c-0.535-0.067-1.147-0.112-1.638-0.136l-0.119-0.005l-0.763-0.02h-0.575L24.402,9.19z M33.915,32.506  l-0.099,0.453l-0.326-0.586l-0.228-0.329l0.023-0.04l0.615-0.045h0.057L33.915,32.506z M26.094,4.08h1.725l0.776,0.009l-0.349-0.375  l0.541,0.085l0.471,0.077l0.72,0.13c0.278,0.06,0.822,0.179,1.332,0.335l0.748,0.207l1.311,0.359l-0.201-0.32  c-0.284-0.431-0.661-0.918-1.066-1.31l-0.096-0.139c0.374,0.102,0.921,0.275,1.363,0.465l0.873,0.349l1.28,0.527l1.324,0.632  l1.043,0.567c0.395,0.229,0.804,0.55,1.104,0.816l0.502,0.484l0.149,0.17l-0.022,0.1l-1.114,0.054  c-0.608-0.397-1.278-0.808-1.729-1.057l-0.435-0.174c-0.479-0.179-1.526-0.542-2.573-0.848l-0.27-0.079l-2.239-0.621  c-0.425-0.13-0.921-0.247-1.314-0.329l-0.715-0.13l-0.378-0.06l-0.088-0.014l0.207,0.218l0.071,0.077l-1.372-0.089L26.52,4.123  l-0.354-0.026L26.094,4.08z M21.511,16.237l-3.013,0.87l2.503-0.876l0.014-0.03l-0.03-0.015l-0.023,0.008l-0.479-0.224l0.611-0.11  l0.544-0.097c0.114-0.021,1.415-0.241,2.436-0.303l0.888-0.082l0.646-0.663l0.212-0.196l-0.07-0.067l-0.051-0.043l-0.128-0.1  l-0.065-0.048l-0.012-0.008L24.7,13.743c-0.353-0.204-0.764-0.416-1.188-0.604l-0.646-0.256l-0.173-0.103  c0.502-0.038,1.25-0.072,1.867-0.062h1.56l1.448,0.02c1.272,0.025,2.604,0.108,3.388,0.177c0.49,0.039,1.02,0.133,1.468,0.226  l0.244,0.054l1.329,0.289l0.295,0.114l0.425,0.156l0.148,0.501l-0.196,0.077l-0.34,0.133l0.064,0.165l0.098,0.238l0.09,0.221  l0.031,0.079l-0.566,0.289l-0.068-0.015c-0.773-0.21-1.816-0.266-1.816-0.266c-0.525-0.049-1.245-0.083-1.897-0.046  c-0.595,0.031-1.882,0.119-3.146,0.236l-0.438,0.042l-1.396,0.139l-0.53,0.054l-0.661,0.058c-1.037,0.062-2.357,0.288-2.412,0.3  l-0.547,0.099L21.511,16.237z M22.245,27.721l-2.543,1.508l1.938-1.349l0.006-0.034l-0.033-0.006l-0.021,0.014l-0.632-0.109  l0.677-0.329l0.604-0.295c0.116-0.061,1.392-0.663,2.512-1.077l0.147-0.615l-0.676-0.199l-0.699-0.164l-0.06-0.011l-1.046-0.224  l-0.159-0.068c0.385-0.122,0.961-0.287,1.446-0.38l0.178-0.037l2.135-0.516l2.571-0.612c0.437-0.105,0.929-0.17,1.313-0.216  l0.663-0.06l0.601-0.048c0,0,0.38-0.1,0.814-0.071l0.246,0.015l0.346,0.014l0.022,0.176l0.003,0.012l0.06,0.283l0.152,0.481  l-2.973,0.927l-0.301,0.083l-2.381,0.734l-1.408,0.448l-0.358,0.115l-0.705,0.222l-0.128,0.045  c-0.927,0.359-1.879,0.803-2.137,0.927l-0.068,0.034l-0.606,0.295L22.245,27.721z M24.212,30.167l-1.788,1.469l-0.022-0.026  l1.224-1.224v-0.034h-0.034l-0.014,0.014l-0.439-0.06c0,0,1.754-1.21,2.979-1.905c0.062-0.204,0.128-0.382,0.192-0.489l-0.014,0.006  l-0.451-0.186l-0.646-0.194c-0.505-0.132-1.126-0.238-1.707-0.244l-0.17-0.04c0.374-0.185,0.936-0.432,1.415-0.589l0.924-0.338  l1.338-0.477l2.477-0.859c0.414-0.144,0.879-0.266,1.239-0.356l0.615-0.15l0.561-0.176l0.724-0.201l0.303-0.064l0.179,0.331  l0.085,0.133l-1.794,1.344l-0.125,0.082l-0.496,0.309l-0.748,0.457l-1.113,0.654c-0.801,0.44-1.64,0.862-1.993,1.016l-0.91,0.434  l-0.026,0.011l-0.748,0.411l-0.949,0.556l-0.569,0.352L24.212,30.167z M29.17,31.564l0.927-0.553  c0.743-0.456,1.414-0.918,2.004-1.395c0.587-0.474,1.092-0.964,1.505-1.461c0.235-0.282,0.44-0.565,0.612-0.847l-0.056,0.618  c-0.063,2.384-2.665,5.805-2.665,5.805l0.125-0.881c0.042-0.389,0.074-0.898,0.067-1.607L29.17,31.564z M25.244,34.279l0.031,0.003  l0.213-0.189l-0.026,0.037l-0.104,0.182l0.009,0.031h0.003l-0.271,0.547c-0.144,0.326-1.159,1.961-1.508,2.299  c0.499-0.049,2.778-0.451,2.878-0.494c0.139-0.039,0.552-0.229,0.893-0.407l-0.349,0.632l0.487-0.201  c0.049-0.021,0.658-0.278,1.301-0.621c0.65-0.34,1.321-0.768,1.603-1l0.739-0.635c-0.696,0.802-1.514,1.621-2.438,2.46  c-0.161,0.147-0.207,0.423-0.1,0.613l1.336,2.347c0.118,0.209,0.37,0.221,0.556,0.017c1.423-1.574,2.636-3.106,3.577-4.624  l0.146,1.741l0.08,0.952c0.022,0.271,0.294,0.539,0.609,0.845c0.422,0.414,0.882,1.037,1.057,1.613  c0.216-0.629,0.667-1.432,0.927-1.709l0.135-0.146l0.067-0.112l0.082-0.682l0.363,0.414l0.071-0.356l0.17-0.986  c0.085-0.505,0.17-1.066,0.173-1.327c0.019-1.386-0.026-1.928-0.068-2.14l-0.083-0.445l0.265,0.564l0.85,2.065l0.34,0.849  c0.049,0.122,0.148,0.227,0.278,0.325l0.468,0.289l0.38,0.225l0.4,0.271c0.257,0.198,0.476,0.432,0.558,0.7  c0.011-0.32,0.1-0.825,0.182-1.258l0.168-0.834L41.56,35.49l0.335,0.267c0,0-0.136-1.332-0.264-2.101l0.604-0.967l0.553-0.89  c0.362-0.533,0.86-0.848,1.403-1.061c0.269-0.107,0.55-0.189,0.829-0.261l0.834-0.204c1.071-0.266,1.941-0.608,1.859-1.976  c-0.02-0.292-0.051-0.434-0.102-0.584l-0.225-0.635c-0.017-0.045,0.018-0.11,0.08-0.188l0.241-0.269  c0.181-0.196,0.371-0.422,0.371-0.636c0-0.425-0.425-0.748-0.425-0.748s0.354-0.173,0.433-0.516l-0.048-0.229  c-0.244-0.655-0.241-1.533-0.241-1.533h0.479c0.314,0,0.938-0.006,0.851-0.737c-0.176-1.457-0.936-2.844-1.642-3.861  c-0.326-0.474-0.638-0.688-1.018-0.882c0,0,0.694-0.295,0.694-0.762c0-0.8-0.833-2.149-1.475-3.065l0.015-0.014  c0.479-0.538,0.484-1.085,0.484-1.108l-0.005-0.036l-0.003-0.023l-0.012-0.021l-0.011-0.023l-0.015-0.021l-0.017-0.02l-2.395-2.236  c-0.068-0.063-0.169-0.07-0.241-0.022l-0.013,0.006l-0.02,0.014l-1.102-1.11l-0.029-0.156l-0.079-0.488l0.06-0.102l0.164-0.275  l-0.558-0.178l0.155-0.822L41.35,7.175l-0.17-0.717l-0.526,0.417l-0.828-0.514l-0.07,0.313c-0.576-0.511-1.392-1.072-1.721-1.265  l-0.947-0.519l-1.338-0.646L34.406,3.68l-0.919-0.363c-0.384-0.164-0.833-0.313-1.193-0.422l-0.652-0.178l-0.428-0.1l0.238,0.317  l-1.125-0.08l-1.579-0.076c-0.596-0.022-1.229-0.025-1.82-0.014L25.544,2.82c-0.201,0.016-1.244,0.318-2.287,0.624l-1.46,0.423  l-0.822,0.206c0.228-0.021,0.879,0.214,1.545,0.485l-0.335,0.054C21.712,4.636,20.72,5.01,19.787,5.4l-2.046,0.873l2.644,0.52  L19.124,7.03c-0.689,0.105-1.466,0.59-2.137,1.098l-0.902,0.73l-0.589,0.493c0.666,0.051,3.155,0.241,3.602,0.188l-0.286,0.115  l-0.413,0.105c-0.293,0.068-0.581,0.136-0.691,0.215l0.995,0.068l-0.258,0.051l-1.837,0.414c-0.594,0.156-1.072,0.578-1.518,1.08  l-0.646,0.785l-0.649,0.763l1.743,0.062c0.629,0.018,1.211,0.034,1.457,0.063l-0.36,0.383l-0.394,0.374l0.709-0.102l1.189-0.159  c-0.827,0.253-2.147,0.701-2.816,0.93c-0.639,0.219-2.325,2.106-2.725,2.636c0.323,0.138,0.825,0.228,1.31,0.292l1.205,0.148  l-0.633,0.623l0.606-0.164l1.378-0.334l-0.499,0.178l-1.703,0.661c-0.244,0.103-0.627,0.555-1.001,1.051l-0.955,1.302  c0.275,0.161,0.825,0.227,1.369,0.264l0.782,0.045l0.57,0.051l-0.438,0.321c-0.164,0.11-0.331,0.226-0.45,0.351l1.063-0.269  c-0.563,0.295-1.117,0.879-1.582,1.426l-0.618,0.748c-0.173,0.21-0.312,0.371-0.405,0.439l0.567,0.085l0.779,0.142  c0.544,0.097,1.089,0.184,1.349,0.173L15.13,25.09l-0.95,0.783c-0.201,0.178-0.396,0.663-0.568,1.158l-0.247,0.718l-0.201,0.508  l1.352-0.031l1.273-0.04l-0.287,0.743l0.437-0.318l0.366-0.24l0.811-0.485c-0.602,0.601-1.491,1.659-1.6,2.152  c-0.09,0.425-0.167,0.951-0.231,1.46c-0.034,0.258-0.04,0.436-0.025,0.603l0.079,0.536c0.091-0.093,0.538-0.408,0.975-0.706  l0.896-0.609l0.663-0.563l-0.167,0.658l0.351-0.259l0.326-0.219l0.72-0.433l0.307-0.168l-0.389,0.477l-0.394,0.507l-0.298,0.474  c-0.119,0.213-0.3,0.763-0.487,1.333l-0.281,0.83l-0.249,0.621c0.267-0.21,1.023-0.448,1.74-0.666l0.976-0.31  c0.272-0.097,0.465-0.182,0.513-0.252l0.025,0.66c0.082-0.119,0.417-0.451,0.849-0.87l0.17-0.165l-0.193,0.393l-0.204,0.364  c-0.247,0.366-0.654,2.354-0.654,3.017l1.202-0.606l1.104-0.587l-0.025,0.635l0.466-0.362l0.741-0.575l0.692-0.563L25.244,34.279z   M19.073,19.883l-0.031-0.014l-1.137,0.38l2.77-1.098l0.011-0.028l-0.027-0.012l-0.021,0.01l-0.494-0.204l0.607-0.14l0.544-0.125  l0.839-0.17c0.55-0.102,1.126-0.184,1.576-0.227l0.528-0.063l0.66-0.818c-0.076-0.061-1.281-0.515-2.13-0.828l-0.826-0.307  c0.481-0.073,1.542-0.219,2.143-0.258l0.382-0.03l2.523-0.25c1.229-0.116,2.525-0.21,3.285-0.253  c0.566-0.033,1.196-0.009,1.687,0.031l0.848,0.088l0.771,0.113l0.3,0.026l0.026,0.056l0.133,0.318l0.176,0.419l-0.513,0.301  l0.354,0.643l-0.441,0.375l-0.443,0.107c-0.895-0.147-2.752-0.178-3.339-0.133c-0.586,0.043-1.854,0.149-3.104,0.295l-0.051,0.006  l-0.9,0.104l-0.134,0.018l-0.07,0.009l-1.512,0.193l-0.325,0.037c-0.514,0.051-1.101,0.141-1.563,0.226l-0.833,0.168l-0.542,0.124  l0.417,0.173l-0.269,0.098l-0.016,0.005l-0.109,0.04L19.073,19.883z M39.596,21.082c0.164,0.411,0.258,0.855,0.258,1.327  c0,0.288-0.036,0.566-0.102,0.836c-0.185,0.76-0.618,1.423-1.211,1.898l-0.198,0.151c-0.196,0.133-0.399,0.249-0.618,0.342  l-0.292,0.108l-0.352,0.097l-0.323,0.053l-0.037,0.003l-0.093,0.009l-0.077,0.018h-0.303L36.07,25.91l-0.533-0.083l-0.168-0.042  l-0.377-0.134l-0.06-0.025l-0.037-0.018l-0.133-0.062l-0.04-0.021l-0.085-0.045l-0.014-0.012l-0.278-0.17l-0.462-0.383l-0.334-0.379  l-0.037-0.05l-0.114-0.164L33.3,24.166l-0.107-0.198l-0.012-0.028l-0.099-0.219l-0.165-0.533l-0.039-0.201l-0.012-0.059  l-0.008-0.071l-0.034-0.274v-0.173l0.04-0.491l0.048-0.267c0.071-0.325,0.187-0.635,0.34-0.918l0.065-0.113l0.146-0.228l0.054-0.079  c0.284-0.38,0.642-0.7,1.053-0.938l0.396-0.201l0.161-0.066l0.477-0.136l0.14-0.025l0.496-0.054h0.102  c0.337,0,0.666,0.051,0.976,0.139c0.297,0.089,0.581,0.211,0.839,0.368c0.629,0.38,1.128,0.953,1.42,1.634L39.596,21.082z   M17.837,23.381l-0.011-0.006l1.204-0.678l0.009-0.03l1.225-0.679l-0.527-0.181l0.593-0.179l0.533-0.153l0.011-0.005l0.808-0.205  c0.53-0.121,1.091-0.226,1.542-0.283l0.794-0.125l0.379-0.059l0.515-0.082l0.141-0.165l0.111-0.113l-0.304-0.216l-0.691-0.36  l-0.182-0.082c-0.538-0.243-1.214-0.499-1.856-0.648l-0.176-0.079c0.479-0.097,1.188-0.216,1.783-0.273l0.051-0.005l2.823-0.352  c1.214-0.142,2.491-0.255,3.239-0.312c0.56-0.043,1.181-0.031,1.661,0l0.633,0.049l0.198,0.02l0.757,0.09h0.037l0.204,0.012  l0.419,0.618l0.186,0.275l0.033,0.051l-0.11,0.185L33.754,19.6l-0.051,0.088c-0.186,0.175-0.35,0.371-0.494,0.581l-0.881-0.131  c-0.343-0.045-0.97-0.017-1.588,0.031l-1.63,0.171l-2.072,0.269l-0.89,0.125l-0.283,0.039l-0.153,0.023l-0.21,0.031l-0.173,0.027  l-0.19,0.029l-0.091,0.014l-0.294,0.045l-0.321,0.052l-1.182,0.187c-0.501,0.066-1.071,0.179-1.522,0.284l-0.813,0.204l-0.527,0.152  l0.42,0.15L17.837,23.381z M33.963,21.703l0.122-0.329l0.167-0.304l0.213-0.283l0.048-0.057l0.265-0.244l0.354-0.243l-0.056-0.116  l-0.134-0.275l-0.015-0.031l-0.04-0.08l-0.368,0.241l-0.022,0.018l-0.395,0.357l-0.033,0.042l-0.105,0.125l-0.13,0.176  c-0.125,0.179-0.228,0.371-0.306,0.572l-0.077,0.21l-0.025,0.055v0.02L33.963,21.703z"/>
<path fill="#004794" d="M47.116,43.008v1.341h1.479v4.437h1.539v-4.437h1.56v-1.341H47.116z M44.882,47.443H44.82l-1.655-4.436  h-2.604v5.777h1.542l-0.093-4.437h0.063l1.633,4.437h2.625v-5.777h-1.542L44.882,47.443z M36.858,46.396h2.463v-1.068h-2.463v-1.056  h2.621v-1.264h-4.165v5.777h4.225v-1.265h-2.681V46.396z M31.789,44.227l0.343,0.011l0.315,0.061  c0.187,0.071,0.319,0.213,0.337,0.505h1.562c0-1.832-1.063-1.84-2.557-1.84c-1.692,0-2.741,0.286-2.741,2.193v1.494  c0,1.871,0.924,2.178,2.741,2.178c2.063,0,2.56-0.353,2.56-2.3V45.52h-2.628v1.068h1.063c0,0.803-0.21,0.978-0.995,0.978  c-0.799,0-1.154-0.106-1.154-1.131v-0.938C30.65,44.563,30.681,44.227,31.789,44.227z M23.146,43.008l-1.731,5.777h1.602  l0.286-0.995h2.07l0.3,0.995h1.57l-1.754-5.777H23.146z M23.631,46.668l0.703-2.506h0.014l0.717,2.506H23.631z M17.029,43.008  l-1.735,5.777h1.602l0.286-0.995h2.07l0.3,0.995h1.57l-1.754-5.777H17.029z M17.511,46.668l0.703-2.506h0.014l0.718,2.506H17.511z   M14.895,43.008h-1.862l-1.485,2.172h-0.462v-2.172H9.543v5.777h1.542V46.52h0.462l1.607,2.266h1.907l-2.199-2.942L14.895,43.008z"/>
<rect x="13.394" y="51.851" fill="#004794" width="5.257" height="0.25"/>
<rect x="42.585" y="51.851" fill="#004794" width="5.257" height="0.25"/>
<path fill="#004794" d="M39.318,51.626c0-0.397-0.147-0.517-0.53-0.531h-0.899v1.761h0.341v-0.584h0.516  c0.162,0.003,0.222,0.105,0.222,0.252v0.332h0.337v-0.332c0-0.247-0.06-0.374-0.298-0.396  C39.304,52.072,39.318,51.883,39.318,51.626z M38.675,51.987h-0.448v-0.603h0.471c0.24,0,0.283,0.048,0.283,0.294  C38.98,51.935,38.921,51.987,38.675,51.987z M36.585,52.099h0.822v-0.275h-0.822v-0.437h0.876v-0.292h-1.213v1.758h1.213v-0.289  h-0.876V52.099z M34.76,52.398l-0.484-1.304h-0.541v1.758h0.337l-0.028-1.471l0.564,1.471h0.3l0.553-1.477h0.011l-0.027,1.477h0.337  v-1.758h-0.553L34.76,52.398z M32.234,52.398l-0.487-1.304h-0.542v1.758h0.34l-0.028-1.471l0.564,1.471h0.301l0.55-1.477h0.012  l-0.028,1.477h0.34v-1.758h-0.553L32.234,52.398z M30.392,52.346c0,0.187-0.082,0.232-0.394,0.232c-0.323,0-0.389-0.055-0.389-0.232  v-1.251h-0.341v1.251c0,0.487,0.318,0.518,0.729,0.518c0.425,0,0.734-0.03,0.734-0.518v-1.251h-0.341V52.346z M28.484,52.563h-0.012  l-0.749-1.466h-0.558v1.755h0.337l-0.028-1.466h0.015l0.743,1.466h0.561v-1.755h-0.337L28.484,52.563z M25.666,52.398l-0.484-1.304  H24.64v1.758h0.338l-0.028-1.471l0.563,1.471h0.301l0.551-1.477h0.014l-0.028,1.477h0.337v-1.758h-0.553L25.666,52.398z   M23.23,51.095l-0.58,1.758h0.346l0.111-0.335h0.757l0.112,0.335h0.344l-0.594-1.758H23.23z M23.183,52.266l0.302-0.91l0.306,0.91  H23.183z M21.264,51.387h0.52v1.466h0.334v-1.466h0.516v-0.292h-1.369V51.387z M20.258,51.823c-0.34-0.022-0.386-0.027-0.386-0.243  c0-0.188,0.054-0.219,0.389-0.219c0.235,0,0.312,0.007,0.312,0.195v0.057h0.338v-0.057c0-0.459-0.292-0.473-0.649-0.473  c-0.42,0-0.726,0.014-0.726,0.496c0,0.255,0.074,0.38,0.195,0.444l0.216,0.058l0.269,0.017l0.17,0.011l0.122,0.021  c0.068,0.022,0.103,0.077,0.103,0.201c0,0.201-0.042,0.258-0.349,0.258c-0.309,0-0.396-0.015-0.396-0.215v-0.079h-0.341v0.079  c0,0.252,0.089,0.374,0.222,0.434l0.231,0.06h0.284c0.45,0,0.687-0.043,0.687-0.536C20.947,51.883,20.796,51.854,20.258,51.823z"/>
<polygon fill="#004794" points="40.407,51.387 41.387,51.387 40.63,52.853 40.993,52.853 41.71,51.421 41.71,51.095 40.407,51.095   "/>
</svg>