<?xml version="1.0" encoding="UTF-8"?>
<!DOCTYPE svg PUBLIC "-//W3C//DTD SVG 1.1//EN" "http://www.w3.org/Graphics/SVG/1.1/DTD/svg11.dtd">
<!-- Creator: CorelDRAW 2019 (64-Bit) -->
<svg xmlns="http://www.w3.org/2000/svg" xml:space="preserve" width="170.217mm" height="201.97mm" version="1.1" style="shape-rendering:geometricPrecision; text-rendering:geometricPrecision; image-rendering:optimizeQuality; fill-rule:evenodd; clip-rule:evenodd"
viewBox="0 0 170.1149 201.8485"
 xmlns:xlink="http://www.w3.org/1999/xlink"
 xmlns:xodm="http://www.corel.com/coreldraw/odm/2003">
 <defs>
  <style type="text/css">
   <![CDATA[
    .fil1 {fill:#081F2B}
    .fil0 {fill:#61CBC8}
    .fil2 {fill:#CF3338}
    .fil3 {fill:white}
   ]]>
  </style>
 </defs>
 <g id="Layer_x0020_1">
  <metadata id="CorelCorpID_0Corel-Layer"/>
  <g id="_740338576">
   <path class="fil0" d="M163.2619 9.5706l-0.0042 -0.0014c-0.4099,-0.0947 -41.5187,-9.5664 -78.1931,-9.5664 -36.6727,0 -77.7831,9.4716 -78.1982,9.5678l-6.8547 1.5997 0 102.4581c0,28.2645 16.401,54.5675 41.781,67.0086l43.2713 21.2116 43.2732 -21.2116c25.3795,-12.4398 41.7776,-38.743 41.7776,-67.0086l0 -102.4581 -6.853 -1.5997z"/>
   <path class="fil1" d="M85.0524 0c-36.6728,0 -77.7819,9.4716 -78.1969,9.5678l-6.8538 1.5997 0 58.6087c-0.0006,0.0004 -0.0011,0.0004 -0.0017,0.0009l0.0017 35.307c30.4905,-50.777 126.9339,-50.3785 145.0122,-99.1188 -1.6746,-0.2925 -3.4384,-0.5935 -5.2784,-0.896 -0.0006,0.0014 0,0.0014 0,0.0028 -15.1462,-2.4845 -35.5203,-5.0722 -54.6859,-5.0722l0.0028 0zm54.6516 5.1343l0 0c-0.4521,0.889 -0.9285,1.7426 -1.4194,2.5764 0.4898,-0.8352 0.9679,-1.6874 1.4194,-2.5764zm-54.6516 0.889l0 0c17.8794,0 36.7894,2.2852 51.3767,4.6029 -24.9415,36.062 -89.224,17.1654 -130.4078,53.281l0 -47.9601 2.1995 -0.513c0.4013,-0.0932 40.7242,-9.4108 76.8274,-9.4108l0.0043 0zm62.918 0.4706l0 0 0.0058 0.0014c0.0041,0 0.0056,0 0.0085,0.0014 0.1356,0.024 3.8355,0.7123 4.1577,0.7745l0 0.0014c-16.9615,66.9371 -123.9187,75.1427 -142.8888,142.1469 -0.0023,-0.0021 -0.0023,-0.0033 -0.0035,-0.0065 -4.9397,-9.0057 -8.0526,-19.0277 -8.9586,-29.4493 23.333,-58.6113 127.7382,-56.2756 147.6789,-113.4698zm7.1936 1.368l0 0 0.0013 0c0.0071,0.0014 0.0127,0.0043 0.0198,0.0043 0.3859,0.0764 4.1535,0.8479 4.4278,0.9073 0,0 0,0.0014 0,0.0014 -0.1668,1.0487 -0.3577,2.0874 -0.564,3.1219 0.2078,-1.0345 0.3972,-2.0733 0.564,-3.1219 2.2653,0.4777 3.5671,0.7759 3.6362,0.7915l0.0042 0.0028 6.8544 1.5997 0 102.4572c0,28.2657 -16.3994,54.5676 -41.7783,67.0077l-43.2737 21.2125 -43.2714 -21.2125c-2.3163,-1.1346 -4.556,-2.3872 -6.7173,-3.7442 0.0031,-0.0209 0.0066,-0.0419 0.0078,-0.0629 -0.8016,-0.504 -1.595,-0.9986 -2.3773,-1.4877 -7.2005,-4.9177 -13.4287,-11.0434 -18.4634,-18.0174 14.3721,-67.1688 125.6851,-78.5967 140.9299,-149.4598zm-17.192 0.3703l0 0c-0.4833,0.8013 -0.9841,1.5801 -1.5025,2.3333 0.5184,-0.7518 1.0175,-1.5334 1.5025,-2.3333zm20.773 5.044l0 0c-0.1016,0.4677 -0.1977,0.9398 -0.3081,1.4034 2.1455,0.4564 3.3779,0.7391 3.4455,0.7546l2.1977 0.5144 0 97.6776c0,25.9834 -15.0737,50.1617 -38.406,61.5997l-40.6205 19.9114 -40.6215 -19.9114c-2.8432,-1.3928 -5.5616,-2.9795 -8.1473,-4.7322 13.0632,-56.9399 108.1003,-91.6589 122.4646,-157.2161l-0.0043 -0.0014zm-155.4561 53.1617l0 0c-0.2025,0.1943 -0.4051,0.3887 -0.6061,0.5863 0.2005,-0.1977 0.4037,-0.3921 0.6061,-0.5863zm32.9533 104.238l0 0c-0.1944,0.8578 -0.3655,1.7229 -0.5218,2.5913 0.1568,-0.8685 0.3274,-1.733 0.5218,-2.5913zm-0.6144 3.0678l0 0c-0.1795,1.0406 -0.3342,2.0894 -0.4571,3.1456 0,0.0004 0.0004,0.001 0,0.0015 -0.0227,-0.0143 -0.0453,-0.0292 -0.068,-0.0435 0.0233,0.0143 0.0453,0.0275 0.068,0.042 0.1224,-1.0567 0.2788,-2.1039 0.4571,-3.1456z"/>
   <path class="fil2" d="M85.0634 6.029c-10.3906,0 -21.1257,0.7744 -31.1626,1.8768l0 171.9633 31.1626 15.2758 31.1634 -15.2758 0 -171.9633c-10.0368,-1.1009 -20.772,-1.874 -31.1634,-1.874l0 -0.0028z"/>
   <path class="fil3" d="M67.4835 27.1401l0 64.0386 11.2993 0 0 -21.3656 4.1199 -6.9669 10.074 28.3319 12.3626 0 -15.3432 -40.5002 13.7168 -23.5378 -12.3272 0 -12.6038 23.3428 0 -23.3428 -11.2994 0 0.0011 0zm70.3233 52.9694l0 0 -2.9691 9.132 -9.604 0 7.7713 5.6463 -2.9678 9.1342 7.7696 -5.6463 7.7683 5.6463 -2.9679 -9.1342 7.77 -5.6463 -9.6027 0 -2.9674 -9.132 -0.0003 0zm-52.4363 20.1907l0 0c-6.0663,0 -10.9885,2.1838 -13.8553,6.1377 -3.0269,4.1011 -3.8104,7.7596 -3.8104,17.7948l0 17.4873c0,9.4721 0.6699,13.1638 3.1137,17.17 2.8519,4.7228 8.054,7.3235 14.6468,7.3235 11.74,0 17.9458,-7.4356 17.9458,-21.5002l0 -2.9849 -11.3768 0 -0.0167 0.817c-0.0943,4.6035 -0.1882,5.9174 -0.5344,7.3881 -0.9323,3.7292 -2.933,5.5415 -6.1134,5.5415 -2.4615,0 -4.5787,-1.369 -5.3869,-3.4735 -0.7231,-1.9869 -0.9787,-4.3336 -0.9787,-8.9718l0 -20.7611c0,-4.9972 0.2705,-6.676 1.4001,-8.5893 0.8915,-1.7032 2.656,-2.64 4.9655,-2.64 4.2872,0 6.4602,3.3692 6.4602,10.0138l0 4 11.3005 0 0 -4.561c0,-12.6425 -6.6402,-20.1912 -17.7607,-20.1912l0.0006 -0.0006zm52.4363 10.416l0 0 -2.9691 9.1326 -9.604 0 7.7713 5.6463 -2.9678 9.1343 7.7696 -5.6464 7.7683 5.6464 -2.9679 -9.1343 7.77 -5.6463 -9.6027 0 -2.9674 -9.1326 -0.0003 0z"/>
  </g>
 </g>
</svg>
