<svg xmlns="http://www.w3.org/2000/svg" xmlns:xlink="http://www.w3.org/1999/xlink" width="297.88pt" height="297.88pt" viewBox="0 0 297.88 297.88" version="1.1">
<defs>
<clipPath id="clip1">
  <path d="M 0 0 L 297.878906 0 L 297.878906 297.878906 L 0 297.878906 Z M 0 0 "/>
</clipPath>
</defs>
<g id="surface1">
<g clip-path="url(#clip1)" clip-rule="nonzero">
<path style=" stroke:none;fill-rule:nonzero;fill:rgb(0%,0%,0%);fill-opacity:1;" d="M 297.875 148.941406 C 297.875 231.199219 231.195313 297.878906 148.9375 297.878906 C 66.679688 297.878906 0 231.199219 0 148.941406 C 0 66.6875 66.679688 0.00390625 148.9375 0.00390625 C 231.195313 0.00390625 297.875 66.6875 297.875 148.941406 "/>
</g>
<path style=" stroke:none;fill-rule:nonzero;fill:rgb(100%,100%,100%);fill-opacity:1;" d="M 49.039063 148.941406 C 49.039063 93.769531 93.765625 49.042969 148.9375 49.042969 C 204.113281 49.042969 248.839844 93.769531 248.839844 148.941406 C 248.839844 204.117188 204.113281 248.839844 148.9375 248.839844 C 93.765625 248.839844 49.039063 204.117188 49.039063 148.941406 "/>
<path style=" stroke:none;fill-rule:nonzero;fill:rgb(92.89856%,17.599487%,13.699341%);fill-opacity:1;" d="M 52.808594 148.941406 C 52.808594 95.859375 95.84375 52.824219 148.925781 52.824219 C 202.007813 52.824219 245.039063 95.859375 245.039063 148.941406 C 245.039063 202.027344 202.007813 245.058594 148.925781 245.058594 C 95.84375 245.058594 52.808594 202.027344 52.808594 148.941406 "/>
<path style=" stroke:none;fill-rule:nonzero;fill:rgb(100%,100%,100%);fill-opacity:1;" d="M 117.34375 282.90625 L 121.296875 264.820313 L 116.195313 263.703125 L 116.9375 260.304688 L 117.40625 260.402344 C 120.808594 261.148438 123.191406 260.304688 124.316406 257.59375 L 128.148438 258.433594 L 122.550781 284.042969 "/>
<path style=" stroke:none;fill-rule:nonzero;fill:rgb(100%,100%,100%);fill-opacity:1;" d="M 139.769531 273.613281 C 141.875 273.765625 142.785156 272.417969 143.039063 268.871094 C 143.214844 265.878906 142.964844 263.671875 140.488281 263.492188 C 137.902344 263.308594 137.449219 265.503906 137.238281 268.457031 C 136.988281 272.003906 137.699219 273.464844 139.769531 273.613281 M 136.832031 279.898438 C 136.691406 281.859375 137.234375 283.085938 139.007813 283.210938 C 141.816406 283.410156 142.460938 280.636719 142.734375 276.796875 L 142.824219 275.539063 L 142.75 275.535156 C 141.769531 276.800781 139.96875 277.5625 137.679688 277.398438 C 133.023438 277.066406 131.535156 273.472656 131.871094 268.78125 C 132.300781 262.796875 135.160156 259.625 140.996094 260.039063 C 148.308594 260.5625 148.816406 266.460938 148.359375 272.851563 C 147.832031 280.277344 147.183594 287.28125 138.539063 286.667969 C 134.773438 286.398438 131.449219 284.566406 131.734375 279.539063 "/>
<path style=" stroke:none;fill-rule:nonzero;fill:rgb(100%,100%,100%);fill-opacity:1;" d="M 166.757813 285.617188 L 150.65625 286.769531 C 150.324219 282.113281 151.980469 278.765625 155.601563 274.90625 L 157.601563 272.757813 C 159.777344 270.484375 160.097656 269.273438 159.90625 266.578125 C 159.753906 264.402344 158.753906 263.394531 157.089844 263.515625 C 154.429688 263.703125 154.339844 266.046875 154.5 268.820313 L 149.402344 269.1875 L 149.332031 268.1875 C 148.984375 263.351563 151.339844 260.4375 156.917969 260.035156 C 162.160156 259.660156 164.933594 262.097656 165.253906 266.605469 C 165.496094 270.003906 164.585938 272.296875 161.785156 275.207031 L 159.027344 278.152344 C 157.574219 279.664063 156.789063 281.167969 156.601563 282.1875 L 166.464844 281.480469 "/>
<path style=" stroke:none;fill-rule:nonzero;fill:rgb(100%,100%,100%);fill-opacity:1;" d="M 177.945313 280.4375 C 180.476563 279.882813 180.292969 277.652344 179.660156 274.753906 C 178.902344 271.285156 177.804688 270.082031 175.777344 270.527344 C 173.71875 270.976563 173.222656 272.527344 173.980469 275.996094 C 174.65625 278.917969 175.523438 280.964844 177.945313 280.4375 M 176.828125 263.703125 C 176.402344 261.746094 175.53125 260.726563 173.796875 261.105469 C 171.046875 261.703125 171.214844 264.546875 172.035156 268.3125 L 172.3125 269.574219 L 172.386719 269.5625 C 172.960938 268.03125 174.472656 266.792969 176.714844 266.304688 C 181.273438 265.304688 183.714844 268.335938 184.71875 272.933594 C 186 278.789063 184.152344 282.644531 178.433594 283.894531 C 171.273438 285.457031 169.117188 279.941406 167.75 273.683594 C 166.171875 266.449219 164.804688 259.503906 173.269531 257.65625 C 176.960938 256.851563 180.664063 257.667969 181.820313 262.613281 "/>
<path style=" stroke:none;fill-rule:nonzero;fill:rgb(100%,100%,100%);fill-opacity:1;" d="M 44.570313 239.753906 L 35.042969 227.628906 L 38.628906 224.8125 L 44.714844 232.5625 L 49.820313 228.554688 L 44.089844 221.261719 L 47.675781 218.445313 L 53.40625 225.734375 L 62.824219 218.332031 L 66.261719 222.710938 "/>
<path style=" stroke:none;fill-rule:nonzero;fill:rgb(100%,100%,100%);fill-opacity:1;" d="M 44.523438 210.132813 L 41.886719 205.40625 L 32.351563 213.777344 L 32.390625 213.84375 Z M 29.863281 219.144531 L 26.511719 213.140625 L 47.050781 193.324219 L 49.875 198.386719 L 45.398438 202.34375 L 48.976563 208.753906 L 54.691406 207.027344 L 57.515625 212.085938 "/>
<path style=" stroke:none;fill-rule:nonzero;fill:rgb(100%,100%,100%);fill-opacity:1;" d="M 16.222656 188.484375 L 20.5 186.910156 L 22.585938 192.5625 L 44.191406 184.597656 L 46.117188 189.816406 L 24.511719 197.78125 L 26.597656 203.441406 L 22.320313 205.015625 "/>
<path style=" stroke:none;fill-rule:nonzero;fill:rgb(100%,100%,100%);fill-opacity:1;" d="M 41.832031 176.695313 L 14.953125 182.914063 L 13.699219 177.492188 L 40.578125 171.273438 Z M 41.832031 176.695313 "/>
<path style=" stroke:none;fill-rule:nonzero;fill:rgb(100%,100%,100%);fill-opacity:1;" d="M 12.132813 170.300781 L 11.628906 164.761719 L 22.136719 163.808594 L 21.550781 157.34375 L 11.042969 158.292969 L 10.542969 152.753906 L 38.023438 150.269531 L 38.523438 155.8125 L 26.324219 156.914063 L 26.90625 163.378906 L 39.105469 162.277344 L 39.609375 167.816406 "/>
<path style=" stroke:none;fill-rule:nonzero;fill:rgb(100%,100%,100%);fill-opacity:1;" d="M 12.339844 127.867188 L 23.226563 129.769531 L 23.238281 129.691406 L 13.5625 120.863281 L 14.597656 114.925781 L 24.957031 124.34375 L 41.921875 118.832031 L 40.847656 125 L 28.71875 128.648438 L 31.449219 131.203125 L 39.515625 132.613281 L 38.5625 138.09375 L 11.382813 133.347656 "/>
<path style=" stroke:none;fill-rule:nonzero;fill:rgb(100%,100%,100%);fill-opacity:1;" d="M 34.511719 109.492188 L 36.386719 104.421875 L 23.832031 102.617188 L 23.804688 102.6875 Z M 18.128906 104.214844 L 20.515625 97.765625 L 48.925781 100.492188 L 46.914063 105.925781 L 41 105.097656 L 38.453125 111.980469 L 43.480469 115.203125 L 41.46875 120.640625 "/>
<path style=" stroke:none;fill-rule:nonzero;fill:rgb(100%,100%,100%);fill-opacity:1;" d="M 38.953125 87.109375 L 40.140625 85.117188 C 41.511719 82.828125 41.289063 80.941406 38.734375 79.414063 C 36.546875 78.105469 34.757813 78.613281 33.46875 80.769531 L 32.121094 83.023438 Z M 25.75 85.699219 L 31.023438 76.875 C 33.363281 72.960938 36.847656 71.804688 40.894531 74.222656 C 44.042969 76.105469 45.414063 78.636719 44.371094 81.660156 L 44.4375 81.699219 C 46.8125 78.707031 48.898438 79.28125 53.949219 82.207031 C 56.457031 83.660156 57.828125 84.300781 58.828125 83.683594 L 59.027344 83.804688 L 55.933594 88.976563 C 54.992188 89.042969 54.035156 88.609375 53.089844 88.085938 L 48.464844 85.503906 C 46.570313 84.460938 44.945313 84.613281 43.796875 86.535156 L 42.269531 89.09375 L 52.285156 95.078125 L 49.429688 99.855469 "/>
<path style=" stroke:none;fill-rule:nonzero;fill:rgb(100%,100%,100%);fill-opacity:1;" d="M 56.273438 71.121094 L 59.847656 67.0625 L 48.773438 60.871094 L 48.722656 60.929688 Z M 42.878906 60.320313 L 47.417969 55.15625 L 72.960938 67.890625 L 69.132813 72.242188 L 63.910156 69.347656 L 59.0625 74.859375 L 62.601563 79.671875 L 58.773438 84.023438 "/>
<path style=" stroke:none;fill-rule:nonzero;fill:rgb(100%,100%,100%);fill-opacity:1;" d="M 71.277344 44.65625 C 70.007813 43.046875 67.679688 41.585938 65.917969 42.972656 C 63.792969 44.644531 64.664063 47.5 68.921875 52.902344 C 73.03125 58.125 76.101563 61.019531 78.621094 59.035156 C 79.652344 58.222656 80.4375 55.785156 78.597656 53.449219 L 76.851563 51.230469 L 73.96875 53.503906 L 71.433594 50.285156 L 78.507813 44.714844 L 87.710938 56.402344 L 84.492188 58.9375 L 82.914063 56.933594 L 82.855469 56.980469 C 83.160156 59.492188 82.246094 61.394531 80.214844 62.996094 C 74.84375 67.226563 70.621094 64.058594 64.71875 56.558594 C 58.980469 49.273438 57.738281 44.199219 63.324219 39.804688 C 68.117188 36.023438 72 36.953125 75.464844 41.355469 "/>
<path style=" stroke:none;fill-rule:nonzero;fill:rgb(100%,100%,100%);fill-opacity:1;" d="M 82.328125 20.453125 L 86.152344 18.429688 L 88.285156 22.460938 L 84.460938 24.484375 Z M 81.492188 28.285156 L 90.496094 45.292969 C 91.78125 47.71875 93.320313 49.21875 95.605469 48.007813 C 97.894531 46.796875 97.519531 44.679688 96.234375 42.253906 L 87.226563 25.25 L 92.144531 22.644531 L 101.152344 39.652344 C 104.441406 45.867188 101.519531 49.511719 97.523438 51.628906 C 93.527344 53.742188 89.03125 54.417969 85.578125 47.894531 L 76.574219 30.890625 Z M 76.457031 23.566406 L 80.277344 21.539063 L 82.414063 25.570313 L 78.589844 27.59375 Z M 76.457031 23.566406 "/>
<path style=" stroke:none;fill-rule:nonzero;fill:rgb(100%,100%,100%);fill-opacity:1;" d="M 99.386719 19.34375 L 107.34375 17.089844 L 116.449219 34.75 L 116.523438 34.730469 L 115.039063 14.90625 L 122.957031 12.660156 L 130.484375 39.203125 L 125.574219 40.59375 L 119.566406 19.40625 L 119.492188 19.429688 L 120.78125 41.957031 L 116.617188 43.136719 L 105.886719 23.285156 L 105.8125 23.308594 L 111.820313 44.496094 L 106.914063 45.886719 "/>
<path style=" stroke:none;fill-rule:nonzero;fill:rgb(100%,100%,100%);fill-opacity:1;" d="M 137.5 23.300781 L 139.816406 23.152344 C 142.476563 22.980469 143.90625 21.726563 143.714844 18.757813 C 143.550781 16.214844 142.121094 15.027344 139.613281 15.1875 L 136.992188 15.359375 Z M 131.175781 11.625 L 141.433594 10.96875 C 145.984375 10.675781 148.914063 12.886719 149.214844 17.59375 C 149.449219 21.257813 148.144531 23.816406 145.0625 24.675781 L 145.066406 24.75 C 148.878906 25.011719 149.589844 27.054688 150.039063 32.871094 C 150.265625 35.761719 150.515625 37.257813 151.589844 37.730469 L 151.605469 37.960938 L 145.589844 38.347656 C 145.003906 37.609375 144.820313 36.574219 144.710938 35.5 L 144.21875 30.226563 C 144.003906 28.070313 142.953125 26.824219 140.71875 26.96875 L 137.746094 27.15625 L 138.496094 38.800781 L 132.941406 39.15625 "/>
<path style=" stroke:none;fill-rule:nonzero;fill:rgb(100%,100%,100%);fill-opacity:1;" d="M 167.1875 5.382813 L 171.484375 5.886719 L 170.953125 10.417969 L 166.652344 9.910156 Z M 160.589844 4.605469 L 164.886719 5.109375 L 164.351563 9.636719 L 160.054688 9.132813 Z M 162.050781 11.351563 L 159.796875 30.460938 C 159.476563 33.1875 159.886719 35.296875 162.457031 35.601563 C 165.027344 35.902344 165.921875 33.945313 166.242188 31.222656 L 168.496094 12.113281 L 174.023438 12.761719 L 171.769531 31.871094 C 170.945313 38.859375 166.46875 40.195313 161.976563 39.667969 C 157.488281 39.136719 153.40625 37.140625 154.269531 29.808594 L 156.523438 10.699219 "/>
<path style=" stroke:none;fill-rule:nonzero;fill:rgb(100%,100%,100%);fill-opacity:1;" d="M 186.503906 15.914063 L 183.28125 26.488281 L 183.355469 26.511719 L 193.304688 17.988281 L 199.070313 19.742188 L 188.453125 28.871094 L 191.84375 46.382813 L 185.855469 44.558594 L 183.722656 32.074219 L 180.851563 34.472656 L 178.464844 42.308594 L 173.140625 40.683594 L 181.183594 14.292969 "/>
<path style=" stroke:none;fill-rule:nonzero;fill:rgb(100%,100%,100%);fill-opacity:1;" d="M 208.742188 45.75 L 208.316406 46.441406 C 206.949219 48.636719 206.695313 50.4375 209.1875 51.988281 C 210.628906 52.886719 212.578125 52.824219 213.804688 50.855469 C 215.132813 48.722656 214.539063 47.261719 212.097656 44.242188 C 208.792969 40.183594 207.941406 37.242188 210.367188 33.335938 C 213.203125 28.777344 217.445313 28.183594 221.90625 30.957031 C 226.105469 33.570313 228.03125 37.273438 225.238281 41.769531 L 224.828125 42.425781 L 220.300781 39.609375 C 221.667969 37.410156 221.710938 35.660156 219.90625 34.539063 C 217.773438 33.210938 216.378906 34.210938 215.523438 35.589844 C 214.625 37.03125 214.5 38.183594 215.96875 40.28125 L 218.632813 44.121094 C 221.214844 47.867188 221.011719 50.242188 219.234375 53.097656 C 216.152344 58.050781 211.746094 58.40625 206.628906 55.222656 C 201.28125 51.894531 200.734375 48.09375 203.429688 43.761719 L 204.019531 42.8125 "/>
<path style=" stroke:none;fill-rule:nonzero;fill:rgb(100%,100%,100%);fill-opacity:1;" d="M 230.648438 53.402344 L 232.492188 55.050781 C 234.136719 56.515625 236.136719 56.535156 238.011719 54.429688 C 239.8125 52.410156 240.03125 50.535156 237.957031 48.6875 L 236.226563 47.144531 Z M 234.796875 40.382813 L 242.066406 46.863281 C 246.277344 50.617188 244.96875 54.988281 242.21875 58.074219 C 238.410156 62.34375 234.066406 61.9375 230.140625 58.441406 L 227.921875 56.460938 L 220.59375 64.679688 L 216.441406 60.976563 "/>
<path style=" stroke:none;fill-rule:nonzero;fill:rgb(100%,100%,100%);fill-opacity:1;" d="M 238.707031 78.449219 C 240.738281 81.03125 243.289063 79.710938 249.117188 75.125 C 254.917969 70.5625 256.832031 68.371094 254.804688 65.789063 C 252.773438 63.207031 250.191406 64.550781 244.390625 69.113281 C 238.558594 73.699219 236.675781 75.867188 238.707031 78.449219 M 258.023438 63.257813 C 263.183594 69.816406 259.148438 74.316406 252.558594 79.5 C 245.96875 84.683594 240.648438 87.539063 235.488281 80.980469 C 230.324219 74.421875 234.359375 69.921875 240.949219 64.738281 C 247.539063 59.554688 252.863281 56.695313 258.023438 63.257813 "/>
<path style=" stroke:none;fill-rule:nonzero;fill:rgb(100%,100%,100%);fill-opacity:1;" d="M 259.175781 87.554688 L 260.25 89.605469 C 261.488281 91.96875 263.214844 92.761719 265.851563 91.378906 C 268.109375 90.195313 268.609375 88.40625 267.441406 86.179688 L 266.222656 83.855469 Z M 267.261719 77.023438 L 272.039063 86.125 C 274.15625 90.164063 273.328125 93.738281 269.152344 95.929688 C 265.902344 97.636719 263.03125 97.484375 260.996094 95.019531 L 260.925781 95.054688 C 262.242188 98.640625 260.664063 100.121094 255.53125 102.902344 C 252.984375 104.28125 251.722656 105.121094 251.726563 106.296875 L 251.523438 106.402344 L 248.722656 101.066406 C 249.15625 100.226563 250.023438 99.640625 250.964844 99.105469 L 255.582031 96.507813 C 257.460938 95.433594 258.175781 93.96875 257.136719 91.984375 L 255.75 89.347656 L 245.417969 94.769531 L 242.832031 89.84375 "/>
<path style=" stroke:none;fill-rule:nonzero;fill:rgb(100%,100%,100%);fill-opacity:1;" d="M 283.269531 116.355469 L 272.472656 118.726563 L 272.488281 118.800781 L 284.792969 123.296875 L 286.085938 129.183594 L 272.929688 124.402344 L 259.324219 135.9375 L 257.980469 129.824219 L 267.820313 121.84375 L 264.320313 120.515625 L 256.320313 122.277344 L 255.128906 116.839844 L 282.070313 110.917969 "/>
<path style=" stroke:none;fill-rule:nonzero;fill:rgb(100%,100%,100%);fill-opacity:1;" d="M 286.871094 140.257813 L 267.644531 141.003906 C 264.902344 141.109375 262.882813 141.84375 262.984375 144.433594 C 263.082031 147.019531 265.152344 147.59375 267.898438 147.488281 L 287.125 146.742188 L 287.339844 152.304688 L 268.113281 153.050781 C 261.085938 153.324219 259.066406 149.109375 258.890625 144.589844 C 258.714844 140.074219 260.054688 135.730469 267.429688 135.441406 L 286.65625 134.695313 "/>
<path style=" stroke:none;fill-rule:nonzero;fill:rgb(100%,100%,100%);fill-opacity:1;" d="M 259.523438 155.945313 L 286.894531 159.390625 L 286.199219 164.910156 L 263.351563 162.035156 L 262.121094 171.8125 L 257.597656 171.242188 "/>
<path style=" stroke:none;fill-rule:nonzero;fill:rgb(100%,100%,100%);fill-opacity:1;" d="M 289.109375 185.394531 L 287.863281 189.539063 L 283.496094 188.226563 L 284.742188 184.082031 Z M 287.195313 191.757813 L 285.949219 195.902344 L 281.582031 194.59375 L 282.828125 190.449219 Z M 282.210938 185.660156 L 263.78125 180.121094 C 261.15625 179.332031 259.003906 179.371094 258.257813 181.851563 C 257.515625 184.332031 259.285156 185.546875 261.914063 186.335938 L 280.339844 191.878906 L 278.738281 197.203125 L 260.3125 191.667969 C 253.574219 189.644531 253.035156 185 254.339844 180.671875 C 255.636719 176.339844 258.316406 172.667969 265.382813 174.792969 L 283.8125 180.332031 "/>
<path style=" stroke:none;fill-rule:nonzero;fill:rgb(100%,100%,100%);fill-opacity:1;" d="M 263.371094 203.828125 L 262.648438 205.242188 C 261.257813 207.957031 261.550781 209.671875 263.851563 210.851563 C 266.191406 212.050781 267.632813 211.359375 268.882813 208.914063 L 269.800781 207.128906 Z M 252.539063 198.28125 L 251.550781 200.203125 C 250.335938 202.578125 250.367188 204.636719 253.21875 206.097656 C 256.074219 207.558594 257.726563 206.367188 258.839844 204.199219 L 259.933594 202.070313 Z M 275.984375 204.042969 L 271.734375 212.328125 C 269.65625 216.390625 266.644531 218.535156 261.933594 216.121094 C 259.285156 214.765625 257.910156 212.453125 258.472656 209.65625 L 258.402344 209.621094 C 256.632813 212.144531 253.671875 212.84375 250.40625 211.167969 C 246.554688 209.195313 244.1875 205.59375 247.148438 199.816406 L 251.429688 191.460938 "/>
<path style=" stroke:none;fill-rule:nonzero;fill:rgb(100%,100%,100%);fill-opacity:1;" d="M 267.171875 232.554688 L 264.539063 235.988281 L 260.917969 233.210938 L 263.554688 229.78125 Z M 263.128906 237.828125 L 260.492188 241.261719 L 256.878906 238.488281 L 259.507813 235.054688 Z M 260.625 230.359375 L 245.355469 218.652344 C 243.175781 216.980469 241.152344 216.257813 239.574219 218.3125 C 238 220.367188 239.226563 222.136719 241.402344 223.804688 L 256.675781 235.511719 L 253.289063 239.925781 L 238.019531 228.21875 C 232.4375 223.941406 233.574219 219.40625 236.324219 215.820313 C 239.074219 212.234375 242.882813 209.746094 248.738281 214.234375 L 264.011719 225.941406 "/>
<path style=" stroke:none;fill-rule:nonzero;fill:rgb(100%,100%,100%);fill-opacity:1;" d="M 104.972656 203.027344 C 101.007813 203.027344 97.777344 199.800781 97.777344 195.835938 C 97.777344 191.867188 101.007813 188.640625 104.972656 188.640625 C 108.941406 188.640625 112.167969 191.867188 112.167969 195.835938 C 112.167969 199.800781 108.941406 203.027344 104.972656 203.027344 M 82.808594 195.640625 C 78.839844 195.640625 75.613281 192.410156 75.613281 188.449219 C 75.613281 184.480469 78.839844 181.253906 82.808594 181.253906 C 86.773438 181.253906 90 184.480469 90 188.449219 C 90 192.410156 86.773438 195.640625 82.808594 195.640625 M 99.078125 164.980469 C 103.046875 164.980469 106.273438 168.207031 106.273438 172.175781 C 106.273438 176.140625 103.046875 179.367188 99.078125 179.367188 C 95.113281 179.367188 91.882813 176.140625 91.882813 172.175781 C 91.882813 168.207031 95.113281 164.980469 99.078125 164.980469 M 104.972656 183.808594 C 100.675781 183.808594 96.902344 186.085938 94.777344 189.492188 C 94.808594 189.144531 94.832031 188.800781 94.832031 188.449219 C 94.832031 186.394531 94.3125 184.460938 93.402344 182.769531 C 95.09375 183.679688 97.027344 184.199219 99.078125 184.199219 C 105.710938 184.199219 111.105469 178.804688 111.105469 172.175781 C 111.105469 165.542969 105.710938 160.148438 99.078125 160.148438 C 92.449219 160.148438 87.054688 165.542969 87.054688 172.175781 C 87.054688 174.226563 87.574219 176.15625 88.484375 177.851563 C 86.792969 176.941406 84.859375 176.421875 82.808594 176.421875 C 76.175781 176.421875 70.78125 181.816406 70.78125 188.449219 C 70.78125 195.074219 76.175781 200.472656 82.808594 200.472656 C 87.105469 200.472656 90.875 198.195313 93.003906 194.789063 C 92.972656 195.136719 92.949219 195.480469 92.949219 195.835938 C 92.949219 202.464844 98.34375 207.859375 104.972656 207.859375 C 111.605469 207.859375 117 202.464844 117 195.835938 C 117 189.203125 111.605469 183.808594 104.972656 183.808594 "/>
<path style=" stroke:none;fill-rule:nonzero;fill:rgb(100%,100%,100%);fill-opacity:1;" d="M 207.363281 195.46875 C 207.363281 193.546875 208.109375 191.738281 209.46875 190.382813 C 210.828125 189.023438 212.636719 188.273438 214.554688 188.273438 C 216.476563 188.273438 218.285156 189.023438 219.644531 190.382813 C 221.003906 191.738281 221.75 193.546875 221.75 195.46875 C 221.75 199.433594 218.523438 202.664063 214.554688 202.664063 C 210.589844 202.664063 207.363281 199.433594 207.363281 195.46875 M 206.054688 186.964844 C 203.78125 189.238281 202.53125 192.253906 202.53125 195.46875 C 202.53125 202.097656 207.925781 207.492188 214.554688 207.492188 C 221.1875 207.492188 226.582031 202.097656 226.582031 195.46875 C 226.582031 192.253906 225.328125 189.238281 223.058594 186.964844 C 220.785156 184.691406 217.769531 183.445313 214.554688 183.445313 C 211.34375 183.445313 208.324219 184.691406 206.054688 186.964844 M 184.386719 206.878906 C 184.386719 202.914063 187.613281 199.6875 191.578125 199.6875 C 195.546875 199.6875 198.773438 202.914063 198.773438 206.878906 C 198.773438 210.847656 195.546875 214.074219 191.578125 214.074219 C 187.613281 214.074219 184.386719 210.847656 184.386719 206.878906 M 179.554688 206.878906 C 179.554688 213.511719 184.949219 218.90625 191.578125 218.90625 C 198.210938 218.90625 203.605469 213.511719 203.605469 206.878906 C 203.605469 200.25 198.210938 194.855469 191.578125 194.855469 C 184.949219 194.855469 179.554688 200.25 179.554688 206.878906 M 188.242188 179.53125 C 188.242188 175.566406 191.472656 172.335938 195.4375 172.335938 C 197.359375 172.335938 199.167969 173.082031 200.527344 174.441406 C 201.886719 175.800781 202.632813 177.609375 202.632813 179.53125 C 202.632813 183.496094 199.40625 186.726563 195.4375 186.726563 C 191.472656 186.726563 188.242188 183.496094 188.242188 179.53125 M 183.414063 179.53125 C 183.414063 186.160156 188.808594 191.554688 195.4375 191.554688 C 202.070313 191.554688 207.464844 186.160156 207.464844 179.53125 C 207.464844 176.320313 206.210938 173.296875 203.941406 171.027344 C 201.671875 168.757813 198.652344 167.503906 195.4375 167.503906 C 188.808594 167.503906 183.414063 172.902344 183.414063 179.53125 "/>
<path style=" stroke:none;fill-rule:nonzero;fill:rgb(100%,100%,100%);fill-opacity:1;" d="M 149.890625 202.640625 C 149.25 203.058594 148.578125 203.078125 147.878906 202.78125 C 145.414063 195.832031 139.3125 177.066406 137.613281 157.3125 C 140.535156 155.363281 144.949219 152.054688 144.949219 152.054688 C 162.96875 147.417969 170.144531 134.609375 169.066406 115.671875 C 157.222656 123.460938 147.222656 134.273438 141.324219 149.816406 C 141.324219 149.816406 139.53125 152.8125 137.269531 152.035156 C 137.203125 150.476563 137.160156 148.917969 137.160156 147.363281 C 137.160156 132.425781 141.644531 114.605469 141.644531 114.605469 C 141.644531 114.605469 133.535156 121.757813 133.535156 152.804688 C 133.535156 153.390625 133.542969 153.972656 133.550781 154.554688 C 133.550781 154.5625 133.550781 154.558594 133.546875 154.566406 C 133.109375 159.261719 130.546875 156.113281 130.546875 156.113281 C 121.601563 132.34375 113.753906 122.21875 94.695313 114.074219 C 99.921875 133.277344 110.8125 148 127.453125 158.03125 C 129.519531 158.839844 132.414063 161.226563 134.058594 164.546875 C 135.234375 178.363281 138.167969 190.902344 140.320313 198.691406 C 130.25 188.875 121.34375 181.488281 113.902344 180.335938 C 133.101563 195.207031 145.085938 213.371094 147.300781 235.820313 L 152.738281 233.472656 C 152.738281 233.472656 152.101563 230.804688 152.101563 225.789063 C 150.503906 203.492188 176.855469 196.660156 183.046875 191.539063 C 171.777344 191.539063 162.328125 194.175781 154.683594 201.25 C 163.65625 155.457031 186.039063 144.6875 194.355469 132.960938 C 170.226563 146.449219 153.609375 166.980469 149.890625 202.640625 M 231.699219 159.421875 C 226.007813 147.304688 214.5625 140.269531 196.0625 139.574219 C 196.0625 139.574219 196.917969 149.070313 208.867188 154.617188 C 220.816406 160.164063 231.699219 159.421875 231.699219 159.421875 M 235.328125 124.101563 C 235.328125 124.101563 229.460938 122.609375 225.402344 122.609375 C 210.574219 122.609375 200.542969 135.519531 200.542969 135.519531 C 214.878906 136.734375 226.964844 133.773438 235.328125 124.101563 M 220.496094 103.191406 C 220.496094 103.191406 215.164063 104.683594 208.867188 110.980469 C 202.570313 117.273438 201.398438 125.808594 201.398438 125.808594 C 212.148438 122.199219 218.820313 114.90625 220.496094 103.191406 M 203.105469 92.519531 C 203.105469 92.519531 185.074219 103.722656 185.074219 124.636719 C 185.074219 128.691406 186.78125 133.703125 186.78125 133.703125 C 197.875 129.652344 203.105469 115.886719 203.105469 92.519531 M 157.863281 89.527344 C 151.355469 98.703125 149.644531 111.1875 149.644531 111.1875 C 162.878906 104.910156 171.253906 93.722656 174.078125 77.042969 C 174.078125 77.042969 164.367188 80.351563 157.863281 89.527344 M 141.644531 109.90625 C 141.644531 109.90625 154.554688 92.730469 154.554688 77.472656 C 154.554688 70.109375 153.058594 65.734375 153.058594 65.734375 C 147.03125 68.773438 141.644531 74.269531 141.644531 109.90625 M 137.910156 104.894531 C 137.910156 104.894531 139.191406 100.945313 139.191406 96.144531 C 139.191406 76.617188 127.238281 64.667969 127.238281 64.667969 C 127.238281 86.753906 128.304688 95.289063 137.910156 104.894531 M 101.417969 78.964844 C 101.417969 78.964844 112.195313 83.765625 122.117188 91.660156 C 132.039063 99.558594 134.066406 113.003906 134.066406 113.003906 C 134.066406 113.003906 121.90625 111.828125 114.007813 101.585938 C 106.113281 91.34375 101.417969 78.964844 101.417969 78.964844 "/>
</g>
</svg>