<svg xmlns:dc="http://purl.org/dc/elements/1.1/" xmlns:cc="http://creativecommons.org/ns#" xmlns:rdf="http://www.w3.org/1999/02/22-rdf-syntax-ns#" xmlns:svg="http://www.w3.org/2000/svg" xmlns="http://www.w3.org/2000/svg" viewBox="0 0 240.27507 252" height="252" width="240.27509" xml:space="preserve" id="svg2" version="1.1"><metadata id="metadata8"><rdf:RDF><cc:Work rdf:about=""><dc:format>image/svg+xml</dc:format><dc:type rdf:resource="http://purl.org/dc/dcmitype/StillImage"/><dc:title/></cc:Work></rdf:RDF></metadata><defs id="defs6"><clipPath id="clipPath18" clipPathUnits="userSpaceOnUse"><path id="path16" d="M 0,600 H 800 V 0 H 0 Z"/></clipPath></defs><g transform="matrix(1.3333333,0,0,-1.3333333,-152.23828,279.15494)" id="g10"><g transform="matrix(0.33653838,0,0,0.33653838,72.828367,10.587369)" id="g12"><g clip-path="url(#clipPath18)" id="g14"><g transform="translate(654.665,588.4287)" id="g20"><path id="path22" style="fill:#000000;fill-opacity:1;fill-rule:nonzero;stroke:none" d="m 0,0 h -528.121 c -3.585,-97.622 -1.103,-166.756 14.286,-234.029 16.075,-69.341 50.231,-132.06 94.323,-187.188 43.257,-53.96 99.771,-102.05 155.452,-135.926 55.681,33.876 112.195,81.966 155.451,135.926 44.09,55.128 78.247,117.847 94.324,187.188 C 1.104,-166.756 3.586,-97.622 0,0"/></g><g transform="translate(646.0059,579.5591)" id="g24"><path id="path26" style="fill:#ffffff;fill-opacity:1;fill-rule:nonzero;stroke:none" d="m 0,0 h -510.802 c -0.71,-21.152 -1.198,-41.597 -1.198,-61.214 0,-58.416 3.835,-110.812 15.518,-161.908 14.698,-63.379 45.847,-125.165 92.595,-183.606 39.979,-49.875 92.575,-96.136 148.486,-130.913 55.909,34.777 108.505,81.038 148.486,130.913 46.746,58.441 77.897,120.227 92.596,183.606 11.68,51.096 15.516,103.492 15.516,161.908 C 1.197,-41.597 0.712,-21.152 0,0"/></g><g transform="translate(279.2974,301.5947)" id="g28"><path id="path30" style="fill:#000000;fill-opacity:1;fill-rule:nonzero;stroke:none" d="m 0,0 v -157.63 c 32.733,-34.277 71.09,-65.821 111.308,-91.399 40.216,25.578 78.572,57.122 111.305,91.399 V 0 C 185.557,4.886 148.431,7.329 111.308,7.33 74.182,7.329 37.058,4.886 0,0"/></g><g transform="translate(249.0791,178.3984)" id="g32"><path id="path34" style="fill:#000000;fill-opacity:1;fill-rule:nonzero;stroke:none" d="m 0,0 c 2.273,-2.834 4.596,-5.656 6.955,-8.471 v 128.275 c -23.572,-3.76 -48.749,-9.016 -72.236,-14.759 C -49.023,69.15 -27.205,34.018 0,0"/></g><g transform="translate(637.3555,570.6406)" id="g36"><path id="path38" style="fill:#000000;fill-opacity:1;fill-rule:nonzero;stroke:none" d="m 0,0 h -493.501 c -0.619,-20.115 -0.929,-37.05 -0.929,-52.295 0,-50.819 2.942,-92.264 9.388,-130.226 78.158,19.031 159.439,28.892 238.292,28.89 78.852,0.002 160.131,-9.859 238.291,-28.89 6.446,37.962 9.386,79.407 9.386,130.226 C 0.927,-37.05 0.617,-20.115 0,0"/></g><g transform="translate(525.1758,169.9277)" id="g40"><path id="path42" style="fill:#000000;fill-opacity:1;fill-rule:nonzero;stroke:none" d="M 0,0 C 2.357,2.814 4.68,5.637 6.953,8.471 34.158,42.488 55.977,77.621 72.233,113.516 48.748,119.259 23.571,124.515 0,128.274 Z"/></g><g transform="translate(244.2803,368.8989)" id="g44"><path id="path46" style="fill:#1d1d1b;fill-opacity:1;fill-rule:nonzero;stroke:none" d="m 0,0 1.688,-10.638 18.661,2.962 2.222,-14.016 -18.66,-2.962 1.741,-10.977 19.677,3.124 2.224,-14.016 -36.223,-5.75 -10.103,63.663 36.22,5.75 2.224,-14.016 z"/></g><g transform="translate(340.7417,393.8682)" id="g48"><path id="path50" style="fill:#1d1d1b;fill-opacity:1;fill-rule:nonzero;stroke:none" d="m 0,0 3.021,-36.122 c 0.692,-8.265 1.036,-16.472 -4.834,-23.226 -4.925,-5.731 -13.202,-8.311 -20.698,-8.938 -7.498,-0.627 -16.09,0.54 -21.899,5.374 -6.909,5.685 -7.933,13.835 -8.627,22.099 l -3.022,36.123 16.697,1.397 2.832,-33.822 c 0.699,-8.35 2.059,-17.415 12.791,-16.517 10.737,0.898 10.569,10.063 9.87,18.413 L -16.7,-1.398 Z"/></g><g transform="translate(381.9736,365.1768)" id="g52"><path id="path54" style="fill:#1d1d1b;fill-opacity:1;fill-rule:nonzero;stroke:none" d="m 0,0 2.822,0.009 c 6.069,0.018 12.053,0.034 12.033,7.9 -0.026,8.121 -5.583,8.192 -12.079,8.173 l -2.822,-0.009 z m -16.844,29.534 25.65,0.072 C 22.655,29.647 32.249,23.263 32.292,8.472 32.334,-6.745 24.149,-13.437 9.53,-13.479 l -9.49,-0.028 0.062,-21.372 -16.757,-0.049 z"/></g><g transform="translate(450.1719,378.6548)" id="g56"><path id="path58" style="fill:#1d1d1b;fill-opacity:1;fill-rule:nonzero;stroke:none" d="M 0,0 -0.713,-10.75 18.14,-12 17.2,-26.16 l -18.852,1.251 -0.738,-11.09 19.874,-1.318 -0.935,-14.16 -36.597,2.427 4.267,64.32 36.594,-2.429 -0.939,-14.16 z"/></g><g transform="translate(494.9521,389.4819)" id="g60"><path id="path62" style="fill:#1d1d1b;fill-opacity:1;fill-rule:nonzero;stroke:none" d="m 0,0 16.577,-2.433 24.648,-43.448 0.171,-0.024 5.718,38.995 16.579,-2.433 -9.355,-63.778 -16.577,2.431 -24.636,43.534 -0.169,0.025 -5.732,-39.08 -16.579,2.432 z"/></g><g transform="translate(438.4883,126.1045)" id="g64"><path id="path66" style="fill:#ffffff;fill-opacity:1;fill-rule:nonzero;stroke:none" d="m 0,0 c -2.833,3.385 -6.578,4.406 -10.217,4.84 -2.722,-0.292 -4.596,-1.039 -6.256,-3.576 -1.338,-2.792 -1.875,-5.619 -0.658,-8.795 -4.156,-5.249 -6.712,-14.236 -14.711,-14.293 -3.243,0.144 -5.825,0.701 -8.158,4.575 -0.442,2.329 -0.231,5.026 1.73,6.432 1.829,1.554 6.11,2.452 6.11,2.452 l 0.026,46.385 46.367,0.083 C 13.938,24.372 9.259,10.323 0,0 m -47.883,-31.152 c -1.722,2.372 -5.176,6.161 -5.968,8.84 3.746,3.1 3.548,4.815 3.898,7.57 -0.281,3.249 -1.761,7.163 -7.579,10.029 0.089,-0.004 0,42.664 0,42.664 l 9.649,9.15 9.649,-9.15 c 0,0 -0.089,-42.668 0,-42.664 -5.819,-2.866 -7.301,-6.78 -7.579,-10.029 0.348,-2.755 0.152,-4.47 3.897,-7.57 -0.792,-2.679 -4.245,-6.468 -5.967,-8.84 m -7.884,13.903 c -2.333,-3.874 -4.915,-4.431 -8.158,-4.575 -7.999,0.057 -10.556,9.044 -14.713,14.293 1.218,3.176 0.682,6.003 -0.656,8.795 -1.662,2.537 -3.532,3.284 -6.256,3.576 C -89.19,4.406 -92.934,3.385 -95.766,0 -105.025,10.323 -109.705,24.372 -110,38.103 l 46.367,-0.083 0.029,-46.385 c 0,0 4.277,-0.898 6.109,-2.452 1.957,-1.406 2.173,-4.103 1.728,-6.432 m -37.241,75.483 h 33.437 l 7.867,-7.297 -9.278,-8.003 -39.291,-0.061 c 4.331,3.829 7.085,9.343 7.265,15.361 m -12.179,17.928 c -5.973,6.392 7.053,15.558 7.053,15.558 l 6.321,-6.259 c 0,0 -9.168,-12.129 -13.374,-9.299 m 6.337,31.61 -3.727,8.01 2.943,1.117 2.395,-5.494 9.191,3.335 -1.842,5.263 7.073,2.48 2.217,-5.9 8.935,2.153 -0.907,6.917 4.975,0.755 0.939,-6.587 5.937,0.73 0.358,-2.981 -0.233,-0.026 c -10.416,-0.801 -34.16,-7.473 -38.254,-9.772 m -7.198,16.142 20.557,7.01 1.416,-4.557 -10.464,-3.635 1.685,-6.249 -2.592,-1.106 -2.719,6.619 -6.439,-2.274 z m -6.966,1.185 -3.905,5.671 4.152,2.089 1.753,-3.259 7.972,2.999 -1.08,3.944 4.214,1.893 1.647,-3.594 10.097,3.515 -1.27,3.264 4.916,1.159 1.519,-6.86 z m 44.79,13.78 -0.971,6.743 3.395,0.496 0.959,-3.633 7.889,0.676 0.423,3.797 2.311,-0.003 0.714,-3.767 c 0,0 3.034,-0.094 5.621,-0.209 2.585,0.115 5.62,0.209 5.62,0.209 l 0.714,3.767 2.311,0.003 0.425,-3.797 7.887,-0.676 0.958,3.633 3.397,-0.496 -0.972,-6.743 z m 40.056,-12.471 4.974,-0.755 -0.91,-6.917 8.937,-2.153 2.217,5.9 7.073,-2.48 -1.842,-5.263 9.194,-3.335 2.392,5.494 2.944,-1.117 -3.728,-8.01 c -4.093,2.299 -27.838,8.971 -38.256,9.772 l -0.23,0.026 0.357,2.981 5.936,-0.73 z m 16.921,16.372 4.916,-1.159 -1.273,-3.264 10.096,-3.515 1.65,3.594 4.212,-1.893 -1.08,-3.944 7.974,-2.999 1.752,3.259 4.153,-2.089 -3.906,-5.671 -30.016,10.821 z m 20.084,-23.058 -6.438,2.274 -2.719,-6.619 -2.593,1.106 1.684,6.249 -10.462,3.635 1.414,4.557 20.558,-7.01 z m 0.584,-43.56 c -4.205,-2.83 -13.377,9.299 -13.377,9.299 l 6.324,6.259 c 0,0 13.026,-9.166 7.053,-15.558 m -40.679,27.168 c 2.187,-2.543 5.369,-4.173 8.588,-4.991 6.745,-1.504 11.837,1.106 17.211,3.316 1.862,-0.896 3.767,-1.821 5.438,-2.679 -2.018,-6.025 -10.943,-11.745 -10.943,-11.745 0,0 8.316,-8.976 12.108,-15.116 -1.842,-1.82 -2.132,-4.733 -3.334,-7.019 l -29.92,0.043 0.017,31.574 c 0,0 -1.521,-0.747 -2.471,-0.84 -2.466,-0.573 -6.722,-0.235 -7.784,3.341 2.155,2.89 7.22,2.387 11.09,4.116 m 19.918,0.08 c -7.261,-2.105 -9.677,-1.075 -11.28,-0.63 0,0 -6.395,2.791 -7.661,6.148 4.448,-0.162 14.447,-2.796 18.941,-5.518 m -23.626,11.355 c 10.414,-0.808 32.317,-7.579 36.403,-9.885 l -0.715,-1.456 c -11.326,4.43 -23.36,8.085 -35.761,9.574 -0.076,-0.18 0.103,1.682 0.073,1.767 m -25.996,9.9 -1.271,10.536 c 0,0 7.469,0.132 14.35,0.199 6.88,-0.067 14.349,-0.199 14.349,-0.199 l -1.271,-10.536 -3.689,-0.787 -0.116,6.66 c 0,0 -5.06,0.037 -9.273,0.066 -4.216,-0.029 -9.276,-0.066 -9.276,-0.066 l -0.115,-6.66 z m 9.704,0.081 c 0.474,0.162 2.051,0 3.375,-0.377 1.321,0.377 2.9,0.539 3.375,0.377 5.439,-1.633 6.912,-8.109 6.973,-13.138 l -10.348,0.205 -10.348,-0.205 c 0.062,5.029 1.533,11.505 6.973,13.138 m 1.762,-25.308 c -0.309,7.32 -8.218,3.509 -11.007,8.413 2.978,0.484 7.96,0.948 12.62,1.249 4.659,-0.301 9.641,-0.765 12.62,-1.249 -2.79,-4.904 -10.699,-1.093 -11.01,-8.413 0.162,-5.572 8.031,-8.301 8.031,-8.301 l -0.081,-25.374 -9.56,-9.126 -9.56,9.126 -0.082,25.374 c 0,0 7.869,2.729 8.029,8.301 m -15.991,9.49 c -1.267,-3.357 -7.66,-6.148 -7.66,-6.148 -1.603,-0.445 -4.019,-1.475 -11.28,0.63 4.496,2.722 14.493,5.356 18.94,5.518 m 4.759,4.07 c -12.399,-1.489 -24.434,-5.144 -35.761,-9.574 l -0.715,1.456 c 4.087,2.306 25.988,9.077 36.403,9.885 -0.03,-0.085 0.152,-1.947 0.073,-1.767 m -2.928,-47.859 -29.92,-0.043 c -1.201,2.286 -1.493,5.199 -3.334,7.019 3.791,6.14 12.107,15.116 12.107,15.116 0,0 -8.924,5.72 -10.944,11.745 1.673,0.858 3.575,1.783 5.439,2.679 5.374,-2.21 10.466,-4.82 17.211,-3.316 3.217,0.818 6.402,2.448 8.587,4.991 3.871,-1.729 8.937,-1.226 11.092,-4.116 -1.063,-3.576 -5.317,-3.914 -7.785,-3.341 -0.95,0.093 -2.471,0.84 -2.471,0.84 z m 68.163,-22.266 -39.291,0.061 -9.279,8.003 7.87,7.297 H -2.76 C -2.579,52.216 0.176,46.702 4.507,42.873 M 4.467,55.74 c -1.311,4.267 -0.665,10.73 1.637,13.75 4.32,-0.98 8.991,0.199 10.108,4.085 1.363,4.662 0.883,7.68 -1.533,11.317 -1.948,2.117 -1.604,3.262 -5.283,6.34 -2.196,2.228 -6.74,6.947 -6.74,6.947 0,0 10.346,22.763 13.885,23.289 l 2.907,-1.759 7.321,12.578 -11.018,5.105 -1.745,-3.897 -3.409,1.191 1.283,4.529 -9.972,3.935 -2.154,-3.675 -3.373,1.199 1.229,3.342 -12.31,3.528 -3.587,-13.962 2.919,-1.349 -2.639,-10.885 -3.074,0.646 1.054,5.964 -8.477,1.422 0.329,5.561 4.641,-0.448 1.971,14.028 -11.047,1.573 -0.872,-4.242 -2.542,0.142 -0.039,4.356 -8.602,0.125 c 0,0 -0.665,-3.178 -0.799,-3.792 -0.009,-0.066 -0.017,-0.104 -0.017,-0.104 h -4.806 c 0,0 -0.007,0.038 -0.018,0.104 -0.132,0.614 -0.797,3.792 -0.797,3.792 l -8.601,-0.125 -0.039,-4.356 -2.543,-0.142 -0.869,4.242 -11.048,-1.573 1.97,-14.028 4.642,0.448 0.329,-5.561 -8.478,-1.422 1.053,-5.964 -3.074,-0.646 -2.639,10.885 2.921,1.349 -3.59,13.962 -12.308,-3.528 1.227,-3.342 -3.37,-1.199 -2.156,3.675 -9.971,-3.935 1.283,-4.529 -3.409,-1.191 -1.746,3.897 -11.017,-5.105 7.32,-12.578 2.907,1.759 c 3.539,-0.526 13.885,-23.289 13.885,-23.289 0,0 -4.542,-4.719 -6.74,-6.947 -3.679,-3.078 -3.337,-4.223 -5.282,-6.34 -2.416,-3.637 -2.896,-6.655 -1.534,-11.317 1.118,-3.886 5.788,-5.065 10.108,-4.085 2.301,-3.02 2.948,-9.483 1.637,-13.75 -1.927,-8.501 -8.836,-11.657 -17.453,-12.983 1.401,-7.272 1.109,-20.487 8.726,-33.885 2.891,-6.206 10.786,-15.715 16.472,-18.778 0.948,3.033 0.907,7.102 4.087,8.734 2.115,1.183 3.861,0.752 5.603,-0.977 1.208,-3.423 0.278,-5.324 -1.634,-6.177 3.625,-5.405 6.873,-12.142 12.468,-16.569 4.033,-2.398 9.155,-3.805 13.942,-1.826 2.055,-1.97 8.839,-11.084 10.14,-12.934 1.299,1.85 8.085,10.964 10.139,12.934 4.787,-1.979 9.909,-0.572 13.942,1.826 5.595,4.427 8.843,11.164 12.468,16.569 -1.911,0.853 -2.842,2.754 -1.632,6.177 1.74,1.729 3.486,2.16 5.6,0.977 3.18,-1.632 3.139,-5.701 4.088,-8.734 C 2.408,-6.843 10.303,2.666 13.194,8.872 20.812,22.27 20.52,35.485 21.918,42.757 13.301,44.083 6.395,47.239 4.467,55.74"/></g><g transform="translate(394.3574,248.0537)" id="g68"><path id="path70" style="fill:#ffffff;fill-opacity:1;fill-rule:nonzero;stroke:none" d="M 0,0 C -0.683,-1.373 -0.575,-6.747 -0.618,-7.843 L 3.975,-7.964 C 3.411,-5.355 2.77,-1.611 0,0"/></g><g transform="translate(382.8779,240.0898)" id="g72"><path id="path74" style="fill:#ffffff;fill-opacity:1;fill-rule:nonzero;stroke:none" d="M 0,0 4.592,0.121 C 4.549,1.217 4.656,6.591 3.975,7.964 1.203,6.353 0.564,2.608 0,0"/></g><g transform="translate(300.1182,455.3022)" id="g76"><path id="path78" style="fill:#ffffff;fill-opacity:1;fill-rule:nonzero;stroke:none" d="m 0,0 c -17.159,17.881 -30.181,35.936 -45.182,49.67 5.11,6.013 10.222,11.902 15.339,17.694 7.844,8.918 14.075,13.396 23.119,13.476 0.771,0.005 1.406,-0.091 2.016,-0.113 v 7.445 h -45.269 c -0.005,-3.407 -0.005,-6.442 -0.012,-7.44 6.384,0.068 8.549,-3.108 9.369,-5.736 1.295,-4.141 -1.409,-7.429 -19.632,-28.84 -4.287,-5.037 -8.774,-9.972 -13.165,-15.111 0.048,10.542 0.087,21.079 0.134,31.616 0.053,12.193 2.015,16.859 14.428,17.484 0.005,1.112 0.01,4.4 0.01,8.027 h -65.924 v -9.059 c 0.18,0 0.532,0.006 0.71,0.012 13.81,0.226 16.29,-4.242 16.264,-17.926 -0.039,-21.281 -0.073,-42.563 -0.112,-63.845 -0.027,-13.7 -2.502,-18.749 -16.163,-21.45 -0.173,-0.034 -0.525,-0.102 -0.699,-0.135 v -10.531 c 21.602,4.767 43.255,8.794 64.944,12.104 v 9.217 c -11.839,-0.987 -13.758,3.469 -13.707,15.511 0.017,4.941 0.042,9.877 0.06,14.823 2.546,2.945 6.316,7.085 8.863,9.967 6.926,-8.094 13.846,-17.203 20.772,-24.948 3.169,-3.469 4.754,-6.13 4.74,-8.032 -0.016,-3.943 -3.037,-5.088 -11.001,-6.249 -0.006,-0.248 -0.006,-4.315 -0.006,-8.85 21.179,3.029 42.382,5.37 63.61,7.006 V -6.16 C 7.042,-6.385 3.857,-4.073 0,0"/></g><g transform="translate(376.2271,484.1875)" id="g80"><path id="path82" style="fill:#ffffff;fill-opacity:1;fill-rule:nonzero;stroke:none" d="M 0,0 C 5.292,10.423 10.57,20.813 15.835,31.197 20.849,20.785 25.875,10.344 30.913,-0.135 20.602,-0.005 10.303,0.039 0,0 M 80.142,-20.464 C 66.52,6.751 52.934,33.149 39.414,59.287 H 20.116 C 6.372,34.626 -7.439,10.063 -21.312,-14.902 c -6.243,-11.27 -12.494,-17.491 -22.347,-18.811 v -8.105 c 16.086,0.936 32.176,1.472 48.269,1.607 v 7.484 c -10.467,0.593 -15.486,3.582 -15.481,9.471 0.009,2.16 0.608,4.643 1.619,6.509 1.605,2.855 3.217,5.703 4.822,8.54 13.2,0.09 26.386,0.022 39.568,-0.192 1.279,-2.815 2.561,-5.628 3.829,-8.443 2.02,-4.231 2.633,-7.813 2.633,-9.211 0.018,-5.438 -3.8,-6.701 -14.462,-6.825 v -7.395 c 24.193,-0.344 48.367,-1.579 72.526,-3.711 v 7.919 c -11.264,1.02 -14.699,5.798 -19.522,15.601"/></g><g transform="translate(336.1211,497.0986)" id="g84"><path id="path86" style="fill:#ffffff;fill-opacity:1;fill-rule:nonzero;stroke:none" d="m 0,0 c 0,6.401 -5.195,11.591 -11.594,11.591 -6.405,0 -11.592,-5.19 -11.592,-11.591 0,-6.408 5.187,-11.597 11.592,-11.597 C -5.195,-11.597 0,-6.408 0,0"/></g><g transform="translate(574.3164,497.1323)" id="g88"><path id="path90" style="fill:#ffffff;fill-opacity:1;fill-rule:nonzero;stroke:none" d="m 0,0 c -12.928,6.667 -24.304,11.45 -31.579,16.34 -3.927,2.617 -6.306,6.6 -6.323,10.339 -0.04,7.468 6.417,11.952 17.986,11.828 15.5,-0.13 31.176,-9.723 34.328,-26.989 3.203,-0.175 6.397,-0.35 9.59,-0.531 v 35.355 h -9.843 c -1.366,-3.113 -2.551,-5.804 -2.929,-6.65 -8.449,5.816 -23.334,8.477 -35.895,8.472 -25.511,-0.158 -44.074,-14.13 -43.973,-32.089 0.089,-17.643 11.546,-27.943 39.18,-40.499 13.328,-6.187 21.528,-11.106 21.562,-21.134 0.029,-9.38 -7.547,-14.124 -20.237,-12.353 -18.163,2.538 -31.171,14.479 -34.019,32.732 -3.678,0.287 -7.35,0.559 -11.032,0.823 v -35.14 c 3.509,-0.4 7.016,-0.812 10.52,-1.246 1.247,3.672 2.65,7.744 2.825,8.173 8.663,-8.258 18.664,-13.43 34.068,-15.783 31.006,-5.025 51.859,5.742 55.78,26.528 C 33.794,-21.744 18.986,-9.956 0,0"/></g><g transform="translate(475.3789,508.6895)" id="g92"><path id="path94" style="fill:#ffffff;fill-opacity:1;fill-rule:nonzero;stroke:none" d="m 0,0 c -6.396,0 -11.592,-5.189 -11.592,-11.591 0,-6.408 5.196,-11.597 11.592,-11.597 6.401,0 11.595,5.189 11.595,11.597 C 11.595,-5.189 6.401,0 0,0"/></g></g></g></g></svg>