<svg xmlns:rdf="http://www.w3.org/1999/02/22-rdf-syntax-ns#" xmlns:dc="http://purl.org/dc/elements/1.1/" xmlns:cc="http://creativecommons.org/ns#" xmlns:svg="http://www.w3.org/2000/svg" xmlns:sodipodi="http://sodipodi.sourceforge.net/DTD/sodipodi-0.dtd" xmlns:inkscape="http://www.inkscape.org/namespaces/inkscape" xmlns="http://www.w3.org/2000/svg" xmlns:xlink="http://www.w3.org/1999/xlink" version="1.1" id="svg18516" sodipodi:docname="Logo PSG.svg" inkscape:version="0.91 r13725" x="0px" y="0px" width="510px" height="509.964px" viewBox="0 0 510 509.964" enable-background="new 0 0 510 509.964" xml:space="preserve">
<rect x="255.81" y="15.376" fill="#013CA6" width="0.085" height="478.473"/>
<path fill="#013CA6" d="M255.852,15.142v478.944c0.208-0.021,0.423-0.092,0.646-0.237c0.534-0.135,1.086-0.227,1.598-0.419  c10.266-3.795,20.361-7.983,30.233-12.712c24.661-11.811,47.618-26.254,68.428-44.062c21.459-18.369,39.736-39.397,53.84-63.953  c16.933-29.484,26.128-61.157,26.174-95.221c0.046-30.602,0.043-61.2,0.05-91.802V78.021c-0.009-20.114,0-62.884,0-62.884  S255.899,15.144,255.852,15.142z"/>
<path fill="#092F87" d="M114.877,15.147H77.261h-1.687h-0.218v0.549v1.229v266.99c0.534,13.993,2.492,27.79,6.186,41.346  c7.72,28.335,21.32,53.652,39.661,76.516c17.631,21.979,38.504,40.354,61.873,55.979c22.125,14.791,45.823,26.484,70.776,35.671  c0.629,0.229,1.259,0.737,1.971,0.67V15.147H114.877z"/>
<path fill="none" d="M436.821,78.021v107.66C436.826,149.794,436.833,113.908,436.821,78.021z"/>
<path fill="none" d="M75.219,18.221c-0.011,85.883,0.014,171.766-0.031,257.648c-0.001,2.688,0.067,5.374,0.168,8.048V15.697  C75.087,16.584,75.219,17.417,75.219,18.221z"/>
<path fill="none" d="M75.637,14.999h12.965C84.247,14.997,79.893,14.999,75.637,14.999z"/>
<path fill="none" d="M436.821,16.187v1.131C436.842,16.948,436.862,16.569,436.821,16.187z"/>
<path fill="none" d="M436.39,15.042c-6.189,0-12.448,0-18.71,0c-53.027,0-106.051-0.001-159.075,0.002  c-0.771,0-1.547,0.055-2.316,0.091h180.15C436.417,15.104,436.415,15.073,436.39,15.042z"/>
<path fill="#F4E84E" d="M436.821,78.021V17.316c-0.009,0.123-0.018,0.243-0.018,0.362C436.807,37.793,436.812,57.906,436.821,78.021  z"/>
<path fill="#F4E84E" d="M255.992,15.147c0.101-0.004,0.197-0.005,0.296-0.011h-0.437v0.007  C255.899,15.144,255.948,15.146,255.992,15.147z"/>
<path fill="#F4E84E" d="M436.821,15.135h-0.383c0.244,0.351,0.346,0.704,0.383,1.049V15.135z"/>
<path fill="#F4E84E" d="M253.146,15.046c0.892,0,1.782,0.06,2.676,0.096v-0.007v-0.137H88.602  C143.449,15.013,198.298,15.026,253.146,15.046z"/>
<rect x="255.822" y="14.999" fill="#F4E84E" width="0.029" height="0.138"/>
<path fill="#F4E84E" d="M255.822,15.142c0.011,0,0.02,0,0.029,0v-0.007h-0.029V15.142z"/>
<path fill="#F3E74D" d="M328.748,262.147c4.247-4.101,8.001-8.552,10.059-14.202c2.316-6.366,3.314-12.882,1.91-19.592  c-1.395-6.654-5.316-11.329-12.012-12.644c-8.84-1.738-16.546-5.704-23.951-10.527c-1.261-0.823-2.537-1.621-3.783-2.461  c-7.718-5.214-16.024-6.853-25.103-4.348c-7.313,2.018-13.714,5.632-19.379,10.626c-1.432,0.248-2.102-0.972-3.005-1.642  c-5.971-4.455-12.348-7.966-19.748-9.502c-8.353-1.734-15.848,0.16-22.834,4.785c-6.609,4.377-13.214,8.786-20.85,11.248  c-2.252,0.724-4.602,1.148-6.904,1.713c-6.785,1.667-11.609,7.133-12.348,14.074c-1.341,12.57,2.264,23.324,11.798,31.878  c0.227,0.202,0.4,0.473,0.596,0.71c-0.065,0.066-0.133,0.135-0.2,0.206c-7.927-2.788-14.084-7.665-17.899-15.337  c-5.747,9.154-2.906,20.819,6.551,27.392c2.416,1.682,5.022,2.976,8.028,3.866c-5.044,1.905-12.849-0.485-21.035-6.401  c-1.064,3.632-1.612,7.238-2.236,10.729c2.455,4.188,6.491,6.133,10.919,8.52c-4.535,1.106-8.37,0.39-12.221-0.805  c-0.768,1.092-0.599,2.34-1.204,3.766c13.851,17.834,30.25,33.411,45.83,49.851c-1.124,1.299-2.761,1.759-4.282,2.806  c-2.614-2.195-5.239-4.337-7.796-6.555c-14.374-12.477-28.731-24.973-43.09-37.464c-0.598-0.521-1.149-1.101-1.752-1.611  c-5.001-4.253-6.361-9.559-4.835-15.851c5.967-24.621,15.407-47.754,29.311-68.996c0.52-0.798,1.206-1.486,1.688-2.302  c3.068-5.171,7.952-6.941,13.589-7.406c7.455-0.617,13.581-3.483,18.252-9.687c5.64-7.487,12.988-12.889,21.852-16.248  c8.353-3.171,16.225-1.426,24.003,1.809c3.19,1.326,6.248,2.979,9.364,4.483c3.729-1.727,7.338-3.682,11.152-5.249  c10.903-4.483,21.047-2.969,30.796,3.284c5.149,3.303,9.618,7.353,13.223,12.205c4.301,5.785,10.054,8.473,16.954,9.338  c2.197,0.277,4.383,0.688,6.565,1.067c3.04,0.529,4.997,2.593,6.817,4.846c5.926,7.328,10.241,15.627,14.497,23.965  c7.719,15.106,13.355,30.981,17.376,47.439c0.693,2.838,1.382,5.699,0.909,8.689c-0.656,4.164-3.438,6.923-6.349,9.495  c-9.865,8.725-19.8,17.364-29.741,25.997c-7.185,6.24-14.418,12.415-21.703,18.683c-1.621-0.753-3.199-1.398-4.979-3.274  c4.142-3.912,8.38-7.625,12.286-11.661c10.699-11.056,21.485-22.034,31.226-33.972c1.777-2.179,3.308-4.323,1.613-7.393  c-3.751,1.118-7.673,1.831-12.409,0.792c4.517-2.264,8.505-4.342,11.141-8.573c-0.667-3.423-1.371-7.047-2.171-11.158  c-5.938,6.222-13.06,7.92-21.1,7.104c9.71-3.334,15.787-9.916,18.168-19.922c-0.96-3.844-1.788-7.782-3.405-11.903  c-3.965,7.835-10.021,12.8-17.938,15.567C328.887,262.313,328.816,262.232,328.748,262.147z"/>
<path fill="#F1E54D" d="M256.409,393.318c3.912-8.303,7.985-16.527,12.814-24.356c1.156-1.876,2.351-3.733,3.651-5.795  c2.001,1.628,3.865,3.149,5.89,4.799c-3.051,4.199-5.914,8.359-8.424,12.747c-4.089,7.154-7.707,14.528-10.275,22.384  c-0.161,0.182-0.27,0.362,0.002,0.578c0.091-0.099,0.188-0.202,0.279-0.308c6.912-4.821,14.458-7.214,22.999-6.771  c14.169,0.733,27.348,12.438,30.337,26.339c3.533,16.439-6.439,34.538-24.442,39.664c-9.144,2.603-18.152,4.327-27.609,3.16  c-2.039-0.252-4.062-0.639-6.092-0.958c-3.637-1.104-7.244-2.256-10.792-3.649c-11.561-4.54-18.11-13.492-21.925-24.785  c-3.951-11.697-3.068-23.413,0.294-35.096c2.948-10.243,7.968-19.462,13.659-28.378c2.385-3.735,4.696-7.52,5.572-11.992  c0.681-3.486,0.115-6.774-1.181-9.998c-1.933-4.795-4.767-9.056-7.918-13.134c0.7-0.397,1.121-0.036,1.537,0.358  c5.934,5.611,11.254,11.569,13.146,19.915c1.887,8.324,1.376,16.006-4.449,22.82c-2.937,3.433-5.657,7.072-7.899,11.009  c-2.648,4.647-2.697,7.906-0.531,14.776c-1.571,0.841-4.213,0.642-4.17,3.323c0.033,2.012,2.224,3.054,2.608,4.979  c-0.264,2.238-2.818,2.987-3.335,5.133c0.39,2.128,2.951,2.849,3.38,5.019c-0.042,1.057-0.997,1.745-1.264,2.834  c-0.054,2.113,2.289,2.369,3.144,3.816c0.908,2.032-1.129,4.21,0.403,6.395c4.732,0.798,3.157,4.732,3.517,7.658  c0.573,1.146,1.757,1.124,2.421,1.485c1.174,1.132,0.943,2.564,1.568,3.71c1.28,1.362,3.073,1.816,4.616,2.384  c0.896,0.677,0.821,1.681,1.408,2.546c2.095,0.934,4.199,2.214,6.659,2.625c3.818,1.629,7.856,2.213,12.003,2.582  c-4.881-2-8.683-5.397-12.396-8.917c-5.267-6.663-8.37-14.052-8.265-22.734c0.076-6.324,1.103-12.449,2.768-18.507  C251.778,404.933,254.091,399.125,256.409,393.318z M257.157,419.464c4.657-0.265,8.824,0.554,12.907,1.947  c4.135,1.412,7.918,3.544,11.624,5.804c2.755-1.401,5.416-2.695,7.642-4.764c-6.946-6.622-20.449-11.154-28.652-9.665  C259.3,414.723,257.842,416.677,257.157,419.464z M305.758,418.866c-0.933-2.55-2.258-4.515-3.837-6.434  c-4.437,6.979-7.994,11.162-19.179,17.364c-0.218,2.927-0.128,5.896,0.128,9.216C292.971,434.777,301.009,428.797,305.758,418.866z   M285.479,454.6c-4.812-7.941-5.806-16.5-5.547-25.296c-2.573-1.706-5.054-3.303-8.076-4.235  c-1.153,10.729-0.317,20.707,5.96,29.566C280.345,455.047,282.749,455.015,285.479,454.6z M263.83,409.711  c10.682,0.291,19.673,4.601,27.846,10.981c2.151-1.823,4-3.621,5.396-5.75c-0.117-0.287-0.142-0.465-0.243-0.564  c-0.338-0.333-0.685-0.659-1.061-0.946c-5.487-4.183-11.543-7.069-18.281-8.74C271.66,403.256,267.67,406.023,263.83,409.711z   M261.387,422.309c-1.235,7.354-0.73,14.322,1.032,21.359c1.551,6.172,6.107,8.286,11.884,10.378  c-5.599-9.768-6.363-19.771-4.916-30.141C266.634,423.167,264.25,422.033,261.387,422.309z M285.807,449.542  c7.49-2.886,13.684-7.054,18.978-12.732c3.963-4.256,2.821-8.952,2.096-13.832c-5.65,8.977-13.728,14.779-23.39,18.584  C283.619,444.467,284.565,446.931,285.807,449.542z M299.855,410.152c-4.058-4.729-13.566-8.445-19.034-7.268  c3.581,1.077,6.633,2.319,9.536,3.891c2.928,1.581,5.59,3.574,8.26,5.533C299.31,411.705,299.566,410.967,299.855,410.152z   M259.087,442.066c-1.382-6.615-1.516-13.255-0.309-20.033c-0.643-0.05-1.021-0.113-1.397-0.092  c-0.384,0.018-0.763,0.113-1.273,0.198C254.187,429.248,255.337,435.831,259.087,442.066z M304.067,441.561  c-5.042,4.495-10.726,7.917-17.101,10.279c0.461,0.926,0.712,1.681,1.47,2.068C294.39,452.873,301.109,447.655,304.067,441.561z"/>
<path fill="#F3E64C" d="M188.06,74.903c3.729,0,7.282,0,10.898,0c6.989,28.569,11.837,57.554,19.505,85.836  c-3.626-0.454-7.821-0.39-12.068-1.217c-1.165-5.682-2.318-11.321-3.54-17.291c-6.533-0.685-13.114-1.376-19.981-2.1  c-1.286,5.257-2.559,10.449-3.862,15.773c-4.281-0.337-8.328-1.294-12.393-1.983c5.033-11.176,7.065-23.076,10.139-34.652  c3.781-14.236,7.189-28.573,10.765-42.863C187.634,75.949,187.84,75.513,188.06,74.903z M193.242,95.056  c-1.944,10.981-5.164,21.671-7.576,32.801c4.983,0.416,9.669,0.809,14.547,1.217C197.95,117.521,194.9,106.466,193.242,95.056z"/>
<path fill="#F4E74C" d="M116.939,105.949c9.999,5.302,10.575,17.663,7.783,25.022c-2.482,6.551-8.361,9.715-15.553,8.161  c-7.822-1.692-15.208-4.777-22.866-7.558c2.043-2.416,2.354-5.182,2.371-7.959c0.078-13.411,0.098-26.821,0.106-40.228  c0.002-2.969-0.61-5.813-2.211-8.36c0.392-0.716,1.016-0.39,1.495-0.39c6.744-0.018,13.489-0.011,20.234,0.015  c3.128,0.01,6.168,0.609,9.038,1.819c7.167,3.022,8.956,10.612,7.994,17.674C124.62,99.355,122.242,103.593,116.939,105.949z   M99.52,125.931c3.387,1.493,7.006,2.224,9.812,2.096c1.8-0.085,3.242-0.83,4.285-2.217c2.754-3.657,1.332-10.938-2.605-13.372  c-3.451-2.139-7.385-2.575-11.492-3.316C99.52,114.89,99.52,120.395,99.52,125.931z M99.583,84.611c0,5.26,0,10.119,0,15.102  c1.318,0.199,2.474,0.443,3.643,0.532c1.495,0.11,3.004,0.188,4.501,0.117c4.003-0.185,5.826-1.869,6.491-5.859  c0.695-4.178-0.734-7.189-4.189-8.555C106.721,84.635,103.206,84.979,99.583,84.611z"/>
<path fill="#F3E74C" d="M255.445,122.483c2.749,8.509,2.558,17.057,0.354,25.637c-1.437,3.912-3.329,7.512-6.553,10.317  c-5.127,4.469-15.62,5.668-21.192,2.22c-1.317-4.887-2.672-9.899-4.126-15.29c4.661,2.196,9.153,2.891,13.801,2.742  c4.705-0.149,7.59-2.877,8.266-7.548c1.008-6.956-1.229-12.187-7.464-15.794c-4.824-2.791-9.615-5.944-11.521-11.555  c-3.669-10.797-3.955-21.519,2.461-31.517c3.424-5.338,8.621-7.771,14.981-7.633c3.512,0.075,6.911,0.709,10.36,1.958  c0,4.756,0,9.473,0,14.439c-1.846-0.653-3.595-1.288-5.355-1.88c-0.674-0.227-1.371-0.415-2.075-0.511  c-5.675-0.752-9.188,0.734-10.91,4.583c-2.155,4.817-0.848,11.417,3.038,14.634c1.828,1.515,3.799,2.877,5.799,4.153  C249.675,114.23,253.219,117.741,255.445,122.483z"/>
<path fill="#F2E64D" d="M227.412,339.672c5.136,6.562,9.695,12.971,10.672,21.224c-7.813,6.687-16.212,11.979-25.516,15.855  c-8.829,3.681-17.938,5.646-27.562,5.234c-12.433-0.536-23.037-5.413-32.331-13.378c-10.864-9.311-18.312-21.15-24.659-33.865  c0.977-0.143,1.002,0.812,1.481,1.182c0.559,0.429,0.988,1.024,1.47,1.55c8.389,9.175,17.942,16.829,29.347,21.918  c20.195,9.017,41.242,5.183,57.891-10.349C221.333,346.13,224.298,343.056,227.412,339.672z M168.365,370.565  c5.122,4.604,15.428,7.392,24.891,6.867c10.911-0.606,20.953-3.979,30.702-9.271c-2.105-1.908-3.859-3.511-5.627-5.097  c-0.169-0.149-0.42-0.202-0.681-0.322C202.744,374.063,186.045,374.368,168.365,370.565z"/>
<path fill="#F3E64C" d="M132.627,74.818c4.56,0,8.877,0,13.417,0c0.268,20.777-0.691,41.437-0.599,62.392  c6.243,1.156,12.409,2.298,18.752,3.472c-1.387,4.097-2.696,7.97-4.038,11.932c-9.644-1.869-19.02-4.068-28.497-6.636  c2.223-3.491,2.701-7.232,2.752-11.052c0.226-16.177,0.399-32.362,0.615-48.542C135.081,82.397,134.722,78.507,132.627,74.818z"/>
<path fill="#F2E64D" d="M231.72,328.532c3.017-10.971,1.089-21.585-1.837-32.103c-2.969-10.668-7.491-20.694-12.974-30.303  c-0.385-0.675-0.713-1.387-1.039-2.022c7.583-9.002,8.083-19.964,9.08-30.818c5.436,3.866,11.215,12.9,9.16,18.532  c-0.885,2.423-2.176,4.572-3.575,6.686c-1.635,2.466-3.002,5.04-3.498,7.999c-0.273,1.628-0.15,3.188,1.015,4.482  c13.663,15.142,14.418,32.201,7.461,50.383C234.544,323.889,233.631,326.471,231.72,328.532z"/>
<path fill="#F9F9F9" d="M228.496,29.37c3.043,0,6.689-0.078,10.329,0.02c5.486,0.142,8.627,2.263,9.685,6.345  c1.25,4.834-0.523,8.735-5.182,11.494c2.765,4.501,5.024,9.262,7.555,14.141c-2.671,0-5.028,0-7.587,0  c-1.731-3.634-3.518-7.319-5.242-11.032c-0.579-1.246-1.206-2.256-3.063-1.793c0,4.183,0,8.42,0,12.783c-2.508,0-4.775,0-6.734,0  C229.283,50.736,228.957,40.174,228.496,29.37z M235.05,43.639c2.69,0.337,5.09,0.049,6.622-2.281  c1.075-1.633,1.069-3.568-0.104-5.134c-1.606-2.14-4.022-2.082-6.519-1.954C235.05,37.423,235.05,40.406,235.05,43.639z"/>
<path fill="#F8F8F8" d="M256.798,49.97c2.354-6.791,4.711-13.58,7.114-20.506c2.003,0,4.037,0,6.337,0  c3.897,10.427,6.884,21.329,11.21,31.854c-2.115,0-4.36,0-6.709,0c-0.664-2.02-1.323-4.034-2.023-6.175c-3.708,0-7.395,0-11.223,0  c-0.514,1.516-1.067,3.064-1.556,4.63c-0.268,0.861-0.526,1.671-1.56,1.868c-1.869-0.096-3.741-0.191-5.762-0.294  C254.515,57.623,255.588,53.771,256.798,49.97z M271.056,49.863c-1.339-4.141-2.612-8.084-4.012-12.412  c-1.384,4.283-2.67,8.27-4.008,12.412C265.832,49.863,268.319,49.863,271.056,49.863z"/>
<path fill="#FBFBFA" d="M179.931,29.439c1.894,0,4.166,0,6.622,0c0,4.426,0,8.737,0,13.05c0.158,0.064,0.313,0.126,0.472,0.191  c2.882-4.369,5.766-8.739,8.732-13.24c2.171,0,4.432,0,7.085,0c-3.371,4.962-6.601,9.713-9.892,14.554  c3.37,5.67,6.755,11.36,10.268,17.268c-2.44,0-4.754,0-7.262,0c-2.04-3.79-4.12-7.699-6.246-11.577  c-0.625-1.139-1.174-2.528-3.153-2.016c0,4.525,0,9.019,0,13.644c-2.451,0-4.713,0-6.562,0  C180.881,50.729,180.963,40.168,179.931,29.439z"/>
<path fill="#F8F8F8" d="M206.599,29.429c5.305,0,11.063,0,16.936,0c0,1.727,0,3.339,0,5.141c-3.424,0-6.725,0-10.168,0  c0,2.6,0,5.012,0,7.682c2.99,0,5.959,0,9.057,0c0,1.8,0,3.352,0,5.163c-2.935,0-5.9,0-9.037,0c0,2.979,0,5.705,0,8.72  c3.57,0,7.159,0,11.105,0c-0.794,1.947-1.438,3.526-2.121,5.202c-5.419,0-10.786,0-15.828,0  C207.507,50.811,207.369,40.253,206.599,29.429z"/>
<path fill="#F0E54E" d="M203.287,270.676c5.76,5.104,12.348,7.63,19.226,9.587c-5.312,0.606-10.002-1.596-14.923-3.32  c-0.236,1.99,0.135,3.742,0.651,5.47c0.497,1.657,1.688,2.431,3.389,2.426c1.35-0.003,2.698-0.05,4.045-0.077  c5.68-0.106,10.929,7.604,8.815,12.946c-1.389,3.507-4.85,4.649-8.464,2.677c-3.073-1.678-5.398-4.089-6.849-7.335  c-1.201-2.685-2.208-5.44-2.99-8.268C204.947,280.299,204.111,275.719,203.287,270.676z"/>
<path fill="#F0E54E" d="M203.741,354.112c-2.185-1.884-4.333-3.731-6.593-5.675c13.447-5.838,19.78-17.692,26.065-29.85  C222.709,332.774,215.807,349.246,203.741,354.112z"/>
<path fill="#F3E74D" d="M183.19,262.26c0.319,0.039,0.619,0.105,0.718,0.524c-0.429,0.237-0.683-0.007-0.918-0.322  C183.057,262.395,183.125,262.327,183.19,262.26z"/>
<path fill="#F3E64D" d="M361.665,119.671c0,10.272,0,20.412,0,30.868c-4.326,0.904-8.7,1.819-13.452,2.809  c2.976-6.221,2.599-12.496,2.5-18.741c-0.246-15.706-0.503-31.415-0.709-47.123c-0.057-4.353-1.488-8.364-2.988-12.786  c8.739,0.454,17.309-0.972,25.718,1.096c8.063,1.979,12.398,7.994,12.729,17.333c0.312,8.8-2.27,16.404-9.494,21.735  c5.224,9.204,8.851,19.024,14.043,28.502c-4.691,1.259-8.996,2.416-13.517,3.625c-2.761-6.806-5.429-13.399-8.108-19.99  c-0.744-1.833-1.47-3.681-2.305-5.476C365.246,119.728,363.894,118.862,361.665,119.671z M361.295,86.661c0,7.537,0,14.836,0,22.273  c1.24-0.177,2.097-0.305,2.953-0.429c6.642-0.929,10.453-6.075,9.854-13.314c-0.526-6.37-3.86-8.906-11.367-8.64  C362.266,86.568,361.797,86.622,361.295,86.661z"/>
<path fill="#F3E64C" d="M323.285,121.537c0,7.448,0,14.723,0,22.462c6.592-0.883,12.977-1.738,19.82-2.657  c-1.252,4.675-2.444,9.116-3.641,13.584c-9.822,1.745-19.532,3.079-29.15,4.221c-0.646-0.788-0.103-1.22,0.076-1.685  c1.37-3.522,1.907-7.183,1.871-10.949c-0.188-19.756-0.338-39.515-0.544-59.274c-0.042-4.195-0.496-8.342-2.795-12.279  c10.706,0,21.214,0,31.985,0c0,4.214,0,8.388,0,13.066c-5.861,0-11.91,0-18.03,0c0,6.962,0,13.428,0,20.17  c5.492-0.33,10.767-0.646,16.249-0.979c0,4.196,0,8.353,0,12.854C333.981,120.551,328.733,121.037,323.285,121.537z"/>
<path fill="#F2E64D" d="M273.818,360.794c0.314-5.924,5.719-16.394,10.832-20.912c3.664,4.139,7.524,8.094,11.845,11.576  c10.553,8.498,22.368,13.549,36.137,12.709c12.251-0.749,22.937-5.768,32.759-12.847c5.357-3.863,10.274-8.222,14.741-13.092  c0.684-0.745,1.384-1.472,2.06-2.188c0.874,0.68,0.359,1.155,0.137,1.589c-5.985,11.462-13.029,22.131-22.886,30.718  c-13.737,11.975-29.588,16.185-47.359,12.456c-14.19-2.976-26.448-9.994-37.52-19.198  C274.268,361.358,274.036,361.036,273.818,360.794z M287.911,368.057c2.847,1.927,5.709,3.058,8.55,4.204  c10.852,4.362,21.99,6.607,33.683,4.305c4.823-0.946,9.28-2.806,13.74-6.093c-17.989,3.897-34.749,3.629-49.868-7.828  C292.051,364.386,290.11,366.107,287.911,368.057z"/>
<path fill="#F4E74C" d="M300.633,88.899c-4.229,0-8.186,0-12.463,0c0,24.076,0,47.985,0,72.142  c-3.667,0.241-7.023,0.465-10.658,0.706c0-24.335,0-48.407,0-72.667c-4.826,0-9.402,0-14.147,0c0-4.753,0-9.317,0-14.053  c13.497,0,27.017,0,40.832,0C303.005,79.673,301.852,84.167,300.633,88.899z"/>
<path fill="#F3E64D" d="M423.455,75.329c0,3.366,0,6.427,0,9.64c-3.192-0.695-6.285-1.337-9.46-1.273  c-2.076,0.042-4.089,0.369-5.939,1.422c-2.535,1.443-3.594,3.639-3.589,6.501c0.005,2.905,1.188,5.104,3.807,6.328  c2,0.933,4.083,1.756,6.208,2.348c10.397,2.891,12.94,8.877,10.935,19.025c-2.166,10.97-15.237,21.185-26.441,21.352  c-0.307,0.003-0.613-0.096-1.123-0.181c-1.368-3.38-2.757-6.81-4.309-10.641c4.297,0.493,8.129-0.266,11.92-1.33  c2.153-0.604,4.207-1.408,6.02-2.746c3.022-2.231,4.382-6.136,3.436-9.74c-0.508-1.922-1.793-3.064-3.562-3.862  c-3.049-1.373-6.387-1.798-9.459-3.139c-4.046-1.767-6.61-4.654-7.492-8.889c-1.378-6.604-1.474-13.095,2.68-18.943  c2.712-3.82,6.463-6.002,11.046-6.771C413.224,73.577,418.224,74.247,423.455,75.329z"/>
<path fill="#F2E64D" d="M280.619,329.902c-10.406-17.259-13.354-41.332,2.762-58.522c1.487-1.586,1.846-3.381,1.29-5.494  c-0.815-3.129-2.367-5.859-4.163-8.488c-4.268-6.253-4.201-11.42,0.189-17.539c1.754-2.44,3.63-4.773,6.125-7.072  c0.986,11.218,1.428,22.32,9.147,31.361c-4.738,8.114-8.794,16.613-11.924,25.533c-3.545,10.091-5.982,20.369-5.175,31.191  C279.104,323.96,279.729,326.957,280.619,329.902z"/>
<path fill="#F8F8F8" d="M314.856,29.375c2.123,0,4.092,0,6.239,0c3.962,10.53,6.983,21.406,11.242,31.962c-2.121,0-4.298,0-6.592,0  c-0.714-2.059-1.428-4.134-2.158-6.25c-3.752,0-7.38,0-11.179,0c-0.678,2.043-1.357,4.116-2.076,6.276c-2.24,0-4.438,0-6.665,0  C307.818,50.93,310.911,40.097,314.856,29.375z M321.982,49.908c-1.373-4.276-2.655-8.273-4.065-12.67  c-1.388,4.484-2.627,8.5-3.917,12.67C316.697,49.908,319.134,49.908,321.982,49.908z"/>
<path fill="#F0E54E" d="M304.274,276.894c-4.937,1.826-9.603,3.888-14.871,3.395c6.725-2.047,13.267-4.441,19.106-9.633  c-1.407,8.238-2.78,15.804-6.135,22.869c-1.27,2.679-3.193,4.703-5.646,6.281c-2.849,1.83-5.637,2.097-7.554,0.547  c-2.396-1.944-2.631-4.547-1.943-7.363c0.38-1.558,0.988-3.02,1.899-4.331c1.816-2.607,4.007-4.171,7.526-3.962  C303.264,285.098,304.23,283.973,304.274,276.894z"/>
<path fill="#F8F8F8" d="M291.968,56.168c3.719,0,7.085,0,10.763,0c-0.743,1.864-1.373,3.453-2.054,5.164c-5.283,0-10.544,0-15.354,0  c1.1-10.592,0.77-21.135,0.236-31.847c1.628,0,3.92,0,6.409,0C291.968,38.273,291.968,47.041,291.968,56.168z"/>
<path fill="#F1E54D" d="M287.497,318.037c6.686,12.488,13.039,24.612,27.05,30.481c-2.295,1.919-4.547,3.803-6.746,5.64  C297.504,351.05,288.26,334.76,287.497,318.037z"/>
<path fill="#F0E54E" d="M256.754,228.1c2.457-6.274,7.197-9.285,13.137-10.473c7.507-1.5,14.925-0.511,22.24,1.589  c-4.336,0.521-8.683,0.823-12.977,1.61c-4.875,0.89-9.492,2.195-13.293,5.71C263.393,228.817,260.348,229.445,256.754,228.1z"/>
<path fill="#F3E74D" d="M328.956,262.395c-0.226,0.312-0.478,0.518-0.94,0.163c0.274-0.153,0.504-0.28,0.732-0.408  C328.816,262.232,328.887,262.313,328.956,262.395z"/>
<path fill="#F0E54E" d="M254.6,228.132c-2.27-6.274-6.657-9.289-12.151-10.474c-6.944-1.504-13.808-0.514-20.575,1.589  c4.011,0.521,8.031,0.823,12.002,1.606c4.509,0.894,8.78,2.196,12.296,5.714C248.46,228.853,251.277,229.477,254.6,228.132z"/>
<path fill="#F4E84E" d="M253.146,15.046c-46.089-0.016-92.18-0.027-138.269-0.037v0.14h140.945v-0.007  C254.928,15.104,254.036,15.046,253.146,15.046z"/>
<path fill="#F4E84E" d="M114.877,15.007C106.12,15.003,97.361,15,88.602,14.999H75.637c-0.03,0.052-0.037,0.099-0.062,0.149h39.303  V15.007z"/>
<path fill="#F4E84E" d="M253.52,493.303"/>
<path fill="#F4E84E" d="M448.357,4.547V3.498h-0.513c-0.006-0.005-0.006-0.011-0.011-0.016c-63.986,0-127.981,0-192.012,0  c-60.11,0-120.264,0-180.466,0c-3.935,0-7.861,0-11.798,0c0,0.005,0,0.009,0,0.016c0,1.16,0,2.167,0,3.174  c0,88.912,0.02,177.827-0.02,266.742c0,0.692,0.014,1.38,0.02,2.067v11.829h0.363c0.55,10.073,1.741,20.082,3.816,30.03  c1.915,9.197,4.476,18.153,7.618,26.906c2.705,7.53,5.833,14.911,9.41,22.133c7.56,15.251,16.82,29.435,27.544,42.672  c11.723,14.467,24.84,27.537,39.225,39.319c10.431,8.545,21.41,16.347,32.875,23.473c22.052,13.698,45.39,24.661,69.829,33.341  c0.55,0.19,1.065,0.283,1.583,0.297c0.011,0,0.02,0,0.029,0c0.588,0.008,1.176-0.092,1.816-0.315  c13.33-4.656,26.282-10.189,38.995-16.326c14.524-7.012,28.479-15.017,41.791-24.09c19.129-13.034,36.646-27.963,52.172-45.208  c8.723-9.689,16.768-19.897,23.814-30.838c9.178-14.244,16.74-29.234,22.381-45.084c1.842-5.187,3.484-10.46,4.905-15.833  c4.071-15.397,6.562-31.042,6.58-46.953c0.109-91.614,0.056-183.225,0.048-274.84C448.354,5.525,448.421,5.028,448.357,4.547z   M436.821,16.187c0.039,0.383,0.021,0.761,0,1.131v60.703c0.012,35.891,0.005,71.773,0,107.664  c-0.007,30.602-0.004,61.204-0.05,91.803c-0.046,34.063-9.241,65.732-26.174,95.222c-14.105,24.554-32.381,45.583-53.841,63.952  c-20.81,17.808-43.766,32.25-68.427,44.062c-9.736,4.66-19.691,8.8-29.809,12.552c-2.145,0.61-4.018,0.306-5.092-0.007  c-24.796-9.164-48.355-20.802-70.354-35.511c-23.368-15.624-44.239-33.999-61.873-55.979c-18.34-22.863-31.94-48.177-39.661-76.512  c-3.693-13.56-5.651-27.356-6.186-41.346V15.147c0,0,131.701-0.117,177.79-0.101c0.892,0,2.676,0.101,2.676,0.101h180.999V16.187z"/>
</svg>