<svg xmlns="http://www.w3.org/2000/svg" xmlns:xlink="http://www.w3.org/1999/xlink" version="1.1" id="Laag_1" x="0px" y="0px" width="122px" height="153px" viewBox="0 0 122 153" enable-background="new 0 0 122 153" xml:space="preserve">
<g>
	<g>
		<path fill="#004D9D" d="M117.439,16.834l-1.72-1.119c-9.722-6.28-43.19-14.97-54.72-14.97c-11.443,0-44.997,8.604-54.719,14.97    l-1.462,0.946c-2.582,1.635-4.13,4.302-4.13,7.142v70.636c0,8.604,9.722,23.574,23.574,36.479    c12.303,11.357,29.425,21.337,36.652,21.337c7.227,0,24.348-9.979,36.652-21.337c14.797-13.68,23.574-27.359,23.574-36.479v-70.12    C121.226,21.91,120.279,18.641,117.439,16.834z"/>
		<path fill="#007EC3" d="M61,0.745c11.443,0,44.998,8.604,54.72,14.97l1.72,1.119c2.84,1.807,3.786,5.076,3.786,7.571v70.033    c0,9.12-8.862,22.8-23.574,36.479C85.349,142.275,68.227,152.255,61,152.255c-7.227,0-24.348-9.979-36.652-21.337    C10.41,118.013,0.774,103.042,0.774,94.438V23.717c0-2.754,1.549-5.421,4.13-7.142l1.462-0.946    C16.003,9.349,49.557,0.745,61,0.745 M61,0.057c-11.529,0-45.341,8.689-55.063,15.056l-1.462,0.861C1.721,17.78,0,20.705,0,23.717    v70.636c0,8.776,9.808,24.004,23.832,36.996C36.221,142.877,53.601,152.943,61,152.943c7.399,0,24.778-10.066,37.168-21.595    C113.139,117.496,122,103.645,122,94.353V24.318c0-2.667-1.119-6.194-4.129-8.173l-1.722-1.119    C106.342,8.746,72.615,0.057,61,0.057L61,0.057z"/>
	</g>
	<g>
		<path fill="#00468F" d="M117.439,16.834l-1.72-1.119c-9.722-6.28-43.19-14.97-54.72-14.97v151.424    c7.227,0,24.349-9.979,36.651-21.337c14.799-13.68,23.574-27.359,23.574-36.479V24.318    C121.226,21.91,120.279,18.641,117.439,16.834z"/>
	</g>
	<path fill="#007EC3" d="M30.027,121.54v3.27h3.011h6.108V39.72c-3.097,0.86-6.194,1.721-9.12,2.581V121.54z"/>
	<path fill="#007EC3" d="M47.836,134.359h9.12V35.848c-2.582,0.345-5.679,0.946-9.12,1.721V134.359z"/>
	<path fill="#007EC3" d="M66.076,134.359h9.12V37.826c-3.355-0.774-6.54-1.376-9.12-1.807V134.359z"/>
	<path fill="#007EC3" d="M84.402,40.149v43.707v7.829v33.124h4.646h4.473v-4.904V98.482V83.856v-41.04   C90.683,41.87,87.586,40.924,84.402,40.149z"/>
	<path opacity="0.15" fill="#1D1D1B" enable-background="new    " d="M118.301,28.019l-1.721-1.119   c-8.776-5.678-41.643-14.109-52.053-14.109s-43.276,8.432-52.052,14.109l-1.462,0.947C9.98,28.534,9.12,29.653,9.12,30.857v70.637   c0,6.022,7.744,19.616,22.026,32.951c7.227,6.711,15.228,12.132,21.767,15.659c3.269,1.376,6.108,2.15,8.087,2.15   c7.227,0,24.349-9.979,36.651-21.337c11.356-10.496,19.187-20.993,22.198-29.424V74.479H76.314l7.313,14.626h21.595v12.131   c-0.43,1.894-4.301,10.324-17.379,22.456c-9.723,9.033-19.531,14.109-23.402,15.744c-3.872-1.635-13.594-6.711-23.402-15.744   c-12.131-11.271-16.691-20.477-17.379-22.8V37.482c9.808-4.044,33.554-10.152,40.781-10.152c7.142,0,30.973,6.108,40.781,10.152   v17.981l14.627,4.302V31.374C119.85,30.256,119.42,28.793,118.301,28.019z"/>
	<path fill="#FFFFFF" d="M117.01,55.206V24.318c0-1.29-0.516-3.097-1.893-3.957l-1.721-1.119C104.535,13.479,71.496,4.961,61,4.961   c-10.497,0-43.535,8.518-52.396,14.281l-1.462,0.947c-1.033,0.688-2.151,1.979-2.151,3.527v70.636   c0,6.194,7.829,19.961,22.283,33.382c13.078,12.132,28.995,20.22,33.727,20.22c4.732,0,20.648-8.088,33.727-20.22   c13.508-12.561,22.197-25.639,22.197-33.382V66.734H68.656l7.916,15.831h24.521v11.443c-0.517,2.15-4.646,10.496-17.208,22.111   c-10.41,9.636-20.478,14.454-22.972,15.572c-2.495-1.118-12.562-5.937-22.972-15.572c-11.615-10.755-16.261-19.702-17.208-22.37   V30.771c9.722-3.872,32.952-9.98,40.093-9.98c7.141,0,30.457,6.022,40.094,9.98v19.702L117.01,55.206z"/>
	<g opacity="0.15">
		<path fill="#1D1D1B" d="M55.235,88.072h1.376v2.323h0.345l1.893-2.323h1.635v0.086l-2.323,2.839l2.495,3.184v0.086h-1.635    l-1.979-2.581h-0.258v2.581h-1.549V88.072z"/>
		<path fill="#1D1D1B" d="M61.344,88.072h2.236c1.378,0,2.324,0.43,2.324,2.064c0,0.946-0.517,1.463-0.946,1.807    c0.603,0.517,1.29,1.807,1.376,2.237v0.086h-1.548c-0.087-0.345-0.603-1.463-1.119-1.807h-0.86v1.807H61.43v-6.194H61.344z     M63.323,91.256c0.773,0,1.118-0.259,1.118-1.033c0-0.773-0.344-0.86-1.118-0.86h-0.603v1.894H63.323z"/>
		<path fill="#1D1D1B" d="M66.679,91.428v-0.603c0-1.807,1.29-2.84,3.097-2.84c0.604,0,1.291,0.087,1.721,0.259v1.807h-1.29v-0.774    c-0.087,0-0.431-0.086-0.603-0.086c-0.947,0-1.463,0.603-1.463,1.549v0.688c0,0.946,0.516,1.635,1.463,1.635h0.344    c0.432,0,1.119-0.173,1.377-0.259h0.087v1.205c-0.173,0.086-0.947,0.258-1.464,0.258h-0.344    C67.797,94.267,66.679,93.32,66.679,91.428z"/>
		<path fill="#1D1D1B" d="M39.491,103.559v-1.29c0-4.044,3.098-5.765,6.711-5.765c1.291,0,2.667,0.172,3.958,0.688v2.494h-0.086    c-1.291-0.43-2.839-0.688-3.958-0.688c-2.065,0-3.527,1.204-3.527,3.27v1.29c0,1.893,1.291,3.27,3.183,3.27h0.688    c0.258,0,0.946-0.086,1.204-0.173v-1.979h-1.807v-2.495h4.474v6.367c-0.688,0.258-2.237,0.688-3.786,0.688h-0.688    C41.986,109.323,39.491,107.259,39.491,103.559z"/>
		<path fill="#1D1D1B" d="M52.654,105.795V96.59h8.174v2.495H55.58v2.495h4.732v2.495H55.58v1.204c0,1.032,0.258,1.463,1.291,1.463    h4.216v2.495h-5.248C53.687,109.151,52.654,107.86,52.654,105.795z"/>
		<path fill="#1D1D1B" d="M63.408,96.59h2.668l4.732,7.485V96.59h2.925v12.647h-2.667l-4.732-7.485v7.485h-2.926V96.59z"/>
		<path fill="#1D1D1B" d="M76.314,96.59h2.926v4.818h0.688l3.786-4.818h3.269v0.172l-4.817,5.765l5.162,6.539v0.172h-3.441    l-4.13-5.335h-0.602v5.335h-2.926V96.59H76.314z"/>
	</g>
	<g>
		<path fill="#E9E9E9" d="M117.01,94.353V66.734H68.743l7.916,15.831h24.521v11.443c-0.517,2.15-4.646,10.496-17.207,22.111    C73.562,125.756,63.495,130.574,61,131.692v16.262c4.732,0,20.648-8.088,33.727-20.22    C108.234,115.174,117.01,102.096,117.01,94.353z"/>
		<path fill="#E9E9E9" d="M101.18,30.771v19.702l15.83,4.646V24.318c0-1.29-0.516-3.097-1.893-3.957l-1.721-1.119    C104.535,13.479,71.496,4.961,61,4.961v15.83C68.227,20.877,91.457,26.899,101.18,30.771z"/>
	</g>
	<g>
		<path fill="#FFFFFF" d="M53.084,85.577h1.377v2.322h0.344l1.893-2.322h1.635v0.086l-2.323,2.839l2.495,3.184v0.086H56.87    l-1.979-2.581h-0.258v2.581h-1.376v-6.194H53.084z"/>
		<path fill="#FFFFFF" d="M59.193,85.577h2.237c1.376,0,2.323,0.43,2.323,2.064c0,0.946-0.517,1.463-0.946,1.808    c0.602,0.516,1.291,1.807,1.377,2.236v0.086h-1.549c-0.086-0.344-0.603-1.463-1.119-1.807h-0.86v1.807h-1.376v-6.194H59.193z     M61.172,88.674c0.775,0,1.119-0.258,1.119-1.032s-0.344-0.86-1.119-0.86H60.57v1.893H61.172z"/>
		<path fill="#FFFFFF" d="M64.441,88.933V88.33c0-1.807,1.291-2.839,3.098-2.839c0.602,0,1.29,0.086,1.721,0.258v1.807h-1.291    v-0.774c-0.086,0-0.43-0.086-0.602-0.086c-0.947,0-1.463,0.603-1.463,1.549v0.688c0,0.946,0.516,1.635,1.463,1.635h0.344    c0.43,0,1.118-0.172,1.377-0.259h0.086v1.205c-0.173,0.086-0.947,0.258-1.463,0.258h-0.344    C65.561,91.771,64.441,90.739,64.441,88.933z"/>
		<path fill="#FFFFFF" d="M37.34,100.978v-1.291c0-4.043,3.097-5.765,6.711-5.765c1.291,0,2.667,0.173,3.958,0.688v2.495h-0.172    c-1.291-0.43-2.839-0.688-3.958-0.688c-2.065,0-3.528,1.204-3.528,3.269v1.291c0,1.893,1.291,3.27,3.184,3.27h0.688    c0.258,0,0.947-0.086,1.205-0.172v-1.979h-1.807v-2.495h4.474v6.367c-0.688,0.258-2.237,0.688-3.786,0.688h-0.688    C39.749,106.742,37.34,104.763,37.34,100.978z"/>
		<path fill="#FFFFFF" d="M50.417,103.215v-9.206h8.173v2.495h-5.248v2.495h4.732v2.495h-4.732v1.204    c0,1.032,0.258,1.463,1.291,1.463h4.216v2.494h-5.249C51.536,106.655,50.417,105.365,50.417,103.215z"/>
		<path fill="#FFFFFF" d="M61.258,94.009h2.667l4.73,7.485v-7.485h2.927v12.646h-2.667l-4.732-7.484v7.484h-2.925V94.009z"/>
		<path fill="#FFFFFF" d="M74.078,94.009h2.926v4.817h0.688l3.785-4.817h3.27v0.172l-4.818,5.765l5.162,6.538v0.172h-3.441    l-4.129-5.333h-0.603v5.333h-2.925V94.009H74.078z"/>
	</g>
	<g>
		<path fill="#E9E9E9" d="M62.549,91.686h1.549V91.6c-0.086-0.431-0.774-1.721-1.377-2.237c0.516-0.344,0.946-0.774,0.946-1.807    c0-1.635-0.86-2.064-2.323-2.064H61v1.204h0.086c0.774,0,1.118,0.086,1.118,0.86s-0.344,1.032-1.118,1.032H61v1.204h0.43    C61.947,90.137,62.463,91.342,62.549,91.686z"/>
		<path fill="#E9E9E9" d="M67.453,91.771h0.344c0.516,0,1.291-0.172,1.463-0.258v-1.205h-0.086    c-0.258,0.087-0.947,0.259-1.377,0.259h-0.344c-0.947,0-1.463-0.688-1.463-1.635v-0.688c0-0.946,0.516-1.549,1.463-1.549    c0.086,0,0.516,0,0.602,0.086v0.774h1.291v-1.807c-0.43-0.172-1.119-0.258-1.721-0.258c-1.807,0-3.098,1.032-3.098,2.839v0.603    C64.441,90.739,65.561,91.771,67.453,91.771z"/>
		<polygon fill="#E9E9E9" points="68.571,101.494 63.84,94.009 61.258,94.009 61.258,106.655 64.098,106.655 64.098,99.171     68.829,106.655 71.496,106.655 71.496,94.009 68.571,94.009   "/>
		<polygon fill="#E9E9E9" points="84.832,94.181 84.832,94.009 81.563,94.009 77.691,98.826 77.004,98.826 77.004,94.009     74.078,94.009 74.078,106.655 77.004,106.655 77.004,101.322 77.605,101.322 81.735,106.655 85.177,106.655 85.177,106.483     80.014,99.945   "/>
	</g>
</g>
</svg>