<svg xmlns="http://www.w3.org/2000/svg" height="252.12" width="185.02" viewBox="0 0 185.01779 252.1193"><g transform="matrix(2.5 0 0 2.5 .91018 1.0898)"><path d="m36.601 100.05-3.36-3.011c-3.371-3.018-7.319-3.646-11.891-4.374-0.676-0.105-1.385-0.219-2.122-0.344-8.57-1.446-11.464-2.96-14.708-5.806-3.0331-2.662-4.5116-7.638-4.52-15.212l0.0098552-71.303h73.175l0.02267 71.306c-0.02858 5.2361-0.5714 11.697-4.5543 15.218-2.8901 2.5547-5.3202 4.2198-14.679 5.7986-0.61004 0.10401-1.2106 0.20002-1.8013 0.29504l-0.3059 0.04888c-4.5793 0.7265-8.5328 1.3533-11.904 4.3723z" fill="#c6a566"/><path d="m33.575 96.667 3.0263 2.7094 3.0267-2.7102c3.4814-3.1176 7.502-3.7554 12.158-4.4936l0.28107-0.04557c0.61595-0.09831 1.2142-0.19395 1.8232-0.29844 9.2278-1.5561 11.608-3.184 14.432-5.6803 3.8772-3.4275 4.3591-10.113 4.3846-14.844l-0.02247-70.803h-72.173l-0.009855 70.802c0.008391 7.4217 1.4311 12.274 4.3501 14.836 2.769 2.4298 5.2715 4.1388 14.46 5.6888 0.73551 0.1255 1.4419 0.23867 2.1127 0.34355 4.6544 0.73991 8.6704 1.3787 12.151 4.4961" fill="#17191d"/><path d="m34.685 95.426c-3.846-3.444-8.292-4.151-12.999-4.899-0.668-0.104-1.368-0.217-2.095-0.341-15.712-2.65-17.413-7.738-17.426-18.886l0.00986-69.135h68.844l0.02188 69.141c-0.02227 4.2275-0.33547 10.512-3.8224 13.595-2.7183 2.4033-5.0098 3.8358-13.605 5.2857-0.61575 0.10525-1.2175 0.20164-1.8088 0.29603l-0.28146 0.04535c-4.712 0.74722-9.1582 1.4523-13.005 4.8977l-1.9162 1.7158-1.9162-1.7158" fill="#c6a566"/><path d="m68.148 5.0378h-63.101l-0.00946 66.26c0.010545 9.1094-0.00331 13.52 15.035 16.057 0.71411 0.12157 1.4012 0.23138 2.0633 0.33508 4.9164 0.78134 9.991 1.5896 14.465 5.5961 4.476-4.0085 9.554-4.8148 14.467-5.594 0.67232-0.10764 1.3561-0.21567 2.0664-0.33724 15.04-2.5372 14.986-6.9481 15.034-16.048l-0.02-66.269" fill="#17191d"/><path d="m30.434 13.43c-0.0157 0-0.03057 0.01072-0.04102 0.03516l-2.3086 4.8262h1.2422l0.17383-0.4043h1.7852l0.18164 0.4043h1.3105l-2.3008-4.8262c-0.01034-0.02444-0.02727-0.03516-0.04297-0.03516zm2.8027 0.01172c-0.01481 0.0061-0.02148 0.02413-0.02148 0.04492v4.8047h1.1934v-2.3652l2.9766 2.4473c0.07668 0.06287 0.09766 0.04211 0.09766-0.01367v-4.8105h-1.1934v2.377l-2.9766-2.4531c-0.03834-0.03134-0.06136-0.03734-0.07617-0.03125zm-12.598 0.05274c-1.3663 0-2.5449 0.99658-2.5449 2.4258s1.1786 2.4336 2.5449 2.4336c1.3665 0 2.5449-1.0044 2.5449-2.4336s-1.1784-2.4258-2.5449-2.4258zm4.5605 0c-0.8436 0-1.6172 0.47999-1.6172 1.4141 0 0.78092 0.48748 1.1997 1.1777 1.4297l0.55664 0.1875c0.31379 0.10466 0.4668 0.20207 0.4668 0.4043 0 0.2651-0.22275 0.37695-0.59961 0.37695-0.47384 0-0.75826-0.22982-0.98828-0.51562l-0.92187 0.68945c0.2927 0.39027 0.90046 0.87891 1.9668 0.87891 1.255 0 1.7988-0.62665 1.7988-1.498 0.000001-0.66897-0.32146-1.1235-1.2695-1.4375l-0.62695-0.20898c-0.23002-0.07667-0.33398-0.16672-0.33398-0.34766 0-0.18843 0.15209-0.32813 0.45898-0.32813 0.37647 0 0.58631 0.13957 0.78125 0.3418l0.72461-0.75976c-0.2789-0.32739-0.73771-0.62695-1.5742-0.62695zm15.398 0c-1.3665 0-2.5234 0.99658-2.5234 2.4258s1.1586 2.4336 2.5527 2.4336c1.0529 0 1.6234-0.29358 2.0625-0.65625v-1.9805h-2.0703v0.97656h0.94141v0.4043c-0.20223 0.09757-0.45968 0.1875-0.91992 0.1875-0.83671 0-1.2695-0.61959-1.2695-1.3652 0-0.74584 0.42519-1.3242 1.1992-1.3242 0.47423 0 0.80761 0.20092 1.0449 0.50781l0.88672-0.76562c-0.41155-0.52982-1.068-0.84375-1.9043-0.84375zm16.209 0c-0.8436 0-1.6172 0.47999-1.6172 1.4141 0 0.78092 0.48748 1.1997 1.1777 1.4297l0.55664 0.1875c0.31399 0.10466 0.46875 0.20207 0.46875 0.4043 0 0.2651-0.22334 0.37695-0.59961 0.37695-0.47423 0-0.76022-0.22982-0.99024-0.51562l-0.91992 0.68945c0.2927 0.39027 0.89851 0.87891 1.9648 0.87891 1.2552 0 1.7988-0.62665 1.7988-1.498 0-0.66897-0.31971-1.1235-1.2676-1.4375l-0.63-0.209c-0.23002-0.07667-0.33398-0.16672-0.33398-0.34766 0-0.18843 0.15424-0.32813 0.46094-0.32813 0.37627 0.000001 0.58436 0.13957 0.7793 0.3418l0.72656-0.75976c-0.2789-0.32739-0.73986-0.62695-1.5762-0.62695zm-42.246 0.05469v4.7422h3.2832v-1.0684h-2.0137v-3.6738h-1.2695zm28.764 0v4.7422h3.4219v-1.0684h-2.1543v-0.49414h1.7148v-1.0117h-1.7148v-1.1016h2.0566v-1.0664h-3.3242zm4.0352 0v4.7422h3.2852v-1.0684h-2.0156v-3.6738h-1.2695zm3.8691 0v4.7422h3.4238v-1.0684h-2.1543v-0.49414h1.7148v-1.0117h-1.7148v-1.1016h2.0566v-1.0664h-3.3262zm-30.59 1.0469c0.79492 0 1.248 0.57798 1.248 1.3242 0 0.74584-0.45313 1.332-1.248 1.332-0.79472 0-1.248-0.58619-1.248-1.332 0-0.74624 0.45332-1.3242 1.248-1.3242zm9.7402 1.2402 0.48633 1.1016h-0.96094l0.47461-1.1016zm-3.791 7.9082v6.6094c5.8607 5.2353 15.6 14.674 21.578 20.035v0.35156l-19.611-17.289v4.2012h0.002c5.9663 4.5184 13.561 10.617 19.609 15.197v0.33594l-17.605-13.172v3.9434c5.8558 3.5222 11.957 7.6137 17.605 10.988v0.38086l-15.607-9.3438v3.1738c6.89 3.4747 12.638 6.6177 19.447 10.039v1.9707 6.3672h6.6855v-43.545c-7.4462 0.76595-13.087 4.4908-16.908 9.6133-0.61556 0.78881-1.1831 1.6218-1.707 2.4902l4.8262 5.3496c1.6011-3.2067 3.9704-5.7323 7.1035-7.5527v15.428 2.5996l-25.418-28.172zm-12.072 0.02539v43.742h21.207c-0.91-2.196-1.581-5.399-1.862-6.879h-12.66v-31.943l-6.6855-4.9199zm21.229 29.545c-0.0022 2.7985 0.25702 5.3257 0.55859 7.3105 0.27989 1.4789 0.95032 4.6884 1.8613 6.8867h6.7051s-1.7953-4.9924-2.3359-10.947c-0.09106-0.04317-0.18277-0.08614-0.27344-0.12891-2.0702-0.97862-4.1945-1.9836-6.5156-3.1211zm-0.67969 20.465c-0.01286 0-0.02658 0.01095-0.03516 0.03125l-1.9023 3.9766h1.0234l0.14258-0.33398h1.4727l0.14844 0.33398h1.0801l-1.8965-3.9766c-0.0086-0.0203-0.02034-0.03125-0.0332-0.03125zm-15.488 0.05469c-1.1266 0-2.0977 0.82191-2.0977 2s0.97109 2.0059 2.0977 2.0059c1.1261 0 2.0977-0.82777 2.0977-2.0059s-0.97152-2-2.0977-2zm4.4941 0c-1.1262 0-2.0977 0.82191-2.0977 2s0.97141 2.0059 2.0977 2.0059c1.1264 0 2.0977-0.82777 2.0977-2.0059s-0.97121-2-2.0977-2zm22.154 0c-1.0458 0-1.9785 0.82191-1.9785 2s0.93748 2.0039 2.0352 2.0039c0.79295 0 1.3336-0.28023 1.7188-0.92969l-0.80469-0.51758c-0.16695 0.31024-0.41435 0.54102-0.91992 0.54102-0.59762 0-0.95898-0.4825-0.95898-1.0977 0-0.61477 0.34888-1.0918 0.92383-1.0918 0.49394-0.000001 0.73731 0.23522 0.88672 0.46484l0.78711-0.53516c-0.32778-0.48251-0.84506-0.83789-1.6895-0.83789zm-31.672 0.04492v3.9082h1.0469v-1.2422h1.418v-0.87891h-1.418v-0.9082h1.6094v-0.87891h-2.6562zm11.695 0v0.87891h1.0352v3.0293h1.0449v-3.0293h1.0352v-0.87891h-3.1152zm3.5859 0v3.9082h1.666c0.97113 0 1.5527-0.42466 1.5527-1.1719 0-0.59762-0.36196-0.90261-0.78711-1.0234 0.25288-0.12043 0.44727-0.32083 0.44727-0.75781 0-0.59762-0.50506-0.95508-1.2812-0.95508h-1.5977zm7.5234 0v3.9082h2.7051v-0.87891h-1.6602v-3.0293h-1.0449zm3.1875 0v3.9082h2.707v-0.87891h-1.6602v-3.0293h-1.0469zm7.8574 0v3.9082h2.707v-0.87891h-1.6621v-3.0293h-1.0449zm3.0059 0v2.3965c0 1.0517 0.71847 1.5703 1.6953 1.5703 0.97685 0 1.6953-0.51857 1.6953-1.5703v-2.3965h-1.0469v2.3848c0 0.4425-0.20594 0.69531-0.64844 0.69531s-0.65039-0.25281-0.65039-0.69531v-2.3848h-1.0449zm4.0273 0v3.9082h1.666c0.97152 0 1.5527-0.42466 1.5527-1.1719 0-0.59762-0.36176-0.90261-0.78711-1.0234 0.25288-0.12043 0.44726-0.32083 0.44726-0.75781 0-0.59762-0.50506-0.95508-1.2812-0.95508h-1.5977zm-24.59 0.82812h0.51758c0.23002 0 0.32031 0.13231 0.32031 0.31641 0 0.1835-0.10201 0.29883-0.33203 0.29883h-0.50586v-0.61524zm25.602 0h0.51758c0.23002 0 0.32226 0.13231 0.32226 0.31641 0 0.1835-0.10396 0.29883-0.33398 0.29883h-0.50586v-0.61524zm-36.871 0.03516c0.65486 0 1.0293 0.47664 1.0293 1.0918 0 0.61477-0.37444 1.0977-1.0293 1.0977-0.65529 0-1.0293-0.48289-1.0293-1.0977 0-0.61516 0.37401-1.0918 1.0293-1.0918zm4.4941 0c0.65517 0 1.0273 0.47664 1.0273 1.0918 0 0.61477-0.37217 1.0977-1.0273 1.0977-0.65537 0-1.0293-0.48289-1.0293-1.0977 0-0.61516 0.37393-1.0918 1.0293-1.0918zm10.947 1.0215 0.40234 0.9082h-0.79297l0.39062-0.9082zm-4.1719 0.31641h0.63086c0.39677 0 0.5293 0.16766 0.5293 0.4375 0 0.27043-0.12701 0.44141-0.5293 0.44141h-0.63086v-0.87891zm25.602 0h0.63281c0.39677 0 0.52734 0.16766 0.52734 0.4375 0 0.27043-0.12506 0.44141-0.52734 0.44141h-0.63281v-0.87891z" fill="#c6a566"/></g></svg>