<svg xmlns:dc="http://purl.org/dc/elements/1.1/" xmlns:cc="http://creativecommons.org/ns#" xmlns:rdf="http://www.w3.org/1999/02/22-rdf-syntax-ns#" xmlns:svg="http://www.w3.org/2000/svg" xmlns="http://www.w3.org/2000/svg" xmlns:sodipodi="http://sodipodi.sourceforge.net/DTD/sodipodi-0.dtd" xmlns:inkscape="http://www.inkscape.org/namespaces/inkscape" width="58.956085mm" height="79.375183mm" viewBox="0 0 58.956085 79.375183" version="1.1" id="svg178593" inkscape:version="0.92.4 (5da689c313, 2019-01-14)" sodipodi:docname="FC Lausanne-Sport logo.svg">
  <defs id="defs178587"/>
  <sodipodi:namedview id="base" pagecolor="#ffffff" bordercolor="#666666" borderopacity="1.0" inkscape:pageopacity="0.0" inkscape:pageshadow="2" inkscape:zoom="0.35" inkscape:cx="78.555975" inkscape:cy="175.71412" inkscape:document-units="mm" inkscape:current-layer="layer1" showgrid="false" inkscape:window-width="1366" inkscape:window-height="705" inkscape:window-x="-8" inkscape:window-y="-8" inkscape:window-maximized="1"/>
  <metadata id="metadata178590">
    <rdf:RDF>
      <cc:Work rdf:about="">
        <dc:format>image/svg+xml</dc:format>
        <dc:type rdf:resource="http://purl.org/dc/dcmitype/StillImage"/>
        <dc:title/>
      </cc:Work>
    </rdf:RDF>
  </metadata>
  <g inkscape:label="Layer 1" inkscape:groupmode="layer" id="layer1" transform="translate(-71.819565,-115.94918)">
    <path inkscape:connector-curvature="0" id="path168339" d="m 71.819565,115.94918 v 55.54737 h 35.769275 l 0.20129,-0.2007 4.5023,-4.51036 0.4825,-0.47433 -0.4825,-0.47433 -4.5023,-4.5103 -0.20129,-0.19311 H 82.190973 v -45.18394 z m 0,0" style="fill:#282b63;fill-opacity:1;fill-rule:nonzero;stroke:none;stroke-width:2.05820179"/>
    <path inkscape:connector-curvature="0" id="path168341" d="m 101.91274,116.55216 -3.794848,3.77874 v 0.006 l -13.523006,13.52309 -0.482378,0.47433 0.482378,0.47432 13.523006,13.51504 v 0.006 l 18.001238,17.97709 -14.35913,14.35115 -3.642108,-3.626 v -0.006 l -3.022971,-3.01491 -0.193114,-0.20129 H 80.253189 l 1.149702,1.1497 16.714826,16.73095 3.167723,3.15967 0.47432,0.47432 0.4825,-0.47432 28.05906,-28.05906 0.47433,-0.4825 -0.47433,-0.47433 -31.516221,-31.50011 3.601851,-3.60185 10.5885,10.57234 0.47433,0.47433 0.46616,-0.47433 6.39168,-6.36752 0.47432,-0.4825 -0.47432,-0.47432 -17.44646,-17.43036 -0.47433,-0.47433 z m 0,0" style="fill:#282b63;fill-opacity:1;fill-rule:nonzero;stroke:none;stroke-width:2.05820179"/>
  </g>
</svg>