<svg xmlns:dc="http://purl.org/dc/elements/1.1/" xmlns:cc="http://creativecommons.org/ns#" xmlns:rdf="http://www.w3.org/1999/02/22-rdf-syntax-ns#" xmlns:svg="http://www.w3.org/2000/svg" xmlns="http://www.w3.org/2000/svg" xmlns:sodipodi="http://sodipodi.sourceforge.net/DTD/sodipodi-0.dtd" xmlns:inkscape="http://www.inkscape.org/namespaces/inkscape" width="74.551849mm" height="93.927078mm" viewBox="0 0 74.551849 93.927078" version="1.1" id="svg43656" inkscape:version="1.0.1 (3bc2e813f5, 2020-09-07)" sodipodi:docname="Legia Warsaw logo.svg">
  <defs id="defs43650"/>
  <sodipodi:namedview id="base" pagecolor="#ffffff" bordercolor="#666666" borderopacity="1.0" inkscape:pageopacity="0.0" inkscape:pageshadow="2" inkscape:zoom="0.35" inkscape:cx="-96.918024" inkscape:cy="71.93789" inkscape:document-units="mm" inkscape:current-layer="layer1" inkscape:document-rotation="0" showgrid="false" inkscape:pagecheckerboard="true" inkscape:window-width="1267" inkscape:window-height="728" inkscape:window-x="52" inkscape:window-y="0" inkscape:window-maximized="0"/>
  <metadata id="metadata43653">
    <rdf:RDF>
      <cc:Work rdf:about="">
        <dc:format>image/svg+xml</dc:format>
        <dc:type rdf:resource="http://purl.org/dc/dcmitype/StillImage"/>
        <dc:title/>
      </cc:Work>
    </rdf:RDF>
  </metadata>
  <g inkscape:label="Layer 1" inkscape:groupmode="layer" id="layer1" transform="translate(-131.47623,-129.1331)">
    <path style="clip-rule:nonzero;fill:#000000;fill-opacity:1;fill-rule:evenodd;stroke:none;stroke-width:2.15324" d="m 168.74761,223.06018 c -3.93639,-5.6439 -8.79799,-9.01674 -13.7606,-11.86808 -6.81306,-3.90277 -13.82792,-6.82986 -19.00068,-13.28122 -5.00454,-6.22424 -5.91301,-14.11388 -2.38038,-24.54363 2.30457,-6.77937 4.81118,-12.07836 5.11392,-17.55404 0.26918,-4.82796 -0.93362,-9.68962 -4.98775,-15.93907 l 8.83174,-10.74104 h 52.37605 l 8.83156,10.74104 c -4.05413,6.24945 -5.25693,11.11111 -4.98782,15.93907 0.30275,5.47568 2.80935,10.77467 5.11398,17.55404 3.53282,10.42975 2.62441,18.31939 -2.37177,24.54363 -5.18137,6.45136 -12.19622,9.37845 -19.00935,13.28122 -4.96236,2.85134 -9.8242,6.22418 -13.7689,11.86808" id="path23922"/>
    <path style="fill:#ffffff;fill-opacity:1;fill-rule:evenodd;stroke:none;stroke-width:2.15324" d="m 182.11281,208.92103 c 0,0 -0.0244,0.006 -0.0244,0.006 0,0 0,-0.006 0.0244,-0.006 m 0.0244,-0.0183 c 0,0.006 0,0.006 0,0.006 0,0 0,0 0,-0.006 m 0.0751,-0.0427 c 0,0.006 0,0.006 -0.0244,0.006 0,0 0,0.006 0,0.006 -0.0244,0.006 -0.0366,0.0183 -0.0488,0.0244 0.0244,-0.006 0.0366,-0.0183 0.0488,-0.0244 0,0 0,-0.006 0,-0.006 0,0 0,0 0.0244,-0.006 m 0.0244,-0.006 c 0,0 0,0 0,0 0,0 0,0 0,0 m 0.061,-0.0366 c 0,0 -0.0244,0.006 -0.0366,0.0183 0,-0.006 0.0244,-0.0183 0.0366,-0.0183 m 0.0244,-0.0183 c 0,0.006 -0.0244,0.006 -0.0244,0.006 0,0 0,0 0.0244,-0.006 m 0.0244,-0.006 v 0 m 0.0928,-0.0488 c 0,0 -0.0244,0.006 -0.0244,0.006 0,0 0,-0.006 0.0244,-0.006 m 0.0244,-0.006 c 0,0 0,0 0,0.006 0,-0.006 0,-0.006 0,-0.006 m 0.10986,-0.0671 c -0.0366,0.0183 -0.061,0.0427 -0.0928,0.061 0.0366,-0.0183 0.061,-0.0427 0.0928,-0.061 m 0.0366,-0.0183 c 0,0 0,0 0,0.006 0,0 0,0.006 -0.0244,0.006 0,0 0,-0.006 0.0244,-0.006 0,-0.006 0,-0.006 0,-0.006 m 0.20265,-0.10925 c 0,0 0,0.006 -0.0244,0.006 0,0 0,-0.006 0.0244,-0.006 m 0.0488,-0.0366 c 0,0.006 0,0.006 -0.0244,0.0183 0,0 0,0.006 -0.0244,0.006 0,-0.006 0,-0.006 0.0244,-0.006 0,-0.006 0.0244,-0.006 0.0244,-0.0183 m 0.0244,-0.006 c 0,0 0,0 0,0.006 0,-0.006 0,-0.006 0,-0.006 m 0.0244,-0.0183 c 0,0 0,0.006 0,0.006 0,0 0,-0.006 0,-0.006 m -43.98177,-71.13326 4.96261,-5.95513 h 49.75189 l 7.3176,8.78126 c -3.6588,5.77001 -4.727,11.24563 -4.49146,15.71195 0.27772,5.05508 2.41401,10.21112 4.57563,16.43536 1.52239,4.36536 2.53182,8.46155 2.59902,12.17089 0.0751,4.4831 -1.14384,8.41114 -3.61687,11.61576 -4.54182,5.89617 -11.16134,9.08401 -17.09138,12.36438 z m 0,0" id="path23926"/>
    <path style="fill:#008538;fill-opacity:1;fill-rule:evenodd;stroke:none;stroke-width:2.15324" d="m 168.74761,219.89761 c -3.55784,-5.22335 -8.78956,-8.41113 -13.32327,-10.95973 -6.13995,-3.44859 -13.18019,-6.65321 -17.93247,-12.82698 -2.47279,-3.20462 -3.69255,-7.13259 -3.61681,-11.61576 0.0665,-3.70927 1.07663,-7.80552 2.59902,-12.17089 2.16162,-6.22424 4.2981,-11.38028 4.57563,-16.43536 0.23561,-4.46632 -0.83266,-9.94194 -4.49146,-15.71195 l 2.35499,-2.82613 44.00703,71.12447 c -0.28626,0.15137 -0.56337,0.31129 -0.84109,0.46266 -4.5334,2.5486 -9.76518,5.73638 -13.33157,10.95967" id="path23928"/>
    <path style="fill:#d1070f;fill-opacity:1;fill-rule:evenodd;stroke:none;stroke-width:2.15324" d="m 143.88427,131.39568 h 8.66359 l 42.86295,69.39181 c -1.92608,1.5645 -3.99511,2.90182 -6.09796,4.13831 z m 0,0" id="path23930"/>
    <path style="fill:#ffffff;fill-opacity:1;fill-rule:nonzero;stroke:none;stroke-width:2.15324" d="m 183.26519,157.14216 c 6.76253,0 12.24664,-5.44199 12.24664,-12.1541 0,-6.71205 -5.48411,-12.15405 -12.24664,-12.15405 -6.76247,0 -12.24658,5.442 -12.24658,12.15405 0,6.71211 5.48411,12.1541 12.24658,12.1541" id="path23932"/>
    <path style="fill:#000000;fill-opacity:1;fill-rule:nonzero;stroke:none;stroke-width:2.15324" d="m 183.26519,133.34709 c -6.47651,0 -11.73344,5.21494 -11.73344,11.64097 0,6.42615 5.25693,11.64103 11.73344,11.64103 6.47657,0 11.72514,-5.21488 11.72514,-11.64103 0,-6.42603 -5.24857,-11.64097 -11.72514,-11.64097 m -9.95873,11.64097 c 0,-5.45878 4.45784,-9.87462 9.95873,-9.87462 5.49253,0 9.95043,4.41584 9.95043,9.87462 0,5.45042 -4.4579,9.87468 -9.95043,9.87468 -5.50089,0 -9.95873,-4.42426 -9.95873,-9.87468" id="path23934"/>
    <path style="fill:#000000;fill-opacity:1;fill-rule:nonzero;stroke:none;stroke-width:2.15324" d="m 181.31396,137.55266 h -2.82613 v 14.63538 h 9.54642 v -2.75887 h -6.72029 z m 0,0" id="path23936"/>
  </g>
</svg>