<svg xmlns="http://www.w3.org/2000/svg" xmlns:xlink="http://www.w3.org/1999/xlink" version="1.1" id="logo-tsvbayer04" x="0px" y="0px" viewBox="0 0 228.7 112.4" enable-background="new 0 0 228.7 112.4" xml:space="preserve">
<title>logo-tsvbayer04</title>
<path id="rechter-kasten" fill="#FFFFFF" stroke="#1A1A18" stroke-width="0.94" stroke-miterlimit="3.86" d="M131.9,0.5h81.2  c8.4,0,15.1,6.8,15.1,15.1l0,0v81.2c0,8.4-6.8,15.1-15.1,15.1h-81.2c-8.3,0-15.1-6.8-15.1-15.1V15.6C116.9,7.3,123.6,0.5,131.9,0.5  C132,0.5,132,0.5,131.9,0.5L131.9,0.5z"/>
<g id="bayer">
	<path fill="#1A1A18" d="M187.9,36.2h-6L178,49.8h-0.1l-4-13.6h-6.6l5.9,14.5c0.4,1.1,1.6,4.2,1.6,5.2c0,1.3-1,2.3-2.3,2.2   c-0.1,0-0.2,0-0.2,0h-2.2v4.3h3c3.8,0,5.5-0.1,7.1-4.5L187.9,36.2z"/>
	<path fill="#1A1A18" d="M208.1,56.1h6v-9.9c0-2.5,1.7-5.2,4.4-5.4c0.8-0.1,1.5-0.1,2.3,0.1v-5.5c-0.6,0-1.1,0-1.7,0.1   c-2.5-0.1-4.7,1.7-5.1,4.1h-0.1v-3.4h-5.8L208.1,56.1L208.1,56.1z"/>
	<path fill="#1A1A18" d="M154.6,50.2c0-1.6,1.2-2.2,2.6-2.5s3.8-0.5,4.7-1.1c0,0.9,0,2.3,0,3.2c-0.9,1.6-2.5,2.6-4.3,2.5   C156.2,52.4,154.6,51.8,154.6,50.2L154.6,50.2z M155.2,42.3c0-1.8,1.6-2.5,3.4-2.5c1.3,0,3.3,0.3,3.3,1.8c0,1.2-0.5,1.4-1.5,1.6   c-4.4,0.9-11.4,0.8-11.4,7.3c0,4.1,3.6,6.2,7.3,6.2c2.3,0,4.2-0.3,5.8-2c0,0.5,0.1,1,0.3,1.5h5.9c-0.8-1.6-0.6-3.4-0.6-5.1v-8.5   c0-5.6-4.3-7-8.9-7c-2.1-0.1-4.2,0.4-6,1.3c-1.9,1.2-3,3.3-2.9,5.5L155.2,42.3z"/>
	<path fill="#1A1A18" d="M131.7,44.1h6.5c2.1,0,3.4,1.4,3.4,3.8c0,2.3-1.8,3.3-4,3.3h-5.9L131.7,44.1L131.7,44.1z M125.7,56.1h12.8   c5.9,0,9.6-3.4,9.6-8.2c-0.1-2.9-1.9-5.5-4.6-6.5c2.3-1,3.7-3.3,3.7-5.8c0-5.5-5.1-7-9.7-6.9h-11.9L125.7,56.1L125.7,56.1z    M131.7,33.7h6.3c1.6-0.1,2.9,1,3.1,2.6c0,0.1,0,0.2,0,0.3c-0.1,1.6-1.4,2.9-3.1,2.9h-6.3V33.7z"/>
	<path fill="#1A1A18" d="M192.6,43.5c0.2-2.2,2.1-3.9,4.3-3.9c2.2,0,3.9,1.7,4,3.9H192.6z M206.9,47.7c0.3-6.8-3-12.4-9.9-12.4   c-5.7,0-10.4,4.1-10.4,10.7s4.3,10.6,10.6,10.6c4.3,0,8.3-2.4,9.5-6.4h-5.8c-0.6,1.5-2.3,1.9-3.8,1.9c-2.7,0-4.3-1.8-4.4-4.5   L206.9,47.7z"/>
</g>
<path id="Leverkusen" fill="#1A1A18" d="M163.4,99h-9.6v0c-0.2,2.5,1.7,4.8,4.3,5c0.2,0,0.5,0,0.7,0c2,0,4-0.9,4.5-3.1h-2.8  c-0.3,0.6-1,1-1.7,1c-1.1,0-2-0.9-2-2c0,0,0-0.1,0-0.1h6.7C163.4,99.6,163.4,99.3,163.4,99z M128.1,90.9h-3.2v12.8h9v-2.9H128  L128.1,90.9z M144.2,99h-9.6v0c-0.2,2.5,1.7,4.8,4.3,5c0.2,0,0.5,0,0.7,0c2,0,4-0.9,4.5-3.1h-2.8c-0.3,0.6-1,1-1.7,1  c-1.1,0-2-0.9-2-2c0,0,0-0.1,0-0.1h6.7C144.2,99.6,144.2,99.3,144.2,99L144.2,99z M199.6,99c-0.4-0.4-1-0.7-1.6-0.8  c-1.4-0.3-3.4-0.5-3.4-1.4c0-0.6,0.8-0.7,1.3-0.7c0.3,0,0.7,0.1,0.9,0.2c0.3,0.2,0.4,0.5,0.4,0.8h2.8c-0.1-2.4-2.2-3-4.2-3  c-1.8,0-4.1,0.6-4.1,2.9c-0.1,0.8,0.3,1.5,0.9,2c1,0.5,2.1,0.9,3.3,1c0.5,0.1,1.5,0.3,1.5,1s-0.8,1-1.4,1c-0.4,0-0.8-0.1-1.1-0.3  c-0.3-0.2-0.5-0.6-0.5-1h-2.8c0.1,2.6,2.3,3.3,4.4,3.3s4.4-0.8,4.4-3.3C200.3,100.1,200.1,99.5,199.6,99L199.6,99z M217.7,99.3v4.5  h3V99h-3V99.3z M210.6,99h-9.6v0c-0.2,2.5,1.7,4.8,4.3,5c0.2,0,0.5,0,0.7,0c2,0,4-0.9,4.5-3.1h-2.8c-0.3,0.6-1,1-1.7,1  c-1.1,0-2-0.9-2-2c0,0,0-0.1,0-0.1h6.7C210.6,99.5,210.6,99.3,210.6,99z M205.9,94.2c-2.7,0-4.9,2.1-4.9,4.7c0,0,0,0.1,0,0.1h9.6  C210.4,96.3,208.8,94.2,205.9,94.2z M203.9,98.2c0-1.1,0.8-2,1.9-2c1,0,1.8,0.9,1.8,1.9L203.9,98.2z M139.5,94.2  c-2.7,0-4.9,2.1-4.9,4.7c0,0,0,0.1,0,0.1h9.6C144,96.3,142.4,94.2,139.5,94.2L139.5,94.2z M137.5,98.2c0.1-1,0.9-1.9,1.9-1.9  c1,0.1,1.8,0.9,1.8,1.9H137.5z M158.7,94.2c-2.7,0-4.9,2.1-4.9,4.7c0,0,0,0.1,0,0.1h9.6C163.2,96.3,161.6,94.2,158.7,94.2  L158.7,94.2z M156.8,98.2c0.1-1,0.9-1.9,1.9-1.9c1,0.1,1.8,0.9,1.8,1.9H156.8z M217.4,94.2c-1.1,0-2.2,0.6-2.9,1.5l0,0v-1.3h-2.9  v9.3h3v-5.1c0-1,0.5-2,1.6-2c1.5,0,1.5,1.1,1.5,2.3h3v-1.3C220.7,96.4,220.4,94.2,217.4,94.2L217.4,94.2z M187.6,99.5  c0,1.6-1,2.1-1.6,2.1c-0.9,0-1.5-0.4-1.5-1.7v-5.4h-3v5.6c0,2.4,0.8,4,3.4,4c1.1,0,2.2-0.6,2.8-1.5l0,0v1.3h2.9v-9.3h-3L187.6,99.5z   M167.6,96.1L167.6,96.1v-1.6h-2.9v9.3h3v-4.6c0,0,0-0.1,0-0.1l0,0c0-1.2,1-2.1,2.1-2.1c0,0,0.1,0,0.1,0c0.4,0,0.8,0.1,1.1,0.2v-2.8  c-0.2-0.1-0.5-0.1-0.7-0.1C169.1,94.2,167.9,94.9,167.6,96.1L167.6,96.1z M177.4,98l3.3-3.5h-3.5l-2.7,3.1V91h-3v12.8h3v-3l0.8-0.8  l2.2,3.8h3.6L178,99L177.4,98z M149.5,99.1l-0.4,1.6l0,0l-0.4-1.6l-1.2-4.6h-3.1l1.5,4.6l1.5,4.7h3.4l1.5-4.7l1.5-4.6h-3L149.5,99.1  z"/>
<g id="tsv">
	<polygon fill="#6F6F6E" points="146.8,8.7 163.8,8.7 163.8,12.4 157.8,12.4 157.8,29.5 153.1,29.5 153.1,12.4 146.8,12.4  "/>
	<polygon fill="#6F6F6E" points="179.9,8.7 184.8,8.7 188.9,23.3 193.4,8.7 198,8.7 191.1,29.2 186.8,29.2  "/>
	<path fill="#6F6F6E" d="M172.2,8.3c2.4-0.1,4.8,0.8,6.5,2.4c0.8,1,1.4,2.3,1.5,3.6h-4.2c0,0,0-2.5-3.5-2.5s-3.7,1.5-3.7,2.2   c0,2,3.4,2.1,7.3,3.1c4.5,1.2,4.6,3.9,4.6,5.4c0,3.2-2.4,6.7-7.9,6.7c-9.4,0-9.1-6.5-9.1-6.5h4.5c0,0,0,2.6,4.4,2.6   c3.4,0,3.6-1.4,3.6-2.1c0-1.5-0.8-2.3-6.3-3.3s-5.5-4.6-5.5-5.7S164.8,8.3,172.2,8.3z"/>
</g>
<g id="_04">
	<path fill="#6F6F6E" d="M188.3,78.1V66h-6.2l-9.3,10.5v5.3h9.4v4.9h6.1v-4.9h2.6v-3.6L188.3,78.1z M182.1,77.8h-5.1l5.1-5.9V77.8z"/>
	<path fill="#6F6F6E" d="M162.4,65.5c-6.1,0-9.4,5.4-9.4,11s3.6,10.6,9.4,10.6s9.4-5,9.4-10.6S168.5,65.5,162.4,65.5z M162.4,82.5   c-2.3,0-3.7-2.9-3.7-6.1s1.3-6.3,3.7-6.3s3.7,3.1,3.7,6.3S164.7,82.5,162.4,82.5z"/>
</g>
<g id="linker-kasten-inhalt">
	<path fill="#E3000F" d="M106.4,4L0.4,44.9V15.6c0-8.3,6.8-15.1,15.1-15.1h81.2C100.3,0.5,103.7,1.7,106.4,4L106.4,4z"/>
	<path fill="#FFFFFF" d="M0.5,44.9L106.5,4c3.5,2.9,5.5,7.1,5.5,11.6v52.1L6.2,108.6c-3.6-2.9-5.7-7.2-5.7-11.8V44.9z"/>
	<path fill="#E3000F" d="M6.2,108.6l105.7-40.9v29.1c0,8.4-6.8,15.1-15.1,15.1H15.6C12.2,111.9,8.9,110.7,6.2,108.6z"/>
</g>
<path id="linker-kasten" fill="none" stroke="#1A1A18" stroke-width="0.94" stroke-miterlimit="3.86" d="M15.6,111.9  c-8.4,0-15.1-6.8-15.1-15.1V15.6c0-8.3,6.8-15.1,15.1-15.1h81.2c8.3,0,15.1,6.8,15.1,15.1v81.2c0,8.4-6.8,15.1-15.1,15.1H15.6z"/>
<g>
	<path fill="#181715" d="M54.2,36.5h3.3c0.4,0,0.7-0.3,0.7-0.7c0-0.4-0.3-0.7-0.7-0.7h-3.3V36.5z M54.2,39.6h3.4   c0.4,0,0.7-0.3,0.7-0.7c0-0.4-0.3-0.7-0.7-0.7h-3.4V39.6z M59.5,37.2c0.4,0.4,0.7,1,0.7,1.7c0,1.3-1.1,2.4-2.4,2.4h-5.5v-7.8l5.4,0   c1.3,0,2.3,1,2.3,2.3C60,36.3,59.8,36.8,59.5,37.2z"/>
	<path fill="#181715" d="M60.7,50.6h-2l-0.6-1.3h-4.4l-0.6,1.3h-2l3.9-7.8h1.8L60.7,50.6z M55.9,44.8l-1.4,2.8h2.7L55.9,44.8z"/>
	<polygon fill="#181715" points="58.6,52.3 60.8,52.3 56.8,57.4 56.8,60.1 55,60.1 55,57.4 51,52.3 53.2,52.3 55.9,55.9  "/>
	<polygon fill="#181715" points="69,52.3 69,54 63.8,54 63.8,55.3 68.8,55.3 68.8,57 63.8,57 63.8,58.5 69,58.5 69,60.1 61.9,60.1    61.9,52.3  "/>
	<path fill="#181715" d="M74.9,57.2h-1.4v3h-1.9v-7.8h4.8c1.3,0,2.4,1.1,2.4,2.4c0,1.1-0.7,2-1.7,2.3l2.3,3.1h-2.2L74.9,57.2z    M76.2,54h-2.7v1.5h2.7c0.4,0,0.7-0.3,0.7-0.7C76.9,54.3,76.6,54,76.2,54z"/>
	<path fill="#181715" d="M51.9,60.1h-2l-0.6-1.3h-4.4l-0.6,1.3h-2l3.9-7.8h1.8L51.9,60.1z M47,54.3l-1.4,2.8h2.8L47,54.3z"/>
	<path fill="#181715" d="M35.2,55.3h3.3c0.4,0,0.7-0.3,0.7-0.7c0-0.4-0.3-0.7-0.7-0.7l-3.3,0V55.3z M35.2,58.5h3.4   c0.4,0,0.7-0.3,0.7-0.7c0-0.4-0.3-0.7-0.7-0.7h-3.4V58.5z M40.5,56.1c0.4,0.4,0.7,1,0.7,1.7c0,1.3-1.1,2.4-2.4,2.4h-5.5v-7.8l5.4,0   c1.3,0,2.3,1,2.3,2.3C41,55.2,40.8,55.7,40.5,56.1z"/>
	<polygon fill="#181715" points="59.4,61.8 59.4,63.5 54.2,63.5 54.2,64.8 59.2,64.8 59.2,66.5 54.2,66.5 54.2,68 59.4,68    59.4,69.7 52.4,69.7 52.4,61.8  "/>
	<path fill="#181715" d="M58.1,73.9c0-0.4-0.3-0.7-0.7-0.7h-3.2v1.5h3.2C57.8,74.7,58.1,74.4,58.1,73.9z M52.4,79.3v-7.8h5.2   c1.3,0,2.4,1.1,2.4,2.4c0,1-0.6,1.9-1.5,2.2l2.4,3.2h-2.2l-2.2-3h-2.1v3H52.4z"/>
	<path fill-rule="evenodd" clip-rule="evenodd" fill="#181715" d="M30.5,56.2c0-14.1,11.4-25.4,25.4-25.4   c14.1,0,25.4,11.4,25.4,25.4c0,14.1-11.4,25.4-25.4,25.4C41.9,81.6,30.5,70.2,30.5,56.2z M84,56.2c0,15.5-12.6,28-28,28   c-15.5,0-28-12.6-28-28c0-15.5,12.6-28,28-28C71.4,28.1,84,40.7,84,56.2z"/>
</g>
</svg>