<svg xmlns:dc="http://purl.org/dc/elements/1.1/" xmlns:cc="http://creativecommons.org/ns#" xmlns:rdf="http://www.w3.org/1999/02/22-rdf-syntax-ns#" xmlns:svg="http://www.w3.org/2000/svg" xmlns="http://www.w3.org/2000/svg" xmlns:sodipodi="http://sodipodi.sourceforge.net/DTD/sodipodi-0.dtd" xmlns:inkscape="http://www.inkscape.org/namespaces/inkscape" version="1.1" width="477.25403" height="180.07726" viewBox="0 0 381.80322 144.06181" id="svg2" sodipodi:docname="Lincoln_logo.svg" inkscape:version="0.92.3 (2405546, 2018-03-11)">
  <sodipodi:namedview pagecolor="#ffffff" bordercolor="#666666" borderopacity="1" objecttolerance="10" gridtolerance="10" guidetolerance="10" inkscape:pageopacity="0" inkscape:pageshadow="2" inkscape:window-width="1920" inkscape:window-height="1017" id="namedview18" showgrid="false" showguides="true" inkscape:guide-bbox="true" inkscape:snap-intersection-paths="true" inkscape:object-paths="true" inkscape:snap-object-midpoints="true" inkscape:snap-center="true" inkscape:snap-global="false" fit-margin-top="0" fit-margin-left="0" fit-margin-right="0" fit-margin-bottom="0" units="in" inkscape:zoom="0.95" inkscape:cx="437.66856" inkscape:cy="74.774522" inkscape:window-x="-8" inkscape:window-y="-8" inkscape:window-maximized="1" inkscape:current-layer="layer2"/>
  <metadata id="metadata30">
    <rdf:RDF>
      <cc:Work rdf:about="">
        <dc:format>image/svg+xml</dc:format>
        <dc:type rdf:resource="http://purl.org/dc/dcmitype/StillImage"/>
        <dc:title/>
      </cc:Work>
    </rdf:RDF>
  </metadata>
  <defs id="defs4">
    <clipPath id="clip1">
      <path d="M 0,902.91016 V 990 h 194.53125 v -87.08984 z m 0,0" id="path7" inkscape:connector-curvature="0"/>
    </clipPath>
    <clipPath id="clip1-4">
      <path id="path7-8" d="M 0,902.91016 V 990 h 194.53125 v -87.08984 z m 0,0" inkscape:connector-curvature="0"/>
    </clipPath>
  </defs>
  <g inkscape:groupmode="layer" id="layer1" inkscape:label="Layer 1" transform="translate(32.170391,-2.4340355)">
    <g id="g902" style="fill:#000000">
      <path d="m 157.07395,114.93372 c -2.25302,-2.85553 -5.98551,-4.45968 -9.65664,-4.45968 -8.98134,0 -14.91774,6.99609 -14.91774,15.86506 0,8.19708 5.59875,15.20154 14.91774,15.20154 4.5797,0 8.07892,-1.98205 10.45471,-5.24074 l 4.57355,3.35945 c -1.19097,1.61254 -5.99165,6.8365 -15.13876,6.8365 -12.71998,0 -20.56562,-10.36391 -20.56562,-20.15675 0,-12.11085 8.52092,-20.82025 20.84188,-20.82025 5.25497,0 10.7985,1.93167 14.00919,6.05542 l -4.51831,3.35945 v 0" id="path12" style="fill:#000000;fill-opacity:1;fill-rule:evenodd;stroke:none;stroke-width:1.61595476" inkscape:connector-curvature="0"/>
      <path d="m 209.99069,141.54064 c -8.53319,0 -14.05828,-7.00446 -14.05828,-15.53749 0,-8.53302 5.52509,-15.52911 14.05828,-15.52911 8.5332,0 14.05829,6.99609 14.05829,15.52911 0,8.53303 -5.52509,15.53749 -14.05829,15.53749 z m 0,4.95521 c 11.37555,0 19.42992,-8.91936 19.42992,-20.4927 0,-11.55654 -8.05437,-20.4843 -19.42992,-20.4843 -11.38169,0 -19.4299,8.92776 -19.4299,20.4843 0,11.57334 8.04821,20.4927 19.4299,20.4927 v 0" id="path14" style="fill:#000000;fill-opacity:1;fill-rule:evenodd;stroke:none;stroke-width:1.61595476" inkscape:connector-curvature="0"/>
      <path d="m -32.170391,107.5093 h 5.152043 v 34.03134 h 17.4494779 v 4.95521 H -32.170391 V 107.5093" id="path16" style="fill:#000000;fill-opacity:1;fill-rule:evenodd;stroke:none;stroke-width:1.61595476" inkscape:connector-curvature="0"/>
      <path d="m 21.190053,107.5093 h 5.152043 v 38.98655 H 21.190053 V 107.5093" id="path18" style="fill:#000000;fill-opacity:1;fill-rule:evenodd;stroke:none;stroke-width:1.61595476" inkscape:connector-curvature="0"/>
      <path d="m 60.938137,107.5093 h 6.906366 l 21.375965,32.05766 h 0.116648 V 107.5093 h 5.261114 v 38.98655 H 87.906728 L 66.309756,114.45498 H 66.19926 v 32.04087 H 60.938143 V 107.5093" id="path20" style="fill:#000000;fill-opacity:1;fill-rule:evenodd;stroke:none;stroke-width:1.61595476" inkscape:connector-curvature="0"/>
      <path d="m 263.30539,107.5093 h 5.15204 v 34.03134 h 17.44949 v 4.95521 H 263.30539 V 107.5093" id="path22" style="fill:#000000;fill-opacity:1;fill-rule:evenodd;stroke:none;stroke-width:1.61595476" inkscape:connector-curvature="0"/>
      <path d="m 316.67351,107.5093 h 6.7544 l 20.94549,32.05766 h 0.10741 V 107.5093 h 5.15204 v 38.98655 h -6.55504 l -21.13719,-32.04087 h -0.13034 v 32.04087 h -5.13671 V 107.5093" id="path24" style="fill:#000000;fill-opacity:1;fill-rule:evenodd;stroke:none;stroke-width:1.61595476" inkscape:connector-curvature="0"/>
    </g>
    <path inkscape:connector-curvature="0" style="fill:#000000;fill-opacity:1;fill-rule:evenodd;stroke:none;stroke-width:1.61595464" id="path26" d="m 171.2615,45.140467 c -0.0507,-11.114597 -0.6853,-23.660914 -2.462,-35.2087895 0,0 -3.69302,-0.433279 -8.50282,-0.5023548 -0.32996,-4.5211936 -0.59647,-6.9952872 -0.59647,-6.9952872 h -1.19293 c 0,0 -0.2665,2.4740936 -0.59646,6.9952872 -4.8098,0.069124 -8.50281,0.5023548 -8.50281,0.5023548 -1.7894,11.5478755 -2.42394,24.0941925 -2.46836,35.2087895 -3.95317,0.452119 -7.10048,0.897969 -7.10048,0.897969 v 1.142845 c 0,0 3.14731,0.439565 7.10048,0.897969 0.0444,11.114597 0.67896,23.654628 2.46836,35.202504 0,0 3.69301,0.439565 8.50281,0.50864 0.32996,4.521194 0.59646,6.989018 0.59646,6.989018 h 1.19293 c 0,0 0.26651,-2.467824 0.59647,-6.989018 4.8098,-0.06912 8.50282,-0.50864 8.50282,-0.50864 1.7767,-11.547876 2.41123,-24.087907 2.462,-35.202504 3.95318,-0.458404 7.10682,-0.897969 7.10682,-0.897969 v -1.142845 c 0,0 -3.15364,-0.44585 -7.10682,-0.897969 z m -5.12072,-31.799062 c 1.55462,10.819469 1.95437,24.401891 1.9988,31.459968 -2.25897,-0.232337 -4.57503,-0.426994 -6.58017,-0.521179 -0.0508,-13.067511 -0.53301,-23.673484 -0.99622,-30.938789 z m -14.08041,0 h 5.5776 c -0.45053,7.265305 -0.94547,17.871278 -0.98988,30.938789 -2.00515,0.0942 -4.3339,0.288842 -6.58017,0.521179 0.0444,-7.058077 0.43149,-20.640499 1.99245,-31.459968 z m 0,66.536907 c -1.56096,-10.825755 -1.94803,-24.40189 -1.99245,-31.459984 2.24627,0.226068 4.57502,0.420724 6.58017,0.521195 0.0444,13.067512 0.53935,23.667199 0.98988,30.938789 h -5.5776 14.08041 -5.57759 c 0.46321,-7.27159 0.94546,-17.871277 0.99622,-30.938789 2.00514,-0.100471 4.3212,-0.295127 6.58017,-0.521195 -0.0444,7.058094 -0.44418,20.634229 -1.9988,31.459984 h -14.08041 v 0"/>
  </g>
  <g inkscape:groupmode="layer" id="layer2" inkscape:label="Layer 2" transform="translate(32.170391,-2.4340355)"/>
</svg>