<svg xmlns:dc="http://purl.org/dc/elements/1.1/" xmlns:cc="http://creativecommons.org/ns#" xmlns:rdf="http://www.w3.org/1999/02/22-rdf-syntax-ns#" xmlns:svg="http://www.w3.org/2000/svg" xmlns="http://www.w3.org/2000/svg" xmlns:sodipodi="http://sodipodi.sourceforge.net/DTD/sodipodi-0.dtd" xmlns:inkscape="http://www.inkscape.org/namespaces/inkscape" width="178.39999" height="46.10001" viewBox="0 0 47.201663 12.197294" version="1.1" id="svg6592" inkscape:version="0.92.0 r15299" sodipodi:docname="Livingston International.svg">
  <defs id="defs6586"/>
  <sodipodi:namedview id="base" pagecolor="#ffffff" bordercolor="#666666" borderopacity="1.0" inkscape:pageopacity="0.0" inkscape:pageshadow="2" inkscape:zoom="5.0563698" inkscape:cx="88.699999" inkscape:cy="22.550003" inkscape:document-units="mm" inkscape:current-layer="layer1" showgrid="false" fit-margin-top="0" fit-margin-left="0" fit-margin-right="0" fit-margin-bottom="0" units="px" inkscape:window-width="1280" inkscape:window-height="744" inkscape:window-x="-4" inkscape:window-y="-4" inkscape:window-maximized="1"/>
  <metadata id="metadata6589">
    <rdf:RDF>
      <cc:Work rdf:about="">
        <dc:format>image/svg+xml</dc:format>
        <dc:type rdf:resource="http://purl.org/dc/dcmitype/StillImage"/>
        <dc:title/>
      </cc:Work>
    </rdf:RDF>
  </metadata>
  <g inkscape:label="Layer 1" inkscape:groupmode="layer" id="layer1" transform="translate(-114.87074,-246.16787)">
    <g id="g6551" transform="translate(-514.1814,-69.800058)">
      <path style="fill:#003594;stroke-width:0.26458332" inkscape:connector-curvature="0" d="m 656.27777,325.59876 c -0.13229,-0.0529 -0.29104,-0.10583 -0.44979,-0.10583 -0.15875,0 -0.37042,0.0529 -0.37042,0.23812 0,0.34396 0.74083,0.3175 0.74083,0.92604 0,0.52917 -0.39687,0.71438 -0.87312,0.71438 -0.21167,0 -0.42334,-0.0529 -0.60854,-0.13229 l 0.10583,-0.37042 c 0.15875,0.0794 0.34396,0.15875 0.52917,0.15875 0.21166,0 0.39687,-0.10583 0.39687,-0.34396 0,-0.39687 -0.74083,-0.3175 -0.74083,-0.89958 0,-0.44979 0.39687,-0.635 0.79375,-0.635 0.18521,0 0.37041,0.0265 0.55562,0.10583 z" id="path6323"/>
      <path style="fill:#003594;stroke-width:0.26458332" inkscape:connector-curvature="0" d="m 656.78048,325.75751 h 0.39687 l -0.34396,1.5875 h -0.39687 z m 0.15875,-0.68792 h 0.39687 l -0.0794,0.39688 h -0.39688 z" id="path6325"/>
      <path style="fill:#003594;stroke-width:0.26458332" inkscape:connector-curvature="0" d="m 657.57423,325.91626 c 0,-0.0529 0.0265,-0.13229 0.0265,-0.18521 h 0.37042 l -0.0265,0.21167 v 0 c 0.10584,-0.15875 0.29104,-0.23813 0.47625,-0.23813 0.18521,0 0.37042,0.10584 0.39688,0.29105 v 0 c 0.10583,-0.21167 0.34396,-0.29105 0.55562,-0.29105 0.23813,0 0.44979,0.18521 0.44979,0.42334 0,0.13229 -0.0264,0.29104 -0.0794,0.42333 l -0.15875,0.74083 h -0.39688 l 0.15875,-0.76729 c 0.0265,-0.10583 0.0529,-0.23812 0.0529,-0.34396 0,-0.10583 -0.0794,-0.1852 -0.18521,-0.1852 -0.29104,0 -0.34396,0.3175 -0.39687,0.55562 l -0.15875,0.74083 h -0.39688 l 0.15875,-0.76729 c 0.0265,-0.10583 0.0529,-0.23812 0.0529,-0.34396 0,-0.10583 -0.0794,-0.1852 -0.18521,-0.1852 -0.29104,0 -0.34396,0.34395 -0.39687,0.55562 l -0.15875,0.74083 h -0.39688 z" id="path6327"/>
      <path style="fill:#003594;stroke-width:0.26458332" inkscape:connector-curvature="0" d="m 660.29943,325.96918 c 0.0265,-0.0794 0.0265,-0.13229 0.0265,-0.21167 h 0.39688 l -0.0529,0.21167 v 0 c 0.13229,-0.15875 0.26458,-0.23813 0.47625,-0.23813 0.39688,0 0.58208,0.26459 0.58208,0.635 0,0.50271 -0.26458,1.00542 -0.8202,1.00542 -0.18521,0 -0.37042,-0.0529 -0.42334,-0.29104 v 0 l -0.18521,0.89958 h -0.39687 z m 0.71438,0.0529 c -0.29104,0 -0.42333,0.37042 -0.42333,0.635 0,0.21167 0.0794,0.37042 0.26458,0.37042 0.34396,0 0.44979,-0.42333 0.44979,-0.68792 0,-0.15875 -0.10583,-0.3175 -0.29104,-0.3175 z" id="path6329"/>
      <path style="fill:#003594;stroke-width:0.26458332" inkscape:connector-curvature="0" d="m 662.36318,325.04314 h 0.39688 l -0.47625,2.30187 h -0.39688 z" id="path6331"/>
      <path style="fill:#003594;stroke-width:0.26458332" inkscape:connector-curvature="0" d="m 663.07756,325.75751 h 0.39687 l -0.34395,1.5875 h -0.39688 z m 0.13229,-0.68792 h 0.39688 l -0.0794,0.39688 h -0.39687 z" id="path6333"/>
      <path style="fill:#003594;stroke-width:0.26458332" inkscape:connector-curvature="0" d="m 664.0036,326.04855 h -0.3175 l 0.0529,-0.29104 h 0.3175 c 0.0794,-0.39687 0.21166,-0.76729 0.68791,-0.76729 0.10584,0 0.18521,0.0265 0.26459,0.0529 l -0.10584,0.3175 c -0.0265,-0.0265 -0.0794,-0.0265 -0.13229,-0.0265 -0.23812,0 -0.29104,0.26458 -0.3175,0.44979 h 0.37042 l -0.0529,0.29104 h -0.37041 l -0.26459,1.27 h -0.39687 z" id="path6335"/>
      <path style="fill:#003594;stroke-width:0.26458332" inkscape:connector-curvature="0" d="m 665.32652,325.75751 0.15875,1.16417 v 0 l 0.635,-1.16417 h 0.44979 l -1.05833,1.82563 c -0.1323,0.21166 -0.29105,0.44979 -0.635,0.44979 -0.10584,0 -0.21167,-0.0265 -0.3175,-0.0529 l 0.0794,-0.3175 c 0.0529,0.0265 0.10583,0.0265 0.18521,0.0265 0.13229,0 0.21167,-0.0529 0.37042,-0.29104 l -0.29105,-1.64042 z" id="path6337"/>
      <path style="fill:#003594;stroke-width:0.26458332" inkscape:connector-curvature="0" d="m 667.60193,325.20189 h 1.64042 l -0.0794,0.34395 h -0.60855 l -0.39687,1.79917 h -0.42333 l 0.39687,-1.79917 h -0.60854 z" id="path6339"/>
      <path style="fill:#003594;stroke-width:0.26458332" inkscape:connector-curvature="0" d="m 669.0836,325.96918 c 0,-0.0794 0.0265,-0.13229 0.0265,-0.21167 h 0.39687 l -0.0529,0.29104 v 0 c 0.0794,-0.15875 0.26458,-0.34396 0.47625,-0.34396 0.0529,0 0.10583,0 0.15875,0.0265 l -0.0794,0.39688 c -0.0529,-0.0265 -0.10583,-0.0265 -0.15875,-0.0265 -0.29104,0 -0.42333,0.26458 -0.47625,0.50271 l -0.15875,0.71437 h -0.42333 z" id="path6341"/>
      <path style="fill:#003594;stroke-width:0.26458332" inkscape:connector-curvature="0" d="m 670.9886,327.08043 v 0 c -0.15875,0.18521 -0.29104,0.29104 -0.50271,0.29104 -0.29104,0 -0.47625,-0.15875 -0.47625,-0.44979 0,-0.52917 0.58209,-0.55563 0.97896,-0.55563 h 0.13229 c 0,-0.0529 0,-0.0794 0,-0.13229 0,-0.15875 -0.15875,-0.21167 -0.3175,-0.21167 -0.18521,0 -0.34396,0.0529 -0.52916,0.1323 l 0.0529,-0.3175 c 0.18521,-0.0529 0.34396,-0.10584 0.52917,-0.10584 0.3175,0 0.60854,0.10584 0.60854,0.47625 0,0.21167 -0.15875,0.82021 -0.18521,1.13771 h -0.34396 z m -0.39687,-0.0265 c 0.3175,0 0.39687,-0.21167 0.47625,-0.47625 h -0.15875 c -0.21167,0 -0.52917,0.0265 -0.52917,0.29104 0,0.13229 0.10583,0.18521 0.21167,0.18521 z" id="path6343"/>
      <path style="fill:#003594;stroke-width:0.26458332" inkscape:connector-curvature="0" d="m 673.63443,325.04314 -0.42333,1.95791 c -0.0265,0.13229 -0.0529,0.26459 -0.0529,0.34396 h -0.37041 l 0.0265,-0.23812 v 0 c -0.1323,0.15875 -0.26459,0.26458 -0.50271,0.26458 -0.37042,0 -0.52917,-0.3175 -0.52917,-0.66146 0,-0.47625 0.26458,-1.00542 0.79375,-1.00542 0.21167,0 0.37042,0.0794 0.47625,0.21167 l 0.21167,-0.89958 h 0.37041 z m -1.4552,1.64041 c 0,0.15875 0.0529,0.37042 0.23812,0.37042 0.29104,0 0.47625,-0.34396 0.47625,-0.635 0,-0.18521 -0.0794,-0.37042 -0.29104,-0.37042 -0.29104,-0.0265 -0.42333,0.39688 -0.42333,0.635 z" id="path6345"/>
      <path style="fill:#003594;stroke-width:0.26458332" inkscape:connector-curvature="0" d="m 673.97839,326.65709 c 0,0.29105 0.15875,0.39688 0.44979,0.39688 0.15875,0 0.3175,-0.0529 0.47625,-0.10583 l -0.0529,0.3175 c -0.15875,0.0529 -0.34396,0.0794 -0.50271,0.0794 -0.44979,0 -0.76729,-0.21167 -0.76729,-0.68792 0,-0.5027 0.37041,-0.9525 0.89958,-0.9525 0.39688,0 0.635,0.21167 0.635,0.60855 0,0.13229 -0.0265,0.23812 -0.0529,0.34395 z m 0.76729,-0.26458 c 0,-0.0265 0,-0.0794 0,-0.10583 0,-0.15875 -0.0794,-0.26459 -0.26458,-0.26459 -0.26458,0 -0.37042,0.15875 -0.44979,0.37042 z" id="path6347"/>
      <polygon transform="matrix(0.26458333,0,0,0.26458333,628.31131,316.10022)" id="polygon6351" points="173.3,20.2 173.4,20.2 175.4,9.3 180.7,9.3 176.9,29.4 169.9,29.4 165.8,17 165.7,17 163.4,29.4 158.1,29.4 161.8,9.3 169.7,9.3 " style="fill:#003594"/>
      <path id="path6355" d="m 654.87548,322.55605 c 0,0 0.58208,0.34396 1.40229,0.34396 0.39687,0 0.89958,-0.10583 0.97896,-0.52917 0.0794,-0.42333 -0.47625,-0.52916 -1.0848,-0.76729 -0.58208,-0.21166 -1.16416,-0.55562 -0.97895,-1.53458 0.21166,-1.11125 1.32291,-1.64042 2.59291,-1.64042 1.13771,0 1.66688,0.21167 1.66688,0.21167 l -0.29104,1.11125 c 0,0 -0.4498,-0.26458 -1.19063,-0.26458 -0.37042,0 -0.89958,0.0529 -0.97896,0.44979 -0.0529,0.34396 0.44979,0.42333 0.9525,0.635 0.79375,0.29104 1.32292,0.58208 1.13771,1.5875 -0.23812,1.24354 -1.5875,1.77271 -2.80458,1.77271 -0.50271,0 -1.27,-0.0794 -1.71979,-0.23813 z" inkscape:connector-curvature="0" style="fill:#003594;stroke-width:0.26458332"/>
      <polygon transform="matrix(0.26458333,0,0,0.26458333,628.31131,316.10022)" id="polygon6359" points="127.3,29.4 120.8,29.4 123.8,13.2 118.9,13.2 119.6,9.3 136,9.3 135.3,13.2 130.3,13.2 " style="fill:#003594"/>
      <path id="path6363" d="m 666.62298,322.90001 c 0.87312,0 1.21708,-0.82021 1.37583,-1.69333 0.18521,-0.92604 0.13229,-1.69334 -0.71438,-1.69334 -0.8202,0 -1.21708,0.79375 -1.37583,1.7198 -0.18521,0.87312 -0.13229,1.66687 0.71438,1.66687 m 0.84666,-4.445 c 1.85209,0 2.61938,1.03188 2.30188,2.75167 -0.3175,1.69333 -1.5875,2.75166 -3.33375,2.75166 -1.74625,0 -2.61938,-1.05833 -2.30188,-2.75166 0.3175,-1.69334 1.56104,-2.75167 3.33375,-2.75167" inkscape:connector-curvature="0" style="fill:#003594;stroke-width:0.26458332"/>
      <polygon transform="matrix(0.26458333,0,0,0.26458333,628.31131,316.10022)" id="polygon6367" points="10.6,25.4 18,25.4 17.2,29.4 3.3,29.4 7.1,9.3 13.6,9.3 " style="fill:#003594"/>
      <polygon transform="matrix(0.26458333,0,0,0.26458333,628.31131,316.10022)" id="polygon6371" points="26,29.4 19.5,29.4 23.2,9.3 29.7,9.3 " style="fill:#003594"/>
      <polygon transform="matrix(0.26458333,0,0,0.26458333,628.31131,316.10022)" id="polygon6375" points="57.7,29.4 51.2,29.4 54.9,9.3 61.5,9.3 " style="fill:#003594"/>
      <polygon transform="matrix(0.26458333,0,0,0.26458333,628.31131,316.10022)" id="polygon6379" points="46.9,9.3 53,9.3 42.4,29.4 34.6,29.4 31.7,9.3 38.4,9.3 39.8,24.1 " style="fill:#003594"/>
      <path id="path6383" d="m 652.8911,321.33897 -0.29104,1.48167 c 0,0 -0.44979,0.0794 -0.635,0.0794 -1.03188,0 -1.40229,-0.635 -1.19063,-1.66687 0.23813,-1.24355 1.0848,-1.7198 2.2225,-1.7198 0.34396,0 1.00542,0.0794 1.4023,0.34396 l 0.34395,-1.16416 c -0.47625,-0.21167 -1.50812,-0.23813 -1.87854,-0.23813 -1.21708,0 -2.27541,0.29104 -2.98979,1.00542 l -0.66146,3.4925 c 0.47625,0.74083 1.40229,1.03187 2.30188,1.03187 0.47625,0 1.45521,-0.0265 2.40771,-0.23812 l 0.44979,-2.38125 h -1.48167 z" inkscape:connector-curvature="0" style="fill:#003594;stroke-width:0.26458332"/>
      <polygon transform="matrix(0.26458333,0,0,0.26458333,628.31131,316.10022)" id="polygon6387" points="77.6,0 61.9,9.2 70.8,9.2 73.8,18.6 " style="fill:#003594"/>
      <polygon transform="matrix(0.26458333,0,0,0.26458333,628.31131,316.10022)" id="polygon6391" points="62.5,38.6 77.9,29.4 69.4,29.4 66.3,20 " style="fill:#003594"/>
    </g>
  </g>
</svg>