<svg xmlns="http://www.w3.org/2000/svg" xmlns:xlink="http://www.w3.org/1999/xlink" version="1.0" id="Ebene_1" x="0px" y="0px" width="342.865px" height="396.2px" viewBox="0 0 342.865 396.2" enable-background="new 0 0 342.865 396.2" xml:space="preserve">
<path d="M286.012,266.563c0-10.898-11.55-9.649-11.55-9.649c0-1.414-0.713-4.247-1.182-4.247c-3.85,0-8.254,2.126-8.254,2.126  c0.237-3.527,2.832-6.597,4.014-8.474c1.169-1.894,1.883-6.128,2.352-8.949c0.475-2.827,6.604-9.424,6.366-9.893  c-2.54-5.093-7.548-4.009-7.548-4.009s0.475-2.82,3.308-4.709c2.827-1.883,8.255,0.713,8.255,0.713s1.413-3.064-0.944-6.366  c-0.512-0.714-1.291-1.24-2.195-1.626c3.372-1.713,3.737-3.862,3.737-7.14c0-4.204-3.655-6.482-7.542-6.482  c-1.535,0-4.276-0.938-6.604,4.715c-0.036,0.098-2.912,4.716-3.058-4.471c-0.122-7.073,2.583-6,5.069-10.134  c0,0-2.486-4.594-7.432-3.531c0,0-0.536-4.949-2.12-4.949c-0.123,0-2.242,1.297-3.655,2.708c0,0,3.302-6.476,4.008-9.655  c0.707-3.18,2.943-7.612-0.353-7.061c-0.707,0.116-2.352,0.704-2.352,0.704s-1.329-0.573,3.411-2.47  c1.766-0.713,3.655-1.889,2.723-2.708c-0.957-0.829-1.901-2.714-7.561-3.062c0,0,0.811-3.777,4.837-5.772  c0.475-0.237,0.707,3.887,7.188,3.649c0,0,6.019-0.472,5.66-6.948c-0.133-2.386-1.13-3.968-2.411-5.02  c0.217,0.094,0.325,0.147,0.296,0.134c-0.154-0.082-0.301-0.171-0.452-0.257c-0.41-0.317-0.842-0.587-1.286-0.809  c-7.673-5.331-9.934-15.774-9.934-15.774s-0.005,0.011-0.006,0.014c-0.074-0.469-0.169-0.807-0.25-0.952  c-0.584-1.06-3.417-5.888-7.895-6.125c-4.483-0.238-6.604,1.529-7.31,5.297c-0.707,3.774,3.295,6.125,3.186,6.125  c-4.015,0-4.13-0.941-5.897-3.061c-1.772-2.123-0.834-10.313-0.944-10.362c-2.437-1.042-4.643,0.512-4.593,0.356  c0.39-1.724,0.859-5.065-0.475-5.541c-6.324-2.233-7.896,2.239-9.9,2.12c-6.597-0.381-4.599,6.244-4.599,6.244  s-9.309-8.602-10.844-7.304c-1.535,1.297-1.06,6.244-1.06,6.244s-6.835-3.18-14.146-2.357c-6.563,0.738-10.021,3.793-11.835,6.575  c-3.774,0.875-7.574,1.219-11.034,1.271c-3.46-0.053-7.26-0.397-11.033-1.271c-1.815-2.782-5.273-5.837-11.835-6.575  c-7.311-0.823-14.146,2.357-14.146,2.357s0.475-4.947-1.06-6.244c-1.535-1.298-10.844,7.304-10.844,7.304s1.998-6.625-4.599-6.244  c-2.004,0.119-3.576-4.353-9.9-2.12c-1.333,0.475-0.865,3.816-0.475,5.541c0.049,0.155-2.156-1.398-4.593-0.356  c-0.11,0.049,0.828,8.239-0.944,10.362c-1.767,2.12-1.882,3.061-5.897,3.061c-0.109,0,3.893-2.351,3.187-6.125  c-0.707-3.768-2.827-5.535-7.311-5.297c-4.478,0.237-7.31,5.065-7.895,6.125c-0.081,0.146-0.176,0.483-0.25,0.952  c-0.001-0.002-0.006-0.014-0.006-0.014s-2.261,10.443-9.934,15.774c-0.444,0.222-0.876,0.492-1.286,0.809  c-0.15,0.086-0.298,0.175-0.452,0.257c-0.028,0.014,0.079-0.04,0.297-0.134c-1.281,1.052-2.279,2.633-2.411,5.02  c-0.359,6.476,5.659,6.948,5.659,6.948c6.482,0.237,6.714-3.887,7.189-3.649c4.026,1.995,4.837,5.772,4.837,5.772  c-5.659,0.348-6.604,2.233-7.561,3.062c-0.932,0.819,0.957,1.995,2.724,2.708c4.739,1.897,3.411,2.47,3.411,2.47  s-1.645-0.588-2.352-0.704c-3.296-0.551-1.06,3.88-0.353,7.061c0.707,3.18,4.008,9.655,4.008,9.655  c-1.413-1.41-3.533-2.708-3.655-2.708c-1.584,0-2.12,4.949-2.12,4.949c-4.946-1.063-7.432,3.531-7.432,3.531  c2.485,4.133,5.19,3.061,5.069,10.134c-0.146,9.187-3.022,4.569-3.059,4.471c-2.327-5.653-5.069-4.715-6.604-4.715  c-3.887,0-7.542,2.278-7.542,6.482c0,3.278,0.365,5.427,3.736,7.14c-0.904,0.386-1.683,0.912-2.195,1.626  c-2.358,3.302-0.945,6.366-0.945,6.366s5.428-2.596,8.255-0.713c2.833,1.889,3.308,4.709,3.308,4.709s-5.008-1.084-7.548,4.009  c-0.237,0.469,5.891,7.066,6.366,9.893c0.469,2.82,1.182,7.055,2.352,8.949c1.182,1.876,3.777,4.946,4.014,8.474  c0,0-4.404-2.126-8.254-2.126c-0.469,0-1.182,2.833-1.182,4.247c0,0-11.55-1.249-11.55,9.649c0,0.476,7.311-0.7,9.899,4.715  c0,0-5.184,2.12-2.827,7.298c0,0,3.54-0.938,5.422,0.244c1.882,1.169,2.833,3.533,6.366,4.471c3.54,0.938,8.249,1.888,9.668,3.295  c0,0-6.804,1.03-8.492,4.947c-0.128,0.292-0.469,1.882,1.895,3.295c0,0-3.777,4.24-1.42,9.662c0,0,5.063,1.767,8.73-0.244  c0.28-0.158,0,5.653,2.827,6.128c2.827,0.469,3.533-3.533,5.89-3.771c2.358-0.231,7.75-1.175,9.9-4.002  c0.146-0.195,2.357,1.645,8.955,1.413c6.604-0.237,8.261-1.889,8.261-1.889s3.064,8.249,9.43,12.245c0,0-5.897,3.539-6.835,6.359  l3.296,1.657c0,0-3.771,4.472-3.296,7.53c0.469,3.064,2.352,5.422,2.352,5.422s3.064-4.008,6.366-4.008  c3.296,0,4.478-0.945,4.478-0.945s-0.378,1.029,2.827,4.247c0.244,0.231-0.231-3.534,6.604-3.534c0.244,0,2.364-1.182,4.009-3.064  c1.651-1.882,3.533-1.176,4.953-0.238c1.419,0.944,4.246,3.18,5.185,4.362c0.457,0.569,1.309,2.17,2.661,3.61  c-1.669,0.96-2.899,2.538-2.899,4.979c0,4.961,5.071,6.369,8.608,6.236c3.536,0.132,8.608-1.275,8.608-6.236  c0-2.441-1.23-4.019-2.9-4.979c1.353-1.439,2.206-3.041,2.662-3.61c0.938-1.182,3.765-3.418,5.184-4.362  c1.42-0.938,3.302-1.645,4.953,0.238c1.645,1.882,3.766,3.064,4.009,3.064c6.835,0,6.36,3.765,6.604,3.534  c3.205-3.217,2.827-4.247,2.827-4.247s1.182,0.945,4.478,0.945c3.302,0,6.366,4.008,6.366,4.008s1.883-2.357,2.352-5.422  c0.475-3.058-3.295-7.53-3.295-7.53l3.295-1.657c-0.938-2.82-6.835-6.359-6.835-6.359c6.366-3.997,9.43-12.245,9.43-12.245  s1.657,1.651,8.26,1.889c6.598,0.231,8.81-1.608,8.955-1.413c2.151,2.827,7.542,3.771,9.9,4.002c2.358,0.238,3.064,4.24,5.891,3.771  c2.827-0.475,2.546-6.287,2.827-6.128c3.667,2.011,8.73,0.244,8.73,0.244c2.357-5.422-1.42-9.662-1.42-9.662  c2.364-1.413,2.023-3.003,1.895-3.295c-1.688-3.917-8.492-4.947-8.492-4.947c1.419-1.407,6.128-2.357,9.668-3.295  c3.533-0.938,4.484-3.302,6.366-4.471c1.883-1.182,5.422-0.244,5.422-0.244c2.357-5.178-2.827-7.298-2.827-7.298  C278.702,265.864,286.012,267.04,286.012,266.563z"/>
<path fill="#FFE000" d="M277.52,259.15c-1.645,0-3.534,2.242-3.534,2.242c-0.944-0.116-3.302,0.584-3.302,0.584  s2.596-4.002,0.598-6.007c-2.01-1.998-9.187,5.063-9.199,4.947c-0.584-4.459-0.237-5.178,0.122-8.249  c0.341-3.052,4.002-8.358,4.947-10.24c0.944-1.876,1.06-5.178,2.473-8.943c1.413-3.771,4.361-5.421,4.361-5.421  c-2.351-4.002-8.723,1.291-8.723,1.291c3.777-17.654,14.024-13.182,14.024-13.182s-0.347-3.064-5.069-3.54  c-6.402-0.64-9.223,6.609-11.313,9.894c-8.705,13.664-5.689,27.115-5.89,38.866c-0.475,28.188-19.805,35.327-28.76,35.559  c-8.961,0.231-12.732-2.827-12.732-2.827c-1.651,6.359-6.841,13.183-12.032,17.191c-5.178,4.009-12.257,4.009-18.153,7.067  c-5.428,2.823-11.252,11.433-12.135,12.77c-0.883-1.337-6.708-9.946-12.135-12.77c-5.896-3.058-12.975-3.058-18.153-7.067  c-5.19-4.008-10.381-10.832-12.032-17.191c0,0-3.771,3.058-12.732,2.827c-8.955-0.232-28.285-7.371-28.76-35.559  c-0.201-11.751,2.814-25.203-5.891-38.866c-2.09-3.284-4.91-10.534-11.313-9.894c-4.721,0.475-5.069,3.54-5.069,3.54  s10.247-4.472,14.024,13.182c0,0-6.372-5.293-8.723-1.291c0,0,2.948,1.651,4.361,5.421c1.414,3.765,1.529,7.067,2.473,8.943  c0.945,1.882,4.606,7.188,4.947,10.24c0.359,3.071,0.706,3.79,0.122,8.249c-0.012,0.116-7.188-6.945-9.199-4.947  c-1.998,2.004,0.598,6.007,0.598,6.007s-2.358-0.701-3.302-0.584c0,0-1.889-2.242-3.534-2.242c-1.657,0-4.13,0.019-5.544,4.234  c-0.122,0.359,2.949-0.11,4.6,1.304c1.651,1.407,2.589,1.875,3.771,3.527c1.176,1.651,3.771,2.235,4.246,3.771  c0,0-2.955-0.354-4.721,0.944c-1.767,1.292-1.414,2.942-1.414,2.942s2.242-0.591,4.24,0.817c2.01,1.419,3.539,2.595,5.434,3.777  c1.882,1.182,6.007,0.944,8.358,2.358c2.363,1.407,4.483,3.643,5.434,6.231c0,0-3.424-1.054-5.666-0.109  c-2.242,0.938-4.008,2.242-4.008,3.411c0,1.182,0.707,0.822,2.004,0.822c1.298,0,3.595-1.212,6.367,0.238  c0.146,0.085-2.352-0.938-5.069,1.536c-2.717,2.473-5.068,4.825-3.058,6.944c1.999,2.12,6.774,1.09,11.429-2.711  c0.207-0.176-0.116,1.529-1.304,2.352c-1.17,0.834-2.985,3.466-0.938,5.306c1.182,1.06,2.242-2.473,5.306-2.473  c3.065,0,6.367-1.322,9.778-4.362c0.158-0.14,6.153,3.814,16.156,0.475c0.256-0.084,3.187-2.589,5.068,1.529  c1.889,4.124,6.452,10.801,10.606,13.311c0.591,0.354,0.834,1.523-0.7,1.523c-1.535,0-6.019-0.463-6.604,1.767  c-0.591,2.242,1.889,2.473,1.889,2.473s0.938,0.244,0.816,0.945c-0.109,0.712-0.816,0.944-1.645,1.297s-2.314,1.474-3.058,6.007  c-0.244,1.413,0.116,1.291,1.292,1.413c1.182,0.11,3.18-1.766,5.531-1.535c2.364,0.232,3.826-1.133,5.075-3.655  c0.115-0.225-0.238,4.009,2.595,4.131c2.888,0.116,3.887,0,6.841-2.711c2.936-2.711,2.583-2.711,4.356-2.711  c1.767,0,6.135,1.414,10.374,6.592c4.241,5.184,3.534,5.336,6.482,5.421c2.948-0.085,2.242-0.238,6.482-5.421  c4.24-5.178,8.608-6.592,10.374-6.592c1.773,0,1.42,0,4.356,2.711c2.955,2.711,3.954,2.827,6.841,2.711  c2.833-0.122,2.479-4.355,2.595-4.131c1.249,2.522,2.711,3.887,5.075,3.655c2.351-0.231,4.349,1.646,5.531,1.535  c1.176-0.122,1.535,0,1.292-1.413c-0.744-4.533-2.23-5.653-3.059-6.007s-1.535-0.585-1.645-1.297  c-0.122-0.701,0.816-0.945,0.816-0.945s2.479-0.231,1.889-2.473c-0.585-2.229-5.069-1.767-6.604-1.767  c-1.535,0-1.291-1.169-0.7-1.523c4.154-2.51,8.717-9.187,10.606-13.311c1.882-4.118,4.813-1.614,5.068-1.529  c10.003,3.339,15.998-0.615,16.156-0.475c3.411,3.04,6.713,4.362,9.777,4.362c3.064,0,4.124,3.533,5.306,2.473  c2.046-1.84,0.231-4.472-0.938-5.306c-1.188-0.822-1.511-2.528-1.304-2.352c4.654,3.801,9.43,4.831,11.428,2.711  c2.01-2.12-0.341-4.471-3.058-6.944c-2.717-2.474-5.215-1.45-5.069-1.536c2.772-1.45,5.069-0.238,6.366-0.238  s2.004,0.36,2.004-0.822c0-1.169-1.767-2.473-4.009-3.411c-2.241-0.945-5.666,0.109-5.666,0.109  c0.951-2.589,3.071-4.825,5.434-6.231c2.352-1.414,6.476-1.176,8.358-2.358c1.895-1.182,3.424-2.358,5.434-3.777  c1.998-1.408,4.24-0.817,4.24-0.817s0.354-1.651-1.414-2.942c-1.767-1.297-4.721-0.944-4.721-0.944  c0.475-1.535,3.07-2.12,4.246-3.771c1.182-1.652,2.12-2.121,3.771-3.527c1.652-1.414,4.722-0.945,4.6-1.304  C281.65,259.168,279.177,259.15,277.52,259.15z"/>
<path fill="#FFE000" d="M247.365,174.308c1.176,26.159,16.972,37.801,22.625,37.563c5.66-0.231,8.961-2.583,9.431-7.06  c0.475-4.478-4.24-4.478-4.24-4.478c-4.483-0.238-4.946,3.765-2.827,4.708c2.12,0.945,2.948,0.475,2.948,0.475  s-0.95,2.352-4.367,2.236c-6.391-0.219-8.133-6.481-8.827-9.308c-0.719-2.821,0.109-5.529,2.705-9.296  c2.595-3.768-2.126-1.529-2.126-1.529l-1.888,1.292c0,0-0.591-1.179-0.591-3.531c0-2.36-2.241-1.529-3.179,0.347  c-0.945,1.892-0.829,8.605-0.829,8.605c-3.059-3.302-2.461-6.875-1.883-11.191c0.311-2.397,4.112-10.125,5.051-12.485  c1.316-3.174,0.134-3.768-2.693-2.114c-3.168,1.852-4.837,7.655-4.837,7.417c0-8.245,4.13-10.597,7.664-12.719  c3.533-2.12,1.772-3.531-0.585-3.768c-2.364-0.216-7.079,5.671-7.079,5.671s1.182-3.317,3.07-8.023  c1.889-4.715,3.302-6.244,6.128-7.892c2.833-1.645,5.19-1.882,5.19-1.882s-2.248,1.882-2.248,3.53s0.237,2.589,3.771,2.589  c3.546,0,3.777-3.887,3.777-4.828c0-0.941-1.651-5.397-6.141-5.279C260.914,143.477,246.184,148.167,247.365,174.308z"/>
<path fill="#FFE000" d="M188.292,133.977c2.479,0.237,4.002-0.822,4.246-2.471c0.232-1.645-0.359-2.589-1.304-2.827  c-0.938-0.234-2.352,0.476-2.352,0.476c1.646-5.775,8.955-6.125,8.955-6.125s6.128-0.475,12.848,2.827  c6.719,3.299,21.925,11.303,34.182,11.77c12.263,0.475,13.091-7.061,13.091-10.359c0-3.296-2.711-4.831-5.19-5.06  c-2.479-0.237-4.24,2.233-4.24,3.293s-0.116,3.417,2.358,4.124c2.473,0.704,3.649-0.119,3.649-0.119s0.237,4.24-7.304,3.649  c-9.418-0.737-7.542-13.78-7.542-13.78c-2.833-1.648-7.432,7.773-7.432,7.773c4.953-15.309,1.297-12.952,1.297-12.952  c-4.478-0.119-5.537,8.946-5.537,8.946c-0.598-5.647-2.833-5.06-2.949-5.06c-2.656,0,1.651,10.834,1.651,10.834  s-8.602-9.418-11.434-11.66c-2.827-2.239-3.424-1.645-3.533-0.116c-0.122,1.526,0.584,5.178,0.584,5.178  c-8.139-3.533-13.085-3.652-16.862-3.058c-3.766,0.585-9.187,3.174-10.491,8.477C183.693,133.035,188.292,133.977,188.292,133.977z"/>
<path fill="#FFE000" d="M76.414,211.871c5.653,0.238,21.449-11.404,22.625-37.563c1.182-26.14-13.548-30.831-18.02-30.95  c-4.49-0.119-6.141,4.337-6.141,5.279c0,0.941,0.231,4.828,3.777,4.828c3.534,0,3.771-0.941,3.771-2.589s-2.248-3.53-2.248-3.53  s2.358,0.237,5.19,1.882c2.827,1.648,4.24,3.177,6.128,7.892c1.888,4.706,3.07,8.023,3.07,8.023s-4.715-5.888-7.079-5.671  c-2.358,0.237-4.118,1.648-0.585,3.768c3.534,2.123,7.664,4.474,7.664,12.719c0,0.238-1.669-5.564-4.837-7.417  c-2.827-1.654-4.008-1.06-2.692,2.114c0.938,2.361,4.74,10.088,5.05,12.485c0.579,4.316,1.176,7.889-1.883,11.191  c0,0,0.116-6.713-0.828-8.605c-0.938-1.876-3.18-2.708-3.18-0.347c0,2.352-0.591,3.531-0.591,3.531l-1.888-1.292  c0,0-4.721-2.239-2.126,1.529c2.596,3.768,3.424,6.476,2.705,9.296c-0.695,2.827-2.437,9.089-8.827,9.308  c-3.417,0.116-4.368-2.236-4.368-2.236s0.829,0.47,2.948-0.475c2.12-0.944,1.657-4.946-2.827-4.708c0,0-4.715,0-4.24,4.478  C67.453,209.288,70.755,211.64,76.414,211.871z"/>
<path fill="#FFE000" d="M101.537,137.625c12.257-0.466,27.462-8.471,34.182-11.77c6.72-3.302,12.848-2.827,12.848-2.827  s7.31,0.35,8.955,6.125c0,0-1.414-0.71-2.352-0.476c-0.945,0.238-1.535,1.182-1.304,2.827c0.244,1.648,1.767,2.708,4.246,2.471  c0,0,4.599-0.941,3.308-6.238c-1.304-5.303-6.725-7.892-10.49-8.477c-3.777-0.594-8.724-0.475-16.862,3.058  c0,0,0.707-3.652,0.584-5.178c-0.109-1.529-0.706-2.123-3.533,0.116c-2.833,2.242-11.435,11.66-11.435,11.66  s4.307-10.834,1.651-10.834c-0.116,0-2.352-0.588-2.949,5.06c0,0-1.06-9.065-5.537-8.946c0,0-3.655-2.357,1.298,12.952  c0,0-4.6-9.421-7.432-7.773c0,0,1.876,13.043-7.542,13.78c-7.542,0.591-7.304-3.649-7.304-3.649s1.176,0.823,3.649,0.119  c2.473-0.707,2.357-3.064,2.357-4.124s-1.76-3.53-4.239-3.293c-2.479,0.229-5.191,1.764-5.191,5.06  C88.445,130.565,89.274,138.101,101.537,137.625z"/>
<path fill="#FFE000" d="M163.88,131.753c1.792-0.26,5.181-0.661,9.322-0.711c4.142,0.05,7.53,0.451,9.322,0.711  c-0.19-0.757-0.273-1.558-0.246-2.367c0,0,0.138-1.251,0.864-2.934c-1.9,0.176-5.644,0.477-9.94,0.586  c-4.296-0.109-8.041-0.41-9.94-0.586c0.726,1.683,0.863,2.934,0.863,2.934C164.153,130.195,164.07,130.996,163.88,131.753z"/>
<path fill="#FFE000" d="M264.929,141.774c-0.605-1.407-2.358-5.167-5.006-8.249c-0.529,1.144-1.317,2.253-2.46,3.194  c0.927,1.646,2.377,4.091,3.527,5.436C262.624,141.799,264.016,141.757,264.929,141.774z"/>
<path fill="#FFE000" d="M88.942,136.719c-1.144-0.941-1.931-2.05-2.46-3.194c-2.648,3.082-4.402,6.842-5.007,8.249  c0.913-0.017,2.305,0.025,3.94,0.38C86.565,140.811,88.016,138.366,88.942,136.719z"/>
<path fill="#FFE000" d="M169.862,337.628c-1.094,0.577-1.919,1.56-1.919,3.122c0,3.031,3.099,3.891,5.259,3.811  c2.161,0.081,5.26-0.779,5.26-3.811c0-1.563-0.826-2.545-1.919-3.122c-0.963,0.511-2.069,0.827-3.34,0.779  C171.932,338.455,170.825,338.139,169.862,337.628z"/>
<path fill="#004895" d="M199.72,125.262c4.722-0.469,9.79,3.417,22.278,8.364c12.5,4.941,16.278,6.713,28.413,5.653  c1.865-0.163,3.407-0.561,4.684-1.119c1.006,1.291,2.174,3.757,2.744,5.028c-5.954,2.666-12.954,10.226-12.954,31.354  c0,9.48,2.5,18.12,6.394,24.841h-59.527v-63.542c1.885-0.728,2.537-2.211,2.783-4.098c0.354-2.708-1.766-4.243-1.766-4.243  C193.83,126.209,195.005,125.737,199.72,125.262z"/>
<path fill="#E42A1B" d="M88.565,143.188c0.57-1.271,1.738-3.737,2.744-5.028c1.277,0.559,2.819,0.956,4.684,1.119  c12.135,1.06,15.913-0.712,28.413-5.653c12.489-4.947,17.557-8.833,22.278-8.364c4.715,0.475,5.891,0.947,6.951,2.239  c0,0-2.12,1.535-1.767,4.243c0.246,1.887,0.898,3.37,2.783,4.098v63.541l-59.527,0.001c3.895-6.721,6.394-15.361,6.394-24.842  C101.519,153.414,94.519,145.854,88.565,143.188z"/>
<path fill="#004895" d="M139.843,304.249c-6.128-8.711-7.779-13.658-7.779-13.658s-0.944,4.24-14.614,3.765  c-7.603-0.255-23.344-7.53-24.758-29.436c-0.738-11.434,0.032-22.288-1.829-31.862l63.788-0.001v79.942  C148.991,311.723,144.799,311.299,139.843,304.249z"/>
<path fill="#FFFFFF" d="M173.202,325.602c-1.814-2.347-7.63-9.314-14.261-11.46c-0.458-0.148-0.906-0.282-1.346-0.407v-83.624  H90.189c-1.698-6.437-4.857-12.228-10.864-17.133c5.111-1.283,10.025-5.106,13.924-10.65h64.345v-66.001  c0.097,0.002,0.187,0.008,0.287,0.008c1.868,0,3.278-0.6,4.288-1.549c0.005,0.092,0.019,0.146,0.046,0.133  c3.811-1.434,7.581-1.961,10.987-2.004c3.406,0.043,7.176,0.57,10.987,2.004c0.028,0.012,0.042-0.041,0.047-0.133  c1.009,0.949,2.42,1.549,4.287,1.549c0.1,0,0.189-0.006,0.285-0.008v66.002h64.347c3.9,5.543,8.813,9.366,13.924,10.649  c-6.007,4.907-9.167,10.697-10.864,17.135l-67.407-0.001v83.625c-0.439,0.124-0.887,0.257-1.345,0.406  C180.833,316.288,175.017,323.255,173.202,325.602z"/>
<path fill="#E42A1B" d="M253.713,264.919c-1.414,21.906-17.155,29.181-24.758,29.436c-13.67,0.475-14.615-3.765-14.615-3.765  s-1.651,4.947-7.779,13.658c-4.957,7.051-9.149,7.475-14.809,8.749v-79.942h63.79C253.681,242.63,254.451,253.485,253.713,264.919z"/>
<path d="M204.551,160.47c0,0,0.243-3.649,5.666-7.18c0,0,2.364-5.184,7.542-5.891c0,0,0.47-4.471,3.655-4.59  c3.18-0.119,4.362,2.47,4.362,4.59c0,0,7.664,1.535,8.602,6.244c0,0,11.319,6.004,8.724,24.962  c-0.354,2.592-0.354,7.185-17.216,6.829c-16.844-0.35-26.865,0.606-26.865-8.714c0-6.713,2.352-9.065,2.352-9.065  S201.846,162.124,204.551,160.47"/>
<path fill="#FFE000" d="M214.578,151.171c0,0-1.888,1.882,1.054,1.414c2.955-0.472,5.659-0.354,6.609-0.354  c0.939,0,7.298,0.584,7.298,0.584s3.302,0.357,0.475-1.41C227.189,149.642,221.06,147.284,214.578,151.171"/>
<path fill="#FFE000" d="M220.585,183.787c0,0,17.216,0.707,17.1-2.467c-0.128-3.183-16.978-3.064-16.978-3.064  s-16.972-0.119-16.972,3.064C203.735,184.494,220.585,183.787,220.585,183.787"/>
<path fill="#FFE000" d="M241.572,177.375c0,0-0.116-1.386-2.711-2.677c-2.595-1.297-7.986-3.18-14.036-3.18  c-0.116,0-1.876-0.356-0.701,2.004c1.176,2.352,0.701,1.971,3.905,2.443c3.167,0.469,4.106-0.119,6.823,0.826  C237.557,177.731,241.212,180.202,241.572,177.375"/>
<path fill="#FFE000" d="M201.255,177.025c0,0,0.116-1.383,2.71-2.681c2.596-1.291,7.987-3.183,14.037-3.183  c0.115,0,1.876-0.347,0.701,2.004c-1.176,2.358-0.701,1.977-3.893,2.446c-3.18,0.472-4.125-0.119-6.829,0.822  C205.575,177.269,201.627,179.958,201.255,177.025"/>
<path fill="#FFE000" d="M203.381,172.578c0,0-2.126,1.553-1.06-1.627c1.06-3.177,6.476-5.065,19.92-5.416  c2.011-0.043,17.448,1.66,18.033,6.357c0.122,0.941-0.238,1.279-1.414,1.161c-1.176-0.119-9.784-4.006-18.276-3.649  C212.105,169.751,206.33,171.049,203.381,172.578"/>
<path fill="#FFE000" d="M208.925,160.12c0,0-4.222,1.194-4.728,4.006c-0.347,2.004,0.475,2.232,1.414,1.885  c0.95-0.356,7.786-2.357,16.509-1.885c8.724,0.469,14.736,2.232,14.736,2.232s1.645,1.297,2.711-0.228  c1.061-1.536-1.066-5.185-7.542-6.482C225.543,158.356,216.583,158.585,208.925,160.12"/>
<path fill="#FFE000" d="M208.797,158.822c0,0-2.004,0.475-0.469-1.407c1.633-2.004,4.362-4.243,13.67-3.771  c2.827,0.146,9.54-0.561,13.439,3.771c1.06,1.17,1.182,2.467-1.414,1.407C231.435,157.763,216.345,156.583,208.797,158.822"/>
<path d="M152.908,207.29c0,0,2.83-4.356,8.845-4.356c1.645,0,2.352,1.176,4.353,1.535c2.01,0.347,2.357,0.225,2.357,0.225  s0.899-3.527-0.229-4.934c-0.076-0.085,1.06-0.597,1.764,2.352c0,0,2.123,1.766,2.123-3.18c0-0.116,2.357,5.946,3.536-0.829  c0.019-0.109,0.238,6.482,5.185,0.122c0,0-4.715,6.245,0.707,5.769c5.422-0.469,10.088,1.31,11.903,4.587  c0.524,0.932-3.764,2.827-4.825,2.717c-1.06-0.122,2.242,2.352,1.883,4.24c-0.347,1.876-5.83,2.979-9.717,1.036  c-0.244-0.116,2.766,4.727,2.059,5.446c-0.122,0.109-1.377-1.968-2.955-1.767c-0.177,0-2.12,10.04-5.894,10.241  c-5.09,0.262-6.019-8.078-6.375-10.667c0,0-1.535-0.354-2.108,1.961c-0.064,0.268,0.113-3.466,1.876-3.484  c0.183,0-0.232-1.121-0.106-2.059c0,0-3.561,1.875-3.68,2.461c-0.709,3.594-2.028-0.713-1.517-0.013  c-1.292-1.778-7.609-0.908-8.126-3.509c-0.231-1.182,2.001-2.357,2.595-3.064c0.591-0.713,0.466-1.414-0.594-2.12  C154.909,209.3,154.678,209.531,152.908,207.29"/>
<path fill="#FFFFFF" d="M184.503,208.703c0,0,0.347,2.12,1.292,2.358c0.944,0.237,1.651,0,1.535-0.591  C187.214,209.885,185.436,209.641,184.503,208.703"/>
<path fill="#FFFFFF" d="M179.076,209.763c0,0,4.953,2.827,8.017,2.357c0,0,2.357,4.125-1.767,3.886  C181.195,215.77,178.253,214.362,179.076,209.763"/>
<path fill="#FFFFFF" d="M178.491,206.473c0,0,7.304-4.715,11.428,1.998c0,0-2.351,2.352-6.359-1.413c0,0-0.829,1.182,0.231,2.827  c0,0-3.643,0.383-4.953-0.944C178.722,208.825,178.369,207.412,178.491,206.473"/>
<path fill="#FFFFFF" d="M156.212,215.063c0,0,0.469-3.655,8.249-3.18c0,0-1.605,1.572-1.298,3.064  c0.043,0.165,1.883-3.295,4.365-3.295c0.113,0-2.239-0.944-2.239-0.944s0.393-1.651,1.41-1.651c0.119,0-2.004,0.475-2.357,1.413  l-4.481,0.354c0,0-2.47-0.292-3.536-3.174c-0.042-0.116,1.535-3.064,4.006-2.595c0,0,0,2.942,0.947,3.887  c0,0,0.058-2.59,2.477-2.352c0.113,0.012-1.06-1.773-1.06-1.773s3,1.786,6.007,1.06c0,0-0.704,3.065,1.654,4.125  c0,0-0.475,1.176-2.714,4.362c0,0-2.607,4.331-5.303,1.645C162.219,215.892,160.921,218.949,156.212,215.063"/>
<polyline points="165.521,206.229 163.505,208.264 166.916,206.144 165.521,206.229 "/>
<path fill="#FFE000" d="M170.94,206.589c0,0,1.535,0.701,3.658,0.822c2.12,0.122,2.942-0.591,3.064-1.536  c0.116-0.938-0.706-2.827-2.827-2.942C172.712,202.818,170.236,203.878,170.94,206.589"/>
<path fill="#FFE000" d="M172.238,209.056c0,0,0.474,1.182,2.128,1.304c1.639,0.109,2.711-0.475,2.942-1.182  C177.541,208.471,176.005,207.88,172.238,209.056"/>
<path fill="#FFE000" d="M168.938,215.892c0,2.906,4.511,1.706,4.436,2.649c-0.067,0.957-3.96-0.237-3.848,1.712  c0.073,1.176,1.532,1.767,4.365,1.876c2.827,0.116,4.515-0.584,4.6-1.529c0.183-1.992-4.648-1.461-4.636-2.199  c0.012-0.743,5.647-0.158,5.458-2.863c-0.116-1.651-7.256-0.707-7.304-1.511c-0.059-0.816,5.769-0.256,5.653-1.316  c-0.122-1.06-2.595-1.414-3.658-1.535c-1.06-0.116-6.911,1.115-3,2.717C172.35,214.441,168.938,214.271,168.938,215.892"/>
<path fill="#FFE000" d="M170.586,223.189c0,0,2.851,1.396,6.771,0.292c0,0-0.609,4.289-3.671,4.289  C170.617,227.771,170.586,223.189,170.586,223.189"/>
<path d="M111.177,151.594c0,0,3.768,2.251,3.768-2.004c0-0.229,3.418,0.237,1.179-2.589c0,0,3.067-0.347,0.828-2.471  c0,0,2.004-0.59,2.827-3.298c0.823-2.708,1.654-2.589,2.952-1.885c1.298,0.712,1.298-0.704,1.408-1.882  c0.118-1.179,1.535-0.356,1.535-0.356s1.06-1.876,1.892-1.645c0.816,0.234,1.06,2.239,2.352,2.239c1.297,0,2.126-2.827,2.126-2.827  s1.054-0.822,2.117,0.588c1.06,1.417,1.413,3.417,1.413,3.417s0.832,1.06,1.417,1.179c0.588,0.113,0.707,0.935,1.535,1.054  c0.822,0.119,1.179-1.41,2.12-1.41c0.944,0,2.242,0.119,2.123,1.766c-0.119,1.648-0.238,3.768-0.238,3.768s0.947,0.238,1.889,0.941  c0.944,0.703,1.885,0.703,1.767,1.529c-0.119,0.829-0.475,1.06-1.535,2.001c-1.06,0.945-2.477,2.358-0.823,2.242  c1.654-0.122,4.006,0.234,3.418,1.407c-0.591,1.179-1.645,2.242-1.179,3.064c0.475,0.823,1.892,1.417,1.892,1.417  s0.822,0.704-0.356,1.292c-1.179,0.591-2.952,1.532-3.537,2.477c-0.588,0.941-1.297,1.882-1.654,2.352  c-0.35,0.475-1.298,1.297-1.298,1.297s-0.941,1.645,0.356,0.822c1.298-0.822,2.239-1.41,2.239-2.239  c0-0.822,0.823-1.054,1.298-0.703c0.475,0.353,2.001,1.297,0.475,2.12c-1.535,0.822-2.477,1.41-2.833,2.12  c-0.356,0.707-1.297,1.41-1.885,1.767c-0.591,0.353-0.709,1.298,0,2.12c0.707,0.822,2.47,2.114,1.885,3.649  c-0.587,1.529-1.535,1.529-1.767,3.649c-0.237,2.12,0.707,5.535,1.648,6.713c0.947,1.179,2.358,3.293,0.591,4.234  c-1.77,0.95-14.852,6.951-27.465-0.704c-2.418-1.471-0.237-3.293,0.469-4.709c0.71-1.411,3.298-5.888,2.476-7.179  c-0.825-1.298-1.648-1.767-1.178-3.183c0.472-1.417,2-1.882,1.651-3.18c-0.354-1.292-1.414-4-3.067-5.178  c-1.648-1.179-3.537-2.124-3.064-3.302c0.475-1.172,0.832-1.763,1.654-1.06c0.822,0.713,0.941,1.773,1.882,1.773  c0.945,0,1.654-0.941,1.535-1.654c-0.119-0.704-0.353-0.469-1.416-1.179c-1.06-0.704-1.651-1.876-2.358-2.82  c-0.704-0.947,0.119-1.77-1.179-2.714C111.762,153.477,111.177,152.185,111.177,151.594"/>
<path fill="#FFE000" d="M116.715,154.774c0,0-0.238,0.588-0.119,1.179c0.119,0.588-0.235,2.123-0.235,2.123s0.829,0.585,1.414-0.712  C118.363,156.072,118.481,154.893,116.715,154.774"/>
<path fill="#FFE000" d="M119.304,152.417c0,0-1.172,1.06-0.347,1.416c0.822,0.356,1.532,0,1.532,0l-0.119-1.529L119.304,152.417"/>
<path fill="#FFE000" d="M116.834,151.829c0,0-1.298,1.529-0.238,1.766c1.063,0.238,1.063-0.237,1.063-0.822  C117.659,152.185,117.422,151.829,116.834,151.829"/>
<path fill="#FFE000" d="M127.912,138.049c0,0,0.594,0.713,1.297,1.535c0.707,0.826,0.945,0.588,1.536-0.704  c0.588-1.297,1.41-1.885,2.004-1.535c0.584,0.356,1.297,0.594,1.297,2.001c0,1.416-0.594,3.064,0.234,3.886  c0.826,0.826,1.886,0.826,1.886,0c0-0.822,0.469-1.06,1.41-0.466c0.947,0.585,2.714,1.173,1.654,1.882  c-1.063,0.707-2.708,2.123-1.297,2.946c1.413,0.822,2.357,1.054,3.061,0.112c0.713-0.935,0-1.173,0.356-1.767  c0.356-0.584,1.417,0.119,1.882,1.179c0.475,1.06,0.125,1.417-0.466,2.004c-0.594,0.584-1.535-0.119-1.773,0.466  c-0.231,0.593,0.238,1.535-0.231,2.123c-0.472,0.591-2.239,0.941-2.477,1.645c-0.237,0.713-1.179,1.06-0.472,1.773  c0.709,0.704,0.941,1.41,1.416,0.941c0.472-0.472,0-1.179-0.237-1.764c-0.238-0.594-0.469-0.475,0.709-0.713  c1.179-0.237,1.648-0.822,2.004-0.356c0.354,0.475,0.585,1.069,1.882,0.832c1.298-0.238,1.298,0.347,1.417,1.06  c0.119,0.704,0.356,0.704-0.704,1.529c-1.069,0.823-2.951,1.645-3.308,2.589c-0.35,0.941-1.054,2.595-0.941,3.062  c0.119,0.475,0.237,0.475,0.709,0.356c0.469-0.118,0.35-0.822,0.469-1.535c0.119-0.704-0.119-1.41,0.709-1.179  c0.826,0.238,0.826,0.71,0.707,1.298c-0.119,0.594-0.475,1.416-0.941,1.886c-0.475,0.472-0.713,1.297-0.713,1.297  s-0.113,0.822-0.704,1.06c-0.588,0.238-1.06,0.238-1.179-0.237s-0.238-0.941-0.238-0.941s-0.825,0.235-0.588,0.941  c0.238,0.704,1.06,0.585,1.06,1.297c0,0.704,0,1.411-0.591,1.292c-0.588-0.119-1.648,0.119-1.648,0.119s0.119-2.004-0.237-2.471  c-0.348-0.475-1.179-0.944-1.526-0.237c-0.356,0.704,0,1.06,0.466,1.41c0.475,0.356,0.594,1.179,0.475,1.77  c-0.119,0.588-0.832,0.469-1.772,0.112c-0.941-0.35-2.001-1.526-2.358-3.768c-0.35-2.232-1.297-2.232-1.297-2.232  s-1.173-0.357-1.648-1.061c-0.472-0.703-0.941-1.06-0.234-2.001c0.71-0.944,1.179-1.529,1.179-2.354c0-0.829-1.06-1.297-1.773-0.354  c-0.704,0.941-1.054,2.12-0.585,3.884c0.472,1.767,1.06,2.004,1.179,3.177c0.119,1.179-0.469,1.179,0.234,2.827  c0.707,1.651,1.417,2.239,2.833,2.595c1.41,0.347,1.886,0.347,2.589,0.704c0.712,0.356,2.004,1.179,0.712,1.298  c-1.297,0.112-2.714,0.231-4.243,0.469c-1.535,0.238-6.25,0.585-6.25,0.585s-3.083,1.535-4.834-4.472  c-0.045-0.164-2.123-0.822-2.123-2.352c0-1.535-0.234-2.004,0.588-2.708c0.822-0.713,1.297-1.06,1.297-1.885  c0-0.829-0.941-2.12-0.941-2.12s-0.475-0.356,0.353-1.417c0.826-1.06,1.063-0.466,1.886-2.352c0.823-1.885,0.941-2.239,0.585-2.945  c-0.347-0.704-1.292-1.06-1.883-1.883c-0.588-0.822-1.06-0.822-0.706-1.647c0.35-0.829,0.35-2.12,1.647-2.952  c1.297-0.816,1.772-1.407,1.654-2.817c-0.119-1.417-0.594-1.654,0.237-1.773c0.822-0.113,0.347,0.594,1.06,0.594  c0.704,0,0.119-1.06,0.941-0.944c0.822,0.119,0.475,0.35,0.941,1.41c0.475,1.063,0.944,2.123,1.416,0.594  C127.446,141.113,126.499,138.287,127.912,138.049"/>
<path fill="#FFE000" d="M120.958,173.732c0,0-0.588,2.357,2.951,2.357c3.537,0,3.299-0.472,5.065-0.356  c1.77,0.119,2.83,0,4.715-0.234c1.882-0.238,2.357,0.119,3.18-0.469c0.825-0.594,0.944-0.594,1.535-0.594  c0.588,0,1.648,1.063,1.767,0.119c0.119-0.941-1.417-2.114-3.064-2.352c-1.654-0.234-2.948,0.588-5.065,0.707  c-2.126,0.119-3.305,0.704-6.013,0.585C123.315,173.376,122.255,173.029,120.958,173.732"/>
<path fill="#FFE000" d="M118.012,186.684c0,0,0.826,0.119,1.529-1.998c0.712-2.12,2.001-4.359,2.001-4.359s-0.822,4.947-1.526,6.244  c-0.713,1.292-0.356,3.174,0.704,3.412c1.06,0.238,1.772-0.356,2.01-1.882c0.229-1.529,0.466-3.302,0.466-3.302  s0.832-1.882,1.179,0.475c0.356,2.352-0.237,4.828,0.475,5.297c0.704,0.472,1.417,0.354,2.595,0.591  c1.179,0.238,2.589,0.707,2.351-2.239c-0.231-2.945,0.119-4.124,0.119-4.124l1.297,0.475c0,0,0-2.004-1.06-2.708  c-1.06-0.709,0.947-0.941,1.888,0.351c0.941,1.297,0.351,2.12,0.232,3.655c-0.119,1.529-0.119,4.472,1.297,4.353  s1.882-1.161,1.882-2.942c0-0.119,0.237,2.239,1.535,2.239c1.297,0,1.075-2.477-0.466-5.535c-0.119-0.234,1.883,1.736,3.418,0.35  c0.088-0.073,1.16-7.536-1.066-7.536c-0.119,0-3.886-0.35-6.363-0.469c-2.476-0.115-3.417-0.709-4.6-0.591  c-1.179,0.119-0.941,1.179-2.357,1.535c-1.416,0.348-3.299-0.825-4.359-0.237c-1.06,0.585-0.825,1.648-1.06,2.708  C119.898,181.505,116.596,185.392,118.012,186.684"/>
<path d="M136.635,161.131c0,0-1.416,1.654-0.231,1.535c1.173-0.118,1.292-0.356,1.882-0.822c0.588-0.475,0.826-1.772,0-1.892  C137.464,159.839,136.635,161.131,136.635,161.131"/>
<path d="M137.107,157.958c0,0-0.941,0.118-0.704,0.703c0.231,0.588,0.466,0.826,0.941,0.704c0.469-0.116,1.06-0.347,1.06-0.822  C138.405,158.076,137.577,157.958,137.107,157.958"/>
<path d="M133.571,158.661c0,0-1.529-0.119-1.417-1.297c0.119-1.179,0.238-0.941,0.941-1.764c0.712-0.826,0.832-0.707,1.535-0.588  c0.712,0.119,1.06,0.588,1.06,1.173c0,0.594-0.822,1.06-1.06,1.535C134.4,158.195,134.281,158.78,133.571,158.661"/>
<path d="M122.612,157.72c0,0-0.712,1.297,0,1.767c0.704,0.466,0.704,0.585,0.704,1.645c0,1.06-0.356,1.654,1.179,1.535  c1.535-0.118,2.476-0.237,2.476,0.232c0,0.472-1.06,0.238-0.822,1.416c0.232,1.179,0.585,5.769-0.237,5.888  c-0.822,0.119-0.356-0.941-1.06-2.239c-0.712-1.298-1.06-1.411-0.712-2.708c0.356-1.297-0.348-1.529-0.348-1.529  s0.119,0.823-0.594,0.823c-0.704,0-0.822-0.591-1.535-1.413c-0.704-0.826-1.173-0.826-1.173-0.826s0-0.466,0.944-0.704  c0.941-0.238,0.704-0.707,0.584-1.535c-0.118-0.823-1.179-1.173-1.06-1.876C121.077,157.482,121.78,157.245,122.612,157.72"/>
<path d="M123.315,154.774c0,0-0.475,1.061,0.356,2.004c0.822,0.941,0.704,2.12,0.822,2.708c0.119,0.585,0.237,1.764,0.941,1.764  c0.712,0,0.712-1.886,0.356-3.174c-0.356-1.297-0.238-0.944-0.941-1.654C124.138,155.715,123.909,154.537,123.315,154.774"/>
<path d="M129.797,151.125c0,0-1.172,0.238-0.941,1.767c0.238,1.526,0.591,2.708,1.298,2.47c0.704-0.231,0.947-1.647,0.822-2.352  C130.857,152.304,131.101,151.125,129.797,151.125"/>
<path d="M128.856,145.356c0,0-1.06,1.297-0.475,1.763c0.594,0.476,0.947,0.237,1.535-0.704c0.591-0.941,1.06-0.712,1.654,0.119  c0.585,0.822,0.235,1.529,0.348,2.352c0.125,0.822,0.475,1.417,1.179,0.119c0.712-1.298,1.535-2.471,0.356-3.649  C132.274,144.177,129.685,144.53,128.856,145.356"/>
<path d="M122.018,147.708c-0.25,1.298,0.475,2.833,1.417,3.417c0.941,0.588,0.822,1.179,1.179,2.114  c0.35,0.95,0.588,1.892,1.416,1.654c0.823-0.237,0.351-0.475,0-2.12c-0.356-1.648-0.475-1.648-0.356-2.945  c0.119-1.292,0.238-2.232-0.356-2.827c-0.585-0.585-0.822-0.941-1.407-0.229C123.315,147.476,122.137,147.12,122.018,147.708"/>
<path d="M135.929,179.857c0,0-0.709,2.827,0.119,3.296c0.823,0.472,1.417,0.704,1.648-0.588  C137.933,181.268,136.87,180.089,135.929,179.857"/>
<path d="M134.988,147.827c1.029,0.21,1.647,2.4,0,1.882C134.988,149.708,133.626,147.552,134.988,147.827"/>
<path d="M152.079,275.239c-0.71-0.707-1.414-2.474-3.299-4.009c-1.311-1.065-3.939-1.786-5.416-2.126  c0.52-0.966,0.701-1.76,0.701-1.76s0.354-2.936,0.704-7.054c0.356-4.13-2.827-2.596-5.184-1.304  c-2.357,1.304-6.601,4.002-9.193,7.53c-1.825,2.489-0.968,6.834-0.298,9.196c-1.299-1.466-3.175-3.874-3.945-5.419  c-0.737-1.464-0.256-4.277-0.006-5.458c2.779-0.552,3.774-1.487,3.774-1.487s2.714,0.232,2.714-1.888  c0-0.122,7.542-1.298,5.538-12.951c0,0,1.243-2.418-1.179-2.827c-0.417-0.067,0.28-5.757-4.478-8.364  c-4.947-2.705-7.31-1.645-7.78-1.529c-0.475,0.122-1.891-2.473-7.66-0.938c-5.775,1.523-9.196,6.104-9.196,8.833  c0,0.115-2.007,0-2.239,4.233c-0.238,4.24-0.238,7.304,1.529,8.833c1.77,1.529,2.595,3.174,4.597,2.711c0,0-0.216,1.529,2.239,1.529  c0.119,0,0.356,4.125,7.076,4.234c0.632,0.012,1.211,0,1.764-0.023c0,0.949,0,2.728,0,6.03c0,0.321,0.022,0.637,0.057,0.951  c-1.755-3.846-6.571-10.883-18.439-11.307c0,0-0.582,19.36,19.075,13.841c0.319,0.819,0.731,1.608,1.204,2.361l-3.194,0.637  c-15.083-4.831-14.846,9.662-14.846,9.662c16.144,6.823,15.203-6.957,15.203-6.957l4.976-0.505c1.844,2.121,3.813,3.821,4.695,4.982  c1.882,2.479,3.062,3.771,7.186,8.364c4.13,4.587,5.428,4.24,5.428,4.24s0-6.72-0.237-6.835c-5.702-2.851-6.957-7.298-8.374-8.48  c-0.939-0.781-2.188-2.497-3.268-3.907c0.516,0.058,0.994-0.04,1.408-0.208c1.17,0.713,2.516,0.484,3.515,0.583  c1.179,0.122,1.41-0.354,3.183,0.353c1.764,0.707,3.655,1.767,4.834,1.889c1.179,0.115,2.001-0.475,3.061-0.945  c1.063-0.469,2.004-1.176,3.774-1.651C153.845,277.828,152.785,275.945,152.079,275.239z"/>
<path fill="#FFFFFF" d="M126.38,262.056c-3.649,0-3.887-0.835-5.185-0.835s-2.004,0.475-3.655,0.36  c-1.026-0.075-2.227-0.738-2.543-1.849c0.03,1.53,1.176,3.29,5.842,3.969c8.3,1.193,8.933-2.656,8.832-4.329  C129.571,260.327,129.028,262.056,126.38,262.056z"/>
<path fill="#FFFFFF" d="M134.548,248.268c0.545,0.489,0.983,1.372,0.558,2.944c-0.506,1.852-1.06,1.767-1.535,2.949  s-0.119,1.882-0.704,3.649c-0.594,1.767-3.302,0.822-3.183,0.822c1.441,0,2.12-0.707,2.47-1.882c0.356-1.176,0-2.467,0.238-3.412  c0.237-0.95,1.535-2.003,1.654-2.827c0.069-0.505-0.209-1.446-0.436-2.104c-1.539,0.08-3.084-0.491-2.985-0.491  c5.185,0,4.594-2.942,4.362-4.002c-0.238-1.06-1.892-3.295-2.833-4.118c-0.941-0.828-2.827-2.705-5.065-3.18  s-4.012,2.827-4.012,2.827c1.298-1.536,3.07-1.304,4.25-0.829c1.179,0.469,1.647,1.889,2.357,2.473  c0.707,0.591,0.822,0.591,2.47,1.292c1.654,0.707,1.06,3.887,1.06,3.887s-0.347-1.76-1.173-2.467  c-0.829-0.713-2.357-0.469-3.417-1.176c-1.06-0.707-0.947-2.473-2.01-3.302c-1.06-0.828-3.537,0.122-3.537,0.122  c0.356-2.011-1.535-3.655-2.476-3.771c-0.941-0.116-3.649,1.529-5.769,2.589c-2.129,1.06-2.476,0.591-4.249,3.418  c-1.764,2.827,1.416,5.062,1.416,5.062s-4.953-2.942-4.478,4.594c0.324,5.246,2.619,6.57,4.723,6.648  c-0.196-1.19-0.464-2.608-0.714-3.237c-0.472-1.169-1.066-2.242-1.179-3.059c-0.119-0.828-0.591-3.058,0.825-1.06  c1.41,1.999,0.704,1.176,1.06,2.583c0.35,1.419,0,2.132,0.466,2.949c0.414,0.722,1.188,1.759,2.473,1.269  c0.011-0.004,0.02-0.008,0.031-0.013c0.179-0.071,0.367-0.171,0.566-0.306l-0.147,0.127c0.008-0.004,0.017-0.008,0.025-0.012  c0.001-0.002,0.002-0.004,0.004-0.006c0,0,0,0.004,0,0.005c0.147-0.068,0.232-0.114,0.232-0.114s-0.118,0.157-0.267,0.42  c-0.073,0.785-0.139,2.805,1.096,2.991c1.529,0.232,2.946-0.475,4.6-0.231c1.645,0.231,2.942,0.932,4.358,0.932  c1.39,0,2.892,0.56,3.95-2.305c-0.028-0.179-0.057-0.284-0.057-0.284c0.036,0.054,0.072,0.099,0.108,0.15  c0.003-0.01,0.007-0.018,0.011-0.028c0,0,0.002,0.018,0.003,0.048c2.792,3.891,5.769-1.955,6.003-3.228  c0.238-1.292,0.476-1.651,1.061-4.362C137.341,248.526,136.299,247.812,134.548,248.268z M117.422,241.916  c0,0-3.302-0.237-5.891,1.645c0,0,1.292-2.241,4.243-2.942c0,0,1.417-2.827,5.422-3.065  C121.195,237.554,117.303,239.905,117.422,241.916z"/>
<path d="M117.071,245.681c0,0,3.649,3.654-1.417,5.763c0,0,6.125,0.359,6.125,5.19c0,0,1.297-5.775,6.369-3.424  c0,0-4.834-4.35-1.06-8.121C127.089,245.09,121.314,247.441,117.071,245.681"/>
<path fill="#FFE000" d="M122.018,247.326c0,0,2.358,0.475,2.239,2.71c-0.118,2.236-1.297,2.121-2.476,2.121  s-2.358-1.298-2.358-2.236C119.422,248.977,120.254,247.326,122.018,247.326"/>
<path fill="#18A07A" d="M108.936,286.302c0,0,0.707-10.24,10.021-8.126c0,0-1.417,2.242-4.6,2.242c-0.119,0,0.588,1.882-2.945,3.179  l2.004,2.121c0,0,0.238-4.119,3.774-4.119c0.113,0,1.173-2.827,2.589-2.948C119.779,278.65,120.72,291.133,108.936,286.302"/>
<path fill="#18A07A" d="M106.459,263.579c0,0,12.845,0.122,14.261,10.125C120.72,273.704,107.285,277.127,106.459,263.579"/>
<path fill="#18A07A" d="M140.881,273.472c0,0-0.709-2.011,0.231-2.71c0.948-0.707,1.417-0.238,2.595,0  c1.179,0.237,2.833,0.7,4.478,2.004c1.654,1.292,4.368,3.765,1.773,4.703c-2.595,0.95-4.249,2.596-7.786,0.95  c-3.344-1.559-4.24-1.413-4.946-1.181c-0.704,0.231-2.827-0.47-0.119-1.414c2.714-0.938,3.183-1.176,4.6-0.938  c1.413,0.231,2.12,0.822,2.595,1.291c0.466,0.475,2.12,0.591,0.941-0.584c-1.179-1.182,1.06-0.353,1.06-0.353  s2.239-0.123,0.119-1.061C144.302,273.229,142.767,273.35,140.881,273.472"/>
<path fill="#18A07A" d="M131.451,276.177c0,0-1.767-3.411,0-6.823c1.764-3.423,3.893-5.306,7.186-7.42  c3.305-2.12,4.499-3.613,4.249-0.353c-0.238,3.058-0.594,4.703-0.594,4.703s-0.704,2.241-2.352,4.239  c-1.654,1.999-6.013,6.007-6.013,6.007S132.868,278.65,131.451,276.177"/>
<path fill="#18A07A" d="M123.791,265.699c0,0-0.713,5.653,0.704,8.358c1.417,2.71,3.887,5.306,5.303,6.597  c1.417,1.298,3.071,3.771,4.362,5.185c1.294,1.407,1.185,2.473,2.948,3.765c1.767,1.304,4.834,4.356,4.834,4.356l0.119-2.711  c0,0-1.651-1.176-3.774-3.527c-2.12-2.357-2.833-4.124-4.127-5.306c-1.292-1.175-2.117-3.411-4.005-5.062  c-1.886-1.645-3.184-3.649-4.362-5.531c-1.179-1.882-1.298-4.593-0.829-6.476L123.791,265.699"/>
<path d="M110.118,266.99c0,0,0.822,2.121-0.594,2.242c-1.41,0.122,4.953-0.585,6.482,2.473c0,0,3.417-0.244,4.365,1.413  c0,0-2.711-2.357-3.18-4.008c-0.048-0.159-0.713,1.651-3.417-0.354C111.059,266.759,110.118,266.99,110.118,266.99"/>
<path d="M132.393,275.001c0,0-0.707-1.419,0.119-2.479c0.822-1.061,1.889-1.408,1.889-1.408s-0.354-3.417,0.35-4.124  c0.704-0.706,2.477-0.584,2.477-0.584s1.297-1.998,1.647-2.589c0.356-0.591,2.477-0.944,1.77,0.469  c-0.704,1.413-1.06,1.882-2.12,2.705c-1.06,0.829-2.595,2.596-2.595,2.596s-0.585,1.291-0.238,1.875  c0.356,0.598-0.119,1.304-0.822,2.011C134.159,274.179,133.809,274.764,132.393,275.001"/>
<path d="M202.321,258.913c0,0-1.62-8.517,2.352-12.476c0.122-0.116-1.182,3.996,0.238,8.474c0,0,2.827-1.767,4.246-1.767  c0,0-0.829,4.125,0,6.598c0,0,1.767-2.126,2.473-1.767c0.098,0.055,0.354,5.178,0.951,6.945c0.036,0.165,1.998-2.12,3.527-1.645  c1.535,0.469,0.707,3.534,0.707,3.534s2.004,0.938,1.651,3.29c-0.347,2.364-0.347,2.705,0.597,3.302  c0.938,0.585,0.701,1.298,0.463,2.705c-0.232,1.414-0.463,3.54-0.463,3.54s2.681-0.506,3.644,0.469  c0.122,0.116,0.243-4.24-1.523-9.54c-1.779-5.3,0.244-6.226-0.597-7.066c-0.109-0.122-8.382-3.497-7.658-10.003  c0.47-4.246,3.18-5.775,3.18-5.775s-0.116-2.942-2.71-6.128c0,0-1.536-1.17-0.585-2.467c0.939-1.298-0.122-1.761,2.12-2.236  c2.236-0.469,6.726-1.292,8.724-1.292c2.004,0,4.362,0,10.137,3.29c0,0,2.473,1.414,0.231,4.008  c-2.241,2.583-3.063,5.532-3.063,5.532s1.882,2.242,1.772,5.184c-0.122,2.943-1.889,8.358-7.189,9.534c0,0-0.475,3.887,0.341,6.123  l0.598-2.114c0,0,0.219-1.548,1.772,0c0.109,0.122,1.882-4.124,1.882-4.124s0.707-1.645,1.888-0.116  c1.176,1.523,1.529,0.231,1.767-0.944c0.231-1.176,0.938-4.124,2.357-6.007c1.408-1.882,2.004-0.59,1.883,0.238  c-0.116,0.822,0.585,2.352,1.182-0.238c0.59-2.588,1.766-2.352,1.766-2.352s1.182,0.116,0.707,2.236  c-0.475,2.12,0.354,2.235,1.291,1.998c0.951-0.238,4.13-1.998,4.959-2.23c0.829-0.243,1.998-0.475,2.236,0.347  c0.238,0.823-2.942,2.59-3.655,4.002c-0.701,1.42-2.942,4.831,1.303,3.412c0,0-3.423,4.13-0.713,7.658c0,0-7.657-1.767-4.836,5.769  c0,0-3.655-4.825-3.527,1.767c0,0-3.308-3.058-2.364,1.297c0,0-4.002-2.589-3.886,1.298c0,0-3.296-3.418-4.24,2.473  c-0.95,5.884-4.015,8.126-7.779,7.066c0,0,2.827-1.657,2.12-4.009c-0.707-2.357-2.595-3.996-5.068-3.765  c-2.479,0.232-5.191,3.302-5.191,3.302s1.182-3.777-2.473-2.827c0,0,1.743-3.936-5.421-0.359c-0.244,0.116,4.355-5.185-4.594-3.064  c0,0,4.002-4.825,5.885-5.653c0,0-2.352-3.692-8.839-3.18c-0.128,0.012,1.06-1.882,4.478-3.527c0,0-0.707-2.827-4.362-3.302  c0,0,1.419-1.054,2.839-1.054c0.116,0-0.719-3.892,0.116-5.3C199.964,257.974,201.255,258.913,202.321,258.913"/>
<path fill="#18A07A" d="M202.078,269.634c0,0,4.13,1.23,5.659,4.24c0.061,0.098-2.479,3.18-2.479,3.18s2.607,0.701,2.723,1.998  c0,0,4.124-0.475,5.184,2.596c0,0,2.693-0.598,4.118-0.598c0.122,0-5.66-7.359-5.66-7.359l5.544,3.594c0,0,1.176-0.938,0.237-4.593  c-0.901-3.546-1.998-3.534-1.998-6.47c0-0.128-1.888,0.585-2.132,1.993c0,0-3.179-2.59-2.942-6.001c0,0-1.407,0.469-1.536,1.645  c0,0-3.088-2.736-1.528-8.358c0.042-0.159-1.182,0-1.767,1.645c0,0-1.182-0.115-1.888,0.122c0,0-0.573,2.114,0.706,4.594  c0.061,0.103-2.241-0.244-3.302-0.122c0,0,2.364,3.064,2.596,4.709C203.851,268.099,203.491,269.043,202.078,269.634"/>
<path fill="#18A07A" d="M223.887,287.654c0,0,2.717-2.01,2.833-5.421c0.116-3.411,0.701-2.717,1.645-4.478  c0.945-1.767,2.955-3.649,2.955-6.354c0-2.71-0.123-7.188-2.121-3.771c-2.01,3.412-1.779,3.649-2.01,5.416  c-0.238,1.767-0.945,2.236-1.767,4.009c-0.829,1.767-1.535,4.465-1.535,5.77C223.887,284.115,223.887,287.654,223.887,287.654"/>
<path fill="#18A07A" d="M230.491,277.054c0,0,0.353,1.401,2.948-0.122c3.814-2.253,4.593-1.182,6.598-3.533  c0,0-0.75-2.193,0.591-3.533c0.122-0.116,1.535-0.939,3.771-0.475c0,0-0.719-2.705,0.237-4.119c0.061-0.097-4.02-1.767,0.822-6.591  c0.116-0.122-4.435,1.176-5.184-0.829c-0.049-0.098-0.487,1.182-1.998,0.95c-0.123-0.019,0.084,2.498-1.304,3.881  c-0.116,0.115-1.889-1.408-2.121,0.944c-0.237,2.352-1.888,3.412-1.888,3.412s-0.707,2.352,0.591,2.595  c1.297,0.232,1.529-1.06,2.467-2.948c0.951-1.883,0.597-0.347,1.895-1.297c1.298-0.945,1.888-2.004,2.358-1.646  c0.475,0.354,0.237,1.298-0.938,2.121c-1.182,0.822-2.363,0.944-2.242,2.004c0.116,1.06,0.231,1.06-1.773,2.229  c-2.004,1.182-2.12,2.12-2.004,2.948c0.122,0.829-0.231,1.414-1.414,1.998C230.734,275.641,230.259,276.579,230.491,277.054"/>
<path fill="#18A07A" d="M224.24,273.752c0,0-3.18-6.007-1.882-11.776c0,0-8.132-1.651-7.67-7.658c0.475-6.006,3.54-1.06,3.54-1.06  s-0.585-3.851,2.954-1.645c0.104,0.062-0.475-2.705,1.767-3.058c2.236-0.359,2.473,1.876,2.473,1.876s2.12-3.058,2.717,0.122  c0,0,3.18-2.12,2.821,2.827c-0.348,4.946-0.726,5.884-6.598,8.48c-0.11,0.042-0.829,5.3-0.122,7.651  C224.947,271.87,225.068,272.102,224.24,273.752"/>
<path d="M206.915,267.868c0,0,0.591,1.767,1.413,2.467c0.829,0.707,1.657,1.407,2.242,0.707c0.584-0.707-0.123-1.529-1.061-2.236  C208.566,268.099,206.915,267.868,206.915,267.868"/>
<path fill="#18A07A" d="M216.345,249.616c0,0-0.354,1.651,1.297,1.292c0,0,0.457-1.06,1.76-1.06  C219.525,249.848,218.703,247.143,216.345,249.616"/>
<path fill="#8279B3" d="M217.875,246.789c0,0,1.772,0.354,3.064,0c1.303-0.353,1.889-0.469,3.424-0.243  c1.522,0.243,2.242-0.316,2.942-0.226c1.894,0.226,2.235,0.469,3.064-1.188c0.828-1.646,0.951-4.234,0.828-5.178  c-0.122-0.938-2.833,1.419-3.302,2.004c-0.475,0.591,0.585-3.418-1.413-4.362c0,0-2.358,0.834-3.065,2.241  c0,0-2.235-4.002-4.831,1.176c-0.061,0.11-4.959-3.643-3.18,0.945C217.167,246.546,217.875,246.789,217.875,246.789"/>
<path d="M241.49,63.571l-0.252-1.47c-0.003,0-10.677-0.369-22.523-0.605c0.439-0.282,0.877-0.562,1.308-0.834  c2.046-1.294,3.979-2.464,5.545-3.329c1.548-0.865,2.817-1.424,3.228-1.476l-0.108-1.511l-6.612-0.104l-2.525-3.146l-0.564,0.327  c0,0-4.296,2.479-8.593,4.966c-0.605,0.351-1.209,0.701-1.803,1.045c-2.143-0.687-4.502-1.213-7.046-1.576  c-0.768-2.755-3.046-4.845-6.223-6.226c-3.323-1.446-7.669-2.187-12.623-2.189c-4.615,0-9.756,0.648-15.067,2.01  c-7.827,2.008-14.65,5.202-19.562,8.865c-4.893,3.667-7.965,7.801-7.991,11.898c0,0.56,0.061,1.119,0.186,1.669h0l0,0.001l0,0  c0,0.002,0.001,0.004,0.001,0.007c-7.088,5.408-11.456,11.456-11.481,17.309c0,0.82,0.087,1.633,0.271,2.436  c0.967,4.25,4.391,7.489,9.315,9.631c4.937,2.151,11.441,3.264,18.868,3.268c6.923-0.002,14.65-0.976,22.641-3.022  c11.753-3.016,22-7.818,29.352-13.304c7.332-5.488,11.864-11.66,11.89-17.629c0-0.152-0.019-0.302-0.024-0.454  c0.287-0.002,0.571-0.007,0.861-0.007c6.016-0.001,12.635,0.486,18.249,2.033l0.704-1.305l-5.554-4.883L241.49,63.571z"/>
<path fill="#FFE000" d="M206.792,58.479c-0.837,0.486-1.623,0.943-2.308,1.342c-0.724,0.421-1.33,0.775-1.791,1.046l-0.764-3.412  C203.651,57.721,205.279,58.061,206.792,58.479z"/>
<path fill="#FFE000" d="M219.598,70.583c0.026,5.14-4.111,11.074-11.278,16.409c-7.149,5.339-17.238,10.081-28.819,13.05  c-7.873,2.018-15.481,2.974-22.262,2.974c-7.272,0.001-13.597-1.104-18.259-3.14c-4.674-2.044-7.621-4.958-8.439-8.574  c-0.157-0.688-0.232-1.387-0.232-2.098c-0.026-4.905,3.751-10.532,10.325-15.673l2.583,11.526c0.666,2.928,3.017,5.128,6.327,6.566  c3.322,1.446,7.667,2.187,12.622,2.188c4.616,0,9.758-0.649,15.076-2.009c7.819-2.009,14.641-5.205,19.551-8.869  c4.793-3.592,7.831-7.632,7.979-11.648c0.831-0.116,2.451-0.325,4.633-0.536c2.704-0.263,6.257-0.521,10.17-0.601  C219.581,70.294,219.598,70.437,219.598,70.583z"/>
<path fill="#FFE000" d="M141.314,71.649l0.434-0.099c-0.1-0.437-0.149-0.879-0.149-1.333c-0.026-3.268,2.653-7.164,7.38-10.676  c4.708-3.517,11.375-6.652,19.029-8.612c5.193-1.331,10.216-1.962,14.689-1.962c4.799-0.001,8.965,0.731,12.013,2.062  c3.06,1.338,4.936,3.218,5.454,5.509h0.001l0.006,0.029c0.092,0.428,0.14,0.861,0.14,1.303c0.026,3.271-2.653,7.167-7.379,10.682  c-4.71,3.516-11.375,6.649-19.03,8.608c-5.201,1.333-10.225,1.964-14.697,1.964c-4.797,0.001-8.961-0.729-12.006-2.062  c-3.059-1.339-4.933-3.219-5.45-5.51L141.314,71.649z"/>
<path fill="#004895" d="M195.88,81.714c-4.707,3.516-11.371,6.651-19.018,8.614c-5.201,1.33-10.227,1.961-14.699,1.96  c-4.801,0.003-8.967-0.729-12.014-2.06c-3.06-1.339-4.935-3.217-5.45-5.506l-1.946-8.684c1.038,0.96,2.339,1.768,3.837,2.419  c3.32,1.446,7.664,2.187,12.614,2.189c4.616-0.002,9.759-0.65,15.075-2.012c7.825-2.006,14.649-5.199,19.561-8.863  c3.596-2.694,6.21-5.642,7.353-8.644l0.246,1.097l0,0l0.814,3.78l0.981,4.556c0.012,0.158,0.025,0.315,0.025,0.476  C203.286,74.305,200.607,78.2,195.88,81.714z"/>
<path fill="#004895" d="M237.605,69.971l-5.133-4.512l5.007-1.956c-2.42-0.075-5.861-0.177-9.826-0.279  c-3.456-0.089-7.308-0.177-11.219-0.249c-3,1.967-5.961,3.979-8.183,5.525c-0.51,0.354-0.985,0.688-1.414,0.991  c3.241-0.375,8.841-0.892,15.119-0.893C227.032,68.601,232.542,68.936,237.605,69.971z"/>
<path fill="#F29531" d="M204.516,69.281c0.292-0.211,0.641-0.462,1.042-0.747l0,0c1.235-0.878,2.954-2.073,4.907-3.401l0,0  c3.905-2.655,8.737-5.838,12.478-8.049l0,0c0.81-0.473,1.556-0.9,2.235-1.271l0,0l-3.842-0.061l-2.153-2.684  c-1.271,0.733-4.496,2.597-7.775,4.495l0,0c-3.521,2.038-7.15,4.146-8.366,4.867l0,0L204.516,69.281L204.516,69.281z"/>
<path d="M49.183,77.428l-17.35,17.996l-1.31-1.264l0.423-0.436c2.296-2.385,2.278-3.439-0.104-5.742l-12.391-11.94  c-2.388-2.293-3.442-2.275-5.739,0.106l-0.356,0.375l-1.31-1.267l10.974-11.383l1.304,1.267l-0.551,0.567  c-2.293,2.382-2.275,3.442,0.106,5.739l12.559,12.101c2.013,1.947,2.376,1.971,3.868,0.423l3.494-3.631  c1.684-1.739,2.193-2.738,2.199-4.09c0.009-1.353-0.234-3.856-0.597-5.565l1.328-1.377L49.183,77.428"/>
<path d="M52.756,38.011l9.756-7.125l1.066,1.465l-0.262,0.195c-2.781,2.032-2.888,3.317-0.436,6.674l5.09,6.963  c2.887,3.953,3.643,5.537,3.832,8.169c0.25,3.981-1.879,7.786-6.171,10.923c-6.25,4.569-12.245,4.897-16.12,0.862  c-0.625-0.698-1.297-1.542-2.202-2.781l-6.71-9.19c-2.099-2.863-2.772-3-5.41-1.072l-0.262,0.186l-1.072-1.465l11.782-8.607  l1.075,1.465l-0.189,0.143c-2.525,1.84-2.696,2.952-0.768,5.583l6.796,9.302c2.251,3.085,3.299,3.887,5.333,4.304  c2.208,0.405,4.608-0.25,6.948-1.958c4.106-3,5.233-7.057,3.101-10.929c-0.555-0.926-0.713-1.212-2.221-3.283l-4.792-6.555  c-2.696-3.686-4.005-4.06-6.792-2.022l-0.301,0.219L52.756,38.011"/>
<path d="M93.404,41.321c1.453,2.976,2.406,3.338,5.428,1.867l1.002-0.493l0.801,1.633l-15.129,7.386l-0.798-1.633l1.048-0.512  c2.976-1.456,3.32-2.452,1.864-5.428l-9.08-18.608l-4.398,2.145c-3.731,1.821-4.012,2.528-2.614,7.405l-1.724,0.837l-3.113-8.185  l1.343-0.655c0.936,0.323,1.185,0.305,2.364-0.268l1.066-0.469l18.778-9.165l0.667-0.323c0.673-0.329,1.008-0.804,1.096-1.472  l1.34-0.654l4.542,7.483l-1.632,0.798c-3.113-4.03-3.756-4.292-7.024-2.693l-4.904,2.395L93.404,41.321"/>
<path d="M114.744,7.892c9.458-2.714,17.685,1.286,20.1,9.713c2.495,8.702-2.763,17.091-12.494,19.881  c-9.546,2.739-18.017-1.243-20.375-9.488C99.441,19.165,104.79,10.743,114.744,7.892 M122.786,35.278  c5.601-1.611,7.879-7.207,5.827-14.38c-0.648-2.245-1.678-4.322-3.089-6.202c-3.113-4.246-6.999-5.799-11.303-4.572  c-5.696,1.636-8.078,7.024-6.144,13.792C110.547,32.525,116.465,37.088,122.786,35.278z"/>
<path d="M146.435,25.245c0.274,3.396,1.124,4.076,4.94,3.808l0.149,1.815l-11.246,0.917l-0.152-1.815l0.42-0.031  c2.745-0.225,3.335-0.975,3.08-4.087l-1.669-20.454c-1.076-0.566-2.361-0.792-3.795-0.673l-0.149-1.809l9.577-0.786l20.572,18.209  l-1.143-14.036c-0.268-3.302-0.972-3.856-4.69-3.549l-0.512,0.043l-0.149-1.816L173.665,0l0.146,1.815l-0.515,0.045  c-3.344,0.268-3.731,0.722-3.463,3.972l1.921,23.518l-2.506,0.208L145.03,8.09L146.435,25.245"/>
<path d="M205.782,26.695c-0.511,3.268,0.061,4.115,3.375,4.633l1.108,0.177l-0.28,1.794l-16.631-2.601l0.28-1.794l1.146,0.18  c3.277,0.511,4.13-0.113,4.642-3.387l3.192-20.454l-4.837-0.762c-4.093-0.637-4.727-0.219-6.372,4.578l-1.889-0.298l2.126-8.492  l1.481,0.231c0.578,0.798,0.792,0.923,2.083,1.13l1.145,0.222l20.64,3.231l0.743,0.113c0.73,0.119,1.279-0.079,1.735-0.579  l1.481,0.231l-0.561,8.739l-1.803-0.28c-0.244-5.09-0.628-5.666-4.215-6.226l-5.397-0.843L205.782,26.695"/>
<path d="M244.892,12.357c9.271,3.308,13.627,11.349,10.685,19.607c-3.04,8.522-12.202,12.284-21.736,8.885  c-9.357-3.338-13.926-11.499-11.039-19.582C225.885,12.613,235.145,8.885,244.892,12.357 M235.486,39.308  c5.483,1.953,10.6-1.273,13.104-8.297c0.786-2.196,1.151-4.493,1.103-6.838c-0.055-5.263-2.315-8.793-6.53-10.298  c-5.581-1.989-10.655,1.005-13.019,7.637C227.14,29.945,229.291,37.1,235.486,39.308z"/>
<path d="M263.874,26.695l0.146-1.225c0.219-2.263-0.207-3.344-1.84-4.334l-0.366-0.219l0.938-1.553l10.612,6.433l-0.95,1.554  c-1.084-0.551-1.712-0.494-2.12,0.18c-0.171,0.28-0.335,0.731-0.359,1.042l-0.061,0.73l-1.943,19.65l5.727-3.673l1.292-12.738  c0.256-2.684,0.037-3.582-1.09-4.316l0.944-1.553l17.459,10.591l-0.938,1.554c-1.676-0.582-2.546-0.393-4.771,1.029l-6.494,4.136  l-0.968,11.036l14.212-10.743c0.603-0.454,0.987-0.822,1.224-1.221c0.707-1.155,0.28-2.071-1.376-3.125l0.945-1.553l8.053,4.883  l-0.944,1.553c-1.987-1.042-3.363-0.728-5.983,1.228L274.913,61.37l-2.632-1.596l1.054-11.358l-9.467,6.25l-2.674-1.618  L263.874,26.695 M285.366,37.66c0.524-0.335,0.847-0.579,0.987-0.822c0.316-0.518-0.019-1.048-1.133-1.724l-2.114-1.282  c-1.078-0.649-1.663-0.683-1.998-0.119c-0.067,0.119-0.116,0.198-0.128,0.299l-0.036,0.417l-0.073,0.393l-0.512,5.964L285.366,37.66  z"/>
<path d="M295.223,68.321c-2.339,2.464-2.278,3.548,0.457,6.226l-1.261,1.315l-8.169-7.785l1.261-1.316l0.305,0.286  c1.986,1.898,2.942,1.84,5.093-0.417l14.157-14.858c-0.286-1.179-0.974-2.285-2.022-3.284l1.255-1.316l6.951,6.625l0.103,27.48  l9.723-10.201c2.279-2.394,2.224-3.286-0.475-5.863l-0.366-0.35l1.249-1.316l8.706,8.297l-1.249,1.316l-0.372-0.357  c-2.43-2.312-3.021-2.299-5.275,0.064l-16.278,17.085l-1.827-1.733l-0.085-32.357L295.223,68.321"/>
<path d="M9.339,280.435c-3.214,1.383-3.524,2.071-2.233,5.075l0.094,0.207l-1.672,0.718L0,273.582l1.672-0.719l0.131,0.305  c0.993,2.314,1.767,2.692,3.713,1.9l1.066-0.463l16.281-6.988c2.702-1.164,3.195-2.138,2.202-4.453l-0.094-0.213l1.672-0.713  l9.285,21.59l-6.004,2.583l-0.661-1.547l0.539-0.28c2.395-1.285,2.751-1.986,1.834-4.24l-0.683-1.584l-2.763-6.427l-9.768,4.197  l2.245,5.227c1.642,3.813,2.327,4.228,5.06,3.155l0.737,1.718l-8.522,3.662l-0.734-1.712l0.21-0.092  c2.315-0.999,2.495-1.992,1.023-5.415l-2.376-5.532L9.339,280.435"/>
<path d="M47.492,300.252c5.62,8.077,4.484,17.155-2.714,22.162c-7.429,5.154-17.076,2.888-22.851-5.421  c-5.666-8.151-4.63-17.46,2.421-22.358C31.891,289.396,41.583,291.748,47.492,300.252 M24.16,316.688  c3.333,4.789,9.363,5.142,15.489,0.877c1.916-1.327,3.557-2.972,4.873-4.916c3.024-4.32,3.244-8.499,0.686-12.172  c-3.381-4.867-9.25-5.391-15.035-1.371C22.82,304.212,20.411,311.291,24.16,316.688z"/>
<path d="M71.114,326.8c7.319,6.58,8.297,15.675,2.44,22.193c-6.049,6.732-15.958,6.732-23.488-0.03  c-7.383-6.646-8.507-15.924-2.769-22.309C53.435,319.82,63.411,319.88,71.114,326.8 M52.177,348.159  c4.334,3.886,10.286,2.851,15.275-2.705c1.559-1.73,2.771-3.71,3.612-5.897c1.953-4.898,1.203-9.016-2.126-12.013  c-4.405-3.96-10.237-3.12-14.947,2.12C48.01,336.322,47.285,343.76,52.177,348.159z"/>
<path d="M89.042,368.537c-1.627,2.881-1.383,3.881,1.535,5.525l0.975,0.561l-0.893,1.584L76,367.921l0.899-1.584l1.011,0.572  c2.888,1.627,3.899,1.347,5.532-1.535l10.183-18.033l-4.261-2.406c-3.613-2.041-4.356-1.87-7.582,2.042l-1.663-0.938l4.983-7.207  l1.297,0.737c0.262,0.95,0.423,1.146,1.56,1.791l0.993,0.615l18.19,10.277l0.648,0.366c0.649,0.366,1.234,0.371,1.834,0.073  l1.297,0.731l-3.6,7.98l-1.584-0.896c1.559-4.843,1.41-5.52-1.761-7.311l-4.746-2.687L89.042,368.537"/>
<path d="M114.607,355.792c7.225,1.553,7.862,1.699,11.358,2.687l0.761,0.219c4.161,1.237,6.409,2.193,8.583,3.716  c2.916,1.979,4.183,4.934,3.369,7.657c-0.816,2.771-3.061,3.954-7.018,3.661l-0.024,0.085c4.011,2.211,5.915,5.982,4.84,9.614  c-1.246,4.203-5.745,6.415-11.233,5.568c-1.066-0.171-2.452-0.433-4.149-0.938l-15.906-4.758l0.518-1.749l0.179,0.061  c3.798,1.121,5.489,0.5,6.299-2.224l4.929-16.63c1.005-3.406,0.706-4.027-2.739-5.05l-1.072-0.317l0.518-1.742L114.607,355.792   M118.649,380.233c-1.06,3.582-0.472,4.722,2.745,5.684c4.024,1.193,6.926-0.39,8.099-4.368c0.941-3.174-0.088-6.25-2.559-7.609  c-1.054-0.56-1.87-0.901-3.975-1.522c-0.761-0.226-1.072-0.317-1.846-0.494L118.649,380.233z M121.667,370.041  c1.063,0.36,1.672,0.591,2.522,0.847c1.654,0.487,3.049,0.706,4.036,0.651c1.77-0.048,3.362-1.48,3.954-3.497  c1.06-3.57-0.853-6.141-5.507-7.511c-0.719-0.213-1.072-0.316-2.046-0.457L121.667,370.041z"/>
<path d="M148.862,383.145l-2.492,5.233c-0.347,0.719-0.597,1.352-0.633,1.675c-0.119,1.212,1.078,1.888,3.911,2.168l0.649,0.067  l-0.183,1.816l-12.345-1.243l0.183-1.804l0.698,0.067c2.272,0.231,3.445-0.688,4.977-3.862l10.137-21.297l-0.38-1.396l6.826,0.682  l6.93,24.49c0.905,3.144,1.879,4.179,4.316,4.655l-0.173,1.803l-15.132-1.499l0.18-1.815l1.578,0.158  c1.999,0.195,2.833-0.231,2.964-1.486c0.037-0.415-0.067-1.176-0.317-2.042l-1.617-5.367L148.862,383.145 M154.981,370.212  l-4.928,10.429l8.12,0.805L154.981,370.212z"/>
<path d="M200.506,393.732l-24.904,2.188l-0.159-1.815l0.604-0.055c3.295-0.287,3.972-1.097,3.685-4.399l-1.498-17.136  c-0.293-3.302-1.097-3.978-4.398-3.691l-0.509,0.048l-0.162-1.815l15.754-1.383l0.159,1.816l-0.792,0.067  c-3.302,0.292-3.984,1.097-3.686,4.392l1.517,17.38c0.244,2.791,0.5,3.046,2.644,2.857l5.014-0.445  c2.418-0.208,3.454-0.628,4.35-1.639c0.896-1.017,2.358-3.064,3.199-4.588l1.913-0.17L200.506,393.732"/>
<path d="M231.051,386.368l-24.148,6.421l-0.469-1.755l0.584-0.164c3.199-0.847,3.722-1.761,2.875-4.959l-4.416-16.631  c-0.847-3.199-1.755-3.734-4.965-2.881l-0.494,0.134l-0.463-1.755l15.279-4.057l0.469,1.755l-0.768,0.207  c-3.198,0.847-3.734,1.754-2.881,4.959l4.472,16.862c0.725,2.699,1.023,2.912,3.094,2.352l4.862-1.292  c2.351-0.621,3.302-1.207,4.008-2.364c0.707-1.151,1.797-3.411,2.376-5.068l1.839-0.487L231.051,386.368"/>
<path d="M275.51,354.58c0.938,2.309,1.779,5.995,2.059,8.639c-0.755,0.195-1.626,0.548-2.546,1.097  c-0.597,0.359-1.193,0.822-1.942,1.487l-1.201,0.986c-1.036,0.896-2.211,1.755-3.29,2.4c-8.176,4.874-17.935,2.998-22.26-4.252  c-4.398-7.365-1.079-17.173,7.53-22.308c2.284-1.365,4.075-2.011,7.158-2.486c0.932-0.177,1.212-0.238,1.492-0.408  c0.359-0.213,0.45-0.433,0.536-0.92l1.012-0.597l4.539,6.798l-1.56,0.932c-3.649-3.198-7.828-3.747-11.678-1.456  c-5.72,3.424-7.061,10.1-3.29,16.423c3.857,6.446,11.222,8.773,16.948,5.362c3.685-2.206,5.446-6.08,4.886-10.746L275.51,354.58"/>
<path d="M304.568,339.947l-18.471,16.844l-1.219-1.346l0.439-0.402c2.449-2.229,2.498-3.29,0.268-5.732l-11.6-12.714  c-2.235-2.442-3.289-2.497-5.738-0.262l-0.372,0.347l-1.224-1.34l11.672-10.661l1.23,1.34l-0.585,0.536  c-2.448,2.236-2.498,3.283-0.262,5.739l11.751,12.878c1.889,2.071,2.242,2.113,3.833,0.676l3.722-3.393  c1.791-1.633,2.364-2.607,2.461-3.947c0.091-1.353,0.012-3.862-0.244-5.592l1.413-1.292L304.568,339.947"/>
<path d="M299.963,299.582l7.201-9.698l1.462,1.084l-0.201,0.268c-2.053,2.766-1.773,4.021,1.559,6.494l6.927,5.154  c3.929,2.924,5.117,4.203,6.079,6.665c1.414,3.728,0.512,7.999-2.656,12.263c-4.618,6.214-10.246,8.309-15.144,5.599  c-0.805-0.487-1.694-1.085-2.924-2.004l-9.138-6.787c-2.839-2.114-3.534-2.046-5.483,0.573l-0.195,0.262l-1.456-1.084l8.706-11.715  l1.462,1.084l-0.134,0.188c-1.864,2.51-1.707,3.619,0.913,5.563l9.248,6.865c3.071,2.291,4.301,2.735,6.373,2.534  c2.218-0.256,4.325-1.608,6.055-3.923c3.028-4.082,2.912-8.296-0.28-11.367c-0.804-0.707-1.036-0.944-3.095-2.467l-6.506-4.843  c-3.679-2.729-5.038-2.692-7.091,0.08l-0.219,0.298L299.963,299.582"/>
<path d="M308.077,287.496c2.406-6.982,2.626-7.603,4.021-10.959l0.317-0.731c1.73-3.978,2.949-6.092,4.715-8.071  c2.328-2.656,5.41-3.558,8.017-2.425c2.657,1.145,3.552,3.521,2.791,7.408l0.085,0.037c2.675-3.722,6.646-5.153,10.113-3.655  c4.026,1.748,5.69,6.482,4.179,11.824c-0.293,1.042-0.719,2.382-1.425,4.015l-6.641,15.211l-1.669-0.725l0.073-0.171  c1.584-3.63,1.169-5.385-1.438-6.518l-15.924-6.89c-3.247-1.408-3.911-1.188-5.331,2.107l-0.444,1.029l-1.669-0.725L308.077,287.496   M323.063,282.196c0.487-1.005,0.805-1.596,1.146-2.4c0.694-1.584,1.072-2.937,1.145-3.924c0.152-1.767-1.072-3.521-2.997-4.355  c-3.424-1.481-6.195,0.115-8.127,4.562c-0.292,0.688-0.444,1.03-0.7,1.987L323.063,282.196z M332.829,286.417  c3.429,1.487,4.629,1.042,5.963-2.041c1.669-3.85,0.457-6.92-3.356-8.565c-3.04-1.316-6.214-0.657-7.865,1.621  c-0.682,0.986-1.121,1.754-1.986,3.771c-0.317,0.726-0.451,1.03-0.719,1.772L332.829,286.417z"/>
</svg>