<svg xmlns:dc="http://purl.org/dc/elements/1.1/" xmlns:cc="http://creativecommons.org/ns#" xmlns:rdf="http://www.w3.org/1999/02/22-rdf-syntax-ns#" xmlns:svg="http://www.w3.org/2000/svg" xmlns="http://www.w3.org/2000/svg" xmlns:sodipodi="http://sodipodi.sourceforge.net/DTD/sodipodi-0.dtd" xmlns:inkscape="http://www.inkscape.org/namespaces/inkscape" version="1.1" id="Ebene_1" x="0px" y="0px" width="229.26801" height="252" viewBox="0 0 229.268 252" enable-background="new 0 0 565.031 621.547" xml:space="preserve" sodipodi:docname="Lyngby_BK.svg" inkscape:version="0.92.4 (5da689c313, 2019-01-14)"><metadata id="metadata37"><rdf:RDF><cc:Work rdf:about=""><dc:format>image/svg+xml</dc:format><dc:type rdf:resource="http://purl.org/dc/dcmitype/StillImage"/><dc:title/></cc:Work></rdf:RDF></metadata><defs id="defs35"/><sodipodi:namedview pagecolor="#ffffff" bordercolor="#666666" borderopacity="1" objecttolerance="10" gridtolerance="10" guidetolerance="10" inkscape:pageopacity="0" inkscape:pageshadow="2" inkscape:window-width="1366" inkscape:window-height="705" id="namedview33" showgrid="false" fit-margin-top="1" fit-margin-bottom="1" fit-margin-right="1" fit-margin-left="1" inkscape:zoom="0.37969776" inkscape:cx="905.23158" inkscape:cy="275.83344" inkscape:window-x="-8" inkscape:window-y="-8" inkscape:window-maximized="1" inkscape:current-layer="Ebene_1"/>

<g id="g118" transform="matrix(0.4022222,0,0,0.4022222,1,1)"><g id="g30">
	<polygon id="polygon2" points="561.257,0.035 108.858,81.351 108.858,530.115 561.257,448.797 " style="clip-rule:evenodd;fill:#ffffff;fill-rule:evenodd"/>
	<path id="path4" d="m 0,207.615 0.405,31.55 c 79.056,2.592 108.459,15.551 108.459,15.551 V 224.017 C 53.987,208.021 0,207.615 0,207.615 Z" inkscape:connector-curvature="0" style="clip-rule:evenodd;fill:#004b95;fill-rule:evenodd"/>
	<path id="path6" d="m 0.405,311.065 c 79.056,2.591 108.459,15.552 108.459,15.552 V 295.918 C 53.987,279.92 0,279.517 0,279.517 Z" inkscape:connector-curvature="0" style="clip-rule:evenodd;fill:#004b95;fill-rule:evenodd"/>
	<path id="path8" d="m 0.405,382.572 c 79.056,2.59 108.459,15.551 108.459,15.551 V 367.424 C 53.987,351.426 0,351.021 0,351.021 Z" inkscape:connector-curvature="0" style="clip-rule:evenodd;fill:#004b95;fill-rule:evenodd"/>
	<path id="path10" d="m 268.695,52.621 -81.122,14.582 c 13.366,38.029 86.134,32.728 86.134,32.728 1.742,4.778 3.443,15.147 3.443,32.4 0,31.104 -21.142,37.584 -21.142,37.584 -12.959,-3.889 -17.739,-15.552 -17.739,-15.552 14.661,-12.514 12.96,-25.92 12.96,-25.92 -63.949,-6.48 -78.837,-58.51 -78.837,-58.51 l -63.535,11.419 -0.026,142.671 c 2.917,1.296 18.954,7.209 41.432,7.209 39.325,0 77.517,-26.325 122.148,-43.618 50.867,-19.603 106.271,-25.92 106.271,-25.92 C 364.427,92.56 268.695,52.622 268.695,52.621 Z" inkscape:connector-curvature="0" style="clip-rule:evenodd;fill:#004b95;fill-rule:evenodd"/>
	<path style="clip-rule:evenodd;fill:#16498b;fill-opacity:1;fill-rule:evenodd;stroke:none;stroke-opacity:1" id="path12" d="m 302.337,46.575 c 106.272,52.245 115.672,142.779 115.672,142.779 -98.051,4.78 -158.963,29.363 -188.771,47.912 -29.808,18.549 -56.173,25.515 -79.947,25.515 -23.773,0 -40.427,-8.064 -40.427,-8.064 v 41.202 c 0,0 11.469,6.593 37.835,6.593 26.366,0 55.728,-13.811 67.392,-19.44 11.664,-5.629 56.173,-26.325 56.173,-26.325 v 32.805 c 0,0 -9.518,2.592 -34.587,15.998 -25.069,13.406 -58.32,28.183 -85.09,28.183 -26.771,0 -41.723,-7.115 -41.723,-7.115 l -0.006,40.713 c 3.787,1.914 16.725,6.461 39.583,6.461 38.88,0 83.794,-28.066 83.794,-28.066 v 31.953 c -29.362,18.996 -58.765,27.453 -82.943,27.453 -24.179,0 -40.427,-7.008 -40.427,-7.008 l -0.006,131.99 225.32,-40.5 C 327.697,428.704 289.26,341.393 289.26,341.393 l 22.478,-0.852 c 36.286,68.244 53.478,143.494 53.478,143.494 l 41.398,-7.439 c -1.295,-10.814 -19.303,-53.559 -19.303,-53.559 l 22.031,-0.848 c 5.185,6.924 22.03,49.953 22.03,49.953 l 37.01,-6.65 c -27.216,-95.904 -70.703,-96.885 -70.703,-96.885 l 0.001,-8.182 41.469,-3.482 c 44.471,60.02 61.29,102.785 61.29,102.785 L 561.314,448.798 561.321,0 Z m 91.291,157.278 v 0 c 3.644,-0.526 9.84,-1.822 12.433,0.771 2.592,2.592 15.836,22.315 25.15,47.182 9.315,24.867 15.512,45.359 15.794,47.183 0.286,1.822 1.298,4.617 -1.82,4.374 -3.119,-0.244 -18.145,0 -19.685,0 -1.54,0 -2.591,-0.729 -3.36,-4.374 -0.77,-3.646 -7.048,-31.104 -11.423,-45.887 -4.373,-14.783 -16.604,-42.201 -18.144,-44.306 -1.538,-2.107 -2.592,-4.417 1.055,-4.943 z m -60.144,24.098 v 0 c -0.081,-1.782 0.81,-3.888 3.646,-4.658 2.835,-0.769 25.148,-4.373 27.741,-4.13 2.594,0.243 5.185,-0.809 5.185,2.835 0,0 0,3.847 0,5.427 0,1.58 1.012,1.822 2.31,1.822 1.296,0 3.158,0.77 2.874,3.362 -0.283,2.592 -1.823,5.71 -3.117,7.006 -1.296,1.295 -2.918,1.822 -6.521,0.526 -3.603,-1.297 -21.505,-6.439 -25.636,-6.724 -4.132,-0.282 -6.199,-0.039 -6.482,-5.466 z m 59.902,118.219 v 0 c -6.481,0.646 -13.609,1.621 -17.173,6.805 l -18.792,-0.324 c 0,0 14.255,-36.611 36.287,-36.611 20.412,-0.002 32.724,0 35.314,0 2.593,-0.002 5.51,0 9.074,4.859 3.564,4.861 11.017,18.469 11.34,23.652 0.002,-0.002 -49.572,0.972 -56.05,1.619 z" inkscape:connector-curvature="0"/>
	<polygon id="polygon14" points="109.036,569.441 122.089,567.094 122.097,609.648 148.891,604.832 148.892,614.385 109.046,621.547 " style="clip-rule:evenodd;fill:#004b95;fill-rule:evenodd"/>
	<polygon id="polygon16" points="158.533,560.541 169.908,574.889 181.333,556.443 197.042,553.619 176.436,585.113 176.441,609.43 163.389,611.777 163.384,587.441 142.768,563.375 " style="clip-rule:evenodd;fill:#004b95;fill-rule:evenodd"/>
	<polygon id="polygon18" points="218.215,568.539 218.222,601.92 205.169,604.268 205.159,552.162 217.156,550.006 244.897,576.871 244.89,545.02 257.943,542.672 257.954,594.779 246.992,596.75 " style="clip-rule:evenodd;fill:#004b95;fill-rule:evenodd"/>
	<path id="path20" d="m 321.767,534.691 0.003,11.381 c -6.683,-1.982 -13.215,-2.4 -19.598,-1.254 -6.156,1.107 -10.9,3.508 -14.228,7.203 -3.326,3.695 -4.988,7.939 -4.988,12.734 0,4.594 1.662,8.018 4.992,10.266 3.327,2.246 7.706,2.885 13.136,1.908 2.879,-0.518 5.766,-1.656 8.668,-3.418 l -0.002,-6.064 -7.557,1.357 -0.002,-9.551 20.611,-3.707 0.003,21.316 c -2.071,2.438 -5.223,4.691 -9.454,6.756 -4.23,2.066 -8.416,3.475 -12.562,4.219 -9.11,1.637 -16.593,0.471 -22.447,-3.504 -5.855,-3.977 -8.781,-9.842 -8.783,-17.604 -0.002,-7.932 2.926,-14.926 8.785,-20.98 5.86,-6.057 13.447,-9.922 22.767,-11.596 7.699,-1.383 14.584,-1.204 20.656,0.538 z" inkscape:connector-curvature="0" style="clip-rule:evenodd;fill:#004b95;fill-rule:evenodd"/>
	<path id="path22" d="m 336.361,528.576 22.491,-4.045 c 5.361,-0.961 9.575,-0.424 12.643,1.615 3.068,2.041 4.6,4.828 4.602,8.365 0,4.533 -2.38,8.436 -7.142,11.707 3.592,0.299 6.348,1.467 8.271,3.506 1.921,2.039 2.883,4.645 2.883,7.824 0.003,4.52 -1.553,8.475 -4.66,11.863 -3.106,3.389 -7.68,5.627 -13.72,6.711 l -25.355,4.559 z m 13.056,7.207 v 0 l 0.003,11.178 6.715,-1.205 c 2.065,-0.371 3.678,-1.197 4.833,-2.477 1.154,-1.279 1.732,-2.729 1.732,-4.35 0,-1.594 -0.578,-2.813 -1.734,-3.652 -1.155,-0.84 -2.769,-1.072 -4.834,-0.701 z m 0.005,20.733 v 0 l 0.002,12.268 7.267,-1.307 c 3.436,-0.617 5.908,-1.539 7.416,-2.764 1.509,-1.223 2.263,-3.014 2.263,-5.369 0,-1.809 -0.719,-3.111 -2.151,-3.906 -1.437,-0.795 -3.353,-0.98 -5.748,-0.547 z" inkscape:connector-curvature="0" style="clip-rule:evenodd;fill:#004b95;fill-rule:evenodd"/>
	<polygon id="polygon24" points="398.497,517.408 409.871,531.756 421.297,513.311 437.005,510.486 416.401,541.979 416.406,566.297 403.352,568.643 403.347,544.309 382.731,520.242 " style="clip-rule:evenodd;fill:#004b95;fill-rule:evenodd"/>
	<path id="path26" d="m 462.799,505.852 22.49,-4.043 c 5.361,-0.965 9.574,-0.426 12.642,1.611 3.068,2.043 4.601,4.83 4.603,8.367 0,4.533 -2.381,8.436 -7.143,11.709 3.593,0.297 6.348,1.463 8.271,3.504 1.922,2.039 2.883,4.645 2.883,7.822 0.003,4.52 -1.552,8.475 -4.66,11.865 -3.105,3.389 -7.68,5.625 -13.72,6.709 l -25.355,4.559 z m 13.054,7.207 v 0 l 0.004,11.18 6.714,-1.207 c 2.066,-0.373 3.678,-1.197 4.833,-2.477 1.156,-1.279 1.733,-2.73 1.733,-4.35 0,-1.596 -0.578,-2.813 -1.735,-3.654 -1.154,-0.838 -2.767,-1.072 -4.834,-0.701 z m 0.005,20.732 v 0 l 10e-4,12.266 7.268,-1.305 c 3.435,-0.617 5.907,-1.539 7.416,-2.764 1.508,-1.225 2.262,-3.016 2.262,-5.371 0,-1.807 -0.719,-3.109 -2.151,-3.904 -1.434,-0.795 -3.352,-0.98 -5.748,-0.547 z" inkscape:connector-curvature="0" style="clip-rule:evenodd;fill:#004b95;fill-rule:evenodd"/>
	<polygon id="polygon28" points="548.587,542.537 528.042,521.787 528.048,546.229 514.995,548.574 514.983,496.469 528.035,494.123 528.041,517.57 544.606,491.143 558.951,488.566 541.958,516.08 565.031,539.58 " style="clip-rule:evenodd;fill:#004b95;fill-rule:evenodd"/>
</g><path inkscape:connector-curvature="0" id="path61" d="m 109.89989,464.1507 v -64.95813 l 4.19015,1.34416 c 10.61745,3.40596 18.50764,4.40804 35.03275,4.44927 22.59167,0.0564 41.43246,-4.6869 65.06526,-16.38051 l 17.69174,-8.75394 0.53546,-17.20718 c 0.2945,-9.46394 0.0247,-17.20717 -0.59953,-17.20717 -0.62424,0 -4.63633,2.03082 -8.91575,4.51292 -13.69723,7.94452 -38.97071,17.43933 -55.13769,20.71424 -16.35916,3.31383 -33.22671,2.88148 -49.73272,-1.27478 l -8.12967,-2.04708 v -19.55016 c 0,-19.38776 0.0348,-19.54019 4.19015,-18.35181 23.73991,6.78935 48.26002,5.99728 74.02597,-2.39125 9.73046,-3.16792 32.35726,-12.91713 50.28179,-21.66494 l 32.59005,-15.90511 0.53546,-16.71594 c 0.2945,-9.19377 0.0173,-16.71594 -0.61593,-16.71594 -0.63326,0 -18.05382,7.86223 -38.71237,17.47164 -53.44894,24.86198 -58.26423,26.30102 -87.84278,26.25204 -14.70478,-0.0243 -26.22042,-0.92019 -29.33105,-2.28176 -5.11227,-2.23773 -5.12129,-2.27559 -5.12129,-21.50309 v -19.26142 l 12.57045,3.27852 c 15.87565,4.14055 33.84945,4.32336 52.20943,0.53099 18.25291,-3.77024 32.01972,-9.39212 54.64632,-22.31558 31.54522,-18.01747 63.12533,-29.39872 105.23778,-37.92696 21.4276,-4.33932 62.30891,-9.42448 75.76661,-9.42448 h 9.00525 l -1.20936,-6.05244 C 411.22052,150.25315 388.14457,110.58082 359.8652,84.651844 347.10597,72.953081 318.12154,52.516167 311.15185,50.30407 c -2.11717,-0.671957 -3.84937,-1.800077 -3.84937,-2.506933 0,-0.706856 55.51806,-11.258629 123.37347,-23.448384 67.8554,-12.189755 124.84143,-22.5470737 126.63562,-23.0162642 3.09464,-0.80926795 3.26215,10.6317322 3.26215,222.8032812 v 223.65635 l -4.19015,0.92825 c -2.30458,0.51055 -13.82749,2.63885 -25.60647,4.72956 -11.77897,2.09072 -23.24022,4.20354 -25.46944,4.69517 -3.42773,0.75596 -4.80932,-0.75857 -8.95383,-9.81536 -7.49803,-16.38514 -20.12942,-37.91331 -38.87095,-66.24926 l -17.02677,-25.74338 -18.62289,1.2011 c -23.18223,1.49518 -25.14089,2.05155 -25.14089,7.14141 0,3.23917 1.97857,4.79584 9.48368,7.46141 14.21178,5.04758 30.22696,21.98787 41.59411,43.99675 11.31139,21.90094 20.18715,47.0791 17.16246,48.68531 -4.55602,2.41939 -31.23552,5.89021 -32.82323,4.2701 -0.90342,-0.92185 -5.96925,-11.94195 -11.25744,-24.48912 l -9.61487,-22.81303 h -11.92807 c -6.56045,0 -11.92809,0.75393 -11.92809,1.67541 0,0.92146 3.05287,9.51126 6.78417,19.08845 6.42793,16.49871 12.1097,33.24251 11.28039,33.24251 -0.2091,0 -9.17619,1.67606 -19.92684,3.72457 -10.75066,2.04852 -19.66456,3.72458 -19.80866,3.72458 -0.14415,0 -0.82926,-3.0237 -1.52256,-6.71934 -3.91158,-20.85056 -28.0848,-87.78903 -42.80049,-118.51956 l -8.69484,-18.15732 h -12.00623 c -6.60343,0 -12.00623,0.33674 -12.00623,0.74833 0,0.41156 4.51775,12.35349 10.03943,26.53761 5.52171,14.1841 13.51826,36.68367 17.77015,49.99904 7.52768,23.57396 17.9519,69.39002 16.18896,71.15296 -0.48339,0.48339 -50.80625,9.86577 -111.82857,20.84973 L 109.89989,529.10883 Z M 381.16252,350.12882 c 3.86369,-1.92746 15.17145,-3.13667 37.56457,-4.01701 31.37603,-1.23348 32.0128,-1.33988 30.86496,-5.15718 -2.15124,-7.15437 -11.94995,-23.06116 -14.90418,-24.19481 -1.60417,-0.61558 -13.12898,-1.11924 -25.61067,-1.11924 -21.06271,0 -23.18043,0.33054 -29.46094,4.59825 -6.63524,4.50877 -22.03199,25.68638 -22.03199,30.30413 0,3.3275 16.66471,3.03479 23.57825,-0.41414 z m 66.69462,-47.4464 c 1.30938,-2.11859 -13.5559,-46.91468 -21.28449,-64.14025 -5.8124,-12.95475 -17.87448,-32.83488 -21.28199,-35.07596 -2.82846,-1.86024 -8.96783,-1.72388 -12.11487,0.26908 -2.09921,1.32938 -0.95381,5.50271 6.09095,22.1926 4.77198,11.30545 11.23176,30.45905 14.35504,42.56357 3.1233,12.10452 6.49039,25.15084 7.48243,28.99181 l 1.80372,6.98358 h 11.92319 c 6.55775,0 12.41945,-0.803 13.02602,-1.78443 z m -73.08047,-66.39311 c 1.86535,-4.09399 1.71232,-5.22674 -0.97107,-7.18889 -1.75193,-1.28103 -3.18531,-4.12234 -3.18531,-6.31399 0,-3.4747 -1.01327,-3.96187 -7.91473,-3.80527 -4.3531,0.0987 -12.52389,1.14629 -18.15731,2.32786 -8.85848,1.85797 -10.31328,2.77742 -10.76565,6.804 -0.49062,4.3669 0.43362,4.90212 14.89831,8.62759 21.06513,5.42544 23.43683,5.38444 26.09576,-0.4513 z" style="fill:#16498b;fill-opacity:1;stroke:none;stroke-width:1.86228859;stroke-opacity:1"/><path inkscape:connector-curvature="0" id="path63" d="m 124.78198,227.72608 c -6.39225,-1.45289 -12.46796,-3.16429 -13.50159,-3.80311 -1.2106,-0.74819 -1.87933,-26.20349 -1.87933,-71.53712 V 82.010209 l 31.14888,-5.511881 31.14888,-5.511878 4.21336,9.0941 c 5.99218,12.933512 24.32918,31.31647 38.29653,38.39253 6.37196,3.22813 16.77397,6.92356 23.11558,8.21207 6.34161,1.28851 12.06834,2.88088 12.72606,3.5386 1.63807,1.63808 -5.23618,16.73798 -9.0553,19.89075 -1.70284,1.40574 -3.09608,3.61281 -3.09608,4.90459 0,3.07586 14.14078,15.81813 17.55422,15.81813 4.70347,0 14.57385,-9.89861 18.32396,-18.37635 2.83796,-6.41567 3.61321,-12.13913 3.47673,-25.6675 -0.27578,-27.336013 0.57553,-26.12956 -19.49066,-27.621705 -22.42777,-1.667757 -38.79729,-5.473331 -50.17111,-11.663738 -9.94607,-5.413327 -19.78847,-16.388538 -17.00248,-18.959372 0.9258,-0.854302 19.11773,-4.63764 40.42653,-8.407417 l 38.74325,-6.85414 14.33197,7.844008 c 49.85691,27.287109 84.29547,62.751704 92.21071,94.957954 1.16637,4.74585 0.99007,4.8348 -14.13907,7.13362 -22.1482,3.36533 -68.75914,15.56954 -88.07587,23.06104 -9.14878,3.54812 -28.76816,12.07989 -43.59862,18.95948 -38.67721,17.94169 -56.82966,23.68821 -77.32369,24.47838 -10.14074,0.39098 -21.35099,-0.39713 -28.38286,-1.9954 z" style="fill:#16498b;fill-opacity:1;stroke:none;stroke-width:1.86228859;stroke-opacity:1"/><path inkscape:connector-curvature="0" id="path65" d="M 99.886066,251.54594 C 78.640622,245.23175 52.704448,241.73767 7.5428812,239.10561 l -7.07799812,-0.41252 v -15.49407 -15.49407 l 8.06562572,0.45154 c 31.5573632,1.76667 63.6590472,6.54494 90.0387202,13.40208 l 9.547071,2.48167 0.17696,14.9616 c 0.0973,8.22888 -0.0508,14.92399 -0.32921,14.87803 -0.27839,-0.046 -3.91349,-1.09623 -8.077984,-2.33393 z" style="fill:#16498b;fill-opacity:1;stroke:none;stroke-width:0.65841842;stroke-opacity:1"/><path inkscape:connector-curvature="0" id="path67" d="m 104.16579,324.66973 c -3.76073,-1.38301 -16.5934,-4.55099 -24.690695,-6.09536 -16.039897,-3.05924 -38.147569,-5.58196 -58.599241,-6.6868 -7.423667,-0.40104 -15.0530909,-0.87896 -16.9542742,-1.06203 l -3.45669672,-0.33287 v -15.44912 -15.44911 l 6.09037052,0.38213 c 26.2778124,1.64878 44.5430964,3.73139 63.7019834,7.26334 11.072833,2.04127 30.711503,6.54825 36.048413,8.27291 l 2.13986,0.69152 v 14.76335 c 0,16.21445 0.26294,15.3726 -4.27972,13.70204 z" style="fill:#16498b;fill-opacity:1;stroke:none;stroke-width:0.65841842;stroke-opacity:1"/><path inkscape:connector-curvature="0" id="path69" d="M 103.83658,396.10038 C 86.860956,389.9967 48.745963,384.53962 9.8473457,382.64357 l -9.38246262,-0.45734 v -15.48419 -15.4842 l 9.05325342,0.44641 c 29.2214195,1.44091 58.6060875,5.75558 86.5820235,12.71319 l 12.34535,3.07028 v 15.02547 c 0,8.26401 -0.22222,15.00382 -0.49382,14.97736 -0.2716,-0.0265 -2.1234,-0.63404 -4.11511,-1.35017 z" style="fill:#16498b;fill-opacity:1;stroke:none;stroke-width:0.65841842;stroke-opacity:1"/><path inkscape:connector-curvature="0" id="path71" d="M 109.10392,595.51168 V 569.5737 l 5.32518,-0.81519 c 2.92884,-0.44835 5.74358,-0.97575 6.25497,-1.17199 0.78883,-0.3027 0.9298,2.83167 0.9298,20.6733 0,11.56655 0.14661,21.1767 0.32579,21.35588 0.17918,0.17919 5.58645,-0.64778 12.01614,-1.8377 15.87888,-2.93864 14.65323,-3.10503 14.65323,1.98922 0,3.81823 -0.13733,4.24183 -1.48144,4.56956 -0.81479,0.19868 -9.18494,1.72696 -18.60032,3.39619 -9.41539,1.66924 -17.63739,3.18836 -18.27111,3.37583 -1.08364,0.32057 -1.15224,-1.20338 -1.15224,-25.59712 z" style="fill:#16498b;fill-opacity:1;stroke:none;stroke-width:0.65841842;stroke-opacity:1"/><path inkscape:connector-curvature="0" id="path73" d="m 163.75265,599.46161 v -12.11178 l -7.00072,-8.17896 c -3.85039,-4.49843 -8.442,-9.84778 -10.20357,-11.88746 l -3.20286,-3.7085 6.41767,-1.11554 c 3.52972,-0.61355 6.90821,-1.25205 7.50777,-1.41889 0.77182,-0.21478 2.76829,1.83572 6.83798,7.02304 4.21418,5.37149 5.90352,7.091 6.33113,6.44423 0.32078,-0.48519 2.84326,-4.53817 5.6055,-9.00662 2.76224,-4.46845 5.64475,-8.38352 6.40556,-8.70015 1.71759,-0.7148 12.96312,-2.76072 13.30351,-2.42033 0.13685,0.13685 -4.19241,7.04139 -9.62058,15.34343 l -9.86939,15.09462 -10e-4,12.21695 -0.001,12.21695 -5.10274,0.82712 c -2.80651,0.45491 -5.62125,0.97709 -6.25497,1.16039 -1.06769,0.30882 -1.15224,-0.55546 -1.15224,-11.7785 z" style="fill:#16498b;fill-opacity:1;stroke:none;stroke-width:0.65841842;stroke-opacity:1"/><path inkscape:connector-curvature="0" id="path75" d="m 205.23301,578.01075 v -25.57287 l 4.77354,-0.81372 c 2.62544,-0.44755 5.26163,-0.94974 5.85819,-1.116 0.73414,-0.20459 5.62779,4.10488 15.14362,13.33586 l 14.05897,13.63813 0.17588,-16.14545 0.17588,-16.14545 4.76226,-0.82129 c 2.61924,-0.45171 5.4289,-0.97481 6.2437,-1.16244 l 1.48144,-0.34115 v 25.70533 c 0,23.91301 -0.0803,25.72899 -1.15223,26.04475 -0.63373,0.18668 -3.01534,0.66616 -5.29246,1.06552 l -4.14022,0.7261 -14.17684,-13.69571 c -7.79726,-7.53264 -14.45245,-13.79447 -14.78931,-13.91518 -0.3672,-0.13158 -0.61247,6.37631 -0.61247,16.25149 0,15.11935 -0.0945,16.4986 -1.15223,16.80783 -1.82676,0.53408 -8.84623,1.72712 -10.1618,1.72712 -1.13508,0 -1.19592,-1.30088 -1.19592,-25.57287 z" style="fill:#16498b;fill-opacity:1;stroke:none;stroke-width:0.65841842;stroke-opacity:1"/><path inkscape:connector-curvature="0" id="path77" d="m 287.71289,587.78142 c -12.6972,-2.66752 -19.72049,-13.18689 -17.36388,-26.00737 2.13117,-11.59404 11.69511,-21.56627 24.70649,-25.76123 4.10541,-1.32361 7.12166,-1.78496 13.22,-2.02204 4.34556,-0.16894 9.08617,-0.0482 10.53469,0.2682 l 2.63368,0.57536 0.19259,5.48834 c 0.19098,5.44249 0.17998,5.48484 -1.31684,5.069 -4.61209,-1.28133 -11.34817,-1.75365 -15.92713,-1.11677 -13.52848,1.88164 -20.76085,8.52812 -21.35411,19.62423 -0.22432,4.19556 -0.0523,5.1037 1.45353,7.67318 3.45347,5.89291 12.47382,7.71065 21.1718,4.26645 l 3.92863,-1.55564 0.19901,-3.45626 c 0.22166,-3.84951 0.066,-3.94509 -4.64334,-2.85147 l -2.46907,0.57337 v -4.49291 -4.49291 l 3.4567,-0.68294 c 7.10999,-1.40472 14.49621,-2.70251 15.38096,-2.70251 0.74259,0 0.9149,1.97359 0.9149,10.47936 v 10.47937 l -2.46907,1.94565 c -8.13899,6.41357 -23.45913,10.54628 -32.24954,8.69954 z" style="fill:#16498b;fill-opacity:1;stroke:none;stroke-width:0.65841842;stroke-opacity:1"/><path inkscape:connector-curvature="0" id="path79" d="m 336.9167,554.52896 v -25.79005 l 11.75352,-2.08275 c 16.88241,-2.9916 20.4909,-2.74108 24.6769,1.7132 3.64711,3.88086 2.97391,10.00195 -1.65195,15.02041 -2.7089,2.93881 -2.69092,3.10903 0.40676,3.85182 6.27987,1.50586 9.09504,8.0217 6.81469,15.77291 -1.1603,3.94401 -7.12434,9.7455 -11.51919,11.20524 -1.87814,0.62382 -9.50464,2.25135 -16.94777,3.61674 L 336.9167,580.319 Z m 24.17533,12.12915 c 4.48638,-1.46609 6.84997,-6.87704 4.48123,-10.25888 -1.68812,-2.41013 -4.19186,-2.49345 -14.33596,-0.47702 l -1.81065,0.35992 v 6.4303 6.43031 l 4.77353,-0.8962 c 2.62545,-0.49291 5.72678,-1.2077 6.89185,-1.58843 z m -2.66334,-21.36257 c 4.00753,-1.6493 5.75038,-6.95716 3.12383,-9.51364 -1.57567,-1.53363 -2.841,-1.70057 -8.01075,-1.05688 l -4.11512,0.51238 v 5.92291 5.9229 l 3.4567,-0.46405 c 1.90118,-0.25522 4.39659,-0.85085 5.54534,-1.32362 z" style="fill:#16498b;fill-opacity:1;stroke:none;stroke-width:0.65841842;stroke-opacity:1"/><path inkscape:connector-curvature="0" id="path81" d="m 403.41696,556.03866 v -12.13988 l -9.8331,-11.47334 c -5.4082,-6.31033 -9.63031,-11.65674 -9.38246,-11.88092 0.46019,-0.41623 11.71544,-2.55529 13.44536,-2.55529 0.52494,0 3.41782,3.11102 6.42862,6.91339 3.0108,3.80237 5.64986,6.90608 5.86458,6.89715 0.21472,-0.009 2.9009,-4.12737 5.96929,-9.15207 l 5.57889,-9.13583 6.76931,-1.1603 c 3.72311,-0.63816 6.92958,-1.00002 7.12547,-0.80413 0.19589,0.1959 -4.10157,7.15427 -9.54992,15.46304 l -9.90609,15.10688 v 11.91365 11.91364 l -3.12749,0.65921 c -1.72011,0.36257 -4.53485,0.86519 -6.25497,1.11695 l -3.12749,0.45774 z" style="fill:#16498b;fill-opacity:1;stroke:none;stroke-width:0.65841842;stroke-opacity:1"/><path inkscape:connector-curvature="0" id="path83" d="m 463.33304,531.86038 c 0,-23.8492 0.0802,-25.65682 1.15223,-25.96244 0.63373,-0.18067 6.54311,-1.27374 13.13195,-2.42905 12.87538,-2.25761 16.03777,-2.24996 19.81644,0.048 2.83691,1.72523 4.7406,5.00562 4.74361,8.1741 0.003,3.29077 -2.22768,7.93573 -4.68309,9.75109 -2.45118,1.81224 -2.39205,2.23381 0.38644,2.75506 2.72116,0.51049 5.92014,3.04878 7.36594,5.84465 1.61022,3.11381 0.87692,9.58617 -1.52651,13.47363 -2.42519,3.92265 -6.61233,7.10976 -11.0265,8.39299 -2.61021,0.75881 -27.78542,5.58593 -29.13268,5.58593 -0.12531,0 -0.22783,-11.53527 -0.22783,-25.63395 z m 16.83335,13.74854 c 9.57823,-1.69728 12.79548,-3.85679 12.79548,-8.5887 0,-4.96602 -3.02938,-6.03541 -12.49773,-4.41177 l -4.62115,0.79244 v 6.45017 c 0,3.54759 0.0937,6.45016 0.20828,6.45016 0.11456,0 1.96636,-0.31153 4.11512,-0.6923 z m 0.94395,-22.05289 c 4.20834,-0.6465 6.24421,-1.87446 7.50192,-4.52488 2.2977,-4.84206 -0.52808,-8.10413 -6.36124,-7.34338 -6.83948,0.892 -6.40803,0.41561 -6.40803,7.07562 0,5.30291 0.11639,5.86588 1.15223,5.57328 0.63373,-0.17901 2.48553,-0.5303 4.11512,-0.78064 z" style="fill:#16498b;fill-opacity:1;stroke:none;stroke-width:0.65841842;stroke-opacity:1"/><path inkscape:connector-curvature="0" id="path85" d="m 515.50501,522.5099 0.17229,-25.8602 6.09037,-1.08497 6.09038,-1.08496 v 11.46438 c 0,6.33669 0.2563,11.30597 0.57305,11.11021 0.31517,-0.19479 4.14243,-6.06768 8.505,-13.05086 l 7.93196,-12.6967 6.46355,-1.09959 c 3.55495,-0.60477 6.52752,-1.03561 6.60572,-0.95741 0.0782,0.0782 -3.58046,6.16923 -8.13035,13.53564 l -8.27252,13.39346 11.40196,11.41594 c 6.27107,6.27876 11.26774,11.53489 11.10369,11.68027 -0.16404,0.14538 -3.70558,0.881 -7.87007,1.6347 l -7.57181,1.37037 -9.76977,-10.17022 c -5.37338,-5.59362 -10.03992,-10.17022 -10.37009,-10.17022 -0.33962,0 -0.60032,5.23399 -0.60032,12.05235 v 12.05234 l -5.10275,0.82712 c -2.80651,0.45492 -5.6247,0.97819 -6.26266,1.16283 -1.09567,0.31712 -1.15037,-1.09654 -0.98763,-25.52448 z" style="fill:#16498b;fill-opacity:1;stroke:none;stroke-width:0.65841842;stroke-opacity:1"/><path inkscape:connector-curvature="0" id="path87" d="m 109.10392,464.27022 c 0,-58.04827 0.11368,-65.55199 0.98802,-65.21648 0.54341,0.20853 3.72851,1.12008 7.078,2.02568 34.79528,9.40751 72.34672,2.66893 109.6297,-19.67298 l 5.42853,-3.25305 v -16.37303 -16.37302 l -4.11511,2.39413 c -6.77022,3.93883 -23.3355,11.84059 -31.6616,15.10281 -10.10694,3.95996 -21.89839,7.33789 -31.38197,8.99007 -16.5268,2.87921 -40.85268,1.09556 -54.18384,-3.97294 L 109.10392,367.244 V 347.17515 327.1063 l 2.79828,0.98994 c 15.22407,5.38582 37.87394,7.16805 54.48413,4.28715 19.56954,-3.39417 40.03193,-11.32446 71.76761,-27.81384 12.10574,-6.28996 27.21737,-13.26961 30.53029,-14.1011 l 1.73221,-0.43476 V 273.3154 c 0,-9.19506 -0.12049,-16.71829 -0.26775,-16.71829 -0.24156,0 -24.40424,11.26958 -55.0394,25.67062 -29.26383,13.75638 -46.56177,18.89402 -65.88703,19.56898 -14.34845,0.50115 -23.95551,-0.65229 -35.01559,-4.20399 l -5.10275,-1.63864 V 275.5823 c 0,-16.07199 0.17499,-20.3394 0.82303,-20.07139 12.55927,5.194 30.9538,8.21791 44.93705,7.38727 24.97411,-1.4835 47.11121,-8.97557 74.07208,-25.06892 32.52097,-19.41225 73.12562,-33.11024 122.03135,-41.16729 l 11.87398,-1.95619 h 98.96877 98.96879 V 321.6518 448.59782 l -28.4766,5.12185 c -15.66213,2.81702 -29.29139,5.2798 -30.28725,5.47284 -1.18611,0.22992 -1.81065,0.0709 -1.81065,-0.46092 0,-1.1608 -10.30221,-22.24636 -15.52524,-31.77557 -6.83982,-12.47895 -15.41938,-26.56578 -24.95864,-40.97969 -7.46335,-11.2772 -18.49781,-27.13815 -20.05757,-28.83079 -0.46601,-0.50571 -38.72879,2.48634 -41.01959,3.20762 -0.92366,0.29083 -1.15223,1.12226 -1.15223,4.19134 v 3.82855 l 5.43195,1.70348 c 24.61058,7.71799 46.38842,37.34853 61.41618,83.56176 2.00301,6.15963 3.52581,11.31534 3.38401,11.45714 -0.56833,0.56834 -35.69509,6.64871 -36.09412,6.24782 -0.23593,-0.23702 -2.71282,-6.06042 -5.50422,-12.94089 -5.52472,-13.61783 -12.71811,-29.94825 -15.00886,-34.07313 l -1.4442,-2.60051 -6.25498,0.39151 c -3.44023,0.21533 -8.40306,0.39304 -11.02851,0.39492 -3.78767,0.003 -4.77353,0.20595 -4.77353,0.9841 0,0.53938 2.33722,6.83551 5.19383,13.99139 8.43542,21.13099 14.07035,37.75081 13.12119,38.69997 -0.3024,0.3024 -40.25071,7.58003 -40.44211,7.36759 -0.0674,-0.0748 -1.31628,-4.72841 -2.77538,-10.34143 -10.43264,-40.13345 -27.65562,-86.71603 -44.51584,-120.40099 l -6.31402,-12.61475 -11.35061,0.42802 c -6.24284,0.23542 -11.41315,0.47422 -11.48958,0.53066 -0.0764,0.0564 1.9149,5.05711 4.4252,11.11258 18.42584,44.44781 33.00084,91.31604 38.50937,123.83303 1.80628,10.66251 2.0091,13.57191 0.9461,13.57191 -0.72895,0 -219.72588,39.25024 -222.3377,39.849 l -1.48145,0.33961 z M 380.39516,349.94507 c 6.52034,-3.25256 9.80401,-3.61156 40.72395,-4.4524 13.90068,-0.37802 25.97443,-0.86311 26.83056,-1.07799 0.85612,-0.21487 1.55515,-0.87706 1.5534,-1.47153 -0.006,-2.03753 -5.77611,-13.88236 -9.45901,-19.41742 -5.41675,-8.14088 -3.95551,-7.77623 -30.2118,-7.53928 l -21.88813,0.19753 -3.81477,1.87212 c -7.33069,3.59758 -16.27524,13.56172 -22.44015,24.99812 -3.59459,6.66826 -4.13181,8.32783 -2.95055,9.11479 0.49141,0.3274 4.45921,0.51262 8.81734,0.41162 7.65986,-0.17752 8.08762,-0.26533 12.83916,-2.63556 z m 66.70862,-49.95671 c -0.10919,-3.37264 -10.27944,-34.50894 -16.30173,-49.90788 -6.22083,-15.90657 -17.87932,-37.77202 -23.85346,-44.73705 -2.01382,-2.34783 -2.17681,-2.40635 -6.58419,-2.36421 -6.90521,0.066 -8.14055,0.53971 -8.14055,3.12143 0,1.22177 1.71254,5.93682 3.96195,10.90826 10.58939,23.40363 14.82351,36.18611 22.14925,66.86686 2.33342,9.77254 4.56571,18.1576 4.96065,18.63346 0.55419,0.66777 3.36394,0.82427 12.31208,0.6858 l 11.59401,-0.17942 z m -75.64592,-59.60371 c 1.17489,-0.45084 3.20211,-4.11406 3.91487,-7.07421 0.55229,-2.29375 -1.02989,-4.3669 -3.33269,-4.3669 -1.45633,0 -1.544,-0.23552 -1.544,-4.14804 0,-2.34836 -0.34279,-4.49083 -0.7901,-4.93814 -0.44085,-0.44084 -2.55094,-0.78935 -4.77354,-0.7884 -4.31248,0.002 -23.70916,2.85836 -27.19064,4.00432 -2.74956,0.90505 -4.11715,2.89859 -4.11715,6.00158 0,3.043 1.49368,4.14443 6.45282,4.75824 3.72572,0.46114 15.67388,3.47816 22.18838,5.60276 4.07456,1.32885 7.32683,1.66455 9.19205,0.94879 z" style="fill:#16498b;fill-opacity:1;stroke:none;stroke-width:0.65841842;stroke-opacity:1"/></g></svg>