<svg xmlns="http://www.w3.org/2000/svg" xml:space="preserve" width="550px" height="190px" style="shape-rendering:geometricPrecision; text-rendering:geometricPrecision; image-rendering:optimizeQuality; fill-rule:evenodd; clip-rule:evenodd" viewBox="0 0 550 189.999">
 <defs>
  <style type="text/css">
   <![CDATA[
    .fil0 {fill:#5361BB}
    .fil1 {fill:#55BD64}
    .fil2 {fill:#4D4948;fill-rule:nonzero}
   ]]>
  </style>
 </defs>
 <g id="Capa_x0020_1">
  <metadata id="CorelCorpID_0Corel-Layer"/>
  <g id="_161469240">
   <g>
    <path id="_161497488" class="fil0" d="M533.557 20.5725l-21.6248 -11.6138 -177.212 -0.126378 111.789 98.9647 49.2898 0 -124.16 -87.2245 161.918 0zm-218.047 -11.7532l-26.0209 -0.0188977 -15.7158 34.0536 -16.7575 -34.0536 -24.9815 0.0177166 -98.3045 98.9789 83.1651 0 19.2201 -20.1922 14.7414 20.1922 46.519 0 14.6032 -18.9118 18.3614 18.9118 83.445 0 -98.2749 -98.9777zm-102.684 0.0129921l-177.14 0.126378 -21.6674 11.6138 161.987 0 -124.22 87.2245 49.2213 0 111.819 -98.9647z"/>
    <polygon id="_162044368" class="fil1" points="413.861,107.769 315.577,8.80041 287.539,8.80041 273.806,30.5445 260.073,8.80041 232.036,8.80041 133.752,107.769 219.975,107.769 234.897,90.6249 248.291,107.769 273.806,107.769 299.321,107.769 312.716,90.6249 327.637,107.769 "/>
   </g>
   <path id="_161469264" class="fil2" d="M13.6559 178.106c0.60945,-3.95788 1.20827,-8.02206 1.82717,-12.1914 0.60945,-4.17993 1.11378,-7.69726 1.51299,-10.5532 0.399213,-2.86772 0.829135,-6.04961 1.30158,-9.55631 0.472442,-3.51851 0.944883,-7.15159 1.41732,-10.9004l1.56496 0c0.493701,0.966143 1.69134,3.29764 3.58111,6.99332 1.88977,3.70749 3.613,7.03584 5.16615,9.97679 1.55433,2.9504 3.07678,5.7756 4.58977,8.47442 1.51181,2.70945 3.01418,5.27127 4.48347,7.68663 1.01929,-1.85906 2.53111,-4.63111 4.53662,-8.31733 2.01614,-3.69567 3.75945,-6.89883 5.24056,-9.59765 1.47992,-2.70945 2.74016,-5.00906 3.77008,-6.89883 1.03937,-1.89095 2.55118,-4.663 4.53662,-8.31733l1.38544 0c0.58819,5.57599 1.01929,9.66143 1.31339,12.2551 0.292914,2.58307 0.650788,5.65985 1.08071,9.2197 0.420473,3.54922 0.914175,7.45631 1.47047,11.6882 0.54567,4.24253 0.987403,7.59214 1.30276,10.0382 -0.379134,-0.0307087 -0.924804,-0.0625985 -1.63819,-0.103937 -0.714568,-0.0425197 -1.24016,-0.0850395 -1.57559,-0.137008 -1.51181,0.157087 -2.41536,0.240945 -2.70945,0.240945 -0.210237,-2.49922 -0.493701,-5.67048 -0.839765,-9.51379 -0.347245,-3.84331 -0.60945,-6.69922 -0.787796,-8.56891 -0.178347,-1.87914 -0.399213,-4.12678 -0.672048,-6.75237 -0.283465,-2.62441 -0.58819,-5.2193 -0.914175,-7.79174 -2.54055,4.57914 -4.66182,8.42245 -6.36379,11.5406 -1.70079,3.1193 -3.42284,6.39568 -5.16615,9.81852 -1.74331,3.42402 -3.42284,6.9319 -5.04095,10.5225l-0.618899 0c-1.65945,-3.43347 -3.36024,-6.85749 -5.09292,-10.291 -1.74331,-3.43347 -3.72875,-7.30867 -5.96458,-11.6138 -2.22638,-4.30631 -3.95906,-7.63466 -5.18859,-9.97679 -0.0944883,0.882285 -0.388583,3.41339 -0.881104,7.57206 -0.493701,4.16812 -0.871655,7.50828 -1.15512,10.0181 -0.274016,2.51929 -0.514961,5.0504 -0.714568,7.6134 -0.199607,2.55118 -0.315355,5.02914 -0.346063,7.42324 -0.252756,-0.0413386 -0.64134,-0.0838584 -1.16575,-0.125197 -0.525591,-0.0318898 -0.914175,-0.0732285 -1.16575,-0.115748 -0.242126,0.0425197 -0.57756,0.0838584 -1.01929,0.115748 -0.440552,0.0413386 -0.797245,0.0838584 -1.06063,0.125197zm58.8284 -0.240945l0 -42.9603 22.3571 0c-0.0318898,0.251575 -0.0625985,0.59882 -0.115748,1.05 -0.0413386,0.451182 -0.0944883,0.819686 -0.135827,1.10315 0.0413386,0.157087 0.0944883,0.419292 0.135827,0.807875 0.0531497,0.388583 0.0838584,0.682678 0.115748,0.882285 -2.74134,-0.57756 -6.5008,-0.871655 -11.2677,-0.871655l-5.55473 0 0 15.8563 9.82915 0c0.283465,0 0.775985,-0.0200788 1.47992,-0.0625985 0.703938,-0.0413386 1.33347,-0.0838584 1.86969,-0.126378 0.54567,-0.0519686 1.28032,-0.103937 2.20512,-0.178347 -0.0625985,0.304725 -0.115748,0.62008 -0.147638,0.944883 -0.0413386,0.325985 -0.0732285,0.58819 -0.114567,0.809056 0.0413386,0.157087 0.0732285,0.367323 0.105118,0.650788 0.0307087,0.283465 0.0838584,0.64134 0.157087,1.06063 -2.81457,-0.188977 -4.663,-0.314174 -5.55473,-0.388583l-9.82915 0 0 18.4512c0.461812,0 0.944883,0.0413386 1.44921,0.135827 1.08071,-0.0413386 2.35158,-0.0838584 3.79016,-0.135827 1.43858,-0.0531497 2.95158,-0.115748 4.53662,-0.199607 1.58622,-0.0838584 3.00355,-0.178347 4.26379,-0.283465 1.26024,-0.115748 2.31024,-0.242126 3.16063,-0.399213 -0.0318898,0.199607 -0.0732285,0.483072 -0.115748,0.850395 -0.0413386,0.367323 -0.0838584,0.672048 -0.135827,0.924804 0.0413386,0.188977 0.0838584,0.53504 0.135827,1.06063 0.0531497,0.52441 0.0944883,0.861025 0.115748,1.01811l-22.7351 0zm40.8178 0.388583l0 -40.2508 -1.58504 0c-3.613,0 -7.65592,0.251575 -12.15,0.755907 0.0413386,-0.58819 0.0625985,-1.19764 0.0625985,-1.82717 0,-0.766537 -0.0212599,-1.43858 -0.0625985,-2.02677l32.5748 0c-0.0637796,0.377953 -0.105118,0.755907 -0.147638,1.12323 -0.0307087,0.367323 -0.0732285,0.672048 -0.114567,0.903545 0.0413386,0.210237 0.0838584,0.461812 0.114567,0.755907 0.0318898,0.283465 0.0838584,0.650788 0.147638,1.07126 -4.03229,-0.504331 -8.47442,-0.755907 -13.3051,-0.755907l0 40.2508c-0.336615,-0.0519686 -0.809056,-0.0944883 -1.41732,-0.137008 -0.59882,-0.0413386 -1.07126,-0.0838584 -1.40788,-0.125197 -0.262205,0.0413386 -0.682678,0.0838584 -1.29095,0.125197 -0.59882,0.0531497 -1.07126,0.0944883 -1.41851,0.137008zm25.7705 -0.147638l0 -43.2012 13.7988 0c4.75631,0 8.21222,0.798426 10.3642,2.3941 2.15315,1.59567 3.23504,4.00158 3.23504,7.23544 0,2.58307 -0.714568,4.71497 -2.15315,6.41576 -1.43858,1.69134 -3.13937,2.95158 -5.09292,3.80197 -1.96418,0.850395 -3.89646,1.40669 -5.78623,1.67953 1.62756,2.0374 3.1193,3.90709 4.46339,5.60788 1.3441,1.71142 3.04489,3.85394 5.09292,6.44765 2.05748,2.58426 3.3815,4.24253 3.94843,4.96772 0.57756,0.724017 1.82717,2.26772 3.75945,4.65119 -0.536221,-0.0413386 -1.26024,-0.0838584 -2.18504,-0.125197 -0.923623,-0.0318898 -1.64764,-0.0732285 -2.17323,-0.115748 -0.304725,0.0425197 -0.787796,0.0838584 -1.42795,0.115748 -0.650788,0.0413386 -1.13386,0.0838584 -1.47047,0.125197 -6.92009,-9.60828 -12.3803,-16.6654 -16.3819,-21.1595l-2.4567 0 0 21.1595c-0.325985,-0.0413386 -0.798426,-0.0838584 -1.41851,-0.125197 -0.608269,-0.0318898 -1.08071,-0.0732285 -1.40669,-0.115748 -0.304725,0.0425197 -0.745277,0.0838584 -1.3441,0.115748 -0.58819,0.0413386 -1.05,0.0838584 -1.36536,0.125197zm5.53465 -23.4803c0.755907,0.0732285 1.78465,0.115748 3.08741,0.115748 3.41221,0 6.08977,-0.504331 8.06458,-1.52244 1.96299,-1.00866 3.30709,-2.21575 4.02166,-3.62363 0.725198,-1.40669 1.08189,-2.81339 1.08189,-4.24253 0,-2.91851 -1.08189,-5.01851 -3.24449,-6.27875 -2.16378,-1.27087 -4.82009,-1.90158 -7.97127,-1.90158 -0.608269,0 -1.49055,0.0106299 -2.64567,0.0318898 -1.14449,0.0212599 -1.94292,0.0318898 -2.3941,0.0318898l0 17.3894zm30.0012 1.95355c0,-3.92717 0.912993,-7.63466 2.74016,-11.1213 1.81772,-3.48544 4.46339,-6.27875 7.91812,-8.3693 3.46536,-2.08937 7.4882,-3.13937 12.0874,-3.13937l0.504331 0c4.09489,0.0944883 7.65474,0.745277 10.6902,1.95355 3.03426,1.20709 5.53347,2.82402 7.47639,4.82953 1.94292,2.0067 3.3815,4.28505 4.31575,6.82678 0.934253,2.52992 1.39725,5.20867 1.39725,8.00198 0,3.62245 -0.60945,6.87757 -1.81654,9.76537 -1.20827,2.89843 -2.91969,5.35631 -5.11418,7.39253 -2.20512,2.0374 -4.74686,3.57048 -7.62403,4.61103 -2.8878,1.03937 -5.95395,1.55315 -9.19962,1.55315l-0.262205 0c-3.96969,-0.0519686 -7.676,-0.818505 -11.1307,-2.31024 -3.45591,-1.47992 -6.29056,-3.88465 -8.49568,-7.21418 -2.21575,-3.31772 -3.37087,-7.58151 -3.48662,-12.7795zm6.16418 0.251575c0,4.20119 0.724017,7.78229 2.17323,10.754 1.43858,2.97166 3.46536,5.22875 6.08032,6.763 2.60433,1.53307 5.62914,2.33032 9.07324,2.3941 3.02481,0 5.84883,-0.819686 8.47442,-2.44725 2.63622,-1.62756 4.75749,-3.94843 6.36379,-6.95198 1.6063,-2.99292 2.47796,-6.41576 2.63622,-10.2697 0,-0.188977 0.0106299,-0.461812 0.0307087,-0.809056 0.0212599,-0.346063 0.0318898,-0.618899 0.0318898,-0.818505 0,-4.02284 -0.714568,-7.46694 -2.14252,-10.3441 -1.42795,-2.86654 -3.43347,-5.07166 -6.02717,-6.5941 -2.60433,-1.53425 -5.58662,-2.35276 -8.97875,-2.47914 -3.9378,0 -7.24607,0.966143 -9.90238,2.90906 -2.66811,1.94292 -4.63111,4.4941 -5.90198,7.66537 -1.27087,3.16182 -1.91103,6.57403 -1.91103,10.2284zm54.1335 1.43858l0 19.8366c-0.324804,-0.0413386 -0.798426,-0.0838584 -1.39606,-0.125197 -0.60945,-0.0318898 -1.08189,-0.0732285 -1.42914,-0.115748 -0.335434,0.0425197 -0.818505,0.0838584 -1.42795,0.115748 -0.618899,0.0413386 -1.09134,0.0838584 -1.41732,0.125197l0 -32.2489 0 -10.9524 14.061 0c3.36024,0.0519686 6.02717,0.440552 7.99135,1.18701 1.97481,0.734647 3.39213,1.84725 4.25316,3.33898 0.871655,1.49055 1.30158,3.42284 1.30158,5.79686 0,2.50985 -0.49252,4.60985 -1.47992,6.30001 -0.998033,1.69134 -2.45788,3.0567 -4.41024,4.09607 -1.95355,1.02874 -4.46339,1.87914 -7.54017,2.52048 -0.536221,0.0625985 -1.2189,0.135827 -2.06929,0.210237 -0.839765,0.0732285 -1.43858,0.135827 -1.77402,0.178347 -2.45788,-0.178347 -4.01221,-0.263386 -4.663,-0.263386zm0 -20.8973l0 18.4299c1.13386,0 2.07992,0.0519686 2.83583,0.146457 0.713387,-0.0944883 1.82717,-0.146457 3.34961,-0.146457 3.1193,-0.262205 5.55473,-1.32284 7.3193,-3.17126 1.75394,-1.84843 2.63622,-4.17993 2.63622,-7.00395 0,-2.29016 -0.58819,-4.1693 -1.76457,-5.6504 -1.17638,-1.47992 -2.96103,-2.31024 -5.35631,-2.47796 -1.00748,-0.0838584 -2.93977,-0.126378 -5.80631,-0.126378l-3.21378 0zm27.2091 19.2071c0,-3.92717 0.912993,-7.63466 2.74016,-11.1213 1.81772,-3.48544 4.46339,-6.27875 7.91812,-8.3693 3.46536,-2.08937 7.4882,-3.13937 12.0874,-3.13937l0.504331 0c4.09489,0.0944883 7.65474,0.745277 10.6902,1.95355 3.03426,1.20709 5.53347,2.82402 7.47639,4.82953 1.94292,2.0067 3.3815,4.28505 4.31575,6.82678 0.934253,2.52992 1.39725,5.20867 1.39725,8.00198 0,3.62245 -0.60945,6.87757 -1.81654,9.76537 -1.20827,2.89843 -2.91969,5.35631 -5.11418,7.39253 -2.20512,2.0374 -4.74686,3.57048 -7.62403,4.61103 -2.8878,1.03937 -5.95395,1.55315 -9.19962,1.55315l-0.262205 0c-3.96969,-0.0519686 -7.676,-0.818505 -11.1307,-2.31024 -3.45591,-1.47992 -6.29056,-3.88465 -8.49568,-7.21418 -2.21575,-3.31772 -3.37087,-7.58151 -3.48662,-12.7795zm6.16418 0.251575c0,4.20119 0.724017,7.78229 2.17323,10.754 1.43858,2.97166 3.46536,5.22875 6.08032,6.763 2.60433,1.53307 5.62914,2.33032 9.07324,2.3941 3.02481,0 5.84883,-0.819686 8.47442,-2.44725 2.63622,-1.62756 4.75749,-3.94843 6.36379,-6.95198 1.6063,-2.99292 2.47796,-6.41576 2.63622,-10.2697 0,-0.188977 0.0106299,-0.461812 0.0307087,-0.809056 0.0212599,-0.346063 0.0318898,-0.618899 0.0318898,-0.818505 0,-4.02284 -0.714568,-7.46694 -2.14252,-10.3441 -1.42795,-2.86654 -3.43347,-5.07166 -6.02717,-6.5941 -2.60433,-1.53425 -5.58662,-2.35276 -8.97875,-2.47914 -3.9378,0 -7.24607,0.966143 -9.90238,2.90906 -2.66811,1.94292 -4.63111,4.4941 -5.90198,7.66537 -1.27087,3.16182 -1.91103,6.57403 -1.91103,10.2284zm49.2296 21.0343l0 -42.9603c0.294095,0.0413386 0.693308,0.0838584 1.19764,0.115748 0.50315,0.0413386 0.881104,0.0838584 1.12323,0.125197 0.356693,-0.0413386 0.882285,-0.0838584 1.57559,-0.125197 0.692127,-0.0531497 1.23898,-0.0838584 1.63819,-0.115748l0 39.9886c0.713387,0 1.36418,0.0413386 1.95236,0.135827 2.36339,-0.0838584 5.06221,-0.219685 8.11773,-0.419292 3.05552,-0.188977 5.47087,-0.388583 7.24607,-0.59882 -0.0318898,0.240945 -0.0625985,0.59882 -0.115748,1.06063 -0.0425197,0.472442 -0.0838584,0.839765 -0.126378,1.08189 0.158268,0.923623 0.242126,1.49055 0.242126,1.71142l-22.8508 0zm31.8709 -42.9603c0.252756,0.0413386 0.672048,0.0838584 1.24961,0.115748 0.57756,0.0413386 1.01929,0.0838584 1.32402,0.125197 0.314174,-0.0413386 0.807875,-0.0838584 1.46929,-0.125197 0.672048,-0.0318898 1.16575,-0.0744096 1.49173,-0.115748l0 43.2012c-0.263386,-0.0413386 -0.725198,-0.0838584 -1.37599,-0.125197 -0.661418,-0.0318898 -1.14449,-0.0732285 -1.45984,-0.115748 -0.304725,0.0425197 -0.766537,0.0838584 -1.38544,0.115748 -0.62008,0.0413386 -1.06063,0.0838584 -1.31339,0.125197l0 -43.2012zm26.4107 43.3489l0 -40.2508 -1.58504 0c-3.613,0 -7.65592,0.251575 -12.15,0.755907 0.0413386,-0.58819 0.0625985,-1.19764 0.0625985,-1.82717 0,-0.766537 -0.0212599,-1.43858 -0.0625985,-2.02677l32.5748 0c-0.0637796,0.377953 -0.105118,0.755907 -0.147638,1.12323 -0.0307087,0.367323 -0.0732285,0.672048 -0.114567,0.903545 0.0413386,0.210237 0.0838584,0.461812 0.114567,0.755907 0.0318898,0.283465 0.0838584,0.650788 0.147638,1.07126 -4.03229,-0.504331 -8.47442,-0.755907 -13.3051,-0.755907l0 40.2508c-0.336615,-0.0519686 -0.809056,-0.0944883 -1.41732,-0.137008 -0.59882,-0.0413386 -1.07126,-0.0838584 -1.40788,-0.125197 -0.262205,0.0413386 -0.682678,0.0838584 -1.29095,0.125197 -0.59882,0.0531497 -1.07126,0.0944883 -1.41851,0.137008zm21.1075 -0.147638l19.6477 -44.1568 1.52362 0 18.9012 44.1568c-0.51378,0 -1.73268,-0.0838584 -3.66378,-0.240945 -0.325985,0.0425197 -0.809056,0.0838584 -1.45984,0.115748 -0.64134,0.0413386 -1.14449,0.0838584 -1.49173,0.125197 -1.91103,-5.63859 -4.13741,-11.3516 -6.68859,-17.1272l-15.9414 0c-0.944883,2.38465 -1.79528,4.55788 -2.56181,6.5008 -0.777166,1.95355 -1.4811,3.81142 -2.12126,5.59725 -0.64134,1.77402 -1.17638,3.45473 -1.61811,5.02914 -0.251575,-0.0413386 -0.629528,-0.0838584 -1.14449,-0.125197 -0.51378,-0.0318898 -0.902363,-0.0732285 -1.18583,-0.115748 -0.242126,0.0318898 -0.62008,0.0625985 -1.13504,0.115748 -0.51378,0.0413386 -0.861025,0.0838584 -1.06063,0.125197zm12.0355 -19.7103l13.7977 0 -7.06655 -16.0666 -6.73111 16.0666zm35.3457 19.7103l0 -43.2012 2.44725 0c3.30827,3.60237 7.13033,7.74922 11.4567,12.4441 4.32638,4.69371 7.38308,8.01261 9.17836,9.95434 1.78465,1.93229 4.90394,5.30316 9.35671,10.1032l0.629528 0 0 -32.5016c0.210237,0.0413386 0.504331,0.0838584 0.892915,0.115748 0.388583,0.0413386 0.661418,0.0838584 0.809056,0.125197 0.219685,-0.0413386 0.53504,-0.0838584 0.944883,-0.125197 0.409843,-0.0318898 0.724017,-0.0744096 0.934253,-0.115748l0 43.2012 -2.01614 0c-1.93229,-2.24646 -4.21064,-4.84016 -6.83623,-7.80237 -2.61496,-2.9504 -5.09292,-5.71182 -7.41379,-8.29489 -2.32087,-2.57363 -4.75749,-5.27245 -7.30867,-8.09647 -2.54174,-2.81457 -5.52402,-6.11221 -8.92678,-9.89293l-0.629528 0 0 34.0867c-0.210237,-0.0413386 -0.53504,-0.0838584 -0.966143,-0.125197 -0.431103,-0.0318898 -0.755907,-0.0732285 -0.987403,-0.115748 -0.167717,0.0318898 -0.440552,0.0625985 -0.797245,0.115748 -0.357875,0.0413386 -0.60945,0.0838584 -0.767718,0.125197zm45.3662 -21.5268c0,-3.92717 0.912993,-7.63466 2.74016,-11.1213 1.81772,-3.48544 4.46339,-6.27875 7.91812,-8.3693 3.46536,-2.08937 7.4882,-3.13937 12.0874,-3.13937l0.504331 0c4.09489,0.0944883 7.65474,0.745277 10.6902,1.95355 3.03426,1.20709 5.53347,2.82402 7.47639,4.82953 1.94292,2.0067 3.3815,4.28505 4.31575,6.82678 0.934253,2.52992 1.39725,5.20867 1.39725,8.00198 0,3.62245 -0.60945,6.87757 -1.81654,9.76537 -1.20827,2.89843 -2.91969,5.35631 -5.11418,7.39253 -2.20512,2.0374 -4.74686,3.57048 -7.62403,4.61103 -2.8878,1.03937 -5.95395,1.55315 -9.19962,1.55315l-0.262205 0c-3.96969,-0.0519686 -7.676,-0.818505 -11.1307,-2.31024 -3.45591,-1.47992 -6.29056,-3.88465 -8.49568,-7.21418 -2.21575,-3.31772 -3.37087,-7.58151 -3.48662,-12.7795zm6.16418 0.251575c0,4.20119 0.724017,7.78229 2.17323,10.754 1.43858,2.97166 3.46536,5.22875 6.08032,6.763 2.60433,1.53307 5.62914,2.33032 9.07324,2.3941 3.02481,0 5.84883,-0.819686 8.47442,-2.44725 2.63622,-1.62756 4.75749,-3.94843 6.36379,-6.95198 1.6063,-2.99292 2.47796,-6.41576 2.63622,-10.2697 0,-0.188977 0.0106299,-0.461812 0.0307087,-0.809056 0.0212599,-0.346063 0.0318898,-0.618899 0.0318898,-0.818505 0,-4.02284 -0.714568,-7.46694 -2.14252,-10.3441 -1.42795,-2.86654 -3.43347,-5.07166 -6.02717,-6.5941 -2.60433,-1.53425 -5.58662,-2.35276 -8.97875,-2.47914 -3.9378,0 -7.24607,0.966143 -9.90238,2.90906 -2.66811,1.94292 -4.63111,4.4941 -5.90198,7.66537 -1.27087,3.16182 -1.91103,6.57403 -1.91103,10.2284z"/>
  </g>
 </g>
</svg>