<svg xmlns:dc="http://purl.org/dc/elements/1.1/" xmlns:cc="http://creativecommons.org/ns#" xmlns:rdf="http://www.w3.org/1999/02/22-rdf-syntax-ns#" xmlns:svg="http://www.w3.org/2000/svg" xmlns="http://www.w3.org/2000/svg" xmlns:sodipodi="http://sodipodi.sourceforge.net/DTD/sodipodi-0.dtd" xmlns:inkscape="http://www.inkscape.org/namespaces/inkscape" version="1.1" x="0px" y="0px" viewBox="0 0 100 100" xml:space="preserve" id="svg2" inkscape:version="0.91 r13725" sodipodi:docname="Escudo_Millos_70_a%C3%B1os_2.svg" width="100" height="100"><title id="title4158">Los Millonarios F C logo</title><metadata id="metadata30"><rdf:RDF><cc:Work rdf:about=""><dc:format>image/svg+xml</dc:format><dc:type rdf:resource="http://purl.org/dc/dcmitype/StillImage"/><dc:title>Los Millonarios F C logo</dc:title><cc:license rdf:resource="http://scripts.sil.org/OFL"/></cc:Work><cc:License rdf:about="http://scripts.sil.org/OFL"><cc:permits rdf:resource="http://scripts.sil.org/pub/OFL/Reproduction"/><cc:permits rdf:resource="http://scripts.sil.org/pub/OFL/Distribution"/><cc:permits rdf:resource="http://scripts.sil.org/pub/OFL/Embedding"/><cc:permits rdf:resource="http://scripts.sil.org/pub/OFL/DerivativeWorks"/><cc:requires rdf:resource="http://scripts.sil.org/pub/OFL/Notice"/><cc:requires rdf:resource="http://scripts.sil.org/pub/OFL/Attribution"/><cc:requires rdf:resource="http://scripts.sil.org/pub/OFL/ShareAlike"/><cc:requires rdf:resource="http://scripts.sil.org/pub/OFL/DerivativeRenaming"/><cc:requires rdf:resource="http://scripts.sil.org/pub/OFL/BundlingWhenSelling"/></cc:License></rdf:RDF></metadata><defs id="defs28"/><sodipodi:namedview pagecolor="#ffffff" bordercolor="#666666" borderopacity="1" objecttolerance="10" gridtolerance="10" guidetolerance="10" inkscape:pageopacity="0" inkscape:pageshadow="2" inkscape:window-width="1366" inkscape:window-height="705" id="namedview26" showgrid="false" inkscape:showpageshadow="false" inkscape:zoom="3.720116" inkscape:cx="51.651813" inkscape:cy="51.275516" inkscape:window-x="-8" inkscape:window-y="-8" inkscape:window-maximized="1" inkscape:current-layer="svg2"/><style type="text/css" id="style4">
	.st0{fill:#FFFFFF;}
	.st1{fill:#05050C;}
	.st2{fill:#293378;}
</style><g id="Capa_2" transform="translate(0,-394.29999)"/><g id="Capa_1" transform="matrix(0.21280471,0,0,0.20919197,-0.79835723,-0.61229833)"><g id="g8"><polygon class="st0" points="445,284.9 448.5,343.9 427,383.3 383.5,412.9 307,432.3 236.5,459.4 152.5,427.9 86,410.9 42.5,379.4 24.5,324.9 36.2,262.9 65.5,186 46.5,133.4 24.5,96.8 83.5,29.9 128.5,54.9 169.5,54.9 214.5,45.2 237.5,29.9 283.5,54.9 329.5,56.9 393.5,34.4 448.5,96.8 409.9,175.4 419.5,226.4 " id="polygon10" style="fill:#ffffff"/><path class="st1" d="M 17.1,317.9 C 17.5,295.7 23.5,275 31.7,254.8 38.4,238.3 46.1,221.9 48.2,204.1 49.5,192.9 49.4,181.3 48,170.2 44.8,143.7 31,121.5 16,100.2 13.3,96.3 14.1,94 16.9,90.9 29.5,76.5 42,61.9 54.5,47.5 c 7.3,-8.4 14.7,-16.6 21.9,-25 2.5,-3 4.5,-2.6 7.5,-0.7 15.8,10.1 32.5,18.5 50.9,23 21.6,5.2 42.9,3.6 63.4,-4.4 11.7,-4.6 22.8,-10.9 34,-16.7 3.3,-1.7 5.8,-1.9 9.2,-0.3 11.9,5.9 23.7,12.2 36.1,16.9 8.9,3.4 18.6,4.8 28.1,6.5 17.5,3.2 34.5,-0.2 50.6,-7 12,-5.1 23.4,-11.7 34.9,-18 3.1,-1.7 5.1,-2.1 7.5,0.8 9.2,11 18.5,21.9 27.9,32.8 7.4,8.6 15,17.2 22.6,25.7 3.3,3.7 6.6,7.4 10,11 2.5,2.7 1.9,4.9 0,7.9 -8.3,13.2 -16.9,26.3 -24.1,40.1 -9.7,18.5 -12.5,38.4 -10,59.3 1.9,16.6 7.8,31.8 14.4,46.7 8.1,18.2 14.5,36.9 16.8,56.8 3.5,29.6 -2.2,57.1 -19,81.8 -13.9,20.4 -33.8,33.4 -57.2,40.1 -23.4,6.8 -47.1,12.4 -70.8,18.2 -20.5,5 -40.3,11.6 -58.4,22.9 -3.2,2 -6.4,4.1 -9.3,6.5 -3,2.6 -4.9,2.8 -8.3,0.1 C 213.5,457.2 190.5,449 166.7,443 143.4,437.1 119.9,431.7 96.9,424.9 78.3,419.4 61.2,410 47.5,396.1 32.2,380.6 22.8,361.8 19.9,340.1 18.8,332.6 18,325.2 17.1,317.9 Z m 19.1,7.6 c 0.7,14.5 6.4,34.4 19.6,51.6 13.6,17.8 32.3,27.7 53.4,32.8 21.9,5.3 44.3,8.9 66.5,13.3 21.3,4.2 42.3,9.4 59.2,24.4 2.3,2 3.7,1 5.5,-0.6 8.8,-7.7 18.9,-13.1 30,-16.4 11.1,-3.3 22.5,-5.9 33.8,-8.3 21.3,-4.5 42.8,-8 63.9,-13.2 19,-4.7 36.3,-13.7 48.7,-29.4 21,-26.4 27,-56.7 17.8,-88.9 -5.6,-19.5 -13.7,-38.5 -21.9,-57.2 -15.1,-34.7 -15.5,-68.7 2.7,-102.2 5.6,-10.4 12.2,-20.2 18.6,-30.1 1.8,-2.8 2.9,-4.9 0.3,-7.9 -13.1,-14.9 -26,-29.9 -38.9,-45 -2.9,-3.4 -5.8,-3.8 -9.6,-1.4 -3.9,2.5 -8.1,4.7 -12.2,6.8 -28.1,14.2 -57.3,20 -88.4,12.5 -12.9,-3.1 -25,-8.3 -35.8,-15.9 -8.2,-5.8 -15.8,-6.2 -23.7,0 -0.4,0.3 -0.8,0.5 -1.3,0.8 C 197.5,67.7 168.7,72.9 137.7,66.6 120.1,63 103.8,56 88.4,46.8 84.7,44.6 82.3,45 79.5,48.3 66.8,63 54,77.7 41.2,92.3 c -2.8,3.2 -2.8,5.5 -0.4,9.1 6.7,10.1 13.4,20.3 19,31 12.7,24.1 17.8,49.7 10.3,76.3 -4.3,15.4 -11,30.3 -17.2,45.1 -8.8,20.8 -16.5,41.8 -16.7,71.7 z" id="path12" inkscape:connector-curvature="0" style="fill:#05050c"/><path class="st2" d="m 57.1,93.4 c 9.5,-10.5 19.3,-21.4 29.3,-32 0.9,-1 3.8,-0.8 5.4,-0.2 13.3,4.5 26.3,10.7 39.9,13.7 30.1,6.7 59.8,5.7 87.8,-9.2 5,-2.6 9.6,-6 14.2,-9.3 2.6,-1.8 4.5,-2.1 7.1,0 11.4,9.3 24.6,15.9 38.7,18.7 13.5,2.7 27.7,3.2 41.6,2.8 22,-0.6 42.8,-7.3 62.5,-17.1 1.3,-0.7 4,0.1 5.4,1.1 2.1,1.5 3.6,3.9 5.4,5.9 5.3,5.8 5.3,5.8 -0.2,11.3 -78.6,78.3 -157.2,156.7 -235.8,235 -21.7,21.6 -43.4,43.3 -65.1,64.9 -5.5,5.5 -6.5,5.7 -11.8,0.3 -21.1,-21.5 -33.2,-46.9 -30.4,-77.7 1.5,-16.4 8.7,-31.3 15.6,-46 7.2,-15.3 14.7,-30.6 18.2,-47.3 5.5,-26.3 1.8,-51.7 -8.7,-76 -5.7,-13 -12.5,-25.4 -19.1,-38.9 z M 212.4,196 c 30.9,-0.3 55.5,-29.3 48.9,-59.2 -7.4,-33.3 -42.8,-49.6 -72.7,-33.2 -3,1.7 -5.3,1.6 -8.3,0 -17.5,-9.3 -35,-9.2 -51.5,1.9 -16.5,11.1 -24.1,27 -21.8,47.1 4,34.6 42.4,53.6 72.3,37.9 4.3,-2.3 5.5,-2.5 9.5,0 9.6,5.7 16.5,5.5 23.6,5.5 z" id="path14" inkscape:connector-curvature="0" style="fill:#293378"/><path class="st2" d="m 404.9,79.6 c 3.9,4.2 8,8.2 11.3,12.6 0.9,1.2 0.2,4.4 -0.7,6.2 -6.5,13.8 -14.1,27.2 -19.6,41.4 -12.6,31.9 -11,63.7 2.8,95 5.9,13.4 12,26.7 17.9,40.1 12.2,28 9.3,54.8 -5.1,81.3 -13.5,24.9 -34.7,38.4 -61.6,43.6 -18.7,3.6 -37.7,5.9 -56.5,9.1 -19.1,3.2 -37,9.4 -52.4,21.6 -2.1,1.6 -3.9,2.7 -6.5,0.5 -15.3,-12.7 -33.5,-18.8 -52.7,-22.1 -18.8,-3.2 -37.8,-5.6 -56.5,-9.2 -8.7,-1.7 -17.1,-5.2 -25.5,-8.3 -5.1,-1.9 -5.2,-3 -1.3,-6.9 17.7,-17.6 35.5,-35.2 53.2,-52.9 55.5,-55.3 111,-110.6 166.6,-165.8 28.4,-28.2 56.8,-56.5 85.1,-84.7 0.2,-0.4 0.7,-0.8 1.5,-1.5 z m -290,306.3 c 0.9,0.3 2.2,1 3.6,1.2 17.8,3.4 35.5,7 53.4,10 21.3,3.6 42.1,8.1 60.7,19.8 1.5,0.9 4.7,0.8 6.2,-0.2 13.2,-8.6 27.8,-13.5 43.1,-16.4 20.9,-4 42,-7 62.8,-11.3 47.9,-9.8 74,-49.9 62.5,-97.4 -3.9,-16 -11,-31.3 -17.2,-46.7 -8,-19.9 -14.2,-40.2 -14.4,-61.8 -0.2,-27.1 7.6,-52.1 20.6,-75.7 1,-1.8 1.7,-3.7 2.3,-5.2 -94.4,94.6 -189,189.1 -283.6,283.7 z" id="path16" inkscape:connector-curvature="0" style="fill:#293378"/><path class="st2" d="m 209.2,185.5 c -4.9,-0.8 -7.7,-1.3 -12,-3.6 -3,-1.6 -4.1,-2.6 -1.8,-5.9 13.7,-19.7 13.6,-39.6 -0.2,-59.2 -2.1,-3 -1.1,-4.2 1.8,-5.6 16.1,-7.8 35.4,-1.6 47.1,12.6 14.8,18 7.5,53.7 -22.8,60.9 -2.7,0.8 -4.1,1.1 -8.2,1.1 -0.2,0 -3.3,-0.2 -3.9,-0.3 z" id="path18" inkscape:connector-curvature="0" style="fill:#293378"/><path class="st2" d="m 155.9,186 c -4.1,0 -5.5,-0.3 -8.2,-1.1 -30.3,-7.2 -37.6,-42.9 -22.8,-60.9 11.7,-14.2 31,-20.4 47.1,-12.6 2.9,1.4 3.9,2.6 1.8,5.6 -13.8,19.7 -13.9,39.5 -0.2,59.2 2.2,3.2 1.1,4.3 -1.8,5.9 -4.3,2.3 -7,2.8 -12,3.6 -0.6,0.1 -3.7,0.3 -3.9,0.3 z" id="path20" inkscape:connector-curvature="0" style="fill:#293378"/><path class="st2" d="m 184,171.9 c -7.2,-6.9 -9.6,-15.8 -9.7,-25.5 -0.1,-8.4 2.3,-16.1 7.3,-22.9 1.5,-2 3.2,-3.2 5.2,-0.7 11.3,14.6 10.9,35 -1.4,48.6 -0.2,0.3 -0.8,1.2 -1.4,0.5 z" id="path22" inkscape:connector-curvature="0" style="fill:#293378"/><path class="st2" d="m 303.8,346.1 c -9.1,-16.8 -17.8,-32.8 -27.2,-50.2 -2.8,9.9 -5.1,18.3 -7.5,26.7 -2.8,10.2 -5.8,20.4 -8.4,30.6 -1.5,5.8 -6,3.8 -9.3,3.4 -4,-0.4 -2.7,-3.8 -2.1,-6.3 7.1,-30 14.3,-60 21.5,-90 0.3,-1.2 0.8,-2.4 1.4,-4.4 10.6,19.5 20.8,38.3 31.6,58.2 10.7,-19.7 20.8,-38.4 31.7,-58.3 3.1,12.5 5.9,23.7 8.5,34.9 3.6,15.5 6.9,31.1 10.5,46.6 1,4.5 2.7,8.9 3.6,13.4 0.4,1.9 -0.2,5.6 -0.9,5.8 -3.2,0.7 -7.1,2 -9.5,-1.8 -1,-1.5 -1.4,-3.3 -1.9,-5.1 -4.4,-15.8 -8.7,-31.7 -13,-47.5 -0.4,-1.4 -0.9,-2.8 -1.8,-5.6 -9.4,16.8 -18.1,32.8 -27.2,49.6 z" id="path24" inkscape:connector-curvature="0" style="fill:#293378"/></g></g></svg>