<svg xmlns:dc="http://purl.org/dc/elements/1.1/" xmlns:cc="http://creativecommons.org/ns#" xmlns:rdf="http://www.w3.org/1999/02/22-rdf-syntax-ns#" xmlns:svg="http://www.w3.org/2000/svg" xmlns="http://www.w3.org/2000/svg" xmlns:xlink="http://www.w3.org/1999/xlink" xmlns:sodipodi="http://sodipodi.sourceforge.net/DTD/sodipodi-0.dtd" xmlns:inkscape="http://www.inkscape.org/namespaces/inkscape" width="688.54535" height="620" id="svg3837" sodipodi:version="0.32" inkscape:version="0.46" version="1.0" sodipodi:docname="Mkodons Logo3.svg" inkscape:output_extension="org.inkscape.output.svg.inkscape">
  <defs id="defs3839">
    <filter inkscape:collect="always" id="filter3424" x="-0.56632268" width="2.1326454" y="-0.38363424" height="1.7672685">
      <feGaussianBlur inkscape:collect="always" stdDeviation="1.1796737" id="feGaussianBlur3426"/>
    </filter>
    <filter inkscape:collect="always" id="filter3264">
      <feGaussianBlur inkscape:collect="always" stdDeviation="0.5992613" id="feGaussianBlur3266"/>
    </filter>
    <linearGradient id="linearGradient2416">
      <stop id="stop3198" offset="0" style="stop-color:#e2b638;stop-opacity:1;"/>
      <stop style="stop-color:#eed86f;stop-opacity:1;" offset="0.39489067" id="stop3200"/>
      <stop style="stop-color:#d69501;stop-opacity:1;" offset="1" id="stop2420"/>
    </linearGradient>
    <filter inkscape:collect="always" id="filter3189" x="-0.80688661" width="2.6137731" y="-0.012181158" height="1.0243623">
      <feGaussianBlur inkscape:collect="always" stdDeviation="1.9208945" id="feGaussianBlur3191"/>
    </filter>
    <filter inkscape:collect="always" id="filter3267" x="-0.018786026" width="1.0375721" y="-0.27799505" height="1.5559901">
      <feGaussianBlur inkscape:collect="always" stdDeviation="1.3935394" id="feGaussianBlur3269"/>
    </filter>
    <inkscape:perspective sodipodi:type="inkscape:persp3d" inkscape:vp_x="0 : 526.18109 : 1" inkscape:vp_y="0 : 1000 : 0" inkscape:vp_z="744.09448 : 526.18109 : 1" inkscape:persp3d-origin="372.04724 : 350.78739 : 1" id="perspective3845"/>
    <filter inkscape:collect="always" id="filter3370">
      <feGaussianBlur inkscape:collect="always" stdDeviation="0.47697855" id="feGaussianBlur3372"/>
    </filter>
    <linearGradient inkscape:collect="always" xlink:href="#linearGradient2416" id="linearGradient2448" gradientUnits="userSpaceOnUse" x1="1136.7825" y1="107.84096" x2="1406.3324" y2="422.03503" gradientTransform="translate(-920.31152,154.92755)"/>
    <filter inkscape:collect="always" id="filter3275" x="-0.0061255465" width="1.0122511" y="-0.29274634" height="1.5854927">
      <feGaussianBlur inkscape:collect="always" stdDeviation="1.0638109" id="feGaussianBlur3277"/>
    </filter>
  </defs>
  <sodipodi:namedview id="base" pagecolor="#ffffff" bordercolor="#666666" borderopacity="1.0" inkscape:pageopacity="0.0" inkscape:pageshadow="2" inkscape:zoom="1.2854839" inkscape:cx="344.27267" inkscape:cy="310" inkscape:document-units="px" inkscape:current-layer="layer1" showgrid="false" inkscape:window-width="1280" inkscape:window-height="1005" inkscape:window-x="0" inkscape:window-y="0" showguides="true" inkscape:guide-bbox="true"/>
  <metadata id="metadata3842">
    <rdf:RDF>
      <cc:Work rdf:about="">
        <dc:format>image/svg+xml</dc:format>
        <dc:type rdf:resource="http://purl.org/dc/dcmitype/StillImage"/>
      </cc:Work>
    </rdf:RDF>
  </metadata>
  <g inkscape:label="Ebene 1" inkscape:groupmode="layer" id="layer1" transform="translate(-5.7273135,-225.17181)">
    <path style="fill:#5c1701;fill-opacity:0.85098039;stroke:none;stroke-width:8.29199982;stroke-miterlimit:4;stroke-opacity:1;filter:url(#filter3275)" d="M 202.50302,828.27411 L 616.22256,828.27411 L 618.53516,836.80275 L 199.41955,836.61004 L 202.50302,828.27411 z" id="rect3272" sodipodi:nodetypes="ccccc" transform="matrix(1,0,0,1.4192296,0,-347.23703)"/>
    <path style="fill:#8c450d;fill-opacity:1;stroke:none;stroke-width:8.29199982;stroke-miterlimit:4;stroke-opacity:1;filter:url(#filter3267)" d="M 1535.125,594.5625 L 1535.1562,683.65625 L 1545.2188,675.5 L 1545.2188,601 L 1539.3125,594.65625 L 1535.125,594.5625 z" id="path3300" transform="matrix(0.8820739,0,0,1,-738.0899,154.92755)"/>
    <path style="fill:#9d5a0b;fill-opacity:1;stroke:none;stroke-width:8.29199982;stroke-miterlimit:4;stroke-opacity:1;filter:url(#filter3267)" d="M 203.09468,608.5838 L 192.78228,613.2713 L 453.96968,821.30255 L 460.90728,814.0838 L 203.09468,608.5838 z" id="path3308"/>
    <path style="fill:#b17600;fill-opacity:1;stroke:none;stroke-width:8.29199982;stroke-miterlimit:4;stroke-opacity:1;filter:url(#filter3189)" d="M 1116.2493,81.44421 L 1121.8885,82.272906 L 1121.9628,453.34364 L 1116.2493,456.31945 L 1116.2493,81.44421 z" id="rect2408" sodipodi:nodetypes="ccccc" transform="matrix(1.1178521,0,0,1,-1053.8839,154.92755)"/>
    <path transform="matrix(-1.2651672,0,0,1.0067357,2037.3882,154.37896)" sodipodi:nodetypes="ccccc" id="path3195" d="M 1116.2493,81.44421 L 1121.8885,82.272906 L 1121.9628,453.34364 L 1116.2493,456.31945 L 1116.2493,81.44421 z" style="fill:#5c1801;fill-opacity:1;stroke:none;stroke-width:8.29199982;stroke-miterlimit:4;stroke-opacity:1;filter:url(#filter3189)"/>
    <path style="fill:#9d5a0b;fill-opacity:1;stroke:none;stroke-width:8.29199982;stroke-miterlimit:4;stroke-opacity:1;filter:url(#filter3267)" d="M 283.96968,231.7088 L 273.65728,236.3963 L 409.40728,344.5213 L 409.46968,331.74005 L 283.96968,231.7088 z" id="path2425"/>
    <path id="path2430" d="M 1204.2812,76.78125 L 1193.9688,81.46875 L 1329.7188,189.59375 L 1329.7812,176.8125 L 1204.2812,76.78125 z" style="fill:#b27600;fill-opacity:0.85490196;stroke:none;stroke-width:8.29199982;stroke-miterlimit:4;stroke-opacity:1;filter:url(#filter3267)" transform="matrix(-1.0140231,0,0,1.0084411,1758.0862,153.32718)"/>
    <path transform="matrix(-1.0140231,0,0,1.0084411,1758.0862,257.32718)" style="fill:#5c1701;fill-opacity:0.85098039;stroke:none;stroke-width:8.29199982;stroke-miterlimit:4;stroke-opacity:1;filter:url(#filter3267)" d="M 1204.2812,76.78125 L 1193.9688,81.46875 L 1329.7188,189.59375 L 1329.7812,176.8125 L 1204.2812,76.78125 z" id="path2440"/>
    <path transform="matrix(-1.8068384,0,0,0.6240505,2560.1553,292.19935)" sodipodi:nodetypes="ccccc" id="path3197" d="M 1116.2493,81.44421 L 1121.8885,82.272906 L 1122.0287,448.76585 L 1116.1834,459.56205 L 1116.2493,81.44421 z" style="fill:#b17600;fill-opacity:1;stroke:none;stroke-width:8.29199982;stroke-miterlimit:4;stroke-opacity:1;filter:url(#filter3189)"/>
    <path style="fill:#613301;fill-opacity:1;stroke:none;stroke-width:8.29199982;stroke-miterlimit:4;stroke-opacity:1;filter:url(#filter3189)" d="M 1116.2493,81.44421 L 1121.8885,82.272906 L 1122.0287,448.76585 L 1116.1834,459.56205 L 1116.2493,81.44421 z" id="path3199" sodipodi:nodetypes="ccccc" transform="matrix(1.5764488,0,0,0.6341242,-1482.8708,287.56988)"/>
    <path style="fill:#b17600;fill-opacity:1;stroke:none;stroke-width:8.29199982;stroke-miterlimit:4;stroke-opacity:1;filter:url(#filter3189)" d="M 201.06348,749.74005 L 193.90728,755.92755 L 193.90728,829.3963 L 201.09468,839.55255 L 201.06348,749.74005 z" id="path3292"/>
    <path style="fill:#5c1701;fill-opacity:0.85098039;stroke:none;stroke-width:8.29199982;stroke-miterlimit:4;stroke-opacity:1;filter:url(#filter3267)" d="M 1123.4062,453.65625 L 1113.0938,458.34375 L 1374.2812,666.375 L 1381.2188,659.15625 L 1123.4062,453.65625 z" id="path3318" transform="matrix(-1,0,0,1,1740.0967,154.92755)"/>
    <path id="path2432" d="M 285.96968,571.03545 L 275.65728,575.72295 L 411.40728,683.84795 L 411.46968,671.0667 L 285.96968,571.03545 z" style="fill:#9d5a0b;fill-opacity:1;stroke:none;stroke-width:8.29199982;stroke-miterlimit:4;stroke-opacity:1;filter:url(#filter3267)"/>
    <path id="path3316" d="M 203.09468,608.5838 L 192.78228,613.2713 L 453.96968,821.30255 L 460.90728,814.0838 L 203.09468,608.5838 z" style="fill:#9d5a0b;fill-opacity:1;stroke:none;stroke-width:8.29199982;stroke-miterlimit:4;stroke-opacity:1;filter:url(#filter3267)"/>
    <path style="fill:#b17600;fill-opacity:0.85882353;stroke:none;stroke-width:8.29199982;stroke-miterlimit:4;stroke-opacity:1;filter:url(#filter3267)" d="M 1122.9688,74.5625 L 1115.8125,80.5625 L 1117.2188,84.6875 L 1197.25,84.65625 L 1203.2812,74.5625 L 1122.9688,74.5625 z" id="path3273" transform="matrix(1.0054434,0,0,1,-926.38536,154.92755)"/>
    <path style="fill:#8c450d;fill-opacity:1;stroke:none;stroke-width:8.29199982;stroke-miterlimit:4;stroke-opacity:1;filter:url(#filter3267)" d="M 537.34468,229.55255 L 542.68848,238.86505 L 621.90728,238.8338 L 622.25098,235.5213 L 616.65728,229.55255 L 537.34468,229.55255 z" id="path3275"/>
    <path transform="matrix(-1.0140231,0,0,1.0084411,1758.0862,492.85105)" style="fill:#b27600;fill-opacity:0.85490196;stroke:none;stroke-width:8.29199982;stroke-miterlimit:4;stroke-opacity:1;filter:url(#filter3267)" d="M 1204.2812,76.78125 L 1193.9688,81.46875 L 1329.7188,189.59375 L 1329.7812,176.8125 L 1204.2812,76.78125 z" id="path2434"/>
    <path id="path2438" d="M 283.96968,333.7088 L 273.65728,338.3963 L 409.40728,446.5213 L 409.46968,433.74005 L 283.96968,333.7088 z" style="fill:#9d5a0b;fill-opacity:1;stroke:none;stroke-width:8.29199982;stroke-miterlimit:4;stroke-opacity:1;filter:url(#filter3267)"/>
    <path id="path3324" d="M 202.46968,237.80255 L 202.46968,607.7713 L 372.50098,743.74005 C 373.76668,745.2392 376.72508,747.87644 375.40728,751.9588 C 374.60178,754.4538 372.65738,757.34671 369.84468,757.3338 L 202.46968,757.3338 L 202.46968,829.11505 L 409.25098,829.11505 L 616.03228,829.11505 L 616.03228,757.3338 L 448.65728,757.3338 C 445.84458,757.34671 443.90018,754.45378 443.09468,751.9588 C 441.77688,747.87644 444.73518,745.23918 446.00098,743.74005 L 616.03228,607.7713 L 616.03228,237.80255 L 540.84468,237.80255 L 409.25098,343.11505 L 277.65728,237.80255 L 202.46968,237.80255 z M 284.43848,337.92755 C 285.79848,337.89239 287.21068,338.25973 288.71968,339.11505 L 409.25098,435.6463 L 529.75098,339.11505 C 532.76908,337.40441 535.48238,337.70645 537.90728,339.11505 C 541.49478,341.19911 540.84468,349.70879 540.84468,349.7088 L 540.84468,576.3338 L 409.25098,680.86505 L 277.65728,576.3338 L 277.65728,349.7088 C 277.65718,349.70879 276.97588,341.19911 280.56348,339.11505 C 281.77588,338.41075 283.07848,337.96271 284.43848,337.92755 z" style="fill:url(#linearGradient2448);fill-opacity:1;fill-rule:evenodd;stroke:none;stroke-width:1px;stroke-linecap:butt;stroke-linejoin:miter;stroke-opacity:1"/>
    <path id="path3326" d="M 201.84468,229.80255 L 194.46968,236.67755 C 194.46968,361.66713 194.46968,486.65672 194.46968,611.6463 C 251.58048,657.78031 309.66438,702.711 366.12598,749.6463 C 357.36708,748.31745 348.26308,749.95073 339.34468,749.3338 C 293.01138,749.3338 246.67808,749.3338 200.34468,749.3338 C 197.69618,751.81113 196.41568,753.01474 194.46968,754.8338 C 194.46968,780.02131 194.46968,805.2088 194.46968,830.3963 C 196.65358,833.44686 197.53198,834.66841 199.28228,837.11505 C 338.65728,837.11505 478.03208,837.11505 617.40728,837.11505 C 620.40468,834.15826 621.61648,832.96466 624.03228,830.5838 C 624.03178,805.4588 624.03218,780.33381 624.03228,755.2088 C 621.72548,752.53567 620.82108,751.51724 618.93848,749.3338 C 563.37588,749.05072 506.74998,750.07709 452.00098,748.7713 C 464.29998,740.44664 475.30178,729.98983 487.28228,721.0213 C 532.86968,684.56925 578.43958,648.09225 624.03228,611.6463 C 624.03168,486.8963 624.03218,362.1463 624.03228,237.3963 L 617.68848,229.80255 C 591.15698,229.80255 564.62598,229.80255 538.09468,229.80255 C 495.08968,264.08512 452.21398,298.52976 409.25098,332.86505 C 366.28798,298.52978 323.41218,264.08513 280.40728,229.80255 C 254.21968,229.80255 228.03228,229.80255 201.84468,229.80255 z M 286.21968,347.1463 L 286.46968,347.30255 C 307.01578,364.57946 328.66418,381.05969 349.59468,398.11505 C 369.47808,414.03952 389.36788,429.9715 409.25098,445.8963 C 450.67908,413.34579 491.34648,379.01823 533.09468,347.42755 C 532.13118,366.11655 533.23618,384.95592 532.84468,403.7088 C 532.85308,459.95881 532.84238,516.2088 532.84468,572.4588 C 491.64678,605.17755 450.44888,637.8963 409.25098,670.61505 C 368.05308,637.8963 326.85518,605.17755 285.65728,572.4588 C 286.05298,497.35526 284.89978,422.24456 286.21968,347.1463 z" style="fill:none;fill-rule:evenodd;stroke:#5b1500;stroke-width:1px;stroke-linecap:butt;stroke-linejoin:miter;stroke-opacity:0.78823529"/>
    <path style="fill:none;fill-rule:evenodd;stroke:#ffffff;stroke-width:3;stroke-linecap:butt;stroke-linejoin:miter;stroke-miterlimit:4;stroke-dasharray:none;stroke-opacity:1;filter:url(#filter3264)" d="M 1461.0891,85.267003 L 1331.633,189.51545" id="path3202" transform="matrix(0.6760733,-0.4240217,-0.4300855,0.4886637,-408.73459,816.0896)"/>
    <path transform="matrix(0.6760733,-0.4240217,-0.4300855,0.4886637,-408.73459,1154.0896)" id="path2436" d="M 1461.0891,85.267003 L 1331.633,189.51545" style="fill:none;fill-rule:evenodd;stroke:#ffffff;stroke-width:3;stroke-linecap:butt;stroke-linejoin:miter;stroke-miterlimit:4;stroke-dasharray:none;stroke-opacity:1;filter:url(#filter3264)"/>
    <path style="fill:none;fill-rule:evenodd;stroke:#c88d00;stroke-width:5;stroke-linecap:butt;stroke-linejoin:miter;stroke-miterlimit:4;stroke-dasharray:none;stroke-opacity:1" d="M 179.46798,347.24005 C 145.54418,393.55325 125.49918,450.66196 125.49918,512.42755 C 125.49918,605.01208 170.51398,687.11376 239.84298,738.0838 L 327.67718,739.03606 L 180.42028,622.74787 L 179.46798,347.24005 z" id="path3220" sodipodi:nodetypes="cscccc"/>
    <path style="fill:none;fill-opacity:1;stroke:#c88d00;stroke-width:5;stroke-miterlimit:4;stroke-dasharray:none;stroke-dashoffset:0;stroke-opacity:1" d="M 407.53228,232.49005 C 377.10268,232.49005 347.81218,237.37396 320.37598,246.36505 L 406.46968,315.8963 L 493.93848,246.11505 C 466.71918,237.28085 437.68378,232.49005 407.53228,232.49005 z" id="path3226"/>
    <path sodipodi:nodetypes="cscccc" id="path3241" d="M 637.80388,347.24005 C 671.72768,393.55325 691.77268,450.66196 691.77268,512.42755 C 691.77268,605.01208 646.75788,687.11376 577.42888,738.0838 L 489.59468,739.03606 L 636.85158,622.74787 L 637.80388,347.24005 z" style="fill:none;fill-rule:evenodd;stroke:#c88d00;stroke-width:5;stroke-linecap:butt;stroke-linejoin:miter;stroke-miterlimit:4;stroke-dasharray:none;stroke-opacity:1"/>
    <path style="fill:none;fill-rule:evenodd;stroke:#d69600;stroke-width:5;stroke-linecap:butt;stroke-linejoin:miter;stroke-miterlimit:4;stroke-dasharray:none;stroke-opacity:1" d="M 296.65138,370.43751 L 296.65138,567.45942 L 408.87748,656.01941 L 522.33648,567.45942 L 522.33648,370.43751 L 408.87748,464.05775 L 296.65138,370.43751 z" id="path3247" sodipodi:nodetypes="ccccccc"/>
    <path style="fill:#ffffff;fill-rule:evenodd;stroke:none;stroke-width:1px;stroke-linecap:butt;stroke-linejoin:miter;stroke-opacity:1;filter:url(#filter3424)" d="M 1292.2142,594.88927 L 1293.3485,598.05991 L 1289.5955,598.93636 L 1290.7858,601.07894 L 1294.5948,598.46024 L 1294.5948,593.69895 L 1292.2142,594.88927 z" id="path3278" sodipodi:nodetypes="ccccccc" transform="matrix(1,0,0,1.3548391,-920.31152,-58.35879)"/>
    <g style="fill:#f9be93;fill-opacity:1;filter:url(#filter3370)" transform="translate(-252.50517,151.62094)" id="g3497">
      <path id="path3499" d="M 617.06489,626.22509 C 616.28038,626.2664 615.65074,626.37306 615.17597,626.54507 C 614.70112,626.71713 614.26416,627.0027 613.86508,627.40179 C 613.56227,627.69083 613.33518,628.01081 613.18383,628.36174 C 613.03241,628.71271 612.92919,629.15655 612.87417,629.69327 C 612.7778,630.40895 612.72963,631.25535 612.72966,632.23248 L 612.72966,647.44706 C 612.72963,648.86462 612.8122,649.91746 612.97739,650.60559 C 613.14251,651.29372 613.4384,651.84422 613.86508,652.2571 C 614.62199,652.98652 615.68859,653.38564 617.06489,653.45445 L 617.06489,653.92926 L 603.87341,653.92926 L 603.87341,653.45445 C 604.67162,653.41316 605.31502,653.29962 605.80362,653.11382 C 606.29217,652.92803 606.72913,652.64246 607.11451,652.2571 C 607.54112,651.8167 607.83358,651.25587 607.99188,650.57462 C 608.15012,649.89337 608.22925,648.85086 608.22928,647.44706 L 608.22928,628.99138 L 597.59765,653.92926 L 597.16413,653.92926 L 586.59443,629.36297 L 586.59443,647.44706 C 586.59442,648.86462 586.67356,649.91058 586.83183,650.58494 C 586.9901,651.25931 587.28255,651.8167 587.7092,652.2571 C 588.09455,652.65622 588.53151,652.94523 589.02009,653.12415 C 589.50866,653.30306 590.14518,653.41316 590.92966,653.45445 L 590.92966,653.92926 L 581.4128,653.92926 L 581.4128,653.45445 C 582.19727,653.41316 582.83379,653.30306 583.32236,653.12415 C 583.81093,652.94523 584.2479,652.65622 584.63325,652.2571 C 585.05989,651.8167 585.35235,651.25587 585.51062,650.57462 C 585.66889,649.89337 585.74802,648.85086 585.74803,647.44706 L 585.74803,632.23248 C 585.74802,631.59942 585.72738,631.00074 585.68609,630.43645 C 585.61728,629.41804 585.45901,628.67486 585.21128,628.20691 C 584.86721,627.56009 584.39584,627.08184 583.79717,626.77215 C 583.1985,626.46252 582.40371,626.28017 581.4128,626.22509 L 581.4128,625.75028 L 590.37227,625.75028 L 599.3111,647.81865 L 608.58023,625.75028 L 617.06489,625.75028 L 617.06489,626.22509 z" style="font-size:42.27879715px;font-style:normal;font-variant:normal;font-weight:normal;font-stretch:normal;text-align:start;line-height:100%;writing-mode:lr-tb;text-anchor:start;fill:#f9be93;fill-opacity:1;stroke:none;stroke-width:1px;stroke-linecap:butt;stroke-linejoin:miter;stroke-opacity:1;font-family:Baskerville Old Face;-inkscape-font-specification:Baskerville Old Face"/>
      <path id="path3501" d="M 700.78098,625.75028 L 700.78098,626.22509 C 699.99649,626.2664 699.35997,626.3765 698.87141,626.55539 C 698.38283,626.73433 697.94586,627.02335 697.56052,627.42244 C 697.02377,627.97297 696.69346,628.73679 696.56961,629.71391 C 696.48703,630.44336 696.44574,631.28288 696.44575,632.23248 L 696.44575,647.44706 C 696.44574,648.58937 696.50079,649.49082 696.6109,650.15142 C 696.72099,650.81203 696.8999,651.34189 697.14764,651.741 C 697.50546,652.29151 697.96651,652.70095 698.53079,652.96932 C 699.09504,653.23769 699.8451,653.3994 700.78098,653.45445 L 700.78098,653.92926 L 687.5895,653.92926 L 687.5895,653.45445 C 688.38773,653.41316 689.03113,653.29962 689.5197,653.11382 C 690.00827,652.92803 690.43836,652.64246 690.80995,652.2571 C 691.25035,651.8167 691.54625,651.25931 691.69764,650.58494 C 691.84902,649.91058 691.92472,648.86462 691.92472,647.44706 L 691.92472,632.23248 C 691.92472,630.81495 691.84902,629.76899 691.69764,629.0946 C 691.54625,628.42025 691.25035,627.86287 690.80995,627.42244 C 690.43836,627.02335 690.00483,626.73433 689.50938,626.55539 C 689.01392,626.3765 688.37396,626.2664 687.5895,626.22509 L 687.5895,625.75028 L 700.78098,625.75028 z" style="font-size:42.27879715px;font-style:normal;font-variant:normal;font-weight:normal;font-stretch:normal;text-align:start;line-height:100%;writing-mode:lr-tb;text-anchor:start;fill:#f9be93;fill-opacity:1;stroke:none;stroke-width:1px;stroke-linecap:butt;stroke-linejoin:miter;stroke-opacity:1;font-family:Baskerville Old Face;-inkscape-font-specification:Baskerville Old Face"/>
      <path id="path3503" d="M 713.96766,625.75028 L 727.59266,625.75028 L 727.59266,626.22509 C 726.56046,626.32145 725.81727,626.47972 725.36312,626.6999 C 724.93647,626.90636 724.5924,627.22635 724.33092,627.65984 C 724.06942,628.09339 723.93868,628.56476 723.93869,629.07395 C 723.93868,629.4318 723.97308,629.74834 724.04191,630.02357 C 724.11071,630.29885 724.31715,630.89752 724.66122,631.8196 L 730.77183,648.43797 L 736.69664,633.86335 C 737.52238,631.81274 737.93526,630.31949 737.93528,629.38361 C 737.93526,628.86066 737.85268,628.37208 737.68755,627.91789 C 737.52238,627.46375 737.30218,627.1128 737.02695,626.86505 C 736.75167,626.63111 736.44889,626.46596 736.11861,626.3696 C 735.78829,626.27328 735.36165,626.22512 734.83869,626.22509 L 734.83869,625.75028 L 744.02524,625.75028 L 744.02524,626.22509 C 743.26827,626.29393 742.61111,626.47972 742.05375,626.78247 C 741.49633,627.08528 740.96303,627.54633 740.45384,628.16562 C 740.10975,628.60605 739.74848,629.20816 739.37003,629.97196 C 738.99154,630.73581 738.472,631.91596 737.81142,633.5124 L 729.3474,653.92926 L 728.48035,653.92926 L 720.26406,632.83115 C 719.19057,630.06488 718.33041,628.31015 717.68357,627.56694 C 717.27069,627.09904 716.76491,626.75842 716.16624,626.54507 C 715.56757,626.33178 714.83471,626.22512 713.96766,626.22509 L 713.96766,625.75028 z" style="font-size:42.27879715px;font-style:normal;font-variant:normal;font-weight:normal;font-stretch:normal;text-align:start;line-height:100%;writing-mode:lr-tb;text-anchor:start;fill:#f9be93;fill-opacity:1;stroke:none;stroke-width:1px;stroke-linecap:butt;stroke-linejoin:miter;stroke-opacity:1;font-family:Baskerville Old Face;-inkscape-font-specification:Baskerville Old Face"/>
      <path id="path3505" d="M 671.34358,626.22509 C 670.55907,626.2664 669.92943,626.37306 669.45466,626.54507 C 668.97981,626.71713 668.54285,627.0027 668.14376,627.40179 C 667.84095,627.69083 667.61387,628.01081 667.46251,628.36174 C 667.31109,628.71271 667.20787,629.15655 667.15286,629.69327 C 667.05648,630.40895 667.00832,631.25535 667.00835,632.23248 L 667.00835,647.44706 C 667.00832,648.86462 667.09089,649.91746 667.25608,650.60559 C 667.42119,651.29372 667.71709,651.84422 668.14376,652.2571 C 668.90068,652.98652 669.96728,653.38564 671.34358,653.45445 L 671.34358,653.92926 L 658.1521,653.92926 L 658.1521,653.45445 C 658.9503,653.41316 659.59371,653.29962 660.0823,653.11382 C 660.57085,652.92803 661.00782,652.64246 661.3932,652.2571 C 661.81981,651.8167 662.11227,651.25587 662.27056,650.57462 C 662.42881,649.89337 662.50794,648.85086 662.50797,647.44706 L 662.50797,628.99138 L 651.87634,653.92926 L 651.44281,653.92926 L 640.87311,629.36297 L 640.87311,647.44706 C 640.87311,648.86462 640.95224,649.91058 641.11052,650.58494 C 641.26878,651.25931 641.56124,651.8167 641.98789,652.2571 C 642.37323,652.65622 642.8102,652.94523 643.29878,653.12415 C 643.78734,653.30306 644.42386,653.41316 645.20834,653.45445 L 645.20834,653.92926 L 635.69148,653.92926 L 635.69148,653.45445 C 636.47595,653.41316 637.11247,653.30306 637.60105,653.12415 C 638.08962,652.94523 638.52658,652.65622 638.91194,652.2571 C 639.33858,651.8167 639.63103,651.25587 639.78931,650.57462 C 639.94757,649.89337 640.02671,648.85086 640.02671,647.44706 L 640.02671,632.23248 C 640.02671,631.59942 640.00606,631.00074 639.96478,630.43645 C 639.89596,629.41804 639.73769,628.67486 639.48997,628.20691 C 639.1459,627.56009 638.67453,627.08184 638.07586,626.77215 C 637.47718,626.46252 636.68239,626.28017 635.69148,626.22509 L 635.69148,625.75028 L 644.65096,625.75028 L 653.58978,647.81865 L 662.85892,625.75028 L 671.34358,625.75028 L 671.34358,626.22509 z" style="font-size:42.27879715px;font-style:normal;font-variant:normal;font-weight:normal;font-stretch:normal;text-align:start;line-height:100%;writing-mode:lr-tb;text-anchor:start;fill:#f9be93;fill-opacity:1;stroke:none;stroke-width:1px;stroke-linecap:butt;stroke-linejoin:miter;stroke-opacity:1;font-family:Baskerville Old Face;-inkscape-font-specification:Baskerville Old Face"/>
    </g>
    <g id="g3487" transform="translate(-254.50517,153.62094)" style="fill:#894009;fill-opacity:1">
      <path style="font-size:42.27879715px;font-style:normal;font-variant:normal;font-weight:normal;font-stretch:normal;text-align:start;line-height:100%;writing-mode:lr-tb;text-anchor:start;fill:#894009;fill-opacity:1;stroke:none;stroke-width:1px;stroke-linecap:butt;stroke-linejoin:miter;stroke-opacity:1;font-family:Baskerville Old Face;-inkscape-font-specification:Baskerville Old Face" d="M 617.06489,626.22509 C 616.28038,626.2664 615.65074,626.37306 615.17597,626.54507 C 614.70112,626.71713 614.26416,627.0027 613.86508,627.40179 C 613.56227,627.69083 613.33518,628.01081 613.18383,628.36174 C 613.03241,628.71271 612.92919,629.15655 612.87417,629.69327 C 612.7778,630.40895 612.72963,631.25535 612.72966,632.23248 L 612.72966,647.44706 C 612.72963,648.86462 612.8122,649.91746 612.97739,650.60559 C 613.14251,651.29372 613.4384,651.84422 613.86508,652.2571 C 614.62199,652.98652 615.68859,653.38564 617.06489,653.45445 L 617.06489,653.92926 L 603.87341,653.92926 L 603.87341,653.45445 C 604.67162,653.41316 605.31502,653.29962 605.80362,653.11382 C 606.29217,652.92803 606.72913,652.64246 607.11451,652.2571 C 607.54112,651.8167 607.83358,651.25587 607.99188,650.57462 C 608.15012,649.89337 608.22925,648.85086 608.22928,647.44706 L 608.22928,628.99138 L 597.59765,653.92926 L 597.16413,653.92926 L 586.59443,629.36297 L 586.59443,647.44706 C 586.59442,648.86462 586.67356,649.91058 586.83183,650.58494 C 586.9901,651.25931 587.28255,651.8167 587.7092,652.2571 C 588.09455,652.65622 588.53151,652.94523 589.02009,653.12415 C 589.50866,653.30306 590.14518,653.41316 590.92966,653.45445 L 590.92966,653.92926 L 581.4128,653.92926 L 581.4128,653.45445 C 582.19727,653.41316 582.83379,653.30306 583.32236,653.12415 C 583.81093,652.94523 584.2479,652.65622 584.63325,652.2571 C 585.05989,651.8167 585.35235,651.25587 585.51062,650.57462 C 585.66889,649.89337 585.74802,648.85086 585.74803,647.44706 L 585.74803,632.23248 C 585.74802,631.59942 585.72738,631.00074 585.68609,630.43645 C 585.61728,629.41804 585.45901,628.67486 585.21128,628.20691 C 584.86721,627.56009 584.39584,627.08184 583.79717,626.77215 C 583.1985,626.46252 582.40371,626.28017 581.4128,626.22509 L 581.4128,625.75028 L 590.37227,625.75028 L 599.3111,647.81865 L 608.58023,625.75028 L 617.06489,625.75028 L 617.06489,626.22509 z" id="path3489"/>
      <path style="font-size:42.27879715px;font-style:normal;font-variant:normal;font-weight:normal;font-stretch:normal;text-align:start;line-height:100%;writing-mode:lr-tb;text-anchor:start;fill:#894009;fill-opacity:1;stroke:none;stroke-width:1px;stroke-linecap:butt;stroke-linejoin:miter;stroke-opacity:1;font-family:Baskerville Old Face;-inkscape-font-specification:Baskerville Old Face" d="M 700.78098,625.75028 L 700.78098,626.22509 C 699.99649,626.2664 699.35997,626.3765 698.87141,626.55539 C 698.38283,626.73433 697.94586,627.02335 697.56052,627.42244 C 697.02377,627.97297 696.69346,628.73679 696.56961,629.71391 C 696.48703,630.44336 696.44574,631.28288 696.44575,632.23248 L 696.44575,647.44706 C 696.44574,648.58937 696.50079,649.49082 696.6109,650.15142 C 696.72099,650.81203 696.8999,651.34189 697.14764,651.741 C 697.50546,652.29151 697.96651,652.70095 698.53079,652.96932 C 699.09504,653.23769 699.8451,653.3994 700.78098,653.45445 L 700.78098,653.92926 L 687.5895,653.92926 L 687.5895,653.45445 C 688.38773,653.41316 689.03113,653.29962 689.5197,653.11382 C 690.00827,652.92803 690.43836,652.64246 690.80995,652.2571 C 691.25035,651.8167 691.54625,651.25931 691.69764,650.58494 C 691.84902,649.91058 691.92472,648.86462 691.92472,647.44706 L 691.92472,632.23248 C 691.92472,630.81495 691.84902,629.76899 691.69764,629.0946 C 691.54625,628.42025 691.25035,627.86287 690.80995,627.42244 C 690.43836,627.02335 690.00483,626.73433 689.50938,626.55539 C 689.01392,626.3765 688.37396,626.2664 687.5895,626.22509 L 687.5895,625.75028 L 700.78098,625.75028 z" id="path3491"/>
      <path style="font-size:42.27879715px;font-style:normal;font-variant:normal;font-weight:normal;font-stretch:normal;text-align:start;line-height:100%;writing-mode:lr-tb;text-anchor:start;fill:#894009;fill-opacity:1;stroke:none;stroke-width:1px;stroke-linecap:butt;stroke-linejoin:miter;stroke-opacity:1;font-family:Baskerville Old Face;-inkscape-font-specification:Baskerville Old Face" d="M 713.96766,625.75028 L 727.59266,625.75028 L 727.59266,626.22509 C 726.56046,626.32145 725.81727,626.47972 725.36312,626.6999 C 724.93647,626.90636 724.5924,627.22635 724.33092,627.65984 C 724.06942,628.09339 723.93868,628.56476 723.93869,629.07395 C 723.93868,629.4318 723.97308,629.74834 724.04191,630.02357 C 724.11071,630.29885 724.31715,630.89752 724.66122,631.8196 L 730.77183,648.43797 L 736.69664,633.86335 C 737.52238,631.81274 737.93526,630.31949 737.93528,629.38361 C 737.93526,628.86066 737.85268,628.37208 737.68755,627.91789 C 737.52238,627.46375 737.30218,627.1128 737.02695,626.86505 C 736.75167,626.63111 736.44889,626.46596 736.11861,626.3696 C 735.78829,626.27328 735.36165,626.22512 734.83869,626.22509 L 734.83869,625.75028 L 744.02524,625.75028 L 744.02524,626.22509 C 743.26827,626.29393 742.61111,626.47972 742.05375,626.78247 C 741.49633,627.08528 740.96303,627.54633 740.45384,628.16562 C 740.10975,628.60605 739.74848,629.20816 739.37003,629.97196 C 738.99154,630.73581 738.472,631.91596 737.81142,633.5124 L 729.3474,653.92926 L 728.48035,653.92926 L 720.26406,632.83115 C 719.19057,630.06488 718.33041,628.31015 717.68357,627.56694 C 717.27069,627.09904 716.76491,626.75842 716.16624,626.54507 C 715.56757,626.33178 714.83471,626.22512 713.96766,626.22509 L 713.96766,625.75028 z" id="path3493"/>
      <path style="font-size:42.27879715px;font-style:normal;font-variant:normal;font-weight:normal;font-stretch:normal;text-align:start;line-height:100%;writing-mode:lr-tb;text-anchor:start;fill:#894009;fill-opacity:1;stroke:none;stroke-width:1px;stroke-linecap:butt;stroke-linejoin:miter;stroke-opacity:1;font-family:Baskerville Old Face;-inkscape-font-specification:Baskerville Old Face" d="M 671.34358,626.22509 C 670.55907,626.2664 669.92943,626.37306 669.45466,626.54507 C 668.97981,626.71713 668.54285,627.0027 668.14376,627.40179 C 667.84095,627.69083 667.61387,628.01081 667.46251,628.36174 C 667.31109,628.71271 667.20787,629.15655 667.15286,629.69327 C 667.05648,630.40895 667.00832,631.25535 667.00835,632.23248 L 667.00835,647.44706 C 667.00832,648.86462 667.09089,649.91746 667.25608,650.60559 C 667.42119,651.29372 667.71709,651.84422 668.14376,652.2571 C 668.90068,652.98652 669.96728,653.38564 671.34358,653.45445 L 671.34358,653.92926 L 658.1521,653.92926 L 658.1521,653.45445 C 658.9503,653.41316 659.59371,653.29962 660.0823,653.11382 C 660.57085,652.92803 661.00782,652.64246 661.3932,652.2571 C 661.81981,651.8167 662.11227,651.25587 662.27056,650.57462 C 662.42881,649.89337 662.50794,648.85086 662.50797,647.44706 L 662.50797,628.99138 L 651.87634,653.92926 L 651.44281,653.92926 L 640.87311,629.36297 L 640.87311,647.44706 C 640.87311,648.86462 640.95224,649.91058 641.11052,650.58494 C 641.26878,651.25931 641.56124,651.8167 641.98789,652.2571 C 642.37323,652.65622 642.8102,652.94523 643.29878,653.12415 C 643.78734,653.30306 644.42386,653.41316 645.20834,653.45445 L 645.20834,653.92926 L 635.69148,653.92926 L 635.69148,653.45445 C 636.47595,653.41316 637.11247,653.30306 637.60105,653.12415 C 638.08962,652.94523 638.52658,652.65622 638.91194,652.2571 C 639.33858,651.8167 639.63103,651.25587 639.78931,650.57462 C 639.94757,649.89337 640.02671,648.85086 640.02671,647.44706 L 640.02671,632.23248 C 640.02671,631.59942 640.00606,631.00074 639.96478,630.43645 C 639.89596,629.41804 639.73769,628.67486 639.48997,628.20691 C 639.1459,627.56009 638.67453,627.08184 638.07586,626.77215 C 637.47718,626.46252 636.68239,626.28017 635.69148,626.22509 L 635.69148,625.75028 L 644.65096,625.75028 L 653.58978,647.81865 L 662.85892,625.75028 L 671.34358,625.75028 L 671.34358,626.22509 z" id="path3495"/>
    </g>
    <path style="font-size:146.99455261px;font-style:normal;font-variant:normal;font-weight:normal;font-stretch:normal;text-align:start;line-height:100%;writing-mode:lr-tb;text-anchor:start;fill:#000000;fill-opacity:1;stroke:none;stroke-width:1px;stroke-linecap:butt;stroke-linejoin:miter;stroke-opacity:1;font-family:Arial Narrow;-inkscape-font-specification:Arial Narrow" d="M 7.5455638,236.37951 C 34.201805,236.41087 60.868142,236.31679 87.518073,236.42653 C 90.58843,236.43038 86.826902,237.7679 85.759416,238.10002 C 59.688132,247.25146 33.616848,256.40291 7.5455638,265.55435 C 7.5455345,269.14045 7.5455638,272.72654 7.5455638,276.31264 C 33.803948,285.77127 60.112226,295.11893 86.339472,304.64688 C 89.254396,305.68683 85.262535,305.67417 84.119211,305.6434 C 58.594672,305.6434 33.070103,305.6434 7.5455638,305.6434 C 7.5455638,309.38236 7.5455345,313.12131 7.5455638,316.86027 C 38.5853,316.86027 69.625036,316.86027 100.66477,316.86027 C 100.66477,311.41845 100.66477,305.97664 100.66477,300.53483 C 74.478234,291.30778 48.370645,281.76084 22.124441,272.76803 C 21.100245,272.22959 17.022509,271.69116 20.062842,271.15273 C 47.038078,262.26254 73.790379,252.71278 100.66477,243.52418 C 100.66477,237.40672 100.66477,231.28927 100.66477,225.17181 C 69.625036,225.17181 38.5853,225.17181 7.5455638,225.17181 C 7.5455638,228.90771 7.5455638,232.64361 7.5455638,236.37951 z" id="path3739"/>
    <path style="font-size:141.85671997px;font-style:normal;font-variant:normal;font-weight:normal;font-stretch:normal;text-align:start;line-height:100%;writing-mode:lr-tb;text-anchor:start;fill:#000000;fill-opacity:1;stroke:none;stroke-width:1px;stroke-linecap:butt;stroke-linejoin:miter;stroke-opacity:1;font-family:Arial Narrow;-inkscape-font-specification:Arial Narrow" d="M 7.5455638,530.85197 C 7.5402517,540.86648 9.3162837,551.81316 16.695384,559.18878 C 25.940706,568.41389 39.321933,572.02436 52.110221,572.31589 C 64.721974,572.71997 78.031795,570.61409 88.240208,562.7731 C 95.169181,557.6335 99.658215,549.45263 100.38933,540.8421 C 101.45899,530.22392 100.77028,519.52854 100.96742,508.87682 C 100.96742,505.52307 100.96742,502.16932 100.96742,498.81558 C 69.826811,498.81558 38.686173,498.81558 7.5455638,498.81558 C 7.5455638,509.49438 7.5455638,520.17317 7.5455638,530.85197 z M 18.1204,509.5922 C 42.406789,509.5922 66.693177,509.5922 90.979566,509.5922 C 90.794432,519.13627 91.417866,528.71877 90.5118,538.2351 C 90.036432,544.15641 87.187221,549.75694 82.495854,553.43244 C 74.318575,560.22306 63.193648,561.36689 52.935841,561.17592 C 43.817982,560.87738 34.231976,559.31025 26.631642,553.97356 C 21.28802,550.19973 18.619541,543.80192 18.001184,537.43717 C 17.075308,529.04769 17.731084,520.54082 17.533418,512.10522 C 17.787171,511.3923 16.955153,509.3565 18.1204,509.5922 z" id="path3741"/>
    <path style="font-size:142.63716125px;font-style:normal;font-variant:normal;font-weight:normal;font-stretch:normal;text-align:start;line-height:100%;writing-mode:lr-tb;text-anchor:start;fill:#000000;fill-opacity:1;stroke:none;stroke-width:1px;stroke-linecap:butt;stroke-linejoin:miter;stroke-opacity:1;font-family:Arial Narrow;-inkscape-font-specification:Arial Narrow" d="M 52.26627,590.00877 C 39.682223,589.92618 27.189246,594.87983 18.533108,604.02297 C 10.04963,612.50676 6.5239213,624.79702 7.2560055,636.6277 C 7.6191421,647.79787 12.42952,658.81347 20.921362,666.21405 C 30.162223,674.75693 43.09752,678.05865 55.457839,677.66822 C 67.968279,677.60207 80.749846,673.28508 89.46477,664.06329 C 101.1284,651.90469 103.72671,632.88113 98.086512,617.40425 C 93.588555,605.3381 83.3117,595.69331 70.830844,592.33412 C 64.815774,590.58487 58.532804,589.96544 52.26627,590.00877 z M 52.119525,601.50078 C 62.412962,601.46703 73.535482,603.06404 81.486948,610.10373 C 88.303397,616.11451 91.889124,625.22549 91.649078,634.28924 C 91.712061,646.22933 84.462772,658.15898 73.205011,662.53775 C 62.854314,666.90437 51.013709,667.13726 40.159762,664.54632 C 31.875594,662.5229 24.489069,657.0748 20.35827,649.59665 C 14.093585,638.37053 15.199577,623.10696 23.696731,613.31379 C 29.427673,606.16948 38.487098,602.40298 47.478667,601.73007 C 49.02108,601.58407 50.570537,601.51825 52.119525,601.50078 z" id="path3743"/>
    <path style="font-size:144.27801514px;font-style:normal;font-variant:normal;font-weight:normal;font-stretch:normal;text-align:start;line-height:100%;writing-mode:lr-tb;text-anchor:start;fill:#000000;fill-opacity:1;stroke:none;stroke-width:1px;stroke-linecap:butt;stroke-linejoin:miter;stroke-opacity:1;font-family:Arial Narrow;-inkscape-font-specification:Arial Narrow" d="M 7.5455638,705.4058 C 32.822455,705.4058 58.099406,705.4058 83.376327,705.4058 C 58.104865,721.80385 32.821575,738.18371 7.5455638,754.57471 C 7.5455345,758.42987 7.5455638,762.28499 7.5455638,766.14011 C 38.732046,766.14011 69.918527,766.14011 101.10501,766.14011 C 101.10501,762.65491 101.10501,759.1697 101.10501,755.68449 C 75.846431,755.68449 50.587853,755.68449 25.329276,755.68449 C 50.584625,739.26543 75.846959,722.8571 101.10501,706.44217 C 101.10501,702.58705 101.10501,698.73193 101.10501,694.8768 C 69.918527,694.8768 38.732046,694.8768 7.5455638,694.8768 C 7.5455638,698.38646 7.5455345,701.89614 7.5455638,705.4058 z" id="path3745"/>
    <path style="font-size:128.01878357px;font-style:normal;font-variant:normal;font-weight:normal;font-stretch:normal;text-align:start;line-height:100%;writing-mode:lr-tb;text-anchor:start;fill:#000000;fill-opacity:1;stroke:none;stroke-width:1px;stroke-linecap:butt;stroke-linejoin:miter;stroke-opacity:1;font-family:Lucida Sans Unicode;-inkscape-font-specification:Lucida Sans Unicode" d="M 7.5455638,348.89666 C 38.777889,348.89666 70.010243,348.89666 101.2426,348.89666 C 101.2426,345.24025 101.24257,341.58384 101.2426,337.92743 C 70.010243,337.92743 38.777889,337.92743 7.5455638,337.92743 C 7.5455638,341.58384 7.5455345,345.24025 7.5455638,348.89666 z M 7.5455638,389.62772 C 7.5455638,394.57732 7.5455345,399.52693 7.5455638,404.47653 C 23.883127,390.61508 40.221454,376.75453 56.558578,362.89251 C 71.447645,374.66362 86.348834,386.41955 101.2426,398.18482 C 101.2426,394.34803 101.24257,390.51125 101.2426,386.67446 C 85.864867,374.51293 70.487166,362.35139 55.109436,350.18985 C 39.254812,363.33581 23.400188,376.48176 7.5455638,389.62772 z" id="path3747"/>
    <path style="font-size:125.76197052px;font-style:normal;font-variant:normal;font-weight:normal;font-stretch:normal;text-align:start;line-height:100%;writing-mode:lr-tb;text-anchor:start;fill:#000000;fill-opacity:1;stroke:none;stroke-width:1px;stroke-linecap:butt;stroke-linejoin:miter;stroke-opacity:1;font-family:Arial Narrow;-inkscape-font-specification:Arial Narrow" d="M 36.005014,782.04366 C 26.858628,782.21776 17.266077,785.54293 11.489321,792.88449 C 5.3096312,800.60759 4.4799613,811.57914 7.2062001,820.82117 C 10.017023,830.07037 18.999171,836.3335 28.334008,837.63234 C 36.99361,838.95869 46.816962,836.97249 52.66982,830.06614 C 58.108357,823.89267 59.731921,815.55897 62.225245,807.95851 C 63.841324,803.48835 65.138672,798.41418 68.885204,795.23242 C 73.018057,792.14659 78.986786,792.00918 83.605191,794.10086 C 88.807233,796.52252 91.429106,802.32944 91.603235,807.86172 C 92.139443,813.98086 90.364908,820.87022 84.951229,824.35454 C 81.669236,826.54695 77.691639,827.44483 73.782807,827.83743 C 74.042693,830.50027 74.302551,833.16309 74.562408,835.82591 C 83.357514,835.62498 92.674301,832.05123 97.4639,824.33391 C 101.91992,817.19295 102.48078,807.80608 99.848515,799.8824 C 96.900074,791.26506 88.206251,785.45608 79.296419,784.9035 C 71.708324,784.06279 63.484498,786.30641 58.328681,792.10489 C 52.80873,798.46135 51.284396,807.12127 48.452265,814.80011 C 46.653664,819.93979 44.68249,825.88119 39.407662,828.41526 C 32.475608,831.7411 23.011782,829.77559 18.780755,823.12326 C 15.344356,817.76367 15.048576,810.76361 16.698788,804.75254 C 18.601139,798.10217 24.089833,792.52731 30.878106,790.99514 C 32.960866,790.42644 35.115325,790.08661 37.261538,789.85786 C 36.961913,787.25008 36.662317,784.64229 36.362692,782.0345 L 36.069318,782.04202 L 36.005014,782.04366 z" id="path3749"/>
    <path style="fill:#c60001;fill-opacity:1;stroke:none;stroke-width:5;stroke-miterlimit:4;stroke-dasharray:none;stroke-dashoffset:0;stroke-opacity:1" d="M 99.629776,437.57563 C 99.058319,414.34377 77.713621,394.01626 54.434025,394.6443 C 30.753725,394.03204 9.1838312,414.90342 9.1762297,438.75437 C 7.969952,462.20947 27.826591,483.88944 51.021839,485.0668 C 74.189204,487.42619 96.814785,468.90864 99.332059,445.80534 C 99.684072,443.12622 99.779632,440.32244 99.629776,437.57563 z" id="path3751"/>
    <path style="fill:#b06603;fill-opacity:1;stroke:none;stroke-width:8.29199982;stroke-miterlimit:4;stroke-opacity:1;filter:url(#filter3267)" d="M 191.8125,524 L 195.125,533.78125 L 363.46875,533.71875 L 366.78125,530.78125 L 356.65625,524 L 191.8125,524 z M 447.03125,524 L 440.46875,531.9375 L 443,533.71875 L 610.1875,533.65625 L 611.125,524 L 447.03125,524 z" transform="translate(5.7273135,225.17181)" id="path3271"/>
  </g>
</svg>