<svg xmlns:dc="http://purl.org/dc/elements/1.1/" xmlns:cc="http://creativecommons.org/ns#" xmlns:rdf="http://www.w3.org/1999/02/22-rdf-syntax-ns#" xmlns:svg="http://www.w3.org/2000/svg" xmlns="http://www.w3.org/2000/svg" xmlns:sodipodi="http://sodipodi.sourceforge.net/DTD/sodipodi-0.dtd" xmlns:inkscape="http://www.inkscape.org/namespaces/inkscape" inkscape:version="1.0 (4035a4f, 2020-05-01)" sodipodi:docname="Associazione_Calcio_Monza_(2019).svg" viewBox="0 0 749.98669 1052.0907" height="1052.0907" width="749.98669" xml:space="preserve" id="svg2" version="1.1"><metadata id="metadata8"><rdf:RDF><cc:Work rdf:about=""><dc:format>image/svg+xml</dc:format><dc:type rdf:resource="http://purl.org/dc/dcmitype/StillImage"/></cc:Work></rdf:RDF></metadata><defs id="defs6"><clipPath id="clipPath18" clipPathUnits="userSpaceOnUse"><path id="path16" d="M 0,789.068 H 562.49 V 0 H 0 Z"/></clipPath></defs><sodipodi:namedview inkscape:current-layer="g10" inkscape:window-maximized="1" inkscape:window-y="25" inkscape:window-x="0" inkscape:cy="587.90786" inkscape:cx="366.50979" inkscape:zoom="1.0521285" showgrid="false" inkscape:document-rotation="0" id="namedview4" inkscape:window-height="793" inkscape:window-width="1440" inkscape:pageshadow="2" inkscape:pageopacity="0" guidetolerance="10" gridtolerance="10" objecttolerance="10" borderopacity="1" bordercolor="#666666" pagecolor="#ffffff"/><g transform="matrix(1.3333333,0,0,-1.3333333,0,1052.0907)" inkscape:label="LOGO AC MONZA VETTORIALE" inkscape:groupmode="layer" id="g10"><g id="g12"><g clip-path="url(#clipPath18)" id="g14"><g transform="translate(215.3665,721.4893)" id="g20"><path id="path22" style="fill:#ffffff;fill-opacity:1;fill-rule:nonzero;stroke:none" d="m 0,0 v -67.38 c -24.22,3.03 -45.72,7.62 -63,13.38 V 13.37 C -47.57,7.64 -25.76,2.99 0,0"/></g><g transform="translate(334.9861,719.9692)" id="g24"><path id="path26" style="fill:#ffffff;fill-opacity:1;fill-rule:nonzero;stroke:none" d="m 0,0 v -67.53 c -16.479,-1.54 -33.979,-2.37 -52.149,-2.37 -20.221,0 -39.611,1.03 -57.681,2.92 V 0.48 C -92,-1.23 -72.54,-2.18 -52.149,-2.18 -33.84,-2.18 -16.31,-1.4 0,0"/></g><g transform="translate(411.1765,734.0894)" id="g28"><path id="path30" style="fill:#ffffff;fill-opacity:1;fill-rule:nonzero;stroke:none" d="m 0,0 v -67.29 c -18.24,-5.87 -40.91,-10.47 -66.4,-13.36 V -13.2 C -39.419,-10.37 -16.41,-5.78 0,0"/></g><g transform="translate(530.2068,694.6592)" id="g32"><path id="path34" style="fill:#e4002b;fill-opacity:1;fill-rule:nonzero;stroke:none" d="m 0,0 c -0.09,-45.04 -3.479,-152.22 -29.62,-272.01 -18.09,-82.89 -43.739,-156.17 -76.23,-217.83 -38.45,-72.96 -86.719,-129.88 -143.569,-169.3 -6.621,4.25 -18.131,12.31 -32.561,25.15 -21.28,18.94 -53.46,52.44 -85.89,104.47 -36.53,58.62 -65.919,128.32 -87.35,207.16 -25.76,94.73 -40.03,202.97 -42.46,321.94 11.75,-8.2 30.79,-20.18 56.49,-32.17 41,-19.13 107.63,-41.94 192.181,-41.94 84.538,0 150.38,22.3 190.72,41.01 C -30.77,-20.76 -11.12,-8 0,0"/></g><g transform="translate(173.5506,738.8608)" id="g36"><path id="path38" style="fill:#ffffff;fill-opacity:1;fill-rule:nonzero;stroke:none" d="m 0,0 c 23.784,-5.765 64.159,-9.202 108.216,-9.202 44.413,0 85.075,3.491 108.772,9.338 l 0.295,0.072 0.037,0.005 c 17.603,4.394 17.806,8.147 17.806,8.306 0,0.895 -1.842,3.083 -8.745,5.601 -20.189,7.361 -66.57,12.118 -118.165,12.118 -51.59,0 -97.967,-4.757 -118.153,-12.118 -6.905,-2.519 -8.747,-4.706 -8.747,-5.601 0,-1.355 3.783,-4.848 18.098,-8.373 z m -18.684,-69.561 c 16.151,-5.224 36.108,-9.473 58,-12.349 v 62.317 c -23.142,2.796 -43.057,6.935 -58,12.047 z m 192.41,-13.053 c 23.1,2.758 44.23,7.018 61.4,12.383 v 61.973 c -15.886,-5.179 -36.974,-9.289 -61.4,-11.96 z m -119.62,-1 c 17.76,-1.777 36.311,-2.678 55.18,-2.678 16.901,0 33.592,0.724 49.651,2.152 v 62.531 c -16.092,-1.303 -32.782,-1.963 -49.651,-1.963 -18.965,0 -37.514,0.813 -55.18,2.416 z m -192.524,34.175 c 2.711,-116.835 16.927,-223.281 42.267,-316.466 21.367,-78.608 50.658,-148.082 87.059,-206.494 32.268,-51.772 64.268,-85.09 85.43,-103.925 13.139,-11.691 23.827,-19.402 30.849,-24.005 55.902,39.138 103.471,95.467 141.408,167.453 32.392,61.473 57.962,134.549 75.999,217.197 25.459,116.666 29.223,222.141 29.54,266.637 -11.943,-8.272 -30.245,-19.602 -54.715,-30.948 -40.565,-18.814 -106.764,-41.241 -191.772,-41.241 -85.007,0 -152.004,22.934 -193.238,42.174 -23.241,10.843 -41.053,21.683 -52.827,29.618 m 239.14,-682.031 c -2.746,1.429 -68.025,36.194 -134.033,141.228 -38.257,60.889 -68.983,133.138 -91.324,214.74 -27.776,101.475 -42.626,217.88 -44.138,345.981 v 0.169 c 0,5.553 2.32,13.018 8.832,17.317 1.823,1.2 4.868,3.204 9.484,3.204 1.29,0 2.639,-0.16 4.011,-0.475 2.104,-0.484 4.229,-1.386 6.316,-2.684 l 1.349,-0.838 c 1.841,-1.145 3.644,-2.393 5.361,-3.71 5.623,-4.315 26.669,-19.643 61.388,-35.735 9.17,-4.249 18.694,-8.226 28.359,-11.841 v 80.582 c 0,8.947 15.41,16.323 45.8,21.924 28.363,5.228 66.04,8.107 106.089,8.107 40.051,0 77.729,-2.879 106.095,-8.107 30.395,-5.601 45.806,-12.977 45.806,-21.924 V -63.9 c 56.48,21.352 87.843,47.552 89.175,48.678 2.32,2.066 8.663,6.97 16.39,6.97 2.505,0 4.947,-0.52 7.257,-1.544 4.157,-1.848 11.127,-6.843 11.127,-19.556 0,-0.103 0.02,-1.097 0.02,-1.097 0.471,-33.815 -0.315,-154.759 -30.188,-291.636 -18.618,-85.302 -45.117,-160.926 -78.759,-224.771 -42.088,-79.855 -95.651,-141.698 -159.201,-183.81 l -7.38,-4.883 z"/></g><g transform="translate(281.1975,615.1294)" id="g40"><path id="path42" style="fill:#e4002b;fill-opacity:1;fill-rule:nonzero;stroke:none" d="m 0,0 c 85.463,0 152.031,22.554 192.824,41.474 22.058,10.228 39.146,20.449 51.118,28.459 -0.554,-46.858 -4.899,-148.897 -29.438,-261.347 -17.989,-82.43 -43.481,-155.292 -75.767,-216.565 -37.435,-71.031 -84.271,-126.726 -139.239,-165.592 -6.932,4.636 -16.97,12.012 -29.145,22.846 -21.04,18.726 -52.86,51.863 -84.971,103.379 -36.272,58.206 -65.465,127.456 -86.768,205.827 -24.939,91.714 -39.081,196.327 -42.062,311.076 11.742,-7.663 28.273,-17.407 49.153,-27.148 C -152.831,23.062 -85.463,0 0,0 m -51.041,42.385 v 57.46 c 16.919,-1.45 34.612,-2.185 52.68,-2.185 15.998,0 31.832,0.591 47.15,1.758 V 41.885 C 33.507,40.594 17.668,39.94 1.639,39.94 c -17.99,0 -35.688,0.822 -52.68,2.445 M 68.58,101.277 c 22.023,2.508 41.285,6.197 56.399,10.789 V 55.346 C 108.981,50.494 89.66,46.588 68.58,43.942 Z M -123.831,55.998 v 56.731 c 14.185,-4.508 32.273,-8.198 53,-10.801 V 44.68 c -19.862,2.739 -38.012,6.614 -53,11.318 m 0.54,76.253 c 0.861,0.686 2.722,1.851 6.564,3.251 19.934,7.27 65.975,11.968 117.296,11.968 51.327,0 97.373,-4.698 117.308,-11.968 3.839,-1.4 5.701,-2.564 6.561,-3.25 -1.345,-1.065 -5.124,-3.296 -15.053,-5.802 h -0.001 l -0.041,-0.01 h -0.01 l -0.59,-0.146 C 85.23,120.493 44.792,117.03 0.569,117.03 c -43.671,0 -83.66,3.379 -107.303,9.053 l -0.901,0.222 c -10.381,2.556 -14.285,4.859 -15.656,5.946 M 0.569,172.73 c -40.196,0 -78.034,-2.894 -106.542,-8.148 -14.093,-2.598 -25.232,-5.654 -33.105,-9.084 -4.368,-1.903 -7.656,-3.877 -10.053,-6.036 -3.111,-2.801 -4.689,-5.918 -4.689,-9.262 V 63.239 c -8.447,3.245 -16.765,6.761 -24.808,10.488 -34.483,15.982 -55.345,31.174 -60.917,35.45 -1.784,1.368 -3.655,2.663 -5.563,3.849 l -1.35,0.839 c -2.321,1.443 -4.701,2.451 -7.076,2.997 -1.554,0.357 -3.091,0.538 -4.57,0.538 -5.365,0 -8.937,-2.351 -10.855,-3.614 -7.346,-4.849 -9.961,-13.204 -9.961,-19.406 v -0.14 -0.03 -0.029 c 1.515,-128.316 16.395,-244.932 44.227,-346.612 22.405,-81.839 53.231,-154.313 91.618,-215.41 66.365,-105.601 132.226,-140.674 134.997,-142.115 l 6.528,-3.399 2.612,-1.36 2.456,1.625 6.151,4.069 c 63.907,42.349 117.748,104.5 160.035,184.729 33.748,64.048 60.324,139.885 78.99,225.406 29.931,137.145 30.717,258.323 30.245,292.196 l -0.012,0.608 c -0.005,0.215 -0.008,0.371 -0.008,0.462 0,14.653 -8.818,20.154 -12.609,21.839 -2.637,1.168 -5.419,1.76 -8.274,1.76 -8.529,0 -15.425,-5.274 -18.048,-7.597 -1.807,-1.52 -31.573,-26.162 -85.018,-46.916 V 140.2 c 0,8.875 -11.097,13.709 -14.744,15.298 -7.874,3.43 -19.014,6.486 -33.109,9.084 -28.511,5.254 -66.35,8.148 -106.548,8.148 M 0,5 c -84.551,0 -151.181,22.81 -192.181,41.94 -25.699,11.99 -44.739,23.97 -56.489,32.17 2.429,-118.97 16.699,-227.21 42.46,-321.94 21.43,-78.84 50.819,-148.54 87.349,-207.16 32.43,-52.031 64.61,-85.531 85.89,-104.47 14.43,-12.84 25.94,-20.9 32.561,-25.15 56.85,39.42 105.119,96.339 143.57,169.299 32.49,61.661 58.139,134.941 76.229,217.831 26.141,119.79 29.53,226.97 29.62,272.01 -11.12,-8 -30.77,-20.76 -58.289,-33.52 C 150.38,27.3 84.539,5 0,5 m 1.639,29.94 c 18.171,0 35.671,0.83 52.15,2.37 v 67.53 c -16.31,-1.4 -33.84,-2.18 -52.15,-2.18 -20.39,0 -39.85,0.95 -57.68,2.66 V 37.86 c 18.07,-1.89 37.46,-2.92 57.68,-2.92 m 61.94,3.37 c 25.49,2.89 48.16,7.49 66.4,13.36 v 67.29 c -16.41,-5.78 -39.419,-10.37 -66.4,-13.2 V 38.31 m -129.41,0.67 v 67.38 c -25.76,2.99 -47.57,7.64 -63,13.37 V 52.36 c 17.28,-5.76 38.78,-10.35 63,-13.38 m 66.4,73.05 c 46.021,0 86.431,3.75 109.371,9.41 0.019,0 0.039,0.01 0.06,0.01 12.65,3.13 19.979,6.83 19.979,10.8 0,2.82 -3.699,5.51 -10.389,7.95 -19.771,7.21 -65.62,12.27 -119.021,12.27 -53.4,0 -99.24,-5.06 -119.009,-12.27 -6.69,-2.44 -10.391,-5.13 -10.391,-7.95 0,-3.97 7.33,-7.68 20,-10.8 0.011,-0.01 0.02,-0.01 0.03,-0.01 22.951,-5.66 63.361,-9.41 109.37,-9.41 m 0,55.7 C 83.08,167.73 149.97,155.4 149.97,140.2 V 56.23 c 58.739,21.62 91.61,48.95 93.289,50.37 2.114,1.881 7.897,6.379 14.777,6.379 2.008,0 4.112,-0.384 6.243,-1.329 3.6,-1.6 9.64,-5.97 9.64,-17.27 0,-0.18 0.01,-0.57 0.02,-1.14 0.471,-33.72 -0.3,-154.38 -30.13,-291.06 -18.57,-85.08 -44.99,-160.491 -78.529,-224.14 C 123.389,-501.44 70.109,-562.971 6.91,-604.851 l -6.151,-4.069 -6.53,3.399 c -2.73,1.42 -67.48,35.971 -133.07,140.34 -38.12,60.671 -68.749,132.691 -91.03,214.071 -27.719,101.27 -42.54,217.46 -44.049,345.35 v 0.14 c 0,4.91 2.03,11.48 7.71,15.23 1.813,1.194 4.326,2.79 8.106,2.79 1.048,0 2.195,-0.123 3.451,-0.411 1.974,-0.454 3.836,-1.301 5.556,-2.37 l 1.349,-0.839 c 1.78,-1.106 3.497,-2.294 5.159,-3.57 6.461,-4.957 27.373,-20.036 61.859,-36.02 9.28,-4.3 19.939,-8.8 31.91,-13.16 v 84.17 c 0,15.2 66.88,27.53 149.389,27.53"/></g><g transform="translate(411.1765,747.3794)" id="g44"><path id="path46" style="fill:#ed1639;fill-opacity:1;fill-rule:nonzero;stroke:none" d="m 0,0 c 0,-3.97 -7.329,-7.67 -19.979,-10.8 -0.021,0 -0.041,-0.01 -0.06,-0.01 -22.94,-5.66 -63.35,-9.41 -109.371,-9.41 -46.009,0 -86.419,3.75 -109.37,9.41 -0.01,0 -0.019,0 -0.03,0.01 -12.67,3.12 -20,6.83 -20,10.8 0,2.82 3.701,5.51 10.391,7.95 19.769,7.21 65.609,12.27 119.009,12.27 53.401,0 99.25,-5.06 119.021,-12.27 C -3.699,5.51 0,2.82 0,0"/></g><g transform="translate(215.3665,721.4893)" id="g48"><path id="path50" style="fill:#ed1639;fill-opacity:1;fill-rule:nonzero;stroke:none" d="m 0,0 v -67.38 c -24.22,3.03 -45.72,7.62 -63,13.38 V 13.37 C -47.57,7.64 -25.76,2.99 0,0"/></g><g transform="translate(334.9861,719.9692)" id="g52"><path id="path54" style="fill:#ed1639;fill-opacity:1;fill-rule:nonzero;stroke:none" d="m 0,0 v -67.53 c -16.479,-1.54 -33.979,-2.37 -52.149,-2.37 -20.221,0 -39.611,1.03 -57.681,2.92 V 0.48 C -92,-1.23 -72.54,-2.18 -52.149,-2.18 -33.84,-2.18 -16.31,-1.4 0,0"/></g><g transform="translate(411.1765,734.0894)" id="g56"><path id="path58" style="fill:#ed1639;fill-opacity:1;fill-rule:nonzero;stroke:none" d="m 0,0 v -67.29 c -18.24,-5.87 -40.91,-10.47 -66.4,-13.36 V -13.2 C -39.419,-10.37 -16.41,-5.78 0,0"/></g><g transform="translate(299.3221,692.9692)" id="g60"><path id="path62" style="fill:#ffffff;fill-opacity:1;fill-rule:nonzero;stroke:none" d="m 0,0 c -3.209,0 -6.04,-1.595 -7.758,-4.032 -1.335,2.721 -3.627,4.883 -6.448,6.036 2.818,1.644 4.717,4.691 4.717,8.19 0,5.242 -4.247,9.486 -9.488,9.486 -5.239,0 -9.487,-4.244 -9.487,-9.486 0,-3.525 1.926,-6.592 4.778,-8.228 -3.062,-1.282 -5.493,-3.758 -6.729,-6.843 -1.62,2.909 -4.723,4.877 -8.29,4.877 -5.239,0 -9.488,-4.244 -9.488,-9.486 0,-5.241 4.249,-9.485 9.488,-9.485 3.567,0 6.67,1.969 8.29,4.877 1.265,-3.156 3.785,-5.668 6.947,-6.923 -2.974,-1.6 -4.996,-4.74 -4.996,-8.357 0,-5.24 4.248,-9.484 9.487,-9.484 5.241,0 9.488,4.244 9.488,9.484 0,3.59 -1.992,6.71 -4.931,8.322 2.917,1.129 5.294,3.324 6.662,6.113 1.718,-2.436 4.549,-4.032 7.758,-4.032 5.24,0 9.486,4.244 9.486,9.485 C 9.486,-4.244 5.24,0 0,0"/></g><g transform="translate(202.4187,701.8442)" id="g64"><path id="path66" style="fill:#ffffff;fill-opacity:1;fill-rule:nonzero;stroke:none" d="m 0,0 c -3.208,0 -6.039,-1.595 -7.756,-4.03 -1.335,2.72 -3.628,4.882 -6.449,6.034 2.817,1.644 4.716,4.691 4.716,8.19 0,5.242 -4.247,9.487 -9.486,9.487 -5.241,0 -9.489,-4.245 -9.489,-9.487 0,-3.524 1.926,-6.591 4.778,-8.227 -3.062,-1.282 -5.493,-3.758 -6.729,-6.843 -1.62,2.908 -4.723,4.876 -8.289,4.876 -5.24,0 -9.488,-4.244 -9.488,-9.486 0,-5.24 4.248,-9.485 9.488,-9.485 3.566,0 6.669,1.969 8.289,4.877 1.265,-3.157 3.785,-5.668 6.947,-6.923 -2.974,-1.6 -4.996,-4.74 -4.996,-8.356 0,-5.24 4.248,-9.485 9.489,-9.485 5.239,0 9.486,4.245 9.486,9.485 0,3.589 -1.992,6.709 -4.93,8.321 2.917,1.129 5.294,3.323 6.663,6.112 1.717,-2.436 4.548,-4.031 7.756,-4.031 5.24,0 9.487,4.245 9.487,9.485 C 9.487,-4.244 5.24,0 0,0"/></g><g transform="translate(397.3269,701.3203)" id="g68"><path id="path70" style="fill:#ffffff;fill-opacity:1;fill-rule:nonzero;stroke:none" d="m 0,0 c -3.208,0 -6.038,-1.595 -7.755,-4.032 -1.336,2.721 -3.628,4.884 -6.45,6.036 2.817,1.644 4.716,4.691 4.716,8.19 0,5.242 -4.246,9.486 -9.486,9.486 -5.241,0 -9.489,-4.244 -9.489,-9.486 0,-3.525 1.927,-6.592 4.779,-8.227 -3.061,-1.282 -5.493,-3.759 -6.728,-6.845 -1.62,2.909 -4.724,4.878 -8.291,4.878 -5.239,0 -9.487,-4.244 -9.487,-9.486 0,-5.24 4.248,-9.485 9.487,-9.485 3.568,0 6.671,1.969 8.291,4.878 1.265,-3.157 3.783,-5.669 6.945,-6.924 -2.973,-1.601 -4.996,-4.74 -4.996,-8.356 0,-5.241 4.248,-9.485 9.489,-9.485 5.24,0 9.486,4.244 9.486,9.485 0,3.589 -1.991,6.708 -4.928,8.32 2.917,1.13 5.293,3.325 6.661,6.114 1.718,-2.436 4.548,-4.032 7.756,-4.032 5.24,0 9.486,4.245 9.486,9.485 C 9.486,-4.244 5.24,0 0,0"/></g><g transform="translate(242.2835,314.5093)" id="g72"><path id="path74" style="fill:#ffffff;fill-opacity:1;fill-rule:nonzero;stroke:none" d="m 0,0 c 0,-4.433 -3.591,-8.027 -8.027,-8.027 -4.433,0 -8.029,3.594 -8.029,8.027 0,4.435 3.596,8.027 8.029,8.027 C -3.591,8.027 0,4.435 0,0"/></g><g transform="translate(226.2298,296.9976)" id="g76"><path id="path78" style="fill:#ffffff;fill-opacity:1;fill-rule:nonzero;stroke:none" d="m 0,0 c 0,-4.434 -3.592,-8.027 -8.027,-8.027 -4.434,0 -8.029,3.593 -8.029,8.027 0,4.435 3.595,8.026 8.029,8.026 C -3.592,8.026 0,4.435 0,0"/></g><g transform="translate(259.3655,296.9976)" id="g80"><path id="path82" style="fill:#ffffff;fill-opacity:1;fill-rule:nonzero;stroke:none" d="m 0,0 c 0,-4.434 -3.592,-8.027 -8.027,-8.027 -4.434,0 -8.029,3.593 -8.029,8.027 0,4.435 3.595,8.026 8.029,8.026 C -3.592,8.026 0,4.435 0,0"/></g><g transform="translate(242.2835,280.0737)" id="g84"><path id="path86" style="fill:#ffffff;fill-opacity:1;fill-rule:nonzero;stroke:none" d="m 0,0 c 0,-4.433 -3.591,-8.026 -8.027,-8.026 -4.433,0 -8.029,3.593 -8.029,8.026 0,4.436 3.596,8.027 8.029,8.027 C -3.591,8.027 0,4.436 0,0"/></g><g transform="translate(243.7654,297.0503)" id="g88"><path id="path90" style="fill:#ffffff;fill-opacity:1;fill-rule:nonzero;stroke:none" d="m 0,0 c 0,-5.212 -4.222,-9.434 -9.433,-9.434 -5.211,0 -9.433,4.222 -9.433,9.434 0,5.21 4.222,9.432 9.433,9.432 C -4.222,9.432 0,5.21 0,0"/></g><g transform="translate(189.4495,279.3638)" id="g92"><path id="path94" style="fill:#ffffff;fill-opacity:1;fill-rule:nonzero;stroke:none" d="m 0,0 c -9.873,0 -17.906,7.897 -17.906,17.607 0,9.71 8.033,17.61 17.906,17.61 9.872,0 17.903,-7.9 17.903,-17.61 C 17.903,7.897 9.872,0 0,0 m 0,31.948 c -8.071,0 -14.636,-6.43 -14.636,-14.341 0,-7.905 6.565,-14.338 14.636,-14.338 8.071,0 14.635,6.433 14.635,14.338 0,7.911 -6.564,14.341 -14.635,14.341"/></g><g transform="translate(198.9475,295.3755)" id="g96"><path id="path98" style="fill:#ffffff;fill-opacity:1;fill-rule:nonzero;stroke:none" d="m 0,0 c -1.984,-2.437 -6.499,-2.039 -10.082,0.879 -3.592,2.922 -4.888,7.262 -2.905,9.7 1.984,2.434 6.496,2.039 10.083,-0.884 C 0.681,6.777 1.982,2.436 0,0"/></g><path id="path100" style="fill:#ffffff;fill-opacity:1;fill-rule:nonzero;stroke:none" d="m 263.293,273.777 h 14.866 v 48.763 h -14.866 z m 7.73,4.127 c -3.063,0 -5.549,2.176 -5.549,4.856 0,2.681 2.486,4.858 5.549,4.858 3.065,0 5.55,-2.177 5.55,-4.858 0,-2.68 -2.485,-4.856 -5.55,-4.856 m 0,14.29 c -3.063,0 -5.549,2.176 -5.549,4.856 0,2.681 2.486,4.856 5.549,4.856 3.065,0 5.55,-2.175 5.55,-4.856 0,-2.68 -2.485,-4.856 -5.55,-4.856 m 0,14.288 c -3.063,0 -5.549,2.173 -5.549,4.856 0,2.682 2.486,4.856 5.549,4.856 3.065,0 5.55,-2.174 5.55,-4.856 0,-2.683 -2.485,-4.856 -5.55,-4.856"/><g transform="translate(356.4178,265.8022)" id="g102"><path id="path104" style="fill:#ffffff;fill-opacity:1;fill-rule:nonzero;stroke:none" d="m 0,0 h -150.403 l -1.983,63.52 H 3.135 Z M -147.235,3.268 H -3.11 l 2.81,56.985 h -148.712 z"/></g><g transform="translate(319.2205,314.5093)" id="g106"><path id="path108" style="fill:#ffffff;fill-opacity:1;fill-rule:nonzero;stroke:none" d="m 0,0 c 0,-4.433 3.592,-8.027 8.027,-8.027 4.435,0 8.029,3.594 8.029,8.027 0,4.435 -3.594,8.027 -8.029,8.027 C 3.592,8.027 0,4.435 0,0"/></g><g transform="translate(335.2762,296.9976)" id="g110"><path id="path112" style="fill:#ffffff;fill-opacity:1;fill-rule:nonzero;stroke:none" d="m 0,0 c 0,-4.434 3.591,-8.027 8.027,-8.027 4.433,0 8.03,3.593 8.03,8.027 0,4.435 -3.597,8.026 -8.03,8.026 C 3.591,8.026 0,4.435 0,0"/></g><g transform="translate(302.1404,296.9976)" id="g114"><path id="path116" style="fill:#ffffff;fill-opacity:1;fill-rule:nonzero;stroke:none" d="m 0,0 c 0,-4.434 3.592,-8.027 8.027,-8.027 4.433,0 8.03,3.593 8.03,8.027 0,4.435 -3.597,8.026 -8.03,8.026 C 3.592,8.026 0,4.435 0,0"/></g><g transform="translate(319.2205,280.0737)" id="g118"><path id="path120" style="fill:#ffffff;fill-opacity:1;fill-rule:nonzero;stroke:none" d="m 0,0 c 0,-4.433 3.592,-8.026 8.027,-8.026 4.435,0 8.029,3.593 8.029,8.026 0,4.436 -3.594,8.027 -8.029,8.027 C 3.592,8.027 0,4.436 0,0"/></g><g transform="translate(317.741,297.0503)" id="g122"><path id="path124" style="fill:#ffffff;fill-opacity:1;fill-rule:nonzero;stroke:none" d="m 0,0 c 0,-5.212 4.222,-9.434 9.432,-9.434 5.213,0 9.434,4.222 9.434,9.434 0,5.21 -4.221,9.432 -9.434,9.432 C 4.222,9.432 0,5.21 0,0"/></g><g transform="translate(372.0564,279.3638)" id="g126"><path id="path128" style="fill:#ffffff;fill-opacity:1;fill-rule:nonzero;stroke:none" d="m 0,0 c -9.874,0 -17.905,7.897 -17.905,17.607 0,9.71 8.031,17.61 17.905,17.61 9.872,0 17.905,-7.9 17.905,-17.61 C 17.905,7.897 9.872,0 0,0 m 0,31.948 c -8.072,0 -14.637,-6.43 -14.637,-14.341 0,-7.905 6.565,-14.338 14.637,-14.338 8.07,0 14.637,6.433 14.637,14.338 0,7.911 -6.567,14.341 -14.637,14.341"/></g><g transform="translate(382.656,293.6362)" id="g130"><path id="path132" style="fill:#ffffff;fill-opacity:1;fill-rule:nonzero;stroke:none" d="m 0,0 c 2.436,1.984 2.038,6.498 -0.88,10.082 -2.922,3.591 -7.261,4.887 -9.698,2.904 C -13.013,11.002 -12.618,6.49 -9.695,2.904 -6.777,-0.682 -2.437,-1.983 0,0"/></g><path id="path134" style="fill:#ffffff;fill-opacity:1;fill-rule:nonzero;stroke:none" d="m 283.348,273.777 h 14.863 v 48.763 h -14.863 z m 7.134,4.127 c -3.064,0 -5.549,2.176 -5.549,4.856 0,2.681 2.485,4.858 5.549,4.858 3.065,0 5.549,-2.177 5.549,-4.858 0,-2.68 -2.484,-4.856 -5.549,-4.856 m 0,14.29 c -3.064,0 -5.549,2.176 -5.549,4.856 0,2.681 2.485,4.856 5.549,4.856 3.065,0 5.549,-2.175 5.549,-4.856 0,-2.68 -2.484,-4.856 -5.549,-4.856 m 0,14.288 c -3.064,0 -5.549,2.173 -5.549,4.856 0,2.682 2.485,4.856 5.549,4.856 3.065,0 5.549,-2.174 5.549,-4.856 0,-2.683 -2.484,-4.856 -5.549,-4.856"/><g transform="translate(280.1995,400.9414)" id="g136"><path id="path138" style="fill:#ffffff;fill-opacity:1;fill-rule:nonzero;stroke:none" d="m 0,0 c -10.893,0 -19.754,9.454 -19.754,21.074 0,11.622 8.861,21.078 19.754,21.078 10.892,0 19.754,-9.456 19.754,-21.078 C 19.754,9.454 10.892,0 0,0 m 0,38.884 c -9.091,0 -16.485,-7.99 -16.485,-17.81 0,-9.819 7.394,-17.807 16.485,-17.807 9.09,0 16.487,7.988 16.487,17.807 0,9.82 -7.397,17.81 -16.487,17.81"/></g><g transform="translate(289.7049,420.3511)" id="g140"><path id="path142" style="fill:#ffffff;fill-opacity:1;fill-rule:nonzero;stroke:none" d="m 0,0 c 2.436,1.984 2.041,6.499 -0.879,10.082 -2.923,3.592 -7.264,4.888 -9.699,2.905 -2.434,-1.984 -2.04,-6.496 0.881,-10.083 C -6.777,-0.682 -2.438,-1.982 0,0"/></g><g transform="translate(298.4021,326.0552)" id="g144"><path id="path146" style="fill:#ffffff;fill-opacity:1;fill-rule:nonzero;stroke:none" d="m 0,0 h -33.957 l -0.446,0.915 c -21.223,43.454 -0.11,76.182 0.107,76.508 l 0.483,0.73 h 33.126 l 0.418,-1.005 C 16.628,36.468 0.605,1.292 0.441,0.944 Z m -31.91,3.268 h 29.795 c 2.322,5.699 13.423,36.391 -0.76,71.617 H -32.016 C -34.865,69.977 -49.873,40.998 -31.91,3.268"/></g><g transform="translate(275.8445,396.0391)" id="g148"><path id="path150" style="fill:#ffffff;fill-opacity:1;fill-rule:nonzero;stroke:none" d="m 0,0 h 14.936 c 0,0 9.118,-4.447 7.846,-29.773 -1.268,-25.324 -4.989,-31.768 -4.989,-31.768 0,0 -24.6,8.353 -24.509,37.942 0,0 -0.097,16.738 6.716,23.599"/></g><g transform="translate(280.3138,53.5562)" id="g152"><path id="path154" style="fill:#ffffff;fill-opacity:1;fill-rule:nonzero;stroke:none" d="M 0,0 -22.585,27.471 V 213.88 h 3.27 V 28.639 L -0.041,5.192 19.022,29.077 23.4,213.919 26.666,213.842 22.264,27.9 Z"/></g><g transform="translate(282.3553,261.7007)" id="g156"><path id="path158" style="fill:#ffffff;fill-opacity:1;fill-rule:nonzero;stroke:none" d="M 0,0 H 15.857 L 12.651,-176.663 -1.155,-196.245 Z"/></g><g transform="translate(437.3308,494.209)" id="g160"><path id="path162" style="fill:#ffffff;fill-opacity:1;fill-rule:nonzero;stroke:none" d="M 0,0 4.715,-18.385 H -8.202 c 3.425,13.105 5.327,20.522 5.704,22.25 0.377,1.728 0.597,2.97 0.66,3.725 h 0.471 C -1.116,5.232 -0.66,2.702 0,0 m 33.564,-45.303 -21.92,67.601 h -25.268 l -23.287,-67.601 h 22.015 l 3.205,12.445 H 8.485 l 2.971,-12.445 z M -40.871,8.108 v 14.19 H -94.66 V 6.364 h 29.274 l -31.207,-37.383 v -14.284 h 56.712 v 15.934 H -70.43 Z m -65.244,-53.411 v 67.601 h -18.858 V -8.014 c 0,-3.394 0.095,-5.783 0.284,-7.166 h -0.189 c -0.188,0.44 -0.464,0.943 -0.825,1.509 -0.361,0.565 -0.746,1.147 -1.154,1.744 -0.41,0.597 -0.818,1.179 -1.226,1.744 -0.409,0.566 -0.754,1.053 -1.037,1.462 l -22.864,31.019 h -19.234 v -67.601 h 18.857 v 28.379 c 0,4.148 -0.094,7.888 -0.284,11.22 h 0.19 c 1.193,-2.075 2.733,-4.401 4.62,-6.977 l 23.853,-32.622 z m -97.819,24.231 c -1.037,-2.578 -2.498,-4.558 -4.384,-5.94 -1.886,-1.384 -4.007,-2.075 -6.364,-2.075 -3.866,0 -6.923,1.54 -9.169,4.62 -2.248,3.08 -3.371,7.37 -3.371,12.87 0,5.625 1.132,9.978 3.394,13.058 2.263,3.08 5.422,4.62 9.476,4.62 3.708,0 6.631,-1.603 8.768,-4.808 2.137,-3.206 3.206,-7.59 3.206,-13.153 0,-3.552 -0.519,-6.616 -1.556,-9.192 m 18.975,27.884 c -2.782,5.327 -6.726,9.428 -11.833,12.304 -5.107,2.875 -10.898,4.313 -17.372,4.313 -6.725,0 -12.728,-1.501 -18.008,-4.502 -5.28,-3.001 -9.381,-7.252 -12.304,-12.752 -2.922,-5.5 -4.384,-11.691 -4.384,-18.573 0,-6.569 1.445,-12.454 4.337,-17.655 2.891,-5.202 6.937,-9.24 12.139,-12.115 5.201,-2.876 10.976,-4.314 17.325,-4.314 6.505,0 12.382,1.485 17.631,4.455 5.248,2.97 9.334,7.134 12.256,12.493 2.923,5.358 4.385,11.431 4.385,18.22 0,6.757 -1.391,12.799 -4.172,18.126 m -73.423,-52.115 v 67.601 h -30.03 l -8.674,-36.535 c -0.754,-3.897 -1.304,-7.276 -1.649,-10.135 h -0.283 c -0.095,1.256 -0.323,3.04 -0.684,5.35 -0.362,2.31 -0.653,3.842 -0.872,4.596 l -9.287,36.724 h -30.5 v -67.601 h 17.866 v 31.867 c 0,2.64 -0.22,9.24 -0.66,19.8 h 0.566 c 1.194,-6.663 1.933,-10.497 2.216,-11.503 l 10.418,-40.164 h 19.139 l 9.947,40.636 c 0.534,2.042 1.304,5.719 2.31,11.031 h 0.566 l -0.142,-3.111 c -0.22,-4.181 -0.33,-8.014 -0.33,-11.503 v -37.053 z"/></g><g transform="translate(334.2556,536.1021)" id="g164"><path id="path166" style="fill:#ffffff;fill-opacity:1;fill-rule:nonzero;stroke:none" d="m 0,0 c -4.935,-2.421 -10.512,-3.63 -16.735,-3.63 -7.794,0 -14.229,2.663 -19.304,7.99 -5.076,5.327 -7.614,12.595 -7.614,21.803 0,9.554 2.656,17.207 7.966,22.958 5.312,5.752 12.21,8.627 20.696,8.627 5.249,0 10.246,-1.069 14.991,-3.205 v 4.95 c -4.745,1.665 -9.711,2.498 -14.896,2.498 -9.743,0 -17.773,-3.308 -24.09,-9.923 -6.317,-6.616 -9.475,-15.408 -9.475,-26.376 0,-9.994 2.915,-18.095 8.745,-24.301 5.829,-6.208 13.363,-9.311 22.604,-9.311 5.94,0 11.644,1.132 17.112,3.394 z m -69.015,18.574 h -26.069 l 11.361,31.349 c 0.502,1.288 1.021,2.97 1.556,5.044 h 0.188 c 0.251,-0.786 0.487,-1.572 0.707,-2.357 0.22,-0.912 0.503,-1.839 0.849,-2.782 z M -54.448,-6.741 -79.669,60.86 H -84.1 l -25.504,-67.601 h 5.139 l 7.731,21.025 h 29.322 l 7.731,-21.025 z"/></g></g></g></g></svg>