<svg xmlns:dc="http://purl.org/dc/elements/1.1/" xmlns:cc="http://creativecommons.org/ns#" xmlns:rdf="http://www.w3.org/1999/02/22-rdf-syntax-ns#" xmlns:svg="http://www.w3.org/2000/svg" xmlns="http://www.w3.org/2000/svg" xmlns:xlink="http://www.w3.org/1999/xlink" xmlns:sodipodi="http://sodipodi.sourceforge.net/DTD/sodipodi-0.dtd" xmlns:inkscape="http://www.inkscape.org/namespaces/inkscape" width="605" height="700" viewBox="0 0 484 559.99999" id="svg2" version="1.1" inkscape:version="0.91 r13725" sodipodi:docname="Logo Morecambe FC 2010.svg" style="fill-rule:evenodd">
  <metadata id="metadata62">
    <rdf:RDF>
      <cc:Work rdf:about="">
        <dc:format>image/svg+xml</dc:format>
        <dc:type rdf:resource="http://purl.org/dc/dcmitype/StillImage"/>
        <dc:title/>
      </cc:Work>
    </rdf:RDF>
  </metadata>
  <defs id="defs60">
    <linearGradient inkscape:collect="always" id="linearGradient4162">
      <stop style="stop-color:#000000;stop-opacity:0" offset="0" id="stop4164"/>
      <stop style="stop-color:#000000;stop-opacity:0.55882353" offset="1" id="stop4166"/>
    </linearGradient>
    <linearGradient inkscape:collect="always" xlink:href="#linearGradient4162" id="linearGradient4174" x1="333.0415" y1="143.75548" x2="-45.838787" y2="481.84308" gradientUnits="userSpaceOnUse"/>
  </defs>
  <sodipodi:namedview pagecolor="#ffffff" bordercolor="#666666" borderopacity="1" objecttolerance="10" gridtolerance="10" guidetolerance="10" inkscape:pageopacity="0" inkscape:pageshadow="2" inkscape:window-width="1440" inkscape:window-height="788" id="namedview58" showgrid="false" inkscape:zoom="0.47561637" inkscape:cx="81.17363" inkscape:cy="623.95171" inkscape:window-x="0" inkscape:window-y="1" inkscape:window-maximized="1" inkscape:current-layer="svg2" units="px"/>
  <g id="g4178">
    <g transform="matrix(1.6376277,0,0,1.6352143,5.280779,-822.87694)" id="g4363">
      <path inkscape:connector-curvature="0" style="color:#000000;font-style:normal;font-variant:normal;font-weight:normal;font-stretch:normal;font-size:medium;line-height:normal;font-family:sans-serif;text-indent:0;text-align:start;text-decoration:none;text-decoration-line:none;text-decoration-style:solid;text-decoration-color:#000000;letter-spacing:normal;word-spacing:normal;text-transform:none;direction:ltr;block-progression:tb;writing-mode:lr-tb;baseline-shift:baseline;text-anchor:start;white-space:normal;clip-rule:nonzero;display:inline;overflow:visible;visibility:visible;opacity:1;isolation:auto;mix-blend-mode:normal;color-interpolation:sRGB;color-interpolation-filters:linearRGB;solid-color:#000000;solid-opacity:1;fill:#917448;fill-opacity:1;fill-rule:nonzero;stroke:none;stroke-width:6.4000001;stroke-linecap:butt;stroke-linejoin:miter;stroke-miterlimit:4;stroke-dasharray:none;stroke-dashoffset:0;stroke-opacity:1;color-rendering:auto;image-rendering:auto;shape-rendering:auto;text-rendering:auto;enable-background:accumulate" d="m 144.03125,503.22266 c -49.494916,0.96882 -96.972708,4.1476 -137.8730469,8.53515 -3.0829173,32.94963 -6.02230008,66.75043 -8.6445312,95.04297 l 0.00195,-0.004 c -4.7305459,50.25766 13.6672231,98.74669 42.1406251,140.08984 28.473402,41.34315 67.045243,75.63622 103.281253,97.73437 l 1.74414,1.06446 1.69922,-1.13477 C 216.93141,797.42975 299.84399,711.32622 291.7793,606.84961 l -0.002,-0.0273 -0.002,-0.0254 c -3.13569,-33.29264 -6.19214,-65.8222 -8.91016,-94.66797 -47.80459,-5.00082 -97.34438,-8.88818 -138.83398,-8.90625 z" id="path4361"/>
      <path inkscape:connector-curvature="0" style="color:#000000;font-style:normal;font-variant:normal;font-weight:normal;font-stretch:normal;font-size:medium;line-height:normal;font-family:sans-serif;text-indent:0;text-align:start;text-decoration:none;text-decoration-line:none;text-decoration-style:solid;text-decoration-color:#000000;letter-spacing:normal;word-spacing:normal;text-transform:none;direction:ltr;block-progression:tb;writing-mode:lr-tb;baseline-shift:baseline;text-anchor:start;white-space:normal;clip-rule:nonzero;display:inline;overflow:visible;visibility:visible;opacity:1;isolation:auto;mix-blend-mode:normal;color-interpolation:sRGB;color-interpolation-filters:linearRGB;solid-color:#000000;solid-opacity:1;fill:#ffffff;fill-opacity:1;fill-rule:nonzero;stroke:none;stroke-width:6.4000001;stroke-linecap:butt;stroke-linejoin:miter;stroke-miterlimit:4;stroke-dasharray:none;stroke-dashoffset:0;stroke-opacity:1;color-rendering:auto;image-rendering:auto;shape-rendering:auto;text-rendering:auto;enable-background:accumulate" d="m 144.03725,509.61133 c 42.04325,-0.0874 84.3107,2.56696 132.94336,8.29297 2.80647,29.82203 5.61345,59.64277 8.41992,89.46484 7.70324,99.99829 -71.78222,184.03075 -140.86328,230.66797 C 109.58818,816.38523 72.354616,783.07947 44.927734,743.25586 17.04993,702.77751 -0.6625094,655.72782 3.8867188,607.39648 l 0,-0.002 0,-0.002 C 6.6635213,577.50126 9.283361,547.46635 12.048828,517.58984 60.06634,512.517 102.01521,509.69869 144.03711,509.61133 Z" id="path4355"/>
    </g>
    <path inkscape:connector-curvature="0" id="path4367" d="m 241.96915,78.992309 c -69.18813,1.04 -138.50281,5.66183 -207.134309,14.55086 C 32.615856,117.54483 30.395846,141.54805 28.17686,165.55137 12.60497,317.6819 129.54895,447.72051 241.96915,529.95384 354.38901,447.72051 471.33364,317.6819 455.76144,165.55137 453.54245,141.54805 451.325,117.54483 449.10601,93.543169 380.47467,84.654139 311.15728,80.032309 241.96915,78.992309 Z" style="fill:#d11c2d;fill-opacity:1;stroke:none"/>
    <path style="fill:#ad121d;fill-opacity:1;stroke:none" d="m 243.47372,79.033689 -1.50334,-0.0409 c -69.18813,1.04 -138.50465,5.66111 -207.136153,14.55014 C 32.615241,117.5446 30.39642,141.54791 28.177434,165.55122 12.605544,317.68177 129.55019,447.72055 241.97038,529.95385 l 0,-450.961041 1.50334,0.0409 z" id="path12" inkscape:connector-curvature="0"/>
    <g transform="matrix(1.6376277,0,0,1.6352143,5.280779,-822.87694)" style="fill:#ffffff" id="g4349">
      <path inkscape:connector-curvature="0" style="fill:#ffffff;stroke:none" d="m 77.857422,724.7168 c -19.53056,-0.19365 -34.688879,9.24144 -34.69336,23.52929 -0.128624,17.47 28.635344,34.27071 50.355469,41.75196 -2.2965,-3.31625 0.636828,-6.39852 3.298828,-6.41602 2.662125,-0.0163 6.105081,2.46586 6.017581,5.06836 -0.0876,2.60375 -2.64135,4.6975 -7.496096,3.0625 -11.66425,-3.8525 -13.764782,-4.68852 -34.863282,-12.04101 -0.2435,-0.0825 -0.533171,0.43601 -0.201171,0.69726 3.11425,2.1325 7.24414,4.42672 10.291015,6.69922 0.20225,0.15125 0.01745,0.52883 -0.185547,0.48633 -7.261,-1.59375 -14.087312,-3.89039 -21.335937,-4.83789 -0.400375,-0.0575 -0.723734,0.19625 -0.333984,0.40625 3.661374,1.30125 6.170687,2.27054 9.460937,4.15429 -5.516875,-1.72375 -12.031844,-4.02429 -17.589844,-5.46679 -0.688875,-0.18 -0.900656,0.11273 -0.175781,0.45898 13.9115,5.9575 26.855344,11.01524 40.996094,16.83399 6.072875,3.235 11.350328,7.10687 16.470703,11.29687 -8.784875,-0.35625 -17.568516,-0.71211 -26.353516,-1.06836 -8.486125,3.02625 -15.814781,6.96547 -23.613281,11.48047 -0.999875,0.7925 0.130437,2.65672 1.117188,2.16797 7.923499,-4.25375 18.070203,-9.09109 24.564453,-8.77735 9.55625,0.3475 18.299937,2.41133 27.882809,3.23633 0.179,0.0275 0.24133,0.67469 -0.0762,0.64844 -5.725624,-0.475 -10.987702,-0.89289 -17.564452,-0.90039 -0.7615,0.12125 -1.611375,0.42969 -2.21875,0.71094 -4.700125,2.83125 -7.943656,5.77047 -12.035156,9.29297 -7.485875,7.35875 -14.179735,14.9382 -20.81836,23.0957 -0.86425,0.9025 1.069282,2.86305 2.003907,1.74805 9.961375,-11.195 21.175422,-22.26032 32.857422,-28.38282 1.935625,-1.03375 3.87089,-0.97851 5.80664,-0.79101 5.173875,0.775 9.748,1.45937 14.921879,2.23437 0.246,0.0225 0.21223,0.55797 -0.21289,0.57422 -4.142504,0.1475 -8.914504,-0.12984 -13.125004,0.25391 -1.109,0.025 -1.89936,0.34101 -2.84961,0.79101 -7.35775,3.77875 -13.921719,8.51461 -20.167968,13.56836 -0.715375,0.76625 0.739328,2.75375 1.267578,2.21875 12.76225,-8.19125 21.077093,-13.99304 33.917964,-11.74804 0.49575,0.0788 0.64168,0.72148 0.0606,1.14648 -6.214624,4.005 -12.278999,8.47867 -18.140624,13.45117 -5.701875,5.385 -9.715968,11.66539 -13.621094,18.05664 -0.2575,0.43875 1.959251,1.55758 2.296876,1.08008 13.534749,-17.97 22.061187,-21.47047 33.054682,-29.66797 2.122,-1.3 4.13724,-0.8607 5.27149,-0.5957 7.32437,1.1175 14.93625,2.55141 21.8125,4.34766 18.78375,12.99874 43.9032,26.84367 65.2207,28.54492 -8.13125,-19.5275 -2.51273,-37.99922 2.25977,-57.94922 -6.0275,-5.7575 -14.91297,-7.37016 -23.48047,-9.94141 -16.04375,-5.09625 -29.96125,-7.08148 -46.1875,-16.42773 -0.38875,-0.22375 -0.78859,0.21305 -0.65234,0.40429 1.225,2.37875 1.49656,2.62626 3.03906,4.6875 0.19625,0.33125 -0.23992,0.5961 -0.54492,0.4961 -6.5475,-2.12375 -11.75619,-4.83469 -17.77344,-8.58594 -0.24475,-0.1475 -0.62328,0.0261 -0.53516,0.3711 0.38313,1.79749 1.4503,2.405 1.73242,4.03124 0.0354,0.1975 -0.49203,0.46829 -0.70703,0.36329 -5.95562,-2.34125 -10.31554,-5.20563 -15.48242,-8.64063 -0.4655,-0.2625 -0.952843,-0.037 -0.79297,0.51172 0.63138,1.2975 1.0928,1.94359 1.51367,3.40234 0.20663,0.6625 -0.56714,0.89344 -0.99414,0.74219 -10.192371,-3.62 -18.66759,-9.58789 -28.136715,-15.77539 -0.306875,-0.1225 -0.590437,0.27125 -0.335937,0.53125 4.539999,4.63 8.963453,8.57039 13.205078,13.36914 -15.756,-6.3475 -27.687328,-14.37836 -18.720704,-27.28711 4.801875,-6.48125 12.454766,-8.42258 26.759766,-8.67383 24.646502,0.18375 54.676952,5.85883 78.689452,14.17383 35.19375,17.56 70.04852,34.95078 105.07227,52.42578 0.87625,0.44875 1.15617,-0.85031 0.76367,-1.13281 -23.95125,-14.23625 -47.41797,-26.10234 -70.98047,-38.46484 34.81375,13.77625 69.73281,28.18578 104.75781,43.86328 0.92875,0.50875 3.64547,-0.63485 2.32422,-1.21485 -46.21625,-21.41874 -91.81594,-40.80086 -139.61719,-58.56836 -35.535,-17.09124 -61.76332,-28.25875 -94.548824,-29.0625 -0.638758,-0.0264 -1.272326,-0.0426 -1.902344,-0.0488 z m 9.371094,5.21093 c 20.679874,0.38369 41.216014,7.48204 59.525394,15.66993 -18.31375,-5.735 -35.1426,-7.68774 -53.667972,-7.92774 -30.539125,-0.605 -41.015891,15.26336 -32.697266,28.91211 -3.871375,-6.12375 -12.185735,-11.19055 -11.615234,-18.37305 2.030625,-15.39374 21.186859,-18.10132 34.318359,-18.26757 1.37932,-0.0358 2.75806,-0.0393 4.136719,-0.0137 z" transform="matrix(0.8,0,0,0.80000008,0,-4.882813e-5)" id="path14"/>
      <path inkscape:connector-curvature="0" id="path18" d="m 165.192,646.955 c 0.081,-0.358 0.691,-0.705 1.228,-0.595 10.473,2.011 19.633,6.617 28.751,12.789 0.368,0.244 0.397,0.68 0.151,1.02 -2.899,3.298 -4.841,5.555 -8.92,10.431 -7.27,8.23 -15.748,21.911 -14.338,30.263 2.709,-14.87 14.88,-26.06 20.586,-31.218 1.285,-1.243 6.034,-5.65 8.163,-7.323 0.488,-0.361 1.178,-0.453 1.472,0.014 9.047,7.775 15.205,16.06 17.816,27.533 0.092,0.385 -0.265,0.856 -0.528,0.86 -18.436,0.441 -33.432,7.683 -40.121,17.195 -0.109,0.152 0.052,1.363 0.643,0.634 8.588,-9.818 28.169,-13.355 41.67,-12.656 0.317,0.026 0.63,0.132 0.72,0.446 3.372,11.437 4.891,20.521 -1.087,33.603 -0.156,0.386 -0.538,0.565 -0.905,0.367 -11.983,-7.358 -30.17,-15.845 -40.289,-10.745 -0.998,0.425 -0.874,0.808 -0.274,0.654 13.459,-2.26 28.022,7.303 37.471,13.235 0.357,0.237 0.39,0.708 0.18,1.136 -3.676,7.847 -8.719,14.217 -15.762,18.494 -0.324,0.202 -0.671,0.287 -0.847,0 -6.949,-14.547 -19.642,-25.378 -27.436,-23.369 -0.585,0.149 -0.497,0.58 0,0.552 10.797,0.751 18.884,14.843 23.498,24.432 0.127,0.259 0.123,0.754 -0.079,0.913 -6.649,5.499 -17.704,7.638 -25.581,7.032 -0.463,-0.017 -1.073,-0.374 -1.06,-0.848 -0.091,-10.825 -2.695,-23.678 -8.425,-27.407 -0.551,-0.326 -0.561,-0.726 0,-0.85 2.481,-0.652 4.876,-1.409 7.283,-2.464 2.117,-2.748 4.234,-5.496 6.352,-8.243 0.486,-0.631 0.641,-1.63 0.762,-2.464 0.43,-2.942 0.878,-4.574 1.566,-6.799 0.173,-0.573 -0.157,-1.131 -0.465,-1.657 -1.628,-2.467 -3.01,-4.831 -4.235,-7.393 -2.623,-0.938 -4.985,-2.331 -7.424,-3.579 -2.242,-1.118 -3.996,-2.789 -4.757,-5.011 -5.266,-14.807 -0.655,-32.147 4.221,-48.982 z" style="fill:#ffffff;stroke:none"/>
      <path inkscape:connector-curvature="0" id="path20" d="m 132.868,728.57 c 0.648,-0.587 1.105,-0.505 1.774,-0.338 7.377,1.69 14.755,3.379 22.132,5.069 3.555,0.592 7.195,4.158 8.061,8.531 1.37,6.223 1.902,12.212 1.579,18.477 -0.08,0.795 0.386,1.344 0.419,1.748 0.031,0.351 -0.392,0.404 -0.667,0.255 -12.53,-7.13 -26.115,-15.581 -35.682,-22.409 -1.397,-1.092 -2.37,-2.8 -1.586,-4.997 0.844,-2.127 2.344,-4.508 3.97,-6.336 z" style="fill:#ffffff;stroke:none"/>
      <path inkscape:connector-curvature="0" id="path22" d="m 129.792,726.749 c 0.378,0.269 0.755,0.761 0.339,1.189 -1.863,2.705 -3.197,5.538 -2.858,8.753 0.075,0.354 -0.251,0.676 -0.536,0.616 -16.356,-3.293 -31.1888,-13.044 -45.2588,-21.605 -0.2324,-0.143 0.0961,-0.547 0.4459,-0.446 7.5438,2.167 15.1724,4.886 22.7589,7.329 -2.915,-1.711 -5.3896,-3.32 -8.2223,-4.827 -3.9727,-2.265 -6.9712,-4.486 -9.123,-7.941 -4.3948,-6.593 -7.4347,-13.61 -10.1361,-20.671 -0.1157,-0.424 0.2024,-1.369 0.8906,-0.891 17.2335,12.832 34.4668,25.663 51.6998,38.494 z" style="fill:#ffffff;stroke:none"/>
    </g>
    <g transform="matrix(1.6376277,0,0,1.6352143,5.280779,-822.87694)" id="g4335">
      <path inkscape:connector-curvature="0" id="path26" d="m 20.6889,526.09 7.9765,-1.172 2.9743,16.197 5.9128,-17.352 8.0609,-0.924 -2.1118,25.498 -4.9731,0.471 1.326,-19.548 -7.2419,20.133 -3.3018,0.347 -4.5731,-19.205 -1.7584,19.871 -5.1057,0.565 2.8153,-24.881 z" style="fill:#2c2c2b;stroke:none"/>
      <path inkscape:connector-curvature="0" style="fill:#2c2c2b;stroke:none" d="m 76.140625,651.80664 c -0.605571,-0.009 -1.242016,0.0121 -1.908203,0.0664 -10.659,0.87 -13.735219,11.73984 -13.964844,18.62109 -0.229625,6.88 1.89125,14.15164 12.46875,13.33789 C 83.313828,683.01952 86.34775,674.91163 87,666.71288 87.611602,659.02655 85.22419,651.9459 76.140625,651.80663 Z m -1.470703,5.0918 c 4.936125,-0.375 4.896406,7.14445 4.785156,11.0957 -0.11125,3.9525 -1.586266,10.70102 -6.46289,10.94727 -4.876626,0.24625 -5.305344,-5.2186 -5.105469,-10.5586 0.19975,-5.34 1.846953,-11.10937 6.783203,-11.48437 z" transform="matrix(0.8,0,0,0.80000008,0,-4.882813e-5)" id="path28"/>
      <path inkscape:connector-curvature="0" style="fill:#2c2c2b;stroke:none" d="m 104.91992,649.72461 c -0.29844,-0.0119 -0.59944,-0.009 -0.9043,0.008 -3.74287,0.235 -7.486011,0.46813 -11.228511,0.70313 -0.663625,10.68375 -1.328187,21.36898 -1.992187,32.05273 2.539875,-0.16625 4.7255,-0.3318 7.265625,-0.49805 0.08537,-4.18375 0.703312,-8.37093 0.789062,-12.55468 1.464501,-1.77125 3.915581,-0.10578 4.533201,1.69922 0.8475,3.4675 1.6951,6.93679 2.54297,10.40429 2.52275,-0.13875 5.04719,-0.27726 7.57031,-0.41601 -1.30675,-4.35625 -2.61354,-8.71211 -3.91992,-13.06836 -0.22962,-0.79625 -1.41229,-1.6111 -2.43555,-1.96485 3.22863,-1.6825 5.83151,-3.32867 5.875,-8.23242 0.0409,-4.59726 -3.61902,-7.95377 -8.0957,-8.13281 z m -3.49219,5.80469 c 2.15863,-0.0418 4.55002,0.45304 4.4961,3.44336 -0.0616,3.4175 -2.57735,4.90445 -5.5586,4.93945 -0.634996,-0.0187 -1.083761,-0.53586 -1.322261,-0.84961 0.141375,-2.23125 0.282703,-4.46211 0.423828,-6.69336 0.03538,-0.425 0.635223,-0.76867 1.058593,-0.79492 0.29109,-0.0222 0.59397,-0.0389 0.90234,-0.0449 z" transform="matrix(0.8,0,0,0.80000008,0,-4.882813e-5)" id="path32"/>
      <path inkscape:connector-curvature="0" id="path36" d="m 94.35,519.216 14.442,-0.543 -0.141,4.427 -8.7295,0.457 -0.2355,5.845 8.314,-0.283 -0.141,3.824 -8.3,0.396 -0.1417,6.577 9.2647,-0.283 -0.142,4.487 -14.974,0.646 0.784,-25.55 z" style="fill:#2c2c2b;stroke:none"/>
      <path inkscape:connector-curvature="0" id="path38" d="m 129.538,519.488 c -1.824,-0.492 -3.386,-1.195 -5.588,-1.162 -6.972,0.132 -11.984,3.474 -12.111,12.804 -0.127,9.329 5.789,12.704 11.179,12.572 2.117,-0.045 4.291,-0.394 6.436,-0.973 0,-1.657 0,-3.314 0,-4.971 -1.524,0.779 -3.275,1.643 -4.912,1.657 -3.902,-0.005 -6.639,-2.335 -6.625,-8.172 0.014,-5.837 3.005,-8.715 6.71,-8.823 1.637,0.014 3.247,0.623 4.884,1.373 l 0.027,-4.305 z" style="fill:#2c2c2b;stroke:none"/>
      <path inkscape:connector-curvature="0" style="fill:#2c2c2b;stroke:none" d="m 174.54297,647.68945 -10.85547,31.70508 7.00391,-0.0859 2.22265,-7.21679 10.5,0 2.22266,7.17187 6.86133,0.043 -9.72461,-31.60352 -8.23047,-0.0137 z m 4.04297,6.66602 3.55664,12.16015 -7.63281,0.002 4.07617,-12.16211 z" transform="matrix(0.8,0,0,0.80000008,0,-4.882813e-5)" id="path40"/>
      <path inkscape:connector-curvature="0" id="path44" d="m 156.173,518.295 7.793,0.132 5.141,16.87 3.802,-16.652 8.329,0.275 0.708,25.188 -5.24,-0.177 -0.503,-20.375 -5.496,20.206 -3.374,-0.078 -6.251,-20.213 0.284,20.097 -5.102,-0.062 -0.091,-25.211 z" style="fill:#2c2c2b;stroke:none"/>
      <path inkscape:connector-curvature="0" style="fill:#2c2c2b;stroke:none" d="m 232.67969,648.85156 1.07812,31.51367 12.3125,0.57618 c 4.47125,0.24125 7.98031,-3.68461 7.94531,-7.94336 -0.035,-4.25875 -1.69749,-6.99399 -6.25,-7.83399 2.1175,-1.34625 5.12579,-1.99226 5.08204,-7.00976 -0.0437,-5.0175 -3.35266,-8.52938 -10.00391,-8.85938 l -10.16406,-0.44336 z m 7.84375,5.44727 c 5.18625,0.49625 5.68226,2.81547 5.82226,4.35547 0.14125,1.54125 -1.19851,4.67336 -6.38476,2.97461 -0.0537,-2.21375 -0.28539,-4.42618 -0.33789,-6.63868 0.009,-0.4075 0.45914,-0.71765 0.90039,-0.6914 z m -0.28321,12.58789 c 5.76875,0.23 7.07133,2.39531 7.08008,4.41406 0.009,2.01875 -1.38039,4.17258 -3.74414,4.04883 -1.2525,0 -1.80023,-0.17773 -3.05273,-0.17773 -0.035,-2.76126 -0.24821,-5.52266 -0.28321,-8.28516 z" transform="matrix(0.8,0,0,0.80000008,0,-4.882813e-5)" id="path46"/>
      <path inkscape:connector-curvature="0" id="path52" d="m 206.16,520.067 14.346,0.948 0.298,4.399 -8.646,-0.676 0.283,5.998 7.968,0.591 0.283,4.224 -7.997,-0.425 0.425,6.422 8.951,0.592 0.43,4.298 -15.04,-1.063 -1.301,-25.308 z" style="fill:#2c2c2b;stroke:none"/>
      <path inkscape:connector-curvature="0" id="path54" d="m 233.998,522.063 13.98,1.295 0.419,4.458 -8.272,-0.723 0.509,6.303 7.551,0.836 0.424,3.951 -7.622,-0.637 0.857,10.608 -5.847,-0.56 -1.999,-25.531 z" style="fill:#2c2c2b;stroke:none"/>
      <path inkscape:connector-curvature="0" id="path56" d="m 267.94,526.85 c -1.723,-1.017 -4.039,-1.864 -6.439,-2.032 -4.947,-0.559 -10.178,1.562 -10.089,10.648 0.089,9.087 5.234,14.267 13.419,15.239 1.816,0.225 3.522,0.141 5.305,0 -0.169,-1.757 -0.338,-3.514 -0.507,-5.271 -1.013,0.819 -2.598,0.936 -3.97,0.929 -5.441,-0.434 -7.912,-3.839 -8.194,-9.376 -0.282,-5.538 2.758,-7.957 5.069,-7.772 2.108,0.224 3.97,1.123 5.744,2.535 -0.113,-1.634 -0.226,-3.267 -0.338,-4.9 z" style="fill:#2c2c2b;stroke:none"/>
    </g>
    <path inkscape:connector-curvature="0" style="color:#000000;font-style:normal;font-variant:normal;font-weight:normal;font-stretch:normal;font-size:medium;line-height:normal;font-family:sans-serif;text-indent:0;text-align:start;text-decoration:none;text-decoration-line:none;text-decoration-style:solid;text-decoration-color:#000000;letter-spacing:normal;word-spacing:normal;text-transform:none;direction:ltr;block-progression:tb;writing-mode:lr-tb;baseline-shift:baseline;text-anchor:start;white-space:normal;clip-rule:nonzero;display:inline;overflow:visible;visibility:visible;opacity:1;isolation:auto;mix-blend-mode:normal;color-interpolation:sRGB;color-interpolation-filters:linearRGB;solid-color:#000000;solid-opacity:1;fill:url(#linearGradient4174);fill-opacity:1;fill-rule:nonzero;stroke:none;stroke-width:6.4000001;stroke-linecap:butt;stroke-linejoin:miter;stroke-miterlimit:4;stroke-dasharray:none;stroke-dashoffset:0;stroke-opacity:1;color-rendering:auto;image-rendering:auto;shape-rendering:auto;text-rendering:auto;enable-background:accumulate" d="M 241.15034,-5.0283962e-5 C 160.0961,1.584178 82.345151,6.7821645 15.365623,13.956749 10.316952,67.836455 5.5033376,123.10801 1.2090992,169.37237 l 0.00319,-0.007 c -7.746873,82.18205 22.3818234,161.472 69.0106554,229.07691 46.628832,67.60491 109.795142,123.68143 169.136242,159.81664 l 2.85625,1.74062 2.78269,-1.85559 C 360.53367,481.09159 496.3136,340.29387 483.10664,169.45222 l -0.003,-0.0446 -0.003,-0.0415 C 477.965,114.92544 472.95967,61.732642 468.50857,14.563626 390.22245,6.3862138 309.09471,0.02954709 241.1502,-1.2275329e-6 Z" id="path4156"/>
  </g>
</svg>