<svg xmlns="http://www.w3.org/2000/svg" id="svg2" xml:space="preserve" height="400" width="400" version="1.0"><path id="background" d="m198.13 7.1861h7.22c28.39 0.3807 52.27 5.6399 73.22 13.561 10.51 3.962 19.98 8.968 29.06 14.284 13.63 7.97 25.5 17.893 36.35 28.731 10.77 10.767 20.4 23.08 28.66 36.348 11.12 17.83 20.7 37.46 26.86 59.86 0.02 0.09-0.02 0.12-0.08 0.13-6.42 1.53-12.76 3.14-19.23 4.61 4.18 12.93 6.05 28.68 5.41 45.85-0.61 15.99-3.91 30.92-8.28 43.28-4.48 12.63-10.47 23.93-17.17 34.41-6.72 10.5-14.46 20.09-22.99 28.6-0.01 0.05-0.07 0.06-0.06 0.13 4.18 3.69 8.62 7.3 12.89 10.96 0.57 0.49 1.3 0.87 1.66 1.53-7.63 9.75-16.71 18.34-26.78 25.72-30.12 22.13-68.54 36.7-119.58 37.62h-6.03c-0.01-0.06-0.04-0.07-0.13-0.07-33.86-0.33-61.69-7.85-85.44-18.7-5.89-2.7-11.61-5.73-17.04-9.03-16.29-9.85-30.752-21.47-42.371-35.87v-0.14c4.818-3.91 9.47-7.98 14.299-11.88-0.972-1.12-2.047-2.18-3.061-3.21-3.197-3.2-6.096-6.61-8.897-10.16-11.103-14.08-20.705-30.27-27.125-48.89-4.226-12.32-7.612-26.66-8.275-42.43-0.724-16.88 1.399-33.07 4.946-46.52 0.045-0.02-17.289-3.86-25.666-6.2 6.1677-22.73 15.446-42.9 26.861-60.676 5.727-8.908 11.959-17.244 18.718-25.036 6.756-7.834 14.209-14.918 22.104-21.648 7.773-6.642 16.403-12.81 25.654-18.114 27.813-15.932 61.463-26.447 104.29-27.05" fill-rule="evenodd" fill="#7a143f"/><path id="shield" d="m123.38 87.344c-9.39 8.026-19.34 16.486-28.88 24.656-0.396 0.32-1.86 1.56-1.875 1.75 0-0.03 0.462 0.51 0.594 0.72 1.387 1.91 2.596 4.06 3.625 6.09 3.756 7.51 6.096 15.67 5.816 27.13-0.17 6.96-1.39 13.37-2.6 19.43-1.204 6.09-2.807 11.82-4.56 17.57-3.416 11.12-6.735 23.37-6 37.87 0.339 6.68 1.964 12.69 4 18.06 2.032 5.42 4.586 10.27 7.28 14.82 2.73 4.61 5.89 8.75 9.22 12.84 3.28 4.05 6.59 8.13 10.16 11.94 3.57 3.84 7.16 7.64 11.15 10.9 6.03 4.94 12.71 9.61 20.5 12.63 2.7 1.04 5.57 1.7 8.44 2.59 5.43 1.73 10.92 3.8 15.75 6.35 9.72 5.14 17.28 11.72 25.22 19 7.54-7.32 14.87-14.11 24.56-19.03 2.31-1.18 4.88-2.35 7.5-3.44 2.59-1.06 5.29-2.27 8-2.88 2.98-0.64 5.76-1.38 8.5-2.4 13.2-4.86 22.65-13.67 31.47-23.1 3.55-3.78 6.91-7.71 10.16-11.72 6.5-8.02 12.12-17.01 16.15-27.43 2.06-5.31 3.71-10.98 4.28-17.6 1.24-14.16-1.29-27.51-4.68-38.25-3.42-10.8-6.69-22.85-7.54-36.09-0.94-14.59 2.77-25.69 8.35-34.94-0.41-0.7-1.1-1.17-1.69-1.72-1.87-1.76-3.74-3.43-5.59-5.15-7.4-6.92-14.95-13.731-22.31-20.596-1.52 1.591-3.32 3.336-5.22 4.75-5.48 4.064-12.69 6.952-20.85 8.216-5.42 0.84-12.62 1.15-18.19 0.47-5.63-0.69-9.04-4.259-8.28-10.811h-50.03c1.22 2.944 0.63 5.918-0.87 7.656-1.49 1.723-4.16 2.715-6.82 3.155-5.58 0.91-13.02 0.86-18.37-0.12-11.06-2.066-19.71-7.073-26.37-13.316zm56.18 4.968h42.94c-0.38 6.523 3.32 10.088 8.62 11.408 2.64 0.66 5.83 0.77 9.1 0.87 16.74 0.53 30.48-3.64 38.16-12.215 8.48 7.363 17.09 14.605 25.59 21.965-4.94 9.4-9.37 19.86-8.75 33.88 0.57 13.09 3.51 25.23 6.94 35.66 1.79 5.47 3.53 10.83 4.62 16.71 1.14 6.15 1.42 12.6 1.38 19.91-0.05 7.02-1.42 12.65-3.35 17.97-5.61 15.53-15.09 27.51-25.31 38.62-3.45 3.76-6.8 7.53-10.69 10.63-3.86 3.08-8.4 5.9-12.9 8.4-4.54 2.54-9.42 4.87-14.57 6.76-2.62 0.97-5.36 1.65-8.06 2.62-11.69 4.26-21.43 10.25-29.72 18.22-0.39 0.37-0.81 0.81-1.34 1.34-0.33 0.31-1.31 1.28-1.34 1.28-0.14 0-1.02-0.9-1.41-1.28-3.09-3.09-6.68-6.03-10.09-8.62-4.13-3.11-8.56-5.92-13.29-8.1-9.92-4.56-21.44-6.89-30.68-12.09-9.06-5.09-16.54-11.94-23.53-19.22-12.3-12.78-22.551-27.36-27.38-47.44-0.354-1.47-0.58-2.96-0.844-4.5-0.294-1.59-0.322-3.12-0.281-4.9 0.192-6.89 0.805-13.47 2-19.41 1.176-5.88 2.934-11.3 4.685-16.69 1.73-5.31 3.01-11.13 4.19-17.15 1.18-6.06 2.12-12.34 2.53-18.85 0.47-7.23-0.22-13.55-2.06-19.03-1.78-5.3-4.09-10.04-7.001-14.31 8.241-7.32 16.431-14.4 24.781-21.719 0.24-0.192 0.84-0.656 0.81-0.656 0.19 0 0.79 0.994 1.13 1.375 2.76 3.035 6.73 5.38 10.75 7.03 7.1 2.89 16.22 4.23 26.47 3.94 3.34-0.09 6.68-0.17 9.4-0.75 5.54-1.15 9.34-4.431 8.5-11.47-0.09-0.015-0.09-0.188 0-0.188zm3 2.782c-0.07 0.015-0.08 0.097-0.06 0.187-0.41 6.209-4.01 9.739-9.56 11.129-2.71 0.67-5.95 0.9-9.28 1.06-17.42 0.84-31.94-2.96-40.69-10.908-7.13 6.228-14.25 12.488-21.44 18.658 3.7 6.17 6.6 13.12 7.81 21.84 1.26 9.09-0.35 18.88-1.75 27.19-0.72 4.27-1.63 8.27-2.59 12.22-2.9 11.87-7.684 22.41-8.344 36.15 4.244-9.2 12.684-27.65 12.684-27.65h19.97l-24.97 55.37h-3.34c0.25 1.42 1.1 2.89 1.66 4.16 4.11 9.32 9.56 16.86 15.65 24.09 6.78 8.06 14.56 15.93 23.44 21.94 4.61 3.12 9.38 5.76 14.91 7.75 5.46 1.99 11.26 3.47 16.81 5.88 2.71 1.16 5.29 2.32 7.75 3.62 7.45 3.89 13.62 9.09 19.66 14.41 9.58-9.32 21.49-16.53 36-20.85 2.85-0.84 5.61-1.91 8.28-3.06 7.77-3.33 15.05-7.58 21.4-12.5 2.09-1.63 3.96-3.55 5.88-5.47 3.78-3.8 7.27-7.89 10.81-11.97 7.05-8.15 13.45-17.39 17.72-28h-19.88l21.19-46.56c0.02-0.52-0.35-1.37-0.53-2-0.59-2.07-1.33-4.03-1.94-5.81-8.26 18.07-24.53 54.37-24.53 54.37h-20.28s12.4-27.98 18.62-41.81c2.07-4.62 6.22-13.56 6.22-13.56h19.69c-3.15-10.44-6.46-22.5-7.06-35.56-0.65-14.01 3.11-25.06 7.81-34.25-7.11-6.35-14.53-12.39-21.66-18.722-7.06 6.382-17.58 9.842-30.31 10.752-6.36 0.45-13.8 0.44-18.97-1.07-5.34-1.53-8.85-5.11-9.56-11.026h-37.22zm18.56 3.875c0.54-0.023 1.09 0.218 1.54 0.969 1.17 2.002 3.97 7.202 4.56 8.002 0.59 0.79 1.14 1.55 0.19 1.47-0.87-0.09-0.87-0.05-1.57-0.03-0.67 0-1.03 0.49-0.22 1.18 0.83 0.71 5.67 6.61 5.79 6.91 0.11 0.29 0.92 1.86 0 1.87-0.92 0.02-1.03 0.16-1.94 0.07-0.93-0.09-0.93 0.24-0.56 1.34 0.35 1.1 4.1 4.79 4.59 5.69 0.47 0.91 1.24 2.22 0.5 2.62-1.03 0.53-1.12 0.36-1.62 0.63-0.42 0.22-0.77 0.38-0.22 1 0.87 0.97 2.79 2.57 3.5 3.47 0.7 0.89 1.9 2.3 0.75 3.12-1.15 0.83-1.85 0.85-1.13 1.94 0.71 1.1 2.59 3.31 3.06 4 0.48 0.69 1.64 1 2.41 0.28 0.44-0.41 0.81-1.14 1.03-1.53 0.22-0.42 0.33-0.91-0.25-0.91-0.59 0.02-0.69 0.11-1.5 0.13-0.81 0.01-1.61-0.3-0.59-1.63 1.01-1.32 5.45-6.02 5.9-6.53 0.46-0.5 0.67-1.13-0.03-1.22-0.69-0.08-1.08-0.27-1.22-0.69-0.11-0.39 0.35-0.88 0.63-1.62 0.29-0.8 3.86-5.4 4.44-6.62 0.56-1.23 2.45-4.98 2.65-5.88 0.22-0.92 0.72-1.8 1.47-0.09 0.46 1.06 6.65 10.15 7.34 11.15 0.73 0.99 0.92 2.3-0.12 2.32-1.05 0.01-0.81-0.01-1.62-0.1-0.82-0.09-1.46 0.07-0.63 1.16 0.83 1.1 3.92 6.1 4.5 6.68 0.59 0.61 1.17 2.02 0.13 2.04-1.04 0.01-0.69-0.07-1.38 0.03-0.69 0.11-1.26 0.31-0.78 1.31 0.47 1 3.75 4.9 4.34 6 0.61 1.1 2.09 1.98 0.69 2-1.38 0.03-1.42 0.14-2.47 0.16-1.04 0.01-1.63 1.03-0.81 1.62 0.81 0.61 2.39 1.95 2.84 2.66 0.47 0.69 0.85 2.11 1.44 2.72 0.59 0.58 1.2 1.22 1.78 1.93 0.59 0.69 0.27 1.94-0.65 1.35-0.95-0.59-2.31-1.13-2.79-1.63-0.46-0.5-0.8-0.48-1.12 0.22-0.34 0.72-0.56 1.31-0.56 1.31s-0.53 0.75-1.16 0.44c-1.23-0.62-0.84-0.82-1.53-1.22-0.71-0.4-0.68-0.27-0.75 0.41-0.07 0.74-0.92 2-2.38 0.87-0.66-0.53-1.12-1-1.59-0.9-0.46 0.1-0.58 0.42-0.56 1.44 0.01 1-0.95 2.8 0.18 3.68 0.95 0.74 1.91 0.67 2.72 0.75 0.81 0.09 1.87 0.51 2.91 1.03 1.15 0.58 0.56-0.27 2.53 0.41 1.97 0.67 6.14 2.47 8.34 3.25 2.21 0.78 4.11 2.23 5.63 2.91 1.5 0.69 3.9 2.17 1.25 1.9-2.67-0.27-21.62 0.05-25.44 0.1-3.81 0.05-82.37 0-83.65 0-3.24 0-2.06-0.78-0.72-1.79 1.05-0.76 4.02-2.8 5.62-3.43 1.61-0.62 7.21-2.4 9.63-3.35 2.4-0.94 6.93-1.13 7.31-2.25 0.37-1.09 0.31-1.74-0.16-2.34-0.47-0.59-0.25-0.88-1.28-0.97-1.05-0.09-1.95 0.83-2.4 1.53-0.44 0.72-1.38 0.72-1.85 0.22-0.45-0.49-0.35-1.1-1.84-0.97-1.5 0.12-3 0.46-3.69 0.47-0.71 0-1.38-0.2-1.28-0.69 0.08-0.44 0.23-0.84 0.66-1.56 0.42-0.7 0.48-0.92-0.57-0.9-1.03 0-1.18 0.34-2.68 0.24-1.5-0.07-1.74-0.86-0.69-1.5 1.03-0.61 5.57-4.5 6.03-4.81s0.57-0.61 0-0.81c-1.5-0.5-1.73-0.41-2.78-0.69-1.05-0.29-1.27-0.96-0.6-1.78 0.68-0.82 4.2-4.61 4.88-5.22 0.69-0.62 0.5-1.7-0.31-1.69-0.81 0.02-0.56 0.17-1.1 0.1-1.07-0.15-1.19-1.28-0.5-2.19 1.59-2.09 4.53-6.47 4.79-7.09 0.24-0.61 0.11-1.27-0.38-1.32-0.81-0.05-0.46-0.03-1.5-0.06-1.09-0.04-1.62-0.71-0.97-1.9 1.05-1.93 5.81-10.19 6.53-12.5 0.19-0.62 0.31-1.24 1.03-0.35 0.69 0.9 7.82 9.09 8.44 10.03 0.8 1.23 1.07 2.59 0.63 3-0.47 0.41-0.9 0.82-1.47 0.82-0.31 0.01-0.35 0.31 0.12 0.81s3.74 3.59 4.44 4.19c0.69 0.58 0.83 1.08 0.37 1.59-0.45 0.5-0.98 0.78-0.9 1.31 0.1 0.7 1.44 2.5 2.56 1.5 0.5-0.47 2.37-2.68 2.72-3.09 0.34-0.4 0.65-0.83-0.16-0.81-0.81 0.01-1.99-0.34-2.68-0.72-0.71-0.4-0.78-1.02-0.1-1.85 0.68-0.81 4.95-5.89 5.63-6.53 0.85-0.79 1.17-1.77 0-1.75-1.33 0.05-0.88 0.03-1.81 0.25-0.92 0.21-2.13 0.21-0.6-1.4 0.84-0.89 3.98-4.16 4.44-4.97 0.44-0.82 0.57-1.47 0-1.47-0.57 0.01-0.95 0.12-1.63 0.25-0.69 0.15-1.06-0.98-0.25-1.5 2.14-1.37 4.85-5.54 5.44-6.66 0.39-0.72 0.24-1.24-0.37-0.93-1.55 0.76-2.37 0.14-1.69-0.79 0.68-0.91 4.52-7.55 4.81-8.12 0.34-0.656 1.2-1.463 2.09-1.501zm-12.46 59.251c-0.66 0.25-2.27 3.15-4.35 2.78-0.79-0.15-0.57-1.57-1.5-1.47-1.32 0.15-2.2 2.3-3.4 2.28-1.06-0.01-1.04-0.25-1.85-0.84-0.82-0.61-1.08 1.16-0.9 1.94 0.13 0.56 0.2 1.01 1.46 1 1.27-0.02 1.41-0.26 2.91-0.29 1.49-0.01 1.56 0.77 2.03 1.07 0.46 0.29 1.05 0.87 2.1 0.84 1.04 0 12.53-2.73 14.22-3.97 0.63-0.45 0.22-2.11-0.13-2.37-0.77-0.61-5.17 3.24-6.84 3.47-1.43 0.19-1.98 0.42-2.91-0.47-0.94-0.88-0.47-3.9-0.75-3.97-0.03-0.01-0.05-0.02-0.09 0zm24.75 0.12c-1.39 0.24-1.41 1.18-2.6 1.5-1.2 0.31-3.87-1.64-4.93-1.37-0.43 0.1-0.66 0.88-0.54 1.28 0.12 0.41 0.16 2.84 0.88 3.63 0.38 0.42 3.67-0.51 5.4 0.03 2.11 0.64 2.92 1.58 4 1.43 1.51-0.19 4.03-2.66 6.22-2.53 2.38 0.15 4.97 2.07 6.54 2.19 1.39 0.12 1.26-0.67 1.24-1.19 0-0.5-1.3-1.03-1.78-1.53-0.47-0.5-1.17-2.04-2.22-2.12-1.64-0.14-2.26 1.2-3.46 0.87-1.23-0.34-0.47-1.19-1.6-1.47-0.44-0.11-0.85 0.58-1.31 0.63-1.5 0.11-4.46-1.55-5.84-1.35zm-11.6 23.13c3.01 0 5.16 0.32 6.94 0.81 6.45 1.77 11.88 4.48 16.31 8.1 5.86 4.8 10.26 12.03 9.63 22.78-0.62 10.47-3.7 17.86-9.16 23.37-6.42 6.48-17.88 11.4-30.34 8.75-15.55-3.3-25.02-13.05-25.6-31.31-0.34-10.66 3.91-18.12 9.38-23.19 4.09-3.8 9.65-6.72 16.03-8.44 2.15-0.57 3.92-0.87 6.81-0.87zm-66.56 3.41l20.47 0.09s-16.77 36.86-25.19 55.37c-6.29-0.11-13.61-0.11-20.12 0-0.05-0.6 0.36-1.15 0.59-1.65 8.12-17.78 24.25-53.81 24.25-53.81zm25.87 0.09h18.5c-0.42 0.32-0.43 0.51-0.59 0.65-3.87 3.29-7.53 7.57-9.81 12.5-2.3 4.92-3.16 10.49-3.16 17.72 0 0.9 0.19 1.95 0.06 2.85l-10.21 21.65h-19.72l24.93-55.37zm63.63 0h24.69l-10.88 22.97c-2.09-10.27-6.98-17.48-13.81-22.97zm29.75 0h20.28l-24.78 55.37h-20.19l24.69-55.37zm-86.72 40.87c2.3 5.86 5.25 10.65 9.53 14.5h-15.69l6.16-14.5zm-1.44 16.75c2.05 0 4.14 0.54 4.07 2.22 2.78-0.03 6.11-0.52 8.21 0.47 0.95 0.46 2.21 1.83 2.13 3.1-0.1 1.44-1.73 3.12-2.66 3.93-0.6 0.53-1.14 0.98-1.93 1.41-0.74 0.41-1.64 0.46-2.41 0.84-0.65 0.33-1.24 1.17-1.87 1.82-0.48 0.47-1.44 1.63-1.88 1.74-0.59 0.17-1.55 0.05-2.34 0.07-0.79 0.01-1.64 0.06-2.35 0.06-1.53 0-3.21-0.08-4.59 0.13-1.03 0.14-2.03 0.69-2.81 1.06-0.84 0.41-1.63 0.87-2.22 1.62v15.56h26.22c0.14-0.73 0.02-1.75 0.06-2.59h7.94v-20.65h1.53c2.44-5.08 12.67-6.05 17.44-5.22 1.32 0.22 1.35 0.53 1.34 1.15-0.02 1.09-1.48 0.9-2.13 1.07-0.95 0.2-1.87 0.39-2.62 0.53-1.87 0.31-3.9 0.08-5.81 0.47-1.73 0.32-3.5 1.18-4.47 2.06v10.09c0.41 0.16 1.09 0.02 1.59 0.06v7.63h0.88c0.16-0.66 0.01-1.61 0.06-2.41h2.22v-8.93c-0.19-0.21-0.84 0.03-1.03-0.16v-5.94h12.18c1.06-1.21 2.04-2.47 3.16-3.59 1.53-1.56 3.23-3.42 5.72-4.1 0.84-0.22 1.75-0.11 2.75-0.34 0.44-0.1 0.93-0.49 1.4-0.72 1.36-0.66 2.93-1.34 4.88-1.47 2.52-0.17 5.75 0.53 7.03 1.41 1.25 0.88 1.53 0.86 0.19 1.87-1.34 1.02-2.77 0.49-4.1 0.72 0.07 2.57-3.57 1.82-5.59 1.6-0.63 0.94-1.03 1.85-2 2.56-1.84 1.34-5.06 0.96-7.44 0.25-1.03 1.02-1.96 2.12-2.84 3.28 0.02 2.62-0.05 5.76-0.09 8.53h8.03v1.81h8.81v4.75c0.53 0.17 1.35 0.04 2 0.07v3.15c0.47 0.15 1.22 0.02 1.81 0.06v1.41h1.94c0.23-4.99 5.14-7.11 10.28-6.22 3.41 0.61 5.83 2.64 5.41 6.63h10.03l-0.06 11.25-124.53-0.03-0.13-9.44 6.59-0.25-0.06-17.53c0-0.81 0.32-1.76 0.47-2.47 0.18-0.77 1.3-1.71 1.81-2.25 1.97-2.08 4.35-3.94 7.94-4.16 0.56-0.03 1.41 0.12 1.94 0 0.62-0.14 1.1-0.83 1.68-1.18 0.73-0.45 1.42-0.64 2.13-1.07 0.46-1.83 1.14-4.51 2.94-5.22 0.73-0.29 1.93-0.49 3.15-0.5zm-0.46 7.97c-1.08 0.03-3.49 0.53-4.29 1-0.78 0.47-1.31 2.02-2.09 2.28-0.54 0.2-1.39 0.07-2.06 0.07-2.16 0-4.17-0.16-6.1-0.35-0.5 0.47-1 1.01-1.59 1.63-0.44 0.45-1.35 1.2-1.47 1.72-0.16 0.66 0.02 1.65 0 2.47-0.16 5.53-0.08 11.87-0.19 17.24 1.39-0.04 2.94 0.09 4.22-0.06v-16.15h1.38c1.65-1.45 3.61-2.48 5.62-3.44 0.69-0.31 1.46-0.57 2.07-0.94 0.56-0.34 0.9-0.88 1.34-1.25 0.47-0.39 1-0.78 1.59-1.06 0.64-0.3 1.5-0.21 2.22-0.53 0.77-0.36 1.33-1.22 1.41-2.16-0.59-0.35-1.3-0.48-2.06-0.47z" fill-rule="evenodd" fill="#fbba2d"/><path id="outline" d="m203.47 13.094c-2.14 0.002-4.28 0.057-6.41 0.156-5.27 0.249-10.14 0.369-14.97 0.75-19.33 1.561-37.08 5.516-52.56 10.938-20.88 7.332-38.881 17.502-54.655 30.093-15.743 12.562-29.357 27.072-40.844 43.875-11.472 16.724-20.917 35.014-27.5 56.564 1.1953 0.12 2.3864 0.95 3.344 0.84 6.658-20.54 15.874-39.02 27.094-55.34 11.223-16.291 24.039-30.813 39.281-43.126 26.47-21.384 59.27-37.036 103.56-40.719 12.79-1.074 27-0.925 39.57 0.063 6.33 0.501 12.42 1.356 18.31 2.343 23.5 3.963 43.48 11.38 61.19 21.25 26.45 14.756 47.37 35.012 63.93 59.749 11.06 16.49 20.14 34.99 26.31 56.09 0.03 0.07 0.07 0.11 0.16 0.1 1.19-0.3 2.33-0.66 3.53-0.94-6.53-21.13-15.74-39.69-26.9-56.342-11.13-16.581-24.05-31.448-39.32-43.938-26.48-21.662-59.64-37.787-104.15-41.5-6.12-0.506-12.55-0.913-18.97-0.906zm-3.72 6.281c-3.57-0.006-7.18 0.064-10.84 0.219-23.49 0.999-44.47 5.568-62.35 12.312-38.538 14.552-66.592 39.669-88.122 71.344-10.794 15.86-19.633 33.63-25.907 53.84 14.255 3.41 28.388 6.94 42.688 10.32 4.565-16.4 11.538-30.69 19.843-43.44 16.596-25.55 39.188-45.118 70.278-56.251 15.7-5.625 33.77-8.625 54.72-8.625 20.41 0 38.71 3.209 54.32 8.687 23.78 8.321 42.08 20.987 57.24 37.689 5.04 5.55 9.75 11.5 13.85 17.84 8.3 12.86 15.35 27.05 19.56 43.75 13.3-3.05 26.84-6.28 40.03-9.37 0.3-0.07 0.86-0.07 1-0.47-2.86-10.73-6.83-20.68-11.22-30-4.39-9.29-9.44-18.08-14.96-26.25-11.12-16.378-24.17-30.786-39.63-42.876-15.36-12.019-33.07-21.778-53.91-28.594-18.9-6.198-41.58-10.083-66.59-10.125zm1.31 42.031c-1.27 0.013-2.55 0.035-3.81 0.094-5.08 0.234-9.84 0.263-14.47 0.719-32.28 3.182-56.98 14.431-76.56 30.469-11.281 9.202-20.536 20.152-28.751 32.402-8.219 12.26-15.067 26.95-19.5 42.69 1.15 0.5 2.873 0.8 4.125 1.19 4.52-15.54 10.802-29.83 18.844-41.88 16.226-24.25 37.262-43.014 67.032-53.778 14.86-5.376 31.99-8.562 51.81-8.562 39.93 0 68.65 11.912 91.1 29.688 11.2 8.862 20.53 19.782 28.5 31.872 7.99 12.12 14.44 26.01 18.65 41.75 1.05-0.14 2.69-0.32 3.69-0.75-4.4-16.21-11.09-30.56-19.38-43.12-16.51-25.024-39.15-44.346-70.31-54.815-7.7-2.579-16.04-4.688-25.25-6-7.65-1.082-16.79-2.056-25.72-1.969zm-125.53 84.004c-1.429 3.56-2.707 7.28-4 10.97 5.154-2.82 10.329-5.65 15.438-8.5-3.857-0.79-7.653-1.62-11.438-2.47zm251.22 0.53c-3.79 0.76-7.46 1.68-11.31 2.4 4.84 2.98 9.97 5.68 14.9 8.57-1-3.23-2.06-6.6-3.06-9.75-0.15-0.45-0.24-1.06-0.53-1.22zm-243.88 18.59c-4.946 2.89-18.031 10.41-18.031 10.41s-23.273-5.45-33.625-8.1c-2.843 12.8-4.938 26.64-4.938 42.1 0 15.87 2.408 29.59 6.563 41.09 8.407 23.3 21.456 42.31 36.125 59.13 7.581-6.22 24.375-19.5 24.375-19.5s15.206-0.15 21.466 0c0.05-0.3-0.3-0.44-0.47-0.6-7.18-6.83-13.34-14.17-19.09-22.4-11.736-16.78-20.502-37.24-19.25-66.25 0.573-13.48 3.358-25.6 6.875-35.88zm240.06 0c1.91 5.39 3.39 11.12 4.75 17.16 1.31 5.93 2.39 12.29 2.78 18.84 0.42 7.17 0.44 14.24-0.44 20.66-0.88 6.33-2.37 11.96-4.34 17.28-3.83 10.28-9.28 19.63-15.31 28-5.9 8.13-12.41 15.63-19.38 22.53-0.2 0.19-0.63 0.49-0.47 0.66h18.97c0.94 0 2.03-0.17 2.75 0 0.38 0.09 1.03 0.73 1.53 1.12 7.63 6.19 15.18 12.36 22.66 18.38 11.31-12.47 21.5-26.57 29.72-42.28 2.76-5.28 5.31-10.91 7.34-16.69 2.03-5.82 3.92-12.17 4.97-19.07 1.06-7 1.54-14.6 1.37-22.5-0.31-15.58-2.6-29.53-5.87-42.18-11.05 2.66-22.05 5.35-33.06 8.03-6-3.33-11.93-6.67-17.97-9.94zm-205.44 131.19c-1.63-0.01-3.24 0.01-4.88 0.03 4.22 2.91 8.22 6.02 12.47 8.87 2.05-2.5 4.25-5.21 6.29-7.68 0.29-0.37 0.8-0.68 0.74-1-4.86-0.06-9.73-0.2-14.62-0.22zm157 0.22c-1.64 0.01-3.3 0.02-4.91 0.06 2.63 2.74 5.07 5.69 7.79 8.34 3.72-2.57 7.68-5.35 11.43-7.87 0.22-0.16 0.67-0.4 0.53-0.53-4.91 0.04-9.92-0.03-14.84 0zm28.41 0.37c-12.09 10.66-26.5 19.87-42.85 26.35-8.24 3.26-16.93 6-26.37 7.93-9.6 1.98-19.57 3.12-30.94 3.41-11.16 0.29-21.53-1.05-30.87-3.19-9.4-2.15-17.95-5.03-26-8.34-16.13-6.66-30.35-15.7-42.88-25.81-0.75 0.54-1.61 1.67-2.41 2.18 8.04 7.48 21.45 17.72 43.41 26.97 12.55 5.28 26.16 9.26 42.16 10.94 16.56 1.73 34.34 0.32 48.53-2.87 19.38-4.36 35.85-11.33 50.5-20.32 7.38-4.5 14.4-9.3 20.43-14.97l-2.71-2.28zm5.37 4.38c-12.47 11.29-27.65 20.53-44.94 27.43-8.57 3.44-17.75 6.39-27.75 8.5-9.97 2.13-20.96 3.6-32.59 3.6-24.02 0-43.09-5.02-60.19-12.22-17.05-7.17-32.11-16.4-45.154-27.25h-0.125c-10.118 8.31-20.474 16.95-30.562 25.5 7.366 8.47 16.059 15.7 25.469 22.22 23.402 16.21 51.812 27.85 87.722 31.53 14.34 1.47 31.33 1.33 45.43-0.16 28.81-3.06 52.67-10.97 73.35-22.03 15.49-8.29 29.36-18.52 40.44-31.12-10.4-8.65-20.69-17.4-31.1-26zm-243.31 27.37l-2.657 2c7.525 8.82 16.361 16.59 26.126 23.35 9.703 6.73 20.252 12.64 31.782 17.62 23.12 9.97 50.08 16.22 82.72 16.22 32.23 0 59.27-6.39 82.44-16.22 11.5-4.87 22.24-10.77 31.93-17.5 9.78-6.79 18.79-14.38 26.41-23.12l-2.63-2.16c-0.88 0.97-1.42 1.75-2.4 2.84-2.91 3.21-6.03 6.11-9.28 8.94-13.05 11.28-28.03 20.54-45.1 27.88-22.44 9.64-49.38 16.09-80.97 16.09-47.43 0-84.18-13.43-112.59-33.09-9.587-6.64-18.343-14.17-25.781-22.85z" fill-rule="evenodd" fill="#fbba2d"/><path id="motherwell-fc" d="m191.72 24.938c1.22 9.364 2.88 18.882 4.28 28.281 2.52 0.117 5.09 0.154 7.56 0.312 1.76-5.726 3.36-11.613 5.13-17.343 1.21 5.892 2.42 11.753 3.59 17.687 2.52 0.121 5.29 0.242 7.63 0.344 2.21-9.278 4.45-18.55 6.68-27.813-2.39-0.132-4.89-0.165-7.28-0.312-1.16 5.082-2.16 10.324-3.34 15.406-1.08-5.214-2.13-10.489-3.22-15.688-2.49-0.06-4.83-0.208-7.34-0.25-1.46 5.139-2.91 10.26-4.47 15.282-0.67-5.169-1.34-10.334-1.94-15.563-2.37-0.162-4.85-0.227-7.28-0.343zm-15.34 2.374c-0.43 0-0.84 0.003-1.29 0.032-4.96 0.309-9.6 1.538-14.65 1.937 1.24 9.278 2.55 18.49 3.75 27.813 2.65-0.279 5.13-0.721 7.75-1-0.55-3.755-1.02-7.543-1.53-11.313 2.62-0.603 3.46 1.076 4.47 2.625 1.2 1.84 2.19 3.202 3.4 5 0.31 0.472 1.25 2.384 1.75 2.532 0.47 0.147 1.49-0.16 2.13-0.25 2.28-0.31 4.34-0.566 6.4-0.876-1.09-1.737-2.23-3.698-3.47-5.624-1.47-2.3-3.04-4.961-6.06-5.594 2.7-1.176 4.7-3.032 4.94-6.406 0.32-4.475-1.82-8.55-6.35-8.844-0.39-0.029-0.82-0.032-1.24-0.032zm59.5 0.907c-2.27 9.025-4.48 18.135-6.63 27.281 6.83 1.621 13.64 3.271 20.44 4.938 0.57-2.033 1.05-4.142 1.56-6.219-4.37-0.999-8.68-2.067-12.97-3.157 0.44-1.753 0.83-3.572 1.34-5.25 3.94 0.883 7.79 1.84 11.63 2.813 0.46-1.855 0.94-3.683 1.31-5.625-3.87-0.958-7.82-1.816-11.59-2.875 0.35-1.399 0.61-2.911 1.06-4.219 4.24 0.943 8.35 1.997 12.56 3 0.44-1.99 0.97-3.888 1.41-5.875-6.79-1.515-13.38-3.267-20.12-4.812zm-86.19 3.219c-6.48 2.194-12.99 4.304-19.5 6.468 2.87 8.954 5.84 17.808 8.81 26.656 6.64-2.224 13.3-4.426 20-6.593-0.68-2.047-1.28-4.194-2.09-6.094-4.14 1.399-8.52 2.935-12.63 4.156-0.5-1.783-1.15-3.424-1.66-5.219 3.84-1.206 7.58-2.498 11.35-3.75-0.5-1.884-1.21-3.551-1.75-5.406-3.9 1.18-7.6 2.544-11.47 3.75-0.37-1.485-0.93-2.79-1.34-4.218 4.09-1.384 8.27-2.651 12.28-4.126-0.72-1.824-1.15-3.928-2-5.624zm23.9 1.843c0.52 0.016 1.04 0.098 1.5 0.344 1.33 0.724 1.68 3.41 0.38 4.5-1.34 1.12-3.65 0.975-5.81 1.375-0.23-1.885-0.52-3.697-0.72-5.594 1.36 0.054 3.09-0.671 4.65-0.625zm92 2.907c-3.53 8.569-6.93 17.269-10.28 26.031 6.12 2.401 12.21 4.847 18.38 7.219 0.82-2.149 1.73-4.182 2.47-6.407-3.67-1.53-7.52-2.896-11.16-4.469 2.61-6.54 5.19-13.104 7.75-19.656-2.45-0.856-4.7-1.878-7.16-2.718zm-145.62 5.531c-2.2 1.251-4.42 2.498-6.63 3.75 1.51 2.929 3.24 5.617 4.75 8.531-2.4 1.414-4.82 2.844-7.34 4.156-1.52-2.884-3.19-5.642-4.75-8.5-2.31 1.18-4.45 2.559-6.75 3.75 4.51 8.219 9.23 16.25 13.75 24.469 2.3-1.21 4.45-2.559 6.75-3.75-1.75-3.404-3.72-6.61-5.53-9.969 2.47-1.327 4.79-2.796 7.34-4.062 1.9 3.208 3.66 6.598 5.63 9.75 2.27-1.21 4.43-2.529 6.69-3.75-4.53-8.204-9.19-16.247-13.79-24.375h-0.12zm173.09 6.625c-4.78 7.981-9.52 15.975-14.22 24.031 5.55 3.461 11.27 6.754 16.97 10.094 1.18-1.957 2.39-3.876 3.47-5.938-3.43-2.062-6.92-4.049-10.28-6.156 3.54-6.096 7.2-12.015 10.69-18.156-2.21-1.282-4.37-2.639-6.63-3.875zm-201.03 9.062c-4.757 3.887-10.666 8.886-15.687 13.188-0.532 0.441-2.219 1.565-2.219 1.844 0 0 0.426 0.57 0.531 0.687 1.354 1.632 2.645 3.102 3.938 4.531 2.077-1.591 3.941-3.388 6.094-4.937 4.459 5.421 8.934 10.84 13.5 16.156 1.942-1.632 3.892-3.288 5.872-4.875-4.386-5.523-9.047-10.758-13.435-16.281 1.93-1.753 4.068-3.299 5.937-5.094-1.474-1.723-2.86-3.571-4.406-5.219-0.045 0.015-0.11-0.015-0.125 0zm237.91 16.719c-6.97 6.582-14.05 13.035-20.91 19.719 1.96 1.824 3.9 3.667 5.75 5.594 2.56-2.18 5.11-4.674 7.56-7 0.27-0.264 1.04-1 1.13-1 0.04 0 0.76 0.682 0.94 0.874 2.16 2.149 4.25 4.273 6.4 6.188 1.33-1.384 2.88-2.556 4.16-4-2.39-2.401-4.94-4.653-7.22-7.156 1.3-1.029 2.29-2.324 3.66-3.282 2.87 2.726 5.6 5.6 8.56 8.25 1.44-1.413 2.92-2.787 4.41-4.156-4.72-4.769-9.52-9.454-14.44-14.031zm-261.25 8.625c-0.429-0.007-0.866 0.026-1.313 0.062-3.698 0.31-6.464 2.509-8.156 4.688-1.768 2.27-3.559 5.314-3.25 9.469 0.441 6.051 5.627 10.011 10 12.031 2.767 1.25 6.053 2.01 9.25 1.28 2.974-0.67 4.81-2.15 6.593-4.44 1.622-2.07 3.077-4.54 3.344-7.652 0.264-3.401-1.129-6.326-2.75-8.313-1.576-1.945-3.709-3.506-6.156-4.875-2.035-1.148-4.565-2.201-7.562-2.25zm-1.157 7.531c1.93-0.135 3.64 0.757 5.125 1.594 1.738 1.003 3.92 2.375 4.938 4.219 1.647 3.031-0.819 6.676-3.469 7.026-0.426 0.05-1.353 0.03-1.813-0.06-3.015-0.59-6.705-2.92-8.281-4.966-0.573-0.739-1.017-1.701-1.062-2.938-0.076-2.771 2.044-4.701 4.562-4.875zm260.91 12.219c-0.16 0-0.33 0.01-0.5 0.03-0.78 0.09-0.81 0.11-1.19 0.31-0.84 0.48-1.85 1.7-1.63 3.41 0.15 1.16 1.05 2.22 2 2.56 3.2 1.14 5.83-2.48 3.97-5.03-0.52-0.72-1.52-1.27-2.65-1.28zm-282.91 3.34c-1.636 2.91-3.135 5.99-4.812 8.85 4.181 3.96 8.937 7.74 13.031 11.56-5.583-1.5-11.063-3.12-16.688-4.56-1.647 2.93-3.266 5.9-4.812 8.97 8.275 4.37 16.413 8.87 24.719 13.22 0.927-1.93 2.036-3.68 2.937-5.63-6.201-3.28-12.66-6.66-18.594-10 6.952 1.95 13.853 3.91 20.907 5.75 0.912-1.66 1.831-3.32 2.687-5.03-5.406-4.8-10.936-9.45-16.312-14.28 0.06 0 0.096 0.04 0.156 0.06 6.168 3.31 12.329 6.63 18.5 9.94 0.958-1.9 2.055-3.62 2.938-5.6-8.219-4.41-16.397-8.88-24.657-13.25zm305.47 0.75c-4.18 0.27-8.02 2.35-10.72 4.41-2.78 2.13-5.32 5.3-5.59 9.28-0.21 3.15 0.84 5.05 2.06 7.22 0.93 1.66 2.09 3.37 3.53 4.41 2.49 1.75 6.82 2.24 10.56 0.87-0.41-2.37-0.9-4.64-1.31-7.03-1.78 0.44-3.38 1-4.94 0.5-2.41-0.77-3.89-4.43-2.15-6.84 0.86-1.21 2.46-2.34 4.22-3.35 2.45-1.38 6.15-3.02 8.68-0.9 0.84 0.71 1.64 1.99 1.54 3.65-0.07 1.17-0.58 2.03-1.16 2.69-0.09 0.1-0.66 0.62-0.66 0.72 0 0.07 0.94 1 1.22 1.28 1.34 1.38 2.43 2.61 3.78 3.72 1.67-2.12 3.46-3.97 3.69-7.25 0.25-3.65-1.53-6.75-3.34-9.03-2.18-2.73-5.05-4.63-9.41-4.35zm-0.25 30.22c-0.18 0-0.37 0-0.56 0.03-1.83 0.3-3.3 2.23-2.47 4.5 0.76 2.12 4.3 2.68 5.75 0.72 1.61-2.16 0.04-5.26-2.72-5.25z" fill-rule="evenodd" fill="#7a143f"/><path id="est-1886" d="m124 328.88c-0.05-0.02-0.15 0.07-0.16 0.12-3.77 8.54-7.71 16.93-11.43 25.53 6.52 2.76 12.74 5.81 19.25 8.56 0.81-1.97 1.79-3.79 2.53-5.84-4.06-1.8-8.14-3.57-12.1-5.47 0.77-1.63 1.46-3.38 2.29-4.94 3.69 1.58 7.22 3.32 10.93 4.88 0.74-1.77 1.61-3.39 2.28-5.22-3.6-1.68-7.26-3.26-10.87-4.94 0.63-1.32 1.12-2.77 1.84-4 3.96 1.76 7.83 3.62 11.85 5.28 0.69-1.88 1.64-3.53 2.34-5.4-6.16-2.92-12.49-5.68-18.72-8.5 0.01-0.04-0.01-0.06-0.03-0.06zm157.47 0.9c-0.25 0-0.51 0.01-0.78 0.03-2.78 0.24-5.39 1.53-7 2.94-1.61 1.43-2.95 3.75-3.13 6.81-0.13 2.45 0.4 4.85 1 6.88 0.61 2.07 1.34 3.93 2.25 5.68 1.74 3.32 4.39 6.69 9.16 6.69 2.75-0.01 5.51-1.06 7.28-2.34 1.89-1.37 3.23-3.66 3.41-6.28 0.26-3.55-1.03-6.19-2.54-8.03-1.31-1.62-3.21-3.06-5.65-3.25-3.96-0.33-6.12 1.93-7.44 4.75-0.76-2.6-1.84-7.39 0.81-8.44 1.78-0.71 2.82 0.79 3.47 1.94 2.11-1.01 4.14-2.07 6.22-3.07-1.53-2.18-3.31-4.35-7.06-4.31zm-21.63 8.88c-0.31 0-0.64 0-0.96 0.03-4.89 0.37-9.36 2.76-9.85 7.22-0.41 3.72 1.57 6.57 4.69 7.5-1.67 1.44-2.98 3.34-2.75 6.4 0.35 4.17 3.05 7.71 7.41 8 2.47 0.16 4.65-0.34 6.74-1.06 3.53-1.21 6.48-3.44 6.32-8.34-0.13-4.06-2.31-6.54-5.63-7.57 1.03-1.46 2-2.69 2-4.93-0.01-4.45-3.22-7.24-7.97-7.25zm-108.18 1c-0.3-0.01-0.58 0-0.88 0.03-2.34 0.17-3.93 1.16-5.09 2.4-1.31 1.39-2.42 3.58-2.22 6.1 0.44 5.45 6.04 7.33 8.56 10.22 0.41 0.47 0.77 0.96 0.88 1.59 0.29 1.87-1.15 3.2-2.82 3.22-3.32 0.04-5.03-3.29-3.93-6.41-2.34-0.73-4.68-1.5-7.04-2.22-0.29 1.08-0.5 1.82-0.59 2.88-0.49 6.73 3.86 9.13 8.47 10.75 6.23 2.21 11.24-0.29 13.12-4.94 1.05-2.58 0.91-5.47-0.62-7.81-0.96-1.46-2.61-2.8-4.34-4.16-1.11-0.85-4.3-2.52-4.25-4.19 0.01-0.98 0.9-1.78 1.87-1.87 2.52-0.23 4.66 2.25 3.78 5.06 2.33 0.74 4.6 1.56 6.97 2.22 1.92-6.45-2.1-9.78-6.34-11.5-1.64-0.67-3.49-1.35-5.53-1.37zm107 4c0.3 0.01 0.58 0.06 0.75 0.12 1.95 0.72 2.83 4.67 0.65 5.88-4.09 2.28-6.43-5.19-2.25-5.97 0.23-0.04 0.55-0.05 0.85-0.03zm-92.72 0.31c-0.08 0.03-0.16 0.07-0.16 0.19-0.26 2.22-0.54 4.43-0.78 6.68 2.58 0.36 5.31 0.55 7.81 1-0.87 6.96-1.69 13.96-2.53 20.94 2.53 0.31 5.08 0.58 7.6 0.91 1.03-6.86 1.65-14.11 2.68-20.97 2.57 0.34 5.13 0.67 7.75 0.94 0.28-2.29 0.61-4.52 0.81-6.88-7.74-0.91-15.47-1.85-23.18-2.81zm117.18 0.41c0.36 0 1.1 0.14 1.54 0.4 1.79 1.05 4.08 6.22 1.53 8.22-2.99 2.34-5.91-1.9-6.16-4.62-0.22-2.35 0.99-3.99 3.09-4zm-45.62 0.03c-0.29-0.01-0.58 0.01-0.88 0.03-5.28 0.28-9.7 2.65-9.71 7.62 0 3.32 1.73 5.4 4.09 6.47-1.82 1.11-3.23 2.77-3.41 5.35-0.41 5.62 3.03 9.29 7.82 9.56 4.03 0.22 8.68-0.85 10.68-3.16 1.86-2.15 2.63-6.51 1.16-9.53-0.83-1.67-2.28-2.88-3.97-3.56 1.55-1.65 2.72-3.48 2.5-6.19-0.34-4.21-3.89-6.53-8.28-6.59zm-17.59 1.9c-1.87 0.12-3.85 0.1-5.75 0.19-1.4 3.95-4.38 6.31-8.28 7.75 0.03 2.18 0.13 4.32 0.21 6.44 1.39-0.5 2.66-1.09 3.85-1.81 1.21-0.74 2.26-1.61 3.28-2.35 0.22 6.17 0.42 12.34 0.62 18.5 2.4-0.01 4.66-0.11 7-0.19-0.29-9.52-0.54-19.1-0.93-28.53zm16.43 2.91c0.91-0.01 1.65 0.39 2.13 0.97 1.45 1.78 0.88 5.52-2.13 5.4-1.06-0.04-1.98-0.65-2.4-1.47-1.12-2.06-0.14-4.59 2-4.87 0.13-0.02 0.27-0.03 0.4-0.03zm24.28 5.22c0.13-0.01 0.26-0.01 0.38 0 3.55 0.25 4.87 6.99 1.25 8.15-4.31 1.39-6.49-7.36-2-8.12 0.13-0.02 0.25-0.03 0.37-0.03zm-22.71 5.75c3.63 0.34 4.31 7.39 0.78 8.31-0.5 0.12-1.16 0.04-1.66-0.16-2.28-0.83-3.33-4.41-2.03-6.65 0.4-0.7 1.15-1.32 2.12-1.47 0.27-0.04 0.54-0.06 0.79-0.03zm-50 6.72c-0.23-0.02-0.45 0-0.69 0.03-1.62 0.2-2.36 1.2-2.66 2.15-1.62 5.33 6.95 5.72 6.35 0.6-0.17-1.5-1.42-2.67-3-2.78z" fill-rule="evenodd" fill="#7a143f"/><path id="ball" d="m190.38 185.75l-10.76 9.37 2 9.16 8.76 3.94 10.03-8.81v-8.44l-10.03-5.22zm24.24 0.16l-10.68 5.06-0.25 8.15 9.34 9.1 8.22-2.47 3.94-11.03-10.57-8.81zm-33.53 22.65l-8.21 9.06 4.46 11.44h12.57l3.75-7.56-3.82-10.28-8.75-2.66zm43.38 0.6l-10.22 1.65-4.09 10.63 5.15 7.75h11.6l4.97-11.22-7.41-8.81zm-28.56 14.03l-5.07 9.06 4.75 9.31 13.85 0.06 3.72-9.74-5.47-8.69h-11.78z" fill-rule="evenodd" fill="#fff"/></svg>