<svg xmlns="http://www.w3.org/2000/svg" xmlns:xlink="http://www.w3.org/1999/xlink" version="1.1" id="Layer_1" x="0px" y="0px" viewBox="0 0 1000 760" enable-background="new 0 0 1000 1000" xml:space="preserve">
<g>
	<g>
		<path stroke="#F2B227" stroke-width="10.1763" stroke-miterlimit="10" d="M816.012,3.003l-0.152,261.914    c-1.397,1.996,0,5.389-0.599,7.78c-0.4,6.388-0.599,11.777-1.397,17.566c-3.19,29.132-9.179,57.27-15.766,84.809l-0.799,1.597    c-27.734,102.175-82.018,194.569-160.637,272.196c-40.515,38.319-85.816,72.446-133.113,99.181    c-2.994,1.593-5.586-1.392-8.378-2.2c-66.654-38.704-132.107-90.393-180.204-152.458c-31.326-39.309-57.669-81.216-78.225-125.923    c-28.736-62.659-46.899-131.303-51.086-200.753c-0.199-3.992,0.201-7.182-0.4-11.18c0,0-1.124-153.685-0.973-252.988    l631.728,0.277V3.003z"/>
	</g>
	<polygon fill="#FFFFFF" points="468.43,53.383 469.227,54.381 490.38,54.381 491.181,53.583 491.076,38.254 509.949,38.254    509.941,53.383 511.333,54.381 531.739,54.464 533.088,53.188 533.148,38.254 548.454,38.216 548.454,68.954 454.06,68.954    454.056,38.502 468.363,38.502  "/>
	<g>
		<path fill="#FFFFFF" d="M730.453,51.391c1.193,3.593,0.395,7.785-1.401,10.77c-7.782,9.782-19.758,12.378-31.328,14.373    c-2.2-0.398-5.186,0-7.386,0.4c-11.373-0.599-24.744-1.997-30.134-13.574c-0.594-4.783,0.599-9.373,3.992-12.767    c15.167-12.776,39.512-15.363,57.673-7.581C725.662,44.808,728.453,47.798,730.453,51.391"/>
		<path fill="#FFFFFF" d="M339.317,55.379c1.392,3.593,1.198,8.184-0.599,11.574c-11.574,13.37-31.931,11.178-47.697,8.184    c-8.984-2.994-20.754-7.781-21.553-19.16c-0.199-3.988,2.593-7.382,5.789-9.976c4.789-3.793,10.978-4.786,16.763-6.189    c16.364-1.796,34.72,1.198,46.298,13.57L339.317,55.379z"/>
		<path d="M722.264,50.592c1.402,1.797,2.994,3.788,2.2,6.388c-7.186,10.376-19.159,12.173-30.932,13.565    c-9.183-0.394-18.761-0.599-25.947-6.778c-2.395-2.395-1.593-5.99,0.599-8.184c10.581-9.183,23.552-11.379,38.319-10.38    C712.49,46.001,717.278,47.797,722.264,50.592"/>
		<path d="M330.533,54.381c1.796,1.403,2.796,3.199,3.394,5.186c0.599,2.595-0.999,4.202-2.395,5.993    c-14.968,8.98-36.717,6.584-50.887-2.199c-2.195-1.796-4.592-3.992-5.189-6.779c2.195-7.985,11.577-9.386,18.559-10.779    C307.186,44.605,320.157,47.398,330.533,54.381"/>
		<path fill="#FFFFFF" d="M545.855,72.143l-5.984,5.19h-77.829c0,0-3.789-3.394-5.387-5.19    C485.192,71.944,517.123,71.944,545.855,72.143"/>
		<path fill="#FFFFFF" d="M778.943,81.725l-0.999,6.379c1.597,1.198,3.989,0.603,5.186,2.598c2.395,5.391,0.4,11.574-1.792,16.364    c-2.994,2.192-3.593,5.59-5.789,8.377c-8.18,13.374-17.363,27.547-30.334,38.518c-0.394-1.996-1.397-3.793-3.389-4.188    c-3.792-0.205-7.385,0.199-10.779,0.794c0.599-6.379,4.79-12.368,3.193-18.755c18.162-16.569,31.332-37.919,41.708-58.871    C778.943,74.738,778.74,78.93,778.943,81.725"/>
		<path fill="#FFFFFF" d="M234.147,91.502c9.378,14.568,18.36,28.932,31.931,40.909c0.198,6.987,2.395,12.368,3.993,18.956    c-4.195-0.8-9.782-1.997-13.774,0.599l-0.594,1.996c-4.991-2.594-8.981-8.176-13.572-12.372    c-7.783-9.981-14.366-21.755-21.75-32.53l-1.998-0.994c-1.395-5.988-3.591-11.578-0.397-17.361    c1.198-1.602,3.391-0.201,4.389-1.997c0.599-4.592-3.993-11.574,1.796-15.167C227.564,79.329,230.753,85.709,234.147,91.502"/>
		<path fill="#FFFFFF" d="M538.794,79.967l0.031,25.907c0,0-6.47,0.038-9.265,0.038l-0.004,28.373l9.412,9.607l0.104,64.947    c0,0-6.583,5.789-9.577,8.383l0.351,1.906l0.048,28.216h-4.193v-23.082c0-7.708-2.565-21.667-24.393-21.667    c-20.835,0-24.032,11.816-23.998,21.68l-0.034,23.07h-3.821v-29.658l-9.615-9.247l0.048-64.547l9.477-9.069l-0.057-28.772    l-9.469,0.017l-0.801-0.997l0.02-25.105H538.794z"/>
		<path d="M777.945,90.704c-9.183,16.76-18.96,33.922-32.526,48.695c-2.994,3.388-6.587,6.388-9.981,8.375    c-0.599,0-0.999-0.594-1.198-1.198c11.574-9.373,21.351-22.149,28.537-34.722c4.991-7.381,8.978-14.767,13.565-22.348    C777.147,89.301,777.746,89.91,777.945,90.704"/>
		<path d="M224.769,91.107c12.372,19.754,22.348,41.104,41.506,56.072c0.202,0.594-0.4,0.999-0.797,1.193h-0.999    c-19.956-14.963-29.735-37.111-41.908-56.675C221.974,90.3,224.17,89.909,224.769,91.107"/>
		<path d="M504.551,102.077c0.195,1.597-0.201,3.195-1.602,4.388c-0.395,4.994-0.195,10.18-0.195,15.167    c4.587,0.603,10.376,0.404,15.366,0.199c1.198-1.397,3.195-2.994,5.186-1.597c1.198,1.198,1.997,2.994,1.397,4.392    c-1.198,1.198-2.789,2.994-4.786,1.796l-2.196-1.997c-4.791,0.404-9.981-0.798-14.566,0.201c-0.804,5.389-0.205,9.981-0.4,15.571    c1.991,0.798,1.991,3.189,1.596,4.782c-0.802,1.796-2.599,1.796-4.192,1.596c-1.198-0.394-1.996-1.596-1.996-2.986    c0.199-1.397,0.999-2.594,2.196-3.392l-0.201-15.571c-4.988-0.4-10.575-0.594-15.568,0c-0.996,1.397-2.993,2.594-4.584,1.796    c-1.198-0.599-1.801-1.997-2.001-3.195c0.201-1.797,1.597-2.794,2.996-3.583c1.397,0.589,2.994,1.188,3.792,2.391h14.968    l0.599-0.605l-0.201-14.763c-1.397-0.999-1.796-2.595-2.196-3.993c0.602-1.198,1.597-2.395,3.19-2.594    C502.554,100.082,504.147,100.879,504.551,102.077"/>
		<path fill="#F2B227" d="M585.97,102.277c-0.404,1.397-0.404,2.795-0.404,4.188c-1.991-0.195-3.788-2.99-5.584-0.793    c-0.994-0.599,0.398-1.198,0.203-2.196C581.383,101.479,583.975,102.277,585.97,102.277"/>
		<path fill="#F2B227" d="M420.936,103.874l-0.201,2.395c-0.997-0.599-2.394-1.6-3.392-0.802c-0.599,0.404-0.999,0.998-1.597,1.202    c-1.398-0.599-0.999-2.994-0.999-4.192C416.943,102.676,419.339,102.077,420.936,103.874"/>
		<path fill="#F2B227" d="M636.457,107.068c2.59,2.192,5.988,2.596,8.982,4.392l5.186,6.578c2.395-0.791,3.988-3.39,6.384-4.388    c0.802,0,1.402-0.798,2.395-0.599c0.799,1.402-0.394,4.196,1.796,4.786c2.799-0.394,5.186-2.986,8.385-2.594    c0,2.2,0.599,4.196,2.595,5.19c1.198,0.199,1.796-1.397,2.791-1.988c2.196,0.795-1.198,2.387,0.802,3.385    c2.192,1.398,5.586,1.398,7.977,0c2.6,2.596-2.99,5.594,1.403,6.987c1.792,0.4,3.589-0.599,4.586,0.799    c0.404,2.794-4.586,4.391-1.796,6.786c3.195-0.403,6.982-1.796,9.378,1.798c-3.788,0.798-8.578,0.997-10.575,5.185l-0.394,2.401    c-3.594,0.394-6.988,6.578-10.38,2.391c-0.999-0.998-0.795-2.391-1.993-3.199c-2,0.999-3.593-0.595-5.195-1.388    c-3.189-1.597,2.001-8.389-3.189-6.388c-4.587,5.584-6.788,12.966-9.378,19.953c-1.796-1.198-3.195-2.795-5.389-3.195    c5.389-5.984,7.785-13.764,8.982-21.551c-0.404-0.199-0.404-0.997-1.003-0.997c-2.19,0.599-2.19,4.391-4.985,3.991    c-1.597-1.796-3.793-5.189-6.388-3.591c-3.593,0.199-1.993-6.788-5.586-3.798c0,2,0.795,3.798,2.592,5.195    c1.6,1.397,3.593,0.993,5.389,1.193c-1.797,1.202-4.388,1.597-6.783,1.796c-0.402-0.395-1.198-0.395-1.602,0    c-0.394,0.404-0.993,1.202-0.195,1.602c3.389,1.796,7.187,2.586,11.174,3.394c0.4-0.201,1.398-0.808,1.198-1.597l-0.798-1.602    c0.999,0.205,1.792-0.395,2.795-0.195c0,6.788-5.59,12.173-9.981,16.959c1.198,2.791,2.595,5.789,1.003,8.783    c-1.602,3.19-4.792,3.792-7.985,3.19c-1.993-0.795-4.193-1.195-5.391-3.389c-0.398-2.596,0-5.59,1.398-7.786    c2-2.192,5.19-1.597,7.186-3.593c-0.404-3.394-3.593-0.195-5.186-0.599c-3.796,1.796-6.187,4.991-5.793,9.581l-0.195,2.397    c-6.587,9.976-11.972,20.351-18.561,30.133c-0.599,1.796-0.404,3.394,0.599,4.788c1.597,2.391,4.192,2.99,6.184,4.387    c-0.795,6.593,0.599,12.572,4.192,17.566c0.999,0.395,1.198-0.798,1.597-1.401c-0.4-3.593-1.798-9.573,1.991-11.974    c2.799,1.796,5.195,5.19,8.584,5.585c3.788-0.594,5.789-4.987,7.785-7.776c4.791-10.181,11.773-18.761,18.157-27.94    c2.994-0.203,3.195-6.981,6.983-3.392c2.6,0,5.793-0.404,6.787-3.199c0.599-4.387,0.203-9.373,2.395-13.165    c1.996-2.995,5.186-6.787,8.779-7.981c1.602,1.593-2.192,1.392-1.198,2.99c1.402,0.999,3.398,0.999,3.793,2.994    c2,13.965-11.176,23.148-12.772,36.323c-2.592-1.403-2.592-4.392-5.186-5.391c-1.797,1.997,0.594,4.189,0.394,6.388    c2.397,8.779-0.394,18.157-5.988,24.54c2.2-4.786,2.001-12.966,0.599-18.751l-1.189-1.198c-2.599,1.593,0.195,4.782-0.404,7.577    c0.404,8.584-1.991,16.369-8.383,21.351c0.599-2.192,0.203-4.591,0.203-7.378c-0.398-0.4-0.997-1.198-1.596-0.599    c-1.398,1.597-0.599,4.192-0.799,6.384c-0.599,4.592-4.391,8.779-8.18,11.574c-0.802-1.796,0.599-5.59-2-6.588    c-0.798,0.201-1.593,0.604-1.593,1.603c1.993,6.382-0.199,13.17-5.389,17.96c-2.395,2.596-5.59,3.389-8.779,4.792    c2.395-4.198,5.39-9.183,1.596-13.575c-0.203-0.599-0.802-0.798-1.401-0.599c-1.992,1.398,0.803,3.195,0.599,4.991    c-0.396,5.189-3.788,10.575-8.978,12.169l-2.795,0.402c1.401-4.188,2.599-8.779,2.599-13.37c-0.402-0.798-1.198-0.997-1.796-0.603    c-1.6,7.386-2.2,17.367-10.979,19.559c3.389-3.593,3.988-8.974,2.397-13.565c-0.6-2.196-3.394-3.394-2.994-5.79    c0-2.195,1.6-3.991,2.798-5.788c0.196-0.799-0.404-1.398-1.001-1.993c-1.199,0.196-2.397,1.593-2.795,2.791    c-0.994,2.596-2.791,6.388-0.594,8.984l2.391,3.189c-3.195,0.798-6.982-0.603-9.577-2.99c-1.597-1.397-0.6-3.195-2.196-4.591    c0-5.99,2.196-11.777,6.987-15.171c0-0.595-0.205-1.198-0.804-1.797c-6.183,3.202-8.576,9.586-9.173,16.168    c-4.193-4.192-1.198-9.78-0.404-14.572c1.397-3.788,3.992-7.376,8.184-7.975c0.599-0.603,1.992-1.597,0.794-2.399    c-1.991-0.201-4.387,0.599-6.183,1.796c-2.391,1.602-3.589,4.391-4.788,6.982c-3.193-3.389-2.594-8.779-1.198-12.767    c1.593-7.581,9.777-10.58,13.571-16.564c0.199-0.594-0.599-0.999-0.999-1.402h-0.798c-3.793,3.003-7.187,7.186-11.379,8.588    c8.184-10.776,8.184-27.943,22.553-33.732c0.599-0.395,1.593-0.999,0.993-1.788c-1.991-0.999-4.387,0.789-6.382,1.597    c1.6-5.391,6.982-10.385,11.577-13.774c0.197-0.4,0.396-1.392-0.402-1.796c-2.996,0-4.792-0.999-6.982-2.596    c4.192-5.385,11.174-8.18,14.367-13.965c0.4-3.398-5.783-2.196-3.394-5.589c1.597-3.195,2.397-8.18,6.987-8.385    c1.798-0.199,3.39,1.597,4.788-0.199c0.398-3.988-1.792-8.779-0.994-13.167c6.587,4.388,3.389,11.57,3.988,18.357    c-2.395,4.592-4.192,9.583-4.786,14.972c0.394,1.792,1.996,3.589,3.589,3.983c1.198-0.199,2.395,1.403,3.189-0.199    c0.804-0.993-0.794-1.797-1.393-2.192c-1.198,0-2.395-0.993-2.791-2.191c0.599-5.391,2.994-9.981,4.79-14.773    c-1.001-5.59,2.192-10.381-0.607-14.962c-2.19-2.596-5.584-5.59-4.183-8.984C635.059,104.474,635.26,106.27,636.457,107.068"/>
		<path fill="#F2B227" d="M597.345,110.058c-2.396-1.392-7.586,0.603-7.586-2.99l0.798-2.594    C593.551,104.872,596.147,107.463,597.345,110.058"/>
		<path fill="#F2B227" d="M367.056,108.066c-2.395,4.392-7.785,8.379-4.991,14.365c-0.398,2.594,0.4,5.389,0,7.585    c2.596,4.188,5.789,9.581,4.193,14.763c-0.799,1.403-4.792,1.007-2.996,3.398c1.398,0.999,2.596-0.603,3.993-0.803    c4.591-4.586,0.599-10.172-0.599-14.962c-3.792-2.596-0.997-7.985-2.395-11.174c-1.597-4.397,1.796-7.191,4.192-9.976    c0.395,3.591-1.003,8.974-1.003,12.571c1.602,1.796,3.994-0.203,5.99,0.395c4.99,0.997,4.391,6.587,6.984,9.382    c-0.996,1.592-2.994,1.796-4.39,3.193c2.196,7.179,10.975,8.984,14.369,15.163c-1.796,1.402-3.992,2.795-6.787,2.397    c-0.198,0.597-0.796,1.596-0.198,2.191c5.189,3.398,9.177,7.989,11.776,13.37c-1.995-0.79-4.791-2.586-6.787-1.393    c0.6,2.795,3.594,2.2,5.386,3.792c11.176,7.782,10.779,21.755,18.959,31.332c-5.587,0.395-7.381-6.782-12.571-8.379    c-0.599,0-0.994,0.798-1.198,1.193c4.192,5.589,10.777,9.378,13.37,15.766c1.198,4.391,2.395,9.782-0.397,13.565    c-2.397-3.984-6.187-8.375-11.378-8.978c-0.798,0.403-1.596,1.401-0.798,1.996c6.785,1.402,10.177,8.58,11.375,14.572    c0,3.589,0.398,7.183-2.397,9.573c-0.996-0.993-0.196-3.189-0.596-4.786c-0.4-4.99-3.791-9.782-8.183-11.968    c-0.599-0.205-0.997,0.19-1.198,0.793c-0.199,2.391,3.195,2.391,3.993,4.792c2.795,3.388,3.391,7.381,2.994,11.968    c-1.397,1.401-0.997,3.199-2.395,4.591c-2.594,1.393-5.589,2.795-8.779,2.59c0.599-1.788,2.391-3.388,2.99-5.381    c0.599-3.993-0.794-7.387-3.792-9.782c-3.789,1.398,1.596,3.793,1.401,6.189c1.193,4.991-5.19,6.788-3.796,11.974    c0,3.388,1.198,6.183,2.998,8.778c-8.383-1.592-8.984-11.777-10.379-18.959c-0.401-0.594-1.198-0.799-1.795-0.195l-0.6,0.599    c0.6,4.79,1.4,8.582,2.994,12.966c-2.994,0-5.788-0.999-7.982-3.189c-1.596-3-3.792-5.391-4.192-8.78    c-0.4-1.995,3.195-3.992,0.4-5.389c-2.795,0.599-1.796,4.192-2.795,5.984c-0.199,3.199,2.395,4.995,2.994,7.79    c-3.792-0.209-7.182-3.593-9.977-6.388c-3.992-4.591-5.389-10.78-4.392-16.969c-0.397-0.394-0.997-0.798-1.595-0.394    c-0.398,1.997-1.596,3.593-0.999,5.984c-2.792-0.394-3.792-3.189-6.184-4.79c-2-3.788-2.796-7.382-2.596-12.173    c-0.599-0.395-1.198-0.994-1.796-0.395c-1.996,2.596,0.999,5.186-0.201,8.186c-2.994-2.401-4.387-5.791-6.583-8.988    c-1.796-5.984-3.193-11.773-0.997-17.761c0.195-0.998-0.2-2.188-1.198-2.391c-1.597,0.997-1.798,3.788-1.798,5.589    c-0.599,4.587-0.798,9.777,1.398,14.168c-4.79-4.795-7.984-13.174-6.987-20.755c-0.799-3.793,2.795-6.783,0.202-10.181    c-2.597,0.803-1.001,3.997-3.795,5.194l-0.598,0.395c-1.395-13.366-16.361-22.953-12.174-37.312    c0.599-1.801,3.792-0.603,2.793-2.998c-0.597-0.4-1.198-0.795-1.198-1.593c0.799-0.798,1.796,0.195,2.596,0.394    c4.192,3.594,8.181,7.985,8.382,13.571c0.4,3.198-0.598,7.182,2.794,9.183c2.593,1.996,7.584-2.001,8.578,1.592    c3.991,2.395,5.789,7.187,8.783,10.181c7.185,8.584,10.577,18.96,17.962,27.339c4.187,1.996,7.381-2.397,10.572-4.791    c1.998-0.196,1.998,2.394,2.795,3.792c0.599,2.994-0.797,5.586-0.797,8.379c0.201,0.604,0.999,0.999,1.797,0.804    c3.992-4.791,4.59-11.379,4.391-17.363c2.394-2.399,8.181-3.992,6.584-8.18l-0.199-1.597    c-6.385-10.176-12.372-19.957-18.561-30.134c0.199-2.994-0.199-7.385-2.99-9.776c-2.196-1.597-5.789-3.199-8.184-1.402    c0.4,2.6,3.593,1.402,5.186,2.397c2.2,1.996,3.796,4.192,3.796,7.186c0,2.19-1.996,4.187-3.796,4.79    c-2.391,1.193-5.783,1.797-7.98,0c-1.397-2.196-3.593-4.392-2.195-7.386c0.6-1.401,1.395-2.594,0.997-4.387    c-5.187-3.597-8.381-9.786-9.978-15.77c0.798-0.594,1.797-0.196,3.193-0.395c-0.798,0.599-0.599,1.597-0.798,2.596l1.198,0.798    c3.593-1.407,8.379-1.003,11.375-3.992c0-0.599-0.398-1.198-0.999-1.397c-2.596,0.398-5.187-0.599-7.981-0.999    c0.996-1.202,3.79,0,5.385-1.597c1.398-1.397,2.596-3.193,1.798-5.385c-0.4-0.408-0.6-0.999-1.395-0.802    c-1.198,1.596-1.001,3.987-3.195,4.59c-1.597-0.603-2.993,0-4.391,0.6c-1.596,0.997-1.395,4.188-3.792,2.994    c-1.795-0.999-2.395-4.792-4.591-3.394l-0.398,0.4c2.595,7.576,3.993,15.561,9.979,21.35c-0.597,0.999-1.994,0.599-2.794,1.198    l-2.595,1.997c-1.593-2.196-2.196-5.585-3.195-8.38c-2.391-3.997-3.792-8.588-7.581-11.773c-0.795-0.4-1.796-0.203-1.993,0.599    c0.196,2.196,2.193,3.992,0.196,5.98c-1.597,1.796-3.791,1.796-5.987,2.196c-0.597,1.597-1.594,3.593-3.392,4.192    c-3.592-0.993-8.583-2.595-9.58-6.579c-1.993-3.593-6.184-3.992-9.976-4.391c0.597-1.398,2.394-1.997,3.792-2.795    c2.596-0.404,4.987,1.996,6.587-0.599c-0.403-2.397-3.198-3.793-2.595-6.189c1.996-0.199,4.587,0.599,5.785-1.193    c0.398-2-1.797-4.392,0.203-6.189c1.792,1.394,4.584,1.193,6.78,0.994c1.998-0.599,1.596-2.994,1.198-4.192    c1.596,0,2.397,2.594,4.193,1.796c1.994-0.999,1.195-3.585,1.596-4.987c2.993-0.603,5.388,1.597,7.982,2.6    c1.195-0.205,2.196-1.606,2.393-2.6c0-0.794-0.196-1.801,0.599-2.196c3.792-0.203,5.389,5.387,8.982,4.388l4.786-6.379    c3.993-1.602,8.381-2.795,10.979-6.991C367.854,105.466,367.45,106.868,367.056,108.066"/>
		<path fill="#F2B227" d="M410.757,108.865l-0.401,0.395l-7.382,1.202C403.77,107.463,412.352,100.481,410.757,108.865"/>
		<path fill="#FFFFFF" d="M570.456,108.344l-0.043,12.892c0,0,10.969-0.199,15.556,0.196c0.794,1.198,2.192,0.997,3.593,0.997    c1.796,2.996,2.405,10.676,2.405,10.676l-59.683,0.095v-24.536h9.113l-0.048,11.651l1.117,1.117h14.966l0.795-0.8v-12.372    L570.456,108.344z"/>
		<path fill="#FFFFFF" d="M443.689,108.326l-0.02,12.42l0.814,0.685h15.367l0.995-1.597v-11c0,0,6.318,0.178,9.709-0.022    l-0.009,24.475l-62.183-0.078l-0.2-0.599c-0.196-3.593,1.199-6.788,2.794-9.777c1.397-0.404,4.394-1.401,4.394-1.401h15.364    l0.997-1.597l-0.051-11.491L443.689,108.326z"/>
		<path fill="#F2B227" d="M414.548,111.659l-1.994-0.4l1.196-2.998C414.948,108.465,414.747,110.661,414.548,111.659"/>
		<path fill="#FFFFFF" d="M783.53,123.229c0,2.196-1.392,3.992-1.796,5.988l0.404,1.193l-1.198,0.404    c-7.786,15.163-22.153,28.533-36.522,37.915c0.599,2.799,0.798,6.783-1.393,8.979c-2.994,3.796-7.187,4.99-10.78,7.385    c0,0.799,0.599,1.597,1.198,1.597c5.789-1.198,12.372-5.988,13.969-11.773l0.199-4.995c14.17-8.974,26.945-22.348,35.125-36.912    l0.599,0.398c0.794,9.379-2.395,17.758-6.991,24.944c2.599,2.791,3.593,7.382,2.2,10.971c-1.199,3.997-3.195,7.59-5.186,11.178    c3.788,6.189-0.205,13.371-3.997,18.561c-3.789,3.588-7.183,7.183-11.375,9.976c1.198,2.196,1.597,4.392,0.799,6.983    c-2.791,5.389-8.381,10.376-13.171,14.572c-0.195,2.592,3.593,2.795,3.988,5.186c-1.796,5.19-5.586,9.382-10.772,11.379    c0.196,1.996,1.993,3.593,2.592,5.589c-0.994,2.99-4.587,4.583-7.183,5.182c-0.997,0.4-0.997,1.403-0.398,1.997l2.195,0.603    c-1.596,2.595-3.392,6.183-6.587,7.182c-1.992,0.395-3.993,0.599-5.584,1.796c0,2.192,2.19,3.593,3.987,4.192    c-1.198,3.59-5.589,5.581-9.378,5.99c-0.993-0.209-2.395-0.999-2.994,0.398c0.599,1.593,2.001,2.791,3.199,3.984    c-3.199,3.593-9.183,2.994-13.575,2.596c-1.198,0.603-0.599,1.796,0.4,2.399c0.999,0.999,2.596,0.999,3.593,2.192    c-2.195,3.193-5.19,5.788-9.577,4.59c-2.001,0-4.192-1.996-5.988-0.599c0.195,2.391,1.596,4.388,2.195,6.588    c-2.599,3.189-7.785,1.596-11.174,0.798c-2,0.999,0.396,2.192,0.599,2.985l0.994,1.007c-2.395,1.991-6.583,2.785-9.378,1.393    c-1.997-0.199-3.389-3.388-5.389-1.996c-0.201,1.796,0,4.995-2.791,4.188c-2.994,0.404-5.59-1.393-7.581-3.585    c-1.398-1.198-0.804-4.991-3.398-3.792c-0.795,1.192-0.195,2.191-0.599,3.392c-3.19,0.594-5.785-2.2-7.581-4.591    c-2.395-5.988-3.389-12.177-3.593-19.154c-0.799-1.198,0-2.795,0-4.197c1.596,0.603,3.991,1.597,5.39-0.199    c0.199-2.391-2.791-1.003-3.989-1.991h-1.796c-3.793-5.192-9.782-12.173-5.389-19.159c4.192-6.983,12.173-7.382,19.953-6.983    c6.189,1.596,13.57,0,17.763-5.194c0.398-1.993,2.994-2.596,3.592-4.587c6.584-6.987,8.979-15.966,7.382-25.943    c-0.394-11.578-3.193-25.342,0.998-36.123c1.996-4.391,5.988-7.78,9.578-10.77c9.78-8.783,18.959-18.965,27.139-28.338    c2.2-2.196,3.997-5.389,6.189-7.586c-1.796,15.567-8.381,29.731-20.752,40.909c-6.587,6.584-13.375,12.772-20.158,18.556    c-0.394,0.804,0.6,1.202,0.999,1.602c2.395,0,3.389-3.993,5.984-2.196c2.6,2.196,3.199,5.59,2.196,8.779    c-0.599,2.59-2.59,4.792-3.788,6.982c0.993,1.996,3.389,2.395,3.788,4.792c0.799,3.792,0,7.584-2.395,10.775    c0.799,3.593,1.198,8.58-1.796,11.373c-1.991,1.597-4.387,2.596-5.98,4.392c0.394,0.4,0.794,1.397,1.593,1.198    c0.794,0,1.596-0.798,2.195-0.4c-0.997,4.592-2.59,9.583-7.186,11.974c-1.991,1.202-4.192-1.597-5.785,0.603    c0.8,1.796,3.193,2.391,1.198,4.187c-2.994,3.593-6.983,5.984-12.177,4.786c-0.994,0-2.395-0.997-3.39-0.394    c-0.802,1.796-0.203,4.591-2.794,5.186c-3.594,0.798-6.385-3.195-9.379-0.8c-1.397,1.796-3.792,2.196-5.789,1.403    c-0.997-0.404-2.195-1.801-3.392-0.999c-0.994,0.794,0.203,1.593,0.802,2.192c1.991,1.397,5.186,2.395,7.78,1.202    c1.597-1.003,3.394-2.6,5.391-0.804c2.791,0.999,5.584,0.395,7.776-1.397c1.003-0.798,1.402-1.996,1.602-3.193    c4.791,0.798,10.176,0,13.769-3.195l3.789-5.785c7.186-2.391,9.977-10.181,10.774-17.162c6.388-4.188,2.001-13.167,5.789-18.556    c0.4-4.193,0.599-8.783-2.59-11.773c1.593-3.398,3.988-6.588,3.39-10.585c14.767-10.571,31.929-19.754,39.711-37.111    c17.363-12.168,28.137-32.131,38.918-48.894C785.131,112.657,784.328,119.037,783.53,123.229"/>
		<path fill="#FFFFFF" d="M257.698,159.751c7.382,16.364,25.539,26.536,39.312,36.514c0.198,3.796,0.997,7.389,3.389,10.184    c-3.192,2.795-3.988,7.981-2.791,11.974c3.192,2.99,1.596,7.186,1.994,10.58c-0.798,4.981,6.186,6.384,4.789,11.569    c1.397,5.589,4.392,11.574,9.976,13.57c2.596,3.788,6.587,8.779,11.776,8.779l5.388-0.199c0.6,3.193,4.391,4.795,7.385,4.99    c1.792-0.4,3.789-0.4,5.186-1.397c2.596,1.397,5.789,3.394,8.779,1.597c1.001-0.6,2.397-0.6,2.795-1.997    c-0.797-4.192-3.391,0.999-5.584,0.201c-2.996,0-4.392-3.789-7.187-2.397c-2.196,0.799-4.786,2.397-6.983,0.799    c-1.397-1.392-0.999-3.389-2.395-4.79c-4.391,0.997-8.779,1.198-12.572-1.597c-0.997-1.597-3.193-2.391-3.392-4.583    c0.599-0.404,1.397-1.198,1.796-1.797c0.199-0.603-0.599-0.998-0.999-1.198c-1.796,0.999-3.394,0.199-5.186,0    c-3.593-2.596-5.988-6.792-6.388-10.979l0.4-0.798c0.798,0,1.397,0.997,2.192,0.398l1.001-1.193    c-3.193-2.399-7.783-4.795-8.184-9.386c-0.795-2.196,0.599-4.388,0.202-6.982c-1.798-2.59-3.193-5.385-2.795-8.779    c0-3.589,4.789-3.792,3.993-7.182c-2.996-3.199-5.19-7.387-3.593-11.574c0.798-1.198,1.996-2.994,3.593-3.794    c1.994,0,3.591,4.991,5.587,1.593c-14.77-14.168-34.326-27.735-38.716-48.096c-1.394-3.784-1.394-7.78-2.792-11.568l0.397-0.4    c12.176,15.366,26.341,30.933,41.307,43.499c5.394,8.385,3.796,17.168,3.991,27.14c-1.198,2.2,0,5.389-0.599,8.184    c0.404,4.587-1.792,9.183-0.195,13.774c-0.404,10.77,8.779,18.552,16.36,25.143c8.383,3.993,19.159-2,27.539,3.195    c4.991,2.191,6.189,7.581,5.99,12.372c-1.795,4.187-3.593,8.18-6.788,11.773c-1.794,0-4.389-0.4-5.785,0.999    c-0.199,1.193,1.198,1.587,1.994,1.796l3.593-0.799c0.796,4.583-0.599,9.773-0.996,14.36c-0.801,5.394-2.395,11.178-8.184,13.574    c-2.595,0.804-1.198-4.591-4.188-3.389c-0.603,3.594-3.593,6.184-6.788,7.183c-1.994-0.203-3.792,0.404-5.587-0.603    c-0.4-1.394,0.598-3.19-1.198-3.988c-3.195,2.2-7.185,4.791-11.177,2.594l-1.996-1.192c0.798-1.198,2.395-1.997,1.996-3.398    l-0.599-0.799c-3.589,0.203-8.18,3-10.975-0.195c0-2.395,3.59-5.394,0.999-7.786c-3.394,1.593-8.981,2.592-11.972-0.199    l-2.596-2.994c1.198-1.398,3.791-1.597,4.589-3.593c-0.596-1.193-1.594-1.597-2.592-0.8c-4.193,0.404-8.381,0.201-11.574-2.594    c0.798-0.999,2.789-2.391,2.99-3.988c-0.994-2.192-2.395,0.205-3.789-0.603c-3.392-0.595-6.987-2.586-8.584-5.781    c1.199-0.798,3.793-2.395,3.594-4.192c-1.596-1.198-3.594-1.397-5.189-1.996c-3.392-0.994-5.187-4.792-6.385-7.382    c0.996,0,1.794,0,2.395-1.003c-0.202-2.196-2.994-1.592-4.392-2.391c-1.397-2.2-5.385-3.997-2.195-6.792    c0.798-0.794,1.397-1.788,1.198-2.986c-4.791-2.199-9.578-6.187-10.575-11.578c-0.201-2.988,5.385-2.794,2.395-5.785    c-4.591-5.794-13.77-9.979-12.572-18.559c1.198-0.999,0.996-2.791-0.4-3.593c-8.777-5.99-16.763-15.363-14.568-25.943l0.4-1.198    c-2.994-6.588-8.981-14.964-2.595-22.149c0.599-1.602-1.597-1.996-1.796-3.394c-3.79-5.785-5.587-12.971-5.388-19.953l0.6-1.796    c8.58,13.764,21.152,27.538,35.121,36.317c0.599,3.189,0.398,6.388,2.395,8.98c2.594,4.59,7.78,6.587,12.372,8.183l0.798-1.397    c-4.192-3.195-11.174-5.19-12.77-11.379c2.195-7.98-7.386-8.775-10.777-13.764c-10.974-7.581-18.36-19.155-26.344-29.536    c-1.595-5.589-2.794-13.773-1.993-20.152l1.198-1.796C228.558,127.621,240.335,146.776,257.698,159.751"/>
		<path fill="#F2B227" d="M410.159,112.258c-0.798,0.999-2.795,0.594-4.19,0.4C407.164,112.058,408.961,111.854,410.159,112.258"/>
		<path fill="#F2B227" d="M584.369,117.249c-1.593,0.59-4.183-0.999-5.381,1.589c-0.404-1.198-1.003-2.99,0.599-3.984l4.183-1.597    L584.369,117.249z"/>
		<path fill="#F2B227" d="M422.329,116.841c0.4,0.798,0.203,1.996-0.595,2.399c-0.603-1.401-1.996-1.401-2.795-1.991    c-0.798,0.39-1.596,0.59-2.595,0.59l0.798-4.189C418.939,114.245,421.535,114.454,422.329,116.841"/>
		<path fill="#F2B227" d="M411.955,114.649c-0.201,1.602-0.401,3.593,0.198,5.186c-1.594,0.203-4.188-1.996-5.587-0.191    c-0.198,1.189,1.198,1.593,1.796,2.391c-1.796,3.593-2.196,7.78-2.794,11.574c1.199,6.587,2.993,13.166,4.788,19.354    c-0.597,0.404-1.395,0.404-1.795,1.198c1.198,5.988,3.394,11.178,5.59,16.768c-3.992-0.808-1.799,4.782-3.196,6.982    c1,3.189,0.401,6.983,0.599,10.372l-1.795,4.594c-3.193-6.388-5.786-13.972-10.777-20.161c-1.596-3.793,0.4-8.375,0.4-12.767    c0.199-9.382-2.196-17.957-1.394-26.741c0.396-5.589,1.593-10.58,2.192-15.96C403.374,114.852,408.362,116.052,411.955,114.649"/>
		<path fill="#F2B227" d="M599.935,116.446c2.994,12.772,3.997,27.145,1.198,40.909c0.203,3.594,0,7.581,1.602,10.581    c1.198,5.779-4.791,8.18-6.189,12.966c-2.195,3.593-2.994,8.584-5.186,11.578c-4.596-6.788,0.395-14.773-2.994-21.751    c-0.402-0.403-1.003-0.607-1.796-0.403c1.796-5.585,5.186-10.575,5.39-16.565c0.196-0.999-0.802-0.798-1.401-0.999    c2.196-9.378,6.587-20.751,1.796-30.932c0.599-0.595,1.597-1.996,0.802-2.994c-1.6-0.999-2.799,1.202-4.395,0.808v-4.995    C592.155,115.244,596.546,114.853,599.935,116.446"/>
		<path fill="#FFFFFF" d="M591.603,135.532c0,0-0.647,1.87-0.243,3.263l-2.599,1.997h-48.691l-6.041-5.308L591.603,135.532z"/>
		<path fill="#FFFFFF" d="M462.244,140.995l-48.374,0.078c-2.001-1.198-5.31-5.074-5.31-5.074h59.071L462.244,140.995z"/>
		<path fill="#F2B227" d="M700.913,139.793c0.2,4.795-4.388,8.578-8.375,10.376c-1.402-0.6-3.199,1.602-3.593-0.994    c-0.804-3.198,5.381-0.804,3.788-4.397c-0.999-0.997-2.196,0.2-3.394,0c1.597-3.585,5.99-3.987,9.777-3.784    C699.914,140.591,699.715,138.998,700.913,139.793"/>
		<path fill="#F2B227" d="M310.181,143.59l1.198,1.593c-1.198,0.603-3.193-0.994-3.793,0.999c0,1.592,1.597,0.997,2.397,1.995    c0.798,0,1.592-0.2,1.792,0.595c-0.2,1.003,0.603,2.594-0.795,2.594c-4.591-0.398-8.184-3.991-10.579-7.776    c0.401-1.003-0.999-2.001,0-2.799C303.393,142.788,307.386,140.995,310.181,143.59"/>
		<path fill="#F2B227" d="M669.585,147.179c-1.796,0.999-4.192-1.202-5.988,0.595c1.593,3.997,5.785,6.587,8.583,9.581    c0.396-0.199,1.593-0.802,1.198-1.796c-2.594-1.397-1.001-4.99-1.401-7.381c1.401-0.404,1.597,1.797,2.994,2.595l2.395,1.392    c-3.593,4.388-5.389,9.384-4.586,15.567c-0.205,1.193-0.6,2.795-2.2,2.998c-1.796,0.201-3.789,0-4.388-2    c-0.199-2.391,0.599-4.991-1.002-6.588c-2.987,0.799-0.795,5.391-1.789,7.782c0,2.004-2.394,3.398-3.593,4.591    c-1.796,0.403-4.596,0.798-6.388-0.4c-2.795-1.991-4.387-5.19-3.593-8.176c1.198-4.192,6.987-2.795,7.78-6.987    c2.994-2.994,2.799-7.785,4.991-11.178l2.395-4.782C665.788,144.979,667.789,145.786,669.585,147.179"/>
		<path fill="#FFFFFF" d="M587.828,143.164l-0.061,17.784c0,0-5.186,9.981-5.186,15.561c1.189,1.199,2.387,0,3.586-0.394    c0.203-0.199,0.203-0.999,0.802-0.804c0.395,5.391-0.802,11.579,0.994,16.77c-0.795,3.193,1.6,8.179-1.993,9.573    c-1.397,0.599-2.994,0.798-3.792,2c0,1.393,1.592,2.192,2.594,2.391c1.198,0.2,3.593-0.394,2.994,1.398    c0,0-0.047,0.599-0.226,0.919l-45.643-0.017l-0.118-65.233L587.828,143.164z"/>
		<path fill="#FFFFFF" d="M461.016,143.651v65.059c0,0-31.9-0.07-45.87-0.07c-1.596-3.988,4.193-1.198,3.993-4.591    c-0.999-1.193-4.259-1.714-4.259-1.714l0.067-25.621c0,0,3.394,1.393,3.992-0.798c-0.799-3.199-4.059-9.56-4.059-9.56    l0.016-22.714L461.016,143.651z"/>
		<path fill="#F2B227" d="M341.908,158.353c1.597,0.798,1.198,1.796,1.995,2.99c2.795,2.001,8.184,2.395,7.384,6.991    c-0.196,3.195-2.792,5.585-5.387,6.978c-2.592,0.4-4.987,0-6.788-1.796c-2.395-2.99-0.994-7.78-3.389-10.77    c-0.798-0.4-1.198,0.599-1.596,0.993c0.798,1.801,0.398,4.197,0.398,6.184c-0.999,1.797-3.394,1.007-4.788,1.198    c-3.195-2.786-1.198-7.382-2.593-10.775c-0.404-2.796-2.199-5.186-3.594-7.382c1.795-0.999,3.991-1.997,4.59-4.392h0.599    c-0.599,2.395,1.395,5.789-1.198,7.186c-0.201,0.4-0.397,1.199,0.199,1.597c2.792,0.4,5.189-2.994,6.785-5.19    c0.799-1.198,3.389-2.391,2.192-3.987c-1.593-1.997-2.99,0.798-4.987-0.404c1.6-1.198,3.195-2.592,4.193-4.183    C338.717,148.178,340.515,153.163,341.908,158.353"/>
		<path fill="#FFFFFF" d="M742.425,153.367c-4.391,18.755-24.944,27.733-38.719,38.913c-1.792-0.798-1.792-3.793-4.391-4.392v-0.603    c11.378-9.373,24.146-21.551,30.537-34.521c1.993,0.798,4.189,0,5.785-0.798C737.83,152.963,740.824,150.772,742.425,153.367"/>
		<path fill="#FFFFFF" d="M271.066,153.562c5.985,13.574,19.357,24.545,30.333,34.525l-3.99,5.19    c-6.189-2.994-11.574-8.384-17.562-12.376l-11.577-9.972c-4.589-4.791-8.581-10.78-9.775-16.968    C262.485,150.967,267.074,154.76,271.066,153.562"/>
		<path fill="#F2B227" d="M654.418,159.152l-4.591,2.192l-0.398-4.987C651.225,156.756,653.022,157.55,654.418,159.152"/>
		<path fill="#F2B227" d="M350.891,161.547l-4.192-1.796c0.398-1.997,3.193-1.797,4.589-2.994    C351.886,158.553,350.891,159.95,350.891,161.547"/>
		<path d="M567.41,159.95c0.4,1.393-0.798,2.395-1.398,2.99v9.382c2.994,1.193,7.183,0,10.581,0.395    c0.993-0.789,2.59-1.987,3.788-0.789c1.398,1.193,1.003,2.988,0.404,4.187c-1.003,0.993-2.799,0.993-3.593,0    c-0.404-1.792-2.395-0.998-3.398-1.199c-2.592,0.795-9.378-2.399-7.981,3.389c0.799,2.795-1.193,6.588,1.597,8.584    c0.199,1.597,0,3.19-1.597,3.593c-1.397,0.201-2.795-0.402-3.195-1.796c-0.798-1.401,0.6-2.399,1.199-3.593    c-0.201-3.394,0.203-6.987-0.395-9.976l-9.378-0.201c-1.003,1.394-3.199,2.791-4.791,1.199c-0.599-1.199-1.398-2.795,0-3.992    c1.592-1.796,2.994,0.394,4.587,0.794c3.392-0.989,10.375,2.596,9.976-2.994c-0.201-3.189,0.802-6.983-1.398-9.174    c-0.599-1.198,0.599-1.796,1.003-2.794C565.015,156.552,567.01,158.353,567.41,159.95"/>
		<path d="M440.49,160.15c-0.4,1.193-0.198,2.196-1.395,2.791c-0.798,3.589,0.201,6.192-0.2,9.577    c3.593,0.999,6.985,0.604,10.774,0.4c1.397-1.198,2.998-1.388,4.592,0c0.599,1.597-0.199,3.394-1.398,3.997    c-1.393,0.195-2.99-0.404-3.392-1.796l-10.174,0.195c-0.599,3.593-0.401,6.987-0.201,10.38c1.395,0.4,1.198,1.996,1.198,2.795    c-0.202,1.198-0.801,1.796-1.596,2.391c-1.798,0-3.192-1.393-3.392-2.99c2.593-3.195,1.198-9.179,1.395-12.377    c-3.193-1.189-6.586,0.2-9.979-0.199c-0.599,1.401-2.391,2.196-3.991,1.401c-0.994-0.402-0.795-1.796-1.394-2.794    c0.2-0.798,1.198-1.993,2.192-1.993c0.999,0.195,2.395,0.195,2.998,1.195l9.776-0.205c0.398-3.992,1.596-8.576-0.997-11.969    c0.2-1.397,1.198-2.395,2.195-3.398C438.894,157.954,439.894,158.753,440.49,160.15"/>
		<path d="M771.158,164.741c-6.783,9.179-16.959,15.96-26.741,21.95c0.599,1.198,3.193,1.796,2.192,3.593    c-3.389,5.98-9.574,10.372-14.963,14.369c2.594,1.796,5.586,3.388,7.785,5.783v1.198c-1.995,1.597-4.192,2.795-5.988,4.388    c2.196,1.202,5.789-0.195,8.779,0.603c2.395-0.798,4.987-0.798,7.382-1.996c2.395-1.198,4.596-3.394,7.186-4.392    c0.798,0.599,0.798,1.796,0,2.596c-2.395,2.594-6.183,3.189-8.982,4.99c-6.185,1.398-13.366,0.599-19.955,0.798    c-0.199-0.398-0.798-0.599-0.598-1.397c2.794-2.395,6.187-3.593,8.982-6.187c-1.597-1.792-4.591-3.195-5.59-5.586    c-6.782,4.591-14.363,7.382-21.55,11.369c-0.997,0.2-1.797-0.394-2.195-0.993l0.199-0.799    c12.971-6.587,27.739-12.171,36.717-25.148l-3.19-2.99c3.789-3.789,9.379-5.789,13.167-9.183    c4.991-4.99,11.777-7.975,15.97-14.363C770.763,163.144,771.357,163.937,771.158,164.741"/>
		<path d="M239.537,172.917c6.585,5.389,13.77,9.382,20.556,14.369c-0.203,2-2.395,2-3.394,3.397    c9.777,12.972,24.146,18.156,37.316,25.543c0.201,0.594-0.599,0.999-0.799,1.198c-8.382-2.395-15.565-7.586-23.348-11.578    c0.4,2.994-3.791,3.793-5.386,5.789c2.991,2.596,6.186,3.993,8.981,6.189c0.599,0.599,0,1.397-0.599,1.597    c-10.379,0-22.552,1.193-29.338-6.991c-0.198-0.594,0.2-1.193,0.801-1.193c1.796-0.4,2.195,1.596,3.593,2.195    c5.587,3.59,12.969,4.591,19.553,3.389c-1.993-2.191-4.788-2.791-6.385-4.985c1.796-2.996,5.389-4.392,7.985-6.384    c-5.59-4.591-12.373-8.984-15.367-15.372c0.201-1.393,1.997-1.393,2.795-2.191c-9.581-6.988-19.758-12.577-27.14-22.748    c0.196-0.599,1.199-1.203,1.796-0.599L239.537,172.917z"/>
		<path fill="#F2B227" d="M632.065,167.935c-5.389,7.981-8.978,16.559-15.366,24.146c-0.799,1.397-0.396,2.59-0.2,4.183    c0.404,1.596,2.395,2.798,3.793,3.003l-0.201,0.794c-2.395-0.794-4.791-2.391-5.783-4.591c1.592-5.59,6.782-9.577,8.978-14.767    c2.795-4.991,5.589-10.177,8.978-14.364L632.065,167.935z"/>
		<path fill="#F2B227" d="M385.812,193.278c0.199,1.392,1.198,2.986-0.198,4.187c-1.597,0.603-2.997,3.189-4.791,2.596    c1.397-1.203,3.593-1.993,4.19-4.189c-0.799-5.589-5.586-8.982-7.782-13.773c-2.994-5.186-6.583-10.173-8.583-15.571    C374.437,174.917,379.428,184.495,385.812,193.278"/>
		<path fill="#E32B45" d="M648.829,177.708c-4.587,6.987-9.577,13.973-16.36,19.358c-3.593,4.188-9.183,7.586-10.78,12.572    c-1.792-7.187,3.195-13.171,6.783-18.956c2.994-4.397,6.788-8.583,6.788-14.173c0.599-2.795,2-6.184,4.79-7.186    c0.794,0.407,1.797,0.203,2.791,0.203c-5.385,3.792-1.997,10.575-5.984,14.767c-0.998,0.999-3.394,2.196-2.795,3.793    c0.398,0.798,1.597,1.198,2.195,0.4c7.985-3.994,2.397-13.975,9.578-18.162c-0.799-1.401,0-1.991,1.198-2.795    C646.235,171.529,652.223,173.919,648.829,177.708"/>
		<path fill="#E32B45" d="M355.48,169.324c-1.796,2.395,2.593,3.798,3.192,5.794c1.597,4.985,0.599,12.168,6.987,14.168    c2.391-2.395-1.997-3.394-2.395-5.389c-2.795-3.589,0.398-9.573-3.993-12.368l-1.198-1.606c1.796,0,4.79-0.789,5.389,1.796    c3.593,4.196,1.597,10.18,5.59,14.373c3.987,5.589,7.981,11.174,10.575,17.357c0.198,2.2,0.198,4.193,0,6.788l-2.395-3.991    c-9.379-9.777-20.555-18.757-26.142-30.534c0.999-2.391,2.99-4.782,2.792-7.577C354.282,168.729,355.079,168.729,355.48,169.324"/>
		<path fill="#F2B227" d="M632.066,180.307c-1.993,4.387-5.39,7.78-8.18,11.974c0.199-0.999,0.798-3.394-1.198-3.793l9.183-14.972    C633.263,175.312,632.265,178.107,632.066,180.307"/>
		<path fill="#F2B227" d="M378.23,188.887c-1.799,0.195-1.4,2.594-1.198,3.788c-3.394-5.389-10.58-11.574-8.184-18.755    C372.841,178.307,374.436,184.096,378.23,188.887"/>
		<path fill="#F2B227" d="M657.01,177.508c-7.183,9.981-12.971,20.757-19.75,30.736c-1.796,2.393-3.798,1.195-5.389-0.403    c0-0.4-0.404-0.798-0.799-0.998c1.398,0.799,3.389,0.998,4.788,0.404l2.195-1.597c6.384-9.386,10.776-18.959,17.758-28.142H657.01    z"/>
		<path fill="#F2B227" d="M345.501,178.107c6.587,8.383,10.975,18.565,17.162,27.14c1.597,2.196,3.992,3.392,6.388,2.395    l0.994-0.599c-1.198,1.796-3.193,3.193-4.987,2.998c-8.184-9.782-12.574-21.954-21.155-31.531    C343.904,177.912,344.902,177.709,345.501,178.107"/>
		<path d="M772.16,183.102v1.193c-8.383,6.987-16.764,14.17-26.944,17.562c-0.798,0-1.198-0.404-1.593-0.998l0.195-0.597    c9.782-4.189,18.761-10.577,27.145-17.763C771.561,182.299,771.957,182.698,772.16,183.102"/>
		<path d="M230.558,183.696c8.379,6.987,16.36,12.976,25.941,17.164c0.594,0.794-0.203,1.592-0.997,1.592    c-10.178-2.994-18.561-10.969-26.944-17.757l0.402-1.398L230.558,183.696z"/>
		<path d="M660.004,189.486c0.599,6.587-2.395,12.168-3.988,18.157c-2,3.792-5.988,6.987-9.782,8.184    c-2.395,4.192-6.982,7.186-11.572,7.985c-0.201-0.603-0.799-1.198,0-1.796c3.991-2.401,9.977-4.591,10.779-9.981    c1.593-1.597-1.003-5.99,2.192-5.789c0.997,1.797,0.802,4.192,0.203,5.789c1.991,0.199,3.788-2.596,4.987-4.193    c3.392-5.984,5.385-12.372,5.189-19.953c-0.403-0.4-0.597-0.997-0.199-1.796c0-0.599,0.799-0.798,1.398-0.398    C660.203,186.491,659.21,188.487,660.004,189.486"/>
		<path d="M343.309,187.286c-0.603,9.981,1.593,19.962,9.573,25.547c1.799-1.997-2.19-5.789,1.602-5.99    c0.996,3.793,1.594,8.184,4.988,11.379c2.195,2.196,4.988,3.189,7.184,4.985c-0.4,0.604-0.599,1.203-1.401,0.999    c-4.987-1.593-8.179-5.185-11.969-8.779c-10.979-5.19-12.771-18.36-11.976-28.937    C341.908,185.893,343.504,186.092,343.309,187.286"/>
		<path fill="#F2B227" d="M644.841,189.082c-1.796,3.997-4.596,8.184-6.788,11.18c0.201-0.994,0.404-2.996-0.398-3.997    c3.189-2.787,5.389-6.779,8.578-9.978C646.434,187.489,644.638,187.888,644.841,189.082"/>
		<path fill="#F2B227" d="M363.662,196.871c-2.196,0.989,0,2.395-0.4,3.989c-3.392-4.188-5.789-9.179-8.382-13.969    C357.874,190.484,360.669,193.674,363.662,196.871"/>
		<path d="M730.249,189.486c0,1.796-1.996,3.189-3.39,3.992c-6.392,3.989-13.17,7.581-19.957,10.77    c-0.599,0-1.398-0.199-1.398-0.999v-0.598c7.981-4.189,16.161-7.981,23.347-13.965    C729.451,188.487,729.853,189.082,730.249,189.486"/>
		<path d="M295.413,203.45c0.4,0.798-0.4,1.202-0.798,1.398l-3.195-0.8c-6.587-3.987-13.77-6.982-19.757-11.769    c-0.199-0.798-1.993-2.399,0-2.795C278.649,195.274,287.432,198.859,295.413,203.45"/>
		<path d="M609.912,195.673c-2.791,4.183-5.98,9.373-3.19,14.369c1.402,2.387,4.593,3.988,5.586,6.384    c-0.599,0.798-2.192,0.394-2.789,0.394c-1.394,2.401,5.589,6.193,0,5.59c-1.597-1.593-1.993-3.593-2.592-5.59    c1.796-3.388-3.997-5.385-2.994-9.177c-0.599-4.991,0.994-9.782,4.587-13.366C609.518,194.078,610.115,194.876,609.912,195.673"/>
		<path d="M394.989,198.265c1.801,4.188,4.392,10.376,0.603,14.568c-2.596,2.994-0.802,8.375-4.991,10.376    c-0.599,0.199-1.196-0.395-1.596-0.994c0.599-1.796,3.193-2.6,2.794-4.99c-0.997-0.205-2.794,0.597-3.193-0.8    c2.395-2.594,5.988-4.79,6.783-8.584c0.404-4.592-2.592-8.779-4.987-12.169C391.799,192.879,393.995,197.067,394.989,198.265"/>
		<path fill="#FFFFFF" d="M522.703,224.276v23.07h-4.139c0.199-7.585,0-23.07,0-23.07c0-6.145-2.397-15.393-17.255-15.393    c-13.535,0-17.211,7.101-17.211,15.393v23.07h-4.145l-0.013-23.07c0-14.542,10.228-18.96,21.368-18.969    C512.462,205.303,522.703,210.597,522.703,224.276"/>
	</g>
	<polygon fill="#FFFFFF" points="586.166,211.036 584.564,216.131 535.08,216.226 541.068,211.036  "/>
	<polygon fill="#FFFFFF" points="468.168,216.56 416.144,216.426 415.546,211.236 462.244,211.236  "/>
</g>
<path d="M629.874,218.422c0.199,1.193-0.203,2.786-1.198,3.793c-0.599,0.398-1.198,0.798-1.796,0.398  c-1.398-1.796,2.395-2.998,0.993-5.389C628.875,216.226,629.874,217.423,629.874,218.422"/>
<path d="M372.64,218.422c-0.199,1.996,3.593,3.19,1.395,4.786c-1.795-0.595-3.192-2.791-3.388-4.786  C370.444,217.224,372.84,216.625,372.64,218.422"/>
<path fill="#FFFFFF" d="M584.773,219.22c-0.599,5.381,4.192,8.974,2.791,14.168c-0.595,3.988-0.395,8.18,2.395,10.776  c0.998,1.397,2.598,0.999,3.394,2.391l-1.358,0.789h-59.575v-28.216C532.419,219.129,568.008,219.22,584.773,219.22"/>
<path fill="#FFFFFF" d="M470.963,219.246v28.099h-63.789c0,0,4.581-3.779,5.98-5.776c1.794-4.791-1.796-10.381,1.794-14.771  c0.799-2.196,1.28-7.534,1.28-7.534L470.963,219.246z"/>
<path d="M731.047,225.205c0.798,0.798,0.199,1.996-0.798,2.595c-7.985,6.388-17.559,9.978-27.938,9.578  c-0.395-0.4-0.599-0.799-0.599-1.397c1.996-1.398,4.99-0.4,7.186-1c7.182-1.397,14.369-3.792,19.159-9.181  c-2.001-1.39-4.791-1.788-6.189-3.784c0.994-2.401,3.589,0.199,5.386,0.394L731.047,225.205z"/>
<path d="M278.649,223.812c-1.995,0.79-4.192,1.597-5.389,3.19c6.787,6.388,15.766,8.978,25.347,8.978  c0.597,0.398,1.395,1.397,0.198,2c-9.381,0.999-18.359-2.595-25.941-7.789c-0.999-1.597-2.794-2.391-2.996-3.984  c2.397-2.395,5.19-3.394,8.183-4.391C278.849,222.015,279.248,223.209,278.649,223.812"/>
<path d="M716.284,222.613c0.195,1.198-1.401,1.398-2,1.988c-3.988,0.199-7.581,2.196-11.375,1.401  c-0.396-0.203-0.199-0.798-0.199-1.202c4.391-0.79,8.783-2.188,12.975-2.786L716.284,222.613z"/>
<path d="M298.203,225.409c0.602,0.798-0.198,1.792-1.193,1.987c-3.795-1.392-8.383-0.999-11.974-2.985  c-0.602-0.203-0.602-1.397,0.2-1.597C289.624,224.011,293.817,224.207,298.203,225.409"/>
<path d="M621.689,227.8c-0.999,1.792-2.196,3.793-1.198,5.785c0.799,0.603,0.799,1.597,0.4,2.196  c-0.4,0.404-0.994,0.798-1.398,0.404c-1.393-1.997-1.796-4.392-1.198-6.992C618.894,228.394,620.492,225.408,621.689,227.8"/>
<path d="M383.021,230.39c-0.801,2.2,0.794,4.591-1.602,5.99l-1.395-0.196c0.202-1.796,1.395-3.997,0.4-5.993  c-0.797-0.799-2.395-2.196-0.797-2.795C381.221,227.396,382.421,229.002,383.021,230.39"/>
<path fill="#F2B227" d="M658.011,236.184c-0.798,3.389-0.599,7.78,0,10.975c-7.585,0.798-15.766,0.798-20.162,7.78  c-2.191,4.591-2.191,9.777,0,14.168l5.196,8.182c0.394,11.572-0.205,23.95,9.577,30.937c1.991,0.394,4.591,1.392,5.988,0  c3.19,3.388,7.778,5.381,12.568,4.187c1.198,0,2.594-1.392,2.799-2.592c3.388-0.203,4.387,3.785,5.584,5.98  c3.793,7.985,4.991,17.164,5.19,26.542c0.999,3.993,0,9.382,0.999,13.175c0.994,10.371,0.199,20.552,1.995,30.533  c0.599,7.382,3.593,15.962,11.37,19.555c3.997,2.196,9.182,1.996,13.375,0.199c4.786-3.792,4.99-9.777,4.786-15.366  c-0.994-5.59-1.796-11.18-4.187-16.165c-6.587-13.57-11.578-28.338-10.979-44.299c1.596-8.983,6.587-17.767,14.173-23.347  c16.36-11.578,40.91-8.788,51.281-28.937c1.003-1.995,2.2-4.391,1.796-6.991c1.602,0.404,4.192,2.2,4.991,4.397  c3.189,10.171-0.199,20.751-8.379,27.335c-5.391,3.997-11.578,6.583-17.164,9.981c2.196,6.983,0.599,14.369-1.997,20.357  c-1.393,2.985-4.192,5.18-7.186,5.98c0.599-8.58-0.394-18.95-8.379-23.546c-5.19-2.196-10.181-0.196-14.568,1.801  c-11.773,9.572-8.779,28.533-4.788,41.104c4.991,12.173,10.776,24.349,10.776,38.115c-0.404,6.388-2.791,12.776-8.978,15.569  c-3.798,1.195-7.387,2.387-11.379,0.994c-6.583-0.404-11.773-5.186-15.961-9.977c-2.795,0.403-0.804,3.195-1.796,4.791  c-2.196,4.782-5.391,9.183-5.59,14.773c-1.198-1.403-1.198-4.198,0-5.793c1.997-5.785,4.991-11.775,4.188-18.362  c-0.794-1.996,0.404-5.59-2.391-5.785c-1.397,0.603-0.199,2.596-1.198,3.593c-0.999,9.978-9.777,16.165-11.773,25.748  c-0.205,3.583,0.199,8.379,1.796,11.972c3.589,6.185,10.177,8.576,17.16,8.371c0.199,1.606-0.994,3.402,1.198,4.198  c3.995,0.798,7.984,4.596,8.982,8.578c1.397,1.202,3.589-0.394,4.786,1.402c1.402,3.788,2.596,8.982,7.386,9.977  c-0.799,1.597-3.593,1.193-4.991,0.789c-2.595-0.59-3.988-3.189-6.587-3.189c0,2-1.792,3.792-0.396,5.794  c-0.402,2.791,1.993,4.99,4.193,6.578l4.985,2.005c-0.999,1.393-2.395,3.189-4.192,3.388c-3.394-0.603-6.783-2.599-8.984-5.186  c-0.794,0.196-1.592,0.99-1.788,1.798c0.396,8.174,11.37,7.377,11.969,15.357c-1.796-1.392-3.992-3.189-6.184-2.391  c-0.599,2.594,2.994,4.188,3.789,6.778c0,1.003,0.404,2.799-0.4,3.593c-1.995-3.784-6.384-7.173-10.971-6.981  c-0.802,0-1.6,0.798-1.6,1.592c-0.6,6.392,6.382,7.79,8.582,12.577c0.196,4.791-0.404,9.981-0.798,14.972  c0.199,0.394,0.798,0.989,0.199,1.592c-2.395-1.796-3.193-4.587-5.39-6.583c-1.996-0.203-1.593,2.196-2.594,3.195  c-0.196,1.192,0.199,2.785-0.4,3.593c-1.593-0.808-2.596-4.388-4.587-2.795c2.196,6.587,5.186,13.764,3.189,21.147  c-2.59,2.001-5.584-0.191-8.379-0.794c-2.592-1.392-5.586-3.19-5.988-6.588c-0.599-2.594,1.198-7.177-1.796-7.78  c-1.394,1.796-0.396,4.198-0.994,6.184c-1.198,3.792-0.599,8.384-4.192,10.979c-1.597,0.798-3.394,0.203-4.987-0.396  c-1.397-1.198-2.395-2.399-2.395-4.196c-0.599-2.994,5.988-4.792,2.395-7.386c-1.995,1.202-4.79,2.795-7.386,1.402  c-1.796-1.997-4.192-3.199-3.388-6.189c1.193-1.996,6.384-2.196,4.387-5.385c-3.193,0.594-7.381,1.193-9.382-1.796  c-0.599-1.602-0.599-3.398-0.396-4.991l1.796-0.799c7.183,0.205,15.763,8.98,21.351,0.604c8.383-10.381,9.179-24.15,12.572-36.527  c0.4-3.992-0.4-7.577-2.994-10.372c-6.987-3.992-14.968-9.183-16.965-17.566c-3.189-6.184-5.184-12.966-10.176-18.357  c-1.796,0-1.198,1.993-2.196,2.799c-1.593,8.18,5.389,14.963,2.995,23.343c0.199,3.398-0.6,7.187-2.397,10.177  c-1.397-0.999-0.798-3.199-1.592-4.786c-1.198-1.602-1.798-4.196-3.997-4.792c-0.599,0-1.198,0.404-1.593,1.003  c1.796,5.377,3.193,12.763-0.999,17.354c-2.994,3.199-5.988,6.193-9.976,7.385c5.391-7.78,10.173-17.562,6.982-27.938  c-1.592-10.978-4.587-20.755-4.192-32.723c0.802-1.798-0.396-4.589,0.998-6.193c1.002-25.943,21.555-44.499,25.347-69.642  c0.794-1.996-0.599-3.792-0.798-5.789c-0.599-0.195-1.403-0.195-1.796,0.4c-1.597,5.988-4.392,11.377-7.581,16.569  c-2.2-3.394-5.594-7.786-2.996-11.978c4.189-7.183-2.394-14.572-6.391-20.553c-5.586-8.183-15.562-13.773-18.956-22.748  l-4.388-10.18c4.788-5.586,4.388-13.574,4.388-20.752l5.19-6.987c0.199-0.802-0.599-1.397-1.198-1.796  c-3.992,2.596-8.184,6.189-10.58,10.78c-1.198,5.182,3.193,11.769-3.19,15.163h-0.404c0-2.596,1.602-4.786,0-7.187  c-1.786-1.991-3.388,1.403-3.987,2.401l-2.192,3.987c-0.599-0.199-0.998-0.993-1.796-0.798l-6.388,5.988  c-0.199-2.789-2.391-4.99-2.196-7.984c-0.599-0.6-0.997-0.994-1.796-0.799c-1.198,0.799-0.195,1.796-0.794,2.795  c-1.198,3.993-2.799,8.783-7.386,10.38c0.994-2.795-0.599-6.388,1.198-8.783l-0.203-1.993c7.785-2.793,15.969-4.795,22.556-10.18  c-0.203-0.404-0.599-1.392-1.198-1.392c-16.369,8.176-33.927,12.766-51.289,18.351c-0.394,0.404-0.993,0.798-0.599,1.403  c0.803,1.796,2.994,0.597,4.192,0.398c0.196-0.199,0.4-0.199,0.6-0.199c-5.186,3.593-2.2,11.378-7.985,14.164  c-0.195-4.192-3.593-7.78-1.593-12.173c0-1.593,0.199-3.989-0.802-4.985c-2.592,0.398-5.389,2.19-6.184,4.79  c-0.599,1.397-0.199,3.788-2.395,3.788c-1.792-0.394-4.786-0.993-5.59,1.403c-1.796-0.404-2.789-2.395-3.589-3.997  c-0.203-1.393,1.398-2.391,2.391-2.99c2.196-1.398,6.388,0,6.987-3.195c-0.997-2,0-3.992-1.992-5.589  c-2.2,0.798-3.593,3.997-6.587,3.193c-2.2-0.798-4.587-1.991-6.189,0.999c-1.991,0.599-2.395-1.796-3.189-2.99  c-0.6-2.2,1.796-4.196,3.189-5.19c4.587-1.796,9.577-3.19,14.568-2.795c16.76,0.594,30.134-8.978,44.099-16.165  c5.793-4.591,10.978-9.382,16.164-14.363c2.397,0.794,4.397,0.989,6.991,0.989c0.395,2.6-0.403,5.59-2.595,7.586  c-1.402,2.395-6.189-0.199-5.988,3.199c3.193,1.593,6.384,1.593,9.782,0.794c4.586,0,5.98-6.587,10.575-5.584  c9.378-2.799,19.953-5.389,24.54-15.367l1.602-4.592c5.385-2.795,7.78-8.578,13.17-11.377  C658.206,230.794,658.011,232.985,658.011,236.184"/>
<path fill="#F2B227" d="M356.476,239.972c1.597,7.985,9.581,14.968,17.363,17.158c4.391,0.201,8.182,2.996,12.772,3.199  c2.395,3.593,6.587,5.984,11.174,5.586c1.597-0.795,4.192,0.199,5.19-1.792c-0.798-2.6-4.592-0.804-6.185-2.799  c-2-1.993-2.395-4.792-2.794-7.183c2.39-0.403,4.985-0.802,7.182-1.592c6.586,5.58,11.776,11.373,18.561,15.96  c13.37,6.388,25.941,15.366,41.907,14.369c5.985,0.195,11.574,1.193,16.559,3.788c0.999,1.401,1.597,3.793,0.802,5.389  c-0.599,0.603-1.001,1.602-1.796,1.796c-1.401-0.398-2.599-0.997-3.593-2.195c-1.796,0.798-3.992,2-5.987,1.001  c-1.596-0.603-2.795-2.798-4.391-2.594c-0.799,1.792-1.398,4.188-1.595,5.98c2.99,1.796,6.983,1.597,9.177,4.796  c-0.199,1.796-1.597,3.792-3.394,4.782c-0.996-4.583-4.988,0.607-7.182-2.392c-0.4-3.591-3.193-6.388-6.587-7.78  c-3.19,2.596,0.4,6.982-0.994,10.78c-1.401,1.792-0.802,4.587-2,6.578c-5.385-2.795-2.592-10.171-7.382-13.764  c0.999-0.2,3.394,1.393,4.392-0.799l-0.8-0.999c-17.363-5.589-35.123-10.38-51.285-18.356c-0.603,0-1.198,0.59-1.397,0.993  c3.792,4.592,10.176,4.592,14.766,7.981c-1.994,1.796-0.997,4.591-2.993,6.588l-0.199,1.796c-2.596-0.999-4.392-3.394-6.584-5.387  l-1.801,0.395c-1.792-1.991-2.19-6.783-5.385-6.189c-2.196,1.796-0.603,5.194-0.799,7.59c-2.394-1.401-3.193-4.196-4.192-6.388  c1.198-5.189,0.799-10.978-3.193-14.572c-2.593-1.393-4.786-6.183-7.78-4.387l0.199,1.597c2.196,3.392,6.586,5.584,5.186,10.176  c-1.193,6.185,0.6,11.974,3.992,16.565c-0.797,4.59-2.593,8.379-4.988,12.372c-3.791,5.984-7.783,11.777-13.972,15.766  c-4.387,5.385-8.779,11.178-11.375,17.562c-2.99,5.785,4.591,9.179,1.398,14.964l-2.993,5.793  c-3.99-4.995-5.985-10.979-7.982-16.769c-0.4-0.594-1.597-1.198-1.796-0.199c-1.593,19.953,12.572,35.319,19.758,52.686  c5.186,13.165,7.186,29.93,5.186,42.902c-1.392,8.388-3.589,17.558-3.988,26.739c0.4,7.386,3.593,13.372,7.581,19.36  c-5.789-2.791-12.572-7.786-12.769-14.972c0.196-3.389,1.395-6.574,1.793-9.773c-0.596-0.802-1.397-1.193-2.195-0.802  c-2.394,2.998-3.994,6.187-4.391,9.981c-3.392-4.985-2.991-10.975-2.991-17.562c1.193-5.988,5.587-11.375,2.391-18.152  c-0.598-0.599-1.395-1.403-1.993-0.599c-8.779,10.167-7.785,26.332-21.953,32.52c-3.991,1.997-7.581,5.994-7.581,10.977  c0,4.994,1.994,9.386,2.99,13.773c1.998,10.376,4.99,21.555,13.969,28.537c6.189,0.2,11.776-2.799,17.564-4.192  c1.395,0.802,2.593,2.594,1.596,4.192c0,1.796-1.395,2.994-2.794,3.793c-2.195,0-4.59,1.198-6.385-0.404  c-0.401,0.404-1.198,0.199-1.397,0.999c-0.202,3.388,4.589,1.996,5.189,5.184c0.198,2.202-1.997,4.198-3.593,5.196  c-1.198,0.993-3.193,1.192-4.591,0.599c-0.997-0.799-1.996-1.997-3.392-1.403c-1.193,0.603-0.4,1.602,0,2.2  c1.397,1.393,2.994,3.385,3.392,5.385c-0.798,2.395-2.794,3.199-4.586,4.591c-2.795,0.595-4.193-1.796-5.391-3.593  c-2.395-4.198-0.398-10.372-2.991-14.168c-3.593,0.802,0,4.391-1,6.782c-0.799,4.987-5.788,7.79-10.177,9.183  c-1.397,0.199-4.192,1.003-4.79-0.795c-1.997-7.186,0.798-13.773,3.193-19.961c0-0.595-0.398-1.401-0.999-1.592  c-1.795,0.595-2.595,3.185-3.991,3.784c-0.999-1.987,0.798-6.983-2.99-6.782c-1.597,2.199-2.596,4.985-4.991,6.183  c2.196-7.577-5.789-18.357,4.991-21.946c1.796-2.196,3.189-4.586,2.59-7.789c-3.189-1.593-6.983,0.408-9.777,2.604l-2.193,3.788  H301.4c-1.599-3.788,1.594-6.783,3.99-9.179c0.2-0.798-0.398-1.602-1.198-1.991c-1.995,0.191-3.391,1.991-5.387,2.791  c0.596-8.18,12.373-6.987,11.575-15.77c-0.599-0.4-1.003-1.593-1.997-1.199c-1.796,3.398-5.389,4.792-8.78,5.194  c-1.597-0.603-2.994-1.6-3.79-3.398c3.391-1.596,9.577-2.99,9.378-8.578c-0.397-1.792,1.198-4.987-1.594-5.984  c-3.196,1.996-7.185,5.389-11.177,2.794c4.991-1.397,6.386-5.993,7.981-10.18c1.599-1.792,6.388-0.201,5.591-4.388  c1.795-3.995,6.182-4.79,9.375-7.182l-0.398-2.594c7.186-0.205,14.168-2.996,17.761-9.384c0.999-4.985,2.795-11.769-0.199-16.369  c-5.385-7.177-10.177-14.564-11.174-23.546c-0.4-0.59-0.801-0.59-1.398-0.59c-2.195,3.988-1.198,8.176-1.597,12.363  c1.199,6.587,6.786,11.178,4.193,17.761c0-5.18-2.795-9.972-5.385-14.563c-0.804-1.794,0.394-3.992-1.802-5.186  c-5.385,6.583-12.769,12.372-22.348,10.766c-5.19-1.593-10.376-3.784-12.572-9.17c-4.589-16.563,3.789-32.733,9.578-47.496  c1.198-6.987,3.792-12.771,2.994-19.957c-0.199-6.388-1.996-13.171-6.388-18.162c-4.388-3.992-10.975-5.184-16.559-3.593  c-7.985,5.19-8.984,15.167-8.184,23.946c-6.784-1.597-9.179-9.577-9.978-15.561c0.201-3.195-0.798-7.183,0.4-10.581l-0.199-0.798  c-9.378-5.59-21.156-8.779-25.143-20.552c-1.597-6.783-2.795-15.761,3.987-20.558l0.4-0.394c0.8,0.599,0.205,2.191,0.8,2.795  c2.395,13.37,16.963,19.753,28.536,23.146c13.972,4.189,30.733,9.972,36.323,25.543c1.994,4.791,3.192,9.583,2.593,14.968  c-0.996,1.193,0,2.99-0.599,4.392c-0.999,17.562-12.375,30.732-14.366,47.886c-0.205,4.392-1.199,10.385,2.19,14.373  c3.195,4.193,9.181,3.993,13.571,2.994c12.177-4.188,13.969-17.962,14.568-28.935c0-4.987,0.199-10.78,0.398-16.36  c0.4-5.19,0.201-8.385,0.799-13.375c0.199-10.177,0.798-16.764,3.394-26.142c0.996-3.993,2.794-7.581,4.988-10.975  c1.796-1.202,2.597-0.798,3.79,0.994c4.391,1.397,9.981,0.802,13.17-2.397c0.2-2.586,2.395-0.39,3.992-0.798  c3.195,0.408,5.59-2.387,7.382-4.782c4.592-7.387,4.791-17.363,5.19-26.546c5.389-5.984,8.982-14.767,5.19-22.752  c-4.192-7.177-12.572-6.782-19.758-7.577c0.199-6.786,0.199-12.372-0.8-19.164C348.295,231.388,351.091,237.177,356.476,239.972"/>
<path d="M745.42,232.786c-2.799,3.195-7.186,3.398-11.179,4.192c-4.591,0.599-9.378,1.003-13.969,1.198  c1.393,2.994,3.788,6.583,2.794,10.581c-2.794,2.39-6.987,0.593-10.779,1.392c-0.994-1.193-2.994,0-3.988-0.994  c-3.593-0.802-7.581-0.999-10.575-3.193c-0.203-0.599,0.195-0.999,0.794-1.203c7.187,1.203,13.973,4.198,22.153,3  c1.797-3.793-4.387-7.186-1.596-10.181c-0.201-0.599-0.201-1.392,0.398-1.596c8.779-0.999,17.562-0.595,25.143-3.993L745.42,232.786  z"/>
<path d="M274.659,236.379h6.586c0.794,0.398,0.599,1.198,0.599,1.796c-4.192,1.198-8.584-0.195-12.972-0.195  c-4.391-1.203-9.976-0.404-13.37-4.198c0.795-2.19,2.996-0.597,4.189,0C264.481,235.181,269.469,236.578,274.659,236.379"/>
<path d="M282.842,239.972c-0.804,2.795-2.994,5.19-3.195,8.379c8.381,1.602,15.167-1.193,22.751-2.99  c0.397,0.201,0.596,0.395,0.996,0.799c-2.593,3.189-7.783,2.595-11.574,4.188c-4.192,0.594-9.976,1.202-14.168-0.603  c-0.599-3.988,1.397-7.778,3.992-10.767C282.243,238.775,282.642,239.572,282.842,239.972"/>
<path d="M737.435,247.358c0.599,0.4,0.599,0.994,0.599,1.597l-0.999,0.599l-11.179-0.205c-0.599-0.594-0.794-1.392,0.199-1.991  H737.435z"/>
<path d="M275.258,248.352c0.397,0.201,0.599,0.999,0.198,1.393l-0.599,0.604h-11.174c-0.599-0.2-1.398-1.193-0.599-1.593  C267.074,247.757,271.465,248.157,275.258,248.352"/>
<path d="M714.683,261.127c-8.18,1.593-16.764,1.198-23.548-3.197c-0.597-0.6-1.796-1.398-1.198-2.192c0.6-1.403,1.597,0,2.397,0.199  c5.389,3.989,12.372,4.189,19.558,3.789c0.994-1.993-1.198-4.193-0.999-6.584c0.599-0.593,1.199-0.593,1.796,0  C713.889,255.533,714.683,258.533,714.683,261.127"/>
<path d="M290.223,254.336c-0.199,2.196-0.999,3.993-1.397,5.789c7.586,1.597,15.565-0.199,21.953-4.188  c0.6,0.404,0.795,1.193,0.6,1.991c-6.586,4.397-14.571,5.59-22.754,4.397c-0.997,0.195-2.19-0.203-2.391-1.003  c1.593-2.395,0.994-5.385,2.592-7.776C289.425,253.547,290.024,253.942,290.223,254.336"/>
<path d="M731.446,258.129c0.4,0.404,0.798,1.202,0.201,1.597c-4.189,0.997-9.777,0.199-14.369,0.199  c-0.396-0.394-0.798-0.798-0.599-1.392l0.997-0.603L731.446,258.129z"/>
<path d="M284.039,258.927c0.195,0.404,0.395,0.999,0.195,1.402c-4.786,0.993-9.776,0.593-14.366,0.394  c-0.599-0.394-0.797-0.999-0.4-1.392l0.8-0.603L284.039,258.927z"/>
<path d="M701.711,269.308c1.403-1.597-0.798-5.186,1.996-4.991c0.999,1.597,0.4,3.992,0.599,5.99  c-1.996,2.195-6.187,0.798-8.578,1.193c-4.791-1.597-9.179-3.984-12.772-7.577c0-2.001,1.991-0.404,2.994-0.205  C690.741,266.513,695.926,270.7,701.711,269.308"/>
<path d="M318.361,264.717c-2.196,2.994-6.187,3.793-8.982,5.984c-3.387,1.202-7.183,1.801-10.772,1.602  c-2.996-0.804-1.4-4.786-1.596-6.987c0.398-0.4,0.996-0.599,1.596-0.195c1.395,1.987-1.4,6.183,3.19,5.58  c5.788-0.994,10.579-4.188,15.37-7.381C317.961,263.32,318.162,264.122,318.361,264.717"/>
<path d="M721.066,268.709c0.404,0.599-0.396,1.194-0.794,1.397l-10.979-3.593c-0.794-0.798-1.193-1.996,0-2.391  C713.29,265.514,717.482,266.513,721.066,268.709"/>
<path d="M684.154,275.895c1.991,1.597,4.791,1.597,7.581,1.597c1.198-1.597-1.198-5.793,1.991-5.59  c1.003,1.997,0.203,4.79,0.404,7.378l-1.003,1.198c2.395,2.399,5.59,3.995,8.787,4.994c0.599,0.201,0.396,1.193,0.196,1.394  c-4.193,0.404-8.181-2.192-10.975-5.381l0.599-1.602c-5.385,0-9.977-1.993-13.77-5.785c-2.395-2.196-5.389-5.389-7.182-8.385  l0.798-1.397C676.369,267.711,678.963,273.1,684.154,275.895"/>
<path d="M292.619,265.914c-2.994,3.193-7.786,3.394-11.773,4.786l-0.999-0.993c3.389-2.397,7.78-2.795,11.574-4.792  C292.02,264.916,292.42,265.315,292.619,265.914"/>
<path d="M330.334,265.715c-2.593,5.59-7.384,9.981-12.772,13.175c-2.594,1.198-5.389,1.397-8.184,1.788  c0.603,0.607,0.802,1.805,0.404,2.595c-3.394,1.597-6.388,5.19-10.578,4.591c-0.4-0.395-0.798-0.999-0.199-1.393  c3.192-1.602,6.385-2.795,9.18-5.186c-3.593-1.806,0.199-5.389-0.998-8.184c0.2-0.404,0.599-0.599,1.198-0.599  c1.398,1.397,0.4,3.593,0.799,5.19c8.779,1.787,14.766-6.992,19.953-12.776C329.536,264.917,330.135,265.12,330.334,265.715"/>
<path d="M671.582,280.287c2.59,1.788,5.785,3.185,8.58,2.785c0.997-0.997-0.599-4.382,1.996-3.384l0.599,0.789l-0.398,4.592  c-5.192,1.402-9.982-0.595-13.575-3.988c-3.189-4.188-6.183-7.98-7.981-12.772c0.4-0.794,1.597-1.202,1.798-0.203  C664.993,272.697,667.989,276.494,671.582,280.287"/>
<path d="M340.111,270.701c-3.789,6.792-9.378,14.972-17.957,15.571c-1.198-0.404-3.593,0.793-3.993-1.403  c0.199-1.596-0.798-3.788,0.8-4.782c2.792,0.201-0.4,5.586,3.792,3.984c8.381-1.193,12.372-9.972,16.76-15.965  C340.515,268.31,340.913,269.706,340.111,270.701"/>
<path d="M660.602,282.678c1.796,1.198,3.997,1.393,6.189,1.198c0.794-0.403,1.198-1.801,2.196-1.198  c1.198,0.595,0.394,1.593,0,2.192c-2.795,2.6-6.783,0.603-9.777,0c-0.599,2.196-2.799,0.603-4.392,1.401  c0.396,3.993,2.192,7.782,2.791,11.774c-0.394,0.398-0.994,0.599-1.593,0.599l-4.192-12.972c-1.597-1.401-4.587-2.599-4.587-4.59  c2.391-1.199,3.59,2.19,5.785,2.391c1.397,0.597,3.193,0.597,4.587,0c-3.19-3.992-5.984-8.181-6.982-13.167  c0.798-1.597,1.997,0,2.595,0.798C654.418,275.695,657.009,279.48,660.602,282.678"/>
<path d="M350.289,271.499c-1.198,4.596-3.79,8.588-6.585,12.572c3.593,1.996,6.787-0.999,9.38-2.99  c0.599,0.203,1.198,0.794,0.996,1.596c-1.198,2.592-5.586,2.391-5.385,5.984c-1.198,3.594-1.198,7.985-3.593,10.581  c-0.799,0.395-0.999-0.4-1.398-0.799l3.195-11.578c-1.796-0.997-4.192,0.799-5.19-1.596c-2.99,0.798-6.983,2.395-9.575,0  c-0.401-0.4-0.602-1.593,0-2.196c1.395-0.999,1.395,1.401,2.593,1.401c2.395,0,4.591,0,6.388-1.401  c3.988-3.593,5.385-8.376,7.581-12.767C349.493,269.902,350.289,270.701,350.289,271.499"/>
<path d="M712.886,276.494c0.203,0.795-0.195,1.198-0.794,1.593c-2.996-0.595-5.789-2.192-8.385-3.988l0.798-1.401  C707.501,273.301,710.095,275.097,712.886,276.494"/>
<path d="M297.41,274.494c-2.196,2.2-5.59,4.395-8.984,3.997c-0.398-0.404-0.398-0.999,0-1.407l7.584-3.385  C296.609,273.699,297.609,273.699,297.41,274.494"/>
<path fill="#F2B227" d="M536.681,277.692c-0.203,0.999-1.796,1.198-2.799,1.393c-2.395,0-4.985,0-6.184-2.191  c0.4-0.999-0.993-1.602,0-2.596C530.888,273.899,535.08,274.099,536.681,277.692"/>
<path fill="#F2B227" d="M473.618,274.298c-0.199,1.597-0.199,3.788-2.196,4.392c-1.996,0.997-4.789,0.59-6.586-0.404  C465.633,274.494,470.027,273.495,473.618,274.298"/>
<path fill="#F2B227" d="M482.597,277.492l-0.199,1.987c-0.999-0.989-2.196-1.193-3.589-1.788c-0.603,0.594-1.403,0.594-2.196,0.594  c-0.201-1.393,0.599-2.794,0.794-4.188C479.203,275.097,481.799,275.097,482.597,277.492"/>
<path fill="#F2B227" d="M524.105,278.087c-1.796-1.392-3.988,0.201-4.786,1.393c-0.804-1.393-0.4-2.785,0.599-3.784l4.188-1.597  C523.506,275.696,525.303,277.289,524.105,278.087"/>
<path d="M692.733,293.453c0.199,0.599-0.4,0.999-0.794,1.397c-4.193-0.798-6.189-4.99-7.985-8.379  c1.397-2.2,2.791,1.193,3.792,1.991C689.339,290.265,690.936,291.856,692.733,293.453"/>
<path d="M315.566,290.459c-1.198,2.395-3.992,4.592-6.384,4.991c-0.997-0.201-0.798-1.398-0.199-1.792  c3.394-1.602,4.791-5.395,7.581-7.187C318.761,287.664,315.767,289.265,315.566,290.459"/>
<path d="M678.165,293.852c0,2.596,5.584,3.988,2.594,6.189c-4.791-2.795-6.183-8.184-7.98-12.771c0-0.799,1.393-1.203,1.797-0.603  C676.368,288.861,676.169,291.857,678.165,293.852"/>
<path d="M328.54,288.463c-1.395,4.392-3.993,8.783-7.185,12.177c-0.599-0.205-1.397,0.199-1.796-0.599v-0.798  c3.593-3.394,5.19-7.985,7.586-12.378C328.14,286.666,328.338,287.665,328.54,288.463"/>
<path d="M664.794,291.857c0.994,2.594,1.593,5.19,3.793,7.386c0.398,0.798,0,1.596-0.799,1.796c-3.993-2.596-5.39-7.79-6.388-12.377  C663.402,284.675,663.597,290.659,664.794,291.857"/>
<path d="M340.111,288.662c-0.999,4.587-2.391,8.783-5.186,12.378c-0.798,0.597-2.196,0.997-2.196-0.4  c2.395-3.993,4.392-8.184,5.789-12.572C339.113,287.864,339.916,288.068,340.111,288.662"/>
<path fill="#F2B227" d="M417.143,290.459c-1.996,2.2,2.594,4.392,0.2,7.182c0,1.202,1.196,1.997,0.398,3.199  c-4.788-1.597-6.587-7.785-7.386-12.577C412.752,288.862,414.947,289.661,417.143,290.459"/>
<path fill="#F2B227" d="M489.382,291.457c0,0.798,0.4,1.997-0.596,2.2c-0.799-1.402-2.196-0.999-3.195-1.602  c-0.599,0.798-1.397,0.4-1.997,0.603l0.201-3.997C485.789,289.265,488.386,289.066,489.382,291.457"/>
<path fill="#F2B227" d="M517.917,292.455c-1.993-0.599-3.789-0.4-5.385,1.202c-0.999-0.999-0.4-2.399,0-3.394  c1.397-0.997,3.193-1.602,4.786-1.602L517.917,292.455z"/>
<path fill="#F2B227" d="M573.598,302.835c0.599-2.596,0.998-5.194,2.994-7.186c-0.199-0.799-0.199-1.398-1.001-1.798  c-8.979,1.597-5.586,14.373-15.363,14.564c-0.599-3.388-0.203-6.981,2.594-9.374l0.196-1.995c5.789-2.395,11.972-3.593,17.765-5.59  C575.195,293.453,579.586,301.638,573.598,302.835"/>
<path fill="#F2B227" d="M438.097,297.246c0.199,1.796,2.196,2.994,2.593,4.791l0.801,6.783c-9.979-0.404-6.987-13.171-15.968-14.768  c-1.997,1.796,1.003,3.789,1.597,5.586l0.603,3.593c-1.802-0.195-2.799-1.593-3.394-2.99c-0.599-3.195,0-6.189-3.394-8.184  C426.526,294.252,432.708,294.652,438.097,297.246"/>
<path d="M625.083,300.041c3.193,0,5.785-1.796,8.18-4.192c0.798-0.2,1.003,0.398,1.398,0.798c-1.398,3.394-5.386,5.19-8.98,5.585  c-0.798-0.596-1.796,0-2.395,0.199c0.599,2.2,2.795,4.196,4.791,5.194c4.188,0.599,7.782,0.395,11.974,0  c0.599,0.195,0.599,1.193,0.195,1.589l-0.994,0.798h-10.975c-0.598,1.996,1.796,3.792,3.19,4.592  c3.195,0.798,6.788,1.796,10.18,0.599c0.2,0.199,0.994,0.599,0.799,1.003c-3.398,3.189-8.584,0.999-12.776,0  c-5.385-1.602-2.395-7.981-7.382-10.376c-2.196-2.795-2.795-6.388-3.792-9.786l0.997-1.193  C621.689,295.849,622.288,299.243,625.083,300.041"/>
<path d="M380.626,303.434c-1.198,2.994-4.791,4.792-4.791,7.981c-0.799,2.795-2.795,4.79-5.186,5.789  c-3.798,1.393-8.782,1.792-11.777-0.199c0-2.795,2.195,0,3.593-0.8c3.987-0.802,9.382-0.199,10.975-4.79v-0.599  c-4.193-0.804-9.578,0.994-12.77-1.602c-0.202-0.594,0.597-1.193,0.996-1.193c3.589,0.798,7.386,0.395,10.776,0.205  c2.594-0.799,4.988-2.996,5.587-5.59c-4.39,0.199-9.575-1.202-11.577-5.389c2.001-1.796,4.392,2.195,6.988,2.794  c0.997,0.599,2.794,0.599,3.99,0c1.397-1.198,2.595-3.593,3.99-4.791C384.214,297.641,381.222,300.84,380.626,303.434"/>
<path fill="#F2B227" d="M480.202,305.027l-0.4,2.399c-0.993,0.201-1.198-1.596-2.395-1.805h-2.99l1.597-3.784  C477.612,302.636,479.603,303.036,480.202,305.027"/>
<path fill="#F2B227" d="M527.304,305.83c-1.796-0.209-4.396-0.599-5.794,1.388c-0.4-1.193-0.599-2.391,0.199-3.384  c1.597-0.4,2.6-1.997,4.192-1.997L527.304,305.83z"/>
<path d="M742.425,320.194c0.195,1.198,0.794,3.199-0.599,3.993c-2.395,0-0.798-2.994-1.796-4.192  c-1.602-5.785-8.184-7.581-12.776-9.981c0.999-3.385,3.993,0.398,6.189,0.199C737.635,312.009,741.228,315.801,742.425,320.194"/>
<path d="M273.659,310.412c-1.395,2.395-4.786,2.196-6.982,3.798c-3.195,2.39-6.189,5.984-5.988,10.371  c-0.4,0.404-0.799,0.603-1.398,0.404c-1.592-2.196,0.4-3.993,0.4-6.185c2.395-5.589,8.184-8.787,13.771-8.978L273.659,310.412z"/>
<path fill="#006342" d="M561.625,333.568c-7.785,6.179-17.763,9.773-27.543,5.984c-1.198-4.395,0.203-8.779,2.195-12.571  c2.795-3.997,7.985-3.997,12.177-5.391l9.578,0.599c3.593-1.198,6.982-2.195,10.176-3.991  C568.807,323.986,565.614,329.372,561.625,333.568"/>
<path fill="#006342" d="M453.262,321.591c4.591,0.999,9.979,1.801,12.971,5.785c1.6,3.792,2.395,7.78,2.597,12.177  c-2.996,0.798-6.186,1.193-9.183,1.797c-9.774-0.603-18.558-5.385-24.142-13.371c-0.403-1.995-1.398-3.992-1.199-5.789  c3.791,5.186,10.376,9.777,16.96,9.183c4.192-1.597,7.586,0.798,11.176,2.785c2.597,0.209,2.597,7.79,5.19,2.795  c-1.597-4.581-5.789-6.179-9.58-8.176c-5.789-0.199-12.571,0.999-16.963-2.994c-2.196-1.796-3.99-5.984-6.783-4.591v-2.595  C440.09,320.793,446.279,323.587,453.262,321.591"/>
<path d="M567.41,321.591c-3.593,5.59-9.977,10.376-17.16,9.378c-6.388-1.393-10.58,2.795-14.372,7.386  c-0.395-0.205-0.994-0.404-1.198-0.999c0.997-4.985,6.187-6.189,9.976-8.58c8.189,0.799,16.369-0.403,20.757-7.984  C566.212,320.593,567.209,320.793,567.41,321.591"/>
<path fill="#006342" d="M596.147,336.354c-1.997,2.2-5.984,1.597-7.985,4.392c-2.192,5.19-6.179,10.58-12.168,11.378  c-3.997,0.395-8.783,0.395-11.578-2.794c-2.395-1.199-2.789-3.992-4.587-5.59c6.384-2.59,10.376-7.776,16.764-10.776  c2.791,0,5.99-1.592,9.179-0.593C589.564,332.965,593.551,333.169,596.147,336.354"/>
<path fill="#006342" d="M433.506,338.355c2.593,2.391,5.59,3.989,8.78,5.385c-1.198,2.395-2.991,4.792-4.99,6.388  c-3.991,3.594-10.176,2.996-14.568,1.394c-5.186-1.988-5.984-7.577-9.378-11.17l-6.785-3.398c0.202-2.795,3.593-1.988,5.189-3.584  C419.538,331.573,427.919,332.17,433.506,338.355"/>
<path fill="#E32B45" d="M508.34,335.157c-3.19,0.599-6.185,1.796-9.578,0.599c-1.596,0.408-3.392-0.79-4.987-0.4  c0.996-1.198,4.189-0.989,5.985-1.987C502.755,333.963,505.545,334.158,508.34,335.157"/>
<path d="M590.358,335.356c-1.597,2.399-5.785,0.607-7.981,2.399c-3.593,3.594-7.385,12.373-14.168,9.179  c-0.999,0.199-2.196-0.4-2.99-0.999c0-3.593,3.988,0.4,6.384-0.599c5.984-1.393,5.785-9.581,12.168-10.18  C585.969,335.157,589.16,333.568,590.358,335.356"/>
<path d="M421.934,336.953c2.395,2.994,4.786,6.587,8.18,8.584c2.593,0.798,5.389-1.593,7.182,0c-1.395,2.196-5.186,2.196-7.78,2.196  c-6.787-2.99-8.385-13.366-17.164-10.78c-0.397-0.599-0.596-1.987,0.4-1.987C416.145,334.966,419.34,335.356,421.934,336.953"/>
<path fill="#E32B45" d="M514.727,344.942c-0.199,2.99-2.196,5.186-3.394,7.78l0.999,0.795c2.595-1.794,4.985-3.984,7.98-5.387  c3.195-0.199,6.588,0.205,8.78,2.196c4.192,3.988,6.187,8.984,5.988,14.968c-1.198,3.593-3.789,7.182-7.776,7.979  c-2.799,0.4-5.99,0.999-8.584-0.394c-0.4,0-0.802,0.599-0.998,0.794c3.389,3.195,8.58,6.189,9.179,11.779  c-0.795,5.58-6.588,10.375-11.773,11.573c1.996-6.183,12.971-3.988,10.38-12.975c-1.003-0.395-0.205-1.992-1.602-2.192  c-0.795,2.596-0.998,5.988-4.388,5.988c-5.589-0.203-6.189,9.978-12.571,5.781c-1.402,1.199,0.599,2.2,1.198,2.795l1.593,1.198  c-1.593,0.4-3.195-1.198-4.788-2.391c-2.795-2.794-2.795-6.782-4.192-9.976c-1.397-0.203-0.798,1.398-1.397,1.997  c-0.599,3.593-2.196,6.578-5.19,8.974c-5.987,2.599-12.373,0.199-16.959-4.382c-2.795-2.2-2.795-5.19-3.394-8.186  c0-3.593,2.994-6.187,5.584-7.984c1.398-1.193,3.992-0.395,4.392-2.791c-2.196-1.003-4.392-0.203-6.983-0.603  c-3.394-1.392-7.982-2.596-8.783-6.982c-0.198-1.403-0.999-2.99,0-4.188c-0.198-3.593,1.397-7.386,3.991-9.587  c-0.199,3.997-1.795,7.79-3.19,11.383c-0.4,3.185,1.594,5.385,3.99,7.181c0.599,0.195,1.597,0,1.397-0.802  c-1.198-1.398-1.796-2.795-1.796-4.587c0.799-1.997,2.596-3.199,3.19-4.987c3.198,2.791,6.788,4.583,9.981,6.978  c-1.198,1.997-1.198,5.19,0,7.187l2.993,3.193c-0.797,3.993-2.195,7.386-3.591,10.979c-2.395-1.606-5.984-1.397-7.382-4.392  c-0.798-0.997,0.798-2.594-0.798-2.794c-1.597,1.198-1.996,3.593-1.597,5.58c3.593,4.2,8.98,6.388,12.572,10.18  c2.593,0.404,4.988-0.794,6.186-2.794c-0.599-1.792-2.395,0.203-3.394-0.395c-1.996-0.802-3.791-2.399-4.589-4.387l9.18-6.792  c2.196,1.202,4.988,2.2,8.182,1.602l2.791-1.398c3.394,1.797,6.388,4.388,9.782,5.99l0.4-0.6l-2.996-9.981  c3.195-1.995,4.193-5.389,3.988-8.978l-0.599-2.2c2.799-2.99,6.788-3.593,8.584-7.177l-0.599-0.603  c-3.792-0.594-10.975,2.795-11.574-2.99c-1.796-2.399-4.387-3.593-7.785-2.994c-1.393-4.193-2.791-7.786-4.192-11.773  c-1.792,3.591-2.589,7.381-3.988,10.974c-2.593,0.395-5.388,0.599-7.183,2.795c-0.398,1.392-1.995,2.192-1.995,3.788  c-3.993,0.804-7.981,0.404-11.972,0.404c-0.404-2.998-0.404-6.388,2.19-8.388c0.603-0.196,1.597,0.404,1.997-0.594  c-0.799-2.395-3.589-0.4-5.59-0.999c2.2-1.995,5.988-1.796,8.783-0.794c2.795,0.994,3.793,4.183,6.788,4.985l0.595-0.599  c-2.593-4.387-3.389-10.979,0-14.966c-0.595,1.392-0.595,2.789,0,4.391c1.602,0.195,1.602-2.2,3.196-2.594  c2.792-0.404,5.188,1.193,7.779,1.393c2.799-0.4,5.988-2.795,8.582-0.4c0.4,0.804,0.999,1.997,1.997,1.403  c0-1.597-0.4-3.594-0.999-4.995C513.53,339.149,514.528,341.948,514.727,344.942"/>
<path fill="#006342" d="M483.994,343.146c-0.999-0.203-2.395,0.594-2.994-0.603l0.203-1.797  C482.198,341.544,484.193,341.35,483.994,343.146"/>
<path fill="none" stroke="#006342" stroke-width="2.5802" stroke-miterlimit="3.864" d="M483.994,343.146  c-0.999-0.203-2.395,0.594-2.994-0.603l0.203-1.797C482.198,341.544,484.193,341.35,483.994,343.146z"/>
<path fill="#006342" d="M520.516,343.944l-1.401,0.195c-0.6-0.195-0.395-1.597-0.196-2.192l1.394-1.202  C520.912,341.35,521.111,342.942,520.516,343.944"/>
<path fill="none" stroke="#006342" stroke-width="2.5802" stroke-miterlimit="3.864" d="M520.516,343.944l-1.401,0.195  c-0.6-0.195-0.395-1.597-0.196-2.192l1.394-1.202C520.912,341.35,521.111,342.942,520.516,343.944z"/>
<path fill="#006342" d="M464.438,348.931c0.398,10.78-8.382,19.555-17.36,24.345c-3.394,0-6.189,2.795-9.782,0.999  c-1.792,0.403-3.392-0.795-5.186-1.394v-0.603l6.784-7.386c2.395-5.58,3.593-11.968,8.783-15.96  C452.063,344.743,459.648,346.136,464.438,348.931"/>
<path fill="#006342" d="M560.024,354.919c1.602,6.579,4.79,12.966,10.58,17.558c-2.196,2.001-5.984,1.198-8.783,2.2  c-7.382-1.402-14.365-5.194-18.959-11.978c-3.19-3.992-4.189-9.577-4.788-14.363c5.19-2.2,12.572-3.394,17.16,0.794L560.024,354.919  z"/>
<path d="M554.239,359.111c0.599,6.587,8.18,10.571,13.569,12.572c0,0.993-0.798,1.393-1.597,1.393  c-6.786-2.192-13.365-7.186-14.562-14.564c-1.798-5.19-7.591-6.388-11.779-8.584c1.198-2.395,4.392,0,6.388,0.2  C549.252,352.52,553.446,354.919,554.239,359.111"/>
<path d="M462.442,349.729c-1.198,2.196-4.39,1.398-5.987,3.195c-7.182,2.795-5.789,11.773-11.773,15.761  c-2.596,2.594-6.189,3.992-9.777,4.59c-0.599-0.199-0.599-0.798-0.599-1.397c2.99-1.597,6.384-2.594,9.179-4.587  c6.184-4.791,4.192-14.168,12.971-16.963C458.251,349.928,461.046,348.132,462.442,349.729"/>
<path d="M530.094,352.324c0,4.591,1.597,8.584,3.389,12.173c0.802,2.795-1.198,4.786-3.195,5.984c-0.599,0-0.993,0.404-1.393,0  c3.593-3.584-1.003-7.177-1.996-10.575c-0.999-2.99,0.597-8.385-4.193-8.779c1.198-1.593,3.997-1.198,5.99-0.404L530.094,352.324z"/>
<path fill="#F2B227" d="M622.687,350.926c4.587,3.195,9.378,7.586,9.977,13.366c0.2,6.388,0.599,11.978,3.195,17.566  c-0.395,1.193-1.593,0.395-2.596,0.799c-8.379,1.596-16.165,4.592-23.941,7.177l-1.401,1.007c-1.398,9.972,0,20.353,2.994,29.331  c-0.599,2.791-0.199,5.984-2.395,7.78c-1.593-1.596-3.195-2.794-4.991-3.987c-1.392,2.191,1.198,4.188-0.195,6.384  c-0.798,4.786-4.791,8.379-9.183,9.581c-0.599-1.996-2.192-3.793-3.39-5.789c0.795-2.395,5.984-2.395,4.987-5.785  c-3.593-0.999-6.783,0.798-10.376,0.395c-7.581,1.198-13.77,5.19-22.154,4.391c-2.192-1.602,0.4-3.593-0.395-5.389  c-3.398,0.199-6.587,1.401-8.582,4.392c-1.798,6.987-9.978,4.786-14.369,8.379c-2.196-1.987-2.795-5.186-3.789-7.981  c0.395-2.994,3.988-2.994,6.185-3.987c1.995-2.795,6.583-4.792,6.187-8.789c-4.99-0.798-8.184,4.995-13.373,5.19  c-2.196,0-4.193,0.803-5.99-0.398c0.599-2.787-0.993-5.59,0.599-8.182c8.584-0.798,17.168-0.402,25.748-1.001  c2.994,1.001,5.785,2.998,8.978,4.192c5.389,1.606,11.773,3.593,17.962,1.796c3.993-1.388,8.18-2.586,11.974-4.583  c-6.787-11.572-14.764-25.347-9.982-38.918c1.003-5.189,2.395-11.378,7.985-14.367v-1.394c-2.994-0.997-5.785,0.596-9.183,0  c2.994-0.997,6.189-0.607,8.984-2.199c0-2.192-2.996-1.796-4.192-3.389C599.74,355.918,611.109,352.723,622.687,350.926"/>
<path fill="#F2B227" d="M414.151,356.716l-4.791,2.795c1.996,2.192,5.587,2.391,8.581,2.595c-2.395,1.987-7.586-2.395-8.981,1.788  c8.981,4.591,7.783,14.972,9.979,23.355c-0.599,10.971-6.787,20.553-11.974,29.925c5.987,2.805,12.372,5.2,19.754,5.2  c6.785-1.606,13.371-2.995,19.159-6.995c8.18,1.202,17.558-0.192,26.142,1.202c1.996,2.391-0.798,4.985,0.4,7.98  c-2.394,2.2-4.991-0.398-7.584,0l-9.18-4.99c-1.198,0-2.596,0.199-2.395,1.606c1.996,4.782,7.186,8.375,12.174,9.772  c0.599,3.793-1.198,6.987-3.192,9.777c-2.795-1.193-3.795-2.994-7.186-2.59c-8.381,0.794-7.183-11.375-16.165-10.181  c-0.996,1.403,1.996,2.994,0.202,4.592c-4.392,1.997-8.981-0.4-13.572-0.595c-5.59-3.593-12.772-2.594-18.957-3.394  c-0.996,0.195-0.996,1.597-0.4,1.993l5.19,3.392c-1,2.596-3.795,3.789-3.993,6.584c-4.189-1.392-8.382-5.186-8.981-9.976  c-1.198-1.993,0.999-4.192,0.201-5.99c-2.196,0-3.389,2.596-5.186,3.798c-3.992-4.796-1.796-11.574-0.4-17.164  c2.196-5.189,0.4-12.177,0.999-17.566c0.199-2.395-1.796-3.987-3.793-4.187c-7.982-2.791-15.766-5.389-24.345-6.583  c2.596-6.987,2.991-14.373,3.988-21.95c1.796-3.992,5.388-6.787,8.782-9.782l27.142,5.391L414.151,356.716z"/>
<path fill="#E32B45" d="M501.556,354.72c-0.599-0.201-1.003-0.798-0.599-1.397C501.751,353.323,501.357,354.121,501.556,354.72"/>
<path fill="none" stroke="#E32B45" stroke-width="1.2885" stroke-miterlimit="3.864" d="M501.556,354.72  c-0.599-0.201-1.003-0.798-0.599-1.397C501.751,353.323,501.357,354.121,501.556,354.72z"/>
<path fill="#F2B227" d="M500.359,360.11c3.19-0.4,3.992-4.991,7.785-3.394c1.198,0.599,2.192,1.393,2.592,2.795  c0.4,2.391-2.196,3.792-3.19,5.785c1.993,1.193,4.587,1.6,6.185,3.988c0,1.801,0,3.193-1.198,4.391  c-2.196,2.596-4.791-0.999-6.987,1.397c-0.395,1.997-0.994,4.392-3.195,4.991c-1.392,0.799-2.789,0.199-3.987-0.599  c-0.997-1.597-1.597-3.793-1.597-5.389c-2.395-0.8-4.988,0.997-7.183-0.999c-1-1.393-1.796-3.792,0-5.389  c0.997-1.987,7.183-1.392,3.791-4.591c-1.596-0.79-2.193-2.586-1.596-4.388c1.395-1.392,3.394-3.788,5.589-1.991  C498.762,357.11,499.76,358.707,500.359,360.11"/>
<path d="M505.944,365.295c0.599,1.602,0.404,4.387,0,5.789c-1.797,1.593-4.388,1.991-6.983,1.593  c-2.196-1.398-3.593-3.195-3.394-5.781c0.602-2.2,2.596-4.397,4.987-4.791C502.554,362.5,505.345,362.904,505.944,365.295"/>
<path fill="#E32B45" d="M488.785,363.303c-0.4,0.395-0.999,0.195-1.397-0.209l-0.402-0.394  C487.588,362.305,488.583,362.5,488.785,363.303"/>
<path fill="none" stroke="#E32B45" stroke-width="1.2885" stroke-miterlimit="3.864" d="M488.785,363.303  c-0.4,0.395-0.999,0.195-1.397-0.209l-0.402-0.394C487.588,362.305,488.583,362.5,488.785,363.303z"/>
<path fill="#E32B45" d="M515.326,362.7c-0.2,0.603-0.999,1.193-1.597,1.193C513.53,362.904,514.528,362.5,515.326,362.7"/>
<path fill="none" stroke="#E32B45" stroke-width="1.2885" stroke-miterlimit="3.864" d="M515.326,362.7  c-0.2,0.603-0.999,1.193-1.597,1.193C513.53,362.904,514.528,362.5,515.326,362.7z"/>
<path d="M606.926,363.893c-1.198,2.596-4.596,1.602-6.587,2.795c-5.59,2.2-9.382,7.989-9.981,13.574  c-0.998,5.19,0,9.773,2.595,13.969c0,0.594-0.599,1.193-1.198,1.597c-4.391-4.985-5.186-13.969-2.594-20.552  c1.796-7.391,9.981-10.984,16.364-12.372C606.124,362.905,606.723,363.303,606.926,363.893"/>
<path d="M410.955,372.277c2.795,5.59,3.793,13.974,1.198,20.158c-0.797,1.193-0.999,3.392-2.99,3.788l-0.801-0.993  c3.99-5.395,4.591-15.566,0.801-21.556c-3.195-5.385-8.982-7.186-14.174-8.582c-0.794-0.595-0.394-1.593,0.4-1.788  C401.377,364.093,407.763,366.488,410.955,372.277"/>
<path fill="#F2B227" d="M503.154,368.09c-0.599,0.798-0.803,1.193-1.597,1.392c-1.003-0.199-2.395-0.594-2.395-1.796  c0.199-0.789,0.799-1.987,1.991-1.987C502.35,365.494,503.154,366.897,503.154,368.09"/>
<path d="M656.016,380.861c-2.196,10.372-12.372,16.76-13.77,27.539c0.799,2.2,1.593,4.991,4.189,5.781  c0.802-3.19,1.198-6.578,3.193-8.97c0.599-0.404,0.999,0.394,1.198,0.794c-0.4,3.394-2.99,6.379-1.597,9.972  c1.997,2.604,4.392,4.6,7.183,4.791c0.203,0.408,0.403,0.799,0.203,1.203c-2,1.392-4.192-0.196-5.789-0.999  c-2.795-1.403-3.193-5.984-6.987-5.186c-2.395-2.205-3.39-4.991-3.789-7.985c1.993-12.376,14.968-20.353,15.164-33.527l0.802-0.599  C658.611,375.276,656.016,378.661,656.016,380.861"/>
<path d="M347.297,379.663c1.397,11.773,15.167,18.357,13.969,30.937c-0.799,2.387-1.997,4.388-3.793,5.781  c-3.99,0.404-5.187,5.59-8.978,6.783c-1.398-0.199-2.395,0.398-3.394-0.599c-0.199-2.196,2.395-0.999,3.394-1.796  c1.198-1.593,3.791-2.592,4.19-4.792c0.997-3.784-2.195-6.179-2.395-9.573c0.201-0.599,0.799-0.599,1.398-0.599  c1.795,2.594,2.993,5.186,2.993,8.375c0.799,1.007,1.397-0.191,2.193,0c1.597-2.19,3.195-4.581,2.395-7.173  c-3.593-11.179-14.568-18.165-14.568-30.537c-0.798-0.6-0.398-1.792,0.599-1.993C347.097,375.072,346.898,377.867,347.297,379.663"/>
<path fill="#006342" d="M472.021,375.671c-0.398,0.798-0.398,2.795-1.994,2.4c-0.401,0-0.801,0-1-0.408  C469.626,376.469,471.023,375.671,472.021,375.671"/>
<path fill="none" stroke="#006342" stroke-width="2.5802" stroke-miterlimit="3.864" d="M472.021,375.671  c-0.398,0.798-0.398,2.795-1.994,2.4c-0.401,0-0.801,0-1-0.408C469.626,376.469,471.023,375.671,472.021,375.671z"/>
<path fill="#006342" d="M532.884,379.26c-1.397-0.195-3.193,0-3.793-1.392C530.493,376.27,532.685,377.468,532.884,379.26"/>
<path fill="none" stroke="#006342" stroke-width="2.5802" stroke-miterlimit="3.864" d="M532.884,379.26  c-1.397-0.195-3.193,0-3.793-1.392C530.493,376.27,532.685,377.468,532.884,379.26z"/>
<path fill="#E32B45" d="M493.774,378.071c-0.202,0.795-1.198,1.189-1.799,1.593c-0.397-0.599,0.202-1.198,0.602-1.796  C492.973,377.867,493.374,377.662,493.774,378.071"/>
<path fill="none" stroke="#E32B45" stroke-width="1.2885" stroke-miterlimit="3.864" d="M493.774,378.071  c-0.202,0.795-1.198,1.189-1.799,1.593c-0.397-0.599,0.202-1.198,0.602-1.796C492.973,377.867,493.374,377.662,493.774,378.071z"/>
<path fill="#E32B45" d="M509.941,379.663v0.201c-0.804,0.199-1.602-0.605-1.198-1.597  C509.737,377.867,509.737,379.064,509.941,379.663"/>
<path fill="none" stroke="#E32B45" stroke-width="1.2885" stroke-miterlimit="3.864" d="M509.941,379.663v0.201  c-0.804,0.199-1.602-0.605-1.198-1.597C509.737,377.867,509.737,379.064,509.941,379.663z"/>
<path d="M598.143,386.251c-0.4,2.59,2.99,4.983,1.193,7.577c-2.791-0.999-2.791-4.188-3.39-6.578c0.201-2.2,0-5.19,2.196-6.388  C600.339,382.059,598.143,384.455,598.143,386.251"/>
<path d="M405.37,389.046c-0.798,1.987-1.198,4.583-3.394,5.186c-2.791-1.602,1.398-3.59,1.198-5.59  c0.4-2.391-0.199-4.592-0.798-6.782c0.599-0.605,1.796-0.8,2.196,0.199C406.166,383.856,405.17,386.845,405.37,389.046"/>
<path fill="#006342" d="M501.153,398.619l-0.794,2c-0.4-0.802-1.997-2.399-0.599-3.796  C500.16,397.221,501.153,397.825,501.153,398.619"/>
<path fill="none" stroke="#006342" stroke-width="2.5802" stroke-miterlimit="3.864" d="M501.153,398.619l-0.794,2  c-0.4-0.802-1.997-2.399-0.599-3.796C500.16,397.221,501.153,397.825,501.153,398.619z"/>
<path fill="#F2B227" d="M470.824,405.605l-0.199,0.999c-1.597-1.393-3.593,0.599-5.189,1.198c-0.397-0.599-0.997-2.399-0.801-3.793  C466.633,403.01,470.225,402.81,470.824,405.605"/>
<path fill="#F2B227" d="M537.28,404.009c-0.804,1.202,0,3.193-0.804,4.192c-0.993-1.393-2.19-1.991-3.792-2.196  c-0.599,0.4-0.994,0.804-1.796,1.003c-0.994-2.399,1.796-2.998,2.994-3.593C535.28,402.811,535.879,404.409,537.28,404.009"/>
<path fill="#F2B227" d="M551.648,411.195l-0.599,0.599h-10.38c-0.998-0.599-0.4-2.195-1.198-2.99  c0.999-1.602,0.199-3.402,1.796-4.596C545.66,404.608,548.454,408.4,551.648,411.195"/>
<path fill="#F2B227" d="M462.244,407.203l-0.599,4.786c-3.793-0.195-7.985,0.205-11.773-0.394c2.391-2.996,5.783-5.387,8.779-7.187  C461.245,403.415,461.245,406.005,462.244,407.203"/>
<path fill="#F2B227" d="M482.797,417.583v1.593c-1.797-1.796-4.192,0.999-5.586-0.205c0.4-1.592-1.003-3.591,0.599-4.187  C479.602,415.379,481.999,415.583,482.797,417.583"/>
<path fill="#F2B227" d="M525.103,414.988c-0.4,1.393-0.195,3.189-0.195,4.583c-1.798-0.192-4.392-2.587-5.793,0  c-0.196-0.99-0.6-2.192,0.402-3.19C521.111,415.379,523.307,415.187,525.103,414.988"/>
<path fill="#F2B227" d="M475.61,434.143c-0.195,0.804,0.404,1.792-0.395,2.196c-0.603-0.404-1.597-1.392-2.795-1.597l-2.595,0.599  c0-1.397,0.599-3.193,1.198-4.391C472.221,432.545,475.61,431.348,475.61,434.143"/>
<path fill="#F2B227" d="M532.285,434.946c-1.792,0.191-3.988-0.603-5.385,1.193c-1.198-1.193-0.4-2.391,0.403-3.793  c1.394-0.394,2.592-1.193,4.185-1.397L532.285,434.946z"/>
<path fill="#F2B227" d="M588.965,433.943c0.394,3.19-2.201,5.988-4.791,7.985c-0.404-1.593-1.198-3.993-3.389-4.591  c-1.003,0.199-2.6,0.394-2.799,1.995c-0.599,1.997-0.794,4.987-3.389,5.381c-0.4,0.4-0.999,0.209-1.597,0.209  c0.599-2.399-1.196-3.793-1.397-5.789C577.586,438.135,582.776,434.542,588.965,433.943"/>
<path fill="#F2B227" d="M430.114,439.333c0.199,1.995-2.595,3.988-0.999,6.189c-1.393-0.205-3.193-0.808-4.391-2.2  c-1.198-1.796-0.201-4.782-2.791-5.785c-1.796,0.398-2.994,1.597-3.793,3.189c-0.199,0.603,0.4,1.393-0.398,1.798  c-2.394-1.997-4.991-4.589-4.59-7.981c5.189,0,9.575,3.392,14.766,4.188L430.114,439.333z"/>
<path fill="#F2B227" d="M566.013,438.93c-0.599,3.792-1.992,8.388-5.988,9.981c-1.993,0.203-3.988,0-4.987-1.796  c-0.394-4.591,2.196-7.981,3.993-11.569C561.421,436.539,563.018,440.335,566.013,438.93"/>
<path fill="#F2B227" d="M447.078,446.51c-0.599,1.198-1.398,2.994-2.795,2.795c-2.792,0.603-4.791-1.394-5.987-3.19  c-1.397-2.2-2.198-4.591-2.395-6.981c3.195,1.202,4.392-1.796,6.586-3.4C445.081,438.54,446.678,442.723,447.078,446.51"/>
<path fill="#F2B227" d="M445.68,492.015c9.179,13.167,16.162,27.735,24.347,41.508c1.196,1.797,0,3.793-0.401,5.391  c-1.397,1.796-3.394,3.185-5.785,3.389c-2.395,0.398-3.792-1.593-4.791-3.389c-0.4-2.401-1.796-4.792-3.394-6.588  c-0.599-0.203-1.198,0.603-1.397,0.999c0.798,3.593,3.394,6.183,3.992,9.777c-0.599,1.597-1.796,3.193-3.394,3.388  c-1.997,0.604-3.793-0.39-5.19-1.393c-1.392-2.794-0.199-6.786-2.59-8.779c-0.6-0.199-1.199,0.195-1.398,0.8  c-0.599,3.593,3.593,7.979-1.397,9.976c-1.198,1.397-3.195,0.997-4.591,0.802c-1.395-1.003-4.388-2.599-3.391-4.391  c0.201-2.2,0.798-4.197,0.996-6.388c-0.398-0.404-0.795-1.202-1.596-0.8c-1.797,0.599-0.196,2.787-1.198,3.789  c-0.795,2.399-0.198,5.584-3.192,6.587c-2.195,0.199-3.991-0.4-5.389-1.597c-1.996-4.387,2.395-7.586,2.596-11.773  c-0.4-0.395-0.795-1.202-1.597-0.798c-3.593,2.994-1.997,11.777-8.98,9.777c-1.996-0.799-4.788-2.392-5.189-4.792v-3.988  c7.785-13.37,15.165-27.335,23.549-40.306C438.097,490.619,443.285,488.222,445.68,492.015"/>
<path d="M452.667,512.772c0,0.594-0.404,1.198-0.999,1.388c-2-0.794-2-3.589-3.394-5.184c-2.395-2.787-3.394-6.385-6.987-8.385  c-3.589,2.604-4.189,7.387-6.785,10.58c-0.599,0.201-1.198,0-1.395-0.599c1.796-4.382,3.394-9.173,7.382-12.168  C446.878,499.602,449.669,507.382,452.667,512.772"/>
<path fill="#F2B227" d="M465.833,498.803c-1.795,1.788-4.187,4.188-6.783,5.186l-2.195-3.789  C459.45,499.198,462.841,499.198,465.833,498.803"/>
<path fill="#F2B227" d="M425.523,499.792c0.199,1.202-1.193,2.594-1.792,3.997c-2.6-0.199-4.791-2.994-6.788-4.985L425.523,499.792z  "/>
<path fill="#F2B227" d="M638.254,514.764c-0.2,1.193-0.2,3.394,0,4.392c-1.397-0.4-3.195-1.997-4.791-0.8l-0.799,0.8  c-0.599-1.593-0.195-3.794,1.796-4.189C635.859,515.363,637.056,514.161,638.254,514.764"/>
<path fill="#F2B227" d="M369.647,517.563l-0.4,1.796c-1.392-2.2-3.389,0.191-5.19,0c0-1.405-0.594-3.199-0.195-4.391  C365.658,516.16,369.052,514.763,369.647,517.563"/>
<path fill="#F2B227" d="M644.841,532.122c-2.001-0.989-4.792-1.593-6.384,0.203c-0.802-1.796,0.59-3.392,1.991-4.186  c1.398,0.794,2.596-0.408,3.988-0.408L644.841,532.122z"/>
<path fill="#F2B227" d="M362.863,529.731c0.599,1.198,0.199,1.797,0.4,2.994c-0.999-0.994-2.795-1.593-3.992-0.802l-1.198,0.603  c-0.4-1.394-0.4-2.795-0.599-4.198C359.271,528.733,361.465,527.935,362.863,529.731"/>
<path fill="#F2B227" d="M477.407,552.674c-1.198,2-3.389,2.803-5.385,3.402l-4.789-1.202c-2.193-2.994-3.193-6.384-4.589-9.577v-0.4  c4.188,0.199,7.98-1.796,9.776-5.59l0.4-0.798C474.817,543.102,480.202,547.094,477.407,552.674"/>
<path fill="#F2B227" d="M420.736,545.098l-4.192,9.373c-1.796,1.007-3.793,2.2-5.987,1.606c-2.795-0.404-5.187-2.596-5.987-5.39  c-0.199-4.792,4.188-7.786,5.589-11.978C411.755,542.902,416.345,544.897,420.736,545.098"/>
<path fill="#F2B227" d="M652.822,544.303c-1.597-0.407-3.993-1.796-5.789-0.203c0-1.198,0.203-2.994,1.796-3.389  c1.198,0.395,2.395-0.798,3.794-0.408L652.822,544.303z"/>
<path fill="#F2B227" d="M355.078,542.507l-0.198,2.391c-0.801-1.193-2.595-1.193-3.791-0.594c-0.398,0.195-0.801,0.794-1.397,0.594  l-0.4-3.997C351.287,541.504,353.883,540.71,355.078,542.507"/>
<path fill="#F2B227" d="M464.238,555.673c0,1.796-1.397,3.398-2.994,3.997c-2.593,0.594-5.987,2.188-8.382,0  c-1.996-3.202-1.394-7.387-2.795-10.779c3.394,0.997,7.187,0,9.782-2.791L464.238,555.673z"/>
<path fill="#F2B227" d="M432.707,548.89c-0.796,3.988-0.796,8.984-4.19,11.769c-2.395,0.798-4.99,0-7.182-0.798  c-6.388-3.785,1.198-8.984,1.796-13.565C425.328,548.89,429.515,549.692,432.707,548.89"/>
<g>
	<path fill="#F2B227" d="M568.807,495.404c7.786,12.372,14.769,24.944,21.751,37.525c0.398,1.987,0.203,4.782-0.799,6.579   c-2.196,1.796-4.587,2.998-7.382,2.399c-3.388-2.399-3.593-6.388-6.187-9.583c-0.795-0.594-1.198,0.201-1.796,0.604   c1.198,3.987,4.596,7.78,2.994,11.968c-1.394,1.202-3.593,2.196-5.586,1.202c-1.996-0.408-1.397-2.998-1.996-4.391   c-0.799-2.001-0.599-4.591-2.395-5.793c-1.796,1.596-0.2,5.19,0.199,7.59c-0.199,2.186-2.795,3.589-4.786,4.188   c-2.994,1.198-4.192-1.796-5.794-2.994c-0.994-3.195,2.799-6.388,0-8.783l-1.198,0.599c-1.991,3.193,0.802,7.789-3.789,9.585   c-1.198,0.595-3.388,0.795-4.587-0.203c-4.391-4.392,1.796-8.385,1.993-12.966c-0.599-0.808-1.394-1.007-2.192-0.205   c-2.994,2.99-1.796,11.974-8.779,8.984c-1.796-0.808-3.798-1.602-4.596-3.593l-0.4-5.186c8.186-13.975,15.172-28.941,25.547-41.916   C563.018,487.827,566.611,492.415,568.807,495.404"/>
	<path d="M570.005,510.376c-0.599,0.599-1.198,0.994-1.796,0.599c-1.796-3.398-2.99-7.386-5.59-10.385   c-4.188,0.603-4.99,5.389-7.387,8.184c-1.188,1.796-1.786,4.995-4.183,4.995l-0.599-0.603c2.592-5.391,5.186-12.373,11.37-15.173   C566.611,500.199,568.408,505.785,570.005,510.376"/>
	<path fill="#F2B227" d="M586.166,498.594c-1.993,1.796-3.584,3.997-6.185,5.194c-1.592-0.798-1.397-2.795-2.395-3.997   C580.785,499.601,582.975,498.594,586.166,498.594"/>
	<path fill="#F2B227" d="M546.454,499.601c-0.994,1.593-1.796,4.388-3.389,3.784l-5.389-4.581L546.454,499.601z"/>
	<path fill="#F2B227" d="M598.143,552.674c-1.796,1.797-4.192,3.593-7.382,3.199c-5.195-1.199-5.589-7.182-7.984-10.975   c4.391,0,8.779-2.799,10.379-6.783C595.348,542.702,600.938,546.894,598.143,552.674"/>
	<path fill="#F2B227" d="M537.475,544.303c1.003,0.595,2.595,0.195,3.993,0.395c-2.795,3.993-2.196,12.575-9.382,11.378   c-2.592-0.203-4.782-1.796-6.185-3.792c-2.395-5.793,2.994-9.583,4.987-14.168C531.69,541.305,534.68,543.101,537.475,544.303"/>
	<path fill="#F2B227" d="M584.968,556.267c-1.392,3.593-5.381,4.392-8.574,4.392c-1.199-0.396-2.996-0.599-3.199-1.993   c0-0.793,0-1.602-0.599-2.199c-0.196-2.591-0.994-4.987-1.392-7.577c3.392,0.597,6.587-0.4,8.779-3.199   C582.378,548.891,583.77,552.674,584.968,556.267"/>
	<path fill="#F2B227" d="M553.241,548.491c-0.798,3.195-0.599,7.182-2.192,10.372c-0.599,1.796-2.595,1.401-3.997,1.995   c-2.19-0.798-5.186-0.594-6.782-2.985l-0.799-1.796l4.392-9.782C546.259,548.89,550.046,549.693,553.241,548.491"/>
	<path fill="#F2B227" d="M568.408,548.491c0.599,3.992,1.198,7.776,1.996,11.569c-1.996,4.795-8.18,3.593-11.972,3.394   c-2.001-0.395-3.593-1.796-4.591-3.785c0.203-3.593,1.991-7.385,1.991-11.178c2.395,0.4,4.596,2.99,7.786,1.792   c1.6-0.199,2.795-1.792,4.192-2.59L568.408,548.491z"/>
</g>
<path fill="#F2B227" d="M448.275,551.685c0.798,3.19,1.597,6.379,0.798,9.578c-2.794,3.388-8.584,3.189-12.571,1.996  c-1.4-0.603-3.196-2.2-3.593-3.589c0.397-3.798,1.794-7.187,2.395-10.979c1.594-0.599,2.792,1.593,4.387,1.996  c2.596,0.191,5.389-0.199,7.386-2.399C448.275,548.691,447.676,550.686,448.275,551.685"/>
<path fill="#F2B227" d="M512.532,593.788c5.984,10.575,12.173,21.155,17.962,31.726c-0.999,0.808,0.199,1.796,0,2.6  c0.199,2.789-1.796,4.786-3.993,5.785c-1.593,1.393-3.389,0.404-4.991,0.199c-2.395-2.99-2.59-7.177-5.385-9.772  c-0.798,0-1.397,0.798-1.597,1.392l3.195,7.182c-0.201,1.602,0.599,3.398-0.799,4.987c-1.397,1.198-3.593,2.004-5.189,0.807  c-3.394-2.2-1.398-7.387-4.591-9.977l-1.199,1.198c0.201,2.985,2.996,6.578-0.398,8.779c-1.398,1.39-3.389,2.188-5.385,1.593  l-3.594-3.39c0-2.594,2.596-5.59,0.4-7.985c-0.797-0.195-1.397,0.4-1.596,0.799c-0.797,3.392,0,8.176-4.389,9.373  c-0.997,0.599-2.795,0.599-3.792-0.201c-3.792-4.581,1.395-8.779,1.994-13.165c-0.198-0.4-0.397-1.193-0.997-1.392l-0.797,0.39  l-4.392,9.183c-1.397,1.202-3.792,0.798-5.186,0.404c-1.797-0.999-4.192-2.592-4.59-4.792v-3.792  c6.786-13.167,14.367-26.542,22.348-39.313c1.996-1.198,2.795-3.997,5.19-4.387C506.946,582.218,509.538,589.4,512.532,593.788"/>
<path d="M509.737,601.573c-0.201,0.595-0.201,1.397-0.994,1.597l-0.802-0.4c-1.593-3.398-2.99-7.382-5.984-9.976  c-3.594,1.392-4.991,5.389-7.187,8.18c-1.198,1.796-1.597,5.186-3.993,4.985l-0.594-0.798c2.593-5.584,5.586-11.978,11.57-14.962  C506.542,591.996,507.545,597.584,509.737,601.573"/>
<path fill="#F2B227" d="M485.789,591.591c0.202,1.403-0.996,2.595-1.994,3.993c-2.196-0.798-4.591-3.195-6.388-5.19L485.789,591.591  z"/>
<path fill="#F2B227" d="M525.901,590.394c-1.397,2.399-3.988,3.792-6.187,5.19c-1.394-0.603-1.394-2.59-2.192-3.789  C520.117,590.997,523.111,590.997,525.901,590.394"/>
<path fill="#F2B227" d="M538.274,644.079c-1.397,3.189-4.791,4.587-7.985,4.387c-4.782-1.397-4.985-7.182-7.177-10.775  c0.599-0.794,2.59-0.404,3.789-0.994c2.395-1.202,5.385-3.394,5.783-6.183C535.081,634.697,539.471,638.694,538.274,644.079"/>
<path fill="#F2B227" d="M480.8,637.288h0.404l-0.404,2.2l-4.188,7.984c-2.795,1.593-6.788,1.593-9.183-0.798  c-1.796-1.402-2.593-3.199-2.193-5.59c1.198-3.796,3.193-6.987,5.388-10.375C471.822,634.901,476.613,636.897,480.8,637.288"/>
<path fill="#F2B227" d="M524.704,648.666c-0.199,1.996-2.595,3.597-4.188,4.192c-2.395,0.205-4.591,1.202-6.588-0.398  c-2.394-2.99-1.397-7.382-2.994-10.376c0.8-0.999,1.997,0.394,3.195,0c2.196-0.395,4.387-1.593,5.586-3.793  C522.109,641.085,523.111,645.077,524.704,648.666"/>
<path fill="#F2B227" d="M489.182,642.287l3.791-1.202c0,2.19-0.397,4.187-0.999,5.984c0,1.597-0.397,3.593-1.395,4.991  c-2.193,1.596-4.791,1.397-7.184,1.003c-1.596-0.799-3.193-1.607-3.792-3.404c0.199-3.784,2.795-7.182,3.992-10.965  C484.793,640.88,487.188,641.284,489.182,642.287"/>
<path fill="#F2B227" d="M508.34,640.49c-0.195,4.782,5.389,12.164-1.393,15.362c-3.997,0.804-9.183,1.193-12.375-1.401  c-2.395-2.188,0.4-5.387-0.202-7.577c0.602-1.602,1.397-3.597,1.397-5.395c1.6-1.397,2.798,1.602,4.591,1.602  C503.549,644.079,505.749,641.479,508.34,640.49"/>
<g>
	<path fill="#010000" d="M184.572,791.241c0.349,0.18,0.748,0.546,1.195,1.1l34.812,44.803c-0.084-0.719-0.14-1.417-0.168-2.095   c-0.028-0.677-0.042-1.334-0.042-1.971v-42.107h7.13v59.448h-4.11c-0.644,0-1.181-0.11-1.615-0.332   c-0.434-0.221-0.86-0.595-1.279-1.121l-34.77-44.762c0.056,0.691,0.098,1.369,0.126,2.033c0.028,0.663,0.042,1.272,0.042,1.825   v42.356h-7.13v-59.448h4.194C183.684,790.971,184.222,791.061,184.572,791.241z"/>
	<path fill="#010000" d="M298.002,820.716c0,4.452-0.713,8.539-2.139,12.258c-1.426,3.72-3.439,6.922-6.039,9.603   c-2.6,2.684-5.725,4.764-9.374,6.244c-3.649,1.48-7.682,2.219-12.1,2.219c-4.419,0-8.445-0.739-12.079-2.219   c-3.635-1.479-6.753-3.56-9.353-6.244c-2.601-2.682-4.614-5.883-6.04-9.603c-1.426-3.719-2.139-7.806-2.139-12.258   c0-4.453,0.713-8.539,2.139-12.259c1.426-3.719,3.439-6.928,6.04-9.624c2.6-2.697,5.718-4.792,9.353-6.285   c3.634-1.494,7.661-2.24,12.079-2.24c4.418,0,8.451,0.746,12.1,2.24c3.649,1.493,6.774,3.588,9.374,6.285   c2.6,2.696,4.613,5.905,6.039,9.624C297.289,812.177,298.002,816.263,298.002,820.716z M289.656,820.716   c0-3.651-0.503-6.929-1.51-9.832s-2.433-5.358-4.278-7.363c-1.846-2.005-4.083-3.547-6.711-4.625   c-2.628-1.079-5.564-1.618-8.807-1.618c-3.216,0-6.138,0.539-8.766,1.618c-2.629,1.078-4.872,2.621-6.732,4.625   c-1.86,2.005-3.292,4.46-4.299,7.363c-1.007,2.904-1.51,6.181-1.51,9.832c0,3.65,0.503,6.921,1.51,9.811   c1.006,2.89,2.439,5.338,4.299,7.342c1.859,2.006,4.103,3.541,6.732,4.605c2.628,1.066,5.55,1.597,8.766,1.597   c3.243,0,6.179-0.532,8.807-1.597c2.628-1.064,4.865-2.599,6.711-4.605c1.845-2.005,3.271-4.452,4.278-7.342   S289.656,824.366,289.656,820.716z"/>
	<path fill="#010000" d="M318.049,825.611v24.808h-8.095v-59.448h16.986c3.802,0,7.088,0.38,9.856,1.141   c2.768,0.761,5.054,1.86,6.857,3.298c1.804,1.439,3.138,3.173,4.006,5.206c0.866,2.033,1.3,4.308,1.3,6.825   c0,2.101-0.335,4.065-1.007,5.89s-1.643,3.464-2.915,4.916c-1.272,1.452-2.824,2.69-4.656,3.713   c-1.831,1.023-3.907,1.798-6.228,2.323c1.007,0.581,1.901,1.425,2.685,2.53l17.531,23.605h-7.214c-1.482,0-2.573-0.566-3.271-1.701   l-15.602-21.24c-0.476-0.664-0.993-1.141-1.552-1.432c-0.559-0.29-1.398-0.435-2.516-0.435H318.049z M318.049,819.761h8.514   c2.376,0,4.467-0.283,6.27-0.85c1.803-0.567,3.313-1.369,4.53-2.406c1.216-1.038,2.132-2.275,2.747-3.713   c0.614-1.438,0.923-3.028,0.923-4.771c0-3.54-1.182-6.208-3.544-8.007c-2.363-1.798-5.879-2.696-10.548-2.696h-8.892V819.761z"/>
	<path fill="#010000" d="M401.891,790.971v6.762h-19.419v52.686h-8.137v-52.686h-19.503v-6.762H401.891z"/>
	<path fill="#010000" d="M459.183,850.419h-8.179v-27.048h-32.379v27.048h-8.179v-59.448h8.179v26.509h32.379v-26.509h8.179V850.419   z"/>
	<path fill="#010000" d="M523.31,850.419h-6.291c-0.727,0-1.314-0.179-1.761-0.539c-0.447-0.36-0.783-0.816-1.007-1.369   l-5.62-14.353h-26.968l-5.62,14.353c-0.196,0.498-0.532,0.94-1.007,1.328c-0.476,0.388-1.063,0.581-1.761,0.581h-6.291   l24.032-59.448h8.262L523.31,850.419z M483.928,828.349h22.439l-9.437-24.186c-0.615-1.494-1.216-3.36-1.803-5.601   c-0.308,1.135-0.608,2.178-0.901,3.133c-0.294,0.954-0.581,1.791-0.86,2.51L483.928,828.349z"/>
	<path fill="#010000" d="M561.498,831.025c0.293,0.733,0.58,1.473,0.86,2.219c0.279-0.773,0.572-1.514,0.881-2.219   c0.307-0.705,0.656-1.417,1.048-2.137l20.342-36.548c0.362-0.636,0.74-1.023,1.132-1.162c0.391-0.138,0.95-0.207,1.678-0.207h5.997   v59.448h-7.13v-43.684c0-0.581,0.013-1.203,0.041-1.867c0.028-0.663,0.069-1.34,0.126-2.033l-20.593,37.17   c-0.7,1.245-1.678,1.867-2.936,1.867h-1.175c-1.258,0-2.237-0.622-2.936-1.867l-21.054-37.295c0.084,0.72,0.146,1.425,0.188,2.116   c0.042,0.692,0.063,1.328,0.063,1.908v43.684h-7.131v-59.448h5.998c0.727,0,1.286,0.069,1.678,0.207   c0.391,0.139,0.768,0.526,1.132,1.162l20.761,36.589C560.861,829.594,561.204,830.293,561.498,831.025z"/>
	<path fill="#010000" d="M617.007,828.183v22.236h-8.094v-59.448h17.741c3.802,0,7.109,0.435,9.92,1.307   c2.81,0.871,5.138,2.109,6.983,3.712c1.845,1.605,3.222,3.541,4.131,5.808c0.908,2.268,1.363,4.799,1.363,7.591   c0,2.767-0.49,5.297-1.469,7.592c-0.979,2.296-2.411,4.273-4.298,5.933c-1.888,1.659-4.23,2.952-7.025,3.878   c-2.796,0.928-5.998,1.39-9.605,1.39H617.007z M617.007,821.794h9.647c2.32,0,4.369-0.304,6.144-0.912   c1.776-0.608,3.264-1.459,4.467-2.552c1.202-1.092,2.111-2.399,2.726-3.92c0.615-1.521,0.923-3.195,0.923-5.02   c0-3.788-1.182-6.748-3.545-8.878c-2.363-2.129-5.934-3.194-10.716-3.194h-9.647V821.794z"/>
	<path fill="#010000" d="M700.26,790.971v6.762h-19.419v52.686h-8.137v-52.686h-19.503v-6.762H700.26z"/>
	<path fill="#010000" d="M760.53,820.716c0,4.452-0.713,8.539-2.139,12.258c-1.426,3.72-3.439,6.922-6.04,9.603   c-2.6,2.684-5.724,4.764-9.374,6.244c-3.649,1.48-7.682,2.219-12.1,2.219c-4.418,0-8.444-0.739-12.079-2.219   c-3.635-1.479-6.753-3.56-9.353-6.244c-2.601-2.682-4.614-5.883-6.04-9.603c-1.426-3.719-2.139-7.806-2.139-12.258   c0-4.453,0.713-8.539,2.139-12.259c1.426-3.719,3.439-6.928,6.04-9.624c2.6-2.697,5.718-4.792,9.353-6.285   c3.635-1.494,7.661-2.24,12.079-2.24c4.418,0,8.451,0.746,12.1,2.24c3.649,1.493,6.774,3.588,9.374,6.285   c2.601,2.696,4.614,5.905,6.04,9.624C759.817,812.177,760.53,816.263,760.53,820.716z M752.184,820.716   c0-3.651-0.503-6.929-1.51-9.832c-1.006-2.904-2.432-5.358-4.278-7.363s-4.083-3.547-6.711-4.625   c-2.629-1.079-5.565-1.618-8.808-1.618c-3.216,0-6.137,0.539-8.765,1.618c-2.629,1.078-4.872,2.621-6.732,4.625   s-3.292,4.46-4.299,7.363c-1.006,2.904-1.51,6.181-1.51,9.832c0,3.65,0.504,6.921,1.51,9.811c1.007,2.89,2.439,5.338,4.299,7.342   c1.86,2.006,4.104,3.541,6.732,4.605c2.628,1.066,5.549,1.597,8.765,1.597c3.243,0,6.18-0.532,8.808-1.597   c2.628-1.064,4.865-2.599,6.711-4.605c1.845-2.005,3.271-4.452,4.278-7.342C751.681,827.637,752.184,824.366,752.184,820.716z"/>
	<path fill="#010000" d="M777.453,791.241c0.35,0.18,0.748,0.546,1.195,1.1l34.811,44.803c-0.084-0.719-0.14-1.417-0.168-2.095   c-0.028-0.677-0.042-1.334-0.042-1.971v-42.107h7.13v59.448h-4.11c-0.644,0-1.182-0.11-1.615-0.332   c-0.434-0.221-0.859-0.595-1.279-1.121l-34.769-44.762c0.055,0.691,0.097,1.369,0.125,2.033c0.028,0.663,0.042,1.272,0.042,1.825   v42.356h-7.131v-59.448h4.195C776.565,790.971,777.103,791.061,777.453,791.241z"/>
</g>
<g>
	<path fill="#010000" d="M262.077,890.351c-0.695,1.373-1.499,2.339-2.412,2.901c-0.915,0.562-2.003,0.842-3.264,0.842   c-1.263,0-2.681-0.482-4.257-1.45c-1.577-0.966-3.438-2.043-5.581-3.228c-2.145-1.185-4.652-2.26-7.521-3.228   c-2.871-0.966-6.26-1.451-10.17-1.451c-3.532,0-6.607,0.421-9.223,1.263c-2.618,0.842-4.825,2.012-6.622,3.509   c-1.798,1.497-3.138,3.291-4.021,5.38c-0.884,2.091-1.325,4.384-1.325,6.878c0,3.181,0.899,5.833,2.696,7.953   c1.798,2.122,4.177,3.93,7.142,5.428c2.964,1.497,6.339,2.84,10.123,4.023c3.784,1.186,7.647,2.449,11.589,3.79   c3.941,1.342,7.805,2.901,11.589,4.679c3.784,1.778,7.157,4.024,10.123,6.738c2.964,2.713,5.345,6.035,7.142,9.965   c1.798,3.93,2.696,8.703,2.696,14.317c0,6.114-1.057,11.836-3.17,17.17c-2.113,5.334-5.203,9.981-9.271,13.942   c-4.068,3.962-9.035,7.081-14.9,9.357c-5.865,2.276-12.582,3.416-20.151,3.416c-4.351,0-8.641-0.421-12.866-1.264   c-4.226-0.842-8.278-2.042-12.156-3.602c-3.879-1.559-7.506-3.43-10.879-5.614c-3.375-2.182-6.386-4.616-9.035-7.298l7.379-12.071   c0.693-0.874,1.528-1.606,2.507-2.2c0.977-0.591,2.065-0.889,3.264-0.889c1.576,0,3.279,0.641,5.109,1.918   c1.828,1.279,3.988,2.699,6.48,4.258c2.491,1.56,5.423,2.979,8.798,4.258c3.373,1.279,7.426,1.918,12.156,1.918   c7.252,0,12.866-1.699,16.84-5.1c3.973-3.399,5.96-8.281,5.96-14.644c0-3.555-0.899-6.456-2.696-8.702   c-1.798-2.246-4.179-4.132-7.142-5.661c-2.965-1.528-6.339-2.822-10.123-3.884c-3.784-1.06-7.632-2.213-11.542-3.462   c-3.911-1.248-7.758-2.745-11.542-4.492c-3.784-1.745-7.159-4.023-10.123-6.83c-2.965-2.807-5.345-6.317-7.142-10.527   c-1.798-4.211-2.696-9.404-2.696-15.579c0-4.927,0.993-9.731,2.98-14.41c1.986-4.679,4.886-8.827,8.703-12.446   c3.815-3.617,8.498-6.518,14.049-8.702c5.549-2.183,11.887-3.275,19.015-3.275c8.072,0,15.515,1.249,22.326,3.743   c6.811,2.495,12.613,5.989,17.407,10.48L262.077,890.351z"/>
	<path fill="#010000" d="M410.508,1001.048h-19.677c-2.208,0-4.021-0.545-5.439-1.637c-1.419-1.091-2.445-2.448-3.075-4.071   L372.1,967.736h-56.667l-10.217,27.604c-0.506,1.436-1.499,2.746-2.98,3.93c-1.483,1.185-3.297,1.778-5.44,1.778h-19.772   l53.735-135.306h26.016L410.508,1001.048z M321.96,949.957h43.612l-16.65-45.008c-0.757-1.996-1.593-4.351-2.507-7.065   c-0.915-2.713-1.814-5.661-2.696-8.843c-0.884,3.181-1.75,6.144-2.602,8.889c-0.851,2.746-1.688,5.147-2.507,7.205L321.96,949.957z   "/>
	<path fill="#010000" d="M453.267,1001.048h-25.543V865.742h25.543V1001.048z"/>
	<path fill="#010000" d="M500.189,865.882c0.756,0.094,1.433,0.281,2.034,0.562c0.599,0.281,1.183,0.687,1.75,1.217   c0.568,0.53,1.198,1.232,1.892,2.105l71.804,90.485c-0.253-2.182-0.426-4.319-0.52-6.409c-0.095-2.09-0.142-4.039-0.142-5.848   v-82.25h22.421v135.306h-13.151c-2.018,0-3.689-0.311-5.013-0.936c-1.325-0.623-2.618-1.746-3.879-3.369l-71.52-90.11   c0.189,1.998,0.332,3.977,0.426,5.942c0.095,1.965,0.142,3.759,0.142,5.381v83.092h-22.421V865.742h13.34   C498.487,865.742,499.432,865.789,500.189,865.882z"/>
	<path fill="#010000" d="M723.451,865.742v20.679h-41.152v114.627h-25.448V886.421h-41.342v-20.679H723.451z"/>
	<path fill="#010000" d="M812.943,890.351c-0.695,1.373-1.499,2.339-2.412,2.901c-0.915,0.562-2.003,0.842-3.263,0.842   c-1.263,0-2.682-0.482-4.258-1.45c-1.577-0.966-3.438-2.043-5.581-3.228c-2.146-1.185-4.653-2.26-7.521-3.228   c-2.871-0.966-6.261-1.451-10.17-1.451c-3.533,0-6.607,0.421-9.224,1.263c-2.618,0.842-4.825,2.012-6.622,3.509   c-1.798,1.497-3.138,3.291-4.021,5.38c-0.883,2.091-1.324,4.384-1.324,6.878c0,3.181,0.899,5.833,2.696,7.953   c1.798,2.122,4.177,3.93,7.142,5.428c2.964,1.497,6.338,2.84,10.123,4.023c3.784,1.186,7.646,2.449,11.588,3.79   c3.941,1.342,7.805,2.901,11.589,4.679s7.157,4.024,10.123,6.738c2.963,2.713,5.345,6.035,7.142,9.965   c1.798,3.93,2.696,8.703,2.696,14.317c0,6.114-1.057,11.836-3.17,17.17c-2.114,5.334-5.203,9.981-9.271,13.942   c-4.068,3.962-9.035,7.081-14.9,9.357c-5.865,2.276-12.582,3.416-20.15,3.416c-4.352,0-8.642-0.421-12.867-1.264   c-4.226-0.842-8.277-2.042-12.156-3.602c-3.878-1.559-7.506-3.43-10.879-5.614c-3.375-2.182-6.386-4.616-9.035-7.298l7.379-12.071   c0.693-0.874,1.529-1.606,2.507-2.2c0.977-0.591,2.065-0.889,3.264-0.889c1.576,0,3.279,0.641,5.109,1.918   c1.828,1.279,3.988,2.699,6.48,4.258c2.491,1.56,5.424,2.979,8.798,4.258c3.373,1.279,7.426,1.918,12.156,1.918   c7.252,0,12.866-1.699,16.84-5.1c3.974-3.399,5.96-8.281,5.96-14.644c0-3.555-0.899-6.456-2.696-8.702   c-1.797-2.246-4.178-4.132-7.142-5.661c-2.965-1.528-6.338-2.822-10.123-3.884c-3.784-1.06-7.631-2.213-11.542-3.462   c-3.911-1.248-7.757-2.745-11.542-4.492c-3.784-1.745-7.159-4.023-10.122-6.83c-2.966-2.807-5.346-6.317-7.143-10.527   c-1.797-4.211-2.695-9.404-2.695-15.579c0-4.927,0.992-9.731,2.979-14.41c1.987-4.679,4.887-8.827,8.704-12.446   c3.815-3.617,8.498-6.518,14.049-8.702c5.549-2.183,11.888-3.275,19.015-3.275c8.073,0,15.515,1.249,22.327,3.743   c6.812,2.495,12.613,5.989,17.407,10.48L812.943,890.351z"/>
</g>
<g>
</g>
<g>
</g>
<g>
</g>
<g>
</g>
<g>
</g>
<g>
</g>
</svg>