<svg xmlns:svg="http://www.w3.org/2000/svg" xmlns="http://www.w3.org/2000/svg" xmlns:xlink="http://www.w3.org/1999/xlink" xmlns:inkscape="http://www.inkscape.org/namespaces/inkscape" version="1.0" width="256" height="285" id="svg2">
  <defs id="defs4">
    <pattern patternUnits="userSpaceOnUse" width="3" height="3" id="monoch">
      <rect fill="#ffffff" width="4" height="4" id="rect3535"/>
      <circle fill="#000000" r="0.5" cx="0.5" cy="0.5" id="circle3537"/>
      <circle fill="#000000" r="0.5" cx="2" cy="2" id="circle3539"/>
    </pattern>
  </defs>
  <path d="M 128,275.13337 C 128,275.13337 155.20348,261.13337 171.20348,254.63337 C 185.0585,248.66686 199.18741,242.90332 211.8107,234.51653 C 237.87025,216.33275 240.26557,188.94862 240.26876,179.52699 L 240.26988,9.866631 L 15.730124,9.866631 L 15.731244,179.52699 C 15.734433,188.94862 18.129753,216.33275 44.189307,234.51653 C 56.812598,242.90332 70.9415,248.66686 84.796527,254.63337 C 100.79653,261.13337 128,275.13337 128,275.13337 z" id="path2458" style="fill:#ff0000;stroke:#000000;stroke-width:4"/>
  <path d="M 93.273697,82.758371 L 93.273697,68.757987 C 93.273697,49.729742 108.71692,34.286531 127.74516,34.286531 C 146.7734,34.286531 162.21662,49.729742 162.21662,68.757987 L 162.21662,82.758371" id="path3233" style="fill:#e0e0e0;fill-opacity:1;stroke:#000000;stroke-width:2"/>
  <rect width="100" height="60" x="77.745163" y="78.614937" id="rect2426" style="fill:#e0e0e0;fill-opacity:1;stroke:#000000;stroke-width:2"/>
  <path d="M 86.468747,68.396189 L 86.468747,74.083689 L 86.468747,78.646189 L 86.468747,84.864939 L 170.96875,84.864939 L 170.96875,78.646189 L 170.96875,74.083689 L 170.96875,68.396189 L 158.59375,68.396189 L 158.59375,74.083689 L 154.09375,74.083689 L 154.09375,68.396189 L 144.1875,68.396189 L 144.1875,74.083689 L 139.65625,74.083689 L 139.65625,68.396189 L 129.75,68.396189 L 129.75,74.083689 L 125.21875,74.083689 L 125.21875,68.396189 L 115.34375,68.396189 L 115.34375,74.083689 L 110.8125,74.083689 L 110.8125,68.396189 L 100.90625,68.396189 L 100.90625,74.083689 L 96.374997,74.083689 L 96.374997,68.396189 L 86.468747,68.396189 z M 170.96875,78.646189 L 86.468747,78.646189 L 170.96875,78.646189 z M 170.96875,78.646189 L 86.468747,78.646189" id="path3422" style="fill:#e0e0e0;fill-opacity:1;stroke:#000000;stroke-width:2"/>
  <path d="M 185.72794,37.380134 C 185.72794,37.380134 189.0867,35.347202 192.0919,37.114968 C 195.0971,38.882735 197.74875,39.059512 198.36747,38.352405 L 198.36747,46.749298 C 197.74875,47.456405 195.0971,47.279628 192.0919,45.511861 C 189.0867,43.744095 185.72794,45.777027 185.72794,45.777027 L 185.72794,37.380134 z" id="path3238" style="fill:#e0e0e0;fill-opacity:1;stroke:#000000;stroke-width:2"/>
  <path d="M 187.62827,34.529607 C 187.62827,35.786609 186.54001,36.805609 185.19757,36.805609 C 183.85516,36.805609 182.7669,35.786609 182.7669,34.529607 C 182.7669,33.272606 183.85516,32.253606 185.19757,32.253606 C 186.54001,32.253606 187.62827,33.272606 187.62827,34.529607 z" id="path3245" style="fill:#000000"/>
  <path d="M 185.19759,35.280643 L 185.19759,52.07496" id="path3243" style="fill:none;stroke:#000000;stroke-width:2.5"/>
  <path d="M 168.36629,75.258374 L 168.36629,68.757987 C 168.36629,59.606324 175.90672,52.178889 185.1976,52.178889 C 194.48847,52.178889 202.0289,59.606324 202.0289,68.757987 L 202.0289,75.258374" id="path3236" style="fill:#e0e0e0;fill-opacity:1;stroke:#000000;stroke-width:2"/>
  <path d="M 200.75,122.14619 L 170.25,122.14619 L 170.25,84.864939 L 200.75,84.864939 L 200.75,122.14619 z M 200.75,84.864939 L 206.96875,78.646189 L 206.96875,68.396189 L 200.03125,68.396189 L 200.03125,74.083689 L 195.4375,74.083689 L 195.4375,68.396189 L 187.5625,68.396189 L 187.5625,74.083689 L 183.4375,74.083689 L 183.4375,68.396189 L 175.5625,68.396189 L 175.5625,74.083689 L 170.96875,74.083689 L 170.96875,68.396189 L 164.03125,68.396189 L 164.03125,78.646189 L 170.25,84.864939 M 200.75,122.14619 L 206.96875,128.36494 L 206.96875,138.61494 L 164.03125,138.61494 L 164.03125,128.36494 L 170.25,122.14619 M 206.96875,78.646189 L 164.03125,78.646189 M 206.96875,128.36494 L 164.03125,128.36494" id="rect3247" style="fill:#e0e0e0;fill-opacity:1;stroke:#000000;stroke-width:2"/>
  <use transform="translate(-115,0)" id="use3314" x="0" y="0" width="744.09448" height="1052.3622" xlink:href="#path3238"/>
  <use transform="translate(-115,0)" id="use3316" x="0" y="0" width="744.09448" height="1052.3622" xlink:href="#path3245"/>
  <use transform="translate(-115,0)" id="use3318" x="0" y="0" width="744.09448" height="1052.3622" xlink:href="#path3243"/>
  <use transform="translate(-115,0)" id="use3320" x="0" y="0" width="744.09448" height="1052.3622" xlink:href="#path3236"/>
  <use transform="translate(-115,0)" id="use3322" x="0" y="0" width="744.09448" height="1052.3622" xlink:href="#rect3247"/>
  <use transform="translate(-57.45243,-16.968414)" id="use3326" style="fill:#e0e0e0;fill-opacity:1" x="0" y="0" width="744.09448" height="1052.3622" xlink:href="#path3238"/>
  <use transform="translate(-57.45243,-18.093414)" id="use3328" x="0" y="0" width="744.09448" height="1052.3622" xlink:href="#path3245"/>
  <use transform="translate(-57.45243,-18.093414)" id="use3330" x="0" y="0" width="744.09448" height="1052.3622" xlink:href="#path3243"/>
  <path d="M 157.72901,89.052439 C 155.85373,89.052439 154.33175,90.574409 154.33176,92.449689 C 154.33176,93.402309 154.70044,94.259219 155.33274,94.876289 C 155.31235,94.896179 155.29196,94.916569 155.27207,94.936959 C 154.655,94.304649 153.79809,93.935979 152.84547,93.935979 C 150.97019,93.935979 149.44823,95.457949 149.44822,97.333229 C 149.44822,99.208509 150.9702,100.73048 152.84547,100.73048 C 153.79809,100.73048 154.655,100.33148 155.27207,99.699169 C 155.29196,99.719559 155.31235,99.739949 155.33274,99.759839 C 154.70043,100.37691 154.33176,101.23382 154.33176,102.18644 C 154.33176,104.06172 155.85372,105.58369 157.72901,105.58369 C 159.60429,105.58369 161.12625,104.06172 161.12626,102.18644 C 161.12626,101.23382 160.72726,100.37691 160.09495,99.759839 C 160.11534,99.739949 160.13573,99.719559 160.15562,99.699169 C 160.77269,100.33148 161.6296,100.73048 162.58222,100.73048 C 164.4575,100.73048 165.97947,99.208509 165.97947,97.333229 C 165.97947,95.457949 164.4575,93.935979 162.58222,93.935979 C 161.6296,93.935979 160.77269,94.304649 160.15562,94.936959 C 160.13573,94.916569 160.11534,94.896179 160.09495,94.876289 C 160.72726,94.259219 161.12626,93.402309 161.12626,92.449689 C 161.12626,90.574409 159.60428,89.052439 157.72901,89.052439 z M 97.448157,89.052439 C 95.572877,89.052439 94.050897,90.574409 94.050907,92.449689 C 94.050907,93.402309 94.419587,94.259219 95.051887,94.876289 C 95.031497,94.896179 95.011107,94.916569 94.991217,94.936959 C 94.374147,94.304649 93.517237,93.935979 92.564617,93.935979 C 90.689337,93.935979 89.167377,95.457949 89.167367,97.333229 C 89.167367,99.208509 90.689347,100.73048 92.564617,100.73048 C 93.517237,100.73048 94.374147,100.33148 94.991217,99.699169 C 95.011107,99.719559 95.031497,99.739949 95.051887,99.759839 C 94.419577,100.37691 94.050907,101.23382 94.050907,102.18644 C 94.050907,104.06172 95.572867,105.58369 97.448157,105.58369 C 99.323437,105.58369 100.8454,104.06172 100.84541,102.18644 C 100.84541,101.23382 100.44641,100.37691 99.814097,99.759839 C 99.834487,99.739949 99.854877,99.719559 99.874767,99.699169 C 100.49184,100.33148 101.34875,100.73048 102.30137,100.73048 C 104.17665,100.73048 105.69862,99.208509 105.69862,97.333229 C 105.69862,95.457949 104.17665,93.935979 102.30137,93.935979 C 101.34875,93.935979 100.49184,94.304649 99.874767,94.936959 C 99.854877,94.916569 99.834487,94.896179 99.814097,94.876289 C 100.44641,94.259219 100.84541,93.402309 100.84541,92.449689 C 100.84541,90.574409 99.323427,89.052439 97.448157,89.052439 z M 183.96875,102.60212 C 183.96875,103.62356 183.14644,104.44587 182.125,104.44587 L 178.8125,104.44587 C 177.79106,104.44587 176.96875,103.62356 176.96875,102.60212 L 176.96875,95.445869 C 176.96875,93.513869 178.53675,91.945869 180.46875,91.945869 C 182.40075,91.945869 183.96876,93.513869 183.96876,95.445869 L 183.96875,102.60212 z M 194.03125,102.60212 C 194.03125,103.62356 193.20894,104.44587 192.1875,104.44587 L 188.875,104.44587 C 187.85356,104.44587 187.03125,103.62356 187.03125,102.60212 L 187.03125,95.445869 C 187.03125,93.513869 188.59925,91.945869 190.53125,91.945869 C 192.46325,91.945869 194.03126,93.513869 194.03126,95.445869 L 194.03125,102.60212 z M 68.968751,102.60212 C 68.968751,103.62356 68.14644,104.44587 67.125001,104.44587 L 63.812501,104.44587 C 62.791061,104.44587 61.968751,103.62356 61.968751,102.60212 L 61.968751,95.445869 C 61.968751,93.513869 63.53675,91.945869 65.468751,91.945869 C 67.400751,91.945869 68.968761,93.513869 68.968761,95.445869 L 68.968751,102.60212 z M 79.031251,102.60212 C 79.031251,103.62356 78.20894,104.44587 77.187501,104.44587 L 73.875001,104.44587 C 72.853561,104.44587 72.031251,103.62356 72.031251,102.60212 L 72.031251,95.445869 C 72.031251,93.513869 73.59925,91.945869 75.531251,91.945869 C 77.463251,91.945869 79.031261,93.513869 79.031261,95.445869 L 79.031251,102.60212 z M 127.875,89.708689 C 116.92304,89.708689 108.03125,98.600469 108.03125,109.55244 L 108.03125,138.48994 L 147.71875,138.48994 L 147.71875,109.55244 C 147.71875,98.600479 138.82695,89.708689 127.875,89.708689 z M 127.875,92.208689 C 130.33237,92.208689 132.68182,92.735089 134.8125,93.677439 L 132.28125,98.052439 C 130.9031,97.535819 129.42239,97.239939 127.875,97.239939 C 126.32761,97.239939 124.8469,97.535819 123.46875,98.052439 L 120.9375,93.677439 C 123.06818,92.735089 125.41762,92.208689 127.875,92.208689 z M 119.1875,94.583689 L 121.65625,98.896189 C 119.30801,100.22797 117.38744,102.2737 116.1875,104.77119 L 112.03125,102.36494 C 113.63758,99.093869 116.12144,96.377039 119.1875,94.583689 z M 136.5625,94.583689 C 139.62856,96.377039 142.11242,99.093869 143.71875,102.36494 L 139.5625,104.77119 C 138.36255,102.2737 136.44198,100.22797 134.09375,98.896189 L 136.5625,94.583689 z M 127.875,98.896189 C 128.31678,98.896189 128.75861,98.939729 129.1875,98.989939 L 129.1875,104.17744 L 133.71875,104.17744 L 133.71875,100.55244 C 134.65273,101.12278 135.47801,101.83591 136.21875,102.64619 L 136.21875,104.17744 L 137.4375,104.17744 C 137.93593,104.94601 138.34008,105.79654 138.65625,106.67744 L 136.21875,106.67744 L 136.21875,111.36494 L 139.375,111.36494 L 139.375,113.86494 L 136.21875,113.86494 L 136.21875,116.45869 L 134.96875,119.08369 L 133.71875,116.45869 L 133.71875,113.86494 L 129.1875,113.86494 L 129.1875,116.45869 L 127.9375,119.08369 L 126.6875,116.45869 L 126.6875,113.86494 L 122.15625,113.86494 L 122.15625,116.45869 L 120.90625,119.08369 L 119.65625,116.45869 L 119.65625,113.86494 L 116.375,113.86494 L 116.375,111.36494 L 119.65625,111.36494 L 119.65625,106.67744 L 117.09375,106.67744 C 117.40992,105.79654 117.81407,104.94601 118.3125,104.17744 L 119.65625,104.17744 L 119.65625,102.48994 C 120.40062,101.70273 121.22602,101.00928 122.15625,100.45869 L 122.15625,104.17744 L 126.6875,104.17744 L 126.6875,98.958689 C 127.07426,98.918019 127.47794,98.896189 127.875,98.896189 z M 111.25,104.20869 L 115.46875,106.64619 C 115.0551,107.97251 114.8125,109.39603 114.8125,110.86494 L 114.8125,114.77119 L 110.0625,114.77119 L 110.0625,110.80244 C 110.0625,108.47698 110.49992,106.2627 111.25,104.20869 z M 144.5,104.20869 C 145.25008,106.2627 145.6875,108.47698 145.6875,110.80244 L 145.6875,114.77119 L 140.9375,114.77119 L 140.9375,110.86494 C 140.9375,109.39603 140.6949,107.97251 140.28125,106.64619 L 144.5,104.20869 z M 122.15625,106.67744 L 122.15625,111.36494 L 126.6875,111.36494 L 126.6875,106.67744 L 122.15625,106.67744 z M 129.1875,106.67744 L 129.1875,111.36494 L 133.71875,111.36494 L 133.71875,106.67744 L 129.1875,106.67744 z M 110.0625,116.77119 L 114.8125,116.77119 L 114.8125,126.36494 L 110.0625,126.36494 L 110.0625,116.77119 z M 140.9375,116.77119 L 145.6875,116.77119 L 145.6875,126.36494 L 140.9375,126.36494 L 140.9375,116.77119 z M 110.0625,128.36494 L 114.8125,128.36494 L 114.8125,129.11494 L 110.0625,136.45869 L 110.0625,128.36494 z M 140.9375,128.36494 L 145.6875,128.36494 L 145.6875,136.45869 L 140.9375,129.11494 L 140.9375,128.36494 z M 116.34375,130.45869 L 139.40625,130.45869 L 140.3125,131.83369 L 115.4375,131.83369 L 116.34375,130.45869 z M 114.75,132.89619 L 141,132.89619 L 142.09375,134.61494 L 113.65625,134.61494 L 114.75,132.89619 z M 112.9375,135.67744 L 142.8125,135.67744 L 144.21875,137.86494 L 111.53125,137.86494 L 112.9375,135.67744 z" id="path3387" style="fill:#000000;fill-opacity:1;fill-rule:evenodd;stroke:none;stroke-width:0.85507244;stroke-linecap:butt;stroke-linejoin:miter;marker:none;marker-start:none;marker-mid:none;marker-end:none;stroke-miterlimit:4;stroke-dasharray:none;stroke-dashoffset:0;stroke-opacity:1;visibility:visible;display:inline;overflow:visible;enable-background:accumulate"/>
  <path d="M 104.03926,204.89245 C 110.14861,206.12124 116.86652,206.27685 123.40425,204.07087 C 137.40024,199.3483 145.43902,197.19145 151.67386,196.74691 C 151.45141,196.74432 142.25902,202.09182 143.1871,205.80413 C 144.11517,209.51644 149.63945,209.16289 152.07013,209.42805 C 154.5008,209.69322 157.01987,212.56584 153.7937,214.77555 C 150.56752,216.98525 147.7391,222.46533 144.07098,222.55372 C 140.40286,222.64211 141.33094,219.81368 140.22609,218.70883 C 139.99523,218.47797 139.63703,218.25869 139.00889,218.08889 C 138.81187,218.09011 132.75727,212.91939 128.20527,220.03465 C 128.20527,220.03465 132.29112,218.78058 133.94901,221.30735 C 133.69171,223.55935 135.942,223.21165 136.73475,224.32149 C 136.73475,224.32149 133.24341,221.80242 130.99264,224.5734 C 127.47301,223.13332 126.27719,224.51716 125.34175,226.63337 C 124.6182,228.63037 125.4091,230.41294 126.46702,231.75144 C 127.31232,229.63283 128.61602,229.07336 130.77617,229.14549 C 131.56463,230.15278 132.83275,230.78893 133.85998,230.74021 C 134.0605,230.94587 129.998,231.63337 132.3105,237.47712 C 132.3105,237.47712 136.27925,232.66462 140.26363,234.97712 C 140.27925,235.03962 141.3105,235.82087 142.02925,233.94587 C 142.748,232.07087 144.77925,230.25837 146.09175,231.16462 C 147.40425,232.07087 147.23086,235.37003 153.21917,233.62436 L 153.21917,233.62436 C 153.21917,233.62436 149.66154,229.82366 154.24582,226.43496 C 154.18402,227.00299 154.11101,227.42603 153.97047,227.85702 C 153.30756,229.88995 155.64985,231.65772 155.64985,231.65772 C 155.64985,231.65772 155.82663,228.29896 157.63859,227.32669 C 158.42316,226.9057 158.92601,225.67272 159.2708,224.1551 C 159.36216,223.99003 161.12993,224.9623 161.48348,228.60832 C 161.48348,228.60832 165.02254,223.04522 162.90122,215.66479 C 162.90122,215.66479 166.34175,219.44587 166.5605,222.44587 C 166.5605,222.44587 172.84175,214.07087 165.90425,207.38337 C 167.48382,207.52959 168.37551,206.81274 169.498,205.97712 C 169.998,204.57087 169.3105,203.07087 167.77925,202.63337 C 166.248,202.19587 165.873,203.41462 164.52925,203.57087 C 162.85304,203.76578 162.46675,200.57087 165.52925,200.78962 C 166.30533,200.84506 166.92247,200.38691 167.76559,199.62538 C 172.71754,201.91103 175.98853,204.64551 175.90677,204.54438 C 180.99477,208.61316 184.40764,206.57087 189.15425,206.57087 C 194.96675,206.57087 194.52925,209.94587 192.52925,213.32087 C 190.52925,216.69587 188.59175,221.63337 188.59175,221.63337 C 188.59175,221.63337 187.46675,225.25837 186.21675,223.44587 C 184.96675,221.63337 183.34175,217.69587 180.5605,218.78962 C 180.40425,218.88337 177.21675,215.13337 173.27925,220.07087 C 173.27925,220.07087 176.65425,218.57087 177.94722,220.92634 C 177.4355,222.03962 177.4355,223.22712 178.09175,224.44587 C 176.88949,224.67354 176.10403,225.35382 175.28804,226.12849 C 175.27925,226.07087 170.40425,226.32087 170.59175,230.00837 C 170.77925,233.69587 173.52925,234.69587 173.52925,234.69587 C 173.52925,234.69587 172.59175,231.88337 176.06051,230.64502 C 177.21025,232.01705 178.60531,232.64116 180.40468,231.86697 C 180.39135,232.50255 180.42861,232.94936 180.52925,233.44587 C 181.46675,238.07087 184.59175,237.94587 184.59175,237.94587 C 184.59175,237.94587 183.90425,234.94587 186.50466,233.61571 C 187.18919,234.03196 187.75919,234.26283 188.34175,234.13337 C 188.34175,234.13337 189.65425,234.19587 189.71675,233.88337 C 189.77925,233.57087 189.59175,231.07087 190.46675,230.32087 C 191.34175,229.57087 191.59175,228.94587 193.84175,228.94587 C 193.84175,228.94587 197.52925,233.82087 200.46675,231.32087 C 200.46675,231.32087 196.52925,226.19587 197.46675,222.50837 C 197.46675,222.50837 198.59175,226.57087 201.46675,227.07087 C 201.46675,227.07087 202.59175,225.82087 201.84175,222.82087 C 201.09175,219.82087 200.96675,218.00837 201.15425,216.25837 C 201.15425,216.25837 203.15425,222.38337 207.65425,221.50837 C 212.15425,220.63337 205.90425,221.44587 206.14303,212.77784 C 206.84332,213.33528 208.18973,213.65895 210.02925,213.13337 L 210.02925,213.13337 C 210.02925,213.13337 209.40425,203.07087 202.21675,201.44587 C 202.21675,201.44587 207.13606,201.07537 205.50088,196.65595 C 205.50088,196.65595 195.95493,200.36827 187.68224,190.11579 C 186.96675,189.32087 196.90425,194.57087 203.71675,187.00837 C 210.52925,179.44587 201.90425,173.63337 198.21675,172.07087 C 194.52925,170.50837 177.21675,169.50837 166.09175,171.38337 C 161.30247,172.19055 144.99974,172.53441 131.60428,171.74678 C 131.60428,171.74678 124.623,171.38337 124.96675,167.47712 C 125.3105,163.57087 128.45473,160.85748 133.14223,162.16998 C 137.82973,163.48248 141.59359,167.68698 152.78304,166.31992 C 152.79176,166.3231 157.31451,167.81302 160.24255,166.58318 C 160.50595,166.68547 165.12831,167.99387 168.08755,166.45594 C 169.39732,167.10388 171.81023,168.17312 177.8864,166.81653 C 180.6862,167.29586 184.15108,167.1687 188.65425,165.75837 C 200.02925,162.19587 202.02925,159.50837 213.02925,158.13337 C 213.02925,158.13337 207.64571,157.3278 184.37607,159.00249 C 170.64428,159.754 156.81074,157.51081 143.21675,156.07087 C 135.27925,154.44587 124.09175,154.44587 120.52925,161.63337 C 116.96675,168.82087 120.34175,174.88337 126.09175,176.19587 C 131.84175,177.50837 149.10912,178.35955 167.4055,175.61951 C 172.357,174.87798 180.24099,174.76438 188.89913,175.20688 C 188.89913,175.20688 201.92115,175.7079 200.37436,182.20444 C 198.82756,188.70098 188.6629,186.88902 184.72962,183.61865 C 184.72962,183.61865 177.305,178.80149 160.86477,181.09959 C 144.42453,183.39768 112.18683,181.43169 112.01432,181.18926 C 111.17728,178.50123 110.09694,175.65494 109.87319,175.10212 C 109.87319,175.10212 112.33956,175.97306 113.09086,178.00599 C 113.09086,178.00599 115.74251,174.07271 111.85573,168.98461 C 111.85958,166.45373 110.59175,165.63337 110.59175,165.63337 C 114.27925,166.63337 115.02925,161.63337 115.02925,161.63337 C 111.96675,160.63337 108.34175,163.07087 108.34175,163.07087 C 112.71675,162.13337 112.96675,158.82087 112.96675,158.82087 C 109.40425,158.44587 106.41754,160.32832 106.41754,160.32832 C 110.5718,159.17927 110.39502,153.43403 110.39502,153.43403 C 105.18011,153.52242 103.23556,157.85345 103.23556,157.85345 C 106.41754,154.14114 103.94267,148.13073 103.94267,148.13073 C 99.876807,150.51722 99.434857,156.43924 99.434857,156.43924 L 99.434857,156.43924 C 99.611637,150.16366 94.396727,149.103 94.396727,149.103 C 96.076107,152.10821 95.634167,156.26246 95.634167,156.26246 C 94.750277,152.28498 91.479907,151.04755 91.479907,151.04755 C 90.684417,154.4063 91.303137,157.32312 91.303137,157.32312 C 89.800527,153.25726 86.530167,153.87597 86.530167,153.87597 C 86.755967,154.23976 86.946607,154.68675 86.869877,155.35237 C 85.504407,156.18446 84.435117,157.03744 84.029247,159.57087 C 83.916037,160.27754 83.871847,160.90074 83.861237,161.76056 C 82.060497,159.32087 80.123001,160.66462 80.123001,160.66462 C 80.123001,160.66462 81.466751,161.78962 79.466751,164.38337 C 77.466751,166.97712 78.529251,168.57087 78.193969,168.85711 C 76.114958,170.63525 74.852673,172.75737 73.685501,175.47712 C 80.335047,171.22095 78.859594,172.54641 75.650345,176.61384 C 74.75386,177.85017 73.864212,179.36286 72.845364,181.10842 C 64.786633,176.54758 63.416615,169.34394 65.935681,167.57617 C 67.686168,166.34775 68.656318,163.60285 67.443019,161.77076 C 67.527427,160.52932 67.349895,159.30771 66.510206,158.07442 C 63.681778,153.92017 58.997196,157.4999 58.997196,157.4999 L 58.997196,157.4999 C 63.06306,158.207 62.444342,160.85865 62.338646,160.83483 C 59.562327,161.91576 59.499918,165.45359 59.685501,168.88337 C 59.822704,165.4337 58.988713,163.61909 58.184028,162.70113 C 54.312613,152.68273 46.667021,161.12382 46.667021,161.12382 C 51.30741,159.97477 52.058711,162.89159 52.058711,162.89159 C 52.058711,162.89159 52.529251,161.03962 51.654251,164.10212 C 51.253178,165.50588 52.027364,166.71923 52.678336,167.36195 C 51.154251,166.35212 50.154251,167.16462 50.134209,167.30411 C 50.114167,167.44359 47.904458,165.23388 45.252808,167.09003 C 42.601158,168.94619 42.512769,172.34914 43.706012,174.60304 C 43.706012,174.60304 45.783138,170.31621 49.330211,173.25217 C 50.748001,174.97712 52.685501,174.50837 54.935501,174.19587 C 57.185501,173.88337 57.810501,174.75837 58.060501,175.41462 C 58.310501,176.07087 57.560501,176.47712 57.560501,176.47712 L 57.560501,176.47712 C 54.498001,178.19587 53.935501,179.649 53.935501,179.649 C 53.060501,181.50837 54.748001,182.10212 56.091751,181.97712 C 57.435501,181.85212 60.654251,178.75837 60.654251,178.75837 L 60.654251,178.75837 C 62.341751,183.25837 64.65405,182.82316 64.65405,182.82316 C 60.41141,187.37516 54.666167,185.69578 54.666167,185.69578 C 58.908808,191.35263 64.12372,189.54067 64.12372,189.54067 C 62.709507,192.89943 57.273623,192.01555 57.273623,192.01555 C 60.809157,196.25819 67.349895,197.27465 67.349895,197.27465 C 66.311332,199.10871 62.024496,198.55628 62.024496,198.55628 C 69.91797,205.10936 79.129324,206.49583 81.760566,206.84894 C 78.955224,218.4675 70.487681,222.24436 70.487681,222.24436 C 72.487468,217.97962 68.322167,216.78638 68.144459,216.70987 C 66.357556,211.97747 62.726124,212.82274 59.341751,215.38337 C 59.341751,215.38337 63.185501,214.72712 63.76797,217.88218 C 62.652425,219.04449 62.469495,220.66393 63.549196,222.04549 C 63.564927,222.01402 61.486505,220.68352 59.822794,221.68302 C 59.716751,221.85212 59.310501,219.44587 56.310501,220.22712 C 53.310501,221.00837 51.466751,224.91462 52.810501,227.91462 C 54.569466,225.46169 56.768794,225.28872 58.358249,226.9732 C 58.85529,228.49153 60.030587,229.26063 61.527626,229.30364 C 61.373001,229.35212 56.685501,237.38337 66.404251,237.22712 C 66.404251,237.22712 64.029251,234.53962 66.210685,232.26884 C 67.176258,232.95013 67.951211,233.18203 68.587332,233.07193 C 70.885429,232.67419 70.664458,229.5364 71.923992,228.7851 C 73.183526,228.0338 73.780147,228.93978 73.780147,228.93978 L 73.780147,228.93978 C 74.398866,235.6131 81.904251,233.60212 81.904251,233.60212 C 79.969602,232.19077 78.770326,230.25953 79.014983,227.78173 C 78.894605,226.57715 82.247997,223.47712 82.247997,223.47712 C 80.810501,229.63337 85.872997,230.41462 85.872997,230.41462 C 84.622997,226.97712 87.716747,219.94587 87.716747,219.94587 L 87.716747,219.94587 C 85.966747,225.19587 91.716747,228.50837 91.716747,228.50837 C 91.716747,228.50837 90.779247,226.13337 91.779247,224.00837 C 92.779247,221.88337 92.404247,219.75837 92.216747,217.25837 C 92.029247,214.75837 92.805737,212.831 92.805737,212.831 C 92.805737,219.76949 98.185887,219.49566 98.169317,219.50118 C 97.959687,219.57106 97.433807,216.5788 98.676897,214.60543 C 99.768807,212.87205 99.779247,207.97712 99.779247,207.97712 C 103.65425,212.41462 105.02925,201.16462 105.02925,201.16462" id="path3263" style="fill:#ffe000;fill-opacity:1"/>
  <path d="M 178.09175,224.44587 C 178.09175,224.44587 180.52925,224.50837 181.59175,225.69587 M 180.40425,218.88337 C 180.40425,218.88337 177.21675,215.13337 173.27925,220.07087 C 173.27925,220.07087 176.65425,218.57087 177.96675,220.82087 M 175.27925,226.07087 C 175.27925,226.07087 170.40425,226.32087 170.59175,230.00837 C 170.77925,233.69587 173.52925,234.69587 173.52925,234.69587 C 173.52925,234.69587 172.59175,231.88337 176.09175,230.57087 M 184.15425,228.50837 L 184.15425,228.50837 C 184.15425,228.50837 179.59175,228.82087 180.52925,233.44587 C 181.46675,238.07087 184.59175,237.94587 184.59175,237.94587 C 184.59175,237.94587 183.90425,234.94587 186.34175,233.63337 M 186.34175,227.44587 C 186.34175,227.44587 184.52925,227.50837 184.27925,228.63337 C 184.02925,229.75837 186.09175,234.63337 188.34175,234.13337 C 188.34175,234.13337 189.65425,234.19587 189.71675,233.88337 C 189.77925,233.57087 189.59175,231.07087 190.46675,230.32087 C 191.34175,229.57087 191.59175,228.94587 193.84175,228.94587 C 193.84175,228.94587 197.52925,233.82087 200.46675,231.32087 C 200.46675,231.32087 196.52925,226.19587 197.46675,222.50837 C 197.46675,222.50837 198.59175,226.57087 201.46675,227.07087 C 201.46675,227.07087 202.59175,225.82087 201.84175,222.82087 C 201.09175,219.82087 200.96675,218.00837 201.15425,216.25837 C 201.15425,216.25837 203.15425,222.38337 207.65425,221.50837 C 212.15425,220.63337 205.90425,221.44587 206.40425,212.82087 M 203.77925,210.07087 C 203.77925,210.07087 205.21675,214.50837 210.02925,213.13337 L 210.02925,213.13337 C 210.02925,213.13337 209.40425,203.07087 202.21675,201.44587 C 202.21675,201.44587 207.13606,201.07537 205.50088,196.65595 C 205.50088,196.65595 195.95493,200.36827 188.39773,190.91071 C 185.72009,187.55974 181.10058,185.77335 176.25144,184.86351 M 180.40425,231.63337 C 177.65425,233.25837 175.15425,230.63337 174.90425,227.88337 C 174.65425,225.13337 178.09175,224.44587 178.09175,224.44587 C 176.77925,222.00837 178.09175,219.69587 180.71675,218.69587 C 183.34175,217.69587 184.96675,221.63337 186.21675,223.44587 C 187.46675,225.25837 188.59175,221.63337 188.59175,221.63337 C 188.59175,221.63337 190.52925,216.69587 192.52925,213.32087 C 194.52925,209.94587 194.96675,206.57087 189.15425,206.57087 C 183.34175,206.57087 179.52925,209.63337 171.96675,200.50837 C 164.40425,191.38337 149.46675,193.63337 149.46675,193.63337 M 176.02925,204.69587 L 176.02925,204.69587 C 176.02925,204.69587 168.6282,198.48429 160.15425,197.13337 C 151.52925,195.75837 143.77925,197.19587 123.40425,204.07087 C 116.86652,206.27685 110.14861,206.12124 104.03926,204.89245 M 105.02925,201.16462 C 105.02925,201.16462 103.65425,212.41462 99.779247,207.97712 C 99.779247,207.97712 99.768807,212.87205 98.676897,214.60543 C 97.433807,216.5788 97.959687,219.57106 98.169317,219.50118 C 98.185887,219.49566 92.805737,219.76949 92.805737,212.831 C 92.805737,212.831 92.029247,214.75837 92.216747,217.25837 C 92.404247,219.75837 92.779247,221.88337 91.779247,224.00837 C 90.779247,226.13337 91.716747,228.50837 91.716747,228.50837 C 91.716747,228.50837 85.966747,225.19587 87.716747,219.94587 L 87.716747,219.94587 C 87.716747,219.94587 84.622997,226.97712 85.872997,230.41462 C 85.872997,230.41462 80.810501,229.63337 82.247997,223.47712 C 82.247997,223.47712 78.894605,226.57715 79.014983,227.78173 C 78.770326,230.25953 79.969602,232.19077 81.904251,233.60212 C 81.904251,233.60212 74.398866,235.6131 73.780147,228.93978 L 73.780147,228.93978 C 73.780147,228.93978 73.183526,228.0338 71.923992,228.7851 C 70.664458,229.5364 70.885429,232.67419 68.587332,233.07193 C 66.289235,233.46968 62.179177,229.40382 65.316963,226.61958 M 63.814361,228.89558 C 59.858982,230.11092 57.472497,228.23267 58.466866,223.81325 C 59.461235,219.39384 63.571293,222.00129 63.549196,222.04549 C 61.494167,219.41593 64.013235,215.92459 68.322167,216.78638 C 68.322167,216.78638 72.487468,217.97962 70.487681,222.24436 C 70.487681,222.24436 78.955224,218.4675 81.626792,206.9209 M 67.966751,216.63337 L 67.966751,216.63337 C 67.966751,216.63337 65.935501,209.38337 59.341751,215.38337 C 59.341751,215.38337 63.185501,214.72712 63.841751,217.82087 M 59.716751,221.85212 L 59.716751,221.85212 C 59.716751,221.85212 59.310501,219.44587 56.310501,220.22712 C 53.310501,221.00837 51.466751,224.91462 52.810501,227.91462 C 54.569466,225.46169 56.768794,225.28872 58.279251,226.85212 M 61.373001,229.35212 C 61.373001,229.35212 56.685501,237.38337 66.404251,237.22712 C 66.404251,237.22712 64.029251,234.53962 65.966751,232.03962 M 81.89434,206.77698 C 79.129324,206.49583 69.91797,205.10936 62.024496,198.55628 C 62.024496,198.55628 66.311332,199.10871 67.349895,197.27465 C 67.349895,197.27465 60.809157,196.25819 57.273623,192.01555 C 57.273623,192.01555 62.709507,192.89943 64.12372,189.54067 C 64.12372,189.54067 58.908808,191.35263 54.666167,185.69578 C 54.666167,185.69578 60.41141,187.37516 64.65405,182.82316 C 64.65405,182.82316 62.341751,183.25837 60.654251,178.75837 L 60.654251,178.75837 C 60.654251,178.75837 57.435501,181.85212 56.091751,181.97712 C 54.748001,182.10212 53.060501,181.50837 53.935501,179.649 C 53.935501,179.649 54.498001,178.19587 57.560501,176.47712 L 57.560501,176.47712 C 57.560501,176.47712 58.310501,176.07087 58.060501,175.41462 C 57.810501,174.75837 57.185501,173.88337 54.935501,174.19587 C 52.685501,174.50837 50.748001,174.97712 49.341751,173.22712 C 47.935501,171.47712 48.029251,168.85212 50.154251,167.16462 C 50.154251,167.16462 51.154251,166.35212 52.373001,167.10212 M 55.498001,169.32087 C 55.498001,169.32087 50.779251,167.16462 51.654251,164.10212 C 52.529251,161.03962 55.466751,160.85212 56.560501,161.44587 C 57.654251,162.03962 59.904251,163.38337 59.685501,168.88337 C 59.46351,164.78072 59.596359,160.52348 64.12372,160.46091 C 69.427021,160.5051 68.554838,165.73815 65.935681,167.57617 C 63.416613,169.34394 64.786633,176.54758 72.476419,181.09958 M 50.114167,167.44359 L 50.114167,167.44359 C 50.114167,167.44359 47.904458,165.23388 45.252808,167.09003 C 42.601158,168.94619 42.512769,172.34914 43.706012,174.60304 C 43.706012,174.60304 45.783138,170.31621 49.318671,173.27722 M 52.058711,162.89159 C 52.058711,162.89159 51.30741,159.97477 46.667021,161.12382 C 46.667021,161.12382 54.312613,152.68273 58.290089,162.8032 M 62.444342,160.85865 C 62.444342,160.85865 63.06306,158.207 58.997196,157.4999 L 58.997196,157.4999 C 58.997196,157.4999 63.681778,153.92017 66.510206,158.07442 C 67.349895,159.30771 67.527427,160.52932 67.361952,161.63749 M 151.45141,196.74432 C 151.45141,196.74432 142.25902,202.09182 143.1871,205.80413 C 144.11517,209.51644 149.63945,209.16289 152.07013,209.42805 C 154.5008,209.69322 157.01987,212.56584 153.7937,214.77555 C 150.56752,216.98525 147.7391,222.46533 144.07098,222.55372 C 140.40286,222.64211 141.33094,219.81368 140.22609,218.70883 C 139.12123,217.60397 135.09956,216.76428 134.12729,220.21143 C 133.15502,223.65857 135.85086,223.08405 136.73475,224.32149 C 136.73475,224.32149 133.24341,221.80242 130.76853,224.76343 C 128.29366,227.72444 131.93589,231.06489 133.65946,230.53456 M 141.0605,228.28962 C 141.0605,228.28962 136.88862,225.50837 133.98237,229.88337 C 131.07612,234.25837 135.998,226.22712 140.27925,235.03962 C 140.27925,235.03962 141.3105,235.82087 142.02925,233.94587 C 142.748,232.07087 144.77925,230.25837 146.09175,231.16462 C 147.40425,232.07087 147.23086,235.37003 153.21917,233.62436 L 153.21917,233.62436 C 153.21917,233.62436 149.66154,229.82366 154.27984,226.26603 M 153.7937,223.96793 C 153.7937,223.96793 154.63339,225.82409 153.97047,227.85702 C 153.30756,229.88995 155.64985,231.65772 155.64985,231.65772 C 155.64985,231.65772 155.82663,228.29896 157.63859,227.32669 C 159.45055,226.35442 159.75991,221.05112 158.96442,219.94626 M 159.36216,223.99003 C 159.36216,223.99003 161.12993,224.9623 161.48348,228.60832 C 161.48348,228.60832 165.02254,223.04522 162.90122,215.66479 C 162.90122,215.66479 166.34175,219.44587 166.5605,222.44587 C 166.5605,222.44587 172.84175,214.07087 165.90425,207.38337 L 165.90425,207.38337 C 165.90425,207.38337 168.998,207.38337 169.498,205.97712 C 169.998,204.57087 169.3105,203.07087 167.77925,202.63337 C 166.248,202.19587 165.873,203.41462 164.52925,203.57087 C 162.85304,203.76578 162.46675,200.57087 165.52925,200.78962 C 166.42184,200.85338 167.10418,200.23778 167.78581,199.17973 M 138.81187,218.09011 C 138.81187,218.09011 132.75727,212.91939 128.20527,220.03465 C 128.20527,220.03465 132.29112,218.78058 133.9605,221.45881 M 131.21675,224.38337 C 127.47301,223.13332 126.27719,224.51716 125.34175,226.63337 C 124.6182,228.63037 125.4091,230.41294 126.46702,231.75144 C 127.31232,229.63283 128.61602,229.07336 130.8105,229.19587 M 134.0605,230.94587 C 134.0605,230.94587 129.998,231.63337 132.3105,237.47712 C 132.3105,237.47712 136.27925,232.66462 140.248,234.91462 M 186.96675,189.32087 C 186.96675,189.32087 196.90425,194.57087 203.71675,187.00837 C 210.52925,179.44587 201.90425,173.63337 198.21675,172.07087 C 194.52925,170.50837 177.21675,169.50837 166.09175,171.38337 C 161.30247,172.19055 144.99974,172.53441 131.60428,171.74678 C 131.60428,171.74678 124.623,171.38337 124.96675,167.47712 C 125.3105,163.57087 128.45473,160.85748 133.14223,162.16998 C 137.82973,163.48248 141.59359,167.68698 152.98598,166.41998 M 144.1855,162.10212 C 144.1855,162.10212 146.6855,162.19587 149.21675,164.07087 C 151.748,165.94587 154.52925,168.10212 160.373,166.66462 M 152.1855,162.13337 C 152.1855,162.13337 154.52925,161.97712 156.84175,163.94587 C 159.15425,165.91462 161.123,168.69587 168.21675,166.53962 M 161.71675,163.44587 C 161.71675,163.44587 162.34175,162.82087 166.77925,165.69587 C 171.21675,168.57087 175.15425,167.32087 177.71675,166.75837 M 168.5605,163.22712 C 168.5605,163.22712 169.71675,162.75837 171.123,163.72712 C 172.52925,164.69587 177.27925,169.32087 188.65425,165.75837 C 200.02925,162.19587 202.02925,159.50837 213.02925,158.13337 C 213.02925,158.13337 207.64571,157.3278 184.37607,159.00249 C 181.56634,159.20471 178.44744,159.17723 175.11451,158.98039 L 175.11451,158.98039 C 175.11451,158.98039 151.15425,157.69587 143.21675,156.07087 C 135.27925,154.44587 124.09175,154.44587 120.52925,161.63337 C 116.96675,168.82087 120.34175,174.88337 126.09175,176.19587 C 131.84175,177.50837 149.10912,178.35955 167.4055,175.61951 C 172.357,174.87798 180.24099,174.76438 188.89913,175.20688 C 188.89913,175.20688 201.92115,175.7079 200.37436,182.20444 C 198.82756,188.70098 188.6629,186.88902 184.72962,183.61865 C 184.72962,183.61865 177.305,178.80149 160.86477,181.09959 C 144.42453,183.39768 112.18683,181.43169 112.18683,181.43169 M 91.805137,170.08159 C 91.805137,170.08159 93.716747,170.50837 93.966747,171.50837 C 94.077667,171.95207 94.502797,172.26552 94.996047,172.45511 C 94.996047,172.45511 94.841747,177.13337 90.716747,175.50837 C 89.331087,174.9625 88.618937,174.07811 88.296027,173.07552 L 88.296027,173.07552 C 88.296027,173.07552 87.966747,172.57087 88.029247,171.75837 C 88.029247,171.75837 85.216747,172.44587 85.091747,169.75837 C 84.966747,167.07087 85.966747,166.00837 86.966747,164.57087 C 87.966747,163.13337 88.121157,156.43924 86.530167,153.87597 C 86.530167,153.87597 89.800527,153.25726 91.303137,157.32312 C 91.303137,157.32312 90.684417,154.4063 91.479907,151.04755 C 91.479907,151.04755 94.750277,152.28498 95.634167,156.26246 C 95.634167,156.26246 96.076107,152.10821 94.396727,149.103 C 94.396727,149.103 99.611637,150.16366 99.434857,156.43924 L 99.434857,156.43924 C 99.434857,156.43924 99.876807,150.51722 103.94267,148.13073 C 103.94267,148.13073 106.41754,154.14114 103.23556,157.85345 C 103.23556,157.85345 105.18011,153.52242 110.39502,153.43403 C 110.39502,153.43403 110.5718,159.17927 106.41754,160.32832 C 106.41754,160.32832 109.40425,158.44587 112.96675,158.82087 C 112.96675,158.82087 112.71675,162.13337 108.34175,163.07087 C 108.34175,163.07087 111.96675,160.63337 115.02925,161.63337 C 115.02925,161.63337 114.27925,166.63337 110.59175,165.63337 C 110.59175,165.63337 112.71675,167.00837 111.46121,171.19798 C 107.56659,171.64203 106.21675,168.00837 106.21675,168.00837 C 107.71675,173.88337 105.65425,175.13337 104.02925,176.57087 C 102.40425,178.00837 100.77925,174.13337 100.77925,174.13337 C 100.77925,174.13337 102.71675,177.07087 98.216747,177.57087 C 93.716747,178.07087 94.996047,172.45511 94.996047,172.45511 C 95.614487,172.69282 96.340027,172.73584 96.687717,172.59676 C 97.312717,172.34676 98.263717,172.70269 99.125497,171.8851 M 88.966747,174.38337 C 88.966747,174.38337 89.229117,175.95308 89.091747,178.07087 C 88.989497,179.64723 89.126517,183.86506 90.966747,184.07087 C 93.772847,184.3847 96.091747,182.00837 97.466747,177.82087 M 86.404247,165.50837 C 86.404247,165.50837 83.154027,165.03396 84.029247,159.57087 C 84.435117,157.03744 85.504407,156.18446 86.635097,155.51462 M 107.96434,191.44102 C 111.63246,189.54067 109.78388,183.1499 110.49099,183.63604 C 111.1981,184.12217 112.14448,185.17709 112.14448,185.17709 C 112.14448,185.17709 112.79483,181.11199 109.87319,175.10212 C 109.87319,175.10212 112.33956,175.97306 113.09086,178.00599 C 113.09086,178.00599 115.74251,174.07271 111.85342,169.21135 M 85.279247,166.57087 C 78.838606,166.87292 76.064485,169.9336 73.685501,175.47712 C 73.685501,175.47712 76.716751,172.88337 79.248001,172.78962 C 79.279251,172.75837 71.966751,178.25837 72.216751,187.07087 C 72.216751,187.07087 74.029251,184.50837 76.091751,184.63337 C 76.091751,184.63337 72.466751,192.57087 75.341751,198.32087 C 75.341751,198.32087 75.529251,195.32087 77.841751,193.69587 L 77.841751,193.69587 C 77.841751,193.69587 75.966751,198.13337 78.841751,202.32087 C 78.841751,202.32087 79.779251,198.94587 80.904251,198.25837 C 80.904251,198.25837 79.841751,203.19587 82.216747,208.75837 C 82.216747,208.75837 87.591747,207.19587 91.154247,202.38337 C 91.154247,202.38337 92.717347,205.05283 91.568297,206.95318 C 91.568297,206.95318 95.766747,205.89251 97.490317,198.29112 C 97.490317,198.29112 97.799677,202.75473 96.871597,204.12475 C 96.871597,204.12475 102.04232,200.94277 102.66104,192.01554 C 102.66104,192.01554 103.85428,197.18626 103.14717,198.77725 C 103.14717,198.77725 110.30663,194.66719 106.63851,180.08312 M 78.529251,168.57087 C 78.529251,168.57087 77.466751,166.97712 79.466751,164.38337 C 81.466751,161.78962 80.123001,160.66462 80.123001,160.66462 C 80.123001,160.66462 82.060497,159.32087 83.841747,162.07087 M 81.226866,176.76855 C 81.226866,176.76855 79.547487,182.77896 80.254594,189.23131 C 80.254594,189.23131 81.668807,187.55193 83.038827,187.72871 C 83.038827,187.72871 81.580419,189.62906 82.110747,192.72265 C 82.110747,192.72265 83.790127,190.60133 86.220807,190.8223 C 86.220807,190.8223 84.055287,193.25298 86.353387,199.21919 C 91.966047,195.81624 90.640217,192.14813 90.640217,192.14813 C 90.640217,192.14813 92.540567,194.13686 91.921847,196.96529 C 91.921847,196.96529 95.368997,195.94883 95.280607,190.77811 L 95.280607,190.77811 C 95.280607,190.77811 96.385467,192.72265 96.518047,194.57881 C 96.518047,194.57881 98.860337,193.78331 99.567447,187.28677 C 99.567447,187.28677 101.11424,188.74518 101.02585,190.02681 C 101.02585,190.02681 103.14717,188.74518 103.01459,181.67411 M 101.99813,176.23823 C 101.99813,176.23823 101.73296,180.74603 100.23036,181.80669 C 98.727757,182.86735 96.841267,186.5841 95.868997,186.93766 C 94.896727,187.29121 92.421847,187.02605 91.449577,187.46799 C 90.477307,187.90993 89.328257,188.8822 87.914047,186.84927 C 86.499837,184.81634 85.881117,184.72795 85.350787,183.75568 C 85.350787,183.75568 85.085617,182.87179 85.350787,181.81113 C 85.615947,180.75047 86.411447,175.09362 85.262397,173.67941 C 85.262397,173.67941 86.972107,172.6143 87.237267,171.64203" id="path2461" style="fill:none;stroke:#000000;stroke-width:1.5"/>
  <path d="M 92.031747,176.20458 C 92.031747,176.20458 92.508467,178.12536 92.425357,179.28894 L 92.321397,180.74433 C 92.321397,180.74433 93.485377,177.83098 95.360047,177.10132 C 95.360047,177.10132 95.082317,172.6762 92.031747,176.20458 z M 86.845747,163.48714 C 86.845747,163.48714 86.820397,163.46179 86.414837,162.37187 C 86.009287,161.28195 86.136027,158.97536 87.301987,159.27953 C 88.467957,159.58369 86.845747,163.51249 86.845747,163.48714 z M 98.649777,161.27678 L 97.667247,161.27937 C 97.667247,161.27937 96.445927,162.3934 96.158087,163.70186 C 94.068437,161.9966 92.091227,160.46358 89.161127,161.30591 L 89.479157,162.46363 C 90.330977,164.04829 90.351067,164.71202 90.788287,165.12405 C 91.145347,165.6236 91.623727,166.10119 92.257257,166.38041 C 92.890797,166.65962 93.687027,166.72 94.562167,166.40986 C 95.120657,166.21194 95.530647,165.94907 95.815357,165.65349 C 96.036227,165.42419 96.098087,165.15033 96.158657,164.8821 C 96.168667,164.90805 96.182507,164.91632 96.213107,164.96457 C 96.242897,165.01154 96.282807,165.14908 96.497197,165.17962 C 96.604387,165.19488 96.734677,165.14207 96.799047,165.09874 C 96.863417,165.0554 96.874737,165.00602 96.895527,164.97583 C 96.978677,164.85506 96.978037,164.82106 96.997917,164.75428 C 97.017807,164.68749 97.069547,164.61821 97.062047,164.51063 C 96.930517,162.62336 98.649777,161.27678 98.649777,161.27678 z M 90.696787,162.60741 C 91.138977,162.56963 92.163317,162.64956 92.747997,163.08668 C 92.101287,163.36044 91.975177,164.14967 91.975187,164.4825 C 91.975177,164.82068 92.055577,165.12167 92.157457,165.40423 C 91.882317,165.20379 91.643917,164.94363 91.439937,164.65827 C 90.978697,164.01297 90.792327,162.91926 90.696787,162.60741 z M 94.472467,163.781 C 94.752237,163.86549 94.998357,163.99371 95.175397,164.11029 C 95.387687,164.42021 95.487527,164.34964 95.471907,164.61318 C 95.462107,164.77855 95.382827,164.92824 95.214827,165.10264 C 95.046837,165.27705 94.770357,165.47152 94.291507,165.64122 C 94.454667,165.30897 94.529667,164.90949 94.529667,164.47742 C 94.529667,164.23605 94.525397,163.99696 94.472467,163.781 z M 99.709947,161.68681 L 100.40287,162.38339 C 100.40287,162.38339 100.47874,164.03473 99.757047,165.16349 C 102.44045,165.43529 104.92256,165.74938 106.39884,168.41689 L 105.35533,169.01064 C 103.63247,169.52884 103.14894,169.98396 102.54843,169.96615 C 101.94272,170.06691 101.26674,170.06635 100.62133,169.81581 C 99.975917,169.56526 99.370197,169.04494 98.970687,168.20682 C 98.715727,167.67196 98.611697,167.19617 98.619377,166.78585 C 98.625347,166.46753 98.775247,166.23014 98.922087,165.99764 C 98.896657,166.00891 98.881027,166.00497 98.825267,166.01745 C 98.770987,166.0296 98.645517,166.09864 98.472327,165.96863 C 98.385737,165.90363 98.330957,165.77416 98.316077,165.698 C 98.301207,165.62184 98.328117,165.57892 98.334767,165.54287 C 98.361367,165.39868 98.385857,165.37509 98.419027,165.31381 C 98.452187,165.25252 98.464587,165.16695 98.545967,165.09618 C 99.973467,163.85468 99.709947,161.68681 99.709947,161.68681 z M 104.39266,168.25132 C 104.1067,167.91193 103.32587,167.24413 102.60334,167.13979 C 102.86706,167.79066 102.39816,168.4379 102.16281,168.67324 C 101.92369,168.91238 101.654,169.06836 101.38216,169.19612 C 101.71845,169.24894 102.07098,169.23355 102.417,169.17601 C 103.19944,169.04586 104.1046,168.40427 104.39266,168.25132 z M 100.893,166.41136 C 100.63543,166.27328 100.37073,166.18991 100.16311,166.14716 C 99.793847,166.21619 99.773157,166.09569 99.597847,166.29309 C 99.487847,166.41695 99.438057,166.57886 99.433527,166.82097 C 99.428987,167.06309 99.486977,167.3961 99.705587,167.85469 C 99.825147,167.50439 100.05459,167.16888 100.36011,166.86336 C 100.53079,166.69268 100.70287,166.52664 100.893,166.41136 z" id="path2443" style="fill:#000000"/>
</svg>