<svg xmlns="http://www.w3.org/2000/svg" viewBox="0 0 163 200" width="163" height="200">
	<style>
		tspan { white-space:pre }
		.shp0 { fill: #c37bd1 } 
		.shp1 { fill: #212051 } 
		.shp2 { fill: #1e1d49 } 
		.shp3 { fill: #593e75 } 
		.shp4 { fill: #ffffff } 
		.shp5 { fill: #fc2727 } 
	</style>
	<g>
		<path class="shp0" d="M0.96 0.21C0.67 0.33 0.46 0.53 0.37 0.74C0.26 0.99 0.22 3.82 0.2 12.74C0.18 19.16 0.21 29.31 0.27 35.3C0.35 43.49 0.33 49.17 0.22 58.25C0.13 64.88 0.06 75.26 0.06 81.31C0.07 87.6 0.13 93.95 0.21 96.13C0.28 98.23 0.42 101.43 0.51 103.25C0.6 105.08 0.78 107.95 0.9 109.65C1.03 111.35 1.2 113.57 1.3 114.59C1.39 115.61 1.6 117.7 1.75 119.25C1.91 120.79 2.16 122.66 2.31 123.4C2.48 124.28 3.2 126.59 4.37 130.08C5.35 133.01 6.47 136.24 6.86 137.26C7.25 138.28 7.91 139.92 8.34 140.91C8.77 141.9 9.49 143.41 9.94 144.28C10.39 145.14 11.68 147.36 12.81 149.21C13.94 151.07 15.41 153.39 16.06 154.38C16.72 155.36 17.94 157.1 18.77 158.23C19.61 159.37 20.76 160.88 21.33 161.6C21.91 162.32 23.26 163.87 24.33 165.04C25.4 166.21 27.56 168.44 29.13 169.98C30.7 171.52 32.56 173.29 33.27 173.89C33.99 174.5 35.43 175.69 36.48 176.53C37.53 177.37 39.5 178.89 40.86 179.91C42.22 180.93 44.32 182.46 45.53 183.3C46.73 184.14 48.73 185.47 49.97 186.26C51.2 187.05 52.98 188.13 53.9 188.66C54.83 189.19 56.55 190.11 57.72 190.7C58.9 191.3 60.77 192.2 61.88 192.71C63 193.22 66.59 194.8 69.87 196.21C73.14 197.63 76.38 198.99 77.06 199.22C77.74 199.46 78.78 199.74 79.36 199.84C80.17 199.98 80.85 200.01 82.12 199.97C83.36 199.92 84.04 199.84 84.7 199.66C85.2 199.53 86.69 198.95 88.02 198.38C89.35 197.8 91.98 196.68 93.87 195.87C95.75 195.07 98.15 194.02 99.21 193.55C100.26 193.07 102.08 192.22 103.25 191.65C104.43 191.08 106.25 190.14 107.3 189.57C108.35 188.99 110.02 188.04 111.01 187.45C112 186.86 113.79 185.75 115 184.98C116.2 184.21 117.92 183.07 118.82 182.45C119.72 181.84 121.12 180.85 121.93 180.26C122.74 179.67 124.21 178.57 125.19 177.82C126.17 177.07 127.81 175.76 128.83 174.91C129.85 174.06 131.26 172.86 131.97 172.23C132.68 171.61 134.43 169.94 135.86 168.52C137.29 167.1 139.01 165.31 139.68 164.53C140.35 163.76 141.71 162.12 142.69 160.89C143.68 159.65 145.05 157.88 145.75 156.96C146.44 156.03 147.51 154.52 148.13 153.59C148.75 152.67 149.56 151.38 149.93 150.73C150.3 150.08 151.11 148.59 151.73 147.42C152.35 146.25 153.31 144.33 153.87 143.15C154.42 141.98 155.16 140.36 155.5 139.56C155.84 138.76 156.39 137.45 156.71 136.64C157.03 135.84 157.71 133.92 158.23 132.38C158.74 130.84 159.45 128.54 159.79 127.27C160.13 126.01 160.66 123.86 160.97 122.5C161.28 121.14 161.66 119.3 161.81 118.41C161.96 117.51 162.17 116.17 162.26 115.43C162.36 114.69 162.51 113.2 162.6 112.12C162.69 111.04 162.82 108.62 162.88 106.73C162.95 104.6 163 84.09 163 52.19C163 3.74 162.99 1.05 162.8 0.67C162.67 0.41 162.48 0.24 162.21 0.15C161.91 0.04 143.45 0.01 81.61 0.01C4.7 0.01 1.39 0.01 0.96 0.21Z"/>
		<path class="shp1" d="M5.44 4.8C5.37 4.85 5.26 5 5.19 5.13C5.09 5.32 5.06 18.05 5.06 55.84C5.06 89.22 5.1 106.84 5.17 107.94C5.24 108.85 5.37 110.28 5.46 111.11C5.55 111.94 5.91 114.57 6.25 116.95C6.59 119.32 6.99 121.85 7.15 122.56C7.31 123.27 7.66 124.61 7.93 125.53C8.2 126.46 8.95 128.78 9.59 130.7C10.24 132.61 11 134.78 11.3 135.52C11.59 136.26 12.26 137.8 12.78 138.95C13.3 140.09 14.22 141.96 14.83 143.1C15.44 144.24 16.38 145.93 16.92 146.86C17.46 147.78 18.57 149.55 19.39 150.79C20.21 152.02 21.43 153.76 22.09 154.66C22.76 155.55 23.9 157.02 24.62 157.91C25.35 158.81 26.38 160.04 26.92 160.66C27.46 161.28 28.77 162.71 29.83 163.84C30.89 164.97 32.77 166.85 34.01 168.01C35.24 169.17 36.78 170.59 37.43 171.15C38.08 171.72 39.35 172.78 40.24 173.5C41.14 174.23 42.61 175.37 43.5 176.03C44.4 176.69 45.99 177.81 47.05 178.5C48.1 179.2 50.42 180.73 52.22 181.9C54.01 183.08 55.98 184.32 56.6 184.67C57.22 185.01 58.69 185.71 59.86 186.23C61.04 186.75 63.67 187.97 65.71 188.94C67.75 189.92 70.15 191.04 71.05 191.44C71.94 191.84 73.48 192.49 74.47 192.88C75.46 193.26 76.78 193.74 77.4 193.93C78.02 194.12 79.04 194.38 79.67 194.5C80.31 194.62 80.95 194.73 81.11 194.73L81.39 194.73L81.39 188.05C80.3 187.93 79.1 187.61 78.02 187.26C76.93 186.91 74.76 186.14 73.18 185.55C71.6 184.96 69.28 184.04 68.01 183.5C66.74 182.96 64.72 182.05 63.51 181.49C62.31 180.92 60.69 180.12 59.92 179.72C59.14 179.31 57.78 178.57 56.88 178.08C55.98 177.58 54.42 176.67 53.4 176.06C52.38 175.44 50.53 174.26 49.29 173.43C48.06 172.59 46.19 171.27 45.13 170.48C44.08 169.69 42.44 168.39 41.48 167.6C40.52 166.8 39.13 165.6 38.39 164.93C37.65 164.26 36.21 162.87 35.19 161.85C34.17 160.83 32.75 159.33 32.03 158.53C31.31 157.73 30.23 156.46 29.61 155.72C29 154.98 27.91 153.59 27.19 152.64C26.47 151.68 25.34 150.09 24.68 149.1C24.02 148.11 23.01 146.52 22.43 145.57C21.86 144.61 21.08 143.27 20.71 142.59C20.34 141.91 19.67 140.63 19.22 139.73C18.77 138.84 18.09 137.4 17.7 136.53C17.32 135.67 16.67 134.13 16.26 133.11C15.86 132.09 15.17 130.2 14.74 128.9C14.31 127.6 13.7 125.58 13.38 124.41C13.07 123.24 12.61 121.32 12.37 120.15C12.13 118.97 11.8 117.13 11.65 116.05C11.49 114.97 11.31 113.4 11.25 112.57C11.17 111.55 11.13 95.47 11.13 63.08C11.13 31.02 11.17 14.85 11.25 14.37C11.31 13.96 11.51 13.33 11.69 12.96C11.87 12.59 12.19 12.09 12.4 11.84C12.61 11.59 13.05 11.21 13.39 10.98C13.72 10.76 14.31 10.47 14.7 10.34L15.4 10.1L81.39 10.1L81.39 4.71C22.62 4.72 5.51 4.75 5.44 4.8Z"/>
		<path class="shp2" d="M81.39 7.41L81.39 10.1L149.02 10.16C150.44 10.85 150.86 11.16 151.23 11.58C151.53 11.91 151.91 12.46 152.08 12.79L152.38 13.41C152.38 111.27 152.37 113.59 152.17 115.04C152.06 115.87 151.8 117.49 151.59 118.63C151.38 119.77 150.97 121.64 150.69 122.78C150.41 123.93 150.02 125.39 149.83 126.04C149.64 126.69 149.19 128.13 148.81 129.24C148.44 130.35 147.73 132.27 147.23 133.5C146.74 134.74 145.91 136.66 145.39 137.77C144.87 138.88 143.97 140.68 143.38 141.78C142.8 142.87 141.85 144.54 141.29 145.48C140.72 146.42 139.7 148.03 139.01 149.05C138.33 150.06 137.24 151.6 136.59 152.47C135.95 153.33 134.91 154.67 134.28 155.44C133.65 156.21 132.48 157.58 131.68 158.47C130.88 159.37 129.37 160.96 128.32 162.01C127.27 163.06 125.65 164.59 124.72 165.42C123.79 166.24 122.3 167.51 121.41 168.23C120.51 168.96 118.94 170.17 117.92 170.93C116.9 171.68 115.06 172.97 113.82 173.79C112.58 174.61 110.81 175.74 109.88 176.29C108.96 176.84 107.49 177.69 106.62 178.17C105.76 178.66 103.86 179.64 102.41 180.37C100.96 181.1 98.81 182.12 97.63 182.64C96.46 183.16 94.48 183.99 93.25 184.49C92.01 184.98 90.09 185.72 88.98 186.12C87.86 186.51 86.22 187.08 85.32 187.38C83.97 187.82 83.5 187.92 82.54 187.98L81.39 188.05L81.39 194.78C83.75 194.66 84.42 194.55 85.13 194.34C85.67 194.18 89.41 192.61 93.44 190.85C97.48 189.08 101.64 187.22 102.69 186.7C103.74 186.18 105.51 185.24 106.62 184.62C107.74 183.99 109.58 182.89 110.73 182.18C111.87 181.47 113.95 180.12 115.34 179.19C116.73 178.26 118.7 176.88 119.72 176.11C120.74 175.35 122.36 174.08 123.32 173.29C124.28 172.51 125.92 171.11 126.97 170.2C128.02 169.28 130.18 167.24 131.76 165.66C133.34 164.09 135.24 162.11 135.98 161.28C136.72 160.45 137.93 159.03 138.67 158.14C139.42 157.24 140.52 155.88 141.12 155.11C141.72 154.34 142.61 153.15 143.09 152.47C143.58 151.79 144.4 150.55 144.93 149.72C145.45 148.89 146.3 147.45 146.82 146.52C147.33 145.59 148.37 143.57 149.13 142.03C149.89 140.49 150.91 138.29 151.4 137.15C151.89 136.01 152.62 134.19 153.02 133.11C153.43 132.03 154.02 130.34 154.34 129.35C154.66 128.36 155.11 126.85 155.35 125.98C155.59 125.12 155.96 123.63 156.18 122.67C156.4 121.71 156.71 120.22 156.87 119.36C157.03 118.5 157.28 116.93 157.43 115.88C157.58 114.83 157.79 113.27 157.88 112.4C157.97 111.54 158.11 110.17 158.19 109.37C158.28 108.28 158.33 95.03 158.36 56.96C158.39 21.51 158.37 5.88 158.28 5.58C158.22 5.35 158.03 5.06 157.86 4.93L157.55 4.71L81.39 4.71L81.39 7.41Z"/>
		<path class="shp3" d="M14.67 10.34C14.3 10.47 13.72 10.76 13.39 10.98C13.05 11.21 12.61 11.59 12.4 11.84C12.19 12.09 11.87 12.59 11.69 12.96C11.51 13.33 11.31 13.96 11.25 14.37C11.17 14.85 11.13 31.02 11.13 63.08C11.13 95.47 11.17 111.55 11.25 112.57C11.31 113.4 11.49 114.97 11.65 116.05C11.8 117.13 12.13 118.97 12.37 120.15C12.61 121.32 13.07 123.24 13.38 124.41C13.7 125.58 14.31 127.6 14.74 128.9C15.17 130.2 15.86 132.09 16.26 133.11C16.67 134.13 17.32 135.67 17.7 136.53C18.09 137.4 18.77 138.84 19.22 139.73C19.67 140.63 20.34 141.91 20.71 142.59C21.08 143.27 21.86 144.61 22.43 145.57C23.01 146.52 24.02 148.11 24.68 149.1C25.34 150.09 26.47 151.68 27.19 152.64C27.91 153.59 29 154.98 29.61 155.72C30.23 156.46 31.31 157.73 32.03 158.53C32.75 159.33 34.17 160.83 35.19 161.85C36.21 162.87 37.65 164.26 38.39 164.93C39.13 165.6 40.52 166.8 41.48 167.6C42.44 168.39 44.08 169.69 45.13 170.48C46.19 171.27 48.06 172.59 49.29 173.43C50.53 174.26 52.38 175.44 53.4 176.06C54.42 176.67 55.98 177.58 56.88 178.08C57.78 178.57 59.14 179.31 59.92 179.72C60.69 180.12 62.31 180.92 63.51 181.49C64.72 182.05 66.74 182.96 68.01 183.5C69.28 184.04 71.6 184.96 73.18 185.55C74.76 186.14 76.93 186.92 78.02 187.28L79.98 187.93L83.69 187.93C86.22 187.09 87.86 186.51 88.98 186.12C90.09 185.72 92.01 184.98 93.25 184.49C94.48 183.99 96.46 183.16 97.63 182.64C98.81 182.12 100.96 181.1 102.41 180.37C103.86 179.64 105.76 178.66 106.62 178.17C107.49 177.69 108.96 176.84 109.88 176.29C110.81 175.73 112.58 174.61 113.82 173.79C115.06 172.97 116.9 171.68 117.92 170.92C118.94 170.17 120.51 168.96 121.41 168.23C122.3 167.51 123.79 166.24 124.72 165.42C125.65 164.59 127.27 163.06 128.32 162.01C129.37 160.96 130.88 159.37 131.68 158.47C132.48 157.58 133.65 156.21 134.28 155.44C134.91 154.67 135.97 153.31 136.64 152.41C137.31 151.52 138.47 149.85 139.23 148.71C139.98 147.57 141 145.98 141.47 145.17C141.95 144.37 142.82 142.83 143.4 141.75C143.97 140.67 144.87 138.88 145.39 137.77C145.91 136.66 146.74 134.74 147.23 133.5C147.73 132.27 148.44 130.35 148.81 129.24C149.19 128.13 149.64 126.69 149.83 126.04C150.02 125.39 150.41 123.93 150.69 122.78C150.97 121.64 151.38 119.77 151.59 118.63C151.8 117.49 152.06 115.87 152.17 115.04C152.37 113.59 152.38 111.27 152.38 63.47L152.38 13.41C151.91 12.46 151.53 11.91 151.23 11.58C150.86 11.16 150.44 10.85 149.85 10.57L149.02 10.16L15.34 10.11L14.67 10.34Z"/>
		<path class="shp1" d="M15.4 12.4C15.12 12.49 14.67 12.75 14.39 12.99C14.08 13.26 13.78 13.66 13.63 14.01L13.38 14.59C13.44 110.32 13.45 113.61 13.63 114.81C13.74 115.52 13.96 116.81 14.11 117.68C14.27 118.54 14.55 119.93 14.74 120.76C14.92 121.6 15.28 123.04 15.53 123.96C15.78 124.89 16.29 126.58 16.66 127.72C17.03 128.86 17.63 130.56 17.98 131.48C18.34 132.41 18.84 133.67 19.11 134.29C19.37 134.9 19.97 136.22 20.43 137.21C20.89 138.19 21.67 139.76 22.17 140.68C22.67 141.61 23.61 143.25 24.26 144.33C24.91 145.41 25.95 147.05 26.57 147.98C27.2 148.91 28.3 150.45 29.02 151.4C29.74 152.36 30.92 153.85 31.64 154.71C32.36 155.58 33.55 156.94 34.28 157.74C35.01 158.55 36.46 160.04 37.51 161.05C38.55 162.07 40.14 163.55 41.03 164.33C41.93 165.11 43.14 166.14 43.73 166.61C44.32 167.09 45.66 168.13 46.71 168.91C47.76 169.7 49.33 170.82 50.19 171.41C51.06 171.99 52.47 172.92 53.34 173.46C54.21 174 55.75 174.92 56.77 175.51C57.79 176.09 59.79 177.17 61.21 177.9C62.63 178.63 64.68 179.62 65.76 180.12C66.84 180.61 68.51 181.34 69.47 181.74C70.43 182.13 72.1 182.8 73.18 183.22C74.26 183.63 76.31 184.36 77.73 184.85C79.16 185.33 80.56 185.75 80.85 185.79L81.39 185.86L81.39 172.56C78.99 172.42 77.51 172.28 76.55 172.16C75.6 172.04 74.28 171.84 73.63 171.71C72.98 171.58 71.84 171.32 71.1 171.14C70.36 170.96 68.97 170.55 68.01 170.23C67.05 169.92 65.66 169.41 64.92 169.11C64.18 168.8 62.89 168.22 62.05 167.8C61.22 167.39 60.03 166.75 59.41 166.39C58.79 166.03 57.63 165.29 56.83 164.75C56.02 164.21 54.68 163.22 53.85 162.56C53.01 161.89 51.39 160.41 50.24 159.27C49.09 158.12 47.61 156.5 46.94 155.67C46.28 154.83 45.29 153.5 44.75 152.69C44.2 151.89 43.39 150.6 42.95 149.83C42.51 149.06 41.86 147.85 41.52 147.14C41.17 146.43 40.67 145.32 40.41 144.67C40.14 144.02 39.74 142.99 39.53 142.37C39.31 141.75 38.95 140.64 38.74 139.9C38.52 139.16 38.22 137.97 38.06 137.26C37.91 136.55 37.7 135.54 37.61 135.02C37.51 134.49 37.35 133.41 37.26 132.6C37.16 131.8 37.05 129.93 37.02 128.45C36.98 126.78 37 125.12 37.09 124.07C37.16 123.15 37.32 121.73 37.44 120.93C37.55 120.13 37.75 118.97 37.88 118.35C38.01 117.73 38.29 116.57 38.5 115.77C38.71 114.97 39.14 113.55 39.46 112.63C39.79 111.7 40.27 110.41 40.55 109.76C40.83 109.12 41.36 107.98 41.73 107.24C42.1 106.5 42.85 105.13 43.4 104.21C43.96 103.28 44.87 101.88 45.45 101.1C46.02 100.32 46.89 99.18 47.38 98.58C47.87 97.97 49.16 96.59 50.25 95.51C51.33 94.43 52.85 93.04 53.62 92.42C54.39 91.8 55.53 90.93 56.15 90.49C56.77 90.05 57.96 89.28 58.79 88.78C59.63 88.27 61.12 87.46 62.11 86.97C63.1 86.48 64.67 85.78 65.59 85.42C66.52 85.05 67.94 84.56 68.74 84.31C69.54 84.06 70.73 83.73 71.38 83.57C72.03 83.42 73.25 83.16 74.08 83.01C74.92 82.86 76.28 82.65 77.12 82.56C77.95 82.47 79.25 82.35 80.01 82.3L81.39 82.21L81.39 74.13C41.89 74.18 30.6 74.15 29.28 74.09C27.65 74.01 26.79 73.92 26.14 73.74C25.64 73.61 24.86 73.33 24.39 73.11C23.93 72.89 23.25 72.49 22.88 72.23C22.51 71.97 21.95 71.48 21.65 71.14C21.35 70.81 20.92 70.26 20.68 69.92C20.45 69.58 20.11 68.98 19.91 68.57C19.72 68.17 19.41 67.19 19.23 66.39C19.04 65.58 18.89 64.8 18.88 64.65C18.88 64.49 18.94 64.31 19.02 64.23C19.13 64.13 20.82 64.07 25.29 64.01C29.92 63.94 31.44 63.88 31.55 63.78C31.63 63.7 31.7 63.46 31.7 63.24C31.7 63.03 31.63 62.79 31.55 62.71C31.47 62.63 30.42 62.27 29.23 61.9C28.04 61.53 27.03 61.16 26.99 61.08C26.95 61 26.97 60.88 27.04 60.82C27.11 60.73 27.84 60.89 29.45 61.32C30.72 61.67 31.91 61.96 32.09 61.97C32.28 61.98 32.76 61.84 33.16 61.66C33.89 61.34 33.9 61.34 35.97 61.36C37.49 61.37 38.17 61.43 38.5 61.55C38.75 61.64 39.11 61.88 39.29 62.09C39.48 62.29 39.66 62.52 39.69 62.61C39.73 62.73 40.1 62.74 41.62 62.66L43.51 62.57C43.7 61.96 43.9 61.49 44.08 61.14C44.26 60.77 44.56 60.38 44.77 60.24C45.11 60 45.31 59.98 48.04 59.88L50.94 59.76C52.37 57.94 53 57.26 53.27 57.08C53.72 56.76 53.84 56.73 54.96 56.68C55.81 56.64 56.23 56.57 56.36 56.45C56.47 56.36 56.55 56.21 56.55 56.12C56.55 56.02 56.65 55.73 56.77 55.47C56.93 55.13 57.13 54.92 57.47 54.75C57.87 54.54 58.17 54.5 59.38 54.47C60.68 54.44 60.83 54.41 60.93 54.21C61.03 54 61.15 53.98 62.73 53.98L64.41 53.98L64.41 43.43C65.06 42.9 65.18 42.87 66.21 42.87C67.31 42.87 67.34 42.88 67.67 43.21L68.01 43.55L68.01 53.98L69.92 53.98L69.92 47.59C70.35 47.15 70.6 47.03 70.76 47.03C70.92 47.03 71.17 47.15 71.33 47.31L71.61 47.59L71.61 53.98C75.66 53.98 75.85 53.99 76.13 54.2C76.35 54.37 76.47 54.59 76.55 54.99C76.62 55.3 76.64 55.61 76.61 55.67C76.58 55.73 76.6 55.88 76.67 56C76.77 56.21 76.89 56.23 77.85 56.23C78.43 56.23 79.05 56.28 79.22 56.35C79.39 56.41 79.95 56.88 80.46 57.39L81.39 58.31L81.39 12.23C21.29 12.25 15.82 12.27 15.4 12.4Z"/>
		<path class="shp2" d="M81.39 35.27L81.39 58.31L82.29 59.37C86.43 59.35 88.67 59.32 89.95 59.28C92.23 59.2 92.28 59.2 92.58 58.92C92.74 58.77 92.99 58.42 93.12 58.15C93.25 57.87 93.59 57.46 93.87 57.22C94.27 56.88 94.5 56.77 94.99 56.71C95.33 56.66 96.37 56.63 97.29 56.64C98.46 56.64 99.21 56.7 99.71 56.83C100.11 56.93 100.71 57.01 101.03 57.01C101.38 57.01 102.19 56.85 103 56.62C103.76 56.4 104.72 56.16 105.13 56.08C105.73 55.98 105.92 55.98 106.03 56.09C106.13 56.18 106.14 56.27 106.06 56.34C106 56.4 104.94 56.76 103.7 57.13C102.47 57.5 101.39 57.86 101.3 57.94C101.21 58.03 101.18 58.2 101.22 58.39C101.25 58.56 101.4 58.78 101.54 58.87C101.76 59.02 102.39 59.04 106.12 59.01C108.5 59 110.8 58.98 111.23 58.99C111.67 58.99 112.16 59.02 112.33 59.07C112.57 59.13 112.71 59.3 112.96 59.85C113.14 60.23 113.48 61.07 113.72 61.71C113.96 62.35 114.23 62.92 114.32 62.97C114.42 63.02 116.58 63.02 119.13 62.98C121.68 62.94 123.77 62.87 123.77 62.82C123.77 62.78 123.99 62.45 124.26 62.09C124.53 61.74 124.89 61.32 125.06 61.17C125.34 60.9 125.44 60.88 126.9 60.84C127.74 60.82 129.47 60.86 130.74 60.94L133.04 61.07C135.83 60.25 136.75 60 136.89 59.97C137.08 59.94 137.16 60 137.21 60.19C137.24 60.32 137.26 60.45 137.24 60.46C137.22 60.48 136.19 60.81 134.95 61.19C133.72 61.58 132.64 61.93 132.56 61.98C132.49 62.03 132.42 62.18 132.42 62.32C132.42 62.46 132.48 62.63 132.56 62.71C132.67 62.82 133.87 62.83 138.29 62.77C143.81 62.68 143.88 62.68 143.96 62.91C144 63.03 143.99 63.31 143.92 63.52C143.86 63.74 143.38 65.03 142.87 66.39C142.36 67.74 141.55 70.02 141.07 71.44C140.56 72.93 140.11 74.05 140.01 74.1C139.92 74.15 126.69 74.17 110.62 74.16L81.39 74.13L81.39 82.27C82.65 82.27 83.83 82.32 84.82 82.38C85.81 82.44 87.04 82.55 87.57 82.61C88.1 82.68 89.13 82.83 89.87 82.96C90.62 83.08 91.86 83.33 92.63 83.51C93.4 83.7 94.57 84 95.21 84.2C95.86 84.39 97.1 84.81 97.97 85.13C98.83 85.46 100.15 86 100.89 86.34C101.63 86.67 102.85 87.27 103.59 87.67C104.33 88.07 105.55 88.78 106.29 89.25C107.03 89.72 108.24 90.55 108.99 91.1C109.73 91.65 110.89 92.57 111.57 93.15C112.25 93.73 113.44 94.84 114.21 95.62C114.99 96.39 116.1 97.61 116.7 98.32C117.3 99.03 118.22 100.21 118.76 100.95C119.3 101.69 120.15 102.96 120.65 103.76C121.15 104.56 122 106.1 122.54 107.18C123.08 108.26 123.74 109.68 124 110.33C124.26 110.97 124.7 112.16 124.97 112.96C125.24 113.77 125.64 115.08 125.85 115.88C126.06 116.68 126.36 117.97 126.51 118.74C126.66 119.51 126.86 120.73 126.96 121.44C127.05 122.15 127.19 123.54 127.26 124.52C127.34 125.58 127.37 127.22 127.33 128.51C127.29 129.71 127.18 131.43 127.08 132.32C126.98 133.22 126.78 134.63 126.62 135.47C126.47 136.3 126.16 137.69 125.95 138.55C125.73 139.42 125.3 140.88 124.98 141.81C124.67 142.73 124.11 144.2 123.74 145.06C123.37 145.93 122.81 147.14 122.5 147.76C122.18 148.37 121.65 149.36 121.31 149.94C120.97 150.53 120.26 151.67 119.72 152.47C119.18 153.27 118.35 154.43 117.87 155.05C117.38 155.67 116.5 156.73 115.89 157.41C115.29 158.09 114.34 159.08 113.8 159.61C113.25 160.14 112.33 160.99 111.74 161.5C111.15 162.02 109.96 162.96 109.1 163.61C108.23 164.25 106.87 165.19 106.06 165.69C105.26 166.19 103.84 166.99 102.91 167.47C101.99 167.94 100.62 168.59 99.88 168.91C99.14 169.23 97.75 169.75 96.79 170.08C95.83 170.41 94.34 170.86 93.47 171.08C92.61 171.3 91.34 171.59 90.66 171.72C89.98 171.84 88.64 172.05 87.68 172.18C86.72 172.3 84.92 172.44 83.66 172.48L81.39 172.56L81.39 185.91C83.05 185.78 83.77 185.58 85.77 184.91C87.16 184.44 89.36 183.64 90.66 183.14C91.96 182.64 93.88 181.87 94.93 181.42C95.98 180.98 97.63 180.25 98.59 179.8C99.55 179.36 101.34 178.48 102.58 177.84C103.81 177.21 105.66 176.21 106.68 175.62C107.7 175.04 109.22 174.14 110.05 173.62C110.89 173.1 112.28 172.2 113.14 171.62C114.01 171.04 115.38 170.08 116.18 169.5C116.98 168.91 118.48 167.76 119.5 166.95C120.52 166.13 122.08 164.82 122.98 164.02C123.88 163.23 125.55 161.65 126.7 160.5C127.85 159.35 129.26 157.88 129.85 157.23C130.43 156.58 131.39 155.47 131.98 154.76C132.58 154.06 133.62 152.75 134.3 151.85C134.98 150.96 135.94 149.64 136.44 148.93C136.93 148.22 137.76 146.99 138.27 146.18C138.78 145.38 139.68 143.89 140.27 142.87C140.85 141.85 141.8 140.09 142.37 138.95C142.94 137.8 143.7 136.21 144.06 135.41C144.41 134.61 145.03 133.12 145.43 132.1C145.84 131.08 146.48 129.29 146.87 128.11C147.26 126.94 147.79 125.22 148.04 124.3C148.29 123.37 148.68 121.83 148.9 120.88C149.12 119.92 149.44 118.28 149.62 117.23C149.8 116.18 150.03 114.6 150.12 113.72C150.28 112.3 150.3 106.73 150.29 63.16C150.29 15.7 150.29 14.18 150.08 13.75C149.97 13.5 149.7 13.14 149.5 12.94C149.29 12.74 148.89 12.5 148.61 12.4C148.16 12.25 144.73 12.23 114.75 12.23L81.39 12.23L81.39 35.27Z"/>
		<path class="shp4" d="M29.12 19.43C28.58 19.49 27.69 19.69 27.09 19.9C26.5 20.1 25.72 20.44 25.35 20.65C24.98 20.87 24.24 21.47 23.71 22C23.08 22.62 22.59 23.23 22.31 23.74C22.07 24.17 21.75 24.9 21.59 25.36C21.34 26.12 21.31 26.39 21.31 28C21.3 29.75 21.31 29.83 21.67 30.81C21.87 31.36 22.2 32.1 22.4 32.44C22.6 32.77 23.19 33.48 23.72 34.01C24.47 34.76 24.89 35.08 25.69 35.49C26.24 35.78 27.08 36.12 27.54 36.25C28.14 36.43 28.82 36.52 29.9 36.56C31.08 36.6 31.63 36.57 32.38 36.42C32.9 36.32 33.68 36.1 34.12 35.93C34.55 35.77 35.26 35.41 35.69 35.12C36.12 34.84 36.85 34.22 37.29 33.74C37.91 33.09 38.23 32.64 38.6 31.85C38.88 31.28 39.19 30.45 39.29 30.02C39.42 29.5 39.49 28.81 39.48 27.95C39.48 27.03 39.41 26.41 39.26 25.81C39.13 25.35 38.87 24.64 38.68 24.24C38.49 23.84 38.08 23.18 37.78 22.78C37.49 22.38 36.92 21.79 36.52 21.48C36.13 21.16 35.47 20.72 35.07 20.51C34.67 20.29 33.94 19.98 33.44 19.83C32.95 19.67 32.01 19.49 31.36 19.42C30.71 19.36 30.16 19.31 30.13 19.32C30.1 19.33 29.64 19.38 29.12 19.43ZM89.09 19.42C88.59 19.47 87.86 19.59 87.46 19.7C87.06 19.8 86.42 20.03 86.05 20.2C85.68 20.37 85.1 20.77 84.76 21.07C84.42 21.38 83.99 21.9 83.81 22.23C83.63 22.57 83.42 23.09 83.34 23.4C83.26 23.71 83.19 24.24 83.19 24.58C83.19 24.92 83.26 25.47 83.36 25.81C83.46 26.15 83.71 26.68 83.92 26.99C84.12 27.3 84.51 27.71 84.78 27.91C85.05 28.1 85.59 28.42 86 28.61C86.4 28.8 87.81 29.23 89.14 29.57C90.53 29.93 91.77 30.32 92.04 30.47C92.3 30.63 92.59 30.87 92.69 31C92.78 31.14 92.86 31.5 92.85 31.79C92.85 32.24 92.8 32.38 92.49 32.7C92.24 32.96 91.91 33.15 91.45 33.28C90.9 33.44 90.5 33.46 89.31 33.42C88.13 33.37 87.67 33.3 86.9 33.05C86.37 32.88 85.69 32.62 85.38 32.46C85.07 32.31 84.68 32.09 84.51 31.97L84.2 31.76C83.57 33.11 83.27 33.77 83.12 34.09C82.86 34.65 82.86 34.69 83.05 34.84C83.15 34.92 83.61 35.17 84.06 35.4C84.51 35.62 85.29 35.92 85.8 36.07C86.31 36.22 87.16 36.4 87.68 36.48C88.29 36.57 89.22 36.6 90.21 36.56C91.35 36.51 92.02 36.43 92.63 36.25C93.09 36.12 93.77 35.85 94.14 35.65C94.51 35.46 95.05 35.07 95.36 34.79C95.72 34.46 96.05 34 96.32 33.45C96.72 32.65 96.73 32.57 96.73 31.43C96.73 30.48 96.68 30.15 96.5 29.74C96.37 29.46 96.07 29.02 95.83 28.74C95.58 28.47 95.18 28.11 94.93 27.94C94.69 27.77 94.15 27.5 93.75 27.34C93.35 27.17 92.09 26.81 90.94 26.53C89.8 26.25 88.6 25.9 88.27 25.75C87.95 25.6 87.55 25.34 87.4 25.17C87.18 24.93 87.11 24.74 87.12 24.35C87.12 24.06 87.2 23.73 87.31 23.57C87.42 23.41 87.61 23.2 87.74 23.09C87.86 22.99 88.24 22.81 88.58 22.71C89 22.58 89.56 22.52 90.32 22.53C91.04 22.54 91.75 22.62 92.29 22.76C92.76 22.88 93.53 23.16 94.01 23.39L94.88 23.79C95.12 23.23 95.37 22.61 95.6 22.05C95.82 21.5 96 20.98 96 20.9C96 20.83 95.76 20.64 95.47 20.5C95.17 20.35 94.52 20.1 94.01 19.93C93.5 19.77 92.74 19.59 92.32 19.54C91.9 19.48 91.21 19.41 90.77 19.38C90.34 19.36 89.58 19.38 89.09 19.42ZM47.14 27.97L47.16 36.31C53.82 36.36 55.72 36.32 56.32 36.25C56.84 36.18 57.7 35.98 58.23 35.82C58.76 35.65 59.54 35.32 59.97 35.08C60.47 34.81 61.1 34.31 61.66 33.74C62.27 33.13 62.7 32.57 62.98 32.04C63.2 31.61 63.5 30.85 63.64 30.36C63.85 29.63 63.9 29.19 63.9 28C63.9 26.98 63.84 26.32 63.71 25.81C63.6 25.41 63.3 24.65 63.05 24.13C62.67 23.37 62.39 22.98 61.61 22.21C60.81 21.41 60.47 21.16 59.58 20.72C58.99 20.44 58.11 20.09 57.61 19.96C56.77 19.73 56.41 19.71 51.91 19.67L47.12 19.62L47.14 27.97ZM71.61 28L71.61 36.36L75.49 36.31L75.54 19.64L71.61 19.64L71.61 28ZM104.21 28L104.21 36.36L108.03 36.36L108.03 29.52L115.56 29.52L115.62 36.31L119.5 36.36L119.5 19.64L115.56 19.64L115.56 26.15L108.03 26.15L108.03 19.64L104.21 19.64L104.21 28ZM133.4 19.72C133.37 19.77 131.71 23.51 129.7 28.03C127.69 32.55 126.04 36.27 126.03 36.3C126.02 36.34 126.91 36.35 128.01 36.34L129.99 36.31L131.47 32.77L139.18 32.83L140.69 36.37C143.78 36.37 144.68 36.33 144.68 36.28C144.68 36.23 143.02 32.48 140.99 27.95L137.29 19.7C134.32 19.65 133.43 19.67 133.4 19.72Z"/>
		<path class="shp1" d="M29.12 22.82C28.78 22.9 28.17 23.13 27.78 23.35C27.38 23.56 26.83 23.99 26.54 24.31C26.26 24.62 25.89 25.15 25.73 25.48C25.56 25.82 25.38 26.36 25.31 26.68C25.24 27.01 25.18 27.6 25.18 28C25.18 28.4 25.24 29 25.31 29.32C25.37 29.65 25.61 30.26 25.84 30.68C26.07 31.11 26.49 31.67 26.78 31.95C27.08 32.22 27.63 32.59 28.02 32.77C28.41 32.95 29.08 33.16 29.51 33.23C30.11 33.34 30.49 33.34 31.14 33.23C31.6 33.16 32.3 32.95 32.68 32.77C33.07 32.59 33.65 32.2 33.96 31.9C34.28 31.61 34.67 31.14 34.83 30.86C34.99 30.59 35.21 30.07 35.32 29.71C35.45 29.29 35.52 28.71 35.52 28.03C35.52 27.4 35.45 26.75 35.34 26.37C35.24 26.04 35.06 25.56 34.93 25.31C34.8 25.06 34.44 24.58 34.11 24.24C33.76 23.87 33.24 23.48 32.81 23.27C32.42 23.07 31.79 22.86 31.42 22.79C31.05 22.72 30.52 22.67 30.24 22.68C29.96 22.69 29.46 22.75 29.12 22.82ZM51.04 28L51.04 33.11C54.39 33.11 55.64 33.06 55.98 33C56.32 32.94 56.95 32.71 57.39 32.5C57.88 32.26 58.36 31.92 58.67 31.58C58.95 31.28 59.32 30.73 59.49 30.36C59.67 29.99 59.86 29.31 59.93 28.84C60.03 28.22 60.03 27.78 59.93 27.13C59.86 26.65 59.67 25.97 59.5 25.62C59.33 25.25 58.93 24.7 58.58 24.35C58.23 24.01 57.7 23.6 57.39 23.46C57.08 23.31 56.57 23.13 56.26 23.04C55.89 22.95 54.92 22.9 53.37 22.9L51.04 22.9L51.04 28Z"/>
		<path class="shp2" d="M134.03 26.63C133.33 28.31 132.76 29.72 132.76 29.77C132.76 29.82 133.92 29.85 135.35 29.85C137.36 29.85 137.92 29.82 137.89 29.71C137.86 29.64 137.3 28.26 136.63 26.66C135.97 25.05 135.4 23.7 135.36 23.66C135.32 23.62 134.72 24.95 134.03 26.63Z"/>
		<path class="shp5" d="M64.75 43.16L64.4 43.45L64.41 53.98C61.15 53.98 61.03 54 60.93 54.21C60.83 54.41 60.68 54.44 59.38 54.47C58.17 54.5 57.87 54.54 57.47 54.75C57.13 54.92 56.93 55.13 56.77 55.47C56.65 55.73 56.55 56.02 56.55 56.12C56.55 56.21 56.47 56.36 56.36 56.45C56.23 56.57 55.81 56.64 54.96 56.68C53.84 56.73 53.72 56.76 53.27 57.08C53 57.26 52.37 57.94 51.86 58.59L50.94 59.76C45.31 59.98 45.11 60 44.77 60.24C44.56 60.38 44.26 60.77 44.08 61.14C43.9 61.49 43.7 61.96 43.63 62.18L43.51 62.57C40.1 62.74 39.73 62.73 39.69 62.61C39.66 62.52 39.48 62.29 39.29 62.09C39.11 61.88 38.75 61.64 38.5 61.55C38.17 61.43 37.49 61.37 35.97 61.36C33.9 61.34 33.89 61.34 33.16 61.66C32.76 61.84 32.28 61.98 32.09 61.97C31.91 61.96 30.72 61.67 29.45 61.32C27.84 60.89 27.11 60.73 27.04 60.82C26.97 60.88 26.95 61 26.99 61.08C27.03 61.16 28.04 61.53 29.23 61.9C30.42 62.27 31.47 62.63 31.55 62.71C31.63 62.79 31.7 63.03 31.7 63.24C31.7 63.46 31.63 63.7 31.55 63.78C31.44 63.88 29.92 63.94 25.29 64.01C20.82 64.07 19.13 64.13 19.02 64.23C18.94 64.31 18.88 64.49 18.88 64.65C18.89 64.8 19.04 65.58 19.23 66.39C19.41 67.19 19.72 68.17 19.91 68.57C20.11 68.98 20.45 69.58 20.68 69.92C20.92 70.26 21.35 70.81 21.65 71.14C21.95 71.48 22.51 71.97 22.88 72.23C23.25 72.49 23.93 72.89 24.39 73.11C24.86 73.33 25.64 73.61 26.14 73.74C26.76 73.91 27.65 74.01 29 74.08C30.09 74.13 55.31 74.18 85.43 74.18C115.39 74.18 139.96 74.15 140.04 74.1C140.12 74.06 140.58 72.86 141.06 71.44C141.55 70.02 142.36 67.74 142.87 66.39C143.38 65.03 143.86 63.74 143.92 63.52C143.99 63.31 144 63.03 143.96 62.91C143.88 62.68 143.81 62.68 138.29 62.77C133.87 62.83 132.67 62.82 132.56 62.71C132.48 62.63 132.42 62.46 132.42 62.32C132.42 62.18 132.49 62.03 132.56 61.98C132.64 61.93 133.72 61.58 134.95 61.19C136.19 60.81 137.22 60.48 137.24 60.46C137.26 60.45 137.24 60.32 137.21 60.19C137.16 60 137.08 59.94 136.89 59.97C136.75 60 135.83 60.25 134.84 60.54L133.04 61.07C129.47 60.86 127.74 60.82 126.9 60.84C125.44 60.88 125.34 60.9 125.06 61.17C124.89 61.32 124.53 61.74 124.26 62.09C123.99 62.45 123.77 62.78 123.77 62.82C123.77 62.87 121.68 62.94 119.13 62.98C116.58 63.02 114.42 63.02 114.32 62.97C114.23 62.92 113.96 62.35 113.72 61.71C113.48 61.07 113.14 60.23 112.96 59.85C112.71 59.3 112.57 59.13 112.33 59.07C112.16 59.02 111.67 58.99 111.23 58.99C110.8 58.98 108.5 59 106.12 59.01C102.39 59.04 101.76 59.02 101.54 58.87C101.4 58.78 101.25 58.56 101.22 58.39C101.18 58.2 101.21 58.03 101.3 57.94C101.39 57.86 102.47 57.5 103.7 57.13C104.94 56.76 106 56.4 106.06 56.34C106.14 56.27 106.13 56.18 106.03 56.09C105.92 55.98 105.73 55.98 105.13 56.08C104.72 56.16 103.76 56.4 103 56.62C102.19 56.85 101.38 57.01 101.03 57.01C100.71 57.01 100.11 56.93 99.71 56.83C99.21 56.7 98.46 56.64 97.29 56.64C96.37 56.63 95.33 56.66 94.99 56.71C94.5 56.77 94.27 56.88 93.87 57.22C93.59 57.46 93.25 57.87 93.12 58.15C92.99 58.42 92.74 58.77 92.58 58.92C92.28 59.2 92.23 59.2 89.95 59.28C88.67 59.32 86.44 59.35 84.98 59.36L82.34 59.36C80.25 57.16 79.48 56.46 79.28 56.38C79.06 56.29 78.48 56.23 77.85 56.23C76.89 56.23 76.77 56.21 76.67 56C76.6 55.88 76.58 55.73 76.61 55.67C76.64 55.61 76.62 55.3 76.55 54.99C76.47 54.59 76.35 54.37 76.13 54.2C75.85 53.99 75.66 53.98 73.72 53.98L71.61 53.98L71.61 47.59C71.17 47.15 70.92 47.03 70.76 47.03C70.6 47.03 70.35 47.15 70.2 47.31L69.92 47.59L69.92 53.98L68.01 53.98L68.01 43.55C67.34 42.88 67.31 42.87 66.22 42.87C65.19 42.87 65.08 42.89 64.75 43.16ZM78.75 82.39C78.07 82.44 76.78 82.59 75.88 82.72C74.98 82.85 73.54 83.1 72.68 83.29C71.81 83.47 70.39 83.82 69.53 84.07C68.66 84.32 67.27 84.78 66.44 85.09C65.6 85.41 64.41 85.89 63.79 86.16C63.18 86.43 62.01 87 61.21 87.42C60.41 87.84 59.09 88.59 58.29 89.08C57.48 89.58 56.22 90.44 55.48 90.99C54.73 91.54 53.65 92.39 53.06 92.87C52.47 93.36 51.16 94.59 50.14 95.61C49.12 96.64 47.88 97.97 47.38 98.58C46.89 99.18 46.02 100.32 45.45 101.1C44.87 101.88 43.96 103.28 43.4 104.21C42.85 105.13 42.1 106.5 41.73 107.24C41.36 107.98 40.83 109.12 40.55 109.76C40.27 110.41 39.79 111.7 39.46 112.63C39.14 113.55 38.71 114.97 38.5 115.77C38.29 116.57 38.01 117.73 37.88 118.35C37.75 118.97 37.55 120.13 37.44 120.93C37.32 121.73 37.16 123.15 37.09 124.07C37 125.12 36.98 126.78 37.02 128.45C37.05 129.93 37.16 131.8 37.26 132.6C37.35 133.41 37.51 134.49 37.61 135.02C37.7 135.54 37.91 136.55 38.06 137.26C38.22 137.97 38.52 139.16 38.74 139.9C38.95 140.64 39.31 141.75 39.53 142.37C39.74 142.99 40.14 144.02 40.41 144.67C40.67 145.32 41.17 146.43 41.52 147.14C41.86 147.85 42.51 149.06 42.95 149.83C43.39 150.6 44.2 151.89 44.75 152.69C45.29 153.5 46.28 154.83 46.94 155.67C47.61 156.5 49.09 158.12 50.24 159.27C51.39 160.41 53.01 161.89 53.85 162.56C54.68 163.22 56.02 164.21 56.83 164.75C57.63 165.29 58.79 166.03 59.41 166.39C60.03 166.75 61.22 167.39 62.05 167.8C62.89 168.22 64.18 168.8 64.92 169.11C65.66 169.41 67.05 169.92 68.01 170.23C68.97 170.55 70.28 170.94 70.93 171.1C71.58 171.26 72.7 171.52 73.41 171.66C74.12 171.81 75.56 172.04 76.61 172.18C78.26 172.4 79.01 172.44 82.12 172.44C84.95 172.44 86.05 172.4 87.29 172.24C88.15 172.13 89.55 171.91 90.38 171.76C91.22 171.61 92.61 171.3 93.47 171.08C94.34 170.86 95.83 170.41 96.79 170.08C97.75 169.75 99.14 169.23 99.88 168.91C100.62 168.59 101.99 167.94 102.91 167.47C103.84 166.99 105.26 166.19 106.06 165.69C106.87 165.19 108.23 164.25 109.1 163.61C109.96 162.96 111.15 162.02 111.74 161.5C112.33 160.99 113.25 160.14 113.8 159.61C114.34 159.08 115.29 158.09 115.89 157.41C116.5 156.73 117.38 155.67 117.87 155.05C118.35 154.43 119.18 153.27 119.72 152.47C120.26 151.67 120.97 150.53 121.31 149.94C121.65 149.36 122.18 148.37 122.5 147.76C122.81 147.14 123.37 145.93 123.74 145.06C124.11 144.2 124.67 142.73 124.98 141.81C125.3 140.88 125.73 139.42 125.95 138.55C126.16 137.69 126.47 136.3 126.62 135.47C126.78 134.63 126.98 133.22 127.08 132.32C127.18 131.43 127.29 129.71 127.33 128.51C127.37 127.22 127.34 125.58 127.26 124.52C127.19 123.54 127.05 122.15 126.96 121.44C126.86 120.73 126.66 119.51 126.51 118.74C126.36 117.97 126.06 116.68 125.85 115.88C125.64 115.08 125.24 113.77 124.97 112.96C124.7 112.16 124.26 110.97 124 110.33C123.74 109.68 123.08 108.26 122.54 107.18C122 106.1 121.15 104.56 120.65 103.76C120.15 102.96 119.3 101.69 118.76 100.95C118.22 100.21 117.3 99.03 116.7 98.32C116.1 97.61 114.99 96.39 114.21 95.62C113.44 94.84 112.25 93.73 111.57 93.15C110.89 92.57 109.73 91.65 108.99 91.1C108.24 90.55 107.03 89.72 106.29 89.25C105.55 88.78 104.33 88.07 103.59 87.67C102.85 87.27 101.63 86.67 100.89 86.34C100.15 86 98.83 85.46 97.97 85.13C97.1 84.81 95.86 84.39 95.21 84.2C94.57 84 93.4 83.7 92.63 83.51C91.86 83.33 90.62 83.08 89.87 82.96C89.13 82.83 88.1 82.68 87.57 82.61C87.04 82.55 85.81 82.44 84.82 82.38C83.83 82.32 82.33 82.27 81.5 82.28C80.67 82.29 79.43 82.34 78.75 82.39Z"/>
		<path class="shp1" d="M76.83 88.4C76.4 88.49 74.23 88.95 72 89.41C69.78 89.87 67.87 90.28 67.77 90.32C67.6 90.39 67.64 90.56 68.12 91.69C68.42 92.4 70.46 97.33 72.65 102.64C74.85 107.95 76.73 112.48 76.83 112.71L77 113.13C78.4 112.65 78.8 112.46 78.8 112.4C78.8 112.34 78.47 111.3 78.07 110.1C77.67 108.9 77.34 107.8 77.34 107.66C77.34 107.52 77.4 107.29 77.47 107.15C77.54 107.02 77.83 106.6 78.12 106.24C78.55 105.69 78.64 105.49 78.67 105.01C78.7 104.51 78.66 104.37 78.38 103.98L78.05 103.54C78.81 102.01 79.13 101.31 79.25 100.98C79.38 100.66 79.6 99.91 79.75 99.33C79.9 98.74 80.09 97.81 80.16 97.25C80.24 96.6 80.27 95.42 80.23 93.94C80.2 92.65 80.09 91.15 79.99 90.52C79.88 89.9 79.72 89.22 79.61 89.01C79.51 88.8 79.27 88.53 79.08 88.42C78.87 88.29 78.54 88.22 78.18 88.23C77.87 88.23 77.27 88.31 76.83 88.4Z"/>
		<path class="shp2" d="M84.98 88.64C84.74 88.88 84.51 89.25 84.44 89.51C84.37 89.75 84.24 90.61 84.14 91.41C84.05 92.22 83.97 93.68 83.98 94.67C83.98 95.66 84.05 96.97 84.14 97.59C84.23 98.2 84.42 99.14 84.57 99.66C84.72 100.19 84.98 100.97 85.15 101.4C85.32 101.84 85.64 102.49 85.84 102.86C86.22 103.53 86.22 103.54 86.02 103.82C85.91 103.97 85.75 104.25 85.67 104.43C85.59 104.62 85.55 104.95 85.59 105.16C85.62 105.38 85.9 105.91 86.22 106.34C86.53 106.77 86.84 107.28 86.9 107.46C87 107.76 86.91 108.09 86.22 109.99C85.79 111.19 85.43 112.23 85.43 112.29C85.43 112.35 85.86 112.53 86.39 112.68C86.91 112.84 87.36 112.94 87.39 112.91C87.41 112.88 88.29 110.78 89.35 108.25C90.4 105.72 92.38 100.92 93.76 97.59C95.13 94.25 96.31 91.26 96.38 90.94C96.45 90.62 96.48 90.34 96.45 90.32C96.42 90.29 94.8 89.94 92.85 89.53C90.91 89.11 88.72 88.65 87.99 88.5C87.27 88.34 86.39 88.22 86.04 88.22C85.46 88.22 85.37 88.25 84.98 88.64Z"/>
		<path class="shp1" d="M63.01 93.02C61.21 94.18 59.17 95.51 58.46 95.98C57.68 96.5 57.08 96.98 56.97 97.19C56.86 97.38 56.77 97.71 56.77 97.92C56.77 98.14 56.84 98.48 56.92 98.68C57 98.88 57.47 99.58 57.95 100.22C58.44 100.87 59.52 102.09 60.36 102.93C61.5 104.06 62.21 104.66 63.18 105.3C63.89 105.78 64.9 106.36 65.42 106.6C65.95 106.84 66.83 107.19 67.37 107.36L68.37 107.69L68.22 109.03C69.32 109.36 70.02 109.49 70.48 109.53C70.95 109.58 71.43 109.67 71.55 109.74C71.68 109.8 71.89 109.97 72.03 110.12C72.17 110.27 72.5 111.03 72.78 111.84C73.05 112.64 73.43 113.64 73.62 114.06L73.97 114.81C75.08 114.08 75.5 113.81 75.6 113.75C75.78 113.65 75.32 112.48 71.12 102.27C68.55 96.02 66.4 90.91 66.35 90.91C66.31 90.91 64.8 91.86 63.01 93.02Z"/>
		<path class="shp2" d="M97.79 91.22C97.73 91.39 97.28 92.49 96.79 93.66C96.3 94.83 95.16 97.58 94.26 99.78C93.35 101.97 91.95 105.35 91.15 107.3C90.35 109.24 89.44 111.42 89.14 112.15L88.58 113.47C89.12 113.77 89.58 114.05 89.94 114.28L90.61 114.7C90.86 113.88 91.04 113.26 91.17 112.79C91.31 112.33 91.54 111.68 91.69 111.34C91.85 111 92.13 110.52 92.33 110.27C92.54 110.02 92.97 109.68 93.31 109.51C93.85 109.23 94.04 109.2 95.02 109.2C96.09 109.2 96.11 109.2 96.06 108.95C96.04 108.81 95.98 108.47 95.95 108.19L95.88 107.69C97.59 107.11 98.59 106.7 99.21 106.39C99.82 106.08 100.77 105.52 101.31 105.13C101.84 104.75 102.73 104.03 103.27 103.54C103.81 103.04 104.66 102.16 105.16 101.57C105.67 100.98 106.31 100.2 106.59 99.83C106.88 99.46 107.19 98.97 107.29 98.74C107.39 98.51 107.47 98.11 107.47 97.87C107.47 97.52 107.38 97.32 107.1 97C106.9 96.78 105.78 95.96 104.6 95.19C103.43 94.42 101.47 93.14 100.25 92.35C99.02 91.56 98 90.91 97.97 90.91C97.93 90.91 97.86 91.05 97.79 91.22Z"/>
		<path class="shp1" d="M52.02 102.16C51.72 102.34 51.33 102.82 50.71 103.76C50.22 104.5 48.93 106.48 47.84 108.16C46.76 109.85 45.86 111.26 45.86 111.31C45.86 111.35 46.1 111.53 46.4 111.69C46.69 111.86 51.13 113.73 56.26 115.86C61.39 117.98 66.37 120.05 67.31 120.44C68.25 120.83 69.04 121.13 69.05 121.1C69.07 121.07 69.26 120.67 69.47 120.21C69.69 119.75 69.82 119.36 69.75 119.33C69.69 119.31 68.45 118.7 67 117.98L64.36 116.67C64.27 114.93 64.18 114.32 64.12 114.2C64.05 114.07 63.85 113.86 63.67 113.72C63.49 113.58 63.14 113.44 62.9 113.4C62.46 113.34 62.44 113.32 62.18 112.59C62.04 112.18 61.62 111.23 61.26 110.49C60.9 109.75 60.32 108.72 59.97 108.19C59.61 107.67 59.01 106.86 58.63 106.4C58.24 105.93 57.55 105.21 57.09 104.78C56.64 104.35 55.76 103.63 55.14 103.17C54.52 102.71 53.88 102.26 53.71 102.18C53.54 102.09 53.18 101.99 52.92 101.96C52.55 101.91 52.35 101.96 52.02 102.16Z"/>
		<path class="shp2" d="M110.39 102.27C110.05 102.48 109.27 103.04 108.65 103.54C108.03 104.03 107.05 104.91 106.46 105.5C105.87 106.09 105.05 107.02 104.63 107.58C104.21 108.13 103.59 109.09 103.25 109.71C102.91 110.33 102.45 111.36 102.23 112.01C102.01 112.66 101.8 113.25 101.78 113.33C101.75 113.41 101.53 113.47 101.2 113.47C100.91 113.47 100.55 113.54 100.41 113.64C100.27 113.73 100.11 113.97 100.06 114.17C100 114.37 99.92 114.91 99.88 115.38C99.84 115.84 99.71 116.43 99.59 116.69C99.47 116.96 99.26 117.25 99.12 117.34C98.98 117.43 98.24 117.75 97.46 118.05C96.69 118.36 95.77 118.74 95.41 118.9L94.76 119.19C95.41 120.54 95.61 120.94 95.63 120.96C95.65 120.98 98.61 119.77 102.21 118.28C105.81 116.79 110.4 114.89 112.41 114.06C114.42 113.22 116.32 112.43 116.63 112.3C116.94 112.17 117.46 111.91 117.78 111.73C118.11 111.54 118.37 111.35 118.37 111.31C118.37 111.26 117.4 109.72 116.22 107.88C115.03 106.05 113.73 104.04 113.31 103.42C112.86 102.76 112.41 102.22 112.2 102.1C112.01 102 111.66 101.91 111.43 101.91C111.15 101.91 110.79 102.04 110.39 102.27Z"/>
		<path class="shp1" d="M45.16 113.05C45.14 113.19 44.62 115.47 44.01 118.13C43.15 121.94 42.93 123.06 42.98 123.46C43.02 123.73 43.15 124.1 43.28 124.27C43.4 124.44 43.71 124.68 43.95 124.8C44.2 124.93 44.92 125.11 45.56 125.22C46.38 125.35 47.43 125.41 49.29 125.41C51.58 125.42 52.03 125.39 53.17 125.16C53.88 125.01 54.89 124.74 55.42 124.56C55.95 124.37 56.86 123.98 57.44 123.68L58.51 123.14C58.86 123.6 59.07 123.86 59.2 124.02L59.43 124.3C61.46 122.86 62.12 122.42 62.19 122.38C62.27 122.34 63.61 122.77 65.17 123.33C66.73 123.9 68.05 124.35 68.09 124.36C68.14 124.36 68.27 123.91 68.38 123.37C68.49 122.83 68.56 122.38 68.55 122.38C68.53 122.37 66.57 121.55 64.19 120.56C61.81 119.57 56.61 117.42 52.64 115.78C48.67 114.14 45.37 112.79 45.31 112.79C45.26 112.79 45.19 112.91 45.16 113.05Z"/>
		<path class="shp2" d="M118.03 113.23C117.57 113.4 116.33 113.9 115.28 114.33C114.23 114.77 111.78 115.78 109.83 116.59C107.88 117.39 105.2 118.5 103.87 119.05C102.54 119.6 100.25 120.56 98.77 121.17C96.18 122.24 96.1 122.29 96.16 122.56C96.2 122.71 96.29 123.16 96.37 123.54C96.44 123.93 96.53 124.25 96.56 124.24C96.59 124.24 97.78 123.81 99.21 123.29C100.63 122.76 101.83 122.33 101.88 122.33C101.92 122.33 102.59 122.76 103.36 123.29C104.14 123.81 104.81 124.24 104.85 124.24C104.9 124.24 105.12 124 105.33 123.7L105.73 123.16C107.47 124.05 108.48 124.47 109.1 124.68C109.72 124.88 110.8 125.14 111.51 125.27C112.49 125.44 113.29 125.5 114.77 125.5C115.99 125.51 117.28 125.44 118.15 125.32C118.92 125.22 119.78 125.06 120.06 124.98C120.34 124.89 120.7 124.66 120.87 124.47C121.04 124.28 121.21 123.97 121.25 123.77C121.29 123.53 121.11 122.42 120.75 120.65C120.44 119.14 119.96 116.78 119.68 115.4C119.32 113.62 119.14 112.91 119.03 112.91C118.95 112.92 118.5 113.06 118.03 113.23Z"/>
		<path class="shp1" d="M80.38 114.19C79.85 114.28 79.03 114.48 78.55 114.64C78.07 114.8 77.36 115.09 76.98 115.28C76.59 115.47 75.93 115.85 75.51 116.12C75.1 116.39 74.37 116.98 73.9 117.42C73.43 117.87 72.79 118.57 72.49 118.97C72.18 119.37 71.66 120.25 71.32 120.93C70.98 121.62 70.58 122.66 70.41 123.29C70.14 124.3 70.11 124.6 70.11 126.37C70.11 128.17 70.13 128.44 70.42 129.46C70.58 130.08 70.91 130.99 71.14 131.48C71.38 131.98 71.82 132.76 72.13 133.22C72.44 133.68 73 134.39 73.36 134.78C73.73 135.17 74.45 135.82 74.98 136.21C75.51 136.6 76.34 137.12 76.83 137.36C77.33 137.61 78.11 137.93 78.58 138.08C79.04 138.23 79.8 138.42 80.26 138.5C80.73 138.58 81.74 138.65 82.51 138.64C83.48 138.64 84.23 138.56 84.93 138.41C85.49 138.28 86.35 138.03 86.84 137.84C87.33 137.65 88.19 137.23 88.74 136.9C89.29 136.57 90.17 135.9 90.7 135.4C91.24 134.9 91.93 134.14 92.25 133.72C92.57 133.29 93.01 132.61 93.23 132.21C93.45 131.81 93.78 131.08 93.96 130.58C94.15 130.09 94.38 129.23 94.49 128.68C94.63 127.89 94.66 127.27 94.62 125.93C94.58 124.63 94.51 123.96 94.33 123.29C94.19 122.79 93.91 121.99 93.69 121.49C93.48 121 93.14 120.33 92.94 120C92.74 119.67 92.24 118.99 91.84 118.49C91.44 117.99 90.77 117.3 90.35 116.96C89.93 116.61 89.22 116.11 88.77 115.84C88.33 115.56 87.61 115.19 87.18 115.01C86.74 114.82 85.91 114.55 85.32 114.4C84.55 114.2 83.85 114.11 82.79 114.08C81.87 114.05 80.98 114.09 80.38 114.19Z"/>
		<path class="shp4" d="M86.9 121.33C86.56 121.38 85.96 121.54 85.57 121.68C85.17 121.83 84.58 122.14 84.25 122.39C83.92 122.64 83.44 123.12 83.19 123.46C82.93 123.8 82.62 124.34 82.5 124.66C82.39 124.99 82.24 125.57 82.19 125.95C82.13 126.34 82.13 126.98 82.18 127.38C82.23 127.79 82.36 128.34 82.46 128.62C82.55 128.9 82.8 129.37 83 129.68C83.19 129.98 83.61 130.45 83.92 130.72C84.23 131 84.73 131.34 85.04 131.48C85.35 131.63 85.93 131.83 86.33 131.92C86.74 132.02 87.41 132.1 87.82 132.1C88.24 132.1 88.85 132.04 89.17 131.97C89.5 131.9 90.07 131.71 90.44 131.54C90.81 131.37 91.36 131.01 91.66 130.74L92.21 130.25L90.61 128.84C90.04 129.31 89.62 129.56 89.31 129.7C88.88 129.9 88.56 129.96 87.91 129.96C87.3 129.96 86.92 129.9 86.56 129.73C86.28 129.61 85.9 129.39 85.72 129.25C85.53 129.11 85.21 128.67 85.01 128.28C84.7 127.66 84.64 127.43 84.64 126.77C84.64 126.34 84.72 125.75 84.82 125.46C84.91 125.18 85.18 124.73 85.41 124.46C85.64 124.2 86.08 123.86 86.39 123.7C86.86 123.46 87.11 123.41 87.91 123.41C88.7 123.4 88.95 123.45 89.37 123.67C89.65 123.81 90.03 124.08 90.21 124.26L90.55 124.6C92.15 123.09 92.18 123.06 91.99 122.86C91.88 122.74 91.48 122.45 91.11 122.2C90.74 121.96 90.11 121.66 89.71 121.55C89.3 121.43 88.65 121.32 88.24 121.29C87.84 121.26 87.24 121.28 86.9 121.33ZM73.18 126.71L73.18 131.99L75.6 131.93L75.65 128.17L80.49 128.17L80.49 126.15L75.65 126.15L75.65 123.46L81.11 123.4L81.16 121.44L73.18 121.44L73.18 126.71Z"/>
		<path class="shp1" d="M47.89 129.13C47.67 129.16 46.91 129.26 46.2 129.36C45.49 129.46 44.71 129.62 44.46 129.73C44.21 129.84 43.82 130.12 43.58 130.37C43.35 130.61 43.13 130.88 43.1 130.98C43.07 131.07 43.18 131.9 43.34 132.83C43.49 133.75 43.88 135.7 44.19 137.15C44.5 138.6 44.84 140.2 44.94 140.71L45.13 141.63C45.92 141.52 50.57 139.66 55.98 137.42C61.39 135.19 66.53 133.07 67.39 132.71C68.26 132.35 69.01 132.03 69.06 132C69.11 131.96 69.02 131.51 68.86 131L68.57 130.08C65.39 131.19 63.89 131.72 63.18 131.97L61.88 132.42C60.91 131.34 60.45 130.96 60.24 130.87C60.03 130.79 59.68 130.74 59.47 130.77C59.25 130.8 58.91 130.93 58.71 131.07L58.34 131.31C56.38 130.37 55.48 130 55.08 129.87C54.68 129.74 53.85 129.53 53.23 129.4C52.45 129.25 51.51 129.16 50.19 129.13C49.14 129.11 48.1 129.11 47.89 129.13Z"/>
		<path class="shp2" d="M113.03 129.18C112.48 129.23 111.57 129.35 111.01 129.46C110.45 129.56 109.54 129.8 108.99 129.99C108.43 130.17 107.47 130.59 106.86 130.9L105.75 131.48C105.41 131.05 105.2 130.79 105.07 130.62L104.83 130.33L101.96 132.32L96.17 130.22C95.49 132.03 95.49 132.04 95.72 132.17C95.84 132.24 97.79 133.07 100.05 134.01C102.3 134.95 104.86 136.01 105.73 136.36C106.59 136.72 109.52 137.93 112.25 139.06C114.97 140.18 117.62 141.25 118.15 141.43C118.67 141.6 119.11 141.74 119.11 141.72C119.11 141.71 119.31 140.81 119.54 139.73C119.77 138.65 120.11 137.06 120.3 136.2C120.48 135.33 120.78 133.87 120.97 132.94C121.15 132.01 121.29 131.11 121.29 130.92C121.29 130.68 121.16 130.46 120.87 130.18C120.64 129.95 120.25 129.71 120 129.65C119.75 129.58 118.97 129.45 118.26 129.36C117.55 129.27 116.31 129.17 115.51 129.14C114.7 129.11 113.59 129.13 113.03 129.18Z"/>
		<path class="shp1" d="M65.31 134.98C62.99 135.93 58.04 137.98 54.3 139.53C50.56 141.07 47.11 142.55 46.64 142.8L45.78 143.27C48.05 146.75 49.37 148.77 50.19 150C51 151.23 51.81 152.33 51.97 152.44C52.14 152.55 52.49 152.64 52.75 152.64C53.01 152.64 53.4 152.55 53.62 152.44C53.84 152.33 54.55 151.84 55.2 151.35C55.84 150.85 56.98 149.84 57.72 149.1C58.47 148.36 59.41 147.27 59.83 146.69C60.24 146.1 60.83 145.14 61.14 144.56C61.45 143.97 61.88 142.96 62.1 142.31L62.49 141.13C63.47 141.21 63.63 141.16 63.89 140.95C64.2 140.7 64.22 140.61 64.31 139.48C64.37 138.81 64.48 138.11 64.56 137.91C64.64 137.71 64.86 137.43 65.04 137.3C65.22 137.17 65.8 136.91 66.32 136.73C66.85 136.54 67.73 136.2 68.29 135.97C68.85 135.74 69.64 135.38 70.06 135.17L70.82 134.79C70.06 133.62 69.76 133.27 69.68 133.26C69.6 133.24 67.63 134.02 65.31 134.98Z"/>
		<path class="shp2" d="M94.77 133.42C94.77 133.46 94.54 133.84 94.26 134.26L93.75 135.02C98.55 137.23 99.97 137.95 100 138.05C100.02 138.14 100.04 138.67 100.02 139.23C100 140.02 100.04 140.3 100.19 140.54C100.3 140.71 100.56 140.93 100.78 141.02C101 141.11 101.31 141.19 101.48 141.19C101.76 141.19 101.82 141.26 102.06 141.95C102.21 142.36 102.59 143.26 102.91 143.94C103.23 144.62 103.78 145.63 104.14 146.18C104.5 146.74 105.11 147.57 105.5 148.04C105.89 148.5 106.62 149.28 107.14 149.76C107.66 150.25 108.52 150.97 109.04 151.36C109.57 151.75 110.24 152.2 110.53 152.36C110.82 152.51 111.25 152.65 111.49 152.66C111.72 152.67 112.05 152.59 112.22 152.49C112.39 152.39 113.09 151.45 113.78 150.42C114.47 149.39 115.84 147.3 116.82 145.79C117.8 144.28 118.59 143.04 118.57 143.04C118.55 143.03 117.91 142.77 117.14 142.45C116.36 142.13 114.52 141.37 113.03 140.76C111.55 140.14 107.7 138.56 104.49 137.23C101.27 135.9 97.83 134.48 96.84 134.08C95.86 133.67 94.98 133.33 94.91 133.33C94.83 133.33 94.77 133.37 94.77 133.42Z"/>
		<path class="shp1" d="M73.93 139.87C73.53 140.69 73.04 141.86 72.85 142.48C72.66 143.1 72.37 143.83 72.19 144.11C72 144.42 71.71 144.69 71.43 144.83C71.16 144.96 70.58 145.08 69.92 145.13C69.15 145.2 68.77 145.29 68.57 145.44C68.33 145.62 68.29 145.74 68.29 146.29L68.29 146.94C66.72 147.44 65.71 147.87 65.03 148.21C64.35 148.55 63.32 149.16 62.73 149.58C62.15 150 61.11 150.89 60.42 151.57C59.73 152.25 58.83 153.24 58.41 153.76C58 154.28 57.47 154.99 57.23 155.33C57 155.67 56.78 156.14 56.73 156.37C56.68 156.65 56.71 156.91 56.82 157.15C56.94 157.43 57.49 157.86 59.15 158.99C60.35 159.8 62.42 161.18 63.77 162.05C65.11 162.92 66.25 163.64 66.3 163.64C66.34 163.64 67.29 161.46 68.39 158.78C69.5 156.11 71.74 150.7 73.37 146.75C75 142.79 76.33 139.5 76.33 139.42C76.33 139.34 76.11 139.18 75.85 139.05C75.59 138.92 75.22 138.72 75.02 138.6L74.67 138.39L73.93 139.87Z"/>
		<path class="shp2" d="M88.81 139.08C88.34 139.33 87.98 139.58 88 139.66C88.02 139.73 88.43 140.72 88.92 141.86C89.4 143.01 90.16 144.82 90.6 145.9C91.05 146.98 91.71 148.57 92.07 149.44C92.43 150.3 93.33 152.47 94.07 154.26C94.81 156.05 95.98 158.88 96.67 160.55C97.36 162.22 97.95 163.61 97.97 163.64C98 163.67 98.87 163.14 99.9 162.47C100.94 161.79 102.95 160.47 104.38 159.54C105.8 158.6 107.08 157.69 107.22 157.51C107.36 157.33 107.5 157.03 107.54 156.85C107.58 156.63 107.52 156.32 107.36 155.95C107.22 155.64 106.72 154.88 106.25 154.27C105.78 153.65 104.88 152.62 104.26 151.98C103.65 151.34 102.73 150.5 102.24 150.11C101.75 149.73 101.06 149.23 100.72 149.02C100.38 148.8 99.65 148.39 99.09 148.11C98.54 147.83 97.57 147.43 96.95 147.23L95.82 146.86C96.06 146.27 96.08 146.01 96.03 145.83C95.98 145.66 95.84 145.47 95.72 145.39C95.6 145.32 95.09 145.22 94.6 145.18C94.1 145.14 93.52 145.05 93.3 144.99C93.09 144.92 92.76 144.75 92.57 144.62C92.39 144.48 92.13 144.2 91.99 143.99C91.86 143.78 91.57 142.98 91.35 142.23C91.12 141.47 90.69 140.35 90.38 139.73C90.07 139.11 89.78 138.62 89.73 138.62C89.69 138.63 89.27 138.84 88.81 139.08Z"/>
		<path class="shp1" d="M77.49 140.27C77.4 140.5 76.47 142.73 75.43 145.23C74.39 147.73 72.39 152.55 70.99 155.95C69.58 159.34 68.26 162.59 68.05 163.16C67.77 163.92 67.71 164.21 67.81 164.25C67.89 164.28 69.12 164.56 70.54 164.86C71.96 165.17 74.26 165.65 75.65 165.94C77.05 166.22 78.33 166.43 78.52 166.4C78.71 166.36 79.01 166.22 79.19 166.08C79.37 165.94 79.59 165.65 79.68 165.43C79.77 165.22 79.91 164.58 80 164.03C80.09 163.47 80.19 161.91 80.23 160.55C80.27 158.62 80.24 157.82 80.1 156.9C80 156.25 79.79 155.24 79.62 154.66C79.45 154.07 79.03 153.01 78.68 152.3C78.14 151.22 78.06 150.98 78.18 150.84C78.26 150.75 78.41 150.51 78.51 150.31C78.61 150.11 78.69 149.82 78.69 149.66C78.69 149.51 78.61 149.22 78.5 149.02C78.4 148.82 78.1 148.4 77.83 148.09C77.56 147.78 77.3 147.38 77.25 147.19C77.17 146.94 77.21 146.69 77.42 146.13C77.57 145.73 78.1 144.34 78.59 143.04C79.08 141.75 79.49 140.61 79.51 140.53C79.52 140.42 79.23 140.29 78.59 140.12L77.65 139.86L77.49 140.27Z"/>
		<path class="shp2" d="M85.68 140.23C85.17 140.36 84.76 140.5 84.76 140.54C84.76 140.59 85.02 141.32 85.33 142.17C85.65 143.02 86.18 144.25 86.52 144.89C86.98 145.79 87.13 146.19 87.12 146.55C87.12 146.81 87.07 147.15 87.01 147.31C86.95 147.46 86.7 147.8 86.46 148.06C86.22 148.33 85.89 148.74 85.73 148.99C85.53 149.28 85.43 149.59 85.43 149.86C85.43 150.19 85.52 150.36 85.82 150.65L86.2 151.01C85.43 152.58 85.06 153.45 84.87 153.96C84.69 154.47 84.42 155.4 84.29 156.03C84.07 157.03 84.04 157.53 84.03 159.76C84.03 161.77 84.08 162.62 84.24 163.58C84.35 164.26 84.51 164.94 84.59 165.1C84.67 165.25 84.95 165.57 85.22 165.8C85.49 166.03 85.84 166.25 86 166.28C86.15 166.31 86.99 166.21 87.85 166.05C88.72 165.9 91.04 165.44 93.02 165.02C95 164.61 96.63 164.27 96.65 164.26C96.67 164.26 96.48 163.72 96.24 163.08C96 162.43 95.31 160.71 94.71 159.26C94.1 157.81 93.15 155.49 92.57 154.1C92 152.71 90.46 149 89.15 145.85C87.83 142.7 86.72 140.1 86.68 140.06C86.64 140.03 86.19 140.11 85.68 140.23Z"/>
	</g>
</svg>