<svg xmlns:dc="http://purl.org/dc/elements/1.1/" xmlns:cc="http://creativecommons.org/ns#" xmlns:rdf="http://www.w3.org/1999/02/22-rdf-syntax-ns#" xmlns:svg="http://www.w3.org/2000/svg" xmlns="http://www.w3.org/2000/svg" xmlns:sodipodi="http://sodipodi.sourceforge.net/DTD/sodipodi-0.dtd" xmlns:inkscape="http://www.inkscape.org/namespaces/inkscape" width="99.936249" height="118.20875" id="svg3484" version="1.1" inkscape:version="0.48.3.1 r9886" sodipodi:docname="Neues Dokument 2">
  <defs id="defs3486"/>
  <sodipodi:namedview id="base" pagecolor="#ffffff" bordercolor="#666666" borderopacity="1.0" inkscape:pageopacity="0.0" inkscape:pageshadow="2" inkscape:zoom="5.6" inkscape:cx="111.7789" inkscape:cy="108.50472" inkscape:document-units="px" inkscape:current-layer="layer1" showgrid="false" fit-margin-top="0" fit-margin-left="0" fit-margin-right="0" fit-margin-bottom="0" inkscape:window-width="1229" inkscape:window-height="1000" inkscape:window-x="51" inkscape:window-y="24" inkscape:window-maximized="1"/>
  <metadata id="metadata3489">
    <rdf:RDF>
      <cc:Work rdf:about="">
        <dc:format>image/svg+xml</dc:format>
        <dc:type rdf:resource="http://purl.org/dc/dcmitype/StillImage"/>
        <dc:title/>
      </cc:Work>
    </rdf:RDF>
  </metadata>
  <g inkscape:label="Ebene 1" inkscape:groupmode="layer" id="layer1" transform="translate(58.539554,52.456478)">
    <g id="g7692" transform="matrix(1.25,0,0,-1.25,-34.787174,59.235772)">
      <path inkscape:connector-curvature="0" d="M 0,0 0,-0.004" style="fill:#1a171c;fill-opacity:1;fill-rule:nonzero;stroke:none" id="path7694"/>
    </g>
    <g id="g7712" transform="matrix(1.25,0,0,-1.25,12.722576,57.297272)">
      <path inkscape:connector-curvature="0" d="M 0,0 z" style="fill:#ffffff;fill-opacity:1;fill-rule:nonzero;stroke:none" id="path7714"/>
    </g>
    <g id="g7716" transform="matrix(1.25,0,0,-1.25,22.030446,45.867902)">
      <path inkscape:connector-curvature="0" d="M 0,0 z" style="fill:#ffffff;fill-opacity:1;fill-rule:nonzero;stroke:none" id="path7718"/>
    </g>
    <g id="g7720" transform="matrix(1.25,0,0,-1.25,-37.775424,43.710902)">
      <path inkscape:connector-curvature="0" d="M 0,0 -0.005,0 0,0 z" style="fill:#ffffff;fill-opacity:1;fill-rule:nonzero;stroke:none" id="path7722"/>
    </g>
    <g id="g7728" transform="matrix(1.25,0,0,-1.25,20.898946,42.380272)">
      <path inkscape:connector-curvature="0" d="m 0,0 0,0.004 c -0.007,0 -0.015,0.004 -0.015,0.004 L 0,0 z" style="fill:#ffffff;fill-opacity:1;fill-rule:nonzero;stroke:none" id="path7730"/>
    </g>
    <g id="g7736" transform="matrix(1.25,0,0,-1.25,-38.069674,57.231402)">
      <path inkscape:connector-curvature="0" d="M 0,0 0.003,0.004 0,0 z" style="fill:#ffffff;fill-opacity:1;fill-rule:nonzero;stroke:none" id="path7738"/>
    </g>
    <g id="g7740" transform="matrix(1.25,0,0,-1.25,-30.324304,58.157902)">
      <path inkscape:connector-curvature="0" d="M 0,0 0,0 0,-0.004 0,0 z" style="fill:#ffffff;fill-opacity:1;fill-rule:nonzero;stroke:none" id="path7742"/>
    </g>
    <g id="g7760" transform="matrix(1.25,0,0,-1.25,-30.285184,58.133522)">
      <path inkscape:connector-curvature="0" d="M 0,0 z" style="fill:#ffffff;fill-opacity:1;fill-rule:nonzero;stroke:none" id="path7762"/>
    </g>
    <g id="g7772" transform="matrix(1.25,0,0,-1.25,-32.782804,62.510902)">
      <path inkscape:connector-curvature="0" d="M 0,0 -0.007,0 0,0 z" style="fill:#ffffff;fill-opacity:1;fill-rule:nonzero;stroke:none" id="path7774"/>
    </g>
    <g id="g8144" transform="matrix(1.25,0,0,-1.25,-34.673684,59.235772)">
      <path inkscape:connector-curvature="0" d="M 0,0 C 0.005,-0.004 0.005,-0.016 0,0" style="fill:#c09b5b;fill-opacity:1;fill-rule:nonzero;stroke:none" id="path8146"/>
    </g>
    <g id="g8152" transform="matrix(1.25,0,0,-1.25,-34.629674,59.207652)">
      <path inkscape:connector-curvature="0" d="M 0,0 C 0.003,0 0.003,-0.004 0,0" style="fill:#1a171c;fill-opacity:1;fill-rule:nonzero;stroke:none" id="path8154"/>
    </g>
    <g id="g8224" transform="matrix(1.25,0,0,-1.25,-8.7544336,64.838772)">
      <path inkscape:connector-curvature="0" d="m 0,0 c -43.541,23.887 -38.964,84.571 -38.964,84.571 l 3.478,7.976 0.24,0.556 70.737,0 3.774,-8.532 c 0,0 4.378,-60.274 -39.022,-84.571 L 0,0 z" style="fill:#1a171c;fill-opacity:1;fill-rule:nonzero;stroke:none" id="path8226"/>
    </g>
    <g id="g8228" transform="matrix(1.25,0,0,-1.25,-56.562054,-40.408978)">
      <path inkscape:connector-curvature="0" d="m 0,0 c -0.011,-0.224 -0.025,-0.551 -0.046,-0.966 -0.038,-0.844 -0.071,-2.087 -0.071,-3.661 -0.005,-5.581 0.441,-15.358 2.875,-26.407 2.425,-11.052 6.846,-23.373 14.791,-34.079 5.254,-7.072 12.037,-13.448 20.818,-18.31 8.821,4.985 15.626,11.47 20.885,18.625 5.311,7.235 9.049,15.154 11.651,22.91 5.244,15.523 5.999,30.38 5.997,37.616 0,2.455 -0.084,4.029 -0.114,4.47 L 73.258,8.167 3.482,8.167 3.429,8.053 0.012,0.198 C 0.008,0.152 0,0.072 0,0 m 38.489,-83.742 0.112,0.19 -0.112,-0.19 z m -0.243,-1.187 0,0.731 0.121,0.227 -0.121,-0.227 0,-0.731 c -0.125,0 -0.238,0.031 -0.35,0.092 -9.096,4.981 -16.112,11.565 -21.518,18.85 -5.406,7.287 -9.208,15.283 -11.864,23.114 -5.308,15.671 -6.096,30.7 -6.096,38.246 0,3.187 0.135,5.042 0.135,5.057 0.014,0.084 0.025,0.167 0.068,0.239 L 2.083,8.634 2.334,9.189 C 2.445,9.463 2.712,9.638 3,9.638 l 70.737,0 c 0.289,0 0.55,-0.175 0.664,-0.434 L 78.18,0.677 c 0.038,-0.08 0.058,-0.159 0.058,-0.251 0,-0.011 0.129,-1.73 0.129,-4.698 0,-5.499 -0.432,-15.311 -2.879,-26.519 -2.456,-11.204 -6.929,-23.807 -15.054,-34.87 -5.417,-7.375 -12.451,-14.059 -21.575,-19.176 -0.111,-0.061 -0.241,-0.092 -0.37,-0.092 l -0.243,0 z" style="fill:#1a171c;fill-opacity:1;fill-rule:nonzero;stroke:none" id="path8230"/>
    </g>
    <g id="g8232" transform="matrix(1.25,0,0,-1.25,30.496066,-2.9468481)">
      <path inkscape:connector-curvature="0" d="m 0,0 -2.316,0 -4.943,0 0,-22.431 C -3.49,-14.036 -1.063,-5.893 0,0" style="fill:#d4021d;fill-opacity:1;fill-rule:nonzero;stroke:none" id="path8234"/>
    </g>
    <g id="g8236" transform="matrix(1.25,0,0,-1.25,-37.680174,-2.9468481)">
      <path inkscape:connector-curvature="0" d="M 0,0 -5.19,0 -8.387,0 C -6.151,-8.182 -3.528,-16.561 0,-24.461 L 0,0 z" style="fill:#d4021d;fill-opacity:1;fill-rule:nonzero;stroke:none" id="path8238"/>
    </g>
    <g id="g8240" transform="matrix(1.25,0,0,-1.25,-14.513684,54.431152)">
      <path inkscape:connector-curvature="0" d="m 0,0 0,45.902 -8.998,0 0,-38.501 C -6.276,4.619 -3.303,2.205 0,0" style="fill:#d4021d;fill-opacity:1;fill-rule:nonzero;stroke:none" id="path8242"/>
    </g>
    <g id="g8244" transform="matrix(1.25,0,0,-1.25,9.4938264,43.216522)">
      <path inkscape:connector-curvature="0" d="m 0,0 0,36.931 -9.659,0 0,-45.603 C -6.199,-6.197 -2.966,-3.296 0,0" style="fill:#d4021d;fill-opacity:1;fill-rule:nonzero;stroke:none" id="path8246"/>
    </g>
    <g id="g8248" transform="matrix(1.25,0,0,-1.25,21.422576,26.146152)">
      <path inkscape:connector-curvature="0" d="m 0,0 0,0.844 0,22.43 0,38.148 -9.543,0 0,-38.148 0,-36.93 C -5.924,-9.649 -2.71,-5.071 0,0" style="fill:#1a171c;fill-opacity:1;fill-rule:nonzero;stroke:none" id="path8250"/>
    </g>
    <g id="g8252" transform="matrix(1.25,0,0,-1.25,-37.680174,28.518022)">
      <path inkscape:connector-curvature="0" d="m 0,0 c 2.821,-5.345 5.953,-9.66 9.535,-13.329 l 0,38.501 0,38.147 L 0,63.319 0,25.172 0,0.711 0,0 z" style="fill:#1a171c;fill-opacity:1;fill-rule:nonzero;stroke:none" id="path8254"/>
    </g>
    <g id="g8256" transform="matrix(1.25,0,0,-1.25,-8.8496736,57.929652)">
      <path inkscape:connector-curvature="0" d="m 0,0 0.24,0 c 1.635,0.936 3.225,1.984 4.776,3.099 l 0,45.602 0,38.148 -9.547,0 0,-38.148 0,-45.902 C -3.082,1.832 -1.574,0.901 0,0" style="fill:#1a171c;fill-opacity:1;fill-rule:nonzero;stroke:none" id="path8258"/>
    </g>
    <g id="g8260" transform="matrix(1.25,0,0,-1.25,-34.691934,-6.5308481)">
      <path inkscape:connector-curvature="0" d="m 0,0 -2.472,0 0,14.279 2.472,0 1.107,0 6.352,-8.881 0,8.881 2.653,0 L 10.112,0 7.459,0 0,10.416 0,0 z" style="fill:#ffffff;fill-opacity:1;fill-rule:nonzero;stroke:none" id="path8262"/>
    </g>
    <g id="g8264" transform="matrix(1.25,0,0,-1.25,-34.492924,-19.698598)">
      <path inkscape:connector-curvature="0" d="m 0,0 7.411,-10.325 2.326,0 0,13.857 -2.224,0 0,-8.668 c 0,-0.095 -0.057,-0.175 -0.145,-0.201 -0.086,-0.035 -0.178,0 -0.23,0.075 l -6.296,8.794 -1.001,0 -2.262,0 0,-13.857 2.049,0 0,10.207 c 0,0.088 0.058,0.168 0.144,0.198 0.028,0 0.043,0.004 0.069,0.004 C -0.094,0.084 -0.038,0.062 0,0 m -0.159,-10.534 0,0.209 0,-0.209 z M 7.3,-10.74 c -0.064,0 -0.13,0.03 -0.162,0.088 l -7.087,9.881 0,-9.763 c 0,-0.058 -0.029,-0.111 -0.066,-0.149 -0.033,-0.038 -0.094,-0.057 -0.144,-0.057 l -2.472,0 c -0.056,0 -0.108,0.019 -0.147,0.057 -0.045,0.038 -0.066,0.091 -0.066,0.149 l 0,14.279 c 0,0.053 0.021,0.11 0.066,0.149 0.039,0.034 0.091,0.06 0.147,0.06 l 2.472,0 1.107,0 c 0.071,0 0.137,-0.034 0.175,-0.095 l 5.964,-8.344 0,8.23 c 0,0.053 0.03,0.11 0.068,0.149 0.038,0.034 0.096,0.06 0.145,0.06 l 2.653,0 c 0.054,0 0.107,-0.026 0.145,-0.06 0.043,-0.039 0.065,-0.096 0.065,-0.149 l 0,-14.279 c 0,-0.058 -0.022,-0.111 -0.065,-0.149 -0.038,-0.038 -0.091,-0.057 -0.145,-0.057 l -2.653,0 z" style="fill:#c09b5b;fill-opacity:1;fill-rule:nonzero;stroke:none" id="path8266"/>
    </g>
    <path inkscape:connector-curvature="0" d="m -18.984554,-24.322598 3.9,0 0,17.7737499 -3.9,0 0,-17.7737499 z" style="fill:#ffffff;fill-opacity:1;fill-rule:nonzero;stroke:none" id="path8268"/>
    <path inkscape:connector-curvature="0" d="m -18.727054,-6.8250981 3.37625,0 0,-17.2362499 -3.37625,0 0,17.2362499 z m -0.2575,0.5325 c -0.0763,0 -0.14375,-0.0288 -0.1975,-0.0813 -0.0462,-0.0475 -0.0688,-0.1175 -0.0688,-0.175 l 0,-17.7737499 c 0,-0.085 0.0225,-0.1425 0.0688,-0.19 0.0537,-0.0475 0.12125,-0.0812 0.1975,-0.0812 l 3.9,0 c 0.0725,0 0.1325,0.0337 0.1775,0.0812 0.06,0.0475 0.0862,0.105 0.0862,0.19 l 0,17.7737499 c 0,0.0575 -0.0263,0.1275 -0.0862,0.175 -0.045,0.0525 -0.105,0.0813 -0.1775,0.0813 l -3.9,0 z" style="fill:#c09b5b;fill-opacity:1;fill-rule:nonzero;stroke:none" id="path8270"/>
    <g id="g8272" transform="matrix(1.25,0,0,-1.25,4.3803264,-11.311098)">
      <path inkscape:connector-curvature="0" d="M 0,0 C -0.304,-0.574 -0.68,-1.099 -1.112,-1.563 -1.554,-2.034 -2.04,-2.44 -2.593,-2.775 -3.127,-3.117 -3.729,-3.38 -4.372,-3.566 c -0.642,-0.182 -1.303,-0.278 -2.002,-0.278 -0.988,0 -1.932,0.191 -2.812,0.567 -0.866,0.377 -1.634,0.893 -2.288,1.544 -0.646,0.649 -1.158,1.414 -1.538,2.292 -0.381,0.879 -0.57,1.806 -0.57,2.802 0,0.985 0.189,1.909 0.57,2.79 0.38,0.874 0.892,1.647 1.538,2.3 0.654,0.658 1.422,1.175 2.288,1.552 0.88,0.38 1.824,0.566 2.812,0.566 0.679,0 1.333,-0.084 1.956,-0.266 0.621,-0.179 1.202,-0.426 1.739,-0.756 0.542,-0.324 1.027,-0.715 1.452,-1.168 0.434,-0.452 0.801,-0.946 1.111,-1.49 C -0.426,6.729 -0.672,6.604 -0.854,6.497 -1.041,6.398 -1.219,6.307 -1.394,6.216 -1.566,6.137 -1.759,6.037 -1.972,5.935 -2.185,5.824 -2.451,5.688 -2.783,5.535 -3.127,6.144 -3.629,6.638 -4.261,7.018 -4.899,7.398 -5.599,7.585 -6.374,7.585 -6.952,7.585 -7.5,7.471 -8.014,7.246 -8.523,7.021 -8.979,6.718 -9.362,6.338 -9.748,5.965 -10.044,5.513 -10.268,5 c -0.22,-0.521 -0.319,-1.065 -0.319,-1.639 0,-0.578 0.099,-1.13 0.319,-1.634 0.224,-0.518 0.52,-0.97 0.906,-1.354 0.383,-0.381 0.839,-0.685 1.348,-0.897 0.514,-0.225 1.062,-0.331 1.64,-0.331 0.798,0 1.53,0.205 2.185,0.604 0.651,0.407 1.163,0.939 1.52,1.601 0.335,-0.171 0.601,-0.312 0.804,-0.411 0.213,-0.11 0.398,-0.209 0.572,-0.3 C -1.12,0.547 -0.942,0.456 -0.755,0.357 -0.572,0.259 -0.319,0.145 0,0" style="fill:#ffffff;fill-opacity:1;fill-rule:nonzero;stroke:none" id="path8274"/>
    </g>
    <g id="g8276" transform="matrix(1.25,0,0,-1.25,-6.9868036,-23.581598)">
      <path inkscape:connector-curvature="0" d="m 0,0 c -0.854,-0.369 -1.6,-0.875 -2.228,-1.514 -0.631,-0.634 -1.133,-1.382 -1.498,-2.235 -0.368,-0.848 -0.549,-1.749 -0.549,-2.706 0,-0.963 0.181,-1.871 0.549,-2.723 0.365,-0.855 0.867,-1.593 1.498,-2.227 0.628,-0.624 1.374,-1.13 2.228,-1.491 0.852,-0.373 1.749,-0.555 2.72,-0.555 0.678,0 1.323,0.092 1.946,0.273 0.623,0.18 1.201,0.434 1.727,0.761 0.534,0.331 1.003,0.723 1.431,1.179 0.377,0.403 0.705,0.84 0.971,1.323 C 8.574,-9.809 8.387,-9.725 8.24,-9.649 8.058,-9.558 7.875,-9.459 7.7,-9.36 7.533,-9.27 7.343,-9.17 7.137,-9.067 6.97,-8.98 6.76,-8.869 6.509,-8.748 6.141,-9.353 5.635,-9.858 5.016,-10.246 4.324,-10.668 3.559,-10.885 2.72,-10.885 c -0.614,0 -1.179,0.114 -1.724,0.346 -0.535,0.228 -1.004,0.548 -1.409,0.951 -0.4,0.41 -0.723,0.874 -0.948,1.41 -0.239,0.536 -0.352,1.114 -0.352,1.723 0,0.6 0.121,1.174 0.352,1.718 0.225,0.54 0.548,1.014 0.948,1.411 0.405,0.398 0.874,0.711 1.409,0.95 0.532,0.231 1.11,0.357 1.724,0.357 0.805,0 1.551,-0.202 2.212,-0.604 0.616,-0.354 1.095,-0.817 1.461,-1.381 0.25,0.118 0.465,0.221 0.64,0.305 0.205,0.11 0.396,0.201 0.571,0.289 0.167,0.084 0.349,0.182 0.532,0.277 0.141,0.076 0.324,0.175 0.548,0.289 C 8.407,-2.388 8.088,-1.962 7.723,-1.582 7.3,-1.137 6.828,-0.764 6.311,-0.449 5.791,-0.133 5.216,0.106 4.613,0.285 4.012,0.456 3.373,0.547 2.72,0.547 1.749,0.547 0.852,0.369 0,0 m -0.17,-13.283 c -0.897,0.387 -1.685,0.92 -2.357,1.585 -0.661,0.665 -1.194,1.456 -1.581,2.353 -0.394,0.908 -0.586,1.866 -0.586,2.89 0,1.015 0.192,1.969 0.586,2.874 0.387,0.9 0.92,1.687 1.581,2.364 0.672,0.673 1.46,1.209 2.357,1.597 0.905,0.388 1.865,0.59 2.89,0.59 0.699,0 1.368,-0.096 2.009,-0.279 C 5.373,0.502 5.977,0.243 6.523,-0.088 7.079,-0.426 7.578,-0.821 8.021,-1.289 8.46,-1.749 8.843,-2.262 9.16,-2.825 9.186,-2.874 9.19,-2.928 9.175,-2.984 9.16,-3.041 9.122,-3.087 9.076,-3.113 8.765,-3.27 8.521,-3.402 8.339,-3.498 8.148,-3.604 7.966,-3.691 7.794,-3.783 7.619,-3.87 7.429,-3.969 7.224,-4.076 7.003,-4.182 6.729,-4.308 6.393,-4.471 6.296,-4.521 6.182,-4.479 6.126,-4.384 5.794,-3.81 5.335,-3.338 4.722,-2.98 4.119,-2.623 3.46,-2.444 2.72,-2.444 2.159,-2.444 1.655,-2.547 1.168,-2.76 0.677,-2.977 0.248,-3.27 -0.121,-3.623 -0.481,-3.984 -0.768,-4.41 -0.98,-4.904 c -0.207,-0.491 -0.307,-1.004 -0.307,-1.551 0,-0.556 0.1,-1.072 0.307,-1.556 0.212,-0.49 0.499,-0.916 0.859,-1.281 0.369,-0.364 0.798,-0.653 1.284,-0.862 0.477,-0.206 0.996,-0.309 1.557,-0.309 0.76,0 1.452,0.194 2.07,0.578 0.629,0.384 1.11,0.89 1.444,1.517 0.062,0.106 0.189,0.14 0.289,0.088 C 6.855,-8.447 7.122,-8.592 7.335,-8.691 7.54,-8.805 7.726,-8.904 7.9,-8.995 8.067,-9.086 8.247,-9.178 8.43,-9.27 8.612,-9.36 8.858,-9.482 9.186,-9.626 l -0.092,-0.19 0.092,0.19 c 0.043,-0.026 0.083,-0.062 0.111,-0.126 0.01,-0.053 0.002,-0.113 -0.016,-0.163 -0.316,-0.582 -0.697,-1.122 -1.148,-1.608 -0.448,-0.483 -0.957,-0.901 -1.518,-1.248 -0.557,-0.353 -1.171,-0.62 -1.832,-0.809 -0.664,-0.201 -1.353,-0.285 -2.063,-0.285 -1.025,-0.008 -1.985,0.193 -2.89,0.582" style="fill:#c09b5b;fill-opacity:1;fill-rule:nonzero;stroke:none" id="path8278"/>
    </g>
    <g id="g8280" transform="matrix(1.25,0,0,-1.25,10.131066,-9.8657281)">
      <path inkscape:connector-curvature="0" d="m 0,0 8.019,0 0,-2.627 -11.045,0 0,14.261 10.371,0 0,-2.631 -7.345,0 0,-3.208 6.491,0 0,-2.768 L 0,3.027 0,0 z" style="fill:#ffffff;fill-opacity:1;fill-rule:nonzero;stroke:none" id="path8282"/>
    </g>
    <g id="g8284" transform="matrix(1.25,0,0,-1.25,6.6044464,-6.8433481)">
      <path inkscape:connector-curvature="0" d="m 0,0 10.638,0 0,2.205 -7.817,0 C 2.768,2.205 2.712,2.236 2.674,2.271 2.636,2.313 2.605,2.357 2.605,2.418 l 0,3.027 c 0,0.057 0.031,0.106 0.069,0.148 0.038,0.042 0.094,0.061 0.147,0.061 l 6.285,0 0,2.35 -6.285,0 C 2.768,8.004 2.712,8.026 2.674,8.068 2.636,8.105 2.605,8.159 2.605,8.213 l 0,3.208 c 0,0.05 0.031,0.106 0.069,0.144 0.038,0.039 0.094,0.062 0.147,0.062 l 7.137,0 0,2.212 L 0,13.839 0,0 z m -0.205,-0.422 c -0.061,0 -0.109,0.024 -0.148,0.062 -0.038,0.038 -0.065,0.094 -0.065,0.151 l 0,14.261 c 0,0.057 0.027,0.102 0.065,0.14 0.039,0.038 0.087,0.062 0.148,0.062 l 10.376,0 c 0.049,0 0.106,-0.024 0.147,-0.062 0.036,-0.038 0.066,-0.083 0.066,-0.14 l 0,-2.631 c 0,-0.057 -0.03,-0.11 -0.066,-0.148 -0.041,-0.042 -0.098,-0.061 -0.147,-0.061 l -7.145,0 0,-2.786 6.287,0 c 0.06,0 0.108,-0.024 0.144,-0.069 C 9.497,8.318 9.52,8.27 9.52,8.213 l 0,-2.768 C 9.52,5.388 9.497,5.338 9.457,5.301 9.421,5.259 9.373,5.239 9.313,5.239 l -6.287,0 0,-2.615 7.814,0 c 0.061,0 0.122,-0.02 0.155,-0.054 0.038,-0.038 0.061,-0.094 0.061,-0.152 l 0,-2.627 c 0,-0.057 -0.023,-0.113 -0.061,-0.151 -0.041,-0.038 -0.094,-0.062 -0.155,-0.062 l -11.045,0 z" style="fill:#c09b5b;fill-opacity:1;fill-rule:nonzero;stroke:none" id="path8286"/>
    </g>
    <g id="g8288" transform="matrix(1.25,0,0,-1.25,-28.789804,-41.763978)">
      <path inkscape:connector-curvature="0" d="m 0,0 c -0.634,0 -1.234,-0.13 -1.79,-0.377 -0.553,-0.247 -1.033,-0.577 -1.449,-1.003 -0.421,-0.415 -0.748,-0.909 -0.996,-1.464 -0.246,-0.552 -0.373,-1.148 -0.373,-1.779 0,-0.632 0.127,-1.231 0.373,-1.779 0.248,-0.563 0.575,-1.046 0.996,-1.46 0.416,-0.418 0.896,-0.742 1.449,-0.989 0.556,-0.244 1.156,-0.369 1.79,-0.369 0.628,0 1.216,0.125 1.761,0.369 0.551,0.247 1.037,0.571 1.447,0.989 0.416,0.414 0.743,0.897 0.986,1.46 0.236,0.548 0.358,1.147 0.358,1.779 0,0.631 -0.122,1.227 -0.358,1.779 -0.243,0.555 -0.57,1.049 -0.986,1.464 -0.41,0.426 -0.896,0.756 -1.447,1.003 C 1.216,-0.13 0.628,0 0,0 M 7.801,-4.623 C 7.801,-5.711 7.588,-6.718 7.178,-7.657 6.765,-8.604 6.196,-9.425 5.497,-10.128 4.79,-10.828 3.974,-11.391 3.016,-11.79 2.073,-12.204 1.062,-12.409 0,-12.409 c -1.088,0 -2.099,0.205 -3.042,0.619 -0.942,0.399 -1.771,0.962 -2.471,1.662 -0.695,0.703 -1.255,1.524 -1.66,2.471 -0.411,0.939 -0.613,1.946 -0.613,3.034 0,1.083 0.202,2.099 0.613,3.049 0.405,0.946 0.965,1.775 1.66,2.475 0.7,0.703 1.529,1.262 2.471,1.662 0.943,0.41 1.954,0.615 3.042,0.615 1.062,0 2.073,-0.205 3.016,-0.615 0.958,-0.4 1.774,-0.959 2.481,-1.662 0.699,-0.7 1.268,-1.529 1.681,-2.475 0.41,-0.95 0.623,-1.966 0.623,-3.049" style="fill:#ffffff;fill-opacity:1;fill-rule:nonzero;stroke:none" id="path8290"/>
    </g>
    <g id="g8292" transform="matrix(1.25,0,0,-1.25,-31.128674,-30.457848)">
      <path inkscape:connector-curvature="0" d="m 0,0 c -0.58,0.255 -1.09,0.601 -1.516,1.034 -0.432,0.438 -0.788,0.944 -1.039,1.521 -0.258,0.582 -0.387,1.206 -0.387,1.867 0,0.661 0.129,1.285 0.387,1.866 0.251,0.574 0.607,1.092 1.034,1.532 C -1.09,8.258 -0.58,8.604 0,8.858 0.583,9.117 1.207,9.25 1.871,9.25 l 0,-0.205 0,-0.213 C 1.26,8.828 0.692,8.714 0.167,8.481 -0.364,8.246 -0.829,7.923 -1.224,7.521 -1.619,7.121 -1.934,6.653 -2.169,6.117 -2.405,5.585 -2.524,5.026 -2.524,4.422 c 0,-0.609 0.119,-1.171 0.355,-1.696 0.235,-0.539 0.55,-1.003 0.945,-1.395 0.395,-0.399 0.86,-0.715 1.391,-0.947 0.525,-0.236 1.093,-0.358 1.704,-0.358 0.601,0 1.163,0.122 1.685,0.358 0.519,0.232 0.981,0.548 1.379,0.947 0.4,0.392 0.707,0.856 0.933,1.391 0.228,0.529 0.344,1.091 0.344,1.7 0,0.604 -0.116,1.163 -0.344,1.695 C 5.642,6.657 5.328,7.121 4.935,7.521 4.537,7.931 4.075,8.246 3.556,8.481 3.034,8.714 2.472,8.828 1.871,8.832 l 0,0.213 0,0.205 C 2.53,9.25 3.146,9.117 3.724,8.858 4.294,8.604 4.796,8.258 5.231,7.82 5.662,7.38 6.007,6.862 6.251,6.288 6.507,5.707 6.636,5.083 6.636,4.422 6.636,3.761 6.507,3.137 6.251,2.555 6.007,1.978 5.662,1.472 5.231,1.034 4.796,0.601 4.294,0.255 3.724,0.004 3.146,-0.255 2.53,-0.384 1.871,-0.384 1.207,-0.384 0.583,-0.255 0,0 M -1.09,11.421 C -2.01,11.021 -2.808,10.481 -3.492,9.798 -4.177,9.117 -4.714,8.314 -5.112,7.384 -5.507,6.463 -5.71,5.479 -5.71,4.422 c 0,-1.054 0.203,-2.046 0.598,-2.958 0.398,-0.92 0.935,-1.715 1.62,-2.402 0.684,-0.681 1.482,-1.221 2.402,-1.621 0.915,-0.395 1.902,-0.596 2.961,-0.596 1.034,0 2.02,0.201 2.94,0.596 0.927,0.4 1.728,0.94 2.411,1.621 0.686,0.687 1.223,1.482 1.634,2.41 0.395,0.908 0.603,1.896 0.603,2.95 0,1.057 -0.208,2.041 -0.603,2.962 -0.411,0.93 -0.948,1.733 -1.634,2.414 -0.683,0.683 -1.484,1.223 -2.411,1.623 -0.92,0.395 -1.906,0.597 -2.94,0.597 -1.059,0 -2.046,-0.202 -2.961,-0.597 M -1.257,-2.942 c -0.963,0.418 -1.806,0.988 -2.529,1.711 -0.723,0.714 -1.295,1.57 -1.714,2.531 -0.415,0.973 -0.628,2.012 -0.628,3.122 0,1.102 0.213,2.155 0.628,3.129 0.419,0.973 0.991,1.821 1.714,2.539 0.723,0.726 1.566,1.301 2.529,1.719 0.973,0.414 2.01,0.62 3.128,0.62 1.085,0 2.129,-0.206 3.103,-0.62 C 5.946,11.391 6.796,10.816 7.518,10.09 8.243,9.372 8.817,8.524 9.239,7.551 9.665,6.577 9.878,5.528 9.878,4.422 9.878,3.312 9.665,2.273 9.239,1.3 8.817,0.339 8.243,-0.517 7.518,-1.231 6.796,-1.954 5.946,-2.524 4.974,-2.942 4,-3.364 2.956,-3.573 1.871,-3.573 c -1.118,0 -2.155,0.209 -3.128,0.631" style="fill:#c09b5b;fill-opacity:1;fill-rule:nonzero;stroke:none" id="path8294"/>
    </g>
    <g id="g8296" transform="matrix(1.25,0,0,-1.25,1.1490764,-35.908228)">
      <path inkscape:connector-curvature="0" d="m 0,0 c 0,-0.145 -0.018,-0.38 -0.062,-0.707 -0.04,-0.334 -0.1,-0.688 -0.168,-1.072 -0.074,-0.376 -0.158,-0.752 -0.264,-1.106 -0.107,-0.373 -0.224,-0.654 -0.36,-0.847 -0.333,-0.606 -0.73,-1.164 -1.209,-1.659 -0.479,-0.505 -1.016,-0.92 -1.604,-1.277 -0.586,-0.35 -1.223,-0.627 -1.906,-0.825 -0.688,-0.194 -1.387,-0.292 -2.122,-0.292 -1.072,0 -2.076,0.205 -3.019,0.607 -0.942,0.411 -1.766,0.97 -2.478,1.681 -0.707,0.715 -1.262,1.532 -1.676,2.482 -0.403,0.936 -0.613,1.947 -0.613,3.031 0,1.068 0.21,2.08 0.613,3.018 0.414,0.94 0.969,1.765 1.676,2.476 0.712,0.711 1.536,1.273 2.478,1.676 0.943,0.411 1.947,0.616 3.019,0.616 0.735,0 1.429,-0.103 2.111,-0.293 0.669,-0.197 1.296,-0.475 1.889,-0.81 C -3.11,6.354 -2.58,5.932 -2.108,5.444 -1.635,4.966 -1.22,4.426 -0.882,3.833 -1.22,3.666 -1.485,3.524 -1.696,3.414 -1.896,3.301 -2.102,3.197 -2.284,3.11 -2.479,3.02 -2.685,2.916 -2.907,2.807 -3.136,2.685 -3.422,2.544 -3.789,2.365 c -0.4,0.655 -0.94,1.19 -1.625,1.597 -0.691,0.407 -1.452,0.612 -2.281,0.612 -0.634,0 -1.232,-0.114 -1.782,-0.357 -0.555,-0.243 -1.034,-0.563 -1.442,-0.97 -0.413,-0.41 -0.737,-0.89 -0.969,-1.448 -0.242,-0.559 -0.356,-1.149 -0.356,-1.783 0,-0.631 0.114,-1.221 0.356,-1.78 0.232,-0.55 0.556,-1.041 0.969,-1.456 0.408,-0.414 0.887,-0.737 1.442,-0.966 0.55,-0.235 1.148,-0.349 1.782,-0.349 0.837,0 1.617,0.209 2.317,0.627 0.701,0.426 1.262,0.97 1.665,1.65 -0.393,0.012 -0.735,0.024 -1.032,0.012 -0.291,-0.012 -0.61,-0.012 -0.965,-0.012 -0.338,0 -0.657,-0.008 -0.953,-0.015 -0.295,-0.007 -0.545,-0.007 -0.738,-0.007 -0.196,0 -0.294,0.007 -0.294,0.022 l 0,2.274 1.739,0 1.938,0 c 0.664,0 1.347,0 2.031,-0.016 L 0,0" style="fill:#ffffff;fill-opacity:1;fill-rule:nonzero;stroke:none" id="path8298"/>
    </g>
    <g id="g8300" transform="matrix(1.25,0,0,-1.25,-12.132174,-44.658228)">
      <path inkscape:connector-curvature="0" d="m 0,0 c -0.917,-0.403 -1.726,-0.947 -2.415,-1.631 -0.695,-0.7 -1.234,-1.502 -1.63,-2.414 -0.4,-0.917 -0.599,-1.901 -0.599,-2.939 0,-1.057 0.199,-2.037 0.599,-2.954 0.396,-0.916 0.935,-1.718 1.63,-2.411 0.689,-0.696 1.498,-1.235 2.415,-1.638 0.913,-0.388 1.886,-0.585 2.93,-0.585 0.719,0 1.399,0.098 2.058,0.285 0.669,0.193 1.287,0.459 1.858,0.802 0.578,0.341 1.1,0.756 1.563,1.239 0.459,0.482 0.855,1.019 1.172,1.612 l 0.015,0.023 c 0.114,0.168 0.23,0.425 0.327,0.779 0.106,0.35 0.197,0.723 0.265,1.099 0.069,0.369 0.13,0.726 0.163,1.049 0.028,0.186 0.044,0.346 0.053,0.471 -0.578,0 -1.163,0.004 -1.771,0.016 -0.679,0 -1.362,0.008 -2.026,0.008 l -1.938,0 -1.533,0 0,-1.882 0.088,0 c 0.193,0 0.443,0.007 0.738,0.007 0.289,0.011 0.615,0.019 0.953,0.019 0.355,0 0.666,0 0.963,0.008 0.099,0 0.205,0.004 0.319,0.004 0.22,0 0.458,-0.004 0.722,-0.012 0.076,-0.008 0.14,-0.049 0.178,-0.118 C 7.14,-9.22 7.14,-9.296 7.095,-9.372 6.669,-10.067 6.085,-10.646 5.36,-11.09 c -0.737,-0.433 -1.55,-0.654 -2.43,-0.654 -0.661,0 -1.287,0.118 -1.866,0.365 -0.577,0.243 -1.085,0.574 -1.51,1.011 -0.428,0.43 -0.763,0.943 -1.011,1.52 -0.254,0.582 -0.38,1.209 -0.38,1.864 0,0.662 0.126,1.289 0.38,1.867 0.248,0.577 0.583,1.079 1.011,1.513 0.425,0.425 0.933,0.768 1.51,1.014 0.579,0.248 1.205,0.369 1.866,0.369 0.859,0 1.665,-0.205 2.385,-0.638 0.662,-0.388 1.194,-0.894 1.592,-1.506 0.296,0.14 0.53,0.259 0.719,0.353 0.221,0.115 0.434,0.213 0.619,0.309 0.188,0.091 0.38,0.185 0.578,0.304 C 8.99,-3.312 9.2,-3.201 9.446,-3.076 9.14,-2.582 8.782,-2.114 8.366,-1.699 7.91,-1.225 7.391,-0.821 6.82,-0.487 6.25,-0.152 5.642,0.113 4.98,0.312 4.321,0.494 3.649,0.589 2.93,0.589 1.886,0.589 0.913,0.391 0,0 m -0.167,-14.363 c -0.966,0.418 -1.817,0.992 -2.547,1.717 -0.73,0.727 -1.301,1.583 -1.717,2.544 -0.425,0.962 -0.632,2.011 -0.632,3.118 0,1.102 0.207,2.136 0.632,3.098 0.416,0.97 0.987,1.822 1.717,2.547 0.73,0.727 1.581,1.304 2.547,1.719 0.968,0.422 2.002,0.631 3.097,0.631 0.751,0 1.472,-0.103 2.167,-0.308 C 5.789,0.509 6.433,0.228 7.033,-0.126 7.626,-0.476 8.177,-0.909 8.668,-1.407 9.155,-1.897 9.581,-2.453 9.923,-3.064 9.956,-3.11 9.961,-3.171 9.94,-3.229 9.923,-3.281 9.888,-3.323 9.834,-3.35 9.499,-3.524 9.231,-3.662 9.028,-3.764 8.823,-3.886 8.625,-3.992 8.433,-4.08 8.242,-4.175 8.037,-4.273 7.81,-4.384 7.589,-4.498 7.287,-4.643 6.919,-4.828 6.828,-4.878 6.714,-4.84 6.648,-4.749 6.273,-4.117 5.756,-3.612 5.097,-3.217 4.448,-2.829 3.726,-2.635 2.93,-2.635 c -0.603,0 -1.173,-0.118 -1.705,-0.343 -0.531,-0.227 -0.987,-0.54 -1.374,-0.926 -0.391,-0.389 -0.695,-0.849 -0.92,-1.377 -0.231,-0.532 -0.35,-1.091 -0.35,-1.703 0,-0.601 0.119,-1.167 0.35,-1.696 0.225,-0.532 0.529,-1 0.92,-1.391 0.4,-0.4 0.843,-0.703 1.374,-0.928 0.532,-0.217 1.102,-0.335 1.705,-0.335 0.811,0.008 1.541,0.209 2.21,0.608 0.565,0.339 1.027,0.761 1.394,1.263 -0.121,0.004 -0.23,0.004 -0.337,0.004 -0.112,0 -0.213,0 -0.311,-0.004 -0.297,-0.008 -0.616,-0.008 -0.971,-0.008 -0.338,0 -0.657,-0.004 -0.945,-0.015 -0.303,0 -0.545,-0.004 -0.746,-0.004 -0.081,0 -0.15,0 -0.203,0.004 -0.053,0 -0.086,0 -0.152,0.023 -0.015,0.004 -0.04,0.004 -0.091,0.061 -0.025,0.026 -0.056,0.076 -0.056,0.144 l 0,2.274 c 0,0.056 0.023,0.106 0.061,0.156 0.032,0.03 0.094,0.057 0.147,0.057 l 1.739,0 1.938,0 c 0.664,0 1.347,0 2.031,-0.008 0.687,-0.008 1.338,-0.019 1.987,-0.019 l 0,-0.202 0,0.202 c 0.054,0 0.111,-0.015 0.149,-0.061 0.046,-0.034 0.061,-0.091 0.061,-0.141 0,-0.163 -0.015,-0.402 -0.061,-0.737 -0.045,-0.334 -0.098,-0.689 -0.174,-1.072 -0.069,-0.392 -0.158,-0.772 -0.264,-1.14 -0.114,-0.373 -0.235,-0.67 -0.396,-0.891 -0.329,-0.623 -0.74,-1.189 -1.226,-1.695 -0.494,-0.513 -1.039,-0.95 -1.648,-1.312 -0.61,-0.365 -1.264,-0.646 -1.962,-0.843 -0.702,-0.199 -1.423,-0.301 -2.174,-0.301 -1.095,0 -2.129,0.206 -3.097,0.628" style="fill:#c09b5b;fill-opacity:1;fill-rule:nonzero;stroke:none" id="path8302"/>
    </g>
    <g id="g8304" transform="matrix(1.25,0,0,-1.25,20.316566,-31.527098)">
      <path inkscape:connector-curvature="0" d="M 0,0 C -0.319,-0.601 -0.715,-1.159 -1.184,-1.653 -1.647,-2.151 -2.165,-2.581 -2.737,-2.942 -3.315,-3.3 -3.946,-3.577 -4.631,-3.775 -5.308,-3.969 -6.02,-4.067 -6.752,-4.067 c -1.058,0 -2.043,0.197 -2.966,0.6 -0.935,0.396 -1.741,0.943 -2.43,1.635 -0.687,0.691 -1.235,1.497 -1.635,2.425 -0.404,0.924 -0.601,1.92 -0.601,2.973 0,1.038 0.197,2.023 0.601,2.947 0.4,0.935 0.948,1.741 1.635,2.436 0.689,0.704 1.495,1.255 2.43,1.651 0.923,0.399 1.908,0.596 2.966,0.596 0.725,0 1.414,-0.094 2.07,-0.281 0.662,-0.189 1.278,-0.448 1.848,-0.802 C -2.266,9.771 -1.749,9.356 -1.298,8.881 -0.837,8.406 -0.454,7.874 -0.13,7.3 -0.454,7.121 -0.715,6.987 -0.902,6.886 -1.101,6.786 -1.293,6.684 -1.476,6.593 -1.657,6.497 -1.863,6.398 -2.089,6.288 -2.312,6.175 -2.601,6.034 -2.95,5.87 -3.315,6.509 -3.84,7.029 -4.515,7.437 -5.184,7.839 -5.937,8.041 -6.752,8.041 -7.368,8.041 -7.946,7.915 -8.491,7.676 -9.033,7.437 -9.505,7.121 -9.907,6.714 c -0.411,-0.396 -0.736,-0.87 -0.966,-1.418 -0.226,-0.551 -0.34,-1.125 -0.34,-1.73 0,-0.62 0.114,-1.194 0.34,-1.741 0.23,-0.54 0.555,-1.015 0.966,-1.422 0.402,-0.407 0.874,-0.73 1.416,-0.958 0.545,-0.236 1.123,-0.35 1.739,-0.35 0.847,0 1.619,0.213 2.312,0.642 0.702,0.43 1.239,0.992 1.619,1.703 C -2.477,1.255 -2.188,1.103 -1.97,0.992 -1.749,0.878 -1.557,0.779 -1.374,0.677 -1.187,0.574 -0.996,0.483 -0.799,0.376 -0.606,0.281 -0.332,0.152 0,0" style="fill:#ffffff;fill-opacity:1;fill-rule:nonzero;stroke:none" id="path8306"/>
    </g>
    <g id="g8308" transform="matrix(1.25,0,0,-1.25,8.2743164,-44.533728)">
      <path inkscape:connector-curvature="0" d="m 0,0 c -0.912,-0.388 -1.695,-0.924 -2.365,-1.6 -0.669,-0.677 -1.201,-1.467 -1.581,-2.369 -0.396,-0.904 -0.593,-1.855 -0.593,-2.87 0,-1.026 0.197,-1.992 0.593,-2.89 0.38,-0.904 0.912,-1.687 1.581,-2.365 0.67,-0.668 1.453,-1.193 2.365,-1.589 0.897,-0.387 1.857,-0.581 2.882,-0.581 0.722,0 1.401,0.095 2.068,0.285 0.664,0.194 1.273,0.46 1.835,0.814 0.56,0.346 1.065,0.764 1.513,1.247 0.4,0.434 0.75,0.908 1.047,1.414 -0.251,0.121 -0.441,0.217 -0.601,0.297 -0.205,0.095 -0.395,0.193 -0.583,0.296 -0.178,0.095 -0.375,0.194 -0.593,0.307 -0.185,0.096 -0.406,0.213 -0.676,0.354 -0.391,-0.653 -0.928,-1.189 -1.589,-1.6 -0.726,-0.449 -1.539,-0.673 -2.421,-0.666 -0.639,0 -1.252,0.115 -1.822,0.354 -0.564,0.248 -1.06,0.582 -1.486,1.012 -0.426,0.425 -0.761,0.923 -1.004,1.486 -0.248,0.566 -0.37,1.179 -0.37,1.825 0,0.627 0.122,1.239 0.37,1.814 0.243,0.566 0.578,1.068 1.004,1.49 0.426,0.418 0.922,0.753 1.486,1.004 0.57,0.247 1.183,0.372 1.822,0.372 0.854,0.004 1.642,-0.209 2.345,-0.631 0.643,-0.384 1.163,-0.874 1.535,-1.476 0.279,0.134 0.508,0.245 0.689,0.328 0.231,0.118 0.434,0.22 0.616,0.311 0.175,0.092 0.366,0.187 0.563,0.297 0.155,0.08 0.352,0.183 0.588,0.309 -0.299,0.49 -0.639,0.934 -1.034,1.352 C 7.74,-1.205 7.241,-0.81 6.686,-0.467 6.136,-0.137 5.53,0.122 4.892,0.316 4.25,0.49 3.584,0.586 2.882,0.586 1.857,0.586 0.897,0.393 0,0 m -0.172,-14.07 c -0.951,0.414 -1.779,0.973 -2.487,1.684 -0.714,0.707 -1.273,1.536 -1.683,2.487 -0.408,0.961 -0.621,1.976 -0.621,3.06 0,1.065 0.213,2.083 0.621,3.034 0.41,0.947 0.969,1.79 1.683,2.497 0.708,0.719 1.536,1.286 2.487,1.701 0.95,0.406 1.977,0.615 3.054,0.615 0.737,0 1.447,-0.099 2.129,-0.297 0.677,-0.193 1.31,-0.467 1.893,-0.82 0.585,-0.358 1.11,-0.784 1.589,-1.275 C 8.957,-1.87 9.359,-2.414 9.689,-3.003 9.72,-3.057 9.728,-3.109 9.705,-3.17 9.689,-3.224 9.656,-3.266 9.605,-3.292 9.279,-3.459 9.021,-3.6 8.828,-3.706 8.63,-3.813 8.439,-3.908 8.258,-4.007 8.067,-4.094 7.864,-4.197 7.642,-4.307 7.413,-4.417 7.127,-4.562 6.774,-4.729 6.676,-4.778 6.549,-4.74 6.501,-4.646 c -0.35,0.617 -0.837,1.111 -1.482,1.499 -0.647,0.379 -1.354,0.566 -2.137,0.566 -0.591,0 -1.133,-0.11 -1.651,-0.339 -0.522,-0.227 -0.977,-0.535 -1.358,-0.916 -0.391,-0.38 -0.691,-0.832 -0.92,-1.357 -0.215,-0.525 -0.33,-1.069 -0.33,-1.646 0,-0.597 0.115,-1.14 0.33,-1.654 0.229,-0.521 0.529,-0.973 0.92,-1.364 0.381,-0.392 0.836,-0.689 1.358,-0.914 0.518,-0.219 1.06,-0.327 1.651,-0.327 0.813,0 1.536,0.199 2.2,0.602 0.666,0.418 1.178,0.95 1.535,1.623 0.067,0.106 0.191,0.144 0.287,0.088 0.35,-0.18 0.641,-0.327 0.852,-0.442 0.223,-0.114 0.426,-0.224 0.607,-0.319 0.178,-0.095 0.368,-0.198 0.564,-0.293 0.192,-0.095 0.458,-0.224 0.793,-0.376 l -0.086,-0.19 0.086,0.19 c 0.053,-0.023 0.091,-0.068 0.111,-0.126 0.023,-0.053 0.019,-0.114 -0.007,-0.163 -0.332,-0.623 -0.743,-1.186 -1.217,-1.695 -0.479,-0.514 -1.011,-0.959 -1.601,-1.323 -0.596,-0.377 -1.242,-0.659 -1.942,-0.86 -0.705,-0.198 -1.429,-0.304 -2.182,-0.304 -1.077,0 -2.104,0.206 -3.054,0.616" style="fill:#c09b5b;fill-opacity:1;fill-rule:nonzero;stroke:none" id="path8310"/>
    </g>
    <g id="g8312" transform="matrix(1.25,0,0,-1.25,-8.7006836,57.573152)">
      <path inkscape:connector-curvature="0" d="m 0,0 c 15.217,8.025 23.695,22.689 28.385,37.703 4.685,15.017 5.553,30.354 5.553,39.604 0,4.037 -0.17,6.915 -0.247,8.093 -0.007,0.141 -0.015,0.255 -0.022,0.35 l -67.429,0 c -0.006,-0.095 -0.015,-0.209 -0.023,-0.35 -0.03,-0.383 -0.061,-0.973 -0.099,-1.722 -0.076,-1.502 -0.144,-3.688 -0.144,-6.379 0,-9.242 0.859,-24.579 5.553,-39.6 C -23.789,22.689 -15.299,8.025 -0.084,0 L 0,0 z m -0.152,-0.566 c -0.043,0 -0.091,0.015 -0.127,0.038 -15.443,8.12 -24.02,22.963 -28.721,38.055 -4.728,15.106 -5.586,30.488 -5.586,39.772 0,5.41 0.301,8.748 0.301,8.756 0.008,0.14 0.125,0.254 0.266,0.254 l 67.941,0 0,-0.278 0,0.278 c 0.142,0 0.266,-0.114 0.279,-0.254 0,-0.008 0.297,-3.342 0.297,-8.748 0,-9.285 -0.872,-24.67 -5.579,-39.776 C 24.202,22.435 15.628,7.592 0.197,-0.528 0.154,-0.551 0.109,-0.566 0.061,-0.566 l -0.213,0 z" style="fill:#ffffff;fill-opacity:1;fill-rule:nonzero;stroke:none" id="path8314"/>
    </g>
    <path inkscape:connector-curvature="0" d="m -8.9645536,57.929902 0.70375,0 0,6.90875 -0.70375,0 0,-6.90875 z" style="fill:#ffffff;fill-opacity:1;fill-rule:nonzero;stroke:none" id="path8492"/>
  </g>
</svg>