<svg xmlns="http://www.w3.org/2000/svg" xmlns:xlink="http://www.w3.org/1999/xlink" version="1.1" baseProfile="tiny" id="Ebene_1" x="0px" y="0px" width="525.633px" height="636.889px" viewBox="0 0 525.633 636.889" xml:space="preserve">
<path d="M84.096,636.889c-9.449,0-15.323-7.23-15.323-16.348c0-9.203,6.08-16.27,15.323-16.27c9.243,0,15.323,7.066,15.323,16.27  C99.419,629.659,93.544,636.889,84.096,636.889z M84.096,610.229c-5.71,0-9.079,5.053-9.079,10.064  c0,4.766,2.382,10.639,9.079,10.639s9.079-5.873,9.079-10.639C93.175,615.282,89.806,610.229,84.096,610.229z"/>
<path d="M107.84,615.897v10.928c0,2.301,0.37,5.053,3.287,5.053c2.917,0,3.286-2.752,3.286-5.053v-10.928h5.751v11.873  c0,5.875-3.04,8.955-9.037,8.955c-5.998,0-9.038-3.08-9.038-8.955v-11.873H107.84z"/>
<path d="M137.541,634.178h-0.083c-1.191,1.645-3.328,2.547-5.422,2.547c-5.916,0-9.284-5.381-9.284-10.846  c0-5.338,3.41-10.639,9.202-10.639c2.095,0,4.231,0.904,5.505,2.506h0.083v-16.514h5.751v34.836h-5.751V634.178z M138.115,625.963  c0-2.713-1.808-5.629-4.765-5.629c-2.958,0-4.765,2.916-4.765,5.629c0,2.709,1.807,5.668,4.765,5.668  C136.308,631.631,138.115,628.672,138.115,625.963z"/>
<path d="M157.135,620.542v4.723h-10.023v-4.723H157.135z"/>
<path d="M178.332,617.293v-12.199h6.039v30.975h-6.039v-13.846h-11.174v13.846h-6.039v-30.975h6.039v12.199H178.332z"/>
<path d="M193.285,626.907c0,2.547,0.986,5.422,3.984,5.422c1.89,0,3.082-1.148,3.862-2.752l5.299,0.863  c-1.396,4.025-4.93,6.285-9.161,6.285c-6.244,0-10.064-4.436-10.064-10.557s3.245-10.928,9.777-10.928  c6.614,0,9.571,4.889,9.571,10.969v0.697H193.285z M201.131,623.334c-0.288-2.055-1.603-4.068-3.821-4.068  c-2.3,0-3.574,1.973-3.861,4.068H201.131z"/>
<path d="M217.48,627.276l4.15-11.379h6.285l-9.284,20.582h-2.958l-9.243-20.582h6.326L217.48,627.276z"/>
<path d="M233.912,626.907c0,2.547,0.986,5.422,3.985,5.422c1.89,0,3.081-1.148,3.861-2.752l5.299,0.863  c-1.397,4.025-4.93,6.285-9.161,6.285c-6.244,0-10.065-4.436-10.065-10.557s3.246-10.928,9.777-10.928  c6.613,0,9.571,4.889,9.571,10.969v0.697H233.912z M241.758,623.334c-0.288-2.055-1.603-4.068-3.82-4.068  c-2.3,0-3.574,1.973-3.862,4.068H241.758z"/>
<path d="M255.602,617.993h0.083c1.15-1.766,2.875-2.752,5.012-2.752c0.821,0,1.643,0.205,2.382,0.494l-0.698,5.34  c-0.698-0.494-1.52-0.74-2.382-0.74c-3.985,0-4.396,3.533-4.396,6.656v9.078h-5.751v-20.172h5.751V617.993z"/>
<path d="M270.678,636.069h-5.752v-34.836h5.752V636.069z"/>
<path d="M279.387,626.907c0,2.547,0.986,5.422,3.984,5.422c1.891,0,3.08-1.148,3.861-2.752l5.299,0.863  c-1.396,4.025-4.93,6.285-9.16,6.285c-6.244,0-10.064-4.436-10.064-10.557s3.246-10.928,9.777-10.928  c6.613,0,9.57,4.889,9.57,10.969v0.697H279.387z M287.233,623.334c-0.287-2.055-1.602-4.068-3.82-4.068  c-2.301,0-3.574,1.973-3.861,4.068H287.233z"/>
<path d="M299.967,626.907c0,2.547,0.986,5.422,3.984,5.422c1.891,0,3.082-1.148,3.861-2.752l5.299,0.863  c-1.396,4.025-4.93,6.285-9.16,6.285c-6.244,0-10.064-4.436-10.064-10.557s3.246-10.928,9.777-10.928  c6.615,0,9.57,4.889,9.57,10.969v0.697H299.967z M307.813,623.334c-0.287-2.055-1.602-4.068-3.82-4.068  c-2.299,0-3.572,1.973-3.861,4.068H307.813z"/>
<path d="M333.981,630.809h8.545v5.26h-14.584v-30.975h6.039V630.809z"/>
<path d="M348.934,626.907c0,2.547,0.986,5.422,3.984,5.422c1.889,0,3.082-1.148,3.861-2.752l5.301,0.863  c-1.398,4.025-4.93,6.285-9.162,6.285c-6.244,0-10.064-4.436-10.064-10.557s3.244-10.928,9.777-10.928  c6.613,0,9.572,4.889,9.572,10.969v0.697H348.934z M356.78,623.334c-0.287-2.055-1.602-4.068-3.82-4.068  c-2.301,0-3.574,1.973-3.861,4.068H356.78z"/>
<path d="M370.5,615.897v10.928c0,2.301,0.369,5.053,3.285,5.053c2.918,0,3.287-2.752,3.287-5.053v-10.928h5.752v11.873  c0,5.875-3.041,8.955-9.039,8.955c-5.996,0-9.035-3.08-9.035-8.955v-11.873H370.5z"/>
<path d="M395.106,627.276l4.15-11.379h6.285l-9.285,20.582h-2.957l-9.242-20.582h6.326L395.106,627.276z"/>
<path d="M411.538,626.907c0,2.547,0.986,5.422,3.986,5.422c1.889,0,3.08-1.148,3.861-2.752l5.299,0.863  c-1.396,4.025-4.93,6.285-9.16,6.285c-6.246,0-10.066-4.436-10.066-10.557s3.246-10.928,9.777-10.928  c6.615,0,9.572,4.889,9.572,10.969v0.697H411.538z M419.385,623.334c-0.289-2.055-1.602-4.068-3.822-4.068  c-2.299,0-3.572,1.973-3.859,4.068H419.385z"/>
<path d="M433.229,617.747h0.082c1.189-1.809,3.203-2.506,5.258-2.506c5.422,0,6.984,3.82,6.984,8.502v12.326h-5.752v-10.682  c0-2.424,0.123-5.547-3.123-5.547c-3.408,0-3.449,3.822-3.449,6.246v9.982h-5.752v-20.172h5.752V617.747z"/>
<path fill="#464C4A" d="M117.713,428.014c-25.397,0-47.275,8.695-63.268,25.145c-15.393,15.83-23.87,37.895-23.87,62.127  c0,51.641,35.833,87.707,87.137,87.707c51.305,0,87.138-36.066,87.138-87.707c0-24.232-8.478-46.297-23.87-62.127  C164.988,436.709,143.11,428.014,117.713,428.014z M117.713,568.913c-34.234,0-49.558-27.588-49.558-54.93  c0-25.154,17.369-51.889,49.558-51.889s49.558,26.734,49.558,51.889C167.271,541.325,151.948,568.913,117.713,568.913z"/>
<path fill="#464C4A" d="M309.719,432.356c0,0,0,61.982,0,64.479c-2.439,0-57.556,0-59.996,0c0-2.496,0-64.479,0-64.479h-36.428  v166.295h36.428c0,0,0-70.656,0-73.164c2.44,0,57.556,0,59.996,0c0,2.508,0,73.164,0,73.164h36.428V432.356h-1.301H309.719z"/>
<path fill="#464C4A" d="M399.305,568.262c0-2.551,0-135.906,0-135.906h-1.301h-35.129v166.295h84.295v-30.389  C447.17,568.262,401.766,568.262,399.305,568.262z"/>
<path d="M425.293,449.303c0-8.553,6.787-15.365,15.367-15.365s15.365,6.813,15.365,15.365c0,8.557-6.785,15.367-15.365,15.367  S425.293,457.86,425.293,449.303z M428.647,449.303c0,6.852,5.383,12.039,12.014,12.039s12.012-5.188,12.012-12.039  c0-6.889-5.381-12.037-12.012-12.037S428.647,442.415,428.647,449.303z M447.797,457.2h-3.666l-3.744-6.348h-2.809v6.348h-3.354  v-15.945h7.799c3.707,0,6.242,0.656,6.242,4.875c0,2.941-1.523,4.529-4.369,4.723L447.797,457.2z M442.104,447.989  c1.793,0,2.885-0.387,2.885-2.131c0-1.74-2.145-1.74-3.705-1.74h-3.705v3.871H442.104z"/>
<circle fill="#A8ADB1" cx="175.75" cy="93.417" r="33.983"/>
<path fill="#54A738" d="M389.784,261.3c-12.35,0-208,89.374-326.3,123.499c-2.252,0.65-7.15,3.9-7.15,5.201  c0,1.438,6.105,2.6,13.65,2.6c80.6,0,343.201-42.25,343.201-102.7C413.184,274.092,402.717,261.3,389.784,261.3z"/>
<path d="M289.034,5.85c0-3.233-1.26-5.85-2.816-5.85c-9.967,0-25.279,16.286-32.331,30.42  C164.178,210.239,124.583,286.642,124.583,304.2c0,15.808,11.629,28.599,26,28.599C206.134,334.399,289.034,63.05,289.034,5.85z"/>
<path fill="#D20019" d="M29.684,133.738C13.276,133.738,0,147.014,0,163.421c0,16.572,13.409,28.354,29.981,29.981  c291.986,28.681,495.652,96.281,495.652,85.014c0-19.01-235.539-145.167-472.81-145.167  C40.033,133.25,29.953,133.738,29.684,133.738z"/>
</svg>