<svg xmlns="http://www.w3.org/2000/svg" viewBox="0 0 219.86 252">
  <defs>
    <style>
      .b{fill:#fff}
    </style>
  </defs>
  <title>
    MLS_Orlando_City
  </title>
  <path d="M109.93 252c-17.89-7.18-52.89-24.64-79.23-58.79C-16.08 132.42 1.4 59.92 13.37 18.74 32.14 10.69 63.81 0 109.93 0s77.83 10.69 96.56 18.74c11.97 41.18 29.45 113.74-17.33 174.47-26.32 34.19-61.38 51.65-79.23 58.83" fill="#5c2d91"/>
  <path class="b" d="M109.93 10.21c32.33 0 61.11 5.46 87.81 16.64 6 20.89 11.86 45.66 11.88 72.64 0 33.52-9.46 62.9-28.2 87.3-23.38 30.42-54.16 46.6-71.49 53.86-17.38-7.22-48.13-23.44-71.49-53.85-18.72-24.32-28.22-53.78-28.2-87.3 0-27.08 5.92-51.76 11.88-72.64 26.72-11.19 55.51-16.65 87.81-16.65m0-4.91c-43.89.12-74 10.25-91.89 17.91-11.37 39.35-28 108.58 16.5 166.57 25 32.64 58.36 49.3 75.39 56.18 17-6.88 50.35-23.47 75.39-56.18 44.5-58 27.87-127.22 16.48-166.54-17.85-7.69-48-17.82-91.87-17.82"/>
  <path d="M125.58 125.85v5.94l-2.2-.4a6.39 6.39 0 0 1-1.81 3.82c-.81.61-3.61 1.57-4.66 3-.49-1.12-3.09-1.26-3.09-1.26l-3.92 4.62-3.72-4.56s-2.62.14-3.09 1.28c-1.14-1.44-3.79-2.36-4.66-3a6.28 6.28 0 0 1-1.81-3.77l-2.27.42v-6.09c0-.88.32-1.52 1.62-2.35a25.27 25.27 0 0 1 5.13-2.22 35.55 35.55 0 0 1 8.85-1 35.69 35.69 0 0 1 8.86 1 25.46 25.46 0 0 1 5.16 2.22c1.3.83 1.62 1.46 1.62 2.35m48.45-12.74a19.32 19.32 0 0 1-12.89-.74 24.53 24.53 0 0 1 3.43 6.14c1.81 4.31 6.63 9.42 10.67 8.29 1.81-.49-3.5 4.33-9.87 4.21a21.12 21.12 0 0 1-11.9-4.1 24.82 24.82 0 0 1 1.26 6.48c.49 4.66 3.61 10.94 7.78 11 1.81 0-4.62 3.11-10.69 1.12a21.66 21.66 0 0 1-10.67-8 25 25 0 0 1-.61 7.38c-1 4.6.11 11.52 4.08 12.89 1.81.6-5.42 1.57-10.52-2.15a21.52 21.52 0 0 1-7.71-10.42 22.58 22.58 0 0 1-2.47 6.35c-2.26 4.12-3.27 11 .13 13.52 1.46 1.07-5.74 0-9.6-5.15a30.53 30.53 0 0 1-4.48-7.65 30.53 30.53 0 0 1-4.48 7.65c-3.88 5.07-11.08 6.21-9.6 5.15 3.39-2.47 2.38-9.41.13-13.52a23.16 23.16 0 0 1-2.53-6.37 21.52 21.52 0 0 1-7.65 10.42c-5.18 3.72-12.24 2.74-10.51 2.15 4-1.37 5-8.29 4.08-12.89a24.43 24.43 0 0 1-.61-7.38 21.66 21.66 0 0 1-10.67 8c-6.1 2.02-12.55-1.03-10.73-1.08 4.19-.11 7.22-6.39 7.78-11a24.1 24.1 0 0 1 1.26-6.48 21.18 21.18 0 0 1-11.9 4.1c-6.37.13-11.64-4.69-9.89-4.21 4 1.14 8.86-4 10.69-8.29a24.53 24.53 0 0 1 3.43-6.14 19.32 19.32 0 0 1-12.89.74c-6.13-1.85-9.76-7.92-8.23-6.92 3.61 2.26 9.62-1 12.64-4.64a25.51 25.51 0 0 1 5.42-5.16A21.46 21.46 0 0 1 42.85 93c-5.33-3.5-7-10.45-5.78-9 2.69 3.21 9.55 1.81 13.5-.81a24.43 24.43 0 0 1 6.19-3 21.66 21.66 0 0 1-10.83-6.98c-4.06-5-3.61-12.08-2.89-10.4 1.62 3.88 8.61 4.48 13.12 3.23a25 25 0 0 1 7-1 21.45 21.45 0 0 1-8.44-9.99c-2.4-5.92.18-12.55.32-10.74.44 4.17 7 6.75 11.71 6.9a50 50 0 0 1 6.12.36 21.66 21.66 0 0 1-4.46-11.14c-.54-6.37 3.9-11.93 3.61-10.15-.85 4.1 4.57 8.56 9 10.07a59.18 59.18 0 0 1 6.28 2.24 21.48 21.48 0 0 1-1-12.26c1.39-6.23 7.22-10.2 6.41-8.61-2 3.61 1.81 9.53 5.54 12.33.88.65 1.81 1.32 2.65 2.08 5.42-8.5 8.52-17.2 9.19-17.2s3.61 8.65 9 17.19c.87-.74 1.81-1.39 2.62-2 3.77-2.8 7.58-8.67 5.54-12.33-.88-1.59 5 2.38 6.41 8.61a21.48 21.48 0 0 1-1 12.26 57.77 57.77 0 0 1 6.38-2.32c4.44-1.52 9.86-6 9-10.07-.38-1.81 4.06 3.77 3.5 10.15a21.66 21.66 0 0 1-4.44 11.13 50 50 0 0 1 6.12-.34c4.69-.14 11.26-2.73 11.66-6.9.18-1.81 2.76 4.82.36 10.74a21.66 21.66 0 0 1-8.48 10 24.86 24.86 0 0 1 7 1.07c4.53 1.25 11.52.65 13.14-3.23.69-1.74 1.2 5.32-2.86 10.32a21.66 21.66 0 0 1-10.83 7 24.43 24.43 0 0 1 6.19 3c4 2.53 10.83 4 13.5.81 1.17-1.41-.45 5.54-5.78 9a21.46 21.46 0 0 1-12.84 3.39 25.94 25.94 0 0 1 5.42 5.16c3 3.61 9 6.9 12.64 4.64 1.53-1-2.09 5.15-8.23 6.9m-98.86-58.8a10.83 10.83 0 0 1 4.33-.54 24.21 24.21 0 0 1 9.46 2.44c4.66 2.08 8.29-2.2 5.33-4.26h.09c6.82.31 12.28 3.05 15.45 7.4 3.18-4.35 8.65-7.11 15.51-7.4v.09c-2.85 2.17.78 6.33 5.45 4.27a24.61 24.61 0 0 1 9.5-2.49 11.28 11.28 0 0 1 4.19.49c.23 0 .25 0 0-.22a15.67 15.67 0 0 0-11-2.13c-1.81-.38-7-2.35-4.21-7.22a.09.09 0 0 0 0-.12h-.07c-4.06 1.81-9.5 2.33-11.46 4.86-4.01-3.27-7.22-12.07-7.78-12.65-.51.69-3.81 9.44-7.8 12.73-1.95-2.51-7.33-3.11-11.39-4.82-.11 0-.22 0-.16.11 2.71 4.95-2.51 6.91-4.22 7.22a15.53 15.53 0 0 0-11.31 2.14c-.16.11-.09.2 0 .14m40.13 49c.72-.43 2.92 0 3.61-.45a8.21 8.21 0 0 0 3.81-4.57c0-.14 0-.2-.11-.13a5.94 5.94 0 0 1-3.07.94 16.59 16.59 0 0 0-3.61-.6c-2.17 0-2.69 1.07-6 1.07-3.32 0-3.83-1.07-6-1.07a16.59 16.59 0 0 0-3.61.6 6 6 0 0 1-3-.9c-.13-.09-.2 0-.16 0a8.27 8.27 0 0 0 4 4.66c.61.36 2.82 0 3.52.45s0 1.81.72 2.27a9.93 9.93 0 0 1 4.53 5.42.13.13 0 0 0 .13.11.16.16 0 0 0 .13-.11 9.89 9.89 0 0 1 4.51-5.42c.78-.56 0-1.81.72-2.27m-17.7-12.83a7.71 7.71 0 0 0-.22 1c0 .23 0 .29.14 0 .78-1.57 3.47-7 4.42-8.7 1.81-3.07 2.56-5 2.08-5.7-5.58 5.79-9.21-2.94-13.72-3.61-3.25-.51-4.3-.16-7.13-.6a9.89 9.89 0 0 0 4.93 6.84c5.42 2.83 8.2 1.52 10.56 2.73 1.57.81-.4 6.1-1.07 8m34.13-10.79c3.61-1.81 4.1-4.6 4.84-6.84-2.83.43-3.79.09-7 .6-4.51.69-8.14 9.42-13.72 3.61-.51.72.34 2.64 2.08 5.7 1 1.81 3.77 7.4 4.48 8.81 0 .2.13.16.11 0a7.35 7.35 0 0 0-.23-1.14c-.69-1.91-2.64-7.22-1.07-8 2.36-1.21 5.24.11 10.56-2.73m6.14 21c2.18-4.68 9.26-7.64 15.27-7.82v-.12a18.32 18.32 0 0 0-8.81-2.24c2.74-4.66 4-8.38 3.09-16.12a14.44 14.44 0 0 0 2.27-11.64c0-.2-.18-.22-.22 0a15.33 15.33 0 0 1-2.53 5.7v.15a1.46 1.46 0 1 1-1.25-2.4c-2.31-4.24-6.35-3.72-7.08-5.63a1.64 1.64 0 0 1 .22-1.53c-2.35-.08-4.19 1.38-3.16 3.16.63 1 3 1.35 5.74 3.43-2.06 1 0 3.05.56 4.55a17.28 17.28 0 0 1 1.57 11.93 23.58 23.58 0 0 1-9.86 14.09c0 .81.11 3.83-5.13 9.39-.63.65.79.32 2.36-.51a29.88 29.88 0 0 1 .78 5.24 49 49 0 0 0-9.15 0c-1 .14.81.9 1.81 1a69.07 69.07 0 0 1 7.22 1.5 7.82 7.82 0 0 1-.61 2.74 53.51 53.51 0 0 0-10.83-2.24c-.94 0 .36.83 1.21 1.07a91.13 91.13 0 0 1 8.55 3.67 13.56 13.56 0 0 1-3.39 4.14 36.83 36.83 0 0 0-6-2.76c-1.21-.43-2.55-1-3.86-1.52-2.24-1.14-6-2.46-6.59-3.94-.56 1.41-4 2.69-6.28 3.79-1.44.6-2.91 1.19-4.22 1.66a39.72 39.72 0 0 0-6 2.74 13.56 13.56 0 0 1-3.36-4.17 91 91 0 0 1 8.56-3.61c.85-.23 2.15-1.12 1.19-1.07a53.08 53.08 0 0 0-10.83 2.26 9 9 0 0 1-.61-2.76 65.39 65.39 0 0 1 7.22-1.52c1-.13 2.73-.88 1.81-1a49.18 49.18 0 0 0-9.17 0 28.36 28.36 0 0 1 .79-5.24c1.59.85 3 1.17 2.4.52-5.24-5.56-5.05-8.58-5.13-9.39a23.47 23.47 0 0 1-9.86-14.15 17.29 17.29 0 0 1 1.55-11.93c.65-1.5 2.62-3.61.56-4.55 2.79-2.06 5.13-2.36 5.75-3.36 1-1.81-.79-3.21-3.14-3.11a1.61 1.61 0 0 1 .2 1.53c-.7 1.93-4.77 1.39-7.08 5.65a1.44 1.44 0 0 1 1.34 1.46 1.46 1.46 0 0 1-1.47 1.47 1.5 1.5 0 0 1-1.3-.78 15.13 15.13 0 0 1-2.51-5.74c0-.14-.14 0-.18.09a14.44 14.44 0 0 0 2.42 11.66c-.81 7.67.36 11.39 3.09 16.05a18.38 18.38 0 0 0-8.83 2.36c6 .14 13.16 3.12 15.33 7.82-4.84-1.61-9.68 1.46-14 4.95 5.63-1.81 13-.94 16.54 3-5.11 0-7.94 4.26-11 9.3v.14a23.74 23.74 0 0 1 11.59-2.53c-4.59 8.5 2.13 16.25 11.08 22.42a87.57 87.57 0 0 1 13.32 10.09 67.77 67.77 0 0 1 13.65-9.64c9.02-6.19 15.72-13.92 11.13-22.46a24 24 0 0 1 11.59 2.53v-.13c-3.09-5-5.92-9.3-11-9.23 3.61-3.92 10.83-4.75 16.5-3.07v-.1c-4.3-3.47-9-6.5-13.94-4.91" fill="#ebcd7d"/>
  <path class="b" d="M104.1 212.79h-2.98v-16.97h3.09v16.97h-.11zM115.16 212.79h-2.92v-13.88h-4.86v-3.09h12.31l1.41 3.09h-5.7v13.88h-.24zM131.38 212.79h-2.95v-7.11l-5.47-9.86h3.52l3.54 6.62 3.54-6.62h3.5l-5.47 9.86v7.11h-.21zM57.11 191.21a8.77 8.77 0 1 1 8.83-8.76 8.77 8.77 0 0 1-8.83 8.76m0-14.44a5.74 5.74 0 1 0 5.67 5.81v-.21a5.7 5.7 0 0 0-5.67-5.72M162.79 191.21a8.77 8.77 0 1 1 8.83-8.76 8.77 8.77 0 0 1-8.83 8.76m0-14.44a5.74 5.74 0 1 0 5.69 5.79v-.2a5.7 5.7 0 0 0-5.69-5.72M87.54 190.84v-16.92h3.11v14.01h8.36l-1.45 2.91H87.54zM133.11 190.93l-10.91-10.42v10.38l-3.05-6.39v-11.14l10.87 10.17v-9.61h3.09v17.01zM141.85 190.9h-4.91v-17h5a8.39 8.39 0 0 1 6.1 2.08 8.52 8.52 0 0 1-6.26 14.91m-1.81-3h1.91a5.56 5.56 0 0 0 4.42-1.48 6.14 6.14 0 0 0 0-8.16 5.61 5.61 0 0 0-4.35-1.37h-1.91zM80.43 190.9l-7.09-8.56h1.32a11.19 11.19 0 0 0 2.18-.13 2.55 2.55 0 0 0 1.91-2.69 2.38 2.38 0 0 0-1.39-2.13 6.16 6.16 0 0 0-2.73-.38h-1.8v13.88h-3.18v-17h5.16a9.39 9.39 0 0 1 4.06.65 5.42 5.42 0 0 1 3.07 5 5.22 5.22 0 0 1-3 4.77l5.42 6.57zM118.31 190.84h-3.27l-2.12-4.62h-4.24l1.34-2.91h1.57l-1.57-3.29-5.11 10.82h-3.25l8.36-17.46 8.29 17.46zM97.29 207.29a5.72 5.72 0 1 1 0-6v-4.31a8.77 8.77 0 1 0-4.84 16.07 8.9 8.9 0 0 0 4.84-1.43v-4.33z"/>
</svg>