<svg xmlns:dc="http://purl.org/dc/elements/1.1/" xmlns:cc="http://creativecommons.org/ns#" xmlns:rdf="http://www.w3.org/1999/02/22-rdf-syntax-ns#" xmlns:svg="http://www.w3.org/2000/svg" xmlns="http://www.w3.org/2000/svg" xmlns:sodipodi="http://sodipodi.sourceforge.net/DTD/sodipodi-0.dtd" xmlns:inkscape="http://www.inkscape.org/namespaces/inkscape" viewBox="0 0 181.06371 252" height="252" width="181.06371" xml:space="preserve" id="svg2" version="1.1" sodipodi:docname="paok.svg" inkscape:version="0.92.4 (5da689c313, 2019-01-14)"><sodipodi:namedview pagecolor="#ffffff" bordercolor="#666666" borderopacity="1" objecttolerance="10" gridtolerance="10" guidetolerance="10" inkscape:pageopacity="0" inkscape:pageshadow="2" inkscape:window-width="1366" inkscape:window-height="705" id="namedview67" showgrid="false" fit-margin-top="1" fit-margin-bottom="1" fit-margin-right="1" fit-margin-left="1" inkscape:zoom="0.93650794" inkscape:cx="-252.33112" inkscape:cy="12.912316" inkscape:window-x="-8" inkscape:window-y="-8" inkscape:window-maximized="1" inkscape:current-layer="svg2"/><metadata id="metadata8"><rdf:RDF><cc:Work rdf:about=""><dc:format>image/svg+xml</dc:format><dc:type rdf:resource="http://purl.org/dc/dcmitype/StillImage"/><dc:title/></cc:Work></rdf:RDF></metadata><defs id="defs6"><clipPath id="clipPath20" clipPathUnits="userSpaceOnUse"><path id="path18" d="M 0,566.93 H 566.93 V 0 H 0 Z" inkscape:connector-curvature="0"/></clipPath></defs><g id="g14" transform="matrix(0.48163831,0,0,-0.48163831,-40.845184,259.60379)"><g id="g16" clip-path="url(#clipPath20)"><g id="g22" transform="translate(272.7705,41.0615)"><path inkscape:connector-curvature="0" d="m 0,0 c -44.314,14.821 -78.166,34.938 -103.428,61.451 -23.861,25.04 -40.099,55.963 -49.645,94.532 -18.817,76.037 -9.883,173.892 3.066,284.655 29.809,16.335 87.914,33.187 150.007,33.187 62.094,0 120.198,-16.852 150.007,-33.187 12.95,-110.763 21.884,-208.618 3.067,-284.655 C 143.528,117.414 127.29,86.491 103.43,61.451 78.167,34.938 44.316,14.821 0,0" style="fill:#ffffff;fill-opacity:1;fill-rule:nonzero;stroke:none" id="path24"/></g><g id="g26" transform="translate(272.7705,522.7573)"><path inkscape:connector-curvature="0" d="M 0,0 C -62.689,0 -125.378,-17.312 -157.36,-36.185 -184.909,-270.805 -191.206,-427.412 0,-489.987 191.207,-427.412 184.91,-270.805 157.361,-36.185 125.379,-17.312 62.69,0 0,0 m 0,-15.742 c 58.345,0 112.871,-15.101 142.668,-30.334 12.599,-108.296 21.036,-203.916 2.766,-277.745 -9.209,-37.206 -24.811,-66.971 -47.704,-90.994 C 73.849,-439.879 41.842,-459.07 0,-473.387 c -41.84,14.317 -73.848,33.508 -97.73,58.572 -22.891,24.023 -38.495,53.788 -47.702,90.994 -18.271,73.829 -9.832,169.449 2.765,277.745 29.796,15.233 84.323,30.334 142.667,30.334" style="fill:#231f20;fill-opacity:1;fill-rule:nonzero;stroke:none" id="path28"/></g><g id="g30" transform="translate(383.1025,282.4805)"><path inkscape:connector-curvature="0" d="m 0,0 c 2.755,29.516 -27.746,38.371 -27.746,38.371 12.397,-11.413 5.313,-41.717 3.542,-46.636 -1.771,-4.92 -4.525,-13.184 0,-16.333 C -20.591,-27.109 -2.755,-29.517 0,0" style="fill:#231f20;fill-opacity:1;fill-rule:nonzero;stroke:none" id="path32"/></g><g id="g34" transform="translate(360.4727,227.1855)"><path inkscape:connector-curvature="0" d="m 0,0 c -2.755,-8.854 -11.412,-21.055 -11.412,-21.055 16.135,1.771 21.644,6.887 26.761,15.743 5.116,8.854 7.456,40.732 7.456,40.732 C 9.796,27.746 2.755,8.855 0,0" style="fill:#231f20;fill-opacity:1;fill-rule:nonzero;stroke:none" id="path36"/></g><g id="g38" transform="translate(345.3213,238.7959)"><path inkscape:connector-curvature="0" d="m 0,0 c -5.116,-16.529 -1.181,-32.665 -1.181,-32.665 0,0 16.726,26.762 16.726,37.977 C 15.545,16.529 5.116,16.529 0,0" style="fill:#231f20;fill-opacity:1;fill-rule:nonzero;stroke:none" id="path40"/></g><g id="g42" transform="translate(328.2021,189.9951)"><path inkscape:connector-curvature="0" d="M 0,0 C 14.562,16.529 6.297,30.697 6.297,30.697 3.542,24.794 -6.69,15.151 -17.907,1.869 c -11.216,-13.282 0.787,-28.827 0.787,-28.827 0,0 2.558,10.429 17.12,26.958" style="fill:#231f20;fill-opacity:1;fill-rule:nonzero;stroke:none" id="path44"/></g><g id="g46" transform="translate(326.4307,175.8271)"><path inkscape:connector-curvature="0" d="m 0,0 c -10.232,-21.842 16.265,-38.568 16.265,-38.568 -5.184,28.336 12.661,61.59 12.661,61.59 C 24.204,22.433 10.232,21.842 0,0" style="fill:#231f20;fill-opacity:1;fill-rule:nonzero;stroke:none" id="path48"/></g><g id="g50" transform="translate(369.3174,125.2559)"><path inkscape:connector-curvature="0" d="M 0,0 C -16.146,44.472 3.553,82.449 3.553,82.449 -48.199,22.629 0,0 0,0" style="fill:#231f20;fill-opacity:1;fill-rule:nonzero;stroke:none" id="path52"/></g><g id="g54" transform="translate(259.8447,276.3799)"><path inkscape:connector-curvature="0" d="M 0,0 C 0,0 4.895,0.782 12.926,0.787 20.958,0.782 25.853,0 25.853,0 v -84.516 c -2.476,-2.38 -12.288,-8.332 -12.927,-8.719 -0.639,0.387 -10.451,6.339 -12.926,8.719 z m -20.334,-66.247 c -9.707,8.134 -16.66,19.71 -16.66,19.71 v 35.517 c 6.429,4.067 16.66,7.084 16.66,7.084 z m 66.522,62.311 c 0,0 10.23,-3.017 16.66,-7.084 v -35.517 c 0,0 -6.954,-11.576 -16.66,-19.71 z M 12.926,-101.5 c 0.021,-0.012 0.04,-0.024 0.061,-0.036 v 0.072 c 53.824,30.704 73.08,81.58 73.08,81.58 C 71.801,-2.873 44.029,8.429 12.987,8.458 v 0.003 c -0.02,0 -0.041,-10e-4 -0.061,-10e-4 -0.02,0 -0.042,10e-4 -0.062,10e-4 V 8.458 c -31.04,-0.029 -58.812,-11.331 -73.077,-28.342 0,0 19.256,-50.876 73.077,-81.58 v -0.072 c 0.022,0.012 0.04,0.024 0.062,0.036" style="fill:#231f20;fill-opacity:1;fill-rule:nonzero;stroke:none" id="path56"/></g><g id="g58" transform="translate(284.9102,151.8867)"><path inkscape:connector-curvature="0" d="m 0,0 c 0,0 14.823,-19.021 17.317,-38.175 0,0 -19.811,9.971 -17.317,38.175 m -12.14,-49.92 c -0.719,1.502 -7.947,17.481 0,36.515 7.949,-19.034 0.72,-35.013 0,-36.515 m -29.455,11.745 C -39.102,-19.021 -24.278,0 -24.278,0 -21.785,-28.204 -41.595,-38.175 -41.595,-38.175 M 30.501,1.312 C 13.775,4.066 6.691,24.925 6.691,24.925 1.891,19.356 -11.491,12.683 -12.14,12.361 c -0.648,0.322 -14.03,6.995 -18.829,12.564 0,0 -7.084,-20.859 -23.809,-23.613 0,0 -12.397,-23.614 -38.372,-30.108 0,0 14.497,-25.581 48.276,-21.252 0,0 8.564,-14.704 32.673,-14.755 v -0.003 c 0.022,0 0.04,10e-4 0.061,10e-4 0.022,0 0.04,-10e-4 0.062,-10e-4 v 0.003 c 24.11,0.051 32.674,14.755 32.674,14.755 33.78,-4.329 48.276,21.252 48.276,21.252 C 42.898,-22.302 30.501,1.312 30.501,1.312" style="fill:#231f20;fill-opacity:1;fill-rule:nonzero;stroke:none" id="path60"/></g><g id="g62" transform="translate(186.644,257.8828)"><path inkscape:connector-curvature="0" d="m 0,0 c 4.526,3.148 1.771,11.413 0,16.333 -1.771,4.919 -8.855,35.223 3.542,46.636 0,0 -30.5,-8.855 -27.746,-38.371 C -21.449,-4.919 -3.613,-2.512 0,0" style="fill:#231f20;fill-opacity:1;fill-rule:nonzero;stroke:none" id="path64"/></g><g id="g66" transform="translate(196.4829,206.1309)"><path inkscape:connector-curvature="0" d="m 0,0 c 0,0 -8.658,12.2 -11.413,21.055 -2.755,8.855 -9.796,27.746 -22.805,35.42 0,0 2.34,-31.878 7.456,-40.733 C -21.646,6.887 -16.136,1.771 0,0" style="fill:#231f20;fill-opacity:1;fill-rule:nonzero;stroke:none" id="path68"/></g><g id="g70" transform="translate(184.6763,244.1084)"><path inkscape:connector-curvature="0" d="m 0,0 c 0,-11.216 16.726,-37.978 16.726,-37.978 0,0 3.936,16.136 -1.181,32.666 C 10.429,11.217 0,11.217 0,0" style="fill:#231f20;fill-opacity:1;fill-rule:nonzero;stroke:none" id="path72"/></g><g id="g74" transform="translate(235.248,191.8643)"><path inkscape:connector-curvature="0" d="m 0,0 c -11.216,13.282 -21.449,22.925 -24.204,28.828 0,0 -8.264,-14.168 6.297,-30.697 14.562,-16.529 17.12,-26.958 17.12,-26.958 0,0 12.002,15.545 0.787,28.827" style="fill:#231f20;fill-opacity:1;fill-rule:nonzero;stroke:none" id="path76"/></g><g id="g78" transform="translate(219.1123,175.8271)"><path inkscape:connector-curvature="0" d="m 0,0 c -10.232,21.842 -24.204,22.433 -28.926,23.022 0,0 17.845,-33.254 12.661,-61.59 0,0 26.497,16.726 16.265,38.568" style="fill:#231f20;fill-opacity:1;fill-rule:nonzero;stroke:none" id="path80"/></g><g id="g82" transform="translate(172.6729,207.7051)"><path inkscape:connector-curvature="0" d="M 0,0 C 0,0 19.699,-37.978 3.553,-82.449 3.553,-82.449 51.752,-59.82 0,0" style="fill:#231f20;fill-opacity:1;fill-rule:nonzero;stroke:none" id="path84"/></g><g id="g86" transform="translate(201.2026,367.7891)"><path inkscape:connector-curvature="0" d="M 0,0 C -1.495,-14.759 -9.714,-6.726 -9.714,-6.726 -1.61,-7.849 0,0 0,0 m 152.852,-6.726 c 0,0 -8.22,-8.033 -9.714,6.726 0,0 1.61,-7.849 9.714,-6.726 M -21.643,-19.782 c 2.091,-0.419 12.098,2.237 20.662,0.393 7.551,-1.625 13.78,-7.417 15.349,-12.397 l 4.526,0.984 c 0,0 3.935,-7.281 3.345,-14.561 l 4.722,0.393 c 0,0 0.591,-10.035 -2.754,-13.774 h 4.722 c 0,0 0.591,-8.461 -5.116,-9.444 -5.707,-0.984 -12.003,19.48 -26.762,19.283 -14.758,-0.197 -8.068,-37.978 -1.18,-53.524 0,0 21.433,26.741 75.697,26.762 54.265,-0.021 75.699,-26.762 75.699,-26.762 6.887,15.546 13.577,53.327 -1.181,53.524 -14.757,0.197 -21.054,-20.267 -26.761,-19.283 -5.706,0.983 -5.117,9.444 -5.117,9.444 h 4.723 c -3.345,3.739 -2.755,13.774 -2.755,13.774 l 4.723,-0.393 c -0.59,7.28 3.346,14.561 3.346,14.561 l 4.525,-0.984 c 1.568,4.98 7.797,10.772 15.349,12.397 8.564,1.844 18.571,-0.812 20.661,-0.393 3.935,0.787 7.675,-0.984 7.675,-0.984 0.787,15.349 -13.381,15.349 -13.381,15.349 -2.362,13.97 -23.023,13.183 -30.304,9.838 -7.28,-3.345 -16.136,-1.18 -16.136,-1.18 0.591,-6.494 7.084,-8.658 7.084,-8.658 -15.151,0.787 -27.155,-11.414 -27.155,-11.414 6.101,0.591 9.839,-2.164 9.839,-2.164 -12.003,-2.558 -20.072,-11.807 -20.072,-11.807 5.903,0.394 7.872,-1.968 7.872,-1.968 -10.036,-3.148 -15.349,-11.806 -15.349,-11.806 4.132,0.787 7.477,-1.574 7.477,-1.574 -3.923,-1.496 -10.142,-8.476 -10.762,-9.179 -0.619,0.703 -6.838,7.683 -10.761,9.179 0,0 3.345,2.361 7.477,1.574 0,0 -5.313,8.658 -15.349,11.806 0,0 1.968,2.362 7.872,1.968 0,0 -8.069,9.249 -20.071,11.807 0,0 3.738,2.755 9.838,2.164 0,0 -12.003,12.201 -27.155,11.414 0,0 6.494,2.164 7.084,8.658 0,0 -8.855,-2.165 -16.135,1.18 -7.281,3.345 -27.943,4.132 -30.304,-9.838 0,0 -14.168,0 -13.381,-15.349 0,0 3.739,1.771 7.674,0.984" style="fill:#231f20;fill-opacity:1;fill-rule:nonzero;stroke:none" id="path88"/></g><g id="g90" transform="translate(204.5283,389.7642)"><path inkscape:connector-curvature="0" d="M 0,0 H -18.111 V 41.994 H -34.032 L -33.834,0 H -52.342 V 69.459 H 0 Z" style="fill:#231f20;fill-opacity:1;fill-rule:nonzero;stroke:none" id="path92"/></g><path inkscape:connector-curvature="0" d="m 308.619,406.88 h -16.12 v 35.427 h 16.12 z m -33.834,-17.116 h 52.146 v 69.459 h -52.146 z" style="fill:#231f20;fill-opacity:1;fill-rule:nonzero;stroke:none" id="path94"/><g id="g96" transform="translate(232.0063,422.3105)"><path inkscape:connector-curvature="0" d="M 0,0 1.828,19.838 H 12.325 L 13.983,0 Z m 16.706,-32.546 h 17.649 l -8.296,69.459 h -37.416 l -9.155,-69.459 h 17.514 l 1.313,14.249 h 17.2 z" style="fill:#231f20;fill-opacity:1;fill-rule:nonzero;stroke:none" id="path98"/></g><g id="g100" transform="translate(372.3193,389.7642)"><path inkscape:connector-curvature="0" d="M 0,0 H 20.608 L 3.098,35.739 19.356,69.459 H -0.386 L -11.551,44.103 h -5.975 V 69.459 H -36.018 V 0 h 18.492 v 25.709 h 6.581 z" style="fill:#231f20;fill-opacity:1;fill-rule:nonzero;stroke:none" id="path102"/></g><path inkscape:connector-curvature="0" d="m 245.129,486.573 h 3.848 v -16.939 h -3.848 z" style="fill:#231f20;fill-opacity:1;fill-rule:nonzero;stroke:none" id="path104"/><g id="g106" transform="translate(263.4946,481.0215)"><path inkscape:connector-curvature="0" d="m 0,0 c 0,0.734 -0.228,1.368 -0.684,1.903 -0.452,0.535 -1.075,0.801 -1.862,0.801 -0.786,0 -1.416,-0.251 -1.886,-0.754 -0.471,-0.502 -0.707,-1.16 -0.707,-1.973 0,-0.767 0.231,-1.4 0.695,-1.903 0.464,-0.502 1.08,-0.754 1.852,-0.754 0.772,0 1.396,0.248 1.874,0.742 C -0.24,-1.443 0,-0.797 0,0 m 3.848,-0.048 c 0,-1.004 -0.169,-1.917 -0.506,-2.739 -0.338,-0.822 -0.776,-1.655 -1.313,-2.5 l -3.937,-6.101 h -4.674 l 4.058,5.838 0.047,0.072 C -2.646,-5.543 -2.833,-5.59 -3.041,-5.623 -3.249,-5.655 -3.444,-5.67 -3.626,-5.67 c -0.722,0 -1.405,0.131 -2.049,0.394 -0.644,0.264 -1.212,0.639 -1.7,1.125 -0.492,0.487 -0.883,1.068 -1.175,1.747 -0.292,0.677 -0.436,1.431 -0.436,2.261 0,0.957 0.169,1.818 0.504,2.584 0.339,0.766 0.799,1.413 1.382,1.939 0.581,0.526 1.265,0.929 2.048,1.207 0.781,0.279 1.608,0.419 2.483,0.419 0.889,0 1.723,-0.14 2.507,-0.419 C 0.719,5.309 1.399,4.906 1.974,4.38 2.549,3.854 3.004,3.214 3.344,2.464 3.679,1.716 3.848,0.878 3.848,-0.048" style="fill:#231f20;fill-opacity:1;fill-rule:nonzero;stroke:none" id="path108"/></g><g id="g110" transform="translate(269.9468,469.6333)"><path inkscape:connector-curvature="0" d="m 0,0 v 3.343 l 6.359,5.972 c 0.401,0.398 0.723,0.804 0.969,1.219 0.244,0.413 0.367,0.874 0.367,1.384 0,0.605 -0.185,1.095 -0.552,1.47 -0.369,0.374 -0.861,0.561 -1.476,0.561 -0.644,0 -1.17,-0.236 -1.578,-0.706 C 3.682,12.772 3.44,12.155 3.364,11.388 l -3.71,0.527 c 0.091,0.861 0.318,1.628 0.679,2.302 0.36,0.673 0.818,1.246 1.372,1.72 0.552,0.474 1.187,0.835 1.901,1.084 0.714,0.248 1.471,0.374 2.27,0.374 0.752,0 1.482,-0.104 2.188,-0.311 0.707,-0.209 1.337,-0.526 1.891,-0.958 0.552,-0.431 0.993,-0.973 1.325,-1.627 0.329,-0.654 0.493,-1.42 0.493,-2.297 0,-0.606 -0.076,-1.153 -0.229,-1.639 C 11.389,10.076 11.178,9.625 10.911,9.211 10.642,8.797 10.333,8.41 9.989,8.051 9.643,7.692 9.286,7.336 8.917,6.986 L 5.137,3.493 h 6.661 V 0 Z" style="fill:#231f20;fill-opacity:1;fill-rule:nonzero;stroke:none" id="path112"/></g><g id="g114" transform="translate(293.2412,475.2314)"><path inkscape:connector-curvature="0" d="m 0,0 c 0,0.766 -0.23,1.399 -0.693,1.903 -0.464,0.502 -1.08,0.753 -1.851,0.753 -0.774,0 -1.398,-0.247 -1.876,-0.741 -0.478,-0.496 -0.718,-1.141 -0.718,-1.938 0,-0.734 0.232,-1.365 0.694,-1.891 0.464,-0.527 1.088,-0.79 1.876,-0.79 0.77,0 1.392,0.248 1.864,0.743 C -0.234,-1.468 0,-0.812 0,0 m 3.849,0.096 c 0,-0.957 -0.17,-1.819 -0.505,-2.584 -0.34,-0.766 -0.799,-1.411 -1.38,-1.938 -0.583,-0.527 -1.267,-0.929 -2.048,-1.209 -0.781,-0.279 -1.609,-0.418 -2.484,-0.418 -0.89,0 -1.721,0.139 -2.496,0.418 -0.775,0.28 -1.455,0.682 -2.036,1.209 -0.583,0.527 -1.042,1.164 -1.381,1.914 -0.335,0.749 -0.505,1.587 -0.505,2.512 0,1.005 0.17,1.918 0.506,2.74 0.339,0.822 0.776,1.655 1.311,2.5 l 3.939,6.101 h 4.674 l -4.012,-5.79 -0.07,-0.12 c 0.155,0.064 0.338,0.112 0.552,0.145 0.216,0.031 0.414,0.047 0.599,0.047 0.705,0 1.384,-0.131 2.036,-0.395 C 1.198,4.965 1.767,4.59 2.249,4.104 2.733,3.617 3.12,3.035 3.412,2.356 3.704,1.679 3.849,0.924 3.849,0.096" style="fill:#231f20;fill-opacity:1;fill-rule:nonzero;stroke:none" id="path116"/></g><path inkscape:connector-curvature="0" d="m 324.726,475.321 h -22.695 v 2.782 h 22.695 z" style="fill:#231f20;fill-opacity:1;fill-rule:nonzero;stroke:none" id="path118"/><path inkscape:connector-curvature="0" d="m 240.569,475.321 h -22.695 v 2.782 h 22.695 z" style="fill:#231f20;fill-opacity:1;fill-rule:nonzero;stroke:none" id="path120"/><g id="g122" transform="translate(272.7705,522.7573)"><path inkscape:connector-curvature="0" d="m 0,0 c 62.69,0 125.379,-17.312 157.361,-36.185 0.002,-0.007 0.002,-0.015 0.003,-0.023 l 13.249,8.654 -6.051,3.571 C 146.963,-13.598 121.742,-4.104 93.543,2.752 62.822,10.22 30.478,14.168 0,14.168 c -30.477,0 -62.822,-3.948 -93.542,-11.416 -28.199,-6.856 -53.421,-16.35 -71.019,-26.735 l -6.051,-3.571 -0.001,-0.008 13.335,-8.576 C -125.272,-17.283 -62.637,0 0,0" style="fill:#c7a985;fill-opacity:1;fill-rule:nonzero;stroke:none" id="path124"/></g><g id="g126" transform="translate(115.4102,486.5728)"><path inkscape:connector-curvature="0" d="m 0,0 c 0.026,0.016 0.055,0.032 0.082,0.047 l -13.334,8.575 -0.819,-6.969 c -13.451,-114.561 -22.965,-215.943 -3.034,-296.475 21.456,-86.702 75.493,-141.498 170.06,-172.445 l 4.405,-1.442 v 14.907 C -33.846,-391.227 -27.549,-234.621 0,0" style="fill:#ad9059;fill-opacity:1;fill-rule:nonzero;stroke:none" id="path128"/></g><g id="g130" transform="translate(444.2031,488.2256)"><path inkscape:connector-curvature="0" d="m 0,0 -0.819,6.978 -13.249,-8.655 c 27.546,-234.607 33.837,-391.205 -157.365,-453.778 v -14.907 l 4.407,1.442 c 94.566,30.947 148.604,85.743 170.06,172.445 C 22.965,-215.942 13.451,-114.561 0,0" style="fill:#996f32;fill-opacity:1;fill-rule:nonzero;stroke:none" id="path132"/></g></g></g></svg>