<svg xmlns:dc="http://purl.org/dc/elements/1.1/" xmlns:cc="http://creativecommons.org/ns#" xmlns:rdf="http://www.w3.org/1999/02/22-rdf-syntax-ns#" xmlns:svg="http://www.w3.org/2000/svg" xmlns="http://www.w3.org/2000/svg" xmlns:sodipodi="http://sodipodi.sourceforge.net/DTD/sodipodi-0.dtd" xmlns:inkscape="http://www.inkscape.org/namespaces/inkscape" inkscape:version="1.0 (4035a4f, 2020-05-01)" sodipodi:docname="parma-logo@logotyp.us.svg" id="svg7807" version="1.1" viewBox="0 0 194.53659 238.13837" stroke-miterlimit="2" stroke-linejoin="round" fill-rule="evenodd" clip-rule="evenodd" width="194.53659" height="238.13837">
  <metadata id="metadata7813">
    <rdf:RDF>
      <cc:Work rdf:about="">
        <dc:format>image/svg+xml</dc:format>
        <dc:type rdf:resource="http://purl.org/dc/dcmitype/StillImage"/>
        <dc:title/>
      </cc:Work>
    </rdf:RDF>
  </metadata>
  <defs id="defs7811"/>
  <sodipodi:namedview inkscape:current-layer="svg7807" inkscape:window-maximized="1" inkscape:window-y="25" inkscape:window-x="0" inkscape:cy="47.344368" inkscape:cx="52.022466" inkscape:zoom="3.22343" showgrid="false" id="namedview7809" inkscape:window-height="793" inkscape:window-width="1440" inkscape:pageshadow="2" inkscape:pageopacity="0" guidetolerance="10" gridtolerance="10" objecttolerance="10" borderopacity="1" bordercolor="#666666" pagecolor="#ffffff" inkscape:document-rotation="0" fit-margin-top="0" fit-margin-left="0" fit-margin-right="0" fit-margin-bottom="0"/>
  <path id="path7789" d="m 0.10227,0.068296 c 0.0376,40.480739 -0.40044,80.978699 0.2927,121.449784 0.95111,28.03377 15.08748,53.8047 34.24891,73.64335 17.21971,18.82169 38.61477,34.15974 62.63383,42.97693 35.53947,-13.31063 65.59206,-40.11587 84.61873,-72.7645 11.65072,-20.27384 13.2299,-44.16057 12.4842,-67.008435 C 194.42024,65.576965 194.39884,32.788475 194.40434,0 129.637,0.01841 64.86947,-0.03643 0.10225,0.0683 Z" style="fill:#24338a;fill-opacity:1;fill-rule:nonzero;stroke-width:0.975657"/>
  <path d="M 7.56604,7.902822 V 38.343325 H 186.98937 V 7.902822 Z" fill="#fcd206" id="path7791" style="fill:#ffcf01;fill-opacity:1;fill-rule:nonzero;stroke-width:0.975657"/>
  <path id="path7797" d="m 42.06528,45.221705 c -0.0997,18.9437 -0.0441,37.88803 -0.0585,56.832025 -11.52902,0 -23.05803,0 -34.58704,0 0.10664,6.79693 0.016,13.60115 0.34148,20.39123 11.41518,0 22.83037,0 34.24556,0 0,23.65968 0,47.31935 0,70.97904 6.33518,6.42477 12.95726,12.63546 20.37171,17.80574 0.22934,-29.59246 0.0719,-59.19009 0.11708,-88.78478 11.48023,0 22.96046,0 34.4407,0 0,-6.79708 0,-13.59416 0,-20.39123 -11.48024,0 -22.96047,0 -34.4407,0 -0.0132,-18.943985 0.027,-37.888255 -0.0488,-56.832025 -6.76816,-0.23264 -13.61298,-0.23233 -20.38147,0 z" style="fill:#1c1e1c;fill-opacity:1;fill-rule:nonzero;stroke-width:0.975657"/>
  <path style="fill-rule:nonzero;stroke-width:0.975657" d="m 7.56604,45.172915 v 56.880815 h 34.4407 l 0.0488,-56.880815 z m 54.90998,28.44041 0.0195,28.440405 h 34.4407 V 45.172915 H 62.44674 Z" fill="#ffffff" id="path7799"/>
  <path d="m 111.18082,134.62115 c 0,49.19262 0.0293,89.46775 0.0683,89.50677 0.039,0.039 0.44881,-0.12682 0.90736,-0.38049 0.45856,-0.24392 1.44398,-0.78053 2.19523,-1.18055 0.75126,-0.40002 2.24401,-1.23908 3.31724,-1.85375 1.07322,-0.61466 2.74159,-1.60983 3.70749,-2.19523 0.9659,-0.59515 2.25377,-1.40494 2.85868,-1.79521 l 1.09273,-0.71222 V 45.172915 h -14.14702 z m 28.58675,-9.44435 c 0,44.00212 0.0293,80.00386 0.078,80.00386 0.039,0 0.66345,-0.50734 1.38543,-1.13176 0.72199,-0.62442 2.12694,-1.85375 3.12211,-2.7416 0.99517,-0.8976 3.53187,-3.3465 5.63929,-5.46368 l 3.82458,-3.83433 V 45.172915 h -14.04946 z m 28.19648,-15.1422 c 0,37.82621 0.0293,64.81289 0.0878,64.75435 0.039,-0.0488 0.65369,-0.92688 1.35617,-1.95132 0.69271,-1.02444 1.72691,-2.57572 2.28303,-3.46358 0.56589,-0.88785 1.39519,-2.24401 1.85375,-3.02454 0.45856,-0.78052 1.21957,-2.11717 1.69765,-2.97575 0.46831,-0.85858 1.36592,-2.61476 2.00009,-3.90263 0.62442,-1.28787 1.43422,-3.02453 1.79521,-3.85383 0.361,-0.82932 0.92688,-2.21475 1.26836,-3.07333 0.33172,-0.85857 0.85857,-2.27328 1.16103,-3.14162 l 0.54637,-1.59031 V 45.172915 h -14.04947 z" fill="#fcd206" id="path7801" style="fill:#ffcf01;fill-opacity:1;fill-rule:nonzero;stroke-width:0.975657"/>
  <path style="fill-rule:nonzero;stroke-width:0.975657" d="m 7.85874,122.86449 c 0,0.2244 0.0683,1.18055 0.14635,2.11718 0.078,0.93663 0.21464,2.32206 0.30245,3.07331 0.0781,0.75126 0.27319,2.2928 0.43905,3.4148 0.1561,1.13177 0.43904,2.90746 0.63418,3.95141 0.18537,1.04395 0.53661,2.78062 0.78052,3.85384 0.24392,1.07322 0.56588,2.45866 0.73174,3.07333 0.16587,0.61467 0.47808,1.73667 0.69272,2.48793 0.21465,0.75124 0.61466,2.04888 0.87809,2.87818 0.27319,0.8293 0.77077,2.26353 1.10249,3.17088 0.34148,0.91713 0.82931,2.16597 1.07323,2.78062 0.25367,0.61467 0.79028,1.87327 1.1903,2.78064 0.40002,0.91711 1.2586,2.69281 1.89277,3.95141 0.63418,1.25859 1.60008,3.08306 2.14645,4.04897 0.53661,0.9659 1.47324,2.54647 2.06839,3.51237 0.59515,0.9659 1.56105,2.47817 2.14645,3.36601 0.59515,0.88784 1.49275,2.20499 2.00009,2.92697 0.5171,0.72199 1.52203,2.10741 2.24402,3.07333 0.73174,0.96589 2.07814,2.70256 2.99526,3.85383 0.92688,1.15128 2.40012,2.93674 3.26845,3.95142 0.87809,1.02444 2.16596,2.48793 2.85868,3.26844 0.70247,0.78053 2.00009,2.19523 2.88794,3.15137 0.88785,0.95615 1.62935,1.72692 1.64886,1.72692 0.01,0 0.0195,-15.93248 0.0195,-35.41634 v -35.41635 h -34.148 z m 54.63679,44.0509 -0.01,44.46069 c 2.99526,2.13669 4.58558,3.22943 5.47343,3.82459 0.88785,0.58539 2.33182,1.53178 3.21967,2.09766 0.88785,0.55613 2.29279,1.43422 3.1221,1.9318 0.82931,0.49759 2.30255,1.35617 3.26845,1.90253 0.9659,0.54637 2.35134,1.31714 3.07332,1.7074 0.72199,0.39027 2.52696,1.30738 4.0002,2.03913 1.47324,0.73174 3.43431,1.66837 4.34167,2.07815 0.91712,0.40977 2.07815,0.91711 2.58549,1.13176 0.50734,0.21464 1.50251,0.62442 2.19523,0.8976 0.70247,0.28294 1.68789,0.65369 2.19523,0.83907 0.50734,0.18537 0.93663,0.33172 0.95614,0.33172 0.01,0 0.0195,-24.23532 0.0195,-53.85626 v -53.85627 h -34.4407 z" fill="#ffffff" id="path7803"/>
  <g style="font-size:28.6667px;line-height:1.25;font-family:'Transport Narrow (Alfabeto Stre';-inkscape-font-specification:'Transport Narrow (Alfabeto Stre';fill:#24338a;fill-opacity:1;stroke-width:1.65686" id="text859-3" aria-label="PARMA CALCIO">
    <path id="path1507" style="font-style:normal;font-variant:normal;font-weight:900;font-stretch:condensed;font-size:28.6667px;font-family:Helvetica;-inkscape-font-specification:'Helvetica Heavy Condensed';fill:#24338a;fill-opacity:1;stroke-width:1.65686" d="m 15.299232,16.243064 h 0.544667 c 0.802667,0 1.490668,0 1.978002,0.172001 0.860001,0.401333 0.946001,1.662668 0.946001,2.494002 0,0.745335 -0.114667,1.605336 -0.630667,2.17867 -0.802668,0.630667 -1.892002,0.516 -2.838003,0.544667 z m 0,17.630021 v -8.370676 c 1.892002,-0.086 3.927337,0.172 5.676006,-0.688001 2.293336,-1.060668 2.838004,-3.669338 2.838004,-5.991341 0,-1.748668 -0.229334,-3.354004 -1.404669,-4.672672 -1.404668,-1.605335 -4.214005,-1.777335 -6.16334,-1.777335 h -5.991341 v 21.500025 z"/>
    <path id="path1509" style="font-style:normal;font-variant:normal;font-weight:900;font-stretch:condensed;font-size:28.6667px;font-family:Helvetica;-inkscape-font-specification:'Helvetica Heavy Condensed';fill:#24338a;fill-opacity:1;stroke-width:1.65686" d="m 28.95981,33.873085 0.602001,-4.185338 h 3.956004 l 0.716668,4.185338 h 5.102673 L 34.664483,12.37306 h -6.07734 l -4.701339,21.500025 z m 4.070672,-7.969343 h -2.924004 l 1.462002,-9.632011 h 0.05733 z"/>
    <path id="path1511" style="font-style:normal;font-variant:normal;font-weight:900;font-stretch:condensed;font-size:28.6667px;font-family:Helvetica;-inkscape-font-specification:'Helvetica Heavy Condensed';fill:#24338a;fill-opacity:1;stroke-width:1.65686" d="m 45.834194,16.243064 c 2.465336,-0.05733 3.526004,0.05733 3.526004,2.60867 0,1.318668 -0.344,2.666003 -1.806002,2.666003 h -1.720002 z m 0,9.144678 h 1.662668 c 1.175335,0.086 1.576669,0.946001 1.720002,2.264669 0.143334,1.318668 0.02867,3.096004 0.114667,4.988006 0.02867,0.43 0.143334,0.831334 0.286667,1.232668 h 5.504007 v -0.286667 c -0.229334,-0.200667 -0.372667,-0.458667 -0.487334,-0.745334 -0.286667,-1.376002 -0.315334,-5.074006 -0.458667,-6.794008 -0.086,-1.490669 -1.089335,-2.465336 -2.494003,-2.78067 v -0.05733 c 2.121336,-0.974667 2.666003,-2.608669 2.666003,-4.902005 0,-4.271339 -2.064003,-5.934007 -6.192007,-5.934007 h -7.367342 v 21.500025 h 5.045339 z"/>
    <path id="path1513" style="font-style:normal;font-variant:normal;font-weight:900;font-stretch:condensed;font-size:28.6667px;font-family:Helvetica;-inkscape-font-specification:'Helvetica Heavy Condensed';fill:#24338a;fill-opacity:1;stroke-width:1.65686" d="m 61.733911,33.873085 -0.458667,-16.85602 h 0.05733 l 3.468671,16.85602 h 3.755337 l 3.554671,-16.85602 h 0.05733 l -0.516001,16.85602 h 4.816006 V 12.37306 H 69.416579 L 66.72191,25.072408 H 66.66458 L 64.055914,12.37306 h -7.109342 v 21.500025 z"/>
    <path id="path1515" style="font-style:normal;font-variant:normal;font-weight:900;font-stretch:condensed;font-size:28.6667px;font-family:Helvetica;-inkscape-font-specification:'Helvetica Heavy Condensed';fill:#24338a;fill-opacity:1;stroke-width:1.65686" d="m 83.157788,33.873085 0.602001,-4.185338 h 3.956004 l 0.716668,4.185338 h 5.102673 L 88.862461,12.37306 h -6.07734 l -4.701339,21.500025 z m 4.070672,-7.969343 h -2.924004 l 1.462002,-9.632011 h 0.05733 z"/>
    <path id="path1517" style="font-style:normal;font-variant:normal;font-weight:900;font-stretch:condensed;font-size:28.6667px;font-family:Helvetica;-inkscape-font-specification:'Helvetica Heavy Condensed';fill:#24338a;fill-opacity:1;stroke-width:1.65686" d="m 115.71286,19.883735 v -1.806002 c 0,-4.386005 -2.58,-6.220674 -6.88001,-6.220674 -4.61534,0 -6.76534,2.178669 -6.76534,6.851342 v 8.829343 c 0,4.386005 1.806,6.851342 6.45001,6.851342 5.16,0 7.28134,-2.580003 7.28134,-6.278008 v -2.637336 h -5.04534 v 1.949335 c 0,1.318669 -0.14333,3.096004 -1.86334,3.096004 -1.31866,0 -1.806,-0.716667 -1.806,-1.920669 l 0.0287,-10.635346 c 0,-1.404668 0.37267,-2.264669 1.94933,-2.236002 0.94601,0 1.60534,0.946001 1.60534,2.78067 v 1.376001 z"/>
    <path id="path1519" style="font-style:normal;font-variant:normal;font-weight:900;font-stretch:condensed;font-size:28.6667px;font-family:Helvetica;-inkscape-font-specification:'Helvetica Heavy Condensed';fill:#24338a;fill-opacity:1;stroke-width:1.65686" d="m 122.23857,33.873085 0.602,-4.185338 h 3.956 l 0.71667,4.185338 h 5.10267 L 127.94324,12.37306 h -6.07734 l -4.70134,21.500025 z m 4.07067,-7.969343 h -2.924 l 1.462,-9.632011 h 0.0573 z"/>
    <path id="path1521" style="font-style:normal;font-variant:normal;font-weight:900;font-stretch:condensed;font-size:28.6667px;font-family:Helvetica;-inkscape-font-specification:'Helvetica Heavy Condensed';fill:#24338a;fill-opacity:1;stroke-width:1.65686" d="M 145.13296,33.873085 V 29.57308 h -6.16334 V 12.37306 h -5.04534 v 21.500025 z"/>
    <path id="path1523" style="font-style:normal;font-variant:normal;font-weight:900;font-stretch:condensed;font-size:28.6667px;font-family:Helvetica;-inkscape-font-specification:'Helvetica Heavy Condensed';fill:#24338a;fill-opacity:1;stroke-width:1.65686" d="m 160.33661,19.883735 v -1.806002 c 0,-4.386005 -2.58001,-6.220674 -6.88001,-6.220674 -4.61534,0 -6.76534,2.178669 -6.76534,6.851342 v 8.829343 c 0,4.386005 1.806,6.851342 6.45001,6.851342 5.16,0 7.28134,-2.580003 7.28134,-6.278008 v -2.637336 h -5.04534 v 1.949335 c 0,1.318669 -0.14334,3.096004 -1.86334,3.096004 -1.31867,0 -1.806,-0.716667 -1.806,-1.920669 l 0.0287,-10.635346 c 0,-1.404668 0.37266,-2.264669 1.94933,-2.236002 0.946,0 1.60534,0.946001 1.60534,2.78067 v 1.376001 z"/>
    <path id="path1525" style="font-style:normal;font-variant:normal;font-weight:900;font-stretch:condensed;font-size:28.6667px;font-family:Helvetica;-inkscape-font-specification:'Helvetica Heavy Condensed';fill:#24338a;fill-opacity:1;stroke-width:1.65686" d="M 168.03766,33.873085 V 12.37306 h -5.04534 v 21.500025 z"/>
    <path id="path1527" style="font-style:normal;font-variant:normal;font-weight:900;font-stretch:condensed;font-size:28.6667px;font-family:Helvetica;-inkscape-font-specification:'Helvetica Heavy Condensed';fill:#24338a;fill-opacity:1;stroke-width:1.65686" d="m 179.25618,27.451744 c 0,1.232668 -0.11467,3.067337 -1.74867,3.067337 -1.634,0 -1.83467,-1.834669 -1.83467,-3.067337 V 18.6224 c 0,-1.318668 0.20067,-2.895336 1.806,-2.895336 1.66267,0 1.77734,1.576668 1.77734,2.895336 z m 5.04534,-9.173344 c 0,-4.128005 -2.37934,-6.421341 -6.79401,-6.421341 -4.41467,0 -6.88001,2.293336 -6.88001,6.421341 v 8.743344 c 0,4.844672 1.77734,7.367342 6.88001,7.367342 5.10267,0 6.79401,-2.52267 6.79401,-7.367342 z"/>
  </g>
</svg>