<svg xmlns:inkscape="http://www.inkscape.org/namespaces/inkscape" xmlns:sodipodi="http://sodipodi.sourceforge.net/DTD/sodipodi-0.dtd" xmlns="http://www.w3.org/2000/svg" xmlns:svg="http://www.w3.org/2000/svg" xmlns:rdf="http://www.w3.org/1999/02/22-rdf-syntax-ns#" xmlns:cc="http://creativecommons.org/ns#" xmlns:dc="http://purl.org/dc/elements/1.1/" inkscape:version="1.2 (dc2aeda, 2022-05-15)" sodipodi:docname="Logo Pau FC - 2022.svg.2022_07_15_01_21_57.0.svg" viewBox="0 0 800.00004 800" height="800" width="800" xml:space="preserve" id="svg10" version="1.1"><metadata id="metadata16"><rdf:RDF><cc:Work rdf:about=""><dc:format>image/svg+xml</dc:format><dc:type rdf:resource="http://purl.org/dc/dcmitype/StillImage"/></cc:Work></rdf:RDF></metadata><defs id="defs14"/><sodipodi:namedview inkscape:current-layer="g18" inkscape:window-maximized="0" inkscape:window-y="25" inkscape:window-x="0" inkscape:cy="335.87797" inkscape:cx="350.28857" inkscape:zoom="0.45105668" showgrid="false" id="namedview12" inkscape:window-height="745" inkscape:window-width="1440" inkscape:pageshadow="2" inkscape:pageopacity="0" guidetolerance="10" gridtolerance="10" objecttolerance="10" borderopacity="1" bordercolor="#666666" pagecolor="#ffffff" inkscape:showpageshadow="2" inkscape:pagecheckerboard="0" inkscape:deskcolor="#d1d1d1" showguides="true"/><g transform="matrix(1.3333333,0,0,-1.3333333,837.68081,2164.197)" inkscape:label="Logo" inkscape:groupmode="layer" id="g18"><g id="g16982" transform="matrix(0.41131106,0,0,0.41131106,-369.85008,955.52917)"><circle style="fill:#1c1f42;fill-opacity:1;fill-rule:evenodd;stroke-width:2.5928" id="circle10003" cx="101.11438" cy="-893.77283" transform="scale(1,-1)" r="729.375"/><circle style="fill:#f0cd11;fill-opacity:1;fill-rule:evenodd;stroke-width:2.49282" id="circle10001" cx="101.11438" cy="-893.77283" transform="scale(1,-1)" r="701.25"/><circle style="fill:#1c1f42;fill-opacity:1;fill-rule:evenodd;stroke-width:2.43283" id="circle9999" cx="101.11438" cy="-893.77283" transform="scale(1,-1)" r="684.375"/><circle style="fill:#f0cd11;fill-opacity:1;fill-rule:evenodd;stroke-width:2.37284" id="circle9997" cx="101.11438" cy="-893.77283" transform="scale(1,-1)" r="667.5"/><circle style="fill:#1c1f42;fill-opacity:1;fill-rule:evenodd;stroke-width:2.23953" id="circle9995" cx="101.11438" cy="-893.77283" transform="scale(1,-1)" r="630"/><circle style="fill:#f0cd11;fill-opacity:1;fill-rule:evenodd;stroke-width:1.55301" id="circle9993" cx="101.11438" cy="-893.77283" transform="scale(1,-1)" r="436.875"/><circle style="fill:#1c1f42;fill-opacity:1;fill-rule:evenodd;stroke-width:1.47303" id="circle9991" cx="101.11438" cy="-893.77283" transform="scale(1,-1)" r="414.375"/><circle style="fill:#ffffff;fill-rule:evenodd;stroke-width:1.41304" id="path9441" cx="101.11438" cy="-893.77283" transform="scale(1,-1)" r="397.5"/></g><g id="g17272" style="fill:#1c1f42;fill-opacity:1" transform="matrix(0.41131106,0,0,0.41131106,-370.49926,955.52917)"><g id="g7055" style="fill:#1c1f42;fill-opacity:1" transform="translate(-1500.0001)"><path id="path459" style="fill:#1c1f42;fill-opacity:1;stroke-width:0.75" d="m 1617.4914,1024.7474 c -0.7601,0.023 -1.5437,-0.1573 -2.3306,-0.5742 -4.4735,-2.3703 -7.2964,-7.6723 -7.2964,-13.7022 0,-4.9171 0.9282,-7.6243 3.5625,-10.3857 1.0822,-1.1344 2.6886,-2.06253 3.5684,-2.06253 2.5143,0 7.5945,4.85593 9.0395,8.63963 3.003,7.863 -1.2227,17.9266 -6.5434,18.085 z m -0.1011,-3.4746 c 0.5476,0 1.6654,-1.0969 2.4829,-2.4375 1.8615,-3.0531 1.9402,-8.2984 0.1773,-11.7671 -2.1178,-4.1674 -2.9476,-3.6483 -2.5972,1.626 l 0.3135,4.7036 -1.5894,-1.5337 c -0.8739,-0.8435 -1.8715,-3.0373 -2.2178,-4.875 l -0.6298,-3.3413 -1.2334,2.789 c -1.4568,3.2957 -1.5231,4.7404 -0.3794,8.1621 0.9667,2.8925 4.1809,6.6739 5.6733,6.6739 z"/><path id="path455" style="fill:#1c1f42;fill-opacity:1;stroke-width:0.75" d="m 1588.1872,1024.699 c -0.3255,0.01 -0.6414,-0.03 -0.9448,-0.1157 -2.4616,-0.6938 -5.4654,-4.757 -6.4014,-8.6587 -1.3067,-5.447 0.092,-10.4146 4.1147,-14.6133 3.6323,-3.79078 5.5853,-4.11028 8.1592,-1.33442 3.5076,3.78282 5.2336,8.33232 4.7403,12.49802 -0.6977,5.8906 -5.8274,12.1414 -9.668,12.2241 z m 0.1772,-3.6079 c 0.4674,-0.015 0.9727,-0.4548 1.979,-1.3828 3.7353,-3.4444 5.093,-9.531 2.9766,-13.3491 -1.1906,-2.148 -1.6005,-1.5909 -2.2808,3.1011 -0.3331,2.2979 -0.8876,3.5625 -1.5615,3.5625 -0.7676,0 -1.1042,-1.34 -1.2671,-5.0508 l -0.2212,-5.0508 -1.6494,2.1035 c -3.2253,4.1126 -2.9332,11.993 0.5611,15.1553 0.669,0.6054 1.0509,0.9241 1.4633,0.9111 z"/><path id="path451" style="fill:#1c1f42;fill-opacity:1;stroke-width:0.75" d="m 1646.485,1017.2957 c -0.9442,0.01 -2.0528,-0.303 -3.3852,-0.9038 -5.8478,-2.637 -9.6883,-8.3484 -9.7193,-14.4551 -0.017,-3.38464 1.668,-8.31057 3.2007,-9.35592 1.5858,-1.08156 6.4989,-0.0126 9.1158,1.9834 5.6367,4.29942 7.5864,10.80072 5.3027,17.67622 -1.1516,3.4674 -2.4374,5.037 -4.5147,5.0552 z m -1.1381,-4.3945 c 2.0608,0.082 3.0175,-1.8436 3.0175,-5.8784 0,-3.5096 -0.8365,-5.4677 -3.6064,-8.43753 -1.6668,-1.78707 -3.1436,-2.63462 -3.1436,-1.80468 0,0.14168 0.6481,2.14097 1.44,4.44291 1.2546,3.6465 1.2948,4.2406 0.3135,4.6171 -0.6194,0.2377 -1.209,0.4322 -1.3111,0.4322 -0.102,0 -0.9701,-1.6746 -1.9292,-3.7222 -1.9989,-4.26843 -3.0132,-4.24972 -3.0132,0.054 0,3.8687 1.7127,7.1124 4.7242,8.9487 1.4065,0.8577 2.5715,1.3097 3.5083,1.3477 z"/><path id="path447" style="fill:#1c1f42;fill-opacity:1;stroke-width:0.75" d="m 1558.5138,1016.7156 c -1.4047,0.01 -1.9196,-0.4076 -2.7246,-1.6362 -4.5578,-6.9559 -2.1002,-16.81305 5.3101,-21.29881 5.3298,-3.22636 8.6673,-2.07552 10.3433,3.56836 2.5651,8.63765 -3.0652,18.32125 -11.1841,19.23635 -0.7095,0.08 -1.2764,0.1286 -1.7447,0.1303 z m 1.7447,-3.6928 c 2.1315,0 5.3196,-2.5206 6.7939,-5.3716 1.124,-2.1736 1.6616,-7.77946 0.8262,-8.61475 -0.2274,-0.22743 -1.2852,1.30815 -2.3511,3.41165 -2.9886,5.8973 -4.8773,5.0041 -2.9736,-1.4063 0.6397,-2.15407 0.9915,-4.08852 0.7822,-4.29783 -0.6617,-0.66174 -4.2592,3.43553 -5.3877,6.13623 -2.0046,4.7979 -0.7877,10.1426 2.3101,10.1426 z"/><path id="path443" style="fill:#1c1f42;fill-opacity:1;stroke-width:0.75" d="m 1603.3146,1057.2698 c -3.9325,-0.01 -9.9483,-7.7622 -10.8882,-14.0302 -0.8667,-5.7795 1.2979,-11.816 6.6182,-18.4571 1.6192,-2.0211 1.7045,-2.8049 1.9028,-17.625 0.114,-8.53032 0.3568,-15.93161 0.5391,-16.44723 0.1823,-0.51562 0.8478,-0.9375 1.4795,-0.9375 0.9828,0 1.1699,1.92153 1.2949,13.31253 0.08,7.3219 0.2182,14.1562 0.3062,15.1875 0.088,1.0312 0.1915,2.6129 0.2285,3.5156 0.038,0.9027 1.1177,2.7589 2.3994,4.125 5.3095,5.6588 7.2171,13.7305 4.9966,21.1421 -0.9798,3.2702 -7.0192,10.2143 -8.877,10.2143 z m -0.2051,-4.497 c 4.2283,0 7.7344,-10.8942 5.587,-17.3584 -0.4599,-1.3844 -1.6667,-3.5291 -2.6822,-4.7666 l -1.8457,-2.25 -0.028,6.9375 c -0.025,6.4285 -0.1364,6.9375 -1.5264,6.9375 -1.3835,0 -1.5,-0.5005 -1.5,-6.438 0,-7.3175 -0.7383,-7.8566 -3.5288,-2.5796 -3.7826,7.1529 -0.283,19.5176 5.5239,19.5176 z"/><path id="path439" style="fill:#1c1f42;fill-opacity:1;stroke-width:0.75" d="m 1534.6047,1002.4642 c -3.5322,-0.07 -5.4903,-2.69403 -5.4903,-7.62893 0,-6.59361 4.1272,-12.19215 10.3814,-14.08154 1.0962,-0.33115 3.4368,-0.631 5.2002,-0.6665 2.8173,-0.0566 3.3096,0.18561 4.0635,1.99804 2.8274,6.7973 -1.6542,16.07533 -9.3091,19.27293 -1.8414,0.7692 -3.4636,1.1333 -4.8457,1.106 z m -1.9366,-3.4673 3.0396,-0.40723 c 1.6717,-0.22423 3.9054,-1.03484 4.9629,-1.80029 2.1667,-1.56833 4.9438,-6.67232 4.9438,-9.08496 0,-1.35362 -0.4816,-1.09077 -3.1875,1.7373 -2.3999,2.50829 -3.4614,3.15494 -4.2949,2.61914 -0.9506,-0.61108 -0.888,-1.00837 0.4409,-2.8125 0.8511,-1.15554 1.9522,-2.85997 2.4463,-3.78809 1.0909,-2.04922 0.4371,-2.12412 -2.5298,-0.2915 -4.0463,2.49937 -5.1349,4.33197 -5.4902,9.24463 z"/><path id="path435" style="fill:#1c1f42;fill-opacity:1;stroke-width:0.75" d="m 1671.3976,1002.5184 c -6.4197,-0.016 -12.6682,-4.77426 -14.4873,-11.03176 -1.2811,-4.40671 -1.0722,-9.24911 0.479,-11.11816 2.6927,-3.24446 12.9982,0.66654 16.5616,6.28564 4.037,6.3656 2.506,15.87728 -2.5533,15.86428 z m -0.4028,-3.82619 c 1.1481,0.0351 1.2699,-0.51462 1.6084,-2.6001 0.6331,-3.90138 -1.5284,-8.60375 -4.9189,-10.69922 -4.0162,-2.48213 -4.4732,-1.96732 -1.9117,2.15332 1.8757,3.01734 2.1565,3.95652 1.4019,4.6875 -0.7485,0.72515 -1.6464,0.1388 -4.3403,-2.83594 l -3.3955,-3.75 0.4438,2.98243 c 0.7411,4.98369 4.7142,9.0783 9.5757,9.86718 0.6566,0.10653 1.1539,0.18313 1.5366,0.19483 z"/><path style="fill:#1c1f42;fill-opacity:1;stroke-width:0.75" d="m 1593.6144,977.34777 c 0,1.14038 2.2369,4.67091 4.0071,6.32439 2.49,2.32598 7.6524,2.95308 10.8211,1.31451 3.5483,-1.83494 3.4907,-2.56556 -0.17,-2.15295 -5.0946,0.57423 -8.4495,-0.37625 -11.7029,-3.31557 -1.6254,-1.46844 -2.9553,-2.44511 -2.9553,-2.17038 z" id="path433"/><path style="fill:#1c1f42;fill-opacity:1;stroke-width:0.75" d="m 1597.8259,976.60281 c 1.0871,2.83285 7.0664,4.73232 10.4707,3.32626 l 2.1928,-0.90568 -3.8659,-0.53466 c -2.1263,-0.29406 -4.9625,-1.08169 -6.3027,-1.75029 -2.9671,-1.48017 -3.0118,-1.4826 -2.4949,-0.13563 z" id="path431"/><path id="path425" style="fill:#1c1f42;fill-opacity:1;stroke-width:0.75" d="m 1640.1115,1052.0228 c -2.4755,0 -8.0798,-3.6406 -10.3667,-6.7339 -2.2037,-2.9807 -3.8804,-7.7481 -3.8804,-11.0332 0,-1.4185 0.7594,-4.3298 1.6875,-6.4688 2.4461,-5.6371 2.2937,-12.9744 -0.4746,-22.8574 -2.0124,-7.18459 -2.3922,-7.90863 -5.4902,-10.44725 -6.4187,-5.25956 -8.0062,-12.48853 -4.3345,-19.73438 1.0382,-2.04879 2.1686,-3.7251 2.5122,-3.7251 0.8876,0 6.1676,3.96173 8.1123,6.08643 3.3899,3.70376 4.1275,8.90739 2.0127,14.19287 -1.5387,3.84562 -1.1176,7.81399 2.0318,19.18503 2.3147,8.3568 2.3975,8.514 5.5664,10.3711 6.4842,3.7999 10.0843,10.0296 10.1103,17.5005 0.026,7.4658 -3.3704,13.6641 -7.4868,13.6641 z m -0.6357,-3.75 c 1.3824,0 3.6021,-3.0812 4.4267,-6.1436 1.2687,-4.7118 -0.1668,-10.4142 -3.5713,-14.1826 -4.1891,-4.6368 -4.6692,-4.0564 -2.8564,3.4512 1.4195,5.879 1.3991,6.375 -0.2564,6.375 -1.1041,0 -1.7581,-1.2734 -3.1303,-6.0923 -1.4976,-5.2597 -1.8629,-5.9151 -2.6748,-4.8047 -2.4653,3.3715 -2.0954,11.3727 0.7192,15.5493 1.5674,2.3259 5.9903,5.8477 7.3433,5.8477 z m -14.4668,-56.49026 c 0.942,0.0204 1.4759,-1.19701 2.3291,-4.20557 0.5792,-2.04261 0.435,-3.23623 -0.7046,-5.8125 -1.9789,-4.4736 -3.2026,-4.2319 -2.5738,0.5083 0.4115,3.10221 0.2975,3.75 -0.665,3.75 -0.6847,0 -1.5336,-1.15743 -2.0625,-2.8125 -1.3762,-4.30676 -2.2195,-4.6499 -2.2075,-0.89941 0.013,3.99436 1.1368,6.40145 3.9639,8.50049 0.822,0.61032 1.4269,0.96049 1.9204,0.97119 z"/><path id="path421" style="fill:#1c1f42;fill-opacity:1;stroke-width:0.75" d="m 1690.215,981.79377 c -0.9913,-0.0141 -2.091,-0.13378 -3.2959,-0.35889 -6.7291,-1.25714 -12.1679,-6.82032 -12.8847,-13.1792 -0.3869,-3.43237 0.4753,-5.14407 3.1787,-6.30615 0.8393,-0.36079 3.178,-0.47478 5.1972,-0.25195 7.2859,0.80403 12.2749,4.95223 13.9439,11.59277 1.4111,5.61472 -0.7861,8.5795 -6.1392,8.50342 z m -0.3325,-3.55078 c 0.5882,0.009 1.1474,-0.0468 1.6611,-0.17578 1.8008,-0.452 1.9435,-0.74674 1.5469,-3.19043 -0.5279,-3.25285 -2.5021,-6.05313 -5.4302,-7.70215 -2.7935,-1.57324 -6.2959,-2.38816 -6.2959,-1.46484 0,0.3936 1.342,1.66603 2.9825,2.82714 3.2844,2.32465 3.4942,3.49411 0.6855,3.83204 -1.2033,0.14478 -2.4639,-0.44026 -3.6357,-1.6875 -2.1809,-2.3215 -3.0323,-2.41517 -3.0323,-0.33399 0,3.50012 6.7283,7.82431 11.5181,7.89551 z"/><path id="path417" style="fill:#1c1f42;fill-opacity:1;stroke-width:0.75" d="m 1515.4811,981.50666 c -5.3398,0.0207 -6.6167,-1.09604 -6.6167,-5.78467 0,-6.04085 4.543,-11.67475 11.0728,-13.73144 1.9333,-0.6089 7.2067,-0.34723 10.1147,0.50097 0.9969,0.29075 1.3125,1.1877 1.3125,3.73096 0,9.03791 -6.4527,15.24768 -15.8833,15.28418 z m 0.1934,-3.00293 c 2.8167,0.0745 6.6357,-1.43398 9.1626,-4.43701 1.1151,-1.32525 2.0273,-3.03915 2.0273,-3.80859 0,-1.29886 -0.2281,-1.26727 -3.1875,0.4248 -3.0908,1.76722 -5.8125,2.38439 -5.8125,1.31836 0,-0.28706 1.6031,-1.95935 3.5625,-3.71631 3.3289,-2.98502 3.4388,-3.19711 1.6758,-3.22851 -4.201,-0.0748 -9.7788,4.75263 -10.9687,9.49365 -0.65,2.58964 1.0552,3.88781 3.5405,3.95361 z"/><path id="path411" style="fill:#1c1f42;fill-opacity:1;stroke-width:0.75" d="m 1674.988,1037.7083 c -1.2528,5e-4 -2.7599,-0.3559 -4.5513,-1.04 -5.3925,-2.0594 -8.9843,-5.179 -11.2163,-9.7412 -1.9709,-4.0282 -2.0365,-4.5292 -1.5557,-11.8682 l 0.5025,-7.6611 -4.9878,-8.62503 c -6.0871,-10.52695 -6.3218,-10.80062 -11.2486,-13.05615 -2.7924,-1.27839 -4.5806,-2.75334 -6.0747,-5.01269 -1.8935,-2.86322 -2.1033,-3.79817 -1.9951,-8.85645 0.1332,-6.22915 0.1017,-6.31537 -6.1758,-16.94971 -2.1915,-3.71249 -4.218,-7.71199 -4.5029,-8.8872 -0.442,-1.82371 -0.3105,-2.09705 0.895,-1.86768 0.8318,0.15825 2.8604,2.73322 4.9336,6.26221 7.2632,12.36349 8.3577,13.80935 11.6192,15.34863 7.6641,3.6171 10.5924,8.57992 9.6753,16.39746 -0.4556,3.88422 -0.3299,4.24974 4.2246,12.23584 6.2206,10.90727 8.0214,13.00317 12.0366,14.01417 4.692,1.1815 8.8444,4.5177 11.4228,9.1787 1.9422,3.511 2.2512,4.8372 2.2412,9.6929 -0.012,7.2194 -1.4843,10.4341 -5.2426,10.4355 z m -1.5601,-3.8452 c 0.1479,-10e-4 0.2933,-0.01 0.4365,-0.022 1.4544,-0.1497 2.0934,-0.8611 2.8477,-3.1714 1.8942,-5.8012 -2.2272,-15.0238 -7.7446,-17.3291 -4.1752,-1.7445 -4.2227,-1.5687 -1.0899,4.1148 2.5639,4.6516 2.7811,6.0717 0.9243,6.0557 -0.8043,-0.01 -2.3288,-1.7443 -3.9375,-4.4883 -1.4437,-2.4627 -2.8557,-4.4783 -3.1377,-4.4883 -0.7798,-0.017 -1.0587,3.7618 -0.5171,7.0049 0.9516,5.6985 7.634,12.3427 12.2183,12.3237 z m -28.3564,-50.84033 c 1.9405,0 1.9721,-0.0803 1.6362,-4.13085 -0.247,-2.97852 -0.8329,-4.65218 -2.0991,-6.00001 -2.0362,-2.16747 -3.3923,-2.45557 -2.6206,-0.55664 0.2933,0.72188 0.8045,2.21624 1.1367,3.32081 0.9491,3.1558 -1.1232,3.29489 -3.0337,0.20361 -2.0327,-3.28904 -3.2499,-3.35873 -2.6074,-0.14942 0.6274,3.13462 4.9627,7.3125 7.5879,7.3125 z"/><path id="path407" style="fill:#1c1f42;fill-opacity:1;stroke-width:0.75" d="m 1702.1315,957.41731 c -6.0523,-0.035 -12.5652,-3.947 -15.123,-9.33692 -1.7374,-3.66153 -0.7621,-5.6974 3.8891,-8.11816 1.9756,-1.02818 4.5816,-1.8851 5.792,-1.9043 3.3752,-0.0536 8.3323,2.72035 11.7027,6.54932 2.6235,2.98049 3.0138,3.86879 2.8213,6.4248 -0.2713,3.60008 -2.6383,5.65457 -7.2232,6.26953 -0.6113,0.082 -1.2328,0.11935 -1.8589,0.11573 z m 0.3384,-3.60059 c 2.8821,-10e-4 5.1445,-1.08937 5.1445,-3.34424 0,-2.33805 -2.3801,-5.23485 -5.5298,-6.72949 -2.658,-1.26141 -8.7202,-1.68608 -8.7202,-0.61084 0,0.3352 1.6593,1.33385 3.687,2.21924 2.0277,0.88539 3.8979,1.95132 4.1558,2.36865 0.9223,1.49222 -3.3806,1.76301 -6.397,0.40283 -3.6573,-1.64921 -4.537,-0.97945 -2.1357,1.62451 2.467,2.67527 6.529,4.07034 9.7954,4.06934 z"/><path id="path403" style="fill:#1c1f42;fill-opacity:1;stroke-width:0.75" d="m 1504.5534,957.26057 c -3.5226,0.007 -7.7029,-1.01788 -9.3735,-2.52979 -4.2909,-3.88319 2.6386,-14.0124 10.9394,-15.99023 1.3034,-0.31057 2.5389,-0.59512 2.7451,-0.63282 1.1168,-0.20445 7.9641,2.3521 9.1333,3.41016 1.7549,1.58822 1.7266,3.35976 -0.1113,6.9624 -1.8815,3.68796 -6.2928,7.34294 -10.147,8.40821 -0.9108,0.25176 -2.0118,0.36969 -3.186,0.37207 z m -1.1572,-3.57422 c 2.1132,-0.0215 4.4115,-0.48892 6.1582,-1.47071 2.6019,-1.46231 5.0431,-4.21025 4.3535,-4.8999 -0.1705,-0.17048 -1.7553,0.20011 -3.5215,0.82324 -4.0501,1.43015 -5.272,1.42884 -5.272,-10e-4 0,-0.62411 1.5188,-1.87259 3.375,-2.77441 1.8563,-0.90183 3.375,-1.90944 3.375,-2.23975 0,-1.17181 -6.418,-0.51193 -9.1743,0.94336 -2.7351,1.4441 -5.0757,4.70087 -5.0757,7.06201 0,1.6672 2.6932,2.58902 5.7818,2.55762 z"/><path id="path397" style="fill:#1c1f42;fill-opacity:1;stroke-width:0.75" d="m 1701.7741,1015.1907 c -1.039,-0.044 -2.1926,-0.3798 -4.4502,-1.0502 -4.7174,-1.4009 -10.8281,-6.6972 -12.4746,-10.8121 -0.6504,-1.6258 -1.4057,-5.13573 -1.6787,-7.80025 l -0.4966,-4.84571 -8.4727,-8.44775 c -8.3104,-8.28686 -8.5518,-8.45855 -12.6928,-9.02051 -7.178,-0.97407 -11.5036,-5.30306 -12.479,-12.49072 -0.5505,-4.05685 -0.7602,-4.34969 -9.5113,-13.2378 -8.7868,-8.92455 -11.0707,-11.79693 -10.1279,-12.73974 1.0299,-1.02995 2.176,-0.13073 11.7583,9.2168 8.4305,8.22387 10.3809,9.76261 12.8877,10.1748 8.0487,1.32343 12.5197,5.3963 14.001,12.75293 0.8664,4.30336 1.2681,4.87732 8.8755,12.68994 l 7.9673,8.18262 5.1796,0.6167 c 7.0935,0.844 12.5969,3.75287 15.7354,8.31885 3.0586,4.44954 4.3846,10.11634 3.3062,14.12114 -0.6617,2.4574 -1.1997,3.0111 -3.5699,3.6694 -1.794,0.4982 -2.7183,0.7458 -3.7573,0.7016 z m 0.665,-3.7749 c 0.9148,-0.013 1.4372,-0.349 2.2413,-1.0766 1.3315,-1.2051 1.5133,-1.9785 1.1279,-4.7901 -0.6045,-4.4101 -3.4033,-8.50688 -7.3653,-10.7856 -3.3955,-1.95304 -8.0786,-3.26459 -8.0786,-2.26172 0,0.32918 1.7334,2.35415 3.8526,4.5 2.4363,2.46702 3.6951,4.31672 3.4218,5.02882 -0.6727,1.7531 -2.9935,0.7145 -6.5859,-2.94581 -1.7879,-1.82174 -3.5099,-3.31202 -3.8262,-3.31202 -1.0001,0 0.249,4.75203 2.1065,8.01413 2.2551,3.9605 5.0918,5.9879 9.9419,7.1075 1.5038,0.3471 2.4526,0.5314 3.164,0.5214 z m -40.3623,-41.91793 c 1.8814,-0.008 2.0376,-0.29684 2.0376,-2.4331 0,-2.46153 -1.541,-5.38783 -3.7163,-7.05762 -1.2756,-0.97922 -3.7837,-1.8006 -3.7837,-1.23926 0,0.19516 0.8259,1.43751 1.8355,2.76123 1.2123,1.58878 1.6182,2.7595 1.1953,3.44385 -0.5093,0.82398 -1.2704,0.5381 -3.7105,-1.39453 -3.3273,-2.63524 -4.0163,-1.88028 -1.6113,1.76806 1.8198,2.7605 4.2206,4.11581 7.3535,4.14991 0.1413,10e-4 0.2745,0.002 0.3999,10e-4 z"/><path id="path391" style="fill:#1c1f42;fill-opacity:1;stroke-width:0.75" d="m 1565.2961,1051.9129 c -1.9305,0.01 -3.3531,-1.2372 -5.0303,-3.9565 -2.0108,-3.2602 -2.277,-4.3549 -2.2764,-9.375 8e-4,-7.661 2.5852,-12.6039 8.8301,-16.8897 4.149,-2.8474 4.4054,-3.216 6.1128,-8.7759 0.9803,-3.1919 2.3786,-8.3308 3.1069,-11.4199 1.3092,-5.55329 1.3059,-5.66392 -0.3003,-9.86131 -0.8935,-2.33484 -1.6245,-5.06985 -1.6245,-6.07764 0,-3.25374 2.2228,-7.31293 6.3164,-11.53418 3.995,-4.11947 4.0043,-4.14145 7.1455,-16.02099 3.069,-11.6062 7.062,-25.22284 8.0567,-27.47901 v 0 c 0.3728,-0.84561 0.5704,-0.70234 0.794,0.57862 0.1636,0.93731 -1.8038,10.81017 -4.3711,21.93896 l -4.667,20.23389 1.4253,3.16553 c 1.6816,3.73309 1.706,9.14267 0.054,12.33691 -0.6351,1.22821 -2.5039,3.45104 -4.1514,4.93945 -4.1871,3.78273 -5.2611,6.16113 -7.9819,17.66607 -1.5279,6.4605 -1.4023,9.792 0.4848,12.8876 2.1972,3.6043 2.7038,10.6846 1.1089,15.4864 -1.5432,4.6459 -4.9869,8.8659 -8.8418,10.8325 -1.6894,0.8619 -3.0311,1.3189 -4.1894,1.3242 z m 0.4555,-3.7851 c 1.0301,0.052 2.2724,-0.6799 4.0884,-2.1768 3.5985,-2.9662 5.9028,-7.4917 6.041,-11.8652 0.103,-3.2616 -1.3812,-8.313 -2.4419,-8.313 -0.2711,0 -1.0865,2.3081 -1.8134,5.1299 -1.3666,5.3049 -2.3051,6.8701 -4.1177,6.8701 -0.7213,0 -0.9225,-0.5363 -0.6343,-1.6875 0.2323,-0.9281 0.9139,-3.7969 1.5147,-6.375 0.6008,-2.5781 0.8114,-4.6875 0.4672,-4.6875 -1.1613,0 -5.4475,4.811 -6.4731,7.2656 -1.5678,3.7523 -1.2993,10.1714 0.5566,13.3169 0.9654,1.6361 1.7824,2.4705 2.8125,2.5225 z m 14.4493,-56.01274 2.3935,-1.50439 c 2.8737,-1.80591 4.6773,-5.90769 3.898,-8.86817 l -0.5523,-2.09473 -1.3813,3.1875 c -0.7877,1.81627 -1.8917,3.1875 -2.565,3.1875 -0.9842,0 -1.0985,-0.62635 -0.6841,-3.75 0.2741,-2.06247 0.2802,-3.75 0.015,-3.75 -0.9976,0 -3.457,4.95641 -3.457,6.97413 0,1.15483 0.522,3.11689 1.1645,4.35937 z"/><path id="path385" style="fill:#1c1f42;fill-opacity:1;stroke-width:0.75" d="m 1722.5866,985.93781 c -3.3635,0.0614 -7.0951,-0.6546 -10.1719,-2.23681 -4.338,-2.2308 -8.8676,-8.16779 -9.5669,-12.54053 -0.5777,-3.61266 -1.169,-4.12297 -11.7978,-10.18359 -8.4918,-4.84217 -8.8105,-4.95411 -14.086,-4.95411 -8.4144,0 -14.0813,-3.1787 -15.9272,-8.93554 -1.1868,-3.70135 -2.372,-4.87603 -8.0918,-8.01123 -11.1706,-6.12287 -20.3306,-11.89936 -20.3306,-12.82178 0,-2.13937 3.7313,-0.67713 15.9068,6.23291 12.482,7.08389 12.7769,7.20401 16.4092,6.72217 7.4213,-0.98449 12.73,1.97101 16.0151,8.91504 1.5933,3.36813 2.6185,4.43404 6.2256,6.47461 2.3749,1.34356 6.7675,3.91632 9.7602,5.71728 l 5.4405,3.27539 7.3549,-0.50683 c 6.5513,-0.45122 7.7529,-0.33173 10.9864,1.09863 3.5817,1.58433 6.6642,4.24658 8.915,7.69775 1.7141,2.62823 2.7421,8.02777 1.9336,10.1543 -0.9353,2.45987 -4.6506,3.82337 -8.9751,3.90234 z m -0.5874,-3.17138 c 2.4656,0.0101 4.5123,-0.77107 5.5591,-2.36866 1.0182,-1.55328 1.0115,-2.03181 -0.064,-4.60693 -1.5112,-3.61679 -3.7417,-6.02252 -7.248,-7.8208 -3.247,-1.66529 -7.9281,-2.39923 -9.9492,-1.56006 -1.2269,0.50946 -0.6952,1.08143 3.5625,3.83496 5.1758,3.34727 5.3614,3.55791 4.4194,5.03906 -0.4014,0.6313 -2.1642,0.0428 -6.1318,-2.04492 -3.0626,-1.61158 -5.703,-2.79608 -5.8667,-2.63232 -0.7534,0.75338 4.0884,7.47894 6.5639,9.11719 3.0279,2.0037 6.361,3.03098 9.1553,3.04248 z m -47.2427,-30.50684 c 1.5808,-0.002 2.8942,-0.18898 3.1377,-0.58301 0.8891,-1.43853 -2.4194,-6.6811 -4.9848,-7.89844 -4.8194,-2.28693 -6.8094,-1.31179 -2.795,1.36963 1.2351,0.825 2.2471,2.09062 2.2471,2.8125 0,1.594 -0.1074,1.59995 -3.4878,0.1875 -1.4809,-0.61875 -2.9961,-1.125 -3.3677,-1.125 -1.2268,0 1.5913,3.50149 3.5288,4.38428 1.214,0.55313 3.6893,0.85554 5.7217,0.85254 z"/><path id="path379" style="fill:#1c1f42;fill-opacity:1;stroke-width:0.75" d="m 1530.4855,1037.3538 c -2.2174,-0.047 -2.6896,-0.474 -3.9389,-2.581 -2.3803,-4.0143 -2.1606,-11.1475 0.5127,-16.5908 2.2919,-4.667 5.6006,-7.4145 11.247,-9.3384 4.392,-1.4966 6.5258,-3.916 12.1861,-13.82375 4.2611,-7.45871 4.502,-8.14737 4.582,-13.12208 0.046,-2.88749 0.3232,-6.3334 0.6152,-7.65673 0.6485,-2.93947 4.3906,-6.3545 8.8169,-8.04493 1.8153,-0.69326 3.7702,-2.00048 4.3433,-2.90478 0.5732,-0.9043 5.6379,-9.23732 11.2558,-18.51856 5.6179,-9.28124 10.7,-17.63438 11.2925,-18.5625 0.5925,-0.92812 1.3436,-1.6875 1.6699,-1.6875 2.64,0 -0.7847,7.08306 -14.1167,29.19727 l -7.0869,11.75684 v 5.53564 c 0,8.56686 -3.3596,13.98223 -9.5141,15.33399 -3.0099,0.66106 -3.6061,1.38905 -9.5215,11.6499 -5.5829,9.68409 -6.1533,11.61269 -4.9819,16.82959 1.7427,7.7615 -1.8869,15.7065 -9.2549,20.2617 -2.5643,1.5854 -4.5823,2.2351 -7.0415,2.2661 -0.3954,0 -0.7482,0.01 -1.065,0 z m 1.1646,-3.3574 c 0.5412,0.015 1.2576,-0.2133 2.4521,-0.6328 5.7888,-2.0329 10.7111,-8.6588 10.7461,-14.4668 0.032,-5.2991 -0.7295,-5.4715 -3.4966,-0.7939 -4.9637,8.3904 -7.5897,7.2903 -3.227,-1.3521 2.0011,-3.9641 2.1065,-4.478 0.917,-4.478 -1.5315,0 -4.4249,1.8592 -6.3823,4.1015 -4.3203,4.9493 -5.6984,12.7504 -2.8697,16.2437 0.7585,0.9367 1.1645,1.3584 1.8604,1.3784 z m 29.0844,-51.00732 c 3.2702,-0.0127 7.3799,-4.45216 7.3799,-8.50634 v -2.31739 l -1.9951,2.80371 c -1.886,2.65069 -4.0049,3.72531 -4.0049,2.03028 0,-0.42575 0.4892,-1.9445 1.0869,-3.375 0.8641,-2.06799 0.8874,-2.60157 0.1158,-2.60157 -3.5309,0 -6.8867,10.55513 -3.7398,11.7627 0.3671,0.14091 0.7557,0.20561 1.1572,0.20361 z"/><path id="path373" style="fill:#1c1f42;fill-opacity:1;stroke-width:0.75" d="m 1503.2028,1014.5242 c -2.6739,0.048 -5.0661,-0.3376 -5.9092,-1.1806 -2.6587,-2.6586 -0.9862,-12.7235 2.9781,-17.92092 2.4829,-3.25519 8.6863,-6.39442 12.6782,-6.41602 4.7706,-0.0258 8.7031,-2.32025 15.5771,-9.08789 7.4058,-7.2912 8.4883,-8.8654 9.145,-13.2876 0.2668,-1.79643 1.0007,-4.26226 1.6304,-5.47998 1.3429,-2.5968 7.3393,-6.62842 9.8584,-6.62842 3.7194,0 7.0869,-2.43265 17.1548,-12.39257 5.7334,-5.67195 13.2626,-12.8102 16.7329,-15.8628 4.3589,-3.83415 6.5508,-5.31005 7.0884,-4.77246 0.5376,0.53758 -4.3513,5.94099 -15.813,17.47559 -11.6928,11.76721 -16.7418,17.35886 -17.1006,18.9375 -1.306,5.74717 -1.9435,7.65642 -3.2768,9.82471 -1.4973,2.43498 -6.9023,5.54003 -9.6446,5.54003 -3.2601,0 -5.8891,1.7435 -12.7661,8.46973 -7.5485,7.38299 -9.9214,10.96891 -9.9214,14.99121 0,6.55009 -4.6305,13.55789 -10.8149,16.36669 -1.9682,0.8939 -4.9228,1.3755 -7.5967,1.4238 z m -0.5054,-3.0849 c 0.7079,0.015 1.574,-0.1005 2.6221,-0.3267 6.0151,-1.2982 10.8476,-5.3236 12.5361,-10.4399 1.7261,-5.23007 0.7352,-5.54351 -3.9902,-1.26418 -4.075,3.69038 -5.7112,4.39428 -6.2578,2.69238 -0.1242,-0.3867 1.2046,-2.25404 2.9531,-4.1499 1.7484,-1.89587 3.6424,-4.00525 4.2085,-4.6875 0.9086,-1.09496 0.8207,-1.23911 -0.75,-1.22461 -2.5873,0.024 -7.4491,2.43819 -9.9477,4.93945 -2.8356,2.83871 -4.2071,6.21126 -4.2071,10.34476 0,2.8627 0.7094,4.0722 2.833,4.1162 z m 39.9976,-41.62063 c 1.0428,-0.006 2.4447,-0.26877 3.7061,-0.77343 3.3552,-1.34257 5.9633,-4.19351 5.9633,-6.52002 0,-1.371 -0.2973,-1.25852 -2.6264,0.99902 -1.9895,1.92824 -2.8375,2.33489 -3.4952,1.67725 -0.6576,-0.65767 -0.3821,-1.60265 1.1368,-3.89795 2.2485,-3.39762 1.2967,-4.09988 -2.0215,-1.48975 -1.4938,1.17505 -4.2437,7.25887 -4.2437,9.38965 0,0.38744 0.5534,0.5885 1.377,0.6123 0.066,0.002 0.1341,0.003 0.2036,0.003 z"/><path id="path367" style="fill:#1c1f42;fill-opacity:1;stroke-width:0.75" d="m 1484.1144,985.64777 c -7.7537,0 -10.0497,-1.21598 -10.3579,-5.4873 -0.7044,-9.76285 11.0132,-19.69338 20.4375,-17.32031 5.4071,1.36151 9.7043,0.38234 17.2866,-3.93897 9.8317,-5.60324 11.594,-7.10104 13.5455,-11.51367 2.8761,-6.50372 6.9621,-8.647 16.0883,-8.43897 4.7243,0.10769 5.1085,-0.0311 12.4468,-4.48388 4.1648,-2.52713 13.1085,-7.47949 19.875,-11.00537 6.7664,-3.52588 12.6197,-6.31076 13.0064,-6.18897 2.5693,0.80913 1.6739,1.39326 -33.1348,21.61084 -6.0188,3.49584 -7.7905,4.90076 -8.1826,6.48926 -1.7287,7.00326 -7.4482,10.8269 -15.7676,10.54102 -4.7836,-0.16438 -5.5719,0.0496 -11.1328,3.01757 -11.6997,6.24439 -13.8858,8.11615 -16.1939,13.86768 -2.3566,5.87226 -4.1371,8.04069 -8.9165,10.86035 -2.844,1.67785 -4.26,1.99072 -9,1.99072 z m -0.2094,-3.4746 c 0.2057,0.004 0.4122,0.004 0.6181,0 5.8837,-0.12832 11.7508,-3.7284 13.7754,-9.0879 1.0191,-2.69764 0.4335,-2.6447 -5.8828,0.53614 -4.3374,2.18422 -5.2318,2.41365 -5.606,1.43847 -0.2449,-0.63821 -0.4453,-1.26422 -0.4453,-1.3916 0,-0.12738 2.1878,-1.53399 4.8618,-3.12597 2.6741,-1.59201 4.865,-3.10789 4.875,-3.36915 0.01,-0.26123 -0.7462,-0.67852 -1.6743,-0.92724 -6.7145,-1.79943 -15.3578,4.21273 -16.7007,11.61767 -0.4637,2.55675 -0.3496,2.76607 1.9351,3.5625 1.3704,0.47774 2.8031,0.7183 4.2437,0.74708 z m 48,-29.47413 c 2.1062,-0.0251 4.2922,-1.03066 6.2255,-2.9209 2.6986,-2.63838 1.9777,-3.43655 -1.4868,-1.64501 -4.0121,2.07472 -5.4216,-0.56745 -1.5293,-2.8667 1.2375,-0.73101 2.25,-1.64695 2.25,-2.03614 0,-0.38917 -0.2531,-0.67733 -0.5625,-0.64013 -6.6285,0.79709 -11.9945,7.90253 -7.3125,9.68261 0.7794,0.29633 1.5914,0.43627 2.4156,0.42627 z"/><path id="path361" style="fill:#1c1f42;fill-opacity:1;stroke-width:0.75" d="m 1732.757,953.1634 c -7.4808,0.0432 -11.7626,-2.51128 -17.1182,-10.2085 -1.8669,-2.68326 -5.7541,-4.5035 -14.4257,-6.75732 -8.6186,-2.24005 -11.9191,-2.38516 -16.1118,-0.70752 -6.1806,2.47301 -12.2952,0.48788 -16.2012,-5.26026 -2.0246,-2.97958 -2.702,-3.25897 -17.5357,-7.23339 -13.2347,-3.54603 -16.81,-4.86561 -16.1352,-5.95752 0.8048,-1.30223 4.1533,-0.86655 14.2676,1.85888 5.3584,1.44391 11.1588,3.00147 12.8906,3.46143 3.539,0.93997 6.4992,0.63415 11.5649,-1.19678 5.1274,-1.85319 8.5288,-0.69613 14.3716,4.89111 4.8527,4.64045 5.6072,4.9862 18.1655,8.30567 6.9124,1.82712 7.97,1.77658 12.5874,-0.60205 5.696,-2.93419 12.873,-2.8941 18.3531,0.10254 6.1126,3.34245 10.012,9.38943 8.5444,13.24951 -0.4036,1.06153 -2.3247,2.72218 -4.5469,3.93164 -3.0525,1.66136 -4.8448,2.10046 -8.6704,2.12256 z m 1.1294,-3.50684 c 2.4933,0.006 4.8173,-0.43339 6.1992,-1.33886 3.9836,-2.61016 1.4475,-8.62759 -4.938,-11.71875 -3.9366,-1.9057 -9.7256,-2.02935 -12.9082,-0.27686 l -2.25,1.23926 3.75,1.01513 c 5.3686,1.45382 7.1068,2.27506 7.6143,3.59766 0.7515,1.95829 -0.2089,2.0789 -5.7393,0.72363 -2.9266,-0.71719 -5.4779,-1.14611 -5.6704,-0.95361 -0.727,0.72705 2.934,4.43425 5.9282,6.00293 2.1437,1.12299 5.1885,1.70247 8.0142,1.70947 z m -53.165,-16.61865 c 1.1416,0.0141 2.2602,-0.1706 3.2402,-0.58008 1.4591,-0.60966 2.6467,-1.5478 2.6367,-2.08447 -0.023,-1.34707 -2.2739,-4.00387 -4.2466,-5.0127 -1.9746,-1.00985 -8.0038,-1.1256 -7.396,-0.14209 0.2363,0.38241 1.6244,1.08972 3.085,1.57178 1.838,0.60655 2.5775,1.25804 2.3994,2.1167 -0.2763,1.33171 -0.9881,1.40301 -5.0757,0.50537 -2.5728,-0.56499 -2.599,-0.54831 -1.3007,0.90088 1.5203,1.69716 4.146,2.69351 6.6577,2.72461 z"/><path id="path357" style="fill:#1c1f42;fill-opacity:1;stroke-width:0.75" d="m 1706.6638,930.49641 c -3.8925,-0.0505 -7.7232,-1.70116 -10.8589,-4.83692 -5.1059,-5.10584 -4.3437,-7.50679 3.5625,-11.22217 4.376,-2.05641 7.5899,-2.06807 12.372,-0.0454 2.7133,1.14763 6.8751,5.16183 7.5469,7.27881 0.6798,2.14176 -1.683,5.11886 -5.6865,7.16455 -2.2421,1.14567 -4.6006,1.69142 -6.936,1.66114 z m 0.083,-3.7793 c 2.7979,0.007 5.6998,-0.69412 7.5323,-2.10352 l 1.7885,-1.37548 -1.7211,-2.32911 c -0.947,-1.28089 -2.8159,-2.84896 -4.1529,-3.4834 -2.7374,-1.29897 -5.7196,-1.39425 -8.7671,-0.28125 -2.31,0.84369 -2.761,2.12582 -0.75,2.13282 2.77,0.009 6.9375,1.60408 6.9375,2.65576 0,0.83625 -1.086,1.08984 -4.667,1.08984 h -4.6669 l 1.5571,1.55713 c 1.4171,1.41716 4.1119,2.13021 6.9096,2.13721 z"/><path id="path351" style="fill:#1c1f42;fill-opacity:1;stroke-width:0.75" d="m 1472.4601,953.02277 c -5.0989,0 -8.2773,-1.10549 -11.4082,-3.96826 -5.0323,-4.60143 2.3705,-14.99394 12.1231,-17.01855 4.8895,-1.01505 8.3038,-0.51023 14.2573,2.10644 l 4.4429,1.95264 9.3545,-2.42871 c 11.6222,-3.01674 13.7789,-4.03015 16.1294,-7.58203 3.3138,-5.00745 10.3742,-6.75233 16.6728,-4.12061 3.6044,1.506 5.5371,1.25003 19.8325,-2.62939 6.3938,-1.7351 15.3375,-3.9421 19.875,-4.9043 8.9301,-1.89368 9.75,-1.9269 9.75,-0.39258 0,0.61941 -1.8991,1.50589 -4.875,2.27637 -2.6812,0.69419 -11.1187,2.97251 -18.75,5.0625 -7.6312,2.08998 -15.3453,4.18144 -17.1416,4.64795 -2.3754,0.61691 -4.213,1.87701 -6.7412,4.62158 -5.7645,6.25785 -9.0307,7.11606 -16.8515,4.42529 l -4.2203,-1.45166 -9.624,2.53858 c -12.7999,3.37652 -13.0624,3.49564 -15.3721,6.98584 -4.5298,6.84518 -9.8895,9.8789 -17.4536,9.8789 z m 0.7134,-3.26513 c 3.6963,-0.002 6.7695,-1.46389 10.1074,-4.64942 3.9292,-3.74978 3.2281,-4.21355 -3.3603,-2.22363 -3.5582,1.0747 -6.3062,0.93485 -6.3062,-0.3208 0,-1.14949 1.8856,-2.13314 6.6109,-3.44824 4.2565,-1.18462 4.62,-1.43414 3.5859,-2.46826 -1.8095,-1.8095 -9.2068,-1.96311 -12.8218,-0.26661 -2.937,1.37837 -8.625,6.9134 -8.625,8.39356 0,1.64189 3.071,3.65678 6.8716,4.50732 1.4036,0.3141 2.7054,0.47662 3.9375,0.47608 z m 51.3809,-17.03467 c 1.8797,0.0225 3.9022,-0.36233 5.3818,-1.23633 2.8732,-1.69723 2.763,-2.53493 -0.2593,-1.97168 -3.7975,0.70772 -3.8336,0.70264 -4.1118,-0.55371 -0.1791,-0.80888 0.7623,-1.59193 2.9561,-2.45801 2.5357,-1.00109 2.9796,-1.4229 2.0932,-1.98926 -0.6187,-0.39535 -1.6312,-0.71039 -2.25,-0.70019 -2.5472,0.042 -9,4.66106 -9,6.44238 0,1.52886 2.4427,2.434 5.19,2.4668 z"/><path id="path347" style="fill:#1c1f42;fill-opacity:1;stroke-width:0.75" d="m 1497.2878,930.44367 c -1.9898,0.005 -3.3537,-0.44443 -5.8975,-1.68896 -4.8557,-2.37568 -6.3079,-4.78425 -4.7226,-7.83106 1.6711,-3.21174 4.5805,-5.5054 8.8579,-6.98291 5.4106,-1.8689 6.0107,-1.80409 11.9165,1.29932 4.2279,2.22168 5.1723,3.05091 5.1723,4.53808 0,5.09475 -5.8073,9.77339 -13.0605,10.52198 -0.8691,0.0897 -1.6029,0.14201 -2.2661,0.14355 z m 1.2466,-3.74853 c 2.7758,-0.003 5.4688,-0.72715 6.81,-2.06836 l 1.604,-1.60401 h -4.248 c -6.6983,0 -6.7592,-2.35385 -0.086,-3.35449 3.6669,-0.54988 4.1799,-1.57995 1.3272,-2.66455 -4.1788,-1.58877 -9.1418,-0.23269 -12.5317,3.42334 -2.3577,2.54274 -2.0316,3.5355 1.7153,5.2251 1.5716,0.70872 3.5103,1.04497 5.4097,1.04297 z"/><path style="fill:#1c1f42;fill-opacity:1;stroke-width:0.75" d="m 1590.9894,906.52275 c -0.7192,1.16377 0.294,2.24927 2.1068,2.25703 2.6182,0.0113 9.0477,4.10323 12.3606,7.86687 5.4633,6.20676 6.777,14.0241 3.8643,22.99678 -3.2525,10.01924 -3.2521,9.66535 -0.01,5.96814 5.4834,-6.24548 7.0566,-17.65833 3.4899,-25.31849 -3.6657,-7.87277 -11.9796,-14.49934 -18.2088,-14.51329 -1.7273,-0.004 -3.3503,0.33046 -3.6053,0.74296 z" id="path345"/><path id="path339" style="fill:#1c1f42;fill-opacity:1;stroke-width:0.75" d="m 1736.2507,918.45246 c -4.9936,0.20066 -10.2214,-1.50424 -14.6426,-5.15771 -4.2759,-3.53334 -6.8673,-4.0409 -18.7075,-3.66504 -8.3596,0.26537 -8.5822,0.31866 -12.586,3.01025 -6.7955,4.56841 -11.5814,4.47727 -18.4321,-0.35156 l -3.2534,-2.29395 -16.8823,-0.33252 c -13.5211,-0.26643 -16.8824,-0.53409 -16.8824,-1.34619 0,-1.5368 2.1014,-1.76232 18.375,-1.97314 l 15,-0.19483 4.125,-2.59131 c 3.5838,-2.25115 4.7671,-2.5955 9.0147,-2.625 4.3376,-0.0301 5.3502,0.26233 8.9824,2.59131 l 4.0942,2.625 h 11.6998 11.7011 l 2.8374,-2.25 c 4.7266,-3.7468 5.5397,-4.25615 8.4727,-5.30273 6.2656,-2.23572 13.7892,-0.62224 18.9009,4.05176 4.2235,3.8618 4.5394,5.97722 1.4223,9.52734 -3.4868,3.97125 -8.2456,6.07766 -13.2392,6.27832 z m -0.8101,-3.19336 c 3.4704,-0.0263 6.5678,-1.43931 9.3062,-4.24365 l 2.7905,-2.85791 -1.3989,-1.93067 c -0.7692,-1.06246 -2.7717,-2.61284 -4.4488,-3.44384 -5.1303,-2.54199 -12.76,-1.66314 -16.0591,1.84863 l -1.7768,1.89111 h 6.0498 c 5.7424,0 6.9609,0.45608 6.9609,2.60449 0,0.12742 -2.5092,0.35788 -5.5752,0.5127 -3.066,0.15483 -5.8448,0.55233 -6.1757,0.8833 -0.9552,0.95517 2.7929,3.34851 6.7324,4.29932 1.2402,0.29931 2.4379,0.44552 3.5947,0.43652 z m -53.6221,-2.78174 c 5.0762,0.009 9.6348,-4.05621 5.3789,-7.03711 -1.933,-1.35396 -6.8712,-1.45967 -9.583,-0.20508 -1.7613,0.81486 -1.6589,0.8833 1.6875,1.11915 2.943,0.20742 3.5625,0.50426 3.5625,1.70947 0,1.07057 -0.549,1.48191 -2.0625,1.54541 -1.1344,0.0476 -2.4,0.16494 -2.8125,0.26074 -0.4125,0.0958 -1.0875,0.23754 -1.5,0.31494 -0.4125,0.0774 0.094,0.62337 1.125,1.21289 1.3203,0.75471 2.7828,1.07659 4.2041,1.07959 z"/><path id="path333" style="fill:#1c1f42;fill-opacity:1;stroke-width:0.75" d="m 1607.3576,974.39777 c -4.2665,0 -5.8129,-0.32113 -7.4546,-1.54687 -6.31,-4.71107 -7.0895,-10.63847 -2.8052,-21.32813 2.5982,-6.48279 2.8581,-7.7672 2.8741,-14.25 0.024,-9.37246 -1.9933,-13.96685 -9.129,-20.79345 -3.7186,-3.55753 -4.7598,-4.97403 -4.122,-5.61182 2.0567,-2.05672 10.2639,4.8809 13.5469,11.45068 4.8295,9.66504 4.9257,18.15141 0.3325,29.42286 -3.6883,9.05056 -3.7742,13.0892 -0.3531,16.51025 2.2086,2.20866 2.7817,2.39648 7.3228,2.39648 4.2729,0 5.1169,-0.2354 6.3604,-1.77099 1.8469,-2.28099 1.9144,-4.20765 0.1215,-3.48487 -3.3754,1.36079 -6.9761,1.32853 -8.5283,-0.0762 -2.9116,-2.63502 -1.6277,-5.79678 7.166,-17.6499 10.3185,-13.90808 14.6263,-22.46409 15.2124,-30.21387 0.5264,-6.9605 -0.8833,-11.20982 -5.3086,-16.01074 -5.6086,-6.08465 -12.7548,-8.38949 -21.4585,-6.92139 -6.2822,1.05963 -10.4342,3.60996 -15.4658,9.49951 -1.9728,2.30911 -4.694,4.65981 -6.0469,5.2251 -1.8787,0.78496 -7.2813,1.02832 -22.8662,1.02832 h -20.4067 l -4.084,2.8125 c -3.5329,2.43317 -4.6523,2.8125 -8.3042,2.8125 -3.5877,0 -4.7413,-0.37458 -7.686,-2.49463 -4.4417,-3.19779 -7.3843,-3.84079 -17.6748,-3.86279 -9.5097,-0.0203 -11.5356,0.52859 -15.2359,4.12061 -6.7423,6.54502 -19.2373,6.47856 -26.08,-0.1377 -3.8577,-3.73007 -4.2901,-5.24212 -2.3204,-8.1167 2.078,-3.03261 6.6968,-6.13657 10.7681,-7.23486 5.9997,-1.61849 13.574,0.53374 19.3887,5.50928 l 2.8828,2.46679 h 11.7422 11.7436 l 3.75,-2.625 c 3.3711,-2.35974 4.2536,-2.625 8.729,-2.625 4.495,0 5.3325,0.25487 8.625,2.625 l 3.646,2.625 17.25,0.23877 c 9.4875,0.13155 19.0844,0.0149 21.3267,-0.25928 3.7666,-0.46014 4.3867,-0.83291 8.1518,-4.90722 4.2908,-4.6431 8.963,-7.79464 13.9981,-9.44238 1.8547,-0.60698 5.6336,-0.90586 9.7734,-0.77491 6.0175,0.19035 7.2651,0.48808 11.4947,2.75098 13.203,7.06396 16.9675,20.88905 9.9111,36.39404 -2.1602,4.74645 -7.6572,13.07793 -15.5391,23.55176 -2.6082,3.46603 -4.7417,6.92541 -4.7417,7.6875 0,2.3859 3.1946,1.60496 7.9307,-1.93799 5.8611,-4.38451 6.5554,-3.39625 3.7251,5.30127 -2.6722,8.21139 -4.4809,9.64746 -12.1626,9.64746 z m -136.8384,-59.38623 c 3.3773,-0.0547 6.7073,-1.14155 9.1685,-3.24609 l 2.5517,-2.18262 -6.6181,-0.0293 c -5.8888,-0.0271 -6.5893,-0.17528 -6.3662,-1.34326 0.2087,-1.09304 1.23,-1.34902 6.1069,-1.53222 6.6135,-0.24844 7.0797,-0.99495 2.3188,-3.70606 -4.5424,-2.58668 -10.9727,-2.3649 -15.5449,0.53467 -4.5066,2.85804 -4.8581,5.67075 -1.0693,8.56055 2.6506,2.02173 6.0753,2.99903 9.4526,2.94433 z m 53.124,-2.53418 c 1.1754,-0.002 2.4025,-0.25034 3.709,-0.74707 1.6699,-0.6349 1.8676,-0.93297 0.9873,-1.48974 -0.6048,-0.3825 -2.197,-0.70006 -3.5376,-0.70606 -1.9337,-0.009 -2.4375,-0.32177 -2.4375,-1.51172 0,-1.28366 0.5005,-1.5 3.4673,-1.5 2.9966,0 3.3397,-0.1526 2.5327,-1.125 -1.0274,-1.23797 -6.7737,-1.47444 -9.4585,-0.38965 -3.2231,1.30236 -3.0321,4.20836 0.4102,6.2417 1.3915,0.82199 2.816,1.22954 4.3271,1.22754 z"/></g><path id="path283" style="fill:#1c1f42;fill-opacity:1;stroke-width:0.75" d="m -100.93165,764.39777 v -30.75 h -27.7514 v -26.625 h 27.7514 v -28.875 l 14.437495,-37.125 14.4375,35.99121 v 30.00879 h 160.5 V 557.88116 l 14.248605,-38.44336 14.25,38.44336 v 149.14161 h 160.5 v -30.00879 l 14.4375,-35.99121 14.4375,37.125 v 28.875 h 27.7514 v 26.625 h -27.7514 v 30.75 h -28.875 v -30.75 h -160.5 v 30.75 H 88.443345 v -30.75 h -160.5 v 30.75 z" sodipodi:nodetypes="cccccccccccccccccccccccccccccccc"/><g id="g7059" style="fill:#1c1f42;fill-opacity:1" transform="translate(-1499.9119)"><path id="path329" style="fill:#1c1f42;fill-opacity:1;stroke-width:0.75" d="m 1346.4894,1099.2728 c -4.3801,0 -5.9207,-0.8105 -10.1704,-5.3482 -3.345,-3.5714 -3.5183,-3.6521 -7.875,-3.6621 -8.9994,-0.021 -9.9426,-1.7301 -4.4824,-8.1269 1.8413,-2.1572 3.7427,-5.1739 4.2246,-6.7046 1.2307,-3.909 2.1308,-44.5235 1.4824,-66.9082 -0.5989,-20.67427 -0.9238,-21.98589 -6.8657,-27.81008 -2.965,-2.90635 -3.7265,-5.35701 -2.001,-6.43799 0.5156,-0.32302 2.4519,-0.76595 4.3037,-0.98291 2.6769,-0.31361 3.5348,-0.77833 4.1822,-2.26905 0.5655,-1.30236 0.6817,-11.15167 0.3808,-32.25 l -0.4336,-30.375 -1.9804,-3.75 c -1.0896,-2.0625 -3.2182,-4.87321 -4.73,-6.24609 -4.8963,-4.44649 -3.0336,-6.65097 5.7495,-6.8042 4.0856,-0.0713 4.496,-0.26341 8.855,-4.15283 2.5139,-2.2431 5.3105,-4.22173 6.2153,-4.39746 5.4433,-1.05705 8.7493,0.19125 13.2656,5.00976 3.148,3.35873 3.3897,3.46773 7.8135,3.54053 2.511,0.0411 5.4097,0.31793 6.4409,0.61523 2.8688,0.8271 2.2713,3.86788 -1.415,7.19825 -1.8746,1.69364 -3.6661,4.34251 -4.7212,6.98291 -1.6513,4.13271 -1.7071,5.12282 -1.9585,34.68164 -0.2207,25.94733 -0.098,30.5615 0.8335,31.33447 0.7668,0.63641 3.1211,0.83046 10.4209,0.69727 7.2998,0.13319 9.6526,-0.0609 10.4194,-0.69727 0.9314,-0.77297 1.0542,-5.38714 0.8335,-31.33447 -0.2514,-29.55882 -0.3072,-30.54893 -1.9585,-34.68164 -1.0551,-2.6404 -2.8466,-5.28927 -4.7212,-6.98291 -3.6863,-3.33037 -4.2838,-6.37115 -1.415,-7.19825 1.0312,-0.2973 3.9299,-0.57413 6.4409,-0.61523 4.4238,-0.0728 4.6655,-0.1818 7.8135,-3.54053 4.5163,-4.81851 7.8223,-6.06681 13.2656,-5.00976 0.9048,0.17573 3.7015,2.15436 6.2154,4.39746 4.3589,3.88942 4.7693,4.08151 8.8549,4.15283 8.7831,0.15323 10.6458,2.35771 5.7495,6.8042 -1.5118,1.37288 -3.6403,4.18359 -4.7299,6.24609 l -1.9805,3.75 -0.4336,30.375 c -0.3009,21.09833 -0.1846,30.94764 0.3809,32.25 0.6474,1.49072 1.5052,1.95544 4.1821,2.26905 1.8518,0.21696 3.7881,0.65989 4.3037,0.98291 1.7255,1.08098 0.964,3.53164 -2.001,6.43799 -5.9419,5.82419 -6.2668,7.13581 -6.8657,27.81008 -0.6484,22.3847 0.2517,62.9992 1.4824,66.9082 0.4819,1.5307 2.3833,4.5474 4.2246,6.7046 5.4602,6.3968 4.517,8.1062 -4.4824,8.1269 -4.3567,0.01 -4.53,0.091 -7.875,3.6621 -4.2497,4.5377 -5.7903,5.3482 -10.1704,5.3482 -4.4192,0 -6.024,-0.8354 -9.8408,-5.1182 l -3.0923,-3.4673 -5.9077,-0.2885 c -8.4288,-0.4109 -9.7983,-2.0064 -5.2647,-6.1319 3.8536,-3.5067 6.4067,-8.853 7.2202,-15.1186 0.3928,-3.0251 0.7242,-17.8789 0.7369,-33.0088 0.02,-24.0286 -0.1264,-27.658 -1.1558,-28.6875 -0.7729,-0.7729 -5.468,-1.2055 -10.229,-1.2554 -4.761,0.05 -9.4576,0.4825 -10.2305,1.2554 -1.0294,1.0295 -1.1757,4.6589 -1.1557,28.6875 0.013,15.1299 0.344,29.9837 0.7368,33.0088 0.8135,6.2656 3.3666,11.6119 7.2202,15.1186 4.5336,4.1255 3.1641,5.721 -5.2647,6.1319 l -5.9077,0.2885 -3.0923,3.4673 c -3.8167,4.2828 -5.4216,5.1182 -9.8408,5.1182 z"/><path id="path718" style="fill:#1c1f42;fill-opacity:1;stroke-width:0.75" d="m 1858.7198,882.69767 c 4.3801,0 5.9207,0.8105 10.1704,5.3482 3.345,3.5714 3.5183,3.6521 7.875,3.6621 8.9994,0.021 9.9426,1.7301 4.4824,8.1269 -1.8413,2.1572 -3.7427,5.1739 -4.2246,6.7046 -1.2307,3.909 -2.1308,44.5235 -1.4824,66.9082 0.5989,20.6742 0.9238,21.9859 6.8657,27.81013 2.965,2.9063 3.7265,5.357 2.001,6.4379 -0.5156,0.3231 -2.4519,0.766 -4.3037,0.983 -2.6769,0.3136 -3.5348,0.7783 -4.1822,2.269 -0.5655,1.3024 -0.6817,11.1517 -0.3808,32.25 l 0.4336,30.375 1.9804,3.75 c 1.0896,2.0625 3.2182,4.8732 4.73,6.2461 4.8963,4.4465 3.0336,6.651 -5.7495,6.8042 -4.0856,0.071 -4.496,0.2634 -8.855,4.1528 -2.5139,2.2431 -5.3105,4.2218 -6.2153,4.3975 -5.4433,1.057 -8.7493,-0.1913 -13.2656,-5.0098 -3.148,-3.3587 -3.3897,-3.4677 -7.8135,-3.5405 -2.511,-0.041 -5.4097,-0.3179 -6.4409,-0.6152 -2.8688,-0.8271 -2.2713,-3.8679 1.415,-7.1983 1.8746,-1.6936 3.6661,-4.3425 4.7212,-6.9829 1.6513,-4.1327 1.7071,-5.1228 1.9585,-34.6816 0.2207,-25.9474 0.098,-30.5615 -0.8335,-31.3345 -0.7668,-0.6364 -3.1211,-0.8305 -10.4209,-0.6973 -7.2998,-0.1332 -9.6526,0.061 -10.4194,0.6973 -0.9314,0.773 -1.0542,5.3871 -0.8335,31.3345 0.2514,29.5588 0.3072,30.5489 1.9585,34.6816 1.0551,2.6404 2.8466,5.2893 4.7212,6.9829 3.6863,3.3304 4.2838,6.3712 1.415,7.1983 -1.0312,0.2973 -3.9299,0.5741 -6.4409,0.6152 -4.4238,0.073 -4.6655,0.1818 -7.8135,3.5405 -4.5163,4.8185 -7.8223,6.0668 -13.2656,5.0098 -0.9048,-0.1757 -3.7015,-2.1544 -6.2154,-4.3975 -4.3589,-3.8894 -4.7693,-4.0815 -8.8549,-4.1528 -8.7831,-0.1532 -10.6458,-2.3577 -5.7495,-6.8042 1.5118,-1.3729 3.6403,-4.1836 4.7299,-6.2461 l 1.9805,-3.75 0.4336,-30.375 c 0.3009,-21.0983 0.1846,-30.9476 -0.3809,-32.25 -0.6474,-1.4907 -1.5052,-1.9554 -4.1821,-2.269 -1.8518,-0.217 -3.7881,-0.6599 -4.3037,-0.983 -1.7255,-1.0809 -0.964,-3.5316 2.001,-6.4379 5.0307,-4.93106 6.0351,-6.6275 6.5883,-19.57867 0.1002,-2.34587 -0.3581,-5.32538 4.0986,-5.58602 16.9211,-0.52488 48.9073,-0.2026 50.7633,-1.57464 1.0294,-1.0295 1.1757,-4.6589 1.1557,-28.6875 -0.013,-15.1299 -0.344,-29.9837 -0.7368,-33.0088 -0.8135,-6.2656 -3.3666,-11.6119 -7.2202,-15.1186 -4.5336,-4.1255 -3.1641,-5.721 5.2647,-6.1319 l 5.9077,-0.2885 3.0923,-3.4673 c 3.8167,-4.2828 5.4216,-5.1182 9.8408,-5.1182 z" sodipodi:nodetypes="sssssssssssccssssssssssscssssscsssssccssssssccssssccs"/></g><path style="fill:#1c1f42;fill-opacity:1;stroke:none;stroke-width:0.075;stroke-dasharray:none" d="m -54.816455,774.8978 10.2031,15.4875 -22.0269,12.51731 -6.0455,8.14774 21.9316,-9.0676 -15.0119,18.09208 13.9511,-1.77108 -16.6581,9.6895 -12.4986,-11.65795 -33.174095,-28.67775 4.8015,6.08917 22.116495,25.52048 -20.572995,11.44526 -14.9565,-12.18815 4.8243,-19.77798 -12.7751,18.52647 -20.2022,-19.6015 10.4339,18.24521 -39.951,-7.86517 53.8361,13.99589 9.8753,8.86282 10.4103,8.86275 22.603395,-17.50485 13.0868,15.24503 42.4434,-29.73327 28.99160044,30.64024 7.09419996,-7.19857 7.3690996,-7.19858 9.4519,7.3263 15.4581,11.4237 27.2472,-12.61753 6.2749,14.30473 5.8101,12.56212 20.553805,17.02781 15.7597,-2.17158 10.1211,-13.3395 3.3196,3.69652 3.2905,3.39203 37.2265,-51.45601 19.0207,12.24913 7.4424,-10.14267 5.3705,-6.82253 4.8001,8.00783 4.494,7.92412 20.7229,-21.16485 3.3982,-3.67537 42.5805,30.4164 12.7861,-14.51753 24.5954,13.71983 18.9046,-12.74235 51.9011,-14.87452 -38.564,5.12949 31.3339,-50.31333 -41.3151,52.78276 -11.9804,-17.5185 4.6465,19.23084 -15.1464,12.35724 -22.4933,-11.27043 18.0715,-23.72972 -34.5598,31.65587 -17.269,-11.44665 14.8022,3.79425 -15.9701,-22.03005 23.2501,13.76047 -14.123,-16.84342 -6.8738,-7.65616 -0.1551,-6.16427 4.1984,-11.74228 -15.4158,17.92359 -25.1153,-5.95305 -10.4803,-11.28003 9.542,14.2793 12.8554,5.11916 10.8879,9.95349 9.9957,9.53708 -11.088,-1.47678 -13.212,-10.18887 -1.2115,-0.78428 -6.425,14.01059 -12.5516,11.74779 -4.2238,-12.09533 -3.9858,-11.85735 -7.3429,11.02125 -7.7878,11.0202 -12.4449,-29.3916 -0.75,15.42338 -10.875,-11.36063 5.0149,14.565 -6.0231,-4.51464 -12.6446,-18.47046 -12.3759,-18 7.305,18.375 9.5198,25.2582 2.6079,8.00828 -5.0898,8.11672 -17.8208,28.2198 -2.2985,3.60308 -3.5203,-3.97808 -3.8259,-3.603 -4.2729,9 -4.9067,9.97567 -7.8371,0.14933 4.7649,-8.8125 4.4736,-8.8125 -4.4931,2.68785 -4.4771,2.41238 13.0111,-19.72523 4.553,-6 -9.1934,-16.21965 -6.553,-11.71957 3.6979,-12.84293 3.4726,-12.84285 -8.2132,13.10715 c -3.5194,4.87999 -8.5193,12.09454 -7.4525,14.8125 l 9.0162,21.58035 -13.474705,-18 4.739605,30.75 -9.745305,-26.30833 -30.4458,-10.20444 2.9164,5.10682 22.0452,36.40635 7.0256,13.46903 -10.6302,-14.42738 -20.0014,-25.60455 -9.4995,-10.6875 1.5842,10.66725 1.5671,10.75995 -16.4253,10.80205 -11.4278,-7.14302 -9.7079,-6.60083 7.8329,-7.49662 c 9.0443,-8.04168 17.0204,-16.08335 28.083,-24.12503 l 8.6861,-5.77871 -6.8656,-1.32356 c -6.324,-1.13322 -30.3929,20.81108 -46.5523,35.8722 l -10.21699956,9.11632 -7.07330004,-7.35867 11.2515,0.51043 3.7006,-37.92936 -10.9401,29.40225 -11.4242004,-0.0765 -3.8753,-3.87532 -3.8754,-3.87533 2.2965,-10.97208 -17.4664,13.39498 -7.3707,-0.22045 8.6127,-8.658 14.9878,-13.25993 16.4131004,-11.62878 8.8187,-14.22404 -10.297,11.54776 -32.1516004,15.22299 -13.6068,-12.9375 -12.7577,-12.9375 z" id="path7190" sodipodi:nodetypes="ccccccccccccccccccccccccccccccccccccccccccccccccccccccccccccccccccccccccccccccccccccccccccccccccccccccccccccccccccccccccccccccccccccccccccccccccccccccccccc"/><g id="g8488" style="fill:#1c1f42;fill-opacity:1" transform="translate(-1497.671)"><path id="path285" style="fill:#1c1f42;fill-opacity:1;stroke-width:0.75" d="m 1537.7394,670.36945 -2.354,-2.48584 c -2.8555,-3.01597 -4.771,-6.66279 -4.771,-9.08057 0,-1.44682 -0.5877,-1.96865 -3.0424,-2.7041 -4.1783,-1.2519 -6.1771,-3.37159 -5.6104,-5.95166 0.3672,-1.67197 -0.079,-2.54045 -2.5415,-4.94531 l -2.9868,-2.91651 -14.0962,0.50244 c -7.7534,0.27645 -18.4852,1.00899 -23.8477,1.62744 -5.3625,0.61852 -15.9937,1.33853 -23.625,1.59961 -13.8197,0.47287 -13.8899,0.46749 -17.625,-1.43261 -8.4992,-4.32368 -13.8879,-10.49017 -13.8589,-15.85987 0.021,-3.83668 2.2868,-8.95876 4.648,-10.50586 0.9842,-0.64492 2.8362,-1.38172 4.1162,-1.63769 2.3069,-0.4614 2.3324,-0.51683 2.8477,-6.33838 0.5959,-6.73161 -0.2867,-10.49656 -3.1905,-13.60986 l -1.8823,-2.01856 0.5156,-14.48145 c 0.2835,-7.96521 0.7016,-15.57979 0.9302,-16.92041 l 0.416,-2.4375 h 4.7915 c 3.6838,0 4.7915,0.2515 4.7915,1.08692 0,2.43 2.3629,18.99456 3.107,21.78223 l 0.7983,2.99414 5.02,-12.60498 c 2.7607,-6.93315 5.4686,-12.88385 6.0176,-13.22315 0.9081,-0.5613 5.8201,-0.33262 8.1196,0.37793 1.4073,0.43492 1.1606,3.0147 -1.3125,13.7168 -1.2375,5.35528 -2.25,10.2469 -2.25,10.8706 0,0.6336 1.1735,1.5211 2.6587,2.01123 1.4619,0.48247 4.0775,1.95878 5.8125,3.28125 2.4368,1.8575 3.5804,2.28549 5.0288,1.88086 1.0313,-0.28815 6.7296,-0.55792 12.6636,-0.59912 l 10.79,-0.0747 -0.4995,-9.5625 c -0.2744,-5.25936 -0.7042,-12.36219 -0.9565,-15.78369 l -0.46,-6.22119 5.8931,0.22119 c 6.8511,0.25687 5.9335,-1.216 8.5547,13.72119 2.1139,12.04603 3.7044,17.625 5.0259,17.625 0.5849,0 2.0788,0.52455 3.3193,1.16602 2.1084,1.09028 2.7009,1.03787 9.104,-0.8042 3.7672,-1.08383 7.7716,-2.44779 8.8989,-3.03076 1.1274,-0.58298 4.5036,-4.13092 7.5015,-7.88525 4.7927,-6.00187 5.6814,-6.78007 7.3696,-6.44092 3.3418,0.67125 6.0701,1.93789 6.4805,3.00732 0.479,1.24822 -4.9769,13.29398 -7.5483,16.66553 -1.0099,1.32397 -4.97,4.36155 -8.7994,6.75 -3.8294,2.38845 -7.0847,4.43208 -7.2348,4.54248 -0.2111,0.15516 2.0286,4.23332 3.1582,5.82568 a 6.515151,11.37953 67.395818 0 1 8.9941,-4.90136 l 2.0405,3.97998 1.2232,-0.58155 c 0.676,-0.32132 1.479,-0.0359 1.8003,0.64014 l 0.3794,0.79688 c 0.3214,0.67598 0.036,1.47897 -0.6402,1.80029 l -1.1264,0.53613 1.9453,3.79248 a 6.515151,11.37953 67.395818 0 1 -10.0005,3.48194 c -0.4771,0.48953 -0.2432,1.41633 0.4351,3.47168 l 0.8042,2.4375 h 8.5942 c 9.9609,0 10.9577,0.41564 14.6059,6.10107 3.0671,4.77975 2.7422,5.43653 -6.5317,13.18213 -6.1483,5.13523 -6.9417,6.0686 -6.5522,7.7168 0.2437,1.03125 0.6023,4.20697 0.7968,7.05615 l 0.3531,5.17969 -3.8042,-3.90528 -3.8042,-3.90674 -4.3243,0.22559 -4.3242,0.22559 -0.375,5.48584 z m -2.9926,-7.97315 c 0.2076,0.0484 0.3764,-0.55712 0.6416,-1.97021 0.634,-3.37973 2.2722,-4.83081 6.101,-5.40088 2.1437,-0.31913 3.9414,-0.0227 6.2989,1.03857 3.7335,1.68082 4.724,1.46282 2.3979,-0.52881 -0.8642,-0.74002 -1.5718,-1.90763 -1.5718,-2.59423 0,-1.11097 9.8842,-10.57647 14.2046,-13.60254 1.566,-1.09688 1.5972,-1.28994 0.5288,-3.35596 -1.8506,-3.5787 -2.9284,-4.01271 -11.1064,-4.46631 l -7.752,-0.43066 -2.455,2.71875 c -2.4269,2.68647 -4.86,3.48177 -5.8331,1.90722 -0.2756,-0.44602 0.3798,-1.73008 1.4561,-2.85351 2.1714,-2.2665 2.3399,-3.26396 1.1338,-6.72364 -0.4528,-1.29897 -1.2122,-2.34926 -1.6875,-2.33496 -1.1553,0.0351 -17.6196,14.39231 -17.6016,15.34864 0.01,0.4125 1.5868,2.15596 3.5083,3.87451 3.4638,3.09777 3.5237,3.11866 6.9551,2.33349 4.3852,-1.0035 7.3989,-0.31873 7.3989,1.68164 0,0.81713 0.4699,1.48536 1.0445,1.48536 1.4594,0 2.0923,2.05283 1.1147,3.61816 -0.4495,0.7197 -1.9632,2.05878 -3.3633,2.97656 -2.5916,1.69882 -3.0765,3.39967 -1.8589,6.51709 0.1827,0.46764 0.3207,0.73266 0.4454,0.76172 z m -5.1021,-10.09863 c 1.9105,0.0279 4.4154,-0.53503 5.5737,-1.5 v -0.001 l 1.771,-1.47509 h -3.75 c -3.9232,-0.002 -6.7138,1.04837 -5.9721,2.24853 0.2982,0.48263 1.2311,0.71131 2.3774,0.72803 z m 12.2886,-3.74707 a 3.839144,3.839144 0 0 1 1.6567,-3.8584 3.839144,3.839144 0 0 1 4.1997,-0.0337 3.839144,3.839144 0 0 1 1.7183,3.83203 z m -94.9907,-6.29297 c 7.1405,0.10595 23.5846,-0.87955 32.2968,-2.02149 2.8875,-0.3785 10.4279,-0.91586 16.7564,-1.19531 10.1315,-0.44737 11.61,-0.67739 12.375,-1.91894 0.4778,-0.77558 6.3596,-6.17216 13.0708,-11.99268 13.139,-11.39517 13.0113,-11.19404 9.873,-15.65332 -2.9939,-4.2543 -13.6517,-12.75052 -14.6909,-11.71143 -0.2534,0.25335 -0.04,1.47687 0.4746,2.72022 2.0462,4.93985 -1.3209,6.26826 -3.7617,1.48389 -2.4445,-4.79152 -7.7706,-26.78268 -8.3877,-34.63331 -0.1357,-1.72557 -0.5075,-2.0625 -2.2822,-2.0625 h -2.1211 l 0.4204,12.5625 c 0.2316,6.90938 0.5921,15.97461 0.8013,20.14454 0.3113,6.20322 0.1725,7.75443 -0.7618,8.52978 -2.1368,1.77338 -3.3911,-0.36342 -3.3911,-5.77295 v -4.85156 l -11.1782,0.25635 -11.1782,0.25634 -3.2593,2.41407 c -7.5786,5.61447 -8.9966,6.40809 -12.082,6.75586 -7.003,0.7893 -14.759,-5.488 -17.6455,-14.28077 -1.5453,-4.7075 -3.3331,-13.98844 -4.3243,-22.45166 -0.3254,-2.77835 -0.8515,-4.3125 -1.4794,-4.3125 -1.0252,0 -1.3958,3.14447 -2.2647,19.20997 l -0.4512,8.33496 2.4932,3.54199 c 2.4846,3.52987 2.4946,3.56669 2.4946,12.44238 0,8.87435 0.01,8.9045 1.875,9.36035 1.0313,0.25147 4.7438,1.92015 8.25,3.70752 6.7414,3.43657 9.9273,4.46947 16.3081,5.28809 l 3.9317,0.50391 c 2.9898,0.38319 3.934,-0.57845 5.707,-1.1045 2.4173,-0.71721 5.4546,-1.94907 6.2695,-3.47168 0.7898,-1.47566 0.6499,-1.56298 -2.4975,-1.56298 -2.84,0 -3.6406,0.36158 -5.3936,2.4375 -1.5754,1.86472 -3.6522,4.32615 -5.0229,2.60888 -0.7521,-0.94217 0.4253,-3.92341 2.6572,-6.15527 2.5554,-2.55541 2.824,-2.64111 8.3145,-2.64111 4.7397,0 5.7952,0.22664 6.4116,1.37841 1.5872,2.96565 -0.979,7.69066 -5.4873,10.10303 -2.657,1.4217 -4.2409,1.64234 -11.6983,1.63184 -9.759,-0.0139 -11.3219,-0.42004 -22.0664,-5.72754 -4.0932,-2.02192 -7.7015,-3.4143 -8.0185,-3.09375 -0.317,0.32063 -0.7886,3.95801 -1.0474,8.08301 -0.4201,6.69575 -0.3102,7.75504 1.0298,9.87304 1.3493,2.1327 1.9793,2.42248 6.2388,2.87256 0.5907,0.0625 1.4218,0.0992 2.4419,0.11426 z m -14.5313,-5.55176 c 0.061,0.005 0.1101,-0.0116 0.1465,-0.0513 0.1887,-0.20625 -0.1564,-4.54748 0.1289,-8.56933 0.4275,-6.02715 0.3327,-7.3125 -0.5361,-7.3125 -2.508,0 -5.2136,5.48406 -4.5132,9.14794 0.3541,1.85246 3.8579,6.70846 4.7739,6.78516 z m 98.915,-33.67676 2.6163,-1.40918 c 1.4393,-0.77513 4.9072,-2.94129 7.7065,-4.81494 4.1338,-2.76683 5.6063,-4.32291 7.8354,-8.28223 1.5097,-2.68123 2.9661,-5.63438 3.2374,-6.5625 0.8073,-2.7623 -1.9206,-2.04204 -4.3404,1.14551 -6.3043,8.30443 -11.4121,11.83379 -19.4502,13.44141 -3.0344,0.6069 -3.0614,1.19472 -0.1816,3.98584 z m -72.7617,-1.78711 c 2.1405,-0.027 4.3353,-0.79985 6.4893,-2.34668 1.8206,-1.30747 3.3105,-2.63426 3.3105,-2.94873 0,-1.11735 -4.1851,-3.52434 -8.1987,-4.71533 -3.9527,-1.17293 -6.0284,-1.29763 -11.1138,-0.6665 -2.6788,0.3324 -2.8135,0.59779 -1.4736,2.89599 3.0138,5.16934 6.9,7.8328 10.9863,7.78125 z m -8.8257,-14.96924 h 3.2447 3.2431 l 2.3189,-9.81591 c 1.2753,-5.3991 2.3188,-10.0891 2.3188,-10.4209 0,-0.3318 -0.5245,-0.80415 -1.166,-1.0503 -1.2723,-0.48823 -1.0282,-0.96543 -6.5727,12.84961 z"/><path id="path8080" style="fill:#1c1f42;fill-opacity:1;stroke-width:0.75" d="m 1662.988,670.36945 2.354,-2.48584 c 2.8555,-3.01597 4.771,-6.66279 4.771,-9.08057 0,-1.44682 0.5877,-1.96865 3.0424,-2.7041 4.1783,-1.2519 6.1771,-3.37159 5.6104,-5.95166 -0.3672,-1.67197 0.079,-2.54045 2.5415,-4.94531 l 2.9868,-2.91651 14.0962,0.50244 c 7.7534,0.27645 18.4852,1.00899 23.8477,1.62744 5.3625,0.61852 15.9937,1.33853 23.625,1.59961 13.8197,0.47287 13.8899,0.46749 17.625,-1.43261 8.4992,-4.32368 13.8879,-10.49017 13.8589,-15.85987 -0.021,-3.83668 -2.2868,-8.95876 -4.648,-10.50586 -0.9842,-0.64492 -2.8362,-1.38172 -4.1162,-1.63769 -2.3069,-0.4614 -2.3324,-0.51683 -2.8477,-6.33838 -0.5959,-6.73161 0.2867,-10.49656 3.1905,-13.60986 l 1.8823,-2.01856 -0.5156,-14.48145 c -0.2835,-7.96521 -0.7016,-15.57979 -0.9302,-16.92041 l -0.416,-2.4375 h -4.7915 c -3.6838,0 -4.7915,0.2515 -4.7915,1.08692 0,2.43 -2.3629,18.99456 -3.107,21.78223 l -0.7983,2.99414 -5.02,-12.60498 c -2.7607,-6.93315 -5.4686,-12.88385 -6.0176,-13.22315 -0.9081,-0.5613 -5.8201,-0.33262 -8.1196,0.37793 -1.4073,0.43492 -1.1606,3.0147 1.3125,13.7168 1.2375,5.35528 2.25,10.2469 2.25,10.8706 0,0.6336 -1.1735,1.5211 -2.6587,2.01123 -1.4619,0.48247 -4.0775,1.95878 -5.8125,3.28125 -2.4368,1.8575 -3.5804,2.28549 -5.0288,1.88086 -1.0313,-0.28815 -6.7296,-0.55792 -12.6636,-0.59912 l -10.79,-0.0747 0.4995,-9.5625 c 0.2744,-5.25936 0.7042,-12.36219 0.9565,-15.78369 l 0.46,-6.22119 -5.8931,0.22119 c -6.8511,0.25687 -5.9335,-1.216 -8.5547,13.72119 -2.1139,12.04603 -3.7044,17.625 -5.0259,17.625 -0.5849,0 -2.0788,0.52455 -3.3193,1.16602 -2.1084,1.09028 -2.7009,1.03787 -9.104,-0.8042 -3.7672,-1.08383 -7.7716,-2.44779 -8.8989,-3.03076 -1.1274,-0.58298 -4.5036,-4.13092 -7.5015,-7.88525 -4.7927,-6.00187 -5.6814,-6.78007 -7.3696,-6.44092 -3.3418,0.67125 -6.0701,1.93789 -6.4805,3.00732 -0.479,1.24822 4.9769,13.29398 7.5483,16.66553 1.0099,1.32397 4.97,4.36155 8.7994,6.75 3.8294,2.38845 7.0847,4.43208 7.2348,4.54248 0.2111,0.15516 -2.0286,4.23332 -3.1582,5.82568 a 11.37953,6.515151 22.604182 0 0 -8.9941,-4.90136 l -2.0405,3.97998 -1.2232,-0.58155 c -0.676,-0.32132 -1.479,-0.0359 -1.8003,0.64014 l -0.3794,0.79688 c -0.3214,0.67598 -0.036,1.47897 0.6402,1.80029 l 1.1264,0.53613 -1.9453,3.79248 a 11.37953,6.515151 22.604182 0 0 10.0005,3.48194 c 0.4771,0.48953 0.2432,1.41633 -0.4351,3.47168 l -0.8042,2.4375 h -8.5942 c -9.9609,0 -10.9577,0.41564 -14.6059,6.10107 -3.0671,4.77975 -2.7422,5.43653 6.5317,13.18213 6.1483,5.13523 6.9417,6.0686 6.5522,7.7168 -0.2437,1.03125 -0.6023,4.20697 -0.7968,7.05615 l -0.3531,5.17969 3.8042,-3.90528 3.8042,-3.90674 4.3243,0.22559 4.3242,0.22559 0.375,5.48584 z m 2.9926,-7.97315 c -0.2076,0.0484 -0.3764,-0.55712 -0.6416,-1.97021 -0.634,-3.37973 -2.2722,-4.83081 -6.101,-5.40088 -2.1437,-0.31913 -3.9414,-0.0227 -6.2989,1.03857 -3.7335,1.68082 -4.724,1.46282 -2.3979,-0.52881 0.8642,-0.74002 1.5718,-1.90763 1.5718,-2.59423 0,-1.11097 -9.8842,-10.57647 -14.2046,-13.60254 -1.566,-1.09688 -1.5972,-1.28994 -0.5288,-3.35596 1.8506,-3.5787 2.9284,-4.01271 11.1064,-4.46631 l 7.752,-0.43066 2.455,2.71875 c 2.4269,2.68647 4.86,3.48177 5.8331,1.90722 0.2756,-0.44602 -0.3798,-1.73008 -1.4561,-2.85351 -2.1714,-2.2665 -2.3399,-3.26396 -1.1338,-6.72364 0.4528,-1.29897 1.2122,-2.34926 1.6875,-2.33496 1.1553,0.0351 17.6196,14.39231 17.6016,15.34864 -0.01,0.4125 -1.5868,2.15596 -3.5083,3.87451 -3.4638,3.09777 -3.5237,3.11866 -6.9551,2.33349 -4.3852,-1.0035 -7.3989,-0.31873 -7.3989,1.68164 0,0.81713 -0.4699,1.48536 -1.0445,1.48536 -1.4594,0 -2.0923,2.05283 -1.1147,3.61816 0.4495,0.7197 1.9632,2.05878 3.3633,2.97656 2.5916,1.69882 3.0765,3.39967 1.8589,6.51709 -0.1827,0.46764 -0.3207,0.73266 -0.4454,0.76172 z m 5.1021,-10.09863 c -1.9105,0.0279 -4.4154,-0.53503 -5.5737,-1.5 v -0.001 l -1.771,-1.47509 h 3.75 c 3.9232,-0.002 6.7138,1.04837 5.9721,2.24853 -0.2982,0.48263 -1.2311,0.71131 -2.3774,0.72803 z m -12.2886,-3.74707 a 3.839144,3.839144 0 0 0 -1.6567,-3.8584 3.839144,3.839144 0 0 0 -4.1997,-0.0337 3.839144,3.839144 0 0 0 -1.7183,3.83203 z m 94.9907,-6.29297 c -7.1405,0.10595 -23.5846,-0.87955 -32.2968,-2.02149 -2.8875,-0.3785 -10.4279,-0.91586 -16.7564,-1.19531 -10.1315,-0.44737 -11.61,-0.67739 -12.375,-1.91894 -0.4778,-0.77558 -6.3596,-6.17216 -13.0708,-11.99268 -13.139,-11.39517 -13.0113,-11.19404 -9.873,-15.65332 2.9939,-4.2543 13.6517,-12.75052 14.6909,-11.71143 0.2534,0.25335 0.04,1.47687 -0.4746,2.72022 -2.0462,4.93985 1.3209,6.26826 3.7617,1.48389 2.4445,-4.79152 7.7706,-26.78268 8.3877,-34.63331 0.1357,-1.72557 0.5075,-2.0625 2.2822,-2.0625 h 2.1211 l -0.4204,12.5625 c -0.2316,6.90938 -0.5921,15.97461 -0.8013,20.14454 -0.3113,6.20322 -0.1725,7.75443 0.7618,8.52978 2.1368,1.77338 3.3911,-0.36342 3.3911,-5.77295 v -4.85156 l 11.1782,0.25635 11.1782,0.25634 3.2593,2.41407 c 7.5786,5.61447 8.9966,6.40809 12.082,6.75586 7.003,0.7893 14.759,-5.488 17.6455,-14.28077 1.5453,-4.7075 3.3331,-13.98844 4.3243,-22.45166 0.3254,-2.77835 0.8515,-4.3125 1.4794,-4.3125 1.0252,0 1.3958,3.14447 2.2647,19.20997 l 0.4512,8.33496 -2.4932,3.54199 c -2.4846,3.52987 -2.4946,3.56669 -2.4946,12.44238 0,8.87435 -0.01,8.9045 -1.875,9.36035 -1.0313,0.25147 -4.7438,1.92015 -8.25,3.70752 -6.7414,3.43657 -9.9273,4.46947 -16.3081,5.28809 l -3.9317,0.50391 c -2.9898,0.38319 -3.934,-0.57845 -5.707,-1.1045 -2.4173,-0.71721 -5.4546,-1.94907 -6.2695,-3.47168 -0.7898,-1.47566 -0.6499,-1.56298 2.4975,-1.56298 2.84,0 3.6406,0.36158 5.3936,2.4375 1.5754,1.86472 3.6522,4.32615 5.0229,2.60888 0.7521,-0.94217 -0.4253,-3.92341 -2.6572,-6.15527 -2.5554,-2.55541 -2.824,-2.64111 -8.3145,-2.64111 -4.7397,0 -5.7952,0.22664 -6.4116,1.37841 -1.5872,2.96565 0.979,7.69066 5.4873,10.10303 2.657,1.4217 4.2409,1.64234 11.6983,1.63184 9.759,-0.0139 11.3219,-0.42004 22.0664,-5.72754 4.0932,-2.02192 7.7015,-3.4143 8.0185,-3.09375 0.317,0.32063 0.7886,3.95801 1.0474,8.08301 0.4201,6.69575 0.3102,7.75504 -1.0298,9.87304 -1.3493,2.1327 -1.9793,2.42248 -6.2388,2.87256 -0.5907,0.0625 -1.4218,0.0992 -2.4419,0.11426 z m 14.5313,-5.55176 c -0.061,0.005 -0.1101,-0.0116 -0.1465,-0.0513 -0.1887,-0.20625 0.1564,-4.54748 -0.1289,-8.56933 -0.4275,-6.02715 -0.3327,-7.3125 0.5361,-7.3125 2.508,0 5.2136,5.48406 4.5132,9.14794 -0.3541,1.85246 -3.8579,6.70846 -4.7739,6.78516 z m -98.915,-33.67676 -2.6163,-1.40918 c -1.4393,-0.77513 -4.9072,-2.94129 -7.7065,-4.81494 -4.1338,-2.76683 -5.6063,-4.32291 -7.8354,-8.28223 -1.5097,-2.68123 -2.9661,-5.63438 -3.2374,-6.5625 -0.8073,-2.7623 1.9206,-2.04204 4.3404,1.14551 6.3043,8.30443 11.4121,11.83379 19.4502,13.44141 3.0344,0.6069 3.0614,1.19472 0.1816,3.98584 z m 72.7617,-1.78711 c -2.1405,-0.027 -4.3353,-0.79985 -6.4893,-2.34668 -1.8206,-1.30747 -3.3105,-2.63426 -3.3105,-2.94873 0,-1.11735 4.1851,-3.52434 8.1987,-4.71533 3.9527,-1.17293 6.0284,-1.29763 11.1138,-0.6665 2.6788,0.3324 2.8135,0.59779 1.4736,2.89599 -3.0138,5.16934 -6.9,7.8328 -10.9863,7.78125 z m 8.8257,-14.96924 h -3.2447 -3.2431 l -2.3189,-9.81591 c -1.2753,-5.3991 -2.3188,-10.0891 -2.3188,-10.4209 0,-0.3318 0.5245,-0.80415 1.166,-1.0503 1.2723,-0.48823 1.0282,-0.96543 6.5727,12.84961 z"/></g><g id="g8484" style="fill:#1c1f42;fill-opacity:1" transform="translate(-1499.9217)"><path id="path463" style="fill:#1c1f42;fill-opacity:1;stroke-width:0.75" d="m 1573.7512,1224.6297 c -4.8546,0.066 -9.5433,-0.1892 -14.7598,-0.8144 -16.5516,-2.3804 -30.8576,-10.1341 -37.3403,-20.2369 l -2.2969,-3.5786 -7.6831,-0.4834 c -21.5722,-1.3601 -37.201,-9.8696 -44.6236,-24.2929 -3.974,-7.7222 -5.032,-12.4223 -5.042,-22.3257 -0.013,-18.2524 6.2463,-28.2826 30.6387,-49.1001 14.3106,-12.2133 19.6597,-18.3608 24.8262,-28.5249 2.6497,-5.2129 4.2023,-6.984 7.1587,-8.1636 2.7871,-1.0673 6.6572,-0.3034 10.1806,0.7017 17.2572,5.9912 41.9769,9.3087 67.8047,9.2827 25.8279,0.026 50.5475,-3.2915 67.8047,-9.2827 3.5234,-1.0051 7.3936,-1.769 10.1807,-0.7017 2.9564,1.1796 4.509,2.9507 7.1587,8.1636 5.1665,10.1641 10.5156,16.3116 24.8262,28.5249 24.3923,20.8175 30.6516,30.8477 30.6386,49.1001 -0.01,9.9034 -1.068,14.6035 -5.042,22.3257 -7.4226,14.4233 -23.0513,22.9328 -44.6235,24.2929 l -7.6831,0.4834 -2.2969,3.5786 c -6.4828,10.1028 -20.7887,17.8565 -37.3403,20.2369 -13.9108,1.6673 -24.0697,0.7026 -43.6231,-1.9629 -12.2208,1.6659 -20.7723,2.6675 -28.8632,2.7773 z m -1.8868,-23.8022 c 5.1563,0.038 11.6531,-0.2101 14.4375,-0.5523 l 5.0625,-0.6211 v -98.6645 l -5.0625,-0.4776 c -9.8028,-0.9258 -9.3713,-1.0857 -11.0273,4.0972 -1.8442,5.7716 -7.7078,17.404 -12.1084,24.0234 -1.8519,2.7857 -7.5511,10.4922 -12.665,17.1255 -11.6374,15.0942 -13.4236,18.5618 -13.774,26.7554 -0.8116,18.9808 10.546,28.1321 35.1372,28.314 z m 61.5,0 c 24.5913,-0.1819 35.9488,-9.3332 35.1372,-28.314 -0.3504,-8.1936 -2.1365,-11.6612 -13.7739,-26.7554 -5.114,-6.6333 -10.8131,-14.3398 -12.665,-17.1255 -4.4006,-6.6194 -10.2642,-18.2518 -12.1084,-24.0234 -1.656,-5.1829 -1.2246,-5.023 -11.0274,-4.0972 l -5.0625,0.4776 v 98.6645 l 5.0625,0.6211 c 2.7844,0.3422 9.2812,0.5903 14.4375,0.5523 z m -120.9726,-24.8745 0.394,-6.2769 c 0.7314,-11.6733 4.8693,-20.3792 17.0684,-35.9033 10.6543,-13.5582 15.0331,-20.0249 19.2978,-28.5 4.5555,-9.0527 5.1588,-7.9658 -5.7876,-10.4239 -3.9187,-0.8798 -7.4998,-1.5978 -7.957,-1.5878 -0.4572,0.01 -2.1127,1.9523 -3.6797,4.3242 -3.8722,5.8611 -12.2787,14.4525 -24.145,24.6753 -13.4838,11.6162 -17.085,15.4258 -19.8032,20.9472 -2.1382,4.3441 -2.3021,5.2141 -2.0567,10.9761 0.4453,10.46 4.4448,15.8725 14.2735,19.3198 2.3409,0.8211 6.0877,1.7086 8.3261,1.9717 z m 180.4453,0 4.0693,-0.4776 c 2.2384,-0.2631 5.9853,-1.1506 8.3262,-1.9717 9.8287,-3.4473 13.8281,-8.8598 14.2734,-19.3198 0.2454,-5.762 0.082,-6.632 -2.0566,-10.9761 -2.7182,-5.5214 -6.3194,-9.331 -19.8032,-20.9472 -11.8663,-10.2228 -20.2729,-18.8142 -24.145,-24.6753 -1.567,-2.3719 -3.2225,-4.3142 -3.6797,-4.3242 -0.4572,-0.01 -4.0384,0.708 -7.9571,1.5878 -10.9464,2.4581 -10.3431,1.3712 -5.7876,10.4239 4.2647,8.4751 8.6436,14.9418 19.2979,28.5 12.1991,15.5241 16.3369,24.23 17.0683,35.9033 z"/><circle style="fill:#1c1f42;fill-opacity:1;fill-rule:evenodd;stroke-width:1.50018" id="path8351" transform="scale(1,-1)" cx="1602.6144" cy="-1256.833" r="19.5"/></g></g><g id="g9147" transform="matrix(0.41131106,0,0,0.41131106,-987.46585,955.52917)" style="fill:#f0cd11;fill-opacity:1"><path id="path507" style="fill:#f0cd11;fill-opacity:1;stroke-width:0.75" d="m 1149.6144,1260.5477 -6.3457,-6.126 c -10.6367,-10.2708 -14.6543,-18.4991 -14.6543,-31.1909 0,-7.5855 1.1747,-14.4114 4.1821,-24.2959 5.1775,-17.0163 7.2446,-25.1463 8.5562,-33.6621 1.2578,-8.1659 1.2038,-8.3772 -2.0508,-8.1079 l -2.8125,0.2329 -0.5054,4.875 c -2.2679,21.9054 -17.5933,37.0607 -36.2299,35.8271 -7.0894,-0.4693 -12.3363,-2.8373 -16.4678,-7.4326 -10.0732,-11.2038 -6.4319,-30.2743 6.4863,-33.9712 4.2756,-1.2236 7.4745,-0.8606 11.4697,1.3008 l 2.2471,1.2158 -3.2446,0.029 c -5.3847,0.1681 -7.7902,4.7337 -7.4575,8.3233 0.6037,6.2824 4.6719,9.2559 12.5771,9.1948 8.0944,-0.062 14.195,-3.6346 18.5449,-10.8589 3.2254,-5.3566 3.8738,-8.5283 1.8516,-9.0571 -0.824,-0.2155 -1.8765,-1.0995 -2.3394,-1.9644 -0.6839,-1.278 -0.5753,-1.8387 0.5816,-2.9956 0.7829,-0.7829 1.8757,-1.5739 2.4272,-1.7578 0.8222,-0.2741 0.8355,-0.8913 0.075,-3.4292 -1.0194,-3.4024 -4.5579,-7.3953 -7.5688,-8.54 -3.9739,-1.5109 -9.1528,1.0755 -9.9946,4.9907 -0.1451,0.6748 -0.1979,0.7373 -0.3648,1.5893 -1.3289,-2.4682 -1.6569,-4.8921 -0.747,-6.8232 0.6736,-1.4126 2.0871,-3.133 3.1406,-3.8233 2.8664,-1.8781 8.1068,-2.2265 11.8696,-0.7895 4.595,1.7549 10.1497,7.6743 11.814,12.5903 1.3219,3.9049 1.428,4.0064 4.2202,4.0064 2.6224,0 2.8441,-0.1583 2.6133,-1.875 -0.732,-5.446 -5.5348,-12.4654 -12.0161,-17.562 l -3.7354,-2.937 2.8272,-1.399 c 4.4798,-2.2165 13.224,-9.9872 17.3071,-15.3808 2.0589,-2.7198 3.7441,-5.2988 3.7441,-5.7305 0,0.4317 1.6838,3.0107 3.7427,5.7305 4.0831,5.3936 12.8272,13.1643 17.3071,15.3808 l 2.8272,1.399 -3.7354,2.937 c -6.4814,5.0966 -11.2841,12.116 -12.0161,17.562 -0.2308,1.7167 -0.01,1.875 2.6133,1.875 2.7922,0 2.8983,-0.1015 4.2202,-4.0064 1.6643,-4.916 7.219,-10.8354 11.814,-12.5903 3.7628,-1.437 9.0032,-1.0886 11.8696,0.7895 1.0535,0.6903 2.467,2.4107 3.1406,3.8233 0.9099,1.9311 0.5819,4.355 -0.747,6.8232 -0.1669,-0.852 -0.2197,-0.9145 -0.3648,-1.5893 -0.8418,-3.9152 -6.0207,-6.5016 -9.9946,-4.9907 -3.0109,1.1447 -6.5495,5.1376 -7.5689,8.54 -0.7608,2.5379 -0.7475,3.1551 0.075,3.4292 0.5515,0.1839 1.6444,0.9749 2.4273,1.7578 1.1569,1.1569 1.2655,1.7176 0.5815,2.9956 -0.4629,0.8649 -1.5153,1.7489 -2.3393,1.9644 -2.0222,0.5288 -1.3739,3.7005 1.8515,9.0571 4.3499,7.2243 10.4506,10.7969 18.545,10.8589 7.9051,0.061 11.9734,-2.9124 12.5771,-9.1948 0.3327,-3.5896 -2.0728,-8.1552 -7.4575,-8.3233 l -3.2446,-0.029 2.247,-1.2158 c 3.9953,-2.1614 7.1942,-2.5244 11.4698,-1.3008 12.9181,3.6969 16.5595,22.7674 6.4863,33.9712 -4.1315,4.5953 -9.3784,6.9633 -16.4678,7.4326 -18.6367,1.2336 -33.962,-13.9217 -36.23,-35.8271 l -0.5053,-4.875 -2.8125,-0.2329 c -3.2546,-0.2693 -3.3086,-0.058 -2.0508,8.1079 1.3116,8.5158 3.3786,16.6458 8.5561,33.6621 3.0075,9.8845 4.1822,16.7104 4.1822,24.2959 0,12.6918 -4.0177,20.9201 -14.6543,31.1909 z"/><path id="path9006" style="fill:#f0cd11;fill-opacity:1;stroke-width:0.75" d="m 2055.771,1260.5477 6.3457,-6.126 c 10.6367,-10.2708 14.6543,-18.4991 14.6543,-31.1909 0,-7.5855 -1.1747,-14.4114 -4.1821,-24.2959 -5.1775,-17.0163 -7.2446,-25.1463 -8.5562,-33.6621 -1.2578,-8.1659 -1.2038,-8.3772 2.0508,-8.1079 l 2.8125,0.2329 0.5054,4.875 c 2.2679,21.9054 17.5933,37.0607 36.2299,35.8271 7.0894,-0.4693 12.3363,-2.8373 16.4678,-7.4326 10.0732,-11.2038 6.4319,-30.2743 -6.4863,-33.9712 -4.2756,-1.2236 -7.4745,-0.8606 -11.4697,1.3008 l -2.2471,1.2158 3.2446,0.029 c 5.3847,0.1681 7.7902,4.7337 7.4575,8.3233 -0.6037,6.2824 -4.6719,9.2559 -12.5771,9.1948 -8.0944,-0.062 -14.195,-3.6346 -18.5449,-10.8589 -3.2254,-5.3566 -3.8738,-8.5283 -1.8516,-9.0571 0.824,-0.2155 1.8765,-1.0995 2.3394,-1.9644 0.6839,-1.278 0.5753,-1.8387 -0.5816,-2.9956 -0.7829,-0.7829 -1.8757,-1.5739 -2.4272,-1.7578 -0.8222,-0.2741 -0.8355,-0.8913 -0.075,-3.4292 1.0194,-3.4024 4.5579,-7.3953 7.5688,-8.54 3.9739,-1.5109 9.1528,1.0755 9.9946,4.9907 0.1451,0.6748 0.1979,0.7373 0.3648,1.5893 1.3289,-2.4682 1.6569,-4.8921 0.747,-6.8232 -0.6736,-1.4126 -2.0871,-3.133 -3.1406,-3.8233 -2.8664,-1.8781 -8.1068,-2.2265 -11.8696,-0.7895 -4.595,1.7549 -10.1497,7.6743 -11.814,12.5903 -1.3219,3.9049 -1.428,4.0064 -4.2202,4.0064 -2.6224,0 -2.8441,-0.1583 -2.6133,-1.875 0.732,-5.446 5.5348,-12.4654 12.0161,-17.562 l 3.7354,-2.937 -2.8272,-1.399 c -4.4798,-2.2165 -13.224,-9.9872 -17.3071,-15.3808 -2.0589,-2.7198 -3.7441,-5.2988 -3.7441,-5.7305 0,0.4317 -1.6838,3.0107 -3.7427,5.7305 -4.0831,5.3936 -12.8272,13.1643 -17.3071,15.3808 l -2.8272,1.399 3.7354,2.937 c 6.4814,5.0966 11.2841,12.116 12.0161,17.562 0.2308,1.7167 0.01,1.875 -2.6133,1.875 -2.7922,0 -2.8983,-0.1015 -4.2202,-4.0064 -1.6643,-4.916 -7.219,-10.8354 -11.814,-12.5903 -3.7628,-1.437 -9.0032,-1.0886 -11.8696,0.7895 -1.0535,0.6903 -2.467,2.4107 -3.1406,3.8233 -0.9099,1.9311 -0.5819,4.355 0.747,6.8232 0.1669,-0.852 0.2197,-0.9145 0.3648,-1.5893 0.8418,-3.9152 6.0207,-6.5016 9.9946,-4.9907 3.0109,1.1447 6.5495,5.1376 7.5689,8.54 0.7608,2.5379 0.7475,3.1551 -0.075,3.4292 -0.5515,0.1839 -1.6444,0.9749 -2.4273,1.7578 -1.1569,1.1569 -1.2655,1.7176 -0.5815,2.9956 0.4629,0.8649 1.5153,1.7489 2.3393,1.9644 2.0222,0.5288 1.3739,3.7005 -1.8515,9.0571 -4.3499,7.2243 -10.4506,10.7969 -18.545,10.8589 -7.9051,0.061 -11.9734,-2.9124 -12.5771,-9.1948 -0.3327,-3.5896 2.0728,-8.1552 7.4575,-8.3233 l 3.2446,-0.029 -2.247,-1.2158 c -3.9953,-2.1614 -7.1942,-2.5244 -11.4698,-1.3008 -12.9181,3.6969 -16.5595,22.7674 -6.4863,33.9712 4.1315,4.5953 9.3784,6.9633 16.4678,7.4326 18.6367,1.2336 33.962,-13.9217 36.23,-35.8271 l 0.5053,-4.875 2.8125,-0.2329 c 3.2546,-0.2693 3.3086,-0.058 2.0508,8.1079 -1.3116,8.5158 -3.3786,16.6458 -8.5561,33.6621 -3.0075,9.8845 -4.1822,16.7104 -4.1822,24.2959 0,12.6918 4.0177,20.9201 14.6543,31.1909 z"/></g><g id="g3582" transform="matrix(0.41131106,0,0,0.41131106,-369.85008,955.52917)"><g id="g17001" style="fill:#ffffff" transform="translate(-1.3022029)"><g id="g9836" style="fill:#ffffff"><path d="m -52.188155,1413.6865 q 10.095917,3.3823 13.53565,8.2777 3.680137,4.9759 1.103194,12.6681 -2.33544,6.971 -8.190013,8.4853 -5.614071,1.5948 -15.710086,-1.7874 l -36.537724,-12.2409 9.261255,-27.6438 z m -14.874658,-76.9031 q 0.56371,-1.6826 1.927927,-2.5624 1.524021,-0.5588 6.252276,0.4905 l 0.966417,-2.8845 -49.518277,-16.5896 -0.96632,2.8845 q 4.40615,2.0108 5.04546,3.2946 0.7993,1.6045 0.23559,3.2871 l -37.52792,112.017 q -0.56371,1.6826 -2.08773,2.2415 -1.36422,0.8798 -6.09247,-0.1696 l -0.96642,2.8846 86.055994,28.8304 q 11.297832,3.7851 21.078951,3.3189 9.700528,-0.2254 17.321913,-3.8217 7.621296,-3.5961 13.002372,-10.0814 5.3005743,-6.245 7.9581176,-14.1776 2.657546,-7.9325 2.2694535,-16.3507 -0.4685906,-8.1777 -4.385426,-15.6392 -3.9974391,-7.2212 -11.5236191,-13.4857 -7.606783,-6.024 -18.904609,-9.809 l -43.2684,-14.4957 z" style="font-weight:bold;font-size:253.511px;line-height:1.25;font-family:Copperplate;-inkscape-font-specification:'Copperplate Bold';white-space:pre;fill:#ffffff" id="path9601"/><path d="m 127.09435,1365.5229 c 0.0311,-0.8445 -0.19731,-1.5294 -0.68532,-2.0547 -0.66312,-0.3627 -1.92359,-0.5783 -3.78141,-0.6467 l 0.11204,-3.0401 49.34101,1.6526 -0.11205,3.04 c -1.87027,0.2693 -3.24008,0.7262 -4.10945,1.3707 -0.87559,0.8134 -1.77296,2.2179 -2.69211,4.2134 -0.36891,0.8321 -1.29741,3.081 -2.7855,6.7468 l -44.46507,105.1618 c -1.47563,3.3281 -2.21656,5.0765 -2.22279,5.2454 -0.0312,0.8445 0.53814,1.4574 1.70802,1.8388 1.00091,0.3751 2.08937,0.6689 3.26539,0.8814 l -0.11205,3.04 -66.121476,-2.4369 0.112047,-3.0401 c 1.357367,-0.1191 2.464506,-0.332 3.321419,-0.6387 0.856911,-0.3067 1.310266,-1.1355 1.360064,-2.4866 0.01245,-0.3379 -0.666651,-2.5615 -2.037292,-6.6709 L 16.645045,1366.36 c -1.239099,-3.0899 -2.262206,-5.157 -3.06932,-6.2015 -0.97601,-1.0507 -2.224032,-1.604 -3.7440647,-1.6601 l 0.1120421,-3.0401 45.4077836,1.8395 -0.112048,3.04 c -3.215185,0.051 -4.857013,1.0049 -4.925484,2.8626 -0.0062,0.1689 0.375572,1.2823 1.145315,3.3402 l 6.627888,19.7778 60.041343,2.2128 8.65649,-21.4976 c 0.19379,-0.6693 0.29691,-1.1729 0.30936,-1.5107 z m -63.167332,41.3053 20.882007,59.7308 26.239055,-57.994 z" style="font-weight:bold;font-size:253.511px;line-height:1.25;font-family:Copperplate;-inkscape-font-specification:'Copperplate Bold';white-space:pre;fill:#ffffff;stroke:none" id="path9603" sodipodi:nodetypes="scccccccccscccccsscccccccsccccscccc"/><path d="m 246.62461,1469.0142 q 0.49873,1.7031 2.00012,2.32 1.32941,0.9316 6.0945,0.065 l 0.85487,2.9195 -50.11881,14.6756 -0.85494,-2.9196 q 4.48015,-1.8401 5.34042,-3.4128 0.68822,-1.2582 0.18955,-2.9612 l -19.09246,-65.2032 q -4.70186,-16.0574 -2.55521,-28.573 1.9034,-12.4444 9.2251,-21.7205 7.07846,-9.2049 18.70286,-15.5144 11.45236,-5.995 25.32022,-10.0556 13.8678,-4.0608 26.98828,-5.2611 12.94841,-0.8858 24.11713,2.9761 10.92545,3.9331 19.48377,13.3141 8.31502,9.4521 13.01686,25.5096 l 19.09246,65.2032 q 0.49867,1.703 2.00013,2.3201 1.32941,0.9315 6.0945,0.065 l 0.85486,2.9196 -50.11887,14.6755 -0.85487,-2.9196 q 4.48016,-1.8401 5.34043,-3.4128 0.68821,-1.2581 0.18955,-2.9612 l -19.09247,-65.2031 q -4.132,-14.1112 -13.94171,-17.8426 -9.80977,-3.7315 -24.40753,0.5429 -14.59769,4.2745 -20.8454,12.7078 -6.24777,8.4333 -2.11584,22.5444 z" style="font-weight:bold;font-size:253.511px;line-height:1.25;font-family:Copperplate;-inkscape-font-specification:'Copperplate Bold';white-space:pre;fill:#ffffff" id="path9605"/></g><g id="g9828" style="fill:#ffffff"><path d="m -380.70239,691.38687 q 1.78609,0.93335 2.26799,1.70816 0.4819,0.77481 0.10211,1.84969 l -15.66648,44.33861 -11.958,-4.22521 10.53928,-29.82778 q 0.37979,-1.07488 1.10713,-1.42242 0.86169,-0.30007 2.83767,0.0959 l 0.56969,-1.61232 -22.57239,-7.97566 -0.56968,1.61231 q 2.18915,1.07579 2.67106,1.85059 0.4819,0.77481 0.1021,1.84969 l -10.53926,29.82779 -22.43803,-7.92819 q -0.94051,-0.33232 -1.42241,-1.10713 -0.30007,-0.86169 0.33322,-3.50946 l -1.61231,-0.5697 -9.96957,28.21548 1.6123,0.56968 q 1.17073,-2.45787 1.89807,-2.80541 0.90917,-0.43443 1.84968,-0.10211 l 62.61149,22.12296 q 0.94051,0.33233 1.24058,1.19402 0.4819,0.77481 -0.15139,3.42258 l 1.61231,0.5697 24.30678,-68.79203 q 0.37979,-1.07486 1.24149,-1.37493 0.99606,-0.25259 3.37511,0.28574 l 0.56969,-1.61231 -23.37854,-8.2605 z" style="font-weight:bold;font-size:142.5px;line-height:1.4;font-family:Copperplate;-inkscape-font-specification:'Copperplate Bold';letter-spacing:15px;white-space:pre;fill:#ffffff" id="path9779"/><path d="m -327.58505,638.24824 q 4.78268,-7.76535 6.78353,-15.90513 2.19689,-8.18641 1.21019,-15.82321 -0.91198,-7.75812 -5.1104,-14.52791 -4.19845,-6.76981 -12.20646,-11.70194 -8.00799,-4.93213 -15.94289,-5.63526 -7.93491,-0.70313 -15.2736,1.9734 -7.26397,2.55521 -13.46486,8.27555 -6.12618,5.59899 -10.90885,13.36434 -4.78267,7.76533 -7.10091,15.877 -2.2435,7.99033 -1.33153,15.74846 0.98671,7.63681 5.18514,14.4066 4.19844,6.7698 12.20643,11.70193 8.00801,4.93213 15.94291,5.63526 7.9349,0.70313 15.19887,-1.85208 7.33868,-2.67653 13.5862,-8.20081 6.44356,-5.57087 11.22623,-13.3362 z m -14.80266,-9.11698 q -2.46607,4.004 -5.92128,6.89672 -3.38048,2.77136 -7.40458,4.14218 -3.82806,1.32421 -8.2716,0.93045 -4.24748,-0.44035 -8.49415,-3.05588 -4.24666,-2.61552 -6.67252,-6.28527 -2.22978,-3.71637 -2.89108,-7.80555 -0.46523,-4.13579 0.48859,-8.40176 1.02853,-4.38729 3.49461,-8.39129 2.46606,-4.004 5.84654,-6.77538 3.45522,-2.8927 7.28327,-4.21691 4.0241,-1.37082 8.27158,-0.93046 4.44355,0.39375 8.6902,3.00928 4.24668,2.61553 6.47647,6.33188 2.42585,3.66975 2.89109,7.80555 0.66128,4.08918 -0.36726,8.47648 -0.95382,4.26596 -3.41988,8.26996 z" style="font-weight:bold;font-size:142.5px;line-height:1.4;font-family:Copperplate;-inkscape-font-specification:'Copperplate Bold';letter-spacing:15px;white-space:pre;fill:#ffffff" id="path9781"/><path d="m -261.84905,552.12573 q 6.71067,-6.17586 10.84554,-13.46712 4.33623,-7.2829 5.45918,-14.90086 1.2278,-7.71445 -0.97574,-15.36961 -2.20354,-7.65515 -8.5724,-14.57553 -6.36887,-6.92038 -13.81511,-9.75065 -7.44625,-2.83026 -15.23592,-2.24589 -7.6848,0.48787 -15.20546,4.31058 -7.41579,3.72621 -14.12647,9.90208 -6.71067,6.17587 -11.14338,13.35392 -4.32787,7.08155 -5.55568,14.796 -1.12295,7.61796 1.08059,15.27312 2.20354,7.65515 8.5724,14.57552 6.36887,6.92038 13.81512,9.75065 7.44625,2.83026 15.13105,2.3424 7.78966,-0.58437 15.30196,-4.20574 7.71366,-3.613 14.42432,-9.78887 z m -11.77274,-12.79221 q -3.46019,3.18443 -7.5708,5.03083 -4.00575,1.7499 -8.25085,1.97711 -4.04376,0.23558 -8.21366,-1.34937 -3.96855,-1.57659 -7.34598,-5.24648 -3.37742,-3.6699 -4.71625,-7.86029 -1.13749,-4.18203 -0.66416,-8.29722 0.67469,-4.10683 2.75048,-7.95381 2.18064,-3.94348 5.64083,-7.12791 3.4602,-3.18443 7.46594,-4.93433 4.11061,-1.84639 8.15436,-2.08197 4.24511,-0.22722 8.21366,1.34937 4.1699,1.58495 7.54733,5.25484 3.37742,3.6699 4.51491,7.85194 1.33883,4.19039 0.66415,8.29722 -0.47333,4.11518 -2.65398,8.05866 -2.07579,3.84698 -5.53598,7.03141 z" style="font-weight:bold;font-size:142.5px;line-height:1.4;font-family:Copperplate;-inkscape-font-specification:'Copperplate Bold';letter-spacing:15px;white-space:pre;fill:#ffffff" id="path9783"/><path d="m -234.50116,429.50156 q 2.39033,-1.30311 3.1832,-1.15768 0.9911,0.18179 1.55762,1.0028 l 30.26814,43.86567 -20.17352,13.9201 q -0.93831,0.64746 -1.89305,0.26743 -0.8738,-0.26271 -2.48421,-2.09474 l -1.40745,0.97116 14.40569,20.87725 1.40746,-0.97118 q -1.14125,-2.15575 -1.15769,-3.1832 0.0645,-0.91017 1.00281,-1.55761 l 57.94021,-39.97984 q 0.9383,-0.64745 1.8121,-0.38476 0.95474,0.38001 2.56514,2.21204 l 1.40746,-0.97117 -14.40569,-20.87725 -1.40746,0.97118 q 1.14125,2.15575 1.07675,3.06592 0.0164,1.02744 -0.92187,1.67489 l -20.17351,13.92011 -30.26814,-43.86567 q -0.56651,-0.82102 -0.50202,-1.73118 0.26272,-0.87381 2.32932,-2.64607 l -0.97116,-1.40745 -24.16131,16.67175 z" style="font-weight:bold;font-size:142.5px;line-height:1.4;font-family:Copperplate;-inkscape-font-specification:'Copperplate Bold';letter-spacing:15px;white-space:pre;fill:#ffffff" id="path9785"/><path d="m -103.39772,373.2875 q 7.105707,-2.95327 10.711601,-2.44582 3.660586,0.63904 5.465362,4.98142 1.804775,4.34238 -0.379167,7.2562 -2.129261,3.04541 -9.234979,5.99869 l -22.369847,9.29733 -6.56283,-15.79048 z m 7.667257,31.07186 q 4.210796,-1.75009 7.028821,-2.76699 2.872714,-0.88533 4.725207,-0.88367 1.852502,0.002 3.002649,0.91248 1.150149,0.91085 1.970501,2.88465 0.820353,1.97381 0.654627,3.43155 -0.165724,1.45774 -1.471314,2.77196 -1.3056,1.31422 -4.014245,2.5943 -2.653954,1.41167 -6.86475,3.16176 l -17.895863,7.43787 -5.03151,-12.10604 z m -28.446017,37.74808 q 0.38283,0.92111 -0.0563,1.72091 -0.2529,0.8767 -2.64369,2.17899 l 0.65629,1.57905 50.134771,-20.83698 q 5.39508,-2.2423 9.431533,-5.15447 4.036443,-2.91217 6.396392,-6.51641 2.414639,-3.47265 2.780224,-7.79117 0.420285,-4.18694 -1.603261,-9.05567 -2.461057,-5.92143 -7.545243,-8.12924 -5.029494,-2.07622 -11.048374,-0.96351 l -0.109381,-0.26318 q 5.945291,-4.63142 8.570072,-10.19754 2.75636,-5.62082 -0.306289,-12.98971 -1.640704,-3.94761 -4.69639,-6.84419 -2.924097,-2.95127 -7.307592,-4.21576 -4.251896,-1.31918 -10.040088,-0.76531 -5.656607,0.49919 -12.630734,3.39777 l -50.7927,21.11043 0.65628,1.57904 q 2.60954,-0.77593 3.35465,-0.46831 0.93139,0.38449 1.31422,1.3056 z" style="font-weight:bold;font-size:142.5px;line-height:1.4;font-family:Copperplate;-inkscape-font-specification:'Copperplate Bold';letter-spacing:15px;white-space:pre;fill:#ffffff" id="path9787"/><path d="m -16.884829,333.56632 q -0.127798,-0.70093 0.216051,-1.19819 0.509622,-0.38263 2.051692,-0.66384 l -0.306767,-1.68225 -24.813303,4.52486 0.306767,1.68225 q 1.5932,-8.3e-4 2.396393,0.4321 0.828764,0.57313 1.836475,2.12756 0.408204,0.64982 2.092122,3.52944 1.683917,2.87962 4.349976,7.1735 2.691629,4.43406 5.982775,9.77275 3.291136,5.33869 6.607842,10.81757 3.342275,5.61906 6.4676684,10.84313 3.2911353,5.33869 5.7914519,9.51794 2.5003166,4.17925 3.99291108,6.80406 1.63278782,2.59924 1.65835802,2.73944 0.1277994,0.70094 -0.80237083,1.16026 -0.78999683,0.43377 -1.74575718,0.7529 l 0.30677799,1.68226 36.58910762,-6.67225 -0.306768,-1.68226 q -1.14707,0.0643 -1.899146,-0.0882 -0.752064,-0.15255 -0.956582,-1.27405 -0.05112,-0.28038 0.597031,-3.87498 0.788343,-3.62015 1.894153,-9.47095 1.13139,-5.71062 2.542314,-13.06555 1.576686,-7.24032 3.216865,-14.92677 1.665739,-7.54625 3.102233,-14.761 1.576685,-7.24032 2.848258,-12.97649 0.661346,-2.72791 1.208901,-3.69686 0.687748,-0.99451 1.949443,-1.22459 l -0.306777,-1.68225 -27.617069,5.03613 0.306778,1.68227 q 2.689136,-0.34551 2.97034,1.19653 0.02566,0.14019 -0.368607,1.95027 -0.368607,1.95027 -0.826266,4.20647 -0.432111,2.3964 -0.91534,4.51243 -0.343037,2.09044 -0.355411,2.81695 l -33.22459,6.05872 q -2.092112,-3.52944 -3.367836,-5.75926 -1.275722,-2.22981 -2.092111,-3.52944 -0.676206,-1.32518 -1.084411,-1.975 -0.242442,-0.53519 -0.293572,-0.81557 z m 38.462771,17.90027 -7.513981,35.84452 -18.5610177,-31.08958 z" style="font-weight:bold;font-size:142.5px;line-height:1.4;font-family:Copperplate;-inkscape-font-specification:'Copperplate Bold';letter-spacing:15px;white-space:pre;fill:#ffffff" id="path9789"/><path d="m 165.96845,336.70541 q 1.13953,0.0326 1.68892,0.7611 0.54532,0.87096 0.76093,3.30061 l 1.7093,0.0489 0.70498,-24.64242 -1.7093,-0.0489 q -0.35008,2.27092 -0.93615,2.82438 -0.58199,0.41103 -1.72152,0.37843 l -74.354586,-2.12717 -0.0489,1.7093 q 2.69825,0.3623 3.251711,0.94838 0.691832,0.73258 0.663315,1.72967 l -1.898973,66.37784 q -0.02853,0.9971 -0.75703,1.54649 -0.59014,0.69591 -3.304689,0.90336 l -0.0489,1.7093 29.342992,0.83946 0.0489,-1.7093 q -2.69825,-0.36231 -3.39008,-1.09489 -0.55347,-0.58606 -0.52494,-1.58316 l 1.52406,-53.27321 z" style="font-weight:bold;font-size:142.5px;line-height:1.4;font-family:Copperplate;-inkscape-font-specification:'Copperplate Bold';letter-spacing:15px;white-space:pre;fill:#ffffff" id="path9791"/><path d="m 279.98696,361.72921 q 1.1078,0.26904 1.49356,1.09593 0.35212,0.96537 0.0574,3.3867 l 1.6617,0.40356 5.81789,-23.95617 -1.6617,-0.40355 q -0.81502,2.14834 -1.50344,2.56772 -0.65479,0.28091 -1.76259,0.0119 l -72.28392,-17.55455 -0.40356,1.66169 q 2.56377,0.91591 2.98315,1.60433 0.52423,0.86053 0.28883,1.82984 l -15.67132,64.52934 q -0.23541,0.96932 -1.06229,1.35508 -0.72205,0.55785 -3.42034,0.19581 l -0.40355,1.6617 28.52584,6.92766 0.40355,-1.6617 q -2.56376,-0.91591 -3.08799,-1.77643 -0.41938,-0.68842 -0.18403,-1.65774 l 12.57741,-51.7896 z" style="font-weight:bold;font-size:142.5px;line-height:1.4;font-family:Copperplate;-inkscape-font-specification:'Copperplate Bold';letter-spacing:15px;white-space:pre;fill:#ffffff" id="path9793"/><path d="m 417.15731,466.12685 q -0.11873,0.43471 -0.35599,0.79032 -0.19782,0.55324 -0.59326,1.14593 -0.63271,0.9483 -2.92495,0.78937 -2.1737,-0.0798 -5.3746,-1.18765 -3.16146,-0.91018 -6.91542,-2.7296 -3.83304,-1.70087 -7.62626,-4.2317 -3.55614,-2.37266 -6.91428,-5.81234 -3.35813,-3.43969 -5.41178,-7.55078 -1.93511,-4.03199 -1.93341,-8.65611 0.0412,-4.42649 3.04652,-8.93094 3.00536,-4.50444 7.1559,-6.36047 4.18998,-1.65839 8.65592,-1.41961 4.58448,0.31787 9.04986,2.09802 4.46537,1.78015 8.02151,4.15281 1.541,1.02815 4.54371,3.71678 2.92362,2.80716 5.60998,5.96995 2.68635,3.16278 4.38477,6.00902 1.81695,2.92532 0.94698,4.22924 -0.39545,0.59269 -0.86979,0.79013 -0.47434,0.19743 -1.02777,0.51341 l 0.7503,1.69974 24.62631,-10.46436 -0.86884,-1.77883 q -0.63252,0.43452 -1.18576,0.2367 -0.51379,-1.9e-4 -1.10648,-0.39563 -0.82977,-0.55362 -2.60727,-3.28132 -1.85659,-2.60916 -5.096,-6.48355 -3.19996,-3.67676 -7.90146,-8.18405 -4.78059,-4.38874 -11.41872,-8.8177 -7.11228,-4.74531 -15.29235,-7.63346 -8.25916,-2.76961 -16.44037,-2.57501 -8.26029,0.31313 -15.65232,3.94647 -7.47111,3.75187 -12.77004,11.69392 -5.29893,7.94205 -5.81575,16.16251 -0.59591,8.33901 2.36546,15.96792 2.88228,7.74745 8.53151,14.42882 5.64924,6.68137 12.76153,11.42667 7.11228,4.74531 12.76303,7.31635 5.69021,2.76867 9.87905,4.19302 4.07031,1.34526 6.44145,1.89944 2.29205,0.67273 3.24036,1.30544 1.06684,0.71179 1.14536,2.13463 l 1.54118,0.51436 2.38118,-26.67674 z" style="font-weight:bold;font-size:142.5px;line-height:1.4;font-family:Copperplate;-inkscape-font-specification:'Copperplate Bold';letter-spacing:15px;white-space:pre;fill:#ffffff" id="path9795"/><path d="m 529.99882,526.15286 q 0.79855,0.81358 0.68934,1.71946 -0.21091,1.00571 -1.74014,2.90602 l 1.19782,1.22038 17.59374,-17.26864 -1.19782,-1.22038 q -1.8268,1.3937 -2.63287,1.38618 -0.70437,-0.10735 -1.50292,-0.92091 l -52.1054,-53.08631 -1.22037,1.19783 q 1.69316,2.1319 1.68564,2.93796 -0.009,1.00759 -0.72128,1.70632 l -47.39122,46.51554 q -0.71189,0.69873 -1.61777,0.58952 -0.90776,0.0923 -3.00772,-1.64032 l -1.22037,1.19782 20.56266,20.94977 1.22038,-1.19783 q -1.69316,-2.13188 -1.68377,-3.13947 0.008,-0.80607 0.7194,-1.5048 l 38.03502,-37.33223 z" style="font-weight:bold;font-size:142.5px;line-height:1.4;font-family:Copperplate;-inkscape-font-specification:'Copperplate Bold';letter-spacing:15px;white-space:pre;fill:#ffffff" id="path9797"/><path d="m 545.23314,639.77277 q -0.85288,0.51728 -1.70974,0.20365 -0.9048,-0.11791 -2.55253,-2.28508 l -1.4621,0.88677 15.22281,25.09943 1.46211,-0.88676 q -1.16036,-2.46279 -0.92064,-3.44148 0.19178,-0.78296 1.04468,-1.30024 l 32.65363,-19.80445 q 8.04157,-4.87721 11.89872,-10.8831 3.93104,-5.88406 4.41269,-12.50927 0.55553,-6.50338 -1.87296,-13.53019 -2.47644,-6.83107 -6.68858,-13.77606 -4.21214,-6.94499 -9.19932,-12.41996 -5.03511,-5.27922 -11.13294,-7.91399 -6.02393,-2.51293 -13.13255,-1.86808 -7.03473,0.76669 -15.0763,5.6439 l -32.65364,19.80445 q -0.85289,0.51728 -1.70974,0.20366 -0.9048,-0.11791 -2.55253,-2.28508 l -1.46211,0.88676 15.22282,25.09944 1.46211,-0.88677 q -1.16037,-2.46279 -0.92065,-3.44149 0.19179,-0.78295 1.04468,-1.30023 l 32.65364,-19.80445 q 7.06683,-4.28603 12.55149,-2.11267 5.48466,2.17335 9.91848,9.48386 4.43383,7.31052 3.82639,13.17874 -0.60744,5.86821 -7.67427,10.15425 z" style="font-weight:bold;font-size:142.5px;line-height:1.4;font-family:Copperplate;-inkscape-font-specification:'Copperplate Bold';letter-spacing:15px;white-space:pre;fill:#ffffff" id="path9799"/><path d="m 643.04604,720.25979 q 2.52384,7.26937 1.80205,10.83856 -0.8564,3.61585 -5.29878,5.15828 -4.44238,1.54233 -7.22062,-0.81171 -2.91289,-2.30716 -5.43673,-9.57653 l -7.94544,-22.88496 16.15408,-5.60854 z m -31.47414,5.79891 q 1.49562,4.30766 2.34249,7.18143 0.71227,2.92044 0.60003,4.76954 -0.11223,1.84909 -1.0901,2.94283 -0.97787,1.09373 -2.99712,1.79474 -2.01926,0.70111 -3.4645,0.4486 -1.44525,-0.25242 -2.67919,-1.63415 -1.23394,-1.38172 -2.35005,-4.16196 -1.25074,-2.73347 -2.74634,-7.04123 l -6.35636,-18.30788 12.3848,-4.2999 z m -35.98274,-30.64864 q -0.94231,0.32716 -1.71447,-0.15898 -0.86005,-0.30478 -2.0173,-2.76904 l -1.61541,0.56086 17.80713,51.28919 q 1.91626,5.51931 4.58228,9.72244 2.66603,4.20303 6.12297,6.7739 3.32233,2.61765 7.61132,3.2404 4.15439,0.66942 9.13523,-1.05988 6.05777,-2.10314 8.56514,-7.04646 2.37274,-4.89666 1.6213,-10.97118 l 0.26925,-0.0935 q 4.26826,6.21121 9.66778,9.16351 5.44625,3.08701 12.98482,0.46964 4.03852,-1.40213 7.11233,-4.27941 3.12055,-2.74268 4.64445,-7.04295 1.57064,-4.16557 1.36327,-9.97647 -0.16063,-5.6763 -2.63773,-12.81107 l -18.04083,-51.96225 -1.61541,0.56085 q 0.61879,2.65121 0.26728,3.37663 -0.4394,0.90677 -1.38173,1.23394 z" style="font-weight:bold;font-size:142.5px;line-height:1.4;font-family:Copperplate;-inkscape-font-specification:'Copperplate Bold';letter-spacing:15px;white-space:pre;fill:#ffffff" id="path9801"/></g></g><g id="g2729" style="fill:#f0cd11;fill-opacity:1" transform="translate(-1505.6803)"><path style="fill:#f0cd11;fill-opacity:1;stroke:none;stroke-width:0.075;stroke-dasharray:none" d="m 1051.3644,929.0228 -14.952,-3e-5 -18.7625,-8.28803 2.8886,-13.75458 13.0967,6.18872 V 862.2728 h 17.7292 z" id="path586" sodipodi:nodetypes="cccccccc"/><path style="fill:#f0cd11;fill-opacity:1;stroke:#00ffff;stroke-width:0.15;stroke-dasharray:none" d="m 2173.5096,861.85407 c 13.5998,2.42521 22.3548,11.38725 22.3548,22.88341 0,2.70615 -0.3282,6.06495 -0.7295,7.464 -2.4669,8.60147 -11.3595,14.21924 -23.4732,14.53287 -3.1859,0.0825 -4.4745,0.025 -6.0075,0.2343 l 1.1239,7.05412 26.0863,3e-5 v 15 h -38.8274 l -4.3655,-35.73075 8.284,0.0127 c 9.577,0.015 14.0338,-1.04137 17.0274,-4.03507 2.4582,-2.45813 2.842,-6.1974 1.0015,-9.75653 -2.1974,-4.24935 -11.3193,-5.56447 -20.995,-3.027 -2.8875,0.7572 -5.482,1.32237 -5.524,1.1202 l -2.718,-13.09635 c -0.084,-0.40607 2.8366,-1.161 5.8192,-1.7961 9.9538,-2.11957 13.1439,-2.25052 20.943,-0.8598 z" id="path584" sodipodi:nodetypes="ssssccccccsssssssss"/><path id="path576" style="fill:#f0cd11;fill-opacity:1;stroke:none;stroke-width:0.75" d="m 1092.5339,930.25324 c -16.5107,-0.21729 -24.7781,-9.12328 -25.8985,-22.09131 -1.3461,-15.58016 7.732,-22.76028 20.9868,-22.8457 4.2588,-0.0278 6.3215,0.35341 9.044,1.67139 1.9398,0.93899 3.674,1.55995 3.854,1.37988 0.1801,-0.18 -0.6414,-1.8555 -1.8252,-3.72217 -3.8555,-6.07957 -9.1959,-8.66869 -19.3931,-9.40137 l -6.6372,-0.44384 -0.1421,-13.771 c 2.0132,-0.58035 13.9392,0.14943 19.1616,1.43994 15.8439,3.91518 22.655,12.724 25.9395,25.36524 5.8205,22.40151 -1.4519,41.24114 -21.6782,42.3457 -1.1743,0.0641 -2.3109,0.0877 -3.4116,0.0732 z m 0.9331,-13.10742 c 3.8681,-0.002 7.3838,-3.37686 7.5922,-9.15674 0.1962,-5.44743 -0.3689,-9.62751 -7.1879,-9.85107 -4.0173,-0.13173 -7.1627,2.4708 -7.6568,8.73047 -0.5122,6.48937 2.8642,10.04359 6.8775,10.26709 0.1254,0.007 0.2502,0.0103 0.375,0.0102 z"/><path id="path2723" style="fill:#f0cd11;fill-opacity:1;stroke:none;stroke-width:0.75" d="m 2116.2239,930.25324 c -16.5107,-0.21729 -24.7781,-9.12328 -25.8985,-22.09131 -1.3461,-15.58016 7.732,-22.76028 20.9868,-22.8457 4.2588,-0.0278 6.3215,0.35341 9.044,1.67139 1.9398,0.93899 3.674,1.55995 3.854,1.37988 0.1801,-0.18 -0.6414,-1.8555 -1.8252,-3.72217 -3.8555,-6.07957 -9.1959,-8.66869 -19.3931,-9.40137 l -6.6372,-0.44384 -0.1421,-13.771 c 2.0132,-0.58035 13.9392,0.14943 19.1616,1.43994 15.8439,3.91518 22.655,12.724 25.9395,25.36524 5.8205,22.40151 -1.4519,41.24114 -21.6782,42.3457 -1.1743,0.0641 -2.3109,0.0877 -3.4116,0.0732 z m 0.9331,-13.10742 c 3.8681,-0.002 7.3838,-3.37686 7.5922,-9.15674 0.1962,-5.44743 -0.3689,-9.62751 -7.1879,-9.85107 -4.0173,-0.13173 -7.1627,2.4708 -7.6568,8.73047 -0.5122,6.48937 2.8642,10.04359 6.8775,10.26709 0.1254,0.007 0.2502,0.0103 0.375,0.0102 z"/></g></g></g></svg>