<svg xmlns="http://www.w3.org/2000/svg" width="76.82mm" height="90.04mm" viewBox="0 0 217.75 255.23"><defs><style>.cls-1{fill:#fff;}.cls-2,.cls-3{fill:#0093c9;}.cls-3{fill-rule:evenodd;}</style></defs><g id="Layer_2" data-name="Layer 2"><g id="Layer_1-2" data-name="Layer 1"><path class="cls-1" d="M154,16c11.73,1.56,27.16,1.84,40.11-1.14,21.55-5,23.67,8.34,23.67,15.62V241a14.23,14.23,0,0,1-14.23,14.23H14.23A14.23,14.23,0,0,1,0,241V30.46c0-9,3.53-12.77,10.57-16.19C52.68-6.18,87.87-.64,116.26,6.34,128.71,9.41,141,14.22,154,16Z"/><path class="cls-2" d="M136.38,64.19A3.87,3.87,0,1,0,132.52,68,3.86,3.86,0,0,0,136.38,64.19Z"/><path class="cls-2" d="M204.13,104.12V30.73h0a.44.44,0,0,0,0-.1A2.68,2.68,0,0,0,201.47,28a3,3,0,0,0-.6.07h0c-67.93,16.61-109.43-35.45-182.8-3h0a7.33,7.33,0,0,0-4.62,6.75h0v.06h0V102.6h0v0h0a2.67,2.67,0,0,0,2.67,2.63,2.46,2.46,0,0,0,.37,0h0a84.43,84.43,0,0,0,26.06-7.45c37.23-17.31,60.18-49.94,82.12-49.94s30.2,26.84,30.2,26.84c-11.19-5.36-22.88,9-12.58,23,9.64,13.15,33.52,19.28,55.8,13.62a3.89,3.89,0,0,0,.49-.12l.32-.07v0a7.33,7.33,0,0,0,5.24-7h0v0h0Z"/><path class="cls-3" d="M14.16,128.14a.68.68,0,0,0,.35-.1v0c78.42-41.73,121.63,26.8,189.06-7.3a.84.84,0,0,0,.55-.79.85.85,0,0,0-.85-.85.88.88,0,0,0-.28.06v0c-72.91,26.71-106.25-43-189.23,7.65h0a.71.71,0,0,0,.38,1.32Z"/><path class="cls-3" d="M203,129.06a1.21,1.21,0,0,0-.33.07v0C130.29,156.51,89.12,95.08,14,135a.86.86,0,0,0-.56.81.88.88,0,0,0,.88.88.91.91,0,0,0,.37-.08h0c74-30.71,122.06,28.9,188.74-5.41a1.08,1.08,0,0,0,.69-1A1.09,1.09,0,0,0,203,129.06Z"/><path class="cls-2" d="M14,205c-.41,0-.59-.19-.59-.62V163.3c0-.44.18-.62.59-.62H30.12c9.52,0,14.9,5.6,14.9,14.07A13.86,13.86,0,0,1,41.11,187q-3.9,3.91-11,3.92H24.2c-.23,0-.35.12-.35.37v13.14c0,.43-.18.62-.59.62ZM29.52,181.6c3.26,0,5.09-1.87,5.09-4.85s-1.83-4.8-5.09-4.8H24.2c-.23,0-.35.13-.35.38v8.9c0,.25.12.37.35.37Z"/><path class="cls-2" d="M48.45,163.3c0-.44.18-.62.59-.62H75.35c.42,0,.59.18.59.62v8c0,.44-.17.62-.59.62H59.21c-.24,0-.35.13-.35.38v6.41c0,.25.11.37.35.37H72.46c.41,0,.59.19.59.62v7.85c0,.43-.18.62-.59.62H59.21c-.24,0-.35.13-.35.37v6.79c0,.25.11.37.35.37H75.35c.42,0,.59.19.59.63v8c0,.43-.17.62-.59.62H49c-.41,0-.59-.19-.59-.62Z"/><path class="cls-2" d="M80.2,163.3c0-.44.18-.62.59-.62h8.7a.92.92,0,0,1,1,.62l12.13,24h.23v-24c0-.44.18-.62.59-.62h8.28c.42,0,.59.18.59.62v41.09c0,.43-.17.62-.59.62H103a1,1,0,0,1-1-.62L90,180.48h-.36v23.91c0,.43-.17.62-.59.62H80.79c-.41,0-.59-.19-.59-.62Z"/><path class="cls-2" d="M117.64,163.3c0-.44.17-.62.59-.62h15.55c7.57,0,12.36,3.23,14.31,9.65a43.2,43.2,0,0,1,1.18,11.51,43.29,43.29,0,0,1-1.18,11.52c-2,6.41-6.74,9.65-14.31,9.65H118.23c-.42,0-.59-.19-.59-.62ZM128,194.92c0,.25.12.38.36.38h3.13c3.73,0,5.68-1.12,6.62-4.05a29.66,29.66,0,0,0,.6-7.41,29.66,29.66,0,0,0-.6-7.41c-.94-2.92-2.89-4-6.62-4H128.4a.32.32,0,0,0-.36.37Z"/><path class="cls-2" d="M153.77,174.88c0-.43.18-.62.59-.62h9.22c.42,0,.6.19.6.62v29.51c0,.43-.18.62-.6.62h-9.22c-.41,0-.59-.19-.59-.62Z"/><path class="cls-2" d="M169.5,163.3c0-.44.17-.62.59-.62h9.22c.42,0,.6.18.6.62v16.56l11.53-16.62a1.27,1.27,0,0,1,1-.56h10.41c.47,0,.59.37.35.81l-12,16.37,12.71,24.46c.18.31.06.69-.35.69H193a.93.93,0,0,1-.94-.56l-7.81-15.94-4.31,6v9.84c0,.43-.18.62-.6.62h-9.22c-.42,0-.59-.19-.59-.62Z"/><path class="cls-2" d="M153.77,163.3c0-.44.18-.62.59-.62h9.22c.42,0,.6.18.6.62V170c0,.44-.18.62-.6.62h-9.22c-.41,0-.59-.18-.59-.62Z"/><path class="cls-2" d="M13.44,214.22c0-.28.12-.4.39-.4h9.35c5.24,0,8,2.7,8,7.2,0,3-1.17,5-3.54,5.95v.08c2.06.61,4,2.94,4,6.32,0,5.1-3.06,7.8-8.61,7.8H13.83c-.27,0-.39-.12-.39-.41Zm9.66,11.43c2.84,0,4.62-1.69,4.62-4.27s-1.71-4.3-4.62-4.3h-6a.21.21,0,0,0-.24.24v8.08a.22.22,0,0,0,.24.25Zm-6.21,12a.21.21,0,0,0,.24.24H23.3c3.1,0,4.85-1.73,4.85-4.5s-1.75-4.51-4.85-4.51H17.13a.21.21,0,0,0-.24.24Z"/><path class="cls-2" d="M36.89,214.22c0-.28.11-.4.38-.4H53.15c.27,0,.38.12.38.4v2.54c0,.28-.11.4-.38.4H40.57a.21.21,0,0,0-.23.24v8a.21.21,0,0,0,.23.24H51.24c.28,0,.39.13.39.41v2.53c0,.28-.11.4-.39.4H40.57a.21.21,0,0,0-.23.24v8.33a.21.21,0,0,0,.23.24H53.15c.27,0,.38.12.38.4v2.53c0,.29-.11.41-.38.41H37.27c-.27,0-.38-.12-.38-.41Z"/><path class="cls-2" d="M58.74,214.22c0-.28.12-.4.39-.4H61.8c.28,0,.39.12.39.4v23.37a.21.21,0,0,0,.24.24H75c.27,0,.39.12.39.4v2.53c0,.29-.12.41-.39.41H59.13c-.27,0-.39-.12-.39-.41Z"/><path class="cls-2" d="M79.62,214.22c0-.28.12-.4.39-.4H95.88c.28,0,.39.12.39.4v2.54c0,.28-.11.4-.39.4H83.31c-.16,0-.23.08-.23.24v8c0,.16.07.24.23.24H94c.27,0,.39.13.39.41v2.53c0,.28-.12.4-.39.4H83.31c-.16,0-.23.08-.23.24v8.33c0,.16.07.24.23.24H95.88c.28,0,.39.12.39.4v2.53c0,.29-.11.41-.39.41H80c-.27,0-.39-.12-.39-.41Z"/><path class="cls-2" d="M101.48,214.22c0-.28.11-.4.39-.4h8.88c4.54,0,7.41,1.93,8.62,5.83a30.17,30.17,0,0,1,.7,7.85,30.18,30.18,0,0,1-.7,7.84c-1.21,3.9-4.08,5.83-8.62,5.83h-8.88c-.28,0-.39-.12-.39-.41Zm3.45,23.37a.21.21,0,0,0,.23.24H110c3.21,0,5.19-1.25,6-3.74a25.59,25.59,0,0,0,.54-6.59,25.63,25.63,0,0,0-.54-6.6c-.82-2.49-2.8-3.74-6-3.74h-4.86a.21.21,0,0,0-.23.24Z"/><path class="cls-2" d="M141.42,241.17c-.28,0-.39-.12-.39-.41V230l-7.8-15.72c-.12-.29,0-.45.31-.45h2.75a.66.66,0,0,1,.59.4l5.9,11.71h.07l5.86-11.71a.54.54,0,0,1,.55-.4h2.67c.31,0,.43.16.31.45L144.44,230v10.77c0,.29-.11.41-.38.41Z"/><path class="cls-2" d="M156.05,214.22c0-.28.12-.4.39-.4h15.87c.28,0,.39.12.39.4v2.54c0,.28-.11.4-.39.4H159.74c-.16,0-.23.08-.23.24v8c0,.16.07.24.23.24h10.67c.27,0,.39.13.39.41v2.53c0,.28-.12.4-.39.4H159.74c-.16,0-.23.08-.23.24v8.33c0,.16.07.24.23.24h12.57c.28,0,.39.12.39.4v2.53c0,.29-.11.41-.39.41H156.44c-.27,0-.39-.12-.39-.41Z"/><path class="cls-2" d="M176.86,238.19a.4.4,0,0,1,0-.6l1.71-2.09a.34.34,0,0,1,.54,0,11.34,11.34,0,0,0,7.38,2.81c3.6,0,5.82-1.89,5.82-4.66,0-2.46-1.48-3.94-5.51-4.47l-1.33-.2c-5.16-.72-7.76-3.26-7.76-7.56a7.59,7.59,0,0,1,2.33-5.83,9,9,0,0,1,6.29-2.17,12.83,12.83,0,0,1,8,2.53.38.38,0,0,1,.08.57l-1.32,2.21a.37.37,0,0,1-.54.08,11.77,11.77,0,0,0-6.37-2.05c-3.14,0-5,1.73-5,4.42,0,2.41,1.63,3.86,5.55,4.38l1.28.21c5.16.72,7.76,3.25,7.76,7.64,0,4.94-3.46,8.24-9.63,8.24A14.26,14.26,0,0,1,176.86,238.19Z"/><path class="cls-2" d="M125.66,221c0-.28.12-.4.39-.4h2.67c.28,0,.39.12.39.4v19.73c0,.29-.11.41-.39.41h-2.67c-.27,0-.39-.12-.39-.41Z"/><path class="cls-2" d="M125.66,214.14c0-.29.12-.41.39-.41h2.67c.28,0,.39.12.39.41v3.34c0,.28-.11.4-.39.4h-2.67c-.27,0-.39-.12-.39-.4Z"/><path class="cls-2" d="M200.85,221c0-.28.12-.4.39-.4h2.68c.27,0,.39.12.39.4v19.73c0,.29-.12.41-.39.41h-2.68c-.27,0-.39-.12-.39-.41Z"/><path class="cls-2" d="M200.85,214.14c0-.29.12-.41.39-.41h2.68c.27,0,.39.12.39.41v3.34c0,.28-.12.4-.39.4h-2.68c-.27,0-.39-.12-.39-.4Z"/></g></g></svg>