<svg xmlns="http://www.w3.org/2000/svg" xmlns:xlink="http://www.w3.org/1999/xlink" width="255" height="342"><path d="M126.8 341.6c11.8-15.3 24.6-17.7 40.8-22.3 20.3-5.7 45.8-22.5 60.5-40.1 23.7-28.3 25.5-60 25.5-79.1v-170C225.7 39 178.4 58.9 126.8.4 75.1 58.9 27.9 39 0 30.1v170c0 19.1 1.8 50.8 25.5 79.1 14.7 17.6 40.2 34.3 60.5 40.1 16.2 4.6 28.9 6.9 40.8 22.3z"/><g fill="#ffe100"><path d="M33.5 145.3v132.5c7.3 8 16.8 15.7 26.8 21.9V145.3H33.5zm53.6 0v167.1c.3.1.5.2.8.2 1 .3 14.4 3.9 26 9.8V145.3H87.1zm52.8 0v176.9c11.5-5.8 24.7-9.4 25.6-9.7.4-.1.8-.2 1.2-.4V145.3h-26.8zm53.7 0v154c10-6.4 19.6-14.2 26.8-22.2V145.3h-26.8zm-138-79.5L59 76.4c.1.2.2.3.4.3l11.1-.1c.4 0 .6.5.2.7l-9 6.5c-.1.1-.2.3-.1.5L65 94.8c.1.4-.3.7-.6.5l-8.9-6.6c-.1-.1-.3-.1-.5 0l-8.9 6.6c-.3.2-.8-.1-.6-.5L49 84.3c.1-.2 0-.4-.1-.5l-9-6.5c-.3-.2-.2-.7.2-.7l11.1.1c.2 0 .3-.1.4-.3l3.3-10.6c.1-.3.6-.3.7 0zM37.7 94.3l3.3 10.6c.1.2.2.3.4.3l11.1-.1c.4 0 .6.5.2.7l-9 6.5c-.1.1-.2.3-.1.5l3.5 10.5c.1.4-.3.7-.6.5l-8.9-6.6c-.1-.1-.3-.1-.5 0l-8.9 6.6c-.3.2-.8-.1-.6-.5l3.5-10.5c.1-.2 0-.4-.1-.5l-9-6.5c-.3-.2-.2-.7.2-.7l11.1.1c.2 0 .3-.1.4-.3L37 94.3a.35.35 0 0 1 .7 0z"/><use xlink:href="#B"/><use xlink:href="#C"/><use xlink:href="#B" x="-107.3"/><use xlink:href="#D"/><path d="M127.2 65.8l3.3 10.6c.1.2.2.3.4.3l11.1-.1c.4 0 .6.5.2.7l-9 6.5c-.1.1-.2.3-.1.5l3.5 10.5c.1.4-.3.7-.6.5l-8.9-6.6c-.1-.1-.3-.1-.5 0l-8.9 6.6c-.3.2-.8-.1-.6-.5l3.5-10.5c.1-.2 0-.4-.1-.5l-9-6.5c-.3-.2-.2-.7.2-.7l11.1.1c.2 0 .3-.1.4-.3l3.3-10.6c0-.3.5-.3.7 0z"/><use xlink:href="#C" x="-107.3"/><path d="M162.9 65.8l3.3 10.6c.1.2.2.3.4.3l11.1-.1c.4 0 .6.5.2.7l-9 6.5c-.1.1-.2.3-.1.5l3.5 10.5c.1.4-.3.7-.6.5l-8.9-6.6c-.1-.1-.3-.1-.5 0l-8.9 6.6c-.3.2-.8-.1-.6-.5l3.5-10.5c.1-.2 0-.4-.1-.5l-9-6.5c-.3-.2-.2-.7.2-.7l11.1.1c.2 0 .3-.1.4-.3l3.3-10.6c.1-.3.6-.3.7 0zM145 94.3l3.3 10.6c.1.2.2.3.4.3l11.1-.1c.4 0 .6.5.2.7l-9 6.5c-.1.1-.2.3-.1.5l3.5 10.5c.1.4-.3.7-.6.5l-8.9-6.6c-.1-.1-.3-.1-.5 0l-8.9 6.6c-.3.2-.8-.1-.6-.5l3.5-10.5c.1-.2 0-.4-.1-.5l-9-6.5c-.3-.2-.2-.7.2-.7l11.1.1c.2 0 .3-.1.4-.3l3.3-10.6a.35.35 0 0 1 .7 0z"/><use xlink:href="#D" x="107.3"/></g><defs><path id="B" d="M198.7 65.8l3.3 10.6c.1.2.2.3.4.3l11.1-.1c.4 0 .6.5.2.7l-9 6.5c-.1.1-.2.3-.1.5l3.5 10.5c.1.4-.3.7-.6.5l-8.9-6.6c-.1-.1-.3-.1-.5 0l-8.9 6.6c-.3.2-.8-.1-.6-.5l3.5-10.5c.1-.2 0-.4-.1-.5l-9-6.5c-.3-.2-.2-.7.2-.7l11.1.1c.2 0 .3-.1.4-.3l3.3-10.6c0-.3.6-.3.7 0z"/><path id="C" d="M216.6 94.3l3.3 10.6c.1.2.2.3.4.3l11.1-.1c.4 0 .6.5.2.7l-9 6.5c-.1.1-.2.3-.1.5l3.5 10.5c.1.4-.3.7-.6.5l-8.9-6.6c-.1-.1-.3-.1-.5 0l-8.9 6.6c-.3.2-.8-.1-.6-.5l3.5-10.5c.1-.2 0-.4-.1-.5l-9-6.5c-.3-.2-.2-.7.2-.7l11.1.1c.2 0 .3-.1.4-.3l3.3-10.6c0-.4.5-.4.7 0z"/><path id="D" d="M73.5 94.3l3.3 10.6c.1.2.2.3.4.3l11.1-.1c.4 0 .6.5.2.7l-9 6.5c-.1.1-.2.3-.1.5l3.5 10.5c.1.4-.3.7-.6.5l-8.9-6.6c-.1-.1-.3-.1-.5 0l-8.9 6.6c-.3.2-.8-.1-.6-.5l3.5-10.5c.1-.2 0-.4-.1-.5l-9-6.5c-.3-.2-.2-.7.2-.7l11.1.1c.2 0 .3-.1.4-.3l3.3-10.6c0-.4.6-.4.7 0z"/></defs></svg>