<svg xmlns:svg="http://www.w3.org/2000/svg" xmlns="http://www.w3.org/2000/svg" version="1.0" width="300" height="210" id="svg5543">
  <defs id="defs3"/>
  <g transform="translate(-19.333743,-27.516767)" id="layer1">
    <g transform="translate(10.000001,6.6333785)" id="g5557">
      <path d="M 187.61371,116.54667 C 187.61371,104.01938 197.77478,93.863671 210.30233,93.863671 C 222.83002,93.863671 232.98806,104.01938 232.98806,116.54667 C 232.98806,129.07397 222.83002,139.23681 210.30233,139.23681 C 197.77478,139.23681 187.61371,129.07397 187.61371,116.54667 z M 210.30233,196.48915 C 183.05209,196.48915 158.98558,182.85085 144.55676,162.03377 L 170.87644,117.05232 C 171.14899,138.59584 188.69444,155.98021 210.30233,155.98021 C 232.07881,155.98021 249.73138,138.32521 249.73138,116.54667 C 249.73138,94.768139 232.07881,77.120268 210.30233,77.120268 C 196.88383,77.120268 185.02982,83.821901 177.90878,94.063076 L 106.79631,214.32218 L 70.894221,214.32218 C 49.123925,214.32218 30.79268,193.69739 30.79268,172.31056 L 83.498367,172.31056 C 87.603854,170.4019 83.498367,168.48613 83.498367,168.48613 L 70.514546,168.48613 C 29.263979,168.48613 30.410241,126.85907 30.410241,126.85907 L 110.61714,126.85907 C 114.53272,124.85784 110.61714,123.04178 110.61714,123.04178 L 72.80457,123.04178 C 29.263979,123.04178 31.55624,81.407605 31.55624,81.407605 L 137.35308,81.407605 C 140.88609,79.306668 137.35308,77.590302 137.35308,77.590302 L 69.366573,77.590302 C 30.410241,77.590302 30.79268,36.604217 30.79268,36.604217 L 210.30233,36.604217 C 254.45225,36.604217 290.24102,72.398497 290.24102,116.54667 C 290.24102,160.69487 254.45225,196.48915 210.30233,196.48915 z M 271.0945,55.754796 C 254.85943,39.517039 233.26666,30.572023 210.30233,30.572023 L 23.16089,30.572023 C 23.311312,47.208603 26.035758,60.718704 37.967807,72.291662 L 40.674223,74.919616 L 23.156679,74.919616 C 23.219453,91.228597 24.44494,103.9268 36.118785,116.66063 L 38.466846,119.21736 L 22.394697,119.21736 C 22.504586,134.63611 24.397169,151.54331 36.036007,162.41122 L 38.867972,165.05341 L 22.784637,165.05341 C 23.062319,182.92207 28.318938,197.46484 38.035188,207.18611 C 47.329913,216.4801 60.44231,221.19474 77.004943,221.19474 L 110.12112,221.19474 L 141.22892,167.79532 L 142.61588,169.56865 C 159.04691,190.50682 183.71945,202.52133 210.30233,202.52133 C 257.70968,202.52133 296.27831,163.95666 296.27831,116.54667 C 296.27831,93.585923 287.33576,71.992555 271.0945,55.754796" id="path685" style="fill:#ffffff;fill-rule:nonzero;stroke:none"/>
      <path d="M 210.30233,93.863671 C 197.77478,93.863671 187.61371,104.01938 187.61371,116.54667 C 187.61371,129.07397 197.77478,139.23681 210.30233,139.23681 C 222.83002,139.23681 232.98806,129.07397 232.98806,116.54667 C 232.98806,104.01938 222.83002,93.863671 210.30233,93.863671" id="path687" style="fill:#f36432;fill-rule:nonzero;stroke:none"/>
      <path d="M 210.30233,202.52133 C 183.71945,202.52133 159.04691,190.50682 142.61588,169.56865 L 141.22892,167.79532 L 110.12112,221.19474 L 77.004943,221.19474 C 60.44231,221.19474 47.329913,216.4801 38.035188,207.18611 C 28.318938,197.46484 23.062319,182.92207 22.784637,165.05341 L 38.867972,165.05341 L 36.036007,162.41122 C 24.397169,151.54331 22.504586,134.63611 22.394697,119.21736 L 38.466846,119.21736 L 36.118785,116.66063 C 24.44494,103.9268 23.219453,91.228597 23.156679,74.919616 L 40.674223,74.919616 L 37.967807,72.291662 C 26.035758,60.718704 23.311312,47.208603 23.16089,30.572023 L 210.30233,30.572023 C 233.26666,30.572023 254.85943,39.517039 271.0945,55.754796 C 287.33576,71.992555 296.27831,93.585923 296.27831,116.54667 C 296.27831,163.95666 257.70968,202.52133 210.30233,202.52133 z M 273.25595,53.589756 C 256.44221,36.77513 234.08405,27.516767 210.30233,27.516767 L 20.098225,27.516767 L 20.098225,29.047954 C 20.098225,43.711792 21.769188,58.966739 33.317483,71.85724 L 20.098225,71.85724 L 20.098225,73.388428 C 20.098225,89.512231 20.993388,103.05794 31.655337,116.1621 L 19.333743,116.1621 L 19.333743,117.69329 C 19.333743,132.99809 20.840334,150.01924 31.390815,161.99816 L 19.716708,161.99816 L 19.716181,163.52222 C 19.70947,182.92207 25.296938,198.76813 35.87374,209.34404 C 45.76239,219.23624 59.600314,224.25001 77.004943,224.25001 L 111.87842,224.25001 L 141.6178,173.19366 C 158.61828,193.79709 183.52046,205.57658 210.30233,205.57658 C 234.08405,205.57658 256.44221,196.31822 273.25595,179.50359 C 290.0727,162.68897 299.33374,140.32644 299.33374,116.54667 C 299.33374,92.766905 290.0727,70.411502 273.25595,53.589756" id="path689" style="fill:#231f20;fill-rule:nonzero;stroke:none"/>
      <path d="M 210.30233,36.604217 L 30.79268,36.604217 C 30.79268,36.604217 30.410241,77.590302 69.366573,77.590302 L 137.35308,77.590302 C 137.35308,77.590302 140.88609,79.306668 137.35308,81.407605 L 31.55624,81.407605 C 31.55624,81.407605 29.263979,123.04178 72.80457,123.04178 L 110.61714,123.04178 C 110.61714,123.04178 114.53272,124.85784 110.61714,126.85907 L 30.410241,126.85907 C 30.410241,126.85907 29.263979,168.48613 70.514546,168.48613 L 83.498367,168.48613 C 83.498367,168.48613 87.603854,170.4019 83.498367,172.31056 L 30.79268,172.31056 C 30.79268,193.69739 49.123925,214.32218 70.894221,214.32218 L 106.79631,214.32218 L 177.90878,94.063076 C 185.02982,83.821901 196.88383,77.120268 210.30233,77.120268 C 232.07881,77.120268 249.73138,94.768139 249.73138,116.54667 C 249.73138,138.32521 232.07881,155.98021 210.30233,155.98021 C 188.69444,155.98021 171.14899,138.59584 170.87644,117.05232 L 144.55676,162.03377 C 158.98558,182.85085 183.05209,196.48915 210.30233,196.48915 C 254.45225,196.48915 290.24102,160.69487 290.24102,116.54667 C 290.24102,72.398497 254.45225,36.604217 210.30233,36.604217" id="path691" style="fill:#231f20;fill-rule:nonzero;stroke:none"/>
      <path d="M 144.08536,198.39066 C 141.21365,198.39066 138.88691,196.06183 138.88691,193.19174 C 138.88691,190.32164 141.21365,187.9928 144.08536,187.9928 C 146.95707,187.9928 149.28381,190.32164 149.28381,193.19174 C 149.28381,196.06183 146.95707,198.39066 144.08536,198.39066 z M 144.08536,186.57557 C 140.42996,186.57557 137.46639,189.53824 137.46639,193.19174 C 137.46639,196.84524 140.42996,199.80791 144.08536,199.80791 C 147.73774,199.80791 150.70433,196.84524 150.70433,193.19174 C 150.70433,189.53824 147.73774,186.57557 144.08536,186.57557" id="path693" style="fill:#231f20;fill-rule:nonzero;stroke:none"/>
      <path d="M 144.55676,192.48668 L 142.78723,192.48668 L 142.78723,190.83441 L 144.55676,190.83441 C 145.01303,190.83441 145.38336,191.20475 145.38336,191.65342 C 145.38336,192.10923 145.01303,192.48668 144.55676,192.48668 z M 146.80086,191.65342 C 146.80086,190.41423 145.79673,189.41005 144.55676,189.41005 L 141.36671,189.41005 L 141.36671,196.97343 L 142.78723,196.97343 L 142.78723,193.90392 L 143.80373,193.90392 L 145.23649,196.97343 L 146.80402,196.97343 L 145.30993,193.76861 C 146.17943,193.46237 146.80086,192.62911 146.80086,191.65342" id="path695" style="fill:#231f20;fill-rule:nonzero;stroke:none"/>
    </g>
  </g>
</svg>