<svg xmlns:dc="http://purl.org/dc/elements/1.1/" xmlns:cc="http://creativecommons.org/ns#" xmlns:rdf="http://www.w3.org/1999/02/22-rdf-syntax-ns#" xmlns:svg="http://www.w3.org/2000/svg" xmlns="http://www.w3.org/2000/svg" xmlns:sodipodi="http://sodipodi.sourceforge.net/DTD/sodipodi-0.dtd" xmlns:inkscape="http://www.inkscape.org/namespaces/inkscape" viewBox="0 0 252.00095 252" height="252" width="252.00095" xml:space="preserve" id="svg2" version="1.1" sodipodi:docname="GKS_Piast_Gliwice.svg" inkscape:version="0.92.4 (5da689c313, 2019-01-14)"><sodipodi:namedview pagecolor="#ffffff" bordercolor="#666666" borderopacity="1" objecttolerance="10" gridtolerance="10" guidetolerance="10" inkscape:pageopacity="0" inkscape:pageshadow="2" inkscape:window-width="1366" inkscape:window-height="705" id="namedview127" showgrid="false" fit-margin-top="1" fit-margin-right="1" fit-margin-bottom="1" fit-margin-left="1" inkscape:zoom="0.31161973" inkscape:cx="217.38041" inkscape:cy="378.69051" inkscape:window-x="-8" inkscape:window-y="-8" inkscape:window-maximized="1" inkscape:current-layer="svg2"/><metadata id="metadata8"><rdf:RDF><cc:Work rdf:about=""><dc:format>image/svg+xml</dc:format><dc:type rdf:resource="http://purl.org/dc/dcmitype/StillImage"/><dc:title/></cc:Work></rdf:RDF></metadata><defs id="defs6"/><g transform="matrix(0.44097242,0,0,-0.44097242,0.92401264,251.32284)" id="g10"><g transform="scale(0.1)" id="g12"><path id="path14" style="fill:#cfa550;fill-opacity:1;fill-rule:evenodd;stroke:none" d="m 1229.08,5676.61 h 3214.6 c 93.61,-6.48 182.19,-19.44 265.72,-38.88 398.94,-92.89 650.27,-328.35 796.45,-637.98 143.3,-303.87 182.91,-678.31 158.42,-1055.62 -12.96,-208.11 -46.08,-417.65 -91.45,-618.54 C 5432.4,2709.21 5129.95,1935.85 4691.4,1287.79 4342.14,770.777 3905.75,332.977 3395.91,116.953 3052.41,-29.2227 2620.35,-29.2227 2276.85,116.953 1767.01,332.977 1330.62,770.777 981.359,1287.79 542.809,1935.85 240.359,2709.21 99.9375,3325.59 54.5742,3526.48 21.4453,3736.02 8.48438,3944.13 -16,4321.44 23.6055,4695.88 166.91,4999.75 c 146.184,309.63 397.504,545.09 796.449,637.98 83.531,19.44 172.101,32.4 265.721,38.88" inkscape:connector-curvature="0"/><path id="path16" style="fill:#ffffff;fill-opacity:1;fill-rule:evenodd;stroke:none" d="m 1236.28,5566.44 c -90.01,-5.76 -172.83,-18 -248.436,-36 -362.219,-84.25 -590.496,-297.39 -723,-578.22 C 130.184,4667.07 93.457,4312.08 116.5,3950.61 130.184,3747.54 161.871,3543.77 205.797,3350.07 343.34,2745.21 640.746,1985.54 1070.66,1349.71 1409.11,848.543 1830.38,425.863 2318.62,217.766 c 316.85,-134.6566 718.67,-134.6566 1035.52,0 488.24,208.097 909.51,630.777 1247.97,1131.944 429.9,635.83 727.31,1395.5 864.85,2000.36 43.93,193.7 75.61,397.47 89.3,600.54 23.04,361.47 -13.69,716.46 -148.35,1001.61 -132.5,280.83 -360.77,493.97 -723,578.22 -75.61,18 -158.42,30.24 -248.43,36 h -3200.2" inkscape:connector-curvature="0"/><path id="path18" style="fill:#cfa550;fill-opacity:1;fill-rule:evenodd;stroke:none" d="m 2351.02,1092.65 c -254.2,182.18 -465.91,424.84 -645.22,693.43 -331.98,496.85 -611.38,1124.02 -747.484,1709.44 -72.011,310.35 -102.257,629.34 -54.726,926.73 38.164,236.18 162.02,361.48 406.86,361.48 H 4362.3 c 244.84,0 368.7,-125.3 406.87,-361.48 47.53,-297.39 17.28,-616.38 -54.73,-926.73 -136.1,-585.42 -415.51,-1212.59 -747.48,-1709.44 -179.31,-268.59 -391.02,-511.25 -645.22,-693.43 -349.26,-250.587 -621.46,-250.587 -970.72,0" inkscape:connector-curvature="0"/><path id="path20" style="fill:#ed1c24;fill-opacity:1;fill-rule:evenodd;stroke:none" d="m 2845.74,1014.88 c 130.34,2.88 261.4,58.33 413.35,167.78 241.96,173.54 445.03,406.84 617.86,664.62 325.49,486.77 599.13,1100.27 731.64,1672.72 69.12,298.11 98.65,602.7 54,884.25 -29.52,183.62 -109.45,270.02 -300.29,270.02 H 2845.74 V 1014.88" inkscape:connector-curvature="0"/><path id="path22" style="fill:#2350a9;fill-opacity:1;fill-rule:evenodd;stroke:none" d="m 1795.81,1847.28 c 172.83,-257.78 375.9,-491.08 617.86,-664.62 151.95,-109.45 283.01,-164.9 413.35,-167.78 V 4674.27 H 1310.45 c -190.82,0 -270.76,-86.4 -300.28,-270.02 -44.654,-281.55 -15.127,-586.14 54.01,-884.25 132.5,-572.45 406.14,-1185.95 731.63,-1672.72" inkscape:connector-curvature="0"/><path id="path24" style="fill:#cfa550;fill-opacity:1;fill-rule:evenodd;stroke:none" d="m 1186.59,5119.28 120.27,178.58 -208.84,-60.49 -136.102,170.66 -2.879,-218.9 -199.473,-81.37 201.633,-66.97 5.039,-215.3 136.102,171.38 203.79,-52.57 -119.54,174.98" inkscape:connector-curvature="0"/><path id="path26" style="fill:#cfa550;fill-opacity:1;fill-rule:evenodd;stroke:none" d="m 4486.16,5119.28 -120.25,178.58 208.83,-60.49 136.1,170.66 2.88,-218.9 199.47,-81.37 -201.63,-66.97 -5.04,-215.3 -136.1,171.38 -203.79,-52.57 119.53,174.98" inkscape:connector-curvature="0"/><path id="path28" style="fill:#cfa550;fill-opacity:1;fill-rule:evenodd;stroke:none" d="m 1539.45,960.875 23.76,25.922 24.49,-22.32 c 9.36,-8.641 18,-12.961 23.76,-12.961 6.49,0 14.41,5.039 23.77,15.843 l 226.83,254.901 c 9.37,10.8 14.4,19.44 13.69,25.92 -0.73,6.48 -5.77,14.41 -15.13,23.77 l -24.48,22.32 23.04,25.92 185.07,-169.94 -23.04,-25.92 -23.76,22.33 c -10.09,8.64 -18.01,12.95 -24.49,12.95 -6.48,0 -14.4,-5.75 -23.76,-16.56 l -120.26,-134.65 218.91,18.73 c 9.36,1.43 16.57,2.16 20.88,4.32 4.33,1.43 7.93,3.59 10.81,7.19 5.04,6.49 6.48,12.97 3.6,21.61 -2.88,7.92 -9.36,17.28 -20.16,26.64 l -14.41,12.96 23.05,25.92 164.9,-150.493 -23.04,-25.922 c -15.84,14.399 -32.41,24.481 -48.97,29.524 -17.28,5.758 -38.88,7.199 -66.25,5.758 l -116.66,-7.918 -50.4,-292.348 c -1.45,-9.363 -1.45,-18.723 1.44,-25.926 2.16,-7.918 7.2,-15.121 14.4,-21.601 l 7.2,-6.481 -23.77,-26.64 -178.58,162.734 23.76,26.645 12.96,-12.243 c 9.36,-7.921 17.28,-13.679 23.77,-15.839 6.48,-2.165 10.8,-1.442 15.12,2.878 2.88,3.602 5.76,12.239 7.92,25.922 v 0.719 l 32.4,174.981 -79.93,-7.204 -65.53,-74.168 c -10.08,-10.8 -14.4,-19.441 -13.68,-25.203 0,-6.48 5.76,-13.679 15.12,-23.043 l 24.49,-22.32 -23.05,-26.644 z m 855.5,-628.621 92.89,156.976 -28.08,18.723 c -36.73,-41.765 -72.01,-66.25 -106.58,-73.449 -34.56,-6.481 -74.89,2.16 -121.7,28.082 -20.16,10.805 -31.68,19.445 -34.56,25.922 -2.88,6.48 -0.72,15.844 6.48,28.805 l 157.71,300.988 c 6.48,12.965 12.96,20.164 19.44,21.601 6.48,2.161 15.12,0 26.64,-6.48 l 37.45,-19.442 15.84,30.965 -231.16,123.852 -15.84,-30.242 29.52,-16.563 c 11.53,-6.48 18.73,-12.238 20.89,-18.722 1.44,-5.762 -0.72,-15.122 -7.2,-28.082 L 2097.54,572.039 c -7.2,-12.242 -12.96,-19.445 -19.44,-21.605 -5.76,-1.438 -15.12,0.722 -26.65,7.203 l -29.52,15.84 -16.56,-30.961 z m 341.34,421.242 -3.61,-34.562 -32.4,3.597 c -13.69,1.442 -22.32,0 -27.37,-4.32 -5.04,-4.32 -8.64,-12.957 -10.08,-27.363 l -25.2,-243.379 c -5.04,-44.649 1.44,-77.77 17.28,-100.094 16.57,-21.602 44.65,-35.281 84.98,-38.883 17.28,-2.16 33.84,-1.441 48.96,2.16 15.13,2.879 28.09,8.641 38.89,16.559 12.96,9.363 22.32,22.324 28.8,38.168 7.2,16.559 12.25,44.641 16.57,84.969 l 18,174.976 c 2.88,28.801 0,49.684 -8.65,61.207 -9.35,11.52 -26.64,18.723 -51.12,21.602 l -4.32,0.719 3.6,34.562 180.03,-19.441 -3.6,-34.563 c -24.49,0.719 -41.77,-4.32 -52.57,-13.683 -10.09,-9.36 -17.28,-27.36 -20.16,-55.442 l -18.73,-180.019 c -3.6,-38.164 -7.92,-65.528 -13.68,-82.086 -5.04,-16.563 -12.96,-30.246 -22.33,-42.489 -19.44,-23.761 -43.2,-40.32 -72.72,-49.683 -30.25,-8.641 -66.25,-11.52 -109.46,-6.481 -64.81,6.481 -111.62,25.203 -141.86,56.164 -30.25,30.243 -42.49,72.731 -36.73,126.012 l 27.36,261.387 c 1.45,14.402 0,23.762 -4.32,28.801 -4.32,5.043 -12.96,8.644 -25.92,10.086 l -33.13,3.597 3.6,34.563 z m 498.31,-440.683 241.24,129.613 c 58.33,31.683 97.22,64.808 117.38,100.09 19.44,35.281 20.16,72.004 0.72,109.449 -16.56,30.965 -42.49,49.683 -77.05,56.168 -35.29,6.48 -74.89,0 -120.26,-20.883 37.44,26.641 61.21,53.285 72.01,80.648 11.52,27.364 9.36,55.446 -6.48,84.25 -17.28,33.122 -43.21,51.122 -77.77,55.442 -34.57,3.601 -76.34,-7.922 -124.59,-33.844 l -249.87,-134.652 16.56,-30.242 30.96,16.562 c 12.25,6.477 20.89,8.637 27.37,7.199 5.76,-2.16 12.24,-9.359 19.44,-22.32 l 158.43,-302.434 c 7.2,-12.957 9.36,-22.316 7.2,-28.082 -2.16,-6.48 -9.36,-12.961 -20.88,-18.718 l -30.97,-17.282 z m 125.3,162.015 -66.97,127.453 c 2.16,2.16 5.04,4.321 7.2,5.758 2.89,1.441 7.21,3.602 12.96,6.481 l 7.93,5.043 c 28.8,15.121 49.68,24.48 63.37,28.085 12.96,4.317 25.2,5.04 36.72,2.879 12.25,-2.879 23.77,-7.922 33.85,-16.562 10.8,-9.36 19.44,-20.164 26.64,-34.563 16.56,-31.683 20.88,-58.328 12.96,-79.929 -7.92,-21.602 -29.52,-41.762 -65.52,-61.207 -21.61,-11.52 -36.01,-15.84 -43.22,-13.68 -7.91,2.16 -16.56,12.242 -25.92,30.242 z M 3207.96,765.02 c -7.2,13.679 -10.08,23.757 -7.2,30.242 2.16,6.48 12.96,14.398 30.96,23.758 33.13,18.003 59.77,24.484 79.21,19.445 19.45,-4.32 36.73,-21.606 51.85,-51.125 15.85,-29.524 18.73,-54.727 10.09,-74.887 -9.37,-20.883 -33.85,-41.765 -74.18,-63.367 -5.76,-2.883 -10.08,-5.043 -13.68,-7.203 -3.6,-1.438 -7.2,-2.879 -10.08,-4.32 l -66.97,127.457" inkscape:connector-curvature="0"/><path id="path30" style="fill:#cfa550;fill-opacity:1;fill-rule:evenodd;stroke:none" d="m 416.789,4301.28 c 13.684,-1.44 23.043,0 28.805,3.6 5.043,4.32 8.64,12.96 10.082,25.92 l 3.601,36 33.844,-3.6 -24.484,-237.62 -34.563,3.6 2.879,25.93 c 1.438,12.96 0,22.32 -4.32,27.36 -4.32,5.04 -13.684,8.64 -26.645,10.08 l -163.468,17.28 3.601,30.96 68.41,27.37 c -19.441,19.44 -33.125,43.92 -41.765,72 -8.641,28.81 -11.524,58.33 -7.922,90.01 2.883,26.65 9.363,51.85 19.445,75.61 10.801,23.04 24.484,44.65 41.047,63.36 25.922,28.81 56.887,48.97 92.894,61.21 36.004,12.96 76.333,16.56 120.258,11.52 41.766,-4.32 79.215,-16.56 111.617,-37.44 33.125,-20.16 60.493,-47.53 80.657,-82.09 13.683,-21.6 23.043,-46.8 28.086,-74.17 5.757,-27.36 6.48,-56.88 3.597,-88.56 -2.879,-28.09 -8.64,-52.57 -17.281,-73.45 C 736.52,4266 725,4247.99 710.598,4233.59 l 29.527,-41.04 -3.605,-29.53 -186.508,12.97 0.718,33.84 c 51.129,8.64 92.176,25.92 123.141,51.85 30.965,25.2 48.25,56.88 51.848,93.61 4.32,44.64 -9.36,79.2 -42.489,104.41 -32.402,25.2 -85.691,41.76 -159.144,49.68 -72.731,7.92 -127.461,3.6 -163.465,-11.52 -35.285,-15.84 -55.449,-43.93 -59.769,-85.69 -2.883,-30.96 3.601,-56.17 20.882,-74.89 16.563,-19.44 42.489,-30.24 77.051,-34.56 l 18.004,-1.44" inkscape:connector-curvature="0"/><path id="path32" style="fill:#cfa550;fill-opacity:1;fill-rule:evenodd;stroke:none" d="m 291.488,3665.46 -46.086,445 34.567,3.6 3.601,-33.84 c 1.442,-13.68 5.039,-22.33 9.36,-26.65 5.039,-4.32 14.402,-5.76 28.086,-3.59 l 337.015,35.28 c 14.403,2.16 23.762,5.04 27.36,10.08 4.324,5.04 5.043,14.4 4.324,27.36 l -3.602,34.57 33.844,3.59 27.367,-263.54 -33.847,-3.6 -4.321,41.76 c -1.437,12.97 -5.039,21.61 -10.082,25.93 -5.039,4.32 -14.402,5.76 -28.082,4.32 l -335.574,-35.29 c -13.684,-1.44 -23.047,-5.04 -26.645,-11.52 -4.32,-5.76 -5.039,-20.16 -2.16,-43.2 5.039,-54.01 20.164,-92.89 45.364,-118.09 24.488,-24.49 64.812,-41.05 119.543,-48.25 v -33.84 l -180.032,-10.08" inkscape:connector-curvature="0"/><path id="path34" style="fill:#cfa550;fill-opacity:1;fill-rule:evenodd;stroke:none" d="m 820.773,3447.28 -33.843,-7.92 -7.2,37.44 c -2.882,12.96 -7.203,21.6 -12.246,24.48 -5.039,3.6 -15.121,4.32 -28.804,1.44 l -331.25,-71.29 c -14.403,-3.6 -23.047,-7.2 -25.926,-12.96 -3.602,-5.04 -3.602,-14.4 -0.719,-27.36 l 7.922,-37.44 -34.566,-7.21 -54.012,257.79 34.566,7.2 7.203,-36 c 2.879,-13.68 6.481,-21.61 12.243,-25.2 5.039,-3.61 14.402,-4.32 28.082,-1.45 l 331.254,71.29 c 14.402,3.6 23.043,7.92 26.648,12.96 2.879,5.76 3.598,15.13 0.719,28.09 l -7.922,36 33.844,7.2 54.007,-257.06" inkscape:connector-curvature="0"/><path id="path36" style="fill:#cfa550;fill-opacity:1;fill-rule:evenodd;stroke:none" d="m 841.656,3147.73 c 10.086,7.2 15.844,14.4 18.723,19.44 2.164,5.76 2.164,11.52 0,18 l -3.598,10.8 33.125,10.8 60.492,-187.94 -33.125,-10.79 -2.882,10.07 c -3.602,9.36 -7.203,15.85 -11.524,19.44 -4.316,3.61 -9.359,3.61 -16.562,1.45 -2.879,-0.72 -6.481,-2.16 -9.364,-3.61 -3.597,-2.15 -6.476,-4.31 -9.359,-6.48 l -198.031,-141.85 209.551,2.88 c 7.203,0 13.683,0 20.886,1.44 6.481,0.72 12.961,2.16 18.004,4.32 11.52,3.6 18.004,9.36 21.602,17.28 2.883,8.65 1.441,20.16 -2.879,34.57 l -5.762,18 32.406,10.8 51.851,-159.85 -32.409,-10.8 -0.719,1.44 c -5.043,15.12 -12.242,25.92 -23.043,31.68 -10.086,5.76 -26.644,8.64 -48.25,8.64 l -416.945,-5.04 -14.403,44.64 234.758,167.06 -287.328,-2.16 -14.402,46.08 360.777,273.63 c 8.645,6.48 14.402,12.96 16.563,18 1.441,5.04 1.441,11.52 -0.719,18.72 l -5.039,15.12 32.402,10.8 64.094,-197.29 -33.125,-10.81 -3.606,11.53 c -2.878,8.64 -6.48,14.4 -10.796,18 -4.321,2.88 -9.364,3.6 -15.844,1.44 -2.16,-0.72 -5.039,-2.16 -8.645,-4.32 -2.879,-1.44 -6.48,-3.6 -10.801,-6.48 l -200.914,-152.66 174.989,1.44 69.851,52.57" inkscape:connector-curvature="0"/><path id="path38" style="fill:#cfa550;fill-opacity:1;fill-rule:evenodd;stroke:none" d="m 1126.11,2554.39 -31.69,-13.68 -15.12,35.28 c -5.04,12.24 -10.09,19.45 -15.85,21.61 -5.75,2.88 -15.84,1.44 -28.8,-4.33 L 722.84,2459.34 c -12.961,-5.76 -20.887,-11.52 -23.043,-17.28 -2.16,-5.76 -0.723,-15.12 4.32,-27.36 l 15.121,-35.29 -32.402,-13.68 -101.539,241.95 32.406,14.4 13.68,-34.56 c 5.765,-12.25 10.805,-19.45 16.562,-22.33 5.766,-2.16 15.125,-0.72 28.086,5.04 l 311.813,133.93 c 13.676,5.77 20.886,11.53 23.766,17.29 2.16,6.48 0.71,15.12 -4.32,28.08 l -14.407,33.85 31.687,13.67 101.54,-242.66" inkscape:connector-curvature="0"/><path id="path40" style="fill:#cfa550;fill-opacity:1;fill-rule:evenodd;stroke:none" d="m 1054.09,1966.09 c -56.168,-15.12 -105.137,-13.68 -148.34,5.04 -42.488,18.01 -77.051,53.29 -102.977,104.42 -12.964,25.2 -21.605,51.12 -25.925,77.04 -3.602,25.93 -3.602,51.13 0.722,77.05 7.2,38.88 22.321,74.16 46.086,105.13 23.766,30.25 54.727,55.44 92.895,75.61 29.523,15.12 59.769,24.48 90.739,28.08 30.96,4.32 61.21,2.16 91.45,-5.76 33.85,-9.36 62.65,-24.49 87.85,-46.09 25.21,-21.59 46.09,-49.68 64.1,-84.97 10.79,-21.59 18,-43.2 22.32,-64.08 3.6,-20.88 4.32,-42.48 0.72,-64.09 l 47.53,-17.28 12.24,-25.2 -167.07,-96.49 -17.28,28.8 c 41.05,37.45 68.41,74.89 81.37,110.9 12.96,36 10.8,70.56 -5.76,103.69 -19.44,38.88 -48.97,59.76 -87.13,62.64 -38.89,2.16 -91.46,-13.68 -157.708,-47.53 -67.692,-35.28 -110.899,-69.12 -130.34,-102.96 -19.445,-33.13 -18.723,-72.01 2.879,-114.49 17.281,-33.85 41.766,-56.17 75.609,-68.41 33.129,-12.24 73.45,-13.68 120.26,-2.88 l 5.76,-38.17" inkscape:connector-curvature="0"/><path id="path42" style="fill:#cfa550;fill-opacity:1;fill-rule:evenodd;stroke:none" d="M 942.477,1828.56 972,1848 l 18.004,-28.08 c 7.199,-10.8 13.686,-17.28 19.446,-19.44 6.48,-1.44 15.84,2.16 27.36,10.08 l 284.45,186.5 c 11.52,7.92 18.72,15.12 19.44,21.6 1.44,6.48 -1.44,15.12 -8.64,26.64 l -18.01,27.36 28.81,19.45 136.1,-212.42 -28.8,-18.73 -18.01,27.36 c -7.2,11.53 -13.68,17.29 -20.16,18.73 -6.48,1.44 -15.84,-1.44 -27.36,-9.36 l -150.51,-98.65 216.76,-38.88 c 9.36,-2.16 15.84,-2.89 20.16,-2.16 5.04,0.71 8.64,2.16 12.24,4.31 7.2,5.05 10.08,11.53 9.36,20.17 -0.72,8.64 -4.32,18.72 -12.24,30.96 l -10.8,16.56 28.81,18.72 120.98,-188.66 -28.81,-18.72 c -11.52,18 -25.2,31.69 -40.33,41.05 -14.4,10.07 -35.28,17.28 -62.65,23.04 l -113.78,23.04 -123.86,-269.31 c -4.32,-8.64 -5.76,-17.28 -5.04,-25.92 0,-7.92 2.88,-15.84 8.65,-24.48 l 5.04,-7.92 -29.53,-18.72 -131.06,203.06 29.53,19.44 10.08,-15.12 c 6.48,-10.08 12.24,-17.29 18,-20.89 5.76,-4.32 10.8,-4.32 15.12,-1.43 4.32,2.16 8.64,10.07 14.41,22.32 l 0.72,0.72 75.6,161.29 -78.48,13.69 -82.82,-54.01 c -12.24,-8.64 -18.72,-15.12 -19.44,-21.6 -1.44,-5.77 2.16,-14.4 9.36,-25.93 l 18,-28.08 -29.52,-19.44 -136.103,212.42" inkscape:connector-curvature="0"/><path id="path44" style="fill:#cfa550;fill-opacity:1;fill-rule:evenodd;stroke:none" d="m 1781.41,1441.88 -27.36,-21.6 -23.05,30.24 c -7.92,10.08 -15.12,15.85 -21.6,16.57 -6.48,0.71 -15.12,-2.88 -26.65,-12.25 l -266.44,-210.98 c -11.52,-9.36 -18,-16.56 -18,-23.04 -0.72,-5.76 2.88,-14.4 10.8,-24.48 l 23.77,-30.25 -28.09,-22.32 -159.87,207.39 27.37,22.32 23.04,-29.53 c 7.92,-10.08 15.12,-15.84 21.6,-17.28 5.77,-0.72 14.41,3.6 25.93,12.24 l 266.44,210.98 c 11.52,9.36 17.29,16.56 18,23.04 0.72,6.49 -2.87,15.13 -10.8,25.93 l -22.32,28.8 26.64,21.6 160.59,-207.38" inkscape:connector-curvature="0"/><path id="path46" style="fill:#cfa550;fill-opacity:1;fill-rule:evenodd;stroke:none" d="m 3868.3,712.453 -137.54,135.371 24.49,23.762 c 49.68,-25.203 95.05,-36.723 136.1,-34.563 41.04,2.161 76.33,17.282 105.13,45.368 20.89,20.16 32.41,41.043 34.57,62.644 2.16,21.602 -5.04,41.043 -21.6,59.045 -7.2,7.2 -15.84,12.96 -25.21,15.84 -9.36,3.6 -18.72,4.32 -27.36,3.6 -13.68,-2.88 -39.61,-15.12 -78.49,-38.883 -14.41,-8.641 -25.21,-15.117 -33.85,-19.442 -52.57,-30.965 -96.49,-46.804 -131.06,-47.523 -34.57,-0.719 -65.53,13.68 -93.61,42.484 -29.53,31.684 -43.21,68.404 -39.61,111.614 3.6,42.48 23.04,81.37 59.05,116.65 15.84,15.84 33.12,28.8 51.85,38.88 18.72,10.08 39.6,17.28 61.93,21.6 l 1.44,47.53 20.88,20.16 126.74,-121.69 -22.33,-21.6 c -52.56,20.16 -95.77,29.52 -129.61,28.08 -33.85,-1.44 -63.37,-14.4 -87.86,-38.88 -20.16,-19.45 -30.96,-39.61 -33.85,-59.05 -2.16,-20.88 4.32,-38.88 20.17,-54.73 22.32,-23.76 66.25,-15.11 131.78,25.21 12.24,7.92 21.6,13.68 28.09,17.28 30.96,19.44 55.44,31.68 72.01,38.16 16.56,5.76 32.4,8.64 48.24,7.92 18.73,0 37.45,-4.32 55.45,-12.96 18.72,-8.64 35.29,-20.88 51.13,-37.44 32.41,-33.85 47.53,-72.01 43.93,-113.773 -2.88,-42.484 -23.04,-82.086 -61.21,-119.531 -20.16,-19.441 -41.05,-34.566 -61.21,-44.645 -20.88,-10.8 -43.21,-17.285 -67.69,-20.882 l -0.72,-56.168 -20.17,-19.438" inkscape:connector-curvature="0"/><path id="path48" style="fill:#cfa550;fill-opacity:1;fill-rule:evenodd;stroke:none" d="m 4239.16,1218.66 c 11.53,-8.64 20.17,-12.96 25.93,-12.24 5.76,0.72 12.96,6.48 21.61,17.28 l 25.19,33.12 28.09,-22.32 -161.31,-208.82 -28.08,22.32 22.32,28.09 c 7.93,10.8 11.53,19.44 11.53,25.92 -0.73,5.76 -6.49,13.68 -18.01,22.32 l -266.44,211.7 c -11.52,8.64 -20.17,12.97 -26.65,11.52 -6.47,-0.71 -13.68,-6.48 -22.32,-17.28 l -21.6,-28.08 -27.37,21.6 180.03,232.59 c 36.73,47.52 73.46,76.32 110.18,86.4 37.45,10.08 73.45,1.44 108.02,-25.92 37.45,-29.52 53.29,-65.52 48.97,-108.01 -4.32,-42.48 -29.53,-93.61 -75.62,-153.37 -10.8,-13.69 -18.72,-23.77 -24.48,-31.69 -5.76,-7.2 -11.52,-13.68 -16.56,-20.16 z m -261.4,207.38 125.3,-99.37 c 2.88,2.88 6.49,6.48 10.08,10.8 3.61,4.32 7.2,8.64 12.25,14.41 28.8,38.16 43.92,69.12 43.2,92.88 -0.71,23.77 -15.84,47.53 -46.09,71.29 -28.8,23.04 -54.72,33.13 -76.33,29.52 -21.6,-2.88 -44.65,-20.88 -69.13,-52.56 -14.4,-18 -20.88,-30.96 -20.88,-38.88 0,-7.93 7.2,-17.29 21.6,-28.09" inkscape:connector-curvature="0"/><path id="path50" style="fill:#cfa550;fill-opacity:1;fill-rule:evenodd;stroke:none" d="m 4368.07,1701.11 c 61.93,-38.89 112.34,-59.77 151.94,-61.93 40.33,-2.16 70.57,13.68 91.45,48.25 20.89,33.84 21.61,68.41 2.17,104.41 -20.17,35.28 -59.77,72.72 -120.99,110.89 -61.2,38.88 -112.33,59.77 -151.94,61.93 -39.61,2.15 -70.57,-13.69 -91.45,-48.25 -20.89,-33.84 -21.61,-68.41 -2.16,-103.69 19.44,-36.01 60.49,-72.73 120.98,-111.61 z m -69.86,-113.05 c -30.24,18.72 -54.73,41.04 -74.17,67.68 -19.44,25.92 -33.84,54.73 -41.04,85.69 -8.64,33.12 -10.09,65.53 -4.33,97.93 5.77,32.41 18.73,64.81 38.89,97.21 20.89,33.84 43.93,59.77 69.85,79.21 25.93,18.72 56.17,31.68 90.02,38.88 30.96,6.48 61.93,6.48 93.61,0 30.97,-6.48 61.93,-19.44 91.46,-38.16 31.68,-19.44 56.17,-41.05 73.45,-64.81 18,-23.76 30.96,-51.84 38.89,-83.53 8.64,-34.56 10.07,-69.12 5.04,-102.96 -5.76,-33.13 -18,-66.25 -37.45,-97.22 -19.44,-32.4 -42.49,-57.6 -69.13,-76.32 -25.92,-19.45 -56.89,-32.41 -92.17,-39.61 -32.41,-7.2 -63.38,-7.92 -92.18,-2.16 -29.52,5.77 -59.77,18 -90.74,38.17" inkscape:connector-curvature="0"/><path id="path52" style="fill:#cfa550;fill-opacity:1;fill-rule:evenodd;stroke:none" d="m 4664.75,2209.48 143.3,-71.29 c 12.25,-5.76 21.61,-7.92 27.37,-6.48 6.48,2.16 12.24,9.36 18.01,21.6 l 15.84,32.4 31.68,-15.83 -111.62,-231.87 -31.68,15.12 15.12,32.41 c 6.48,12.24 7.92,21.6 5.76,28.08 -2.16,5.76 -9.36,12.24 -21.6,18 l -304.61,150.49 c -11.52,5.77 -20.88,7.93 -27.36,5.77 -6.49,-2.17 -12.97,-9.36 -18.73,-20.88 l -15.12,-32.41 -30.97,15.12 127.47,264.99 c 25.92,53.28 54,89.28 85.69,107.29 31.68,18.72 65.53,18.72 101.54,1.44 30.96,-15.84 50.41,-39.61 57.61,-72.73 7.19,-33.12 1.43,-70.57 -17.29,-113.77 l 4.32,-1.44 c 10.81,21.6 26.65,37.44 47.53,46.8 20.16,9.37 43.93,12.25 71.29,8.64 13.68,-2.16 32.41,-5.75 55.45,-12.23 33.84,-10.09 53.29,-8.65 59.05,3.59 4.32,7.92 2.16,16.57 -5.04,25.21 -7.2,8.64 -20.88,18 -41.05,28.8 l 15.13,30.24 4.32,-2.16 c 33.12,-16.56 54.72,-38.16 64.81,-64.8 9.36,-26.65 7.2,-55.45 -8.65,-87.13 -10.08,-21.61 -22.32,-38.17 -36,-49.69 -13.68,-11.52 -29.52,-17.28 -46.09,-18 -18,-0.72 -43.21,6.48 -74.89,21.6 -10.08,5.04 -18,9.37 -23.77,11.53 -36,15.11 -62.64,19.43 -78.49,13.68 -16.56,-6.48 -32.4,-25.93 -47.53,-58.33 -2.87,-5.76 -5.76,-10.8 -7.2,-14.4 -1.44,-2.88 -2.88,-6.48 -3.6,-9.36 z m -159.86,78.48 128.18,-62.64 c 2.16,2.88 4.32,5.76 5.76,9.36 2.16,3.6 4.32,7.92 7.92,15.12 21.6,45.36 30.96,79.93 27.37,103.69 -3.61,24.48 -20.89,43.93 -51.13,59.05 -28.81,14.4 -53.29,16.56 -72.01,7.92 -19.45,-8.64 -38.17,-32.41 -56.18,-69.85 -9.35,-20.16 -13.67,-33.84 -12.96,-41.04 1.45,-7.2 9.36,-14.41 23.05,-21.61" inkscape:connector-curvature="0"/><path id="path54" style="fill:#cfa550;fill-opacity:1;fill-rule:evenodd;stroke:none" d="m 4890.15,2933.14 c -45.37,11.53 -83.53,12.97 -115.22,4.32 -31.68,-8.64 -51.85,-25.2 -61.93,-51.12 -4.32,-10.8 -5.04,-19.44 -2.16,-24.48 2.88,-5.76 10.8,-10.8 23.04,-15.84 l 320.46,-123.85 c 12.96,-5.04 22.32,-6.48 28.08,-3.6 5.76,2.88 10.8,10.8 15.85,23.04 l 11.52,30.25 33.12,-12.25 -90.02,-236.9 -33.12,12.24 12.24,31.68 c 4.32,12.25 5.76,21.6 3.6,27.36 -2.16,5.77 -10.08,10.81 -23.76,16.57 l -320.45,124.57 c -12.96,4.32 -21.61,5.76 -27.37,3.6 -5.76,-2.16 -10.08,-8.64 -14.4,-19.44 -10.08,-25.2 -5.76,-51.85 12.25,-79.21 17.28,-28.08 46.8,-53.29 87.85,-75.61 l -11.53,-30.96 -164.18,74.89 156.27,411.15 171.38,-55.44 -11.52,-30.97" inkscape:connector-curvature="0"/><path id="path56" style="fill:#cfa550;fill-opacity:1;fill-rule:evenodd;stroke:none" d="m 5004.65,3103.08 c 69.85,-20.16 123.86,-25.92 162.74,-16.56 38.89,8.64 63.38,32.41 74.9,71.29 10.8,38.16 1.44,72 -26.65,100.81 -28.8,28.8 -77.77,53.28 -146.18,73.45 -69.85,20.16 -124.58,25.92 -163.47,16.56 -38.88,-8.65 -63.37,-33.13 -74.89,-71.29 -10.8,-38.88 -1.44,-72.73 26.64,-100.81 28.81,-28.8 77.78,-53.28 146.91,-73.45 z m -36.73,-128.17 c -33.84,10.08 -64.09,24.48 -90.01,43.92 -25.93,19.45 -46.81,43.21 -62.65,71.29 -17.28,29.52 -27.37,60.49 -30.25,92.89 -3.6,33.12 0,67.69 10.81,104.41 10.8,38.17 25.92,69.85 45.36,95.77 20.16,25.2 45.37,46.08 75.62,62.65 28.08,14.39 57.6,23.04 90.01,25.92 31.68,2.16 64.81,-1.44 98.65,-10.8 35.29,-10.8 64.82,-24.49 88.58,-42.49 23.05,-17.28 43.21,-40.32 59.77,-69.13 17.28,-30.96 28.8,-63.36 32.4,-97.2 3.61,-33.85 0.72,-69.13 -9.36,-104.41 -10.08,-36.01 -25.2,-66.97 -45.37,-92.89 -20.16,-25.21 -46.08,-46.8 -77.77,-63.37 -29.52,-15.84 -59.05,-25.2 -88.57,-28.08 -29.53,-2.88 -61.93,1.44 -97.22,11.52" inkscape:connector-curvature="0"/><path id="path58" style="fill:#cfa550;fill-opacity:1;fill-rule:evenodd;stroke:none" d="m 4975.84,3770.59 c -11.52,-2.88 -20.16,-5.76 -24.48,-10.08 -4.32,-3.6 -7.2,-8.65 -7.92,-15.85 l -2.16,-11.52 -33.85,5.04 27.37,195.86 33.84,-4.32 -1.44,-10.8 c -1.44,-10.08 -0.72,-17.28 1.44,-22.32 2.88,-5.04 7.2,-7.92 14.4,-9.36 3.61,0 7.21,0 10.81,0 3.6,0 6.48,0.72 10.08,1.44 l 239.8,39.6 -189.39,90.73 c -6.48,2.88 -12.96,5.04 -19.45,7.2 -6.48,2.88 -12.24,3.6 -18,5.04 -11.52,1.44 -20.16,-0.72 -26.64,-7.2 -6.48,-5.76 -10.8,-16.56 -12.96,-31.68 l -2.16,-19.44 -34.57,5.04 23.76,167.78 33.85,-5.05 v -2.16 c -2.16,-15.12 0,-28.08 6.48,-38.16 6.48,-10.08 20.16,-20.16 39.6,-29.52 l 376.63,-180.74 -6.49,-46.81 -283,-45.36 259.24,-126.01 -6.48,-47.53 -442.87,-85.68 c -10.8,-2.16 -18.73,-5.05 -23.05,-9.37 -3.6,-3.59 -6.48,-9.36 -7.2,-16.56 l -2.16,-15.84 -34.56,4.32 28.8,205.94 34.57,-5.04 -2.16,-12.24 c -1.44,-8.64 -0.72,-15.84 2.16,-20.16 2.16,-5.05 6.48,-7.92 12.96,-8.64 2.88,-0.73 6.48,-0.73 10.08,0 3.6,0 7.2,0.72 12.24,1.43 l 246.28,47.53 -157.7,76.33 -85.7,-15.84" inkscape:connector-curvature="0"/><path id="path60" style="fill:#cfa550;fill-opacity:1;fill-rule:evenodd;stroke:none" d="m 4916.8,4449.61 -26.65,193.7 34.56,5.04 c 2.88,-17.28 8.65,-31.68 18.01,-42.48 9.36,-11.52 23.76,-21.6 43.21,-29.52 l 192.98,-82.81 141.15,20.16 c 14.4,2.16 23.04,5.76 26.64,10.8 3.6,5.76 4.32,15.12 2.88,28.08 l -5.76,41.05 34.57,5.04 37.45,-266.43 -35.29,-5.04 -5.04,39.6 c -2.16,13.69 -5.76,22.33 -10.08,26.65 -5.04,3.6 -14.41,5.04 -28.81,2.88 l -131.06,-18.72 -182.91,-157.7 c -15.12,-12.24 -23.76,-22.32 -27.36,-30.24 -3.6,-7.92 -5.04,-18 -2.88,-29.53 l 0.72,-7.19 -33.85,-5.04 -33.12,239.78 33.84,5.04 2.88,-19.44 c 1.44,-10.09 3.6,-17.29 6.48,-20.89 3.6,-4.32 7.93,-5.76 14.41,-5.04 4.32,0.72 18.72,10.09 42.48,29.53 23.05,18.72 58.33,48.96 105.14,90.73 l -116.66,45.36 c -10.08,3.6 -18,6.48 -23.76,7.92 -5.77,1.44 -10.81,1.44 -15.13,0.72 -10.8,-1.44 -18,-6.48 -23.04,-14.4 -5.04,-7.92 -5.76,-19.44 -4.32,-33.13 l 2.88,-19.44 -34.56,-5.04" inkscape:connector-curvature="0"/><path id="path62" style="fill:#cfa550;fill-opacity:1;fill-rule:evenodd;stroke:none" d="m 1913.91,5004.07 c 0,-14.4 2.16,-23.76 6.48,-28.09 3.6,-4.32 12.97,-6.48 25.93,-6.48 h 41.77 v -36 h -262.85 v 36 h 36.01 c 12.96,0 22.32,2.16 26.64,6.48 5.04,4.33 7.2,13.69 7.2,28.09 v 342.75 c 0,14.4 -2.16,24.48 -7.2,28.81 -4.32,4.32 -13.68,6.48 -26.64,6.48 h -36.01 v 35.28 h 293.09 c 59.77,0 105.13,-12.25 136.1,-35.28 30.96,-23.05 46.09,-57.61 46.09,-102.25 0,-47.53 -18,-82.09 -54.01,-105.14 -36.01,-23.04 -91.46,-34.56 -166.35,-34.56 -17.28,0 -30.24,0 -39.61,0.72 -9.35,0 -18,0 -26.64,0 z m 0,336.27 v -160.58 c 4.32,-1.44 9.36,-2.16 14.4,-2.16 5.77,-0.72 11.53,-0.72 18.73,-0.72 48.25,0 81.37,7.92 99.37,23.05 18.73,15.12 27.37,41.76 27.37,79.93 0,37.44 -7.92,64.08 -23.77,79.2 -15.84,15.12 -43.92,23.05 -84.25,23.05 -23.05,0 -37.45,-2.16 -43.21,-7.21 -5.76,-5.04 -8.64,-16.56 -8.64,-34.56" inkscape:connector-curvature="0"/><path id="path64" style="fill:#cfa550;fill-opacity:1;fill-rule:evenodd;stroke:none" d="m 2496.49,5417.39 v -35.28 h -38.17 c -12.96,0 -21.61,-2.16 -25.93,-6.48 -5.03,-4.33 -7.19,-14.41 -7.19,-28.81 v -342.75 c 0,-15.12 2.16,-24.48 6.48,-28.81 4.32,-3.6 13.68,-5.76 26.64,-5.76 h 38.17 v -36 h -261.4 v 36 h 36.72 c 13.68,0 22.32,2.16 26.64,6.48 5.05,4.33 7.21,13.69 7.21,28.09 v 342.75 c 0,14.4 -2.16,24.48 -7.21,28.81 -4.32,4.32 -12.96,6.48 -26.64,6.48 h -36.72 v 35.28 h 261.4" inkscape:connector-curvature="0"/><path id="path66" style="fill:#cfa550;fill-opacity:1;fill-rule:evenodd;stroke:none" d="m 2795.34,4933.5 v 34.56 l 33.12,2.89 c 6.48,0 10.8,1.43 13.68,3.59 2.88,2.16 4.32,6.49 4.32,11.53 0,2.16 -0.72,4.32 -1.44,7.2 -0.72,2.16 -1.44,6.48 -3.6,11.52 l -28.8,74.89 h -170.67 l -15.12,-35.29 c -2.16,-5.76 -3.6,-11.52 -5.04,-18 -1.44,-5.76 -2.16,-11.52 -2.16,-16.56 0,-14.4 5.76,-24.48 15.84,-30.96 10.08,-5.77 28.08,-9.37 54.01,-10.81 v -34.56 h -188.67 v 34.56 c 18.72,3.6 33.84,11.53 46.81,24.49 12.95,13.68 25.92,35.28 38.88,65.52 l 155.55,366.52 h 49.68 l 182.91,-427.72 c 4.32,-10.08 9.36,-17.28 15.84,-21.61 5.76,-3.6 15.13,-5.76 28.09,-7.2 v -34.56 z m -65.54,350.68 -69.13,-162.74 h 134.67 l -65.54,162.74" inkscape:connector-curvature="0"/><path id="path68" style="fill:#cfa550;fill-opacity:1;fill-rule:evenodd;stroke:none" d="m 3069.7,4925.58 -6.49,194.42 h 34.57 c 18.72,-53.29 43.93,-93.61 74.89,-120.97 30.97,-27.37 66.25,-41.05 106.58,-41.05 29.52,0 51.85,6.48 68.41,20.89 16.56,13.68 25.21,33.12 25.21,56.88 0,10.8 -2.17,20.88 -7.21,29.52 -4.32,9.36 -10.08,16.57 -18,21.61 -10.8,7.91 -38.89,17.28 -82.81,27.36 -15.84,4.32 -28.81,7.2 -38.17,9.36 -59.05,15.12 -101.54,34.56 -126.74,58.32 -25.92,23.77 -38.17,56.17 -38.17,96.49 0,43.93 15.85,79.93 47.53,108.02 31.68,28.8 72.74,42.48 123.15,42.48 22.32,0 43.92,-2.88 64.08,-8.64 20.88,-5.76 40.33,-15.13 59.77,-27.36 l 33.13,32.4 h 29.52 l 7.93,-176.42 h -30.97 c -23.77,51.85 -48.25,88.57 -74.17,111.61 -25.93,22.32 -56.17,33.85 -90.02,33.85 -28.08,0 -50.4,-6.48 -65.53,-19.45 -15.84,-12.24 -23.76,-30.24 -23.76,-53.28 0,-32.41 38.16,-57.61 113.05,-74.17 14.41,-2.88 25.21,-5.04 32.41,-7.2 36.01,-7.92 61.93,-15.84 77.77,-23.76 15.85,-7.2 29.53,-16.56 41.05,-28.08 13.68,-12.96 23.76,-28.8 30.97,-48.25 7.2,-19.44 10.8,-40.32 10.8,-62.64 0,-47.53 -15.12,-84.97 -46.81,-113.06 -30.97,-28.08 -72.73,-42.48 -126.02,-42.48 -28.09,0 -53.29,3.6 -75.61,10.8 -22.33,6.48 -43.21,18.01 -62.65,32.4 l -38.89,-39.6 h -28.8" inkscape:connector-curvature="0"/><path id="path70" style="fill:#cfa550;fill-opacity:1;fill-rule:evenodd;stroke:none" d="m 3914.39,5235.21 c -5.76,46.81 -18,83.53 -37.44,110.17 -19.45,26.64 -42.49,40.32 -69.86,40.32 -11.52,0 -19.44,-2.88 -23.04,-7.2 -4.32,-4.32 -6.48,-13.68 -6.48,-27.36 v -347.07 c 0,-14.4 2.16,-23.76 6.48,-28.09 5.04,-4.32 13.68,-6.48 27.37,-6.48 h 32.4 v -36 h -252.04 v 36 h 33.85 c 12.96,0 21.6,2.16 25.92,5.76 5.04,4.33 7.2,13.69 7.2,28.81 v 347.07 c 0,13.68 -2.16,23.04 -6.48,27.36 -3.6,5.04 -11.52,7.2 -23.04,7.2 -27.37,0 -50.41,-13.68 -69.14,-40.32 -19.44,-26.64 -32.4,-63.36 -38.16,-110.17 h -33.13 l 10.09,182.18 h 437.82 l 10.81,-182.18 h -33.13" inkscape:connector-curvature="0"/><path id="path72" style="fill:#231f20;fill-opacity:1;fill-rule:evenodd;stroke:none" d="m 2827.02,1470.69 c -70.57,36.72 -98.66,97.92 -94.34,174.97 -35.28,-48.96 -78.49,-79.21 -128.18,-95.77 -69.85,-23.04 -141.86,-17.28 -213.15,-4.32 30.96,63.37 77.05,90.01 137.54,121.7 37.45,19.44 75.61,39.6 100.82,69.12 28.8,33.84 50.41,72.73 63.37,114.49 -25.93,-43.92 -60.49,-82.81 -103.7,-117.37 -101.54,-80.65 -201.63,-94.33 -270.04,-69.85 -53.29,18.73 -94.34,64.09 -91.46,123.14 3.6,89.29 91.46,147.61 160.59,186.49 -6.48,-34.56 -14.4,-72.72 -1.44,-107.29 12.96,-35.28 43.93,-45.36 78.49,-40.32 77.77,11.52 149.78,85.69 186.51,151.21 22.33,38.89 37.45,82.09 47.53,128.9 -4.32,2.88 -7.92,5.76 -11.52,8.64 -21.61,20.88 -21.61,60.48 0,81.37 6.48,6.48 14.4,10.8 23.76,13.68 0.72,28.8 0,57.6 -2.16,86.41 -16.56,-5.05 -33.12,-5.76 -51.13,-7.21 5.76,15.12 10.8,29.53 16.56,43.93 10.81,26.64 15.85,41.04 7.93,68.41 -7.93,25.2 -10.8,50.4 -13.69,76.32 -16.56,-1.44 -32.4,2.16 -48.24,5.05 15.84,17.27 29.52,33.12 33.12,57.6 2.88,15.84 0.72,31.68 -4.32,48.96 -7.2,25.93 -12.96,50.41 -17.28,73.45 -10.8,5.76 -20.89,11.52 -30.25,17.28 -12.96,-39.6 -30.24,-78.48 -33.84,-120.25 -2.88,-33.84 -1.44,-67.68 -5.04,-101.53 -25.93,5.04 -50.41,10.8 -74.17,23.76 -14.41,-48.24 -34.57,-95.77 -54.01,-141.13 -12.25,-28.8 -23.77,-56.89 -34.57,-85.69 -5.04,-13.68 -7.2,-24.48 -7.2,-33.84 0,-5.04 1.44,-9.36 3.6,-12.96 5.76,-7.92 18,-9.36 27.37,-8.64 28.8,0.72 36.72,16.56 63.36,23.76 12.25,3.6 24.49,3.6 36.01,-0.72 28.09,-10.08 42.49,-40.33 49.69,-66.97 l 0.72,-2.16 c 0.72,-14.4 -2.16,-23.76 -7.2,-29.52 4.32,-10.08 7.2,-19.44 8.64,-28.81 12.24,-56.88 -18,-79.92 -72.01,-91.44 4.32,28.08 7.92,42.48 -11.53,64.8 -1.44,2.16 -3.6,4.32 -5.76,6.48 -8.63,-0.71 -17.28,1.45 -26.64,7.21 -1.44,0.72 -2.88,2.16 -5.04,3.6 -2.16,2.16 -5.04,3.6 -7.92,5.03 -18.73,10.09 -46.09,13.69 -72.73,10.09 -25.93,-2.88 -50.41,-12.96 -62.66,-29.53 -23.03,-30.24 -35.28,-55.44 -77.77,-58.32 -10.8,-16.56 -28.08,-29.52 -47.52,-32.4 -6.48,-23.77 -20.17,-47.53 -43.93,-57.61 -2.16,-9.36 -2.88,-19.44 -2.16,-29.52 0,-10.8 2.16,-21.6 6.48,-31.69 l 6.48,-16.56 -17.28,3.6 c -34.57,6.48 -54.73,20.89 -66.25,39.6 -10.08,18.01 -11.52,39.61 -10.08,61.93 -17.29,25.2 -18,59.05 2.16,82.81 18,21.6 46.08,27.36 72.73,33.12 29.52,6.48 52.57,11.53 71.29,48.25 -14.4,-5.76 -29.52,-5.76 -43.93,-1.44 -22.32,-30.24 -59.05,-35.28 -93.61,-31.69 -8.64,-13.68 -19.45,-25.92 -31.69,-33.84 -9.36,-7.2 -20.16,-11.52 -30.96,-12.96 -7.21,-0.72 -14.41,-0.72 -21.61,1.44 -18.72,-25.92 -19.44,-54.01 -20.16,-84.25 -51.85,41.77 -87.85,89.29 -27.36,148.34 -1.44,15.84 4.31,30.96 15.12,42.48 23.76,25.92 64.09,29.53 95.77,18.01 18.01,10.79 37.45,19.43 57.61,25.91 0.72,0.72 0.72,0.72 1.44,0.72 -10.08,2.89 -19.44,7.21 -28.8,12.25 -6.49,3.6 -7.92,5.04 -29.53,-2.88 -26.64,-9.37 -47.53,-7.2 -62.65,1.44 -33.84,-12.25 -46.08,-31.69 -62.65,-59.77 -28.08,61.93 -35.28,117.37 42.49,146.9 2.16,3.59 5.04,7.2 8.64,10.8 15.12,15.12 40.33,21.6 74.89,8.64 10.81,-4.32 20.89,-10.08 30.25,-15.85 11.52,-6.47 23.04,-12.95 35.29,-15.84 12.24,-2.88 23.76,-3.6 34.56,-3.6 12.24,0 24.48,0 38.17,-3.6 36,-10.08 61.93,-12.24 79.21,-1.44 17.28,10.8 27.36,36.01 30.96,80.65 4.33,46.08 14.4,95.05 24.49,142.58 3.6,16.55 7.2,32.4 10.08,48.96 -22.33,3.6 -46.81,13.68 -73.45,30.97 l -16.56,10.79 18,6.48 c 36,13.69 60.49,37.45 76.33,69.85 15.12,31.68 21.6,70.57 21.6,115.93 -10.08,1.45 -20.16,2.88 -30.24,4.32 25.92,22.32 51.13,44.65 69.13,73.45 11.52,18.72 19.44,38.16 21.6,58.32 2.16,19.45 2.88,40.33 3.6,60.49 0.72,22.32 1.44,44.64 4.32,66.25 l -15.12,-2.16 5.76,15.12 c 17.29,44.64 25.93,86.41 28.09,126.01 2.16,38.88 -1.44,75.61 -8.64,110.89 0,0 -0.72,0 -1.45,0 -2.87,-23.76 -8.64,-46.8 -16.56,-67.69 -6.48,-327.63 -79.21,-480.28 -208.11,-478.12 -12.96,0.72 -25.2,2.88 -37.45,4.32 l 10.09,12.96 c 15.84,20.88 29.52,41.76 41.04,64.09 10.8,21.6 18.73,43.2 22.32,67.68 11.53,73.45 16.57,154.82 21.61,233.3 2.16,35.29 5.04,70.57 7.2,102.97 -0.72,5.77 -2.16,10.8 -2.88,16.57 -2.88,17.28 -5.04,36 -4.32,56.16 -8.64,-17.28 -18,-32.4 -28.08,-46.8 -7.21,-113.06 -20.89,-225.39 -42.49,-337.72 -21.61,-111.61 -51.85,-223.21 -92.18,-334.83 -18,-48.24 -42.48,-90.01 -72.01,-120.25 -23.04,-24.48 -49.69,-41.76 -77.77,-49.68 -29.53,-8.64 -60.49,-7.2 -92.9,4.32 -41.04,15.12 -72.01,42.48 -102.97,72.73 40.32,5.03 72.73,10.8 97.21,48.24 16.56,24.48 25.21,56.88 35.29,90.01 30.24,101.53 51.85,207.38 66.97,315.39 15.12,102.96 24.48,208.09 30.96,315.39 -0.72,-0.72 -1.43,-0.72 -1.43,-1.44 -43.93,-141.14 -63.38,-313.24 -149.79,-433.49 -54.73,-77.04 -102.98,-112.32 -147.62,-118.08 -56.17,-6.49 -95.06,33.84 -127.47,73.44 35.29,18.72 61.93,40.33 84.26,73.45 59.05,90 88.57,226.1 113.06,329.07 18,79.21 33.12,160.57 44.64,243.38 -1.44,10.08 -2.16,20.17 -2.16,30.24 -10.8,-30.96 -22.32,-62.64 -33.84,-93.6 -22.33,-60.49 -45.37,-118.09 -65.53,-169.22 -12.24,-31.68 -26.65,-59.76 -42.49,-82.81 -22.32,-33.12 -47.53,-56.16 -74.17,-69.12 -49.69,-22.33 -90.02,-5.05 -131.06,22.32 38.88,25.2 61.21,54.72 80.65,97.21 19.45,41.76 34.57,95.05 46.81,157.69 16.56,84.25 30.24,167.78 43.92,250.59 16.57,102.25 33.13,204.5 54.74,305.3 19.44,91.45 40.32,187.95 82.09,267.87 43.2,80.65 108.01,144.02 216.03,164.18 115.22,21.6 198.04,-23.76 243.4,-92.17 20.89,-32.4 33.85,-69.84 38.17,-107.29 4.32,-38.16 -0.72,-76.33 -15.85,-110.89 -21.6,-51.13 -64.08,-93.61 -129.61,-110.89 0.71,-14.4 3.59,-27.36 10.08,-38.17 9.36,-18 25.2,-27.36 42.48,-36.72 -12.96,-10.8 -25.92,-21.6 -41.04,-29.52 30.96,-59.77 76.33,-102.25 133.94,-128.9 59.77,-28.08 132.5,-39.6 216.75,-37.44 1.45,2.88 2.16,6.48 3.61,9.36 5.04,11.52 10.79,22.32 17.28,31.69 2.16,4.32 5.04,7.92 7.92,11.52 -18.73,4.32 -33.13,12.24 -43.21,24.48 -14.4,16.56 -20.16,40.32 -18.72,69.12 l 0.72,10.09 10.08,-0.72 c 9.36,-0.72 21.61,-2.16 33.84,-3.6 18.73,-2.16 36.73,-4.32 55.45,-5.05 21.61,-1.43 39.61,8.65 52.57,23.05 17.28,18.72 26.65,46.08 29.53,70.57 3.6,31.68 7.2,69.12 7.92,105.13 0.72,28.8 0,56.88 -2.88,79.2 -0.72,6.48 -2.16,12.24 -3.6,17.28 -1.44,5.05 -4.32,10.09 -7.2,15.84 -6.49,11.53 -7.93,23.77 -12.25,36.01 -20.88,61.2 -117.38,81.37 -174.26,99.37 37.44,61.92 92.89,60.49 151.94,12.24 18,-14.4 32.41,-32.4 48.97,-48.25 -0.72,64.81 -33.13,94.34 -97.22,95.77 -45.36,66.97 -92.89,23.05 -133.94,-15.84 -11.52,38.89 -18.72,76.33 -5.04,116.65 9.36,27.37 27.37,48.25 49.69,63.37 49.69,33.84 115.94,30.24 167.06,0 7.21,18 19.45,33.84 36.73,41.77 13.68,5.75 28.81,6.48 46.09,1.44 7.92,-2.16 15.84,-5.76 24.48,-10.8 26.65,-15.13 46.09,-25.93 64.09,-35.29 12.96,-7.2 25.21,-12.96 38.89,-20.16 V 1470.69" inkscape:connector-curvature="0"/><path id="path74" style="fill:#fff200;fill-opacity:1;fill-rule:evenodd;stroke:none" d="m 2731.24,2211.64 h 95.78 v 105.13 c -19.45,10.8 -34.57,25.92 -45.37,46.09 -10.8,-24.49 -28.08,-46.09 -52.56,-59.06 2.15,-30.96 2.87,-61.2 2.15,-92.16" inkscape:connector-curvature="0"/><path id="path76" style="fill:#fff200;fill-opacity:1;fill-rule:evenodd;stroke:none" d="m 2827.02,2099.3 h -33.84 c -5.05,-36 -4.33,-72 -11.53,-107.28 -1.44,-5.04 -2.88,-11.52 -4.32,-18.73 -13.68,-65.52 -26.64,-127.45 49.69,-182.17 v 308.18" inkscape:connector-curvature="0"/><path id="path78" style="fill:#fff200;fill-opacity:1;fill-rule:evenodd;stroke:none" d="m 2773.73,2099.3 h -15.84 c -1.44,-49.68 -8.64,-95.76 -18.73,-138.25 -21.6,-90 -28.08,-159.85 -94.33,-236.9 -28.09,-32.4 -67.69,-53.28 -107.3,-74.17 -45.37,-24.48 -91.45,-48.24 -116.66,-90.01 64.09,-10.08 124.58,-8.63 177.15,8.64 67.69,23.77 128.91,80.65 144.03,144.02 7.92,32.4 18,66.96 30.96,102.97 -5.04,6.48 -9.36,13.68 -12.24,20.16 -17.28,-39.6 -31.68,-79.92 -53.29,-117.37 -33.84,-57.6 -103.69,-118.81 -174.27,-120.25 61.93,35.28 120.26,63.36 157.71,130.33 24.48,42.48 39.6,89.29 60.49,133.21 -9.36,37.45 -1.44,75.61 7.2,115.93 0.72,5.04 2.16,10.81 3.6,18.01 7.2,33.84 6.48,69.12 11.52,103.68" inkscape:connector-curvature="0"/><path id="path80" style="fill:#fff200;fill-opacity:1;fill-rule:evenodd;stroke:none" d="m 2735.56,2099.3 c -5.76,0 -11.52,-0.71 -17.28,0.73 -10.08,-48.25 -26.64,-92.89 -48.97,-133.22 -40.32,-70.56 -116.65,-147.61 -200.91,-160.57 -43.92,-6.48 -83.53,9.36 -100.1,53.28 -7.19,19.44 -9.35,44.65 -5.76,76.33 -79.21,-48.96 -113.05,-102.97 -115.22,-149.77 -2.16,-50.41 33.13,-87.85 78.5,-103.69 63.37,-22.33 156.27,-9.36 251.32,66.24 v 0.72 c 81.37,64.09 131.06,149.78 150.5,250.59 -7.92,-23.05 -18,-44.65 -28.8,-65.53 -49.69,-93.61 -133.22,-172.82 -237.64,-198.74 -65.53,-16.56 -153.38,-4.32 -141.14,85.69 28.8,-69.13 66.25,-84.25 136.1,-66.97 98.66,25.2 178.59,100.81 225.39,189.38 25.21,46.81 42.49,99.37 54.01,155.53" inkscape:connector-curvature="0"/><path id="path82" style="fill:#fff200;fill-opacity:1;fill-rule:evenodd;stroke:none" d="m 2726.2,2192.2 c -9.36,0 -18,-4.32 -24.48,-10.09 -13.68,-13.68 -13.68,-40.32 0,-53.28 20.89,-20.16 97.21,-10.08 125.3,-10.08 v 73.45 H 2726.2" inkscape:connector-curvature="0"/><path id="path84" style="fill:#fff200;fill-opacity:1;fill-rule:evenodd;stroke:none" d="m 2688.04,2480.23 c 3.6,-24.49 6.48,-49.69 13.68,-73.45 10.08,-34.57 3.6,-50.41 -8.64,-81.37 -1.44,-4.32 -3.6,-9.36 -5.76,-14.4 51.84,10.08 86.41,50.4 76.33,102.25 -6.48,30.96 -10.08,66.97 -10.8,106.57 -12.24,-13.69 -25.92,-23.76 -41.05,-30.97 -7.2,-4.31 -15.12,-6.47 -23.76,-8.63" inkscape:connector-curvature="0"/><path id="path86" style="fill:#fff200;fill-opacity:1;fill-rule:evenodd;stroke:none" d="m 2644.83,2760.33 c -0.72,-23.76 0,-46.08 2.88,-68.4 4.32,-30.97 11.52,-61.93 21.6,-97.94 5.05,-19.44 7.21,-38.16 4.33,-56.88 -1.44,-13.68 -6.49,-27.36 -15.13,-40.32 15.85,-0.72 30.97,2.87 45.37,9.35 16.56,7.93 31.68,21.61 45.37,40.33 -25.21,34.57 -46.09,69.85 -60.49,104.41 -13.69,31.69 -22.33,62.65 -25.93,93.61 l -5.04,-3.6 -5.76,8.64 c -2.16,3.6 -5.04,7.2 -7.2,10.8" inkscape:connector-curvature="0"/><path id="path88" style="fill:#fff200;fill-opacity:1;fill-rule:evenodd;stroke:none" d="m 2772.29,2540.71 c 0,-50.41 2.88,-96.49 12.96,-132.5 7.93,-30.24 20.89,-54 41.77,-68.4 v 271.47 c -2.88,-5.76 -5.76,-11.52 -8.64,-16.57 -12.24,-20.88 -27.37,-38.88 -46.09,-54" inkscape:connector-curvature="0"/><path id="path90" style="fill:#fff200;fill-opacity:1;fill-rule:evenodd;stroke:none" d="m 2628.99,2686.89 c 0,0.72 -0.72,2.16 -0.72,2.88 -3.6,31.68 -4.32,64.08 -0.72,101.52 -9.36,17.29 -16.57,34.57 -22.33,51.13 -7.2,21.6 -10.8,43.2 -12.24,63.36 -12.96,-10.8 -27.36,-20.88 -42.48,-30.96 -2.16,-5.04 -3.61,-9.36 -5.77,-14.4 -15.12,-40.32 -13.68,-72.01 0,-99.37 15.13,-28.08 43.93,-51.84 84.26,-74.16" inkscape:connector-curvature="0"/><path id="path92" style="fill:#fff200;fill-opacity:1;fill-rule:evenodd;stroke:none" d="m 2680.84,2759.61 c 2.87,-33.12 11.52,-66.97 25.92,-100.81 13.68,-33.12 33.13,-66.25 56.89,-99.37 15.12,12.96 27.36,28.09 37.44,44.65 11.53,20.16 20.17,42.48 25.93,66.24 V 2702 c -23.77,21.61 -42.49,48.97 -55.45,79.21 -12.24,25.93 -19.44,53.29 -23.76,79.93 -5.76,-15.84 -12.25,-30.24 -20.88,-43.93 -12.25,-21.6 -27.37,-40.32 -46.09,-57.6" inkscape:connector-curvature="0"/><path id="path94" style="fill:#fff200;fill-opacity:1;fill-rule:evenodd;stroke:none" d="m 2612.43,2923.79 c -0.73,-23.77 2.87,-48.97 11.52,-75.61 8.64,-25.2 21.6,-51.85 38.88,-78.48 18.72,16.55 35.29,36 47.53,56.88 13.68,22.32 22.32,48.24 27.36,75.6 -18,30.96 -34.56,59.77 -47.52,87.85 -6.49,14.4 -12.24,28.8 -17.29,43.21 -5.76,-23.77 -15.12,-46.09 -28.08,-66.97 -8.64,-15.12 -20.16,-28.81 -32.4,-42.48" inkscape:connector-curvature="0"/><path id="path96" style="fill:#fff200;fill-opacity:1;fill-rule:evenodd;stroke:none" d="m 2764.37,2881.3 c 3.6,-30.96 11.52,-62.64 24.48,-92.17 10.08,-22.32 22.33,-42.48 38.17,-59.76 v 256.34 c -3.6,-8.64 -7.92,-17.28 -11.52,-25.92 -13.68,-28.08 -30.25,-54.73 -51.13,-78.49" inkscape:connector-curvature="0"/><path id="path98" style="fill:#fff200;fill-opacity:1;fill-rule:evenodd;stroke:none" d="m 2446.08,3036.12 c -2.88,-22.33 -4.32,-46.09 -5.04,-69.85 -0.72,-20.16 -1.44,-40.32 -3.6,-61.93 -2.16,-23.04 -11.53,-45.36 -24.49,-65.52 -10.8,-18 -25.2,-34.56 -40.32,-49.69 33.12,-2.16 63.37,0.73 89.29,12.25 26.64,11.52 48.97,32.4 64.09,66.24 1.44,3.6 2.88,6.48 4.32,10.08 l 0.72,4.32 c 2.16,14.4 1.44,28.08 -0.72,40.32 -2.16,13.68 -6.48,26.65 -11.52,40.33 -9.36,23.76 -14.4,46.08 -15.84,66.24 -0.72,10.09 0,20.17 0.72,29.53 -16.56,-10.08 -36.01,-17.28 -57.61,-22.32" inkscape:connector-curvature="0"/><path id="path100" style="fill:#fff200;fill-opacity:1;fill-rule:evenodd;stroke:none" d="m 2585.78,2690.48 c -26.64,18.73 -46.09,38.89 -58.33,61.93 -3.6,7.2 -6.48,14.4 -8.64,22.32 -18.72,-78.48 -42.49,-144.01 -74.89,-186.5 2.88,-61.92 45.37,-93.6 102.25,-107.28 1.45,26.64 0.72,53.28 2.88,79.92 3.61,45.37 22.33,87.13 36.73,129.61" inkscape:connector-curvature="0"/><path id="path102" style="fill:#fff200;fill-opacity:1;fill-rule:evenodd;stroke:none" d="m 2505.13,2806.42 c -10.08,-10.09 -22.33,-17.29 -35.29,-23.04 -27.36,-12.25 -58.33,-15.85 -92.17,-14.41 -0.72,-47.52 -7.92,-89.29 -23.76,-122.41 -15.13,-31.68 -38.18,-56.17 -69.86,-72.01 60.49,-33.12 105.14,-21.6 139.7,20.16 36.01,43.21 61.93,118.82 81.38,211.71" inkscape:connector-curvature="0"/><path id="path104" style="fill:#fff200;fill-opacity:1;fill-rule:evenodd;stroke:none" d="m 2528.17,3076.44 c -4.32,-13.68 -6.48,-28.8 -5.76,-46.08 1.44,-18.73 5.76,-38.89 14.4,-60.49 5.76,-15.12 10.81,-29.53 12.97,-43.92 1.43,-8.65 2.16,-17.29 2.16,-26.65 33.12,22.33 58.33,47.53 76.33,77.05 20.16,32.4 30.24,68.41 31.68,108.73 -30.96,29.52 -56.16,64.09 -74.89,102.25 -8.64,-41.76 -25.2,-82.09 -56.89,-110.89" inkscape:connector-curvature="0"/><path id="path106" style="fill:#fff200;fill-opacity:1;fill-rule:evenodd;stroke:none" d="m 2679.39,3089.4 c 3.61,-29.52 13.69,-59.04 28.81,-91.45 13.68,-28.8 30.96,-59.77 50.41,-92.89 15.84,19.44 28.08,41.05 38.89,62.65 12.23,25.92 22.32,52.56 29.52,77.05 v 24.48 c -55.45,22.32 -86.41,66.24 -98.66,122.41 -3.59,-9.36 -7.92,-18 -12.96,-25.92 -15.84,-23.77 -25.92,-50.41 -36.01,-76.33" inkscape:connector-curvature="0"/><path id="path108" style="fill:#fff200;fill-opacity:1;fill-rule:evenodd;stroke:none" d="m 2664.99,3106.68 c 10.08,25.21 20.17,48.97 33.85,69.85 21.6,32.4 31.68,96.49 12.24,132.49 -14.4,28.8 -27.37,58.33 -34.56,90.01 -15.85,-45.36 -45.37,-79.93 -85.7,-106.57 4.32,-84.25 16.56,-125.29 74.17,-185.78" inkscape:connector-curvature="0"/><path id="path110" style="fill:#fff200;fill-opacity:1;fill-rule:evenodd;stroke:none" d="m 2827.02,3090.84 v 300.27 c -6.48,-12.24 -13.68,-24.48 -20.88,-36.72 -19.45,-30.25 -41.05,-56.89 -64.81,-83.53 -2.88,-71.29 13.68,-147.61 85.69,-180.02" inkscape:connector-curvature="0"/><path id="path112" style="fill:#fff200;fill-opacity:1;fill-rule:evenodd;stroke:none" d="m 2456.16,3283.82 c 7.2,-36 10.08,-73.44 7.92,-112.33 -2.16,-37.44 -9.36,-75.61 -23.04,-115.94 118.1,23.77 136.1,138.98 129.62,241.95 -10.8,15.84 -19.45,34.57 -26.65,54.73 -18.72,-34.57 -47.52,-64.09 -87.85,-68.41" inkscape:connector-curvature="0"/><path id="path114" style="fill:#fff200;fill-opacity:1;fill-rule:evenodd;stroke:none" d="m 2474.88,3509.2 c -23.04,-39.6 -20.88,-70.56 -18.72,-111.61 0.72,-4.32 0.72,-8.64 0.72,-13.68 2.16,-29.52 -5.76,-57.61 -24.49,-80.65 52.57,-7.2 85.7,33.13 103.7,77.77 -10.08,43.92 -9.36,89.29 -4.32,133.93 -15.84,-4.32 -34.56,-5.76 -56.89,-5.76" inkscape:connector-curvature="0"/><path id="path116" style="fill:#fff200;fill-opacity:1;fill-rule:evenodd;stroke:none" d="m 2415.11,3286.7 c -6.48,2.16 -13.68,4.32 -20.88,6.48 26.64,25.2 45.37,47.52 43.21,87.13 -30.25,18 -50.41,40.32 -61.21,66.97 0,0.72 -0.72,2.16 -0.72,2.88 -7.21,-64.81 -3.6,-158.42 -32.41,-214.58 1.44,75.6 5.04,148.33 13.69,223.22 -0.73,-0.73 -0.73,-1.44 -1.45,-1.44 -14.4,-23.77 -33.12,-44.65 -55.45,-62.65 -10.08,-51.12 -18,-99.37 -9.36,-152.66 7.2,-40.32 23.04,-74.88 47.53,-104.41 22.32,18.01 39.61,38.89 51.85,63.37 12.96,25.2 21.6,54.01 25.2,85.69" inkscape:connector-curvature="0"/><path id="path118" style="fill:#fff200;fill-opacity:1;fill-rule:evenodd;stroke:none" d="m 2436,3404.79 c -2.16,37.44 -2.88,67.69 17.28,105.85 -11.52,0.72 -22.32,2.88 -33.85,3.6 l 10.8,12.96 c -13.68,2.16 -26.64,3.6 -39.6,5.76 -5.76,-29.52 -5.04,-55.44 4.32,-78.48 7.2,-19.44 20.88,-36.01 41.05,-49.69" inkscape:connector-curvature="0"/><path id="path120" style="fill:#fff200;fill-opacity:1;fill-rule:evenodd;stroke:none" d="m 2552.66,3522.16 c -9.37,-70.56 -7.93,-148.33 32.4,-210.26 52.57,36.73 77.77,85.69 84.98,148.33 0.71,5.05 0.71,9.37 1.44,14.41 -33.85,30.24 -51.85,70.56 -57.62,115.21 -12.23,-30.24 -31.68,-54.72 -61.2,-67.69" inkscape:connector-curvature="0"/><path id="path122" style="fill:#fff200;fill-opacity:1;fill-rule:evenodd;stroke:none" d="m 2739.89,3298.22 c 19.44,23.04 35.28,44.64 49.68,66.25 15.13,24.48 27.37,48.96 37.45,74.89 v 13.68 c -41.05,22.32 -66.97,52.56 -81.37,89.28 -0.72,3.61 -2.16,6.48 -3.6,10.09 -3.6,-6.48 -7.92,-12.25 -14.41,-18.73 -13.68,-15.12 -22.32,-37.44 -36,-54 -4.32,-70.57 13.68,-120.97 48.25,-181.46" inkscape:connector-curvature="0"/><path id="path124" style="fill:#fff200;fill-opacity:1;fill-rule:evenodd;stroke:none" d="m 2088.18,3766.27 c 15.84,-59.77 53.29,-107.29 106.58,-142.58 63.37,-42.48 149.78,-67.68 249.88,-77.76 9.36,12.96 18,26.64 25.2,41.76 -82.81,-1.44 -156.27,10.8 -216.75,38.88 -61.21,29.53 -110.18,74.89 -144.02,140.42 -7.21,-2.16 -14.41,-2.16 -20.89,-0.72" inkscape:connector-curvature="0"/><path id="path126" style="fill:#fff200;fill-opacity:1;fill-rule:evenodd;stroke:none" d="m 2371.18,3536.57 c -31.68,5.75 -61.2,13.68 -88.57,23.04 -2.16,-2.88 -3.6,-5.77 -5.04,-9.36 -8.64,-19.45 -12.96,-41.05 -10.8,-63.37 2.16,-22.33 10.08,-46.8 25.92,-72.73 18.72,15.12 33.85,33.13 46.09,53.29 13.68,20.88 23.76,44.64 32.4,69.13" inkscape:connector-curvature="0"/><path id="path128" style="fill:#fff200;fill-opacity:1;fill-rule:evenodd;stroke:none" d="m 2263.89,3566.81 c -29.53,10.8 -56.17,24.48 -79.93,40.32 -1.44,1.44 -2.89,2.16 -4.32,2.88 -2.17,-4.32 -5.05,-8.64 -7.21,-12.96 -21.6,-44.64 -26.64,-92.89 -23.76,-142.57 48.97,23.04 85.69,56.88 110.9,104.41 1.44,2.88 2.88,5.04 4.32,7.92" inkscape:connector-curvature="0"/><path id="path130" style="fill:#fff200;fill-opacity:1;fill-rule:evenodd;stroke:none" d="m 2163.07,3622.25 c -25.92,20.89 -48.25,44.64 -64.81,72.01 -2.16,-2.88 -4.32,-5.04 -5.76,-7.2 -14.4,-18.72 -24.48,-39.6 -29.52,-62.65 -5.77,-27.36 -5.04,-57.6 2.88,-92.16 20.88,6.48 38.88,16.55 54.73,30.96 12.96,12.24 24.48,26.64 34.56,43.2 2.88,5.76 5.04,10.8 7.92,15.84" inkscape:connector-curvature="0"/><path id="path132" style="fill:#fff200;fill-opacity:1;fill-rule:evenodd;stroke:none" d="m 2087.46,3712.26 c -10.08,20.17 -17.28,41.76 -21.6,65.53 -10.81,8.64 -18.01,20.16 -23.77,31.68 -16.56,-30.24 -36.72,-60.49 -64.81,-82.09 -5.04,-14.4 -8.64,-30.24 -10.8,-46.08 -1.44,-15.12 -1.44,-30.25 0,-46.09 20.16,-2.16 37.45,2.17 55.45,13.68 17.28,10.81 35.28,27.37 55.45,51.13 2.88,3.6 6.48,7.92 10.08,12.24" inkscape:connector-curvature="0"/><path id="path134" style="fill:#fff200;fill-opacity:1;fill-rule:evenodd;stroke:none" d="m 2787.41,1799.04 c -34.56,-99.37 -74.17,-239.79 39.61,-306.03 v 274.35 c -15.84,10.07 -28.81,20.88 -39.61,31.68" inkscape:connector-curvature="0"/><path id="path136" style="fill:#fff200;fill-opacity:1;fill-rule:evenodd;stroke:none" d="m 2827.02,3475.36 v 904.41 c -17.29,8.64 -31.68,15.84 -48.25,24.48 -17.28,9.36 -36.72,20.16 -64.09,36 -7.2,3.6 -14.4,7.2 -20.88,8.64 -12.25,3.6 -23.05,2.88 -32.41,-0.72 -20.88,-10.8 -35.28,-33.12 -18,-51.84 10.08,-10.08 22.32,-10.08 35.29,-12.24 46.8,-5.76 117.37,-27.37 131.78,-77.05 -12.25,8.64 -22.33,17.28 -34.57,20.88 -10.8,-25.2 -30.24,-38.16 -51.12,-41.04 -18.73,-2.16 -38.89,3.6 -52.57,15.84 -15.85,14.4 -25.21,36.73 -19.45,66.25 -9.36,2.16 -17.28,7.2 -23.04,13.68 -6.48,5.76 -10.8,12.96 -14.41,19.44 -45.36,30.96 -108.01,37.44 -154.82,6.48 -18.72,-12.96 -33.84,-30.96 -41.77,-54.01 -7.2,-20.88 -9.36,-45.36 -2.88,-74.17 43.93,37.45 93.62,54.01 133.22,-0.71 93.62,-5.04 110.18,-70.57 105.14,-151.22 -31.68,19.45 -51.13,46.09 -79.21,69.13 -33.13,26.64 -77.05,42.48 -107.3,12.96 1.44,0 2.16,-0.72 2.88,-0.72 56.89,-16.56 136.82,-41.04 157.71,-102.25 3.6,-10.8 5.04,-23.04 10.08,-33.12 4.32,-7.21 7.2,-12.96 9.36,-19.44 2.16,-5.77 3.6,-12.25 4.32,-20.89 2.88,-23.76 3.6,-52.56 2.88,-82.09 -0.72,-36 -4.32,-74.16 -7.92,-106.56 -2.88,-28.09 -14.4,-59.05 -34.56,-81.37 -16.57,-18.72 -39.61,-30.97 -67.7,-29.52 -18.72,0.71 -37.44,2.87 -56.89,5.04 -7.2,0.71 -14.4,1.44 -23.04,2.16 0,-18.73 5.04,-33.85 13.68,-44.65 10.81,-12.24 44.65,-20.16 67.69,-21.6 -9.36,-12.24 -21.6,-23.76 -30.96,-38.16 -5.76,-7.93 -10.8,-18 -15.12,-28.09 -11.53,-28.8 -24.49,-54.72 -42.49,-79.2 87.85,-7.21 123.86,22.32 145.46,86.4 6.48,20.89 14.41,41.77 23.05,61.21 7.2,-36.73 3.6,-35.28 6.48,-74.17 2.88,-40.32 15.84,-78.49 46.09,-108.73 12.96,15.84 20.88,37.45 35.28,52.56 11.52,11.53 15.84,23.05 18,41.77 3.6,30.96 10.09,61.92 13.69,92.89 7.92,-44.64 1.44,-90.01 18.72,-132.5 11.52,-29.52 30.97,-54.72 62.65,-74.16" inkscape:connector-curvature="0"/><path id="path138" style="fill:#fff200;fill-opacity:1;fill-rule:evenodd;stroke:none" d="m 2758.61,4338 c -3.6,2.16 -7.2,4.32 -11.52,6.48 -21.61,-38.88 -71.29,-22.32 -61.21,19.45 -5.04,0.71 -9.36,0.71 -14.4,1.43 -4.33,-21.59 2.16,-37.44 13.68,-47.52 10.08,-9.36 23.76,-12.96 36.72,-11.52 15.12,2.16 29.53,12.24 36.73,31.68" inkscape:connector-curvature="0"/><path id="path140" style="fill:#fff200;fill-opacity:1;fill-rule:evenodd;stroke:none" d="m 2032.01,3832.51 c -3.6,7.2 -6.48,15.13 -8.64,23.04 -2.16,5.05 -4.32,10.09 -6.48,15.84 -23.76,2.89 -46.09,8.65 -64.81,18.01 -3.6,-5.04 -7.2,-9.36 -10.08,-14.4 -2.16,-2.16 -3.61,-5.04 -5.04,-7.2 -12.97,-19.44 -22.33,-39.61 -27.37,-61.21 -6.48,-27.36 -5.76,-56.16 5.04,-87.13 57.61,11.52 92.9,64.09 117.38,113.05" inkscape:connector-curvature="0"/><path id="path142" style="fill:#fff200;fill-opacity:1;fill-rule:evenodd;stroke:none" d="m 2038.49,3869.96 c 0.72,-2.89 2.16,-5.04 2.89,-7.92 17.28,-45.37 34.56,-102.97 93.61,-61.21 -11.53,7.92 -20.17,18 -25.92,28.8 -7.21,12.96 -11.53,28.08 -12.25,43.92 -15.84,-2.16 -33.12,-3.59 -51.13,-3.59 -2.88,0 -5.04,0 -7.2,0" inkscape:connector-curvature="0"/><path id="path144" style="fill:#fff200;fill-opacity:1;fill-rule:evenodd;stroke:none" d="m 1874.3,4073.02 c -0.71,-57.61 14.41,-102.25 41.06,-133.22 29.52,-33.12 74.16,-50.4 130.33,-50.4 97.22,-0.72 156.99,46.08 182.19,106.57 13.69,31.68 18,66.96 14.41,101.53 -3.61,34.56 -15.85,69.13 -35.29,98.65 -41.05,62.65 -117.38,103.69 -223.24,84.24 -100.81,-19.43 -162.02,-78.48 -202.35,-154.81 -41.05,-77.04 -61.21,-172.81 -79.93,-262.1 -21.6,-100.81 -38.17,-203.07 -54.73,-304.59 -13.68,-84.25 -27.36,-167.78 -43.93,-251.31 -12.24,-64.08 -28.08,-118.81 -48.25,-162.01 -18,-38.89 -38.88,-68.41 -63.37,-88.57 27.37,-15.12 57.61,-18.72 87.14,-5.04 23.76,10.8 46.8,32.4 66.97,62.64 14.4,21.61 28.08,48.25 40.32,78.49 20.89,51.85 43.93,111.61 65.53,168.5 20.89,56.88 41.05,114.49 57.61,166.34 2.17,15.11 5.77,30.24 10.81,44.64 5.04,16.56 11.52,33.12 19.44,48.96 -29.53,-23.04 -63.37,-41.04 -100.1,-52.56 -15.12,-79.21 -33.12,-154.82 -55.45,-226.83 -23.04,-87.84 -46.08,-169.93 -97.93,-213.14 30.24,65.53 56.89,145.46 79.21,218.91 21.61,70.56 39.61,144.73 54.73,221.78 l -0.72,5.04 c -5.76,41.76 -4.32,83.53 7.2,123.13 11.52,40.32 31.69,78.49 64.81,115.21 0,36.73 7.2,68.41 20.17,95.05 13.68,28.08 34.56,50.4 60.49,67.69 -11.53,27.36 -17.29,60.48 -16.57,98.65 0,15.84 19.44,15.12 19.44,-1.44 z m 167.79,-36.73 c 0,-12.96 -5.76,-25.92 -15.12,-34.56 -9.36,-9.36 -21.6,-15.12 -34.56,-15.12 -14.41,0 -27.37,5.76 -36.73,15.12 -10.08,9.36 -15.84,22.32 -15.84,36.72 0,13.69 5.76,25.93 15.12,34.57 9.36,8.64 22.32,14.4 36,15.84 2.88,0 5.77,0.72 0.72,0.72 0,0 -23.76,1.44 -36,15.12 -10.08,9.36 -15.84,22.32 -15.84,36.73 0,14.39 5.76,27.36 15.84,36.72 9.36,9.36 22.32,15.12 36.73,15.12 13.68,0 25.92,-5.04 35.28,-13.68 8.64,-7.92 14.4,-19.45 15.85,-32.41 0.71,-5.04 2.87,-14.4 2.87,-1.43 0.72,12.95 5.76,24.48 14.41,33.12 8.64,8.64 20.88,14.4 34.56,14.4 14.41,0 27.37,-5.76 36.73,-15.12 9.36,-9.36 15.12,-22.33 15.12,-36.72 0,-13.69 -6.48,-25.93 -15.84,-34.57 -9.37,-7.92 -20.89,-12.96 -33.13,-14.4 -7.92,-0.72 -7.92,-1.44 0,-2.16 12.97,-0.72 25.2,-6.48 33.85,-15.12 9.36,-9.36 15.12,-22.32 15.12,-36.73 0,-14.4 -5.76,-27.36 -15.12,-36.72 -9.36,-9.36 -22.32,-15.12 -36.73,-15.12 -14.4,0 -27.36,5.76 -36.72,15.12 -8.65,8.64 -14.41,21.6 -14.41,35.28 -0.71,6.48 -2.16,3.6 -2.16,-0.72" inkscape:connector-curvature="0"/><path id="path146" style="fill:#fff200;fill-opacity:1;fill-rule:evenodd;stroke:none" d="m 1828.22,3525.77 c 0,-0.73 -0.72,-1.45 -0.72,-2.17 -5.04,-30.96 -6.48,-63.37 -3.61,-96.49 40.34,9.36 77.06,32.41 110.91,67.69 32.4,34.56 62.65,79.93 91.45,133.93 -19.44,-10.8 -38.89,-15.12 -61.21,-12.96 -30.96,-36.72 -71.29,-79.93 -97.22,-121.69 12.25,55.44 40.33,88.57 79.94,131.77 -2.16,19.45 -2.16,38.88 -0.72,57.61 1.44,9.36 2.88,18.72 5.04,28.08 -11.53,-5.76 -24.49,-10.08 -38.17,-12.24 -32.4,-43.2 -59.05,-79.92 -75.61,-132.49 -4.32,-13.68 -7.92,-26.65 -10.08,-41.04" inkscape:connector-curvature="0"/><path id="path148" style="fill:#fff200;fill-opacity:1;fill-rule:evenodd;stroke:none" d="m 1933.36,3899.48 c -12.25,7.92 -23.05,16.56 -32.41,27.36 -7.92,9.36 -15.12,19.45 -21.61,30.96 -21.6,-15.12 -38.88,-33.84 -51.12,-58.32 -10.8,-23.04 -17.28,-51.12 -18.01,-83.53 24.49,0.72 46.81,6.48 66.97,19.44 15.85,10.09 30.25,24.49 43.21,43.21 1.44,2.16 3.6,5.04 5.04,7.92 2.88,3.6 5.04,8.64 7.93,12.96" inkscape:connector-curvature="0"/><path id="path150" style="fill:#fff200;fill-opacity:1;fill-rule:evenodd;stroke:none" d="m 2279.73,3396.87 c -16.56,26.64 -26.64,51.84 -30.96,75.61 -23.77,-64.81 -51.85,-155.54 -102.26,-202.34 34.56,66.25 62.65,149.77 87.85,221.06 -25.2,-26.65 -56.16,-45.36 -90.01,-59.77 -48.25,-87.13 -64.81,-169.93 -27.37,-264.98 38.17,22.32 72.73,49.68 100.1,85.69 34.57,43.92 50.41,91.45 62.65,144.73" inkscape:connector-curvature="0"/><path id="path152" style="fill:#fff200;fill-opacity:1;fill-rule:evenodd;stroke:none" d="m 2129.95,3445.12 c -2.88,35.28 -2.16,70.56 5.76,105.13 -0.72,0 -1.44,-0.73 -2.16,-1.45 -18.73,-17.28 -41.05,-30.24 -67.69,-36.72 -33.13,-52.56 -50.41,-100.81 -65.54,-141.13 1.45,42.48 4.33,84.97 48.25,149.77 -9.36,35.29 -11.52,66.25 -7.19,95.05 -19.45,-36 -38.9,-68.41 -60.5,-96.49 -43.92,-84.97 -59.05,-159.85 3.6,-247.7 66.25,41.04 105.86,109.45 145.47,173.54" inkscape:connector-curvature="0"/><path id="path154" style="fill:#fff200;fill-opacity:1;fill-rule:evenodd;stroke:none" d="m 1897.35,3710.1 c -10.8,28.81 -12.96,56.17 -10.08,82.09 -33.13,-44.65 -67.69,-105.13 -117.38,-132.49 27.36,52.56 72.73,102.25 109.45,154.09 -23.04,-12.24 -48.96,-18 -77.05,-17.28 -28.8,-33.12 -47.52,-68.41 -57.61,-103.69 -9.36,-33.84 -11.52,-68.41 -7.92,-103.69 70.57,22.32 113.78,66.25 160.59,120.97" inkscape:connector-curvature="0"/><path id="path156" style="fill:#fff200;fill-opacity:1;fill-rule:evenodd;stroke:none" d="m 1938.39,3471.04 c -35.28,-33.85 -72.73,-55.45 -115.21,-64.09 -11.52,-79.93 -25.93,-159.13 -43.93,-236.18 -24.48,-105.85 -55.45,-243.38 -115.94,-334.83 -18,-27.36 -40.33,-51.13 -69.85,-69.13 29.52,-33.84 60.49,-52.56 95.06,-48.24 38.88,5.04 82.81,37.44 133.94,109.45 84.97,118.81 103.69,290.91 147.62,430.6 -25.2,34.56 -38.88,67.68 -44.65,99.37 -47.52,-129.61 -89.29,-459.41 -220.35,-558.78 119.54,188.66 157.71,454.37 222.51,635.83 2.88,12.24 6.49,23.76 10.8,36" inkscape:connector-curvature="0"/><path id="path158" style="fill:#fff200;fill-opacity:1;fill-rule:evenodd;stroke:none" d="m 2397.11,3174.37 c -12.96,-20.16 -29.52,-38.89 -50.41,-54.01 0,-77.04 -0.72,-240.5 -66.97,-288.02 40.33,82.08 46.81,196.57 47.53,287.3 -14.4,17.29 -26.65,35.29 -36.01,56.17 -1.44,-19.44 -2.87,-38.17 -3.6,-56.88 -5.04,-79.22 -10.8,-159.86 -22.32,-235.47 -4.32,-26.64 -12.96,-50.4 -24.49,-74.16 -9.36,-18.01 -20.16,-35.29 -32.4,-51.85 0.72,0 0.72,0 1.44,0 111.62,-2.16 176.43,131.05 187.23,416.92" inkscape:connector-curvature="0"/><path id="path160" style="fill:#fff200;fill-opacity:1;fill-rule:evenodd;stroke:none" d="m 2217.8,3221.89 c -28.09,-30.96 -61.21,-55.44 -97.21,-75.6 -11.52,-126.02 -28.09,-249.15 -54.01,-359.32 -18.73,-77.76 -60.49,-246.26 -133.22,-288.74 59.05,97.93 87.85,180.73 113.77,293.06 25.93,110.17 43.21,234.02 54.73,360.04 -25.2,60.48 -32.4,125.29 -16.56,189.37 -22.32,-28.08 -46.81,-54 -74.89,-75.6 -7.2,-111.61 -16.57,-222.5 -32.41,-331.23 -15.12,-108.73 -36.72,-215.3 -67.69,-317.55 -10.08,-35.28 -19.44,-69.13 -37.45,-95.77 -15.84,-24.48 -37.44,-42.49 -71.29,-51.13 23.05,-19.44 45.37,-33.12 66.98,-40.32 28.8,-10.8 55.44,-11.52 80.65,-4.32 25.2,7.2 48.96,23.04 69.85,44.64 27.36,28.08 50.41,67.69 66.97,113.05 40.33,110.17 70.57,221.07 92.18,331.95 19.44,102.25 32.4,204.51 39.6,307.47" inkscape:connector-curvature="0"/><path id="path162" style="fill:#fff200;fill-opacity:1;fill-rule:evenodd;stroke:none" d="m 2426.64,2568.79 c -21.61,-21.6 -46.81,-33.12 -74.9,-33.84 -3.6,-16.56 -7.2,-33.84 -10.8,-51.84 -10.08,-46.09 -20.16,-94.34 -24.48,-140.42 -4.32,-51.12 -17.29,-80.65 -40.33,-95.05 -22.32,-14.4 -53.29,-12.24 -94.33,-1.44 -11.53,3.6 -22.33,3.6 -33.13,3.6 -12.24,0 -24.49,0.72 -38.88,3.6 -15.85,3.6 -28.09,11.52 -41.06,18.72 -8.63,5.04 -18,10.81 -27.35,14.41 -25.93,9.36 -43.93,5.76 -54.02,-5.05 -15.84,-15.12 -15.84,-44.64 -0.72,-60.48 10.81,-10.8 28.81,-15.12 54.74,-5.76 29.51,10.08 32.4,8.64 45.36,1.44 34.56,-23.76 69.85,-21.6 108.02,-20.88 -47.53,-15.85 -98.66,-26.65 -145.47,-56.89 -26.64,10.8 -61.93,14.4 -83.53,-9.36 -20.16,-21.6 -7.2,-58.33 16.56,-71.29 6.48,-4.32 13.68,-5.04 20.16,-4.32 7.93,0.72 15.13,4.32 23.05,9.36 14.4,10.09 23.76,23.77 31.68,38.89 41.05,-5.05 72.74,-4.32 95.78,34.56 40.33,-15.84 52.57,-1.44 84.26,20.88 -3.61,-64.81 -38.17,-97.21 -98.66,-110.17 -21.61,-5.04 -47.53,-9.36 -61.93,-27.36 -5.77,-6.48 -8.64,-13.68 -10.08,-20.88 -2.88,-17.29 4.31,-36.01 18,-47.53 12.96,-10.8 30.24,-17.28 46.09,-12.24 25.92,7.2 34.56,37.44 40.32,59.77 25.21,0.72 38.89,10.08 51.13,33.12 43.93,0 49.69,20.16 73.45,50.41 16.57,21.6 45.37,33.84 76.34,37.44 30.24,3.6 61.93,-0.72 83.53,-12.24 4.32,-2.16 7.92,-4.32 11.52,-6.48 0.72,-1.44 2.16,-2.17 3.6,-2.88 5.04,-3.61 9.37,-5.04 13.69,-4.32 8.63,1.44 14.4,13.68 18,20.16 5.04,7.92 7.92,12.24 12.96,15.12 18,11.52 40.33,-7.92 39.61,21.6 -5.77,19.44 -16.57,45.37 -37.45,53.29 -7.2,2.16 -15.84,2.16 -24.49,0 -26.64,-7.92 -36,-23.76 -67.68,-25.21 -16.57,0 -34.57,3.61 -44.65,18.01 -3.6,6.48 -6.48,14.4 -6.48,23.76 0,10.8 2.16,24.48 8.64,41.04 10.08,27.37 22.32,56.17 34.56,85.69 20.17,46.81 40.33,95.05 55.45,144.73 -25.2,18.73 -41.04,45.37 -46.08,76.33" inkscape:connector-curvature="0"/><path id="path164" style="fill:#fff200;fill-opacity:1;fill-rule:evenodd;stroke:none" d="m 2549.78,2115.15 c -6.49,-0.72 -20.17,0.72 -24.49,-2.16 -1.44,-0.72 -2.88,-3.6 -5.76,-8.64 -4.32,-7.21 -8.64,-14.4 -15.12,-20.16 0.72,-1.44 2.16,-2.16 2.88,-2.89 13.68,-16.56 20.88,-30.24 19.44,-51.84 29.52,10.08 36,33.12 30.25,61.93 -1.44,7.2 -4.32,15.12 -7.2,23.76" inkscape:connector-curvature="0"/><path id="path166" style="fill:#fff200;fill-opacity:1;fill-rule:evenodd;stroke:none" d="m 2121.3,1918.57 c -15.12,-0.72 -30.24,5.04 -42.48,13.68 0,-12.96 2.16,-24.48 7.92,-33.84 6.48,-11.52 18,-20.16 36.01,-26.64 -1.45,7.19 -2.16,13.68 -2.89,20.87 0,8.65 0,17.29 1.44,25.93" inkscape:connector-curvature="0"/><path id="path168" style="fill:#fff200;fill-opacity:1;fill-rule:evenodd;stroke:none" d="m 1966.48,2045.3 c -10.8,7.92 -19.44,20.16 -24.48,32.41 -25.21,-29.53 -23.05,-57.61 4.32,-85.69 2.88,18.72 9.36,37.44 20.16,53.28" inkscape:connector-curvature="0"/><path id="path170" style="fill:#fff200;fill-opacity:1;fill-rule:evenodd;stroke:none" d="m 1968.64,2212.36 c -10.08,13.68 -14.4,30.96 -12.24,47.52 -33.13,-18 -41.77,-43.92 -30.25,-79.93 11.53,15.13 25.21,25.21 42.49,32.41" inkscape:connector-curvature="0"/><path id="path172" style="fill:#fff200;fill-opacity:1;fill-rule:evenodd;stroke:none" d="m 2022.65,4037.01 c 0,28.81 36.01,35.29 41.05,2.16 v -1.44 c 0,-8.64 3.6,-16.56 9.36,-22.32 5.04,-5.76 12.96,-9.36 22.32,-9.36 8.64,0 16.57,3.6 22.32,9.36 6.48,6.48 10.09,14.4 10.09,23.04 0,9.36 -3.61,17.28 -10.09,23.05 -5.75,5.75 -13.68,9.36 -22.32,9.36 h -1.44 c -30.24,3.6 -28.08,40.32 -0.72,41.04 9.36,0 18.01,3.6 25.21,9.36 5.75,5.76 9.36,12.24 9.36,20.17 0,9.36 -3.61,17.27 -10.09,23.03 -5.75,5.77 -13.68,9.37 -22.32,9.37 -8.64,0 -15.84,-3.6 -20.88,-8.64 -5.04,-5.76 -8.64,-12.97 -7.92,-21.6 0.72,-33.13 -39.61,-34.57 -41.77,0.71 -0.72,7.92 -5.04,15.84 -10.8,20.89 -5.76,5.76 -13.69,8.64 -21.6,8.64 -9.37,0 -17.29,-3.6 -23.05,-9.37 -5.76,-5.76 -9.36,-13.67 -9.36,-23.03 0,-8.65 3.6,-16.57 9.36,-23.05 v 0 0 c 5.76,-5.76 13.68,-9.36 23.05,-9.36 33.12,-1.44 30.96,-38.16 -0.73,-40.32 -8.64,0 -17.28,-4.32 -23.04,-10.08 -5.76,-5.05 -8.64,-12.25 -8.64,-20.17 0,-8.64 3.6,-16.56 9.36,-23.04 5.76,-5.76 13.68,-9.36 23.05,-9.36 7.91,0 15.12,3.6 20.88,9.36 5.76,5.76 8.64,12.97 9.36,21.6" inkscape:connector-curvature="0"/><path id="path174" style="fill:#fff200;fill-opacity:1;fill-rule:evenodd;stroke:none" d="m 2713.96,4358.16 c -2.88,0.72 -5.76,1.45 -9.36,2.16 -2.88,-10.8 2.16,-18 9.36,-18.71 -2.88,5.75 -2.88,10.79 0,16.55" inkscape:connector-curvature="0"/><path id="path176" style="fill:#231f20;fill-opacity:1;fill-rule:evenodd;stroke:none" d="m 2890.39,1844.4 v 463.01 h 32.4 l 33.13,1558.95 -63.37,62.64 v 300.27 h 207.39 l 271.48,285.87 7.21,7.92 7.19,-7.92 270.77,-285.87 h 207.39 V 3929 l -62.64,-62.64 33.12,-1558.95 h 31.68 V 1844.4 h -975.75" inkscape:connector-curvature="0"/><path id="path178" style="fill:#ffffff;fill-opacity:1;fill-rule:evenodd;stroke:none" d="m 2975.36,3875 -47.53,47.52 h 901.59 L 3781.17,3875 h -805.81" inkscape:connector-curvature="0"/><path id="path180" style="fill:#ffffff;fill-opacity:1;fill-rule:evenodd;stroke:none" d="m 3844.54,3942.68 v 266.43 H 3673.88 V 4062.93 H 3463.6 v 146.18 h -170.67 v -146.18 h -210.27 v 146.18 h -169.95 v -266.43 h 931.83" inkscape:connector-curvature="0"/><path id="path182" style="fill:#2350a9;fill-opacity:1;fill-rule:evenodd;stroke:none" d="m 3102.82,4202.63 v -120.25 h 170.67 v 146.89 h 210.27 v -146.89 h 169.95 v 120.25 l -275.08,291.63 -275.81,-291.63" inkscape:connector-curvature="0"/><path id="path184" style="fill:#ffffff;fill-opacity:1;fill-rule:evenodd;stroke:none" d="m 3034.41,2287.25 h -123.86 v -201.62 c 37.45,0 79.21,0 123.86,0 v 201.62" inkscape:connector-curvature="0"/><path id="path186" style="fill:#ffffff;fill-opacity:1;fill-rule:evenodd;stroke:none" d="m 3368.54,2287.25 h -313.97 v -201.62 c 95.78,0 204.52,0 313.97,0 v 201.62" inkscape:connector-curvature="0"/><path id="path188" style="fill:#ffffff;fill-opacity:1;fill-rule:evenodd;stroke:none" d="m 3701.96,2287.25 h -313.25 v -201.62 c 108.74,0 216.75,0 313.25,0 v 201.62" inkscape:connector-curvature="0"/><path id="path190" style="fill:#ffffff;fill-opacity:1;fill-rule:evenodd;stroke:none" d="m 3845.98,2085.63 v 201.62 h -123.86 v -201.62 c 44.65,0 86.42,0 123.86,0" inkscape:connector-curvature="0"/><path id="path192" style="fill:#ffffff;fill-opacity:1;fill-rule:evenodd;stroke:none" d="m 3547.86,1864.56 h 298.12 v 201.62 c -83.53,0 -187.95,0 -298.12,0 v -201.62" inkscape:connector-curvature="0"/><path id="path194" style="fill:#ffffff;fill-opacity:1;fill-rule:evenodd;stroke:none" d="m 3228.84,1864.56 h 298.85 v 201.62 c -97.94,0 -200.91,0 -298.85,0 v -201.62" inkscape:connector-curvature="0"/><path id="path196" style="fill:#ffffff;fill-opacity:1;fill-rule:evenodd;stroke:none" d="m 2910.55,1864.56 h 298.85 v 201.62 c -111.62,0 -216.04,0 -298.85,0 v -201.62" inkscape:connector-curvature="0"/><path id="path198" style="fill:#ffffff;fill-opacity:1;fill-rule:evenodd;stroke:none" d="m 3092.74,3854.84 h -117.38 l -3.6,-176.42 c 39.61,0 79.21,0 118.82,0 l 2.16,176.42" inkscape:connector-curvature="0"/><path id="path200" style="fill:#ffffff;fill-opacity:1;fill-rule:evenodd;stroke:none" d="M 3368.54,3854.84 H 3112.9 l -2.16,-176.42 c 85.7,0 171.39,0 257.8,0 v 176.42" inkscape:connector-curvature="0"/><path id="path202" style="fill:#ffffff;fill-opacity:1;fill-rule:evenodd;stroke:none" d="m 3643.63,3854.84 h -254.92 v -176.42 c 85.69,0 171.38,0 257.8,0 l -2.88,176.42" inkscape:connector-curvature="0"/><path id="path204" style="fill:#ffffff;fill-opacity:1;fill-rule:evenodd;stroke:none" d="m 3785.49,3678.42 -4.32,176.42 h -117.38 l 2.16,-176.42 c 40.33,0 79.94,0 119.54,0" inkscape:connector-curvature="0"/><path id="path206" style="fill:#ffffff;fill-opacity:1;fill-rule:evenodd;stroke:none" d="m 3087.7,3462.39 h -120.26 l -4.32,-175.69 c 41.05,0 81.37,0 121.7,0 l 2.88,175.69" inkscape:connector-curvature="0"/><path id="path208" style="fill:#ffffff;fill-opacity:1;fill-rule:evenodd;stroke:none" d="m 3305.18,3462.39 h -197.32 l -2.88,-175.69 c 66.25,0 132.5,0 198.75,0 l 1.45,175.69" inkscape:connector-curvature="0"/><path id="path210" style="fill:#ffffff;fill-opacity:1;fill-rule:evenodd;stroke:none" d="m 3649.39,3462.39 h -198.03 l 2.16,-175.69 c 66.25,0 132.5,0 198.03,0 l -2.16,175.69" inkscape:connector-curvature="0"/><path id="path212" style="fill:#ffffff;fill-opacity:1;fill-rule:evenodd;stroke:none" d="m 3793.41,3286.7 -3.6,175.69 h -120.26 l 2.16,-175.69 c 40.33,0 81.38,0 121.7,0" inkscape:connector-curvature="0"/><path id="path214" style="fill:#ffffff;fill-opacity:1;fill-rule:evenodd;stroke:none" d="M 3081.94,3070.68 H 2958.8 l -3.6,-175.7 c 41.04,0 82.81,0 124.58,0 l 2.16,175.7" inkscape:connector-curvature="0"/><path id="path216" style="fill:#ffffff;fill-opacity:1;fill-rule:evenodd;stroke:none" d="M 3368.54,3070.68 H 3102.1 l -2.88,-175.7 c 90.01,0 179.31,0 269.32,0 v 175.7" inkscape:connector-curvature="0"/><path id="path218" style="fill:#ffffff;fill-opacity:1;fill-rule:evenodd;stroke:none" d="m 3655.15,3070.68 h -266.44 v -175.7 c 89.29,0 179.31,0 268.6,0 l -2.16,175.7" inkscape:connector-curvature="0"/><path id="path220" style="fill:#ffffff;fill-opacity:1;fill-rule:evenodd;stroke:none" d="m 3802.05,2894.98 -4.32,175.7 h -123.14 l 2.88,-175.7 c 41.05,0 82.82,0 124.58,0" inkscape:connector-curvature="0"/><path id="path222" style="fill:#ffffff;fill-opacity:1;fill-rule:evenodd;stroke:none" d="m 3076.18,2679.68 c -41.77,0 -83.54,0 -125.3,0 l -4.33,-176.41 h 127.47 l 2.16,176.41" inkscape:connector-curvature="0"/><path id="path224" style="fill:#ffffff;fill-opacity:1;fill-rule:evenodd;stroke:none" d="m 3368.54,2679.68 c -90.73,0 -181.47,0 -272.2,0 l -2.16,-176.41 h 274.36 v 176.41" inkscape:connector-curvature="0"/><path id="path226" style="fill:#ffffff;fill-opacity:1;fill-rule:evenodd;stroke:none" d="m 3660.19,2679.68 c -90.73,0 -181.47,0 -271.48,0 v -176.41 h 274.36 l -2.88,176.41" inkscape:connector-curvature="0"/><path id="path228" style="fill:#ffffff;fill-opacity:1;fill-rule:evenodd;stroke:none" d="m 3809.97,2503.27 -3.59,176.41 c -41.77,0 -84.26,0 -126.02,0 l 2.16,-176.41 h 127.45" inkscape:connector-curvature="0"/><path id="path230" style="fill:#ffffff;fill-opacity:1;fill-rule:evenodd;stroke:none" d="m 3229.56,3658.98 c -86.42,0 -172.11,0 -258.52,0 l -3.6,-176.42 h 260.68 l 1.44,176.42" inkscape:connector-curvature="0"/><path id="path232" style="fill:#ffffff;fill-opacity:1;fill-rule:evenodd;stroke:none" d="m 3507.53,3658.98 c -85.7,0 -172.11,0 -257.8,0 l -1.44,-176.42 h 57.6 c 6.49,122.41 138.27,122.41 145.47,0 h 57.6 l -1.43,176.42" inkscape:connector-curvature="0"/><path id="path234" style="fill:#ffffff;fill-opacity:1;fill-rule:evenodd;stroke:none" d="m 3789.09,3482.56 -3.6,176.42 c -85.69,0 -172.11,0 -257.8,0 l 1.44,-176.42 h 259.96" inkscape:connector-curvature="0"/><path id="path236" style="fill:#ffffff;fill-opacity:1;fill-rule:evenodd;stroke:none" d="m 3226.68,3266.54 c -87.86,0 -175.71,0 -263.56,0 l -3.6,-175.7 h 265.72 l 1.44,175.7" inkscape:connector-curvature="0"/><path id="path238" style="fill:#ffffff;fill-opacity:1;fill-rule:evenodd;stroke:none" d="m 3510.41,3266.54 c -87.86,0 -175.71,0 -263.57,0 l -1.44,-175.7 h 266.45 l -1.44,175.7" inkscape:connector-curvature="0"/><path id="path240" style="fill:#ffffff;fill-opacity:1;fill-rule:evenodd;stroke:none" d="m 3797.73,3090.84 -3.6,175.7 c -87.85,0 -175.7,0 -263.56,0 l 0.72,-175.7 h 266.44" inkscape:connector-curvature="0"/><path id="path242" style="fill:#ffffff;fill-opacity:1;fill-rule:evenodd;stroke:none" d="m 3223.8,2874.82 c -89.29,0 -179.31,0 -269.32,0 l -3.6,-175.69 c 90.73,0 181.47,0 271.48,0 l 1.44,175.69" inkscape:connector-curvature="0"/><path id="path244" style="fill:#ffffff;fill-opacity:1;fill-rule:evenodd;stroke:none" d="m 3513.29,2874.82 c -90.02,0 -180.03,0 -269.33,0 l -1.44,-175.69 c 90.74,0 181.47,0 271.49,0 l -0.72,175.69" inkscape:connector-curvature="0"/><path id="path246" style="fill:#ffffff;fill-opacity:1;fill-rule:evenodd;stroke:none" d="m 3805.65,2699.13 -3.6,175.69 c -89.29,0 -179.3,0 -269.32,0 l 1.44,-175.69 c 90.74,0 181.47,0 271.48,0" inkscape:connector-curvature="0"/><path id="path248" style="fill:#ffffff;fill-opacity:1;fill-rule:evenodd;stroke:none" d="m 3220.92,2483.11 h -274.37 l -3.59,-175.7 h 277.24 l 0.72,175.7" inkscape:connector-curvature="0"/><path id="path250" style="fill:#ffffff;fill-opacity:1;fill-rule:evenodd;stroke:none" d="m 3515.45,2483.11 h -274.37 l -1.44,-175.7 h 277.25 l -1.44,175.7" inkscape:connector-curvature="0"/><path id="path252" style="fill:#ffffff;fill-opacity:1;fill-rule:evenodd;stroke:none" d="m 3814.3,2307.41 -3.6,175.7 h -275.09 l 1.44,-175.7 h 277.25" inkscape:connector-curvature="0"/></g></g></svg>