<svg xmlns:dc="http://purl.org/dc/elements/1.1/" xmlns:cc="http://creativecommons.org/ns#" xmlns:rdf="http://www.w3.org/1999/02/22-rdf-syntax-ns#" xmlns:svg="http://www.w3.org/2000/svg" xmlns="http://www.w3.org/2000/svg" xmlns:sodipodi="http://sodipodi.sourceforge.net/DTD/sodipodi-0.dtd" xmlns:inkscape="http://www.inkscape.org/namespaces/inkscape" width="350" height="442" id="svg2" version="1.1" inkscape:version="0.48.1 " sodipodi:docname="club_platense_logo.svg">
  <defs id="defs4"/>
  <sodipodi:namedview id="base" pagecolor="#ffffff" bordercolor="#666666" borderopacity="1.0" inkscape:pageopacity="0.0" inkscape:pageshadow="2" inkscape:zoom="1.1696833" inkscape:cx="175" inkscape:cy="221" inkscape:document-units="px" inkscape:current-layer="layer1" showgrid="false" fit-margin-top="0" fit-margin-left="0" fit-margin-right="0" fit-margin-bottom="0" inkscape:window-width="1366" inkscape:window-height="706" inkscape:window-x="-8" inkscape:window-y="-8" inkscape:window-maximized="1"/>
  <metadata id="metadata7">
    <rdf:RDF>
      <cc:Work rdf:about="">
        <dc:format>image/svg+xml</dc:format>
        <dc:type rdf:resource="http://purl.org/dc/dcmitype/StillImage"/>
        <dc:title/>
      </cc:Work>
    </rdf:RDF>
  </metadata>
  <g inkscape:label="Layer 1" inkscape:groupmode="layer" id="layer1" transform="translate(-369.94334,-96.29524)" style="display:inline">
    <g id="g3789" transform="matrix(88.510127,0,0,88.510127,-32817.323,-47042.464)">
      <path sodipodi:nodetypes="cscscscsc" inkscape:connector-curvature="0" id="path2996-4" d="m 376.91623,532.83208 c 0,0 -0.2726,0.32021 -0.83691,0.49071 -0.56432,0.1705 -0.92905,0.11264 -0.92905,0.11264 0,0 -0.20205,1.19755 0.34938,2.37248 0.55142,1.17492 1.42478,1.5697 1.42478,1.5697 0,0 0.87407,-0.39478 1.4255,-1.5697 0.55142,-1.17493 0.34866,-2.37248 0.34866,-2.37248 0,0 -0.36473,0.0579 -0.92905,-0.11264 -0.56432,-0.1705 -0.85331,-0.49071 -0.85331,-0.49071 z" style="fill:#ffffff;fill-opacity:1;stroke:none"/>
      <path inkscape:connector-curvature="0" id="path3809" d="m 376.91438,532.69793 -0.0653,0.0768 c 0,0 -0.25308,0.29953 -0.79561,0.46345 -0.54893,0.16584 -0.88959,0.10976 -0.88959,0.10976 l -0.0861,-0.0136 -0.0143,0.0868 c 0,0 -0.20894,1.22079 0.35583,2.42414 0.56345,1.20052 1.46855,1.61274 1.46855,1.61274 l 0.0366,0.0165 0.0366,-0.0165 c 0,0 0.90581,-0.41219 1.46926,-1.61274 0.56479,-1.20338 0.35512,-2.42485 0.35512,-2.42485 l -0.0143,-0.0861 -0.0861,0.0136 c 0,0 -0.34067,0.0561 -0.88959,-0.10976 -0.54299,-0.16405 -0.81355,-0.4656 -0.81355,-0.4656 l -0.0674,-0.0746 z m 0.003,0.25683 c 0.10898,0.0979 0.35424,0.28975 0.73032,0.42112 l -2.34163,1.58907 c -0.15948,-0.70775 -0.0971,-1.29 -0.0775,-1.43554 0.14507,0.008 0.45823,0.004 0.87668,-0.12196 0.42945,-0.12975 0.69747,-0.34557 0.81211,-0.45269 z m 1.70313,1.55463 c -0.0427,0.37382 -0.14145,0.81513 -0.35081,1.26121 -0.50434,1.0746 -1.24728,1.45914 -1.34515,1.50657 -0.0782,-0.0379 -0.56269,-0.28949 -1.01155,-0.93048 l 2.70751,-1.8373 z" style="fill:#5c3919;fill-opacity:1;stroke:none"/>
      <g id="text3869" style="font-size:57.90471268px;font-style:normal;font-variant:normal;font-weight:normal;font-stretch:normal;text-align:center;line-height:125%;letter-spacing:0px;word-spacing:0px;text-anchor:middle;fill:#ffffff;fill-opacity:1;stroke:none;font-family:Vipnagorgialla;-inkscape-font-specification:Vipnagorgialla" transform="matrix(0.01921149,-0.01256787,0.01256787,0.01921149,374.96879,532.57127)">
        <path inkscape:connector-curvature="0" id="path3874" style="font-weight:bold;fill:#ffffff;fill-opacity:1;font-family:Arial;-inkscape-font-specification:Arial Bold" d="m -10.270223,132.94276 8.1145768,2.57292 c -1.2440842,4.52381 -3.3127808,7.88367 -6.206096,10.0796 -2.8933808,2.19593 -6.5642568,3.2939 -11.0126398,3.2939 -5.50398,0 -10.027781,-1.88021 -13.571417,-5.64062 -3.543652,-3.76041 -5.315474,-8.90152 -5.315472,-15.42335 -2e-6,-6.89878 1.781244,-12.25666 5.343746,-16.07365 3.562485,-3.81692 8.246504,-5.7254 14.052071,-5.72544 5.070405,4e-5 9.1889493,1.49855 12.3556448,4.49553 1.8848827,1.77186 3.2985705,4.3165 4.2410678,7.63392 l -8.2842196,1.97917 c -0.490109,-2.14878 -1.512676,-3.84521 -3.067706,-5.08928 -1.555084,-1.24402 -3.444713,-1.86604 -5.668894,-1.86607 -3.072436,3e-5 -5.565239,1.10271 -7.478416,3.30803 -1.913205,2.20538 -2.8698,5.7773 -2.869789,10.71576 -1.1e-5,5.24009 0.942447,8.97223 2.827379,11.19642 1.884902,2.22421 4.335295,3.33632 7.351184,3.33631 2.22418,1e-5 4.137371,-0.70684 5.739578,-2.12054 1.602152,-1.41367 2.751952,-3.63788 3.449402,-6.67261 z"/>
        <path id="path3876" style="font-weight:bold;fill:#ffffff;fill-opacity:1;font-family:Arial;-inkscape-font-specification:Arial Bold" d="m 41.027347,148.44203 -9.104159,0 -3.619044,-9.41517 -16.568439,0 -3.4211278,9.41517 -8.87796859,0 16.14433139,-41.44937 8.849695,0 z M 25.618134,132.04324 19.906829,116.6623 14.30862,132.04324 z" inkscape:connector-curvature="0"/>
        <path id="path3878" style="font-weight:bold;fill:#ffffff;fill-opacity:1;font-family:Arial;-inkscape-font-specification:Arial Bold" d="m 45.494606,148.44203 0,-41.44937 13.430048,0 c 5.089259,4e-5 8.406713,0.20738 9.952373,0.62203 2.374968,0.62206 4.363555,1.97449 5.965768,4.05728 1.602146,2.08287 2.403236,4.77359 2.403272,8.07217 -3.6e-5,2.54467 -0.461841,4.68405 -1.385415,6.41815 -0.923644,1.73414 -2.097005,3.096 -3.520087,4.08556 -1.423143,0.9896 -2.869817,1.64461 -4.340026,1.96503 -1.998039,0.39585 -4.891386,0.59376 -8.680052,0.59375 l -5.45684,0 0,15.6354 z m 8.369041,-34.43747 0,11.7619 4.580353,0 c 3.298588,2e-5 5.503941,-0.21675 6.616066,-0.6503 1.112077,-0.43351 1.983851,-1.11208 2.615325,-2.03571 0.631421,-0.92359 0.947144,-1.99799 0.947172,-3.22322 -2.8e-5,-1.5079 -0.442983,-2.75195 -1.328868,-3.73213 -0.885937,-0.98013 -2.007463,-1.59273 -3.364581,-1.8378 -0.999029,-0.18846 -3.006465,-0.2827 -6.022316,-0.28274 z" inkscape:connector-curvature="0"/>
      </g>
    </g>
  </g>
</svg>