<svg xmlns="http://www.w3.org/2000/svg" id="Warstwa_1" data-name="Warstwa 1" shape-rendering="geometricPrecision" viewBox="0 0 510.41 832.65"><defs><style>.cls-1{fill:#8b0304;}.cls-2{fill:#00225c;}.cls-3{fill:#00245d;}.cls-4{fill:#8b0e04;}.cls-5,.cls-6{fill:#ffd200;}.cls-5{fill-rule:evenodd;}</style></defs><title>pogon_herb_wektor</title><polygon class="cls-1" points="255.23 821.7 3.75 2.4 255.23 2.4 255.23 821.69 255.23 821.7"/><polygon class="cls-2" points="255.23 821.7 506.63 2.32 255.23 2.32 255.23 821.69 255.23 821.7"/><polygon class="cls-3" points="255.23 821.7 14.93 38.83 255.23 38.83 255.23 821.69 255.23 821.7"/><polygon class="cls-4" points="255.23 821.7 495.53 38.83 255.23 38.83 255.23 821.69 255.23 821.7"/><path class="cls-5" d="M270.46,150.22c-3.4-9.51-8.27-18.83-13.92-28.55,6.76.73,15.5,12.58,22.06,11.15q-5.11,10,3.29,11.11c4.49-.87,5-4.82,1.57-11.06,13.55-.14,8-8.59,14.12-10.75,5.74,1.19,1.66,10.88,15.89,12.53-3.74,6.28-1.81,9.47,2.41,10.38,6.36.12,6.83-3.8,2.6-10.13,8.55.31,13.82-8.89,20.59-9.65-6,11-9.87,26.76-7.94,31.22,20.18,4.23,18.08-6.41,21.62-4.66,1.26,14.27-2.85,23.11-14.32,25a94.78,94.78,0,0,0,15.64,44.32c-14.25-4.58-20.84-3.28-24.75,4.91-3.36-5.85-7-16.94-9.66-16.95-1.77.06-6.39,15.7-11.08,22.75-2.82-2.43-3.92-23.07-17.61-12.93-3.26.13-4.47-7-.64-9.17,8.34,2.85,14-1.85,12.36-13.58-.78-5.48-11.11-18.69-19.17-27.66l6.42.65q1.79,7.94,6.77,7.83c5.91,0,6.11-4.12-2.16-7.18,11.75-.51,20-2.63,18.45-6.36-1.64-2.31-9.16,5.29-22.46-1.58-5.06.35-12.83,7.22-24.91-3.17-2.37,2.1,15.94,8.22,28.88,31.67,4.22,9.94,2,14.9-7.06,15.17a146.55,146.55,0,0,1-25.59-1.78c-3.39-1-5.7-3.52-7.5-6.69,19.88,3.2,35.23,4.52,34.42-.89,1.09-11.3-19.83-18-28.68-20.52-4.67-.74-8.69,1.28-12.84,4.85q-7.31-12.69.48-25.37c26-1.52,78.18-.23,77.9-4.57-.16-2.41-36.32-.15-55.15-.33" transform="translate(-46.25 -5)"/><path class="cls-5" d="M225.54,174.31c3.07-1.56,6.28,11.21,17.37,11.2,25.13.31,37.75,2.78,37.79,4.63-.18,1.92-22.62-2.63-40.27.67-1,.86.2,17.47,2.76,18.62,1.29,1,4-.18,4.86.89,1.67,6.18-20.54,5.53-19.41.45-.26-2.16,5.88,1.15,8.16-2.12l-.66-18.51c-6.56-2.83-9.91-8.26-10.59-15.84" transform="translate(-46.25 -5)"/><polygon class="cls-5" points="255.26 472.77 270.15 487.82 255.26 502.87 240.38 487.82 255.26 472.77"/><path class="cls-5" d="M281.33,247.11a71.83,71.83,0,0,0,12.29-25.75c7.72-4.68,10.68,16.86,15.32,19.8a103.2,103.2,0,0,0,11.4-18.72,55.31,55.31,0,0,0,9.44,12.78c5.31-9.63,14-15.34,19.77-9,10,16.16-3.49,12.23,7.12,44.11,1,3.54-9.85-6.78-14.78-8.28-1.71-.34-3.58,12.95-11,16.39-2.91.66-6.53-14.28-10.86-16.2-2,1.56-2.91,14.52-11.4,16.75-2.67.36-10-16.57-11.76-33.49q-9.88,3.69-15.49,1.62" transform="translate(-46.25 -5)"/><path class="cls-5" d="M268.43,281.7c26.6,3.14,16.76-27.65,24.43-30.52,2.92,3.38,4.94,30.29,14.82,33.58q10.29-.28,14-10.54,4.94,9.16,11,11.65c3.57-1.57,7.59-5.92,12.62-16.37,16.88,3.29,1.6,40.37,5.49,71.59-5.85,2.73-13.72-5.23-22.5-18-5.78,13-11.87,21.43-18.39,23.31q-6.31.28-8.23-29.41c-5.76,5.69-11.07,9.29-15.37,8.32-6-4.74-7.25-16.07-5.21-31.91-5.49-1.76-10.06-4-12.62-11.66" transform="translate(-46.25 -5)"/><path class="cls-5" d="M244.84,316.36c2.57,6.93,6.11,9.82,12.49,9.82,6.08-1.38,12-5.11,17.72-12.28,2.85,10.75,6.33,18.27,10.71,18.2,7.62-1.11,7.38-2.94,11-4.77,3.42,17.73,8.25,27.6,15.14,26,6.22-.56,11.65-8,16.71-18.49q4.92,6.11,11.58,6.07c-13.27,49-22.22,76.65-5.43,84.65-12.46,9.44-28.92,2.31-33.34-18.49-3.84,1.22-11.83,16.38-21.52,15.6-4.07-15.21-7.5-30.43-11.57-45.65-4.75,4.43-11.32,7-21.87,6.14,2.79-10,5.87-29.8,1.63-36-13.69-13.52-11.74-19.51-3.27-30.83" transform="translate(-46.25 -5)"/><path class="cls-5" d="M220.43,245.82c-2.79-.87,7.85-16.06,11.31-15.37,2.89.93-2.22,22.44-8.16,28.3-1.92-1.37,4.51-14.37,2.78-15.93-1.61.07-4,2-5.93,3" transform="translate(-46.25 -5)"/><path class="cls-5" d="M206.62,284.54c-3.56-3,1.61-37.89,7.06-38.42,3.73-.61,4.42,12.15,2.49,21.88-2.45,1.26-2.26-4.91-3.32-7.43-4.4-.89-3.72,21.27-6.23,24" transform="translate(-46.25 -5)"/><path class="cls-5" d="M209.9,294.7c-4.21-3.16,11.55-29.47,14-29.6,2.88-.36-1,36.22-7.08,43.34-4.53,1,3.19-21.35.76-23-2-1.54-5.1,8.71-7.65,9.29" transform="translate(-46.25 -5)"/><path class="cls-5" d="M208.39,343.68c-7.3-10.54-9.52-45.49-6.58-47.1,1.8-.63,11.7,17.18,10.46,29.86-2.47,1.2-4.95-14.85-6.41-13.31-4.22,3.53,5.06,28.39,2.53,30.55" transform="translate(-46.25 -5)"/><path class="cls-5" d="M211.59,349.48c.57-17.71,8.71-39.57,12.15-39.76,3.58.34,2.83,34.13-2.53,51.19-2-1,.5-21.16-1.52-27.65-2.49.12-5.55,18.26-8.1,16.21" transform="translate(-46.25 -5)"/><path class="cls-5" d="M221,392.5c-8.73-6.38-18.11-36.22-14.8-40.17,1.21-1.62,18.88,20.36,16.78,23.63-1.47,1.3-7-8.43-8.62-7.92-3.5,1.87,7.34,20.74,6.64,24.46" transform="translate(-46.25 -5)"/><path class="cls-5" d="M229.32,403.85c-5.06-4.53-2.87-43-.12-43.72s11.59,42.6,7,46.91c-3.26-1.1-2.45-27.14-5.6-26.35-1.44.75.51,24.07-1.28,23.16" transform="translate(-46.25 -5)"/><path class="cls-5" d="M242.53,439.16c-2.67,2.08-29.26-34.15-25-38.64,2.69-2.85,24.78,19.65,22.43,23.3-1.31,2.93-9.81-8.42-10.16-5.49,2.21,7.73,14.47,19.37,12.7,20.83" transform="translate(-46.25 -5)"/><path class="cls-5" d="M252.91,448.91c-6.89,0-13.21-41.75-9.94-45.69,3.2-1.91,21.95,45.22,18.23,48-3.57,2.2-10.46-31-13.36-29-1.73,1.49,6.7,26.51,5.08,26.65" transform="translate(-46.25 -5)"/><path class="cls-5" d="M281.19,483.4c-3,3.87-39.22-26.27-36.34-33.38,1.5-3.37,19.23,6.14,26.07,17.58-.22,5-8.88-6.24-9.61-3.13,6.3,11.46,20.88,14.74,19.89,18.93" transform="translate(-46.25 -5)"/><path class="cls-5" d="M263.72,439.9c-.66,1.59.65,26.77,37.75,55.53-3.4-10.22-10.2-27.39-13.62-33.08-9.19-17-23.38-24.24-24.13-22.44m10.86,14a16.81,16.81,0,0,0,3.79,11.23,28.37,28.37,0,0,0,8.08,7.66c.4-2.44-.57-6.12-3.53-11.62C280.43,457.45,277.74,454.64,274.59,453.94Z" transform="translate(-46.25 -5)"/><path class="cls-5" d="M382.52,245.82c2.79-.87-7.85-16.06-11.31-15.37-2.9.93,2.22,22.44,8.16,28.3,1.92-1.37-4.51-14.37-2.78-15.93,1.61.07,4,2,5.93,3" transform="translate(-46.25 -5)"/><path class="cls-5" d="M396.34,284.54c3.56-3-1.61-37.89-7.06-38.42-3.73-.61-4.43,12.15-2.49,21.88,2.45,1.26,2.26-4.91,3.32-7.43,4.4-.89,3.72,21.27,6.23,24" transform="translate(-46.25 -5)"/><path class="cls-5" d="M393.05,294.7c4.21-3.16-11.55-29.47-14-29.6-2.88-.36,1,36.22,7.08,43.34,4.53,1-3.19-21.35-.77-23,2-1.54,5.1,8.71,7.65,9.29" transform="translate(-46.25 -5)"/><path class="cls-5" d="M394.57,343.68c7.3-10.54,9.52-45.49,6.58-47.1-1.8-.63-11.7,17.18-10.46,29.86,2.47,1.2,4.95-14.85,6.41-13.31,4.22,3.53-5.07,28.39-2.53,30.55" transform="translate(-46.25 -5)"/><path class="cls-5" d="M391.36,349.48c-.57-17.71-8.71-39.57-12.15-39.76-3.58.34-2.83,34.13,2.53,51.19,2-1-.5-21.16,1.52-27.65,2.49.12,5.55,18.26,8.1,16.21" transform="translate(-46.25 -5)"/><path class="cls-5" d="M381.91,392.5c8.74-6.38,18.11-36.22,14.8-40.17-1.2-1.62-18.88,20.36-16.78,23.63,1.47,1.3,7-8.43,8.62-7.92,3.5,1.87-7.34,20.74-6.64,24.46" transform="translate(-46.25 -5)"/><path class="cls-5" d="M373.63,403.85c5.06-4.53,2.86-43,.12-43.72s-11.59,42.6-7,46.91c3.26-1.1,2.45-27.14,5.59-26.35,1.44.75-.5,24.07,1.28,23.16" transform="translate(-46.25 -5)"/><path class="cls-5" d="M360.43,439.16c2.67,2.08,29.26-34.15,25-38.64-2.69-2.85-24.78,19.65-22.43,23.3,1.31,2.93,9.81-8.42,10.16-5.49-2.21,7.73-14.47,19.37-12.7,20.83" transform="translate(-46.25 -5)"/><path class="cls-5" d="M350,448.91c6.89,0,13.21-41.75,9.94-45.69-3.2-1.91-21.95,45.22-18.23,48,3.57,2.2,10.46-31,13.36-29,1.73,1.49-6.7,26.51-5.08,26.65" transform="translate(-46.25 -5)"/><path class="cls-5" d="M321.76,483.4c3,3.87,39.22-26.27,36.34-33.38-1.5-3.37-19.23,6.14-26.07,17.58.22,5,8.88-6.24,9.61-3.13-6.29,11.46-20.88,14.74-19.88,18.93" transform="translate(-46.25 -5)"/><path class="cls-5" d="M339.23,439.9c.66,1.59-.65,26.77-37.75,55.53,3.4-10.22,10.2-27.39,13.63-33.08,9.19-17,23.38-24.24,24.13-22.44m-10.86,14a16.81,16.81,0,0,1-3.79,11.23,28.37,28.37,0,0,1-8.08,7.66c-.4-2.44.57-6.12,3.53-11.62C322.52,457.45,325.22,454.64,328.37,453.94Z" transform="translate(-46.25 -5)"/><path class="cls-6" d="M124.86,64a12.41,12.41,0,0,0-4.47-1.81,41.67,41.67,0,0,0-7.05-.43H101.52v45.5h9.6V90.4h2.12a41.19,41.19,0,0,0,8-.54,11.2,11.2,0,0,0,4.69-2.44,14.48,14.48,0,0,0,5.19-11.61A13.3,13.3,0,0,0,124.86,64m-6,16.49c-1,.55-3,.89-5.83.88h-1.89V70.78h2.22a14.8,14.8,0,0,1,5.44.67,4.49,4.49,0,0,1,2.77,4.41A4.79,4.79,0,0,1,118.84,80.46ZM484.4,60l14.25-7.52-3.74-7.32-14.69,8.68,3.55,6.49Zm11.4,1.74V91.78L478.61,61.73H468.17v45.5h9.61v-30l17.36,30h10.27V61.73Zm-293.67-.87A23,23,0,0,0,184,69.17a22.39,22.39,0,0,0-5.66,15.07,23.65,23.65,0,0,0,23.76,23.85h0a23,23,0,0,0,16.75-6.91,23.54,23.54,0,0,0,0-33.41A23,23,0,0,0,202.13,60.86Zm10,33.93a13.85,13.85,0,0,1-20,0A14,14,0,0,1,188,84.56a14.33,14.33,0,0,1,4.14-10.36,13.28,13.28,0,0,1,10-4.29,13.45,13.45,0,0,1,10,4.25,14.9,14.9,0,0,1,0,20.62ZM394.3,60.86a23,23,0,0,0-18.09,8.31,22.39,22.39,0,0,0-5.66,15.07,23.65,23.65,0,0,0,23.76,23.85h0a23,23,0,0,0,16.75-6.91,23.54,23.54,0,0,0,0-33.41A23,23,0,0,0,394.3,60.86Zm10,33.93a13.85,13.85,0,0,1-20,0,14.06,14.06,0,0,1-4.17-10.23,14.35,14.35,0,0,1,4.14-10.36,13.28,13.28,0,0,1,10-4.29,13.45,13.45,0,0,1,10,4.25,14.9,14.9,0,0,1,0,20.62ZM322.44,83.35H292.3V92.4h18a13.73,13.73,0,0,1-4.5,4.57A13.29,13.29,0,0,1,298.55,99a14.53,14.53,0,0,1-10.68-4.2,14.06,14.06,0,0,1-4.26-10.48,14.61,14.61,0,0,1,3.29-9.24,14.32,14.32,0,0,1,17.52-3.66,12.82,12.82,0,0,1,4.78,4.3l.22.32h11.16l-.35-1a20.2,20.2,0,0,0-8.49-10.19,24.49,24.49,0,0,0-27.74.48,23.27,23.27,0,0,0-7.38,8.44A23.6,23.6,0,0,0,274,84.78a22.26,22.26,0,0,0,1.69,8.39,23.15,23.15,0,0,0,12.92,12.92,26.05,26.05,0,0,0,10.06,2,23.58,23.58,0,0,0,10.07-2.31,24,24,0,0,0,8.32-6.27,21.71,21.71,0,0,0,5.43-14.37l0-1.09Z" transform="translate(-46.25 -5)"/><path class="cls-6" d="M237.71,533.46a37.51,37.51,0,0,0,7.8-1.24,30.81,30.81,0,0,0,6.43-2.78h2.16v37.79a2.35,2.35,0,0,0,.59,1.71,2.17,2.17,0,0,0,1.62.61h5.49v2.87H238.89v-2.87h4.31a3.07,3.07,0,0,0,2.35-.76,3.63,3.63,0,0,0,.7-2.49v-28a2,2,0,0,0-.58-1.52,2.51,2.51,0,0,0-1.73-.53h-6.23Zm51.9,18.36-.48.4a11.72,11.72,0,0,1-8,3.52,10.25,10.25,0,0,1-6.93-2.63q-3.93-3.4-3.93-9.6a17.41,17.41,0,0,1,1.76-8,12.52,12.52,0,0,1,4.9-5.3,14.16,14.16,0,0,1,7.31-1.85,12.05,12.05,0,0,1,10.1,4.75q4.4,5.75,4.39,15.44,0,11.46-5.34,18.52-4.75,6.24-11.63,6.24a10.84,10.84,0,0,1-7.24-2.41,7,7,0,0,1-2.86-5.36,5.34,5.34,0,0,1,1.33-3.75,4.25,4.25,0,0,1,3.28-1.47,3.83,3.83,0,0,1,2.91,1.27,4.46,4.46,0,0,1,1.16,3.14,6.34,6.34,0,0,1-.77,2.62,3.84,3.84,0,0,0-.45,1.49,1.3,1.3,0,0,0,.54,1.08,3.23,3.23,0,0,0,1.94.55,5.63,5.63,0,0,0,3.81-1.71,12.22,12.22,0,0,0,3-5.8A45.56,45.56,0,0,0,289.61,551.83Zm-5.37-20.62a4.58,4.58,0,0,0-4,2.43q-1.52,2.45-1.52,8.46c0,3.48.46,5.94,1.37,7.4a4.2,4.2,0,0,0,3.68,2.17A5.06,5.06,0,0,0,288,549q1.77-2.64,1.76-8c0-3.61-.66-6.26-2-7.93A4.4,4.4,0,0,0,284.24,531.21Zm40.09-2.66h2.75v29.82H333v3.39h-5.9V567a2.44,2.44,0,0,0,.69,1.9,3.07,3.07,0,0,0,2.17.64h1.56v2.87H313.11v-2.87h3a3.11,3.11,0,0,0,2.39-.71,3.91,3.91,0,0,0,.82-2.75v-4.32H304.16V557.6Zm-5,12.16-12.23,17.66h12.23ZM359.17,547q5.26,2.33,7.25,5.17a12,12,0,0,1,2,7.11,13.75,13.75,0,0,1-3.93,10.19q-3.91,3.92-10.65,3.92-6.53,0-10.21-3.15a10.13,10.13,0,0,1-3.67-8.06,9.39,9.39,0,0,1,2-6.14c1.37-1.67,3.83-3.13,7.36-4.42q-4.46-2.24-6.14-4.81a11,11,0,0,1-1.68-6.14,11.72,11.72,0,0,1,3.62-8.62,12.36,12.36,0,0,1,9.11-3.61,13.35,13.35,0,0,1,8.77,2.75,8.12,8.12,0,0,1,3.33,6.39,8.5,8.5,0,0,1-1.56,4.94A16.38,16.38,0,0,1,359.17,547Zm-2.28-.87a11.44,11.44,0,0,0,3.23-3.53,8.85,8.85,0,0,0,.85-4.07,7.39,7.39,0,0,0-1.93-5.32,6.68,6.68,0,0,0-5.08-2,6.48,6.48,0,0,0-4.77,1.8,6.6,6.6,0,0,0-.09,9Q350.85,543.76,356.89,546.09Zm-5,6.67a9.12,9.12,0,0,0-4.17,3.38,10.25,10.25,0,0,0-1.33,5.53,9.15,9.15,0,0,0,2.19,6.5,7.62,7.62,0,0,0,5.84,2.33,8.6,8.6,0,0,0,6.16-2.2,7.45,7.45,0,0,0,2.35-5.67,6.61,6.61,0,0,0-2.31-5.31Q358.34,555.34,351.9,552.75Z" transform="translate(-46.25 -5)"/><path class="cls-6" d="M301.46,837.65,46.25,5H556.66ZM54.94,11.42,301.46,815.74,548,11.42Z" transform="translate(-46.25 -5)"/></svg>