<svg xmlns="http://www.w3.org/2000/svg" xmlns:xlink="http://www.w3.org/1999/xlink" version="1.0" id="Ebene_1" x="0px" y="0px" width="510.697px" height="566.93px" viewBox="0 0 510.697 566.93" enable-background="new 0 0 510.697 566.93" xml:space="preserve">
<path fill-rule="evenodd" clip-rule="evenodd" d="M214.867,111.771c-4.664,4.207-9.789,14.173-14.759,25.972  c-3.4,8.072-7.336,16.839-8.263,25.372c3.313-0.663,6.625-1.656,9.938-2.319c-1.456-0.697-2.708-1.671-3.467-2.865  C195.261,153.119,209.202,124.061,214.867,111.771L214.867,111.771z"/>
<path fill-rule="evenodd" clip-rule="evenodd" d="M297.554,112.185c4.664,4.207,10.288,14.34,15.257,26.138  c3.4,8.072,6.84,16.756,7.766,25.288c-3.313-0.662-6.709-1.573-10.021-2.235c1.455-0.697,2.708-1.338,3.467-2.533  C317.077,154.033,303.219,124.476,297.554,112.185L297.554,112.185z"/>
<path fill-rule="evenodd" clip-rule="evenodd" d="M214.702,129.823c-3.161,7.666-5.839,18.241-7.453,28.984  c1.491-0.221,2.981-0.442,4.472-0.662C211.73,149.323,213.922,138.464,214.702,129.823L214.702,129.823z"/>
<path fill-rule="evenodd" clip-rule="evenodd" d="M297.702,129.988c2.331,5.587,6.17,19.655,7.287,29.317  c-1.49-0.221-2.981-0.442-4.472-0.662C300.507,149.821,298.813,139.46,297.702,129.988L297.702,129.988z"/>
<polygon fill-rule="evenodd" clip-rule="evenodd" points="223.272,145.723 221.575,154.17 223.811,153.715 223.944,145.639   223.272,145.723 "/>
<path fill-rule="evenodd" clip-rule="evenodd" d="M87.043,202.321c43.945-22.44,90.916-38.833,140.251-43.54  c21.829-2.083,43.903-2.083,65.731,0c49.881,4.76,96.731,19.913,140.65,43.907l1.265,0.692l0.134,1.436  c2.972,32.09,3.593,64.589-0.301,96.63c-3.257,26.793-9.651,52.414-19.331,77.605c-5.362,13.955-11.61,27.537-18.429,40.838  c-19.71,38.451-45.567,72.818-78.271,101.178c-12.029,10.432-24.781,20.09-37.953,29.031c-6.301,4.277-12.71,8.395-19.216,12.352  l-1.409,0.855l-1.408-0.857c-13.507-8.232-26.703-17.27-39.278-26.861c-6.355-4.848-12.585-9.875-18.608-15.129  c-32.378-28.244-58-62.402-77.563-100.568c-6.713-13.096-12.855-26.475-18.133-40.217c-9.728-25.334-16.119-51.113-19.36-78.061  c-3.873-32.206-3.223-64.878-0.236-97.128l0.137-1.484L87.043,202.321L87.043,202.321z M260.175,541.896  c16.311-10.393,32.078-21.934,46.651-34.57c30.942-26.832,55.355-59.357,74.003-95.734c22.843-44.563,30.944-88.285,34.206-130.267  c-31.823-20.897-78.428-41.33-154.871-44.046L260.175,541.896L260.175,541.896z"/>
<path fill-rule="evenodd" clip-rule="evenodd" fill="#F0BF05" d="M85.635,199.563c44.298-22.62,91.635-39.119,141.365-43.865  c22.024-2.102,44.295-2.102,66.319,0c50.299,4.8,97.554,20.077,141.841,44.272l2.712,1.482l0.285,3.077  c2.992,32.311,3.61,65.027-0.311,97.289c-3.288,27.047-9.744,52.914-19.515,78.342c-5.401,14.061-11.694,27.742-18.563,41.141  c-19.892,38.805-45.994,73.484-78.998,102.105c-17.862,15.488-37.402,29.412-57.589,41.688l-3.02,1.836l-3.018-1.84  c-20.195-12.309-40.464-26.732-58.31-42.301c-32.674-28.502-58.54-62.973-78.283-101.488c-6.764-13.195-12.951-26.674-18.268-40.52  c-9.819-25.572-16.272-51.6-19.543-78.801c-3.899-32.425-3.253-65.312-0.246-97.782l0.294-3.182L85.635,199.563L85.635,199.563z   M88.275,204.733c46.463-23.726,92.669-38.809,139.277-43.256c21.631-2.064,43.585-2.064,65.217,0  c46.608,4.448,93.146,18.204,139.608,43.588c8.735,94.318-6.803,153.169-37.773,213.589c-19.178,37.41-44.536,71.662-77.637,100.365  c-11.908,10.328-24.705,20.016-37.699,28.836c-6.347,4.309-12.74,8.41-19.103,12.279c-17.995-10.969-39.592-26.084-57.515-41.719  c-32.76-28.576-57.892-62.617-76.933-99.762C94.747,358.236,79.54,299.051,88.275,204.733L88.275,204.733z"/>
<path fill-rule="evenodd" clip-rule="evenodd" d="M367.267,98.417c-2.628,1.587-19.058,5.129-25.216,1.576  c-5.896,2.369-12.787,2.052-20.01,0.208c-0.292,2.096-0.971,3.609-1.704,4.375c-8.185,0.564-11.971-0.635-17.415-3.01  c-1.901,1.179-6.981,1.388-10.848,0.128c1.408,2.287,3.564,4.255,7.63,4.991c-1.687,2.646-4.985,4.258-9.272,3.135  c0.174,3.048,2.202,6.344,7.247,8.063c-1.803,1.69-3.909,1.8-6.154,1.495c0.679,4.304,3.518,7.01,7.105,7.874  c-2.154,1.828-5.248,1.771-6.379,1.575c0.892,4.501,3.405,5.327,6.397,6.521c-1.116,2.277-3.864,2.92-5.588,2.841  c0.435,2.724,1.867,4.41,7.946,5.307c-2.275,2.891-6.044,4.922-11.638,3.602c-0.097,2.148,1.169,3.055,3.789,3.956  c2.747,0.944,6.667-0.021,9.694,0.735c2.265,0.566,3.551,1.325,4.859,3.354c1.949,0.248,4.654,0.639,5.939,2.714  c1.17,1.89,0.779,3.8-1.36,5.035c0.552-1.69-0.142-2.881-0.917-3.241c-0.41,1.559-1.841,2.036-3.241,1.989  c-1.235-0.042-2.826-0.503-4.176-2.071c-5.731,0.46-6.469-2.401-9.328-2.629c2.611,1.513,4.053,5.087,3.525,8.283  c-0.39,2.369-1.692,4.56-3.311,4.492c-1.726-0.073-4.506-1.029-6.397-3.313s-2.815-5.23-3.572-8.292  c-2.785,2.085-5.899,3.673-7.929,4.601c-4.281,1.958-5.941,0.009-10.459,1.132c-0.516-2.345-0.698-4.44-0.134-6.619  c-1.896-0.939-3.374-1.796-4.355,1.921c-0.458-2.695-0.243-4.543,0.706-5.37c1.582-1.38,4.621-0.276,5.674-0.143  c1.938-3.427,4.79-3.862,9.218-3.796c1.341-0.476,1.271-1.867,1.284-2.924c-3.9-0.368-8.266-1.964-9.835-3.469  c-3.971-7.042-7.804-22.087-2.271-37.585c1.229,16.139,3.232,25.932,7.88,29.581c0.921,0.723,7.556,1.442,11.511,0.713  c1.107-0.204,2.341-1.233,3.248-2.72c-3.177-2.342-3.864-7.56-6.971-10.675c1.248-0.411,3.947-0.531,5.861-0.276  c-2.146-3.426-4.042-7.351-6.188-10.111c1.14-0.893,3.192-0.981,4.333-1.097c-2.33-2.16-3.416-5.65-5.663-8.476  c1.335-0.034,2.849-0.707,5.54-0.52c-0.432-1.495-0.797-2.27-1.159-3.2c-0.51-1.305-1.215-2.458-1.703-3.279  c-0.525-0.884-0.257-1.549,0.006-1.905c4.81-6.531,9.427-15.342,4.102-34.146c5.711,9.328,6.737,17.438,6.382,23.369  c-0.187,3.106-0.826,5.645-0.591,7.521c0.103,0.817,3.68,1.396,5.053,1.799c-1.087-7.446,0.124-19.183,5.332-28.514  c-0.627,6.155-1.123,13.637-0.416,17.809c0.888,5.238,5.099,10.422,5.303,10.553c0.875,0.563,3.447,1.394,7.49,1.244  c-4.571-9.116-7.068-19.562-4.857-28.733c1.902,9.932,6.567,18.387,10.548,23.662c1.061,1.405,10.05-0.343,12.474,1.282  c-5.708-9.54-10.68-20.624-10.08-30.384c6.837,14.322,19.232,30.224,22.252,30.247c3.635,0.016,5.526-0.633,10.24-0.784  c-10.337-8.064-16.444-16.59-19.505-25.43c16.32,14.229,23.149,21.116,31.625,23.564c2.048-0.452,6.939-1.161,11.903-1.534  c-10.571-6.392-22.795-15.979-29.604-26.807c10.409,5.167,27.54,14.909,40.937,22.155c4.433,1.614,14.251-2.319,21.996-1.367  c-22.622-12.84-31.663-20.544-42.526-32.887c18.364,6.208,27.281,15.908,41.842,23.593c3.904,2.061,12.815-2.477,24.193-2.722  c-15.374-5.737-29.392-13.168-40.789-23.763c17.624,6.144,36.003,16.506,54.626,21.32c4.746,1.227,10.804-1.007,15.508-3.214  c-17.494-7.242-35.65-11.17-55.629-23.546c21.163,5.102,42.366,10.759,64.069,18.991c3.238,1.228,5.206,1.526,8.556-0.096  c2.354-1.14,4.938-2.826,7.256-3.269c-8.814-2.625-9.775-5.513-11.743-11.56c-9.95-2.606-20.543-4.655-30.834-6.851  c-17.119-3.653-32.334-7.666-50.144-7.069c5.885-1.561,12.453-1.837,19.454-1.529c10.234,0.451,21.212,2.152,30.797,2.919  c-0.093-1.966-1.68-5.314-4.419-5.486c-34.271-2.159-84.844-4.688-116.726,1.857c-7.66,1.572-17.524,13.526-26.258,20.674  c-3.551,2.906-6.88,4.971-10.048,5.009c-5.322,0.063-8.512-7.367-13.059-9.346c0.304-1.682,2.103-2.451,3.485-2.888  c-3.986-3.436-5.549-6.619-8.895-9.434c1.371-0.442,3.406-0.8,4.364-0.826c-2.404-3.39-5.224-5.45-7.793-8.84  c0.997-0.355,2.409-0.461,3.573-0.319c-3.519-3-4.3-5.39-7.236-7.671c0.894-0.439,2.2-0.63,3.426-0.821  c-5.946-8.097-12.681-10.503-19.911-10.213c-8.294,0.333-18.186,5.469-21.968,8.571c-0.146,1.807,0.184,3.583,1.094,4.61  c1.001,1.129,2.395,1.177,3.301,1.439c0.66,0.191,1.631,0.971,1.609,1.936c-0.008,0.382-0.413,0.68-0.783,0.657  c-1.397-0.088-2.34,0.123-3.028,0.712c6.212,0.638,15.801,6.263,14.5,11.448c-2.048,8.156-10.329,15.68-18.272,18.382  c-1.281,0.435-2.791,0.844-4.333,1.051c-4.158,0.558-6.493-0.769-9.576-3.292c-3.82-3.126-8.158-7.222-12.234-10.997  c-5.242-4.855-10.272-9.185-15.514-10.256c-31.886-6.518-82.953-3.602-117.223-1.444c-2.738,0.172-4.326,3.52-4.418,5.486  c9.584-0.767,19.568-2.469,29.802-2.919c7.001-0.308,13.57-0.032,19.454,1.529c-17.147,1.059-33.024,3.913-50.143,7.566  c-10.291,2.195-20.056,3.748-30.005,6.354c-1.968,6.047-2.101,7.941-8.763,10.566c4.947,2.358,8.143,2.538,13.493,1.377  c22.301-4.837,40.919-10.908,63.076-16.01C79.279,50.554,60.626,54.483,43.132,61.725c4.704,2.208,11.589,4.44,16.335,3.214  c18.623-4.813,37.499-15.176,55.123-21.32c-11.397,10.595-26.74,18.026-42.114,23.763c11.377,0.245,20.122,4.427,24.193,2.722  c14.395-6.029,23.146-17.054,42.338-23.261c-10.863,12.342-20.401,19.716-43.023,32.556c8.077-1.117,17.067,2.815,23.487,1.202  c13.396-7.246,29.699-16.655,40.108-21.822c-6.809,10.827-17.21,19.253-27.782,25.646c5.793-0.542,7.204,0.67,10.245,0.293  c2.815-0.942,5.749-2.634,9.606-5.631c4.805-3.732,11.212-9.823,20.449-18.684c-3.061,8.84-7.68,17.619-16.691,26.677  c5.461-0.681,6.026-0.609,9.661-0.625c2.521-0.023,14.423-11.365,21.84-23.276c-0.147,8.181-2.463,14.526-8.172,24.066  c2.176-1.043,7.514-0.376,10.316-3.194c4.66-4.685,7.567-9.158,10.714-18.84c2.21,9.171-0.618,20.033-4.941,28.401  c4.043,0.149,6.698-0.848,7.574-1.411c0.204-0.131,3.418-5.231,4.306-10.47c0.708-4.172,0.958-12.652-0.664-22.381  c4.793,9.331,8.161,23.894,5.996,33.336c2.452-0.154,7.629-1.063,7.708-1.882c0.401-4.204-0.736-4.583-0.922-7.688  c-0.354-5.931,0.173-14.623,6.464-23.203c-5.325,18.805,0.198,30.592,4.186,33.897c0.34,0.282,0.695,1.771,0.171,2.653  c-0.954,1.607-2.768,4.206-2.531,6.146c0.094,0.768,3.127,1.482,5.292,0.852c-2.496,2.659-3.167,5.734-5.58,8.226  c1.306-0.05,3.276,0.371,4.416,1.263c-2.146,2.761-3.876,6.437-6.021,9.863c1.499,0.742,3.12,0.807,4.783,0.691  c-1.529,4.861-3.213,7.003-6.39,9.345c0.907,1.487,3.139,3.099,4.244,3.302c3.954,0.728,10.015-0.818,10.93-1.545  c3.65-2.899,8.974-13.441,7.879-31.99c6.362,16.329,3.027,37.277-1.857,41.242c-1.569,1.505-5.934,2.602-9.834,2.969  c0.013,1.058-0.305,3.944,1.036,4.42c2.421-0.036,4.685,0.036,7.006,1.853c1.923,1.505,3.99,4.262,5.282,8.678l-4.748,2.063  c-4.518-1.123-4.731,3.208-7.058-0.881c-1.588-2.792-4.181-3.807-6.932-4.269c-0.329,1.332-0.574,6.238-2.025,7.409  c-1.886,1.522-4.049,1.921-5.613,1.548c-2.431-0.58-6.088-3.856-1.447-9.615c0.29-0.36,0.132-0.469-0.137-0.458  c-1.066,0.544-2.571,2.177-3.897,3.123c-1.135,0.81-2.029,0.982-3.645,1.031c-1.818,3.008-6,2.326-6.581-1.664  c-2.104-0.639-3.378,0.553-2.826,2.243c-2.173-2.353-1.153-4.026,0.41-4.705c1.379-0.599,3.183-0.332,3.588-0.383  c3.609-3.224,8.59-3.177,12.851-4.196c1.667-0.398,3.596-0.979,4.982-1.843c0.728-0.454,0.549-3.294,0.51-4.167  c-4.183,1.238-10.691,0.952-14.211-3.601c6.08-0.897,8.01-2.25,9.026-5.141c-1.725,0.079-5.053-0.897-6.169-3.174  c2.492-0.527,6.309-2.095,6.895-6.021c-2.209-0.054-3.395,0.086-6.379-1.99c3.588-0.864,6.344-2.989,7.022-7.293  c-2.245,0.209-5.843-2.171-6.403-3.573c4.382-0.803,7.073-3.186,7.33-6.483c-4.287,1.123-7.17-0.323-8.857-2.969  c4.066-0.736,6.304-2.954,7.713-5.241c-3.866,1.26-9.528,1.217-12.674-0.128c-5.444,2.375-10.143,4.156-18.327,3.592  c-0.733-0.766-1.495-2.528-1.787-4.624c-7.223,1.843-14.53,1.994-20.426-0.375c-6.158,3.553-22.091,0.011-24.719-1.576  c0.222-0.668,0.443-1.336,0.665-2.004c-3.377,2.99-8.421,3.079-13.281,2.209c-5.174-0.925-9.432-3.58-11.924-6.592  c-8.87,0.535-22.352-1.844-29.017-7.126c-0.43-0.341-0.438-1.511-0.408-2.142c-1.166,0.977-3.413,2.014-5.921,2.116  c-9.347,0.38-25.045-3.108-29.584-9.335c1.038-0.698,1.994-1.397,3.03-2.096c-0.341-0.106-0.806-0.171-1.147-0.278  c-9.178,4.23-22.186,2.197-27.487-7.007c-7.425,3.09-12.392,3.354-16.788,1.629C6.916,65.835,2.757,61.82,0,55.715l8.954-3.152  c-1.143-5.107,0.842-7.977,3.442-10.534c6.104-6.002,23.451-7.567,28.727-8.866C42.12,24.76,52.454,20.06,60.857,19.399  c40.221-3.159,81.505-2.325,121.874,3.317c4.248,0.581,9.257,3.148,13.098,6.025c6.177,4.627,11.413,10.75,16.689,14.398  c1.665,1.151,3.202,2.362,4.986,2.886c2.153,0.633,4.592,0.418,7.058-0.123c4.467-0.979,8.326-3.804,11.981-7.751  c2.332-2.518,5.633-6.749,5.528-8.969c-0.08-1.712-2.346-3.458-4.59-5.196c-2.389-1.851-5.642-3.406-7.921-3.653  c-2-0.217-2.615,0.733-4.455,1.081c-0.962,0.182-3.397-0.444-3.429,0.474c-0.028,0.802-0.056,1.603-0.083,2.404  c-1.078-1.129-1.898-3.26-1.906-5.965c-0.006-1.844,1.224-4.247,2.755-6.192c3.138-3.987,8.675-7.633,14.733-9.786  c5.059-1.798,9.913-2.322,14.841-2.35c6.213-0.035,10.852,1.368,14.947,4.637c5.771,4.607,10.018,10.468,14.491,10.204  c-0.973,2.97-3.447,4.035-6.468,3.231c1.754,2.918,4.047,5.794,8.788,6.882c-1.133,1.648-2.543,2.286-4.477,1.993  c1.353,2.654,2.872,4.975,7.96,6.298c-1.438,1.522-2.792,2.379-5.225,2.322c1.962,2.073,4.67,4.313,8.292,5.055  c-0.442,1.329-2.599,2.546-4.811,2.986c0.634,1.329,6.198,2.79,8.458,2.323c11.106-1.989,21.128-20.989,34.986-22.883  c40.368-5.643,80.328-6.808,120.549-3.648c8.404,0.66,19.234,5.526,20.231,13.929c5.276,1.299,22.623,2.698,28.728,8.701  c2.601,2.558,4.584,5.427,3.441,10.534l8.788,3.152c-2.757,6.104-7.081,10.12-12.064,12.075c-4.396,1.725-9.196,1.461-16.622-1.629  c-5.302,9.204-18.35,11.195-27.527,6.965c-0.342,0.106-0.683,0.213-1.023,0.319c1.037,0.699,2.074,1.397,3.111,2.096  c-4.539,6.228-21.064,9.716-30.412,9.335c-2.509-0.102-3.927-1.139-5.093-2.116c0.03,0.631,0.022,1.801-0.408,2.142  c-6.664,5.282-20.146,7.661-29.017,7.126c-2.492,3.013-7.577,5.667-12.752,6.592c-4.86,0.87-8.91,0.78-12.287-2.209  C366.824,97.081,367.045,97.749,367.267,98.417L367.267,98.417z"/>
<path fill-rule="evenodd" clip-rule="evenodd" fill="#FFFFFF" d="M172.664,313.832h11.097h3.313h14.042  c2.73,0,8.584-0.584,14.647,0.789l-0.055-0.729c-2.267-30.877,24.569-39.676,44.457-39.796v11.796  c-12.746,0.039-30.096,3.434-29.865,28.332c0.103,11.107,2.441,18.436,12.163,24.145c4.29,2.52,10.264,3.98,17.702,6.559v15.266  c-11.334-2.813-19.731-6.277-25.979-10.299c-2.705,19.998-17.792,24.723-30.748,24.723h-16.364v33.951h-14.409V313.832  L172.664,313.832z M260.164,436.332c-1.304,0.016-2.629-0.004-3.98-0.066c-15.69-0.713-35.717-5.527-42.466-10.943l3.647-11.939  c7.523,5.086,27.773,11.537,42.799,10.945V436.332L260.164,436.332z M187.073,324.266v39.916h18.022  c8.433,0,15.436-6.924,15.436-20.773s-7.444-19.143-15.436-19.143H187.073L187.073,324.266z"/>
<path fill-rule="evenodd" clip-rule="evenodd" d="M260.164,274.096c15.418-0.094,26.409,2.653,38.784,8.623l-3.648,10.943  c-12.049-5.084-20.825-7.814-35.136-7.77V274.096L260.164,274.096z M260.164,344.928l0.682,0.238  c9.714,3.416,19.039,7.143,26.55,13.01c0.726-15.742,4.585-28.199,10.96-36.176c5.011-6.27,17.541-11.109,26.128-11.092  c8.541,0.016,14.813,1.768,23.878,5.305l-2.321,11.607c-7.296-3.979-13.736-4.844-20.893-4.975  c-17.228-0.313-23.742,10.496-23.547,41.123c0.186,28.971,10.621,34.789,24.873,34.822c8.813,0.021,14.748-2.742,19.898-5.969  l3.647,11.275c-8.18,2.984-15.245,6.5-25.204,5.969c-8.195-0.438-15.314-1.75-21.174-5.99  c-3.393,18.924-19.369,31.986-43.478,32.256v-12.004c6.432-0.256,12.993-0.969,18.626-4.424  c7.015-4.303,11.836-12.494,11.867-25.094c0.033-13.281-3.135-20.047-10.373-25.377c-4.953-3.646-12.343-7.326-19.817-9.166  l-0.303-0.074V344.928L260.164,344.928z"/>
<path fill-rule="evenodd" clip-rule="evenodd" d="M239.336,8.373c0.247,5.702,4.318,7.993,7.546,8.044  c3.071,0.048,5.041-1.577,5.156-4.455c0.092-2.286-1.935-4.367-4.325-4.367C245.604,7.595,243.812,9.246,239.336,8.373  L239.336,8.373z"/>
<path fill-rule="evenodd" clip-rule="evenodd" d="M257.849,51.649c-1.853,3.215-4.151,9.651-3.237,14.3  c0.547,2.783,6.735,0.521,6.806-0.832C261.693,59.838,259.342,54.393,257.849,51.649L257.849,51.649z"/>
<path fill-rule="evenodd" clip-rule="evenodd" d="M235.016,59.601c-2.072,2.282-5.172,7.245-5.331,11.25  c-0.095,2.398,5.135,1.967,5.426,0.858C236.156,67.727,235.707,62.151,235.016,59.601L235.016,59.601z"/>
<path fill-rule="evenodd" clip-rule="evenodd" d="M246.145,64.397c-1.487,2.7-3.353,8.246-2.579,12.179  c0.463,2.355,5.783,0.474,5.809-0.671C249.468,71.789,247.408,66.718,246.145,64.397L246.145,64.397z"/>
<path fill-rule="evenodd" clip-rule="evenodd" d="M267.471,48.031c1.351,1.418,4.991,7.371,5.051,11.379  c0.035,2.4-5.56,1.665-5.822,0.549C265.753,55.953,266.716,50.564,267.471,48.031L267.471,48.031z"/>
<path fill-rule="evenodd" clip-rule="evenodd" d="M276.481,63.177c-1.016,1.676-3.294,8.27-2.491,12.198  c0.48,2.352,5.787,0.433,5.805-0.713C279.858,70.545,277.762,65.074,276.481,63.177L276.481,63.177z"/>
<path fill-rule="evenodd" clip-rule="evenodd" d="M247.897,39.685c-1.391,1.379-5.199,7.225-5.372,11.23  c-0.104,2.398,5.509,1.822,5.804,0.714C249.388,47.651,248.68,41.834,247.897,39.685L247.897,39.685z"/>
<path fill-rule="evenodd" clip-rule="evenodd" d="M269.981,36.578c0.999,0.819,3.945,3.84,4.309,6.459  c0.217,1.567-2.891,2.659-3.684,1.162C269.319,41.769,269.519,38.038,269.981,36.578L269.981,36.578z"/>
<path fill-rule="evenodd" clip-rule="evenodd" d="M261.377,26.617c1.649,0.93,3.823,2.863,4.35,5.014  c0.315,1.288-2.181,2.463-2.97,1.283C261.477,31,261.116,27.874,261.377,26.617L261.377,26.617z"/>
<path fill-rule="evenodd" clip-rule="evenodd" d="M257.967,16.888c1.258,0.222,3.571,1.706,4.349,3.368  c0.465,0.995-1.373,2.355-2.205,1.524C258.759,20.434,257.959,17.952,257.967,16.888L257.967,16.888z"/>
<path fill-rule="evenodd" clip-rule="evenodd" d="M249.073,22.135c1.102,0.645,2.755,2.841,2.905,4.67  c0.09,1.095-2.106,1.73-2.598,0.662C248.583,25.734,248.695,23.129,249.073,22.135L249.073,22.135z"/>
<path fill-rule="evenodd" clip-rule="evenodd" d="M255.415,7.214c1.7-0.389,4.03-0.244,5.527,0.815  c0.896,0.634-0.026,2.726-1.161,2.416C257.94,9.944,256.349,8.558,255.415,7.214L255.415,7.214z"/>
<path fill-rule="evenodd" clip-rule="evenodd" d="M256.943,34.278c1.558,1.407,3.645,4.677,3.667,7.335  c0.014,1.591-3.943,2.173-4.325,0.514C255.651,39.37,256.083,36.468,256.943,34.278L256.943,34.278z"/>
<path fill-rule="evenodd" clip-rule="evenodd" d="M265.512,71.553c-0.994,1.185-3.566,6.052-3.415,9.212  c0.091,1.892,4.461,1.036,4.613,0.144C267.256,77.707,266.281,73.187,265.512,71.553L265.512,71.553z"/>
<path fill-rule="evenodd" clip-rule="evenodd" d="M254.164,82.419c-0.455,1.197-1.143,5.707-0.163,8.137  c0.586,1.456,3.772-0.404,3.648-1.143C257.204,86.759,255.21,83.488,254.164,82.419L254.164,82.419z"/>
<path fill-rule="evenodd" clip-rule="evenodd" fill="#F0BF05" d="M274.091,187.099c8.843,0.328,12.836,8.996,12.836,20.088  c0,11.091-4.332,20.25-13.007,19.921c-8.674-0.329-13.006-8.83-13.006-19.921C260.914,196.094,265.247,186.771,274.091,187.099  L274.091,187.099z M274.039,194.854c2.783,0.202,3.563,5.547,3.563,12.388s-0.546,12.324-3.691,12.12  c-3.146-0.203-3.528-5.279-3.528-12.12S271.256,194.651,274.039,194.854L274.039,194.854z"/>
<path fill-rule="evenodd" clip-rule="evenodd" fill="#F0BF05" d="M142.766,207.916c8.644-3.069,12.632,4.065,12.742,15.157  c0.11,11.091-4.031,21.915-12.509,24.917s-12.795-3.834-12.906-14.926C129.982,221.972,134.123,210.986,142.766,207.916  L142.766,207.916z M142.793,215.69c2.721-0.867,3.536,4.179,3.604,11.02c0.068,6.841-0.411,12.533-3.487,13.538  s-3.499-3.924-3.567-10.765C139.275,222.643,140.072,216.557,142.793,215.69L142.793,215.69z"/>
<polygon fill-rule="evenodd" clip-rule="evenodd" fill="#F0BF05" points="209.717,190.741 218.763,189.541 218.763,228.616   209.717,229.816 209.717,190.741 "/>
<polygon fill-rule="evenodd" clip-rule="evenodd" fill="#F0BF05" points="226.597,188.585 236.302,188.175 241.138,214.087   245.633,187.675 255.349,187.183 257.814,226.083 249.886,226.505 248.727,202.251 244.03,226.044 237.359,226.313 232.616,203.309   231.67,227.486 223.742,228.054 226.597,188.585 "/>
<polygon fill-rule="evenodd" clip-rule="evenodd" fill="#F0BF05" points="206.259,191.617 206.25,200.059 199.61,201.271   199.61,231.878 190.838,233.555 190.838,202.872 183.846,204.148 183.854,195.706 206.259,191.617 "/>
<polygon fill-rule="evenodd" clip-rule="evenodd" fill="#F0BF05" points="291.441,187.924 291.441,226.919 299.166,227.968   298.903,204.735 307.497,229.067 315.531,230.217 315.531,191.287 307.807,190.237 308.462,213.716 299.58,189.074 291.441,187.924   "/>
<polygon fill-rule="evenodd" clip-rule="evenodd" fill="#F0BF05" points="344.8,197.613 344.8,236.608 352.427,238.761   352.168,215.756 360.254,241.052 368.584,243.351 368.584,204.42 360.958,202.266 361.604,226.104 352.835,199.926 344.8,197.613   "/>
<polygon fill-rule="evenodd" clip-rule="evenodd" fill="#F0BF05" points="396.269,215.45 396.269,254.397 413.381,262.086   413.27,254.223 404.892,250.356 404.892,241.911 412.443,245.347 412.464,237.483 404.892,234.038 404.892,227.276 412.693,230.824   412.714,222.829 396.269,215.45 "/>
<polygon fill-rule="evenodd" clip-rule="evenodd" fill="#F0BF05" points="321.674,193.019 321.674,231.967 340.042,235.301   340.064,227.432 330.719,225.716 330.719,217.537 339.059,219.068 339.08,211.199 330.719,209.663 330.719,202.636 339.321,204.216   339.343,196.214 321.674,193.019 "/>
<path fill-rule="evenodd" clip-rule="evenodd" fill="#F0BF05" d="M106.533,224.287l7.786-4.027  c5.445-2.816,9.727-2.784,11.895-0.551c1.257,1.295,2.051,3.374,2.064,6.509c0.035,8.645-4.753,14.071-9.344,16.903l-3.654,2.254  v13.782l-8.747,4.205V224.287L106.533,224.287z M115.28,227.169l0,11.079c1.431-0.597,2.426-1.541,3.301-2.653  c1.01-1.282,1.767-3.609,1.744-5.319c-0.027-2.024-0.808-3.88-1.976-3.997C117.233,226.169,116.247,226.499,115.28,227.169  L115.28,227.169z"/>
<path fill-rule="evenodd" clip-rule="evenodd" fill="#F0BF05" d="M158.871,202.755l7.786-2.796  c5.445-1.955,10.392-1.578,12.559,0.998c1.257,1.494,2.215,3.366,2.23,6.502c0.022,4.776-2.582,8.527-5.682,11.122  c1.905,1.002,3.151,1.893,3.665,4.168l2.739,12.138l-8.979,2.544l-2.207-11.198c-0.289-1.467-0.74-2.289-2.191-2.285l-1.172,0.003  v14.893l-8.747,2.406V202.755L158.871,202.755z M167.618,207.021l0,10.165c1.431-0.371,2.593-0.993,3.467-1.965  c1.009-1.121,1.765-3.499,1.744-5.209c-0.025-2.027-0.768-3.22-1.935-3.52C169.779,206.206,168.75,206.67,167.618,207.021  L167.618,207.021z"/>
<path fill-rule="evenodd" clip-rule="evenodd" fill="#F0BF05" d="M391.488,214.469l-1.461,7.316  c-1.991-1.907-3.571-3.297-5.774-3.657c-1.318-0.215-2.129-0.554-2.59,1.529c-0.162,0.733-0.016,2.613,1.963,4.669  c2.738,2.844,5.236,5.386,6.935,7.987c1.926,2.948,2.863,5.758,2.653,9.026c-0.401,6.295-4.383,7.9-7.634,8.114  c-4.265,0.28-10.024-2.927-12.946-5.587l1.262-8.113c2.235,2.394,4.664,4.098,6.904,4.655c2.139,0.532,3.073,0.125,3.519-0.998  c0.414-1.043,0.021-2.482-1.201-4.026c-1.166-1.473-2.416-2.79-4.057-4.644c-2.925-3.306-6.229-7.937-6.36-12.747  c-0.166-6.092,4.184-8.628,7.568-8.78C384.386,209.029,388.711,211.454,391.488,214.469L391.488,214.469z"/>
</svg>