<svg xmlns:dc="http://purl.org/dc/elements/1.1/" xmlns:cc="http://creativecommons.org/ns#" xmlns:rdf="http://www.w3.org/1999/02/22-rdf-syntax-ns#" xmlns:svg="http://www.w3.org/2000/svg" xmlns="http://www.w3.org/2000/svg" xmlns:xlink="http://www.w3.org/1999/xlink" xmlns:sodipodi="http://sodipodi.sourceforge.net/DTD/sodipodi-0.dtd" xmlns:inkscape="http://www.inkscape.org/namespaces/inkscape" width="800" height="991.29999" viewBox="0 0 800.00001 991.3" id="svg2" version="1.1" inkscape:version="0.91 r13725" sodipodi:docname="Logo QRM 2018.svg">
  <defs id="defs4">
    <linearGradient inkscape:collect="always" id="linearGradient4731">
      <stop style="stop-color:#78262d;stop-opacity:1" offset="0" id="stop4733"/>
      <stop style="stop-color:#b42326;stop-opacity:1" offset="1" id="stop4735"/>
    </linearGradient>
    <linearGradient inkscape:collect="always" id="linearGradient4698">
      <stop style="stop-color:#921920;stop-opacity:1" offset="0" id="stop4700"/>
      <stop id="stop4708" offset="0.32941756" style="stop-color:#861718;stop-opacity:1"/>
      <stop id="stop4706" offset="0.69705278" style="stop-color:#a31c21;stop-opacity:1"/>
      <stop style="stop-color:#ee5a1e;stop-opacity:1" offset="1" id="stop4702"/>
    </linearGradient>
    <linearGradient inkscape:collect="always" id="linearGradient4684">
      <stop style="stop-color:#4c1113;stop-opacity:1" offset="0" id="stop4686"/>
      <stop id="stop4692" offset="0.31401008" style="stop-color:#c91d25;stop-opacity:1"/>
      <stop style="stop-color:#ea1d24;stop-opacity:1" offset="0.63082486" id="stop4694"/>
      <stop style="stop-color:#ea1d24;stop-opacity:1" offset="1" id="stop4688"/>
    </linearGradient>
    <linearGradient inkscape:collect="always" id="linearGradient4664">
      <stop style="stop-color:#de271e;stop-opacity:1" offset="0" id="stop4666"/>
      <stop style="stop-color:#f8cc0a;stop-opacity:1" offset="1" id="stop4668"/>
    </linearGradient>
    <linearGradient inkscape:collect="always" id="linearGradient4646">
      <stop style="stop-color:#f69019;stop-opacity:1" offset="0" id="stop4648"/>
      <stop id="stop4721" offset="0.64575887" style="stop-color:#f69019;stop-opacity:1"/>
      <stop style="stop-color:#ed1e22;stop-opacity:1" offset="1" id="stop4650"/>
    </linearGradient>
    <linearGradient inkscape:collect="always" id="linearGradient4638">
      <stop style="stop-color:#f0911a;stop-opacity:1" offset="0" id="stop4640"/>
      <stop id="stop4654" offset="0.49505156" style="stop-color:#fccd05;stop-opacity:1"/>
      <stop style="stop-color:#fdcd02;stop-opacity:1" offset="1" id="stop4642"/>
    </linearGradient>
    <linearGradient inkscape:collect="always" id="linearGradient4630">
      <stop style="stop-color:#ee9215;stop-opacity:1" offset="0" id="stop4632"/>
      <stop style="stop-color:#d64820;stop-opacity:1" offset="1" id="stop4634"/>
    </linearGradient>
    <linearGradient inkscape:collect="always" id="linearGradient4622">
      <stop style="stop-color:#d5471f;stop-opacity:1" offset="0" id="stop4624"/>
      <stop style="stop-color:#fec30e;stop-opacity:1" offset="1" id="stop4626"/>
    </linearGradient>
    <linearGradient inkscape:collect="always" id="linearGradient4614">
      <stop style="stop-color:#d2441e;stop-opacity:1" offset="0" id="stop4616"/>
      <stop style="stop-color:#fdce04;stop-opacity:1" offset="1" id="stop4618"/>
    </linearGradient>
    <linearGradient inkscape:collect="always" id="linearGradient4604">
      <stop style="stop-color:#e9651c;stop-opacity:1" offset="0" id="stop4606"/>
      <stop style="stop-color:#fcbe14;stop-opacity:1" offset="1" id="stop4608"/>
    </linearGradient>
    <linearGradient inkscape:collect="always" id="linearGradient4596">
      <stop style="stop-color:#f18b19;stop-opacity:1" offset="0" id="stop4598"/>
      <stop id="stop4612" offset="0.71718073" style="stop-color:#f9b317;stop-opacity:1"/>
      <stop style="stop-color:#fdce04;stop-opacity:1" offset="1" id="stop4600"/>
    </linearGradient>
    <linearGradient inkscape:collect="always" id="linearGradient4578">
      <stop style="stop-color:#ea6824;stop-opacity:1" offset="0" id="stop4580"/>
      <stop style="stop-color:#ffcf01;stop-opacity:1" offset="1" id="stop4582"/>
    </linearGradient>
    <linearGradient inkscape:collect="always" id="linearGradient4568">
      <stop style="stop-color:#ffcf01;stop-opacity:1" offset="0" id="stop4570"/>
      <stop id="stop4576" offset="0.16256011" style="stop-color:#fece03;stop-opacity:1"/>
      <stop style="stop-color:#eb761a;stop-opacity:1" offset="1" id="stop4572"/>
    </linearGradient>
    <linearGradient inkscape:collect="always" id="linearGradient4548">
      <stop style="stop-color:#e76819;stop-opacity:1" offset="0" id="stop4550"/>
      <stop id="stop4556" offset="0.33522671" style="stop-color:#f2901b;stop-opacity:1"/>
      <stop style="stop-color:#fccd05;stop-opacity:1" offset="0.72167182" id="stop4558"/>
      <stop style="stop-color:#ffcf01;stop-opacity:1" offset="1" id="stop4552"/>
    </linearGradient>
    <linearGradient inkscape:collect="always" xlink:href="#linearGradient4548" id="linearGradient4554" x1="402.02084" y1="97.562675" x2="395.32053" y2="-264.25607" gradientUnits="userSpaceOnUse"/>
    <linearGradient inkscape:collect="always" xlink:href="#linearGradient4568" id="linearGradient4574" x1="636.53302" y1="-485.36755" x2="92.129784" y2="-148.67508" gradientUnits="userSpaceOnUse"/>
    <linearGradient inkscape:collect="always" xlink:href="#linearGradient4578" id="linearGradient4584" x1="604.07727" y1="-492.77277" x2="614.1452" y2="-465.53006" gradientUnits="userSpaceOnUse"/>
    <linearGradient inkscape:collect="always" xlink:href="#linearGradient4596" id="linearGradient4602" x1="124.36886" y1="100.05212" x2="367.18423" y2="-34.976925" gradientUnits="userSpaceOnUse"/>
    <linearGradient inkscape:collect="always" xlink:href="#linearGradient4604" id="linearGradient4610" x1="-45.009682" y1="200.73167" x2="358.89297" y2="-48.006042" gradientUnits="userSpaceOnUse"/>
    <linearGradient inkscape:collect="always" xlink:href="#linearGradient4614" id="linearGradient4620" x1="-331.65027" y1="450.65384" x2="59.223267" y2="95.314255" gradientUnits="userSpaceOnUse"/>
    <linearGradient inkscape:collect="always" xlink:href="#linearGradient4622" id="linearGradient4628" x1="-265.32022" y1="291.93549" x2="101.86401" y2="-39.714787" gradientUnits="userSpaceOnUse"/>
    <linearGradient inkscape:collect="always" xlink:href="#linearGradient4630" id="linearGradient4636" x1="-135.02904" y1="33.722061" x2="-300.85419" y2="325.10052" gradientUnits="userSpaceOnUse"/>
    <linearGradient inkscape:collect="always" xlink:href="#linearGradient4638" id="linearGradient4644" x1="-161.08728" y1="-6.549757" x2="42.640751" y2="-120.25842" gradientUnits="userSpaceOnUse"/>
    <linearGradient inkscape:collect="always" xlink:href="#linearGradient4646" id="linearGradient4652" x1="-73.436844" y1="-79.986603" x2="-329.28134" y2="152.16859" gradientUnits="userSpaceOnUse"/>
    <linearGradient inkscape:collect="always" xlink:href="#linearGradient4664" id="linearGradient4670" x1="-187.14551" y1="31.353132" x2="37.902889" y2="-165.26811" gradientUnits="userSpaceOnUse"/>
    <linearGradient inkscape:collect="always" xlink:href="#linearGradient4646" id="linearGradient4672" x1="-284.27167" y1="59.7803" x2="82.912567" y2="-217.38458" gradientUnits="userSpaceOnUse"/>
    <linearGradient inkscape:collect="always" xlink:href="#linearGradient4646" id="linearGradient4674" x1="-272.427" y1="-56.297298" x2="-149.24263" y2="-193.69527" gradientUnits="userSpaceOnUse"/>
    <linearGradient inkscape:collect="always" xlink:href="#linearGradient4684" id="linearGradient4690" x1="312.69882" y1="1118.6923" x2="341.12601" y2="-511.13196" gradientUnits="userSpaceOnUse"/>
    <linearGradient inkscape:collect="always" xlink:href="#linearGradient4698" id="linearGradient4714" gradientUnits="userSpaceOnUse" x1="326.91241" y1="1147.1194" x2="331.65027" y2="-463.75336"/>
    <linearGradient inkscape:collect="always" xlink:href="#linearGradient4731" id="linearGradient4737" x1="-311.56616" y1="502.93372" x2="783.94061" y2="-378.16199" gradientUnits="userSpaceOnUse"/>
  </defs>
  <sodipodi:namedview id="base" pagecolor="#ffffff" bordercolor="#666666" borderopacity="1.0" inkscape:pageopacity="0.0" inkscape:pageshadow="2" inkscape:zoom="0.31773073" inkscape:cx="389.07949" inkscape:cy="846.25927" inkscape:document-units="px" inkscape:current-layer="layer1" showgrid="false" inkscape:window-width="1280" inkscape:window-height="691" inkscape:window-x="0" inkscape:window-y="1" inkscape:window-maximized="1" units="px"/>
  <metadata id="metadata7">
    <rdf:RDF>
      <cc:Work rdf:about="">
        <dc:format>image/svg+xml</dc:format>
        <dc:type rdf:resource="http://purl.org/dc/dcmitype/StillImage"/>
        <dc:title/>
      </cc:Work>
    </rdf:RDF>
  </metadata>
  <g inkscape:label="Calque 1" inkscape:groupmode="layer" id="layer1" transform="translate(0,-61.062161)">
    <g id="g4725" transform="matrix(0.59549692,0,0,0.59549692,210.76616,366.73123)">
      <path sodipodi:nodetypes="ccsscsscc" inkscape:connector-curvature="0" style="fill:url(#linearGradient4690);fill-opacity:1;fill-rule:evenodd;stroke:none;stroke-width:3;stroke-linecap:butt;stroke-linejoin:miter;stroke-miterlimit:4;stroke-dasharray:none;stroke-opacity:1" d="m 317.77539,-469.25 c -182.1599,7.98348 -375.074177,52.53583 -523.62891,124.36914 -143.12495,341.6031964 -142.35149,595.77639 -96.23632,794.20703 37.17343,159.95489 116.07552,286.14604 216.117184,399.19336 C 22.165999,970.71646 174.01957,1071.8901 317.77539,1140.7598 461.53121,1071.8901 613.38478,970.71646 721.52344,848.51953 821.5651,735.47221 900.46524,609.28106 937.63867,449.32617 983.75384,250.89553 984.52925,-3.2776636 841.4043,-344.88086 692.84957,-416.71417 499.93529,-461.26652 317.77539,-469.25 Z" id="path4717"/>
      <path style="fill:url(#linearGradient4737);fill-opacity:1;fill-rule:evenodd;stroke:none;stroke-width:1px;stroke-linecap:butt;stroke-linejoin:miter;stroke-opacity:1" d="M -283.81163,525.0749 C -171.70636,440.06565 -101.67549,358.45352 -26.649826,245.04264 7.415677,218.29879 38.656452,190.01417 89.3579,172.34447 272.79538,119.18804 318.79014,36.764834 350.24472,8.855394 c 0,0 3.90631,1.409093 5.50462,5.044514 6.65936,15.146974 15.11497,32.71001 30.65345,35.648192 21.06236,-0.59906 67.62473,-11.838286 104.1811,-32.849476 6.257,-1.181957 11.23339,-1.980047 16.67156,-4.367113 58.67248,-25.754103 140.68303,-25.035434 151.41464,49.289119 9.34832,0.410284 18.07857,-0.415587 25.75446,-3.350173 l -1.67509,15.703939 C 701.45181,61.2648 706.33157,26.754947 705.39628,5.777639 704.00771,-25.366034 685.8858,-52.13667 659.79203,-72.28551 c -30.91447,-23.87126 -68.41809,-38.59643 -88.17114,-40.75118 -39.41648,-4.29973 -80.17654,-1.52229 -113.33307,11.33635 3.17244,-35.30368 16.75012,-60.03409 33.42521,-79.12386 27.92711,-32.03977 59.00427,-44.30322 88.88174,-44.60328 21.78243,-0.21876 50.56885,7.13318 69.68392,23.28009 11.83574,9.99791 28.74655,24.03098 36.60148,26.3458 11.77578,3.4703 20.75866,-4.24959 25.82035,-28.06264 6.09645,-5.29064 15.31698,-16.88248 20.25074,-31.94467 l -30.9383,20.54958 c -27.87381,-49.06196 -6.74007,-106.66888 74.54137,-127.75514 l 1.67508,40.3037 c 12.41251,-10.69872 13.75973,-7.91504 18.81497,-36.50499 11.57046,-8.72209 14.17831,-33.52399 2.84062,-23.25537 l -85.50109,-30.90097 -411.44319,-9.29323 c -53.01999,22.25631 -91.60181,59.34508 -121.06913,103.328 -35.30488,52.69606 -86.0015,130.78245 -135.012099,180.09938 4.733874,-72.87403 -77.431664,-95.32983 -167.467491,-58.65022 -36.82266,15.00115 -92.85105,43.98398 -177.49992,150.954648 l -23.13917,103.526774 c 52.48192,-57.935712 128.26783,-155.681492 171.95994,-181.777702 47.37638,-26.41999 85.807998,-26.36405 106.642194,-19.59188 24.664317,8.01716 45.203107,23.69552 52.792588,44.00455 l -44.466568,38.627252 c -84.998094,4.16128 -183.316724,57.73233 -207.700354,76.934573 -42.61068,28.224527 -74.21445,68.333745 -104.57987,111.783165 l -4.68705,102.30893 c 33.58268,-50.11192 82.75448,-112.4362 125.84944,-131.17952 l -79.35918,262.35905 z" id="path4725" inkscape:connector-curvature="0" sodipodi:nodetypes="ccccsccscccsssccssscccccccccscscccscccccccc"/>
      <g style="fill:#b51d21;fill-opacity:1" id="g7080">
        <path style="fill:#b51d21;fill-opacity:1;fill-rule:evenodd;stroke:none;stroke-width:1px;stroke-linecap:butt;stroke-linejoin:miter;stroke-opacity:1" d="m 16.046875,823.24023 0,48.14258 c 4.171658,4.5488 8.496889,9.09975 12.927734,13.64649 l 0,-61.78907 z" id="path6851" inkscape:connector-curvature="0"/>
        <path style="fill:#b51d21;fill-opacity:1;fill-rule:evenodd;stroke:none;stroke-width:1px;stroke-linecap:butt;stroke-linejoin:miter;stroke-opacity:1" d="m 46.648807,823.24023 0,79.2168 c 4.523828,4.3196 9.160371,8.6254 13.884766,12.91406 l 0,-92.13086 z" id="path6849" inkscape:connector-curvature="0"/>
        <path style="fill:#b51d21;fill-opacity:1;fill-rule:evenodd;stroke:none;stroke-width:1px;stroke-linecap:butt;stroke-linejoin:miter;stroke-opacity:1" d="m 77.729256,823.24023 0,107.6543 c 4.552451,3.89648 9.190351,7.7656 13.884766,11.61328 l 0,-119.26758 z" id="path6847" inkscape:connector-curvature="0"/>
        <path style="fill:#b51d21;fill-opacity:1;fill-rule:evenodd;stroke:none;stroke-width:1px;stroke-linecap:butt;stroke-linejoin:miter;stroke-opacity:1" d="m 108.80971,956.56641 c 4.57903,3.56165 9.20244,7.09821 13.88476,10.59765 l 0,-143.92383 -13.88476,0 z" id="path6845" inkscape:connector-curvature="0"/>
        <path style="fill:#b51d21;fill-opacity:1;fill-rule:evenodd;stroke:none;stroke-width:1px;stroke-linecap:butt;stroke-linejoin:miter;stroke-opacity:1" d="m 139.88918,823.24023 0,156.75391 c 4.59305,3.26665 9.21908,6.50205 13.88672,9.69531 l 0,-166.44922 z" id="path6843" inkscape:connector-curvature="0"/>
        <path style="fill:#b51d21;fill-opacity:1;fill-rule:evenodd;stroke:none;stroke-width:1px;stroke-linecap:butt;stroke-linejoin:miter;stroke-opacity:1" d="m 170.9706,1001.4453 c 4.60061,2.9957 9.23235,5.9435 13.88476,8.8555 l 0,-187.06057 -13.88476,0 z" id="path6841" inkscape:connector-curvature="0"/>
        <path style="fill:#b51d21;fill-opacity:1;fill-rule:evenodd;stroke:none;stroke-width:1px;stroke-linecap:butt;stroke-linejoin:miter;stroke-opacity:1" d="m 202.05008,823.24023 0,197.82227 c 4.61008,2.7408 9.24395,5.4178 13.88671,8.0645 l 0,-205.88677 z" id="path6839" inkscape:connector-curvature="0"/>
        <path style="fill:#b51d21;fill-opacity:1;fill-rule:evenodd;stroke:none;stroke-width:1px;stroke-linecap:butt;stroke-linejoin:miter;stroke-opacity:1" d="m 233.1315,823.24023 0,215.66797 c 4.61892,2.4902 9.25029,4.9119 13.88476,7.2969 l 0,-222.96487 z" id="path6837" inkscape:connector-curvature="0"/>
        <path style="fill:#b51d21;fill-opacity:1;fill-rule:evenodd;stroke:none;stroke-width:1px;stroke-linecap:butt;stroke-linejoin:miter;stroke-opacity:1" d="m 264.21096,823.24023 0,231.76567 c 4.62926,2.2364 9.25816,4.3968 13.88672,6.5156 l 0,-238.28127 z" id="path6835" inkscape:connector-curvature="0"/>
        <path style="fill:#b51d21;fill-opacity:1;fill-rule:evenodd;stroke:none;stroke-width:1px;stroke-linecap:butt;stroke-linejoin:miter;stroke-opacity:1" d="m 295.29239,823.24023 0,246.06637 c 4.63725,1.9695 9.26452,3.8558 13.88477,5.6934 l 0,-251.75977 z" id="path6828" inkscape:connector-curvature="0"/>
        <path id="path6885" d="m 619.50312,823.24023 0,48.14258 c -4.17165,4.5488 -8.49688,9.09975 -12.92773,13.64649 l 0,-61.78907 z" style="fill:#b51d21;fill-opacity:1;fill-rule:evenodd;stroke:none;stroke-width:1px;stroke-linecap:butt;stroke-linejoin:miter;stroke-opacity:1" inkscape:connector-curvature="0"/>
        <path id="path6887" d="m 588.9012,823.24023 0,79.2168 c -4.52383,4.3196 -9.16037,8.6254 -13.88477,12.91406 l 0,-92.13086 z" style="fill:#b51d21;fill-opacity:1;fill-rule:evenodd;stroke:none;stroke-width:1px;stroke-linecap:butt;stroke-linejoin:miter;stroke-opacity:1" inkscape:connector-curvature="0"/>
        <path id="path6889" d="m 557.82075,823.24023 0,107.6543 c -4.55245,3.89648 -9.19035,7.7656 -13.88477,11.61328 l 0,-119.26758 z" style="fill:#b51d21;fill-opacity:1;fill-rule:evenodd;stroke:none;stroke-width:1px;stroke-linecap:butt;stroke-linejoin:miter;stroke-opacity:1" inkscape:connector-curvature="0"/>
        <path id="path6891" d="m 526.74031,956.56641 c -4.57903,3.56165 -9.20244,7.09821 -13.88476,10.59765 l 0,-143.92383 13.88476,0 z" style="fill:#b51d21;fill-opacity:1;fill-rule:evenodd;stroke:none;stroke-width:1px;stroke-linecap:butt;stroke-linejoin:miter;stroke-opacity:1" inkscape:connector-curvature="0"/>
        <path id="path6893" d="m 495.66084,823.24023 0,156.75391 c -4.59305,3.26665 -9.21908,6.50205 -13.88672,9.69531 l 0,-166.44922 z" style="fill:#b51d21;fill-opacity:1;fill-rule:evenodd;stroke:none;stroke-width:1px;stroke-linecap:butt;stroke-linejoin:miter;stroke-opacity:1" inkscape:connector-curvature="0"/>
        <path id="path6895" d="m 464.57942,1001.4453 c -4.60061,2.9957 -9.23235,5.9435 -13.88476,8.8555 l 0,-187.06057 13.88476,0 z" style="fill:#b51d21;fill-opacity:1;fill-rule:evenodd;stroke:none;stroke-width:1px;stroke-linecap:butt;stroke-linejoin:miter;stroke-opacity:1" inkscape:connector-curvature="0"/>
        <path id="path6897" d="m 433.49995,823.24023 0,197.82227 c -4.61008,2.7408 -9.24395,5.4178 -13.88671,8.0645 l 0,-205.88677 z" style="fill:#b51d21;fill-opacity:1;fill-rule:evenodd;stroke:none;stroke-width:1px;stroke-linecap:butt;stroke-linejoin:miter;stroke-opacity:1" inkscape:connector-curvature="0"/>
        <path id="path6899" d="m 402.41853,823.24023 0,215.66797 c -4.61892,2.4902 -9.25029,4.9119 -13.88476,7.2969 l 0,-222.96487 z" style="fill:#b51d21;fill-opacity:1;fill-rule:evenodd;stroke:none;stroke-width:1px;stroke-linecap:butt;stroke-linejoin:miter;stroke-opacity:1" inkscape:connector-curvature="0"/>
        <path id="path6901" d="m 371.33904,823.24023 0,231.76567 c -4.62926,2.2364 -9.25816,4.3968 -13.88672,6.5156 l 0,-238.28127 z" style="fill:#b51d21;fill-opacity:1;fill-rule:evenodd;stroke:none;stroke-width:1px;stroke-linecap:butt;stroke-linejoin:miter;stroke-opacity:1" inkscape:connector-curvature="0"/>
        <path id="path6903" d="m 340.25761,823.24023 0,246.06637 c -4.63725,1.9695 -9.26452,3.8558 -13.88477,5.6934 l 0,-251.75977 z" style="fill:#b51d21;fill-opacity:1;fill-rule:evenodd;stroke:none;stroke-width:1px;stroke-linecap:butt;stroke-linejoin:miter;stroke-opacity:1" inkscape:connector-curvature="0"/>
      </g>
      <path sodipodi:nodetypes="cccccssc" inkscape:connector-curvature="0" id="path4498" d="M 671.33789,-136.92773 688.45312,8.6132812 c 0.0549,0.3542998 0.16515,0.6501083 0.2168,1.0078126 9.34832,0.4102832 18.07802,-0.4169758 25.75391,-3.3515626 L 712.75,21.974609 c 18.70235,-12.7095951 23.58177,-47.219957 22.64648,-68.197265 -1.38857,-31.143673 -19.50974,-57.913664 -45.60351,-78.062504 -5.95713,-4.59992 -12.18276,-8.74638 -18.45508,-12.64257 z" style="fill:#ffcf01;fill-opacity:1;fill-rule:evenodd;stroke:none;stroke-width:1px;stroke-linecap:butt;stroke-linejoin:miter;stroke-opacity:1"/>
      <path sodipodi:nodetypes="ccccc" inkscape:connector-curvature="0" id="path4501" d="m -274.54492,-50.134766 99.82085,-85.989644 c 4.06449,-3.87906 20.78034,-61.3366 24.92915,-65.00059 -31.31213,22.77719 -69.71967,60.78471 -118.3125,122.191406 z" style="fill:url(#linearGradient4674);fill-opacity:1;fill-rule:evenodd;stroke:none;stroke-width:1px;stroke-linecap:butt;stroke-linejoin:miter;stroke-opacity:1"/>
      <path sodipodi:nodetypes="ccccccscc" inkscape:connector-curvature="0" id="path4504" d="m 520.22656,-35.113281 -182.3883,-271.922529 -122.03632,104.63555 89.41838,133.490514 74.65273,26.122637 c 0.12028,-0.107923 0.25124,-0.251078 0.37109,-0.357422 0,0 3.90755,1.409501 5.50586,5.044922 6.65936,15.146974 15.11386,32.7102547 30.65234,35.6484371 20.9957,-0.5971644 67.32077,-11.7790961 103.82422,-32.6621091 z" style="fill:#fdce04;fill-opacity:1;fill-rule:evenodd;stroke:none;stroke-width:1px;stroke-linecap:butt;stroke-linejoin:miter;stroke-opacity:1"/>
      <path sodipodi:nodetypes="ccccccccc" inkscape:connector-curvature="0" id="path4519" d="m -217.96474,74.667969 c 0.70278,-1.476967 1.76198,-2.862488 2.62516,-4.441407 l 92.93529,-75.0591564 48.21103,-71.9271716 c 3.57571,-2.701356 6.624281,-5.201161 9.978416,-7.560546 -66.533986,17.312213 -129.049096,52.341194 -147.804686,67.111328 -42.61068,28.224527 -74.21466,68.331832 -104.58008,111.78125 l -4.6875,102.310544 c 30.35979,-45.30274 65.16131,-98.544388 103.32237,-122.214841 z" style="fill:url(#linearGradient4652);fill-opacity:1;fill-rule:evenodd;stroke:none;stroke-width:1px;stroke-linecap:butt;stroke-linejoin:miter;stroke-opacity:1"/>
      <path sodipodi:nodetypes="csssssccccccccc" inkscape:connector-curvature="0" id="path4521" d="m -64.214844,-84.320312 c -3.354135,2.359385 -6.803196,4.85919 -10.378906,7.560546 -7.740828,5.847994 -15.943403,12.443893 -24.361328,19.564454 -8.417922,7.12056 -17.051622,14.765474 -25.652342,22.707031 -8.60072,7.941556 -17.16977,16.179253 -25.45899,24.4902341 -8.28921,8.3109815 -16.29784,16.6949931 -23.78125,24.9238279 -0.86967,0.956302 -1.54142,1.837274 -2.39648,2.789063 l 73.1043,-2.225977 L 5.7292737,-30.187677 58.340304,-92.3315 l -17.939851,-40.10014 -0.195312,-0.043 -44.5235004,38.330079 c -19.6185856,0.960473 -39.9314726,4.629301 -59.8964846,9.824219 z" style="fill:url(#linearGradient4644);fill-opacity:1;fill-rule:evenodd;stroke:none;stroke-width:1px;stroke-linecap:butt;stroke-linejoin:miter;stroke-opacity:1"/>
      <path sodipodi:nodetypes="cccccccccccc" inkscape:connector-curvature="0" id="path4537" d="m 79.724609,-56.142578 c -0.0051,0.0068 -0.0086,0.01466 -0.01367,0.02148 L -1.5789671,-8.609227 -83.064916,36.351562 -192.08351,121.88042 -267.21484,302.55664 c -0.53801,1.23051 -1.05665,2.44513 -1.58985,3.67188 L -109.53511,202.16981 52.572266,75.439453 c 4.031997,-2.374048 8.118651,-4.67603 12.173828,-7.019531 L 164.5274,-23.579901 Z" style="fill:url(#linearGradient4628);fill-opacity:1;fill-rule:evenodd;stroke:none;stroke-width:1px;stroke-linecap:butt;stroke-linejoin:miter;stroke-opacity:1"/>
      <path sodipodi:nodetypes="csssssssssssscccccsc" inkscape:connector-curvature="0" id="path4543" d="m -268.80469,306.22852 c 0.5332,-1.22675 1.05184,-2.44137 1.58985,-3.67188 3.95666,-9.04947 8.0608,-18.21447 12.57422,-27.69922 4.51341,-9.48474 9.43714,-19.28907 15.02929,-29.61719 2.79608,-5.16405 5.75825,-10.45873 8.92188,-15.91015 3.16363,-5.45142 6.52856,-11.05982 10.125,-16.84961 3.59643,-5.7898 7.42504,-11.76223 11.51953,-17.94141 4.09448,-6.17918 8.45354,-12.56597 13.11133,-19.18554 4.65778,-6.61958 9.61406,-13.47105 14.90039,-20.58204 5.28633,-7.11098 10.90268,-14.48135 16.88281,-22.13476 5.98012,-7.65341 12.32333,-15.5891 19.0625,-23.83594 6.73917,-8.24684 13.87404,-16.804024 21.4375,-25.695311 7.56346,-8.891288 15.55677,-18.118333 24.009765,-27.705078 5.391259,-6.114355 11.301332,-12.634583 17.076172,-19.048829 l -60.377347,9.545529 -63.65586,23.038456 c -52.4862,87.352843 -67.75887,166.675743 -95.4414,260.310543 l 9.31845,19.74375 c 10.55288,-8.86989 16.89347,-15.23192 27.59939,-24.07916 0.44268,-0.36583 -4.12642,-18.3164 -3.68347,-18.68216 z" style="fill:url(#linearGradient4636);fill-opacity:1;fill-rule:evenodd;stroke:none;stroke-width:1px;stroke-linecap:butt;stroke-linejoin:miter;stroke-opacity:1"/>
      <path sodipodi:nodetypes="csssssssssssssssssssssssssssccscsssssscccccccsccccssssccc" inkscape:connector-curvature="0" id="path4524" d="m -206.59766,69.335314 c 16.77839,-4.202791 33.00488,-8.224132 48.58008,-12.150391 15.96211,-4.02379 31.28637,-7.961257 45.96289,-11.93164 14.676523,-3.970384 28.705447,-7.973941 42.074221,-12.13086 6.684387,-2.078459 13.203346,-4.195151 19.556641,-6.365234 6.353295,-2.170083 12.541114,-4.393848 18.560547,-6.685547 6.019433,-2.291699 11.871886,-4.650442 17.554687,-7.09375 C -8.6257928,10.534584 -3.11293,8.0070984 2.2304688,5.3821891 7.5738675,2.7572798 12.74682,0.03509909 17.748047,-2.8014047 c 5.001226,-2.8365037 9.831997,-5.7871433 14.488281,-8.8652343 4.656284,-3.078091 9.138694,-6.684862 13.447266,-10.034533 4.308571,-3.349671 8.442301,-6.441176 12.40039,-10.09242 3.958089,-3.651244 7.740867,-7.462503 11.345704,-11.445313 3.604836,-3.98281 7.032436,-8.53782 10.28125,-12.882189 2.675606,-3.577866 5.094369,-7.316027 7.236328,-11.228515 1.070979,-1.956245 2.07244,-3.957019 3.001953,-6.001953 0.929512,-2.044935 1.787636,-4.134502 2.570312,-6.271485 0.782676,-2.136982 1.490624,-4.320348 2.121094,-6.552734 0.63047,-2.232387 1.183357,-4.514556 1.65625,-6.845703 0.472893,-2.331148 0.865834,-4.711266 1.175781,-7.144536 0.309948,-2.43326 0.536103,-4.91829 0.677735,-7.45703 0.133349,-2.39027 0.163509,-4.80449 0.08203,-7.25 -0.08148,-2.4455 -0.274909,-4.92226 -0.589844,-7.4375 -0.314935,-2.51523 -0.751336,-5.0685 -1.318359,-7.66797 -0.567023,-2.59946 -1.263822,-5.24516 -2.101563,-7.94336 -0.83774,-2.69819 -1.81627,-5.4503 -2.943359,-8.26171 -1.127089,-2.81142 -2.402824,-5.68196 -3.837891,-8.6211 -1.435067,-2.93913 -3.02934,-5.94599 -4.791015,-9.02734 -1.528531,-2.67356 -3.241788,-5.43184 -5.029297,-8.22266 -0.253446,0.25647 -0.508361,0.56147 -0.761719,0.81641 -14.947792,-44.24615 -92.354492,-73.62306 -167.466797,-58.65039 -16.609387,3.31086 -35.953807,11.86292 -59.187497,28.76367 -4.14881,3.66399 -8.3359,7.22836 -12.40039,11.10742 -6.63164,6.3291 -13.14986,12.92762 -19.55274,19.74024 -6.40287,6.81261 -12.69059,13.83966 -18.85937,21.02539 -6.16878,7.18573 -12.21908,14.53007 -18.14844,21.97851 -5.92936,7.44844 -11.73727,15.00085 -17.42187,22.60156 -5.68461,7.600762 -11.24516,15.249956 -16.67969,22.892583 -7.58666,10.669185 -14.60065,21.15148 -21.6875,31.644531 l -16.70313,74.728516 c 52.48192,-57.935712 128.26883,-155.68113 171.96094,-181.77734 7.9947,-4.45834 15.62269,-7.91942 23.066406,-10.96485 2.912409,-1.51308 13.424357,-5.53886 16.272266,-6.83644 l 30.737598,-7.44968 32.307885,0.7176 c 27.99687,3.58482 52.023805,29.89956 66.404408,48.90381 9.688088,12.80299 4.23282,34.667827 2.684641,48.028124 L 9.1335162,-34.942748 -93.668135,8.6806595 -181.60742,23.955078 c -4.39877,5.040466 -9.00651,10.168981 -12.86328,14.96875 -3.09165,3.847559 -5.99013,7.601009 -8.66407,11.230469 -2.67393,3.62946 -5.12392,7.13532 -7.31835,10.490234 -2.19444,3.354915 -4.13396,6.55811 -5.78711,9.582031 -0.86318,1.578919 -1.42222,2.96444 -2.125,4.441407 4.05104,-2.51277 8.13181,-4.397164 12.26757,-6.195936 -0.17446,0.289176 -0.32635,0.574282 -0.5,0.863281 z" style="fill:url(#linearGradient4672);fill-opacity:1;fill-rule:evenodd;stroke:none;stroke-width:1px;stroke-linecap:butt;stroke-linejoin:miter;stroke-opacity:1"/>
      <path sodipodi:nodetypes="ccsssssssssssscccc" inkscape:connector-curvature="0" id="path4531" d="m 133.1543,116.01953 c -0.0929,0.0153 -0.18445,0.0196 -0.27735,0.0352 -3.55588,0.59391 -7.54718,-0.34676 -11.1297,0.51631 -3.58253,0.86307 -7.17643,1.85357 -10.7754,2.96289 -3.59896,1.10933 -7.20337,2.33725 -10.80859,3.66993 -3.605217,1.33267 -7.211227,2.7696 -10.812501,4.30273 -7.202547,3.06626 -14.386104,6.51155 -21.511719,10.24219 -7.125614,3.73064 -14.193022,7.74718 -21.160156,11.95898 -6.967133,4.21181 -13.833443,8.61916 -20.560547,13.12891 -6.727104,4.50975 -13.315176,9.12161 -19.7207025,13.74609 -6.40552634,4.62448 -12.2096871,10.93552 -18.2120875,15.4915 -0.240989,0.18292 -0.419251,0.50138 -0.542969,0.93555 -0.123718,0.43416 -0.192861,0.98485 -0.214844,1.63671 -0.04396,1.30372 0.09937,3.00919 0.369141,4.98243 0.490089,3.58478 1.442762,8.15022 2.390625,12.69726 4.3854291,-6.45425 8.7517137,-12.61632 13.1621094,-19.2832 34.0655036,-26.74385 65.3063786,-55.02952 116.0078106,-72.69922 4.81951,-1.3966 9.1649,-2.88879 13.79688,-4.32422 z" style="fill:#f6771b;fill-opacity:1;fill-rule:evenodd;stroke:none;stroke-width:1px;stroke-linecap:butt;stroke-linejoin:miter;stroke-opacity:1"/>
      <path sodipodi:nodetypes="cccccssccssssssssssssccccssssc" inkscape:connector-curvature="0" id="path4534" d="m 332.91352,-71.43757 -46.74445,2.05047 -201.021457,132.79037 -123.823554,93.44916 7.425943,27.68077 c 0.166379,1.92276 0.486566,4.5521 0.910156,7.6543 0.847182,6.20441 2.105742,14.29616 3.371094,22.38672 1.031051,6.59246 1.957254,12.66818 2.775391,18.23828 4.789487,-6.82395 9.585655,-13.429 14.380859,-20.48633 -0.947863,-4.54704 -1.900536,-9.11248 -2.390625,-12.69726 -0.269768,-1.97324 -0.413105,-3.67871 -0.369141,-4.98243 0.02198,-0.65186 0.09113,-1.20255 0.214844,-1.63671 0.123718,-0.43417 0.30198,-0.75263 0.542969,-0.93555 6.0024002,-4.55598 12.22533298,-9.19193 18.6308592,-13.81641 6.4055268,-4.62448 12.9935988,-9.23634 19.7207028,-13.74609 6.727104,-4.50975 13.593414,-8.9171 20.560547,-13.12891 6.967134,-4.2118 14.034544,-8.22834 21.160156,-11.95898 7.125615,-3.73064 14.309172,-7.17593 21.511719,-10.24219 3.601274,-1.53313 7.207286,-2.97006 10.812497,-4.30273 3.60522,-1.33268 7.20964,-2.5606 10.80859,-3.66993 3.59898,-1.10932 7.19287,-2.09982 10.7754,-2.96289 3.58252,-0.86307 7.15505,-1.59749 10.71093,-2.1914 0.0929,-0.0155 0.18447,-0.0198 0.27735,-0.0352 3.58709,-1.11163 8.27864,-3.18285 11.75597,-4.31608 L 376.708,-44.063795 c -1.74692,-0.76257 -4.49223,-2.603067 -6.23394,-3.383541 -3.90245,-1.748715 -7.83026,-3.607502 -11.90235,-5.816406 -4.07208,-2.208904 -8.28931,-4.768443 -12.76562,-7.919922 -2.23815,-1.57574 -4.54064,-3.299341 -6.92383,-5.201172 -1.92094,-1.532944 -3.93624,-3.272674 -5.96874,-5.052734 z" style="fill:url(#linearGradient4610);fill-opacity:1;fill-rule:evenodd;stroke:none;stroke-width:1px;stroke-linecap:butt;stroke-linejoin:miter;stroke-opacity:1"/>
      <path sodipodi:nodetypes="csssssssssccccsssssssscccc" inkscape:connector-curvature="0" id="path4540" d="m 64.746094,68.419922 c -4.055177,2.343501 -8.141831,4.645483 -12.173828,7.019531 -8.940711,5.264309 -17.823773,10.602475 -26.652344,16.009766 -8.828571,5.40729 -17.6013515,10.883511 -26.32031262,16.423831 -8.71896108,5.54032 -17.38421238,11.14519 -25.99609338,16.80859 -17.223763,11.3268 -34.236254,22.88904 -51.046875,34.64844 -16.810622,11.7594 -33.420171,23.71573 -49.837891,35.82812 -16.41772,12.1124 -32.64245,24.38181 -48.6875,36.76758 -16.04505,12.38578 -31.90893,24.88725 -47.60156,37.4668 -15.69263,12.57954 -31.21573,25.23599 -46.57617,37.92969 -10.70592,8.84724 -21.23423,17.7219 -31.78711,26.59179 l 3.76757,168.18164 17.19141,-8.94922 C -167.29844,411.219 -95.377023,334.23328 -24.193359,232.8125 c -0.818137,-5.5701 -1.74434,-11.64582 -2.775391,-18.23828 -1.265352,-8.09056 -2.523912,-16.18231 -3.371094,-22.38672 -0.42359,-3.1022 -0.743777,-5.73154 -0.910156,-7.6543 -0.166379,-1.92276 -0.178939,-3.13877 0.01367,-3.41015 3.426741,-4.82808 7.283811,-9.71794 11.541016,-14.66407 4.257204,-4.94613 8.914815,-9.94735 13.9414058,-15 5.0265906,-5.05265 10.4213489,-10.15704 16.1562502,-15.30468 5.7349,-5.14764 11.809272,-10.33922 18.191406,-15.57032 0.413789,-0.33916 0.882454,-0.6859 1.298828,-1.02539 L 65.394366,86.567247 64.582029,68.712891 c 0.05771,-0.09795 0.106482,-0.195031 0.164065,-0.292969 z" style="fill:url(#linearGradient4620);fill-opacity:1;fill-rule:evenodd;stroke:none;stroke-width:1px;stroke-linecap:butt;stroke-linejoin:miter;stroke-opacity:1"/>
      <path id="path4712" d="m 300.5,-469.33789 c -179.31179,0.82463 -382.441118,54.86851 -526.35352,124.45703 -143.12495,341.603197 -148.35149,595.77639 -102.23632,794.20703 37.17343,159.95489 110.07552,286.14604 210.11718,399.19336 C -9.8339955,970.71646 167.71553,1096.0434 317.77539,1151.3594 467.83525,1096.0434 645.38478,970.71646 753.52344,848.51953 853.5651,735.47221 926.46524,609.28106 963.63867,449.32617 1009.7538,250.89553 1004.5292,-3.277663 861.4043,-344.88086 712.84957,-416.71417 501.1961,-471.98339 317.77539,-469.25 c 182.1599,7.98348 345.07418,52.53583 493.62891,124.36914 C 954.52925,-3.277663 963.75384,250.89553 917.63867,449.32617 880.46524,609.28106 801.5651,735.47221 701.52344,848.51953 593.38478,970.71646 461.53121,1057.8901 317.77539,1126.7598 174.01957,1057.8901 42.165999,970.71646 -65.972656,848.51953 -166.01432,735.47221 -244.91641,609.28106 -282.08984,449.32617 -328.20501,250.89553 -318.97847,-3.277663 -175.85352,-344.88086 -27.298783,-416.71417 135.61549,-461.26652 317.77539,-469.25 c -5.7319,-0.0854 -11.49114,-0.11448 -17.27539,-0.0879 z" style="fill:url(#linearGradient4714);fill-opacity:1;fill-rule:evenodd;stroke:none;stroke-width:3;stroke-linecap:butt;stroke-linejoin:miter;stroke-miterlimit:4;stroke-dasharray:none;stroke-opacity:1" inkscape:connector-curvature="0"/>
      <path sodipodi:nodetypes="ccsscsscssscccccc" inkscape:connector-curvature="0" id="path4528" d="m 645.8418,-491.15039 c -9.29779,-2.10922 -19.097,-5.20608 -27.4336,-9.45899 -8.83934,-5.04651 -14.72001,-11.32004 -20.98242,-12.36914 -1.16242,-0.19473 -2.2965,-0.29532 -3.40234,-0.31054 -16.58768,-0.22835 -26.65956,18.94519 -25.67383,33.77929 -108.04527,-15.72221 -179.2035,1.25059 -235.4082,24.84375 -53.01999,22.25631 -91.603,59.34521 -121.07032,103.32813 -35.12237,52.42365 -85.47588,129.92674 -134.249996,179.2832 1.787509,2.79082 3.500766,5.5491 5.029297,8.22266 1.761675,3.08135 3.355948,6.08821 4.791015,9.02734 1.435067,2.93914 2.710802,5.80968 3.837891,8.6211 0.597084,1.48936 1.043738,2.92007 1.558594,4.37695 0.56343,-0.68132 1.130125,-1.28001 1.693359,-1.9707 l 265.85089,-170.25005 281.56956,-76.33553 44.1057,-87.59429 z" style="fill:url(#linearGradient4574);fill-opacity:1;fill-rule:evenodd;stroke:none;stroke-width:1px;stroke-linecap:butt;stroke-linejoin:miter;stroke-opacity:1"/>
      <path sodipodi:nodetypes="ccccc" inkscape:connector-curvature="0" id="path4414" d="m 594.89769,-456.94268 c -8.89887,-6.27098 -21.96165,-43.5227 10.06795,-37.01454 9.1275,7.80874 19.5108,10.5943 30.20387,12.14077 l 16.2864,13.62135 z" style="fill:url(#linearGradient4584);fill-opacity:1;fill-rule:evenodd;stroke:none;stroke-width:1px;stroke-linecap:butt;stroke-linejoin:miter;stroke-opacity:1"/>
      <g id="g4773">
        <g id="g6999" style="fill:#7e272a;fill-opacity:1">
          <path inkscape:connector-curvature="0" style="fill:#7e272a;fill-opacity:1;fill-rule:evenodd;stroke:none;stroke-width:1px;stroke-linecap:butt;stroke-linejoin:miter;stroke-opacity:1" d="m 176.9082,216.93164 0,328.97266 76.67188,0 0,-99.85157 39.90234,0 56.01172,75.73438 c 12.23325,15.70891 25.38057,23.13824 39.98828,24.11719 l 70.03906,0 -88.15234,-117.36524 c 97.78462,-66.7917 43.84691,-211.8128 -54.95898,-211.60742 l -139.50196,0 z m 76.67188,75.3418 54.85156,0 c 18.73125,-0.48066 37.89266,19.1346 38,39.06836 -0.10734,19.93376 -19.26875,39.55097 -38,39.07031 l -54.85156,0 0,-78.13867 z" id="path6976"/>
          <path inkscape:connector-curvature="0" style="fill:#7e272a;fill-opacity:1;fill-rule:evenodd;stroke:none;stroke-width:1px;stroke-linecap:butt;stroke-linejoin:miter;stroke-opacity:1" d="m 465.5332,216.93164 0,328.97266 75.78125,0 0,-217.97657 84.69336,217.97657 31.65039,0 31.64844,0 84.69531,-217.97657 0,217.97657 75.7793,0 0,-328.97266 -90.38867,0 c -15.6208,0.18575 -34.90726,15.28487 -40.88867,33.43164 l -56.61133,161.36719 c -2.04469,8.34026 -3.37731,16.32386 -4.23438,24.07031 -0.85707,-7.74645 -2.18968,-15.73005 -4.23437,-24.07031 L 596.81055,250.36328 c -5.98141,-18.14677 -25.26787,-33.24589 -40.88867,-33.43164 l -90.38868,0 z" id="path6985"/>
          <path inkscape:connector-curvature="0" style="opacity:1;fill:#7e272a;fill-opacity:1;fill-rule:nonzero;stroke:none;stroke-width:1;stroke-linecap:butt;stroke-linejoin:miter;stroke-miterlimit:4;stroke-dasharray:none;stroke-dashoffset:0;stroke-opacity:1" d="M -23.435547,206.9082 A 172.51022,172.51022 0 0 0 -195.94531,379.41797 172.51022,172.51022 0 0 0 -23.435547,551.92773 172.51022,172.51022 0 0 0 51.619141,534.58984 l 37.523437,50.82032 c 10.506947,10.85075 20.486542,22.42296 38.732422,22.68359 l 73.34375,-0.33789 -89.58203,-121.32031 A 172.51022,172.51022 0 0 0 149.07422,379.41797 172.51022,172.51022 0 0 0 -23.435547,206.9082 Z" id="path6992"/>
        </g>
        <g id="g6994" style="fill:#ffcf01;fill-opacity:1">
          <path sodipodi:nodetypes="ccccccccccccccccc" inkscape:connector-curvature="0" id="path6968" d="m 156.9082,192.9312 0,328.9731 76.67188,0 0,-99.85157 39.90234,0 56.01172,75.73438 c 12.23325,15.70891 25.38057,23.13824 39.98828,24.11719 l 70.03906,-1e-4 -88.15234,-117.36514 c 97.78462,-66.7917 43.84691,-211.81324 -54.95898,-211.60786 z m 76.67188,75.34224 54.85156,0 c 18.73125,-0.48066 37.89266,19.1346 38,39.06836 -0.10734,19.93376 -19.26875,39.55097 -38,39.07031 l -54.85156,0 z" style="fill:#ffcf01;fill-opacity:1;fill-rule:evenodd;stroke:none;stroke-width:1px;stroke-linecap:butt;stroke-linejoin:miter;stroke-opacity:1"/>
          <path id="path6980" d="m 443.5332,192.93164 0,328.97266 75.78125,0 0,-217.97657 84.69336,217.97657 31.65039,0 31.64844,0 84.69531,-217.97657 0,217.97657 75.7793,0 0,-328.97266 -90.38867,0 c -15.6208,0.18575 -34.90726,15.28487 -40.88867,33.43164 l -56.61133,161.36719 c -2.04469,8.34026 -3.37731,16.32386 -4.23438,24.07031 -0.85707,-7.74645 -2.18968,-15.73005 -4.23437,-24.07031 L 574.81055,226.36328 c -5.98141,-18.14677 -25.26787,-33.24589 -40.88867,-33.43164 l -90.38868,0 z" style="fill:#ffcf01;fill-opacity:1;fill-rule:evenodd;stroke:none;stroke-width:1px;stroke-linecap:butt;stroke-linejoin:miter;stroke-opacity:1" inkscape:connector-curvature="0"/>
          <path id="path6987" d="M -43.435547,184.9082 A 172.51022,172.51022 0 0 0 -215.94531,357.41797 172.51022,172.51022 0 0 0 -43.435547,529.92773 172.51022,172.51022 0 0 0 31.619141,512.58984 l 37.523437,50.82032 c 10.506947,10.85075 20.486538,22.42296 38.732422,22.68359 L 181.21875,585.75586 91.636719,464.43555 A 172.51022,172.51022 0 0 0 129.07422,357.41797 172.51022,172.51022 0 0 0 -43.435547,184.9082 Z" style="opacity:1;fill:#ffcf01;fill-opacity:1;fill-rule:nonzero;stroke:none;stroke-width:1;stroke-linecap:butt;stroke-linejoin:miter;stroke-miterlimit:4;stroke-dasharray:none;stroke-dashoffset:0;stroke-opacity:1" inkscape:connector-curvature="0"/>
        </g>
        <path style="opacity:1;fill:#ea1d24;fill-opacity:1;fill-rule:nonzero;stroke:none;stroke-width:1;stroke-linecap:butt;stroke-linejoin:miter;stroke-miterlimit:4;stroke-dasharray:none;stroke-dashoffset:0;stroke-opacity:1" d="m -46.87305,248.80469 c -17.15439,0.008 -32.3697,3.7507 -46.39843,10.00195 3.39394,2.66215 7.02075,5.32414 11.0957,7.98633 13.41233,-2.33099 23.95964,-3.12893 32.6289,-2.99219 6.23258,0.0983 11.49653,0.67708 16.18946,1.5 0.32379,-0.3471 0.69536,-0.64632 1.10351,-0.88867 5.66097,-3.48135 11.12406,-7.83585 17.80469,-11.50977 -11.57899,-2.81835 -22.3357,-4.10244 -32.42383,-4.09765 z m 47.458988,8.65234 c -9.500698,2.81648 -16.274668,8.1446 -24.484378,13.48828 9.94888,11.5859 17.78289,24.16313 24.419924,37.20703 3.464895,-0.0897 6.88667,-0.0863 10.261719,0.0156 10.241876,0.30914 20.065945,1.50434 29.5,3.50195 0.71103,-8.02149 0.09589,-17.27749 -1.001953,-27.82812 C 27.775992,271.93752 15.285363,261.59321 0.585938,257.45703 Z m -51.849608,16.30664 c -8.04702,-0.0457 -17.99384,0.8174 -30.91992,3.17188 -12.47235,12.10565 -21.39898,26.10038 -27.97071,41.35351 5.46188,13.3807 13.57572,26.43094 22.71875,39.35156 6.22766,-0.20887 12.49253,-0.41269 18.5625,-0.55273 13.80383,-0.31847 26.18203,-0.31767 35.20703,0.67188 l 25.85547,-43.8418 c -6.87576,-13.70242 -14.97992,-26.6334 -25.38867,-38.33594 -5.08804,-1.01887 -10.82536,-1.77721 -18.06445,-1.81836 z m 101.152342,15.35938 c 0.833583,9.4403 1.142161,18.13539 0.06055,26.32617 9.579251,12.42913 15.617914,26.52881 17.83789,42.38867 l 3.857422,0.44727 c 0.04355,-0.73401 0.08001,-1.46842 0.109375,-2.20313 -0.05017,-24.06614 -7.702798,-47.50116 -21.865234,-66.95898 z M 4.205078,318.0918 c -0.960028,0.006 -1.937569,0.0446 -2.90625,0.0664 l -26.939458,45.67969 21.48243,42.96289 c 14.555587,3.36873 24.684959,2.98899 39.300778,0.97852 C 45.174653,394.51295 53.476274,381.58368 58.435547,364.86914 57.220119,348.63541 51.920513,334.87398 42.634766,322.50391 30.590499,319.56132 17.830651,318.01254 4.205078,318.0918 Z m -63.027348,48.83203 c -3.17329,0.0271 -6.46477,0.0827 -9.82031,0.16015 -5.46855,0.12617 -11.12527,0.30791 -16.7832,0.4961 -4.90579,15.08199 -8.29926,30.2236 -10.51563,43.76172 8.03106,9.53269 23.3729,21.57825 43.5293,27.17187 11.93458,-6.33925 29.10121,-15.65938 37.61328,-30.63476 l -20.13672,-40.27149 c -5.91269,-0.59162 -14.36684,-0.7648 -23.88672,-0.68359 z m 124.933598,6.79492 c -5.572696,15.57956 -13.902301,28.13834 -23.15625,40.35547 0.616391,6.18879 1.377252,10.90844 2.171875,14.96875 13.111873,-15.7103 21.76112,-34.6554 25.042969,-54.85352 z" id="path3422" inkscape:connector-curvature="0" sodipodi:nodetypes="sccscccscccscccscccscccsccccccsccccccssscccccsccccc"/>
      </g>
      <path sodipodi:nodetypes="ccssssssssssssssssssscsscsssscssssssssssssssscssssssssssssssscscc" inkscape:connector-curvature="0" id="path4516" d="M 39.804688,-132.47461 40,-132.43164 c 1.017611,2.51288 1.925327,5.16993 2.6875,7.93555 0.762173,2.76561 1.378056,5.64133 1.816406,8.5957 0.43835,2.95437 0.697999,5.98727 0.744141,9.06641 0.04614,3.07913 -0.120707,6.20382 -0.535156,9.343746 -0.41445,3.139924 -1.076105,6.294914 -2.019532,9.43164 -0.943426,3.136727 -2.168196,6.254674 -3.708984,9.324219 -1.540788,3.069545 -3.396982,6.090916 -5.603516,9.029297 -1.103267,1.46919 -2.293646,2.917394 -3.576171,4.341797 -1.282526,1.424402 -2.658574,2.823696 -4.128907,4.195312 -2.948116,2.750185 -6.120412,5.496946 -9.552734,8.236328 -3.432322,2.739383 -7.1235035,5.471715 -11.1093751,8.191407 -3.9858716,2.719692 -8.2662348,5.428027 -12.875,8.11914 -4.6087649,2.691113 -9.5466529,5.365885 -14.8476559,8.019532 -5.301003,2.653646 -10.96476,5.285287 -17.027344,7.892578 -6.062585,2.60729 -12.524459,5.19014 -19.417969,7.742187 -6.89351,2.552047 -14.219892,5.072632 -22.013672,7.560547 -7.79378,2.487915 -16.054966,4.9425272 -24.818361,7.3574219 -5.70932,1.5732968 -11.88511,3.1059133 -18.35156,4.609375 -6.46645,1.5034616 -13.22194,2.9780492 -20.08789,4.4375001 -13.7319,2.918901 -27.90564,5.776024 -41.08984,8.673828 2.44155,3.031612 4.60785,5.364902 6.60351,7.238281 1.99566,1.87338 3.82098,3.286239 5.58203,4.472656 3.52211,2.372836 6.78522,3.842306 10.63672,6.294922 1.48179,0.01244 3.23582,-0.09535 5.22461,-0.314453 1.98879,-0.219097 4.2138,-0.548933 6.63477,-0.978515 4.84194,-0.859165 10.9724,-1.618758 17.09422,-3.19353 6.12181,-1.574772 12.7339,-3.464001 19.53711,-5.585937 6.8032,-2.121937 13.79749,-4.475904 20.683586,-6.976563 5.715362,-1.770613 11.36299,-3.602818 16.925781,-5.498047 5.56279,-1.895228 11.040805,-3.854013 16.417969,-5.8769531 5.377164,-2.0229392 10.654015,-4.1099256 15.8125,-6.2636718 5.158484,-2.15374625 10.198717,-4.3744601 15.105469,-6.6621094 4.906751,-2.2876493 9.680769,-4.6417578 14.302734,-7.0664057 4.621965,-2.424649 9.0923585,-4.919632 13.3964837,-7.484375 4.3041253,-2.564744 8.8416428,-5.200268 12.7948763,-7.908203 3.953231,-2.707935 7.72173,-5.487575 11.291015,-8.341797 3.569285,-2.854223 6.439045,-6.283334 9.59133,-9.28694 3.152285,-3.003606 6.086831,-6.082195 8.789062,-9.238281 2.702232,-3.156086 5.171501,-6.38951 7.390626,-9.701172 2.219124,-3.311661 4.187661,-6.701541 5.890624,-10.171875 1.702964,-3.470333 3.141173,-7.020242 4.294922,-10.652344 1.15375,-3.632101 2.024221,-7.345612 2.595704,-11.142578 0.571482,-3.796965 0.842666,-7.677654 0.798828,-11.642574 -0.04384,-3.96493 -0.40349,-8.01441 -1.095704,-12.15039 -0.535923,-2.5756 -1.282671,-5.21872 -2.236328,-7.89844 -0.953657,-2.67973 -2.114564,-5.39709 -3.474609,-8.11719 -1.360045,-2.7201 -2.918741,-5.4439 -4.673828,-8.14062 -1.755087,-2.69673 -3.704967,-5.36502 -5.84375,-7.97461 -2.138783,-2.6096 -4.467382,-5.16043 -6.978516,-7.61914 -2.511133,-2.45872 -5.205986,-4.82623 -8.078125,-7.07032 -2.872138,-2.24409 -5.92078,-4.36437 -9.142578,-6.33008 -3.221797,-1.9657 -6.61567,-3.77681 -10.175782,-5.40039 -3.5601107,-1.62358 -7.286749,-3.35982 -11.1738277,-4.57752 -3.8870788,-1.2177 -7.9359711,-2.21677 -12.1386713,-2.96484 -4.202701,-0.74807 -8.959773,-1.24625 -13.46675,-1.46094 -4.506978,-0.21469 -9.162983,-0.14611 -13.962891,0.23633 -4.799908,0.38244 -9.744679,1.07972 -14.826172,2.12304 -5.081493,1.04333 -10.300612,2.43322 -15.652344,4.20118 -5.351731,1.76795 -10.834687,4.21454 -16.445312,6.77088 -2.847909,1.29758 -5.821966,3.02012 -8.734375,4.5332 36.667545,-15.00166 66.257719,-14.25633 83.576172,-8.62695 24.664317,8.01716 45.203487,23.69488 52.792969,44.00391 z" style="fill:url(#linearGradient4670);fill-opacity:1;fill-rule:evenodd;stroke:none;stroke-width:1px;stroke-linecap:butt;stroke-linejoin:miter;stroke-opacity:1"/>
      <path sodipodi:nodetypes="ccsssssssssssssssssssssssssssssscssssssssssscsssssssssssssssscssssssscsssssssccsssssssscssssssssssssssssssccscsssssssssssssscsccsssccccccsccccc" inkscape:connector-curvature="0" id="path4446" d="m 645.8418,-491.15039 -54.53711,99.58789 c -7.32787,-2.34496 -14.59991,-4.51205 -21.81446,-6.50195 -7.21454,-1.9899 -14.37088,-3.80335 -21.46875,-5.44336 -7.09786,-1.64002 -14.13545,-3.1051 -21.11328,-4.40039 -6.97783,-1.2953 -13.89557,-2.4212 -20.75,-3.37696 -6.85443,-0.95575 -13.64732,-1.7419 -20.375,-2.36328 -6.72767,-0.62138 -13.39072,-1.07696 -19.98828,-1.36914 -6.59755,-0.29217 -13.12967,-0.42053 -19.59375,-0.38867 -6.46408,0.0319 -12.86025,0.2235 -19.1875,0.57422 -6.32724,0.35072 -12.58443,0.85903 -18.77148,1.52344 -6.18705,0.6644 -12.30416,1.48605 -18.34766,2.45898 -6.0435,0.97293 -12.0136,2.09873 -17.91015,3.375 -5.8966,1.27627 -11.71854,2.70289 -17.46485,4.27734 -5.74631,1.57445 -11.41708,3.29661 -17.00976,5.16407 -5.59269,1.86745 -11.10728,3.87986 -16.54297,6.03515 -5.43569,2.15529 -10.79302,4.45267 -16.06836,6.89063 -5.27534,2.43795 -10.46845,5.01697 -15.58008,7.73242 -2.65883,1.41244 -5.29313,2.90969 -7.90234,4.49023 -2.60922,1.58055 -5.1945,3.24317 -7.75586,4.98243 -5.12273,3.4785 -10.14999,7.26528 -15.0918,11.32226 -4.94181,4.05699 -9.79736,8.38499 -14.57227,12.94531 -4.7749,4.56033 -9.46978,9.35327 -14.09179,14.3418 -4.62201,4.98853 -9.17117,10.17208 -13.6543,15.51367 -4.48313,5.3416 -8.89955,10.84142 -13.25781,16.46094 -4.35827,5.61952 -8.65885,11.35934 -12.90625,17.18164 -4.24741,5.82231 -8.44319,11.72583 -12.59375,17.67578 -8.30113,11.89991 -16.42211,23.98175 -24.41992,35.94141 -7.99782,11.95966 -15.87114,23.79848 -23.67774,35.2168 -3.9033,5.70915 -7.7895,11.31232 -11.66601,16.77343 -3.87652,5.46111 -7.74368,10.78004 -11.60743,15.91797 -3.86374,5.13793 -7.724859,10.09438 -11.58984,14.83399 -0.563234,0.69069 -1.129929,1.28938 -1.693359,1.9707 0.457013,1.29321 0.990825,2.61598 1.384765,3.88476 0.837741,2.6982 1.53454,5.3439 2.101563,7.94336 0.567023,2.59947 1.003424,5.15274 1.318359,7.66797 0.314935,2.51524 0.508366,4.992 0.589844,7.4375 0.08148,2.44551 0.05132,4.85973 -0.08203,7.25 -0.141632,2.53874 -0.367787,5.02377 -0.677735,7.45703 -0.309947,2.433286 -0.702888,4.813388 -1.175781,7.144536 -0.472893,2.331147 -1.02578,4.613316 -1.65625,6.845703 -0.63047,2.232386 -1.338418,4.415752 -2.121094,6.552734 -0.782676,2.136983 -1.6408,4.22655 -2.570312,6.271485 -0.929513,2.044933 -1.930974,4.045708 -3.001953,6.001953 -2.137876,3.905029 -4.553132,7.635375 -7.222657,11.207031 1.021024,1.477087 1.515826,2.960777 2.407788,4.46875 1.076842,1.820535 2.060733,3.663735 2.955079,5.527344 0.894345,1.863608 1.69998,3.747785 2.417968,5.652343 0.717988,1.904559 1.348715,3.830054 1.896485,5.773438 0.547769,1.943384 1.012794,3.90468 1.396484,5.884765 0.38369,1.980086 0.68636,3.979478 0.91211,5.994141 0.451498,4.029326 0.592647,8.124408 0.449218,12.279297 -0.143429,4.1548891 -0.572474,8.3693538 -1.261718,12.6328125 -0.689245,4.2634587 -1.638271,8.5766065 -2.824219,12.9316405 -1.185949,4.355035 -2.608647,8.752024 -4.242188,13.181641 -1.63354,4.429616 -3.477745,8.891701 -5.509765,13.378906 -2.03202,4.487205 -4.251425,8.999545 -6.632813,13.527344 -2.381388,4.527799 -4.925778,9.071647 -7.607422,13.623047 -2.681643,4.5514 -5.500806,9.109962 -8.433593,13.667968 -2.932788,4.558007 -5.978463,9.11449 -9.113282,13.66211 -3.134818,4.547621 -6.358746,9.085231 -9.646484,13.605471 -2.428012,3.33822 -4.507549,6.59492 -6.995679,9.91015 6.005629,-4.89669 12.225689,-9.8201 18.742188,-14.77929 6.96829,-5.303024 14.213661,-10.638547 21.707031,-16.001956 7.49337,-5.36341 15.234033,-10.753747 23.191406,-16.166016 7.957376,-5.412269 16.131886,-10.847279 24.492186,-16.296875 16.7206,-10.899192 34.1865,-21.860538 52.15234,-32.839844 17.96585,-10.979306 36.43182,-21.9761963 55.1543,-32.943359 18.72248,-10.967163 37.70091,-21.904817 56.69141,-32.767578 16.92491,-9.681224 33.81904,-19.271777 50.58984,-28.800781 -0.4891,-0.428353 -0.93947,-0.772965 -1.43555,-1.216797 -2.55755,-2.288221 -5.20946,-4.784622 -7.9707,-7.519532 -2.76124,-2.734908 -5.63075,-5.709277 -8.625,-8.951171 -2.99425,-3.241895 -6.11256,-6.751369 -9.36914,-10.560547 -3.25658,-3.809174 -6.65294,-7.916754 -10.20117,-12.353514 -3.54823,-4.43676 -7.24798,-9.20348 -11.11719,-14.32813 -3.86921,-5.12464 -7.90745,-10.60764 -12.12695,-16.48047 -8.43902,-11.74564 -17.6069,-25.04828 -27.62305,-40.14843 l 79.34637,-85.84766 c -0.44166,9.73867 -0.40687,19.30582 -0.47512,28.67578 -0.0682,9.36996 0.0615,18.54174 0.41211,27.49219 0.35057,8.95044 0.92156,17.67808 1.73633,26.1582 0.81478,8.48013 1.5726,16.71287 2.89699,24.67188 0.66219,3.9795 1.39134,7.89077 2.18945,11.73047 0.79811,3.83969 1.66577,7.60919 2.60547,11.30273 0.9397,3.69354 1.95209,7.31053 3.03906,10.85156 1.08697,3.54104 2.24837,7.00454 3.48828,10.38672 1.23991,3.38218 2.55858,6.68342 3.95703,9.90039 1.39853,3.21697 2.87664,6.35107 4.43946,9.396487 1.56282,3.045413 3.20862,6.003589 4.9414,8.871094 1.73279,2.867505 3.55251,5.642925 5.46094,8.326171 1.90843,2.683247 3.90635,5.272987 5.9961,7.765626 2.08974,2.492637 4.27209,4.887913 6.54882,7.183593 2.27674,2.29568 4.64779,4.491614 7.11719,6.583985 2.46941,2.09237 5.03733,4.082132 7.70508,5.964843 2.66775,1.882712 5.43487,3.659471 8.30664,5.326172 2.87177,1.666702 5.84823,3.223627 8.92969,4.667969 3.08146,1.444342 6.26762,2.776556 9.56445,3.992188 3.29683,1.215631 6.70283,2.314351 10.2207,3.294921 3.51787,0.980571 7.14799,1.842872 10.89258,2.582032 3.74459,0.739159 7.60505,1.354305 11.58203,1.845703 3.97699,0.491398 8.07011,0.858417 12.28516,1.095703 4.21505,0.237286 8.55097,0.345442 13.00976,0.322265 4.4588,-0.02318 9.04179,-0.178761 13.75,-0.46875 4.70822,-0.289988 9.34268,-0.714192 14.30598,-1.277343 4.96331,-0.563151 10.05522,-1.264758 15.2793,-2.107422 2.12953,-0.343502 4.37726,-0.814387 6.55078,-1.205078 0.11591,-0.06631 0.24172,-0.120996 0.35742,-0.1875 6.257,-1.181957 11.23371,-1.980122 16.67188,-4.367188 58.3901,-25.630155 139.8367,-24.981604 151.19726,48.2812502 1.60314,-1.9930498 3.23506,-3.9830109 4.69532,-5.9960937 2.14687,-2.95962893 4.13555,-5.9422748 5.96094,-8.9472656 1.82537,-3.0049908 3.48775,-6.0331289 4.97656,-9.0859379 1.48881,-3.052808 2.80424,-6.12934 3.9414,-9.232422 1.13717,-3.10308 2.09481,-6.232862 2.86524,-9.388671 0.77043,-3.15581 1.35356,-6.337835 1.74219,-9.548829 0.38862,-3.210993 0.58248,-6.450116 0.57421,-9.71875 -0.008,-3.268633 -0.21843,-6.567755 -0.63867,-9.896484 -0.42024,-3.328729 -1.04919,-6.686845 -1.89648,-10.078125 -0.8473,-3.391279 -1.91175,-6.815199 -3.20117,-10.271484 -1.28943,-3.456286 -2.80415,-6.945003 -4.55078,-10.46875 -1.74665,-3.523748 -3.72638,-7.082119 -5.94532,-10.675779 -2.21894,-3.59367 -4.6765,-7.22264 -7.38281,-10.88867 -2.70631,-3.66604 -5.66037,-7.36851 -8.86914,-11.10938 -2.89651,-3.37683 -6.06909,-6.79467 -9.38672,-10.23437 -26.27779,-16.32306 -53.7701,-26.36984 -69.7168,-28.10938 -39.41648,-4.29973 -80.17745,-1.5227 -113.33398,11.33594 3.17244,-35.30368 16.75069,-60.03328 33.42578,-79.12305 27.92711,-32.03977 59.00534,-44.30345 88.88281,-44.60351 21.78243,-0.21876 50.56853,7.13434 69.6836,23.28125 11.83574,9.99791 28.74663,24.03088 36.60156,26.3457 11.77578,3.4703 20.75862,-4.24945 25.82031,-28.0625 6.09645,-5.29064 15.31624,-16.88312 20.25,-31.94531 l -30.9375,20.54882 c -27.87381,-49.06196 -6.74042,-106.66764 74.54102,-127.7539 l 1.67383,40.30273 c 12.41251,-10.69872 13.76116,-7.91395 18.8164,-36.5039 11.57046,-8.72209 10.68093,-23.47852 8.76172,-38.6543 -0.12673,-1.00209 -1.82865,-2.53017 -1.41602,-3.45117 2.7337,-6.10094 3.23084,-9.98751 -1.38085,-12.14063 -31.9654,-15.13626 -81.0801,-35.87303 -106.38282,-41.48437 -18.03743,-1.88467 -40.82046,-2.58129 -50.75976,-1.29688 -5.46904,0.96531 -17.25857,-0.012 -30.02539,-2.9082 z" style="fill:url(#linearGradient4554);fill-opacity:1;fill-rule:evenodd;stroke:none;stroke-width:1px;stroke-linecap:butt;stroke-linejoin:miter;stroke-opacity:1"/>
      <path sodipodi:nodetypes="cccc" inkscape:connector-curvature="0" id="path4398" d="m 707.51482,-453.54089 c 15.43329,2.18926 28.25844,3.25444 41.03962,4.60649 -3.42829,5.50273 -6.15662,11.93875 -12.77253,13.19131 -7.18954,0.83176 -19.78409,-11.01123 -28.26709,-17.7978 z" style="fill:#ea1d24;fill-opacity:1;fill-rule:evenodd;stroke:none;stroke-width:1px;stroke-linecap:butt;stroke-linejoin:miter;stroke-opacity:1"/>
      <path sodipodi:nodetypes="ccccc" inkscape:connector-curvature="0" id="path4546" d="M 375.716,-45.143795 124.36914,79.916016 143.42969,112.5918 C 305.71547,59.70392 349.89781,-15.891829 379.87305,-42.787109 c -1.4947,-0.65732 -2.67189,-1.708373 -4.15705,-2.356686 z" style="fill:url(#linearGradient4602);fill-opacity:1;fill-rule:evenodd;stroke:none;stroke-width:1px;stroke-linecap:butt;stroke-linejoin:miter;stroke-opacity:1"/>
      <g id="g4699">
        <g style="fill:#ffffff" id="g4346" transform="translate(1580.2803,89.904784)">
          <path d="m -1539.7985,681.00761 -4.5924,0 0,14.98012 -9.841,0 0,-41.44135 16.7843,0 q 15.8002,0 15.8002,13.28528 0,9.45825 -8.2555,12.13718 l 9.8957,16.01889 -10.9344,0 -8.8569,-14.98012 z m -4.5924,-8.31014 6.9433,0 q 5.8499,0 5.8499,-4.86581 0,-2.56958 -1.4215,-3.77236 -1.4214,-1.20279 -4.4284,-1.20279 l -6.9433,0 0,9.84096 z" style="font-style:normal;font-variant:normal;font-weight:900;font-stretch:normal;font-size:93.75px;line-height:0%;font-family:Biryani;-inkscape-font-specification:'Biryani Heavy';text-align:end;letter-spacing:1.5675px;word-spacing:0px;text-anchor:end;fill:#ffffff;fill-opacity:1;stroke:none;stroke-width:1px;stroke-linecap:butt;stroke-linejoin:miter;stroke-opacity:1" id="path4268" inkscape:connector-curvature="0"/>
          <path d="m -1494.986,696.91715 q -6.8886,0 -11.6998,-2.78827 -4.8111,-2.84294 -7.2167,-7.70875 -2.4055,-4.92047 -2.4055,-11.09841 0,-6.06858 2.4055,-10.93439 2.4056,-4.86581 7.2167,-7.70875 4.8112,-2.89761 11.6998,-2.89761 6.7793,0 11.5905,2.89761 4.8111,2.84294 7.2167,7.76342 2.4602,4.86581 2.4602,10.87972 0,6.17794 -2.4602,11.09841 -2.4056,4.86581 -7.2167,7.70875 -4.7565,2.78827 -11.5905,2.78827 z m 0,-8.31014 q 5.3032,0 8.2555,-3.71769 2.9522,-3.7177 2.9522,-9.73161 0,-3.77237 -1.3121,-6.72465 -1.3121,-2.95229 -3.8817,-4.64712 -2.5149,-1.69483 -6.0139,-1.69483 -5.4125,0 -8.3648,3.66302 -2.8976,3.66302 -2.8976,9.56759 0,6.01392 2.8976,9.67694 2.8976,3.60835 8.3648,3.60835 z" style="font-style:normal;font-variant:normal;font-weight:900;font-stretch:normal;font-size:93.75px;line-height:0%;font-family:Biryani;-inkscape-font-specification:'Biryani Heavy';text-align:end;letter-spacing:1.5675px;word-spacing:0px;text-anchor:end;fill:#ffffff;fill-opacity:1;stroke:none;stroke-width:1px;stroke-linecap:butt;stroke-linejoin:miter;stroke-opacity:1" id="path4270" inkscape:connector-curvature="0"/>
          <path d="m -1451.442,696.91715 q -9.0209,0 -13.5587,-4.4831 -4.4831,-4.4831 -4.4831,-12.73857 l 0,-25.1491 9.841,0 0,25.1491 q 0,4.42843 2.0229,6.66998 2.0775,2.24155 6.1779,2.24155 4.1004,0 6.1232,-2.24155 2.0776,-2.24155 2.0776,-6.66998 l 0,-25.1491 9.8409,0 0,25.1491 q 0,8.25547 -4.4831,12.73857 -4.4831,4.4831 -13.5586,4.4831 z" style="font-style:normal;font-variant:normal;font-weight:900;font-stretch:normal;font-size:93.75px;line-height:0%;font-family:Biryani;-inkscape-font-specification:'Biryani Heavy';text-align:end;letter-spacing:1.5675px;word-spacing:0px;text-anchor:end;fill:#ffffff;fill-opacity:1;stroke:none;stroke-width:1px;stroke-linecap:butt;stroke-linejoin:miter;stroke-opacity:1" id="path4272" inkscape:connector-curvature="0"/>
          <path sodipodi:nodetypes="ccccccccccccc" d="m -1395.8576,688.11496 0,7.87277 -30.2644,0 0,-41.44135 29.9911,0 0,7.87276 -20.1501,0 0,8.80219 17.4165,0 0,7.87276 -17.4165,0 0,9.02087 z" style="font-style:normal;font-variant:normal;font-weight:900;font-stretch:normal;font-size:93.75px;line-height:0%;font-family:Biryani;-inkscape-font-specification:'Biryani Heavy';text-align:end;letter-spacing:1.5675px;word-spacing:0px;text-anchor:end;fill:#ffffff;fill-opacity:1;stroke:none;stroke-width:1px;stroke-linecap:butt;stroke-linejoin:miter;stroke-opacity:1" id="path4274" inkscape:connector-curvature="0"/>
          <path d="m -1353.434,654.54638 0,41.44135 -11.3172,0 -14.8707,-25.47714 0,25.47714 -9.841,0 0,-41.44135 11.3171,0 14.8708,25.47713 0,-25.47713 9.841,0 z" style="font-style:normal;font-variant:normal;font-weight:900;font-stretch:normal;font-size:93.75px;line-height:0%;font-family:Biryani;-inkscape-font-specification:'Biryani Heavy';text-align:end;letter-spacing:1.5675px;word-spacing:0px;text-anchor:end;fill:#ffffff;fill-opacity:1;stroke:none;stroke-width:1px;stroke-linecap:butt;stroke-linejoin:miter;stroke-opacity:1" id="path4276" inkscape:connector-curvature="0"/>
          <path d="m -1282.4291,654.54638 0,41.44135 -9.841,0 0,-27.33599 -9.4036,13.61332 -4.9205,0 -9.1848,-13.50397 0,27.22664 -9.841,0 0,-41.44135 11.3718,0 10.2237,15.30815 10.2236,-15.30815 11.3718,0 z" style="font-style:normal;font-variant:normal;font-weight:900;font-stretch:normal;font-size:93.75px;line-height:0%;font-family:Biryani;-inkscape-font-specification:'Biryani Heavy';text-align:end;letter-spacing:1.5675px;word-spacing:0px;text-anchor:end;fill:#ffffff;fill-opacity:1;stroke:none;stroke-width:1px;stroke-linecap:butt;stroke-linejoin:miter;stroke-opacity:1" id="path4278" inkscape:connector-curvature="0"/>
          <path sodipodi:nodetypes="cccccccccccccccccc" d="m -1245.6395,688.11496 0,7.87277 -30.1642,0 0,-41.44135 29.8908,0 0,7.87276 -20.0499,0 0,8.80219 17.3163,0 0,7.87276 -17.3163,0 0,9.02087 z m -14.2852,-44.25051 10.825,0 -6.6153,8.36481 -9.5676,0 z" style="font-style:normal;font-variant:normal;font-weight:900;font-stretch:normal;font-size:93.75px;line-height:0%;font-family:Biryani;-inkscape-font-specification:'Biryani Heavy';text-align:end;letter-spacing:1.5675px;word-spacing:0px;text-anchor:end;fill:#ffffff;fill-opacity:1;stroke:none;stroke-width:1px;stroke-linecap:butt;stroke-linejoin:miter;stroke-opacity:1" id="path4280" inkscape:connector-curvature="0"/>
          <path sodipodi:nodetypes="ccccccccc" d="m -1209.2568,662.96586 -11.3171,0 0,33.02187 -9.8409,0 0,-33.02187 -11.3171,0 0,-8.41948 32.4751,0 z" style="font-style:normal;font-variant:normal;font-weight:900;font-stretch:normal;font-size:93.75px;line-height:0%;font-family:Biryani;-inkscape-font-specification:'Biryani Heavy';text-align:end;letter-spacing:1.5675px;word-spacing:0px;text-anchor:end;fill:#ffffff;fill-opacity:1;stroke:none;stroke-width:1px;stroke-linecap:butt;stroke-linejoin:miter;stroke-opacity:1" id="path4282" inkscape:connector-curvature="0"/>
          <path d="m -1189.4648,681.00761 -4.5924,0 0,14.98012 -9.841,0 0,-41.44135 16.7843,0 q 15.8002,0 15.8002,13.28528 0,9.45825 -8.2555,12.13718 l 9.8957,16.01889 -10.9344,0 -8.8569,-14.98012 z m -4.5924,-8.31014 6.9433,0 q 5.8499,0 5.8499,-4.86581 0,-2.56958 -1.4215,-3.77236 -1.4214,-1.20279 -4.4284,-1.20279 l -6.9433,0 0,9.84096 z" style="font-style:normal;font-variant:normal;font-weight:900;font-stretch:normal;font-size:93.75px;line-height:0%;font-family:Biryani;-inkscape-font-specification:'Biryani Heavy';text-align:end;letter-spacing:1.5675px;word-spacing:0px;text-anchor:end;fill:#ffffff;fill-opacity:1;stroke:none;stroke-width:1px;stroke-linecap:butt;stroke-linejoin:miter;stroke-opacity:1" id="path4284" inkscape:connector-curvature="0"/>
          <path d="m -1144.6519,696.91715 q -6.8887,0 -11.6998,-2.78827 -4.8111,-2.84294 -7.2167,-7.70875 -2.4056,-4.92047 -2.4056,-11.09841 0,-6.06858 2.4056,-10.93439 2.4056,-4.86581 7.2167,-7.70875 4.8111,-2.89761 11.6998,-2.89761 6.7793,0 11.5905,2.89761 4.8111,2.84294 7.2167,7.76342 2.4602,4.86581 2.4602,10.87972 0,6.17794 -2.4602,11.09841 -2.4056,4.86581 -7.2167,7.70875 -4.7565,2.78827 -11.5905,2.78827 z m 0,-8.31014 q 5.3032,0 8.2555,-3.71769 2.9523,-3.7177 2.9523,-9.73161 0,-3.77237 -1.3122,-6.72465 -1.3121,-2.95229 -3.8817,-4.64712 -2.5149,-1.69483 -6.0139,-1.69483 -5.4125,0 -8.3648,3.66302 -2.8976,3.66302 -2.8976,9.56759 0,6.01392 2.8976,9.67694 2.8976,3.60835 8.3648,3.60835 z" style="font-style:normal;font-variant:normal;font-weight:900;font-stretch:normal;font-size:93.75px;line-height:0%;font-family:Biryani;-inkscape-font-specification:'Biryani Heavy';text-align:end;letter-spacing:1.5675px;word-spacing:0px;text-anchor:end;fill:#ffffff;fill-opacity:1;stroke:none;stroke-width:1px;stroke-linecap:butt;stroke-linejoin:miter;stroke-opacity:1" id="path4286" inkscape:connector-curvature="0"/>
          <path d="m -1100.3658,654.54638 q 7.8728,0 11.8092,3.499 3.991,3.44434 3.991,10.333 0,6.72466 -3.991,10.22366 -3.9364,3.49901 -11.8092,3.49901 l -6.9433,0 0,13.88668 -9.841,0 0,-41.44135 16.7843,0 z m 0,19.24453 q 2.9523,0 4.3738,-1.31213 1.4214,-1.31213 1.4761,-4.1004 0,-2.89761 -1.4215,-4.20974 -1.4214,-1.31213 -4.4284,-1.31213 l -6.9433,0 0,10.9344 6.9433,0 z" style="font-style:normal;font-variant:normal;font-weight:900;font-stretch:normal;font-size:93.75px;line-height:0%;font-family:Biryani;-inkscape-font-specification:'Biryani Heavy';text-align:end;letter-spacing:1.5675px;word-spacing:0px;text-anchor:end;fill:#ffffff;fill-opacity:1;stroke:none;stroke-width:1px;stroke-linecap:butt;stroke-linejoin:miter;stroke-opacity:1" id="path4288" inkscape:connector-curvature="0"/>
          <path d="m -1061.36,696.91715 q -6.8887,0 -11.6998,-2.78827 -4.8112,-2.84294 -7.2167,-7.70875 -2.4056,-4.92047 -2.4056,-11.09841 0,-6.06858 2.4056,-10.93439 2.4055,-4.86581 7.2167,-7.70875 4.8111,-2.89761 11.6998,-2.89761 6.7793,0 11.5904,2.89761 4.8112,2.84294 7.2167,7.76342 2.4603,4.86581 2.4603,10.87972 0,6.17794 -2.4603,11.09841 -2.4055,4.86581 -7.2167,7.70875 -4.7564,2.78827 -11.5904,2.78827 z m 0,-8.31014 q 5.3032,0 8.2554,-3.71769 2.9523,-3.7177 2.9523,-9.73161 0,-3.77237 -1.3121,-6.72465 -1.3121,-2.95229 -3.8817,-4.64712 -2.5149,-1.69483 -6.0139,-1.69483 -5.4126,0 -8.3648,3.66302 -2.8977,3.66302 -2.8977,9.56759 0,6.01392 2.8977,9.67694 2.8976,3.60835 8.3648,3.60835 z" style="font-style:normal;font-variant:normal;font-weight:900;font-stretch:normal;font-size:93.75px;line-height:0%;font-family:Biryani;-inkscape-font-specification:'Biryani Heavy';text-align:end;letter-spacing:1.5675px;word-spacing:0px;text-anchor:end;fill:#ffffff;fill-opacity:1;stroke:none;stroke-width:1px;stroke-linecap:butt;stroke-linejoin:miter;stroke-opacity:1" id="path4290" inkscape:connector-curvature="0"/>
          <path sodipodi:nodetypes="ccccccc" d="m -1005.9275,687.56824 0,8.41949 -28.9304,0 0,-41.44135 9.8409,0 0,33.02186 z" style="font-style:normal;font-variant:normal;font-weight:900;font-stretch:normal;font-size:93.75px;line-height:0%;font-family:Biryani;-inkscape-font-specification:'Biryani Heavy';text-align:end;letter-spacing:1.5675px;word-spacing:0px;text-anchor:end;fill:#ffffff;fill-opacity:1;stroke:none;stroke-width:1px;stroke-linecap:butt;stroke-linejoin:miter;stroke-opacity:1" id="path4292" inkscape:connector-curvature="0"/>
          <path sodipodi:nodetypes="ccccccccccccc" d="m -970.77934,688.11496 0,7.87277 -29.66396,0 0,-41.44135 29.3906,0 0,7.87276 -17.5497,0 0,8.80219 14.8161,0 0,7.87276 -14.8161,0 0,9.02087 z" style="font-style:normal;font-variant:normal;font-weight:900;font-stretch:normal;font-size:93.75px;line-height:0%;font-family:Biryani;-inkscape-font-specification:'Biryani Heavy';text-align:end;letter-spacing:1.5675px;word-spacing:0px;text-anchor:end;fill:#ffffff;fill-opacity:1;stroke:none;stroke-width:1px;stroke-linecap:butt;stroke-linejoin:miter;stroke-opacity:1" id="path4294" inkscape:connector-curvature="0"/>
        </g>
        <g style="fill:#ffffff" id="g4373" transform="translate(1580.2803,89.904784)">
          <path sodipodi:nodetypes="scsccscscsccsss" d="m -1356.4232,626.44206 c -6.5789,0 -11.5231,-1.63477 -14.8325,-4.90431 -3.2695,-3.26953 -4.9043,-7.91467 -4.9043,-13.9354 l 0,-28.21205 10.7655,0 0,28.21205 c 0,3.22966 0.7376,5.66188 2.2129,7.29665 1.5151,1.63477 3.7679,2.45215 6.7584,2.45215 2.9904,0 5.2233,-0.81738 6.6986,-2.45215 1.5151,-1.63477 2.2727,-4.06699 2.2727,-7.29665 l 0,-28.21205 10.7656,0 0,28.21205 c 0,6.02073 -1.6348,10.66587 -4.9043,13.9354 -3.2696,3.26954 -8.2138,4.90431 -14.8326,4.90431 z" style="font-style:normal;font-variant:normal;font-weight:900;font-stretch:normal;font-size:93.75px;line-height:0%;font-family:Biryani;-inkscape-font-specification:'Biryani Heavy';text-align:end;letter-spacing:1.5675px;word-spacing:0px;text-anchor:end;fill:#ffffff;fill-opacity:1;stroke:none;stroke-width:1px;stroke-linecap:butt;stroke-linejoin:miter;stroke-opacity:1" id="path4299" inkscape:connector-curvature="0"/>
          <path sodipodi:nodetypes="ccccccccccccc" d="m -1293.3353,617.11298 0,8.61244 -34.763,0 0,-46.33512 34.4639,0 0,8.61244 -23.6983,0 0,10.12924 20.7079,0 0,8.61244 -20.7079,0 0,10.36856 z" style="font-style:normal;font-variant:normal;font-weight:900;font-stretch:normal;font-size:93.75px;line-height:0%;font-family:Biryani;-inkscape-font-specification:'Biryani Heavy';text-align:end;letter-spacing:1.5675px;word-spacing:0px;text-anchor:end;fill:#ffffff;fill-opacity:1;stroke:none;stroke-width:1px;stroke-linecap:butt;stroke-linejoin:miter;stroke-opacity:1" id="path4301" inkscape:connector-curvature="0"/>
          <path sodipodi:nodetypes="cccccccc" d="m -1244.0287,579.3903 -15.8492,46.3349 -13.6364,0 -15.9091,-46.3349 11.0646,0 11.6627,34.74881 11.6029,-34.74881 z" style="font-style:normal;font-variant:normal;font-weight:900;font-stretch:normal;font-size:93.75px;line-height:0%;font-family:Biryani;-inkscape-font-specification:'Biryani Heavy';text-align:end;letter-spacing:1.5675px;word-spacing:0px;text-anchor:end;fill:#ffffff;fill-opacity:1;stroke:none;stroke-width:1px;stroke-linecap:butt;stroke-linejoin:miter;stroke-opacity:1" id="path4303" inkscape:connector-curvature="0"/>
          <path sodipodi:nodetypes="ccccc" d="m -1236.488,579.3903 10.7656,0 0,46.3349 -10.7656,0 z" style="font-style:normal;font-variant:normal;font-weight:900;font-stretch:normal;font-size:93.75px;line-height:0%;font-family:Biryani;-inkscape-font-specification:'Biryani Heavy';text-align:end;letter-spacing:1.5675px;word-spacing:0px;text-anchor:end;fill:#ffffff;fill-opacity:1;stroke:none;stroke-width:1px;stroke-linecap:butt;stroke-linejoin:miter;stroke-opacity:1" id="path4305" inkscape:connector-curvature="0"/>
          <path sodipodi:nodetypes="ccccccc" d="m -1183.7729,616.51494 0,9.21026 -33.2727,0 0,-46.3349 10.7655,0 0,37.12464 z" style="font-style:normal;font-variant:normal;font-weight:900;font-stretch:normal;font-size:93.75px;line-height:0%;font-family:Biryani;-inkscape-font-specification:'Biryani Heavy';text-align:end;letter-spacing:1.5675px;word-spacing:0px;text-anchor:end;fill:#ffffff;fill-opacity:1;stroke:none;stroke-width:1px;stroke-linecap:butt;stroke-linejoin:miter;stroke-opacity:1" id="path4307" inkscape:connector-curvature="0"/>
          <path sodipodi:nodetypes="ccccccc" d="m -1144.3129,616.51494 0,9.21052 -33.2727,0 0,-46.33516 10.7655,0 0,37.12464 z" style="font-style:normal;font-variant:normal;font-weight:900;font-stretch:normal;font-size:93.75px;line-height:0%;font-family:Biryani;-inkscape-font-specification:'Biryani Heavy';text-align:end;letter-spacing:1.5675px;word-spacing:0px;text-anchor:end;fill:#ffffff;fill-opacity:1;stroke:none;stroke-width:1px;stroke-linecap:butt;stroke-linejoin:miter;stroke-opacity:1" id="path4309" inkscape:connector-curvature="0"/>
          <path sodipodi:nodetypes="cccccccccc" d="m -1123.7571,607.20131 0,18.52389 -10.5263,0 0,-18.52389 -15.4306,-27.81101 10.7655,0 9.9283,18.24163 9.988,-18.24163 10.7655,0 z" style="font-style:normal;font-variant:normal;font-weight:900;font-stretch:normal;font-size:93.75px;line-height:0%;font-family:Biryani;-inkscape-font-specification:'Biryani Heavy';text-align:end;letter-spacing:1.5675px;word-spacing:0px;text-anchor:end;fill:#ffffff;fill-opacity:1;stroke:none;stroke-width:1px;stroke-linecap:butt;stroke-linejoin:miter;stroke-opacity:1" id="path4311" inkscape:connector-curvature="0"/>
          <path inkscape:connector-curvature="0" id="ellipse4339" d="m -1408.041,579.3903 a 24.447304,24.447304 0 0 0 -24.4473,24.44727 24.447304,24.447304 0 0 0 24.4473,24.44727 24.447304,24.447304 0 0 0 13.1933,-3.89454 l 5.1055,5.10547 7.0801,-7.08203 -5.041,-5.04101 a 24.447304,24.447304 0 0 0 4.1093,-13.53516 24.447304,24.447304 0 0 0 -24.4472,-24.44727 z m 0,9.98243 a 13.492037,14.46569 0 0 1 13.4922,14.46484 13.492037,14.46569 0 0 1 -1.0625,5.62695 l -6.5235,-6.52539 -7.082,7.08203 6.9004,6.90039 a 13.492037,14.46569 0 0 1 -5.7246,1.38282 13.492037,14.46569 0 0 1 -13.4902,-14.4668 13.492037,14.46569 0 0 1 13.4902,-14.46484 z" style="opacity:1;fill:#ffffff;fill-opacity:1;fill-rule:nonzero;stroke:none;stroke-width:6;stroke-linecap:round;stroke-linejoin:round;stroke-miterlimit:4;stroke-dasharray:none;stroke-dashoffset:0;stroke-opacity:0"/>
        </g>
      </g>
    </g>
  </g>
</svg>