<svg xmlns="http://www.w3.org/2000/svg" height="300" width="246.98" viewBox="0 0 246.984 300">
<title>Racing Club</title>
<g fill="#FFF">
<path fill="#00273E" d="M246.98,0v239.17c0,33.578-59.569,33.967-60.173,33.967-22.971,0-43.563,7.476-57.397,21.047l-5.92,5.81-5.921-5.817c-13.835-13.571-34.427-21.047-57.398-21.047-0.603,0.01-60.172-0.38-60.172-33.96v-239.17h246.98"/>
<path fill="#029CDC" d="M238.58,8.407v230.76c0,5.196-1.994,9.328-6.276,13.002-3.99,3.422-9.788,6.254-17.234,8.418-13.862,4.027-28.133,4.141-28.255,4.141-25.394,0-47.868,8.328-63.289,23.456l-0.03,0.029-0.034-0.034c-15.417-15.123-37.892-23.451-63.265-23.451-0.143,0-14.412-0.113-28.274-4.141-7.447-2.164-13.245-4.996-17.235-8.418-4.282-3.674-6.276-7.806-6.276-13.002v-230.77h230.16"/>
<path d="M40.982,74.47v180.2c9.998,2.017,18.812,2.152,19.246,2.157,4.682,0.001,9.274,0.27,13.758,0.794v-183.15h-33.004z"/>
<path d="M106.99,74.47v192.63c5.962,2.923,11.496,6.438,16.504,10.522,5.008-4.082,10.539-7.597,16.5-10.518v-192.63h-33z"/>
<path d="M173,74.47v183.16c4.488-0.525,9.087-0.795,13.775-0.796,0.43-0.005,9.238-0.143,19.229-2.157v-180.2h-33.012z"/>
<path d="M41.044,74.47l0.019,180.28c10.058,1.964,18.642,2,19.089,2h0.561c4.549,0,8.99,0.246,13.334,0.731v-183.02c-11.97,0.01-23.153,0.01-33.003,0.01z"/>
<path d="M107.02,74.47v192.54,0.025c6.033,3.054,11.599,6.76,16.614,11.113,4.928-4.174,10.421-7.771,16.355-10.76v-192.92h-32.96z"/>
<path d="M172.97,74.47v183.17c4.444-0.54,8.994-0.808,13.604-0.808h0.326c5.111-0.049,12.076-0.657,19.04-2.019v-180.34h-32.97z"/>
<path d="M40.676,31.672h-8.438v9.138h8.155c4.793,0,6.821-1.493,6.821-4.75,0-2.926-1.83-4.388-6.538-4.388zm6.421,12.546l-0.039,0.095,10.749,12.332h-8.897l-8.194-10.851h-8.479v10.851h-7.353v-30.451h16.036c9.255,0,13.972,3.537,13.972,9.537,0,4.106-2.804,7.688-7.795,8.487z"/>
<path d="M77.967,34.025l-5.414,11.01h13.517l-5.286-11.01-1.323-3.003h-0.114l-1.38,3.003zm10.703,16.448h-18.782l-3.02,6.171h-7.87l16.329-30.451h8.152l16.447,30.451h-8.287l-2.969-6.171z"/>
<path d="M128.6,33.053c-2.469-0.771-5.667-1.418-9.383-1.418-8.798,0-11.887,3.004-11.887,9.705,0,7.063,3.205,9.946,12.065,9.946,3.478,0,6.601-0.685,9.205-1.744l0.94,5.356c-3.044,1.337-7.15,2.35-11.049,2.35-12.658,0-18.871-5.918-18.871-15.908,0-9.297,5.921-15.756,19.493-15.756,3.734,0,7.721,0.734,10.292,1.625l-0.8,5.844z"/>
<rect y="26.194" x="135.18" height="30.451" width="7.431"/>
<polygon points="179.22,56.645,159.41,37.767,157.1,35.456,156.98,35.493,157.06,38.779,157.06,56.645,150.36,56.645,150.36,26.194,156.54,26.194,175.07,44.313,177.4,46.66,177.48,46.574,177.4,43.325,177.4,26.194,184.05,26.194,184.05,56.645"/>
<path d="M222.1,55.344c-3.235,1.179-8.039,1.949-12.496,1.949-14.014,0-19.978-6.042-19.978-15.795,0-9.743,6.02-15.914,19.978-15.914,4.135,0,8.557,0.61,11.816,1.673l-0.736,5.916c-3.131-1.01-6.896-1.625-10.729-1.625-9.201,0-12.608,2.817-12.608,9.829,0,6.833,3.075,9.91,12.009,9.91,2.436,0,4.539-0.283,6.372-0.813v-9.664h6.372v14.534z"/>
</g>
</svg>