<svg xmlns:dc="http://purl.org/dc/elements/1.1/" xmlns:cc="http://creativecommons.org/ns#" xmlns:rdf="http://www.w3.org/1999/02/22-rdf-syntax-ns#" xmlns:svg="http://www.w3.org/2000/svg" xmlns="http://www.w3.org/2000/svg" xmlns:sodipodi="http://sodipodi.sourceforge.net/DTD/sodipodi-0.dtd" xmlns:inkscape="http://www.inkscape.org/namespaces/inkscape" version="1.1" id="svg2" xml:space="preserve" width="85.439995" height="106.92133" viewBox="0 0 85.439994 106.92133" sodipodi:docname="Logo RCF.svg" inkscape:version="0.92.2 5c3e80d, 2017-08-06"><metadata id="metadata8"><rdf:RDF><cc:Work rdf:about=""><dc:format>image/svg+xml</dc:format><dc:type rdf:resource="http://purl.org/dc/dcmitype/StillImage"/><dc:title/></cc:Work></rdf:RDF></metadata><defs id="defs6"/><sodipodi:namedview pagecolor="#ffffff" bordercolor="#666666" borderopacity="1" objecttolerance="10" gridtolerance="10" guidetolerance="10" inkscape:pageopacity="0" inkscape:pageshadow="2" inkscape:window-width="1280" inkscape:window-height="672" id="namedview4" showgrid="false" fit-margin-top="2" fit-margin-left="2" fit-margin-bottom="2" fit-margin-right="2" inkscape:zoom="1.6819299" inkscape:cx="162.14085" inkscape:cy="26.25265" inkscape:window-x="0" inkscape:window-y="1" inkscape:window-maximized="1" inkscape:current-layer="g10"/><g id="g10" inkscape:groupmode="layer" inkscape:label="bulletin-adhesion" transform="matrix(1.3333333,0,0,-1.3333333,-45.999732,1099.2464)"><g id="g1366"><path d="m 66.5198,745.7438 c -4.504,6.829 -6.909,6.746 -20.854,7.389 -9.323,0.964 -9.633,12.261 -9.633,13.131 0,0.87 -0.033,56.671 -0.033,56.671 h 61.08 c 0,0 -0.034,-55.801 -0.034,-56.671 0,-0.87 0.063,-11.846 -9.58,-13.131 -14.108,-0.651 -16.403,-0.561 -20.906,-7.389" style="fill:#ffffff;fill-opacity:1;fill-rule:nonzero;stroke:none" id="path484" inkscape:connector-curvature="0"/><path d="m 66.5198,747.7331 c -4.339,6.556 -10.251,5.817 -20.118,6.428 -9.866,0.61 -9.255,12.437 -9.255,13.272 0,0.835 -0.033,54.408 -0.033,54.408 h 58.851 c 0,0 -0.032,-53.573 -0.032,-54.408 0,-0.835 0.61,-12.662 -9.256,-13.272 -9.866,-0.611 -15.779,0.128 -20.118,-6.428" style="fill:#76afe3;fill-opacity:1;fill-rule:nonzero;stroke:none" id="path488" inkscape:connector-curvature="0"/><path d="m 66.5503,757.6308 c -0.989,0.611 -1.453,1.896 -1.871,2.86 -2.057,-0.836 -3.728,0.322 -4.21,0.932 2.892,0.193 3.535,2.25 3.535,2.25 v 11.473 c 0,0 -9.962,-0.032 -11.633,0 -1.864,-1.254 -1.864,-2.346 -2.057,-3.536 -1.542,1.221 -1.35,3.439 -1.028,4.307 -1.832,0.514 -2.539,1.318 -2.764,1.864 0.547,0.867 1.382,1.189 2.828,1.8 -0.932,2.185 0.546,3.952 0.964,4.274 0.193,-3.118 2.153,-3.535 2.153,-3.535 h 11.537 v 11.473 c -0.804,1.607 -2.121,1.96 -3.567,2.217 2.024,1.704 3.503,1.254 4.338,0.964 0.354,1.222 1.19,2.411 1.775,2.861 0.586,-0.45 1.422,-1.639 1.775,-2.861 0.835,0.29 2.314,0.74 4.339,-0.964 -1.447,-0.257 -2.764,-0.61 -3.568,-2.217 v -11.473 h 11.537 c 0,0 1.961,0.417 2.154,3.535 0.418,-0.322 1.896,-2.089 0.964,-4.274 1.446,-0.611 2.282,-0.933 2.828,-1.8 -0.225,-0.546 -0.932,-1.35 -2.764,-1.864 0.322,-0.868 0.515,-3.086 -1.028,-4.307 -0.193,1.19 -0.193,2.282 -2.057,3.536 -1.671,-0.032 -11.634,0 -11.634,0 v -11.473 c 0,0 0.643,-2.057 3.535,-2.25 -0.482,-0.61 -2.153,-1.768 -4.209,-0.932 -0.418,-0.964 -0.883,-2.249 -1.872,-2.86" style="fill:#ffffff;fill-opacity:1;fill-rule:nonzero;stroke:none" id="path492" inkscape:connector-curvature="0"/><path inkscape:connector-curvature="0" id="path496" transform="matrix(0.75000002,0,0,-0.75000002,0,841.89002)" d="M 56.935547,31.525391 V 48.75 h 3.40625 v -6.105469 h 4.306641 L 69.789062,48.75 h 4.435547 l -5.142578,-6.169922 c 0,0 5.462891,-0.57801 5.462891,-5.527344 0,-4.949333 -4.818724,-5.527343 -5.525391,-5.527343 z m 3.341797,3.341797 h 8.291015 c 0.128,0 2.699219,2.13e-4 2.699219,2.185546 0,2.185334 -2.634766,2.185547 -2.634766,2.185547 h -8.355468 z" style="fill:#ffffff;fill-opacity:1;fill-rule:nonzero;stroke:none;stroke-width:1.33333325"/><path d="m 71.2873,813.1362 2.314,0.964 c 0,0 -1.589,4.58 -7.061,4.58 -4.894,-0.097 -6.822,-4.724 -6.774,-6.894 0,0 -0.336,-6.556 6.774,-7.472 5.277,0.097 6.772,4.001 7.061,4.435 l -2.362,0.964 c -1.784,-4.145 -8.388,-4.001 -9.015,1.784 -0.193,4.097 6.46,7.327 9.063,1.639" style="fill:#ffffff;fill-opacity:1;fill-rule:nonzero;stroke:none" id="path504" inkscape:connector-curvature="0"/><path d="m 78.1325,817.9086 v -12.582 h 2.507 v 4.387 l 6.532,-0.024 0.024,2.531 h -6.556 v 3.181 h 9.303 v 2.507 z" style="fill:#ffffff;fill-opacity:1;fill-rule:nonzero;stroke:none" id="path508" inkscape:connector-curvature="0"/></g></g></svg>