<svg xmlns="http://www.w3.org/2000/svg" xmlns:xlink="http://www.w3.org/1999/xlink" version="1.1" id="Capa_1" x="0px" y="0px" width="541px" height="633.469px" viewBox="0 0 541 633.469" enable-background="new 0 0 541 633.469" xml:space="preserve">
<g>
	<path fill="#FA0F14" d="M270.391,624.294l45.541-204.3c-29.313,1.892-32.621-7.563-32.621-26.946l0.068-183.814h145.92   c17.336,13.081,3.473,30.257-7.563,33.407c-1.894,4.098,54.838,22.377,54.838-33.407h2.837l11.19,11.189l41.438-18.753v-0.241   l-41.438-18.751l-11.19,11.188h-2.837c0-55.785-56.729-37.504-54.838-33.407c11.033,3.151,24.896,20.328,7.563,33.407h-145.92   v-90.769c5.357-15.759,33.093-17.65,37.821,13.866c34.036-13.236,23.953-81.942-38.138-84.465c0,0,0.629-19.854-12.605-23.322   h0.091c-13.236,3.468-12.605,23.322-12.605,23.322c-62.089,2.522-72.174,71.229-38.136,84.465   c4.729-31.517,32.462-29.625,37.819-13.866v90.768H111.705c-17.334-13.079-3.469-30.256,7.562-33.407   c1.894-4.097-54.836-22.378-54.836,33.407h-2.837l-11.188-11.188L8.96,201.426v0.241l41.443,18.753l11.188-11.189h2.837   c0,55.785,56.729,37.505,54.836,33.407c-11.029-3.15-24.896-20.327-7.562-33.407h145.921v183.814   c0,19.385-3.311,28.838-32.619,26.946l45.541,204.299h-0.156L270.391,624.294L270.391,624.294z"/>
	<path d="M270.023,127.701c13.834-0.066,27.738-3.864,39.934-11.37c28.843,14.34,60.826,1.576,70.123-7.721l40.505,40.5   c-32.149,32.146-21.116,72.172-5.359,93.603c26.79,54.839,0.629,112.2-64.292,132.37c-31.521,4.472-61.146,13.78-80.999,23.952   h0.615c-19.855-10.172-49.48-19.48-80.997-23.952c-64.925-20.17-91.082-77.529-64.294-132.37   c15.757-21.431,26.788-61.457-5.357-93.603l40.498-40.5c9.297,9.297,41.288,22.062,70.125,7.721   c12.195,7.506,26.102,11.303,39.938,11.37H270.023L270.023,127.701z"/>
	<path fill="#FFFFFF" d="M270.023,134.476c13.957-0.146,27.984-4.022,40.173-11.525c28.841,14.34,59.646,2.521,68.94-6.776   l33.448,33.447c-32.149,32.147-19.505,73.789-3.746,95.219c26.558,48.616,1.894,104.713-60.744,125.043   c-31.521,4.467-57.825,11.898-77.679,22.072h-0.354c-19.854-10.174-46.162-17.605-77.677-22.072   c-62.64-20.33-87.302-76.428-60.75-125.043c15.758-21.431,28.405-63.072-3.743-95.219l33.446-33.447   c9.299,9.297,40.104,21.116,68.938,6.776c12.19,7.503,26.218,11.379,40.177,11.525H270.023L270.023,134.476z"/>
	<path d="M270.023,143.057c14.859,0.048,30.479-3.874,41.191-12.228c29.313,11.977,55.631,5.831,66.186-4.728l24.589,23.953   c-28.369,35.928-16.393,74.695-1.265,96.125c28.998,50.742-4.566,97.542-50.743,115.35c-31.514,4.471-59.37,11.016-79.224,21.188   h-1.035c-19.854-10.172-47.71-16.717-79.227-21.188c-46.171-17.809-79.736-64.608-50.742-115.35   c15.128-21.431,27.104-60.197-1.261-96.125l24.583-23.953c10.558,10.559,36.875,16.704,66.186,4.728   c10.713,8.354,26.335,12.275,41.195,12.228H270.023L270.023,143.057z"/>
	<path fill="#0B8935" d="M401.265,254.056c16.188,33.83,6.494,77.826-51.283,104.322c-31.514,4.472-59.302,9.455-79.155,21.34   h-1.171c-19.854-11.885-47.643-16.868-79.158-21.34c-57.777-26.496-67.473-70.494-51.278-104.322H401.265L401.265,254.056z"/>
	<path d="M321.51,312.496c0,28.38-22.784,51.39-50.894,51.39c-28.107,0-50.892-23.01-50.892-51.39   c0-28.383,22.783-51.393,50.892-51.393C298.726,261.104,321.51,284.112,321.51,312.496L321.51,312.496z"/>
	<path fill="#DD9020" d="M243.441,322.653c-9.589-8.736-9.616-26.49-7.042-38.281c0.712-3.283,1.619-6.498,2.546-10.172   c-11.275,9.172-18.48,23.162-18.48,38.832c0,6.635,1.293,12.965,3.637,18.758c0.853,0.113,1.716,0.174,2.601,0.174   C234.107,331.964,240.155,328.54,243.441,322.653L243.441,322.653L243.441,322.653z"/>
	<path fill="#DD9020" d="M294.952,326.481c-1.643,8.385-10.609,14.667-19.061,19.705c-8.709,5.195-22.752,7.879-33.316,8.371   c7.976,5.369,17.582,8.507,27.918,8.507c18.865,0,35.301-10.444,43.816-25.864C312.821,324.854,301.084,323.405,294.952,326.481   L294.952,326.481L294.952,326.481z"/>
	<path fill="#DD9020" d="M238.692,351.659c10.44,0.078,26.479-2.547,35.679-8.025c11.881-7.092,21.114-14.658,16.728-25.148   c-2.215-5.301-9.591-11.435-19.145-4.67c-0.607,7.832-10.275,14.734-17.218,13.85c-3.517-0.451-6.462-1.561-8.917-3.168   c-3.896,6.662-10.884,10.446-19.118,10.446c-0.407,0-0.812-0.014-1.215-0.034C228.645,341.401,233.174,347.109,238.692,351.659   L238.692,351.659L238.692,351.659z"/>
	<path fill="#DD9020" d="M270.365,281.854c8.274-3.428,19.745,1.029,28.481,5.91c8.251,4.609,16.864,13.214,21.588,22.246   c-1.552-26.084-23.092-46.783-49.513-47.005C263.032,268.186,264.108,277.961,270.365,281.854L270.365,281.854L270.365,281.854z"/>
	<path fill="#DD9020" d="M268.967,313.777c-10.245-7.472-9.616-19.231-5.207-26.212c1.08-1.712,2.34-3.061,3.739-4.091   c-5.956-4.754-7.152-13.979-1.379-20.286c-8.624,0.752-16.622,3.683-23.438,8.251c-2.186,9.394-4.966,17.977-4.828,27.79   c0.191,13.229,5.662,23.993,17.266,25.479C260.528,325.401,268.338,319.643,268.967,313.777L268.967,313.777L268.967,313.777z"/>
	<path fill="#DD9020" d="M320.32,317.634c-2.855-10.349-13.125-21.792-22.921-27.271c-12.093-6.75-25.311-10.423-31.124-1.208   c-3.73,5.913-4.25,15.678,4.216,22.044c11.508-7.946,20.694-0.219,23.354,6.137c0.848,2.032,1.278,3.972,1.36,5.813   c6.788-2.391,17.826-0.854,21.226,9.748C318.488,328.146,319.826,323.013,320.32,317.634L320.32,317.634L320.32,317.634z"/>
	<path fill="#FFFFFF" d="M140.154,252.167c1.388-2.702,2.938-5.332,4.645-7.877c3.895-6.32,7.506-13.688,10.138-21.747   l230.607,0.004c2.639,8.058,6.247,15.423,10.145,21.743c1.702,2.546,3.254,5.178,4.642,7.88L140.154,252.167L140.154,252.167z"/>
	<path d="M155.53,220.654c6.349-20.926,5.922-46.23-12.938-69.969l20.486-20.487c14.813,11.031,33.405,15.128,65.555,4.098   c14.021,8.509,27.733,12.212,41.679,11.977h-0.142c13.949,0.236,27.655-3.467,41.682-11.977c32.143,11.03,50.743,6.933,65.55-4.098   l20.487,20.487c-18.86,23.739-19.284,49.041-12.94,69.968L155.53,220.654L155.53,220.654z"/>
	<path d="M159.464,226.8h4.831c1.47,0,2.63,0.591,3.483,1.772c0.854,1.183,1.28,2.781,1.28,4.792c0,1.148-0.192,2.343-0.588,3.582   c-0.391,1.239-1.114,2.213-2.167,2.917l4.104,9.324h-3.614l-3.81-8.66h-0.354v8.66h-3.167V226.8L159.464,226.8z M162.631,230.777   v5.852h0.685c1.656,0,2.483-1.031,2.483-3.095c0-0.844-0.215-1.514-0.646-2.011c-0.431-0.496-1.025-0.745-1.791-0.745   L162.631,230.777L162.631,230.777z"/>
	<path d="M177.928,226.8h2.461l5.979,22.388h-3.181l-1.176-4.408h-5.629l-1.153,4.408h-3.162L177.928,226.8L177.928,226.8z    M179.17,234.137l-1.728,6.587h3.482L179.17,234.137L179.17,234.137z"/>
	<path d="M198.388,227.971v5.46c-1.588-1.43-2.979-2.145-4.172-2.145c-1.192,0-2.146,0.624-2.862,1.872s-1.071,2.927-1.071,5.037   c0,1.998,0.378,3.594,1.13,4.79c0.752,1.196,1.76,1.796,3.02,1.796c1.104,0,2.422-0.688,3.958-2.067v5.46   c-1.721,0.885-3.153,1.326-4.302,1.326c-1.972,0-3.646-1.105-5.026-3.317c-1.375-2.213-2.064-4.91-2.064-8.095   c0-3.24,0.702-5.983,2.105-8.229c1.403-2.245,3.11-3.37,5.12-3.37C195.519,226.487,196.906,226.983,198.388,227.971   L198.388,227.971z"/>
	<polygon points="200.613,226.8 203.781,226.8 203.781,249.188 200.613,249.188  "/>
	<polygon points="216.412,226.8 219.509,226.8 219.509,249.188 216.467,249.188 209.724,234.679 209.724,249.188 206.555,249.188    206.555,226.8 209.694,226.8 216.412,241.191  "/>
	<path d="M234.914,231.675l-2.101,3.003c-0.439-1.162-0.979-2.032-1.627-2.608c-0.646-0.576-1.321-0.865-2.027-0.865   c-1.145,0-2.138,0.665-2.979,1.993c-0.844,1.33-1.265,2.895-1.265,4.7c0,1.921,0.422,3.546,1.267,4.881   c0.844,1.333,1.861,2.001,3.054,2.001c0.646,0,1.271-0.249,1.868-0.748c0.602-0.498,1.082-1.433,1.446-2.801h-3.474v-4.368h6.759   v2.898c0,1.489-0.333,3.091-1.005,4.8c-0.67,1.713-1.554,2.964-2.646,3.753c-1.094,0.79-2.201,1.185-3.315,1.185   c-2.025,0-3.732-1.119-5.125-3.36c-1.395-2.241-2.09-5.009-2.09-8.307c0-3.128,0.718-5.799,2.15-8.017   c1.431-2.218,3.155-3.328,5.173-3.328C231.552,226.487,233.529,228.218,234.914,231.675L234.914,231.675z"/>
	<path d="M258.25,227.971v5.46c-1.588-1.43-2.979-2.145-4.17-2.145c-1.193,0-2.146,0.624-2.864,1.872   c-0.714,1.248-1.073,2.927-1.073,5.037c0,1.998,0.376,3.594,1.13,4.79c0.753,1.196,1.762,1.796,3.02,1.796   c1.104,0,2.425-0.688,3.96-2.067v5.46c-1.719,0.885-3.153,1.326-4.3,1.326c-1.976,0-3.648-1.105-5.026-3.317   c-1.377-2.213-2.066-4.91-2.066-8.095c0-3.24,0.703-5.983,2.105-8.229c1.403-2.245,3.11-3.37,5.122-3.37   C255.379,226.487,256.77,226.983,258.25,227.971L258.25,227.971z"/>
	<polygon points="260.714,226.8 263.881,226.8 263.881,244.352 268.183,244.352 268.183,249.188 260.714,249.188  "/>
	<path d="M270.402,226.8h3.119v13.677c0,1.273,0.232,2.295,0.697,3.067c0.458,0.771,1.066,1.157,1.825,1.157   c0.859,0,1.531-0.388,2.01-1.167c0.479-0.776,0.718-1.875,0.718-3.296V226.8h3.099v14.496c0,1.273-0.221,2.596-0.649,3.965   c-0.431,1.371-1.094,2.42-1.996,3.146c-0.896,0.729-1.898,1.092-3.008,1.092c-2.01,0-3.486-0.854-4.416-2.567   c-0.93-1.71-1.396-3.51-1.396-5.397L270.402,226.8L270.402,226.8z"/>
	<path d="M284.876,226.8h4.277c1.791,0,3.017,0.567,3.673,1.704c0.654,1.139,0.982,2.468,0.982,3.991   c0,0.965-0.123,1.781-0.354,2.446c-0.239,0.665-0.622,1.338-1.155,2.02c1.019,0.533,1.736,1.321,2.153,2.362   c0.424,1.041,0.636,2.151,0.636,3.334c0,2.058-0.465,3.661-1.388,4.809c-0.932,1.148-2.229,1.723-3.903,1.723h-4.922V226.8   L284.876,226.8z M288.041,230.544v4.913h0.725c0.54,0,0.991-0.26,1.354-0.777c0.36-0.521,0.547-1.162,0.547-1.928   c0-0.617-0.18-1.139-0.533-1.565c-0.362-0.429-0.807-0.643-1.34-0.643H288.041L288.041,230.544z M288.041,239.281v6.161h1.142   c1.743,0,2.618-0.967,2.618-2.9c0-1.048-0.212-1.853-0.636-2.415c-0.433-0.563-1.032-0.846-1.825-0.846H288.041L288.041,239.281z"/>
	<polygon points="307.687,226.8 315.938,226.8 315.938,231.128 310.859,231.128 310.859,235.692 315.938,235.692 315.938,240.061    310.859,240.061 310.859,249.188 307.687,249.188  "/>
	<polygon points="318.645,226.8 326.896,226.8 326.896,231.246 321.817,231.246 321.817,235.731 326.896,235.731 326.896,240.1    321.817,240.1 321.817,244.741 326.896,244.741 326.896,249.188 318.645,249.188  "/>
	<path d="M329.528,226.8h4.833c1.47,0,2.632,0.591,3.486,1.772c0.854,1.183,1.278,2.781,1.278,4.792c0,1.148-0.191,2.343-0.59,3.582   c-0.39,1.239-1.112,2.213-2.167,2.917l4.104,9.324h-3.609l-3.808-8.66h-0.355v8.66h-3.172V226.8L329.528,226.8z M332.698,230.777   v5.852h0.686c1.652,0,2.479-1.031,2.479-3.095c0-0.844-0.212-1.514-0.643-2.011c-0.433-0.496-1.025-0.745-1.791-0.745   L332.698,230.777L332.698,230.777z"/>
	<path d="M342.864,226.8h4.833c1.472,0,2.632,0.591,3.486,1.772c0.854,1.183,1.278,2.781,1.278,4.792   c0,1.148-0.198,2.343-0.589,3.582c-0.391,1.239-1.113,2.213-2.168,2.917l4.104,9.324h-3.609l-3.813-8.66h-0.351v8.66h-3.172V226.8   L342.864,226.8z M346.035,230.777v5.852h0.686c1.653,0,2.479-1.031,2.479-3.095c0-0.844-0.219-1.514-0.647-2.011   c-0.433-0.496-1.025-0.745-1.791-0.745L346.035,230.777L346.035,230.777z"/>
	<path d="M354.862,237.968c0-3.314,0.718-6.048,2.146-8.205c1.436-2.158,3.131-3.237,5.1-3.237c2.174,0,3.972,1.085,5.396,3.254   c1.422,2.167,2.133,4.908,2.133,8.22c0,3.292-0.704,6.022-2.112,8.198c-1.408,2.174-3.179,3.262-5.312,3.262   c-2.142,0-3.896-1.082-5.277-3.246C355.553,244.055,354.862,241.305,354.862,237.968L354.862,237.968z M362.266,231.012   c-1.237-0.033-2.229,0.615-2.987,1.947c-0.752,1.329-1.135,3.047-1.135,5.149c0,1.991,0.39,3.638,1.155,4.946   c0.771,1.309,1.75,1.962,2.919,1.962c1.235,0,2.233-0.646,2.994-1.937c0.759-1.29,1.135-2.994,1.135-5.108   c0-2.08-0.369-3.751-1.114-5.012C364.487,231.694,363.494,231.045,362.266,231.012L362.266,231.012z"/>
	<polygon points="372.335,226.8 375.507,226.8 375.507,244.352 379.807,244.352 379.807,249.188 372.335,249.188  "/>
	<polygon fill="#FFFFFF" points="244.862,162.819 296.395,162.819 296.395,191.656 244.862,191.656  "/>
	<path fill="#FFFFFF" d="M346.974,162.819h-50.579v-21.012c5.127-1.875,10.27-4.365,15.456-7.511   c14.014,4.809,25.45,6.742,35.123,6.48V162.819L346.974,162.819z"/>
	<path fill="#FFFFFF" d="M244.862,162.819h-50.584v-22.025c9.511,0.14,20.713-1.816,34.354-6.498   c5.443,3.303,10.84,5.882,16.222,7.788L244.862,162.819L244.862,162.819z"/>
	<polygon fill="#FFFFFF" points="194.277,191.656 244.862,191.656 244.862,220.654 194.277,220.654  "/>
	<polygon fill="#FFFFFF" points="296.395,191.656 346.974,191.656 346.974,220.654 296.395,220.654  "/>
	<path fill="#FFFFFF" d="M194.277,191.656v-28.837l-43.652-0.007c5.192,9.652,7.747,19.396,8.405,28.844H194.277L194.277,191.656z"/>
	<path fill="#FFFFFF" d="M346.974,191.656v-28.842h42.882c-5.188,9.65-7.745,19.392-8.408,28.842H346.974L346.974,191.656z"/>
</g>
</svg>