<svg xmlns="http://www.w3.org/2000/svg" xmlns:xlink="http://www.w3.org/1999/xlink" version="1.1" id="_x31_" width="260" height="313.16" viewBox="0 0 566.9 680.3" style="enable-background:new 0 0 566.9 680.3;" xml:space="preserve">
<style type="text/css">
	.st0{fill:#131E89;}
	.st1{fill:#FFFFFF;}
	.st2{fill:#D90F00;}
	.st3{fill:#FF1100;}
</style>
<g>
	<g>
		<path class="st0" d="M94.7,520.2C11.2,404.6,4.2,295.7,8.6,207.3c4.3-87,11.3-153.1,11.3-153.1s40.9-14.8,99.2-28.7    c37.2-8.8,100.3-17.6,164.4-17.6l0,0c64.1,0,127.2,8.8,164.4,17.6c58.3,13.9,99.2,28.7,99.2,28.7s7,66.2,11.3,153.1    c4.4,88.4-2.7,197.3-86.1,312.8c-76.7,106.1-188.8,152.3-188.8,152.3S171.4,626.3,94.7,520.2z"/>
		<path class="st1" d="M122,37.9c33.6-8,96-17.3,161.4-17.3c65.4,0,127.9,9.3,161.4,17.3c42.6,10.1,76,20.8,90.3,25.7    c2,20.1,7,76.1,10.4,144.4c0.6,11.4,1,23.9,1,37.4c0,30.9-2.3,66.8-10.8,105.4c-12.8,57.8-36.9,110.7-73.9,161.9    c-64.6,89.5-156.5,135.6-178.4,145.8c-21.9-10.1-113.8-56.3-178.4-145.8l0,0c-37-51.2-61.1-104.1-73.9-161.9    c-8.5-38.6-10.8-74.5-10.8-105.4c0-13.5,0.4-26.1,1-37.4c3.4-68.3,8.5-124.3,10.4-144.4C46,58.8,79.5,48,122,37.9z"/>
		<path class="st2" d="M283.5,308.7l252.6-92.9l0.4-0.2c-0.1-2.4-0.2-4.8-0.3-7.3c-1.5-30.4-3.3-58.2-5.1-81.6l-0.4,0.1l-247.2,90.9    "/>
		<path class="st3" d="M283.6,308.7L53.5,393.3l-0.6,0.3c-5-14.6-9.2-29.5-12.6-44.8c-2.8-12.8-5.1-25.7-6.8-39.1l0.3-0.1    l249.7-91.8"/>
		<path class="st3" d="M276.4,287.7"/>
		<path class="st2" d="M96.3,483l0.2,0.3c1.3,2,2.6,4.1,4,6.1c3.9,5.9,8,11.9,12.3,17.8C172.9,590.6,258.6,636,283.5,648    c24.9-12,110.5-57.5,170.8-140.9c36.2-50.1,59.9-101.9,72.3-158.4c1.9-8.4,3.5-16.9,4.8-25.5l0.1-0.3L96.3,483z"/>
		<path class="st3" d="M100.5,489.4c3.9,5.9,8,11.9,12.3,17.8C172.9,590.6,258.6,636,283.5,648l0-0.6V422.1l-0.5,0.2l-182.2,67    L100.5,489.4z"/>
		<path class="st0" d="M536.1,215.9L53.5,393.3l-0.6,0.3c9.6,28,22.3,54.9,38.3,81.3l0.2-0.1l441.1-162.2l0.4-0.1    c2.8-21.3,4.2-43.5,4.2-67c0-9.4-0.2-19-0.7-29.7L536.1,215.9z"/>
		<path class="st3" d="M530.3,117l0-0.4c-1.5-19.6-2.9-35.4-3.9-46c-17.1-5.6-46.8-14.7-83.7-23.5c-33.1-7.9-94.6-17-159.2-17    c-64.6,0-126.2,9.2-159.2,17l0,0C87.4,55.9,57.7,65,40.6,70.6c-2.3,24.2-6.7,75.8-9.8,137.8c-0.7,13.7-1,25.5-1,37    c0,18.9,0.9,37,2.7,54.4l0,0.2"/>
		<path class="st0" d="M445.1,147.5V61.9l0.4,0c18,4.4,34.1,8.8,47.8,12.8l0.5,0.1v54.7l0,0.8l-48.7,17.9L445.1,147.5z"/>
		<path class="st0" d="M352.1,181.8V47.1l0.5,0c17.2,1.6,33.2,3.6,47.5,5.9l0.6,0.1v110.8l0,0.7l-48.6,17.9L352.1,181.8z"/>
		<path class="st0" d="M259.1,216V44.3l0.6-0.1c7.8-0.3,15.8-0.4,23.8-0.4c8,0,15.9,0.1,23.7,0.4l0.7,0v153.9l0.1,0.7l-48.7,17.9    L259.1,216z"/>
		<path class="st0" d="M166.1,250.1v-197l0.5-0.1c14.2-2.2,30.3-4.3,47.4-5.8l0.8-0.1v185.2l0,0.8l-48.7,17.9L166.1,250.1z"/>
		<path class="st0" d="M73.1,284.3V74.9l0.5-0.2c13.7-4,29.8-8.4,47.7-12.8l0.5-0.1v204.7l0,0.7l-48.7,17.9L73.1,284.3z"/>
	</g>
	<g>
		<path class="st1" d="M238.2,540.8c0,0,0-27,0-35.7c-3.7,0-7.5,0-7.5,0v-5.9h13.4v41.6H238.2z"/>
		<path class="st1" d="M330,540.8c0,0,0-27,0-35.7c-3.7,0-7.5,0-7.5,0v-5.9h13.4v41.6H330z"/>
		<path class="st1" d="M267.6,520.3c-4.8,0-8.7-3.7-8.7-8.2s3.9-8.2,8.7-8.2c4.8,0,8.6,3.7,8.7,8.2    C276.4,515.6,273.2,520.3,267.6,520.3z M266.4,540.3c3.8-4.9,12.5-16.6,15-23.7c0.5-1.4,0.8-2.9,0.8-4.5c0-7.8-6.6-14.1-14.7-14.1    c-8.1,0-14.7,6.3-14.7,14.1c0,7.8,6.6,14.1,14.7,14.1c0.4,0,1.9-0.1,1.9-0.1c-1.2,1.8-3.3,4.6-5.5,7.5c-2,2.6-5.5,7.3-5.5,7.3h7.6    L266.4,540.3z"/>
		<path class="st1" d="M316.6,534.9c-5.1,0-16.1,0-22,0c0.4-2.1,1.2-3.4,3-5c3-2.5,5.9-4.1,8.4-5.4c2.5-1.3,4.8-2.6,6.8-4.5    c2.3-2.2,3.6-5.2,3.6-8.3c0-0.4,0-0.9-0.1-1.3c-0.4-3.9-2.7-7.3-6.2-9.4c-6-3.6-13.8-2.7-18.6,2.2c-2.5,2.5-3.4,5.5-3.5,7.9l0,0.4    h5.9l0-0.5c0.1-0.9,0.5-2.3,1.8-3.7c2.6-2.7,7.3-3.6,11.3-1.3c3.9,2.4,4.4,7.1,1.7,9.7c-3.2,3-8.6,4.3-15,9.6    c-5.4,4.5-5.4,8.7-5.4,15.4h28.2L316.6,534.9z"/>
		<path class="st1" d="M124.3,422.4c0,3.5,1.1,5.1,5.5,3.6c2.8-1,6.7-2.8,10.1-4.7l1.3,7.5c-3.9,2.3-7.4,4-11.3,5.4    c-9.8,3.6-14.2,0.2-14.3-7.1l-0.1-16.8c0-7.3,4.4-13.9,14.2-17.5c3.9-1.4,7.4-2.3,11.3-2.9l-1.2,8.4c-3.4,0.6-7.3,1.7-10.1,2.7    c-4.3,1.6-5.4,4.1-5.4,7.6L124.3,422.4z"/>
		<polygon class="st1" points="156.2,416.4 173.5,410.1 173.5,417.5 146.2,427.5 146.2,420.2 163.3,388.5 146.9,394.5 146.9,387.1     173.1,377.4 173.1,384.8   "/>
		<path class="st1" d="M222.7,400c-4.5,1.7-9.3,2.4-12.6,2l1.4-7.5c3.6-0.2,7.2-0.7,11.3-2.2c4.5-1.7,5.4-2.9,5.4-6.3    c0-3.6-0.2-4-6.6-3.1c-9.4,1.4-10.8-0.1-10.9-8.8c0-8,2.7-12.2,13.4-16.2c3.4-1.2,7.5-2.4,11.8-3l-0.9,7.9    c-4.5,0.9-7.3,1.5-10.8,2.8c-3.9,1.4-4.8,2.5-4.8,5.4c0,3.9,0.2,3.9,6.3,3.1c10.5-1.3,11.1,0.6,11.1,8.5    C237,390.9,234.5,395.7,222.7,400z"/>
		<polygon class="st1" points="259.7,353.6 259.8,385.8 251,389 250.9,356.9 240.5,360.7 240.4,352.7 270.2,341.7 270.2,349.8   "/>
		<path class="st1" d="M304.5,357.7c0,6.1-4.1,13.8-15.1,17.9c-11,4-15.1-0.7-15.1-6.8l-0.1-16.8c0-6.1,4.1-13.8,15.1-17.9    c11-4,15.1,0.7,15.1,6.8L304.5,357.7z M295.7,344.9c0-3.1-1.9-4.4-6.3-2.7c-4.4,1.6-6.3,4.3-6.3,7.4l0,15.2c0,3.1,1.9,4.4,6.3,2.7    c4.4-1.6,6.3-4.3,6.3-7.4L295.7,344.9z"/>
		<path class="st1" d="M318.9,350.9c0,3.5,1.1,5.1,5.5,3.6c2.8-1,6.7-2.8,10.1-4.7l1.3,7.5c-3.9,2.3-7.4,4-11.3,5.4    c-9.8,3.6-14.2,0.2-14.3-7.1l-0.1-16.8c0-7.3,4.4-13.9,14.2-17.5c3.9-1.4,7.4-2.3,11.3-2.9l-1.2,8.4c-3.4,0.6-7.3,1.7-10.1,2.7    c-4.3,1.6-5.4,4.1-5.4,7.6L318.9,350.9z"/>
		<path class="st1" d="M340.1,318l-0.1-1.9l10-3.7l0,16l12.6-4.6l0-16l8.8-3.2l0.1,40.2l-8.8,3.2l-0.1-16.2l-12.6,4.6l0.1,16.2    l-8.8,3.2l-0.1-36.9C341.3,317.5,340.1,318,340.1,318z"/>
		<path class="st1" d="M408.3,319.5c0,6.1-4.1,13.8-15.1,17.9c-11,4-15.1-0.7-15.2-6.8l-0.1-16.8c0-6.1,4.1-13.8,15.1-17.9    c11-4,15.1,0.7,15.1,6.8L408.3,319.5z M399.5,306.7c0-3.1-1.9-4.4-6.3-2.7c-4.4,1.6-6.3,4.3-6.3,7.4l0,15.2c0,3.1,2,4.4,6.3,2.7    c4.4-1.6,6.3-4.3,6.3-7.4L399.5,306.7z"/>
		<polygon class="st1" points="457.2,313.2 446,317.4 439.4,289.2 432.9,322.2 421.7,326.3 412,289.6 420.6,286.5 427.3,312.8     434,281.5 444.8,277.6 451.5,303.9 458,272.7 466.7,269.5   "/>
		<path class="st1" d="M475.6,268l0.4-1.9l13-4.8l12.1,35.8l-9.1,3.4l-2.1-7.1l-13.1,4.8l-2.1,8.6l-9.1,3.4l11-41.7    C476.7,267.6,475.6,268,475.6,268z M478.7,289.9l9-3.3l-4.5-15.2L478.7,289.9z"/>
		<path class="st1" d="M178.6,377.1l0-1.6l25.8-9.5l0,8l-15.8,5.8l0,7.4l14.5-5.3l0,8l-14.5,5.3l0,8.8l15.8-5.8l0,8l-24.5,9l-0.1-37    C179.8,376.8,178.6,377.1,178.6,377.1z M198.6,412.9l-13.2,4.9l2.5,3.6l10.2-3.8L198.6,412.9z"/>
		<path class="st1" d="M127.9,302.3l-0.1-1.5l18-6.6c9.8-3.6,13.4-0.9,13.5,6.9l0,5.1c0,5.2-1.8,9.3-5.8,12.6l9.8,10.6l-10.8,4    l-8.9-9.6l-5.3,2l0,12.9l-9.1,3.3l-0.1-37.5C129.1,302.5,127.9,302.3,127.9,302.3z M150.2,305.2c0-3.1-1.2-3.9-4.9-2.6l-7.2,2.6    l0,12.2l7.2-2.6c3.9-1.4,4.8-3.2,4.8-6.3L150.2,305.2z"/>
		<path class="st1" d="M166.8,288l-0.1-1.5l10.3-3.8l0.1,41.5l-9.1,3.3l-0.1-37.9C168,288.2,166.8,288,166.8,288z M178.3,302.6    l10.8-24.3l10.2-3.8L188.1,299l12.2,16.7l-10.2,3.8L178.3,302.6z"/>
		<path class="st1" d="M216.6,310.3c-4.7,1.7-9.6,2.5-13,2.1l1.5-7.8c3.7-0.2,7.4-0.7,11.6-2.3c4.7-1.7,5.6-3,5.6-6.5    c0-3.7-0.2-4.1-6.8-3.2c-9.8,1.4-11.2-0.1-11.2-9c0-8.3,2.8-12.6,13.9-16.7c3.5-1.3,7.7-2.5,12.2-3.1l-0.9,8.2    c-4.6,0.9-7.6,1.6-11.2,2.9c-4.1,1.5-5,2.6-5,5.6c0,4,0.2,4,6.6,3.2c10.9-1.3,11.5,0.7,11.5,8.8    C231.4,300.8,228.8,305.8,216.6,310.3z"/>
		<path class="st1" d="M302,238.4l0.5-1.9l13.4-4.9l12.5,37l-9.4,3.5l-2.2-7.3l-13.5,5l-2.2,8.9l-9.4,3.5l11.1-42.2    C303.1,238.3,302,238.4,302,238.4z M305.2,261.2l9.3-3.4l-4.7-15.7L305.2,261.2z"/>
		<polygon class="st1" points="452,223.2 440.5,227.4 433.6,198.3 426.9,232.4 415.3,236.7 405.3,198.8 414.2,195.5 421.1,222.7     428.1,190.4 439.1,186.3 446.1,213.5 452.8,181.3 461.8,178   "/>
		<path class="st1" d="M401.2,229.7c0,6.3-4.2,14.3-15.6,18.5c-11.4,4.2-15.6-0.7-15.7-7l-0.1-17.3c0-6.3,4.2-14.3,15.6-18.5    c11.4-4.2,15.6,0.7,15.7,7L401.2,229.7z M392,216.6c0-3.2-2-4.5-6.6-2.8c-4.5,1.7-6.5,4.4-6.5,7.6l0,15.7c0,3.2,2,4.5,6.6,2.8    c4.5-1.7,6.5-4.4,6.5-7.6L392,216.6z M392.4,192.6l-13.2,4.9l2.5,3.6l10.2-3.7L392.4,192.6z"/>
		<path class="st1" d="M333.1,226.9l-0.1-1.5l10.3-3.8l0.1,41.5l-9.1,3.3l-0.1-37.9C334.3,227.1,333.1,226.9,333.1,226.9z     M344.5,241.5l10.8-24.3l10.2-3.8l-11.3,24.5l12.2,16.7l-10.2,3.8L344.5,241.5z"/>
		<path class="st1" d="M251.7,256.8l-0.1-1.5l18-6.6c9.8-3.6,13.4-0.9,13.5,6.9l0,5.1c0,5.2-1.8,9.3-5.8,12.6l9.8,10.6l-10.8,4    l-8.9-9.6l-5.3,2l0,12.9l-9.1,3.3l-0.1-37.5C252.9,257,251.7,256.8,251.7,256.8z M274.1,259.7c0-3.1-1.2-3.9-4.9-2.6l-7.2,2.6    l0,12.2l7.2-2.6c3.9-1.4,4.8-3.2,4.8-6.3L274.1,259.7z"/>
	</g>
</g>
</svg>