<svg xmlns:dc="http://purl.org/dc/elements/1.1/" xmlns:cc="http://creativecommons.org/ns#" xmlns:rdf="http://www.w3.org/1999/02/22-rdf-syntax-ns#" xmlns:svg="http://www.w3.org/2000/svg" xmlns="http://www.w3.org/2000/svg" xmlns:sodipodi="http://sodipodi.sourceforge.net/DTD/sodipodi-0.dtd" xmlns:inkscape="http://www.inkscape.org/namespaces/inkscape" width="265.94376" height="266.1875" id="svg3198" version="1.1" inkscape:version="0.48.4 r9939" sodipodi:docname="rangers_badge.svg">
  <defs id="defs3200">
    <clipPath clipPathUnits="userSpaceOnUse" id="clipPath3023">
      <path inkscape:connector-curvature="0" d="m 119.449,59.009 0,-42.599 182.046,0 0,42.599" id="path3025"/>
    </clipPath>
  </defs>
  <sodipodi:namedview id="base" pagecolor="#ffffff" bordercolor="#666666" borderopacity="1.0" inkscape:pageopacity="0.0" inkscape:pageshadow="2" inkscape:zoom="1.64" inkscape:cx="95.591775" inkscape:cy="159.74333" inkscape:document-units="px" inkscape:current-layer="layer1" showgrid="false" fit-margin-top="0" fit-margin-left="0" fit-margin-right="0" fit-margin-bottom="0" inkscape:window-width="1680" inkscape:window-height="987" inkscape:window-x="-8" inkscape:window-y="-8" inkscape:window-maximized="1"/>
  <metadata id="metadata3203">
    <rdf:RDF>
      <cc:Work rdf:about="">
        <dc:format>image/svg+xml</dc:format>
        <dc:type rdf:resource="http://purl.org/dc/dcmitype/StillImage"/>
        <dc:title/>
      </cc:Work>
    </rdf:RDF>
  </metadata>
  <g inkscape:label="Layer 1" inkscape:groupmode="layer" id="layer1" transform="translate(-242.00938,-399.29656)">
    <g transform="matrix(6.25,0,0,-6.25,-504.54687,768.04656)" id="g3019">
      <g id="g3021" clip-path="url(#clipPath3023)">
        <path inkscape:connector-curvature="0" d="m 140.726,57.749 c -11.054,0 -20.017,-8.973 -20.017,-20.04 0,-11.067 8.963,-20.039 20.017,-20.039 11.055,0 20.02,8.972 20.02,20.039 0,11.067 -8.965,20.04 -20.02,20.04 z" style="fill:none;stroke:#ffffff;stroke-width:2.51999998;stroke-linecap:butt;stroke-linejoin:miter;stroke-miterlimit:4;stroke-opacity:1;stroke-dasharray:none" id="path3027"/>
      </g>
    </g>
    <path inkscape:connector-curvature="0" d="m 374.99063,407.11531 c -69.0875,0 -125.1063,56.08125 -125.1063,125.25 0,69.16875 56.0188,125.24375 125.1063,125.24375 69.09375,0 125.12495,-56.075 125.12495,-125.24375 0,-69.16875 -56.03125,-125.25 -125.12495,-125.25" style="fill:#1b458f;fill-opacity:1;fill-rule:nonzero;stroke:none" id="path3029"/>
    <path inkscape:connector-curvature="0" d="m 374.99063,413.45281 c -65.60005,0 -118.7688,53.2375 -118.7688,118.9125 0,65.66875 53.16875,118.9125 118.7688,118.9125 65.61875,0 118.78745,-53.24375 118.78745,-118.9125 0,-65.675 -53.1687,-118.9125 -118.78745,-118.9125" style="fill:#ffffff;fill-opacity:1;fill-rule:nonzero;stroke:none" id="path3031"/>
    <path inkscape:connector-curvature="0" d="m 374.99063,440.17156 c -50.85005,0 -92.08755,41.28125 -92.08755,92.19375 0,50.9125 41.2375,92.19375 92.08755,92.19375 50.8687,0 92.1,-41.28125 92.1,-92.19375 0,-50.9125 -41.2313,-92.19375 -92.1,-92.19375" style="fill:#1b458f;fill-opacity:1;fill-rule:nonzero;stroke:none" id="path3033"/>
    <path inkscape:connector-curvature="0" d="m 374.99063,445.42156 c -47.95625,0 -86.83755,38.93125 -86.83755,86.94375 0,48.03125 38.8813,86.94375 86.83755,86.94375 47.975,0 86.8562,-38.9125 86.8562,-86.94375 0,-48.0125 -38.8812,-86.94375 -86.8562,-86.94375" style="fill:#ffffff;fill-opacity:1;fill-rule:nonzero;stroke:none" id="path3035"/>
    <path inkscape:connector-curvature="0" d="m 374.99063,455.18406 c -39.53125,0 -71.5813,32.0875 -71.5813,71.675 0,39.5875 32.05005,71.675 71.5813,71.675 39.54375,0 71.59995,-32.0875 71.59995,-71.675 0,-39.5875 -32.0562,-71.675 -71.59995,-71.675" style="fill:#1b458f;fill-opacity:1;fill-rule:nonzero;stroke:none" id="path3037"/>
    <path inkscape:connector-curvature="0" d="m 335.90933,493.75281 c -4.7187,-4.05 -14.8312,-8.09375 -22.2562,-8.09375 m 20.2375,73.40625 c -4.71875,4.04375 -14.8375,8.10625 -22.24375,8.10625 m 19.54375,-33.26875 c -7.07505,3.38125 -17.2,6.4125 -28.98125,8.43125 m 1.675,-33.73125 c 0,0 11.8,6.74375 27.64375,8.09375 m 81.96245,-22.94375 c 4.7188,-4.05 14.84375,-8.09375 22.2563,-8.09375 m -20.24375,73.40625 c 4.725,4.04375 14.83745,8.10625 22.2562,8.10625 m -19.54995,-33.26875 c 7.07495,3.38125 17.2,6.4125 28.9937,8.43125 m -1.69375,-33.73125 c 0,0 -11.7937,6.74375 -27.63745,8.09375" style="fill:none;stroke:#ffffff;stroke-width:4.44999981;stroke-linecap:butt;stroke-linejoin:miter;stroke-miterlimit:4;stroke-opacity:1;stroke-dasharray:none" id="path3039"/>
    <path inkscape:connector-curvature="0" d="m 345.76563,528.37156 c -0.425,0.075 -0.8438,0.075 -1.1938,0 l 1.1938,0" style="fill:#e82b31;fill-opacity:1;fill-rule:nonzero;stroke:none" id="path3041"/>
    <path inkscape:connector-curvature="0" d="m 354.72188,528.37156 c -2.2,1.14375 -5.3063,1.575 -6.29375,1.475 0.4375,-0.175 0.5562,-0.85 0.5875,-1.475 l 5.70625,0" style="fill:#e51636;fill-opacity:1;fill-rule:nonzero;stroke:none" id="path3043"/>
    <path inkscape:connector-curvature="0" d="m 357.24058,528.37156 c -0.056,0.05 -0.119,0.075 -0.1685,0.1 0.01,-0.04 0.02,-0.075 0.02,-0.1 l 0.15,0" style="fill:#e82b31;fill-opacity:1;fill-rule:nonzero;stroke:none" id="path3045"/>
    <path inkscape:connector-curvature="0" d="m 368.80938,528.37156 c -0.1875,0.0875 -0.3875,0.075 -0.5875,0 l 0.5875,0" style="fill:#e82b31;fill-opacity:1;fill-rule:nonzero;stroke:none" id="path3047"/>
    <path inkscape:connector-curvature="0" d="m 403.80405,527.97598 c 0.231,1.4375 0.65,2.71875 1.40005,3.5125 -1.06255,2.49375 -6.68125,10.8875 -13.88755,6.68125 l -0.1875,0 c 0.0685,3.30625 -1.2,5.84375 -1.2,5.84375 -1.10625,4.98125 7.07495,3.8625 7.07495,3.8625 l 1.96875,0.3315 -0.5187,1.50625 1.4437,0.3375 -0.5187,1.575 c 0,0 1.30625,5.76875 0.77495,6.95 -3.99375,-3.35 -6.9437,3.53125 -4.31245,4.2625 2.6125,0.71875 -0.3375,4.91875 -1.25,4.91875 -0.8563,0.45 0.1935,2.63125 0.1315,3.5375 -0.069,0.925 0.78125,0.45 0,0.2625 -0.7938,-0.2 -2.56255,-2.29375 -2.68125,-3.46875 -0.8625,-0.1315 -1.3875,-0.99375 -2.1125,-1.76875 -0.444,1.04375 -2.2125,0.91875 -2.875,0.58125 -0.9188,0.4625 0.0625,2.75 -0.5813,3.8 -0.79995,-0.7125 -2.2312,-2.68125 -1.5062,-3.7375 -0.4625,-0.5875 -0.6625,-1.95625 -0.144,-2.74375 -0.7188,-0.0685 -0.51875,-0.4065 -1.2438,-1.325 -0.725,-0.9125 -2.41245,0.525 -3.07495,1.05625 -0.525,-1.56875 0.4435,-3.55 1.76875,-3.93125 -0.4625,-0.6625 0.725,-1.575 0.4,-2.24375 -0.325,-0.64375 -2.16875,-0.1875 -2.95625,-0.125 0.525,-0.91875 1.89375,-1.36875 2.7562,-2.025 0.8438,-0.6625 2.93755,-0.6 2.93755,-0.6 3.2125,-0.525 1.5062,2.04375 3.8125,2.29375 2.29375,0.269 2.03125,-2.48125 0.125,-4.075 -1.3687,-1.11875 -5.76875,-2.7375 -7.275,-3.06875 -1.5,-0.325 -3.075,0.98125 -3.075,0.98125 l 0.0625,-1.9 -1.5687,-0.2 c 0,0 0.4,-0.5875 0.5187,-2.09375 0.144,-1.50625 0.2625,-4.3875 -3.79995,-6.0375 -4.0563,-1.63125 -4.7,1.65 -3.2,3.475 1.5125,1.84375 0.25,6.89375 -0.72505,7.48125 -2.5562,-1.76875 -7.3312,2.6875 -6.8875,1.975 0.4625,-0.725 -0.381,-1.24375 -0.84375,-2.04375 -0.4625,-0.78125 -3.53745,1.25625 -4.9812,2.04375 0.4625,-0.475 -0.125,-1.9125 -1.43125,-3.21875 -1.32505,-1.3125 -4.3313,0.9875 -5.38755,1.4375 0.5938,-1.25 -0.6437,-4.1375 -1.36245,-4.65 -0.725,-0.525 -1.65,0.1935 -2.49375,0.45 0,-0.256 0.4,-1.3 1.44375,-2.74375 1.05,-1.44375 0.325,-3.55625 0.0625,-3.74375 -0.2625,-0.194 -1.6438,-0.1375 -2.35005,-0.069 0.2565,-0.9125 1.04375,-1.56875 2.41255,-1.56875 0,-1.9 4.05625,-1.76875 4.71875,-1.70625 0.65,0.0625 0.1875,0 0.1875,0 0,0 -0.256,-1.05 -0.78125,-1.56875 0.9188,-0.4 1.96255,0.1875 2.61255,1.2375 2.8312,-1.18125 3.35,3.2125 3.875,4.58125 4.78125,4.99375 5.5062,0.2125 4.5812,-0.58125 -4.18125,-2.95 -3.47495,-5.76875 -3.47495,-6.69375 0,-0.90625 -0.3815,-1.375 -1.3063,-1.375 0.4,-1.04375 1.9063,-1.58125 3.01255,-1.30625 5.96875,-5.96875 11.075,1.8375 11.8625,3.0125 0.78125,1.18125 1.7687,1.8375 1.8312,0.9875 0.075,-0.85 1.1813,-5.25 -2.9437,-5.90625 -2.63125,-0.4125 -2.91875,-1.5625 -2.9688,-2.45625 l 15.9063,0 c 0.6625,0.66875 1.4625,1.48125 2.4,2.45625 1.4125,1.49375 2.2437,3.08125 2.70625,4.64375 l 0.0935,-0.0565 c 1.96875,0.269 7.61255,1.84375 7.87505,-3.93125 -0.2625,-2.0875 -2.35625,-2.625 -3.4188,-1.45 -1.04375,1.1875 -3.26875,1.1875 -3.7937,-0.775 -0.0625,-0.2625 -0.1375,-0.55625 -0.2,-0.8875 l 12.56245,0" style="fill:#e51636;fill-opacity:1;fill-rule:nonzero;stroke:none" id="path3049"/>
    <path inkscape:connector-curvature="0" d="m 344.57183,528.37156 c -0.2935,-0.0565 -0.5375,-0.156 -0.72495,-0.294 -0.80005,-0.5875 -1.85,0 -3.1563,0.2625 0.78755,-1.05 0.144,-2.8875 -0.6437,-3.475 -0.80005,-0.59375 -2.1688,0.1875 -3.29375,0.725 -0.78125,-1.05625 1.44995,-4.2625 1.44995,-4.91875 -0.7062,-0.53125 -1.9562,-0.79375 -2.8187,-0.65625 0.4625,-0.85625 0.6625,-2.16875 2.29375,-2.36875 0.4,-0.65625 2.2375,-1.3125 3.27495,-1.4375 0,0 -0.525,-2.1 -1.1062,-2.49375 0.5812,-0.3935 2.03125,-0.331 3.0125,0.4625 2.61875,-1.5125 4,3.075 4.32495,4.00625 5.1688,3.73125 5.95005,-1.71875 5.76875,-2.30625 -1.50625,0.4 -3.5375,-1.9 -3.5375,-1.9 0,0 1.0438,-0.1315 1.8438,-0.65625 0,0 -1.725,-2.29375 -3.35,-2.10625 -1.65,0.2065 -2.7563,-2.2875 -3.21875,-3.08125 -0.4625,-0.78125 -0.0625,-0.0565 0.2,0 0.2625,0.0685 1.25,0.1375 2.42495,-0.125 1.175,-0.2565 -0.1315,-1.3125 -0.1315,-1.3125 0,0 -1.38125,-0.2 -3.07495,0.256 -1.71255,0.4625 -2.4313,-1.36875 -2.5,-2.1 -0.5188,-0.45 -1.63125,0.456 -2.4063,0.79375 0.119,-0.98125 1.02505,-2.35625 2.21255,-2.75625 l 0.131,-1.9 c 0,0 0.194,-2.21875 -0.131,-2.69375 -0.325,-0.45 -1.1875,-0.2565 -1.96875,-0.325 0.2625,-0.725 1.64375,-1.31875 2.43125,-1.18125 0.45,-1.56875 3.7187,-2.75625 4.46245,-2.94375 -0.2,-0.1935 -0.6625,-1.11875 -1.12495,-1.44375 0.84375,-0.3375 1.9687,-0.0625 3.15,0.45 1.3125,-0.194 3.4,0.65625 4.325,1.44375 0.381,0 0.0625,-1.44375 0.0625,-2.03125 0,0 0.3815,0.1375 1.3062,1.76875 0.925,1.65 0.181,5.125 -0.4,5.44375 0,0 0.3375,3.08125 -0.3875,3.35 -0.7188,0.2625 -0.7188,2.09375 1.10625,2.1625 1.85,0.0625 7.6812,4.39375 8.26245,4.525 0,0 2.1688,0.725 1.04375,-2.1 0,0 1.5063,0.206 2.95625,0.3375 1.44375,0.119 1.6438,-1.90625 1.16875,-2.3 -0.444,-0.4 -0.7062,-1.64375 -0.7062,-1.64375 -1.9125,0.625 -3.7375,-1.59375 -2.5125,-1.76875 1.38745,-0.206 4.3437,-1.9 5.3875,-2.425 1.06245,-0.525 2.61245,-0.525 1.4437,-1.31875 -1.1812,-0.78125 -7.1812,-0.9125 -8.22495,-0.2565 l -0.6,-3.6 c -0.144,-1.05 0.70625,-2.0375 2.40625,-2.43125 1.7,-0.4 3.14375,-1.7125 3.9312,-3.01875 2.75005,0 5.76255,-0.2625 7.47505,-1.58125 1.68745,-1.30625 1.30625,-0.7875 3.9187,-0.65 2.6313,0.1375 3.8,-1.96875 3.8,-1.96875 0.4,1.05 1.44375,4.2 0.2625,5.36875 1.44375,0.406 3.5375,0.5375 2.75005,9.31875 0.144,2.1 -0.3815,8.00625 1.70625,8.91875 -0.2565,1.3125 -1.70625,2.36875 -2.95005,1.9125 -3.2062,2.68125 0.4,3.99375 1.5688,4.45625 -0.2625,1.6375 -2.2125,2.81875 -3.60005,3.0125 1.4438,1.8375 0.525,5.31875 0.525,5.31875 l -1.96875,-0.7875 c -0.05,2.4625 0.075,2.5875 3.4438,6.0625 l -15.9063,0 c -0.025,-0.51875 0.02,-0.95625 -0.2435,-1.15 -0.2935,0.6875 -0.5812,1.0375 -0.9062,1.15 l -0.5875,0 c -0.80005,-0.269 -1.5813,-1.53125 -1.98125,-1.7375 -0.6438,-0.331 -1.9563,1.63125 -1.9563,1.63125 l -1.6437,-1.9 c -1.36875,-2.30625 -4.2813,1.26875 -5.40005,2.00625 l -0.15,0 c 0.0935,-0.725 -0.219,-1.04375 -0.419,-1.60625 -0.4,0.65 -1.11875,1.18125 -1.95,1.60625 l -5.70625,0 c 0.01,-0.3125 0.01,-0.60625 0.01,-0.81875 0,-0.65 0.125,-1.70625 -1.11875,-0.331 -0.60625,0.675 -1.40625,1.0375 -2.14375,1.15 l -1.1938,0" style="fill:#e51636;fill-opacity:1;fill-rule:nonzero;stroke:none" id="path3051"/>
    <path inkscape:connector-curvature="0" d="m 391.52813,528.37156 c -0.45,-2.24375 -0.45,-5.9875 4.9187,-6.33125 0.2625,-1.70625 1.16875,-6.425 -6.03125,-3.8 -0.381,-1.56875 -1.69995,-6.03125 3.28125,-6.30625 -0.3875,-2.0875 -1.17495,-10.1 3.1375,-15.3375 4.3375,-5.25 -1.82495,-7.34375 -2.99995,-6.81875 l 0.119,-0.3875 c 1.44995,-2.63125 8.525,-6.5625 10.09375,0.90625 0.2625,1.18125 0.1375,5.25 0.1375,5.25 1.8312,0 5.10625,1.96875 6.28125,3.675 -1.575,1.175 -6.5438,2.4875 -8.65,1.9625 2.4937,1.45 2.23125,2.23125 2.23125,4.59375 0,2.35625 -0.125,3.275 1.56875,3.54375 -1.56875,1.30625 -3.1375,1.8375 -4.58755,0.125 -1.42495,-1.69375 -3.1312,-1.4375 -3.1312,0.925 0,2.3625 2.0875,5.50625 2.0875,5.50625 1.9687,-1.84375 5.76875,-3.01875 7.2125,1.70625 0.52495,1.16875 -0.1375,4.98125 -0.1375,4.98125 -1.1812,-1.31875 -1.9687,-2.75 -3.27495,-1.31875 0.0935,1.525 -0.1,4.56875 0.306,7.125 l -12.56245,0" style="fill:#e51636;fill-opacity:1;fill-rule:nonzero;stroke:none" id="path3053"/>
    <path inkscape:connector-curvature="0" d="m 372.59058,492.26531 4.075,-0.125 -3.01245,1.9625 c -0.925,0 -2.75,-1.04375 -1.06255,-1.8375" style="fill:#1b458f;fill-opacity:1;fill-rule:nonzero;stroke:none" id="path3055"/>
    <path inkscape:connector-curvature="0" d="m 377.23438,611.37781 c -0.6563,-1.55 -1.30625,-3.05 -2.01875,-4.55 -0.73125,1.51875 -1.38125,3.0375 -2.00625,4.60625 l 4.025,-0.0565 z m 5.89375,4.98125 c -0.6938,-0.03 -1.3063,-0.075 -1.925,-0.0625 -0.6125,0 -1.2563,0.0625 -1.875,0.1125 -0.475,-1.29375 -1,-2.6125 -1.5688,-3.90625 -0.95,-0.005 -1.86245,-0.005 -2.8125,0 -0.7687,0 -1.52495,0.04 -2.2937,0.0625 -0.5688,1.3125 -1.03125,2.625 -1.4313,3.9625 -0.3435,-0.045 -0.675,-0.0875 -1.0437,-0.0875 -0.3375,0 -0.66875,0.075 -1.09375,0.1 1.05,-2.13125 4.24995,-9.00625 6.0625,-13.40625 0.2935,0.03 0.55,0.0875 0.8437,0.0875 0.294,-0.005 0.53755,-0.0625 0.83125,-0.1125 1.93755,4.3625 4.6,10.14375 6.3063,13.25" style="fill:#1b458f;fill-opacity:1;fill-rule:nonzero;stroke:none" id="path3057"/>
    <path inkscape:connector-curvature="0" d="m 348.67813,598.03406 c -0.6625,1.6 -1.2938,3.2125 -1.9125,4.84375 0.156,0.081 0.2935,0.15 0.45,0.206 1.81255,0.6875 3.1188,0.181 3.7688,-1.50625 0.78125,-2.1 -0.069,-2.7 -2.30625,-3.54375 z m -2.01875,5.66875 -0.181,-0.05 -0.2815,0.73125 c -0.74995,2.00625 -1.2375,3.39375 -1.70625,5.01875 -0.431,-0.2125 -0.975,-0.4685 -1.6625,-0.7375 -0.67495,-0.25 -1.25,-0.4 -1.71245,-0.55 0.7125,-1.525 1.2812,-2.875 2.03745,-4.89375 l 0.925,-2.4375 c 0.75,-2 1.22505,-3.3875 1.7063,-5.01875 0.4315,0.2 0.97495,0.475 1.66245,0.73125 0.73125,0.2685 1.66255,0.53125 3.05,1.05 2.06875,0.8 2.77505,1.2375 3.33125,1.95625 0.6313,0.84375 0.84375,1.825 0.444,2.875 -0.6437,1.7375 -2.2312,2.4125 -4.44375,2.09375 0.5688,2.5125 1.35625,5.15625 2.0938,7.75625 -0.6,-0.275 -1.2,-0.5625 -1.8125,-0.79375 -0.6188,-0.244 -1.2813,-0.419 -1.9125,-0.625 l -1.5375,-7.10625" style="fill:#1b458f;fill-opacity:1;fill-rule:nonzero;stroke:none" id="path3059"/>
    <path inkscape:connector-curvature="0" d="m 357.27188,606.13406 c 0.3375,-2.1125 0.53125,-3.575 0.6625,-5.25625 1.2875,0.2125 2.56875,0.5125 3.84375,0.73125 2.1375,0.3315 3.95625,0.6 4.55625,0.64375 -0.075,0.2125 -0.156,0.431 -0.2185,0.775 -0.0625,0.394 -0.045,0.56875 -0.045,0.85625 -1.63125,-0.3625 -4.21245,-0.91875 -4.86245,-1.025 -0.3375,1.3625 -0.55,2.71875 -0.78125,4.10625 1.8875,0.275 3.29375,0.456 4.93745,0.65625 -0.144,0.419 -0.194,0.5875 -0.2315,0.83125 -0.03,0.206 -0.02,0.381 -0.02,0.7875 -1.6375,-0.3875 -3.2562,-0.7125 -4.90625,-0.975 -0.119,0.79375 -0.275,1.60625 -0.4125,2.41875 -0.119,0.7875 -0.231,1.6125 -0.3065,2.36875 1.62505,0.269 3.3063,0.475 5,0.56875 -0.081,0.256 -0.156,0.444 -0.2185,0.8375 -0.0625,0.394 -0.0625,0.59375 -0.05,0.83125 -0.78125,-0.15 -1.78125,-0.394 -3.7813,-0.7125 -3.5375,-0.575 -4.1187,-0.625 -4.61245,-0.66875 0.4,-1.65 0.675,-3.0875 1.03125,-5.2 l 0.4125,-2.575" style="fill:#1b458f;fill-opacity:1;fill-rule:nonzero;stroke:none" id="path3061"/>
    <path inkscape:connector-curvature="0" d="m 388.83438,610.50281 c 0.2185,1.025 0.69375,3.31875 0.78745,3.64375 0.444,-0.0565 1.02505,-0.144 1.9063,-0.325 3.22495,-0.68125 4.875,-3.03125 4.0437,-6.925 -0.6437,-3.075 -3.01245,-4.56875 -5.9812,-3.9375 -1.03125,0.2065 -1.5688,0.3565 -2.2188,0.5625 0.0565,0.3625 0.53755,2.63125 0.7563,3.65 l 0.70625,3.33125 z m -3.8125,-2.28125 c -0.4625,-2.10625 -0.8,-3.53125 -1.275,-5.1625 0.475,-0.05 1.0562,-0.125 1.78125,-0.269 0.9562,-0.2 1.98125,-0.51875 3.87495,-0.93125 4.90625,-1.01875 8.58125,-0.3625 9.58125,4.3625 0.8813,4.1125 -1.94995,7.55 -6,8.4 -2.15,0.4625 -3.6437,0.675 -4.74995,0.90625 -0.7063,0.15 -1.2813,0.3375 -1.75005,0.4625 -0.2185,-1.66875 -0.481,-3.125 -0.925,-5.225 l -0.53745,-2.54375" style="fill:#1b458f;fill-opacity:1;fill-rule:nonzero;stroke:none" id="path3063"/>
    <path inkscape:connector-curvature="0" d="m 406.87813,602.24031 c 0.481,-1.81875 0.5375,-4.50625 0.65625,-6.60625 0.3125,-0.1 0.6375,-0.1875 0.9562,-0.3315 0.325,-0.1375 0.6,-0.3435 0.925,-0.525 -0.2935,1.7125 -0.8687,5.79375 -1.1562,8.58125 0.25,0.5625 0.481,1.15625 0.73745,1.73125 0.5188,1.15625 1.08125,2.33125 1.85,3.55625 -0.5687,0.225 -1.17495,0.4375 -1.74375,0.68125 -0.55,0.25 -1.10625,0.575 -1.65625,0.8625 -0.45,-1.15 -0.79995,-2.39375 -1.2937,-3.4875 -0.244,-0.5375 -0.4935,-1.0625 -0.76875,-1.59375 -2.43125,-1.69375 -6.40005,-4.4 -7.475,-5.11875 0.6125,-0.2375 1.2437,-0.456 1.8437,-0.7375 0.6,-0.2625 1.15625,-0.575 1.73755,-0.875 1.71245,1.29375 4.43125,3.33125 5.35,3.88125 l 0.035,-0.02" style="fill:#1b458f;fill-opacity:1;fill-rule:nonzero;stroke:none" id="path3065"/>
    <path inkscape:connector-curvature="0" d="m 432.08433,444.43406 c -0.475,-0.319 -0.8625,-0.5125 -1.1687,-0.71875 -0.4125,0.65 -0.84375,1.275 -1.44375,2.2125 -0.9063,1.45625 -1.96875,3.25625 -2.4938,4.0625 0.475,0.3315 0.8625,0.60625 1.45625,0.975 1.58755,1.0125 3.6688,0.75625 4.9438,-1.24375 1.35625,-2.1375 0.8625,-3.93125 -1.2938,-5.2875 z m 4.6188,-6.76875 c -0.7875,-0.5 -0.98755,-0.59375 -1.35625,-0.76875 -0.76875,1.0875 -1.64375,2.3375 -2.1313,3.125 -0.53125,0.83125 -0.9625,1.575 -1.46875,2.3625 l 1.21875,0.76875 c 1.5375,0.96875 3.675,0.975 4.9125,-0.98125 0.9313,-1.46875 0.9438,-3.16875 -1.17495,-4.50625 z m -8.6,1.63125 c 1.61245,-2.58125 2.6875,-4.38125 3.79375,-6.5125 0.57495,0.425 1.25,0.95625 2.14375,1.51875 1.5375,0.96875 3.3812,1.975 4.9187,2.95 3.2313,2.04375 4.7688,4.49375 3.1688,7.00625 -1.575,2.5 -4.9688,1.85 -6.78125,1.01875 l -0.02,0.05 c 1.5875,1.10625 4.15625,4.14375 2.38755,6.91875 -2.07505,3.29375 -5.9688,2.65625 -9.1688,0.63125 -1.41875,-0.9 -2.52495,-1.76875 -3.87495,-2.6125 -0.9688,-0.61875 -2.1875,-1.2875 -2.8,-1.6125 1.44995,-1.91875 2.61245,-3.65625 4.24375,-6.2375 l 1.98745,-3.11875" style="fill:#1b458f;fill-opacity:1;fill-rule:nonzero;stroke:none" id="path3067"/>
    <path inkscape:connector-curvature="0" d="m 318.08433,630.00281 c 1.2938,-2.10625 2.55005,-4.2125 3.80625,-6.35 -0.2125,-0.156 -0.394,-0.281 -0.5812,-0.394 -2.425,-1.4125 -4.4125,-1.04375 -5.7,1.1625 -1.61875,2.78125 -0.525,3.825 2.47495,5.58125 z m 4.14375,-7.5 0.25,0.15 0.5562,-0.975 c 1.5375,-2.625 2.525,-4.45625 3.56875,-6.625 0.58755,0.4 1.2813,0.925 2.1875,1.43125 0.9125,0.5375 1.70625,0.90625 2.33125,1.2125 -1.38125,1.975 -2.4875,3.74375 -4.0125,6.38125 l -1.8562,3.16875 c -1.5438,2.65 -2.5438,4.49375 -3.57505,6.63125 -0.5812,-0.381 -1.2875,-0.89375 -2.1937,-1.41875 -0.9875,-0.5875 -2.25,-1.15 -4.125,-2.24375 -2.7688,-1.625 -3.6625,-2.44375 -4.2875,-3.6 -0.6938,-1.30625 -0.78755,-2.75 0.025,-4.13125 1.33745,-2.275 3.7125,-2.83125 6.7875,-1.825 -0.2185,-3.68125 -0.75625,-7.58125 -1.2188,-11.4125 0.80005,0.5375 1.5875,1.0875 2.4188,1.5625 0.82495,0.4815 1.71875,0.9 2.5687,1.3625 l 0.575,10.33125" style="fill:#1b458f;fill-opacity:1;fill-rule:nonzero;stroke:none" id="path3069"/>
    <path inkscape:connector-curvature="0" d="m 298.27188,601.18406 c -0.9375,2.2125 -1.84375,4.35625 -2.64375,6.59375 2.27495,-0.725 4.50625,-1.53125 6.7312,-2.41875 l -4.08745,-4.175 z m -0.7875,-11.0875 c 0.6625,0.775 1.24375,1.4625 1.86245,2.1125 0.625,0.63125 1.32505,1.2375 2.00005,1.8375 -0.86255,1.775 -1.675,3.625 -2.44375,5.4875 0.9375,1 1.8625,1.9875 2.8125,2.95 0.7875,0.80625 1.56875,1.56875 2.36875,2.34375 1.925,-0.68125 3.7375,-1.48125 5.50625,-2.3625 0.325,0.4 0.6,0.8 0.9562,1.1625 0.35,0.369 0.75625,0.65625 1.2125,1.04375 -3.24375,1.00625 -13.53125,4.3875 -19.88745,6.78125 -0.244,-0.3375 -0.4625,-0.6625 -0.75005,-0.95625 -0.2935,-0.306 -0.6187,-0.51875 -0.9562,-0.76875 2.5375,-6.30625 5.84375,-14.78125 7.31875,-19.63125" style="fill:#1b458f;fill-opacity:1;fill-rule:nonzero;stroke:none" id="path3071"/>
    <path inkscape:connector-curvature="0" d="m 276.81563,591.51531 c -0.1625,-0.4565 -0.3375,-0.90625 -0.56875,-1.325 -0.2315,-0.419 -0.5063,-0.825 -0.8,-1.19375 1.59995,-6.1125 3.18125,-12.18125 4.73745,-18.375 -3.79995,2.06875 -10.3062,5.6125 -11.2562,6.40625 -0.1625,-0.4685 -0.3375,-0.9125 -0.5688,-1.3375 -0.231,-0.419 -0.51245,-0.80625 -0.80625,-1.1875 7.1875,-3.35625 10.3688,-5.0875 16.72505,-8.5375 0.1375,0.419 0.275,0.80625 0.4875,1.20625 0.2315,0.381 0.475,0.71875 0.72505,1.01875 -1.7688,5.95 -3.4125,12.1625 -4.9375,18.59375 1.8312,-0.91875 3.8125,-2.0125 5.5812,-2.99375 3.8438,-2.075 5.12505,-2.8875 5.9563,-3.45625 0.181,0.475 0.381,0.9625 0.6125,1.38125 0.2185,0.425 0.52495,0.8375 0.81875,1.21875 -0.77505,0.2375 -7.1563,3.18125 -12.03125,5.84375 -2.15,1.16875 -3.55005,2.09375 -4.675,2.7375" style="fill:#1b458f;fill-opacity:1;fill-rule:nonzero;stroke:none" id="path3073"/>
    <path inkscape:connector-curvature="0" d="m 466.36563,563.17156 c 2.44995,-6.9125 7.5812,-10.68125 12.81875,-8.83125 6.5187,2.3 7.85625,8.85 5.35,15.91875 -1.09375,3.0375 -2.38125,4.88125 -4.1188,6.70625 -0.7562,-0.64375 -1.51245,-1.275 -2.32495,-1.76875 l 0.15,-0.4315 c 1.9875,-0.71875 3.70625,-2.275 4.68125,-5.00625 1.31875,-3.7375 0.045,-8.525 -5.3438,-10.43125 -4.0875,-1.4375 -8.08745,0 -9.7312,4.6375 0,0 -1.35625,2.3125 0.444,7.1125 l -2.7813,-0.05 c 0,0 -0.69375,-4.40625 0.8563,-7.85625" style="fill:#1b458f;fill-opacity:1;fill-rule:nonzero;stroke:none" id="path3075"/>
    <path inkscape:connector-curvature="0" d="m 266.90938,498.99031 c 2.35625,0.79375 4.6812,1.54375 7.04375,2.28125 0.0935,-0.2375 0.1875,-0.444 0.25,-0.65625 0.83125,-2.69375 0,-4.54375 -2.4313,-5.29375 -3.075,-0.94375 -3.83745,0.356 -4.86245,3.66875 z m 8.24375,2.35 -0.0935,0.2685 1.08125,0.3315 c 2.90625,0.89375 4.9375,1.45 7.275,1.96875 -0.2625,0.6625 -0.6,1.45625 -0.90625,2.4625 -0.3065,1.0125 -0.4815,1.85625 -0.63125,2.55 -2.2313,-0.8875 -4.2125,-1.56875 -7.12505,-2.4625 l -3.53745,-1.1 c -2.9063,-0.89375 -4.91875,-1.45 -7.275,-1.96875 0.2625,-0.6625 0.59375,-1.45 0.90625,-2.4625 0.325,-1.1 0.6,-2.44375 1.23125,-4.51875 0.95,-3.0875 1.52495,-4.14375 2.5125,-5.00625 1.10625,-0.98125 2.49375,-1.39375 4.02495,-0.925 2.52505,0.775 3.6188,2.975 3.3375,6.2 3.5375,-1.05625 7.2063,-2.45625 10.83125,-3.775 -0.3435,0.9 -0.6937,1.79375 -0.9875,2.7 -0.275,0.91875 -0.4875,1.89375 -0.70625,2.825 l -9.93745,2.9125" style="fill:#1b458f;fill-opacity:1;fill-rule:nonzero;stroke:none" id="path3077"/>
    <path inkscape:connector-curvature="0" d="m 284.32183,468.16531 c -1.67495,-0.275 -3.01245,0.3435 -4.075,1.9875 -1.06245,1.6375 -0.83125,3.40625 0.2565,4.10625 3.37495,2.1875 7.8,-6.5125 12.98745,-3.1625 3.07505,1.9625 3.33755,6.175 0.5813,10.43125 -1.2438,1.925 -2.7688,3.23125 -3.78125,3.6875 -0.83125,-1.025 -1.47505,-1.80625 -2.40005,-2.65 l 0.3375,-0.51875 c 1.5063,0.5625 3.4438,0.075 4.86255,-2.1 1.34375,-2.09375 0.96875,-3.80625 -0.3125,-4.64375 -3.4438,-2.21875 -7.70005,6.35625 -12.8875,3.0125 -3.15,-2.0375 -3.0625,-5.99375 -0.98125,-9.19375 1.23125,-1.925 2.59995,-3.09375 3.95,-3.66875 0.5,0.775 0.925,1.325 1.70625,2.3125 l -0.244,0.4" style="fill:#1b458f;fill-opacity:1;fill-rule:nonzero;stroke:none" id="path3079"/>
    <path inkscape:connector-curvature="0" d="m 331.92188,434.04656 c -1.08755,-2.84375 -1.9063,-4.78125 -2.93125,-6.94375 1.76875,-0.65625 3.58745,-1.23125 5.35,-1.90625 2.92495,-1.1125 5.39995,-2.125 6.1687,-2.50625 0.075,0.325 0.119,0.65 0.3,1.1 0.206,0.54375 0.3565,0.75 0.55625,1.10625 -2.3187,0.74375 -5.9625,1.93125 -6.8562,2.275 0.5687,1.9125 1.2625,3.7375 1.98745,5.59375 2.58125,-1.0375 4.45005,-1.81875 6.68755,-2.78125 0.0935,0.61875 0.1625,0.8625 0.2875,1.20625 0.106,0.269 0.25,0.475 0.54375,0.98125 -2.32505,0.70625 -4.58755,1.48125 -6.84375,2.35 l 0.4875,1.29375 c 1.09375,2.85 1.91245,4.78125 2.95,6.95625 -0.68755,0.2 -1.5188,0.431 -2.5,0.8 -0.98755,0.381 -1.7563,0.76875 -2.3938,1.06875 -0.6687,-2.3 -1.37495,-4.2875 -2.4687,-7.14375 l -1.325,-3.45" style="fill:#1b458f;fill-opacity:1;fill-rule:nonzero;stroke:none" id="path3081"/>
    <path inkscape:connector-curvature="0" d="m 359.54683,419.79031 c -4.2875,0.80625 -6.1062,4.96875 -5.2437,9.58125 1.06245,5.70625 4.49375,7.1125 8,6.45 3.76875,-0.69375 6.54995,-4 5.4562,-9.8375 -0.84995,-4.6375 -4.1687,-6.95625 -8.2125,-6.19375 z m -0.181,-1.5375 c 6.62495,-1.25 12.4437,0.875 13.6437,7.3375 1,5.30625 -3.18745,10.55 -10.18125,11.85625 -6.59995,1.2375 -12.4625,-0.65625 -13.7187,-7.3625 -0.975,-5.26875 2.98125,-10.48125 10.25625,-11.83125" style="fill:#1b458f;fill-opacity:1;fill-rule:nonzero;stroke:none" id="path3083"/>
    <path inkscape:connector-curvature="0" d="m 390.80313,419.90281 c -4.3438,-0.3875 -7.21875,3.11875 -7.63755,7.7875 -0.51245,5.76875 2.40625,8.05625 5.9625,8.36875 3.8125,0.344 7.39375,-2.05625 7.91875,-7.975 0.4315,-4.68125 -2.1437,-7.81875 -6.2437,-8.18125 z m 0.231,-1.54375 c 6.73745,0.6125 11.74995,4.2375 11.175,10.76875 -0.4875,5.375 -5.9188,9.28125 -13.00625,8.6375 -6.68755,-0.6 -11.8313,-4.01875 -11.225,-10.79375 0.481,-5.34375 5.6875,-9.26875 13.05625,-8.6125" style="fill:#1b458f;fill-opacity:1;fill-rule:nonzero;stroke:none" id="path3085"/>
    <path inkscape:connector-curvature="0" d="m 411.13433,428.27781 c 0.35,-0.9875 0.6875,-1.90625 0.72505,-2.29375 -1.1688,-0.425 -3.75,-1.18125 -5.61255,-1.64375 0.2315,-0.3565 0.4125,-0.6875 0.55,-1.075 0.144,-0.3875 0.2125,-0.76875 0.2625,-1.1875 2.69375,1.0625 4.03125,1.6 7.75625,2.9375 3.7188,1.34375 5.07505,1.775 7.65625,2.61875 -0.2185,0.35 -0.4185,0.68125 -0.55625,1.075 -0.1315,0.3875 -0.2125,0.75625 -0.256,1.175 -1.5563,-0.75625 -4.01875,-1.8125 -5.21875,-2.25 -0.181,0.3375 -0.51875,1.2625 -0.85625,2.23125 l -2.30625,6.4125 c -1.04375,2.875 -1.68755,4.875 -2.31255,7.2 -0.6437,-0.294 -1.4312,-0.6625 -2.4187,-1.01875 -0.9938,-0.35 -1.825,-0.56875 -2.5,-0.75 0.9812,-2.19375 1.75,-4.15 2.7812,-7.025 l 2.30625,-6.40625" style="fill:#1b458f;fill-opacity:1;fill-rule:nonzero;stroke:none" id="path3087"/>
    <path inkscape:connector-curvature="0" d="m 453.09683,465.48406 c 0.98755,-2.175 1.95005,-4.29375 2.8125,-6.4875 -2.2875,0.65 -4.53745,1.3875 -6.78125,2.2125 l 3.96875,4.275 z m 0.4875,11.1125 c -0.65,-0.7875 -1.19375,-1.5 -1.81255,-2.15625 -0.6,-0.65625 -1.2937,-1.28125 -1.93745,-1.89375 0.8937,-1.75625 1.7875,-3.575 2.58745,-5.425 -0.9125,-1.01875 -1.8,-2.01875 -2.7437,-3.03125 -0.75,-0.8125 -1.51255,-1.5875 -2.2875,-2.3875 -1.93755,0.61875 -3.7688,1.36875 -5.5563,2.20625 -0.3185,-0.419 -0.5812,-0.81875 -0.9187,-1.19375 -0.3565,-0.3815 -0.7375,-0.675 -1.18755,-1.075 3.28125,-0.91875 13.62505,-4.00625 20.025,-6.23125 0.25,0.344 0.45,0.68125 0.73755,0.9875 0.275,0.3 0.6,0.525 0.9125,0.79375 -2.69375,6.225 -6.2063,14.6 -7.81875,19.40625" style="fill:#1b458f;fill-opacity:1;fill-rule:nonzero;stroke:none" id="path3089"/>
    <path inkscape:connector-curvature="0" d="m 466.74063,477.48406 c 2.67495,-1.425 4.5,-2.475 6.51875,-3.7625 0.281,0.65 0.6187,1.44375 1.10625,2.375 0.5125,0.9375 0.96875,1.65625 1.35625,2.25 -2.2,0.95625 -4.075,1.8875 -6.76875,3.31875 l -3.25625,1.7375 c -1.7875,0.95 -3.58755,1.95 -4.81875,2.6375 1.10625,2.125 2.35625,4.25 3.7312,6.3 -0.3625,0.125 -0.63745,0.194 -1.14375,0.4685 -0.4935,0.256 -0.71245,0.4375 -0.9687,0.65625 -0.5125,-1.025 -1.125,-2.40625 -2.5,-5 -2.4438,-4.59375 -2.90625,-5.31875 -3.2875,-5.91875 2.2,-0.95625 4.075,-1.88125 6.7562,-3.3125 l 3.27505,-1.75" style="fill:#1b458f;fill-opacity:1;fill-rule:nonzero;stroke:none" id="path3091"/>
    <path inkscape:connector-curvature="0" d="m 476.05938,497.54031 c 2.94995,-0.85 4.9375,-1.5 7.18125,-2.34375 0.1435,0.68125 0.3065,1.5375 0.59995,2.55 0.294,1.00625 0.6,1.8125 0.8625,2.475 -2.3562,0.481 -4.39995,1.00625 -7.32495,1.85625 l -3.56255,1.01875 c -1.925,0.575 -3.90625,1.16875 -5.2625,1.6 0.6625,2.29375 1.45005,4.625 2.3688,6.91875 -0.4,0.045 -0.67505,0.0565 -1.2125,0.2125 -0.5563,0.156 -0.8,0.306 -1.09375,0.456 -0.294,-1.11875 -0.6,-2.5875 -1.425,-5.40625 -1.43755,-4.99375 -1.75005,-5.79375 -2.0063,-6.45625 2.36255,-0.475 4.3875,-1.00625 7.3188,-1.85625 l 3.55625,-1.025" style="fill:#1b458f;fill-opacity:1;fill-rule:nonzero;stroke:none" id="path3093"/>
    <path inkscape:connector-curvature="0" d="m 470.12188,581.15281 c 2.63125,1.50625 4.48745,2.5 6.66245,3.54375 -0.406,0.58125 -0.9062,1.26875 -1.43125,2.19375 -0.52495,0.91875 -0.8812,1.69375 -1.1875,2.3375 -1.9687,-1.35625 -3.7687,-2.475 -6.41245,-3.9875 l -3.1813,-1.8625 c -1.7562,-0.99375 -3.55625,-2 -4.79995,-2.675 -1.1875,2.075 -2.32505,4.25625 -3.32505,6.50625 -0.306,-0.2435 -0.5062,-0.4375 -0.99995,-0.70625 -0.4935,-0.306 -0.76875,-0.381 -1.07505,-0.4875 0.5875,-0.98125 1.4313,-2.23125 2.89375,-4.775 2.59375,-4.5125 2.95005,-5.3 3.24375,-5.93125 1.9875,1.35625 3.7688,2.46875 6.40625,3.98125 l 3.2063,1.8625" style="fill:#1b458f;fill-opacity:1;fill-rule:nonzero;stroke:none" id="path3095"/>
    <path inkscape:connector-curvature="0" d="m 454.00313,597.65906 c 2.1687,1.9875 3.19995,3.025 4.6562,4.34375 2.12505,1.95 3.51255,3.13125 4.21875,3.7 -0.6437,0.56875 -1.2812,1.19375 -1.875,1.83125 -0.5687,0.63125 -1.13745,1.3375 -1.65625,2.025 -2.3312,-2.69375 -4.3937,-4.63125 -6.71245,-6.7625 -4.90625,-4.48125 -7.2125,-3.56875 -10.0125,-0.50625 -3.44375,3.76875 -0.206,7.2 3.51875,10.625 1.85,1.6875 3.75,3.28125 5.69375,4.85625 -0.4315,0.356 -0.8313,0.7125 -1.1813,1.125 -0.381,0.3875 -0.6812,0.8 -0.98745,1.2625 -1.0625,-1.23125 -3.76875,-4.025 -7.2438,-7.2 -4.6625,-4.26875 -4.4125,-8.4 -0.231,-12.96875 3.675,-4.03125 8.0437,-5.79375 11.8125,-2.33125" style="fill:#1b458f;fill-opacity:1;fill-rule:nonzero;stroke:none" id="path3097"/>
    <path inkscape:connector-curvature="0" d="m 429.67813,621.39656 c 0.4875,-0.3185 0.825,-0.54375 1.1437,-0.7625 -0.4125,-0.64375 -0.78125,-1.30625 -1.36875,-2.24375 -0.9187,-1.4625 -2.08745,-3.2 -2.5937,-4 -0.5,0.2875 -0.91875,0.5125 -1.525,0.88125 -1.58755,1.00625 -2.26255,2.99375 -1.00005,4.99375 1.35005,2.15625 3.18125,2.48125 5.3438,1.13125 z m 4.11245,7.06875 c 0.78755,-0.481 0.9563,-0.63125 1.2813,-0.8875 -0.6563,-1.15625 -1.40005,-2.49375 -1.9063,-3.275 -0.52495,-0.825 -0.99995,-1.55 -1.5125,-2.325 l -1.2062,0.75 c -1.5438,0.975 -2.46875,2.90625 -1.2375,4.8625 0.9187,1.46875 2.4437,2.23125 4.5812,0.875 z m 2.25,-8.4625 c 1.6125,2.575 2.7813,4.325 4.22505,6.24375 -0.6188,0.325 -1.40005,0.725 -2.2875,1.275 -1.5438,0.975 -3.24375,2.20625 -4.78755,3.16875 -3.24375,2.01875 -6.1375,2.3625 -7.70625,-0.15 -1.58125,-2.525 0.481,-5.29375 2.0188,-6.5625 l -0.03,-0.05 c -1.69375,0.96875 -5.5562,1.96875 -7.30625,-0.8125 -2.06245,-3.30625 0.1875,-6.5375 3.4,-8.55625 1.43125,-0.9125 2.68755,-1.53125 4.0438,-2.375 0.9687,-0.6125 2.09375,-1.41875 2.64375,-1.825 1.12495,2.13125 2.1875,3.925 3.8187,6.50625 l 1.96875,3.1375" style="fill:#1b458f;fill-opacity:1;fill-rule:nonzero;stroke:none" id="path3099"/>
    <path inkscape:connector-curvature="0" d="m 356.06558,497.62156 c 0.5313,-0.281 1.33125,-0.93125 2.32505,-0.5125 0.9875,0.4065 4.15625,2.8125 4.15625,2.8125 -0.73755,0.4125 -1.10625,1.45 -3.8125,-0.2625 l -2.6688,-2.0375" style="fill:#e51636;fill-opacity:1;fill-rule:nonzero;stroke:none" id="path3101"/>
    <path inkscape:connector-curvature="0" d="m 321.42183,565.33406 c 12.36255,14.95625 31.76255,24.575 53.5688,24.575 21.1187,0 40.5,-9.8875 52.91245,-24.0125 m -105.6375,-78.6625 c 12.40005,-14.3625 31.41875,-23.55625 52.72505,-23.55625 20.6562,0 39.65,9.44375 52.0812,23.08125 m -12.15,72.975 c 2.64375,-10.075 4.1188,-21.30625 4.1188,-33.15625 0,-12.0875 -1.5375,-23.5375 -4.28755,-33.76875 m -79.83125,0.04 c -2.75,10.21875 -4.2875,21.65625 -4.2875,33.73125 0,11.71875 1.44375,22.8375 4.0313,32.825 m 80.39375,-64.95 c -0.0625,-0.0815 -0.1375,-0.1625 -0.219,-0.256 -9.54995,-11.1125 -23.8875,-18.1875 -39.92495,-18.1875 -15.9188,0 -30.16255,6.975 -39.7125,17.9375 -0.156,0.1875 -0.325,0.381 -0.4875,0.5625 -0.1125,0.125 -0.206,0.25 -0.3125,0.381 m -0.231,63.4375 c 0.175,0.206 0.35,0.4065 0.51875,0.6125 9.5562,11.3125 24.01875,18.51875 40.225,18.51875 16.1937,0 30.65,-7.1875 40.20625,-18.4875 0.1375,-0.181 0.306,-0.369 0.4625,-0.55625" style="fill:none;stroke:#ffffff;stroke-width:4.44999981;stroke-linecap:butt;stroke-linejoin:miter;stroke-miterlimit:4;stroke-opacity:1;stroke-dasharray:none" id="path3103"/>
    <path inkscape:connector-curvature="0" d="m 263.97183,543.58406 c -1.32495,1.64375 -1.98745,3.86875 -1.41245,6.7125 0.78125,3.875 4.35,7.31875 9.95,6.18125 4.23125,-0.86875 6.875,-4.30625 5.88745,-9.125 -0.2125,-1.05625 -0.76875,-2.86875 -1.16245,-3.3125 -0.45,0 -1.11255,0.125 -1.8813,0.2875 -2.88125,0.5875 -4.0437,1.025 -4.53745,1.15625 -0.03,-0.419 -0.094,-1.06875 -0.3375,-2.35 -0.3065,-1.49375 -0.525,-2.1125 -0.66255,-2.50625 0.6,0.045 2.8313,-0.3125 4.53755,-0.65625 1.125,-0.231 2.53125,-0.55 2.91875,-0.69375 1.2187,2.58125 2.31245,5.3625 2.86875,8.11875 1.44375,7.1875 -0.98755,13.06875 -6.4313,14.18125 -6.78125,1.3875 -11.3062,-3.53125 -12.7812,-10.88125 -0.6438,-3.1625 -0.4935,-5.4125 0.0625,-7.875 0.9813,0.156 1.95,0.325 2.9063,0.325 l 0.075,0.4375" style="fill:#1b458f;fill-opacity:1;fill-rule:nonzero;stroke:none" id="path3105"/>
    <path inkscape:connector-curvature="0" d="m 266.90938,528.39656 c -3.0125,-0.3565 -5.10625,-0.54375 -7.5063,-0.64375 0.25,-1.86875 0.58755,-3.75625 0.80005,-5.625 0.3685,-3.10625 0.6437,-5.78125 0.65,-6.6375 0.331,0.1 0.6437,0.206 1.13125,0.256 0.5562,0.0625 0.81875,0.04 1.2187,0.025 -0.419,2.39375 -1.06245,6.1625 -1.1687,7.125 1.94995,0.3875 3.89375,0.6125 5.875,0.85625 0.275,-2.76875 0.4625,-4.8 0.6312,-7.23125 0.6188,0.2125 0.8438,0.275 1.2,0.3125 0.3,0.035 0.5563,0 1.13755,-0.03 -0.4625,2.39375 -0.83125,4.7625 -1.10625,7.16875 1.13745,0.1315 2.29375,0.3065 3.4437,0.4375 1.13755,0.1375 2.30625,0.2435 3.4,0.3125 0.294,-2.3875 0.4625,-4.8375 0.50625,-7.3 0.369,0.1 0.65,0.206 1.2,0.269 0.5688,0.0625 0.84375,0.035 1.18755,0.01 -0.1685,1.125 -0.45,2.60625 -0.80005,5.525 -0.59995,5.175 -0.6312,6.03125 -0.6625,6.74375 -2.35625,-0.481 -4.4312,-0.781 -7.4437,-1.1435 l -3.69375,-0.431" style="fill:#1b458f;fill-opacity:1;fill-rule:nonzero;stroke:none" id="path3107"/>
  </g>
</svg>