<svg xmlns:inkscape="http://www.inkscape.org/namespaces/inkscape" xmlns:sodipodi="http://sodipodi.sourceforge.net/DTD/sodipodi-0.dtd" xmlns="http://www.w3.org/2000/svg" xmlns:svg="http://www.w3.org/2000/svg" height="256.494588" viewBox="0 0 76.174 49.673" width="389.871774" version="1.1" id="svg948" sodipodi:docname="RB_Leipzig_2014_logo.svg" inkscape:version="1.1 (c68e22c387, 2021-05-23)">
  <defs id="defs952"/>
  <sodipodi:namedview id="namedview950" pagecolor="#ffffff" bordercolor="#666666" borderopacity="1.0" inkscape:pageshadow="2" inkscape:pageopacity="0.0" inkscape:pagecheckerboard="0" showgrid="false" inkscape:snap-global="true" showguides="true" inkscape:guide-bbox="true" inkscape:zoom="2.2385294" inkscape:cx="191.42031" inkscape:cy="80.186572" inkscape:window-width="1920" inkscape:window-height="1001" inkscape:window-x="-9" inkscape:window-y="-9" inkscape:window-maximized="1" inkscape:current-layer="svg948">
    <inkscape:grid type="xygrid" id="grid1030"/>
    <sodipodi:guide position="38.138675,0.85909092" orientation="1,0" id="guide1402"/>
  </sodipodi:namedview>
  <clipPath id="a">
    <path d="m94.67 0h747.67v481h-747.67z" height="100%" width="100%" id="path935"/>
  </clipPath>
  <g stroke-width="10.07" transform="matrix(.099306 0 0 .099306 -8.3842 1.3075)" id="g946">
    <path clip-path="url(#a)" d="m 832.46,204.35 c -20.78,-10.17 -56.92,-21.89 -56.92,-21.89 -1.55,-0.41 -4.67,-1.43 -4.67,-1.43 0,0 1.58,-2.34 2.03,-4.09 1.25,-4.49 1,-9.72 -1.9,-11.35 0,0 15.77,0.87 19.19,-0.46 9.7,-3.78 13.42,-16.79 10.01,-26 -1.78,-4.82 -9.37,-7.84 -10.93,-11.87 -1.48,-3.82 -2.45,-6.82 -6.51,-8.88 -6.55,-3.31 -23.14,-6.21 -30.44,-5.57 -6.16,0.54 -7.34,7.65 -11.15,9.29 -15.23,6.56 -22.02,3.48 -21.87,26.21 0,0 0,1.07 0.17,1.97 -5.51,-2.67 -19.29,-9.42 -25.67,-12.26 V 0.47 H 243.2 v 137.54 c -6.38,2.84 -20.16,9.59 -25.67,12.26 0.17,-0.9 0.17,-1.97 0.17,-1.97 0.15,-22.73 -6.65,-19.65 -21.87,-26.21 -3.8,-1.64 -4.99,-8.75 -11.15,-9.29 -7.3,-0.63 -23.88,2.26 -30.44,5.57 -4.06,2.06 -5.03,5.06 -6.51,8.88 -1.55,4.03 -9.15,7.05 -10.93,11.87 -3.41,9.21 0.31,22.22 10.01,26 3.42,1.33 19.19,0.46 19.19,0.46 -2.9,1.63 -3.15,6.87 -1.9,11.35 0.45,1.74 2.03,4.09 2.03,4.09 0,0 -3.13,1.03 -4.67,1.43 0,0 -36.14,11.73 -56.93,21.89 0,0 -24.92,11.71 5.98,9.47 1.5,0 24.66,-1.79 48.82,-5.38 l -0.15,1.36 c -0.03,7.81 1.67,7.77 8.16,10 l -0.21,1.44 c -8.14,1.65 -24.32,3.26 -29.95,7.03 -6.17,4.13 -23.03,0.93 -33.15,14.71 -2.66,3.62 -7.09,14.61 -4.49,18.19 4.27,5.84 28.71,14.39 31.9,14.46 7.64,0.17 8.42,-6.09 13.81,-9.8 2.59,-1.79 5.69,-0.59 8.56,-1.34 4.32,-1.15 6.72,-5.08 10.52,-7.06 2.22,-1.14 6.98,-2.24 10.01,-0.47 13.42,8.26 54.56,-2.22 68.84,-10.66 v 74.53 c 0,26.53 3.37,36.68 11.43,50.71 l 0.67,1.1 c 46.42884,68.27008 134.38626,102.28052 213.2,107.9 89.65,0 167.28,-39.22 212.99,-107.59 l 0.69,-1.07 c 8.2,-14.28 11.62,-24.53 11.62,-51.05 V 246.3 c 14.28,8.44 55.42,18.92 68.84,10.66 3.03,-1.77 7.79,-0.67 10.01,0.47 3.8,1.97 6.2,5.91 10.53,7.06 2.87,0.76 5.97,-0.45 8.56,1.34 5.39,3.7 6.18,9.96 13.81,9.8 3.19,-0.07 27.63,-8.62 31.9,-14.46 2.61,-3.58 -1.82,-14.58 -4.49,-18.19 -10.11,-13.77 -26.98,-10.58 -33.15,-14.71 -5.63,-3.76 -21.81,-5.38 -29.95,-7.03 l -0.21,-1.44 c 6.49,-2.24 8.19,-2.19 8.16,-10 l -0.15,-1.36 c 24.16,3.59 47.32,5.38 48.82,5.38 30.93,2.24 6,-9.47 6,-9.47 z" fill="#ffffff" id="path938" sodipodi:nodetypes="cccccccccsccccccccccccccccccccccccccccccccccscccccsccccccccccccccc"/>
    <path d="m446.52 269.57c-23.97 0-46.32-6.89-65.23-18.75 20.23 25.96 51.76 42.67 87.22 42.67 42.29 0 79.02-23.76 97.6-58.65l-.13-.04c-2.18-.6-5.43-1.88-9.19-3.36-4.22-1.66-11.91-4.69-14.53-5-.5.29-1.43 1.04-2.13 1.61-1.22.99-2.74 2.19-4.62 3.38-22.41 23.48-53.98 38.14-88.99 38.14z" fill="#dadada" id="path940"/>
    <path d="m681.93 320.83v-66.25h-12.36v66.25c0 23.53-2.73 29.07-8.2 38.63-41.86 62.6-112.63 96.82-192.87 96.82s-151-34.22-192.85-96.82c-5.48-9.56-8.21-15.1-8.21-38.63v-66.38h-12.37v66.38c0 25.01 3 32.86 9.86 44.8l.45.72c45.73 68.4 121.67 102.32 203.13 102.32 81.47 0 157.4-33.92 203.14-102.32l.44-.72c6.84-11.93 9.84-19.78 9.84-44.8zm-306.47-186.72c5.95-13.25 12.43-24.59 15.74-30.12-8.99 8.8-16.49 19.11-22.07 30.53 1.17 1 2.35 2.04 3.54 3.14.92-1.18 1.84-2.37 2.79-3.55zm191.22 260.44 20.54-12.88-4.63-7.39-12.86 8.07-18.43-57.95-4.43-7.09-20.54 12.88 4.63 7.39 12.86-8.07 18.43 57.94zm-10.12-249.52c-10.8-7.5-26.84-15.46-26.84-15.46-11.41 16.07-20.9 35.93-20.9 35.93 5.62 11.74 14.03 24.99 18.65 33.18 6.22-9.12 8.77-17.72 12.64-30.05 2.82-8.96 6.61-13.8 16.45-23.6zm-95.01 20.92s-13.79-21.96-28.22-38.34c0 0-30.4 13.56-41.6 19.39l-.5 8.3c.17.56 4.19 6.34 5.88 12.62l3.41 10.87c.4 1.23.77 2.34.77 2.34.76 2.23 1.81 5 3.08 7.86 1.15 2.6 2.48 5.29 3.95 7.74 1.17 1.96 2.62 3.75 4.34 5.25.05.04.09.08.14.12 1.53 1.33 3.34 2.28 5.3 2.82 5.26 1.46 11.17 3.01 17.6 4.56 0 0 19.18-30.59 25.85-43.53zm6.95-93.52c-12.46 0-24.43 2.09-35.61 5.9l21.03 16.6s25.67-2.43 48.73.53c3.29-5.45 4.99-10.04 5.83-12.92 24.36 11.53 43.63 32 53.67 57.15 1.9-1.83 3.82-3.57 5.71-5.17-17.96-36.76-55.7-62.09-99.36-62.09zm142.66 291.29 6.18-6.13-53.17-53.6-.33-.34-6.18 6.14 53.17 53.6zm4.34-58.6 21.06 13.28-3.63 5.77-49.5-31.22 3.64-5.77 6.67 4.21 4.65-7.37-4.31-2.72a12.039 12.039 0 0 0 -6.44-1.86c-4.22 0-8.06 2.11-10.28 5.64-3.56 5.65-1.86 13.15 3.79 16.73l44.8 28.24c1.93 1.22 4.16 1.86 6.44 1.86 4.22 0 8.06-2.11 10.29-5.64 3.56-5.65 1.85-13.16-3.81-16.73l-26.08-16.45-6.44 10.21 7.38 4.65zm-89.1 105.71-9.82-32.15 6.97-2.13a8.2 8.2 0 0 0 4.87-4.01 8.191 8.191 0 0 0 .59-6.29l-7.55-24.72c-1.07-3.5-4.23-5.85-7.87-5.85-.82 0-1.63.12-2.42.36l-15.31 4.68 22.05 72.19.14.45zm-12.38-40.5-7.27-23.81 6.52-1.99 7.27 23.81zm-22.86 47.52-6.58-75.69-8.68.76 6.58 75.69zm-32.83-7.41-15.42-1.83 2.93-24.73 11.57 1.38 1.03-8.66-11.57-1.38 2.93-24.73 15.42 1.83 1.03-8.66-15.89-1.89c-4.59-.55-8.62 2.75-9.15 7.22l-7.01 59.06c-.54 4.51 2.7 8.62 7.21 9.16l15.89 1.89zm10.17-116.95c42.29 0 79.02-23.76 97.6-58.65l-.13-.04c-2.18-.6-5.43-1.88-9.19-3.36-.17-.07-.37-.14-.54-.21-9.64 17.31-23.87 31.72-41.14 41.43l-8.81-24.78-47.86 1.3-18.74 26.29s7.84 5.89 21.9 10.86c-23.14-.24-44.47-7.86-61.86-20.56.57-.49 1.13-1 1.58-1.5 0 0-12.97-18.67-20.9-32.91-.06.03-.14.06-.2.08-3.76 1.48-7.01 2.76-9.19 3.36l-.13.04c18.59 34.89 55.32 58.65 97.61 58.65zm-51.34 110.4-14.68-5.06 21.93-63.57-8.23-2.84-24.78 71.81 22.92 7.9zm-51.8-56.6c.37.05.7.07 1.03.07 1.9 0 3.52-.84 5.08-2.66l15.5-17.99a8.167 8.167 0 0 0 1.99-5.99 8.178 8.178 0 0 0 -2.84-5.63l-12.12-10.45-49.6 57.56 12.12 10.45c1.5 1.29 3.41 2 5.38 2 2.4 0 4.68-1.05 6.25-2.87l14.89-17.28c2.35-2.74 3.1-5.01 2.32-7.21zm-6.8-.46-.21.24-16.47 19.11-5.64-4.87 16.67-19.35zm5.24-6.57-5.16-4.45 16.26-18.86 5.16 4.45zm-37.53-28.58 3.91 5.59-22.6 15.82c-1.72 1.21-2.99 3.24-3.75 4.74l-.13.26 5.2 7.42.36-.72c.85-1.74 1.65-3.39 3.32-4.56l20.49-14.34c2.97-2.08 4.24-4.09 4.03-6.41.71.28 1.51.5 2.41.5 1.33 0 2.69-.49 4.14-1.51l19.45-13.62a8.157 8.157 0 0 0 3.4-5.32c.38-2.16-.1-4.35-1.37-6.16l-9.18-13.11-62.23 43.57 4.99 7.13zm6.69-5.07.26-.18 20.66-14.46 4.27 6.11-.26.18-20.66 14.46zm336.61-179.78 12.37 5.75v-120.24h-426.87v120.13l12.37-5.8v-101.94h402.13z" fill="#001f47" id="path944"/>
  </g>
  <path id="path1160" style="fill:#dd0741;stroke:none;stroke-width:0.999999px;stroke-linecap:butt;stroke-linejoin:miter;stroke-opacity:1;fill-opacity:1" d="M 268.23438 65.791016 C 264.42938 65.65207 261.7793 67.789062 261.7793 67.789062 C 261.7793 67.789063 261.4441 68.124191 255.63672 71.474609 C 255.63672 71.474609 238.10256 86.216921 235.31055 91.130859 C 232.51854 96.044803 229.169 107.65971 227.60547 110.89844 C 226.04194 114.13717 225.37158 113.46811 223.36133 116.14844 C 221.35109 118.82876 218.22387 119.60924 217.21875 121.50781 C 216.21362 123.40638 220.67969 122.06641 220.67969 122.06641 C 220.67969 122.06641 219.45217 124.74805 223.47266 124.74805 C 227.49316 124.74805 228.38694 122.28974 230.17383 120.83789 C 231.96072 119.38604 232.07217 119.49877 235.19922 120.50391 C 238.32628 121.50902 245.58594 124.41211 245.58594 124.41211 C 245.58594 124.41211 251.17014 124.85941 252.95703 126.08789 C 254.74391 127.31638 255.86082 125.19474 256.64258 123.51953 C 257.42434 121.84432 255.18914 117.26492 256.5293 117.48828 C 257.86947 117.71164 255.30216 113.46709 253.62695 110.89844 C 251.95175 108.32979 253.17969 108.21875 253.17969 108.21875 L 263.11914 109.33594 C 263.11914 109.33594 264.79402 113.46827 264.45898 115.47852 C 264.12394 117.48877 261.89129 118.49225 260.43945 120.94922 C 258.9876 123.40619 261.10854 127.20322 263.23047 130.88867 C 265.3524 134.57413 266.02241 132.89879 267.58594 132.78711 C 269.14946 132.67543 271.271 133.34573 273.28125 134.57422 C 275.2915 135.8027 282.66256 137.81426 286.23633 137.25586 C 289.81011 136.69746 287.13125 135.24498 288.24805 133.12305 C 289.36486 131.00112 298.74577 133.45824 300.08594 132.45312 C 301.42611 131.44799 297.62753 131.44829 292.49023 129.88477 C 287.35293 128.32124 286.12512 126.86889 284.22656 123.85352 C 282.32799 120.83814 282.32755 122.84888 280.65234 121.84375 C 278.97713 120.83863 280.65292 118.71693 282.32812 116.81836 C 284.00332 114.9198 287.24189 116.03516 289.81055 116.03516 C 292.37919 116.03516 295.3953 112.79732 297.62891 116.37109 C 298.648 118.00165 298.89651 118.60451 298.86914 118.7832 C 299.24727 118.95681 299.79036 119.20898 300.64453 119.60938 C 304.21831 121.28459 312.28595 121.312 315.74805 121.61914 C 319.21014 121.92626 317.5918 125.64062 317.5918 125.64062 C 317.5918 125.64063 316.55876 125.44556 314.18555 125.05469 C 311.81234 124.66381 309.57908 125.08244 312.37109 127.42773 C 315.1631 129.77302 331.3551 133.90485 338.2793 134.35156 C 345.20348 134.79829 344.75663 133.68234 346.99023 133.45898 C 349.22384 133.23563 351.90417 134.90965 353.80273 135.69141 C 355.70131 136.47318 357.60037 136.02682 359.83398 136.80859 C 362.06759 137.59035 362.96186 139.82409 364.52539 141.72266 C 366.08891 143.62122 367.20529 143.39699 368.99219 142.61523 C 370.77906 141.83347 378.70933 138.37125 378.59766 137.70117 C 378.48598 137.03109 376.25138 133.68215 374.57617 132.90039 C 372.90096 132.11863 372.90039 130.88954 372.90039 129.99609 C 372.90039 129.10264 369.43869 128.76793 367.20508 128.65625 C 364.97147 128.54457 363.52053 129.43731 360.72852 128.87891 C 357.93651 128.3205 359.05273 126.31055 359.05273 126.31055 L 337.60938 122.17773 C 337.60937 122.17773 336.93967 120.16762 338.72656 120.2793 C 340.51344 120.39098 340.06641 118.49219 340.06641 118.49219 C 340.06641 118.49219 340.06714 116.3716 341.07227 115.58984 C 342.07738 114.80807 349.22461 116.14844 349.22461 116.14844 L 305.44531 104.98047 L 333.14258 109.11133 L 300.64453 101.18164 C 300.64453 101.18164 326.32982 104.86705 336.93945 106.76562 C 347.5491 108.6642 381.05469 114.47266 381.05469 114.47266 C 381.05469 114.47266 336.26938 101.74142 330.12695 99.507812 C 323.98453 97.274206 315.27344 94.705078 315.27344 94.705078 C 315.27344 94.705078 313.48671 93.253004 314.60352 92.917969 C 315.72033 92.582928 316.72531 89.233643 316.50195 88.228516 C 316.27859 87.223393 314.93852 87.222816 313.375 86.552734 C 311.81147 85.882653 283.7793 71.921875 283.7793 71.921875 C 283.7793 71.921875 274.62222 67.009029 269.93164 66.003906 C 269.34532 65.878266 268.77795 65.810865 268.23438 65.791016 z M 298.86914 118.7832 C 297.6652 118.23045 298.41016 118.60547 298.41016 118.60547 C 298.41016 118.60547 298.83652 118.99617 298.86914 118.7832 z M 342.26953 69.896484 C 341.36122 69.897988 340.53822 70.056428 339.88672 70.441406 C 336.41204 72.494628 331.83278 70.599844 329.9375 76.601562 C 328.04222 82.603281 332.14784 84.655547 335.30664 88.919922 C 338.46544 93.184307 341.46634 95.080078 337.67578 95.080078 C 333.88523 95.080078 329.9375 97.132812 329.9375 97.132812 C 337.0448 99.343976 340.83402 101.23862 343.20312 97.921875 C 345.57223 94.605135 343.20364 93.027416 343.51953 89.552734 C 343.83542 86.078057 351.10018 90.184081 353.78516 88.130859 C 356.47013 86.077643 358.83984 81.023437 358.83984 81.023438 C 358.83984 81.023438 353.62864 82.28586 353.4707 78.021484 C 353.31276 73.757099 351.73242 72.810547 351.73242 72.810547 C 351.73242 72.810547 346.20554 69.889969 342.26953 69.896484 z " transform="matrix(0.19538219,0,0,0.19538219,0,-0.22073841)"/>
  <g id="g23098" transform="matrix(-1,0,0,1,52.452641,-3.4294409)">
    <path id="path1160-3" style="fill:#dd0741;fill-opacity:1;stroke:none;stroke-width:0.195382px;stroke-linecap:butt;stroke-linejoin:miter;stroke-opacity:1" d="m 28.583514,16.063095 c -0.74343,-0.02715 -1.261208,0.390383 -1.261208,0.390383 0,0 -0.06549,0.06548 -1.200151,0.72009 0,0 -3.425862,2.880385 -3.971371,3.840481 -0.545509,0.960097 -1.19995,3.229443 -1.505436,3.862234 -0.305486,0.63279 -0.436462,0.502067 -0.829229,1.025756 -0.392765,0.523687 -1.003768,0.676179 -1.200151,1.047126 -0.196384,0.370946 0.676206,0.10914 0.676206,0.10914 0,0 -0.239835,0.523945 0.545697,0.523945 0.785534,0 0.960163,-0.48031 1.309289,-0.763976 0.349126,-0.283666 0.370902,-0.26164 0.981872,-0.06525 0.610972,0.196381 2.02938,0.763593 2.02938,0.763593 0,0 1.091053,0.08739 1.440179,0.327418 0.349125,0.240025 0.567349,-0.174506 0.720091,-0.501812 0.152742,-0.327306 -0.283976,-1.22204 -0.02213,-1.178399 0.261846,0.04364 -0.239761,-0.785669 -0.567067,-1.287537 -0.327304,-0.501869 -0.08739,-0.523564 -0.08739,-0.523564 l 1.941992,0.218279 c 0,0 0.327242,0.807384 0.261781,1.200151 -0.06546,0.392767 -0.501681,0.588829 -0.785345,1.068877 -0.283666,0.480048 0.130728,1.22192 0.545316,1.941991 0.414587,0.720074 0.545495,0.392742 0.850981,0.370922 0.305484,-0.02182 0.719995,0.109144 1.112762,0.349169 0.392767,0.240023 1.832941,0.633046 2.531192,0.523945 0.698253,-0.109101 0.174851,-0.39289 0.393054,-0.807477 0.218205,-0.414588 2.051068,0.06549 2.312913,-0.130893 0.261845,-0.196384 -0.480329,-0.196326 -1.484066,-0.50181 -1.003737,-0.305486 -1.243629,-0.589249 -1.614574,-1.178399 -0.370947,-0.589151 -0.371033,-0.196288 -0.698339,-0.392673 -0.327306,-0.196382 1.13e-4,-0.610925 0.327417,-0.981871 0.327305,-0.370945 0.960064,-0.153024 1.461934,-0.153024 0.501866,0 1.091161,-0.632616 1.527568,0.06564 0.199112,0.318582 0.247667,0.43637 0.242319,0.471283 0.07388,0.03392 0.17999,0.08319 0.34688,0.161421 0.698253,0.327306 2.274526,0.332662 2.950958,0.392671 0.676431,0.06001 0.360236,0.785726 0.360236,0.785726 0,2e-6 -0.201837,-0.03811 -0.66552,-0.11448 -0.463683,-0.07637 -0.900022,0.0054 -0.354513,0.463649 0.545509,0.458228 3.709137,1.265514 5.062002,1.352794 1.352862,0.08728 1.265555,-0.130754 1.701961,-0.174395 0.436408,-0.04364 0.960096,0.283435 1.331041,0.436177 0.370949,0.152744 0.741991,0.06553 1.178399,0.218277 0.436408,0.152742 0.611132,0.589175 0.916618,0.960122 0.305484,0.370945 0.523605,0.327134 0.872733,0.174392 0.349123,-0.152742 1.898556,-0.829198 1.876738,-0.960119 -0.02182,-0.130922 -0.458421,-0.785245 -0.785728,-0.937987 -0.327306,-0.152742 -0.327417,-0.392885 -0.327417,-0.567449 0,-0.174564 -0.676355,-0.23996 -1.112762,-0.261781 -0.436408,-0.02182 -0.719896,0.152606 -1.265405,0.0435 -0.545509,-0.109103 -0.327419,-0.501812 -0.327419,-0.501812 L 42.138153,27.08006 c -2e-6,0 -0.130849,-0.39274 0.218277,-0.370919 0.349125,0.02182 0.261783,-0.34917 0.261783,-0.34917 0,0 1.43e-4,-0.414325 0.196527,-0.567067 0.196381,-0.152744 1.592822,0.10914 1.592822,0.10914 l -8.553695,-2.182022 5.411553,0.807096 -6.34954,-1.54932 c 0,0 5.018448,0.720063 7.091381,1.09101 2.072936,0.370949 8.619332,1.505819 8.619332,1.505819 0,0 -8.750252,-2.487458 -9.950374,-2.923865 -1.200119,-0.436407 -2.902111,-0.938369 -2.902111,-0.938369 0,0 -0.349095,-0.283709 -0.13089,-0.349169 0.218205,-0.06546 0.41456,-0.719852 0.370919,-0.916236 -0.04364,-0.196383 -0.305466,-0.196496 -0.61095,-0.327418 -0.305486,-0.130922 -5.782473,-2.858609 -5.782473,-2.858609 0,0 -1.78913,-0.959883 -2.705586,-1.156266 -0.114557,-0.02455 -0.225411,-0.03772 -0.331614,-0.0416 z M 34.569,26.416824 c -0.235228,-0.107997 -0.08968,-0.03472 -0.08968,-0.03472 0,0 0.0833,0.07634 0.08968,0.03472 z m 8.479663,-9.551593 c -0.177467,2.93e-4 -0.338267,0.03125 -0.465558,0.106468 -0.678891,0.401163 -1.573597,0.03096 -1.943901,1.203584 -0.370304,1.172629 0.431861,1.573606 1.049035,2.406789 0.617173,0.833184 1.203495,1.203584 0.462887,1.203584 -0.740606,0 -1.511922,0.401068 -1.511922,0.401068 1.38864,0.432022 2.128986,0.802202 2.591866,0.154169 0.462882,-0.648032 1.02e-4,-0.95629 0.06182,-1.635181 0.06172,-0.67889 1.481124,0.123354 2.005721,-0.277809 0.524596,-0.401162 0.987595,-1.388664 0.987595,-1.388664 0,0 -1.018176,0.246655 -1.049035,-0.586528 -0.03086,-0.833185 -0.339628,-1.018124 -0.339628,-1.018124 0,0 -1.079854,-0.570629 -1.84888,-0.569356 z"/>
  </g>
</svg>