<svg xmlns="http://www.w3.org/2000/svg" xmlns:xlink="http://www.w3.org/1999/xlink" xmlns:serif="http://www.serif.com/" width="100%" height="100%" viewBox="0 0 607 147" version="1.1" xml:space="preserve" style="fill-rule:evenodd;clip-rule:evenodd;stroke-linejoin:round;stroke-miterlimit:2;">
    <g id="アートボード1" transform="matrix(0.900641,0,0,0.705882,9.02455,29.4037)">
        <rect x="-10.02" y="-41.655" width="673.069" height="207.817" style="fill:none;"/>
        <g transform="matrix(4.62633,0,0,5.90278,-6.58925,-73.8393)">
            <path d="M117.383,20.086L117.383,31.59C117.09,36.149 110.387,36.149 110.094,31.59L110.094,20.086L103.754,20.086L103.754,32.836C103.754,37.142 108.219,40.633 113.715,40.633C119.211,40.633 123.676,37.142 123.676,32.836L123.676,20.086L117.383,20.086ZM138,6.412L138,39.892L144.375,39.892L144.375,6.412L138,6.412ZM127.176,39.892L133.551,39.892L133.551,6.412L127.176,6.412L127.176,39.892ZM95.953,22.477C97.719,20.892 98.737,18.638 98.766,16.267C98.762,14.129 97.938,12.076 96.464,10.528C94.964,8.856 92.25,7.918 88.612,7.918L77.707,7.918L77.707,39.892L91.793,39.892C97.184,39.809 101.543,35.731 101.543,30.735C101.535,27.099 100.254,24.5 95.953,22.477ZM90.612,34.322L84.512,34.322L84.512,13.431L88.762,13.431C90.671,13.52 92.171,15.106 92.151,17.017C92.151,18.888 90.632,20.403 88.762,20.399L86.55,20.399L86.55,26.145L90.612,26.145C96.085,26.145 96.085,34.349 90.612,34.349L90.612,34.322ZM21.487,17.384C21.464,14.86 20.438,12.447 18.632,10.677C16.832,8.908 14.397,7.927 11.871,7.951L0.203,7.951L0.203,39.892L6.987,39.892L6.987,13.431L10.5,13.431C12.882,13.349 14.871,15.235 14.91,17.619C14.805,20.004 12.8,21.869 10.41,21.793L8.835,21.793L8.835,29.438L15.585,39.892L23.535,39.892L14.16,26.552C18.43,25.559 21.46,21.767 21.487,17.384ZM33.352,19.259C27.565,19.415 22.957,24.149 22.957,29.934C22.957,35.724 27.565,40.457 33.352,40.615C37.8,40.615 41.266,38.602 43.059,35.455L37.875,33.059C37.125,34.576 35.565,35.52 33.878,35.481C31.569,35.582 29.621,33.787 29.535,31.477L29.535,31.258L43.589,31.258C43.632,30.832 43.651,30.408 43.647,29.977C43.746,23.047 39.18,19.259 33.352,19.259ZM29.512,27.622C29.414,25.403 31.188,23.552 33.41,23.552C35.628,23.552 37.401,25.403 37.305,27.622L29.512,27.622ZM69,39.892L69,6.412L62.617,6.412L62.617,22.258C60.921,20.547 58.612,19.58 56.203,19.567C50.953,19.567 46.664,24.24 46.664,30C46.664,35.758 50.94,40.477 56.203,40.477C58.637,40.457 60.957,39.457 62.647,37.711L62.647,39.961L69,39.892ZM58.012,35C55.434,35 53.332,32.707 53.332,29.879C53.332,27.052 55.434,24.727 58.012,24.727C60.594,24.727 62.699,27.024 62.699,29.856C62.699,32.692 60.602,35 58.012,35Z" style="fill:rgb(210,0,60);fill-rule:nonzero;"/>
        </g>
    </g>
</svg>