<svg xmlns="http://www.w3.org/2000/svg" xmlns:xlink="http://www.w3.org/1999/xlink" version="1.0" id="HQFL" x="0px" y="0px" width="308.679px" height="422.221px" viewBox="0 0 308.679 422.221" enable-background="new 0 0 308.679 422.221" xml:space="preserve">
<path fill="#F2BC4F" d="M0,0v226.858l0.016,0.326C5.78,347.109,123.248,407.748,146.737,418.683l7.608,3.538l7.598-3.538  c23.494-10.932,141.017-71.535,146.72-191.074l0.016-0.318V0H0z"/>
<path fill="#FFFFFF" d="M13.507,13.349v213.026C18.9,338.552,130.185,395.917,152.438,406.282l1.902,0.88l1.898-0.88  c22.263-10.365,133.596-67.694,138.93-179.475l0.004-213.458H13.507z"/>
<path fill="#F2BC4F" d="M72.043,72.045c0,8.496,0,152.435,0,152.435c3.076,57.883,51.826,97.21,82.314,116.27  c30.49-19.029,79.242-58.261,82.281-116.065c0,0,0-141.28,0-152.64C228.32,72.045,80.362,72.045,72.043,72.045z"/>
<path fill="#A9444B" d="M85.553,85.555c0,22.354,0,137.416,0,138.387c2.633,47.793,41.439,82.198,68.81,100.68  c27.403-18.478,66.273-52.871,68.785-100.645c0,0-0.02-119.706-0.02-138.422C202.401,85.555,106.281,85.555,85.553,85.555z"/>
<path fill="#F2BC4F" d="M120.71,264.078l1.149-1.903h3.746v16.705h-1.995v-14.802H120.71z"/>
<path fill="#F2BC4F" d="M139.434,278.197l4.456-6.006l-0.043-0.047c-0.492,0.244-1.044,0.311-1.62,0.311  c-2.771,0-4.854-2.48-4.854-5.137c0-3.062,2.482-5.499,5.517-5.499c2.883,0,5.564,2.394,5.564,5.342  c0,1.658-0.841,3.102-1.816,4.411l-5.695,7.664L139.434,278.197z M146.458,267.183c0-1.776-1.596-3.505-3.414-3.505  c-1.991,0-3.675,1.6-3.675,3.505c0,1.994,1.814,3.499,3.545,3.499C145.04,270.682,146.458,268.999,146.458,267.183z"/>
<path fill="#F2BC4F" d="M157.183,264.078l1.156-1.903h3.742v16.705h-1.993v-14.802H157.183z"/>
<path fill="#F2BC4F" d="M175.909,278.197l4.457-6.006l-0.047-0.047c-0.487,0.244-1.038,0.311-1.619,0.311  c-2.768,0-4.851-2.48-4.851-5.137c0-3.062,2.484-5.499,5.52-5.499c2.88,0,5.562,2.394,5.562,5.342c0,1.658-0.841,3.102-1.82,4.411  l-5.691,7.664L175.909,278.197z M182.937,267.183c0-1.776-1.596-3.505-3.416-3.505c-1.993,0-3.675,1.6-3.675,3.505  c0,1.994,1.815,3.499,3.541,3.499C181.514,270.682,182.937,268.999,182.937,267.183z"/>
<path fill="#A9444B" d="M261.684,108.271h0.299c1.659,4.99,4.009,7.144,9.587,7.144c9.296,0,12.818-7.046,12.818-15.363V83.857  h-36.89v13.111h11.839v0.246l-11.839,5.873v15.459l11.989-8.022C260.56,109.788,261.149,108.956,261.684,108.271z M268.044,96.968  h6.265v1.03c0,2.297-0.346,4.304-3.18,4.304c-2.739,0-3.085-2.201-3.085-4.402V96.968z"/>
<polygon fill="#A9444B" points="257.58,135.284 261.196,135.284 261.196,145.605 270.787,145.605 270.787,135.284 274.309,135.284   274.309,146.584 284.387,146.584 284.387,121.78 247.498,121.78 247.498,146.976 257.58,146.976 "/>
<path fill="#A9444B" d="M253.468,188.12c4.702,4.355,9.736,4.355,15.754,4.454v-20.697h-8.706v6.069  c-2.252-0.637-3.23-3.327-3.23-5.432c0-4.354,3.816-6.898,7.88-6.898c4.45,0,8.557,2.644,8.557,7.437  c0,2.154-0.979,4.06-2.834,5.088l4.599,12.524c6.309-2.885,9.488-11.691,9.488-18.103c0-11.595-7.24-20.449-19.276-20.449  c-11.839,0-18.788,9.1-18.788,20.354C246.913,178.189,249.216,184.207,253.468,188.12z"/>
<path fill="#A9444B" d="M265.701,196.769c-11.839,0-18.788,9.1-18.788,20.353c0,5.723,2.303,11.741,6.556,15.652  c4.702,4.355,9.736,4.355,15.754,4.458v-20.699h-8.706v6.069c-2.252-0.637-3.23-3.325-3.23-5.432c0-4.356,3.816-6.899,7.88-6.899  c4.45,0,8.557,2.646,8.557,7.437c0,2.154-0.979,4.061-2.834,5.091l4.599,12.523c6.309-2.886,9.488-11.69,9.488-18.105  C284.977,205.623,277.736,196.769,265.701,196.769z"/>
<rect x="243.628" y="245.049" transform="matrix(-0.9705 -0.241 0.241 -0.9705 455.7365 559.2495)" fill="#A9444B" width="36.889" height="13.406"/>
<path fill="#A9444B" d="M236.756,268.952l3.604,3.058l-4.619,9.013l-4.65-1.006l-6.462,12.629l38.835,5.094l6.752-13.2l-27-28.218  L236.756,268.952z M247.062,278.134l8.903,7.304l-0.224,0.432c-1.501-0.495-3.05-1.015-4.623-1.375l-6.509-1.572L247.062,278.134z"/>
<path fill="#A9444B" d="M214.866,303.192l8.969,7.956c1.828,1.624,3.884,2.92,6.077,4.276l-0.255,0.295l-22.319-4.033l-8.505,9.591  l27.601,24.476l8.506-9.594l-8.278-7.335c-2.339-2.075-5.11-3.746-7.775-5.393l0.26-0.291l23.289,4.56l8.538-9.623l-27.605-24.477  L214.866,303.192z"/>
<path fill="#A9444B" d="M186.089,331.344l1.958,4.3l-8.019,6.183l-3.777-2.893l-11.238,8.663l32.955,21.178l11.737-9.056  l-12.378-37.042L186.089,331.344z M196.046,354.747c-1.152-1.093-2.331-2.221-3.597-3.219l-5.212-4.198l4.261-3.286l4.937,10.404  L196.046,354.747z"/>
<path fill="#A9444B" d="M129.099,342.042l-8.019-6.187l1.839-4.387l-11.236-8.667l-12.104,37.247l11.737,9.057l32.679-21.383  l-11.236-8.664L129.099,342.042z M113.044,354.932l-0.388-0.303c0.763-1.388,1.555-2.818,2.201-4.296l2.734-6.109l4.261,3.287  L113.044,354.932z"/>
<path fill="#A9444B" d="M102.503,311.726c-5.458-5.817-14.123-8.687-20.545-2.661c-4.567,4.284-3.966,9.359-1.01,14.367l1.576,2.68  c0.525,0.92,1.52,2.264,0.521,3.2c-1.107,1.038-2.598,0.09-3.402-0.766c-1.975-2.103-2.857-4.831-3.29-7.578l-9.363,3.816  c0.87,4.151,2.767,7.672,5.646,10.738c5.491,5.853,14.516,8.317,20.901,2.327c4.21-3.951,3.445-9.268,0.542-13.726l-1.486-2.295  c-0.658-1.062-1.757-2.445-0.544-3.584c1.213-1.136,3.046,0.031,3.951,0.99c2.107,2.252,2.977,5.393,3.262,8.412l0.075,0.873  l10.413-4.136C108.437,319.909,105.684,315.114,102.503,311.726z"/>
<path fill="#A9444B" d="M72.461,297.838l-1.042-2.527c-0.456-1.164-1.283-2.724,0.116-3.625c1.399-0.896,2.989,0.582,3.703,1.694  c1.667,2.591,1.951,5.841,1.68,8.863l-0.083,0.866l10.99-2.17c-0.476-4.639-2.315-9.854-4.827-13.766  c-4.308-6.709-12.31-11.107-19.721-6.348c-5.269,3.384-5.601,8.482-3.604,13.942l1.065,2.924c0.348,0.998,1.083,2.5-0.071,3.243  c-1.277,0.822-2.573-0.386-3.205-1.372c-1.561-2.429-1.932-5.271-1.857-8.054l-9.901,2.056c0.102,4.238,1.327,8.042,3.601,11.588  c4.335,6.752,12.763,10.817,20.131,6.084C74.295,308.117,74.51,302.748,72.461,297.838z"/>
<path fill="#A9444B" d="M54.962,278.637c11.312-3.495,15.388-14.331,12.067-25.082c-3.321-10.75-12.802-17.396-24.115-13.902  c-11.076,3.423-15.559,14.437-12.252,25.14C33.968,275.501,43.883,282.064,54.962,278.637z M42.254,261.212  c-1.256-4.068,1.095-7.559,4.835-8.714c4.021-1.242,7.615,0.614,8.814,4.497c1.199,3.876-0.721,7.441-4.742,8.687  C47.423,266.837,43.51,265.281,42.254,261.212z"/>
<path fill="#A9444B" d="M61.88,213.766c0-2.398-0.44-7.39-1.468-9.544l-13.796-0.389c2.103,2.152,3.425,4.598,3.425,7.68  c0,4.013-3.131,7.488-7.193,7.488c-4.011,0-7.191-3.278-7.191-7.291c0-3.035,1.712-5.725,3.716-7.877l-14.04,0.389  c-0.979,2.84-1.518,5.971-1.518,9.001c0,10.817,8.612,19.28,19.376,19.28C53.708,232.503,61.88,224.284,61.88,213.766z"/>
<rect x="24.405" y="184.796" fill="#A9444B" width="36.887" height="13.406"/>
<path fill="#A9444B" d="M61.292,166.923l-4.599-1.077v-10.125l4.599-1.225v-14.188l-36.887,13.16v14.824l36.887,12.82V166.923z   M47.936,163.451l-11.251-2.446v-0.487c1.564-0.246,3.18-0.492,4.745-0.883l6.507-1.564V163.451z"/>
<path fill="#A9444B" d="M35.559,126.463c0-1.126-0.197-2.152-0.44-3.18l0.147-0.197c1.466,1.173,2.836,2.301,4.451,3.28  l21.576,13.305v-35.911H49.894v11.155c0,1.028,0.096,2.105,0.197,3.131l-0.197,0.147l-25.488-16.047v34.344h11.153V126.463z"/>
<path fill="#A9444B" d="M55.815,98.404c3.864,0,6.065-3.718,6.065-7.289c0-3.573-2.201-7.292-6.065-7.292  c-3.917,0-6.215,3.719-6.215,7.292C49.601,94.686,51.898,98.404,55.815,98.404z"/>
<path fill="#A9444B" d="M71.027,35.402c3.033,0,5.723,1.711,7.877,3.718l-0.393-14.042c-2.838-0.979-5.966-1.517-9.001-1.517  c-10.813,0-19.276,8.612-19.276,19.376c0,10.517,8.217,18.688,18.737,18.688c2.397,0,7.388-0.44,9.54-1.468l0.393-13.797  c-2.154,2.103-4.601,3.426-7.682,3.426c-4.012,0-7.484-3.133-7.484-7.193C63.737,38.582,67.014,35.402,71.027,35.402z"/>
<path fill="#A9444B" d="M96.173,24.148l-12.818,36.89h14.188l1.077-4.599h10.125l1.225,4.599h14.188l-13.16-36.89H96.173z   M101.016,47.681l2.446-11.251h0.492c0.242,1.564,0.487,3.18,0.878,4.744l1.566,6.507H101.016z"/>
<polygon fill="#A9444B" points="143.386,24.148 129.981,24.148 129.981,61.038 154.64,61.038 154.64,49.198 143.386,49.198 "/>
<path fill="#A9444B" d="M180.814,35.402c3.034,0,5.723,1.711,7.876,3.718l-0.393-14.042c-2.838-0.979-5.967-1.517-9.001-1.517  c-10.809,0-19.276,8.612-19.276,19.376c0,10.517,8.219,18.688,18.741,18.688c2.394,0,7.382-0.44,9.536-1.468l0.393-13.797  c-2.153,2.103-4.599,3.426-7.68,3.426c-4.013,0-7.484-3.133-7.484-7.193C173.527,38.582,176.801,35.402,180.814,35.402z"/>
<rect x="196.569" y="24.148" fill="#A9444B" width="13.403" height="36.89"/>
<path fill="#A9444B" d="M238.304,23.561c-11.206,0-20.404,7.535-20.404,19.131c0,11.839,9.146,18.934,20.404,18.934  c11.25,0,20.4-7.095,20.4-18.934C258.705,31.096,249.506,23.561,238.304,23.561z M238.304,49.98c-4.064,0-6.902-2.887-6.902-7.095  c0-3.913,2.642-7.191,6.902-7.191c4.252,0,6.894,3.278,6.894,7.191C245.198,47.094,242.36,49.98,238.304,49.98z"/>
<path d="M91.224,182.847c0,34.783,28.297,63.081,63.079,63.081c34.785,0,63.084-28.298,63.084-63.081  c0-34.783-28.299-63.081-63.084-63.081C119.521,119.766,91.224,148.064,91.224,182.847z"/>
<path fill="#F2BC4F" d="M161.58,216.264c-6.32,0.299-12.015-0.529-17.012-1.942c-6.122-30.162,13.813-54.37,19.67-60.704  c4.968,2.062,9.925,5.422,13.966,10.821C172.882,169.479,161.025,184.338,161.58,216.264z"/>
<path fill="#F2BC4F" d="M137.689,211.864c-8.925-3.88-14.649-9.155-16.451-10.967c-0.685-5.666-3.157-36.021,20.077-49.873  c1.914-0.305,8.554-1.135,16.217,0.511C149.74,160.52,133.523,183.135,137.689,211.864z"/>
<path fill="#F2BC4F" d="M154.302,126.102c21.787,0,41.457,12.518,50.937,31.982c-7.224,5.592-17.755,4.552-21.014,4.02  c-13.564-19.775-36.631-18.323-42.954-17.48c-3.667-3.052-5.929-10.098-6.932-14.699  C140.724,127.515,147.39,126.102,154.302,126.102z"/>
<path fill="#F2BC4F" d="M128.375,132.531c1.761,7.711,4.569,12.454,6.825,15.117c-9.234,6.506-14.493,15.198-17.415,23.764  c-3.148-0.745-9.673-3.224-15.418-11.352C107.544,148.363,116.641,138.581,128.375,132.531z"/>
<path fill="#F2BC4F" d="M97.557,182.847c0-5.435,0.781-10.731,2.251-15.771c6.026,6.912,12.474,9.487,16.256,10.439  c-1.28,5.659-1.673,11.009-1.673,15.333c0,3.59,0.245,6.338,0.45,8.079c-4.269,3.136-8.688,5.479-11.429,6.806  C99.64,200.017,97.557,191.503,97.557,182.847z"/>
<path fill="#F2BC4F" d="M154.302,239.594c-19.434,0-37.363-10.051-47.754-26.316c2.854-1.399,7.108-3.706,11.373-6.758  c5.424,5.162,21.859,18.181,46.883,15.791c2.008,2.673,6.878,7.964,14.996,11.163C171.923,237.452,163.256,239.594,154.302,239.594z  "/>
<path fill="#F2BC4F" d="M187.17,229.032c-0.033,0.024-0.059,0.045-0.091,0.069c-12.187-2.405-17.75-11.32-17.986-11.711  l-1.077-1.761l-0.086,0.01c-0.01-0.491-0.017-0.978-0.017-1.457c0-6.441,0.553-12.076,1.45-16.998  c5.159,3.354,16.541,7.694,38.618,4.027C204.174,212.286,196.966,222.048,187.17,229.032z"/>
<path fill="#F2BC4F" d="M209.848,194.425c-28.646,5.49-37.816-2.909-38.916-4.059c3.783-13.397,10.053-19.913,12.382-21.961  c4.124,0.666,15.463,1.773,24.36-4.052c2.065,5.943,3.374,12.099,3.374,18.494C211.048,186.781,210.637,190.657,209.848,194.425z"/>
</svg>