<svg xmlns:dc="http://purl.org/dc/elements/1.1/" xmlns:cc="http://creativecommons.org/ns#" xmlns:rdf="http://www.w3.org/1999/02/22-rdf-syntax-ns#" xmlns:svg="http://www.w3.org/2000/svg" xmlns="http://www.w3.org/2000/svg" xmlns:xlink="http://www.w3.org/1999/xlink" id="Capa_1" viewBox="0 0 2250.4043 2848.9236" version="1.1" width="2250.4043" height="2848.9236">
  <defs id="defs871">
    <linearGradient id="linearGradient1133">
      <stop style="stop-color:#d20000;stop-opacity:1;" offset="0" id="stop1129"/>
      <stop style="stop-color:#000000;stop-opacity:1" offset="1" id="stop1131"/>
    </linearGradient>
    <linearGradient xlink:href="#linearGradient1133" id="linearGradient1135" x1="428.11179" y1="882.56885" x2="-691.56519" y2="421.52533" gradientUnits="userSpaceOnUse" gradientTransform="translate(1259.9179,-285.4861)"/>
  </defs>
  <title id="title864">RIVER PLATE 4</title>
  <path style="fill:#ffffff;fill-opacity:1;stroke:#000000;stroke-width:47.61448669;stroke-miterlimit:4;stroke-dasharray:none;stroke-opacity:1" d="m 1132.7261,2822.9504 c 50.9351,-18.616 126.7323,-59.9261 194.5811,-106.048 50.7931,-34.5279 62.2635,-43.4157 118.125,-91.5293 29.0654,-25.0341 36.2644,-31.6987 60.3785,-55.8969 60.8076,-61.0195 102.756,-108.5379 132.8357,-150.4739 48.9391,-68.2292 60.1908,-85.1455 84.8053,-127.5 11.7466,-20.2125 25.7625,-44.6812 31.1465,-54.375 21.3128,-38.3734 62.1574,-122.764 86.2114,-178.125 18.8622,-43.4116 28.9191,-68.8345 40.2012,-101.625 3.903,-11.3437 10.5141,-30.075 14.6912,-41.625 4.177,-11.55 10.2967,-30.0139 13.5991,-41.031 7.161,-23.89 50.8869,-182.7209 58.389,-212.094 7.6701,-30.0306 18.8522,-88.3057 24.1776,-126 1.6609,-11.7563 6.3999,-40.95 10.5311,-64.875 6.2626,-36.2695 8.3144,-50.2942 12.3437,-84.375 8.7851,-74.3072 9.741,-87.0921 13.4295,-179.625 4.234,-106.219 10.5959,-177.9759 21.4443,-241.87503 6.9002,-40.6436 21.2231,-110.0107 27.7973,-134.625 22.0057,-82.3914 44.7846,-159.13045 62.7807,-211.50002 12.9581,-37.70925 30.921,-83.0385 49.6332,-125.25 4.2058,-9.4875 11.6708,-27.14903 16.5888,-39.24786 4.9181,-12.09882 11.4802,-27.06583 14.5824,-33.26003 3.1023,-6.19421 5.5377,-11.71103 5.412,-12.25962 -0.1257,-0.54859 -77.3472,-75.99645 -171.6035,-167.6619 -94.2563,-91.66546 -182.101,-177.125991 -195.2104,-189.912281 l -23.8356,-23.24781 -12.5394,6.04368 c -6.8968,3.32402 -15.7459,7.45553 -19.6646,9.18111 -57.616,25.3707 -93.1708,38.29561 -141.1428,51.308437 -46.818,12.699784 -131.5152,29.129854 -176.1072,34.162324 -11.3437,1.28021 -32.1,3.816 -46.125,5.63511 -54.874,7.1174 -102.2619,11.62735 -122.25,11.63466 -4.95,0.002 -16.0875,0.33074 -24.75,0.73095 -8.6625,0.4002 -26.8875,1.0783 -40.5,1.50688 -13.6125,0.42858 -37.0688,1.3209 -52.125,1.98292 -21.9613,0.96564 -38.4989,1.11879 -83.625,0.77441 -30.9375,-0.2361 -62.8313,-0.77622 -70.875,-1.20027 -15.3736,-0.81046 -66.81096,-2.6502 -106.12496,-3.79572 -36.0318,-1.0499 -72.7371,-4.39858 -127.875,-11.66625 -10.9312,-1.44083 -31.35,-3.93591 -45.375,-5.54461 -34.6015,-3.96887 -84.6803,-12.79076 -136.8309,-24.10409 -63.1623,-13.702174 -122.221,-33.840691 -190.5441,-64.973931 -6.8063,-3.10145 -15.0441,-6.97963 -18.3064,-8.61818 l -5.9313,-2.97917 -195.6311,195.630081 C 111.84124,332.21763 23.807243,420.64202 23.807243,421.11972 c 0,0.47771 2.8826,8.24045 6.4059,17.25054 3.5232,9.0101 10.1563,26.00074 14.7402,37.75699 4.5839,11.75625 11.6333,29.8125 15.6654,40.125 9.6334,24.63855 32.6395,87.0645 38.5579,104.625 2.571997,7.63125 8.591897,25.18125 13.377597,39 20.6588,59.65262 40.6543,132.37342 60.2166,219.00002 26.0836,115.5044 39.6746,211.28293 44.1663,311.25003 0.2502,5.5688 1.2728,25.4812 2.2724,44.25 0.9996,18.7688 2.0196,38.3438 2.2668,43.5 1.2321,25.7036 9.3306,102.9818 15.7588,150.375 6.1401,45.2692 20.2247,117.9094 44.8628,231.3762 16.75,77.1395 18.1419,83.0161 26.7354,112.875 14.7481,51.2439 25.5634,86.2932 38.3015,124.1238 10.3447,30.7227 15.5107,44.3975 37.5413,99.375 37.5445,93.6925 41.4685,102.7793 65.0996,150.75 34.9629,70.974 90.6316,168.1223 127.427,222.375 28.4356,41.9266 93.8103,123.4587 131.7002,164.25 35.9627,38.7164 86.4415,87.1864 119.6543,114.8924 22.8771,19.0839 101.4627,74.1774 138,96.7466 17.5821,10.8605 69.14316,38.5621 107.99996,58.0237 17.2671,8.6484 48.0964,21.9681 51.044,22.0535 0.6429,0.019 3.8491,-0.9458 7.1249,-2.1431 z" id="path1117"/>
  <path d="m 1079.855,1841.9072 c -1.1226,-1.1226 -1.3082,-1207.04361 -0.1859,-1208.81761 0.8037,-1.2707 2.1632,-1.256 35.2859,0.3799 29.2637,1.4454 40.3575,2.6705 57,6.2946 29.9576,6.5238 47.9374,12.8297 70.875,24.8572 47.8619,25.097 87.6082,69.44811 102.7331,114.63541 5.807,17.3492 9.1616,34.498 10.1222,51.7452 1.0799,19.3895 1.0576,532.3444 -0.024,546.0928 -3.8578,49.0509 -30.091,98.0722 -69.3192,129.5351 -5.3694,4.3064 -9.9916,8.2291 -10.2718,8.7172 -0.2802,0.488 19.0417,60.8899 42.9375,134.2266 23.8958,73.3366 43.4469,134.118 43.4469,135.0696 0,0.9516 -0.4219,2.076 -0.9375,2.4985 -0.5156,0.4225 -11.4133,5.1758 -24.2171,10.5628 -18.6023,7.8267 -28.1166,11.3073 -47.3544,17.3236 -13.2412,4.141 -24.7795,7.5291 -25.6407,7.5291 -0.8612,0 -2.0446,-0.7594 -2.6299,-1.6875 -0.5853,-0.9282 -19.8368,-59.0625 -42.7811,-129.1875 -22.9442,-70.125 -42.0495,-128.2785 -42.4562,-129.2298 -0.4067,-0.9514 -1.0756,-1.5221 -1.4863,-1.2683 -0.4914,0.3037 -0.7468,47.7439 -0.7468,138.7005 0,123.2964 -0.1243,138.3421 -1.15,139.1933 -3.2615,2.7068 -90.6691,5.3602 -93.2,2.8293 z m 103.807,-406.7616 c 9.1106,-1.7072 21.0416,-6.3046 28.1748,-10.8567 13.4725,-8.5976 25.5221,-21.849 33.4005,-36.7317 3.9673,-7.4946 5.9729,-14.6742 9.2028,-32.9437 1.4986,-8.4766 1.5149,-11.1202 1.5149,-246.0311 0,-259.3695 0.2427,-244.3272 -4.2603,-264.0252 -2.276,-9.9563 -7.7471,-22.8053 -12.6395,-29.684 -3.1257,-4.3947 -12.134,-13.3896 -18.6064,-18.5787 -4.9649,-3.9804 -15.2394,-9.8091 -23.3688,-13.2569 -8.3711,-3.5502 -20.2304,-7.0423 -21.8307,-6.4283 -0.8902,0.3416 -1.0443,48.875 -1.0443,328.863 0,180.6542 0.2048,328.996 0.4552,329.6485 0.5639,1.4693 1.2821,1.4714 9.0018,0.025 z m -199.58201,396.0246 c -99.3242,-20.391 -190.6952,-64.5736 -270.1082,-130.6111 -35.9136,-29.8648 -66.3634,-62.7664 -99.3857,-107.3884 -30.0342,-40.5843 -52.5634,-81.7283 -73.1625,-133.6135 -18.6673,-47.0192 -29.3739,-88.6089 -37.6496,-146.25 -3.4581,-24.0859 -3.7766,-27.5787 -4.6061,-50.5137 -0.6935,-19.1747 -0.689,-30.2349 0.02,-49.875 0.848,-23.4828 1.1644,-27.0082 4.5517,-50.7363 8.3766,-58.6783 19.8622,-102.8685 38.7919,-149.25 21.8828,-53.617 42.6846,-91.5099 71.6402,-130.5 31.8423,-42.8777 62.6601,-75.95 101.7829,-109.2289 16.7699,-14.265 23.3316,-19.253 42,-31.9275 32.4021,-21.9986 58.3691,-37.17161 86.1041,-50.31251 47.3904,-22.4533 93.3687,-37.7974 142.9537,-47.7072 18.51531,-3.7004 24.93381,-4.7246 25.68751,-4.0992 0.8221,0.6823 1.0047,10.3524 1.0047,53.1885 0,46.59511 -0.1297,52.48421 -1.1785,53.53321 -0.6483,0.6482 -1.2808,1.1785 -1.4057,1.1785 -0.1249,0 -8.9602,2.0409 -19.63391,4.5354 -55.0205,12.8583 -107.0153,35.0954 -157.9757,67.563 -22.6162,14.4092 -43.4205,30.5769 -67.3812,52.3642 -39.9948,36.3669 -79.6705,88.5176 -105.1414,138.2004 -26.983,52.6321 -42.7891,103.2507 -51.4719,164.8371 -2.6476,18.7794 -3.0859,23.925 -3.609,42.375 -0.3275,11.55 -0.325,30.2812 0.01,41.625 0.5228,17.9393 0.9927,23.4083 3.609,42 6.618,47.0269 16.9681,85.9458 33.6381,126.4872 44.0295,107.0792 127.3447,198.5772 229.1697,251.6774 40.3856,21.0604 76.5492,34.6133 118.875,44.5503 14.01431,3.2902 20.92711,5.2417 21.56761,6.0888 0.7401,0.979 0.9012,12.5245 0.75,53.784 l -0.1926,52.5373 -3,0.1306 c -1.65,0.072 -13.46251,-2.0173 -26.25001,-4.6426 z m 422.37501,-68.3631 c -0.275,-0.2749 -0.5,-235.0062 -0.5,-521.625 0,-480.6757 0.095,-521.125 1.2195,-521.125 0.6708,0 10.0414,4.6615 20.8235,10.3589 15.4184,8.1471 23.4316,12.9805 37.5316,22.6382 92.3335,63.2432 154.9811,140.6379 194.7984,240.6531 22.4809,56.4687 32.8821,106.9827 36.1573,175.5999 0.9372,19.6349 0.9047,23.1762 -0.3996,43.5 -2.8334,44.1498 -12.7424,95.2148 -26.0913,134.4583 -29.52,86.7841 -78.4896,160.8658 -145.7269,220.4568 l -17.0625,15.1222 v 54.5041 54.504 l -1.8038,1.8037 c -0.992,0.992 -11.8764,9.7681 -24.1875,19.5023 -19.3176,15.2744 -25.867,19.9212 -47.8135,33.9236 -13.9865,8.9237 -25.6583,16.225 -25.9376,16.225 -0.2792,0 -0.7326,-0.225 -1.0076,-0.5001 z m 112.5638,-358.9374 c 42.5805,-53.4833 69.7865,-126.2547 74.177,-198.4113 1.0441,-17.1583 1.0418,-20.7824 -0.023,-37.875 -2.916,-46.797 -15.3873,-93.5634 -37.119,-139.1939 -6.3448,-13.3224 -10.2278,-20.2531 -18.1143,-32.3323 -9.9192,-15.1927 -27.6394,-38.3976 -29.6808,-38.8675 -0.9027,-0.2078 -1.0534,32.5886 -1.0534,229.3125 0,196.8189 0.1505,229.555 1.0554,229.555 0.5804,0 5.4217,-5.4844 10.7584,-12.1875 z M 986.70499,1653.773 c -22.7804,-6.0062 -27.2946,-7.4754 -48.375,-15.7452 -15.7851,-6.1923 -23.7918,-9.7121 -24.9375,-10.9625 l -1.6875,-1.8418 v -172.3082 c 0,-133.0174 -0.2052,-172.5133 -0.9,-173.2081 -1.3951,-1.3951 -129.089,-1.2945 -130.2485,0.1026 -0.6211,0.7484 -0.063,4.9794 2.2003,16.6875 4.1075,21.2459 12.0524,46.8387 21.6216,69.6493 6.2035,14.7875 8.6378,19.5516 16.8443,32.9654 5.886,9.6208 13.5165,20.7354 19.746,28.7626 5.5842,7.1954 10.6197,13.977 11.1901,15.0701 1.5648,2.9992 1.5556,147.7141 -0.01,148.3146 -0.6158,0.2364 -8.0397,-4.7512 -17.8125,-11.9668 -53.2473,-39.314 -101.2582,-99.4826 -129.2805,-162.0178 -4.7346,-10.5656 -11.8005,-27.9937 -15.7021,-38.7289 -13.5615,-37.3147 -20.6619,-75.0522 -23.2111,-123.3636 -2.2336,-42.3312 1.7837,-81.7 12.719,-124.643 7.3509,-28.8667 17.1838,-55.6605 29.3982,-80.107 18.7569,-37.5407 44.9649,-76.3629 70.1195,-103.8687 19.5454,-21.3725 40.0332,-39.6554 62.0752,-55.395 48.5254,-34.6506 97.631,-57.9761 149.5656,-71.0444 10.69231,-2.6906 20.31111,-4.7907 21.37501,-4.6669 l 1.9344,0.2249 v 422.1876 c 0,280.8449 -0.2511,422.2444 -0.75,422.3576 -0.4125,0.093 -12.0563,-2.8108 -25.87501,-6.4543 z m -75.9,-472.6158 c 0.691,-0.6911 0.9,-24.2052 0.9,-101.2736 0,-86.9342 -0.1454,-100.4293 -1.0862,-100.7903 -1.6298,-0.6254 -22.6507,16.9375 -38.4645,32.1369 -25.1481,24.1711 -41.9202,47.4046 -62.582,86.6915 -8.0989,15.3996 -9.28,18.1911 -14.7553,34.875 -5.9265,18.059 -12.755,45.7532 -11.8577,48.0915 0.4013,1.0458 7.111,1.169 63.6971,1.169 48.1934,0 63.4628,-0.2142 64.1486,-0.9 z" style="fill:#000000;stroke-width:0.75" id="path1175"/>
  <path id="path1093" style="fill:#ffffff;fill-opacity:1;stroke:#000000;stroke-width:10.1972;stroke-miterlimit:4;stroke-dasharray:none;stroke-opacity:1" d="m 401.87167,1471.8386 c 34.2924,-58.9875 62.85203,-108.2213 63.46605,-109.4085 1.0218,-1.9758 0.92152,-3.1817 -1.18537,-14.25 -1.26585,-6.6503 -3.63923,-23.229 -5.27416,-36.8415 -3.88124,-32.315 -5.0226,-63.1693 -3.79875,-102.6876 0.72818,-23.5107 1.16933,-29.2014 4.14338,-53.4445 10.67437,-87.0134 39.8004,-176.7083 80.93505,-249.2429 71.2864,-125.7025 176.0251,-222.22914 306.7423,-282.6922 15.7227,-7.27252 30.6583,-13.5321 43.166,-18.09097 10.5188,-3.834 19.6773,-7.50435 20.3522,-8.1564 2.0695,-1.99897 212.43103,-364.7377 212.47843,-366.38894 l 0.044,-1.54651 -87,-0.042 c -121.98153,-0.0589 -145.28213,-1.19801 -229.87503,-11.23831 -114.1298,-13.546 -165.0957,-22.19788 -242.59992,-41.18324 -38.91863,-9.53347 -86.49848,-25.08209 -127.35038,-41.6168 -9.39142,-3.80114 -17.3733,-6.80058 -17.7375,-6.66541 -0.55845,0.20722 -295.67667,293.30768 -308.56367,306.45393 l -4.3764,4.46447 1.9847,3.91645 c 1.0915,2.15405 3.2831,7.51521 4.8703,11.91368 1.5871,4.39847 6.6652,17.61597 11.2845,29.37222 4.6193,11.75625 10.8585,28.125 13.8648,36.375 3.0064,8.25 9.1694,24.7875 13.6958,36.75 10.2806,27.17025 13.4389,36.28957 29.3515,84.75 25.9834,79.12983 41.6753,134.29663 57.4933,202.12503 7.62,32.6744 23.38017,105.3684 24.63427,113.625 0.2506,1.65 2.9615,18.525 6.0243,37.5 3.0629,18.975 6.28521,41.25 7.16084,49.5 0.87562,8.25 2.91206,26.475 4.52541,40.5 3.21164,27.9192 5.34084,53.3887 7.11626,85.125 3.44424,61.5673 9.09126,145.0079 11.29362,166.875 7.66091,76.0647 14.45088,119.9529 33.35949,215.625 4.60658,23.308 5.44073,26.5567 6.70741,26.1214 0.39442,-0.1356 28.7745,-48.5089 63.06682,-107.4964 z m 754.45843,1266.8166 c 53.7043,-26.8038 86.8936,-46.5436 129.5994,-77.0813 45.1302,-32.2713 103.2321,-81.7827 146.4264,-124.7769 44.9041,-44.696 77.7686,-82.3316 118.5049,-135.7084 61.4838,-80.5622 94.9334,-135.3997 152.1131,-249.375 34.7956,-69.3574 46.7257,-96.2591 71.6758,-161.625 31.9469,-83.6966 39.8595,-106.02 53.9467,-152.1963 26.6819,-87.4604 45.0067,-159.4879 61.0733,-240.0537 20.8833,-104.7193 32.1567,-173.3497 39.4854,-240.3776 3.936,-35.9996 4.7358,-45.9788 6.7024,-83.625 1.2282,-23.5111 2.77,-59.9599 3.4262,-80.9974 1.2141,-38.9212 4.9813,-98.284 9.0432,-142.5 2.2116,-24.0749 12.099,-88.81 18.3856,-120.375 12.8513,-64.5262 44.8613,-190.571 73.7112,-290.25002 6.1953,-21.4053 7.6982,-27.52155 6.9473,-28.27245 -0.2823,-0.2823 -0.9788,-0.027 -1.5479,0.56708 -0.8045,0.84 -269.1218,463.48459 -272.5064,469.86769 -0.6406,1.208 0.1425,6.187 3.6566,23.25 7.98,38.7469 12.6671,86.7196 12.6734,129.7127 0.01,43.93 -4.6831,90.2717 -13.4716,133.125 -3.206,15.6329 -7.9731,35.6718 -12.0431,50.625 -5.7664,21.1856 -8.1253,28.3685 -16.3792,49.875 -14.7744,38.4967 -27.5214,66.1213 -43.4198,94.0978 -37.185,65.434 -76.3395,114.9665 -131.1666,165.9322 -62.9007,58.4709 -143.5831,107.9831 -223.3979,137.0925 -14.025,5.1151 -28.3187,10.0769 -31.7637,11.0263 -4.6566,1.2833 -6.601,2.2072 -7.5782,3.6012 -1.4462,2.063 -421.2687,727.1029 -423.341,731.1163 -1.072,2.0762 -1.1222,2.6893 -0.3017,3.6785 1.7445,2.1032 44.9616,35.7594 60.7159,47.2837 28.0273,20.5021 52.6036,36.1564 85.3937,54.3929 19.0298,10.5835 80.6171,41.7367 82.5616,41.7628 0.6526,0.01 19.0464,-8.898 40.875,-19.7926 z"/>
  <path id="path1089" style="fill:url(#linearGradient1135);fill-opacity:1;stroke:#000000;stroke-width:15.8665;stroke-miterlimit:4;stroke-dasharray:none;stroke-opacity:1" d="m 1732.195,951.9011 c 1.0025,-1.5469 78.005,-133.7335 171.1167,-293.74802 119.3215,-205.05669 169.0966,-291.23524 168.6253,-291.95087 -1.5078,-2.29003 -251.6964,-244.73863 -252.5517,-244.73863 -0.5106,0 -7.3271,2.8151 -15.1476,6.25576 -21.7142,9.55322 -61.2652,23.16192 -100.8442,34.69843 -28.1973,8.21897 -87.4876,21.39348 -134.4944,29.8851 -42.0762,7.60093 -82.9438,13.38407 -148.6262,21.03203 -58.9058,6.85888 -72.0399,7.73148 -133.8794,8.89462 -29.4937,0.55474 -54.1982,1.25751 -54.8988,1.56172 -1.1699,0.50799 -198.6012,340.09516 -198.6012,341.59937 0,1.31167 2.0444,1.31055 12.75,-0.007 5.9812,-0.73621 24.2063,-1.91678 40.5,-2.62365 27.5552,-1.19528 31.5899,-1.2012 57.75,-0.0842 22.5734,0.96383 33.1585,1.79828 53.625,4.22753 33.9779,4.03297 70.5542,10.90605 92.431,17.36872 8.563,2.52968 20.4628,6.03398 26.444,7.7874 22.3108,6.5406 56.7087,19.83045 81.75,31.58453 83.2076,39.05685 150.3497,87.81142 212.4227,154.24866 25.3817,27.1663 45.8593,53.1716 66.2995,84.1961 8.6966,13.2 18.1749,28.2188 21.0629,33.375 2.8879,5.1563 8.3068,14.775 12.042,21.375 3.7353,6.6 9.2038,17.39 12.1523,23.9777 7.0398,15.7285 7.0531,15.7431 10.0721,11.0848 z m -925.4833,1592.25 c 6.4281,-9.8288 370.9318,-637.3272 370.9318,-638.5645 0,-1.2179 -0.3491,-1.448 -1.6875,-1.1123 -2.54,0.6372 -11.2971,1.1999 -36.9375,2.3737 -31.7368,1.4527 -62.0149,0.1671 -99,-4.2038 -61.6785,-7.289 -105.8326,-17.5716 -158.25,-36.8533 -81.8758,-30.1179 -161.1534,-78.6108 -223.9113,-136.9632 -20.204,-18.7858 -50.3671,-50.1587 -60.3339,-62.754 -3.2577,-4.1168 -10.8628,-13.7288 -16.9001,-21.3601 -26.96553,-34.0844 -59.17188,-86.8984 -76.37838,-125.25 -5.08935,-11.3438 -9.55905,-20.948 -9.9327,-21.3428 -0.42802,-0.4524 -1.06297,-0.3136 -1.7163,0.375 -0.57037,0.601 -31.15702,53.2292 -67.9704,116.9514 l -66.93337,115.8587 6.91282,24.3913 c 20.86373,73.6153 50.76248,162.9423 70.92248,211.8914 2.2086,5.3625 12.26873,29.8312 22.35585,54.375 26.34975,64.1134 44.63378,102.0992 88.08495,183 25.65085,47.7587 30.02495,55.1704 61.96615,105 37.9768,59.2451 79.6207,112.4432 141.7865,181.125 20.5354,22.6879 52.8336,55.875 54.3784,55.875 0.4252,0 1.6008,-1.2656 2.6125,-2.8125 z"/>
</svg>