<svg xmlns:dc="http://purl.org/dc/elements/1.1/" xmlns:cc="http://creativecommons.org/ns#" xmlns:rdf="http://www.w3.org/1999/02/22-rdf-syntax-ns#" xmlns:svg="http://www.w3.org/2000/svg" xmlns:sodipodi="http://sodipodi.sourceforge.net/DTD/sodipodi-0.dtd" xmlns:inkscape="http://www.inkscape.org/namespaces/inkscape" xmlns="http://www.w3.org/2000/svg" xmlns:xlink="http://www.w3.org/1999/xlink" version="1.1" id="Layer_1" sodipodi:docname="Escudo_de_Rosario_Central.svg" inkscape:version="0.48.2 r9819" x="0px" y="0px" viewBox="-268 330.1 74.3 132.9" style="enable-background:new -268 330.1 74.3 132.9;" xml:space="preserve">
<style type="text/css">
	.st0{fill:#002A6F;}
	.st1{fill:#FAC900;}
	.st2{fill:#FFCB05;}
</style>
<sodipodi:namedview fit-margin-top="3" fit-margin-left="3" inkscape:cy="63.133771" inkscape:cx="-19.752082" inkscape:zoom="4.2733675" showgrid="false" guidetolerance="10" gridtolerance="10" objecttolerance="10" borderopacity="1" pagecolor="#ffffff" bordercolor="#666666" id="namedview3073" fit-margin-bottom="3" fit-margin-right="3" inkscape:current-layer="Layer_1" inkscape:window-maximized="1" inkscape:window-y="-4" inkscape:window-x="-4" inkscape:window-height="750" inkscape:pageshadow="2" inkscape:pageopacity="0" inkscape:window-width="1280">
	</sodipodi:namedview>
<polygon id="polygon3033" class="st0" points="-246.8,354.6 -251.5,358.1 -249.8,352.5 -254.7,349.1 -248.7,349 -247,343.3   -245.1,348.9 -239.2,348.8 -243.9,352.4 -242,358 -242,358 -242,358 "/>
<polygon id="polygon3035" class="st0" points="-255.5,355.3 -253.6,360.9 -247.7,360.8 -252.4,364.3 -250.5,369.9 -250.5,369.9   -250.5,369.9 -255.4,366.5 -260.1,370.1 -258.3,364.4 -263.2,361 -257.3,360.9 "/>
<polygon id="polygon3037" class="st0" points="-210.3,357.7 -210.3,357.7 -210.3,357.7 -215.2,354.3 -219.9,357.9 -218.2,352.2   -223,348.8 -217.1,348.7 -215.4,343.1 -213.5,348.7 -207.5,348.6 -212.3,352.1 "/>
<polygon id="polygon3039" class="st0" points="-204.4,361.3 -198.5,361.2 -203.2,364.7 -201.3,370.3 -201.3,370.3 -201.3,370.3   -206.1,366.9 -210.9,370.5 -209.1,364.8 -214,361.4 -208.1,361.3 -206.3,355.7 "/>
<path id="path3041" inkscape:connector-curvature="0" class="st0" d="M-196.7,375c-0.6,2-0.9,4.1-0.9,6.4v53.4c0,3.6-1,6.5-3,8.7  v-0.1c-2.4,2.4-5.4,4-9.2,4.8h0.1c-0.8,0.1-1.6,0.3-2.5,0.6c-2.1,0.7-4.6,1.9-7.4,3.6c-3.3,1.9-7,4.5-11.2,7.6  c-9.2-7.1-16.3-11-21-11.8h0c-3.8-0.8-6.9-2.4-9.2-4.8l0.1,0c-2.1-2.2-3.1-5.1-3.1-8.7v-53.4c0-2.3-0.3-4.4-0.9-6.4  c9.6-1.5,18.1-4.6,25.4-9.3c3.2-2,6.1-4.3,8.8-6.9C-221.8,367.5-210.4,372.9-196.7,375L-196.7,375C-196.7,375-196.7,375-196.7,375z"/>
<path id="path3535" inkscape:connector-curvature="0" class="st1" d="M-261.6,392.1v41.6c0,3.3,1,6,2.9,8c1.1,1.1,2.4,2,3.8,2.8  v-52.4C-254.9,392.1-261.6,392.1-261.6,392.1z M-247.9,392.1v54.6c1.9,0.6,4.2,1.7,6.7,3.2v-57.8  C-241.3,392.1-247.9,392.1-247.9,392.1z M-234.3,392.1v62.4c1.1,0.8,2.3,1.6,3.4,2.5c1.1-0.9,2.2-1.7,3.3-2.4v-62.5  C-227.5,392.1-234.3,392.1-234.3,392.1z M-220.5,392.1V450c0,0,0,0,0,0c2.5-1.5,4.8-2.6,6.8-3.3v-54.6L-220.5,392.1L-220.5,392.1z   M-206.8,392.1v52.4c1.5-0.7,2.8-1.7,3.9-2.8c1.8-2.1,2.8-4.7,2.8-8v-41.6C-200.1,392.1-206.8,392.1-206.8,392.1z"/>
<path id="path3043" inkscape:connector-curvature="0" class="st2" d="M-208.2,377.4c1.3,0,2.4,0.5,3.3,1.4c0.3,0.3,0.6,0.7,0.8,1.1  l2.1-1.8c-0.3-0.4-0.6-0.8-1-1.2c-1.4-1.4-3.2-2.1-5.2-2.1c-2.1,0-3.8,0.7-5.3,2.1c-1.4,1.5-2.1,3.2-2.1,5.3c0,2,0.7,3.8,2.1,5.2  c1.4,1.4,3.1,2.1,5.1,2.2h0.4c2-0.1,3.6-0.8,5-2.2c0.4-0.4,0.7-0.8,1-1.2l-2.1-1.8c-0.2,0.4-0.5,0.7-0.8,1c0,0,0,0,0,0  c-0.9,0.9-2,1.4-3.3,1.4c-1.3,0-2.4-0.5-3.3-1.4c-0.9-0.9-1.4-2-1.4-3.3c0-1.3,0.4-2.4,1.3-3.3c0,0,0,0,0,0  C-210.6,377.8-209.5,377.4-208.2,377.4L-208.2,377.4C-208.2,377.4-208.2,377.4-208.2,377.4z"/>
<path id="path3045" inkscape:connector-curvature="0" class="st2" d="M-201.9,388.9c0.3,0.3,0.7,0.5,1.2,0.5c0.4,0,0.8-0.2,1.2-0.5  c0.3-0.3,0.5-0.7,0.5-1.2c0-0.5-0.2-0.9-0.5-1.2c-0.3-0.3-0.7-0.5-1.2-0.5c-0.5,0-0.9,0.2-1.2,0.5c-0.3,0.3-0.5,0.7-0.5,1.2  C-202.4,388.2-202.2,388.6-201.9,388.9L-201.9,388.9L-201.9,388.9z"/>
<path id="path3047" inkscape:connector-curvature="0" class="st2" d="M-225.8,367.1c-0.9-0.8-1.8-1.6-2.7-2.4v24.7h2.7V385  c0.7,0,1.4-0.1,2.1-0.4l1.8,4.7h2.9l-2.3-6c5.2-3.6,4.8-8.1-1.3-13.5C-223.6,369.1-224.7,368.1-225.8,367.1L-225.8,367.1  L-225.8,367.1L-225.8,367.1z M-225.8,370.7c0.5,0.4,1,0.9,1.6,1.3h-0.1c2.4,2.1,3.7,3.9,4,5.6c-0.1,1.1-0.7,2.2-1.9,3.2  c-0.2,0.1-0.4,0.3-0.6,0.5h0c-0.6,0.4-1.2,0.7-1.8,0.8c-0.4,0.1-0.8,0.1-1.2,0.2V370.7L-225.8,370.7  C-225.8,370.7-225.8,370.7-225.8,370.7z"/>
<path id="path3049" inkscape:connector-curvature="0" class="st2" d="M-233.3,364.7c-2,1.6-4.1,3.1-6.3,4.4c-0.8,0.5-1.7,1-2.7,1.5  v18.9h2.7v-3.6h3.6v3.6h2.7V364.7L-233.3,364.7L-233.3,364.7L-233.3,364.7z M-239.6,372.2c1.3-0.7,2.4-1.5,3.6-2.3v13.3h-3.6V372.2  L-239.6,372.2L-239.6,372.2z"/>
<path id="path3051" inkscape:connector-curvature="0" class="st2" d="M-250.3,378.8c0.3,0.3,0.6,0.7,0.8,1.1l2.1-1.8  c-0.3-0.4-0.6-0.8-1-1.2c-1.4-1.4-3.2-2.1-5.2-2.1c-2,0-3.8,0.7-5.3,2.1c-1.4,1.5-2.1,3.2-2.1,5.3c0,2,0.7,3.8,2.1,5.2  c1.4,1.4,3.1,2.1,5.1,2.2h0.4c2-0.1,3.6-0.8,5-2.2c0.4-0.4,0.7-0.8,1-1.2l-2.1-1.8c-0.2,0.4-0.5,0.7-0.8,1c0,0,0,0,0,0  c-0.9,0.9-2,1.4-3.3,1.4c-1.3,0-2.4-0.5-3.3-1.4c-0.9-0.9-1.4-2-1.4-3.3c0-1.3,0.5-2.4,1.3-3.3c0,0,0,0,0,0c0.9-0.9,2-1.3,3.3-1.3  C-252.3,377.4-251.2,377.8-250.3,378.8L-250.3,378.8C-250.3,378.8-250.3,378.8-250.3,378.8z"/>
<path id="path3053" inkscape:connector-curvature="0" class="st2" d="M-246.9,388.9c0.3,0.3,0.7,0.5,1.2,0.5c0.5,0,0.9-0.2,1.2-0.5  c0.3-0.3,0.5-0.7,0.5-1.2c0-0.5-0.2-0.9-0.5-1.2c-0.3-0.3-0.7-0.5-1.2-0.5c-0.4,0-0.8,0.2-1.2,0.5c-0.3,0.3-0.5,0.7-0.5,1.2  C-247.4,388.2-247.2,388.6-246.9,388.9L-246.9,388.9L-246.9,388.9z"/>
<path id="path3055" inkscape:connector-curvature="0" class="st2" d="M-218.1,387.8c0,0.5,0.2,0.9,0.5,1.2c0.3,0.3,0.7,0.5,1.2,0.5  c0.5,0,0.9-0.2,1.2-0.5c0.3-0.3,0.5-0.7,0.5-1.2c0-0.5-0.2-0.9-0.5-1.2c-0.3-0.3-0.7-0.5-1.2-0.5c-0.4,0-0.8,0.2-1.2,0.5  C-217.9,386.9-218.1,387.3-218.1,387.8L-218.1,387.8L-218.1,387.8z"/>
<path id="path3057" inkscape:connector-curvature="0" class="st2" d="M-232.1,386.6c-0.3,0.3-0.5,0.7-0.5,1.2c0,0.5,0.2,0.9,0.5,1.2  c0.3,0.3,0.7,0.5,1.2,0.5c0.4,0,0.9-0.2,1.2-0.5c0.3-0.3,0.5-0.7,0.5-1.2c0-0.5-0.2-0.9-0.5-1.2c-0.3-0.3-0.7-0.5-1.2-0.5  C-231.4,386.2-231.8,386.3-232.1,386.6L-232.1,386.6L-232.1,386.6z"/>
<polygon id="polygon3071" class="st0" points="-231.5,333.1 -228.8,341 -220.4,340.9 -227.1,345.9 -224.4,353.8 -224.4,353.8   -224.4,353.8 -231.2,349 -237.9,354 -235.4,346 -242.3,341.3 -233.9,341.1 "/>
</svg>