<svg xmlns:dc="http://purl.org/dc/elements/1.1/" xmlns:cc="http://creativecommons.org/ns#" xmlns:rdf="http://www.w3.org/1999/02/22-rdf-syntax-ns#" xmlns:svg="http://www.w3.org/2000/svg" xmlns="http://www.w3.org/2000/svg" xmlns:sodipodi="http://sodipodi.sourceforge.net/DTD/sodipodi-0.dtd" xmlns:inkscape="http://www.inkscape.org/namespaces/inkscape" version="1.0" width="1000.1562" height="589.83594" viewBox="-1.4482501 -1.4482501 81.862401 48.292465" id="svg2741" sodipodi:docname="Rosenborg_Trondheim_logo.svg" inkscape:version="0.92.4 (5da689c313, 2019-01-14)">
  <metadata id="metadata1099">
    <rdf:RDF>
      <cc:Work rdf:about="">
        <dc:format>image/svg+xml</dc:format>
        <dc:type rdf:resource="http://purl.org/dc/dcmitype/StillImage"/>
      </cc:Work>
    </rdf:RDF>
  </metadata>
  <sodipodi:namedview pagecolor="#ffffff" bordercolor="#666666" borderopacity="1" objecttolerance="10" gridtolerance="10" guidetolerance="10" inkscape:pageopacity="0" inkscape:pageshadow="2" inkscape:window-width="640" inkscape:window-height="480" id="namedview1097" showgrid="false" inkscape:zoom="0.29296875" inkscape:cx="440.26495" inkscape:cy="295.02464" inkscape:window-x="0" inkscape:window-y="0" inkscape:window-maximized="0" inkscape:current-layer="svg2741"/>
  <defs id="defs2743"/>
  <path d="M -0.72763327,31.408 39.147367,17.048 79.679867,31.4705 39.001117,46.57175 Z" id="path2503" style="fill:#ffffff;fill-opacity:1;fill-rule:nonzero;stroke:none" inkscape:connector-curvature="0"/>
  <path d="M -0.72763327,31.408 39.147367,17.048 79.679867,31.4705 39.001117,46.57175 Z" id="path2507" style="fill:#ffffff;fill-opacity:1;fill-rule:nonzero;stroke:none" inkscape:connector-curvature="0"/>
  <path d="M -0.72763327,31.408 39.147367,17.048 79.679867,31.4705 39.001117,46.57175 Z" id="path2511" style="fill:none;stroke:#000000;stroke-width:0.50999999;stroke-linecap:butt;stroke-linejoin:miter;stroke-miterlimit:4;stroke-dasharray:none;stroke-opacity:1" inkscape:connector-curvature="0"/>
  <path d="m 3.7911167,31.628 35.2825003,-13.05 35.99375,12.94625 -35.99375,13.37 z" id="path2515" style="fill:#000000;fill-opacity:1;fill-rule:nonzero;stroke:none" inkscape:connector-curvature="0"/>
  <path d="m 35.138617,20.838 v 21.87 l 3.935,1.45875 3.71875,-1.31375 V 20.7655 l -3.71875,-1.385 z" id="path2519" style="fill:#ffffff;fill-opacity:1;fill-rule:nonzero;stroke:none" inkscape:connector-curvature="0"/>
  <path d="m 29.159867,28.603 v 3.135 c 0,0 0.91125,0.25375 1.45875,-0.33 0.54625,-0.5825 0.51,-0.76375 0.51,-1.42125 0,-0.65625 -0.51,-1.38375 -1.96875,-1.38375 m 0.91125,-0.985 c -0.03625,0 2.29625,0.0725 2.29625,2.25875 0,2.1875 -1.09375,2.58875 -1.09375,2.58875 l 1.09375,3.86375 h -1.38375 l -0.9125,-3.025 c -0.58375,-0.83875 -0.94875,0.0725 -0.94875,0.0725 v 2.99 h -1.38375 V 27.618 Z" id="path2531" style="fill:#ffffff;fill-opacity:1;fill-rule:nonzero;stroke:none" inkscape:connector-curvature="0"/>
  <path d="m 23.319867,33.1605 c 0.59125,0 1.06875,-0.4775 1.06875,-1.06875 0,-0.59125 -0.4775,-1.07 -1.06875,-1.07 -0.59125,0 -1.07125,0.47875 -1.07125,1.07 0,0.59125 0.48,1.06875 1.07125,1.06875" id="path2535" style="fill:#ffffff;fill-opacity:1;fill-rule:nonzero;stroke:none" inkscape:connector-curvature="0"/>
  <path d="m 38.527367,32.17437 v 2.87875 c 0,0 -0.10875,0.33 0.73,0.25625 0.8375,-0.07375 1.23875,-0.84 1.2025,-1.6775 -0.0375,-0.83875 -0.47375,-1.60375 -1.67625,-1.5675 0,0 -0.25625,-0.03625 -0.25625,0.11 m 0,-3.57125 v 2.33125 c 0,0 1.60375,0.51 1.53,-1.31125 0,0 -0.18,-1.42125 -1.53,-1.02 m -1.53125,-0.875 h 2.40625 c 0.475,0 2.29625,0.365 2.29625,1.895 0,1.53125 -0.9475,2.0775 -0.9475,2.0775 1.27625,0.36375 1.42125,1.85875 1.42125,1.85875 -0.03625,2.2975 -1.82125,2.73375 -3.7175,2.77 -1.895,0.0375 -1.74875,-0.21875 -1.74875,-0.21875 v -8.20125 c -0.03625,-0.21875 0.29,-0.18125 0.29,-0.18125" id="path2539" style="fill:#000000;fill-opacity:1;fill-rule:nonzero;stroke:none" inkscape:connector-curvature="0"/>
  <path d="m 45.563617,27.5805 v 8.78625 h 1.42 V 32.648 c 0,0.03625 2.1875,3.71875 2.1875,3.71875 h 1.67625 l -2.66,-4.84875 2.55125,-3.86375 h -1.35 l -2.2225,3.20625 v -3.28 z" id="path2543" style="fill:#ffffff;fill-opacity:1;fill-rule:nonzero;stroke:none" inkscape:connector-curvature="0"/>
  <path d="m 54.857367,33.24425 c 0.59125,0 1.07,-0.47875 1.07,-1.07 0,-0.59 -0.47875,-1.06875 -1.07,-1.06875 -0.59,0 -1.06875,0.47875 -1.06875,1.06875 0,0.59125 0.47875,1.07 1.06875,1.07" id="path2547" style="fill:#ffffff;fill-opacity:1;fill-rule:nonzero;stroke:none" inkscape:connector-curvature="0"/>
  <path d="m 14.521117,34.3405 h -0.9875 v -3.07125 h -0.83625 v -0.7425 c 0.325,0.03625 0.485,-0.02875 0.71875,-0.2075 0.22375,-0.17125 0.2375,-0.30375 0.26625,-0.52875 h 0.83875 z" id="path2551" style="fill:#ffffff;fill-opacity:1;fill-rule:nonzero;stroke:none" inkscape:connector-curvature="0"/>
  <path d="m 17.858617,31.86925 c 0.14875,-0.14125 0.21875,-0.3275 0.21875,-0.475 0,-0.31375 -0.1125,-0.62875 -0.22625,-0.73125 -0.155,-0.1475 -0.36625,-0.2125 -0.57875,-0.19875 -0.21125,0.0062 -0.4225,0.1025 -0.58625,0.27625 -0.09,0.1025 -0.1825,0.30875 -0.1825,0.5375 0,0.1875 0.04875,0.43 0.2325,0.60375 0.155,0.14875 0.36,0.21875 0.565,0.21875 0.20375,0 0.40875,-0.09 0.5575,-0.23125 m -1.20625,1.405 c -0.03625,0.18 0.1125,0.50625 0.67625,0.50625 0.31125,0 0.5225,-0.19875 0.6225,-0.42875 0.0975,-0.245 0.21,-0.6425 0.105,-0.88625 -0.135,0.16125 -0.31,0.275 -0.515,0.34 -0.09875,0.03375 -0.2125,0.0575 -0.3325,0.0575 -0.1125,0 -0.23875,-0.0063 -0.38125,-0.02375 -0.3875,-0.065 -0.81,-0.29625 -1.0375,-0.75875 -0.105,-0.21125 -0.1675,-0.475 -0.1675,-0.70375 0,-0.3275 0.0625,-0.65625 0.21625,-0.90625 0.26125,-0.43 0.76375,-0.7625 1.3775,-0.7625 1.695,0 1.84875,1.61625 1.84875,2.15375 0,0.7075 -0.15375,1.47 -0.38875,1.8625 -0.4225,0.71125 -1.1575,0.7625 -1.4875,0.7625 -1.18625,0 -1.55375,-0.9225 -1.50375,-1.2125 z" id="path2555" style="fill:#ffffff;fill-opacity:1;fill-rule:nonzero;stroke:none" inkscape:connector-curvature="0"/>
  <path d="m 60.753617,34.3105 h -0.98875 v -3.07 h -0.835 V 30.498 c 0.32375,0.0375 0.485,-0.0275 0.7175,-0.2075 0.22375,-0.17 0.24,-0.30375 0.2675,-0.5275 h 0.83875 z" id="path2559" style="fill:#ffffff;fill-opacity:1;fill-rule:nonzero;stroke:none" inkscape:connector-curvature="0"/>
  <path d="m 62.092367,29.768 v 0.78375 h 1.73125 l -2.18625,3.77375 h 1.12875 l 2.5525,-4.5575 z" id="path2563" style="fill:#ffffff;fill-opacity:1;fill-rule:nonzero;stroke:none" inkscape:connector-curvature="0"/>
  <path d="m 27.926117,4.4154999 2.04,-5.86375 2.0375,5.865 6.20625,0.12875 -4.94625,3.74875 1.79625,5.9437501 -5.09625,-3.5475 -5.09625,3.545 1.8,-5.9425001 -4.9475,-3.75 z" id="path2603" style="fill:#8d6b36;fill-opacity:1;fill-rule:nonzero;stroke:none" inkscape:connector-curvature="0"/>
  <path d="m 46.066117,4.4154999 2.03875,-5.86375 2.0375,5.865 6.20625,0.12875 -4.9475,3.74875 1.795,5.9437501 -5.09375,-3.5475 -5.09625,3.545 1.79875,-5.9425001 -4.9475,-3.75 z" id="path2607" style="fill:#8d6b36;fill-opacity:1;fill-rule:nonzero;stroke:none" inkscape:connector-curvature="0"/>
</svg>