<svg xmlns:inkscape="http://www.inkscape.org/namespaces/inkscape" xmlns:sodipodi="http://sodipodi.sourceforge.net/DTD/sodipodi-0.dtd" xmlns="http://www.w3.org/2000/svg" xmlns:svg="http://www.w3.org/2000/svg" xmlns:rdf="http://www.w3.org/1999/02/22-rdf-syntax-ns#" xmlns:cc="http://creativecommons.org/ns#" xmlns:dc="http://purl.org/dc/elements/1.1/" inkscape:version="1.2 (dc2aeda, 2022-05-15)" sodipodi:docname="Logo_Sampdoria.svg" id="svg32" version="1.1" viewBox="0 0 585.9334 741.1306" clip-rule="evenodd" fill-rule="evenodd" image-rendering="optimizeQuality" text-rendering="geometricPrecision" shape-rendering="geometricPrecision" height="700" width="553.2724" xml:space="preserve"><metadata id="metadata38"><rdf:RDF><cc:Work rdf:about=""><dc:format>image/svg+xml</dc:format><dc:type rdf:resource="http://purl.org/dc/dcmitype/StillImage"/></cc:Work></rdf:RDF></metadata><defs id="defs36"/><sodipodi:namedview inkscape:current-layer="svg32" inkscape:window-maximized="0" inkscape:window-y="25" inkscape:window-x="0" inkscape:cy="254.6667" inkscape:cx="404.16739" inkscape:zoom="0.48494758" showgrid="false" id="namedview34" inkscape:window-height="889" inkscape:window-width="1920" inkscape:pageshadow="2" inkscape:pageopacity="0" guidetolerance="10" gridtolerance="10" objecttolerance="10" borderopacity="1" bordercolor="#666666" pagecolor="#ffffff" inkscape:showpageshadow="2" inkscape:pagecheckerboard="0" inkscape:deskcolor="#d1d1d1"/>
 <path id="path11" style="fill:#ffffff;stroke-width:4.01038" d="M 3.1438233,4.3127518 V 346.49136 c 0,93.44546 35.2696817,184.89646 92.6797457,252.05153 59.531061,58.68827 130.882671,111.57263 197.143141,138.00993 66.26047,-26.4373 137.61208,-79.32166 197.14315,-138.00993 57.41006,-67.15507 92.67975,-158.60607 92.67975,-252.05153 V 4.3127518 Z" sodipodi:nodetypes="cscccscc"/><g id="g667" transform="matrix(0.9992856,0,0,0.9992856,0,0.28930368)"><path style="fill:#183a8d;fill-opacity:1;stroke-width:0.999999" d="M 578.9719,21.26874 V 6.1435335 H 423.56707 L 7.3840688,249.11015 v 97.33794 c 0,2.78539 0.033657,5.56985 0.09536,8.34526 L 87.731903,307.95782 c -11.803796,-2.51491 -22.228305,-5.73316 -29.37182,-8.85792 28.503692,-5.80577 102.268627,-64.18289 109.784267,-97.1097 14.94881,2.82278 22.22486,2.37435 32.83037,0.70305 -0.19882,-14.94321 8.26115,-29.0013 23.4312,-33.43687 -0.51762,-18.59276 15.48357,-33.74037 34.41439,-41.34122 20.1503,-8.08941 45.46109,-6.89304 55.85519,7.06944 9.71242,-5.95627 29.72815,-2.5551 39.41111,15.95102 -8.34995,1.98792 -10.62425,3.01226 -16.15298,5.48914 1.78816,0.81524 3.68665,1.54664 5.68359,2.19702 z" id="path15" sodipodi:nodetypes="ccccscccccccccccc"/><path style="fill:#a5192c;fill-opacity:1;stroke-width:0.999999" d="m 103.6371,408.5484 -80.079543,46.76178 c 3.425815,11.29615 7.36705,22.38569 11.795996,33.24152 l 86.785357,-50.6716 c 1.06143,-3.77638 1.70153,-7.35957 1.70153,-10.32915 -8.35555,0.99287 -22.04661,4.41088 -28.87895,5.86091 2.633935,-4.40308 6.50787,-14.86125 8.6756,-24.86349 z" id="path519"/><path style="fill:#a5192c;fill-opacity:1;stroke-width:0.999999" d="m 578.9719,171.15211 v -40.17184 l -157.0312,91.69835 3.72685,4.05593 c 10.57626,0.0897 32.69009,1.81621 50.11892,4.66362 z" id="path17" sodipodi:nodetypes="cccccc"/><path style="fill:#000000;fill-opacity:1;stroke-width:0.999999" d="m 35.355522,488.5517 c 3.350389,10.72429 8.887818,21.22079 14.532168,31.45891 l 72.4473,-42.29905 c 5.99586,-6.06752 11.48031,-12.61154 14.5839,-18.34221 -9.21163,0.0854 -15.95977,1.89598 -26.4485,2.91473 4.28281,-5.44521 9.15554,-15.4599 11.67042,-24.40383 z" id="path523" sodipodi:nodetypes="ccccccc"/><path style="fill:#000000;fill-opacity:1;stroke-width:0.999999" d="m 578.9719,211.09794 v -39.94608 l -103.18411,60.24467 c 0.11126,0.0181 0.22344,0.0371 0.33345,0.0552 11.90165,-0.90873 35.92713,-6.95818 47.16943,-9.83147 -5.23593,14.99499 -16.41318,27.99254 -22.68327,33.44214 -21.33971,13.55883 78.3645,-43.96446 78.3645,-43.96446 z" id="path19" sodipodi:nodetypes="ccccccc"/><path style="fill:#183a8d;fill-opacity:1;stroke-width:0.999999" d="m 569.50322,430.08988 c 6.19,-27.01138 9.46748,-55.01722 9.46748,-83.64251 l 0.002,-27.41554 -93.40321,54.50516 c -0.95704,23.33928 -2.70717,52.74274 -2.84399,62.7449 -25.19041,-5.51936 -38.54896,-20.01351 -48.35028,-32.86975 l -38.37229,22.39254 c 6.3776,14.03666 30.61197,30.66928 43.55165,36.87724 -31.50401,0.31912 -57.89096,7.95229 -97.56942,35.03981 -36.16086,24.6871 -63.45157,54.90958 -79.53734,80.7603 1.53791,-13.87961 1.03587,-47.0289 -2.90101,-73.04732 L 97.782894,600.22044 c 20.446996,23.50663 42.139786,44.80461 67.407936,64.62254 L 569.50327,430.0895 Z" id="path21" sodipodi:nodetypes="ccccccccccccccc"/></g><path style="fill:#000000;fill-opacity:1;stroke-width:0.999285" d="m 171.90542,210.25986 c -10.08821,31.33685 -72.969228,83.20902 -98.355775,88.73477 25.341727,4.96889 53.504345,8.32622 81.223505,5.14516 1.30419,5.03304 2.30974,11.00749 -0.78352,15.8372 -7.14067,-0.74085 -30.23651,2.42777 -37.37528,6.43936 1.14382,11.92803 0.18093,30.47133 -2.19764,41.81541 L 70.004017,368.12962 C 69.810942,361.21565 68.133986,354.46205 66.076803,348.539 l -29.256964,-0.008 c -4.810708,14.798 -5.314877,34.01381 0.135776,52.00488 l 28.887452,0.0471 c 2.321267,-5.67487 3.316847,-15.41429 4.015982,-20.80949 l 33.997881,-0.0112 c -3.39845,4.12153 -9.042175,9.00293 -14.267987,12.01988 l 23.521287,0.9137 c 0.0862,11.38679 -4.06893,24.63116 -7.74358,30.77187 6.50229,-1.37926 19.35271,-4.51642 27.30482,-4.51642 0,9.51925 -4.69517,30.79005 -10.49241,35.22345 13.19516,-2.97212 20.82322,-2.34465 27.76522,0.10557 -6.62779,11.83802 -22.47743,27.09043 -32.20658,34.05738 22.40674,-1.72274 90.59452,2.04505 116.55176,13.66104 1.93045,-12.97624 7.09243,-32.84303 17.13796,-44.79243 13.761,9.90199 21.23958,75.25678 18.84888,96.83864 17.0629,-28.90339 101.95553,-99.75565 146.58834,-96.7993 -10.70323,-6.51566 -23.88502,-17.52878 -29.27813,-31.07514 -4.19471,-10.53476 -3.67934,-22.60201 6.37523,-35.27623 7.50567,-9.45852 20.87927,-13.4499 32.45136,-7.61559 12.98059,6.54589 19.8541,32.14808 48.74849,43.38807 0.14699,-10.81225 2.22908,-40.63267 2.98334,-63.57605 0.43005,-13.08492 8.74945,-24.02951 26.28045,-18.51284 -7.5449,-14.32308 -15.53543,-44.80911 -17.28962,-57.7134 -9.53046,-3.14621 -16.19438,-9.31963 -24.89087,-16.72191 18.32475,-8.24184 37.85684,-21.437 49.57492,-39.50545 -10.70013,2.73513 -30.76888,8.48755 -41.9145,6.77041 -16.45785,-2.53552 -38.17756,-3.92846 -48.30753,-4.01503 l -12.31387,-12.40675 c 16.71601,-9.69552 55.24185,-30.22557 83.98787,-71.46753 -37.97237,11.72124 -133.7331,25.64376 -170.28594,8.97024 0.7072,-3.05964 4.97325,-9.28913 19.57726,-10.47996 -9.15677,-11.45063 -23.53498,-6.5705 -31.90257,-4.32023 -19.18299,-25.7705 -79.92249,-6.36744 -78.9036,30.16505 -12.14664,4.62884 -19.25368,10.41831 -23.35063,24.11297 8.75722,-4.98569 16.93958,-7.09831 24.54832,-6.33848 2.32002,21.59083 -52.14159,21.50209 -61.04923,18.63212 z" id="path23"/><path id="polygon25" style="fill:#1f1a17;stroke-width:4.01038" d="M 0,-0.09604157 V 350.78704 c 0,46.75315 8.661004,91.16474 24.289487,132.42249 16.550072,43.68973 40.912242,83.80598 71.077208,119.38315 25.644685,30.24639 55.485495,57.21964 88.282345,80.31892 33.29661,23.45153 69.65102,42.92246 107.76896,57.78553 l 1.54925,0.52951 1.54718,-0.52951 c 38.11794,-14.86307 74.47442,-34.334 107.77103,-57.78553 32.79685,-23.09928 62.63766,-50.07253 88.28234,-80.31892 30.16496,-35.57717 54.52715,-75.69342 71.07721,-119.38315 15.62849,-41.25775 24.28949,-85.66934 24.28949,-132.42249 V -0.09604157 Z M 8.519833,8.4237914 H 577.41467 V 350.78704 c 0,45.72479 -8.45714,89.1322 -23.72068,129.42535 -16.19183,42.74501 -40.05642,82.02532 -69.61483,116.88863 -25.16586,29.6809 -54.46576,56.16083 -86.68346,78.85241 -32.2884,22.74144 -67.50797,41.67896 -104.42845,56.21766 C 256.04677,717.63239 220.82721,698.69487 188.53879,675.95343 156.32111,653.26185 127.0212,626.78192 101.85534,597.10102 72.296928,562.23771 48.432342,522.9574 32.240504,480.21239 16.976973,439.91924 8.519833,396.51183 8.519833,350.78704 Z" sodipodi:nodetypes="cscccccccccsccccsccscsccsc"/>
</svg>