<svg xmlns:dc="http://purl.org/dc/elements/1.1/" xmlns:cc="http://web.resource.org/cc/" xmlns:rdf="http://www.w3.org/1999/02/22-rdf-syntax-ns#" xmlns:svg="http://www.w3.org/2000/svg" xmlns="http://www.w3.org/2000/svg" xmlns:xlink="http://www.w3.org/1999/xlink" xmlns:sodipodi="http://sodipodi.sourceforge.net/DTD/sodipodi-0.dtd" xmlns:inkscape="http://www.inkscape.org/namespaces/inkscape" width="448.65692" height="785.58173" id="svg58323" sodipodi:version="0.32" inkscape:version="0.44.1" version="1.0" sodipodi:docbase="C:\Documents and Settings\Jon Haradld Søby\Mine dokumenter\wikipedia\Norgeskart" sodipodi:docname="NO 0706 Sandefjord.svg">
  <defs id="defs58325">
    <linearGradient id="linearGradient60568">
      <stop id="stop60570" offset="0" style="stop-color:#f55;stop-opacity:1;"/>
      <stop id="stop60572" offset="1" style="stop-color:#c00;stop-opacity:1;"/>
    </linearGradient>
    <linearGradient id="linearGradient59583">
      <stop style="stop-color:#ccc;stop-opacity:1;" offset="0" id="stop59585"/>
      <stop style="stop-color:#aaa;stop-opacity:1;" offset="1" id="stop59587"/>
    </linearGradient>
    <linearGradient inkscape:collect="always" xlink:href="#linearGradient59583" id="linearGradient59589" x1="154.00181" y1="884.7723" x2="156.16323" y2="884.7723" gradientUnits="userSpaceOnUse"/>
    <linearGradient inkscape:collect="always" xlink:href="#linearGradient59583" id="linearGradient59591" x1="427.92578" y1="833.48298" x2="429.82578" y2="833.48298" gradientUnits="userSpaceOnUse"/>
    <linearGradient inkscape:collect="always" xlink:href="#linearGradient59583" id="linearGradient59593" x1="145.92578" y1="713.7502" x2="393.92578" y2="713.7502" gradientUnits="userSpaceOnUse"/>
    <linearGradient inkscape:collect="always" xlink:href="#linearGradient60568" id="linearGradient59595" x1="344.7796" y1="742.27472" x2="456.80432" y2="742.27472" gradientUnits="userSpaceOnUse"/>
    <linearGradient inkscape:collect="always" xlink:href="#linearGradient59583" id="linearGradient59597" x1="458.00231" y1="719.53109" x2="475.29535" y2="719.53109" gradientUnits="userSpaceOnUse"/>
    <linearGradient inkscape:collect="always" xlink:href="#linearGradient59583" id="linearGradient59599" x1="460.99959" y1="768.84221" x2="561.80432" y2="768.84221" gradientUnits="userSpaceOnUse"/>
    <linearGradient inkscape:collect="always" xlink:href="#linearGradient59583" id="linearGradient59601" x1="539.53619" y1="717.03848" x2="542.91094" y2="717.03848" gradientUnits="userSpaceOnUse"/>
    <linearGradient inkscape:collect="always" xlink:href="#linearGradient59583" id="linearGradient59603" x1="524.89716" y1="707.64791" x2="532.21611" y2="707.64791" gradientUnits="userSpaceOnUse"/>
    <linearGradient inkscape:collect="always" xlink:href="#linearGradient59583" id="linearGradient59605" x1="357.07099" y1="615.15163" x2="487.40505" y2="615.15163" gradientUnits="userSpaceOnUse"/>
    <linearGradient inkscape:collect="always" xlink:href="#linearGradient59583" id="linearGradient59607" x1="544.97489" y1="706.5842" x2="549.69115" y2="706.5842" gradientUnits="userSpaceOnUse"/>
    <linearGradient inkscape:collect="always" xlink:href="#linearGradient59583" id="linearGradient59609" x1="475.31525" y1="652.14645" x2="534.54683" y2="652.14645" gradientUnits="userSpaceOnUse"/>
    <linearGradient inkscape:collect="always" xlink:href="#linearGradient59583" id="linearGradient59611" x1="540.99959" y1="706.06633" x2="541.80433" y2="706.06633" gradientUnits="userSpaceOnUse"/>
    <linearGradient inkscape:collect="always" xlink:href="#linearGradient59583" id="linearGradient59613" x1="587.14679" y1="703.73244" x2="589.80994" y2="703.73244" gradientUnits="userSpaceOnUse"/>
    <linearGradient inkscape:collect="always" xlink:href="#linearGradient59583" id="linearGradient59615" x1="571.00023" y1="698.69445" x2="573.57573" y2="698.69445" gradientUnits="userSpaceOnUse"/>
    <linearGradient inkscape:collect="always" xlink:href="#linearGradient59583" id="linearGradient59617" x1="593.08367" y1="696.48298" x2="593.79614" y2="696.48298" gradientUnits="userSpaceOnUse"/>
    <linearGradient inkscape:collect="always" xlink:href="#linearGradient59583" id="linearGradient59619" x1="471.47569" y1="693.55069" x2="473.50912" y2="693.55069" gradientUnits="userSpaceOnUse"/>
    <linearGradient inkscape:collect="always" xlink:href="#linearGradient59583" id="linearGradient59621" x1="541.38085" y1="692.56074" x2="544.52182" y2="692.56074" gradientUnits="userSpaceOnUse"/>
    <linearGradient inkscape:collect="always" xlink:href="#linearGradient59583" id="linearGradient59623" x1="576.22145" y1="693.74719" x2="577.59164" y2="693.74719" gradientUnits="userSpaceOnUse"/>
    <linearGradient inkscape:collect="always" xlink:href="#linearGradient59583" id="linearGradient59625" x1="567.39916" y1="687.7422" x2="570.7777" y2="687.7422" gradientUnits="userSpaceOnUse"/>
    <linearGradient inkscape:collect="always" xlink:href="#linearGradient59583" id="linearGradient59627" x1="459.36495" y1="681.61805" x2="462.58156" y2="681.61805" gradientUnits="userSpaceOnUse"/>
    <linearGradient inkscape:collect="always" xlink:href="#linearGradient59583" id="linearGradient59629" x1="556.4414" y1="678.05295" x2="564.9711" y2="678.05295" gradientUnits="userSpaceOnUse"/>
    <linearGradient inkscape:collect="always" xlink:href="#linearGradient59583" id="linearGradient59631" x1="578.03926" y1="678.03884" x2="580.1595" y2="678.03884" gradientUnits="userSpaceOnUse"/>
    <linearGradient inkscape:collect="always" xlink:href="#linearGradient59583" id="linearGradient59633" x1="533.39131" y1="669.68838" x2="541.58318" y2="669.68838" gradientUnits="userSpaceOnUse"/>
    <linearGradient inkscape:collect="always" xlink:href="#linearGradient59583" id="linearGradient59635" x1="553.74449" y1="669.60829" x2="559.25509" y2="669.60829" gradientUnits="userSpaceOnUse"/>
    <linearGradient inkscape:collect="always" xlink:href="#linearGradient59583" id="linearGradient59637" x1="590.96937" y1="672.55317" x2="594.58269" y2="672.55317" gradientUnits="userSpaceOnUse"/>
    <linearGradient inkscape:collect="always" xlink:href="#linearGradient59583" id="linearGradient59639" x1="286.68034" y1="564.03015" x2="398.21303" y2="564.03015" gradientUnits="userSpaceOnUse"/>
    <linearGradient inkscape:collect="always" xlink:href="#linearGradient59583" id="linearGradient59641" x1="465.08367" y1="667.48298" x2="465.79612" y2="667.48298" gradientUnits="userSpaceOnUse"/>
    <linearGradient inkscape:collect="always" xlink:href="#linearGradient59583" id="linearGradient59643" x1="546.99959" y1="667.06633" x2="547.80433" y2="667.06633" gradientUnits="userSpaceOnUse"/>
    <linearGradient inkscape:collect="always" xlink:href="#linearGradient59583" id="linearGradient59645" x1="578.99881" y1="661.12779" x2="590.65005" y2="661.12779" gradientUnits="userSpaceOnUse"/>
    <linearGradient inkscape:collect="always" xlink:href="#linearGradient59583" id="linearGradient59647" x1="570.42172" y1="654.53004" x2="575.62136" y2="654.53004" gradientUnits="userSpaceOnUse"/>
    <linearGradient inkscape:collect="always" xlink:href="#linearGradient59583" id="linearGradient59649" x1="560.92578" y1="646.8129" x2="563.77772" y2="646.8129" gradientUnits="userSpaceOnUse"/>
    <linearGradient inkscape:collect="always" xlink:href="#linearGradient59583" id="linearGradient59651" x1="548.92578" y1="646.48298" x2="550.3548" y2="646.48298" gradientUnits="userSpaceOnUse"/>
    <linearGradient inkscape:collect="always" xlink:href="#linearGradient59583" id="linearGradient59653" x1="568.08367" y1="646.48298" x2="568.79614" y2="646.48298" gradientUnits="userSpaceOnUse"/>
    <linearGradient inkscape:collect="always" xlink:href="#linearGradient59583" id="linearGradient59655" x1="522.60863" y1="634.38676" x2="538.21599" y2="634.38676" gradientUnits="userSpaceOnUse"/>
    <linearGradient inkscape:collect="always" xlink:href="#linearGradient59583" id="linearGradient59657" x1="560.57747" y1="636.2702" x2="563.71703" y2="636.2702" gradientUnits="userSpaceOnUse"/>
    <linearGradient inkscape:collect="always" xlink:href="#linearGradient59583" id="linearGradient59659" x1="535.42401" y1="629.07985" x2="542.65966" y2="629.07985" gradientUnits="userSpaceOnUse"/>
    <linearGradient inkscape:collect="always" xlink:href="#linearGradient59583" id="linearGradient59661" x1="549.26082" y1="628.53394" x2="552.91652" y2="628.53394" gradientUnits="userSpaceOnUse"/>
    <linearGradient inkscape:collect="always" xlink:href="#linearGradient59583" id="linearGradient59663" x1="565.30833" y1="625.48298" x2="567.92578" y2="625.48298" gradientUnits="userSpaceOnUse"/>
    <linearGradient inkscape:collect="always" xlink:href="#linearGradient59583" id="linearGradient59665" x1="437.06894" y1="559.45772" x2="576.92578" y2="559.45772" gradientUnits="userSpaceOnUse"/>
    <linearGradient inkscape:collect="always" xlink:href="#linearGradient59583" id="linearGradient59667" x1="555.33412" y1="619.74374" x2="560.58803" y2="619.74374" gradientUnits="userSpaceOnUse"/>
    <linearGradient inkscape:collect="always" xlink:href="#linearGradient59583" id="linearGradient59669" x1="151.07679" y1="465.47595" x2="331.44179" y2="465.47595" gradientUnits="userSpaceOnUse"/>
    <linearGradient inkscape:collect="always" xlink:href="#linearGradient59583" id="linearGradient59671" x1="474.16635" y1="453.68231" x2="583.77643" y2="453.68231" gradientUnits="userSpaceOnUse"/>
    <linearGradient inkscape:collect="always" xlink:href="#linearGradient59583" id="linearGradient59673" x1="265.51634" y1="271.4251" x2="383.92578" y2="271.4251" gradientUnits="userSpaceOnUse"/>
    <linearGradient inkscape:collect="always" xlink:href="#linearGradient59583" id="linearGradient59675" x1="371.92578" y1="318.47678" x2="482.39102" y2="318.47678" gradientUnits="userSpaceOnUse"/>
    <linearGradient inkscape:collect="always" xlink:href="#linearGradient59583" id="linearGradient59677" x1="317.26135" y1="443.26014" x2="518.09372" y2="443.26014" gradientUnits="userSpaceOnUse"/>
    <linearGradient inkscape:collect="always" xlink:href="#linearGradient59583" id="linearGradient59679" x1="331.96141" y1="234.5212" x2="511.77771" y2="234.5212" gradientUnits="userSpaceOnUse"/>
    <linearGradient inkscape:collect="always" xlink:href="#linearGradient59583" id="linearGradient59681" x1="479.04833" y1="216.95966" x2="532.56378" y2="216.95966" gradientUnits="userSpaceOnUse"/>
  </defs>
  <sodipodi:namedview id="base" pagecolor="#ffffff" bordercolor="#666666" borderopacity="1.0" gridtolerance="10000" guidetolerance="10" objecttolerance="10" inkscape:pageopacity="0.0" inkscape:pageshadow="2" inkscape:zoom="0.65811103" inkscape:cx="224.32846" inkscape:cy="271.23083" inkscape:document-units="px" inkscape:current-layer="layer1" inkscape:window-width="1024" inkscape:window-height="717" inkscape:window-x="-4" inkscape:window-y="0"/>
  <metadata id="metadata58328">
    <rdf:RDF>
      <cc:Work rdf:about="">
        <dc:format>image/svg+xml</dc:format>
        <dc:type rdf:resource="http://purl.org/dc/dcmitype/StillImage"/>
      </cc:Work>
    </rdf:RDF>
  </metadata>
  <g inkscape:label="Layer 1" inkscape:groupmode="layer" id="layer1" transform="translate(-145.9258,-130.723)">
    <path style="fill:url(#linearGradient59589);fill-opacity:1.0" d="M 154.33414,886.10478 C 154.01651,885.27704 153.90719,883.90436 154.0912,883.05436 C 154.33016,881.95058 154.75603,882.21948 155.58137,883.99527 C 156.25357,885.44156 156.3552,886.71758 155.82431,887.04569 C 155.32235,887.35592 154.65177,886.93251 154.33414,886.10478 z " id="path58527"/>
    <path style="fill:url(#linearGradient59591);fill-opacity:1.0" d="M 427.92578,833.48298 C 427.92578,831.61631 428.19245,831.34965 429.12578,832.28298 C 430.05911,833.21631 430.05911,833.74965 429.12578,834.68298 C 428.19245,835.61631 427.92578,835.34965 427.92578,833.48298 z " id="path58511"/>
    <path id="path58535" style="fill:url(#linearGradient59593);fill-opacity:1.0" d="M 186.00472,914.89965 C 186.05271,913.7347 186.28966,913.49775 186.60889,914.29548 C 186.89776,915.01735 186.86223,915.87986 186.52994,916.21215 C 186.19765,916.54444 185.9613,915.95381 186.00472,914.89965 z M 198.67578,910.79365 C 197.71328,910.54213 196.92578,909.87118 196.92578,909.30267 C 196.92578,908.73415 197.63758,908.54215 198.50756,908.87599 C 199.37755,909.20984 200.50255,909.48298 201.00756,909.48298 C 201.51258,909.48298 201.92578,909.93298 201.92578,910.48298 C 201.92578,911.52285 201.58925,911.55502 198.67578,910.79365 z M 225.65618,909.88004 C 225.25446,909.47833 224.92578,908.09965 224.92578,906.81631 C 224.92578,903.69077 223.3143,903.86338 221.57929,907.17475 L 220.16893,909.86652 L 219.44975,906.5921 C 219.0542,904.79117 218.74365,899.97987 218.75966,895.90033 C 218.78215,890.16445 218.46856,888.48298 217.37632,888.48298 C 215.95584,888.48298 215.64472,889.35107 214.20788,897.32348 L 213.42561,901.66399 L 210.76796,899.57348 C 207.14013,896.71983 205.5542,896.86638 206.33642,899.98298 C 206.76818,901.70324 206.55247,902.48298 205.64483,902.48298 C 203.95925,902.48298 201.92578,900.46408 201.92578,898.79059 C 201.92578,896.5499 197.66051,892.48298 195.31054,892.48298 C 191.37436,892.48298 187.92578,894.31181 187.92578,896.39921 C 187.92578,897.48037 188.37578,898.64306 188.92578,898.98298 C 189.47578,899.3229 189.92578,900.93174 189.92578,902.55818 C 189.92578,906.84861 185.00719,909.12053 179.13935,907.54049 C 176.76801,906.90195 174.48276,905.5237 173.85716,904.35477 C 173.1556,903.04389 172.08459,902.46969 170.91266,902.77616 C 168.3886,903.43622 162.07835,897.49584 161.33026,893.75543 C 160.76483,890.92824 160.87176,890.82144 163.83268,891.25601 C 166.1754,891.59985 166.92578,891.32708 166.92578,890.13166 C 166.92578,889.26359 167.86137,888.05263 169.00488,887.44064 C 172.20049,885.73041 174.92578,883.16529 174.92578,881.86773 C 174.92578,880.2541 177.0403,879.59105 180.23731,880.2022 C 181.82957,880.50658 183.94014,880.04836 185.42392,879.07615 C 188.42874,877.10732 188.80936,871.84195 186.36907,866.00151 C 184.61266,861.79783 185.21025,856.98279 187.65841,855.61273 C 189.5207,854.57054 188.68526,851.48298 186.54098,851.48298 C 185.74482,851.48298 184.49584,850.13298 183.76548,848.48298 C 183.03512,846.83298 182.1323,845.48298 181.75922,845.48298 C 179.08161,845.48298 178.55706,829.0667 181.18006,827.3579 C 182.64069,826.40635 180.99878,820.48298 179.27439,820.48298 C 178.45353,820.48298 175.76099,821.66732 173.29097,823.11485 C 169.52192,825.32366 168.40828,825.56822 166.3629,824.63629 C 160.92492,822.15858 165.33491,815.48298 172.40969,815.48298 C 173.84817,815.48298 176.41413,814.76468 178.11184,813.88676 L 181.19859,812.29054 L 180.69919,798.40407 L 180.1998,784.51759 L 185.56279,778.32477 L 190.92578,772.13195 L 190.90578,765.05746 C 190.89479,761.1665 190.29977,754.38068 189.58353,749.97786 C 188.23141,741.66629 187.8604,741.01588 176.40266,726.87049 L 173.88155,723.75801 L 177.31545,713.37049 C 179.20409,707.65736 181.88481,698.70798 183.27261,693.48298 C 184.6604,688.25798 186.08266,683.23609 186.43318,682.32323 C 187.22296,680.2664 189.16698,679.77952 200.04256,678.91473 L 208.65935,678.22956 L 209.45286,655.10627 C 210.55689,622.93427 210.48047,613.99306 208.96799,598.3751 L 207.65018,584.76723 L 215.86469,576.91913 L 224.07921,569.07103 L 223.7525,564.02993 L 223.42578,558.98884 L 228.42578,555.65771 C 231.17578,553.82559 233.56458,551.72153 233.73423,550.98203 C 233.90387,550.24252 231.79087,547.24021 229.03866,544.31023 C 224.24573,539.20771 224.05728,538.79315 224.57138,534.48298 C 225.95437,522.88807 227.85379,515.97127 230.13211,514.23333 C 231.39363,513.27102 232.97799,512.0254 233.65291,511.46527 C 234.53701,510.73154 236.00268,511.4611 238.89609,514.07512 C 243.48398,518.22001 242.26237,518.21789 262.01822,514.11515 L 274.61066,511.50005 L 282.94161,515.99151 C 287.52363,518.46182 291.59922,520.48298 291.99848,520.48298 C 293.10131,520.48298 294.25008,544.48961 293.43191,550.43842 C 293.03657,553.3129 291.19437,558.66136 289.33815,562.32387 C 287.48192,565.98638 285.95477,569.84935 285.94449,570.90824 C 285.9342,571.96713 287.78654,578.71713 290.06079,585.90824 C 292.33505,593.09935 294.93103,602.61342 295.82965,607.05062 C 297.34071,614.51197 297.93184,615.67682 303.69549,622.55062 C 310.08222,630.16752 310.4137,630.91127 313.91145,645.47274 C 315.21755,650.91012 316.75521,654.76652 318.18826,656.19879 C 319.55271,657.5625 324.58909,659.65888 331.09558,661.57142 C 340.44345,664.31917 341.84305,665.01722 342.39233,667.20571 C 342.73715,668.5796 343.85219,671.56652 344.8702,673.84333 C 345.88821,676.12014 347.2442,680.00798 347.88352,682.48298 C 348.52284,684.95798 349.43633,688.51129 349.91352,690.37922 C 350.62161,693.15106 350.13125,695.60289 347.24628,703.71546 L 343.71143,713.65546 L 344.66512,728.44265 C 345.53245,741.89081 345.90564,743.84278 348.78638,749.99879 C 352.43442,757.79447 358.80995,768.64638 360.3647,769.70646 C 360.94829,770.10438 363.90078,770.92287 366.92578,771.52533 C 376.42783,773.41777 375.69677,772.49271 376.08052,783.10946 L 376.42578,792.66164 L 381.69561,797.32231 C 384.59402,799.88568 386.97074,802.43298 386.97721,802.98298 C 386.99366,804.38069 391.68019,809.56484 392.6385,809.24541 C 393.74609,808.87621 393.92578,809.77481 393.92578,815.68298 C 393.92578,819.72742 393.65911,820.61631 392.72578,819.68298 C 389.95629,816.91349 388.65411,820.40297 391.3371,823.40424 C 392.53775,824.74733 392.5522,826.17712 391.4339,832.98298 C 389.74824,843.24173 388.79379,845.57481 384.96445,848.79699 C 382.15245,851.16313 373.58596,854.48298 370.29242,854.48298 C 368.48537,854.48298 361.92578,861.47373 361.92578,863.39955 C 361.92578,864.28493 359.51615,866.89127 356.57105,869.19142 C 352.54842,872.33313 350.93141,873.08861 350.07105,872.22825 C 349.44115,871.59835 348.92578,870.5283 348.92578,869.85037 C 348.92578,868.34278 345.75628,867.22706 343.70725,868.01334 C 342.8821,868.32998 341.61766,869.69019 340.8974,871.03602 C 339.39421,873.84474 337.29176,874.10477 334.42578,871.83642 C 333.04017,870.73975 332.80978,870.10953 333.67578,869.78489 C 335.1622,869.22769 335.25379,864.61658 333.89539,858.72893 C 332.23884,851.54907 333.31888,850.75274 349.42578,847.27817 C 352.17578,846.68494 355.11737,845.60539 355.96266,844.87916 C 356.80794,844.15294 358.49544,843.81919 359.71266,844.1375 C 361.32284,844.55857 361.92578,844.27581 361.92578,843.09961 C 361.92578,842.21046 362.60078,841.48298 363.42578,841.48298 C 365.12502,841.48298 365.53463,836.9773 363.92578,835.98298 C 363.37578,835.64306 362.92578,834.079 362.92578,832.5073 C 362.92578,830.93559 362.36328,829.4434 361.67578,829.19131 C 360.67578,828.82465 360.67578,828.46798 361.67578,827.40798 C 363.21395,825.77752 363.31309,821.84038 361.83891,820.92929 C 360.08906,819.84783 353.25487,823.4653 352.04936,826.11109 C 351.44091,827.4465 350.15169,828.82463 349.18443,829.17361 C 348.21717,829.52258 346.75078,830.42871 345.92578,831.18722 C 342.46932,834.3651 333.46562,840.48298 332.24517,840.48298 C 331.51951,840.48298 330.92578,841.15798 330.92578,841.98298 C 330.92578,842.80798 330.30588,843.48298 329.54822,843.48298 C 328.79057,843.48298 327.57675,844.19861 326.85084,845.07328 C 325.64861,846.52188 325.41951,846.51111 324.27973,844.95236 C 322.72648,842.82816 315.92578,843.70404 315.92578,846.02829 C 315.92578,846.82837 315.47578,847.48298 314.92578,847.48298 C 314.37578,847.48298 313.92578,848.15798 313.92578,848.98298 C 313.92578,849.80798 313.47578,850.48298 312.92578,850.48298 C 312.37578,850.48298 311.92578,851.09729 311.92578,851.84812 C 311.92578,854.08106 307.92696,858.48298 305.89851,858.48298 C 303.68635,858.48298 302.29306,853.09748 303.37247,848.71902 C 305.29714,840.91188 305.29136,840.15185 303.31161,840.71737 C 302.2744,841.01366 300.60713,841.59223 299.60656,842.00308 C 297.87917,842.71238 297.86655,842.5605 299.35656,838.99441 C 300.21963,836.92879 300.92578,834.84369 300.92578,834.36086 C 300.92578,832.96748 298.74196,833.33936 296.84545,835.05568 C 295.26403,836.48684 294.82286,836.48112 291.94337,834.99208 C 288.84065,833.3876 288.81136,833.30656 290.43721,830.82519 C 293.84657,825.62185 290.03408,819.48298 283.39324,819.48298 C 277.44803,819.48298 276.22596,821.22771 277.81859,827.4418 C 278.7786,831.18756 278.79454,833.25665 277.8893,836.61846 C 275.67094,844.85682 279.83335,855.48298 285.27879,855.48298 C 286.87089,855.48298 287.05911,855.74965 286.12578,856.68298 C 285.46578,857.34298 284.92578,859.95697 284.92578,862.49185 C 284.92578,865.02673 284.26509,867.97423 283.45758,869.04185 C 280.98496,872.31095 281.57852,874.91343 285.0999,876.2426 C 288.14953,877.39371 288.2061,877.51575 286.54215,879.35439 C 285.58963,880.40692 284.47379,882.55393 284.06252,884.12553 C 283.65125,885.69713 282.32314,887.42895 281.11115,887.97404 C 277.66,889.52616 277.36847,892.25676 280.39938,894.64087 L 283.03471,896.71383 L 280.23025,898.23963 C 278.68779,899.07882 276.41328,899.70692 275.17578,899.63541 C 273.51187,899.53925 272.92578,900.05533 272.92578,901.61663 C 272.92578,903.35168 272.66631,903.51253 271.46958,902.51933 C 269.72252,901.0694 267.9374,901.95475 267.89537,904.292 C 267.86748,905.8432 267.78071,905.83833 266.84568,904.23298 C 265.59046,902.0779 264.25079,902.01511 262.24841,904.0175 C 261.07325,905.19265 260.39019,905.28337 259.33167,904.40487 C 258.26412,903.51888 257.81235,903.61499 257.34725,904.82703 C 256.8391,906.15125 256.33119,906.01259 254.09515,903.93921 C 251.80614,901.81672 251.61416,901.21161 252.68551,899.4961 C 254.38184,896.77985 254.24449,895.71891 252.10877,895.04106 C 251.10942,894.72388 249.67543,892.89355 248.92213,890.97367 C 247.09728,886.32283 244.86721,886.40406 242.17578,891.21941 C 240.70239,893.85552 240.54496,900.66833 241.85211,905.2261 C 242.36159,907.00255 242.47409,908.63229 242.10211,908.84775 C 240.67465,909.67455 226.34983,910.5737 225.65618,909.88004 z M 341.49054,890.58776 C 340.7644,889.41285 343.51066,888.38645 345.42004,889.11915 C 347.36692,889.86624 346.34492,891.48298 343.92578,891.48298 C 342.8907,891.48298 341.79484,891.08013 341.49054,890.58776 z M 149.95878,869.71079 C 148.56057,868.57859 147.70803,866.68267 147.598,864.46079 C 147.44443,861.35969 147.72365,860.94871 150.17578,860.66656 C 152.60192,860.3874 152.9359,859.91633 153.01173,856.66656 C 153.09705,853.01016 153.10405,853.00424 153.96042,855.86451 C 154.43493,857.44935 154.56256,860.04907 154.24404,861.64165 C 153.85251,863.59931 154.20841,865.13781 155.34277,866.39126 C 156.88895,868.09977 156.89358,868.37232 155.40177,869.86413 C 153.35225,871.91365 152.65494,871.89401 149.95878,869.71079 z M 313.17578,868.77725 C 310.52696,868.26706 310.51032,868.18708 312.3234,864.68096 C 314.19751,861.05683 316.7335,858.8791 321.30311,856.96979 L 325.10724,855.38032 L 324.39447,858.68165 C 324.00245,860.49738 322.82748,863.67048 321.78342,865.73298 C 319.85556,869.54139 318.89921,869.87963 313.17578,868.77725 z M 327.92578,864.542 C 327.92578,862.12743 328.48189,861.88384 329.27512,863.95095 C 329.58494,864.75834 329.40809,865.6849 328.88211,866.00997 C 328.35613,866.33505 327.92578,865.67446 327.92578,864.542 z M 158.42578,864.71767 C 157.87578,864.31359 157.36687,861.78888 157.29488,859.10721 L 157.16398,854.23144 L 159.14308,857.35721 C 160.23158,859.07638 161.46559,860.48298 161.88531,860.48298 C 162.30502,860.48298 162.43337,861.60798 162.17053,862.98298 C 161.69403,865.47561 160.32232,866.11103 158.42578,864.71767 z M 145.92578,851.59995 C 145.92578,850.52558 146.204,848.92153 146.54404,848.03538 C 147.09953,846.58781 147.29939,846.60489 148.51224,848.20359 C 150.34316,850.61699 150.25853,851.23453 147.92578,852.48298 C 146.24305,853.38355 145.92578,853.24347 145.92578,851.59995 z M 327.56415,851.98298 C 327.24757,851.15798 327.42443,850.48298 327.95716,850.48298 C 328.4899,850.48298 328.92578,851.15798 328.92578,851.98298 C 328.92578,852.80798 328.74892,853.48298 328.53277,853.48298 C 328.31661,853.48298 327.88074,852.80798 327.56415,851.98298 z M 351.53397,839.01258 C 350.49347,838.21097 349.18001,837.40106 348.61517,837.21278 C 348.05032,837.02449 349.68913,834.67776 352.25698,831.99781 L 356.92578,827.12518 L 356.92578,830.24506 C 356.92578,831.961 357.27958,833.58361 357.712,833.85086 C 358.14442,834.11811 358.44515,835.60717 358.38029,837.15987 C 358.28784,839.37291 357.73976,840.03561 355.84406,840.22651 C 354.51401,840.36046 352.57447,839.81419 351.53397,839.01258 z M 176.00472,828.89965 C 176.05271,827.7347 176.28966,827.49775 176.60889,828.29548 C 176.89776,829.01735 176.86223,829.87986 176.52994,830.21215 C 176.19765,830.54444 175.9613,829.95381 176.00472,828.89965 z "/>
    <path id="path58509" style="fill:url(#linearGradient59595);fill-opacity:1.0" d="M 414.72616,832.24957 C 413.9279,831.00295 412.70323,827.73298 412.00467,824.98298 C 410.06464,817.34565 408.76367,814.10237 407.09525,812.74393 C 405.76424,811.66021 405.97224,811.00864 408.75428,807.54676 C 410.50373,805.3698 412.38301,802.41058 412.93044,800.97072 C 414.1647,797.72438 414.24224,787.7966 413.03914,787.05304 C 412.55149,786.75166 411.84376,784.85931 411.4664,782.84783 C 410.63788,778.43139 408.20429,774.48298 406.31077,774.48298 C 405.54903,774.48298 404.92578,775.35642 404.92578,776.42396 C 404.92578,777.4915 404.41054,778.68338 403.78079,779.07259 C 402.98152,779.56656 402.80044,778.91901 403.18105,776.92797 C 403.48093,775.35922 403.27742,769.46897 402.7288,763.83851 C 401.7741,754.04058 401.83042,753.42496 404.0413,749.49122 C 405.81165,746.34133 406.10282,744.98419 405.28768,743.68205 C 403.96684,741.5721 399.73102,740.98166 396.87613,742.50955 C 395.05942,743.48183 394.82853,744.225 395.38128,747.3212 C 396.2321,752.08713 396.19203,754.18654 395.04415,764.98298 C 394.51499,769.95995 394.46901,774.37847 394.94128,774.86774 C 395.41749,775.36109 395.11193,776.79544 394.25059,778.11002 C 393.401,779.40665 392.95739,781.12298 393.2648,781.92407 C 393.60003,782.79765 393.07605,783.6179 391.9556,783.97352 C 389.46526,784.76392 388.22089,791.79737 389.98741,795.09813 C 390.68939,796.4098 391.62358,797.48298 392.06337,797.48298 C 392.50317,797.48298 392.60399,798.15798 392.28741,798.98298 C 391.26554,801.64593 387.54598,800.54696 382.42578,796.06931 L 377.42578,791.69678 L 377.08052,782.12703 C 376.69676,771.49042 377.42865,772.41793 367.92578,770.52533 C 364.90078,769.92287 361.94829,769.10438 361.3647,768.70646 C 359.8125,767.64811 353.43667,756.79928 349.8013,749.03067 C 346.98335,743.00885 346.54942,740.81931 345.71412,728.40738 L 344.7796,714.52117 L 348.40882,704.22948 C 352.29374,693.21268 352.2775,693.9972 348.87374,681.76894 C 347.75227,677.73994 347.83985,677.37928 350.8684,673.55543 C 354.0167,669.58037 354.0319,669.50505 353.35919,661.21423 C 352.68901,652.95457 352.70865,652.85527 355.35581,651.12078 C 358.00287,649.38636 358.09453,649.41027 364.63744,653.54249 L 371.24561,657.71593 L 380.17355,657.01751 C 386.64651,656.51114 390.98712,655.51669 395.95883,653.40103 C 399.73036,651.7961 403.4492,650.48298 404.22293,650.48298 C 406.03391,650.48298 411.38098,662.25728 413.03295,669.88276 C 414.28397,675.65742 414.53394,675.97552 424.82011,684.88276 C 430.60009,689.88788 438.85278,697.35798 443.15943,701.48298 L 450.98971,708.98298 L 449.57741,713.66056 C 448.80064,716.23322 447.21126,719.67769 446.04544,721.31493 C 443.36445,725.08003 443.31784,727.48298 445.92578,727.48298 C 447.25911,727.48298 447.92578,728.14965 447.92578,729.48298 C 447.92578,731.61785 450.89797,732.35111 450.96582,730.23298 C 450.98784,729.54548 451.70504,730.27359 452.5596,731.85101 C 453.63109,733.82887 453.91944,736.00151 453.48861,738.85101 C 452.72284,743.91579 452.10546,748.60059 452.00275,750.12599 C 451.83343,752.6405 448.9929,752.3239 447.65468,749.64136 C 446.09756,746.52005 446.43499,744.48298 448.50911,744.48298 C 449.28828,744.48298 449.92578,743.80798 449.92578,742.98298 C 449.92578,742.15798 449.47578,741.48298 448.92578,741.48298 C 448.37578,741.48298 447.92578,740.80798 447.92578,739.98298 C 447.92578,739.15798 447.25078,738.48298 446.42578,738.48298 C 445.60078,738.48298 444.92578,738.93298 444.92578,739.48298 C 444.92578,741.93037 441.8255,740.23159 441.27578,737.48298 C 440.86378,735.423 440.0852,734.48298 438.79099,734.48298 C 437.75436,734.48298 436.1356,733.58298 435.19375,732.48298 C 432.95195,729.86475 429.29649,729.92179 427.86457,732.59735 C 426.25498,735.6049 427.58973,742.92653 430.34951,746.22823 C 431.61594,747.74334 432.99934,750.10798 433.42373,751.48298 C 433.84812,752.85798 434.57942,754.23128 435.04885,754.53476 C 435.51829,754.83824 436.34662,757.42906 436.88959,760.29213 C 437.43256,763.15521 438.77158,766.73191 439.86519,768.24035 C 441.4073,770.36742 441.97026,773.16239 442.37347,780.69343 C 442.98961,792.20155 442.61542,793.69417 439.32152,792.86746 C 437.05668,792.29902 436.92578,792.51487 436.92578,796.81804 C 436.92578,800.75234 437.30899,801.59628 439.75026,803.03837 C 442.36126,804.58073 442.52013,805.01958 441.85218,808.8449 C 440.79801,814.88214 439.32526,819.10053 436.90385,823.01846 C 434.47551,826.9476 432.30126,827.70414 433.41342,824.23298 C 435.3351,818.2352 435.09514,815.72647 432.03789,809.85216 L 428.96347,803.94485 L 429.9394,792.82354 C 430.7184,783.94644 430.63855,781.02429 429.54367,778.34261 C 428.78925,776.49481 427.86067,772.73298 427.48015,769.98298 C 425.76952,757.62028 420.54197,744.49 417.32855,744.48477 C 416.72171,744.48378 415.44173,748.97806 414.46466,754.54051 C 412.79796,764.02902 412.79399,764.84937 414.3946,769.04051 C 415.32773,771.48387 416.50398,773.48298 417.00849,773.48298 C 417.513,773.48298 417.92578,774.29298 417.92578,775.28298 C 417.92578,776.27298 418.33619,777.51048 418.83779,778.03298 C 419.94901,779.19048 420.96607,788.76904 420.87108,797.18223 C 420.83259,800.59182 421.29996,804.31362 421.90968,805.4529 C 423.41249,808.26092 422.33583,809.75601 419.90438,808.23754 C 417.10819,806.49129 414.9479,808.6875 416.70082,811.49437 C 417.37455,812.57318 417.92578,814.15278 417.92578,815.00459 C 417.92578,815.85641 418.56749,817.55001 419.3518,818.76816 C 420.13612,819.98631 421.07862,822.6301 421.44626,824.64324 C 422.02532,827.8141 421.71778,828.71884 419.14612,831.40983 L 416.17754,834.51616 L 414.72616,832.24957 z M 442.00473,798.89965 C 442.05271,797.7347 442.28967,797.49775 442.60889,798.29548 C 442.89776,799.01735 442.86224,799.87986 442.52995,800.21215 C 442.19766,800.54444 441.96131,799.95381 442.00473,798.89965 z M 409.08367,795.48298 C 409.08367,794.10798 409.31065,793.54548 409.58806,794.23298 C 409.86547,794.92048 409.86547,796.04548 409.58806,796.73298 C 409.31065,797.42048 409.08367,796.85798 409.08367,795.48298 z M 455.00473,789.89965 C 455.05271,788.7347 455.28967,788.49775 455.60889,789.29548 C 455.89776,790.01735 455.86224,790.87986 455.52995,791.21215 C 455.19766,791.54444 454.96131,790.95381 455.00473,789.89965 z M 456.00473,778.89965 C 456.05271,777.7347 456.28967,777.49775 456.60889,778.29548 C 456.89776,779.01735 456.86224,779.87986 456.52995,780.21215 C 456.19766,780.54444 455.96131,779.95381 456.00473,778.89965 z M 423.00473,769.89965 C 423.05271,768.7347 423.28967,768.49775 423.60889,769.29548 C 423.89776,770.01735 423.86224,770.87986 423.52995,771.21215 C 423.19766,771.54444 422.96131,770.95381 423.00473,769.89965 z M 421.37193,764.39585 C 421.00239,763.79792 421.20084,762.80792 421.81291,762.19585 C 422.63007,761.37869 422.92578,761.66756 422.92578,763.28298 C 422.92578,765.69749 422.40632,766.06953 421.37193,764.39585 z M 441.00473,761.89965 C 441.05271,760.7347 441.28967,760.49775 441.60889,761.29548 C 441.89776,762.01735 441.86224,762.87986 441.52995,763.21215 C 441.19766,763.54444 440.96131,762.95381 441.00473,761.89965 z M 448.92578,757.042 C 448.92578,756.24946 449.37578,755.3229 449.92578,754.98298 C 450.47578,754.64306 450.92578,755.2915 450.92578,756.42396 C 450.92578,757.55642 450.47578,758.48298 449.92578,758.48298 C 449.37578,758.48298 448.92578,757.83454 448.92578,757.042 z M 418.00473,755.89965 C 418.05271,754.7347 418.28967,754.49775 418.60889,755.29548 C 418.89776,756.01735 418.86224,756.87986 418.52995,757.21215 C 418.19766,757.54444 417.96131,756.95381 418.00473,755.89965 z "/>
    <path style="fill:url(#linearGradient59597);fill-opacity:1.0" d="M 470.05131,735.29315 C 469.57241,734.02256 468.8625,731.52048 468.47373,729.73298 C 467.4958,725.23664 465.38035,725.66963 463.58806,730.73298 L 462.08367,734.98298 L 462.00473,730.73298 C 461.94969,727.77013 461.49673,726.48298 460.50911,726.48298 C 459.72995,726.48298 458.86547,727.04548 458.58806,727.73298 C 458.31065,728.42048 458.04815,727.92724 458.00473,726.63689 C 457.90741,723.74499 460.76457,713.69877 462.45672,710.98298 C 463.14211,709.88298 464.2361,707.30102 464.88782,705.2453 C 466.04799,701.58573 466.129,701.53671 468.76461,702.89964 C 470.24513,703.66524 472.19205,706.0222 473.0911,708.13732 C 475.35483,713.46302 476.07206,725.97676 474.30742,729.3587 C 473.55429,730.80205 472.93533,732.96892 472.93194,734.17396 C 472.92314,737.30513 471.0796,738.02138 470.05131,735.29315 z " id="path58445"/>
    <path id="path58507" style="fill:url(#linearGradient59599);fill-opacity:1.0" d="M 513.00395,830.21633 C 511.83302,827.12172 512.60426,826.71702 515.03683,829.14959 C 516.85305,830.96581 516.90356,831.27753 515.47067,831.82738 C 514.37136,832.24922 513.57681,831.73029 513.00395,830.21633 z M 553.00473,830.89965 C 553.05271,829.7347 553.28967,829.49775 553.60889,830.29548 C 553.89776,831.01735 553.86224,831.87986 553.52995,832.21215 C 553.19766,832.54444 552.96131,831.95381 553.00473,830.89965 z M 495.00473,828.89965 C 495.05271,827.7347 495.28967,827.49775 495.60889,828.29548 C 495.89776,829.01735 495.86224,829.87986 495.52995,830.21215 C 495.19766,830.54444 494.96131,829.95381 495.00473,828.89965 z M 548.2786,828.15119 C 548.63455,827.14371 548.92578,825.45621 548.92578,824.40119 C 548.92578,823.34618 549.38435,822.48298 549.94483,822.48298 C 551.15335,822.48298 550.15215,827.507 548.64949,828.98298 C 547.9624,829.65788 547.84182,829.38746 548.2786,828.15119 z M 561.00473,827.89965 C 561.05271,826.7347 561.28967,826.49775 561.60889,827.29548 C 561.89776,828.01735 561.86224,828.87986 561.52995,829.21215 C 561.19766,829.54444 560.96131,828.95381 561.00473,827.89965 z M 485.5655,822.73298 C 485.29322,821.77048 484.77067,818.62048 484.40428,815.73298 C 484.03788,812.84548 483.33033,810.48298 482.83194,810.48298 C 482.33355,810.48298 481.92578,809.87038 481.92578,809.12165 C 481.92578,808.20879 482.74937,807.91776 484.42578,808.23823 C 486.84304,808.70032 486.92578,808.53725 486.92578,803.311 C 486.92578,799.88016 487.65631,796.47298 488.92578,793.98298 C 491.67724,788.58616 491.44573,785.42557 488.01771,781.58595 C 485.48266,778.74651 485.22612,777.92255 486.01771,775.16244 C 487.26412,770.81646 487.19424,770.48298 485.03707,770.48298 C 483.65737,770.48298 482.96482,771.46134 482.46732,774.11323 C 482.03698,776.40718 481.43643,777.39363 480.83585,776.79305 C 480.23528,776.19248 480.27275,771.63527 480.93767,764.4128 C 481.5164,758.1264 482.26709,749.04548 482.60587,744.23298 C 483.14287,736.60449 483.4592,735.48298 485.0738,735.48298 C 486.29085,735.48298 486.92578,734.76014 486.92578,733.37457 C 486.92578,731.68887 486.47469,731.3784 484.67578,731.82599 C 482.49293,732.36911 482.41886,732.14106 482.19406,724.1844 C 481.89221,713.50096 482.34325,711.51788 484.92161,712.19214 C 486.05454,712.48841 486.92578,712.2247 486.92578,711.58552 C 486.92578,710.96361 488.35419,709.1785 490.10003,707.61859 C 492.91855,705.10025 493.54223,704.92141 495.66514,706.02278 C 500.30077,708.42778 509.92578,716.49943 509.92578,717.98194 C 509.92578,719.98162 512.59161,719.90253 513.72958,717.86909 C 514.97565,715.64248 518.77959,716.96827 519.94579,720.03562 C 520.5667,721.66872 520.39872,723.50016 519.41128,725.86344 C 517.9886,729.26839 517.92693,729.29613 514.27249,728.17455 C 511.41609,727.2979 510.4809,727.31763 510.16639,728.26116 C 509.54483,730.12582 508.22066,729.71859 507.63603,727.48298 C 506.8583,724.50894 503.11516,724.88026 502.3298,728.00936 C 501.98106,729.39887 500.80239,731.01384 499.71053,731.59818 C 498.03782,732.49339 497.82407,733.31907 498.35262,736.84366 C 498.79683,739.80589 498.54351,741.60402 497.48464,743.00484 C 494.05342,747.54415 496.91389,750.43525 501.03636,746.59458 C 502.15119,745.55597 503.89384,744.92337 504.90893,745.18882 C 506.09133,745.49803 507.1573,744.91891 507.87534,743.57722 C 509.42735,740.67727 511.92578,740.89115 511.92578,743.92396 C 511.92578,745.2665 511.47578,746.64306 510.92578,746.98298 C 510.37578,747.3229 509.92578,748.75456 509.92578,750.16444 C 509.92578,752.29539 509.6801,752.52398 508.46958,751.51933 C 506.68431,750.03769 504.92578,750.97446 504.92578,753.40714 C 504.92578,754.40051 504.09122,756.28645 503.07121,757.59812 C 500.34012,761.11012 498.62135,767.21959 499.25899,771.14889 C 499.56686,773.04607 499.56969,775.24736 499.26528,776.04064 C 498.64172,777.66561 495.92578,778.02535 495.92578,776.48298 C 495.92578,775.93298 495.25078,775.48298 494.42578,775.48298 C 492.69476,775.48298 492.26326,781.95548 493.92578,782.98298 C 494.47578,783.3229 494.92578,785.7979 494.92578,788.48298 C 494.92578,793.73138 496.4868,795.80381 498.43412,793.14069 C 499.42625,791.78387 499.75429,792.8747 500.29157,799.31713 C 501.13988,809.48914 500.35627,813.10483 496.72092,815.79256 C 495.11188,816.98218 493.09845,819.42418 492.24664,821.21924 C 490.50849,824.88214 486.43458,825.80516 485.5655,822.73298 z M 555.51289,821.2651 C 553.62376,816.83971 553.57454,815.78898 555.0572,811.53583 C 556.31986,807.91377 557.8833,809.0081 557.91047,813.53298 C 557.91889,814.93548 558.29499,816.51048 558.74624,817.03298 C 559.1975,817.55548 559.01169,819.55798 558.33335,821.48298 L 557.1,824.98298 L 555.51289,821.2651 z M 507.55003,819.73298 C 507.26925,818.77048 506.73566,813.43689 506.36429,807.88056 C 505.7161,798.18268 505.77304,797.75619 507.78614,797.22975 C 509.64884,796.74264 509.95587,797.22907 510.53333,801.58217 C 511.00883,805.16666 511.61887,806.48322 512.80461,806.48386 C 514.16014,806.48459 514.44293,805.13274 514.53042,798.23386 C 514.66374,787.72097 515.6472,783.28268 517.75348,783.68831 C 519.09171,783.94603 519.3817,786.10201 519.60967,797.48837 C 519.75827,804.9104 519.41124,813.33122 518.8385,816.20129 C 517.88199,820.99442 517.64146,821.32237 515.88642,820.22633 C 514.39991,819.29799 513.70374,819.30502 512.75074,820.25802 C 510.96692,822.04184 508.14034,821.75648 507.55003,819.73298 z M 527.55399,813.37611 C 523.91978,801.2889 522.21488,792.98421 523.93197,795.73298 C 524.53323,796.69548 525.66197,797.48298 526.44029,797.48298 C 528.715,797.48298 529.62273,800.53917 529.35818,807.30704 C 529.11373,813.56086 528.3659,816.07647 527.55399,813.37611 z M 504.29079,793.26456 C 503.87662,792.59443 503.38398,786.85693 503.19602,780.51456 C 502.87191,769.57809 502.93598,769.12643 504.43751,771.76265 C 506.67035,775.68283 508.1305,774.14568 507.89642,768.12134 C 507.68278,762.62302 508.60457,758.48298 510.04241,758.48298 C 510.52826,758.48298 510.97318,759.27048 511.03111,760.23298 C 511.08904,761.19548 511.22148,763.78298 511.32543,765.98298 C 511.42938,768.18298 511.86753,770.73765 512.29909,771.66002 C 512.91923,772.9854 512.6773,773.23076 511.14535,772.83015 C 509.54238,772.41096 509.10069,772.98599 508.59295,776.15311 C 508.25526,778.25954 507.68575,781.44548 507.32737,783.23298 C 506.80597,785.83363 507.00045,786.48298 508.30078,786.48298 C 509.41388,786.48298 509.92578,787.36503 509.92578,789.28298 C 509.92578,793.59356 506.14511,796.26491 504.29079,793.26456 z M 539.9677,785.46817 C 540.02097,783.58039 543.82751,776.55126 543.88386,778.2366 C 543.90692,778.9261 543.02578,781.16943 541.92578,783.2218 C 540.82578,785.27416 539.94464,786.28503 539.9677,785.46817 z M 534.48699,780.173 C 532.76181,777.5804 532.74274,777.23745 534.24044,775.73975 C 536.52944,773.45075 539.92578,773.36751 539.92578,775.60041 C 539.92578,776.58116 539.30094,777.74346 538.53725,778.18329 C 537.77356,778.62312 536.97054,779.88298 536.75276,780.98298 C 536.39215,782.80447 536.18992,782.73218 534.48699,780.173 z M 516.33394,779.10424 C 515.59552,777.17996 517.72998,773.25245 519.24348,773.75054 C 521.36511,774.44877 521.18287,778.27502 518.97163,779.45844 C 517.3338,780.33498 516.77755,780.26028 516.33394,779.10424 z M 547.08367,777.48298 C 547.08367,776.10798 547.31065,775.54548 547.58806,776.23298 C 547.86547,776.92048 547.86547,778.04548 547.58806,778.73298 C 547.31065,779.42048 547.08367,778.85798 547.08367,777.48298 z M 519.92578,765.98298 C 519.92578,765.15798 519.47578,764.48298 518.92578,764.48298 C 518.37578,764.48298 517.92578,763.06324 517.92578,761.32799 C 517.92578,758.23635 517.96593,758.20934 519.92578,759.98298 C 521.97592,761.83833 522.72854,767.48298 520.92578,767.48298 C 520.37578,767.48298 519.92578,766.80798 519.92578,765.98298 z M 463.49999,764.81576 C 463.14811,763.89879 463.32497,762.68379 463.893,762.11576 C 464.60337,761.40539 464.92578,761.92584 464.92578,763.78298 C 464.92578,766.86783 464.42628,767.22965 463.49999,764.81576 z M 530.15691,762.02181 C 527.6198,756.79968 527.54941,756.48298 528.92578,756.48298 C 529.47578,756.48298 529.92578,757.10309 529.92578,757.86101 C 529.92578,758.61892 530.92437,759.90208 532.14488,760.71246 C 533.96117,761.91843 534.18464,762.58779 533.376,764.40001 C 532.44772,766.48038 532.25325,766.33672 530.15691,762.02181 z M 468.29225,763.32543 C 468.43457,761.99055 468.90021,760.33336 469.32701,759.64279 C 470.52773,757.69998 469.15276,755.1819 467.28297,755.89941 C 465.89368,756.43253 465.73787,755.9206 466.21249,752.38208 C 466.94835,746.89583 468.02854,745.94282 471.57747,747.64878 C 474.27274,748.94439 474.40648,749.31161 474.06665,754.48345 C 473.77923,758.85773 473.1411,760.5283 470.87051,762.85072 L 468.03348,765.75249 L 468.29225,763.32543 z M 461.00473,746.89965 C 461.05271,745.7347 461.28967,745.49775 461.60889,746.29548 C 461.89776,747.01735 461.86224,747.87986 461.52995,748.21215 C 461.19766,748.54444 460.96131,747.95381 461.00473,746.89965 z M 515.92578,745.59729 C 515.92578,745.11016 516.59801,743.42266 517.41962,741.84729 C 518.24123,740.27192 518.91623,738.15798 518.91962,737.14965 C 518.92308,736.11947 519.47339,735.50673 520.17578,735.75096 C 521.91112,736.35437 521.62875,744.42463 519.83252,745.56178 C 518.01591,746.71184 515.92578,746.73083 515.92578,745.59729 z M 528.59245,740.81631 C 528.22578,740.44965 527.92578,739.68465 527.92578,739.11631 C 527.92578,738.48971 528.39155,738.54875 529.10911,739.26631 C 529.75995,739.91715 530.05995,740.68215 529.77578,740.96631 C 529.49161,741.25048 528.95911,741.18298 528.59245,740.81631 z M 529.38466,735.41645 C 528.30839,733.67501 529.53418,733.30621 530.90572,734.95881 C 531.69447,735.9092 531.77034,736.48298 531.10724,736.48298 C 530.52236,736.48298 529.7472,736.00304 529.38466,735.41645 z M 544.0068,731.63437 C 542.66188,729.12137 542.62239,727.48298 543.90673,727.48298 C 545.00471,727.48298 546.46799,732.2741 545.6269,733.1152 C 545.3304,733.41169 544.60136,732.74532 544.0068,731.63437 z M 531.35278,725.00445 C 530.29293,724.20263 529.87578,723.53917 530.42578,723.5301 C 531.91172,723.50559 534.45151,725.29058 533.82382,725.91827 C 533.5246,726.2175 532.41263,725.80628 531.35278,725.00445 z "/>
    <path style="fill:url(#linearGradient59601);fill-opacity:1.0" d="M 540.45513,717.53973 C 539.37871,715.45816 539.25754,714.39598 540.04125,713.91162 C 541.42592,713.05584 542.89024,715.26127 542.91047,718.23298 C 542.931,721.25069 542.27893,721.06658 540.45513,717.53973 z " id="path58437"/>
    <path style="fill:url(#linearGradient59603);fill-opacity:1.0" d="M 529.01173,712.66559 C 528.94318,710.81731 528.52092,710.4767 526.92578,710.98298 C 524.19807,711.84872 524.22579,708.14341 526.98083,703.62443 C 528.92392,700.43726 529.12322,700.35168 530.88638,701.94733 C 532.80587,703.68444 532.77983,703.97247 529.93374,712.48298 C 529.10505,714.96095 529.09693,714.96256 529.01173,712.66559 z " id="path58435"/>
    <path style="fill:url(#linearGradient59605);fill-opacity:1.0" d="M 453.11126,710.53987 C 451.76023,707.4877 441.60468,697.57146 425.81081,683.88276 C 415.53651,674.97792 415.28363,674.65586 414.03295,668.88276 C 413.32999,665.63788 411.37668,659.94548 409.69227,656.23298 C 406.06868,648.24647 405.24852,648.02646 395.12097,652.32408 C 391.43861,653.88669 385.92641,655.42008 382.87162,655.73162 L 377.31746,656.29805 L 375.75733,652.64051 C 372.47127,644.93674 356.43628,594.59293 357.09045,594.03358 C 357.27488,593.87589 358.76603,593.05858 360.40412,592.21734 C 363.24898,590.75636 363.6848,590.84007 370.12915,594.0854 C 373.83984,595.95407 377.67459,597.4772 378.65082,597.47013 C 379.72268,597.46237 382.17823,594.81936 384.8498,590.7979 L 389.27381,584.13852 L 388.0998,577.29219 C 387.45409,573.52671 386.92578,570.00806 386.92578,569.47297 C 386.92578,568.93788 389.43448,567.08425 392.50068,565.3538 L 398.07557,562.20753 L 397.25068,557.09525 C 396.09484,549.932 396.29883,537.41205 397.72459,528.00821 C 399.43916,516.69951 399.7149,516.00043 401.76635,517.76139 C 402.67903,518.54484 405.32003,520.22531 407.63523,521.49576 L 411.84467,523.80568 L 412.13523,530.89433 L 412.42578,537.98298 L 416.30777,538.30121 C 419.5477,538.56681 420.73373,538.09222 423.4786,535.43179 L 426.76743,532.24412 L 428.98554,537.40026 C 430.2055,540.23613 432.18163,543.32737 433.37694,544.26969 C 436.71222,546.89902 438.45508,556.62249 437.04375,564.72692 C 435.36472,574.36866 435.44438,574.6447 440.94375,578.24067 C 445.91253,581.48969 445.92578,581.51285 445.92578,586.95193 L 445.92578,592.4055 L 450.84721,593.86701 C 459.03161,596.29751 459.92578,597.05601 459.92578,601.56807 L 459.92578,605.58279 L 465.67578,605.28288 L 471.42578,604.98298 L 471.92578,598.98298 C 472.20078,595.68298 472.87578,593.02114 473.42578,593.06778 C 473.97578,593.11443 475.9107,593.51266 477.72559,593.95275 C 480.60994,594.65216 480.96284,595.08215 480.52851,597.36794 C 480.25522,598.80621 479.74058,602.34548 479.38486,605.23298 L 478.7381,610.48298 L 482.89933,610.48298 C 486.39018,610.48298 486.97833,610.7649 486.55013,612.23298 C 484.90083,617.88761 484.84085,623.80994 486.3711,629.91164 C 487.27854,633.52997 487.66207,637.0728 487.22339,637.78459 C 484.97401,641.43434 477.57531,650.48298 476.84043,650.48298 C 476.37565,650.48298 474.45781,649.13298 472.57856,647.48298 C 467.38658,642.92436 465.71962,643.4011 466.45959,649.23298 C 467.08802,654.18587 466.40477,655.96238 458.59738,669.67542 C 456.18938,673.90487 455.92578,675.36157 455.92578,684.43899 C 455.92578,690.73731 455.45751,695.27708 454.67578,696.55745 C 453.64662,698.24308 453.69079,698.81487 454.92578,699.79388 C 456.81424,701.29092 457.18039,707.7636 455.55396,710.89855 L 454.32153,713.27407 L 453.11126,710.53987 z " id="path58433"/>
    <path style="fill:url(#linearGradient59607);fill-opacity:1.0" d="M 547.03978,707.90078 C 544.61013,704.81198 544.25081,702.28674 546.3559,703.09454 C 547.73996,703.62565 550.33502,709.40707 549.54429,710.1978 C 549.32952,710.41258 548.20249,709.37892 547.03978,707.90078 z " id="path58431"/>
    <path style="fill:url(#linearGradient59609);fill-opacity:1.0" d="M 516.1261,706.43214 C 515.4566,705.3601 514.23765,704.48298 513.41731,704.48298 C 512.59697,704.48298 511.92578,703.9805 511.92578,703.36635 C 511.92578,702.74205 511.04397,702.48032 509.92578,702.77273 C 508.82578,703.06039 507.92578,702.94035 507.92578,702.50599 C 507.92578,702.07163 507.13828,701.4665 506.17578,701.16126 C 505.21328,700.85602 503.30078,699.93294 501.92578,699.10998 C 497.97482,696.74525 492.74551,694.48298 491.23033,694.48298 C 488.86887,694.48298 485.68496,698.14583 486.30791,700.14585 C 487.42747,703.74028 483.12663,705.69171 481.708,702.23298 C 481.31323,701.27048 480.3093,700.48298 479.47706,700.48298 C 477.78843,700.48298 477.50317,699.46314 475.94264,687.84676 C 474.98686,680.7321 475.06631,679.25614 476.57541,676.09152 C 478.08881,672.91789 478.14405,671.85935 477.02426,667.49016 C 475.84403,662.88515 475.91173,662.24179 477.91811,658.99539 C 479.11204,657.06357 480.46112,655.48298 480.91606,655.48298 C 481.371,655.48298 484.11548,652.46433 487.01492,648.77487 C 491.63059,642.90153 492.44422,641.16048 493.55302,634.78419 C 494.24955,630.77878 494.65525,623.56158 494.4546,618.74597 C 494.24828,613.79457 494.52453,609.46646 495.09039,608.78464 C 495.6549,608.10444 495.75356,606.5774 495.31675,605.28097 C 494.32382,602.33397 494.74987,599.51603 496.4446,597.8213 C 498.51674,595.74916 498.92578,596.17432 498.92578,600.40027 C 498.92578,604.11621 499.15491,604.40507 503.38349,606.01998 C 505.83523,606.95631 509.21023,607.52146 510.88349,607.27588 C 512.96894,606.9698 513.92578,607.24666 513.92578,608.15617 C 513.92578,608.88592 514.35539,609.48298 514.88047,609.48298 C 516.03941,609.48298 516.57463,612.35165 518.40494,628.37327 C 519.67225,639.46661 520.10232,641.05781 522.51364,643.57468 C 523.99491,645.1208 526.47322,646.66394 528.02099,647.00389 C 529.56876,647.34384 531.11169,648.49337 531.44972,649.55841 C 532.19624,651.91047 529.95995,670.60113 528.77266,671.93298 C 527.25523,673.63518 527.78727,678.48298 529.49152,678.48298 C 530.35268,678.48298 531.95832,678.96521 533.0596,679.5546 C 535.00095,680.59358 535.00763,680.70781 533.27886,683.3046 C 532.29816,684.77771 529.63946,689.62921 527.37064,694.08571 C 520.92609,706.74428 518.19427,709.7438 516.1261,706.43214 z " id="path58429"/>
    <path style="fill:url(#linearGradient59611);fill-opacity:1.0" d="M 541.00473,705.89965 C 541.05271,704.7347 541.28967,704.49775 541.60889,705.29548 C 541.89776,706.01735 541.86224,706.87986 541.52995,707.21215 C 541.19766,707.54444 540.96131,706.95381 541.00473,705.89965 z " id="path58427"/>
    <path style="fill:url(#linearGradient59613);fill-opacity:1.0" d="M 588.1032,704.39547 C 587.3794,703.23648 586.97926,702.09617 587.21399,701.86144 C 587.90776,701.16767 590.14611,704.32199 589.76703,705.45923 C 589.57572,706.03315 588.827,705.55446 588.1032,704.39547 z " id="path58425"/>
    <path style="fill:url(#linearGradient59615);fill-opacity:1.0" d="M 571.90572,698.95881 C 571.21,698.12052 570.83444,697.24099 571.07113,697.00429 C 571.30783,696.7676 572.05077,697.45347 572.72211,698.52846 C 574.17392,700.85318 573.68974,701.10842 571.90572,698.95881 z " id="path58423"/>
    <path style="fill:url(#linearGradient59617);fill-opacity:1.0" d="M 593.08367,696.48298 C 593.08367,695.10798 593.31065,694.54548 593.58806,695.23298 C 593.86547,695.92048 593.86547,697.04548 593.58806,697.73298 C 593.31065,698.42048 593.08367,697.85798 593.08367,696.48298 z " id="path58421"/>
    <path style="fill:url(#linearGradient59619);fill-opacity:1.0" d="M 471.64633,694.80301 C 471.34968,693.252 471.44984,691.36998 471.86892,690.62076 C 472.38492,689.69828 472.84393,690.32373 473.29084,692.55826 C 473.6538,694.3731 473.55364,696.25512 473.06825,696.74051 C 472.5582,697.25056 471.95806,696.43281 471.64633,694.80301 z " id="path58419"/>
    <path style="fill:url(#linearGradient59621);fill-opacity:1.0" d="M 541.86816,696.23298 C 541.29249,693.7351 541.20092,688.48298 541.73304,688.48298 C 543.16212,688.48298 545.00409,692.66088 544.40593,694.54553 C 543.912,696.10174 542.11353,697.29762 541.86816,696.23298 z " id="path58417"/>
    <path style="fill:url(#linearGradient59623);fill-opacity:1.0" d="M 576.26849,693.72193 C 576.1332,691.43479 576.25258,691.31555 577.12212,692.86933 C 577.68044,693.867 577.75086,695.05744 577.2794,695.52833 C 576.80819,695.99898 576.35532,695.18974 576.26849,693.72193 z " id="path58415"/>
    <path style="fill:url(#linearGradient59625);fill-opacity:1.0" d="M 568.63645,688.4803 C 567.72088,687.17314 567.19715,685.87828 567.47259,685.60284 C 568.33133,684.74409 571.18114,688.21689 570.72952,689.57175 C 570.44636,690.42124 569.73677,690.05121 568.63645,688.4803 z " id="path58413"/>
    <path style="fill:url(#linearGradient59627);fill-opacity:1.0" d="M 459.91254,683.43381 C 458.86444,679.54145 459.41741,674.64128 460.75394,675.9778 C 461.10899,676.33285 461.41984,678.05427 461.44471,679.80316 C 461.46958,681.55206 461.84333,683.99548 462.27525,685.23298 C 462.75839,686.61723 462.66468,687.48298 462.03171,687.48298 C 461.46585,687.48298 460.51222,685.66086 459.91254,683.43381 z " id="path58411"/>
    <path style="fill:url(#linearGradient59629);fill-opacity:1.0" d="M 562.4584,681.53577 C 562.10054,680.95673 560.73586,680.48298 559.42578,680.48298 C 556.29523,680.48298 555.32948,678.80701 557.97601,677.96704 C 559.11962,677.60407 560.41909,676.33417 560.86373,675.14504 C 561.6086,673.15298 561.79667,673.27927 563.25553,676.75113 C 564.12638,678.82361 564.89219,680.83736 564.95734,681.22613 C 565.15583,682.41072 563.15256,682.65894 562.4584,681.53577 z " id="path58409"/>
    <path style="fill:url(#linearGradient59631);fill-opacity:1.0" d="M 578.91213,680.23298 C 578.90462,678.99548 578.61317,676.85798 578.26448,675.48298 C 577.91578,674.10798 577.97908,673.30264 578.40515,673.69334 C 579.57004,674.76151 580.78791,682.48298 579.79151,682.48298 C 579.31536,682.48298 578.91964,681.47048 578.91213,680.23298 z " id="path58407"/>
    <path style="fill:url(#linearGradient59633);fill-opacity:1.0" d="M 534.80689,675.47626 C 532.91615,674.3715 532.92032,668.23022 534.81422,664.69143 C 535.97672,662.51929 536.08168,662.50555 538.42615,664.21863 C 541.33041,666.34075 542.27106,668.33952 541.08092,669.85973 C 540.59727,670.47752 539.90593,672.22048 539.54462,673.73298 C 538.86035,676.59738 537.55051,677.07934 534.80689,675.47626 z " id="path58405"/>
    <path style="fill:url(#linearGradient59635);fill-opacity:1.0" d="M 553.92578,669.81237 C 554.44404,662.89628 555.6046,661.30466 558.22131,663.92137 C 559.47171,665.17177 559.55096,666.13277 558.65795,669.21601 C 557.61336,672.82261 555.27854,676.48198 554.02079,676.48387 C 553.69354,676.48437 553.65078,673.48219 553.92578,669.81237 z " id="path58403"/>
    <path style="fill:url(#linearGradient59637);fill-opacity:1.0" d="M 592.54483,674.95917 C 591.65435,674.06869 590.94567,672.13477 590.96998,670.66155 C 591.01187,668.12225 591.11962,668.18286 593.04228,671.82734 C 595.27697,676.06331 595.05383,677.46817 592.54483,674.95917 z " id="path58401"/>
    <path style="fill:url(#linearGradient59639);fill-opacity:1.0" d="M 345.49898,672.00393 C 344.60177,669.8566 343.61966,667.1115 343.31653,665.90371 C 342.86192,664.0924 340.89637,663.15836 332.09558,660.57142 C 325.58909,658.65888 320.55271,656.5625 319.18826,655.19879 C 317.75521,653.76652 316.21755,649.91012 314.91145,644.47274 C 313.78984,639.80337 312.43902,634.40798 311.90963,632.48298 C 311.38024,630.55798 308.0842,625.60079 304.58508,621.467 C 299.32459,615.25235 298.0956,613.10108 297.48691,609.04208 C 296.79691,604.44081 294.07575,594.55985 288.89404,577.84002 L 286.68034,570.69706 L 290.51709,563.34002 L 294.35384,555.98298 L 294.46231,536.48298 C 294.55906,519.08919 294.81666,516.2269 296.84724,509.98298 C 301.50759,495.65264 303.31292,490.91457 305.10088,488.32143 C 308.13849,483.91586 314.56401,469.2392 315.32266,464.97363 C 316.59386,457.82624 316.82624,457.48298 320.39371,457.48298 C 322.22695,457.48298 329.85182,456.57271 337.33787,455.46015 L 350.94888,453.43732 L 355.94027,455.58456 C 361.67711,458.05248 364.57802,457.76744 372.08176,453.99853 C 376.7625,451.64752 377.01803,451.61698 376.42703,453.47904 C 373.97585,461.20203 370.94854,473.43143 370.9382,475.65221 C 370.92304,478.90944 373.72306,490.17355 375.28726,493.1479 C 375.91344,494.33861 381.37578,499.88767 387.42578,505.47915 C 394.01975,511.57337 398.33943,516.31389 398.21021,517.31423 C 398.09165,518.23204 397.43565,522.58298 396.75244,526.98298 C 395.34515,536.04613 395.05878,550.94053 396.17262,557.13931 L 396.91946,561.29563 L 391.42262,564.39786 C 385.30567,567.85005 385.15467,568.3098 387.04554,577.72512 L 388.1653,583.30083 L 383.79554,589.87906 C 381.39217,593.49708 379.07705,596.46306 378.65082,596.47013 C 378.22459,596.4772 374.67141,594.86925 370.75488,592.89691 L 363.6339,589.31085 L 359.77984,591.04879 C 357.62613,592.01998 355.93081,593.4918 355.93718,594.38485 C 355.96063,597.67114 373.4687,652.2557 375.03732,653.93298 C 376.49538,655.49203 376.0539,656.48298 373.90127,656.48298 C 372.78779,656.48298 369.02666,654.68298 365.54321,652.48298 C 358.39003,647.96534 357.39364,647.78337 354.01849,650.37816 C 351.71317,652.15047 351.63754,652.58375 352.23314,660.60593 C 352.839,668.76627 352.78104,669.07256 349.99268,672.44558 L 347.13028,675.90817 L 345.49898,672.00393 z " id="path58399"/>
    <path style="fill:url(#linearGradient59641);fill-opacity:1.0" d="M 465.08367,667.48298 C 465.08367,666.10798 465.31065,665.54548 465.58806,666.23298 C 465.86547,666.92048 465.86547,668.04548 465.58806,668.73298 C 465.31065,669.42048 465.08367,668.85798 465.08367,667.48298 z " id="path58397"/>
    <path style="fill:url(#linearGradient59643);fill-opacity:1.0" d="M 547.00473,666.89965 C 547.05271,665.7347 547.28967,665.49775 547.60889,666.29548 C 547.89776,667.01735 547.86224,667.87986 547.52995,668.21215 C 547.19766,668.54444 546.96131,667.95381 547.00473,666.89965 z " id="path58395"/>
    <path style="fill:url(#linearGradient59645);fill-opacity:1.0" d="M 585.55214,665.35992 C 584.73426,664.19224 583.02125,662.71847 581.74544,662.08489 C 579.23081,660.83609 578.1176,656.89116 579.80395,655.20481 C 580.53396,654.4748 581.16735,654.98816 581.89366,656.89849 C 582.79816,659.27752 583.32235,659.55479 585.86128,658.99715 C 589.60797,658.17423 591.77154,661.33132 590.0501,665.10947 C 588.71344,668.04311 587.47964,668.11181 585.55214,665.35992 z " id="path58393"/>
    <path style="fill:url(#linearGradient59647);fill-opacity:1.0" d="M 572.2311,658.26628 C 570.39528,655.89818 569.92505,653.35286 570.96455,651.41054 C 572.38551,648.75544 573.2181,648.98719 574.75817,652.46646 C 576.82605,657.13811 574.85802,661.65487 572.2311,658.26628 z " id="path58391"/>
    <path style="fill:url(#linearGradient59649);fill-opacity:1.0" d="M 562.17578,648.5302 C 561.48828,647.41915 560.92578,645.72888 560.92578,644.77404 C 560.92578,643.34043 561.19927,643.42842 562.49552,645.27909 C 563.35888,646.5117 563.92138,648.20197 563.74552,649.03524 C 563.49334,650.23016 563.16166,650.12345 562.17578,648.5302 z " id="path58389"/>
    <path style="fill:url(#linearGradient59651);fill-opacity:1.0" d="M 548.92578,646.48298 C 548.92578,645.38298 549.0983,644.48298 549.30915,644.48298 C 549.52,644.48298 549.92787,645.38298 550.21553,646.48298 C 550.50319,647.58298 550.33067,648.48298 549.83216,648.48298 C 549.33365,648.48298 548.92578,647.58298 548.92578,646.48298 z " id="path58387"/>
    <path style="fill:url(#linearGradient59653);fill-opacity:1.0" d="M 568.08367,646.48298 C 568.08367,645.10798 568.31065,644.54548 568.58806,645.23298 C 568.86547,645.92048 568.86547,647.04548 568.58806,647.73298 C 568.31065,648.42048 568.08367,647.85798 568.08367,646.48298 z " id="path58385"/>
    <path style="fill:url(#linearGradient59655);fill-opacity:1.0" d="M 532.42578,643.60595 C 524.92226,638.92988 520.80253,630.87666 523.3762,625.9159 L 524.68021,623.40242 L 527.23389,626.43731 C 528.63842,628.10649 530.074,630.37462 530.42407,631.47758 C 530.77414,632.58055 531.44533,633.48298 531.91562,633.48298 C 532.3859,633.48298 533.29795,635.08063 533.94239,637.03331 C 534.58683,638.98599 535.94885,641.10495 536.9691,641.74211 C 538.34299,642.60012 538.54617,643.23546 537.75249,644.19178 C 536.36017,645.86942 535.99311,645.82905 532.42578,643.60595 z " id="path58383"/>
    <path style="fill:url(#linearGradient59657);fill-opacity:1.0" d="M 560.72537,636.57087 C 560.22709,633.17587 560.99112,632.65186 562.96743,635.03317 C 564.02628,636.309 563.98182,636.85551 562.71628,638.12106 C 561.33268,639.50465 561.13316,639.3493 560.72537,636.57087 z " id="path58381"/>
    <path style="fill:url(#linearGradient59659);fill-opacity:1.0" d="M 537.8213,632.21166 C 535.37225,630.32452 534.6421,626.9633 536.36974,625.52949 C 537.59649,624.51138 538.30229,624.79483 540.37575,627.13831 C 541.76005,628.70288 542.78244,630.65281 542.64774,631.4715 C 542.32982,633.40362 539.85975,633.78242 537.8213,632.21166 z " id="path58379"/>
    <path style="fill:url(#linearGradient59661);fill-opacity:1.0" d="M 550.0784,630.35575 C 548.3989,627.66645 549.52085,623.90203 551.50988,625.55278 C 553.03001,626.81438 553.44329,631.04511 552.12593,631.85928 C 551.68601,632.13116 550.76462,631.45457 550.0784,630.35575 z " id="path58377"/>
    <path style="fill:url(#linearGradient59663);fill-opacity:1.0" d="M 565.42578,625.48298 C 565.7657,624.93298 566.46726,624.48298 566.9848,624.48298 C 567.50234,624.48298 567.92578,624.93298 567.92578,625.48298 C 567.92578,626.03298 567.22422,626.48298 566.36676,626.48298 C 565.5093,626.48298 565.08586,626.03298 565.42578,625.48298 z " id="path58375"/>
    <path style="fill:url(#linearGradient59665);fill-opacity:1.0" d="M 533.78796,619.09584 C 531.94505,617.47222 530.9926,615.44764 530.62736,612.37744 C 530.04634,607.4935 528.5652,600.91227 527.44407,598.23298 C 526.40951,595.76055 524.43188,596.06163 522.51774,598.98298 C 521.18447,601.01781 520.06727,601.48298 516.51351,601.48298 C 511.06829,601.48298 508.63798,599.44327 506.98149,593.48298 C 506.29364,591.00798 505.32471,588.20159 504.82832,587.24655 C 504.33192,586.29151 503.92578,584.45619 503.92578,583.16806 C 503.92578,580.90671 503.65875,580.82872 496.17578,580.9045 L 488.42578,580.98298 L 488.34363,585.98298 C 488.29844,588.73298 487.89356,595.14548 487.44388,600.23298 L 486.62629,609.48298 L 483.19658,609.48298 C 479.9941,609.48298 479.80175,609.30078 480.2934,606.73298 C 480.583,605.22048 481.09635,601.72687 481.43418,598.9694 L 482.04842,593.95582 L 477.41791,592.58859 C 474.751,591.80115 472.41697,591.59488 471.91387,592.10217 C 471.43343,592.58662 470.90207,595.45798 470.73306,598.48298 L 470.42578,603.98298 L 465.67578,604.28777 L 460.92578,604.59256 L 460.92578,600.57295 C 460.92578,596.05541 460.03357,595.29809 451.84721,592.86701 L 446.92578,591.4055 L 446.92578,585.99228 C 446.92578,580.65161 446.86212,580.53604 442.17578,577.36897 C 439.56328,575.60342 437.28317,574.05169 437.10887,573.92068 C 436.93457,573.78967 437.34739,570.05418 438.02624,565.61959 C 438.98991,559.32451 438.99874,556.38685 438.06649,552.22114 C 436.81853,546.64465 437.11679,545.09841 441.34192,535.24117 L 442.94578,531.49935 L 446.55214,535.49117 C 448.53564,537.68666 450.59291,539.48298 451.12385,539.48298 C 451.65478,539.48298 454.00928,537.90961 456.35605,535.9866 C 459.90909,533.07516 462.18061,532.19685 469.9339,530.7366 L 479.24489,528.98298 L 481.08143,522.48298 C 483.58857,513.60954 483.45414,512.46024 479.34786,507.66298 C 475.90285,503.63826 475.85641,503.48214 478.09786,503.46029 C 487.59104,503.36776 505.58821,501.21893 510.95325,499.53741 C 514.51314,498.42167 517.74431,497.50298 518.13363,497.49588 C 518.52294,497.48879 520.03133,499.51332 521.4856,501.99484 C 523.36472,505.20131 525.9085,507.55772 530.27775,510.13938 L 536.42578,513.77206 L 543.42578,511.32243 L 550.42578,508.87281 L 553.92578,513.11883 C 558.94943,519.21326 561.6649,525.11323 562.60491,531.97613 C 563.25226,536.70241 563.828,538.04529 565.32853,538.32887 C 566.37504,538.52665 567.6349,537.96723 568.12822,537.08572 C 570.6285,532.61797 576.92578,539.45622 576.92578,546.63903 C 576.92578,551.42263 573.30674,566.62127 571.96535,567.471 C 571.52084,567.75259 570.97576,568.88298 570.75407,569.98298 C 570.41558,571.66253 569.66836,571.93915 566.09049,571.70945 C 560.66371,571.36104 559.43421,572.62675 557.9853,580.05337 C 557.34903,583.31465 556.09455,589.23919 555.19756,593.21901 L 553.56668,600.45504 L 556.74623,604.88249 C 558.49498,607.31758 559.92578,610.05043 559.92578,610.95547 C 559.92578,613.42923 557.91937,611.71189 556.31033,607.8609 C 555.53406,606.00305 554.52412,604.48298 554.066,604.48298 C 551.87142,604.48298 546.95656,607.81063 546.35589,609.70318 C 545.98476,610.87251 544.83616,612.73618 543.80344,613.84467 C 542.77073,614.95316 541.92578,616.51314 541.92578,617.3113 C 541.92578,618.84766 539.10901,621.41924 537.42578,621.41958 C 536.87578,621.41969 535.23876,620.37401 533.78796,619.09584 z " id="path58373"/>
    <path style="fill:url(#linearGradient59667);fill-opacity:1.0" d="M 556.46542,620.13562 C 555.32481,619.30159 555.02181,618.54166 555.67013,618.14098 C 556.24615,617.78498 557.77683,618.37632 559.07162,619.45507 C 560.81418,620.90689 561.02079,621.42508 559.86691,621.44971 C 559.00953,621.46801 557.47886,620.87667 556.46542,620.13562 z " id="path58371"/>
    <path style="fill:url(#linearGradient59669);fill-opacity:1.0" d="M 205.92578,581.302 C 205.92578,580.65246 203.52794,576.93996 200.59725,573.052 C 194.90136,565.49561 188.47022,556.33065 180.84211,544.89909 C 178.24228,541.00295 175.49584,537.17795 174.73893,536.39909 C 173.98201,535.62023 169.79974,529.80798 165.44499,523.48298 C 161.09025,517.15798 156.77658,511.17464 155.85906,510.18668 C 154.94154,509.19871 153.37512,506.87567 152.37812,505.02436 C 150.66341,501.84032 150.65784,501.53194 152.27514,499.32066 C 153.2155,498.03493 156.55908,493.2214 159.70533,488.62392 C 162.85158,484.02644 165.86089,479.65889 166.3927,478.91826 C 167.02362,478.03958 166.96967,476.42691 166.23743,474.27731 C 163.83789,467.23311 162.49039,457.51837 163.73957,456.26918 C 164.39198,455.61677 164.92578,453.60444 164.92578,451.79733 C 164.92578,449.99022 165.37941,446.59272 165.93385,444.24733 C 169.8678,427.6059 171.51422,411.15763 170.10471,402.57892 C 168.95452,395.57855 167.41343,381.92342 166.35873,369.38704 L 165.71967,361.7911 L 172.57273,359.19466 C 176.3419,357.76662 184.11475,354.78558 189.84572,352.57013 L 200.26567,348.54204 L 207.84572,355.19138 C 212.01475,358.84852 217.77333,364.09259 220.64255,366.84487 L 225.85932,371.84902 L 238.14255,370.77341 C 249.64767,369.76594 251.0378,369.40457 260.08714,365.06876 L 269.7485,360.43972 L 282.58714,361.99876 C 289.64839,362.85623 296.17161,363.78307 297.08318,364.05839 C 297.99475,364.33371 304.00584,363.19188 310.44115,361.52098 C 316.87646,359.85008 322.9211,358.48298 323.87369,358.48298 C 325.04738,358.48298 326.01101,359.85292 326.86318,362.73298 C 327.55482,365.07048 328.52685,367.76437 329.02324,368.71941 C 329.51964,369.67445 329.92578,371.34077 329.92578,372.42236 C 329.92578,373.50394 330.41233,375.45673 331.007,376.76188 C 332.84944,380.8056 328.53007,412.28719 323.81112,429.20877 C 321.62918,437.03295 319.23069,444.90795 318.48113,446.70877 C 317.73157,448.50959 316.32141,454.03298 315.34744,458.98298 C 313.66819,467.51736 308.12471,481.48551 304.10088,487.32143 C 301.6829,490.82831 293.92578,513.41221 293.92578,516.94496 C 293.92578,519.74993 292.06135,519.36843 283.80756,514.87454 L 275.42578,510.31097 L 266.42578,511.96949 C 261.47578,512.88167 254.4069,514.33956 250.71716,515.20924 L 244.00854,516.79048 L 239.96428,513.13673 C 235.6873,509.27273 234.57939,508.87172 232.63357,510.48333 C 231.96929,511.03352 230.39535,512.27102 229.13594,513.23333 C 226.71596,515.08242 224.78338,522.27795 223.56299,533.98298 L 222.93742,539.98298 L 228.0989,545.42616 C 232.73324,550.31342 233.07883,550.97727 231.48264,551.92616 C 230.50488,552.50741 227.9408,554.2333 225.78467,555.76147 C 221.95209,558.47784 221.87836,558.6455 222.48678,563.26147 L 223.1091,567.98298 L 215.62402,575.23298 C 208.38942,582.24036 205.92578,583.78207 205.92578,581.302 z " id="path58369"/>
    <path id="path58365" style="fill:url(#linearGradient59671);fill-opacity:1.0" d="M 530.78062,508.92057 C 526.95459,506.61344 524.28247,504.06098 522.48846,500.99973 C 520.97675,498.42019 519.10899,496.48851 518.13363,496.49588 C 517.19431,496.50298 513.57319,497.40298 510.08669,498.49588 C 506.60018,499.58879 503.44753,500.48298 503.0808,500.48298 C 502.71406,500.48298 501.79467,499.0838 501.0377,497.3737 C 499.57237,494.06329 499.58292,494.04325 504.17578,491.41431 C 505.13828,490.86338 505.92578,489.89552 505.92578,489.26352 C 505.92578,488.09424 502.92688,481.13924 500.34846,476.32869 C 499.33203,474.43233 498.92578,470.04439 498.92578,460.96206 C 498.92578,449.31181 498.77957,448.29576 497.17578,448.80077 C 496.21328,449.10384 492.50078,450.44905 488.92578,451.79013 C 477.22005,456.18124 478.30932,456.51953 477.54116,448.2545 C 477.1695,444.25552 476.43841,435.75733 475.91652,429.36963 C 475.39463,422.98192 474.68507,417.01927 474.33972,416.1193 C 473.84476,414.82946 474.34376,414.48298 476.69635,414.48298 C 480.38637,414.48298 481.24255,413.45312 483.46028,406.34688 C 485.21291,400.73098 485.23929,400.70517 490.8225,399.14283 C 501.87352,396.05045 501.28759,395.93409 503.99639,401.75895 C 507.25589,408.76799 509.67451,408.83775 512.2148,401.99599 C 513.23319,399.25315 514.24601,396.82942 514.46549,396.60994 C 514.68498,396.39045 517.60398,398.7471 520.95217,401.84693 C 524.30035,404.94676 527.63403,407.48298 528.36034,407.48298 C 530.54958,407.48298 532.19424,404.66705 532.31333,400.71478 C 532.46624,395.64028 533.78277,394.22414 536.6406,396.06011 C 537.85875,396.84269 540.64092,397.48298 542.82321,397.48298 C 545.98259,397.48298 546.92755,397.91319 547.46117,399.59449 C 547.88232,400.92142 547.56233,402.275 546.59999,403.23734 C 545.22485,404.61248 544.90105,404.6011 543.42578,403.12584 C 540.31796,400.01802 535.52762,401.63073 536.08829,405.59607 C 536.36476,407.55138 537.09496,408.03857 540.12662,408.29041 C 542.57742,408.49401 543.98346,409.16955 544.28931,410.29041 C 544.54332,411.22133 545.28171,414.3304 545.93016,417.19946 C 546.83218,421.19038 548.02807,423.24611 551.02036,425.94946 C 555.1869,429.71368 556.80504,430.20372 558.72578,428.28298 C 560.18137,426.82739 560.30805,422.83727 558.92578,421.98298 C 558.37578,421.64306 557.92578,420.71269 557.92578,419.91549 C 557.92578,418.7276 558.27849,418.6863 559.8803,419.68665 C 562.55766,421.35869 563.18001,420.40533 563.76763,413.73182 C 564.16461,409.22337 564.43054,408.52239 565.00012,410.48298 C 566.40848,415.3307 565.92821,425.8328 563.9973,432.41203 C 562.93664,436.02605 561.40055,441.90798 560.58377,445.48298 C 559.76699,449.05798 558.34905,454.45798 557.43278,457.48298 C 556.51651,460.50798 555.41146,464.55798 554.97711,466.48298 C 554.54276,468.40798 553.4563,471.33298 552.56274,472.98298 C 551.66919,474.63298 550.93533,476.51976 550.93194,477.17582 C 550.92855,477.83188 549.91328,480.08188 548.67578,482.17582 C 546.7677,485.40443 546.44327,487.32257 546.5409,494.7981 C 546.60734,499.88527 547.13597,504.09317 547.7909,504.7481 C 549.90587,506.86307 548.93987,508.08291 543.67578,509.94451 C 540.78828,510.96565 537.97578,511.91892 537.42578,512.06289 C 536.87578,512.20686 533.88546,510.79282 530.78062,508.92057 z M 577.04879,483.33561 C 575.33114,480.99996 573.92578,478.36363 573.92578,477.47711 C 573.92578,476.59058 573.29004,474.99581 572.51303,473.93318 C 571.29602,472.26883 571.29602,471.53263 572.51303,468.61993 C 573.29004,466.76027 573.97229,463.83119 574.02913,462.11086 L 574.13248,458.98298 L 575.12847,462.73298 C 575.91685,465.70132 576.60762,466.48298 578.44241,466.48298 C 581.72015,466.48298 584.13789,473.12511 583.73191,481.0145 C 583.34025,488.62555 581.42758,489.28984 577.04879,483.33561 z M 553.92578,407.53067 C 553.92578,405.88493 553.27128,404.4458 552.36458,404.09787 C 549.75045,403.09473 553.63319,397.48298 556.94139,397.48298 C 563.79304,397.48298 563.47773,405.40876 556.48168,409.03836 C 554.02983,410.31039 553.92578,410.24902 553.92578,407.53067 z "/>
    <path style="fill:url(#linearGradient59673);fill-opacity:1.0" d="M 359.21863,385.9335 C 354.7047,385.22976 350.57682,384.38535 350.04557,384.05701 C 349.51431,383.72868 348.78428,382.11521 348.42326,380.47151 L 347.76687,377.48298 L 340.38151,377.48298 C 332.50876,377.48298 330.92578,376.48726 330.92578,371.53515 C 330.92578,370.39153 330.53012,368.67445 330.04653,367.71941 C 327.41068,362.51385 325.78627,355.26824 326.41747,351.53218 C 327.18704,346.97713 326.87973,346.146 316.67578,325.18576 C 312.96328,317.55979 309.92578,311.10425 309.92578,310.8401 C 309.92578,310.57595 306.96108,304.20004 303.33756,296.67141 C 299.71404,289.14277 296.31724,282.07183 295.78912,280.9582 C 295.26099,279.84457 293.38008,277.36957 291.6093,275.4582 C 284.08689,267.33851 274.92578,256.34636 274.92578,255.44013 C 274.92578,254.90171 274.06863,252.55359 273.021,250.22208 C 271.97336,247.89058 269.71542,242.42044 268.00334,238.06622 C 264.94407,230.28577 264.92283,230.11359 266.76986,228.06622 C 267.80352,226.92044 269.72397,224.64378 271.03751,223.00698 C 272.35106,221.37018 276.15511,217.09518 279.49096,213.50698 C 298.85279,192.68044 297.74486,194.42688 298.95658,182.8232 C 299.52175,177.41108 300.30852,170.77231 300.70497,168.07038 L 301.42578,163.15778 L 308.92578,159.33433 C 313.05078,157.23143 316.88878,155.5046 317.45467,155.49693 C 318.02056,155.48926 321.28306,158.30759 324.70467,161.75989 C 328.89347,165.98625 330.93759,168.8447 330.96192,170.50989 C 331.00677,173.57894 334.44836,193.37316 335.01325,193.81101 C 335.24014,193.98687 338.57578,196.15009 342.42578,198.61815 C 346.27578,201.08621 350.55078,203.87026 351.92578,204.80492 C 353.30078,205.73958 356.10915,207.62755 358.16661,209.0004 C 360.79292,210.75282 362.98602,213.6545 365.52766,218.73974 C 367.51878,222.72352 369.714,226.65798 370.40594,227.48298 C 371.09787,228.30798 374.0185,233.60302 376.89623,239.24973 L 382.12846,249.51647 L 377.02712,255.74551 C 374.22138,259.17148 371.92578,262.72994 371.92578,263.65321 C 371.92578,265.59261 376.80544,278.17683 381.02757,287.12595 C 383.89927,293.21272 383.92578,293.4381 383.92578,311.76272 L 383.92578,330.25652 L 377.42578,331.48298 L 370.92578,332.70944 L 370.92578,360.09621 C 370.92578,385.5636 370.80313,387.47352 369.17578,387.348 C 368.21328,387.27375 363.73256,386.63723 359.21863,385.9335 z " id="path58359"/>
    <path style="fill:url(#linearGradient59675);fill-opacity:1.0" d="M 420.68806,378.73849 C 419.79287,373.92296 418.28923,365.14548 417.34665,359.23298 L 415.63285,348.48298 L 409.89568,348.48298 C 403.53508,348.48298 403.21908,348.73299 393.02635,361.83 L 388.62692,367.48298 L 380.27635,367.48298 L 371.92578,367.48298 L 371.92578,350.59621 L 371.92578,333.70944 L 378.42578,332.48298 L 384.92578,331.25652 L 384.92578,311.76272 C 384.92578,292.3348 384.91598,292.24815 382.02757,286.12595 C 378.84796,279.38653 372.91834,264.72839 372.93844,263.65742 C 372.9454,263.28648 375.32162,260.0385 378.21894,256.4397 L 383.48678,249.89641 L 391.45628,253.61888 C 402.7908,258.91311 404.72612,261.28608 407.84786,273.71731 C 410.35833,283.71438 410.52555,284.03171 414.23889,285.84549 C 416.84492,287.1184 418.90255,289.25061 420.73889,292.58108 C 423.26135,297.15594 423.67057,297.45359 427.42578,297.44472 C 433.28692,297.43087 438.84353,295.91991 442.2237,293.42084 C 444.90275,291.44013 445.29054,291.38339 446.11234,292.85185 C 446.61439,293.74897 447.82436,294.48298 448.80116,294.48298 C 452.93511,294.48298 457.87471,304.25806 465.98222,328.48298 C 468.28312,335.35798 472.75977,346.38298 475.93034,352.98298 C 483.55115,368.84681 483.766,369.9051 480.00787,373.06736 C 477.61667,375.07943 476.9722,376.49084 476.72876,380.24876 C 476.42778,384.8951 476.39482,384.93463 471.72728,386.24803 C 467.14831,387.5365 466.92387,387.49414 462.90508,384.58294 C 458.00929,381.03646 449.66439,378.07002 446.60658,378.78918 C 445.40714,379.07128 440.37578,380.86261 435.42578,382.76992 C 420.94663,388.34895 422.55647,388.78931 420.68806,378.73849 z " id="path58357"/>
    <path id="path58367" style="fill:url(#linearGradient59677);fill-opacity:1.0" d="M 433.61896,542.69644 C 432.72973,541.71385 431.06392,538.78885 429.91718,536.19644 C 428.77044,533.60404 427.26244,531.48298 426.56608,531.48298 C 425.86971,531.48298 423.9867,532.85373 422.3816,534.52909 C 420.17059,536.83689 418.73157,537.50343 416.44451,537.27909 C 413.42934,536.98333 413.42544,536.97462 413.13523,529.89433 L 412.84467,522.80568 L 408.63523,520.49274 C 406.32003,519.22062 402.40078,516.56164 399.92578,514.58388 C 392.6223,508.74773 377.52236,494.42098 376.24414,492.11486 C 375.59424,490.94232 374.28838,486.7156 373.34222,482.72213 L 371.62193,475.46127 L 374.899,463.4306 C 376.70139,456.81374 377.89609,451.11995 377.55388,450.77775 C 377.21168,450.43554 374.56786,451.29987 371.67874,452.69847 C 363.34861,456.73101 362.34444,456.84772 356.57034,454.45449 L 351.29202,452.26675 L 336.8589,454.38021 C 328.92068,455.54261 321.17971,456.49126 319.65673,456.48832 C 317.14527,456.48348 316.94834,456.22716 317.53982,453.73298 C 317.8985,452.22048 318.78866,449.50959 319.51796,447.70877 C 323.92359,436.83018 328.92424,414.87103 331.01256,397.23298 L 333.23252,378.48298 L 339.9997,378.48298 C 346.69992,378.48298 346.77336,378.51255 347.42326,381.47151 C 347.78428,383.11521 348.48583,384.71108 348.98227,385.0179 C 349.87889,385.57203 368.02997,388.48298 370.58865,388.48298 C 371.61568,388.48298 371.92578,386.16384 371.92578,378.48298 L 371.92578,368.48298 L 380.77635,368.48298 L 389.62692,368.48298 L 394.02635,362.83 C 403.87454,350.17571 404.69818,349.48298 409.89568,349.48298 L 414.63285,349.48298 L 416.34665,360.23298 C 419.58148,380.52382 421.30473,388.48298 422.46312,388.48298 C 423.91514,388.48298 432.41196,385.56168 441.19181,382.04385 C 447.85035,379.37597 448.03589,379.35882 452.86961,380.96432 C 455.57108,381.86161 459.70591,383.98988 462.05812,385.69381 L 466.33487,388.79187 L 471.88032,387.38742 L 477.42578,385.98298 L 477.74231,381.48298 C 478.12015,376.11135 480.86894,372.72223 485.20075,372.28713 C 487.88106,372.01791 488.39077,371.42515 489.63878,367.12592 C 490.93673,362.65469 491.1591,362.41638 492.43809,364.12592 C 493.33685,365.32724 493.62648,367.28614 493.25831,369.67353 C 492.83612,372.41125 493.23608,374.24899 494.80748,376.79156 C 495.97254,378.67668 496.92578,381.18064 496.92578,382.35592 C 496.92578,383.53119 498.05078,386.8248 499.42578,389.67504 C 500.80078,392.52527 501.92578,394.97768 501.92578,395.12482 C 501.92578,395.27196 500.23828,395.68045 498.17578,396.03258 C 496.11328,396.3847 492.12576,397.36757 489.31463,398.21674 C 484.33852,399.7199 484.15722,399.90893 482.45242,405.37183 C 480.24112,412.45775 479.3849,413.48298 475.67834,413.48298 C 472.81914,413.48298 472.70799,413.63815 473.35032,416.73298 C 473.72132,418.52048 474.42159,424.70798 474.90649,430.48298 C 476.89176,454.12695 477.20729,456.48298 478.38856,456.48298 C 479.94536,456.48298 493.07257,452.00997 495.80075,450.5499 C 497.91532,449.41821 497.92578,449.47476 497.92578,462.0435 C 497.92578,471.27939 498.32052,475.38783 499.39439,477.32869 C 500.20212,478.78855 501.64089,481.78298 502.59165,483.98298 C 503.54242,486.18298 504.48079,488.28072 504.67693,488.64462 C 504.87306,489.00852 503.65929,490.11804 501.97966,491.11022 C 498.75674,493.01405 497.97378,496.13098 500.16742,498.32462 C 501.99453,500.15173 499.42598,501.44762 493.92578,501.47366 C 491.45078,501.48538 485.74552,501.78148 481.24742,502.13167 L 473.06907,502.76837 L 476.44898,506.35089 C 482.10878,512.34999 482.35191,513.30976 480.18165,521.08606 L 478.25681,527.98298 L 468.93987,529.7366 C 461.19206,531.19489 458.90766,532.07633 455.37597,534.97028 L 451.12902,538.45034 L 447.45756,534.38647 C 445.43825,532.15135 443.2516,530.52771 442.59834,530.77839 C 441.94507,531.02907 440.289,534.21226 438.91818,537.85215 C 437.54736,541.49203 436.15802,544.47301 435.83077,544.47655 C 435.50351,544.48009 434.5082,543.67904 433.61896,542.69644 z M 511.71461,359.291 C 509.12347,356.44315 506.72187,352.83106 506.37772,351.26415 C 506.03356,349.69723 504.66609,347.7037 503.33888,346.83409 C 502.01168,345.96447 500.92578,344.31339 500.92578,343.16502 C 500.92578,341.35076 501.45009,341.58906 504.92578,344.98298 C 507.12578,347.13122 508.92578,349.43431 508.92578,350.10094 C 508.92578,350.76758 510.91,353.05959 513.33517,355.19431 C 517.49646,358.85722 518.32497,360.27153 518.04426,363.23298 C 517.83799,365.40916 516.55332,364.60909 511.71461,359.291 z "/>
    <path id="path58353" style="fill:url(#linearGradient59679);fill-opacity:1.0" d="M 484.00473,323.89965 C 484.05271,322.7347 484.28967,322.49775 484.60889,323.29548 C 484.89776,324.01736 484.86224,324.87985 484.52995,325.21215 C 484.19766,325.54444 483.96131,324.95381 484.00473,323.89965 z M 492.92578,322.3258 C 487.24746,318.50976 485.92578,316.80404 485.92578,313.29185 C 485.92578,309.90032 486.17161,309.86284 489.59166,312.73298 C 497.71064,319.54653 498.10302,320.02459 497.76406,322.68995 L 497.42578,325.34997 L 492.92578,322.3258 z M 479.0068,320.63437 C 478.41224,319.52342 477.92578,317.9685 477.92578,317.17899 C 477.92578,316.38949 477.02578,312.92628 475.92578,309.48298 C 473.69907,302.51278 473.54505,301.65401 474.76895,303.03298 C 475.2327,303.55548 476.39435,306.68298 477.3504,309.98298 C 478.30645,313.28298 479.50405,317.29345 480.01173,318.89514 C 481.12148,322.39626 480.51318,323.44906 479.0068,320.63437 z M 482.12073,311.98298 C 482.14111,310.33298 482.36523,309.77904 482.61877,310.75201 C 482.87231,311.72498 482.85564,313.07498 482.58172,313.75201 C 482.30779,314.42904 482.10035,313.63298 482.12073,311.98298 z M 494.92578,308.18618 C 486.89594,305.46444 471.60866,295.8221 463.68769,288.48298 C 457.65706,282.89535 454.92222,278.37574 452.94705,270.73298 C 451.80589,266.31735 449.74227,265.20157 448.11028,268.11779 C 447.28819,269.58677 446.97886,269.53606 445.06059,267.61779 C 443.88644,266.44364 442.92578,264.77584 442.92578,263.91155 C 442.92578,261.19877 440.11527,259.21861 437.27627,259.93115 C 434.86468,260.53642 434.73139,260.86585 435.34511,264.70389 C 435.86468,267.95308 439.90271,278.68293 444.48221,288.98298 C 445.11678,290.41022 438.71601,294.51084 434.2271,295.55286 C 426.24391,297.40601 424.67558,296.90722 421.73889,291.58108 C 419.90255,288.25061 417.84492,286.1184 415.23889,284.84549 C 411.52555,283.03171 411.35833,282.71438 408.84786,272.71731 C 405.68935,260.13968 403.82157,257.91377 391.69068,252.27039 L 382.95558,248.20676 L 377.33942,237.59487 C 361.30824,207.30353 364.64747,211.23934 343.42578,197.62235 C 339.57578,195.15198 336.24014,192.98687 336.01325,192.81101 C 335.5402,192.44434 332.01651,172.85052 331.96192,170.2832 C 331.92924,168.74628 333.41968,168.60256 347.51741,168.7832 L 363.10905,168.98298 L 365.58686,162.48298 C 366.94965,158.90798 369.16545,153.73298 370.51086,150.98298 C 371.85626,148.23298 372.95002,145.36862 372.94142,144.61775 C 372.92303,143.01283 374.86952,143.19958 403.66816,147.56569 C 426.67002,151.05295 426.82477,151.05658 436.66462,148.34134 C 444.34661,146.22153 444.56348,146.21703 457.92578,147.90079 C 477.27158,150.33849 478.92578,150.63448 478.92578,151.65829 C 478.92578,152.16412 481.21041,157.39411 484.00272,163.28048 C 487.80079,171.28702 489.69666,176.98823 491.529,185.91332 L 493.97834,197.84366 L 492.31384,211.15253 C 490.86797,222.71333 490.7931,227.51661 491.74382,247.72219 C 492.65433,267.07333 493.2484,272.44805 495.27826,279.69951 C 497.87727,288.9842 499.47562,291.65028 507.51454,300.10982 C 512.24064,305.08321 512.48208,305.57455 510.90233,307.0042 C 509.45304,308.31579 503.52626,310.58343 501.93238,310.43618 C 501.65375,310.41044 498.50078,309.39794 494.92578,308.18618 z "/>
    <path style="fill:url(#linearGradient59681);fill-opacity:1.0" d="M 507.83952,298.58829 C 496.13624,285.45727 494.31697,279.34908 492.76722,247.98298 C 491.82507,228.9144 491.90589,224.05091 493.37377,211.48298 L 495.06731,196.98298 L 492.57136,184.85267 C 491.07981,177.60374 488.88433,170.36033 487.11555,166.85267 C 485.48762,163.62434 483.00653,158.24955 481.60201,154.9087 L 479.04833,148.83441 L 482.39554,141.90869 C 487.10459,132.16519 487.51401,131.80262 494.66112,131.04657 C 500.81209,130.3959 500.94738,130.4355 504.66112,133.97329 C 513.02043,141.93659 514.52813,143.67719 516.58877,147.74344 C 519.26287,153.02021 523.92578,167.79144 523.92578,170.98571 C 523.92578,172.29429 524.32606,173.61233 524.81529,173.9147 C 525.30452,174.21706 525.94601,175.93111 526.24083,177.72371 C 526.53564,179.51631 527.67137,185.48298 528.76467,190.98298 C 531.61107,205.30214 533.15612,218.69327 532.35158,222.07122 C 531.97016,223.67269 530.57916,227.59055 529.26048,230.77758 C 527.94179,233.96461 527.12858,237.00211 527.45334,237.52758 C 527.7781,238.05305 527.44459,238.48298 526.7122,238.48298 C 525.97981,238.48298 524.55337,240.17048 523.54232,242.23298 C 522.53127,244.29548 521.33472,246.71508 520.88332,247.60987 C 517.97571,253.37352 518.71292,266.96326 521.98962,268.00324 C 523.05195,268.34041 524.19742,269.71708 524.53509,271.0625 C 525.02038,272.99605 524.42009,274.18716 521.67084,276.74585 C 518.51856,279.67963 518.07912,280.7795 516.9814,288.48298 C 515.38901,299.65793 514.61939,302.75178 513.32456,303.18339 C 512.73534,303.37979 510.26707,301.312 507.83952,298.58829 z " id="path58341"/>
  </g>
</svg>