<svg xmlns:dc="http://purl.org/dc/elements/1.1/" xmlns:cc="http://creativecommons.org/ns#" xmlns:rdf="http://www.w3.org/1999/02/22-rdf-syntax-ns#" xmlns:svg="http://www.w3.org/2000/svg" xmlns="http://www.w3.org/2000/svg" xmlns:sodipodi="http://sodipodi.sourceforge.net/DTD/sodipodi-0.dtd" xmlns:inkscape="http://www.inkscape.org/namespaces/inkscape" inkscape:version="1.0 (4035a4fb49, 2020-05-01)" sodipodi:docname="Escudo del Club Atlético Sarmiento de Junín.svg" viewBox="0 0 275 269.69833" height="269.69833" width="275" id="svg10" version="1.1">
  <metadata id="metadata16">
    <rdf:RDF>
      <cc:Work rdf:about="">
        <dc:format>image/svg+xml</dc:format>
        <dc:type rdf:resource="http://purl.org/dc/dcmitype/StillImage"/>
        <dc:title/>
      </cc:Work>
    </rdf:RDF>
  </metadata>
  <defs id="defs14"/>
  <sodipodi:namedview inkscape:current-layer="g22" inkscape:window-maximized="1" inkscape:window-y="-8" inkscape:window-x="-8" inkscape:cy="376.1437" inkscape:cx="138.85932" inkscape:zoom="0.40298779" showgrid="false" id="namedview12" inkscape:window-height="705" inkscape:window-width="1366" inkscape:pageshadow="2" inkscape:pageopacity="0" guidetolerance="10" gridtolerance="10" objecttolerance="10" borderopacity="1" bordercolor="#666666" pagecolor="#ffffff"/>
  <g transform="translate(-1396.258,-13.82556)" id="g18" inkscape:label="Image" inkscape:groupmode="layer">
    <g transform="translate(1394.5832)" id="g22">
      <g transform="matrix(0.21540356,0,0,0.21540356,1.314034,10.847485)" id="g853">
        <path style="fill:#008349;fill-opacity:1;stroke-width:0.32" d="m 629.76,1262.3603 c -33.59834,-11.6343 -65.98029,-24.8568 -96.48,-39.3959 -85.82374,-40.9117 -162.7399,-93.053 -233.27885,-158.1392 -5.2665,-4.8593 -27.12131,-25.9419 -29.44115,-28.4008 -0.88,-0.9327 -5.14009,-5.3698 -9.46686,-9.8601 C 238.29521,1002.9044 215.808,976.87155 195.99353,951.2 188.96862,942.09856 188.86002,941.9551 183.63796,934.88 142.30087,878.87437 108.08315,819.9304 80.120288,756.55894 71.936678,738.01264 63.302813,716.36976 56.210176,696.62237 -1.1242491,536.99146 -13.556212,363.38077 20.361468,196 c 1.141257,-5.632 2.208903,-10.75233 2.372547,-11.37851 l 0.297535,-1.1385 7.444225,-0.56029 C 71.923232,179.80315 112.37181,168.71419 149.76,150.22097 193.5417,128.56535 232.12049,97.076371 262.4507,58.24 c 10.02981,-12.842691 18.88423,-26.16553 27.21623,-40.950986 1.03861,-1.843042 1.93723,-3.399841 1.99694,-3.459554 0.0597,-0.05971 1.16777,0.573299 2.46235,1.406692 13.13358,8.45482 34.86114,20.737563 52.27378,29.550734 85.20986,43.127812 175.08118,66.205134 271.84,69.803554 12.81542,0.4766 45.20458,0.20012 57.12,-0.48759 46.87414,-2.70537 89.16656,-9.32649 132.16,-20.690399 12.58275,-3.32584 19.72,-5.443728 38.37229,-11.386515 3.69385,-1.176906 16.79779,-5.809206 22.90771,-8.09799 40.63786,-15.223008 80.26976,-34.807076 117.52426,-58.074514 1.36636,-0.853357 2.52857,-1.493481 2.58268,-1.422496 0.0542,0.07098 1.58256,2.721064 3.39652,5.889064 37.38414,65.290301 97.18104,116.16267 167.88094,142.82502 29.5451,11.14202 61.7882,18.07606 93.3451,20.0743 3.7609,0.23815 3.8159,0.26955 4.1685,2.38068 0.103,0.616 0.9192,4.648 1.8138,8.96 7.2752,35.06306 12.8206,73.9577 15.8316,111.04 2.4331,29.96467 3.2263,52.78272 2.9536,84.96 -0.2119,24.99856 -0.6116,35.68214 -2.1607,57.76 -8.5716,122.16221 -40.7258,239.86704 -95.4152,349.28 -30.1677,60.3543 -66.1613,116.30128 -108.7007,168.96 -5.2547,6.50464 -16.9664,20.53373 -20.1692,24.16 -20.4978,23.2082 -27.855,31.0819 -45.9126,49.1354 -29.31882,29.3123 -54.64004,51.72 -86.7386,76.758 -78.18931,60.9906 -166.09955,109.2544 -259.52,142.4797 -7.35507,2.6159 -19.74755,6.8648 -19.81011,6.7922 -0.0163,-0.019 -4.56589,-1.6053 -10.10989,-3.525 z" id="path24" sodipodi:nodetypes="ssssssssssscsssssssssssssssssscsssssssssss"/>
        <path style="fill:#ffffff;fill-opacity:1;stroke-width:0.32" d="m 633.44,1204.4356 c -76.10909,-27.9864 -144.78627,-64.2064 -209.76,-110.6263 -11.34291,-8.1039 -25.52797,-18.8662 -37.76,-28.6488 C 321.22445,1013.4199 262.70065,951.04963 215.48162,883.52 122.10436,749.97782 68.55223,596.00557 59.053392,433.76 58.08703,417.25402 57.88383,410.70781 57.702499,390.24 c -0.363766,-41.06038 1.640903,-77.04547 6.471085,-116.16 1.373203,-11.12011 5.255613,-37.49664 5.780061,-39.26888 0.09864,-0.33332 0.626621,-0.62849 1.34439,-0.75157 3.199824,-0.54871 13.188083,-2.5322 17.021965,-3.38026 56.08169,-12.4053 109.59388,-37.97483 154.56,-73.85283 11.31026,-9.02434 19.29324,-16.14651 30.51329,-27.22307 13.02671,-12.8601 26.00284,-27.50823 35.18982,-39.724107 l 0.87293,-1.160713 14.15199,7.091686 c 46.36771,23.235294 91.92736,40.295034 141.51197,52.988934 82.60746,21.14791 169.62803,27.15251 254.9705,17.59348 73.23651,-8.20306 144.18467,-27.62129 210.87094,-57.71453 10.23402,-4.61827 24.72909,-11.602751 33.19642,-15.995785 3.60684,-1.871296 6.65212,-3.402355 6.76729,-3.402355 0.1152,0 1.47802,1.62 3.02851,3.6 29.98174,38.28741 67.35334,70.92123 108.91634,95.10833 37.6426,21.90574 78.1194,37.00912 120.97,45.13835 3.432,0.65109 6.2678,1.20771 6.3017,1.23693 0.1158,0.0997 1.6677,9.62155 2.7963,17.15639 7.2544,48.43454 10.5821,100.04096 9.5085,147.45978 -0.6346,28.02832 -1.9502,49.59632 -4.5421,74.46022 -7.7077,73.94035 -24.4637,145.44342 -50.2772,214.54861 -38.3557,102.68195 -95.8252,197.32918 -169.53638,279.21139 -20.2336,22.47654 -47.38663,49.4473 -69.45082,68.9847 -72.4583,64.1603 -152.7959,114.8717 -241.12,152.2018 -16.07837,6.7955 -46.27469,18.4011 -47.63837,18.3091 -0.19891,-0.013 -3.09763,-1.0304 -6.44163,-2.26 z m 9.84688,-58.3852 c 25.06307,-9.757 46.43456,-19.2354 70.63312,-31.3265 140.90797,-70.4063 259.49098,-181.09388 339.7446,-317.1239 24.1849,-40.99331 44.6782,-83.89222 61.3764,-128.48 29.445,-78.62435 46.5291,-161.35792 50.7152,-245.6 1.3721,-27.61213 1.3128,-57.88304 -0.1677,-85.6 -0.8895,-16.6519 -2.9756,-40.98637 -4.5548,-53.1306 l -0.5537,-4.25789 -1.28,-0.39677 c -0.704,-0.21823 -4.376,-1.29274 -8.16,-2.3878 -48.4283,-14.01483 -96.9376,-38.33482 -138.08,-69.22604 -17.69558,-13.28648 -30.5937,-24.50464 -47.36736,-41.1979 l -8.96733,-8.92436 -4.31267,1.94304 C 870.72928,197.09843 780.05555,219.4388 689.44,225.10875 c -15.8335,0.99072 -21.63965,1.17974 -41.6,1.35432 -20.78371,0.18177 -33.47549,-0.079 -50.4,-1.03564 -92.90682,-5.25131 -182.18317,-26.83985 -267.14259,-64.59961 -3.40042,-1.5113 -6.22192,-2.74782 -6.27002,-2.74782 -0.0481,0 -3.85635,3.78 -8.46285,8.4 -45.36063,45.49362 -97.70543,79.27684 -157.64454,101.74347 -9.78492,3.66763 -29.67003,10.08557 -36.55669,11.79873 -1.95458,0.48623 -1.69954,-0.28707 -2.63116,7.9778 -10.52181,93.34448 -5.44476,186.53949 15.07071,276.64 24.42361,107.26438 71.30459,210.33619 135.76767,298.49667 1.77621,2.42915 3.66147,5.02637 4.18947,5.77162 3.22802,4.55606 17.13068,22.44329 23.68,30.46675 26.31053,32.23267 57.63402,65.03171 88.48,92.64803 69.68838,62.39183 148.66896,112.02513 234.88,147.60413 7.8999,3.2603 18.71443,7.53 19.12688,7.5515 0.22381,0.012 1.73581,-0.496 3.36,-1.1283 z M 498.88109,992.4 v -4.08 l 2.95011,-0.57286 c 7.96803,-1.54724 15.72474,-5.31796 21.75078,-10.57357 6.52298,-5.68899 13.0488,-15.53872 21.44871,-32.37357 4.09721,-8.21149 4.70099,-9.52381 15.60576,-33.92 4.24816,-9.504 8.56669,-19.152 9.59677,-21.44 1.03008,-2.288 7.19641,-16.04 13.70294,-30.56 6.50653,-14.52 18.0583,-40.296 25.67056,-57.28 19.07082,-42.54944 22.0919,-49.29309 24.80102,-55.36 1.29674,-2.904 9.26541,-20.688 17.70816,-39.52 l 15.35047,-34.24 2.3463,-0.0836 2.34627,-0.0836 22.39255,50.96359 c 12.31587,28.02998 24.13923,54.92358 26.27408,59.76358 7.49885,17.00093 39.95747,90.76266 56.02925,127.3256 13.16777,29.95645 15.7598,35.63978 20.083,44.0344 7.41949,14.40691 13.24343,22.91344 18.36925,26.83046 4.63837,3.54452 11.28765,6.07386 17.81187,6.77549 3.28519,0.35328 3.04,-0.009 3.04,4.49562 V 996.48 h -76.8 -76.8 v -3.94909 -3.94905 l 7.02631,-0.2113 c 11.87981,-0.35722 17.92745,-1.45075 23.4223,-4.2352 2.16506,-1.09712 4.60899,-3.58637 5.55683,-5.6599 1.73575,-3.79709 1.70794,-9.44836 -0.0744,-15.11546 -1.38823,-4.41405 -5.14912,-13.67974 -10.5208,-25.92 -2.0082,-4.576 -5.92292,-13.504 -8.6994,-19.84 l -5.04809,-11.52 -55.68144,-0.0809 -55.68144,-0.0809 -6.94311,15.60089 c -8.1982,18.42112 -8.42416,18.96279 -10.2799,24.6465 -2.30992,7.07462 -2.88074,10.26989 -2.90019,16.2344 -0.0144,4.42806 0.083,5.46445 0.72118,7.66877 1.38819,4.79507 4.08643,8.592 8.1833,11.51545 3.11629,2.22375 6.5744,3.35712 14.11881,4.62733 3.66007,0.61623 14.06157,1.84624 17.12,2.02451 l 1.44,0.0839 0.0896,4.08 0.0896,4.08 H 551.68851 498.87894 V 992.4 Z M 686.32214,888.08 c -0.14176,-0.52061 -27.81894,-63.83587 -45.11571,-103.20826 -1.06512,-2.42454 -2.00889,-4.33593 -2.09728,-4.24758 -0.0883,0.0884 -2.49619,5.3841 -5.35072,11.76826 -2.85453,6.38416 -10.54838,23.55958 -17.09747,38.16758 -6.54912,14.608 -12.97267,28.936 -14.27462,31.84 -1.30192,2.904 -4.44084,9.888 -6.9753,15.52 -2.5345,5.632 -4.5463,10.348 -4.47072,10.48 0.0756,0.132 21.60176,0.24 47.83587,0.24 45.27187,0 47.69069,-0.0285 47.54595,-0.56 z M 396.96,631.48861 c -0.704,-0.0646 -3.296,-0.27296 -5.76,-0.46298 -18.85744,-1.4544 -38.0921,-5.82214 -54.88829,-12.46387 -29.993,-11.86013 -53.58745,-30.51795 -70.21221,-55.52176 -13.31725,-20.02931 -22.40112,-43.42426 -25.90622,-66.72 -2.16132,-14.36464 -2.34048,-31.59008 -0.47904,-46.05894 2.86485,-22.26829 10.10807,-43.62964 21.54556,-63.54106 17.79398,-30.97738 41.58085,-53.45722 72.9802,-68.97007 20.05418,-9.90776 39.49597,-15.47709 61.6,-17.64603 5.67549,-0.55691 26.32438,-0.56189 31.36,-0.008 10.55754,1.16217 21.45424,3.20495 31.04,5.81899 8.87312,2.41971 14.83664,4.42323 27.36,9.19199 14.07686,5.36032 20.46467,7.22643 24.68154,7.21036 9.89488,-0.0377 17.24745,-7.75855 19.34838,-20.31766 l 0.41488,-2.48 h 4.5776 4.5776 v 55.04 55.04 h -4.60438 -4.60439 l -0.22105,-1.17837 c -0.66596,-3.54982 -4.0033,-14.07395 -6.43818,-20.30246 -10.21171,-26.12176 -27.47472,-45.72858 -50.62102,-57.49376 -10.66618,-5.4216 -21.41485,-8.67501 -33.19098,-10.04621 -5.19165,-0.60451 -18.53997,-0.50269 -23.52,0.17942 -10.97862,1.50375 -19.63005,4.11418 -29.28,8.83482 -14.90614,7.2919 -27.91037,18.24365 -37.81494,31.84656 -12.40887,17.04234 -21.86304,45.62218 -24.876,75.2 -0.98378,9.65754 -1.2345,16.72342 -1.04468,29.44 0.23402,15.6775 0.83437,23.70666 2.7993,37.43808 3.07962,21.52134 8.89562,42.01197 15.89539,56.00192 5.24746,10.48771 10.72048,18.19136 18.30707,25.76838 15.39818,15.37876 34.23389,22.96263 60.41146,24.32368 19.92122,1.03575 39.48019,-2.69782 56.83293,-10.84873 17.20102,-8.07965 35.87321,-23.51847 55.16947,-45.616 1.00602,-1.15207 1.36176,-1.39994 1.36682,-0.95239 0.004,0.33277 0,6.50826 -0.007,13.7233 l -0.0138,13.11827 -1.99319,2.03603 c -3.5135,3.58903 -11.41619,10.87354 -15.40374,14.19876 -21.33623,17.79235 -42.4849,28.16259 -67.34298,33.02156 -13.37177,2.6138 -19.14432,3.12618 -36.36649,3.22804 -7.92,0.0468 -14.976,0.0323 -15.68,-0.0323 z m 391.52,-62.05818 v -60.00957 l 4.05776,0.0896 4.05776,0.0896 0.85578,3.84 c 4.8455,21.74237 12.95065,40.95251 23.54137,55.79574 14.17875,19.87197 36.44935,35.7505 57.72733,41.15853 18.1271,4.6072 37.33242,3.22183 51.31731,-3.70179 11.23501,-5.56221 20.56183,-15.54922 24.62912,-26.37248 5.60419,-14.91306 2.24778,-31.20006 -9.27805,-45.02141 -4.97769,-5.96909 -12.84713,-12.5327 -21.48096,-17.91651 -9.23702,-5.75997 -14.92944,-8.82998 -36.38742,-19.62435 -24.90374,-12.52775 -37.34797,-19.48627 -50.24,-28.09306 -25.11846,-16.76925 -41.50883,-38.43513 -46.69718,-61.72755 -1.33517,-5.99389 -1.80308,-9.90944 -2.0001,-16.73712 -0.73622,-25.51312 7.44819,-46.64282 25.13248,-64.88445 15.17123,-15.64941 33.90205,-25.10222 55.8848,-28.20317 11.94755,-1.68536 26.73453,-1.43618 38.4,0.64709 11.45802,2.04622 20.03542,5.03998 36.8,12.84424 6.29866,2.93216 11.4216,4.93637 15.33859,6.00078 2.71741,0.73844 3.64595,0.84549 6.4,0.73781 3.68701,-0.14415 5.8793,-0.94056 8.0921,-2.93968 2.25081,-2.03347 4.48761,-7.28248 6.32499,-14.84262 l 0.87494,-3.6 h 3.64468 3.6447 v 3.2126 c 0,3.26638 1.3185,62.76897 1.91421,86.3874 0.17977,7.128 0.32662,13.716 0.32633,14.64 v 1.68 h -4.77456 -4.77459 l -0.20262,-1.04 c -4.63351,-23.78266 -13.04311,-41.52326 -26.65946,-56.24 -13.52406,-14.61699 -29.38518,-24.5335 -45.81513,-28.64401 -11.91687,-2.98141 -25.71488,-2.98111 -36.76378,6.4e-4 -8.11482,2.19006 -14.54451,5.80188 -20.47078,11.49932 -4.27114,4.10617 -7.01901,7.74422 -9.20272,12.1839 -4.71245,9.58083 -5.15962,20.02525 -1.29085,30.14973 3.5112,9.18867 14.78269,20.79565 28.41229,29.25789 8.42892,5.23331 21.05462,11.95747 43.75977,23.30547 19.89997,9.94595 28.39834,14.56381 39.36563,21.3904 26.51136,16.50205 40.11357,29.84685 49.14646,48.21651 5.4803,11.1449 7.9871,20.84374 8.7714,33.93603 0.337,5.62743 -0.01,13.85725 -0.7989,19.15472 -2.3274,15.55434 -8.5963,29.73507 -18.89822,42.74925 -3.26851,4.12906 -13.50858,14.15574 -17.97901,17.60438 -13.95187,10.76292 -29.62541,17.63111 -47.74493,20.92199 -9.35072,1.69827 -21.50588,2.41385 -31.44025,1.85088 -17.86544,-1.01242 -29.4913,-3.98784 -53.35975,-13.65645 -11.83641,-4.79469 -18.75408,-6.168 -24.17276,-4.79891 -2.81373,0.71091 -7.48605,3.12032 -10.13866,5.22825 -3.43619,2.7306 -6.28573,6.39367 -8.68918,11.16986 l -1.16743,2.32 h -3.996 -3.99597 v -60.00957 z" id="path26" sodipodi:nodetypes="csssssssssssscsssssssssssssssssscssssssscsssscssssssssssssssssssccssssssssscccssssssscccccsssssscccssssssscccccccsssssssssscsssssssscsssscccccccssssssssssssssssccssssccccccssssssssssssssssssscccssccccsssssssssssscssssssssccccc"/>
      </g>
    </g>
  </g>
</svg>