<svg xmlns:dc="http://purl.org/dc/elements/1.1/" xmlns:cc="http://creativecommons.org/ns#" xmlns:rdf="http://www.w3.org/1999/02/22-rdf-syntax-ns#" xmlns:svg="http://www.w3.org/2000/svg" xmlns="http://www.w3.org/2000/svg" xmlns:sodipodi="http://sodipodi.sourceforge.net/DTD/sodipodi-0.dtd" xmlns:inkscape="http://www.inkscape.org/namespaces/inkscape" viewBox="0 0 700.00002 888.5" height="888.5" width="700" xml:space="preserve" version="1.1" id="svg2" inkscape:version="0.91 r13725" sodipodi:docname="LIGHT_MediaGuide1617_Ligue1 copie.svg"><sodipodi:namedview pagecolor="#ffffff" bordercolor="#666666" borderopacity="1" objecttolerance="10" gridtolerance="10" guidetolerance="10" inkscape:pageopacity="0" inkscape:pageshadow="2" inkscape:window-width="1280" inkscape:window-height="691" id="namedview5958" showgrid="false" inkscape:zoom="0.57969847" inkscape:cx="903.11957" inkscape:cy="773.1259" inkscape:window-x="0" inkscape:window-y="1" inkscape:window-maximized="1" inkscape:current-layer="svg2" showguides="false"/><metadata id="metadata8"><rdf:RDF><cc:Work rdf:about=""><dc:format>image/svg+xml</dc:format><dc:type rdf:resource="http://purl.org/dc/dcmitype/StillImage"/><dc:title/></cc:Work></rdf:RDF></metadata><defs id="defs6"/><path id="path14230" style="fill:#ffffff;fill-opacity:1;fill-rule:nonzero;stroke:none" d="M 349.9861,42.852229 39.8366,106.00378 c 0,0 0.2426,39.55609 0.2426,153.49143 0,113.9699 11.3714,223.93237 99.7777,370.79081 85.7019,142.29827 209.9905,212.94648 209.9905,212.94648 0,0 124.3926,-70.64821 210.0947,-212.94648 88.4408,-146.85844 99.7776,-256.82091 99.7776,-370.79081 0,-113.93534 0.4506,-153.49143 0.4506,-153.49143 L 349.9861,42.852229 Z" inkscape:connector-curvature="0"/><g id="g14242" transform="matrix(0.98474033,0,0,0.98474033,-1176.6889,423.30722)"><path d="m 1195.9385,-352.36607 0,0.58924 0,161.24272 c 0,131.434307 11.2648,274.341387 112.6134,431.35547 105.8199,163.87696 241.4135,230.35665 241.4828,230.42597 l 0.3463,0.13865 0.3123,-0.13865 c 0.069,-0.0693 135.6282,-66.54901 241.4481,-230.42597 101.3486,-157.014083 112.6134,-299.921163 112.6134,-431.35547 l 0,-129.90923 0,-31.92273 -354.3738,-76.28874 z" style="fill:#000000;fill-opacity:1;fill-rule:nonzero;stroke:none" id="path14240" inkscape:connector-curvature="0" sodipodi:nodetypes="ccccscccccccc"/><path sodipodi:nodetypes="cccscccccccssccc" inkscape:connector-curvature="0" id="path15332" style="fill:#ffffff;fill-opacity:1;fill-rule:nonzero;stroke:none" d="m 1903.264,-190.53407 c -3e-4,131.364985 -11.2644,273.856134 -112.3704,430.52361 -52.7886,81.76517 -113.0293,139.26768 -160.0642,176.28557 -23.5002,18.50895 -43.7075,31.92273 -58.0571,40.69195 -7.1748,4.40194 -12.8592,7.62541 -16.7413,9.77439 -1.9756,1.03983 -3.4661,1.83703 -4.4712,2.35694 l -1.1788,0.61289 -1.2128,-0.61289 C 1533.952,461.26498 1408.7913,393.32952 1309.7997,239.9895 1208.659,83.322024 1197.4289,-59.169125 1197.4289,-190.53411 l 0,-129.90923 -0.02,-30.72822 352.9718,-75.99283 352.883,75.99027 0,160.64005 z"/><path sodipodi:nodetypes="ccscccscc" id="path15342" style="fill:#231f20;fill-opacity:1;fill-rule:nonzero;stroke:none" d="m 1550.4021,-415.92731 -340.1972,73.96646 0,156.66747 c 0,127.656269 10.8142,266.300053 108.2115,418.70423 101.6605,159.05908 231.951,223.59776 231.951,223.59776 0,0 130.2905,-64.53868 231.9511,-223.59776 97.3626,-152.404177 108.1768,-291.047961 108.1768,-418.70423 l 0,-156.66747 z" inkscape:connector-curvature="0"/></g><path inkscape:connector-curvature="0" d="M 349.9829,45.254582 44.6378,107.64792 c 0,0 0.2389,39.08118 0.2389,151.64862 0,112.60158 11.1953,221.24383 98.232,366.33909 84.3744,140.58985 206.7377,210.38985 206.7377,210.38985 0,0 122.4657,-69.8 206.8401,-210.38985 87.0708,-145.09526 98.232,-253.73751 98.232,-366.33909 0,-112.56744 0.4437,-151.64862 0.4437,-151.64862 L 349.9829,45.254582 Z" style="fill:#254991;fill-opacity:1;fill-rule:nonzero;stroke:none" id="path15344"/><path inkscape:connector-curvature="0" d="m 557.7139,288.40775 c -25.5308,-5.39286 -43.5183,-8.94259 -43.5183,-8.94259 l -8.8061,-1.74074 0,8.97673 0,3.07189 0,14.57437 c -3.4814,-0.61438 -7.509,-1.33115 -12.151,-2.08206 l 0,0 c -9.6252,-1.57007 -17.1002,-2.59403 -22.7319,-3.27667 l 0,-8.60127 0,-7.20186 0,-3.03775 0,-6.38269 -6.3145,-0.92156 c -45.0201,-6.62162 -89.8013,-7.9869 -89.972,-8.02103 l -7.5773,-0.23893 0,7.61145 0,3.34493 0,16.75884 c -5.8366,-0.17067 -12.6971,-0.30719 -16.6564,-0.30719 -3.9252,0 -10.581,0.13652 -16.2469,0.30719 l 0,-8.8402 0,-7.91864 0,-3.34493 0,-7.61145 -7.6114,0.23893 c -0.1366,0.0342 -44.9519,1.39941 -89.9721,8.02103 l -6.2803,0.92156 0,6.38269 0,3.03775 0,15.80313 c -5.6317,0.68264 -13.1408,1.7066 -22.766,3.27667 l 0,0 c -4.6079,0.75091 -8.6355,1.46768 -12.151,2.08206 l 0,-7.23599 0,-7.33838 0,-3.07189 0,-8.97673 -8.772,1.74074 c -0.034,0 -17.9875,3.54973 -43.5183,8.94259 l -5.8707,1.22875 0,78.845 0.9898,1.7066 c 0,0 0.512,0.8533 1.3653,2.32098 5.3928,9.35218 25.4966,44.13272 30.1385,52.15374 0.1707,5.05154 0.7851,19.79658 1.5701,39.38837 1.1947,30.75296 2.9354,73.28147 4.3348,108.30093 0.6827,17.50973 1.3312,33.14221 1.7748,44.47404 0.2049,5.66592 0.4097,10.27374 0.5121,13.48215 0.068,1.33115 0.1023,2.42337 0.1365,3.24254 -1.7066,3.14015 -5.4611,9.96656 -8.9426,16.34925 -1.9797,3.58386 -3.8569,6.99706 -5.2222,9.52283 -1.3994,2.5599 -2.321,4.19825 -2.321,4.19825 l 12.9361,7.09945 c 0,0 4.3005,-7.81623 8.6012,-15.70073 2.1845,-3.95931 4.3689,-7.95276 6.0073,-10.95638 0.8191,-1.50181 1.5359,-2.76469 2.0137,-3.72039 0.2731,-0.44372 0.4437,-0.81917 0.6144,-1.09223 0.068,-0.13652 0.1366,-0.27305 0.1707,-0.37545 l 0.1024,-0.13653 0.068,-0.10239 0.1023,-0.23893 0.6827,-1.46767 0,-1.63835 c 0,-0.17065 0,-0.17065 0,-0.27304 -0.034,-0.23893 -0.034,-0.58025 -0.034,-1.12637 -0.3073,-8.39648 -2.4234,-60.68675 -4.4372,-111.20216 -1.024,-25.2577 -2.0138,-50.07168 -2.7647,-68.70777 -0.3754,-9.31805 -0.6827,-17.10015 -0.8874,-22.59541 -0.1024,-2.76469 -0.2048,-4.98327 -0.273,-6.48508 0,-0.78504 -0.034,-1.36528 -0.034,-1.809 -0.035,-0.20479 -0.035,-0.37545 -0.035,-0.47785 l 0,-0.0683 0,-1.94553 -0.9897,-1.7066 c -1.1264,-1.91139 -26.111,-45.19081 -31.4357,-54.37233 l 0,-62.90534 c 10.2055,-2.15031 18.9092,-3.9593 25.3601,-5.25632 1.1947,-0.23893 2.321,-0.47785 3.345,-0.68265 l 0,17.578 0,8.9426 8.7719,-1.7066 c 4.7785,-0.95571 11.4683,-2.21859 20.4792,-3.68626 l 0,0 c 13.7894,-2.25273 22.9708,-3.34495 28.4662,-3.89106 l 6.6216,-0.64851 0,-6.68988 0,-15.18875 0,-3.85692 c 19.8648,-2.69643 39.3883,-4.40304 54.4064,-5.46112 8.26,-0.58025 15.1546,-0.9557 20.0013,-1.19463 l 0,20.06964 0,7.71383 7.7139,-0.37545 c 5.1199,-0.23891 17.7145,-0.5461 23.2781,-0.5461 5.5976,0 18.5337,0.30719 23.6534,0.5461 l 7.7139,0.37545 0,-7.71383 0,-16.48577 0,-3.58387 c 13.6187,0.64851 43.6208,2.45751 74.4079,6.65575 l 0,19.04567 0,6.68988 6.6556,0.64851 c 5.4612,0.54611 14.6768,1.63833 28.4662,3.89106 9.0109,1.46767 15.6666,2.73055 20.4451,3.68626 l 8.806,1.7066 0,-8.9426 0,-16.14445 0,-1.43355 c 6.6216,1.33116 16.5882,3.37907 28.671,5.93897 l 0,62.90534 c -5.2906,9.21565 -30.3093,52.46094 -31.4356,54.37233 l -0.9899,1.7066 0,1.9114 c 0,0.0341 0,0.40958 0,0.88743 -0.1706,4.09584 -0.7508,19.25046 -1.57,39.72968 -1.2288,30.6847 -2.9354,73.28147 -4.3689,108.40334 -0.6827,17.54385 -1.297,33.24459 -1.7749,44.64469 -0.2389,5.70005 -0.4096,10.30787 -0.512,13.55042 -0.068,1.63833 -0.1365,2.90122 -0.1707,3.78865 0,0.47785 0,0.81917 -0.034,1.09222 0,0.13654 0,0.23893 0,0.34132 0,0.10241 0,0.13654 0,0.34132 l 0,1.63835 0.6827,1.46767 0.1023,0.23893 c 0.068,0.13653 0.1024,0.20479 0.1707,0.34132 0.239,0.40958 0.6143,1.16049 1.1946,2.21858 4.0617,7.40665 16.1786,29.5242 16.2127,29.5242 l 12.902,-7.09945 c 0,0 -1.0581,-1.94554 -2.6964,-4.91502 -2.4235,-4.40303 -6.0414,-11.02464 -9.1133,-16.58817 -1.5018,-2.79883 -2.9013,-5.3246 -3.9252,-7.20186 -0.2731,-0.51197 -0.5461,-0.95569 -0.7509,-1.36528 0.4096,-10.58093 2.4575,-61.26699 4.403,-110.28059 1.024,-25.2577 2.0138,-50.03756 2.7647,-68.70778 0.3755,-9.31804 0.6826,-17.10014 0.8874,-22.5954 0.1024,-2.79883 0.2049,-4.98328 0.2731,-6.51922 0,-0.27306 0,-0.54611 0,-0.78504 2.4575,-4.19824 9.1473,-15.80313 15.769,-27.23736 3.9593,-6.86054 7.9186,-13.68694 10.8539,-18.77261 1.4678,-2.52578 2.6966,-4.64196 3.5498,-6.14377 0.8533,-1.46768 1.3312,-2.32098 1.3312,-2.32098 l 0.9898,-1.7066 0,-78.845 -5.8366,-1.22875 z" style="fill:#ffffff;fill-opacity:1;fill-rule:nonzero;stroke:none" id="path15346"/><g id="g15348" transform="matrix(34.132032,0,0,-34.132032,539.2177,663.61776)"><path inkscape:connector-curvature="0" d="m 0,0 c 0,0 -0.031,0.057 -0.079,0.144 -0.071,0.129 -0.177,0.323 -0.267,0.486 -0.045,0.082 -0.085,0.156 -0.115,0.211 -0.008,0.015 -0.016,0.028 -0.022,0.04 0.012,0.31 0.072,1.795 0.129,3.231 0.03,0.74 0.059,1.466 0.081,2.013 0.011,0.273 0.02,0.501 0.026,0.662 0.003,0.081 0.006,0.146 0.007,0.191 0.001,0.008 0.001,0.016 0.001,0.023 0.072,0.123 0.268,0.463 0.462,0.798 C 0.339,8 0.454,8.2 0.541,8.349 0.584,8.423 0.62,8.485 0.645,8.529 0.67,8.572 0.684,8.597 0.684,8.597 l 0.029,0.05 0,2.31 -0.171,0.036 c -0.748,0.158 -1.275,0.262 -1.275,0.262 l -0.258,0.051 0,-0.78 c -0.103,0.018 -0.22,0.039 -0.356,0.061 l 0,0 c -0.282,0.046 -0.501,0.076 -0.666,0.096 l 0,0.739 -0.185,0.027 c -1.319,0.194 -2.631,0.234 -2.636,0.234 l -0.222,0.007 0,-0.811 c -0.171,0.005 -0.372,0.008 -0.488,0.008 -0.115,0 -0.31,-0.003 -0.476,-0.008 l 0,0.811 -0.223,-0.007 c -0.004,0 -1.317,-0.04 -2.636,-0.234 l -0.185,-0.027 0,-0.739 c -0.165,-0.02 -0.384,-0.05 -0.666,-0.096 l 0,0 c -0.135,-0.022 -0.253,-0.043 -0.356,-0.061 l 0,0.78 -0.257,-0.051 c -10e-4,0 -0.527,-0.104 -1.275,-0.262 l -0.172,-0.036 0,-2.31 0.029,-0.05 c 0,0 0.015,-0.025 0.04,-0.068 0.158,-0.274 0.747,-1.293 0.883,-1.528 0.005,-0.148 0.023,-0.58 0.046,-1.155 0.035,-0.9 0.086,-2.146 0.127,-3.172 0.02,-0.513 0.039,-0.971 0.052,-1.303 0.006,-0.166 0.012,-0.301 0.015,-0.395 0.002,-0.039 0.003,-0.071 0.004,-0.095 -0.05,-0.092 -0.16,-0.293 -0.262,-0.479 C -10.914,0.297 -10.969,0.197 -11.01,0.122 -11.05,0.048 -11.077,0 -11.077,0" style="fill:none;stroke:#231f20;stroke-width:0.09;stroke-linecap:butt;stroke-linejoin:miter;stroke-miterlimit:10;stroke-dasharray:none;stroke-opacity:1" id="path15350"/></g><path inkscape:connector-curvature="0" d="m 40.3611,106.51474 c -0.01,1.84398 0,4.09458 0.034,5.52939 0.034,9.01085 0.2048,51.23218 0.2048,149.77136 0,56.42025 2.7989,112.12372 16.5882,171.99131 13.7893,59.83345 38.5351,123.7286 82.2924,196.63462 42.4943,70.85811 94.5115,123.76275 135.9478,159.02114 41.4021,35.25839 72.2234,52.83638 72.3941,52.93878 l 2.1844,1.26288 2.1845,-1.26288 c 0.2047,-0.1024 31.026,-17.68039 72.4623,-52.93878 41.4704,-35.25839 93.4876,-88.16303 135.982,-159.02114 43.7572,-72.90602 68.5371,-136.80117 82.2923,-196.63462 13.7893,-59.86759 16.5881,-115.57106 16.5881,-171.99131 0.087,-50.92632 0.026,-106.89662 0.4789,-155.30075 L 350.1447,43.233959 Z m 610.7598,7.19304 c 0,0.0342 -0.4436,35.47202 -0.4436,148.10773 0,56.14719 -2.7647,111.06563 -16.3492,169.97751 -13.5846,58.91189 -37.9208,121.88548 -81.2343,194.10887 -41.88,69.76587 -93.2487,122.02201 -134.1389,156.83668 -20.4451,17.37321 -38.2961,30.41164 -50.9591,39.08118 -6.3485,4.33477 -11.4342,7.57731 -14.8816,9.72763 l -3.107,1.77093 -3.2269,-1.87332 C 336.101,824.79234 310.6172,808.03187 279.219,781.10023 238.6701,746.3197 188.2571,694.57553 147.0597,625.90189 103.7462,553.6785 79.3759,490.70491 65.8255,431.79302 52.241,372.88114 49.4421,317.9627 49.4421,261.81551 49.4421,177.04679 49.3069,133.92553 49.24,117.7873 l 0,-4.02156 300.9055,-61.691528 z" style="fill:#ffffff;fill-opacity:1;fill-rule:nonzero;stroke:none" id="path15352" sodipodi:nodetypes="ccsccccccccccccccssccccccsccscccc"/><g id="g14177" transform="matrix(0.98474033,0,0,0.98474033,-1176.6889,423.30722)"><g id="g13966"><path inkscape:connector-curvature="0" d="m 1300.3788,-173.75821 c -19.1328,4.67922 -29.2538,-1.94102 -30.259,-20.4153 -0.069,-1.76771 -0.1733,-3.53542 -0.2426,-5.26846 6.8975,-1.90636 13.8297,-3.74339 20.7619,-5.51109 0.069,1.42109 0.1387,2.84219 0.208,4.26329 0.2079,4.29796 1.0398,7.24414 2.4609,8.73456 1.5597,1.73305 4.1247,2.11432 7.868,1.21313 2.4956,-0.62389 4.4713,-1.90635 6.1004,-3.95134 1.629,-2.01034 2.3569,-4.60991 2.2183,-7.7294 -0.1387,-3.53541 -1.2132,-6.031 -3.1542,-7.38278 -2.0796,-1.45576 -6.1003,-2.53025 -11.9233,-3.11948 -8.4573,-0.86653 -14.627,-2.8422 -18.3357,-6.03101 -4.1593,-3.39677 -6.4816,-8.97718 -6.8629,-16.60259 -0.4852,-8.97718 1.7678,-16.7759 6.6896,-23.08419 4.7139,-6.06567 11.6114,-10.32896 20.554,-12.5126 l 0.1733,-0.0693 c 8.6652,-2.07966 15.6667,-1.59441 20.7619,1.31711 5.6497,3.22347 8.6652,9.3238 9.0465,18.05836 0.069,1.35177 0.104,2.73821 0.1733,4.12465 -6.7936,1.45576 -13.5525,2.98084 -20.3113,4.57524 -0.035,-0.51991 -0.035,-1.03983 -0.069,-1.55974 -0.4852,-10.64091 -4.9911,-10.81421 -8.3186,-10.01701 -2.9115,0.72788 -4.9218,1.90635 -6.1696,3.67406 -1.3172,1.76771 -1.9064,4.26329 -1.7331,7.34812 0.104,2.63423 0.6932,4.57524 1.7331,5.75372 1.2131,1.42109 3.5007,2.42626 6.8282,3.11948 4.6099,0.90118 9.1851,1.87169 13.795,2.87686 6.7589,1.45576 11.6114,4.02067 14.4883,7.48676 2.4956,3.22347 3.882,7.93736 4.1593,14.03769 0.7972,19.51411 -9.4971,31.54146 -30.467,36.63662 l -0.1733,0.0347 z" style="fill:#ffffff;fill-opacity:1;fill-rule:nonzero;stroke:none" id="path15354"/><path inkscape:connector-curvature="0" d="m 1296.58,-272.80187 -0.1733,0.0347 c -9.4278,2.32229 -16.7759,6.86287 -21.7671,13.37913 -5.2338,6.68956 -7.6254,14.90421 -7.1401,24.29732 0.4159,8.00668 2.9115,13.86438 7.3481,17.53844 3.9167,3.32745 10.1556,5.33779 19.0288,6.27363 6.9669,0.69322 9.9824,1.97568 11.2995,2.87686 1.5944,1.10915 2.4956,3.25813 2.6342,6.37762 0.104,2.70355 -0.4505,4.85253 -1.8023,6.51625 -1.3171,1.66373 -2.8422,2.6689 -4.8526,3.15415 -4.7138,1.10915 -6.031,-0.31195 -6.4469,-0.7972 -0.8665,-0.93585 -1.9063,-3.0155 -2.149,-7.97202 -0.069,-0.90118 -0.104,-1.76771 -0.1386,-2.66889 -0.035,-1.03983 -0.104,-2.11432 -0.1387,-3.15415 -1.1438,0.27729 -2.2876,0.55458 -3.3967,0.83186 -5.8231,1.49042 -11.6114,3.05017 -17.3998,4.60991 -1.1438,0.31195 -2.2876,0.6239 -3.3968,0.93585 0.069,1.03982 0.104,2.11431 0.1733,3.15414 0.069,1.2478 0.104,2.46093 0.1733,3.67406 1.0398,19.27149 12.0274,26.4463 32.0267,21.55911 l 0.1733,-0.0347 c 21.7671,-5.30313 32.8933,-18.26632 32.0961,-38.57763 -0.2773,-6.37762 -1.7677,-11.36879 -4.4366,-14.80023 -3.0502,-3.74338 -8.18,-6.44693 -15.2162,-7.97202 -4.6099,-1.00516 -9.2198,-1.97567 -13.8297,-2.87685 -3.7781,-0.76254 -5.4071,-1.87169 -6.1003,-2.70356 -0.8319,-0.9705 -1.3172,-2.63423 -1.4558,-4.99117 -0.104,-2.70356 0.3466,-4.78321 1.3864,-6.20431 0.9359,-1.28246 2.5303,-2.2183 4.8526,-2.77288 1.8717,-0.45059 6.135,-1.45576 6.5856,8.80388 0.035,1.03983 0.1039,2.11432 0.1386,3.15415 1.1438,-0.24263 2.2876,-0.51992 3.4314,-0.7972 5.6151,-1.31712 11.2302,-2.59957 16.8799,-3.81271 1.1438,-0.24262 2.2876,-0.48525 3.4314,-0.72788 -0.035,-1.07449 -0.069,-2.14898 -0.1386,-3.1888 -0.035,-0.86653 -0.069,-1.69839 -0.104,-2.53025 -0.3813,-9.21982 -3.6394,-15.66675 -9.6704,-19.13285 -5.4418,-3.11948 -12.8245,-3.6394 -21.9057,-1.45576 m 0.1386,3.18881 c 8.2493,-2.01033 14.8003,-1.55974 19.5835,1.14381 5.2684,3.0155 8.076,8.6999 8.4226,16.98387 0.035,0.86652 0.069,1.69838 0.104,2.53024 -5.6498,1.2478 -11.2648,2.49559 -16.8799,3.81271 -0.4159,-8.90786 -3.7781,-12.68591 -10.121,-11.16083 l -0.035,0 c -6.6895,1.66373 -9.8437,6.03101 -9.4971,13.03252 0.1387,2.94618 0.8319,5.12982 2.045,6.55092 1.3865,1.5944 3.9167,2.77287 7.5561,3.50075 4.6099,0.90119 9.1852,1.8717 13.7951,2.8422 6.4816,1.4211 11.0568,3.77805 13.7257,7.03617 2.3569,3.01551 3.6394,7.41745 3.882,13.27515 0.7626,18.5436 -8.8732,29.84307 -28.8032,34.66094 l -0.1733,0.0693 c -18.1277,4.40194 -27.5901,-1.80237 -28.4913,-19.30614 -0.069,-1.2478 -0.1387,-2.46093 -0.208,-3.67406 5.7884,-1.59441 11.5768,-3.11949 17.3998,-4.60991 0.035,0.90119 0.104,1.76771 0.1387,2.66889 0.2079,4.64457 1.1438,7.83338 2.7728,9.53176 1.9064,2.07966 4.9912,2.59958 9.3238,1.55975 l 0.035,-0.0347 c 2.9115,-0.69322 5.3378,-2.25297 7.2441,-4.67923 1.941,-2.42627 2.8422,-5.40711 2.6689,-8.94253 -0.1733,-3.986 -1.4211,-6.75888 -3.7087,-8.35328 -2.253,-1.59441 -6.4469,-2.77288 -12.5473,-3.39678 -8.2146,-0.83186 -14.0723,-2.70355 -17.5731,-5.71905 -3.9513,-3.22347 -6.1003,-8.45727 -6.4469,-15.73607 -0.4506,-8.59592 1.6291,-15.87472 6.2736,-21.8364 4.402,-5.68439 10.8489,-9.63574 19.3408,-11.7154 l 0.1733,-0.0347" style="fill:#231f20;fill-opacity:1;fill-rule:nonzero;stroke:none" id="path15356"/><path inkscape:connector-curvature="0" d="m 1335.8197,-206.78663 c 6.4816,-1.35178 12.9978,-2.63423 19.5141,-3.88202 0.2773,7.66006 0.5892,15.35479 0.8665,23.01486 -6.4816,1.21314 -12.9632,2.49559 -19.4448,3.84737 -0.3119,-7.66007 -0.6239,-15.32014 -0.9358,-22.98021" style="fill:#ffffff;fill-opacity:1;fill-rule:nonzero;stroke:none" id="path15358"/><path inkscape:connector-curvature="0" d="m 1356.9906,-212.5854 c -1.1439,0.20796 -2.2877,0.41593 -3.4315,0.65855 -5.3724,1.00517 -10.7449,2.07966 -16.0827,3.18881 -1.1438,0.24263 -2.2876,0.48525 -3.4314,0.72788 0.035,1.03983 0.104,2.11432 0.1387,3.15415 0.2772,6.62024 0.5199,13.20582 0.7972,19.82606 0.035,1.07449 0.1039,2.11432 0.1386,3.1888 1.1438,-0.24262 2.253,-0.48525 3.3968,-0.72788 5.3378,-1.10915 10.6755,-2.14897 16.0133,-3.1888 1.1438,-0.20797 2.2877,-0.41593 3.4315,-0.6239 -0.035,-1.07449 -0.069,-2.14898 -0.104,-3.18881 -0.2773,-6.62024 -0.5199,-13.24048 -0.7626,-19.82606 -0.035,-1.07449 -0.069,-2.11432 -0.1039,-3.1888 m -3.3275,3.84736 c 0.2773,6.58558 0.5199,13.20582 0.7626,19.7914 -5.3378,1.03983 -10.7103,2.11432 -16.0481,3.18881 -0.2426,-6.58558 -0.5199,-13.20582 -0.7972,-19.7914 5.3725,-1.10915 10.7449,-2.18364 16.0827,-3.18881" style="fill:#231f20;fill-opacity:1;fill-rule:nonzero;stroke:none" id="path15360"/><path inkscape:connector-curvature="0" d="m 1393.6306,-192.26369 c -12.7205,1.90635 -21.6284,-1.31712 -26.5502,-9.84371 -3.7088,-6.34295 -5.7884,-17.33047 -6.4123,-33.65578 -0.5892,-16.3253 0.7279,-27.97138 3.986,-35.56213 4.298,-10.19032 13.1018,-16.56793 26.1343,-18.54361 l 0.1387,-0.0347 c 11.8194,-1.7677 20.2766,1.21314 25.0945,8.56126 2.9809,4.78321 4.6099,11.99268 4.8526,21.45512 0.035,0.55458 0.035,1.07449 0.069,1.59441 -7.1055,0.90118 -14.211,1.87169 -21.2818,2.87685 -0.035,-0.51991 -0.035,-1.03982 -0.069,-1.5944 -0.1733,-6.4816 -1.0398,-11.05684 -2.5649,-13.51777 -1.3518,-2.2183 -3.5007,-3.0155 -6.8282,-2.49559 -2.2876,0.34661 -5.4418,1.52509 -7.0362,7.83338 -1.2824,4.92185 -1.733,14.00302 -1.2824,27.03554 0.4159,12.78988 1.5944,21.35114 3.5354,25.44113 1.4211,3.15415 3.6394,4.40194 6.9669,3.88203 3.0155,-0.4506 5.0605,-1.83703 6.3776,-4.36728 1.8023,-3.4661 2.5995,-9.70507 2.3223,-18.47429 0,-0.51991 -0.035,-1.03983 -0.035,-1.5944 7.0708,-1.00517 14.1417,-1.94101 21.2125,-2.8422 0,0.55458 0,1.07449 0.035,1.5944 0.2773,11.61142 -1.3517,20.72725 -4.8525,27.10486 -4.5059,8.38795 -12.4433,13.41379 -23.6734,15.11218 l -0.1387,0.0347 z" style="fill:#ffffff;fill-opacity:1;fill-rule:nonzero;stroke:none" id="path15362"/><path inkscape:connector-curvature="0" d="m 1390.889,-291.49451 -0.1733,0.0347 c -13.7604,2.11431 -23.0842,8.8732 -27.6595,19.75674 -3.3621,7.83337 -4.7139,19.68741 -4.09,36.22068 0.5893,16.56794 2.7729,27.79808 6.6203,34.31434 5.1991,9.08117 14.6269,12.5126 28.0753,10.50227 l 0.1733,-0.0347 c 11.8541,-1.80237 20.3114,-7.14016 25.1639,-16.152 3.6741,-6.68957 5.3031,-15.8054 5.0258,-27.8674 -0.035,-1.07449 -0.069,-2.11432 -0.104,-3.18881 -1.1438,0.13864 -2.2876,0.27729 -3.466,0.41593 -5.8924,0.76254 -11.8194,1.55974 -17.7465,2.3916 -1.1438,0.17331 -2.2876,0.34661 -3.4314,0.48526 0.035,1.07449 0.069,2.14898 0.104,3.22347 0.2773,10.57158 -1.0052,15.45878 -2.149,17.67708 -1.0051,1.90635 -2.5302,2.91152 -4.8872,3.29279 -1.837,0.27729 -3.882,0.13864 -5.3378,-3.05016 -1.2824,-2.77288 -2.9115,-9.25448 -3.4314,-24.95589 -0.4159,-12.89387 0,-21.83639 1.2478,-26.58494 1.4904,-5.82304 4.2286,-6.23897 5.4071,-6.41228 3.3275,-0.51991 4.5059,0.6239 5.2338,1.80237 0.9705,1.55975 2.1837,5.09516 2.3916,12.89387 0.035,1.03983 0.069,2.11432 0.104,3.18881 1.1438,-0.1733 2.3223,-0.34661 3.4661,-0.51991 5.927,-0.86653 11.854,-1.66373 17.8157,-2.39161 1.1438,-0.1733 2.2876,-0.31195 3.4661,-0.45059 -0.035,-1.07449 -0.069,-2.11432 -0.069,-3.18881 -0.2773,-9.84371 -1.9064,-17.08784 -5.0605,-22.14834 -5.1991,-7.93736 -14.1763,-11.12617 -26.6889,-9.25447 m 0.1039,3.1888 c 11.1609,-1.66372 19.0289,1.03983 23.5002,7.9027 2.8768,4.57524 4.4019,11.50743 4.6445,20.76191 -5.927,0.72788 -11.8887,1.55974 -17.8157,2.3916 -0.1733,-6.79354 -1.1091,-11.54209 -2.7729,-14.24565 -1.629,-2.66889 -4.4366,-3.74338 -8.3879,-3.11948 l -0.035,0 c -4.3673,0.65855 -7.2788,3.77804 -8.6652,9.28913 -1.3171,5.0605 -1.7677,14.21099 -1.3171,27.45147 0.4159,13.06718 1.6637,21.69775 3.674,25.99571 1.6638,3.70872 4.5406,5.26846 8.5959,4.64457 l 0.035,0 c 3.6047,-0.55458 6.2043,-2.35695 7.8334,-5.40711 1.941,-3.77805 2.8075,-10.19032 2.5302,-19.27149 5.9271,-0.83186 11.8194,-1.62906 17.7464,-2.35694 0.2773,11.36879 -1.2478,20.10335 -4.6099,26.23833 -4.2286,7.9027 -11.646,12.54727 -22.2176,14.14167 l -0.1387,0.0347 c -12.062,1.80237 -20.346,-1.17847 -24.9559,-9.18515 -3.57,-6.13499 -5.6497,-17.12251 -6.2389,-33.06654 -0.5546,-15.90938 0.6932,-27.52079 3.8473,-34.83425 4.0554,-9.56642 12.2353,-15.45879 24.5746,-17.33048 l 0.1733,-0.0347" style="fill:#231f20;fill-opacity:1;fill-rule:nonzero;stroke:none" id="path15364"/><path inkscape:connector-curvature="0" d="m 1426.9502,-221.73243 c 6.5509,-0.7972 13.1365,-1.52508 19.7221,-2.18364 0.1386,7.69473 0.3119,15.38946 0.4852,23.04953 -6.5509,0.69322 -13.1018,1.4211 -19.618,2.18364 -0.208,-7.69473 -0.416,-15.3548 -0.5893,-23.04953" style="fill:#ffffff;fill-opacity:1;fill-rule:nonzero;stroke:none" id="path15366"/><path inkscape:connector-curvature="0" d="m 1448.3533,-225.68724 c -1.1438,0.10398 -2.3222,0.24262 -3.466,0.34661 -5.4072,0.55457 -10.8489,1.17847 -16.256,1.80237 -1.1438,0.13864 -2.2877,0.27728 -3.4661,0.41593 0.035,1.07449 0.069,2.14898 0.104,3.1888 0.1733,6.62025 0.3119,13.24049 0.4852,19.86073 0.035,1.07449 0.069,2.14898 0.104,3.1888 1.1438,-0.13864 2.2876,-0.27728 3.4314,-0.41593 5.3725,-0.62389 10.7796,-1.21313 16.1867,-1.76771 1.1438,-0.13864 2.2876,-0.24262 3.4314,-0.34661 -0.035,-1.07448 -0.035,-2.14897 -0.069,-3.1888 -0.1386,-6.6549 -0.2773,-13.27514 -0.4159,-19.89539 -0.035,-1.07448 -0.035,-2.11431 -0.069,-3.1888 m -3.3967,3.53541 c 0.1386,6.62025 0.3119,13.24049 0.4506,19.89539 -5.4071,0.55457 -10.8142,1.14381 -16.1867,1.76771 -0.1733,-6.62025 -0.3466,-13.24049 -0.4852,-19.86073 5.4071,-0.62389 10.8142,-1.24779 16.2213,-1.80237" style="fill:#231f20;fill-opacity:1;fill-rule:nonzero;stroke:none" id="path15368"/><path inkscape:connector-curvature="0" d="m 1496.2686,-261.58905 c 1.1092,-0.0693 2.2183,-0.10398 3.3622,-0.1733 4.2979,-0.20797 7.4867,-1.2478 9.4971,-3.01551 2.0103,-1.80237 2.9808,-4.40194 2.9461,-7.93735 -0.035,-3.77805 -0.9358,-6.44694 -2.6689,-7.86804 -1.733,-1.45576 -4.6099,-2.07966 -8.5612,-1.90635 0,-0.51991 -0.035,-1.07449 -0.035,-1.5944 -0.035,0.51991 -0.035,1.07449 -0.069,1.5944 -1.5944,0.0693 -3.1541,0.1733 -4.7485,0.24263 0.1039,6.89752 0.1733,13.76039 0.2772,20.65792 m 0.52,40.17204 c 1.733,-0.10399 3.466,-0.20797 5.1644,-0.27729 4.2633,-0.20797 7.4521,-1.35178 9.4625,-3.39677 2.045,-2.045 3.0501,-5.19915 3.0155,-9.3238 -0.069,-8.17998 -3.8821,-11.92336 -11.9234,-11.54209 0,-0.51992 0,-1.07449 -0.035,-1.59441 0,0.51992 -0.035,1.07449 -0.035,1.59441 -2.0103,0.10398 -3.986,0.20796 -5.9617,0.31195 0.104,8.076 0.208,16.152 0.312,24.228 m -22.5297,-76.1501 c 10.6756,-0.7972 21.3858,-1.4211 32.0614,-1.90635 17.9197,-0.72788 27.0702,7.52142 27.1742,23.81207 0.069,9.56642 -3.3621,16.25598 -10.1557,19.9647 3.3622,1.14381 6.1697,3.11949 8.388,5.92702 3.1195,3.95135 4.7139,9.11583 4.7485,15.38946 0.069,8.24931 -2.0103,14.86955 -6.1696,19.75674 -4.9912,5.82304 -12.6513,8.94253 -22.8416,9.39312 -10.5369,0.45059 -21.1085,1.07449 -31.6108,1.87169 -0.5545,-31.40282 -1.0744,-62.80563 -1.5944,-94.20845" style="fill:#ffffff;fill-opacity:1;fill-rule:nonzero;stroke:none" id="path15370"/><path inkscape:connector-curvature="0" d="m 1498.2304,-244.1442 c 1.4211,-0.0693 2.8076,-0.13864 4.194,-0.20796 7.1402,-0.31195 10.1903,2.70355 10.2597,9.98235 0.069,3.74338 -0.7972,6.4816 -2.5303,8.24931 -1.6637,1.69838 -4.4366,2.63423 -8.2146,2.80753 -1.1438,0.0693 -2.2877,0.13865 -3.4315,0.20797 -0.1039,-7.03617 -0.1733,-14.03768 -0.2773,-21.0392 m -0.4505,-36.60195 c 0.9705,-0.0347 1.9756,-0.10399 2.9808,-0.13865 l 0.104,0 c 3.4661,-0.1733 5.927,0.34661 7.3481,1.49042 1.3171,1.14381 2.0797,3.4661 2.1143,6.72423 0,3.11948 -0.7625,5.30312 -2.3916,6.75888 -1.6984,1.49042 -4.5059,2.35694 -8.3186,2.53025 -0.5546,0.0347 -1.1092,0.0693 -1.6291,0.10398 -0.069,-5.82304 -0.1386,-11.64608 -0.2079,-17.46911 m 8.5266,-20.31132 -0.1734,0 c -10.0516,0.45059 -20.1033,1.03983 -30.1203,1.76771 -1.1785,0.10398 -2.357,0.1733 -3.5354,0.27729 0.035,1.03983 0.035,2.11431 0.069,3.1888 0.5199,30.32833 1.0398,60.65666 1.5251,90.98499 0.035,1.07449 0.035,2.14898 0.069,3.1888 1.1438,-0.0693 2.2876,-0.1733 3.4314,-0.24262 9.9824,-0.72788 19.9301,-1.31712 29.9124,-1.73305 10.7449,-0.48525 18.8556,-3.8127 24.1587,-10.05167 4.4019,-5.16449 6.6202,-12.13134 6.5856,-20.72725 -0.035,-6.62024 -1.7677,-12.09667 -5.0952,-16.32531 -1.7677,-2.25296 -3.9167,-4.02067 -6.3429,-5.26846 4.6792,-3.53542 8.4919,-9.53176 8.4572,-19.68742 -0.1039,-17.1225 -10.121,-26.13435 -28.9418,-25.37181 m -11.2302,81.31458 c 2.2876,-0.13864 4.6099,-0.24263 6.8975,-0.34661 9.5665,-0.48525 14.2803,-5.19914 14.211,-14.38429 -0.104,-9.08117 -4.6792,-13.48311 -13.6911,-13.06718 l -0.1039,0 c -2.5649,0.10398 -5.1299,0.24263 -7.6601,0.38127 0.104,9.15049 0.2426,18.26632 0.3466,27.41681 m -0.5199,-40.13738 c 1.6637,-0.10398 3.3968,-0.20796 5.0951,-0.27728 9.4971,-0.48526 14.2457,-4.64457 14.1417,-12.65125 -0.035,-4.22863 -1.1091,-7.24414 -3.1888,-8.97718 -2.0796,-1.73305 -5.3378,-2.49559 -9.7744,-2.28763 l -0.104,0 c -2.1836,0.10399 -4.3326,0.20797 -6.5162,0.34661 0.104,7.93736 0.2426,15.87472 0.3466,23.84673 m 11.7847,-37.98839 c 16.8106,-0.69322 25.3025,6.93219 25.4065,22.25233 0.069,10.71023 -4.3673,17.39979 -13.2752,20.24199 l 0,0.27729 c 4.9566,0.51991 8.9079,2.63423 11.8194,6.27363 2.9462,3.70872 4.4366,8.52659 4.4713,14.45361 0.035,7.9027 -1.9064,14.14167 -5.8231,18.75157 -4.6445,5.47643 -11.8193,8.35329 -21.4897,8.76922 -9.9824,0.45059 -19.9647,1.03983 -29.9124,1.76771 -0.4853,-30.32833 -1.0052,-60.65666 -1.4905,-91.01964 10.0517,-0.72788 20.0687,-1.31712 30.1204,-1.76771 l 0.1733,0" style="fill:#231f20;fill-opacity:1;fill-rule:nonzero;stroke:none" id="path15372"/><path inkscape:connector-curvature="0" d="m 1566.3011,-243.74213 c 4.3673,0.0347 8.7692,0.10398 13.1365,0.20797 -2.1837,-10.50227 -4.3673,-21.0392 -6.5509,-31.57612 -2.2183,10.4676 -4.402,20.90055 -6.5856,31.36815 m -5.9617,-56.80929 c 8.3533,0.0693 16.7066,0.17331 25.0599,0.41593 8.1106,31.64545 16.048,63.39487 23.8814,95.21362 -7.3482,-0.34661 -14.6963,-0.65856 -22.0791,-0.86652 -1.3171,-6.4816 -2.6689,-12.92854 -4.0206,-19.37547 -6.8629,-0.20797 -13.7258,-0.31195 -20.6233,-0.34661 -1.3518,6.41227 -2.7036,12.78989 -4.0207,19.23682 -7.3828,-0.0347 -14.7309,0 -22.1137,0.13865 7.8681,-31.54146 15.8401,-63.0136 23.9161,-94.41642" style="fill:#ffffff;fill-opacity:1;fill-rule:nonzero;stroke:none" id="path15374"/><path inkscape:connector-curvature="0" d="m 1568.4085,-245.31227 c 1.4904,-7.10549 2.9808,-14.21099 4.4712,-21.31648 1.4904,7.14015 2.9809,14.31497 4.4713,21.45512 -2.9809,-0.0347 -5.9617,-0.10398 -8.9425,-0.13864 m 18.4049,-56.3587 c -0.9358,-0.0347 -1.8717,-0.0693 -2.7728,-0.10398 -7.4521,-0.17331 -14.8696,-0.31195 -22.3217,-0.34661 -0.9012,-0.0347 -1.837,-0.0347 -2.7729,-0.0347 -0.2079,0.83186 -0.4159,1.62906 -0.6239,2.46093 -7.8333,30.32832 -15.4934,60.76063 -23.0842,91.26227 -0.3119,1.31711 -0.6585,2.59957 -0.9705,3.95134 1.4558,-0.0347 2.9116,-0.0693 4.3673,-0.10398 6.1697,-0.0693 12.3047,-0.10398 18.4743,-0.10398 0.9358,0 1.9064,0 2.8422,0 0.1733,-0.86652 0.3466,-1.73305 0.5546,-2.56491 1.1438,-5.54575 2.3223,-11.12616 3.5007,-16.67192 5.927,0.0693 11.8194,0.17331 17.7464,0.31195 1.1785,5.58041 2.3223,11.16083 3.5008,16.7759 0.1733,0.86652 0.3466,1.73305 0.5546,2.59957 0.9358,0.0347 1.8717,0.0347 2.8422,0.0693 6.1349,0.20797 12.3046,0.4506 18.4396,0.76254 1.4557,0.0693 2.9115,0.13865 4.3673,0.20797 -0.312,-1.31712 -0.6586,-2.66889 -0.9705,-3.98601 -7.5561,-30.74426 -15.2509,-61.4192 -23.0496,-92.02481 -0.2079,-0.83186 -0.4159,-1.66373 -0.6239,-2.46093 m -22.5989,59.51285 c 5.7537,0.0347 11.5421,0.13864 17.3305,0.27728 -2.8422,-13.69107 -5.6844,-27.4168 -8.5613,-41.10788 l -0.2426,0 c -2.8769,13.58709 -5.7191,27.20884 -8.5266,40.8306 m 19.7914,-56.42802 c 7.8334,30.57095 15.5281,61.24589 23.1188,91.95549 -6.1696,-0.27729 -12.3393,-0.51992 -18.4742,-0.72788 -1.3518,-6.44694 -2.7036,-12.92854 -4.0207,-19.37547 -7.8334,-0.20797 -15.6668,-0.34661 -23.5001,-0.41593 -1.3518,6.41227 -2.7036,12.85921 -4.0207,19.27148 -6.1696,-0.0347 -12.3393,0 -18.5089,0.10398 7.5907,-30.46697 15.3201,-60.86462 23.1188,-91.15828 7.4521,0.0347 14.8696,0.1733 22.287,0.34661" style="fill:#231f20;fill-opacity:1;fill-rule:nonzero;stroke:none" id="path15376"/><path inkscape:connector-curvature="0" d="m 1637.8725,-201.279 c -19.5141,-1.55975 -29.3925,-11.36879 -29.2885,-30.01638 l 0.035,-5.30313 c 7.1055,0.34661 14.211,0.7972 21.2819,1.28246 0,1.4211 -0.035,2.84219 -0.035,4.26329 -0.035,4.33262 0.6239,7.52143 1.941,9.46244 1.4904,2.2183 4.0553,3.39677 7.868,3.70872 2.5303,0.20797 4.6099,-0.41593 6.343,-1.90635 1.7677,-1.52508 2.6689,-3.77804 2.7035,-6.96685 0.035,-3.53542 -0.9011,-6.34295 -2.7382,-8.31863 -2.0103,-2.11431 -5.9963,-4.4366 -11.7847,-6.93219 -8.4919,-3.60473 -14.5922,-7.55608 -18.1277,-11.8887 -4.0206,-4.71389 -6.031,-10.98752 -5.9616,-18.64759 0.035,-9.08117 2.7728,-16.04802 8.1106,-20.69258 5.0952,-4.50593 12.3046,-6.51626 21.4205,-5.78838 l 0.2079,0 c 8.8039,0.72788 15.7708,3.43143 20.7273,7.97202 5.4418,5.02583 8.1453,12.02734 8.0067,20.79656 -0.035,1.38644 -0.069,2.73822 -0.069,4.12466 -6.8975,-0.72788 -13.7604,-1.38644 -20.6232,-1.97568 0,-0.51991 0,-1.07449 0.035,-1.5944 0.104,-10.67557 -4.4019,-12.30464 -7.7987,-12.58192 -2.9462,-0.20797 -5.0258,0.31194 -6.4122,1.62906 -1.4211,1.35178 -2.149,3.60474 -2.1837,6.72422 -0.035,2.6689 0.4506,4.78321 1.4211,6.27363 1.1092,1.76771 3.3621,3.53542 6.6896,5.26847 4.5752,2.42626 9.1158,4.85253 13.6911,7.31346 6.6549,3.6394 11.4034,7.69473 14.0376,12.06201 2.3223,3.98601 3.4315,9.11583 3.3621,15.25081 -0.1733,9.70507 -3.0501,16.81056 -8.4919,21.2125 -5.4764,4.36728 -13.6217,6.10033 -24.1933,5.26847 l -0.1733,0 z" style="fill:#ffffff;fill-opacity:1;fill-rule:nonzero;stroke:none" id="path15378"/><path inkscape:connector-curvature="0" d="m 1639.8585,-300.61034 -0.1733,0 c -9.6357,-0.76254 -17.2611,1.35177 -22.7375,6.16965 -5.6498,4.95651 -8.5613,12.30463 -8.596,21.80173 -0.069,8.04134 2.1144,14.66158 6.3777,19.72208 3.7433,4.57524 9.913,8.59591 18.8208,12.37396 6.9322,2.94618 9.9131,5.16448 11.1609,6.48159 1.5597,1.62907 2.3223,4.05533 2.2876,7.17482 -0.069,2.73821 -0.7625,4.64457 -2.1836,5.89236 -1.4211,1.21313 -3.0502,1.69839 -5.0952,1.52508 -4.7832,-0.38127 -6.031,-2.25296 -6.4469,-2.87686 -0.7972,-1.17847 -1.7331,-3.57007 -1.6638,-8.56125 0,-0.90119 0,-1.80237 0.035,-2.66889 0,-1.07449 0,-2.14898 0,-3.22347 -1.1438,-0.0693 -2.2876,-0.13865 -3.4661,-0.24263 -5.927,-0.38127 -11.854,-0.76254 -17.8157,-1.07449 -1.1438,-0.0347 -2.2876,-0.10398 -3.4661,-0.13864 0,1.03983 0,2.11432 0,3.18881 -0.035,1.21313 -0.035,2.46092 -0.035,3.67406 -0.104,19.44479 10.6063,30.0857 30.9869,31.71476 l 0.208,0 c 11.0222,0.86653 19.5487,-0.9705 25.3718,-5.61507 5.7884,-4.67923 8.8385,-12.13133 9.0118,-22.28699 0.104,-6.41227 -1.0745,-11.81938 -3.5354,-16.04802 -2.8768,-4.71389 -7.8334,-9.01184 -14.8002,-12.82455 -4.5406,-2.46092 -9.1158,-4.88719 -13.6911,-7.31346 -2.9808,-1.55974 -5.0258,-3.15414 -5.9617,-4.6099 -0.7972,-1.2478 -1.1784,-3.05017 -1.1784,-5.40711 0.035,-2.73822 0.6239,-4.64457 1.733,-5.71906 1.0398,-0.9705 2.7036,-1.35177 5.0605,-1.17847 1.9064,0.17331 6.239,0.51992 6.1003,10.84888 0,1.03983 -0.035,2.11431 -0.035,3.1888 1.1438,0.10399 2.3223,0.17331 3.4661,0.27729 5.719,0.51992 11.4381,1.07449 17.1225,1.66373 1.1784,0.10398 2.3223,0.24262 3.5007,0.34661 0,-1.03983 0.035,-2.11432 0.035,-3.18881 0.035,-0.83186 0.035,-1.69839 0.069,-2.53025 0.1387,-9.25447 -2.7382,-16.67191 -8.5612,-22.04436 -5.2685,-4.85253 -12.6513,-7.72939 -21.9058,-8.49193 m -0.035,3.1888 c 8.3879,0.69322 14.9388,3.22347 19.5834,7.45211 5.0952,4.67923 7.5561,11.19548 7.4175,19.51411 0,0.86652 -0.035,1.69839 -0.035,2.56491 -5.7191,-0.58924 -11.4035,-1.14381 -17.1572,-1.66373 0.1387,-8.97718 -3.0155,-13.79505 -9.4971,-14.31497 l -0.035,0 c -6.7936,-0.51991 -10.2597,2.77288 -10.329,9.84371 0,2.94618 0.5546,5.33779 1.6984,7.1055 1.2824,2.04499 3.778,4.02067 7.3828,5.92702 4.5752,2.3916 9.1505,4.81787 13.691,7.2788 6.4123,3.46609 10.8489,7.2788 13.3445,11.36879 2.1837,3.74338 3.1888,8.52659 3.1195,14.38429 -0.3466,18.64759 -10.6409,26.72359 -30.9176,25.09452 l -0.2079,0 c -18.4743,-1.49042 -27.6595,-10.67557 -27.5555,-28.35265 0,-1.21313 0,-2.46093 0.035,-3.67406 5.927,0.27729 11.854,0.65856 17.781,1.07449 0,0.86652 0,1.76771 0,2.66889 -0.069,4.67923 0.6933,8.11066 2.2183,10.36363 1.8024,2.66889 4.8872,4.15931 9.2892,4.50592 l 0.069,0 c 2.9462,0.24263 5.4418,-0.51992 7.5214,-2.28762 2.0797,-1.76771 3.1542,-4.4366 3.1888,-8.00668 0.069,-4.02067 -1.0051,-7.17482 -3.1888,-9.4971 -2.2183,-2.28762 -6.3429,-4.78321 -12.4086,-7.38278 -8.2493,-3.50076 -14.0377,-7.24414 -17.3998,-11.33413 -3.778,-4.47126 -5.6497,-10.36363 -5.5804,-17.67708 0.035,-8.66524 2.5649,-15.21616 7.6254,-19.58344 4.7486,-4.22863 11.5074,-6.06566 20.1727,-5.37245 l 0.1733,0" style="fill:#231f20;fill-opacity:1;fill-rule:nonzero;stroke:none" id="path15380"/><path inkscape:connector-curvature="0" d="m 1691.9747,-273.5956 c -6.4469,-0.83186 -12.8938,-1.59441 -19.3754,-2.28762 0.104,-6.10033 0.2079,-12.166 0.3119,-18.23166 20.1034,2.18364 40.1721,4.95651 60.1714,8.28396 -0.1733,6.06567 -0.3466,12.13134 -0.4852,18.197 -6.447,-1.07449 -12.8592,-2.07966 -19.3062,-3.0155 -0.5892,25.30249 -1.2131,50.60498 -1.8023,75.90747 -7.0016,-1.03983 -14.0377,-2.01033 -21.0392,-2.91152 0.4852,-25.33715 1.0051,-50.63964 1.525,-75.94213" style="fill:#ffffff;fill-opacity:1;fill-rule:nonzero;stroke:none" id="path15382"/><path inkscape:connector-curvature="0" d="m 1734.8607,-287.14457 c -1.1784,-0.20796 -2.3223,-0.38127 -3.4661,-0.58923 -18.8555,-3.08483 -37.7457,-5.6844 -56.7053,-7.79871 -1.1784,-0.13865 -2.3223,-0.24263 -3.5007,-0.38127 0,1.07448 -0.035,2.11431 -0.069,3.1888 -0.069,5.02584 -0.1386,10.01702 -0.2426,15.04285 0,1.07449 -0.035,2.14898 -0.035,3.18881 1.1438,0.13864 2.3222,0.24263 3.4661,0.38127 5.3031,0.58924 10.6062,1.21313 15.8747,1.87169 -0.4853,24.26266 -0.9359,48.52533 -1.4558,72.75333 0,1.07449 -0.035,2.14898 -0.035,3.1888 1.1439,0.17331 2.2877,0.31195 3.4315,0.4506 5.8577,0.76254 11.75,1.55974 17.6077,2.42626 1.1439,0.17331 2.2877,0.34661 3.4315,0.51992 0,-1.07449 0.035,-2.14898 0.069,-3.18881 0.5892,-24.228 1.1785,-48.49066 1.7677,-72.71866 5.2685,0.7972 10.5369,1.62906 15.8054,2.49558 1.1438,0.17331 2.3223,0.38127 3.4661,0.55458 0.035,-1.03983 0.069,-2.11432 0.104,-3.18881 0.1386,-4.99118 0.2426,-9.98235 0.3812,-15.00819 0.035,-1.07449 0.069,-2.11432 0.104,-3.18881 m -3.57,2.59958 c -0.1387,5.02583 -0.2773,10.01701 -0.416,15.04285 -6.4123,-1.07449 -12.8245,-2.07966 -19.2715,-3.01551 -0.5892,25.30249 -1.2131,50.60498 -1.8023,75.90748 -5.8577,-0.86653 -11.7501,-1.66373 -17.6078,-2.42627 0.5199,-25.30249 1.0398,-50.63964 1.5597,-75.94213 -6.4469,-0.83187 -12.9285,-1.59441 -19.3754,-2.32229 0.104,-4.99117 0.1733,-10.01701 0.2426,-15.04285 18.9595,2.11432 37.8498,4.71389 56.6707,7.79872" style="fill:#231f20;fill-opacity:1;fill-rule:nonzero;stroke:none" id="path15384"/><path inkscape:connector-curvature="0" d="m 1738.4932,-284.92626 c 7.1055,1.21313 14.1763,2.49558 21.2818,3.88202 -1.0052,31.3335 -2.0103,62.66699 -3.0155,94.00049 -6.9668,-1.35178 -13.9337,-2.59957 -20.9352,-3.81271 0.9012,-31.36815 1.7677,-62.70165 2.6689,-94.0698" style="fill:#ffffff;fill-opacity:1;fill-rule:nonzero;stroke:none" id="path15386"/><path inkscape:connector-curvature="0" d="m 1761.5462,-282.3163 c -1.1438,-0.20796 -2.3223,-0.45059 -3.4661,-0.65855 -5.927,-1.14381 -11.854,-2.2183 -17.8157,-3.25813 -1.1438,-0.17331 -2.3223,-0.38127 -3.4661,-0.58924 -0.035,1.07449 -0.069,2.14898 -0.104,3.18881 -0.8319,30.29367 -1.6637,60.58733 -2.5303,90.881 -0.035,1.07449 -0.035,2.11432 -0.069,3.18881 1.1438,0.20796 2.253,0.38127 3.3968,0.58923 5.8577,1.00517 11.6807,2.07966 17.5384,3.18881 1.1092,0.20796 2.253,0.45059 3.3968,0.65856 0.035,-1.07449 0.069,-2.11432 0.104,-3.18881 0.9705,-30.25901 1.941,-60.55267 2.9115,-90.81168 0.035,-1.07449 0.069,-2.11432 0.104,-3.18881 m -3.5701,2.53025 c -0.9358,30.25901 -1.9063,60.55268 -2.8768,90.81168 -5.8231,-1.10915 -11.6461,-2.18364 -17.5038,-3.18881 0.8665,-30.29366 1.733,-60.58733 2.5995,-90.881 5.9271,1.03983 11.8541,2.11432 17.7811,3.25813" style="fill:#231f20;fill-opacity:1;fill-rule:nonzero;stroke:none" id="path15388"/><path inkscape:connector-curvature="0" d="m 1790.9803,-217.56272 c 4.2979,0.97051 8.5959,1.97568 12.8938,2.98085 -1.733,-10.95286 -3.4661,-21.90572 -5.2338,-32.82392 -2.5649,9.91303 -5.0951,19.89538 -7.66,29.84307 m -3.6741,-57.81445 c 8.2146,1.80236 16.3946,3.67406 24.5746,5.68439 6.7242,33.20519 13.2752,66.51436 19.7221,99.85819 -7.1748,-1.94102 -14.3496,-3.77805 -21.5591,-5.54576 -1.0745,-6.72422 -2.149,-13.44844 -3.2235,-20.138 -6.7242,-1.62907 -13.4484,-3.18881 -20.2073,-4.67923 -1.5598,6.10032 -3.1195,12.20065 -4.6792,18.30098 -7.2442,-1.55975 -14.523,-3.08483 -21.7671,-4.50593 8.9425,-29.77375 17.989,-59.44352 27.1395,-88.97464" style="fill:#ffffff;fill-opacity:1;fill-rule:nonzero;stroke:none" id="path15390"/><path inkscape:connector-curvature="0" d="m 1793.1188,-218.69266 c 1.7331,-6.75889 3.4661,-13.51777 5.1992,-20.27666 1.1785,7.41745 2.3916,14.86955 3.5701,22.32165 -2.9116,-0.69322 -5.8577,-1.38644 -8.7693,-2.04499 m 20.2074,-52.26871 c -0.9012,-0.20797 -1.8024,-0.45059 -2.7382,-0.65856 -7.2442,-1.76771 -14.5576,-3.46609 -21.8364,-5.0605 -0.9012,-0.20796 -1.8371,-0.41593 -2.7382,-0.58923 -0.2427,0.76254 -0.4853,1.52508 -0.7279,2.28762 -8.8386,28.59528 -17.5731,57.25988 -26.2037,86.02847 -0.3813,1.24779 -0.7279,2.49559 -1.1092,3.74338 1.4558,0.27729 2.8769,0.55458 4.298,0.83186 6.0657,1.21314 12.1313,2.46093 18.197,3.77805 0.9358,0.20796 1.8717,0.38127 2.7729,0.58923 0.2426,-0.7972 0.4506,-1.62906 0.6585,-2.46092 1.3518,-5.26847 2.7036,-10.57159 4.0554,-15.84006 5.823,1.28246 11.6114,2.63423 17.4344,4.05533 0.9012,5.78838 1.8371,11.61142 2.7729,17.43446 0.1386,0.86652 0.2773,1.80237 0.4159,2.70355 0.9359,0.20797 1.8717,0.4506 2.7729,0.65856 6.031,1.49042 12.0274,3.05016 18.0584,4.64457 1.4211,0.38127 2.8422,0.76254 4.2286,1.14381 -0.2426,-1.38644 -0.5199,-2.80754 -0.7972,-4.19398 -6.2043,-32.20001 -12.5126,-64.36537 -18.9942,-96.49607 -0.1733,-0.86652 -0.3466,-1.73305 -0.5199,-2.59957 m -24.4707,54.52167 c 5.6844,1.28245 11.3688,2.59957 17.0186,3.95135 -2.253,-14.28031 -4.5059,-28.52596 -6.7936,-42.77161 l -0.2426,-0.0347 c -3.3621,12.92853 -6.6549,25.89172 -9.9824,38.85492 m 21.6285,-51.99142 c 6.4816,32.06137 12.8245,64.22673 19.0635,96.42675 -5.9963,-1.5944 -12.0273,-3.11948 -18.0584,-4.64457 -1.0398,-6.68956 -2.1143,-13.41378 -3.1888,-20.13801 -7.66,-1.87169 -15.3548,-3.63939 -23.0495,-5.33778 -1.5597,6.10033 -3.1195,12.23531 -4.6792,18.33564 -6.0657,-1.31712 -12.1313,-2.56491 -18.197,-3.77804 8.6306,-28.73393 17.3998,-57.39853 26.2383,-85.92449 7.3135,1.5944 14.5923,3.29279 21.8711,5.0605" style="fill:#231f20;fill-opacity:1;fill-rule:nonzero;stroke:none" id="path15392"/></g><g id="g14167"><path inkscape:connector-curvature="0" d="m 1493.7488,330.17382 0,-35.31951 -9.9477,0 0,-8.8732 2.0103,0 c 6.3083,0 9.8091,-2.35695 10.6409,-7.14016 l 0.1733,-0.93584 9.5318,0 0,52.26871 -12.4086,0 z" style="fill:#ffffff;fill-opacity:1;fill-rule:nonzero;stroke:none" id="path15394"/><path inkscape:connector-curvature="0" d="m 1507.2874,276.79596 -2.253,0 -7.4868,0 -1.8717,0 -0.3466,1.83703 c -0.4506,2.66889 -1.941,6.20431 -9.4971,6.20431 l -0.9358,0 -2.2183,0 0,2.25296 0,6.6549 0,2.2183 2.2183,0 7.7294,0 0,33.1012 0,2.21831 2.2529,0 10.1557,0 2.253,0 0,-2.21831 0,-50.01574 0,-2.25296 z m -2.253,2.25296 0,50.01574 -10.1557,0 0,-35.3195 -9.9823,0 0,-6.6549 0.9358,0 c 6.8629,0 10.7796,-2.66889 11.7154,-8.04134 l 7.4868,0" style="fill:#231f20;fill-opacity:1;fill-rule:nonzero;stroke:none" id="path15396"/><path inkscape:connector-curvature="0" d="m 1529.5951,286.80604 c -1.8023,0 -2.9461,0.69322 -3.57,2.14898 -0.5546,1.24779 -0.8319,3.46609 -0.8319,6.62024 0,3.15414 0.3813,5.44177 1.1438,6.68956 0.6239,1.14381 1.6637,1.66373 3.2581,1.66373 1.6291,0 2.7036,-0.51992 3.3275,-1.66373 0.7625,-1.24779 1.1438,-3.53542 1.1438,-6.68956 0,-2.77288 -0.2426,-4.78321 -0.7279,-6.03101 -0.6239,-1.87169 -1.837,-2.73821 -3.7434,-2.73821 m -0.5545,44.36601 c -9.7051,0 -14.9042,-4.74855 -15.0429,-13.7604 l -0.035,-1.14381 12.0273,0 0,1.14381 c 0,4.29796 1.837,4.8872 3.4661,4.8872 2.045,0 3.3274,-0.93585 4.1246,-2.91152 0.6239,-1.66373 0.9359,-4.50592 0.9706,-8.35329 -2.0797,1.73305 -4.8872,2.59957 -8.4227,2.59957 -8.8385,0 -13.3444,-5.61507 -13.3444,-16.70657 0,-12.61659 5.823,-18.9942 17.2958,-18.9942 6.7935,0 11.5421,2.59957 14.1417,7.72939 1.837,3.6394 2.7382,9.11583 2.7382,16.7759 0,9.42777 -0.7279,15.84005 -2.253,19.54877 -2.5649,6.10033 -7.8334,9.18515 -15.6667,9.18515" style="fill:#ffffff;fill-opacity:1;fill-rule:nonzero;stroke:none" id="path15398"/><path inkscape:connector-curvature="0" d="m 1529.5951,302.79513 c -1.4904,0 -1.9756,-0.55457 -2.2876,-1.07449 -0.4506,-0.76254 -0.9705,-2.46092 -0.9705,-6.16964 0,-3.67406 0.3813,-5.37245 0.7279,-6.13499 0.3119,-0.7972 0.8665,-1.49042 2.5302,-1.49042 1.4558,0 2.1837,0.55457 2.6689,1.94101 0.312,0.83186 0.6586,2.42627 0.6586,5.6844 0,3.70872 -0.5199,5.4071 -0.9705,6.16964 -0.312,0.51992 -0.8319,1.07449 -2.357,1.07449 m 0.4853,-25.99571 c -8.388,0 -18.405,3.50076 -18.405,20.10335 0,14.76557 7.8681,17.85039 14.4536,17.85039 2.8422,0 5.2685,-0.51991 7.2442,-1.55974 -0.1387,3.1888 -0.5199,4.92185 -0.8665,5.82304 -0.5893,1.52508 -1.4905,2.14898 -3.0502,2.14898 -0.9358,0 -2.3569,0 -2.3569,-3.77805 l 0,-2.25296 -2.253,0 -9.7397,0 -2.2877,0 0.035,2.28762 c 0.1386,6.79355 3.0155,14.86955 16.1867,14.86955 8.3533,0 13.9683,-3.32745 16.6719,-9.84371 1.5944,-3.88203 2.3916,-10.39828 2.3916,-20.03403 0,-7.79871 -0.9705,-13.4831 -2.8769,-17.26115 -2.8075,-5.54575 -7.9027,-8.35329 -15.1468,-8.35329 m -0.4853,28.24868 c 2.0104,0 3.4661,-0.72788 4.298,-2.18364 0.8665,-1.49043 1.2825,-3.91669 1.2825,-7.31346 0,-2.91152 -0.2773,-5.0605 -0.7972,-6.41228 -0.7973,-2.28762 -2.3917,-3.46609 -4.7833,-3.46609 -2.2529,0 -3.778,0.9705 -4.6099,2.84219 -0.5892,1.4211 -0.9012,3.77805 -0.9012,7.03618 0,3.39677 0.416,5.82303 1.2825,7.31346 0.8319,1.45576 2.253,2.18364 4.2286,2.18364 m 0.4853,-25.99571 c 6.3776,0 10.7449,2.35694 13.1365,7.14015 1.733,3.43143 2.6342,8.83854 2.6342,16.22132 0,9.25448 -0.7279,15.63209 -2.1836,19.13285 -2.357,5.64973 -7.2442,8.49193 -14.6269,8.49193 -9.1505,0 -13.7951,-4.19398 -13.9337,-12.65125 l 9.7397,0 c 0,4.02067 1.5597,6.03101 4.6099,6.03101 2.4956,0 4.194,-1.21314 5.1645,-3.60474 0.6932,-1.90635 1.0398,-4.92186 1.0398,-9.11583 l 0,-2.42627 -0.1386,0 c -1.8717,2.8422 -5.0259,4.2633 -9.3932,4.2633 -8.1453,0 -12.2353,-5.19914 -12.2353,-15.63209 0,-11.8887 5.4071,-17.85038 16.1867,-17.85038" style="fill:#231f20;fill-opacity:1;fill-rule:nonzero;stroke:none" id="path15400"/><path inkscape:connector-curvature="0" d="m 1568.204,286.80604 c -1.7331,0 -2.7729,0.83186 -3.3275,2.70355 -0.6932,2.18364 -1.0745,6.58558 -1.0745,12.99786 l 0,5.40711 c 0,6.13498 0.3466,10.19031 1.0399,12.062 0.5892,1.59441 1.5944,2.32229 3.3621,2.32229 1.733,0 2.7728,-0.86653 3.3621,-2.8422 0.6932,-2.11432 1.0398,-6.44694 1.0398,-12.85921 l 0,-5.44177 c 0,-6.10033 -0.3466,-10.15566 -1.0398,-12.06201 -0.5893,-1.5944 -1.6291,-2.28762 -3.3621,-2.28762 m 0,44.36601 c -6.3083,0 -10.8142,-2.045 -13.3098,-6.031 -2.357,-3.74339 -3.5008,-10.08634 -3.5008,-19.41013 0,-8.97719 0.7625,-15.21616 2.357,-18.9942 2.4262,-5.8577 7.3134,-8.80388 14.4536,-8.80388 6.3083,0 10.7795,1.97567 13.2404,5.92702 2.3917,3.8127 3.5701,10.19032 3.5701,19.47945 0,8.97719 -0.7625,15.21616 -2.3569,19.02886 -2.4263,5.82304 -7.2788,8.80388 -14.4536,8.80388" style="fill:#ffffff;fill-opacity:1;fill-rule:nonzero;stroke:none" id="path15402"/><path inkscape:connector-curvature="0" d="m 1568.204,321.15157 c -1.2825,0 -1.9064,-0.41593 -2.2877,-1.55974 -0.4505,-1.21313 -0.9705,-4.22864 -0.9705,-11.64608 l 0,-5.44177 c 0,-7.86803 0.52,-11.23014 0.9705,-12.65124 0.52,-1.59441 1.2478,-1.94102 2.2877,-1.94102 1.2824,0 1.9063,0.4506 2.2876,1.55975 0.4506,1.21313 0.9705,4.22863 0.9705,11.68073 l 0,5.44177 c 0,7.83338 -0.5199,11.12617 -0.9705,12.54727 -0.5546,1.87169 -1.4904,2.01033 -2.2876,2.01033 m 0,-44.36601 c -7.5215,0 -12.8939,3.29279 -15.4935,9.4971 -1.629,3.95135 -2.4262,10.2943 -2.4262,19.44479 0,9.53176 1.1784,16.04802 3.674,19.99937 2.7036,4.33261 7.5214,6.55091 14.2457,6.55091 7.5561,0 12.8938,-3.29279 15.4934,-9.49709 1.6291,-3.95135 2.4263,-10.29431 2.4263,-19.4448 0,-9.49709 -1.2132,-16.08267 -3.7434,-20.10334 -2.6689,-4.2633 -7.4521,-6.44694 -14.1763,-6.44694 m 0,46.61897 c 2.2183,0 3.7087,-1.21313 4.4712,-3.60474 0.6932,-2.25296 1.0399,-6.6549 1.0399,-13.20582 l 0,-5.44177 c 0,-6.27363 -0.3813,-10.39828 -1.0745,-12.44327 -0.7279,-2.01034 -2.2183,-3.05017 -4.4366,-3.05017 -2.2183,0 -3.6741,1.17847 -4.402,3.50076 -0.7279,2.35694 -1.1091,6.79354 -1.1091,13.34446 l 0,5.44177 c 0,6.23897 0.3812,10.39828 1.1091,12.40862 0.7279,2.04499 2.1837,3.05016 4.402,3.05016 m 0,-44.36601 c 5.927,0 10.0516,1.80237 12.3046,5.40711 2.253,3.60474 3.3968,9.91303 3.3968,18.89021 0,8.76922 -0.7626,14.93887 -2.2876,18.57827 -2.253,5.40711 -6.7243,8.11066 -13.4138,8.11066 -5.9271,0 -10.0517,-1.83703 -12.3393,-5.51109 -2.253,-3.50075 -3.3275,-9.77438 -3.3275,-18.78623 0,-8.73456 0.7279,-14.93887 2.253,-18.57827 2.2529,-5.4071 6.7242,-8.11066 13.4138,-8.11066" style="fill:#231f20;fill-opacity:1;fill-rule:nonzero;stroke:none" id="path15404"/><path inkscape:connector-curvature="0" d="m 1604.2756,331.16165 c -10.3983,0 -15.8747,-5.19914 -15.8747,-15.04285 l 0,-2.46093 11.9927,0 0,1.10915 c 0,7.1055 2.8768,7.1055 3.8127,7.1055 1.1785,0 4.8179,0 4.8179,-8.63058 0,-4.92185 -0.5893,-7.00151 -1.0745,-7.86803 -0.5893,-1.10915 -1.8024,-1.62907 -3.6741,-1.62907 -2.2529,0 -3.3621,1.10915 -3.674,3.6394 l -0.1387,0.97051 -11.2995,0 1.9757,-29.4618 28.2487,0 0,10.15565 -18.5436,0 -0.6932,7.48677 c 2.0103,-1.38644 4.6445,-2.07966 7.9373,-2.07966 8.8386,0 13.3445,5.75372 13.3445,17.08785 0,6.30829 -1.1092,10.91819 -3.3968,14.00302 -2.7382,3.74338 -7.3828,5.61507 -13.7604,5.61507" style="fill:#ffffff;fill-opacity:1;fill-rule:nonzero;stroke:none" id="path15406"/><path inkscape:connector-curvature="0" d="m 1620.5039,277.77686 -2.253,0 -26.065,0 -2.0797,0 -0.1386,2.11432 -1.8371,27.17418 -0.1733,2.39161 2.3916,0 9.1159,0 1.9756,0 0.2427,-1.97568 c 0.2773,-2.18364 1.1784,-2.59957 2.5995,-2.59957 2.1144,0 2.565,0.76254 2.7036,1.00517 0.3466,0.65856 0.9012,2.42627 0.9012,7.34812 0,7.48677 -2.6689,7.48677 -3.6741,7.48677 -0.7279,0 -2.7035,0 -2.7035,-5.92703 l 0,-2.25296 -2.253,0 -9.7397,0 -2.253,0 0,2.25296 0,1.31712 c 0,10.57159 5.8924,16.152 17.0185,16.152 6.7589,0 11.6808,-2.01033 14.6616,-6.031 2.4263,-3.32746 3.6048,-8.11067 3.6048,-14.69625 0,-15.04285 -7.8681,-18.23165 -14.4536,-18.23165 -2.565,0 -4.7833,0.41593 -6.6203,1.24779 l 0.3813,-4.36728 16.3946,0 2.253,0 0,-2.25296 0,-7.9027 0,-2.25296 z m -2.253,2.25296 0,7.9027 -18.4396,0 -1.0398,11.36879 0.1386,0 c 1.837,-2.49559 4.8872,-3.74338 9.1852,-3.74338 8.1453,0 12.2353,5.33778 12.2353,15.97869 0,6.03101 -1.0745,10.46761 -3.1888,13.34447 -2.565,3.43143 -6.8282,5.16448 -12.8593,5.16448 -9.8437,0 -14.7655,-4.64457 -14.7655,-13.9337 l 0,-1.31712 9.7397,0 c 0,5.44177 1.6637,8.17999 4.9565,8.17999 3.9514,0 5.927,-3.25813 5.927,-9.73973 0,-4.15931 -0.4159,-6.93219 -1.2131,-8.42261 -0.7972,-1.45576 -2.3569,-2.18364 -4.6446,-2.18364 -2.8422,0 -4.4366,1.52508 -4.8178,4.60991 l -9.1159,0 1.8371,-27.20885 26.065,0" style="fill:#231f20;fill-opacity:1;fill-rule:nonzero;stroke:none" id="path15408"/></g></g><g id="g14122" transform="matrix(0.98474033,0,0,0.98474033,-1176.6889,423.30722)"><g id="g14115"><path inkscape:connector-curvature="0" d="M 1550.461,250.82451 C 1447.518,192.14353 1394.7294,78.420966 1395.3533,-33.707194 c 65.1626,-35.804758 133.5486,-37.815092 155.1077,-37.815092 l 0.035,0 0.035,0 c 21.7324,0 90.569,2.010334 156.1475,37.815092 0.6239,112.12816 -52.5113,225.850724 -156.1475,284.531704 l -0.069,0 z" style="fill:#ffffff;fill-opacity:1;fill-rule:nonzero;stroke:none" id="path15410"/><g id="g14026"><path id="path15412" style="fill:#231f20;fill-opacity:1;fill-rule:nonzero;stroke:none" d="m 1550.461,250.82451 1.8717,-3.25813 c -50.501,-28.76858 -88.8013,-70.95095 -114.4851,-119.78823 -25.6837,-48.83727 -38.7509,-104.294783 -38.7509,-159.440349 0,-0.658558 0,-1.351776 0,-2.010334 l -3.7434,-0.03466 1.837,3.292789 c 32.0961,-17.677082 65.0933,-27.035537 92.7181,-31.957392 27.6247,-4.921854 49.9117,-5.407107 60.5526,-5.407107 l 0.035,0 0.035,0 c 10.7448,0 33.1358,0.485253 60.9686,5.441768 27.8327,4.887194 61.0379,14.245649 93.3765,31.922731 l 1.8024,-3.292789 -3.778,0.03466 c 0.035,0.658558 0.035,1.351776 0.035,2.044995 0,55.110905 -13.1711,110.568418 -39.0282,159.371028 -25.8571,48.83728 -64.3654,91.05431 -115.213,119.82289 l 1.8371,3.25813 0,-3.74338 -0.069,0 0,3.74338 1.8717,-3.25813 -1.8717,3.25813 0,3.74338 0.069,0 c 0.6585,0 1.2824,-0.1733 1.837,-0.48525 52.1647,-29.53113 91.7128,-72.85731 118.1591,-122.83839 26.481,-49.946426 39.8948,-106.582411 39.8948,-162.871788 0,-0.693219 0,-1.386437 -0.035,-2.079656 0,-1.386438 -0.7278,-2.634232 -1.941,-3.258129 -33.2398,-18.196997 -67.2422,-27.728757 -95.6295,-32.754594 -28.422,-5.025837 -51.2982,-5.545752 -62.2857,-5.545752 l -0.035,0 -0.035,0 c -10.9182,0 -33.6211,0.519915 -61.8698,5.545752 -28.214,5.025837 -62.0084,14.592258 -95.0403,32.754594 -1.1784,0.658558 -1.9063,1.871691 -1.9063,3.258129 -0.035,0.693219 -0.035,1.351777 -0.035,2.044995 0,56.324038 13.3445,112.925363 39.6175,162.906449 26.273,49.98108 65.5438,93.30726 117.3966,122.83839 0.5546,0.31195 1.1785,0.48525 1.837,0.48525 l 0,-3.74338 z" inkscape:connector-curvature="0"/><path id="path15414" style="fill:#ffffff;fill-opacity:1;fill-rule:nonzero;stroke:none" d="m 1550.513,235.06071 c -94.1391,-53.82845 -142.4218,-158.157893 -141.7979,-260.962259 59.5475,-32.858577 122.0758,-34.695607 141.7979,-34.695607 l 0.035,0 0,0 c 19.8954,0 82.8396,1.83703 142.7684,34.695607 0.6239,102.804366 -47.9707,207.133809 -142.7684,260.962259 l -0.035,0 z" inkscape:connector-curvature="0"/><path id="path15416" style="fill:#231f20;fill-opacity:1;fill-rule:nonzero;stroke:none" d="m 1550.513,235.06071 0.7626,-1.28245 c -46.515,-26.61961 -81.7999,-65.61317 -105.4386,-110.70706 -23.6388,-45.059233 -35.6315,-96.25345 -35.6315,-147.101058 0,-0.623897 0,-1.247794 0,-1.871691 l -1.4904,0 0.7279,1.282455 c 59.1662,-32.650611 121.4519,-34.487642 141.07,-34.487642 l 0.035,0 0,0 c 19.7914,0 82.4584,1.837031 142.0752,34.487642 l 0.6932,-1.282455 -1.4904,0 c 0,0.623897 0,1.247794 0,1.871691 0,50.847608 -12.062,102.041825 -35.8741,147.101058 -23.8121,45.09389 -59.3049,84.08745 -106.1318,110.70706 l 0.7279,1.28245 0,-1.49042 -0.035,0 0,1.49042 0.7626,-1.28245 -0.7626,1.28245 0,1.49042 0.035,0 0.4159,0 0.3466,-0.1733 c 47.3815,-26.8969 83.2556,-66.34105 107.3103,-111.88553 24.02,-45.544488 36.2207,-97.189297 36.2207,-148.522158 0,-0.623897 0,-1.282455 0,-1.906352 l 0,-0.866524 -0.7972,-0.415931 c -60.31,-33.066543 -123.497,-34.868912 -143.4963,-34.868912 l 0,0 -0.035,0 c -19.826,0 -82.597,1.802369 -142.5258,34.868912 l -0.7625,0.415931 0,0.866524 c -0.035,0.623897 -0.035,1.282455 -0.035,1.906352 0,51.332861 12.1313,102.97767 36.0127,148.522158 23.8814,45.50982 59.5129,84.98863 106.5824,111.88553 l 0.3467,0.1733 0.3812,0 0,-1.49042 z" inkscape:connector-curvature="0"/></g></g><g id="g13988"><path inkscape:connector-curvature="0" d="m 1597.7663,58.185906 5.823,0.831862 5.7191,-2.079656 3.1888,-4.609906 2.1143,-8.076001 0.8665,-7.521425 -4.0206,-13.517769 -5.3378,-17.261151 3.1888,0.5545752 3.1888,-0.5545752 3.986,-2.2876224 4.5059,-3.98600878 5.2338,-1.55974262 4.8179,1.03982843 2.2876,1.97567387 -1.3171,2.8421976 -3.3968,1.1438112 -5.3378,0.8318627 -3.7433,2.2183006 0,2.4609274 1.0398,1.941013 3.0502,0.72788 4.3672,-1.317116 2.4956,-3.1888074 0.8665,-1.4210988 8.7693,-0.8665236 8.5266,-0.5545752 -13.8991,34.556963 -4.8525,15.978696 -2.6342,4.817872 -5.0259,4.089991 -9.7397,3.500756 -4.7832,0.866524 -7.9374,-3.986009 -2.0103,-7.590747 z" style="fill:#ffffff;fill-opacity:1;fill-rule:nonzero;stroke:none" id="path15418"/><path inkscape:connector-curvature="0" d="m 1593.1044,68.899604 2.8075,6.031005 2.2877,7.521425 2.3916,7.833374 6.1696,6.724223 6.9669,1.663726 6.031,4.297953 2.9115,10.01702 2.0103,0.76254 7.1748,-10.25964 -0.4159,-14.037685 -3.0155,-4.02067 -9.4971,-3.708721 -8.7692,-5.025837 -4.5059,-6.620241 -5.0605,-4.679227 -7.4868,3.500755 z" style="fill:#ffffff;fill-opacity:1;fill-rule:nonzero;stroke:none" id="path15420"/><path inkscape:connector-curvature="0" d="m 1598.2897,54.799531 c 4.0206,1.559743 7.0708,0 5.927,-0.970506 -1.1785,-0.970507 -2.7036,-4.991176 -2.9809,-7.590747 1.8717,-0.138644 6.4123,-1.07449 7.4522,-2.18364 -0.1734,-0.38127 -3.7088,-4.505923 -3.7088,-4.921854 0,-0.415932 2.7382,-1.247794 3.6741,-1.559743 1.0052,-0.311948 1.2824,-1.074489 1.1438,-2.044996 -0.4506,-2.044996 -1.837,-1.871691 -2.9115,-3.154146 -1.0745,-1.317116 -1.2825,-6.377614 -1.3865,-7.486764 l 1.9064,-3.29279 -6.6896,-6.550919 3.1888,-3.570077 c -0.2426,-1.07449 -2.5995,-1.6290647 -4.6099,-2.2529617 -1.9756,-0.6238971 -5.1298,-3.5700775 -6.8975,-7.7987129 -1.733,-4.2286354 -3.5701,-4.505923 -4.5752,-4.8871934 0,0 1.1091,-2.7728757 1.1438,-2.9115194 -2.357,-2.0796568 -6.031,-1.2131332 -8.1453,-2.2529615 -2.4956,-1.282455 -11.2302,-4.5405841 -12.6513,-5.3031251 l -0.5199,-2.842197 c 0,0 -7.2441,0 -8.5613,-0.242627 -3.3621,-0.38127 -5.0951,-3.223468 -6.5509,-3.327451 -1.4211,-0.103983 -1.2131,0.866524 -4.0206,0.207966 -8.4227,-2.807537 -16.0481,-1.871691 -17.8158,-0.831863 0,0 -0.1386,-2.010335 -0.3466,-3.466094 -0.3119,-1.80237 -2.0103,-1.247794 -2.1836,-0.450593 -2.149,5.684396 -11.5421,4.991177 -15.0429,6.758885 l -4.0553,-2.044996 c 0,0 -2.5996,3.743382 -4.0207,4.74855 -1.4211,0.970506 -4.8525,2.322283 -7.6947,3.431433 -2.8769,1.143812 -5.4071,3.396773 -6.1697,4.7485499 l -3.7433,0 c 0,0 0,0.9011846 0,2.4955881 0.035,2.4262662 -1.8024,3.6393993 -3.1195,5.7190561 -1.3518,2.0796568 -1.9757,4.7832106 -2.1143,5.8230389 -0.2773,2.4609272 -2.9116,2.7382148 -4.7486,4.575245 -0.9012,0.762541 -1.4211,3.916687 -1.4211,4.921854 0,0.970507 0.6239,1.317116 0.5892,2.252962 0,0.277287 0.104,1.525081 -0.9011,2.356944 -1.3865,1.247794 -2.3223,2.599571 -2.045,4.956515 0.2079,1.906352 -0.8319,3.674061 -0.9359,4.679228 -0.1386,1.559743 0.4853,3.604738 0.9012,4.263296 0.2426,0.34661 0.7279,1.247794 0.3466,2.252962 -0.4852,1.351777 -2.1143,7.244138 -2.0796,9.393116 0,2.148979 0.8318,4.124653 1.2131,4.852533 0.3466,0.623897 0.3466,1.906352 0.104,2.356944 -0.1733,0.38127 -10.537,19.375469 -11.9581,22.460293 -0.8665,1.594404 -2.0449,4.263296 -1.9063,6.377614 0.208,4.228636 3.1541,4.921854 4.6446,5.025837 0,0 3.674,0.06932 5.6497,0 0,0 0.035,0 -0.069,2.772876 -0.104,2.772876 -4.8179,3.188807 -4.8872,6.897528 0.035,2.807537 2.6342,4.679232 4.0207,5.303122 -0.9359,2.11432 -1.3865,2.6689 -0.9706,5.61508 0.5546,3.6394 5.6844,3.46609 7.6948,3.43143 3.2234,7.83337 -0.6932,9.25447 0,14.5576 1.5597,9.4971 17.0532,11.61141 32.2347,7.72939 4.0899,16.74124 18.8555,8.00668 23.6387,36.80992 27.4862,8.14533 39.8601,-22.77224 53.2739,-35.38882 4.8872,-5.33779 16.2906,-11.02218 16.4986,-11.23015 0.208,-0.20797 0.7625,-0.48525 0.069,-1.21313 -11.1955,-9.42778 -15.5974,-27.416811 -15.944,-30.536296 0,0 4.2979,-0.589236 4.7832,-0.693219 0.4853,-0.06932 1.5944,-0.415931 0.6586,-1.663725 -1.1092,-1.247795 -5.1992,-6.065666 -4.8179,-6.065666 0.3813,0 5.8577,-0.138644 7.2095,-0.519914 -0.1733,-0.970507 -0.7279,-2.946181 -1.6638,-4.609906 -0.9705,-1.663725 -1.1438,-2.426266 -1.0051,-4.332618 0.035,-0.485254 0,-1.663726 0.9012,-3.500756 1.8716,1.975674 6.4122,0.72788 9.0465,-4.02067 2.9115,-6.031004 -1.4558,-8.249305 -2.045,-12.062009" style="fill:#231f20;fill-opacity:1;fill-rule:nonzero;stroke:none" id="path15422"/><path inkscape:connector-curvature="0" d="m 1480.2691,12.769668 c 1.0052,-0.450592 4.6446,-2.287622 5.0605,-4.5405838 0.1734,-1.0051674 0.9706,-0.9011846 1.3865,-0.7278799 2.2529,0.2079657 32.4773,13.1711597 37.9537,17.7810657 5.5111,4.609905 -23.8467,-3.986009 -29.3231,-5.823039 2.5995,2.322283 23.8467,9.739726 33.7944,10.086335 2.7729,0.138644 7.7294,-0.623897 12.5472,1.83703 3.9861,2.079657 9.6011,3.535417 13.3792,3.882026 -1.5598,0.693219 -4.6446,0.72788 -5.4765,0.693219 3.3275,1.663725 7.8334,2.530249 9.9824,3.015502 10.1556,2.530249 17.8504,11.195486 22.079,13.517769 3.2928,2.218301 11.2302,4.471262 11.4381,10.467606 0,1.559742 -1.733,1.871691 -2.2876,1.83703 -4.298,-0.207966 -4.298,-3.466095 -8.0067,-3.362112 -5.6844,0.415932 -10.7102,-2.738214 -14.5229,-1.317116 3.8127,0.173305 5.2338,1.663726 9.1505,2.980842 3.4314,1.525081 6.3083,-0.901185 8.2493,1.975674 -2.1143,1.074489 -7.3135,1.317116 -9.6704,1.143811 -4.6792,-0.207966 -5.5458,-2.252962 -7.0709,-2.946181 -2.0449,-0.901184 -3.7087,-0.415931 -4.2286,0.658558 -0.6932,1.767709 -2.8768,4.505923 -4.8179,5.615074 -1.8023,1.005167 -4.6445,2.56491 -6.0656,5.89236 -1.4211,3.362112 -4.402,10.328962 -9.6358,9.982353 -5.2338,-0.311949 -5.8923,-4.089992 -5.7883,-4.436601 0.6239,0.935845 1.3864,2.495588 5.4417,2.56491 4.09,0.03466 6.7589,-5.927022 8.7346,-11.160825 1.941,-3.500755 4.2286,-3.743382 6.5162,-5.476429 2.3223,-1.733048 4.298,-5.823039 3.6394,-10.467606 -0.4159,-2.911519 -4.8525,-10.363623 -14.2803,-8.249305 -6.031,1.802369 -10.2596,6.724223 -11.0568,7.902696 -5.2338,0.03466 -15.2508,-4.401941 -16.048,-4.817872 5.3031,-0.415931 7.972,-1.767708 7.972,-1.767708 -3.5008,-0.34661 -15.3548,0.138644 -22.6683,-1.906352 -7.3481,-2.044996 -16.1173,-6.516258 -18.4743,-7.382782 -3.8127,-1.559742 -12.1313,-2.391605 -12.0966,-7.798712 0.1386,-2.772876 1.1438,-3.431434 1.1438,-3.431434 l 5.6497,0.485253 c 0,0 -5.1645,-2.56491 -5.5804,-3.535416 -0.6239,-0.866524 0.1386,-3.015503 0.3813,-3.327451 0.1733,-0.311949 0.5199,-1.975674 2.7729,-1.83703 2.2183,0.138643 3.4314,0.589236 3.4314,0.589236 0,0 -4.6099,-3.604739 -4.8179,-4.679228 -0.5199,-0.519914 -0.7625,-3.015502 1.2131,-3.916687" style="fill:#ffffff;fill-opacity:1;fill-rule:nonzero;stroke:none" id="path15424"/><path inkscape:connector-curvature="0" d="m 1479.2536,33.150304 c 5.719,-0.138643 12.2353,-2.010334 22.7376,3.778043 6.8628,4.74855 20.242,3.674061 22.7722,2.980842 -3.3621,2.634232 -17.7464,3.500755 -25.1292,-1.213133 -6.3776,-4.089992 -14.9735,-5.303125 -20.3806,-5.545752" style="fill:#231f20;fill-opacity:1;fill-rule:nonzero;stroke:none" id="path15426"/><path inkscape:connector-curvature="0" d="m 1555.8647,41.864066 c 8.4226,1.143811 15.4241,4.817872 22.6336,10.190318 4.1939,3.188807 10.8835,5.060498 11.75,9.254473 -1.5944,-2.287623 -8.5959,-5.649734 -15.5974,-5.892361 -7.0362,-0.277287 -8.6306,0.138644 -10.2596,-2.079657 -4.7832,-6.446936 -19.9301,-13.101837 -27.0009,-15.632086 10.7102,2.2183 22.1483,7.001511 28.5606,14.349631 0.7279,0.831863 2.5649,1.282455 4.8179,1.282455 2.3916,-0.03466 6.2389,0.450593 7.2788,1.039829 -1.1438,-1.317116 -10.7449,-9.185151 -22.183,-12.512602" style="fill:#231f20;fill-opacity:1;fill-rule:nonzero;stroke:none" id="path15428"/><path inkscape:connector-curvature="0" d="m 1540.0835,59.662462 c 0,3.223468 8.4573,-8.387949 13.5178,-5.164481 3.4314,2.18364 1.6984,7.382782 1.3171,8.734558 -0.2079,1.975674 1.9757,0.554576 2.7036,-1.455759 0.5546,-1.663726 1.7677,-6.58558 -2.7036,-9.323795 -5.0951,-3.119485 -14.3496,3.847365 -14.8349,7.209477" style="fill:#ffffff;fill-opacity:1;fill-rule:nonzero;stroke:none" id="path15430"/><path inkscape:connector-curvature="0" d="m 1548.014,62.251635 c 0,1.213133 2.0103,0.970506 2.0796,2.252961 0.035,1.282455 -2.2183,2.079657 -3.6047,3.362112 -1.3865,1.282455 -0.5199,5.164481 -2.1143,5.199142 -1.5598,0.06932 0.035,-2.044996 -2.0104,-1.83703 -1.525,0.138643 -1.5597,3.535416 1.2478,4.193974 4.0207,0.72788 3.6394,-2.772876 4.5406,-5.580412 0.4853,-1.525082 4.3673,-1.421099 4.3673,-5.268464 0,-4.055331 -4.3673,-3.639399 -4.5059,-2.322283" style="fill:#ffffff;fill-opacity:1;fill-rule:nonzero;stroke:none" id="path15432"/><path inkscape:connector-curvature="0" d="m 1484.0264,51.23292 c 1.7677,2.322283 6.7935,8.249305 16.7066,9.427777 0,4.193975 -9.2198,3.119485 -10.7796,6.828207 -1.629,-1.629065 1.5251,-4.852533 6.5163,-5.233803 -1.8717,-0.311949 -5.3032,-1.941013 -6.3083,-2.772876 0.1386,2.044996 -1.0052,4.817872 -3.5701,4.332618 -2.5649,-0.173304 -2.7035,-6.516258 -1.2478,-7.417442 0,0 -3.3621,-3.119485 -1.3171,-5.164481" style="fill:#ffffff;fill-opacity:1;fill-rule:nonzero;stroke:none" id="path15434"/><path inkscape:connector-curvature="0" d="m 1598.5184,57.243128 c 1.2825,0.450592 7.2442,1.421099 10.8142,-2.044996 3.8474,-3.500755 6.5856,-13.171159 3.7088,-23.08419 -0.9012,-3.015502 -7.2788,-24.990542 -8.388,-26.8275721 -1.1438,-1.1438112 -1.3518,-2.3569443 -1.5251,-3.5700775 -0.1386,-2.04499577 1.5944,-4.2632963 5.7191,-4.8871933 4.1246,-0.658558 7.2095,-1.8023692 7.2095,-1.8023692 l -0.035,-10.7102319 c 2.9462,-0.485254 11.3341,-2.252962 11.6114,4.540583 0,0.277288 0,8.4572713 0,8.4572713 1.4558,-0.034661 6.3776,0.4505923 6.4816,4.6099058 0.1733,3.5354165 -3.3621,4.0899916 -5.4417,4.2979573 -2.0797,0.2079657 -8.6306,-0.069322 -8.4227,3.9513476 0.1733,1.906352 2.9462,2.114318 3.7088,2.079657 2.4262,0 4.9565,-1.871691 6.5509,-5.788378 l 9.8784,-1.2131331 c 0,0 1.941,-1.9410129 1.941,-4.2286354 0.1386,-1.94101295 -0.9359,-3.3621117 -0.5199,-3.9860088 0.4159,-0.623897 1.5597,-0.5892361 2.5995,-0.1733047 1.0745,0.4159314 6.447,3.15414609 6.2043,6.2389703 -0.2773,3.0848242 -13.9683,31.6454437 -17.3651,44.4006717 -0.8319,3.015502 -2.253,12.027348 -7.3481,16.637254 -3.8474,3.050163 -12.8246,6.134988 -14.5923,6.550919 -1.7677,0.415931 -2.5302,0.277288 -3.9513,0 -2.149,-0.415931 -8.2147,-4.055331 -9.4971,-6.654902 -0.8319,-1.733047 4.1939,1.421099 6.4816,3.154146 2.3223,1.698387 6.2389,1.975674 8.9772,0.762541 2.7035,-1.213133 11.0915,-3.882026 13.691,-8.526592 2.253,-4.02067 2.9809,-6.516258 4.2287,-12.235314 1.2478,-5.719056 15.7014,-40.3106806 15.7014,-40.3106806 -4.09,0.3812704 -14.5923,1.2477941 -14.5923,1.2477941 -0.6585,1.6290644 -4.194,7.8333735 -11.2648,5.6843955 2.149,7.382781 1.2131,20.831228 -1.0052,24.678593 0.7626,-3.015502 2.0797,-19.860722 -0.6932,-25.926387 -0.8665,-0.797202 -1.2131,-1.45576 -1.2824,-3.0848247 -0.035,-1.6290644 2.045,-4.4019401 5.7537,-4.7485496 3.7087,-0.3812704 8.2146,0.034661 8.18,-2.7728756 -0.035,-2.84219761 -3.8821,-2.56491004 -4.9912,-2.56491004 -7.868,0.034661 -9.8091,9.46243824 -18.8556,8.35328794 0,0 6.6896,23.188173 7.2442,25.025203 0.9012,2.114318 5.0951,29.115195 -16.0134,26.966216 -0.2426,1.039828 13.4138,2.148979 18.3357,-3.258129 -0.7626,1.941013 -6.135,5.961683 -18.0931,5.025837 4.2633,2.668893 14.4883,2.18364 18.8556,-1.213133 -3.0848,3.29279 -10.0517,5.684395 -18.7516,2.772876 l -1.2478,-5.823039 z" style="fill:#231f20;fill-opacity:1;fill-rule:nonzero;stroke:none" id="path15436"/><path inkscape:connector-curvature="0" d="m 1643.1964,4.9362943 c 0.3813,-0.3812704 1.6637,-3.1194851 1.0398,-5.78837796 1.2132,0.034661 4.4366,2.59957096 4.402,4.02066976 -0.035,1.4210988 -5.4418,1.7677082 -5.4418,1.7677082" style="fill:#ffffff;fill-opacity:1;fill-rule:nonzero;stroke:none" id="path15438"/><path inkscape:connector-curvature="0" d="m 1625.5089,-6.6058007 0,4.0553307 c -7.1748,0.5545751 -9.4278,8.1106614 -16.048,8.4919318 -2.6689,0 -4.09,-2.8075367 -4.0207,-4.0899917 0.035,-1.31711592 1.2132,-2.53024903 4.6792,-2.9808413 2.7383,-0.3119485 12.3047,-2.6342319 15.3895,-5.4764295" style="fill:#ffffff;fill-opacity:1;fill-rule:nonzero;stroke:none" id="path15440"/><path inkscape:connector-curvature="0" d="m 1618.1053,-5.5798367 0,-8.1799833 c 1.1438,-0.346609 7.3828,-1.351777 7.4175,2.703554 0.104,3.6740601 -7.4175,5.4764293 -7.4175,5.4764293" style="fill:#ffffff;fill-opacity:1;fill-rule:nonzero;stroke:none" id="path15442"/><path inkscape:connector-curvature="0" d="m 1607.8249,6.5133674 c 0.4852,-1.0398284 2.1836,-3.2927899 4.09,-4.1593136 -2.2183,0.3119486 -5.5804,3.0848242 -5.0952,3.6047384 l 1.0052,0.5545752 z" style="fill:#231f20;fill-opacity:1;fill-rule:nonzero;stroke:none" id="path15444"/><path inkscape:connector-curvature="0" d="m 1605.8527,4.7803201 c 0.3813,-0.658558 2.045,-2.8421976 4.3673,-3.6393994 -2.4263,0.3119486 -3.6741,1.2477941 -5.0259,2.3916053" style="fill:#231f20;fill-opacity:1;fill-rule:nonzero;stroke:none" id="path15446"/><path inkscape:connector-curvature="0" d="m 1630.5036,15.795569 c -2.4263,3.327451 -1.4558,10.883537 1.3171,11.576756 -3.0849,-4.36728 -1.3171,-11.576756 -1.3171,-11.576756" style="fill:#231f20;fill-opacity:1;fill-rule:nonzero;stroke:none" id="path15448"/><path inkscape:connector-curvature="0" d="m 1632.0078,13.299981 c 1.6984,-2.391606 3.1542,-2.218301 5.4765,-2.287623 -1.4211,-0.450592 -4.2633,-1.0398282 -5.4765,2.287623" style="fill:#231f20;fill-opacity:1;fill-rule:nonzero;stroke:none" id="path15450"/><path inkscape:connector-curvature="0" d="m 1597.7663,68.899604 c 0,1.698386 2.4956,13.032516 8.9772,18.578267 -4.3673,-2.460927 -8.9426,-11.230146 -10.1903,-17.261151 -0.069,-0.277288 1.2131,-1.317116 1.2131,-1.317116" style="fill:#231f20;fill-opacity:1;fill-rule:nonzero;stroke:none" id="path15452"/><path inkscape:connector-curvature="0" d="m 1598.2099,68.535664 c 0.6239,0.450592 4.0554,3.604739 4.7486,9.185151 -0.2773,-3.882026 -0.2426,-6.342953 -3.882,-9.739726 l -0.8666,0.554575 z" style="fill:#231f20;fill-opacity:1;fill-rule:nonzero;stroke:none" id="path15454"/><path inkscape:connector-curvature="0" d="m 1599.7628,66.792219 c 0.5892,0.485253 3.2234,2.842197 3.8127,7.764051 0.2426,-2.634231 -0.9359,-7.070833 -2.6689,-8.353288 l -1.1438,0.589237 z" style="fill:#231f20;fill-opacity:1;fill-rule:nonzero;stroke:none" id="path15456"/><path inkscape:connector-curvature="0" d="m 1606.3969,68.958528 c 0.8318,1.005167 2.9808,5.337785 4.5752,7.174816 3.5008,4.020669 10.5716,4.505922 17.1918,8.387948 2.6689,1.767709 4.3327,3.812704 4.3673,6.966851 0.035,3.154146 0.2426,11.992687 0.2426,11.992687 1.5598,1.90635 2.7383,5.26846 2.149,9.77439 -0.5892,5.2338 -3.9167,10.01701 -5.3031,12.16599 -2.0103,3.57008 -2.8769,12.20065 -3.0848,17.29581 -2.4956,2.28762 -10.6756,7.10549 -14.6963,14.86955 -0.2426,2.04499 -2.3569,9.11583 -9.0118,8.97718 -6.6549,-0.1733 -8.6999,-7.72939 -8.9425,-10.01701 -0.069,-0.69322 0.2772,-1.17847 0.6239,-1.55974 0.6585,-0.58924 12.6859,-11.88871 12.6859,-11.88871 -0.208,-2.56491 -2.8422,-10.84887 -4.6099,-14.24565 1.7677,-1.21313 13.8643,-4.85253 19.6181,-13.76039 -0.312,-3.91669 -1.1439,-8.83854 -3.7781,-12.30464 -2.5996,-3.431433 -11.8887,-2.876858 -16.7412,-9.635742 -4.8872,-6.724224 -2.9462,-13.171159 -9.3238,-22.737581 l 1.5251,0.450593 3.2928,-0.797202 -2.2877,0.797202 c 5.6844,8.80388 4.5406,16.394627 8.7346,21.524447 5.8923,7.209477 19.5141,2.010335 20.346,20.345973 l 6.7588,-9.6704 c 0.1387,-2.8422 -0.2772,-11.403453 -0.2772,-11.403453 -0.312,-1.767708 -1.0745,-4.228635 -3.7434,-5.545751 -3.882,-2.252962 -13.6911,-3.882026 -17.5731,-9.219812 -1.8371,-2.772875 -6.9322,-10.294301 -8.4226,-10.710232 l 5.6844,2.772876 z" style="fill:#231f20;fill-opacity:1;fill-rule:nonzero;stroke:none" id="path15458"/><path inkscape:connector-curvature="0" d="m 1604.7678,129.68451 c 0.7972,0.69321 5.7537,12.96319 6.2736,24.4013 2.149,-3.08482 10.017,-10.64091 13.5178,-12.20065 0.035,-2.35695 0.7625,-13.17116 3.778,-18.197 2.9462,-4.47126 6.4123,-10.15566 3.3622,-18.05835 -4.8526,5.44177 -8.492,17.08784 -26.9316,24.0547" style="fill:#ffffff;fill-opacity:1;fill-rule:nonzero;stroke:none" id="path15460"/><path inkscape:connector-curvature="0" d="m 1607.5476,145.8573 c 0.312,2.73822 4.7139,12.44328 -0.7279,17.26115 -2.045,1.94102 -9.5317,2.77288 -10.7795,-6.86286 l 11.5074,-10.39829 z" style="fill:#ffffff;fill-opacity:1;fill-rule:nonzero;stroke:none" id="path15462"/><path inkscape:connector-curvature="0" d="m 1606.2894,164.58808 c -3.1195,-0.48526 -6.8629,-4.71389 -7.0708,-5.82304 1.0398,1.66372 5.0605,4.50592 8.1106,4.57524 2.9809,0.0693 -1.0398,1.2478 -1.0398,1.2478" style="fill:#231f20;fill-opacity:1;fill-rule:nonzero;stroke:none" id="path15464"/><path inkscape:connector-curvature="0" d="m 1608.0225,162.38364 c -3.0849,-0.45059 -6.8629,-4.71389 -7.0709,-5.82304 1.0399,1.66373 5.0605,4.47126 8.1107,4.57525 3.0155,0.0693 -1.0398,1.24779 -1.0398,1.24779" style="fill:#231f20;fill-opacity:1;fill-rule:nonzero;stroke:none" id="path15466"/><path inkscape:connector-curvature="0" d="m 1609.2737,160.23813 c -3.0848,-0.45059 -6.8282,-4.71389 -7.0708,-5.82304 1.0398,1.66373 5.0605,4.50592 8.076,4.57524 3.0502,0.0693 -1.0052,1.2478 -1.0052,1.2478" style="fill:#231f20;fill-opacity:1;fill-rule:nonzero;stroke:none" id="path15468"/><path inkscape:connector-curvature="0" d="m 1610.6082,154.93154 c 0.5892,-1.03983 2.0103,-6.82821 1.2478,-11.92337 1.2131,2.77288 1.1784,9.11583 1.0398,10.36363 -0.1733,1.24779 -2.2876,1.55974 -2.2876,1.55974" style="fill:#231f20;fill-opacity:1;fill-rule:nonzero;stroke:none" id="path15470"/><path inkscape:connector-curvature="0" d="m 1612.9651,153.39952 c 0.5546,-1.03982 1.9757,-6.8282 1.2478,-11.92336 1.2131,2.77287 1.1785,9.11583 1.0398,10.36362 -0.1733,1.2478 -2.2876,1.55974 -2.2876,1.55974" style="fill:#231f20;fill-opacity:1;fill-rule:nonzero;stroke:none" id="path15472"/><path inkscape:connector-curvature="0" d="m 1616.0742,150.74796 c 0.6586,-0.34661 1.2825,-0.90118 1.9064,-1.49042 0.069,-2.25296 -0.1387,-6.96685 -1.1439,-9.25447 0.6239,4.05533 -0.1386,8.56125 -0.7625,10.74489" style="fill:#231f20;fill-opacity:1;fill-rule:nonzero;stroke:none" id="path15474"/><path inkscape:connector-curvature="0" d="m 1618.9164,148.2905 c 0.3466,-0.38127 0.6586,-0.72788 1.0052,-1.03983 0.2426,-0.24262 0.4852,-0.45059 0.6932,-0.65856 0,-2.46092 -0.208,-6.30829 -1.1092,-8.31862 0.5546,3.6394 0,7.66007 -0.5892,10.01701" style="fill:#231f20;fill-opacity:1;fill-rule:nonzero;stroke:none" id="path15476"/><path inkscape:connector-curvature="0" d="m 1622.1711,145.61121 c 0.4159,-0.27729 0.8318,-0.55458 1.3171,-0.76254 -0.208,-2.46093 -0.6932,-5.75372 -1.5944,-7.52143 0.5892,2.8422 0.5199,5.92703 0.2773,8.28397" style="fill:#231f20;fill-opacity:1;fill-rule:nonzero;stroke:none" id="path15478"/><path inkscape:connector-curvature="0" d="m 1625.3633,110.99532 c 0.3466,-0.38127 0.6586,-0.72788 0.9705,-1.07449 0.2427,-0.20796 0.4853,-0.45059 0.6933,-0.65855 -0.069,-2.49559 -0.416,-6.3083 -1.3518,-8.28397 0.6585,3.6394 0.2079,7.62541 -0.312,10.01701" style="fill:#231f20;fill-opacity:1;fill-rule:nonzero;stroke:none" id="path15480"/><path inkscape:connector-curvature="0" d="m 1622.6736,111.54297 c 0.6586,4.81787 1.6291,2.56491 2.0104,2.18364 0.2773,-0.27729 -0.104,-3.70873 0,-4.2633 -0.104,-2.94618 -0.312,-7.03617 -1.6291,-9.87837 0.7626,4.33262 0.2426,9.11583 -0.3813,11.95803" style="fill:#231f20;fill-opacity:1;fill-rule:nonzero;stroke:none" id="path15482"/><path inkscape:connector-curvature="0" d="m 1627.8104,109.56729 c 0.4159,-0.27729 0.8665,-0.51991 1.3171,-0.76254 -0.1386,-2.42627 -0.5546,-5.75372 -1.4211,-7.52142 0.5199,2.84219 0.4159,5.92702 0.104,8.28396" style="fill:#231f20;fill-opacity:1;fill-rule:nonzero;stroke:none" id="path15484"/><path inkscape:connector-curvature="0" d="m 1595.905,63.99508 c 0.208,-3.119485 -1.5944,-3.986009 -0.8319,-4.817871 0.4506,-0.485254 4.6793,-0.311949 4.3673,4.471262 -0.3466,4.78321 -6.4469,7.140155 -7.0015,5.684395 -0.6932,-1.941013 2.9115,-2.218301 3.4661,-5.337786" style="fill:#ffffff;fill-opacity:1;fill-rule:nonzero;stroke:none" id="path15486"/><path inkscape:connector-curvature="0" d="m 1606.9861,25.233744 1.6291,-2.807536 c 0.7972,2.703553 1.733,5.8577 2.8075,9.53176 l 0.1733,0.589236 c 2.6689,9.081168 0.3813,18.231658 -3.2581,21.524447 -0.9359,0.901185 -2.0104,1.421099 -3.1195,1.733048 0.2426,-0.242627 0.4159,-0.519915 0.5546,-0.831863 0.2773,-0.831863 0.035,-1.698386 -0.6586,-2.287622 -0.5892,-0.485254 -1.6637,-2.91152 -2.1836,-5.164481 2.1836,-0.34661 5.615,-1.143812 6.7935,-2.460928 l 0.2426,-1.698386 c -0.1386,-0.242627 -0.3119,-0.519914 -1.3171,-1.733047 -0.4159,-0.485253 -1.0398,-1.282455 -1.5597,-1.975674 0.4506,-0.138644 1.0052,-0.34661 1.6984,-0.554575 l 0.2773,-0.103983 c 1.5944,-0.519914 2.4262,-1.941013 2.1489,-3.67406 l 0,-0.103983 c -0.4159,-1.906352 -1.525,-2.599571 -2.3222,-3.084824 -0.3467,-0.242627 -0.6586,-0.415932 -0.9012,-0.72788 -0.2427,-0.277288 -0.6586,-1.490421 -1.0052,-6.065666 l 0,-0.103983 z m -4.2633,-10.190318 c 0.5546,-0.589236 1.2478,-1.421099 2.253,-2.56491 l 0.2773,-1.074489 c 0.6585,2.010335 1.4904,4.817871 2.6688,8.665236 -1.6983,-1.663725 -3.9513,-3.812704 -5.1991,-5.025837 m 21.0392,-4.297957 c -0.7972,0 -1.9757,-0.277288 -2.0103,-0.72788 -0.104,-1.6637254 2.8075,-2.0796568 5.927,-2.2183005 0.1733,0 0.3466,-0.034661 0.5199,-0.034661 -1.1785,1.8716911 -2.7036,2.9808415 -4.194,2.9808415 l -0.1386,0 -0.104,0 z" style="fill:#ffffff;fill-opacity:1;fill-rule:nonzero;stroke:none" id="path15488"/></g></g></svg>