<svg xmlns="http://www.w3.org/2000/svg" xmlns:xlink="http://www.w3.org/1999/xlink" version="1.0" id="Ebene_1" x="0px" y="0px" width="246.681px" height="283.464px" viewBox="0 0 246.681 283.464" enable-background="new 0 0 246.681 283.464" xml:space="preserve">
<g>
	<path fill-rule="evenodd" clip-rule="evenodd" d="M11.706,7.585c2.634,0.388,5.269,0.76,7.906,1.121V0   c69.537,16.674,138.698,17.344,208.5,0.112v8.416c2.271-0.305,4.542-0.618,6.814-0.943v64.347   c8.084,129.306-58.534,177.859-111.612,211.531C67.395,248.809,4.099,198.469,11.706,74.892V7.585L11.706,7.585z"/>
	<path fill-rule="evenodd" clip-rule="evenodd" fill="#FFD600" d="M22.798,4.013c33.206,7.726,66.881,11.591,100.955,11.945   c34.153-0.164,67.928-3.864,101.172-11.808v35.599H22.798V4.013L22.798,4.013z"/>
	<path fill-rule="evenodd" clip-rule="evenodd" fill="#FFFFFF" d="M1.515,42.07h243.917v93.984   c-80.853-25.679-160.931-26.835-243.917,0.218V42.07L1.515,42.07z"/>
	<path fill-rule="evenodd" clip-rule="evenodd" d="M0,40.565h246.681v97.892c-40.455-12.595-80.23-19.903-122.562-20.02   c-42.949-0.118-82.732,7-124.12,20.26V40.565L0,40.565z M3.187,43.752h240.307v90.418c-79.656-24.705-158.549-25.817-240.307,0.21   V43.752L3.187,43.752z"/>
	<path fill-rule="evenodd" clip-rule="evenodd" fill="#FFD600" d="M22.987,131.947c8.689,67.422,43.56,109.212,100.328,144.998   c51.48-32.29,91.927-74.357,100.472-145.063c-1.045-0.273-2.092-0.542-3.138-0.807l-0.423,3.525l-0.984,6.473l-1.168,6.304   l-1.348,6.138l-0.627,2.457l-0.001,0.002l-0.02,0.076c-0.122,0.486-0.245,0.972-0.371,1.456l-0.005,0.019l-0.003,0.012   l-0.498,1.954l-0.364,1.252v0.001c-0.359,1.284-0.732,2.566-1.121,3.847l-0.21,0.72l-0.183,0.557l0,0   c-0.532,1.706-1.092,3.409-1.68,5.109c-3.787,10.941-8.486,21.094-14.477,31.002c-0.783,1.297-1.58,2.577-2.391,3.842v0.002   l-0.537,0.863l-0.857,1.282l-0.003,0.004l-0.019,0.028c-0.357,0.541-0.717,1.079-1.08,1.616l-0.019,0.026l-0.019,0.028l-1.068,1.6   l-1.461,2.04l-0.293,0.408l-1.445,2.02l-1.303,1.704l-0.014,0.018l-0.014,0.018l-0.014,0.017l-0.004,0.006l-0.035,0.047   l-0.014,0.018c-0.22,0.29-0.441,0.579-0.663,0.867l-0.013,0.018l-0.014,0.018l-0.014,0.017l-0.053,0.07l-1.177,1.539l-0.993,1.219   l-0.025,0.031c-0.52,0.647-1.041,1.29-1.57,1.93l-0.025,0.03l-0.841,1.034l-0.774,0.896l-0.034,0.04   c-0.702,0.827-1.412,1.647-2.13,2.463l-0.641,0.74l-0.618,0.676c-0.853,0.948-1.714,1.89-2.586,2.823l-0.492,0.537l-0.514,0.53   c-0.946,0.997-1.903,1.986-2.874,2.968l-0.426,0.439l-0.397,0.39c-1.06,1.061-2.136,2.112-3.224,3.156l-0.303,0.296l-0.283,0.264   c-1.231,1.172-2.48,2.334-3.75,3.487c-4.037,3.67-8.207,7.181-12.484,10.556l-0.224,0.181l-0.292,0.225v0.001   c-1.125,0.883-2.257,1.757-3.396,2.622l-0.738,0.571l-1.229,0.909l-0.023,0.018l-0.023,0.018l-0.042,0.031l-0.006,0.004   l-0.024,0.018c-0.411,0.307-0.823,0.612-1.236,0.916l-0.024,0.019l-0.024,0.018l-0.023,0.018l-0.023,0.018l-0.023,0.018   l-0.043,0.031l-0.005,0.004l-1.765,1.308l-4.602,3.273l-4.682,3.206l-4.76,3.143l-3.133,1.999l-3.612-2.318l-5.171-3.444   l-5.034-3.484l-1.963-1.415c-0.57-0.408-1.138-0.817-1.706-1.229l-1.228-0.885l-0.689-0.519c-1.341-0.99-2.674-1.992-3.998-3.007   l-0.071-0.053l-0.042-0.033c-4.577-3.511-9.048-7.172-13.396-11.028c-1.315-1.167-2.612-2.343-3.89-3.529l-0.002-0.002   l-0.306-0.277l-0.327-0.313c-1.114-1.042-2.214-2.093-3.3-3.151l-0.43-0.411l-0.416-0.419c-1.034-1.021-2.055-2.049-3.063-3.087   l-0.436-0.439l-0.431-0.459c-0.97-1.012-1.927-2.031-2.872-3.061l-0.47-0.5l-0.46-0.52c-0.89-0.984-1.77-1.977-2.638-2.979   l-0.531-0.6l-0.542-0.649c-0.782-0.919-1.555-1.845-2.318-2.779l-0.626-0.751l-0.616-0.786c-0.679-0.851-1.35-1.707-2.015-2.571   l-0.711-0.908l-0.734-0.999l0,0c-0.583-0.78-1.161-1.567-1.732-2.359l-0.731-0.996l-0.65-0.946   c-0.64-0.914-1.273-1.836-1.898-2.767l-0.505-0.735l-0.381-0.596c-0.856-1.301-1.699-2.616-2.527-3.951   c-6.89-11.099-12.128-22.522-16.252-34.916c-0.594-1.784-1.157-3.571-1.69-5.361l-0.037-0.119l-0.041-0.144   c-0.495-1.67-0.963-3.342-1.409-5.019l-0.127-0.455l-0.139-0.561c-0.355-1.369-0.694-2.741-1.019-4.116l0-0.001l-0.267-1.079   l-0.34-1.58c-0.16-0.72-0.314-1.439-0.466-2.161h0l-0.465-2.159l-1.119-6.05l-0.963-6.202l-0.401-3.158   C25.073,131.395,24.03,131.669,22.987,131.947L22.987,131.947z"/>
	<path fill-rule="evenodd" clip-rule="evenodd" fill="#FFD600" d="M156.16,127.896c15.166,0,28.146,9.039,33.47,21.836h-12.64   c-4.41-6.593-12.092-10.958-20.83-10.958c-8.737,0-16.419,4.366-20.83,10.958H122.69   C128.015,136.936,140.994,127.896,156.16,127.896L156.16,127.896z M189.553,175.799c-5.37,12.701-18.299,21.656-33.394,21.656   c-15.094,0-28.022-8.955-33.393-21.656h12.686c4.43,6.491,12.05,10.778,20.707,10.778c8.658,0,16.277-4.287,20.708-10.778H189.553   L189.553,175.799z"/>
	<path fill="#FFFFFF" d="M85.759,172.397l0.003-5.996c2.173,0.827,4.059,1.057,5.187,1.004c1.094-0.051,2.719-0.102,2.634-0.869   c-0.081-0.735-3.277-1.418-4.365-1.98c-1.353-0.699-3.791-2.205-3.833-5.266c-0.056-4.107,3.617-6.181,8.224-6.136   c1.958,0.019,3.656,0.147,5.931,0.483l-0.008,5.812c-1.816-0.736-3.628-0.908-4.647-0.936c-0.567-0.015-2.437-0.105-2.437,0.645   c0,0.656,0.823,0.867,1.595,1.153c0.991,0.369,2.32,0.979,2.846,1.195c1.871,0.769,3.667,2.156,3.667,5.187   c0,4.268-4.063,6.32-7.89,6.32C91.59,173.014,88.823,173.094,85.759,172.397L85.759,172.397z"/>
	<path fill="#FFD600" d="M52.917,185.843l0.001-3.09c1.12,0.426,2.092,0.544,2.673,0.518c0.564-0.026,1.401-0.053,1.357-0.448   c-0.042-0.38-1.689-0.731-2.25-1.021c-0.697-0.361-1.954-1.137-1.975-2.714c-0.029-2.116,1.864-3.185,4.238-3.162   c1.009,0.01,1.884,0.076,3.056,0.249l-0.004,2.995c-0.936-0.379-1.869-0.468-2.395-0.482c-0.292-0.007-1.256-0.054-1.256,0.332   c0,0.339,0.424,0.447,0.822,0.595c0.511,0.19,1.196,0.505,1.466,0.616c0.965,0.396,1.89,1.11,1.89,2.673   c0,2.198-2.094,3.257-4.065,3.257C55.921,186.16,54.496,186.201,52.917,185.843L52.917,185.843z"/>
	<path fill="#FFFFFF" d="M148.759,153.154c1.484,0,2.898,0.228,4.242,0.685c1.342,0.456,2.522,1.114,3.541,1.976   c1.02,0.859,1.834,1.904,2.443,3.134s0.914,2.616,0.914,4.161c0,1.546-0.305,2.933-0.914,4.162   c-0.609,1.229-1.424,2.273-2.443,3.134c-1.019,0.86-2.199,1.52-3.541,1.976c-1.344,0.457-2.758,0.685-4.242,0.685   c-1.486,0-2.899-0.228-4.242-0.685c-1.343-0.456-2.523-1.115-3.543-1.976c-1.018-0.86-1.832-1.905-2.441-3.134   c-0.609-1.229-0.914-2.616-0.914-4.162c0.02-1.545,0.333-2.932,0.942-4.161s1.424-2.274,2.442-3.134   c1.02-0.861,2.195-1.52,3.527-1.976C145.865,153.382,147.273,153.154,148.759,153.154L148.759,153.154z M144.216,163.109   c0,2.62,1.742,4.111,4.438,4.111s4.646-1.474,4.646-4.111c0-2.637-1.826-4.32-4.541-4.32S144.216,160.49,144.216,163.109   L144.216,163.109z"/>
	<path fill="#FFFFFF" d="M58.998,153.102c1.114,0,2.188,0.128,3.221,0.386l1.136,6.225c-1.108-0.62-1.885-0.96-4.042-0.96   c-2.925,0-4.647,2.125-4.647,4.332c0,2.206,1.846,4.121,4.542,4.121c2.029,0,3.749-0.535,4.41-0.988l-0.769,6.288   c-1.226,0.373-2.509,0.561-3.851,0.561c-1.485,0-2.899-0.229-4.242-0.687c-1.343-0.458-2.523-1.118-3.542-1.98   c-1.019-0.862-1.833-1.91-2.442-3.143s-0.914-2.623-0.914-4.172c0.019-1.55,0.333-2.94,0.942-4.173s1.424-2.28,2.442-3.143   s2.194-1.522,3.528-1.98C56.104,153.33,57.513,153.102,58.998,153.102L58.998,153.102z"/>
	<polygon fill-rule="evenodd" clip-rule="evenodd" fill="#FFFFFF" points="195.101,172.967 195.101,159.3 190.496,159.3    191.962,153.332 205.839,153.332 205.842,159.3 201.942,159.3 201.942,172.513 195.101,172.967  "/>
	<polygon fill="#FFFFFF" points="170.49,172.967 170.49,153.313 170.478,153.295 176.957,153.313 182.755,162.408 182.78,153.609    189.232,153.155 189.232,172.565 182.716,172.547 176.941,163.463 176.941,172.513 170.49,172.967  "/>
	<polygon fill="#FFFFFF" points="161.382,172.967 161.382,153.663 168.222,153.202 168.222,172.507 161.382,172.967  "/>
	<polygon fill-rule="evenodd" clip-rule="evenodd" fill="#FFFFFF" points="101.927,172.967 101.927,153.77 108.768,153.312    108.768,159.926 112.537,159.926 112.537,153.77 119.377,153.312 119.377,172.509 112.537,172.967 112.537,165.493    108.768,165.493 108.768,172.509 101.927,172.967  "/>
	<path fill="#FFFFFF" d="M77.9,173.072l-0.872-3.393h-5.465l-0.872,3.393l-7.634-0.563l7.184-19.197l4.055,0.022l4.055-0.022   l7.183,19.197L77.9,173.072L77.9,173.072z M75.734,164.643l-1.438-5.6l-1.439,5.6H75.734L75.734,164.643z"/>
	<path fill="#FFFFFF" d="M121.14,173.02v-19.723l6.84,0.015l0,0h1.581c3.897,0,7.087,2.764,7.135,6.715s-2.918,6.978-6.925,6.978   h-1.791v5.558L121.14,173.02L121.14,173.02z M127.98,158.348v3.882h0.322c0.865,0,1.889-0.63,1.941-1.993   c0.052-1.363-1.025-1.889-1.941-1.889H127.98L127.98,158.348z"/>
	<path fill="#FFFFFF" d="M68.246,183.323c0,0.977-0.297,1.806-0.891,2.489c-0.642,0.74-1.476,1.109-2.5,1.109   c-0.358,0-0.687-0.057-0.988-0.171c-0.415-0.154-0.765-0.414-1.049-0.78l-0.024,2.989H61.17v-9.016h1.488v0.879   c0.269-0.415,0.643-0.716,1.122-0.903c0.342-0.13,0.7-0.195,1.074-0.195c0.952,0,1.754,0.332,2.41,0.994   C67.918,181.382,68.246,182.25,68.246,183.323L68.246,183.323z M66.624,183.312c0-0.521-0.15-0.972-0.452-1.354   c-0.366-0.463-0.862-0.695-1.488-0.695c-0.586,0-1.063,0.193-1.434,0.58c-0.37,0.386-0.555,0.88-0.555,1.481   c0,0.635,0.181,1.137,0.543,1.507s0.823,0.555,1.384,0.555c0.586,0,1.065-0.194,1.439-0.585S66.624,183.913,66.624,183.312   L66.624,183.312z"/>
	<path fill="#FFFFFF" d="M76.175,183.336c0,0.992-0.342,1.838-1.025,2.537s-1.537,1.049-2.562,1.049   c-1.017,0-1.868-0.348-2.556-1.043c-0.687-0.695-1.03-1.543-1.03-2.543s0.339-1.853,1.019-2.556   c0.679-0.703,1.535-1.056,2.567-1.056c1.025,0,1.879,0.35,2.562,1.05C75.833,181.474,76.175,182.327,76.175,183.336L76.175,183.336   z M74.553,183.336c0-0.577-0.179-1.067-0.537-1.47c-0.358-0.403-0.834-0.604-1.428-0.604c-0.585,0-1.059,0.201-1.421,0.604   c-0.362,0.402-0.543,0.893-0.543,1.47s0.179,1.063,0.537,1.458c0.357,0.395,0.833,0.591,1.427,0.591   c0.578,0,1.05-0.199,1.415-0.598C74.37,184.389,74.553,183.905,74.553,183.336L74.553,183.336z"/>
	<path fill="#FFFFFF" d="M80.347,181.299c-0.488,0-0.852,0.148-1.092,0.445c-0.24,0.297-0.36,0.733-0.36,1.312v3.647h-1.623v-6.759   h1.488v0.61c0.333-0.562,0.81-0.842,1.427-0.842c0.073,0,0.126,0,0.159,0V181.299L80.347,181.299z"/>
	<polygon fill="#FFFFFF" points="84.263,181.384 83.287,181.384 83.287,186.703 81.665,186.703 81.665,181.384 80.872,181.384    80.872,179.944 81.665,179.944 81.665,177.676 83.287,177.676 83.287,179.944 84.263,179.944 84.263,181.384  "/>
	<polygon fill="#FFFFFF" points="93.986,179.944 91.545,186.703 90.545,186.703 89.265,182.323 87.984,186.703 86.983,186.703    84.543,179.944 86.264,179.944 87.508,184.067 88.63,179.944 89.899,179.944 91.021,184.067 92.266,179.944 93.986,179.944  "/>
	<path fill="#FFFFFF" d="M101.244,183.323v0.184c0,0.171-0.012,0.35-0.036,0.536h-5.294c0.105,0.407,0.319,0.732,0.64,0.977   s0.697,0.365,1.129,0.365c0.284,0,0.549-0.044,0.792-0.134c0.293-0.113,0.533-0.28,0.72-0.5h1.83   c-0.301,0.707-0.746,1.246-1.336,1.616c-0.589,0.37-1.238,0.555-1.946,0.555c-1.122,0-2.021-0.398-2.696-1.195   c-0.585-0.691-0.878-1.476-0.878-2.354c0-0.895,0.293-1.695,0.878-2.403c0.683-0.829,1.59-1.244,2.72-1.244   c1.025,0,1.86,0.344,2.507,1.031S101.244,182.299,101.244,183.323L101.244,183.323z M99.548,182.604   c-0.114-0.423-0.334-0.752-0.659-0.988c-0.326-0.235-0.7-0.354-1.123-0.354c-0.439,0-0.827,0.122-1.165,0.366   c-0.337,0.244-0.575,0.569-0.713,0.976H99.548L99.548,182.604z"/>
	<polygon fill="#FFFFFF" points="104.623,181.384 103.647,181.384 103.647,186.703 102.025,186.703 102.025,181.384    101.232,181.384 101.232,179.944 102.025,179.944 102.025,177.676 103.647,177.676 103.647,179.944 104.623,179.944    104.623,181.384  "/>
	<polygon fill="#FFFFFF" points="108.283,181.384 107.307,181.384 107.307,186.703 105.684,186.703 105.684,181.384    104.891,181.384 104.891,179.944 105.684,179.944 105.684,177.676 107.307,177.676 107.307,179.944 108.283,179.944    108.283,181.384  "/>
	<path fill="#FFFFFF" d="M115.517,183.323v0.184c0,0.171-0.012,0.35-0.037,0.536h-5.294c0.106,0.407,0.319,0.732,0.641,0.977   c0.321,0.244,0.697,0.365,1.128,0.365c0.284,0,0.549-0.044,0.793-0.134c0.292-0.113,0.532-0.28,0.72-0.5h1.83   c-0.301,0.707-0.746,1.246-1.335,1.616c-0.59,0.37-1.238,0.555-1.946,0.555c-1.122,0-2.021-0.398-2.696-1.195   c-0.585-0.691-0.878-1.476-0.878-2.354c0-0.895,0.293-1.695,0.878-2.403c0.683-0.829,1.59-1.244,2.72-1.244   c1.025,0,1.86,0.344,2.507,1.031S115.517,182.299,115.517,183.323L115.517,183.323z M113.821,182.604   c-0.114-0.423-0.333-0.752-0.659-0.988c-0.325-0.235-0.7-0.354-1.123-0.354c-0.439,0-0.827,0.122-1.165,0.366   c-0.337,0.244-0.575,0.569-0.713,0.976H113.821L113.821,182.604z"/>
	<path fill="#FFFFFF" d="M122.666,186.703h-1.623v-3.587c0-0.683-0.146-1.18-0.439-1.488c-0.228-0.244-0.533-0.366-0.915-0.366   c-0.578,0-0.976,0.232-1.195,0.695c-0.138,0.285-0.208,0.671-0.208,1.159v3.587h-1.622v-6.759h1.488v0.622   c0.203-0.228,0.406-0.402,0.609-0.524c0.366-0.211,0.789-0.317,1.269-0.317c0.797,0,1.435,0.269,1.915,0.806   c0.48,0.536,0.72,1.276,0.72,2.22V186.703L122.666,186.703z"/>
	<path d="M39.386,30.572c0,0.757-0.258,1.393-0.774,1.908c-0.516,0.516-1.175,0.774-1.977,0.774c-0.703,0-1.318-0.214-1.846-0.643   c-0.596-0.488-0.894-1.138-0.894-1.948h1.639c0,0.321,0.11,0.579,0.332,0.773c0.222,0.195,0.489,0.293,0.803,0.293   c0.344,0,0.621-0.102,0.831-0.304c0.21-0.203,0.315-0.457,0.315-0.763c0-0.374-0.141-0.684-0.424-0.929   c-0.191-0.16-0.462-0.301-0.814-0.424c-0.718-0.244-1.23-0.485-1.536-0.722c-0.558-0.428-0.836-1.017-0.836-1.765   c0-0.619,0.21-1.158,0.63-1.616c0.481-0.527,1.112-0.791,1.891-0.791c0.764,0,1.375,0.252,1.834,0.756   c0.413,0.458,0.619,1.008,0.619,1.65h-1.616c0-0.237-0.068-0.436-0.206-0.596c-0.16-0.191-0.386-0.286-0.676-0.286   c-0.298,0-0.523,0.086-0.677,0.258c-0.152,0.172-0.229,0.384-0.229,0.636c0,0.298,0.123,0.535,0.367,0.711   c0.146,0.107,0.386,0.214,0.722,0.321c0.734,0.229,1.261,0.466,1.582,0.71C39.073,29.052,39.386,29.717,39.386,30.572   L39.386,30.572z"/>
	<path fill-rule="evenodd" clip-rule="evenodd" d="M49.968,26.889c-0.229-0.269-0.478-0.477-0.748-0.626   c-0.382-0.214-0.814-0.32-1.295-0.32c-0.825,0-1.511,0.284-2.057,0.854s-0.819,1.24-0.819,2.012c0,0.81,0.277,1.499,0.831,2.068   c0.554,0.569,1.24,0.854,2.058,0.854c0.397,0,0.771-0.081,1.123-0.241c0.342-0.155,0.64-0.395,0.895-0.716l1.202,0.994   c-0.256,0.306-0.549,0.568-0.881,0.788c-0.695,0.466-1.49,0.699-2.384,0.699c-1.368,0-2.472-0.497-3.313-1.49   c-0.733-0.871-1.1-1.856-1.1-2.957c0-1.077,0.363-2.044,1.089-2.9c0.848-0.993,1.963-1.49,3.347-1.49   c0.886,0,1.673,0.226,2.361,0.676c0.339,0.222,0.637,0.489,0.896,0.8L49.968,26.889L49.968,26.889z"/>
	<path fill-rule="evenodd" clip-rule="evenodd" d="M203.574,26.889c-0.229-0.269-0.479-0.477-0.749-0.626   c-0.382-0.214-0.813-0.32-1.295-0.32c-0.825,0-1.511,0.284-2.058,0.854c-0.546,0.569-0.819,1.24-0.819,2.012   c0,0.81,0.276,1.499,0.831,2.068c0.554,0.569,1.24,0.854,2.057,0.854c0.398,0,0.772-0.081,1.124-0.241   c0.341-0.155,0.64-0.395,0.894-0.716l1.203,0.994c-0.256,0.306-0.551,0.568-0.882,0.788c-0.695,0.466-1.489,0.699-2.384,0.699   c-1.368,0-2.473-0.497-3.313-1.49c-0.733-0.871-1.101-1.856-1.101-2.957c0-1.077,0.363-2.044,1.089-2.9   c0.848-0.993,1.964-1.49,3.347-1.49c0.887,0,1.673,0.226,2.361,0.676c0.339,0.222,0.636,0.489,0.896,0.8L203.574,26.889   L203.574,26.889z"/>
	<path d="M68.254,32.996h-2.2l-3.092-3.077l0.003,3.129h-1.597v-8.481h2.453c1.237,0,2.124,0.348,2.659,1.043   c0.352,0.458,0.527,1.008,0.527,1.65c0,0.695-0.21,1.295-0.63,1.799c-0.368,0.441-0.838,0.716-1.41,0.824L68.254,32.996   L68.254,32.996z M65.438,27.352c0-0.527-0.214-0.89-0.642-1.089c-0.244-0.114-0.554-0.172-0.928-0.172h-0.928v2.521h0.928   c0.382,0,0.688-0.053,0.917-0.16C65.22,28.254,65.438,27.887,65.438,27.352L65.438,27.352z"/>
	<path d="M140.754,32.996h-2.2l-3.092-3.077l0.004,3.129h-1.598v-8.481h2.453c1.238,0,2.125,0.348,2.659,1.043   c0.352,0.458,0.527,1.008,0.527,1.65c0,0.695-0.21,1.295-0.63,1.799c-0.368,0.441-0.838,0.716-1.41,0.824L140.754,32.996   L140.754,32.996z M137.938,27.352c0-0.527-0.214-0.89-0.642-1.089c-0.244-0.114-0.555-0.172-0.929-0.172h-0.929v2.521h0.929   c0.382,0,0.688-0.053,0.917-0.16C137.72,28.254,137.938,27.887,137.938,27.352L137.938,27.352z"/>
	<polygon points="78.444,33.048 76.874,33.048 76.874,29.495 73.254,29.495 73.254,33.048 71.684,33.048 71.684,24.566    73.254,24.566 73.254,27.971 76.874,27.971 76.874,24.566 78.444,24.566 78.444,33.048  "/>
	<polygon points="215.509,33.048 213.939,33.048 213.939,29.495 210.32,29.495 210.32,33.048 208.75,33.048 208.75,24.566    210.32,24.566 210.32,27.971 213.939,27.971 213.939,24.566 215.509,24.566 215.509,33.048  "/>
	<polygon points="87.581,33.048 83.031,33.048 83.031,24.566 87.581,24.566 87.581,26.091 84.601,26.091 84.601,28.051    87.455,28.051 87.455,29.575 84.601,29.575 84.601,31.524 87.581,31.524 87.581,33.048  "/>
	<polygon points="93.575,33.048 92.005,33.048 92.005,24.566 93.575,24.566 93.575,33.048  "/>
	<polygon points="105.046,33.048 103.483,33.048 99.719,27.317 99.719,33.048 98.156,33.048 98.156,24.566 99.719,24.566    103.483,30.297 103.483,24.566 105.046,24.566 105.046,33.048  "/>
	<path d="M116.406,28.854c0,0.527-0.073,1.023-0.218,1.49c-0.237,0.756-0.641,1.362-1.215,1.811   c-0.763,0.597-1.792,0.894-3.083,0.894h-2.226v-8.481h2.191c1.2,0,2.168,0.251,2.911,0.745c0.602,0.4,1.043,0.963,1.318,1.696   C116.299,27.566,116.406,28.181,116.406,28.854L116.406,28.854z M114.836,28.854c0-1.154-0.406-1.948-1.215-2.384   c-0.466-0.252-1.085-0.379-1.857-0.379h-0.53v5.433h0.61c0.756,0,1.36-0.122,1.811-0.367   C114.443,30.729,114.836,29.961,114.836,28.854L114.836,28.854z"/>
	<path d="M129.702,28.854c0,1.23-0.431,2.271-1.29,3.123c-0.859,0.852-1.919,1.278-3.18,1.278c-1.261,0-2.321-0.427-3.181-1.278   c-0.859-0.852-1.29-1.893-1.29-3.123c0-1.238,0.43-2.287,1.29-3.146s1.919-1.289,3.181-1.289c1.261,0,2.32,0.43,3.18,1.289   S129.702,27.615,129.702,28.854L129.702,28.854z M128.131,28.819c0-0.794-0.276-1.473-0.831-2.035   c-0.554-0.561-1.244-0.842-2.068-0.842c-0.833,0-1.524,0.279-2.075,0.836s-0.825,1.238-0.825,2.04c0,0.81,0.279,1.498,0.836,2.063   s1.242,0.849,2.052,0.849c0.833,0,1.526-0.285,2.08-0.854C127.855,30.307,128.131,29.621,128.131,28.819L128.131,28.819z"/>
	<polygon points="148.912,26.091 145.804,26.091 145.804,28.051 148.787,28.051 148.787,29.575 145.804,29.575 145.804,33.048    144.234,33.048 144.234,24.566 148.912,24.566 148.912,26.091  "/>
	<path d="M193.633,33.048h-1.731l-0.871-2.188h-3.117l-0.871,2.188h-1.73l3.53-8.481h1.261L193.633,33.048L193.633,33.048z    M190.435,29.335l-0.963-2.476l-0.963,2.476H190.435L190.435,29.335z"/>
	<polygon points="183.037,26.091 180.98,26.091 180.98,33.048 179.41,33.048 179.41,26.091 177.367,26.091 177.367,24.566    183.037,24.566 183.037,26.091  "/>
	<polygon points="175.203,33.048 170.515,33.048 170.515,24.566 172.085,24.566 172.085,31.524 175.203,31.524 175.203,33.048  "/>
	<path d="M166.675,33.048h-1.73l-0.687-1.741h-3.485l-0.688,1.741h-1.73l3.53-8.481h1.261L166.675,33.048L166.675,33.048z    M163.662,29.782l-1.146-2.923l-1.146,2.923H163.662L163.662,29.782z"/>
	<path d="M58.414,95.54c-0.212,12.403-11.579,20.036-21.573,21.939c-5.773,1.1-11.135,1.652-16.68-0.599   c-4.778-1.939-5.692-5.807-5.844-8.976c-0.115-2.391-0.038-4.755,0.237-7.573l15.925-2.58l-0.271,5.291   c-0.154,3.001,2.006,4.891,5.797,4.169c3.124-0.426,6.764-3.397,6.764-7.047c0-1.266-0.196-2.348-0.88-3.28   c-2.967-4.041-11.168-4.858-14.978-6.503c-5.73-2.473-10.656-5.598-10.508-14.779c0.229-14.173,12.1-20.423,21.765-21.085   c5.614-0.538,10.292,0.695,13.697,2.606c4.109,2.308,6.413,6.037,6.9,14.481l-15.516,1.965c-0.016-1.992-0.083-3.919-0.712-5.251   c-1.202-2.542-3.687-3.469-6.627-2.426c-3.124,1.108-4.09,3.56-4.091,5.527c-0.001,2.223,1.087,3.847,3.332,5.419   c1.192,0.836,2.569,1.027,4.003,1.472C48.251,81.135,58.624,83.216,58.414,95.54L58.414,95.54z"/>
	<path d="M114.009,85.122l-0.039,8.215c-0.045,9.538-10.727,14.502-21.327,15.18c-16.75,1.07-22.131-6.394-22.122-15.311   l0.027-25.96c0.011-10.086,8.071-16.131,21.628-16.411c19.52-0.402,21.87,8.117,21.87,19.89l-16.354,0.525l0.097-5.308   c0.038-2.088-1.267-5.224-5.251-5.224s-6.085,2.034-6.095,5.327L86.36,93.521c-0.013,4.363,2.635,5.497,5.787,5.278   c4.554-0.315,5.86-3.337,5.837-7.049l-0.041-6.313L114.009,85.122L114.009,85.122z"/>
	<path d="M175.542,109.815l-18.653-2.207c-0.156-0.202-0.824-1.597-0.949-3.57c-0.238-3.768-0.202-9.265-0.277-10.777   c0-4.578-1.711-6.476-6.072-7.088l-5.666-0.105v20.699l-17.088-0.841V52.062l27.669,0.21c10.005,0.076,18.209,4.567,18.209,15.686   c0,5.842-3.048,11.276-9.513,13.19c6.004,1.596,8.82,3.84,8.951,10.04l0.131,6.283   C172.455,105.687,174.129,107.396,175.542,109.815L175.542,109.815z M155.873,69.57c0.063-4.857-3.09-7.359-6.768-7.359h-5.182   v13.535l5.865,0.42C154.351,76.493,155.824,73.304,155.873,69.57L155.873,69.57z"/>
	<path d="M231.591,122.113l-16.988-3.731l-2.383-11.801l-14.72-2.942l-1.593,10.75l-14.991-2.89l11.696-57.334l22.97,1.997   L231.591,122.113L231.591,122.113z M210.043,95.583l-6.323-30.087l-4.48,27.827L210.043,95.583L210.043,95.583z"/>
	<path fill-rule="evenodd" clip-rule="evenodd" fill="#FFD600" d="M109.807,245.957c1.901,1.541,4.948,3.039,7.646,3.705   c8.371-6.587,13.083-12.666,14.399-19.918c-1.516-0.078-4.125,0.009-7.015,0.709C121.401,235.798,117.072,241.592,109.807,245.957   L109.807,245.957z"/>
	<path fill-rule="evenodd" clip-rule="evenodd" fill="#FFD600" d="M145.229,229.4c0.19-2.677,0.065-3.772-0.603-6.209   c-8.857-4.177-17.713-4.813-24.974-0.904c0.721,1.32,2.089,3.149,4.376,5.049C130.251,225.656,137.591,226.448,145.229,229.4   L145.229,229.4z"/>
	<path fill-rule="evenodd" clip-rule="evenodd" fill="#FFFFFF" d="M120.364,250.316c3.477,0.438,5.974-0.034,7.856-0.419   c7.006-5.956,11.508-11.982,12.457-18.709c-1.604-0.503-3.481-0.955-6.018-1.208C133.467,237.312,127.548,245.263,120.364,250.316   L120.364,250.316z"/>
	<path fill-rule="evenodd" clip-rule="evenodd" fill="#FFD600" d="M143.167,231.906c-1.449,7.414-5.852,12.412-10.059,16.203   c5.893-2.783,10.339-8.387,11.844-15.521L143.167,231.906L143.167,231.906z"/>
	<path fill-rule="evenodd" clip-rule="evenodd" fill="#FFFFFF" d="M143.708,220.352c-0.937-2.443-2.415-4.866-3.87-6.385   c-3.41-1.561-10.271-3.489-15.231-3.4c-3.136,0.057-6.438,0.931-8.403,1.928c0.12,1.791,0.93,4.753,2.053,7.151   C126.729,215.851,134.846,216.91,143.708,220.352L143.708,220.352z"/>
	<path fill-rule="evenodd" clip-rule="evenodd" fill="#FFD600" d="M115.656,207.766l0.052,2.204   c6.129-2.335,12.752-1.784,20.683,0.761C131.189,206.777,123.219,204.949,115.656,207.766L115.656,207.766z"/>
	<path fill-rule="evenodd" clip-rule="evenodd" fill="#FFD600" d="M112.962,208.962c-2.159,1.204-4.408,2.727-6.177,4.87   c1.792,9.82,4.794,16.853,11.51,21.175c1.201-1.408,3.147-4.084,3.819-5.628C117.197,225.594,113.347,217.924,112.962,208.962   L112.962,208.962z"/>
	<path fill-rule="evenodd" clip-rule="evenodd" fill="#FFFFFF" d="M104.99,216.173c-1.899,2.945-3.078,6.134-3.442,8.628   c1.709,8.054,4.586,13.077,10.03,17.158c1.085-0.901,3.294-2.663,5.083-5.021C110.148,232.43,106.438,225.466,104.99,216.173   L104.99,216.173z"/>
	<path fill-rule="evenodd" clip-rule="evenodd" fill="#FFD600" d="M109.707,243.45c-4.43-3.202-6.383-7.353-8.243-12.156   c0.748,5.31,2.826,9.225,6.665,13.144L109.707,243.45L109.707,243.45z"/>
</g>
</svg>