<svg xmlns:inkscape="http://www.inkscape.org/namespaces/inkscape" xmlns:sodipodi="http://sodipodi.sourceforge.net/DTD/sodipodi-0.dtd" xmlns="http://www.w3.org/2000/svg" xmlns:svg="http://www.w3.org/2000/svg" width="563.82611" height="800" viewBox="0 0 563.82611 800" fill="none" version="1.1" id="svg275" sodipodi:docname="Logo SD Amorebieta.svg" inkscape:version="1.2 (dc2aeda, 2022-05-15)">
  <sodipodi:namedview id="namedview277" pagecolor="#ffffff" bordercolor="#000000" borderopacity="0.25" inkscape:showpageshadow="2" inkscape:pageopacity="0.0" inkscape:pagecheckerboard="0" inkscape:deskcolor="#d1d1d1" showgrid="false" inkscape:zoom="1.0796527" inkscape:cx="326.03077" inkscape:cy="247.30175" inkscape:window-width="1920" inkscape:window-height="1080" inkscape:window-x="0" inkscape:window-y="0" inkscape:window-maximized="0" inkscape:current-layer="svg275"/>
  <g id="g1236">
    <path d="M 281.90364,21.990413 548.65273,412.57586 281.90364,778.94214 15.169825,412.57586 Z" fill="#22366a" id="path182" style="stroke-width:0.15125"/>
    <path d="M 281.90562,21.990215 548.65471,412.57586 281.90562,778.94214 15.171544,412.57586 Z M 281.90562,0 271.66166,14.985587 4.9280396,405.58677 0,412.80859 l 5.1449653,7.06645 266.7494147,366.36628 10.02645,13.75867 10.02645,-13.75867 266.74975,-366.36628 5.14446,-7.06645 -4.9276,-7.22182 L 292.14893,14.985587 Z" fill="#ffffff" id="path184" style="stroke-width:0.15125"/>
  </g>
  <defs id="defs273"/>
  <g id="g1330">
    <path d="m 385.98232,243.03868 c 4.95868,-2.43306 11.14182,-7.15967 13.6681,-12.35108 0,0 -30.43637,8.67835 -42.64794,-7.23702 l 11.04992,-32.35769 0.58843,-0.58843 -0.23207,-0.10909 c -0.71338,-0.35636 -1.70512,-1.11537 -3.05322,-2.16926 -7.34545,-5.73421 -26.62347,-20.78148 -77.22116,-22.45487 0.57323,-0.38744 1.28596,-0.68232 1.98348,-0.96132 0.97652,-0.38744 1.8909,-0.77488 2.47933,-1.36331 0.74381,-0.7438 1.81356,-5.29983 1.81356,-7.19074 0,-3.08364 -1.54975,-5.42414 -3.05322,-7.68661 -1.37918,-2.0767 -2.681,-4.0443 -2.681,-6.43108 0,-5.02083 0.94546,-7.74876 5.98215,-7.74876 7.91868,0 13.03273,4.77355 13.03273,12.16529 v 0.0774 l 0.0932,0.15537 h 0.10843 c 0.41851,0 1.93719,-2.85157 1.93719,-2.88265 v -8.81785 l -0.0159,-0.0932 c -1.02281,-2.04562 -1.67338,-3.87372 -2.30876,-5.64033 -0.80595,-2.24728 -1.56562,-4.37025 -2.99107,-6.72595 -1.54975,-2.47934 -3.0995,-4.86612 -4.60231,-7.15967 -6.91169,-10.6156 -13.43599,-20.657252 -17.43466,-36.882707 h -0.37158 c -3.99801,16.225455 -10.52231,26.267107 -17.43404,36.882647 -1.50348,2.30942 -3.05323,4.68033 -4.60298,7.15967 -1.42545,2.3557 -2.18446,4.47867 -2.99041,6.72595 -0.63537,1.76661 -1.28661,3.59471 -2.30942,5.64033 l -0.0152,8.91107 c 0,0.0311 1.51868,2.88265 1.93719,2.88265 l 0.1395,-0.0159 0.0774,-0.17058 v -0.0463 c 0,-7.39174 5.11405,-12.16529 13.03273,-12.16529 5.02082,0 5.98214,2.72793 5.98214,7.74876 0,2.38678 -1.30181,4.35438 -2.68099,6.43108 -1.50347,2.26247 -3.05322,4.60297 -3.05322,7.68661 0,1.90611 1.06975,6.44694 1.81355,7.19074 0.58843,0.58843 1.51868,0.96066 2.47934,1.36331 0.71273,0.29487 1.44132,0.58909 2.01455,0.97653 -39.23835,1.81289 -74.32331,21.0757 -78.56992,24.1752 l -0.12364,0.0932 0.0622,0.13951 c 4.0443,8.10446 13.18744,25.01223 16.90711,31.86182 -11.46777,17.80562 -43.63967,8.6314 -43.63967,8.6314 2.54149,5.1762 8.70942,9.91802 13.6681,12.35108 -5.95041,2.97586 -10.47537,6.94281 -17.63504,7.50082 3.85851,7.71769 21.61785,14.55141 34.4033,12.35108 14.83042,-2.55736 25.58546,-11.14248 24.70215,-13.6681 -2.10777,-6.24529 -6.72595,-16.50447 -9.29851,-24.29951 13.86975,-9.56165 34.66711,-15.86909 58.11372,-17.7752 -0.0774,0.58909 -0.15471,1.16231 -0.24793,1.76661 -0.34116,2.32463 -0.68166,4.72661 -0.68166,7.33025 0,1.96826 0.66645,3.59537 1.31703,5.16033 0.66644,1.6271 1.36396,3.31636 1.33289,5.42413 -0.27901,13.8076 -4.54083,17.69719 -7.65554,20.53355 -1.87504,1.72033 -3.3633,3.06843 -3.3633,5.93521 0,3.78116 2.91372,4.88132 5.71901,5.95107 3.02148,1.14645 6.16727,2.32463 6.18314,6.78744 l -4.83505,8.35306 c -0.79074,1.64231 0.13951,95.07372 1.3481,207.79835 0.55802,52.56595 1.00695,94.08264 0.83703,95.30644 0.20099,2.3557 0.51107,4.97455 1.31702,6.6486 v 1.03801 c -23.97355,1.08496 -45.42148,12.84694 -48.02512,14.75306 l -0.0932,0.0621 0.0469,0.0932 c 2.47934,4.95868 8.05818,15.28 10.32066,19.4486 -7.0043,10.8476 -26.60826,5.25355 -26.60826,5.25355 1.54975,3.16099 5.3157,6.04364 8.33719,7.53124 -3.62579,1.81289 -6.38414,4.23074 -10.75438,4.5719 2.35504,4.71074 13.18743,8.87934 20.98247,7.53124 9.05058,-1.56496 15.60596,-6.78744 15.06315,-8.33719 -1.28596,-3.81223 -4.09124,-10.05752 -5.6562,-14.81521 8.05818,-5.54776 19.94446,-9.29851 33.41157,-10.64661 -0.37223,3.98281 -0.55802,8.05885 -0.55802,12.28893 0,7.25289 2.58777,14.02512 4.80397,18.47273 -1.44132,1.10016 -3.03736,2.64991 -3.03736,4.91239 0,1.76661 0.7286,2.86744 1.42546,3.90546 0.63537,0.94545 1.22446,1.82876 1.22446,3.14578 0,1.13124 -2.52628,2.30876 -3.88959,2.94413 -0.35636,0.17058 -0.66644,0.31009 -0.8681,0.41852 -1.99867,1.22446 -5.82677,5.50016 -5.82677,8.54148 0,0.5686 0.94545,1.8248 2.51041,3.8281 0.99174,1.26942 2.01455,2.58513 2.3557,3.3124 2.15405,4.39008 3.28529,8.85289 4.49389,13.57355 0.51173,2.01653 1.03867,4.1124 1.67405,6.24794 2.57256,8.75372 3.56429,18.95537 3.96694,25.97024 l 0.38744,0.0198 c 0.0311,-0.1719 2.44892,-17.83802 4.85091,-25.99008 0.63537,-2.15538 1.16231,-4.23141 1.67338,-6.24794 1.19339,-4.72066 2.33984,-9.17024 4.49389,-13.57355 0.34115,-0.72727 1.36396,-2.04298 2.3557,-3.3124 1.56562,-2.0033 2.51041,-3.2595 2.51041,-3.8281 0,-3.04132 -3.82743,-7.31702 -5.82677,-8.55669 -0.20166,-0.10843 -0.51108,-0.24793 -0.86744,-0.41851 -1.36397,-0.63537 -3.89025,-1.8129 -3.89025,-2.94414 0,-1.31768 0.58909,-2.21619 1.22446,-3.14644 0.69752,-1.05322 1.42546,-2.13818 1.42546,-3.90479 0,-2.26248 -1.59603,-3.81224 -3.03736,-4.9124 2.20099,-4.4476 4.80463,-11.21984 4.80463,-18.47273 0,-4.16859 -0.18645,-8.19768 -0.52694,-12.13421 12.62942,1.36396 23.44661,4.81983 32.20231,10.41388 -1.56496,4.75769 -4.40132,11.06512 -5.68727,14.89256 -0.54215,1.54975 6.01256,6.77223 15.06314,8.33785 7.79504,1.3481 18.62744,-2.82049 20.98314,-7.5319 -4.37025,-0.34049 -7.12926,-2.75834 -10.75504,-4.57124 3.02149,-1.48826 6.78744,-4.37024 8.33719,-7.5319 0,0 -18.53422,5.28463 -26.00397,-4.40132 l 6.74116,-19.74281 0.37223,-0.37223 -0.17058,-0.0774 c -0.43372,-0.21686 -1.03868,-0.68165 -1.85983,-1.31702 -4.23075,-3.31636 -14.98579,-11.68463 -42.22942,-13.46711 v -1.25487 c 0.82181,-1.67405 1.13124,-4.2929 1.31768,-6.67967 -0.15537,-1.17752 0.27901,-42.67835 0.83637,-95.21323 1.20925,-112.74049 2.13884,-206.21818 1.33289,-207.86049 l -4.81917,-8.33785 c 0.0311,-4.46281 3.16099,-5.64033 6.18314,-6.78744 2.80462,-1.06909 5.71834,-2.15405 5.71834,-5.95107 0,-2.86678 -1.4876,-4.21488 -3.36264,-5.93521 -3.11537,-2.8357 -7.37653,-6.72529 -7.65554,-20.53355 -0.0469,-2.10711 0.65058,-3.79637 1.33223,-5.42348 0.65124,-1.56561 1.31769,-3.19272 1.31769,-5.16099 0,-2.58777 -0.34116,-5.00496 -0.68232,-7.32958 -0.10843,-0.7286 -0.20099,-1.42612 -0.29421,-2.13885 25.77124,1.11604 47.40496,7.15967 64.39008,17.9762 -2.55735,7.81091 -7.23702,18.17851 -9.36,24.47008 -0.8833,2.54149 9.85587,11.11141 24.70215,13.6681 12.78479,2.20099 30.54413,-4.63339 34.40331,-12.35107 -7.1286,-0.57322 -11.63835,-4.54017 -17.60463,-7.51603 z" fill="#ffffff" id="path186" style="stroke-width:0.15125"/>
    <g id="g594">
      <path d="m 262.57868,604.75371 -8.47669,1.9524 -0.18579,-0.79008 c 0.20166,-0.0621 0.52695,-0.17058 0.94546,-0.32529 0.43372,-0.15537 0.72793,-0.27901 0.8833,-0.37223 0.18579,-0.12364 0.32529,-0.26314 0.40265,-0.4648 0.0774,-0.18578 0.0932,-0.43371 0.0159,-0.71272 l -1.50348,-6.5243 -2.60363,0.6043 -0.23207,-0.97653 0.55736,-0.13884 c 0.6043,-0.13951 1.10082,-0.32595 1.50347,-0.55802 0.40264,-0.23273 0.72859,-0.46479 0.97653,-0.7286 0.24793,-0.26314 0.44892,-0.51107 0.58843,-0.759 0.1395,-0.24794 0.24793,-0.46546 0.32595,-0.65124 l 1.81289,-0.41852 c 0.0774,0.44959 0.18579,0.97653 0.29422,1.58083 0.12429,0.6043 0.23272,1.13124 0.34115,1.6119 l 1.39438,6.02843 c 0.0622,0.24793 0.15537,0.44893 0.31009,0.6043 0.15537,0.15471 0.34115,0.26314 0.55801,0.30942 0.20165,0.0469 0.51174,0.0469 0.94546,0.0159 0.43372,-0.0311 0.7438,-0.0621 0.96066,-0.0932" fill="#000000" id="path188" style="stroke-width:0.15125"/>
      <path fill-rule="evenodd" clip-rule="evenodd" d="m 276.38629,597.33024 c 0.31008,2.54149 -0.29488,4.72662 -1.81356,6.55471 -1.51868,1.82876 -3.73421,3.13058 -6.66314,3.87438 l -0.37223,-1.00694 1.08496,-0.32595 c 0.82116,-0.35636 1.50281,-0.75901 2.01454,-1.20859 0.51108,-0.44959 0.92959,-0.96066 1.22447,-1.51868 0.30942,-0.57322 0.52694,-1.16231 0.65058,-1.76661 0.12429,-0.6043 0.20165,-1.22447 0.21685,-1.85984 -0.54214,0.62017 -1.10016,1.03868 -1.65818,1.28661 -0.55801,0.23207 -1.19339,0.40265 -1.90611,0.48 -0.6043,0.078 -1.17752,0.0311 -1.73554,-0.15471 -0.55802,-0.17057 -1.03802,-0.44958 -1.4876,-0.80595 -0.43372,-0.37157 -0.80595,-0.83702 -1.10017,-1.39438 -0.29487,-0.57388 -0.48066,-1.19339 -0.55801,-1.89091 -0.18579,-1.47239 0.23206,-2.75834 1.23966,-3.85851 1.00761,-1.11603 2.37091,-1.76661 4.06017,-1.98347 1.82876,-0.23273 3.36264,0.16992 4.58711,1.17752 1.25553,1.02281 1.98347,2.47934 2.2162,4.40132 z m -3.75009,1.05323 c -0.0159,-0.0926 -0.0159,-0.21686 -0.0311,-0.35637 -0.0159,-0.1395 -0.0311,-0.27834 -0.0469,-0.40264 -0.201,-1.67339 -0.57323,-2.92893 -1.0843,-3.76595 -0.51174,-0.85223 -1.08496,-1.2238 -1.72033,-1.14645 -0.62017,0.0774 -1.08496,0.48 -1.39504,1.2086 -0.30942,0.72859 -0.37157,1.72033 -0.21686,3.00628 0.1395,1.11603 0.44958,1.98347 0.91438,2.60363 0.48066,0.62017 1.03868,0.88331 1.67405,0.80595 0.40264,-0.0463 0.77421,-0.17057 1.08429,-0.37223 0.32529,-0.20099 0.6043,-0.54215 0.83703,-1.02281 0,-0.0311 -0.0152,-0.0926 -0.0152,-0.17058 0.0304,-0.13884 0.0304,-0.24793 0,-0.38743 z" fill="#000000" id="path190" style="stroke-width:0.15125"/>
      <path d="m 291.79323,602.87867 -11.42149,-0.40264 0.0622,-1.90612 c 0.51173,-0.49586 1.06909,-0.93024 1.68926,-1.33289 0.60429,-0.40264 1.22446,-0.7438 1.84396,-1.05388 0.66645,-0.32529 1.22446,-0.6043 1.67405,-0.85224 0.44893,-0.26314 0.80529,-0.52694 1.06909,-0.82115 0.26314,-0.2638 0.44959,-0.55802 0.57323,-0.88331 0.12429,-0.32595 0.18578,-0.68231 0.20165,-1.08496 0.0311,-0.89917 -0.15537,-1.54975 -0.55802,-1.96826 -0.40264,-0.41851 -0.96066,-0.65058 -1.65818,-0.66645 -0.21686,-0.0152 -0.41851,0 -0.62017,0.0311 -0.18578,0.0159 -0.38743,0.0774 -0.60429,0.15537 0.0932,0.32529 0.18644,0.65058 0.27901,0.99173 0.0932,0.3405 0.12429,0.71273 0.10843,1.13124 -0.0152,0.49587 -0.21686,0.89852 -0.57323,1.17752 -0.37157,0.27901 -0.83702,0.41852 -1.37917,0.40331 -0.52694,-0.0159 -0.94546,-0.20165 -1.25554,-0.55802 -0.29421,-0.35636 -0.43372,-0.77487 -0.41785,-1.27074 0.0304,-0.85223 0.55736,-1.58083 1.58017,-2.16992 1.02281,-0.58843 2.24727,-0.86744 3.67272,-0.80595 1.65818,0.0621 2.99108,0.38744 3.98281,0.99174 1.00761,0.60496 1.48761,1.53454 1.44133,2.80529 -0.0152,0.65058 -0.17058,1.17752 -0.4648,1.56496 -0.27901,0.38743 -0.69752,0.72859 -1.22446,1.0076 -0.48,0.26314 -1.00694,0.46479 -1.59603,0.6195 -0.57323,0.15538 -1.19339,0.31009 -1.84397,0.44959 -0.69752,0.15537 -1.31769,0.31008 -1.84463,0.49587 -0.51107,0.18644 -0.97587,0.4033 -1.39438,0.65124 v 0.12363 l 8.80198,0.31009" fill="#000000" id="path192" style="stroke-width:0.15125"/>
      <path d="m 304.72943,600.0271 c 0.44958,0.44959 0.79074,0.99174 1.03867,1.65818 0.23207,0.65058 0.27901,1.41025 0.10843,2.26248 -0.29421,1.51868 -1.13124,2.64992 -2.4952,3.37852 -1.36331,0.7438 -2.96,0.92958 -4.7881,0.57322 -1.41025,-0.27901 -2.54149,-0.80595 -3.36331,-1.59603 -0.82116,-0.79075 -1.16231,-1.59604 -0.99173,-2.43306 0.0932,-0.49587 0.32529,-0.8681 0.71272,-1.14711 0.38744,-0.27901 0.83703,-0.37157 1.36397,-0.26314 0.54215,0.10843 0.96066,0.3405 1.25554,0.71273 0.29421,0.35636 0.40264,0.79008 0.29421,1.27074 -0.0621,0.34116 -0.20165,0.71273 -0.38744,1.10017 -0.20165,0.38744 -0.35636,0.68231 -0.48066,0.8833 0.15538,0.0932 0.34116,0.17058 0.55802,0.24794 0.21686,0.0774 0.41851,0.1395 0.6043,0.17058 0.38744,0.0773 0.79074,0.0621 1.20859,-0.0463 0.41851,-0.0932 0.79075,-0.29487 1.11604,-0.57322 0.38743,-0.32595 0.71272,-0.74446 0.97652,-1.24033 0.26314,-0.49587 0.44959,-1.0843 0.58843,-1.75074 0.18645,-0.97653 0.078,-1.82876 -0.32529,-2.54149 -0.40264,-0.7286 -1.00694,-1.17818 -1.82876,-1.33289 -0.63537,-0.1243 -1.20859,-0.0932 -1.68859,0.0773 -0.48066,0.17058 -0.94545,0.43372 -1.36397,0.79075 l -0.75967,-0.41852 2.48,-7.43867 8.73984,1.70446 -0.55736,2.85157 -7.99669,-1.54975 -1.08496,3.33223 c 0.41851,-0.17058 0.94545,-0.29488 1.56562,-0.38744 0.63537,-0.10909 1.33223,-0.078 2.13818,0.0774 0.62017,0.12363 1.2086,0.31008 1.76661,0.55801 0.57323,0.23207 1.10017,0.58843 1.59604,1.06909 z" fill="#000000" id="path194" style="stroke-width:0.15125"/>
    </g>
    <g id="g604">
      <path d="m 231.19753,198.54744 0.83702,4.63338 -12.50645,3.57951 -0.17057,-0.57322 5.1914,-14.36562 -2.91306,0.83702 c -0.58909,0.17058 -1.02281,0.31008 -1.27074,0.41851 -0.24793,0.10843 -0.48066,0.24794 -0.68165,0.41852 -0.24794,0.16991 -0.46546,0.52628 -0.66645,1.05322 -0.20165,0.51173 -0.43438,1.36397 -0.68231,2.51107 l -0.75901,0.21686 -0.75967,-4.18446 11.5762,-3.31636 0.17057,0.57322 -5.1914,14.36628 3.34744,-0.96132 c 1.05388,-0.31008 1.7514,-0.54215 2.10777,-0.72794 0.35636,-0.20165 0.58843,-0.43438 0.69686,-0.69752 0.23272,-0.52694 0.43438,-1.10016 0.57388,-1.70446 0.15471,-0.60496 0.27901,-1.24033 0.37157,-1.8757" fill="#e12320" id="path196" style="stroke-width:0.15125"/>
      <path fill-rule="evenodd" clip-rule="evenodd" d="m 244.78695,188.05554 c 0.77487,0.49586 1.44132,1.1471 1.99934,1.95305 0.55735,0.80595 0.92958,1.76662 1.11537,2.88199 0.17058,0.99239 0.17058,1.96826 0,2.92892 -0.17058,0.96133 -0.51108,1.81356 -1.03802,2.57256 -0.54215,0.79075 -1.22446,1.45719 -2.04562,1.98414 -0.82116,0.52694 -1.85983,0.89851 -3.08363,1.11537 -0.9924,0.17058 -1.96827,0.17058 -2.89852,0 -0.94479,-0.17058 -1.79768,-0.51108 -2.58777,-1.00694 -0.77487,-0.49587 -1.44132,-1.14711 -1.98347,-1.93719 -0.54281,-0.80595 -0.91438,-1.73554 -1.10016,-2.8205 -0.20166,-1.11603 -0.18645,-2.15405 0.0311,-3.13058 0.21686,-0.97653 0.61951,-1.85983 1.16166,-2.61884 0.5428,-0.7438 1.24033,-1.37917 2.09256,-1.87504 0.85223,-0.51174 1.78182,-0.85223 2.80463,-1.03868 1.0228,-0.18578 1.99933,-0.18578 2.96,0 0.94545,0.18645 1.81355,0.51174 2.57256,0.99174 z m -0.7438,10.21289 c 0.18578,-0.63537 0.279,-1.33289 0.279,-2.0919 0,-0.75967 -0.0932,-1.6119 -0.24793,-2.54149 -0.1395,-0.79074 -0.34116,-1.54975 -0.57322,-2.27835 -0.24794,-0.72859 -0.54281,-1.36396 -0.93025,-1.90611 -0.37157,-0.54215 -0.82116,-0.94546 -1.3481,-1.2086 -0.51107,-0.27901 -1.11603,-0.35636 -1.79769,-0.23273 -1.16231,0.20166 -1.93719,0.91438 -2.3557,2.12298 -0.40264,1.20926 -0.43372,2.80529 -0.0774,4.81983 0.15471,0.85224 0.35636,1.64232 0.62016,2.38678 0.26314,0.72794 0.58843,1.36331 0.97587,1.87504 0.38744,0.52694 0.83702,0.89852 1.33289,1.14645 0.49587,0.23273 1.06909,0.29488 1.72033,0.18578 0.63537,-0.10843 1.14645,-0.37157 1.54975,-0.77487 0.38744,-0.40265 0.68166,-0.89851 0.85224,-1.50281 z" fill="#e12320" id="path198" style="stroke-width:0.15125"/>
      <path fill-rule="evenodd" clip-rule="evenodd" d="m 267.27554,197.72562 -5.28463,0.55801 c -1.05388,-1.30181 -1.93719,-2.33983 -2.63471,-3.0995 -0.68165,-0.75901 -1.53388,-1.64231 -2.55669,-2.63405 l -0.54281,0.0622 0.43438,4.1838 c 0.0304,0.23273 0.0926,0.43372 0.18578,0.57322 0.10843,0.15538 0.29422,0.26381 0.54215,0.35637 0.1243,0.0469 0.32529,0.078 0.58909,0.10909 0.26314,0.0304 0.49587,0.0304 0.69752,0.0304 l 0.0774,0.75967 -7.34545,0.77488 -0.0774,-0.75967 c 0.18579,-0.0463 0.43372,-0.0926 0.72793,-0.15471 0.31009,-0.0774 0.52695,-0.13951 0.65124,-0.20166 0.23207,-0.12363 0.38744,-0.279 0.44893,-0.44892 0.0622,-0.17058 0.0932,-0.37223 0.0622,-0.62017 l -1.02281,-9.73223 c -0.0311,-0.23206 -0.0774,-0.41851 -0.17058,-0.57322 -0.0926,-0.15471 -0.27901,-0.2638 -0.55802,-0.35636 -0.21686,-0.0622 -0.46479,-0.10843 -0.75901,-0.13951 -0.279,-0.0311 -0.51173,-0.0463 -0.68165,-0.0622 l -0.078,-0.75901 7.73355,-0.80595 c 1.71967,-0.18578 3.06843,-0.0469 4.01322,0.40265 0.96132,0.44959 1.48761,1.20859 1.6119,2.30942 0.0932,0.96066 -0.0932,1.76661 -0.58909,2.41719 -0.49587,0.63537 -1.28595,1.19339 -2.38611,1.64298 0.49586,0.52694 1.08429,1.13124 1.73553,1.82876 0.66645,0.69686 1.36397,1.39438 2.0767,2.1071 0.23206,0.23273 0.52694,0.51174 0.91438,0.85223 0.38744,0.32596 0.71273,0.51174 0.99173,0.57389 0.15471,0.0311 0.3405,0.0463 0.57323,0.0615 0.23272,0 0.40264,0.0159 0.49586,0 z m -7.68661,-9.56099 c -0.0932,-0.91438 -0.43438,-1.56562 -0.99174,-1.93719 -0.55801,-0.37223 -1.30181,-0.51174 -2.26247,-0.40331 l -0.75967,0.0774 0.60429,5.78049 0.74381,-0.0774 c 0.94545,-0.0932 1.65818,-0.43372 2.13884,-0.97653 0.46479,-0.55736 0.63537,-1.37918 0.52694,-2.46347 z" fill="#e12320" id="path200" style="stroke-width:0.15125"/>
      <path d="m 283.76414,184.2281 c -0.18579,0.0311 -0.43372,0.0621 -0.77488,0.1395 -0.34116,0.0622 -0.63537,0.20165 -0.89917,0.41851 -0.23207,0.18579 -0.40265,0.49587 -0.48,0.92959 -0.0774,0.43372 -0.10843,1.05389 -0.0774,1.87504 l 0.3405,9.90281 -1.73554,0.0622 -9.00364,-10.41454 0.23273,6.50909 c 0.0304,0.80595 0.10843,1.42545 0.21686,1.84396 0.12364,0.41852 0.30942,0.71273 0.55802,0.89918 0.18578,0.1395 0.46479,0.24793 0.85223,0.35636 0.38744,0.10843 0.69686,0.15471 0.92959,0.18579 l 0.0311,0.759 -5.95107,0.20166 -0.0311,-0.75901 c 0.24794,-0.0311 0.54281,-0.078 0.8681,-0.17058 0.32529,-0.0932 0.6043,-0.21686 0.82116,-0.38744 0.24793,-0.20165 0.4033,-0.48066 0.48066,-0.8681 0.0932,-0.38744 0.10843,-1.03801 0.0774,-1.93719 l -0.23272,-6.55471 c -0.0152,-0.32595 -0.0774,-0.63537 -0.18579,-0.91438 -0.10843,-0.29487 -0.27901,-0.52694 -0.49587,-0.72859 -0.23206,-0.21686 -0.51107,-0.37157 -0.80595,-0.49587 -0.29421,-0.1243 -0.63537,-0.21686 -1.02281,-0.26314 l -0.0311,-0.77488 5.20727,-0.18644 7.90347,9.11272 -0.18578,-5.25355 c -0.0311,-0.83702 -0.10843,-1.45719 -0.23273,-1.84463 -0.12364,-0.40264 -0.31008,-0.69686 -0.55802,-0.89851 -0.18578,-0.1395 -0.48,-0.2638 -0.85223,-0.35636 -0.37157,-0.0932 -0.68165,-0.15538 -0.89851,-0.18579 l -0.0311,-0.75967 5.9352,-0.20165" fill="#e12320" id="path202" style="stroke-width:0.15125"/>
      <path fill-rule="evenodd" clip-rule="evenodd" d="m 299.2762,185.54512 c 0.66645,0.65058 1.17818,1.42546 1.53455,2.32463 0.37157,0.89851 0.54215,1.92132 0.49587,3.05256 -0.0311,1.00761 -0.23273,1.96827 -0.6043,2.86744 -0.37223,0.89851 -0.88331,1.67339 -1.54975,2.30876 -0.69752,0.66645 -1.50347,1.16232 -2.41785,1.51868 -0.91438,0.34116 -1.99868,0.49587 -3.25422,0.44959 -1.00694,-0.0311 -1.9524,-0.23273 -2.8357,-0.5891 -0.88331,-0.35636 -1.65818,-0.86743 -2.32463,-1.53388 -0.65124,-0.63537 -1.16231,-1.41025 -1.53455,-2.30942 -0.37157,-0.89851 -0.52628,-1.89025 -0.49586,-2.97521 0.0469,-1.13124 0.2638,-2.15405 0.68231,-3.05322 0.41851,-0.91438 0.97587,-1.68926 1.68926,-2.32463 0.69686,-0.6195 1.50281,-1.0843 2.43305,-1.39438 0.92959,-0.32529 1.92133,-0.46479 2.95934,-0.41851 1.03868,0.0311 1.99934,0.23273 2.89852,0.6043 0.89851,0.34115 1.67338,0.83702 2.32396,1.47239 z m -2.86677,9.8248 c 0.31008,-0.58843 0.54281,-1.23967 0.69752,-1.99868 0.15471,-0.7438 0.24793,-1.5967 0.279,-2.52628 0.0311,-0.80595 0,-1.58083 -0.0932,-2.33984 -0.0774,-0.75967 -0.24793,-1.44132 -0.51107,-2.04562 -0.2638,-0.60429 -0.62017,-1.08496 -1.06975,-1.47239 -0.44893,-0.37157 -1.02281,-0.57323 -1.70447,-0.6043 -1.17752,-0.0463 -2.0919,0.48066 -2.74314,1.58083 -0.65058,1.10016 -1.00694,2.66512 -1.0843,4.69553 -0.0311,0.86744 0,1.68926 0.10843,2.46413 0.10843,0.77488 0.29422,1.45653 0.55736,2.02976 0.27901,0.58909 0.62016,1.05388 1.06975,1.39504 0.43372,0.34049 0.97587,0.51107 1.64232,0.54215 0.65124,0.0311 1.20925,-0.12364 1.67405,-0.43372 0.51107,-0.29488 0.89851,-0.7286 1.17752,-1.28661 z" fill="#e12320" id="path204" style="stroke-width:0.15125"/>
      <path d="m 317.15918,189.31107 -0.7438,-0.0622 c -0.15471,-0.60429 -0.41852,-1.27074 -0.80595,-1.98347 -0.38744,-0.71272 -0.75901,-1.11603 -1.13124,-1.19339 -0.201,-0.0463 -0.4648,-0.0932 -0.75901,-0.1395 -0.31008,-0.0463 -0.55802,-0.0773 -0.79075,-0.0932 l -0.44892,-0.0463 -0.94546,10.83239 c -0.0159,0.23273 0,0.44959 0.0774,0.63538 0.0622,0.18578 0.21686,0.34115 0.46479,0.46479 0.13951,0.0773 0.37223,0.15537 0.68232,0.24793 0.30942,0.0932 0.57322,0.15537 0.79008,0.20166 l -0.0622,0.75966 -7.68661,-0.66644 0.0621,-0.75967 c 0.18578,0 0.44958,0 0.79074,-0.0152 0.3405,-0.0159 0.58843,-0.0311 0.71273,-0.0773 0.26314,-0.078 0.44959,-0.20166 0.54215,-0.37223 0.0932,-0.17058 0.15537,-0.37224 0.18578,-0.62017 l 0.96133,-10.94083 -0.44959,-0.0463 c -0.21686,-0.0152 -0.48066,-0.0311 -0.79008,-0.0463 -0.31009,0 -0.55802,0 -0.77488,0 -0.38744,0.0152 -0.82182,0.3405 -1.33289,0.97587 -0.49587,0.63537 -0.88331,1.24033 -1.13124,1.81355 l -0.7438,-0.0622 0.34049,-3.95173 13.37389,1.17752" fill="#e12320" id="path206" style="stroke-width:0.15125"/>
      <path d="m 331.58827,196.59438 -1.11603,4.5719 -12.87802,-1.81355 0.0773,-0.58843 10.58447,-11.00298 -3.00628,-0.41851 c -0.6043,-0.0932 -1.05389,-0.1243 -1.3329,-0.1243 -0.279,0 -0.54214,0.0311 -0.79008,0.10843 -0.29487,0.0622 -0.63537,0.29488 -1.03868,0.69752 -0.40264,0.38744 -0.94479,1.06975 -1.65818,2.01455 l -0.79008,-0.10843 1.02281,-4.13752 11.93256,1.67338 -0.0774,0.5891 -10.58447,11.00297 3.45587,0.48 c 1.08496,0.15537 1.82876,0.21752 2.2162,0.18645 0.40264,-0.0311 0.71273,-0.15537 0.92959,-0.35637 0.43371,-0.38743 0.83702,-0.83702 1.22446,-1.31768 0.38744,-0.49587 0.75901,-1.00694 1.10016,-1.56496" fill="#e12320" id="path208" style="stroke-width:0.15125"/>
      <path fill-rule="evenodd" clip-rule="evenodd" d="m 347.67488,203.94049 -7.43868,-1.31768 0.13951,-0.7438 c 0.35636,0.0311 0.77487,0.0469 1.25553,0.0311 0.48,-0.0152 0.74381,-0.10843 0.75901,-0.24793 0.0159,-0.0463 0.0159,-0.10843 0.0159,-0.17058 0,-0.0615 0,-0.15471 -0.0311,-0.27901 l -0.66645,-3.03735 -4.71141,-0.83637 c -0.15471,0.24794 -0.32528,0.52694 -0.52694,0.85223 -0.18578,0.32529 -0.35636,0.61951 -0.49587,0.88331 -0.18578,0.34049 -0.30942,0.58843 -0.35636,0.7438 -0.0463,0.15471 -0.0774,0.26314 -0.0926,0.32529 -0.0311,0.20165 0.0926,0.40264 0.37157,0.6043 0.29421,0.20165 0.79074,0.38744 1.50347,0.58909 l -0.1395,0.75901 -5.59471,-0.99174 0.1395,-0.7438 c 0.21686,0.0311 0.44959,0.0311 0.72859,0.0311 0.27901,-0.0152 0.51108,-0.0463 0.68166,-0.12363 0.29487,-0.10909 0.54281,-0.2638 0.75967,-0.44959 0.23206,-0.18578 0.43372,-0.43372 0.60429,-0.71273 1.0691,-1.67405 2.12298,-3.34743 3.19207,-5.02148 1.06975,-1.67339 2.24727,-3.53323 3.53322,-5.54777 l 1.92199,0.34115 c 0.71272,3.31637 1.25487,5.93521 1.65818,7.85653 0.38744,1.92199 0.7438,3.51802 1.02281,4.78876 0.0463,0.20166 0.12363,0.40331 0.21686,0.58909 0.0932,0.17058 0.26314,0.35637 0.46479,0.54215 0.15537,0.13951 0.35637,0.24794 0.58909,0.34116 0.23207,0.0932 0.43372,0.17058 0.63537,0.21686 z m -6.19901,-6.78809 -1.10016,-5.29984 -2.8205,4.60298 z" fill="#e12320" id="path210" style="stroke-width:0.15125"/>
    </g>
    <g id="g1240">
      <path d="M 425.1129,273.02479 V 527.0671 c 0,10.11901 -6.84959,16.79868 -17.06248,21.12199 -29.87835,12.70743 -88.53422,5.34677 -88.53422,5.34677 -25.07372,3.53323 -27.75471,7.05124 -37.61124,24.68628 h -0.89851 c -9.84066,-17.63504 -11.62248,-21.15305 -36.69686,-24.68628 0,0 -105.6119,13.23438 -105.6119,-26.46876 V 273.02479" fill="#e12320" id="path212" style="stroke-width:0.15125"/>
      <path id="rect1132" style="fill:#ffffff;fill-opacity:1;stroke-linecap:round;stroke-linejoin:round" d="M -105.55291 287.46892 L -122.16626 302.91085 L -122.16573 672.71338 C -112.62726 676.61011 -103.66123 676.74459 -96.631846 670.21085 L -91.716365 665.64196 L -91.715932 302.35556 L -105.55291 287.46892 z " transform="rotate(-47.092868)"/>
    </g>
    <g id="g1063">
      <g id="g1053">
        <path id="path609" style="stroke-width:0.15125;fill:#e12320;fill-opacity:1" d="M 168.125 282.95898 C 143.62454 282.95898 115.01563 301.46223 115.01562 353.64062 C 115.01563 387.6875 129.50559 401.15542 142.29102 413.04102 C 152.3948 422.44794 161.13477 430.56723 161.13477 447.70703 C 161.13477 463.83924 154.00739 480.11133 138.07617 480.11133 C 126.88743 480.11133 115.94592 472.42468 106.58594 465.21875 L 103.05273 462.50781 L 94.947266 507.06055 L 96.542969 508.02148 C 110.70757 516.62248 124.15872 520.97656 136.50977 520.97656 C 154.05221 520.97656 194.84027 513.39812 194.85547 443.19727 C 194.85547 406.54676 179.0182 391.00463 166.29492 378.5293 C 156.48535 368.90618 148.73828 361.31275 148.73828 346.86914 C 148.73828 324.46058 166.65165 323.81055 168.69727 323.81055 C 177.26717 323.81055 186.87571 327.80762 195.04297 334.76562 L 198.66797 337.84961 L 206.16992 294.38086 L 204.71289 293.4043 C 194.37638 286.47735 182.07209 282.95898 168.125 282.95898 z "/>
        <path id="path218" style="fill:#e12320;stroke-width:0.15125;fill-opacity:1" d="M 227.15269,286.83398 197.973,517.11719 h 48.61328 c 31.52063,0 55.0926,-15.60403 70.0625,-46.38086 14.58312,-29.9398 16.75195,-66.21959 16.75195,-85.1875 0,-35.85981 -6.80446,-62.42175 -20.22461,-78.94141 -10.5071,-12.94015 -25.352,-19.77344 -42.9414,-19.77344 z m 27.44531,40.86524 h 6.91211 c 23.91205,0 38.18359,19.21526 38.18359,51.40234 0,44.32128 -9.4213,97.15039 -54.26953,97.15039 h -9.53125 z"/>
        <path id="path1032" style="stroke-width:0.15125;fill:#e12320;fill-opacity:1" d="M 398.17773 286.83398 L 314.23047 517.11719 L 350.08984 517.11719 L 367.33789 465.57617 L 420.46289 465.57617 L 425.11133 517.11719 L 457.74805 517.11719 L 432.8125 289.25 L 432.54883 286.83398 L 398.17773 286.83398 z "/>
      </g>
      <g id="g1048">
        <path d="m 100.94563,504.34843 c 12.70809,7.43867 24.67173,11.21983 35.56562,11.21983 19.75867,0 52.9071,-9.40628 52.9071,-72.33983 0,-34.37223 -14.31934,-48.41257 -26.93421,-60.79471 -9.87108,-9.67009 -19.1848,-18.81323 -19.1848,-35.53455 0,-19.68132 12.75372,-28.4833 25.38381,-28.4833 8.55405,0 17.89884,3.37851 26.20562,9.37586 l 5.31504,-30.80793 c -9.12728,-5.68727 -19.91339,-8.58579 -32.09389,-8.58579 -35.19405,0 -47.68462,35.16298 -47.68462,65.25819 0,31.69124 12.98644,43.7633 25.53917,55.43272 10.58446,9.84 20.57983,19.13851 20.57983,38.63339 0,26.12827 -14.30347,37.8281 -28.4833,37.8281 -11.42083,0 -21.99009,-6.47736 -31.25752,-13.35802" fill="#ffffff" id="path216" style="stroke-width:0.15125"/>
        <path d="m 204.12579,511.69454 h 42.46149 c 29.27405,0 51.20198,-14.58248 65.19603,-43.32892 14.08661,-28.96397 16.19438,-64.31273 16.19438,-82.81587 0,-77.09752 -31.39702,-93.2919 -57.75735,-93.2919 h -38.30876 z m 41.29917,-30.01719 h -15.66743 l 20.05355,-159.41752 h 11.69983 c 26.88728,0 43.6086,21.77323 43.6086,56.82711 -0.0152,84.8 -32.46612,102.59041 -59.69455,102.59041 z" fill="#ffffff" id="path220" style="stroke-width:0.15125"/>
        <path d="m 430.0729,511.69454 h 21.63371 L 427.68612,292.25785 h -25.70909 l -79.99537,219.43669 h 24.20628 l 17.24826,-51.54248 h 61.98744 z m -7.85719,-81.56033 h -48.58248 l 34.35636,-103.34942 h 5.22248 z" fill="#ffffff" id="path224" style="stroke-width:0.15125"/>
      </g>
    </g>
    <g id="g1078">
      <path opacity="0.922368" d="m 373.61868,339.19735 h 3.08364 c 0.80595,0 1.6119,-0.0159 2.38677,-0.0311 l 1.51868,-4.15339 c -1.22446,-0.0622 -2.52628,-0.10843 -3.88958,-0.10843 h -3.0843 c -6.81851,0 -12.35108,0.96066 -12.35108,2.15405 0,1.17752 5.5167,2.13884 12.33587,2.13884 z" fill="#ffffff" id="path236" style="stroke-width:0.000523337"/>
      <path opacity="0.922368" d="m 373.61802,327.2952 c -6.81851,0 -12.35107,0.96067 -12.35107,2.15405 0,1.19339 5.53256,2.15405 12.35107,2.15405 h 3.08364 c 1.85983,0 3.62644,-0.0773 5.20727,-0.20099 l 1.37917,-3.76595 c -1.90611,-0.20165 -4.16859,-0.34116 -6.58644,-0.34116" fill="#ffffff" id="path238" style="stroke-width:0.000523337"/>
      <path opacity="0.922368" d="m 328.41471,337.05851 c 0,-0.2638 -0.29421,-0.51174 -0.79008,-0.75967 0.12364,0.43438 0.24794,0.8681 0.35637,1.30182 0.279,-0.17058 0.43371,-0.35636 0.43371,-0.54215 z" fill="#ffffff" id="path240" style="stroke-width:0.000523337"/>
      <path opacity="0.922368" d="m 364.50529,323.18876 h 20.42513 l 4.57124,-12.55207 c -3.62579,0.54215 -5.57885,2.85091 -7.79438,5.06711 -0.88331,-5.84198 -1.65819,-9.59273 -6.29223,-12.90909 -4.63339,3.31636 -5.40827,7.05124 -6.27637,12.90909 -2.54149,-2.54149 -4.74182,-5.1762 -9.48363,-5.1762 -1.10083,0 -3.31637,0.66645 -3.75075,0.88331 0.66645,0.43438 1.76661,0.77487 2.20099,0.99239 3.08364,1.53389 5.84199,6.27571 6.4,10.78546 z" fill="#ffffff" id="path242" style="stroke-width:0.000523337"/>
      <path opacity="0.922368" d="m 324.94496,327.94644 c 0.34116,0.91438 0.66645,1.84463 0.97653,2.78943 1.56496,-0.35637 2.49521,-0.80529 2.49521,-1.28596 0,-0.58909 -1.33289,-1.11603 -3.47174,-1.50347 z" fill="#ffffff" id="path244" style="stroke-width:0.000523337"/>
      <path opacity="0.922368" d="m 191.24777,509.40099 c 0,0.8833 3.06843,1.64297 7.43868,1.96826 l 0.49587,-3.98281 c -4.63339,0.31009 -7.93455,1.08496 -7.93455,2.01455 z" fill="#ffffff" id="path246" style="stroke-width:0.000523337"/>
      <path opacity="0.922368" d="m 375.9281,342.71537 h -8.35305 c -0.40265,3.3005 -2.41719,6.75636 -4.66447,7.8724 -0.32529,0.15471 -1.13124,0.40264 -1.61124,0.72859 0.32529,0.15471 1.92133,0.65058 2.72728,0.65058 3.45586,0 5.0671,-1.92132 6.91173,-3.78116 0.44893,2.99108 0.88331,5.22248 2.26248,7.1286 l 4.58711,-12.59901" fill="#ffffff" id="path248" style="stroke-width:0.000523337"/>
      <path opacity="0.922368" d="m 213.45604,522.66578 h -15.91537 c -0.40331,3.30116 -2.41785,6.75703 -4.66447,7.8724 -0.32595,0.15537 -1.1319,0.4033 -1.6119,0.72859 0.32529,0.15471 1.92133,0.63537 2.72728,0.63537 3.45586,0 5.06776,-1.92132 6.91173,-3.78115 0.65058,4.26182 1.2086,6.98909 4.58711,9.40628 3.37851,-2.41719 3.93653,-5.14446 4.58711,-9.40628 1.84396,1.84396 3.45586,3.78115 6.91173,3.78115 0.80595,0 2.41719,-0.48066 2.72727,-0.63537 -0.48,-0.32529 -1.28595,-0.55801 -1.61124,-0.72859 -2.23206,-1.13124 -4.24661,-4.58711 -4.64925,-7.8724 z" fill="#ffffff" id="path250" style="stroke-width:0.000523337"/>
      <path opacity="0.922368" d="m 264.24017,519.14843 h 3.0995 c 6.81852,0 12.35108,-0.96067 12.35108,-2.15405 0,-1.17752 -5.53256,-2.15405 -12.35108,-2.15405 h -1.10016 c -4.55603,1.11603 -9.32959,1.81355 -14.31934,2.10777 0,0.0152 -0.0152,0.0311 -0.0152,0.0463 0,1.19338 5.5167,2.15405 12.33521,2.15405 z" fill="#ffffff" id="path252" style="stroke-width:0.000523337"/>
      <path opacity="0.922368" d="m 274.11257,522.66578 h -15.91538 c -0.4033,3.30116 -2.41785,6.75703 -4.66446,7.8724 -0.32595,0.15537 -1.13124,0.4033 -1.6119,0.72859 0.32529,0.15471 1.92132,0.63537 2.72727,0.63537 3.45587,0 5.06777,-1.92132 6.91174,-3.78115 0.63537,4.26182 1.20859,6.98909 4.58711,9.40628 3.37851,-2.41719 3.93653,-5.14446 4.5871,-9.40628 1.84397,1.84396 3.45587,3.78115 6.91174,3.78115 0.80595,0 2.41785,-0.48066 2.72727,-0.63537 -0.48,-0.32529 -1.28595,-0.55801 -1.61124,-0.72859 -2.24727,-1.13124 -4.26182,-4.58711 -4.64925,-7.8724 z" fill="#ffffff" id="path254" style="stroke-width:0.000523337"/>
      <path opacity="0.922368" d="m 313.181,306.59173 c 3.8281,4.71141 7.09818,10.25918 9.84066,16.59703 h 2.66578 c 0.55802,-4.52496 3.3005,-9.26678 6.3848,-10.80132 0.44892,-0.21686 1.54975,-0.55736 2.20033,-0.99174 -0.43372,-0.21686 -2.64992,-0.88331 -3.75009,-0.88331 -4.74248,0 -6.94281,2.64992 -9.48429,5.1762 -0.88331,-5.84264 -1.65819,-9.59272 -6.29157,-12.90909 -1.11604,0.79008 -1.99934,1.6119 -2.72794,2.47934 0.40331,0.46546 0.79075,0.88331 1.16232,1.33289 z" fill="#ffffff" id="path256" style="stroke-width:0.000523337"/>
      <path opacity="0.922368" d="m 199.74364,503.13983 2.13818,-16.81388 c -1.6271,2.51041 -2.16925,5.45454 -2.75834,9.32892 -2.54149,-2.54149 -4.74182,-5.1762 -9.4843,-5.1762 -1.10017,0 -3.3005,0.66645 -3.75008,0.88331 0.66644,0.43438 1.76661,0.77488 2.20033,0.99174 3.08429,1.54975 5.84264,6.29223 6.38479,10.80198" fill="#ffffff" id="path258" style="stroke-width:0.000523337"/>
      <path opacity="0.922368" d="m 203.59885,519.14843 h 3.0843 c 6.60165,0 11.97884,-0.89852 12.30479,-2.02976 h -21.02942 l 0.26314,-2.04562 c -4.12232,0.35637 -6.97389,1.08496 -6.97389,1.93719 0,1.17752 5.53257,2.13819 12.35108,2.13819 z" fill="#ffffff" id="path260" style="stroke-width:0.000523337"/>
    </g>
  </g>
</svg>