<svg xmlns:dc="http://purl.org/dc/elements/1.1/" xmlns:cc="http://creativecommons.org/ns#" xmlns:rdf="http://www.w3.org/1999/02/22-rdf-syntax-ns#" xmlns:svg="http://www.w3.org/2000/svg" xmlns="http://www.w3.org/2000/svg" xmlns:sodipodi="http://sodipodi.sourceforge.net/DTD/sodipodi-0.dtd" xmlns:inkscape="http://www.inkscape.org/namespaces/inkscape" width="67.265724mm" height="104.24583mm" viewBox="0 0 254.23266 394" version="1.1" id="svg114314" inkscape:version="1.0.1 (3bc2e813f5, 2020-09-07)" sodipodi:docname="drawing.svg">
  <defs id="defs114308"/>
  <sodipodi:namedview id="base" pagecolor="#ffffff" bordercolor="#666666" borderopacity="1.0" inkscape:pageopacity="0.0" inkscape:pageshadow="2" inkscape:zoom="0.35" inkscape:cx="150.68776" inkscape:cy="188.42857" inkscape:document-units="px" inkscape:current-layer="layer1" inkscape:document-rotation="0" showgrid="false" inkscape:window-width="1267" inkscape:window-height="728" inkscape:window-x="83" inkscape:window-y="0" inkscape:window-maximized="0"/>
  <metadata id="metadata114311">
    <rdf:RDF>
      <cc:Work rdf:about="">
        <dc:format>image/svg+xml</dc:format>
        <dc:type rdf:resource="http://purl.org/dc/dcmitype/StillImage"/>
        <dc:title/>
      </cc:Work>
    </rdf:RDF>
  </metadata>
  <g inkscape:label="Layer 1" inkscape:groupmode="layer" id="layer1" transform="translate(-224.31224,-331.57143)">
    <path style="clip-rule:nonzero;fill:#02306b;fill-opacity:1;fill-rule:nonzero;stroke:none;stroke-width:13.1642" d="m 405.67984,385.8737 c 0,29.97932 -24.32295,54.25078 -54.25094,54.25078 -29.97932,0 -54.30227,-24.27146 -54.30227,-54.25078 0,-29.97933 24.32295,-54.30227 54.30227,-54.30227 29.92799,0 54.25094,24.32294 54.25094,54.30227" id="path83848"/>
    <path style="fill:#e19700;fill-opacity:1;fill-rule:nonzero;stroke:none;stroke-width:13.1642" d="m 396.98936,385.8737 c 0,25.1457 -20.41475,45.56045 -45.61179,45.56045 -25.14571,0 -45.56047,-20.41475 -45.56047,-45.56045 0,-25.19704 20.41476,-45.6118 45.56047,-45.6118 25.19704,0 45.61179,20.41476 45.61179,45.6118" id="path83852"/>
    <path style="fill:#02306b;fill-opacity:1;fill-rule:nonzero;stroke:none;stroke-width:13.1642" d="m 396.88654,390.60465 -0.20536,0.41072 c -0.15401,0.35938 -4.628,9.82166 -28.17952,10.33586 0.0527,-4.3709 0.51472,-8.3819 1.38843,-11.57001 0.97679,-3.54827 2.8282,-7.91917 6.37635,-8.33056 0.10533,0 0.20536,-0.0527 0.25669,-0.0527 l 0.15403,-0.0527 c 2.57109,-0.15403 4.88509,-0.82276 6.73637,-2.00544 9.61604,-4.47384 13.57557,-14.03841 13.98695,-15.11827 l 0.15402,-0.41073 -3.39386,-1.33695 -0.41072,-0.15402 -0.20536,0.46338 c -0.20536,0.51472 -5.29648,12.70147 -17.32947,14.4498 -4.78228,0.2567 -9.41028,-1.79981 -9.46176,-1.85114 -5.81067,-2.4683 -13.67837,-2.62258 -14.96385,-2.62258 h -0.20536 c -1.07947,0 -9.10186,0.10534 -15.06682,2.67391 -0.0527,0 -4.31956,1.95409 -8.84474,1.95409 -0.72008,0 -1.3883,-0.0527 -2.00544,-0.15402 -11.36438,-2.82819 -15.63247,-14.08976 -15.8381,-14.5526 l -0.15401,-0.46339 -3.85672,1.38829 0.15402,0.46339 c 0.15402,0.41072 3.80524,10.74737 14.19258,15.581 1.28613,0.72008 2.77685,1.28613 4.42237,1.59417 0.0527,0 0.10534,0 0.20536,0 6.5821,1.64552 9.05038,8.27896 9.97608,13.57557 0.35939,2.05691 0.51472,4.31943 0.51472,6.68491 -25.24851,-0.15402 -29.05375,-10.74736 -29.10523,-10.85018 l -0.15401,-0.46338 -1.95396,0.6174 -2.00557,0.56606 0.15402,0.46338 c 0.15403,0.56606 4.42238,13.57557 32.91047,13.78119 -0.72008,9.9246 -4.011,18.5636 -6.58209,20.26047 l -0.41072,0.25671 2.26265,3.44532 0.41072,-0.2567 c 5.50211,-3.59961 10.38734,-21.34033 8.02187,-35.22446 -0.97679,-5.75933 -3.08529,-10.13024 -6.27352,-13.11272 3.29104,-0.66873 5.65652,-1.7998 5.65652,-1.7998 3.85657,-1.64552 9.10171,-2.10837 11.62147,-2.21119 0.41072,5.45076 1.49124,23.65432 -0.46338,54.81645 l -0.0527,0.51472 4.11381,-0.30804 0.0527,-0.41072 c 1.85128,-30.18507 1.02812,-47.92593 0.51472,-54.61083 2.82833,0.15402 7.55914,0.66874 11.05594,2.15972 0.0527,0 1.90262,0.8741 4.73082,1.5427 -1.64552,1.9541 -2.98248,4.628 -3.90806,8.02187 -3.39385,12.59865 -0.77142,35.01884 6.5821,40.67536 l 0.41072,0.25669 2.46828,-3.23957 -0.35938,-0.30804 c -3.1881,-2.46828 -5.75933,-10.90166 -6.37633,-20.62051 26.99684,-0.6174 31.72779,-12.49572 31.93341,-13.0099 l 0.20536,-0.41072 z m 0,0" id="path83854"/>
    <path style="fill:#ffffff;fill-opacity:1;fill-rule:nonzero;stroke:none;stroke-width:13.1642" d="m 351.4289,715.69827 121.82019,-243.02323 -36.7157,-45.25188 c -24.73431,24.73432 -85.10449,24.73432 -85.10449,24.73432 0,0 -60.37016,0 -85.10434,-24.73432 l -36.76719,45.25188 z m 0,0" id="path83856"/>
    <path style="fill:#02306b;fill-opacity:1;fill-rule:nonzero;stroke:none;stroke-width:13.1642" d="m 436.8933,420.84107 -3.49681,3.44532 c -23.14013,23.19161 -81.40192,23.4487 -81.96759,23.4487 -0.56605,0 -58.77599,-0.25669 -81.96758,-23.4487 l -3.49682,-3.44532 -41.65226,51.21697 127.11666,253.51338 126.70529,-252.79357 0.41072,-0.72008 z M 351.4289,705.77366 234.80252,473.18924 266.83874,433.85096 c 27.30541,22.47167 82.2247,22.72876 84.59016,22.72876 2.36548,0 57.28475,-0.25671 84.59016,-22.72876 l 31.98489,39.33828 z m 0,0" id="path83858"/>
    <path style="fill:#85073a;fill-opacity:1;fill-rule:nonzero;stroke:none;stroke-width:13.1642" d="m 358.16528,496.63795 -18.35786,-18.30639 -18.66641,18.66643 -18.66643,-18.66643 -18.35784,18.30639 18.66641,18.71788 -18.66641,18.66642 18.35784,18.35785 18.66643,-18.66642 18.66641,18.66642 18.35786,-18.35785 -18.66642,-18.66642 z m 0,0" id="path83860"/>
    <path style="fill:#0070b8;fill-opacity:1;fill-rule:nonzero;stroke:none;stroke-width:13.1642" d="m 325.46057,654.0425 25.96833,51.78264 116.62652,-232.53297 -31.98488,-39.44121 z m 0,0" id="path83862"/>
    <path style="fill:#ffffff;fill-opacity:1;fill-rule:nonzero;stroke:none;stroke-width:13.1642" d="m 363.8218,624.47456 c 2.72538,-3.44534 5.75933,-7.25058 11.21009,-4.16528 4.06235,2.31413 4.16528,7.25069 2.15972,11.21022 -1.64552,3.34239 -5.03939,6.01643 -8.99891,5.75934 l 0.10534,-2.98262 c 2.62256,0.20536 5.09085,-1.79968 6.27352,-4.16514 1.33708,-2.67404 1.38842,-5.86215 -1.02812,-7.25058 -3.13676,-1.90261 -5.24515,0.72008 -7.45634,3.49667 -2.62256,3.23971 -5.65638,6.37647 -10.23304,4.16528 -3.85672,-2.26265 -4.11381,-7.09628 -2.15972,-10.90165 1.64552,-3.29104 4.93658,-5.96496 8.79328,-5.70786 l -0.10533,2.93114 c -2.57111,-0.15403 -4.93657,1.74833 -6.11924,4.06233 -1.28615,2.57109 -1.33696,5.65652 0.97677,7.04495 2.67391,1.54257 4.57654,-0.87411 6.5821,-3.4968" id="path83864"/>
    <path style="fill:#ffffff;fill-opacity:1;fill-rule:nonzero;stroke:none;stroke-width:13.1642" d="m 383.61942,617.84098 -22.7801,-11.46718 3.80524,-7.50767 c 2.10825,-4.21661 6.22205,-7.40485 11.05581,-4.98804 l 9.10185,4.57667 c 4.78228,2.41681 4.67947,7.61048 2.5711,11.82722 z m 1.07946,-8.89609 c 1.43977,-2.931 1.74834,-6.37633 -1.23348,-7.86757 l -9.10186,-4.57666 c -2.98246,-1.49124 -5.5537,0.82276 -7.04494,3.7539 l -2.46828,4.8851 17.38093,8.7418 z m 0,0" id="path83866"/>
    <path style="fill:#ffffff;fill-opacity:1;fill-rule:nonzero;stroke:none;stroke-width:13.1642" d="m 384.13374,571.50925 -5.24513,10.38745 4.47371,2.26254 4.78229,-9.56458 4.57665,2.314 -4.73081,9.56458 4.47372,2.26266 5.19367,-10.38746 4.628,2.31413 -7.55914,15.01533 -22.78009,-11.4672 7.50767,-15.01546 z m 0,0" id="path83868"/>
    <path style="fill:#ffffff;fill-opacity:1;fill-rule:nonzero;stroke:none;stroke-width:13.1642" d="m 382.07684,564.10438 2.314,-4.628 22.78022,11.4672 -2.314,4.57666 z m 0,0" id="path83870"/>
    <path style="fill:#ffffff;fill-opacity:1;fill-rule:nonzero;stroke:none;stroke-width:13.1642" d="m 404.8056,545.33516 c 2.77685,-2.05691 5.70785,-1.23348 7.8677,0.20536 2.8282,1.95396 4.47372,5.50224 1.90263,10.59296 l -4.47385,8.94756 -22.78023,-11.46719 4.37103,-8.79328 c 1.95396,-3.80524 5.81068,-5.75933 10.18158,-3.54815 1.28614,0.6174 2.82832,2.15972 2.93114,4.06234 m -4.16528,4.011 c 1.59418,-3.13676 -2.51963,-5.70786 -4.31943,-2.15972 l -2.05691,4.16514 4.2681,2.15986 z m 1.95409,6.1707 5.19367,2.62258 2.10837,-4.16528 c 2.15972,-4.31943 -2.98248,-6.99347 -5.19367,-2.62258 z m 0,0" id="path83872"/>
    <path style="fill:#ffffff;fill-opacity:1;fill-rule:nonzero;stroke:none;stroke-width:13.1642" d="m 400.07465,528.26292 2.21119,-4.42237 26.73975,3.49666 -2.41681,4.83376 -6.17072,-0.72008 -3.29104,6.63356 c 1.54271,1.64553 2.5711,2.72539 4.2681,4.47372 l -2.4683,4.88523 z m 6.06791,0.46207 2.93113,2.314 4.31943,3.70242 2.10838,-4.26796 -5.65652,-1.07946 -3.54814,-0.97679 z m 0,0" id="path83874"/>
    <path style="fill:#ffffff;fill-opacity:1;fill-rule:nonzero;stroke:none;stroke-width:13.1642" d="m 439.67015,506.20264 -2.87966,5.65639 -11.46732,2.10837 -0.82278,1.64553 8.33056,4.16528 -2.31412,4.67934 -22.7801,-11.46719 4.37091,-8.69047 c 2.26253,-4.47372 6.01642,-6.78772 11.26157,-4.31944 4.16514,2.10839 5.29646,4.98806 4.31942,8.48472 z m -17.43227,3.13676 c 1.02812,-2.00556 0.87409,-3.70243 -1.1308,-4.73093 -1.9541,-0.97679 -3.29106,0.0527 -4.21663,2.05689 l -2.05691,4.11381 5.34796,2.67404 z m 0,0" id="path83876"/>
  </g>
</svg>