<svg xmlns="http://www.w3.org/2000/svg" xmlns:xlink="http://www.w3.org/1999/xlink" width="316" height="316" version="1.1" viewBox="0 0 237 237">
 <defs/>
 <g transform="translate(-250.87 -56.126)" fill="#6f6f6e">
  <use x="292.63" y="747.28949" xlink:href="#glyph-2-9"/>
  <use x="292.63071" y="757.29248" xlink:href="#glyph-2-9"/>
  <use x="292.63" y="757.29248" xlink:href="#glyph-2-9"/>
  <use x="292.6272" y="767.29547" xlink:href="#glyph-2-9"/>
  <use x="292.63" y="767.29547" xlink:href="#glyph-2-9"/>
  <use x="292.48651" y="777.29852" xlink:href="#glyph-2-9"/>
  <use x="292.48651" y="777.29852" xlink:href="#glyph-2-9"/>
  <use x="292.63" y="777.29852" xlink:href="#glyph-2-9"/>
 </g>
 <g transform="translate(-250.87 -56.126)" fill="#fff">
  <use x="436.0896" y="172.9761" xlink:href="#glyph-7-2"/>
  <use x="318.39761" y="185.9761" xlink:href="#glyph-7-2"/>
  <use x="470.68759" y="249.2961" xlink:href="#glyph-7-2"/>
  <use x="318.39761" y="262.29611" xlink:href="#glyph-7-2"/>
 </g>
 <g transform="matrix(1.0208 0 0 1.0208 -2.1627 -1.8557)" stroke-width="7.6029">
  <path d="m232.36 104.02c7.7217 62.932-37.034 120.19-99.936 127.94-62.961 7.7217-120.22-37.034-127.94-99.966-7.7514-62.932 37.005-120.22 99.936-127.94 62.932-7.7217 120.22 37.034 127.94 99.966" fill="#5a2d88"/>
  <g fill="#fff">
   <path d="m203.11 62.678-180.24 22.126c-4.7815 13.958-6.5338 29.164-4.633 44.786 2.1383 17.225 8.4641 32.906 17.879 46.093l176.14-21.621c5.9101-15.087 8.286-31.807 6.1774-49.062-1.9304-15.592-7.3356-29.936-15.325-42.321"/>
   <path d="m131.38 225.96h-0.1186c-0.89099-0.0891-1.5444-0.89096-1.4553-1.7819 0.089-0.89096 0.86125-1.5443 1.7522-1.4552h0.11861c3.1183 0.26732 6.2961 0.4158 9.4145 0.4158 0.89091 0 1.6334 0.7425 1.6334 1.6334 0 0.89096-0.7428 1.6037-1.6334 1.6037-3.2075 0-6.4744-0.14848-9.7116-0.4158m-6.5634 2.6135c-0.0304-0.0297-0.0608-0.0297-0.11861-0.0297-3.2372-0.47519-6.4744-1.0989-9.6521-1.871-0.86134-0.20786-1.3959-1.0692-1.188-1.9601 0.20756-0.86127 1.0988-1.3958 1.9304-1.188 3.0887 0.7425 6.2367 1.3661 9.3849 1.8116 0.8909 0.14849 1.5146 0.98006 1.3661 1.8413-0.1186 0.86127-0.8909 1.4552-1.7225 1.3958m22.155-5.7319c-0.8018-0.0593-1.4256-0.71278-1.4849-1.5146-0.0304-0.89096 0.62343-1.6631 1.5444-1.7225 3.148-0.17821 6.3555-0.53456 9.4739-1.0098 0.89098-0.11884 1.7225 0.47518 1.8413 1.3661 0.14826 0.89096-0.47518 1.7225-1.3364 1.8413-3.2372 0.5049-6.5338 0.83156-9.8007 1.0395h-0.23721m-38.49 5.4943c-0.089 0-0.20755-0.0297-0.32692-0.0593-3.1184-0.98007-6.2368-2.0789-9.266-3.2966-0.8316-0.35635-1.2177-1.277-0.89098-2.1086 0.32692-0.83156 1.2771-1.2473 2.1086-0.89096 2.9402 1.188 5.9695 2.2571 8.9988 3.2075 0.86126 0.23759 1.3364 1.1582 1.0691 2.0195-0.20756 0.7425-0.92063 1.188-1.6929 1.1286m53.547-10.899c-0.68274-0.0593-1.2771-0.56428-1.4255-1.277-0.20756-0.89097 0.35658-1.7522 1.2474-1.9304 3.0887-0.65339 6.207-1.4849 9.2363-2.4056 0.86126-0.26732 1.7522 0.20786 2.0195 1.0395 0.26763 0.86126-0.20755 1.7819-1.0691 2.0492-3.1184 0.95036-6.3258 1.7819-9.5334 2.4947-0.14825 0.0297-0.32692 0.0297-0.47518 0.0297m-69.614 8.2266c-0.20756 0-0.38623-0.0593-0.56413-0.14849-2.9401-1.3958-5.8803-2.9699-8.672-4.633-0.77215-0.47518-1.0097-1.4552-0.56414-2.2274 0.47518-0.77217 1.4553-1.0395 2.2274-0.56429 2.7026 1.6334 5.5537 3.1481 8.4048 4.5142 0.80188 0.38607 1.1582 1.3364 0.77215 2.168-0.29727 0.62366-0.95036 0.95036-1.6038 0.89097m83.72-15.859c-0.62344-0.0593-1.1582-0.44545-1.3958-1.0395-0.29727-0.83157 0.11861-1.7819 0.95036-2.0789 2.9698-1.1286 5.91-2.4056 8.7908-3.7718 0.80188-0.38608 1.7522-0.0593 2.1383 0.7425 0.41588 0.80187 0.0608 1.7819-0.7428 2.168-2.9402 1.4256-5.9991 2.7323-9.0581 3.8608-0.20832 0.11884-0.47518 0.14849-0.6835 0.11884m-99.224 10.84c-0.26762-0.0297-0.53448-0.11884-0.77215-0.29697-2.7026-1.8413-5.3458-3.8014-7.8702-5.8804-0.71239-0.56428-0.80188-1.6037-0.23721-2.2868 0.56413-0.68305 1.6038-0.77217 2.2868-0.23759 2.4354 2.0195 5.0191 3.9499 7.6326 5.7319 0.7428 0.50491 0.95036 1.5146 0.44553 2.2571-0.35658 0.50491-0.92064 0.7425-1.4849 0.71277m111.99-20.492c-0.50483-0.0297-1.0097-0.32669-1.2771-0.80186-0.41587-0.80187-0.14825-1.7819 0.62344-2.1977 2.762-1.574 5.4943-3.2669 8.1374-5.0488 0.71239-0.50491 1.7226-0.3267 2.2274 0.4158s0.32693 1.7522-0.41588 2.2571c-2.7026 1.8413-5.524 3.5936-8.3751 5.1973-0.29728 0.14849-0.59379 0.20787-0.92064 0.17822m-126.58 13.186c-0.35658-0.0297-0.68274-0.17821-0.95036-0.44545-2.4056-2.1977-4.7221-4.5736-6.9198-6.9792-0.59379-0.68305-0.56414-1.6928 0.1186-2.2868 0.65309-0.59401 1.6631-0.56428 2.2868 0.11884 2.1087 2.3462 4.3657 4.633 6.7119 6.801 0.65309 0.59401 0.6835 1.6037 0.08895 2.2571-0.35658 0.38607-0.86126 0.56428-1.3364 0.53456m137.77-24.62c-0.41587-0.0297-0.8316-0.23759-1.1286-0.62367-0.53448-0.68304-0.41588-1.6928 0.29727-2.2571 2.4947-1.9304 4.9597-4.039 7.2762-6.207 0.65309-0.59402 1.6929-0.56429 2.2868 0.0891 0.62343 0.65339 0.56413 1.6928-0.089 2.2868-2.3759 2.2274-4.9003 4.3954-7.4841 6.3852-0.35657 0.26732-0.7428 0.35635-1.1582 0.3267m-151.11 15.235c-0.41588-0.0593-0.8316-0.23759-1.1286-0.62367-2.0492-2.5244-3.9797-5.1973-5.7913-7.9296-0.50483-0.7425-0.29727-1.7522 0.44553-2.2571 0.7428-0.47518 1.7522-0.29697 2.2274 0.47518 1.782 2.6432 3.6827 5.227 5.6428 7.7217 0.56414 0.68304 0.44553 1.6928-0.23721 2.2571-0.35658 0.26732-0.7428 0.38607-1.1582 0.35635m160.52-28.184c-0.35657-0.0297-0.71239-0.17821-0.98008-0.44545-0.65309-0.62367-0.68274-1.6334-0.0608-2.2868 2.1977-2.2868 4.3063-4.7221 6.2961-7.2168 0.53448-0.68304 1.574-0.80187 2.2572-0.23759 0.71239 0.56429 0.80187 1.574 0.26686 2.2571-2.0492 2.5541-4.2172 5.0488-6.4743 7.4247-0.35658 0.38607-0.83153 0.53455-1.3067 0.5049m-172.31 16.928c-0.50483-0.0593-0.98001-0.3267-1.277-0.80187-1.6335-2.8214-3.1778-5.7616-4.5439-8.7314-0.38623-0.80187-0.03041-1.7819 0.77215-2.1383 0.80188-0.38608 1.782-0.0297 2.1383 0.77216 1.3662 2.8808 2.8511 5.7319 4.4251 8.4642 0.44553 0.77217 0.20756 1.7522-0.56414 2.1977-0.29727 0.17821-0.65309 0.26732-0.95036 0.23759m179.65-31.154c-0.26762-0.0297-0.53448-0.11883-0.77215-0.29696-0.7428-0.50491-0.92071-1.5146-0.38623-2.2274 1.8116-2.6135 3.5341-5.3161 5.1379-8.0484 0.44553-0.80187 1.4255-1.0395 2.1977-0.59402 0.77215 0.4158 1.0395 1.4255 0.59379 2.1977-1.6335 2.8214-3.4154 5.6131-5.2864 8.286-0.35657 0.50491-0.92063 0.7425-1.4849 0.68305m-189.66 18.235c-0.59379-0.0297-1.1286-0.41581-1.3662-1.0098-1.188-3.0293-2.2868-6.1774-3.2074-9.2957-0.23721-0.86127 0.23721-1.7522 1.0988-2.0195 0.86126-0.26732 1.7522 0.23759 2.0195 1.0989 0.89098 3.0293 1.9304 6.0882 3.0887 9.0284 0.32692 0.83157-0.06082 1.7819-0.89098 2.1086-0.23721 0.0891-0.50483 0.11883-0.7428 0.0891m194.82-33.352c-0.20832-0.0297-0.38623-0.0891-0.59378-0.17821-0.80188-0.38608-1.1285-1.3661-0.7124-2.168 1.4256-2.8511 2.7323-5.7913 3.8906-8.7314 0.29727-0.83157 1.2473-1.2474 2.0789-0.92066 0.83153 0.32669 1.2473 1.277 0.92064 2.0789-1.188 3.059-2.554 6.0882-4.0093 9.0284-0.29728 0.59402-0.92064 0.92067-1.574 0.89097m-202.78 19.126c-0.68274-0.0593-1.2771-0.56429-1.4255-1.2474-0.7428-3.2075-1.3364-6.4446-1.7819-9.7115-0.1186-0.86127 0.50483-1.6928 1.3958-1.8116 0.89098-0.11883 1.6929 0.50491 1.8116 1.3958 0.41588 3.1481 1.0098 6.2961 1.7226 9.3848 0.20756 0.86126-0.35658 1.7522-1.2177 1.9304-0.17791 0.0593-0.35658 0.0593-0.50483 0.0593m205.6-34.896c-0.1186 0-0.23721-0.0297-0.35657-0.0593-0.83161-0.29697-1.3068-1.188-1.0395-2.0492 0.98001-2.9996 1.8413-6.118 2.5244-9.2066 0.20756-0.89097 1.0691-1.4255 1.9304-1.2177 0.86125 0.17821 1.4255 1.0692 1.2176 1.9304-0.71239 3.1778-1.574 6.3852-2.5838 9.4739-0.23721 0.7425-0.95036 1.188-1.6929 1.1286m-211.34 19.601c-0.77222-0.0593-1.3959-0.68305-1.4553-1.485-0.26762-3.2372-0.35658-6.5634-0.29727-9.8303 0-0.89097 0.7428-1.6037 1.6334-1.6037 0.89098 0.0297 1.6038 0.7425 1.574 1.6334-0.03041 3.2075 0.06082 6.4149 0.29727 9.563 0.06082 0.89097-0.59379 1.6631-1.485 1.7225-0.08895 0.0297-0.17791 0.0297-0.26762 0m211.78-35.609h-0.11861c-0.89098-0.14849-1.4849-0.98006-1.3364-1.871 0.44553-2.6432 0.77215-5.3755 1.0097-8.0781 0.0304-0.47518 0.0889-0.95037 0.1186-1.3958 0.0608-0.89097 0.83153-1.574 1.7225-1.5146 0 0 0.0304 0 0.0304 0.0297 0.89091 0.0593 1.5443 0.83157 1.4552 1.7225-0.0304 0.47518-0.0608 0.95036-0.089 1.4552-0.26686 2.762-0.59378 5.5537-1.0691 8.3157-0.11861 0.83156-0.89099 1.4255-1.7225 1.3364m-215.17 19.661c-0.86126-0.0593-1.5146-0.83157-1.4552-1.7225 0.030411-0.53456 0.060823-1.0395 0.11861-1.574 0.23721-2.7323 0.59379-5.4943 1.0395-8.1969 0.11861-0.89097 0.95036-1.4849 1.8413-1.3364 0.89098 0.14848 1.4849 0.98006 1.3364 1.871-0.44553 2.6135-0.77215 5.2864-0.98009 7.9593-0.06082 0.50491-0.11861 1.0098-0.14826 1.5146-0.06082 0.89097-0.83153 1.574-1.7225 1.485h-0.03041m213.24-35.549c-0.86126-0.0593-1.4849-0.77216-1.4849-1.6334 0.0608-3.1778-0.0608-6.3852-0.26762-9.5333-0.089-0.89096 0.59379-1.6631 1.4849-1.7522 0.89099-0.0593 1.6631 0.59401 1.7226 1.4849 0.23721 3.2669 0.35658 6.5931 0.29727 9.86-0.0304 0.89097-0.7428 1.6037-1.6335 1.574h-0.1186m-214.22 19.275c-0.088954 0-0.14826 0-0.20756-0.0297-0.89091-0.17822-1.4255-1.0395-1.2473-1.9304 0.71239-3.1778 1.6038-6.3852 2.5838-9.5036 0.29727-0.83157 1.2176-1.3068 2.0492-1.0395 0.86126 0.26732 1.3067 1.188 1.0395 2.0492-0.95036 3.0293-1.8117 6.118-2.4947 9.2066-0.20756 0.80187-0.92063 1.3364-1.7225 1.2474m209.94-34.688c-0.7428-0.0593-1.3364-0.65339-1.4553-1.3958-0.41588-3.1481-0.98001-6.2961-1.6928-9.4145-0.20832-0.86127 0.32692-1.7225 1.2176-1.9304 0.86126-0.20786 1.7226 0.35635 1.9304 1.2177 0.71239 3.1778 1.3067 6.4446 1.7522 9.6818 0.1186 0.89097-0.50483 1.6928-1.3959 1.8116-0.11861 0.02965-0.23721 0.02965-0.35658 0.02965m-208.52 18.443c-0.14826 0-0.29727-0.0297-0.44553-0.0891-0.83153-0.3267-1.2473-1.277-0.92063-2.1086 1.188-3.0293 2.5244-6.0586 3.9797-8.9987 0.41588-0.80187 1.3662-1.1286 2.168-0.71277 0.80188 0.38608 1.1286 1.3661 0.7428 2.168-1.4255 2.8214-2.7323 5.7616-3.8608 8.7314-0.26762 0.68305-0.95036 1.0692-1.6631 1.0098m202.01-33.084c-0.65309-0.0593-1.2473-0.47518-1.4255-1.1582-0.89098-3.0293-1.9304-6.0883-3.0887-9.0284-0.35657-0.83157 0.0608-1.7522 0.89099-2.1086 0.83152-0.3267 1.7819 0.08911 2.1086 0.92066 1.188 3.059 2.2572 6.1774 3.1778 9.3254 0.26763 0.86126-0.23721 1.7522-1.0691 1.9898-0.20831 0.0593-0.41587 0.0891-0.59378 0.0593m-198.15 17.255c-0.23721 0-0.44553-0.08911-0.68274-0.20786-0.77223-0.44545-1.0395-1.4255-0.59379-2.1977 1.6335-2.8511 3.4154-5.6428 5.2864-8.3157 0.53448-0.71277 1.5444-0.89096 2.2571-0.38608 0.7428 0.50491 0.92063 1.5146 0.41588 2.2571-1.8413 2.5838-3.5639 5.3161-5.1379 8.0484-0.32692 0.56429-0.95036 0.86126-1.5444 0.80187m189.48-30.709c-0.53449-0.0593-1.0692-0.38608-1.3068-0.95036-1.3364-2.8808-2.8511-5.7319-4.4251-8.4642-0.44553-0.77217-0.17791-1.7522 0.59379-2.2274 0.77222-0.44545 1.7522-0.17821 2.1978 0.59401 1.6334 2.8511 3.1778 5.7616 4.5736 8.7314 0.35658 0.80186 0 1.7819-0.80188 2.1383-0.26762 0.14848-0.56413 0.17821-0.83153 0.17821m-183.3 15.622c-0.29727-0.02965-0.59379-0.11883-0.86126-0.3267-0.71239-0.56429-0.80188-1.574-0.26762-2.2868 2.0492-2.5541 4.2172-5.0488 6.4744-7.4247 0.62344-0.65339 1.6334-0.65339 2.2868-0.0593 0.65309 0.62367 0.65309 1.6334 0.06082 2.2868-2.1977 2.3165-4.3064 4.7221-6.2962 7.2168-0.32692 0.44545-0.89091 0.65339-1.3958 0.59401m172.76-27.679c-0.47518-0.02965-0.95036-0.29697-1.2177-0.71277-1.7522-2.6432-3.653-5.2567-5.6131-7.7217-0.56414-0.71277-0.47518-1.7225 0.23721-2.2868 0.71239-0.53456 1.7225-0.44545 2.2868 0.26732 2.0196 2.5541 3.9797 5.227 5.7913 7.9593 0.47518 0.7425 0.29728 1.7522-0.47518 2.2274-0.29727 0.23759-0.68274 0.29697-1.0097 0.26732m-164.41 13.691c-0.35658-0.02965-0.7428-0.20786-1.0395-0.50491-0.59378-0.65339-0.56413-1.6928 0.08895-2.2868 2.4056-2.2274 4.9299-4.3954 7.5138-6.3852 0.68274-0.56429 1.6928-0.4158 2.2571 0.26732 0.53448 0.71277 0.41588 1.7225-0.29727 2.2868-2.4947 1.9304-4.9597 4.039-7.2762 6.207-0.32692 0.3267-0.80188 0.44545-1.2473 0.4158m152.18-24.026c-0.38622-0.02965-0.77215-0.20786-1.0691-0.53456-2.1383-2.3462-4.3657-4.633-6.712-6.801-0.65309-0.59401-0.68274-1.6334-0.089-2.2868 0.62344-0.65339 1.6334-0.68304 2.2868-0.0593 2.4056 2.2274 4.7221 4.5736 6.9198 7.0089 0.59378 0.65339 0.53448 1.6631-0.11861 2.2868-0.35658 0.29697-0.80188 0.4158-1.2177 0.38608m-141.81 11.404c-0.47518-0.02965-0.92071-0.26732-1.188-0.68304-0.50483-0.7425-0.32692-1.7522 0.41588-2.2571 2.7025-1.8413 5.4942-3.5936 8.3453-5.1973 0.77215-0.44545 1.782-0.14848 2.1977 0.62366 0.44553 0.77217 0.17791 1.7522-0.59379 2.1977-2.7917 1.5443-5.524 3.2669-8.1375 5.0488-0.32692 0.20786-0.68274 0.29697-1.0395 0.26732m128.18-19.809c-0.29727-0.02965-0.62344-0.14848-0.89091-0.35635-2.4354-2.0195-5.0191-3.9499-7.6326-5.7319-0.7428-0.50491-0.92063-1.5146-0.41587-2.2571 0.50483-0.71277 1.5146-0.92066 2.2274-0.4158 2.7026 1.8413 5.3458 3.8311 7.8702 5.9101 0.71239 0.56429 0.80187 1.6037 0.23721 2.2868-0.35658 0.4158-0.89099 0.62367-1.3959 0.56429m-116.09 8.8799c-0.53448-0.0593-1.0395-0.38608-1.3067-0.89097-0.38623-0.83157-0.06082-1.7819 0.74204-2.168 2.9402-1.4255 5.9992-2.762 9.0582-3.8905 0.83153-0.3267 1.7522 0.08911 2.0789 0.92066 0.32692 0.83157-0.1186 1.7819-0.95036 2.0789-2.9699 1.1286-5.9101 2.4056-8.7612 3.8014-0.26686 0.11883-0.56413 0.17821-0.86126 0.14848m101.39-15.146c-0.23721-0.02965-0.47518-0.11883-0.68274-0.23759-2.7323-1.6334-5.5834-3.1481-8.4345-4.5142-0.80187-0.38608-1.1286-1.3661-0.7428-2.168 0.38623-0.80187 1.3365-1.1286 2.168-0.7425 2.9402 1.3958 5.8506 2.9699 8.6424 4.6627 0.77215 0.44545 1.0395 1.4552 0.56413 2.1977-0.32692 0.56429-0.92071 0.83157-1.5146 0.80187m-87.79 6.118c-0.62344-0.02965-1.188-0.47518-1.3958-1.0989-0.26762-0.86126 0.20756-1.7819 1.0692-2.0492 3.1183-0.98006 6.3258-1.8116 9.5333-2.4947 0.86126-0.17821 1.7225 0.35635 1.9007 1.2474 0.20832 0.86126-0.35658 1.7225-1.2176 1.9007-3.1184 0.68304-6.2071 1.4849-9.266 2.4353-0.20832 0.0593-0.41588 0.08911-0.62344 0.0593m72.287-10.127c-0.14826-0.02965-0.29728-0.0593-0.47518-0.11883-2.9402-1.2176-5.9398-2.2868-8.9988-3.2075-0.83152-0.26732-1.3067-1.188-1.0691-2.0492 0.26687-0.83157 1.188-1.3067 2.0195-1.0692 3.1481 0.98006 6.2665 2.0789 9.2958 3.3263 0.80187 0.3267 1.2177 1.277 0.86125 2.1086-0.26762 0.68304-0.95036 1.0692-1.6334 1.0098m-57.467 3.2669c-0.74204-0.0593-1.3661-0.59401-1.4552-1.3661-0.14826-0.89096 0.47518-1.6928 1.3364-1.8413 3.2372-0.47518 6.5337-0.83157 9.8006-1.0395 0.89098-0.0593 1.6631 0.62367 1.7225 1.5146 0.03041 0.89096-0.62344 1.6631-1.5443 1.7225-3.1481 0.17821-6.3556 0.53456-9.474 1.0098-0.14826 0.02965-0.26686 0.02965-0.38623 0m41.549-4.93c-0.0608 0-0.14826 0-0.23721-0.02965-3.0887-0.7425-6.2368-1.3661-9.3849-1.8413-0.86125-0.11883-1.4849-0.95036-1.3364-1.8413 0.1186-0.89096 0.92063-1.4849 1.8116-1.3364 3.2669 0.47518 6.504 1.0989 9.6818 1.871 0.86125 0.20786 1.3958 1.0692 1.188 1.9601-0.20756 0.77217-0.92063 1.3067-1.7225 1.2176m-25.897 0.3267c-0.8316-0.0593-1.485-0.7425-1.485-1.6037 0-0.89097 0.71239-1.6037 1.6038-1.6037 3.2669 0 6.5634 0.11883 9.86 0.4158l0.20756 0.02965c0.89099 0.0593 1.5444 0.86126 1.4849 1.7522-0.0889 0.89096-0.86125 1.5443-1.7522 1.4552l-0.23721-0.02965c-3.1777-0.26732-6.3852-0.38608-9.5333-0.38608-0.06082 0-0.1186 0-0.14826-0.02965"/>
   <path d="m81.371 38.741 0.62344 5.0488-5.4646 0.68304 0.7428 5.9101 4.7815-0.59401 0.62344 5.0488-4.7815 0.59401 0.74204 6.1476 5.524-0.68304 0.62344 5.0785-10.9 1.3365-3.3559-27.234z"/>
   <path d="m96.636 43.107c-1.188-0.80187-2.6432-1.4552-4.1281-1.277-1.6334 0.20786-2.5838 1.3661-2.3759 3.0293 0.56414 4.4548 8.7908 3.7123 9.6818 11.078 0.59378 4.8409-1.7225 8.8205-6.7714 9.4442-1.5443 0.17821-3.4747-0.0593-4.8112-0.80186l-0.62344-5.1379c1.3662 0.71277 2.6729 1.1583 4.2469 0.95036 1.7522-0.20786 2.9699-1.5443 2.7621-3.3263-0.26762-2.1086-2.0196-2.7026-3.6827-3.5936-3.356-1.7225-5.524-3.5045-5.9991-7.4544-0.53448-4.3063 1.5146-8.3454 6.118-8.9096 1.7522-0.20786 3.3559 0.0593 4.9299 0.7425z"/>
   <path d="m112.53 41.147c-1.188-0.80186-2.6431-1.4255-4.1281-1.2473-1.6335 0.20786-2.5838 1.3364-2.3759 2.9996 0.56414 4.4845 8.7908 3.7123 9.6818 11.078 0.59378 4.8409-1.7225 8.8502-6.7713 9.4442-1.5146 0.20786-3.4748-0.02965-4.8112-0.77217l-0.62344-5.1379c1.3662 0.71277 2.673 1.1286 4.247 0.92066 1.7522-0.20786 2.9698-1.5146 2.762-3.3263-0.26762-2.1086-2.0196-2.7026-3.6827-3.5936-3.3559-1.6928-5.524-3.5045-5.9991-7.4544-0.53448-4.3063 1.5146-8.3157 6.118-8.8799 1.7522-0.23759 3.356 0.0593 4.93 0.7425z"/>
   <path d="m127.29 33.098 0.62343 5.0488-5.4348 0.68304 0.71239 5.9101 4.8112-0.59401 0.62344 5.0785-4.8112 0.59401 0.77215 6.118 5.4943-0.68304 0.62343 5.0785-10.899 1.3364-3.3263-27.234z"/>
   <path d="m135.78 32.059 8.7315 15.592 0.0608-0.0593c-0.47518-1.277-0.77215-2.6729-0.92071-4.0687l-1.5146-12.236 5.3755-0.68304 3.3559 27.234-5.0785 0.62366-8.672-15.592-0.0608 0.0593 0.59378 2.7323 0.14826 1.0989 1.5444 12.503-5.3755 0.65339-3.356-27.234z"/>
   <path d="m97.646 179.57 3.3263 27.234-5.227 0.65339-2.762-22.541-2.6135 0.3267-0.56414-4.6924z"/>
   <path d="m108.34 205.89 3.8906-11.286-0.0608-0.0593c-0.92063 1.0394-1.782 1.7522-3.2075 1.9304-4.1281 0.50491-6.1476-4.5439-6.5337-7.8108-0.59379-4.8706 0.68274-10.187 6.3852-10.899 5.4646-0.68305 8.0187 3.8608 8.6127 8.672 0.59378 4.9003-0.6835 9.2957-2.2274 13.899l-1.6631 4.93zm-0.74204-18.413c0.14826 1.3068 0.83153 4.2172 2.6729 4.0093 2.0789-0.26732 2.0195-3.653 1.8414-5.0191-0.14826-1.3068-0.95036-4.3063-2.7917-4.039-2.0492 0.26732-1.9007 3.6826-1.7225 5.0488"/>
   <path d="m133.2 173.28-9.8897 36.856-4.1281 0.50491 9.8898-36.856z"/>
   <path d="m144.57 173.81-3.8906 11.256 0.089 0.0593c0.89098-1.0098 1.7522-1.7225 3.2074-1.9007 4.1281-0.50491 6.118 4.4845 6.5338 7.7811 0.59379 4.8706-0.6835 10.246-6.3853 10.929-5.4348 0.68304-8.0483-3.8906-8.6126-8.6424-0.62344-4.9597 0.6835-9.3254 2.1977-13.958l1.6631-4.8706zm-3.7718 19.423c0.17791 1.277 1.0098 4.336 2.8214 4.1281 2.0492-0.26732 1.9007-3.7717 1.7225-5.1379-0.1779-1.3364-0.86125-4.2172-2.7026-3.9796-2.0195 0.23759-1.9898 3.6232-1.8413 4.9894"/>
   <path d="m163.13 184.21v0.0891c3.5342 0.6534 5.1973 3.2075 5.6131 6.6228 0.56413 4.4845-2.2869 8.286-6.8308 8.8502-4.5439 0.56429-8.2563-2.4353-8.7908-6.9198-0.44553-3.5045 0.59378-6.2664 3.8311-7.8108v-0.0593c-2.554-0.53456-4.1281-2.7323-4.4251-5.2864-0.50483-4.0093 1.782-7.5138 5.9398-8.0187 4.1282-0.50491 7.1872 2.3462 7.6624 6.3555 0.32693 2.5541-0.62344 5.0191-2.9996 6.2368zm-4.5736 7.2762c0.17791 1.3958 0.86126 3.8312 2.762 3.5936 1.8116-0.2376 1.9898-2.8214 1.8116-4.1578-0.14826-1.3364-1.0394-3.8608-2.8214-3.653-1.8414 0.23759-1.9304 2.8214-1.7522 4.2172m2.3462-12.889c-0.1186-0.98006-0.53448-2.8808-2.0196-2.6729-1.3067 0.14849-1.2473 2.0492-1.1286 3.0293 0.11861 1.0395 0.50484 3.0887 1.8414 2.9105 1.6631-0.20786 1.4255-2.2571 1.3068-3.2669"/>
  </g>
  <g fill="#5a2d88">
   <path d="m78.461 103.01c-2.4056-1.6928-6.0883-2.465-10.038-1.9898-4.3954 0.53456-7.2762 3.6233-7.4544 8.1375-0.41588 12.147 21.383 10.127 20.67 30.115-0.47518 13.127-8.1968 23.908-21.65 25.571-4.039 0.50491-8.9691-0.17821-12.147-2.2274l0.47518-13.899c3.2669 1.9304 6.4743 3.1184 10.721 2.5838 4.6033-0.56429 8.375-4.1281 8.5235-9.0284 0.20832-5.6725-4.1281-7.3059-8.0781-9.7412-8.0483-4.6627-12.949-9.5333-12.563-20.284 0.38623-11.672 7.3653-22.571 19.661-24.056 4.633-0.59401 8.7017 0.17821 12.563 2.0492z"/>
   <path d="m143.2 112.51-0.20756 5.7616c-0.56413 15.681-5.0191 37.005-24.531 39.381-19.482 2.4056-25.095-18.176-24.531-34.51 0.59378-17.047 6.7416-39.143 27.204-41.667 11.048-1.3661 17.997 4.8112 20.7 14.909l-12.8 5.9398c-0.56414-3.6529-2.8214-8.0187-8.2859-7.3356-9.6818 0.59401-11.286 18.918-11.523 25.868-0.26762 7.6326-0.38623 24.531 10.187 23.224 7.3059-0.89097 8.7908-11.018 8.9988-16.126l-9.1473 1.1286 0.50483-13.691z"/>
   <path d="m188.61 89.467c-2.4354-1.6928-6.0882-2.465-10.038-1.9898-4.4251 0.56429-7.3058 3.653-7.4543 8.1375-0.41588 12.147 21.353 10.157 20.67 30.144-0.47518 13.097-8.2266 23.908-21.65 25.571-4.039 0.47518-8.9987-0.17821-12.176-2.2274l0.47518-13.899c3.2965 1.9304 6.504 3.1184 10.721 2.5838 4.6033-0.56429 8.3751-4.1578 8.5533-9.0581 0.1779-5.6725-4.1578-7.2762-8.0781-9.7115-8.0781-4.6627-12.949-9.5333-12.592-20.314 0.41588-11.642 7.395-22.541 19.69-24.056 4.6033-0.56429 8.7017 0.20786 12.563 2.0789z"/>
  </g>
 </g>
 <g transform="translate(-250.87 -56.126)">
  <use x="390.10794" y="737.52167" xlink:href="#glyph-15-20"/>
 </g>
</svg>