<svg xmlns="http://www.w3.org/2000/svg" xmlns:xlink="http://www.w3.org/1999/xlink" version="1.1" id="Layer_1" x="0px" y="0px" viewBox="5.3 0 68 106" enable-background="new 5.3 0 68 106" xml:space="preserve">
<g>
	<g>
		<path fill="#FFFFFF" d="M66.4,28.8c-2.6-5.8-6.3-10.9-10.9-15.5c-7.9-7.8-15.5-10.9-15.9-11l-0.2-0.1l0,0l0,0l-0.2,0.1    c-0.3,0.1-8.1,3.3-15.9,11c-4.7,4.6-8.4,9.8-10.9,15.5C9,36,7.3,44,7.3,52.6c0,8.6,1.7,16.5,5,23.8c2.6,5.8,6.3,10.9,10.9,15.5    c7.9,7.8,15.5,10.9,15.9,11l0.3,0.1l0.3-0.1c0.3-0.1,8.1-3.3,15.9-11c4.6-4.6,8.3-9.8,10.9-15.5c3.3-7.2,5-15.1,5-23.8    C71.3,44.1,69.7,36,66.4,28.8z"/>
		<path fill="#FFFFFF" d="M39.3,104.2l-0.6-0.3c-0.3-0.1-8.3-3.4-16.2-11.3c-4.7-4.7-8.5-9.9-11.1-15.8C8,69.4,6.3,61.3,6.3,52.6    S8,35.8,11.4,28.4c2.7-5.9,6.5-11.1,11.1-15.8c8-8,15.9-11.1,16.2-11.3l0.6-0.2l0,0l0,0l0.6,0.2c0.3,0.1,8.3,3.4,16.2,11.3    c4.7,4.7,8.5,10,11.1,15.8c3.4,7.3,5.1,15.4,5.1,24.2s-1.7,16.8-5.1,24.2c-2.7,5.9-6.5,11.1-11.1,15.8c-8,8-15.9,11.1-16.2,11.3    L39.3,104.2z M39.3,3.2C38.2,3.7,31.2,6.8,23.9,14c-4.5,4.5-8.2,9.6-10.7,15.2c-3.3,7.1-4.9,14.9-4.9,23.4s1.6,16.3,4.9,23.3    c2.6,5.7,6.2,10.7,10.7,15.2c7.3,7.3,14.4,10.3,15.4,10.8c1.1-0.4,8.2-3.6,15.4-10.8c4.5-4.5,8.2-9.6,10.7-15.2    c3.2-7.1,4.9-14.9,4.9-23.3c0-8.5-1.6-16.3-4.9-23.3c-2.6-5.7-6.2-10.7-10.7-15.2C47.5,6.8,40.3,3.7,39.3,3.2z"/>
	</g>
	<g>
		<path fill="#FFFFFF" d="M39.3,104.2l-0.6-0.3c-0.3-0.1-8.3-3.4-16.2-11.3c-4.7-4.7-8.5-9.9-11.1-15.8C8,69.4,6.3,61.3,6.3,52.6    S8,35.8,11.4,28.4c2.7-5.9,6.5-11.1,11.1-15.8c8-8,15.9-11.1,16.2-11.3l0.6-0.2l0,0l0,0l0.6,0.2c0.3,0.1,8.3,3.4,16.2,11.3    c4.7,4.7,8.5,10,11.1,15.8c3.4,7.3,5.1,15.4,5.1,24.2s-1.7,16.8-5.1,24.2c-2.7,5.9-6.5,11.1-11.1,15.8c-8,8-15.9,11.1-16.2,11.3    L39.3,104.2z M39.3,3.2C38.2,3.7,31.2,6.8,23.9,14c-4.5,4.5-8.2,9.6-10.7,15.2c-3.3,7.1-4.9,14.9-4.9,23.4s1.6,16.3,4.9,23.3    c2.6,5.7,6.2,10.7,10.7,15.2c7.3,7.3,14.4,10.3,15.4,10.8c1.1-0.4,8.2-3.6,15.4-10.8c4.5-4.5,8.2-9.6,10.7-15.2    c3.2-7.1,4.9-14.9,4.9-23.3c0-8.5-1.6-16.3-4.9-23.3c-2.6-5.7-6.2-10.7-10.7-15.2C47.5,6.8,40.3,3.7,39.3,3.2z"/>
		<path fill="#FFFFFF" d="M39.3,105.2l-1-0.4c-0.3-0.1-8.4-3.4-16.5-11.5c-4.9-4.8-8.7-10.1-11.3-16.1C7,69.7,5.3,61.5,5.3,52.6    S7,35.5,10.5,28.1c2.7-6,6.6-11.3,11.3-16.1C29.9,3.8,37.9,0.5,38.3,0.4l1-0.4l0,0l0,0l1,0.4c0.3,0.1,8.5,3.5,16.5,11.5    c4.8,4.8,8.6,10.1,11.3,16.1c3.4,7.5,5.2,15.7,5.2,24.6s-1.7,17.1-5.2,24.6c-2.7,6-6.6,11.3-11.3,16.1    c-8.2,8.1-16.2,11.3-16.5,11.5L39.3,105.2z M39.9,102.9c-0.1,0-0.2,0.1-0.2,0.1l-0.1,0.1C39.6,103,39.7,102.9,39.9,102.9z     M39.3,4.3c-1.8,0.8-8.3,4-14.7,10.4c-4.5,4.4-8,9.5-10.5,15c-3.2,6.9-4.8,14.5-4.8,22.9c0,8.3,1.6,16,4.8,22.9    c2.5,5.6,6.1,10.5,10.5,15c6.6,6.5,13,9.6,14.7,10.4c1.8-0.8,8.2-4,14.7-10.4c4.5-4.4,8-9.5,10.5-15c3.2-6.9,4.8-14.6,4.8-22.9    s-1.6-16-4.8-22.9c-2.6-5.6-6.2-10.6-10.5-15C47.5,8.3,41,5.1,39.3,4.3z M69.6,67.2c-0.8,3.2-1.9,6.2-3.2,9.1    c-2.3,5.1-5.5,9.7-9.3,13.9c3.9-4.2,7-8.9,9.3-13.9C67.7,73.4,68.8,70.4,69.6,67.2z M7.3,52.6c0,8.6,1.7,16.5,5,23.8    c1.8,4,4.2,7.8,7,11.1c-2.8-3.5-5.1-7.2-7-11.1C9,69.1,7.3,61.2,7.3,52.6z M19.8,16.9c-3.1,3.7-5.6,7.7-7.6,11.9    C9,36,7.3,44,7.3,52.6c0-8.6,1.7-16.6,5-23.8C14.3,24.6,16.8,20.6,19.8,16.9z M63.7,23.9c1,1.6,1.8,3.3,2.6,5    c1.2,2.5,2.1,5.2,2.9,7.9c-0.8-2.7-1.7-5.4-2.9-7.9C65.6,27.2,64.7,25.5,63.7,23.9z"/>
	</g>
</g>
<path fill="#010101" d="M39.3,2.7C39.3,2.7,8,15.3,8,52.4s31.2,49.7,31.3,49.7c0,0,31.3-12.6,31.3-49.7S39.3,2.7,39.3,2.7z"/>
<path fill="#FFFFFF" d="M39.3,8.3C39.3,8.3,9,19,9,52.5s30.3,44.3,30.3,44.3S69.7,86,69.7,52.5C69.7,18.9,39.3,8.3,39.3,8.3z"/>
<path fill="#F27022" d="M37,51.5c-6-3.2-10-9.5-10.7-16.8c-0.8-7.2,1.6-13.5,7.1-19.3C16,25.3,20.5,38.1,22.8,42.2  C25.8,47.8,31.2,51.3,37,51.5z"/>
<path fill="#010101" d="M39.3,71.1c-9.2,0-17.7-1.3-24.8-3.6c6.7,18.8,24.8,23.7,24.8,23.7s18.1-4.9,24.8-23.8  C57,69.7,48.5,71.1,39.3,71.1z"/>
<path fill="#F27022" d="M61.5,32c-0.3,12-10.1,21.7-22.2,21.7c-12.1,0-21.9-9.6-22.2-21.7c-2.7,5.3-5.1,11.9-5.1,20.2  c0,0.5,0,1,0,1.4c7.5,2.8,17,4.5,27.3,4.5s19.8-1.7,27.3-4.5c0-0.5,0-1,0-1.4C66.6,43.9,64.2,37.3,61.5,32z"/>
<path fill="#F27022" d="M42.4,29.1c-0.8-1.9-1.9-3.7-3.2-5.3c-1.3,1.6-2.4,3.3-3.2,5.3c-1.4,3.7-1.9,7.7-1.3,11.6  c0.6,3.9,2.1,7.5,4.5,10.3l0,0l0,0c2.4-2.9,4-6.4,4.5-10.3C44.4,36.8,43.9,32.8,42.4,29.1z"/>
<path fill="#F27022" d="M41.6,51.5c6-3.2,10-9.5,10.7-16.8c0.8-7.2-1.6-13.5-7.1-19.3c17.4,9.8,12.8,22.7,10.5,26.8  C52.8,47.8,47.4,51.3,41.6,51.5z"/>
<path fill="#010101" d="M39.3,14.1c-8.1,4.4-11.4,12.5-11.4,18.7c0,7.1,3.3,13.5,8.6,17c-3.9-6.3-4.6-14.4-1.7-21.5  c0.9-2.1,2-4.1,3.5-5.8l1.1-1.2l1.1,1.2c1.4,1.7,2.6,3.6,3.5,5.8c2.9,7.1,2.2,15.2-1.7,21.5c5.3-3.5,8.6-9.9,8.6-17  C50.8,26.7,47.4,18.5,39.3,14.1z"/>
<path fill="#010101" d="M34.5,68.6c0,0-0.3-0.7-0.5-1l-3.4-8.1c-0.1-0.2-0.6-0.3-0.8-0.3c-0.4,0-0.6,0-0.6,0.2l-2.8,8.4  c0,0.1,0,0.2,0,0.3c0,0,0.1,0.1,0.2,0.1c0.3,0,0.7,0.1,1,0.1c0.2,0,0.3,0,0.3-0.2l0.6-2.3c0,0,0,0,0.1,0c0.9,0.1,1.8,0.2,2.7,0.3  c0,0,0,0,0.1,0l0,0l0,0c0.2,0.4,0.3,0.9,0.5,1.3l0.4,1.1c0.1,0.2,0.2,0.3,0.4,0.3c0.5,0,1,0.1,1.5,0.1c0.1,0,0.2,0,0.2-0.1  C34.5,68.9,34.6,68.8,34.5,68.6z M28.8,65.1c0.3-1,0.6-2.1,0.9-3.1c0.2,0.6,1.2,3.1,1.3,3.3C30.3,65.3,29.6,65.2,28.8,65.1z"/>
<path fill="#010101" d="M57.8,66.9c0,0-0.3-0.6-0.4-0.9L55,58.8c-0.1-0.2-0.6-0.1-0.8-0.1c-0.4,0.1-0.6,0.2-0.6,0.3l-3.8,9.3  c0,0.1,0,0.2,0,0.3c0,0,0.1,0.1,0.2,0.1c0.3,0,0.7-0.1,1-0.1c0.2,0,0.3-0.1,0.4-0.3l0.9-2.4c0,0,0,0,0.1,0c0.9-0.1,1.8-0.3,2.7-0.4  c0,0,0,0,0.1,0l0,0l0,0c0.1,0.4,0.2,0.8,0.4,1.2l0.3,1c0,0.2,0.2,0.2,0.4,0.2c0.5-0.1,1-0.2,1.6-0.3c0.1,0,0.2-0.1,0.2-0.2  C57.8,67.2,57.9,67.1,57.8,66.9z M52.6,64.8c0.4-1.1,0.9-2.3,1.3-3.4c0.2,0.5,0.9,2.8,1,3C54.1,64.6,53.4,64.7,52.6,64.8z"/>
<path fill="#010101" d="M39.7,64.4c1-1.4,1.9-2.8,2.9-4.2c0.1-0.1,0.1-0.2,0-0.3c0-0.1-0.1-0.1-0.2-0.1c-0.4,0-0.7,0-1.1,0  c-0.2,0-0.3,0-0.4,0.2c0,0-1.8,2.7-2.1,3.2c-0.6-1-1.3-2.1-2-3.1l0,0c-0.1-0.2-0.2-0.3-0.4-0.3c-0.5,0-1.1,0-1.6-0.1  c-0.1,0-0.2,0-0.2,0.1s0,0.2,0,0.3c0,0,2.7,4.2,3,4.6c-0.9,1.3-1.8,2.7-2.7,4c-0.1,0.1-0.1,0.2,0,0.3c0,0.1,0.1,0.1,0.2,0.1  c0.3,0,0.7,0,1,0c0.2,0,0.3,0,0.4-0.2c0,0,1.7-2.6,2-3.1c0.7,1,1.3,2.1,2,3.1l0,0c0.1,0.2,0.2,0.3,0.4,0.3c0.5,0,1,0,1.4,0  c0.1,0,0.2,0,0.2-0.1s0-0.2,0-0.3C41.6,67.3,40.6,65.9,39.7,64.4z"/>
<path fill="#010101" d="M51.1,59.5c0-0.1,0-0.1,0-0.2c-0.1-0.1-0.2-0.1-0.3-0.1c-2.3,0.3-4.5,0.4-6.8,0.5c-0.1,0-0.3,0-0.3,0.1  s-0.1,0.1-0.1,0.2v0.7c0,0.1,0,0.2,0.1,0.2c0.1,0.1,0.2,0,0.2,0s1.5-0.3,2.3-0.3c0,0,0.1,0,0.1,0.1l-0.1,3.5L46,68.5  c0,0.2,0.1,0.3,0.3,0.3c0.4,0,0.8-0.1,1.3-0.1c0.2,0,0.3-0.1,0.3-0.3l0.2-4.4l0.2-3.5c0-0.1,0.1-0.1,0.1-0.1c0.7-0.1,2.3,0,2.3-0.1  c0.1,0,0.2,0,0.2-0.1c0.1-0.1,0.1-0.1,0.1-0.2C51,60.1,51.1,59.5,51.1,59.5z"/>
<path fill="#010101" d="M63,57.1c-1.1,0.3-2.2,0.5-3.3,0.7c-0.2,0-0.3,0.2-0.4,0.4l-0.4,4.4l-0.4,4.4c0,0.2,0.1,0.3,0.3,0.2  c0.4-0.1,0.9-0.2,1.3-0.3c0.2,0,0.3-0.2,0.3-0.4l0.3-3.5c0-0.1,0.1-0.1,0.2-0.2c0.3-0.1,0.5-0.1,0.8-0.2c2.3-0.5,3.9-2,4.2-3.8  C66.2,57,64.6,56.7,63,57.1z M61.2,62c-0.1,0-0.1,0-0.2,0c-0.1,0-0.1,0-0.1-0.1c0.1-1.1,0.2-2.3,0.3-3.4c0-0.1,0.1-0.2,0.3-0.3  c0.1,0,0.2,0,0.2-0.1c1.6-0.4,2.2,0,2.1,1.2C63.7,60.8,62.9,61.7,61.2,62z"/>
<path fill="#010101" d="M24.8,59.1c0-0.2-0.1-0.3-0.4-0.4c-0.4-0.1-0.9-0.1-1.3-0.2c-0.2,0-0.3,0.1-0.3,0.3l0.6,7.8  c0,0.1-0.1,0.2-0.2,0.2c-0.3-0.1-0.7-0.1-1-0.2c-0.4-0.1-1.1-0.3-1.6-0.5c-0.2-2.6-0.5-5.2-0.7-7.9c0-0.1,0-0.2-0.1-0.3  c-0.1-0.1-0.1-0.1-0.2-0.1c-0.4-0.1-0.9-0.2-1.3-0.3c-0.1,0-0.2,0-0.2,0c-0.1,0-0.1,0.1-0.1,0.2c0.3,2.6,0.5,5.3,0.8,7.9  c-0.5,0-1.2-0.1-1.6-0.2c-0.3-0.1-0.7-0.2-1-0.3c-0.1,0-0.2-0.2-0.3-0.3L15.1,57c0-0.2-0.2-0.3-0.4-0.4c-0.5-0.1-0.9-0.2-1.4-0.3  c-0.2-0.1-0.3,0-0.3,0.2l1.1,8.8c0,0.2,0.2,0.3,0.4,0.4c3.6,1,7.2,1.8,10.7,2.3c0.2,0,0.3-0.1,0.3-0.3  C25.4,67.7,24.8,59.1,24.8,59.1z"/>
<path fill="#FFFFFF" d="M35.2,77.5V76v-1.5c0-0.1-0.1-0.1-0.1-0.1h-0.5c-0.1,0-0.1,0.1-0.1,0.1V76v1.5c0,0.1,0.1,0.1,0.1,0.1  L35.2,77.5C35.1,77.7,35.2,77.6,35.2,77.5z"/>
<path fill="#FFFFFF" d="M37,74.3c-0.8,0-1.3,0.4-1.3,1c0,0.5,0.4,1.1,1.2,1.1c0.4,0,0.5-0.1,0.7-0.2l0,0c0,0.6-0.5,1.1-1.2,1.2l0,0  c-0.1,0-0.1,0.1-0.1,0.1l0,0v0.1l0,0c0,0.1,0.1,0.1,0.1,0.1h0.1c1.2,0,1.9-0.8,1.9-1.9C38.3,75.4,38.2,74.3,37,74.3z M37,76  c-0.4,0-0.6-0.4-0.6-0.7c0-0.5,0.2-0.6,0.4-0.6c0.6,0,0.7,0.6,0.7,0.9C37.5,75.9,37.3,76,37,76z"/>
<path fill="#FFFFFF" d="M40.5,75.8c0.2-0.2,0.4-0.5,0.4-0.7c0-0.5-0.4-0.7-1.1-0.7c-0.4,0-0.7,0.1-0.9,0.2l0,0l0,0  c0,0-0.1,0.1,0,0.1l0.1,0.1c0,0,0,0,0.1,0.1h0.1c0.1-0.1,0.3-0.1,0.6-0.1c0.2,0,0.5,0,0.5,0.4s-0.3,0.6-0.7,0.7l0,0  c-0.1,0-0.1,0.1-0.1,0.1l0,0c0,0,0,0.1,0.1,0.1c0,0,0.2,0,0.3,0c0.2,0,0.4,0.1,0.5,0.2c0.1,0.1,0.2,0.3,0.2,0.4  c0,0.5-0.3,0.8-0.9,0.8h-0.1c-0.1,0-0.2,0-0.3,0h-0.1c0,0,0,0,0,0.1v0.1l0,0c0,0.1,0.1,0.1,0.1,0.1c0.2,0.1,0.8,0.1,0.9,0.1  c0.6,0,1.3-0.3,1.3-1.1C41.1,76.2,40.9,75.9,40.5,75.8z"/>
<path fill="#FFFFFF" d="M43.1,75.7c-0.4,0-0.5,0.1-0.7,0.2l0,0c0-0.6,0.4-1.1,1-1.1c0,0,0,0,0.1,0c0.1,0,0.2,0,0.2,0l0,0  c0.1,0,0.1-0.1,0.1-0.1l0,0v-0.1l0,0c0-0.1-0.1-0.1-0.1-0.1c-0.1,0-0.2,0-0.4,0h-0.1c-1.1,0-1.6,0.9-1.6,1.9c0,0.5,0.1,1.5,1.4,1.5  c0.8,0,1.3-0.4,1.3-1C44.3,76.1,43.8,75.7,43.1,75.7z M43.1,77.4c-0.6,0-0.7-0.7-0.7-0.9c0-0.2,0.2-0.4,0.5-0.4  c0.5,0,0.6,0.4,0.6,0.7C43.5,77.3,43.3,77.4,43.1,77.4z"/>
<path fill="#FFFFFF" d="M42.5,81.8c0.2-0.2,0.3-0.3,0.3-0.3c0.1-0.1,0.1-0.2,0-0.3l-0.5-0.5c-0.1-0.1-0.2-0.1-0.3,0  c0,0-0.1,0.1-0.3,0.3l-1-1c-0.1-0.1-0.1-0.1-0.2-0.1c0,0-0.1,0-0.1,0.1l-0.7,0.8v0.1c0,0.1,0,0.1,0.1,0.1c0,0,0.7,0.6,1,0.9V82  c0,0-1.2,1.2-1.5,1.5C39,83.2,37.8,82,37.8,82v-0.1c0.3-0.3,1-0.9,1-0.9l0.1-0.1v-0.1L38.2,80l-0.1-0.1c-0.1,0-0.1,0-0.2,0.1l-1,1  c-0.2-0.2-0.3-0.3-0.3-0.3c-0.1-0.1-0.2-0.1-0.3,0l-0.5,0.5c-0.1,0.1-0.1,0.2,0,0.3c0,0,0.1,0.1,0.3,0.3l-1,1  c-0.1,0.1-0.1,0.1-0.1,0.2c0,0,0,0.1,0.1,0.1l0.8,0.7h0.1c0.1,0,0.1,0,0.1-0.1c0,0,0.6-0.7,0.9-1h0.1c0,0,1.2,1.2,1.5,1.5  c-1.1,1.1-2.5,2.4-2.5,2.4c-0.1,0.1-0.1,0.2,0,0.3l0.5,0.5c0.1,0.1,0.2,0.1,0.3,0c0,0,1.4-1.4,2.4-2.5c1.1,1.1,2.4,2.5,2.4,2.5  c0.1,0.1,0.2,0.1,0.3,0l0.5-0.5c0.1-0.1,0.1-0.2,0-0.3c0,0-1.4-1.4-2.5-2.4c0.3-0.3,1.5-1.5,1.5-1.5h0.1c0.3,0.3,1.7,1.2,1.9,1  C43.8,83.6,42.5,81.8,42.5,81.8z"/>
</svg>