<svg xmlns="http://www.w3.org/2000/svg" xmlns:xlink="http://www.w3.org/1999/xlink" enable-background="new 0 0 800 800" height="316.227766" viewBox="0 0 800 800" width="316.227766"><radialGradient id="a" cx="400" cy="411.368" gradientTransform="matrix(1 0 0 -1 0 800)" gradientUnits="userSpaceOnUse" r="363.104"><stop offset=".411" stop-color="#ce0201"/><stop offset=".721" stop-color="#430000"/></radialGradient><radialGradient id="b" cx="400.0184" cy="365.733" gradientTransform="matrix(1 0 0 -1 0 800)" gradientUnits="userSpaceOnUse" r="295.4168"><stop offset=".3753" stop-color="#ce0201"/><stop offset="1" stop-color="#540000"/></radialGradient><linearGradient id="c" gradientUnits="userSpaceOnUse" x1="285.1522" x2="398.6204" y1="310.4709" y2="706.1314"><stop offset=".05" stop-color="#f0090c" stop-opacity=".2"/><stop offset=".4231" stop-color="#f0090c"/><stop offset=".6693" stop-color="#f0090c" stop-opacity="0"/></linearGradient><linearGradient id="d" gradientUnits="userSpaceOnUse" x1="413.6253" x2="521.4198" y1="307.5461" y2="683.4226"><stop offset=".05" stop-color="#f0090c" stop-opacity=".2"/><stop offset=".4872" stop-color="#f0090c"/><stop offset=".72" stop-color="#f0090c" stop-opacity="0"/></linearGradient><path d="m650.4 541.5c-18.7 62.2-61.6 101.4-125.6 144.3s-124.8 64.2-124.8 64.2-60.8-21.3-124.8-64.2-106.8-82.1-125.6-144.3 10.6-118.2-5.4-214.9c-11.6-62-16.9-93.6-54.9-142.5 0 0 3.9-2.9 11.5-7.8 8.3 6.7 19.7 14.1 34.1 19.5 34.4 13 74.9-9.7 25.6-50.1-.2-.2-.4-.3-.6-.5 5-2.2 10.2-4.4 15.7-6.6 12.4 8.8 29.1 18.6 47.1 23.7 37.1 10.6 57.3 2.4 67-10.9 7.7-10.5 4.1-28.7-5.9-44.2 8.2-1.6 16.7-3 25.4-4.2 19.5 30 52.9 49.8 90.8 49.8s71.3-19.8 90.8-49.8c8.7 1.3 17.2 2.7 25.4 4.2-10 15.5-13.5 33.7-5.9 44.2 9.7 13.3 29.9 21.4 67 10.9 18-5.1 34.6-14.9 47.1-23.7 5.5 2.2 10.7 4.4 15.7 6.6-.2.2-.4.3-.6.5-49.2 40.4-8.8 63.1 25.6 50.1 14.4-5.4 25.8-12.8 34.1-19.5 7.6 4.8 11.5 7.8 11.5 7.8-38 48.9-43.4 80.5-54.9 142.5-16 96.7 13.3 152.8-5.4 214.9z" fill="url(#a)"/><path d="m645.1 324.8v-.1l.6-3.5c7.2-38.4 12.3-65.8 25.1-93.6-49.5-22.3-143.1-54.6-270.8-54.6s-221.4 32.3-270.8 54.6c12.8 27.8 17.9 55.2 25.1 93.6l.6 3.5v.2c8.2 49.9 4.8 89 1.8 123.5-2.9 32.8-5.4 61.1 3.3 90.1 18 59.6 59.7 97.2 121.2 138.4 53.4 35.7 104.9 56.4 118.8 61.6 13.8-5.2 65.5-25.9 118.8-61.6 61.5-41.3 103.2-78.9 121.1-138.5 8.7-29 6.2-57.3 3.3-90.1-3-34.5-6.5-73.6 1.9-123.5z" fill="#f0ba1b"/><circle cx="115.2" cy="129.3" fill="#f1ad17" r="18.4"/><circle cx="232" cy="90.8" fill="#f07d11" r="19.3"/><circle cx="684.8" cy="129.3" fill="#f1ad17" r="18.4"/><circle cx="568" cy="90.8" fill="#f07d11" r="19.3"/><circle cx="400" cy="77.2" fill="#ed4c07" r="27.2"/><path d="m629.7 449.5c-2.8-31.7-5.9-67.2-.3-111.5-53.3-19-131.3-38-229.4-38s-176.1 19-229.4 38c5.6 44.3 2.5 79.8-.3 111.5-2.8 31.4-5.1 58.5 2.8 85 8 26.6 21.1 49 41.2 70.8 17.4 18.8 40.4 37.3 74.5 60.2 47.1 31.6 92.6 51 111.2 58.3 18.6-7.3 64.2-26.8 111.2-58.3 34.2-22.9 57.1-41.5 74.5-60.2 20.1-21.7 33.2-44.2 41.2-70.8 8-26.5 5.6-53.6 2.8-85z" fill="url(#b)"/><path d="m374.6 300.4v412.6c-20.9-9.5-49.2-23.7-78.6-42.8v-362.8c24.3-3.6 50.5-6 78.6-7z" fill="url(#c)"/><path d="m505.2 307.5v361.9c-24.8 16.1-48.8 28.9-68.4 38.2v-406.7c24.2 1.2 47.1 3.5 68.4 6.6z" fill="url(#d)"/><path d="m160.5 277.9-1.5-4.6 17.1-5.5-12-36.8 5.8-1.9 4.3 13.4 17.8-5.8 1.6 5-17.8 5.8 6 18.4 21.3-6.9 1.5 4.6zm51.9-51.4c-.6-.3-1.5-.7-2.7-1.4-1.1-.7-3.1-1.7-5.9-3l2.4-4.4c1.7.8 4.6 2.2 8.8 4.1zm1.6 12.9c-2.6-1.5-5.5-3-8.7-4.4l2.4-4.2c3.1 1.3 6 2.6 8.8 3.9zm3.9 22.9-5.2-.2c.3-6.5.4-12.5.3-17.9 1.7.3 3.4.4 5.3.3-.3 8.1-.4 14.1-.4 17.8zm1.1-30.7c-.2-.1-.3-.3-.5-.5-1-.7-2.2-1.5-3.6-2.4 3-4.6 5-9.7 6-15.3l5.4-.7c-.5 1.4-.8 2.8-1 4.1l22.2-5.3 1 4.2-24.7 5.9c-.2.4-.5 1.1-.9 2-.3 1-.6 1.7-.9 2.2l24.5-5.8c.1.5.4 1.6.8 3.4.7 3.3 1.2 6 1.7 8l4-.9 1 4.2-4.2 1 1.5 7.3 3.4-.8 1 4.2-3.6.9c.9 4.3-1.1 7.1-6.1 8.3l-7.2 1.7c-.7-1.2-1.4-2.4-2.1-3.7.6-.2 1.7-.4 3.2-.8 1.5-.2 2.8-.5 3.6-.7 2.7-.5 3.9-1.7 3.7-3.7l-23.5 5.6-1.4-11.7-4 .9-1-4.2 4.6-1.1-1.3-9.5c-.4.9-1 2-1.6 3.2zm6.9-2.3.8 7.4 17.6-4.2c-.9-3.8-1.4-6.2-1.5-7.3zm20.7 14.8c-.2-1.4-.7-3.8-1.5-7.3l-17.8 4.2.8 7.4 11.2-2.7c-.8-.4-1.9-.8-3.3-1.4-1.3-.6-2.4-1.1-3.2-1.5l2-3.3c.4.2 1.2.5 2.2.9 1.8.7 3.2 1.2 4.4 1.8l-2 3.5zm-9.6-10c-2.1-1.1-4.3-2.1-6.5-2.9l2-3.3c1 .4 2.4 1 4.2 1.6.9.5 1.7.8 2.3 1.1zm31-19.5c-.6-.3-1.4-.8-2.6-1.6-1-.8-2.9-1.9-5.7-3.4l2.7-4.2c1.6.9 4.4 2.5 8.5 4.8zm.6 13c-2.5-1.7-5.3-3.4-8.3-5l2.7-4c3 1.5 5.8 3 8.4 4.6zm2.1 23.1-5.2-.6c.8-6.4 1.4-12.4 1.7-17.8 1.6.4 3.4.6 5.3.8-.9 8-1.5 13.9-1.8 17.6zm3.5-30.5-.5-.5c-.9-.8-2-1.7-3.4-2.6 3.4-4.4 5.8-9.3 7.1-14.7l5.5-.3c-.6 1.4-1 2.7-1.3 4l22.5-3.6.7 4.2-25 4c-.2.4-.6 1.1-1.1 1.9-.4 1-.7 1.7-1 2.1l24.8-3.9c.1.5.3 1.7.5 3.5.4 3.4.8 6.1 1.1 8.1l4-.6.7 4.2-4.2.7 1 7.3 3.5-.5.7 4.2-3.7.6c.6 4.4-1.7 7-6.7 7.8l-7.3 1.2c-.6-1.2-1.2-2.5-1.8-3.9.6-.1 1.7-.3 3.3-.5 1.6-.1 2.8-.2 3.7-.4 2.7-.3 4-1.4 4-3.4l-23.9 3.8-.5-11.8-4 .6-.7-4.2 4.6-.7-.5-9.6c-.7.8-1.4 1.8-2.1 3zm7-1.7.2 7.5 17.9-2.8c-.6-3.9-.9-6.3-1-7.3zm19.5 16.2c-.1-1.4-.4-3.9-1-7.3l-18.1 2.9.2 7.5 11.4-1.8c-.7-.4-1.8-1-3.2-1.7-1.3-.7-2.3-1.3-3-1.7l2.3-3.1c.4.2 1.1.5 2.1 1 1.7.8 3.1 1.5 4.3 2.1l-2.2 3.3zm-8.7-10.6c-2-1.3-4.1-2.4-6.3-3.4l2.3-3.1c1 .5 2.4 1.1 4.1 1.9.9.5 1.6.9 2.2 1.2zm30.7-3.8c-2-2.3-4.3-4.8-6.9-7.5l4.1-2.7c2.4 2.2 4.7 4.4 7 6.9zm.4-12.9c-1-1.2-2.6-2.9-4.7-5.1-1-1.1-1.7-1.9-2.1-2.4l4.3-2.7 6.8 6.9zm5.8 21.8c-.2-.5-.5-1.1-.9-1.9-.5-.9-.8-1.5-1.1-1.9l-2.5 17.2-5.2-1c1.2-5 2.1-11 2.9-17.8.5.1 1.3.2 2.2.4 1.1.3 1.8.5 2.2.6v-.2c4.1-2.8 7.3-6.3 9.7-10.6l-8.7.7-.3-4.1 8-.6-.4-5.4-6 .5-.3-4.1 6-.5-.4-5.1 4.9-.4.4 5.1 8.7-.7-.4-5.1 4.9-.4.4 5.1 7-.6.3 4.1-7 .6.4 5.4 8.7-.7.3 4.1-9.5.8c2.8 3.6 6.4 6.2 11 7.9l-2 4.7c-3-1.5-5.5-3.1-7.6-4.9l.8 9.7-16.9 1.3.2 2.1c0 2 1.1 2.8 3.3 2.5l12.1-1c2.3-.1 3.6-.9 3.7-2.6.1-.5.2-1.5.4-3 .1-.8.1-1.4.2-1.8 1.5.5 2.9.9 4.4 1.2-.1 2-.4 3.7-.7 5.3-.5 3-2.8 4.7-6.6 5l-14.8 1.2c-3.9.2-6.1-1.5-6.5-5.2l-.8-10.1c-1.6 1.6-3 2.9-4.5 4.2zm8.7-6.2.4 4.9 12.2-1-.4-4.9zm3.8-9.3c-1 1.9-2.1 3.7-3.3 5.3l13.8-1.1c-.8-.7-2-2.1-3.5-4.2-.2-.2-.3-.4-.4-.6zm-1.9-9.4.4 5.4 8.7-.7-.4-5.4zm39 8.6v-17.9h36.5v17.9h-15.2v7.4h17.4v4.7h-17.4v8.2c3.6.1 10.3.2 20.1.2-.7 1.3-1.2 2.8-1.6 4.5-10 0-16.8-.1-20.5-.2-7.3-.1-12.4-2.5-15.2-7-1.2 2.6-3.3 5.7-6.4 9.2-1.3-1.6-2.5-2.9-3.7-4.1 4.9-4.3 7.6-10.7 8-19.1l5.1.8c-.3 2.7-.6 5.1-1 7.2 2.2 4.8 5.5 7.5 9.7 8.2v-19.9zm5.4-13.4v8.8h25.5v-8.8zm46 2.2.4-4.7 15.4 1.2-.4 4.7-5.1-.4-.9 10.9 4.5.4-.4 4.7-4.5-.4-.9 11.9h.4c2.2-.1 3.9-.2 4.9-.4-.1 1.7-.3 3.4-.4 5.1-4.3 0-9.5.4-15.5 1.1l-.4-5.1 6.1-.3 1-12.6-5.1-.4.4-4.7 5.1.4.9-10.9zm41.6 36.2c-4.9-5.2-8.3-10.8-10-16.6l-1.1 13.6c-.1 4.2-2.4 6.1-6.9 5.7-1.4 0-3.3-.1-5.5-.2-.1-1.8-.3-3.5-.6-4.9.5 0 1.4.2 2.5.4 1 .1 1.7.1 2.1.2 2.3.3 3.5-.6 3.6-2.8l.5-6.8c-1.1.7-2.8 1.7-5.1 2.9-2.6 1.5-4.5 2.6-5.8 3.5l-1.8-5c5.6-2.7 9.9-4.9 13-6.6l1-12.8-11.5-.9.4-4.5 11.5.9.7-8.4 4.9.4-.7 8.4 7.4.6c-.5-.6-1.3-1.5-2.3-2.7-1.2-1.3-2.1-2.3-2.7-3l3.5-2.1c.5.4 1.1 1.1 2 2.1 1.4 1.6 2.5 2.6 3.1 3.2l-3.5 2.5 5.8.5-.4 4.5-13.2-1.1-.1 1.2c.1.3.2.6.3 1 .6 3.7 1.3 6.4 2.1 8 2.4-2.3 4.7-4.5 6.8-6.7l3.6 3.4c-3.8 3.4-6.7 5.8-8.8 7.3 1.9 3.8 4.6 7.4 8.1 10.8-.3.4-.8 1.1-1.5 2.2-.6.8-1.2 1.4-1.4 1.8zm-21.4-16.8c-1.4-3.1-3-6.1-4.6-9l4.3-1.8c1.6 2.9 3.1 5.8 4.6 8.8zm35.9 23.6 3.9-24.7c-1.6 2-3.5 4-5.7 6 .2-2.2.2-4.4-.1-6.7 5.1-5.6 9.4-12.3 12.8-19.9l4.8 2.1c-1.7 3.3-3.5 6.5-5.5 9.6l-5.4 34.3zm9.3 1.8-1.9-4.4c4.4-.9 8.6-2.4 12.8-4.5l2.3 3.9c-.7.3-1.7.6-2.9.9-4.2 2-7.6 3.4-10.3 4.1zm-.9-11.2.6-4 4 .6 4.6-29.3 26.4 4.2-4.6 29.3 4 .6-.6 4zm10.1-6.5-.6 3.9 16.6 2.6.6-3.9zm1.1-7.1-.6 3.9 16.6 2.6.6-3.9zm1.1-7.3-.6 3.9 16.6 2.6.6-3.9zm1.2-7.2-.6 3.9 16.6 2.6.6-3.9zm16.4 43.7c-4.5-4-8.1-6.9-10.9-8.6l3.1-3.1c1.4 1 3.4 2.5 5.8 4.5 2.3 1.5 4 2.7 5.2 3.6zm14.4.7c-1.1-1.6-2.2-2.9-3.5-4 4.4-2.7 8.9-6.2 13.7-10.4l3.9 3.7c-5.3 4.6-10.1 8.1-14.1 10.7zm3.3-18.3 7.6-20.8c10.7 2.6 22.5 4.7 35.1 6.5l.6 5.1c-13-2-23.7-4-32.1-5.8l-4.2 11.7 12.1 2.9 2.2-9.3 5.3 1.3-2.2 9.3 17.3 4.1-1.1 4.7-17.3-4.1-3.1 12.9c-.9 4.7-3.6 6.5-8.1 5.3-1.3-.2-3.5-.6-6.7-1.4.1-.9.1-2.7 0-5.2 2.1.5 4.1 1 5.9 1.4 2.1.5 3.4-.3 3.8-2.5l2.8-11.8zm34.3 27c-.6-1.2-1.6-3.2-3-5.9-2.2-4.4-3.7-7.6-4.7-9.5l4.6-1.7c1.1 2 2.7 5.1 4.8 9.2 1.6 2.9 2.7 5 3.3 6.2zm13.8 6.9 5.9-18.2 20.4 6.6-5.8 18-4.6-1.5.9-2.8-11.1-3.6-1 3zm4.6-23.3 1.3-4.1 6.9 2.2c0-.3-.1-.7-.3-1.1-.7-2.5-1.3-4.5-1.8-5.9l4.6-.8c.1.5.3 1.1.6 1.8.8 2.2 1.3 3.9 1.6 5.2l-4.4.8 6.7 2.2c.8-.7 1.1-1 .9-.7 2.6-2.4 4.5-4.4 5.7-5.7l3.7 3.1c-1.8 1.6-3.6 3.3-5.5 5l6.7 2.2-1.3 4.1zm4.6 10.5-2.5 7.6 11.1 3.6 2.5-7.6zm.6-22.1 1.3-4.1 9.6 3.1c0-.9-.1-2.3-.3-4.2-.1-.6-.2-1-.2-1.3l5.2.9c.1 1.3.3 3 .4 5.2 0 .4 0 .8.1 1l8.2 2.6-1.3 4.1zm14.9 43.3 13.5-41.7 16.5 5.3-1.4 4.5-8.4 10.8c2.6 4.7 3.2 9 1.7 13.1-1.6 5.2-4.6 7.3-9.1 6.1-.9-.2-2.5-.6-4.7-1.3.3-1.8.5-3.6.7-5.3 1.3.6 2.6 1 3.8 1.4 2.3.8 4-.2 4.8-2.9 1-3.2.3-7.2-2.1-11.9l8.5-11.6-7.2-2.3-12.1 37.5z"/><path d="m185.5 286.5 2.7 8.6-.3.1c-2.5-3.8-7.7-7.1-12.4-5.9-2.3.6-3.2 2.4-2.7 4.3 1.5 5.4 18.4-.5 21.2 10.9 1.5 5.7-3.7 9.1-9.4 10.6-2.1.6-6.7.9-10.9-2v5.4l-.3.1-3.5-12.1.3-.1c3.3 4.6 8.7 9.8 14.6 8.2 2-.5 3.9-2.2 3.1-4.9-1.6-5.7-17.9.7-20.5-10.9-1.3-4.7 2.1-8.3 7.4-9.8 2.2-.6 5.6-1 10.1 1.3v-3.8z"/><path d="m210.8 279.4 13.9-3.1.1.4-1.8.4c-.5.1-.7.3-.6.7l5.4 24c.1.4.4.5.8.4l1.8-.4.1.4-13.9 3.1-.1-.4 1.8-.4c.5-.1.7-.3.6-.7l-2.7-12-9.2 2.2 2.7 12c.1.4.4.5.8.4l2.9-.6.1.4-15.9 3.5-.1-.4 2.6-.6c.5-.1.7-.3.6-.7l-5.4-24c-.1-.4-.4-.5-.8-.4l-2.9.7-.1-.4 15.7-3.6.1.4-2.5.6c-.5.1-.7.3-.6.7l2.6 11.6 9.2-2.2-2.6-11.6c-.1-.4-.4-.5-.8-.4l-1.8.4z"/><path d="m344.7 257.2 16.2-.7v.4l-2.7.1c-.5 0-.7.2-.7.6l1.1 24.6c0 .4.3.5.8.5l2.9-.1v.4l-15.3.7v-.4l1.8-.1c.5 0 .7-.2.7-.6l-.6-12.3-9.4.5.6 12.3c0 .4.3.5.8.5l3-.1v.4l-16.2.7v-.4l2.7-.1c.5 0 .7-.2.7-.6l-1.1-23.8c0-.4-.3-.5-.8-.5l-3.5-.2v-.8l17.2-.8v.4l-3.1.6c-.5 0-.6.3-.6.7l.3 11.3 9.4-.5-.5-11.9c0-.4-.3-.5-.8-.5l-2.9.1z"/><path d="m262.2 271.5 3.4 21.8c0 .4.3.5.8.5l5.1-.4v.6l-10 1.4v-.4l1.6-.3c.5-.1.7-.4.7-.8l-3.3-22.8-.6-.7c-.7-.8-4.6-.7-5.7-.6v-.9l15.1-1.6 15.8 13.4-1.7-14.8c0-.4-.3-.5-.8-.5l-3.8-.1v-.4l10.1-1.1v.4l-3.3.8c-.5.1-.7.2-.7.6l3.2 25.4-5.3.6z"/><path d="m308.2 288.3c-11.1.4-16.3-5.4-16.4-13.6-.1-8.1 6.8-14 17-14.1 4.8-.1 7.8 2 9 3.5l.9-5h.8l1 12.7-.6.1c-.2-2.5-1.2-4.7-2.6-6.5-2-2.6-4.6-3.8-7.7-3.8-3.8.1-6.4 2.1-6.7 12.8-.2 6.7 2.5 12.2 5.8 12.5 1.9.2 3.6-.2 4.6-1.3l-.2-10.1c0-.4-.3-.9-.7-.9h-4.2v-.8l16.7-.2v.8h-1.8c-.5 0-.7.2-.7.6l.2 11.3h-.4c-.6-.7-2.6-1.7-4.3-1.7-3 .2-5.3 3.7-9.7 3.7z"/><path d="m375.7 282 2.7-.1c.4 0 .7-.5.5-.8l-2.4-6.7-7.3.2-1.8 6.6c-.3.9-.2 1.1.7 1.1l4.1-.1v.6l-9.5.3v-.6h1.4c.8 0 1.4-.4 1.7-.9l7.9-25.3 4.5-.1 11 25c.2.3.4.5.8.5l2.6.1v.4l-17 .5zm-6.2-8.2 6.7-.2-3.8-9.4z"/><path d="m244.3 298.5 3.3-.9c.4-.1.6-.6.4-.9l-3.9-6.1-7.5 1.6-.6 6.8c-.1.9 0 1.2.9 1l4.1-.9.1.6-9.3 2-.1-.6 1.4-.3c.8-.2 1.3-.6 1.5-1.2l3.3-26.9 4.9-.6 15.3 22.8c.2.3.5.4.8.4l2.5-.3.1.4-17.1 3.6zm-7.7-7.2 7-1.5-5.8-8.5z"/><path d="m393.1 255.7 16.9.1v.4h-3.1c-.5 0-.7.2-.7.5l-.1 24.6c0 .4.2.5.7.5h3.1v.4l-16.9-.1v-.4h3.3c.5 0 .7-.2.7-.5l.1-24.6c0-.4-.2-.5-.7-.5h-3.3z"/><path d="m432 282.3h1.8c.5 0 .7-.2.7-.5l.3-24.6c0-.4-.2-.5-.7-.6h-1.8v-.4l17.1.2c8.3.1 10.5 2.9 10.5 8.6-.1 6.5-2.8 7.1-10.5 7l-5.6-.1-.1 10c0 .3.3.5.7.5h3.8v.4l-16.2-.2zm12-25.5-.2 14.8h2.8c4.9.1 4.7-3.9 4.7-6.8 0-4.3-.1-8-5.1-8z"/><path d="m478 258.7c10.8 1.1 15.6 7.3 14.7 15.5-.8 8.2-6.8 13.2-17.5 12.1-10.9-1.1-14.4-7.3-13.6-15.4.9-8.1 5.5-13.3 16.4-12.2zm-2.9 27.2c2.9.3 6.6-1.1 7.8-12.7 1.2-11.7-2.1-13.7-5.1-14-3.3-.3-5.1 1.1-6.4 12.9-1.1 11.4.5 13.5 3.7 13.8z"/><path d="m493.4 287.5 3.8.2c.5 0 .7-.1.8-.5l2.2-24.5c0-.4-.2-.6-.7-.6l-1.8-.2v-.4l16.7 1.5c8.7.8 11.5 3.4 11 8.8-.4 4.4-2.4 6.2-7.4 6.3 5.4 1.3 5.1 5 4.9 8.2-.1 2.2-.2 3 1 3 .9 0 2.1-2.3 2.8-3.2l.3.6c-1.7 3.5-3 5.3-7.2 5.2-5-.1-7.6-2.4-7.4-6.7.2-4.4 1.1-7.5-1.3-8l-3.1-.3-1 11.2c0 .3.3.5.7.5l2.9.3v.4l-17.2-1.5zm16-24.5-1.2 12.9 2 .2c5.6.5 5.5-3.3 5.7-5.2.3-2.9.7-7.3-4.6-7.8z"/><path d="m532.1 293.5 3.7.6c.5.1.8 0 .8-.4l4.2-24.8-.9-.2c-4.3-.7-8.5 4.7-10.9 9.8l-.4-.1 1.6-11.8 30.5 5.2-2.3 11.6-.4-.1c-.6-5.6-2.8-12-7.1-12.7l-1-.2-4.2 24.9c0 .3.2.5.6.6l3.7.6v.5l-17.9-3.1z"/><path d="m583.6 278.8c.1-.4-.1-.6-.6-.7l-3-.6.1-.4 28.3 5.7-3.5 11.9-.7-.1c-.7-5.7-3.6-12.8-8.3-13.7l-3.3-.7-2.6 12.4 3.6.9c1.5.3 3.3-2.1 3.8-4.5l.1-.4.5.1-2.3 11.2-.5-.1.2-.9c.4-2.2-.6-4.7-1.8-4.9l-3.6-.9-2.4 11.7c0 .3.2.5.6.6l3.7.8-.1.4-18.6-3.7.1-.4 4.5.8c.5.1.8 0 .8-.4z"/><path d="m632.5 303.4-.4-.1c.6-5.2-.9-12-6.6-13.6-3-.8-6.5 1.2-8.7 11.2-2 9-1 12.6 2.9 13.7 5.6 1.5 10-2 11.7-5.9l.5.1c-2.4 5.6-7.2 7.9-14.4 6-8.7-2.4-13.5-9.6-11.3-17.4 2.1-7.8 9.8-11.7 18.8-9.3 4.9 1.3 6.5 4.5 7.5 6.4l3.5-2.7.4.1z"/><path d="m224.5 336s21.4 38 4.2 80.6c0 0-22.3-33.2-4.2-80.6zm-31 43.3s32.8 28.8 30.7 74.6c0 0-32-23.9-30.7-74.6zm0 55.2s36 24.7 39.2 70.5c0 .1-34.6-19.9-39.2-70.5zm-6.9 62.6s43 7.5 65 47.8c.1 0-39.8-3.7-65-47.8zm35 51.4s43.2 6.1 66.6 45.6c0 0-39.9-2.4-66.6-45.6zm8.4 55.1s41.3-14 80 10.8c0 0-36.8 15.8-80-10.8zm42.3 37.1s36.2-24.4 80-10.6c0 0-31.3 24.9-80 10.6zm41.2 24.9s31-30.7 76.6-25.3c0-.1-26.1 30.3-76.6 25.3zm90.1-18.1s-21.5 11.4-28.4 22.9-3.1 17.6 2.3 11 8.1-14.5 26.1-33.9z" fill="#e50201"/><path d="m575.5 336s-21.4 38-4.2 80.6c0 0 22.3-33.2 4.2-80.6zm31 43.3s-32.8 28.8-30.7 74.6c0 0 32-23.9 30.7-74.6zm0 55.2s-36 24.7-39.2 70.5c0 .1 34.6-19.9 39.2-70.5zm6.9 62.6s-43 7.5-65 47.8c-.1 0 39.8-3.7 65-47.8zm-35 51.4s-43.2 6.1-66.6 45.6c0 0 39.9-2.4 66.6-45.6zm-8.4 55.1s-41.3-14-80 10.8c0 0 36.8 15.8 80-10.8zm-42.3 37.1s-36.2-24.4-80-10.6c0 0 31.3 24.9 80 10.6zm-41.2 24.9s-31-30.7-76.6-25.3c0-.1 26.1 30.3 76.6 25.3zm-90.1-18.1s21.5 11.4 28.4 22.9 3.1 17.6-2.3 11-8.1-14.5-26.1-33.9z" fill="#e50201"/><path d="m353.3 606.9s16.7-19.1 23.9-40.4 20.4-63.6-5.7-89.3-53.1-29-65.1-29.4c-12.1-.4-25.8 2.8-41.4 27 0 0-18.9-34.2-21.7-53.1s4.4-41 61.6-51.1c0 0 16.2-39.8 95.2-39 100 9 119.2 99 123.7 47.8 0 0 52.7 39.5 0 87 0 0 14 13 28.2-14.7 0 0 19.7 39.8-2 69.4s-50.9 18.1-70 2.9c0 0 61.2 10 58.4-43.1 0 0-31.8 18.5-42.7-20.5 0 0 47.9-6 29.8-49.1 0 0-6.8 20.1-24.1 2-17-17.8-89.5-116.7-187-42.8-1.8 1.3-.8 4.2 1.4 4.2h57.7l-32.1 23s-13-24-43.5-11.3c-30.6 12.7-46.7 14.5-28.8 56.3 0 0 7-16.6 37.8-13.9s68.6 12.1 89.8 52.5-.7 98.1-43.4 125.6z" fill="#fff"/></svg>