<svg xmlns:dc="http://purl.org/dc/elements/1.1/" xmlns:cc="http://creativecommons.org/ns#" xmlns:rdf="http://www.w3.org/1999/02/22-rdf-syntax-ns#" xmlns:svg="http://www.w3.org/2000/svg" xmlns="http://www.w3.org/2000/svg" id="svg2291" version="1.1" viewBox="0 0 68.344475 68.145828" height="68.145828mm" width="68.344475mm">
  <defs id="defs2285">
    <clipPath id="clipPath564" clipPathUnits="userSpaceOnUse">
      <path id="path562" d="M 0,0 H 595.276 V 841.89 H 0 Z"/>
    </clipPath>
    <clipPath id="clipPath604" clipPathUnits="userSpaceOnUse">
      <path id="path602" d="M 0,0 H 595.276 V 841.89 H 0 Z"/>
    </clipPath>
    <clipPath id="clipPath698" clipPathUnits="userSpaceOnUse">
      <path id="path696" d="M 0,0 H 595.276 V 841.89 H 0 Z"/>
    </clipPath>
    <clipPath id="clipPath760" clipPathUnits="userSpaceOnUse">
      <path id="path758" d="M 0,0 H 595.276 V 841.89 H 0 Z"/>
    </clipPath>
    <clipPath id="clipPath780" clipPathUnits="userSpaceOnUse">
      <path id="path778" d="M 0,0 H 595.276 V 841.89 H 0 Z"/>
    </clipPath>
    <clipPath id="clipPath798" clipPathUnits="userSpaceOnUse">
      <path id="path796" d="M 0,0 H 595.276 V 841.89 H 0 Z"/>
    </clipPath>
    <clipPath id="clipPath842" clipPathUnits="userSpaceOnUse">
      <path id="path840" d="M 0,0 H 595.276 V 841.89 H 0 Z"/>
    </clipPath>
    <clipPath id="clipPath858" clipPathUnits="userSpaceOnUse">
      <path id="path856" d="M 0,0 H 595.276 V 841.89 H 0 Z"/>
    </clipPath>
    <clipPath id="clipPath894" clipPathUnits="userSpaceOnUse">
      <path id="path892" d="M 0,0 H 595.276 V 841.89 H 0 Z"/>
    </clipPath>
    <clipPath id="clipPath926" clipPathUnits="userSpaceOnUse">
      <path id="path924" d="M 0,0 H 595.276 V 841.89 H 0 Z"/>
    </clipPath>
    <clipPath id="clipPath946" clipPathUnits="userSpaceOnUse">
      <path id="path944" d="M 0,0 H 595.276 V 841.89 H 0 Z"/>
    </clipPath>
    <clipPath id="clipPath970" clipPathUnits="userSpaceOnUse">
      <path id="path968" d="M 0,0 H 595.276 V 841.89 H 0 Z"/>
    </clipPath>
  </defs>
  <metadata id="metadata2288">
    <rdf:RDF>
      <cc:Work rdf:about="">
        <dc:format>image/svg+xml</dc:format>
        <dc:type rdf:resource="http://purl.org/dc/dcmitype/StillImage"/>
        <dc:title/>
      </cc:Work>
    </rdf:RDF>
  </metadata>
  <g transform="translate(-74.880645,-47.541824)" id="layer1">
    <g transform="matrix(1.1159102,0,0,-1.1159102,-192.28424,262.7656)" id="g2047">
      <g id="g550" transform="translate(297.2026,174.4196)">
        <path d="m 0,0 c 4.403,-9.57 3.036,-21.865 -3.386,-30.029 -7.347,-9.771 -20.291,-14.076 -32.385,-10.38 -10.591,2.932 -19.339,13.078 -20.806,23.872 -1.775,12.161 4.064,24.155 14.588,30.206 7.585,4.539 18.96,5.224 27.023,1.394 C -8.614,12.091 -2.564,6.799 0,0" style="fill:#0995d4;fill-opacity:1;fill-rule:nonzero;stroke:none" id="path552"/>
      </g>
      <g id="g554" transform="translate(270.8612,182.1048)">
        <path d="m 0,0 h -1.778 l 0.07,8.167 H 0 Z" style="fill:#ffffff;fill-opacity:1;fill-rule:nonzero;stroke:none" id="path556"/>
      </g>
      <g id="g558">
        <g id="g560" clip-path="url(#clipPath564)">
          <g id="g566" transform="translate(287.395,184.6016)">
            <path d="m 0,0 -0.615,-1.093 c -1.297,0.408 -2.393,1.468 -3.757,1.842 -0.411,-0.511 -0.749,-1.13 -0.786,-1.711 l 2.938,-1.635 c 0.137,-0.375 -0.411,-0.652 -0.514,-1.023 h -0.442 c -0.922,0.511 -1.778,1.227 -2.801,1.467 -0.685,-0.922 -1.026,-1.982 -1.778,-2.874 -0.411,0.378 -1.605,0.414 -1.264,1.133 l 3.861,6.762 C -3.383,2.083 -1.708,1.023 0,0" style="fill:#ffffff;fill-opacity:1;fill-rule:nonzero;stroke:none" id="path568"/>
          </g>
          <g id="g570" transform="translate(258.6967,185.6246)">
            <path d="m 0,0 c -0.171,-0.374 -0.752,-0.648 -1.194,-0.886 -0.444,0.338 -1.297,0.545 -1.912,0.238 -0.481,-0.308 -0.959,-0.649 -1.196,-1.197 0,-0.442 0.237,-0.886 0.682,-1.023 1.741,0.24 3.693,1.812 5.362,0.377 0.548,-0.685 0.855,-1.541 0.618,-2.426 -0.582,-1.541 -2.287,-2.869 -3.998,-2.905 -0.889,0.1 -1.778,0.307 -2.29,1.193 0.478,0.381 0.889,0.819 1.468,0.889 0.414,-0.408 0.925,-0.718 1.504,-0.508 0.652,0.17 1.23,0.749 1.675,1.331 0.24,0.478 -0.034,0.989 -0.512,1.227 -2.086,0 -4.409,-2.013 -5.913,0.31 -0.478,0.956 -0.03,2.047 0.448,2.871 1.093,0.99 2.56,1.91 4.131,1.395 C -0.716,0.685 -0.341,0.378 0,0" style="fill:#ffffff;fill-opacity:1;fill-rule:nonzero;stroke:none" id="path572"/>
          </g>
          <g id="g574" transform="translate(265.3957,185.7952)">
            <path d="m 0,0 c 0.067,-0.649 -0.311,-1.297 -0.956,-1.331 -0.481,-0.067 -0.959,0.274 -1.093,0.716 0,0.548 0.167,1.233 0.785,1.331 C -0.615,0.819 -0.241,0.514 0,0" style="fill:#ffffff;fill-opacity:1;fill-rule:nonzero;stroke:none" id="path576"/>
          </g>
          <g id="g578" transform="translate(276.2569,185.7952)">
            <path d="m 0,0 c 0.104,-0.545 -0.171,-1.057 -0.615,-1.264 -0.512,-0.204 -1.127,-0.033 -1.401,0.445 -0.237,0.581 0.104,1.264 0.685,1.468 C -0.819,0.789 -0.137,0.514 0,0" style="fill:#ffffff;fill-opacity:1;fill-rule:nonzero;stroke:none" id="path580"/>
          </g>
          <g id="g582" transform="translate(286.372,170.3546)">
            <path d="m 0,0 c 2.731,-5.432 2.29,-12.642 -0.992,-17.697 -3.451,-5.807 -10.183,-9.019 -17.32,-8.267 -6.528,0.856 -13.12,5.566 -15.069,12.091 -2.22,6.325 -0.579,14.043 4.305,18.519 4.613,4.574 11.891,6.73 18.519,4.44 C -6.014,7.615 -2.189,4.238 0,0" style="fill:#ffffff;fill-opacity:1;fill-rule:nonzero;stroke:none" id="path584"/>
          </g>
          <g id="g586" transform="translate(273.0809,176.1275)">
            <path d="m 0,0 c -0.104,-1.604 -1.504,-3.142 -0.682,-4.646 0.171,-0.071 0.271,-0.204 0.375,-0.308 1.434,1.915 3.416,4.236 6.287,3.383 0.509,-0.241 1.194,-0.615 1.398,-1.23 C 7.652,-4.302 5.74,-4.717 5.98,-6.221 5.91,-6.902 7.141,-8.437 5.536,-8.334 L 3.965,-8.848 c 0.136,1.504 0.136,3.282 1.638,4.031 0.408,0.341 1.16,0.375 1.263,0.956 0,0.618 -0.682,0.822 -1.126,0.959 -3.21,1.057 -6.321,-5.809 -8.167,-0.514 -1.738,0.615 -0.989,-1.706 -2.286,-1.913 -2.634,-0.478 -3.554,2.561 -6.084,2.528 -0.752,0 -1.605,-0.238 -1.909,-0.889 0.271,-1.127 1.875,-1.06 2.286,-2.083 0.308,-0.926 0.615,-1.882 0.615,-2.938 -0.685,0.033 -1.537,0.444 -2.289,0.645 0.103,0.789 0.545,2.056 0.07,2.972 -0.515,0.652 -1.507,1.264 -1.13,2.36 0.448,0.889 1.367,1.199 2.223,1.333 2.353,0.101 4.168,-1.638 5.328,-3.553 0.548,0.341 0.686,0.993 0.786,1.538 -0.441,0.103 0,0.682 -0.344,0.889 l -0.749,2.46 2.871,3.587 C -1.946,2.497 -1.023,1.163 0,0" style="fill:#0995d4;fill-opacity:1;fill-rule:nonzero;stroke:none" id="path588"/>
          </g>
          <g id="g590" transform="translate(272.7064,175.957)">
            <path d="m 0,0 c -0.137,-0.033 -0.036,-0.171 -0.07,-0.274 l -2.427,2.801 c -0.889,-0.752 -1.568,-1.808 -2.457,-2.734 -0.174,0.174 0,0.378 0.07,0.515 l 2.287,2.801 z" style="fill:#ffffff;fill-opacity:1;fill-rule:nonzero;stroke:none" id="path592"/>
          </g>
        </g>
      </g>
      <g id="g594" transform="translate(270.1089,177.732)">
        <path d="M 0,0 -0.067,-3.516 H 0.101 V 0 Z" style="fill:#ffffff;fill-opacity:1;fill-rule:nonzero;stroke:none" id="path596"/>
      </g>
      <g id="g598">
        <g id="g600" clip-path="url(#clipPath604)">
          <g id="g606" transform="translate(272.399,175.2386)">
            <path d="M 0,0 C 0.1,-0.441 -0.137,-0.716 -0.274,-1.023 H -1.675 V 1.915 Z" style="fill:#ffffff;fill-opacity:1;fill-rule:nonzero;stroke:none" id="path608"/>
          </g>
          <g id="g610" transform="translate(269.5975,174.2154)">
            <path d="M 0,0 C -0.752,0.034 -1.949,-0.274 -1.678,0.953 L -0.07,2.868 Z" style="fill:#ffffff;fill-opacity:1;fill-rule:nonzero;stroke:none" id="path612"/>
          </g>
          <g id="g614" transform="translate(267.1038,171.0334)">
            <path d="M 0,0 C -1.845,1.133 -3.623,3.316 -6.117,2.36 L -6.869,1.748 c -0.204,0.271 0.17,0.475 0.14,0.752 0.919,0.99 2.183,0.886 3.413,0.682 C -1.812,2.6 -0.785,1.37 0,0" style="fill:#ffffff;fill-opacity:1;fill-rule:nonzero;stroke:none" id="path616"/>
          </g>
          <g id="g618" transform="translate(280.0842,173.226)">
            <path d="M 0,0 V -0.341 C -0.514,0.271 -1.434,0.438 -2.357,0.375 -4.132,0.1 -5.329,-1.267 -6.799,-2.193 c 0.922,1.852 2.56,3.182 4.576,3.387 C -1.33,1.157 -0.445,0.819 0,0" style="fill:#ffffff;fill-opacity:1;fill-rule:nonzero;stroke:none" id="path620"/>
          </g>
          <g id="g622" transform="translate(271.9544,173.5334)">
            <path d="M 0,0 V -0.207 H -3.52 V 0.067 C -2.357,0.067 -1.126,0.131 0,0" style="fill:#ffffff;fill-opacity:1;fill-rule:nonzero;stroke:none" id="path624"/>
          </g>
          <g id="g626" transform="translate(269.3206,172.6413)">
            <path d="M 0,0 C -0.101,-0.713 -0.579,-1.504 -1.331,-1.672 H -1.498 C -0.646,-1.331 -1.401,0.377 0,0" style="fill:#ffffff;fill-opacity:1;fill-rule:nonzero;stroke:none" id="path628"/>
          </g>
          <g id="g630" transform="translate(272.0579,171.5482)">
            <path d="m 0,0 0.441,-0.579 c -0.581,0.037 -1.16,0.545 -1.33,1.093 L -1.06,1.093 C 0.033,1.541 -0.411,0.411 0,0" style="fill:#ffffff;fill-opacity:1;fill-rule:nonzero;stroke:none" id="path632"/>
          </g>
          <g id="g634" transform="translate(262.6612,169.3983)">
            <path d="M 0,0 -1.093,0.375 -1.401,1.708 C -0.649,1.504 -0.137,0.719 0,0" style="fill:#ffffff;fill-opacity:1;fill-rule:nonzero;stroke:none" id="path636"/>
          </g>
          <g id="g638" transform="translate(279.0612,171.1067)">
            <path d="M 0,0 C -0.411,-0.752 0,-1.806 -1.264,-1.708 H -1.401 C -1.264,-0.99 -0.752,-0.204 0,0" style="fill:#ffffff;fill-opacity:1;fill-rule:nonzero;stroke:none" id="path640"/>
          </g>
          <g id="g642" transform="translate(267.6852,169.2615)">
            <path d="M 0,0 C 0.067,0.819 1.023,0.274 1.535,0.444 1.571,0.274 1.501,0.104 1.708,0 1.842,0.104 1.739,0.274 1.772,0.444 2.287,0.274 3.343,0.819 3.313,0 3.617,0 3.343,0.341 3.55,0.444 H 4.714 C 4.747,0.274 4.68,0.104 4.884,0 5.088,0.578 5.91,0.408 6.489,0.444 5.569,-1.3 5.91,-3.587 5.84,-5.676 6.011,-5.804 6.285,-5.74 6.489,-5.776 6.556,-5.98 6.318,-6.455 6.726,-6.425 H 6.93 C 7.07,-6.251 7,-5.98 7,-5.776 h 1.572 v -0.649 c 0.173,-0.134 0.444,-0.03 0.651,-0.067 0.137,0.204 0.067,0.475 0.067,0.716 0.308,0.07 0.752,-0.104 0.886,0.17 -0.134,0.14 -0.338,0.037 -0.508,0.07 0.612,0.786 1.571,1.297 2.424,1.915 0.892,-0.551 1.744,-1.23 2.597,-1.845 0,-0.31 -0.341,-0.036 -0.445,-0.21 -0.341,-1.394 0.856,-3.724 -1.023,-4.129 -0.274,-0.277 -0.103,-0.715 -0.173,-1.062 1.059,-0.956 1.23,-2.525 2.152,-3.688 0.378,0.107 0.682,0.378 1.093,0.378 -0.1,-0.889 -1.026,-1.164 -1.604,-1.611 -1.264,-0.238 -2.187,1.267 -3.487,0.722 -0.545,-0.582 -1.263,-0.99 -2.049,-0.789 -0.752,0.381 -1.434,1.096 -2.357,0.789 -0.785,-0.408 -1.571,-1.23 -2.527,-0.789 -0.652,0.341 -1.331,0.856 -2.119,0.652 -0.889,-0.241 -1.605,-1.264 -2.664,-0.652 -0.685,0.481 -1.468,1.127 -2.357,0.652 -0.615,-0.509 -1.334,-0.89 -2.153,-0.652 -0.716,0.241 -1.334,1.3 -2.223,0.789 -0.816,-0.408 -1.809,-1.334 -2.801,-0.582 -0.475,0.512 -1.16,0.752 -1.297,1.471 l 1.163,-0.378 c 0.648,1.127 1.23,2.29 1.705,3.487 0.719,-0.171 0.341,0.682 0.448,1.026 -2.324,0.511 -0.786,3.002 -1.334,4.436 h -0.24 c 0.651,0.786 1.677,1.367 2.46,1.985 0.925,-0.581 1.778,-1.199 2.493,-1.915 l -0.374,-0.14 c 0.207,-0.128 0.515,-0.064 0.752,-0.1 v -0.579 c 0.171,-0.137 0.445,-0.033 0.649,-0.07 0.137,0.174 0.07,0.445 0.07,0.649 h 1.571 c 0.067,-0.204 -0.207,-0.679 0.204,-0.649 h 0.241 c 0.134,0.174 0.03,0.445 0.067,0.649 h 0.581 l 0.067,4.135 C -1.267,-1.026 -1.127,-0.207 -1.47,0.444 -0.989,0.274 -0.07,0.819 0,0" style="fill:#0995d4;fill-opacity:1;fill-rule:nonzero;stroke:none" id="path644"/>
          </g>
          <g id="g646" transform="translate(270.7942,168.887)">
            <path d="M 0,0 C 0.374,0 1.023,-0.104 0.886,0.511 1.297,0.715 1.331,0.201 1.398,0 1.739,0.1 2.594,-0.274 2.424,0.438 H 2.868 C 3.005,0.1 2.628,-0.207 2.664,-0.582 l -6.494,-0.07 c 0,0.378 -0.305,0.652 -0.238,1.09 0.652,0.04 0.652,-0.816 1.471,-0.508 0.137,0.137 0.067,0.344 0.067,0.508 0.377,0.104 0.615,-0.1 0.615,-0.438 1.059,-0.515 0.545,0.953 1.604,0.511 C -0.207,0.338 -0.311,0.03 0,0" style="fill:#ffffff;fill-opacity:1;fill-rule:nonzero;stroke:none" id="path648"/>
          </g>
          <g id="g650" transform="translate(262.8318,168.8871)">
            <path d="m 0,0 c 0.137,-0.344 -0.033,-0.825 0.137,-1.197 -0.511,0.305 -1.127,0.372 -1.708,0.545 l 0.24,1.09 C -0.886,0.304 -0.447,0.134 0,0" style="fill:#ffffff;fill-opacity:1;fill-rule:nonzero;stroke:none" id="path652"/>
          </g>
          <g id="g654" transform="translate(279.0612,168.5094)">
            <path d="m 0,0 v -0.274 l -1.641,-0.442 0.17,1.094 C -0.856,0.545 0.03,1.13 0,0" style="fill:#ffffff;fill-opacity:1;fill-rule:nonzero;stroke:none" id="path656"/>
          </g>
          <g id="g658" transform="translate(271.1687,167.6903)">
            <path d="m 0,0 c -0.067,-0.375 -0.171,-0.618 -0.514,-0.789 -0.613,0 -1.161,-0.064 -1.435,0.445 V 0 Z" style="fill:#ec2b34;fill-opacity:1;fill-rule:nonzero;stroke:none" id="path660"/>
          </g>
          <g id="g662" transform="translate(268.8121,167.6202)">
            <path d="M 0,0 C 0.033,-0.411 -0.378,-0.514 -0.615,-0.719 L -1.504,-0.783 V 0 Z" style="fill:#ec2b34;fill-opacity:1;fill-rule:nonzero;stroke:none" id="path664"/>
          </g>
          <g id="g666" transform="translate(273.0809,166.9015)">
            <path d="M 0,0 C -0.682,-0.064 -1.127,0.067 -1.571,0.445 V 0.719 H 0 Z" style="fill:#ec2b34;fill-opacity:1;fill-rule:nonzero;stroke:none" id="path668"/>
          </g>
          <g id="g670" transform="translate(246.8795,164.3743)">
            <path d="M 0,0 C 0.99,-0.305 2.083,0.274 3.106,0.067 2.698,-0.682 1.742,-1.434 1.328,-2.113 1.876,-2.938 2.594,-3.694 3.039,-4.577 l -2.905,0.549 c -0.545,-0.826 -0.615,-1.846 -1.16,-2.665 -0.411,0.819 -0.685,1.839 -1.197,2.729 l -2.731,-0.375 1.705,2.156 c -0.441,0.886 -1.401,1.638 -1.538,2.561 1.026,0 2.668,-1.295 3.182,0.237 C -1.37,1.23 -1.23,1.879 -0.889,2.463 -0.378,1.778 -0.411,0.789 0,0" style="fill:#ffffff;fill-opacity:1;fill-rule:nonzero;stroke:none" id="path672"/>
          </g>
          <g id="g674" transform="translate(294.7758,165.571)">
            <path d="M 0,0 C 0.372,-0.481 0,-1.985 1.16,-1.398 L 3.38,-1.13 C 2.972,-2.049 2.15,-2.427 1.605,-3.31 1.979,-4.099 2.735,-4.854 3.313,-5.606 2.491,-5.636 1.501,-5.295 0.512,-5.329 0.034,-6.184 -0.274,-7.07 -0.685,-7.96 h -0.137 c -0.375,0.853 -0.411,1.846 -0.956,2.631 l -2.868,-0.444 c 0.441,0.855 1.193,1.4 1.671,2.15 -0.341,0.992 -1.33,1.51 -1.671,2.493 l 2.731,-0.341 1.16,2.634 C -0.24,1.09 -0.344,0.374 0,0" style="fill:#ffffff;fill-opacity:1;fill-rule:nonzero;stroke:none" id="path676"/>
          </g>
          <g id="g678" transform="translate(268.1969,164.8888)">
            <path d="M 0,0 C -0.207,-0.137 -0.548,-0.04 -0.819,-0.067 V 1.501 H -0.07 Z" style="fill:#ec2b34;fill-opacity:1;fill-rule:nonzero;stroke:none" id="path680"/>
          </g>
          <g id="g682" transform="translate(270.6542,164.8888)">
            <path d="M 0,0 C -0.238,-0.137 -0.545,-0.04 -0.819,-0.067 L -0.886,1.501 H 0 Z" style="fill:#ec2b34;fill-opacity:1;fill-rule:nonzero;stroke:none" id="path684"/>
          </g>
        </g>
      </g>
      <path d="m 272.262,164.822 h 0.819 v 1.569 h -0.819 z" style="fill:#ec2b34;fill-opacity:1;fill-rule:nonzero;stroke:none" id="path686"/>
      <g id="g688" transform="translate(259.2084,164.1003)">
        <path d="M 0,0 1.334,1.029 2.804,0 Z" style="fill:#ffffff;fill-opacity:1;fill-rule:nonzero;stroke:none" id="path690"/>
      </g>
      <g id="g692">
        <g id="g694" clip-path="url(#clipPath698)">
          <g id="g700" transform="translate(281.2475,164.1003)">
            <path d="m 0,0 h -2.801 c 0.511,0.311 1.123,1.233 1.708,0.889 z" style="fill:#ffffff;fill-opacity:1;fill-rule:nonzero;stroke:none" id="path702"/>
          </g>
          <g id="g704" transform="translate(271.0651,164.3743)">
            <path d="m 0,0 c 0.137,-0.201 0.07,-0.478 0.104,-0.719 -0.375,-0.1 -0.993,-0.03 -0.752,-0.682 H -1.23 c -0.033,0.241 0.103,0.822 -0.378,0.612 H -1.845 L -1.744,0 Z" style="fill:#ec2b34;fill-opacity:1;fill-rule:nonzero;stroke:none" id="path706"/>
          </g>
          <g id="g708" transform="translate(273.0111,164.3743)">
            <path d="m 0,0 c 0.137,-0.201 0.036,-0.545 0.07,-0.789 h -0.375 c -0.137,-0.204 -0.036,-0.441 -0.07,-0.679 h -0.511 c -0.067,0.238 0.137,0.889 -0.375,0.679 h -0.24 L -1.398,0 Z" style="fill:#ec2b34;fill-opacity:1;fill-rule:nonzero;stroke:none" id="path710"/>
          </g>
          <g id="g712" transform="translate(268.8121,164.3073)">
            <path d="M 0,0 C 0.104,-0.207 0.033,-0.478 0.067,-0.722 H -0.445 C -0.582,-0.926 -0.512,-1.163 -0.548,-1.401 H -1.127 C -0.685,-0.512 -1.982,-0.85 -1.434,0 Z" style="fill:#ec2b34;fill-opacity:1;fill-rule:nonzero;stroke:none" id="path714"/>
          </g>
          <g id="g716" transform="translate(260.2345,163.5858)">
            <path d="M 0,0 C 0.14,-0.542 -0.685,-0.576 -0.512,-1.194 V -1.708 H -1.465 L -1.401,0 Z" style="fill:#ec2b34;fill-opacity:1;fill-rule:nonzero;stroke:none" id="path718"/>
          </g>
          <g id="g720" transform="translate(262.2166,161.8135)">
            <path d="M 0,0 H -0.956 C -0.749,0.789 -1.3,1.23 -1.468,1.772 H 0 Z" style="fill:#ec2b34;fill-opacity:1;fill-rule:nonzero;stroke:none" id="path722"/>
          </g>
          <g id="g724" transform="translate(281.6248,161.8135)">
            <path d="M 0,0 H -1.026 C -1.13,0.475 -0.752,1.23 -1.47,1.401 V 1.772 H 0 Z" style="fill:#ec2b34;fill-opacity:1;fill-rule:nonzero;stroke:none" id="path726"/>
          </g>
          <g id="g728" transform="translate(279.7098,163.4851)">
            <path d="M 0,0 C -0.481,-0.304 -0.786,-0.956 -0.649,-1.672 H -1.471 V 0 Z" style="fill:#ec2b34;fill-opacity:1;fill-rule:nonzero;stroke:none" id="path730"/>
          </g>
          <g id="g732" transform="translate(265.3255,162.5291)">
            <path d="M 0,0 C 0.344,-0.137 0.786,-0.034 1.197,-0.064 1.334,0.1 1.233,0.378 1.267,0.615 H 1.982 V 0 L 3.246,-0.064 C 3.383,0.1 3.28,0.378 3.316,0.615 H 4.202 V 0 C 4.546,-0.137 4.988,-0.034 5.399,-0.064 5.536,0.1 5.432,0.378 5.469,0.615 H 6.425 V 0 L 7.686,-0.064 C 7.822,0.1 7.722,0.378 7.755,0.615 H 8.574 V 0 C 8.882,-0.137 9.29,-0.034 9.668,-0.064 9.805,0.1 9.704,0.378 9.738,0.615 h 0.889 V 0 c 0.304,-0.137 0.749,-0.034 1.093,-0.064 V -0.268 H -2.049 v 0.204 h 1.163 l 0.064,0.679 H 0 Z" style="fill:#ffffff;fill-opacity:1;fill-rule:nonzero;stroke:none" id="path734"/>
          </g>
          <g id="g736" transform="translate(268.8791,161.8135)">
            <path d="M 0,0 C -0.615,-0.137 -1.979,-1.608 -1.915,0 Z" style="fill:#ec2b34;fill-opacity:1;fill-rule:nonzero;stroke:none" id="path738"/>
          </g>
          <g id="g740" transform="translate(273.5256,161.8135)">
            <path d="M 0,0 C -0.171,-1.675 -1.434,0 -2.153,0 Z" style="fill:#ec2b34;fill-opacity:1;fill-rule:nonzero;stroke:none" id="path742"/>
          </g>
          <g id="g744" transform="translate(275.5049,161.8135)">
            <path d="M 0,0 C 0.137,-0.171 0.036,-0.448 0.07,-0.685 -0.679,-1.133 -0.308,-0.204 -0.819,0 Z" style="fill:#ec2b34;fill-opacity:1;fill-rule:nonzero;stroke:none" id="path746"/>
          </g>
          <g id="g748" transform="translate(277.0454,161.8135)">
            <path d="M 0,0 C 0.137,-0.171 0.064,-0.448 0.1,-0.685 L -0.959,-0.752 V 0 Z" style="fill:#ec2b34;fill-opacity:1;fill-rule:nonzero;stroke:none" id="path750"/>
          </g>
        </g>
      </g>
      <path d="m 263.276,161.061 h 1.091 v 0.685 h -1.091 z" style="fill:#ec2b34;fill-opacity:1;fill-rule:nonzero;stroke:none" id="path752"/>
      <g id="g754">
        <g id="g756" clip-path="url(#clipPath760)">
          <g id="g762" transform="translate(265.633,161.7466)">
            <path d="M 0,0 C -0.374,-0.274 -0.137,-0.962 -0.819,-0.685 V 0 Z" style="fill:#ec2b34;fill-opacity:1;fill-rule:nonzero;stroke:none" id="path764"/>
          </g>
          <g id="g766" transform="translate(272.8433,160.3459)">
            <path d="M 0,0 C 1.093,-1.574 0.411,-3.864 0.615,-5.776 L 0.067,-6.151 c -0.411,2.25 1.163,5.637 -1.608,6.559 -1.023,0.478 -2.286,0.17 -3.105,-0.579 -1.334,-1.507 -0.482,-4.101 -0.719,-5.913 l -0.515,0.551 c 0.207,2.217 -0.749,5.256 1.678,6.316 C -2.838,1.571 -0.992,1.057 0,0" style="fill:#ffffff;fill-opacity:1;fill-rule:nonzero;stroke:none" id="path768"/>
          </g>
        </g>
      </g>
      <g id="g770" transform="translate(258.7698,161.3655)">
        <path d="m 0,0 v -0.749 l 1.534,0.064 V 0 Z" style="fill:#ec2b34;fill-opacity:1;fill-rule:nonzero;stroke:none" id="path772"/>
      </g>
      <g id="g774">
        <g id="g776" clip-path="url(#clipPath780)">
          <g id="g782" transform="translate(262.2166,160.6169)">
            <path d="m 0,0 h -1.468 c 0.067,0.241 -0.103,0.648 0.134,0.749 H 0 Z" style="fill:#ec2b34;fill-opacity:1;fill-rule:nonzero;stroke:none" id="path784"/>
          </g>
        </g>
      </g>
      <path d="m 278.239,160.617 h 1.331 v 0.749 h -1.331 z" style="fill:#ec2b34;fill-opacity:1;fill-rule:nonzero;stroke:none" id="path786"/>
      <g id="g788" transform="translate(280.0845,161.3655)">
        <path d="M 0,0 0.07,-0.749 H 1.54 V 0 Z" style="fill:#ec2b34;fill-opacity:1;fill-rule:nonzero;stroke:none" id="path790"/>
      </g>
      <g id="g792">
        <g id="g794" clip-path="url(#clipPath798)">
          <g id="g800" transform="translate(265.84,160.2424)">
            <path d="M 0,0 V -0.445 H -2.36 V 0.307 C -1.571,0.204 -0.548,0.542 0,0" style="fill:#ec2b34;fill-opacity:1;fill-rule:nonzero;stroke:none" id="path802"/>
          </g>
          <g id="g804" transform="translate(267.1038,160.5498)">
            <path d="M 0,0 C -0.307,-0.307 -0.173,-0.892 -0.822,-0.752 -1.13,-0.036 -0.24,-0.307 0,0" style="fill:#ec2b34;fill-opacity:1;fill-rule:nonzero;stroke:none" id="path806"/>
          </g>
          <g id="g808" transform="translate(274.1071,159.7978)">
            <path d="M 0,0 C -0.581,-0.207 -0.548,0.512 -0.822,0.752 -0.511,0.548 0.305,0.612 0,0" style="fill:#ec2b34;fill-opacity:1;fill-rule:nonzero;stroke:none" id="path810"/>
          </g>
          <g id="g812" transform="translate(276.9085,159.7978)">
            <path d="M 0,0 H -2.357 C -2.497,0.137 -2.393,0.341 -2.427,0.548 -1.745,0.919 -0.822,0.685 0,0.752 Z" style="fill:#ec2b34;fill-opacity:1;fill-rule:nonzero;stroke:none" id="path814"/>
          </g>
          <g id="g816" transform="translate(270.4166,157.9525)">
            <path d="M 0,0 C 0.103,-0.14 0.308,-0.036 0.445,-0.07 0.719,0.649 0.545,1.568 0.581,2.393 0.786,2.457 0.923,2.29 1.023,2.153 V 0 C 1.16,-0.14 1.364,-0.036 1.538,-0.07 L 1.641,1.778 C 2.186,1.367 1.775,0.512 1.982,-0.07 H 2.22 V -0.445 C 2.049,-0.341 1.949,-0.551 1.912,-0.652 V -1.093 H 1.538 C 1.501,-0.886 1.708,-0.378 1.264,-0.514 0.99,-0.378 0.923,-0.682 0.956,-0.855 V -1.093 H 0.581 C 0.545,-0.886 0.752,-0.378 0.308,-0.514 0.034,-0.378 -0.033,-0.682 0,-0.855 v -0.238 h -0.374 c -0.037,0.207 0.167,0.715 -0.275,0.579 -0.274,0.136 -0.343,-0.168 -0.31,-0.341 v -0.238 h -0.375 c -0.033,0.207 0.174,0.715 -0.271,0.579 -0.307,0.136 -0.344,-0.168 -0.307,-0.341 v -0.238 h -0.445 c -0.033,0.207 0.067,0.441 -0.07,0.579 h -0.167 v 0.444 h 0.167 c 0.241,0.618 -0.274,1.611 0.515,1.915 V 0 c 0.137,-0.14 0.341,-0.036 0.511,-0.07 l 0.067,2.36 0.311,0.167 0.064,-2.353 c 0.107,-0.244 0.344,-0.14 0.514,-0.174 l 0.071,2.6 H 0 Z" style="fill:#ffffff;fill-opacity:1;fill-rule:nonzero;stroke:none" id="path818"/>
          </g>
          <g id="g820" transform="translate(261.7723,160.1754)">
            <path d="M 0,0 C -0.445,-0.344 -0.749,-1.096 -1.468,-0.822 L -2.357,-0.14 C -1.708,0.134 -0.786,-0.037 0,0" style="fill:#ec2b34;fill-opacity:1;fill-rule:nonzero;stroke:none" id="path822"/>
          </g>
          <g id="g824" transform="translate(281.0402,160.1754)">
            <path d="M 0,0 C -0.478,-1.026 -1.949,-0.926 -2.494,0 Z" style="fill:#ec2b34;fill-opacity:1;fill-rule:nonzero;stroke:none" id="path826"/>
          </g>
          <g id="g828" transform="translate(263.1058,159.7978)">
            <path d="M 0,0 C -0.07,-0.14 -0.238,-0.033 -0.378,-0.067 L -0.07,0.307 C 0.07,0.271 0,0.103 0,0" style="fill:#ec2b34;fill-opacity:1;fill-rule:nonzero;stroke:none" id="path830"/>
          </g>
        </g>
      </g>
      <path d="m 277.283,159.731 h 0.204 v 0.234 h -0.204 z" style="fill:#ec2b34;fill-opacity:1;fill-rule:nonzero;stroke:none" id="path832"/>
      <path d="m 273.97,158.394 h 1.535 v 0.893 h -1.535 z" style="fill:#ec2b34;fill-opacity:1;fill-rule:nonzero;stroke:none" id="path834"/>
      <g id="g836">
        <g id="g838" clip-path="url(#clipPath842)">
          <g id="g844" transform="translate(278.3762,159.0791)">
            <path d="M 0,0 V -0.685 H -2.357 V 0.207 C -1.571,0.14 -0.649,0.414 0,0" style="fill:#ec2b34;fill-opacity:1;fill-rule:nonzero;stroke:none" id="path846"/>
          </g>
        </g>
      </g>
      <g id="g848" transform="translate(262.1502,159.219)">
        <path d="M 0,0 -0.07,-0.825 H 2.29 V 0 Z" style="fill:#ec2b34;fill-opacity:1;fill-rule:nonzero;stroke:none" id="path850"/>
      </g>
      <g id="g852">
        <g id="g854" clip-path="url(#clipPath858)">
          <g id="g860" transform="translate(266.5222,159.2194)">
            <path d="M 0,0 C -0.137,-0.21 -0.067,-0.551 -0.104,-0.825 H -1.641 V 0 Z" style="fill:#ec2b34;fill-opacity:1;fill-rule:nonzero;stroke:none" id="path862"/>
          </g>
          <g id="g864" transform="translate(261.6382,158.6376)">
            <path d="M 0,0 C 0,-0.137 0.031,-0.307 -0.137,-0.307 H -0.378 C -0.241,-0.207 -0.137,-0.037 0,0" style="fill:#ec2b34;fill-opacity:1;fill-rule:nonzero;stroke:none" id="path866"/>
          </g>
        </g>
      </g>
      <g id="g868" transform="translate(278.7534,158.5008)">
        <path d="M 0,0 H 0.238 L 0.068,0.137 Z" style="fill:#ec2b34;fill-opacity:1;fill-rule:nonzero;stroke:none" id="path870"/>
      </g>
      <g id="g872" transform="translate(263.6172,157.8825)">
        <path d="m 0,0 -0.067,-0.886 2.357,0.1 V 0 Z" style="fill:#ec2b34;fill-opacity:1;fill-rule:nonzero;stroke:none" id="path874"/>
      </g>
      <path d="m 266.419,157.097 h 0.104 v 0.786 h -0.104 z" style="fill:#ec2b34;fill-opacity:1;fill-rule:nonzero;stroke:none" id="path876"/>
      <path d="m 273.97,157.097 h 0.204 v 0.786 h -0.204 z" style="fill:#ec2b34;fill-opacity:1;fill-rule:nonzero;stroke:none" id="path878"/>
      <path d="m 274.615,157.097 h 2.223 v 0.786 h -2.223 z" style="fill:#ec2b34;fill-opacity:1;fill-rule:nonzero;stroke:none" id="path880"/>
      <g id="g882" transform="translate(277.353,157.8825)">
        <path d="m 0,0 v -0.886 l 3.038,0.1 V 0 Z" style="fill:#ec2b34;fill-opacity:1;fill-rule:nonzero;stroke:none" id="path884"/>
      </g>
      <path d="m 260.1,156.997 h 2.936 v 0.815 H 260.1 Z" style="fill:#ec2b34;fill-opacity:1;fill-rule:nonzero;stroke:none" id="path886"/>
      <g id="g888">
        <g id="g890" clip-path="url(#clipPath894)">
          <g id="g896" transform="translate(282.4411,154.4327)">
            <path d="m 0,0 c -0.579,-0.171 -1.294,0.034 -1.708,0.445 l 0.1,2.935 C -0.956,2.36 -0.545,1.13 0,0" style="fill:#ec2b34;fill-opacity:1;fill-rule:nonzero;stroke:none" id="path898"/>
          </g>
          <g id="g900" transform="translate(258.4595,154.2621)">
            <path d="M 0,0 H -0.378 C -0.274,1.264 0.615,2.323 1.126,3.483 0.749,2.323 2.049,-0.1 0,0" style="fill:#ec2b34;fill-opacity:1;fill-rule:nonzero;stroke:none" id="path902"/>
          </g>
        </g>
      </g>
      <path d="m 274.037,155.769 h 1.467 v 0.779 h -1.467 z" style="fill:#ec2b34;fill-opacity:1;fill-rule:nonzero;stroke:none" id="path904"/>
      <path d="m 276.019,155.769 h 2.29 v 0.779 h -2.29 z" style="fill:#ec2b34;fill-opacity:1;fill-rule:nonzero;stroke:none" id="path906"/>
      <g id="g908" transform="translate(260.1648,156.4821)">
        <path d="M 0,0 -0.065,-0.713 H 1.403 V 0 Z" style="fill:#ec2b34;fill-opacity:1;fill-rule:nonzero;stroke:none" id="path910"/>
      </g>
      <path d="m 262.08,155.769 h 2.36 v 0.713 h -2.36 z" style="fill:#ec2b34;fill-opacity:1;fill-rule:nonzero;stroke:none" id="path912"/>
      <g id="g914" transform="translate(264.951,156.4821)">
        <path d="m 0,0 v -0.713 l 1.468,0.064 V 0 Z" style="fill:#ec2b34;fill-opacity:1;fill-rule:nonzero;stroke:none" id="path916"/>
      </g>
      <path d="m 278.753,155.769 h 1.638 v 0.713 h -1.638 z" style="fill:#ec2b34;fill-opacity:1;fill-rule:nonzero;stroke:none" id="path918"/>
      <g id="g920">
        <g id="g922" clip-path="url(#clipPath926)">
          <g id="g928" transform="translate(263.0357,155.2549)">
            <path d="M 0,0 C 0.14,-0.274 0.07,-0.652 0.07,-0.993 -0.545,-0.822 -1.16,-0.311 -1.842,-0.1 -1.263,0.033 -0.612,-0.034 0,0" style="fill:#ec2b34;fill-opacity:1;fill-rule:nonzero;stroke:none" id="path930"/>
          </g>
          <g id="g932" transform="translate(265.9741,155.1544)">
            <path d="M 0,0 C -0.852,0.134 -1.571,-0.515 -2.357,-0.789 V 0.1 C -1.571,0.067 -0.716,0.134 0,0" style="fill:#ec2b34;fill-opacity:1;fill-rule:nonzero;stroke:none" id="path934"/>
          </g>
        </g>
      </g>
      <g id="g936" transform="translate(274.0374,154.8774)">
        <path d="m 0,0 v 0.137 l -0.068,0.24 z" style="fill:#ec2b34;fill-opacity:1;fill-rule:nonzero;stroke:none" id="path938"/>
      </g>
      <g id="g940">
        <g id="g942" clip-path="url(#clipPath946)">
          <g id="g948" transform="translate(276.8384,154.4327)">
            <path d="M 0,0 C -0.886,-0.033 -1.367,1.093 -2.357,0.581 V 0.822 H 0 Z" style="fill:#ec2b34;fill-opacity:1;fill-rule:nonzero;stroke:none" id="path950"/>
          </g>
          <g id="g952" transform="translate(279.4357,155.2549)">
            <path d="M 0,0 C -0.786,-0.274 -1.504,-0.685 -2.153,-1.06 V 0 Z" style="fill:#ec2b34;fill-opacity:1;fill-rule:nonzero;stroke:none" id="path954"/>
          </g>
          <g id="g956" transform="translate(280.3916,155.1544)">
            <path d="M 0,0 H -0.307 V 0.1 C -0.204,0.067 -0.07,0.134 0,0" style="fill:#ec2b34;fill-opacity:1;fill-rule:nonzero;stroke:none" id="path958"/>
          </g>
        </g>
      </g>
      <g id="g960" transform="translate(260.1648,155.1546)">
        <path d="M 0,0 0.069,-0.14 0.21,0 Z" style="fill:#ec2b34;fill-opacity:1;fill-rule:nonzero;stroke:none" id="path962"/>
      </g>
      <g id="g964">
        <g id="g966" clip-path="url(#clipPath970)">
          <g id="g972" transform="translate(282.7517,152.6576)">
            <path d="m 0,0 c 0.1,-0.104 -0.207,-0.688 -0.378,-0.956 -1.196,-0.207 -2.015,1.16 -3.245,0.819 -0.719,-0.551 -1.538,-1.267 -2.528,-0.752 -0.618,0.444 -1.3,0.889 -2.119,0.648 -0.719,-0.34 -1.334,-1.196 -2.22,-0.855 -0.855,0.31 -1.675,1.196 -2.734,0.651 -0.819,-0.17 -1.568,-1.23 -2.494,-0.511 -0.615,0.441 -1.264,0.989 -2.083,0.648 -0.682,-0.38 -1.4,-0.956 -2.289,-0.715 -0.856,0.134 -1.401,1.397 -2.427,0.715 -0.749,-0.273 -1.501,-1.059 -2.357,-0.648 l -0.442,1.026 c 0.479,-0.445 1.569,-0.311 2.15,0.134 1.742,1.671 2.905,-1.608 4.644,-0.067 1.54,1.467 2.874,-1.197 4.412,-0.207 0.645,0.414 1.4,0.755 2.22,0.515 0.785,-0.278 1.571,-1.231 2.423,-0.582 0.652,0.481 1.434,0.922 2.29,0.648 C -6.321,0.344 -5.536,-0.786 -4.647,0 -4.035,0.478 -3.212,1.023 -2.36,0.578 -1.745,0.167 -0.889,-0.475 0,0" style="fill:#0995d4;fill-opacity:1;fill-rule:nonzero;stroke:none" id="path974"/>
          </g>
          <g id="g976" transform="translate(263.7211,150.6783)">
            <path d="m 0,0 c 0.682,0.372 1.401,0.956 2.253,0.716 0.889,-0.14 1.471,-1.197 2.46,-0.82 0.719,0.512 1.538,0.987 2.494,0.68 0.685,-0.271 1.227,-1.021 2.083,-0.68 0.548,0.545 1.23,0.82 1.982,0.887 1.06,0 1.845,-1.365 2.938,-0.649 0.478,0.582 1.13,0.682 1.779,0.822 0.852,-0.037 1.364,-0.892 2.219,-0.892 -0.24,-0.238 -0.067,-1.09 -0.682,-0.685 C 16.774,-0.344 16.056,0.475 15.166,0 14.588,-0.551 13.869,-1.026 13.05,-0.822 12.298,-0.344 11.409,0.305 10.453,-0.174 9.838,-0.652 9.189,-1.267 8.337,-0.892 7.548,-0.481 6.696,0.167 5.736,-0.311 5.091,-0.652 4.339,-1.233 3.587,-0.892 c -0.649,0.478 -1.401,1.026 -2.29,0.788 -0.749,-0.41 -1.538,-1.163 -2.494,-0.648 -0.682,0.371 -1.33,1.193 -2.219,0.648 l -1.471,-0.718 -0.442,0.718 c 1.23,0.202 2.561,1.913 3.825,0.545 C -1.197,-0.037 -0.545,-0.21 0,0" style="fill:#0995d4;fill-opacity:1;fill-rule:nonzero;stroke:none" id="path978"/>
          </g>
          <g id="g980" transform="translate(281.2475,149.104)">
            <path d="m 0,0 -0.274,-0.581 c -0.652,0.237 -1.334,0.788 -2.086,0.374 -0.441,-0.511 -1.09,-0.852 -1.672,-0.819 -1.026,0.036 -1.711,1.16 -2.804,0.752 -0.715,-0.341 -1.193,-1.2 -2.15,-0.953 -0.959,0.646 -2.152,1.157 -3.246,0.442 -1.437,-1.642 -2.53,1.163 -4.064,0.411 -0.82,-0.171 -1.471,-1.163 -2.427,-0.585 -0.615,0.207 -1.197,1.233 -1.983,0.752 l -1.056,-0.511 -0.341,0.648 c 0.682,0.344 1.364,1.063 2.287,0.682 0.852,-0.167 1.266,-1.227 2.29,-0.819 0.782,0.414 1.674,1.06 2.63,0.585 0.716,-0.411 1.708,-1.337 2.528,-0.448 0.578,0.448 1.4,0.682 2.119,0.378 0.578,-0.308 1.126,-0.889 1.845,-0.682 0.819,0.545 1.638,1.16 2.661,0.883 0.752,-0.338 1.571,-1.158 2.427,-0.579 C -2.46,0.923 -0.856,0.953 0,0" style="fill:#0995d4;fill-opacity:1;fill-rule:nonzero;stroke:none" id="path982"/>
          </g>
          <g id="g984" transform="translate(282.578,144.5278)">
            <path d="m 0,0 c -0.953,-2.153 -0.819,-5.195 0,-7.381 l -1.468,-0.716 c -1.163,1.913 -0.922,4.885 -0.204,7.001 l -0.173,0.137 -3.313,-1.468 c -0.344,0.174 -0.548,0.648 -0.649,1.026 l 0.375,0.372 4.716,2.155 C -0.304,1.023 -0.238,0.377 0,0" style="fill:#ffffff;fill-opacity:1;fill-rule:nonzero;stroke:none" id="path986"/>
          </g>
          <g id="g988" transform="translate(261.1237,144.013)">
            <path d="m 0,0 c -1.501,-2.049 -2.354,-4.372 -3.757,-6.492 -0.512,-0.03 -0.856,0.344 -1.264,0.515 v 0.511 l 2.423,4.373 c -0.237,0.786 -2.527,0.718 -1.333,1.912 0.889,-0.338 2.052,-0.578 2.838,0.137 C -0.719,0.722 0.17,0.682 0,0" style="fill:#ffffff;fill-opacity:1;fill-rule:nonzero;stroke:none" id="path990"/>
          </g>
          <g id="g992" transform="translate(268.06,141.7933)">
            <path d="m 0,0 c 0.819,-1.675 0.444,-3.928 -0.512,-5.426 -0.514,-0.725 -1.129,-1.337 -1.982,-1.504 -1.403,-0.207 -2.905,0.475 -3.553,1.635 -0.171,0.307 -0.344,0.682 -0.137,1.023 0.752,0 1.708,-0.134 1.845,-1.023 0.478,-0.308 1.197,-0.542 1.742,-0.204 0.581,0.304 0.855,0.886 1.059,1.465 -0.993,-0.238 -2.46,-0.269 -3.246,0.584 -0.548,0.545 -0.852,0.99 -0.992,1.708 -0.171,1.228 0.478,2.25 1.437,2.869 0.819,0.377 2.049,0.548 2.938,0.137 C -0.889,0.856 -0.308,0.645 0,0" style="fill:#ffffff;fill-opacity:1;fill-rule:nonzero;stroke:none" id="path994"/>
          </g>
          <g id="g996" transform="translate(274.3109,142.5453)">
            <path d="M 0,0 C 0.341,-2.631 0.886,-5.158 0.99,-7.889 0.445,-7.856 0.067,-8.267 -0.511,-8.093 l -0.204,0.411 c -0.274,1.568 -0.415,3.172 -0.448,4.811 -0.649,0.545 -1.331,-0.101 -2.083,0 -0.17,0.204 -0.237,0.584 -0.204,0.956 0.682,0.307 1.605,0.511 1.913,1.263 C -1.571,0.104 -0.581,0 0,0" style="fill:#ffffff;fill-opacity:1;fill-rule:nonzero;stroke:none" id="path998"/>
          </g>
          <g id="g1000" transform="translate(266.7963,141.0746)">
            <path d="m 0,0 c 0.204,-0.649 0,-1.261 -0.378,-1.775 -0.444,-0.411 -1.196,-0.478 -1.741,-0.207 -0.515,0.378 -0.993,0.992 -0.685,1.678 0.036,0.508 0.581,0.989 1.026,1.123 C -0.993,0.99 -0.238,0.618 0,0" style="fill:#0995d4;fill-opacity:1;fill-rule:nonzero;stroke:none" id="path1002"/>
          </g>
        </g>
      </g>
    </g>
  </g>
</svg>