<svg xmlns="http://www.w3.org/2000/svg" width="249.17404" height="365" viewBox="0 0 249.17404 365">
  <title>Seattle Sounders FC crest background</title>
  <g id="crest-outer">
    <path id="crest-outer-dark" d="M57.43981,258.35675a265.20173,265.20173,0,0,0-44.17712-34.05933s4.1334-10.2055,5.51885-15.31984C29.884,167.79659,20.02954,134.764,1.81291,97.0713c0,0,28.96793,3.20977,47.696,1.39685,26.8459-2.61434,50.81795-10.01854,75.08-22.09426,42.18485,20.98742,76.77075,25.79252,122.76462,20.69356-21.55617,44.593-29.97938,81.50726-11.44978,127.22613,0,0-10.86206,6.679-17.54111,11.62158C170.2469,271.53162,146.13741,309.01816,124.58894,365c-16.53349-42.94809-33.23109-74.42731-67.14913-106.64322" style="fill: #142530"/>
    <path id="crest-outer-light" d="M62.7716,252.74249c-12.13674-11.52606-25.56354-22.81942-39.88729-31.58227a93.53786,93.53786,0,0,0,3.36246-10.16741C35.78826,175.571,30.87635,139.43922,14.85806,106.296a188.09237,188.09237,0,0,0,35.39516-.14117A212.31225,212.31225,0,0,0,124.589,85.01856C156.35065,100.823,198.51254,110.34927,234.3085,106.296c-16.02589,33.14326-20.93793,69.275-11.38875,104.69682a92.50534,92.50534,0,0,0,3.37,10.1674s-5.49976,3.35478-12.51457,8.54914c-39.4942,29.22755-71.34369,67.424-89.18238,113.76893-13.816-35.857-34.26921-64.54248-61.82117-90.73578" style="fill: #fff"/>
    <path id="crest-outer-blue" d="M64.88594,250.51367c20.72792,19.69354,44.929,48.30274,59.703,84.50318,17.354-42.54743,50.54692-80.54541,87.34279-107.773,5.08371-3.76313,8.81249-6.23249,10.549-7.35843a129.06692,129.06692,0,0,1-6.85842-32.94864,151.27576,151.27576,0,0,1,13.5604-77.03409c-34.5936,2.3587-73.85111-6.29363-104.58991-21.4454-30.75032,15.148-70.004,23.8041-104.58619,21.4454,14.61763,31.59,18.26243,68.32469,9.2248,101.88773-1.04965,3.87-1.99612,6.62568-2.5305,8.095a263.92809,263.92809,0,0,1,38.185,30.62826" style="fill: #005595"/>
  </g>
  <g id="crest-inner">
    <path id="crest-inner-dark" d="M41.71546,137.93941c-9.656-52.65-8.469-105.75406-8.469-105.75406L124.58894,0l91.33112,32.18535s1.19466,53.10409-8.469,105.75406c-11.15983,60.92038-31.59,116.43278-82.86213,155.85057-51.28362-39.414-71.69088-94.92635-82.87348-155.85057" style="fill: #142530"/>
    <path id="crest-inner-light" d="M51.71492,136.22574a534.60961,534.60961,0,0,1-8.41181-96.50259l81.28583-28.655,81.26673,28.655a534.40643,534.40643,0,0,1-8.408,96.50259c-9.4384,51.45529-28.78087,110.63545-72.85875,144.51529-44.08931-33.87984-63.42037-93.06-72.874-144.51529" style="fill: #fff"/>
    <path id="crest-inner-green" d="M56.96658,135.26775c9.20942,50.2378,28.33816,107.40657,67.62236,138.737,58.99311-47.051,76.46547-158.79327,76.01134-230.49557L124.58894,16.732,48.56234,43.50923a524.99574,524.99574,0,0,0,8.40424,91.75853" style="fill: #5d9741"/>
  </g>
</svg>