<svg xmlns="http://www.w3.org/2000/svg" xmlns:xlink="http://www.w3.org/1999/xlink" width="305.81pt" height="575.51pt" viewBox="0 0 305.81 575.51" version="1.1">
<defs>
<clipPath id="clip1">
  <path d="M 0 0 L 305.808594 0 L 305.808594 575.511719 L 0 575.511719 Z M 0 0 "/>
</clipPath>
</defs>
<g id="surface1">
<g clip-path="url(#clip1)" clip-rule="nonzero">
<path style=" stroke:none;fill-rule:nonzero;fill:rgb(0%,0%,0%);fill-opacity:1;" d="M 109.351563 93.269531 C 113.6875 89.71875 129.078125 90.902344 129.078125 90.902344 L 130.972656 127.617188 C 125.972656 127.808594 121.242188 128.058594 116.777344 128.351563 C 116.769531 128.351563 116.769531 128.351563 116.761719 128.355469 C 112.308594 128.644531 108.125 128.976563 104.210938 129.34375 C 104.203125 129.34375 104.195313 129.34375 104.1875 129.34375 C 103.074219 121.871094 100.722656 100.332031 109.351563 93.269531 M 176.734375 90.902344 C 176.734375 90.902344 192.121094 89.71875 196.464844 93.269531 C 205.09375 100.332031 202.734375 121.871094 201.621094 129.34375 C 201.617188 129.34375 201.609375 129.34375 201.601563 129.34375 C 197.683594 128.976563 193.503906 128.644531 189.050781 128.355469 C 189.046875 128.351563 189.042969 128.351563 189.035156 128.351563 C 184.570313 128.058594 179.839844 127.808594 174.839844 127.617188 Z M 304.628906 167.882813 L 239.289063 167.882813 C 240.664063 167.363281 241.820313 166.285156 242.34375 164.789063 C 243.269531 162.121094 241.855469 159.195313 239.1875 158.261719 C 238.9375 158.171875 237.113281 157.558594 233.539063 156.699219 L 243.023438 151.746094 L 237.601563 144.96875 C 239.183594 145.328125 240.03125 145.550781 240.078125 145.5625 C 242.804688 146.3125 245.632813 144.707031 246.386719 141.980469 C 246.90625 140.09375 246.277344 138.164063 244.945313 136.90625 L 247.753906 135.09375 C 247.753906 135.09375 249.332031 141.800781 257.617188 138.25 C 257.878906 138.136719 258.085938 138.007813 258.324219 137.890625 C 261.703125 137.039063 264.226563 134 264.226563 130.355469 C 264.226563 128.078125 263.226563 126.050781 261.660156 124.625 C 262.332031 123.433594 263.125 121.648438 263.929688 118.914063 C 264.355469 117.472656 264.578125 115.015625 264.664063 112.058594 C 268.507813 110.890625 271.328125 107.351563 271.328125 103.132813 C 271.328125 99.046875 268.6875 95.605469 265.035156 94.324219 C 270.054688 94.152344 274.089844 90.042969 274.089844 84.984375 C 274.089844 79.816406 269.886719 75.617188 264.71875 75.617188 C 264.011719 75.617188 263.324219 75.710938 262.65625 75.863281 C 264.644531 73.992188 265.898438 71.355469 265.898438 68.410156 C 265.898438 62.757813 261.300781 58.15625 255.644531 58.15625 C 252.644531 58.15625 249.964844 59.472656 248.089844 61.53125 C 247.785156 56.144531 243.351563 51.84375 237.890625 51.84375 C 232.417969 51.84375 227.976563 56.15625 227.6875 61.554688 L 227.492188 61.519531 C 226.824219 57.167969 223.089844 53.816406 218.558594 53.816406 C 215.296875 53.816406 212.453125 55.5625 210.855469 58.152344 C 211.226563 57.164063 211.453125 56.113281 211.453125 55 C 211.453125 49.996094 207.382813 45.925781 202.378906 45.925781 C 197.601563 45.925781 193.714844 49.652344 193.371094 54.34375 C 191.742188 51.894531 188.964844 50.265625 185.808594 50.265625 C 183.730469 50.265625 181.839844 50.996094 180.308594 52.171875 L 176.519531 51.074219 L 176.269531 48.746094 C 176.269531 48.746094 175.40625 47.214844 173.738281 46.984375 C 172.074219 46.75 170.226563 48.265625 170.226563 48.265625 C 170.226563 48.265625 170.042969 48.65625 169.820313 49.140625 L 169.414063 49.023438 C 168.976563 43.15625 165.480469 38.136719 160.507813 35.554688 C 159.898438 32.515625 158.152344 23.773438 157.835938 22.195313 C 159.523438 21.8125 165.972656 20.347656 165.972656 20.347656 L 166.6875 7.523438 C 166.6875 7.523438 160.59375 9.738281 158.328125 10.5625 C 158.40625 10.238281 160.832031 0 160.832031 0 L 144.980469 0 C 144.980469 0 147.40625 10.238281 147.480469 10.5625 C 145.21875 9.738281 139.125 7.523438 139.125 7.523438 L 139.839844 20.347656 C 139.839844 20.347656 146.289063 21.8125 147.976563 22.195313 C 147.660156 23.773438 145.914063 32.515625 145.304688 35.554688 C 140.335938 38.136719 136.839844 43.15625 136.398438 49.023438 L 135.996094 49.140625 C 135.769531 48.65625 135.585938 48.265625 135.585938 48.265625 C 135.585938 48.265625 133.738281 46.75 132.074219 46.984375 C 130.40625 47.214844 129.539063 48.746094 129.539063 48.746094 L 129.289063 51.074219 L 125.503906 52.171875 C 123.972656 50.996094 122.078125 50.265625 120.003906 50.265625 C 116.847656 50.265625 114.066406 51.894531 112.4375 54.34375 C 112.101563 49.652344 108.210938 45.925781 103.433594 45.925781 C 98.429688 45.925781 94.359375 49.996094 94.359375 55 C 94.359375 56.113281 94.585938 57.164063 94.953125 58.152344 C 93.355469 55.5625 90.515625 53.816406 87.253906 53.816406 C 82.722656 53.816406 78.988281 57.167969 78.320313 61.519531 L 78.125 61.554688 C 77.835938 56.15625 73.394531 51.84375 67.925781 51.84375 C 62.460938 51.84375 58.027344 56.144531 57.722656 61.53125 C 55.847656 59.472656 53.167969 58.15625 50.167969 58.15625 C 44.511719 58.15625 39.914063 62.757813 39.914063 68.410156 C 39.914063 71.355469 41.171875 73.992188 43.160156 75.863281 C 42.492188 75.710938 41.800781 75.617188 41.09375 75.617188 C 35.925781 75.617188 31.722656 79.816406 31.722656 84.984375 C 31.722656 90.042969 35.761719 94.152344 40.777344 94.324219 C 37.125 95.605469 34.480469 99.046875 34.480469 103.132813 C 34.480469 107.351563 37.304688 110.890625 41.148438 112.058594 C 41.234375 115.015625 41.457031 117.472656 41.882813 118.914063 C 42.6875 121.648438 43.480469 123.433594 44.152344 124.625 C 42.585938 126.050781 41.585938 128.078125 41.585938 130.355469 C 41.585938 134 44.109375 137.039063 47.492188 137.890625 C 47.726563 138.007813 47.933594 138.136719 48.195313 138.25 C 56.480469 141.800781 58.058594 135.09375 58.058594 135.09375 L 60.867188 136.90625 C 59.535156 138.164063 58.90625 140.09375 59.425781 141.980469 C 60.179688 144.707031 63.007813 146.3125 65.734375 145.5625 C 65.78125 145.550781 66.628906 145.328125 68.210938 144.96875 L 62.789063 151.746094 L 72.277344 156.699219 C 68.699219 157.558594 66.875 158.171875 66.621094 158.261719 C 63.957031 159.195313 62.542969 162.121094 63.46875 164.789063 C 63.992188 166.285156 65.148438 167.363281 66.523438 167.882813 L 0 167.882813 L 0.015625 517.9375 L 0.148438 518.664063 C 0.3125 519.621094 4.558594 542.269531 27.773438 547.726563 C 37.429688 550 58.035156 550.257813 79.976563 550.523438 C 98.695313 550.761719 119.898438 551.023438 126.402344 552.757813 C 141.050781 556.664063 152.90625 575.511719 152.90625 575.511719 C 152.90625 575.511719 164.761719 556.664063 179.410156 552.757813 C 185.910156 551.023438 207.117188 550.761719 225.835938 550.523438 C 247.777344 550.257813 268.382813 550 278.039063 547.726563 C 301.253906 542.269531 305.496094 519.621094 305.664063 518.664063 L 305.796875 517.9375 L 305.8125 167.882813 "/>
</g>
<path style=" stroke:none;fill-rule:nonzero;fill:rgb(100%,89.399719%,0%);fill-opacity:1;" d="M 303.296875 170.398438 C 303.296875 175.355469 303.277344 517.273438 303.277344 517.714844 C 303.238281 517.929688 303.1875 518.222656 303.1875 518.222656 C 303.03125 519.121094 299.089844 540.195313 277.464844 545.277344 C 268.050781 547.496094 247.527344 547.746094 225.804688 548.007813 C 225.800781 548.007813 225.554688 548.011719 225.554688 548.011719 C 205.882813 548.261719 185.539063 548.523438 178.761719 550.328125 C 166.902344 553.488281 157.066406 565.371094 152.90625 571.082031 C 148.746094 565.371094 138.90625 553.488281 127.050781 550.328125 C 120.273438 548.523438 99.929688 548.261719 80.257813 548.011719 L 80.007813 548.007813 C 58.28125 547.746094 37.761719 547.496094 28.347656 545.277344 C 6.722656 540.195313 2.78125 519.121094 2.625 518.226563 C 2.625 518.226563 2.570313 517.929688 2.53125 517.714844 C 2.53125 517.273438 2.511719 175.355469 2.511719 170.398438 "/>
<path style=" stroke:none;fill-rule:nonzero;fill:rgb(0%,0%,0%);fill-opacity:1;" d="M 297.285156 176.410156 L 8.527344 176.410156 C 8.527344 180.046875 8.53125 214.992188 8.53125 261.230469 L 297.277344 261.230469 C 297.28125 214.992188 297.285156 180.046875 297.285156 176.410156 "/>
<path style=" stroke:none;fill-rule:nonzero;fill:rgb(0%,0%,0%);fill-opacity:1;" d="M 297.265625 517.1875 C 297.132813 517.929688 293.863281 535.246094 276.082031 539.421875 C 267.316406 541.488281 246.175781 541.746094 225.753906 542 L 225.441406 542 C 200.835938 542.3125 184.1875 542.660156 177.210938 544.515625 C 167.183594 547.191406 158.695313 554.820313 152.90625 561.449219 C 147.117188 554.820313 138.632813 547.191406 128.601563 544.515625 C 121.621094 542.660156 104.972656 542.3125 80.304688 542 C 80.304688 542 80.007813 542 80.074219 542 C 59.632813 541.746094 38.496094 541.488281 29.722656 539.421875 C 11.980469 535.253906 8.695313 518.011719 8.542969 517.167969 C 8.542969 516.445313 8.539063 366.808594 8.535156 266 L 297.277344 266 C 297.273438 366.820313 297.265625 516.488281 297.265625 517.1875 "/>
<path style=" stroke:none;fill-rule:nonzero;fill:rgb(100%,89.399719%,0%);fill-opacity:1;" d="M 255.644531 60.523438 C 259.996094 60.523438 263.535156 64.0625 263.535156 68.414063 C 263.535156 72.761719 259.996094 76.304688 255.644531 76.304688 C 251.292969 76.304688 247.753906 72.761719 247.753906 68.414063 C 247.753906 64.0625 251.292969 60.523438 255.644531 60.523438 "/>
<path style=" stroke:none;fill-rule:nonzero;fill:rgb(100%,89.399719%,0%);fill-opacity:1;" d="M 249.429688 84.480469 C 248.554688 81.5625 245.1875 76.804688 238.113281 77.476563 C 236.8125 77.601563 235.65625 76.648438 235.53125 75.34375 C 235.410156 74.046875 236.363281 72.890625 237.664063 72.761719 C 247.789063 71.800781 252.679688 78.820313 253.96875 83.121094 C 255.695313 88.878906 249.996094 108.597656 248.839844 112.492188 C 248.464844 113.742188 247.148438 114.457031 245.894531 114.085938 C 244.640625 113.710938 243.929688 112.394531 244.300781 111.140625 C 247.015625 102.015625 250.402344 87.714844 249.429688 84.480469 "/>
<path style=" stroke:none;fill-rule:nonzero;fill:rgb(100%,89.399719%,0%);fill-opacity:1;" d="M 225.265625 117.117188 C 223.347656 116.554688 221.902344 117.238281 220.035156 117.238281 C 216.023438 117.238281 213.441406 113.390625 214.636719 109.644531 C 215.191406 107.894531 217.152344 106.585938 218.949219 107.28125 C 220.875 108.03125 222.039063 109.867188 223.3125 111.390625 C 224.839844 113.222656 226.664063 112.902344 228.816406 112.582031 C 229.765625 112.441406 230.546875 112.3125 231.480469 112.726563 C 232.03125 112.972656 232.859375 114.476563 232.859375 114.476563 C 233.082031 116.011719 231.851563 117.257813 230.394531 117.855469 C 228.511719 118.628906 227.015625 117.632813 225.265625 117.117188 "/>
<path style=" stroke:none;fill-rule:nonzero;fill:rgb(100%,89.399719%,0%);fill-opacity:1;" d="M 228.023438 125.226563 C 228.023438 128.929688 225.019531 131.933594 221.316406 131.933594 C 217.621094 131.933594 214.609375 128.929688 214.609375 125.226563 C 214.609375 121.53125 217.621094 118.523438 221.316406 118.523438 C 225.019531 118.523438 228.023438 121.53125 228.023438 125.226563 "/>
<path style=" stroke:none;fill-rule:nonzero;fill:rgb(100%,89.399719%,0%);fill-opacity:1;" d="M 219.742188 98.003906 C 219.742188 94.308594 222.746094 91.296875 226.449219 91.296875 C 230.144531 91.296875 233.15625 94.308594 233.15625 98.003906 C 233.15625 101.703125 230.144531 104.710938 226.449219 104.710938 C 222.746094 104.710938 219.742188 101.703125 219.742188 98.003906 "/>
<path style=" stroke:none;fill-rule:nonzero;fill:rgb(100%,89.399719%,0%);fill-opacity:1;" d="M 230.394531 121.285156 C 230.394531 121.285156 234.140625 121.507813 235.574219 117.96875 C 236.613281 115.398438 236.035156 112.777344 234.792969 110.914063 C 233.15625 108.460938 227.4375 108.65625 227.4375 108.65625 C 230.984375 108.65625 236.902344 104.910156 235.085938 98.816406 L 235.964844 99.15625 C 235.964844 99.15625 246.9375 104.644531 238.316406 122.277344 C 238.316406 122.277344 234.734375 132.328125 233.550781 134.304688 C 233.550781 134.304688 230 133.511719 228.027344 133.121094 C 228.027344 133.121094 234.734375 124.042969 230.394531 121.285156 "/>
<path style=" stroke:none;fill-rule:nonzero;fill:rgb(100%,89.399719%,0%);fill-opacity:1;" d="M 237.886719 54.210938 C 242.238281 54.210938 245.777344 57.75 245.777344 62.101563 C 245.777344 66.453125 242.238281 69.992188 237.886719 69.992188 C 233.539063 69.992188 229.996094 66.453125 229.996094 62.101563 C 229.996094 57.75 233.539063 54.210938 237.886719 54.210938 "/>
<path style=" stroke:none;fill-rule:nonzero;fill:rgb(100%,89.399719%,0%);fill-opacity:1;" d="M 233.941406 78.671875 C 233.941406 82.367188 230.933594 85.378906 227.238281 85.378906 C 223.539063 85.378906 220.527344 82.367188 220.527344 78.671875 C 220.527344 74.972656 223.539063 71.96875 227.238281 71.96875 C 230.933594 71.96875 233.941406 74.972656 233.941406 78.671875 "/>
<path style=" stroke:none;fill-rule:nonzero;fill:rgb(100%,89.399719%,0%);fill-opacity:1;" d="M 218.554688 56.183594 C 222.257813 56.183594 225.265625 59.195313 225.265625 62.890625 C 225.265625 66.589844 222.257813 69.597656 218.554688 69.597656 C 214.859375 69.597656 211.851563 66.589844 211.851563 62.890625 C 211.851563 59.195313 214.859375 56.183594 218.554688 56.183594 "/>
<path style=" stroke:none;fill-rule:nonzero;fill:rgb(100%,89.399719%,0%);fill-opacity:1;" d="M 202.378906 48.292969 C 206.078125 48.292969 209.085938 51.300781 209.085938 55 C 209.085938 58.695313 206.078125 61.707031 202.378906 61.707031 C 198.679688 61.707031 195.671875 58.695313 195.671875 55 C 195.671875 51.300781 198.679688 48.292969 202.378906 48.292969 "/>
<path style=" stroke:none;fill-rule:nonzero;fill:rgb(100%,89.399719%,0%);fill-opacity:1;" d="M 185.808594 52.632813 C 189.507813 52.632813 192.515625 55.640625 192.515625 59.339844 C 192.515625 63.039063 189.507813 66.046875 185.808594 66.046875 C 182.109375 66.046875 179.101563 63.039063 179.101563 59.339844 C 179.101563 55.640625 182.109375 52.632813 185.808594 52.632813 "/>
<path style=" stroke:none;fill-rule:nonzero;fill:rgb(100%,89.399719%,0%);fill-opacity:1;" d="M 176.511719 75.347656 C 177.132813 75.054688 191.792969 68.125 197.113281 66.894531 C 203.335938 65.460938 208.359375 67.972656 210.792969 69.601563 C 214.054688 71.773438 216.132813 75.769531 217.332031 82.183594 C 218.582031 88.84375 211.757813 113.597656 210.972656 116.398438 C 210.621094 117.65625 209.316406 118.390625 208.054688 118.039063 C 206.796875 117.6875 206.0625 116.382813 206.414063 115.125 C 209.253906 104.953125 213.46875 87.257813 212.683594 83.054688 C 211.742188 78.050781 210.265625 74.941406 208.171875 73.539063 C 206.359375 72.339844 202.664063 70.476563 198.175781 71.511719 C 194.175781 72.433594 182.644531 77.683594 178.535156 79.628906 C 177.355469 80.1875 175.945313 79.683594 175.386719 78.503906 C 174.824219 77.320313 175.328125 75.910156 176.511719 75.347656 "/>
<path style=" stroke:none;fill-rule:nonzero;fill:rgb(100%,89.399719%,0%);fill-opacity:1;" d="M 171.015625 50.976563 C 171.054688 49.996094 171.882813 49.238281 172.867188 49.28125 C 173.847656 49.324219 174.605469 50.152344 174.558594 51.132813 L 172.1875 104.78125 L 170.40625 104.039063 C 170.335938 104.007813 169.675781 103.738281 168.695313 103.398438 "/>
<path style=" stroke:none;fill-rule:nonzero;fill:rgb(100%,89.399719%,0%);fill-opacity:1;" d="M 137.558594 113.3125 C 137.601563 114.292969 136.84375 115.125 135.863281 115.167969 C 134.882813 115.207031 134.054688 114.449219 134.011719 113.472656 L 133.65625 105.523438 L 134.425781 106.886719 C 134.507813 107.03125 135.550781 108.847656 137.4375 110.632813 "/>
<path style=" stroke:none;fill-rule:nonzero;fill:rgb(100%,89.399719%,0%);fill-opacity:1;" d="M 141.070313 81.039063 C 141.070313 74.515625 146.382813 69.203125 152.90625 69.203125 C 159.433594 69.203125 164.742188 74.515625 164.742188 81.039063 C 164.742188 81.40625 164.71875 81.765625 164.6875 82.125 C 162.132813 78.339844 157.804688 75.847656 152.90625 75.847656 C 148.007813 75.847656 143.679688 78.339844 141.128906 82.125 C 141.09375 81.765625 141.070313 81.40625 141.070313 81.039063 "/>
<path style=" stroke:none;fill-rule:nonzero;fill:rgb(100%,89.399719%,0%);fill-opacity:1;" d="M 139.15625 53.757813 L 166.65625 53.757813 C 165.09375 59.902344 159.53125 64.46875 152.90625 64.46875 C 146.28125 64.46875 140.71875 59.902344 139.15625 53.757813 "/>
<path style=" stroke:none;fill-rule:nonzero;fill:rgb(100%,89.399719%,0%);fill-opacity:1;" d="M 159.609375 119.703125 C 159.609375 123.402344 156.605469 126.40625 152.90625 126.410156 C 149.210938 126.40625 146.203125 123.402344 146.203125 119.703125 C 146.203125 117.222656 147.574219 115.078125 149.582031 113.917969 C 150.242188 113.535156 150.964844 113.253906 151.738281 113.117188 C 152.121094 113.046875 152.507813 113 152.90625 113 C 153.304688 113 153.691406 113.046875 154.070313 113.117188 C 154.851563 113.253906 155.570313 113.535156 156.230469 113.917969 C 158.238281 115.078125 159.609375 117.222656 159.609375 119.703125 "/>
<path style=" stroke:none;fill-rule:nonzero;fill:rgb(100%,89.399719%,0%);fill-opacity:1;" d="M 141.128906 88.96875 C 141.234375 87.765625 141.523438 86.613281 141.964844 85.546875 C 143.742188 81.25 147.976563 78.21875 152.90625 78.214844 C 157.835938 78.21875 162.066406 81.25 163.84375 85.546875 C 164.285156 86.613281 164.574219 87.765625 164.6875 88.96875 C 164.71875 89.324219 164.738281 89.683594 164.738281 90.050781 C 164.738281 96.574219 159.433594 101.886719 152.90625 101.886719 C 146.378906 101.886719 141.070313 96.574219 141.070313 90.050781 C 141.070313 89.683594 141.09375 89.324219 141.128906 88.96875 "/>
<path style=" stroke:none;fill-rule:nonzero;fill:rgb(100%,89.399719%,0%);fill-opacity:1;" d="M 157.855469 112.121094 C 156.867188 111.472656 155.75 111.019531 154.546875 110.796875 C 154.246094 110.246094 154.246094 109.53125 154.246094 108.65625 C 154.246094 106.289063 157.796875 103.921875 161.347656 103.921875 C 163.882813 103.921875 167.011719 104.925781 168.601563 105.503906 C 169.238281 105.730469 169.632813 105.894531 169.632813 105.894531 C 169.632813 105.894531 169.242188 106.585938 168.511719 107.503906 C 167.03125 109.371094 164.132813 112.207031 160.160156 112.207031 C 159.257813 112.207031 158.503906 112.175781 157.855469 112.121094 "/>
<path style=" stroke:none;fill-rule:nonzero;fill:rgb(100%,89.399719%,0%);fill-opacity:1;" d="M 144.464844 103.921875 C 148.015625 103.921875 151.566406 106.289063 151.566406 108.65625 C 151.566406 109.53125 151.566406 110.246094 151.265625 110.796875 C 150.0625 111.019531 148.941406 111.472656 147.957031 112.121094 C 147.308594 112.175781 146.554688 112.207031 145.652344 112.207031 C 141.679688 112.207031 138.78125 109.375 137.300781 107.503906 C 136.570313 106.585938 136.179688 105.894531 136.179688 105.894531 C 136.179688 105.894531 136.574219 105.734375 137.210938 105.503906 C 138.796875 104.925781 141.929688 103.921875 144.464844 103.921875 "/>
<path style=" stroke:none;fill-rule:nonzero;fill:rgb(100%,89.399719%,0%);fill-opacity:1;" d="M 168.375 110.632813 C 170.261719 108.847656 171.304688 107.03125 171.386719 106.886719 L 172.152344 105.523438 L 171.800781 113.472656 C 171.761719 114.449219 170.929688 115.207031 169.949219 115.167969 C 168.96875 115.125 168.210938 114.292969 168.253906 113.3125 "/>
<path style=" stroke:none;fill-rule:nonzero;fill:rgb(100%,89.399719%,0%);fill-opacity:1;" d="M 166.191406 76.0625 C 165.894531 75.269531 165.527344 74.507813 165.09375 73.789063 C 165.09375 73.78125 165.085938 73.777344 165.082031 73.769531 C 164.65625 73.054688 164.171875 72.382813 163.632813 71.761719 C 163.621094 71.742188 163.605469 71.730469 163.589844 71.714844 C 163.050781 71.09375 162.460938 70.519531 161.824219 70 C 161.820313 70 161.820313 69.996094 161.816406 69.992188 C 161.167969 69.46875 160.472656 69 159.734375 68.59375 C 162.761719 66.902344 165.867188 64.417969 167.265625 60.917969 C 167.265625 60.917969 169.84375 68.71875 166.191406 76.0625 "/>
<path style=" stroke:none;fill-rule:nonzero;fill:rgb(100%,89.399719%,0%);fill-opacity:1;" d="M 166.65625 46.773438 L 156.398438 46.773438 L 156.398438 36.515625 C 161.425781 37.792969 165.378906 41.746094 166.65625 46.773438 "/>
<path style=" stroke:none;fill-rule:nonzero;fill:rgb(100%,89.399719%,0%);fill-opacity:1;" d="M 158.324219 10.453125 C 158.324219 10.453125 158.316406 10.511719 158.308594 10.570313 C 158.308594 10.558594 158.324219 10.453125 158.324219 10.453125 "/>
<path style=" stroke:none;fill-rule:nonzero;fill:rgb(100%,89.399719%,0%);fill-opacity:1;" d="M 147.503906 10.570313 C 147.496094 10.511719 147.488281 10.453125 147.488281 10.453125 C 147.488281 10.453125 147.503906 10.558594 147.503906 10.570313 "/>
<path style=" stroke:none;fill-rule:nonzero;fill:rgb(100%,89.399719%,0%);fill-opacity:1;" d="M 142.105469 18.433594 C 142.039063 17.238281 141.808594 13.144531 141.6875 10.972656 C 143.859375 11.761719 150.34375 14.125 150.34375 14.125 L 149.847656 10.335938 C 149.828125 10.210938 148.589844 4.980469 147.972656 2.367188 L 157.839844 2.367188 C 157.222656 4.980469 155.980469 10.210938 155.964844 10.335938 L 155.464844 14.125 C 155.464844 14.125 161.953125 11.761719 164.128906 10.972656 C 164.003906 13.144531 163.773438 17.238281 163.707031 18.433594 C 162.3125 18.75 155.0625 20.398438 155.0625 20.398438 C 155.0625 20.398438 157.375 31.953125 157.832031 34.246094 L 147.980469 34.246094 C 148.4375 31.953125 150.746094 20.398438 150.746094 20.398438 C 150.746094 20.398438 143.5 18.75 142.105469 18.433594 "/>
<path style=" stroke:none;fill-rule:nonzero;fill:rgb(100%,89.399719%,0%);fill-opacity:1;" d="M 149.414063 36.515625 L 149.414063 46.773438 L 139.15625 46.773438 C 140.433594 41.746094 144.386719 37.789063 149.414063 36.515625 "/>
<path style=" stroke:none;fill-rule:nonzero;fill:rgb(100%,89.399719%,0%);fill-opacity:1;" d="M 138.78125 48.785156 L 151.429688 48.785156 L 151.429688 36.136719 C 151.917969 36.089844 152.40625 36.0625 152.90625 36.0625 C 153.40625 36.0625 153.894531 36.089844 154.382813 36.136719 L 154.382813 48.785156 L 167.03125 48.785156 C 167.078125 49.269531 167.109375 49.765625 167.109375 50.265625 C 167.109375 50.765625 167.078125 51.257813 167.03125 51.746094 L 138.78125 51.746094 C 138.734375 51.257813 138.703125 50.765625 138.703125 50.265625 C 138.703125 49.765625 138.734375 49.269531 138.78125 48.785156 "/>
<path style=" stroke:none;fill-rule:nonzero;fill:rgb(100%,89.399719%,0%);fill-opacity:1;" d="M 138.546875 60.917969 C 139.945313 64.417969 143.050781 66.902344 146.074219 68.59375 C 145.34375 69 144.644531 69.46875 143.996094 69.992188 C 143.996094 69.996094 143.992188 69.996094 143.988281 70 C 143.351563 70.519531 142.761719 71.09375 142.21875 71.714844 C 142.207031 71.730469 142.191406 71.742188 142.179688 71.757813 C 141.640625 72.382813 141.15625 73.054688 140.726563 73.769531 C 140.726563 73.773438 140.71875 73.78125 140.714844 73.789063 C 140.289063 74.507813 139.921875 75.269531 139.621094 76.0625 C 135.96875 68.71875 138.546875 60.917969 138.546875 60.917969 "/>
<path style=" stroke:none;fill-rule:nonzero;fill:rgb(100%,89.399719%,0%);fill-opacity:1;" d="M 132.945313 49.28125 C 133.925781 49.238281 134.757813 49.996094 134.796875 50.976563 L 137.117188 103.398438 C 136.136719 103.738281 135.476563 104.007813 135.40625 104.035156 L 133.628906 104.78125 L 131.253906 51.132813 C 131.207031 50.15625 131.964844 49.324219 132.945313 49.28125 "/>
<path style=" stroke:none;fill-rule:nonzero;fill:rgb(100%,89.399719%,0%);fill-opacity:1;" d="M 120.003906 52.632813 C 123.699219 52.632813 126.710938 55.640625 126.710938 59.339844 C 126.710938 63.039063 123.699219 66.046875 120.003906 66.046875 C 116.304688 66.046875 113.296875 63.039063 113.296875 59.339844 C 113.296875 55.640625 116.304688 52.632813 120.003906 52.632813 "/>
<path style=" stroke:none;fill-rule:nonzero;fill:rgb(100%,89.399719%,0%);fill-opacity:1;" d="M 103.433594 48.292969 C 107.132813 48.292969 110.140625 51.300781 110.140625 55 C 110.140625 58.695313 107.132813 61.707031 103.433594 61.707031 C 99.734375 61.707031 96.726563 58.695313 96.726563 55 C 96.726563 51.300781 99.734375 48.292969 103.433594 48.292969 "/>
<path style=" stroke:none;fill-rule:nonzero;fill:rgb(100%,89.399719%,0%);fill-opacity:1;" d="M 95.019531 69.601563 C 97.457031 67.976563 102.480469 65.460938 108.699219 66.894531 C 114.019531 68.125 128.679688 75.054688 129.300781 75.347656 C 130.484375 75.910156 130.984375 77.320313 130.429688 78.503906 C 129.867188 79.683594 128.457031 80.1875 127.273438 79.628906 C 123.171875 77.683594 111.636719 72.433594 107.636719 71.511719 C 103.144531 70.476563 99.449219 72.339844 97.644531 73.539063 C 95.546875 74.941406 94.070313 78.050781 93.128906 83.054688 C 92.34375 87.257813 96.558594 104.953125 99.398438 115.125 C 99.75 116.382813 99.015625 117.6875 97.757813 118.039063 C 96.496094 118.394531 95.191406 117.65625 94.839844 116.398438 C 94.054688 113.597656 87.226563 88.84375 88.480469 82.183594 C 89.679688 75.769531 91.757813 71.773438 95.019531 69.601563 "/>
<path style=" stroke:none;fill-rule:nonzero;fill:rgb(100%,89.399719%,0%);fill-opacity:1;" d="M 85.773438 117.238281 C 83.910156 117.238281 82.464844 116.554688 80.546875 117.117188 C 78.796875 117.632813 77.296875 118.628906 75.417969 117.855469 C 73.960938 117.257813 72.730469 116.011719 72.953125 114.476563 C 72.953125 114.476563 73.78125 112.972656 74.332031 112.722656 C 75.261719 112.3125 76.042969 112.441406 76.992188 112.582031 C 79.148438 112.902344 80.972656 113.222656 82.5 111.390625 C 83.773438 109.867188 84.9375 108.03125 86.859375 107.28125 C 88.660156 106.585938 90.621094 107.894531 91.175781 109.644531 C 92.371094 113.390625 89.789063 117.238281 85.773438 117.238281 "/>
<path style=" stroke:none;fill-rule:nonzero;fill:rgb(100%,89.399719%,0%);fill-opacity:1;" d="M 91.203125 125.226563 C 91.203125 128.929688 88.195313 131.933594 84.492188 131.933594 C 80.792969 131.933594 77.789063 128.929688 77.789063 125.226563 C 77.789063 121.53125 80.792969 118.523438 84.492188 118.523438 C 88.195313 118.523438 91.203125 121.53125 91.203125 125.226563 "/>
<path style=" stroke:none;fill-rule:nonzero;fill:rgb(100%,89.399719%,0%);fill-opacity:1;" d="M 61.511719 111.140625 C 61.886719 112.394531 61.171875 113.710938 59.917969 114.085938 C 58.664063 114.457031 57.347656 113.742188 56.972656 112.492188 C 55.8125 108.597656 50.117188 88.878906 51.84375 83.121094 C 53.136719 78.820313 58.023438 71.800781 68.148438 72.761719 C 69.449219 72.890625 70.402344 74.046875 70.28125 75.34375 C 70.15625 76.648438 69 77.601563 67.699219 77.476563 C 60.625 76.804688 57.257813 81.5625 56.382813 84.480469 C 55.410156 87.71875 58.796875 102.015625 61.511719 111.140625 "/>
<path style=" stroke:none;fill-rule:nonzero;fill:rgb(100%,89.399719%,0%);fill-opacity:1;" d="M 69.84375 99.15625 L 70.726563 98.816406 C 68.90625 104.910156 74.828125 108.65625 78.378906 108.65625 C 78.378906 108.65625 72.65625 108.460938 71.019531 110.914063 C 69.777344 112.777344 69.199219 115.398438 70.238281 117.96875 C 71.671875 121.503906 75.417969 121.28125 75.417969 121.28125 C 71.078125 124.042969 77.785156 133.121094 77.785156 133.121094 C 75.808594 133.515625 72.261719 134.304688 72.261719 134.304688 C 71.078125 132.328125 67.492188 122.277344 67.492188 122.277344 C 58.871094 104.644531 69.84375 99.15625 69.84375 99.15625 "/>
<path style=" stroke:none;fill-rule:nonzero;fill:rgb(100%,89.399719%,0%);fill-opacity:1;" d="M 72.65625 98.003906 C 72.65625 94.308594 75.664063 91.296875 79.363281 91.296875 C 83.0625 91.296875 86.070313 94.308594 86.070313 98.003906 C 86.070313 101.703125 83.0625 104.710938 79.363281 104.710938 C 75.664063 104.710938 72.65625 101.703125 72.65625 98.003906 "/>
<path style=" stroke:none;fill-rule:nonzero;fill:rgb(100%,89.399719%,0%);fill-opacity:1;" d="M 87.253906 56.183594 C 90.953125 56.183594 93.960938 59.195313 93.960938 62.890625 C 93.960938 66.589844 90.953125 69.597656 87.253906 69.597656 C 83.554688 69.597656 80.546875 66.589844 80.546875 62.890625 C 80.546875 59.195313 83.554688 56.183594 87.253906 56.183594 "/>
<path style=" stroke:none;fill-rule:nonzero;fill:rgb(100%,89.399719%,0%);fill-opacity:1;" d="M 78.578125 71.96875 C 82.273438 71.96875 85.285156 74.972656 85.285156 78.671875 C 85.285156 82.367188 82.273438 85.378906 78.578125 85.378906 C 74.878906 85.378906 71.867188 82.367188 71.867188 78.671875 C 71.867188 74.972656 74.878906 71.96875 78.578125 71.96875 "/>
<path style=" stroke:none;fill-rule:nonzero;fill:rgb(100%,89.399719%,0%);fill-opacity:1;" d="M 67.925781 54.210938 C 72.273438 54.210938 75.816406 57.75 75.816406 62.101563 C 75.816406 66.453125 72.273438 69.992188 67.925781 69.992188 C 63.574219 69.992188 60.03125 66.453125 60.03125 62.101563 C 60.03125 57.75 63.574219 54.210938 67.925781 54.210938 "/>
<path style=" stroke:none;fill-rule:nonzero;fill:rgb(100%,89.399719%,0%);fill-opacity:1;" d="M 42.277344 68.410156 C 42.277344 64.0625 45.816406 60.523438 50.167969 60.523438 C 54.519531 60.523438 58.058594 64.0625 58.058594 68.410156 C 58.058594 72.761719 54.519531 76.304688 50.167969 76.304688 C 45.816406 76.304688 42.277344 72.761719 42.277344 68.410156 "/>
<path style=" stroke:none;fill-rule:nonzero;fill:rgb(100%,89.399719%,0%);fill-opacity:1;" d="M 33.886719 84.984375 C 33.886719 81.011719 37.117188 77.777344 41.09375 77.777344 C 45.066406 77.777344 48.300781 81.011719 48.300781 84.984375 C 48.300781 88.960938 45.066406 92.195313 41.09375 92.195313 C 37.117188 92.195313 33.886719 88.960938 33.886719 84.984375 "/>
<path style=" stroke:none;fill-rule:nonzero;fill:rgb(100%,89.399719%,0%);fill-opacity:1;" d="M 36.648438 103.132813 C 36.648438 99.160156 39.878906 95.925781 43.851563 95.925781 C 47.828125 95.925781 51.0625 99.160156 51.0625 103.132813 C 51.0625 107.109375 47.828125 110.34375 43.851563 110.34375 C 39.878906 110.34375 36.648438 107.109375 36.648438 103.132813 "/>
<path style=" stroke:none;fill-rule:nonzero;fill:rgb(100%,89.399719%,0%);fill-opacity:1;" d="M 43.832031 118.238281 C 43.832031 118.238281 42.816406 116.71875 43.832031 114.941406 C 43.832031 114.941406 48.90625 111.390625 53.980469 111.644531 C 53.980469 111.644531 58.039063 116.972656 55.503906 120.269531 C 55.503906 120.269531 47.382813 116.71875 43.832031 118.238281 "/>
<path style=" stroke:none;fill-rule:nonzero;fill:rgb(100%,89.399719%,0%);fill-opacity:1;" d="M 49.378906 135.984375 C 46.277344 135.984375 43.753906 133.460938 43.753906 130.359375 C 43.753906 127.257813 46.277344 124.734375 49.378906 124.734375 C 52.480469 124.734375 55.003906 127.257813 55.003906 130.359375 C 55.003906 133.460938 52.480469 135.984375 49.378906 135.984375 "/>
<path style=" stroke:none;fill-rule:nonzero;fill:rgb(100%,89.399719%,0%);fill-opacity:1;" d="M 58.171875 132.078125 C 58.171875 132.078125 58.859375 127.878906 57.550781 126.296875 C 56.242188 124.714844 50.394531 120.167969 45.78125 123.746094 C 45.78125 123.746094 44.332031 122.164063 44.195313 119.6875 C 44.195313 119.6875 51.496094 119.6875 56.449219 123.542969 C 56.449219 123.542969 59.339844 117.691406 58.308594 116.246094 C 58.308594 116.246094 61.890625 117.695313 62.785156 114.183594 C 62.785156 114.183594 68.632813 132.351563 70.011719 134.832031 C 70.011719 134.832031 65.054688 135.796875 64.226563 136.070313 C 64.226563 136.070313 58.515625 132.285156 58.171875 132.078125 "/>
<path style=" stroke:none;fill-rule:nonzero;fill:rgb(100%,89.399719%,0%);fill-opacity:1;" d="M 234.300781 152.964844 C 234.289063 152.96875 234.277344 152.972656 234.269531 152.980469 C 233.460938 153.402344 232.722656 153.785156 232.195313 154.0625 C 231.300781 152.660156 229.359375 149.605469 228.300781 147.941406 C 230 147.128906 232.738281 145.824219 234.015625 145.21875 C 234.371094 145.664063 234.929688 146.363281 235.558594 147.148438 C 235.570313 147.167969 235.59375 147.191406 235.609375 147.210938 C 236.574219 148.421875 237.6875 149.8125 238.46875 150.789063 C 237.320313 151.386719 235.703125 152.230469 234.300781 152.964844 "/>
<path style=" stroke:none;fill-rule:nonzero;fill:rgb(100%,89.399719%,0%);fill-opacity:1;" d="M 224.007813 146.707031 L 229.886719 155.945313 C 226.816406 155.367188 221.851563 154.503906 215.355469 153.585938 C 217.449219 152.273438 218.851563 149.96875 218.851563 147.324219 C 218.851563 145.074219 217.824219 143.082031 216.234375 141.726563 C 221.949219 142.523438 226.570313 143.296875 229.902344 143.898438 "/>
<path style=" stroke:none;fill-rule:nonzero;fill:rgb(100%,89.399719%,0%);fill-opacity:1;" d="M 211.453125 151.761719 C 209.007813 151.761719 207.015625 149.773438 207.015625 147.324219 C 207.015625 144.878906 209.007813 142.886719 211.453125 142.886719 C 213.902344 142.886719 215.894531 144.878906 215.894531 147.324219 C 215.894531 149.773438 213.902344 151.761719 211.453125 151.761719 "/>
<path style=" stroke:none;fill-rule:nonzero;fill:rgb(100%,89.399719%,0%);fill-opacity:1;" d="M 204.058594 147.324219 C 204.058594 149.285156 204.839844 151.058594 206.085938 152.386719 C 201.261719 151.816406 195.894531 151.265625 190.078125 150.785156 L 202.34375 144.65625 L 192.730469 139.105469 C 198.367188 139.582031 203.558594 140.128906 208.246094 140.691406 C 205.777344 141.890625 204.058594 144.398438 204.058594 147.324219 "/>
<path style=" stroke:none;fill-rule:nonzero;fill:rgb(100%,89.399719%,0%);fill-opacity:1;" d="M 188.289063 148.371094 C 187.351563 147.734375 183.75 145.285156 181.34375 143.648438 C 183.996094 142.472656 187.96875 140.707031 188.878906 140.300781 C 189.738281 140.796875 193.523438 142.980469 196.101563 144.46875 C 193.398438 145.820313 189.308594 147.863281 188.289063 148.371094 "/>
<path style=" stroke:none;fill-rule:nonzero;fill:rgb(100%,89.399719%,0%);fill-opacity:1;" d="M 175.28125 143.105469 L 186.132813 150.480469 C 178.511719 149.929688 170.195313 149.519531 161.34375 149.367188 C 163.609375 148.316406 165.195313 146.035156 165.195313 143.378906 C 165.195313 140.824219 163.722656 138.628906 161.59375 137.527344 C 170.117188 137.671875 178.132813 138.046875 185.523438 138.554688 "/>
<path style=" stroke:none;fill-rule:nonzero;fill:rgb(100%,89.399719%,0%);fill-opacity:1;" d="M 158.589844 139.730469 C 160.601563 139.730469 162.238281 141.367188 162.238281 143.378906 C 162.238281 145.390625 160.601563 147.027344 158.589844 147.027344 L 147.226563 147.027344 C 145.214844 147.027344 143.574219 145.390625 143.574219 143.378906 C 143.574219 141.367188 145.214844 139.730469 147.226563 139.730469 L 152.90625 139.730469 "/>
<path style=" stroke:none;fill-rule:nonzero;fill:rgb(100%,89.399719%,0%);fill-opacity:1;" d="M 140.617188 143.378906 C 140.617188 146.035156 142.203125 148.316406 144.46875 149.367188 C 135.617188 149.519531 127.304688 149.929688 119.683594 150.484375 L 130.53125 143.105469 L 120.289063 138.554688 C 127.679688 138.046875 135.695313 137.671875 144.21875 137.527344 C 142.089844 138.628906 140.617188 140.824219 140.617188 143.378906 "/>
<path style=" stroke:none;fill-rule:nonzero;fill:rgb(100%,89.399719%,0%);fill-opacity:1;" d="M 124.46875 143.648438 C 122.0625 145.285156 118.460938 147.734375 117.523438 148.371094 C 116.503906 147.863281 112.414063 145.820313 109.710938 144.46875 C 112.285156 142.984375 116.074219 140.796875 116.933594 140.300781 C 117.84375 140.707031 121.8125 142.472656 124.46875 143.648438 "/>
<path style=" stroke:none;fill-rule:nonzero;fill:rgb(100%,89.399719%,0%);fill-opacity:1;" d="M 103.46875 144.65625 L 115.734375 150.785156 C 109.914063 151.265625 104.550781 151.816406 99.726563 152.386719 C 100.972656 151.058594 101.753906 149.285156 101.753906 147.324219 C 101.753906 144.398438 100.035156 141.890625 97.566406 140.691406 C 102.253906 140.128906 107.445313 139.582031 113.082031 139.105469 "/>
<path style=" stroke:none;fill-rule:nonzero;fill:rgb(100%,89.399719%,0%);fill-opacity:1;" d="M 94.355469 142.886719 C 96.804688 142.886719 98.796875 144.875 98.796875 147.324219 C 98.796875 149.769531 96.804688 151.761719 94.355469 151.761719 C 91.910156 151.761719 89.917969 149.769531 89.917969 147.324219 C 89.917969 144.875 91.910156 142.886719 94.355469 142.886719 "/>
<path style=" stroke:none;fill-rule:nonzero;fill:rgb(100%,89.399719%,0%);fill-opacity:1;" d="M 86.960938 147.324219 C 86.960938 149.96875 88.363281 152.277344 90.457031 153.582031 C 83.957031 154.5 78.996094 155.367188 75.925781 155.945313 L 81.804688 146.707031 L 75.910156 143.898438 C 79.246094 143.296875 83.859375 142.523438 89.578125 141.726563 C 87.988281 143.082031 86.960938 145.074219 86.960938 147.324219 "/>
<path style=" stroke:none;fill-rule:nonzero;fill:rgb(100%,89.399719%,0%);fill-opacity:1;" d="M 71.511719 152.964844 C 70.109375 152.230469 68.488281 151.386719 67.34375 150.789063 C 68.125 149.8125 69.238281 148.421875 70.203125 147.210938 C 70.222656 147.191406 70.238281 147.167969 70.257813 147.148438 C 70.882813 146.363281 71.441406 145.664063 71.800781 145.21875 C 73.074219 145.824219 75.808594 147.128906 77.515625 147.941406 C 76.453125 149.605469 74.511719 152.660156 73.617188 154.0625 C 73.089844 153.785156 72.351563 153.402344 71.542969 152.980469 C 71.53125 152.972656 71.523438 152.96875 71.511719 152.964844 "/>
<path style=" stroke:none;fill-rule:nonzero;fill:rgb(100%,89.399719%,0%);fill-opacity:1;" d="M 238.085938 161.429688 C 239.007813 161.753906 239.496094 162.765625 239.171875 163.691406 C 238.847656 164.613281 237.835938 165.105469 236.910156 164.78125 C 236.675781 164.699219 212.835938 156.65625 152.90625 156.597656 C 92.976563 156.65625 69.136719 164.699219 68.902344 164.78125 C 67.976563 165.105469 66.960938 164.613281 66.640625 163.691406 C 66.320313 162.765625 66.804688 161.753906 67.726563 161.429688 C 68.703125 161.089844 92.234375 153.101563 152.90625 153.046875 C 213.578125 153.101563 237.109375 161.089844 238.085938 161.429688 "/>
<path style=" stroke:none;fill-rule:nonzero;fill:rgb(100%,89.399719%,0%);fill-opacity:1;" d="M 243.152344 141.089844 C 242.890625 142.03125 241.914063 142.589844 240.96875 142.328125 C 240.671875 142.246094 210.554688 134.128906 152.90625 134.105469 C 95.257813 134.128906 65.144531 142.246094 64.84375 142.328125 C 63.898438 142.589844 62.921875 142.03125 62.660156 141.089844 C 62.402344 140.144531 62.957031 139.164063 63.898438 138.90625 C 64.199219 138.820313 94.714844 130.578125 152.90625 130.554688 C 211.097656 130.578125 241.609375 138.820313 241.914063 138.90625 C 242.859375 139.164063 243.410156 140.144531 243.152344 141.089844 "/>
<path style=" stroke:none;fill-rule:nonzero;fill:rgb(100%,89.399719%,0%);fill-opacity:1;" d="M 248.261719 126.296875 C 246.949219 127.878906 247.640625 132.078125 247.640625 132.078125 C 247.296875 132.285156 241.582031 136.070313 241.582031 136.070313 C 240.753906 135.796875 235.800781 134.832031 235.800781 134.832031 C 237.179688 132.355469 243.027344 114.183594 243.027344 114.183594 C 243.921875 117.691406 247.503906 116.246094 247.503906 116.246094 C 246.472656 117.691406 249.363281 123.542969 249.363281 123.542969 C 254.316406 119.6875 261.613281 119.6875 261.613281 119.6875 C 261.476563 122.167969 260.03125 123.75 260.03125 123.75 C 255.421875 120.171875 249.570313 124.714844 248.261719 126.296875 "/>
<path style=" stroke:none;fill-rule:nonzero;fill:rgb(100%,89.399719%,0%);fill-opacity:1;" d="M 262.058594 130.359375 C 262.058594 133.460938 259.535156 135.984375 256.4375 135.984375 C 253.332031 135.984375 250.808594 133.460938 250.808594 130.359375 C 250.808594 127.257813 253.332031 124.734375 256.4375 124.734375 C 259.535156 124.734375 262.058594 127.257813 262.058594 130.359375 "/>
<path style=" stroke:none;fill-rule:nonzero;fill:rgb(100%,89.399719%,0%);fill-opacity:1;" d="M 261.980469 118.238281 C 258.429688 116.71875 250.3125 120.269531 250.3125 120.269531 C 247.773438 116.972656 251.832031 111.644531 251.832031 111.644531 C 256.90625 111.390625 261.980469 114.941406 261.980469 114.941406 C 262.996094 116.71875 261.980469 118.238281 261.980469 118.238281 "/>
<path style=" stroke:none;fill-rule:nonzero;fill:rgb(100%,89.399719%,0%);fill-opacity:1;" d="M 269.164063 103.132813 C 269.164063 107.109375 265.933594 110.34375 261.960938 110.34375 C 257.984375 110.34375 254.753906 107.109375 254.753906 103.132813 C 254.753906 99.160156 257.984375 95.925781 261.960938 95.925781 C 265.933594 95.925781 269.164063 99.160156 269.164063 103.132813 "/>
<path style=" stroke:none;fill-rule:nonzero;fill:rgb(100%,89.399719%,0%);fill-opacity:1;" d="M 264.71875 92.195313 C 260.746094 92.195313 257.511719 88.960938 257.511719 84.984375 C 257.511719 81.011719 260.746094 77.777344 264.71875 77.777344 C 268.691406 77.777344 271.925781 81.011719 271.925781 84.984375 C 271.925781 88.960938 268.691406 92.195313 264.71875 92.195313 "/>
<path style=" stroke:none;fill-rule:nonzero;fill:rgb(0%,0%,0%);fill-opacity:1;" d="M 120.003906 65.21875 C 123.242188 65.21875 125.878906 62.578125 125.878906 59.339844 C 125.878906 57.039063 124.523438 54.9375 122.421875 53.984375 C 121.824219 53.714844 121.125 53.980469 120.855469 54.574219 C 120.585938 55.167969 120.847656 55.871094 121.445313 56.140625 C 122.699219 56.710938 123.511719 57.964844 123.511719 59.339844 C 123.511719 61.277344 121.941406 62.847656 120.003906 62.847656 C 119.070313 62.847656 118.1875 62.484375 117.523438 61.820313 C 117.0625 61.359375 116.3125 61.359375 115.851563 61.820313 C 115.390625 62.28125 115.390625 63.03125 115.851563 63.492188 C 116.960938 64.605469 118.4375 65.21875 120.003906 65.21875 "/>
<path style=" stroke:none;fill-rule:nonzero;fill:rgb(0%,0%,0%);fill-opacity:1;" d="M 87.257813 68.769531 C 90.5 68.769531 93.136719 66.132813 93.136719 62.890625 C 93.136719 60.589844 91.777344 58.488281 89.675781 57.535156 C 89.082031 57.265625 88.378906 57.53125 88.109375 58.128906 C 87.839844 58.722656 88.105469 59.425781 88.699219 59.691406 C 89.957031 60.261719 90.765625 61.519531 90.765625 62.890625 C 90.765625 64.828125 89.195313 66.402344 87.257813 66.402344 C 86.324219 66.402344 85.445313 66.035156 84.78125 65.371094 C 84.320313 64.910156 83.566406 64.910156 83.105469 65.375 C 82.644531 65.835938 82.644531 66.585938 83.105469 67.046875 C 84.21875 68.15625 85.695313 68.769531 87.257813 68.769531 "/>
<path style=" stroke:none;fill-rule:nonzero;fill:rgb(0%,0%,0%);fill-opacity:1;" d="M 103.433594 60.878906 C 106.675781 60.878906 109.308594 58.238281 109.308594 55 C 109.308594 52.699219 107.953125 50.597656 105.851563 49.644531 C 105.257813 49.375 104.558594 49.640625 104.285156 50.234375 C 104.015625 50.828125 104.28125 51.53125 104.875 51.800781 C 106.128906 52.371094 106.941406 53.625 106.941406 55 C 106.941406 56.933594 105.367188 58.507813 103.433594 58.507813 C 102.496094 58.507813 101.617188 58.144531 100.953125 57.480469 C 100.488281 57.019531 99.738281 57.019531 99.277344 57.480469 C 98.816406 57.945313 98.816406 58.695313 99.28125 59.15625 C 100.390625 60.265625 101.867188 60.878906 103.433594 60.878906 "/>
<path style=" stroke:none;fill-rule:nonzero;fill:rgb(0%,0%,0%);fill-opacity:1;" d="M 78.578125 84.550781 C 81.816406 84.550781 84.453125 81.914063 84.453125 78.671875 C 84.453125 76.367188 83.097656 74.269531 80.992188 73.320313 C 80.398438 73.050781 79.703125 73.316406 79.429688 73.910156 C 79.160156 74.507813 79.425781 75.203125 80.019531 75.476563 C 81.273438 76.042969 82.085938 77.296875 82.085938 78.671875 C 82.085938 80.609375 80.511719 82.179688 78.578125 82.179688 C 77.640625 82.179688 76.761719 81.816406 76.097656 81.152344 C 75.636719 80.691406 74.886719 80.691406 74.425781 81.152344 C 73.960938 81.613281 73.960938 82.363281 74.421875 82.828125 C 75.53125 83.9375 77.007813 84.550781 78.578125 84.550781 "/>
<path style=" stroke:none;fill-rule:nonzero;fill:rgb(0%,0%,0%);fill-opacity:1;" d="M 84.496094 131.105469 C 87.734375 131.105469 90.371094 128.46875 90.371094 125.226563 C 90.371094 122.921875 89.015625 120.824219 86.914063 119.875 C 86.316406 119.605469 85.621094 119.867188 85.347656 120.464844 C 85.078125 121.0625 85.34375 121.761719 85.9375 122.03125 C 87.191406 122.597656 88.003906 123.851563 88.003906 125.226563 C 88.003906 127.164063 86.429688 128.734375 84.496094 128.734375 C 83.558594 128.734375 82.679688 128.371094 82.019531 127.707031 C 81.554688 127.246094 80.804688 127.246094 80.34375 127.707031 C 79.878906 128.167969 79.878906 128.917969 80.34375 129.382813 C 81.453125 130.492188 82.925781 131.105469 84.496094 131.105469 "/>
<path style=" stroke:none;fill-rule:nonzero;fill:rgb(0%,0%,0%);fill-opacity:1;" d="M 84.496094 131.105469 C 87.734375 131.105469 90.371094 128.46875 90.371094 125.226563 C 90.371094 122.921875 89.015625 120.824219 86.914063 119.875 C 86.316406 119.605469 85.621094 119.867188 85.347656 120.464844 C 85.078125 121.0625 85.34375 121.761719 85.9375 122.03125 C 87.191406 122.597656 88.003906 123.851563 88.003906 125.226563 C 88.003906 127.164063 86.429688 128.734375 84.496094 128.734375 C 83.558594 128.734375 82.679688 128.371094 82.019531 127.707031 C 81.554688 127.246094 80.804688 127.246094 80.34375 127.707031 C 79.878906 128.167969 79.878906 128.917969 80.34375 129.382813 C 81.453125 130.492188 82.925781 131.105469 84.496094 131.105469 "/>
<path style=" stroke:none;fill-rule:nonzero;fill:rgb(11.399841%,11.399841%,10.598755%);fill-opacity:1;" d="M 79.363281 103.878906 C 82.605469 103.878906 85.238281 101.242188 85.238281 98.003906 C 85.238281 95.699219 83.882813 93.597656 81.78125 92.648438 C 81.1875 92.378906 80.488281 92.644531 80.21875 93.238281 C 79.945313 93.839844 80.210938 94.535156 80.808594 94.804688 C 82.0625 95.375 82.871094 96.628906 82.871094 98.003906 C 82.871094 99.9375 81.300781 101.511719 79.363281 101.511719 C 78.429688 101.511719 77.550781 101.148438 76.886719 100.484375 C 76.425781 100.023438 75.675781 100.023438 75.214844 100.484375 C 74.75 100.945313 74.75 101.695313 75.210938 102.15625 C 76.320313 103.265625 77.796875 103.878906 79.363281 103.878906 "/>
<path style=" stroke:none;fill-rule:nonzero;fill:rgb(0%,0%,0%);fill-opacity:1;" d="M 69.109375 68.375 C 72.347656 68.375 74.984375 65.738281 74.984375 62.496094 C 74.984375 60.195313 73.628906 58.09375 71.527344 57.144531 C 70.929688 56.871094 70.230469 57.136719 69.960938 57.734375 C 69.691406 58.328125 69.953125 59.03125 70.550781 59.300781 C 71.804688 59.867188 72.617188 61.125 72.617188 62.496094 C 72.617188 64.433594 71.042969 66.007813 69.109375 66.007813 C 68.175781 66.007813 67.292969 65.640625 66.632813 64.976563 C 66.167969 64.515625 65.417969 64.515625 64.957031 64.976563 C 64.496094 65.441406 64.496094 66.1875 64.957031 66.652344 C 66.066406 67.761719 67.542969 68.375 69.109375 68.375 "/>
<path style=" stroke:none;fill-rule:nonzero;fill:rgb(0%,0%,0%);fill-opacity:1;" d="M 50.960938 74.292969 C 54.199219 74.292969 56.835938 71.65625 56.835938 68.414063 C 56.835938 66.113281 55.476563 64.011719 53.378906 63.0625 C 52.78125 62.789063 52.082031 63.054688 51.8125 63.652344 C 51.542969 64.246094 51.808594 64.949219 52.402344 65.21875 C 53.65625 65.785156 54.464844 67.039063 54.464844 68.414063 C 54.464844 70.351563 52.894531 71.925781 50.960938 71.925781 C 50.023438 71.925781 49.144531 71.558594 48.480469 70.894531 C 48.019531 70.433594 47.269531 70.433594 46.808594 70.894531 C 46.34375 71.355469 46.34375 72.105469 46.808594 72.566406 C 47.917969 73.679688 49.390625 74.292969 50.960938 74.292969 "/>
<path style=" stroke:none;fill-rule:nonzero;fill:rgb(0%,0%,0%);fill-opacity:1;" d="M 49.773438 103.132813 C 49.773438 100.832031 48.417969 98.730469 46.3125 97.78125 C 45.71875 97.511719 45.015625 97.773438 44.75 98.367188 C 44.480469 98.964844 44.742188 99.667969 45.339844 99.9375 C 46.59375 100.507813 47.40625 101.761719 47.40625 103.132813 C 47.40625 105.070313 45.832031 106.644531 43.898438 106.644531 C 42.960938 106.644531 42.082031 106.277344 41.417969 105.617188 C 40.960938 105.152344 40.207031 105.152344 39.746094 105.613281 C 39.28125 106.074219 39.28125 106.824219 39.742188 107.285156 C 40.855469 108.398438 42.328125 109.011719 43.898438 109.011719 C 47.136719 109.011719 49.773438 106.375 49.773438 103.132813 "/>
<path style=" stroke:none;fill-rule:nonzero;fill:rgb(0%,0%,0%);fill-opacity:1;" d="M 47.011719 85.378906 C 47.011719 83.078125 45.652344 80.976563 43.554688 80.023438 C 42.960938 79.753906 42.257813 80.015625 41.988281 80.613281 C 41.71875 81.207031 41.980469 81.90625 42.574219 82.179688 C 43.832031 82.75 44.644531 84.007813 44.644531 85.378906 C 44.644531 87.316406 43.066406 88.890625 41.132813 88.890625 C 40.199219 88.890625 39.320313 88.523438 38.65625 87.859375 C 38.191406 87.398438 37.441406 87.398438 36.980469 87.859375 C 36.519531 88.324219 36.519531 89.070313 36.980469 89.535156 C 38.09375 90.644531 39.570313 91.257813 41.132813 91.257813 C 44.371094 91.257813 47.011719 88.621094 47.011719 85.378906 "/>
<path style=" stroke:none;fill-rule:nonzero;fill:rgb(0%,0%,0%);fill-opacity:1;" d="M 50.664063 126.261719 C 50.203125 126.050781 49.664063 126.253906 49.449219 126.714844 C 49.242188 127.175781 49.445313 127.714844 49.90625 127.929688 C 50.875 128.367188 51.503906 129.339844 51.503906 130.402344 C 51.503906 131.902344 50.289063 133.121094 48.789063 133.121094 C 48.066406 133.121094 47.386719 132.835938 46.871094 132.320313 C 46.511719 131.964844 45.929688 131.964844 45.574219 132.320313 C 45.214844 132.679688 45.214844 133.261719 45.578125 133.617188 C 46.4375 134.476563 47.578125 134.953125 48.789063 134.953125 C 51.296875 134.953125 53.335938 132.910156 53.335938 130.402344 C 53.335938 128.625 52.285156 126.996094 50.664063 126.261719 "/>
<path style=" stroke:none;fill-rule:nonzero;fill:rgb(0%,0%,0%);fill-opacity:1;" d="M 185.8125 65.21875 C 189.046875 65.21875 191.6875 62.578125 191.6875 59.339844 C 191.6875 57.039063 190.328125 54.9375 188.226563 53.984375 C 187.632813 53.714844 186.929688 53.980469 186.660156 54.574219 C 186.390625 55.167969 186.652344 55.871094 187.25 56.140625 C 188.507813 56.710938 189.320313 57.964844 189.320313 59.339844 C 189.320313 61.277344 187.746094 62.847656 185.8125 62.847656 C 184.875 62.847656 183.996094 62.484375 183.328125 61.820313 C 182.867188 61.359375 182.117188 61.359375 181.65625 61.820313 C 181.195313 62.28125 181.195313 63.03125 181.65625 63.492188 C 182.769531 64.605469 184.242188 65.21875 185.8125 65.21875 "/>
<path style=" stroke:none;fill-rule:nonzero;fill:rgb(0%,0%,0%);fill-opacity:1;" d="M 218.5625 68.769531 C 221.804688 68.769531 224.441406 66.132813 224.441406 62.890625 C 224.441406 60.589844 223.085938 58.488281 220.980469 57.535156 C 220.386719 57.265625 219.683594 57.53125 219.414063 58.128906 C 219.144531 58.722656 219.410156 59.425781 220.003906 59.691406 C 221.261719 60.261719 222.074219 61.519531 222.074219 62.890625 C 222.074219 64.828125 220.5 66.402344 218.5625 66.402344 C 217.628906 66.402344 216.75 66.035156 216.085938 65.371094 C 215.621094 64.910156 214.871094 64.910156 214.410156 65.375 C 213.949219 65.835938 213.949219 66.585938 214.410156 67.046875 C 215.523438 68.15625 217 68.769531 218.5625 68.769531 "/>
<path style=" stroke:none;fill-rule:nonzero;fill:rgb(0%,0%,0%);fill-opacity:1;" d="M 202.378906 60.878906 C 205.617188 60.878906 208.257813 58.238281 208.257813 55 C 208.257813 52.699219 206.898438 50.597656 204.800781 49.644531 C 204.207031 49.375 203.503906 49.640625 203.234375 50.234375 C 202.964844 50.828125 203.226563 51.53125 203.820313 51.800781 C 205.078125 52.371094 205.890625 53.625 205.890625 55 C 205.890625 56.933594 204.316406 58.507813 202.378906 58.507813 C 201.445313 58.507813 200.566406 58.144531 199.898438 57.480469 C 199.433594 57.019531 198.6875 57.019531 198.226563 57.480469 C 197.761719 57.945313 197.765625 58.695313 198.226563 59.15625 C 199.339844 60.265625 200.816406 60.878906 202.378906 60.878906 "/>
<path style=" stroke:none;fill-rule:nonzero;fill:rgb(0%,0%,0%);fill-opacity:1;" d="M 227.234375 84.550781 C 230.476563 84.550781 233.113281 81.914063 233.113281 78.671875 C 233.113281 76.367188 231.753906 74.269531 229.652344 73.320313 C 229.058594 73.050781 228.359375 73.316406 228.085938 73.910156 C 227.820313 74.507813 228.085938 75.203125 228.679688 75.476563 C 229.933594 76.042969 230.746094 77.296875 230.746094 78.671875 C 230.746094 80.609375 229.171875 82.179688 227.234375 82.179688 C 226.296875 82.179688 225.421875 81.816406 224.757813 81.152344 C 224.296875 80.691406 223.546875 80.691406 223.085938 81.152344 C 222.621094 81.613281 222.621094 82.363281 223.082031 82.828125 C 224.191406 83.9375 225.667969 84.550781 227.234375 84.550781 "/>
<path style=" stroke:none;fill-rule:nonzero;fill:rgb(0%,0%,0%);fill-opacity:1;" d="M 221.316406 131.105469 C 224.558594 131.105469 227.195313 128.46875 227.195313 125.226563 C 227.195313 122.921875 225.839844 120.824219 223.734375 119.875 C 223.140625 119.605469 222.441406 119.867188 222.171875 120.464844 C 221.902344 121.0625 222.167969 121.761719 222.761719 122.03125 C 224.015625 122.597656 224.824219 123.851563 224.824219 125.226563 C 224.824219 127.164063 223.253906 128.734375 221.316406 128.734375 C 220.382813 128.734375 219.503906 128.371094 218.839844 127.707031 C 218.378906 127.246094 217.628906 127.246094 217.167969 127.707031 C 216.703125 128.167969 216.703125 128.917969 217.167969 129.382813 C 218.273438 130.492188 219.75 131.105469 221.316406 131.105469 "/>
<path style=" stroke:none;fill-rule:nonzero;fill:rgb(0%,0%,0%);fill-opacity:1;" d="M 221.316406 131.105469 C 224.558594 131.105469 227.195313 128.46875 227.195313 125.226563 C 227.195313 122.921875 225.839844 120.824219 223.734375 119.875 C 223.140625 119.605469 222.441406 119.867188 222.171875 120.464844 C 221.902344 121.0625 222.167969 121.761719 222.761719 122.03125 C 224.015625 122.597656 224.824219 123.851563 224.824219 125.226563 C 224.824219 127.164063 223.253906 128.734375 221.316406 128.734375 C 220.382813 128.734375 219.503906 128.371094 218.839844 127.707031 C 218.378906 127.246094 217.628906 127.246094 217.167969 127.707031 C 216.703125 128.167969 216.703125 128.917969 217.167969 129.382813 C 218.273438 130.492188 219.75 131.105469 221.316406 131.105469 "/>
<path style=" stroke:none;fill-rule:nonzero;fill:rgb(11.399841%,11.399841%,10.598755%);fill-opacity:1;" d="M 226.445313 103.878906 C 229.6875 103.878906 232.320313 101.242188 232.320313 98.003906 C 232.320313 95.699219 230.96875 93.597656 228.867188 92.648438 C 228.269531 92.378906 227.570313 92.644531 227.300781 93.238281 C 227.03125 93.839844 227.296875 94.535156 227.890625 94.804688 C 229.144531 95.375 229.953125 96.628906 229.953125 98.003906 C 229.953125 99.9375 228.382813 101.511719 226.445313 101.511719 C 225.511719 101.511719 224.632813 101.148438 223.96875 100.484375 C 223.507813 100.023438 222.757813 100.023438 222.296875 100.484375 C 221.832031 100.945313 221.832031 101.695313 222.296875 102.15625 C 223.402344 103.265625 224.878906 103.878906 226.445313 103.878906 "/>
<path style=" stroke:none;fill-rule:nonzero;fill:rgb(0%,0%,0%);fill-opacity:1;" d="M 239.074219 68.375 C 242.3125 68.375 244.949219 65.738281 244.949219 62.496094 C 244.949219 60.195313 243.59375 58.09375 241.488281 57.144531 C 240.894531 56.871094 240.191406 57.136719 239.925781 57.734375 C 239.652344 58.328125 239.917969 59.03125 240.515625 59.300781 C 241.769531 59.867188 242.582031 61.125 242.582031 62.496094 C 242.582031 64.433594 241.007813 66.007813 239.074219 66.007813 C 238.136719 66.007813 237.257813 65.640625 236.59375 64.976563 C 236.132813 64.515625 235.382813 64.515625 234.921875 64.976563 C 234.457031 65.441406 234.457031 66.1875 234.921875 66.652344 C 236.03125 67.761719 237.507813 68.375 239.074219 68.375 "/>
<path style=" stroke:none;fill-rule:nonzero;fill:rgb(0%,0%,0%);fill-opacity:1;" d="M 256.433594 74.292969 C 259.671875 74.292969 262.3125 71.65625 262.3125 68.414063 C 262.3125 66.113281 260.953125 64.011719 258.851563 63.0625 C 258.257813 62.789063 257.558594 63.054688 257.285156 63.652344 C 257.019531 64.246094 257.28125 64.949219 257.875 65.21875 C 259.132813 65.785156 259.941406 67.039063 259.941406 68.414063 C 259.941406 70.351563 258.371094 71.925781 256.433594 71.925781 C 255.5 71.925781 254.621094 71.558594 253.957031 70.894531 C 253.496094 70.433594 252.746094 70.433594 252.28125 70.894531 C 251.820313 71.355469 251.820313 72.105469 252.28125 72.566406 C 253.394531 73.679688 254.867188 74.292969 256.433594 74.292969 "/>
<path style=" stroke:none;fill-rule:nonzero;fill:rgb(0%,0%,0%);fill-opacity:1;" d="M 267.878906 103.132813 C 267.878906 100.832031 266.519531 98.730469 264.417969 97.78125 C 263.824219 97.511719 263.121094 97.773438 262.855469 98.367188 C 262.582031 98.964844 262.847656 99.667969 263.441406 99.9375 C 264.699219 100.507813 265.511719 101.761719 265.511719 103.132813 C 265.511719 105.070313 263.9375 106.644531 262 106.644531 C 261.066406 106.644531 260.1875 106.277344 259.523438 105.617188 C 259.0625 105.152344 258.3125 105.152344 257.851563 105.613281 C 257.386719 106.074219 257.386719 106.824219 257.847656 107.285156 C 258.957031 108.398438 260.433594 109.011719 262 109.011719 C 265.242188 109.011719 267.878906 106.375 267.878906 103.132813 "/>
<path style=" stroke:none;fill-rule:nonzero;fill:rgb(0%,0%,0%);fill-opacity:1;" d="M 270.632813 85.378906 C 270.632813 83.078125 269.277344 80.976563 267.179688 80.023438 C 266.585938 79.753906 265.882813 80.015625 265.613281 80.613281 C 265.34375 81.207031 265.605469 81.90625 266.199219 82.179688 C 267.453125 82.75 268.265625 84.007813 268.265625 85.378906 C 268.265625 87.316406 266.691406 88.890625 264.757813 88.890625 C 263.824219 88.890625 262.945313 88.523438 262.277344 87.859375 C 261.816406 87.398438 261.066406 87.398438 260.605469 87.859375 C 260.144531 88.324219 260.144531 89.070313 260.605469 89.535156 C 261.71875 90.644531 263.195313 91.257813 264.757813 91.257813 C 267.996094 91.257813 270.632813 88.621094 270.632813 85.378906 "/>
<path style=" stroke:none;fill-rule:nonzero;fill:rgb(0%,0%,0%);fill-opacity:1;" d="M 257.71875 126.261719 C 257.257813 126.050781 256.71875 126.253906 256.507813 126.714844 C 256.296875 127.175781 256.503906 127.714844 256.960938 127.929688 C 257.933594 128.367188 258.558594 129.339844 258.558594 130.402344 C 258.558594 131.902344 257.34375 133.121094 255.847656 133.121094 C 255.125 133.121094 254.441406 132.835938 253.925781 132.320313 C 253.566406 131.964844 252.988281 131.964844 252.632813 132.320313 C 252.273438 132.679688 252.273438 133.261719 252.632813 133.617188 C 253.492188 134.476563 254.632813 134.953125 255.847656 134.953125 C 258.355469 134.953125 260.390625 132.910156 260.390625 130.402344 C 260.390625 128.625 259.34375 126.996094 257.71875 126.261719 "/>
<path style=" stroke:none;fill-rule:nonzero;fill:rgb(100%,100%,100%);fill-opacity:1;" d="M 10.902344 268.367188 C 10.902344 270.714844 10.882813 516.789063 10.882813 516.789063 C 11.003906 517.46875 14.039063 533.414063 30.382813 537.261719 C 32.644531 537.792969 36.039063 538.230469 40.371094 538.578125 L 40.371094 268.367188 "/>
<path style=" stroke:none;fill-rule:nonzero;fill:rgb(100%,100%,100%);fill-opacity:1;" d="M 74.574219 539.699219 C 76.152344 539.722656 79.976563 539.765625 79.976563 539.765625 C 79.976563 539.765625 101.828125 540.167969 104.039063 540.207031 L 104.039063 268.367188 L 74.574219 268.367188 "/>
<path style=" stroke:none;fill-rule:nonzero;fill:rgb(100%,100%,100%);fill-opacity:1;" d="M 294.910156 268.367188 C 294.910156 270.714844 294.929688 516.789063 294.929688 516.789063 C 294.808594 517.46875 291.769531 533.414063 275.429688 537.261719 C 273.164063 537.792969 269.773438 538.230469 265.441406 538.578125 L 265.441406 268.367188 "/>
<path style=" stroke:none;fill-rule:nonzero;fill:rgb(100%,100%,100%);fill-opacity:1;" d="M 231.238281 539.699219 C 229.660156 539.722656 225.835938 539.765625 225.835938 539.765625 C 225.835938 539.765625 203.980469 540.167969 201.769531 540.207031 L 201.769531 268.367188 L 231.238281 268.367188 "/>
<path style=" stroke:none;fill-rule:nonzero;fill:rgb(100%,100%,100%);fill-opacity:1;" d="M 138.246094 545.871094 C 144.070313 549.15625 149.078125 553.617188 152.90625 557.714844 C 156.734375 553.617188 161.746094 549.160156 167.574219 545.871094 L 167.714844 545.871094 L 167.714844 268.367188 L 138.246094 268.367188 "/>
<path style=" stroke:none;fill-rule:nonzero;fill:rgb(100%,100%,100%);fill-opacity:1;" d="M 61.707031 223.789063 C 69.136719 222.46875 73.160156 216.222656 73.160156 209.003906 C 73.160156 197.824219 65.316406 192.894531 54.96875 192.894531 L 34.628906 192.894531 L 34.628906 245.242188 L 48.234375 245.242188 L 48.234375 225.105469 L 48.375 225.105469 L 61.21875 245.242188 L 78.160156 245.242188 Z M 48.234375 203.308594 L 49.554688 203.308594 C 54 203.308594 59 204.140625 59 209.832031 C 59 215.527344 54 216.359375 49.554688 216.359375 L 48.234375 216.359375 "/>
<path style=" stroke:none;fill-rule:nonzero;fill:rgb(100%,100%,100%);fill-opacity:1;" d="M 97.828125 238.507813 C 97.828125 242.949219 94.222656 246.632813 89.707031 246.632813 C 85.195313 246.632813 81.585938 242.949219 81.585938 238.507813 C 81.585938 233.992188 85.195313 230.386719 89.707031 230.386719 C 94.222656 230.386719 97.828125 233.992188 97.828125 238.507813 "/>
<path style=" stroke:none;fill-rule:nonzero;fill:rgb(100%,100%,100%);fill-opacity:1;" d="M 136.855469 210.460938 C 134.078125 206.710938 129.5625 204.695313 124.910156 204.695313 C 116.582031 204.695313 110.957031 211.085938 110.957031 219.207031 C 110.957031 227.46875 116.648438 233.441406 125.121094 233.441406 C 129.5625 233.441406 134.007813 231.285156 136.855469 227.886719 L 136.855469 244.199219 C 132.339844 245.589844 129.078125 246.632813 124.84375 246.632813 C 117.554688 246.632813 110.609375 243.855469 105.191406 238.925781 C 99.433594 233.71875 96.792969 226.914063 96.792969 219.136719 C 96.792969 211.988281 99.5 205.113281 104.5 199.976563 C 109.640625 194.699219 117.066406 191.507813 124.425781 191.507813 C 128.796875 191.507813 132.828125 192.480469 136.855469 194.144531 "/>
<path style=" stroke:none;fill-rule:nonzero;fill:rgb(100%,100%,100%);fill-opacity:1;" d="M 156.886719 238.507813 C 156.886719 242.949219 153.273438 246.632813 148.761719 246.632813 C 144.25 246.632813 140.640625 242.949219 140.640625 238.507813 C 140.640625 233.992188 144.25 230.386719 148.761719 230.386719 C 153.273438 230.386719 156.886719 233.992188 156.886719 238.507813 "/>
<path style=" stroke:none;fill-rule:nonzero;fill:rgb(100%,100%,100%);fill-opacity:1;" d="M 189.832031 206.363281 C 187.335938 204.28125 184.140625 202.890625 180.808594 202.890625 C 178.308594 202.890625 174.976563 204.347656 174.976563 207.265625 C 174.976563 210.320313 178.652344 211.5 181.015625 212.265625 L 184.484375 213.304688 C 191.773438 215.457031 197.398438 219.136719 197.398438 227.609375 C 197.398438 232.816406 196.152344 238.160156 191.984375 241.699219 C 187.886719 245.171875 182.402344 246.632813 177.128906 246.632813 C 170.53125 246.632813 164.074219 244.40625 158.730469 240.660156 L 164.5625 229.691406 C 167.964844 232.675781 171.988281 235.105469 176.640625 235.105469 C 179.839844 235.105469 183.238281 233.511719 183.238281 229.828125 C 183.238281 226.011719 177.894531 224.691406 174.976563 223.859375 C 166.4375 221.429688 160.8125 219.207031 160.8125 209.070313 C 160.8125 198.449219 168.382813 191.507813 178.863281 191.507813 C 184.140625 191.507813 190.597656 193.175781 195.246094 195.808594 "/>
<path style=" stroke:none;fill-rule:nonzero;fill:rgb(100%,100%,100%);fill-opacity:1;" d="M 214.847656 238.507813 C 214.847656 242.949219 211.238281 246.632813 206.726563 246.632813 C 202.210938 246.632813 198.605469 242.949219 198.605469 238.507813 C 198.605469 233.992188 202.210938 230.386719 206.726563 230.386719 C 211.238281 230.386719 214.847656 233.992188 214.847656 238.507813 "/>
<path style=" stroke:none;fill-rule:nonzero;fill:rgb(100%,100%,100%);fill-opacity:1;" d="M 252.503906 210.460938 C 249.722656 206.710938 245.214844 204.695313 240.558594 204.695313 C 232.230469 204.695313 226.605469 211.085938 226.605469 219.207031 C 226.605469 227.46875 232.300781 233.441406 240.769531 233.441406 C 245.214844 233.441406 249.652344 231.285156 252.503906 227.886719 L 252.503906 244.199219 C 247.984375 245.589844 244.726563 246.632813 240.492188 246.632813 C 233.203125 246.632813 226.257813 243.855469 220.84375 238.925781 C 215.078125 233.71875 212.441406 226.914063 212.441406 219.136719 C 212.441406 211.988281 215.148438 205.113281 220.148438 199.976563 C 225.285156 194.699219 232.714844 191.507813 240.074219 191.507813 C 244.449219 191.507813 248.472656 192.480469 252.503906 194.144531 "/>
<path style=" stroke:none;fill-rule:nonzero;fill:rgb(100%,100%,100%);fill-opacity:1;" d="M 272.890625 238.507813 C 272.890625 242.949219 269.28125 246.632813 264.769531 246.632813 C 260.253906 246.632813 256.644531 242.949219 256.644531 238.507813 C 256.644531 233.992188 260.253906 230.386719 264.769531 230.386719 C 269.28125 230.386719 272.890625 233.992188 272.890625 238.507813 "/>
</g>
</svg>