<svg xmlns:dc="http://purl.org/dc/elements/1.1/" xmlns:cc="http://creativecommons.org/ns#" xmlns:rdf="http://www.w3.org/1999/02/22-rdf-syntax-ns#" xmlns:svg="http://www.w3.org/2000/svg" xmlns="http://www.w3.org/2000/svg" xmlns:sodipodi="http://sodipodi.sourceforge.net/DTD/sodipodi-0.dtd" xmlns:inkscape="http://www.inkscape.org/namespaces/inkscape" inkscape:version="1.0 (4035a4f, 2020-05-01)" height="240.88" width="240.53" sodipodi:docname="logo (5).svg" xml:space="preserve" viewBox="0 0 240.52999 240.88" y="0px" x="0px" id="Livello_1" version="1.1"><metadata id="metadata12405"><rdf:RDF><cc:Work rdf:about=""><dc:format>image/svg+xml</dc:format><dc:type rdf:resource="http://purl.org/dc/dcmitype/StillImage"/><dc:title/></cc:Work></rdf:RDF></metadata><defs id="defs12403"/><sodipodi:namedview inkscape:current-layer="Livello_1" inkscape:window-maximized="1" inkscape:window-y="25" inkscape:window-x="0" inkscape:cy="176.25221" inkscape:cx="11.624232" inkscape:zoom="1.4505895" fit-margin-bottom="0" fit-margin-right="0" fit-margin-left="0" fit-margin-top="0" showgrid="false" id="namedview12401" inkscape:window-height="793" inkscape:window-width="1440" inkscape:pageshadow="2" inkscape:pageopacity="0" guidetolerance="10" gridtolerance="10" objecttolerance="10" borderopacity="1" bordercolor="#666666" pagecolor="#ffffff"/>
<style id="style12362" type="text/css">
	.st0{fill:#AA9665;}
	.st1{fill:#FFFFFF;}
	.st2{fill:#1B181C;}
	.st3{fill-rule:evenodd;clip-rule:evenodd;fill:#1B181C;}
</style>
<g transform="translate(-8.07,-9.56)" id="g12398">
	<path style="fill:#b79d62;fill-opacity:1" id="path12364" d="M 8.07,129.99 C 8.07,63.48 61.91,9.56 128.33,9.56 c 66.42,0 120.27,53.92 120.27,120.43 0,66.52 -53.84,120.45 -120.26,120.45 C 61.92,250.44 8.07,196.51 8.07,129.99" class="st0"/>
	<path id="path12366" d="m 19.38,129.99 c 0,-60.25 48.78,-109.1 108.95,-109.1 60.19,0 108.96,48.85 108.96,109.1 0,60.27 -48.78,109.12 -108.96,109.12 -60.17,0 -108.95,-48.85 -108.95,-109.12" class="st1"/>
	<path id="path12368" d="m 128.33,241.61 c -61.45,0 -111.45,-50.07 -111.45,-111.62 0,-61.54 50,-111.6 111.45,-111.6 61.46,0 111.46,50.07 111.46,111.6 0,61.55 -50,111.62 -111.46,111.62 z m 0,-218.22 c -58.7,0 -106.45,47.82 -106.45,106.6 0,58.79 47.75,106.62 106.45,106.62 58.7,0 106.46,-47.83 106.46,-106.62 0,-58.78 -47.76,-106.6 -106.46,-106.6 z" class="st2"/>
	<path style="fill:#191c1f;fill-opacity:1" id="path12370" d="m 51.77,129.99 c 0,-42.34 34.27,-76.67 76.56,-76.67 42.29,0 76.56,34.33 76.56,76.67 0,42.35 -34.27,76.68 -76.56,76.68 -42.29,0 -76.56,-34.33 -76.56,-76.68" class="st2"/>
	<path id="path12372" d="m 58.73,129.99 c 0,-38.48 31.16,-69.69 69.59,-69.69 38.44,0 69.61,31.21 69.61,69.69 0,38.49 -31.17,69.7 -69.61,69.7 -38.43,0 -69.59,-31.2 -69.59,-69.7" class="st1"/>
	<path style="fill:#191c1f;fill-opacity:1" id="path12374" d="m 66.3,129.99 c 0,-34.3 27.77,-62.11 62.02,-62.11 34.27,0 62.04,27.81 62.04,62.11 0,34.31 -27.77,62.12 -62.04,62.12 -34.25,0.01 -62.02,-27.8 -62.02,-62.12" class="st2"/>
	<path style="fill:#b79d62;fill-opacity:1" id="path12376" d="m 115.16,138.41 v -8.51 c 0,0 -0.15,-6.28 -7,-6.28 -6.85,0 -6.79,6.28 -6.79,6.28 v 8.49 z m 24.37,-0.03 c 0.74,-0.3 3.42,-1.57 3.42,-4.88 0,-3.83 -2.81,-5.25 -2.81,-5.25 l -1.31,-0.87 c -0.31,1.38 -0.49,2.83 -0.49,4.31 -0.01,2.38 0.42,4.63 1.19,6.69 M 92.08,163.16 V 147.93 H 85.5 v -9.56 l 6.58,0.02 v -10.15 c 0,0 0.02,-14.31 16.09,-14.31 16.06,0 16.26,14.32 16.26,14.32 v 10.19 h 6.33 c -0.51,-2.15 -0.78,-4.42 -0.78,-6.74 0,-3.26 0.54,-6.38 1.51,-9.26 l -21.38,-14.38 c 0,0 -4.69,-4.55 -1.66,-11.53 3.05,-7 9.18,-7.12 9.18,-7.12 h 28 v 9.07 h -26.81 c 0,0 -1.12,-0.32 -2.04,1.2 -1.18,1.94 0.85,3.29 0.85,3.29 l 17.98,11.65 c 4.46,-5.89 11.17,-9.64 18.67,-9.64 3.98,0 7.73,1.06 11.04,2.91 l -4.56,7.8 c -1.98,-0.98 -4.18,-1.5 -6.48,-1.5 -4.41,0 -8.39,1.96 -11.27,5.14 2.05,1.08 9.63,5.65 9.63,14.19 0,7.99 -3.55,11.57 -6.7,13.15 2.43,1.64 5.28,2.6 8.34,2.6 4.85,0 9.21,-2.4 12.13,-6.18 l 7.09,4.97 c -4.45,6.32 -11.4,10.41 -19.22,10.41 -7.88,0 -14.87,-4.13 -19.31,-10.52 h -10.53 v 15.25 h -9.26 v -15.25 h -13.79 v 15.25 z" class="st0"/>
	<path style="fill:#191c1f;fill-opacity:1" id="path12378" d="m 88.39,53.81 c 1.15,1.78 1.3,3.56 0.42,5.35 -0.87,1.77 -2.58,3.48 -5.12,5.13 -1.45,0.94 -2.72,1.67 -3.8,2.18 -1.09,0.51 -2.03,0.87 -2.82,1.07 l -1.88,-2.9 c 0.68,-0.07 1.63,-0.35 2.86,-0.83 1.23,-0.49 2.37,-1.07 3.42,-1.76 1.47,-0.96 2.38,-1.78 2.73,-2.47 0.34,-0.69 0.27,-1.42 -0.22,-2.17 -0.33,-0.5 -0.8,-0.8 -1.45,-0.92 -0.64,-0.11 -2.11,0.13 -4.39,0.73 -1.83,0.46 -3.41,0.57 -4.72,0.32 -1.33,-0.26 -2.43,-1.06 -3.3,-2.41 -0.84,-1.3 -0.89,-2.81 -0.15,-4.55 0.75,-1.77 2.29,-3.39 4.62,-4.91 1.12,-0.74 2.2,-1.32 3.19,-1.75 1.01,-0.44 1.73,-0.72 2.17,-0.83 l 1.66,2.56 c -0.86,0.35 -1.71,0.7 -2.55,1.07 -0.84,0.38 -1.68,0.84 -2.54,1.4 -1.2,0.79 -1.98,1.51 -2.31,2.17 -0.33,0.67 -0.34,1.22 -0.05,1.7 0.39,0.59 0.88,0.91 1.48,0.96 0.6,0.05 2.07,-0.27 4.41,-0.94 2.16,-0.64 3.9,-0.78 5.22,-0.42 1.32,0.31 2.36,1.06 3.12,2.22" class="st3"/>
	<path style="fill:#191c1f;fill-opacity:1" id="path12380" d="m 106.12,39.31 c 0.55,1.61 0.38,3.02 -0.51,4.25 -0.89,1.22 -2.45,2.21 -4.67,2.97 l -3.08,1.06 2.64,7.69 -5.12,1.76 -6.52,-18.95 8.52,-2.93 c 2.43,-0.84 4.3,-0.93 5.59,-0.27 1.3,0.65 2.18,1.62 2.62,2.94 z m -5.14,2.08 -0.62,-1.82 c -0.25,-0.73 -0.67,-1.17 -1.27,-1.35 -0.59,-0.17 -1.45,-0.07 -2.55,0.3 l -1.6,0.56 2.03,5.9 1.86,-0.64 c 0.81,-0.28 1.41,-0.68 1.84,-1.21 0.42,-0.51 0.53,-1.1 0.31,-1.74" class="st3"/>
	<polygon style="fill:#191c1f;fill-opacity:1" id="polygon12382" points="112.47,31.2 127.02,29.93 127.28,32.91 118.13,33.72 118.6,39.08 125.71,38.44 125.98,41.47 118.85,42.09 119.35,47.72 129.16,46.86 129.42,49.84 114.22,51.17 " class="st3"/>
	<polygon style="fill:#191c1f;fill-opacity:1" id="polygon12384" points="132.13,47.23 144.57,34.51 134.58,33.1 135,30.14 150.93,32.38 150.56,35.01 138.08,47.79 148.56,49.27 148.14,52.24 131.74,49.93 " class="st3"/>
	
		<rect style="fill:#191c1f;fill-opacity:1" id="rect12386" height="5.4099998" width="20.040001" class="st3" transform="matrix(0.326,-0.9454,0.9454,0.326,63.7904,179.9312)" y="42.52" x="148.06"/>
	<path style="fill:#191c1f;fill-opacity:1" id="path12388" d="m 179.61,68.02 -4.7,-2.93 1.06,-5.02 -6.73,-4.2 -4.09,3.11 -3.74,-2.34 17.47,-12.71 4.28,2.68 z M 176.52,57 l 1.39,-7.82 -6.25,4.78 z" class="st3"/>
	<path id="path12390" d="m 96,224.31 -4.59,-1.77 5.47,-14.24 -3.14,-1.2 0.86,-2.26 c 1.46,0.44 2.66,0.54 3.62,0.29 0.96,-0.24 1.6,-0.48 1.93,-0.69 l 3.02,1.16 z" class="st3"/>
	<path id="path12392" d="m 126.21,219.46 c -0.6,3.25 -1.89,5.75 -3.84,7.51 -1.95,1.76 -4.55,2.44 -7.8,2.03 -0.85,-0.09 -1.58,-0.22 -2.21,-0.41 -0.62,-0.17 -1.2,-0.33 -1.72,-0.48 l 0.42,-3.42 c 0.71,0.23 1.37,0.43 2.01,0.6 0.65,0.18 1.28,0.29 1.91,0.37 1.53,0.18 2.75,-0.08 3.67,-0.79 0.92,-0.72 1.5,-1.78 1.73,-3.16 -0.36,0.4 -1.03,0.72 -2.01,0.98 -0.99,0.24 -1.89,0.32 -2.71,0.22 -2.45,-0.31 -4.29,-1.13 -5.49,-2.48 -1.21,-1.36 -1.67,-3.15 -1.41,-5.33 0.28,-2.26 1.27,-3.98 2.96,-5.14 1.7,-1.15 3.91,-1.58 6.65,-1.23 2.93,0.36 5.03,1.27 6.32,2.74 1.3,1.47 1.88,3.55 1.73,6.25 0,0.26 -0.05,0.59 -0.1,0.98 -0.05,0.39 -0.09,0.63 -0.11,0.76 m -4.89,-3.13 c 0.17,-1.46 -0.02,-2.54 -0.58,-3.25 -0.56,-0.71 -1.4,-1.12 -2.53,-1.27 -1.09,-0.13 -2,0.07 -2.7,0.63 -0.7,0.52 -1.16,1.53 -1.33,3.01 -0.17,1.4 0.01,2.48 0.57,3.23 0.54,0.73 1.37,1.16 2.47,1.3 0.96,0.13 1.85,-0.11 2.64,-0.67 0.79,-0.56 1.27,-1.55 1.46,-2.98" class="st3"/>
	<path id="path12394" d="m 147.92,218.65 c 0.38,3.18 -0.08,5.62 -1.41,7.37 -1.31,1.72 -3.29,2.75 -5.92,3.08 -2.65,0.32 -4.8,-0.19 -6.51,-1.55 -1.69,-1.38 -2.74,-3.65 -3.13,-6.82 l -0.19,-1.62 c -0.38,-3.02 0.06,-5.44 1.29,-7.26 1.24,-1.85 3.25,-2.94 6.02,-3.28 2.79,-0.34 4.99,0.23 6.63,1.71 1.64,1.48 2.65,3.73 3.03,6.75 z m -5.39,0.12 -0.07,-0.54 c -0.33,-2.69 -0.78,-4.51 -1.33,-5.45 -0.54,-0.94 -1.44,-1.34 -2.7,-1.19 -1.25,0.14 -2.03,0.75 -2.33,1.79 -0.29,1.07 -0.27,2.94 0.06,5.61 l 0.06,0.54 c 0.33,2.69 0.77,4.48 1.32,5.4 0.55,0.89 1.44,1.27 2.67,1.13 1.25,-0.16 2.04,-0.73 2.34,-1.75 0.31,-1 0.3,-2.87 -0.02,-5.54" class="st3"/>
	<path id="path12396" d="m 170.22,212.9 c 0.82,2.14 0.74,4.12 -0.23,5.94 -0.96,1.82 -2.73,3.22 -5.31,4.23 -2.76,1.04 -5.04,1.23 -6.87,0.55 -1.83,-0.7 -3.31,-2.28 -4.46,-4.72 -0.11,-0.22 -0.23,-0.53 -0.36,-0.91 -0.13,-0.38 -0.22,-0.62 -0.26,-0.72 -0.96,-3.07 -0.99,-5.86 -0.07,-8.38 0.91,-2.53 2.87,-4.38 5.86,-5.54 0.81,-0.31 1.5,-0.51 2.14,-0.67 0.64,-0.14 1.22,-0.27 1.76,-0.39 l 1.24,3.22 c -0.73,0.14 -1.42,0.27 -2.07,0.43 -0.65,0.14 -1.27,0.33 -1.85,0.55 -1.39,0.54 -2.32,1.33 -2.77,2.42 -0.46,1.05 -0.52,2.26 -0.15,3.63 0.13,-0.53 0.57,-1.14 1.32,-1.83 0.75,-0.67 1.52,-1.15 2.29,-1.44 2.3,-0.9 4.32,-1.03 6.04,-0.39 1.71,0.62 2.96,1.96 3.75,4.02 m -4.93,2.25 c -0.5,-1.33 -1.19,-2.17 -2.04,-2.55 -0.85,-0.41 -1.78,-0.41 -2.81,0 -0.92,0.34 -1.58,0.96 -2.02,1.84 -0.44,0.86 -0.4,1.97 0.1,3.31 0.54,1.37 1.2,2.25 2.03,2.62 0.83,0.34 1.77,0.32 2.84,-0.07 1.02,-0.41 1.74,-1.01 2.11,-1.82 0.39,-0.83 0.31,-1.94 -0.21,-3.33" class="st3"/>
</g>
</svg>