<svg xmlns="http://www.w3.org/2000/svg" xmlns:cc="http://creativecommons.org/ns#" xmlns:dc="http://purl.org/dc/elements/1.1/" xmlns:rdf="http://www.w3.org/1999/02/22-rdf-syntax-ns#" xmlns:xlink="http://www.w3.org/1999/xlink" width="325.13pt" height="480.77pt" version="1.2" viewBox="0 0 325.13 480.77">
 <metadata>
  <rdf:RDF>
   <cc:Work rdf:about="">
    <dc:format>image/svg+xml</dc:format>
    <dc:type rdf:resource="http://purl.org/dc/dcmitype/StillImage"/>
    <dc:title/>
   </cc:Work>
  </rdf:RDF>
 </metadata>
 <defs>
  <clipPath id="clip3">
   <path d="m29 540.12h17v24.254h-17z"/>
  </clipPath>
  <clipPath>
   <path d="m1 1h7.8359v9.6602h-7.8359z"/>
  </clipPath>
  <clipPath id="clip18">
   <rect width="9" height="11"/>
  </clipPath>
  <g clip-path="url(#clip18)"/>
  <clipPath>
   <path d="m0.10156 0.39453h15.898v19.605h-15.898z"/>
  </clipPath>
  <clipPath id="clip103">
   <rect width="17" height="21"/>
  </clipPath>
  <g clip-path="url(#clip103)"/>
 </defs>
 <g transform="matrix(19.822 0 0 19.822 -583.45 -10707)" stroke-width=".050448">
  <g clip-path="url(#clip3)" stroke-width=".050448">
   <path d="m37.637 564.22c-2.1484 0-4.168-0.80078-5.6875-2.2617-1.5195-1.4648-2.3594-3.4062-2.3594-5.4766v-16.199h16.09v16.199c0 2.0703-0.83984 4.0117-2.3594 5.4766-1.5195 1.4609-3.5391 2.2617-5.6836 2.2617"/>
   <path d="m45.836 540.12h-16.402v16.355c0 1.0664 0.21875 2.1055 0.64844 3.0781 0.41406 0.94141 1.0039 1.7852 1.7578 2.5117 0.75391 0.72266 1.6289 1.293 2.6055 1.6875 1.0117 0.41016 2.0859 0.6211 3.1875 0.6211 1.1055 0 2.1797-0.21094 3.1914-0.6211 0.97266-0.39453 1.8516-0.96484 2.6055-1.6875 0.75391-0.72656 1.3477-1.5703 1.7617-2.5117 0.42578-0.97265 0.64453-2.0117 0.64453-3.0781zm-0.31641 0.31641v16.039c0 4.1875-3.5312 7.582-7.8867 7.582-4.3516 0-7.8828-3.3945-7.8828-7.582v-16.039h15.77" fill="#fff"/>
  </g>
  <g fill="#fff">
   <path d="m34.797 558.85 1.0156-2.8711 0.53125 1.7227 1.2812-4.5547 1.1914 4.5547 0.75-1.6797 0.83984 2.8281z"/>
   <path d="m33.414 553.14h-2.5273v3.3398c0 1.7656 0.75 3.3711 1.9609 4.5391 1.2227 1.1758 2.9141 1.9023 4.7852 1.9023 1.7773 0 3.5078-0.67187 4.7891-1.9023 1.2109-1.168 1.9609-2.7734 1.9609-4.5391v-3.3398h-2.5273v3.3398c0 2.2383-2.043 3.9141-4.2227 3.9141-2.1758 0-4.2188-1.6562-4.2188-3.9141z"/>
   <path d="m42.695 550.71c-0.16406 0-0.28906 0.0586-0.375 0.16797-0.08594 0.11328-0.12891 0.23828-0.12891 0.375 0 0.13281 0.04297 0.35546 0.12891 0.45312 0.08594 0.0977 0.21094 0.14453 0.375 0.14453 0.14844 0 0.26172-0.0469 0.33594-0.13672 0.07422-0.0937 0.12109-0.19531 0.13281-0.30859 0-0.16406-0.03516-0.41797-0.14062-0.54688-0.07813-0.0977-0.1875-0.14843-0.32813-0.14843m-0.54297-0.46094c0.44141-0.41797 1.2227-0.36328 1.7227 0.0781 0.26953 0.23829 0.34766 0.63282 0.35938 0.9961 0 0.39453-0.12109 0.73828-0.35938 1.0195-0.24219 0.28516-0.52344 0.42578-0.97656 0.42578-0.09766 0-0.19922-4e-3 -0.3125-0.0156-0.10938-8e-3 -0.22266-0.0312-0.33594-0.0586-0.29688-0.0781-0.57422-0.25-0.82422-0.52344-0.25-0.26953-0.375-0.71875-0.375-1.3476 0-0.0781 0.0039-0.16016 0.0078-0.24219 0.0039-0.082 0.01172-0.16406 0.02344-0.25 0.04687-0.41797 0.18359-0.80469 0.41016-1.1562 0.22656-0.34766 0.61328-0.60156 1.1641-0.60156 0.07422 0 0.17969 8e-3 0.30469 0.0195 0.12891 0.0117 0.25781 0.043 0.39453 0.0937 0.18359 0.0625 0.35547 0.16797 0.51172 0.3125s0.26172 0.4375 0.30859 0.71484l-1 8e-3c-0.03516-0.0937-0.08203-0.16016-0.14062-0.20704-0.07031-0.0547-0.15234-0.0898-0.24219-0.0977-0.5-0.0586-0.64062 0.46094-0.64062 0.83203m-4.8984 0.47656 1.7656-2.207h1.0273v2.3438h0.51564v0.99219h-0.50781v0.78906h-1.1406v-0.78906h-1.6602zm0.78516 0.125h0.89453v-1.1523zm-4.0938-0.35547c-0.15625-0.0664-0.28125-0.17578-0.375-0.32812-0.09375-0.14844-0.14062-0.3086-0.14062-0.48047 0-0.0234 0-0.0508 0.0039-0.0781 0-0.0273 0.0039-0.0547 0.0078-0.082 0.04297-0.24609 0.1875-0.47265 0.43359-0.67578 0.24609-0.20312 0.61719-0.30859 1.1094-0.3164h0.05859c0.48047 0 0.83984 0.10156 1.0781 0.3125 0.23828 0.20703 0.38281 0.43359 0.42578 0.67968 0.0039 0.0312 0.0078 0.0586 0.01172 0.0859v0.0859c0 0.17187-0.03906 0.32812-0.125 0.47656-0.08203 0.14453-0.20703 0.25391-0.37109 0.32031 0.19141 0.043 0.34766 0.16016 0.46875 0.35938 0.11719 0.1914 0.17578 0.40625 0.17578 0.63672v0.0586c0 0.0195 0 0.0352-0.0039 0.0547-0.03125 0.28515-0.17188 0.54297-0.42188 0.77344-0.25 0.23046-0.65625 0.34765-1.2109 0.34765-0.58203 0-1.0117-0.11719-1.2852-0.34765-0.27344-0.23047-0.42578-0.48829-0.46094-0.77344v-0.0547c-0.0039-0.0195-0.0039-0.0391-0.0039-0.0586v-0.0352c0.0039-0.19922 0.0625-0.39062 0.17578-0.57031 0.11719-0.1836 0.26562-0.3125 0.44922-0.39063m1.1094 0.39063c-0.16406 0-0.29688 0.0469-0.40234 0.13672-0.10547 0.0898-0.16797 0.18359-0.19141 0.29297 0 0.0117 0 0.0234-0.0039 0.0391v0.0352c0 0.13282 0.04687 0.2461 0.14453 0.34375 0.10156 0.0977 0.25 0.14844 0.45313 0.14844 0.17969 0 0.3125-0.0508 0.40234-0.14844 0.08984-0.0977 0.13672-0.20312 0.13672-0.32421 0-0.0117-0.0039-0.0274-0.0039-0.0391-0.0039-0.0156-0.0039-0.0312-0.0039-0.0508-0.01953-0.10547-0.07813-0.20312-0.17188-0.29297-0.09766-0.0937-0.21484-0.14062-0.35937-0.14062m0.01172-1.5742c-0.15234 0-0.27734 0.0352-0.37109 0.10547-0.09375 0.0664-0.15234 0.14453-0.18359 0.23047-0.0039 0.0156-0.0078 0.0273-0.01172 0.0469v0.0508c0 0.12891 0.04687 0.23438 0.14453 0.31641 0.09766 0.0859 0.23828 0.12891 0.42188 0.12891 0.15625 0 0.27734-0.0391 0.35938-0.1211 0.08203-0.0781 0.125-0.16797 0.13672-0.26953v-0.0664c0-0.0117-0.0039-0.0234-0.0078-0.0352-0.01172-0.0977-0.0625-0.1875-0.14453-0.26563-0.08594-0.0781-0.19922-0.12109-0.34375-0.12109m-4.3047 0.13672c0.58203-0.10547 1.0352-0.27344 1.1094-0.92969h0.85938v4.125h-1.1055v-2.3438h-0.86328z"/>
   <path d="m31.398 543.07h-0.48438v-1.7422h1.2344v0.33594h-0.75v0.40625h0.69531v0.33594h-0.69531z"/>
   <path d="m34.066 541.33v1.1016c-0.0039 0.48438-0.39453 0.67578-0.83203 0.67578-0.44141 0-0.82812-0.1914-0.83203-0.67578v-1.1016h0.48438v1.0781c0.0039 0.22265 0.12109 0.35937 0.34766 0.35937s0.34375-0.13672 0.34766-0.35937v-1.0781z"/>
   <path d="m35.344 541.84c0-0.0703-0.01953-0.12109-0.0625-0.15625-0.04297-0.0352-0.10547-0.0547-0.1875-0.0547-0.10938 0-0.20703 0.0742-0.20703 0.16016 0 0.125 0.15625 0.16797 0.28125 0.20312 0.29297 0.0742 0.71875 0.10157 0.71875 0.57422 0 0.36328-0.36328 0.53906-0.76562 0.53906-0.40625 0-0.76172-0.11718-0.76953-0.58984h0.48438c-0.0039 0.16016 0.11719 0.25 0.28906 0.25 0.11328 0 0.25391-0.0586 0.25391-0.17187 0-0.23829-0.35547-0.1875-0.73438-0.35157-0.17578-0.0781-0.26172-0.23828-0.26172-0.42578 0.01953-0.41015 0.37891-0.52344 0.74219-0.52344 0.35938 0 0.73047 0.125 0.69922 0.54688z"/>
   <path d="m37.098 541.84c0-0.0703-0.01953-0.12109-0.0625-0.15625-0.04297-0.0352-0.10547-0.0547-0.1875-0.0547-0.10938 0-0.20703 0.0742-0.20703 0.16016 0 0.125 0.15625 0.16797 0.28125 0.20312 0.29297 0.0742 0.71875 0.10157 0.71875 0.57422 0 0.36328-0.36328 0.53906-0.76562 0.53906-0.40625 0-0.76172-0.11718-0.76953-0.58984h0.48047c0 0.16016 0.12109 0.25 0.29297 0.25 0.11328 0 0.25391-0.0586 0.25391-0.17187 0-0.23829-0.35547-0.1875-0.73437-0.35157-0.17578-0.0781-0.26563-0.23828-0.26563-0.42578 0.01953-0.41015 0.38281-0.52344 0.74609-0.52344 0.35938 0 0.72656 0.125 0.69922 0.54688z"/>
   <path d="m38.684 542.73c0.12109 0 0.21094-0.0703 0.21094-0.17968 0-0.0977-0.06641-0.1875-0.17578-0.19532h-0.31641v0.375zm-0.28125-0.71093 0.24609-4e-3c0.12891 0 0.21484-0.0469 0.21484-0.18359 0-0.0977-0.08594-0.16797-0.19531-0.16797h-0.26562zm-0.48047 1.0508v-1.7422h0.83203c0.32812 0 0.60547 0.14844 0.60547 0.45313 0 0.21484-0.18359 0.34765-0.37891 0.38281v4e-3c0.23438 0.0312 0.42188 0.17969 0.42188 0.42969 0 0.50391-0.64844 0.47266-0.66406 0.47266z"/>
   <path d="m40.715 542.39-0.22266-0.72266h-0.0078l-0.23439 0.72266zm-1.1836 0.67969 0.6875-1.7422h0.58984l0.6875 1.7422h-0.54688l-0.11719-0.33985h-0.70312l-0.11719 0.33985z"/>
   <path d="m41.688 543.07v-1.7422h0.48438v1.4023h0.78906v0.33985z"/>
   <path d="m43.176 543.07v-1.7422h0.48047v1.4023h0.78906v0.33985z"/>
   <path d="m39.695 543.98h1.5352l0.83594 2.5781 0.92969-2.5781h1.4492l-1.5469 4.1328h-1.6914z"/>
   <path d="m35.441 546.68c0.04297 0.39844 0.21875 0.72266 0.53516 0.98047 0.3125 0.25781 0.97266 0.46094 1.7891 0.46094 0.46094 0 0.84766-0.0547 1.1523-0.16407 0.30859-0.10937 0.54688-0.26953 0.71484-0.48046 0.16797-0.21094 0.26953-0.32032 0.26953-0.57032 0-0.7539-0.4375-0.90234-0.89453-1.0938-0.28125-0.11718-0.66797-0.23437-1.3164-0.34765-0.26172-0.0469-0.42578-0.0937-0.49609-0.14453-0.07031-0.0508-0.10937-0.10547-0.10937-0.16797 0-0.33203 0.76172-0.35547 0.98047-0.20313 0.12109 0.0781 0.16797 0.14453 0.20312 0.32422l1.4922 8e-3c-0.0625-0.40625-0.375-0.82812-0.69922-1.0117-0.32031-0.1875-0.78906-0.28125-1.4023-0.28125-0.5 0-0.84766 0.0977-1.1328 0.19922-0.28906 0.10547-0.46484 0.2461-0.60938 0.42578-0.14062 0.17579-0.25 0.36719-0.25 0.57032 0 0.30859 0.09375 0.62109 0.375 0.82031 0.27344 0.19922 0.73828 0.35547 1.3867 0.47656 0.39844 0.0703 0.65234 0.14453 0.76172 0.22656 0.10938 0.0781 0.16406 0.0625 0.16406 0.16407 0 0.10547-0.05859 0.19922-0.17188 0.28125-0.11719 0.082-0.27734 0.12109-0.48828 0.12109-0.34375 0-0.65625-0.19141-0.71875-0.57031z"/>
   <path d="m30.676 546.68 1.5352 0.0234c0.0625 0.3789 0.375 0.57031 0.71875 0.57031 0.21094 0 0.375-0.0391 0.48828-0.12109 0.11328-0.082 0.17188-0.17578 0.17188-0.28125 0-0.10157-0.05469-0.0859-0.16406-0.16407-0.10938-0.082-0.36328-0.15625-0.75781-0.22656-0.65234-0.12109-1.1133-0.27734-1.3906-0.47656-0.28125-0.19922-0.375-0.51172-0.375-0.82031 0-0.20313 0.07422-0.39453 0.21484-0.57032 0.14453-0.17968 0.35937-0.32031 0.64453-0.42578 0.28906-0.10156 0.63281-0.19922 1.1328-0.19922 0.61328 0 1.082 0.0937 1.4023 0.28125 0.32422 0.1836 0.63672 0.60547 0.69922 1.0117l-1.4883-8e-3c-0.03906-0.17969-0.08594-0.24609-0.20312-0.32422-0.22266-0.15234-0.98438-0.1289-0.98438 0.20313 0 0.0625 0.03906 0.11718 0.10938 0.16797 0.07031 0.0508 0.23437 0.0976 0.49609 0.14453 0.64844 0.11328 1.0352 0.23047 1.3164 0.34765 0.45703 0.19141 0.89844 0.33985 0.89844 1.0938 0 0.25-0.10547 0.35938-0.27344 0.57032-0.16797 0.21093-0.40625 0.37109-0.71484 0.48046-0.30469 0.10938-0.6875 0.16407-1.1523 0.16407-0.81641 0-1.4766-0.20313-1.7891-0.46094-0.31641-0.25781-0.49219-0.58203-0.53516-0.98047"/>
  </g>
 </g>
</svg>