<svg xmlns:dc="http://purl.org/dc/elements/1.1/" xmlns:cc="http://creativecommons.org/ns#" xmlns:rdf="http://www.w3.org/1999/02/22-rdf-syntax-ns#" xmlns:svg="http://www.w3.org/2000/svg" xmlns="http://www.w3.org/2000/svg" xmlns:sodipodi="http://sodipodi.sourceforge.net/DTD/sodipodi-0.dtd" xmlns:inkscape="http://www.inkscape.org/namespaces/inkscape" id="svg2" version="1.1" inkscape:version="0.47 r22583" width="605" height="720" xml:space="preserve" sodipodi:docname="Stabaek_Fotball [Converted].pdf"><metadata id="metadata8"><rdf:RDF><cc:Work rdf:about=""><dc:format>image/svg+xml</dc:format><dc:type rdf:resource="http://purl.org/dc/dcmitype/StillImage"/><dc:title/></cc:Work></rdf:RDF></metadata><defs id="defs6"><inkscape:perspective sodipodi:type="inkscape:persp3d" inkscape:vp_x="0 : 0.5 : 1" inkscape:vp_y="0 : 1000 : 0" inkscape:vp_z="1 : 0.5 : 1" inkscape:persp3d-origin="0.5 : 0.33333333 : 1" id="perspective10"/></defs><sodipodi:namedview pagecolor="#ffffff" bordercolor="#666666" borderopacity="1" objecttolerance="10" gridtolerance="10" guidetolerance="10" inkscape:pageopacity="0" inkscape:pageshadow="2" inkscape:window-width="1280" inkscape:window-height="1005" id="namedview4" showgrid="false" inkscape:zoom="1.05" inkscape:cx="302.5" inkscape:cy="360" inkscape:window-x="-4" inkscape:window-y="-4" inkscape:window-maximized="1" inkscape:current-layer="g12"/><g id="g12" inkscape:groupmode="layer" inkscape:label="Stabaek_Fotball [Converted]" transform="matrix(1.25,0,0,-1.25,-84.960025,860.58243)"><g id="g14" transform="matrix(1,0,0,-1,3.7671959,3.7671959)"><path d="m 355.104,-145.78418 c 21.02393,-26.78369 37.79981,-40.3916 70.41602,-51.83984 55.22412,-19.36817 73.00781,-55.43994 64.94385,-112.24805 -7.9917,-56.23193 -5.61573,-106.9917 30.38427,-153.57617 12.52784,-16.12793 24.33594,-31.31983 24.33594,-60.47949 0,-64.15235 -66.16797,-74.23243 -114.47998,-81.57618 -35.64014,-5.3999 -60.26416,-8.85595 -79.84814,-43.34399 -23.11182,-40.67993 -65.52002,-40.60815 -88.56006,0 -19.58399,34.48804 -44.20801,37.94409 -79.84766,43.34399 -48.31201,7.34375 -114.48022,17.42383 -114.48022,81.57618 0,29.15966 11.80786,44.35156 24.33618,60.47949 36,46.58447 38.37598,97.34424 30.38379,153.57617 -8.06397,56.80811 9.72021,92.87988 64.94385,112.24805 32.61621,11.44824 49.39209,25.05615 70.41601,51.83984 34.84815,44.42432 62.20801,44.42432 97.05615,0 z" style="fill:#fcd213;fill-opacity:1;fill-rule:nonzero;stroke:none" id="path16"/><path d="m 333,-638.69604 c 23.04004,40.60815 52.41602,47.08813 94.60791,53.49584 56.80811,8.64014 96.98389,18.07227 96.98389,61.27247 0,22.10351 -8.35157,32.97558 -20.01563,47.95166 -39.6001,51.19189 -43.27197,107.06396 -34.48828,168.98388 6.69629,47.01612 -5.61572,73.94434 -51.33594,89.92823 -36.35986,12.74414 -56.37597,28.72802 -79.84814,58.60791 -26.20801,33.4082 -38.44776,33.4082 -64.65576,0 -23.47217,-29.87989 -43.48828,-45.86377 -79.84815,-58.60791 -45.71972,-15.98389 -58.03174,-42.91211 -51.33594,-89.92823 8.78418,-61.91992 5.11182,-117.79199 -34.48779,-168.98388 -11.66406,-14.97608 -20.01611,-25.84815 -20.01611,-47.95166 0,-43.2002 40.17578,-52.63233 96.98389,-61.27247 42.19189,-6.40771 71.56787,-12.88769 94.60791,-53.49584 15.19189,-26.71192 37.72802,-26.6399 52.84814,0 z" style="fill:#ffffff;fill-opacity:1;fill-rule:nonzero;stroke:none" id="path18"/><path d="m 322.77588,-168.39209 c -2.08789,2.95215 -4.39209,5.32813 -6.6958,6.98389 -6.04785,4.32031 -12.95996,4.32031 -19.0083,0 -2.30371,-1.65576 -4.60791,-4.03174 -6.6958,-6.98389 -11.73584,-16.34375 -27.07178,-29.52002 -39.38379,-45.35986 -24.76807,-31.896 -5.9043,-78.91211 13.46386,-108.43213 21.31202,-32.47168 51.47999,-58.39209 79.56006,-84.81592 23.25586,-22.03223 45.64795,-43.27197 63.792,-66.88818 19.51171,-25.27198 31.46386,-50.54395 38.73584,-81.2876 0.86425,-3.6001 2.95214,-5.54395 6.9121,-4.75195 5.97608,1.22363 11.95215,2.51953 17.78418,4.17578 0,0 0,0.0718 0,0.0718 5.83155,1.65625 11.44776,3.67237 16.77588,6.40821 16.27198,8.42383 20.08789,27.28808 12.45606,43.05615 -3.09619,6.47998 -7.7041,12.02393 -12.09619,17.71191 -20.87989,27 -32.90381,56.44776 -38.52002,87.33594 -5.61573,31.10401 -4.82373,63.79199 -0.0718,97.05615 5.04004,35.49561 -2.66406,55.36768 -37.80029,67.67969 -9.50391,3.38428 -18.35987,7.12793 -26.64014,11.44824 -26.13574,13.60791 -45.35986,32.54395 -62.56787,56.5918 z" style="fill:#fcd213;fill-opacity:1;fill-rule:nonzero;stroke:none" id="path20"/><path d="m 358.27197,-216.12793 c 14.97608,-11.08789 31.68018,-19.7998 51.47998,-26.71191 16.05616,-5.61621 25.56006,-12.45606 30.38379,-21.6001 4.89649,-9.43213 5.25635,-21.88819 2.88037,-38.66406 -9.64795,-67.82373 -3.24023,-133.70411 39.95996,-189.57618 3.95997,-5.18408 8.4961,-10.58398 11.30372,-16.48779 6.04834,-12.52783 3.60009,-27.28808 -9.43165,-33.98389 -9.72021,-5.04003 -20.95214,-7.63232 -31.68017,-9.86425 -14.11182,65.37597 -57.6001,106.56006 -104.47217,150.91211 -26.71191,25.27197 -58.53564,53.208 -78.55176,83.66406 -17.49609,26.78369 -36.21582,71.49609 -13.75195,100.51172 12.52783,16.12842 27.21582,28.29638 39.52783,45.50439 7.05615,9.86377 14.25586,9.86377 21.31201,0 12.38428,-17.35205 23.32813,-30.6001 41.04004,-43.7041 z" style="fill:#0c2f59;fill-opacity:1;fill-rule:nonzero;stroke:none" id="path22"/><path d="m 275.25586,-598.95215 c 6.84033,-7.12793 12.31201,-15.76758 17.92822,-26.78369 1.43994,-2.95215 3.09571,-5.04004 4.896,-6.55225 5.32812,-4.46386 11.95215,-3.74389 16.9917,0.6482 2.3042,2.08789 4.32031,4.89599 5.90429,8.06396 2.87989,5.83179 7.27198,11.59204 11.66407,17.35181 13.31982,17.49609 23.11181,32.76025 12.74365,53.92822 -7.84766,16.12793 -19.22363,30.95996 -32.18359,45 -12.6001,13.75195 -26.71241,26.64014 -40.32032,39.02393 -4.46386,4.104 -8.85595,8.13623 -14.54394,13.46386 -13.03174,12.16797 -25.34375,24.91211 -36.79199,38.66407 -16.91993,20.23193 -30.52784,42.04785 -43.99219,64.43994 -2.87988,4.75195 -10.07959,3.95996 -10.22363,-1.65576 -1.00831,-32.04004 -3.95997,-61.84815 -17.28028,-92.52002 -6.33594,-14.68799 -14.68799,-28.94434 -25.27197,-42.62403 -1.08008,-1.43994 -1.36768,-1.80029 -1.58399,-2.08789 -3.81591,-4.82422 -7.7041,-9.86425 -10.51171,-15.62402 -7.63233,-15.76807 -3.81641,-34.63232 12.45605,-43.05615 13.53565,-6.91211 29.5918,-9.86377 44.35156,-12.45606 35.92823,-6.33593 78.91211,-9.14404 105.76807,-37.22412 z" style="fill:#fcd213;fill-opacity:1;fill-rule:nonzero;stroke:none" id="path24"/><path d="m 251.92822,-574.47217 c -19.5122,9.43213 -41.04004,13.17627 -62.28027,16.41602 -13.24805,2.01611 -25.34375,4.03222 -35.78418,6.4082 -10.22363,2.3042 -18.93555,5.04004 -25.55957,8.49609 -13.03223,6.69581 -15.47998,21.45606 -9.43213,33.98389 2.80811,5.90381 7.34375,11.30371 11.30371,16.48779 22.03223,28.43995 34.48828,58.896 40.17627,90.86426 2.44775,13.82373 3.67188,28.00781 3.81592,42.40772 6.4082,-11.37598 13.39209,-22.53565 20.87988,-33.33594 13.17627,-18.86377 28.0083,-36.79199 44.71192,-53.63965 8.92822,-9 18.64843,-17.85644 28.5122,-26.92822 27.07178,-24.6958 55.87207,-51.04785 70.99219,-82.00781 4.46387,-9.14405 4.46387,-15.69629 2.5918,-22.03223 -4.53614,-15.40772 -19.51221,-28.00781 -27,-43.19995 -3.88819,-7.70386 -10.58399,-12.09595 -15.62403,-2.15991 -11.73584,23.32812 -23.32812,36.64795 -47.30371,48.23974 z" style="fill:#0c2f59;fill-opacity:1;fill-rule:nonzero;stroke:none" id="path26"/><path d="m 147.02393,-527.45605 c 0,0 11.66406,-7.63184 11.66406,-7.63184 0,0 6.33594,0 6.33594,0 0,0 -7.56006,34.7041 -7.56006,34.7041 0,0 -6.91211,0 -6.91211,0 0,0 5.90429,-26.78418 5.90429,-26.78418 0,0 -6.4082,4.39209 -6.4082,4.39209 0,0 -3.02392,-4.68017 -3.02392,-4.68017 z" style="fill:#fcd213;fill-opacity:1;fill-rule:nonzero;stroke:none" id="path28"/><path d="m 183.16797,-530.47998 c -4.03174,0 -5.61621,4.53613 -5.61621,7.99219 0,2.59179 1.08008,4.67968 4.03222,4.67968 3.88819,0 5.54395,-4.104 5.54395,-7.41601 0,-2.66406 -1.36816,-5.25586 -3.95996,-5.25586 z m 10.58398,7.05615 c 0,11.23194 -5.32812,23.61572 -18.14404,23.61572 -2.66406,0 -6.19189,-0.64794 -7.9917,-1.43994 0,0 1.72754,-5.04004 1.72754,-5.04004 1.87207,0.72022 3.81641,1.0083 5.83203,1.0083 5.61621,0 8.78418,-4.17626 10.36817,-9 0,0 -0.14405,0 -0.14405,0 -1.7998,1.15186 -3.38379,1.58399 -5.3999,1.58399 -5.90381,0 -9.35986,-3.67236 -9.35986,-9.43213 0,-7.7041 4.60791,-13.53613 12.45605,-13.53613 7.70361,0 10.65576,5.18408 10.65576,12.24023 0,0 0,0 0,0 z" style="fill:#fcd213;fill-opacity:1;fill-rule:nonzero;stroke:none" id="path30"/><path d="m 229.82422,-527.45605 c 0,0 11.66357,-7.63184 11.66357,-7.63184 0,0 6.26416,0 6.26416,0 0,0 -7.48779,34.7041 -7.48779,34.7041 0,0 -6.98437,0 -6.98437,0 0,0 5.90429,-26.78418 5.90429,-26.78418 0,0 -6.33594,4.39209 -6.33594,4.39209 0,0 -3.02392,-4.68017 -3.02392,-4.68017 z" style="fill:#fcd213;fill-opacity:1;fill-rule:nonzero;stroke:none" id="path32"/><path d="m 270.64795,-500.38379 c 0,0 -22.75195,0 -22.75195,0 0,0 1.08007,-5.76025 1.08007,-5.76025 6.1919,-5.68799 18.64795,-13.53614 18.64795,-19.22412 0,-3.09571 -2.3042,-4.82373 -5.18408,-4.82373 -2.87988,0 -5.68799,1.29589 -7.9917,2.95166 0,0 -0.14404,-6.1919 -0.14404,-6.1919 2.95166,-1.15185 6.11963,-2.23193 9.2876,-2.23193 5.97607,0 11.3042,2.8081 11.3042,9.35986 0,8.49609 -10.79981,15.84033 -16.70411,20.3042 0,0 0,0.14404 0,0.14404 0,0 13.53614,0 13.53614,0 0,0 -1.08008,5.47217 -1.08008,5.47217 z" style="fill:#fcd213;fill-opacity:1;fill-rule:nonzero;stroke:none" id="path34"/><path d="m 198.93604,-537.60791 c 0,0 6.40771,-4.17627 6.40771,-4.17627 0,0 3.52832,0 3.52832,0 0,0 -4.17627,19.08008 -4.17627,19.08008 0,0 -3.81592,0 -3.81592,0 0,0 3.24024,-14.75977 3.24024,-14.75977 0,0 -3.52832,2.44776 -3.52832,2.44776 0,0 -1.65576,-2.5918 -1.65576,-2.5918 z" style="fill:#fcd213;fill-opacity:1;fill-rule:nonzero;stroke:none" id="path36"/><path d="m 216.86377,-532.20801 c -2.15967,0 -3.02393,2.23194 -3.02393,4.10401 0,1.43994 0.72022,2.87988 2.16016,2.87988 2.23193,0 3.09619,-2.52002 3.09619,-4.39209 0,-1.43994 -0.64795,-2.5918 -2.23242,-2.5918 z m -6.6958,3.09619 c 0,-6.19238 2.95215,-13.03222 10.00781,-13.03222 1.44043,0 3.38428,0.35986 4.39209,0.79199 0,0 -0.93603,2.8081 -0.93603,2.8081 -1.08008,-0.43212 -2.15967,-0.57617 -3.23975,-0.57617 -3.09619,0 -4.82422,2.3042 -5.68799,4.96826 0,0 0.0718,0 0.0718,0 0.93603,-0.64794 1.87207,-0.86425 2.95215,-0.86425 3.23974,0 5.18408,2.01611 5.18408,5.18408 0,4.24805 -2.52002,7.48828 -6.91211,7.48828 -4.24805,0 -5.83203,-2.88037 -5.83203,-6.76807 0,0 0,0 0,0 z" style="fill:#fcd213;fill-opacity:1;fill-rule:nonzero;stroke:none" id="path38"/><path d="m 206.56787,-497.71973 c 1.65625,0.792 2.88037,1.00782 4.68018,1.00782 1.7998,0 4.104,-0.86426 4.104,-3.16797 0,-2.52002 -3.52783,-2.52002 -5.3999,-2.52002 0,0 0.5039,-3.02393 0.5039,-3.02393 2.37598,0 6.1919,0 6.1919,-3.09619 0,-1.43994 -1.36816,-1.94385 -2.95215,-1.94385 -1.51172,0 -3.02392,0.50391 -4.17578,1.00782 0,0 0.43213,-3.16797 0.43213,-3.16797 1.51172,-0.50391 3.16797,-0.86377 4.75195,-0.86377 2.95166,0 5.90381,1.2959 5.90381,4.60791 0,2.8081 -1.94385,4.31982 -4.46387,4.82373 0,0 0,0.0723 0,0.0723 1.94385,0.71973 3.16797,1.87207 3.16797,4.03174 0,4.32031 -3.81592,6.26416 -7.77588,6.26416 -1.87207,0 -3.88818,-0.28808 -5.61621,-1.08008 0,0 0.64795,-2.95166 0.64795,-2.95166 z" style="fill:#fcd213;fill-opacity:1;fill-rule:nonzero;stroke:none" id="path40"/><path d="m 198.57617,-519.31982 c 0,0 26.56787,0 26.56787,0 0,0 -0.86425,3.52783 -0.86425,3.52783 0,0 -26.56788,0 -26.56788,0 0,0 0.86426,-3.52783 0.86426,-3.52783 z" style="fill:#fcd213;fill-opacity:1;fill-rule:nonzero;stroke:none" id="path42"/><path d="m 198.86377,-291.15186 c 4.82422,0 8.7124,-3.88818 8.7124,-8.71191 0,-4.82422 -3.88818,-8.7124 -8.7124,-8.7124 -4.82373,0 -8.71191,3.88818 -8.71191,8.7124 0,4.82373 3.88818,8.71191 8.71191,8.71191 z" style="fill:#fcd213;fill-opacity:1;fill-rule:nonzero;stroke:none" id="path44"/><path d="m 398.95215,-548.4082 c 4.82373,0 8.71191,-3.95996 8.71191,-8.71192 0,-4.82373 -3.88818,-8.71191 -8.71191,-8.71191 -4.75195,0 -8.71192,3.88818 -8.71192,8.71191 0,4.75196 3.95997,8.71192 8.71192,8.71192 z" style="fill:#fcd213;fill-opacity:1;fill-rule:nonzero;stroke:none" id="path46"/><path d="m 349.2002,-543.7998 c 0,0 22.82373,14.9038 22.82373,14.9038 0,0 -16.19971,-30.09619 -16.19971,-30.09619 0,0 5.3999,-15.40771 5.3999,-15.40771 0,0 22.75195,42.33594 22.75195,42.33594 0,0 48.38379,-0.21583 48.38379,-0.21583 0,0 -5.25586,12.45557 -5.25586,12.45557 0,0 -40.96826,0.21631 -40.96826,0.21631 0,0 30.81641,20.15967 30.81641,20.15967 0,0 -7.05615,10.80029 -7.05615,10.80029 0,0 -67.68018,-44.42383 -67.68018,-44.42383 0,0 6.98438,-10.72802 6.98438,-10.72802 z" style="fill:#fcd213;fill-opacity:1;fill-rule:nonzero;stroke:none" id="path48"/><path d="m 335.87988,-489.36816 c 0,0 15.62403,26.92822 15.62403,26.92822 0,0 7.41601,-7.56006 7.41601,-7.56006 0,0 -23.04004,-19.36816 -23.04004,-19.36816 z m 21.09619,61.63232 c 0,0 -41.83203,-71.78418 -41.83203,-71.78418 0,0 21.6001,-26.56787 21.6001,-26.56787 0,0 9.71973,8.35205 9.71973,8.35205 0,0 -10.22364,11.87988 -10.22364,11.87988 0,0 14.75977,12.38379 14.75977,12.38379 0,0 7.91992,-9.5039 7.91992,-9.5039 0,0 9.93604,8.208 9.93604,8.208 0,0 -7.99219,9.57618 -7.99219,9.57618 0,0 17.78418,15.04785 17.78418,15.04785 0,0 15.76807,-18.07178 15.76807,-18.07178 0,0 9.64794,8.49561 9.64794,8.49561 0,0 -19.87207,22.75244 -19.87207,22.75244 0,0 -4.17578,4.75195 -4.17578,4.75195 0,0 -4.82422,-4.03223 -4.82422,-4.03223 0,0 -6.47998,-5.47216 -6.47998,-5.47216 0,0 -10.58398,10.80029 -10.58398,10.80029 0,0 7.99219,13.82373 7.99219,13.82373 0,0 -9.14405,9.36035 -9.14405,9.36035 0,0 0,0 0,0 z" style="fill:#fcd213;fill-opacity:1;fill-rule:nonzero;stroke:none" id="path50"/><path d="m 331.05615,-421.90381 c 0,0 -9.14404,8.71192 -9.14404,8.71192 0,0 -16.12793,-19.15186 -16.12793,-19.15186 2.52002,-2.16016 5.68799,-5.83203 9.14355,-8.35205 12.38428,-8.7124 24.69629,10.58398 16.12842,18.79199 z m -33.19238,-20.37598 c 0,0 -11.44775,-12.8164 -11.44775,-12.8164 0,0 5.75976,-5.25586 5.75976,-5.25586 7.92041,-6.55176 16.63233,2.59228 14.11231,9.93603 -1.0083,2.87989 -4.39209,4.53614 -8.42432,8.13623 z m 46.72803,3.23975 c -4.10401,-10.00781 -14.25586,-18.57617 -25.77588,-17.35205 -1.08008,-6.26367 -4.39209,-12.38379 -9.71973,-16.05615 -14.76025,-10.22364 -26.13623,3.24023 -35.85596,12.16845 0,0 -4.60839,4.17579 -4.60839,4.17579 0,0 4.03222,4.68017 4.03222,4.68017 0,0 43.77588,51.76807 43.77588,51.76807 0,0 4.39209,5.11181 4.39209,5.11181 0,0 4.96777,-4.68017 4.96777,-4.68017 0,0 14.04004,-13.39209 14.04004,-13.39209 7.77637,-7.48779 8.35205,-17.63965 4.75196,-26.42383 z" style="fill:#fcd213;fill-opacity:1;fill-rule:nonzero;stroke:none" id="path52"/><path d="m 284.47217,-398.14404 c 0,0 -24.40821,-12.95996 -24.40821,-12.95996 0,0 14.18409,23.83203 14.18409,23.83203 0,0 10.22412,-10.87207 10.22412,-10.87207 z m -4.46436,44.49609 c 0,0 -42.62402,-70.63184 -42.62402,-70.63184 0,0 8.56836,-8.85595 8.56836,-8.85595 0,0 73.58398,40.3916 73.58398,40.3916 0,0 -8.78418,8.20801 -8.78418,8.20801 0,0 -14.54394,-7.41602 -14.54394,-7.41602 0,0 -15.12012,16.2002 -15.12012,16.2002 0,0 7.27197,12.45605 7.27197,12.45605 0,0 -8.35205,9.64795 -8.35205,9.64795 0,0 0,0 0,0 z" style="fill:#fcd213;fill-opacity:1;fill-rule:nonzero;stroke:none" id="path54"/><path d="m 199.2959,-373.73584 c 0,0 25.77588,-35.56836 25.77588,-35.56836 0,0 10.36816,7.48828 10.36816,7.48828 0,0 -9.57617,13.17578 -9.57617,13.17578 0,0 49.68018,39.52832 49.68018,39.52832 0,0 -7.99219,10.00782 -7.99219,10.00782 0,0 -49.17578,-39.0962 -49.17578,-39.0962 0,0 -8.64014,11.95215 -8.64014,11.95215 0,0 -10.43994,-7.48779 -10.43994,-7.48779 z" style="fill:#fcd213;fill-opacity:1;fill-rule:nonzero;stroke:none" id="path56"/><path d="m 206.35205,-346.73584 c -3.52783,-0.79199 -7.20019,-1.08008 -9.86426,-0.0723 -1.51172,0.64795 -2.73584,1.87207 -3.52783,4.03223 -0.57617,1.65576 -0.50391,3.52783 0.28809,4.96777 0.71972,1.2959 2.01611,2.37598 4.03174,2.95215 2.73632,0.72022 8.13623,-1.08008 13.96826,-3.02392 4.89599,-1.58399 10.08008,-3.31201 15.26416,-4.10401 11.52002,-1.72802 20.08789,2.73584 24.6958,9.21582 1.7998,2.52002 3.02392,5.39991 3.52783,8.35205 0.57617,3.02393 0.43213,6.12012 -0.43164,9 -2.01611,6.98389 -7.77637,12.88819 -17.92822,14.61622 -2.66407,0.43164 -5.32813,0.28759 -8.20801,-0.28809 -2.44776,-0.43213 -5.04004,-1.22412 -7.63184,-2.08789 0,0 4.10401,-12.16797 4.10401,-12.16797 2.15966,0.71973 4.17578,1.36768 5.90381,1.65576 1.43994,0.28809 2.66406,0.35986 3.67187,0.21582 4.6084,-0.79199 7.05615,-2.95166 7.77637,-5.47168 0.35986,-1.0083 0.35986,-2.08838 0.14404,-3.16797 -0.14404,-1.08007 -0.64844,-2.23193 -1.36816,-3.24023 -2.08789,-2.87988 -6.26416,-4.896 -12.38428,-3.95996 -4.24756,0.64795 -8.78369,2.16015 -13.104,3.6001 -7.77588,2.59179 -14.90381,4.96777 -21.38379,3.16796 -5.75977,-1.58398 -9.72022,-4.96826 -11.95215,-9.21582 -2.52002,-4.68017 -2.80762,-10.22412 -1.08008,-15.19238 2.16016,-6.26367 6.12012,-9.86377 11.01611,-11.73584 5.39991,-2.08789 11.59229,-1.7998 17.28028,-0.5039 0,0 -2.80811,12.45605 -2.80811,12.45605 z" style="fill:#fcd213;fill-opacity:1;fill-rule:nonzero;stroke:none" id="path58"/><path d="m 304.41602,-319.37598 c 0,0 33.4082,0 33.4082,0 0,0 0,53.78418 0,53.78418 0,1.15186 -0.0723,2.30371 -0.21631,3.45606 -2.73584,18.57568 -25.48779,22.03174 -34.19971,6.62353 -2.66406,-4.67968 -3.60009,-10.7998 -3.02441,-16.48779 0,0 13.68017,0 13.68017,0 -0.43212,3.24023 -0.0718,7.56006 1.15186,9.72021 2.66406,4.67969 8.06397,3.31202 8.78418,-1.80029 0.0718,-0.5039 0.14404,-0.93603 0.14404,-1.51172 0,0 0,-40.104 0,-40.104 0,0 -19.2959,0 -19.2959,0 -5.83203,0 -5.25634,-13.68018 -0.43212,-13.68018 z" style="fill:#fcd213;fill-opacity:1;fill-rule:nonzero;stroke:none" id="path60"/><path d="m 392.32813,-305.83984 c 0,0 -26.64014,0 -26.64014,0 0,0 0,13.53564 0,13.53564 0,0 16.12793,0 16.12793,0 0,0 0,13.75244 0,13.75244 0,0 -16.12793,0 -16.12793,0 0,0 0,31.03174 0,31.03174 0,0 -13.68018,0 -13.68018,0 0,0 0,-72 0,-72 0,0 40.6084,0 40.6084,0 4.53565,0 4.96777,13.68018 -0.28808,13.68018 z" style="fill:#fcd213;fill-opacity:1;fill-rule:nonzero;stroke:none" id="path62"/></g></g></svg>