<svg xmlns:inkscape="http://www.inkscape.org/namespaces/inkscape" xmlns:sodipodi="http://sodipodi.sourceforge.net/DTD/sodipodi-0.dtd" xmlns="http://www.w3.org/2000/svg" xmlns:svg="http://www.w3.org/2000/svg" xmlns:rdf="http://www.w3.org/1999/02/22-rdf-syntax-ns#" xmlns:cc="http://creativecommons.org/ns#" xmlns:dc="http://purl.org/dc/elements/1.1/" id="svg2" version="1.1" inkscape:version="1.1.1 (c3084ef, 2021-09-22)" xml:space="preserve" width="483.39999" height="600" viewBox="0 0 483.39999 600" sodipodi:docname="Logo_Stade_lavallois_MFC_2015.svg"><metadata id="metadata8"><rdf:RDF><cc:Work rdf:about=""><dc:format>image/svg+xml</dc:format><dc:type rdf:resource="http://purl.org/dc/dcmitype/StillImage"/></cc:Work></rdf:RDF></metadata><defs id="defs6"/><sodipodi:namedview pagecolor="#ffffff" bordercolor="#666666" borderopacity="1" objecttolerance="10" gridtolerance="10" guidetolerance="10" inkscape:pageopacity="0" inkscape:pageshadow="2" inkscape:window-width="1920" inkscape:window-height="893" id="namedview4" showgrid="false" inkscape:zoom="0.954894" inkscape:cx="199.49858" inkscape:cy="285.37199" inkscape:window-x="0" inkscape:window-y="25" inkscape:window-maximized="1" inkscape:current-layer="g10" inkscape:pagecheckerboard="0"/><g id="g10" inkscape:groupmode="layer" inkscape:label="Logo Stade Lavallois" transform="matrix(1.25,0,0,-1.25,0,600.00003)"><g id="g6480" transform="matrix(0.99999698,0,0,0.99999698,-32.746046,-389.36807)"><path d="m 226.09561,389.36927 -0.26164,0.0581 C 144.66848,408.67223 100.11758,456.71163 99.681514,457.20583 33.516519,523.35629 32.746145,630.11857 32.746145,631.19418 v 197.68101 l 0.552344,0.34885 c 0.174424,0.10174 16.744744,10.17475 48.664412,20.10241 29.419589,9.14275 78.287489,20.04427 144.132709,20.04427 65.85975,0 114.74219,-10.90152 144.14724,-20.04427 31.91967,-9.92766 48.48999,-20.00067 48.66442,-20.10241 l 0.5378,-0.34885 V 631.19418 c 0,-1.07561 -0.75583,-107.83789 -66.9499,-174.03196 -0.40699,-0.45059 -44.94336,-48.48999 -126.12339,-67.73481 l -0.27617,-0.0581 z" style="fill:#ffffff;fill-opacity:1;fill-rule:nonzero;stroke:none" id="path118" inkscape:connector-curvature="0" sodipodi:nodetypes="cccscccscccscccc"/><path inkscape:connector-curvature="0" id="path6415" style="fill:#000000;fill-opacity:1;fill-rule:nonzero;stroke:none" d="m 226.09852,390.97252 -1.1483,0.27617 C 144.52603,410.31909 101.55948,456.64331 99.771634,458.59105 34.144447,524.21824 33.388608,626.8234 33.388608,631.15494 v 195.2536 l 2.369265,1.45353 c 2.630902,1.62796 66.121387,39.7833 190.340647,39.7833 124.21925,0 187.70974,-38.15534 190.35518,-39.7833 l 2.36926,-1.45353 v -195.2536 c 0,-4.33154 -0.75584,-106.9367 -66.54291,-172.72378 -1.62796,-1.78785 -44.59451,-48.11207 -125.03324,-67.18247 z" sodipodi:nodetypes="cccsccsccsccc"/><path d="M 43.3308,820.72521 V 631.15494 c 0,-1.01748 0.799445,-102.8668 63.62131,-165.68866 0.58141,-0.61049 42.58862,-45.77188 119.14641,-64.2754 76.57232,18.50352 118.57953,63.65038 119.00105,64.11551 63.0399,63.05443 63.7812,164.83107 63.7812,165.84855 v 189.57027 c -12.54402,6.75894 -74.65365,36.97797 -182.78225,36.97797 -108.11407,0 -170.209162,-30.20449 -182.76772,-36.97797" style="fill:#ffffff;fill-opacity:1;fill-rule:nonzero;stroke:none" id="path116" inkscape:connector-curvature="0" sodipodi:nodetypes="cscccscsc"/></g><g id="g6520" transform="matrix(0.99999698,0,0,0.99999698,-32.746046,-389.36807)"><path d="m 359.90821,498.84384 c 36.97797,55.03091 36.97797,127.18447 36.97797,127.18447 v 186.73588 c -60.10374,34.41975 -170.87778,35.27733 -170.87778,35.27733 0,0 -110.75951,-0.85758 -170.877789,-35.27733 L 359.90821,498.84384" style="fill:#ec6608;fill-opacity:1;fill-rule:evenodd;stroke:none" id="path122" inkscape:connector-curvature="0"/><path d="M 360.73091,500.15203 336.108,471.77899 c -60.48167,-53.66458 -109.9746,-58.43218 -109.9746,-58.43218 0,0 -49.49293,4.7676 -109.97459,58.43218 C 55.168403,525.89416 55.168403,626.42077 55.168403,626.42077 V 812.8514" style="fill:#000000;fill-opacity:1;fill-rule:evenodd;stroke:none" id="path124" inkscape:connector-curvature="0"/></g><g id="g1547"><path d="m 258.41335,110.78245 c -4.1571,0 -6.52636,1.96226 -6.52636,6.11937 V 255.2781 c 0,15.14581 -6.5409,21.68671 -21.6867,21.68671 h -31.46898 v -67.16774 -46.54211 c -25.07343,32.00679 -81.67399,34.2307 -81.67399,53.75164 0,9.5061 10.6544,13.83763 21.03262,13.83763 9.52064,0 20.17503,-4.60771 20.17503,-12.10794 v -8.93922 h 32.37017 v 67.16774 H 179.4284 v -9.30261 c -12.58759,6.36647 -27.87875,9.30261 -40.75704,9.30261 -40.93148,0 -73.505142,-24.79727 -73.505142,-61.97863 0,-64.56591 93.389462,-67.15319 93.389462,-89.93004 0,-11.52652 -10.36369,-15.27663 -20.75645,-15.27663 -25.93101,0 -47.254338,24.21585 -47.254338,24.21585 L 61.997518,97.962288 c 0,0 26.817669,-34.012657 75.234832,-34.012657 28.37295,0 49.42011,11.003237 61.49896,27.384547 v -5.000145 c 0,-15.160344 6.52637,-21.686704 21.67217,-21.686704 h 68.15613 l 30.00091,28.823543 9.98577,17.311578 z" style="fill:#ffffff;fill-opacity:1;fill-rule:nonzero;stroke:none;stroke-width:0.999997" id="path126" inkscape:connector-curvature="0"/><g id="g6474" transform="matrix(0.99999698,0,0,0.99999698,-32.746046,-389.36807)"><path inkscape:connector-curvature="0" id="path128" style="fill:#ec6608;fill-opacity:1;fill-rule:nonzero;stroke:none" d="m 211.75066,518.95498 c 2.61636,0 3.19778,1.26458 3.72105,2.70358 h 2.28205 v -21.55595 h -3.38674 v 16.45403 h -2.61636 z"/><path inkscape:connector-curvature="0" id="path130" style="fill:#ec6608;fill-opacity:1;fill-rule:nonzero;stroke:none" d="m 227.57386,512.82396 v 3.88094 c 0,1.54075 -0.68317,2.0931 -1.75878,2.0931 -1.07562,0 -1.74425,-0.55235 -1.74425,-2.0931 v -3.88094 c 0,-1.54075 0.66863,-2.12216 1.74425,-2.12216 1.07561,0 1.75878,0.58141 1.75878,2.12216 m 3.38674,-7.3549 c 0,-3.63384 -1.65703,-5.61065 -5.17459,-5.61065 -3.3286,0 -5.04378,1.97681 -5.04378,5.42169 v 0.55235 h 3.19778 v -0.77038 c 0,-1.54075 0.68317,-2.12216 1.75878,-2.12216 1.1919,0 1.87507,0.58141 1.87507,2.64544 v 3.93908 c -0.58142,-1.22097 -1.62796,-1.90413 -3.13964,-1.90413 -2.48555,0 -3.75013,1.75878 -3.75013,4.92749 v 3.93908 c 0,3.45942 1.80239,5.4217 5.13099,5.4217 3.3286,0 5.14552,-1.96228 5.14552,-5.4217 z"/><path inkscape:connector-curvature="0" id="path132" style="fill:#ec6608;fill-opacity:1;fill-rule:nonzero;stroke:none" d="m 237.24278,505.06353 c 0,-1.54075 0.68317,-2.12217 1.75878,-2.12217 1.07562,0 1.74425,0.58142 1.74425,2.12217 v 11.64283 c 0,1.54075 -0.66863,2.12216 -1.74425,2.12216 -1.07561,0 -1.75878,-0.58141 -1.75878,-2.12216 z m -3.38674,11.4248 c 0,3.44488 1.81692,5.42169 5.14552,5.42169 3.3286,0 5.13099,-1.97681 5.13099,-5.42169 v -11.20677 c 0,-3.44488 -1.80239,-5.42169 -5.13099,-5.42169 -3.3286,0 -5.14552,1.97681 -5.14552,5.42169 z"/><path inkscape:connector-curvature="0" id="path134" style="fill:#ec6608;fill-opacity:1;fill-rule:nonzero;stroke:none" d="m 252.20113,518.82852 c -1.07562,0 -1.75878,-0.58141 -1.75878,-2.12216 v -2.31113 h -3.19778 v 2.0931 c 0,3.44488 1.72971,5.42169 5.05831,5.42169 3.31406,0 5.04377,-1.97681 5.04377,-5.42169 0,-6.77349 -6.74441,-9.30264 -6.74441,-12.83473 0,-0.15989 0,-0.30525 0.0291,-0.46514 h 6.4101 v -3.08149 h -9.79684 v 2.64543 c 0,6.35196 6.71534,7.39851 6.71534,13.61964 0,1.93321 -0.68316,2.45648 -1.75878,2.45648"/></g><g id="g6446" transform="matrix(0.99999698,0,0,0.99999698,-32.746046,-389.36807)"><g id="g6417"><path d="M 71.379699,784.01032 H 82.542862 V 723.16527 H 100.90103 V 713.01958 H 71.379699 Z" style="fill:#ffffff;fill-opacity:1;fill-rule:nonzero;stroke:none" id="path136" inkscape:connector-curvature="0"/><path d="m 120.17493,735.53051 h 10.75617 l -5.37808,35.90236 z m 25.45143,-22.51529 h -11.25038 l -1.9332,12.87834 h -13.69232 l -1.91866,-12.87834 h -10.24744 l 11.35212,70.99074 h 16.33776 z" style="fill:#ffffff;fill-opacity:1;fill-rule:nonzero;stroke:none" id="path138" inkscape:connector-curvature="0"/><path d="m 161.90597,726.09996 8.51773,57.90891 h 10.24743 L 169.71146,713.01813 H 153.083 l -10.95966,70.99074 h 11.26491 z" style="fill:#ffffff;fill-opacity:1;fill-rule:nonzero;stroke:none" id="path140" inkscape:connector-curvature="0"/><path d="m 190.75577,735.53051 h 10.75617 l -5.37808,35.90236 z m 25.45143,-22.51529 h -11.25038 l -1.9332,12.87834 H 189.3313 l -1.91867,-12.87834 H 177.1652 l 11.35212,70.99074 h 16.33776 z" style="fill:#ffffff;fill-opacity:1;fill-rule:nonzero;stroke:none" id="path142" inkscape:connector-curvature="0"/><path d="m 221.37888,784.01032 h 11.16317 v -60.84505 h 18.35817 v -10.14569 h -29.52134 z" style="fill:#ffffff;fill-opacity:1;fill-rule:nonzero;stroke:none" id="path144" inkscape:connector-curvature="0"/><path d="m 255.75939,784.01032 h 11.16316 v -60.84505 h 18.35817 v -10.14569 h -29.52133 z" style="fill:#ffffff;fill-opacity:1;fill-rule:nonzero;stroke:none" id="path146" inkscape:connector-curvature="0"/><path d="m 300.39024,729.34426 c 0,-5.07285 2.22391,-7.00605 5.77054,-7.00605 3.56116,0 5.78507,1.9332 5.78507,7.00605 v 38.32976 c 0,5.07284 -2.22391,7.00605 -5.78507,7.00605 -3.54663,0 -5.77054,-1.93321 -5.77054,-7.00605 z m -11.16317,37.63206 c 0,11.35213 5.98858,17.84944 16.93371,17.84944 10.95966,0 16.94824,-6.49731 16.94824,-17.84944 v -36.91983 c 0,-11.36666 -5.98858,-17.84943 -16.94824,-17.84943 -10.94513,0 -16.93371,6.48277 -16.93371,17.84943 z" style="fill:#ffffff;fill-opacity:1;fill-rule:nonzero;stroke:none" id="path148" inkscape:connector-curvature="0"/><path d="m 330.30402,713.01232 h 11.14863 v 70.99073 h -11.14863 z" style="fill:#ffffff;fill-opacity:1;fill-rule:nonzero;stroke:none" id="path150" inkscape:connector-curvature="0"/><path d="m 364.58424,784.81994 c 10.84338,0 16.42496,-6.49731 16.42496,-17.84943 v -2.22391 h -10.53814 v 2.93614 c 0,5.07285 -2.03495,6.99151 -5.58158,6.99151 -3.54663,0 -5.58158,-1.91866 -5.58158,-6.99151 0,-14.60804 21.80305,-17.34069 21.80305,-37.63207 0,-11.35212 -5.68333,-17.84943 -16.62846,-17.84943 -10.94513,0 -16.643,6.49731 -16.643,17.84943 v 4.36061 h 10.55268 v -5.07284 c 0,-5.07284 2.23845,-6.88976 5.78508,-6.88976 3.54662,0 5.78507,1.81692 5.78507,6.88976 0,14.60805 -21.80305,17.35523 -21.80305,37.63207 0,11.35212 5.58158,17.84943 16.42497,17.84943" style="fill:#ffffff;fill-opacity:1;fill-rule:nonzero;stroke:none" id="path152" inkscape:connector-curvature="0"/></g><g id="g6428"><path d="m 179.78157,833.2765 c 6.16299,0 9.3317,-3.67745 9.3317,-10.13115 v -1.26458 h -5.98857 v 1.67157 c 0,2.878 -1.14829,3.96815 -3.16871,3.96815 -2.02041,0 -3.16871,-1.09015 -3.16871,-3.96815 0,-8.2997 12.38413,-9.84045 12.38413,-21.35246 0,-6.4537 -3.22685,-10.14569 -9.44798,-10.14569 -6.22114,0 -9.43346,3.69199 -9.43346,10.14569 v 2.47101 h 5.98857 v -2.878 c 0,-2.878 1.26458,-3.92455 3.27046,-3.92455 2.02042,0 3.28499,1.04655 3.28499,3.92455 0,8.28516 -12.36959,9.84044 -12.36959,21.35246 0,6.4537 3.15417,10.13115 9.31717,10.13115" style="fill:#ffffff;fill-opacity:1;fill-rule:nonzero;stroke:none" id="path154" inkscape:connector-curvature="0"/><path d="m 192.68316,832.81573 h 19.57914 v -5.75601 h -6.62813 v -34.53603 h -6.33742 v 34.53603 h -6.61359 z" style="fill:#ffffff;fill-opacity:1;fill-rule:nonzero;stroke:none" id="path156" inkscape:connector-curvature="0"/><path d="m 220.60705,805.30027 h 6.10486 l -3.05243,20.37859 z m 14.44816,-12.77658 h -6.39556 l -1.09015,7.31129 h -7.76189 l -1.10469,-7.31129 h -5.81415 l 6.45371,40.29204 h 9.27356 z" style="fill:#ffffff;fill-opacity:1;fill-rule:nonzero;stroke:none" id="path158" inkscape:connector-curvature="0"/><path d="m 246.05412,827.05972 v -28.78003 h 3.5757 c 2.00588,0 3.21232,1.03201 3.21232,3.91002 v 20.96 c 0,2.878 -1.20644,3.91001 -3.21232,3.91001 z m -6.32288,5.75601 h 10.00033 c 6.33742,0 9.44799,-3.50303 9.44799,-9.95673 v -20.37859 c 0,-6.4537 -3.11057,-9.95672 -9.44799,-9.95672 h -10.00033 z" style="fill:#ffffff;fill-opacity:1;fill-rule:nonzero;stroke:none" id="path160" inkscape:connector-curvature="0"/><path d="m 271.27589,815.83551 h 8.69215 v -5.75601 h -8.69215 v -11.80272 h 10.9306 v -5.756 h -17.26802 v 40.29204 h 17.26802 v -5.75601 h -10.9306 z" style="fill:#ffffff;fill-opacity:1;fill-rule:nonzero;stroke:none" id="path162" inkscape:connector-curvature="0"/></g><g id="g6435"><path d="m 164.37262,686.16404 2.67451,17.76222 h 5.47983 v -25.01537 h -3.72105 v 17.93664 l -2.71811,-17.93664 h -3.72106 l -2.92161,17.68954 v -17.68954 h -3.43034 v 25.01537 h 5.46529 z" style="fill:#ffffff;fill-opacity:1;fill-rule:nonzero;stroke:none" id="path164" inkscape:connector-curvature="0"/><path d="m 180.03303,686.84284 h 3.79373 l -1.90413,12.64577 z m 8.96832,-7.93631 h -3.96815 l -0.66863,4.53503 h -4.82574 l -0.68317,-4.53503 h -3.60477 l 3.99723,25.01537 h 5.756 z" style="fill:#ffffff;fill-opacity:1;fill-rule:nonzero;stroke:none" id="path166" inkscape:connector-curvature="0"/><path d="m 193.65848,687.20041 -4.97109,16.73021 h 4.11351 l 3.00882,-11.41027 2.99428,11.41027 h 3.75013 l -4.9711,-16.73021 v -8.28516 h -3.92455 z" style="fill:#ffffff;fill-opacity:1;fill-rule:nonzero;stroke:none" id="path168" inkscape:connector-curvature="0"/><path d="m 208.96132,693.3823 h 5.39262 v -3.5757 h -5.39262 v -7.32582 h 6.78801 v -3.57571 h -10.71256 v 25.01537 h 10.71256 v -3.5757 h -6.78801 z" style="fill:#ffffff;fill-opacity:1;fill-rule:nonzero;stroke:none" id="path170" inkscape:connector-curvature="0"/><path d="m 222.58532,697.02777 v -18.1256 h -3.5321 v 25.0299 h 4.92749 l 4.04084,-14.98596 v 14.98596 h 3.50302 v -25.0299 h -4.04083 z" style="fill:#ffffff;fill-opacity:1;fill-rule:nonzero;stroke:none" id="path172" inkscape:connector-curvature="0"/><path d="m 238.74719,697.02777 v -18.1256 h -3.53209 v 25.0299 h 4.92749 l 4.04083,-14.98596 v 14.98596 h 3.50303 v -25.0299 h -4.04084 z" style="fill:#ffffff;fill-opacity:1;fill-rule:nonzero;stroke:none" id="path174" inkscape:connector-curvature="0"/><path d="m 255.33641,693.3823 h 5.39262 v -3.5757 h -5.39262 v -7.32582 h 6.78802 v -3.57571 h -10.71257 v 25.01537 h 10.71257 v -3.5757 h -6.78802 z" style="fill:#ffffff;fill-opacity:1;fill-rule:nonzero;stroke:none" id="path176" inkscape:connector-curvature="0"/><path d="m 275.82401,692.81106 h 5.07284 v -3.5757 h -5.07284 v -10.33465 h -3.92455 v 25.02991 h 10.39279 v -3.5757 h -6.46824 z" style="fill:#ffffff;fill-opacity:1;fill-rule:nonzero;stroke:none" id="path178" inkscape:connector-curvature="0"/><path d="m 296.48604,688.23678 v -3.3286 c 0,-3.99722 -2.00588,-6.27928 -5.85776,-6.27928 -3.8664,0 -5.85775,2.28206 -5.85775,6.27928 v 13.00916 c 0,4.01176 1.99135,6.29381 5.85775,6.29381 3.85188,0 5.85776,-2.28205 5.85776,-6.29381 v -2.42741 h -3.72106 v 2.68904 c 0,1.77332 -0.78491,2.45648 -2.03495,2.45648 -1.25004,0 -2.03495,-0.68316 -2.03495,-2.45648 v -13.51789 c 0,-1.78785 0.78491,-2.42741 2.03495,-2.42741 1.25004,0 2.03495,0.63956 2.03495,2.42741 v 3.5757 z" style="fill:#ffffff;fill-opacity:1;fill-rule:nonzero;stroke:none" id="path180" inkscape:connector-curvature="0"/></g></g><path sodipodi:type="star" style="fill:#ffffff;stroke:none;stroke-width:0.4;stroke-linecap:round;stroke-linejoin:round" id="path975" inkscape:flatsided="false" sodipodi:sides="5" sodipodi:cx="-74.791321" sodipodi:cy="525.7608" sodipodi:r1="31.798767" sodipodi:r2="14.627433" sodipodi:arg1="1.0863184" sodipodi:arg2="1.7146369" inkscape:rounded="0.05" inkscape:randomized="0" d="m -59.981159,553.90011 c -0.961796,0.50621 -15.83128,-13.50714 -16.906932,-13.66293 -1.075652,-0.1558 -19.310066,9.06275 -20.088711,8.30445 -0.778644,-0.7583 7.953917,-19.23038 7.769696,-20.30153 -0.184222,-1.07115 -14.586324,-15.56442 -14.105754,-16.53928 0.48056,-0.97486 20.747067,1.62211 21.708864,1.1159 0.961797,-0.50621 10.295221,-18.68209 11.370873,-18.52629 1.075652,0.1558 4.868478,20.2329 5.647123,20.99119 0.778645,0.7583 20.949122,4.01826 21.133344,5.08941 0.184221,1.07115 -17.738187,10.8825 -18.218755,11.85737 -0.480568,0.97486 2.652049,21.1655 1.690252,21.67171 z" transform="matrix(0.56993113,0.08698619,0.08698619,-0.56993113,190.28385,353.15929)" inkscape:transform-center-x="0.053932929" inkscape:transform-center-y="-2.1369458"/></g></g></svg>