<svg xmlns="http://www.w3.org/2000/svg" xml:space="preserve" overflow="visible" height="335" viewBox="0 0 200 334.995" width="200" version="1.1" enable-background="new 0 0 200 334.995">
<title>Royal Standard de Liège</title>
<path d="M179.22,130.61l-1.072-1.122c-9.354-9.85-6.414-21.793-5.285-25.22l0.436-1.305,0.974,0.965c8.72,8.542,6.282,21.438,5.321,25.183l-0.37,1.51" fill="#988344"/>
<path d="M183.32,147.02l-0.192-1.371c-1.36-9.808,2.999-14.269,4.94-15.731l1.113-0.832,0.248,1.365c1.788,9.956-2.881,14.354-4.973,15.787l-1.14,0.77" fill="#988344"/>
<path d="M179.04,153.82l-1.16-1.795c-5.68-8.703-5.121-15.989-4.615-18.716l0.331-1.797,1.168,1.41c6.013,7.254,5.266,15.563,4.673,18.788l-0.39,2.12" fill="#988344"/>
<path d="M185.36,164.06l0.093-1.305c0.902-12.644,7.55-17.428,9.563-18.593l1.217-0.709,0.063,1.407c0.627,13.924-7.269,17.877-9.702,18.763l-1.23,0.43" fill="#988344"/>
<path d="M181.61,176.32l-1.133-0.979c-7.714-6.631-6.115-16.377-5.45-19.205l0.379-1.57,1.083,1.19c6.663,7.294,5.993,15.778,5.384,19.086l-0.26,1.47" fill="#988344"/>
<path d="M185.93,187.81l0.104-1.48c1.022-15.318,10.108-18.943,12.864-19.689l1.025-0.273,0.053,1.064c0.58,12.174-9.582,18.176-12.713,19.72l-1.33,0.66" fill="#988344"/>
<path d="M178.43,198.39l-1.066-1.249c-7.801-9.199-4.457-17.828-3.248-20.25l0.589-1.18,0.841,1.013c5.868,7.136,4.258,16.425,3.299,20.081l-0.41,1.59" fill="#988344"/>
<path d="M179.96,211.49l0.5-1.622c4.658-15.192,12.391-17.327,14.647-17.62l0.941-0.121,0.021,0.946c0.266,11.701-11.043,16.625-14.512,17.856l-1.6,0.55" fill="#988344"/>
<path d="M169.9,223.36l-0.648-1.316c-6.205-12.535-0.795-19.76,1.015-21.676l0.877-0.934,0.526,1.174c5.016,11.34,0.539,19.348-0.947,21.539l-0.82,1.22" fill="#988344"/>
<path d="M172.14,231.92l0.628-1.418c4.673-10.637,15.577-13.306,18.799-13.872l1.664-0.287-0.754,1.51c-5.43,11.061-15.769,13.391-18.801,13.841l-1.54,0.23" fill="#988344"/>
<path d="M154.34,244.18l-0.173-1.393c-1.754-14.022,5.77-19.388,8.113-20.702l1.035-0.575,0.221,1.171c2.377,12.551-5.556,19.033-8.043,20.714l-1.16,0.78" fill="#988344"/>
<path d="M157.85,252.27c-0.44,0-0.823-0.02-1.113-0.035l-1.275-0.082,0.558-1.148c5.03-10.252,14.758-11.785,20.114-11.785,1.522,0,2.76,0.117,3.524,0.223l1.556,0.205-1.015,1.2c-8.75,10.31-18.54,11.43-22.35,11.43" fill="#988344"/>
<path d="M133.43,265.65l0.092-1.616c0.98-17.685,10.469-22.676,13.361-23.783l1.141-0.44,0.015,1.238c0.096,14.588-10.089,21.877-13.218,23.768l-1.39,0.83" fill="#988344"/>
<path d="M143.27,272.1c-3.173,0-5.571-0.65-6.71-1.048l-1.202-0.401,0.819-0.964c5.941-6.924,13.766-8.381,19.296-8.381,2.888,0,5.207,0.411,6.333,0.646l1.521,0.319-1.084,1.117c-7.06,7.18-14.22,8.7-18.98,8.7" fill="#988344"/>
<path d="M120.37,289.07c-4.27,0-7.365-0.812-8.83-1.297l-1.658-0.545,1.443-0.978c6.918-4.674,13.966-7.044,20.971-7.044,4.723,0,8.113,1.099,9.725,1.764l1.568,0.641-1.456,0.886c-7.23,4.36-14.55,6.58-21.76,6.58" fill="#988344"/>
<path d="M104.21,283.96l0.229-1.31c0.51-2.999,3.992-18.156,22.05-22.492l1.487-0.348-0.475,1.44c-1.373,4.265-7.025,18.479-22.005,22.368l-1.29,0.34" fill="#988344"/>
<path d="M20.779,130.61l1.072-1.122c9.354-9.85,6.414-21.793,5.287-25.22l-0.437-1.305-0.973,0.965c-8.72,8.542-6.282,21.438-5.321,25.183l0.372,1.51" fill="#988344"/>
<path d="M16.683,147.02l0.193-1.371c1.36-9.808-3-14.269-4.941-15.731l-1.112-0.832-0.249,1.365c-1.789,9.956,2.881,14.354,4.973,15.787l1.136,0.77" fill="#988344"/>
<path d="M20.962,153.82l1.159-1.795c5.68-8.703,5.121-15.989,4.615-18.716l-0.331-1.797-1.168,1.41c-6.013,7.254-5.266,15.563-4.673,18.788l0.398,2.12" fill="#988344"/>
<path d="M14.646,164.06l-0.093-1.305c-0.902-12.644-7.549-17.428-9.562-18.593l-1.216-0.709-0.063,1.407c-0.629,13.924,7.269,17.877,9.702,18.763l1.232,0.43" fill="#988344"/>
<path d="M18.39,176.32l1.133-0.979c7.713-6.631,6.115-16.377,5.45-19.205l-0.378-1.57-1.083,1.19c-6.663,7.294-5.993,15.778-5.384,19.086l0.262,1.47" fill="#988344"/>
<path d="M14.071,187.81l-0.105-1.48c-1.021-15.318-10.108-18.943-12.864-19.689l-1.025-0.273-0.053,1.064c-0.58,12.174,9.583,18.176,12.712,19.72l1.335,0.66" fill="#988344"/>
<path d="M21.567,198.39l1.065-1.249c7.801-9.199,4.457-17.828,3.248-20.25l-0.588-1.18-0.842,1.013c-5.868,7.136-4.257,16.425-3.298,20.081l0.415,1.59" fill="#988344"/>
<path d="M20.043,211.49l-0.5-1.622c-4.658-15.192-12.391-17.327-14.648-17.62l-0.941-0.121-0.021,0.946c-0.265,11.701,11.043,16.625,14.511,17.856l1.599,0.55" fill="#988344"/>
<path d="M30.096,223.36l0.648-1.316c6.207-12.535,0.795-19.76-1.014-21.676l-0.878-0.934-0.526,1.174c-5.016,11.34-0.54,19.348,0.947,21.539l0.823,1.22" fill="#988344"/>
<path d="M27.864,231.92l-0.628-1.418c-4.672-10.637-15.576-13.306-18.798-13.872l-1.665-0.287,0.754,1.51c5.431,11.061,15.769,13.391,18.801,13.841l1.536,0.23" fill="#988344"/>
<path d="M45.663,244.18l0.174-1.393c1.754-14.022-5.77-19.388-8.113-20.702l-1.035-0.575-0.222,1.171c-2.376,12.551,5.556,19.033,8.044,20.714l1.152,0.78" fill="#988344"/>
<path d="M42.146,252.27c0.441,0,0.823-0.02,1.113-0.035l1.276-0.082-0.558-1.148c-5.029-10.252-14.758-11.785-20.113-11.785-1.523,0-2.761,0.117-3.525,0.223l-1.556,0.205,1.015,1.2c8.749,10.31,18.541,11.43,22.348,11.43" fill="#988344"/>
<path d="M66.567,265.65l-0.092-1.616c-0.98-17.685-10.468-22.676-13.361-23.783l-1.141-0.44-0.015,1.238c-0.095,14.588,10.09,21.877,13.218,23.768l1.391,0.83" fill="#988344"/>
<path d="M56.732,272.1c3.173,0,5.571-0.65,6.71-1.048l1.201-0.401-0.82-0.964c-5.941-6.924-13.765-8.381-19.294-8.381-2.887,0-5.207,0.411-6.334,0.646l-1.521,0.319,1.084,1.117c7.057,7.18,14.215,8.7,18.974,8.7" fill="#988344"/>
<path d="M79.627,289.07c4.269,0,7.365-0.812,8.831-1.297l1.658-0.545-1.444-0.978c-6.917-4.674-13.965-7.044-20.971-7.044-4.722,0-8.113,1.099-9.724,1.764l-1.569,0.641,1.457,0.886c7.236,4.36,14.56,6.58,21.762,6.58" fill="#988344"/>
<path d="M95.795,283.96l-0.228-1.31c-0.511-2.999-3.993-18.156-22.05-22.492l-1.487-0.348,0.473,1.44c1.374,4.265,7.026,18.479,22.006,22.368l1.286,0.34" fill="#988344"/>
<path d="M128.79,302.17c-8.541-2.784-23.151-8.116-28.168-13.45l-0.62-0.67-0.619,0.662c-5.017,5.334-19.626,10.666-28.168,13.45-8.633-0.987-17.148-2.383-25.521-4.123l-7.306,30.369c20.053,4.195,40.668,6.582,61.614,6.582,20.947,0,41.562-2.387,61.613-6.582l-7.305-30.369c-8.37,1.74-16.88,3.14-25.51,4.13zm-44.622,1.15c7.374-4.084,13.717-9.146,15.832-10.901,2.115,1.755,8.459,6.817,15.832,10.901-5.24,0.335-10.518,0.517-15.832,0.517-5.311,0-10.589-0.18-15.83-0.52z" fill="#988344"/>
<path d="M171.19,286.35l-27.718,6.346,0.931,4.055c3.104-0.538,6.207-1.1,9.275-1.742l2.949-0.609,5.26,21.891,15.657-3.591-6.36-26.36z" fill="#988344"/>
<path d="M46.327,295.01c3.068,0.643,6.172,1.204,9.274,1.742l0.932-4.055-27.717-6.346-6.356,26.349,15.658,3.591,5.259-21.891,2.95,0.61z" fill="#988344"/>
<path d="M80.041,313.76l-0.49-1.898c0.71-0.209,1.319-0.536,1.837-0.969,0.527-0.437,0.941-0.912,1.26-1.437l0.275,0.018,1.7,1.074-1.3,19.182-2.659-0.182,1.097-16.181-1.72,0.4" fill="#FFF"/>
<path d="M90.24,319.79c-1.283-0.323-1.899-1.161-1.858-2.516l0.138-3.985c0.077-2.304,1.19-3.421,3.346-3.347l1.658,0.057c2.148,0.07,3.191,1.258,3.117,3.566l-0.14,4.016c-0.047,1.348-0.663,2.143-1.85,2.383,1.298,0.424,1.926,1.245,1.879,2.48l-0.146,4.411c-0.074,2.282-1.187,3.391-3.342,3.317l-2.054-0.07c-2.146-0.068-3.183-1.242-3.117-3.535l0.153-4.434c0.039-1.24,0.779-2.01,2.216-2.34m1.507,7.9l0.706,0.021c0.8,0.025,1.215-0.446,1.251-1.42l0.13-3.768c0.029-0.955-0.469-1.443-1.493-1.481-1.057-0.021-1.594,0.435-1.625,1.352l-0.129,3.792c-0.035,0.98,0.351,1.48,1.16,1.51zm-0.554-13.83l-0.108,3.348c-0.028,0.969,0.357,1.471,1.16,1.497l0.31,0.009c0.81-0.102,1.224-0.563,1.257-1.393l0.111-3.364c0.036-0.979-0.351-1.476-1.16-1.512l-0.31-0.009c-0.811-0.04-1.225,0.43-1.26,1.41z" fill="#FFF"/>
<path d="M103.01,325.45l0.021,0.816c0.021,0.979,0.436,1.449,1.244,1.432l0.395-0.004c0.706-0.018,1.058-0.42,1.043-1.205l-0.118-4.893-1.659,1.161-0.615,0.019c-2.154,0.047-3.252-1.133-3.314-3.523l-0.123-5.652c-0.051-2.361,1.001-3.563,3.148-3.613l1.777-0.035c2.147-0.049,3.256,1.108,3.31,3.465l0.289,13.039c0.05,2.4-0.994,3.627-3.148,3.67l-1.604,0.033c-2.158,0.053-3.255-1.125-3.315-3.525l-0.022-1.122,2.71-0.09m2.56-5.17l-0.145-6.693c-0.014-0.803-0.469-1.195-1.348-1.178l-0.311,0.008c-0.809,0.019-1.203,0.434-1.181,1.236l0.114,5.229c0.022,0.974,0.438,1.449,1.243,1.432l1.64-0.04z" fill="#FFF"/>
<path d="M113.94,319.59c-1.305-0.197-1.996-0.975-2.08-2.318l-0.25-3.986c-0.136-2.3,0.866-3.517,3.014-3.649l1.657-0.098c2.15-0.139,3.292,0.951,3.435,3.246l0.25,4.016c0.084,1.349-0.457,2.195-1.619,2.549,1.336,0.293,2.033,1.057,2.117,2.287l0.261,4.408c0.147,2.283-0.855,3.491-3.004,3.623l-2.053,0.121c-2.148,0.131-3.296-0.939-3.435-3.225l-0.277-4.43c-0.08-1.23,0.58-2.08,1.98-2.54m0.4-6l0.206,3.344c0.063,0.969,0.488,1.432,1.293,1.384l0.31-0.018c0.794-0.179,1.167-0.686,1.119-1.506l-0.208-3.369c-0.061-0.969-0.49-1.433-1.298-1.38l-0.304,0.019c-0.81,0.06-1.19,0.58-1.12,1.54zm1.85,13.72l0.706-0.043c0.795-0.049,1.177-0.563,1.114-1.537l-0.229-3.753c-0.057-0.958-0.609-1.405-1.638-1.341-1.043,0.084-1.54,0.586-1.479,1.502l0.227,3.784c0.06,0.98,0.5,1.44,1.3,1.39z" fill="#FFF"/>
<path d="M46.902,39.949c0.45,0.667,10.739,12.338,18.001,20.548,10.979-3.897,22.785-6.018,35.097-6.018s24.118,2.121,35.096,6.019c7.264-8.21,17.553-19.881,18.002-20.548,0.088-0.183,0.229-0.335,0.379-0.559,0.367-0.449,0.864-1.109,0.754-1.663-0.04-0.324-0.281-0.645-0.696-0.934-0.935-0.568-3.132,1.414-4.549,2.727-0.353,0.323-0.696,0.637-1.038,0.922-0.213,0.195-0.503,0.458-0.799,0.754-1.596,1.549-4.25,4.115-9.213,5.909-6.482,2.344-15.043,1.532-17.951,0.79-7.441-1.873-16.84-7.547-19.266-23.822,0,0-0.104-0.733-0.719-0.733s-0.719,0.733-0.719,0.733c-2.426,16.275-11.824,21.95-19.266,23.822-2.908,0.742-11.469,1.554-17.951-0.79-4.963-1.794-7.617-4.36-9.212-5.909-0.296-0.296-0.586-0.56-0.8-0.754-0.341-0.285-0.685-0.599-1.037-0.922-1.417-1.313-3.615-3.295-4.549-2.727-0.415,0.289-0.656,0.609-0.697,0.934-0.11,0.553,0.387,1.214,0.753,1.663,0.161,0.223,0.302,0.376,0.389,0.558z" fill="#988344"/>
<path d="M164.4,111.46c-2.508-22.373-5.555-42.249-6.061-45.458h-18.875c-12.501-5.312-25.801-8.104-39.463-8.104s-26.962,2.792-39.462,8.104h-18.873c-0.505,3.209-3.551,23.084-6.061,45.458-3.585,32.164-4.381,54.809-2.301,65.5,2.189,11.287,6.384,28.201,17.317,44.782,11.256,17.078,27.419,30.857,49.383,42.115,21.965-11.258,38.127-25.037,49.384-42.115,10.933-16.581,15.127-33.495,17.317-44.782,2.08-10.7,1.29-33.34-2.3-65.5zm-64.4-45.463h-19.857c6.55-1.401,13.037-2.116,19.857-2.116s13.308,0.715,19.857,2.116h-19.86z" fill="#988344"/>
<path d="M64.651,74.626h-15.563c-1.199,8.179-3.176,22.32-4.911,37.79-4.641,41.626-3.5,57.271-2.406,62.891,2.045,10.547,5.935,26.339,16.051,41.68,2.083,3.16,4.365,6.194,6.829,9.122v-151.48z" fill="#F10"/>
<path d="M150.91,74.626h-76.328v161.74c7.228,6.52,15.658,12.4,25.418,17.73,18.614-10.156,32.438-22.324,42.178-37.102,10.117-15.345,14.006-31.135,16.051-41.678,1.095-5.624,2.236-21.269-2.406-62.9-1.73-15.465-3.71-29.605-4.91-37.784z" fill="#FFF"/>
<path d="M129.67,179.22c-4.216,13.643-10.862,13.246-11.146,13.208l-0.351-0.026-0.124-0.306c-1.895-4.438-4.982-26.433-4.982-38.094,0-10.406,3.951-49.579,4.663-56.308l-15.962,7.825c5.584,17.38,3.206,75.053,1.921,84.285-0.854,6.307-2.736,12.479-4.096,17-0.575,1.864-1.017,3.33-1.244,4.349-0.691,2.985-0.291,4.979,0.032,5.419,0.415-0.195,1.618-0.994,2.877-1.841,3.1-2.086,7.799-5.211,12.324-7.521,3.275-1.662,6.912-3.264,9.842-4.561,2.896-1.252,5.887-2.58,6.226-2.99,0.698-0.824,2.101-4.143,2.55-10.76,0.3-4.25-1.52-7.98-2.53-9.68" fill="#988040"/>
<path d="M100.42,146.25c0.627-5.608,0.35-17.084,0.303-18.69-1.077-1.253-8.133-9.826-7.4-19.581,0.447-6.044,5.222-13.337,13.197-14.905,12.998-2.552,26.998,8.861,29.686,11.191l11.375-13.508c-14.302-9.187-29.582-12.565-45.379-10.048-12.259,1.961-20.405,11.719-22.804,19.948-1.678,5.761-3.149,14.961,3.465,28.042,5.338,10.58,14.895,16.16,17.559,17.55m43.21,12.01c-8.01-10.685-22.152-18.411-25.576-20.17-0.207,3.169-0.771,14.461,0.188,17.956,1.672,1.149,14.56,10.407,17.33,19.524,2.58,8.433,3.312,21.378-2.298,32.36-1.683,3.289-6.69,11.68-16.683,18.143-10.02,6.49-21.761,8.969-34.896,7.381,1.975,2.475,8.229,9.172,21.187,13.508,2.432-1.23,26.526-14.027,38.84-36.938,6.303-11.701,9.361-21.623,9.361-30.351,0.01-7.69-2.44-14.71-7.45-21.41z" fill="#988344"/>
<line y2="160.86" x2="32.168" y1="160.86" x1="40.798" fill="none"/>
<path d="M110.33,7.664h-6.738c-0.518,0-1.063-0.402-1.221-0.89l-2.08-6.408c-0.08-0.247-0.19-0.366-0.29-0.366s-0.209,0.119-0.293,0.365l-2.079,6.408c-0.16,0.488-0.705,0.89-1.223,0.89h-6.737c-0.513,0-0.596,0.25-0.181,0.55l5.454,3.959c0.415,0.3,0.629,0.948,0.462,1.44l-2.08,6.406c-0.16,0.49,0.054,0.643,0.469,0.337l5.445-3.965c0.212-0.148,0.487-0.222,0.762-0.222s0.551,0.073,0.762,0.222l5.445,3.965c0.415,0.305,0.629,0.152,0.469-0.337l-2.079-6.406c-0.167-0.493,0.047-1.14,0.462-1.44l5.454-3.959c0.43-0.3,0.35-0.549-0.17-0.549z" fill="#988344"/>
</svg>