<svg xmlns="http://www.w3.org/2000/svg" id="svg1110" height="309.10547" viewBox="0 0 229.5473 231.82912" width="306.06308">
   <g id="surface38662" transform="translate(-340.211 -338.47683)">
      <path id="path1101" d="m335.75832 336.08188h.10549c-.0261.0261-.0794.0794-.10549.10549zm114.57314 10.97961c38.92845-2.60601 77.70921 19.22964 97.00315 52.85665 5.32655 9.11402 9.03766 19.12918 11.51408 29.36738-25.9888.17279-52.00272.0542-77.99654-.007.97751-3.77339 5.08243-5.49935 7.08767-8.66996 7.71356-8.0682 15.01522-16.51111 23.06231-24.24477 4.7499-4.38521 11.85063-5.72539 18.01103-3.98938.82982.1316 2.02131.75347 2.57688-.1949-2.37194-2.9506-6.31712-4.02054-9.94585-4.36512-6.44471-1.01769-12.45039 2.64921-17.18522 6.62855-10.43108 9.25868-19.50993 19.9369-29.56629 29.59944-2.25037 2.17001-4.31489 5.81481-7.97275 5.05832-2.48144-.47318-5.74549.97952-7.69949-.94938-1.26081-4.2968.25919-9.03967-.76654-13.36762-1.54612-1.01668-5.47323-1.38438-5.424 1.33215-.3476 3.99139.31144 8.06517-.29335 12.01839-2.29358 1.46576-5.94641.63694-8.65892.44405-11.83354-11.10519-21.92305-24.04383-34.33427-34.55227-5.208-4.08182-11.69993-7.7236-18.54649-6.64865-3.01088.84893-6.31611 1.79529-8.47908 4.19234-.83284 1.05486.85393 1.36831 1.60741 1.13925 3.26605-.67109 6.69988-1.17542 9.99206-.41692 10.00712 3.37958 16.46188 12.28864 24.08 19.04981 4.57508 6.02075 10.67822 10.95349 14.5571 17.42935-26.9643.0723-53.93964.0643-80.90293.003-.14969-1.57928.4782-3.07618.87101-4.57509 12.0184-42.67772 53.06762-75.34229 97.40902-77.13757m3.05107 3.70809c-14.25572 1.61244-25.69344 14.82133-25.90944 29.03685-.70726 15.79582 13.21391 30.805 29.15942 30.45037 8.01394.4762 15.89226-3.09627 21.51417-8.67499-4.54194-.23408-9.10196-1.06993-13.24003-3.08824-2.71552-1.44064-5.16682 1.1493-7.79493 1.54513-6.17547 1.06993-12.45341.19289-18.65902-.0824-1.09103-.1949-3.34843-.216-3.07316-1.8003.7173-1.93693 4.55198.97248 4.53892-1.07194-4.92269-9.97398-5.08444-22.17221-.63995-32.37524.94134-1.55517-1.21661-2.22927-1.57225-3.37656 1.3221-2.00324 4.15918-1.95703 6.31913-2.04242 5.49935-.0974 11.09012-.0251 16.39056 1.62348 5.37779 2.43523 10.27235-3.41574 15.7506-1.90076.80973.37573.99961 1.70285-.0231 1.93392-4.02756 1.57124-9.87853 1.01066-11.80542 5.76859-1.03376 2.10872-3.45392 5.65607-1.21158 7.47445 6.48389-.95239 13.10139-2.6261 19.69077-1.4969 1.07696.20294.18485 1.78724-.65904 1.72797-6.71495.41692-13.70719.55254-20.10166 2.81598-1.1051 2.10872-1.46576 6.63257 1.68979 7.31974 6.06194 1.54512 12.37102 1.53307 18.54348 2.29357 1.13422-.15873 2.24233 1.83446.75648 2.0605-6.62252.5425-13.28926-.27527-19.74401-1.7129-1.92889-.37271-1.68477 1.92588-1.26885 3.09628.6721 2.00323 1.02673 4.69866 3.23793 5.59378 3.19472 1.19351 6.47384 2.2765 9.90767 2.46135 1.59937.0492 3.13947.6068 4.12702 1.91382 4.80717-5.17485 7.75978-12.31979 7.53073-19.43057.5425-12.63524-8.21186-24.94398-20.21519-28.80779-4.22749-1.53508-8.8086-1.57828-13.23902-1.25479m-9.26471 11.33928c-1.34721.45007-1.66367 2.07355-2.27549 3.19673-4.8815 9.93279-4.4033 22.39825 1.21661 31.91411 1.81034 2.13484 8.96231 2.06854 6.79432-2.07757-3.73422-10.42908-2.98577-22.25459 2.20918-32.05577-1.98214-1.9962-5.38984-.91823-7.94462-.9775m11.08309 1.05184c-3.58854 3.5363-4.56002 9.03766-5.53552 13.82674-.15371 6.27493-.28029 13.07025 2.88832 18.69417 1.47881 2.90138 5.54757 1.61545 7.77986.40186.73036-1.96205-.38076-4.14109-.6942-6.1393-1.40648-8.3947-.92326-17.24651 2.72858-25.03139-1.87766-1.43562-4.76798-2.25339-7.16704-1.75208m-79.03633 45.77401c-1.79528 1.20656-4.83228 2.75469-4.42842 5.31349.89011.0261 1.7772-.12056 2.66931-.0693.41391 3.14249-.18485 6.35027.25216 9.48974.27527 1.52001 2.83407 1.24273 2.99079-.20494.51939-4.24155.35262-8.53133.34258-12.79498.10548-1.05788-.76453-1.93492-1.82642-1.73399m12.15201-.0251c-3.22988 1.28291-4.05268 6.18953-2.00122 8.80057 1.11916 1.55115 3.14851 1.10811 4.77099 1.40949 1.64659 1.60239-1.13623 5.00407-2.72054 2.73361-.90517-1.59938-3.61366-.14869-2.0605 1.26784 2.9275 3.24295 7.99084.12056 8.08126-3.76234.79968-4.17927.0874-12.13394-6.06999-10.44917m130.39307.25718c-2.95763 1.0177-3.20678 4.75492-3.29218 7.40916.0673 2.84712.0824 6.75112 3.03299 8.19678 4.23753 1.13624 6.54718-3.89696 6.15135-7.41216.64598-3.67796-.92828-9.84037-5.89216-8.19378m13.12952.0171c-2.82401 2.78283 3.32232 1.99319 4.81721 2.75972.3697 4.14913-4.09186 7.84918-2.73662 12.20627 1.11113 1.36027 2.89334-.22604 2.75973-1.64559.16978-4.2104 2.60299-7.93457 3.0601-12.03949-1.26282-2.72557-5.44711-1.04884-7.90042-1.28091m-81.52279-55.6907c5.50136-.30541 11.66075-.49327 16.31621 2.95261 1.16236.66105.81275 2.47642-.62789 1.62549-5.77663-2.96567-12.32682-2.96064-18.64595-2.81598.51738-1.1503 1.80532-1.57626 2.95763-1.76212m14.68771 48.36093c1.31204-.63192 2.93955.26321 1.64156 1.57727-5.24919 3.98637-12.33787 3.09326-18.51032 2.83607-1.11313.27025-2.92448-1.46073-1.1935-1.89775 6.06998-.0743 12.35796-.1748 18.06226-2.51559m-75.35235 8.93016c2.50957.0824 1.90779 4.36914.90718 5.83791-2.93653.5636-2.47641-4.52687-.90718-5.83791m130.14894.55054c1.78422-.30139 1.94396 2.18608 1.84852 3.43785-.31344 2.45431.79265 5.58172-1.22163 7.48952-1.59435.76854-2.04141-1.46073-1.98817-2.59798.35765-2.68437-1.08198-6.41858 1.36128-8.32939" fill="#e32338"/>
      <path id="path1103" d="m349.71867 437.18392c1.15231-.30339 2.35285-.16676 3.52827-.17982 68.99504.0432 138.00314-.0643 206.99015.15973 1.36328 5.69425 1.12418 11.65272 1.18647 17.48058.0251 6.01774-.0291 12.28865-1.69482 18.03915-68.12402.26523-136.28522.0332-204.42432.0201-1.93894-.3677-5.71735 1.23469-5.74046-1.82039-1.21159-11.17752-1.47882-22.55798.15471-33.69934m46.64 2.77479c-5.27733 1.37132-7.75375 8.34044-4.25864 12.61013 4.00446 3.33537 9.73187 3.18668 14.01662 6.02577 1.37634 1.07998.79767 3.34643-.75348 3.95323-4.52887 2.23229-10.72946-.83887-11.44978-5.93838-.0753-2.23731-3.78645-2.25841-3.52123.10549.20294 3.15253-.54551 6.5301.36267 9.54902 1.98315 2.46134 3.53329-2.50957 5.55059-.67612 3.00586 2.18608 7.11279 2.386 10.54963 1.23469 5.12261-1.81336 6.6376-9.04771 2.93453-12.90549-3.49511-3.04805-8.5032-2.86822-12.44035-5.04928-1.13222-.6731-2.13182-2.42216-.87704-3.472 3.03499-2.89334 8.49214-1.14126 10.16084 2.43623.48925 1.4316 1.53608 5.00708 3.48004 2.98576 1.2377-2.78785.6942-6.21163.36568-9.18433-1.2146-2.53569-3.25399 1.89774-4.95584.0844-2.55478-2.1469-6.01372-2.27348-9.16424-1.75911m53.24544 2.02935c-1.44064.54049-1.08299 2.97873.3265 3.35949 1.08299.48523 2.95764.48825 2.87023 2.1037.0955 5.13266.0774 10.28239 0 15.41304.0442 1.66669-1.75107 1.9721-3.00887 2.2343-1.86459.11353-1.28391 3.47502.42697 3.34342 3.4921.0291 6.99826.0934 10.48734-.0231 1.22967.0573 1.79026-1.32411 1.49691-2.34984-.59876-1.79025-3.75732-1.05285-3.78545-3.20477-.11554-5.1417-.0261-10.29244-.0492-15.43917-.26723-2.45833 3.78645-1.52201 3.89395-3.85778.17983-1.17241-.95641-1.88268-2.00826-1.736-3.54635.11352-7.12384-.18988-10.65009.15672m49.1144-.007c-2.9938 1.65563.18284 4.13506 2.3659 4.22045.90317 5.15376.14668 10.63904.40186 15.91938.70223 3.60261-5.53452 1.76916-3.81157 5.74047 3.64179 1.30401 7.82105.30038 11.6708.57063 2.42316.28833 2.23028-3.50516-.0462-3.35145-3.95523.18585-1.81838-4.6856-2.34581-7.10576-.48825-2.04944 2.11977-2.00022 3.20779-1.04682 1.37534 1.23469.19288 3.62872 1.68677 4.77099 1.33013.47318 2.32974-.99258 2.2785-2.18608.0673-3.33035.0593-6.66874.0261-9.99909.11252-1.85154-3.07819-2.02634-2.95763-.0442.0331 1.98012-1.91583 4.27772-3.88893 2.84511-.4782-2.2554-1.44264-7.22731 2.29458-6.79532 2.56081.24714 6.56326-.47017 7.40112 2.80392.68716 1.53005.44304 4.91968 2.99179 4.14009 1.35525-1.98817.72534-4.56505.90015-6.82346.0512-1.33917.18485-3.65183-1.77217-3.51018-6.80035.11553-13.61777-.64296-20.40305-.14868m-128.34864 8.21386c-1.37333.64296-2.63314 1.92186-2.91846 3.4489-.22905 3.12239 4.13004 5.9665 6.4196 3.10431 3.07819-2.36892.0382-7.61511-3.50114-6.55321m59.14262.25719c-3.0169.81777-3.28916 5.55058-.60378 6.96008 2.24234 1.54311 5.55762-.38879 5.57269-3.038.26723-2.58191-2.47441-4.88151-4.96891-3.92208m48.34586.76151c-4.52385 1.40648-1.76112 8.99848 2.62611 6.93898 4.34603-1.60741 1.8234-8.71618-2.62611-6.93898m59.42292.005c-2.91644.7585-3.41775 5.46821-.71731 6.80537 2.2554 1.40146 5.4441-.52442 5.41898-3.11938.13362-2.37695-2.4081-4.43946-4.70167-3.68599" fill="#fff"/>
      <path id="path1105" d="m449.57096 340.13758c30.0907-1.64358 60.76711 9.37421 82.44303 30.38104 16.96922 15.36985 29.05895 36.21695 33.52956 58.74178 8.13952 35.64029-2.37394 74.70938-26.84274 101.79624-20.34076 22.8433-50.28479 37.48279-81.03655 37.69878-41.22704 1.29799-81.82116-22.52985-101.47978-58.65638-22.45049-39.13339-18.60275-91.71779 10.28742-126.58953 9.05976-11.34932 20.53064-20.86318 32.77307-28.43408 15.37186-8.71618 32.69572-13.83176 50.32599-14.93785m.7605 6.92391c-44.3414 1.79528-85.39062 34.45985-97.40902 77.13758-.39281 1.49891-1.0207 2.99581-.87101 4.57509 26.96329.0613 53.93863.0693 80.90293-.003-3.87888-6.47585-9.98202-11.40859-14.5571-17.42934-7.61812-6.76117-14.07288-15.67024-24.08-19.04982-3.29218-.75849-6.72601-.25417-9.99206.41693-.75348.22905-2.44025-.0844-1.60741-1.13926 2.16297-2.39704 5.4682-3.34341 8.47908-4.19232 6.84656-1.07496 13.33849 2.56683 18.54649 6.64865 12.41122 10.50844 22.50073 23.44708 34.33427 34.55227 2.71251.19289 6.36534 1.02171 8.65892-.44405.60479-3.95322-.0543-8.027.29335-12.0184-.0492-2.71652 3.87788-2.34883 5.424-1.33214 1.02573 4.32795-.49427 9.07082.76654 13.36762 1.954 1.92889 5.21805.4762 7.69949.94938 3.65786.75648 5.72238-2.88832 7.97275-5.05832 10.05636-9.66254 19.13521-20.34076 29.56629-29.59944 4.73483-3.97934 10.74051-7.64625 17.18522-6.62856 3.62873.34459 7.57391 1.41452 9.94585 4.36512-.55557.94838-1.74706.32651-2.57688.1949-6.1604-1.736-13.26113-.39582-18.01103 3.98939-8.04709 7.73365-15.34875 16.17657-23.06231 24.24476-2.00524 3.17062-6.11016 4.89657-7.08767 8.66997 25.99382.0613 52.00774.17983 77.99654.007-2.47642-10.23819-6.18753-20.25336-11.51408-29.36737-19.29394-33.62703-58.0747-55.46268-97.00315-52.85667m-100.61279 90.12243c-1.63353 11.14136-1.3663 22.52182-.15471 33.69935.0231 3.05508 3.80152 1.45269 5.74046 1.82039 68.1391.0131 136.3003.24513 204.42432-.0201 1.66568-5.7505 1.71993-12.02141 1.69482-18.03915-.0623-5.82787.17681-11.78633-1.18647-17.48058-68.98701-.22404-137.99511-.11655-206.99015-.15974-1.17542.0131-2.37596-.12357-3.52827.17982m2.05447 43.12982c1.09103 5.31349 3.01992 10.42706 5.12563 15.41305 14.65254 36.27119 50.67057 62.71007 89.66532 65.79328 22.69663 2.05748 45.90762-3.78545 65.0137-16.18159 22.67853-14.55208 39.49405-37.82235 46.32152-63.88248-.67612-.39582-1.47882-.44203-2.23731-.45309-21.69802.0492-43.40006-.0844-65.09306-.0171 1.48083 2.77981 3.96026 4.90662 6.05893 7.22932 9.24864 10.44415 19.12215 20.35383 28.09451 31.04411 1.42758 1.93692-1.05687 3.62169-2.50756 4.55298-2.17503 1.34721-3.69504-1.36127-5.14874-2.55377-11.58038-12.74877-23.57869-25.10171-35.43735-37.59329-1.24172-1.13925-2.16297-3.19975-4.14611-2.95764-6.1182.19591-12.31075-.46514-18.37772.0492-.57666 3.52023-.86498 7.39911-.13964 10.91431 3.2098 1.47681 6.88474 2.30764 9.4807 4.91466 4.34804 3.20477 3.97533 9.89461 1.16739 13.97642-2.5799 3.56142-7.42021 3.34844-10.94646 5.26427-1.33717 2.32271-1.01569 5.68119-3.56644 7.35792-2.02735-1.89775-2.50254-4.73784-2.84512-7.34988-3.18066-2.00625-7.21124-2.2996-10.32861-4.555-4.67756-2.0605-5.79371-8.49013-3.22688-12.582 2.30362-3.95523 6.92794-5.63698 11.22274-6.32415 4.32092-.867 2.18105-6.3784 2.67031-9.45157-.0673-.90015.15672-2.47943-1.17341-2.42015-6.32114-.10047-12.65333-.0101-18.97748-.16175-1.94899-.13864-3.43082 1.22967-4.61628 2.58693-12.81005 12.66437-25.14491 25.78586-37.66261 38.72952-1.99821 2.82201-6.90282-.93832-6.04085-3.45894 11.42366-12.83818 23.64801-25.06253 35.22136-37.72892-22.5168-.14165-45.05368-.37573-67.57048-.15471m98.5533 17.43537c-2.78283.18184-5.86906 1.11112-7.2675 3.74125-2.17905 4.97995 4.51581 8.35651 8.55343 7.0525.0573-3.60562.16275-7.23434 0-10.83795-.42898-.0261-.85896 0-1.28593.0442m8.49817.47519c-.70023 3.20477-.6721 7.36093-.23207 10.81184 3.12742.76151 7.93659-1.31908 7.60506-5.25422.70525-4.02154-4.17424-5.77362-7.37299-5.55762m-5.44208-147.45472c4.43042-.32349 9.01153-.28029 13.23902 1.25479 12.00333 3.86381 20.75769 16.17255 20.21519 28.80779.22905 7.11078-2.72356 14.25572-7.53072 19.43057-.98755-1.30702-2.52765-1.86459-4.12702-1.91382-3.43383-.18485-6.71294-1.26784-9.90767-2.46135-2.21119-.89512-2.56583-3.59055-3.23793-5.59378-.41591-1.1704-.66004-3.46899 1.26885-3.09628 6.45476 1.43763 13.12149 2.2554 19.74402 1.7129 1.48584-.22604.37774-2.21923-.75649-2.0605-6.17245-.7605-12.48154-.74845-18.54348-2.29357-3.15555-.68717-2.79488-5.21102-1.68979-7.31974 6.39448-2.26344 13.38671-2.39906 20.10166-2.81598.84389.0593 1.736-1.52503.65904-1.72797-6.58937-1.1292-13.20688.54451-19.69077 1.4969-2.24233-1.81838.17782-5.36573 1.21159-7.47445 1.92688-4.75793 7.77785-4.19735 11.80542-5.76859 1.02271-.23107.83283-1.55819.0231-1.93392-5.47826-1.51498-10.37282 4.33599-15.75061 1.90076-5.30043-1.6486-10.8912-1.72093-16.39055-1.62348-2.15996.0854-4.99704.0392-6.31913 2.04242.35564 1.14729 2.51358 1.82139 1.57224 3.37656-4.44448 10.20303-4.28274 22.40126.63995 32.37524.0131 2.04442-3.82161-.86499-4.53892 1.07194-.27527 1.5843 1.98214 1.6054 3.07317 1.8003 6.2056.27527 12.48354 1.15231 18.65901.0824 2.62811-.39583 5.07941-2.98577 7.79493-1.54513 4.13808 2.01831 8.6981 2.85416 13.24003 3.08824-5.62191 5.57872-13.50023 9.15119-21.51417 8.67499-15.9455.35463-29.86668-14.65455-29.15942-30.45037.216-14.21552 11.65372-27.42441 25.90944-29.03685m-3.06613 2.72356c-1.15232.18586-2.44025.61182-2.95764 1.76212 6.31913-.14466 12.86932-.14969 18.64595 2.81598 1.44064.85093 1.79025-.96444.6279-1.62549-4.65548-3.44588-10.81487-3.25802-16.31623-2.95261m14.68771 48.36093c-5.7043 2.34079-11.99228 2.44125-18.06226 2.51559-1.73098.43702.0804 2.168 1.1935 1.89775 6.17245.25719 13.26113 1.1503 18.51032-2.83607 1.29799-1.31406-.32952-2.20919-1.64156-1.57727m-20.88628-39.74521c2.55478.0593 5.96248-1.0187 7.94462.9775-5.19495 9.80118-5.9434 21.62669-2.20918 32.05577 2.16799 4.14611-4.98398 4.21241-6.79432 2.07757-5.61991-9.51586-6.09811-21.98132-1.21661-31.91411.61182-1.12318.92828-2.74666 2.27549-3.19673m11.08309 1.05184c2.39906-.50131 5.28938.31646 7.16704 1.75208-3.65184 7.78488-4.13506 16.63669-2.72858 25.03139.31344 1.99821 1.42456 4.17725.6942 6.1393-2.23229 1.21359-6.30105 2.49952-7.77986-.40186-3.16861-5.62392-3.04203-12.41924-2.88832-18.69417.9755-4.78908 1.94698-10.29044 5.53552-13.82674m-79.03633 45.77401c1.06189-.20093 1.9319.67611 1.82642 1.73399.0101 4.26365.17681 8.55343-.34258 12.79498-.15672 1.44767-2.71552 1.72495-2.99079.20494-.43701-3.13947.16175-6.34725-.25216-9.48974-.89211-.0512-1.7792.0954-2.66931.0693-.40386-2.5588 2.63314-4.10693 4.42842-5.31349m12.15201-.0251c6.15739-1.68477 6.86967 6.2699 6.06999 10.44917-.0904 3.8829-5.15376 7.00529-8.08126 3.76234-1.55316-1.41653 1.15533-2.86722 2.0605-1.26784 1.58431 2.27046 4.36713-1.13122 2.72054-2.73361-1.62248-.30138-3.65183.14166-4.77099-1.40949-2.05146-2.61104-1.22866-7.51766 2.00122-8.80057m1.33516 1.87464c-1.56923 1.31104-2.02935 6.40151.90718 5.83791 1.00061-1.46877 1.60239-5.75553-.90718-5.83791m129.05791-1.61746c4.96388-1.64659 6.53814 4.51582 5.89216 8.19378.39583 3.5152-1.91382 8.5484-6.15135 7.41216-2.9506-1.44566-2.96568-5.34966-3.03299-8.19678.0854-2.65424.33455-6.39146 3.29218-7.40916m1.09103 2.168c-2.44326 1.91081-1.00363 5.64502-1.36128 8.32939-.0532 1.13725.39382 3.36652 1.98817 2.59798 2.01428-1.9078.90819-5.03521 1.22163-7.48952.0954-1.25177-.0643-3.73924-1.84852-3.43785m12.03849-2.15092c2.45331.23207 6.6376-1.44466 7.90042 1.28091-.45711 4.10492-2.89032 7.82909-3.0601 12.0395.13361 1.41954-1.6486 3.00585-2.75973 1.64558-1.35524-4.35708 3.10632-8.05714 2.73662-12.20626-1.49489-.76654-7.64122.0231-4.81721-2.75973m-135.48051 30.77488c3.15052-.51438 6.60946-.38779 9.16424 1.7591 1.70185 1.81336 3.74124-2.62007 4.95584-.0844.32852 2.9727.87202 6.39648-.36568 9.18433-1.94396 2.02132-2.99079-1.55416-3.48004-2.98576-1.6687-3.57749-7.12585-5.32957-10.16084-2.43623-1.25478 1.04984-.25518 2.7989.87704 3.472 3.93715 2.18106 8.94524 2.00123 12.44035 5.04928 3.70307 3.85778 2.18808 11.09213-2.93453 12.90549-3.43684 1.1513-7.54377.95138-10.54963-1.23469-2.0173-1.83346-3.56744 3.13746-5.55059.67611-.90818-3.01891-.15973-6.39648-.36267-9.54901-.26522-2.3639 3.44589-2.3428 3.52123-.10549.72032 5.09951 6.92091 8.17066 11.44978 5.93837 1.55115-.60679 2.12982-2.87324.75348-3.95322-4.28475-2.83909-10.01216-2.6904-14.01662-6.02578-3.49511-4.26968-1.01869-11.2388 4.25864-12.61012m53.24544 2.02935c3.52625-.3466 7.10374-.0432 10.65009-.15672 1.05185-.14668 2.18809.56359 2.00826 1.736-.1075 2.33577-4.16118 1.39945-3.89395 3.85778.0231 5.14673-.0663 10.29747.0492 15.43917.0281 2.15192 3.18669 1.41452 3.78545 3.20477.29335 1.02573-.26724 2.4071-1.49691 2.34984-3.48908.11653-6.99524.0522-10.48734.0231-1.71088.1316-2.29156-3.22989-.42697-3.34342 1.2578-.2622 3.05308-.56761 3.00887-2.23429.0774-5.13066.0955-10.28039 0-15.41305.0874-1.61545-1.78724-1.61846-2.87023-2.1037-1.40949-.38076-1.76714-2.819-.3265-3.35949m49.1144-.007c6.78528-.49428 13.6027.26422 20.40305.14869 1.95702-.14166 1.8234 2.171 1.77217 3.51018-.17481 2.25841.4551 4.83529-.90015 6.82345-2.54875.77959-2.30463-2.61003-2.99179-4.14009-.83786-3.27409-4.84031-2.55678-7.40112-2.80392-3.73722-.43199-2.77278 4.53993-2.29458 6.79533 1.9731 1.4326 3.92208-.86499 3.88893-2.84512-.12056-1.98214 3.07015-1.80733 2.95763.0442.0332 3.33036.0412 6.66874-.0261 9.9991.0512 1.1935-.94837 2.65925-2.2785 2.18607-1.49389-1.14226-.31143-3.5363-1.68677-4.77099-1.08802-.9534-3.69604-1.00262-3.20779 1.04683.52743 2.42015-1.60942 7.29161 2.34581 7.10575 2.2765-.15371 2.46938 3.63978.0462 3.35145-3.84975-.27025-8.02901.73338-11.6708-.57063-1.72295-3.97131 4.5138-2.13786 3.81157-5.74046-.25518-5.28034.50131-10.76563-.40186-15.91939-2.18306-.0854-5.3597-2.56482-2.3659-4.22045m-128.34864 8.21386c3.53931-1.06189 6.57933 4.18429 3.50114 6.55321-2.28956 2.86219-6.64865.0181-6.4196-3.10431.28532-1.52704 1.54513-2.80593 2.91846-3.4489m59.14262.25719c2.4945-.95942 5.23614 1.34018 4.96891 3.92208-.0151 2.64921-3.33035 4.58112-5.57269 3.038-2.68538-1.40949-2.41312-6.14231.60378-6.96008m48.34586.76151c4.44951-1.77719 6.97214 5.33157 2.62611 6.93898-4.38723 2.0595-7.14996-5.5325-2.62611-6.93898m59.42292.005c2.29357-.75348 4.83529 1.30903 4.70167 3.68599.0251 2.59496-3.16358 4.52083-5.41898 3.11937-2.70044-1.33716-2.19913-6.04687.71731-6.80536m-138.633 71.75487c11.41864-.25719 22.88951-.0312 34.32322.14366 2.81397-.11051 2.43623 3.72417 1.65664 5.46821-2.39203 2.52062-7.00831-.47017-9.3049 1.79527.46515 2.8853 1.29397 8.02399 5.32153 7.50158 5.1407-.3054 10.39793.76151 15.46127-.15873 3.50818-2.91946 5.02316-7.60505 8.05815-10.97459.651-.69118 1.71792-.21298 2.0826.53748 1.81637 3.17865 3.472 6.45274 5.33459 9.60628 1.44767 2.38098 4.61126 1.21159 6.88474 1.45772 1.9751-.24613 5.11558.85394 5.89216-1.68677.85594-2.25841 2.37093-4.45956 2.18909-6.9621-1.8646-.5867-4.05068.21098-5.75352-.81777-.17783-1.76714-.42496-4.02756.34961-5.52145 8.08326-.38578 16.23885 0 24.34723.002 3.18669-.29838 1.65463 3.80655 1.87564 5.73544-1.35323 1.18044-4.92068-.64297-5.39888 1.95199.57867 2.5156 1.37132 5.32154 3.20176 7.21125 3.26203.74342 6.74609.22403 10.07444.0181 2.39705-.13864 4.61125-2.23229 4.32594-4.73181-2.27348.2752-5.03823 1.58926-6.8978-.4632-3.22486-2.37394-1.8234-7.7879 1.70486-9.09392 4.62934-1.83345 10.29043 1.60239 10.97459 6.52508 2.25238 6.21063-2.27649 13.91615-9.12306 14.01661-13.8639.29837-27.7469-.0703-41.61683-.15974-21.47801-.28029-42.9731-.15973-64.44105-.65602-1.82542-.70425-1.64057-3.27108-1.23168-4.83228 1.47078-2.95763 6.33219.0151 7.5488-3.21783.64999-1.89272 2.32672-4.07579 1.40146-6.05391-3.05609-1.48183-6.83351-.0362-9.979-1.06993-.6711-1.64558-1.1061-4.56002.7384-5.57068" fill="#ffca30"/>
      <path id="path1107" d="m351.77314 480.31374c22.5168-.22102 45.05368.0131 67.57048.15471-11.57335 12.66639-23.7977 24.89074-35.22136 37.72892-.86197 2.52062 4.04264 6.28095 6.04085 3.45894 12.5177-12.94366 24.85256-26.06515 37.66261-38.72953 1.18546-1.35725 2.66729-2.72556 4.61628-2.58692 6.32415.1517 12.65634.0613 18.97748.16174 1.33013-.0593 1.1061 1.52001 1.17341 2.42016-.48926 3.07317 1.65061 8.58457-2.67031 9.45157-4.2948.68716-8.91912 2.36892-11.22274 6.32415-2.56683 4.09186-1.45068 10.5215 3.22688 12.582 3.11737 2.2554 7.14795 2.54875 10.32861 4.55499.34258 2.61205.81777 5.45214 2.84512 7.34989 2.55075-1.67673 2.22927-5.03522 3.56644-7.35792 3.52625-1.91583 8.36656-1.70285 10.94646-5.26427 2.80794-4.08181 3.18065-10.77165-1.16739-13.97643-2.59596-2.60701-6.2709-3.43784-9.4807-4.91465-.72534-3.5152-.43702-7.39408.13964-10.91431 6.06697-.51437 12.25952.14668 18.37772-.0492 1.98314-.24211 2.90439 1.81839 4.14611 2.95764 11.85866 12.49158 23.85697 24.84452 35.43735 37.59329 1.4537 1.1925 2.97371 3.90098 5.14874 2.55377 1.45069-.93129 3.93514-2.61606 2.50756-4.55299-8.97236-10.69028-18.84587-20.59996-28.09451-31.0441-2.09867-2.32271-4.5781-4.44951-6.05893-7.22933 21.693-.0673 43.39504.0663 65.09306.0171.75849.0111 1.56119.0573 2.23731.45309-6.82747 26.06013-23.64299 49.3304-46.32152 63.88248-19.10608 12.39614-42.31707 18.23907-65.0137 16.18159-38.99475-3.08321-75.01278-29.52209-89.66532-65.79328-2.10571-4.98599-4.0346-10.09956-5.12563-15.41305m46.87508 42.65964c-1.8445 1.01066-1.4095 3.9251-.7384 5.57068 3.14549 1.03377 6.92291-.4119 9.979 1.06993.92526 1.97812-.75147 4.16119-1.40146 6.05391-1.21661 3.2329-6.07802.2602-7.5488 3.21783-.40889 1.5612-.59374 4.12803 1.23168 4.83228 21.46795.49629 42.96304.37573 64.44105.65602 13.86993.0894 27.75293.45811 41.61683.15974 6.84657-.10046 11.37544-7.80598 9.12306-14.01661-.68416-4.92269-6.34525-8.35853-10.97459-6.52508-3.52826 1.30602-4.92972 6.71998-1.70486 9.09392 1.85957 2.05246 4.62432.7384 6.8978.46313.28531 2.49953-1.92889 4.59318-4.32594 4.73182-3.32835.20595-6.81241.72534-10.07444-.0181-1.83044-1.88972-2.62309-4.69565-3.20176-7.21125.4782-2.59496 4.04565-.77155 5.39888-1.95199-.22101-1.9289 1.31105-6.03382-1.87564-5.73544-8.10838-.002-16.26397-.38779-24.34723-.002-.77457 1.49389-.52744 3.7543-.34961 5.52145 1.70284 1.02874 3.88892.23107 5.75352.81777.18184 2.50254-1.33315 4.70368-2.18909 6.96209-.77658 2.54072-3.91706 1.44065-5.89216 1.68678-2.27348-.24613-5.43707.92325-6.88474-1.45772-1.86259-3.15354-3.51822-6.42763-5.33459-9.60628-.36468-.75046-1.4316-1.22867-2.0826-.53748-3.03499 3.36953-4.54997 8.05513-8.05815 10.97459-5.06334.92024-10.32057-.14668-15.46127.15873-4.02756.52241-4.85638-4.61628-5.32153-7.50158 2.29659-2.26544 6.91287.72535 9.3049-1.79527.77959-1.74404 1.15733-5.57872-1.65664-5.46821-11.43371-.17481-22.90458-.40085-34.32322-.14366m51.67822-25.22428c.42697-.0442.85695-.0703 1.28593-.0442.16275 3.60361.0573 7.23234 0 10.83796-4.03762 1.30401-10.73248-2.07256-8.55343-7.05251 1.39844-2.63013 4.48467-3.55941 7.2675-3.74125m8.49817.47519c3.19875-.21599 8.07824 1.53608 7.37299 5.55762.33153 3.93514-4.47764 6.01573-7.60506 5.25422-.44003-3.45091-.46816-7.60706.23207-10.81184" fill="#33357f"/>
   </g>
</svg>