<svg xmlns:dc="http://purl.org/dc/elements/1.1/" xmlns:cc="http://creativecommons.org/ns#" xmlns:rdf="http://www.w3.org/1999/02/22-rdf-syntax-ns#" xmlns:svg="http://www.w3.org/2000/svg" xmlns="http://www.w3.org/2000/svg" version="1.1" width="400" height="560" id="svg2">
  <metadata id="metadata280">
    <rdf:RDF>
      <cc:Work rdf:about="">
        <dc:format>image/svg+xml</dc:format>
        <dc:type rdf:resource="http://purl.org/dc/dcmitype/StillImage"/>
        <dc:title/>
      </cc:Work>
    </rdf:RDF>
  </metadata>
  <defs id="defs278"/>
  <g id="g3131">
    <path d="m 9.9999993,9.6436412 0,363.0516488 c 0,54.56221 36.4980437,70.39475 84.1475517,71.95574 22.895229,0.74324 44.377529,2.82584 62.440749,6.76463 17.61707,3.79072 32.48474,9.96114 43.4117,17.84062 11.07599,-7.87948 25.79463,-14.0499 43.4117,-17.84062 18.06321,-3.93879 39.54552,-6.02139 62.44075,-6.76463 C 353.501,443.09004 390,427.2575 390,372.69529 l 0,-363.0516488 -380.0000007,0 z" id="path6" style="fill:#0060ad;fill-opacity:1"/>
    <path d="m 24.346057,25.030999 0,346.474911 c 0.44709,54.85837 66.60499,51.88541 103.028523,53.22381 24.15911,0.96583 50.91957,7.73046 72.62542,18.06321 21.78037,-10.33275 48.46631,-17.09738 72.62542,-18.06321 36.42449,-1.3384 102.58143,1.63456 103.02757,-53.22381 l 0,-346.474911 -351.306933,0 z" id="path10" style="fill:#f5d128;fill-opacity:1"/>
    <path d="m 64.041561,548.42279 -2.00713,-5.27815 c 0.817755,0.29806 1.560995,0.52065 2.304235,0.66968 0.817755,0.14808 1.63551,0.22259 2.378749,0.22259 4.38588,0 7.582384,-1.41196 9.737589,-4.23685 2.0826,-2.82488 3.122945,-7.13625 3.122945,-12.93409 0,-2.37875 0,-5.12912 -0.07547,-8.25206 -0.07356,-3.04748 -0.147119,-4.98009 -0.147119,-5.64882 0,-9.8121 2.080689,-17.39448 6.243023,-22.67263 4.16329,-5.2772 10.035649,-7.95401 17.766107,-7.95401 2.08164,0 4.16233,0.22355 6.17042,0.7442 1.93261,0.44613 3.93879,1.18937 5.94687,2.1552 l 2.00618,4.90653 c -1.04035,-0.14903 -2.08069,-0.2971 -2.97296,-0.44613 -0.96679,-0.0745 -1.8581,-0.14808 -2.67586,-0.14808 -4.31232,0 -7.43431,1.63551 -9.29241,4.83106 -1.93261,3.12199 -2.898439,8.4737 -2.898439,16.05608 0,0.29806 0.07451,1.48744 0.07451,3.56908 0.07356,2.00618 0.07356,3.86428 0.07356,5.5743 0,5.57526 -0.37162,9.96113 -1.11486,13.08312 -0.743239,3.19651 -1.932614,5.87236 -3.568124,8.1766 -2.453265,3.12199 -5.277194,5.50074 -8.697244,7.13625 -3.344579,1.63551 -7.136249,2.3797 -11.447613,2.3797 -2.229719,0 -4.162334,-0.14903 -5.946874,-0.44709 -1.8581,-0.2971 -3.493609,-0.81775 -4.980089,-1.48648 z" id="path14" style="fill:#f5d128;fill-opacity:1"/>
    <path d="m 184.01843,483.15621 -3.56812,7.88044 -13.75281,0 c -0.44518,4.90557 -0.74324,9.96113 -0.89131,15.01574 -0.22259,5.12816 -0.2971,10.3318 -0.2971,15.60995 0,4.53395 0.0745,9.21693 0.22258,13.90087 0.14808,4.68299 0.29711,9.44049 0.59517,14.34606 -1.41292,-0.0736 -2.82488,-0.14903 -4.31136,-0.22259 -1.41292,-0.0745 -2.8994,-0.0745 -4.38588,-0.0745 -1.48744,0 -2.8994,0 -4.38588,0.0745 -1.48648,0.0736 -2.97392,0.14903 -4.38588,0.22259 l -3.12199,-2.82393 c 0.2971,-4.83201 0.51969,-9.36692 0.66872,-13.67829 0.0745,-4.31136 0.14903,-8.47369 0.14903,-12.41344 0,-5.12912 -0.0745,-10.18372 -0.29806,-15.16477 -0.14807,-4.98009 -0.44518,-9.88662 -0.89227,-14.79219 l -13.75184,0 -3.49266,-7.954 c 5.49978,0.22259 10.55439,0.37162 15.16381,0.44613 4.60847,0.0745 9.06887,0.0745 13.23216,0.0745 4.16233,0 8.54725,0 13.08216,-0.14903 4.60847,-0.0745 9.36693,-0.14903 14.42153,-0.29806 z" id="path18" style="fill:#f5d128;fill-opacity:1"/>
    <path d="m 196.20833,492.74572 1.41292,-2.67585 c 2.60229,-1.18938 5.20363,-2.52683 7.80497,-4.01426 2.52683,-1.56004 5.05461,-3.27007 7.43431,-5.12912 2.67586,6.31945 5.79689,13.15764 9.36597,20.3684 3.56813,7.20981 7.58239,14.86671 11.89279,22.82071 l 17.61804,-42.96557 8.02756,6.24398 c -4.83106,10.48083 -9.21694,20.96261 -13.30476,31.36893 -4.01521,10.40726 -7.73141,20.74002 -11.07695,31.07277 -0.74324,0 -1.56099,-0.0755 -2.37875,-0.14903 -0.81775,-0.0745 -1.63551,-0.0745 -2.52682,-0.0745 -0.81776,0 -1.63551,0 -2.52778,0.0745 -0.81775,0 -1.71002,0.0736 -2.52682,0.14903 -4.68299,-10.18468 -9.44049,-19.99678 -14.34702,-29.51178 -4.83201,-9.51404 -9.81306,-18.73194 -14.86766,-27.57821 z" id="path22" style="fill:#f5d128;fill-opacity:1"/>
    <path d="m 274.33545,492.74572 1.41196,-2.67585 c 2.67586,-1.18938 5.27815,-2.52683 7.87949,-4.01426 2.52683,-1.56004 5.05461,-3.27007 7.43336,-5.12912 2.67585,6.31945 5.79784,13.15764 9.36596,20.3684 3.56908,7.20981 7.58239,14.86671 11.89375,22.82071 l 17.61708,-42.96557 8.02852,6.24398 c -4.83202,10.48083 -9.2179,20.96261 -13.30667,31.36893 -4.0133,10.40726 -7.73046,20.74002 -11.07504,31.07277 -0.74324,0 -1.56099,-0.0755 -2.37875,-0.14903 -0.81775,-0.0745 -1.63551,-0.0745 -2.52778,-0.0745 -0.81775,0 -1.63551,0 -2.52682,0.0745 -0.81776,0 -1.71003,0.0736 -2.52778,0.14903 -4.68299,-10.18468 -9.44049,-19.99678 -14.27154,-29.51178 -4.90653,-9.51404 -9.88758,-18.73194 -15.01574,-27.57821 z" id="path26" style="fill:#f5d128;fill-opacity:1"/>
    <path d="m 284.5625,33.28125 c -2.21321,0.291191 -4.56506,3.913206 -4.71875,6.46875 -3.93879,0.37162 -7.95449,1.70486 -11.96875,2.96875 -1.18937,-1.19033 -3.27412,-0.08118 -5.28125,1.40625 -0.96582,0.668725 -2.23122,-0.148444 -1.5625,2.75 -3.49361,1.26389 -6.77133,3.286136 -11.15625,5.21875 -3.34554,-2.823929 -8.47776,-2.621899 -5.28125,2.65625 1.48648,2.60134 2.46153,3.206366 2.3125,6.03125 -0.14903,2.52778 1.55491,5.144235 4.15625,5.21875 -1.78359,2.75037 -5.87801,4.140026 -9,7.1875 l 3.21875,1.125 c 10.92697,4.236849 -15.77563,17.029376 -19.34375,18.21875 l 6.84375,1.40625 c 9.21694,2.52778 -11.29627,10.63514 -14.34375,11.75 1.11582,0.89227 2.83324,1.62359 4.46875,2.21875 4.23685,1.48648 5.18065,2.24963 2.28125,5 -8.92079,8.54917 -10.55472,26.51663 -20.21875,33.28125 -3.27007,2.30424 -4.89245,2.69463 -8.3125,0.6875 -10.62985,-6.0959 -12.10662,-25.12343 -21.25,-33.96875 -2.97487,-2.75037 -2.01905,-3.51352 2.21875,-5 1.63456,-0.59516 3.42745,-1.32648 4.46875,-2.21875 -6.83915,-2.45231 -12.33767,-5.50639 -16.5,-9 l 8.96875,-4.15625 C 164.00716,89.855396 156.21958,85.169374 152.875,76.84375 l 4.90625,-2.6875 c -3.93974,-2.230675 -7.06062,-4.81167 -8.25,-8.15625 2.52683,-0.07451 4.01201,-1.202985 3.9375,-3.65625 -0.22259,-2.823929 0.22121,-2.754426 1.78125,-5.28125 3.12199,-5.278149 -1.99821,-5.554694 -5.34375,-2.65625 -3.49361,-2.452309 -7.22852,-4.25292 -11.09375,-5.21875 0.59516,-2.8994 0.15429,-4.393775 -0.8125,-5.0625 -2.08069,-1.487435 -4.90534,-0.28408 -6.09375,0.90625 -3.93975,-1.26389 -8.02805,-2.616365 -11.96875,-3.0625 -0.22259,-3.716199 -5.05875,-9.664209 -7.4375,-4.3125 -1.41197,3.196504 -0.79898,6.861696 0.6875,10.875 1.48744,4.237805 2.00713,3.106901 0,7.34375 -10.70437,1.0413 -17.83662,4.762321 -19.84375,12.34375 7.06173,1.859055 12.18864,4.52704 16.5,7.5 -1.71002,4.385879 -15.325002,2.52449 -27.21875,1.78125 10.109208,7.582384 22.60211,5.29815 27.0625,7.15625 3.71716,1.560994 -1.77492,9.9438 12.125,11.28125 3.71716,2.67681 8.17091,4.76014 13.96875,5.875 5.79785,1.11486 11.21408,5.27188 14.78125,11.21875 4.08877,6.83914 5.95235,15.84593 4.6875,22.3125 -2.97296,15.01574 -24.52648,22.83097 -37.3125,15.84375 -17.46804,-9.58951 -29.958916,-24.03392 -36.5,-42.46875 -5.352664,-14.941227 -8.490815,-31.129542 -7.375,-48.375 -6.913659,-1.859054 -6.317205,12.263637 -3.9375,28.46875 -0.29806,5.575254 -2.576021,5.57347 -4.0625,3.34375 -3.568125,-5.500739 -3.130255,-19.041111 -2.3125,-25.0625 -2.75037,0.52065 -4.179821,3.726646 -4.625,8.78125 -0.595165,6.170419 -0.04993,15.012414 1.4375,24.75 0.595166,3.79167 1.53847,7.81025 1.6875,11.75 -5.724284,-8.77176 -6.89574,-21.710142 -8.53125,-34.71875 -4.905574,2.824885 -3.28463,24.02516 -3.65625,28.1875 -3.270064,-2.97296 -3.720715,-7.953571 -4.6875,-13.15625 -4.905574,3.49361 -5.486822,39.52697 11.3125,64.28125 -3.938789,17.91419 1.177297,31.3144 10.46875,42.6875 -1.560994,4.16329 -0.5975,9.65889 1.78125,15.53125 4.758455,11.96731 13.450831,22.74702 22,32.1875 14.34605,15.83349 32.35327,30.17889 53.6875,43.1875 l -46.25,42.375 c -2.22972,2.67585 -7.490995,7.77861 -10.6875,1.90625 -2.601339,-4.7575 -1.719976,-12.76681 -8.1875,-12.46875 1.56195,4.16234 -0.44097,7.34676 -2.96875,10.46875 -3.641684,-4.46039 -8.534721,-4.89506 -11.0625,-1.625 2.007129,2.22972 4.05866,2.95637 4.28125,5.78125 0.446135,4.75654 1.21857,6.4025 -3.09375,8.78125 -3.419094,1.93357 -4.904006,1.56634 -8.84375,1.34375 2.824885,10.18372 8.972896,14.70299 16.40625,17.15625 -0.07452,2.15616 0.01444,4.25489 0.3125,6.1875 0.59421,3.71716 1.39903,5.654 1.25,9.59375 5.575254,0.0755 10.32903,-3.71509 14.9375,-8.25 6.616554,0.2971 14.06268,2.45843 18.375,-2.96875 -1.41292,-2.00617 -4.62266,-3.64144 -6.40625,-6.09375 -2.37874,-3.12294 -2.81954,-7.06505 1.34375,-10.78125 17.91418,-15.53638 34.94167,-32.56778 54.9375,-44.3125 7.87948,-4.60847 7.72643,-0.60884 7.28125,6.75 -0.96678,15.23929 -9.75009,39.25949 -11.90625,48.03125 4.16233,2.08165 8.04244,3.92512 11.3125,6.75 L 160,399.53125 l 11.46875,3.5625 -0.96875,4.6875 c 7.58239,1.33745 15.2181,3.34095 22.875,5.71875 l 1.1875,-5.1875 c 0.44613,-1.70907 1.04523,-2.22693 1.9375,-2.375 1.04034,-0.14903 7.59329,-0.15287 8.1875,0.21875 2.30424,1.18937 2.28801,2.08182 3.03125,4.3125 l 1.4375,4.4375 c 6.6156,-0.59517 15.83158,-0.28239 24.15625,-4.59375 l -1.4375,-7 12.125,-5.1875 -8.25,-30.1875 c 3.27102,-2.75037 7.97373,-4.37605 12.0625,-6.53125 -2.08164,-8.77176 -10.94042,-32.80398 -11.90625,-47.96875 -0.44613,-7.43335 -2.16074,-10.38972 5.71875,-5.78125 19.92227,11.74472 37.03438,28.77612 54.875,44.3125 2.08164,1.8581 6.30048,5.42315 6.375,7.28125 0.0745,1.48648 -1.11111,2.14857 -2.375,2.59375 -3.86523,1.41292 -5.14048,2.7362 -7.59375,6.15625 4.31137,5.42622 13.3844,2.2346 20,1.9375 4.60847,4.60847 9.16273,7.72981 14.8125,7.65625 0.96678,-6.98818 -0.46049,-11.80829 1.84375,-14.78125 0.74324,-0.96678 1.33662,-0.53417 3.34375,-1.5 5.87236,-2.8994 11.53229,-7.7335 13.6875,-15.6875 -4.60847,-0.66968 -9.58232,-0.50497 -12.40625,-4.59375 -1.0413,-1.93261 -0.67014,-4.83136 0.59375,-7.65625 1.18938,-2.82488 3.24859,-5.50105 3.84375,-7.65625 -6.9127,0.2971 -8.83287,9.34974 -13.21875,3.03125 -1.71002,-2.45231 -3.5625,-5.64341 -3.5625,-9.0625 -5.27815,2.52682 -2.37801,10.47514 -5.5,13.96875 -4.46039,4.90652 -8.41452,0.75037 -10.71875,-2 l -42.8125,-40.125 c -3.49361,-6.16946 -2.5911,-4.77083 3.28125,-8.5625 17.84063,-11.66924 32.31495,-19.92702 45.25,-34.125 8.54726,-9.44048 15.555,-21.68894 20.3125,-33.65625 3.86523,-9.66403 2.1329,-15.38308 7.1875,-24.75 9.2179,-17.02287 5.29449,-31.90367 11.6875,-51.15625 8.10208,-24.3072 8.45851,-46.912551 5.1875,-48.25 -0.96679,5.202679 -1.61599,8.933287 -4.8125,11.90625 -0.44613,-4.236853 0.87432,-22.456365 -4.03125,-25.28125 -1.63551,13.008608 -2.90071,25.94699 -8.625,34.71875 0.14903,-3.93975 1.21734,-7.95833 1.8125,-11.75 0.14903,-2.080688 3.46903,-31.647246 -1.4375,-34.84375 -1.41196,8.622728 -2.05724,17.523382 -2.875,25.03125 -1.56004,13.82636 -5.95975,21.92174 -9.15625,24.375 0.14807,-3.86522 8.02335,-44.752361 2.96875,-55.53125 -0.81776,-1.783584 -2.5318,-0.59375 -4.09375,-0.59375 1.11582,17.245457 0.6002,35.383748 -6.3125,49.65625 -4.90653,10.18372 -11.1556,20.0109 -18.8125,28.1875 -11.44761,12.26536 -20.1252,19.32572 -37,13.15625 C 243.71955,142.85174 241.26241,128.65838 251,110 c 5.27719,-10.034693 17.54796,-8.25844 26.46875,-14.875 13.89992,-1.33745 9.57227,-10.174566 13.4375,-11.4375 4.5349,-1.63551 18.42634,-0.149886 27.71875,-9.21875 -10.85341,1.11486 -24.58429,4.318125 -28.375,0.75 3.1965,-4.460394 9.51475,-7.436085 17.46875,-8.03125 -1.93261,-7.582384 -9.59611,-11.522155 -20.375,-12.5625 -2.00713,-4.236849 -1.49848,-1.855945 0.0625,-6.09375 1.41292,-4.013304 1.28697,-9.959745 -0.125,-13.15625 -0.72007,-1.649422 -1.71275,-2.22611 -2.71875,-2.09375 z M 283.125,56.25 c 3.75342,-0.141686 6.78936,0.902714 6.59375,0.96875 -5.20363,1.931659 -17.24054,4.473725 -21.03125,8.5625 0.44613,-3.12199 -0.22588,-4.556785 1.78125,-5.96875 2.30424,-1.560994 7.43283,-2.886555 11,-3.40625 0.55755,-0.0744 1.12005,-0.136009 1.65625,-0.15625 z m -160.65625,3.09375 c 1.27883,-0.01979 2.6432,0.04556 4,0.25 3.19555,0.446135 6.40661,1.86449 3.65625,3.5 -1.8581,1.18842 -3.41114,0.442755 -5.34375,-0.375 -2.82489,-1.11486 -5.94435,-1.26014 -8.84375,-2.375 -0.33388,-0.111773 2.69475,-0.940621 6.53125,-1 z m 163.375,2.625 c -3.93974,3.939744 -5.04965,6.460485 -8.46875,4.15625 -4.46039,-3.047474 6.83324,-4.15625 8.46875,-4.15625 z m -179.28125,0.75 c 4.38588,-0.519695 5.11833,6.677081 6.53125,10.46875 -3.56812,-3.345534 -8.0233,-5.48273 -13.375,-6.375 1.1139,-2.378749 3.42466,-3.721175 6.84375,-4.09375 z m 6.75,0.3125 c 1.63551,0.07451 12.88684,1.682336 8.5,4.65625 -3.41909,2.304235 -4.56025,-0.716506 -8.5,-4.65625 z m 164.46875,22.625 c 2.47364,-0.05235 4.32952,0.435956 6.28125,0.9375 -1.26389,1.11486 -2.13176,2.00338 -2.875,2.375 -3.34554,1.709069 -2.97176,-1.05537 -6.09375,-3.0625 0.9847,-0.148791 1.86295,-0.23255 2.6875,-0.25 z m -154.84375,0.75 c 0.75267,0.01863 1.75676,0.332212 2.5,0.40625 -1.78358,1.040345 -3.03463,2.13889 -3.40625,0.875 -0.33484,-1.040822 0.15358,-1.299879 0.90625,-1.28125 z m -2.75,1.46875 c 1.26365,-0.03714 2.08916,0.403437 1.53125,2.1875 -0.66873,2.155204 -2.67128,0.240319 -5.71875,-1.46875 1.22663,-0.14903 2.92385,-0.681612 4.1875,-0.71875 z m 33.4375,21 c 4.01426,0.29711 10.25302,-0.009 13.375,2.59375 2.52683,2.08068 4.45139,6.41995 3.1875,12.21875 -6.83818,-3.42005 -12.32565,-8.34498 -16.5625,-14.8125 z m 86.53125,0 c 1.64644,-0.005 3.42033,0.0838 5.34375,0 -1.63551,5.05556 -4.98912,7.80629 -9.375,8.625 -3.19555,0.66873 -4.39483,4.70102 -7.21875,6.1875 -1.26389,-6.02139 1.28089,-10.95056 4.03125,-13.03125 2.09036,-1.53329 4.47468,-1.77342 7.21875,-1.78125 z m -79.6875,14.4375 c 4.75749,2.00617 9.41507,4.30979 13.28125,8.84375 1.48648,-0.37162 3.06739,-0.66489 5,-0.21875 -0.52065,4.23685 -1.7044,7.62943 -3.5625,10.15625 -1.78454,-2.75037 -3.57799,-5.48949 -6.03125,-7.125 -5.35171,-3.49361 -7.64716,-6.45357 -8.6875,-11.65625 z m 78.1875,0 c -1.48648,7.43335 -8.91845,11.52142 -13.15625,18.0625 -1.8581,-2.60134 -3.18704,-8.4194 -3.78125,-12.65625 1.93262,-0.44613 3.47025,3.28463 5.03125,3.65625 3.86618,-4.53491 7.14875,-7.05633 11.90625,-9.0625 z m -76.71875,10.25 c 4.60846,3.19555 7.88185,7.86367 10.78125,12.84375 2.15616,3.93975 4.40062,1.78312 7.96875,0.59375 -0.89132,4.45944 -3.13664,8.93479 -5.8125,13.46875 -3.64264,-5.79785 -7.4391,-11.28577 -11.15625,-15.96875 -3.34458,-4.38588 -2.30095,-5.3632 -1.78125,-10.9375 z m 75.21875,0.75 c 0.29711,3.64264 1.11486,7.35878 0,10.40625 -1.85905,5.12912 -6.52225,8.61993 -9.71875,13.75 -2.67681,-4.53491 -5.50292,-7.82181 -6.46875,-12.28125 3.56813,1.18938 2.28426,3.41526 5.40625,0.21875 3.34553,-3.41909 6.76699,-6.74204 10.78125,-12.09375 z m -80.5625,15.75 c 4.7575,4.7575 9.42887,9.57761 9.875,14.78125 0.37162,3.79167 -2.07707,7.7319 -5.71875,11.96875 -3.12199,-4.83201 -9.14085,-11.97139 -8.84375,-17.84375 0.14808,-3.19651 1.78905,-6.15588 4.6875,-8.90625 z m 86.21875,1.71875 c 10.70437,6.76367 6.99595,12.11609 1.71875,17.46875 -1.56099,1.56004 -1.863,3.94143 -1.9375,5.875 -3.93975,-3.71715 -9.64799,-7.23199 -7.34375,-13.625 1.18937,-3.19651 3.99437,-6.37417 7.5625,-9.71875 z m -30.625,1.78125 c 4.23685,4.98009 9.73122,7.36855 9.0625,14.28125 -0.149,1.561 -0.28509,3.3448 -0.0625,5.5 -2.82488,1.93262 -6.61111,-3.37266 -7.875,-5.15625 -3.56812,-4.98104 -2.31437,-10.38719 -1.125,-14.625 z m -22.96875,0.59375 c 0.7743,-0.103 1.5408,0.68946 2.09375,3.03125 0.81777,3.19651 1.17014,5.22176 -0.0937,8.34375 -1.93261,5.20364 -6.53718,6.91451 -10.625,9.21875 -1.0413,-4.31137 -0.44988,-8.18037 2.375,-10.1875 2.45327,-1.70907 2.8385,-4.46595 3.65625,-6.84375 0.5852,-1.79857 1.59822,-3.43008 2.59375,-3.5625 z m 39.09375,12.40625 c 3.27102,2.97392 5.89236,6.11216 7.15625,9.53125 0.89227,2.60134 1.03312,5.32753 -0.15625,8.375 -2.08165,-2.00617 -4.23181,-3.92699 -6.3125,-5.5625 -4.83201,-3.79071 -2.17398,-6.17428 -0.6875,-12.34375 z m 21.625,3.5625 c 2.82488,3.56812 7.29852,7.42671 6.40625,13.96875 -0.81776,5.27719 -4.44869,12.72477 -7.71875,18.96875 -5.64977,-4.98009 -8.19998,-10.7012 -7.53125,-16.5 0.2971,-3.19555 1.58419,-3.7198 3.21875,-5.875 3.27102,-4.08782 4.51014,-3.50077 5.625,-10.5625 z m -49.03125,0.8125 c 1.93261,3.56813 3.10389,6.61787 4.21875,8.625 4.16329,7.73141 2.81604,7.15477 -5.0625,18.15625 -2.60229,-4.90653 -8.83982,-12.93197 -6.90625,-18.65625 1.04035,-2.97296 3.73574,-5.67269 7.75,-8.125 z m -51.59375,0.59375 c 1.70907,1.93357 3.1159,3.96885 4.15625,6.125 2.00713,4.23685 1.10887,8.99036 6.3125,8.46875 1.48648,6.69012 -0.58917,11.67465 -6.3125,15.09375 -0.89132,-2.30424 -3.65729,-6.71417 -5.8125,-12.4375 -1.71002,-4.68298 -6.22419,-15.98611 1.65625,-17.25 z M 225.71875,181.5 c 4.46135,7.28528 2.7527,13.46322 -1.78125,19.1875 -2.60134,-2.3797 -4.53321,-3.5063 -5.5,-4.84375 -2.97296,-4.16329 1.03727,-6.09264 7.28125,-14.34375 z m -50.625,1.3125 c 0.97871,0.0113 2.14564,0.69463 3.5625,2.34375 2.00713,2.3797 4.53463,5.2712 4.90625,6.3125 1.11486,3.34553 -2.3612,7.35211 -5.78125,11.8125 -4.38588,-4.90557 -8.24849,-7.79065 -6.6875,-14.40625 0.66467,-2.91349 1.84684,-6.0874 4,-6.0625 z m 32.78125,15.5 c 1.08945,-0.0931 2.15869,1.05974 3.125,4.21875 2.45326,8.10303 -0.67324,14.65702 -4.6875,21.71875 -2.30423,3.93879 -4.68037,8.62755 -6.6875,12.34375 -3.12199,-6.54108 -13.2956,-23.35174 -11.4375,-30.5625 0.51969,-2.08164 1.62847,-4.15533 4.15625,-5.34375 3.12199,3.12199 5.63711,7.26654 7.71875,11.875 1.11486,-2.45255 4.54414,-13.97084 7.8125,-14.25 z m -41.25,0.96875 c 2.15521,1.8581 4.0794,4.16451 5.9375,6.46875 2.08165,2.75037 2.47364,5.35051 4.40625,6.09375 4.7575,1.85906 2.15775,0.96079 3.71875,6.3125 2.00713,6.83914 0.44011,9.07574 -6.25,15.46875 -3.49457,-5.12912 -13.82113,-19.48528 -13.375,-24.09375 0.29711,-2.97296 1.54825,-7.20157 5.5625,-10.25 z m 66.8125,0.375 c 4.38588,3.04748 7.90475,6.30163 6.34375,10.6875 -2.08164,5.94592 -9.15785,13.61918 -12.875,24.25 -5.12912,-5.57621 -8.24795,-8.55801 -5.125,-16.4375 2.30423,-5.94688 6.3781,-11.88344 11.65625,-18.5 z m 28.71875,0.21875 c 0.22163,11.9673 -2.68338,21.39454 -7.8125,29.125 -1.18938,-2.30424 -2.53371,-4.61065 -4.09375,-6.46875 -3.34554,-4.08878 -5.11957,-4.89743 -1.625,-12.40625 1.18842,-2.67585 4.68704,-1.40784 5.28125,-5.125 0.37162,-2.30423 4.97898,-4.23369 8.25,-5.125 z M 139.875,200.96875 c 3.79071,3.56908 5.93667,8.27705 9.28125,11.25 1.11486,1.0413 2.52553,0.9433 3.9375,1.6875 1.04034,0.59516 2.01878,1.49813 2.6875,2.6875 0.59517,1.18938 0.36335,2.38852 -2.3125,3.875 -3.4191,2.67586 -4.52695,5.93667 -5.34375,9.28125 -2.82489,-4.31041 -6.61929,-8.18096 -8.03125,-12.9375 -1.41292,-4.75846 -0.29325,-10.56464 -0.21875,-15.84375 z m 99.90625,22.84375 c 15.16477,9.515 3.925,21.31691 -7.96875,35.21875 -3.34554,-2.52778 -7.79806,-6.10023 -7.5,-11.75 0.14807,-2.67585 1.25498,-5.20618 5.34375,-3.71875 1.561,-7.58238 5.81364,-13.65505 10.125,-19.75 z m -79.03125,2 c 2.00617,1.93261 4.00585,4.53138 5.9375,7.875 4.01426,6.69011 2.23153,13.31466 9.21875,7.21875 1.11486,6.76463 2.15475,8.10727 0.59375,9.59375 -3.49361,3.27102 -5.35201,2.95646 -7.65625,7.9375 -5.94687,-5.72428 -14.12546,-12.84461 -13.53125,-22.0625 0.22354,-3.27102 1.79486,-8.03568 5.4375,-10.5625 z m -15.53125,9.5 c 1.11391,2.67681 2.45581,5.3554 3.71875,8.03125 3.56908,7.28528 4.5166,7.88102 -1.28125,14.125 -1.56099,-9.88662 -5.62208,-13.89876 -4.65625,-18.65625 0.29806,-1.26389 1.10294,-2.38418 2.21875,-3.5 z m 111.84375,0.0312 c 1.10561,0.10551 2.14127,1.23672 2.03125,3.46875 -0.5197,9.88566 -2.59959,14.58466 -4.53125,15.625 -2.22972,1.26389 -4.30236,-1.94481 -3.1875,-4.25 1.63551,-3.49266 2.88944,-7.64538 3.1875,-12.03125 0.12957,-1.65844 1.0483,-2.62022 2.03125,-2.78125 0.15797,-0.0259 0.31081,-0.0463 0.46875,-0.0312 z m -47.96875,1.03125 c 1.18993,0.0363 2.43122,0.94089 3.40625,3.03125 3.49456,7.50786 -6.84246,18.22861 -10.78125,24.25 -4.53491,-2.67586 -8.24821,-7.14011 -11.59375,-12.34375 -3.27102,-4.98009 -3.28838,-7.51503 -1.28125,-10.5625 3.12199,-4.83201 5.37125,0.0704 7.75,5.125 0.81775,1.93261 2.901,2.90437 3.71875,4.09375 2.08165,-3.19651 3.99963,-10.32799 6.75,-12.78125 0.61332,-0.52984 1.31729,-0.8343 2.03125,-0.8125 z m 90.1875,1.59375 c 0.76596,0.0441 1.48094,0.5023 1.96875,1.59375 3.27102,7.35979 -14.86225,23.11937 -20.4375,26.6875 4.98104,-8.25111 9.87998,-16.59264 13.96875,-24.84375 0.81704,-1.63538 2.81488,-3.53449 4.5,-3.4375 z M 101.8125,242.5625 c 0.59405,-0.13373 1.51344,0.4696 2.65625,2.28125 l 4.625,7.34375 c 2.08165,3.27007 0.73977,8.11372 -2.53125,2.6875 l -4.46875,-7.59375 c -1.347,-2.23007 -1.27133,-4.49587 -0.28125,-4.71875 z m 177.875,9.5 c 1.41196,-0.14903 2.88747,1.33758 2.21875,3.34375 -1.48648,4.68394 -4.43421,9.19586 -6.21875,13.65625 -1.71003,4.31136 -6.24296,6.09526 -10.40625,7.65625 4.08877,-7.28432 7.85736,-14.62097 11.5,-21.90625 0.74324,-1.3384 1.79139,-2.6755 2.90625,-2.75 z m -7.21875,0.125 c 1.21978,0.10201 1.71305,2.07159 0.375,5.5 -2.15616,5.2791 -4.21697,10.11074 -7.5625,14.125 -4.31137,5.12912 -5.45184,-1.56551 -3.59375,-4.6875 l 7.15625,-11.59375 c 1.30109,-2.37397 2.67628,-3.42309 3.625,-3.34375 z m -151.8125,1.34375 c 0.26736,-0.0328 0.55106,0.0375 0.84375,0.21875 0.96678,0.59421 1.63898,2.83278 2.53125,5.0625 1.8581,4.53396 3.87509,8.16694 6.03125,10.84375 1.26293,1.56004 4.14762,4.17315 4.59375,6.03125 0.89132,3.93974 -2.15738,2.16713 -6.46875,-2.21875 -3.49361,-3.49361 -4.74917,-7.07386 -8.09375,-14.65625 -1.32885,-3.07995 -0.59606,-5.13931 0.5625,-5.28125 z m 8.96875,1.1875 c 0.17539,-0.007 0.34415,-0.0186 0.5625,0 1.71003,0.14903 1.73228,1.63185 3.21875,4.53125 2.22972,4.08782 4.60923,7.95928 7.0625,11.75 1.78358,2.75036 0.59366,2.60485 -1.5625,2.53125 -3.27102,-0.14904 -7.50872,-11.37321 -9.21875,-14.71875 -0.69589,-1.184 -2.69336,-3.99084 -0.0625,-4.09375 z m 114.90625,1.375 c 0.2428,-6.3e-4 0.48985,-0.006 0.75,0.0312 2.6023,13.00861 -1.86535,16.36339 -12.71875,26.25 -1.78359,-8.84531 -2.07233,-12.17963 4.46875,-19.6875 2.09036,-2.50861 3.85794,-6.58432 7.5,-6.59375 z m -85.5,2.1875 C 161.41,262.5181 165.1372,266.61412 169.375,271 c 4.23685,4.45943 1.48789,6.54778 -0.59375,11.15625 -8.54821,-8.77081 -14.28395,-17.11037 -9.75,-23.875 z m 24.15625,0.3125 c 7.80497,8.10303 15.10499,13.97741 7.96875,26.09375 -4.7575,-5.94592 -13.4423,-11.37577 -13.21875,-18.4375 0.14903,-3.19651 2.27608,-5.05396 5.25,-7.65625 z m 34.9375,0.21875 c 11.44761,12.04183 -2.30322,31.21451 -10.40625,21.625 -1.41197,-1.70907 -2.13364,-2.90391 -1.6875,-4.6875 1.33745,-4.60846 8.89724,-13.14583 12.09375,-16.9375 z m -104.5625,0.59375 c 0.89561,-0.038 1.97509,0.86783 1.25,2.09375 -0.2971,0.59516 -0.75338,1.01825 -1.125,1.09375 -0.44613,-0.96678 -1.32113,-2.29185 -0.875,-2.8125 0.18581,-0.24146 0.45146,-0.36234 0.75,-0.375 z M 260,259.75 c 1.34058,-0.0286 2.31997,1.54984 1.09375,3.59375 l -2.28125,3.71875 c -3.27102,5.05461 -4.33407,-1.70056 -2.625,-3.78125 l 1.9375,-2.375 c 0.58096,-0.78963 1.26564,-1.14327 1.875,-1.15625 z m -118.21875,0.21875 c 0.69815,-0.024 1.55321,0.34805 2.25,1.15625 l 2.65625,3.03125 c 2.52778,2.97392 -1.40972,4.76764 -3.9375,1.125 l -1.5625,-2.3125 c -1.30043,-1.85869 -0.56983,-2.96001 0.59375,-3 z m 58.4375,22.5625 c 3.49266,2.8994 6.4602,7.13243 9.0625,12.78125 -6.54204,34.26832 -4.21528,70.31108 -1.6875,106.4375 L 194.875,400.78125 c 2.67585,-37.24128 3.85555,-78.79624 -1.71875,-104.8125 l 7.0625,-13.4375 z m -23.84375,9.0625 c 5.35171,3.34458 7.35915,14.43227 7.65625,27.8125 0.59421,24.67881 -7.06889,55.0784 -10.5625,79.90625 l -9.59375,-2.59375 c 8.10207,-34.49092 13.39227,-68.84955 12.5,-105.125 z m 49.40625,0 c -0.89227,36.27545 5.05322,70.63408 13.15625,105.125 l -8.6875,0.9375 c -1.48647,-15.90706 -21.19452,-94.54133 -4.46875,-106.0625 z m 26.09375,5.625 c 4.36585,0.0765 7.53985,3.47299 9.15625,7.375 -5.35266,-1.70907 -10.62285,-2.14715 -16.71875,-3.1875 1.0413,-1.3384 1.7712,-2.51156 2.8125,-3.03125 1.70955,-0.81776 3.29472,-1.18174 4.75,-1.15625 z m -102.84375,0.8125 c 1.93341,-0.0641 4.63726,1.00149 9.125,3.59375 -6.0959,1.04035 -11.61609,2.60344 -16.96875,4.3125 3.53111,-4.5527 4.6214,-7.79948 7.84375,-7.90625 z M 327.5,337.8125 c 0.0845,0.002 0.16764,0.022 0.21875,0.0312 -0.37162,2.30423 0.50083,5.93741 -2.84375,3.78125 -3.0569,-2.01621 0.7908,-3.5359 2.34375,-3.78125 0.11093,-0.0175 0.19676,-0.0333 0.28125,-0.0312 z m -252.8125,0.625 c 0.92557,-0.0815 2.131429,0.25321 3.5625,0.96875 5.797844,2.82393 -2.775995,9.41271 -3.59375,2.5 -0.148075,-1.18937 -0.195675,-2.44042 -0.34375,-3.40625 0.120729,-0.0279 0.242776,-0.0509 0.375,-0.0625 z m 236.75,10.4375 c 2.60789,-0.11292 4.96875,0.59259 4.96875,3.8125 0,6.98722 -3.71454,5.58594 -6.6875,2.6875 -1.78454,-1.78359 -2.81446,-3.93996 -3.78125,-5.5 1.30109,-0.32517 3.47164,-0.91218 5.5,-1 z M 91.5,349.34375 c 2.248587,-0.0928 4.88852,0.59713 6.375,0.96875 -0.966785,1.561 -2.028915,3.71546 -3.8125,5.5 -2.972959,2.89845 -6.6875,4.33193 -6.6875,-2.65625 0,-2.82441 1.876413,-3.71971 4.125,-3.8125 z m 239.71875,1.5 c 0.11527,-0.019 0.22296,-0.0232 0.34375,0 0.74324,0.14903 1.94238,0.75197 3.875,1.71875 -6.82906,3.20541 -5.94781,-1.43315 -4.21875,-1.71875 z m -10.125,10.6875 c 2.89844,-0.14807 2.61157,2.45787 3.28125,6.84375 -2.75132,-1.78454 -11.23525,-6.6202 -3.28125,-6.84375 z m -13.34375,0.4375 c 0.1588,-0.0247 0.30145,-0.001 0.46875,0.0312 1.04035,0.22354 2.61646,0.94285 5.21875,2.28125 -9.19884,4.32134 -8.06951,-1.94162 -5.6875,-2.3125 z m -225.1875,1.125 c 7.879489,0.22354 -0.60444,5.05921 -3.28125,6.84375 0.66968,-4.38588 0.308291,-6.91735 3.28125,-6.84375 z M 94.5,364.0625 c 0.145629,-0.0253 0.315421,-0.0325 0.46875,0 0.966785,0.22259 2.371251,0.96304 4.75,2.375 -8.433097,4.32044 -7.403187,-1.99604 -5.21875,-2.375 z" id="path30" style="fill:#0060ad;fill-opacity:1"/>
  </g>
</svg>