<svg xmlns="http://www.w3.org/2000/svg" xmlns:xlink="http://www.w3.org/1999/xlink" version="1.1" id="Livello_1" x="0px" y="0px" viewBox="0 0 1657.1 500" enable-background="new 0 0 1657.1 500" xml:space="preserve">
<g>
	<g>
		<rect fill="#050299" width="500" height="500"/>
		<path fill="#FFFFFF" d="M156.8,347.4L109,272.3h-0.4v75.1h-51V152.1h76c38.6,0,67.8,18.5,67.8,60.1c0,26.9-15,50.2-42.7,55.1    l61.3,80H156.8z M366.9,348.8h-47.3V334h-0.7c-8.4,13.5-24.8,19.3-40.5,19.3c-39.7,0-67.7-33.2-67.7-71.6    c0-38.4,27.5-71.4,67.2-71.4c15.4,0,31.4,5.7,41.6,17.5v-13.1h47.3V348.8z M441.6,348.3h-47.3V215.7h47.3V348.3z M417.9,191    c-14.5,0-26.4-11.9-26.4-26.4c0-14.5,11.9-26.4,26.4-26.4s26.4,11.9,26.4,26.4C444.3,179.1,432.4,191,417.9,191z M290.4,251.6    c-19.3,0-30.6,13.9-30.6,30.3c0,17,11.2,30.1,30.6,30.1s30.6-13.1,30.6-30.1C321,265.5,309.8,251.6,290.4,251.6z M113.4,191.1    h-4.8v48.7h4.8c16.6,0,35.2-3.1,35.2-24.4C148.6,194.2,129.9,191.1,113.4,191.1z"/>
	</g>
	<g>
		<path fill="#050299" d="M590,344.8v6.5h-39.4V285h46.2c1,9.7,3.1,16.8,6.3,21.2c3.2,4.4,7.8,6.6,13.9,6.6c5.7,0,10.4-1.8,14.3-5.4    c3.8-3.6,5.8-8.1,5.8-13.4c0-3.2-0.8-6.3-2.4-9c-1.6-2.8-3.9-5.1-6.9-7c-3.1-1.9-8.7-4.4-17.1-7.7c-7.5-2.7-13-4.8-16.4-6.3    c-14.6-6.1-25.6-13.9-32.8-23.5c-7.3-9.5-10.9-20.6-10.9-33.2c0-17.5,6-32.3,17.9-44.3c11.9-12,26.8-18,44.7-18    c5.8,0,11.4,0.9,16.7,2.6c5.3,1.8,10.2,4.5,14.9,8.2v-5.7H682v57.9h-42c-1.1-6.9-3.4-12.2-6.8-15.9c-3.4-3.7-7.7-5.6-12.8-5.6    c-4.8,0-8.9,1.6-12.3,4.7c-3.4,3.1-5.1,7-5.1,11.6c0,3.7,0.8,6.9,2.3,9.7c1.5,2.7,3.8,4.9,6.9,6.5c3.1,1.6,9.5,4.1,19.2,7.7    c9.2,3.1,15.9,5.8,20.1,8.1c12.2,6.5,21.4,14.3,27.6,23.3c6.2,9,9.3,19.4,9.3,31.1c0,18.1-6.3,33.7-18.9,46.8    C657.1,349.4,642,356,624.4,356c-6,0-11.8-0.9-17.3-2.8C601.6,351.3,595.9,348.5,590,344.8z"/>
		<path fill="#050299" d="M858.2,195.4v115.4h19.1v41.1h-61v-20.5c-5,7.6-11.3,13.3-18.8,17.2c-7.5,3.9-16.4,5.8-26.6,5.8    c-17.4,0-30.7-5.2-40.1-15.5c-9.4-10.3-14.1-25-14.1-44.1v-58.1h-19.6v-41.3h65v86c0,11.7,1.9,20,5.8,24.9    c3.8,4.9,10.2,7.4,19,7.4c8.3,0,14.8-2.9,19.8-8.8c4.9-5.8,7.4-13.7,7.4-23.5v-44.7h-18v-41.3H858.2z M748.4,168v-34.2h31.5V168    H748.4z M796.8,168v-34.2h31.5V168H796.8z"/>
		<path fill="#050299" d="M1008.3,334.5c-5.1,6.6-11.5,11.5-19.2,14.8c-7.7,3.2-16.5,4.9-26.6,4.9c-22,0-40.4-7.6-55-22.8    c-14.6-15.2-21.9-34.5-21.9-57.8c0-23.3,7.2-42.6,21.7-57.8c14.5-15.3,32.8-22.9,55-22.9c10.7,0,19.9,1.8,27.7,5.4    c7.8,3.6,14.5,9.1,20.2,16.6v-25.9h-17v-39.7h59.9v161.4h17v41.3h-61.8V334.5z M932.9,273.5c0,11.3,3.5,20.7,10.7,28    c7.1,7.3,16.1,11,27.1,11c10.9,0,19.8-3.7,26.9-11c7.1-7.3,10.6-16.7,10.6-28c0-11.4-3.5-20.8-10.6-28.1c-7.1-7.3-16.1-11-27-11    c-11,0-20,3.7-27.1,11.1C936.5,252.9,932.9,262.2,932.9,273.5z"/>
		<path fill="#050299" d="M1099.3,351.9V236.5h-19.6v-41.1h19.6v-46.2h45.1v46.2h19.6v41.1h-19.6v74.1h15v41.3H1099.3z"/>
		<path fill="#050299" d="M1202.3,310.6v-74.1h-19.1v-41.1h63.2v115.1h19.8v41.3h-83.5v-41.3H1202.3z M1202.3,186.8v-37.6h44.1v37.6    H1202.3z"/>
		<path fill="#050299" d="M1304.2,310.6v-74.1h-18v-41.1h59.9v22.7c4.2-8.3,9.7-14.5,16.6-18.7c3.4-2,7.3-3.6,11.6-4.8    c4.3-1.2,9-1.7,14-1.7v43.6c-7,0-13,1-18.1,2.8c-5.1,1.9-9.4,4.6-12.8,8.1c-6.2,6.7-9.3,17.2-9.3,31.5v31.5h18v41.3h-81.7v-41.3    H1304.2z"/>
		<path fill="#050299" d="M1395.5,273.5c0-11.5,2-22.2,6.1-32.1c4.1-9.9,10-18.6,17.8-26.3c7.7-7.7,16.8-13.6,27.1-17.7    c10.3-4.2,21.2-6.3,32.5-6.3c11.5,0,22.3,2,32.4,6.1c10.1,4.1,19,9.9,26.8,17.6c7.7,7.7,13.7,16.5,17.8,26.4    c4.1,10,6.2,20.7,6.2,32.2c0,11.5-2,22.2-6,32.1c-4,9.9-9.9,18.6-17.8,26.3c-7.9,7.7-16.9,13.6-27.1,17.7    c-5.1,1.9-10.3,3.4-15.6,4.5c-5.3,1-10.9,1.5-16.7,1.5c-11.6,0-22.4-2-32.5-6c-10.1-4-19-9.9-26.9-17.5    c-7.8-7.6-13.8-16.4-18-26.5C1397.6,295.5,1395.5,284.8,1395.5,273.5z M1442.6,273.5c0,10.6,3.6,19.6,10.7,27.2    c7.1,7.6,15.7,11.4,25.8,11.4c9.9,0,18.5-3.8,25.6-11.3c7.1-7.6,10.7-16.7,10.7-27.3c0-10.8-3.5-20.1-10.6-27.7    c-7.1-7.6-15.6-11.4-25.8-11.4c-9.9,0-18.5,3.8-25.7,11.4C1446.1,253.4,1442.6,262.6,1442.6,273.5z"/>
		<path fill="#050299" d="M1593.2,310.6V190.3h-19.1v-41.1h63.2v161.4h19.8v41.3h-83.5v-41.3H1593.2z"/>
	</g>
</g>
</svg>