<svg xmlns="http://www.w3.org/2000/svg" viewBox="0 0 343 361">
  <path fill="#00319b" stroke="#000" stroke-width="11" d="M335.45 41.8C259.9 41.8 238.31 51.88 171.5 7 104.7 51.88 83.1 41.8 7.55 41.8c0 0-27.31 240.45 163.95 312.93C362.76 282.25 335.45 41.8 335.45 41.8Z"/>
  <g fill="#f00">
    <path d="M24.75 101.58c1.73 38.99 10.26 97.15 41.66 147.81V101.58H24.75Z"/>
    <path d="M108.44 101.58v197.06a206.47 206.47 0 0 0 42.04 27.73V101.58h-42.04Z"/>
    <path d="M192.52 101.58v224.79a206.74 206.74 0 0 0 42.04-27.73V101.58h-42.04Z"/>
    <path d="M276.6 101.58v147.81c31.39-50.66 39.92-108.82 41.66-147.81H276.6Z"/>
  </g>
  <g fill="#fff">
    <path d="M75.31 85.29H61.77l-2.14 6h-8.71l12.44-32.96h10.33l12.44 32.96h-8.71l-2.11-6Zm-11.38-6.11h9.2l-4.59-13.11-4.61 13.11Z"/>
    <path d="M91.92 82.75h8.1v8.54h-8.1v-8.54Z"/>
    <path d="M120.98 58.34h30.96v6.42H140.8V91.3h-8.66V64.76h-11.16v-6.42Z"/>
    <path d="M149.89 82.75h8.1v8.54h-8.1v-8.54Z"/>
    <path d="M206.34 59.38v6.98a31 31 0 0 0-5.4-1.83 21.86 21.86 0 0 0-4.97-.62c-2.07 0-3.6.28-4.59.84s-1.48 1.43-1.48 2.6c0 .88.33 1.57 1 2.06s1.88.92 3.63 1.27l3.69.73c3.73.74 6.39 1.85 7.96 3.36 1.57 1.5 2.36 3.63 2.36 6.4 0 3.63-1.1 6.34-3.3 8.11s-5.55 2.66-10.07 2.66c-2.13 0-4.27-.2-6.41-.6s-4.29-.99-6.43-1.77V82.4a33.22 33.22 0 0 0 6.22 2.53c2 .57 3.93.85 5.79.85s3.34-.31 4.34-.93 1.51-1.5 1.51-2.65a2.9 2.9 0 0 0-1.02-2.38c-.68-.56-2.04-1.06-4.08-1.5l-3.35-.73c-3.36-.71-5.81-1.83-7.37-3.38-1.55-1.55-2.33-3.63-2.33-6.25 0-3.28 1.08-5.81 3.24-7.57 2.16-1.77 5.26-2.65 9.31-2.65 1.84 0 3.74.14 5.69.41s3.97.68 6.05 1.23Z"/>
    <path d="M216.62 82.75h8.1v8.54h-8.1v-8.54Z"/>
    <path d="M276.32 89.49a22.33 22.33 0 0 1-10.37 2.45c-5.59 0-10.03-1.53-13.3-4.6-3.27-3.07-4.9-7.23-4.9-12.48s1.63-9.44 4.9-12.51 7.7-4.6 13.3-4.6a22.33 22.33 0 0 1 10.37 2.45v6.82c-1.6-1.07-3.19-1.86-4.75-2.36s-3.2-.75-4.93-.75c-3.09 0-5.52.97-7.29 2.91-1.77 1.94-2.65 4.62-2.65 8.04s.88 6.07 2.65 8.01c1.77 1.94 4.2 2.91 7.29 2.91 1.72 0 3.37-.25 4.93-.75s3.14-1.29 4.75-2.36v6.82Z"/>
    <path d="M283.97 82.75h8.1v8.54h-8.1v-8.54Z"/>
  </g>
</svg>