<svg xmlns="http://www.w3.org/2000/svg" width="273pt" height="51pt" viewBox="0 0 273 51" version="1.1">
<g id="fbf9f8fb">
<path fill="#fbf9f8" opacity="1.00" d=" M 15.76 0.00 L 32.97 0.00 C 37.10 0.36 42.56 0.03 45.04 4.15 C 46.66 7.74 45.88 11.92 44.69 15.53 C 48.44 9.75 55.73 8.84 62.04 9.13 C 67.48 9.29 74.92 8.13 77.65 14.22 C 79.63 11.86 82.15 9.55 85.45 9.56 C 93.85 9.37 102.26 9.54 110.66 9.51 C 111.37 6.42 112.04 3.33 112.71 0.24 C 117.64 0.28 122.57 0.27 127.49 0.24 C 126.77 3.33 126.05 6.41 125.31 9.50 C 128.02 9.49 130.73 9.49 133.44 9.48 C 132.55 13.22 131.71 16.98 130.85 20.72 C 128.14 20.74 125.44 20.74 122.74 20.73 C 122.04 23.63 121.42 26.54 121.06 29.50 C 123.53 30.20 126.10 30.32 128.66 30.35 C 127.70 34.16 126.78 37.98 125.89 41.81 C 119.76 41.46 112.17 43.41 107.42 38.42 C 103.39 33.14 107.11 26.47 107.99 20.75 C 104.17 20.74 100.35 20.74 96.54 20.68 C 99.38 22.07 102.87 23.11 104.34 26.20 C 106.47 32.62 102.56 41.57 95.10 41.76 C 81.07 41.97 67.04 41.77 53.01 41.86 C 50.08 41.78 46.97 42.01 44.27 40.68 C 42.27 39.73 41.51 37.50 40.44 35.73 C 38.03 38.89 34.67 41.68 30.50 41.74 C 22.30 41.94 14.08 41.89 5.89 41.78 C 3.15 41.94 0.95 39.99 0.00 37.56 L 0.00 34.64 C 1.94 25.49 3.99 16.34 6.19 7.25 C 7.20 2.92 11.44 0.14 15.76 0.00 M 8.00 8.01 C 6.05 15.78 4.50 23.65 2.61 31.44 C 2.22 33.73 1.13 36.33 2.64 38.45 C 4.18 40.34 6.91 39.66 9.02 39.85 C 16.64 39.65 24.29 40.14 31.89 39.59 C 38.46 38.30 41.34 30.91 40.99 24.88 C 40.87 22.62 38.80 21.51 36.95 20.78 C 42.71 18.54 44.99 11.71 43.68 6.03 C 42.87 3.30 39.71 2.29 37.14 2.31 C 29.74 2.24 22.34 2.26 14.94 2.30 C 11.58 2.10 8.73 4.87 8.00 8.01 M 114.28 2.25 C 113.59 5.30 112.93 8.34 112.28 11.39 C 110.93 11.38 109.58 11.36 108.23 11.35 C 107.65 13.81 107.08 16.28 106.52 18.74 C 107.84 18.73 109.17 18.72 110.49 18.70 C 109.58 24.14 106.98 29.52 107.74 35.08 C 110.41 41.65 118.81 39.44 124.35 39.84 C 124.93 37.39 125.52 34.95 126.12 32.50 C 123.89 31.98 120.31 32.42 119.54 29.61 C 118.97 25.88 120.50 22.25 121.34 18.67 C 123.99 18.71 126.65 18.73 129.31 18.74 C 129.88 16.29 130.44 13.84 130.98 11.39 C 128.30 11.38 125.62 11.37 122.94 11.37 C 123.60 8.34 124.32 5.32 124.99 2.29 C 121.42 2.28 117.85 2.28 114.28 2.25 M 48.34 14.35 C 45.07 17.64 44.57 22.53 43.50 26.82 C 42.92 30.29 41.46 34.27 43.58 37.50 C 44.94 39.65 47.73 39.77 50.00 39.82 C 56.78 39.88 63.56 39.78 70.34 39.84 C 70.88 37.32 71.42 34.80 71.94 32.28 C 66.58 32.15 61.20 32.56 55.85 32.07 C 54.03 32.07 53.61 30.17 53.34 28.76 C 59.20 28.52 65.10 29.06 70.95 28.49 C 74.43 27.43 75.31 23.31 75.70 20.15 C 76.04 17.26 76.20 13.27 72.95 11.95 C 69.44 10.76 65.63 11.30 62.00 11.15 C 57.35 11.20 51.98 10.89 48.34 14.35 M 78.12 24.76 C 81.79 28.61 87.65 28.80 92.21 31.18 C 91.71 31.43 90.70 31.93 90.20 32.17 C 85.17 32.48 80.13 32.18 75.09 32.29 C 74.54 34.81 73.99 37.34 73.43 39.86 C 80.64 39.73 87.84 39.95 95.05 39.77 C 101.50 39.65 104.63 31.23 102.05 26.07 C 97.94 22.24 91.85 22.00 87.11 19.20 C 93.01 18.15 99.05 18.99 105.00 18.70 C 105.55 16.25 106.12 13.80 106.70 11.36 C 99.80 11.47 92.90 11.22 86.01 11.48 C 79.75 11.49 75.84 19.47 78.12 24.76 M 40.97 20.72 C 41.43 21.39 41.89 22.06 42.35 22.74 C 42.87 20.97 43.38 19.20 43.88 17.43 C 42.93 18.54 41.95 19.64 40.97 20.72 M 76.40 25.95 C 75.37 27.75 73.89 29.20 72.18 30.35 C 76.11 30.20 80.05 30.29 83.99 30.29 C 81.21 29.30 78.47 28.10 76.40 25.95 Z"/>
<path fill="#fbf9f8" opacity="1.00" d=" M 174.28 0.00 L 178.20 0.00 C 180.80 0.30 183.73 1.63 184.21 4.50 C 184.88 9.53 184.80 14.63 185.36 19.67 C 188.52 13.18 191.80 6.74 195.02 0.27 C 200.70 0.26 206.39 0.25 212.07 0.28 C 210.42 3.35 208.78 6.42 207.12 9.49 C 215.20 10.04 223.66 8.12 231.42 10.98 C 231.36 10.60 231.24 9.85 231.18 9.47 C 236.15 9.51 241.12 9.48 246.09 9.50 C 246.95 14.41 247.88 19.30 248.76 24.20 C 252.03 19.28 255.33 14.37 258.62 9.47 C 263.41 9.51 268.21 9.49 273.00 9.49 L 273.00 11.04 C 263.97 24.43 254.84 37.77 245.57 51.00 L 230.02 51.00 C 232.88 47.16 235.58 43.20 238.38 39.31 C 236.82 33.50 235.55 27.63 234.04 21.81 C 232.79 26.73 231.99 31.78 230.41 36.62 C 229.21 40.04 225.53 41.95 222.04 41.82 C 216.01 41.87 209.97 41.90 203.94 41.80 C 201.28 41.87 198.29 40.69 197.38 37.99 C 195.91 33.63 197.73 29.13 198.86 24.92 C 200.37 23.34 202.01 21.89 203.73 20.54 C 203.12 20.50 201.91 20.43 201.30 20.40 C 200.51 21.92 199.68 23.42 198.86 24.92 C 195.48 30.65 193.51 38.11 187.17 41.34 C 182.42 43.25 174.65 43.12 172.88 37.25 C 171.85 32.56 172.09 27.69 171.59 22.93 C 169.08 27.60 166.96 32.49 164.17 37.01 C 161.05 42.25 153.80 43.63 148.43 41.41 C 144.96 39.73 144.25 35.52 143.98 32.07 C 143.19 21.46 142.38 10.86 141.57 0.25 C 147.09 0.28 152.62 0.24 158.15 0.29 C 158.31 6.80 158.69 13.29 158.90 19.80 C 161.79 14.66 164.25 9.28 167.22 4.18 C 168.66 1.64 171.50 0.39 174.28 0.00 M 143.68 2.25 C 144.42 11.87 145.18 21.49 145.84 31.12 C 146.21 33.93 146.15 37.35 148.60 39.29 C 151.62 41.04 155.51 40.69 158.66 39.46 C 162.31 37.84 163.73 33.79 165.54 30.53 C 168.08 25.87 170.08 20.89 173.14 16.53 C 173.76 23.18 173.66 29.90 174.68 36.50 C 175.67 40.53 180.63 40.82 183.99 40.28 C 187.90 39.78 190.55 36.56 192.27 33.29 C 197.84 22.98 203.26 12.59 208.82 2.27 C 204.62 2.28 200.42 2.28 196.22 2.28 C 192.03 10.27 188.30 18.50 183.84 26.33 C 183.01 18.92 183.25 11.38 182.05 4.02 C 178.49 0.15 170.59 1.25 168.31 6.12 C 164.65 12.83 161.43 19.78 157.52 26.35 C 156.64 18.35 156.66 10.30 156.25 2.27 C 152.06 2.29 147.87 2.29 143.68 2.25 M 205.65 11.37 C 205.13 13.78 204.62 16.20 204.11 18.62 C 209.45 18.75 214.82 18.36 220.15 18.79 C 221.60 18.92 221.26 20.79 221.86 21.73 C 216.56 22.08 211.22 21.39 205.96 22.12 C 201.04 23.07 199.34 28.58 198.89 32.92 C 198.44 35.45 198.96 39.22 202.09 39.63 C 208.72 40.07 215.39 39.74 222.04 39.82 C 224.75 40.03 227.60 38.59 228.55 35.96 C 229.82 32.36 230.40 28.57 231.38 24.88 C 232.02 21.73 233.25 18.30 231.97 15.14 C 230.83 12.48 227.80 11.39 225.09 11.42 C 218.61 11.28 212.13 11.43 205.65 11.37 M 233.47 11.37 C 235.87 20.87 238.14 30.39 240.48 39.90 C 238.16 42.93 235.95 46.03 233.81 49.18 C 237.37 49.18 240.92 49.18 244.48 49.21 C 253.24 36.66 261.82 23.97 270.51 11.37 C 266.90 11.38 263.29 11.38 259.69 11.37 C 255.71 17.34 251.66 23.25 247.74 29.26 C 246.58 23.30 245.57 17.31 244.39 11.35 C 240.75 11.38 237.11 11.38 233.47 11.37 Z"/>
<path fill="#fbf9f8" opacity="1.00" d=" M 18.17 16.69 C 18.65 15.03 19.16 13.37 19.69 11.72 C 23.35 11.91 27.16 11.20 30.72 12.19 C 31.33 13.72 30.88 16.26 28.94 16.50 C 25.37 16.92 21.76 16.65 18.17 16.69 M 20.21 14.58 C 23.23 14.45 26.83 15.75 29.43 13.77 C 26.42 13.85 22.82 12.60 20.21 14.58 Z"/>
<path fill="#fbf9f8" opacity="1.00" d=" M 54.99 21.62 C 56.64 17.24 61.73 18.33 65.37 18.97 C 64.80 20.03 64.82 21.97 63.11 21.74 C 60.40 21.99 57.69 21.82 54.99 21.62 Z"/>
<path fill="#fbf9f8" opacity="1.00" d=" M 16.48 24.81 C 19.99 24.89 23.51 24.61 27.00 24.99 C 29.76 25.33 28.76 28.95 27.05 30.02 C 23.21 30.74 19.26 30.31 15.38 30.27 C 15.72 28.44 16.09 26.62 16.48 24.81 M 17.98 26.85 C 17.88 27.24 17.67 28.01 17.57 28.39 C 20.44 28.40 23.30 28.41 26.16 28.34 C 26.32 27.96 26.63 27.21 26.79 26.83 C 23.85 26.84 20.91 26.84 17.98 26.85 Z"/>
<path fill="#fbf9f8" opacity="1.00" d=" M 209.80 32.03 C 210.12 30.97 210.49 29.93 210.91 28.91 C 213.94 28.55 217.00 28.72 220.04 28.77 C 219.18 29.92 218.96 32.33 217.06 32.20 C 214.64 32.45 212.21 32.23 209.80 32.03 Z"/>
</g>
<g id="ed2224ff">
<path fill="#ed2224" opacity="1.00" d=" M 8.00 8.01 C 8.73 4.87 11.58 2.10 14.94 2.30 C 22.34 2.26 29.74 2.24 37.14 2.31 C 39.71 2.29 42.87 3.30 43.68 6.03 C 44.99 11.71 42.71 18.54 36.95 20.78 C 38.80 21.51 40.87 22.62 40.99 24.88 C 41.34 30.91 38.46 38.30 31.89 39.59 C 24.29 40.14 16.64 39.65 9.02 39.85 C 6.91 39.66 4.18 40.34 2.64 38.45 C 1.13 36.33 2.22 33.73 2.61 31.44 C 4.50 23.65 6.05 15.78 8.00 8.01 M 18.17 16.69 C 21.76 16.65 25.37 16.92 28.94 16.50 C 30.88 16.26 31.33 13.72 30.72 12.19 C 27.16 11.20 23.35 11.91 19.69 11.72 C 19.16 13.37 18.65 15.03 18.17 16.69 M 16.48 24.81 C 16.09 26.62 15.72 28.44 15.38 30.27 C 19.26 30.31 23.21 30.74 27.05 30.02 C 28.76 28.95 29.76 25.33 27.00 24.99 C 23.51 24.61 19.99 24.89 16.48 24.81 Z"/>
<path fill="#ed2224" opacity="1.00" d=" M 114.28 2.25 C 117.85 2.28 121.42 2.28 124.99 2.29 C 124.32 5.32 123.60 8.34 122.94 11.37 C 125.62 11.37 128.30 11.38 130.98 11.39 C 130.44 13.84 129.88 16.29 129.31 18.74 C 126.65 18.73 123.99 18.71 121.34 18.67 C 120.50 22.25 118.97 25.88 119.54 29.61 C 120.31 32.42 123.89 31.98 126.12 32.50 C 125.52 34.95 124.93 37.39 124.35 39.84 C 118.81 39.44 110.41 41.65 107.74 35.08 C 106.98 29.52 109.58 24.14 110.49 18.70 C 109.17 18.72 107.84 18.73 106.52 18.74 C 107.08 16.28 107.65 13.81 108.23 11.35 C 109.58 11.36 110.93 11.38 112.28 11.39 C 112.93 8.34 113.59 5.30 114.28 2.25 Z"/>
<path fill="#ed2224" opacity="1.00" d=" M 143.68 2.25 C 147.87 2.29 152.06 2.29 156.25 2.27 C 156.66 10.30 156.64 18.35 157.52 26.35 C 161.43 19.78 164.65 12.83 168.31 6.12 C 170.59 1.25 178.49 0.15 182.05 4.02 C 183.25 11.38 183.01 18.92 183.84 26.33 C 188.30 18.50 192.03 10.27 196.22 2.28 C 200.42 2.28 204.62 2.28 208.82 2.27 C 203.26 12.59 197.84 22.98 192.27 33.29 C 190.55 36.56 187.90 39.78 183.99 40.28 C 180.63 40.82 175.67 40.53 174.68 36.50 C 173.66 29.90 173.76 23.18 173.14 16.53 C 170.08 20.89 168.08 25.87 165.54 30.53 C 163.73 33.79 162.31 37.84 158.66 39.46 C 155.51 40.69 151.62 41.04 148.60 39.29 C 146.15 37.35 146.21 33.93 145.84 31.12 C 145.18 21.49 144.42 11.87 143.68 2.25 Z"/>
<path fill="#ed2224" opacity="1.00" d=" M 48.34 14.35 C 51.98 10.89 57.35 11.20 62.00 11.15 C 65.63 11.30 69.44 10.76 72.95 11.95 C 76.20 13.27 76.04 17.26 75.70 20.15 C 75.31 23.31 74.43 27.43 70.95 28.49 C 65.10 29.06 59.20 28.52 53.34 28.76 C 53.61 30.17 54.03 32.07 55.85 32.07 C 61.20 32.56 66.58 32.15 71.94 32.28 C 71.42 34.80 70.88 37.32 70.34 39.84 C 63.56 39.78 56.78 39.88 50.00 39.82 C 47.73 39.77 44.94 39.65 43.58 37.50 C 41.46 34.27 42.92 30.29 43.50 26.82 C 44.57 22.53 45.07 17.64 48.34 14.35 M 54.99 21.62 C 57.69 21.82 60.40 21.99 63.11 21.74 C 64.82 21.97 64.80 20.03 65.37 18.97 C 61.73 18.33 56.64 17.24 54.99 21.62 Z"/>
<path fill="#ed2224" opacity="1.00" d=" M 205.65 11.37 C 212.13 11.43 218.61 11.28 225.09 11.42 C 227.80 11.39 230.83 12.48 231.97 15.14 C 233.25 18.30 232.02 21.73 231.38 24.88 C 230.40 28.57 229.82 32.36 228.55 35.96 C 227.60 38.59 224.75 40.03 222.04 39.82 C 215.39 39.74 208.72 40.07 202.09 39.63 C 198.96 39.22 198.44 35.45 198.89 32.92 C 199.34 28.58 201.04 23.07 205.96 22.12 C 211.22 21.39 216.56 22.08 221.86 21.73 C 221.26 20.79 221.60 18.92 220.15 18.79 C 214.82 18.36 209.45 18.75 204.11 18.62 C 204.62 16.20 205.13 13.78 205.65 11.37 M 209.80 32.03 C 212.21 32.23 214.64 32.45 217.06 32.20 C 218.96 32.33 219.18 29.92 220.04 28.77 C 217.00 28.72 213.94 28.55 210.91 28.91 C 210.49 29.93 210.12 30.97 209.80 32.03 Z"/>
<path fill="#ed2224" opacity="1.00" d=" M 233.47 11.37 C 237.11 11.38 240.75 11.38 244.39 11.35 C 245.57 17.31 246.58 23.30 247.74 29.26 C 251.66 23.25 255.71 17.34 259.69 11.37 C 263.29 11.38 266.90 11.38 270.51 11.37 C 261.82 23.97 253.24 36.66 244.48 49.21 C 240.92 49.18 237.37 49.18 233.81 49.18 C 235.95 46.03 238.16 42.93 240.48 39.90 C 238.14 30.39 235.87 20.87 233.47 11.37 Z"/>
<path fill="#ed2224" opacity="1.00" d=" M 78.12 24.76 C 75.84 19.47 79.75 11.49 86.01 11.48 C 92.90 11.22 99.80 11.47 106.70 11.36 C 106.12 13.80 105.55 16.25 105.00 18.70 C 99.05 18.99 93.01 18.15 87.11 19.20 C 91.85 22.00 97.94 22.24 102.05 26.07 C 104.63 31.23 101.50 39.65 95.05 39.77 C 87.84 39.95 80.64 39.73 73.43 39.86 C 73.99 37.34 74.54 34.81 75.09 32.29 C 80.13 32.18 85.17 32.48 90.20 32.17 C 90.70 31.93 91.71 31.43 92.21 31.18 C 87.65 28.80 81.79 28.61 78.12 24.76 Z"/>
</g>
</svg>