<svg xmlns="http://www.w3.org/2000/svg" xmlns:xlink="http://www.w3.org/1999/xlink" width="254.17" height="400" viewBox="0 0 254.17 400"><defs><style>.cls-1{fill:none;}.cls-2{isolation:isolate;}.cls-3{fill:#1e448d;}.cls-4{fill:#ed2a3c;}.cls-5{fill:#e4e5e6;}.cls-6{opacity:0.25;mix-blend-mode:multiply;}.cls-7{clip-path:url(#clip-path);}.cls-8{fill:#010101;}.cls-9{clip-path:url(#clip-path-2);}.cls-10{fill:#dba628;fill-rule:evenodd;}.cls-11{fill:#fff;}</style><clipPath id="clip-path"><rect class="cls-1" x="163.41" y="181.45" width="86.65" height="193.49"/></clipPath><clipPath id="clip-path-2"><rect class="cls-1" x="4.1" y="181.45" width="87.58" height="193.49"/></clipPath></defs><title>escudo_menu</title><g class="cls-2"><g id="Capa_1" data-name="Capa 1"><path class="cls-3" d="M163.41,181.45V374.94h56.1c30.2,0,30.55-28.5,30.55-28.5v-165H163.41Z"/><path class="cls-3" d="M4.11,183.37V346.44s0.35,28.5,30.55,28.5h57V181.45H4.11v1.92Z"/><path class="cls-4" d="M4.1,181.45H91.68V374.94h11.45a21.82,21.82,0,0,1,3.11.31h0c5.8,0.94,17.94,4.76,20.83,20.26v0h0v0c0.17-.94.39-1.81,0.63-2.66,5-17.89,23.32-17.9,23.32-17.9h12.38V181.45h86.65v-72.8H4.1v72.8Z"/><path class="cls-5" d="M0,104.38V346.49C0.14,357.75,7.56,379,34.66,379h68.48c0.68,0,16.63.21,19.87,17.08a4,4,0,0,0,8.07.09h0C134.39,379.65,150.37,379,151,379h68.47c27.1,0,34.52-21.29,34.66-32.59V104.38H0Zm250.06,4.27V346.44s-0.35,28.5-30.55,28.5H151s-18.31,0-23.31,17.9c-0.24.85-.46,1.73-0.63,2.66v0h0v0c-2.89-15.5-15-19.32-20.83-20.26h0a21.82,21.82,0,0,0-3.11-.31H34.65c-30.2,0-30.55-28.5-30.55-28.5v-238h246v0.18Z"/><g class="cls-6"><g class="cls-7"><polygon class="cls-8" points="163.41 374.94 165.38 374.94 165.38 183.37 250.06 183.37 250.06 181.45 163.41 181.45 163.41 374.94"/></g></g><g class="cls-6"><g class="cls-9"><polygon class="cls-8" points="4.11 181.45 4.11 183.37 89.61 183.37 89.61 374.94 91.68 374.94 91.68 181.45 4.11 181.45"/></g></g><polygon class="cls-10" points="127.31 0 137.43 31.43 170.74 31.43 143.62 50.97 154.16 82.28 127.03 63.24 100.45 82.28 110.71 51.15 83.43 31.43 117.09 31.35 127.31 0"/><polygon class="cls-11" points="33.74 168.64 45.28 168.64 45.28 132.83 54.89 132.83 54.89 121.72 24.1 121.72 24.1 132.83 33.74 132.83 33.74 168.64"/><rect class="cls-11" x="68.07" y="121.72" width="11.55" height="46.93"/><path class="cls-11" d="M116.23,169.42A21.62,21.62,0,0,0,133,162a20.33,20.33,0,0,0,4.2-7.23,31.06,31.06,0,0,0,1.23-9.08v-4H115.92v11.12h9.64a9.62,9.62,0,0,1-2.42,3,10.06,10.06,0,0,1-6.7,2.51,12.36,12.36,0,0,1-8.43-3.52,12.16,12.16,0,0,1-4.16-9.56,12.62,12.62,0,0,1,3.76-9.42,12.41,12.41,0,0,1,9.29-3.79c4.11,0,7.54,1.9,10.48,5.8l1.77,2.34,8.43-8-1.65-1.87a29.14,29.14,0,0,0-8.86-7.11,24.11,24.11,0,0,0-10.28-2.24A23.8,23.8,0,0,0,99.43,128a24.32,24.32,0,0,0-.13,34.31,23.07,23.07,0,0,0,16.92,7.1"/><path class="cls-11" d="M165.91,155.6l10.9,13h17l-16.62-19.1a16.15,16.15,0,0,0,5.49-3.75,13.35,13.35,0,0,0-2.24-20.36c-3.55-2.5-8.89-3.72-16.32-3.72H152.14v46.93h13.77v-13Zm0-22.77c6.88,0.09,6.88,2.5,6.88,3.8s0,4.06-6.88,4.23v-8Z"/><polygon class="cls-11" points="230.06 157.52 213.26 157.52 213.26 148.78 229.58 148.78 229.58 137.66 213.26 137.66 213.26 132.83 230.06 132.83 230.06 121.72 201.72 121.72 201.72 168.64 230.06 168.64 230.06 157.52"/></g></g></svg>