<svg xmlns:dc="http://purl.org/dc/elements/1.1/" xmlns:cc="http://creativecommons.org/ns#" xmlns:rdf="http://www.w3.org/1999/02/22-rdf-syntax-ns#" xmlns:svg="http://www.w3.org/2000/svg" xmlns="http://www.w3.org/2000/svg" xmlns:sodipodi="http://sodipodi.sourceforge.net/DTD/sodipodi-0.dtd" xmlns:inkscape="http://www.inkscape.org/namespaces/inkscape" version="1.1" id="svg2" xml:space="preserve" width="600" height="600" viewBox="0 0 599.99999 599.99999" sodipodi:docname="logo.svg" inkscape:version="1.0.1 (c497b03c, 2020-09-10)"><metadata id="metadata8"><rdf:RDF><cc:Work rdf:about=""><dc:format>image/svg+xml</dc:format><dc:type rdf:resource="http://purl.org/dc/dcmitype/StillImage"/></cc:Work></rdf:RDF></metadata><defs id="defs6"/><sodipodi:namedview pagecolor="#ffffff" bordercolor="#666666" borderopacity="1" objecttolerance="10" gridtolerance="10" guidetolerance="10" inkscape:pageopacity="0" inkscape:pageshadow="2" inkscape:window-width="1920" inkscape:window-height="1080" id="namedview4" inkscape:document-rotation="0" showgrid="false" inkscape:zoom="0.77015714" inkscape:cx="431.13551" inkscape:cy="259.65964" inkscape:window-x="0" inkscape:window-y="0" inkscape:window-maximized="0" inkscape:current-layer="g10"/><g id="g10" inkscape:groupmode="layer" inkscape:label="TFC_LOGO" transform="matrix(1.3333333,0,0,-1.3333333,9.3133331e-4,279.68533)"><g id="g1837"><path d="m 449.99931,-15.237079 c 0,-124.263321 -100.73535,-224.998931 -225,-224.998931 -124.26251,0 -225.0000085,100.73561 -225.0000085,224.998931 0,124.263329 100.7374985,225.001079 225.0000085,225.001079 124.26465,0 225,-100.73775 225,-225.001079" style="fill:#38284f;fill-opacity:1;fill-rule:nonzero;stroke:none;stroke-width:2.14529" id="path22"/><path d="m 443.91869,-15.236005 c 0,-120.905835 -98.01308,-218.919375 -218.91831,-218.919375 -120.90524,0 -218.9204581,98.01354 -218.9204581,218.919375 0,120.905835 98.0152181,218.919375 218.9204581,218.919375 120.90523,0 218.91831,-98.01354 218.91831,-218.919375" style="fill:#ffffff;fill-opacity:1;fill-rule:nonzero;stroke:none;stroke-width:2.14527" id="path26"/><path d="m 437.83656,-15.236005 c 0,-117.546175 -95.2906,-212.837255 -212.83618,-212.837255 -117.54774,0 -212.838329,95.29108 -212.838329,212.837255 0,117.546185 95.290589,212.837255 212.838329,212.837255 117.54558,0 212.83618,-95.29107 212.83618,-212.837255" style="fill:#38284f;fill-opacity:1;fill-rule:nonzero;stroke:none;stroke-width:2.14527" id="path30"/><path d="m 361.87431,-15.234928 c 0,-75.593023 -61.28043,-136.876082 -136.87285,-136.876082 -75.59458,0 -136.877159,61.283059 -136.877159,136.876082 0,75.593023 61.282579,136.873928 136.877159,136.873928 75.59242,0 136.87285,-61.280905 136.87285,-136.873928" style="fill:#ffffff;fill-opacity:1;fill-rule:nonzero;stroke:none;stroke-width:2.14605" id="path34"/><g id="g1825"><path d="m 107.01407,27.982294 v -86.447325 l 13.71992,-29.459525 28.71992,-29.459524 V 86.899195 L 120.73399,57.440745 107.01407,27.982294" style="fill:#695188;fill-opacity:1;fill-rule:nonzero;stroke:none;stroke-width:2.14529" id="path66" sodipodi:nodetypes="ccccccc"/><path d="m 171.38262,-130.80348 42.43984,-11.57829 v 254.27994 l -42.43984,-11.57614 z" style="fill:#695188;fill-opacity:1;fill-rule:nonzero;stroke:none;stroke-width:2.14529" id="path70" sodipodi:nodetypes="ccccc"/><path d="m 235.75117,-142.4148 42.43984,11.41309 v 231.52025 l -42.43984,11.4131 z" style="fill:#695188;fill-opacity:1;fill-rule:nonzero;stroke:none;stroke-width:2.14529" id="path74" sodipodi:nodetypes="ccccc"/><path d="M 342.55785,-59.759732 V 29.276994 L 328.83793,58.260257 300.11801,87.243519 V -117.7284 l 28.71992,28.984334 13.71992,28.984334" style="fill:#695188;fill-opacity:1;fill-rule:nonzero;stroke:none;stroke-width:2.14529" id="path78" sodipodi:nodetypes="ccccccc"/></g><path id="path38" style="fill:#38284f;fill-opacity:1;fill-rule:nonzero;stroke:none;stroke-width:2.86035" d="m 300.00195,125.67578 c -96.27962,0 -174.32617,78.04744 -174.32617,174.32422 0,96.27678 78.04655,174.32422 174.32617,174.32422 96.27392,0 174.32227,-78.04744 174.32227,-174.32422 0,-96.27678 -78.04835,-174.32422 -174.32227,-174.32422 z m 0,8.10742 c 91.79472,0 166.21485,74.41729 166.21485,166.21485 0,91.79756 -74.42013,166.21875 -166.21485,166.21875 -91.80041,0 -166.21875,-74.42119 -166.21875,-166.21875 0,-91.79756 74.41834,-166.21485 166.21875,-166.21485 z" transform="matrix(0.75000002,0,0,-0.75000002,-7e-4,209.764)"/></g><g id="g1484"><g id="g1441"><path d="m 34.80606,-5.9384067 h -4.680975 v 4.9621233 H 40.669078 V -30.86058 H 34.80606 Z" style="fill:#ffffff;fill-opacity:1;fill-rule:nonzero;stroke:none;stroke-width:2.14529" id="path260"/><path d="m 63.677292,-11.07001 c 0,3.099986 -2.029423,5.4126401 -5.412511,5.4126401 -3.385233,0 -5.414657,-2.3126541 -5.414657,-5.4126401 0,-3.099987 2.087346,-5.526343 5.470434,-5.526343 3.608341,0 5.356734,2.312655 5.356734,5.526343 m -4.511499,-9.752621 c -0.508428,-0.227404 -1.351519,-0.338961 -1.862092,-0.338961 -5.807241,0 -10.483925,4.058944 -10.483925,10.091582 0,6.5968563 5.187258,10.54424364 11.445005,10.54424364 6.199824,0 11.387083,-3.83583074 11.387083,-10.43054164 0,-3.102132 -1.463073,-5.97686 -4.11677,-9.81269 L 58.543666,-30.86058 h -6.425078 z" style="fill:#ffffff;fill-opacity:1;fill-rule:nonzero;stroke:none;stroke-width:2.14529" id="path264"/><path d="m 374.93595,-23.030594 4.95128,2.531477 c 1.2936,-2.868292 3.54613,-4.83984 6.97856,-4.83984 3.54398,0 5.79651,1.971548 5.79651,5.685096 0,3.713547 -2.92829,5.457692 -6.3028,5.457692 -2.13883,0 -3.54612,-0.338961 -4.61447,-0.675776 l -0.4505,0.845256 7.31536,9.0039045 h -11.30985 v 4.95354206 h 20.93138 v -0.28318213 l -7.98898,-9.96071743 c 4.50077,-0.450517 8.43948,-3.940951 8.43948,-9.454421 0,-5.908209 -3.88079,-10.636493 -11.81613,-10.636493 -6.47228,0 -10.46676,3.99673 -11.92984,7.373462" style="fill:#ffffff;fill-opacity:1;fill-rule:nonzero;stroke:none;stroke-width:2.14529" id="path268"/><path d="m 416.19032,-5.0227845 h -14.29393 v 4.95354206 h 22.62186 V -0.35242457 L 410.56113,-29.897761 h -6.1891 z" style="fill:#ffffff;fill-opacity:1;fill-rule:nonzero;stroke:none;stroke-width:2.14529" id="path272"/></g><g id="g1435"><path d="m 108.07833,128.11379 -8.212082,-7.85186 19.255922,-20.14241 -5.0092,-4.786203 -19.255923,20.142403 -8.209941,-7.85187 -4.331296,4.53092 21.43123,20.48779 z" style="fill:#ffffff;fill-opacity:1;fill-rule:nonzero;stroke:none;stroke-width:2.14529" id="path276"/><path d="m 140.36634,123.21861 c 2.6494,1.61971 4.30984,3.88731 4.97273,6.80066 0.71008,2.94123 0.21667,5.80094 -1.45664,8.53622 -1.67331,2.73743 -3.99234,4.48372 -6.9571,5.23673 -2.92615,0.77875 -5.69784,0.33681 -8.34939,-1.2829 -2.64726,-1.61972 -4.3077,-3.88518 -4.98989,-6.86932 -0.63929,-2.95625 -0.14588,-5.8181 1.52957,-8.55553 1.67117,-2.73743 3.9902,-4.48157 6.88846,-5.21742 2.93902,-0.7101 5.71285,-0.26816 8.36226,1.35156 m 11.57801,5.46627 c -1.17346,-4.71756 -3.8765,-8.39893 -8.17777,-11.02694 -4.30126,-2.62802 -8.81061,-3.35743 -13.58812,-2.27833 -4.76035,1.14989 -8.44163,3.85299 -11.01595,8.0664 -2.60436,4.25846 -3.33161,8.76792 -2.1796,13.52838 1.19063,4.78621 3.89366,8.46758 8.19493,11.09559 4.30126,2.63016 8.81061,3.35528 13.57096,2.20754 4.80111,-1.12201 8.48239,-3.82511 11.08675,-8.08357 2.57432,-4.2134 3.30157,-8.72286 2.1088,-13.50907" style="fill:#ffffff;fill-opacity:1;fill-rule:nonzero;stroke:none;stroke-width:2.14529" id="path280"/><path d="m 180.60277,170.82109 5.81153,-17.92628 c 1.47594,-4.55452 1.41159,-8.6435 -0.24456,-12.28625 -1.65829,-3.64275 -4.54368,-6.13132 -8.75699,-7.49789 -4.31413,-1.39875 -8.20779,-1.10913 -11.73461,0.85384 -3.52897,1.96082 -6.03035,5.21742 -7.50629,9.77193 l -5.81368,17.92414 6.58812,2.13888 5.81153,-17.92628 c 1.76126,-5.42552 5.9617,-7.97416 10.61264,-6.466 4.40638,1.42879 6.21484,5.92538 4.45572,11.35089 l -5.81153,17.92629 z" style="fill:#ffffff;fill-opacity:1;fill-rule:nonzero;stroke:none;stroke-width:2.14529" id="path284"/><path d="m 221.35857,148.21243 0.66074,-6.23 -24.40886,-2.58726 -3.59976,33.93037 6.88846,0.72941 2.93687,-27.70251 z" style="fill:#ffffff;fill-opacity:1;fill-rule:nonzero;stroke:none;stroke-width:2.14529" id="path288"/><path d="m 243.18624,146.32584 c 3.08919,-0.33038 5.78579,0.4591 8.08981,2.36414 2.35336,1.90075 3.70273,4.47085 4.04383,7.66094 0.33895,3.19008 -0.43763,5.98758 -2.33191,8.39248 -1.84278,2.40062 -4.31198,3.7393 -7.40332,4.06753 -3.08489,0.33038 -5.78149,-0.45695 -8.14343,-2.40705 -2.30831,-1.95653 -3.65983,-4.52662 -3.99878,-7.71671 -0.3411,-3.19224 0.43763,-5.98973 2.28471,-8.33886 1.90071,-2.35341 4.37205,-3.69209 7.45909,-4.02247 m 12.51335,-2.71812 c -3.80356,-3.0249 -8.19063,-4.29922 -13.20412,-3.76289 -5.01349,0.53418 -9.03158,2.70525 -12.16582,6.47243 -3.07631,3.81008 -4.3506,8.19726 -3.82501,13.11004 0.52988,4.96213 2.70089,8.98245 6.51089,12.05884 3.86363,3.06995 8.24855,4.34213 13.26205,3.80794 5.01349,-0.53633 9.03372,-2.70524 12.11003,-6.51748 3.12781,-3.81437 4.40209,-8.20155 3.87221,-13.16582 -0.52559,-4.91278 -2.6966,-8.93096 -6.56023,-12.00306" style="fill:#ffffff;fill-opacity:1;fill-rule:nonzero;stroke:none;stroke-width:2.14529" id="path292"/><path d="m 304.07496,159.53929 -6.31352,-17.75037 c -1.60252,-4.50946 -4.14681,-7.71243 -7.67792,-9.59172 -3.53326,-1.87716 -7.33896,-2.09169 -11.51151,-0.60713 -4.27123,1.51889 -7.18021,4.12116 -8.78272,7.82612 -1.60037,3.70283 -1.60037,7.80897 0.004,12.31843 l 6.31352,17.75037 6.52376,-2.31909 -6.31138,-17.75037 c -1.91143,-5.37403 -0.13515,-9.94999 4.47074,-11.58902 4.36562,-1.55106 8.53602,0.90962 10.44746,6.2815 l 6.31352,17.75251 z" style="fill:#ffffff;fill-opacity:1;fill-rule:nonzero;stroke:none;stroke-width:2.14529" id="path296"/><path d="m 333.51383,140.49121 c 1.13485,-2.80393 1.16917,-5.64219 0.14159,-8.54266 l -6.63103,2.44567 c 1.30433,2.96697 0.0279,6.21928 -2.91113,8.04709 -2.8103,1.74843 -5.68067,1.373 -6.94637,-0.65861 -0.99541,-1.60041 -0.63715,-3.1429 1.06834,-4.74116 l 5.44898,-5.12731 c 4.15324,-4.02248 5.21729,-8.58342 2.44775,-13.03711 -1.75054,-2.81037 -4.15967,-4.37001 -7.30035,-4.6961 -3.14067,-0.32609 -6.42078,0.57494 -9.87895,2.7267 -3.1986,1.98871 -5.46615,4.41721 -6.84341,7.31554 -1.30861,2.90905 -1.28502,5.83741 0.088,8.81941 l 6.96139,-2.5937 c -1.22709,-3.61271 -0.0322,-6.51318 3.55686,-8.74646 3.28655,-2.04235 6.11401,-1.64332 7.43335,0.47626 1.07478,1.72913 0.72939,3.20296 -1.41159,5.25389 l -5.41465,4.98786 c -4.38708,4.22628 -5.2173,8.58128 -2.44775,13.03496 1.64113,2.63875 3.95372,4.13832 6.93779,4.50088 3.00981,0.40761 6.20197,-0.43764 9.57648,-2.53791 2.94116,-1.82781 4.98989,-4.1233 6.12474,-6.92724" style="fill:#ffffff;fill-opacity:1;fill-rule:nonzero;stroke:none;stroke-width:2.14529" id="path300"/><path d="m 348.55795,93.354904 -4.31842,-4.53735 -18.77754,17.866216 23.51858,24.71837 18.70459,-17.79757 -4.31842,-4.53735 -13.68681,13.02423 -5.29882,-5.57139 12.61847,-12.00521 -4.24763,-4.46226 -12.62061,12.00306 -5.33314,-5.60572 z" style="fill:#ffffff;fill-opacity:1;fill-rule:nonzero;stroke:none;stroke-width:2.14529" id="path304"/></g><g id="g1455"><path d="m 83.927336,-98.484474 -6.111869,-3.925936 7.785178,-12.11462 -4.582293,-2.94337 -7.785178,12.11032 -9.690176,-6.22571 -3.258662,5.06724 24.96663,16.046989 11.977032,-18.629949 -4.584438,-2.94767 z" style="fill:#ffffff;fill-opacity:1;fill-rule:nonzero;stroke:none;stroke-width:2.14529" id="path308"/><path d="m 90.591396,-138.78687 c 1.844931,-1.97369 4.067428,-2.98628 6.667493,-3.03777 2.630099,-0.088 4.981311,0.83882 7.017171,2.74386 2.03586,1.90934 3.11493,4.19196 3.23292,6.85215 0.15017,2.62587 -0.71437,4.91064 -2.5636,6.88219 -1.84493,1.97369 -4.06742,2.98413 -6.727556,3.04206 -2.632244,0.0215 -4.983458,-0.90104 -7.019317,-2.81037 -2.035859,-1.90719 -3.114929,-4.18981 -3.230774,-6.78564 -0.08796,-2.63017 0.778733,-4.91279 2.623663,-6.88648 m 6.695382,-8.89878 c -4.226178,0.16948 -7.836664,1.82352 -10.833604,5.02219 -2.996939,3.20511 -4.408526,6.91651 -4.331296,11.17497 0.139442,4.25631 1.795589,7.86903 4.931971,10.80382 3.166416,2.96698 6.879875,4.3786 11.136087,4.2413 4.286244,-0.17377 7.898874,-1.82781 10.895814,-5.03077 2.99694,-3.19867 4.41067,-6.91008 4.26909,-11.16854 -0.10941,-4.29063 -1.76341,-7.89906 -4.93198,-10.86604 -3.13638,-2.93694 -6.84984,-4.3507 -11.136082,-4.17693" style="fill:#ffffff;fill-opacity:1;fill-rule:nonzero;stroke:none;stroke-width:2.14529" id="path312"/><path d="m 119.7767,-164.09477 c 2.21391,-1.54892 4.59945,-2.07882 7.15017,-1.59397 2.58934,0.45695 4.696,1.84497 6.29637,4.13403 1.59822,2.28476 2.17959,4.74115 1.74624,7.36488 -0.39687,2.60227 -1.71407,4.65749 -3.92798,6.20641 -2.21177,1.54463 -4.59731,2.07881 -7.21025,1.58539 -2.58076,-0.52132 -4.68526,-1.91363 -6.28349,-4.19625 -1.59822,-2.28476 -2.18174,-4.7433 -1.75912,-7.30695 0.45694,-2.5894 1.77628,-4.64677 3.98806,-6.19354 m 8.38585,-7.32198 c -4.16611,-0.70581 -8.04047,0.16519 -11.63379,2.67951 -3.59118,2.51002 -5.73859,5.84814 -6.54307,10.03151 -0.74226,4.1941 0.13086,8.0664 2.59149,11.58687 2.48636,3.55479 5.8244,5.7044 10.01625,6.44668 4.23047,0.71654 8.10483,-0.1566 11.69815,-2.66663 3.58903,-2.51217 5.73859,-5.85457 6.48085,-10.04653 0.77874,-4.2177 -0.0944,-8.09 -2.58075,-11.64694 -2.46063,-3.52046 -5.79866,-5.67007 -10.02913,-6.38447" style="fill:#ffffff;fill-opacity:1;fill-rule:nonzero;stroke:none;stroke-width:2.14529" id="path316"/><path d="m 167.92166,-168.39592 -8.95864,4.15119 -10.18144,-21.9745 -5.464,2.53362 10.18359,21.97236 -8.9565,4.15119 2.289,4.94282 23.37699,-10.83601 z" style="fill:#ffffff;fill-opacity:1;fill-rule:nonzero;stroke:none;stroke-width:2.14529" id="path320"/><path d="m 177.11864,-170.75491 -1.91144,-7.00447 7.25959,-1.98013 c 2.34907,-0.64145 4.23905,0.40117 4.84616,2.62158 0.52345,1.92435 -0.62856,3.75216 -2.55072,4.27562 z m -5.10574,-18.70504 7.6865,-2.09812 c 2.56145,-0.69723 4.3034,0.2939 4.8955,2.47355 0.59638,2.1775 -0.52559,3.94953 -2.74595,4.55666 l -7.90102,2.15604 z m 15.1885,6.22571 c 2.51211,-1.05549 4.21545,-4.22628 3.17929,-8.02778 -1.3172,-4.82482 -5.24304,-7.10315 -11.39352,-5.42551 l -14.13303,3.85943 7.80878,28.61212 14.09226,-3.84656 c 5.12505,-1.39875 7.59211,-5.47056 6.28778,-10.25033 -0.45479,-1.66692 -1.24425,-2.87259 -2.43273,-3.69639 -1.18848,-0.82166 -2.289,-1.16276 -3.36164,-1.0555 z" style="fill:#ffffff;fill-opacity:1;fill-rule:nonzero;stroke:none;stroke-width:2.14529" id="path324"/><path d="m 214.91011,-190.50708 -3.35734,10.91967 -5.24733,-10.16881 z m 10.2694,-12.72389 -6.483,0.56422 -2.01012,6.53464 -13.06039,1.13916 -3.15354,-6.08198 -6.48515,0.56637 15.37514,28.44693 5.60344,-0.49128 z" style="fill:#ffffff;fill-opacity:1;fill-rule:nonzero;stroke:none;stroke-width:2.14529" id="path328"/><path d="m 252.70587,-195.5769 0.44836,-5.42766 -21.26604,-1.75916 -2.44346,29.5625 6.00031,0.49771 1.9951,-24.13484 z" style="fill:#ffffff;fill-opacity:1;fill-rule:nonzero;stroke:none;stroke-width:2.14529" id="path332"/><path d="m 280.47701,-189.36727 1.27214,-5.2968 -20.74474,-4.98143 -6.92707,28.83738 5.85444,1.40733 5.65492,-23.54488 z" style="fill:#ffffff;fill-opacity:1;fill-rule:nonzero;stroke:none;stroke-width:2.14529" id="path336"/><path d="m 314.82447,-166.85408 5.7579,1.56608 c 1.0426,-3.63846 0.86025,-7.00446 -0.61355,-10.083 -1.4738,-3.07209 -3.79927,-5.44053 -7.07938,-7.09671 -3.91512,-1.97799 -7.87314,-2.2912 -11.89981,-1.00187 -4.02452,1.28934 -7.02789,3.89376 -9.00369,7.80896 -1.95648,3.87016 -2.26969,7.83042 -0.92032,11.83573 1.33007,4.04607 3.93443,7.04737 7.8474,9.02536 3.2415,1.63902 6.50445,2.14532 9.85536,1.50601 3.32945,-0.60069 6.09041,-2.33196 8.33651,-5.11444 l -4.47503,-4.0997 c -3.16642,3.91091 -7.32824,4.58454 -11.16183,2.64947 -2.41128,-1.22069 -4.00951,-3.06781 -4.76893,-5.58642 -0.78302,-2.47784 -0.55348,-4.9943 0.7015,-7.48287 1.25927,-2.48857 3.14711,-4.16406 5.62704,-5.04579 2.51854,-0.86242 4.95342,-0.67363 7.32394,0.52346 3.91297,1.97798 5.76219,5.68938 4.47289,10.59573" style="fill:#ffffff;fill-opacity:1;fill-rule:nonzero;stroke:none;stroke-width:2.14529" id="path340"/><path d="m 346.63043,-153.07706 3.27368,-4.3507 -17.04845,-12.8333 -17.83361,23.69934 4.80969,3.6213 14.56208,-19.34864 z" style="fill:#ffffff;fill-opacity:1;fill-rule:nonzero;stroke:none;stroke-width:2.14529" id="path344"/><path d="m 351.9434,-113.23783 11.8998,-11.26078 c 3.02268,-2.86401 4.67883,-6.01333 4.92983,-9.48232 0.25099,-3.46898 -0.91603,-6.57325 -3.56329,-9.37075 -2.70948,-2.86186 -5.80295,-4.26275 -9.31261,-4.23486 -3.50966,0.03 -6.77476,1.47383 -9.79959,4.33355 l -11.89765,11.26292 4.13607,4.37431 11.90195,-11.26293 c 3.60191,-3.40677 7.8667,-3.60414 10.78855,-0.51488 2.77169,2.92622 2.28042,7.10959 -1.32363,10.52065 l -11.89765,11.26078 z" style="fill:#ffffff;fill-opacity:1;fill-rule:nonzero;stroke:none;stroke-width:2.14529" id="path348"/><path d="m 378.57905,-117.86357 4.35489,6.67623 c 1.45235,2.2247 1.03831,4.18552 -0.85167,5.42122 -1.89213,1.23571 -3.92584,0.7101 -5.18511,-1.22068 l -4.47289,-6.86288 z m -16.24612,10.59358 6.08398,-3.96669 4.11248,6.30724 c 1.33007,2.03805 0.91388,4.15977 -1.01471,5.419075 -1.66687,1.089822 -3.76495,0.551347 -4.8526,-1.117715 z m 14.97397,5.77949 c 1.77199,2.068093 5.31812,2.718124 8.61969,0.56637 4.18971,-2.73314 5.15508,-7.16966 1.67331,-12.5115 l -8.00614,-12.27766 -24.85508,16.20788 7.98255,12.239048 c 2.90469,4.451538 7.53632,5.554232 11.68956,2.846839 1.44806,-0.94394 2.35551,-2.063797 2.77598,-3.449673 0.42047,-1.381586 0.40545,-2.535764 -0.0258,-3.524764 z" style="fill:#ffffff;fill-opacity:1;fill-rule:nonzero;stroke:none;stroke-width:2.14529" id="path352"/></g></g><g id="g1818" transform="translate(-375.00481)"><path style="fill:#dab072;fill-opacity:1;fill-rule:nonzero;stroke:none;stroke-width:2.14529" d="m 600.00534,103.33772 c -42.457,0 -97.00473,-6.015477 -97.00473,-6.015477 V -75.360936 c -0.17377,-47.510244 75.16804,-24.216363 97.00473,-64.546224 21.83454,40.329861 97.01331,17.03598 97.00258,64.546224 V 97.322243 c 0,0 -50.10488,6.015477 -97.00258,6.015477" id="path1764"/><path style="fill:#695188;fill-opacity:1;fill-rule:nonzero;stroke:none;stroke-width:2.14529" d="M 690.57252,22.227489 H 509.43681 v 69.29381 c 15.06622,1.510305 56.9204,5.380461 90.56893,5.380461 36.86214,0 76.19348,-3.803651 90.56678,-5.337554 z" id="path166"/><path style="fill:#de003c;fill-opacity:1;fill-rule:nonzero;stroke:none;stroke-width:2.14529" d="m 690.57204,-75.363082 c 0.004,-19.477353 -14.52561,-23.830205 -40.20447,-29.843538 -16.42632,-3.8487 -34.56027,-8.12432 -47.14227,-20.08233 l 0.0172,29.817792 c -2.11309,-0.418338 -4.30127,-0.463389 -6.43581,-0.107266 l -0.0172,-29.719106 c -12.59058,11.96444 -30.74813,16.24007 -47.19375,20.08877 -25.69388,6.011182 -40.23021,10.361889 -40.15942,29.847824 v 91.152468 h 87.4304 l -0.0408,-76.002224 c 2.13454,0.353978 4.32057,0.341106 6.4358,-0.07723 l 0.0408,76.079455 87.26951,-3.5e-5 z" id="path1762" sodipodi:nodetypes="ccccccccccccccc"/><path d="m 580.67536,-51.071632 c 0,0.512731 0.35182,0.928923 0.78731,0.926778 0.43549,0 0.78517,-0.411902 0.78517,-0.926778 v -2.091686 h -1.57248 z m -0.66074,-2.091686 h -1.57463 v 2.091686 c 0,0.512731 0.35182,0.928923 0.78731,0.926778 0.43549,0 0.78732,-0.411902 0.78732,-0.926778 z m -1.91144,20.640116 c 0,1.034044 0.88385,2.267602 1.98223,2.265457 1.09623,0 1.94147,-1.27432 1.94147,-2.310509 l 0.0408,-3.769326 h -3.96446 z m -0.32608,-20.640116 h -1.57033 v 2.091686 c 0,0.512731 0.34967,0.928923 0.78516,0.926778 0.43549,0 0.78517,-0.411902 0.78517,-0.926778 z m -2.23322,0 h -1.57248 v 2.091686 c 0,0.512731 0.34967,0.928923 0.78516,0.926778 0.43549,0 0.78732,-0.411902 0.78732,-0.926778 z m -6.04966,16.825738 v 3.814378 c 0,1.034044 0.88385,2.267602 1.98223,2.265457 1.09838,0 1.93932,-1.27432 1.93932,-2.310509 l 0.0429,-3.769326 z m 3.81429,-16.825738 h -1.57248 v 2.091686 c 0,0.512731 0.34968,0.928923 0.78517,0.926778 0.43548,0 0.78731,-0.411902 0.78731,-0.926778 z m -2.23537,0 h -1.57248 v 2.091686 c 0,0.512731 0.34968,0.928923 0.78517,0.926778 0.43549,0 0.78731,-0.411902 0.78731,-0.926778 z m -2.23537,0 h -1.57248 v 2.091686 c 0,0.512731 0.34968,0.928923 0.78517,0.926778 0.43549,0 0.78731,-0.411902 0.78731,-0.926778 z m -2.23537,0 h -1.57248 v 2.091686 c 0,0.512731 0.34968,0.928923 0.78517,0.926778 0.43549,0 0.78731,-0.411902 0.78731,-0.926778 z m -2.23537,0 h -1.57248 v 2.091686 c 0,0.512731 0.34968,0.928923 0.78517,0.926778 0.43549,0 0.78731,-0.411902 0.78731,-0.926778 z m -2.23537,0 h -1.57248 v 2.091686 c 0,0.512731 0.34968,0.928923 0.78517,0.926778 0.43549,0 0.78731,-0.411902 0.78731,-0.926778 z m -2.23537,0 h -1.57248 v 2.091686 c 0,0.512731 0.35182,0.928923 0.78731,0.926778 0.43549,0 0.78517,-0.411902 0.78517,-0.926778 z m -2.23537,0 h -1.57248 v 2.091686 c 0,0.512731 0.35183,0.928923 0.78732,0.926778 0.43548,0 0.78516,-0.411902 0.78516,-0.926778 z m 1.70764,14.223466 h -2.76096 v 9.051102 h 2.76096 z m -3.56973,22.165438 c 0,1.036189 0.88385,2.269748 1.98223,2.267602 1.09838,0 1.93932,-1.274319 1.93932,-2.310508 l 0.0429,-3.769326 h -3.96446 z m -0.37328,-36.388904 h -1.57248 v 2.091686 c 0,0.512731 0.35183,0.928923 0.78732,0.926778 0.43549,0 0.78516,-0.411902 0.78516,-0.926778 z m -2.23537,0 h -1.57248 v 2.091686 c 0,0.512731 0.35183,0.928923 0.78732,0.926778 0.43549,0 0.78516,-0.411902 0.78516,-0.926778 z m -6.0282,32.576672 v 3.812232 c 0,1.036189 0.88385,2.269748 1.98437,2.267602 1.09624,0 1.93933,-1.274319 1.93933,-2.310508 l 0.0429,-3.769326 z m 3.79284,-32.576672 h -1.57249 v 2.091686 c 0,0.512731 0.35183,0.928923 0.78732,0.926778 0.43549,0 0.78517,-0.411902 0.78517,-0.926778 z m -3.73706,23.173738 h 2.75881 v -9.051102 h -2.75881 z m 1.50169,-23.173738 h -1.57249 v 2.091686 c 0,0.512731 0.35183,0.928923 0.78732,0.926778 0.43549,0 0.78517,-0.411902 0.78517,-0.926778 z m -2.23537,0 h -1.57249 v 2.091686 c 0,0.512731 0.35183,0.928923 0.78732,0.926778 0.43549,0 0.78517,-0.411902 0.78517,-0.926778 z m -2.23323,0 h -1.57248 v 2.091686 c 0,0.512731 0.34968,0.928923 0.78517,0.926778 0.43549,0 0.78731,-0.411902 0.78731,-0.926778 z m -2.23537,0 h -1.57462 v 2.091686 c 0,0.512731 0.35182,0.928923 0.78731,0.926778 0.43549,0 0.78731,-0.411902 0.78731,-0.926778 z m -2.23322,0 h -1.57463 v 2.091686 c 0,0.512731 0.34968,0.928923 0.78517,0.926778 0.43549,0 0.78946,-0.411902 0.78946,-0.926778 z m -5.85015,16.825738 v 3.814378 c 0,1.034044 0.88385,2.267602 1.98223,2.265457 1.09623,0 1.93932,-1.27432 1.93932,-2.310509 l 0.0429,-3.769326 z m 3.61478,-16.825738 h -1.57463 v 2.091686 c 0,0.512731 0.34968,0.928923 0.78517,0.926778 0.43549,0 0.78946,-0.411902 0.78946,-0.926778 z m -2.23537,0 h -1.57463 v 2.091686 c 0,0.512731 0.34968,0.928923 0.78517,0.926778 0.43549,0 0.78946,-0.411902 0.78946,-0.926778 z m -2.23537,0 h -1.57463 v 2.091686 c 0,0.512731 0.34968,0.928923 0.78517,0.926778 0.43549,0 0.78946,-0.411902 0.78946,-0.926778 z m -2.23537,0 h -1.57463 v 2.091686 c 0,0.512731 0.34968,0.928923 0.78517,0.926778 0.43549,0 0.78946,-0.411902 0.78946,-0.926778 z m -2.23537,0 h -1.57462 v 2.091686 c 0,0.512731 0.34967,0.928923 0.78516,0.926778 0.43549,0 0.78946,-0.411902 0.78946,-0.926778 z m -2.23537,0 h -1.57462 v 2.091686 c 0,0.512731 0.34967,0.928923 0.78731,0.926778 0.43549,0 0.78731,-0.411902 0.78731,-0.926778 z m -1.04903,20.640116 c 0,1.034044 0.88385,2.267602 1.98222,2.265457 1.10053,0 1.94147,-1.27432 1.94147,-2.310509 l 0.0429,-3.769326 h -3.9666 z m -1.18634,-20.640116 h -1.57462 v 2.091686 c 0,0.512731 0.34968,0.928923 0.78517,0.926778 0.43763,0 0.78945,-0.411902 0.78945,-0.926778 z m 58.77606,2.091686 c 0,0.512731 0.35182,0.928923 0.78731,0.926778 0.43549,0 0.78517,-0.411902 0.78517,-0.926778 v -2.091686 h -1.57248 z m -0.59853,-22.495817 c 0.53417,2.190371 1.52528,4.258458 2.84462,6.096997 V -28.794638 -18.156 h -2.70732 v -6.079834 h -2.70733 V -18.156 h -2.70519 v -6.079834 H 574.3318 V -18.156 h -2.70733 v -6.079834 h -2.70518 V -18.156 h -2.70733 v -10.638638 -15.231766 h -2.70733 v 34.9021983 0.1330098 10.5485345 h -2.25467 v -7.6287551 h -2.25468 v 7.6287551 h -2.25468 v -7.6287551 h -2.25682 v 7.6287551 h -2.25468 v -7.6287551 h -2.25682 v 7.6287551 h -2.25253 v -7.6287551 h -2.25682 v 7.6287551 h -2.25468 V -8.9911959 -9.1242057 -44.026404 h -2.70733 v 15.206023 0.02574 10.638638 h -2.70518 v -6.094851 h -2.70733 V -18.156 h -2.70733 v -6.094851 h -2.70303 V -18.156 h -2.70733 v -6.094851 h -2.70733 V -18.156 h -2.70733 v -60.905612 h 24.15143 0.57922 l -0.0257,13.657102 c 0,1.81065 0.81306,4.013892 2.11952,5.753746 1.44806,1.920061 3.22005,2.979849 4.9899,2.979849 h 0.002 c 3.98377,0 6.9807,-5.296793 6.9807,-8.733595 v -13.657102 h 0.57923 20.90992 c -0.12657,1.834248 0.0193,3.692095 0.46982,5.494163" style="fill:#ffffff;fill-opacity:1;fill-rule:nonzero;stroke:none;stroke-width:2.14529" id="path170"/><g id="g1549" transform="translate(374.99977)"><path d="m 254.30946,-39.496348 h -14.40977 v 0.594254 h 14.40977 z" style="fill:#ffffff;fill-opacity:1;fill-rule:nonzero;stroke:none;stroke-width:2.14529" id="path172"/><path d="m 303.35844,-38.901665 v -0.594254 h -14.40977 v 0.594254" style="fill:#ffffff;fill-opacity:1;fill-rule:nonzero;stroke:none;stroke-width:2.14529" id="path176"/><path d="m 303.35844,-38.307626 h -14.40977 l 7.20381,19.127666 z" style="fill:#ffffff;fill-opacity:1;fill-rule:nonzero;stroke:none;stroke-width:2.14529" id="path180"/><path d="m 297.0904,-18.243529 c 0,-0.517022 -0.41833,-0.937504 -0.93749,-0.937504 -0.51701,0 -0.93533,0.420482 -0.93533,0.937504 0,0.517022 0.41832,0.937505 0.93533,0.937505 0.51916,0 0.93749,-0.420483 0.93749,-0.937505" style="fill:#ffffff;fill-opacity:1;fill-rule:nonzero;stroke:none;stroke-width:2.14529" id="path184"/><path d="m 272.56633,5.3350312 c 0,-0.517022 -0.42047,-0.9375045 -0.93748,-0.9375045 -0.51915,0 -0.93748,0.4204825 -0.93748,0.9375045 0,0.5170219 0.41833,0.9375045 0.93748,0.9375045 0.51701,0 0.93748,-0.4204826 0.93748,-0.9375045" style="fill:#ffffff;fill-opacity:1;fill-rule:nonzero;stroke:none;stroke-width:2.14529" id="path188"/><path d="m 281.4973,-9.0587735 -19.63993,0.042906 9.76955,13.414681 z" style="fill:#ffffff;fill-opacity:1;fill-rule:nonzero;stroke:none;stroke-width:2.14529" id="path192"/><path d="m 280.17753,-44.570886 h -2.78027 v 6.781354 c 0,0.982556 0.58137,1.77847 1.29575,1.77847 h 0.18878 c 0.71652,0 1.29574,-0.795914 1.29574,-1.77847 z m -4.05885,0 h -3.81857 v 6.781354 c 0,0.982556 0.79589,1.77847 1.77842,1.77847 h 0.26173 c 0.98253,0 1.77842,-0.795914 1.77842,-1.77847 z m -5.09715,0 h -3.81858 v 6.781354 c 0,0.982556 0.79589,1.77847 1.77843,1.77847 h 0.26172 c 0.98253,0 1.77843,-0.795914 1.77843,-1.77847 z m -5.09931,0 h -2.81673 v 6.781354 c 0,0.982556 0.5878,1.77847 1.3129,1.77847 h 0.19308 c 0.7251,0 1.31075,-0.795914 1.31075,-1.77847 z m -4.09746,9.814835 v -11.069847 l 19.64637,0.0021 v 11.02694 z" style="fill:#ffffff;fill-opacity:1;fill-rule:nonzero;stroke:none;stroke-width:2.14529" id="path196"/><path d="m 269.61659,9.2172008 h 1.61753 l -0.009,-3.8830278 h 0.80877 l 0.009,3.8830278 h 1.61753 l 0.004,0.9718292 h -1.61968 l 0.006,1.939369 h -0.80877 l -0.006,-1.939369 h -1.61753 z" style="fill:#ffffff;fill-opacity:1;fill-rule:evenodd;stroke:none;stroke-width:2.14529" id="path200"/><path d="m 294.59738,-14.314376 h 1.24425 l -0.006,-2.98843 h 0.62213 l 0.006,2.98843 h 1.2464 v 0.746571 h -1.24425 l 0.004,1.493142 h -0.62213 l -0.004,-1.493142 h -1.24426 z" style="fill:#ffffff;fill-opacity:1;fill-rule:evenodd;stroke:none;stroke-width:2.14529" id="path204"/><path d="m 254.3086,-38.307626 h -14.40976 l 7.20166,19.127666 z" style="fill:#ffffff;fill-opacity:1;fill-rule:nonzero;stroke:none;stroke-width:2.14529" id="path208"/><path d="m 248.04034,-18.243529 c 0,-0.517022 -0.41832,-0.937504 -0.93748,-0.937504 -0.51701,0 -0.93534,0.420482 -0.93534,0.937504 0,0.517022 0.41833,0.937505 0.93534,0.937505 0.51916,0 0.93748,-0.420483 0.93748,-0.937505" style="fill:#ffffff;fill-opacity:1;fill-rule:nonzero;stroke:none;stroke-width:2.14529" id="path212"/><path d="m 245.54733,-14.314376 h 1.24425 l -0.009,-2.98843 h 0.62427 l 0.006,2.98843 h 1.24426 l 0.002,0.746571 h -1.24425 l 0.004,1.493142 h -0.62428 l -0.002,-1.493142 h -1.2464 z" style="fill:#ffffff;fill-opacity:1;fill-rule:evenodd;stroke:none;stroke-width:2.14529" id="path216"/><path d="m 280.20478,-32.804025 h -2.78027 v 4.279912 l 1.39228,4.279912 1.38799,-4.279912 z m -4.061,0 h -3.81643 v 4.279912 l 1.90929,4.279912 1.90714,-4.279912 z m -5.09715,0 h -3.81644 v 4.279912 l 1.90929,4.279912 1.90715,-4.279912 z m -5.09716,0 h -2.81674 v 4.279912 l 1.40944,4.279912 1.4073,-4.279912 z m -4.09746,9.960717 v -11.320849 l 19.64636,-0.04076 v 11.320849 z" style="fill:#ffffff;fill-opacity:1;fill-rule:nonzero;stroke:none;stroke-width:2.14529" id="path220"/><path d="m 280.20478,-20.845586 h -2.78027 v 4.279912 l 1.39228,4.279911 1.38799,-4.279911 z m -4.061,0 h -3.81643 v 4.279912 l 1.90929,4.279911 1.90714,-4.279911 z m -5.09715,0 h -3.81644 v 4.279912 l 1.90929,4.279911 1.90715,-4.279911 z m -5.09716,0 h -2.81674 v 4.279912 l 1.40944,4.279911 1.4073,-4.279911 z m -4.09746,9.960717 v -11.32085 l 19.64636,-0.04076 v 11.32085 z" style="fill:#ffffff;fill-opacity:1;fill-rule:nonzero;stroke:none;stroke-width:2.14529" id="path224"/><path d="m 261.85265,-9.6538851 h 19.64422 V -10.2889 h -19.64422" style="fill:#ffffff;fill-opacity:1;fill-rule:nonzero;stroke:none;stroke-width:2.14529" id="path228"/><path d="m 302.01765,-60.706904 h -2.79743 v 1.398748 c 0,0.77446 0.62642,1.400893 1.39871,1.400893 0.7723,0 1.39872,-0.626433 1.39872,-1.400893 z m -4.14037,0 h -2.79743 v 1.398748 c 0,0.77446 0.62642,1.400893 1.39872,1.400893 0.77229,0 1.39871,-0.626433 1.39871,-1.400893 z m -4.14037,0 h -2.79957 v 1.398748 c 0,0.77446 0.62642,1.400893 1.39871,1.400893 0.77444,0 1.40086,-0.626433 1.40086,-1.400893 z m -4.14251,0 h -2.79743 v 1.398748 c 0,0.77446 0.62642,1.400893 1.39872,1.400893 0.77229,0 1.39871,-0.626433 1.39871,-1.400893 z m -4.14251,0 h -2.79529 v 1.398748 c 0,0.77446 0.62642,1.400893 1.39872,1.400893 0.77015,0 1.39657,-0.626433 1.39657,-1.400893 z m -4.13822,0 h -2.79958 v 1.398748 c 0,0.77446 0.62642,1.400893 1.39872,1.400893 0.77444,0 1.40086,-0.626433 1.40086,-1.400893 z m -3.88938,6.092706 v 5.015757 c 0,0.982556 0.58137,1.778469 1.29575,1.778469 h 0.19092 c 0.71438,0 1.2936,-0.795913 1.2936,-1.778469 v -5.015757 z m -0.25314,-6.092706 h -2.79957 v 1.398748 c 0,0.77446 0.62642,1.400893 1.40086,1.400893 0.77229,0 1.39871,-0.626433 1.39871,-1.400893 z m -4.14251,0 h -2.79528 v 1.398748 c 0,0.77446 0.62641,1.400893 1.39657,1.400893 0.77229,0 1.39871,-0.626433 1.39871,-1.400893 z m -4.14037,0 h -2.79743 v 1.398748 c 0,0.77446 0.62642,1.400893 1.39872,1.400893 0.77444,0 1.39871,-0.626433 1.39871,-1.400893 z m -2.93687,6.092706 h -2.81888 v 5.015757 c 0,0.982556 0.5878,1.778469 1.3129,1.778469 h 0.19308 c 0.7251,0 1.3129,-0.795913 1.3129,-1.778469 z m -1.20349,-6.092706 h -2.79958 v 1.398748 c 0,0.77446 0.62642,1.400893 1.40086,1.400893 0.7723,0 1.39872,-0.626433 1.39872,-1.400893 z m 2.48207,11.108463 c 0,0.982556 0.79589,1.778469 1.77843,1.778469 h 0.26172 c 0.98253,0 1.77843,-0.795913 1.77843,-1.778469 v -5.015757 h -0.002 -3.81643 z m 5.09716,0 c 0,0.982556 0.79589,1.778469 1.77842,1.778469 h 0.26173 c 0.98038,0 1.77628,-0.795913 1.77628,-1.778469 v -5.015757 h -3.81643 z m -11.72175,-11.108463 h -2.79528 v 1.398748 c 0,0.77446 0.62427,1.400893 1.39657,1.400893 0.77229,0 1.39871,-0.626433 1.39871,-1.400893 z m -4.14036,0 h -2.79743 v 1.398748 c 0,0.77446 0.62641,1.400893 1.39871,1.400893 0.7723,0 1.39872,-0.626433 1.39872,-1.400893 z m -4.14037,0 h -2.79958 v 1.398748 c 0,0.77446 0.62642,1.400893 1.40086,1.400893 0.7723,0 1.39872,-0.626433 1.39872,-1.400893 z m -4.14251,0 h -2.79743 v 1.398748 c 0,0.77446 0.62641,1.400893 1.39871,1.400893 0.7723,0 1.39872,-0.626433 1.39872,-1.400893 z m -4.14037,0 h -2.79743 v 1.398748 c 0,0.77446 0.62642,1.400893 1.39657,1.400893 0.77444,0 1.40086,-0.626433 1.40086,-1.400893 z m 44.90689,20.614372 v 0 l -0.015,-14.521666 h -7.4355 v 8.192974 H 261.8518 l 0.004,-8.192974 h -7.5449 -0.002 v 14.521666 h -14.40977 v -28.208802 c 0.23169,-0.36685 0.46767,-0.733699 0.66933,-1.117712 1.51885,-2.797496 2.20319,-5.979004 2.09164,-9.104734 h 13.75974 v 9.420096 c 0,2.664487 1.79774,5.133749 4.4214,5.605719 3.4453,0.622143 6.44653,-2.005873 6.44653,-5.339699 v -9.686116 h 8.9565 0.002 v 9.686116 c 0,2.999156 2.43274,5.431948 5.43397,5.431948 2.99908,0 5.43181,-2.432792 5.43181,-5.431948 v -9.686116 h 16.24612 v 38.431248 z" style="fill:#ffffff;fill-opacity:1;fill-rule:nonzero;stroke:none;stroke-width:2.14529" id="path232"/></g><path d="m 615.56939,-69.417973 c -0.2038,0.384012 -0.43763,0.750862 -0.66932,1.117711 -2.29115,3.608427 -5.91236,6.427377 -10.10636,7.643773 -0.50628,0.150172 -1.01686,0.266019 -1.53172,0.368995 -2.11524,0.418337 -4.30126,0.431209 -6.43581,0.07723 -2.11094,-0.351832 -4.16611,-1.046916 -6.02391,-2.11743 -2.23108,-1.280756 -4.15109,-3.06137 -5.64634,-5.14233 -1.31934,-1.838539 -2.31046,-3.906626 -2.84463,-6.099143 -0.45051,-1.799922 -0.59424,-3.659914 -0.46981,-5.492017 0.19736,-2.915489 1.08979,-5.773054 2.60221,-8.227299 2.4456,-4.028909 6.50445,-6.935817 10.97519,-8.014912 0.45909,-0.113702 0.92246,-0.19737 1.38799,-0.274601 v 0.246711 c -0.43978,0.09225 -0.87742,0.186643 -1.30862,0.315362 -4.35275,1.272175 -8.05119,4.354998 -10.12781,8.259479 -1.28501,2.377014 -1.93503,5.0415 -1.9715,7.69526 -0.0236,1.701238 0.20166,3.396041 0.68863,5.013611 0.27245,0.931069 0.63929,1.832103 1.06835,2.700957 1.47809,2.98843 3.82072,5.526342 6.71468,7.15893 1.53387,0.894598 3.21576,1.51245 4.95557,1.872864 2.1088,0.4355 4.30127,0.465534 6.43581,0.08152 0.34968,-0.0665 0.7015,-0.122283 1.04689,-0.208096 4.20258,-1.012591 8.01687,-3.726419 10.32517,-7.512908 0.0965,-0.154463 0.17592,-0.319652 0.26602,-0.480551 1.39657,-2.437083 2.16457,-5.241015 2.22464,-8.087854 0.0279,-1.454526 -0.10726,-2.913343 -0.45909,-4.337835 -1.07049,-4.40434 -4.0331,-8.317403 -7.99327,-10.591441 3.97519,2.246149 7.00001,6.094852 8.28288,10.512064 0.42906,1.426637 0.65002,2.917634 0.7058,4.417212 0.10941,3.12573 -0.57279,6.305093 -2.09164,9.104735" style="fill:#dab072;fill-opacity:1;fill-rule:nonzero;stroke:none;stroke-width:2.14529" id="path236"/><path d="m 590.64528,-100.88337 c -0.0601,-0.004 -0.13944,-0.0172 -0.24242,-0.0451 h -0.0536 c 0.18878,-0.39259 0.71867,0.0708 0.29605,0.0451 m 0.46338,0.006 c -0.0515,0.002 -0.1137,-0.009 -0.18021,-0.0386 0.35183,-0.0644 0.32608,0.0343 0.18021,0.0386 m 3.0806,0.10941 c -0.14802,0 -0.31964,-0.0215 -0.51272,-0.0708 -0.81735,-0.0236 -1.63684,-0.0472 -2.45204,-0.0708 0.50414,-0.95896 -0.17377,-1.2872 -0.0794,-1.56394 0.37327,0.0515 0.65859,-0.004 0.82807,-0.11585 -0.004,0.0172 -0.006,0.0408 -0.006,0.0515 -0.006,0.15875 0.0686,0.31965 0.21024,0.33467 0.15017,0.015 0.27459,-0.28962 0.27674,-0.32823 0.006,-0.15876 -0.10083,-0.40976 -0.30248,-0.46768 -0.009,0.0129 -0.0172,0.03 -0.0257,0.0451 -0.0687,-0.19737 -0.3368,-0.40976 -0.86454,-0.56637 0.55562,-1.72054 1.05333,-3.48614 0.79375,-5.35042 0.55562,-1.22284 -2.28471,-2.8876 -1.15845,-3.26303 0.63286,1.31722 0.23169,-1.1928 1.70978,-0.4119 1.61324,-0.12229 0.57708,1.70552 1.87926,2.04019 0.28317,2.22041 -0.77444,4.47943 -0.0965,6.60973 0.74441,0.98256 1.24426,3.12359 -0.19951,3.12788 m 9.53357,0.832381 c -0.18878,-0.255291 -0.42262,-0.437641 -0.78302,-0.351831 l -0.1137,-0.0515 c 0.16089,-0.0622 0.28532,-0.16733 0.3647,-0.15875 0.11799,0.0107 0.62641,0.21453 0.61569,0.49128 -0.004,0.07937 -0.0429,0.03647 -0.0837,0.07079 m 10.06989,0.819512 c -0.48269,-0.448371 1.41159,-1.538192 -0.43549,-1.152032 -0.5213,-0.59855 0.19307,-1.93079 -0.19307,-2.93051 0.19307,-2.39632 -0.84953,-5.00717 -2.92186,-6.63976 -0.55991,-1.04692 1.13699,0.68865 0.58137,-0.57709 1.50812,-0.72727 2.31903,1.01044 2.90469,1.87286 -0.0922,2.47784 1.48667,4.69181 2.95618,6.72129 -0.87741,0.45266 -0.59853,2.010159 -2.31474,1.4631 0.86669,0.759445 0.67147,0.982559 -0.57708,1.242142 m -0.25743,0.635015 c -0.86454,-0.491278 -2.56574,-1.111276 -0.62213,-0.744426 -0.0987,0.27031 1.5403,0.759443 0.62213,0.744426 m -12.4683,0.231694 c 0.24242,0.0236 0.59853,-0.456953 0.60497,-0.615706 0.006,-0.195224 -0.10727,-0.36685 -0.27674,-0.384013 -0.36684,-0.03647 -0.69293,0.332525 -0.70365,0.645742 -0.0107,0.23813 0.31321,0.349687 0.37542,0.353977 m 17.94946,0.107266 c 0.0794,0.0086 0.23812,-0.01502 0.31964,-0.08796 0.0451,-0.07509 0.0858,-0.188788 0.12872,-0.263874 0.004,-0.07723 0.16089,-0.107266 0.24456,-0.216677 0.0386,-0.03647 0.0923,-0.145882 0.0965,-0.225259 0.006,-0.197369 -0.2746,-0.304635 -0.35397,-0.313217 -0.0772,-0.0064 -0.24027,0.01931 -0.28103,0.09654 -0.16733,0.220968 -0.42048,0.632869 -0.42262,0.712246 -0.004,0.07723 0.0708,0.281037 0.26816,0.298199 m 0.80876,0.675776 c 0.0794,0.0064 0.27889,-0.214532 0.40331,-0.321798 0,0 0.0494,-0.07509 0.0494,-0.154463 0.004,-0.07723 -0.0751,-0.203805 -0.15232,-0.212387 -0.19951,-0.01716 -0.56849,0.377576 -0.57064,0.418338 -0.004,0.117992 0.18878,0.261728 0.2703,0.27031 m -17.20505,0.467679 c 0.23598,0.02145 0.35826,-0.195224 0.3647,-0.353977 0.006,-0.156609 -0.03,-0.205951 -0.14588,-0.216678 -0.0815,-0.0086 -0.16733,0.06436 -0.2467,0.05578 -0.0772,-0.0064 -0.61784,-0.375431 -0.69722,-0.381867 -0.19736,-0.01931 -0.23812,0.05363 -0.24241,0.171625 -0.006,0.117993 0.133,0.643596 0.37113,0.667195 0.0794,0.0064 0.24027,-0.05149 0.31964,-0.04505 0.0794,0.0086 0.19737,0.09439 0.27674,0.102975 m 0.98683,0.09439 c 0.27674,0.02789 0.60496,-0.37114 0.61569,-0.60927 0.009,-0.235985 -0.30248,-0.384012 -0.3411,-0.388303 -0.0772,-0.0086 -0.20165,0.05792 -0.28103,0.04934 -0.0794,-0.0064 -0.34968,-0.190933 -0.42905,-0.199514 -0.23598,-0.02145 -0.19951,0.180206 -0.19951,0.180206 -0.009,0.19737 0.0622,0.246712 0.33251,0.429064 0.15446,0.135155 0.0279,0.278892 0.10298,0.405466 0.0365,0.08152 0.12013,0.126573 0.19951,0.133009 m 2.673,1.724837 c 0.19737,0.01931 0.21024,-0.293909 0.21238,-0.332524 0.0193,-0.551347 -0.46337,-0.323944 -0.51915,-0.924633 -0.0386,-0.04076 -0.12014,-0.08796 -0.19951,-0.09654 -0.27674,-0.0236 -0.32608,0.289618 -0.32823,0.330379 -0.002,0.07723 0.0279,0.235985 0.0665,0.317507 0.11155,0.130864 0.2703,0.225259 0.38185,0.353978 0.0772,0.08581 0.15017,0.214532 0.22526,0.30249 0,0.03647 0.0815,0.04076 0.16089,0.04934 m -4.58444,0.02574 c 0.12872,-0.0043 0.21453,-0.04934 0.21882,-0.16519 0.004,-0.07938 -0.0665,-0.248857 -0.0622,-0.328234 0.002,-0.07938 0.28961,-0.364704 0.29175,-0.441935 0.004,-0.07938 -0.03,-0.205951 -0.0686,-0.251003 -0.0772,-0.08581 -0.58137,-0.446226 -0.66075,-0.454807 -0.15875,-0.01502 -0.15875,0.102975 -0.16089,0.141591 -0.002,0.07938 0.15017,0.212386 0.22525,0.341105 -0.12013,0.02789 -0.24885,0.326089 -0.25529,0.523458 -0.009,0.19737 0.0558,0.60069 0.33252,0.628579 0.0472,0.0064 0.0987,0.0086 0.13944,0.0064 m 6.6868,0.967539 c 0.19737,0.01931 0.32179,-0.126574 0.32608,-0.242421 0.009,-0.19737 -0.29819,-0.463389 -0.41618,-0.474116 -0.11799,-0.01287 -0.2038,0.171626 -0.2038,0.212387 -0.004,0.07294 0.0815,0.437645 0.25529,0.497714 0.0129,0.0043 0.0257,0.0064 0.0386,0.0064 m 1.58965,0.07723 c 0.0794,0.0086 0.24027,-0.180207 0.31964,-0.210241 0.0429,-0.03647 0.15875,-0.0236 0.19951,-0.01931 0.0429,-0.03647 0.0794,-0.06865 0.0837,-0.148027 0.002,-0.07938 -0.30034,-0.388303 -0.40975,-0.596399 -0.0408,-0.0043 -0.0429,-0.04291 -0.12228,-0.05149 -0.0794,-0.0064 -0.19736,0.102975 -0.19951,0.141591 -0.009,0.197369 -0.0601,0.47197 -0.0644,0.551347 -0.002,0.07938 0.0365,0.317507 0.19308,0.332524 m -5.05854,0.379722 c 0.0794,0.0064 0.11369,-0.02574 0.11584,-0.102976 0.004,-0.07938 -0.1373,-0.332524 -0.13301,-0.409755 0.002,-0.07938 0.28961,-0.564219 0.29391,-0.641451 0.002,-0.07938 -0.0665,-0.244566 -0.10298,-0.326088 -0.0772,-0.08796 -0.45265,-0.63716 -0.57064,-0.647887 -0.19736,-0.01931 -0.24885,0.364704 -0.24885,0.364704 -0.004,0.117993 0.21882,0.461244 0.21667,0.538476 -0.002,0.07938 -0.0858,0.190933 -0.0901,0.27031 -0.006,0.156608 0.0837,0.91176 0.51916,0.954667 m 10.61049,0.825948 c 0.0794,0.0086 0.19522,-0.06221 0.23598,-0.09654 0.0794,-0.03218 0.0837,-0.107266 0.16733,-0.178061 0.0386,0.0021 0.0708,0.0064 0.15232,-0.02789 0.0429,-0.03433 0.0493,-0.07294 0.0515,-0.152318 0.004,-0.07938 0.0129,-0.197369 -0.14588,-0.212387 -0.15875,-0.01502 -0.61569,0.341106 -0.62427,0.538476 0,0.07938 0.0408,0.03862 0.0408,0.07723 0.0386,0.04291 0.0429,0.04505 0.12228,0.05149 m -9.5636,0.74228 c 0.1566,0.01502 0.21452,-0.255293 0.21667,-0.293909 0.002,-0.07723 -0.0858,-0.04934 -0.0837,-0.128719 0.002,-0.07723 0.12657,-0.150172 0.12872,-0.229549 0.006,-0.158754 -0.0665,-0.319652 -0.22525,-0.33467 -0.23598,-0.02145 -0.32608,0.246712 -0.33252,0.405466 -0.004,0.117992 0.0193,0.555637 0.29605,0.581381 m -14.14805,0.135155 c 0.30463,0.03003 0.21024,-0.33896 0.48698,-0.315362 0.0794,0.0086 0.31535,0.199515 0.39687,0.205951 0.26173,0.02574 0.41619,-0.476261 0.42262,-0.635015 0.004,-0.115847 -0.088,-0.321797 -0.17806,-0.332524 -0.20165,-0.01931 -0.39472,0.156608 -0.45694,0.27031 l -0.0815,-0.0064 c -0.28103,-0.343251 -0.18235,-0.454807 -0.46123,-0.482697 -0.26601,-0.0236 -0.41189,0.517022 -0.41833,0.675776 -0.002,0.07723 -0.0107,0.592108 0.28961,0.619997 m -0.75084,1.270029 c 0.0751,0.0021 0.15446,-0.01073 0.25529,-0.0901 0.0172,-0.115847 -0.002,-0.278892 0.0665,-0.351833 0.0708,-0.111556 0.19522,-0.259583 0.19951,-0.341105 0.004,-0.156609 -0.11155,-0.16519 -0.19951,-0.173771 -0.0837,-0.0064 -0.10726,0.03432 -0.18664,0.02789 -0.0815,-0.0086 -0.27888,-0.229549 -0.35826,-0.23813 -0.26172,-0.02574 -0.27888,0.332524 -0.45479,0.474115 -0.14159,0.06651 -0.36256,0.08152 -0.56421,0.178062 l -0.009,0.117992 c 0.0987,0.04934 0.20809,0.10083 0.28961,0.109411 0.21882,0.02145 0.29605,-0.130864 0.44192,-0.117992 0.20381,0.02145 0.0944,0.364704 0.44193,0.399029 0.0279,0.0021 0.0536,0.0064 0.0772,0.0064 m 21.81309,0.326089 c 0.0365,0 0.0644,-0.01502 0.0837,-0.03218 0.16519,-0.10083 0.29176,-0.328234 0.41833,-0.47197 0.0386,-0.03647 0.0858,-0.148027 0.0901,-0.227404 0.002,-0.07723 -0.0729,-0.16948 -0.0729,-0.248857 0.002,-0.07723 0.0922,-0.26602 0.0965,-0.384012 0.004,-0.117993 -0.14374,-0.489133 -0.26387,-0.49986 -0.23598,-0.0236 -0.40546,0.401175 -0.4076,0.480552 -0.004,0.07938 0.0923,0.594253 0.088,0.67363 -0.009,0.235985 -0.28746,0.175916 -0.30033,0.532039 -0.006,0.117993 0.0794,0.158754 0.16089,0.16519 0.0386,0.0043 0.0751,0.01502 0.10727,0.01287 m -20.79194,0.60927 c 0.20165,0.01931 0.14802,-0.343251 0.32608,-0.326088 0.0772,0.0086 0.2038,0.13301 0.28103,0.139446 0.15446,0.01502 0.32608,-0.04505 0.33251,-0.203806 0.002,-0.04076 -0.0558,-0.278891 -0.18878,-0.37114 -0.0879,-0.0086 -0.2038,0.02145 -0.28961,-0.02574 -0.0772,-0.0472 -0.15446,-0.09654 -0.23169,-0.102975 -0.25314,-0.02574 -0.47839,0.23384 -0.48697,0.429064 -0.006,0.158753 0.0236,0.437645 0.25743,0.461243 m 1.73552,0.4355 c 0.0815,0.0086 0.56206,-0.141591 0.64143,-0.13301 0.0815,0.0086 0.16948,0.05792 0.2746,0.109412 0.0429,-0.03647 0.0815,-0.0708 0.0837,-0.150173 0.009,-0.197369 -0.38829,-0.276746 -0.42905,-0.281036 -0.0837,-0.0064 -0.22311,0.01502 -0.30677,0.0064 -0.0815,-0.0086 -0.35183,-0.190933 -0.4312,-0.197369 -0.0858,-0.0086 -0.3411,0.0472 -0.34539,0.167335 -0.009,0.197369 0.34324,0.463389 0.51272,0.478406 m -0.2038,2.123866 c 0.0493,0.0043 0.0837,-0.03003 0.12657,-0.02574 0.0107,-0.04076 0.0429,0 0.0451,-0.07723 0.006,-0.156608 -0.3647,-0.311071 -0.39044,-0.351832 -0.0343,-0.0043 -0.0794,-0.12872 -0.15446,-0.173771 -0.18449,-0.05792 -0.42262,-0.04505 -0.61354,-0.141591 -0.0644,-0.0064 -0.15446,-0.12872 -0.21882,-0.135155 -0.0987,-0.04934 -0.28103,-0.113702 -0.36041,-0.122284 -0.0815,-0.0086 -0.29604,0.01502 -0.37542,0.0064 -0.21882,-0.02145 -0.25314,-0.379721 -0.5642,-0.409756 -0.26173,-0.02574 -0.43549,0.156609 -0.44407,0.353978 -0.009,0.235985 0.39472,0.90747 0.60925,0.926778 0.28103,0.02789 0.29605,-0.36685 0.28961,-0.484842 0.088,-0.03218 0.19951,-0.02145 0.28103,-0.01287 0.0965,0.0086 0.2746,0.343251 0.56421,0.37114 0.0815,0.0086 0.30463,-0.0901 0.44192,-0.07723 z m 30.59581,0.613562 c 0.35612,0.03432 0.40975,-0.392594 0.41618,-0.551348 0.002,-0.07723 -0.21667,-0.574945 -0.21238,-0.654322 0.002,-0.07723 0.0901,-0.225258 0.13515,-0.300345 0.0837,-0.109411 0.31965,-0.210241 0.40331,-0.321797 0.20595,-0.175917 0.21024,-0.257439 0.21882,-0.454808 0.009,-0.235985 -0.11155,-0.317507 -0.29604,-0.690793 -0.11585,-0.130864 -0.10512,-0.330379 -0.21882,-0.499859 l -0.1137,-0.01287 c -0.0429,0.03432 -0.16304,0.143736 -0.16733,0.223113 l -0.0193,0.429064 c -0.015,0.353978 -0.38829,0.755152 -0.39258,0.834529 -0.002,0.07723 0.15446,0.16948 0.23383,0.218823 -0.0429,0.03432 -0.0837,0.07509 -0.0837,0.113701 -0.0257,0.630724 -0.26172,0.527749 -0.27673,0.963249 -0.002,0.07938 0.0558,0.67363 0.37327,0.703665 m -31.25655,1.493142 c 0.006,-0.07723 -0.0343,-0.158754 -0.0772,-0.281037 -0.42477,-0.199515 -0.41189,-0.437645 -0.73798,-0.469825 -0.0794,-0.0064 -0.13729,0.02789 -0.21667,0.02145 -0.18664,-0.01931 -0.23812,-0.381867 -0.5449,-0.409756 -0.0837,-0.0086 -0.2231,0.09654 -0.30248,0.0901 -0.0815,-0.0086 -0.1566,-0.09654 -0.23598,-0.102976 -0.20594,-0.02145 -0.41618,0.158754 -0.42262,0.394739 -0.0129,0.358268 0.19951,0.613561 0.57494,0.647886 0.18234,0.01931 0.10511,-0.03003 0.39902,-0.120137 0.0922,-0.03003 0.19307,0.06221 0.28746,0.0708 0.10083,-0.03003 0.21024,-0.09869 0.28961,-0.0901 0.0815,0.0086 0.251,0.141591 0.37757,0.152317 0.0944,0.05149 0.28532,0.109412 0.3647,0.07723 z m -4.17255,0.493423 c -0.0429,-0.01073 -0.0794,-0.120138 -0.10941,-0.40332 -0.9525,-0.36685 0.55992,-1.205669 -0.74441,-1.10913 0.19308,-1.004009 0.96323,-1.542484 -0.62212,-1.325807 -0.81521,-1.100549 1.38584,0.390448 0.64143,-0.879581 0.87098,-1.010445 -1.33865,-3.5977 0.62856,-3.050644 0.0558,-0.722973 -0.7916,-2.177499 0.84738,-1.54892 0.43549,1.660477 -2.07018,1.967257 -0.55776,3.619153 -0.6157,0.523458 -0.13945,1.596118 0.25528,1.928642 -0.0708,0.276746 -0.0944,0.53633 -0.10297,0.551347 -0.0472,0.03647 -0.15661,0.02574 -0.21667,0.06007 -0.0708,0.03218 -0.14588,0.184497 -0.14803,0.261729 -0.015,0.356123 0.29176,0.699374 0.42906,1.147746 0.0172,0.04076 -0.0193,0.160899 0.0193,0.242421 0.0215,0.03647 0.0408,0.05792 0.0644,0.07079 -0.17805,0.05578 -0.29604,0.463389 -0.384,0.4355 m 8.32579,2.008019 c 0.15445,0.01502 0.26601,-0.09439 0.2703,-0.212387 0.006,-0.158753 -0.24885,-0.617852 -0.36684,-0.628578 -0.0815,-0.0064 -0.12443,0.02789 -0.15875,0.102975 l -0.0193,0.506295 c -0.006,0.158754 0.25529,0.22955 0.2746,0.231695 m -6.52376,0.474115 c 0.0772,0.0086 0.0643,0.01073 0.10297,-0.02574 0.14802,-0.06436 0.0901,-0.22955 0.12657,-0.345397 0.15446,-0.143736 0.50199,0.167335 0.51272,-0.148027 0.0107,-0.274601 -0.82808,-0.555638 -0.85167,-0.557783 -0.2746,-0.02789 -0.4312,0.195224 -0.43549,0.351833 -0.006,0.158753 0.2703,0.697228 0.5449,0.725117 m 5.76004,0.871 c 0.11584,0.01073 0.30892,-0.480551 0.30892,-0.480551 0.009,-0.195225 -0.0429,-0.439791 -0.20595,-0.456953 -0.0815,-0.0043 -0.12871,0.03003 -0.15875,0.0665 -0.0107,0.07723 0.015,0.120138 0,0.199515 -0.0193,0.07723 -0.0837,0.186643 -0.14373,0.261729 -0.009,0 -0.0129,-0.0021 -0.0172,0.113702 -0.002,0.07938 0.1137,0.285327 0.21667,0.296054 m -5.54981,1.486706 c 0.13086,0.01287 0.17162,-0.139446 0.17162,-0.139446 0.004,-0.120137 -0.0601,-0.171625 -0.0558,-0.251002 0.006,-0.156608 0.32393,-0.124428 0.33251,-0.321798 0.002,-0.07723 -0.03,-0.115847 -0.0644,-0.158753 -0.19307,-0.05792 -0.52344,-0.173771 -0.71008,-0.22955 -0.20165,0.05792 -0.0837,0.186643 -0.13515,0.300345 -0.0558,0.07294 -0.11799,0.06865 -0.17806,0.102975 -0.0922,-0.01073 -0.1802,0.261729 -0.1802,0.261729 -0.004,0.117993 0.0236,0.356123 0.24241,0.377577 0.0794,0.0086 0.2038,-0.139446 0.28318,-0.13301 0.0794,0.0064 0.21024,0.182352 0.2939,0.190933 m -1.90929,1.950095 c -0.0794,-0.0064 -0.22311,-0.143736 -0.25743,-0.186642 -0.0558,-0.08367 -0.0536,-0.244567 -0.10297,-0.328234 -0.0687,-0.124429 -0.20166,-0.296054 -0.26173,-0.461244 0.0729,-0.03003 0.15017,-0.05792 0.22955,-0.04934 0.0837,0.0064 0.13515,0.0472 0.15446,0.04934 0.19307,0.257438 0.36255,0.549202 0.58351,0.808785 -0.10941,0.02789 -0.26387,0.173771 -0.34539,0.167335 m 5.60773,0.377577 c 0.26816,0.02574 0.32394,-0.394739 0.32608,-0.474116 0.004,-0.07723 -0.0536,-0.248857 -0.0493,-0.328234 0.002,-0.07723 0.0665,-0.150172 0.0686,-0.229549 0.004,-0.117993 -0.12871,-0.16948 -0.15231,-0.173771 -0.26173,-0.02574 -0.37113,0.441936 -0.37328,0.480552 -0.002,0.08152 0.0729,0.248857 0.0708,0.328234 -0.004,0.115847 -0.0365,0.227403 -0.03,0.30678 0.0236,0.04291 0.0558,0.08152 0.13944,0.0901 m -4.81398,2.147464 c -0.4076,-0.03862 -0.78731,-0.703665 -0.84738,-1.025462 -0.0257,-0.122284 -0.19522,-0.220968 -0.29819,-0.268165 0.0686,-0.07294 0.19307,-0.137301 0.27459,-0.130865 0.0837,0.0086 0.22311,0.06436 0.30034,0.109411 0.23813,0.223114 0.53203,0.722973 0.80662,0.789478 0.004,0 0.4977,0.08367 0.48912,0.281037 -0.002,0.07938 -0.009,0.07938 -0.0451,0.115847 -0.23169,0.01931 -0.59638,0.135155 -0.68005,0.128719 m 7.89673,0.448372 c 0.0794,0.0064 0.33681,-0.167335 0.49985,-0.229549 0.1609,-0.06436 0.36899,-0.08152 0.55992,-0.143737 0.12442,-0.06651 1.00613,-0.613561 1.01685,-0.890307 0.006,-0.156609 -0.12871,-0.16948 -0.15231,-0.173771 -0.0794,-0.0064 -0.30677,0.130864 -0.45051,0.156608 -0.22311,0.05578 -0.47625,-0.04934 -0.68434,0.04934 -0.2703,0.133009 -0.50199,0.465534 -0.4741,0.70581 -0.0987,0.06865 -0.45694,0.235985 -0.46338,0.351832 -0.002,0.07938 0.0644,0.16519 0.14802,0.173771 m 0.6157,1.999437 c 0.0837,0.0086 0.0858,0.01073 0.12228,-0.02574 0.10297,-0.02789 0.44407,-0.315361 0.44836,-0.435499 0.006,-0.156609 -0.1137,-0.212387 -0.18021,-0.216678 -0.17376,-0.01716 -0.27888,0.212387 -0.33895,0.326089 -0.12442,0.02789 -0.24241,-0.02574 -0.37971,-0.03862 -0.0343,0.03647 -0.0858,0.07509 -0.088,0.154463 -0.006,0.156608 0.39688,0.235985 0.41619,0.235985 m -1.85995,3.115004 c -0.12228,-0.0021 -0.24885,-0.01287 -0.37542,-0.02574 -1.19492,-0.259584 -3.48606,-0.755152 -3.70703,-1.568228 1.01257,-0.05792 3.08061,-2.402758 1.09624,-1.214251 -0.51916,0.720827 -3.75851,1.585391 -1.75698,0.150172 0.64787,-0.785187 3.79712,-1.999437 1.03402,-1.463107 -1.23782,0.364704 -2.52069,2.612998 -3.62336,2.083105 0.41189,-1.917916 2.51211,-3.05279 4.56942,-2.896181 0.18235,-1.089823 -1.95648,-0.319653 -2.17101,-1.480271 -0.12657,-0.368995 0.0279,-1.598262 -1.11554,-1.07695 -0.49126,-0.613561 1.69476,-1.289337 0.0622,-1.321517 -0.48697,-0.701519 0.17163,-1.593972 -1.08765,-1.370858 0.72725,-1.197089 -1.93503,0.152317 -0.83236,-1.295773 1.0426,-0.742281 -1.54888,-2.430647 0.13301,-2.089541 0.82592,0.476261 0.68219,3.719983 1.05332,1.570373 0.89458,-0.956812 -0.83022,-1.690511 0,-2.718119 -0.12013,-0.33896 -0.22525,-0.508441 -0.31535,-0.570655 0.18235,0.01287 0.10941,-0.07294 0.28103,-0.13301 l 0.0193,-0.431209 c 0.009,-0.07938 -0.0987,-0.09439 -0.0944,-0.173771 0.004,-0.115847 0.29605,-0.08367 0.30463,-0.319652 0.006,-0.117993 -0.17591,-0.452663 -0.17162,-0.532039 0.006,-0.156609 0.26387,-0.08796 0.2746,-0.364705 0.004,-0.07938 -0.18235,-0.459098 -0.17806,-0.538475 0.004,-0.117992 0.0772,-0.184497 0.0751,-0.263874 l 0.015,-0.235985 c -0.0343,-0.0021 -0.0493,-0.04505 -0.12872,-0.05149 -0.0901,-0.0086 -0.16947,0.01716 -0.23812,0.06221 -0.0129,-0.08152 -0.0257,-0.163044 -0.0493,-0.261729 1.43733,-1.122001 -0.39902,-3.166491 0.35826,-4.747591 0.62427,-1.250721 -1.44591,-0.336815 -0.20595,-1.643314 1.13485,0.08581 1.02115,1.398748 0.91174,2.102412 1.54459,-0.384012 0.50414,-3.368151 2.45419,-2.467117 0.37113,-0.770169 -0.92676,-1.98442 -0.60926,-0.557783 -0.58566,-0.418337 -2.45419,1.055497 -1.35366,-0.248857 0.95893,-0.817366 1.01042,-1.1456 -0.30034,-1.334388 -1.70549,-0.205951 -2.20748,-1.10484 -3.69201,-1.744145 -1.52528,-0.259583 -3.42814,-1.13487 -3.14711,-2.83182 -0.0129,-2.04878 -0.50842,-4.10185 -1.07692,-6.097 0.0214,-1.19923 0.26601,-3.03133 1.19277,-2.5894 1.28072,-0.19737 2.01226,2.64518 1.20564,3.80151 0.0665,1.95438 0.60282,4.20912 1.61968,5.81381 1.95005,1.353699 4.77965,0.19094 6.52161,1.722693 1.07907,-0.130864 2.63439,-0.909613 2.81888,0.879581 1.24641,-0.311071 -0.28317,-1.890024 1.53816,-2.083104 1.78057,-0.93965 2.62796,0.28747 1.99939,1.761306 -0.0386,1.47598 1.27215,1.250722 0.60497,-0.255293 -0.66504,-1.143455 1.68189,-2.782473 1.27214,-2.031613 -1.19062,1.115562 0.68434,1.115562 1.22709,1.244281 -1.17775,1.132729 0.0622,1.381586 0.73583,0.46768 0.57708,0.298199 0.9761,0.722972 1.34508,1.122002 0.0129,-0.04505 0.0193,-0.09225 0.0193,-0.135155 l 0.1609,0.01716 c 0.23169,0.182352 0.57922,0.373286 0.77658,0.392594 0.0794,0.0086 0.16519,-0.02789 0.24242,-0.01931 -0.19951,0.06007 -0.52988,0.227404 -0.60711,0.218822 -0.03,-0.0021 -0.10297,-0.0236 -0.18664,-0.05363 0.53203,0.525604 1.11339,0.892453 2.17745,0.656468 1.13055,-0.525603 -1.98652,-1.373004 0.22525,-1.031898 0.57708,0.564218 1.15845,3.595554 1.19921,1.754871 0.10726,0.16948 0.37756,0.242421 0.52559,0.441935 -0.002,0.07938 -0.002,0.19737 -0.006,0.276747 -0.002,0.07938 0.15231,0.171625 0.22954,0.180206 0.12014,0.01073 0.44407,-0.195224 0.45051,-0.353977 0.009,-0.235985 -0.53417,-0.607126 -0.53203,-0.647887 0.002,-0.07723 0.16948,-0.336815 0.17163,-0.416192 0.004,-0.07723 -0.0322,-0.04505 -0.03,-0.08152 -0.0386,-0.04505 -0.0365,-0.04505 -0.11584,-0.05363 -0.1373,-0.01287 -0.58137,0.124429 -0.7058,0.36685 -0.49555,-0.954667 1.04475,-0.948231 0.58995,-1.51245 0.54276,0.549202 0.73583,1.102694 1.62826,0.7101 1.521,0.401175 0.5685,2.201098 1.69905,3.217979 -0.70794,0.09439 -1.18633,1.91148 -0.45479,1.8793 0.37756,0.731554 1.49096,-2.748154 1.43518,-0.566364 1.49096,0.568509 0.16733,-2.003729 1.64542,-1.857847 0.17806,-0.06221 0.30463,-0.156608 0.39259,-0.268165 0.0215,0.06221 0.0408,0.115848 0.0386,0.141591 -0.002,0.07723 -0.0493,0.07509 -0.0515,0.113702 -0.12228,0.107266 -0.35826,0.124429 -0.36684,0.321798 0.0837,0.156608 0.17162,0.178062 0.27674,0.186643 0.0365,0.0021 0.0751,0.0021 0.11585,0.0064 0.55348,0.05149 0.63929,-0.16948 0.6543,-0.566364 0.0129,-0.394739 -0.12657,-0.725118 -0.26815,-1.132729 l -0.16305,-0.01931 c -0.0129,0.01931 -0.0279,0.03003 -0.0429,0.04934 -0.0172,-0.686503 -0.13515,-1.360133 1.00613,-1.160618 0.0107,0.06221 0.0365,0.117992 0.0644,0.180207 -0.20595,0.139445 -0.4784,0.03862 -0.48912,0.315362 -0.004,0.197369 0.26601,0.257438 0.38615,0.268164 0.19736,0.02145 0.36898,-0.120137 0.48697,-0.109411 0.0794,0.0086 0.31107,0.0708 0.42905,0.124429 0.0772,0.04505 0.18879,0.13301 0.22311,0.216677 0,0.03862 -0.004,0.158754 0.0343,0.242421 0,0 0.0794,0.08367 0.15875,0.0901 0.19951,0.01931 0.40116,-0.195224 0.40545,-0.313216 l 0.0236,-0.589963 c -0.11155,-0.130864 -0.2274,-0.223113 -0.30677,-0.231694 -0.0772,-0.0064 -0.31965,0.05363 -0.39688,0.0472 -0.0794,-0.0086 -0.0772,-0.08796 -0.15446,-0.137301 0.16519,-0.180207 0.51916,-0.268165 0.53203,-0.581381 0.004,-0.07938 -0.10512,-0.251003 -0.10297,-0.328234 0.004,-0.07938 0.16947,-0.336815 0.17376,-0.416192 0.002,-0.07938 -0.10297,-0.368995 -0.13515,-0.570655 -0.0772,-0.0472 -0.15231,-0.09654 -0.23169,-0.102975 -0.1566,-0.01502 -0.21452,0.263874 -0.21667,0.300344 -0.002,0.07938 0.0408,0.122284 0.0386,0.199515 -0.11799,-0.01073 -0.31321,-0.0708 -0.39688,0.03862 -0.03,0.02574 -0.0622,0.05578 -0.0901,0.0901 -0.10512,-0.16948 -0.33037,-0.07509 -0.62856,0.609271 -1.81919,-0.941795 -1.20994,1.733418 -2.05732,2.237568 -0.53417,0.491278 -0.89886,1.306499 -1.53172,0.223113 0.24027,-0.549202 0.92676,-2.439228 0.85811,-0.635014 1.97365,-0.190934 0.0944,-3.481854 2.62152,-2.992721 0.48483,-1.111275 2.16243,0.26602 2.78885,-1.025462 1.30432,0.632869 1.26356,0.07723 1.21207,-0.871005 0.77444,2.439233 0.69292,-1.37515 1.10911,-2.07881 0.3368,-1.9029 -0.10512,-3.96455 -0.52559,-5.85672 -0.0408,-1.04048 -2.60436,-2.4521 -0.30249,-2.52719 1.89856,-0.088 2.7202,1.75487 2.6537,3.21154 -0.20595,2.37916 0.62427,4.79694 1.51885,7.04523 -0.1802,1.664772 -1.43304,3.035631 -0.62213,4.762613 -0.0236,1.844975 1.53172,3.108568 0.52774,4.80766 0.74226,2.274039 0.44407,-0.845255 1.32577,-1.340824 -0.82807,-1.119857 -0.93533,-2.482134 -1.26785,-3.786489 -0.60711,-1.042625 0.54275,-3.235141 0.11584,-0.956812 -0.0965,0.995428 0.77015,1.932933 1.01686,2.949814 0.84953,-0.991137 -1.13485,-3.69424 0.25743,-4.449392 1.0662,0.626433 0.17591,1.598263 1.04475,2.636597 -0.24027,1.51245 0.99111,3.209398 -0.17806,4.683232 0.83022,1.570374 -0.9954,2.625871 -0.87312,4.116868 -0.58566,1.639024 -2.57432,2.647324 -3.49894,4.127594 -1.71406,0.753007 -3.47962,1.458817 -5.43181,0.858127 -1.71407,0.956813 -3.43458,-0.978265 -5.02851,-0.171625 -1.70335,-0.0472 -3.04843,-1.37944 -4.79682,-1.04477 -1.8578,-1.130584 -4.0138,0.613561 -5.97457,0.30249 -1.36225,-0.20166 -3.88937,-0.120138 -2.92829,1.767743 -1.2464,0.07079 -1.01257,1.321516 -2.55287,1.089822 -1.21208,0.33896 -0.71223,2.010164 0.0193,0.538475 1.25499,-0.16519 2.43703,-0.141591 3.70703,0.353977 0.86883,-0.300344 3.78425,-0.246711 1.4931,0.242422 -0.81091,1.186361 3.175,-1.199234 1.80203,0.716536 -1.48882,0.388303 -0.48483,1.428783 0.33252,0.216677 0.14373,2.035908 -2.07019,3.930225 -3.27583,4.964269 -1.35152,0.755152 1.62611,0.13301 0.37328,1.493142 -1.0426,1.392312 -2.49709,2.291201 -4.36133,2.241859" style="fill:#ffffff;fill-opacity:1;fill-rule:nonzero;stroke:none;stroke-width:2.14529" id="path240"/><g id="g1556" transform="translate(374.99977)"><path d="m 225.00596,-45.643546 c -16.79316,0 -30.40703,13.614196 -30.40703,30.40561 0,16.7935583 13.61387,30.407754 30.40703,30.407754 16.79101,0 30.40488,-13.6141957 30.40488,-30.407754 0,-16.791414 -13.61387,-30.40561 -30.40488,-30.40561 m 0,63.761033 c -18.39139,0 -33.35463,-14.9614565 -33.35463,-33.355423 0,-18.389677 14.96324,-33.353278 33.35463,-33.353278 18.39138,0 33.35462,14.963601 33.35462,33.353278 0,18.3939665 -14.96324,33.355423 -33.35462,33.355423" style="fill:#dab072;fill-opacity:1;fill-rule:nonzero;stroke:none;stroke-width:2.14529" id="path244"/><path d="m 225.00596,15.169174 c -16.79316,0 -30.40703,-13.6141953 -30.40703,-30.405609 0,-16.793558 13.61387,-30.407754 30.40703,-30.407754 16.79101,0 30.40488,13.614196 30.40488,30.407754 0,16.7914137 -13.61387,30.405609 -30.40488,30.405609" style="fill:#38284f;fill-opacity:1;fill-rule:nonzero;stroke:none;stroke-width:2.14529" id="path248"/><g id="g1531"><path d="m 248.1431,-13.410339 c -0.71437,0 -1.31719,-0.420483 -1.61968,-1.019027 l -2.29543,1.149891 c -1.22495,0.611416 -2.24824,2.688085 -2.55287,3.5998461 l -0.33681,1.014736 c 0.7251,0.2424211 1.25713,0.90747 1.25713,1.71411 0,1.0104454 -0.81949,1.8299573 -1.82777,1.8299573 -1.01257,0 -1.83206,-0.8195119 -1.83206,-1.8299573 0,-0.3797215 0.14159,-0.7101006 0.33895,-1.001864 l -0.89672,-0.6028347 c -2.56574,-1.7269824 -7.2081,-3.0227544 -10.2694,-3.5826834 0.56206,3.0527895 1.8578,7.6845337 3.58475,10.2868059 l 0.5878,0.88387151 c 0.28961,-0.19307871 0.61998,-0.33252451 0.99326,-0.33252451 1.01042,0 1.82991,0.81951197 1.82991,1.82995732 0,1.01044538 -0.81949,1.82995728 -1.82991,1.82995728 -0.80877,0 -1.47166,-0.5320392 -1.71407,-1.2593024 l -0.99755,0.3325245 c -0.72081,0.2467117 -2.9476,1.2464305 -3.59976,2.5529299 l -1.13914,2.278329 c 0.58995,0.3046353 1.00399,0.9031793 1.00399,1.61328 0,1.0104453 -0.81735,1.8299573 -1.82777,1.8299573 -1.01042,0 -1.82991,-0.819512 -1.82991,-1.8299573 0,-0.7143913 0.42047,-1.3150807 1.01471,-1.6175707 L 223.0499,3.9860545 c -0.65431,-1.3064994 -2.87895,-2.3062182 -3.60834,-2.5550752 l -0.9761,-0.3303792 c -0.24456,0.7208273 -0.90745,1.2464305 -1.71192,1.2464305 -1.01042,0 -1.82777,-0.819512 -1.82777,-1.8299573 0,-1.01044534 0.81735,-1.8299573 1.82777,-1.8299573 0.37328,0 0.69936,0.1394458 0.98897,0.33037918 l 0.57493,-0.86885428 c 1.72694,-2.6044175 3.02483,-7.2361617 3.58689,-10.2868059 -3.06559,0.559929 -7.7101,1.855701 -10.27798,3.5826834 l -0.89458,0.6006894 c 0.19522,0.2917634 0.33681,0.6221425 0.33681,1.001864 0,1.0104454 -0.81949,1.8299573 -1.82992,1.8299573 -1.00827,0 -1.82776,-0.8195119 -1.82776,-1.8299573 0,-0.8087853 0.52988,-1.4716889 1.25712,-1.7162553 l -0.33895,-1.0104454 c -0.2467,-0.7229721 -1.24854,-2.9476681 -2.55072,-3.5998461 l -2.29544,-1.147745 c -0.30248,0.598544 -0.9053,1.019026 -1.61968,1.019026 -1.01256,0 -1.82991,-0.819512 -1.82991,-1.829957 0,-1.010445 0.81735,-1.829957 1.82991,-1.829957 0.71652,0 1.31934,0.422628 1.61968,1.021172 l 2.29544,-1.147746 c 1.30218,-0.652177 2.30402,-2.876873 2.55287,-3.606282 l 0.33895,-0.993282 c -0.72081,-0.244567 -1.24855,-0.90747 -1.24855,-1.711965 0,-1.010446 0.8195,-1.829957 1.82992,-1.829957 1.01042,0 1.82991,0.819511 1.82991,1.829957 0,0.377576 -0.14159,0.707955 -0.33681,0.997573 l 0.88385,0.592108 c 2.5636,1.724837 7.21025,3.02061 10.27584,3.580538 -0.56206,-3.050644 -1.8621,-7.680243 -3.58689,-10.286805 l -0.5878,-0.886017 c -0.29176,0.193078 -0.61784,0.332524 -0.99326,0.332524 -1.00828,0 -1.82777,-0.819512 -1.82777,-1.829957 0,-1.010445 0.81949,-1.829957 1.82777,-1.829957 0.80876,0 1.4738,0.532039 1.71407,1.259302 l 0.99969,-0.332524 c 0.72081,-0.244567 2.94545,-1.244286 3.59976,-2.54864 l 1.14557,-2.293346 c -0.59638,-0.30249 -1.02114,-0.905325 -1.02114,-1.619716 0,-1.010445 0.82163,-1.829957 1.83206,-1.829957 1.01042,0 1.82776,0.819512 1.82776,1.829957 0,0.714391 -0.42047,1.319371 -1.019,1.619716 l 1.14772,2.293346 c 0.6114,1.227123 2.68802,2.24615 3.59976,2.54864 l 0.99969,0.334669 c 0.24027,-0.727263 0.90316,-1.261447 1.71193,-1.261447 1.01042,0 1.82991,0.821657 1.82991,1.829957 0,1.012591 -0.81949,1.829957 -1.82991,1.829957 -0.37328,0 -0.70365,-0.139446 -0.99326,-0.332524 l -0.5878,0.886017 c -1.72695,2.604417 -3.02269,7.236161 -3.58475,10.286805 3.0613,-0.559928 7.70366,-1.855701 10.2694,-3.580538 l 0.89672,-0.60498 c -0.19736,-0.291763 -0.33895,-0.624288 -0.33895,-1.001864 0,-1.010445 0.81949,-1.829957 1.83206,-1.829957 1.00828,0 1.82777,0.819512 1.82777,1.829957 0,0.808786 -0.53203,1.471689 -1.25713,1.71411 l 0.33681,1.014736 c 0.2467,0.722973 1.2464,2.947669 2.55287,3.599846 l 2.29114,1.147746 c 0.30249,-0.60069 0.90745,-1.023318 1.62397,-1.023318 1.01042,0 1.82991,0.819512 1.82991,1.829958 0,1.010445 -0.81949,1.829957 -1.82991,1.829957" style="fill:#dab072;fill-opacity:1;fill-rule:nonzero;stroke:none;stroke-width:2.14529" id="path252"/><path d="m 225.00596,3.0065017 c 1.21422,-2.43279197 4.86546,-3.64918796 4.86546,-3.64918796 -2.58075,-3.88517304 -4.25835,-11.55254374 -4.25835,-13.98533574 2.43273,0 10.12781,1.660477 13.98714,4.256313 0,0 1.21637,-3.649188 3.64911,-4.865584 -2.43274,-1.216396 -3.64911,-4.863438 -3.64911,-4.863438 -3.85933,2.59369 -11.55441,4.256313 -13.98714,4.256313 0,-2.432792 1.6776,-10.102308 4.25835,-13.987481 0,0 -3.65124,-1.214251 -4.86546,-3.644898 -1.21637,2.430647 -4.86547,3.644898 -4.86547,3.644898 2.57646,3.885173 4.25621,11.554689 4.25621,13.987481 -2.43273,0 -10.13425,-1.662623 -13.99358,-4.256313 0,0 -1.21423,3.647042 -3.64696,4.863438 2.43273,1.216396 3.64696,4.865584 3.64696,4.865584 3.85933,-2.593691 11.56085,-4.256313 13.99358,-4.256313 0,2.432792 -1.6776,10.1001627 -4.25621,13.98533574 0,0 3.6491,1.21639599 4.86547,3.64918796" style="fill:#de003c;fill-opacity:1;fill-rule:nonzero;stroke:none;stroke-width:2.14529" id="path256"/></g></g><g id="g1758" transform="translate(374.99975)"><path d="m 257.69619,101.48588 c -1.13055,-1.842831 -5.74502,-5.221709 -8.19492,-6.182812 -0.635,-0.251002 3.0377,0.143737 4.68098,0.353978 2.15813,0.274601 4.962,1.611135 4.89764,1.139164 -0.006,-2.160336 1.03831,-5.764472 3.75851,-7.420659 l 0.25958,-0.158753 0.26601,0.158753 c 2.7202,1.84712 3.74779,5.092988 3.7628,7.420659 -0.0687,0.471971 2.73522,-0.864563 4.89336,-1.139164 1.64327,-0.210241 5.31812,-0.60498 4.68097,-0.353978 -2.44775,0.961103 -7.06007,4.339981 -8.19063,6.182812 z" style="fill:#dab072;fill-opacity:1;fill-rule:nonzero;stroke:none;stroke-width:2.14529" id="path118"/><g id="g1491"><path d="m 221.62887,55.638047 c -0.0751,3.312373 -0.94177,6.345854 -2.46705,9.263488 -3.99664,8.403216 -16.19678,8.203701 -13.50661,-2.074523 0.99111,-3.788634 4.35704,-6.015476 8.35582,-6.397342 -0.28961,0.997573 -1.87711,4.526623 -0.59424,5.217416 2.05088,-0.07723 4.84187,-4.309946 5.45327,-5.998313 0,0 0,-0.01073 2.75881,-0.01073" style="fill:#dab072;fill-opacity:1;fill-rule:nonzero;stroke:none;stroke-width:2.14529" id="path94"/><path d="m 230.96615,55.648559 c 0.61141,1.688366 3.4024,5.921081 5.45328,5.998312 1.28287,-0.690792 -0.30678,-4.217697 -0.59424,-5.217416 3.99878,0.381867 7.3647,2.608708 8.35582,6.397342 2.69016,10.278224 -9.50998,10.477739 -13.50661,2.074524 -1.52529,-2.917634 -2.38983,-5.951116 -2.46706,-9.263489 2.75881,0 2.75881,0.01073 2.75881,0.01073" style="fill:#dab072;fill-opacity:1;fill-rule:nonzero;stroke:none;stroke-width:2.14529" id="path98"/><path d="m 224.69596,85.098428 c -3.86362,-4.164064 -6.45725,-8.980306 -5.33742,-14.626786 0.61569,-3.117149 2.11094,-6.002603 3.16427,-9.003905 0.66074,-1.88359 0.83022,-3.850848 0.75084,-5.828832 h 3.27797 c -0.1566,1.993002 0.18664,3.925934 0.75085,5.828832 1.00613,3.02061 2.53356,5.884611 3.16641,9.003905 1.18419,5.828832 -1.59608,10.226737 -5.32241,14.609624 l -0.2274,0.289618 z" style="fill:#dab072;fill-opacity:1;fill-rule:nonzero;stroke:none;stroke-width:2.14529" id="path102"/><path d="m 232.62745,49.321369 h -15.47167 c -0.92032,0 -1.67117,0.753007 -1.67117,1.673349 v 1.267884 c 0,0.920342 0.75085,1.673349 1.67117,1.673349 h 15.47167 c 0.92032,0 1.67116,-0.753007 1.67116,-1.673349 v -1.267884 c 0,-0.920342 -0.75084,-1.673349 -1.67116,-1.673349" style="fill:#dab072;fill-opacity:1;fill-rule:nonzero;stroke:none;stroke-width:2.14529" id="path106"/><path d="m 219.48768,47.619273 c -1.13055,-1.842829 -5.74502,-5.219562 -8.19492,-6.180665 -0.635,-0.251002 3.0377,0.143736 4.68097,0.351832 2.15814,0.274601 4.96201,1.611135 4.89765,1.139165 -0.006,-2.158191 1.03617,-5.762327 3.75851,-7.418514 l 0.25958,-0.158754 0.26601,0.158754 c 2.7202,1.844975 3.74778,5.090843 3.76066,7.418514 -0.0665,0.47197 2.73736,-0.864564 4.8955,-1.139165 1.64327,-0.208096 5.31597,-0.602834 4.68097,-0.351832 -2.44989,0.961103 -7.06007,4.337836 -8.19278,6.180665 z" style="fill:#dab072;fill-opacity:1;fill-rule:nonzero;stroke:none;stroke-width:2.14529" id="path110"/></g><path d="m 188.59711,35.893387 -0.22525,0.289618 -0.22526,-0.272455 c -3.85504,-4.155484 -6.44438,-8.960999 -5.34171,-14.592462 h 11.11892 c 1.16488,5.81167 -1.60681,10.200993 -5.3267,14.575299" style="fill:#dab072;fill-opacity:1;fill-rule:nonzero;stroke:none;stroke-width:2.14529" id="path114"/><path d="m 263.32752,35.893387 -0.22525,0.289618 -0.22525,-0.272455 c -3.85505,-4.155484 -6.44439,-8.960999 -5.34172,-14.592462 h 11.11892 c 1.16703,5.81167 -1.6068,10.200993 -5.3267,14.575299" style="fill:#dab072;fill-opacity:1;fill-rule:nonzero;stroke:none;stroke-width:2.14529" id="path122"/><g id="g1498"><path d="m 147.15611,55.638047 c -0.0751,3.312373 -0.94177,6.345854 -2.46706,9.263488 -3.99663,8.403216 -16.19677,8.203701 -13.50661,-2.074523 0.99112,-3.788634 4.35704,-6.015476 8.35582,-6.397342 -0.28961,0.997573 -1.87711,4.526623 -0.59424,5.217416 2.05088,-0.07723 4.84187,-4.309946 5.45327,-5.998313 0,0 0,-0.01073 2.75882,-0.01073" style="fill:#dab072;fill-opacity:1;fill-rule:nonzero;stroke:none;stroke-width:2.14529" id="path126"/><path d="m 156.4936,55.648559 c 0.6114,1.688366 3.4024,5.921081 5.45327,5.998312 1.28287,-0.690792 -0.30677,-4.217697 -0.59424,-5.217416 3.99878,0.381867 7.36471,2.608708 8.35582,6.397342 2.69017,10.278224 -9.50997,10.477739 -13.5066,2.074524 -1.52529,-2.917634 -2.39198,-5.951116 -2.46706,-9.263489 2.75881,0 2.75881,0.01073 2.75881,0.01073" style="fill:#dab072;fill-opacity:1;fill-rule:nonzero;stroke:none;stroke-width:2.14529" id="path130"/><path d="m 150.2232,85.098428 c -3.86363,-4.164064 -6.45726,-8.980306 -5.33957,-14.626786 0.61783,-3.117149 2.11309,-6.002603 3.16641,-9.003905 0.66074,-1.88359 0.83022,-3.850848 0.75085,-5.828832 h 3.27797 c -0.15661,1.993002 0.18663,3.925934 0.75084,5.828832 1.00398,3.02061 2.53356,5.884611 3.16641,9.003905 1.18419,5.828832 -1.59607,10.226737 -5.32241,14.609624 l -0.22739,0.289618 z" style="fill:#dab072;fill-opacity:1;fill-rule:nonzero;stroke:none;stroke-width:2.14529" id="path134"/><path d="m 158.1549,49.321369 h -15.47168 c -0.92032,0 -1.67116,0.753007 -1.67116,1.673349 v 1.267884 c 0,0.920342 0.75084,1.673349 1.67116,1.673349 h 15.47168 c 0.92032,0 1.67116,-0.753007 1.67116,-1.673349 v -1.267884 c 0,-0.920342 -0.75084,-1.673349 -1.67116,-1.673349" style="fill:#dab072;fill-opacity:1;fill-rule:nonzero;stroke:none;stroke-width:2.14529" id="path138"/><path d="m 145.01513,47.619273 c -1.13056,-1.842829 -5.74717,-5.219562 -8.19492,-6.180665 -0.63715,-0.251002 3.0377,0.143736 4.68097,0.351832 2.15814,0.274601 4.96201,1.611135 4.89765,1.139165 -0.006,-2.158191 1.03616,-5.762327 3.75851,-7.418514 l 0.25958,-0.158754 0.26601,0.158754 c 2.7202,1.844975 3.74778,5.090843 3.76065,7.418514 -0.0665,0.47197 2.73737,-0.864564 4.89551,-1.139165 1.64327,-0.208096 5.31597,-0.602834 4.68097,-0.351832 -2.4499,0.961103 -7.06222,4.337836 -8.19278,6.180665 z" style="fill:#dab072;fill-opacity:1;fill-rule:nonzero;stroke:none;stroke-width:2.14529" id="path142"/></g><g id="g1505"><path d="m 296.71733,55.638047 c -0.0772,3.312373 -0.94177,6.345854 -2.46705,9.263488 -3.99664,8.403216 -16.19678,8.203701 -13.50876,-2.074523 0.99326,-3.788634 4.35919,-6.015476 8.35797,-6.397342 -0.28961,0.997573 -1.87711,4.526623 -0.59424,5.217416 2.05087,-0.07723 4.84187,-4.309946 5.45327,-5.998313 0,0 0,-0.01073 2.75881,-0.01073" style="fill:#dab072;fill-opacity:1;fill-rule:nonzero;stroke:none;stroke-width:2.14529" id="path146"/><path d="m 306.05483,55.648559 c 0.6114,1.688366 3.40239,5.921081 5.45327,5.998312 1.28072,-0.690792 -0.30892,-4.217697 -0.59424,-5.217416 3.99878,0.381867 7.3647,2.608708 8.35582,6.397342 2.69016,10.278224 -9.50997,10.477739 -13.50661,2.074524 -1.52528,-2.917634 -2.39197,-5.951116 -2.46706,-9.263489 2.75882,0 2.75882,0.01073 2.75882,0.01073" style="fill:#dab072;fill-opacity:1;fill-rule:nonzero;stroke:none;stroke-width:2.14529" id="path150"/><path d="m 299.78442,85.098428 c -3.86362,-4.164064 -6.45725,-8.980306 -5.33957,-14.626786 0.61784,-3.117149 2.11309,-6.002603 3.16642,-9.003905 0.66074,-1.88359 0.82807,-3.850848 0.75084,-5.828832 h 3.27797 c -0.1566,1.993002 0.18664,3.925934 0.75084,5.828832 1.00399,3.02061 2.53357,5.884611 3.16642,9.003905 1.18419,5.828832 -1.59608,10.226737 -5.32241,14.609624 l -0.2274,0.289618 z" style="fill:#dab072;fill-opacity:1;fill-rule:nonzero;stroke:none;stroke-width:2.14529" id="path154"/><path d="m 307.71612,49.321369 h -15.47167 c -0.92032,0 -1.67116,0.753007 -1.67116,1.673349 v 1.267884 c 0,0.920342 0.75084,1.673349 1.67116,1.673349 h 15.47167 c 0.92032,0 1.67117,-0.753007 1.67117,-1.673349 v -1.267884 c 0,-0.920342 -0.75085,-1.673349 -1.67117,-1.673349" style="fill:#dab072;fill-opacity:1;fill-rule:nonzero;stroke:none;stroke-width:2.14529" id="path158"/><path d="m 294.57636,47.619273 c -1.13271,-1.842829 -5.74718,-5.219562 -8.19493,-6.180665 -0.63714,-0.251002 3.0377,0.143736 4.68098,0.351832 2.15814,0.274601 4.962,1.611135 4.89764,1.139165 -0.006,-2.158191 1.03617,-5.762327 3.75851,-7.418514 l 0.25958,-0.158754 0.26601,0.158754 c 2.7202,1.844975 3.74779,5.090843 3.76066,7.418514 -0.0665,0.47197 2.73736,-0.864564 4.8955,-1.139165 1.64328,-0.208096 5.31598,-0.602834 4.68098,-0.351832 -2.4499,0.961103 -7.06223,4.337836 -8.19278,6.180665 z" style="fill:#dab072;fill-opacity:1;fill-rule:nonzero;stroke:none;stroke-width:2.14529" id="path162"/></g><path d="m 182.96578,101.48588 c -1.13056,-1.842831 -5.74503,-5.221709 -8.19492,-6.182812 -0.635,-0.251002 3.0377,0.143737 4.68097,0.353978 2.15814,0.274601 4.96201,1.611135 4.89765,1.139164 -0.006,-2.160336 1.03616,-5.764472 3.75851,-7.420659 l 0.25958,-0.158753 0.26601,0.158753 c 2.7202,1.84712 3.74778,5.092988 3.76065,7.420659 -0.0665,0.471971 2.73737,-0.864563 4.89551,-1.139164 1.64327,-0.210241 5.31812,-0.60498 4.68097,-0.353978 -2.44775,0.961103 -7.06008,4.339981 -8.19063,6.182812 z" style="fill:#dab072;fill-opacity:1;fill-rule:nonzero;stroke:none;stroke-width:2.14529" id="path90"/></g></g></g></svg>