<svg xmlns:dc="http://purl.org/dc/elements/1.1/" xmlns:cc="http://creativecommons.org/ns#" xmlns:rdf="http://www.w3.org/1999/02/22-rdf-syntax-ns#" xmlns:svg="http://www.w3.org/2000/svg" xmlns:sodipodi="http://sodipodi.sourceforge.net/DTD/sodipodi-0.dtd" xmlns:inkscape="http://www.inkscape.org/namespaces/inkscape" xmlns="http://www.w3.org/2000/svg" xmlns:xlink="http://www.w3.org/1999/xlink" version="1.1" id="svg2" inkscape:version="0.47 r22583" sodipodi:docname="Logo de Trabzonspor.svg" x="0px" y="0px" width="203.61px" height="354.33px" viewBox="0 0 203.61 354.33" enable-background="new 0 0 203.61 354.33" xml:space="preserve">
<defs>
	
	
		<inkscape:perspective id="perspective10" inkscape:persp3d-origin="372.04724 : 350.78739 : 1" inkscape:vp_z="744.09448 : 526.18109 : 1" inkscape:vp_y="0 : 1000 : 0" inkscape:vp_x="0 : 526.18109 : 1" sodipodi:type="inkscape:persp3d">
		</inkscape:perspective>
	
		<inkscape:perspective id="perspective2899" inkscape:persp3d-origin="0.5 : 0.33333333 : 1" inkscape:vp_z="1 : 0.5 : 1" inkscape:vp_y="0 : 1000 : 0" inkscape:vp_x="0 : 0.5 : 1" sodipodi:type="inkscape:persp3d">
		</inkscape:perspective>
</defs>
<sodipodi:namedview id="base" inkscape:window-y="24" inkscape:window-x="0" inkscape:window-height="999" inkscape:window-width="1680" inkscape:current-layer="layer2" inkscape:document-units="px" inkscape:pageshadow="2" inkscape:pageopacity="0.0" inkscape:window-maximized="1" showgrid="false" borderopacity="1.0" bordercolor="#666666" pagecolor="#ffffff" inkscape:cy="177.16536" inkscape:cx="101.80511" inkscape:zoom="2.0630444">
	</sodipodi:namedview>
<g id="layer2" transform="translate(-230, -239.315)" inkscape:label="Calque" inkscape:groupmode="layer">
	<g id="g2843" transform="matrix(0.604484, 0, 0, 0.604484, 90.9688, 234.797)">
		<path id="path3778" fill="#630321" d="M372,592.442c-12.682-1.977-31.227-6.758-40.49-10.438    c-49.492-19.659-86.964-59.532-99.154-105.504c-1.772-6.683-1.856-14.417-1.856-170.954V141.593l10.5-4.758    c19.32-8.755,38.331-14.252,58.443-16.897c12.865-1.693,41.216-0.696,55.177,1.94c23.882,4.509,51.159,15.057,78.767,30.458    c8.314,4.637,18.934,10.343,23.6,12.677c37.884,18.958,68.973,20.461,100.242,4.847c4.25-2.123,8.197-3.859,8.771-3.859    c0.724,0,0.961,46.655,0.772,151.251L566.499,468.5l-2.643,9.554c-13.191,47.695-56.369,90.777-107.076,106.84    c-19.877,6.296-32.283,8.259-54.781,8.662C387.222,593.822,378.848,593.512,372,592.442L372,592.442z"/>
		<path id="path3791" fill="#2DAFE7" d="M326.594,218.969c-6.246,0.087-12.384,0.627-18.094,1.625    c-20.26,3.541-45.939,14.456-66.5,28.312c-5.775,3.892-10.833,7.094-11.25,7.094L230,322.094l3.5-2.813    c13.763-11,47.935-29.026,65.657-34.626c17.077-5.394,21.827-6.136,38.343-6.061c12.164,0.053,16.608,0.501,23.5,2.312    c9.105,2.393,29,11.31,29,13c0,0.562-1.688,1.469-3.75,2.031c-2.062,0.564-7.125,1.958-11.25,3.094    c-32.563,8.974-62.259,24.963-82.937,44.626c-21.588,20.525-33.387,42.057-39.282,71.812c-2.844,14.357-3.035,38.424-0.438,52.531    c5.022,27.275,17.579,51.025,37.594,71.064c35.373,35.414,89.27,50.222,143.063,39.312c19.21-3.897,44.274-14.958,59.062-26.063    c31.592-23.719,49.417-54.708,49.312-85.812c-0.057-16.835-3.215-26.443-12.937-39.375c-9.832-13.078-33.85-30.285-55.687-39.905    c-8.864-3.906-24.272-13.062-27.844-16.532c-8.787-8.533-9.236-19.76-1-25.626c5.179-3.688,12.756-4.553,23.125-2.656    c4.992,0.913,9.496,1.393,10.032,1.063c1.406-0.869-4.262-11.013-10.627-19c-2.99-3.754-5.438-7.1-5.438-7.438    s9.338-0.646,20.751-0.688c16.59-0.058,23.142-0.506,32.655-2.218c14.498-2.609,29.332-7.465,41.532-13.593    c5.032-2.528,9.567-4.325,10.094-4c0.527,0.325,1.797-29.516-0.656-27.063c-2.452,2.454-19.609,10.814-30.811,15    c-17.183,6.42-32.383,8.78-47.564,7.438c-19.496-1.724-32.763-8.658-67.093-35.157c-26.1-20.146-36.967-26.689-53.438-32.125    C354.647,220.725,340.335,218.776,326.594,218.969z M403.093,326.001c1.756,0,1.624,0.607-1.501,6.811    c-10.401,20.656-8.578,36.928,5.939,52.97c5.582,6.168,16.375,13.801,35.593,25.218c12.278,7.293,24.155,18.986,28.876,28.406    c3.021,6.028,3.444,7.855,3.467,14.501c0.023,6.503-0.43,8.561-3.155,14.312C463.369,487.098,439.984,499.942,409,503    c-11.983,1.183-15.478,1.111-26-0.531c-16.851-2.632-29.027-8.658-40.438-20.031c-16.342-16.288-25.594-44.091-22.532-67.657    c4.045-31.12,21.888-55.589,56.25-77.124C384.896,332.258,399.286,326.001,403.093,326.001z"/>
		<path id="path3766" fill="#FFFFFF" d="M382.302,180.596c8.162-5.473,16.178-8.53,24.379-9.296    c3.473-0.323,6.714-1.087,7.205-1.695c0.538-0.669,0.229-3.283-0.779-6.606c-1.637-5.394-1.746-5.506-5.719-5.8    c-9.708-0.716-23.205,7.79-29.036,18.299c-2.867,5.168-4.229,9.501-2.986,9.501C375.57,185,378.69,183.018,382.302,180.596z     M380.053,202.371c7.321-7.713,19.956-14.411,30.197-16.01c2.338-0.365,4.58-1.158,4.984-1.763c1.252-1.871,0.879-8.59-0.485-8.69    c-12.068-0.897-26.777,4.963-37.637,14.989c-4.41,4.07-4.649,5.368-2.458,13.352c0.687,2.501,1.515,2.212,5.399-1.88V202.371z     M426.764,201.897c4.968-9.906,6.241-24.548,3.144-36.193c-1.15-4.323-5.643-7.695-10.265-7.701    c-2.318-0.002-2.725,0.326-2.163,1.746c3.956,9.99,4.197,25.818,0.54,35.443c-1.111,2.919-2.019,5.877-2.019,6.572    c0,1.441,5.982,5.378,7.499,4.937C424.05,206.542,425.519,204.379,426.764,201.897z M443.255,211.25    c0.861-0.961,2.338-4.427,3.284-7.696c3.021-10.461,0.527-23.532-6.162-32.303c-3.827-5.016-4.73-4.221-3.979,3.499    c0.819,8.406-1.281,21.128-4.732,28.668c-1.868,4.074-2.207,5.716-1.338,6.428c0.927,0.758,5.966,2.184,10.766,3.047    C441.422,212.952,442.394,212.212,443.255,211.25L443.255,211.25z M434.272,222.928c2.052-1.691,3.729-3.641,3.729-4.336    c0-0.696-2.737-2.024-6.082-2.955c-9.921-2.758-17.882-7.367-24.659-14.275c-6.63-6.758-8.646-7.488-12.361-4.48    c-2.064,1.67-2.189,2.181-1.115,4.54c3.432,7.533,16.091,17.695,27.525,22.096C429.31,226.599,429.848,226.574,434.272,222.928    L434.272,222.928z M419.641,229.5c0.168-0.549-2.788-2.491-6.57-4.315c-7.504-3.619-17.025-11.625-21.498-18.079    c-1.565-2.259-3.424-4.105-4.131-4.105c-1.617,0-8.442,7.879-8.442,9.747c0,4.268,11.859,14.162,20.096,16.764    C404.051,231.079,419.166,231.07,419.641,229.5L419.641,229.5z"/>
		<g id="g3704" transform="translate(25, -232.362)">
			<path id="path2920" fill="#FFFFFF" d="M347.959,787.936h-4.939V769.32c-1.805,1.687-3.932,2.935-6.381,3.745v-4.483     c1.289-0.422,2.69-1.218,4.201-2.391c1.512-1.183,2.549-2.561,3.112-4.131h4.008V787.936"/>
			<path id="path2922" fill="#FFFFFF" d="M353.465,781.976l4.781-0.527c0.117,0.973,0.422,1.693,0.914,2.162     c0.492,0.469,1.142,0.703,1.951,0.703c1.019,0,1.887-0.469,2.602-1.406c0.715-0.939,1.172-2.884,1.371-5.837     c-1.242,1.443-2.795,2.163-4.658,2.163c-2.027,0-3.779-0.78-5.255-2.338c-1.465-1.57-2.197-3.611-2.197-6.118     c0-2.614,0.773-4.717,2.32-6.31c1.559-1.606,3.539-2.409,5.941-2.409c2.614,0,4.759,1.015,6.434,3.042     c1.676,2.015,2.514,5.338,2.514,9.966c0,4.711-0.873,8.11-2.619,10.196c-1.746,2.086-4.02,3.129-6.821,3.129     c-2.015,0-3.645-0.535-4.887-1.601C354.613,785.715,353.816,784.109,353.465,781.976 M364.644,771.183     c0-1.593-0.369-2.829-1.107-3.709c-0.726-0.879-1.57-1.318-2.531-1.318c-0.914,0-1.676,0.364-2.285,1.091     c-0.598,0.716-0.897,1.893-0.897,3.533c0,1.664,0.328,2.889,0.984,3.674c0.657,0.774,1.477,1.16,2.461,1.16     c0.949,0,1.746-0.375,2.391-1.124C364.316,773.739,364.644,772.637,364.644,771.183"/>
			<path id="path2924" fill="#FFFFFF" d="M390.132,768.477l-4.78,0.527c-0.118-0.984-0.423-1.711-0.914-2.179     c-0.493-0.469-1.131-0.703-1.916-0.703c-1.044,0-1.929,0.469-2.654,1.405c-0.716,0.937-1.166,2.889-1.354,5.853     c1.229-1.452,2.759-2.179,4.588-2.179c2.063,0,3.826,0.785,5.291,2.355c1.477,1.57,2.215,3.598,2.215,6.082     c0,2.637-0.774,4.751-2.322,6.346c-1.546,1.593-3.532,2.391-5.958,2.391c-2.601,0-4.74-1.008-6.417-3.024     c-1.674-2.027-2.513-5.344-2.513-9.948c0-4.724,0.873-8.128,2.62-10.213c1.745-2.086,4.013-3.129,6.801-3.129     c1.958,0,3.575,0.551,4.853,1.653C388.961,764.803,389.782,766.39,390.132,768.477 M378.935,779.253     c0,1.604,0.368,2.847,1.108,3.725c0.737,0.867,1.582,1.3,2.53,1.3c0.914,0,1.677-0.357,2.286-1.071     c0.609-0.716,0.913-1.887,0.913-3.515c0-1.677-0.326-2.901-0.982-3.675c-0.658-0.785-1.477-1.178-2.462-1.178     c-0.95,0-1.751,0.376-2.407,1.126C379.263,776.703,378.935,777.799,378.935,779.253"/>
			<path id="path2926" fill="#FFFFFF" d="M393.436,767.105v-4.588h16.894v3.586c-1.394,1.37-2.813,3.339-4.254,5.906     c-1.441,2.565-2.543,5.296-3.305,8.191c-0.75,2.884-1.118,5.46-1.107,7.735H396.9c0.082-3.564,0.814-7.196,2.197-10.898     c1.396-3.704,3.252-7.015,5.574-9.932H393.436"/>
		</g>
	</g>
</g>
<polygon fill="#F1B111" points="101.805,0 109.088,22.417 132.66,22.417 113.59,36.272 120.874,58.689 101.805,44.834   82.737,58.689 90.02,36.272 70.951,22.417 94.522,22.417 "/>
</svg>