<svg xmlns:svg="http://www.w3.org/2000/svg" xmlns="http://www.w3.org/2000/svg" version="1.0" width="695" height="768" viewBox="-7.4116815 -7.4116815 261.879413 289.436063" id="svg4927">
  <defs id="defs4929"/>
  <path d="M 198.15207,232.73088 L 200.69602,235.33342 L 198.58175,238.36076 C 191.98019,247.94572 175.09055,251.51994 165.56418,252.00334 C 160.09543,252.22307 154.7341,251.18791 150.67649,248.75627 C 147.69797,249.73283 144.66574,250.16252 141.79465,249.89884 L 141.0964,250.27482 C 143.42063,251.78849 145.58859,253.30217 147.42942,254.87932 C 150.51535,257.36954 154.57297,261.31487 154.19212,266.02678 L 154.08469,267.59416 L 153.00559,268.73186 C 150.3005,271.65666 141.20383,278.20451 133.78195,272.08634 L 132.75657,271.22209 L 132.32199,269.97697 C 131.40403,267.16447 128.31809,263.91741 123.55247,260.45061 C 118.73802,263.91741 115.59348,267.16447 114.68039,269.97697 L 114.29953,271.22209 L 113.26927,272.08634 C 105.79855,278.20451 96.760471,271.65666 94.001681,268.73186 L 92.912821,267.59416 L 92.810281,266.02678 C 92.478241,261.31487 96.491921,257.36954 99.572971,254.87932 C 101.41379,253.30217 103.63059,251.78849 105.96458,250.27482 L 105.20774,249.89884 C 102.38547,250.16252 99.358131,249.73283 96.433321,248.80998 C 92.370821,251.18791 87.009491,252.22307 81.599341,252.00334 C 72.077851,251.51994 55.124731,247.94572 48.523171,238.36076 L 46.413791,235.33342 L 48.957741,232.78947 C 40.349341,229.21526 30.066141,222.88224 26.980201,214.38127 L 25.730201,210.91936 L 28.117891,209.45451 C 20.915741,204.15178 13.122781,196.19279 12.199921,187.64299 L 11.765351,184.01506 L 14.367891,183.15079 C 8.5768814,176.70549 3.0544214,167.88224 3.8063714,159.65471 L 4.1872314,156.02189 L 6.2966014,155.69963 C 1.9704314,148.17522 -1.7649186,138.16057 0.88645145,130.15276 L 2.0290314,126.68596 L 4.0309814,126.79338 C 1.4821514,118.94669 0.12961145,109.30803 3.9723914,102.21329 L 5.7057814,99.024823 L 8.3571514,99.620533 C 7.2731714,91.285573 7.7077414,81.002373 13.122781,74.498463 L 15.446991,71.685963 L 18.259491,72.877373 C 18.972391,64.215263 21.838601,53.443773 29.035861,47.975023 L 31.960671,45.758223 L 34.177461,47.325613 C 36.892311,39.156663 42.029031,29.625413 50.041721,25.782633 L 53.401101,24.156663 L 55.671601,26.646893 C 60.329811,18.956473 68.064181,10.138113 77.273171,8.1312732 L 80.949921,7.3207232 L 82.683321,10.514083 C 83.064181,11.217213 83.386451,11.920333 83.659891,12.682043 C 90.320041,6.4027632 100.22727,-0.31111678 109.69993,0.011163221 L 113.48899,0.12346322 L 114.29953,3.6927932 C 114.62668,5.1039232 114.7341,6.6175932 114.7341,8.1312732 C 117.65403,7.9164232 120.57394,7.8090132 123.55247,7.8090132 C 126.47727,7.8090132 129.40207,7.9164232 132.32199,8.1312732 C 132.32199,6.6175932 132.4343,5.1039232 132.75657,3.6927932 L 133.57199,0.12346322 L 137.36105,0.011163221 C 146.83372,-0.31111678 156.73605,6.4027632 163.3425,12.628343 C 163.66477,11.920333 163.9968,11.217213 164.31907,10.514083 L 166.05247,7.3207232 L 169.78782,8.1312732 C 179.04074,10.138113 186.78,19.068773 191.4382,26.759193 L 193.81613,24.156663 L 197.22922,25.782633 C 205.1882,29.625413 210.22239,38.990643 212.98118,47.164473 L 214.98313,45.758223 L 217.90793,47.975023 C 225.11008,53.443773 227.97629,64.215263 228.67942,72.877373 L 231.49192,71.685963 L 233.8259,74.498463 C 239.24094,81.002373 239.6755,91.285573 238.58664,99.620533 L 241.35032,99.024823 L 243.07883,102.21329 C 246.9216,109.30803 245.56907,118.94669 243.03,126.79338 L 245.03195,126.68596 L 246.16965,130.15276 C 248.82102,138.16057 245.08567,148.17522 240.75462,155.69963 L 242.86399,156.02189 L 243.24484,159.65471 C 244.00168,167.88224 238.4255,176.75919 232.63449,183.20451 L 235.12473,184.01506 L 234.69504,187.64299 C 233.77219,196.13908 226.03293,204.09807 218.83078,209.40079 L 221.32102,210.91936 L 220.0759,214.38127 C 216.98997,222.88224 206.75559,229.16154 198.15207,232.73088 z" id="path4029" style="fill:#272323;fill-opacity:1;fill-rule:nonzero;stroke:none"/>
  <path d="M 121.81907,16.412523 L 57.292701,40.016033 L 21.028051,158.89299 L 82.517311,233.00432 L 122.41965,255.52384 L 166.58958,233.54631 L 227.33175,157.27189 L 183.86497,36.065843 L 121.81907,16.412523 z" id="path4031" style="fill:#c32800;fill-opacity:1;fill-rule:nonzero;stroke:none"/>
  <path d="M 38.239961,102.43791 L 190.62278,54.908623 L 225.22239,151.47599 L 57.727271,203.07267 L 21.028051,158.89299 L 38.239961,102.43791 z" id="path4033" style="fill:#ffffff;fill-opacity:1;fill-rule:nonzero;stroke:none"/>
  <path d="M 37.590551,104.54728 L 191.33567,56.910573 L 189.05539,50.518973 L 39.973361,96.754323 L 37.590551,104.54728 z" id="path4035" style="fill:#272323;fill-opacity:1;fill-rule:nonzero;stroke:none"/>
  <path d="M 60.271211,206.20744 L 226.4089,154.72307 L 224.0798,148.34123 L 55.613011,200.58244 L 60.271211,206.20744 z" id="path4037" style="fill:#272323;fill-opacity:1;fill-rule:nonzero;stroke:none"/>
  <path d="M 106.7214,111.96428 L 107.36594,89.708423 L 60.437231,104.32756 L 59.782931,126.36369 L 72.180391,122.46232 L 70.290741,188.66838 L 92.370821,181.90079 L 94.377661,115.75334 L 106.7214,111.96428 z" id="path4039" style="fill:#272323;fill-opacity:1;fill-rule:nonzero;stroke:none"/>
  <path d="M 134.00168,169.07366 L 136.65793,80.670333 L 114.51438,87.550223 L 111.85813,175.89006 L 134.00168,169.07366 z" id="path4041" style="fill:#272323;fill-opacity:1;fill-rule:nonzero;stroke:none"/>
  <path d="M 187.32199,152.56487 L 188.02512,130.04044 L 171.73605,135.13322 L 173.738,69.195723 L 152.24387,75.855883 L 149.5925,164.25432 L 187.32199,152.56487 z" id="path4043" style="fill:#272323;fill-opacity:1;fill-rule:nonzero;stroke:none"/>
  <path d="M 100.17355,256.22697 C 103.68918,253.30217 108.39622,250.37737 113.16184,247.73088 C 122.6882,242.36954 141.0427,233.86857 144.5632,232.13517 L 146.1843,231.32463 L 147.8591,232.03263 C 148.34739,232.24259 149.15793,232.56974 150.02707,232.94572 C 150.89133,233.38029 151.98019,233.98088 152.94699,234.67912 C 154.62668,235.92424 158.36203,240.47502 152.67844,243.71721 C 147.91282,246.48576 132.70285,253.90276 126.20872,258.12151 C 119.70969,262.35002 115.05637,266.51017 113.81125,270.35783 L 113.48899,271.33439 L 112.67844,272.03263 C 105.90598,277.61369 97.405001,271.65666 94.704811,268.78557 L 93.835671,267.86759 L 93.728241,266.61759 C 93.454811,262.45256 97.082741,258.82463 100.17355,256.22697 z" id="path4045" style="fill:#272323;fill-opacity:1;fill-rule:nonzero;stroke:none"/>
  <path d="M 97.351291,266.07561 C 100.17355,269.05412 106.06712,272.19866 109.96848,269.00041 C 113.26927,258.65862 140.87668,245.88517 150.51535,240.36759 C 154.1384,238.25822 147.91282,235.76799 146.1843,235.01116 C 139.09445,238.47307 96.760471,257.36954 97.351291,266.07561 z" id="path4047" style="fill:#eebc00;fill-opacity:1;fill-rule:nonzero;stroke:none"/>
  <path d="M 146.83372,256.22697 C 143.36692,253.30217 138.65988,250.37737 133.83567,247.73088 C 124.36302,242.36954 106.01828,233.86857 102.43918,232.13517 L 100.81809,231.32463 L 99.196991,232.03263 C 98.650121,232.24259 97.893281,232.56974 97.029031,232.94572 C 96.159891,233.38029 95.080781,233.98088 94.104221,234.67912 C 92.424531,235.92424 88.689181,240.47502 94.323951,243.71721 C 99.084691,246.48576 114.29953,253.90276 120.79368,258.12151 C 127.34153,262.35002 131.99973,266.51017 133.24484,270.35783 L 133.5134,271.33439 L 134.38254,272.03263 C 141.15012,277.61369 149.5925,271.65666 152.35618,268.78557 L 153.22043,267.86759 L 153.26925,266.61759 C 153.60129,262.45256 149.96848,258.82463 146.83372,256.22697 z" id="path4049" style="fill:#272323;fill-opacity:1;fill-rule:nonzero;stroke:none"/>
  <path d="M 149.64622,266.07561 C 146.83372,269.05412 140.9841,272.19866 137.0925,269.00041 C 133.73313,258.65862 106.12083,245.88517 96.540741,240.36759 C 92.912821,238.25822 99.084691,235.76799 100.8718,235.01116 C 107.96653,238.47307 150.24192,257.36954 149.64622,266.07561 z" id="path4051" style="fill:#eebc00;fill-opacity:1;fill-rule:nonzero;stroke:none"/>
  <path d="M 208.22043,59.669363 C 205.35422,61.891033 200.53,62.369543 197.28293,58.643973 C 178.8259,37.203533 152.5173,23.990643 123.55247,23.990643 C 94.538791,23.990643 68.176491,37.203533 49.719461,58.643973 C 46.467501,62.369543 41.648171,61.891033 38.781961,59.669363 C 35.969461,57.501383 34.402071,53.175223 37.644261,49.439873 C 58.703831,24.967213 89.289771,9.3812732 123.55247,9.3812732 C 157.71262,9.3812732 188.29855,24.967213 209.35813,49.439873 C 212.60519,53.175223 211.09153,57.501383 208.22043,59.669363 z" id="path4053" style="fill:#272323;fill-opacity:1;fill-rule:nonzero;stroke:none"/>
  <path d="M 40.241921,51.383223 C 60.759491,27.618573 90.422581,12.516033 123.55247,12.516033 C 156.62863,12.516033 186.2966,27.618573 206.81418,51.383223 C 210.49094,55.719163 203.62082,60.968183 199.88547,56.637133 C 180.88645,34.552173 153.60129,20.533623 123.55247,20.533623 C 93.401101,20.533623 66.174531,34.552173 47.116921,56.637133 C 43.440161,60.968183 36.506571,55.719163 40.241921,51.383223 z" id="path4055" style="fill:#eebc00;fill-opacity:1;fill-rule:nonzero;stroke:none"/>
  <path d="M 167.67355,18.687913 C 173.41574,25.616623 175.4177,34.552173 170.32493,40.343183 L 170.21262,40.445723 L 166.43332,43.214283 L 166.32102,43.321693 C 159.11887,46.515063 150.34934,42.511163 144.61203,35.631273 C 138.55247,28.326583 131.67747,14.195723 133.89425,4.2933832 L 134.54855,1.4222832 L 137.62962,1.3685732 C 149.26535,0.93401322 161.77512,11.651783 167.67355,18.687913 z" id="path4057" style="fill:#272323;fill-opacity:1;fill-rule:nonzero;stroke:none"/>
  <path d="M 147.75168,33.360763 C 141.90695,26.324633 135.89622,13.331473 137.79074,5.0453332 C 147.2634,4.7230732 158.738,13.975993 164.5339,21.012133 C 169.83664,27.350023 170.59837,34.176193 167.29758,37.955493 C 165.83274,36.065843 162.2634,31.573663 159.49973,28.648843 C 155.9255,24.859783 145.36887,14.195723 145.36887,14.195723 C 145.36887,14.195723 153.81613,26.427173 156.90207,30.597093 C 159.22629,33.790443 163.02024,38.121513 164.58762,39.967213 C 159.8757,42.022873 153.00559,39.693773 147.75168,33.360763 z" id="path4059" style="fill:#eebc00;fill-opacity:1;fill-rule:nonzero;stroke:none"/>
  <path d="M 194.03587,33.575613 C 197.66379,41.646893 197.11692,50.738693 190.62278,55.123463 L 190.51535,55.230883 L 186.07688,56.964283 L 185.92063,57.013113 C 178.06907,58.365643 170.75949,52.359783 167.07785,44.347093 C 163.23019,35.797283 160.47629,20.475023 165.39817,11.436933 L 166.75559,8.8392832 L 169.78782,9.4838132 C 181.0964,11.974043 190.3005,25.348073 194.03587,33.575613 z" id="path4061" style="fill:#272323;fill-opacity:1;fill-rule:nonzero;stroke:none"/>
  <path d="M 170.75949,42.887133 C 167.02414,34.654713 164.80734,20.689873 168.92355,13.111743 C 178.1716,15.118573 186.67747,26.808033 190.3591,35.040443 C 193.71359,42.457443 192.5759,49.273843 188.35715,52.086343 C 187.4343,49.928143 185.21262,44.727943 183.37668,41.212323 C 180.98899,36.715263 173.738,23.834393 173.738,23.834393 C 173.738,23.834393 178.50363,37.691823 180.33958,42.457443 C 181.69699,46.139083 184.18723,51.222093 185.21262,53.331473 C 180.07102,54.254323 174.06028,50.304123 170.75949,42.887133 z" id="path4063" style="fill:#eebc00;fill-opacity:1;fill-rule:nonzero;stroke:none"/>
  <path d="M 155.43723,45.758223 C 164.09934,48.892993 173.79172,48.082443 178.1716,41.856863 L 178.2839,41.695723 L 180.0173,37.476973 L 180.0173,37.310963 C 181.20872,29.893973 174.60227,23.238693 165.88645,20.099043 C 156.73605,16.744543 140.33958,14.684013 130.91574,19.610763 L 128.21067,21.012133 L 129.02122,23.780683 C 131.99973,34.386163 146.51145,42.511163 155.43723,45.758223 z" id="path4065" style="fill:#272323;fill-opacity:1;fill-rule:nonzero;stroke:none"/>
  <path d="M 164.48019,23.560963 C 155.65695,20.367593 140.71555,18.746513 132.81028,22.857833 C 135.2468,31.461343 147.96653,39.098073 156.84837,42.291423 C 164.80734,45.162523 172.00462,43.858813 174.87082,39.801193 C 172.5466,38.990643 166.97043,37.096123 163.17649,35.523843 C 158.24973,33.409593 144.34348,27.027763 144.34348,27.027763 C 144.34348,27.027763 159.22629,31.031663 164.37278,32.599043 C 168.32297,33.741623 173.84543,35.899823 176.11594,36.768973 C 176.87278,31.949633 172.49289,26.427173 164.48019,23.560963 z" id="path4067" style="fill:#eebc00;fill-opacity:1;fill-rule:nonzero;stroke:none"/>
  <path d="M 214.33859,55.875413 C 215.79855,64.537523 212.92747,73.253343 205.51047,76.021893 L 205.40305,76.070723 L 200.58372,76.773843 L 200.47629,76.773843 C 192.52219,76.285573 186.8923,68.814873 185.43234,60.211343 C 183.91379,51.060963 185.15403,35.523843 192.24875,27.892013 L 194.2507,25.670333 L 197.01438,27.027763 C 207.35618,31.949633 212.82493,47.057043 214.33859,55.875413 z" id="path4069" style="fill:#272323;fill-opacity:1;fill-rule:nonzero;stroke:none"/>
  <path d="M 189.38254,59.615643 C 187.86887,50.792413 189.32394,36.715263 195.22727,30.328533 C 203.67453,34.386163 208.92355,47.652763 210.43723,56.475993 C 211.79465,64.434983 208.92355,70.763113 204.0505,72.555093 C 203.72824,70.274823 202.96653,64.703533 202.04855,60.914473 C 200.91087,55.934013 197.1755,41.803143 197.1755,41.803143 C 197.1755,41.803143 198.25949,56.309983 198.80637,61.402763 C 199.18234,65.245533 200.26145,70.763113 200.69602,73.097093 C 195.49582,72.765063 190.68137,67.574633 189.38254,59.615643 z" id="path4071" style="fill:#eebc00;fill-opacity:1;fill-rule:nonzero;stroke:none"/>
  <path d="M 172.49289,63.458423 C 179.47532,69.195723 188.89425,71.519943 195.28098,67.086343 L 195.44699,67.027763 L 198.58175,63.570723 L 198.69407,63.458423 C 202.48313,56.851973 198.69407,48.404713 191.65793,42.672283 C 184.24094,36.607833 169.6218,29.405683 158.96262,30.973073 L 155.9255,31.407633 L 155.65695,34.332443 C 154.62668,45.216233 165.29074,57.555093 172.49289,63.458423 z" id="path4073" style="fill:#272323;fill-opacity:1;fill-rule:nonzero;stroke:none"/>
  <path d="M 189.05539,45.484783 C 181.91184,39.635173 168.48899,33.307043 159.55344,34.654713 C 158.738,43.536543 167.94699,54.796313 175.09055,60.645923 C 181.53098,65.948663 188.78684,66.974043 192.95675,64.107833 C 191.05734,62.594163 186.45774,59.019943 183.47922,56.309983 C 179.63645,52.740643 168.86497,42.291423 168.86497,42.291423 C 168.86497,42.291423 181.42355,50.841233 185.7009,53.932043 C 188.94797,56.309983 193.39133,60.103923 195.17355,61.671313 C 197.66379,57.398843 195.54953,50.792413 189.05539,45.484783 z" id="path4075" style="fill:#eebc00;fill-opacity:1;fill-rule:nonzero;stroke:none"/>
  <path d="M 228.30344,80.670333 C 227.81515,89.386163 223.05442,97.398843 215.20285,98.643973 L 215.03684,98.643973 L 210.22239,98.424243 L 210.11497,98.375413 C 202.42942,96.368573 198.58175,87.984783 199.07004,79.210373 C 199.60715,69.952563 204.26535,55.064873 212.87375,48.951583 L 215.31515,47.218183 L 217.75168,49.005293 C 226.73605,55.875413 228.79172,71.685963 228.30344,80.670333 z" id="path4077" style="fill:#272323;fill-opacity:1;fill-rule:nonzero;stroke:none"/>
  <path d="M 203.02024,79.425223 C 203.50852,70.494543 208.05442,57.013113 215.26145,51.930093 C 222.61984,57.555093 224.84153,71.578533 224.35324,80.455493 C 223.86497,88.521893 219.69504,94.151783 214.54855,94.967213 C 214.77317,92.633223 215.20285,87.061933 215.14914,83.160573 C 215.14914,78.077563 214.60715,63.512133 214.60715,63.512133 C 214.60715,63.512133 212.43918,77.965263 211.84837,83.004323 C 211.36008,86.842213 211.19894,92.476973 211.14524,94.801193 C 206.11105,93.502373 202.58567,87.437913 203.02024,79.425223 z" id="path4079" style="fill:#eebc00;fill-opacity:1;fill-rule:nonzero;stroke:none"/>
  <path d="M 236.0964,108.49748 C 233.55247,116.94474 227.05832,123.70744 219.0505,123.27287 L 218.9382,123.22404 L 214.28488,121.97404 L 214.11887,121.92522 C 207.13645,118.34612 205.45675,109.30803 208.0007,100.91447 C 210.71067,92.042413 218.83078,78.453533 228.67942,74.342213 L 231.49192,73.145923 L 233.39133,75.475023 C 240.53977,84.029713 238.75265,99.889083 236.0964,108.49748 z" id="path4081" style="fill:#272323;fill-opacity:1;fill-rule:nonzero;stroke:none"/>
  <path d="M 211.79465,101.94963 C 214.3923,93.394943 222.01925,81.212323 230.25168,77.745533 C 236.0964,84.781663 234.905,98.912523 232.30734,107.47209 C 229.92453,115.21134 224.50949,119.81096 219.31907,119.53752 C 220.0759,117.32072 221.8093,111.96428 222.73215,108.17033 C 223.91868,103.18987 226.84348,88.897873 226.84348,88.897873 C 226.84348,88.897873 221.32102,102.49162 219.52903,107.30607 C 218.18137,110.98772 216.66282,116.40276 216.0134,118.67814 C 211.4675,116.29044 209.46555,109.68401 211.79465,101.94963 z" id="path4083" style="fill:#eebc00;fill-opacity:1;fill-rule:nonzero;stroke:none"/>
  <path d="M 186.8923,87.330493 C 192.36105,94.420333 200.91087,98.697673 208.22043,95.719163 L 208.38157,95.665443 L 212.28293,93.014083 L 212.39035,92.906663 C 217.63938,87.271893 215.95969,78.233813 210.54465,71.197673 C 204.75363,63.673263 192.19504,53.551193 181.47727,52.848073 L 178.39622,52.633223 L 177.41965,55.387133 C 173.84543,65.782633 181.26243,80.079513 186.8923,87.330493 z" id="path4085" style="fill:#272323;fill-opacity:1;fill-rule:nonzero;stroke:none"/>
  <path d="M 207.35618,73.365643 C 201.77512,66.163493 190.13449,57.125413 181.15012,56.529713 C 178.23019,65.025793 184.50949,77.965263 190.08078,85.162523 C 195.06125,91.661543 201.88743,94.254323 206.65305,92.310963 C 205.13449,90.475023 201.56028,85.982833 199.28488,82.725993 C 196.41868,78.453533 188.41087,65.948663 188.41087,65.948663 C 188.41087,65.948663 198.58175,76.934983 201.99484,80.890063 C 204.64622,83.868573 208.0007,88.521893 209.41184,90.416423 C 212.87375,86.734783 212.33664,79.859783 207.35618,73.365643 z" id="path4087" style="fill:#eebc00;fill-opacity:1;fill-rule:nonzero;stroke:none"/>
  <path d="M 238.4255,135.89006 C 234.20675,143.62932 226.46262,149.15178 218.71848,147.25237 L 218.56223,147.25237 L 214.28488,145.14787 L 214.17258,145.09416 C 208.0007,140.26994 208.16672,131.23186 212.39035,123.43888 C 216.88254,115.15276 227.5466,103.30217 238.04953,101.02678 L 241.07688,100.37737 L 242.488,102.97502 C 247.73703,112.72112 242.75657,127.93107 238.4255,135.89006 z" id="path4089" style="fill:#272323;fill-opacity:1;fill-rule:nonzero;stroke:none"/>
  <path d="M 215.90598,125.11369 C 220.18332,117.15471 230.20285,106.54924 238.96262,104.64982 C 243.29855,112.60881 239.24094,126.25138 234.905,134.21037 C 231.06712,141.35881 224.7341,144.87443 219.69504,143.68303 C 220.88645,141.62737 223.69894,136.75432 225.37863,133.18498 C 227.5466,128.52678 233.33762,114.99162 233.33762,114.99162 C 233.33762,114.99162 225.16379,127.38908 222.40012,131.72013 C 220.34445,135.07463 217.75168,140.11369 216.66282,142.22307 C 212.6589,139.07853 212.00949,132.26213 215.90598,125.11369 z" id="path4091" style="fill:#eebc00;fill-opacity:1;fill-rule:nonzero;stroke:none"/>
  <path d="M 197.06809,114.94279 C 201.13059,122.78947 208.81613,128.36564 216.56028,126.62737 L 216.71653,126.62737 L 221.05247,124.62541 L 221.155,124.51799 C 227.38059,119.86954 227.38059,110.71916 223.32297,102.86759 C 219.0505,94.532633 208.5427,82.516033 198.09348,80.079513 L 195.11497,79.322673 L 193.65988,81.915443 C 188.19113,91.554123 192.90305,106.87151 197.06809,114.94279 z" id="path4093" style="fill:#272323;fill-opacity:1;fill-rule:nonzero;stroke:none"/>
  <path d="M 219.80734,104.49357 C 215.63743,96.480883 205.83762,85.704513 197.11692,83.648843 C 192.68332,91.554123 196.47239,105.25041 200.58372,113.31193 C 204.37765,120.51408 210.54465,124.19572 215.63743,123.05803 C 214.49484,120.94866 211.73605,115.96818 210.16868,112.39884 C 208.113,107.68204 202.53195,94.098073 202.53195,94.098073 C 202.53195,94.098073 210.49094,106.60294 213.14719,111.04142 C 215.20285,114.40079 217.69309,119.48869 218.66477,121.64689 C 222.78098,118.56584 223.5427,111.74454 219.80734,104.49357 z" id="path4095" style="fill:#eebc00;fill-opacity:1;fill-rule:nonzero;stroke:none"/>
  <path d="M 235.33958,162.52579 C 229.76828,169.50822 221.10618,173.67814 213.7966,170.53362 L 213.6843,170.47502 L 209.8464,167.77482 L 209.7341,167.66252 C 204.53879,161.92522 206.37962,152.99454 212.00949,146.00724 C 217.90793,138.59026 230.63254,128.74162 241.40403,128.19963 L 244.48997,128.03849 L 245.40793,130.79728 C 248.82102,141.19279 241.07688,155.37737 235.33958,162.52579 z" id="path4097" style="fill:#272323;fill-opacity:1;fill-rule:nonzero;stroke:none"/>
  <path d="M 215.14914,148.22892 C 220.83274,141.08049 232.63449,132.36954 241.61887,131.88616 C 244.37765,140.38224 237.88352,153.20939 232.2048,160.30412 C 227.05832,166.74454 220.18332,169.18596 215.4714,167.17424 C 216.98997,165.33829 220.72043,160.94866 222.99582,157.70158 C 225.97434,153.47794 234.20675,141.13908 234.20675,141.13908 C 234.20675,141.13908 223.81125,151.96428 220.34445,155.81193 C 217.63938,158.79044 214.17258,163.33634 212.71262,165.23088 C 209.35813,161.49064 210.00265,154.67424 215.14914,148.22892 z" id="path4099" style="fill:#eebc00;fill-opacity:1;fill-rule:nonzero;stroke:none"/>
  <path d="M 199.4509,141.35881 C 201.1843,149.90862 207.02903,157.21329 215.03684,157.43303 L 215.14914,157.43303 L 219.90988,156.56877 L 220.0759,156.51017 C 227.33175,153.53166 229.87082,144.71329 228.1423,136.15862 C 226.24778,127.06193 219.42649,112.88713 210.00265,107.95549 L 207.30247,106.54924 L 205.1882,108.71721 C 197.28293,116.66642 197.60519,132.58439 199.4509,141.35881 z" id="path4101" style="fill:#272323;fill-opacity:1;fill-rule:nonzero;stroke:none"/>
  <path d="M 224.24582,136.86662 C 222.45383,128.09221 215.95969,115.31877 208.113,111.20744 C 201.61887,117.75529 201.50657,131.93498 203.29855,140.65079 C 204.91965,148.55119 209.90012,153.59026 215.14914,153.69767 C 214.60715,151.42228 213.30832,145.95842 212.77122,142.11564 C 212.05832,137.13517 210.43723,122.62346 210.43723,122.62346 C 210.43723,122.62346 214.71458,136.64689 216.0134,141.51506 C 217.03879,145.25041 218.07394,150.83147 218.44993,153.10197 C 223.21067,151.15373 225.86692,144.71329 224.24582,136.86662 z" id="path4103" style="fill:#eebc00;fill-opacity:1;fill-rule:nonzero;stroke:none"/>
  <path d="M 225.7009,189.31779 C 218.71848,195.00138 209.30442,197.37932 202.9177,192.94572 L 202.75168,192.83342 L 199.60715,189.43009 L 199.50462,189.26408 C 195.71555,182.71623 199.50462,174.26897 206.54074,168.53166 C 213.95774,162.46721 228.57688,155.26994 239.24094,156.83732 L 242.27317,157.27189 L 242.59543,160.13811 C 243.56712,171.07561 232.90305,183.41447 225.7009,189.31779 z" id="path4105" style="fill:#272323;fill-opacity:1;fill-rule:nonzero;stroke:none"/>
  <path d="M 209.14328,171.34416 C 216.28684,165.49454 229.76828,159.16642 238.64035,160.51408 C 239.4509,169.39592 230.25168,180.66057 223.10813,186.50529 C 216.66282,191.75432 209.41184,192.83342 205.24192,189.90862 C 207.13645,188.45353 211.73605,184.87932 214.71458,182.11564 C 218.56223,178.60002 229.33372,168.09709 229.33372,168.09709 C 229.33372,168.09709 216.77512,176.70549 212.49289,179.79142 C 209.24582,182.17424 204.81223,185.96329 203.02024,187.53068 C 200.53,183.20451 202.64425,176.59807 209.14328,171.34416 z" id="path4107" style="fill:#eebc00;fill-opacity:1;fill-rule:nonzero;stroke:none"/>
  <path d="M 193.71359,166.04142 C 192.73703,174.70353 196.09153,183.30704 203.67453,185.69474 L 203.77707,185.74846 L 208.60129,186.23186 L 208.75754,186.17814 C 216.66282,185.31388 221.8093,177.56974 222.78098,168.90763 C 223.86497,159.70353 221.69699,144.28362 214.22629,137.02287 L 212.11692,134.91349 L 209.41184,136.37834 C 199.34348,141.79338 194.73899,157.11076 193.71359,166.04142 z" id="path4109" style="fill:#272323;fill-opacity:1;fill-rule:nonzero;stroke:none"/>
  <path d="M 218.88449,168.53166 C 219.86105,159.65471 217.63938,145.63127 211.41379,139.51311 C 203.18625,144.00529 198.64035,157.54533 197.66379,166.41741 C 196.74094,174.37638 199.99289,180.60197 204.91965,182.17424 C 205.0759,179.84513 205.56418,174.26897 206.2673,170.42619 C 207.13645,165.39201 210.11497,151.10002 210.11497,151.10002 C 210.11497,151.10002 209.7927,165.66057 209.56809,170.75334 C 209.41184,174.64494 208.60129,180.17228 208.27903,182.49651 C 213.46945,181.95939 217.96164,176.49064 218.88449,168.53166 z" id="path4111" style="fill:#eebc00;fill-opacity:1;fill-rule:nonzero;stroke:none"/>
  <path d="M 211.62863,213.40959 C 203.62082,217.73576 193.92844,218.39006 188.5134,212.86759 L 188.41087,212.75529 L 186.02317,208.80509 L 185.96945,208.69767 C 183.58664,201.54924 189.00168,193.92228 197.01438,189.58634 C 205.56418,184.93791 221.37473,180.49454 231.5505,183.96134 L 234.41672,184.93791 L 234.09445,187.80412 C 232.90305,198.68303 219.90988,208.91741 211.62863,213.40959 z" id="path4113" style="fill:#272323;fill-opacity:1;fill-rule:nonzero;stroke:none"/>
  <path d="M 199.01633,192.78459 C 207.19015,188.34123 221.69699,184.55217 230.20285,187.41838 C 229.1677,196.35392 217.90793,205.71916 209.68039,210.16252 C 202.2634,214.22013 194.95872,213.94669 191.4382,210.31877 C 193.60129,209.23967 198.85519,206.52971 202.32199,204.42033 C 206.81418,201.60783 219.48019,193.26799 219.48019,193.26799 C 219.48019,193.26799 205.45675,199.43987 200.6423,201.71526 C 196.90695,203.44866 191.81418,206.37346 189.7048,207.56487 C 188.19113,202.90666 191.59934,196.78849 199.01633,192.78459 z" id="path4115" style="fill:#eebc00;fill-opacity:1;fill-rule:nonzero;stroke:none"/>
  <path d="M 180.72043,190.18693 C 177.52707,198.41447 178.55247,207.50627 185.26633,211.56877 L 185.37863,211.62248 L 189.92453,213.18987 L 190.08078,213.18987 C 197.98605,214.16642 204.97337,207.82853 208.16672,199.60588 C 211.52122,190.88517 213.46945,175.45549 208.05442,166.69572 L 206.54074,164.14689 L 203.56223,164.95744 C 192.41477,167.98478 183.9675,181.79338 180.72043,190.18693 z" id="path4117" style="fill:#272323;fill-opacity:1;fill-rule:nonzero;stroke:none"/>
  <path d="M 204.43137,198.35588 C 207.67844,189.96721 209.14328,175.89006 204.64622,168.53166 C 195.49582,170.96329 187.64425,183.09221 184.40207,191.48576 C 181.47727,199.00529 182.99582,205.77287 187.38059,208.42912 C 188.19113,206.20744 190.08078,200.90471 191.71164,197.33049 C 193.87473,192.67717 200.42747,179.46916 200.42747,179.46916 C 200.42747,179.46916 196.41868,193.54142 194.85129,198.35588 C 193.65988,202.14982 191.49192,207.34026 190.56907,209.50822 C 195.76925,210.16252 201.50657,205.88517 204.43137,198.35588 z" id="path4119" style="fill:#eebc00;fill-opacity:1;fill-rule:nonzero;stroke:none"/>
  <path d="M 191.38449,234.79142 C 182.50754,237.33537 172.92747,235.87053 168.97239,229.37638 L 168.92355,229.21526 L 167.45872,224.88419 L 167.45872,224.77189 C 166.863,217.24748 173.95285,211.02189 182.8298,208.48283 C 192.24875,205.77287 208.75754,204.74748 217.8005,210.26506 L 220.39817,211.89103 L 219.37278,214.60099 C 215.58372,224.93791 200.53,232.13517 191.38449,234.79142 z" id="path4121" style="fill:#272323;fill-opacity:1;fill-rule:nonzero;stroke:none"/>
  <path d="M 183.9675,211.99846 C 193.0593,209.40079 208.113,208.80509 215.63743,213.40959 C 212.5466,221.85197 199.28488,228.61954 190.2468,231.21721 C 182.07297,233.54631 174.98313,231.75432 172.38059,227.54044 C 174.81712,226.88616 180.55442,225.37248 184.40207,224.01994 C 189.48997,222.22794 203.83567,216.81291 203.83567,216.81291 C 203.83567,216.81291 188.67942,219.85002 183.43039,221.04142 C 179.4216,221.95939 173.738,223.69279 171.41379,224.44963 C 171.03293,219.58147 175.79368,214.38127 183.9675,211.99846 z" id="path4123" style="fill:#eebc00;fill-opacity:1;fill-rule:nonzero;stroke:none"/>
  <path d="M 162.41965,210.37737 C 157.11692,217.57951 155.60324,226.56388 160.96458,232.13517 L 161.07199,232.24259 L 165.02219,234.84513 L 165.18332,234.89884 C 172.5466,237.76994 181.0427,233.33147 186.35519,226.18303 C 192.0339,218.60491 198.09348,204.15178 195.33958,194.35197 L 194.52414,191.53459 L 191.4382,191.58829 C 179.85129,191.75432 167.8884,203.07267 162.41965,210.37737 z" id="path4125" style="fill:#272323;fill-opacity:1;fill-rule:nonzero;stroke:none"/>
  <path d="M 183.15207,224.01994 C 188.56712,216.71037 193.81613,203.50237 191.54563,195.27482 C 182.01925,195.43596 171.08175,205.23088 165.66672,212.54533 C 160.73997,219.09318 160.36399,225.96329 163.88449,229.59612 C 165.24192,227.64299 168.5427,222.99454 171.13547,219.95744 C 174.49484,215.95353 184.45578,204.80119 184.45578,204.80119 C 184.45578,204.80119 176.65793,217.41349 173.84543,221.74454 C 171.67747,225.05022 168.15695,229.59612 166.64328,231.43204 C 171.46262,233.33147 178.23019,230.62151 183.15207,224.01994 z" id="path4127" style="fill:#eebc00;fill-opacity:1;fill-rule:nonzero;stroke:none"/>
  <path d="M 165.77903,251.41252 C 156.47239,251.90079 147.53684,248.27287 145.36887,241.07072 L 145.36887,240.90471 L 145.10032,236.35881 L 145.10032,236.25627 C 146.45285,228.83439 154.94894,224.39592 164.20675,223.96134 C 174.06028,223.47307 190.3005,226.23674 197.66379,233.65373 L 199.77317,235.76799 L 198.09348,238.19963 C 191.76047,247.40862 175.25168,250.92424 165.77903,251.41252 z" id="path4129" style="fill:#272323;fill-opacity:1;fill-rule:nonzero;stroke:none"/>
  <path d="M 164.4216,227.64299 C 173.90403,227.20842 188.62082,230.03068 194.7927,236.19767 C 189.59739,243.71721 175.03684,247.24259 165.56418,247.67228 C 157.00949,248.10686 150.62278,244.80607 149.21164,240.04044 C 151.70188,239.99162 157.6589,239.82561 161.77512,239.39103 C 167.13157,238.84904 182.45383,236.79338 182.45383,236.79338 C 182.45383,236.79338 166.97043,236.30509 161.55539,236.30509 C 157.43918,236.25627 151.49192,236.68107 149.00168,236.84709 C 149.86594,232.03263 155.8718,228.07756 164.4216,227.64299 z" id="path4131" style="fill:#eebc00;fill-opacity:1;fill-rule:nonzero;stroke:none"/>
  <path d="M 140.81809,222.50627 C 133.24484,227.48674 128.53293,235.49454 131.57004,242.42814 L 131.62375,242.58439 L 134.38254,246.26603 L 134.48997,246.37346 C 140.39328,251.46623 149.96848,250.05509 157.60519,245.02092 C 165.66672,239.71329 176.65793,228.07756 177.58078,218.01408 L 177.84934,215.08928 L 174.98313,214.16642 C 163.9968,210.59709 148.67453,217.35978 140.81809,222.50627 z" id="path4133" style="fill:#272323;fill-opacity:1;fill-rule:nonzero;stroke:none"/>
  <path d="M 155.3298,241.99357 C 163.12765,236.84709 172.86887,226.07561 173.67942,217.68204 C 164.69504,214.75724 150.89133,220.44572 143.09837,225.53362 C 136.11594,230.13322 133.19113,237.44767 135.19309,241.99357 C 137.19504,240.58244 141.30637,237.06682 145.53488,234.24454 C 152.19015,229.86467 163.56223,224.34221 163.56223,224.34221 C 163.56223,224.34221 153.75754,232.03263 147.42942,236.84709 C 143.42063,239.87932 139.19699,243.34123 137.14133,244.58634 C 140.9841,247.88713 148.34739,246.59318 155.3298,241.99357 z" id="path4135" style="fill:#eebc00;fill-opacity:1;fill-rule:nonzero;stroke:none"/>
  <path d="M 79.870821,18.687913 C 74.133521,25.616623 72.126681,34.552173 77.160861,40.343183 L 77.273171,40.445723 L 81.115941,43.214283 L 81.218481,43.321693 C 88.420631,46.515063 97.195041,42.511163 102.87375,35.631273 C 108.93333,28.326583 115.86692,14.195723 113.59153,4.2933832 L 112.94699,1.4222832 L 109.85618,1.3685732 C 98.274141,0.93401322 85.720431,11.651783 79.870821,18.687913 z" id="path4137" style="fill:#272323;fill-opacity:1;fill-rule:nonzero;stroke:none"/>
  <path d="M 99.792701,33.360763 C 105.63254,26.324633 111.58958,13.331473 109.74875,5.0453332 C 100.22727,4.7230732 88.801491,13.975993 82.951881,21.012133 C 77.702851,27.350023 76.946021,34.176193 80.251681,37.955493 C 81.706761,36.065843 85.285861,31.573663 87.986061,28.648843 C 91.560281,24.859783 102.11692,14.195723 102.11692,14.195723 C 102.11692,14.195723 93.669651,26.427173 90.642311,30.597093 C 88.259491,33.790443 84.519261,38.121513 82.898171,39.967213 C 87.610081,42.022873 94.538791,39.693773 99.792701,33.360763 z" id="path4139" style="fill:#eebc00;fill-opacity:1;fill-rule:nonzero;stroke:none"/>
  <path d="M 53.503641,33.575613 C 49.880591,41.646893 50.422581,50.738693 56.863011,55.123463 L 57.024141,55.230883 L 61.462621,56.964283 L 61.628641,57.013113 C 69.421601,58.365643 76.784891,52.359783 80.407931,44.347093 C 84.255591,35.797283 87.009491,20.475023 82.141331,11.436933 L 80.739961,8.8392832 L 77.761451,9.4838132 C 66.443091,11.974043 57.238991,25.348073 53.503641,33.575613 z" id="path4141" style="fill:#272323;fill-opacity:1;fill-rule:nonzero;stroke:none"/>
  <path d="M 76.784891,42.887133 C 80.461641,34.654713 82.683321,20.689873 78.625711,13.111743 C 69.367891,15.118573 60.871801,26.808033 57.136451,35.040443 C 53.777071,42.457443 54.968481,49.273843 59.192111,52.086343 C 60.105201,49.928143 62.273171,44.727943 64.118871,41.212323 C 66.550511,36.715263 73.806371,23.834393 73.806371,23.834393 C 73.806371,23.834393 68.987031,37.691823 67.199921,42.457443 C 65.798561,46.139083 63.362031,51.222093 62.331761,53.331473 C 67.419651,54.254323 73.425511,50.304123 76.784891,42.887133 z" id="path4143" style="fill:#eebc00;fill-opacity:1;fill-rule:nonzero;stroke:none"/>
  <path d="M 92.102271,45.758223 C 83.440161,48.892993 73.747781,48.082443 69.314181,41.856863 L 69.255591,41.695723 L 67.527071,37.476973 L 67.473361,37.310963 C 66.335671,29.893973 72.937231,23.238693 81.599341,20.099043 C 90.803441,16.744543 107.20969,14.684013 116.62864,19.610763 L 119.32883,21.012133 L 118.51828,23.780683 C 115.54465,34.386163 100.9841,42.511163 92.102271,45.758223 z" id="path4145" style="fill:#272323;fill-opacity:1;fill-rule:nonzero;stroke:none"/>
  <path d="M 83.005591,23.560963 C 91.887421,20.367593 106.82883,18.746513 114.7341,22.857833 C 112.23899,31.461343 99.519271,39.098073 90.700901,42.291423 C 82.683321,45.162523 75.481171,43.858813 72.614961,39.801193 C 74.944071,38.990643 80.573951,37.096123 84.363011,35.523843 C 89.236061,33.409593 103.2009,27.027763 103.2009,27.027763 C 103.2009,27.027763 88.313211,31.031663 83.171601,32.599043 C 79.216531,33.741623 73.698951,35.899823 71.423561,36.768973 C 70.666721,31.949633 75.046601,26.427173 83.005591,23.560963 z" id="path4147" style="fill:#eebc00;fill-opacity:1;fill-rule:nonzero;stroke:none"/>
  <path d="M 33.200901,55.875413 C 31.745821,64.537523 34.612031,73.253343 41.975321,76.021893 L 42.136451,76.070723 L 46.902071,76.773843 L 47.063211,76.773843 C 55.022191,76.285573 60.593481,68.814873 62.058321,60.211343 C 63.630591,51.060963 62.331761,35.523843 55.290741,27.892013 L 53.235081,25.670333 L 50.530001,27.027763 C 40.134491,31.949633 34.665741,47.057043 33.200901,55.875413 z" id="path4149" style="fill:#272323;fill-opacity:1;fill-rule:nonzero;stroke:none"/>
  <path d="M 58.161841,59.615643 C 59.626681,50.792413 58.215551,36.715263 52.312231,30.328533 C 43.816141,34.386163 38.562231,47.652763 37.102271,56.475993 C 35.749731,64.434983 38.615941,70.763113 43.440161,72.555093 C 43.762421,70.274823 44.572971,64.703533 45.442111,60.914473 C 46.628641,55.934013 50.368871,41.803143 50.368871,41.803143 C 50.368871,41.803143 49.284891,56.309983 48.742891,61.402763 C 48.366921,65.245533 47.278051,70.763113 46.794651,73.097093 C 51.989961,72.765063 56.804421,67.574633 58.161841,59.615643 z" id="path4151" style="fill:#eebc00;fill-opacity:1;fill-rule:nonzero;stroke:none"/>
  <path d="M 75.046601,63.458423 C 68.010471,69.195723 58.650121,71.519943 52.209691,67.086343 L 52.097391,67.027763 L 48.908911,63.570723 L 48.855201,63.458423 C 45.061251,56.851973 48.855201,48.404713 55.837621,42.672283 C 63.308321,36.607833 77.917701,29.405683 88.586641,30.973073 L 91.613991,31.407633 L 91.887421,34.332443 C 92.912821,45.216233 82.253641,57.555093 75.046601,63.458423 z" id="path4153" style="fill:#272323;fill-opacity:1;fill-rule:nonzero;stroke:none"/>
  <path d="M 58.435281,45.484783 C 65.573951,39.635173 79.060281,33.307043 87.932351,34.654713 C 88.801491,43.536543 79.597391,54.796313 72.453831,60.645923 C 66.008521,65.948663 58.757541,66.974043 54.533911,64.107833 C 56.482151,62.594163 61.081761,59.019943 64.006571,56.309983 C 67.854221,52.740643 78.625711,42.291423 78.625711,42.291423 C 78.625711,42.291423 66.120821,50.841233 61.843481,53.932043 C 58.537821,56.309983 54.157931,60.103923 52.312231,61.671313 C 49.880591,57.398843 51.989961,50.792413 58.435281,45.484783 z" id="path4155" style="fill:#eebc00;fill-opacity:1;fill-rule:nonzero;stroke:none"/>
  <path d="M 19.236061,80.670333 C 19.724341,89.386163 24.441141,97.398843 32.341531,98.643973 L 32.448951,98.643973 L 37.268281,98.424243 L 37.429421,98.375413 C 45.114961,96.368573 48.908911,87.984783 48.420631,79.210373 C 47.932351,69.952563 43.274141,55.064873 34.665741,48.951583 L 32.175511,47.218183 L 29.797581,49.005293 C 20.759491,55.875413 18.747781,71.685963 19.236061,80.670333 z" id="path4157" style="fill:#272323;fill-opacity:1;fill-rule:nonzero;stroke:none"/>
  <path d="M 44.519261,79.425223 C 43.977271,70.494543 39.485081,57.013113 32.287821,51.930093 C 24.870821,57.555093 22.702851,71.578533 23.191141,80.455493 C 23.625711,88.521893 27.844461,94.151783 32.990941,94.967213 C 32.771211,92.633223 32.341531,87.061933 32.341531,83.160573 C 32.390351,78.077563 32.937231,63.512133 32.937231,63.512133 C 32.937231,63.512133 35.046601,77.965263 35.691141,83.004323 C 36.125711,86.842213 36.291721,92.476973 36.345431,94.801193 C 41.384491,93.502373 44.953831,87.437913 44.519261,79.425223 z" id="path4159" style="fill:#eebc00;fill-opacity:1;fill-rule:nonzero;stroke:none"/>
  <path d="M 11.389381,108.49748 C 13.991921,116.94474 20.486061,123.70744 28.445041,123.27287 L 28.606171,123.22404 L 33.259491,121.97404 L 33.366921,121.92522 C 40.349341,118.34612 42.082741,109.30803 39.538791,100.91447 C 36.833711,92.042413 28.708711,78.453533 18.860081,74.342213 L 16.047581,73.145923 L 14.148171,75.475023 C 7.0094914,84.029713 8.7868414,99.889083 11.389381,108.49748 z" id="path4161" style="fill:#272323;fill-opacity:1;fill-rule:nonzero;stroke:none"/>
  <path d="M 35.749731,101.94963 C 33.098361,93.394943 25.466531,81.212323 17.234101,77.745533 C 11.389381,84.781663 12.580781,98.912523 15.232151,107.47209 C 17.561251,115.21134 23.030001,119.81096 28.220431,119.53752 C 27.468481,117.32072 25.681371,111.96428 24.763401,108.17033 C 23.625711,103.18987 20.647191,88.897873 20.647191,88.897873 C 20.647191,88.897873 26.164771,102.49162 28.010471,107.30607 C 29.363011,110.98772 30.876681,116.40276 31.477271,118.67814 C 36.071991,116.29044 38.078831,109.68401 35.749731,101.94963 z" id="path4163" style="fill:#eebc00;fill-opacity:1;fill-rule:nonzero;stroke:none"/>
  <path d="M 60.652071,87.330493 C 55.183321,94.420333 46.628641,98.697673 39.270241,95.719163 L 39.157931,95.665443 L 35.261451,93.014083 L 35.154031,92.906663 C 29.846411,87.271893 31.526101,78.233813 36.994851,71.197673 C 42.785861,63.673263 55.290741,53.551193 66.062231,52.848073 L 69.153051,52.633223 L 70.124731,55.387133 C 73.698951,65.782633 66.228241,80.079513 60.652071,87.330493 z" id="path4165" style="fill:#272323;fill-opacity:1;fill-rule:nonzero;stroke:none"/>
  <path d="M 40.183321,73.365643 C 45.764381,66.163493 57.351291,57.125413 66.335671,56.529713 C 69.314181,65.025793 63.030001,77.965263 57.458711,85.162523 C 52.424531,91.661543 45.652071,94.254323 40.837621,92.310963 C 42.351291,90.475023 45.984101,85.982833 48.200901,82.725993 C 51.120821,78.453533 59.079811,65.948663 59.079811,65.948663 C 59.079811,65.948663 48.957741,76.934983 45.549531,80.890063 C 42.898171,83.868573 39.485081,88.521893 38.078831,90.416423 C 34.665741,86.734783 35.154031,79.859783 40.183321,73.365643 z" id="path4167" style="fill:#eebc00;fill-opacity:1;fill-rule:nonzero;stroke:none"/>
  <path d="M 9.0651614,135.89006 C 13.288791,143.62932 21.081761,149.15178 28.767311,147.25237 L 28.933321,147.25237 L 33.259491,145.14787 L 33.366921,145.09416 C 39.485081,140.26994 39.382541,131.23186 35.154031,123.43888 C 30.661841,115.15276 19.939181,103.30217 9.4411414,101.02678 L 6.4626214,100.37737 L 5.0563714,102.97502 C -0.25124855,112.72112 4.7292214,127.93107 9.0651614,135.89006 z" id="path4169" style="fill:#272323;fill-opacity:1;fill-rule:nonzero;stroke:none"/>
  <path d="M 31.633521,125.11369 C 27.307351,117.15471 17.346411,106.54924 8.5768814,104.64982 C 4.2409414,112.60881 8.3083214,126.25138 12.580781,134.21037 C 16.482151,141.35881 22.761451,144.87443 27.790741,143.68303 C 26.599341,141.62737 23.786841,136.75432 22.160861,133.18498 C 19.997781,128.52678 14.148171,114.99162 14.148171,114.99162 C 14.148171,114.99162 22.380591,127.38908 25.085671,131.72013 C 27.195041,135.07463 29.797581,140.11369 30.822971,142.22307 C 34.831761,139.07853 35.481171,132.26213 31.633521,125.11369 z" id="path4171" style="fill:#eebc00;fill-opacity:1;fill-rule:nonzero;stroke:none"/>
  <path d="M 50.476291,114.94279 C 46.413791,122.78947 38.728241,128.36564 30.988991,126.62737 L 30.822971,126.62737 L 26.496801,124.62541 L 26.384491,124.51799 C 20.158911,119.86954 20.105201,110.71916 24.162821,102.86759 C 28.498751,94.532633 38.996801,82.516033 49.446021,80.079513 L 52.424531,79.322673 L 53.884491,81.915443 C 59.353241,91.554123 54.646211,106.87151 50.476291,114.94279 z" id="path4173" style="fill:#272323;fill-opacity:1;fill-rule:nonzero;stroke:none"/>
  <path d="M 27.741921,104.49357 C 31.911841,96.480883 41.648171,85.704513 50.368871,83.648843 C 54.861061,91.554123 51.067111,105.25041 46.902071,113.31193 C 43.161841,120.51408 36.941141,124.19572 31.911841,123.05803 C 33.044651,120.94866 35.749731,115.96818 37.370821,112.39884 C 39.431371,107.68204 45.007541,94.098073 45.007541,94.098073 C 45.007541,94.098073 37.048561,106.60294 34.402071,111.04142 C 32.341531,114.40079 29.846411,119.48869 28.821021,121.64689 C 24.763401,118.56584 24.006571,111.74454 27.741921,104.49357 z" id="path4175" style="fill:#eebc00;fill-opacity:1;fill-rule:nonzero;stroke:none"/>
  <path d="M 12.199921,162.52579 C 17.780981,169.50822 26.443091,173.67814 33.689181,170.53362 L 33.855201,170.47502 L 37.702851,167.77482 L 37.805391,167.66252 C 42.951881,161.92522 41.106171,152.99454 35.534891,146.00724 C 29.631571,138.59026 16.911841,128.74162 6.1403514,128.19963 L 3.0544214,128.03849 L 2.1315714,130.79728 C -1.2766386,141.19279 6.4626214,155.37737 12.199921,162.52579 z" id="path4177" style="fill:#272323;fill-opacity:1;fill-rule:nonzero;stroke:none"/>
  <path d="M 32.390351,148.22892 C 26.653051,141.08049 14.909891,132.36954 5.9206314,131.88616 C 3.1081314,140.38224 9.6559814,153.20939 15.344461,160.30412 C 20.486061,166.74454 27.307351,169.18596 32.068091,167.17424 C 30.500711,165.33829 26.819071,160.94866 24.543671,157.70158 C 21.570041,153.47794 13.337621,141.13908 13.337621,141.13908 C 13.337621,141.13908 23.674531,151.96428 27.195041,155.81193 C 29.846411,158.79044 33.366921,163.33634 34.778051,165.23088 C 38.181371,161.49064 37.536841,154.67424 32.390351,148.22892 z" id="path4179" style="fill:#eebc00;fill-opacity:1;fill-rule:nonzero;stroke:none"/>
  <path d="M 48.088601,141.35881 C 46.306371,149.90862 40.461641,157.21329 32.502661,157.43303 L 32.341531,157.43303 L 27.629611,156.56877 L 27.468481,156.51017 C 20.158911,153.53166 17.614961,144.71329 19.402071,136.15862 C 21.296601,127.06193 28.117891,112.88713 37.536841,107.95549 L 40.183321,106.54924 L 42.297581,108.71721 C 50.256571,116.66642 49.934301,132.58439 48.088601,141.35881 z" id="path4181" style="fill:#272323;fill-opacity:1;fill-rule:nonzero;stroke:none"/>
  <path d="M 23.298561,136.86662 C 25.085671,128.09221 31.579811,115.31877 39.431371,111.20744 C 45.930391,117.75529 46.032931,131.93498 44.196991,140.65079 C 42.571021,148.55119 37.590551,153.59026 32.390351,153.69767 C 32.937231,151.42228 34.177461,145.95842 34.724341,142.11564 C 35.481171,137.13517 37.102271,122.62346 37.102271,122.62346 C 37.102271,122.62346 32.824921,136.64689 31.477271,141.51506 C 30.446991,145.25041 29.470431,150.83147 29.035861,153.10197 C 24.275121,151.15373 21.672581,144.71329 23.298561,136.86662 z" id="path4183" style="fill:#eebc00;fill-opacity:1;fill-rule:nonzero;stroke:none"/>
  <path d="M 21.784891,189.31779 C 28.821021,195.00138 38.181371,197.37932 44.626681,192.94572 L 44.738991,192.83342 L 47.932351,189.43009 L 47.986061,189.26408 C 51.775121,182.71623 47.986061,174.26897 41.003641,168.53166 C 33.586641,162.46721 18.913791,155.26994 8.2497314,156.83732 L 5.2175014,157.27189 L 4.9489514,160.13811 C 3.9186714,171.07561 14.636451,183.41447 21.784891,189.31779 z" id="path4185" style="fill:#272323;fill-opacity:1;fill-rule:nonzero;stroke:none"/>
  <path d="M 38.405981,171.34416 C 31.257541,165.49454 17.780981,159.16642 8.8991414,160.51408 C 8.0348914,169.39592 17.234101,180.66057 24.382541,186.50529 C 30.876681,191.75432 38.078831,192.83342 42.297581,189.90862 C 40.349341,188.45353 35.803441,184.87932 32.824921,182.11564 C 28.987031,178.60002 18.210671,168.09709 18.210671,168.09709 C 18.210671,168.09709 30.720431,176.70549 34.992891,179.79142 C 38.293671,182.17424 42.683321,185.96329 44.519261,187.53068 C 47.009491,183.20451 44.841531,176.59807 38.405981,171.34416 z" id="path4187" style="fill:#eebc00;fill-opacity:1;fill-rule:nonzero;stroke:none"/>
  <path d="M 53.777071,166.04142 C 54.748751,174.70353 51.447971,183.30704 43.874731,185.69474 L 43.708711,185.74846 L 38.947971,186.23186 L 38.781961,186.17814 C 30.876681,185.31388 25.681371,177.56974 24.704811,168.90763 C 23.674531,159.70353 25.788791,144.28362 33.259491,137.02287 L 35.427461,134.91349 L 38.078831,136.37834 C 48.142311,141.79338 52.800511,157.11076 53.777071,166.04142 z" id="path4189" style="fill:#272323;fill-opacity:1;fill-rule:nonzero;stroke:none"/>
  <path d="M 28.655001,168.53166 C 27.629611,159.65471 29.846411,145.63127 36.125711,139.51311 C 44.353241,144.00529 48.855201,157.54533 49.880591,166.41741 C 50.744851,174.37638 47.551491,180.60197 42.624731,182.17424 C 42.409891,179.84513 41.921601,174.26897 41.272191,170.42619 C 40.349341,165.39201 37.429421,151.10002 37.429421,151.10002 C 37.429421,151.10002 37.702851,165.66057 37.971411,170.75334 C 38.127661,174.64494 38.894261,180.17228 39.216531,182.49651 C 34.070041,181.95939 29.524141,176.49064 28.655001,168.53166 z" id="path4191" style="fill:#eebc00;fill-opacity:1;fill-rule:nonzero;stroke:none"/>
  <path d="M 35.857151,213.40959 C 43.928441,217.73576 53.611061,218.39006 59.026101,212.86759 L 59.079811,212.75529 L 61.516331,208.80509 L 61.570041,208.69767 C 63.952851,201.54924 58.537821,193.92228 50.476291,189.58634 C 41.975321,184.93791 26.115941,180.49454 15.993871,183.96134 L 13.069071,184.93791 L 13.391331,187.80412 C 14.636451,198.68303 27.629611,208.91741 35.857151,213.40959 z" id="path4193" style="fill:#272323;fill-opacity:1;fill-rule:nonzero;stroke:none"/>
  <path d="M 48.523171,192.78459 C 40.295631,188.34123 25.788791,184.55217 17.346411,187.41838 C 18.318091,196.35392 29.631571,205.71916 37.859101,210.16252 C 45.222391,214.22013 52.585671,213.94669 56.101291,210.31877 C 53.884491,209.23967 48.689181,206.52971 45.222391,204.42033 C 40.730201,201.60783 28.064181,193.26799 28.064181,193.26799 C 28.064181,193.26799 42.082741,199.43987 46.902071,201.71526 C 50.578831,203.44866 55.671601,206.37346 57.780981,207.56487 C 59.353241,202.90666 55.891331,196.78849 48.523171,192.78459 z" id="path4195" style="fill:#eebc00;fill-opacity:1;fill-rule:nonzero;stroke:none"/>
  <path d="M 66.823951,190.18693 C 70.017311,198.41447 68.987031,207.50627 62.273171,211.56877 L 62.116921,211.62248 L 57.614961,213.18987 L 57.458711,213.18987 C 49.553441,214.16642 42.517311,207.82853 39.382541,199.60588 C 35.969461,190.88517 34.070041,175.45549 39.431371,166.69572 L 41.003641,164.14689 L 43.977271,164.95744 C 55.124731,167.98478 63.571991,181.79338 66.823951,190.18693 z" id="path4197" style="fill:#272323;fill-opacity:1;fill-rule:nonzero;stroke:none"/>
  <path d="M 43.059301,198.35588 C 39.807351,189.96721 38.405981,175.89006 42.898171,168.53166 C 51.989961,170.96329 59.841531,183.09221 63.083711,191.48576 C 66.008521,199.00529 64.494851,205.77287 60.105201,208.42912 C 59.353241,206.20744 57.458711,200.90471 55.779031,197.33049 C 53.611061,192.67717 47.116921,179.46916 47.116921,179.46916 C 47.116921,179.46916 51.120821,193.54142 52.634491,198.35588 C 53.835671,202.14982 55.993871,207.34026 56.916721,209.50822 C 51.775121,210.16252 45.984101,205.88517 43.059301,198.35588 z" id="path4199" style="fill:#eebc00;fill-opacity:1;fill-rule:nonzero;stroke:none"/>
  <path d="M 56.159891,234.79142 C 65.036841,237.33537 74.616921,235.87053 78.571991,229.37638 L 78.625711,229.21526 L 80.027071,224.88419 L 80.027071,224.77189 C 80.681371,217.24748 73.591531,211.02189 64.709691,208.48283 C 55.290741,205.77287 38.781961,204.74748 29.743871,210.26506 L 27.141331,211.89103 L 28.171601,214.60099 C 31.911841,224.93791 47.009491,232.13517 56.159891,234.79142 z" id="path4201" style="fill:#272323;fill-opacity:1;fill-rule:nonzero;stroke:none"/>
  <path d="M 63.518281,211.99846 C 54.480201,209.40079 39.431371,208.80509 31.911841,213.40959 C 34.992891,221.85197 48.254611,228.61954 57.292701,231.21721 C 65.466531,233.54631 72.556371,231.75432 75.105201,227.54044 C 72.722391,226.88616 66.985081,225.37248 63.083711,224.01994 C 58.049531,222.22794 43.708711,216.81291 43.708711,216.81291 C 43.708711,216.81291 58.816141,219.85002 64.060281,221.04142 C 68.122781,221.95939 73.747781,223.69279 76.135471,224.44963 C 76.511451,219.58147 71.692111,214.38127 63.518281,211.99846 z" id="path4203" style="fill:#eebc00;fill-opacity:1;fill-rule:nonzero;stroke:none"/>
  <path d="M 85.119851,210.37737 C 90.422581,217.57951 91.941141,226.56388 86.584691,232.13517 L 86.472391,232.24259 L 82.517311,234.84513 L 82.361061,234.89884 C 74.997781,237.76994 66.496801,233.33147 61.140351,226.18303 C 55.510471,218.60491 49.392311,204.15178 52.209691,194.35197 L 52.966531,191.53459 L 56.047581,191.58829 C 67.688211,191.75432 79.597391,203.07267 85.119851,210.37737 z" id="path4205" style="fill:#272323;fill-opacity:1;fill-rule:nonzero;stroke:none"/>
  <path d="M 64.387421,224.01994 C 58.972391,216.71037 53.669651,203.50237 55.993871,195.27482 C 65.520241,195.43596 76.404031,205.23088 81.872781,212.54533 C 86.745821,219.09318 87.175511,225.96329 83.659891,229.59612 C 82.253641,227.64299 78.947971,222.99454 76.404031,219.95744 C 73.044651,215.95353 63.083711,204.80119 63.083711,204.80119 C 63.083711,204.80119 70.832741,217.41349 73.645241,221.74454 C 75.862031,225.05022 79.382541,229.59612 80.842501,231.43204 C 76.023171,233.33147 69.314181,230.62151 64.387421,224.01994 z" id="path4207" style="fill:#eebc00;fill-opacity:1;fill-rule:nonzero;stroke:none"/>
  <path d="M 81.765351,251.41252 C 91.076881,251.90079 100.00754,248.27287 102.11692,241.07072 L 102.17552,240.90471 L 102.43918,236.35881 L 102.38547,236.25627 C 101.08664,228.83439 92.590551,224.39592 83.279031,223.96134 C 73.479221,223.47307 57.190161,226.23674 49.880591,233.65373 L 47.766331,235.76799 L 49.446021,238.19963 C 55.725321,247.40862 72.234101,250.92424 81.765351,251.41252 z" id="path4209" style="fill:#272323;fill-opacity:1;fill-rule:nonzero;stroke:none"/>
  <path d="M 83.117891,227.64299 C 73.645241,227.20842 58.864961,230.03068 52.746801,236.19767 C 57.893281,243.71721 72.507541,247.24259 81.980201,247.67228 C 90.534891,248.10686 96.921601,244.80607 98.327851,240.04044 C 95.837621,239.99162 89.885471,239.82561 85.769261,239.39103 C 80.407931,238.84904 65.085671,236.79338 65.085671,236.79338 C 65.085671,236.79338 80.573951,236.30509 85.930391,236.30509 C 90.100321,236.25627 96.057351,236.68107 98.493871,236.84709 C 97.624731,232.03263 91.613991,228.07756 83.117891,227.64299 z" id="path4211" style="fill:#eebc00;fill-opacity:1;fill-rule:nonzero;stroke:none"/>
  <path d="M 106.6677,222.50627 C 114.29953,227.48674 119.00657,235.49454 115.97434,242.42814 L 115.92552,242.58439 L 113.16184,246.26603 L 113.0007,246.37346 C 107.15598,251.46623 97.517311,250.05509 89.934301,245.02092 C 81.872781,239.71329 70.881571,228.07756 69.909891,218.01408 L 69.636451,215.08928 L 72.556371,214.16642 C 83.552461,210.59709 98.869841,217.35978 106.6677,222.50627 z" id="path4213" style="fill:#272323;fill-opacity:1;fill-rule:nonzero;stroke:none"/>
  <path d="M 92.214571,241.99357 C 84.416721,236.84709 74.670631,226.07561 73.860081,217.68204 C 82.844461,214.75724 96.648171,220.44572 104.44114,225.53362 C 111.43333,230.13322 113.86497,237.49651 111.91184,242.04728 C 109.90988,240.63616 106.01828,237.06682 101.9509,234.24454 C 95.403051,229.75237 83.982151,224.34221 83.982151,224.34221 C 83.982151,224.34221 93.835671,231.92033 100.06125,236.84709 C 103.96262,239.87932 107.85422,243.39494 109.90988,244.64006 C 106.06712,247.94572 99.196991,246.59318 92.214571,241.99357 z" id="path4215" style="fill:#eebc00;fill-opacity:1;fill-rule:nonzero;stroke:none"/>
</svg>