<svg xmlns:svg="http://www.w3.org/2000/svg" xmlns="http://www.w3.org/2000/svg" version="1.1" width="570.99127" height="455.75" id="svg3006">
  <defs id="defs3008"/>
  <g transform="translate(-211.64723,-318.7729)" id="layer1">
    <path d="m 599.67574,319.7729 c -48.52357,26.09719 -85.66306,69.27509 -104.1358,121.18171 l -7.91726,21.06943 10.16698,-2.76887 c -17.13191,13.24926 -28.71674,32.40643 -32.49106,53.73355 -3.92575,22.58834 -3.37926,45.71679 1.60075,68.09711 16.63058,71.41077 50.80806,137.54561 99.42005,192.43707 -1.58206,-2.68079 -3.07864,-5.40675 -4.49942,-8.17684 -11.83297,-25.0902 -21.21116,-51.26752 -27.94837,-78.17757 l -21.24249,-82.20108 c -1.21017,-4.36601 -2.7848,-8.6441 -4.67249,-12.7628 l -10.16697,-20.46375 c 20.98221,22.49022 46.50228,40.31781 74.84625,52.26259 46.57323,18.00515 96.34261,26.22509 146.23141,24.14116 -19.09369,-4.93726 -38.00237,-10.5264 -56.71875,-16.74306 -32.31058,-9.87486 -62.86205,-24.76953 -90.55099,-44.12901 -25.46347,-17.7627 -43.75348,-44.0205 -51.57037,-74.0675 7.09768,-12.26043 17.11375,-22.56879 29.15976,-30.02503 17.67894,-10.31442 37.32985,-16.85227 57.67055,-19.12257 36.06967,-3.83213 72.4221,-3.87973 108.50543,-0.17306 -37.01437,-10.2843 -75.2384,-15.65143 -113.65381,-16.00758 -28.11589,-1.03538 -56.22901,1.85861 -83.54227,8.60949 2.26183,-10.86802 5.49484,-21.54707 9.64781,-31.84211 17.19873,-39.1336 41.58682,-74.69171 71.86106,-104.87128 z m -196.20102,262.52431 -19.12256,2.33624 33.83223,70.95252 33.09676,-70.95252 -18.38709,-2.33624 -14.70967,37.03376 -14.70967,-37.03376 z m -49.66676,0.12973 c -7.5603,0.19325 -14.72482,3.42913 -19.85806,9.04212 -3.30033,3.81846 -5.12709,8.71158 -5.10512,13.75786 0.0565,5.43826 2.36825,10.62661 6.35977,14.3203 4.68875,4.32222 10.30248,7.48254 16.44023,9.21517 1.52755,0.41152 2.98917,1.0783 4.28311,1.99013 1.08868,0.7682 1.84423,1.90793 2.16318,3.20152 0.10827,0.4714 0.17479,0.94402 0.17306,1.4277 -0.01,2.34092 -1.21917,4.50757 -3.20152,5.75408 -2.0064,1.26018 -4.33695,1.9287 -6.70589,1.94686 -0.26044,0.0125 -0.51778,0.0443 -0.77875,0.0432 -2.67508,0.0756 -5.30309,-0.54565 -7.65768,-1.81708 -1.33737,-0.68183 -2.63892,-1.4097 -3.937,-2.16318 l -7.874,14.62314 c 5.07709,2.99281 10.72076,4.90957 16.57001,5.62428 1.83023,0.19382 3.65388,0.26651 5.4945,0.25958 7.4637,0.10841 14.73476,-2.43921 20.46375,-7.22504 l 0.12973,-0.12972 c 4.15193,-4.01314 6.77251,-9.35413 7.35483,-15.09904 0.0237,-0.35407 0,-0.72649 0,-1.0816 0.24487,-6.99764 -3.246,-13.61769 -9.17191,-17.34875 -0.60327,-0.37934 -1.22315,-0.71904 -1.86034,-1.03833 l -4.36964,-2.20645 -2.24971,-1.47097 -5.88387,-2.94193 c -1.59469,-0.75487 -3.11412,-1.6449 -4.5427,-2.68235 -0.6204,-0.45583 -1.17004,-1.04854 -1.60076,-1.68729 -0.29973,-0.45271 -0.42399,-0.97118 -0.43264,-1.51423 -0.0594,-2.22324 1.12918,-4.27498 3.115,-5.27817 1.50436,-0.76959 3.19928,-1.18197 4.8888,-1.16812 2.58614,0.0565 5.16413,0.51069 7.61442,1.34117 1.23716,0.39457 2.42882,0.85905 3.63415,1.34118 l 9.21518,-13.58481 c -4.06523,-2.24383 -8.4302,-3.86831 -12.97912,-4.80228 -2.69117,-0.46552 -5.44586,-0.67837 -8.17685,-0.64895 -0.50685,-0.0145 -1.01021,-0.0125 -1.51423,0 z m -83.41248,1.47096 -5.10512,17.6516 18.34382,0 0,57.36771 19.85805,-2.20645 0,-54.42577 16.2239,0 0,-18.38709 -49.32065,0 z m 41.40339,83.80185 -14.53662,28.90017 3.33131,1.77381 5.14839,-10.34003 12.07058,0 5.14838,10.34003 3.24478,-1.77381 -14.40682,-28.90017 z m 411.87072,0 -14.53661,28.90017 3.3313,1.77388 5.14839,-10.34003 12.07058,0 5.19165,10.34003 3.24478,-1.77381 -14.45009,-28.90017 z m -182.18357,0.86527 -3.41783,1.4277 13.10891,28.90018 13.10891,-28.90018 -3.37457,-1.4277 -9.73434,21.93471 -9.69108,-21.93471 z m 124.33996,0 -3.50436,1.77381 9.04212,17.04591 -4.80227,9.64782 3.50436,1.29791 13.97418,-28.0349 -3.28804,-1.73055 -7.31157,15.09904 -7.61442,-15.09904 z m -188.5866,0.0865 c -8.2369,-0.004 -14.90884,6.64635 -14.96925,14.88272 0.0968,8.1573 6.68217,14.71712 14.83946,14.75293 2.27083,-0.0397 4.52574,-0.50532 6.61935,-1.38444 1.47651,-0.56953 2.8715,-1.32266 4.15332,-2.24971 l 0,-12.67627 -11.94079,0 -0.64895,3.4611 8.73927,0 0,7.18178 c -0.65987,0.47296 -1.34136,0.86839 -2.07666,1.21138 -1.45401,0.54547 -2.99004,0.84364 -4.54269,0.82201 -4.35649,0.14225 -8.34834,-2.40357 -10.08045,-6.40303 l -0.12972,-0.25951 c -0.65484,-1.44224 -1.01583,-3.00251 -1.03833,-4.58596 0.0347,-5.46525 3.96711,-10.14847 9.34496,-11.11878 0.44494,-0.0646 0.8914,-0.0861 1.34118,-0.0865 2.27671,0.049 4.5067,0.65432 6.48956,1.77382 0.39785,0.24124 0.78602,0.51328 1.16812,0.77874 l 0.51917,0.34611 2.07665,-3.02846 c -1.08558,-0.84571 -2.29367,-1.55247 -3.54762,-2.11992 -0.33884,-0.14467 -0.64774,-0.26426 -0.99507,-0.38937 -1.70078,-0.60881 -3.51527,-0.91546 -5.32144,-0.90854 z m 102.66484,0.12972 c -3.42638,0.2514 -6.66348,1.71405 -9.12865,4.15332 -2.81768,2.78739 -4.35423,6.63684 -4.28311,10.59961 -0.0799,3.97006 1.46456,7.80201 4.28311,10.59962 2.81783,2.79656 6.63112,4.30646 10.59961,4.19658 3.9652,0.1084 7.83107,-1.4412 10.64288,-4.23985 2.81128,-2.79795 4.32964,-6.5908 4.23985,-10.55635 0.081,-3.95829 -1.47166,-7.81135 -4.28311,-10.59961 -2.81076,-2.78774 -6.64134,-4.2658 -10.59962,-4.15332 -0.49514,-0.0143 -0.98148,-0.0359 -1.47096,0 z m -308.55694,0.12972 -3.85047,0.56243 0,28.55406 3.85047,-0.60569 0,-12.20037 15.01251,-0.25958 0,13.06564 3.89374,-0.60569 0,-28.5108 -3.89374,0.56243 0,12.07058 -15.01251,0 0,-12.63301 z m 334.29886,0 -3.85048,0.56243 0,28.25122 15.01252,0 0.51916,-3.41784 -11.6812,0 0,-25.39581 z m 20.68006,0 -3.85047,0.56243 0,28.25122 15.01251,0 0.4759,-3.41784 -11.63794,0 0,-25.39581 z m 119.88379,0 -3.85047,0.56243 0,28.25122 14.96925,0 0.51917,-3.41784 -11.63795,0 0,-25.39581 z m 18.99278,0 -3.85047,0.56243 0,28.25122 15.01251,0 0.4759,-3.41784 -11.63794,0 0,-25.39581 z m -431.90183,0.30285 0,28.5108 3.85047,0 0,-13.32523 10.98899,14.06071 3.07174,-2.16319 -8.1336,-10.16697 c 1.81691,-0.15662 3.50125,-0.97153 4.75901,-2.29298 1.13749,-1.3166 1.82903,-2.97984 1.94687,-4.71575 0.0407,-0.40875 0.0442,-0.80124 0.0432,-1.21138 0.0843,-2.45427 -0.87947,-4.8227 -2.68235,-6.48956 -0.72978,-0.6436 -1.55715,-1.16604 -2.46604,-1.51423 -1.25483,-0.44302 -2.6062,-0.6853 -3.937,-0.69222 l -1.81707,0 -5.62429,0 z m 24.27097,0 -0.64896,3.37457 7.65768,0 0,25.43907 3.85047,-0.60569 0,-24.83338 7.22505,0 0.51916,-3.37457 -18.6034,0 z m 26.56393,0 0,28.5108 9.12864,0 c 2.04812,0.0683 4.08583,-0.51762 5.79734,-1.64402 1.83992,-1.32145 2.98243,-3.40312 3.07173,-5.66755 0.0173,-0.24038 0,-0.49407 0,-0.73549 0.0612,-1.79059 -0.57247,-3.51664 -1.77381,-4.84553 -0.87894,-0.90905 -1.95691,-1.59661 -3.15826,-1.99014 1.55611,-0.47433 2.86595,-1.5715 3.59089,-3.02846 0.45479,-0.9845 0.67058,-2.07319 0.64896,-3.15825 0.0652,-1.87054 -0.59376,-3.68452 -1.86034,-5.06186 -1.27853,-1.25827 -2.9774,-2.04031 -4.75901,-2.24971 -0.64515,-0.0965 -1.29445,-0.13152 -1.94687,-0.12972 l -8.73927,0 z m 27.55899,0 0,28.5108 16.65654,0 0.56243,-3.41784 -13.41176,0 0,-9.34496 10.46982,0 0,-3.41784 -10.46982,0 0,-8.95559 12.41669,0 -0.56243,-3.37457 -15.66147,0 z m 25.82845,0 0,28.5108 3.85047,0 0,-13.32523 10.98899,14.06071 3.07172,-2.16319 -8.13358,-10.16697 c 1.81639,-0.15662 3.50108,-0.97153 4.75901,-2.29298 1.13646,-1.3166 1.82901,-2.97984 1.94687,-4.71575 0.0402,-0.40875 0.0442,-0.80124 0.0432,-1.21138 0.0843,-2.45375 -0.87998,-4.8227 -2.68236,-6.48956 -0.72994,-0.6436 -1.60075,-1.16604 -2.50929,-1.51423 -1.25516,-0.44302 -2.56243,-0.6853 -3.89374,-0.69222 l -1.81707,0 -5.62429,0 z m 203.94522,0 0,28.5108 16.65654,0 0.56243,-3.41784 -13.36849,0 0,-9.34496 10.42655,0 0,-3.41784 -10.42655,0 0,-8.95559 12.37342,0 -0.56243,-3.37457 -15.66147,0 z m 47.02768,0 0,28.5108 9.12864,0 c 2.04758,0.0683 4.08549,-0.51762 5.79734,-1.64402 1.8401,-1.32145 2.93882,-3.40312 3.02847,-5.66755 0.0169,-0.24038 0.0432,-0.49407 0.0432,-0.73549 0.0612,-1.79059 -0.57194,-3.51716 -1.77381,-4.84553 -0.8781,-0.90905 -1.95691,-1.59661 -3.15825,-1.99014 1.55593,-0.47433 2.82252,-1.5715 3.54762,-3.02846 0.45479,-0.9845 0.71368,-2.07319 0.69222,-3.15825 0.0652,-1.87054 -0.6365,-3.68452 -1.9036,-5.06186 -1.27784,-1.25827 -2.9345,-2.04031 -4.71575,-2.24971 -0.64497,-0.0965 -1.29496,-0.13152 -1.94687,-0.12972 l -8.73927,0 z m -107.121,3.02846 c 6.15885,0.0721 11.1335,5.1335 11.07552,11.29183 0.0644,6.17495 -4.90093,11.22469 -11.07552,11.3351 -2.97603,-0.0314 -5.79561,-1.24357 -7.874,-3.37457 -2.0789,-2.13083 -3.24426,-4.98433 -3.20151,-7.96053 -0.0388,-2.96789 1.12156,-5.84337 3.20151,-7.96052 2.07993,-2.11716 4.90628,-3.3192 7.874,-3.33131 z m -244.22377,0.34611 2.20645,0 c 0.94782,-0.0111 1.89669,0.0989 2.81215,0.34611 1.95829,0.55724 3.38548,2.26201 3.63415,4.28311 0.054,0.3468 0.0868,0.68807 0.0865,1.03833 0.0412,1.2479 -0.33037,2.47607 -1.03833,3.50436 -0.79121,1.03746 -1.92213,1.73454 -3.20152,1.99013 -0.68721,0.15644 -1.37318,0.26478 -2.07666,0.25959 l -2.42277,0 0,-11.42163 z m 50.8349,0 4.23985,0 c 1.15824,-0.0353 2.30665,0.23709 3.3313,0.77875 1.24807,0.6789 1.98651,1.99774 1.94687,3.41783 -0.028,1.34966 -0.68098,2.62421 -1.77381,3.41784 -0.68184,0.49009 -1.45851,0.80989 -2.29298,0.90854 -0.71472,0.0965 -1.44173,0.14017 -2.16319,0.12972 l -3.28804,0 0,-8.65275 z m 53.38744,0 2.20645,0 c 0.94834,-0.0111 1.89616,0.0989 2.81215,0.34611 1.95777,0.55724 3.38548,2.26201 3.63415,4.28311 0.054,0.3468 0.0874,0.68807 0.0865,1.03833 0.0417,1.2479 -0.3314,2.47607 -1.03833,3.50436 -0.79121,1.03642 -1.92212,1.73454 -3.20152,1.99013 -0.68617,0.15644 -1.41559,0.26478 -2.11992,0.25959 l -2.37951,0 0,-11.42163 z m 250.9729,0 4.19658,0 c 1.15827,-0.0353 2.30613,0.23709 3.33131,0.77875 1.2479,0.6789 2.02992,1.99774 1.99013,3.41783 -0.0278,1.34966 -0.68029,2.62421 -1.77381,3.41784 -0.68235,0.49009 -1.50194,0.80989 -2.33624,0.90854 -0.71523,0.0965 -1.44155,0.14017 -2.16319,0.12972 l -3.24478,0 0,-8.65275 z m -380.54778,2.81214 4.45616,9.47476 -9.04212,0 4.58596,-9.47476 z m 411.87072,0 4.45616,9.47476 -8.99885,0 4.54269,-9.47476 z m -335.68328,9.21518 3.4611,0 c 1.20566,-0.0334 2.41756,0.10923 3.59089,0.38937 0.15108,0.0417 0.32828,0.076 0.4759,0.12972 1.09041,0.42883 1.92056,1.34118 2.24971,2.46604 0.19175,0.59756 0.26478,1.23335 0.25958,1.86034 0.0432,1.2543 -0.39664,2.45876 -1.25464,3.37457 -0.86132,0.83343 -2.00657,1.33545 -3.20152,1.4277 -0.28121,0.0299 -0.53942,0.0438 -0.82201,0.0432 l -4.75901,0 0,-9.69107 z m 304.36034,0 3.4611,0 c 1.2067,-0.0334 2.41687,0.10923 3.59089,0.38937 0.15107,0.0417 0.28536,0.076 0.43264,0.12972 1.09093,0.42883 1.92005,1.34118 2.24971,2.46604 0.19174,0.59756 0.30804,1.23335 0.30285,1.86034 0.0426,1.2543 -0.43991,2.45876 -1.29792,3.37457 -0.86095,0.83343 -1.9633,1.33545 -3.15825,1.4277 -0.28104,0.0299 -0.58319,0.0438 -0.86527,0.0432 l -4.71575,0 0,-9.69107 z" id="path12" style="fill:#005ca1;fill-opacity:1;fill-rule:evenodd;stroke:none"/>
    <path d="m 541.42562,419.93017 56.44516,-18.59233 -22.21559,39.97257 -37.9371,4.6543 3.70753,-26.03454 0,0 z m 6.90351,299.78996 -4.32067,-16.94797 0,0 c 79.26988,-1.54711 158.56816,0.64843 237.63003,6.57833 -77.85274,1.23321 -155.6539,4.69154 -233.30936,10.36964 l 0,0 0,0 z m -23.18175,1.92246 C 419.42761,727.07738 314.62797,744.14666 212.64723,772.5415 307.20253,730.32389 409.099,707.00128 512.6035,703.88629 l 0,0 12.54388,17.7563 0,0" id="path14" style="fill:#d9261c;fill-opacity:1;fill-rule:evenodd;stroke:none"/>
  </g>
</svg>