<svg xmlns="http://www.w3.org/2000/svg" xmlns:cc="http://creativecommons.org/ns#" xmlns:dc="http://purl.org/dc/elements/1.1/" xmlns:rdf="http://www.w3.org/1999/02/22-rdf-syntax-ns#" xmlns:xlink="http://www.w3.org/1999/xlink" width="234" height="300" version="1.1" viewBox="0 0 234 300" xml:space="preserve"><metadata><rdf:RDF><cc:Work rdf:about=""><dc:format>image/svg+xml</dc:format><dc:type rdf:resource="http://purl.org/dc/dcmitype/StillImage"/><dc:title/></cc:Work></rdf:RDF></metadata>
<style type="text/css">
	.st0{fill:#FFFFFF;}
	.st1{fill:#070809;}
	.st2{fill:#252D4B;}
	.st3{fill:#AB2A30;}
	.st4{fill:#581A16;}
	.st5{fill:#C9CACB;}
	.st6{clip-path:url(#SVGID_2_);fill:#3F6CB1;}
	.st7{clip-path:url(#SVGID_2_);fill:#97C1E9;}
</style>
<g transform="matrix(1.5682 0 0 1.5682 -340.53 -507.48)"><path class="st1" d="m292.3 514.8c-23.9-11.4-53.3-34.2-64-48.4-10.6-14.2-10.4-26.9-10.4-26.9l-0.5-100.9 64.1-0.3 20-0.1 64.1-0.3 0.5 100.9s0.4 12.7-10.1 27c-10.5 14.4-39.6 37.4-63.5 49.1" fill="#070809"/><path class="st2" d="m292.2 503.6s-26.7-14.2-45.8-31.6c-19.1-17.5-18.8-26.6-18.7-40.9l-0.4-83.2 51-0.3 26.5-0.1 51-0.3 0.4 83.2c0.2 14.3 0.6 23.4-18.3 41.1s-45.5 32.1-45.5 32.1" fill="#252d4b"/><polyline class="st3" points="256.5 338.3 256.5 333.8 266.4 323.9 276.1 333.1 276.2 352 266.5 358.6 257.3 354.4 255.6 348.2 258.1 350.5 260.9 348.5 260.9 337.2 257.6 334.8 257.6 338.3" fill="#ab2a30"/><polyline class="st4" points="257.6 338.3 257.6 334.8 260.9 337.2 260.9 338.3" fill="#581a16"/><polyline class="st4" points="255.6 348.2 258.1 350.5 260.9 348.5 260.9 347.8 259.9 347.8 259.9 348.6 258.1 349.9" fill="#581a16"/><polyline class="st3" points="281.5 338.2 281.5 333.7 291.4 323.8 301.1 333 301.2 351.9 291.5 358.5 282.3 354.3 280.6 348.1 283.2 350.4 286 348.4 285.9 337.1 282.6 334.6 282.6 338.2" fill="#ab2a30"/><polyline class="st4" points="282.6 338.2 282.6 334.6 285.9 337.1 285.9 338.2" fill="#581a16"/><polyline class="st4" points="280.6 348.1 283.2 350.4 286 348.4 286 347.7 285 347.7 285 348.4 283.2 349.8" fill="#581a16"/><polyline class="st3" points="306.9 338.1 306.9 333.5 316.8 323.6 326.5 332.8 326.6 351.7 316.9 358.4 307.7 354.2 306 347.9 308.5 350.2 311.3 348.3 311.3 336.9 308 334.5 308 338.1" fill="#ab2a30"/><polyline class="st4" points="308 338.1 308 334.5 311.3 336.9 311.3 338" fill="#581a16"/><polyline class="st4" points="306 347.9 308.5 350.2 311.3 348.3 311.3 347.5 310.3 347.5 310.3 348.3 308.5 349.6" fill="#581a16"/><polyline class="st5" points="225.9 343.8 222.6 347 219.4 343.8 222.6 340.6" fill="#c9cacb"/><polyline class="st1" points="224.1 343.8 222.6 345.3 221.2 343.8 222.6 342.4" fill="#070809"/><polyline class="st5" points="363.1 343.1 359.9 346.3 356.6 343.1 359.8 339.9" fill="#c9cacb"/><polyline class="st1" points="361.3 343.1 359.9 344.6 358.4 343.1 359.9 341.6" fill="#070809"/><polyline class="st5" points="295.6 508.8 292.4 512 289.2 508.8 292.4 505.6" fill="#c9cacb"/><polyline class="st1" points="293.9 508.8 292.4 510.3 290.9 508.8 292.4 507.3" fill="#070809"/><polyline class="st3" points="262.9 369.6 227.5 369.8 227.5 367.9 262.9 367.7" fill="#ab2a30"/><polyline class="st3" points="355.7 369.1 320.3 369.3 320.3 367.4 355.7 367.2" fill="#ab2a30"/><g fill="#fff"><path class="st0" d="m272.5 365.2 0.1 1.7h-0.2c0-0.3-0.1-0.5-0.2-0.6-0.1-0.2-0.3-0.4-0.4-0.4-0.2-0.1-0.4-0.1-0.7-0.1h-1v5.4c0 0.4 0.1 0.7 0.1 0.8 0.1 0.1 0.4 0.2 0.6 0.2h0.3v0.2h-3.1v-0.2h0.3c0.3 0 0.5-0.1 0.6-0.3 0.1-0.1 0.1-0.4 0.1-0.8v-5.4h-0.9c-0.3 0-0.6 0-0.7 0.1-0.2 0.1-0.3 0.2-0.5 0.4-0.1 0.2-0.2 0.4-0.2 0.8h-0.2l0.1-1.7"/><path class="st0" d="m280.2 372.3h-1.9l-2.5-3.3h-0.4-0.2-0.2v2.1c0 0.4 0.1 0.7 0.2 0.8 0.1 0.2 0.3 0.2 0.6 0.2h0.3v0.2h-3.1v-0.2h0.3c0.3 0 0.5-0.1 0.7-0.3 0.1-0.1 0.1-0.4 0.1-0.8v-4.6c0-0.4 0-0.7-0.1-0.8-0.1-0.2-0.3-0.2-0.6-0.2h-0.3v-0.2h2.6c0.8 0 1.3 0 1.7 0.2 0.4 0.1 0.7 0.3 0.9 0.6 0.3 0.3 0.4 0.6 0.4 1.1 0 0.4-0.1 0.8-0.4 1.1s-0.7 0.6-1.3 0.7l1.5 2c0.3 0.5 0.6 0.8 0.9 0.9 0.2 0.2 0.6 0.2 1 0.3m-5.3-3.4h0.2 0.1c0.7 0 1.2-0.2 1.6-0.4 0.3-0.3 0.5-0.7 0.5-1.1s-0.1-0.8-0.4-1.1-0.7-0.4-1.1-0.4c-0.2 0-0.5 0-0.8 0.1z"/><path class="st0" d="m285.3 365.4v-0.2h2.6v0.2h-0.3c-0.3 0-0.5 0.1-0.7 0.4-0.1 0.1-0.1 0.4-0.1 0.8v2.9c0 0.7-0.1 1.3-0.2 1.7s-0.4 0.7-0.8 1-1 0.4-1.7 0.4c-0.8 0-1.4-0.1-1.8-0.4s-0.7-0.6-0.9-1.1c-0.1-0.3-0.2-0.9-0.2-1.8v-2.8c0-0.4-0.1-0.7-0.2-0.9-0.1-0.1-0.3-0.2-0.6-0.2h-0.3v-0.2h3.1v0.2h-0.3c-0.3 0-0.5 0.1-0.6 0.3-0.1 0.1-0.1 0.4-0.1 0.8v3.1c0 0.3 0 0.6 0.1 1s0.1 0.6 0.3 0.8c0.1 0.2 0.3 0.4 0.6 0.5s0.6 0.2 0.9 0.2c0.5 0 0.9-0.1 1.3-0.3s0.6-0.5 0.8-0.8c0.1-0.3 0.2-0.9 0.2-1.6v-2.9c0-0.4 0-0.7-0.1-0.8-0.1-0.2-0.3-0.2-0.6-0.2"/><path class="st0" d="m289 365.3v-0.2h3.1v0.2h-0.3c-0.3 0-0.5 0.1-0.6 0.3-0.1 0.1-0.1 0.4-0.1 0.8v3.5c0 0.5-0.1 1-0.2 1.3s-0.3 0.6-0.6 0.9c-0.3 0.2-0.6 0.4-1.1 0.4-0.3 0-0.6-0.1-0.8-0.2-0.2-0.2-0.3-0.3-0.3-0.6 0-0.2 0-0.3 0.1-0.4s0.3-0.2 0.4-0.2 0.2 0 0.3 0.1 0.2 0.3 0.3 0.6c0.1 0.2 0.2 0.3 0.3 0.3s0.2-0.1 0.3-0.2 0.1-0.3 0.1-0.6v-4.9c0-0.4 0-0.6-0.1-0.7 0-0.1-0.1-0.2-0.2-0.2-0.2-0.1-0.3-0.1-0.5-0.1"/><path class="st0" d="m295.6 372v0.2h-3.1v-0.2h0.3c0.3 0 0.5-0.1 0.6-0.3 0.1-0.1 0.1-0.4 0.1-0.8v-4.6c0-0.4 0-0.6-0.1-0.7 0-0.1-0.1-0.2-0.2-0.2-0.2-0.1-0.3-0.1-0.5-0.1h-0.3v-0.2h3.1v0.2h-0.3c-0.3 0-0.5 0.1-0.6 0.3-0.1 0.1-0.1 0.4-0.1 0.8v4.6c0 0.4 0 0.6 0.1 0.7 0 0.1 0.1 0.2 0.2 0.2 0.2 0.1 0.3 0.1 0.5 0.1"/><path class="st0" d="m302.1 370.2h0.2l-0.6 1.9h-5.6v-0.1h0.3c0.3 0 0.5-0.1 0.7-0.3 0.1-0.1 0.1-0.4 0.1-0.8v-4.6c0-0.4-0.1-0.7-0.1-0.8-0.1-0.2-0.3-0.2-0.6-0.2h-0.3v-0.2h3.3v0.2c-0.4 0-0.6 0-0.8 0.1s-0.3 0.2-0.3 0.3c-0.1 0.1-0.1 0.4-0.1 0.8v4.5c0 0.3 0 0.5 0.1 0.6 0 0.1 0.1 0.1 0.2 0.2h0.8 0.5c0.6 0 0.9 0 1.2-0.1 0.2-0.1 0.4-0.2 0.6-0.4 0-0.3 0.2-0.6 0.4-1.1"/><path class="st0" d="m308.8 370.2h0.2l-0.6 1.9h-5.6v-0.2h0.3c0.3 0 0.5-0.1 0.7-0.3 0.1-0.1 0.1-0.4 0.1-0.8v-4.6c0-0.4 0-0.7-0.1-0.8s-0.3-0.2-0.6-0.2h-0.3v-0.2h3.3v0.2c-0.4 0-0.6 0-0.8 0.1s-0.3 0.2-0.3 0.3c-0.1 0.1-0.1 0.4-0.1 0.8v4.5c0 0.3 0 0.5 0.1 0.6 0 0.1 0.1 0.1 0.2 0.2h0.8 0.5c0.5 0 0.9 0 1.2-0.1 0.2-0.1 0.4-0.2 0.6-0.4 0-0.3 0.2-0.6 0.4-1"/><path class="st0" d="m313.1 364.9c0.9 0 1.7 0.3 2.4 1s1 1.6 1 2.6c0 1.1-0.3 2-1 2.7s-1.5 1.1-2.5 1.1-1.8-0.3-2.5-1-1-1.6-1-2.7 0.4-2.1 1.2-2.8c0.7-0.6 1.5-0.9 2.4-0.9m-0.1 0.3c-0.6 0-1.2 0.2-1.6 0.7-0.5 0.6-0.7 1.4-0.7 2.6s0.3 2 0.8 2.7c0.4 0.5 0.9 0.7 1.5 0.7 0.7 0 1.2-0.3 1.7-0.8 0.4-0.5 0.7-1.3 0.6-2.5 0-1.2-0.3-2.1-0.7-2.7-0.3-0.4-0.9-0.7-1.6-0.7"/><path class="st0" d="m232.2 382.6 20.7-0.1v1.1h-1c-1.6 0-2.6 0.2-3.2 0.5s-1 0.8-1.2 1.3c-0.2 0.6-0.4 1.9-0.3 4.1l0.1 18.9c0 3.5 0.3 5.8 0.8 6.9s1.4 2 2.7 2.8c1.3 0.7 2.8 1.1 4.7 1.1 2.2 0 4-0.5 5.5-1.4s2.7-2.3 3.4-3.9c0.7-1.7 1.1-4.5 1.1-8.7l-0.1-15.8c0-1.7-0.2-3-0.6-3.7s-0.9-1.2-1.4-1.5c-0.9-0.4-2.1-0.6-3.8-0.6v-1.1l13.9-0.1v1.1h-0.8c-1.1 0-2.1 0.2-2.8 0.7-0.7 0.4-1.3 1.1-1.6 2-0.2 0.6-0.4 1.7-0.4 3.3l0.1 14.5c0 4.5-0.3 7.8-0.9 9.9-0.6 2-2.1 3.9-4.5 5.6s-5.7 2.6-9.9 2.6c-3.5 0-6.2-0.4-8.1-1.3-2.6-1.2-4.4-2.8-5.5-4.7s-1.6-4.5-1.6-7.7l-0.1-18.9c0-2.2-0.1-3.6-0.4-4.1s-0.7-1-1.3-1.3-1.8-0.5-3.5-0.4"/><path class="st0" d="m310.2 381.3 0.1 13.4h-1.1c-0.9-3.5-2.5-6.2-4.9-8-2.4-1.9-5.1-2.8-8.1-2.8-2.5 0-4.8 0.7-6.9 2.1s-3.6 3.2-4.6 5.5c-1.2 2.9-1.8 6.1-1.8 9.6s0.5 6.6 1.4 9.5c0.9 2.8 2.4 5 4.3 6.4s4.5 2.2 7.5 2.1c2.5 0 4.8-0.6 6.9-1.6 2.1-1.1 4.3-2.9 6.6-5.5v3.3c-2.2 2.3-4.6 3.9-7 5-2.4 1-5.3 1.5-8.5 1.6-4.3 0-8.1-0.8-11.4-2.4s-5.9-4-7.8-7.1c-1.8-3.1-2.7-6.4-2.8-9.9 0-3.7 1-7.2 3-10.5s4.7-5.9 8.1-7.7 7-2.8 10.9-2.8c2.8 0 5.8 0.5 9 1.7 1.8 0.7 3 1 3.5 1 0.6 0 1.2-0.2 1.6-0.7 0.5-0.5 0.8-1.2 0.9-2.1"/><path class="st0" d="m351.9 381.9v1.1c-1.5 0.2-2.8 1-3.9 2.3-0.8 1-2.1 3.2-3.7 6.7l-13.7 29.6h-1l-13.9-30.7c-1.7-3.7-2.8-5.9-3.4-6.5s-1.6-1-3.2-1.2v-1.1l19.3-0.1v1.1h-0.6c-1.8 0-2.9 0.2-3.6 0.6-0.5 0.3-0.7 0.7-0.7 1.3 0 0.3 0.1 0.7 0.2 1.2 0.2 0.5 0.7 1.7 1.6 3.7l8.7 19.2 8-17.1c0.9-2.1 1.5-3.5 1.7-4.2s0.3-1.3 0.3-1.8c0-0.6-0.2-1.1-0.5-1.5s-0.8-0.8-1.4-1c-0.9-0.3-2-0.5-3.4-0.5v-1"/><path class="st0" d="m233.7 431.4c0.2 0.1 0.3 0.1 0.3 0.1 0.1 0 0.1 0 0.1-0.1l0.1-0.1h0.1v1.1h-0.1c-0.1-0.3-0.2-0.4-0.4-0.6-0.2-0.3-0.5-0.4-0.8-0.4s-0.6 0.1-0.7 0.4-0.2 0.7-0.2 1.1 0 0.6 0.1 0.9c0.2 0.4 0.4 0.6 0.8 0.6 0.2 0 0.5-0.1 0.7-0.2 0.1-0.1 0.3-0.2 0.4-0.4l0.1 0.1c-0.2 0.2-0.3 0.4-0.5 0.5-0.3 0.2-0.5 0.3-0.8 0.3-0.5 0-0.9-0.1-1.2-0.4-0.4-0.3-0.5-0.7-0.5-1.3 0-0.5 0.2-1 0.5-1.3s0.7-0.5 1.2-0.5c0.4 0.1 0.6 0.1 0.8 0.2"/><path class="st0" d="m234.8 434.5c0.1 0 0.2 0 0.3-0.1s0.1-0.1 0.1-0.3v-2.4c0-0.1-0.1-0.2-0.1-0.3-0.1 0-0.2-0.1-0.3-0.1v-0.1h1.7v0.1c-0.2 0-0.3 0-0.4 0.1-0.1 0-0.1 0.2-0.1 0.4v2.3c0 0.1 0 0.2 0.1 0.2s0.2 0.1 0.3 0c0.3 0 0.5-0.1 0.7-0.2s0.4-0.4 0.5-0.8h0.1l-0.2 1.1h-2.8"/><path class="st0" d="m239.6 431.3v0.1c-0.2 0-0.3 0-0.4 0.1s-0.1 0.2-0.1 0.4v1.6c0 0.2 0 0.4 0.1 0.6s0.3 0.4 0.6 0.4c0.4 0 0.6-0.1 0.7-0.4 0.1-0.1 0.1-0.4 0.1-0.6v-1.5c0-0.2 0-0.3-0.1-0.4s-0.2-0.1-0.4-0.1v-0.1h1.1v0.1c-0.2 0-0.3 0.1-0.3 0.1s-0.1 0.1-0.1 0.3v1.6c0 0.4-0.1 0.7-0.3 1-0.2 0.2-0.5 0.3-0.9 0.3-0.6 0-0.9-0.2-1.1-0.5-0.1-0.2-0.2-0.4-0.2-0.7v-1.6c0-0.2 0-0.3-0.1-0.3 0 0-0.1-0.1-0.3-0.1v-0.1"/><path class="st0" d="m241.5 434.5c0.1 0 0.2 0 0.3-0.1s0.1-0.1 0.1-0.3v-2.4c0-0.1 0-0.2-0.1-0.3-0.1 0-0.2 0-0.3-0.1v-0.1h1.5c0.3 0 0.5 0 0.7 0.1 0.4 0.1 0.5 0.4 0.5 0.7 0 0.2-0.1 0.4-0.2 0.5s-0.3 0.2-0.5 0.2v0.1c0.2 0 0.3 0.1 0.5 0.2 0.3 0.2 0.4 0.4 0.4 0.7s-0.1 0.5-0.4 0.7c-0.2 0.2-0.6 0.3-1 0.3h-1.6m1.9-2.1c0.1-0.1 0.2-0.3 0.1-0.5 0-0.2 0-0.3-0.1-0.5-0.1-0.1-0.2-0.2-0.4-0.2-0.1 0-0.2 0-0.2 0.1 0 0-0.1 0.1-0.1 0.2v1.1c0.4 0 0.6-0.1 0.7-0.2m-0.6 1.7c0 0.1 0.1 0.1 0.2 0.1 0.2 0 0.4-0.1 0.5-0.2s0.1-0.3 0.1-0.5c0-0.3-0.1-0.6-0.3-0.7-0.1-0.1-0.3-0.1-0.6-0.1v1.2c0.1 0.1 0.1 0.2 0.1 0.2"/><path class="st0" d="m245.9 434.5c0.1 0 0.2 0 0.3-0.1 0.1 0 0.1-0.1 0.1-0.3v-2.4c0-0.1 0-0.2-0.1-0.3 0 0-0.1 0-0.3-0.1v-0.1h1.5c0.6 0 1.1 0.2 1.4 0.5s0.4 0.7 0.4 1.2c0 0.4-0.1 0.8-0.4 1.1s-0.8 0.5-1.3 0.5h-1.5m1.1-0.2s0.1 0.1 0.2 0.1c0.3 0 0.5-0.1 0.7-0.3s0.3-0.6 0.3-1.2c0-0.3-0.1-0.6-0.2-0.9-0.2-0.4-0.4-0.6-0.8-0.6-0.1 0-0.2 0-0.2 0.1v0.2 2.4 0.2"/><path class="st0" d="m249.4 434.6v-0.1c0.1 0 0.2 0 0.3-0.1s0.1-0.1 0.1-0.3v-2.4c0-0.1 0-0.2-0.1-0.3-0.1 0-0.2 0-0.3-0.1v-0.1h2.8v1h-0.1c-0.1-0.3-0.2-0.5-0.3-0.6s-0.4-0.2-0.8-0.2c-0.1 0-0.2 0-0.3 0.1 0 0-0.1 0.1-0.1 0.2v1.1c0.3 0 0.5-0.1 0.6-0.2s0.2-0.3 0.2-0.6h0.1v1.7h-0.1c0-0.3-0.1-0.5-0.2-0.6s-0.3-0.2-0.6-0.2v1.2c0 0.1 0 0.2 0.1 0.2s0.2 0.1 0.3 0.1c0.3 0 0.6-0.1 0.7-0.2 0.2-0.1 0.4-0.4 0.5-0.7h0.1l-0.2 1"/><path class="st0" d="m252.6 434.4c0.2 0 0.3 0 0.3-0.1 0.1-0.1 0.1-0.2 0.1-0.4v-2.2c0-0.2 0-0.3-0.1-0.3s-0.2-0.1-0.3-0.1v-0.1h1.6c0.4 0 0.7 0.1 0.9 0.2s0.3 0.4 0.3 0.7c0 0.2 0 0.3-0.1 0.5-0.1 0.1-0.2 0.3-0.4 0.3-0.1 0.1-0.3 0.1-0.4 0.1h-0.7v0.9c0 0.2 0 0.3 0.1 0.4s0.2 0.1 0.3 0.1v0.1h-1.6m1.8-1.7c0.2-0.1 0.2-0.3 0.2-0.6 0-0.2 0-0.4-0.1-0.5s-0.2-0.2-0.4-0.2h-0.2l-0.1 0.1v1.3c0.3 0 0.5-0.1 0.6-0.1"/><path class="st0" d="m258.6 431.6c0.3 0.3 0.5 0.7 0.5 1.3 0 0.5-0.2 0.9-0.5 1.3-0.3 0.3-0.7 0.5-1.2 0.5s-0.9-0.2-1.3-0.5c-0.3-0.3-0.5-0.7-0.5-1.2s0.2-0.9 0.5-1.3c0.3-0.3 0.7-0.5 1.2-0.5 0.5-0.1 0.9 0.1 1.3 0.4m-0.5 2.2c0.1-0.2 0.1-0.5 0.1-0.9 0-0.5-0.1-0.9-0.2-1.2-0.2-0.3-0.4-0.4-0.6-0.4-0.4 0-0.6 0.2-0.7 0.7-0.1 0.2-0.1 0.5-0.1 0.9s0 0.7 0.1 0.9c0.1 0.4 0.4 0.7 0.8 0.6 0.2 0 0.5-0.2 0.6-0.6"/><path class="st0" d="m259.3 434.4c0.2 0 0.3 0 0.3-0.1 0.1-0.1 0.1-0.2 0.1-0.4v-2.2c0-0.2 0-0.3-0.1-0.4-0.1 0-0.2-0.1-0.3-0.1v-0.1h1.6c0.3 0 0.6 0 0.8 0.1 0.4 0.1 0.6 0.4 0.6 0.7s-0.1 0.5-0.3 0.6-0.3 0.2-0.5 0.2l1 1.4 0.1 0.1h0.1v0.1h-1l-1.1-1.5v1c0 0.2 0 0.3 0.1 0.4s0.2 0.1 0.3 0.1v0.1h-1.6m1.8-1.7c0.1-0.1 0.2-0.3 0.2-0.6 0-0.2 0-0.3-0.1-0.5s-0.3-0.3-0.5-0.3c-0.1 0-0.2 0-0.3 0.1 0 0-0.1 0.1-0.1 0.2v1.2c0.4 0 0.6 0 0.8-0.1"/><path class="st0" d="m262.7 431.2h2.9v1h-0.1c0-0.3-0.2-0.6-0.4-0.7-0.1-0.1-0.3-0.1-0.5-0.1v2.6c0 0.2 0 0.3 0.1 0.4s0.2 0.1 0.4 0.1v0.1h-1.7v-0.1c0.2 0 0.3 0 0.4-0.1s0.1-0.2 0.1-0.4v-2.6c-0.2 0-0.4 0-0.5 0.1-0.2 0.1-0.4 0.4-0.4 0.7h-0.1"/><path class="st0" d="m265.8 434.3c0.1 0 0.2 0 0.3-0.1s0.1-0.1 0.1-0.3v-2.4c0-0.1-0.1-0.2-0.1-0.3h-0.3v-0.1h1.7v0.1h-0.3c-0.1 0.1-0.1 0.1-0.1 0.3v2.4c0 0.1 0 0.2 0.1 0.3 0.1 0 0.2 0.1 0.3 0.1v0.1h-1.7"/><path class="st0" d="m269.3 431.2v0.1h-0.3s-0.1 0.1-0.1 0.2v0.1 0.1l0.8 1.8 0.6-1.7v-0.1-0.1c0-0.1 0-0.1-0.1-0.2-0.1 0-0.2 0-0.3-0.1v-0.1h1v0.1c-0.1 0-0.2 0-0.3 0.1s-0.1 0.2-0.2 0.3l-1.1 2.9h-0.1l-1.3-2.9c0-0.1-0.1-0.2-0.2-0.3 0 0-0.1-0.1-0.2-0.1v-0.1"/><path class="st0" d="m274.1 431.5c0.3 0.3 0.5 0.7 0.5 1.3 0 0.5-0.2 0.9-0.5 1.3-0.3 0.3-0.7 0.5-1.2 0.5s-0.9-0.2-1.3-0.5c-0.3-0.3-0.5-0.7-0.5-1.2s0.2-0.9 0.5-1.3c0.3-0.3 0.7-0.5 1.2-0.5 0.6 0 1 0.1 1.3 0.4m-0.5 2.2c0.1-0.2 0.1-0.5 0.1-0.9 0-0.5-0.1-0.9-0.2-1.2-0.2-0.3-0.4-0.4-0.6-0.4-0.4 0-0.6 0.2-0.7 0.7-0.1 0.2-0.1 0.5-0.1 0.9s0 0.7 0.1 0.9c0.1 0.4 0.4 0.7 0.8 0.6 0.3 0.1 0.5-0.1 0.6-0.6"/><path class="st0" d="m277.7 431.1v0.1c-0.2 0-0.3 0-0.4 0.1-0.1 0-0.1 0.2-0.1 0.4v1.6c0 0.2 0 0.4 0.1 0.6s0.3 0.4 0.6 0.4c0.4 0 0.6-0.1 0.7-0.4 0.1-0.1 0.1-0.4 0.1-0.6v-1.5c0-0.2 0-0.3-0.1-0.4s-0.2-0.1-0.4-0.1v-0.1h1.1v0.1c-0.2 0-0.3 0.1-0.3 0.1 0 0.1-0.1 0.1-0.1 0.3v1.6c0 0.4-0.1 0.7-0.3 1-0.2 0.2-0.5 0.3-0.9 0.3-0.6 0-0.9-0.2-1.1-0.5-0.1-0.2-0.2-0.4-0.2-0.7v-1.6c0-0.2 0-0.3-0.1-0.3s-0.2-0.1-0.3-0.1v-0.1"/><path class="st0" d="m279.5 434.3c0.2 0 0.3 0 0.3-0.1 0.1-0.1 0.1-0.2 0.1-0.3v-2.3c-0.2-0.2-0.2-0.3-0.3-0.3 0 0-0.1 0-0.1-0.1v-0.1h1l1.7 2v-1.4c0-0.2 0-0.3-0.1-0.4s-0.2-0.1-0.4-0.1v-0.1h1v0.1c-0.1 0-0.2 0.1-0.3 0.1 0 0-0.1 0.1-0.1 0.3v2.9h-0.1l-2.1-2.6v1.9c0 0.2 0 0.3 0.1 0.3 0.1 0.1 0.2 0.2 0.4 0.2v0.1h-1.1"/><path class="st0" d="m283 434.3c0.1 0 0.2 0 0.3-0.1s0.1-0.1 0.2-0.3v-2.4c0-0.1-0.1-0.2-0.1-0.3-0.1 0-0.2 0-0.3-0.1v-0.1h1.7v0.1c-0.2 0-0.3 0-0.3 0.1-0.1 0.1-0.1 0.1-0.1 0.3v2.4c0 0.1 0 0.2 0.1 0.3s0.2 0.1 0.3 0.1v0.1h-1.7"/><path class="st0" d="m286.5 431.1v0.1h-0.3c-0.1 0-0.1 0.1-0.1 0.2v0.1 0.1l0.8 1.8 0.6-1.7v-0.1-0.1c0-0.1 0-0.2-0.1-0.2h-0.3v-0.1h1v0.1c-0.1 0-0.2 0-0.3 0.1s-0.1 0.2-0.2 0.3l-1.1 2.9h-0.1l-1.3-2.9c0-0.1-0.1-0.2-0.2-0.3s-0.1-0.1-0.2-0.1v-0.1"/><path class="st0" d="m288.4 434.4v-0.1c0.1 0 0.2 0 0.3-0.1s0.1-0.1 0.1-0.3v-2.4c0-0.1 0-0.2-0.1-0.3 0 0-0.1 0-0.3-0.1v-0.1h2.8v1h-0.1c-0.1-0.3-0.2-0.5-0.3-0.6s-0.4-0.2-0.8-0.2h-0.3s-0.1 0.1-0.1 0.2v1.1c0.3 0 0.5 0 0.6-0.2 0.1-0.1 0.2-0.3 0.2-0.6h0.1v1.6h-0.1c0-0.3-0.1-0.5-0.2-0.6s-0.3-0.2-0.6-0.2v1.2c0 0.1 0 0.2 0.1 0.2s0.2 0.1 0.3 0.1c0.3 0 0.6-0.1 0.8-0.2s0.4-0.4 0.5-0.7h0.1l-0.2 1"/><path class="st0" d="m291.6 434.2c0.2 0 0.3 0 0.3-0.1 0.1-0.1 0.1-0.2 0.1-0.4v-2.2c0-0.2 0-0.3-0.1-0.4 0 0-0.2-0.1-0.3-0.1v-0.1h1.6c0.3 0 0.6 0 0.8 0.1 0.4 0.1 0.6 0.4 0.6 0.7s-0.1 0.5-0.3 0.6-0.3 0.2-0.5 0.2l1 1.4 0.1 0.1h0.1v0.1h-1l-1.1-1.5v1c0 0.2 0 0.3 0.1 0.4s0.2 0.1 0.3 0.1v0.1h-1.6m1.8-1.7c0.1-0.1 0.2-0.3 0.2-0.6 0-0.2 0-0.3-0.1-0.5s-0.3-0.3-0.5-0.3c-0.1 0-0.2 0-0.3 0.1 0 0-0.1 0.1-0.1 0.2v1.2c0.4 0 0.6 0 0.8-0.1"/><path class="st0" d="m295.2 433.2h0.1c0.1 0.4 0.2 0.6 0.4 0.8s0.4 0.2 0.6 0.2 0.4-0.1 0.5-0.2 0.1-0.2 0.1-0.4c0-0.1-0.1-0.3-0.2-0.4s-0.2-0.1-0.4-0.2l-0.3-0.2c-0.3-0.2-0.5-0.3-0.6-0.5s-0.2-0.3-0.2-0.6c0-0.2 0.1-0.5 0.2-0.7 0.2-0.2 0.4-0.3 0.8-0.3 0.2 0 0.3 0 0.5 0.1s0.3 0.1 0.3 0.1c0.1 0 0.1 0 0.1-0.1v-0.1h0.1v1.1h-0.1c-0.1-0.2-0.2-0.5-0.3-0.6-0.2-0.2-0.4-0.3-0.6-0.3s-0.3 0.1-0.4 0.1c-0.1 0.1-0.1 0.2-0.1 0.3 0 0.2 0 0.3 0.1 0.4s0.3 0.2 0.6 0.3l0.4 0.2c0.2 0.1 0.3 0.2 0.4 0.3 0.2 0.2 0.3 0.4 0.3 0.7 0 0.2-0.1 0.5-0.3 0.7s-0.5 0.3-0.9 0.3h-0.3c-0.1 0-0.2 0-0.3-0.1h-0.1-0.1-0.1v0.1h-0.1"/><path class="st0" d="m297.8 434.2c0.1 0 0.2 0 0.3-0.1 0.1 0 0.1-0.1 0.1-0.3v-2.4c0-0.1 0-0.2-0.1-0.3h-0.3v-0.1h1.7v0.1h-0.3c-0.1 0.1-0.1 0.1-0.1 0.3v2.4c0 0.1 0 0.2 0.1 0.3 0.1 0 0.2 0.1 0.3 0.1v0.1h-1.7"/><path class="st0" d="m299.6 434.2c0.1 0 0.2 0 0.3-0.1s0.1-0.1 0.1-0.3v-2.4c0-0.1 0-0.2-0.1-0.3-0.1 0-0.1 0-0.3-0.1v-0.1h1.5c0.6 0 1.1 0.2 1.4 0.5s0.4 0.7 0.4 1.2c0 0.4-0.1 0.8-0.4 1.1s-0.8 0.5-1.3 0.5h-1.5m1.2-0.1s0.1 0.1 0.2 0.1c0.3 0 0.5-0.1 0.7-0.3s0.3-0.6 0.3-1.2c0-0.3-0.1-0.6-0.2-0.9-0.2-0.4-0.4-0.6-0.8-0.6-0.1 0-0.2 0-0.2 0.1v0.2 2.4c-0.1 0-0.1 0.1 0 0.2"/><path class="st0" d="m303.1 434.2c0.1 0 0.2-0.1 0.3-0.2 0-0.1 0.1-0.2 0.2-0.4l1-2.7h0.1l1.1 2.6c0.1 0.3 0.2 0.5 0.3 0.6s0.1 0.1 0.3 0.1v0.1h-1.6v-0.1h0.3c0.1 0 0.1-0.1 0.1-0.2v-0.2s0-0.1-0.1-0.2l-0.1-0.3h-1.1c-0.1 0.2-0.1 0.3-0.1 0.4s-0.1 0.2-0.1 0.3 0 0.1 0.1 0.1h0.2v0.1h-1m1.9-1.1-0.5-1.1-0.4 1.1z"/><path class="st0" d="m306.6 434.1c0.1 0 0.2 0 0.3-0.1 0.1 0 0.1-0.1 0.1-0.3v-2.4c0-0.1 0-0.2-0.1-0.3 0 0-0.1-0.1-0.3-0.1v-0.1h1.5c0.6 0 1 0.2 1.4 0.5 0.3 0.3 0.4 0.7 0.4 1.2 0 0.4-0.1 0.8-0.4 1.1s-0.8 0.5-1.3 0.5h-1.5m1.1-0.1s0.1 0.1 0.2 0.1c0.3 0 0.5-0.1 0.7-0.3s0.3-0.6 0.3-1.2c0-0.3-0.1-0.6-0.2-0.9-0.2-0.4-0.4-0.6-0.8-0.6-0.1 0-0.2 0-0.2 0.1v0.2 2.4 0.2"/><path class="st0" d="m313.7 431c0.2 0.1 0.3 0.1 0.3 0.1 0.1 0 0.1 0 0.1-0.1s0.1-0.1 0.1-0.1h0.1v1.1h-0.1c-0.1-0.2-0.2-0.4-0.4-0.6-0.2-0.3-0.5-0.4-0.8-0.4s-0.6 0.1-0.7 0.4-0.2 0.7-0.2 1.1 0 0.6 0.1 0.9c0.2 0.4 0.4 0.6 0.8 0.6 0.3 0 0.5-0.1 0.7-0.2 0.1-0.1 0.3-0.2 0.4-0.4l0.1 0.1c-0.2 0.2-0.3 0.4-0.5 0.5-0.3 0.2-0.5 0.3-0.8 0.3-0.5 0-0.9-0.1-1.2-0.4-0.4-0.3-0.5-0.7-0.5-1.3 0-0.5 0.2-1 0.5-1.3s0.7-0.5 1.2-0.5c0.4 0.1 0.6 0.1 0.8 0.2"/><path class="st0" d="m314.8 434.2v-0.1c0.1 0 0.2 0 0.3-0.1 0.1 0 0.1-0.1 0.1-0.3v-2.4c0-0.1 0-0.2-0.1-0.3-0.1 0-0.2-0.1-0.3-0.1v-0.1h2.8v1h-0.1c-0.1-0.3-0.2-0.5-0.3-0.6-0.2-0.1-0.4-0.2-0.8-0.2h-0.3s-0.1 0.1-0.1 0.2v1.1c0.3 0 0.5 0 0.6-0.2 0.1-0.1 0.2-0.3 0.2-0.6h0.1v1.6h-0.1c0-0.3-0.1-0.5-0.2-0.6s-0.3-0.2-0.6-0.2v1.2c0 0.1 0 0.2 0.1 0.2s0.2 0.1 0.3 0.1c0.3 0 0.6-0.1 0.7-0.2 0.2-0.1 0.4-0.3 0.5-0.7h0.1l-0.2 1m-0.5-3.9-0.1 0.1-0.6 0.4h-0.3l0.6-0.8 0.1-0.1c0.1 0 0.1-0.1 0.2-0.1s0.1 0 0.2 0.1c0 0 0.1 0.1 0.1 0.2-0.2 0.1-0.2 0.2-0.2 0.2"/><path class="st0" d="m318.1 433.1h0.1c0.1 0.4 0.2 0.6 0.4 0.8s0.4 0.2 0.6 0.2 0.4-0.1 0.5-0.2 0.1-0.2 0.1-0.4c0-0.1 0-0.3-0.1-0.4s-0.2-0.1-0.4-0.2l-0.3-0.2c-0.3-0.2-0.5-0.3-0.6-0.5s-0.2-0.3-0.2-0.6c0-0.2 0.1-0.5 0.2-0.7 0.2-0.2 0.4-0.3 0.8-0.3 0.2 0 0.3 0 0.5 0.1s0.3 0.1 0.3 0.1 0.1 0 0.1-0.1v-0.1h0.1v1.1h-0.1c-0.1-0.2-0.2-0.5-0.3-0.6-0.2-0.2-0.4-0.3-0.6-0.3s-0.3 0.1-0.4 0.1c-0.1 0.1-0.1 0.2-0.1 0.3 0 0.2 0 0.3 0.1 0.3 0.1 0.1 0.3 0.2 0.6 0.3l0.4 0.2c0.2 0.1 0.3 0.2 0.4 0.3 0.2 0.2 0.3 0.4 0.3 0.7 0 0.2-0.1 0.5-0.3 0.7s-0.5 0.3-0.9 0.3h-0.3c-0.1 0-0.2 0-0.3-0.1h-0.1-0.1-0.1v0.1h-0.1"/><path class="st0" d="m320.7 434.1c0.1 0 0.2-0.1 0.3-0.2 0-0.1 0.1-0.2 0.2-0.4l1.1-2.7h0.1l1.1 2.6c0.1 0.3 0.2 0.5 0.3 0.6s0.1 0.1 0.3 0.1v0.1h-1.6v-0.1h0.3s0.1-0.1 0.1-0.2v-0.2c0-0.1 0-0.1-0.1-0.2l-0.1-0.3h-1.1c-0.1 0.2-0.1 0.3-0.1 0.4s-0.1 0.2-0.1 0.3 0.1 0.1 0.1 0.2h0.2v0.1h-1m1.8-1.2-0.5-1.1-0.4 1.1z"/><path class="st0" d="m324.2 434c0.2 0 0.3 0 0.3-0.1 0.1-0.1 0.1-0.2 0.1-0.4v-2.2c0-0.2 0-0.3-0.1-0.4 0 0-0.1-0.1-0.3-0.1v-0.1h1.6c0.3 0 0.6 0 0.8 0.1 0.4 0.1 0.6 0.4 0.6 0.7s-0.1 0.5-0.3 0.6-0.3 0.2-0.5 0.2l1 1.4s0 0.1 0.1 0.1h0.1v0.1h-1l-1.1-1.5v1c0 0.2 0 0.3 0.1 0.4s0.2 0.1 0.3 0.1v0.1h-1.6m1.7-1.7c0.1-0.1 0.2-0.3 0.2-0.6 0-0.2 0-0.3-0.1-0.5s-0.2-0.3-0.5-0.3h-0.3s-0.1 0.1-0.1 0.2v1.2c0.5 0.2 0.7 0.1 0.8 0"/><path class="st0" d="m330.4 430.8v0.1h-0.3s-0.1 0.1-0.1 0.2v0.1 0.1l0.8 1.8 0.6-1.7v-0.1-0.1c0-0.1 0-0.1-0.1-0.2h-0.3v-0.1h1v0.1c-0.1 0-0.2 0-0.3 0.1s-0.1 0.2-0.2 0.3l-1.1 2.9h-0.1l-1.3-2.9c0-0.1-0.1-0.2-0.2-0.3s-0.1-0.1-0.2-0.1v-0.1"/><path class="st0" d="m331.6 434c0.1 0 0.2-0.1 0.3-0.2 0-0.1 0.1-0.2 0.2-0.4l1.1-2.7h0.1l1.1 2.6c0.1 0.3 0.2 0.5 0.3 0.6s0.1 0.1 0.3 0.1v0.1h-1.6v-0.1h0.3c0.1 0 0.1-0.1 0.1-0.2v-0.2s0-0.1-0.1-0.2l-0.1-0.3h-1.1c-0.1 0.2-0.1 0.3-0.1 0.4s-0.1 0.2-0.1 0.3 0.1 0.1 0.1 0.1h0.2v0.1h-1m1.8-1-0.5-1.1-0.4 1.1z"/><path class="st0" d="m335.1 434c0.1 0 0.2 0 0.3-0.1s0.1-0.1 0.1-0.3v-2.4c0-0.1 0-0.2-0.1-0.3-0.1 0-0.1 0-0.3-0.1v-0.1h1.7v0.1c-0.2 0-0.3 0-0.4 0.1-0.1 0-0.1 0.2-0.1 0.4v2.3c0 0.1 0 0.2 0.1 0.2s0.2 0.1 0.3 0.1c0.3 0 0.5-0.1 0.7-0.2s0.4-0.4 0.5-0.8h0.1l-0.2 1.1h-2.8"/><path class="st0" d="m338.3 434c0.1 0 0.2 0 0.3-0.1s0.1-0.1 0.1-0.3v-2.4c0-0.1-0.1-0.2-0.1-0.3-0.1 0-0.2 0-0.3-0.1v-0.1h1.7v0.1c-0.2 0-0.3 0-0.4 0.1-0.1 0-0.1 0.2-0.1 0.4v2.3c0 0.1 0 0.2 0.1 0.2s0.2 0.1 0.3 0c0.3 0 0.5-0.1 0.7-0.2s0.4-0.4 0.5-0.8h0.1l-0.2 1.1h-2.8"/><path class="st0" d="m341.5 434.1v-0.1c0.1 0 0.2 0 0.3-0.1s0.1-0.1 0.1-0.3v-2.4c0-0.1 0-0.2-0.1-0.3-0.1 0-0.2 0-0.3-0.1v-0.1h2.8v1h-0.1c-0.1-0.3-0.2-0.5-0.3-0.6-0.2-0.1-0.4-0.2-0.8-0.2h-0.3s-0.1 0.1-0.1 0.2v1.1c0.3 0 0.5 0 0.6-0.2 0.1-0.1 0.2-0.3 0.2-0.6h0.1v1.7h-0.1c0-0.3-0.1-0.5-0.2-0.6s-0.3-0.2-0.6-0.2v1.2c0 0.1 0 0.2 0.1 0.2s0.2 0.1 0.3 0.1c0.3 0 0.6-0.1 0.7-0.2 0.2-0.1 0.4-0.4 0.5-0.7h0.1l-0.2 1"/><path class="st0" d="m347 430.7v0.1c-0.2 0-0.3 0-0.4 0.1-0.1 0-0.1 0.2-0.1 0.4v2.1c0 0.3-0.1 0.6-0.3 0.8s-0.5 0.3-0.8 0.3c-0.2 0-0.4-0.1-0.6-0.2-0.1-0.1-0.2-0.3-0.2-0.4s0-0.2 0.1-0.3 0.2-0.1 0.2-0.1c0.1 0 0.2 0 0.2 0.1 0.1 0.1 0.1 0.1 0.1 0.2s0 0.2-0.1 0.2c0 0.1-0.1 0.1-0.1 0.1v0.1h0.1c0.1 0 0.2 0 0.3-0.1v-0.3-2.7c0-0.1-0.1-0.2-0.1-0.3h-0.3v-0.1"/><path class="st0" d="m350.2 431.1c0.3 0.3 0.5 0.7 0.5 1.3 0 0.5-0.2 0.9-0.5 1.3-0.3 0.3-0.7 0.5-1.2 0.5s-0.9-0.2-1.3-0.5c-0.3-0.3-0.5-0.7-0.5-1.2s0.2-0.9 0.5-1.3c0.3-0.3 0.7-0.5 1.2-0.5s0.9 0.1 1.3 0.4m-0.5 2.2c0.1-0.2 0.1-0.5 0.1-0.9 0-0.5-0.1-0.9-0.2-1.2s-0.4-0.4-0.6-0.4c-0.4 0-0.6 0.2-0.8 0.7-0.1 0.2-0.1 0.5-0.1 0.9s0 0.7 0.1 0.9c0.1 0.4 0.4 0.7 0.8 0.6 0.3 0.1 0.6-0.2 0.7-0.6"/><path class="st0" d="m286.4 492v5c0 0.2 0.1 0.3 0.2 0.4s0.3 0.1 0.6 0.1v0.1h-2.3v-0.1c0.3 0 0.5-0.1 0.6-0.1 0.1-0.1 0.2-0.2 0.1-0.5v-3.8c0-0.1 0-0.2-0.1-0.3 0-0.1-0.1-0.1-0.2-0.1s-0.2 0-0.3 0.1c-0.1 0-0.2 0.1-0.3 0.1v-0.1l1.7-0.8"/><path class="st0" d="m291.5 492.6c0.3 0.5 0.5 1 0.5 1.6 0 0.4-0.1 0.8-0.2 1.3-0.2 0.4-0.4 0.8-0.7 1.2-0.4 0.4-0.8 0.7-1.3 0.9-0.3 0.1-0.7 0.2-1.1 0.3v-0.2c0.3-0.1 0.5-0.1 0.7-0.2 0.3-0.1 0.6-0.3 0.8-0.5 0.3-0.3 0.5-0.6 0.7-0.9s0.3-0.6 0.3-0.9l-0.1 0.1c-0.2 0.2-0.4 0.3-0.7 0.3-0.1 0-0.3 0.1-0.4 0.1-0.5 0-0.8-0.2-1.1-0.5s-0.4-0.7-0.4-1.2c0-0.6 0.2-1.1 0.5-1.4 0.3-0.4 0.7-0.6 1.2-0.6 0.5-0.1 1 0.1 1.3 0.6m-0.7 2.5c0.2-0.1 0.3-0.2 0.3-0.3v-0.3-0.4c0-0.6-0.1-1-0.3-1.4s-0.5-0.5-0.8-0.5-0.5 0.1-0.7 0.4c-0.2 0.2-0.3 0.6-0.2 1.1 0 0.4 0.1 0.8 0.2 1.1 0.2 0.3 0.4 0.5 0.8 0.5 0.3-0.1 0.5-0.1 0.7-0.2"/><path class="st0" d="m295.7 492.6c0.3 0.5 0.5 1 0.5 1.6 0 0.4-0.1 0.8-0.2 1.3-0.2 0.4-0.4 0.8-0.7 1.2s-0.8 0.7-1.3 0.9c-0.3 0.1-0.7 0.2-1.1 0.3v-0.2c0.3-0.1 0.5-0.1 0.7-0.2 0.3-0.1 0.6-0.3 0.8-0.5 0.3-0.3 0.5-0.6 0.7-0.9s0.3-0.6 0.3-0.9l-0.1 0.1c-0.2 0.2-0.4 0.3-0.7 0.3-0.1 0-0.3 0.1-0.4 0.1-0.5 0-0.8-0.2-1.1-0.5s-0.4-0.7-0.4-1.2c0-0.6 0.2-1.1 0.5-1.4 0.3-0.4 0.7-0.6 1.3-0.6 0.4-0.1 0.9 0.1 1.2 0.6m-0.7 2.4c0.2-0.1 0.3-0.2 0.3-0.3v-0.3-0.4c0-0.6-0.1-1-0.3-1.4s-0.5-0.5-0.8-0.5-0.5 0.1-0.6 0.4c-0.2 0.2-0.3 0.6-0.3 1.1 0 0.4 0.1 0.8 0.2 1.1 0.2 0.3 0.4 0.5 0.8 0.5 0.3 0 0.5-0.1 0.7-0.2"/><path class="st0" d="m300 497c-0.3 0.4-0.7 0.6-1.3 0.6-0.5 0-0.9-0.2-1.3-0.7s-0.6-1.1-0.6-1.8c0-1 0.4-1.8 1.1-2.5 0.7-0.6 1.5-0.9 2.3-0.9v0.1c-0.3 0.1-0.6 0.2-0.9 0.3-0.2 0.1-0.5 0.3-0.7 0.5s-0.4 0.4-0.6 0.8c-0.2 0.3-0.3 0.6-0.4 0.9 0.2-0.1 0.3-0.2 0.4-0.2 0.2-0.1 0.4-0.1 0.7-0.1 0.4 0 0.8 0.1 1.1 0.5 0.3 0.3 0.5 0.7 0.5 1.3 0.2 0.4 0.1 0.8-0.3 1.2m-0.4-2c-0.2-0.5-0.5-0.7-1-0.7-0.4 0-0.7 0.1-0.8 0.4-0.1 0.2-0.1 0.4-0.1 0.7 0 0.4 0.1 0.9 0.3 1.3s0.5 0.6 0.9 0.6c0.3 0 0.6-0.1 0.7-0.4s0.2-0.6 0.2-1c0-0.3-0.1-0.6-0.2-0.9"/></g>
	<defs>
		<path id="SVGID_1_" d="m304.7 347.5-26.5 0.1-51 0.3 0.4 83.2c-0.1 14.3-0.4 23.4 18.7 40.9s45.8 31.6 45.8 31.6h0.1s26.6-14.4 45.5-32.1 18.6-26.8 18.3-41.1l-0.4-83.2z"/>
	</defs>
	<clipPath id="SVGID_2_">
		<use width="100%" height="100%" xlink:href="#SVGID_1_"/>
	</clipPath><g fill="#3f6cb1">
	<polyline class="st6" points="270 488.7 262.9 488.8 276.8 442.4 283.9 442.3" clip-path="url(#SVGID_2_)"/>
	<polyline class="st6" points="245 488.9 237.9 488.9 251.8 442.5 258.9 442.5" clip-path="url(#SVGID_2_)"/>
	<polyline class="st6" points="220.8 489 213.6 489 227.5 442.6 234.7 442.6" clip-path="url(#SVGID_2_)"/></g><g fill="#97c1e9">
	<polyline class="st7" points="232.8 488.9 225.7 489 239.6 442.6 246.7 442.5" clip-path="url(#SVGID_2_)"/>
	<polyline class="st7" points="257.5 488.8 250.4 488.8 264.3 442.4 271.4 442.4" clip-path="url(#SVGID_2_)"/>
	<polyline class="st7" points="282.7 488.7 275.6 488.7 289.5 442.3 296.6 442.3" clip-path="url(#SVGID_2_)"/>
	<polyline class="st7" points="308.3 488.5 301.1 488.6 315 442.2 322.2 442.1" clip-path="url(#SVGID_2_)"/>
	<polyline class="st7" points="333.3 488.4 326.1 488.4 340 442 347.2 442" clip-path="url(#SVGID_2_)"/></g><g fill="#3f6cb1">
	<polyline class="st6" points="295.6 488.6 288.4 488.6 302.3 442.2 309.5 442.2" clip-path="url(#SVGID_2_)"/>
	<polyline class="st6" points="320.9 488.5 313.8 488.5 327.7 442.1 334.8 442.1" clip-path="url(#SVGID_2_)"/>
	<polyline class="st6" points="345.5 488.3 338.3 488.4 352.2 442 359.4 441.9" clip-path="url(#SVGID_2_)"/>
</g></g>
</svg>