<svg xmlns:inkscape="http://www.inkscape.org/namespaces/inkscape" xmlns:sodipodi="http://sodipodi.sourceforge.net/DTD/sodipodi-0.dtd" xmlns="http://www.w3.org/2000/svg" xmlns:svg="http://www.w3.org/2000/svg" xmlns:rdf="http://www.w3.org/1999/02/22-rdf-syntax-ns#" xmlns:cc="http://creativecommons.org/ns#" xmlns:dc="http://purl.org/dc/elements/1.1/" version="1.1" id="svg2" xml:space="preserve" width="250.69701" height="355.41327" viewBox="0 0 250.69701 355.41327" sodipodi:docname="CS_Universitatea_Craiova.svg" inkscape:version="1.1.2 (b8e25be833, 2022-02-05)"><metadata id="metadata8"><rdf:RDF><cc:Work rdf:about=""><dc:format>image/svg+xml</dc:format><dc:type rdf:resource="http://purl.org/dc/dcmitype/StillImage"/></cc:Work></rdf:RDF></metadata><defs id="defs6"><clipPath clipPathUnits="userSpaceOnUse" id="clipPath18"><path d="M 0,487.248 H 351.678 V 0 H 0 Z" id="path16"/></clipPath></defs><sodipodi:namedview pagecolor="#ffffff" bordercolor="#666666" borderopacity="1" objecttolerance="10" gridtolerance="10" guidetolerance="10" inkscape:pageopacity="0" inkscape:pageshadow="2" inkscape:window-width="1920" inkscape:window-height="1017" id="namedview4" inkscape:pagecheckerboard="0" showgrid="false" inkscape:zoom="1.8111296" inkscape:cx="98.833349" inkscape:cy="191.59314" inkscape:window-x="-8" inkscape:window-y="-8" inkscape:window-maximized="1" inkscape:current-layer="g10"/><g id="g10" inkscape:groupmode="layer" inkscape:label="universitatea-craiova-1983" transform="matrix(1.3333333,0,0,-1.3333333,-11.604133,640.76466)"><g id="g12" transform="matrix(0.56248263,0,0,0.56248263,3.8077575,210.25926)"><g id="g14" clip-path="url(#clipPath18)"><g id="g20" transform="translate(335.9741,480.5732)"><path id="path22" style="fill:#ffffff;fill-opacity:1;fill-rule:nonzero;stroke:none;stroke-width:0.749977" d="M 0 0 L 0 69.347656 L 0 229.96289 C 0 299.2405 56.166521 355.41211 125.44727 355.41211 C 194.72644 355.41211 250.69531 299.24125 250.69531 229.96289 L 250.69531 69.349609 L 250.69727 69.349609 L 250.69727 5.2519531 L 250.69727 0 L 245.44531 0 L 5.2519531 0 L 0.001953125 0 L 0 0 z " transform="matrix(1.3333745,0,0,-1.3333745,-327.271,3.0146855e-4)"/></g><g id="g24" transform="translate(266.6226,398.8408)"><path d="m 0,0 v -224.895 c 0,-50.246 -40.405,-90.979 -90.65,-90.979 -50.246,0 -90.916,40.733 -90.916,90.979 V 0 h -7.002 v -224.895 c 0,-54.074 43.84,-97.918 97.918,-97.918 54.078,0 97.65,43.843 97.65,97.918 V 0 Z" style="fill:#007fc3;fill-opacity:1;fill-rule:nonzero;stroke:none" id="path26"/></g><g id="g28" transform="translate(280.4917,398.8408)"><path d="m 0,0 v -224.895 c 0,-57.87 -46.65,-104.787 -104.52,-104.787 -57.872,0 -104.786,46.918 -104.786,104.787 V 0 h -7.004 v -224.895 c 0,-61.735 50.052,-111.79 111.79,-111.79 61.736,0 111.521,50.055 111.521,111.79 L 7.001,0 Z" style="fill:#007fc3;fill-opacity:1;fill-rule:nonzero;stroke:none" id="path30"/></g><g id="g32" transform="translate(294.3618,398.8408)"><path d="m 0,0 v -224.895 c 0,-65.529 -52.86,-118.659 -118.39,-118.659 -65.53,0 -118.655,53.131 -118.655,118.659 V 0 h -7.005 v -224.895 c 0,-69.394 56.262,-125.662 125.66,-125.662 69.395,0 125.393,56.268 125.393,125.662 L 7.003,0 Z" style="fill:#007fc3;fill-opacity:1;fill-rule:nonzero;stroke:none" id="path34"/></g><g id="g36" transform="translate(308.2339,398.8408)"><path d="m 0,0 v -224.895 c 0,-73.189 -59.072,-132.529 -132.262,-132.528 -73.191,0 -132.526,59.339 -132.526,132.528 V 0 h -7.003 v -224.895 c 0,-77.055 62.47,-139.531 139.529,-139.531 77.055,0 139.26,62.475 139.26,139.531 L 6.998,0 Z" style="fill:#007fc3;fill-opacity:1;fill-rule:nonzero;stroke:none" id="path38"/></g><g id="g40" transform="translate(322.1011,398.8408)"><path d="m 0,0 v -224.895 c 0,-80.851 -65.28,-146.4 -146.129,-146.4 -80.852,0 -146.396,65.55 -146.396,146.4 V 0 h -7.002 v -224.895 c 0,-84.716 68.679,-153.4 153.398,-153.4 84.717,-10e-4 153.132,68.684 153.132,153.4 L 7.003,0 Z" style="fill:#007fc3;fill-opacity:1;fill-rule:nonzero;stroke:none" id="path42"/></g><g id="g44" transform="translate(335.9741,388.1055)"><path d="m 0,0 v -214.159 c 0,-88.511 -71.491,-160.271 -160.002,-160.27 -88.51,0 -160.266,71.76 -160.266,160.27 V 0.001 85.466 H 0 Z m 0,92.468 h -320.268 -7 -0.003 V 0.001 -214.159 c 0,-92.373 74.892,-167.272 167.269,-167.272 92.376,0 167.002,74.898 167.002,167.272 L 7,0 h 0.002 v 85.466 7.002 z" style="fill:#007fc3;fill-opacity:1;fill-rule:nonzero;stroke:none" id="path46"/></g><g id="g48" transform="translate(93.1899,398.8408)"><path d="m 0,0 v -224.895 c 0,-45.714 37.062,-82.779 82.78,-82.779 45.717,0 82.783,37.064 82.783,82.779 V 0 Z" style="fill:#007fc3;fill-opacity:1;fill-rule:nonzero;stroke:none" id="path50"/></g><g id="g52" transform="translate(66.2397,428.1953)"><path d="m 0,0 c -1.992,-3.688 -4.964,-6.757 -8.702,-8.669 -9.96,-5.227 -22.521,-1.377 -27.653,8.669 -5.291,10.042 -1.296,22.433 8.663,27.669 10.13,5.21 22.504,1.356 27.692,-8.688 l 4.469,2.26 c -6.578,12.444 -21.844,17.346 -34.372,10.844 -12.59,-6.514 -17.398,-21.881 -10.821,-34.323 6.455,-12.431 21.907,-17.259 34.247,-10.832 4.71,2.403 8.347,6.166 10.946,10.832 z" style="fill:#007fc3;fill-opacity:1;fill-rule:nonzero;stroke:none" id="path54"/></g><g id="g56" transform="translate(58.9644,443.3955)"><path d="m 0,0 c -3.195,5.934 -10.627,8.276 -16.576,5.212 -6.052,-3.122 -8.323,-10.589 -5.283,-16.522 3.195,-6.044 10.658,-8.385 16.569,-5.253 2.226,1.14 4.182,2.991 5.29,5.253 l 4.366,-2.346 c -1.612,-3.143 -4.234,-5.709 -7.244,-7.308 -8.509,-4.333 -18.981,-1.14 -23.348,7.308 -4.299,8.439 -1.11,18.814 7.462,23.2 C -10.44,13.989 0,10.699 4.366,2.261 Z" style="fill:#007fc3;fill-opacity:1;fill-rule:nonzero;stroke:none" id="path58"/></g><g id="g60" transform="translate(135.2251,412.3115)"><path d="M 0,0 17.88,38.887 35.698,0 H 41.05 L 17.88,50.832 -5.398,0 Z" style="fill:#007fc3;fill-opacity:1;fill-rule:nonzero;stroke:none" id="path62"/></g><g id="g64" transform="translate(144.4399,412.3115)"><path d="M 0,0 8.665,19.11 17.337,0 h 5.508 L 8.665,31.01 -5.477,0 Z" style="fill:#007fc3;fill-opacity:1;fill-rule:nonzero;stroke:none" id="path66"/></g><path d="m 181.736,463.144 h 4.842 v -50.832 h -4.842 z" style="fill:#007fc3;fill-opacity:1;fill-rule:nonzero;stroke:none" id="path68"/><path d="m 189.96,463.144 h 5.033 v -50.832 h -5.033 z" style="fill:#007fc3;fill-opacity:1;fill-rule:nonzero;stroke:none" id="path70"/><g id="g72" transform="translate(225.896,417.2139)"><path d="m 0,0 c -11.271,0 -20.407,9.162 -20.407,20.472 0,11.344 9.136,20.491 20.407,20.49 11.419,0 20.564,-9.146 20.564,-20.49 C 20.564,9.162 11.419,0 0,0 m 0,45.93 c -14.023,0 -25.441,-11.395 -25.441,-25.458 0,-14.048 11.418,-25.374 25.441,-25.374 14.111,0 25.514,11.325 25.514,25.374 C 25.514,34.535 14.111,45.93 0,45.93" style="fill:#007fc3;fill-opacity:1;fill-rule:nonzero;stroke:none" id="path74"/></g><g id="g76" transform="translate(225.896,425.499)"><path d="m 0,0 c -6.794,0 -12.271,5.43 -12.271,12.187 0,6.756 5.477,12.293 12.271,12.293 6.934,0 12.342,-5.538 12.342,-12.293 C 12.342,5.43 6.934,0 0,0 m 0,29.368 c -9.518,0 -17.221,-7.69 -17.221,-17.181 0,-9.491 7.703,-17.182 17.221,-17.183 9.588,0 17.367,7.691 17.367,17.183 0,9.491 -7.779,17.181 -17.367,17.181" style="fill:#007fc3;fill-opacity:1;fill-rule:nonzero;stroke:none" id="path78"/></g><g id="g80" transform="translate(290.3188,463.1436)"><path d="M 0,0 -17.849,-38.951 -35.644,0 h -5.468 L -17.849,-50.832 5.283,0 Z" style="fill:#007fc3;fill-opacity:1;fill-rule:nonzero;stroke:none" id="path82"/></g><g id="g84" transform="translate(281.1421,463.1436)"><path d="M 0,0 -8.672,-19.035 -17.377,0 h -5.468 L -8.672,-31.059 5.469,0 Z" style="fill:#007fc3;fill-opacity:1;fill-rule:nonzero;stroke:none" id="path86"/></g><g id="g88" transform="translate(89.3413,412.3115)"><path d="m 0,0 v 37.669 h 18.99 c 2.528,0 4.483,-2.014 4.483,-4.495 0,-2.48 -1.955,-4.403 -4.483,-4.403 H 2.281 L 19.648,0 h 5.811 L 11.101,23.775 h 7.889 c 5.281,0 9.448,4.167 9.448,9.399 0,5.221 -4.167,9.382 -9.448,9.382 H -4.941 V 0 Z" style="fill:#007fc3;fill-opacity:1;fill-rule:nonzero;stroke:none" id="path90"/></g><g id="g92" transform="translate(80.979,412.3115)"><path d="m 0,0 v 45.865 h 27.353 c 7.049,0 12.703,-5.715 12.703,-12.691 0,-6.974 -5.654,-12.687 -12.703,-12.687 H 25.257 L 37.629,0 h 5.764 l -9.907,16.547 c 9.109,3.37 13.801,13.434 10.536,22.561 -2.53,7.071 -9.107,11.724 -16.669,11.724 H -4.81 V 0 Z" style="fill:#007fc3;fill-opacity:1;fill-rule:nonzero;stroke:none" id="path94"/></g><g id="g96" transform="translate(323.4214,412.3115)"><path d="M 0,0 -17.694,38.887 -35.535,0 h -5.444 L -17.694,50.832 5.477,0 Z" style="fill:#007fc3;fill-opacity:1;fill-rule:nonzero;stroke:none" id="path98"/></g><g id="g100" transform="translate(314.4312,412.3115)"><path d="M 0,0 -8.704,19.109 -17.555,0 h -5.29 L -8.704,31.01 5.477,0 Z" style="fill:#007fc3;fill-opacity:1;fill-rule:nonzero;stroke:none" id="path102"/></g><g id="g104" transform="translate(195.6479,326.6436)"><path d="m 0,0 c -1.323,0.662 -2.456,1.204 -4.401,1.711 -1.662,0.435 -4.064,0.788 -4.259,0.788 -0.199,0 -2.446,0.266 -2.446,-0.591 0,-0.863 8.011,-3.643 9.266,-4.503 1.259,-0.862 2.903,-2.352 3.499,-3.213 0.264,-0.381 0.968,-1.437 2.195,-2.283 1.074,-0.741 2.183,-0.926 3.044,-0.598 0.862,0.334 2.118,0.863 2.452,2.385 0.329,1.524 -0.398,4.833 -0.2,6.29 0.2,1.455 0.88,3.742 1.852,4.83 0.782,0.877 1.656,1.725 1.259,2.386 C 11.863,7.865 8.569,6.415 6.898,4.092 5.898,2.696 4.572,0.186 3.608,-0.371 2.406,-1.066 1.318,-0.664 0,0" style="fill:#ffffff;fill-opacity:1;fill-rule:nonzero;stroke:none" id="path106"/></g><g id="g108" transform="translate(235.4419,373.377)"><path d="m 0,0 -3.532,-4.877 -0.511,-69.982 c 0,0 0.339,-0.509 1.007,-0.757 0.705,-0.257 2.026,-0.084 2.026,-0.084 l 0.704,71.83 0.177,-0.005 1.476,-70.984 c 0,0 0,-1.347 1.175,-1.513 1.176,-0.167 2.185,0 2.185,0 L 3.365,-5.046 Z" style="fill:#ffffff;fill-opacity:1;fill-rule:nonzero;stroke:none" id="path110"/></g><g id="g112" transform="translate(230.0142,295.5234)"><path d="m 0,0 c 0,0 -1.931,-0.013 -2.971,-0.419 -1.432,-0.559 -2.342,-2.004 -2.891,-3.764 -0.551,-1.758 -0.322,-3.996 0.826,-5.052 0.219,-0.201 0.402,1.461 2.18,3.08 1.818,1.651 3.02,1.647 5.384,1.592 2.367,-0.055 12.149,-0.055 12.149,-0.055 0,0 2.747,-0.656 4.398,1.904 1.238,1.928 1.005,3.489 0.732,5.28 C 19.714,3.163 19.866,3.128 19.075,2.108 17.466,0.042 16.904,0.215 14.801,0.089 12.549,-0.05 12.862,0 10.992,0 Z" style="fill:#ffffff;fill-opacity:1;fill-rule:nonzero;stroke:none" id="path114"/></g><g id="g116" transform="translate(235.0366,290.4014)"><path d="m 0,0 c 0,0 -1.014,-0.035 -1.562,-0.091 -0.547,-0.056 -1.399,-0.569 -1.508,-0.952 -0.108,-0.385 -0.196,-0.811 -0.034,-1.195 0.162,-0.385 0.35,-0.471 0.624,-0.747 0.275,-0.271 1.367,-0.55 2.244,-0.55 0.883,0 2.75,0.66 3.354,0.933 0.607,0.276 1.261,0.936 1.261,1.321 0,0.386 0,0.715 -0.381,0.826 C 3.611,-0.348 1.8,-0.129 1.414,-0.072 1.03,-0.02 0,0 0,0" style="fill:#ffffff;fill-opacity:1;fill-rule:nonzero;stroke:none" id="path118"/></g><g id="g120" transform="translate(231.1948,284.5215)"><path d="M 0,0 C 0.171,-0.771 0.442,-1.595 2.256,-2.199 4.07,-2.804 6.051,-2.86 7.697,-1.595 9.345,-0.328 9.828,1.219 9.949,1.868 10.054,2.438 10.116,2.899 9.654,3.287 9.326,3.563 8.74,3.735 7.969,3.023 7.2,2.305 6.236,1.78 5.498,1.429 4.556,0.981 3.459,0.72 2.643,0.824 1.537,0.962 -0.353,1.624 0,0" style="fill:#ffffff;fill-opacity:1;fill-rule:nonzero;stroke:none" id="path122"/></g><g id="g124" transform="translate(237.4409,262.7686)"><path d="m 0,0 h -3.885 c -1.14,0 -1.606,0.074 -1.942,-0.149 -0.695,-0.47 -0.224,-1.601 0.043,-2.02 0.264,-0.416 0.381,-0.565 1.139,-0.876 0.76,-0.301 1.293,-0.338 1.941,-0.226 0.647,0.113 1.295,0.151 2.054,0.496 0.764,0.339 1.412,0.687 1.675,1.064 0.265,0.381 0.684,0.762 0.721,1.107 0.039,0.34 0,0.564 -0.494,0.604 C 0.759,0.04 0,0 0,0" style="fill:#ffffff;fill-opacity:1;fill-rule:nonzero;stroke:none" id="path126"/></g><g id="g128" transform="translate(237.8599,256.2393)"><path d="m 0,0 c 0,-1.499 -1.215,-2.713 -2.714,-2.713 -1.5,0 -2.716,1.214 -2.716,2.713 0,1.498 1.216,2.714 2.716,2.714 C -1.215,2.714 0,1.498 0,0" style="fill:#ffffff;fill-opacity:1;fill-rule:nonzero;stroke:none" id="path130"/></g><g id="g132" transform="translate(224.4067,175.2012)"><path d="m 0,0 1.242,0.775 c 0,0 -0.667,-5.698 -5.765,-10.219 l -0.49,0.529 c 0,0 3.746,3.262 5.013,8.915" style="fill:#ffffff;fill-opacity:1;fill-rule:nonzero;stroke:none" id="path134"/></g><g id="g136" transform="translate(225.3374,187.8623)"><path d="m 0,0 c 1.13,-3.104 2.24,-10.442 -1.419,-12.128 l -4.304,2.064 -0.73,0.818 c 0,0 0.234,5.823 -0.651,8.175 l 2.579,3.843 0.955,0.843 c 0,0 2.416,-0.512 3.57,-3.615" style="fill:#ffffff;fill-opacity:1;fill-rule:nonzero;stroke:none" id="path138"/></g><g id="g140" transform="translate(221.9458,194.4033)"><path d="m 0,0 c 0,0 1.395,-2.128 1.327,-2.596 0,0 -1.795,1.089 -2.903,2.264 l -2.262,2.504 c 0,0 -1.642,2.174 -1.772,2.883 0,0 1.905,-0.864 2.857,-1.994 z" style="fill:#ffffff;fill-opacity:1;fill-rule:nonzero;stroke:none" id="path142"/></g><g id="g144" transform="translate(193.9175,187.3525)"><path d="m 0,0 -1.44,7.362 c 0,0 -0.378,0.819 -1.042,0.685 0,0 -3.617,-0.31 -4.614,-0.93 0,0 -1.151,-0.843 -1.642,-1.929 0,0 -6.075,-9.843 -1.95,-14.147 l 5.566,0.778 c 0,0 0.843,0.531 1.307,1.198 z m 0.376,-21.707 0.712,6.894 c 0,0 -3.285,3.993 -5.723,5.79 0,0 -4.346,-0.246 -5.654,-0.822 l -0.753,-0.709 c 0,0 -0.576,-3.682 1.84,-7.317 0,0 2.106,-3.416 3.792,-4.547 0,0 2.351,-0.575 4.965,-0.045 z m 16.009,25.64 c 0,0 -0.796,4.893 -1.551,6.112 l -0.755,0.821 c 0,0 -8.335,2.216 -9.136,1.507 0,0 -3.08,-1.798 -5.41,-3.88 0,0 -0.178,-2.948 1.355,-7.585 0,0 0.397,-0.774 0.953,-1.042 0,0 4.811,-1.476 6.277,-1.368 0,0 4.964,2.531 8.267,5.435 m 0.844,-25.02 c 0,0 1.105,4.708 0.347,6.435 0,0 0.513,0.709 -8.158,3.172 0,0 -6.16,-2.445 -6.956,-3.311 0,0 -1.356,-4.211 -1.198,-6.784 0,0 -0.09,-0.909 0.952,-1.398 0,0 5.079,-3.037 9.626,-0.863 0,0 4.477,1.44 5.387,2.749 M 20.6,11.617 c 0.529,0.289 0.244,0.977 0.244,0.977 l -0.757,0.843 C 10.109,18.714 4.014,14.854 4.014,14.854 l 1.239,-1.373 c 1.088,0.067 7.298,-1.376 8.05,-1.772 0.755,-0.4 2.128,-0.512 2.128,-0.512 z m 3.281,-20.753 c 0,0 0.819,6.232 -0.621,8.181 0,0 -1.022,1.598 -2.282,1.998 0,0 -3.238,1.53 -4.171,1.53 0,0 -2.039,-0.357 -8.071,-4.946 L 9.29,-8.848 c 0,0 -0.288,-1.063 1.598,-2.105 l 6.962,-2.463 c 0,0 3.279,1.221 6.031,4.28 m 1.352,-12.994 -0.509,0.555 -6.298,-0.2 c -6.12,-3.88 -9.535,-3.88 -9.535,-3.88 l -0.577,-2.24 0.488,-0.533 c 6.386,-0.709 12.727,2.928 12.727,2.928 2.574,1.619 3.704,3.37 3.704,3.37 m 4.122,26.585 c 0.068,0.468 -1.327,2.596 -1.327,2.596 l -2.753,3.06 c -0.952,1.131 -2.857,1.994 -2.857,1.994 0.13,-0.709 1.772,-2.882 1.772,-2.882 l 2.262,-2.504 c 1.109,-1.175 2.903,-2.264 2.903,-2.264 m 0.646,-16.073 C 33.66,-9.933 32.55,-2.595 31.42,0.51 30.266,3.612 27.85,4.125 27.85,4.125 L 26.895,3.282 24.316,-0.562 c 0.885,-2.351 0.651,-8.174 0.651,-8.174 l 0.73,-0.819 z m 1.73,0.242 -1.242,-0.775 c -1.266,-5.654 -5.012,-8.915 -5.012,-8.915 l 0.489,-0.53 c 5.098,4.522 5.765,10.22 5.765,10.22 M 27.34,9.223 c 8.671,-9.577 7.938,-24.369 -1.641,-33.037 -9.58,-8.67 -24.369,-7.938 -33.038,1.639 -8.671,9.557 -7.94,24.369 1.619,33.041 9.578,8.669 24.366,7.938 33.06,-1.643" style="fill:#007fc3;fill-opacity:1;fill-rule:nonzero;stroke:none" id="path146"/></g><g id="g148" transform="translate(218.6411,165.7773)"><path d="m 0,0 0.51,-0.555 c 0,0 -1.131,-1.751 -3.704,-3.37 0,0 -6.342,-3.637 -12.728,-2.928 l -0.487,0.534 0.576,2.239 c 0,0 3.415,0 9.535,3.88 z" style="fill:#ffffff;fill-opacity:1;fill-rule:nonzero;stroke:none" id="path150"/></g><g id="g152" transform="translate(217.1772,186.3975)"><path d="m 0,0 c 1.44,-1.949 0.621,-8.181 0.621,-8.181 -2.752,-3.059 -6.031,-4.28 -6.031,-4.28 l -6.962,2.463 c -1.886,1.042 -1.598,2.105 -1.598,2.105 l -0.553,6.475 c 6.031,4.589 8.07,4.946 8.07,4.946 0.933,0 4.171,-1.53 4.171,-1.53 C -1.021,1.598 0,0 0,0" style="fill:#ffffff;fill-opacity:1;fill-rule:nonzero;stroke:none" id="path154"/></g><g id="g156" transform="translate(214.7612,199.9463)"><path d="m 0,0 c 0,0 0.285,-0.688 -0.244,-0.977 l -5.169,-0.419 c 0,0 -1.373,0.111 -2.128,0.511 -0.752,0.397 -6.962,1.839 -8.05,1.773 l -1.239,1.373 c 0,0 6.096,3.859 16.073,-1.418 z" style="fill:#ffffff;fill-opacity:1;fill-rule:nonzero;stroke:none" id="path158"/></g><g id="g160" transform="translate(211.4937,172.7002)"><path d="m 0,0 c 0.758,-1.727 -0.348,-6.435 -0.348,-6.435 -0.909,-1.308 -5.386,-2.749 -5.386,-2.749 -4.547,-2.173 -9.626,0.864 -9.626,0.864 -1.042,0.488 -0.953,1.397 -0.953,1.397 -0.157,2.573 1.199,6.784 1.199,6.784 0.796,0.867 6.956,3.311 6.956,3.311 C 0.513,0.709 0,0 0,0" style="fill:#ffffff;fill-opacity:1;fill-rule:nonzero;stroke:none" id="path162"/></g><g id="g164" transform="translate(208.7515,197.3975)"><path d="m 0,0 c 0.755,-1.219 1.551,-6.112 1.551,-6.112 -3.303,-2.904 -8.267,-5.435 -8.267,-5.435 -1.466,-0.108 -6.277,1.368 -6.277,1.368 -0.556,0.268 -0.953,1.042 -0.953,1.042 -1.533,4.637 -1.355,7.585 -1.355,7.585 2.33,2.082 5.41,3.88 5.41,3.88 0.801,0.709 9.136,-1.507 9.136,-1.507 z" style="fill:#ffffff;fill-opacity:1;fill-rule:nonzero;stroke:none" id="path166"/></g><g id="g168" transform="translate(195.0054,172.54)"><path d="M 0,0 -0.712,-6.895 -1.533,-7.65 c -2.613,-0.531 -4.965,0.045 -4.965,0.045 -1.686,1.13 -3.792,4.546 -3.792,4.546 -2.416,3.635 -1.84,7.318 -1.84,7.318 l 0.753,0.709 c 1.308,0.576 5.654,0.821 5.654,0.821 C -3.285,3.992 0,0 0,0" style="fill:#ffffff;fill-opacity:1;fill-rule:nonzero;stroke:none" id="path170"/></g><g id="g172" transform="translate(192.4771,194.7148)"><path d="m 0,0 1.44,-7.362 -3.815,-6.984 c -0.464,-0.667 -1.307,-1.197 -1.307,-1.197 l -5.565,-0.778 c -4.125,4.303 1.949,14.147 1.949,14.147 0.491,1.086 1.643,1.929 1.643,1.929 0.997,0.62 4.613,0.93 4.613,0.93 C -0.378,0.818 0,0 0,0" style="fill:#ffffff;fill-opacity:1;fill-rule:nonzero;stroke:none" id="path174"/></g><g id="g176" transform="translate(186.7339,289.0566)"><path d="M 0,0 C -0.373,0.313 -0.273,0.329 -0.086,0.64 0.103,0.954 0.678,1.292 1.176,1.849 1.673,2.415 2.068,3.058 1.93,4.987 1.873,5.801 1.595,6.634 1.595,6.634 c 0,0 1.944,-0.633 2.144,-2.082 C 3.811,4.059 3.668,3.049 3.304,2.368 2.225,0.378 0.374,-0.312 0,0 m -0.5,8.529 c -0.088,0.429 -0.217,0.889 -1.064,1.492 -0.657,0.464 -1.769,0.916 -2.842,1.278 -0.768,0.26 -1.566,0.366 -2.554,1.633 -0.683,0.876 -1.394,2.651 -1.143,3.089 0.246,0.438 1.84,-2.323 2.774,-2.947 0.934,-0.623 3.198,-0.497 4.618,-1.136 C 0.621,11.34 1.487,10.59 1.744,9.229 1.973,8.014 0.871,6.481 0.312,6.609 -0.25,6.733 -0.313,6.983 -0.373,7.544 -0.438,8.104 -0.431,8.202 -0.5,8.529 M -3.123,1.835 c -0.351,-1 -0.678,-1.212 -1.181,-1.087 -0.497,0.128 -0.809,0.564 -0.809,1.059 0,0.685 0.273,1.604 -0.496,2.932 -0.815,1.405 -2.482,2.725 -4.116,3.523 -1.506,0.737 -2.431,1.321 -2.802,3.272 -0.126,0.655 0.058,2.245 0.058,2.245 0,0 0.524,-2.737 2.329,-3.78 0.227,-0.133 1.9,-0.847 5.452,-3.094 2.094,-1.318 2.01,-3.797 1.565,-5.07 m -6.416,-2.768 c -0.186,-1.998 -2.183,-1.747 -2.554,-1.248 -0.376,0.498 0.061,0.998 0.56,1.993 0.498,1 0.124,1.124 -0.189,1.748 -0.312,0.623 -1.68,2.556 -2.989,4.365 -1.31,1.806 -1.435,4.36 -1.185,5.609 0.25,1.246 1.246,1.431 1.933,1.121 l 0.124,-0.809 c 0,0 -0.063,-0.751 -0.124,-1.684 -0.061,-0.933 0.061,-1.748 0.25,-2.805 0.184,-1.061 1.805,-2.805 2.991,-4.174 1.183,-1.376 1.371,-2.124 1.183,-4.116 m -7.343,24.504 c 0.584,-1.086 0.513,-1.818 0.071,-2.732 -0.486,-1.01 -1.691,-1.747 -2.152,-1.494 -0.865,0.468 -0.086,2.389 0.244,3.058 0.337,0.668 0.17,1.668 -0.25,2.501 -0.417,0.836 -0.748,1.257 -0.917,2.005 -0.168,0.751 0.667,2.756 1.836,4.008 1.168,1.253 1.087,3.176 1.087,3.842 0,0.666 -0.25,1.669 -0.086,2.421 0.167,0.752 1.353,-1.308 1.523,-1.959 0.318,-1.214 0.401,-3.216 -0.185,-4.137 -0.587,-0.92 -1.586,-2.838 -2.087,-4.089 -0.503,-1.255 0.331,-2.338 0.916,-3.424 M -18.969,6.369 c -0.225,-0.904 -1.007,-3.311 -3.925,-6.177 -2.567,-2.522 -6.091,-3.674 -6.676,-3.421 -0.584,0.247 -0.335,0.834 0.331,1.832 0.668,1.009 1.214,3.555 1.419,4.512 0.563,2.566 0.052,5.191 -0.03,5.937 -0.085,0.752 0.198,1.435 0.701,1.494 0.532,0.06 0.835,-0.082 1.083,-0.585 l 0.084,-1.504 V 5.286 c 0,-1.418 -0.416,-4.094 -0.416,-4.761 0,-0.668 -0.023,-0.86 0.628,-0.44 0.495,0.322 1.084,0.574 1.982,1.588 1.051,1.188 1.386,2.081 1.981,3.119 0.839,1.468 1.252,2.163 1.837,2.585 0.584,0.413 1.234,-0.058 1.001,-1.008 m -17.537,8.887 c -0.582,0.168 0.338,2.722 0.67,3.556 0.338,0.834 1.007,2.003 1.674,3.089 0.669,1.084 1.194,1.983 1.838,2.839 0.978,1.307 2.698,0.179 2.168,-0.919 -0.258,-0.531 -1.586,-1.754 -2.338,-2.42 -0.75,-0.668 -1.587,-2.171 -1.587,-2.672 0,-0.5 0.334,-0.5 0.835,-0.417 0.502,0.084 1.326,0.341 2.841,1.504 1.016,0.775 0.75,0.665 1.42,1.418 0.667,0.752 1.25,-1.251 0.247,-2.589 -1,-1.338 -7.183,-3.556 -7.768,-3.389 m 9.61,20.421 c 0.498,0.167 3.585,2.338 3.839,2.255 0.248,-0.083 0.25,-0.502 0.083,-1.504 -0.168,-1.003 -1.254,-1.083 -2.505,-1.586 -1.252,-0.501 -0.921,-0.628 -0.835,-1.169 0.07,-0.447 0.25,-2.088 0.25,-3.755 0,-1.672 -0.139,-3.302 -0.832,-3.925 -1.796,-1.612 -1.784,0.473 -1.338,1.501 0.201,0.467 0.324,1.187 0.826,3.106 0.502,1.921 -0.74,2.988 -1.078,3.493 -0.332,0.5 1.086,1.418 1.59,1.584 m 6.591,-19.955 c 0,0 0.419,-0.501 0.503,-1.336 0.085,-0.835 -0.335,-2.42 -1.087,-4.339 -0.754,-1.921 -1.584,-1.921 -1.92,-1.921 -0.333,0 -0.918,0.331 -1.004,0.917 -0.081,0.586 0.837,2.256 1.423,2.923 0.584,0.666 0.416,2.924 0.667,3.674 0.25,0.748 0.749,0.334 1.168,0.082 z m -0.503,16.114 c -1.083,-1.169 -0.998,-2.837 -1.083,-3.506 -0.083,-0.67 0,-3.925 -0.335,-5.094 -0.335,-1.169 -2.586,-1.502 -2.586,-1.502 0,0 0.715,2.021 1.053,3.274 0.329,1.254 -0.054,3.991 0.032,4.99 0.082,1.003 0.67,2.007 1.669,3.089 1.003,1.087 1.674,3.008 1.753,3.843 0.083,0.835 -0.079,3.171 0,3.756 0.083,0.585 1.84,-2.252 1.84,-3.923 0,-1.671 -1.252,-3.758 -2.343,-4.927 m -3.754,10.27 c 0.879,1.489 0.408,4.707 0.911,5.621 1.056,1.923 4.611,2.404 4.804,5.541 0.062,1.004 -0.286,2.049 -0.286,2.049 0,0 1.119,-0.48 1.822,-1.921 0.332,-0.675 -0.071,-2.023 -0.904,-2.942 -0.834,-0.917 -2.759,-2.338 -3.508,-3.003 -0.75,-0.667 -0.418,-2.257 -0.503,-3.593 -0.082,-1.335 -0.27,-1.959 -1.334,-2.839 -0.776,-0.639 -3.357,-1.01 -3.357,-1.01 0,0 1.329,0.362 2.355,2.097 m 7.18,23.127 c 0.333,0.497 1.671,2.04 2.755,2.756 2.38,1.569 1.585,-0.085 1.418,-0.421 -0.495,-0.992 -1.41,-2.075 -2.088,-2.652 -0.498,-0.423 -1.416,-1.185 -1.752,-1.27 -0.333,-0.083 -0.501,0 -0.752,0.418 -0.249,0.416 0.084,0.667 0.419,1.169 m 7.515,-38.489 c -0.298,0.384 -0.816,1.217 -1.001,1.586 -0.239,0.469 -0.807,1.788 -0.743,2.453 0.132,1.429 1.244,2.724 1.409,2.471 0,0 -0.015,-0.718 -0.083,-1.108 -0.041,-0.262 0.048,-1.374 0.301,-2.292 0.252,-0.919 1.093,-1.939 1.593,-2.693 0.5,-0.75 1.029,-1.39 0.696,-2.504 -0.396,-1.317 -1.024,-1.735 -1.994,-1.873 -0.785,-0.112 -3.164,0.526 -3.916,1.027 -0.751,0.497 -1.941,1.259 -2.024,1.845 -0.081,0.586 2.215,-0.147 2.587,-0.333 0.571,-0.281 1.757,-0.836 2.675,-0.836 0.92,0 1.146,1.412 0.5,2.257 m 1.278,26.827 c 0.347,0.345 0.776,0.609 1.212,0.783 1.119,0.429 2.325,0.429 4.224,-0.347 0.342,-0.258 0.425,-0.694 0.17,-0.945 -1.47,-1.643 -3.79,-1.987 -5.689,-0.871 -0.264,0.181 -0.346,0.524 0.083,1.38 M 4.898,10.732 C 5.084,11.292 8.227,10.724 8.79,10.411 9.348,10.099 9.742,9.837 10.158,9.038 10.547,8.295 10.597,7.793 10.471,7.044 10.342,6.296 9.85,6.481 9.6,6.548 9.348,6.609 9.224,6.983 8.976,7.419 8.726,7.853 8.537,7.979 7.979,8.414 7.416,8.853 7.105,9.038 6.419,9.411 5.736,9.788 4.711,10.171 4.898,10.732 m 8.886,-2.828 c 0.126,0.562 0.481,0.194 1.164,0.257 0.685,0.063 1.233,-0.108 2.668,0.263 1.433,0.376 2.59,1.559 3.343,2.18 0.904,0.743 2.479,2.251 1.68,-1.452 C 22.367,7.896 21.71,6.357 20.706,5.159 19.758,4.027 18.901,3.045 18.463,3.045 c -0.436,0 -0.809,0.436 -0.935,0.871 -0.126,0.433 1.373,2.18 1.871,2.741 0.499,0.563 0,0.75 -0.187,0.75 -0.187,0 -1.372,-0.498 -2.119,-0.688 C 16.344,6.534 15.16,6.534 14.41,6.781 13.66,7.031 13.66,7.343 13.784,7.904 m 16.749,39.132 c -0.137,-0.757 -0.659,-0.8 -0.987,-0.757 -0.33,0.048 -0.376,0.191 -0.567,0.474 -0.19,0.283 -0.233,0.988 -0.188,1.742 0.049,0.756 0.617,1.65 1.036,2.264 0.558,0.818 1.366,1.131 1.885,1.27 0.519,0.144 1.3,-0.189 1.49,-0.378 0,0 0.161,-0.233 0.255,-0.516 0.093,-0.281 -0.283,-0.8 -0.612,-1.085 -0.333,-0.281 -0.709,-0.377 -1.228,-0.848 -0.519,-0.472 -0.942,-1.414 -1.084,-2.166 m -3.91,2.971 c -0.281,0.185 -0.283,0.281 -0.283,0.705 0,0.424 0.116,1.049 0.424,1.646 0.465,0.908 1.601,1.7 2.168,1.981 0.567,0.285 1.453,-0.997 0.238,-1.742 -0.45,-0.276 -0.664,-0.871 -1.133,-1.414 -0.4,-0.465 -1.133,-1.366 -1.414,-1.176 m 32.301,-62.824 c -0.753,0.166 -2.234,-1.149 -3.799,-2.196 -0.848,-0.566 -1.733,-1.028 -1.733,-0.443 0,0.584 0.837,1.003 1.756,1.586 0.919,0.586 2.54,1.49 3.17,2.504 0.863,1.399 0.561,2.987 0.396,3.57 -0.171,0.591 -1.515,2.176 -2.461,2.176 -0.85,0 -1.088,-1.598 -2.171,-2.267 -1.083,-0.666 -2.275,-1.475 -4.446,-0.97 -2.171,0.5 -3.756,1.5 -4.509,1.752 -0.75,0.252 -2.703,0.504 -3.897,-0.59 -0.873,-0.805 -0.778,-1.415 -1.03,-2.333 -0.247,-0.919 -0.247,-1.752 -0.247,-2.338 0,-0.583 0.08,-2.754 0.08,-2.754 v -0.502 c 0,0 -7.512,-2.085 -10.686,-1.834 0,0 -2.603,0.106 -4.009,0.497 -3.761,1.042 -12.549,6.05 -12.549,6.05 0,0 -1.897,1.3 -2.48,2.638 -0.583,1.333 -0.491,3.168 -0.918,4.008 -0.434,0.842 -1.505,1.75 -2.418,1.33 C 6.053,-3.352 6.001,-4.621 5.777,-5.464 5.162,-7.767 4.379,-7.605 3.463,-8.188 2.545,-8.775 0.297,-8.177 0.297,-8.177 c 0,0 3.432,1.436 3.5,4.744 0.025,1.217 0.25,1.84 0.335,2.256 0.084,0.415 0.337,1.002 0.917,0.67 0.582,-0.336 2.339,-1.762 3.923,-1.505 2.768,0.445 5.354,0.786 2.504,1.505 -3.94,0.99 -5.423,5.844 -5.342,6.26 0.086,0.415 0.753,0.999 1.338,0.5 0.58,-0.5 4.839,-5.175 5.341,-5.68 0.502,-0.5 1.142,-1.199 1.337,-1.666 0.179,-0.428 0.25,-1.42 -1.004,-1.672 -1.25,-0.249 -2.171,-1.002 -2.254,-1.922 -0.08,-0.916 0.36,-2.306 1.421,-3.256 1.809,-1.617 2.607,-2.18 5.26,-2.917 1.567,-0.44 5.044,0.139 5.044,0.139 0,0 -5.481,1.324 -6.238,3.402 -0.272,0.755 0.111,1.552 0.609,1.716 0.504,0.166 1.085,0.333 1.752,-0.335 0.671,-0.666 1.453,-1.612 2.575,-2.309 1.395,-0.866 2.685,-0.801 3.856,-0.193 1.11,0.573 2.704,2.484 2.704,2.484 0,0 -5.225,-0.445 -6.631,4.111 -0.279,0.9 -1.167,1.585 -1.167,1.585 0,0 0.419,0.081 1.338,-0.247 0.919,-0.336 1.752,-1 4.009,-0.503 2.252,0.503 6.508,3.423 7.593,7.932 1.087,4.508 4.843,22.71 4.926,23.043 0.086,0.333 0,1.171 1.005,1.337 1.002,0.167 1.423,0.084 1.504,0.501 0.081,0.416 -0.252,1.337 -0.918,2.504 -0.669,1.171 -0.839,2.089 -0.086,3.256 0.752,1.168 1.753,2.42 1.835,4.84 0.088,2.424 -0.316,5.471 -0.495,5.905 -0.187,0.451 -0.417,0.979 -1.502,0.566 -1.088,-0.42 -1.48,-0.941 -2.257,-1.21 -0.634,-0.218 -1.175,0.743 -0.675,1.245 0.504,0.502 1.743,1.75 1.927,3.016 0.177,1.228 0.115,1.5 -0.5,1.942 -0.509,0.369 -1.254,0.479 -1.923,-0.024 -0.667,-0.499 -1.67,-0.499 -1.752,0.42 -0.085,0.918 0.295,1.556 -0.79,1.97 -1.107,0.419 -1.796,-0.637 -2.215,-0.552 -0.419,0.084 -0.3,1.185 -1.054,1.604 -0.753,0.417 -2.536,-0.35 -3.205,-1.184 -0.666,-0.838 -3.509,-3.928 -3.675,-6.765 -0.164,-2.837 0.419,-5.013 2.505,-5.847 2.089,-0.833 4.174,-1.332 4.762,-2.67 C 31.015,39.483 31.35,38.9 28.511,31.218 25.672,23.535 22.92,14.769 20.496,12.851 18.073,10.928 14.822,9.675 13.401,9.595 11.98,9.509 11.395,9.509 11.311,9.842 c -0.083,0.333 0.25,0.919 1.002,1.505 0.752,0.586 2.171,2.338 1.67,3.09 -0.5,0.751 -0.92,1.001 -2.087,1.001 -1.167,0 -1.753,-0.169 -2.505,0.5 C 8.638,16.607 8.045,16.969 7.379,16.803 6.71,16.636 6.134,15.854 5.549,15.021 4.967,14.184 4.882,13.27 4.047,13.518 3.214,13.767 2.881,14.437 3.296,15.021 3.711,15.603 4.687,16.788 5.049,19.111 5.46,21.772 4.188,22.919 3.687,23.336 3.188,23.753 2.3,19.719 1.378,18.611 0.541,17.61 -0.797,16.44 -1.464,16.107 c -0.667,-0.336 -1.332,-0.504 -1.332,0.167 0,0.666 1.165,2.17 1.499,2.586 0.333,0.417 1.676,2.245 2.09,3.334 0.414,1.084 0.651,2.42 0.367,3.813 -0.307,1.482 -3.819,-1.194 -4.644,-1.32 -1.421,-0.228 -1.787,1.536 -2.037,1.954 -0.251,0.416 -1.789,3.909 -1.789,3.909 0,0 -0.747,1.42 -0.498,1.586 0.251,0.166 0.834,-0.086 1.669,-0.666 0.835,-0.586 2.421,-1.838 3.508,-2.09 1.086,-0.253 2.919,-0.695 4.259,0.166 1.755,1.131 2.045,2.166 2.476,2.963 0.352,0.647 1.335,1.855 -0.165,2.16 -1.273,0.257 -1.394,-0.465 -3.565,-0.029 -1.942,0.395 -2.98,1.187 -3.671,1.838 -0.838,0.78 -1.661,3.714 -0.838,5.09 1,1.669 2.171,2.507 3.506,2.59 1.336,0.084 2.207,-0.059 3.192,-0.707 0.838,-0.552 1.738,-1.38 2.404,-2.132 0.668,-0.753 0.672,-1.086 1.67,-1.253 1.002,-0.167 1.506,0 2.254,0.5 0.749,0.505 2.67,2.423 3.089,2.923 0.418,0.502 1.503,1.588 1.335,2.09 -0.167,0.5 -1.419,1.586 -2.173,2.085 -0.747,0.503 -5.674,4.429 -6.175,4.845 -0.498,0.419 -0.937,0.402 -2.003,0.75 -1.409,0.456 -1.671,0.252 -2.005,1.004 -0.335,0.75 -0.147,1.324 -0.335,2.672 -0.188,1.368 0,2.167 -0.836,2.586 -0.833,0.416 -2.252,0.92 -4.003,1.754 -1.757,0.833 -3.676,1.918 -4.511,2.504 -0.837,0.586 -1,0.5 -1.087,1.002 -0.083,0.502 -0.334,4.678 -0.334,5.261 0,0.582 -0.064,1.478 -0.332,2.004 -0.306,0.598 -1.189,0.296 -1.189,0.296 -4.393,-1.245 -4.132,-1.347 -4.79,-1.66 -1.413,-0.681 -2.872,-1.767 -3.59,-2.627 -0.529,-0.636 -1.839,-2.183 -1.839,-2.183 0,0 -4.706,-0.113 -6.196,-0.803 -1.493,-0.69 -5.169,-2.527 -6.202,-4.249 -1.035,-1.719 -1.952,-4.132 -1.952,-4.132 l -0.228,-0.574 c 0,0 1.265,0.918 1.723,1.262 0.457,0.346 2.293,2.183 2.752,2.41 0.463,0.231 1.15,0.692 1.037,0.117 -0.117,-0.575 -1.264,-1.722 -1.841,-2.41 -0.57,-0.69 -1.603,-1.607 -2.294,-2.988 -0.69,-1.375 -1.15,-3.443 -1.377,-4.018 -0.229,-0.572 -1.035,-1.494 -1.954,-2.299 -0.916,-0.8 -1.491,-1.947 -0.916,-2.751 0.571,-0.805 1.034,-1.036 1.835,-0.919 0.806,0.114 1.838,0.458 2.643,1.147 0.803,0.688 1.377,1.15 2.063,1.262 0.691,0.119 0.691,0.231 1.954,0.231 1.264,0 1.492,0.23 2.641,1.263 1.146,1.034 1.494,1.609 1.952,1.148 0.458,-0.46 0.916,-0.688 -0.114,-1.838 -1.031,-1.147 -1.953,-1.952 -3.674,-2.526 -1.724,-0.573 -1.951,0.003 -4.019,-1.261 -2.067,-1.263 -2.64,-1.379 -3.559,-2.987 -0.917,-1.607 -0.688,-3.33 -2.756,-5.052 -2.068,-1.719 -4.452,-1.455 -4.452,-1.455 0,0 0.547,-1.76 1.58,-2.333 1.035,-0.574 3.445,-1.262 6.089,-0.114 2.635,1.146 2.981,2.183 3.441,2.294 0,0 0.658,0.3 1.094,-0.038 0.435,-0.336 0.471,-1.009 -0.202,-1.514 -0.668,-0.5 -6.285,-2.687 -7.765,-3.86 0,0 -2.215,-1.929 -3.071,-3.14 -0.85,-1.213 -2.517,-2.924 -3.9,-4.035 -1.522,-1.223 -3.119,-1.138 -3.162,-1.584 -0.047,-0.448 1.731,-2.45 3.836,-2.808 2.11,-0.356 5.56,1.032 7.26,2.646 1.707,1.613 2.335,2.557 2.781,2.557 0.447,0 1.031,-0.049 0.984,-0.677 -0.042,-0.624 -1.118,-1.523 -1.835,-2.195 -0.72,-0.671 -2.467,-2.194 -3.316,-4.168 -0.851,-1.973 -1.167,-3.673 -1.075,-5.377 0.088,-1.705 0.94,-2.957 2.372,-2.108 1.434,0.852 3.945,2.957 4.889,4.212 0.94,1.257 1.434,1.525 1.833,1.571 0.405,0.043 1.122,-0.135 0.854,-0.809 -0.268,-0.671 -2.07,-1.607 -3.32,-4.571 -0.272,-0.651 -0.847,-2.242 -1.117,-3.494 -0.269,-1.257 -0.898,-2.646 -1.571,-3.453 -0.672,-0.806 -1.288,-1.883 -2.776,-2.373 -0.614,-0.2 -3.396,-0.353 0.314,-2.199 1.003,-0.498 4.75,0.539 6.453,2.916 1.702,2.375 2.463,4.438 2.732,4.662 0.268,0.221 0.899,0 0.72,-0.988 -0.182,-0.986 -0.943,-3.225 -2.241,-4.66 -1.301,-1.436 -3.227,-3.317 -4.346,-4.123 -1.125,-0.807 -1.932,-1.389 -2.739,-1.704 -0.805,-0.312 -1.208,-0.405 -1.342,-0.85 -0.135,-0.449 0.672,-1.613 1.704,-2.242 1.029,-0.628 3.224,-1.347 4.48,-1.076 1.257,0.269 2.376,0.805 3.185,1.747 0.805,0.943 1.209,1.705 1.746,1.837 0.539,0.137 1.029,0.179 0.984,-0.356 -0.044,-0.538 -1.118,-1.747 -1.297,-2.108 -0.183,-0.356 -0.99,-2.239 -0.045,-3.764 0.94,-1.522 2.06,-2.555 2.06,-2.555 0,0 0.271,-0.538 0.673,0.895 0.401,1.436 2.285,5.918 2.42,6.323 0.137,0.399 1.256,3.494 1.659,3.808 0.405,0.314 0.672,0.357 0.809,-0.134 0.134,-0.494 0.267,-2.152 0.403,-2.555 0.134,-0.405 0.308,-1.119 0.85,-1.164 0.536,-0.046 1.03,0.625 1.655,1.344 0.627,0.717 3.543,4.661 3.812,4.885 0.271,0.223 0.714,0.626 0.984,0.401 0.27,-0.224 0.897,-0.356 0.403,-1.117 -0.491,-0.765 -4.795,-5.513 -4.795,-5.513 0,0 -1.12,-2.061 -1.968,-1.884 -0.853,0.179 -1.526,0.854 -1.843,1.119 -0.31,0.272 -0.672,0.81 -1.028,0.224 -0.358,-0.581 -1.659,-5.108 -1.93,-5.87 -0.268,-0.762 -0.713,-2.69 -0.892,-3.094 -0.183,-0.4 -0.138,-0.579 -0.674,-0.222 -0.538,0.359 -3.453,3.631 -3.809,4.125 -0.361,0.492 -1.119,2.374 -1.119,2.374 0,0 -0.225,0.761 -0.628,0.716 -0.405,-0.045 -0.672,-0.359 -0.717,-1.075 -0.045,-0.717 -0.451,-5.918 -1.524,-8.07 -1.076,-2.147 -4.618,-7.44 -7.483,-10.035 -2.869,-2.604 -4.708,-4.346 -6.232,-4.974 -1.525,-0.63 -4.211,-1.124 -6.051,0.628 -1.835,1.742 -4.57,3.718 -4.885,8.245 0,0 -0.895,4.793 2.557,8.917 3.451,4.124 8.098,8.225 10.354,12.985 0,0 5.009,10.269 -4.008,17.448 0,0 -1.754,1.505 -5.01,1.755 -3.502,0.268 -3.506,-0.25 -4.843,-0.25 -1.336,0 -3.005,0.752 -3.842,1.169 -0.834,0.416 -1.755,0.583 -2.839,1.001 -1.085,0.419 -1.836,1.919 -1.836,2.504 0,0 -0.166,-0.247 -0.582,-0.667 -0.421,-0.419 -0.171,-0.668 -0.751,-0.668 -0.586,0 -0.922,0.752 -1.006,1.084 -0.082,0.337 -0.751,2.339 -0.831,3.09 l -0.087,0.75 c 0,0 -0.836,-2.504 -1,-5.674 -0.165,-3.172 0.416,-6.183 1.169,-7.351 0.749,-1.165 2.001,-1.666 2.834,-1.332 0.837,0.334 1.843,1.833 2.843,1.332 0.998,-0.498 0.836,-2.25 -0.168,-3.838 -0.999,-1.586 -1.919,-2.674 -3.589,-1.921 -1.672,0.753 -2.673,2.337 -3.089,2.504 -0.42,0.169 -0.753,0.502 -1.087,0 -0.333,-0.497 -0.587,-0.748 -0.168,-1.335 0.418,-0.583 2.087,-1.669 2.087,-3.754 0,-2.09 -0.835,-2.842 -2.252,-2.842 -1.417,0 -2.002,0 -3.17,0.252 -1.171,0.252 -1.587,0.414 -1.921,0.252 -0.334,-0.166 -0.584,-0.338 -0.334,-0.752 0.25,-0.42 2.839,-3.842 6.344,-4.593 3.506,-0.753 8.599,-0.753 11.019,2.755 2.424,3.504 3.593,6.26 3.259,9.85 -0.333,3.59 0.749,5.176 2.001,5.344 1.253,0.17 4.678,0.419 6.597,-3.506 1.919,-3.922 3.593,-8.184 -2.252,-14.195 0,0 -6.179,-5.758 -8.433,-8.932 -2.258,-3.174 -6.346,-9.355 -3.425,-16.113 2.922,-6.766 8.518,-10.774 8.518,-10.774 0,0 -0.003,-7.343 0.582,-9.762 0.584,-2.428 1.836,-4.847 2.591,-5.767 0.749,-0.916 1.75,-1.417 1.75,-1.417 0,0 -2.672,-7.014 -5.589,-9.186 -2.927,-2.171 -7.237,-3.495 -8.789,-5.688 -1.854,-2.618 -2.126,-4.687 -2.237,-6.247 -0.083,-1.18 0.219,-3.454 0.219,-3.454 0,0 1.036,1.363 3.288,2.533 2.256,1.166 3.84,3.007 3.84,3.007 0,0 -1.251,-2.256 -2.253,-5.429 -1,-3.172 -1.253,-9.104 0.418,-14.029 1.668,-4.925 2.002,-7.512 2.002,-10.182 0,-2.674 0.085,-7.099 -1.003,-8.933 -1.084,-1.839 -1.164,-2.59 -0.583,-3.346 0.583,-0.751 2.255,-0.916 2.755,-2.167 0.502,-1.253 0.168,-5.847 2.923,-7.182 2.758,-1.336 5.93,-1.417 7.348,-0.588 1.418,0.84 2.504,2.095 2.504,2.095 0,0 0.504,0.495 1.253,-0.172 0.753,-0.667 1.585,-2.333 3.09,-2.59 1.501,-0.244 3.925,-0.248 4.425,1.838 0.498,2.088 -0.5,4.009 -1.169,4.595 -0.668,0.579 -1.505,1.588 -1.421,2.171 0.086,0.582 0.584,0.668 0.919,0.582 0.333,-0.082 2.086,-1.59 2.504,-3.087 0.419,-1.507 0.67,-1.751 0.419,-3.172 -0.252,-1.42 -0.668,-2.087 -0.5,-2.589 0.17,-0.5 0.584,-1.083 1.252,-0.92 0.668,0.171 1.504,1.084 1.835,2.758 0.336,1.664 -0.081,4.006 -0.751,4.922 -0.669,0.923 -1.336,1.922 -1.336,1.922 0,0 -0.164,0.416 0.168,0.582 0.336,0.17 0.666,-0.166 1.252,-0.582 0.584,-0.416 1.089,-1.086 1.334,-2.008 0.254,-0.913 0.502,-2.248 0.419,-2.834 -0.081,-0.583 -0.165,-1.251 0.084,-1.752 0.25,-0.503 1.587,-0.25 1.587,-0.25 0.667,0.414 1.083,2.752 0.75,4.836 -0.336,2.092 -1.419,3.848 -3.254,4.847 -1.836,1.003 -3.424,1.249 -5.513,1.249 -2.087,0 -4.173,-0.494 -6.013,0 -1.836,0.504 -3.752,1.425 -4.504,5.932 -0.752,4.514 -1.421,16.113 -0.421,21.039 1.002,4.925 1.921,7.768 5.929,12.021 4.009,4.263 4.557,4.332 5.088,4.085 0.539,-0.255 0.468,-1.278 -0.218,-2.304 -0.717,-1.082 -1.475,-1.8 -1.979,-2.234 -0.403,-0.344 -1.796,-1.399 -1.796,-1.399 0,0 7.339,1.272 9.427,4.111 2.088,2.841 2.392,6.938 3.453,9.202 1.261,2.682 4.176,2.879 4.176,2.879 0,0 -1.716,-1.718 -2.412,-3.168 -1.331,-2.77 -0.864,-4.043 -1.042,-5.326 -0.468,-3.342 -2.736,-5.217 -2.736,-5.217 0,0 5.937,1.727 8.818,5.759 2.812,3.936 3.633,6.909 3.52,11.983 -0.117,5.104 -0.921,5.682 -1.84,6.513 -0.918,0.837 -1.334,2.673 -1.334,4.678 0,2.002 0.416,3.172 -0.336,3.588 -0.75,0.419 -1.251,0.004 -2.005,0.587 -0.751,0.583 -0.585,0.917 0.254,1.666 0.837,0.756 6.755,5.178 12.228,7.075 5.841,2.028 11.648,4.118 14.071,6.289 2.419,2.166 2.547,2.637 2.686,3.127 0.526,1.843 -1.091,2.647 -1.841,3.317 -0.754,0.664 -6.472,3.839 -8.942,4.681 -1.602,0.543 -2.422,0.788 -2.897,1.314 -0.357,0.399 -0.442,0.919 0.058,1.333 0.5,0.42 1.418,0.666 2.753,0 1.338,-0.67 5.427,-3.004 8.767,-4.595 3.339,-1.581 9.019,-3.755 12.108,-5.173 3.084,-1.415 5.68,-2.588 6.846,-2.921 1.168,-0.335 1.918,-1.921 8.849,-0.5 6.931,1.416 11.606,3.42 12.609,3.758 1.001,0.333 2.423,0.666 2.756,0.752 0.335,0.081 2.754,0.081 5.091,-0.253 2.338,-0.338 5.346,-0.085 6.68,0.501 1.337,0.583 2.575,1.766 3.003,3.006 0.209,0.598 0.239,1.819 -1.252,2.252 -0.481,0.143 -0.976,-0.038 -1.533,-0.374 -0.609,-0.369 -1.173,-0.952 -1.507,-1.119 -0.335,-0.166 -0.963,-0.595 -1.049,-0.095 -0.083,0.505 1.78,1.671 3.422,2.673 1.117,0.684 2.502,1.726 2.757,2.507 0.537,1.642 0.272,2.971 -0.48,3.138" style="fill:#ffffff;fill-opacity:1;fill-rule:nonzero;stroke:none" id="path178"/></g><g id="g180" transform="translate(186.7339,289.0566)"><path d="M 0,0 C -0.373,0.313 -0.273,0.329 -0.086,0.64 0.103,0.954 0.678,1.292 1.176,1.849 1.673,2.415 2.068,3.058 1.93,4.987 1.873,5.801 1.595,6.634 1.595,6.634 c 0,0 1.944,-0.633 2.144,-2.082 C 3.811,4.059 3.668,3.049 3.304,2.368 2.225,0.378 0.374,-0.312 0,0 Z m -0.5,8.529 c -0.088,0.429 -0.217,0.889 -1.064,1.492 -0.657,0.464 -1.769,0.916 -2.842,1.278 -0.768,0.26 -1.566,0.366 -2.554,1.633 -0.683,0.876 -1.394,2.651 -1.143,3.089 0.246,0.438 1.84,-2.323 2.774,-2.947 0.934,-0.623 3.198,-0.497 4.618,-1.136 C 0.621,11.34 1.487,10.59 1.744,9.229 1.973,8.014 0.871,6.481 0.312,6.609 -0.25,6.733 -0.313,6.983 -0.373,7.544 -0.438,8.104 -0.431,8.202 -0.5,8.529 Z M -3.123,1.835 c -0.351,-1 -0.678,-1.212 -1.181,-1.087 -0.497,0.128 -0.809,0.564 -0.809,1.059 0,0.685 0.273,1.604 -0.496,2.932 -0.815,1.405 -2.482,2.725 -4.116,3.523 -1.506,0.737 -2.431,1.321 -2.802,3.272 -0.126,0.655 0.058,2.245 0.058,2.245 0,0 0.524,-2.737 2.329,-3.78 0.227,-0.133 1.9,-0.847 5.452,-3.094 2.094,-1.318 2.01,-3.797 1.565,-5.07 z m -6.416,-2.768 c -0.186,-1.998 -2.183,-1.747 -2.554,-1.248 -0.376,0.498 0.061,0.998 0.56,1.993 0.498,1 0.124,1.124 -0.189,1.748 -0.312,0.623 -1.68,2.556 -2.989,4.365 -1.31,1.806 -1.435,4.36 -1.185,5.609 0.25,1.246 1.246,1.431 1.933,1.121 l 0.124,-0.809 c 0,0 -0.063,-0.751 -0.124,-1.684 -0.061,-0.933 0.061,-1.748 0.25,-2.805 0.184,-1.061 1.805,-2.805 2.991,-4.174 1.183,-1.376 1.371,-2.124 1.183,-4.116 z m -7.343,24.504 c 0.584,-1.086 0.513,-1.818 0.071,-2.732 -0.486,-1.01 -1.691,-1.747 -2.152,-1.494 -0.865,0.468 -0.086,2.389 0.244,3.058 0.337,0.668 0.17,1.668 -0.25,2.501 -0.417,0.836 -0.748,1.257 -0.917,2.005 -0.168,0.751 0.667,2.756 1.836,4.008 1.168,1.253 1.087,3.176 1.087,3.842 0,0.666 -0.25,1.669 -0.086,2.421 0.167,0.752 1.353,-1.308 1.523,-1.959 0.318,-1.214 0.401,-3.216 -0.185,-4.137 -0.587,-0.92 -1.586,-2.838 -2.087,-4.089 -0.503,-1.255 0.331,-2.338 0.916,-3.424 z M -18.969,6.369 c -0.225,-0.904 -1.007,-3.311 -3.925,-6.177 -2.567,-2.522 -6.091,-3.674 -6.676,-3.421 -0.584,0.247 -0.335,0.834 0.331,1.832 0.668,1.009 1.214,3.555 1.419,4.512 0.563,2.566 0.052,5.191 -0.03,5.937 -0.085,0.752 0.198,1.435 0.701,1.494 0.532,0.06 0.835,-0.082 1.083,-0.585 l 0.084,-1.504 V 5.286 c 0,-1.418 -0.416,-4.094 -0.416,-4.761 0,-0.668 -0.023,-0.86 0.628,-0.44 0.495,0.322 1.084,0.574 1.982,1.588 1.051,1.188 1.386,2.081 1.981,3.119 0.839,1.468 1.252,2.163 1.837,2.585 0.584,0.413 1.234,-0.058 1.001,-1.008 z m -17.537,8.887 c -0.582,0.168 0.338,2.722 0.67,3.556 0.338,0.834 1.007,2.003 1.674,3.089 0.669,1.084 1.194,1.983 1.838,2.839 0.978,1.307 2.698,0.179 2.168,-0.919 -0.258,-0.531 -1.586,-1.754 -2.338,-2.42 -0.75,-0.668 -1.587,-2.171 -1.587,-2.672 0,-0.5 0.334,-0.5 0.835,-0.417 0.502,0.084 1.326,0.341 2.841,1.504 1.016,0.775 0.75,0.665 1.42,1.418 0.667,0.752 1.25,-1.251 0.247,-2.589 -1,-1.338 -7.183,-3.556 -7.768,-3.389 z m 9.61,20.421 c 0.498,0.167 3.585,2.338 3.839,2.255 0.248,-0.083 0.25,-0.502 0.083,-1.504 -0.168,-1.003 -1.254,-1.083 -2.505,-1.586 -1.252,-0.501 -0.921,-0.628 -0.835,-1.169 0.07,-0.447 0.25,-2.088 0.25,-3.755 0,-1.672 -0.139,-3.302 -0.832,-3.925 -1.796,-1.612 -1.784,0.473 -1.338,1.501 0.201,0.467 0.324,1.187 0.826,3.106 0.502,1.921 -0.74,2.988 -1.078,3.493 -0.332,0.5 1.086,1.418 1.59,1.584 z m 6.591,-19.955 c 0,0 0.419,-0.501 0.503,-1.336 0.085,-0.835 -0.335,-2.42 -1.087,-4.339 -0.754,-1.921 -1.584,-1.921 -1.92,-1.921 -0.333,0 -0.918,0.331 -1.004,0.917 -0.081,0.586 0.837,2.256 1.423,2.923 0.584,0.666 0.416,2.924 0.667,3.674 0.25,0.748 0.749,0.334 1.168,0.082 z m -0.503,16.114 c -1.083,-1.169 -0.998,-2.837 -1.083,-3.506 -0.083,-0.67 0,-3.925 -0.335,-5.094 -0.335,-1.169 -2.586,-1.502 -2.586,-1.502 0,0 0.715,2.021 1.053,3.274 0.329,1.254 -0.054,3.991 0.032,4.99 0.082,1.003 0.67,2.007 1.669,3.089 1.003,1.087 1.674,3.008 1.753,3.843 0.083,0.835 -0.079,3.171 0,3.756 0.083,0.585 1.84,-2.252 1.84,-3.923 0,-1.671 -1.252,-3.758 -2.343,-4.927 z m -3.754,10.27 c 0.879,1.489 0.408,4.707 0.911,5.621 1.056,1.923 4.611,2.404 4.804,5.541 0.062,1.004 -0.286,2.049 -0.286,2.049 0,0 1.119,-0.48 1.822,-1.921 0.332,-0.675 -0.071,-2.023 -0.904,-2.942 -0.834,-0.917 -2.759,-2.338 -3.508,-3.003 -0.75,-0.667 -0.418,-2.257 -0.503,-3.593 -0.082,-1.335 -0.27,-1.959 -1.334,-2.839 -0.776,-0.639 -3.357,-1.01 -3.357,-1.01 0,0 1.329,0.362 2.355,2.097 z m 7.18,23.127 c 0.333,0.497 1.671,2.04 2.755,2.756 2.38,1.569 1.585,-0.085 1.418,-0.421 -0.495,-0.992 -1.41,-2.075 -2.088,-2.652 -0.498,-0.423 -1.416,-1.185 -1.752,-1.27 -0.333,-0.083 -0.501,0 -0.752,0.418 -0.249,0.416 0.084,0.667 0.419,1.169 z m 7.515,-38.489 c -0.298,0.384 -0.816,1.217 -1.001,1.586 -0.239,0.469 -0.807,1.788 -0.743,2.453 0.132,1.429 1.244,2.724 1.409,2.471 0,0 -0.015,-0.718 -0.083,-1.108 -0.041,-0.262 0.048,-1.374 0.301,-2.292 0.252,-0.919 1.093,-1.939 1.593,-2.693 0.5,-0.75 1.029,-1.39 0.696,-2.504 -0.396,-1.317 -1.024,-1.735 -1.994,-1.873 -0.785,-0.112 -3.164,0.526 -3.916,1.027 -0.751,0.497 -1.941,1.259 -2.024,1.845 -0.081,0.586 2.215,-0.147 2.587,-0.333 0.571,-0.281 1.757,-0.836 2.675,-0.836 0.92,0 1.146,1.412 0.5,2.257 z m 1.278,26.827 c 0.347,0.345 0.776,0.609 1.212,0.783 1.119,0.429 2.325,0.429 4.224,-0.347 0.342,-0.258 0.425,-0.694 0.17,-0.945 -1.47,-1.643 -3.79,-1.987 -5.689,-0.871 -0.264,0.181 -0.346,0.524 0.083,1.38 z M 4.898,10.732 C 5.084,11.292 8.227,10.724 8.79,10.411 9.348,10.099 9.742,9.837 10.158,9.038 10.547,8.295 10.597,7.793 10.471,7.044 10.342,6.296 9.85,6.481 9.6,6.548 9.348,6.609 9.224,6.983 8.976,7.419 8.726,7.853 8.537,7.979 7.979,8.414 7.416,8.853 7.105,9.038 6.419,9.411 5.736,9.788 4.711,10.171 4.898,10.732 Z m 8.886,-2.828 c 0.126,0.562 0.481,0.194 1.164,0.257 0.685,0.063 1.233,-0.108 2.668,0.263 1.433,0.376 2.59,1.559 3.343,2.18 0.904,0.743 2.479,2.251 1.68,-1.452 C 22.367,7.896 21.71,6.357 20.706,5.159 19.758,4.027 18.901,3.045 18.463,3.045 c -0.436,0 -0.809,0.436 -0.935,0.871 -0.126,0.433 1.373,2.18 1.871,2.741 0.499,0.563 0,0.75 -0.187,0.75 -0.187,0 -1.372,-0.498 -2.119,-0.688 C 16.344,6.534 15.16,6.534 14.41,6.781 13.66,7.031 13.66,7.343 13.784,7.904 Z m 16.749,39.132 c -0.137,-0.757 -0.659,-0.8 -0.987,-0.757 -0.33,0.048 -0.376,0.191 -0.567,0.474 -0.19,0.283 -0.233,0.988 -0.188,1.742 0.049,0.756 0.617,1.65 1.036,2.264 0.558,0.818 1.366,1.131 1.885,1.27 0.519,0.144 1.3,-0.189 1.49,-0.378 0,0 0.161,-0.233 0.255,-0.516 0.093,-0.281 -0.283,-0.8 -0.612,-1.085 -0.333,-0.281 -0.709,-0.377 -1.228,-0.848 -0.519,-0.472 -0.942,-1.414 -1.084,-2.166 z m -3.91,2.971 c -0.281,0.185 -0.283,0.281 -0.283,0.705 0,0.424 0.116,1.049 0.424,1.646 0.465,0.908 1.601,1.7 2.168,1.981 0.567,0.285 1.453,-0.997 0.238,-1.742 -0.45,-0.276 -0.664,-0.871 -1.133,-1.414 -0.4,-0.465 -1.133,-1.366 -1.414,-1.176 z m 32.301,-62.824 c -0.753,0.166 -2.234,-1.149 -3.799,-2.196 -0.848,-0.566 -1.733,-1.028 -1.733,-0.443 0,0.584 0.837,1.003 1.756,1.586 0.919,0.586 2.54,1.49 3.17,2.504 0.863,1.399 0.561,2.987 0.396,3.57 -0.171,0.591 -1.515,2.176 -2.461,2.176 -0.85,0 -1.088,-1.598 -2.171,-2.267 -1.083,-0.666 -2.275,-1.475 -4.446,-0.97 -2.171,0.5 -3.756,1.5 -4.509,1.752 -0.75,0.252 -2.703,0.504 -3.897,-0.59 -0.873,-0.805 -0.778,-1.415 -1.03,-2.333 -0.247,-0.919 -0.247,-1.752 -0.247,-2.338 0,-0.583 0.08,-2.754 0.08,-2.754 v -0.502 c 0,0 -7.512,-2.085 -10.686,-1.834 0,0 -2.603,0.106 -4.009,0.497 -3.761,1.042 -12.549,6.05 -12.549,6.05 0,0 -1.897,1.3 -2.48,2.638 -0.583,1.333 -0.491,3.168 -0.918,4.008 -0.434,0.842 -1.505,1.75 -2.418,1.33 C 6.053,-3.352 6.001,-4.621 5.777,-5.464 5.162,-7.767 4.379,-7.605 3.463,-8.188 2.545,-8.775 0.297,-8.177 0.297,-8.177 c 0,0 3.432,1.436 3.5,4.744 0.025,1.217 0.25,1.84 0.335,2.256 0.084,0.415 0.337,1.002 0.917,0.67 0.582,-0.336 2.339,-1.762 3.923,-1.505 2.768,0.445 5.354,0.786 2.504,1.505 -3.94,0.99 -5.423,5.844 -5.342,6.26 0.086,0.415 0.753,0.999 1.338,0.5 0.58,-0.5 4.839,-5.175 5.341,-5.68 0.502,-0.5 1.142,-1.199 1.337,-1.666 0.179,-0.428 0.25,-1.42 -1.004,-1.672 -1.25,-0.249 -2.171,-1.002 -2.254,-1.922 -0.08,-0.916 0.36,-2.306 1.421,-3.256 1.809,-1.617 2.607,-2.18 5.26,-2.917 1.567,-0.44 5.044,0.139 5.044,0.139 0,0 -5.481,1.324 -6.238,3.402 -0.272,0.755 0.111,1.552 0.609,1.716 0.504,0.166 1.085,0.333 1.752,-0.335 0.671,-0.666 1.453,-1.612 2.575,-2.309 1.395,-0.866 2.685,-0.801 3.856,-0.193 1.11,0.573 2.704,2.484 2.704,2.484 0,0 -5.225,-0.445 -6.631,4.111 -0.279,0.9 -1.167,1.585 -1.167,1.585 0,0 0.419,0.081 1.338,-0.247 0.919,-0.336 1.752,-1 4.009,-0.503 2.252,0.503 6.508,3.423 7.593,7.932 1.087,4.508 4.843,22.71 4.926,23.043 0.086,0.333 0,1.171 1.005,1.337 1.002,0.167 1.423,0.084 1.504,0.501 0.081,0.416 -0.252,1.337 -0.918,2.504 -0.669,1.171 -0.839,2.089 -0.086,3.256 0.752,1.168 1.753,2.42 1.835,4.84 0.088,2.424 -0.316,5.471 -0.495,5.905 -0.187,0.451 -0.417,0.979 -1.502,0.566 -1.088,-0.42 -1.48,-0.941 -2.257,-1.21 -0.634,-0.218 -1.175,0.743 -0.675,1.245 0.504,0.502 1.743,1.75 1.927,3.016 0.177,1.228 0.115,1.5 -0.5,1.942 -0.509,0.369 -1.254,0.479 -1.923,-0.024 -0.667,-0.499 -1.67,-0.499 -1.752,0.42 -0.085,0.918 0.295,1.556 -0.79,1.97 -1.107,0.419 -1.796,-0.637 -2.215,-0.552 -0.419,0.084 -0.3,1.185 -1.054,1.604 -0.753,0.417 -2.536,-0.35 -3.205,-1.184 -0.666,-0.838 -3.509,-3.928 -3.675,-6.765 -0.164,-2.837 0.419,-5.013 2.505,-5.847 2.089,-0.833 4.174,-1.332 4.762,-2.67 C 31.015,39.483 31.35,38.9 28.511,31.218 25.672,23.535 22.92,14.769 20.496,12.851 18.073,10.928 14.822,9.675 13.401,9.595 11.98,9.509 11.395,9.509 11.311,9.842 c -0.083,0.333 0.25,0.919 1.002,1.505 0.752,0.586 2.171,2.338 1.67,3.09 -0.5,0.751 -0.92,1.001 -2.087,1.001 -1.167,0 -1.753,-0.169 -2.505,0.5 C 8.638,16.607 8.045,16.969 7.379,16.803 6.71,16.636 6.134,15.854 5.549,15.021 4.967,14.184 4.882,13.27 4.047,13.518 3.214,13.767 2.881,14.437 3.296,15.021 3.711,15.603 4.687,16.788 5.049,19.111 5.46,21.772 4.188,22.919 3.687,23.336 3.188,23.753 2.3,19.719 1.378,18.611 0.541,17.61 -0.797,16.44 -1.464,16.107 c -0.667,-0.336 -1.332,-0.504 -1.332,0.167 0,0.666 1.165,2.17 1.499,2.586 0.333,0.417 1.676,2.245 2.09,3.334 0.414,1.084 0.651,2.42 0.367,3.813 -0.307,1.482 -3.819,-1.194 -4.644,-1.32 -1.421,-0.228 -1.787,1.536 -2.037,1.954 -0.251,0.416 -1.789,3.909 -1.789,3.909 0,0 -0.747,1.42 -0.498,1.586 0.251,0.166 0.834,-0.086 1.669,-0.666 0.835,-0.586 2.421,-1.838 3.508,-2.09 1.086,-0.253 2.919,-0.695 4.259,0.166 1.755,1.131 2.045,2.166 2.476,2.963 0.352,0.647 1.335,1.855 -0.165,2.16 -1.273,0.257 -1.394,-0.465 -3.565,-0.029 -1.942,0.395 -2.98,1.187 -3.671,1.838 -0.838,0.78 -1.661,3.714 -0.838,5.09 1,1.669 2.171,2.507 3.506,2.59 1.336,0.084 2.207,-0.059 3.192,-0.707 0.838,-0.552 1.738,-1.38 2.404,-2.132 0.668,-0.753 0.672,-1.086 1.67,-1.253 1.002,-0.167 1.506,0 2.254,0.5 0.749,0.505 2.67,2.423 3.089,2.923 0.418,0.502 1.503,1.588 1.335,2.09 -0.167,0.5 -1.419,1.586 -2.173,2.085 -0.747,0.503 -5.674,4.429 -6.175,4.845 -0.498,0.419 -0.937,0.402 -2.003,0.75 -1.409,0.456 -1.671,0.252 -2.005,1.004 -0.335,0.75 -0.147,1.324 -0.335,2.672 -0.188,1.368 0,2.167 -0.836,2.586 -0.833,0.416 -2.252,0.92 -4.003,1.754 -1.757,0.833 -3.676,1.918 -4.511,2.504 -0.837,0.586 -1,0.5 -1.087,1.002 -0.083,0.502 -0.334,4.678 -0.334,5.261 0,0.582 -0.064,1.478 -0.332,2.004 -0.306,0.598 -1.189,0.296 -1.189,0.296 -4.393,-1.245 -4.132,-1.347 -4.79,-1.66 -1.413,-0.681 -2.872,-1.767 -3.59,-2.627 -0.529,-0.636 -1.839,-2.183 -1.839,-2.183 0,0 -4.706,-0.113 -6.196,-0.803 -1.493,-0.69 -5.169,-2.527 -6.202,-4.249 -1.035,-1.719 -1.952,-4.132 -1.952,-4.132 l -0.228,-0.574 c 0,0 1.265,0.918 1.723,1.262 0.457,0.346 2.293,2.183 2.752,2.41 0.463,0.231 1.15,0.692 1.037,0.117 -0.117,-0.575 -1.264,-1.722 -1.841,-2.41 -0.57,-0.69 -1.603,-1.607 -2.294,-2.988 -0.69,-1.375 -1.15,-3.443 -1.377,-4.018 -0.229,-0.572 -1.035,-1.494 -1.954,-2.299 -0.916,-0.8 -1.491,-1.947 -0.916,-2.751 0.571,-0.805 1.034,-1.036 1.835,-0.919 0.806,0.114 1.838,0.458 2.643,1.147 0.803,0.688 1.377,1.15 2.063,1.262 0.691,0.119 0.691,0.231 1.954,0.231 1.264,0 1.492,0.23 2.641,1.263 1.146,1.034 1.494,1.609 1.952,1.148 0.458,-0.46 0.916,-0.688 -0.114,-1.838 -1.031,-1.147 -1.953,-1.952 -3.674,-2.526 -1.724,-0.573 -1.951,0.003 -4.019,-1.261 -2.067,-1.263 -2.64,-1.379 -3.559,-2.987 -0.917,-1.607 -0.688,-3.33 -2.756,-5.052 -2.068,-1.719 -4.452,-1.455 -4.452,-1.455 0,0 0.547,-1.76 1.58,-2.333 1.035,-0.574 3.445,-1.262 6.089,-0.114 2.635,1.146 2.981,2.183 3.441,2.294 0,0 0.658,0.3 1.094,-0.038 0.435,-0.336 0.471,-1.009 -0.202,-1.514 -0.668,-0.5 -6.285,-2.687 -7.765,-3.86 0,0 -2.215,-1.929 -3.071,-3.14 -0.85,-1.213 -2.517,-2.924 -3.9,-4.035 -1.522,-1.223 -3.119,-1.138 -3.162,-1.584 -0.047,-0.448 1.731,-2.45 3.836,-2.808 2.11,-0.356 5.56,1.032 7.26,2.646 1.707,1.613 2.335,2.557 2.781,2.557 0.447,0 1.031,-0.049 0.984,-0.677 -0.042,-0.624 -1.118,-1.523 -1.835,-2.195 -0.72,-0.671 -2.467,-2.194 -3.316,-4.168 -0.851,-1.973 -1.167,-3.673 -1.075,-5.377 0.088,-1.705 0.94,-2.957 2.372,-2.108 1.434,0.852 3.945,2.957 4.889,4.212 0.94,1.257 1.434,1.525 1.833,1.571 0.405,0.043 1.122,-0.135 0.854,-0.809 -0.268,-0.671 -2.07,-1.607 -3.32,-4.571 -0.272,-0.651 -0.847,-2.242 -1.117,-3.494 -0.269,-1.257 -0.898,-2.646 -1.571,-3.453 -0.672,-0.806 -1.288,-1.883 -2.776,-2.373 -0.614,-0.2 -3.396,-0.353 0.314,-2.199 1.003,-0.498 4.75,0.539 6.453,2.916 1.702,2.375 2.463,4.438 2.732,4.662 0.268,0.221 0.899,0 0.72,-0.988 -0.182,-0.986 -0.943,-3.225 -2.241,-4.66 -1.301,-1.436 -3.227,-3.317 -4.346,-4.123 -1.125,-0.807 -1.932,-1.389 -2.739,-1.704 -0.805,-0.312 -1.208,-0.405 -1.342,-0.85 -0.135,-0.449 0.672,-1.613 1.704,-2.242 1.029,-0.628 3.224,-1.347 4.48,-1.076 1.257,0.269 2.376,0.805 3.185,1.747 0.805,0.943 1.209,1.705 1.746,1.837 0.539,0.137 1.029,0.179 0.984,-0.356 -0.044,-0.538 -1.118,-1.747 -1.297,-2.108 -0.183,-0.356 -0.99,-2.239 -0.045,-3.764 0.94,-1.522 2.06,-2.555 2.06,-2.555 0,0 0.271,-0.538 0.673,0.895 0.401,1.436 2.285,5.918 2.42,6.323 0.137,0.399 1.256,3.494 1.659,3.808 0.405,0.314 0.672,0.357 0.809,-0.134 0.134,-0.494 0.267,-2.152 0.403,-2.555 0.134,-0.405 0.308,-1.119 0.85,-1.164 0.536,-0.046 1.03,0.625 1.655,1.344 0.627,0.717 3.543,4.661 3.812,4.885 0.271,0.223 0.714,0.626 0.984,0.401 0.27,-0.224 0.897,-0.356 0.403,-1.117 -0.491,-0.765 -4.795,-5.513 -4.795,-5.513 0,0 -1.12,-2.061 -1.968,-1.884 -0.853,0.179 -1.526,0.854 -1.843,1.119 -0.31,0.272 -0.672,0.81 -1.028,0.224 -0.358,-0.581 -1.659,-5.108 -1.93,-5.87 -0.268,-0.762 -0.713,-2.69 -0.892,-3.094 -0.183,-0.4 -0.138,-0.579 -0.674,-0.222 -0.538,0.359 -3.453,3.631 -3.809,4.125 -0.361,0.492 -1.119,2.374 -1.119,2.374 0,0 -0.225,0.761 -0.628,0.716 -0.405,-0.045 -0.672,-0.359 -0.717,-1.075 -0.045,-0.717 -0.451,-5.918 -1.524,-8.07 -1.076,-2.147 -4.618,-7.44 -7.483,-10.035 -2.869,-2.604 -4.708,-4.346 -6.232,-4.974 -1.525,-0.63 -4.211,-1.124 -6.051,0.628 -1.835,1.742 -4.57,3.718 -4.885,8.245 0,0 -0.895,4.793 2.557,8.917 3.451,4.124 8.098,8.225 10.354,12.985 0,0 5.009,10.269 -4.008,17.448 0,0 -1.754,1.505 -5.01,1.755 -3.502,0.268 -3.506,-0.25 -4.843,-0.25 -1.336,0 -3.005,0.752 -3.842,1.169 -0.834,0.416 -1.755,0.583 -2.839,1.001 -1.085,0.419 -1.836,1.919 -1.836,2.504 0,0 -0.166,-0.247 -0.582,-0.667 -0.421,-0.419 -0.171,-0.668 -0.751,-0.668 -0.586,0 -0.922,0.752 -1.006,1.084 -0.082,0.337 -0.751,2.339 -0.831,3.09 l -0.087,0.75 c 0,0 -0.836,-2.504 -1,-5.674 -0.165,-3.172 0.416,-6.183 1.169,-7.351 0.749,-1.165 2.001,-1.666 2.834,-1.332 0.837,0.334 1.843,1.833 2.843,1.332 0.998,-0.498 0.836,-2.25 -0.168,-3.838 -0.999,-1.586 -1.919,-2.674 -3.589,-1.921 -1.672,0.753 -2.673,2.337 -3.089,2.504 -0.42,0.169 -0.753,0.502 -1.087,0 -0.333,-0.497 -0.587,-0.748 -0.168,-1.335 0.418,-0.583 2.087,-1.669 2.087,-3.754 0,-2.09 -0.835,-2.842 -2.252,-2.842 -1.417,0 -2.002,0 -3.17,0.252 -1.171,0.252 -1.587,0.414 -1.921,0.252 -0.334,-0.166 -0.584,-0.338 -0.334,-0.752 0.25,-0.42 2.839,-3.842 6.344,-4.593 3.506,-0.753 8.599,-0.753 11.019,2.755 2.424,3.504 3.593,6.26 3.259,9.85 -0.333,3.59 0.749,5.176 2.001,5.344 1.253,0.17 4.678,0.419 6.597,-3.506 1.919,-3.922 3.593,-8.184 -2.252,-14.195 0,0 -6.179,-5.758 -8.433,-8.932 -2.258,-3.174 -6.346,-9.355 -3.425,-16.113 2.922,-6.766 8.518,-10.774 8.518,-10.774 0,0 -0.003,-7.343 0.582,-9.762 0.584,-2.428 1.836,-4.847 2.591,-5.767 0.749,-0.916 1.75,-1.417 1.75,-1.417 0,0 -2.672,-7.014 -5.589,-9.186 -2.927,-2.171 -7.237,-3.495 -8.789,-5.688 -1.854,-2.618 -2.126,-4.687 -2.237,-6.247 -0.083,-1.18 0.219,-3.454 0.219,-3.454 0,0 1.036,1.363 3.288,2.533 2.256,1.166 3.84,3.007 3.84,3.007 0,0 -1.251,-2.256 -2.253,-5.429 -1,-3.172 -1.253,-9.104 0.418,-14.029 1.668,-4.925 2.002,-7.512 2.002,-10.182 0,-2.674 0.085,-7.099 -1.003,-8.933 -1.084,-1.839 -1.164,-2.59 -0.583,-3.346 0.583,-0.751 2.255,-0.916 2.755,-2.167 0.502,-1.253 0.168,-5.847 2.923,-7.182 2.758,-1.336 5.93,-1.417 7.348,-0.588 1.418,0.84 2.504,2.095 2.504,2.095 0,0 0.504,0.495 1.253,-0.172 0.753,-0.667 1.585,-2.333 3.09,-2.59 1.501,-0.244 3.925,-0.248 4.425,1.838 0.498,2.088 -0.5,4.009 -1.169,4.595 -0.668,0.579 -1.505,1.588 -1.421,2.171 0.086,0.582 0.584,0.668 0.919,0.582 0.333,-0.082 2.086,-1.59 2.504,-3.087 0.419,-1.507 0.67,-1.751 0.419,-3.172 -0.252,-1.42 -0.668,-2.087 -0.5,-2.589 0.17,-0.5 0.584,-1.083 1.252,-0.92 0.668,0.171 1.504,1.084 1.835,2.758 0.336,1.664 -0.081,4.006 -0.751,4.922 -0.669,0.923 -1.336,1.922 -1.336,1.922 0,0 -0.164,0.416 0.168,0.582 0.336,0.17 0.666,-0.166 1.252,-0.582 0.584,-0.416 1.089,-1.086 1.334,-2.008 0.254,-0.913 0.502,-2.248 0.419,-2.834 -0.081,-0.583 -0.165,-1.251 0.084,-1.752 0.25,-0.503 1.587,-0.25 1.587,-0.25 0.667,0.414 1.083,2.752 0.75,4.836 -0.336,2.092 -1.419,3.848 -3.254,4.847 -1.836,1.003 -3.424,1.249 -5.513,1.249 -2.087,0 -4.173,-0.494 -6.013,0 -1.836,0.504 -3.752,1.425 -4.504,5.932 -0.752,4.514 -1.421,16.113 -0.421,21.039 1.002,4.925 1.921,7.768 5.929,12.021 4.009,4.263 4.557,4.332 5.088,4.085 0.539,-0.255 0.468,-1.278 -0.218,-2.304 -0.717,-1.082 -1.475,-1.8 -1.979,-2.234 -0.403,-0.344 -1.796,-1.399 -1.796,-1.399 0,0 7.339,1.272 9.427,4.111 2.088,2.841 2.392,6.938 3.453,9.202 1.261,2.682 4.176,2.879 4.176,2.879 0,0 -1.716,-1.718 -2.412,-3.168 -1.331,-2.77 -0.864,-4.043 -1.042,-5.326 -0.468,-3.342 -2.736,-5.217 -2.736,-5.217 0,0 5.937,1.727 8.818,5.759 2.812,3.936 3.633,6.909 3.52,11.983 -0.117,5.104 -0.921,5.682 -1.84,6.513 -0.918,0.837 -1.334,2.673 -1.334,4.678 0,2.002 0.416,3.172 -0.336,3.588 -0.75,0.419 -1.251,0.004 -2.005,0.587 -0.751,0.583 -0.585,0.917 0.254,1.666 0.837,0.756 6.755,5.178 12.228,7.075 5.841,2.028 11.648,4.118 14.071,6.289 2.419,2.166 2.547,2.637 2.686,3.127 0.526,1.843 -1.091,2.647 -1.841,3.317 -0.754,0.664 -6.472,3.839 -8.942,4.681 -1.602,0.543 -2.422,0.788 -2.897,1.314 -0.357,0.399 -0.442,0.919 0.058,1.333 0.5,0.42 1.418,0.666 2.753,0 1.338,-0.67 5.427,-3.004 8.767,-4.595 3.339,-1.581 9.019,-3.755 12.108,-5.173 3.084,-1.415 5.68,-2.588 6.846,-2.921 1.168,-0.335 1.918,-1.921 8.849,-0.5 6.931,1.416 11.606,3.42 12.609,3.758 1.001,0.333 2.423,0.666 2.756,0.752 0.335,0.081 2.754,0.081 5.091,-0.253 2.338,-0.338 5.346,-0.085 6.68,0.501 1.337,0.583 2.575,1.766 3.003,3.006 0.209,0.598 0.239,1.819 -1.252,2.252 -0.481,0.143 -0.976,-0.038 -1.533,-0.374 -0.609,-0.369 -1.173,-0.952 -1.507,-1.119 -0.335,-0.166 -0.963,-0.595 -1.049,-0.095 -0.083,0.505 1.78,1.671 3.422,2.673 1.117,0.684 2.502,1.726 2.757,2.507 0.537,1.642 0.272,2.971 -0.48,3.138 z" style="fill:none;stroke:#2592d0;stroke-width:0.609;stroke-linecap:butt;stroke-linejoin:miter;stroke-miterlimit:10;stroke-dasharray:none;stroke-opacity:1" id="path182"/></g><g id="g184" transform="translate(206.1831,213.1025)"><path d="m 0,0 c -0.018,0.003 -0.035,0.009 -0.053,0.012 -0.152,0.031 -0.316,0.034 -0.484,0.023 -0.006,0 -0.012,0.002 -0.019,0.002 l 0.002,-0.003 c -0.902,-0.058 -1.937,-0.649 -2.374,-1.198 -0.523,-0.655 -1.442,-1.178 -2.619,-0.522 -1.178,0.651 -1.437,2.611 -1.57,3.138 -0.129,0.522 -1.697,10.066 -1.697,10.587 0,0.526 -2.877,13.994 -3.006,15.037 -0.129,1.047 -0.081,1.404 0.336,1.499 0.387,0.089 1.106,-0.399 1.123,-1.283 0.013,-0.765 0.266,-1.762 0.511,-2.152 0.386,-0.612 0.951,-1.187 1.605,-1.574 0.851,-0.502 2.961,-1.589 3.875,-2.111 0.914,-0.523 1.563,-0.831 1.702,-0.259 0.016,0.059 0.059,0.888 -0.131,2.351 -0.241,1.819 -0.369,2.234 -1.176,3.529 -0.658,1.047 -2.619,2.63 -3.271,3.942 -0.652,1.306 -0.524,5.078 -1.827,7.695 -1.308,2.61 -4.319,3.267 -6.67,3.794 -2.353,0.52 -7.134,-1.318 -11.769,-3.14 -7.508,-2.951 -14.978,-7.95 -13.972,-8.768 0.509,-0.418 0.544,-1.037 0.412,-1.56 -0.131,-0.524 -0.131,-2.658 -0.131,-3.573 0,-0.918 0.414,-1.859 1.329,-2.905 0.913,-1.049 1.395,-3.409 2.95,-3.067 1.184,0.259 1.307,0.917 2.358,2.352 1.039,1.443 2.61,3.398 3.788,3.794 1.178,0.393 1.176,-0.526 -0.656,-3.535 -1.833,-3.005 -1.353,-4.861 -0.393,-6.665 1.146,-2.159 4.068,-3.298 4.068,-3.298 0,0 -0.475,2.023 0,3.787 0.571,2.13 2.452,4.762 5.451,5.842 1.35,0.486 2.119,0.732 2.119,0.732 0,0 -1.264,-1.702 -2.133,-2.657 -0.967,-1.055 -1.659,-2.834 -1.655,-4.402 0.007,-1.522 0.651,-2.489 1.436,-4.452 0.781,-1.962 2.613,-5.094 3.266,-8.631 0.654,-3.525 0,-5.492 0,-6.27 0,-0.785 0.38,-1.547 1.461,-1.263 1.084,0.285 0.764,-2.805 1.357,-4.141 0.775,-1.742 2.08,-0.268 3.269,0.225 2.381,0.992 4.1,1.302 6.538,1.837 2.709,0.593 6.018,-1.173 7.909,0.005 0.667,0.416 0.101,1.984 -0.363,4.004 -0.276,1.203 1.347,1.187 1.753,0.109 0.583,-1.544 0,-0.948 0.956,-4.641 0.145,-0.561 1.128,-1.02 1.999,-0.585 0.905,0.45 -0.246,1.706 -0.307,3.732 -0.031,1.037 1.472,-0.165 1.472,-0.165 0,0 0.481,-3.352 1.175,-4.742 0.575,-1.153 1.911,-0.755 3.067,-1.603 0,0 0.865,10.321 -11.011,11.137" style="fill:#ffffff;fill-opacity:1;fill-rule:nonzero;stroke:none" id="path186"/></g></g></g></g></svg>