<svg xmlns:dc="http://purl.org/dc/elements/1.1/" xmlns:cc="http://creativecommons.org/ns#" xmlns:rdf="http://www.w3.org/1999/02/22-rdf-syntax-ns#" xmlns:svg="http://www.w3.org/2000/svg" xmlns="http://www.w3.org/2000/svg" xmlns:sodipodi="http://sodipodi.sourceforge.net/DTD/sodipodi-0.dtd" xmlns:inkscape="http://www.inkscape.org/namespaces/inkscape" id="svg2" version="1.1" inkscape:version="0.48.0 r9654" width="221.25" height="221.25" xml:space="preserve" sodipodi:docname="Universitario_de_Deportes.ai"><metadata id="metadata8"><rdf:RDF><cc:Work rdf:about=""><dc:format>image/svg+xml</dc:format><dc:type rdf:resource="http://purl.org/dc/dcmitype/StillImage"/><dc:title/></cc:Work></rdf:RDF></metadata><defs id="defs6"/><sodipodi:namedview pagecolor="#ffffff" bordercolor="#666666" borderopacity="1" objecttolerance="10" gridtolerance="10" guidetolerance="10" inkscape:pageopacity="0" inkscape:pageshadow="2" inkscape:window-width="640" inkscape:window-height="480" id="namedview4" showgrid="false" fit-margin-top="0" fit-margin-left="0" fit-margin-right="0" fit-margin-bottom="0" inkscape:zoom="0.27842122" inkscape:cx="109.54724" inkscape:cy="111.31909" inkscape:window-x="0" inkscape:window-y="0" inkscape:window-maximized="0" inkscape:current-layer="g10"/><g id="g10" inkscape:groupmode="layer" inkscape:label="Universitario_de_Deportes" transform="matrix(1.25,0,0,-1.25,-262.5,636.11206)"><g id="g12" transform="scale(1,-1)"><path d="m 387,-420.38965 c 0,48.87695 -39.62305,88.5 -88.5,88.5 -48.87695,0 -88.5,-39.62305 -88.5,-88.5 0,-48.87695 39.62305,-88.5 88.5,-88.5 48.87695,0 88.5,39.62305 88.5,88.5 z" style="fill:#da2129;fill-opacity:1;fill-rule:nonzero;stroke:none" id="path14" inkscape:connector-curvature="0"/><path d="m 377.81445,-420.56641 c 0,43.90137 -35.58984,79.49121 -79.49121,79.49121 -43.90136,0 -79.49072,-35.58984 -79.49072,-79.49121 0,-43.90136 35.58936,-79.49072 79.49072,-79.49072 43.90137,0 79.49121,35.58936 79.49121,79.49072 z" style="fill:#edebd6;fill-opacity:1;fill-rule:nonzero;stroke:none" id="path16" inkscape:connector-curvature="0"/><path d="m 250.05762,-473.09717 c 0,0 24.73047,0 24.73047,0 0,0 0,63.10401 0,63.10401 0,10.01367 0.30664,16.50586 0.91894,19.47265 1.05713,4.76953 3.57715,8.59766 7.56299,11.48535 3.98535,2.88672 9.43115,4.33008 16.33936,4.33008 7.02148,0 12.31542,-1.36328 15.88183,-4.09277 3.56641,-2.72754 5.71094,-6.07813 6.43359,-10.05274 0.72364,-3.97461 1.0879,-10.57129 1.0879,-19.79004 0,0 0,-64.45654 0,-64.45654 0,0 24.73046,0 24.73046,0 0,0 0,61.21338 0,61.21338 0,13.99121 -0.67089,23.875 -2.00683,29.65234 -1.33594,5.77637 -3.80078,10.6543 -7.39453,14.62891 -3.59375,3.97363 -8.39844,7.14258 -14.41602,9.5 -6.0166,2.35449 -13.86914,3.53516 -23.5625,3.53516 -11.70019,0 -20.57129,-1.28614 -26.61572,-3.85547 -6.04443,-2.56934 -10.82227,-5.90918 -14.33301,-10.0166 -3.51123,-4.10645 -5.82129,-8.41309 -6.93359,-12.917 -1.61768,-6.67675 -2.42334,-16.53613 -2.42334,-29.57421 0,0 0,-62.16651 0,-62.16651 z" style="fill:#da2128;fill-opacity:1;fill-rule:nonzero;stroke:none" id="path18" inkscape:connector-curvature="0"/></g></g></svg>