<svg xmlns:inkscape="http://www.inkscape.org/namespaces/inkscape" xmlns:sodipodi="http://sodipodi.sourceforge.net/DTD/sodipodi-0.dtd" xmlns:xlink="http://www.w3.org/1999/xlink" xmlns="http://www.w3.org/2000/svg" xmlns:svg="http://www.w3.org/2000/svg" xmlns:rdf="http://www.w3.org/1999/02/22-rdf-syntax-ns#" xmlns:cc="http://creativecommons.org/ns#" xmlns:dc="http://purl.org/dc/elements/1.1/" version="1.1" width="507" height="600" id="svg2" inkscape:version="1.2 (dc2aeda, 2022-05-15)" viewBox="0 0 507 600" sodipodi:docname="Logo_US_Concarneau.svg" xml:space="preserve"><metadata id="metadata73"><rdf:RDF><cc:Work rdf:about=""><dc:format>image/svg+xml</dc:format><dc:type rdf:resource="http://purl.org/dc/dcmitype/StillImage"/><dc:title/></cc:Work></rdf:RDF></metadata><defs id="defs71"><linearGradient inkscape:collect="always" id="linearGradient4632"><stop style="stop-color:#144aa0;stop-opacity:1" offset="0" id="stop4628"/><stop style="stop-color:#1852a5;stop-opacity:1" offset="0.14332248" id="stop9328"/><stop style="stop-color:#1852a5;stop-opacity:1" offset="0.28338763" id="stop9330"/><stop style="stop-color:#2b62ae;stop-opacity:1" offset="0.45928341" id="stop9332"/><stop style="stop-color:#376eb6;stop-opacity:1" offset="0.58631921" id="stop9334"/><stop style="stop-color:#417abd;stop-opacity:1" offset="0.7361564" id="stop9336"/><stop style="stop-color:#427bbe;stop-opacity:1" offset="0.8631922" id="stop9338"/><stop style="stop-color:#4b84c4;stop-opacity:1" offset="1" id="stop4630"/></linearGradient><linearGradient inkscape:collect="always" xlink:href="#linearGradient4632" id="linearGradient4634" x1="4.8490424" y1="221.43961" x2="501.06772" y2="221.43964" gradientUnits="userSpaceOnUse"/></defs><sodipodi:namedview pagecolor="#ffffff" bordercolor="#666666" borderopacity="1" objecttolerance="10" gridtolerance="10" guidetolerance="10" inkscape:pageopacity="0" inkscape:pageshadow="2" inkscape:window-width="1920" inkscape:window-height="1080" id="namedview69" showgrid="false" inkscape:zoom="0.61867883" inkscape:cx="56.572164" inkscape:cy="423.48305" inkscape:window-x="0" inkscape:window-y="0" inkscape:window-maximized="0" inkscape:current-layer="svg2" inkscape:showpageshadow="2" inkscape:pagecheckerboard="0" inkscape:deskcolor="#d1d1d1"/><path d="M 11.336809,31.410396 C 89.131287,11.439252 173.09912,0.11478403 254.81419,9.0753036e-4 334.42783,-0.11011148 414.05471,10.133376 495.12398,31.66683 c 8.49174,45.015826 11.41062,87.80175 11.0783,129.06473 C 504.82592,331.61394 435.47651,506.43564 252.46099,600 82.177201,509.25218 0.85043444,350.01145 0.00641483,156.32911 -0.16334159,117.37107 3.0211788,73.633496 11.336809,31.410396 Z" style="fill:url(#linearGradient4634);stroke-width:1.05833;stroke:none;fill-opacity:1" id="path16" inkscape:connector-curvature="0"/><path d="m 401.1256,344.33763 c 10.18041,-35.49264 14.39162,-73.75674 14.77981,-113.97408 0.25697,-26.61567 -2.11719,-52.95057 -7.7962,-78.88287 -55.21529,-14.88004 -103.43002,-20.27859 -155.52302,-20.20599 -52.15025,0.0728 -103.50051,6.31242 -154.932897,20.44507 -5.361827,25.10902 -8.955181,51.05128 -8.84649,76.47833 0.09514,22.23248 1.282804,43.90384 4.42171,64.84452 2.78627,18.58717 7.081507,36.43487 12.779777,53.58503 l 5.82093,-2.04512 c -5.64239,-16.99786 -9.82227,-34.49738 -12.513923,-52.4523 -3.168963,-21.14049 -4.262432,-42.59849 -4.353766,-63.95859 -0.102552,-23.94581 3.110967,-48.04106 7.941189,-71.49814 49.02204,-13.1103 98.96419,-19.17327 149.69194,-19.24407 15.80798,-0.022 31.60919,0.46979 47.37611,1.62613 35.00253,2.5673 69.01731,8.48432 102.90436,17.40045 5.00887,24.2685 7.11505,49.07982 6.87587,73.84796 -0.3701,38.3495 -4.23174,76.65328 -14.71451,112.90062 z" style="fill:#ffffff;fill-rule:evenodd;stroke-width:1.05833" id="path18" inkscape:connector-curvature="0"/><path d="M 252.59254,587.87565 C 320.67926,550.05785 372.99895,503.96909 410.86521,450.34712 468.81724,368.28259 493.6112,269.25787 494.66255,160.61789 495.0445,121.15831 490.6846,82.161851 483.10504,43.299061 408.38713,23.338923 332.05855,13.997875 254.83398,14.105507 177.52464,14.213245 97.139896,23.962386 21.733438,43.653919 15.044251,80.876295 10.357958,118.57227 10.520518,156.26751 c 0.142346,32.9608 1.901081,65.08392 6.554778,96.12796 8.884907,59.26584 26.969893,114.60316 55.001186,164.33755 39.173938,69.50478 101.208378,128.07307 180.516058,171.14263 z m -0.0325,-7.03325 C 312.59445,547.05209 365.88759,503.36976 405.83761,446.79684 465.33554,362.54358 487.52103,262.54509 488.50814,160.55841 488.87273,122.87069 484.80091,85.260541 477.79115,48.25925 404.92152,29.155197 330.16244,20.155143 254.84245,20.260236 178.73336,20.366175 100.92248,29.71135 27.101402,48.622575 20.860525,84.138815 16.519566,120.14231 16.675247,156.24084 c 0.137265,31.80954 1.767414,63.75984 6.486833,95.24214 8.53153,56.9083 25.965324,111.99765 54.276123,162.22808 40.520877,71.8946 103.352877,127.57915 175.121847,167.13134 z" style="fill:#ffffff;fill-rule:evenodd;stroke-width:1.05833" id="path20" inkscape:connector-curvature="0"/><path d="m 122.58738,398.5929 96.79979,0.61965 v 5.37919 h 2.88459 v -4.50321 l 16.39419,0.30978 25.19751,-0.33645 1.13633,-13.88224 5.53264,-0.80888 -0.0685,-0.58166 14.87983,-0.0802 1.38176,-0.35952 -3.2e-4,-22.34149 -0.62727,-0.0301 -0.78751,-2.54211 -2.84966,-1.15252 -0.0795,-0.59235 c 6.2414,-1.69799 8.93539,-5.50259 15.20018,-14.87041 l 0.0408,-14.05306 c 0.0123,-0.32543 0.28797,-0.1379 0.30004,-0.459 0.18161,-4.83795 0.53212,-10.43176 3.52519,-14.16958 0.2013,-3.1461 0.89853,-5.74769 4.00494,-7.16617 l 0.59521,0.37031 c 6.67913,-3.47303 7.67904,-9.23204 7.92775,-16.0695 -0.0682,-0.24924 -0.84571,-0.99579 -0.96012,-1.71355 -0.1143,-0.71733 0.43286,-1.54918 1.03039,-1.68486 l -7.4e-4,-13.74636 -1.76995,-1.53997 c 1.32683,-2.188 1.55585,-4.55602 3.03064,-7.55829 1.14733,-2.335 3.7575,-5.26774 6.73744,-8.22991 0.31285,-4.26624 0.38947,-8.41839 0.53129,-12.73311 0.31189,-9.49344 -0.0264,-19.23518 0.0362,-28.88166 l -0.47752,-0.26109 0.19495,-2.85326 1.6982,-0.35698 c 0.22817,15.3692 1.23507,29.95725 2.07951,46.10697 2.08724,1.24481 4.57295,4.80895 6.332,8.17021 1.20322,2.29934 1.82689,5.78389 3.31628,7.58338 l 0.003,1.30248 -0.99886,0.51298 -3.1e-4,13.53267 c 0.94022,1.67312 0.90244,3.18156 -0.54007,4.40425 0.54271,3.60976 1.08532,6.36989 2.05295,9.55473 2.17022,0.75427 5.17355,1.10987 7.34356,0.94096 l 0.77268,1.18808 c 1.96289,1.19941 3.75369,6.14478 3.35671,12.23972 1.81843,3.58488 2.98524,10.9496 3.62998,16.06727 1.32503,1.90532 3.93985,4.67804 5.82548,6.81534 1.37583,1.55945 2.39267,3.04398 3.84386,4.30392 3.22537,2.80045 5.41517,3.63442 10.73932,5.65774 l 0.21463,0.73141 -1.70826,1.45764 1.44261,1.70952 -2.34505,1.66508 0.08,10.50902 26.90216,8.26864 -11.62196,33.57431 -30.38344,40.18464 -21.9352,10.70566 -57.60584,14.83782 -53.40374,-1.61819 -25.52062,-3.46435 -63.89096,-43.56199 -8.94205,-11.63636 -3.19966,-10.35154 2.72214,-4.51347 z M 330.10264,276.44278 c -0.40777,0.67215 -0.62134,1.5095 -0.62134,2.2062 l -3.2e-4,7.76191 1.58358,0.90011 v -6.88688 c 0,-1.08987 -0.31411,-2.77473 -0.96192,-3.98134 z m -10.99236,10.67592 6.22193,-0.78295 v -7.86499 c 0,-2.09613 -1.64232,-4.14189 -3.41026,-5.34257 -1.29561,1.09527 -2.81114,2.57884 -2.81114,4.13162 z m 24.02635,20.61483 c 1.2681,0 2.29669,3.97626 2.29669,8.87919 0,4.90304 -1.02859,8.8793 -2.29669,8.8793 -1.26819,0 -2.29679,-3.97626 -2.29679,-8.8793 0,-4.90293 1.0286,-8.87919 2.29679,-8.87919 z m -26.33002,-1.84023 c 4.55114,0 8.24218,3.9444 8.24218,8.80839 0,4.86409 -3.69104,8.80849 -8.24218,8.80849 -4.55125,0 -8.24229,-3.9444 -8.24229,-8.80849 0,-4.86399 3.69104,-8.80839 8.24229,-8.80839 z" style="fill:#ffffff;fill-rule:evenodd;stroke-width:1.05833" id="path23" inkscape:connector-curvature="0"/><path d="m 305.39568,308.90065 c -1.81123,1.19401 -2.14239,3.11965 -2.28473,5.34458 l -0.0335,0.52493 -0.32872,0.41064 c -2.73917,3.42042 -3.00206,8.96333 -3.16081,13.19009 -0.0138,0.37031 -0.1179,0.70316 -0.30046,0.98404 l -0.0405,13.97379 -0.27982,0.41825 c -1.91209,2.8594 -3.85698,5.83681 -6.01905,8.51153 -1.61766,2.0013 -3.38846,3.821 -5.60884,5.15534 -0.35952,0.21622 -0.72496,0.41593 -1.09601,0.60082 l 0.42545,0.17208 0.67596,2.18186 1.04764,0.0501 2.1e-4,25.21931 -2.83093,0.73681 -13.22417,0.0712 0.04,0.33962 -5.82421,0.85164 -1.15199,14.07126 -26.73982,0.35698 -14.72266,-0.27824 v 4.47145 h -6.21834 v -5.38976 l -94.19534,-0.60293 -3.00015,4.97426 1.12553,3.64162 14.77273,19.22332 56.39437,38.45068 44.55418,6.04805 37.45066,1.13485 49.55829,-12.76497 32.20514,-15.71792 28.16105,-37.24523 11.07629,-31.99824 -28.01415,-8.61048 -0.0959,-12.59923 1.57586,-1.11919 -1.34302,-1.5912 1.35614,-1.15718 c -3.50487,-1.34577 -6.25114,-2.5473 -9.35142,-5.23917 -1.53373,-1.33148 -2.66879,-2.94967 -4.00102,-4.45991 -1.95982,-2.22133 -4.26328,-4.54935 -5.94401,-6.96637 l -0.23411,-0.33644 -0.0513,-0.40703 c -0.27664,-2.19541 -0.59467,-4.38933 -0.98679,-6.56738 -0.39211,-2.17772 -0.94678,-5.04379 -1.7944,-7.36048 -0.48387,4.36953 -2.00331,7.56051 -3.80227,7.56051 -2.18884,0 -3.96366,-4.7227 -3.96366,-10.54617 0,-5.7787 1.74762,-10.47304 3.91339,-10.54458 l -0.34978,-0.53774 c -2.29319,0.0348 -4.96749,-0.36312 -7.01282,-1.07379 l -0.80116,-0.27844 -0.24648,-0.81174 c -0.98753,-3.25046 -1.60147,-6.4335 -2.10651,-9.79137 l -0.1379,-0.91863 0.70856,-0.60061 c 0.84116,-0.71321 0.67161,-1.41403 0.16467,-2.31626 l -0.21367,-0.38026 3.1e-4,-14.98683 0.86011,-0.44153 c -1.39615,-2.1445 -1.8252,-4.93902 -2.99095,-7.1665 -1.12226,-2.14439 -3.61082,-6.26013 -5.70885,-7.51129 l -0.76444,-0.45604 -0.0465,-0.88879 c -0.12922,-2.47247 -0.2649,-4.94431 -0.40227,-7.41647 -0.0773,2.14492 -0.17621,4.28879 -0.33316,6.43043 l -0.0456,0.62134 -0.44185,0.439 c -2.06544,2.05337 -5.13206,5.16931 -6.41635,7.78276 -1.01325,2.06226 -1.5005,4.36826 -2.44094,6.42862 l 1.35096,1.17528 8.5e-4,15.83667 -0.98679,0.22383 c 0.21559,0.40905 0.68824,0.78582 0.85725,1.40356 l 0.0674,0.24596 -0.01,0.25463 c -0.27411,7.53268 -1.58125,13.72149 -8.82458,17.48799 l -0.84296,0.43825 -0.57806,-0.35952 z m 22.41843,-21.5198 4.91732,2.79495 v -9.75168 c 0,-2.25541 -0.88952,-5.17863 -2.4911,-6.40788 -1.31582,0.7402 -2.42601,2.55915 -2.42601,4.63274 z m -10.37081,1.62761 9.55579,-1.20247 v -9.33523 c 0,-2.64625 -2.05126,-5.76622 -5.2379,-7.36927 -2.33648,1.91082 -4.31736,3.72384 -4.31736,6.15832 z m -0.63669,15.21786 c 5.47157,0 9.90916,4.69095 9.90916,10.47537 0,5.78442 -4.43759,10.47537 -9.90916,10.47537 -5.47158,0 -9.90916,-4.69095 -9.90916,-10.47537 0,-5.78442 4.43758,-10.47537 9.90916,-10.47537 z" style="fill:#13499f;fill-rule:evenodd;stroke-width:1.05833;fill-opacity:1" id="path25" inkscape:connector-curvature="0"/><path d="m 169.54937,227.23871 76.4758,-8.94957 0.44471,-18.16213 h -7.18438 l 2.05623,-13.86457 c -9.70247,-4.32297 -16.46859,-14.04999 -16.46859,-25.35552 0,-15.32062 12.42492,-27.74554 27.74565,-27.74554 15.32062,0 27.74554,12.42492 27.74554,27.74554 0,11.23218 -6.67839,20.90745 -16.28011,25.2717 l 2.32727,13.94839 h -7.52082 l 0.44397,18.13366 76.19725,8.97804 v 17.56122 l -69.63347,8.39437 6.18235,159.18729 c 0.36269,9.33935 1.31593,18.19494 5.95883,26.61365 2.27192,4.11903 5.2616,7.58189 9.27247,10.54977 5.94824,4.40118 13.54728,6.43625 21.24558,5.75161 24.57341,-2.18619 48.57563,-20.5674 62.61176,-41.70303 7.65936,-11.5337 14.01771,-26.95624 16.40499,-38.6144 l -14.07592,-3.22918 c 10.09786,-14.53333 20.80924,-30.19929 29.16117,-46.99756 9.2132,15.63019 15.12885,35.74315 14.6688,57.08314 l -14.9519,-3.60055 c -3.98568,19.74318 -8.67663,31.71312 -18.45837,45.90885 -16.66576,24.18658 -41.92126,41.49422 -69.1006,51.94218 -15.24792,5.86136 -31.41975,10.34657 -42.99399,17.34331 -8.28017,5.00527 -14.08714,11.60683 -18.65892,19.7382 -3.24505,-6.83587 -11.53349,-15.36782 -18.76348,-19.7382 -11.57423,-6.99674 -27.74607,-11.48195 -42.99399,-17.34331 -27.17933,-10.44796 -52.43483,-27.7556 -69.1006,-51.94218 -9.78163,-14.19573 -14.47258,-26.16567 -18.45836,-45.90885 l -14.951902,3.60055 c -0.460057,-21.33999 4.942727,-41.45295 14.155932,-57.08314 8.35193,16.79827 19.57617,32.46423 29.67403,46.99756 l -14.33235,3.22918 c 2.38728,11.65816 9.00185,27.0807 16.66142,38.6144 14.03613,21.13594 38.03846,39.51684 62.61176,41.70303 7.6983,0.68464 15.29734,-1.35022 21.24569,-5.75161 4.01701,-2.97222 7.00891,-6.44069 9.2821,-10.56776 4.55728,-8.27446 5.21123,-16.33873 5.55392,-25.45986 l 6.02338,-160.25747 -70.22285,-8.45999 z m 72.98256,-48.9997 0.85672,-5.77754 h 18.40682 l 0.95906,5.74854 c 5.93217,-3.48307 9.91636,-9.92842 9.91636,-17.30309 0,-11.07258 -8.97952,-20.0521 -20.0521,-20.0521 -11.0727,0 -20.05222,8.97952 -20.05222,20.0521 0,7.3952 4.00621,13.85589 9.96536,17.33209 z" style="fill:#e3001f;fill-rule:evenodd;stroke-width:1.05833" id="path27" inkscape:connector-curvature="0"/><path d="m 322.04302,256.80046 c 0.31285,-4.26624 0.38947,-8.41839 0.53129,-12.73311 0.31189,-9.49344 -0.0264,-19.23518 0.0362,-28.88166 l -0.47752,-0.26109 0.19495,-2.85326 1.6982,-0.35698 c 0.22817,15.3692 1.23507,29.95725 2.07951,46.10697 z" style="fill:#ffffff;fill-rule:evenodd;stroke-width:1.05833" id="path29" inkscape:connector-curvature="0"/><g id="g13977"><path d="m 270.67573,86.33951 c 0.004,6.25019 -3.43154,10.422875 -9.8119,10.426897 -6.44101,0.0042 -10.23809,-4.02145 -10.24212,-10.414409 l -0.0128,-20.647418 c -0.004,-6.902758 3.65526,-11.004852 10.1549,-11.008873 6.44482,-0.0042 9.89488,4.266029 9.8989,10.740057 l 10e-4,2.183656 -6.95176,0.0042 -10e-4,-2.055704 c -0.001,-1.891239 -0.8709,-3.707124 -2.71917,-3.70596 -2.15847,0.0011 -3.17627,1.369587 -3.175,3.453231 l 0.0128,20.661176 c 10e-4,2.108515 0.75078,3.511863 2.92089,3.510487 2.20133,-0.0011 2.97423,-1.585593 2.97306,-3.514085 l -0.002,-2.78373 6.95176,-0.0042 0.002,3.154781 z" style="fill:#ffffff;fill-rule:evenodd;stroke-width:1.05833" id="path32" inkscape:connector-curvature="0"/><path d="m 182.32703,90.457056 c 0.73576,6.206163 -2.18715,10.753074 -8.52317,11.504274 -6.39613,0.7584 -10.3453,-2.82934 -11.09798,-9.177955 l -2.43099,-20.503697 c -0.81269,-6.854815 2.34114,-11.357276 8.79558,-12.122556 6.40005,-0.758824 10.0331,3.113083 10.79531,9.541496 l 0.28733,2.423157 -6.90349,0.818514 -0.27221,-2.296051 c -0.22267,-1.878116 -1.2991,-3.579702 -3.13446,-3.362109 -2.14344,0.254212 -2.70054,1.69767 -2.45533,3.766603 l 2.43268,20.517455 c 0.24829,2.093592 0.8635,3.434605 3.01847,3.179017 2.18609,-0.259185 2.76817,-1.923094 2.54116,-3.838146 l -0.2976,-2.509728 6.90339,-0.818514 z" style="fill:#ffffff;fill-rule:evenodd;stroke-width:1.05833" id="path34" inkscape:connector-curvature="0"/><path d="m 211.34967,87.935157 c 0.47963,6.230928 -2.93021,10.677192 -9.37217,11.173126 -6.50313,0.500591 -10.60416,-3.223361 -11.09491,-9.597482 l -1.58485,-20.586458 c -0.52981,-6.882438 3.11181,-11.274726 9.67421,-11.779974 6.50704,-0.500909 10.27629,3.494506 10.77318,9.948636 z m -8.61355,-20.174238 c -0.14521,-1.88563 -1.4205,-3.609335 -3.28655,-3.465614 -2.17942,0.167746 -3.06345,1.608241 -2.90353,3.685006 l 1.58591,20.600217 c 0.16171,2.101529 0.98605,3.446775 3.177,3.278182 2.22261,-0.171132 3.14135,-1.830385 2.99339,-3.753162 z" style="fill:#ffffff;fill-rule:evenodd;stroke-width:1.05833" id="path36" inkscape:connector-curvature="0"/><path d="m 440.16587,110.37073 c -1.61523,6.03323 -6.21548,9.12367 -12.29612,7.49585 -6.13812,-1.64327 -8.67568,-6.49213 -7.02246,-12.6677 l 8.0719,-30.151453 7.11717,1.905315 -7.9759,29.792988 c -0.42915,1.60285 -0.30893,3.44075 1.75905,3.99436 2.09793,0.56166 3.07075,-0.70495 3.56944,-2.56783 l 7.9759,-29.792993 6.87292,1.83991 z" style="fill:#ffffff;fill-rule:evenodd;stroke-width:1.05833" id="path38" inkscape:connector-curvature="0"/><path d="m 87.226713,106.5927 c 1.644648,6.02455 -0.741573,11.13958 -6.768031,12.95673 -5.016176,1.51236 -10.841234,-1.52262 -12.524828,-7.68994 l -8.220063,-30.111447 7.10765,-1.940345 8.122274,29.753512 c 0.436879,1.60031 1.596387,3.44032 3.724269,2.84522 2.074119,-0.57996 2.105128,-2.43755 1.597235,-4.29799 L 72.142945,78.355032 79.00665,76.481255 Z" style="fill:#ffffff;fill-rule:evenodd;stroke-width:1.05833" id="path40" inkscape:connector-curvature="0"/><path d="m 365.72493,104.56028 6.76729,-40.957653 18.52133,3.060272 -1.14088,6.905086 -11.23398,-1.856102 -1.63787,9.912653 9.95858,1.645388 -1.16617,7.057803 -9.95848,-1.645388 -1.63946,9.922284 11.24636,1.858217 -1.183,7.15972 z" style="fill:#ffffff;fill-rule:evenodd;stroke-width:1.05833" id="path42" inkscape:connector-curvature="0"/><path d="m 335.6574,100.38241 5.08105,-40.897964 6.91652,0.85926 4.83742,21.128853 2.55535,-20.210327 7.1214,0.88466 -5.08105,40.898068 -6.88455,-0.85534 -4.67719,-21.797617 -2.58138,20.895807 z" style="fill:#ffffff;fill-rule:evenodd;stroke-width:1.05833" id="path44" inkscape:connector-curvature="0"/><path d="m 220.72807,97.322031 -1.43171,-41.187522 6.96552,-0.242147 8.10873,20.101637 -0.66368,-20.360505 7.17178,-0.249237 1.43182,41.187522 -6.93324,0.240982 -8.05602,-20.787224 0.74602,21.04133 z" style="fill:#ffffff;fill-rule:evenodd;stroke-width:1.05833" id="path46" inkscape:connector-curvature="0"/><path d="m 276.1944,96.558338 11.03268,-41.016283 6.03281,0.244686 7.58242,41.771404 -7.31043,-0.296545 -1.25042,-8.742879 -6.76062,-0.274214 -1.94691,8.613234 z m 10.8171,-14.944809 4.24836,0.172297 -1.69524,-10.99575 z" style="fill:#ffffff;fill-rule:evenodd;stroke-width:1.05833" id="path48" inkscape:connector-curvature="0"/><path d="m 388.33396,108.58427 17.69954,-38.610697 5.90814,1.244492 0.53086,42.450645 -7.1594,-1.50802 0.22087,-8.82903 -6.62092,-1.39467 -3.35206,8.16958 z m 13.15158,-12.938002 4.16051,0.876405 0.15695,-11.124655 z" style="fill:#ffffff;fill-rule:evenodd;stroke-width:1.05833" id="path50" inkscape:connector-curvature="0"/><path d="m 316.3819,75.212104 2.31754,0.205951 c 1.73682,0.154199 2.91782,-0.613409 3.55155,-1.94786 0.76453,-1.61004 0.9344,-4.580671 0.66696,-6.279929 -0.21993,-1.398585 -0.97653,-2.467289 -3.03657,-2.646994 l -2.63736,-0.229975 z m -9.18092,22.742068 3.25903,-41.200857 11.32552,0.895878 c 2.83718,0.224367 5.08603,1.629831 6.48006,3.607218 2.03803,2.890093 2.45903,7.020868 1.93918,10.611364 -0.40121,2.768914 -1.38588,6.954616 -5.57148,8.542854 l 4.81255,19.303126 -7.7726,-0.614785 -3.988,-17.442578 -1.79991,-0.166053 -1.34821,17.044117 z" style="fill:#ffffff;fill-rule:evenodd;stroke-width:1.05833" id="path52" inkscape:connector-curvature="0"/><path d="m 123.17433,91.130578 c -2.03983,-0.425979 -4.08495,-0.831214 -6.02699,-1.637133 -4.63422,-1.922884 -5.37548,-7.885313 -5.64472,-9.635477 -0.68643,-4.461821 0.63299,-8.022472 3.11563,-10.358104 1.417,-1.333287 3.5743,-2.025859 5.78441,-2.354895 5.71754,-0.851004 10.54702,3.010531 11.58651,9.399363 l 0.39201,2.408657 -7.12966,1.061189 -0.34047,-2.286949 c -0.31104,-2.090099 -1.68243,-3.365918 -3.5252,-3.22389 -2.08375,0.160549 -3.10599,1.617342 -2.93856,3.552502 0.11229,1.295716 0.18457,2.459246 0.65839,3.421375 0.87058,1.768049 2.41818,1.865733 4.15236,2.147144 2.07349,0.336443 4.65,0.824864 6.47911,1.619247 5.42575,2.356164 5.49115,9.265801 5.73806,11.015012 0.63077,4.469231 -0.41126,7.881611 -2.74859,10.078921 -1.56591,1.47214 -4.19502,2.34283 -6.40513,2.67175 -5.71753,0.85101 -10.52066,-2.85654 -11.54883,-9.145675 l -0.37307,-2.281976 7.14861,-0.934189 0.2649,1.779691 c 0.27834,1.870709 1.67894,3.307289 3.5252,3.223889 2.16768,-0.0981 3.18029,-1.63025 3.05752,-3.570281 -0.07,-1.103946 -0.11134,-2.426861 -0.41984,-3.587004 -0.7021,-2.638845 -2.51057,-2.884907 -4.80165,-3.363167 z" style="fill:#ffffff;fill-rule:evenodd;stroke-width:1.05833" id="path54" inkscape:connector-curvature="0"/><path d="m 145.65054,97.890778 7.2863,-1.11019 1.00383,7.457962 -7.30334,0.98308 z" style="fill:#ffffff;fill-rule:evenodd;stroke-width:1.05833" id="path56" inkscape:connector-curvature="0"/><path d="m 98.781368,106.66202 7.191682,-1.613 1.51881,7.37033 -7.21761,1.48738 z" style="fill:#ffffff;fill-rule:evenodd;stroke-width:1.05833" id="path58" inkscape:connector-curvature="0"/></g><g id="g13983"><path d="m 248.40684,232.8484 c 0,1.49437 -0.59563,3.08546 -1.13337,4.58226 l -2.96555,8.25298 -3.89996,0.008 3.14399,-8.08407 c -1.53564,0.44418 -4.08865,-0.41317 -4.08865,-3.22156 v -5.48036 c 0,-1.98575 1.6692,-3.55124 4.56046,-3.55124 3.05159,0 4.38308,2.21372 4.38308,3.95139 v 3.54192 z m -3.40624,-2.97296 c -0.003,-0.67373 -0.36587,-1.10839 -0.93493,-1.1159 -0.70835,-0.01 -1.15676,0.34099 -1.16089,1.25962 l -0.0156,3.43641 c -0.002,0.58568 0.36407,1.2012 1.02457,1.19644 0.61045,-0.004 1.11252,-0.25929 1.10723,-1.20004 z" style="fill:#ffffff;fill-rule:evenodd;stroke-width:1.05833" id="path61" inkscape:connector-curvature="0"/><path d="m 272.46367,225.47532 h -3.39735 l -2.82098,1.96003 v 3.93626 l 2.56444,-1.74488 v 16.02569 h 3.65389 z" style="fill:#ffffff;fill-rule:evenodd;stroke-width:1.05833" id="path63" inkscape:connector-curvature="0"/><path d="m 259.38481,225.47532 h -3.39735 l -2.82099,1.96003 v 3.93626 l 2.56455,-1.74488 v 16.02569 h 3.65379 z" style="fill:#ffffff;fill-rule:evenodd;stroke-width:1.05833" id="path65" inkscape:connector-curvature="0"/><path d="m 233.22718,225.47532 h -3.39745 l -2.82088,1.96003 v 3.93626 l 2.56444,-1.74488 v 16.02569 h 3.65389 z" style="fill:#ffffff;fill-rule:evenodd;stroke-width:1.05833" id="path67" inkscape:connector-curvature="0"/></g></svg>