<svg xmlns:inkscape="http://www.inkscape.org/namespaces/inkscape" xmlns:sodipodi="http://sodipodi.sourceforge.net/DTD/sodipodi-0.dtd" xmlns="http://www.w3.org/2000/svg" xmlns:svg="http://www.w3.org/2000/svg" xmlns:rdf="http://www.w3.org/1999/02/22-rdf-syntax-ns#" xmlns:cc="http://creativecommons.org/ns#" xmlns:dc="http://purl.org/dc/elements/1.1/" viewBox="0 0 230 232.08694" height="232.08694" width="230" xml:space="preserve" id="svg2" version="1.1" sodipodi:docname="uta_arad.svg" inkscape:version="1.1.2 (b8e25be833, 2022-02-05)"><sodipodi:namedview id="namedview24" pagecolor="#ffffff" bordercolor="#666666" borderopacity="1.0" inkscape:pageshadow="2" inkscape:pageopacity="0.0" inkscape:pagecheckerboard="true" showgrid="false" inkscape:zoom="3.2554693" inkscape:cx="140.37915" inkscape:cy="114.57642" inkscape:window-width="1920" inkscape:window-height="1017" inkscape:window-x="-8" inkscape:window-y="-8" inkscape:window-maximized="1" inkscape:current-layer="svg2"/><metadata id="metadata8"><rdf:RDF><cc:Work rdf:about=""><dc:format>image/svg+xml</dc:format><dc:type rdf:resource="http://purl.org/dc/dcmitype/StillImage"/></cc:Work></rdf:RDF></metadata><defs id="defs6"><clipPath id="clipPath14" clipPathUnits="userSpaceOnUse"><path id="path12" d="M 0.5,-0.5 H 595.9458 V 841.38965 H 0.5 Z"/></clipPath></defs><g clip-path="url(#clipPath14)" transform="matrix(0.42313365,0,0,-0.42313365,-10.819659,274.46064)" id="g10"><path id="path16" style="fill:#ef3032;fill-opacity:1;fill-rule:nonzero;stroke:none" d="m 25.57031,553.67578 v 94.9624 h 543.56348 v -94.9624 L 297.3501,100.14258 Z"/><path id="path18" style="fill:#ffffff;fill-opacity:1;fill-rule:nonzero;stroke:none" d="M 561.85059,563.52783 H 32.85986 l -0.02002,0.63233 c 0,19.76123 0,67.41259 0,77.208 13.96241,0 515.06348,0 529.02539,0 0,-9.77197 0,-57.21679 0,-77.06445 l -0.0146,-0.77588 z"/><path id="path20" style="fill:#ffffff;fill-opacity:1;fill-rule:nonzero;stroke:none" d="M 385.90918,555.54688 V 262.04102 l -0.18164,-0.27832 C 339.82617,185.16406 301.79785,121.70605 297.3501,114.28516 c -4.44434,7.41894 -42.43018,70.80664 -88.29639,147.34668 l -0.25732,0.35937 v 294.29492 l 0.64062,-0.0278 h 176.47803 l -0.006,-0.71142 z"/><path id="path22" style="fill:#ef3032;fill-opacity:1;fill-rule:nonzero;stroke:none" d="m 58.68555,606.1582 h 18.71777 v -5.75927 H 58.68555 v -22.83106 h -6.07471 v 50.1875 h 27.75879 v -5.75879 H 58.68555 Z"/><path id="path24" style="fill:#ef3032;fill-opacity:1;fill-rule:nonzero;stroke:none" d="m 104.78857,579.14063 c -2.4497,1.60009 -4.45019,3.63378 -6.00341,6.10205 -1.55469,2.46826 -2.69629,5.18701 -3.42578,8.1582 -0.7295,2.97119 -1.09424,5.85058 -1.09424,8.63916 0,1.91894 0.12939,3.90771 0.38818,5.96484 0.2583,2.05762 0.69482,4.06836 1.30664,6.03272 0.61231,1.96484 1.42285,3.82861 2.43604,5.58789 1.01171,1.75879 2.23681,3.31396 3.67285,4.66211 1.43603,1.34814 3.11914,2.41162 5.05078,3.18896 1.93017,0.77686 4.14307,1.16602 6.63867,1.16602 3.5791,0 6.61621,-0.83496 9.11133,-2.50293 2.49609,-1.66944 4.50781,-3.77149 6.03857,-6.30762 1.53028,-2.5376 2.63672,-5.34863 3.31983,-8.4331 0.6831,-3.08594 1.02392,-6.02247 1.02392,-8.81055 0,-1.875 -0.15332,-3.8169 -0.45947,-5.82861 -0.30566,-2.01075 -0.77685,-3.97657 -1.41113,-5.89698 -0.63623,-1.91943 -1.47217,-3.72461 -2.50781,-5.41552 -1.03663,-1.6919 -2.27295,-3.18848 -3.70948,-4.49073 -1.43554,-1.30224 -3.10693,-2.33105 -5.01367,-3.08447 -1.90723,-0.75439 -4.06152,-1.13135 -6.4624,-1.13135 -3.48389,0 -6.45069,0.79932 -8.89942,2.39991 m 3.74317,42.43847 c -1.55274,-0.86719 -2.94287,-2.03369 -4.16699,-3.4956 -0.84668,-1.00635 -1.53028,-2.17237 -2.04883,-3.49659 -0.51807,-1.32617 -0.91846,-2.7207 -1.20069,-4.1831 -0.2832,-1.4624 -0.47119,-2.93701 -0.56494,-4.42139 -0.0942,-1.48584 -0.14013,-2.86865 -0.14013,-4.14746 0,-2.104 0.22265,-4.29687 0.67041,-6.58301 0.44677,-2.28564 1.18798,-4.38916 2.22461,-6.30859 1.03564,-1.91943 2.40136,-3.49609 4.0957,-4.73047 1.69482,-1.23389 3.79101,-1.8501 6.28711,-1.8501 2.58935,0 4.74316,0.65039 6.4624,1.9541 1.71875,1.30176 3.0957,2.94825 4.13232,4.93604 1.03565,1.98779 1.75342,4.15869 2.1543,6.5127 0.39893,2.35449 0.59961,4.60546 0.59961,6.75439 0,2.10254 -0.2124,4.34228 -0.63574,6.71875 -0.42334,2.37598 -1.1416,4.58154 -2.1543,6.61572 -1.01269,2.03418 -2.36572,3.71436 -4.06054,5.03955 -1.69581,1.32471 -3.81543,1.98877 -6.35694,1.98877 -1.97803,0 -3.74267,-0.43506 -5.29736,-1.30371 z"/><path id="path26" style="fill:#ef3032;fill-opacity:1;fill-rule:nonzero;stroke:none" d="m 165.32178,577.56787 h -6.07471 v 44.42871 h -13.13721 v 5.75879 h 32.41944 v -5.75879 h -13.20752 z"/><path id="path28" style="fill:#ef3032;fill-opacity:1;fill-rule:nonzero;stroke:none" d="m 191.91748,577.56787 v 50.1875 h 15.39746 c 4.19043,0 7.51074,-1.15478 9.95899,-3.46338 2.44873,-2.30859 3.67382,-5.54199 3.67382,-9.6997 0,-2.01221 -0.40087,-3.9209 -1.20263,-5.72608 -0.8003,-1.80517 -2.02442,-3.32617 -3.67188,-4.55859 2.40137,-1.09766 4.19092,-2.74414 5.36817,-4.9375 1.17773,-2.19287 1.7666,-4.54688 1.7666,-7.06153 0,-4.93603 -1.37842,-8.62793 -4.13281,-11.07275 -2.75489,-2.44531 -6.6045,-3.66797 -11.54737,-3.66797 h -15.61035 m 6.07471,44.35889 v -15.28858 h 8.26318 c 1.4585,0 2.74268,0.11475 3.84961,0.34229 1.10596,0.22949 2.0249,0.61767 2.75488,1.16553 0.72852,0.54834 1.271,1.30175 1.62403,2.26269 0.35302,0.95996 0.52978,2.19385 0.52978,3.70313 0,1.64502 -0.20117,2.98144 -0.60058,4.00976 -0.40039,1.0293 -0.98926,1.81738 -1.76563,2.36572 -0.77685,0.54786 -1.75391,0.92579 -2.93115,1.13135 -1.17822,0.20557 -2.54199,0.30811 -4.0957,0.30811 h -7.62842 m 0,-21.18555 v -17.41357 h 9.60547 c 3.10791,0 5.45019,0.66259 7.02734,1.98779 1.57666,1.32471 2.36572,3.56543 2.36572,6.71924 0,3.24414 -0.89404,5.50732 -2.68359,6.78711 -1.78906,1.27929 -4.28516,1.91943 -7.48633,1.91943 z"/><path id="path30" style="fill:#ef3032;fill-opacity:1;fill-rule:nonzero;stroke:none" d="m 261.29248,592.5835 h -16.03271 l -4.3794,-15.01563 h -6.56836 l 15.68018,50.1875 h 6.21533 l 16.74023,-50.1875 h -6.99414 l -4.66113,15.01563 m -10.94727,16.1455 c -1.083,-3.45166 -2.1665,-6.91357 -3.24951,-10.38671 h 12.21924 c -1.08252,3.47314 -2.1665,6.94677 -3.25,10.42089 -1.08252,3.47364 -2.09521,6.97071 -3.03613,10.49024 -0.70557,-3.56446 -1.60059,-7.07276 -2.6836,-10.52442 z"/><path id="path32" style="fill:#ef3032;fill-opacity:1;fill-rule:nonzero;stroke:none" d="m 284.28955,627.75537 h 6.07471 v -44.42773 h 19.70508 v -5.75977 h -25.77979 z"/><path id="path34" style="fill:#ef3032;fill-opacity:1;fill-rule:nonzero;stroke:none" d="m 380.41699,579.20264 c -2.45019,1.64453 -4.40332,3.74756 -5.8623,6.30761 -1.46192,2.55957 -2.47364,5.38184 -3.03809,8.46778 -0.56543,3.08447 -0.84668,6.09033 -0.84668,9.01562 0,2.7876 0.30469,5.67871 0.91895,8.67285 0.61035,2.99512 1.65722,5.74805 3.14258,8.2627 1.48242,2.51416 3.4248,4.58154 5.82617,6.20459 2.40039,1.62305 5.41308,2.43457 9.04004,2.43457 2.21386,0 4.19043,-0.35449 5.93261,-1.06348 1.74317,-0.70849 3.28418,-1.69189 4.62696,-2.94775 1.34277,-1.25781 2.47168,-2.7544 3.39062,-4.49072 0.91797,-1.73828 1.6582,-3.63428 2.22461,-5.6919 l -6.00293,-1.57617 c -0.37793,1.46191 -0.83691,2.81104 -1.37988,4.04492 -0.53906,1.2334 -1.22266,2.29737 -2.04492,3.18848 -0.8252,0.89062 -1.79102,1.58691 -2.89844,2.08984 -1.10547,0.5044 -2.41113,0.75537 -3.91797,0.75537 -2.5918,0 -4.70898,-0.6289 -6.3584,-1.88672 -1.64746,-1.25683 -2.94238,-2.86865 -3.88476,-4.833 -0.94141,-1.96436 -1.58692,-4.11328 -1.94141,-6.44336 -0.35352,-2.33203 -0.52832,-4.54883 -0.52832,-6.65088 0,-2.10303 0.16211,-4.35401 0.49219,-6.75488 0.33008,-2.39991 0.95215,-4.62793 1.87304,-6.68457 0.91797,-2.05713 2.18848,-3.75879 3.8125,-5.10694 1.625,-1.34863 3.75586,-2.02246 6.39258,-2.02246 1.74121,0 3.27149,0.35303 4.5918,1.06152 1.31738,0.70948 2.43555,1.66846 3.35449,2.88086 0.91797,1.21045 1.65918,2.59327 2.22363,4.14746 0.56641,1.55323 1.01368,3.2002 1.34473,4.9375 l 5.86133,-1.85205 c -0.47266,-2.23925 -1.14258,-4.37597 -2.0127,-6.41064 -0.87109,-2.03369 -1.99218,-3.82813 -3.35449,-5.38233 -1.36621,-1.55419 -3.01562,-2.7998 -4.94531,-3.7373 -1.93067,-0.93652 -4.16895,-1.4043 -6.70899,-1.4043 -3.76953,0 -6.87597,0.82276 -9.32324,2.46778 z"/><path id="path36" style="fill:#ef3032;fill-opacity:1;fill-rule:nonzero;stroke:none" d="m 421.00488,627.75537 h 6.0752 v -44.42773 h 19.70508 v -5.75977 h -25.78028 z"/><path id="path38" style="fill:#ef3032;fill-opacity:1;fill-rule:nonzero;stroke:none" d="m 469.53418,578.69971 c -2.12012,1.30224 -3.74414,2.99316 -4.87305,5.07324 -1.13086,2.0791 -1.86133,4.4331 -2.19043,7.06201 -0.33105,2.62695 -0.49511,5.29004 -0.49511,7.98682 v 28.93359 h 6.00488 v -29.55029 c 0,-1.82813 0.0693,-3.66895 0.21191,-5.52051 0.13965,-1.85107 0.5293,-3.5083 1.16602,-4.97021 0.63476,-1.46241 1.59961,-2.66163 2.89453,-3.59913 1.29492,-0.93798 3.07324,-1.40527 5.33301,-1.40527 2.44629,0 4.36621,0.42285 5.75586,1.26856 1.38867,0.84472 2.43554,1.97607 3.14355,3.39404 0.70801,1.41601 1.14258,3.06103 1.30762,4.93603 0.16211,1.87354 0.24512,3.83936 0.24512,5.89649 v 29.55029 h 6.07617 v -28.93359 c 0,-2.60596 -0.17676,-5.22266 -0.53028,-7.84961 -0.35253,-2.6294 -1.0957,-4.99463 -2.22656,-7.09668 -1.1289,-2.10303 -2.75293,-3.81738 -4.87207,-5.14258 -2.11816,-1.32422 -4.91992,-1.98779 -8.4043,-1.98779 -3.5791,0 -6.42968,0.65234 -8.54687,1.95459 z"/><path id="path40" style="fill:#ef3032;fill-opacity:1;fill-rule:nonzero;stroke:none" d="m 511.39258,577.56787 v 50.1875 h 15.39648 c 4.19043,0 7.51074,-1.15478 9.95996,-3.46338 2.44825,-2.30859 3.67188,-5.54199 3.67188,-9.6997 0,-2.01221 -0.39942,-3.9209 -1.20117,-5.72608 -0.80078,-1.80517 -2.02344,-3.32617 -3.6709,-4.55859 2.39941,-1.09766 4.18945,-2.74414 5.36621,-4.9375 1.17871,-2.19287 1.76758,-4.54688 1.76758,-7.06153 0,-4.93603 -1.37989,-8.62793 -4.13282,-11.07275 -2.75683,-2.44531 -6.60546,-3.66797 -11.54882,-3.66797 h -15.6084 m 6.07324,44.35889 v -15.28858 h 8.26367 c 1.45899,0 2.74219,0.11475 3.84961,0.34229 1.10645,0.22949 2.02442,0.61767 2.75488,1.16553 0.7295,0.54834 1.27051,1.30175 1.625,2.26269 0.35254,0.95996 0.52832,2.19385 0.52832,3.70313 0,1.64502 -0.20019,2.98144 -0.5996,4.00976 -0.4004,1.0293 -0.98926,1.81738 -1.76758,2.36572 -0.77539,0.54786 -1.75196,0.92579 -2.92774,1.13135 -1.17871,0.20557 -2.54394,0.30811 -4.09765,0.30811 h -7.62891 m 0,-21.18555 v -17.41357 h 9.60645 c 3.10937,0 5.44921,0.66259 7.02734,1.98779 1.57617,1.32471 2.36719,3.56543 2.36719,6.71924 0,3.24414 -0.89649,5.50732 -2.68555,6.78711 -1.78809,1.27929 -4.28418,1.91943 -7.48535,1.91943 z"/><path id="path42" style="fill:#ef3032;fill-opacity:1;fill-rule:nonzero;stroke:none" d="m 297.3501,464.03271 c 12.89209,-0.0195 23.69189,1.08399 31.07959,4.33497 13.94043,6.13427 19.94629,15.21923 19.94629,25.56298 v 48.76172 H 314.0957 v -48.02295 c 0,-9.60449 -7.38769,-11.82129 -16.7456,-11.82177 h 0.005 c -9.35742,4.8e-4 -16.7456,2.21728 -16.7456,11.82177 v 48.02295 h -34.28125 v -48.76172 c 0,-10.34375 6.00634,-19.42871 19.94873,-25.56298 7.38818,-3.25098 18.18652,-4.3545 31.07812,-4.33497 z"/><path id="path44" style="fill:#ef3032;fill-opacity:1;fill-rule:nonzero;stroke:none" d="m 314.49609,395.66895 v -57.72754 h -34.28173 v 57.62793 l 4.8e-4,0.68945 h -32.80273 v 19.30859 h 99.88086 v -19.30859 h -32.79688 z"/><path id="path46" style="fill:#ef3032;fill-opacity:1;fill-rule:nonzero;stroke:none" d="m 307.05859,240.66406 h -19.40625 l 0.21338,0.48633 9.48926,21.13672 9.50732,-21.17773 0.19629,-0.44532 M 239.9751,212.04785 h 34.82275 l 5.58008,12.42676 0.37891,0.9209 h 33.19726 l 0.1211,-0.35547 5.833,-12.99219 h 34.7793 l -0.3125,0.60547 -41.09082,75.31152 -0.31543,0.52637 h -31.27637 l -0.28174,-0.54492 -41.08886,-75.30957 z"/></g></svg>