<svg xmlns="http://www.w3.org/2000/svg" xmlns:xlink="http://www.w3.org/1999/xlink" version="1.1" id="Lager_1" x="0px" y="0px" viewBox="0 0 150 150" style="enable-background:new 0 0 150 150;" xml:space="preserve">
<style type="text/css">
	.st0{fill:#C5B98E;}
	.st1{fill:#FFFFFF;}
	.st2{fill:#009045;}
	.st3{fill:#C5452E;}
</style>
<g>
	<path class="st0" d="M24.4,14.4c14.9-1.7,33.7-9.5,50.9-10c16.7-0.5,35.6,7.7,50.2,10c2.6,0.4,4.9,2.2,4.9,4.9v109.8   c0,2.8-4.6,5-4.9,5.1c-50.5,7.6-50.5,11.4-50.5,11.4s-0.2-3.7-51.1-11.4c-0.4-0.1-4.4-2.3-4.4-5.1V19.3   C19.5,16.6,21.8,14.8,24.4,14.4z"/>
	<path class="st1" d="M25.8,15.8C40.3,14.1,58.6,6.5,75.4,6c16.2-0.5,34.8,7.4,48.8,9.8c2.6,0.4,4.9,2.1,4.9,4.8v107.5   c0,2.6-4.6,4.7-4.9,4.8c-49.2,7.5-49.2,11.2-49.2,11.2s-0.1-3.7-49.9-11.1c-0.4-0.2-4.2-2.3-4.2-4.9V20.6   C21,17.9,23.2,16,25.8,15.8z"/>
	<polygon class="st2" points="21,17.5 75.5,74.3 21,131.2  "/>
	<polygon class="st2" points="129.1,17.5 74.7,74.3 129.1,131.2  "/>
	<polygon class="st0" points="129.4,130.6 128.1,131.9 21,18 22.4,16.6  "/>
	<polygon class="st0" points="20.9,130.7 22.2,131.9 129.3,18.9 128,17.6  "/>
	<path class="st0" d="M75.4,46.2c15.5,0,28.2,12.7,28.2,28.2c0,15.5-12.7,28.2-28.2,28.2c-15.5,0-28.2-12.7-28.2-28.2   C47.1,58.9,59.8,46.2,75.4,46.2z"/>
	<path class="st3" d="M75.7,49.1c14.1,0,25.6,11.5,25.6,25.4c0,14-11.6,25.4-25.6,25.4c-14.1,0-25.6-11.5-25.6-25.4   C50.1,60.6,61.6,49.1,75.7,49.1z"/>
	<path class="st0" d="M75.7,48.6c10.9,0,19.9,11.7,19.9,25.9c0,14.3-9,25.9-19.9,25.9c-10.9,0-19.9-11.7-19.9-25.9   C55.8,60.3,64.7,48.6,75.7,48.6z"/>
	<path class="st3" d="M75.7,51.5c9.4,0,17.1,10.3,17.1,22.9c0,12.6-7.7,22.9-17.1,22.9c-9.4,0-17.1-10.3-17.1-22.9   C58.6,61.8,66.3,51.5,75.7,51.5z"/>
	<path class="st0" d="M75.5,49.7c3.2,0.4,11.9,10.2,11.5,24c-0.3,13.6-11,26.6-11.1,26.4c-1-0.2-11.5-12.5-11.5-26.4   C64.3,59.5,73.1,49.9,75.5,49.7z"/>
	<path class="st3" d="M75.5,51.5c0.7,0,8.7,8.4,8.7,21.7c0,13.1-8.7,24.1-8.7,24.1c0.2-0.1-8.6-10.9-8.6-24.1   C66.8,60,75.3,51.7,75.5,51.5z"/>
	<path class="st0" d="M75.5,97c3.9,0,7,1.2,7,2.7c0,1.5-3.1,2.7-7,2.7c-3.9,0-7-1.2-7-2.7C68.5,98.3,71.6,97,75.5,97z"/>
	<path class="st0" d="M75.4,46.6c3.9,0,7,1.1,7,2.5c0,1.4-3.1,2.5-7,2.5c-3.9,0-7-1.1-7-2.5C68.4,47.8,71.5,46.6,75.4,46.6z"/>
	<path class="st3" d="M75.6,46.8c2.8,0,5.1,0.4,5.1,0.9c0,0.5-2.3,0.9-5.1,0.9c-2.8,0-5.1-0.4-5.1-0.9   C70.5,47.3,72.8,46.8,75.6,46.8z"/>
	<path class="st3" d="M75.6,99.7c2.8,0,5.1,0.5,5.1,1.1c0,0.6-2.3,1.1-5.1,1.1c-2.8,0-5.1-0.5-5.1-1.1   C70.5,100.3,72.8,99.7,75.6,99.7z"/>
	<path class="st0" d="M83.3,20.4L83.3,20.4c0.2-0.5,0.4-1,0.5-1.4c0.1-0.3,0.1-0.6,0.1-0.9c0-0.5-0.2-0.9-0.7-1.2   c-0.5-0.3-1.2-0.5-2.1-0.5L81,15.5h8.2v0.8c-2,0.3-3.5,1.8-4.8,4.4l0,0l-9.8,20.8h-0.9l-9.6-20.3v-0.1c-1.5-3.1-3-4.8-4.6-4.8H59   v-0.8h12.2v0.8c-1,0.1-1.9,0.2-2.3,0.4c-0.5,0.2-0.7,0.4-0.7,0.7c0,0.2,0.1,0.5,0.2,0.9c0.1,0.4,0.4,0.9,0.6,1.6l7.2,15.3   L83.3,20.4z"/>
	<g>
		<g>
			<path class="st0" d="M26.1,67.8V65c0-0.9-0.2-1.7-0.6-2c-0.4-0.3-1.2-0.5-2.6-0.5v-0.8h11.6c3,0,5.4,0.6,7.3,1.7     c1.6,1.1,2.4,2.6,2.5,4.5H39l0,0c0-1.9-0.5-3.3-1.4-4.1c-0.8-0.8-2.3-1.3-4.3-1.3c-1.1,0-1.8,0.2-2,0.4c-0.3,0.3-0.5,0.8-0.5,1.6     v3.3H26.1z"/>
			<path class="st0" d="M26.1,80.2V67.8h4.8v5.4h2.4c2.1,0,3.4-0.4,4.4-1.2c0.8-0.8,1.4-2.3,1.4-4.2h5.2c0,0.1,0,0.1,0,0.2     c0,1.2-0.4,2.4-1.4,3.3c-1,0.9-2.6,1.7-4.6,2.3v0.3c2.4,0.4,4.3,1.1,5.4,2.4c1.1,1,1.8,2.3,2,3.9h-5.4c0-2-0.6-3.4-1.7-4.5     c-1.1-1.1-2.9-1.7-5.1-1.7h-2.6v6.1H26.1z"/>
			<path class="st0" d="M26.1,80.2V84c0,0.9-0.2,1.7-0.6,2c-0.4,0.3-1.2,0.4-2.6,0.4v0.8h13c3.1,0,5.5-0.5,7.3-1.7     c1.6-1.1,2.5-2.7,2.5-4.7c0-0.2,0-0.5,0-0.7h-5.4v0.1c0,2.2-0.5,3.9-1.4,4.8c-0.9,0.8-2.6,1.4-4.7,1.4c-1.4,0-2.3-0.2-2.7-0.7     c-0.3-0.5-0.6-1.7-0.6-3.6v-1.9H26.1z"/>
		</g>
	</g>
	<path class="st0" d="M121.9,61.5v0.8h-0.4c-1.4,0-2.2,0.1-2.6,0.4c-0.4,0.3-0.6,1-0.6,2.1v19.1c0,1,0.2,1.7,0.6,2   c0.4,0.3,1.2,0.5,2.6,0.5h0.4v0.8h-12.2v-0.8h0.3c1.4,0,2.3-0.1,2.6-0.4c0.4-0.3,0.6-1,0.6-2.1V64.9c0-1-0.2-1.8-0.5-2.1   c-0.4-0.3-1.4-0.4-2.7-0.4v-0.8H121.9z"/>
	<path class="st0" d="M67.1,125.5h0.7c1,2.9,2.3,5.1,3.6,6.4c1.4,1.3,3.1,1.9,5,1.9c1.6,0,2.8-0.4,3.7-1.1c0.9-0.8,1.4-2,1.4-3.3   c0-1.2-0.4-2.4-1.4-3.2c-0.9-0.8-2.7-1.8-5.3-2.8c-2.9-1-4.9-2.3-6.1-3.4c-1.1-1.2-1.7-2.8-1.7-4.7c0-2.2,0.6-4,2.1-5.2   c1.4-1.2,3.3-1.9,5.7-1.9c1.8,0,3.5,0.3,5.4,0.8c0.4,0.2,0.7,0.2,0.8,0.2c0.2,0,0.5,0,0.8-0.2c0.3-0.2,0.7-0.4,1.1-0.7h0.6v8.3   h-0.7c-0.8-2.5-2-4.4-3.4-5.6c-1.4-1.4-2.9-2-4.8-2c-1.1,0-2.2,0.3-3,0.9c-0.7,0.7-1.1,1.6-1.1,2.6c0,1,0.4,2,1.1,2.7   c0.7,0.7,2.4,1.6,4.9,2.5c1.8,0.7,3,1.2,3.9,1.7c0.8,0.4,1.6,0.8,2,1.2c1.1,0.8,2,1.8,2.4,2.8c0.5,1,0.8,2.2,0.8,3.4   c0,2.4-0.9,4.4-2.6,5.7c-1.7,1.5-4.1,2.1-7.1,2.1c-1.8,0-3.5-0.3-5.4-0.8c-0.5-0.1-0.7-0.2-0.8-0.2c-0.3,0-0.5,0.1-0.9,0.2   c-0.3,0.2-0.7,0.4-1.1,0.7h-0.6V125.5z"/>
	<g>
		<g>
			<path class="st0" d="M70.5,71.4c0-0.6,0.4-1.1,1-1.7c0.6-0.5,1.5-0.7,2.4-0.7c0.8,0,1.6,0.2,2.1,0.6c0.6,0.4,0.8,0.9,0.8,1.6     c0,0.1,0,0.1,0,0.2h-1.5c0,0,0-0.1,0-0.2c0-0.4-0.1-0.8-0.3-1.1c-0.3-0.2-0.6-0.4-1.1-0.4c-0.5,0-0.8,0.2-1,0.5     c-0.4,0.2-0.5,0.6-0.5,1c0,0.1,0,0.1,0,0.2H70.5z"/>
			<path class="st0" d="M68,77.1c0.1-0.7,0.3-1.2,0.9-1.9c0.6-0.6,1.6-1,2.8-1.4c-0.3-0.4-0.7-0.9-0.9-1.2c-0.1-0.4-0.3-0.8-0.3-1.1     v-0.1h1.9c0,0.3,0.1,0.6,0.3,0.9c0.2,0.3,0.5,0.6,1,0.9c0.4-0.2,0.9-0.5,1.4-0.8c0.2-0.3,0.3-0.6,0.3-1h1.5     c-0.1,0.5-0.3,1-0.6,1.4c-0.3,0.4-1,0.8-1.9,1.1c0.9,0.7,1.7,1.4,2.3,2c0.5,0.4,0.8,0.8,1.1,1.2h-2.1c-0.4-0.3-0.7-0.7-1-1     c-0.6-0.6-1.4-1.2-2.1-1.8c-0.8,0.2-1.6,0.6-1.9,1c-0.4,0.4-0.6,0.9-0.6,1.7v0.1H68z"/>
			<path class="st0" d="M78.1,77.1c0.2-0.3,0.3-0.7,0.4-1c0.3-0.5,0.4-0.9,0.4-1.2s-0.1-0.6-0.4-0.7c-0.2-0.2-0.5-0.3-1.1-0.4v-0.6     h4.6v0.5c-0.5,0.1-0.9,0.3-1.2,0.4c-0.3,0.2-0.5,0.5-0.7,0.9c0,0.1-0.1,0.3-0.2,0.5c-0.2,0.6-0.4,1.1-0.6,1.7H78.1z"/>
			<path class="st0" d="M68,77.1c0,0.1,0,0.1,0,0.2c0,0.9,0.5,1.8,1.5,2.5c0.9,0.6,2.2,0.9,3.5,0.9c0.8,0,1.6-0.1,2.3-0.3     c0.7-0.2,1.5-0.5,2.1-0.9c0.2,0.4,0.7,0.7,1.4,0.8c0.4,0.2,1.1,0.3,2.2,0.3c0.2,0,0.4,0,0.5,0c0.3,0,0.5,0,0.9-0.1v-0.4     c-0.2,0-0.2,0-0.3,0c-0.1,0-0.1,0-0.2,0c-0.7,0-1.4-0.2-1.9-0.5c-0.5-0.2-1-0.7-1.6-1.4c0.3-0.3,0.5-0.7,0.7-1.1h-1     c0,0.1-0.1,0.2-0.1,0.3c-0.1-0.1-0.1-0.2-0.2-0.3h-2.1c0.3,0.5,0.7,1,1.1,1.6l0,0c-0.5,0.4-1,0.7-1.6,1c-0.6,0.2-1.3,0.3-1.9,0.3     c-1,0-1.9-0.3-2.5-0.8c-0.6-0.6-0.8-1.2-0.8-2.1H68z"/>
		</g>
	</g>
</g>
</svg>