<svg xmlns="http://www.w3.org/2000/svg" xmlns:cc="http://creativecommons.org/ns#" xmlns:dc="http://purl.org/dc/elements/1.1/" xmlns:rdf="http://www.w3.org/1999/02/22-rdf-syntax-ns#" xmlns:xlink="http://www.w3.org/1999/xlink" width="550px" height="550px" version="1.2" viewBox="0 0 82.167 82.171">
 <g transform="translate(-20.466 -19.364)">
  <path d="m61.547 100.7c22.227 0 40.246-18.02 40.246-40.246 0-22.227-18.02-40.246-40.246-40.246s-40.246 18.02-40.246 40.246c0 22.227 18.02 40.246 40.246 40.246" fill="#fff" fill-rule="evenodd"/>
  <path d="m84.031 27.934-46.418 64.34c-3.0078-1.9727-4.5273-3.4453-6.7852-6.2461-1.4375-1.7812-2.1953-2.8555-3.2578-4.8867-0.82812-1.582-1.1289-2.5586-1.7773-4.2266-1.5156-3.9023-2.3789-6.1602-3.0859-10.289-0.71094-4.1562-0.91406-6.6055-0.51562-10.805 0.40234-4.2148 0.86719-6.6719 2.5742-10.547 1.3789-3.1328 2.6836-4.6406 4.6289-7.4609 2.1562-3.1211 3.1641-5.1094 5.918-7.7148 3.1523-2.9844 5.2695-4.4688 9.2578-6.1758 3.7812-1.6172 6.2031-1.8438 10.289-2.3125 6.1562-0.70703 9.8398-0.78906 15.871 0.625 5.4961 1.2891 8.5742 2.6172 13.301 5.6992" fill="#00a668"/>
  <path d="m21.938 60.449c0-21.879 17.734-39.613 39.613-39.613 21.875 0 39.609 17.734 39.609 39.613 0 21.879-17.734 39.613-39.609 39.613-21.879 0-39.613-17.734-39.613-39.613z" fill="none" stroke="#211e1e" stroke-miterlimit="3.864" stroke-width="2.944"/>
  <g fill="#fff">
   <path d="m49.016 29.605 1.6797 5.8672 1.957-0.55859-2.1562-7.5234-3.0352 0.87109 0.47656 1.6523"/>
   <path d="m58.137 34.039 1.4727-2.3281c0.59375-0.94922 1.0781-2.0859 0.98047-3.2109-0.07031-0.81641-0.55859-1.6094-1.2344-2.0625-0.64062-0.43359-1.5273-0.54297-2.2812-0.47656-1.7773 0.15625-3.2617 1.3281-3.0938 3.2422 0.125 1.4375 1.2148 2.6641 2.7461 2.5312 0.41016-0.03906 0.73438-0.14844 1.0742-0.33594l0.02344 0.01953-1.9961 2.8203zm-0.91016-6.4766c0.71094-0.0625 1.3398 0.45703 1.4023 1.168 0.0625 0.71484-0.46484 1.3359-1.1797 1.3984-0.71484 0.0625-1.3008-0.46094-1.3633-1.1719-0.0625-0.71484 0.42578-1.332 1.1406-1.3945" fill-rule="evenodd"/>
   <path d="m64.445 27.816-0.53125 6.0781 2.0273 0.17969 0.67969-7.7969-3.1406-0.27734-0.15234 1.7188"/>
   <path d="m71.391 35.148 2.1523-1.7188c0.87109-0.70313 1.6992-1.6211 1.9727-2.7188 0.19922-0.79688-0.0039-1.7031-0.49609-2.3477-0.46484-0.62109-1.2656-1.0117-2-1.1953-1.7344-0.43359-3.5156 0.19141-3.9805 2.0547-0.34766 1.4023 0.27734 2.918 1.7695 3.2891 0.40234 0.10156 0.74609 0.10156 1.125 0.03516l0.01563 0.02344-2.8047 2.0195zm1.25-6.418c0.69531 0.17188 1.1211 0.86719 0.94531 1.5625-0.17188 0.69531-0.875 1.1094-1.5703 0.9375-0.69531-0.17578-1.0781-0.85938-0.90625-1.5547 0.17188-0.69531 0.83594-1.1172 1.5312-0.94531" fill-rule="evenodd"/>
  </g>
  <g fill="#211e1e">
   <path d="m45.875 85.836-1.4688-0.84766-3.2617 5.6484 3.2305 1.8633 0.71875-1.2422-1.7617-1.0195"/>
   <path d="m51.105 85.656c-0.44922-0.16406-0.9375 0.0625-1.0977 0.50391-0.16016 0.44531 0.07031 0.92578 0.51563 1.0859 0.44141 0.16016 0.92578-0.05859 1.0859-0.50391 0.16016-0.44141-0.06641-0.92578-0.50391-1.0859zm2.0781 0.75781c-0.44531-0.16406-0.93359 0.0625-1.0938 0.5-0.16406 0.44922 0.06641 0.92969 0.51562 1.0898 0.4375 0.16016 0.92188-0.05859 1.0859-0.50391 0.16016-0.44141-0.06641-0.92578-0.50781-1.0859zm-0.80859 2.3477-1.1719 3.2266c-0.28906 0.79688-0.66406 1.6445-1.6875 1.2734-1.0273-0.375-0.76562-1.2656-0.47656-2.0625l1.1758-3.2266-1.5938-0.57812-1.2539 3.4453c-0.28906 0.78906-0.53906 1.582-0.14453 2.3945 0.32812 0.69141 1.0664 1.1641 1.7812 1.4258 0.71484 0.25781 1.5859 0.37109 2.2812 0.05469 0.82812-0.37109 1.1445-1.1406 1.4297-1.9297l1.2539-3.4453" fill-rule="evenodd"/>
   <path d="m56.535 93.695 0.17188 0.02344c0.54688 0.07813 1.3906 0.11719 1.2812 0.89844-0.10156 0.71094-0.9375 0.56641-1.4336 0.49609l-0.21484-0.03125zm0.53125 2.8008c1.1836 0.16406 2.4023-0.11719 2.5938-1.4727 0.125-0.89844-0.17969-1.5781-1.0898-1.8281l0.0039-0.01562c0.55859-0.19531 0.81641-0.64063 0.89453-1.2227 0.17578-1.2305-0.53125-1.7852-1.6797-1.9453l-2.3984-0.33984-0.91016 6.4609zm-0.17969-5.3008 0.12109 0.01563c0.45313 0.0625 0.97266 0.17187 0.88672 0.76172-0.07422 0.54688-0.55078 0.5625-0.99219 0.5l-0.19141-0.02734" fill-rule="evenodd"/>
   <g>
    <path d="m65.477 91.508-0.07812-1.4375-3.7031 0.19531 0.33984 6.5156 3.707-0.19531-0.07422-1.4336-2.0156 0.10547-0.05859-1.125 1.9102-0.09766-0.07422-1.4336-1.9102 0.09766-0.05859-1.0898"/>
    <path d="m71.609 88.934c-0.53516-0.08984-1.0508-0.09375-1.582 0.02734-0.89453 0.20703-1.707 0.80078-2.1836 1.5859-0.46094 0.76562-0.59766 1.6758-0.39844 2.543 0.21875 0.94531 0.73047 1.6953 1.5742 2.168 0.79688 0.44531 1.7188 0.58984 2.6016 0.38281 0.51562-0.11719 0.88281-0.33594 1.3906-0.62891l-0.45703-1.9805c-0.25 0.49219-0.73047 0.875-1.2695 1-1.0273 0.23828-1.8867-0.32812-2.1172-1.3281-0.22656-0.98828 0.27734-1.9219 1.2852-2.1562 0.56641-0.12891 1.1719-0.01172 1.6133 0.36719"/>
    <path d="m75.617 90.035-0.01172 0.0078-1.1406-2.4375-1.5352 0.71875 2.7578 5.9102 1.5352-0.71484-1.1953-2.5664 0.01563-0.0078 3.1797 1.6406 1.9922-0.92969-4.0156-1.918 1.0469-3.8945-1.9062 0.89062"/>
    <path d="m35.129 38.375c1.2852 0 5.125 3.0352 5.6094 3.0352 0.70703 0 3.5117-2.7461 5.1406-2.957l7.4766 3.6602v13.633l0.07813 0.15625h0.15625l1.8711-4.7539h2.2578v-3.8164c0-0.63672-2.3359-1.207-2.3359-1.9492 0-0.37891 2.3047-2.7578 3.0391-3.3477 1.6094-1.3164 3.0977-3.1953 3.8945-3.1953 1.1211 0 10.047 4.5195 10.047 4.5195l4.9062-3.0391c0.54688 0.07031 0.95312 0.30469 3.9727 1.8711v1.6367c0.82031-0.27344 2.5273-3.1953 3.1172-3.1953 0 0 5.6328 2.4844 8.5703 4.4414v12.852c0 1.418-2.4336 2.4297-2.9609 2.9609 0.46875 0.60547 3.4258 1.5742 3.4258 2.6484v11.996c0 0.46094-0.07031 0.94141-5.2188 3.0391-4.9531 2.0156-5.0156 2.3359-5.6094 2.3359-1.3633 0-10.848-3.9727-11.996-3.9727-0.48047 0-2.7734 2.1016-3.2695 2.1016-0.35156 0-0.54688-0.43359-0.54688-0.69922 0-0.45313 6-4.3711 6-5.4531v-27.809h-0.46875c-4.2617 5.3281-4.832 5.375-4.832 6.1523 0 0.08594 0.01172 0.14844 0 0.23438h2.7305v0.39062l-3.0391 7.7891h-2.0273v20.332c0 0.61328-2.6328 2.8359-3.5039 3.3477-3.0781 1.8164-3.2578 2.8828-3.9727 2.8828-0.21875 0-0.54688-0.19531-0.54688-0.46875 0-0.80859 1.3281-1.1914 1.3281-1.8672v-23.527h-4.9883v12.152c-0.93359 0.625-2.1016 2.1602-5.0625 4.6758-3.3438 2.8359-3.6367 3.9727-4.6758 3.9727-0.14062 0-2.0078-0.8125-5.9961-2.8828-5.0078-2.6016-5.5312-2.6406-5.5312-3.2734v-26.406c0-0.74609-2.8828-1.8672-2.8828-2.8047 0-0.46484 0.54688-1.6523 2.6484-3.9727 1.7539-1.9297 2.1055-3.4258 3.1953-3.4258"/>
   </g>
  </g>
  <path d="m35.129 38.375c1.2852 0 5.125 3.0391 5.6094 3.0391 0.70703 0 3.5117-2.75 5.1406-2.9609l7.4766 3.6602v13.633l0.07813 0.15625h0.15625l1.8711-4.75h2.2578v-3.8203c0-0.63672-2.3359-1.207-2.3359-1.9453 0-0.38281 2.3047-2.7578 3.0391-3.3516 1.6094-1.3164 3.0977-3.1914 3.8945-3.1914 1.1211 0 10.047 4.5156 10.047 4.5156l4.9062-3.0352c0.54687 0.07031 0.95312 0.30078 3.9727 1.8672v1.6367c0.82031-0.27344 2.5234-3.1953 3.1172-3.1953 0 0 5.6328 2.4844 8.5703 4.4414v12.852c0 1.418-2.4336 2.4336-2.9609 2.9609 0.46875 0.60938 3.4258 1.5742 3.4258 2.6484v11.996c0 0.46094-0.07031 0.94531-5.2188 3.0391-4.9531 2.0195-5.0156 2.3359-5.6094 2.3359-1.3633 0-10.848-3.9727-11.996-3.9727-0.48047 0-2.7695 2.1016-3.2695 2.1016-0.35156 0-0.54688-0.43359-0.54688-0.69922 0-0.44922 6-4.3672 6-5.4531v-27.809h-0.46875c-4.2617 5.3281-4.832 5.375-4.832 6.1523 0 0.08594 0.01172 0.14844 0 0.23438h2.7305v0.39062l-3.0391 7.7891h-2.0273v20.332c0 0.61719-2.6328 2.8359-3.5039 3.3477-3.0781 1.8164-3.2578 2.8828-3.9727 2.8828-0.21875 0-0.54688-0.19531-0.54688-0.46875 0-0.80859 1.3281-1.1875 1.3281-1.8672v-23.523h-4.9883v12.148c-0.93359 0.625-2.1016 2.1602-5.0625 4.6758-3.3438 2.8359-3.6367 3.9727-4.6758 3.9727-0.13672 0-2.0078-0.80859-5.9961-2.8828-5.0078-2.6016-5.5312-2.6406-5.5312-3.2695v-26.41c0-0.74609-2.8828-1.8672-2.8828-2.8008 0-0.46875 0.54688-1.6523 2.6484-3.9766 1.7539-1.9297 2.1055-3.4258 3.1953-3.4258z" fill="none" stroke="#fff" stroke-miterlimit="3.864" stroke-width=".433"/>
  <path d="m41.75 48.035c0.60938 0 1.5742 0.76172 2.1797 0.85547v22.281c-0.14063 0.11328-0.17188 0.12891-0.23047 0.38672h-0.625c-0.08594-0.07031-0.91797-0.53516-1.8711-1.168v-21.656c0-0.42578 0.14844-0.69922 0.54688-0.69922" fill="#00a668"/>
  <path d="m41.75 48.035c0.60547 0 1.5742 0.76172 2.1797 0.85547v22.281c-0.14062 0.11328-0.17188 0.12891-0.23438 0.38672h-0.62109c-0.08594-0.07031-0.92188-0.53516-1.8711-1.168v-21.656c0-0.42578 0.14844-0.69922 0.54688-0.69922z" fill="none" stroke="#fff" stroke-miterlimit="3.864" stroke-width=".433"/>
  <path d="m81.164 48.891h0.39063c0.0078 0 1.8867 1.1523 3.1953 2.0273v7.5547s-2.5859 2.1484-3.5859 2.6484" fill="#fff"/>
  <path d="m81.164 48.891h0.39063c0.0078 0 1.8867 1.1523 3.1953 2.0273v7.5547s-2.5859 2.1484-3.5859 2.6484z" fill="none" stroke="#fff" stroke-miterlimit="3.864" stroke-width=".866"/>
  <path d="m81.164 65.094h0.46875s1.293 0.49609 3.3516 1.2461v8.5664h-0.9375c-0.41016-0.35547-1.2227-0.49609-2.8828-1.3242" fill="#fff"/>
  <path d="m81.164 65.094h0.46875s1.293 0.5 3.3516 1.2461v8.5703h-0.9375c-0.41016-0.35938-1.2227-0.5-2.8828-1.3242z" fill="none" stroke="#fff" stroke-miterlimit="3.864" stroke-width=".866"/>
 </g>
</svg>