<svg xmlns="http://www.w3.org/2000/svg" xmlns:xlink="http://www.w3.org/1999/xlink" id="Ebene_2_1_" width="170" height="179" version="1.1" viewBox="0 0 170 179" xml:space="preserve">
<style type="text/css">
	.st0{clip-path:url(#SVGID_2_);}
	.st1{clip-path:url(#SVGID_4_);fill:#005BA4;}
	.st2{clip-path:url(#SVGID_4_);fill:#FFFFFF;}
	.st3{clip-path:url(#SVGID_4_);fill-rule:evenodd;clip-rule:evenodd;fill:#005BA4;}
</style>
<g transform="matrix(1.6009 0 0 1.6009 1.732 1.732)">
	<defs>
		<rect id="SVGID_1_" width="104.1" height="109.9"/>
	</defs>
	<clipPath id="SVGID_2_">
		<use width="100%" height="100%" xlink:href="#SVGID_1_"/>
	</clipPath>
	<g class="st0" clip-path="url(#SVGID_2_)">
		<defs>
			<rect id="SVGID_3_" width="104.1" height="109.9"/>
		</defs>
		<clipPath id="SVGID_4_">
			<use width="100%" height="100%" xlink:href="#SVGID_3_"/>
		</clipPath><g shape-rendering="optimizeQuality">
		<path class="st1" d="m52.1 0c-17.8 0-37.3 5.2-52.1 13.6 1.5 53.3 30.4 81.5 52.1 96.3 21.6-14.8 50.5-43 52.1-96.3-14.9-8.4-34.4-13.6-52.1-13.6" clip-path="url(#SVGID_4_)"/>
		<path class="st2" d="m52.1 6.2c-5.2 0-10.5 0.5-15.9 1.4 2.5 30.2 15.3 54.9 38.2 73.5 14.2-17.7 22-39.1 23.4-63.9-13.7-6.9-30.6-11-45.7-11" clip-path="url(#SVGID_4_)"/>
		<path class="st2" d="m52.1 4.1c16 0 33.8 4.4 47.9 11.9-1.7 37.6-17.8 67.5-47.9 89-30.1-21.6-46.2-51.5-47.9-89 14.1-7.5 31.9-11.9 47.9-11.9m0-1.9c-16.8 0-35.3 4.7-49.9 12.7 1.5 39.2 18.3 70.3 49.9 92.5 31.6-22.2 48.4-53.3 49.9-92.5-14.7-8-33.2-12.7-49.9-12.7" clip-path="url(#SVGID_4_)"/>
		<path class="st3" d="m46.7 30.2c0.3 0 0.6-0.1 0.7-0.1 0.2-0.1 0.4-0.4 0.4-0.7v-6c0-0.4-0.1-0.6-0.3-0.7-0.1-0.1-0.4-0.1-0.7-0.1v-0.3h3.8c0.7 0 1.3 0.1 1.8 0.3 0.9 0.3 1.4 0.9 1.4 1.7 0 0.5-0.2 0.9-0.6 1.2s-0.8 0.5-1.2 0.6v-0.1c0.5 0.1 0.9 0.2 1.2 0.4 0.7 0.4 1 1 1 1.7s-0.3 1.2-0.9 1.7c-0.6 0.4-1.5 0.6-2.5 0.6h-4v-0.2zm4.6-4.7c0.3-0.2 0.4-0.7 0.4-1.3 0-0.5-0.1-0.9-0.3-1.2s-0.5-0.5-1-0.5c-0.3 0-0.4 0-0.5 0.1s-0.2 0.2-0.2 0.5v2.8c0.8 0 1.3-0.1 1.6-0.4m-1.5 4.3c0.1 0.2 0.3 0.3 0.6 0.3 0.6 0 1-0.2 1.2-0.5s0.4-0.8 0.4-1.4c0-0.9-0.3-1.5-0.8-1.8-0.3-0.2-0.8-0.3-1.5-0.2v3.1c0 0.3 0.1 0.4 0.1 0.5" clip-path="url(#SVGID_4_)"/>
		<path class="st3" d="m55.8 25.5c0.5-0.6 1.2-0.9 2-0.9s1.5 0.3 2 0.9 0.8 1.3 0.8 2.1-0.3 1.5-0.8 2.1-1.2 0.9-2 0.9-1.5-0.3-2-0.9-0.8-1.3-0.8-2.2c0-0.7 0.2-1.4 0.8-2m1.1 4c0.1 0.5 0.4 0.8 0.8 0.8s0.7-0.2 0.8-0.6 0.2-1.1 0.2-2-0.1-1.6-0.2-2-0.4-0.6-0.8-0.6-0.7 0.3-0.8 0.8c-0.1 0.4-0.1 1-0.1 1.8s0 1.4 0.1 1.8" clip-path="url(#SVGID_4_)"/>
		<path class="st1" d="m65.7 25c0.4 0.3 0.6 0.6 0.6 1 0 0.2-0.1 0.4-0.2 0.6s-0.3 0.2-0.6 0.2c-0.2 0-0.3 0-0.4-0.1-0.2-0.1-0.3-0.4-0.3-0.7v-0.2-0.2c0-0.2-0.1-0.4-0.2-0.4-0.1-0.1-0.2-0.1-0.4-0.1-0.4 0-0.7 0.2-0.8 0.6-0.2 0.4-0.2 0.9-0.2 1.4 0 0.8 0.2 1.4 0.5 1.9s0.7 0.8 1.2 0.8c0.3 0 0.6-0.1 0.8-0.2 0.1-0.1 0.3-0.2 0.5-0.5l0.2 0.2c-0.4 0.6-0.9 0.9-1.4 1.2-0.3 0.1-0.6 0.2-0.9 0.2-0.8 0-1.4-0.3-1.9-0.9s-0.8-1.3-0.8-2.1c0-0.9 0.3-1.6 0.8-2.2s1.2-0.9 2.1-0.9c0.6 0 1 0.2 1.4 0.4" clip-path="url(#SVGID_4_)"/>
		<path class="st1" d="m67 30.2c0.2 0 0.4-0.1 0.5-0.2s0.2-0.3 0.2-0.6v-6.3c0-0.2 0-0.4-0.1-0.5s-0.3-0.2-0.5-0.2v-0.3h2.4v3.5c0.3-0.3 0.5-0.5 0.8-0.7s0.6-0.3 0.9-0.3c0.5 0 0.9 0.1 1.2 0.4s0.5 0.7 0.5 1.4v3c0 0.3 0 0.5 0.1 0.5 0.1 0.1 0.3 0.2 0.5 0.2v0.3h-2.9v-0.3c0.2 0 0.4-0.1 0.5-0.2s0.1-0.2 0.1-0.5v-3c0-0.3 0-0.5-0.1-0.6-0.1-0.3-0.3-0.4-0.6-0.4-0.2 0-0.4 0.1-0.7 0.3-0.2 0.2-0.3 0.3-0.3 0.4v3.3c0 0.3 0 0.4 0.1 0.5s0.2 0.1 0.5 0.2v0.3h-3v-0.2z" clip-path="url(#SVGID_4_)"/>
		<path class="st1" d="m76 24.8v4.2c0 0.2 0 0.4 0.1 0.5 0.1 0.2 0.3 0.3 0.6 0.3 0.2 0 0.4-0.1 0.6-0.2 0.1-0.1 0.2-0.2 0.4-0.3v-3.5c0-0.3-0.1-0.4-0.2-0.5s-0.3-0.2-0.6-0.2v-0.3h2.5v4.5c0 0.3 0 0.4 0.1 0.5s0.3 0.2 0.6 0.2v0.3c-0.8 0.1-1.2 0.1-1.4 0.2-0.2 0-0.5 0.1-1 0.3v-0.8c-0.3 0.3-0.5 0.4-0.7 0.5-0.3 0.2-0.7 0.3-1.1 0.3s-0.8-0.1-1.1-0.4-0.5-0.7-0.5-1.4v-3.1c0-0.3 0-0.4-0.1-0.5s-0.2-0.1-0.5-0.2v-0.3h2.3z" clip-path="url(#SVGID_4_)"/>
		<path class="st1" d="m80.9 30.2c0.2 0 0.4-0.1 0.5-0.1 0.1-0.1 0.2-0.3 0.2-0.6v-3.6c0-0.3 0-0.4-0.1-0.5s-0.3-0.2-0.5-0.2v-0.3h2.3v0.9c0.2-0.3 0.4-0.5 0.6-0.6 0.4-0.3 0.8-0.4 1.2-0.4 0.5 0 0.9 0.1 1.2 0.4 0.2 0.1 0.3 0.4 0.4 0.7h0.1c0.2-0.3 0.5-0.5 0.7-0.6 0.3-0.2 0.7-0.4 1.1-0.4s0.8 0.1 1.1 0.4 0.5 0.7 0.5 1.3v3.1c0 0.3 0 0.5 0.1 0.5 0.1 0.1 0.3 0.1 0.5 0.2v0.3h-2.9v-0.3c0.2 0 0.4-0.1 0.5-0.2s0.1-0.3 0.1-0.5v-3c0-0.3 0-0.6-0.1-0.7-0.1-0.2-0.3-0.3-0.5-0.3s-0.4 0.1-0.7 0.3c-0.2 0.2-0.4 0.3-0.4 0.4v3.3c0 0.3 0 0.4 0.1 0.5s0.2 0.1 0.5 0.2v0.3h-2.9v-0.3c0.2 0 0.4-0.1 0.5-0.2s0.1-0.3 0.1-0.5v-3c0-0.3 0-0.6-0.1-0.7-0.1-0.2-0.3-0.3-0.5-0.3-0.3 0-0.5 0.1-0.7 0.3s-0.3 0.3-0.3 0.4v3.3c0 0.3 0 0.4 0.1 0.5s0.2 0.1 0.5 0.2v0.3h-3v-0.5z" clip-path="url(#SVGID_4_)"/>
		<path class="st3" d="m57 45.3c0.6 0 1.1-0.1 1.2-0.3 0.2-0.2 0.3-0.5 0.3-1v-4.9c0-0.3 0-0.5-0.1-0.7-0.1-0.1-0.2-0.2-0.4-0.2-0.1 0-0.3 0-0.5 0.1-0.1 0-0.3 0.1-0.6 0.2v-0.3l3.2-1.4h0.2v7.2c0 0.5 0.1 0.8 0.2 0.9s0.5 0.2 1.1 0.2v0.3h-4.6z" clip-path="url(#SVGID_4_)"/>
		<path class="st3" d="m65.9 39.6c0.1-0.2 0.1-0.5 0.1-0.8 0-0.5-0.1-0.8-0.3-1.1s-0.5-0.4-0.9-0.4c-0.3 0-0.5 0.1-0.7 0.3s-0.3 0.4-0.3 0.7c0 0.5 0.2 0.9 0.7 1.3 0.3 0.2 0.6 0.5 0.9 0.6 0.3-0.2 0.4-0.4 0.5-0.6m-2.1 5c0.2 0.5 0.6 0.8 1.1 0.8 0.3 0 0.5-0.1 0.8-0.3 0.2-0.2 0.3-0.6 0.3-1.1s-0.2-0.9-0.5-1.3c-0.2-0.2-0.6-0.5-1.2-0.9-0.2 0.4-0.4 0.6-0.5 0.8-0.1 0.3-0.2 0.6-0.2 1s0.1 0.7 0.2 1m-1-2.5c0.3-0.2 0.6-0.4 1.1-0.6v-0.1c-0.1 0-0.3-0.2-0.6-0.4s-0.5-0.5-0.7-0.7-0.3-0.5-0.3-0.7c-0.1-0.2-0.1-0.4-0.1-0.6 0-0.6 0.3-1.1 0.8-1.6 0.5-0.4 1.2-0.6 2.1-0.6 0.8 0 1.4 0.2 1.8 0.5 0.4 0.4 0.6 0.8 0.6 1.3s-0.2 0.9-0.7 1.3c-0.2 0.2-0.6 0.4-1 0.5v0.1c0.6 0.4 1 0.8 1.2 1.1 0.4 0.5 0.6 1 0.6 1.6 0 0.8-0.3 1.4-0.8 1.9-0.6 0.5-1.3 0.7-2.2 0.7-0.6 0-1.3-0.2-1.8-0.5-0.6-0.4-0.8-0.9-0.8-1.6 0.1-0.7 0.3-1.2 0.8-1.6" clip-path="url(#SVGID_4_)"/>
		<path class="st3" d="m71.5 42.4v-3.6h-0.1l-2.4 3.4v0.1h2.5zm-3-0.3c0-0.1 0.2-0.2 0.3-0.5l1.3-1.9 1.7-2.3 0.5-0.7h1v5.5h0.8v1.4h-0.8v1.8h-1.8v-1.8h-3.2v-1.4c0.1 0.1 0.1 0 0.2-0.1" clip-path="url(#SVGID_4_)"/>
		<path class="st3" d="m78.6 39.6c0.1-0.2 0.1-0.5 0.1-0.8 0-0.5-0.1-0.8-0.3-1.1s-0.5-0.4-0.9-0.4c-0.3 0-0.5 0.1-0.7 0.3s-0.3 0.4-0.3 0.7c0 0.5 0.2 0.9 0.7 1.3 0.3 0.2 0.6 0.5 0.9 0.6 0.3-0.2 0.4-0.4 0.5-0.6m-2.1 5c0.2 0.5 0.6 0.8 1.1 0.8 0.3 0 0.5-0.1 0.8-0.3 0.2-0.2 0.3-0.6 0.3-1.1s-0.2-0.9-0.5-1.3c-0.2-0.2-0.6-0.5-1.2-0.9-0.2 0.4-0.4 0.6-0.5 0.8-0.1 0.3-0.2 0.6-0.2 1s0.1 0.7 0.2 1m-1-2.5c0.3-0.2 0.6-0.4 1.1-0.6v-0.1c-0.1 0-0.3-0.2-0.6-0.4s-0.5-0.5-0.7-0.7-0.3-0.5-0.3-0.7c-0.1-0.2-0.1-0.4-0.1-0.6 0-0.6 0.3-1.1 0.8-1.6 0.5-0.4 1.2-0.6 2.1-0.6 0.8 0 1.4 0.2 1.8 0.5 0.4 0.4 0.6 0.8 0.6 1.3s-0.2 0.9-0.7 1.3c-0.2 0.2-0.6 0.4-1 0.5v0.1c0.6 0.4 1 0.8 1.2 1.1 0.4 0.5 0.6 1 0.6 1.6 0 0.8-0.3 1.4-0.8 1.9-0.6 0.5-1.3 0.7-2.2 0.7-0.6 0-1.3-0.2-1.8-0.5-0.6-0.4-0.8-0.9-0.8-1.6 0.1-0.7 0.3-1.2 0.8-1.6" clip-path="url(#SVGID_4_)"/>
		<path class="st2" d="m20.8 20.8h-13v0.5s0 0.3 0.4 0.3 1.8 0.3 2.4 1.7 10.7 24.2 10.7 24.2 0.2 0.1 0.5 0.1 0.4-0.1 0.4-0.1l9.2-23.1s0.7-1.4 1.4-2.2c0.5-0.6 1-0.5 1.4-0.6s0.5-0.3 0.5-0.4v-0.4h-8.1v0.3c0 0.2 0.3 0.4 0.4 0.4 0.7 0 2.5 0.1 2.9 1.2 0.3 1.1-0.6 2.9-0.6 2.9l-5.3 13-6.3-14.3s-0.6-1.5-0.1-2.2 1.6-0.7 2.2-0.7c0.5 0 0.9-0.2 1-0.3v-0.3" clip-path="url(#SVGID_4_)"/>
		<path class="st2" d="m53.5 65h-13.3s0 0.7 0.6 0.8c0.3 0 2.4 0.3 2.6 1.3 0 0.2 0.1 18.9 0.1 18.9s0 3-0.5 3.5c-0.5 0.4-2.1 0.9-2.5 1-0.1 0-0.1 0.1-0.1 0.1v0.4c0 0.1 0.1 0.1 0.1 0.1h21.9l1.6-8.5c0-0.1-0.1-0.2-0.1-0.1l-0.7 0.1s-0.1 0-0.1 0.1c-0.1 0.5-1.1 3.4-3.1 5.1-1.9 1.6-3.1 2-4.3 2.2-1.1 0.2-2.9 0.3-3.9 0.1-0.7-0.2-1.5-0.8-1.8-1.1-0.1-0.2-0.1-2.1-0.1-2.1v-18.2s0-1.7 0.6-2.2 1.8-0.7 2.5-0.8c0.6 0 0.6-0.7 0.6-0.7z" clip-path="url(#SVGID_4_)"/>
		<path class="st2" d="m37.2 48.7v-1.4c0-0.1-0.1-0.1-0.1-0.1h-2.2v-5.5c0-1.4 0.8-2.1 1.5-2.3 0.4-0.1 1 0 1.3 0.2s0.2 0.5 0.1 0.7-0.6 0.5-0.7 2 0.9 1.9 2.3 1.9 2-1 2-1.7c0-0.4 0-1.4-0.5-2.3 0 0 0-0.1-0.1-0.1 0 0 0-0.1-0.1-0.1-0.9-1.4-2.9-1.7-4.2-1.8h-0.7-0.3c-1.1 0.1-2.2 0.4-3.4 1.2-2.4 1.5-2.4 4.6-2.4 4.6v3.2h-1.7c-0.1 0-0.1 0.1-0.1 0.1v1.4c0 0.1 0.1 0.1 0.1 0.1h1.9v32.4c1.6 2 3.3 4 5.1 5.9v-38.3h2.2c-0.1 0 0 0 0-0.1" clip-path="url(#SVGID_4_)"/>
	</g></g>
</g>
</svg>