<svg xmlns="http://www.w3.org/2000/svg" xmlns:xlink="http://www.w3.org/1999/xlink" version="1.0" id="Ebene_1" x="0px" y="0px" width="514.107px" height="514.109px" viewBox="0 0 514.107 514.109" enable-background="new 0 0 514.107 514.109" xml:space="preserve">
<path fill-rule="evenodd" clip-rule="evenodd" fill="#008A57" d="M514.107,257.054c0,141.968-115.087,257.055-257.052,257.055  C115.087,514.109,0,399.022,0,257.054C0,115.087,115.087,0,257.055,0C399.021,0,514.107,115.087,514.107,257.054L514.107,257.054z"/>
<path fill-rule="evenodd" clip-rule="evenodd" fill="#FFFFFF" d="M509.115,257.054c0,139.211-112.852,252.063-252.06,252.063  c-139.211,0-252.062-112.852-252.062-252.063S117.844,4.992,257.055,4.992C396.264,4.992,509.115,117.842,509.115,257.054  L509.115,257.054z"/>
<path fill-rule="evenodd" clip-rule="evenodd" fill="#008A57" d="M17.347,257.054c0,132.177,107.534,239.708,239.708,239.708  s239.706-107.531,239.706-239.708c0-132.174-107.531-239.708-239.706-239.708S17.347,124.879,17.347,257.054L17.347,257.054z"/>
<path fill-rule="evenodd" clip-rule="evenodd" fill="#FFFFFF" d="M89.259,257.054c0,92.524,75.272,167.796,167.796,167.796  c92.521,0,167.796-75.272,167.796-167.796c0-92.522-75.275-167.795-167.796-167.795C164.531,89.259,89.259,164.531,89.259,257.054  L89.259,257.054z"/>
<path fill-rule="evenodd" clip-rule="evenodd" fill="#FFFFFF" d="M169.494,444.218c-2.559-1.189-3.746-4.436-2.531-7.052  c1.109-2.394,4.438-3.747,6.94-2.587c2.675,1.242,3.888,4.433,2.672,7.052C175.334,444.303,172.11,445.434,169.494,444.218  L169.494,444.218z"/>
<polygon fill-rule="evenodd" clip-rule="evenodd" fill="#FFFFFF" points="138.438,397.027 147.125,403.941 130.617,448.044   122.666,441.713 134.476,410.867 134.377,410.788 106.865,429.136 98.914,422.808 138.438,397.027 "/>
<polygon fill-rule="evenodd" clip-rule="evenodd" fill="#FFFFFF" points="93.27,415.991 86.563,408.781 119.354,378.289   126.059,385.499 93.27,415.991 "/>
<path fill-rule="evenodd" clip-rule="evenodd" fill="#FFFFFF" d="M76.975,398.328l-11.687-17.537  c-4.727-7.099-5.631-13.433,1.31-18.056c3.656-2.435,7.428-2.314,11.152-0.123c-1.72-5.408,0.246-10.034,4.893-13.131  c7.567-5.039,15.081-0.779,19.567,5.956l12.034,18.059L76.975,398.328L76.975,398.328z M102.413,369.543l-5.84-8.769  c-2.158-3.234-5.077-5.358-8.94-2.783c-3.812,2.537-3.727,5.947-1.396,9.442l5.946,8.927L102.413,369.543L102.413,369.543z   M86.599,380.082l-5.528-8.3c-1.915-2.868-4.645-4.14-7.775-2.054c-3.551,2.364-2.471,5.566-0.524,8.49l5.109,7.67L86.599,380.082  L86.599,380.082z"/>
<path fill-rule="evenodd" clip-rule="evenodd" fill="#FFFFFF" d="M41.692,335.48c-4.714-13.034,2.249-24.217,14.752-28.74  c12.152-4.392,24.658-0.24,29.37,12.794c4.712,13.037-2.25,24.223-14.401,28.614C58.909,352.671,46.403,348.52,41.692,335.48  L41.692,335.48z M78.029,322.346c-3.006-8.314-11.216-8.883-18.234-6.346c-7.374,2.666-13.323,8.35-10.317,16.67  c3.006,8.314,11.215,8.886,18.59,6.22C75.085,336.35,81.034,330.669,78.029,322.346L78.029,322.346z"/>
<path fill-rule="evenodd" clip-rule="evenodd" fill="#FFFFFF" d="M32.347,299.952l-2.505-24.026  c-0.832-7.986,4.195-13.62,10.935-14.323c5.243-0.545,9.396,1.166,11.903,5.889l0.126-0.012c0.749-4.937,5.285-6.797,9.746-7.576  c2.788-0.48,8.036-0.963,10.352-2.971l1.02,9.797c-2.684,1.477-7.003,1.802-10.509,2.672c-4.607,1.172-6.48,3.196-5.966,8.127  l1.022,9.797l17.41-1.813l1.021,9.797L32.347,299.952L32.347,299.952z M51.482,288.051l-1.121-10.731  c-0.453-4.368-2.572-6.545-7.065-6.079c-4.307,0.451-5.93,3.018-5.477,7.386l1.118,10.734L51.482,288.051L51.482,288.051z"/>
<path fill-rule="evenodd" clip-rule="evenodd" fill="#FFFFFF" d="M72.349,220.044c3.954,4.017,5.027,8.719,4.449,13.009  c-1.853,13.74-13.203,20.439-26.01,18.712c-13.182-1.778-22.349-11.243-20.498-24.984c1.226-9.078,7.978-16.903,18.193-16.601  l-1.258,9.325c-5.063,0.457-8.105,3.782-8.726,8.382c-1.184,8.767,5.836,13.069,13.605,14.118  c7.399,0.998,15.303-1.292,16.487-10.059c0.855-6.341-2.07-10.471-8.15-11.861l-1.324,9.823l-7.273-0.98l2.514-18.653l24,3.237  l-0.839,6.217L72.349,220.044L72.349,220.044z"/>
<polygon fill-rule="evenodd" clip-rule="evenodd" fill="#FFFFFF" points="45.075,173.445 58.632,145.022 66.105,148.588   56.789,168.122 66.13,172.576 74.206,155.648 81.114,158.944 73.036,175.874 89.738,183.839 85.499,192.729 45.075,173.445 "/>
<path fill-rule="evenodd" clip-rule="evenodd" fill="#FFFFFF" d="M76.931,117.212c8.575-10.89,21.75-10.893,32.194-2.665  c10.151,7.994,13.235,20.801,4.66,31.692c-8.575,10.888-21.751,10.89-31.9,2.896C71.439,140.909,68.354,128.101,76.931,117.212  L76.931,117.212z M107.281,141.116c5.471-6.946,1.616-14.215-4.247-18.833c-6.16-4.85-14.13-6.895-19.6,0.053  c-5.473,6.948-1.616,14.215,4.542,19.065C93.839,146.019,101.811,148.063,107.281,141.116L107.281,141.116z"/>
<path fill-rule="evenodd" clip-rule="evenodd" fill="#FFFFFF" d="M102.199,90.401l15.265-11.832  c9.17-7.107,20.517-6.697,29.621,5.049c7.951,10.26,8.615,21.965-2.191,30.338l-15.265,11.833L102.199,90.401L102.199,90.401z   M132.338,113.216l6.939-5.379c4.512-3.495,6.672-9.614,0.602-17.443c-5.531-7.138-11.544-9.778-19.276-3.782l-5.552,4.302  L132.338,113.216L132.338,113.216z"/>
<path fill-rule="evenodd" clip-rule="evenodd" fill="#FFFFFF" d="M164.691,83.424c2.509,5.407,7.698,5.558,12.48,3.338  c3.127-1.455,7.485-4.583,5.556-8.739c-2.033-4.381-8.467-2.294-15.182-1.113c-6.773,1.208-13.944,1.702-17.484-5.924  c-3.858-8.307,2.143-15.939,9.486-19.349c8.479-3.936,17.993-3.855,22.354,5.534l-8.651,4.015c-2.558-4.761-6.609-4.4-10.876-2.42  c-2.846,1.321-5.591,4.049-4.006,7.463c1.455,3.13,3.574,2.631,14.974,0.517c3.303-0.633,13.282-2.982,17.562,6.237  c3.461,7.456,0.189,15.754-10.852,20.88c-8.993,4.173-19.475,3.645-24.012-6.423L164.691,83.424L164.691,83.424z"/>
<path fill-rule="evenodd" clip-rule="evenodd" fill="#FFFFFF" d="M190.022,40.493l19.708-4.406  c10.893-2.433,16.66,3.538,18.249,10.638c1.588,7.097-1.09,14.958-11.982,17.392l-10.1,2.259l3.504,15.667l-9.608,2.147  L190.022,40.493L190.022,40.493z M204.23,58.909l7.465-1.671c4.469-0.998,8.227-2.867,6.981-8.435  c-1.244-5.571-5.442-5.659-9.91-4.663l-7.466,1.671L204.23,58.909L204.23,58.909z"/>
<path fill-rule="evenodd" clip-rule="evenodd" fill="#FFFFFF" d="M259.157,30.334c13.863,0.193,21.873,10.657,21.686,23.955  c-0.182,12.923-8.479,23.158-22.343,22.963c-13.863-0.193-21.872-10.655-21.69-23.578C236.994,40.375,245.294,30.139,259.157,30.334  L259.157,30.334z M258.617,68.972c8.843,0.125,12.277-7.356,12.379-14.821c0.111-7.841-3.111-15.415-11.955-15.536  c-8.845-0.125-12.274,7.356-12.385,15.196C246.554,61.276,249.772,68.849,258.617,68.972L258.617,68.972z"/>
<path fill-rule="evenodd" clip-rule="evenodd" fill="#FFFFFF" d="M295.784,34.134l23.361,6.119  c7.767,2.033,11.268,8.722,9.554,15.275c-1.336,5.098-4.4,8.379-9.706,9.066l-0.029,0.12c4.354,2.439,4.497,7.339,3.656,11.788  c-0.533,2.779-1.928,7.86-0.864,10.731l-9.527-2.496c-0.439-3.031,0.779-7.188,1.201-10.772c0.521-4.726-0.712-7.189-5.505-8.443  l-9.527-2.496l-4.436,16.931l-9.527-2.496L295.784,34.134L295.784,34.134z M300.179,56.228l10.436,2.736  c4.245,1.109,7.031-0.105,8.174-4.475c1.096-4.188-0.732-6.612-4.978-7.723l-10.438-2.735L300.179,56.228L300.179,56.228z"/>
<polygon fill-rule="evenodd" clip-rule="evenodd" fill="#FFFFFF" points="350.971,61.333 339.023,55.211 342.797,47.843   375.463,64.573 371.687,71.944 359.736,65.824 343.093,98.32 334.324,93.829 350.971,61.333 "/>
<path fill-rule="evenodd" clip-rule="evenodd" fill="#FFFFFF" d="M371.862,98.829c-3.738,4.644-1.573,9.363,2.534,12.667  c2.687,2.164,7.421,4.685,10.292,1.118c3.029-3.765-1.69-8.609-5.722-14.106c-4.081-5.537-7.699-11.75-2.429-18.3  c5.742-7.137,15.24-5.13,21.545-0.057c7.283,5.858,11.426,14.424,4.937,22.49l-7.433-5.978c3.141-4.4,1.022-7.875-2.643-10.824  c-2.446-1.967-6.108-3.221-8.467-0.289c-2.162,2.689-0.773,4.368,6.167,13.657c2.03,2.681,8.552,10.583,2.183,18.504  c-5.15,6.403-14.042,7.143-23.525-0.486c-7.723-6.214-11.889-15.847-4.869-24.371L371.862,98.829L371.862,98.829z"/>
<polygon fill-rule="evenodd" clip-rule="evenodd" fill="#FFFFFF" points="434.543,117.82 452.408,143.745 445.594,148.441   433.315,130.626 424.793,136.497 435.434,151.939 429.132,156.281 418.491,140.839 403.257,151.339 397.67,143.229 434.543,117.82   "/>
<path fill-rule="evenodd" clip-rule="evenodd" fill="#FFFFFF" d="M467.394,173.484c5.15,12.872-1.43,24.287-13.778,29.228  c-11.997,4.8-24.636,1.074-29.786-11.798c-5.15-12.87,1.43-24.287,13.427-29.087C449.602,156.886,462.243,160.613,467.394,173.484  L467.394,173.484z M431.517,187.838c3.284,8.212,11.508,8.503,18.442,5.729c7.28-2.914,13.031-8.795,9.747-17.007  c-3.287-8.213-11.511-8.502-18.791-5.59C433.983,173.744,428.229,179.626,431.517,187.838L431.517,187.838z"/>
<path fill-rule="evenodd" clip-rule="evenodd" fill="#FFFFFF" d="M477.92,208.721l3.29,23.925  c1.093,7.954-3.744,13.748-10.456,14.669c-5.221,0.721-9.425-0.854-12.088-5.489l-0.126,0.015c-0.586,4.956-5.057,6.965-9.489,7.891  c-2.769,0.571-7.998,1.226-10.245,3.309l-1.342-9.756c2.634-1.567,6.94-2.032,10.412-3.018c4.567-1.323,6.369-3.407,5.695-8.316  l-1.342-9.756l-17.338,2.385l-1.342-9.757L477.92,208.721L477.92,208.721z M459.188,221.238l1.471,10.688  c0.601,4.352,2.786,6.456,7.263,5.84c4.286-0.589,5.824-3.208,5.229-7.559l-1.471-10.689L459.188,221.238L459.188,221.238z"/>
<polygon fill-rule="evenodd" clip-rule="evenodd" fill="#FFFFFF" points="483.088,261.037 480.328,294.412 472.078,293.729   474.026,270.168 464.464,269.377 462.677,291.001 455.051,290.375 456.838,268.748 445.898,267.842 443.912,291.904   435.662,291.224 438.463,257.348 483.088,261.037 "/>
<polygon fill-rule="evenodd" clip-rule="evenodd" fill="#FFFFFF" points="477.621,308.96 474.65,318.286 440.347,326.975   440.309,327.095 468.938,336.218 466.137,345.004 423.46,331.405 426.454,322.021 460.679,313.373 460.717,313.252 432.146,304.15   434.947,295.364 477.621,308.96 "/>
<polygon fill-rule="evenodd" clip-rule="evenodd" fill="#FFFFFF" points="459.586,357.652 455.065,366.4 415.292,345.836   419.813,337.091 459.586,357.652 "/>
<polygon fill-rule="evenodd" clip-rule="evenodd" fill="#FFFFFF" points="448.383,379.226 442.497,387.04 407.259,383.89   407.186,383.993 431.174,402.063 425.628,409.428 389.868,382.487 395.792,374.626 430.939,377.785 431.013,377.685   407.074,359.647 412.623,352.285 448.383,379.226 "/>
<path fill-rule="evenodd" clip-rule="evenodd" fill="#FFFFFF" d="M363.917,411.192c-0.141-5.628,2.291-9.797,5.646-12.527  c10.746-8.757,23.602-5.886,31.767,4.131c8.396,10.307,8.613,23.481-2.133,32.238c-7.099,5.783-17.373,6.873-24.618-0.328  l7.292-5.944c4.008,3.126,8.499,2.783,12.097-0.146c6.855-5.587,4.679-13.521-0.272-19.6c-4.717-5.786-12.047-9.521-18.902-3.935  c-4.96,4.04-5.648,9.053-2.165,14.224l7.685-6.261l4.635,5.689l-14.587,11.886l-15.296-18.768l4.863-3.964L363.917,411.192  L363.917,411.192z"/>
<path fill-rule="evenodd" clip-rule="evenodd" fill="#FFFFFF" d="M340.576,445.012c-2.569,1.166-5.807-0.05-7.002-2.675  c-1.087-2.399,0.05-5.81,2.563-6.952c2.684-1.219,5.895-0.059,7.09,2.566C344.446,440.635,343.204,443.82,340.576,445.012  L340.576,445.012z"/>
<path fill-rule="evenodd" clip-rule="evenodd" fill="#FFFFFF" d="M205.044,476.799l-8.565-2.754l8.81-27.384l-10.617-3.416  l2.076-6.457c5.933,2.042,12.085,1.758,15.064-4.406l6.816,2.194L205.044,476.799L205.044,476.799z"/>
<path fill-rule="evenodd" clip-rule="evenodd" fill="#FFFFFF" d="M238.411,437.55c10.92,1.515,13.642,9.568,13.049,13.837  c-0.601,4.33-3.349,7.529-7.698,8.464l0.016-0.129l-0.009,0.062l-0.007,0.067c5.042,1.916,7.499,6.349,6.731,11.871  c-1.28,9.226-10.201,12.656-18.359,11.525c-8.473-1.178-16.103-6.583-14.788-16.061c0.778-5.587,4.462-9.105,9.782-9.645  l0.018-0.129c-4.103-1.784-5.81-5.604-5.209-9.935C223.033,439.575,231.258,436.557,238.411,437.55L238.411,437.55z   M233.065,476.533c4.269,0.592,7.948-1.966,8.559-6.36c0.583-4.204-2.416-7.5-6.557-8.074c-4.33-0.604-8.121,1.368-8.748,5.886  C225.691,472.501,228.797,475.941,233.065,476.533L233.065,476.533z M235.834,456.127c3.642,0.504,6.869-1.096,7.392-4.86  c0.313-2.262-0.223-6.234-5.747-7.002c-3.577-0.495-7.02,1.263-7.56,5.156C229.389,453.25,232.257,455.629,235.834,456.127  L235.834,456.127z"/>
<path fill-rule="evenodd" clip-rule="evenodd" fill="#FFFFFF" d="M265.825,472.917c0.762,2.936,3.202,5.314,6.302,5.115  c6.51-0.428,7.661-9.073,7.591-14.021l-0.135-0.114c-2.238,3.636-5.367,5.3-9.665,5.581c-3.794,0.246-7.766-1.271-10.477-3.888  c-2.515-2.563-3.829-6.161-4.058-9.639c-0.59-9.041,5.202-16.591,14.435-17.191c13.397-0.879,17.766,10.585,18.495,21.771  c0.706,10.811-3.29,23.449-15.873,24.272c-7.649,0.498-13.63-3.618-15.149-11.326L265.825,472.917L265.825,472.917z   M278.232,453.889c-0.27-4.107-3.193-8.045-7.679-7.752c-4.301,0.281-6.495,4.55-6.237,8.534c0.272,4.169,2.695,8.203,7.31,7.901  C276.428,462.262,278.517,458.251,278.232,453.889L278.232,453.889z"/>
<path fill-rule="evenodd" clip-rule="evenodd" fill="#FFFFFF" d="M312.246,443.331c-1.345-2.716-4.219-4.544-7.21-3.715  c-6.287,1.746-5.648,10.438-4.573,15.27l0.155,0.088c1.45-4.017,4.172-6.284,8.326-7.436c3.659-1.017,7.857-0.34,11.045,1.67  c2.985,1.995,5.007,5.25,5.938,8.607c2.423,8.728-1.708,17.3-10.62,19.772c-12.938,3.589-19.55-6.738-22.55-17.54  c-2.895-10.438-1.556-23.628,10.588-26.997c7.389-2.048,14.083,0.762,17.142,8.001L312.246,443.331L312.246,443.331z   M303.984,464.492c1.102,3.967,4.764,7.225,9.1,6.023c4.148-1.154,5.429-5.78,4.362-9.627c-1.116-4.028-4.313-7.479-8.769-6.243  C304.04,455.928,302.815,460.282,303.984,464.492L303.984,464.492z"/>
<path fill-rule="evenodd" clip-rule="evenodd" fill="#008A57" d="M342.255,128.391c-11.449-7.607-23.965-13.726-37.274-18.082  v59.351l37.274,64.562V128.391L342.255,128.391z"/>
<path fill-rule="evenodd" clip-rule="evenodd" fill="#008A57" d="M304.98,403.8c13.31-4.356,25.825-10.474,37.274-18.082v-44.927  H304.98V403.8L304.98,403.8z"/>
<path fill-rule="evenodd" clip-rule="evenodd" fill="#008A57" d="M411.425,257.054c0-41.984-16.854-80.101-44.145-107.958v128.473  l27.911,48.34C405.571,305.167,411.425,281.785,411.425,257.054L411.425,257.054z"/>
<path fill-rule="evenodd" clip-rule="evenodd" fill="#008A57" d="M367.28,365.011c7.239-7.389,13.734-15.507,19.386-24.22H367.28  V365.011L367.28,365.011z"/>
<path fill-rule="evenodd" clip-rule="evenodd" fill="#008A57" d="M279.952,104.383c-4.427-0.662-8.921-1.112-13.462-1.389  l13.462,23.317V104.383L279.952,104.383z"/>
<path fill-rule="evenodd" clip-rule="evenodd" fill="#008A57" d="M234.158,104.383v21.432l13.165-22.803  C242.884,103.291,238.49,103.736,234.158,104.383L234.158,104.383z"/>
<path fill-rule="evenodd" clip-rule="evenodd" fill="#008A57" d="M234.158,409.727c7.472,1.113,15.117,1.699,22.897,1.699  s15.423-0.586,22.897-1.699v-68.936h-45.794V409.727L234.158,409.727z"/>
<path fill-rule="evenodd" clip-rule="evenodd" fill="#008A57" d="M171.855,385.718c11.449,7.608,23.966,13.726,37.274,18.082  v-63.009h-37.274V385.718L171.855,385.718z"/>
<path fill-rule="evenodd" clip-rule="evenodd" fill="#008A57" d="M209.13,110.309c-13.308,4.356-25.825,10.475-37.274,18.082  v105.333l37.274-64.562V110.309L209.13,110.309z"/>
<path fill-rule="evenodd" clip-rule="evenodd" fill="#008A57" d="M146.83,149.096c-27.292,27.857-44.147,65.974-44.147,107.958  c0,24.623,5.804,47.914,16.106,68.585l28.042-48.568V149.096L146.83,149.096z"/>
<path fill-rule="evenodd" clip-rule="evenodd" fill="#008A57" d="M146.83,365.014v-24.223h-19.387  C133.094,349.507,139.589,357.623,146.83,365.014L146.83,365.014z"/>
<path fill-rule="evenodd" clip-rule="evenodd" fill="#008A57" d="M256.912,104.509c1.806,3.129,129.385,224.101,131.193,227.229  c-3.612,0-258.772,0-262.386,0C127.526,328.61,255.105,107.638,256.912,104.509L256.912,104.509z"/>
<polygon fill-rule="evenodd" clip-rule="evenodd" fill="#FFFFFF" points="131.253,328.545 382.57,328.545 256.912,110.899   131.253,328.545 "/>
<polygon fill-rule="evenodd" clip-rule="evenodd" fill="#008A57" points="256.912,120.485 315.589,222.117 374.271,323.752   256.912,323.752 139.554,323.752 198.233,222.117 256.912,120.485 "/>
<path fill-rule="evenodd" clip-rule="evenodd" fill="#FFFFFF" d="M286.166,205.96c1.863,4.847,1.863,11.183,0,16.028  c-2.238,4.472-4.846,7.458-8.2,11.556c-6.709,5.963-17.146,10.063-19.011,19.381c-0.372,1.491,1.117,2.237,2.236,2.982l3.356-1.118  c10.436-8.574,19.755-20.874,32.798-23.483c4.849,0,8.947,1.49,12.305,4.472c3.352,5.219,6.709,12.302,3.352,18.637  c-1.488,4.847-8.572,8.199-4.846,14.164c2.613,5.593,4.477,12.674,1.494,19.011l-5.593,6.709c-7.081,4.846-16.772,2.61-23.484-0.372  l-12.299-13.418c-4.099-5.593-5.59-12.674-11.928-16.775c-6.335-1.491-9.691,5.59-13.047,9.316  c-5.216,10.066-12.299,24.231-25.345,25.351c-5.591,1.119-11.93,0.372-16.402-2.61c-3.727-3.354-4.472-8.2-4.846-13.046  c0.746-4.846,4.846-8.944,2.982-14.165c-4.472-6.709-8.947-14.164-5.219-22.737c1.119-5.218,7.083-7.827,11.183-10.063  c16.774-4.847,26.465,12.674,38.394,20.5c2.237,0,4.844,1.119,6.337-1.49c0.746-1.119,0.371-2.982-0.372-4.102  c-9.693-8.572-21.246-16.772-28.702-27.955c-3.727-6.709-1.863-16.4,3.353-22.365c3.728-3.354,8.575-4.472,13.047-4.472  c6.709-0.746,11.556,7.455,18.264,3.353c5.219-4.099,12.302-5.591,19.011-3.727C279.829,197.76,283.556,201.114,286.166,205.96  L286.166,205.96z"/>
<path fill-rule="evenodd" clip-rule="evenodd" fill="#FFFFFF" d="M259.222,286.1c-1.119,4.102-4.1,8.575-8.202,10.063  c-1.862,0-3.353,0.375-4.472-0.744c-0.372-2.238,3.356-4.471,3.727-7.084c2.984-5.962,2.61-13.046,4.474-19.755  c1.491-1.119,3.727-0.744,4.102,1.491C259.967,274.917,260.713,281.254,259.222,286.1L259.222,286.1z"/>
<polygon fill-rule="evenodd" clip-rule="evenodd" fill="#008A57" points="258.649,208.874 265.295,208.874 254.9,239.459   248.808,239.459 238.5,208.874 245.358,208.874 251.918,232.046 252.004,232.046 258.649,208.874 "/>
<polygon fill-rule="evenodd" clip-rule="evenodd" fill="#008A57" points="216.548,282.057 210.158,282.057 210.158,251.473   231.926,251.473 231.926,256.882 216.548,256.882 216.548,263.782 230.01,263.782 230.01,269.193 216.548,269.193 216.548,282.057   "/>
<polygon fill-rule="evenodd" clip-rule="evenodd" fill="#008A57" points="287.578,282.057 281.188,282.057 281.188,251.473   302.956,251.473 302.956,256.882 287.578,256.882 287.578,263.782 301.037,263.782 301.037,269.193 287.578,269.193   287.578,282.057 "/>
</svg>