<svg xmlns:dc="http://purl.org/dc/elements/1.1/" xmlns:cc="http://creativecommons.org/ns#" xmlns:rdf="http://www.w3.org/1999/02/22-rdf-syntax-ns#" xmlns:svg="http://www.w3.org/2000/svg" xmlns="http://www.w3.org/2000/svg" xmlns:sodipodi="http://sodipodi.sourceforge.net/DTD/sodipodi-0.dtd" xmlns:inkscape="http://www.inkscape.org/namespaces/inkscape" version="1.0" id="Ebene_1" x="0px" y="0px" width="179.94943" height="252" viewBox="0 0 179.94944 252.00001" enable-background="new 0 0 382.555 537.444" xml:space="preserve" sodipodi:docname="Viktoria.svg" inkscape:version="0.92.4 (5da689c313, 2019-01-14)"><metadata id="metadata75"><rdf:RDF><cc:Work rdf:about=""><dc:format>image/svg+xml</dc:format><dc:type rdf:resource="http://purl.org/dc/dcmitype/StillImage"/><dc:title/></cc:Work></rdf:RDF></metadata><defs id="defs73"/><sodipodi:namedview pagecolor="#ffffff" bordercolor="#666666" borderopacity="1" objecttolerance="10" gridtolerance="10" guidetolerance="10" inkscape:pageopacity="0" inkscape:pageshadow="2" inkscape:window-width="1366" inkscape:window-height="705" id="namedview71" showgrid="false" fit-margin-top="1" fit-margin-bottom="1" fit-margin-right="1" fit-margin-left="1" inkscape:zoom="1.4142136" inkscape:cx="261.49711" inkscape:cy="145.20939" inkscape:window-x="-8" inkscape:window-y="-8" inkscape:window-maximized="1" inkscape:current-layer="Ebene_1"/>

































<g id="g111" transform="matrix(0.46516069,0,0,0.46516069,1.0001163,1.0025356)"><path id="path2" d="M 327.628,23.953 C 271.023,0.892 191.26,2.602 191.26,2.602 c 0,0 -79.764,-1.71 -136.37,21.351 2.572,66.621 -52.317,85.411 -52.317,85.411 v 178.507 c 0,188.754 188.687,246.832 188.687,246.832 0,0 188.687,-58.078 188.687,-246.832 V 109.364 c -10e-4,0 -54.891,-18.79 -52.319,-85.411 z" stroke-miterlimit="2.6131" inkscape:connector-curvature="0" style="clip-rule:evenodd;fill:#ffffff;fill-rule:evenodd;stroke:#000000;stroke-width:5.14650011;stroke-miterlimit:2.61310005"/><path id="path4" d="m 191.26,69.617 c -67.755,0 -132.082,16.655 -188.687,39.716 v 178.503 c 0,188.76 188.687,246.838 188.687,246.838 0,0 188.687,-58.078 188.687,-246.838 V 109.333 C 323.342,86.272 259.015,69.617 191.26,69.617 Z" stroke-miterlimit="2.6131" inkscape:connector-curvature="0" style="clip-rule:evenodd;fill:#0062a9;fill-rule:evenodd;stroke:#000000;stroke-width:5.14650011;stroke-miterlimit:2.61310005"/><polygon id="polygon6" points="69.47,430.916 160.384,236.183 281.315,223.37 302.758,377.965 " stroke-miterlimit="2.6131" style="clip-rule:evenodd;fill:#ffffff;fill-rule:evenodd;stroke:#000000;stroke-width:5.14650011;stroke-miterlimit:2.61310005"/><path id="path8" d="m 273.783,354.492 c -29.276,11.982 -66.618,18.521 -114.256,15.785 l -89.342,87.252 c 54.138,56.549 121.075,77.15 121.075,77.15 131.223,-66.181 82.523,-180.187 82.523,-180.187 z" stroke-miterlimit="2.6131" inkscape:connector-curvature="0" style="clip-rule:evenodd;fill:#56ac42;fill-rule:evenodd;stroke:#000000;stroke-width:5.14650011;stroke-miterlimit:2.61310005"/><path id="path10" d="m 379.946,192.624 c -24.015,-31.603 -188.804,25.412 -188.804,25.412 54.366,42.853 78.243,90.167 83.206,136.456 10e-4,0 99.595,-13.254 105.598,-161.868 z" stroke-miterlimit="2.6131" inkscape:connector-curvature="0" style="clip-rule:evenodd;fill:#ffed00;fill-rule:evenodd;stroke:#000000;stroke-width:5.14650011;stroke-miterlimit:2.61310005"/><path id="path12" d="M 109.353,77.435 C 90.725,80.92 72.536,85.454 54.89,90.781 v 294.866 l 54.034,-61.494 z" stroke-miterlimit="2.6131" inkscape:connector-curvature="0" style="clip-rule:evenodd;fill:#e32219;fill-rule:evenodd;stroke:#000000;stroke-width:5.14650011;stroke-miterlimit:2.61310005"/><path id="path14" d="M 327.2,90.65 C 309.552,85.338 291.364,80.821 272.737,77.354 l -0.428,70.002 h 54.463 z" stroke-miterlimit="2.6131" inkscape:connector-curvature="0" style="clip-rule:evenodd;fill:#e32219;fill-rule:evenodd;stroke:#000000;stroke-width:5.14650011;stroke-miterlimit:2.61310005"/><path id="path16" d="m 218.274,70.507 c -8.936,-0.574 -17.944,-0.882 -27.015,-0.882 -9.215,0 -18.366,0.318 -27.444,0.908 l 0.428,143.442 h 54.461 z" stroke-miterlimit="2.6131" inkscape:connector-curvature="0" style="clip-rule:evenodd;fill:#e32219;fill-rule:evenodd;stroke:#000000;stroke-width:5.14650011;stroke-miterlimit:2.61310005"/><path id="path18" d="m 379.955,109.349 c -0.357,-0.145 -0.715,-0.287 -1.069,-0.431 -44.291,0.741 -284.269,16.14 -363.148,260.351 15.533,45.182 42.88,79.354 71.448,104.555 23.249,-264.078 244.392,-281.26 292.77,-281.843 v -82.632 z" stroke-miterlimit="2.6131" inkscape:connector-curvature="0" style="clip-rule:evenodd;fill:#ffffff;fill-rule:evenodd;stroke:#000000;stroke-width:5.14650011;stroke-miterlimit:2.61310005"/><path id="path20" d="M 273.783,354.492 C 381.537,310.4 379.946,192.624 379.946,192.624 v 95.224 c 0,188.754 -188.687,246.832 -188.687,246.832 44.432,-26.701 91.6,-100.781 83.089,-180.188 z" stroke-miterlimit="2.6131" inkscape:connector-curvature="0" style="clip-rule:evenodd;fill:#e32219;fill-rule:evenodd;stroke:#000000;stroke-width:5.14650011;stroke-miterlimit:2.61310005"/><path id="path22" d="m 168.962,515.9 c 41.443,0 75.044,-33.463 75.044,-74.736 0,-41.273 -33.601,-74.73 -75.044,-74.73 -41.448,0 -75.047,33.457 -75.047,74.73 0,41.273 33.599,74.736 75.047,74.736 z" stroke-miterlimit="2.6131" inkscape:connector-curvature="0" style="clip-rule:evenodd;fill:#ffffff;fill-rule:evenodd;stroke:#000000;stroke-width:5.14650011;stroke-miterlimit:2.61310005"/><path id="path24" d="m 107.207,455.684 -8.004,13.67 m 4.859,-38.438 -9.146,-3.135 m 40.882,-37.295 -15.439,32.461 m 14.58,15.369 32.877,-9.961 m -8.003,-47.261 20.011,26.191 m 27.447,1.992 16.579,-19.072 m -14.866,43.559 17.725,22.207 m -48.315,37.008 36.596,-9.961 m -49.459,-6.264 19.726,-33.879 m -44.315,37.295 -16.009,-23.35 m -3.716,42.141 18.869,-0.287 m 27.73,7.969 1.715,9.111" stroke-miterlimit="2.6131" inkscape:connector-curvature="0" style="fill:none;stroke:#000000;stroke-width:5.14650011;stroke-miterlimit:2.61310005"/><path id="path26" d="m 218.134,497.818 -7.148,-13.664 13.151,-31.887 19.441,-8.537 c 0,0 2.001,31.032 -25.444,54.088 z" stroke-miterlimit="2.6131" inkscape:connector-curvature="0" style="clip-rule:evenodd;fill-rule:evenodd;stroke:#000000;stroke-width:2.55920005;stroke-miterlimit:2.61310005"/><path id="path28" d="m 178.394,367.143 -15.437,17.654 -30.019,11.953 -14.865,-10.816 c 0,0 24.016,-23.913 60.321,-18.791 z" stroke-miterlimit="2.6131" inkscape:connector-curvature="0" style="clip-rule:evenodd;fill-rule:evenodd;stroke:#000000;stroke-width:2.55920005;stroke-miterlimit:2.61310005"/><polygon id="polygon30" points="141.229,436.611 123.218,416.965 100.347,429.779 104.919,459.668 128.078,461.947 " stroke-miterlimit="2.6131" style="clip-rule:evenodd;fill-rule:evenodd;stroke:#000000;stroke-width:2.55920005;stroke-miterlimit:2.61310005"/><polygon id="polygon32" points="210.985,404.156 175.536,401.309 160.098,430.348 181.253,449.139 212.418,437.461 " stroke-miterlimit="2.6131" style="clip-rule:evenodd;fill-rule:evenodd;stroke:#000000;stroke-width:2.55920005;stroke-miterlimit:2.61310005"/><polygon id="polygon34" points="184.684,490.986 168.389,471.627 137.799,475.611 134.083,498.674 168.676,510.914 " stroke-miterlimit="2.6131" style="clip-rule:evenodd;fill-rule:evenodd;stroke:#000000;stroke-width:2.55920005;stroke-miterlimit:2.61310005"/><path id="path36" d="m 96.027,29.624 c 3.233,-0.639 5.398,-0.951 6.497,-0.935 1.516,0.003 2.867,0.489 4.053,1.465 1.185,0.974 1.956,2.353 2.312,4.143 0.289,1.45 0.199,2.795 -0.267,4.022 -0.464,1.23 -1.242,2.221 -2.328,2.971 -1.087,0.747 -3.394,1.469 -6.914,2.165 l -4.915,0.973 -2.78,-13.947 z m 3.797,41.685 -3.696,-18.536 5.856,-1.156 c 4.061,-0.803 7.112,-1.649 9.151,-2.54 1.494,-0.69 2.889,-1.774 4.181,-3.25 1.292,-1.474 2.227,-3.335 2.804,-5.587 0.577,-2.25 0.567,-4.884 -0.034,-7.903 -0.781,-3.91 -2.275,-6.929 -4.482,-9.059 -2.21,-2.13 -4.655,-3.313 -7.337,-3.551 -1.759,-0.164 -5.367,0.294 -10.819,1.371 l -14.374,2.842 9.797,49.138 z" inkscape:connector-curvature="0" style="clip-rule:evenodd;fill-rule:evenodd"/><polygon id="polygon38" points="137.195,55.909 159.823,53.424 160.75,61.819 129.042,65.303 123.572,15.88 132.653,14.884 " style="clip-rule:evenodd;fill-rule:evenodd"/><polygon id="polygon40" points="168.407,19.815 168.231,11.333 201.37,10.655 201.531,18.519 177.439,52.849 203.195,52.318 203.371,60.766 166.557,61.522 166.368,52.39 189.49,19.381 " style="clip-rule:evenodd;fill-rule:evenodd"/><polygon id="polygon42" points="245.626,22.024 221.254,20.203 220.416,31.285 243.08,32.975 242.444,41.396 219.783,39.703 218.758,53.306 243.988,55.191 243.355,63.611 209.017,61.046 212.781,11.067 246.262,13.566 " style="clip-rule:evenodd;fill-rule:evenodd"/><polygon id="polygon44" points="280.791,52.821 286.513,19.853 294.897,21.296 286.331,70.663 277.305,69.11 264.897,33.82 259.313,66.013 250.926,64.572 259.492,15.204 268.252,16.709 " style="clip-rule:evenodd;fill-rule:evenodd"/><polygon id="polygon46" points="274.492,13.333 269.02,12.538 275.154,18.732 275.292,18.756 275.286,18.759 276.607,18.964 280.75,19.625 280.738,19.613 280.888,19.635 288.654,15.564 283.19,14.703 278.333,17.196 " style="clip-rule:evenodd;fill-rule:evenodd"/><polygon id="polygon48" points="50.668,359.543 44.629,380.537 56.09,383.807 61.306,365.684 69.499,368.021 64.283,386.145 84.859,392.016 82.331,400.799 33.909,386.977 42.477,357.211 " style="clip-rule:evenodd;fill-rule:evenodd"/><path id="path50" d="m 87.72,330.363 6.378,-6.867 c 4.506,3.404 7.355,7.078 8.544,11.027 1.191,3.949 0.825,8.145 -1.099,12.58 -2.386,5.502 -6.442,9.123 -12.166,10.857 -5.725,1.734 -12.223,1.031 -19.493,-2.092 -7.689,-3.311 -12.888,-7.658 -15.601,-13.043 -2.711,-5.385 -2.808,-10.98 -0.296,-16.775 2.196,-5.057 5.647,-8.449 10.358,-10.178 2.793,-1.031 6.243,-1.225 10.349,-0.574 l -1.377,9.205 c -2.61,-0.527 -4.947,-0.322 -7.005,0.633 -2.058,0.955 -3.568,2.537 -4.529,4.752 -1.333,3.076 -1.187,6.1 0.441,9.07 1.63,2.977 5.194,5.643 10.699,8.01 5.839,2.514 10.406,3.363 13.702,2.543 3.297,-0.814 5.597,-2.73 6.904,-5.742 0.961,-2.215 1.002,-4.465 0.122,-6.744 -0.881,-2.279 -2.856,-4.5 -5.931,-6.662 z" inkscape:connector-curvature="0" style="clip-rule:evenodd;fill-rule:evenodd"/><polygon id="polygon52" points="120.153,286.535 96.49,255.866 102.183,248.032 133.439,290.455 127.708,298.348 77.506,282 83.277,274.055 " style="clip-rule:evenodd;fill-rule:evenodd"/><polygon id="polygon54" points="152.496,267.908 146.314,274.652 109.132,240.853 115.313,234.11 " style="clip-rule:evenodd;fill-rule:evenodd"/><polygon id="polygon56" points="146.887,234.259 146.315,205.374 155.638,197.388 155.485,223.285 189.181,234.804 180.194,242.502 155.356,232.734 155.219,243.907 165.142,255.394 158.189,261.352 125.351,223.332 132.303,217.375 " style="clip-rule:evenodd;fill-rule:evenodd"/><polygon id="polygon58" points="163.466,192.051 194.055,173.048 198.563,180.248 187.166,187.33 209.318,222.696 201.561,227.514 179.408,192.151 167.978,199.252 " style="clip-rule:evenodd;fill-rule:evenodd"/><path id="path60" d="m 219.101,174.299 c 0.955,-3.546 3.149,-6.075 6.583,-7.586 3.454,-1.519 6.797,-1.444 10.028,0.226 3.229,1.667 6.006,5.131 8.338,10.386 2.358,5.317 3.059,9.776 2.101,13.374 -0.958,3.598 -3.108,6.132 -6.46,7.605 -3.328,1.465 -6.674,1.333 -10.028,-0.394 -3.357,-1.726 -6.182,-5.186 -8.484,-10.378 -2.339,-5.276 -3.033,-9.687 -2.078,-13.233 z m 6.676,32.121 c 5.479,2.562 11.294,2.492 17.452,-0.217 6.094,-2.678 10.028,-6.907 11.81,-12.686 1.778,-5.779 1.028,-12.368 -2.256,-19.771 -3.308,-7.465 -7.726,-12.488 -13.248,-15.067 -5.522,-2.579 -11.329,-2.531 -17.426,0.146 -3.369,1.485 -6.085,3.4 -8.145,5.751 -1.529,1.743 -2.698,3.901 -3.51,6.476 -0.809,2.574 -1.169,5.237 -1.072,7.985 0.144,3.724 1.257,7.919 3.328,12.59 3.238,7.299 7.589,12.229 13.067,14.793 z" inkscape:connector-curvature="0" style="clip-rule:evenodd;fill-rule:evenodd"/><path id="path62" d="m 266.857,152.046 6.873,-1.944 c 3.568,-1.009 5.719,-1.56 6.457,-1.648 1.503,-0.142 2.789,0.174 3.853,0.951 1.066,0.778 1.834,1.979 2.297,3.599 0.413,1.449 0.46,2.738 0.141,3.87 -0.319,1.135 -0.943,2.046 -1.881,2.736 -0.932,0.691 -3.513,1.633 -7.743,2.83 l -6.504,1.84 z m 11.435,40.064 -5.745,-20.13 1.787,-0.504 c 2.021,-0.574 3.551,-0.812 4.579,-0.712 1.028,0.103 2.098,0.521 3.214,1.26 1.113,0.74 3.334,2.667 6.65,5.779 l 9.366,8.688 10.535,-2.981 -8.001,-7.901 c -3.185,-3.151 -5.602,-5.288 -7.254,-6.407 -1.652,-1.121 -3.612,-2.023 -5.877,-2.711 3.653,-1.698 6.111,-3.999 7.362,-6.901 1.254,-2.902 1.365,-6.163 0.331,-9.782 -0.812,-2.849 -2.174,-5.2 -4.084,-7.055 -1.91,-1.853 -4.037,-2.917 -6.387,-3.185 -2.353,-0.272 -5.859,0.252 -10.526,1.573 l -18.533,5.244 13.761,48.223 z" inkscape:connector-curvature="0" style="clip-rule:evenodd;fill-rule:evenodd"/><polygon id="polygon64" points="322.58,181.371 313.577,183.119 303.936,133.906 312.938,132.154 " style="clip-rule:evenodd;fill-rule:evenodd"/><path id="path66" d="m 340.85,158.398 3.952,-19.182 8.335,17.783 z m 7.535,-31.364 -9.627,1.094 -11.789,51.82 9.627,-1.096 2.42,-11.741 17.991,-2.049 5.253,10.869 9.864,-1.124 z" inkscape:connector-curvature="0" style="clip-rule:evenodd;fill-rule:evenodd"/><path id="path68" d="M 327.628,23.953 C 271.023,0.892 191.26,2.602 191.26,2.602 c 0,0 -79.764,-1.71 -136.37,21.351 2.572,66.621 -52.317,85.411 -52.317,85.411 m 0,0 v 178.507 m 0,0 c 0,188.754 188.687,246.832 188.687,246.832 0,0 188.687,-58.078 188.687,-246.832 m -10e-4,0 V 109.364 m 0,0 c 0,0 -54.891,-18.79 -52.318,-85.411" stroke-miterlimit="2.6131" inkscape:connector-curvature="0" style="fill:none;stroke:#000000;stroke-width:5.14650011;stroke-miterlimit:2.61310005"/></g>
</svg>