<svg xmlns:dc="http://purl.org/dc/elements/1.1/" xmlns:cc="http://creativecommons.org/ns#" xmlns:rdf="http://www.w3.org/1999/02/22-rdf-syntax-ns#" xmlns:svg="http://www.w3.org/2000/svg" xmlns="http://www.w3.org/2000/svg" version="1.1" id="svg2" xml:space="preserve" width="147.06435" height="252" viewBox="0 0 147.06434 252"><metadata id="metadata8"><rdf:RDF><cc:Work rdf:about=""><dc:format>image/svg+xml</dc:format><dc:type rdf:resource="http://purl.org/dc/dcmitype/StillImage"/><dc:title/></cc:Work></rdf:RDF></metadata><defs id="defs6"><clipPath clipPathUnits="userSpaceOnUse" id="clipPath48"><path d="m 568.027,1146.34 c -137.656,137.36 -137.89,360.27 -0.539,497.92 137.367,137.64 360.285,137.88 497.942,0.52 137.64,-137.36 137.87,-360.27 0.52,-497.93 -137.364,-137.64 -360.286,-137.88 -497.923,-0.51 z" id="path46"/></clipPath></defs><g id="g10" transform="matrix(0.88212359,0,0,-0.88212359,1,251)"><g id="g12" transform="scale(0.1)"><path d="M 0,2834.07 V 689.148 C 182.48,417.832 482.52,240.57 822.031,240.57 c 339.779,0 640.029,177.532 822.459,449.239 V 2833.43 L 0,2834.07" style="fill:#ffffff;fill-opacity:1;fill-rule:nonzero;stroke:none" id="path14"/><path d="m 822.344,285.832 c -308.367,0 -599.61,156.969 -781.4963,420.539 V 2798.25 L 1604.28,2797.64 V 707.012 C 1422.42,443.051 1131.01,285.832 822.344,285.832" style="fill:#fcd205;fill-opacity:1;fill-rule:nonzero;stroke:none" id="path16"/><path d="M 824.91,2797.95 V 285.871 c 307.71,0.879 598.02,157.918 779.37,421.141 V 2797.64 l -779.37,0.31" style="fill:#231f20;fill-opacity:1;fill-rule:nonzero;stroke:none" id="path18"/><path d="m 41.6016,2288.98 h 1562.45 v 509.18 H 41.6016 Z" style="fill:#231f20;fill-opacity:1;fill-rule:nonzero;stroke:none" id="path20"/><path d="m 252.102,2412.5 h 1.152 l 29.742,332.95 h 72.656 L 301.309,2338.13 H 194.324 l -48.054,407.32 h 83.527 l 22.305,-332.95" style="fill:#ffffff;fill-opacity:1;fill-rule:nonzero;stroke:none" id="path22"/><path d="m 385.938,2338.13 h 80.6641 v 407.32 H 385.938 Z" style="fill:#ffffff;fill-opacity:1;fill-rule:nonzero;stroke:none" id="path24"/><path d="M 631.902,2338.13 H 551.25 v 348.97 h -54.348 v 58.35 H 686.25 v -58.35 h -54.348 v -348.97" style="fill:#ffffff;fill-opacity:1;fill-rule:nonzero;stroke:none" id="path26"/><path d="m 711.387,2338.13 v 407.32 h 151.047 v -58.35 h -70.371 v -93.26 h 67.507 v -58.34 h -67.507 v -139.02 h 70.371 v -58.35 H 711.387" style="fill:#ffffff;fill-opacity:1;fill-rule:nonzero;stroke:none" id="path28"/><path d="m 1007.39,2604.19 v 61.74 c 0,11.44 -3.9,26.88 -16.499,26.88 -12.578,0 -14.297,-15.44 -14.297,-26.88 2.285,-113.84 112.126,-76.09 112.126,-225.98 v -35.46 c 0,-54.35 -45.19,-74.38 -94.958,-74.38 -49.778,0 -94.973,20.03 -94.973,74.38 v 88.87 h 79.043 v -75.72 c 0,-11.44 3.328,-26.89 15.93,-26.89 12.578,0 14.298,15.45 14.298,26.89 -1.72,131.01 -112.13,116.71 -112.13,210.53 v 50.92 c 0,54.34 45.191,74.36 94.961,74.36 49.779,0 94.979,-20.02 94.979,-74.36 v -74.9 h -78.48" style="fill:#ffffff;fill-opacity:1;fill-rule:nonzero;stroke:none" id="path30"/><path d="m 1237.71,2604.19 v 61.74 c 0,11.44 -3.92,26.88 -16.51,26.88 -12.59,0 -14.3,-15.44 -14.3,-26.88 2.29,-113.84 112.12,-76.09 112.12,-225.98 v -35.46 c 0,-54.35 -45.19,-74.38 -94.96,-74.38 -49.77,0 -94.97,20.03 -94.97,74.38 v 88.87 h 79.04 v -75.72 c 0,-11.44 3.34,-26.89 15.93,-26.89 12.59,0 14.3,15.45 14.3,26.89 -1.71,131.01 -112.12,116.71 -112.12,210.53 v 50.92 c 0,54.34 45.2,74.36 94.96,74.36 49.78,0 94.97,-20.02 94.97,-74.36 v -74.9 h -78.46" style="fill:#ffffff;fill-opacity:1;fill-rule:nonzero;stroke:none" id="path32"/><path d="m 1356.11,2338.13 v 407.32 h 151.04 v -58.35 h -70.37 v -93.26 h 67.51 v -58.34 h -67.51 v -139.02 h 70.37 v -58.35 h -151.04" style="fill:#ffffff;fill-opacity:1;fill-rule:nonzero;stroke:none" id="path34"/><path d="m 556.152,2040.99 c -41.316,2.64 -80.754,-5.47 -112.48,-9.65 33.801,26.96 103.223,38.94 119.363,36.55 16.137,-2.38 19.477,-5.81 17.942,-11.68 -1.543,-5.88 -5.606,-16.44 -24.825,-15.22" style="fill:#231f20;fill-opacity:1;fill-rule:nonzero;stroke:none" id="path36"/><path d="m 608.613,2000.09 c 4.844,0.57 37.832,5.8 18.809,52.46 15.871,-3.51 23.016,-16.49 27.754,-27.92 14.062,-47.19 -39.102,-30.79 -46.563,-24.54 z m -205.371,-25.17 c -5.39,13.75 12.766,110.62 25.188,127.69 7.383,10.14 84.761,29.92 116.25,15.72 95.347,-43.02 77.105,-100.23 55.593,-99.04 -144.843,7.97 -184.187,-34.73 -197.031,-44.37 z m 249.766,170.92 c 2.082,-9 -6.836,-22.08 -18.582,-23.47 -11.758,-1.37 -37.278,7.58 -46.25,23.47 z m 172.754,-251.91 c -18.067,40.62 -88.567,199.12 -93.282,210.45 -5.417,12.99 0,17.33 6.497,23.83 6.503,6.5 52,56.33 52,56.33 0,0 -196.075,1.09 -215.579,1.09 -19.5,0 -30.339,-5.43 -36.843,-13 -6.492,-7.58 -18.899,-18.68 -48.157,-23.01 -29.246,-4.34 -81.011,-9.67 -87.761,-38.17 -6.914,-29.24 -27.532,-123.53 -9.617,-154.02 18.777,17.89 93.691,57.71 197.695,42 20,-3.02 52.449,-181 11.765,-320.81 l -380.253,247.01 c 0,0 -21.668,-41.17 -34.668,-57.42 -12.996,-16.25 -23.829,-44.41 18.418,-74.76 42.253,-30.33 133.253,-105.07 133.253,-105.07 l -210.175,57.41 c 0,0 -11.907,-21.67 -18.41,-41.16 -6.497,-19.51 -6.497,-68.26 48.75,-89.93 55.253,-21.66 164.675,-60.66 164.675,-60.66 l -231.8434,18.42 c 0,0 -2.1563,-20.58 -4.3243,-50.92 -2.1718,-30.33 10.8282,-63.92 46.5777,-68.25 35.747,-4.34 198.247,-27.08 198.247,-27.08 l -228.579,-50.92 c 0,0 15.168,-46.59 22.747,-67.17 7.585,-20.57 24.921,-33.59 76.921,-28.17 52.004,5.42 164.661,16.25 164.661,16.25 L 166.98,1194.37 c 0,0 29.25,-46.59 42.25,-67.17 12.997,-20.58 36.844,-24.91 63.915,-15.16 27.082,9.75 164.675,71.5 164.675,71.5 L 281.816,1039.45 c 0,0 31.426,-35.75 52,-56.329 20.579,-20.57 55.239,-15.172 71.489,0 16.25,15.168 102.925,77.999 102.925,77.999 l -26.003,-174.421 -168.997,-11.91 -1.082,-94.25 39.004,36.832 72.578,-6.492 -82.335,-86.68 71.503,-69.328 v 55.25 l 59.582,50.918 8.672,-126.75 112.657,3.262 c 0,0 -35.75,29.23 -43.329,37.898 -7.582,8.672 -8.671,22.75 -6.503,31.422 2.175,8.668 14.082,106.168 14.082,106.168 l 42.246,2.16 39.004,-36.82 -2.161,99.66 -58.496,11.91 56.328,224.251 c 17.325,-8.66 90.149,-41.14 127.825,-49.83 14.09,-3.25 1.09,-17.33 -14.075,-33.58 -15.175,-16.25 -10.832,-45.501 15.165,-74.751 -21.668,-31.41 -135.418,-234 -158.165,-423.59 l 51.997,-17.328 c 0,13 83.425,230.758 115.925,263.258 0,0 -37.91,-238.328 -39.004,-274.09 l 47.657,-7.59 c 0,0 42.558,269.602 43.34,301.172 0.039,1.551 0.078,3.34 0.117,5.117 V 1893.93" style="fill:#231f20;fill-opacity:1;fill-rule:nonzero;stroke:none" id="path38"/><path d="m 996.348,2024.63 c 4.732,11.43 11.882,24.41 27.752,27.92 -19.01,-46.66 13.97,-51.89 18.82,-52.46 -7.47,-6.25 -60.635,-22.65 -46.572,24.54 z m 67.012,121.21 c -8.98,-15.89 -34.49,-24.84 -46.25,-23.47 -11.76,1.39 -20.672,14.47 -18.587,23.47 z M 825.762,802.988 c 0.039,-1.777 0.078,-3.566 0.117,-5.117 0.781,-31.57 43.34,-301.172 43.34,-301.172 l 47.656,7.59 c -1.094,35.762 -38.992,274.09 -38.992,274.09 32.5,-32.5 115.918,-250.258 115.918,-263.258 l 51.999,17.328 c -22.75,189.59 -136.503,392.18 -158.171,423.59 25.992,29.25 30.34,58.501 15.176,74.751 -15.176,16.25 -28.176,30.33 -14.082,33.58 37.672,8.69 110.496,41.17 127.827,49.83 l 56.33,-224.251 -58.5,-11.91 -2.16,-99.66 39,36.82 42.25,-2.16 c 0,0 11.91,-97.5 14.08,-106.168 2.17,-8.672 1.07,-22.75 -6.51,-31.422 -7.57,-8.668 -43.33,-37.898 -43.33,-37.898 l 112.67,-3.262 8.67,126.75 59.57,-50.918 v -55.25 l 71.51,69.328 -82.33,86.68 72.58,6.492 39,-36.832 -1.08,94.25 -169,11.91 -26,174.421 c 0,0 86.67,-62.831 102.92,-77.999 16.25,-15.172 50.91,-20.57 71.49,0 20.57,20.579 52,56.329 52,56.329 l -156,144.09 c 0,0 137.59,-61.75 164.67,-71.5 27.08,-9.75 50.92,-5.42 63.91,15.16 13.01,20.58 42.26,67.17 42.26,67.17 l -201.5,101.83 c 0,0 112.65,-10.83 164.66,-16.25 52,-5.42 69.34,7.6 76.92,28.17 7.58,20.58 22.74,67.17 22.74,67.17 l -228.57,50.92 c 0,0 162.5,22.74 198.25,27.08 35.75,4.33 48.75,37.92 46.57,68.25 -2.16,30.34 -4.32,50.92 -4.32,50.92 l -231.84,-18.42 c 0,0 109.42,39 164.67,60.66 55.24,21.67 55.24,70.42 48.75,89.93 -6.5,19.49 -18.41,41.16 -18.41,41.16 l -210.18,-57.41 c 0,0 91.01,74.74 133.26,105.07 42.25,30.35 31.42,58.51 18.41,74.76 -12.99,16.25 -34.66,57.42 -34.66,57.42 l -380.25,-247.01 c -40.69,139.81 -8.24,317.79 11.77,320.81 103.99,15.71 178.92,-24.11 197.69,-42 17.92,30.49 -2.71,124.78 -9.62,154.02 -6.74,28.5 -58.52,33.83 -87.77,38.17 -29.24,4.33 -41.65,15.43 -48.15,23.01 -6.51,7.57 -17.34,13 -36.85,13 -19.49,0 -215.573,-1.09 -215.573,-1.09 0,0 45.5,-49.83 52.004,-56.33 6.504,-6.5 11.922,-10.84 6.504,-23.83 -4.731,-11.33 -75.227,-169.83 -93.293,-210.45 V 802.988" style="fill:#fcd205;fill-opacity:1;fill-rule:nonzero;stroke:none" id="path40"/><g id="g42"><g id="g44" clip-path="url(#clipPath48)"><path d="m 568.027,1146.34 c -137.656,137.36 -137.89,360.27 -0.539,497.92 137.367,137.64 360.285,137.88 497.942,0.52 137.64,-137.36 137.87,-360.27 0.52,-497.93 -137.364,-137.64 -360.286,-137.88 -497.923,-0.51" style="fill:#ffffff;fill-opacity:1;fill-rule:nonzero;stroke:none" id="path50"/><path d="m 575.73,1319.82 95.981,68.69 158.023,-76.64 c 7.153,-42.57 13.118,-85.72 15.461,-125.4 l -111.98,-63.67 c -34.074,12.23 -117.961,52.33 -135.625,67.3 -18.195,51.62 -22.043,100.66 -21.86,129.72 z m 86.973,221.15 c 47.785,44.22 117.024,70.12 141.652,79.3 0.508,0.19 0.926,0.34 1.399,0.53 27.207,-8.79 93.223,-33.61 129.351,-56.41 l 12.305,-152.66 c -23.394,-15.4 -80.855,-53.51 -116.531,-79.94 l -154.551,72.29 c -3.215,29.46 -11.687,108.29 -13.625,136.89 z m 287.27,28.36 c 12.183,8.58 33.621,20.53 53.087,25.76 19,-12.56 88.68,-60.24 115.33,-101.42 l 5.04,-114.65 -57.93,-39.74 c -36.57,39.97 -82.871,64.59 -98.273,72.11 l -16.434,158.02 z m -144.133,-538.31 -55.36,81.96 108.739,58.43 c 41.394,-11.69 106.711,-6.8 130.058,-4.51 l 22.133,-60.2 8.66,-0.37 -17.34,68.28 c 13.03,19.13 49.29,76.77 65.71,147.17 l 59.12,44.8 17.95,-37.86 58.75,51.41 -22.65,167.07 -61.74,-36.98 c -31.15,40.88 -89.75,83.59 -108.37,96.53 l -54.652,65.84 6.48,-3.64 21.32,36.44 -7.644,2.06 -26.633,-31.21 3.953,-2.23 c -13.277,7.29 -77.871,40.12 -137.422,24.06 -10.664,8.06 -46.199,35.7 -66.257,41.98 l -9.317,-8.78 c 16.121,-5.03 50.496,-32.05 62.598,-41.34 l -7.383,-55.15 c -27.402,-10.22 -99.316,-37.71 -148.535,-85.16 -20.625,1 -58.672,2.66 -81.223,2.54 -3.133,21.74 -5.379,55.29 3.781,85.31 l -14.082,4.62 c -9.101,-29.78 -10.207,-69.86 -8.066,-96.87 -9.523,-18.19 -36.66,-72.53 -45.586,-117.16 -0.519,-0.25 -1.055,-0.48 -1.609,-0.74 -13.926,-6.43 -35.012,-16.2 -49.524,-28.88 l 9.864,-11.16 c 10.585,9.24 29.335,13.6 43.054,18.23 10.18,-18.47 37.055,-65.76 57.871,-87.59 0.149,-31.22 4.7,-80.87 23.071,-132.75 l -39.438,-29.99 105.371,-130.99 154.348,6.83" style="fill:#231f20;fill-opacity:1;fill-rule:nonzero;stroke:none" id="path52"/><path d="m 575.73,1319.82 95.981,68.69 158.023,-76.64 c 7.153,-42.57 13.118,-85.72 15.461,-125.4 l -111.98,-63.67 c -34.074,12.23 -117.961,52.33 -135.625,67.3 -18.195,51.62 -22.043,100.66 -21.86,129.72 z m 86.973,221.15 c 47.785,44.22 117.024,70.12 141.652,79.3 0.508,0.19 0.926,0.34 1.399,0.53 27.207,-8.79 93.223,-33.61 129.351,-56.41 l 12.305,-152.66 c -23.394,-15.4 -80.855,-53.51 -116.531,-79.94 l -154.551,72.29 c -3.215,29.46 -11.687,108.29 -13.625,136.89 z m 287.27,28.36 c 12.183,8.58 33.621,20.53 53.087,25.76 19,-12.56 88.68,-60.24 115.33,-101.42 l 5.04,-114.65 -57.93,-39.74 c -36.57,39.97 -82.871,64.59 -98.273,72.11 l -16.434,158.02 z m -144.133,-538.31 -55.36,81.96 108.739,58.43 c 41.394,-11.69 106.711,-6.8 130.058,-4.51 l 22.133,-60.2 8.66,-0.37 -17.34,68.28 c 13.03,19.13 49.29,76.77 65.71,147.17 l 59.12,44.8 17.95,-37.86 58.75,51.41 -22.65,167.07 -61.74,-36.98 c -31.15,40.88 -89.75,83.59 -108.37,96.53 l -54.652,65.84 6.48,-3.64 21.32,36.44 -7.644,2.06 -26.633,-31.21 3.953,-2.23 c -13.277,7.29 -77.871,40.12 -137.422,24.06 -10.664,8.06 -46.199,35.7 -66.257,41.98 l -9.317,-8.78 c 16.121,-5.03 50.496,-32.05 62.598,-41.34 l -7.383,-55.15 c -27.402,-10.22 -99.316,-37.71 -148.535,-85.16 -20.625,1 -58.672,2.66 -81.223,2.54 -3.133,21.74 -5.379,55.29 3.781,85.31 l -14.082,4.62 c -9.101,-29.78 -10.207,-69.86 -8.066,-96.87 -9.523,-18.19 -36.66,-72.53 -45.586,-117.16 -0.519,-0.25 -1.055,-0.48 -1.609,-0.74 -13.926,-6.43 -35.012,-16.2 -49.524,-28.88 l 9.864,-11.16 c 10.585,9.24 29.335,13.6 43.054,18.23 10.18,-18.47 37.055,-65.76 57.871,-87.59 0.149,-31.22 4.7,-80.87 23.071,-132.75 l -39.438,-29.99 105.371,-130.99 z" style="fill:none;stroke:#231f20;stroke-width:7.80000019;stroke-linecap:butt;stroke-linejoin:miter;stroke-miterlimit:10;stroke-dasharray:none;stroke-opacity:1" id="path54"/></g></g><path d="m 568.027,1146.34 c -137.656,137.36 -137.89,360.27 -0.539,497.92 137.367,137.64 360.285,137.88 497.942,0.52 137.64,-137.36 137.87,-360.27 0.52,-497.93 -137.364,-137.64 -360.286,-137.88 -497.923,-0.51 z" style="fill:none;stroke:#231f20;stroke-width:20;stroke-linecap:butt;stroke-linejoin:miter;stroke-miterlimit:10;stroke-dasharray:none;stroke-opacity:1" id="path56"/><path d="m 1051.56,2019.75 c -21.9,-1.2 -40.46,57.02 56.57,100.79 32.04,14.45 110.77,-5.68 118.29,-16 12.62,-17.37 31.1,-115.94 25.63,-129.92 -13.08,9.81 -53.1,53.26 -200.49,45.13" style="fill:#231f20;fill-opacity:1;fill-rule:nonzero;stroke:none" id="path58"/><path d="m 1095.37,2040.99 c 41.33,2.64 80.76,-5.47 112.48,-9.65 -33.79,26.96 -103.22,38.94 -119.35,36.55 -16.15,-2.38 -19.49,-5.81 -17.94,-11.68 1.53,-5.88 5.59,-16.44 24.81,-15.22" style="fill:#fee802;fill-opacity:1;fill-rule:nonzero;stroke:none" id="path60"/><path d="m 21.0742,2252.95 h 1605.5 v 37.9805 h -1605.5 z" style="fill:#ffffff;fill-opacity:1;fill-rule:nonzero;stroke:none" id="path62"/><path d="m 474.465,115.859 h 58.816 V 99.1211 h -39.16 V 70.3594 h 31.367 V 53.9492 H 494.121 V 20.3086 h 41.594 V 3.41016 h -61.25 V 115.859" style="fill:#231f20;fill-opacity:1;fill-rule:nonzero;stroke:none" id="path64"/><path d="m 549.668,12.1914 7.324,14.7891 c 8.281,-6.0196 15.75,-8.9414 25.996,-8.9414 13.008,0 18.36,6.0117 18.36,15.7617 0,11.3711 -6.336,14.6211 -18.203,18.8476 -18.692,6.5 -28.75,13.8125 -28.75,34.293 0,20.9566 13.32,31.0276 33.464,31.0276 13,0 20.957,-2.758 28.762,-7.789 l -7.305,-14.9612 c -6.66,4.3906 -12.031,6.1792 -20,6.1792 -9.582,0 -15.261,-4.2183 -15.261,-13.3277 0,-9.4219 3.574,-12.5117 15.425,-16.7305 17.715,-6.0195 32.18,-12.3593 32.18,-36.0781 0,-19.0117 -9.101,-33.96092 -37.051,-33.96092 -14.14,0 -27.136,4.71094 -34.941,10.89062" style="fill:#231f20;fill-opacity:1;fill-rule:nonzero;stroke:none" id="path66"/><path d="m 659.465,98.9609 h -25.5 v 16.8981 h 70.359 V 98.9609 H 678.809 V 3.41016 H 659.465 V 98.9609" style="fill:#231f20;fill-opacity:1;fill-rule:nonzero;stroke:none" id="path68"/><path d="m 705.41,14.6211 c 0,7.1602 5.684,13 12.844,13 7.137,0 12.82,-5.8398 12.82,-13 0,-7.14063 -5.683,-12.83985 -12.82,-12.83985 -7.16,0 -12.844,5.69922 -12.844,12.83985" style="fill:#231f20;fill-opacity:1;fill-rule:nonzero;stroke:none" id="path70"/><path d="m 798.977,18.6914 h 19.832 v 72.6289 l -18.868,-9.4219 -5.671,10.7227 29.89,23.8909 h 13.809 V 18.6914 h 17.558 V 3.41016 h -56.55 V 18.6914" style="fill:#231f20;fill-opacity:1;fill-rule:nonzero;stroke:none" id="path72"/><path d="m 913.027,71.3398 3.575,-1.6289 c 10.886,5.5274 13,11.211 13,19.5 0,9.4297 -5.032,14.4611 -15.11,14.4611 -9.758,0 -14.304,-5.0314 -14.304,-14.6212 0,-7.8008 1.628,-12.8399 12.839,-17.711 z m -4.714,-16.8984 c -8.286,-4.5508 -12.512,-10.7305 -12.512,-20.6406 0,-13.332 6.504,-18.0391 18.523,-18.0391 12.024,0 17.387,6.0196 17.387,15.5977 0,8.9414 -2.277,14.9492 -14.145,19.6601 z M 876.785,32.9883 c 0,14.1328 6.828,22.582 19.985,28.2734 -12.832,6.6602 -15.918,16.9102 -15.918,27.2969 0,18.6914 13.164,29.4104 33.961,29.4104 20.636,0 33.632,-11.207 33.632,-28.7581 0,-11.539 -5.027,-19.832 -18.523,-25.832 16.738,-7.1601 21.777,-17.0703 21.777,-30.3906 0,-20.1485 -13.484,-31.68752 -37.375,-31.68752 -26.812,0 -37.539,14.46092 -37.539,31.68752" style="fill:#231f20;fill-opacity:1;fill-rule:nonzero;stroke:none" id="path74"/><path d="m 1020.39,73.7813 c 0,21.4375 -5.68,29.0777 -17.87,29.0777 -11.211,0 -16.415,-8.1207 -16.415,-22.7496 0,-15.2696 5.047,-21.9297 15.925,-21.9297 7.48,0 12.83,2.2695 18.04,6.8203 0.16,2.7695 0.32,5.6914 0.32,8.7813 z M 998.445,43.2188 c -18.679,0 -32.156,13.6523 -32.156,36.2421 0,24.6991 15.43,38.5081 36.401,38.5081 22.26,0 37.87,-15.27 37.87,-46.469 0,-42.8984 -19.67,-64.19141 -60.294,-71.5 l -3.899,14.3008 c 22.254,6.3398 36.383,13.1601 41.593,35.75 -5.37,-4.2305 -11.53,-6.832 -19.515,-6.832" style="fill:#231f20;fill-opacity:1;fill-rule:nonzero;stroke:none" id="path76"/><path d="m 1060.03,20.4688 c 37.85,35.75 44.51,49.0703 44.51,62.9023 0,12.5078 -4.87,18.0269 -15.92,18.0269 -9.26,0 -16.09,-3.0894 -23.07,-7.148 l -6.34,14.141 c 8.93,5.519 18.52,9.418 32.01,9.418 21.94,0 33.79,-11.7 33.79,-33.1488 0,-17.2305 -9.09,-35.2618 -43.21,-65.3204 h 45.01 V 3.41016 h -66.78 V 20.4688" style="fill:#231f20;fill-opacity:1;fill-rule:nonzero;stroke:none" id="path78"/></g></g></svg>