<svg xmlns="http://www.w3.org/2000/svg" xmlns:xlink="http://www.w3.org/1999/xlink" version="1.0" id="Ebene_1" x="0px" y="0px" width="467.717px" height="467.719px" viewBox="0 0 467.717 467.719" enable-background="new 0 0 467.717 467.719" xml:space="preserve">
<path fill-rule="evenodd" clip-rule="evenodd" fill="#DDC900" d="M233.859,0c128.78,0,233.858,105.08,233.858,233.795  c0,128.84-105.078,233.923-233.858,233.923C105.08,467.719,0,362.636,0,233.795C0,105.08,105.08,0,233.859,0L233.859,0z"/>
<path fill-rule="evenodd" clip-rule="evenodd" fill="#009535" d="M233.859,460.18c124.626,0,226.321-101.694,226.321-226.384  c0-124.564-101.694-226.257-226.321-226.257S7.538,109.231,7.538,233.795C7.538,358.485,109.232,460.18,233.859,460.18  L233.859,460.18z"/>
<path fill-rule="evenodd" clip-rule="evenodd" fill="#DDC900" d="M233.859,94.285c76.846,0,139.509,62.728,139.509,139.51  c0,76.907-62.663,139.573-139.509,139.573c-76.846,0-139.575-62.666-139.575-139.573C94.284,157.013,157.013,94.285,233.859,94.285  L233.859,94.285z"/>
<path fill-rule="evenodd" clip-rule="evenodd" fill="#FFFFFF" d="M233.859,365.834c72.693,0,131.973-59.282,131.973-132.039  c0-72.629-59.28-131.973-131.973-131.973s-132.038,59.343-132.038,131.973C101.821,306.552,161.166,365.834,233.859,365.834  L233.859,365.834z"/>
<path fill-rule="evenodd" clip-rule="evenodd" fill="#DDC900" d="M340.24,219.212c-0.642-8.291-2.064-17.021-4.211-25.947  c0.005-1.518,0.532-2.714,1.25-4.333c0.908-2.044,2.036-4.59,2.078-8.18c0.002-0.144,0.004-0.287,0.004-0.431  c0-9.924-6.924-23.015-15.295-28.775c-5.223-3.592-10.703-4.385-15.85-2.292c-1.77,0.72-3.016,1.642-4.019,2.381  c-1.489,1.103-1.553,1.085-2.314,0.874c-1.374-0.362-2.725-1.211-4.434-2.286c-3.447-2.167-8.167-5.136-16.685-6.428  c-12.908-1.903-24.863,4.974-30.474,17.518l-1.465,3.278l3.296,1.427c22.661,9.813,38.12,29.505,41.357,52.677  c0.415,2.966,0.62,5.919,0.62,8.847c0,18.463-8.226,35.865-23.19,49.122c-8.182-7.793-10.66-19.063-11.191-27.5  c-0.084-1.313-0.125-2.642-0.125-3.975c0-15.104,5.166-31.208,12.674-38.716l1.543-1.543l-0.682-2.073  c-3.289-10.032-12.847-21.228-24.08-22.218c-3.591-0.314-9.807,0.409-15.197,6.991c-5.42-6.592-11.656-7.31-15.256-6.987  c-11.233,1.002-20.786,12.195-24.072,22.214l-0.681,2.079l1.55,1.542c7.516,7.485,12.698,23.604,12.698,38.716  c0,1.299-0.038,2.588-0.116,3.862c-0.518,8.472-2.983,19.78-11.172,27.607c-14.98-13.252-23.211-30.649-23.211-49.111  c0-2.916,0.204-5.858,0.615-8.813c3.231-23.188,18.704-42.896,41.389-52.722l3.312-1.435l-1.49-3.287  c-5.675-12.519-17.651-19.39-30.512-17.504c-8.534,1.295-13.254,4.263-16.7,6.431c-1.71,1.075-3.061,1.924-4.382,2.271  c-0.83,0.229-0.875,0.243-2.356-0.863c-0.985-0.736-2.211-1.652-3.946-2.37c-5.176-2.096-10.656-1.31-15.869,2.264  c-9.253,6.341-15.356,19.99-15.356,28.942c0,0.101,0.001,0.2,0.003,0.298c0.041,3.603,1.185,6.16,2.106,8.216  c0.723,1.613,1.249,2.81,1.273,4.323c-2.173,8.795-3.612,17.51-4.264,25.906l-0.011,0.137v21.173l0.012,0.142  c3.792,46.318,32.595,82.056,77.049,95.601l1.868,0.571l1.481-1.274c12.856-11.06,21.183-19.297,26.029-28.271  c4.829,8.994,13.174,17.227,26.069,28.276l1.479,1.265l1.863-0.566c44.477-13.55,73.259-49.292,76.986-95.605l0.013-0.142v-21.168  L340.24,219.212L340.24,219.212z"/>
<path fill-rule="evenodd" clip-rule="evenodd" fill="#009535" d="M332.486,193.68c-0.192-4.983,3.258-7.283,3.323-12.967  c0.254-12.394-12.905-33.601-26.255-28.171c-3.77,1.533-4.727,4.471-8.625,3.385c-5.11-1.342-8.494-6.771-20.696-8.623  c-12.136-1.788-22.103,5.173-26.699,15.459c48.675,21.079,60.811,83.105,17.373,118.687c-23.06-17.886-15.97-62.666-1.149-77.485  c-5.174-15.777-25.169-30.023-35.899-10.029c-10.796-19.994-30.79-5.748-35.963,10.029c14.884,14.819,21.911,59.6-1.086,77.485  c-43.501-35.581-31.3-97.607,17.375-118.687c-4.663-10.286-14.564-17.247-26.765-15.459c-12.201,1.852-15.587,7.281-20.697,8.623  c-3.896,1.086-4.854-1.852-8.56-3.385c-13.414-5.43-26.51,15.777-26.318,28.171c0.064,5.684,3.513,7.983,3.386,12.967  c-2.236,8.942-3.641,17.565-4.28,25.807v20.889c3.832,46.821,33.665,80.039,74.547,92.495c15.521-13.35,24.783-22.612,28.361-34.751  c3.513,12.139,12.776,21.401,28.362,34.751c40.881-12.456,70.713-45.674,74.482-92.495v-20.889  C336.063,211.245,334.657,202.622,332.486,193.68L332.486,193.68z"/>
<polygon fill-rule="evenodd" clip-rule="evenodd" fill="#DDC900" points="78.123,211.948 63.304,208.499 56.916,198.598   83.105,190.423 86.108,177.582 51.614,190.166 36.73,167.234 33.665,180.585 50.848,205.625 29,200.578 26.767,210.543   75.888,221.786 78.123,211.948 "/>
<polygon fill-rule="evenodd" clip-rule="evenodd" fill="#DDC900" points="84.958,159.569 93.454,164.104 97.99,155.545   89.494,151.009 84.958,159.569 "/>
<path fill-rule="evenodd" clip-rule="evenodd" fill="#DDC900" d="M81.381,112.809c2.875,2.747,6.388,4.025,10.54,3.705  c2.939-0.19,6.772-1.787,11.563-4.791c3.705-2.299,6.068-3.769,7.218-4.343c1.661-0.832,3.003-1.213,4.088-1.086  c1.085,0.064,2.108,0.512,2.938,1.343c1.341,1.278,1.916,3.002,1.789,5.173c-0.191,2.108-1.405,4.408-3.643,6.771  c-2.17,2.236-4.47,3.45-6.834,3.642c-2.362,0.255-4.982-0.575-7.792-2.428l-6.198,7.793c4.536,3.386,9.071,4.919,13.542,4.536  c4.472-0.447,8.943-2.938,13.352-7.538c3.065-3.13,5.173-6.195,6.323-9.135c1.15-2.938,1.341-5.876,0.703-8.814  c-0.703-2.875-2.108-5.366-4.216-7.346c-2.235-2.236-4.664-3.578-7.154-4.152c-2.492-0.513-4.983-0.384-7.538,0.446  c-2.556,0.832-6.005,2.621-10.284,5.431c-4.215,2.683-7.218,4.151-8.88,4.343c-1.341,0.127-2.427-0.191-3.257-1.021  c-0.959-0.895-1.343-2.045-1.151-3.321c0.32-2.045,1.47-4.153,3.514-6.261c1.98-2.108,3.896-3.257,5.749-3.513  c1.789-0.191,3.77,0.383,5.941,1.917l6.771-7.665c-3.449-3.066-7.282-4.472-11.497-4.09c-4.216,0.385-8.561,2.875-12.904,7.411  c-2.683,2.747-4.6,5.558-5.685,8.368c-1.022,2.748-1.278,5.43-0.638,8.049C78.314,108.849,79.528,111.021,81.381,112.809  L81.381,112.809z"/>
<polygon fill-rule="evenodd" clip-rule="evenodd" fill="#DDC900" points="159.376,95.945 154.713,87.45 146.217,92.177   150.944,100.609 159.376,95.945 "/>
<polygon fill-rule="evenodd" clip-rule="evenodd" fill="#DDC900" points="230.281,25.744 226.896,61.644 213.865,27.788   201.855,29.256 196.937,64.773 185.12,31.3 174.834,32.578 192.912,81.126 203.836,79.784 209.201,41.201 223.766,77.356   234.497,76.016 240.438,24.53 230.281,25.744 "/>
<path fill-rule="evenodd" clip-rule="evenodd" fill="#DDC900" d="M286.623,33.28l-3.26,4.281l-29.512,38.709l10.415,3.003  l7.153-9.837l11.943,3.385l7.412,2.173l1.084,12.2l10.605,3.066l-5.496-54.041L286.623,33.28L286.623,33.28z M283.363,64.005  l-6.643-1.916l6.643-9.069l5.109-7.028l1.533,19.93L283.363,64.005L283.363,64.005z"/>
<path fill-rule="evenodd" clip-rule="evenodd" fill="#DDC900" d="M336.19,88.855l1.597,1.278c1.854,1.468,3.066,2.682,3.706,3.64  s0.96,2.107,1.087,3.513c0.129,1.405,0.063,4.471-0.32,9.134l-0.959,13.159l9.582,7.538l1.086-10.221l0.13-1.342  c0.511-4.599,0.638-7.92,0.511-10.028c-0.13-1.086-0.32-2.236-0.641-3.449c-0.256-1.023-0.637-2.108-1.086-3.195  c0.386,0.192,0.703,0.383,1.086,0.575c3.45,1.725,6.709,2.365,9.646,1.854c3.257-0.575,6.069-2.363,8.433-5.303  c1.787-2.363,2.874-4.917,3.13-7.601c0.256-2.746-0.256-5.239-1.66-7.474c-1.343-2.171-4.152-4.982-8.433-8.24l-11.116-8.752  l-5.749-4.47l-31.045,39.732l8.05,6.26L336.19,88.855L336.19,88.855z M349.029,72.438l2.939,2.363l3.323,2.555  c3.193,2.555,5.11,4.089,5.684,4.729c1.152,1.212,1.79,2.49,1.853,3.896c0.064,1.405-0.446,2.747-1.469,4.088  c-0.957,1.151-1.98,1.98-3.131,2.3c-1.149,0.384-2.363,0.384-3.576-0.063c-0.576-0.191-1.47-0.703-2.684-1.47  c-1.276-0.894-2.939-2.108-4.919-3.641l-5.94-4.663L349.029,72.438L349.029,72.438z"/>
<polygon fill-rule="evenodd" clip-rule="evenodd" fill="#DDC900" points="366.088,149.987 371.645,158.483 406.776,135.678   414.889,148.197 422.045,143.535 400.26,109.936 393.107,114.598 401.22,127.182 366.088,149.987 "/>
<path fill-rule="evenodd" clip-rule="evenodd" fill="#DDC900" d="M380.907,177.007l2.62,10.477l12.136,1.278l4.854,19.547  l-10.029,7.026l2.683,10.666l21.336-15.329l22.678-16.354l-2.619-10.476l-20.059-2.555L380.907,177.007L380.907,177.007z   M424.408,191.828l-9.902,6.77l-6.514,4.472l-3.322-13.35l9.836,1.021L424.408,191.828L424.408,191.828z"/>
<path fill-rule="evenodd" clip-rule="evenodd" fill="#DDC900" d="M65.604,266.308c0-6.514-5.302-11.753-11.754-11.753  c-6.515,0-11.816,5.239-11.816,11.753c0,6.519,5.301,11.753,11.816,11.753C60.302,278.061,65.604,272.826,65.604,266.308  L65.604,266.308z"/>
<path fill-rule="evenodd" clip-rule="evenodd" fill="#DDC900" d="M413.485,255.131c-6.517,0-11.819,5.303-11.819,11.753  c0,6.514,5.303,11.816,11.819,11.816c6.452,0,11.753-5.303,11.753-11.816C425.238,260.434,419.938,255.131,413.485,255.131  L413.485,255.131z"/>
<path fill-rule="evenodd" clip-rule="evenodd" fill="#DDC900" d="M115.747,341.239c-0.767-1.792-3.065-5.176-6.834-10.029  L98.82,318.368l-1.981,1.533l-37.687,29.512l6.26,7.988l14.949-11.689l4.087,5.234c2.81,3.579,5.173,6.26,7.091,7.856  c1.405,1.152,3.13,2.046,5.11,2.686c0.063,0,0.128,0,0.19,0.063c1.916,0.576,4.089,0.64,6.389,0.254  c2.363-0.444,4.727-1.597,7.155-3.447c3.193-2.49,5.174-5.303,5.94-8.369C117.153,346.859,116.897,343.983,115.747,341.239  L115.747,341.239z M106.422,346.093c-0.256,1.533-1.151,2.939-2.62,4.023c-1.15,0.957-2.428,1.47-3.77,1.533  c-1.086,0.063-2.172-0.127-3.194-0.64c-0.254-0.063-0.509-0.19-0.702-0.317c-1.277-0.767-3.129-2.749-5.621-5.874l-3.385-4.409  l9.708-7.539l1.534-1.279l3.066,3.896c2.235,2.876,3.64,4.922,4.216,6.006C106.422,342.963,106.678,344.496,106.422,346.093  L106.422,346.093z"/>
<path fill-rule="evenodd" clip-rule="evenodd" fill="#DDC900" d="M153.436,369.789c-3.514-2.104-6.963-3.447-10.35-3.892  c-0.956-0.195-1.915-0.195-2.937-0.195c-1.597,0-3.258,0.259-4.983,0.703c-2.746,0.703-5.301,1.919-7.6,3.516  c-3.068,2.173-5.942,5.493-8.625,9.897c-4.153,6.836-5.493,13.418-4.025,19.614c1.405,6.196,5.366,11.24,11.753,15.073  c4.536,2.749,9.008,4.023,13.479,3.96c1.788,0,3.578-0.254,5.301-0.703c6.196-1.66,11.371-6.001,15.522-12.964  c4.216-7.026,5.622-13.672,4.153-19.932C163.72,378.607,159.823,373.559,153.436,369.789L153.436,369.789z M152.094,399.174  c-3.002,4.985-6.387,8.115-10.156,9.263c-0.574,0.195-1.213,0.317-1.788,0.449c-3.066,0.508-6.068-0.132-9.008-1.855  c-3.448-2.104-5.557-5.044-6.323-8.94s0.383-8.306,3.321-13.159c2.938-4.98,6.323-8.047,9.966-9.199  c0.703-0.19,1.342-0.381,2.044-0.444c3.001-0.449,5.941,0.19,8.879,1.978c3.577,2.173,5.749,5.112,6.452,8.882  C156.183,389.853,155.033,394.193,152.094,399.174L152.094,399.174z"/>
<polygon fill-rule="evenodd" clip-rule="evenodd" fill="#DDC900" points="186.717,395.087 209.777,399.56 177.518,426.645   175.794,435.648 215.973,443.446 217.633,435.077 189.463,429.647 223.063,401.537 224.533,393.744 188.313,386.718   186.717,395.087 "/>
<polygon fill-rule="evenodd" clip-rule="evenodd" fill="#DDC900" points="267.971,388.314 274.42,421.405 247.719,392.279   238.01,394.13 247.655,443.637 256.918,441.845 250.658,409.589 276.848,437.948 286.877,436.034 277.297,386.527 267.971,388.314   "/>
<path fill-rule="evenodd" clip-rule="evenodd" fill="#DDC900" d="M317.221,368.896l-9.199,5.498l9.133,53.335l9.199-5.557h0.064  l-0.064-0.127l-2.299-11.816l2.299-1.406l15.013-9.009l9.644,7.603l9.52-5.747l-34.176-25.874L317.221,368.896L317.221,368.896z   M334.213,394.257l-7.859,4.663l-3.959,2.427l-3.834-19.546l7.793,6.196L334.213,394.257L334.213,394.257z"/>
<polygon fill-rule="evenodd" clip-rule="evenodd" fill="#DDC900" points="362.828,325.59 389.403,346.288 350.116,341.811   344.049,349.608 383.781,380.653 389.594,373.241 363.658,352.992 402.113,357.206 408.373,349.159 368.642,318.114 362.828,325.59   "/>
<polygon fill-rule="evenodd" clip-rule="evenodd" fill="#DDC900" points="352.545,335.297 354.543,333.09 356.379,331.083   352.545,320.16 349.799,323.163 349.797,323.163 349.481,323.51 349.159,323.861 349.159,323.866 346.156,327.187 352.545,335.297   "/>
</svg>