<svg xmlns="http://www.w3.org/2000/svg" version="1.1" width="193.09px" height="250px" viewBox="0 0 193.09 250">
<ellipse transform="matrix(0.7071 -0.7071 0.7071 0.7071 -80.1938 113.1959)" cx="96.54" cy="153.4" rx="96.35" ry="96.35"/>
<ellipse transform="matrix(0.7071 -0.7071 0.7071 0.7071 -80.193 113.1957)" fill="#FFFFFF" cx="96.54" cy="153.4" rx="86.35" ry="86.35"/>
<path fill="#C60C30" d="M96.54,74.38c-43.64,0-79.02,35.38-79.02,79.02c0,43.64,35.38,79.02,79.02,79.02  c43.64,0,79.02-35.38,79.02-79.02C175.56,109.76,140.18,74.38,96.54,74.38"/>
<path fill="#FFFFFF" d="M83.83,92.96L83.24,90l2.65,2.55l1.93-0.38l-3.08-2.86c0.87-0.51,1.31-1.5,1.1-2.58  c-0.17-0.85-0.76-1.55-1.54-1.82c-0.63-0.21-1.39-0.13-2.19,0.03l-1.45,0.29l1.6,8.05L83.83,92.96z M83.25,86.31  c0.82,0,1.01,0.4,1.08,0.75c0.08,0.41,0,0.7-0.28,0.92c-0.3,0.24-0.77,0.36-1.12,0.43l-0.4-2.02C82.8,86.34,83.04,86.31,83.25,86.31   M61.33,97.62c0.23,0,0.48-0.02,0.79-0.06l0.56-0.08c0.17-0.03,0.4-0.06,0.6-0.06c0.45,0,0.73,0.13,0.92,0.45  c0.33,0.55,0.19,1.21-0.31,1.52c-0.54,0.32-1.22,0.17-1.53-0.35l-0.21-0.36l-1.23,1.16l0.19,0.24c0.54,0.67,1.32,1.06,2.15,1.06  c0.48,0,0.95-0.14,1.37-0.39c1.34-0.81,1.75-2.41,0.95-3.72c-0.49-0.81-1.22-1.21-2.21-1.21c-0.27,0-0.57,0.03-0.91,0.09L61.87,96  c-0.74,0.14-1.02-0.07-1.11-0.22c-0.25-0.41,0.08-0.91,0.41-1.11c0.37-0.23,0.67-0.23,1.07-0.01l0.29,0.16l0.71-1.36l-0.28-0.16  c-0.84-0.47-1.77-0.45-2.59,0.04c-1.06,0.64-1.77,2.01-1,3.28C59.8,97.29,60.43,97.62,61.33,97.62 M79.65,93.95l-0.48-1.45  l-2.95,0.97l-0.68-2.08l2.87-0.94L77.93,89l-2.87,0.94l-0.45-1.37l2.95-0.97l-0.48-1.45l-4.48,1.47l2.56,7.8L79.65,93.95z   M67.15,91.6l2.81,6.06l1.46-0.68l-2.81-6.06l1.63-0.75l-0.64-1.38l-4.71,2.18l0.64,1.38L67.15,91.6z M60.57,103.17l-0.94-1.2  l-2.45,1.91l-1.34-1.72l2.38-1.86l-0.94-1.2l-2.38,1.86l-0.89-1.14l2.45-1.91l-0.94-1.2l-3.72,2.9l5.05,6.47L60.57,103.17z   M89.65,91.92l1.6-0.09l-0.27-5.12l5.96,5.63l-0.47-9l-1.61,0.08l0.27,5.07l-5.96-5.63L89.65,91.92z M143.46,113.28l2.65-2.33  l5.3-1.06l-1.22-1.39l-3.26,0.66l1.07-3.15l-1.22-1.39l-1.73,5.12l-2.65,2.33L143.46,113.28z M128.96,100.82l2.83-4.26l1.43,8.07  l4.99-7.51l-1.34-0.89l-2.81,4.22l-1.44-8.07l-5.01,7.55L128.96,100.82z M139.39,108.91l1.02-1.14l-2.33-2.07l1.45-1.63l2.26,2.01  l1.01-1.14l-2.26-2.01l0.96-1.08l2.33,2.06l1.02-1.14l-3.53-3.13l-5.45,6.14L139.39,108.91z M107.09,92.71  c0.18,0.03,0.35,0.04,0.52,0.04c1.33,0,2.42-0.91,2.65-2.22c0.27-1.54-0.72-2.36-1.61-2.9l-0.5-0.3c-0.69-0.41-0.73-0.71-0.69-0.9  c0.08-0.47,0.63-0.64,1.04-0.57c0.42,0.07,0.65,0.27,0.82,0.7l0.12,0.31l1.43-0.55l-0.11-0.31c-0.32-0.9-1.04-1.51-1.97-1.67  c-0.17-0.03-0.34-0.04-0.51-0.04c-1.24,0-2.2,0.75-2.39,1.86c-0.21,1.23,0.6,1.96,1.44,2.5l0.47,0.31c0.63,0.4,0.98,0.74,0.89,1.29  c-0.11,0.62-0.64,1.04-1.24,0.94c-0.32-0.06-0.59-0.22-0.76-0.47c-0.16-0.24-0.22-0.51-0.17-0.8l0.08-0.41l-1.69,0.06l-0.01,0.31  C104.82,91.29,105.75,92.48,107.09,92.71 M113.9,94.12l1.54,0.47l1.03-3.37l3.96-3.68L118.66,87l-2.43,2.27l-0.74-3.24l-1.77-0.55  l1.21,5.27L113.9,94.12z M121.42,96.87c0.8,0.38,1.6,0.56,2.35,0.56c1.58,0,2.84-0.85,3.56-2.39c1.04-2.24,0.09-4.44-2.43-5.61  l-1.72-0.8l-3.45,7.45L121.42,96.87z M124,90.7c0.9,0.42,1.52,0.92,1.86,1.49c0.39,0.65,0.38,1.37,0,2.21  c-0.46,0.99-1.15,1.46-2.12,1.46c-0.57,0-1.21-0.16-1.91-0.49L124,90.7z M135.42,206.12c-0.33,0-0.7,0.05-1.14,0.16l-0.56,0.14  c-0.23,0.06-0.41,0.09-0.57,0.09c-0.35,0-0.49-0.13-0.56-0.23c-0.15-0.21-0.12-0.43-0.07-0.58c0.06-0.21,0.22-0.42,0.41-0.55  c0.35-0.25,0.65-0.27,1.07-0.08l0.3,0.13l0.62-1.4l-0.29-0.14c-0.86-0.41-1.8-0.33-2.58,0.21c-0.54,0.38-0.92,0.9-1.09,1.49  c-0.18,0.64-0.07,1.3,0.31,1.85c0.42,0.59,1,0.88,1.77,0.88c0.29,0,0.61-0.04,1.01-0.13l0.56-0.12c0.22-0.05,0.48-0.1,0.73-0.1  c0.37,0,0.62,0.12,0.81,0.39c0.37,0.52,0.28,1.2-0.21,1.54c-0.51,0.36-1.21,0.25-1.55-0.25l-0.24-0.34l-1.16,1.24l0.21,0.23  c0.54,0.59,1.28,0.92,2.04,0.92c0.54,0,1.06-0.17,1.52-0.49c1.28-0.9,1.58-2.52,0.7-3.77C136.97,206.47,136.3,206.12,135.42,206.12   M91.3,215.09l-1.89-0.12l-0.54,8.19l1.86,0.12c0.15,0.01,0.31,0.02,0.46,0.02c2.55,0,4.24-1.47,4.4-3.85  C95.75,216.99,94.07,215.28,91.3,215.09 M91.02,221.76c-0.15,0-0.29-0.01-0.44-0.02l0.34-5.14c2.15,0.14,3.18,1.08,3.06,2.79  C93.87,220.96,92.88,221.76,91.02,221.76 M101.19,221.83l-0.17-2.18l3-0.23l-0.11-1.52l-3.01,0.23l-0.11-1.44l3.1-0.24l-0.12-1.52  l-4.7,0.36l0.62,8.18l4.7-0.36l-0.12-1.52L101.19,221.83z M112.41,215.86c-0.18-0.85-0.78-1.54-1.57-1.8  c-0.63-0.2-1.39-0.11-2.19,0.06l-1.44,0.31l1.72,8.02l1.57-0.33l-0.63-2.95l2.69,2.51l1.92-0.41l-3.13-2.81  C112.21,217.93,112.64,216.93,112.41,215.86 M110.63,217.14c-0.3,0.25-0.76,0.37-1.1,0.44l-0.43-2.02c1.14-0.23,1.66-0.03,1.81,0.65  C110.99,216.63,110.91,216.92,110.63,217.14 M128.36,209.4c-0.4-0.77-1.16-1.28-2-1.32l-0.08,0c-0.76,0-1.45,0.36-2.01,0.65  l-1.31,0.68l3.8,7.27l1.42-0.74l-1.39-2.68l3.26,1.71l1.74-0.91l-3.76-1.87C128.73,211.45,128.87,210.37,128.36,209.4   M126.05,211.83L125.1,210c1.01-0.51,1.58-0.49,1.91,0.15C127.35,210.8,127.07,211.29,126.05,211.83 M119.14,218.15l-0.74-2.05  l2.84-1.02l-0.52-1.44l-2.84,1.02l-0.49-1.36l2.92-1.05l-0.52-1.44l-4.43,1.6l2.78,7.72l4.43-1.6l-0.52-1.44L119.14,218.15z   M82.99,219.03l-4.12-7.08l-2.1,8.82l1.56,0.37l1.19-4.98l4.12,7.08l2.09-8.77l-1.56-0.37L82.99,219.03z M48.31,107.82l5.46,2.24  l-4.11-8.87l-1.19,1.27l2.2,4.67l-5.51-2.27l2.58,5.37l-4.78-1.94l-1.19,1.26l9.09,3.6L48.31,107.82z M68.04,208.62l-1.46-0.94  l-4.18,3.03l1.22-5.84l-4.81,3.53l1.02-5.06l-1.46-0.94l-1.87,9.6l4.77-3.49l-1.2,5.79L68.04,208.62z M65.42,216.34l1.61,0.69  l1.53-1.4l2.79,1.19l0.05,2.08l1.6,0.68l-0.27-9.88L65.42,216.34z M69.78,214.49l1.5-1.41l0.02,2.06L69.78,214.49z M84.59,186.3  c-2.98-1.58-5.57-3.85-6.77-5.22c-2-2.28-3.54-4.91-3.98-5.65l-20.3-34.76c-0.12-0.2-0.33-0.32-0.55-0.32h-8.14  c-0.23,0-0.44,0.12-0.56,0.32c-0.11,0.2-0.11,0.44,0,0.64l33.28,56.99L84.59,186.3z M135.37,123.74c-0.23,0-0.44,0.12-0.55,0.32  l-17.05,29.2c2.02,3.25,3.14,6.92,3.29,10.83l22.98-39.35c0.07-0.1,0.11-0.23,0.11-0.35c0-0.35-0.29-0.64-0.64-0.64H135.37z   M148.24,140.35h-8.14c-0.23,0-0.44,0.12-0.55,0.32l-24.04,41.17l-7.41-12.69c-0.21-0.4-1.03-1.84-2.21-3.78  c-2.32-3.82-6.68-8.42-13.69-8.56l-4.53,7.75c0.4,4.79,4.03,6.89,5.32,7.36l3.55-6.08l18.96,32.47l33.27-56.96  c0.07-0.1,0.11-0.22,0.11-0.35C148.88,140.63,148.59,140.35,148.24,140.35 M99.63,141.55c1.13,0.23,2.22,0.51,3.29,0.84  c0.06,0.02,0.13,0.04,0.2,0.06c2.74,0.85,5.25,2.03,7.48,3.51L97.9,124.21c-0.12-0.2-0.32-0.32-0.55-0.32  c-0.23,0-0.44,0.12-0.55,0.32l-19.22,32.92l-19.32-33.08c-0.11-0.2-0.32-0.32-0.55-0.32h-8.13c-0.23,0-0.44,0.12-0.56,0.32  c-0.11,0.2-0.11,0.44,0,0.64l28.49,48.79c0.02,0.04,0.04,0.08,0.06,0.12l0,0l0.01-0.01v0l19.77-33.85c0,0,0.7,1.2,0.89,1.53  L99.63,141.55z M76.44,132.33c-0.08,4.4,1.32,8.41,3.97,11.77c0.12,0.15,0.24,0.3,0.36,0.45l4.74-8.11  c-0.1-0.21-0.18-0.43-0.26-0.63c-0.4-1.09-0.51-2.16-0.48-3.39c0.12-6.09,5.64-11.36,12.53-11.36c6.89,0,12.35,5.12,12.58,11.69  l5.45-9.35c0.11-0.19,0.11-0.42,0.01-0.61c-3.55-6.01-10.18-10.03-17.88-10.03C86.01,112.76,76.64,121.58,76.44,132.33   M98.03,176.62c-0.51,0.06-1.04,0.1-1.57,0.1c-5.18,0-9.75-2.97-11.7-7.2l-4.43,7.58c-0.14,0.24-0.11,0.54,0.07,0.74l0.04,0.05  c3.84,4.34,9.59,7.12,16.02,7.12c2.08,0,4.08-0.3,5.97-0.85L98.03,176.62z M109.42,163.18l5.91,10.12c1.21-2.53,1.89-5.35,1.89-8.31  c0-9.78-7.29-17.49-18.33-19.64l-4.37,7.48C102.09,153.84,106.77,158.92,109.42,163.18 M101.61,194.65c0.77,0,1.17,0.49,1.33,1.12  h1.56c-0.27-1.64-1.42-2.49-2.9-2.49c-0.86,0-1.57,0.31-2.12,0.86c-0.8,0.8-0.78,1.78-0.78,3.15c0,1.35-0.02,2.34,0.78,3.14  c0.55,0.55,1.26,0.86,2.12,0.86c1.46,0,2.62-0.84,2.9-2.49h-1.56c-0.15,0.63-0.55,1.12-1.33,1.12c-0.42,0-0.76-0.15-0.99-0.41  c-0.3-0.33-0.39-0.71-0.39-2.22c0-1.52,0.09-1.89,0.39-2.23C100.85,194.8,101.19,194.65,101.61,194.65 M94.53,194.72v-1.37h-5.18  v7.87h1.53v-3.2h3.11v-1.37h-3.11v-1.94H94.53z"/>
<polygon fill="#D2AF3E" points="96.54,0.25 101.16,14.47 116.11,14.47 104.02,23.26 108.64,37.48 96.54,28.69 84.45,37.48   89.07,23.26 76.97,14.47 91.92,14.47 "/>
</svg>