<svg xmlns:dc="http://purl.org/dc/elements/1.1/" xmlns:cc="http://creativecommons.org/ns#" xmlns:rdf="http://www.w3.org/1999/02/22-rdf-syntax-ns#" xmlns:svg="http://www.w3.org/2000/svg" xmlns="http://www.w3.org/2000/svg" xmlns:sodipodi="http://sodipodi.sourceforge.net/DTD/sodipodi-0.dtd" xmlns:inkscape="http://www.inkscape.org/namespaces/inkscape" version="1.0" id="Ebene_1" x="0px" y="0px" width="252" height="252" viewBox="0 0 252 252" enable-background="new 0 0 396.85 396.85" xml:space="preserve" sodipodi:docname="Rizespor.svg" inkscape:version="0.92.4 (5da689c313, 2019-01-14)"><metadata id="metadata75"><rdf:RDF><cc:Work rdf:about=""><dc:format>image/svg+xml</dc:format><dc:type rdf:resource="http://purl.org/dc/dcmitype/StillImage"/><dc:title/></cc:Work></rdf:RDF></metadata><defs id="defs73"/><sodipodi:namedview pagecolor="#ffffff" bordercolor="#666666" borderopacity="1" objecttolerance="10" gridtolerance="10" guidetolerance="10" inkscape:pageopacity="0" inkscape:pageshadow="2" inkscape:window-width="1366" inkscape:window-height="705" id="namedview71" showgrid="false" fit-margin-top="1" fit-margin-bottom="1" fit-margin-right="1" fit-margin-left="1" inkscape:zoom="0.59468312" inkscape:cx="114.50583" inkscape:cy="199.425" inkscape:window-x="-8" inkscape:window-y="-8" inkscape:window-maximized="1" inkscape:current-layer="Ebene_1"/>

































<g id="g111" transform="matrix(0.62996094,0,0,0.62996094,1,1)"><path id="path2" d="M 198.425,396.85 C 307.692,396.85 396.85,307.692 396.85,198.425 396.85,89.158 307.692,0 198.425,0 89.157,0 0,89.158 0,198.425 0,307.692 89.157,396.85 198.425,396.85 Z" inkscape:connector-curvature="0" style="fill:#008bd0"/><path id="path4" d="m 198.425,386.165 c 103.42,0 187.74,-84.319 187.74,-187.74 0,-103.421 -84.319,-187.74 -187.74,-187.74 -103.421,0 -187.74,84.319 -187.74,187.74 0,103.421 84.319,187.74 187.74,187.74 z" inkscape:connector-curvature="0" style="fill:#ffffff"/><path id="path6" d="m 198.425,305.475 c 58.917,0 107.049,-48.132 107.049,-107.05 0,-58.918 -48.132,-107.05 -107.049,-107.05 -58.917,0 -107.05,48.132 -107.05,107.049 0,58.917 48.132,107.051 107.05,107.051 z" inkscape:connector-curvature="0" style="fill:#009430"/><path id="path8" d="m 198.425,294.84 c 53.071,0 96.415,-43.344 96.415,-96.416 0,-53.072 -43.344,-96.415 -96.415,-96.415 -53.072,0 -96.416,43.344 -96.416,96.415 0,53.071 43.344,96.416 96.416,96.416 z" inkscape:connector-curvature="0" style="fill:#ffffff"/><path id="path10" d="m 197.165,274.125 c -3.981,0.756 -5.594,2.873 -8.467,5.04 1.864,-8.719 2.721,-31.45 1.512,-49.14 -1.21,-16.229 -2.066,-26.661 -7.106,-30.391 -37.901,-27.871 -31.5,-59.522 -29.131,-67.183 10.685,22.781 22.832,14.717 32.962,46.822 2.974,-18.043 -10.735,-34.978 1.159,-61.589 2.117,20.412 9.424,22.428 9.172,42.437 -0.151,10.886 -3.427,21.924 -2.369,32.659 1.109,12.802 3.024,25.2 3.024,39.564 8.77,-10.433 5.645,-28.677 15.322,-41.529 9.173,-12.298 22.377,-16.833 31.097,-30.038 2.52,30.088 -4.536,54.684 -34.625,79.582 -6.704,5.544 -8.367,4.737 -9.476,11.037 -0.404,2.217 -2.671,20.663 -3.074,22.729 z" inkscape:connector-curvature="0" style="fill:#009430"/><path id="path12" d="m 246.859,347.206 c -0.252,-1.058 -0.605,-2.066 -1.108,-2.974 -0.504,-0.856 -1.109,-1.613 -1.916,-2.268 -0.756,-0.705 -1.613,-1.26 -2.671,-1.663 -0.655,-0.202 -1.311,-0.403 -2.066,-0.504 0.554,-0.454 0.957,-0.907 1.36,-1.361 0.655,-0.756 1.159,-1.512 1.462,-2.268 0.605,-1.461 0.756,-3.125 0.403,-4.788 -0.101,-0.756 -0.403,-1.411 -0.706,-2.117 -0.353,-0.655 -0.756,-1.26 -1.26,-1.814 -0.504,-0.605 -1.059,-1.108 -1.764,-1.512 -0.655,-0.403 -1.311,-0.655 -2.167,-0.958 -0.706,-0.202 -1.613,-0.252 -2.47,-0.302 -0.806,0 -1.764,0.101 -2.721,0.302 -1.412,0.303 -2.672,0.756 -3.579,1.512 -1.059,0.655 -1.865,1.613 -2.369,2.722 -0.504,0.806 -0.756,1.663 -0.907,2.52 -0.151,0.856 -0.051,1.764 0.151,2.621 0.101,0.655 0.353,1.209 0.605,1.714 0.252,0.504 0.605,0.907 1.008,1.26 0.454,0.353 0.958,0.604 1.411,0.756 0.504,0.151 0.958,0.151 1.512,0 0.454,-0.051 0.857,-0.252 1.26,-0.555 0.353,-0.252 0.706,-0.605 0.958,-1.008 0.202,-0.403 0.403,-0.857 0.504,-1.361 0.05,-0.453 0,-0.957 -0.101,-1.461 -0.051,-0.302 -0.202,-0.655 -0.252,-0.907 -0.151,-0.251 -0.252,-0.453 -0.504,-0.756 -0.202,-0.202 -0.403,-0.403 -0.706,-0.655 -0.302,-0.202 -0.605,-0.403 -1.008,-0.604 v -0.101 c -0.202,-0.05 -0.353,-0.101 -0.503,-0.202 -0.051,-0.05 -0.051,-0.101 -0.152,-0.101 0,0 0,0 0,-0.101 0,0 -0.05,-0.05 -0.05,-0.101 0,-0.101 0,-0.202 0.05,-0.303 0.101,-0.201 0.152,-0.302 0.353,-0.554 0.151,-0.101 0.353,-0.302 0.706,-0.454 0.252,-0.151 0.655,-0.201 1.059,-0.353 0.605,-0.101 1.209,-0.101 1.713,0 0.504,0.101 0.958,0.353 1.412,0.706 0.403,0.353 0.756,0.856 1.058,1.563 0.353,0.655 0.655,1.563 0.907,2.57 0.202,1.059 0.252,1.966 0.252,2.722 0,0.706 -0.05,1.361 -0.302,1.814 -0.202,0.453 -0.504,0.806 -0.857,1.058 -0.403,0.353 -0.806,0.555 -1.311,0.605 -0.151,0.101 -0.302,0.101 -0.403,0.101 -0.252,0.05 -0.454,0.05 -0.655,0.05 -0.403,0.101 -0.655,0.101 -0.857,0.151 -0.353,0.05 -0.554,0.151 -0.806,0.252 -0.202,0.151 -0.403,0.303 -0.555,0.555 -0.151,0.202 -0.202,0.403 -0.252,0.655 0,0.303 0,0.555 0.05,0.857 0.05,0.252 0.151,0.504 0.252,0.706 0.151,0.202 0.303,0.403 0.504,0.555 0.201,0.152 0.454,0.202 0.655,0.251 0.302,0 0.503,0 0.756,-0.05 0.151,0 0.252,-0.05 0.454,-0.101 0.202,-0.101 0.454,-0.151 0.706,-0.302 0.202,-0.05 0.403,-0.151 0.605,-0.202 0.151,-0.05 0.252,-0.151 0.403,-0.151 0.554,-0.101 1.109,-0.101 1.563,0.101 0.454,0.101 1.008,0.403 1.411,0.857 0.554,0.403 0.958,1.008 1.311,1.814 0.403,0.756 0.655,1.764 0.958,2.923 0.201,1.159 0.302,2.268 0.302,3.125 -0.05,0.907 -0.201,1.562 -0.454,2.167 -0.252,0.605 -0.706,1.109 -1.159,1.411 -0.454,0.403 -1.059,0.706 -1.764,0.857 -0.555,0.05 -1.008,0.101 -1.563,0.05 -0.454,-0.05 -1.008,-0.151 -1.462,-0.403 -0.353,-0.151 -0.554,-0.302 -0.706,-0.403 -0.151,-0.151 -0.252,-0.353 -0.252,-0.503 -0.101,-0.051 -0.101,-0.101 -0.101,-0.202 0,0 0,-0.051 0.101,-0.051 0,-0.05 0.05,-0.151 0.101,-0.201 0.151,-0.151 0.302,-0.353 0.504,-0.555 1.159,-1.059 1.562,-2.369 1.209,-3.78 -0.05,-0.554 -0.252,-1.008 -0.554,-1.411 -0.252,-0.403 -0.605,-0.756 -0.958,-1.109 -0.454,-0.252 -0.857,-0.454 -1.311,-0.554 -0.504,-0.101 -0.958,-0.101 -1.512,0 -0.554,0.151 -1.008,0.353 -1.512,0.705 -0.403,0.353 -0.705,0.756 -1.008,1.26 -0.252,0.554 -0.403,1.108 -0.454,1.764 -0.05,0.605 0,1.311 0.151,2.066 0.252,1.21 0.706,2.218 1.31,3.175 0.655,0.857 1.462,1.613 2.47,2.218 0.957,0.604 2.117,1.008 3.326,1.159 1.209,0.151 2.57,0.05 4.032,-0.252 1.663,-0.353 3.075,-0.907 4.234,-1.563 1.209,-0.756 2.167,-1.613 2.923,-2.722 0.705,-1.159 1.209,-2.318 1.461,-3.578 0.205,-1.209 0.155,-2.57 -0.148,-4.031 z" inkscape:connector-curvature="0" style="fill:#e32219"/><path id="path14" d="m 220.046,346.399 c -0.604,-1.361 -1.411,-2.47 -2.52,-3.427 -1.058,-0.958 -2.217,-1.713 -3.427,-2.117 -1.209,-0.454 -2.52,-0.655 -3.88,-0.555 -0.454,0 -0.857,0.101 -1.361,0.151 -0.454,0.151 -0.857,0.252 -1.361,0.403 -0.504,0.151 -1.008,0.353 -1.461,0.604 -0.202,0.05 -0.504,0.202 -0.706,0.353 v -4.939 c 0.706,0.05 1.31,0.101 1.915,0.101 0.807,0.101 1.512,0.101 2.167,0 0.958,-0.051 1.764,-0.202 2.419,-0.303 0.857,-0.202 1.512,-0.554 2.117,-0.907 0.554,-0.302 1.109,-0.756 1.563,-1.26 0.454,-0.504 0.857,-1.109 1.26,-1.714 0.353,-0.655 0.554,-1.31 0.755,-1.814 0.151,-0.605 0.202,-1.209 0.151,-1.764 0,-0.302 -0.05,-0.504 -0.151,-0.605 -0.201,-0.302 -0.403,-0.403 -0.755,-0.353 -0.051,0 -0.151,0 -0.403,0.151 -0.101,0 -0.303,0.101 -0.605,0.252 -0.504,0.201 -1.209,0.454 -1.965,0.604 -0.706,0.151 -1.613,0.303 -2.419,0.353 -1.209,0.051 -2.57,0.051 -3.931,-0.05 -1.411,-0.101 -2.923,-0.252 -4.385,-0.504 l -0.706,-0.05 v 0.604 l 0.101,14.768 c -0.353,0.604 -0.554,1.058 -0.756,1.563 -0.151,0.554 -0.302,0.958 -0.202,1.36 0,0.252 0.05,0.454 0.101,0.655 0.151,0.303 0.303,0.403 0.403,0.605 h 0.101 c 0.353,0.353 0.806,0.504 1.36,0.504 0.303,0 0.605,-0.151 0.857,-0.353 0.303,-0.151 0.504,-0.403 0.605,-0.655 0.151,-0.353 0.302,-0.706 0.302,-1.159 0.051,-0.403 0.051,-0.807 0.051,-1.361 0.353,-0.202 0.604,-0.403 0.856,-0.555 0.353,-0.202 0.706,-0.403 1.059,-0.554 0.302,-0.101 0.655,-0.252 1.008,-0.302 0.252,-0.101 0.554,-0.151 0.806,-0.151 0.605,-0.05 1.16,0.051 1.613,0.252 0.504,0.302 0.958,0.706 1.31,1.209 0.454,0.655 0.807,1.361 1.059,2.318 0.302,1.008 0.403,2.167 0.554,3.528 0.051,1.713 0.051,3.074 -0.151,4.183 -0.101,1.159 -0.303,2.066 -0.706,2.722 -0.353,0.604 -0.857,1.159 -1.311,1.512 -0.454,0.252 -1.109,0.454 -1.764,0.555 -0.554,0 -1.059,0 -1.562,-0.151 -0.454,-0.05 -0.958,-0.302 -1.361,-0.554 -0.252,-0.151 -0.454,-0.252 -0.554,-0.454 -0.101,-0.151 -0.201,-0.303 -0.201,-0.403 0,-0.101 0,-0.101 0.101,-0.151 0.101,-0.151 0.353,-0.353 0.604,-0.453 0.403,-0.303 0.807,-0.555 1.059,-0.907 0.353,-0.252 0.605,-0.555 0.756,-0.857 0.202,-0.303 0.302,-0.655 0.353,-0.958 0.05,-0.353 0.151,-0.705 0.05,-1.108 0,-0.504 -0.101,-1.008 -0.303,-1.412 -0.251,-0.454 -0.503,-0.907 -0.856,-1.209 -0.403,-0.353 -0.807,-0.604 -1.26,-0.806 -0.403,-0.151 -0.907,-0.202 -1.411,-0.151 -0.655,0 -1.159,0.151 -1.663,0.403 -0.454,0.252 -0.856,0.706 -1.26,1.159 -0.353,0.454 -0.605,1.008 -0.756,1.663 -0.151,0.655 -0.202,1.311 -0.151,2.066 0.101,1.059 0.353,2.167 0.806,3.024 0.504,0.958 1.159,1.865 2.066,2.57 0.807,0.706 1.814,1.26 2.923,1.563 1.109,0.353 2.369,0.504 3.629,0.403 1.613,-0.101 3.125,-0.454 4.485,-1.109 1.26,-0.655 2.419,-1.562 3.377,-2.722 0.958,-1.159 1.714,-2.52 2.117,-4.032 0.403,-1.411 0.554,-3.024 0.454,-4.738 -0.102,-1.661 -0.454,-3.173 -1.009,-4.534 z" inkscape:connector-curvature="0" style="fill:#e32219"/><path id="path16" d="m 194.846,332.841 c -0.856,-1.36 -1.865,-2.369 -3.075,-3.074 -1.159,-0.756 -2.57,-1.26 -4.183,-1.361 -0.303,0 -0.605,0 -0.908,0 -0.655,0 -1.36,0 -2.016,0.101 -0.907,0.151 -1.764,0.504 -2.621,0.907 -0.856,0.403 -1.563,0.958 -2.268,1.563 -0.655,0.655 -1.21,1.411 -1.764,2.268 -0.454,0.907 -0.857,1.865 -1.209,2.873 -0.252,1.008 -0.454,2.117 -0.605,3.226 -0.151,1.663 0,3.074 0.353,4.435 0.403,1.26 1.008,2.419 1.965,3.427 0.655,0.756 1.411,1.361 2.268,1.764 0.806,0.403 1.764,0.706 2.722,0.856 1.109,0.051 2.117,-0.101 3.175,-0.503 0.807,-0.252 1.663,-0.756 2.47,-1.361 -0.151,1.311 -0.353,2.47 -0.554,3.478 -0.202,1.36 -0.554,2.57 -0.907,3.528 -0.302,0.856 -0.655,1.663 -1.008,2.268 -0.05,0.101 -0.05,0.101 -0.05,0.151 -0.403,0.605 -0.806,1.109 -1.209,1.512 -0.403,0.302 -0.907,0.605 -1.311,0.706 -0.353,0.151 -0.756,0.202 -1.159,0.151 -0.202,0 -0.403,-0.051 -0.504,-0.151 -0.202,-0.05 -0.353,-0.101 -0.504,-0.202 0,-0.05 -0.05,-0.101 -0.05,-0.202 -0.101,-0.05 -0.101,-0.101 -0.101,-0.202 0,-0.101 0.101,-0.202 0.151,-0.302 0.101,-0.202 0.151,-0.353 0.202,-0.555 0.302,-0.403 0.403,-0.806 0.554,-1.159 0.151,-0.353 0.202,-0.655 0.252,-1.008 0.101,-0.554 0,-1.008 -0.101,-1.512 -0.101,-0.454 -0.302,-0.857 -0.605,-1.26 -0.302,-0.403 -0.655,-0.706 -1.058,-0.958 -0.403,-0.202 -0.807,-0.353 -1.26,-0.403 -0.554,-0.05 -1.109,0 -1.563,0.202 -0.504,0.202 -0.907,0.454 -1.311,0.857 -0.403,0.353 -0.655,0.857 -0.907,1.361 -0.252,0.504 -0.353,1.108 -0.454,1.713 -0.05,0.807 0.101,1.613 0.353,2.369 0.353,0.807 0.806,1.462 1.512,2.218 0.655,0.706 1.411,1.311 2.268,1.714 0.908,0.353 1.916,0.604 3.024,0.756 1.311,0.05 2.621,-0.101 3.83,-0.504 0.353,-0.05 0.706,-0.202 0.958,-0.403 1.562,-0.655 2.923,-1.764 4.183,-3.327 1.512,-1.663 2.671,-3.629 3.478,-5.998 0.857,-2.318 1.411,-4.889 1.714,-7.812 0.202,-2.419 0.101,-4.687 -0.202,-6.703 -0.402,-2.016 -1.058,-3.881 -1.965,-5.444 z m -4.738,5.847 c -0.151,1.311 -0.302,2.419 -0.655,3.377 -0.252,0.958 -0.604,1.713 -1.008,2.268 -0.454,0.504 -0.856,0.908 -1.361,1.21 -0.101,0.05 -0.252,0.101 -0.403,0.202 -0.302,0.05 -0.604,0.151 -0.957,0.05 -0.454,0 -0.807,-0.202 -1.109,-0.403 -0.353,-0.252 -0.706,-0.655 -0.908,-1.159 -0.252,-0.454 -0.403,-1.209 -0.454,-2.066 -0.101,-0.907 -0.101,-1.965 0.051,-3.276 0.151,-1.411 0.252,-2.722 0.554,-3.73 0.252,-0.957 0.605,-1.663 0.958,-2.217 0.403,-0.504 0.706,-0.907 1.209,-1.109 0.202,-0.101 0.403,-0.202 0.655,-0.252 0.202,0 0.403,0 0.605,0 0.403,0.05 0.756,0.151 1.109,0.403 0.353,0.201 0.604,0.555 0.857,0.958 0.403,0.605 0.706,1.411 0.856,2.369 0.102,0.956 0.102,2.115 0.001,3.375 z" inkscape:connector-curvature="0" style="fill:#e32219"/><path id="path18" d="m 169.747,326.642 -2.016,-0.503 h -0.302 c -0.857,0.302 -1.664,0.503 -2.419,0.705 -0.806,0.101 -1.613,0.252 -2.369,0.303 -0.756,0 -1.563,0 -2.419,0 -0.958,-0.051 -1.915,-0.202 -3.023,-0.303 l -0.504,-0.151 -0.706,3.075 4.838,1.108 c 0.202,0 0.403,0.101 0.504,0.202 0.151,0.101 0.202,0.151 0.303,0.202 0,0.101 0.05,0.202 0.05,0.353 0,0.151 0,0.303 0,0.504 l -4.738,20.513 c -0.151,0.353 -0.201,0.655 -0.353,0.856 -0.101,0.303 -0.252,0.403 -0.403,0.504 -0.05,0.151 -0.252,0.202 -0.454,0.202 -0.202,0 -0.504,0 -0.807,-0.051 l -3.477,-0.856 -0.756,3.125 16.833,3.931 0.756,-3.175 -4.334,-0.958 c -0.151,-0.05 -0.303,-0.101 -0.454,-0.202 -0.051,-0.05 -0.202,-0.101 -0.202,-0.252 -0.051,-0.151 -0.101,-0.302 -0.101,-0.403 0,-0.151 0,-0.353 0.05,-0.554 z" inkscape:connector-curvature="0" style="fill:#e32219"/><path id="path20" d="m 103.824,271.858 c -0.252,-0.504 -0.605,-0.908 -0.958,-1.412 -0.756,-0.958 -1.461,-1.764 -2.218,-2.369 -0.806,-0.655 -1.562,-1.059 -2.369,-1.26 -1.613,-0.403 -2.974,-0.202 -4.133,0.655 -0.504,0.353 -0.806,0.756 -1.159,1.159 -0.252,0.403 -0.454,0.958 -0.554,1.411 -0.051,0.303 -0.051,0.555 -0.101,0.756 -0.504,-0.403 -1.059,-0.807 -1.663,-1.159 -1.361,-0.807 -2.822,-1.26 -4.435,-1.563 -1.663,-0.202 -3.327,-0.05 -5.04,0.353 -1.613,0.403 -3.327,1.058 -5.09,2.117 l -0.454,0.302 1.764,2.318 0.303,-0.202 c 1.361,-0.655 2.621,-1.209 3.729,-1.563 1.159,-0.252 2.167,-0.403 3.125,-0.353 1.31,0 2.52,0.353 3.478,0.807 1.008,0.554 1.865,1.31 2.621,2.268 0.756,1.008 1.209,1.966 1.361,2.974 0.151,1.008 0,2.117 -0.403,3.175 -0.555,1.411 -1.512,2.923 -2.923,4.435 -1.36,1.512 -3.125,3.175 -5.342,4.839 -2.117,1.562 -3.981,2.772 -5.746,3.628 -1.713,0.807 -3.276,1.26 -4.637,1.411 -1.311,0.151 -2.47,0 -3.528,-0.353 -0.907,-0.353 -1.714,-0.958 -2.369,-1.814 -0.604,-0.756 -1.008,-1.613 -1.109,-2.571 -0.202,-0.957 -0.151,-2.066 0.101,-3.175 0.302,-1.159 0.756,-2.369 1.563,-3.679 0.807,-1.311 1.915,-2.621 3.276,-3.982 l 0.303,-0.353 -1.764,-2.318 -0.454,0.353 -10.584,8.619 -0.303,0.302 1.412,1.915 0.353,-0.05 2.823,-0.756 c 0,0.756 0,1.361 0,2.016 0.05,0.807 0.201,1.562 0.403,2.268 0.151,0.706 0.403,1.411 0.756,2.016 0.353,0.655 0.756,1.26 1.16,1.915 1.209,1.512 2.57,2.772 4.183,3.73 1.613,0.857 3.478,1.411 5.544,1.663 2.369,0.303 4.838,0.051 7.207,-0.655 2.369,-0.756 4.687,-1.965 7.056,-3.729 2.066,-1.563 3.78,-3.326 5.04,-5.242 1.311,-1.814 2.218,-3.83 2.671,-6.098 0.454,-2.167 0.454,-4.233 0.051,-6.199 -0.101,-0.655 -0.252,-1.159 -0.454,-1.764 l 2.721,-0.151 h 1.008 l -0.605,-0.807 c -0.604,-0.907 -1.109,-1.563 -1.411,-2.268 -0.353,-0.504 -0.555,-1.059 -0.655,-1.411 v -0.05 c -0.05,-0.202 -0.05,-0.353 0,-0.555 0,-0.05 0.101,-0.201 0.202,-0.252 0.151,-0.101 0.202,-0.151 0.403,-0.151 0.201,0 0.302,0 0.504,0.05 0.353,0.151 0.655,0.403 1.059,0.756 0.403,0.403 0.856,0.907 1.31,1.512 v 0.05 l 0.857,1.159 0.504,0.655 0.252,0.504 2.47,-1.865 -0.202,-0.403 c -0.305,-0.602 -0.658,-1.105 -0.91,-1.559 z" inkscape:connector-curvature="0" style="fill:#e32219"/><path id="path22" d="m 79.48,264.549 c 0.555,-0.05 1.109,-0.05 1.664,0.101 0.454,0.05 1.008,0.202 1.411,0.403 0.353,0.05 0.605,0.252 0.807,0.454 0.202,0.151 0.353,0.403 0.454,0.706 l 0.504,1.058 2.923,-1.36 -5.343,-11.441 -2.923,1.361 0.655,1.361 c 0.202,0.403 0.353,0.857 0.403,1.26 0,0.403 0,0.807 -0.101,1.159 -0.152,0.353 -0.303,0.706 -0.555,0.958 -0.302,0.252 -0.554,0.454 -0.958,0.655 -0.202,0.101 -0.555,0.202 -0.958,0.302 -0.454,0.051 -0.957,0.101 -1.562,0.101 l -2.722,0.202 -4.536,-9.677 4.486,-4.536 c 0.151,-0.151 0.252,-0.252 0.403,-0.403 0.151,-0.05 0.302,-0.151 0.403,-0.202 0.101,-0.05 0.202,-0.05 0.302,-0.05 0.101,0 0.252,0.05 0.403,0.101 0.101,0.101 0.252,0.303 0.454,0.504 v 0.05 c 0.151,0.302 0.353,0.605 0.605,1.109 l 0.756,1.663 2.923,-1.361 -6.501,-13.96 -2.923,1.31 0.655,1.563 c 0.151,0.202 0.202,0.403 0.302,0.655 0,0.151 0,0.353 -0.101,0.554 0,0.151 -0.101,0.403 -0.252,0.605 -0.202,0.302 -0.403,0.554 -0.655,0.806 l -6.048,6.2 -16.732,17.136 -0.303,0.252 1.311,2.772 0.353,-0.05 15.372,-1.159 z m -21.47,-1.562 5.846,-5.897 2.369,-2.369 3.478,7.409 -5.847,0.403 z" inkscape:connector-curvature="0" style="fill:#e32219"/><path id="path24" d="m 67.435,229.623 c 0.302,-0.101 0.555,-0.101 0.706,-0.101 0.202,0 0.303,0.101 0.403,0.151 0.1,0.05 0.201,0.151 0.252,0.353 0.151,0.101 0.202,0.403 0.252,0.655 l 0.706,3.679 3.125,-0.604 -3.427,-17.59 -3.075,0.605 0.655,3.679 c 0.05,0.252 0.05,0.555 0.05,0.706 0,0.202 -0.05,0.302 -0.101,0.454 -0.151,0.202 -0.504,0.403 -0.958,0.454 l -10.382,2.066 -14.263,-3.478 c -0.706,-0.151 -1.26,-0.353 -1.714,-0.604 -0.454,-0.202 -0.907,-0.454 -1.209,-0.806 -0.302,-0.252 -0.554,-0.706 -0.807,-1.16 -0.202,-0.403 -0.403,-0.958 -0.554,-1.612 l -0.151,-0.504 -3.125,0.605 2.52,12.701 3.125,-0.604 -0.252,-1.512 c -0.101,-0.403 -0.151,-0.806 -0.101,-1.058 0,-0.353 0.101,-0.605 0.202,-0.807 0.151,-0.202 0.353,-0.353 0.554,-0.504 0.202,-0.151 0.454,-0.252 0.756,-0.353 0.353,-0.05 0.655,-0.05 1.008,-0.05 0.353,0.05 0.655,0.05 1.059,0.202 l 9.525,2.217 -9.929,7.963 c -0.101,0.101 -0.303,0.202 -0.504,0.303 -0.151,0.101 -0.302,0.151 -0.403,0.151 -0.101,0 -0.151,0 -0.252,0 -0.051,0 -0.101,-0.05 -0.151,-0.151 -0.101,-0.051 -0.151,-0.202 -0.252,-0.303 -0.101,-0.202 -0.202,-0.504 -0.252,-0.806 l -0.454,-2.671 -3.226,0.605 3.125,16.027 3.175,-0.655 -0.252,-1.108 c -0.05,-0.403 -0.05,-0.756 -0.05,-1.109 0,-0.353 0.05,-0.605 0.201,-0.857 0.051,-0.302 0.252,-0.555 0.454,-0.856 0.303,-0.303 0.605,-0.655 1.008,-1.008 l 13.86,-10.937 z" inkscape:connector-curvature="0" style="fill:#e32219"/><path id="path26" d="m 49.14,135.324 c 0.101,-0.201 0.202,-0.302 0.353,-0.454 0.05,-0.101 0.202,-0.151 0.353,-0.151 0.101,-0.051 0.252,-0.051 0.454,0 0.202,0 0.403,0.05 0.756,0.202 l 8.518,4.183 14.465,7.056 c 0.252,0.152 0.454,0.303 0.605,0.403 0.101,0.151 0.252,0.303 0.302,0.403 h -0.05 c 0.05,0.151 0.151,0.302 0.05,0.504 0,0.202 -0.05,0.403 -0.101,0.605 l -1.31,2.621 2.873,1.361 7.207,-14.818 -2.822,-1.411 -1.512,2.974 c -0.051,0.202 -0.202,0.302 -0.303,0.454 -0.151,0.151 -0.302,0.202 -0.504,0.353 v -0.05 c -0.101,0.05 -0.252,0.05 -0.403,0.05 -0.101,0 -0.353,-0.05 -0.554,-0.202 l -10.735,-5.241 0.756,-1.563 c 0.202,-0.403 0.403,-0.655 0.655,-0.908 0.252,-0.302 0.554,-0.503 0.807,-0.705 0.353,-0.151 0.706,-0.252 1.008,-0.353 0.403,-0.05 0.907,-0.05 1.361,-0.05 0.554,0.05 1.209,0.151 2.167,0.403 0.957,0.202 2.117,0.504 3.477,0.907 h 0.051 c 1.159,0.303 2.167,0.605 2.923,0.706 0.807,0.201 1.412,0.353 1.764,0.454 0.655,0.05 1.26,0 1.814,-0.101 0.605,-0.05 1.159,-0.252 1.613,-0.454 1.059,-0.554 1.865,-1.411 2.47,-2.722 0.403,-0.857 0.655,-1.764 0.655,-2.57 0.101,-0.907 -0.101,-1.713 -0.453,-2.52 -0.403,-0.806 -1.008,-1.562 -1.814,-2.318 -0.857,-0.706 -1.916,-1.461 -3.226,-2.167 l -0.454,-0.251 -1.31,2.57 0.504,0.252 c 2.016,1.159 2.923,1.966 2.621,2.52 0,0.101 -0.051,0.151 -0.051,0.151 -0.151,0.05 -0.302,0.05 -0.403,0.151 -0.202,0 -0.504,0 -0.958,-0.101 -0.403,-0.05 -1.008,-0.202 -1.764,-0.302 -1.159,-0.303 -2.318,-0.504 -3.377,-0.655 -1.108,-0.051 -2.117,-0.101 -3.074,-0.101 v 0.05 c -0.706,0 -1.411,0.051 -2.016,0.202 -0.655,0.151 -1.209,0.353 -1.764,0.605 -0.454,0.302 -0.857,0.605 -1.361,1.008 0.151,-0.655 0.303,-1.26 0.353,-1.815 0.202,-1.26 0.202,-2.419 0,-3.427 -0.302,-1.36 -0.807,-2.469 -1.563,-3.477 -0.756,-0.958 -1.713,-1.714 -2.923,-2.319 -0.756,-0.302 -1.462,-0.605 -2.218,-0.756 -0.806,-0.101 -1.563,-0.101 -2.369,-0.051 -0.353,0 -0.755,0.051 -1.109,0.202 -0.403,0.101 -0.856,0.303 -1.26,0.403 -0.756,0.353 -1.512,0.807 -2.268,1.412 -0.706,0.655 -1.411,1.36 -2.066,2.318 -0.605,0.907 -1.26,1.915 -1.865,3.125 l -7.207,14.818 2.873,1.36 z m 4.939,-10.03 c 0.504,-1.059 1.008,-1.865 1.563,-2.52 0.554,-0.504 1.109,-0.907 1.713,-1.109 0.554,-0.202 1.209,-0.202 1.966,-0.151 0.05,0.051 0.202,0.051 0.251,0.051 0.706,0.151 1.512,0.403 2.319,0.806 1.008,0.504 1.814,1.059 2.419,1.563 0.555,0.554 0.958,1.109 1.16,1.714 0.302,0.806 0.353,1.612 0.302,2.52 -0.151,0.856 -0.403,1.814 -0.907,2.772 l -0.857,1.814 -4.436,-2.117 -4.737,-2.268 c -0.454,-0.201 -0.807,-0.504 -1.008,-0.706 -0.201,-0.101 -0.353,-0.252 -0.403,-0.403 -0.05,-0.252 0.151,-0.957 0.655,-1.966 z" inkscape:connector-curvature="0" style="fill:#e32219"/><path id="path28" d="m 36.742,209.664 c 0,-0.252 0,-0.454 0.05,-0.655 0.101,-0.151 0.151,-0.302 0.252,-0.403 0.05,-0.101 0.101,-0.151 0.252,-0.151 0.151,-0.05 0.353,-0.151 0.554,-0.151 h 26.258 c 0.303,0 0.403,0.101 0.605,0.151 0.151,0 0.303,0.151 0.353,0.202 0.151,0.05 0.202,0.202 0.202,0.403 0.101,0.151 0.151,0.403 0.151,0.605 v 2.722 h 3.175 V 196.46 h -3.175 v 3.175 c 0,0.202 -0.05,0.353 -0.05,0.504 -0.101,0.151 -0.151,0.252 -0.302,0.353 -0.151,0.202 -0.454,0.252 -0.958,0.252 h -7.257 l -4.234,-3.226 11.794,-6.149 c 0.05,-0.05 0.101,-0.05 0.101,-0.05 0.101,0 0.151,0 0.202,0 0,0 0.101,0 0.151,0 0.05,0.05 0.151,0.101 0.252,0.252 0.101,0.151 0.151,0.252 0.252,0.554 0,0.252 0.05,0.555 0.05,0.958 v 2.016 h 3.175 V 179.022 H 65.42 v 1.713 c 0,0.353 -0.05,0.605 -0.151,0.857 -0.151,0.353 -0.252,0.604 -0.454,0.958 -0.151,0.202 -0.303,0.403 -0.504,0.605 -0.252,0.202 -0.504,0.353 -0.857,0.554 l -17.085,8.87 -4.737,-3.629 c -0.907,-0.705 -1.714,-1.461 -2.369,-2.117 -0.604,-0.705 -1.209,-1.36 -1.613,-2.016 -0.353,-0.504 -0.554,-0.907 -0.706,-1.361 -0.151,-0.504 -0.201,-0.958 -0.201,-1.512 v -1.36 h -3.175 v 13.708 h 3.175 v -1.361 c 0,-0.403 0.05,-0.756 0.151,-1.008 0.05,-0.302 0.202,-0.503 0.353,-0.705 0.05,-0.101 0.201,-0.202 0.252,-0.252 0.151,-0.051 0.353,-0.051 0.554,-0.051 0.201,0 0.454,0.051 0.706,0.202 0.353,0.051 0.655,0.252 0.958,0.504 l 11.743,9.122 H 37.951 c -0.252,0 -0.454,0 -0.605,-0.05 -0.101,-0.101 -0.252,-0.151 -0.302,-0.202 -0.101,-0.101 -0.151,-0.202 -0.252,-0.454 -0.05,-0.202 -0.05,-0.454 -0.05,-0.857 v -2.923 h -3.175 v 16.128 h 3.175 z" inkscape:connector-curvature="0" style="fill:#e32219"/><path id="path30" d="m 38.102,172.418 c 0.051,-0.353 0.202,-0.655 0.252,-0.857 0.151,-0.101 0.201,-0.252 0.353,-0.302 0.151,-0.101 0.302,-0.101 0.554,-0.101 0.252,0 0.605,0.101 0.958,0.151 l 18.497,4.738 c 1.21,0.302 2.369,0.504 3.427,0.554 1.109,0.05 2.066,0 2.923,-0.252 0.907,-0.252 1.764,-0.555 2.57,-1.109 0.807,-0.555 1.562,-1.209 2.318,-2.117 0.756,-0.807 1.411,-1.814 1.965,-2.873 0.454,-1.109 0.958,-2.318 1.26,-3.628 0.504,-1.814 0.655,-3.579 0.504,-5.141 -0.151,-1.613 -0.706,-3.125 -1.411,-4.485 h -0.101 c -0.755,-1.311 -1.814,-2.419 -3.125,-3.377 -1.26,-0.857 -2.772,-1.562 -4.536,-1.965 l -15.069,-3.931 c -0.706,-0.202 -1.311,-0.403 -1.865,-0.655 -0.555,-0.353 -0.958,-0.706 -1.361,-1.109 -0.655,-0.655 -0.857,-1.563 -0.655,-2.47 l 0.353,-1.361 -3.074,-0.756 -3.175,12.348 3.024,0.706 0.302,-0.907 c 0.101,-0.504 0.353,-0.958 0.655,-1.311 0.303,-0.403 0.706,-0.655 1.109,-0.907 0.454,-0.202 1.008,-0.302 1.663,-0.302 0.706,0 1.462,0.101 2.268,0.302 l 13.961,3.629 c 0.958,0.252 1.814,0.554 2.57,0.856 0.756,0.403 1.361,0.756 1.865,1.21 0.555,0.403 0.958,0.907 1.311,1.361 0.353,0.504 0.554,0.958 0.655,1.461 0.403,1.411 0.403,2.822 0.101,4.334 -0.302,1.008 -0.705,1.865 -1.209,2.57 -0.504,0.655 -1.159,1.209 -1.915,1.613 -0.807,0.403 -1.714,0.604 -2.621,0.655 -1.059,0.101 -2.217,-0.051 -3.427,-0.403 L 41.832,163.95 c -0.353,-0.101 -0.555,-0.252 -0.756,-0.302 -0.101,-0.051 -0.252,-0.202 -0.353,-0.252 -0.05,-0.151 -0.101,-0.202 -0.101,-0.353 -0.101,-0.05 -0.101,-0.202 0,-0.353 l 0.857,-3.528 -3.024,-0.806 -4.133,15.926 3.125,0.806 z" inkscape:connector-curvature="0" style="fill:#e32219"/><path id="path32" d="m 275.789,71.77 c 0.756,-1.461 1.361,-3.024 1.713,-4.586 0.353,-1.562 0.555,-3.125 0.555,-4.637 -0.05,-1.563 -0.303,-3.024 -0.706,-4.435 -0.403,-1.462 -1.008,-2.722 -1.764,-4.032 -0.807,-1.26 -1.663,-2.369 -2.772,-3.376 -1.059,-0.958 -2.217,-1.764 -3.579,-2.369 -2.016,-1.008 -4.132,-1.563 -6.148,-1.613 -0.605,0 -1.159,0.05 -1.714,0.05 -1.562,0.202 -3.125,0.555 -4.687,1.21 -2.167,0.907 -3.981,2.167 -5.695,3.831 -1.613,1.612 -3.024,3.578 -4.183,5.947 -0.756,1.613 -1.361,3.175 -1.713,4.738 -0.403,1.562 -0.504,3.125 -0.504,4.687 0.051,1.462 0.252,2.923 0.605,4.334 0.403,1.361 0.958,2.722 1.663,3.931 0.756,1.26 1.664,2.369 2.722,3.327 1.008,1.008 2.268,1.814 3.679,2.419 2.016,1.008 4.133,1.563 6.199,1.613 0.655,0 1.26,0 1.915,-0.05 1.512,-0.202 2.974,-0.605 4.536,-1.209 2.167,-0.907 4.083,-2.167 5.695,-3.831 1.713,-1.615 3.074,-3.58 4.183,-5.949 z m -4.385,-12.399 c -0.151,1.008 -0.454,2.268 -1.008,3.68 -0.504,1.36 -1.21,2.973 -2.117,4.788 -1.26,2.57 -2.52,4.738 -3.73,6.401 -1.059,1.461 -2.167,2.621 -3.175,3.276 -0.151,0.101 -0.202,0.151 -0.252,0.151 -1.108,0.706 -2.167,1.109 -3.276,1.209 -1.008,0.101 -2.016,-0.101 -3.024,-0.655 -0.756,-0.353 -1.311,-0.756 -1.865,-1.209 -0.454,-0.554 -0.857,-1.109 -1.21,-1.764 -0.353,-0.706 -0.554,-1.411 -0.604,-2.318 -0.05,-0.857 0,-1.814 0.151,-2.822 0.101,-1.109 0.453,-2.318 1.008,-3.729 0.554,-1.512 1.209,-3.125 2.117,-4.99 0.857,-1.663 1.663,-3.226 2.47,-4.435 0.856,-1.311 1.663,-2.369 2.47,-3.175 0.655,-0.706 1.36,-1.311 2.016,-1.764 0.051,-0.101 0.151,-0.152 0.202,-0.202 0.756,-0.504 1.512,-0.857 2.167,-0.958 0.756,-0.202 1.411,-0.302 2.117,-0.151 0.655,0.05 1.361,0.252 2.016,0.604 0.756,0.353 1.31,0.756 1.814,1.209 0.504,0.555 0.908,1.109 1.26,1.764 0.303,0.706 0.454,1.461 0.604,2.268 0.05,0.856 0.05,1.814 -0.151,2.822 z" inkscape:connector-curvature="0" style="fill:#e32219"/><path id="path34" d="m 247.917,52.718 c 0.453,-0.857 0.807,-1.814 1.008,-2.822 0.251,-1.361 0.251,-2.621 0,-3.881 -0.303,-1.26 -0.807,-2.419 -1.563,-3.578 -0.756,-1.059 -1.764,-2.016 -2.923,-2.722 -1.159,-0.756 -2.52,-1.209 -4.083,-1.563 l -4.133,-0.806 -14.011,-2.722 -0.605,3.226 3.478,0.604 c 0.101,0.051 0.252,0.101 0.403,0.202 0.05,0.05 0.201,0.202 0.252,0.252 0.05,0.151 0.151,0.353 0.151,0.504 0.051,0.202 0.051,0.403 0,0.605 l -4.939,25.402 c -0.101,0.252 -0.151,0.454 -0.201,0.604 -0.101,0.202 -0.252,0.252 -0.353,0.403 -0.101,0.05 -0.201,0.151 -0.403,0.151 -0.152,0.051 -0.353,0.051 -0.605,0 l -3.226,-0.604 -0.605,3.075 17.035,3.326 0.605,-3.125 -3.931,-0.806 c -0.202,0 -0.353,-0.05 -0.504,-0.101 -0.101,-0.151 -0.202,-0.202 -0.251,-0.353 -0.152,-0.151 -0.152,-0.252 -0.202,-0.454 0,-0.252 0,-0.454 0.05,-0.655 l 1.966,-10.332 5.09,0.958 c 0.303,0.051 0.555,0.101 0.807,0.101 0.605,0.151 1.311,0.151 1.965,0.151 0.908,0 1.916,-0.05 2.873,-0.201 1.008,-0.202 1.865,-0.504 2.772,-0.908 0.807,-0.403 1.613,-0.907 2.318,-1.613 0.707,-0.654 1.312,-1.411 1.765,-2.318 z m -6.652,-4.435 c -0.202,0.958 -0.403,1.764 -0.605,2.419 -0.302,0.604 -0.504,1.109 -0.756,1.512 -0.252,0.302 -0.605,0.655 -1.008,0.907 -0.403,0.302 -0.807,0.504 -1.361,0.706 -0.403,0.151 -0.907,0.252 -1.311,0.353 -0.655,0.05 -1.361,0 -2.066,-0.151 l -3.226,-0.605 2.419,-12.197 c 0.05,-0.202 0.101,-0.403 0.201,-0.554 0.051,-0.151 0.202,-0.202 0.252,-0.202 0.151,-0.05 0.403,-0.151 0.756,-0.05 0.403,0 0.958,0.05 1.563,0.202 0.05,0 0.05,0 0.101,0 1.109,0.202 1.965,0.454 2.671,0.806 0.756,0.353 1.26,0.756 1.612,1.159 0.454,0.605 0.807,1.361 0.908,2.318 0.102,0.908 0.102,2.016 -0.15,3.377 z" inkscape:connector-curvature="0" style="fill:#e32219"/><path id="path36" d="m 218.333,58.111 c 0,-1.109 -0.101,-2.117 -0.302,-3.075 -0.202,-0.958 -0.555,-1.814 -1.008,-2.57 -0.504,-0.807 -1.059,-1.512 -1.764,-2.167 -0.706,-0.605 -1.512,-1.159 -2.47,-1.713 -0.605,-0.252 -1.361,-0.605 -2.369,-0.908 -1.008,-0.353 -2.318,-0.706 -3.78,-1.058 -1.209,-0.303 -2.318,-0.605 -3.125,-0.907 -0.857,-0.302 -1.563,-0.555 -2.016,-0.807 -0.504,-0.302 -0.907,-0.554 -1.159,-0.857 -0.353,-0.302 -0.604,-0.604 -0.806,-0.907 -0.202,-0.353 -0.353,-0.756 -0.403,-1.108 -0.151,-0.403 -0.151,-0.807 -0.151,-1.209 0,-0.706 0.151,-1.361 0.403,-1.916 0.252,-0.604 0.655,-1.159 1.209,-1.663 0.554,-0.504 1.159,-0.857 1.865,-1.109 0.655,-0.202 1.411,-0.353 2.268,-0.353 1.008,0 1.965,0.302 2.873,0.604 0.957,0.504 1.814,1.109 2.621,1.916 0.807,0.806 1.512,1.814 2.117,3.074 0.655,1.209 1.209,2.621 1.613,4.334 l 0.151,0.302 2.772,0.101 v -0.554 l 0.051,-11.743 v -0.504 h -2.268 l -0.151,0.202 -1.713,2.47 c -1.059,-1.008 -2.218,-1.814 -3.528,-2.369 -1.411,-0.604 -2.873,-0.958 -4.435,-0.958 -1.664,-0.05 -3.125,0.202 -4.486,0.706 -1.361,0.454 -2.47,1.21 -3.478,2.218 -1.008,1.008 -1.764,2.167 -2.217,3.528 -0.555,1.311 -0.856,2.772 -0.856,4.435 -0.051,0.907 0,1.814 0.202,2.621 0.151,0.806 0.454,1.563 0.755,2.318 0.353,0.655 0.807,1.26 1.361,1.865 0.554,0.554 1.209,1.108 1.965,1.563 0.706,0.504 1.714,0.958 2.923,1.411 1.26,0.504 2.671,0.907 4.334,1.361 1.31,0.353 2.318,0.655 3.074,0.856 0.756,0.202 1.26,0.403 1.563,0.504 0.504,0.302 1.008,0.554 1.411,0.806 0.353,0.353 0.604,0.706 0.806,1.059 0.252,0.302 0.403,0.706 0.555,1.209 0.151,0.454 0.202,1.008 0.151,1.563 0,0.706 -0.151,1.461 -0.454,2.167 -0.302,0.604 -0.706,1.209 -1.26,1.663 -0.554,0.554 -1.311,0.958 -2.117,1.159 -0.806,0.302 -1.764,0.403 -2.823,0.403 -2.57,-0.051 -4.737,-0.958 -6.451,-2.722 -1.714,-1.663 -2.974,-4.334 -3.831,-7.812 l -0.05,-0.454 -2.772,-0.05 -0.202,13.709 h 2.318 l 0.101,-0.202 2.167,-2.873 c 1.109,1.108 2.419,1.965 3.78,2.57 1.462,0.706 3.074,1.008 4.738,1.008 1.814,0.101 3.427,-0.201 4.99,-0.706 1.411,-0.604 2.873,-1.461 4.082,-2.57 1.008,-1.059 1.814,-2.167 2.369,-3.478 0.554,-1.308 0.806,-2.77 0.857,-4.383 z" inkscape:connector-curvature="0" style="fill:#e32219"/><path id="path38" d="m 190.26,54.684 -0.05,-0.504 -2.822,0.504 v 0.504 c 0.101,1.764 0.05,3.326 -0.151,4.688 -0.252,1.31 -0.655,2.469 -1.31,3.477 -0.605,0.958 -1.26,1.714 -2.167,2.319 -0.857,0.554 -1.865,0.958 -3.024,1.159 l -3.68,0.604 c -0.302,0.101 -0.655,0.151 -0.907,0.101 -0.303,0 -0.504,-0.101 -0.706,-0.151 -0.051,-0.101 -0.151,-0.151 -0.202,-0.202 -0.051,-0.151 -0.151,-0.353 -0.151,-0.554 l -2.066,-11.844 0.605,-0.101 c 0.856,-0.101 1.613,-0.202 2.217,-0.051 0.706,0.152 1.209,0.403 1.714,0.807 0.454,0.403 0.857,1.008 1.26,1.764 0.403,0.807 0.756,1.916 1.008,3.125 l 0.152,0.453 2.873,-0.453 -2.923,-16.582 -2.873,0.454 v 0.454 c 0.152,1.16 0.152,2.117 0,2.923 -0.05,0.807 -0.251,1.512 -0.604,2.066 -0.302,0.454 -0.756,0.907 -1.209,1.209 -0.555,0.353 -1.16,0.604 -1.915,0.655 l -0.857,0.202 -1.966,-11.088 c 0,-0.202 0,-0.353 0,-0.504 0,-0.101 0.05,-0.252 0.151,-0.303 0.05,-0.101 0.202,-0.202 0.302,-0.302 0.151,-0.05 0.353,-0.101 0.605,-0.202 l 4.133,-0.655 c 0.857,-0.202 1.512,-0.202 2.167,-0.202 0.706,0.051 1.26,0.101 1.764,0.303 0.504,0.202 0.958,0.504 1.461,0.856 0.454,0.303 0.857,0.807 1.26,1.26 0.403,0.554 0.806,1.311 1.209,2.167 0.403,0.958 0.907,2.016 1.361,3.377 l 0.151,0.403 2.772,-0.454 -0.151,-0.554 -2.621,-11.592 -0.151,-0.454 -26.964,4.788 0.605,3.125 2.57,-0.554 c 0.403,-0.05 0.706,-0.05 0.958,-0.05 0.202,0 0.403,0.05 0.503,0.151 0.101,0.051 0.202,0.151 0.252,0.202 0.05,0.151 0.151,0.353 0.202,0.555 l 4.536,25.754 c 0,0.202 0,0.403 0,0.604 -0.051,0.202 -0.051,0.303 -0.202,0.454 -0.051,0.151 -0.202,0.252 -0.353,0.353 -0.101,0.05 -0.302,0.101 -0.605,0.202 l -2.923,0.604 0.554,3.125 28.123,-5.04 -0.05,-0.504 z" inkscape:connector-curvature="0" style="fill:#e32219"/><path id="path40" d="m 159.465,60.329 -0.202,-0.454 -2.721,1.008 0.151,0.403 c 0.252,1.361 0.403,2.571 0.504,3.629 0.101,1.109 0.101,2.066 0,2.873 -0.051,0.756 -0.252,1.461 -0.454,2.117 -0.151,0.605 -0.403,1.059 -0.756,1.512 -0.302,0.453 -0.655,0.856 -1.159,1.159 -0.403,0.353 -0.907,0.604 -1.563,0.806 l -6.401,2.47 5.544,-32.961 -0.05,-0.252 -0.958,-2.52 -22.025,8.215 0.151,0.554 3.528,11.29 0.101,0.504 2.671,-0.958 -0.101,-0.504 c -0.403,-1.663 -0.605,-3.175 -0.605,-4.435 -0.05,-1.21 0.151,-2.319 0.504,-3.175 0.303,-0.857 0.857,-1.563 1.512,-2.167 0.706,-0.655 1.512,-1.109 2.621,-1.512 l 4.586,-1.764 -5.443,32.911 v 0.302 l 0.958,2.47 23.638,-8.871 -0.101,-0.454 z" inkscape:connector-curvature="0" style="fill:#e32219"/><path id="path42" d="m 135.475,80.791 c -0.252,0.151 -0.555,0.252 -0.756,0.252 -0.202,0.101 -0.353,0.101 -0.554,0.101 -0.101,-0.101 -0.202,-0.101 -0.303,-0.202 -0.1,-0.101 -0.201,-0.302 -0.353,-0.504 L 119.952,57.91 c -0.152,-0.151 -0.202,-0.353 -0.202,-0.504 -0.051,-0.1 -0.051,-0.202 0,-0.353 0,-0.05 0.05,-0.202 0.202,-0.302 0.05,-0.101 0.251,-0.202 0.453,-0.353 l 2.521,-1.512 -1.664,-2.671 -10.181,6.099 -3.376,2.016 1.663,2.772 1.713,-1.059 0.655,-0.403 c 0.303,-0.252 0.504,-0.302 0.706,-0.353 0.101,0 0.252,0 0.403,0 0.252,0.051 0.555,0.353 0.807,0.756 l 13.406,22.277 c 0.101,0.202 0.202,0.403 0.202,0.554 0,0.202 0,0.303 0,0.454 -0.05,0.151 -0.101,0.252 -0.302,0.403 -0.151,0.201 -0.454,0.403 -0.706,0.555 l -2.167,1.36 1.714,2.722 13.558,-8.165 -1.714,-2.722 z" inkscape:connector-curvature="0" style="fill:#e32219"/><path id="path44" d="m 108.309,52.214 c 0.252,0.403 0.555,0.706 0.958,1.008 0.302,0.252 0.706,0.454 1.159,0.604 0.252,0.05 0.454,0.151 0.655,0.151 0.655,0.05 1.26,-0.101 1.916,-0.504 0.403,-0.202 0.655,-0.555 0.907,-0.857 0.202,-0.353 0.403,-0.756 0.504,-1.209 0.05,-0.504 0.05,-0.958 0,-1.361 -0.101,-0.504 -0.302,-0.907 -0.555,-1.311 -0.251,-0.403 -0.554,-0.756 -0.856,-1.008 -0.454,-0.252 -0.857,-0.454 -1.26,-0.605 -0.252,-0.101 -0.454,-0.151 -0.655,-0.151 -0.655,-0.05 -1.31,0.05 -1.915,0.504 -0.403,0.201 -0.655,0.504 -0.958,0.856 -0.201,0.353 -0.403,0.756 -0.454,1.209 -0.05,0.504 -0.05,0.958 0,1.361 0.151,0.507 0.252,0.911 0.554,1.313 z" inkscape:connector-curvature="0" style="fill:#e32219"/><path id="path46" d="m 120.809,82.354 -0.302,-0.403 -2.167,1.864 0.353,0.454 c 1.461,1.865 1.965,2.974 1.512,3.377 -0.05,0 -0.101,0.05 -0.202,0.05 -0.05,0 -0.202,0 -0.302,-0.05 v 0.05 c -0.201,-0.05 -0.504,-0.201 -0.907,-0.403 -0.403,-0.252 -0.857,-0.605 -1.461,-1.008 h -0.101 c -0.958,-0.706 -1.865,-1.311 -2.822,-1.764 -0.958,-0.555 -1.915,-0.958 -2.772,-1.311 -0.756,-0.252 -1.461,-0.454 -2.066,-0.504 -0.605,-0.151 -1.209,-0.151 -1.814,-0.101 -0.554,0.101 -1.058,0.202 -1.613,0.403 0.302,-0.504 0.655,-1.058 1.008,-1.563 0.604,-1.108 1.008,-2.217 1.209,-3.226 0.302,-1.31 0.202,-2.57 -0.151,-3.729 -0.252,-1.159 -0.856,-2.218 -1.814,-3.276 -0.554,-0.605 -1.159,-1.109 -1.814,-1.512 -0.605,-0.454 -1.361,-0.756 -2.117,-0.958 -0.806,-0.202 -1.613,-0.353 -2.419,-0.302 -0.907,0 -1.764,0.202 -2.671,0.504 -0.201,0.05 -0.302,0.101 -0.504,0.202 -0.756,0.252 -1.512,0.604 -2.268,1.058 -0.958,0.605 -1.865,1.361 -2.822,2.268 l -12.302,11.039 2.117,2.369 2.369,-2.117 c 0.151,-0.151 0.302,-0.251 0.403,-0.251 0.151,-0.101 0.302,-0.101 0.403,-0.101 0.151,0 0.303,0.101 0.504,0.202 0.101,0.101 0.302,0.302 0.503,0.504 l 11.088,12.247 6.098,6.804 c 0.202,0.202 0.303,0.403 0.403,0.605 0.05,0.101 0.101,0.303 0.101,0.454 0,0.151 -0.051,0.353 -0.101,0.504 -0.101,0.101 -0.202,0.302 -0.403,0.454 l -2.167,1.965 2.167,2.369 12.248,-11.038 -2.117,-2.369 -2.419,2.167 c -0.202,0.151 -0.353,0.252 -0.554,0.353 -0.151,0.05 -0.353,0.05 -0.605,0.05 -0.05,0 -0.202,-0.05 -0.353,-0.151 -0.101,-0.05 -0.252,-0.101 -0.403,-0.353 l -8.064,-8.871 1.311,-1.108 c 0.353,-0.353 0.655,-0.555 0.958,-0.706 0.303,-0.151 0.655,-0.252 1.008,-0.252 0.353,-0.101 0.756,0 1.059,0.051 0.403,0.05 0.806,0.202 1.31,0.403 0.454,0.252 1.059,0.605 1.814,1.16 0.806,0.554 1.814,1.26 2.923,2.167 1.008,0.756 1.815,1.361 2.419,1.814 0.706,0.504 1.26,0.806 1.563,0.958 0.554,0.353 1.109,0.555 1.714,0.706 0.554,0.101 1.159,0.202 1.663,0.101 1.109,-0.051 2.217,-0.605 3.276,-1.563 0.655,-0.655 1.31,-1.411 1.613,-2.167 0.353,-0.806 0.504,-1.613 0.504,-2.469 -0.101,-0.907 -0.353,-1.865 -0.807,-2.873 -0.554,-0.96 -1.26,-2.018 -2.217,-3.177 z m -18.8,0.958 c -0.403,0.806 -1.008,1.562 -1.865,2.268 l -1.461,1.361 -1.814,-1.965 -5.04,-5.544 c -0.353,-0.403 -0.555,-0.655 -0.756,-1.008 -0.05,-0.202 -0.101,-0.353 -0.101,-0.454 0,-0.353 0.454,-0.907 1.26,-1.663 0.907,-0.807 1.713,-1.361 2.469,-1.664 0.706,-0.353 1.311,-0.503 1.966,-0.503 0.05,0 0.101,0 0.202,0 0.504,0.101 1.058,0.302 1.663,0.604 0.706,0.403 1.361,1.008 2.066,1.764 0.706,0.907 1.311,1.663 1.664,2.369 0.353,0.756 0.503,1.361 0.503,2.066 -0.1,0.806 -0.352,1.612 -0.756,2.369 z" inkscape:connector-curvature="0" style="fill:#e32219"/><path id="path48" d="m 304.063,81.648 c 0.504,-0.655 0.807,-1.31 1.109,-2.066 0.252,-0.756 0.403,-1.563 0.454,-2.369 0,-0.807 -0.05,-1.664 -0.252,-2.47 -0.202,-0.806 -0.605,-1.613 -1.109,-2.419 -0.454,-0.806 -1.058,-1.562 -1.915,-2.369 -0.706,-0.806 -1.664,-1.562 -2.772,-2.318 l -6.552,-4.586 -7.006,-4.889 -1.814,2.621 2.57,1.764 c 0.202,0.151 0.353,0.303 0.403,0.403 0.101,0.102 0.151,0.202 0.151,0.354 0,0.151 0,0.353 -0.05,0.503 -0.101,0.202 -0.202,0.454 -0.403,0.655 L 272.16,85.479 c -0.151,0.202 -0.302,0.403 -0.504,0.504 -0.101,0.101 -0.252,0.252 -0.454,0.252 -0.151,0.051 -0.252,0.051 -0.403,0 -0.201,-0.101 -0.403,-0.151 -0.604,-0.303 l -2.369,-1.663 -1.815,2.621 13.507,9.475 1.865,-2.621 -2.721,-1.915 c -0.202,-0.051 -0.353,-0.252 -0.403,-0.403 -0.151,-0.151 -0.202,-0.353 -0.202,-0.555 -0.05,-0.101 -0.05,-0.252 0,-0.302 0.05,-0.202 0.151,-0.353 0.252,-0.555 l 6.854,-9.828 1.411,1.008 c 0.353,0.202 0.605,0.454 0.907,0.756 0.202,0.252 0.302,0.604 0.454,0.958 0.151,0.302 0.202,0.655 0.202,1.058 0,0.403 -0.05,0.807 -0.202,1.311 -0.05,0.504 -0.252,1.209 -0.655,2.066 -0.353,0.907 -0.807,1.965 -1.462,3.326 -0.503,1.109 -0.907,2.066 -1.209,2.772 -0.302,0.756 -0.504,1.361 -0.604,1.714 -0.202,0.604 -0.252,1.209 -0.252,1.814 0,0.554 0.05,1.159 0.252,1.663 0.353,1.059 1.109,2.016 2.268,2.822 0.807,0.555 1.613,0.958 2.419,1.109 0.857,0.202 1.714,0.101 2.571,-0.101 0.554,-0.202 1.159,-0.454 1.764,-0.857 0.252,-0.151 0.555,-0.353 0.807,-0.605 0.907,-0.706 1.713,-1.663 2.671,-2.822 l 0.303,-0.403 -2.369,-1.664 -0.353,0.403 c -0.403,0.554 -0.706,0.958 -1.059,1.26 -0.907,0.907 -1.512,1.26 -1.814,1.058 -0.101,-0.101 -0.101,-0.151 -0.151,-0.202 0,-0.101 0,-0.202 0,-0.353 0,-0.202 0.05,-0.503 0.151,-0.957 0.202,-0.403 0.403,-1.008 0.655,-1.714 0.403,-1.109 0.806,-2.218 1.109,-3.226 0,-0.051 0.05,-0.202 0.05,-0.303 0.252,-0.907 0.403,-1.814 0.555,-2.671 0.05,-0.756 0.101,-1.461 0.05,-2.117 -0.05,-0.605 -0.151,-1.209 -0.353,-1.764 -0.05,-0.202 -0.202,-0.403 -0.252,-0.655 -0.151,-0.302 -0.252,-0.554 -0.454,-0.907 0.101,0.101 0.302,0.151 0.454,0.202 0.403,0.202 0.857,0.353 1.26,0.504 1.26,0.303 2.419,0.504 3.427,0.454 1.361,-0.05 2.57,-0.353 3.579,-0.958 1.057,-0.551 2.014,-1.408 2.77,-2.517 z m -5.191,-6.905 c -0.302,0.756 -0.706,1.563 -1.31,2.47 -0.605,0.856 -1.311,1.613 -1.916,2.066 -0.604,0.554 -1.209,0.857 -1.814,0.958 -0.252,0 -0.555,0.101 -0.807,0.101 -0.555,0 -1.159,-0.101 -1.764,-0.202 -0.807,-0.303 -1.714,-0.706 -2.571,-1.311 l -1.713,-1.21 5.846,-8.265 c 0.05,-0.151 0.151,-0.302 0.202,-0.353 0.202,-0.252 0.403,-0.454 0.555,-0.604 0.201,-0.202 0.302,-0.252 0.454,-0.252 0.353,-0.101 0.957,0.202 1.915,0.857 0.958,0.706 1.663,1.361 2.167,1.966 0.555,0.605 0.807,1.209 0.958,1.814 0.05,0.604 -0.001,1.31 -0.202,1.965 z" inkscape:connector-curvature="0" style="fill:#e32219"/><path id="path50" d="m 371.75,222.012 c -0.152,-0.403 -0.353,-0.807 -0.605,-1.16 -0.252,-0.403 -0.605,-0.655 -1.008,-0.958 -0.403,-0.201 -0.806,-0.302 -1.311,-0.454 -0.453,-0.05 -0.957,-0.05 -1.411,0 -0.403,0.051 -0.857,0.252 -1.209,0.555 -0.807,0.453 -1.361,1.209 -1.512,2.066 -0.05,0.403 -0.05,0.907 0.101,1.311 0.05,0.403 0.252,0.806 0.605,1.209 0.252,0.353 0.605,0.604 1.008,0.907 0.353,0.202 0.807,0.403 1.26,0.454 0.504,0.05 0.957,0.05 1.36,0 0.504,-0.05 0.907,-0.252 1.311,-0.454 0.807,-0.555 1.26,-1.26 1.412,-2.167 0.049,-0.402 0.049,-0.906 -10e-4,-1.309 z" inkscape:connector-curvature="0" style="fill:#e32219"/><path id="path52" d="m 358.192,224.935 3.175,0.555 2.268,-12.953 0.605,-3.276 -0.605,-0.05 -2.57,-0.504 -0.504,2.822 c -0.051,0.252 -0.101,0.504 -0.252,0.706 -0.05,0.202 -0.151,0.353 -0.251,0.454 -0.101,0.05 -0.303,0.05 -0.504,0.101 -0.252,0 -0.604,0 -1.008,-0.05 l -18.749,-3.326 c -1.311,-0.252 -2.47,-0.353 -3.528,-0.353 -1.059,0.101 -2.066,0.202 -2.873,0.504 -0.857,0.303 -1.663,0.706 -2.52,1.361 -0.706,0.605 -1.462,1.411 -2.167,2.268 -0.655,0.958 -1.209,1.966 -1.613,3.075 -0.454,1.159 -0.806,2.369 -1.059,3.729 -0.302,1.814 -0.353,3.579 -0.101,5.141 0.353,1.613 0.907,3.024 1.865,4.334 0.857,1.26 2.016,2.318 3.377,3.125 1.361,0.807 2.923,1.361 4.687,1.613 l 15.372,2.772 c 0.655,0.05 1.361,0.252 1.865,0.554 0.555,0.202 1.059,0.554 1.461,0.857 0.706,0.706 1.008,1.512 0.807,2.52 l -0.202,1.361 3.175,0.554 2.167,-12.55 -3.125,-0.554 -0.202,0.958 c -0.05,0.555 -0.252,1.008 -0.554,1.361 -0.252,0.403 -0.605,0.655 -1.059,0.958 -0.403,0.252 -0.958,0.403 -1.613,0.454 -0.605,0.101 -1.461,0 -2.268,-0.101 l -14.212,-2.52 c -0.958,-0.202 -1.815,-0.403 -2.571,-0.756 -0.806,-0.252 -1.411,-0.605 -2.066,-1.008 -0.504,-0.403 -1.008,-0.807 -1.31,-1.21 -0.454,-0.504 -0.706,-0.907 -0.857,-1.361 -0.504,-1.361 -0.655,-2.873 -0.403,-4.334 0.202,-1.008 0.555,-1.915 1.008,-2.671 0.454,-0.756 1.058,-1.361 1.764,-1.815 0.756,-0.453 1.664,-0.755 2.621,-0.907 1.008,-0.101 2.167,-0.05 3.377,0.151 l 18.497,3.326 c 0.353,0 0.555,0.05 0.756,0.201 0.202,0.051 0.302,0.152 0.403,0.202 0.05,0.152 0.101,0.202 0.101,0.354 0.101,0.05 0.101,0.201 0,0.353 z" inkscape:connector-curvature="0" style="fill:#e32219"/><path id="path54" d="m 369.583,229.723 c -0.252,-0.302 -0.604,-0.655 -1.008,-0.856 -0.404,-0.201 -0.807,-0.403 -1.311,-0.504 -0.454,-0.05 -0.907,-0.05 -1.412,0 -0.453,0.101 -0.856,0.303 -1.26,0.504 -0.353,0.252 -0.706,0.554 -0.958,0.856 -0.201,0.403 -0.403,0.807 -0.504,1.311 -0.051,0.403 -0.051,0.857 0,1.26 0.151,0.353 0.303,0.705 0.504,1.058 0.05,0.05 0.101,0.101 0.101,0.202 0.303,0.302 0.706,0.655 1.059,0.857 0.403,0.252 0.857,0.403 1.361,0.454 0.454,0.101 0.907,0.101 1.311,0 0.504,-0.05 0.907,-0.252 1.311,-0.454 0.806,-0.555 1.31,-1.21 1.411,-2.167 0.151,-0.403 0.101,-0.857 0,-1.311 -0.101,-0.403 -0.353,-0.807 -0.605,-1.21 z" inkscape:connector-curvature="0" style="fill:#e32219"/><path id="path56" d="m 352.447,249.934 c -0.151,0.353 -0.252,0.554 -0.403,0.756 -0.101,0.101 -0.202,0.252 -0.353,0.303 -0.151,0.101 -0.403,0.101 -0.604,0 l -9.022,-3.831 -14.666,-6.25 -0.504,-0.202 c -0.202,-0.051 -0.403,-0.202 -0.604,-0.353 -0.151,-0.101 -0.252,-0.303 -0.403,-0.454 -0.051,-0.151 -0.051,-0.201 -0.051,-0.353 0,-0.101 0,-0.252 0.051,-0.403 l 1.361,-3.024 -2.974,-1.31 -7.056,16.682 c -0.554,1.159 -0.907,2.268 -1.159,3.427 -0.252,1.109 -0.403,2.167 -0.403,3.276 0,1.008 0.051,1.966 0.252,2.772 0.151,0.806 0.403,1.512 0.756,2.117 0.554,0.807 1.159,1.563 1.814,2.167 0.756,0.604 1.563,1.059 2.52,1.461 1.159,0.504 2.167,0.706 3.276,0.756 1.059,0 2.066,-0.202 3.125,-0.554 0,-0.05 0.05,-0.05 0.05,-0.05 1.008,-0.403 2.016,-1.109 3.125,-2.016 0.605,-0.605 1.209,-1.361 1.814,-2.167 0,0.655 0,1.26 0.05,1.864 0.151,1.16 0.403,2.268 0.807,3.175 0.454,0.958 0.958,1.714 1.663,2.47 0.655,0.655 1.563,1.209 2.52,1.613 1.059,0.504 2.218,0.706 3.276,0.706 0.504,0 0.958,-0.101 1.361,-0.152 0.706,-0.151 1.311,-0.353 1.966,-0.604 1.109,-0.554 2.066,-1.209 2.923,-2.167 0.807,-0.958 1.563,-2.117 2.117,-3.528 l 7.459,-17.539 -2.923,-1.26 z m -19.303,6.149 c -0.403,1.008 -0.958,1.865 -1.512,2.469 -0.605,0.605 -1.209,1.008 -1.966,1.26 -0.756,0.302 -1.461,0.403 -2.268,0.353 0,0 -0.101,0 -0.151,0 -0.907,-0.051 -1.915,-0.353 -2.923,-0.807 -1.008,-0.403 -1.814,-0.907 -2.52,-1.512 -0.605,-0.555 -1.059,-1.16 -1.36,-1.764 -0.252,-0.655 -0.403,-1.411 -0.403,-2.167 0,-0.756 0.202,-1.461 0.554,-2.369 l 1.563,-3.629 c 0.05,-0.101 0.151,-0.202 0.202,-0.302 0.05,-0.05 0.202,-0.05 0.353,-0.151 0.101,0 0.252,0 0.454,0 0.202,0.101 0.403,0.151 0.706,0.252 l 3.528,1.512 7.358,3.125 z m 15.221,3.124 c -0.05,0.353 -0.252,0.807 -0.454,1.412 -0.555,1.209 -1.109,2.167 -1.613,2.923 -0.554,0.706 -1.109,1.159 -1.563,1.361 -0.555,0.252 -1.21,0.353 -1.915,0.252 -0.252,0 -0.454,-0.05 -0.756,-0.101 -0.554,-0.151 -1.209,-0.353 -1.865,-0.605 -1.109,-0.504 -2.066,-1.058 -2.721,-1.563 -0.706,-0.554 -1.16,-1.109 -1.412,-1.713 -0.302,-0.604 -0.403,-1.26 -0.353,-2.117 0.151,-0.807 0.353,-1.764 0.806,-2.823 l 1.16,-2.671 4.384,1.915 5.645,2.369 c 0.202,0.101 0.403,0.202 0.554,0.353 0.101,0.05 0.202,0.202 0.202,0.353 v -0.101 c 0.052,0.152 10e-4,0.403 -0.099,0.756 z" inkscape:connector-curvature="0" style="fill:#e32219"/><path id="path58" d="m 359.201,177.812 c 0.101,0.353 0,0.604 0,0.907 -0.05,0.101 -0.101,0.252 -0.202,0.403 -0.05,0.05 -0.101,0.101 -0.252,0.202 -0.202,0.05 -0.403,0.101 -0.655,0.101 l -25.906,1.865 c -0.251,0 -0.453,0 -0.655,-0.101 -0.252,0 -0.353,-0.05 -0.454,-0.202 -0.101,-0.05 -0.202,-0.201 -0.252,-0.302 -0.051,-0.151 -0.151,-0.353 -0.151,-0.554 l -0.252,-3.276 -3.175,0.303 1.965,27.77 h 0.454 l 13.104,-0.202 h 0.503 l -0.202,-2.923 h -0.403 c -1.865,-0.252 -3.528,-0.605 -4.939,-1.008 -1.36,-0.454 -2.419,-0.958 -3.326,-1.563 -0.857,-0.605 -1.461,-1.209 -1.966,-1.916 -0.403,-0.655 -0.655,-1.361 -0.705,-2.066 l -0.303,-4.334 c -0.05,-0.554 -0.05,-0.958 0,-1.26 0,-0.252 0.101,-0.403 0.151,-0.454 0.051,-0.051 0.202,-0.151 0.403,-0.202 0.353,-0.151 0.655,-0.151 1.16,-0.202 l 25.2,-1.764 c 0.353,0 0.605,0 0.807,0.051 0.202,0 0.353,0.101 0.403,0.151 0.151,0.05 0.202,0.202 0.303,0.403 0.05,0.202 0.101,0.454 0.101,0.807 l 0.202,3.175 3.276,-0.252 -1.21,-16.683 -3.226,0.303 z" inkscape:connector-curvature="0" style="fill:#e32219"/><path id="path60" d="m 350.683,142.027 c 0.05,0.302 0.151,0.604 0.05,0.806 0,0.202 0,0.353 -0.05,0.454 -0.05,0.101 -0.202,0.252 -0.403,0.302 -0.252,0.151 -0.555,0.303 -0.958,0.353 l -18.497,4.788 c -1.21,0.353 -2.318,0.706 -3.226,1.159 -0.958,0.504 -1.764,1.008 -2.469,1.663 -0.655,0.655 -1.21,1.411 -1.664,2.268 -0.504,0.907 -0.856,1.865 -1.058,2.974 -0.202,1.109 -0.302,2.268 -0.252,3.478 0.05,1.21 0.252,2.52 0.605,3.78 0.503,1.865 1.159,3.377 2.117,4.738 0.857,1.361 2.016,2.369 3.376,3.175 1.361,0.857 2.823,1.311 4.385,1.461 1.563,0.101 3.226,0 4.99,-0.403 l 15.069,-3.931 c 0.706,-0.202 1.361,-0.303 1.966,-0.303 0.605,0 1.159,0.101 1.663,0.202 1.008,0.353 1.613,0.958 1.814,1.966 l 0.353,1.311 3.074,-0.807 -3.175,-12.348 -3.125,0.807 0.302,0.958 c 0.151,0.554 0.151,1.008 0.05,1.512 -0.05,0.454 -0.252,0.857 -0.605,1.26 -0.252,0.403 -0.655,0.756 -1.26,1.109 -0.554,0.302 -1.311,0.604 -2.117,0.806 l -13.96,3.578 c -0.958,0.252 -1.815,0.403 -2.672,0.454 -0.806,0.101 -1.512,0 -2.217,-0.101 -0.655,-0.101 -1.26,-0.302 -1.814,-0.555 -0.504,-0.201 -0.958,-0.554 -1.311,-0.856 -1.008,-1.059 -1.764,-2.318 -2.066,-3.831 -0.302,-1.008 -0.353,-1.965 -0.302,-2.822 0.151,-0.807 0.403,-1.613 0.907,-2.369 0.504,-0.706 1.159,-1.361 2.016,-1.865 0.806,-0.504 1.915,-0.907 3.125,-1.26 l 18.195,-4.687 c 0.302,-0.151 0.554,-0.151 0.756,-0.151 0.151,0 0.353,0 0.403,0.101 0.151,0.05 0.202,0.05 0.303,0.202 0.05,0.05 0.101,0.202 0.202,0.353 l 0.857,3.478 3.125,-0.806 -4.133,-15.927 -3.024,0.857 z" inkscape:connector-curvature="0" style="fill:#e32219"/><path id="path62" d="m 311.724,136.231 2.822,-1.512 -1.512,-2.974 c -0.101,-0.151 -0.151,-0.252 -0.151,-0.403 -0.101,-0.151 0,-0.252 0,-0.403 0.051,-0.202 0.353,-0.504 0.756,-0.706 l 6.401,-3.376 5.241,0.907 -7.459,10.886 v 0.05 c -0.051,0 -0.051,0.101 -0.151,0.151 0,0 -0.05,0.05 -0.101,0.05 0,0 -0.101,0.101 -0.151,0 -0.151,0 -0.202,0 -0.353,-0.05 -0.101,-0.05 -0.252,-0.202 -0.403,-0.403 -0.202,-0.202 -0.353,-0.454 -0.555,-0.807 l -0.907,-1.764 -2.873,1.512 7.61,14.162 2.772,-1.512 -0.806,-1.512 c -0.151,-0.252 -0.202,-0.504 -0.303,-0.857 -0.05,-0.252 -0.05,-0.604 -0.05,-0.958 0.05,-0.252 0.151,-0.555 0.202,-0.806 0.151,-0.252 0.252,-0.605 0.454,-0.907 l 10.937,-15.826 5.896,1.008 c 1.159,0.151 2.167,0.403 3.024,0.655 0.958,0.353 1.764,0.706 2.47,1.109 0.454,0.202 0.857,0.554 1.21,0.856 0.353,0.353 0.655,0.756 0.856,1.26 l 0.706,1.159 2.772,-1.512 -6.351,-12.046 -2.873,1.462 0.605,1.209 c 0.202,0.353 0.353,0.655 0.403,0.958 0.101,0.302 0.101,0.504 0,0.756 0,0.151 -0.05,0.252 -0.101,0.353 -0.151,0.101 -0.302,0.202 -0.454,0.302 -0.202,0.151 -0.454,0.252 -0.807,0.252 -0.251,0 -0.655,0 -1.058,-0.101 l -14.667,-2.571 11.945,-6.3 c 0.202,-0.151 0.403,-0.201 0.604,-0.252 0.152,0 0.303,0 0.354,0.051 0.151,0 0.201,0.05 0.353,0.201 0.202,0.202 0.302,0.454 0.454,0.756 l 1.411,2.621 2.873,-1.461 -7.611,-14.314 -2.822,1.512 1.26,2.369 c 0.151,0.252 0.201,0.454 0.302,0.655 0,0.202 0,0.353 0,0.403 -0.101,0.151 -0.151,0.202 -0.202,0.353 -0.101,0.051 -0.202,0.202 -0.454,0.252 l -23.234,12.399 c -0.202,0.101 -0.403,0.151 -0.504,0.201 -0.151,0 -0.303,0 -0.403,-0.05 -0.151,0 -0.303,-0.05 -0.454,-0.202 -0.101,-0.151 -0.252,-0.353 -0.403,-0.554 l -1.209,-2.369 -2.822,1.512 z" inkscape:connector-curvature="0" style="fill:#e32219"/><path id="path64" d="m 343.224,292.572 c -0.252,-0.353 -0.555,-0.705 -0.958,-0.958 -0.403,-0.302 -0.806,-0.504 -1.26,-0.604 -0.403,-0.101 -0.908,-0.151 -1.361,-0.101 -0.958,0.151 -1.714,0.555 -2.218,1.311 -0.252,0.403 -0.454,0.806 -0.504,1.209 -0.05,0.403 -0.05,0.857 0.05,1.361 0.101,0.403 0.303,0.806 0.554,1.209 0.202,0.353 0.555,0.706 0.958,0.958 0.353,0.252 0.756,0.454 1.159,0.604 h 0.05 c 0.504,0.151 0.958,0.151 1.361,0.051 1.008,-0.101 1.714,-0.504 2.217,-1.26 0.303,-0.403 0.504,-0.756 0.555,-1.21 0.101,-0.403 0.101,-0.856 -0.05,-1.31 -0.049,-0.454 -0.251,-0.857 -0.553,-1.26 z" inkscape:connector-curvature="0" style="fill:#e32219"/><path id="path66" d="m 338.083,299.981 c -0.252,-0.403 -0.604,-0.655 -1.008,-0.907 -0.403,-0.353 -0.807,-0.504 -1.21,-0.655 -0.302,-0.05 -0.504,-0.05 -0.706,-0.101 -0.202,0 -0.453,0 -0.756,0.051 -0.907,0.05 -1.663,0.554 -2.167,1.31 -0.252,0.303 -0.454,0.706 -0.503,1.209 -0.101,0.403 -0.101,0.857 0.05,1.26 0.051,0.504 0.252,0.907 0.555,1.311 0.202,0.403 0.504,0.655 0.907,1.008 0.454,0.302 0.857,0.403 1.31,0.555 0.202,0.05 0.403,0.05 0.605,0.151 0.302,0 0.504,0 0.756,-0.101 0.958,-0.05 1.713,-0.555 2.217,-1.26 0.202,-0.403 0.403,-0.807 0.504,-1.26 0.051,-0.403 0.051,-0.857 0,-1.311 -0.151,-0.403 -0.352,-0.908 -0.554,-1.26 z" inkscape:connector-curvature="0" style="fill:#e32219"/><path id="path68" d="m 330.372,292.068 2.571,1.814 2.217,-3.175 4.486,-6.35 2.772,-3.931 -2.621,-1.814 -0.151,0.202 -1.512,2.066 c -0.202,0.303 -0.302,0.504 -0.504,0.605 -0.151,0.151 -0.303,0.202 -0.454,0.202 -0.101,0 -0.302,0 -0.504,-0.05 -0.202,-0.151 -0.555,-0.252 -0.807,-0.555 l -0.706,-0.403 -14.969,-10.483 c -1.058,-0.756 -2.117,-1.31 -3.024,-1.764 -0.958,-0.403 -1.915,-0.706 -2.873,-0.756 -0.857,-0.151 -1.814,-0.05 -2.772,0.151 -0.958,0.252 -1.966,0.605 -2.924,1.159 -1.008,0.504 -1.965,1.26 -2.822,2.066 -0.907,0.807 -1.714,1.764 -2.521,2.923 -1.108,1.562 -1.814,3.125 -2.217,4.687 -0.403,1.562 -0.504,3.125 -0.202,4.688 0.252,1.461 0.857,2.873 1.764,4.183 0.856,1.311 2.066,2.52 3.478,3.528 l 12.801,8.921 c 0.655,0.403 1.109,0.907 1.512,1.31 0.403,0.454 0.655,0.958 0.907,1.412 0.403,0.957 0.302,1.814 -0.302,2.671 l -0.756,1.058 2.57,1.916 7.358,-10.433 -2.571,-1.865 -0.655,0.857 c -0.252,0.403 -0.655,0.706 -1.058,0.908 -0.403,0.302 -0.806,0.403 -1.361,0.403 -0.454,0.101 -1.008,0 -1.613,-0.252 -0.706,-0.202 -1.311,-0.554 -2.066,-1.059 L 309.1,288.642 c -0.857,-0.554 -1.512,-1.159 -2.117,-1.713 -0.555,-0.604 -1.008,-1.209 -1.361,-1.764 v -0.05 c -0.353,-0.554 -0.605,-1.159 -0.756,-1.713 -0.101,-0.555 -0.202,-1.059 -0.101,-1.563 0.05,-1.461 0.605,-2.823 1.461,-4.083 0.605,-0.857 1.311,-1.563 1.966,-2.016 0.756,-0.453 1.563,-0.756 2.419,-0.856 0.856,-0.101 1.764,0 2.721,0.302 0.958,0.302 1.966,0.856 2.974,1.563 l 15.423,10.785 c 0.251,0.151 0.453,0.353 0.604,0.454 0.101,0.151 0.202,0.302 0.202,0.454 0.05,0.101 0.05,0.201 0.05,0.302 -0.05,0.101 -0.05,0.202 -0.151,0.353 z" inkscape:connector-curvature="0" style="fill:#e32219"/></g>
</svg>