<svg xmlns="http://www.w3.org/2000/svg" xmlns:xlink="http://www.w3.org/1999/xlink" xmlns:serif="http://www.serif.com/" width="100%" height="100%" viewBox="0 0 411 430" version="1.1" xml:space="preserve" style="fill-rule:evenodd;clip-rule:evenodd;stroke-linejoin:round;stroke-miterlimit:2;">
    <g id="Layer_x0020_1">
        <g id="_861746880">
            <path d="M316.032,340.415C317.807,340.284 326.787,339.619 326.787,339.619C353.655,333.489 346.709,305.317 361.848,291.677C333.891,286.446 311.02,325.619 310.951,325.736C312.085,328.231 312.708,330.928 312.782,333.667C323.881,326.836 342.247,304.691 342.247,304.691C342.247,304.691 337.899,319.3 316.032,340.415Z" style="fill:rgb(221,176,98);"/>
            <path d="M30.67,177.167C34.477,160.919 23.507,146.999 19.741,134.253C25.724,143.272 34.391,146.886 37.397,162.951C39.106,158.974 43.532,154.539 46.534,150.513C46.516,150.368 35.249,128.542 13.34,119.278C10.523,132.191 10.955,163.165 17.556,168.875C20.568,171.102 27.782,175.061 30.67,177.167L30.67,177.167Z" style="fill:rgb(221,176,98);"/>
            <path d="M17.621,177.787C17.182,192.865 19.482,208.424 25.13,221.204C25.775,222.805 26.503,224.372 27.312,225.896C31.38,224.725 35.695,224.725 39.762,225.896C40.132,224.605 40.576,223.336 41.093,222.096C33.842,213.112 28.389,202.817 25.029,191.773C30.006,200.443 36.036,208.466 42.981,215.658C44.095,214.01 45.233,212.362 46.392,210.713C46.392,210.713 40.268,185.771 17.621,177.787L17.621,177.787Z" style="fill:rgb(221,176,98);"/>
            <path d="M80.539,335.016C78.642,322.878 71.413,305.531 61.685,295.112C71.729,302.165 79.069,309.848 84.845,325.567C85.91,325.567 91.068,326.361 92.207,326.361C91.316,321.209 91.074,313.477 89.758,308.215C85.618,303.95 78.653,290.365 76.103,276.96C79.366,285.127 87.128,298.607 89.208,299.987C94.399,286.354 81.158,264.542 69.914,255.48C70.052,262.709 66.223,279.115 77.465,298.122C60.549,281.94 50.788,284.857 48.031,284.193C64.366,307.64 53.22,316.768 80.539,335.016L80.539,335.016Z" style="fill:rgb(221,176,98);"/>
            <path d="M85.827,331.853C92.897,349.958 84.1,367.536 132.203,383.587C131.206,381.427 128.911,375.691 128.185,373.271C125.489,367.465 99.259,344.45 99.259,344.45C99.259,344.45 118.334,352.847 125.385,361.452C125.259,358.235 125.221,356.065 124.97,352.847C117.468,336.683 88.588,331.225 85.827,331.853L85.827,331.853Z" style="fill:rgb(221,176,98);"/>
            <path d="M31.493,230.111C32.729,233.918 33.368,237.892 33.386,241.894C33.643,252.942 36.063,263.831 40.512,273.946L47.407,275.645C50.701,276.523 53.896,277.741 56.937,279.28C49.773,266.611 45.257,253.262 41.474,239.792C48.163,254.78 56.62,273.018 63.876,276.729C62.459,269.272 63.898,251.613 63.898,251.613C63.722,251.391 45.306,229.224 31.494,230.111L31.493,230.111Z" style="fill:rgb(221,176,98);"/>
            <path d="M325.149,345.941C319.992,345.784 314.831,346.113 309.736,346.924C305.1,347.467 288.092,352.764 280.451,363.051C280.613,365.351 280.762,368.899 280.801,371.3C280.836,371.564 280.872,371.825 280.911,372.089C290.578,369.366 310.817,354.618 311.405,354.618C313.286,354.618 291.169,376.692 280.52,378.471C280.163,382.303 279.195,386.053 277.65,389.578C301.142,388.087 314.01,371.49 325.149,345.94L325.149,345.941Z" style="fill:rgb(221,176,98);"/>
            <path d="M399.81,173.455C399.007,173.761 367.841,189.388 360.627,219C363.001,222.157 365.011,225.57 366.622,229.176C373.904,215.562 380.713,202.045 388.244,194.99C380.367,206.207 372.277,233.88 373.368,233.484C375.365,232.762 377.443,232.285 379.556,232.065C381.329,234.13 382.617,236.567 383.324,239.196C407.566,219.129 395.442,203.552 399.81,173.455L399.81,173.455Z" style="fill:rgb(221,176,98);"/>
            <path d="M376.947,239.915C360.093,245.47 346.891,258.718 341.395,275.592C343.164,277.907 344.928,285.247 345.437,287.539C355.447,282.553 363.87,267.953 366.838,256.736C366.622,273.057 362.299,278.786 357.976,284.729C361.366,284.729 362.76,284.962 366.276,284.962C380.942,282.244 383.097,258.725 376.947,239.915L376.947,239.915Z" style="fill:rgb(221,176,98);"/>
            <path d="M251.581,369.848C250.444,374.696 248.75,381.93 248.747,382.041C260.53,379.95 268.704,365.315 268.704,365.315C268.704,365.315 265.473,381.851 246.637,391.394C245.807,395.639 244.716,399.829 243.374,403.94C284.552,397.256 274.245,363.939 273.02,351.585C266.196,358.041 259.04,364.136 251.581,369.848Z" style="fill:rgb(221,176,98);"/>
            <path d="M280.599,344.12C279.588,347.892 279.366,351.834 279.945,355.696C282.647,353.401 285.471,351.257 288.406,349.27C291.83,340.714 292.287,337.766 297.831,332.292C295.756,336.717 294.511,341.483 294.159,346.357C298.241,344.536 302.458,343.03 306.771,341.852C309.17,334.199 302.872,323.429 301,320.47C294.68,328.754 287.867,336.652 280.599,344.12Z" style="fill:rgb(221,176,98);"/>
            <path d="M331.231,270.525C324.148,285.593 315.735,299.999 306.094,313.574L308.204,318.815C313.637,311.583 318.767,305.697 324.374,299.38C326.64,294.377 328.368,289.149 329.531,283.781C330.151,287.815 330.222,291.914 329.742,295.966C332.666,294.315 336.523,291.097 340.236,290.108C340.156,289.484 338.797,276.723 331.231,270.526L331.231,270.525Z" style="fill:rgb(221,176,98);"/>
            <path d="M352.339,219.818C352.339,219.818 351.497,219.259 350.615,218.7C346.172,234.23 340.668,249.437 334.139,264.212C334.112,264.271 334.085,264.329 334.061,264.386C335.628,266.059 337.107,267.732 338.58,269.405C339.877,267.535 341.184,265.571 342.534,263.536C344.51,260.553 346.555,257.476 348.742,254.479C350.634,247.034 351.002,238.428 352.968,231.004C353.471,236.078 354.099,241.152 354.727,246.103C355.674,245.481 364.584,238.381 364.584,238.381C362.087,230.943 357.084,223.527 352.339,219.818L352.339,219.818Z" style="fill:rgb(221,176,98);"/>
            <path d="M398.095,130.512C397.424,130.977 368.79,145.78 375.375,174.803C371.643,173.69 368.892,169.107 368.383,165.235C365.544,166.905 363.154,169.242 361.421,172.043C359.058,185.163 356.29,197.689 353.122,209.622C353.414,211.548 354.506,213.263 356.128,214.342C358.284,207.859 361.206,201.655 364.835,195.866C363.617,187.568 363.653,184.414 366.367,175.126C366.847,180.535 366.666,186.593 369.715,190.172C373.695,184.431 376.695,182.433 381.132,178.554C380.674,165.523 383.6,152.596 389.625,141.031C387.66,151.804 385.301,163.221 387.312,173.883C389.733,172.279 398.004,167.637 399.617,166.432C399.491,154.18 399.978,142.022 398.095,130.512Z" style="fill:rgb(221,176,98);"/>
            <path d="M367.961,124.589C366.708,137.115 365.16,149.182 363.317,160.789C365.608,157.803 371.646,151.621 372.032,150.424C372.702,145.229 372.426,139.956 371.215,134.859C373.061,137.126 374.526,139.678 375.554,142.415C376.638,140.505 379.978,138.185 381.408,136.597C382.574,135.301 380.211,125.054 367.961,124.589L367.961,124.589Z" style="fill:rgb(221,176,98);"/>
            <path d="M371.253,76.362C370.71,90.229 369.868,103.605 368.727,116.49L368.923,116.524C373.329,117.544 377.384,119.72 380.674,122.825C382.471,116.666 381.041,103.914 378.386,93.013C385.77,104.17 387.264,118.189 386.198,132.04C386.247,132.159 386.298,132.278 386.345,132.398C388.115,130.745 391.25,127.988 393.329,126.425C398.048,120.044 393.666,96.513 371.253,76.362Z" style="fill:rgb(221,176,98);"/>
            <path d="M140.64,363.702C140.672,363.173 154,382.603 161.153,380.529C159.925,376.133 159.481,371.554 159.843,367.004C150.447,359.554 141.562,351.478 133.253,342.832C133.165,347.516 132.634,357.389 132.634,357.389C132.762,363.336 133.646,369.243 135.261,374.97C136.087,377.179 136.923,379.358 137.74,381.471L137.79,381.601C144.108,394.798 156.541,404.018 171.002,406.231C167.952,401.2 165.547,395.804 163.849,390.17C147.944,385.462 140.355,368.277 140.639,363.702L140.64,363.702Z" style="fill:rgb(221,176,98);"/>
            <path d="M98.178,297.16C96.862,296.189 95.352,295.512 93.752,295.174C93.662,295.237 98.106,327.834 98.106,327.834C101.544,328.608 104.877,329.789 108.036,331.353C109.328,329.391 102.291,313.331 102.296,313.331C108.568,321.123 112.079,325.693 114.746,335.664C119.588,338.182 124.238,343.617 126.869,346.514C126.979,344.617 127.128,342.672 127.317,340.681C127.166,339.034 126.949,337.375 126.638,335.693C116.003,323.738 106.479,310.84 98.178,297.161L98.178,297.16Z" style="fill:rgb(221,176,98);"/>
            <path d="M61.81,209.041C49.97,212.587 47.267,222.282 47.118,228.908C49.993,230.486 52.721,232.317 55.27,234.378C55.775,229.283 56.311,223.967 58.923,222.465C58.595,228.282 59.342,234.108 61.128,239.653C62.686,241.208 64.236,242.869 65.781,244.658L71.823,249.448C73.102,250.287 74.424,251.131 75.81,251.986C70.287,237.964 65.611,223.624 61.81,209.041Z" style="fill:rgb(221,176,98);"/>
            <path d="M51.807,161.036C51.058,159.573 50.186,158.176 49.201,156.86C42.202,163.337 37.437,171.869 35.596,181.227C37.51,182.903 39.308,184.707 40.977,186.626C41.692,183.716 42.418,180.795 43.232,177.787C45.317,187.451 48.076,196.955 51.485,206.233C52.764,204.872 59.082,202.167 59.968,201.792C56.796,188.866 54.077,175.281 51.807,161.036L51.807,161.036Z" style="fill:rgb(221,176,98);"/>
            <path d="M43.801,75.593C43.779,75.548 43.755,75.483 43.734,75.44C20.502,84.769 15.382,112.634 15.286,114.097C17.74,115.097 23.212,117.343 25.371,119.352C27.404,107.881 29.588,99.37 35.137,90.092C32.387,101.675 30.643,113.849 32.354,124.683C32.568,124.53 42.981,135.407 47.424,139.848C47.918,139.555 48.346,139.162 48.681,138.695C46.277,118.897 44.651,97.863 43.802,75.593L43.801,75.593Z" style="fill:rgb(221,176,98);"/>
            <path d="M216.541,411.315C225.012,410.688 233.195,395.161 236.977,389.061C234.591,389.174 217.001,405.871 216.541,411.315Z"/>
            <path d="M174.804,389.961C184.912,405.747 192.043,410.378 200.184,412.4C203.088,406.928 183.5,397.73 174.804,389.961Z"/>
            <path d="M405.414,165.004C405.224,156.423 404.501,133.129 403.918,129.561L402.41,120.343C398.957,99.175 388.022,79.95 371.596,66.16C371.863,56.722 371.998,47.063 372.004,37.183L372.004,33.017L368.078,31.621C319.248,14.284 263.729,5.119 207.524,5.119C151.344,5.118 95.837,14.284 47.006,31.622L43.079,33.016L43.079,37.183C43.079,48.209 43.247,58.95 43.583,69.404L43.582,69.363L42.171,69.75C-2.497,87.145 1.547,160.595 11.888,173.524L11.724,177.616C11.14,197.648 14.46,213.901 21.873,227.302L27.39,237.27C27.22,249.18 29.254,261.019 33.389,272.19C34.852,276.171 41.284,284.928 41.284,284.928C46.676,291.896 50.651,299.854 52.981,308.351C56.099,318.251 59.043,327.603 77.336,339.973L83.314,344.015C83.522,345.004 83.718,346.001 83.917,347.012C85.247,353.821 86.757,361.54 93.464,368.962C100.457,376.701 112.186,383.131 130.371,389.196L136.758,391.325C144.154,401.355 160.53,412.114 175.307,412.854C175.307,412.854 193.89,432.74 209.663,420.555C229.153,430.72 241.29,410.038 241.29,410.038C254.992,408.013 268.166,403.074 274.001,395.642L276.348,395.56C288.932,395.37 300.942,390.27 309.817,381.346C317.43,373.886 324.086,363.236 330.764,347.829L332.354,344.158C348.317,338.681 352.717,325.4 356.395,314.269C358.747,307.141 360.971,300.408 365.797,296.06L376.055,286.819L375.963,286.813C378.066,285.118 379.844,283.056 381.211,280.726C386.273,272.198 387.415,258.913 384.527,245.452L388.395,242.208C405.92,227.508 405.426,214.083 404.852,198.54C404.27,190.455 404.537,182.332 405.648,174.304C405.824,171.203 405.745,168.093 405.413,165.005L405.414,165.004ZM399.617,166.432C398.004,167.637 389.733,172.279 387.312,173.884C385.302,163.221 387.66,151.805 389.626,141.031C383.601,152.596 380.674,165.523 381.132,178.555C376.696,182.433 373.695,184.432 369.715,190.173C366.667,186.592 366.847,180.536 366.368,175.126C363.654,184.414 363.617,187.568 364.836,195.866C361.207,201.655 358.284,207.859 356.128,214.343C354.506,213.263 353.414,211.549 353.122,209.622C356.748,195.94 361.764,170.141 361.422,172.043C363.155,169.242 365.544,166.905 368.383,165.235C368.892,169.107 371.643,173.69 375.376,174.803C368.79,145.781 397.425,130.977 398.096,130.512C399.978,142.022 399.491,154.181 399.617,166.432ZM329.531,283.781C328.368,289.149 326.64,294.377 324.374,299.38C318.767,305.697 313.637,311.583 308.204,318.815L306.094,313.574L306.077,313.597C315.725,300.017 324.144,285.602 331.231,270.525C338.798,276.722 340.156,289.484 340.236,290.108C336.523,291.097 332.666,294.314 329.742,295.966C330.222,291.913 330.151,287.815 329.531,283.781L329.531,283.781ZM288.406,349.27C285.471,351.257 282.647,353.402 279.946,355.696C279.366,351.834 279.589,347.893 280.6,344.12L280.58,344.141C287.86,336.663 294.685,328.752 301.013,320.452L301.001,320.471C302.873,323.43 309.17,334.199 306.772,341.853C302.458,343.031 298.242,344.537 294.159,346.358C294.511,341.484 295.756,336.718 297.831,332.293C292.288,337.766 291.83,340.715 288.406,349.271L288.406,349.27ZM338.58,269.405C336.996,267.351 334.644,264.689 334.139,264.212C340.673,249.426 346.181,234.206 350.625,218.663L350.615,218.7C351.497,219.259 352.339,219.818 352.339,219.818C357.084,223.527 362.086,230.943 364.584,238.381C364.584,238.38 355.674,245.481 354.727,246.103C354.099,241.152 353.47,236.078 352.968,231.003C351.001,238.427 350.633,247.034 348.742,254.479C346.555,257.476 344.51,260.553 342.533,263.535C341.184,265.571 339.876,267.535 338.579,269.405L338.58,269.405ZM372.033,150.424C371.646,151.622 365.608,157.803 363.317,160.789L363.295,160.923C365.15,149.27 366.705,137.159 367.961,124.59C380.211,125.054 382.573,135.301 381.408,136.597C379.978,138.186 376.637,140.505 375.554,142.415C374.526,139.677 373.061,137.126 371.215,134.859C372.426,139.956 372.703,145.229 372.032,150.424L372.033,150.424ZM393.329,126.425C391.25,127.988 388.115,130.745 386.345,132.398C386.298,132.278 386.247,132.159 386.198,132.04C387.264,118.189 385.771,104.17 378.386,93.014C381.041,103.914 382.471,116.666 380.674,122.825C377.385,119.72 373.329,117.545 368.923,116.524L368.727,116.49C368.725,116.509 368.723,116.527 368.72,116.546C369.867,103.639 370.711,90.245 371.253,76.364C393.666,96.513 398.048,120.045 393.329,126.426L393.329,126.425ZM207.525,11.018C262.292,11.018 317.033,19.759 366.103,37.184C366.104,224.281 319.346,331.102 207.543,391.164C95.738,331.102 48.981,224.281 48.981,37.184C98.154,19.722 152.853,11.019 207.525,11.018ZM127.317,340.681C127.128,342.673 126.979,344.617 126.869,346.514C124.239,343.617 119.589,338.182 114.746,335.664C112.08,325.693 108.568,321.123 102.296,313.331C102.291,313.331 109.328,329.391 108.036,331.353C104.877,329.789 101.544,328.608 98.106,327.834C98.106,327.834 93.662,295.237 93.752,295.174C95.352,295.512 96.862,296.189 98.178,297.16C106.479,310.842 116.007,323.742 126.644,335.699L126.638,335.693C126.949,337.375 127.166,339.034 127.317,340.681L127.317,340.681ZM55.27,234.379C52.721,232.317 49.993,230.486 47.119,228.908C47.268,222.283 49.97,212.588 61.81,209.041L61.8,209.007C65.607,223.611 70.288,237.972 75.822,252.013L75.811,251.986C74.424,251.132 73.102,250.287 71.823,249.449L65.782,244.658C64.238,242.869 62.686,241.208 61.128,239.654C59.342,234.108 58.596,228.282 58.923,222.466C56.311,223.967 55.775,229.284 55.27,234.379ZM51.807,161.036C54.077,175.289 56.797,188.874 59.967,201.792C59.079,202.167 52.764,204.872 51.485,206.233C48.075,196.955 45.317,187.451 43.232,177.788C42.418,180.795 41.692,183.716 40.976,186.626C39.307,184.707 37.509,182.903 35.596,181.227C37.437,171.87 42.2,163.338 49.201,156.861C50.185,158.176 51.057,159.574 51.807,161.036L51.807,161.036ZM43.734,75.44C43.755,75.483 43.779,75.547 43.801,75.593C44.655,97.884 46.282,118.918 48.681,138.695C48.345,139.162 47.917,139.555 47.424,139.848C42.981,135.407 32.568,124.53 32.353,124.683C30.642,113.849 32.387,101.675 35.137,90.092C29.588,99.37 27.404,107.881 25.371,119.352C23.211,117.343 17.74,115.097 15.285,114.097C15.381,112.634 20.502,84.769 43.734,75.44L43.734,75.44ZM13.34,119.279C35.249,128.543 46.516,150.369 46.534,150.514C43.532,154.54 39.107,158.975 37.397,162.951C34.391,146.887 25.724,143.273 19.741,134.254C23.508,147 34.477,160.92 30.67,177.168C27.781,175.062 20.568,171.103 17.556,168.876C10.955,163.166 10.523,132.192 13.34,119.279L13.34,119.279ZM27.312,225.897C26.503,224.372 25.775,222.806 25.13,221.205C19.483,208.425 17.182,192.866 17.621,177.788C40.268,185.771 46.391,210.714 46.391,210.714C45.228,212.363 44.09,214.01 42.981,215.659C36.036,208.466 30.006,200.444 25.029,191.773C28.388,202.818 33.842,213.112 41.093,222.097C40.575,223.336 40.131,224.605 39.762,225.897C35.694,224.726 31.379,224.726 27.312,225.897L27.312,225.897ZM40.512,273.946C36.063,263.832 33.643,252.942 33.386,241.894C33.368,237.892 32.729,233.918 31.493,230.112C45.306,229.224 63.721,251.392 63.898,251.613C63.898,251.613 62.459,269.272 63.876,276.729C56.62,273.019 48.162,254.78 41.474,239.792C45.256,253.262 49.773,266.611 56.937,279.28C53.895,277.741 50.701,276.523 47.406,275.645L40.511,273.946L40.512,273.946ZM61.685,295.112C71.413,305.532 78.642,322.878 80.539,335.016C53.22,316.768 64.366,307.64 48.031,284.193C50.787,284.857 60.548,281.94 77.465,298.122C66.225,279.115 70.052,262.709 69.914,255.48C81.158,264.543 94.398,286.355 89.208,299.987C87.128,298.607 79.366,285.128 76.103,276.96C78.653,290.365 85.617,303.95 89.759,308.216C91.074,313.478 91.316,321.209 92.206,326.362C91.068,326.362 85.909,325.567 84.844,325.567C79.069,309.848 71.728,302.165 61.685,295.112L61.685,295.112ZM85.827,331.853C88.588,331.225 117.467,336.684 124.97,352.847C125.22,356.065 125.259,358.235 125.385,361.453C118.334,352.847 99.258,344.45 99.258,344.45C99.258,344.45 125.489,367.465 128.184,373.271C128.911,375.692 131.206,381.427 132.202,383.587C84.099,367.537 92.897,349.958 85.827,331.853L85.827,331.853ZM137.79,381.602L137.74,381.472C136.923,379.359 136.087,377.18 135.261,374.971C133.646,369.244 132.762,363.337 132.634,357.389C132.634,357.389 133.165,347.517 133.253,342.833C141.569,351.487 150.459,359.567 159.866,367.021L159.843,367.005C159.481,371.555 159.925,376.134 161.153,380.53C154,382.604 140.672,363.174 140.64,363.702C140.355,368.278 147.945,385.463 163.849,390.17C165.547,395.804 167.952,401.2 171.002,406.231C156.541,404.018 144.108,394.798 137.79,381.602L137.79,381.602ZM226.997,417.006C225.154,417.889 223.15,418.394 221.108,418.488C216.772,418.236 212.597,416.754 209.074,414.214C191.269,434.424 164.448,390.81 166.668,372.238C178.138,382.597 207.714,395.551 209.372,407.737C212.859,396.52 219.409,391.959 226.403,387.132L226.39,387.139C233.367,382.86 240.067,378.368 246.49,373.666C244.655,378.668 240.72,411.39 226.997,417.006L226.997,417.006ZM243.374,403.941C244.717,399.829 245.806,395.64 246.637,391.395C265.473,381.851 268.704,365.315 268.704,365.315C268.704,365.315 260.53,379.951 248.747,382.042C248.75,381.931 250.444,374.697 251.581,369.849C259.04,364.137 266.196,358.042 273.02,351.588C274.246,363.941 284.551,397.256 243.374,403.941ZM277.649,389.579C279.195,386.054 280.163,382.304 280.52,378.472C291.17,376.693 313.286,354.619 311.405,354.619C310.817,354.619 290.577,369.367 280.91,372.09C280.873,371.827 280.836,371.565 280.801,371.301C280.761,368.9 280.613,365.352 280.451,363.052C288.092,352.765 305.1,347.468 309.736,346.925C314.831,346.114 319.992,345.785 325.148,345.941C314.009,371.491 301.142,388.088 277.649,389.579L277.649,389.579ZM326.787,339.62C326.787,339.62 317.807,340.285 316.032,340.415C337.899,319.3 342.247,304.692 342.247,304.692C342.247,304.692 323.881,326.837 312.782,333.668C312.708,330.929 312.086,328.232 310.951,325.737C311.021,325.619 333.891,286.447 361.848,291.677C346.709,305.318 353.655,333.489 326.787,339.62ZM366.276,284.963C362.76,284.963 361.366,284.73 357.976,284.73C362.299,278.787 366.622,273.057 366.838,256.737C363.87,267.954 355.447,282.553 345.437,287.54C344.929,285.248 343.164,277.908 341.395,275.592C346.891,258.719 360.093,245.471 376.947,239.916C383.098,258.726 380.942,282.245 366.276,284.963L366.276,284.963ZM383.325,239.197C382.618,236.567 381.329,234.131 379.556,232.065C377.443,232.286 375.365,232.762 373.368,233.484C372.277,233.88 380.367,206.207 388.244,194.99C380.713,202.045 373.905,215.562 366.622,229.177C365.011,225.571 363.001,222.157 360.627,219C367.841,189.388 399.007,173.761 399.81,173.456C395.443,203.552 407.566,219.129 383.325,239.196L383.325,239.197Z"/>
            <path d="M246.49,373.665C240.062,378.367 233.363,382.859 226.39,387.138L226.403,387.131C219.409,391.958 212.859,396.519 209.372,407.736C207.714,395.55 178.138,382.596 166.668,372.237C164.448,390.809 191.269,434.423 209.074,414.213C212.597,416.753 216.772,418.235 221.108,418.487C223.15,418.392 225.154,417.888 226.997,417.005C240.721,411.388 244.655,378.667 246.49,373.664L246.49,373.665ZM200.184,412.4C192.043,410.378 184.911,405.747 174.804,389.961C183.499,397.73 203.087,406.928 200.184,412.4ZM216.541,411.315C217.001,405.871 234.59,389.174 236.977,389.061C233.195,395.161 225.012,410.688 216.541,411.315Z" style="fill:rgb(221,176,98);"/>
            <path d="M207.543,391.164C319.346,331.102 366.103,224.281 366.103,37.183C317.033,19.759 262.292,11.018 207.525,11.018C152.853,11.018 98.154,19.722 48.981,37.183C48.981,224.281 95.738,331.102 207.543,391.164ZM326.591,31.51C338.005,34.406 349.133,37.709 359.802,41.369C359.765,50.886 359.597,60.325 359.304,69.539L326.591,69.539L326.591,31.51ZM94.001,30.067C168.556,12.565 246.147,12.536 320.714,29.981L320.714,69.539L94.001,69.539L94.001,30.067ZM94.001,75.44L320.692,75.44C316.805,177.386 294.391,260.293 207.346,315.384C120.3,260.293 97.887,177.386 94.001,75.44ZM54.89,41.369C65.559,37.709 76.688,34.406 88.101,31.51L88.101,69.539L55.387,69.539C55.095,60.325 54.927,50.887 54.89,41.369ZM88.101,75.44L88.101,75.551L88.106,75.664C91.58,166.799 108.047,259.519 204.19,320.369L207.346,322.366L210.501,320.369C306.645,259.519 323.112,166.799 326.587,75.665L326.591,75.551L326.591,75.44L359.496,75.44C353.366,236.155 306.871,329.831 207.543,384.45C108.215,329.83 61.719,236.155 55.587,75.44L88.101,75.44Z" style="fill:rgb(221,176,98);"/>
            <path d="M88.1,31.51C76.688,34.406 65.559,37.709 54.889,41.369C54.927,50.886 55.093,60.325 55.387,69.539L88.1,69.539L88.1,31.51Z" style="fill:rgb(219,49,50);"/>
            <path d="M326.59,31.51L326.59,69.539L359.304,69.539C359.597,60.325 359.765,50.887 359.802,41.369C349.133,37.709 338.005,34.406 326.59,31.51Z" style="fill:rgb(219,49,50);"/>
            <path d="M320.691,75.439L207.346,75.439L207.346,315.384C294.391,260.293 316.804,177.385 320.691,75.439Z" style="fill:rgb(255,224,44);"/>
            <path d="M207.346,315.384L207.346,75.439L94.001,75.439C97.887,177.385 120.3,260.293 207.346,315.384Z" style="fill:rgb(219,49,50);"/>
            <path d="M326.59,75.439L326.59,75.551L326.587,75.664C323.112,166.799 306.644,259.519 210.501,320.368L207.346,322.366L204.19,320.368C108.047,259.519 91.579,166.798 88.105,75.664L88.1,75.551L88.1,75.439L55.587,75.439C61.719,236.155 108.215,329.829 207.543,384.45C306.869,329.831 353.366,236.155 359.495,75.439L326.59,75.439Z" style="fill:rgb(73,159,104);"/>
            <path d="M320.713,29.981C246.147,12.535 168.555,12.565 94.001,30.067L94.001,69.539L320.713,69.539L320.713,29.981Z" style="fill:white;"/>
            <path d="M260.064,63.265L287.227,63.265C293.484,63.242 295.037,56.52 291.597,52.807L279.521,40.81L291.809,40.81L291.827,33.782C281.555,30.804 272.129,28.778 266.93,29.613C260.064,31.243 257.607,39.001 263.051,44.716L272.645,54.213L260.128,54.216L260.064,63.266L260.064,63.265Z" style="fill:rgb(221,176,98);"/>
            <path d="M166.532,27.694L159.729,45.29L154.772,28.445L140.631,29.908L135.303,43.902L131.595,31.231L117.072,32.642L117.016,32.647L116.998,32.648L125.957,63.265L137.518,63.265L144.611,44.919L149.98,63.265L162.483,63.265L176.626,26.684L166.532,27.694Z" style="fill:rgb(221,176,98);"/>
            <path d="M241.435,63.265L221.902,43.377L240.556,26.672L226.992,26.672L211.575,40.48L211.575,26.698L197.168,26.698L197.168,63.284L211.575,63.284L211.575,53.421L221.242,63.265L241.435,63.265Z" style="fill:rgb(221,176,98);"/>
            <path d="M247.591,39.271C249.934,39.203 252.084,40.561 253.03,42.705C253.975,44.851 253.525,47.354 251.892,49.035C250.259,50.717 247.771,51.242 245.599,50.361C243.427,49.481 242.006,47.371 242.005,45.028C241.959,41.896 244.459,39.321 247.591,39.271Z" style="fill:rgb(221,176,98);"/>
            <path d="M183.288,39.271C185.631,39.203 187.781,40.561 188.726,42.705C189.671,44.851 189.221,47.354 187.589,49.035C185.957,50.717 183.468,51.242 181.296,50.361C179.123,49.481 177.703,47.371 177.701,45.028C177.656,41.896 180.156,39.32 183.288,39.271Z" style="fill:rgb(221,176,98);"/>
            <path d="M208.006,362.514C209.813,362.461 211.473,363.508 212.201,365.163C212.931,366.818 212.585,368.749 211.325,370.047C210.066,371.345 208.145,371.75 206.47,371.071C204.794,370.392 203.696,368.766 203.694,366.957C203.66,364.54 205.589,362.552 208.006,362.514L208.006,362.514Z" style="fill:white;"/>
            <path d="M251.249,333.477L255.602,338.031L273.416,320.975C279.838,314.816 275.1,307.738 268.794,308.024L251.062,310.446L262.082,299.879L257.82,295.423C257.82,295.423 241.83,309.34 239.485,313.751C238.274,316.081 238.478,318.893 240.015,321.022C241.551,323.15 244.156,324.231 246.748,323.815C250.613,323.272 263.701,321.527 263.701,321.527L251.249,333.477L251.249,333.477Z" style="fill:white;"/>
            <path d="M149.13,320.514L165.841,304.514L157.03,295.364L135.941,315.744L155.007,335.543L159.501,331.228L149.13,320.514Z" style="fill:white;"/>
            <path d="M123.426,281.5L125.089,265.168L132.135,277.271L137.028,274.433C137.028,274.433 135.207,270.927 132.895,266.801L135.391,265.479L130.156,256.458L127.539,257.848C126.713,256.506 125.739,255.258 124.639,254.13C122.824,252.547 120.271,252.124 118.042,253.036C115.812,253.946 114.286,256.037 114.099,258.438C113.752,262.001 112.484,274.048 112.484,274.048L104.513,260.369L99.515,263.268L110.882,282.828C114.988,289.885 122.323,287.187 123.427,281.501L123.426,281.5Z" style="fill:white;"/>
            <path d="M314.327,265.254L294.173,269.566L291.138,251.303L285.763,259.77L288.271,274.863L279.669,269.402L273.532,279.073L296.369,293.572L302.506,283.901L294.433,278.78L307.5,275.998L314.327,265.254Z" style="fill:white;"/>
            <path d="M211.092,329.742L200.038,329.742L184.541,355.441L194.393,361.372L199.788,352.363L216.292,352.363L222.68,361.605L229.59,356.863L211.091,329.742L211.092,329.742ZM203.162,347.032L207.528,339.589L212.711,347.032L203.162,347.032Z" style="fill:white;"/>
            <path d="M316.219,222.195C318.562,222.126 320.712,223.484 321.657,225.628C322.602,227.772 322.152,230.277 320.52,231.959C318.888,233.64 316.399,234.165 314.227,233.284C312.055,232.404 310.633,230.295 310.632,227.951C310.587,224.818 313.088,222.243 316.219,222.195Z" style="fill:white;"/>
            <path d="M105.052,228.456C105.052,231.634 102.551,234.209 99.466,234.209C96.38,234.209 93.879,231.634 93.879,228.456C93.879,225.277 96.38,222.701 99.466,222.701C102.551,222.701 105.051,225.278 105.052,228.456Z" style="fill:white;"/>
            <path d="M285.917,143.489L300.52,148.818C302.169,144.226 303.55,139.542 304.655,134.79C298.607,132.293 294.663,126.397 294.663,119.856C294.653,112.552 289.752,106.161 282.703,104.256C275.652,102.352 268.199,105.405 264.514,111.71C261.62,116.623 256.339,119.631 250.639,119.614L250.639,130.306C252.274,130.303 253.744,131.3 254.347,132.82C254.95,134.339 254.561,136.074 253.369,137.192C248.254,142.971 240.907,146.278 233.191,146.277C232.608,146.277 232.028,146.257 231.455,146.223C229.784,146.112 228.341,145.01 227.794,143.426C222.414,127.266 225.375,115.506 225.375,115.506C226.356,111.54 230.095,109.415 234.827,108.101C239.329,106.848 239.876,101.497 239.876,101.497C235.14,103.832 229.793,104.622 224.584,103.758C231.193,97.305 239.607,96.51 241.374,97.464C242.709,98.188 243.451,99.669 243.232,101.171C245.177,99.05 245.685,95.979 244.524,93.346C243.365,90.712 240.758,89.012 237.879,89.014C235.971,89.011 234.071,89.241 232.217,89.698C231.13,88.346 229.594,87.431 227.888,87.119C220.409,85.84 212.778,88.286 207.438,93.674L207.444,168.923C234.454,168.924 259.328,154.241 272.374,130.592C270.643,131.297 268.665,130.994 267.224,129.802C265.783,128.613 265.112,126.727 265.476,124.894C265.843,123.06 267.185,121.575 268.971,121.028C270.759,120.481 272.703,120.959 274.032,122.274C273.005,120.381 273.284,118.046 274.728,116.449C276.171,114.851 278.466,114.337 280.454,115.168C282.44,115.998 283.687,117.992 283.565,120.142C283.443,122.291 281.978,124.13 279.909,124.73C280.554,124.739 281.19,124.871 281.783,125.121C283.344,125.77 284.479,127.152 284.813,128.808C285.148,130.464 284.636,132.178 283.45,133.382C282.263,134.585 280.556,135.12 278.895,134.808C277.234,134.496 275.836,133.379 275.166,131.828C265.535,161.066 238.23,180.826 207.446,180.834L207.454,300.559C214.919,295.157 219.549,286.677 220.057,277.476C224.95,278.844 230.201,277.826 234.226,274.727C238.252,271.628 240.581,266.812 240.509,261.733C237.953,263.337 234.994,264.188 231.975,264.188C220.067,264.188 216.06,248.79 216.06,241.569C216.025,236.467 217.328,231.444 219.84,227.003C220.971,229.887 222.6,232.548 224.654,234.868C225.879,232.987 227.137,231.195 228.453,229.476C229.574,231.508 230.463,233.116 230.482,233.147C230.851,233.813 230.939,234.598 230.728,235.329C230.517,236.06 230.024,236.677 229.357,237.045C225.548,238.986 223.527,243.253 224.439,247.431C225.352,251.608 228.968,254.644 233.241,254.82C231.477,251.055 232.522,246.574 235.766,243.976C239.011,241.378 243.613,241.339 246.901,243.882C248.319,244.984 250.225,245.228 251.875,244.521C251.292,241.702 249.784,239.158 247.591,237.292C250.571,235.642 254.222,235.795 257.056,237.687C257.832,238.244 260.277,239.878 262.506,238.646C261.92,235.828 260.412,233.285 258.221,231.418C261.202,229.769 264.854,229.921 267.688,231.814C268.464,232.369 270.964,233.971 273.18,232.745C272.248,228.56 269.396,225.06 265.487,223.302C261.577,221.543 257.067,221.732 253.318,223.812C253.285,223.83 243.178,229.409 243.178,229.409C241.791,230.173 240.048,229.671 239.281,228.286L235.652,221.717C236.979,220.566 238.377,219.498 239.837,218.521L239.78,218.522C239.832,218.496 239.885,218.472 239.934,218.445L239.931,218.445L232.294,198.45L232.304,198.437C233.968,197.609 235.604,196.735 237.222,195.833L237.021,195.967L250.894,211.995C254.705,209.477 258.378,206.757 261.896,203.844L252.729,185.49L252.593,185.58C254.051,184.429 255.48,183.244 256.882,182.026L256.822,182.09L272.509,193.987C275.77,190.593 278.839,187.022 281.707,183.288L270.018,168.589L269.936,168.674C271.107,167.266 272.251,165.835 273.355,164.372L273.332,164.411L289.457,172.004C291.992,167.839 294.286,163.532 296.325,159.104L283.44,148.465L283.377,148.568C284.254,146.9 285.104,145.219 285.9,143.504L285.916,143.488L285.917,143.489ZM218.065,91.54C221.516,90.755 224.076,93.596 228.605,91.404C224.512,97.719 217.863,96.499 218.065,91.54Z"/>
            <path d="M139.713,131.828C138.974,133.535 137.361,134.702 135.508,134.869C133.655,135.037 131.859,134.178 130.827,132.632C129.793,131.085 129.687,129.097 130.552,127.45C131.416,125.802 133.111,124.759 134.971,124.73C132.895,124.132 131.424,122.29 131.3,120.134C131.175,117.979 132.425,115.979 134.417,115.147C136.409,114.315 138.711,114.83 140.157,116.434C141.604,118.036 141.879,120.378 140.848,122.274C142.177,120.956 144.123,120.474 145.913,121.022C147.703,121.569 149.048,123.055 149.414,124.891C149.78,126.727 149.107,128.615 147.663,129.806C146.22,130.998 144.238,131.299 142.505,130.591C155.551,154.24 180.425,168.924 207.435,168.922L207.438,93.674C202.099,88.286 194.468,85.84 186.991,87.118C185.285,87.429 183.747,88.345 182.661,89.697C180.809,89.24 178.906,89.011 176.998,89.013C174.12,89.011 171.513,90.711 170.353,93.345C169.195,95.98 169.701,99.051 171.647,101.171C171.427,99.668 172.169,98.187 173.504,97.464C175.27,96.509 183.685,97.304 190.294,103.758C185.085,104.622 179.737,103.831 175.002,101.496C175.002,101.496 175.549,106.848 180.051,108.101C184.784,109.414 188.523,111.54 189.504,115.506C189.504,115.506 192.465,127.266 187.086,143.425C186.538,145.009 185.094,146.111 183.422,146.222C182.85,146.257 182.272,146.277 181.689,146.277C173.973,146.278 166.625,142.97 161.51,137.191C160.318,136.073 159.929,134.339 160.532,132.819C161.135,131.299 162.605,130.303 164.24,130.305L164.24,119.614C158.54,119.63 153.258,116.622 150.366,111.71C146.679,105.405 139.228,102.35 132.177,104.256C125.126,106.16 120.225,112.551 120.216,119.855C120.215,126.396 116.271,132.294 110.223,134.79C111.33,139.541 112.709,144.225 114.359,148.817L128.96,143.488L128.977,143.505C129.776,145.219 130.623,146.901 131.5,148.569L131.437,148.466L118.552,159.104C120.592,163.533 122.886,167.839 125.422,172.004L141.548,164.412L141.523,164.372C142.627,165.836 143.77,167.267 144.942,168.675L144.86,168.59L133.173,183.289C136.039,187.023 139.11,190.595 142.371,193.987L158.057,182.091L157.996,182.027C159.397,183.246 160.826,184.431 162.285,185.58L162.15,185.491L152.981,203.845C156.5,206.758 160.174,209.478 163.985,211.995L177.857,195.968L177.653,195.834C179.272,196.736 180.908,197.61 182.574,198.437L182.584,198.45L174.946,218.446L174.943,218.446C174.994,218.472 175.046,218.497 175.097,218.523L175.04,218.521C176.501,219.498 177.898,220.567 179.224,221.718L175.596,228.287C174.83,229.671 173.087,230.175 171.701,229.409C171.701,229.409 161.593,223.83 161.562,223.813C157.813,221.733 153.302,221.544 149.392,223.303C145.482,225.062 142.631,228.561 141.698,232.746C143.915,233.973 146.414,232.371 147.191,231.814C150.024,229.922 153.675,229.769 156.656,231.418C154.467,233.285 152.959,235.828 152.371,238.646C154.601,239.878 157.045,238.244 157.823,237.687C160.656,235.795 164.308,235.643 167.288,237.292C165.093,239.157 163.585,241.701 163.004,244.521C164.654,245.228 166.559,244.984 167.977,243.883C171.265,241.34 175.868,241.378 179.112,243.976C182.357,246.575 183.401,251.056 181.639,254.822C185.91,254.644 189.525,251.608 190.438,247.43C191.349,243.253 189.33,238.987 185.521,237.046C184.854,236.678 184.362,236.061 184.15,235.33C183.939,234.599 184.029,233.814 184.398,233.148C184.416,233.118 185.304,231.51 186.427,229.478C187.739,231.196 188.998,232.989 190.225,234.869C192.278,232.549 193.906,229.887 195.036,227.004C197.549,231.445 198.853,236.468 198.819,241.57C198.819,248.791 194.812,264.189 182.902,264.189C179.884,264.189 176.926,263.338 174.369,261.734C174.298,266.813 176.626,271.629 180.651,274.728C184.677,277.827 189.928,278.845 194.82,277.477C195.329,286.678 199.959,295.158 207.423,300.561L207.432,180.835C176.649,180.825 149.344,161.067 139.713,131.829L139.713,131.828ZM186.274,91.403C190.803,93.596 193.365,90.755 196.816,91.54C197.017,96.498 190.368,97.719 186.274,91.403Z" style="fill:white;"/>
            <path d="M207.524,5.118C263.729,5.118 319.248,14.284 368.078,31.623L372.004,33.016L372.004,37.183C372.004,47.073 371.868,56.732 371.596,66.159C388.023,79.95 398.957,99.175 402.41,120.342L403.919,129.561C404.501,133.128 405.224,156.423 405.414,165.004C405.746,168.092 405.825,171.202 405.649,174.303C404.537,182.331 404.271,190.454 404.855,198.538C405.427,214.082 405.922,227.507 388.396,242.207L384.528,245.449C387.416,258.912 386.274,272.196 381.211,280.725C379.845,283.055 378.067,285.117 375.962,286.812L376.057,286.818L365.799,296.059C360.973,300.408 358.748,307.141 356.396,314.268C352.719,325.399 348.318,338.681 332.354,344.157L330.765,347.828C324.087,363.235 317.431,373.884 309.819,381.346C300.944,390.268 288.933,395.37 276.35,395.559L274.003,395.641C268.167,403.073 254.993,408.012 241.291,410.038C241.291,410.038 233.471,423.364 220.304,423.364C216.581,423.308 212.928,422.344 209.664,420.553C206.46,423.115 202.48,424.508 198.38,424.505C186.198,424.505 175.309,412.853 175.309,412.853C160.532,412.113 144.155,401.354 136.758,391.324L130.372,389.195C112.187,383.13 100.458,376.7 93.465,368.961C86.758,361.539 85.248,353.821 83.918,347.011C83.72,346 83.524,345.003 83.315,344.015L77.338,339.971C59.044,327.603 56.1,318.25 52.981,308.35C50.652,299.853 46.677,291.895 41.285,284.927C41.285,284.927 34.853,276.17 33.39,272.189C29.255,261.018 27.222,249.18 27.392,237.269L21.876,227.301C14.461,213.901 11.141,197.647 11.724,177.615L11.889,173.523C1.548,160.594 -2.497,87.144 42.172,69.749L43.583,69.362L43.583,69.37L43.584,69.403L43.583,69.37L43.583,69.362C43.252,58.909 43.085,48.183 43.08,37.182L43.08,33.016L47.007,31.622C95.837,14.283 151.344,5.118 207.525,5.118L207.525,5.117L207.524,5.118ZM207.524,0C150.767,0 94.668,9.266 45.293,26.799L41.368,28.193L37.961,29.403L37.961,37.183C37.961,46.777 38.094,56.38 38.355,65.787C21.646,73.062 9.749,88.384 3.877,110.244C-2.822,135.186 -0.163,163.855 6.706,175.023L6.61,177.411C5.996,198.443 9.525,215.555 17.396,229.78L22.28,238.606C22.227,250.702 24.374,262.706 28.615,274.034C30.215,278.392 36.013,286.398 37.16,287.959C42.22,294.473 45.938,301.927 48.099,309.888C51.344,320.192 54.698,330.845 74.47,344.214L78.714,347.084C78.775,347.386 78.834,347.689 78.892,347.994C80.281,355.088 82.005,363.916 89.667,372.394C97.276,380.814 109.695,387.696 128.752,394.051L133.659,395.687C141.696,405.699 157.502,416.249 173.052,417.814C176.753,421.282 186.852,429.624 198.379,429.624C202.517,429.641 206.58,428.529 210.135,426.41C213.358,427.754 216.812,428.459 220.303,428.483C232.825,428.483 241.132,419.07 244.29,414.74C252.579,413.31 267.874,409.574 276.396,400.679L276.528,400.675C290.391,400.462 303.625,394.837 313.399,385.002C321.501,377.062 328.512,365.897 335.461,349.863L336.187,348.187C352.812,341.443 357.669,326.733 361.255,315.873C363.389,309.41 365.403,303.305 369.225,299.863L379.483,290.621L388.533,282.468L386.19,282.321C390.991,273.482 392.415,260.718 390.124,247.438L391.685,246.129C411.129,229.819 410.565,214.533 409.969,198.35L409.91,196.809C409.424,189.572 409.689,182.304 410.702,175.122C410.971,171.649 410.912,168.16 410.526,164.698C410.401,159.187 409.687,133.126 408.969,128.734L407.483,119.647C404.031,98.057 393.175,78.339 376.779,63.876C377.006,55.037 377.121,46.069 377.121,37.183L377.121,29.403L373.716,28.193L369.79,26.799C320.417,9.266 264.306,-0 207.524,-0L207.524,0Z" style="fill:white;"/>
        </g>
    </g>
</svg>